<!-- Generator: Adobe Illustrator 23.1.1, SVG Export Plug-In  -->
<svg version="1.1" xmlns="http://www.w3.org/2000/svg" xmlns:xlink="http://www.w3.org/1999/xlink" x="0px" y="0px"
	 width="187.39px" height="36.81px" viewBox="0 0 187.39 36.81" style="enable-background:new 0 0 187.39 36.81;"
	 xml:space="preserve">
<style type="text/css">
	.st0{fill:#FFFFFF;}
</style>
<defs>
</defs>
<g>
	<path class="st0" d="M5.67,7.02H5.62C5.55,7.39,5.35,7.71,5,7.96C4.65,8.21,4.19,8.34,3.61,8.34c-0.46,0-0.88-0.08-1.26-0.25
		c-0.38-0.17-0.72-0.42-1-0.75C1.07,7,0.84,6.59,0.68,6.09C0.52,5.6,0.44,5.03,0.44,4.39s0.08-1.22,0.25-1.71
		c0.17-0.5,0.4-0.91,0.7-1.25s0.66-0.59,1.08-0.77C2.88,0.48,3.35,0.4,3.86,0.4c0.69,0,1.28,0.15,1.76,0.45s0.87,0.73,1.14,1.3
		L5.59,2.84c-0.14-0.33-0.35-0.6-0.62-0.82C4.69,1.79,4.32,1.68,3.86,1.68c-0.57,0-1.03,0.17-1.37,0.52
		C2.15,2.55,1.98,3.07,1.98,3.75v1.23c0,0.67,0.17,1.19,0.52,1.54S3.3,7.05,3.88,7.05c0.23,0,0.44-0.03,0.64-0.08
		c0.2-0.06,0.37-0.14,0.52-0.25C5.18,6.61,5.3,6.48,5.39,6.31c0.09-0.16,0.13-0.35,0.13-0.57v-0.5H4.02V4.03h2.9v4.18H5.67V7.02z"/>
	<path class="st0" d="M9.92,8.21c-0.48,0-0.84-0.12-1.07-0.36C8.63,7.6,8.51,7.26,8.51,6.82V0.07h1.41v7.01h0.76v1.13H9.92z"/>
	<path class="st0" d="M15.97,8.21c-0.31,0-0.55-0.09-0.73-0.27s-0.29-0.42-0.34-0.72h-0.07c-0.1,0.37-0.29,0.65-0.58,0.84
		c-0.29,0.19-0.66,0.28-1.09,0.28c-0.59,0-1.04-0.15-1.35-0.46c-0.32-0.31-0.47-0.72-0.47-1.23c0-0.59,0.21-1.03,0.64-1.32
		s1.03-0.43,1.82-0.43h0.98V4.48c0-0.32-0.08-0.57-0.25-0.75c-0.17-0.18-0.44-0.26-0.81-0.26c-0.33,0-0.6,0.07-0.8,0.21
		c-0.2,0.14-0.37,0.31-0.51,0.51l-0.84-0.75c0.21-0.33,0.5-0.6,0.85-0.8c0.35-0.2,0.82-0.3,1.4-0.3c0.78,0,1.37,0.18,1.77,0.53
		s0.61,0.86,0.61,1.51v2.7h0.57v1.13H15.97z M13.64,7.31c0.32,0,0.58-0.07,0.8-0.21c0.22-0.14,0.33-0.34,0.33-0.61V5.74h-0.9
		c-0.73,0-1.1,0.23-1.1,0.7v0.19c0,0.23,0.08,0.41,0.23,0.52S13.36,7.31,13.64,7.31z"/>
	<path class="st0" d="M20.16,8.34c-0.43,0-0.8-0.07-1.13-0.21s-0.61-0.34-0.83-0.6c-0.22-0.26-0.39-0.58-0.51-0.95
		c-0.12-0.37-0.18-0.79-0.18-1.25c0-0.46,0.06-0.88,0.18-1.24c0.12-0.37,0.29-0.68,0.51-0.94s0.5-0.46,0.83-0.6
		c0.33-0.14,0.71-0.21,1.13-0.21c0.58,0,1.06,0.13,1.44,0.39c0.38,0.26,0.65,0.61,0.82,1.07L21.26,4.3
		c-0.07-0.24-0.19-0.44-0.37-0.6s-0.42-0.24-0.73-0.24c-0.4,0-0.69,0.12-0.89,0.37c-0.19,0.25-0.29,0.58-0.29,0.98v1.05
		c0,0.4,0.1,0.73,0.29,0.97c0.19,0.25,0.49,0.37,0.89,0.37c0.34,0,0.6-0.09,0.78-0.26c0.18-0.17,0.33-0.39,0.43-0.64l1.08,0.52
		c-0.19,0.51-0.48,0.89-0.87,1.14S20.72,8.34,20.16,8.34z"/>
	<path class="st0" d="M24.24,1.63c-0.29,0-0.5-0.07-0.63-0.2c-0.13-0.13-0.19-0.3-0.19-0.51V0.7c0-0.21,0.06-0.37,0.19-0.51
		C23.74,0.07,23.95,0,24.24,0c0.29,0,0.5,0.07,0.63,0.2c0.13,0.13,0.2,0.3,0.2,0.51v0.22c0,0.21-0.07,0.37-0.2,0.51
		C24.74,1.56,24.53,1.63,24.24,1.63z M23.54,2.46h1.41v5.74h-1.41V2.46z"/>
	<path class="st0" d="M30.8,8.21c-0.31,0-0.55-0.09-0.73-0.27s-0.29-0.42-0.34-0.72h-0.07c-0.1,0.37-0.29,0.65-0.58,0.84
		C28.79,8.24,28.43,8.34,28,8.34c-0.59,0-1.04-0.15-1.35-0.46c-0.32-0.31-0.47-0.72-0.47-1.23c0-0.59,0.21-1.03,0.64-1.32
		s1.03-0.43,1.82-0.43h0.98V4.48c0-0.32-0.08-0.57-0.25-0.75c-0.17-0.18-0.44-0.26-0.81-0.26c-0.33,0-0.6,0.07-0.8,0.21
		c-0.2,0.14-0.37,0.31-0.51,0.51l-0.84-0.75c0.21-0.33,0.5-0.6,0.85-0.8c0.35-0.2,0.82-0.3,1.4-0.3c0.78,0,1.37,0.18,1.77,0.53
		s0.61,0.86,0.61,1.51v2.7h0.57v1.13H30.8z M28.47,7.31c0.32,0,0.58-0.07,0.8-0.21c0.22-0.14,0.33-0.34,0.33-0.61V5.74h-0.9
		c-0.73,0-1.1,0.23-1.1,0.7v0.19c0,0.23,0.08,0.41,0.23,0.52S28.19,7.31,28.47,7.31z"/>
	<path class="st0" d="M34.13,8.21c-0.48,0-0.84-0.12-1.07-0.36c-0.23-0.24-0.34-0.58-0.34-1.02V0.07h1.41v7.01h0.76v1.13H34.13z"/>
	<path class="st0" d="M42.78,8.21c-0.31,0-0.55-0.09-0.73-0.27s-0.29-0.42-0.34-0.72h-0.07c-0.1,0.37-0.29,0.65-0.58,0.84
		c-0.29,0.19-0.66,0.28-1.09,0.28c-0.59,0-1.04-0.15-1.35-0.46c-0.32-0.31-0.47-0.72-0.47-1.23c0-0.59,0.21-1.03,0.64-1.32
		S39.82,4.9,40.6,4.9h0.98V4.48c0-0.32-0.08-0.57-0.25-0.75c-0.17-0.18-0.44-0.26-0.81-0.26c-0.33,0-0.6,0.07-0.8,0.21
		c-0.2,0.14-0.37,0.31-0.51,0.51l-0.84-0.75c0.21-0.33,0.5-0.6,0.85-0.8c0.35-0.2,0.82-0.3,1.4-0.3c0.78,0,1.37,0.18,1.77,0.53
		s0.61,0.86,0.61,1.51v2.7h0.57v1.13H42.78z M40.45,7.31c0.32,0,0.58-0.07,0.8-0.21c0.22-0.14,0.33-0.34,0.33-0.61V5.74h-0.9
		c-0.73,0-1.1,0.23-1.1,0.7v0.19c0,0.23,0.08,0.41,0.23,0.52S40.17,7.31,40.45,7.31z"/>
	<path class="st0" d="M46.97,8.34c-0.43,0-0.8-0.07-1.13-0.21S45.23,7.79,45,7.52c-0.22-0.26-0.39-0.58-0.51-0.95
		c-0.12-0.37-0.18-0.79-0.18-1.25c0-0.46,0.06-0.88,0.18-1.24C44.61,3.71,44.78,3.4,45,3.14s0.5-0.46,0.83-0.6
		c0.33-0.14,0.71-0.21,1.13-0.21c0.58,0,1.06,0.13,1.44,0.39c0.38,0.26,0.65,0.61,0.82,1.07L48.07,4.3C48,4.06,47.88,3.86,47.7,3.7
		s-0.42-0.24-0.73-0.24c-0.4,0-0.69,0.12-0.89,0.37c-0.19,0.25-0.29,0.58-0.29,0.98v1.05c0,0.4,0.1,0.73,0.29,0.97
		c0.19,0.25,0.49,0.37,0.89,0.37c0.34,0,0.6-0.09,0.78-0.26c0.18-0.17,0.33-0.39,0.43-0.64l1.08,0.52
		c-0.19,0.51-0.48,0.89-0.87,1.14S47.53,8.34,46.97,8.34z"/>
	<path class="st0" d="M52.14,8.21c-0.48,0-0.85-0.13-1.11-0.38c-0.25-0.25-0.38-0.61-0.38-1.08V3.6h-0.85V2.46h0.44
		c0.21,0,0.36-0.05,0.43-0.15c0.08-0.1,0.12-0.25,0.12-0.45V0.89h1.27v1.57h1.18V3.6h-1.18v3.48h1.09v1.13H52.14z"/>
	<path class="st0" d="M55.16,1.63c-0.29,0-0.5-0.07-0.63-0.2c-0.13-0.13-0.19-0.3-0.19-0.51V0.7c0-0.21,0.06-0.37,0.19-0.51
		C54.66,0.07,54.87,0,55.16,0c0.29,0,0.5,0.07,0.63,0.2c0.13,0.13,0.2,0.3,0.2,0.51v0.22c0,0.21-0.07,0.37-0.2,0.51
		C55.66,1.56,55.45,1.63,55.16,1.63z M54.46,2.46h1.41v5.74h-1.41V2.46z"/>
	<path class="st0" d="M59.77,8.34c-0.41,0-0.78-0.07-1.11-0.21s-0.6-0.34-0.84-0.6c-0.23-0.26-0.41-0.58-0.53-0.95
		c-0.12-0.37-0.19-0.79-0.19-1.25c0-0.46,0.06-0.88,0.19-1.24c0.12-0.37,0.3-0.68,0.53-0.94c0.23-0.26,0.51-0.46,0.84-0.6
		c0.33-0.14,0.7-0.21,1.11-0.21c0.41,0,0.78,0.07,1.11,0.21c0.33,0.14,0.61,0.34,0.84,0.6c0.23,0.26,0.41,0.57,0.53,0.94
		c0.12,0.37,0.19,0.78,0.19,1.24c0,0.46-0.06,0.88-0.19,1.25c-0.12,0.37-0.3,0.69-0.53,0.95c-0.23,0.26-0.51,0.47-0.84,0.6
		S60.18,8.34,59.77,8.34z M59.77,7.21c0.37,0,0.67-0.11,0.88-0.34c0.21-0.23,0.32-0.56,0.32-1V4.8c0-0.43-0.11-0.76-0.32-0.99
		c-0.21-0.23-0.51-0.34-0.88-0.34c-0.37,0-0.66,0.11-0.87,0.34c-0.21,0.23-0.32,0.56-0.32,0.99v1.07c0,0.44,0.11,0.77,0.32,1
		C59.12,7.09,59.41,7.21,59.77,7.21z"/>
	<path class="st0" d="M63.69,8.21V2.46h1.41v0.96h0.06c0.12-0.31,0.3-0.57,0.55-0.78c0.25-0.21,0.6-0.31,1.05-0.31
		c0.59,0,1.05,0.19,1.36,0.58s0.47,0.94,0.47,1.66v3.63h-1.41V4.72c0-0.41-0.07-0.72-0.22-0.92c-0.15-0.21-0.39-0.31-0.73-0.31
		c-0.15,0-0.29,0.02-0.42,0.06c-0.14,0.04-0.26,0.1-0.36,0.18S65.26,3.9,65.2,4.01c-0.07,0.11-0.1,0.25-0.1,0.4v3.79H63.69z"/>
	<path class="st0" d="M72.75,0.07h1.41v3.34h0.04c0.1-0.33,0.3-0.59,0.58-0.79c0.29-0.19,0.62-0.29,1-0.29
		c0.73,0,1.29,0.26,1.68,0.78s0.58,1.26,0.58,2.22c0,0.97-0.19,1.71-0.58,2.23s-0.94,0.78-1.68,0.78c-0.38,0-0.71-0.1-1-0.3
		c-0.28-0.2-0.48-0.46-0.59-0.79h-0.04v0.96h-1.41V0.07z M75.34,7.17c0.37,0,0.66-0.12,0.89-0.36s0.34-0.57,0.34-0.98V4.84
		c0-0.41-0.11-0.74-0.34-0.98C76,3.61,75.7,3.49,75.34,3.49c-0.34,0-0.62,0.08-0.84,0.25c-0.22,0.17-0.34,0.39-0.34,0.67v1.83
		c0,0.3,0.11,0.53,0.34,0.69S75,7.17,75.34,7.17z"/>
	<path class="st0" d="M81.67,8.34c-0.42,0-0.8-0.07-1.14-0.21c-0.33-0.14-0.62-0.34-0.85-0.6c-0.23-0.26-0.41-0.58-0.53-0.95
		c-0.12-0.37-0.19-0.79-0.19-1.25c0-0.45,0.06-0.87,0.18-1.23s0.29-0.68,0.52-0.94c0.23-0.26,0.51-0.46,0.84-0.6s0.7-0.21,1.12-0.21
		c0.45,0,0.84,0.08,1.17,0.23c0.33,0.15,0.6,0.36,0.81,0.63c0.21,0.26,0.37,0.57,0.48,0.92c0.11,0.35,0.16,0.72,0.16,1.12v0.46
		h-3.82v0.14c0,0.42,0.12,0.75,0.35,1c0.23,0.25,0.58,0.38,1.04,0.38c0.35,0,0.64-0.07,0.86-0.22s0.42-0.33,0.6-0.56l0.76,0.85
		c-0.23,0.33-0.56,0.59-0.96,0.78C82.68,8.24,82.21,8.34,81.67,8.34z M81.65,3.39c-0.37,0-0.67,0.12-0.89,0.37
		c-0.22,0.25-0.33,0.57-0.33,0.97v0.09h2.35v-0.1c0-0.4-0.1-0.72-0.29-0.96C82.3,3.51,82.02,3.39,81.65,3.39z"/>
	<path class="st0" d="M90.67,8.69c0,0.3-0.05,0.57-0.16,0.8c-0.11,0.23-0.28,0.42-0.52,0.58c-0.24,0.15-0.55,0.27-0.94,0.35
		s-0.85,0.12-1.4,0.12c-0.48,0-0.9-0.03-1.23-0.09c-0.34-0.06-0.61-0.15-0.83-0.26c-0.22-0.11-0.37-0.25-0.47-0.42
		c-0.1-0.17-0.14-0.36-0.14-0.57c0-0.32,0.09-0.57,0.27-0.75s0.43-0.3,0.75-0.35V7.96c-0.23-0.06-0.42-0.17-0.54-0.35
		c-0.13-0.17-0.19-0.38-0.19-0.61c0-0.15,0.03-0.28,0.09-0.39s0.14-0.21,0.24-0.29c0.1-0.08,0.21-0.15,0.33-0.2
		c0.12-0.06,0.26-0.1,0.4-0.13V5.95c-0.35-0.16-0.61-0.38-0.79-0.67c-0.17-0.29-0.26-0.62-0.26-1c0-0.59,0.2-1.06,0.6-1.41
		s0.99-0.53,1.77-0.53c0.18,0,0.35,0.01,0.52,0.03c0.17,0.02,0.33,0.06,0.48,0.11V2.29c0-0.56,0.27-0.84,0.81-0.84h0.89v1.08h-1.22
		v0.15c0.3,0.17,0.52,0.39,0.67,0.66c0.15,0.27,0.22,0.58,0.22,0.94c0,0.58-0.2,1.04-0.6,1.4c-0.4,0.35-0.99,0.53-1.78,0.53
		c-0.34,0-0.63-0.03-0.88-0.1c-0.11,0.05-0.21,0.12-0.29,0.2c-0.08,0.08-0.12,0.19-0.12,0.31c0,0.29,0.25,0.43,0.75,0.43h1.54
		c0.7,0,1.21,0.14,1.53,0.43C90.51,7.78,90.67,8.18,90.67,8.69z M89.35,8.85c0-0.18-0.07-0.33-0.22-0.43
		c-0.15-0.1-0.4-0.15-0.76-0.15h-1.96c-0.2,0.15-0.3,0.34-0.3,0.59c0,0.22,0.09,0.39,0.27,0.52c0.18,0.12,0.5,0.19,0.94,0.19h0.7
		c0.46,0,0.8-0.06,1.01-0.18S89.35,9.1,89.35,8.85z M87.66,5.24c0.69,0,1.03-0.29,1.03-0.88V4.18c0-0.58-0.34-0.88-1.03-0.88
		c-0.69,0-1.03,0.29-1.03,0.88v0.19C86.62,4.94,86.97,5.24,87.66,5.24z"/>
	<path class="st0" d="M92.19,1.63c-0.29,0-0.5-0.07-0.63-0.2c-0.13-0.13-0.19-0.3-0.19-0.51V0.7c0-0.21,0.06-0.37,0.19-0.51
		C91.68,0.07,91.89,0,92.19,0c0.29,0,0.5,0.07,0.63,0.2c0.13,0.13,0.2,0.3,0.2,0.51v0.22c0,0.21-0.07,0.37-0.2,0.51
		C92.68,1.56,92.47,1.63,92.19,1.63z M91.48,2.46h1.41v5.74h-1.41V2.46z"/>
	<path class="st0" d="M94.52,8.21V2.46h1.41v0.96h0.06c0.12-0.31,0.3-0.57,0.55-0.78c0.25-0.21,0.6-0.31,1.05-0.31
		c0.59,0,1.05,0.19,1.36,0.58s0.47,0.94,0.47,1.66v3.63h-1.41V4.72c0-0.41-0.07-0.72-0.22-0.92c-0.15-0.21-0.39-0.31-0.73-0.31
		c-0.15,0-0.29,0.02-0.42,0.06c-0.14,0.04-0.26,0.1-0.36,0.18s-0.19,0.17-0.26,0.29c-0.07,0.11-0.1,0.25-0.1,0.4v3.79H94.52z"/>
	<path class="st0" d="M102.87,8.34c-0.55,0-1.01-0.09-1.39-0.28s-0.7-0.45-0.99-0.78l0.86-0.84c0.21,0.24,0.45,0.43,0.7,0.57
		c0.25,0.14,0.54,0.21,0.87,0.21c0.34,0,0.58-0.06,0.73-0.18c0.15-0.12,0.23-0.28,0.23-0.48c0-0.17-0.05-0.3-0.16-0.4
		c-0.11-0.1-0.29-0.17-0.54-0.2l-0.57-0.08c-0.62-0.08-1.1-0.26-1.42-0.53c-0.33-0.27-0.49-0.68-0.49-1.2
		c0-0.28,0.05-0.53,0.15-0.75s0.25-0.41,0.44-0.57c0.19-0.16,0.42-0.28,0.69-0.36c0.27-0.08,0.57-0.13,0.9-0.13
		c0.28,0,0.53,0.02,0.74,0.06c0.22,0.04,0.41,0.1,0.59,0.18c0.18,0.08,0.34,0.17,0.48,0.29s0.29,0.24,0.43,0.38l-0.83,0.83
		c-0.17-0.18-0.37-0.32-0.61-0.44s-0.49-0.18-0.77-0.18c-0.31,0-0.53,0.06-0.67,0.17c-0.14,0.11-0.2,0.25-0.2,0.43
		c0,0.19,0.06,0.34,0.17,0.43c0.11,0.1,0.31,0.17,0.58,0.21l0.58,0.08c1.24,0.18,1.86,0.74,1.86,1.69c0,0.28-0.06,0.53-0.17,0.76
		c-0.11,0.23-0.27,0.43-0.48,0.59s-0.45,0.29-0.74,0.39C103.55,8.29,103.23,8.34,102.87,8.34z"/>
	<path class="st0" d="M110.87,8.21c-0.48,0-0.85-0.13-1.11-0.38c-0.25-0.25-0.38-0.61-0.38-1.08V3.6h-0.85V2.46h0.44
		c0.21,0,0.36-0.05,0.43-0.15c0.08-0.1,0.12-0.25,0.12-0.45V0.89h1.27v1.57h1.18V3.6h-1.18v3.48h1.09v1.13H110.87z"/>
	<path class="st0" d="M115.42,8.34c-0.41,0-0.78-0.07-1.11-0.21s-0.6-0.34-0.84-0.6c-0.23-0.26-0.41-0.58-0.53-0.95
		c-0.12-0.37-0.19-0.79-0.19-1.25c0-0.46,0.06-0.88,0.19-1.24c0.12-0.37,0.3-0.68,0.53-0.94c0.23-0.26,0.51-0.46,0.84-0.6
		c0.33-0.14,0.7-0.21,1.11-0.21c0.41,0,0.78,0.07,1.11,0.21c0.33,0.14,0.61,0.34,0.84,0.6c0.23,0.26,0.41,0.57,0.53,0.94
		c0.12,0.37,0.19,0.78,0.19,1.24c0,0.46-0.06,0.88-0.19,1.25c-0.12,0.37-0.3,0.69-0.53,0.95c-0.23,0.26-0.51,0.47-0.84,0.6
		S115.83,8.34,115.42,8.34z M115.42,7.21c0.37,0,0.67-0.11,0.88-0.34c0.21-0.23,0.32-0.56,0.32-1V4.8c0-0.43-0.11-0.76-0.32-0.99
		c-0.21-0.23-0.51-0.34-0.88-0.34c-0.37,0-0.66,0.11-0.87,0.34c-0.21,0.23-0.32,0.56-0.32,0.99v1.07c0,0.44,0.11,0.77,0.32,1
		C114.76,7.09,115.05,7.21,115.42,7.21z"/>
	<path class="st0" d="M124.2,8.34c-0.43,0-0.8-0.07-1.13-0.21s-0.61-0.34-0.83-0.6c-0.22-0.26-0.39-0.58-0.51-0.95
		c-0.12-0.37-0.18-0.79-0.18-1.25c0-0.46,0.06-0.88,0.18-1.24c0.12-0.37,0.29-0.68,0.51-0.94s0.5-0.46,0.83-0.6
		c0.33-0.14,0.71-0.21,1.13-0.21c0.58,0,1.06,0.13,1.44,0.39c0.38,0.26,0.65,0.61,0.82,1.07L125.3,4.3
		c-0.07-0.24-0.19-0.44-0.37-0.6s-0.42-0.24-0.73-0.24c-0.4,0-0.69,0.12-0.89,0.37c-0.19,0.25-0.29,0.58-0.29,0.98v1.05
		c0,0.4,0.1,0.73,0.29,0.97c0.19,0.25,0.49,0.37,0.89,0.37c0.34,0,0.6-0.09,0.78-0.26c0.18-0.17,0.33-0.39,0.43-0.64l1.08,0.52
		c-0.19,0.51-0.48,0.89-0.87,1.14S124.75,8.34,124.2,8.34z"/>
	<path class="st0" d="M131.8,8.21c-0.31,0-0.55-0.09-0.73-0.27s-0.29-0.42-0.34-0.72h-0.07c-0.1,0.37-0.29,0.65-0.58,0.84
		c-0.29,0.19-0.66,0.28-1.09,0.28c-0.59,0-1.04-0.15-1.35-0.46c-0.32-0.31-0.47-0.72-0.47-1.23c0-0.59,0.21-1.03,0.64-1.32
		s1.03-0.43,1.82-0.43h0.98V4.48c0-0.32-0.08-0.57-0.25-0.75c-0.17-0.18-0.44-0.26-0.81-0.26c-0.33,0-0.6,0.07-0.8,0.21
		c-0.2,0.14-0.37,0.31-0.51,0.51l-0.84-0.75c0.21-0.33,0.5-0.6,0.85-0.8c0.35-0.2,0.82-0.3,1.4-0.3c0.78,0,1.37,0.18,1.77,0.53
		s0.61,0.86,0.61,1.51v2.7h0.57v1.13H131.8z M129.47,7.31c0.32,0,0.58-0.07,0.8-0.21c0.22-0.14,0.33-0.34,0.33-0.61V5.74h-0.9
		c-0.73,0-1.1,0.23-1.1,0.7v0.19c0,0.23,0.08,0.41,0.23,0.52S129.19,7.31,129.47,7.31z"/>
	<path class="st0" d="M133.72,8.21V2.46h1.41v1.19h0.06c0.04-0.15,0.09-0.3,0.17-0.45s0.18-0.27,0.3-0.38s0.27-0.2,0.45-0.26
		c0.17-0.07,0.37-0.1,0.6-0.1h0.31v1.33h-0.44c-0.48,0-0.84,0.07-1.08,0.21c-0.24,0.14-0.36,0.37-0.36,0.68v3.52H133.72z"/>
	<path class="st0" d="M139.37,8.21l-1.91-5.74h1.39l0.8,2.48l0.56,2.05h0.08l0.56-2.05l0.78-2.48h1.34l-1.92,5.74H139.37z"/>
	<path class="st0" d="M146.13,8.34c-0.42,0-0.8-0.07-1.14-0.21c-0.33-0.14-0.62-0.34-0.85-0.6c-0.23-0.26-0.41-0.58-0.53-0.95
		c-0.12-0.37-0.19-0.79-0.19-1.25c0-0.45,0.06-0.87,0.18-1.23s0.29-0.68,0.52-0.94c0.23-0.26,0.51-0.46,0.84-0.6s0.7-0.21,1.12-0.21
		c0.45,0,0.84,0.08,1.17,0.23c0.33,0.15,0.6,0.36,0.81,0.63c0.21,0.26,0.37,0.57,0.48,0.92c0.11,0.35,0.16,0.72,0.16,1.12v0.46
		h-3.82v0.14c0,0.42,0.12,0.75,0.35,1c0.23,0.25,0.58,0.38,1.04,0.38c0.35,0,0.64-0.07,0.86-0.22s0.42-0.33,0.6-0.56l0.76,0.85
		c-0.23,0.33-0.56,0.59-0.96,0.78C147.14,8.24,146.67,8.34,146.13,8.34z M146.11,3.39c-0.37,0-0.67,0.12-0.89,0.37
		c-0.22,0.25-0.33,0.57-0.33,0.97v0.09h2.35v-0.1c0-0.4-0.1-0.72-0.29-0.96C146.75,3.51,146.47,3.39,146.11,3.39z"/>
	<path class="st0" d="M154.82,8.34c-0.41,0-0.78-0.07-1.11-0.21s-0.6-0.34-0.84-0.6c-0.23-0.26-0.41-0.58-0.53-0.95
		c-0.12-0.37-0.19-0.79-0.19-1.25c0-0.46,0.06-0.88,0.19-1.24c0.12-0.37,0.3-0.68,0.53-0.94c0.23-0.26,0.51-0.46,0.84-0.6
		c0.33-0.14,0.7-0.21,1.11-0.21c0.41,0,0.78,0.07,1.11,0.21c0.33,0.14,0.61,0.34,0.84,0.6c0.23,0.26,0.41,0.57,0.53,0.94
		c0.12,0.37,0.19,0.78,0.19,1.24c0,0.46-0.06,0.88-0.19,1.25c-0.12,0.37-0.3,0.69-0.53,0.95c-0.23,0.26-0.51,0.47-0.84,0.6
		S155.23,8.34,154.82,8.34z M154.82,7.21c0.37,0,0.67-0.11,0.88-0.34c0.21-0.23,0.32-0.56,0.32-1V4.8c0-0.43-0.11-0.76-0.32-0.99
		c-0.21-0.23-0.51-0.34-0.88-0.34c-0.37,0-0.66,0.11-0.87,0.34c-0.21,0.23-0.32,0.56-0.32,0.99v1.07c0,0.44,0.11,0.77,0.32,1
		C154.16,7.09,154.45,7.21,154.82,7.21z"/>
	<path class="st0" d="M162.17,7.25h-0.05c-0.05,0.15-0.12,0.28-0.2,0.41s-0.19,0.24-0.32,0.35c-0.13,0.1-0.28,0.18-0.46,0.24
		s-0.39,0.09-0.62,0.09c-0.59,0-1.05-0.19-1.36-0.58c-0.32-0.39-0.47-0.94-0.47-1.66V2.46h1.41v3.49c0,0.4,0.08,0.7,0.23,0.91
		c0.15,0.21,0.4,0.31,0.74,0.31c0.14,0,0.28-0.02,0.41-0.05s0.25-0.09,0.36-0.17c0.1-0.08,0.19-0.17,0.25-0.29
		c0.07-0.11,0.1-0.25,0.1-0.4v-3.8h1.41v5.74h-1.41V7.25z"/>
	<path class="st0" d="M167,8.21c-0.48,0-0.85-0.13-1.11-0.38c-0.25-0.25-0.38-0.61-0.38-1.08V3.6h-0.85V2.46h0.44
		c0.21,0,0.36-0.05,0.43-0.15c0.08-0.1,0.12-0.25,0.12-0.45V0.89h1.27v1.57h1.18V3.6h-1.18v3.48h1.09v1.13H167z"/>
	<path class="st0" d="M173.71,8.21c-0.48,0-0.85-0.13-1.11-0.38c-0.25-0.25-0.38-0.61-0.38-1.08V3.6h-0.85V2.46h0.44
		c0.21,0,0.36-0.05,0.43-0.15c0.08-0.1,0.12-0.25,0.12-0.45V0.89h1.27v1.57h1.18V3.6h-1.18v3.48h1.09v1.13H173.71z"/>
	<path class="st0" d="M176.03,0.07h1.41v3.35h0.06c0.12-0.31,0.3-0.57,0.55-0.78c0.25-0.21,0.6-0.31,1.05-0.31
		c0.59,0,1.05,0.19,1.36,0.58s0.47,0.94,0.47,1.66v3.63h-1.41V4.72c0-0.41-0.07-0.72-0.22-0.92c-0.15-0.21-0.39-0.31-0.73-0.31
		c-0.15,0-0.29,0.02-0.42,0.06c-0.14,0.04-0.26,0.1-0.36,0.18s-0.19,0.17-0.26,0.29c-0.07,0.11-0.1,0.25-0.1,0.4v3.79h-1.41V0.07z"
		/>
	<path class="st0" d="M184.82,8.34c-0.42,0-0.8-0.07-1.14-0.21c-0.33-0.14-0.62-0.34-0.85-0.6c-0.23-0.26-0.41-0.58-0.53-0.95
		c-0.12-0.37-0.19-0.79-0.19-1.25c0-0.45,0.06-0.87,0.18-1.23s0.29-0.68,0.52-0.94c0.23-0.26,0.51-0.46,0.84-0.6s0.7-0.21,1.12-0.21
		c0.45,0,0.84,0.08,1.17,0.23c0.33,0.15,0.6,0.36,0.81,0.63c0.21,0.26,0.37,0.57,0.48,0.92c0.11,0.35,0.16,0.72,0.16,1.12v0.46
		h-3.82v0.14c0,0.42,0.12,0.75,0.35,1c0.23,0.25,0.58,0.38,1.04,0.38c0.35,0,0.64-0.07,0.86-0.22s0.42-0.33,0.6-0.56l0.76,0.85
		c-0.23,0.33-0.56,0.59-0.96,0.78C185.82,8.24,185.35,8.34,184.82,8.34z M184.79,3.39c-0.37,0-0.67,0.12-0.89,0.37
		c-0.22,0.25-0.33,0.57-0.33,0.97v0.09h2.35v-0.1c0-0.4-0.1-0.72-0.29-0.96C185.44,3.51,185.16,3.39,184.79,3.39z"/>
	<path class="st0" d="M1.91,21.41L0,15.66h1.39l0.8,2.48l0.56,2.05h0.08l0.56-2.05l0.78-2.48h1.34l-1.92,5.74H1.91z"/>
	<path class="st0" d="M10.57,21.41c-0.31,0-0.55-0.09-0.73-0.27s-0.29-0.42-0.34-0.72H9.44c-0.1,0.37-0.29,0.65-0.58,0.84
		c-0.29,0.19-0.66,0.28-1.09,0.28c-0.59,0-1.04-0.15-1.35-0.46c-0.32-0.31-0.47-0.72-0.47-1.23c0-0.59,0.21-1.03,0.64-1.32
		s1.03-0.43,1.82-0.43h0.98v-0.42c0-0.32-0.08-0.57-0.25-0.75c-0.17-0.18-0.44-0.26-0.81-0.26c-0.33,0-0.6,0.07-0.8,0.21
		c-0.2,0.14-0.37,0.31-0.51,0.51l-0.84-0.75c0.21-0.33,0.5-0.6,0.85-0.8c0.35-0.2,0.82-0.3,1.4-0.3c0.78,0,1.37,0.18,1.77,0.53
		s0.61,0.86,0.61,1.51v2.7h0.57v1.13H10.57z M8.24,20.51c0.32,0,0.58-0.07,0.8-0.21c0.22-0.14,0.33-0.34,0.33-0.61v-0.75h-0.9
		c-0.73,0-1.1,0.23-1.1,0.7v0.19c0,0.23,0.08,0.41,0.23,0.52S7.96,20.51,8.24,20.51z"/>
	<path class="st0" d="M13.9,21.41c-0.48,0-0.84-0.12-1.07-0.36c-0.23-0.24-0.34-0.58-0.34-1.02v-6.75h1.41v7.01h0.76v1.13H13.9z"/>
	<path class="st0" d="M17.06,21.41c-0.48,0-0.84-0.12-1.07-0.36c-0.23-0.24-0.34-0.58-0.34-1.02v-6.75h1.41v7.01h0.76v1.13H17.06z"
		/>
	<path class="st0" d="M21.21,21.54c-0.42,0-0.8-0.07-1.14-0.21c-0.33-0.14-0.62-0.34-0.85-0.6c-0.23-0.26-0.41-0.58-0.53-0.95
		c-0.12-0.37-0.19-0.79-0.19-1.25c0-0.45,0.06-0.87,0.18-1.23s0.29-0.68,0.52-0.94c0.23-0.26,0.51-0.46,0.84-0.6s0.7-0.21,1.12-0.21
		c0.45,0,0.84,0.08,1.17,0.23c0.33,0.15,0.6,0.36,0.81,0.63c0.21,0.26,0.37,0.57,0.48,0.92c0.11,0.35,0.16,0.72,0.16,1.12v0.46
		h-3.82v0.14c0,0.42,0.12,0.75,0.35,1c0.23,0.25,0.58,0.38,1.04,0.38c0.35,0,0.64-0.07,0.86-0.22s0.42-0.33,0.6-0.56l0.76,0.85
		c-0.23,0.33-0.56,0.59-0.96,0.78C22.21,21.44,21.74,21.54,21.21,21.54z M21.19,16.59c-0.37,0-0.67,0.12-0.89,0.37
		c-0.22,0.25-0.33,0.57-0.33,0.97v0.09h2.35v-0.1c0-0.4-0.1-0.72-0.29-0.96C21.83,16.71,21.55,16.59,21.19,16.59z"/>
	<path class="st0" d="M28.48,15.66h1.32l-2.31,6.77c-0.07,0.21-0.16,0.38-0.25,0.53c-0.09,0.15-0.2,0.27-0.32,0.37
		c-0.12,0.1-0.28,0.17-0.45,0.21c-0.18,0.04-0.38,0.07-0.62,0.07H25v-1.13h1.03l0.26-0.8l-2.06-6.01h1.4l1,3.03l0.37,1.45h0.07
		l0.4-1.45L28.48,15.66z"/>
	<path class="st0" d="M32.52,21.54c-0.55,0-1.01-0.09-1.39-0.28s-0.7-0.45-0.99-0.78L31,19.65c0.21,0.24,0.45,0.43,0.7,0.57
		c0.25,0.14,0.54,0.21,0.87,0.21c0.34,0,0.58-0.06,0.73-0.18c0.15-0.12,0.23-0.28,0.23-0.48c0-0.17-0.05-0.3-0.16-0.4
		c-0.11-0.1-0.29-0.17-0.54-0.2l-0.57-0.08c-0.62-0.08-1.1-0.26-1.42-0.53c-0.33-0.27-0.49-0.68-0.49-1.2
		c0-0.28,0.05-0.53,0.15-0.75s0.25-0.41,0.44-0.57c0.19-0.16,0.42-0.28,0.69-0.36c0.27-0.08,0.57-0.13,0.9-0.13
		c0.28,0,0.53,0.02,0.74,0.06c0.22,0.04,0.41,0.1,0.59,0.18c0.18,0.08,0.34,0.17,0.48,0.29s0.29,0.24,0.43,0.38l-0.83,0.83
		c-0.17-0.18-0.37-0.32-0.61-0.44s-0.49-0.18-0.77-0.18c-0.31,0-0.53,0.06-0.67,0.17c-0.14,0.11-0.2,0.25-0.2,0.43
		c0,0.19,0.06,0.34,0.17,0.43c0.11,0.1,0.31,0.17,0.58,0.21l0.58,0.08c1.24,0.18,1.86,0.74,1.86,1.69c0,0.28-0.06,0.53-0.17,0.76
		c-0.11,0.23-0.27,0.43-0.48,0.59s-0.45,0.29-0.74,0.39C33.2,21.49,32.88,21.54,32.52,21.54z"/>
	<path class="st0" d="M42.94,21.41c-0.31,0-0.55-0.09-0.73-0.27s-0.29-0.42-0.34-0.72h-0.07c-0.1,0.37-0.29,0.65-0.58,0.84
		c-0.29,0.19-0.66,0.28-1.09,0.28c-0.59,0-1.04-0.15-1.35-0.46c-0.32-0.31-0.47-0.72-0.47-1.23c0-0.59,0.21-1.03,0.64-1.32
		s1.03-0.43,1.82-0.43h0.98v-0.42c0-0.32-0.08-0.57-0.25-0.75c-0.17-0.18-0.44-0.26-0.81-0.26c-0.33,0-0.6,0.07-0.8,0.21
		c-0.2,0.14-0.37,0.31-0.51,0.51l-0.84-0.75c0.21-0.33,0.5-0.6,0.85-0.8c0.35-0.2,0.82-0.3,1.4-0.3c0.78,0,1.37,0.18,1.77,0.53
		s0.61,0.86,0.61,1.51v2.7h0.57v1.13H42.94z M40.61,20.51c0.32,0,0.58-0.07,0.8-0.21c0.22-0.14,0.33-0.34,0.33-0.61v-0.75h-0.9
		c-0.73,0-1.1,0.23-1.1,0.7v0.19c0,0.23,0.08,0.41,0.23,0.52S40.33,20.51,40.61,20.51z"/>
	<path class="st0" d="M44.87,21.41v-5.74h1.41v0.96h0.06c0.12-0.31,0.3-0.57,0.55-0.78c0.25-0.21,0.6-0.31,1.05-0.31
		c0.59,0,1.05,0.19,1.36,0.58s0.47,0.94,0.47,1.66v3.63h-1.41v-3.49c0-0.41-0.07-0.72-0.22-0.92c-0.15-0.21-0.39-0.31-0.73-0.31
		c-0.15,0-0.29,0.02-0.42,0.06c-0.14,0.04-0.26,0.1-0.36,0.18s-0.19,0.17-0.26,0.29c-0.07,0.11-0.1,0.25-0.1,0.4v3.79H44.87z"/>
	<path class="st0" d="M54.9,20.45h-0.05c-0.1,0.33-0.3,0.59-0.58,0.79c-0.29,0.2-0.62,0.3-1,0.3c-0.73,0-1.28-0.26-1.67-0.78
		s-0.58-1.27-0.58-2.23c0-0.96,0.19-1.7,0.58-2.22s0.94-0.78,1.67-0.78c0.38,0,0.71,0.1,1,0.29s0.48,0.46,0.58,0.79h0.05v-3.34h1.41
		v8.14H54.9V20.45z M53.71,20.37c0.34,0,0.62-0.08,0.85-0.24s0.34-0.39,0.34-0.69v-1.83c0-0.28-0.11-0.5-0.34-0.67
		c-0.23-0.17-0.51-0.25-0.85-0.25c-0.37,0-0.66,0.12-0.89,0.37c-0.22,0.25-0.34,0.57-0.34,0.98v0.99c0,0.41,0.11,0.74,0.34,0.98
		S53.34,20.37,53.71,20.37z"/>
	<path class="st0" d="M65.71,21.89c0,0.3-0.05,0.57-0.16,0.8c-0.11,0.23-0.28,0.42-0.52,0.58c-0.24,0.15-0.55,0.27-0.94,0.35
		s-0.85,0.12-1.4,0.12c-0.48,0-0.9-0.03-1.23-0.09c-0.34-0.06-0.61-0.15-0.83-0.26c-0.22-0.11-0.37-0.25-0.47-0.42
		c-0.1-0.17-0.14-0.36-0.14-0.57c0-0.32,0.09-0.57,0.27-0.75s0.43-0.3,0.75-0.35v-0.12c-0.23-0.06-0.42-0.17-0.54-0.35
		c-0.13-0.17-0.19-0.38-0.19-0.61c0-0.15,0.03-0.28,0.09-0.39s0.14-0.21,0.24-0.29c0.1-0.08,0.21-0.15,0.33-0.2
		c0.12-0.06,0.26-0.1,0.4-0.13v-0.04c-0.35-0.16-0.61-0.38-0.79-0.67c-0.17-0.29-0.26-0.62-0.26-1c0-0.59,0.2-1.06,0.6-1.41
		s0.99-0.53,1.77-0.53c0.18,0,0.35,0.01,0.52,0.03c0.17,0.02,0.33,0.06,0.48,0.11v-0.19c0-0.56,0.27-0.84,0.81-0.84h0.89v1.08h-1.22
		v0.15c0.3,0.17,0.52,0.39,0.67,0.66c0.15,0.27,0.22,0.58,0.22,0.94c0,0.58-0.2,1.04-0.6,1.4c-0.4,0.35-0.99,0.53-1.78,0.53
		c-0.34,0-0.63-0.03-0.88-0.1c-0.11,0.05-0.21,0.12-0.29,0.2c-0.08,0.08-0.12,0.19-0.12,0.31c0,0.29,0.25,0.43,0.75,0.43h1.54
		c0.7,0,1.21,0.14,1.53,0.43C65.55,20.98,65.71,21.38,65.71,21.89z M64.39,22.05c0-0.18-0.07-0.33-0.22-0.43
		c-0.15-0.1-0.4-0.15-0.76-0.15h-1.96c-0.2,0.15-0.3,0.34-0.3,0.59c0,0.22,0.09,0.39,0.27,0.52c0.18,0.12,0.5,0.19,0.94,0.19h0.7
		c0.46,0,0.8-0.06,1.01-0.18S64.39,22.3,64.39,22.05z M62.7,18.44c0.69,0,1.03-0.29,1.03-0.88v-0.19c0-0.58-0.34-0.88-1.03-0.88
		c-0.69,0-1.03,0.29-1.03,0.88v0.19C61.66,18.14,62.01,18.44,62.7,18.44z"/>
	<path class="st0" d="M68.78,21.54c-0.42,0-0.8-0.07-1.14-0.21c-0.33-0.14-0.62-0.34-0.85-0.6c-0.23-0.26-0.41-0.58-0.53-0.95
		c-0.12-0.37-0.19-0.79-0.19-1.25c0-0.45,0.06-0.87,0.18-1.23s0.29-0.68,0.52-0.94c0.23-0.26,0.51-0.46,0.84-0.6s0.7-0.21,1.12-0.21
		c0.45,0,0.84,0.08,1.17,0.23c0.33,0.15,0.6,0.36,0.81,0.63c0.21,0.26,0.37,0.57,0.48,0.92c0.11,0.35,0.16,0.72,0.16,1.12v0.46
		h-3.82v0.14c0,0.42,0.12,0.75,0.35,1c0.23,0.25,0.58,0.38,1.04,0.38c0.35,0,0.64-0.07,0.86-0.22s0.42-0.33,0.6-0.56l0.76,0.85
		c-0.23,0.33-0.56,0.59-0.96,0.78C69.79,21.44,69.32,21.54,68.78,21.54z M68.76,16.59c-0.37,0-0.67,0.12-0.89,0.37
		c-0.22,0.25-0.33,0.57-0.33,0.97v0.09h2.35v-0.1c0-0.4-0.1-0.72-0.29-0.96C69.41,16.71,69.13,16.59,68.76,16.59z"/>
	<path class="st0" d="M74.88,21.54c-0.41,0-0.78-0.07-1.11-0.21s-0.6-0.34-0.84-0.6c-0.23-0.26-0.41-0.58-0.53-0.95
		c-0.12-0.37-0.19-0.79-0.19-1.25c0-0.46,0.06-0.88,0.19-1.24c0.12-0.37,0.3-0.68,0.53-0.94c0.23-0.26,0.51-0.46,0.84-0.6
		c0.33-0.14,0.7-0.21,1.11-0.21c0.41,0,0.78,0.07,1.11,0.21c0.33,0.14,0.61,0.34,0.84,0.6c0.23,0.26,0.41,0.57,0.53,0.94
		c0.12,0.37,0.19,0.78,0.19,1.24c0,0.46-0.06,0.88-0.19,1.25c-0.12,0.37-0.3,0.69-0.53,0.95c-0.23,0.26-0.51,0.47-0.84,0.6
		S75.29,21.54,74.88,21.54z M74.88,20.4c0.37,0,0.67-0.11,0.88-0.34c0.21-0.23,0.32-0.56,0.32-1V18c0-0.43-0.11-0.76-0.32-0.99
		c-0.21-0.23-0.51-0.34-0.88-0.34c-0.37,0-0.66,0.11-0.87,0.34c-0.21,0.23-0.32,0.56-0.32,0.99v1.07c0,0.44,0.11,0.77,0.32,1
		C74.22,20.29,74.51,20.4,74.88,20.4z"/>
	<path class="st0" d="M80.2,21.41c-0.48,0-0.84-0.12-1.07-0.36c-0.23-0.24-0.34-0.58-0.34-1.02v-6.75h1.41v7.01h0.76v1.13H80.2z"/>
	<path class="st0" d="M84.3,21.54c-0.41,0-0.78-0.07-1.11-0.21s-0.6-0.34-0.84-0.6c-0.23-0.26-0.41-0.58-0.53-0.95
		c-0.12-0.37-0.19-0.79-0.19-1.25c0-0.46,0.06-0.88,0.19-1.24c0.12-0.37,0.3-0.68,0.53-0.94c0.23-0.26,0.51-0.46,0.84-0.6
		c0.33-0.14,0.7-0.21,1.11-0.21c0.41,0,0.78,0.07,1.11,0.21c0.33,0.14,0.61,0.34,0.84,0.6c0.23,0.26,0.41,0.57,0.53,0.94
		c0.12,0.37,0.19,0.78,0.19,1.24c0,0.46-0.06,0.88-0.19,1.25c-0.12,0.37-0.3,0.69-0.53,0.95c-0.23,0.26-0.51,0.47-0.84,0.6
		S84.71,21.54,84.3,21.54z M84.3,20.4c0.37,0,0.67-0.11,0.88-0.34c0.21-0.23,0.32-0.56,0.32-1V18c0-0.43-0.11-0.76-0.32-0.99
		c-0.21-0.23-0.51-0.34-0.88-0.34c-0.37,0-0.66,0.11-0.87,0.34c-0.21,0.23-0.32,0.56-0.32,0.99v1.07c0,0.44,0.11,0.77,0.32,1
		C83.65,20.29,83.94,20.4,84.3,20.4z"/>
	<path class="st0" d="M93.4,21.89c0,0.3-0.05,0.57-0.16,0.8c-0.11,0.23-0.28,0.42-0.52,0.58c-0.24,0.15-0.55,0.27-0.94,0.35
		s-0.85,0.12-1.4,0.12c-0.48,0-0.9-0.03-1.23-0.09c-0.34-0.06-0.61-0.15-0.83-0.26c-0.22-0.11-0.37-0.25-0.47-0.42
		c-0.1-0.17-0.14-0.36-0.14-0.57c0-0.32,0.09-0.57,0.27-0.75s0.43-0.3,0.75-0.35v-0.12c-0.23-0.06-0.42-0.17-0.54-0.35
		C88.06,20.64,88,20.44,88,20.21c0-0.15,0.03-0.28,0.09-0.39s0.14-0.21,0.24-0.29c0.1-0.08,0.21-0.15,0.33-0.2
		c0.12-0.06,0.26-0.1,0.4-0.13v-0.04c-0.35-0.16-0.61-0.38-0.79-0.67c-0.17-0.29-0.26-0.62-0.26-1c0-0.59,0.2-1.06,0.6-1.41
		s0.99-0.53,1.77-0.53c0.18,0,0.35,0.01,0.52,0.03c0.17,0.02,0.33,0.06,0.48,0.11v-0.19c0-0.56,0.27-0.84,0.81-0.84h0.89v1.08h-1.22
		v0.15c0.3,0.17,0.52,0.39,0.67,0.66c0.15,0.27,0.22,0.58,0.22,0.94c0,0.58-0.2,1.04-0.6,1.4c-0.4,0.35-0.99,0.53-1.78,0.53
		c-0.34,0-0.63-0.03-0.88-0.1c-0.11,0.05-0.21,0.12-0.29,0.2c-0.08,0.08-0.12,0.19-0.12,0.31c0,0.29,0.25,0.43,0.75,0.43h1.54
		c0.7,0,1.21,0.14,1.53,0.43C93.24,20.98,93.4,21.38,93.4,21.89z M92.08,22.05c0-0.18-0.07-0.33-0.22-0.43
		c-0.15-0.1-0.4-0.15-0.76-0.15h-1.96c-0.2,0.15-0.3,0.34-0.3,0.59c0,0.22,0.09,0.39,0.27,0.52c0.18,0.12,0.5,0.19,0.94,0.19h0.7
		c0.46,0,0.8-0.06,1.01-0.18S92.08,22.3,92.08,22.05z M90.39,18.44c0.69,0,1.03-0.29,1.03-0.88v-0.19c0-0.58-0.34-0.88-1.03-0.88
		c-0.69,0-1.03,0.29-1.03,0.88v0.19C89.35,18.14,89.7,18.44,90.39,18.44z"/>
	<path class="st0" d="M94.92,14.83c-0.29,0-0.5-0.07-0.63-0.2c-0.13-0.13-0.19-0.3-0.19-0.51V13.9c0-0.21,0.06-0.37,0.19-0.51
		c0.13-0.13,0.34-0.2,0.63-0.2c0.29,0,0.5,0.07,0.63,0.2c0.13,0.13,0.2,0.3,0.2,0.51v0.22c0,0.21-0.07,0.37-0.2,0.51
		C95.41,14.76,95.2,14.83,94.92,14.83z M94.21,15.66h1.41v5.74h-1.41V15.66z"/>
	<path class="st0" d="M99.52,21.54c-0.43,0-0.8-0.07-1.13-0.21s-0.61-0.34-0.83-0.6c-0.22-0.26-0.39-0.58-0.51-0.95
		c-0.12-0.37-0.18-0.79-0.18-1.25c0-0.46,0.06-0.88,0.18-1.24c0.12-0.37,0.29-0.68,0.51-0.94s0.5-0.46,0.83-0.6
		c0.33-0.14,0.71-0.21,1.13-0.21c0.58,0,1.06,0.13,1.44,0.39c0.38,0.26,0.65,0.61,0.82,1.07l-1.16,0.52
		c-0.07-0.24-0.19-0.44-0.37-0.6s-0.42-0.24-0.73-0.24c-0.4,0-0.69,0.12-0.89,0.37c-0.19,0.25-0.29,0.58-0.29,0.98v1.05
		c0,0.4,0.1,0.73,0.29,0.97c0.19,0.25,0.49,0.37,0.89,0.37c0.34,0,0.6-0.09,0.78-0.26c0.18-0.17,0.33-0.39,0.43-0.64l1.08,0.52
		c-0.19,0.51-0.48,0.89-0.87,1.14S100.07,21.54,99.52,21.54z"/>
	<path class="st0" d="M107.12,21.41c-0.31,0-0.55-0.09-0.73-0.27s-0.29-0.42-0.34-0.72h-0.07c-0.1,0.37-0.29,0.65-0.58,0.84
		c-0.29,0.19-0.66,0.28-1.09,0.28c-0.59,0-1.04-0.15-1.35-0.46c-0.32-0.31-0.47-0.72-0.47-1.23c0-0.59,0.21-1.03,0.64-1.32
		s1.03-0.43,1.82-0.43h0.98v-0.42c0-0.32-0.08-0.57-0.25-0.75c-0.17-0.18-0.44-0.26-0.81-0.26c-0.33,0-0.6,0.07-0.8,0.21
		c-0.2,0.14-0.37,0.31-0.51,0.51l-0.84-0.75c0.21-0.33,0.5-0.6,0.85-0.8c0.35-0.2,0.82-0.3,1.4-0.3c0.78,0,1.37,0.18,1.77,0.53
		s0.61,0.86,0.61,1.51v2.7h0.57v1.13H107.12z M104.78,20.51c0.32,0,0.58-0.07,0.8-0.21c0.22-0.14,0.33-0.34,0.33-0.61v-0.75h-0.9
		c-0.73,0-1.1,0.23-1.1,0.7v0.19c0,0.23,0.08,0.41,0.23,0.52S104.5,20.51,104.78,20.51z"/>
	<path class="st0" d="M110.45,21.41c-0.48,0-0.84-0.12-1.07-0.36c-0.23-0.24-0.34-0.58-0.34-1.02v-6.75h1.41v7.01h0.76v1.13H110.45z
		"/>
	<path class="st0" d="M115.16,16.77h-0.85v-1.11h0.85v-0.82c0-0.51,0.13-0.89,0.4-1.17c0.27-0.27,0.66-0.41,1.18-0.41h1v1.13h-1.18
		v1.26h1.18v1.11h-1.18v4.63h-1.41V16.77z"/>
	<path class="st0" d="M121,21.54c-0.42,0-0.8-0.07-1.14-0.21c-0.33-0.14-0.62-0.34-0.85-0.6c-0.23-0.26-0.41-0.58-0.53-0.95
		c-0.12-0.37-0.19-0.79-0.19-1.25c0-0.45,0.06-0.87,0.18-1.23s0.29-0.68,0.52-0.94c0.23-0.26,0.51-0.46,0.84-0.6s0.7-0.21,1.12-0.21
		c0.45,0,0.84,0.08,1.17,0.23c0.33,0.15,0.6,0.36,0.81,0.63c0.21,0.26,0.37,0.57,0.48,0.92c0.11,0.35,0.16,0.72,0.16,1.12v0.46
		h-3.82v0.14c0,0.42,0.12,0.75,0.35,1c0.23,0.25,0.58,0.38,1.04,0.38c0.35,0,0.64-0.07,0.86-0.22s0.42-0.33,0.6-0.56l0.76,0.85
		c-0.23,0.33-0.56,0.59-0.96,0.78C122,21.44,121.53,21.54,121,21.54z M120.98,16.59c-0.37,0-0.67,0.12-0.89,0.37
		c-0.22,0.25-0.33,0.57-0.33,0.97v0.09h2.35v-0.1c0-0.4-0.1-0.72-0.29-0.96C121.62,16.71,121.34,16.59,120.98,16.59z"/>
	<path class="st0" d="M129.04,21.41c-0.31,0-0.55-0.09-0.73-0.27s-0.29-0.42-0.34-0.72h-0.07c-0.1,0.37-0.29,0.65-0.58,0.84
		c-0.29,0.19-0.66,0.28-1.09,0.28c-0.59,0-1.04-0.15-1.35-0.46c-0.32-0.31-0.47-0.72-0.47-1.23c0-0.59,0.21-1.03,0.64-1.32
		s1.03-0.43,1.82-0.43h0.98v-0.42c0-0.32-0.08-0.57-0.25-0.75c-0.17-0.18-0.44-0.26-0.81-0.26c-0.33,0-0.6,0.07-0.8,0.21
		c-0.2,0.14-0.37,0.31-0.51,0.51l-0.84-0.75c0.21-0.33,0.5-0.6,0.85-0.8c0.35-0.2,0.82-0.3,1.4-0.3c0.78,0,1.37,0.18,1.77,0.53
		s0.61,0.86,0.61,1.51v2.7h0.57v1.13H129.04z M126.71,20.51c0.32,0,0.58-0.07,0.8-0.21c0.22-0.14,0.33-0.34,0.33-0.61v-0.75h-0.9
		c-0.73,0-1.1,0.23-1.1,0.7v0.19c0,0.23,0.08,0.41,0.23,0.52S126.43,20.51,126.71,20.51z"/>
	<path class="st0" d="M132.71,21.41c-0.48,0-0.85-0.13-1.11-0.38c-0.25-0.25-0.38-0.61-0.38-1.08V16.8h-0.85v-1.13h0.44
		c0.21,0,0.36-0.05,0.43-0.15c0.08-0.1,0.12-0.25,0.12-0.45v-0.98h1.27v1.57h1.18v1.13h-1.18v3.48h1.09v1.13H132.71z"/>
	<path class="st0" d="M138.46,20.45h-0.05c-0.05,0.15-0.12,0.28-0.2,0.41s-0.19,0.24-0.32,0.35c-0.13,0.1-0.28,0.18-0.46,0.24
		s-0.39,0.09-0.62,0.09c-0.59,0-1.05-0.19-1.36-0.58c-0.32-0.39-0.47-0.94-0.47-1.66v-3.63h1.41v3.49c0,0.4,0.08,0.7,0.23,0.91
		c0.15,0.21,0.4,0.31,0.74,0.31c0.14,0,0.28-0.02,0.41-0.05s0.25-0.09,0.36-0.17c0.1-0.08,0.19-0.17,0.25-0.29
		c0.07-0.11,0.1-0.25,0.1-0.4v-3.8h1.41v5.74h-1.41V20.45z"/>
	<path class="st0" d="M141.5,21.41v-5.74h1.41v1.19h0.06c0.04-0.15,0.09-0.3,0.17-0.45s0.18-0.27,0.3-0.38s0.27-0.2,0.45-0.26
		c0.17-0.07,0.37-0.1,0.6-0.1h0.31v1.33h-0.44c-0.48,0-0.84,0.07-1.08,0.21c-0.24,0.14-0.36,0.37-0.36,0.68v3.52H141.5z"/>
	<path class="st0" d="M148.09,21.54c-0.42,0-0.8-0.07-1.14-0.21c-0.33-0.14-0.62-0.34-0.85-0.6c-0.23-0.26-0.41-0.58-0.53-0.95
		c-0.12-0.37-0.19-0.79-0.19-1.25c0-0.45,0.06-0.87,0.18-1.23s0.29-0.68,0.52-0.94c0.23-0.26,0.51-0.46,0.84-0.6s0.7-0.21,1.12-0.21
		c0.45,0,0.84,0.08,1.17,0.23c0.33,0.15,0.6,0.36,0.81,0.63c0.21,0.26,0.37,0.57,0.48,0.92c0.11,0.35,0.16,0.72,0.16,1.12v0.46
		h-3.82v0.14c0,0.42,0.12,0.75,0.35,1c0.23,0.25,0.58,0.38,1.04,0.38c0.35,0,0.64-0.07,0.86-0.22s0.42-0.33,0.6-0.56l0.76,0.85
		c-0.23,0.33-0.56,0.59-0.96,0.78C149.1,21.44,148.62,21.54,148.09,21.54z M148.07,16.59c-0.37,0-0.67,0.12-0.89,0.37
		c-0.22,0.25-0.33,0.57-0.33,0.97v0.09h2.35v-0.1c0-0.4-0.1-0.72-0.29-0.96C148.71,16.71,148.43,16.59,148.07,16.59z"/>
	<path class="st0" d="M153.79,21.54c-0.55,0-1.01-0.09-1.39-0.28s-0.7-0.45-0.99-0.78l0.86-0.84c0.21,0.24,0.45,0.43,0.7,0.57
		c0.25,0.14,0.54,0.21,0.87,0.21c0.34,0,0.58-0.06,0.73-0.18c0.15-0.12,0.23-0.28,0.23-0.48c0-0.17-0.05-0.3-0.16-0.4
		c-0.11-0.1-0.29-0.17-0.54-0.2l-0.57-0.08c-0.62-0.08-1.1-0.26-1.42-0.53c-0.33-0.27-0.49-0.68-0.49-1.2
		c0-0.28,0.05-0.53,0.15-0.75s0.25-0.41,0.44-0.57c0.19-0.16,0.42-0.28,0.69-0.36c0.27-0.08,0.57-0.13,0.9-0.13
		c0.28,0,0.53,0.02,0.74,0.06c0.22,0.04,0.41,0.1,0.59,0.18c0.18,0.08,0.34,0.17,0.48,0.29s0.29,0.24,0.43,0.38l-0.83,0.83
		c-0.17-0.18-0.37-0.32-0.61-0.44s-0.49-0.18-0.77-0.18c-0.31,0-0.53,0.06-0.67,0.17c-0.14,0.11-0.2,0.25-0.2,0.43
		c0,0.19,0.06,0.34,0.17,0.43c0.11,0.1,0.31,0.17,0.58,0.21l0.58,0.08c1.24,0.18,1.86,0.74,1.86,1.69c0,0.28-0.06,0.53-0.17,0.76
		c-0.11,0.23-0.27,0.43-0.48,0.59s-0.45,0.29-0.74,0.39C154.47,21.49,154.15,21.54,153.79,21.54z"/>
	<path class="st0" d="M159.43,15.66h1.35l0.58,2.37l0.45,1.97h0.04l0.53-1.97l0.67-2.37h1.28l0.69,2.37l0.54,1.97h0.04l0.45-1.97
		l0.57-2.37h1.31l-1.57,5.74h-1.52l-0.74-2.53l-0.43-1.56h-0.03l-0.42,1.56l-0.73,2.53h-1.5L159.43,15.66z"/>
	<path class="st0" d="M171.22,21.54c-0.42,0-0.8-0.07-1.14-0.21c-0.33-0.14-0.62-0.34-0.85-0.6c-0.23-0.26-0.41-0.58-0.53-0.95
		c-0.12-0.37-0.19-0.79-0.19-1.25c0-0.45,0.06-0.87,0.18-1.23s0.29-0.68,0.52-0.94c0.23-0.26,0.51-0.46,0.84-0.6s0.7-0.21,1.12-0.21
		c0.45,0,0.84,0.08,1.17,0.23c0.33,0.15,0.6,0.36,0.81,0.63c0.21,0.26,0.37,0.57,0.48,0.92c0.11,0.35,0.16,0.72,0.16,1.12v0.46
		h-3.82v0.14c0,0.42,0.12,0.75,0.35,1c0.23,0.25,0.58,0.38,1.04,0.38c0.35,0,0.64-0.07,0.86-0.22s0.42-0.33,0.6-0.56l0.76,0.85
		c-0.23,0.33-0.56,0.59-0.96,0.78C172.23,21.44,171.76,21.54,171.22,21.54z M171.2,16.59c-0.37,0-0.67,0.12-0.89,0.37
		c-0.22,0.25-0.33,0.57-0.33,0.97v0.09h2.35v-0.1c0-0.4-0.1-0.72-0.29-0.96C171.85,16.71,171.57,16.59,171.2,16.59z"/>
	<path class="st0" d="M2.56,34.74c-0.55,0-1.01-0.09-1.39-0.28s-0.7-0.45-0.99-0.78l0.86-0.84c0.21,0.24,0.45,0.43,0.7,0.57
		c0.25,0.14,0.54,0.21,0.87,0.21c0.34,0,0.58-0.06,0.73-0.18c0.15-0.12,0.23-0.28,0.23-0.48c0-0.17-0.05-0.3-0.16-0.4
		c-0.11-0.1-0.29-0.17-0.54-0.2L2.3,32.29c-0.62-0.08-1.1-0.26-1.42-0.53c-0.33-0.27-0.49-0.68-0.49-1.2c0-0.28,0.05-0.53,0.15-0.75
		s0.25-0.41,0.44-0.57c0.19-0.16,0.42-0.28,0.69-0.36c0.27-0.08,0.57-0.13,0.9-0.13c0.28,0,0.53,0.02,0.74,0.06
		c0.22,0.04,0.41,0.1,0.59,0.18c0.18,0.08,0.34,0.17,0.48,0.29s0.29,0.24,0.43,0.38l-0.83,0.83c-0.17-0.18-0.37-0.32-0.61-0.44
		s-0.49-0.18-0.77-0.18c-0.31,0-0.53,0.06-0.67,0.17c-0.14,0.11-0.2,0.25-0.2,0.43c0,0.19,0.06,0.34,0.17,0.43
		c0.11,0.1,0.31,0.17,0.58,0.21l0.58,0.08c1.24,0.18,1.86,0.74,1.86,1.69c0,0.28-0.06,0.53-0.17,0.76
		c-0.11,0.23-0.27,0.43-0.48,0.59s-0.45,0.29-0.74,0.39C3.25,34.69,2.92,34.74,2.56,34.74z"/>
	<path class="st0" d="M8.49,34.74c-0.42,0-0.8-0.07-1.14-0.21c-0.33-0.14-0.62-0.34-0.85-0.6c-0.23-0.26-0.41-0.58-0.53-0.95
		c-0.12-0.37-0.19-0.79-0.19-1.25c0-0.45,0.06-0.87,0.18-1.23s0.29-0.68,0.52-0.94c0.23-0.26,0.51-0.46,0.84-0.6s0.7-0.21,1.12-0.21
		c0.45,0,0.84,0.08,1.17,0.23c0.33,0.15,0.6,0.36,0.81,0.63c0.21,0.26,0.37,0.57,0.48,0.92c0.11,0.35,0.16,0.72,0.16,1.12v0.46H7.25
		v0.14c0,0.42,0.12,0.75,0.35,1c0.23,0.25,0.58,0.38,1.04,0.38c0.35,0,0.64-0.07,0.86-0.22s0.42-0.33,0.6-0.56l0.76,0.85
		c-0.23,0.33-0.56,0.59-0.96,0.78C9.5,34.64,9.03,34.74,8.49,34.74z M8.47,29.79c-0.37,0-0.67,0.12-0.89,0.37
		c-0.22,0.25-0.33,0.57-0.33,0.97v0.09H9.6v-0.1c0-0.4-0.1-0.72-0.29-0.96C9.12,29.91,8.84,29.79,8.47,29.79z"/>
	<path class="st0" d="M14.63,34.74c-0.42,0-0.8-0.07-1.14-0.21c-0.33-0.14-0.62-0.34-0.85-0.6c-0.23-0.26-0.41-0.58-0.53-0.95
		c-0.12-0.37-0.19-0.79-0.19-1.25c0-0.45,0.06-0.87,0.18-1.23s0.29-0.68,0.52-0.94c0.23-0.26,0.51-0.46,0.84-0.6s0.7-0.21,1.12-0.21
		c0.45,0,0.84,0.08,1.17,0.23c0.33,0.15,0.6,0.36,0.81,0.63c0.21,0.26,0.37,0.57,0.48,0.92c0.11,0.35,0.16,0.72,0.16,1.12v0.46
		h-3.82v0.14c0,0.42,0.12,0.75,0.35,1c0.23,0.25,0.58,0.38,1.04,0.38c0.35,0,0.64-0.07,0.86-0.22s0.42-0.33,0.6-0.56l0.76,0.85
		c-0.23,0.33-0.56,0.59-0.96,0.78C15.64,34.64,15.17,34.74,14.63,34.74z M14.61,29.79c-0.37,0-0.67,0.12-0.89,0.37
		c-0.22,0.25-0.33,0.57-0.33,0.97v0.09h2.35v-0.1c0-0.4-0.1-0.72-0.29-0.96C15.25,29.91,14.97,29.79,14.61,29.79z"/>
	<path class="st0" d="M21.75,28.03c-0.29,0-0.5-0.07-0.63-0.2c-0.13-0.13-0.19-0.3-0.19-0.51V27.1c0-0.21,0.06-0.37,0.19-0.51
		c0.13-0.13,0.34-0.2,0.63-0.2c0.29,0,0.5,0.07,0.63,0.2c0.13,0.13,0.2,0.3,0.2,0.51v0.22c0,0.21-0.07,0.37-0.2,0.51
		C22.24,27.96,22.03,28.03,21.75,28.03z M21.04,28.86h1.41v5.74h-1.41V28.86z"/>
	<path class="st0" d="M24.08,34.61v-5.74h1.41v0.96h0.06c0.12-0.31,0.3-0.57,0.55-0.78c0.25-0.21,0.6-0.31,1.05-0.31
		c0.59,0,1.05,0.19,1.36,0.58s0.47,0.94,0.47,1.66v3.63h-1.41v-3.49c0-0.41-0.07-0.72-0.22-0.92c-0.15-0.21-0.39-0.31-0.73-0.31
		c-0.15,0-0.29,0.02-0.42,0.06c-0.14,0.04-0.26,0.1-0.36,0.18s-0.19,0.17-0.26,0.29c-0.07,0.11-0.1,0.25-0.1,0.4v3.79H24.08z"/>
	<path class="st0" d="M34.94,34.61c-0.48,0-0.85-0.13-1.11-0.38c-0.25-0.25-0.38-0.61-0.38-1.08V30H32.6v-1.13h0.44
		c0.21,0,0.36-0.05,0.43-0.15c0.08-0.1,0.12-0.25,0.12-0.45v-0.98h1.27v1.57h1.18V30h-1.18v3.48h1.09v1.13H34.94z"/>
	<path class="st0" d="M37.26,26.47h1.41v3.35h0.06c0.12-0.31,0.3-0.57,0.55-0.78c0.25-0.21,0.6-0.31,1.05-0.31
		c0.59,0,1.05,0.19,1.36,0.58s0.47,0.94,0.47,1.66v3.63h-1.41v-3.49c0-0.41-0.07-0.72-0.22-0.92c-0.15-0.21-0.39-0.31-0.73-0.31
		c-0.15,0-0.29,0.02-0.42,0.06c-0.14,0.04-0.26,0.1-0.36,0.18s-0.19,0.17-0.26,0.29c-0.07,0.11-0.1,0.25-0.1,0.4v3.79h-1.41V26.47z"
		/>
	<path class="st0" d="M46.04,34.74c-0.42,0-0.8-0.07-1.14-0.21c-0.33-0.14-0.62-0.34-0.85-0.6c-0.23-0.26-0.41-0.58-0.53-0.95
		c-0.12-0.37-0.19-0.79-0.19-1.25c0-0.45,0.06-0.87,0.18-1.23s0.29-0.68,0.52-0.94c0.23-0.26,0.51-0.46,0.84-0.6s0.7-0.21,1.12-0.21
		c0.45,0,0.84,0.08,1.17,0.23c0.33,0.15,0.6,0.36,0.81,0.63c0.21,0.26,0.37,0.57,0.48,0.92c0.11,0.35,0.16,0.72,0.16,1.12v0.46H44.8
		v0.14c0,0.42,0.12,0.75,0.35,1c0.23,0.25,0.58,0.38,1.04,0.38c0.35,0,0.64-0.07,0.86-0.22s0.42-0.33,0.6-0.56l0.76,0.85
		c-0.23,0.33-0.56,0.59-0.96,0.78C47.05,34.64,46.58,34.74,46.04,34.74z M46.02,29.79c-0.37,0-0.67,0.12-0.89,0.37
		c-0.22,0.25-0.33,0.57-0.33,0.97v0.09h2.35v-0.1c0-0.4-0.1-0.72-0.29-0.96C46.67,29.91,46.39,29.79,46.02,29.79z"/>
	<path class="st0" d="M52.46,28.86h1.41v0.95h0.04c0.1-0.33,0.3-0.59,0.58-0.79c0.29-0.19,0.62-0.29,1-0.29
		c0.73,0,1.29,0.26,1.68,0.78s0.58,1.26,0.58,2.22c0,0.97-0.19,1.71-0.58,2.23s-0.94,0.78-1.68,0.78c-0.38,0-0.71-0.1-1-0.3
		c-0.28-0.2-0.48-0.46-0.59-0.79h-0.04v3.16h-1.41V28.86z M55.04,33.57c0.37,0,0.66-0.12,0.89-0.36s0.34-0.57,0.34-0.98v-0.99
		c0-0.41-0.11-0.74-0.34-0.98c-0.23-0.25-0.52-0.37-0.89-0.37c-0.34,0-0.62,0.08-0.84,0.25c-0.22,0.17-0.34,0.39-0.34,0.67v1.83
		c0,0.3,0.11,0.53,0.34,0.69S54.71,33.57,55.04,33.57z"/>
	<path class="st0" d="M63.28,34.61c-0.31,0-0.55-0.09-0.73-0.27s-0.29-0.42-0.34-0.72h-0.07c-0.1,0.37-0.29,0.65-0.58,0.84
		c-0.29,0.19-0.66,0.28-1.09,0.28c-0.59,0-1.04-0.15-1.35-0.46c-0.32-0.31-0.47-0.72-0.47-1.23c0-0.59,0.21-1.03,0.64-1.32
		s1.03-0.43,1.82-0.43h0.98v-0.42c0-0.32-0.08-0.57-0.25-0.75c-0.17-0.18-0.44-0.26-0.81-0.26c-0.33,0-0.6,0.07-0.8,0.21
		c-0.2,0.14-0.37,0.31-0.51,0.51l-0.84-0.75c0.21-0.33,0.5-0.6,0.85-0.8c0.35-0.2,0.82-0.3,1.4-0.3c0.78,0,1.37,0.18,1.77,0.53
		s0.61,0.86,0.61,1.51v2.7h0.57v1.13H63.28z M60.95,33.71c0.32,0,0.58-0.07,0.8-0.21c0.22-0.14,0.33-0.34,0.33-0.61v-0.75h-0.9
		c-0.73,0-1.1,0.23-1.1,0.7v0.19c0,0.23,0.08,0.41,0.23,0.52S60.67,33.71,60.95,33.71z"/>
	<path class="st0" d="M65.21,34.61v-5.74h1.41v1.19h0.06c0.04-0.15,0.09-0.3,0.17-0.45s0.18-0.27,0.3-0.38s0.27-0.2,0.45-0.26
		c0.17-0.07,0.37-0.1,0.6-0.1h0.31v1.33h-0.44c-0.48,0-0.84,0.07-1.08,0.21c-0.24,0.14-0.36,0.37-0.36,0.68v3.52H65.21z"/>
	<path class="st0" d="M69.53,26.47h1.41v4.91h0.06l0.76-1.03l1.29-1.47h1.59l-1.98,2.22l2.19,3.52h-1.67l-1.47-2.57l-0.76,0.83v1.75
		h-1.41V26.47z"/>
	<path class="st0" d="M80.1,34.61c-0.48,0-0.85-0.13-1.11-0.38c-0.25-0.25-0.38-0.61-0.38-1.08V30h-0.85v-1.13h0.44
		c0.21,0,0.36-0.05,0.43-0.15c0.08-0.1,0.12-0.25,0.12-0.45v-0.98h1.27v1.57h1.18V30h-1.18v3.48h1.09v1.13H80.1z"/>
	<path class="st0" d="M84.65,34.74c-0.41,0-0.78-0.07-1.11-0.21s-0.6-0.34-0.84-0.6c-0.23-0.26-0.41-0.58-0.53-0.95
		c-0.12-0.37-0.19-0.79-0.19-1.25c0-0.46,0.06-0.88,0.19-1.24c0.12-0.37,0.3-0.68,0.53-0.94c0.23-0.26,0.51-0.46,0.84-0.6
		c0.33-0.14,0.7-0.21,1.11-0.21c0.41,0,0.78,0.07,1.11,0.21c0.33,0.14,0.61,0.34,0.84,0.6c0.23,0.26,0.41,0.57,0.53,0.94
		c0.12,0.37,0.19,0.78,0.19,1.24c0,0.46-0.06,0.88-0.19,1.25c-0.12,0.37-0.3,0.69-0.53,0.95c-0.23,0.26-0.51,0.47-0.84,0.6
		S85.06,34.74,84.65,34.74z M84.65,33.6c0.37,0,0.67-0.11,0.88-0.34c0.21-0.23,0.32-0.56,0.32-1V31.2c0-0.43-0.11-0.76-0.32-0.99
		c-0.21-0.23-0.51-0.34-0.88-0.34c-0.37,0-0.66,0.11-0.87,0.34c-0.21,0.23-0.32,0.56-0.32,0.99v1.07c0,0.44,0.11,0.77,0.32,1
		C84,33.49,84.29,33.6,84.65,33.6z"/>
	<path class="st0" d="M92.13,33.65h-0.05c-0.1,0.33-0.3,0.59-0.58,0.79c-0.29,0.2-0.62,0.3-1,0.3c-0.73,0-1.28-0.26-1.67-0.78
		s-0.58-1.27-0.58-2.23c0-0.96,0.19-1.7,0.58-2.22s0.94-0.78,1.67-0.78c0.38,0,0.71,0.1,1,0.29s0.48,0.46,0.58,0.79h0.05v-3.34h1.41
		v8.14h-1.41V33.65z M90.95,33.57c0.34,0,0.62-0.08,0.85-0.24s0.34-0.39,0.34-0.69v-1.83c0-0.28-0.11-0.5-0.34-0.67
		c-0.23-0.17-0.51-0.25-0.85-0.25c-0.37,0-0.66,0.12-0.89,0.37c-0.22,0.25-0.34,0.57-0.34,0.98v0.99c0,0.41,0.11,0.74,0.34,0.98
		S90.58,33.57,90.95,33.57z"/>
	<path class="st0" d="M99.39,34.61c-0.31,0-0.55-0.09-0.73-0.27s-0.29-0.42-0.34-0.72h-0.07c-0.1,0.37-0.29,0.65-0.58,0.84
		c-0.29,0.19-0.66,0.28-1.09,0.28c-0.59,0-1.04-0.15-1.35-0.46c-0.32-0.31-0.47-0.72-0.47-1.23c0-0.59,0.21-1.03,0.64-1.32
		s1.03-0.43,1.82-0.43h0.98v-0.42c0-0.32-0.08-0.57-0.25-0.75c-0.17-0.18-0.44-0.26-0.81-0.26c-0.33,0-0.6,0.07-0.8,0.21
		c-0.2,0.14-0.37,0.31-0.51,0.51l-0.84-0.75c0.21-0.33,0.5-0.6,0.85-0.8c0.35-0.2,0.82-0.3,1.4-0.3c0.78,0,1.37,0.18,1.77,0.53
		s0.61,0.86,0.61,1.51v2.7h0.57v1.13H99.39z M97.06,33.71c0.32,0,0.58-0.07,0.8-0.21c0.22-0.14,0.33-0.34,0.33-0.61v-0.75h-0.9
		c-0.73,0-1.1,0.23-1.1,0.7v0.19c0,0.23,0.08,0.41,0.23,0.52S96.78,33.71,97.06,33.71z"/>
	<path class="st0" d="M104.75,28.86h1.32l-2.31,6.77c-0.07,0.21-0.16,0.38-0.25,0.53c-0.09,0.15-0.2,0.27-0.32,0.37
		c-0.12,0.1-0.28,0.17-0.45,0.21c-0.18,0.04-0.38,0.07-0.62,0.07h-0.85v-1.13h1.03l0.26-0.8l-2.06-6.01h1.4l1,3.03l0.37,1.45h0.07
		l0.4-1.45L104.75,28.86z"/>
	<path class="st0" d="M107.29,34.73c-0.3,0-0.52-0.08-0.67-0.23c-0.14-0.15-0.21-0.34-0.21-0.58v-0.2c0-0.23,0.07-0.43,0.21-0.58
		c0.14-0.15,0.36-0.23,0.67-0.23c0.31,0,0.53,0.08,0.67,0.23c0.14,0.15,0.21,0.35,0.21,0.58v0.2c0,0.23-0.07,0.43-0.21,0.58
		C107.82,34.65,107.6,34.73,107.29,34.73z"/>
</g>
</svg>
