<!-- Generator: Adobe Illustrator 23.1.1, SVG Export Plug-In  -->
<svg version="1.1" xmlns="http://www.w3.org/2000/svg" xmlns:xlink="http://www.w3.org/1999/xlink" x="0px" y="0px"
	 width="178.82px" height="34.74px" viewBox="0 0 178.82 34.74" style="enable-background:new 0 0 178.82 34.74;"
	 xml:space="preserve">
<style type="text/css">
	.st0{fill:#FFFFFF;}
</style>
<defs>
</defs>
<g>
	<path class="st0" d="M3.64,1.81v6.39H2.19V1.81H0.01V0.53h5.81v1.29H3.64z"/>
	<path class="st0" d="M6.92,0.07h1.41v3.35h0.06c0.12-0.31,0.3-0.57,0.55-0.78c0.25-0.21,0.6-0.31,1.05-0.31
		c0.59,0,1.05,0.19,1.36,0.58s0.47,0.94,0.47,1.66v3.63h-1.41V4.72c0-0.41-0.07-0.72-0.22-0.92c-0.15-0.21-0.39-0.31-0.73-0.31
		c-0.15,0-0.29,0.02-0.42,0.06c-0.14,0.04-0.26,0.1-0.36,0.18S8.49,3.9,8.43,4.01c-0.07,0.11-0.1,0.25-0.1,0.4v3.79H6.92V0.07z"/>
	<path class="st0" d="M15.71,8.34c-0.42,0-0.8-0.07-1.14-0.21c-0.33-0.14-0.62-0.34-0.85-0.6c-0.23-0.26-0.41-0.58-0.53-0.95
		C13.06,6.2,13,5.79,13,5.32c0-0.45,0.06-0.87,0.18-1.23s0.29-0.68,0.52-0.94c0.23-0.26,0.51-0.46,0.84-0.6s0.7-0.21,1.12-0.21
		c0.45,0,0.84,0.08,1.17,0.23c0.33,0.15,0.6,0.36,0.81,0.63c0.21,0.26,0.37,0.57,0.48,0.92c0.11,0.35,0.16,0.72,0.16,1.12v0.46
		h-3.82v0.14c0,0.42,0.12,0.75,0.35,1c0.23,0.25,0.58,0.38,1.04,0.38c0.35,0,0.64-0.07,0.86-0.22s0.42-0.33,0.6-0.56l0.76,0.85
		c-0.23,0.33-0.56,0.59-0.96,0.78C16.71,8.24,16.24,8.34,15.71,8.34z M15.69,3.39c-0.37,0-0.67,0.12-0.89,0.37
		c-0.22,0.25-0.33,0.57-0.33,0.97v0.09h2.35v-0.1c0-0.4-0.1-0.72-0.29-0.96C16.33,3.51,16.05,3.39,15.69,3.39z"/>
	<path class="st0" d="M24.04,8.21V5.19l-2.63-4.66h1.63l1.77,3.25h0.02l1.73-3.25h1.58l-2.64,4.65v3.02H24.04z"/>
	<path class="st0" d="M30.72,8.34c-0.41,0-0.78-0.07-1.11-0.21s-0.6-0.34-0.84-0.6c-0.23-0.26-0.41-0.58-0.53-0.95
		c-0.12-0.37-0.19-0.79-0.19-1.25c0-0.46,0.06-0.88,0.19-1.24c0.12-0.37,0.3-0.68,0.53-0.94c0.23-0.26,0.51-0.46,0.84-0.6
		c0.33-0.14,0.7-0.21,1.11-0.21c0.41,0,0.78,0.07,1.11,0.21c0.33,0.14,0.61,0.34,0.84,0.6c0.23,0.26,0.41,0.57,0.53,0.94
		c0.12,0.37,0.19,0.78,0.19,1.24c0,0.46-0.06,0.88-0.19,1.25c-0.12,0.37-0.3,0.69-0.53,0.95c-0.23,0.26-0.51,0.47-0.84,0.6
		S31.13,8.34,30.72,8.34z M30.72,7.21c0.37,0,0.67-0.11,0.88-0.34c0.21-0.23,0.32-0.56,0.32-1V4.8c0-0.43-0.11-0.76-0.32-0.99
		c-0.21-0.23-0.51-0.34-0.88-0.34c-0.37,0-0.66,0.11-0.87,0.34c-0.21,0.23-0.32,0.56-0.32,0.99v1.07c0,0.44,0.11,0.77,0.32,1
		C30.07,7.09,30.36,7.21,30.72,7.21z"/>
	<path class="st0" d="M36.52,8.34c-0.55,0-1.01-0.09-1.39-0.28s-0.7-0.45-0.99-0.78L35,6.45c0.21,0.24,0.45,0.43,0.7,0.57
		c0.25,0.14,0.54,0.21,0.87,0.21c0.34,0,0.58-0.06,0.73-0.18c0.15-0.12,0.23-0.28,0.23-0.48c0-0.17-0.05-0.3-0.16-0.4
		c-0.11-0.1-0.29-0.17-0.54-0.2l-0.57-0.08c-0.62-0.08-1.1-0.26-1.42-0.53c-0.33-0.27-0.49-0.68-0.49-1.2
		c0-0.28,0.05-0.53,0.15-0.75s0.25-0.41,0.44-0.57c0.19-0.16,0.42-0.28,0.69-0.36c0.27-0.08,0.57-0.13,0.9-0.13
		c0.28,0,0.53,0.02,0.74,0.06c0.22,0.04,0.41,0.1,0.59,0.18c0.18,0.08,0.34,0.17,0.48,0.29s0.29,0.24,0.43,0.38l-0.83,0.83
		c-0.17-0.18-0.37-0.32-0.61-0.44s-0.49-0.18-0.77-0.18c-0.31,0-0.53,0.06-0.67,0.17c-0.14,0.11-0.2,0.25-0.2,0.43
		c0,0.19,0.06,0.34,0.17,0.43c0.11,0.1,0.31,0.17,0.58,0.21l0.58,0.08c1.24,0.18,1.86,0.74,1.86,1.69c0,0.28-0.06,0.53-0.17,0.76
		c-0.11,0.23-0.27,0.43-0.48,0.59s-0.45,0.29-0.74,0.39C37.2,8.29,36.88,8.34,36.52,8.34z"/>
	<path class="st0" d="M42.45,8.34c-0.42,0-0.8-0.07-1.14-0.21c-0.33-0.14-0.62-0.34-0.85-0.6c-0.23-0.26-0.41-0.58-0.53-0.95
		c-0.12-0.37-0.19-0.79-0.19-1.25c0-0.45,0.06-0.87,0.18-1.23s0.29-0.68,0.52-0.94c0.23-0.26,0.51-0.46,0.84-0.6s0.7-0.21,1.12-0.21
		c0.45,0,0.84,0.08,1.17,0.23c0.33,0.15,0.6,0.36,0.81,0.63c0.21,0.26,0.37,0.57,0.48,0.92c0.11,0.35,0.16,0.72,0.16,1.12v0.46
		h-3.82v0.14c0,0.42,0.12,0.75,0.35,1c0.23,0.25,0.58,0.38,1.04,0.38c0.35,0,0.64-0.07,0.86-0.22s0.42-0.33,0.6-0.56l0.76,0.85
		c-0.23,0.33-0.56,0.59-0.96,0.78C43.46,8.24,42.98,8.34,42.45,8.34z M42.43,3.39c-0.37,0-0.67,0.12-0.89,0.37
		c-0.22,0.25-0.33,0.57-0.33,0.97v0.09h2.35v-0.1c0-0.4-0.1-0.72-0.29-0.96C43.07,3.51,42.79,3.39,42.43,3.39z"/>
	<path class="st0" d="M46.27,8.21V2.46h1.41v0.96h0.06c0.11-0.3,0.29-0.56,0.53-0.77c0.24-0.21,0.58-0.32,1.01-0.32
		c0.4,0,0.74,0.1,1.02,0.29c0.29,0.19,0.5,0.48,0.64,0.87h0.02c0.1-0.32,0.31-0.6,0.61-0.82s0.69-0.34,1.15-0.34
		c0.56,0,1,0.19,1.3,0.58s0.46,0.94,0.46,1.66v3.63h-1.41V4.72c0-0.82-0.31-1.23-0.92-1.23c-0.14,0-0.27,0.02-0.4,0.06
		c-0.13,0.04-0.24,0.1-0.34,0.18c-0.1,0.08-0.18,0.17-0.24,0.29s-0.09,0.25-0.09,0.4v3.79h-1.41V4.72c0-0.82-0.31-1.23-0.92-1.23
		c-0.13,0-0.26,0.02-0.39,0.06c-0.13,0.04-0.24,0.1-0.34,0.18s-0.18,0.17-0.24,0.29s-0.09,0.25-0.09,0.4v3.79H46.27z"/>
	<path class="st0" d="M56.74,1.63c-0.29,0-0.5-0.07-0.63-0.2c-0.13-0.13-0.19-0.3-0.19-0.51V0.7c0-0.21,0.06-0.37,0.19-0.51
		C56.23,0.07,56.44,0,56.74,0c0.29,0,0.5,0.07,0.63,0.2c0.13,0.13,0.2,0.3,0.2,0.51v0.22c0,0.21-0.07,0.37-0.2,0.51
		C57.23,1.56,57.02,1.63,56.74,1.63z M56.03,2.46h1.41v5.74h-1.41V2.46z"/>
	<path class="st0" d="M60.86,8.21c-0.48,0-0.85-0.13-1.11-0.38c-0.25-0.25-0.38-0.61-0.38-1.08V3.6h-0.85V2.46h0.44
		c0.21,0,0.36-0.05,0.43-0.15c0.08-0.1,0.12-0.25,0.12-0.45V0.89h1.27v1.57h1.18V3.6h-1.18v3.48h1.09v1.13H60.86z"/>
	<path class="st0" d="M65.46,8.34c-0.42,0-0.8-0.07-1.14-0.21c-0.33-0.14-0.62-0.34-0.85-0.6c-0.23-0.26-0.41-0.58-0.53-0.95
		c-0.12-0.37-0.19-0.79-0.19-1.25c0-0.45,0.06-0.87,0.18-1.23s0.29-0.68,0.52-0.94c0.23-0.26,0.51-0.46,0.84-0.6s0.7-0.21,1.12-0.21
		c0.45,0,0.84,0.08,1.17,0.23c0.33,0.15,0.6,0.36,0.81,0.63c0.21,0.26,0.37,0.57,0.48,0.92c0.11,0.35,0.16,0.72,0.16,1.12v0.46
		h-3.82v0.14c0,0.42,0.12,0.75,0.35,1c0.23,0.25,0.58,0.38,1.04,0.38c0.35,0,0.64-0.07,0.86-0.22s0.42-0.33,0.6-0.56l0.76,0.85
		c-0.23,0.33-0.56,0.59-0.96,0.78C66.47,8.24,66,8.34,65.46,8.34z M65.44,3.39c-0.37,0-0.67,0.12-0.89,0.37
		c-0.22,0.25-0.33,0.57-0.33,0.97v0.09h2.35v-0.1c0-0.4-0.1-0.72-0.29-0.96C66.08,3.51,65.8,3.39,65.44,3.39z"/>
	<path class="st0" d="M73.28,8.21c-0.48,0-0.84-0.12-1.07-0.36c-0.23-0.24-0.34-0.58-0.34-1.02V0.07h1.41v7.01h0.76v1.13H73.28z"/>
	<path class="st0" d="M79.33,8.21c-0.31,0-0.55-0.09-0.73-0.27s-0.29-0.42-0.34-0.72H78.2c-0.1,0.37-0.29,0.65-0.58,0.84
		c-0.29,0.19-0.66,0.28-1.09,0.28c-0.59,0-1.04-0.15-1.35-0.46c-0.32-0.31-0.47-0.72-0.47-1.23c0-0.59,0.21-1.03,0.64-1.32
		s1.03-0.43,1.82-0.43h0.98V4.48c0-0.32-0.08-0.57-0.25-0.75c-0.17-0.18-0.44-0.26-0.81-0.26c-0.33,0-0.6,0.07-0.8,0.21
		c-0.2,0.14-0.37,0.31-0.51,0.51l-0.84-0.75c0.21-0.33,0.5-0.6,0.85-0.8c0.35-0.2,0.82-0.3,1.4-0.3c0.78,0,1.37,0.18,1.77,0.53
		s0.61,0.86,0.61,1.51v2.7h0.57v1.13H79.33z M77,7.31c0.32,0,0.58-0.07,0.8-0.21c0.22-0.14,0.33-0.34,0.33-0.61V5.74h-0.9
		c-0.73,0-1.1,0.23-1.1,0.7v0.19c0,0.23,0.08,0.41,0.23,0.52S76.72,7.31,77,7.31z"/>
	<path class="st0" d="M81.26,8.21V2.46h1.41v0.96h0.06c0.12-0.31,0.3-0.57,0.55-0.78c0.25-0.21,0.6-0.31,1.05-0.31
		c0.59,0,1.05,0.19,1.36,0.58s0.47,0.94,0.47,1.66v3.63h-1.41V4.72c0-0.41-0.07-0.72-0.22-0.92c-0.15-0.21-0.39-0.31-0.73-0.31
		c-0.15,0-0.29,0.02-0.42,0.06c-0.14,0.04-0.26,0.1-0.36,0.18s-0.19,0.17-0.26,0.29c-0.07,0.11-0.1,0.25-0.1,0.4v3.79H81.26z"/>
	<path class="st0" d="M91.29,7.25h-0.05c-0.1,0.33-0.3,0.59-0.58,0.79c-0.29,0.2-0.62,0.3-1,0.3c-0.73,0-1.28-0.26-1.67-0.78
		S87.4,6.29,87.4,5.32c0-0.96,0.19-1.7,0.58-2.22s0.94-0.78,1.67-0.78c0.38,0,0.71,0.1,1,0.29s0.48,0.46,0.58,0.79h0.05V0.07h1.41
		v8.14h-1.41V7.25z M90.1,7.17c0.34,0,0.62-0.08,0.85-0.24s0.34-0.39,0.34-0.69V4.41c0-0.28-0.11-0.5-0.34-0.67
		c-0.23-0.17-0.51-0.25-0.85-0.25c-0.37,0-0.66,0.12-0.89,0.37c-0.22,0.25-0.34,0.57-0.34,0.98v0.99c0,0.41,0.11,0.74,0.34,0.98
		S89.73,7.17,90.1,7.17z"/>
	<path class="st0" d="M97.62,1.63c-0.29,0-0.5-0.07-0.63-0.2c-0.13-0.13-0.19-0.3-0.19-0.51V0.7c0-0.21,0.06-0.37,0.19-0.51
		C97.12,0.07,97.33,0,97.62,0c0.29,0,0.5,0.07,0.63,0.2c0.13,0.13,0.2,0.3,0.2,0.51v0.22c0,0.21-0.07,0.37-0.2,0.51
		C98.12,1.56,97.91,1.63,97.62,1.63z M96.92,2.46h1.41v5.74h-1.41V2.46z"/>
	<path class="st0" d="M101.84,8.34c-0.55,0-1.01-0.09-1.39-0.28s-0.7-0.45-0.99-0.78l0.86-0.84c0.21,0.24,0.45,0.43,0.7,0.57
		c0.25,0.14,0.54,0.21,0.87,0.21c0.34,0,0.58-0.06,0.73-0.18c0.15-0.12,0.23-0.28,0.23-0.48c0-0.17-0.05-0.3-0.16-0.4
		c-0.11-0.1-0.29-0.17-0.54-0.2l-0.57-0.08c-0.62-0.08-1.1-0.26-1.42-0.53c-0.33-0.27-0.49-0.68-0.49-1.2
		c0-0.28,0.05-0.53,0.15-0.75s0.25-0.41,0.44-0.57c0.19-0.16,0.42-0.28,0.69-0.36c0.27-0.08,0.57-0.13,0.9-0.13
		c0.28,0,0.53,0.02,0.74,0.06c0.22,0.04,0.41,0.1,0.59,0.18c0.18,0.08,0.34,0.17,0.48,0.29s0.29,0.24,0.43,0.38l-0.83,0.83
		c-0.17-0.18-0.37-0.32-0.61-0.44s-0.49-0.18-0.77-0.18c-0.31,0-0.53,0.06-0.67,0.17c-0.14,0.11-0.2,0.25-0.2,0.43
		c0,0.19,0.06,0.34,0.17,0.43c0.11,0.1,0.31,0.17,0.58,0.21l0.58,0.08c1.24,0.18,1.86,0.74,1.86,1.69c0,0.28-0.06,0.53-0.17,0.76
		c-0.11,0.23-0.27,0.43-0.48,0.59s-0.45,0.29-0.74,0.39C102.52,8.29,102.2,8.34,101.84,8.34z"/>
	<path class="st0" d="M108.74,1.63c-0.29,0-0.5-0.07-0.63-0.2c-0.13-0.13-0.19-0.3-0.19-0.51V0.7c0-0.21,0.06-0.37,0.19-0.51
		c0.13-0.13,0.34-0.2,0.63-0.2c0.29,0,0.5,0.07,0.63,0.2c0.13,0.13,0.2,0.3,0.2,0.51v0.22c0,0.21-0.07,0.37-0.2,0.51
		C109.24,1.56,109.03,1.63,108.74,1.63z M108.04,2.46h1.41v5.74h-1.41V2.46z"/>
	<path class="st0" d="M111.08,8.21V2.46h1.41v0.96h0.06c0.12-0.31,0.3-0.57,0.55-0.78c0.25-0.21,0.6-0.31,1.05-0.31
		c0.59,0,1.05,0.19,1.36,0.58s0.47,0.94,0.47,1.66v3.63h-1.41V4.72c0-0.41-0.07-0.72-0.22-0.92c-0.15-0.21-0.39-0.31-0.73-0.31
		c-0.15,0-0.29,0.02-0.42,0.06c-0.14,0.04-0.26,0.1-0.36,0.18s-0.19,0.17-0.26,0.29c-0.07,0.11-0.1,0.25-0.1,0.4v3.79H111.08z"/>
	<path class="st0" d="M117.54,0.07h1.41v3.35h0.06c0.12-0.31,0.3-0.57,0.55-0.78c0.25-0.21,0.6-0.31,1.05-0.31
		c0.59,0,1.05,0.19,1.36,0.58s0.47,0.94,0.47,1.66v3.63h-1.41V4.72c0-0.41-0.07-0.72-0.22-0.92c-0.15-0.21-0.39-0.31-0.73-0.31
		c-0.15,0-0.29,0.02-0.42,0.06c-0.14,0.04-0.26,0.1-0.36,0.18s-0.19,0.17-0.26,0.29c-0.07,0.11-0.1,0.25-0.1,0.4v3.79h-1.41V0.07z"
		/>
	<path class="st0" d="M128.24,8.21c-0.31,0-0.55-0.09-0.73-0.27s-0.29-0.42-0.34-0.72h-0.07c-0.1,0.37-0.29,0.65-0.58,0.84
		c-0.29,0.19-0.66,0.28-1.09,0.28c-0.59,0-1.04-0.15-1.35-0.46c-0.32-0.31-0.47-0.72-0.47-1.23c0-0.59,0.21-1.03,0.64-1.32
		s1.03-0.43,1.82-0.43h0.98V4.48c0-0.32-0.08-0.57-0.25-0.75c-0.17-0.18-0.44-0.26-0.81-0.26c-0.33,0-0.6,0.07-0.8,0.21
		c-0.2,0.14-0.37,0.31-0.51,0.51l-0.84-0.75c0.21-0.33,0.5-0.6,0.85-0.8c0.35-0.2,0.82-0.3,1.4-0.3c0.78,0,1.37,0.18,1.77,0.53
		s0.61,0.86,0.61,1.51v2.7h0.57v1.13H128.24z M125.9,7.31c0.32,0,0.58-0.07,0.8-0.21c0.22-0.14,0.33-0.34,0.33-0.61V5.74h-0.9
		c-0.73,0-1.1,0.23-1.1,0.7v0.19c0,0.23,0.08,0.41,0.23,0.52S125.62,7.31,125.9,7.31z"/>
	<path class="st0" d="M130.16,0.07h1.41v3.34h0.04c0.1-0.33,0.3-0.59,0.58-0.79c0.29-0.19,0.62-0.29,1-0.29
		c0.73,0,1.29,0.26,1.68,0.78s0.58,1.26,0.58,2.22c0,0.97-0.19,1.71-0.58,2.23s-0.94,0.78-1.68,0.78c-0.38,0-0.71-0.1-1-0.3
		c-0.28-0.2-0.48-0.46-0.59-0.79h-0.04v0.96h-1.41V0.07z M132.75,7.17c0.37,0,0.66-0.12,0.89-0.36s0.34-0.57,0.34-0.98V4.84
		c0-0.41-0.11-0.74-0.34-0.98c-0.23-0.25-0.52-0.37-0.89-0.37c-0.34,0-0.62,0.08-0.84,0.25c-0.22,0.17-0.34,0.39-0.34,0.67v1.83
		c0,0.3,0.11,0.53,0.34,0.69S132.41,7.17,132.75,7.17z"/>
	<path class="st0" d="M137.46,1.63c-0.29,0-0.5-0.07-0.63-0.2c-0.13-0.13-0.19-0.3-0.19-0.51V0.7c0-0.21,0.06-0.37,0.19-0.51
		c0.13-0.13,0.34-0.2,0.63-0.2c0.29,0,0.5,0.07,0.63,0.2c0.13,0.13,0.2,0.3,0.2,0.51v0.22c0,0.21-0.07,0.37-0.2,0.51
		C137.96,1.56,137.75,1.63,137.46,1.63z M136.76,2.46h1.41v5.74h-1.41V2.46z"/>
	<path class="st0" d="M141.59,8.21c-0.48,0-0.85-0.13-1.11-0.38c-0.25-0.25-0.38-0.61-0.38-1.08V3.6h-0.85V2.46h0.44
		c0.21,0,0.36-0.05,0.43-0.15c0.08-0.1,0.12-0.25,0.12-0.45V0.89h1.27v1.57h1.18V3.6h-1.18v3.48h1.09v1.13H141.59z"/>
	<path class="st0" d="M146.19,8.34c-0.42,0-0.8-0.07-1.14-0.21c-0.33-0.14-0.62-0.34-0.85-0.6c-0.23-0.26-0.41-0.58-0.53-0.95
		c-0.12-0.37-0.19-0.79-0.19-1.25c0-0.45,0.06-0.87,0.18-1.23s0.29-0.68,0.52-0.94c0.23-0.26,0.51-0.46,0.84-0.6s0.7-0.21,1.12-0.21
		c0.45,0,0.84,0.08,1.17,0.23c0.33,0.15,0.6,0.36,0.81,0.63c0.21,0.26,0.37,0.57,0.48,0.92c0.11,0.35,0.16,0.72,0.16,1.12v0.46
		h-3.82v0.14c0,0.42,0.12,0.75,0.35,1c0.23,0.25,0.58,0.38,1.04,0.38c0.35,0,0.64-0.07,0.86-0.22s0.42-0.33,0.6-0.56l0.76,0.85
		c-0.23,0.33-0.56,0.59-0.96,0.78C147.19,8.24,146.72,8.34,146.19,8.34z M146.17,3.39c-0.37,0-0.67,0.12-0.89,0.37
		c-0.22,0.25-0.33,0.57-0.33,0.97v0.09h2.35v-0.1c0-0.4-0.1-0.72-0.29-0.96C146.81,3.51,146.53,3.39,146.17,3.39z"/>
	<path class="st0" d="M153.57,7.25h-0.05c-0.1,0.33-0.3,0.59-0.58,0.79c-0.29,0.2-0.62,0.3-1,0.3c-0.73,0-1.28-0.26-1.67-0.78
		s-0.58-1.27-0.58-2.23c0-0.96,0.19-1.7,0.58-2.22s0.94-0.78,1.67-0.78c0.38,0,0.71,0.1,1,0.29s0.48,0.46,0.58,0.79h0.05V0.07h1.41
		v8.14h-1.41V7.25z M152.38,7.17c0.34,0,0.62-0.08,0.85-0.24s0.34-0.39,0.34-0.69V4.41c0-0.28-0.11-0.5-0.34-0.67
		c-0.23-0.17-0.51-0.25-0.85-0.25c-0.37,0-0.66,0.12-0.89,0.37c-0.22,0.25-0.34,0.57-0.34,0.98v0.99c0,0.41,0.11,0.74,0.34,0.98
		S152.01,7.17,152.38,7.17z"/>
	<path class="st0" d="M159.2,0.07h1.41v3.34h0.04c0.1-0.33,0.3-0.59,0.58-0.79c0.29-0.19,0.62-0.29,1-0.29
		c0.73,0,1.29,0.26,1.68,0.78s0.58,1.26,0.58,2.22c0,0.97-0.19,1.71-0.58,2.23s-0.94,0.78-1.68,0.78c-0.38,0-0.71-0.1-1-0.3
		c-0.28-0.2-0.48-0.46-0.59-0.79h-0.04v0.96h-1.41V0.07z M161.78,7.17c0.37,0,0.66-0.12,0.89-0.36s0.34-0.57,0.34-0.98V4.84
		c0-0.41-0.11-0.74-0.34-0.98c-0.23-0.25-0.52-0.37-0.89-0.37c-0.34,0-0.62,0.08-0.84,0.25c-0.22,0.17-0.34,0.39-0.34,0.67v1.83
		c0,0.3,0.11,0.53,0.34,0.69S161.45,7.17,161.78,7.17z"/>
	<path class="st0" d="M169.22,2.46h1.32l-2.31,6.77c-0.07,0.21-0.16,0.38-0.25,0.53c-0.09,0.15-0.2,0.27-0.32,0.37
		c-0.12,0.1-0.28,0.17-0.45,0.21c-0.18,0.04-0.38,0.07-0.62,0.07h-0.85V9.27h1.03l0.26-0.8l-2.06-6.01h1.4l1,3.03l0.37,1.45h0.07
		l0.4-1.45L169.22,2.46z"/>
	<path class="st0" d="M2.83,17.47l-0.79-1.6H2v5.53H0.63v-7.68h1.59l2.31,3.94l0.79,1.6h0.03v-5.53h1.38v7.68H5.14L2.83,17.47z"/>
	<path class="st0" d="M12.67,21.41c-0.31,0-0.55-0.09-0.73-0.27s-0.29-0.42-0.34-0.72h-0.07c-0.1,0.37-0.29,0.65-0.58,0.84
		c-0.29,0.19-0.66,0.28-1.09,0.28c-0.59,0-1.04-0.15-1.35-0.46c-0.32-0.31-0.47-0.72-0.47-1.23c0-0.59,0.21-1.03,0.64-1.32
		s1.03-0.43,1.82-0.43h0.98v-0.42c0-0.32-0.08-0.57-0.25-0.75c-0.17-0.18-0.44-0.26-0.81-0.26c-0.33,0-0.6,0.07-0.8,0.21
		c-0.2,0.14-0.37,0.31-0.51,0.51l-0.84-0.75c0.21-0.33,0.5-0.6,0.85-0.8c0.35-0.2,0.82-0.3,1.4-0.3c0.78,0,1.37,0.18,1.77,0.53
		s0.61,0.86,0.61,1.51v2.7h0.57v1.13H12.67z M10.34,20.51c0.32,0,0.58-0.07,0.8-0.21c0.22-0.14,0.33-0.34,0.33-0.61v-0.75h-0.9
		c-0.73,0-1.1,0.23-1.1,0.7v0.19c0,0.23,0.08,0.41,0.23,0.52S10.06,20.51,10.34,20.51z"/>
	<path class="st0" d="M16.35,21.41c-0.48,0-0.85-0.13-1.11-0.38c-0.25-0.25-0.38-0.61-0.38-1.08V16.8h-0.85v-1.13h0.44
		c0.21,0,0.36-0.05,0.43-0.15c0.08-0.1,0.12-0.25,0.12-0.45v-0.98h1.27v1.57h1.18v1.13h-1.18v3.48h1.09v1.13H16.35z"/>
	<path class="st0" d="M19.37,14.83c-0.29,0-0.5-0.07-0.63-0.2c-0.13-0.13-0.19-0.3-0.19-0.51V13.9c0-0.21,0.06-0.37,0.19-0.51
		c0.13-0.13,0.34-0.2,0.63-0.2c0.29,0,0.5,0.07,0.63,0.2c0.13,0.13,0.2,0.3,0.2,0.51v0.22c0,0.21-0.07,0.37-0.2,0.51
		C19.87,14.76,19.66,14.83,19.37,14.83z M18.67,15.66h1.41v5.74h-1.41V15.66z"/>
	<path class="st0" d="M22.93,21.41l-1.91-5.74h1.39l0.8,2.48l0.56,2.05h0.08l0.56-2.05l0.78-2.48h1.34l-1.92,5.74H22.93z"/>
	<path class="st0" d="M29.7,21.54c-0.42,0-0.8-0.07-1.14-0.21c-0.33-0.14-0.62-0.34-0.85-0.6c-0.23-0.26-0.41-0.58-0.53-0.95
		c-0.12-0.37-0.19-0.79-0.19-1.25c0-0.45,0.06-0.87,0.18-1.23s0.29-0.68,0.52-0.94c0.23-0.26,0.51-0.46,0.84-0.6s0.7-0.21,1.12-0.21
		c0.45,0,0.84,0.08,1.17,0.23c0.33,0.15,0.6,0.36,0.81,0.63c0.21,0.26,0.37,0.57,0.48,0.92c0.11,0.35,0.16,0.72,0.16,1.12v0.46
		h-3.82v0.14c0,0.42,0.12,0.75,0.35,1c0.23,0.25,0.58,0.38,1.04,0.38c0.35,0,0.64-0.07,0.86-0.22s0.42-0.33,0.6-0.56l0.76,0.85
		c-0.23,0.33-0.56,0.59-0.96,0.78C30.71,21.44,30.23,21.54,29.7,21.54z M29.68,16.59c-0.37,0-0.67,0.12-0.89,0.37
		c-0.22,0.25-0.33,0.57-0.33,0.97v0.09h2.35v-0.1c0-0.4-0.1-0.72-0.29-0.96C30.32,16.71,30.04,16.59,29.68,16.59z"/>
	<path class="st0" d="M40.95,21.41l-0.62-1.96h-2.73L37,21.41h-1.47l2.57-7.68h1.8l2.55,7.68H40.95z M38.99,15.05h-0.06l-0.98,3.16
		h2.02L38.99,15.05z"/>
	<path class="st0" d="M43.5,21.41v-5.74h1.41v0.96h0.06c0.11-0.3,0.29-0.56,0.53-0.77c0.24-0.21,0.58-0.32,1.01-0.32
		c0.4,0,0.74,0.1,1.02,0.29c0.29,0.19,0.5,0.48,0.64,0.87h0.02c0.1-0.32,0.31-0.6,0.61-0.82s0.69-0.34,1.15-0.34
		c0.56,0,1,0.19,1.3,0.58s0.46,0.94,0.46,1.66v3.63H50.3v-3.49c0-0.82-0.31-1.23-0.92-1.23c-0.14,0-0.27,0.02-0.4,0.06
		c-0.13,0.04-0.24,0.1-0.34,0.18c-0.1,0.08-0.18,0.17-0.24,0.29s-0.09,0.25-0.09,0.4v3.79H46.9v-3.49c0-0.82-0.31-1.23-0.92-1.23
		c-0.13,0-0.26,0.02-0.39,0.06c-0.13,0.04-0.24,0.1-0.34,0.18S45.07,17.1,45,17.21s-0.09,0.25-0.09,0.4v3.79H43.5z"/>
	<path class="st0" d="M55.59,21.54c-0.42,0-0.8-0.07-1.14-0.21c-0.33-0.14-0.62-0.34-0.85-0.6c-0.23-0.26-0.41-0.58-0.53-0.95
		c-0.12-0.37-0.19-0.79-0.19-1.25c0-0.45,0.06-0.87,0.18-1.23s0.29-0.68,0.52-0.94c0.23-0.26,0.51-0.46,0.84-0.6s0.7-0.21,1.12-0.21
		c0.45,0,0.84,0.08,1.17,0.23c0.33,0.15,0.6,0.36,0.81,0.63c0.21,0.26,0.37,0.57,0.48,0.92c0.11,0.35,0.16,0.72,0.16,1.12v0.46
		h-3.82v0.14c0,0.42,0.12,0.75,0.35,1c0.23,0.25,0.58,0.38,1.04,0.38c0.35,0,0.64-0.07,0.86-0.22s0.42-0.33,0.6-0.56l0.76,0.85
		c-0.23,0.33-0.56,0.59-0.96,0.78C56.6,21.44,56.13,21.54,55.59,21.54z M55.57,16.59c-0.37,0-0.67,0.12-0.89,0.37
		c-0.22,0.25-0.33,0.57-0.33,0.97v0.09h2.35v-0.1c0-0.4-0.1-0.72-0.29-0.96C56.22,16.71,55.94,16.59,55.57,16.59z"/>
	<path class="st0" d="M59.41,21.41v-5.74h1.41v1.19h0.06c0.04-0.15,0.09-0.3,0.17-0.45s0.18-0.27,0.3-0.38s0.27-0.2,0.45-0.26
		c0.17-0.07,0.37-0.1,0.6-0.1h0.31v1.33h-0.44c-0.48,0-0.84,0.07-1.08,0.21c-0.24,0.14-0.36,0.37-0.36,0.68v3.52H59.41z"/>
	<path class="st0" d="M64.44,14.83c-0.29,0-0.5-0.07-0.63-0.2c-0.13-0.13-0.19-0.3-0.19-0.51V13.9c0-0.21,0.06-0.37,0.19-0.51
		c0.13-0.13,0.34-0.2,0.63-0.2c0.29,0,0.5,0.07,0.63,0.2c0.13,0.13,0.2,0.3,0.2,0.51v0.22c0,0.21-0.07,0.37-0.2,0.51
		C64.93,14.76,64.72,14.83,64.44,14.83z M63.73,15.66h1.41v5.74h-1.41V15.66z"/>
	<path class="st0" d="M69.03,21.54c-0.43,0-0.8-0.07-1.13-0.21s-0.61-0.34-0.83-0.6c-0.22-0.26-0.39-0.58-0.51-0.95
		c-0.12-0.37-0.18-0.79-0.18-1.25c0-0.46,0.06-0.88,0.18-1.24c0.12-0.37,0.29-0.68,0.51-0.94s0.5-0.46,0.83-0.6
		c0.33-0.14,0.71-0.21,1.13-0.21c0.58,0,1.06,0.13,1.44,0.39c0.38,0.26,0.65,0.61,0.82,1.07l-1.16,0.52
		c-0.07-0.24-0.19-0.44-0.37-0.6s-0.42-0.24-0.73-0.24c-0.4,0-0.69,0.12-0.89,0.37c-0.19,0.25-0.29,0.58-0.29,0.98v1.05
		c0,0.4,0.1,0.73,0.29,0.97c0.19,0.25,0.49,0.37,0.89,0.37c0.34,0,0.6-0.09,0.78-0.26c0.18-0.17,0.33-0.39,0.43-0.64l1.08,0.52
		c-0.19,0.51-0.48,0.89-0.87,1.14S69.59,21.54,69.03,21.54z"/>
	<path class="st0" d="M76.63,21.41c-0.31,0-0.55-0.09-0.73-0.27s-0.29-0.42-0.34-0.72H75.5c-0.1,0.37-0.29,0.65-0.58,0.84
		c-0.29,0.19-0.66,0.28-1.09,0.28c-0.59,0-1.04-0.15-1.35-0.46C72.16,20.77,72,20.36,72,19.85c0-0.59,0.21-1.03,0.64-1.32
		s1.03-0.43,1.82-0.43h0.98v-0.42c0-0.32-0.08-0.57-0.25-0.75c-0.17-0.18-0.44-0.26-0.81-0.26c-0.33,0-0.6,0.07-0.8,0.21
		c-0.2,0.14-0.37,0.31-0.51,0.51l-0.84-0.75c0.21-0.33,0.5-0.6,0.85-0.8c0.35-0.2,0.82-0.3,1.4-0.3c0.78,0,1.37,0.18,1.77,0.53
		s0.61,0.86,0.61,1.51v2.7h0.57v1.13H76.63z M74.3,20.51c0.32,0,0.58-0.07,0.8-0.21c0.22-0.14,0.33-0.34,0.33-0.61v-0.75h-0.9
		c-0.73,0-1.1,0.23-1.1,0.7v0.19c0,0.23,0.08,0.41,0.23,0.52S74.02,20.51,74.3,20.51z"/>
	<path class="st0" d="M78.56,21.41v-5.74h1.41v0.96h0.06c0.12-0.31,0.3-0.57,0.55-0.78c0.25-0.21,0.6-0.31,1.05-0.31
		c0.59,0,1.05,0.19,1.36,0.58s0.47,0.94,0.47,1.66v3.63h-1.41v-3.49c0-0.41-0.07-0.72-0.22-0.92c-0.15-0.21-0.39-0.31-0.73-0.31
		c-0.15,0-0.29,0.02-0.42,0.06c-0.14,0.04-0.26,0.1-0.36,0.18s-0.19,0.17-0.26,0.29c-0.07,0.11-0.1,0.25-0.1,0.4v3.79H78.56z"/>
	<path class="st0" d="M89.42,21.41c-0.48,0-0.85-0.13-1.11-0.38c-0.25-0.25-0.38-0.61-0.38-1.08V16.8h-0.85v-1.13h0.44
		c0.21,0,0.36-0.05,0.43-0.15c0.08-0.1,0.12-0.25,0.12-0.45v-0.98h1.27v1.57h1.18v1.13h-1.18v3.48h1.09v1.13H89.42z"/>
	<path class="st0" d="M91.74,21.41v-5.74h1.41v1.19h0.06c0.04-0.15,0.09-0.3,0.17-0.45s0.18-0.27,0.3-0.38s0.27-0.2,0.45-0.26
		c0.17-0.07,0.37-0.1,0.6-0.1h0.31v1.33h-0.44c-0.48,0-0.84,0.07-1.08,0.21c-0.24,0.14-0.36,0.37-0.36,0.68v3.52H91.74z"/>
	<path class="st0" d="M96.76,14.83c-0.29,0-0.5-0.07-0.63-0.2c-0.13-0.13-0.19-0.3-0.19-0.51V13.9c0-0.21,0.06-0.37,0.19-0.51
		c0.13-0.13,0.34-0.2,0.63-0.2c0.29,0,0.5,0.07,0.63,0.2c0.13,0.13,0.2,0.3,0.2,0.51v0.22c0,0.21-0.07,0.37-0.2,0.51
		C97.26,14.76,97.05,14.83,96.76,14.83z M96.06,15.66h1.41v5.74h-1.41V15.66z"/>
	<path class="st0" d="M99.1,13.27h1.41v3.34h0.04c0.1-0.33,0.3-0.59,0.58-0.79c0.29-0.19,0.62-0.29,1-0.29
		c0.73,0,1.29,0.26,1.68,0.78s0.58,1.26,0.58,2.22c0,0.97-0.19,1.71-0.58,2.23s-0.94,0.78-1.68,0.78c-0.38,0-0.71-0.1-1-0.3
		c-0.28-0.2-0.48-0.46-0.59-0.79h-0.04v0.96H99.1V13.27z M101.68,20.37c0.37,0,0.66-0.12,0.89-0.36s0.34-0.57,0.34-0.98v-0.99
		c0-0.41-0.11-0.74-0.34-0.98c-0.23-0.25-0.52-0.37-0.89-0.37c-0.34,0-0.62,0.08-0.84,0.25c-0.22,0.17-0.34,0.39-0.34,0.67v1.83
		c0,0.3,0.11,0.53,0.34,0.69S101.34,20.37,101.68,20.37z"/>
	<path class="st0" d="M108.02,21.54c-0.42,0-0.8-0.07-1.14-0.21c-0.33-0.14-0.62-0.34-0.85-0.6c-0.23-0.26-0.41-0.58-0.53-0.95
		c-0.12-0.37-0.19-0.79-0.19-1.25c0-0.45,0.06-0.87,0.18-1.23s0.29-0.68,0.52-0.94c0.23-0.26,0.51-0.46,0.84-0.6s0.7-0.21,1.12-0.21
		c0.45,0,0.84,0.08,1.17,0.23c0.33,0.15,0.6,0.36,0.81,0.63c0.21,0.26,0.37,0.57,0.48,0.92c0.11,0.35,0.16,0.72,0.16,1.12v0.46
		h-3.82v0.14c0,0.42,0.12,0.75,0.35,1c0.23,0.25,0.58,0.38,1.04,0.38c0.35,0,0.64-0.07,0.86-0.22s0.42-0.33,0.6-0.56l0.76,0.85
		c-0.23,0.33-0.56,0.59-0.96,0.78C109.02,21.44,108.55,21.54,108.02,21.54z M108,16.59c-0.37,0-0.67,0.12-0.89,0.37
		c-0.22,0.25-0.33,0.57-0.33,0.97v0.09h2.35v-0.1c0-0.4-0.1-0.72-0.29-0.96C108.64,16.71,108.36,16.59,108,16.59z"/>
	<path class="st0" d="M113.71,21.54c-0.55,0-1.01-0.09-1.39-0.28s-0.7-0.45-0.99-0.78l0.86-0.84c0.21,0.24,0.45,0.43,0.7,0.57
		c0.25,0.14,0.54,0.21,0.87,0.21c0.34,0,0.58-0.06,0.73-0.18c0.15-0.12,0.23-0.28,0.23-0.48c0-0.17-0.05-0.3-0.16-0.4
		c-0.11-0.1-0.29-0.17-0.54-0.2l-0.57-0.08c-0.62-0.08-1.1-0.26-1.42-0.53c-0.33-0.27-0.49-0.68-0.49-1.2
		c0-0.28,0.05-0.53,0.15-0.75s0.25-0.41,0.44-0.57c0.19-0.16,0.42-0.28,0.69-0.36c0.27-0.08,0.57-0.13,0.9-0.13
		c0.28,0,0.53,0.02,0.74,0.06c0.22,0.04,0.41,0.1,0.59,0.18c0.18,0.08,0.34,0.17,0.48,0.29s0.29,0.24,0.43,0.38l-0.83,0.83
		c-0.17-0.18-0.37-0.32-0.61-0.44s-0.49-0.18-0.77-0.18c-0.31,0-0.53,0.06-0.67,0.17c-0.14,0.11-0.2,0.25-0.2,0.43
		c0,0.19,0.06,0.34,0.17,0.43c0.11,0.1,0.31,0.17,0.58,0.21l0.58,0.08c1.24,0.18,1.86,0.74,1.86,1.69c0,0.28-0.06,0.53-0.17,0.76
		c-0.11,0.23-0.27,0.43-0.48,0.59s-0.45,0.29-0.74,0.39C114.4,21.49,114.07,21.54,113.71,21.54z"/>
	<path class="st0" d="M118.07,21.53c-0.3,0-0.52-0.08-0.67-0.23c-0.14-0.15-0.21-0.34-0.21-0.58v-0.2c0-0.23,0.07-0.43,0.21-0.58
		c0.14-0.15,0.36-0.23,0.67-0.23c0.31,0,0.53,0.08,0.67,0.23c0.14,0.15,0.21,0.35,0.21,0.58v0.2c0,0.23-0.07,0.43-0.21,0.58
		C118.6,21.45,118.38,21.53,118.07,21.53z"/>
	<path class="st0" d="M126.23,21.54c-0.51,0-0.96-0.08-1.38-0.25c-0.41-0.17-0.76-0.42-1.05-0.76c-0.29-0.34-0.51-0.75-0.68-1.24
		c-0.16-0.49-0.24-1.06-0.24-1.72c0-0.65,0.08-1.22,0.24-1.71c0.16-0.5,0.39-0.91,0.68-1.25c0.29-0.34,0.64-0.59,1.05-0.76
		c0.41-0.17,0.87-0.25,1.38-0.25s0.96,0.08,1.38,0.25c0.41,0.17,0.76,0.42,1.06,0.76c0.29,0.34,0.52,0.75,0.68,1.25
		c0.16,0.49,0.24,1.06,0.24,1.71c0,0.65-0.08,1.22-0.24,1.72c-0.16,0.49-0.38,0.91-0.68,1.24c-0.29,0.34-0.65,0.59-1.06,0.76
		C127.2,21.45,126.74,21.54,126.23,21.54z M126.23,20.25c0.55,0,0.99-0.18,1.31-0.55s0.49-0.88,0.49-1.54v-1.19
		c0-0.66-0.16-1.17-0.49-1.54s-0.76-0.55-1.31-0.55s-0.99,0.18-1.31,0.55s-0.49,0.88-0.49,1.54v1.19c0,0.66,0.16,1.17,0.49,1.54
		S125.68,20.25,126.23,20.25z"/>
	<path class="st0" d="M130.96,21.41v-5.74h1.41v0.96h0.06c0.12-0.31,0.3-0.57,0.55-0.78c0.25-0.21,0.6-0.31,1.05-0.31
		c0.59,0,1.05,0.19,1.36,0.58s0.47,0.94,0.47,1.66v3.63h-1.41v-3.49c0-0.41-0.07-0.72-0.22-0.92c-0.15-0.21-0.39-0.31-0.73-0.31
		c-0.15,0-0.29,0.02-0.42,0.06c-0.14,0.04-0.26,0.1-0.36,0.18s-0.19,0.17-0.26,0.29c-0.07,0.11-0.1,0.25-0.1,0.4v3.79H130.96z"/>
	<path class="st0" d="M139.75,21.54c-0.42,0-0.8-0.07-1.14-0.21c-0.33-0.14-0.62-0.34-0.85-0.6c-0.23-0.26-0.41-0.58-0.53-0.95
		c-0.12-0.37-0.19-0.79-0.19-1.25c0-0.45,0.06-0.87,0.18-1.23s0.29-0.68,0.52-0.94c0.23-0.26,0.51-0.46,0.84-0.6s0.7-0.21,1.12-0.21
		c0.45,0,0.84,0.08,1.17,0.23c0.33,0.15,0.6,0.36,0.81,0.63c0.21,0.26,0.37,0.57,0.48,0.92c0.11,0.35,0.16,0.72,0.16,1.12v0.46
		h-3.82v0.14c0,0.42,0.12,0.75,0.35,1c0.23,0.25,0.58,0.38,1.04,0.38c0.35,0,0.64-0.07,0.86-0.22s0.42-0.33,0.6-0.56l0.76,0.85
		c-0.23,0.33-0.56,0.59-0.96,0.78C140.76,21.44,140.29,21.54,139.75,21.54z M139.73,16.59c-0.37,0-0.67,0.12-0.89,0.37
		c-0.22,0.25-0.33,0.57-0.33,0.97v0.09h2.35v-0.1c0-0.4-0.1-0.72-0.29-0.96C140.38,16.71,140.1,16.59,139.73,16.59z"/>
	<path class="st0" d="M146.16,13.27h1.41v4.91h0.06l0.76-1.03l1.29-1.47h1.59l-1.98,2.22l2.19,3.52h-1.67l-1.47-2.57l-0.76,0.83
		v1.75h-1.41V13.27z"/>
	<path class="st0" d="M152.35,21.41v-5.74h1.41v0.96h0.06c0.12-0.31,0.3-0.57,0.55-0.78c0.25-0.21,0.6-0.31,1.05-0.31
		c0.59,0,1.05,0.19,1.36,0.58s0.47,0.94,0.47,1.66v3.63h-1.41v-3.49c0-0.41-0.07-0.72-0.22-0.92c-0.15-0.21-0.39-0.31-0.73-0.31
		c-0.15,0-0.29,0.02-0.42,0.06c-0.14,0.04-0.26,0.1-0.36,0.18s-0.19,0.17-0.26,0.29c-0.07,0.11-0.1,0.25-0.1,0.4v3.79H152.35z"/>
	<path class="st0" d="M161.09,21.54c-0.41,0-0.78-0.07-1.11-0.21s-0.6-0.34-0.84-0.6c-0.23-0.26-0.41-0.58-0.53-0.95
		c-0.12-0.37-0.19-0.79-0.19-1.25c0-0.46,0.06-0.88,0.19-1.24c0.12-0.37,0.3-0.68,0.53-0.94c0.23-0.26,0.51-0.46,0.84-0.6
		c0.33-0.14,0.7-0.21,1.11-0.21c0.41,0,0.78,0.07,1.11,0.21c0.33,0.14,0.61,0.34,0.84,0.6c0.23,0.26,0.41,0.57,0.53,0.94
		c0.12,0.37,0.19,0.78,0.19,1.24c0,0.46-0.06,0.88-0.19,1.25c-0.12,0.37-0.3,0.69-0.53,0.95c-0.23,0.26-0.51,0.47-0.84,0.6
		S161.5,21.54,161.09,21.54z M161.09,20.4c0.37,0,0.67-0.11,0.88-0.34c0.21-0.23,0.32-0.56,0.32-1V18c0-0.43-0.11-0.76-0.32-0.99
		c-0.21-0.23-0.51-0.34-0.88-0.34c-0.37,0-0.66,0.11-0.87,0.34c-0.21,0.23-0.32,0.56-0.32,0.99v1.07c0,0.44,0.11,0.77,0.32,1
		C160.43,20.29,160.72,20.4,161.09,20.4z"/>
	<path class="st0" d="M164.35,15.66h1.35l0.58,2.37l0.45,1.97h0.04l0.53-1.97l0.67-2.37h1.28l0.69,2.37l0.54,1.97h0.04l0.45-1.97
		l0.57-2.37h1.31l-1.57,5.74h-1.52l-0.74-2.53l-0.43-1.56h-0.03l-0.42,1.56l-0.73,2.53h-1.5L164.35,15.66z"/>
	<path class="st0" d="M173.92,21.41v-5.74h1.41v0.96h0.06c0.12-0.31,0.3-0.57,0.55-0.78c0.25-0.21,0.6-0.31,1.05-0.31
		c0.59,0,1.05,0.19,1.36,0.58s0.47,0.94,0.47,1.66v3.63h-1.41v-3.49c0-0.41-0.07-0.72-0.22-0.92c-0.15-0.21-0.39-0.31-0.73-0.31
		c-0.15,0-0.29,0.02-0.42,0.06c-0.14,0.04-0.26,0.1-0.36,0.18s-0.19,0.17-0.26,0.29c-0.07,0.11-0.1,0.25-0.1,0.4v3.79H173.92z"/>
	<path class="st0" d="M2.33,34.61c-0.48,0-0.85-0.13-1.11-0.38c-0.25-0.25-0.38-0.61-0.38-1.08V30H0v-1.13h0.44
		c0.21,0,0.36-0.05,0.43-0.15c0.08-0.1,0.12-0.25,0.12-0.45v-0.98h1.27v1.57h1.18V30H2.25v3.48h1.09v1.13H2.33z"/>
	<path class="st0" d="M4.65,34.61v-5.74h1.41v1.19h0.06c0.04-0.15,0.09-0.3,0.17-0.45s0.18-0.27,0.3-0.38s0.27-0.2,0.45-0.26
		c0.17-0.07,0.37-0.1,0.6-0.1h0.31v1.33H7.5c-0.48,0-0.84,0.07-1.08,0.21c-0.24,0.14-0.36,0.37-0.36,0.68v3.52H4.65z"/>
	<path class="st0" d="M9.68,28.03c-0.29,0-0.5-0.07-0.63-0.2c-0.13-0.13-0.19-0.3-0.19-0.51V27.1c0-0.21,0.06-0.37,0.19-0.51
		c0.13-0.13,0.34-0.2,0.63-0.2c0.29,0,0.5,0.07,0.63,0.2c0.13,0.13,0.2,0.3,0.2,0.51v0.22c0,0.21-0.07,0.37-0.2,0.51
		C10.17,27.96,9.97,28.03,9.68,28.03z M8.98,28.86h1.41v5.74H8.98V28.86z"/>
	<path class="st0" d="M12.01,26.47h1.41v3.34h0.04c0.1-0.33,0.3-0.59,0.58-0.79c0.29-0.19,0.62-0.29,1-0.29
		c0.73,0,1.29,0.26,1.68,0.78s0.58,1.26,0.58,2.22c0,0.97-0.19,1.71-0.58,2.23s-0.94,0.78-1.68,0.78c-0.38,0-0.71-0.1-1-0.3
		c-0.28-0.2-0.48-0.46-0.59-0.79h-0.04v0.96h-1.41V26.47z M14.6,33.57c0.37,0,0.66-0.12,0.89-0.36s0.34-0.57,0.34-0.98v-0.99
		c0-0.41-0.11-0.74-0.34-0.98c-0.23-0.25-0.52-0.37-0.89-0.37c-0.34,0-0.62,0.08-0.84,0.25c-0.22,0.17-0.34,0.39-0.34,0.67v1.83
		c0,0.3,0.11,0.53,0.34,0.69S14.26,33.57,14.6,33.57z"/>
	<path class="st0" d="M20.93,34.74c-0.42,0-0.8-0.07-1.14-0.21c-0.33-0.14-0.62-0.34-0.85-0.6c-0.23-0.26-0.41-0.58-0.53-0.95
		c-0.12-0.37-0.19-0.79-0.19-1.25c0-0.45,0.06-0.87,0.18-1.23s0.29-0.68,0.52-0.94c0.23-0.26,0.51-0.46,0.84-0.6s0.7-0.21,1.12-0.21
		c0.45,0,0.84,0.08,1.17,0.23c0.33,0.15,0.6,0.36,0.81,0.63c0.21,0.26,0.37,0.57,0.48,0.92c0.11,0.35,0.16,0.72,0.16,1.12v0.46
		h-3.82v0.14c0,0.42,0.12,0.75,0.35,1c0.23,0.25,0.58,0.38,1.04,0.38c0.35,0,0.64-0.07,0.86-0.22s0.42-0.33,0.6-0.56l0.76,0.85
		c-0.23,0.33-0.56,0.59-0.96,0.78C21.94,34.64,21.47,34.74,20.93,34.74z M20.91,29.79c-0.37,0-0.67,0.12-0.89,0.37
		c-0.22,0.25-0.33,0.57-0.33,0.97v0.09h2.35v-0.1c0-0.4-0.1-0.72-0.29-0.96C21.56,29.91,21.28,29.79,20.91,29.79z"/>
	<path class="st0" d="M28.05,28.03c-0.29,0-0.5-0.07-0.63-0.2c-0.13-0.13-0.19-0.3-0.19-0.51V27.1c0-0.21,0.06-0.37,0.19-0.51
		c0.13-0.13,0.34-0.2,0.63-0.2c0.29,0,0.5,0.07,0.63,0.2c0.13,0.13,0.2,0.3,0.2,0.51v0.22c0,0.21-0.07,0.37-0.2,0.51
		C28.54,27.96,28.33,28.03,28.05,28.03z M27.35,28.86h1.41v5.74h-1.41V28.86z"/>
	<path class="st0" d="M32.26,34.74c-0.55,0-1.01-0.09-1.39-0.28s-0.7-0.45-0.99-0.78l0.86-0.84c0.21,0.24,0.45,0.43,0.7,0.57
		c0.25,0.14,0.54,0.21,0.87,0.21c0.34,0,0.58-0.06,0.73-0.18c0.15-0.12,0.23-0.28,0.23-0.48c0-0.17-0.05-0.3-0.16-0.4
		c-0.11-0.1-0.29-0.17-0.54-0.2L32,32.29c-0.62-0.08-1.1-0.26-1.42-0.53c-0.33-0.27-0.49-0.68-0.49-1.2c0-0.28,0.05-0.53,0.15-0.75
		s0.25-0.41,0.44-0.57c0.19-0.16,0.42-0.28,0.69-0.36c0.27-0.08,0.57-0.13,0.9-0.13c0.28,0,0.53,0.02,0.74,0.06
		c0.22,0.04,0.41,0.1,0.59,0.18c0.18,0.08,0.34,0.17,0.48,0.29s0.29,0.24,0.43,0.38l-0.83,0.83c-0.17-0.18-0.37-0.32-0.61-0.44
		s-0.49-0.18-0.77-0.18c-0.31,0-0.53,0.06-0.67,0.17c-0.14,0.11-0.2,0.25-0.2,0.43c0,0.19,0.06,0.34,0.17,0.43
		c0.11,0.1,0.31,0.17,0.58,0.21l0.58,0.08c1.24,0.18,1.86,0.74,1.86,1.69c0,0.28-0.06,0.53-0.17,0.76
		c-0.11,0.23-0.27,0.43-0.48,0.59s-0.45,0.29-0.74,0.39C32.95,34.69,32.62,34.74,32.26,34.74z"/>
	<path class="st0" d="M40.26,34.61c-0.48,0-0.85-0.13-1.11-0.38c-0.25-0.25-0.38-0.61-0.38-1.08V30h-0.85v-1.13h0.44
		c0.21,0,0.36-0.05,0.43-0.15c0.08-0.1,0.12-0.25,0.12-0.45v-0.98h1.27v1.57h1.18V30h-1.18v3.48h1.09v1.13H40.26z"/>
	<path class="st0" d="M42.58,26.47h1.41v3.35h0.06c0.12-0.31,0.3-0.57,0.55-0.78c0.25-0.21,0.6-0.31,1.05-0.31
		c0.59,0,1.05,0.19,1.36,0.58s0.47,0.94,0.47,1.66v3.63h-1.41v-3.49c0-0.41-0.07-0.72-0.22-0.92c-0.15-0.21-0.39-0.31-0.73-0.31
		c-0.15,0-0.29,0.02-0.42,0.06c-0.14,0.04-0.26,0.1-0.36,0.18s-0.19,0.17-0.26,0.29c-0.07,0.11-0.1,0.25-0.1,0.4v3.79h-1.41V26.47z"
		/>
	<path class="st0" d="M51.37,34.74c-0.42,0-0.8-0.07-1.14-0.21c-0.33-0.14-0.62-0.34-0.85-0.6c-0.23-0.26-0.41-0.58-0.53-0.95
		c-0.12-0.37-0.19-0.79-0.19-1.25c0-0.45,0.06-0.87,0.18-1.23s0.29-0.68,0.52-0.94c0.23-0.26,0.51-0.46,0.84-0.6s0.7-0.21,1.12-0.21
		c0.45,0,0.84,0.08,1.17,0.23c0.33,0.15,0.6,0.36,0.81,0.63c0.21,0.26,0.37,0.57,0.48,0.92c0.11,0.35,0.16,0.72,0.16,1.12v0.46
		h-3.82v0.14c0,0.42,0.12,0.75,0.35,1c0.23,0.25,0.58,0.38,1.04,0.38c0.35,0,0.64-0.07,0.86-0.22s0.42-0.33,0.6-0.56l0.76,0.85
		c-0.23,0.33-0.56,0.59-0.96,0.78C52.38,34.64,51.9,34.74,51.37,34.74z M51.35,29.79c-0.37,0-0.67,0.12-0.89,0.37
		c-0.22,0.25-0.33,0.57-0.33,0.97v0.09h2.35v-0.1c0-0.4-0.1-0.72-0.29-0.96C51.99,29.91,51.71,29.79,51.35,29.79z"/>
	<path class="st0" d="M59.58,34.61c-0.48,0-0.85-0.13-1.11-0.38c-0.25-0.25-0.38-0.61-0.38-1.08V30h-0.85v-1.13h0.44
		c0.21,0,0.36-0.05,0.43-0.15c0.08-0.1,0.12-0.25,0.12-0.45v-0.98h1.27v1.57h1.18V30H59.5v3.48h1.09v1.13H59.58z"/>
	<path class="st0" d="M61.9,34.61v-5.74h1.41v1.19h0.06c0.04-0.15,0.09-0.3,0.17-0.45s0.18-0.27,0.3-0.38s0.27-0.2,0.45-0.26
		c0.17-0.07,0.37-0.1,0.6-0.1h0.31v1.33h-0.44c-0.48,0-0.84,0.07-1.08,0.21c-0.24,0.14-0.36,0.37-0.36,0.68v3.52H61.9z"/>
	<path class="st0" d="M66.92,28.03c-0.29,0-0.5-0.07-0.63-0.2c-0.13-0.13-0.19-0.3-0.19-0.51V27.1c0-0.21,0.06-0.37,0.19-0.51
		c0.13-0.13,0.34-0.2,0.63-0.2c0.29,0,0.5,0.07,0.63,0.2c0.13,0.13,0.2,0.3,0.2,0.51v0.22c0,0.21-0.07,0.37-0.2,0.51
		C67.42,27.96,67.21,28.03,66.92,28.03z M66.22,28.86h1.41v5.74h-1.41V28.86z"/>
	<path class="st0" d="M69.26,26.47h1.41v3.34h0.04c0.1-0.33,0.3-0.59,0.58-0.79c0.29-0.19,0.62-0.29,1-0.29
		c0.73,0,1.29,0.26,1.68,0.78s0.58,1.26,0.58,2.22c0,0.97-0.19,1.71-0.58,2.23s-0.94,0.78-1.68,0.78c-0.38,0-0.71-0.1-1-0.3
		c-0.28-0.2-0.48-0.46-0.59-0.79h-0.04v0.96h-1.41V26.47z M71.84,33.57c0.37,0,0.66-0.12,0.89-0.36s0.34-0.57,0.34-0.98v-0.99
		c0-0.41-0.11-0.74-0.34-0.98c-0.23-0.25-0.52-0.37-0.89-0.37c-0.34,0-0.62,0.08-0.84,0.25c-0.22,0.17-0.34,0.39-0.34,0.67v1.83
		c0,0.3,0.11,0.53,0.34,0.69S71.5,33.57,71.84,33.57z"/>
	<path class="st0" d="M78.18,34.74c-0.42,0-0.8-0.07-1.14-0.21c-0.33-0.14-0.62-0.34-0.85-0.6c-0.23-0.26-0.41-0.58-0.53-0.95
		c-0.12-0.37-0.19-0.79-0.19-1.25c0-0.45,0.06-0.87,0.18-1.23s0.29-0.68,0.52-0.94c0.23-0.26,0.51-0.46,0.84-0.6s0.7-0.21,1.12-0.21
		c0.45,0,0.84,0.08,1.17,0.23c0.33,0.15,0.6,0.36,0.81,0.63c0.21,0.26,0.37,0.57,0.48,0.92c0.11,0.35,0.16,0.72,0.16,1.12v0.46
		h-3.82v0.14c0,0.42,0.12,0.75,0.35,1c0.23,0.25,0.58,0.38,1.04,0.38c0.35,0,0.64-0.07,0.86-0.22s0.42-0.33,0.6-0.56l0.76,0.85
		c-0.23,0.33-0.56,0.59-0.96,0.78C79.18,34.64,78.71,34.74,78.18,34.74z M78.15,29.79c-0.37,0-0.67,0.12-0.89,0.37
		c-0.22,0.25-0.33,0.57-0.33,0.97v0.09h2.35v-0.1c0-0.4-0.1-0.72-0.29-0.96C78.8,29.91,78.52,29.79,78.15,29.79z"/>
	<path class="st0" d="M89.43,34.61l-0.62-1.96h-2.73l-0.6,1.96h-1.47l2.57-7.68h1.8l2.55,7.68H89.43z M87.47,28.25h-0.06l-0.98,3.16
		h2.02L87.47,28.25z"/>
	<path class="st0" d="M91.98,26.47h1.41v3.35h0.06c0.12-0.31,0.3-0.57,0.55-0.78c0.25-0.21,0.6-0.31,1.05-0.31
		c0.59,0,1.05,0.19,1.36,0.58s0.47,0.94,0.47,1.66v3.63h-1.41v-3.49c0-0.41-0.07-0.72-0.22-0.92c-0.15-0.21-0.39-0.31-0.73-0.31
		c-0.15,0-0.29,0.02-0.42,0.06c-0.14,0.04-0.26,0.1-0.36,0.18s-0.19,0.17-0.26,0.29c-0.07,0.11-0.1,0.25-0.1,0.4v3.79h-1.41V26.47z"
		/>
	<path class="st0" d="M97.82,28.86h1.35l0.58,2.37l0.45,1.97h0.04l0.53-1.97l0.67-2.37h1.28l0.69,2.37l0.54,1.97H104l0.45-1.97
		l0.57-2.37h1.31l-1.57,5.74h-1.52l-0.74-2.53l-0.43-1.56h-0.03l-0.42,1.56l-0.73,2.53h-1.5L97.82,28.86z"/>
	<path class="st0" d="M111.47,34.61c-0.31,0-0.55-0.09-0.73-0.27s-0.29-0.42-0.34-0.72h-0.07c-0.1,0.37-0.29,0.65-0.58,0.84
		c-0.29,0.19-0.66,0.28-1.09,0.28c-0.59,0-1.04-0.15-1.35-0.46c-0.32-0.31-0.47-0.72-0.47-1.23c0-0.59,0.21-1.03,0.64-1.32
		s1.03-0.43,1.82-0.43h0.98v-0.42c0-0.32-0.08-0.57-0.25-0.75c-0.17-0.18-0.44-0.26-0.81-0.26c-0.33,0-0.6,0.07-0.8,0.21
		c-0.2,0.14-0.37,0.31-0.51,0.51l-0.84-0.75c0.21-0.33,0.5-0.6,0.85-0.8c0.35-0.2,0.82-0.3,1.4-0.3c0.78,0,1.37,0.18,1.77,0.53
		s0.61,0.86,0.61,1.51v2.7h0.57v1.13H111.47z M109.14,33.71c0.32,0,0.58-0.07,0.8-0.21c0.22-0.14,0.33-0.34,0.33-0.61v-0.75h-0.9
		c-0.73,0-1.1,0.23-1.1,0.7v0.19c0,0.23,0.08,0.41,0.23,0.52S108.86,33.71,109.14,33.71z"/>
	<path class="st0" d="M113.4,26.47h1.41v3.35h0.06c0.12-0.31,0.3-0.57,0.55-0.78c0.25-0.21,0.6-0.31,1.05-0.31
		c0.59,0,1.05,0.19,1.36,0.58s0.47,0.94,0.47,1.66v3.63h-1.41v-3.49c0-0.41-0.07-0.72-0.22-0.92c-0.15-0.21-0.39-0.31-0.73-0.31
		c-0.15,0-0.29,0.02-0.42,0.06c-0.14,0.04-0.26,0.1-0.36,0.18s-0.19,0.17-0.26,0.29c-0.07,0.11-0.1,0.25-0.1,0.4v3.79h-1.41V26.47z"
		/>
	<path class="st0" d="M119.86,34.61v-5.74h1.41v0.96h0.06c0.12-0.31,0.3-0.57,0.55-0.78c0.25-0.21,0.6-0.31,1.05-0.31
		c0.59,0,1.05,0.19,1.36,0.58s0.47,0.94,0.47,1.66v3.63h-1.41v-3.49c0-0.41-0.07-0.72-0.22-0.92c-0.15-0.21-0.39-0.31-0.73-0.31
		c-0.15,0-0.29,0.02-0.42,0.06c-0.14,0.04-0.26,0.1-0.36,0.18s-0.19,0.17-0.26,0.29c-0.07,0.11-0.1,0.25-0.1,0.4v3.79H119.86z"/>
	<path class="st0" d="M128.65,34.74c-0.42,0-0.8-0.07-1.14-0.21c-0.33-0.14-0.62-0.34-0.85-0.6c-0.23-0.26-0.41-0.58-0.53-0.95
		c-0.12-0.37-0.19-0.79-0.19-1.25c0-0.45,0.06-0.87,0.18-1.23s0.29-0.68,0.52-0.94c0.23-0.26,0.51-0.46,0.84-0.6s0.7-0.21,1.12-0.21
		c0.45,0,0.84,0.08,1.17,0.23c0.33,0.15,0.6,0.36,0.81,0.63c0.21,0.26,0.37,0.57,0.48,0.92c0.11,0.35,0.16,0.72,0.16,1.12v0.46
		h-3.82v0.14c0,0.42,0.12,0.75,0.35,1c0.23,0.25,0.58,0.38,1.04,0.38c0.35,0,0.64-0.07,0.86-0.22s0.42-0.33,0.6-0.56l0.76,0.85
		c-0.23,0.33-0.56,0.59-0.96,0.78C129.66,34.64,129.19,34.74,128.65,34.74z M128.63,29.79c-0.37,0-0.67,0.12-0.89,0.37
		c-0.22,0.25-0.33,0.57-0.33,0.97v0.09h2.35v-0.1c0-0.4-0.1-0.72-0.29-0.96C129.28,29.91,129,29.79,128.63,29.79z"/>
	<path class="st0" d="M134.79,34.74c-0.42,0-0.8-0.07-1.14-0.21c-0.33-0.14-0.62-0.34-0.85-0.6c-0.23-0.26-0.41-0.58-0.53-0.95
		c-0.12-0.37-0.19-0.79-0.19-1.25c0-0.45,0.06-0.87,0.18-1.23s0.29-0.68,0.52-0.94c0.23-0.26,0.51-0.46,0.84-0.6s0.7-0.21,1.12-0.21
		c0.45,0,0.84,0.08,1.17,0.23c0.33,0.15,0.6,0.36,0.81,0.63c0.21,0.26,0.37,0.57,0.48,0.92c0.11,0.35,0.16,0.72,0.16,1.12v0.46
		h-3.82v0.14c0,0.42,0.12,0.75,0.35,1c0.23,0.25,0.58,0.38,1.04,0.38c0.35,0,0.64-0.07,0.86-0.22s0.42-0.33,0.6-0.56l0.76,0.85
		c-0.23,0.33-0.56,0.59-0.96,0.78C135.8,34.64,135.33,34.74,134.79,34.74z M134.77,29.79c-0.37,0-0.67,0.12-0.89,0.37
		c-0.22,0.25-0.33,0.57-0.33,0.97v0.09h2.35v-0.1c0-0.4-0.1-0.72-0.29-0.96C135.42,29.91,135.13,29.79,134.77,29.79z"/>
	<path class="st0" d="M140.87,34.74c-0.43,0-0.8-0.07-1.13-0.21s-0.61-0.34-0.83-0.6c-0.22-0.26-0.39-0.58-0.51-0.95
		c-0.12-0.37-0.18-0.79-0.18-1.25c0-0.46,0.06-0.88,0.18-1.24c0.12-0.37,0.29-0.68,0.51-0.94s0.5-0.46,0.83-0.6
		c0.33-0.14,0.71-0.21,1.13-0.21c0.58,0,1.06,0.13,1.44,0.39c0.38,0.26,0.65,0.61,0.82,1.07l-1.16,0.52
		c-0.07-0.24-0.19-0.44-0.37-0.6s-0.42-0.24-0.73-0.24c-0.4,0-0.69,0.12-0.89,0.37c-0.19,0.25-0.29,0.58-0.29,0.98v1.05
		c0,0.4,0.1,0.73,0.29,0.97c0.19,0.25,0.49,0.37,0.89,0.37c0.34,0,0.6-0.09,0.78-0.26c0.18-0.17,0.33-0.39,0.43-0.64l1.08,0.52
		c-0.19,0.51-0.48,0.89-0.87,1.14S141.43,34.74,140.87,34.74z"/>
	<path class="st0" d="M144.25,26.47h1.41v3.35h0.06c0.12-0.31,0.3-0.57,0.55-0.78c0.25-0.21,0.6-0.31,1.05-0.31
		c0.59,0,1.05,0.19,1.36,0.58s0.47,0.94,0.47,1.66v3.63h-1.41v-3.49c0-0.41-0.07-0.72-0.22-0.92c-0.15-0.21-0.39-0.31-0.73-0.31
		c-0.15,0-0.29,0.02-0.42,0.06c-0.14,0.04-0.26,0.1-0.36,0.18s-0.19,0.17-0.26,0.29c-0.07,0.11-0.1,0.25-0.1,0.4v3.79h-1.41V26.47z"
		/>
	<path class="st0" d="M153.04,34.74c-0.42,0-0.8-0.07-1.14-0.21c-0.33-0.14-0.62-0.34-0.85-0.6c-0.23-0.26-0.41-0.58-0.53-0.95
		c-0.12-0.37-0.19-0.79-0.19-1.25c0-0.45,0.06-0.87,0.18-1.23s0.29-0.68,0.52-0.94c0.23-0.26,0.51-0.46,0.84-0.6s0.7-0.21,1.12-0.21
		c0.45,0,0.84,0.08,1.17,0.23c0.33,0.15,0.6,0.36,0.81,0.63c0.21,0.26,0.37,0.57,0.48,0.92c0.11,0.35,0.16,0.72,0.16,1.12v0.46
		h-3.82v0.14c0,0.42,0.12,0.75,0.35,1c0.23,0.25,0.58,0.38,1.04,0.38c0.35,0,0.64-0.07,0.86-0.22s0.42-0.33,0.6-0.56l0.76,0.85
		c-0.23,0.33-0.56,0.59-0.96,0.78C154.04,34.64,153.57,34.74,153.04,34.74z M153.02,29.79c-0.37,0-0.67,0.12-0.89,0.37
		c-0.22,0.25-0.33,0.57-0.33,0.97v0.09h2.35v-0.1c0-0.4-0.1-0.72-0.29-0.96C153.66,29.91,153.38,29.79,153.02,29.79z"/>
	<path class="st0" d="M159.18,34.74c-0.42,0-0.8-0.07-1.14-0.21c-0.33-0.14-0.62-0.34-0.85-0.6c-0.23-0.26-0.41-0.58-0.53-0.95
		c-0.12-0.37-0.19-0.79-0.19-1.25c0-0.45,0.06-0.87,0.18-1.23s0.29-0.68,0.52-0.94c0.23-0.26,0.51-0.46,0.84-0.6s0.7-0.21,1.12-0.21
		c0.45,0,0.84,0.08,1.17,0.23c0.33,0.15,0.6,0.36,0.81,0.63c0.21,0.26,0.37,0.57,0.48,0.92c0.11,0.35,0.16,0.72,0.16,1.12v0.46
		h-3.82v0.14c0,0.42,0.12,0.75,0.35,1c0.23,0.25,0.58,0.38,1.04,0.38c0.35,0,0.64-0.07,0.86-0.22s0.42-0.33,0.6-0.56l0.76,0.85
		c-0.23,0.33-0.56,0.59-0.96,0.78C160.18,34.64,159.71,34.74,159.18,34.74z M159.15,29.79c-0.37,0-0.67,0.12-0.89,0.37
		c-0.22,0.25-0.33,0.57-0.33,0.97v0.09h2.35v-0.1c0-0.4-0.1-0.72-0.29-0.96C159.8,29.91,159.52,29.79,159.15,29.79z"/>
	<path class="st0" d="M163.64,34.73c-0.3,0-0.52-0.08-0.67-0.23c-0.14-0.15-0.21-0.34-0.21-0.58v-0.2c0-0.23,0.07-0.43,0.21-0.58
		c0.14-0.15,0.36-0.23,0.67-0.23c0.31,0,0.53,0.08,0.67,0.23c0.14,0.15,0.21,0.35,0.21,0.58v0.2c0,0.23-0.07,0.43-0.21,0.58
		C164.17,34.65,163.95,34.73,163.64,34.73z"/>
</g>
</svg>
