<!-- Generator: Adobe Illustrator 23.1.1, SVG Export Plug-In  -->
<svg version="1.1" xmlns="http://www.w3.org/2000/svg" xmlns:xlink="http://www.w3.org/1999/xlink" x="0px" y="0px"
	 width="186.99px" height="21.54px" viewBox="0 0 186.99 21.54" style="enable-background:new 0 0 186.99 21.54;"
	 xml:space="preserve">
<style type="text/css">
	.st0{fill:#FFFFFF;}
</style>
<defs>
</defs>
<g>
	<path class="st0" d="M3.63,1.81v6.39H2.18V1.81H0V0.53h5.81v1.29H3.63z"/>
	<path class="st0" d="M8.51,8.34c-0.42,0-0.8-0.07-1.14-0.21c-0.33-0.14-0.62-0.34-0.85-0.6C6.3,7.26,6.12,6.94,6,6.57
		C5.87,6.2,5.81,5.79,5.81,5.32c0-0.45,0.06-0.87,0.18-1.23s0.29-0.68,0.52-0.94c0.23-0.26,0.51-0.46,0.84-0.6s0.7-0.21,1.12-0.21
		c0.45,0,0.84,0.08,1.17,0.23c0.33,0.15,0.6,0.36,0.81,0.63c0.21,0.26,0.37,0.57,0.48,0.92c0.11,0.35,0.16,0.72,0.16,1.12v0.46H7.27
		v0.14c0,0.42,0.12,0.75,0.35,1c0.23,0.25,0.58,0.38,1.04,0.38c0.35,0,0.64-0.07,0.86-0.22s0.42-0.33,0.6-0.56l0.76,0.85
		c-0.23,0.33-0.56,0.59-0.96,0.78C9.52,8.24,9.05,8.34,8.51,8.34z M8.49,3.39c-0.37,0-0.67,0.12-0.89,0.37
		C7.38,4.01,7.27,4.33,7.27,4.73v0.09h2.35v-0.1c0-0.4-0.1-0.72-0.29-0.96C9.14,3.51,8.86,3.39,8.49,3.39z"/>
	<path class="st0" d="M15.89,7.25h-0.05c-0.1,0.33-0.3,0.59-0.58,0.79c-0.29,0.2-0.62,0.3-1,0.3c-0.73,0-1.28-0.26-1.67-0.78
		s-0.58-1.27-0.58-2.23c0-0.96,0.19-1.7,0.58-2.22s0.94-0.78,1.67-0.78c0.38,0,0.71,0.1,1,0.29s0.48,0.46,0.58,0.79h0.05V0.07h1.41
		v8.14h-1.41V7.25z M14.71,7.17c0.34,0,0.62-0.08,0.85-0.24s0.34-0.39,0.34-0.69V4.41c0-0.28-0.11-0.5-0.34-0.67
		c-0.23-0.17-0.51-0.25-0.85-0.25c-0.37,0-0.66,0.12-0.89,0.37c-0.22,0.25-0.34,0.57-0.34,0.98v0.99c0,0.41,0.11,0.74,0.34,0.98
		S14.34,7.17,14.71,7.17z"/>
	<path class="st0" d="M22.49,7.25h-0.05c-0.1,0.33-0.3,0.59-0.58,0.79c-0.29,0.2-0.62,0.3-1,0.3c-0.73,0-1.28-0.26-1.67-0.78
		s-0.58-1.27-0.58-2.23c0-0.96,0.19-1.7,0.58-2.22s0.94-0.78,1.67-0.78c0.38,0,0.71,0.1,1,0.29s0.48,0.46,0.58,0.79h0.05V0.07h1.41
		v8.14h-1.41V7.25z M21.31,7.17c0.34,0,0.62-0.08,0.85-0.24s0.34-0.39,0.34-0.69V4.41c0-0.28-0.11-0.5-0.34-0.67
		c-0.23-0.17-0.51-0.25-0.85-0.25c-0.37,0-0.66,0.12-0.89,0.37c-0.22,0.25-0.34,0.57-0.34,0.98v0.99c0,0.41,0.11,0.74,0.34,0.98
		S20.94,7.17,21.31,7.17z"/>
	<path class="st0" d="M29.05,2.46h1.32l-2.31,6.77c-0.07,0.21-0.16,0.38-0.25,0.53c-0.09,0.15-0.2,0.27-0.32,0.37
		c-0.12,0.1-0.28,0.17-0.45,0.21c-0.18,0.04-0.38,0.07-0.62,0.07h-0.85V9.27h1.03l0.26-0.8l-2.06-6.01h1.4l1,3.03l0.37,1.45h0.07
		l0.4-1.45L29.05,2.46z"/>
	<path class="st0" d="M35.43,8.21h-1.45V0.53h3.46c0.35,0,0.67,0.06,0.95,0.17c0.28,0.11,0.51,0.27,0.71,0.48s0.34,0.46,0.45,0.75
		c0.11,0.29,0.16,0.62,0.16,0.98c0,0.53-0.12,0.98-0.36,1.36s-0.6,0.65-1.07,0.81l1.57,3.12h-1.62L36.8,5.25h-1.38V8.21z M37.3,4.03
		c0.28,0,0.5-0.07,0.66-0.23s0.24-0.36,0.24-0.64V2.65c0-0.28-0.08-0.49-0.24-0.64c-0.16-0.15-0.38-0.22-0.66-0.22h-1.87v2.23H37.3z
		"/>
	<path class="st0" d="M43.3,8.34c-0.41,0-0.78-0.07-1.11-0.21s-0.6-0.34-0.84-0.6c-0.23-0.26-0.41-0.58-0.53-0.95
		c-0.12-0.37-0.19-0.79-0.19-1.25c0-0.46,0.06-0.88,0.19-1.24c0.12-0.37,0.3-0.68,0.53-0.94c0.23-0.26,0.51-0.46,0.84-0.6
		c0.33-0.14,0.7-0.21,1.11-0.21c0.41,0,0.78,0.07,1.11,0.21c0.33,0.14,0.61,0.34,0.84,0.6c0.23,0.26,0.41,0.57,0.53,0.94
		c0.12,0.37,0.19,0.78,0.19,1.24c0,0.46-0.06,0.88-0.19,1.25c-0.12,0.37-0.3,0.69-0.53,0.95c-0.23,0.26-0.51,0.47-0.84,0.6
		S43.72,8.34,43.3,8.34z M43.3,7.21c0.37,0,0.67-0.11,0.88-0.34c0.21-0.23,0.32-0.56,0.32-1V4.8c0-0.43-0.11-0.76-0.32-0.99
		c-0.21-0.23-0.51-0.34-0.88-0.34c-0.37,0-0.66,0.11-0.87,0.34c-0.21,0.23-0.32,0.56-0.32,0.99v1.07c0,0.44,0.11,0.77,0.32,1
		C42.65,7.09,42.94,7.21,43.3,7.21z"/>
	<path class="st0" d="M49.5,8.34c-0.41,0-0.78-0.07-1.11-0.21s-0.6-0.34-0.84-0.6c-0.23-0.26-0.41-0.58-0.53-0.95
		c-0.12-0.37-0.19-0.79-0.19-1.25c0-0.46,0.06-0.88,0.19-1.24c0.12-0.37,0.3-0.68,0.53-0.94c0.23-0.26,0.51-0.46,0.84-0.6
		c0.33-0.14,0.7-0.21,1.11-0.21c0.41,0,0.78,0.07,1.11,0.21c0.33,0.14,0.61,0.34,0.84,0.6c0.23,0.26,0.41,0.57,0.53,0.94
		c0.12,0.37,0.19,0.78,0.19,1.24c0,0.46-0.06,0.88-0.19,1.25c-0.12,0.37-0.3,0.69-0.53,0.95c-0.23,0.26-0.51,0.47-0.84,0.6
		S49.91,8.34,49.5,8.34z M49.5,7.21c0.37,0,0.67-0.11,0.88-0.34c0.21-0.23,0.32-0.56,0.32-1V4.8c0-0.43-0.11-0.76-0.32-0.99
		c-0.21-0.23-0.51-0.34-0.88-0.34c-0.37,0-0.66,0.11-0.87,0.34c-0.21,0.23-0.32,0.56-0.32,0.99v1.07c0,0.44,0.11,0.77,0.32,1
		C48.84,7.09,49.13,7.21,49.5,7.21z"/>
	<path class="st0" d="M55.29,8.34c-0.55,0-1.01-0.09-1.39-0.28s-0.7-0.45-0.99-0.78l0.86-0.84c0.21,0.24,0.45,0.43,0.7,0.57
		c0.25,0.14,0.54,0.21,0.87,0.21c0.34,0,0.58-0.06,0.73-0.18c0.15-0.12,0.23-0.28,0.23-0.48c0-0.17-0.05-0.3-0.16-0.4
		c-0.11-0.1-0.29-0.17-0.54-0.2l-0.57-0.08c-0.62-0.08-1.1-0.26-1.42-0.53c-0.33-0.27-0.49-0.68-0.49-1.2
		c0-0.28,0.05-0.53,0.15-0.75s0.25-0.41,0.44-0.57c0.19-0.16,0.42-0.28,0.69-0.36c0.27-0.08,0.57-0.13,0.9-0.13
		c0.28,0,0.53,0.02,0.74,0.06c0.22,0.04,0.41,0.1,0.59,0.18c0.18,0.08,0.34,0.17,0.48,0.29s0.29,0.24,0.43,0.38l-0.83,0.83
		c-0.17-0.18-0.37-0.32-0.61-0.44s-0.49-0.18-0.77-0.18c-0.31,0-0.53,0.06-0.67,0.17c-0.14,0.11-0.2,0.25-0.2,0.43
		c0,0.19,0.06,0.34,0.17,0.43c0.11,0.1,0.31,0.17,0.58,0.21l0.58,0.08c1.24,0.18,1.86,0.74,1.86,1.69c0,0.28-0.06,0.53-0.17,0.76
		c-0.11,0.23-0.27,0.43-0.48,0.59s-0.45,0.29-0.74,0.39C55.98,8.29,55.65,8.34,55.29,8.34z"/>
	<path class="st0" d="M61.22,8.34c-0.42,0-0.8-0.07-1.14-0.21c-0.33-0.14-0.62-0.34-0.85-0.6c-0.23-0.26-0.41-0.58-0.53-0.95
		c-0.12-0.37-0.19-0.79-0.19-1.25c0-0.45,0.06-0.87,0.18-1.23s0.29-0.68,0.52-0.94c0.23-0.26,0.51-0.46,0.84-0.6s0.7-0.21,1.12-0.21
		c0.45,0,0.84,0.08,1.17,0.23c0.33,0.15,0.6,0.36,0.81,0.63c0.21,0.26,0.37,0.57,0.48,0.92c0.11,0.35,0.16,0.72,0.16,1.12v0.46
		h-3.82v0.14c0,0.42,0.12,0.75,0.35,1c0.23,0.25,0.58,0.38,1.04,0.38c0.35,0,0.64-0.07,0.86-0.22s0.42-0.33,0.6-0.56l0.76,0.85
		c-0.23,0.33-0.56,0.59-0.96,0.78C62.23,8.24,61.76,8.34,61.22,8.34z M61.2,3.39c-0.37,0-0.67,0.12-0.89,0.37
		c-0.22,0.25-0.33,0.57-0.33,0.97v0.09h2.35v-0.1c0-0.4-0.1-0.72-0.29-0.96C61.85,3.51,61.57,3.39,61.2,3.39z"/>
	<path class="st0" d="M66.17,8.21l-1.91-5.74h1.39l0.8,2.48l0.56,2.05h0.08l0.56-2.05l0.78-2.48h1.34l-1.92,5.74H66.17z"/>
	<path class="st0" d="M72.94,8.34c-0.42,0-0.8-0.07-1.14-0.21c-0.33-0.14-0.62-0.34-0.85-0.6c-0.23-0.26-0.41-0.58-0.53-0.95
		c-0.12-0.37-0.19-0.79-0.19-1.25c0-0.45,0.06-0.87,0.18-1.23s0.29-0.68,0.52-0.94c0.23-0.26,0.51-0.46,0.84-0.6s0.7-0.21,1.12-0.21
		c0.45,0,0.84,0.08,1.17,0.23c0.33,0.15,0.6,0.36,0.81,0.63c0.21,0.26,0.37,0.57,0.48,0.92c0.11,0.35,0.16,0.72,0.16,1.12v0.46H71.7
		v0.14c0,0.42,0.12,0.75,0.35,1c0.23,0.25,0.58,0.38,1.04,0.38c0.35,0,0.64-0.07,0.86-0.22s0.42-0.33,0.6-0.56l0.76,0.85
		c-0.23,0.33-0.56,0.59-0.96,0.78C73.95,8.24,73.47,8.34,72.94,8.34z M72.92,3.39c-0.37,0-0.67,0.12-0.89,0.37
		c-0.22,0.25-0.33,0.57-0.33,0.97v0.09h2.35v-0.1c0-0.4-0.1-0.72-0.29-0.96C73.56,3.51,73.28,3.39,72.92,3.39z"/>
	<path class="st0" d="M78.16,8.21c-0.48,0-0.84-0.12-1.07-0.36c-0.23-0.24-0.34-0.58-0.34-1.02V0.07h1.41v7.01h0.76v1.13H78.16z"/>
	<path class="st0" d="M81.73,8.21c-0.48,0-0.85-0.13-1.11-0.38c-0.25-0.25-0.38-0.61-0.38-1.08V3.6H79.4V2.46h0.44
		c0.21,0,0.36-0.05,0.43-0.15c0.08-0.1,0.12-0.25,0.12-0.45V0.89h1.27v1.57h1.18V3.6h-1.18v3.48h1.09v1.13H81.73z"/>
	<path class="st0" d="M87.88,8.21l-1.91-5.74h1.39l0.8,2.48l0.56,2.05h0.08l0.56-2.05l0.78-2.48h1.34l-1.92,5.74H87.88z"/>
	<path class="st0" d="M93.11,1.63c-0.29,0-0.5-0.07-0.63-0.2c-0.13-0.13-0.19-0.3-0.19-0.51V0.7c0-0.21,0.06-0.37,0.19-0.51
		C92.61,0.07,92.82,0,93.11,0c0.29,0,0.5,0.07,0.63,0.2c0.13,0.13,0.2,0.3,0.2,0.51v0.22c0,0.21-0.07,0.37-0.2,0.51
		C93.61,1.56,93.4,1.63,93.11,1.63z M92.41,2.46h1.41v5.74h-1.41V2.46z"/>
	<path class="st0" d="M97.33,8.34c-0.55,0-1.01-0.09-1.39-0.28s-0.7-0.45-0.99-0.78l0.86-0.84c0.21,0.24,0.45,0.43,0.7,0.57
		c0.25,0.14,0.54,0.21,0.87,0.21c0.34,0,0.58-0.06,0.73-0.18c0.15-0.12,0.23-0.28,0.23-0.48c0-0.17-0.05-0.3-0.16-0.4
		c-0.11-0.1-0.29-0.17-0.54-0.2l-0.57-0.08c-0.62-0.08-1.1-0.26-1.42-0.53c-0.33-0.27-0.49-0.68-0.49-1.2
		c0-0.28,0.05-0.53,0.15-0.75s0.25-0.41,0.44-0.57c0.19-0.16,0.42-0.28,0.69-0.36c0.27-0.08,0.57-0.13,0.9-0.13
		c0.28,0,0.53,0.02,0.74,0.06c0.22,0.04,0.41,0.1,0.59,0.18c0.18,0.08,0.34,0.17,0.48,0.29s0.29,0.24,0.43,0.38l-0.83,0.83
		c-0.17-0.18-0.37-0.32-0.61-0.44s-0.49-0.18-0.77-0.18c-0.31,0-0.53,0.06-0.67,0.17c-0.14,0.11-0.2,0.25-0.2,0.43
		c0,0.19,0.06,0.34,0.17,0.43c0.11,0.1,0.31,0.17,0.58,0.21l0.58,0.08c1.24,0.18,1.86,0.74,1.86,1.69c0,0.28-0.06,0.53-0.17,0.76
		c-0.11,0.23-0.27,0.43-0.48,0.59S98.59,8.11,98.3,8.2C98.01,8.29,97.69,8.34,97.33,8.34z"/>
	<path class="st0" d="M101.64,1.63c-0.29,0-0.5-0.07-0.63-0.2c-0.13-0.13-0.19-0.3-0.19-0.51V0.7c0-0.21,0.06-0.37,0.19-0.51
		c0.13-0.13,0.34-0.2,0.63-0.2c0.29,0,0.5,0.07,0.63,0.2c0.13,0.13,0.2,0.3,0.2,0.51v0.22c0,0.21-0.07,0.37-0.2,0.51
		C102.13,1.56,101.92,1.63,101.64,1.63z M100.93,2.46h1.41v5.74h-1.41V2.46z"/>
	<path class="st0" d="M105.76,8.21c-0.48,0-0.85-0.13-1.11-0.38c-0.25-0.25-0.38-0.61-0.38-1.08V3.6h-0.85V2.46h0.44
		c0.21,0,0.36-0.05,0.43-0.15c0.08-0.1,0.12-0.25,0.12-0.45V0.89h1.27v1.57h1.18V3.6h-1.18v3.48h1.09v1.13H105.76z"/>
	<path class="st0" d="M109.97,8.34c-0.55,0-1.01-0.09-1.39-0.28s-0.7-0.45-0.99-0.78l0.86-0.84c0.21,0.24,0.45,0.43,0.7,0.57
		c0.25,0.14,0.54,0.21,0.87,0.21c0.34,0,0.58-0.06,0.73-0.18c0.15-0.12,0.23-0.28,0.23-0.48c0-0.17-0.05-0.3-0.16-0.4
		c-0.11-0.1-0.29-0.17-0.54-0.2l-0.57-0.08c-0.62-0.08-1.1-0.26-1.42-0.53c-0.33-0.27-0.49-0.68-0.49-1.2
		c0-0.28,0.05-0.53,0.15-0.75s0.25-0.41,0.44-0.57c0.19-0.16,0.42-0.28,0.69-0.36c0.27-0.08,0.57-0.13,0.9-0.13
		c0.28,0,0.53,0.02,0.74,0.06c0.22,0.04,0.41,0.1,0.59,0.18c0.18,0.08,0.34,0.17,0.48,0.29s0.29,0.24,0.43,0.38l-0.83,0.83
		c-0.17-0.18-0.37-0.32-0.61-0.44s-0.49-0.18-0.77-0.18c-0.31,0-0.53,0.06-0.67,0.17c-0.14,0.11-0.2,0.25-0.2,0.43
		c0,0.19,0.06,0.34,0.17,0.43c0.11,0.1,0.31,0.17,0.58,0.21l0.58,0.08c1.24,0.18,1.86,0.74,1.86,1.69c0,0.28-0.06,0.53-0.17,0.76
		c-0.11,0.23-0.27,0.43-0.48,0.59s-0.45,0.29-0.74,0.39C110.65,8.29,110.33,8.34,109.97,8.34z"/>
	<path class="st0" d="M118.09,8.21V5.19l-2.63-4.66h1.63l1.77,3.25h0.02l1.73-3.25h1.58l-2.64,4.65v3.02H118.09z"/>
	<path class="st0" d="M124.77,8.34c-0.41,0-0.78-0.07-1.11-0.21s-0.6-0.34-0.84-0.6c-0.23-0.26-0.41-0.58-0.53-0.95
		c-0.12-0.37-0.19-0.79-0.19-1.25c0-0.46,0.06-0.88,0.19-1.24c0.12-0.37,0.3-0.68,0.53-0.94c0.23-0.26,0.51-0.46,0.84-0.6
		c0.33-0.14,0.7-0.21,1.11-0.21c0.41,0,0.78,0.07,1.11,0.21c0.33,0.14,0.61,0.34,0.84,0.6c0.23,0.26,0.41,0.57,0.53,0.94
		c0.12,0.37,0.19,0.78,0.19,1.24c0,0.46-0.06,0.88-0.19,1.25c-0.12,0.37-0.3,0.69-0.53,0.95c-0.23,0.26-0.51,0.47-0.84,0.6
		S125.18,8.34,124.77,8.34z M124.77,7.21c0.37,0,0.67-0.11,0.88-0.34c0.21-0.23,0.32-0.56,0.32-1V4.8c0-0.43-0.11-0.76-0.32-0.99
		c-0.21-0.23-0.51-0.34-0.88-0.34c-0.37,0-0.66,0.11-0.87,0.34c-0.21,0.23-0.32,0.56-0.32,0.99v1.07c0,0.44,0.11,0.77,0.32,1
		C124.12,7.09,124.41,7.21,124.77,7.21z"/>
	<path class="st0" d="M130.57,8.34c-0.55,0-1.01-0.09-1.39-0.28s-0.7-0.45-0.99-0.78l0.86-0.84c0.21,0.24,0.45,0.43,0.7,0.57
		c0.25,0.14,0.54,0.21,0.87,0.21c0.34,0,0.58-0.06,0.73-0.18c0.15-0.12,0.23-0.28,0.23-0.48c0-0.17-0.05-0.3-0.16-0.4
		c-0.11-0.1-0.29-0.17-0.54-0.2l-0.57-0.08c-0.62-0.08-1.1-0.26-1.42-0.53c-0.33-0.27-0.49-0.68-0.49-1.2
		c0-0.28,0.05-0.53,0.15-0.75s0.25-0.41,0.44-0.57c0.19-0.16,0.42-0.28,0.69-0.36c0.27-0.08,0.57-0.13,0.9-0.13
		c0.28,0,0.53,0.02,0.74,0.06c0.22,0.04,0.41,0.1,0.59,0.18c0.18,0.08,0.34,0.17,0.48,0.29s0.29,0.24,0.43,0.38l-0.83,0.83
		c-0.17-0.18-0.37-0.32-0.61-0.44s-0.49-0.18-0.77-0.18c-0.31,0-0.53,0.06-0.67,0.17c-0.14,0.11-0.2,0.25-0.2,0.43
		c0,0.19,0.06,0.34,0.17,0.43c0.11,0.1,0.31,0.17,0.58,0.21l0.58,0.08c1.24,0.18,1.86,0.74,1.86,1.69c0,0.28-0.06,0.53-0.17,0.76
		c-0.11,0.23-0.27,0.43-0.48,0.59s-0.45,0.29-0.74,0.39C131.25,8.29,130.93,8.34,130.57,8.34z"/>
	<path class="st0" d="M136.5,8.34c-0.42,0-0.8-0.07-1.14-0.21c-0.33-0.14-0.62-0.34-0.85-0.6c-0.23-0.26-0.41-0.58-0.53-0.95
		c-0.12-0.37-0.19-0.79-0.19-1.25c0-0.45,0.06-0.87,0.18-1.23s0.29-0.68,0.52-0.94c0.23-0.26,0.51-0.46,0.84-0.6s0.7-0.21,1.12-0.21
		c0.45,0,0.84,0.08,1.17,0.23c0.33,0.15,0.6,0.36,0.81,0.63c0.21,0.26,0.37,0.57,0.48,0.92c0.11,0.35,0.16,0.72,0.16,1.12v0.46
		h-3.82v0.14c0,0.42,0.12,0.75,0.35,1c0.23,0.25,0.58,0.38,1.04,0.38c0.35,0,0.64-0.07,0.86-0.22s0.42-0.33,0.6-0.56l0.76,0.85
		c-0.23,0.33-0.56,0.59-0.96,0.78C137.5,8.24,137.03,8.34,136.5,8.34z M136.48,3.39c-0.37,0-0.67,0.12-0.89,0.37
		c-0.22,0.25-0.33,0.57-0.33,0.97v0.09h2.35v-0.1c0-0.4-0.1-0.72-0.29-0.96C137.12,3.51,136.84,3.39,136.48,3.39z"/>
	<path class="st0" d="M140.32,8.21V2.46h1.41v0.96h0.06c0.11-0.3,0.29-0.56,0.53-0.77c0.24-0.21,0.58-0.32,1.01-0.32
		c0.4,0,0.74,0.1,1.02,0.29c0.29,0.19,0.5,0.48,0.64,0.87H145c0.1-0.32,0.31-0.6,0.61-0.82s0.69-0.34,1.15-0.34
		c0.56,0,1,0.19,1.3,0.58s0.46,0.94,0.46,1.66v3.63h-1.41V4.72c0-0.82-0.31-1.23-0.92-1.23c-0.14,0-0.27,0.02-0.4,0.06
		c-0.13,0.04-0.24,0.1-0.34,0.18c-0.1,0.08-0.18,0.17-0.24,0.29s-0.09,0.25-0.09,0.4v3.79h-1.41V4.72c0-0.82-0.31-1.23-0.92-1.23
		c-0.13,0-0.26,0.02-0.39,0.06c-0.13,0.04-0.24,0.1-0.34,0.18s-0.18,0.17-0.24,0.29s-0.09,0.25-0.09,0.4v3.79H140.32z"/>
	<path class="st0" d="M150.79,1.63c-0.29,0-0.5-0.07-0.63-0.2c-0.13-0.13-0.19-0.3-0.19-0.51V0.7c0-0.21,0.06-0.37,0.19-0.51
		c0.13-0.13,0.34-0.2,0.63-0.2c0.29,0,0.5,0.07,0.63,0.2c0.13,0.13,0.2,0.3,0.2,0.51v0.22c0,0.21-0.07,0.37-0.2,0.51
		C151.28,1.56,151.07,1.63,150.79,1.63z M150.08,2.46h1.41v5.74h-1.41V2.46z"/>
	<path class="st0" d="M154.91,8.21c-0.48,0-0.85-0.13-1.11-0.38c-0.25-0.25-0.38-0.61-0.38-1.08V3.6h-0.85V2.46h0.44
		c0.21,0,0.36-0.05,0.43-0.15c0.08-0.1,0.12-0.25,0.12-0.45V0.89h1.27v1.57h1.18V3.6h-1.18v3.48h1.09v1.13H154.91z"/>
	<path class="st0" d="M159.51,8.34c-0.42,0-0.8-0.07-1.14-0.21c-0.33-0.14-0.62-0.34-0.85-0.6c-0.23-0.26-0.41-0.58-0.53-0.95
		c-0.12-0.37-0.19-0.79-0.19-1.25c0-0.45,0.06-0.87,0.18-1.23s0.29-0.68,0.52-0.94c0.23-0.26,0.51-0.46,0.84-0.6s0.7-0.21,1.12-0.21
		c0.45,0,0.84,0.08,1.17,0.23c0.33,0.15,0.6,0.36,0.81,0.63c0.21,0.26,0.37,0.57,0.48,0.92c0.11,0.35,0.16,0.72,0.16,1.12v0.46
		h-3.82v0.14c0,0.42,0.12,0.75,0.35,1c0.23,0.25,0.58,0.38,1.04,0.38c0.35,0,0.64-0.07,0.86-0.22s0.42-0.33,0.6-0.56l0.76,0.85
		c-0.23,0.33-0.56,0.59-0.96,0.78C160.52,8.24,160.04,8.34,159.51,8.34z M159.49,3.39c-0.37,0-0.67,0.12-0.89,0.37
		c-0.22,0.25-0.33,0.57-0.33,0.97v0.09h2.35v-0.1c0-0.4-0.1-0.72-0.29-0.96C160.13,3.51,159.85,3.39,159.49,3.39z"/>
	<path class="st0" d="M165.36,2.46h1.35l0.58,2.37l0.45,1.97h0.04l0.53-1.97l0.67-2.37h1.28l0.69,2.37l0.54,1.97h0.04l0.45-1.97
		l0.57-2.37h1.31l-1.57,5.74h-1.52l-0.74-2.53l-0.43-1.56h-0.03l-0.42,1.56l-0.73,2.53h-1.5L165.36,2.46z"/>
	<path class="st0" d="M175.63,1.63c-0.29,0-0.5-0.07-0.63-0.2c-0.13-0.13-0.19-0.3-0.19-0.51V0.7c0-0.21,0.06-0.37,0.19-0.51
		c0.13-0.13,0.34-0.2,0.63-0.2c0.29,0,0.5,0.07,0.63,0.2c0.13,0.13,0.2,0.3,0.2,0.51v0.22c0,0.21-0.07,0.37-0.2,0.51
		C176.13,1.56,175.92,1.63,175.63,1.63z M174.93,2.46h1.41v5.74h-1.41V2.46z"/>
	<path class="st0" d="M179.76,8.21c-0.48,0-0.85-0.13-1.11-0.38c-0.25-0.25-0.38-0.61-0.38-1.08V3.6h-0.85V2.46h0.44
		c0.21,0,0.36-0.05,0.43-0.15c0.08-0.1,0.12-0.25,0.12-0.45V0.89h1.27v1.57h1.18V3.6h-1.18v3.48h1.09v1.13H179.76z"/>
	<path class="st0" d="M182.08,0.07h1.41v3.35h0.06c0.12-0.31,0.3-0.57,0.55-0.78c0.25-0.21,0.6-0.31,1.05-0.31
		c0.59,0,1.05,0.19,1.36,0.58s0.47,0.94,0.47,1.66v3.63h-1.41V4.72c0-0.41-0.07-0.72-0.22-0.92c-0.15-0.21-0.39-0.31-0.73-0.31
		c-0.15,0-0.29,0.02-0.42,0.06c-0.14,0.04-0.26,0.1-0.36,0.18s-0.19,0.17-0.26,0.29c-0.07,0.11-0.1,0.25-0.1,0.4v3.79h-1.41V0.07z"
		/>
	<path class="st0" d="M4.85,13.73v5.52c0,0.34-0.06,0.66-0.17,0.93C4.57,20.46,4.41,20.7,4.2,20.9c-0.21,0.2-0.46,0.35-0.76,0.46
		s-0.64,0.17-1.01,0.17c-0.71,0-1.26-0.19-1.66-0.56C0.36,20.59,0.11,20.1,0,19.48l1.34-0.28c0.07,0.33,0.19,0.58,0.36,0.76
		c0.17,0.18,0.41,0.27,0.71,0.27c0.29,0,0.52-0.09,0.71-0.27c0.19-0.18,0.28-0.46,0.28-0.83v-4.23H0.98v-1.19H4.85z"/>
	<path class="st0" d="M8.8,21.54c-0.41,0-0.78-0.07-1.11-0.21s-0.6-0.34-0.84-0.6c-0.23-0.26-0.41-0.58-0.53-0.95
		c-0.12-0.37-0.19-0.79-0.19-1.25c0-0.46,0.06-0.88,0.19-1.24c0.12-0.37,0.3-0.68,0.53-0.94c0.23-0.26,0.51-0.46,0.84-0.6
		c0.33-0.14,0.7-0.21,1.11-0.21c0.41,0,0.78,0.07,1.11,0.21c0.33,0.14,0.61,0.34,0.84,0.6c0.23,0.26,0.41,0.57,0.53,0.94
		c0.12,0.37,0.19,0.78,0.19,1.24c0,0.46-0.06,0.88-0.19,1.25c-0.12,0.37-0.3,0.69-0.53,0.95c-0.23,0.26-0.51,0.47-0.84,0.6
		S9.21,21.54,8.8,21.54z M8.8,20.4c0.37,0,0.67-0.11,0.88-0.34c0.21-0.23,0.32-0.56,0.32-1V18c0-0.43-0.11-0.76-0.32-0.99
		c-0.21-0.23-0.51-0.34-0.88-0.34c-0.37,0-0.66,0.11-0.87,0.34C7.72,17.23,7.61,17.56,7.61,18v1.07c0,0.44,0.11,0.77,0.32,1
		C8.14,20.29,8.43,20.4,8.8,20.4z"/>
	<path class="st0" d="M12.72,13.27h1.41v3.35h0.06c0.12-0.31,0.3-0.57,0.55-0.78c0.25-0.21,0.6-0.31,1.05-0.31
		c0.59,0,1.05,0.19,1.36,0.58s0.47,0.94,0.47,1.66v3.63h-1.41v-3.49c0-0.41-0.07-0.72-0.22-0.92c-0.15-0.21-0.39-0.31-0.73-0.31
		c-0.15,0-0.29,0.02-0.42,0.06c-0.14,0.04-0.26,0.1-0.36,0.18s-0.19,0.17-0.26,0.29c-0.07,0.11-0.1,0.25-0.1,0.4v3.79h-1.41V13.27z"
		/>
	<path class="st0" d="M19.18,21.41v-5.74h1.41v0.96h0.06c0.12-0.31,0.3-0.57,0.55-0.78c0.25-0.21,0.6-0.31,1.05-0.31
		c0.59,0,1.05,0.19,1.36,0.58s0.47,0.94,0.47,1.66v3.63h-1.41v-3.49c0-0.41-0.07-0.72-0.22-0.92c-0.15-0.21-0.39-0.31-0.73-0.31
		c-0.15,0-0.29,0.02-0.42,0.06c-0.14,0.04-0.26,0.1-0.36,0.18s-0.19,0.17-0.26,0.29c-0.07,0.11-0.1,0.25-0.1,0.4v3.79H19.18z"/>
	<path class="st0" d="M34.13,15.89h-0.04l-0.59,1.22l-1.57,2.9l-1.57-2.9l-0.59-1.22h-0.04v5.51h-1.38v-7.68h1.64l1.97,3.75h0.04
		l1.95-3.75h1.57v7.68h-1.38V15.89z"/>
	<path class="st0" d="M40.65,20.45H40.6c-0.05,0.15-0.12,0.28-0.2,0.41s-0.19,0.24-0.32,0.35c-0.13,0.1-0.28,0.18-0.46,0.24
		s-0.39,0.09-0.62,0.09c-0.59,0-1.05-0.19-1.36-0.58c-0.32-0.39-0.47-0.94-0.47-1.66v-3.63h1.41v3.49c0,0.4,0.08,0.7,0.23,0.91
		c0.15,0.21,0.4,0.31,0.74,0.31c0.14,0,0.28-0.02,0.41-0.05s0.25-0.09,0.36-0.17c0.1-0.08,0.19-0.17,0.25-0.29
		c0.07-0.11,0.1-0.25,0.1-0.4v-3.8h1.41v5.74h-1.41V20.45z"/>
	<path class="st0" d="M44.39,14.83c-0.29,0-0.5-0.07-0.63-0.2c-0.13-0.13-0.19-0.3-0.19-0.51V13.9c0-0.21,0.06-0.37,0.19-0.51
		c0.13-0.13,0.34-0.2,0.63-0.2c0.29,0,0.5,0.07,0.63,0.2c0.13,0.13,0.2,0.3,0.2,0.51v0.22c0,0.21-0.07,0.37-0.2,0.51
		C44.89,14.76,44.68,14.83,44.39,14.83z M43.69,15.66h1.41v5.74h-1.41V15.66z"/>
	<path class="st0" d="M46.73,21.41v-5.74h1.41v1.19h0.06c0.04-0.15,0.09-0.3,0.17-0.45s0.18-0.27,0.3-0.38s0.27-0.2,0.45-0.26
		c0.17-0.07,0.37-0.1,0.6-0.1h0.31v1.33h-0.44c-0.48,0-0.84,0.07-1.08,0.21c-0.24,0.14-0.36,0.37-0.36,0.68v3.52H46.73z"/>
	<path class="st0" d="M50.99,21.53c-0.3,0-0.52-0.08-0.67-0.23c-0.14-0.15-0.21-0.34-0.21-0.58v-0.2c0-0.23,0.07-0.43,0.21-0.58
		c0.14-0.15,0.36-0.23,0.67-0.23c0.31,0,0.53,0.08,0.67,0.23c0.14,0.15,0.21,0.35,0.21,0.58v0.2c0,0.23-0.07,0.43-0.21,0.58
		C51.53,21.45,51.3,21.53,50.99,21.53z"/>
</g>
</svg>
