<!-- Generator: Adobe Illustrator 23.1.1, SVG Export Plug-In  -->
<svg version="1.1" xmlns="http://www.w3.org/2000/svg" xmlns:xlink="http://www.w3.org/1999/xlink" x="0px" y="0px"
	 width="160.52px" height="36.94px" viewBox="0 0 160.52 36.94" style="enable-background:new 0 0 160.52 36.94;"
	 xml:space="preserve">
<style type="text/css">
	.st0{fill:#FFFFFF;}
</style>
<defs>
</defs>
<g>
	<path class="st0" d="M2.63,8.21V5.19L0,0.53h1.63L3.4,3.77h0.02l1.73-3.25h1.58L4.09,5.18v3.02H2.63z"/>
	<path class="st0" d="M9.31,8.34c-0.41,0-0.78-0.07-1.11-0.21s-0.6-0.34-0.84-0.6C7.13,7.26,6.96,6.94,6.83,6.57
		C6.71,6.2,6.64,5.79,6.64,5.32c0-0.46,0.06-0.88,0.19-1.24c0.12-0.37,0.3-0.68,0.53-0.94C7.6,2.88,7.87,2.68,8.2,2.54
		C8.53,2.4,8.9,2.33,9.31,2.33c0.41,0,0.78,0.07,1.11,0.21c0.33,0.14,0.61,0.34,0.84,0.6c0.23,0.26,0.41,0.57,0.53,0.94
		c0.12,0.37,0.19,0.78,0.19,1.24c0,0.46-0.06,0.88-0.19,1.25c-0.12,0.37-0.3,0.69-0.53,0.95c-0.23,0.26-0.51,0.47-0.84,0.6
		S9.72,8.34,9.31,8.34z M9.31,7.21c0.37,0,0.67-0.11,0.88-0.34c0.21-0.23,0.32-0.56,0.32-1V4.8c0-0.43-0.11-0.76-0.32-0.99
		C9.97,3.58,9.68,3.46,9.31,3.46c-0.37,0-0.66,0.11-0.87,0.34C8.22,4.03,8.12,4.36,8.12,4.8v1.07c0,0.44,0.11,0.77,0.32,1
		C8.65,7.09,8.94,7.21,9.31,7.21z"/>
	<path class="st0" d="M15.1,8.34c-0.55,0-1.01-0.09-1.39-0.28s-0.7-0.45-0.99-0.78l0.86-0.84c0.21,0.24,0.45,0.43,0.7,0.57
		c0.25,0.14,0.54,0.21,0.87,0.21c0.34,0,0.58-0.06,0.73-0.18c0.15-0.12,0.23-0.28,0.23-0.48c0-0.17-0.05-0.3-0.16-0.4
		c-0.11-0.1-0.29-0.17-0.54-0.2l-0.57-0.08c-0.62-0.08-1.1-0.26-1.42-0.53c-0.33-0.27-0.49-0.68-0.49-1.2
		c0-0.28,0.05-0.53,0.15-0.75s0.25-0.41,0.44-0.57c0.19-0.16,0.42-0.28,0.69-0.36c0.27-0.08,0.57-0.13,0.9-0.13
		c0.28,0,0.53,0.02,0.74,0.06c0.22,0.04,0.41,0.1,0.59,0.18c0.18,0.08,0.34,0.17,0.48,0.29s0.29,0.24,0.43,0.38l-0.83,0.83
		c-0.17-0.18-0.37-0.32-0.61-0.44s-0.49-0.18-0.77-0.18c-0.31,0-0.53,0.06-0.67,0.17c-0.14,0.11-0.2,0.25-0.2,0.43
		c0,0.19,0.06,0.34,0.17,0.43c0.11,0.1,0.31,0.17,0.58,0.21l0.58,0.08c1.24,0.18,1.86,0.74,1.86,1.69c0,0.28-0.06,0.53-0.17,0.76
		c-0.11,0.23-0.27,0.43-0.48,0.59s-0.45,0.29-0.74,0.39C15.79,8.29,15.46,8.34,15.1,8.34z"/>
	<path class="st0" d="M21.03,8.34c-0.42,0-0.8-0.07-1.14-0.21c-0.33-0.14-0.62-0.34-0.85-0.6c-0.23-0.26-0.41-0.58-0.53-0.95
		c-0.12-0.37-0.19-0.79-0.19-1.25c0-0.45,0.06-0.87,0.18-1.23s0.29-0.68,0.52-0.94c0.23-0.26,0.51-0.46,0.84-0.6s0.7-0.21,1.12-0.21
		c0.45,0,0.84,0.08,1.17,0.23c0.33,0.15,0.6,0.36,0.81,0.63c0.21,0.26,0.37,0.57,0.48,0.92c0.11,0.35,0.16,0.72,0.16,1.12v0.46
		h-3.82v0.14c0,0.42,0.12,0.75,0.35,1c0.23,0.25,0.58,0.38,1.04,0.38c0.35,0,0.64-0.07,0.86-0.22s0.42-0.33,0.6-0.56l0.76,0.85
		c-0.23,0.33-0.56,0.59-0.96,0.78C22.04,8.24,21.57,8.34,21.03,8.34z M21.01,3.39c-0.37,0-0.67,0.12-0.89,0.37
		c-0.22,0.25-0.33,0.57-0.33,0.97v0.09h2.35v-0.1c0-0.4-0.1-0.72-0.29-0.96C21.66,3.51,21.38,3.39,21.01,3.39z"/>
	<path class="st0" d="M24.85,8.21V2.46h1.41v0.96h0.06c0.11-0.3,0.29-0.56,0.53-0.77c0.24-0.21,0.58-0.32,1.01-0.32
		c0.4,0,0.74,0.1,1.02,0.29c0.29,0.19,0.5,0.48,0.64,0.87h0.02c0.1-0.32,0.31-0.6,0.61-0.82s0.69-0.34,1.15-0.34
		c0.56,0,1,0.19,1.3,0.58s0.46,0.94,0.46,1.66v3.63h-1.41V4.72c0-0.82-0.31-1.23-0.92-1.23c-0.14,0-0.27,0.02-0.4,0.06
		c-0.13,0.04-0.24,0.1-0.34,0.18c-0.1,0.08-0.18,0.17-0.24,0.29s-0.09,0.25-0.09,0.4v3.79h-1.41V4.72c0-0.82-0.31-1.23-0.92-1.23
		c-0.13,0-0.26,0.02-0.39,0.06c-0.13,0.04-0.24,0.1-0.34,0.18s-0.18,0.17-0.24,0.29s-0.09,0.25-0.09,0.4v3.79H24.85z"/>
	<path class="st0" d="M35.32,1.63c-0.29,0-0.5-0.07-0.63-0.2c-0.13-0.13-0.19-0.3-0.19-0.51V0.7c0-0.21,0.06-0.37,0.19-0.51
		C34.82,0.07,35.03,0,35.32,0c0.29,0,0.5,0.07,0.63,0.2c0.13,0.13,0.2,0.3,0.2,0.51v0.22c0,0.21-0.07,0.37-0.2,0.51
		C35.81,1.56,35.61,1.63,35.32,1.63z M34.62,2.46h1.41v5.74h-1.41V2.46z"/>
	<path class="st0" d="M39.45,8.21c-0.48,0-0.85-0.13-1.11-0.38c-0.25-0.25-0.38-0.61-0.38-1.08V3.6h-0.85V2.46h0.44
		c0.21,0,0.36-0.05,0.43-0.15c0.08-0.1,0.12-0.25,0.12-0.45V0.89h1.27v1.57h1.18V3.6h-1.18v3.48h1.09v1.13H39.45z"/>
	<path class="st0" d="M44.04,8.34c-0.42,0-0.8-0.07-1.14-0.21c-0.33-0.14-0.62-0.34-0.85-0.6c-0.23-0.26-0.41-0.58-0.53-0.95
		c-0.12-0.37-0.19-0.79-0.19-1.25c0-0.45,0.06-0.87,0.18-1.23s0.29-0.68,0.52-0.94c0.23-0.26,0.51-0.46,0.84-0.6s0.7-0.21,1.12-0.21
		c0.45,0,0.84,0.08,1.17,0.23c0.33,0.15,0.6,0.36,0.81,0.63c0.21,0.26,0.37,0.57,0.48,0.92c0.11,0.35,0.16,0.72,0.16,1.12v0.46H42.8
		v0.14c0,0.42,0.12,0.75,0.35,1c0.23,0.25,0.58,0.38,1.04,0.38c0.35,0,0.64-0.07,0.86-0.22s0.42-0.33,0.6-0.56l0.76,0.85
		c-0.23,0.33-0.56,0.59-0.96,0.78C45.05,8.24,44.58,8.34,44.04,8.34z M44.02,3.39c-0.37,0-0.67,0.12-0.89,0.37
		c-0.22,0.25-0.33,0.57-0.33,0.97v0.09h2.35v-0.1c0-0.4-0.1-0.72-0.29-0.96C44.67,3.51,44.39,3.39,44.02,3.39z"/>
	<path class="st0" d="M51.16,1.63c-0.29,0-0.5-0.07-0.63-0.2c-0.13-0.13-0.19-0.3-0.19-0.51V0.7c0-0.21,0.06-0.37,0.19-0.51
		C50.66,0.07,50.87,0,51.16,0c0.29,0,0.5,0.07,0.63,0.2c0.13,0.13,0.2,0.3,0.2,0.51v0.22c0,0.21-0.07,0.37-0.2,0.51
		C51.65,1.56,51.45,1.63,51.16,1.63z M50.46,2.46h1.41v5.74h-1.41V2.46z"/>
	<path class="st0" d="M55.37,8.34c-0.55,0-1.01-0.09-1.39-0.28S53.28,7.61,53,7.28l0.86-0.84c0.21,0.24,0.45,0.43,0.7,0.57
		c0.25,0.14,0.54,0.21,0.87,0.21c0.34,0,0.58-0.06,0.73-0.18c0.15-0.12,0.23-0.28,0.23-0.48c0-0.17-0.05-0.3-0.16-0.4
		c-0.11-0.1-0.29-0.17-0.54-0.2l-0.57-0.08c-0.62-0.08-1.1-0.26-1.42-0.53c-0.33-0.27-0.49-0.68-0.49-1.2
		c0-0.28,0.05-0.53,0.15-0.75s0.25-0.41,0.44-0.57c0.19-0.16,0.42-0.28,0.69-0.36c0.27-0.08,0.57-0.13,0.9-0.13
		c0.28,0,0.53,0.02,0.74,0.06c0.22,0.04,0.41,0.1,0.59,0.18c0.18,0.08,0.34,0.17,0.48,0.29s0.29,0.24,0.43,0.38l-0.83,0.83
		c-0.17-0.18-0.37-0.32-0.61-0.44s-0.49-0.18-0.77-0.18c-0.31,0-0.53,0.06-0.67,0.17c-0.14,0.11-0.2,0.25-0.2,0.43
		c0,0.19,0.06,0.34,0.17,0.43c0.11,0.1,0.31,0.17,0.58,0.21l0.58,0.08c1.24,0.18,1.86,0.74,1.86,1.69c0,0.28-0.06,0.53-0.17,0.76
		c-0.11,0.23-0.27,0.43-0.48,0.59s-0.45,0.29-0.74,0.39C56.06,8.29,55.73,8.34,55.37,8.34z"/>
	<path class="st0" d="M65.14,7.25h-0.05c-0.1,0.33-0.3,0.59-0.58,0.79c-0.29,0.2-0.62,0.3-1,0.3c-0.73,0-1.28-0.26-1.67-0.78
		s-0.58-1.27-0.58-2.23c0-0.96,0.19-1.7,0.58-2.22s0.94-0.78,1.67-0.78c0.38,0,0.71,0.1,1,0.29s0.48,0.46,0.58,0.79h0.05V0.07h1.41
		v8.14h-1.41V7.25z M63.95,7.17c0.34,0,0.62-0.08,0.85-0.24s0.34-0.39,0.34-0.69V4.41c0-0.28-0.11-0.5-0.34-0.67
		c-0.23-0.17-0.51-0.25-0.85-0.25c-0.37,0-0.66,0.12-0.89,0.37c-0.22,0.25-0.34,0.57-0.34,0.98v0.99c0,0.41,0.11,0.74,0.34,0.98
		S63.59,7.17,63.95,7.17z"/>
	<path class="st0" d="M68.88,1.63c-0.29,0-0.5-0.07-0.63-0.2c-0.13-0.13-0.19-0.3-0.19-0.51V0.7c0-0.21,0.06-0.37,0.19-0.51
		C68.38,0.07,68.59,0,68.88,0c0.29,0,0.5,0.07,0.63,0.2c0.13,0.13,0.2,0.3,0.2,0.51v0.22c0,0.21-0.07,0.37-0.2,0.51
		C69.38,1.56,69.17,1.63,68.88,1.63z M68.18,2.46h1.41v5.74h-1.41V2.46z"/>
	<path class="st0" d="M73.09,8.34c-0.55,0-1.01-0.09-1.39-0.28S71,7.61,70.72,7.28l0.86-0.84c0.21,0.24,0.45,0.43,0.7,0.57
		c0.25,0.14,0.54,0.21,0.87,0.21c0.34,0,0.58-0.06,0.73-0.18c0.15-0.12,0.23-0.28,0.23-0.48c0-0.17-0.05-0.3-0.16-0.4
		c-0.11-0.1-0.29-0.17-0.54-0.2l-0.57-0.08c-0.62-0.08-1.1-0.26-1.42-0.53c-0.33-0.27-0.49-0.68-0.49-1.2
		c0-0.28,0.05-0.53,0.15-0.75s0.25-0.41,0.44-0.57c0.19-0.16,0.42-0.28,0.69-0.36c0.27-0.08,0.57-0.13,0.9-0.13
		c0.28,0,0.53,0.02,0.74,0.06c0.22,0.04,0.41,0.1,0.59,0.18c0.18,0.08,0.34,0.17,0.48,0.29s0.29,0.24,0.43,0.38l-0.83,0.83
		c-0.17-0.18-0.37-0.32-0.61-0.44s-0.49-0.18-0.77-0.18c-0.31,0-0.53,0.06-0.67,0.17c-0.14,0.11-0.2,0.25-0.2,0.43
		c0,0.19,0.06,0.34,0.17,0.43c0.11,0.1,0.31,0.17,0.58,0.21l0.58,0.08c1.24,0.18,1.86,0.74,1.86,1.69c0,0.28-0.06,0.53-0.17,0.76
		c-0.11,0.23-0.27,0.43-0.48,0.59s-0.45,0.29-0.74,0.39C73.78,8.29,73.45,8.34,73.09,8.34z"/>
	<path class="st0" d="M78.97,8.34c-0.43,0-0.8-0.07-1.13-0.21S77.23,7.79,77,7.52c-0.22-0.26-0.39-0.58-0.51-0.95
		c-0.12-0.37-0.18-0.79-0.18-1.25c0-0.46,0.06-0.88,0.18-1.24C76.61,3.71,76.78,3.4,77,3.14s0.5-0.46,0.83-0.6
		c0.33-0.14,0.71-0.21,1.13-0.21c0.58,0,1.06,0.13,1.44,0.39c0.38,0.26,0.65,0.61,0.82,1.07L80.07,4.3C80,4.06,79.88,3.86,79.7,3.7
		s-0.42-0.24-0.73-0.24c-0.4,0-0.69,0.12-0.89,0.37c-0.19,0.25-0.29,0.58-0.29,0.98v1.05c0,0.4,0.1,0.73,0.29,0.97
		c0.19,0.25,0.49,0.37,0.89,0.37c0.34,0,0.6-0.09,0.78-0.26c0.18-0.17,0.33-0.39,0.43-0.64l1.08,0.52
		c-0.19,0.51-0.48,0.89-0.87,1.14S79.53,8.34,78.97,8.34z"/>
	<path class="st0" d="M84.57,8.34c-0.41,0-0.78-0.07-1.11-0.21s-0.6-0.34-0.84-0.6c-0.23-0.26-0.41-0.58-0.53-0.95
		C81.97,6.2,81.9,5.79,81.9,5.32c0-0.46,0.06-0.88,0.19-1.24c0.12-0.37,0.3-0.68,0.53-0.94c0.23-0.26,0.51-0.46,0.84-0.6
		c0.33-0.14,0.7-0.21,1.11-0.21c0.41,0,0.78,0.07,1.11,0.21c0.33,0.14,0.61,0.34,0.84,0.6c0.23,0.26,0.41,0.57,0.53,0.94
		c0.12,0.37,0.19,0.78,0.19,1.24c0,0.46-0.06,0.88-0.19,1.25c-0.12,0.37-0.3,0.69-0.53,0.95c-0.23,0.26-0.51,0.47-0.84,0.6
		S84.98,8.34,84.57,8.34z M84.57,7.21c0.37,0,0.67-0.11,0.88-0.34c0.21-0.23,0.32-0.56,0.32-1V4.8c0-0.43-0.11-0.76-0.32-0.99
		c-0.21-0.23-0.51-0.34-0.88-0.34c-0.37,0-0.66,0.11-0.87,0.34c-0.21,0.23-0.32,0.56-0.32,0.99v1.07c0,0.44,0.11,0.77,0.32,1
		C83.91,7.09,84.2,7.21,84.57,7.21z"/>
	<path class="st0" d="M89.63,8.21l-1.91-5.74h1.39l0.8,2.48l0.56,2.05h0.08l0.56-2.05l0.78-2.48h1.34L91.3,8.21H89.63z"/>
	<path class="st0" d="M96.39,8.34c-0.42,0-0.8-0.07-1.14-0.21c-0.33-0.14-0.62-0.34-0.85-0.6C94.17,7.26,94,6.94,93.87,6.57
		c-0.12-0.37-0.19-0.79-0.19-1.25c0-0.45,0.06-0.87,0.18-1.23s0.29-0.68,0.52-0.94c0.23-0.26,0.51-0.46,0.84-0.6s0.7-0.21,1.12-0.21
		c0.45,0,0.84,0.08,1.17,0.23c0.33,0.15,0.6,0.36,0.81,0.63c0.21,0.26,0.37,0.57,0.48,0.92c0.11,0.35,0.16,0.72,0.16,1.12v0.46
		h-3.82v0.14c0,0.42,0.12,0.75,0.35,1c0.23,0.25,0.58,0.38,1.04,0.38c0.35,0,0.64-0.07,0.86-0.22s0.42-0.33,0.6-0.56l0.76,0.85
		c-0.23,0.33-0.56,0.59-0.96,0.78C97.4,8.24,96.93,8.34,96.39,8.34z M96.37,3.39c-0.37,0-0.67,0.12-0.89,0.37
		c-0.22,0.25-0.33,0.57-0.33,0.97v0.09h2.35v-0.1c0-0.4-0.1-0.72-0.29-0.96C97.02,3.51,96.74,3.39,96.37,3.39z"/>
	<path class="st0" d="M100.21,8.21V2.46h1.41v1.19h0.06c0.04-0.15,0.09-0.3,0.17-0.45s0.18-0.27,0.3-0.38s0.27-0.2,0.45-0.26
		c0.17-0.07,0.37-0.1,0.6-0.1h0.31v1.33h-0.44c-0.48,0-0.84,0.07-1.08,0.21c-0.24,0.14-0.36,0.37-0.36,0.68v3.52H100.21z"/>
	<path class="st0" d="M106.8,8.34c-0.42,0-0.8-0.07-1.14-0.21c-0.33-0.14-0.62-0.34-0.85-0.6c-0.23-0.26-0.41-0.58-0.53-0.95
		c-0.12-0.37-0.19-0.79-0.19-1.25c0-0.45,0.06-0.87,0.18-1.23s0.29-0.68,0.52-0.94c0.23-0.26,0.51-0.46,0.84-0.6s0.7-0.21,1.12-0.21
		c0.45,0,0.84,0.08,1.17,0.23c0.33,0.15,0.6,0.36,0.81,0.63c0.21,0.26,0.37,0.57,0.48,0.92c0.11,0.35,0.16,0.72,0.16,1.12v0.46
		h-3.82v0.14c0,0.42,0.12,0.75,0.35,1c0.23,0.25,0.58,0.38,1.04,0.38c0.35,0,0.64-0.07,0.86-0.22s0.42-0.33,0.6-0.56l0.76,0.85
		c-0.23,0.33-0.56,0.59-0.96,0.78C107.8,8.24,107.33,8.34,106.8,8.34z M106.77,3.39c-0.37,0-0.67,0.12-0.89,0.37
		c-0.22,0.25-0.33,0.57-0.33,0.97v0.09h2.35v-0.1c0-0.4-0.1-0.72-0.29-0.96C107.42,3.51,107.14,3.39,106.77,3.39z"/>
	<path class="st0" d="M114.18,7.25h-0.05c-0.1,0.33-0.3,0.59-0.58,0.79c-0.29,0.2-0.62,0.3-1,0.3c-0.73,0-1.28-0.26-1.67-0.78
		s-0.58-1.27-0.58-2.23c0-0.96,0.19-1.7,0.58-2.22s0.94-0.78,1.67-0.78c0.38,0,0.71,0.1,1,0.29s0.48,0.46,0.58,0.79h0.05V0.07h1.41
		v8.14h-1.41V7.25z M112.99,7.17c0.34,0,0.62-0.08,0.85-0.24s0.34-0.39,0.34-0.69V4.41c0-0.28-0.11-0.5-0.34-0.67
		c-0.23-0.17-0.51-0.25-0.85-0.25c-0.37,0-0.66,0.12-0.89,0.37c-0.22,0.25-0.34,0.57-0.34,0.98v0.99c0,0.41,0.11,0.74,0.34,0.98
		S112.62,7.17,112.99,7.17z"/>
	<path class="st0" d="M119.81,0.07h1.41v3.34h0.04c0.1-0.33,0.3-0.59,0.58-0.79c0.29-0.19,0.62-0.29,1-0.29
		c0.73,0,1.29,0.26,1.68,0.78s0.58,1.26,0.58,2.22c0,0.97-0.19,1.71-0.58,2.23s-0.94,0.78-1.68,0.78c-0.38,0-0.71-0.1-1-0.3
		c-0.28-0.2-0.48-0.46-0.59-0.79h-0.04v0.96h-1.41V0.07z M122.39,7.17c0.37,0,0.66-0.12,0.89-0.36s0.34-0.57,0.34-0.98V4.84
		c0-0.41-0.11-0.74-0.34-0.98c-0.23-0.25-0.52-0.37-0.89-0.37c-0.34,0-0.62,0.08-0.84,0.25c-0.22,0.17-0.34,0.39-0.34,0.67v1.83
		c0,0.3,0.11,0.53,0.34,0.69S122.06,7.17,122.39,7.17z"/>
	<path class="st0" d="M129.83,2.46h1.32l-2.31,6.77c-0.07,0.21-0.16,0.38-0.25,0.53c-0.09,0.15-0.2,0.27-0.32,0.37
		c-0.12,0.1-0.28,0.17-0.45,0.21c-0.18,0.04-0.38,0.07-0.62,0.07h-0.85V9.27h1.03l0.26-0.8l-2.06-6.01h1.4l1,3.03l0.37,1.45h0.07
		l0.4-1.45L129.83,2.46z"/>
	<path class="st0" d="M136.46,8.21c-0.48,0-0.85-0.13-1.11-0.38c-0.25-0.25-0.38-0.61-0.38-1.08V3.6h-0.85V2.46h0.44
		c0.21,0,0.36-0.05,0.43-0.15c0.08-0.1,0.12-0.25,0.12-0.45V0.89h1.27v1.57h1.18V3.6h-1.18v3.48h1.09v1.13H136.46z"/>
	<path class="st0" d="M138.78,0.07h1.41v3.35h0.06c0.12-0.31,0.3-0.57,0.55-0.78c0.25-0.21,0.6-0.31,1.05-0.31
		c0.59,0,1.05,0.19,1.36,0.58s0.47,0.94,0.47,1.66v3.63h-1.41V4.72c0-0.41-0.07-0.72-0.22-0.92c-0.15-0.21-0.39-0.31-0.73-0.31
		c-0.15,0-0.29,0.02-0.42,0.06c-0.14,0.04-0.26,0.1-0.36,0.18s-0.19,0.17-0.26,0.29c-0.07,0.11-0.1,0.25-0.1,0.4v3.79h-1.41V0.07z"
		/>
	<path class="st0" d="M147.57,8.34c-0.42,0-0.8-0.07-1.14-0.21c-0.33-0.14-0.62-0.34-0.85-0.6c-0.23-0.26-0.41-0.58-0.53-0.95
		c-0.12-0.37-0.19-0.79-0.19-1.25c0-0.45,0.06-0.87,0.18-1.23s0.29-0.68,0.52-0.94c0.23-0.26,0.51-0.46,0.84-0.6s0.7-0.21,1.12-0.21
		c0.45,0,0.84,0.08,1.17,0.23c0.33,0.15,0.6,0.36,0.81,0.63c0.21,0.26,0.37,0.57,0.48,0.92c0.11,0.35,0.16,0.72,0.16,1.12v0.46
		h-3.82v0.14c0,0.42,0.12,0.75,0.35,1c0.23,0.25,0.58,0.38,1.04,0.38c0.35,0,0.64-0.07,0.86-0.22s0.42-0.33,0.6-0.56l0.76,0.85
		c-0.23,0.33-0.56,0.59-0.96,0.78C148.58,8.24,148.11,8.34,147.57,8.34z M147.55,3.39c-0.37,0-0.67,0.12-0.89,0.37
		c-0.22,0.25-0.33,0.57-0.33,0.97v0.09h2.35v-0.1c0-0.4-0.1-0.72-0.29-0.96C148.2,3.51,147.92,3.39,147.55,3.39z"/>
	<path class="st0" d="M6.59,15.89H6.54l-0.59,1.22l-1.57,2.9l-1.57-2.9l-0.59-1.22H2.17v5.51H0.79v-7.68h1.64l1.97,3.75h0.04
		l1.95-3.75h1.57v7.68H6.59V15.89z"/>
	<path class="st0" d="M13.9,21.41c-0.31,0-0.55-0.09-0.73-0.27s-0.29-0.42-0.34-0.72h-0.07c-0.1,0.37-0.29,0.65-0.58,0.84
		c-0.29,0.19-0.66,0.28-1.09,0.28c-0.59,0-1.04-0.15-1.35-0.46c-0.32-0.31-0.47-0.72-0.47-1.23c0-0.59,0.21-1.03,0.64-1.32
		s1.03-0.43,1.82-0.43h0.98v-0.42c0-0.32-0.08-0.57-0.25-0.75c-0.17-0.18-0.44-0.26-0.81-0.26c-0.33,0-0.6,0.07-0.8,0.21
		c-0.2,0.14-0.37,0.31-0.51,0.51l-0.84-0.75c0.21-0.33,0.5-0.6,0.85-0.8c0.35-0.2,0.82-0.3,1.4-0.3c0.78,0,1.37,0.18,1.77,0.53
		s0.61,0.86,0.61,1.51v2.7h0.57v1.13H13.9z M11.57,20.51c0.32,0,0.58-0.07,0.8-0.21c0.22-0.14,0.33-0.34,0.33-0.61v-0.75h-0.9
		c-0.73,0-1.1,0.23-1.1,0.7v0.19c0,0.23,0.08,0.41,0.23,0.52S11.29,20.51,11.57,20.51z"/>
	<path class="st0" d="M15.83,21.41v-5.74h1.41v1.19h0.06c0.04-0.15,0.09-0.3,0.17-0.45s0.18-0.27,0.3-0.38s0.27-0.2,0.45-0.26
		c0.17-0.07,0.37-0.1,0.6-0.1h0.31v1.33h-0.44c-0.48,0-0.84,0.07-1.08,0.21c-0.24,0.14-0.36,0.37-0.36,0.68v3.52H15.83z"/>
	<path class="st0" d="M20.85,14.83c-0.29,0-0.5-0.07-0.63-0.2c-0.13-0.13-0.19-0.3-0.19-0.51V13.9c0-0.21,0.06-0.37,0.19-0.51
		c0.13-0.13,0.34-0.2,0.63-0.2c0.29,0,0.5,0.07,0.63,0.2c0.13,0.13,0.2,0.3,0.2,0.51v0.22c0,0.21-0.07,0.37-0.2,0.51
		C21.35,14.76,21.14,14.83,20.85,14.83z M20.15,15.66h1.41v5.74h-1.41V15.66z"/>
	<path class="st0" d="M23.19,15.66h1.41v0.95h0.04c0.1-0.33,0.3-0.59,0.58-0.79c0.29-0.19,0.62-0.29,1-0.29
		c0.73,0,1.29,0.26,1.68,0.78s0.58,1.26,0.58,2.22c0,0.97-0.19,1.71-0.58,2.23s-0.94,0.78-1.68,0.78c-0.38,0-0.71-0.1-1-0.3
		c-0.28-0.2-0.48-0.46-0.59-0.79h-0.04v3.16h-1.41V15.66z M25.77,20.37c0.37,0,0.66-0.12,0.89-0.36S27,19.44,27,19.03v-0.99
		c0-0.41-0.11-0.74-0.34-0.98c-0.23-0.25-0.52-0.37-0.89-0.37c-0.34,0-0.62,0.08-0.84,0.25c-0.22,0.17-0.34,0.39-0.34,0.67v1.83
		c0,0.3,0.11,0.53,0.34,0.69S25.43,20.37,25.77,20.37z"/>
	<path class="st0" d="M32.06,21.54c-0.41,0-0.78-0.07-1.11-0.21s-0.6-0.34-0.84-0.6c-0.23-0.26-0.41-0.58-0.53-0.95
		c-0.12-0.37-0.19-0.79-0.19-1.25c0-0.46,0.06-0.88,0.19-1.24c0.12-0.37,0.3-0.68,0.53-0.94c0.23-0.26,0.51-0.46,0.84-0.6
		c0.33-0.14,0.7-0.21,1.11-0.21c0.41,0,0.78,0.07,1.11,0.21c0.33,0.14,0.61,0.34,0.84,0.6c0.23,0.26,0.41,0.57,0.53,0.94
		c0.12,0.37,0.19,0.78,0.19,1.24c0,0.46-0.06,0.88-0.19,1.25c-0.12,0.37-0.3,0.69-0.53,0.95c-0.23,0.26-0.51,0.47-0.84,0.6
		S32.47,21.54,32.06,21.54z M32.06,20.4c0.37,0,0.67-0.11,0.88-0.34c0.21-0.23,0.32-0.56,0.32-1V18c0-0.43-0.11-0.76-0.32-0.99
		c-0.21-0.23-0.51-0.34-0.88-0.34c-0.37,0-0.66,0.11-0.87,0.34c-0.21,0.23-0.32,0.56-0.32,0.99v1.07c0,0.44,0.11,0.77,0.32,1
		C31.41,20.29,31.7,20.4,32.06,20.4z"/>
	<path class="st0" d="M37.86,21.54c-0.55,0-1.01-0.09-1.39-0.28s-0.7-0.45-0.99-0.78l0.86-0.84c0.21,0.24,0.45,0.43,0.7,0.57
		c0.25,0.14,0.54,0.21,0.87,0.21c0.34,0,0.58-0.06,0.73-0.18c0.15-0.12,0.23-0.28,0.23-0.48c0-0.17-0.05-0.3-0.16-0.4
		c-0.11-0.1-0.29-0.17-0.54-0.2l-0.57-0.08c-0.62-0.08-1.1-0.26-1.42-0.53c-0.33-0.27-0.49-0.68-0.49-1.2
		c0-0.28,0.05-0.53,0.15-0.75s0.25-0.41,0.44-0.57c0.19-0.16,0.42-0.28,0.69-0.36c0.27-0.08,0.57-0.13,0.9-0.13
		c0.28,0,0.53,0.02,0.74,0.06c0.22,0.04,0.41,0.1,0.59,0.18c0.18,0.08,0.34,0.17,0.48,0.29s0.29,0.24,0.43,0.38l-0.83,0.83
		c-0.17-0.18-0.37-0.32-0.61-0.44s-0.49-0.18-0.77-0.18c-0.31,0-0.53,0.06-0.67,0.17c-0.14,0.11-0.2,0.25-0.2,0.43
		c0,0.19,0.06,0.34,0.17,0.43c0.11,0.1,0.31,0.17,0.58,0.21l0.58,0.08c1.24,0.18,1.86,0.74,1.86,1.69c0,0.28-0.06,0.53-0.17,0.76
		c-0.11,0.23-0.27,0.43-0.48,0.59s-0.45,0.29-0.74,0.39C38.54,21.49,38.22,21.54,37.86,21.54z"/>
	<path class="st0" d="M45.69,21.41c-0.31,0-0.55-0.09-0.73-0.27s-0.29-0.42-0.34-0.72h-0.07c-0.1,0.37-0.29,0.65-0.58,0.84
		c-0.29,0.19-0.66,0.28-1.09,0.28c-0.59,0-1.04-0.15-1.35-0.46c-0.32-0.31-0.47-0.72-0.47-1.23c0-0.59,0.21-1.03,0.64-1.32
		s1.03-0.43,1.82-0.43h0.98v-0.42c0-0.32-0.08-0.57-0.25-0.75c-0.17-0.18-0.44-0.26-0.81-0.26c-0.33,0-0.6,0.07-0.8,0.21
		c-0.2,0.14-0.37,0.31-0.51,0.51l-0.84-0.75c0.21-0.33,0.5-0.6,0.85-0.8c0.35-0.2,0.82-0.3,1.4-0.3c0.78,0,1.37,0.18,1.77,0.53
		s0.61,0.86,0.61,1.51v2.7h0.57v1.13H45.69z M43.36,20.51c0.32,0,0.58-0.07,0.8-0.21c0.22-0.14,0.33-0.34,0.33-0.61v-0.75h-0.9
		c-0.73,0-1.1,0.23-1.1,0.7v0.19c0,0.23,0.08,0.41,0.23,0.52S43.08,20.51,43.36,20.51z"/>
	<path class="st0" d="M50.3,13.73h3.55c0.32,0,0.6,0.05,0.85,0.14c0.25,0.1,0.47,0.23,0.64,0.4c0.18,0.17,0.31,0.38,0.4,0.62
		c0.09,0.25,0.14,0.52,0.14,0.81s-0.04,0.54-0.12,0.74c-0.08,0.2-0.18,0.37-0.31,0.5c-0.13,0.13-0.28,0.23-0.44,0.3
		c-0.17,0.07-0.34,0.1-0.51,0.11v0.07c0.17,0,0.35,0.03,0.54,0.1s0.37,0.17,0.54,0.31s0.3,0.33,0.41,0.55
		c0.11,0.22,0.17,0.5,0.17,0.83c0,0.31-0.05,0.6-0.15,0.86c-0.1,0.27-0.24,0.5-0.41,0.7c-0.18,0.2-0.38,0.35-0.63,0.47
		s-0.51,0.17-0.79,0.17H50.3V13.73z M51.75,16.93h1.79c0.26,0,0.47-0.07,0.62-0.21s0.22-0.34,0.22-0.6v-0.34
		c0-0.26-0.07-0.46-0.22-0.6s-0.35-0.21-0.62-0.21h-1.79V16.93z M51.75,20.17h2.02c0.28,0,0.5-0.07,0.65-0.21
		c0.15-0.14,0.23-0.35,0.23-0.62v-0.37c0-0.27-0.08-0.48-0.23-0.63c-0.15-0.15-0.37-0.22-0.65-0.22h-2.02V20.17z"/>
	<path class="st0" d="M61.73,21.41c-0.31,0-0.55-0.09-0.73-0.27s-0.29-0.42-0.34-0.72H60.6c-0.1,0.37-0.29,0.65-0.58,0.84
		c-0.29,0.19-0.66,0.28-1.09,0.28c-0.59,0-1.04-0.15-1.35-0.46c-0.32-0.31-0.47-0.72-0.47-1.23c0-0.59,0.21-1.03,0.64-1.32
		s1.03-0.43,1.82-0.43h0.98v-0.42c0-0.32-0.08-0.57-0.25-0.75c-0.17-0.18-0.44-0.26-0.81-0.26c-0.33,0-0.6,0.07-0.8,0.21
		c-0.2,0.14-0.37,0.31-0.51,0.51l-0.84-0.75c0.21-0.33,0.5-0.6,0.85-0.8c0.35-0.2,0.82-0.3,1.4-0.3c0.78,0,1.37,0.18,1.77,0.53
		s0.61,0.86,0.61,1.51v2.7h0.57v1.13H61.73z M59.4,20.51c0.32,0,0.58-0.07,0.8-0.21c0.22-0.14,0.33-0.34,0.33-0.61v-0.75h-0.9
		c-0.73,0-1.1,0.23-1.1,0.7v0.19c0,0.23,0.08,0.41,0.23,0.52S59.12,20.51,59.4,20.51z"/>
	<path class="st0" d="M65.4,21.41c-0.48,0-0.85-0.13-1.11-0.38c-0.25-0.25-0.38-0.61-0.38-1.08V16.8h-0.85v-1.13h0.44
		c0.21,0,0.36-0.05,0.43-0.15c0.08-0.1,0.12-0.25,0.12-0.45v-0.98h1.27v1.57h1.18v1.13h-1.18v3.48h1.09v1.13H65.4z"/>
	<path class="st0" d="M69.45,21.41c-0.48,0-0.85-0.13-1.11-0.38c-0.25-0.25-0.38-0.61-0.38-1.08V16.8h-0.85v-1.13h0.44
		c0.21,0,0.36-0.05,0.43-0.15c0.08-0.1,0.12-0.25,0.12-0.45v-0.98h1.27v1.57h1.18v1.13h-1.18v3.48h1.09v1.13H69.45z"/>
	<path class="st0" d="M76,21.41c-0.31,0-0.55-0.09-0.73-0.27s-0.29-0.42-0.34-0.72h-0.07c-0.1,0.37-0.29,0.65-0.58,0.84
		c-0.29,0.19-0.66,0.28-1.09,0.28c-0.59,0-1.04-0.15-1.35-0.46c-0.32-0.31-0.47-0.72-0.47-1.23c0-0.59,0.21-1.03,0.64-1.32
		s1.03-0.43,1.82-0.43h0.98v-0.42c0-0.32-0.08-0.57-0.25-0.75c-0.17-0.18-0.44-0.26-0.81-0.26c-0.33,0-0.6,0.07-0.8,0.21
		c-0.2,0.14-0.37,0.31-0.51,0.51l-0.84-0.75c0.21-0.33,0.5-0.6,0.85-0.8c0.35-0.2,0.82-0.3,1.4-0.3c0.78,0,1.37,0.18,1.77,0.53
		s0.61,0.86,0.61,1.51v2.7h0.57v1.13H76z M73.66,20.51c0.32,0,0.58-0.07,0.8-0.21c0.22-0.14,0.33-0.34,0.33-0.61v-0.75h-0.9
		c-0.73,0-1.1,0.23-1.1,0.7v0.19c0,0.23,0.08,0.41,0.23,0.52S73.38,20.51,73.66,20.51z"/>
	<path class="st0" d="M79.33,21.41c-0.48,0-0.84-0.12-1.07-0.36c-0.23-0.24-0.34-0.58-0.34-1.02v-6.75h1.41v7.01h0.76v1.13H79.33z"
		/>
	<path class="st0" d="M81.86,14.83c-0.29,0-0.5-0.07-0.63-0.2c-0.13-0.13-0.19-0.3-0.19-0.51V13.9c0-0.21,0.06-0.37,0.19-0.51
		c0.13-0.13,0.34-0.2,0.63-0.2c0.29,0,0.5,0.07,0.63,0.2c0.13,0.13,0.2,0.3,0.2,0.51v0.22c0,0.21-0.07,0.37-0.2,0.51
		C82.35,14.76,82.14,14.83,81.86,14.83z M81.16,15.66h1.41v5.74h-1.41V15.66z"/>
	<path class="st0" d="M86.47,21.54c-0.41,0-0.78-0.07-1.11-0.21s-0.6-0.34-0.84-0.6c-0.23-0.26-0.41-0.58-0.53-0.95
		c-0.12-0.37-0.19-0.79-0.19-1.25c0-0.46,0.06-0.88,0.19-1.24c0.12-0.37,0.3-0.68,0.53-0.94c0.23-0.26,0.51-0.46,0.84-0.6
		c0.33-0.14,0.7-0.21,1.11-0.21c0.41,0,0.78,0.07,1.11,0.21c0.33,0.14,0.61,0.34,0.84,0.6c0.23,0.26,0.41,0.57,0.53,0.94
		c0.12,0.37,0.19,0.78,0.19,1.24c0,0.46-0.06,0.88-0.19,1.25c-0.12,0.37-0.3,0.69-0.53,0.95c-0.23,0.26-0.51,0.47-0.84,0.6
		S86.88,21.54,86.47,21.54z M86.47,20.4c0.37,0,0.67-0.11,0.88-0.34c0.21-0.23,0.32-0.56,0.32-1V18c0-0.43-0.11-0.76-0.32-0.99
		c-0.21-0.23-0.51-0.34-0.88-0.34c-0.37,0-0.66,0.11-0.87,0.34c-0.21,0.23-0.32,0.56-0.32,0.99v1.07c0,0.44,0.11,0.77,0.32,1
		C85.81,20.29,86.1,20.4,86.47,20.4z"/>
	<path class="st0" d="M90.38,21.41v-5.74h1.41v0.96h0.06c0.12-0.31,0.3-0.57,0.55-0.78c0.25-0.21,0.6-0.31,1.05-0.31
		c0.59,0,1.05,0.19,1.36,0.58s0.47,0.94,0.47,1.66v3.63h-1.41v-3.49c0-0.41-0.07-0.72-0.22-0.92c-0.15-0.21-0.39-0.31-0.73-0.31
		c-0.15,0-0.29,0.02-0.42,0.06c-0.14,0.04-0.26,0.1-0.36,0.18s-0.19,0.17-0.26,0.29c-0.07,0.11-0.1,0.25-0.1,0.4v3.79H90.38z"/>
	<path class="st0" d="M100.86,21.41c-0.48,0-0.84-0.12-1.07-0.36c-0.23-0.24-0.34-0.58-0.34-1.02v-6.75h1.41v7.01h0.76v1.13H100.86z
		"/>
	<path class="st0" d="M105,21.54c-0.42,0-0.8-0.07-1.14-0.21c-0.33-0.14-0.62-0.34-0.85-0.6c-0.23-0.26-0.41-0.58-0.53-0.95
		c-0.12-0.37-0.19-0.79-0.19-1.25c0-0.45,0.06-0.87,0.18-1.23s0.29-0.68,0.52-0.94c0.23-0.26,0.51-0.46,0.84-0.6s0.7-0.21,1.12-0.21
		c0.45,0,0.84,0.08,1.17,0.23c0.33,0.15,0.6,0.36,0.81,0.63c0.21,0.26,0.37,0.57,0.48,0.92c0.11,0.35,0.16,0.72,0.16,1.12v0.46
		h-3.82v0.14c0,0.42,0.12,0.75,0.35,1c0.23,0.25,0.58,0.38,1.04,0.38c0.35,0,0.64-0.07,0.86-0.22s0.42-0.33,0.6-0.56l0.76,0.85
		c-0.23,0.33-0.56,0.59-0.96,0.78C106.01,21.44,105.54,21.54,105,21.54z M104.98,16.59c-0.37,0-0.67,0.12-0.89,0.37
		c-0.22,0.25-0.33,0.57-0.33,0.97v0.09h2.35v-0.1c0-0.4-0.1-0.72-0.29-0.96C105.63,16.71,105.35,16.59,104.98,16.59z"/>
	<path class="st0" d="M112.38,20.45h-0.05c-0.1,0.33-0.3,0.59-0.58,0.79c-0.29,0.2-0.62,0.3-1,0.3c-0.73,0-1.28-0.26-1.67-0.78
		s-0.58-1.27-0.58-2.23c0-0.96,0.19-1.7,0.58-2.22s0.94-0.78,1.67-0.78c0.38,0,0.71,0.1,1,0.29s0.48,0.46,0.58,0.79h0.05v-3.34h1.41
		v8.14h-1.41V20.45z M111.2,20.37c0.34,0,0.62-0.08,0.85-0.24s0.34-0.39,0.34-0.69v-1.83c0-0.28-0.11-0.5-0.34-0.67
		c-0.23-0.17-0.51-0.25-0.85-0.25c-0.37,0-0.66,0.12-0.89,0.37c-0.22,0.25-0.34,0.57-0.34,0.98v0.99c0,0.41,0.11,0.74,0.34,0.98
		S110.83,20.37,111.2,20.37z"/>
	<path class="st0" d="M118.02,13.27h1.41v3.34h0.04c0.1-0.33,0.3-0.59,0.58-0.79c0.29-0.19,0.62-0.29,1-0.29
		c0.73,0,1.29,0.26,1.68,0.78s0.58,1.26,0.58,2.22c0,0.97-0.19,1.71-0.58,2.23s-0.94,0.78-1.68,0.78c-0.38,0-0.71-0.1-1-0.3
		c-0.28-0.2-0.48-0.46-0.59-0.79h-0.04v0.96h-1.41V13.27z M120.6,20.37c0.37,0,0.66-0.12,0.89-0.36s0.34-0.57,0.34-0.98v-0.99
		c0-0.41-0.11-0.74-0.34-0.98c-0.23-0.25-0.52-0.37-0.89-0.37c-0.34,0-0.62,0.08-0.84,0.25c-0.22,0.17-0.34,0.39-0.34,0.67v1.83
		c0,0.3,0.11,0.53,0.34,0.69S120.26,20.37,120.6,20.37z"/>
	<path class="st0" d="M128.04,15.66h1.32l-2.31,6.77c-0.07,0.21-0.16,0.38-0.25,0.53c-0.09,0.15-0.2,0.27-0.32,0.37
		c-0.12,0.1-0.28,0.17-0.45,0.21c-0.18,0.04-0.38,0.07-0.62,0.07h-0.85v-1.13h1.03l0.26-0.8l-2.06-6.01h1.4l1,3.03l0.37,1.45h0.07
		l0.4-1.45L128.04,15.66z"/>
	<path class="st0" d="M138.76,15.89h-0.04l-0.59,1.22l-1.57,2.9l-1.57-2.9l-0.59-1.22h-0.04v5.51h-1.38v-7.68h1.64l1.97,3.75h0.04
		l1.95-3.75h1.57v7.68h-1.38V15.89z"/>
	<path class="st0" d="M146.08,21.41c-0.31,0-0.55-0.09-0.73-0.27s-0.29-0.42-0.34-0.72h-0.07c-0.1,0.37-0.29,0.65-0.58,0.84
		c-0.29,0.19-0.66,0.28-1.09,0.28c-0.59,0-1.04-0.15-1.35-0.46c-0.32-0.31-0.47-0.72-0.47-1.23c0-0.59,0.21-1.03,0.64-1.32
		s1.03-0.43,1.82-0.43h0.98v-0.42c0-0.32-0.08-0.57-0.25-0.75c-0.17-0.18-0.44-0.26-0.81-0.26c-0.33,0-0.6,0.07-0.8,0.21
		c-0.2,0.14-0.37,0.31-0.51,0.51l-0.84-0.75c0.21-0.33,0.5-0.6,0.85-0.8c0.35-0.2,0.82-0.3,1.4-0.3c0.78,0,1.37,0.18,1.77,0.53
		s0.61,0.86,0.61,1.51v2.7h0.57v1.13H146.08z M143.74,20.51c0.32,0,0.58-0.07,0.8-0.21c0.22-0.14,0.33-0.34,0.33-0.61v-0.75h-0.9
		c-0.73,0-1.1,0.23-1.1,0.7v0.19c0,0.23,0.08,0.41,0.23,0.52S143.46,20.51,143.74,20.51z"/>
	<path class="st0" d="M148,15.66h1.41v6.44c0,0.48-0.12,0.86-0.36,1.12c-0.24,0.26-0.63,0.39-1.16,0.39h-0.77v-1.13H148V15.66z
		 M148.7,14.83c-0.29,0-0.5-0.07-0.63-0.2c-0.13-0.13-0.19-0.3-0.19-0.51V13.9c0-0.21,0.06-0.37,0.19-0.51
		c0.13-0.13,0.34-0.2,0.63-0.2c0.29,0,0.5,0.07,0.63,0.2c0.13,0.13,0.2,0.3,0.2,0.51v0.22c0,0.21-0.07,0.37-0.2,0.51
		C149.2,14.76,148.99,14.83,148.7,14.83z"/>
	<path class="st0" d="M153.31,21.54c-0.41,0-0.78-0.07-1.11-0.21s-0.6-0.34-0.84-0.6c-0.23-0.26-0.41-0.58-0.53-0.95
		c-0.12-0.37-0.19-0.79-0.19-1.25c0-0.46,0.06-0.88,0.19-1.24c0.12-0.37,0.3-0.68,0.53-0.94c0.23-0.26,0.51-0.46,0.84-0.6
		c0.33-0.14,0.7-0.21,1.11-0.21c0.41,0,0.78,0.07,1.11,0.21c0.33,0.14,0.61,0.34,0.84,0.6c0.23,0.26,0.41,0.57,0.53,0.94
		c0.12,0.37,0.19,0.78,0.19,1.24c0,0.46-0.06,0.88-0.19,1.25c-0.12,0.37-0.3,0.69-0.53,0.95c-0.23,0.26-0.51,0.47-0.84,0.6
		S153.72,21.54,153.31,21.54z M153.31,20.4c0.37,0,0.67-0.11,0.88-0.34c0.21-0.23,0.32-0.56,0.32-1V18c0-0.43-0.11-0.76-0.32-0.99
		c-0.21-0.23-0.51-0.34-0.88-0.34c-0.37,0-0.66,0.11-0.87,0.34c-0.21,0.23-0.32,0.56-0.32,0.99v1.07c0,0.44,0.11,0.77,0.32,1
		C152.66,20.29,152.95,20.4,153.31,20.4z"/>
	<path class="st0" d="M157.23,21.41v-5.74h1.41v1.19h0.06c0.04-0.15,0.09-0.3,0.17-0.45s0.18-0.27,0.3-0.38s0.27-0.2,0.45-0.26
		c0.17-0.07,0.37-0.1,0.6-0.1h0.31v1.33h-0.44c-0.48,0-0.84,0.07-1.08,0.21c-0.24,0.14-0.36,0.37-0.36,0.68v3.52H157.23z"/>
	<path class="st0" d="M5.03,26.93v5.52c0,0.34-0.06,0.66-0.17,0.93c-0.11,0.28-0.28,0.52-0.48,0.72c-0.21,0.2-0.46,0.35-0.76,0.46
		s-0.64,0.17-1.01,0.17c-0.71,0-1.26-0.19-1.66-0.56c-0.4-0.37-0.65-0.87-0.76-1.49l1.34-0.28c0.07,0.33,0.19,0.58,0.36,0.76
		c0.17,0.18,0.41,0.27,0.71,0.27c0.29,0,0.52-0.09,0.71-0.27c0.19-0.18,0.28-0.46,0.28-0.83v-4.23H1.15v-1.19H5.03z"/>
	<path class="st0" d="M10.92,34.61c-0.31,0-0.55-0.09-0.73-0.27s-0.29-0.42-0.34-0.72H9.79c-0.1,0.37-0.29,0.65-0.58,0.84
		c-0.29,0.19-0.66,0.28-1.09,0.28c-0.59,0-1.04-0.15-1.35-0.46c-0.32-0.31-0.47-0.72-0.47-1.23c0-0.59,0.21-1.03,0.64-1.32
		s1.03-0.43,1.82-0.43h0.98v-0.42c0-0.32-0.08-0.57-0.25-0.75c-0.17-0.18-0.44-0.26-0.81-0.26c-0.33,0-0.6,0.07-0.8,0.21
		c-0.2,0.14-0.37,0.31-0.51,0.51l-0.84-0.75c0.21-0.33,0.5-0.6,0.85-0.8c0.35-0.2,0.82-0.3,1.4-0.3c0.78,0,1.37,0.18,1.77,0.53
		s0.61,0.86,0.61,1.51v2.7h0.57v1.13H10.92z M8.59,33.71c0.32,0,0.58-0.07,0.8-0.21c0.22-0.14,0.33-0.34,0.33-0.61v-0.75h-0.9
		c-0.73,0-1.1,0.23-1.1,0.7v0.19c0,0.23,0.08,0.41,0.23,0.52S8.31,33.71,8.59,33.71z"/>
	<path class="st0" d="M12.85,34.61v-5.74h1.41v0.96h0.06c0.11-0.3,0.29-0.56,0.53-0.77c0.24-0.21,0.58-0.32,1.01-0.32
		c0.4,0,0.74,0.1,1.02,0.29c0.29,0.19,0.5,0.48,0.64,0.87h0.02c0.1-0.32,0.31-0.6,0.61-0.82s0.69-0.34,1.15-0.34
		c0.56,0,1,0.19,1.3,0.58s0.46,0.94,0.46,1.66v3.63h-1.41v-3.49c0-0.82-0.31-1.23-0.92-1.23c-0.14,0-0.27,0.02-0.4,0.06
		c-0.13,0.04-0.24,0.1-0.34,0.18c-0.1,0.08-0.18,0.17-0.24,0.29s-0.09,0.25-0.09,0.4v3.79h-1.41v-3.49c0-0.82-0.31-1.23-0.92-1.23
		c-0.13,0-0.26,0.02-0.39,0.06c-0.13,0.04-0.24,0.1-0.34,0.18s-0.18,0.17-0.24,0.29s-0.09,0.25-0.09,0.4v3.79H12.85z"/>
	<path class="st0" d="M24.94,34.74c-0.42,0-0.8-0.07-1.14-0.21c-0.33-0.14-0.62-0.34-0.85-0.6c-0.23-0.26-0.41-0.58-0.53-0.95
		c-0.12-0.37-0.19-0.79-0.19-1.25c0-0.45,0.06-0.87,0.18-1.23s0.29-0.68,0.52-0.94c0.23-0.26,0.51-0.46,0.84-0.6s0.7-0.21,1.12-0.21
		c0.45,0,0.84,0.08,1.17,0.23c0.33,0.15,0.6,0.36,0.81,0.63c0.21,0.26,0.37,0.57,0.48,0.92c0.11,0.35,0.16,0.72,0.16,1.12v0.46
		h-3.82v0.14c0,0.42,0.12,0.75,0.35,1c0.23,0.25,0.58,0.38,1.04,0.38c0.35,0,0.64-0.07,0.86-0.22s0.42-0.33,0.6-0.56l0.76,0.85
		c-0.23,0.33-0.56,0.59-0.96,0.78C25.94,34.64,25.47,34.74,24.94,34.74z M24.91,29.79c-0.37,0-0.67,0.12-0.89,0.37
		c-0.22,0.25-0.33,0.57-0.33,0.97v0.09h2.35v-0.1c0-0.4-0.1-0.72-0.29-0.96C25.56,29.91,25.28,29.79,24.91,29.79z"/>
	<path class="st0" d="M30.63,34.74c-0.55,0-1.01-0.09-1.39-0.28s-0.7-0.45-0.99-0.78l0.86-0.84c0.21,0.24,0.45,0.43,0.7,0.57
		c0.25,0.14,0.54,0.21,0.87,0.21c0.34,0,0.58-0.06,0.73-0.18c0.15-0.12,0.23-0.28,0.23-0.48c0-0.17-0.05-0.3-0.16-0.4
		c-0.11-0.1-0.29-0.17-0.54-0.2l-0.57-0.08c-0.62-0.08-1.1-0.26-1.42-0.53c-0.33-0.27-0.49-0.68-0.49-1.2
		c0-0.28,0.05-0.53,0.15-0.75s0.25-0.41,0.44-0.57c0.19-0.16,0.42-0.28,0.69-0.36c0.27-0.08,0.57-0.13,0.9-0.13
		c0.28,0,0.53,0.02,0.74,0.06c0.22,0.04,0.41,0.1,0.59,0.18c0.18,0.08,0.34,0.17,0.48,0.29s0.29,0.24,0.43,0.38l-0.83,0.83
		c-0.17-0.18-0.37-0.32-0.61-0.44s-0.49-0.18-0.77-0.18c-0.31,0-0.53,0.06-0.67,0.17c-0.14,0.11-0.2,0.25-0.2,0.43
		c0,0.19,0.06,0.34,0.17,0.43c0.11,0.1,0.31,0.17,0.58,0.21l0.58,0.08C32.38,31.34,33,31.9,33,32.86c0,0.28-0.06,0.53-0.17,0.76
		c-0.11,0.23-0.27,0.43-0.48,0.59s-0.45,0.29-0.74,0.39C31.32,34.69,30.99,34.74,30.63,34.74z"/>
	<path class="st0" d="M39.31,34.74c-0.66,0-1.22-0.12-1.68-0.35c-0.46-0.23-0.85-0.54-1.18-0.93l0.98-0.95
		c0.26,0.31,0.56,0.54,0.89,0.7c0.33,0.16,0.69,0.24,1.08,0.24c0.45,0,0.78-0.1,1.01-0.29s0.34-0.45,0.34-0.78
		c0-0.25-0.07-0.46-0.22-0.62c-0.15-0.16-0.42-0.28-0.83-0.35l-0.73-0.11c-1.53-0.24-2.3-0.99-2.3-2.24c0-0.35,0.06-0.66,0.19-0.94
		c0.13-0.28,0.31-0.52,0.56-0.72c0.24-0.2,0.53-0.35,0.87-0.46s0.73-0.16,1.16-0.16c0.58,0,1.08,0.1,1.52,0.29
		c0.43,0.19,0.8,0.47,1.11,0.85l-0.99,0.94c-0.19-0.23-0.42-0.42-0.69-0.57c-0.27-0.15-0.61-0.22-1.02-0.22
		c-0.42,0-0.73,0.08-0.94,0.23s-0.31,0.38-0.31,0.66c0,0.29,0.08,0.51,0.25,0.64c0.17,0.14,0.44,0.24,0.81,0.31l0.71,0.13
		c0.78,0.14,1.35,0.39,1.72,0.74s0.56,0.85,0.56,1.49c0,0.37-0.06,0.7-0.19,1s-0.32,0.55-0.56,0.77c-0.25,0.22-0.55,0.38-0.9,0.5
		C40.18,34.68,39.77,34.74,39.31,34.74z"/>
	<path class="st0" d="M47.78,34.61c-0.31,0-0.55-0.09-0.73-0.27s-0.29-0.42-0.34-0.72h-0.07c-0.1,0.37-0.29,0.65-0.58,0.84
		c-0.29,0.19-0.66,0.28-1.09,0.28c-0.59,0-1.04-0.15-1.35-0.46c-0.32-0.31-0.47-0.72-0.47-1.23c0-0.59,0.21-1.03,0.64-1.32
		s1.03-0.43,1.82-0.43h0.98v-0.42c0-0.32-0.08-0.57-0.25-0.75c-0.17-0.18-0.44-0.26-0.81-0.26c-0.33,0-0.6,0.07-0.8,0.21
		c-0.2,0.14-0.37,0.31-0.51,0.51l-0.84-0.75c0.21-0.33,0.5-0.6,0.85-0.8c0.35-0.2,0.82-0.3,1.4-0.3c0.78,0,1.37,0.18,1.77,0.53
		s0.61,0.86,0.61,1.51v2.7h0.57v1.13H47.78z M45.45,33.71c0.32,0,0.58-0.07,0.8-0.21c0.22-0.14,0.33-0.34,0.33-0.61v-0.75h-0.9
		c-0.73,0-1.1,0.23-1.1,0.7v0.19c0,0.23,0.08,0.41,0.23,0.52S45.17,33.71,45.45,33.71z"/>
	<path class="st0" d="M50.84,34.61l-1.91-5.74h1.39l0.8,2.48l0.56,2.05h0.08l0.56-2.05l0.78-2.48h1.34l-1.92,5.74H50.84z"/>
	<path class="st0" d="M59.5,34.61c-0.31,0-0.55-0.09-0.73-0.27s-0.29-0.42-0.34-0.72h-0.07c-0.1,0.37-0.29,0.65-0.58,0.84
		c-0.29,0.19-0.66,0.28-1.09,0.28c-0.59,0-1.04-0.15-1.35-0.46c-0.32-0.31-0.47-0.72-0.47-1.23c0-0.59,0.21-1.03,0.64-1.32
		s1.03-0.43,1.82-0.43h0.98v-0.42c0-0.32-0.08-0.57-0.25-0.75c-0.17-0.18-0.44-0.26-0.81-0.26c-0.33,0-0.6,0.07-0.8,0.21
		c-0.2,0.14-0.37,0.31-0.51,0.51l-0.84-0.75c0.21-0.33,0.5-0.6,0.85-0.8c0.35-0.2,0.82-0.3,1.4-0.3c0.78,0,1.37,0.18,1.77,0.53
		s0.61,0.86,0.61,1.51v2.7h0.57v1.13H59.5z M57.17,33.71c0.32,0,0.58-0.07,0.8-0.21c0.22-0.14,0.33-0.34,0.33-0.61v-0.75h-0.9
		c-0.73,0-1.1,0.23-1.1,0.7v0.19c0,0.23,0.08,0.41,0.23,0.52S56.89,33.71,57.17,33.71z"/>
	<path class="st0" d="M66.6,35.09c0,0.3-0.05,0.57-0.16,0.8c-0.11,0.23-0.28,0.42-0.52,0.58c-0.24,0.15-0.55,0.27-0.94,0.35
		s-0.85,0.12-1.4,0.12c-0.48,0-0.9-0.03-1.23-0.09c-0.34-0.06-0.61-0.15-0.83-0.26c-0.22-0.11-0.37-0.25-0.47-0.42
		c-0.1-0.17-0.14-0.36-0.14-0.57c0-0.32,0.09-0.57,0.27-0.75s0.43-0.3,0.75-0.35v-0.12c-0.23-0.06-0.42-0.17-0.54-0.35
		c-0.13-0.17-0.19-0.38-0.19-0.61c0-0.15,0.03-0.28,0.09-0.39s0.14-0.21,0.24-0.29c0.1-0.08,0.21-0.15,0.33-0.2
		c0.12-0.06,0.26-0.1,0.4-0.13v-0.04c-0.35-0.16-0.61-0.38-0.79-0.67c-0.17-0.29-0.26-0.62-0.26-1c0-0.59,0.2-1.06,0.6-1.41
		s0.99-0.53,1.77-0.53c0.18,0,0.35,0.01,0.52,0.03c0.17,0.02,0.33,0.06,0.48,0.11v-0.19c0-0.56,0.27-0.84,0.81-0.84h0.89v1.08h-1.22
		v0.15c0.3,0.17,0.52,0.39,0.67,0.66c0.15,0.27,0.22,0.58,0.22,0.94c0,0.58-0.2,1.04-0.6,1.4c-0.4,0.35-0.99,0.53-1.78,0.53
		c-0.34,0-0.63-0.03-0.88-0.1c-0.11,0.05-0.21,0.12-0.29,0.2c-0.08,0.08-0.12,0.19-0.12,0.31c0,0.29,0.25,0.43,0.75,0.43h1.54
		c0.7,0,1.21,0.14,1.53,0.43C66.44,34.18,66.6,34.58,66.6,35.09z M65.28,35.25c0-0.18-0.07-0.33-0.22-0.43
		c-0.15-0.1-0.4-0.15-0.76-0.15h-1.96c-0.2,0.15-0.3,0.34-0.3,0.59c0,0.22,0.09,0.39,0.27,0.52c0.18,0.12,0.5,0.19,0.94,0.19h0.7
		c0.46,0,0.8-0.06,1.01-0.18S65.28,35.5,65.28,35.25z M63.59,31.64c0.69,0,1.03-0.29,1.03-0.88v-0.19c0-0.58-0.34-0.88-1.03-0.88
		c-0.69,0-1.03,0.29-1.03,0.88v0.19C62.55,31.34,62.9,31.64,63.59,31.64z"/>
	<path class="st0" d="M69.67,34.74c-0.42,0-0.8-0.07-1.14-0.21c-0.33-0.14-0.62-0.34-0.85-0.6c-0.23-0.26-0.41-0.58-0.53-0.95
		c-0.12-0.37-0.19-0.79-0.19-1.25c0-0.45,0.06-0.87,0.18-1.23s0.29-0.68,0.52-0.94c0.23-0.26,0.51-0.46,0.84-0.6s0.7-0.21,1.12-0.21
		c0.45,0,0.84,0.08,1.17,0.23c0.33,0.15,0.6,0.36,0.81,0.63c0.21,0.26,0.37,0.57,0.48,0.92c0.11,0.35,0.16,0.72,0.16,1.12v0.46
		h-3.82v0.14c0,0.42,0.12,0.75,0.35,1c0.23,0.25,0.58,0.38,1.04,0.38c0.35,0,0.64-0.07,0.86-0.22s0.42-0.33,0.6-0.56l0.76,0.85
		c-0.23,0.33-0.56,0.59-0.96,0.78C70.68,34.64,70.21,34.74,69.67,34.74z M69.65,29.79c-0.37,0-0.67,0.12-0.89,0.37
		c-0.22,0.25-0.33,0.57-0.33,0.97v0.09h2.35v-0.1c0-0.4-0.1-0.72-0.29-0.96C70.3,29.91,70.02,29.79,69.65,29.79z"/>
	<path class="st0" d="M74.14,34.73c-0.3,0-0.52-0.08-0.67-0.23c-0.14-0.15-0.21-0.34-0.21-0.58v-0.2c0-0.23,0.07-0.43,0.21-0.58
		c0.14-0.15,0.36-0.23,0.67-0.23c0.31,0,0.53,0.08,0.67,0.23c0.14,0.15,0.21,0.35,0.21,0.58v0.2c0,0.23-0.07,0.43-0.21,0.58
		C74.67,34.65,74.45,34.73,74.14,34.73z"/>
</g>
</svg>
