<!-- Generator: Adobe Illustrator 23.1.1, SVG Export Plug-In  -->
<svg version="1.1" xmlns="http://www.w3.org/2000/svg" xmlns:xlink="http://www.w3.org/1999/xlink" x="0px" y="0px"
	 width="185.77px" height="36.94px" viewBox="0 0 185.77 36.94" style="enable-background:new 0 0 185.77 36.94;"
	 xml:space="preserve">
<style type="text/css">
	.st0{fill:#FFFFFF;}
</style>
<defs>
</defs>
<g>
	<path class="st0" d="M3.64,1.81v6.39H2.19V1.81H0.01V0.53h5.81v1.29H3.64z"/>
	<path class="st0" d="M6.92,0.07h1.41v3.35h0.06c0.12-0.31,0.3-0.57,0.55-0.78c0.25-0.21,0.6-0.31,1.05-0.31
		c0.59,0,1.05,0.19,1.36,0.58s0.47,0.94,0.47,1.66v3.63h-1.41V4.72c0-0.41-0.07-0.72-0.22-0.92c-0.15-0.21-0.39-0.31-0.73-0.31
		c-0.15,0-0.29,0.02-0.42,0.06c-0.14,0.04-0.26,0.1-0.36,0.18S8.49,3.9,8.43,4.01c-0.07,0.11-0.1,0.25-0.1,0.4v3.79H6.92V0.07z"/>
	<path class="st0" d="M15.71,8.34c-0.42,0-0.8-0.07-1.14-0.21c-0.33-0.14-0.62-0.34-0.85-0.6c-0.23-0.26-0.41-0.58-0.53-0.95
		C13.06,6.2,13,5.79,13,5.32c0-0.45,0.06-0.87,0.18-1.23s0.29-0.68,0.52-0.94c0.23-0.26,0.51-0.46,0.84-0.6s0.7-0.21,1.12-0.21
		c0.45,0,0.84,0.08,1.17,0.23c0.33,0.15,0.6,0.36,0.81,0.63c0.21,0.26,0.37,0.57,0.48,0.92c0.11,0.35,0.16,0.72,0.16,1.12v0.46
		h-3.82v0.14c0,0.42,0.12,0.75,0.35,1c0.23,0.25,0.58,0.38,1.04,0.38c0.35,0,0.64-0.07,0.86-0.22s0.42-0.33,0.6-0.56l0.76,0.85
		c-0.23,0.33-0.56,0.59-0.96,0.78C16.71,8.24,16.24,8.34,15.71,8.34z M15.69,3.39c-0.37,0-0.67,0.12-0.89,0.37
		c-0.22,0.25-0.33,0.57-0.33,0.97v0.09h2.35v-0.1c0-0.4-0.1-0.72-0.29-0.96C16.33,3.51,16.05,3.39,15.69,3.39z"/>
	<path class="st0" d="M27.1,7.02h-0.04c-0.07,0.37-0.27,0.69-0.62,0.94c-0.35,0.25-0.81,0.38-1.39,0.38c-0.46,0-0.88-0.08-1.26-0.25
		c-0.38-0.17-0.72-0.42-1-0.75C22.5,7,22.28,6.59,22.12,6.09c-0.16-0.49-0.24-1.06-0.24-1.71s0.08-1.22,0.25-1.71
		c0.17-0.5,0.4-0.91,0.7-1.25s0.66-0.59,1.08-0.77c0.42-0.18,0.88-0.26,1.4-0.26c0.69,0,1.28,0.15,1.76,0.45s0.87,0.73,1.14,1.3
		l-1.18,0.69c-0.14-0.33-0.35-0.6-0.62-0.82c-0.28-0.22-0.64-0.33-1.11-0.33c-0.57,0-1.03,0.17-1.37,0.52
		c-0.34,0.35-0.51,0.86-0.51,1.55v1.23c0,0.67,0.17,1.19,0.52,1.54s0.81,0.53,1.39,0.53c0.23,0,0.44-0.03,0.64-0.08
		c0.2-0.06,0.37-0.14,0.52-0.25c0.15-0.11,0.26-0.25,0.35-0.41c0.09-0.16,0.13-0.35,0.13-0.57v-0.5h-1.51V4.03h2.9v4.18H27.1V7.02z"
		/>
	<path class="st0" d="M32.23,8.34c-0.41,0-0.78-0.07-1.11-0.21s-0.6-0.34-0.84-0.6c-0.23-0.26-0.41-0.58-0.53-0.95
		c-0.12-0.37-0.19-0.79-0.19-1.25c0-0.46,0.06-0.88,0.19-1.24c0.12-0.37,0.3-0.68,0.53-0.94c0.23-0.26,0.51-0.46,0.84-0.6
		c0.33-0.14,0.7-0.21,1.11-0.21c0.41,0,0.78,0.07,1.11,0.21c0.33,0.14,0.61,0.34,0.84,0.6c0.23,0.26,0.41,0.57,0.53,0.94
		c0.12,0.37,0.19,0.78,0.19,1.24c0,0.46-0.06,0.88-0.19,1.25c-0.12,0.37-0.3,0.69-0.53,0.95c-0.23,0.26-0.51,0.47-0.84,0.6
		S32.64,8.34,32.23,8.34z M32.23,7.21c0.37,0,0.67-0.11,0.88-0.34c0.21-0.23,0.32-0.56,0.32-1V4.8c0-0.43-0.11-0.76-0.32-0.99
		c-0.21-0.23-0.51-0.34-0.88-0.34c-0.37,0-0.66,0.11-0.87,0.34c-0.21,0.23-0.32,0.56-0.32,0.99v1.07c0,0.44,0.11,0.77,0.32,1
		C31.57,7.09,31.86,7.21,32.23,7.21z"/>
	<path class="st0" d="M37.55,8.21c-0.48,0-0.84-0.12-1.07-0.36c-0.23-0.24-0.34-0.58-0.34-1.02V0.07h1.41v7.01h0.76v1.13H37.55z"/>
	<path class="st0" d="M42.94,7.25h-0.05c-0.1,0.33-0.3,0.59-0.58,0.79c-0.29,0.2-0.62,0.3-1,0.3c-0.73,0-1.28-0.26-1.67-0.78
		s-0.58-1.27-0.58-2.23c0-0.96,0.19-1.7,0.58-2.22s0.94-0.78,1.67-0.78c0.38,0,0.71,0.1,1,0.29s0.48,0.46,0.58,0.79h0.05V0.07h1.41
		v8.14h-1.41V7.25z M41.75,7.17c0.34,0,0.62-0.08,0.85-0.24s0.34-0.39,0.34-0.69V4.41c0-0.28-0.11-0.5-0.34-0.67
		c-0.23-0.17-0.51-0.25-0.85-0.25c-0.37,0-0.66,0.12-0.89,0.37c-0.22,0.25-0.34,0.57-0.34,0.98v0.99c0,0.41,0.11,0.74,0.34,0.98
		S41.39,7.17,41.75,7.17z"/>
	<path class="st0" d="M50.11,8.21h-1.45V0.53h3.46c0.35,0,0.67,0.06,0.95,0.17c0.28,0.11,0.51,0.27,0.71,0.48s0.34,0.46,0.45,0.75
		c0.11,0.29,0.16,0.62,0.16,0.98c0,0.53-0.12,0.98-0.36,1.36s-0.6,0.65-1.07,0.81l1.57,3.12h-1.62l-1.43-2.96h-1.38V8.21z
		 M51.98,4.03c0.28,0,0.5-0.07,0.66-0.23s0.24-0.36,0.24-0.64V2.65c0-0.28-0.08-0.49-0.24-0.64c-0.16-0.15-0.38-0.22-0.66-0.22
		h-1.87v2.23H51.98z"/>
	<path class="st0" d="M59.31,7.25h-0.05c-0.05,0.15-0.12,0.28-0.2,0.41s-0.19,0.24-0.32,0.35c-0.13,0.1-0.28,0.18-0.46,0.24
		s-0.39,0.09-0.62,0.09c-0.59,0-1.05-0.19-1.36-0.58c-0.32-0.39-0.47-0.94-0.47-1.66V2.46h1.41v3.49c0,0.4,0.08,0.7,0.23,0.91
		c0.15,0.21,0.4,0.31,0.74,0.31c0.14,0,0.28-0.02,0.41-0.05s0.25-0.09,0.36-0.17c0.1-0.08,0.19-0.17,0.25-0.29
		c0.07-0.11,0.1-0.25,0.1-0.4v-3.8h1.41v5.74h-1.41V7.25z"/>
	<path class="st0" d="M64.23,8.34c-0.55,0-1.01-0.09-1.39-0.28s-0.7-0.45-0.99-0.78l0.86-0.84c0.21,0.24,0.45,0.43,0.7,0.57
		c0.25,0.14,0.54,0.21,0.87,0.21c0.34,0,0.58-0.06,0.73-0.18c0.15-0.12,0.23-0.28,0.23-0.48c0-0.17-0.05-0.3-0.16-0.4
		c-0.11-0.1-0.29-0.17-0.54-0.2l-0.57-0.08c-0.62-0.08-1.1-0.26-1.42-0.53c-0.33-0.27-0.49-0.68-0.49-1.2
		c0-0.28,0.05-0.53,0.15-0.75s0.25-0.41,0.44-0.57c0.19-0.16,0.42-0.28,0.69-0.36c0.27-0.08,0.57-0.13,0.9-0.13
		c0.28,0,0.53,0.02,0.74,0.06c0.22,0.04,0.41,0.1,0.59,0.18c0.18,0.08,0.34,0.17,0.48,0.29s0.29,0.24,0.43,0.38l-0.83,0.83
		c-0.17-0.18-0.37-0.32-0.61-0.44s-0.49-0.18-0.77-0.18c-0.31,0-0.53,0.06-0.67,0.17c-0.14,0.11-0.2,0.25-0.2,0.43
		c0,0.19,0.06,0.34,0.17,0.43c0.11,0.1,0.31,0.17,0.58,0.21l0.58,0.08c1.24,0.18,1.86,0.74,1.86,1.69c0,0.28-0.06,0.53-0.17,0.76
		c-0.11,0.23-0.27,0.43-0.48,0.59S65.49,8.11,65.2,8.2C64.91,8.29,64.59,8.34,64.23,8.34z"/>
	<path class="st0" d="M67.83,0.07h1.41v3.35h0.06c0.12-0.31,0.3-0.57,0.55-0.78c0.25-0.21,0.6-0.31,1.05-0.31
		c0.59,0,1.05,0.19,1.36,0.58s0.47,0.94,0.47,1.66v3.63h-1.41V4.72c0-0.41-0.07-0.72-0.22-0.92c-0.15-0.21-0.39-0.31-0.73-0.31
		c-0.15,0-0.29,0.02-0.42,0.06c-0.14,0.04-0.26,0.1-0.36,0.18s-0.19,0.17-0.26,0.29c-0.07,0.11-0.1,0.25-0.1,0.4v3.79h-1.41V0.07z"
		/>
	<path class="st0" d="M76.9,0.07h1.41v3.34h0.04c0.1-0.33,0.3-0.59,0.58-0.79c0.29-0.19,0.62-0.29,1-0.29
		c0.73,0,1.29,0.26,1.68,0.78s0.58,1.26,0.58,2.22c0,0.97-0.19,1.71-0.58,2.23s-0.94,0.78-1.68,0.78c-0.38,0-0.71-0.1-1-0.3
		c-0.28-0.2-0.48-0.46-0.59-0.79h-0.04v0.96H76.9V0.07z M79.48,7.17c0.37,0,0.66-0.12,0.89-0.36s0.34-0.57,0.34-0.98V4.84
		c0-0.41-0.11-0.74-0.34-0.98c-0.23-0.25-0.52-0.37-0.89-0.37c-0.34,0-0.62,0.08-0.84,0.25c-0.22,0.17-0.34,0.39-0.34,0.67v1.83
		c0,0.3,0.11,0.53,0.34,0.69S79.15,7.17,79.48,7.17z"/>
	<path class="st0" d="M83.5,8.21V2.46h1.41v1.19h0.06c0.04-0.15,0.09-0.3,0.17-0.45s0.18-0.27,0.3-0.38s0.27-0.2,0.45-0.26
		c0.17-0.07,0.37-0.1,0.6-0.1h0.31v1.33h-0.44c-0.48,0-0.84,0.07-1.08,0.21c-0.24,0.14-0.36,0.37-0.36,0.68v3.52H83.5z"/>
	<path class="st0" d="M88.52,1.63c-0.29,0-0.5-0.07-0.63-0.2c-0.13-0.13-0.19-0.3-0.19-0.51V0.7c0-0.21,0.06-0.37,0.19-0.51
		C88.02,0.07,88.23,0,88.52,0c0.29,0,0.5,0.07,0.63,0.2c0.13,0.13,0.2,0.3,0.2,0.51v0.22c0,0.21-0.07,0.37-0.2,0.51
		C89.02,1.56,88.81,1.63,88.52,1.63z M87.82,2.46h1.41v5.74h-1.41V2.46z"/>
	<path class="st0" d="M90.86,8.21V2.46h1.41v0.96h0.06c0.12-0.31,0.3-0.57,0.55-0.78c0.25-0.21,0.6-0.31,1.05-0.31
		c0.59,0,1.05,0.19,1.36,0.58s0.47,0.94,0.47,1.66v3.63h-1.41V4.72c0-0.41-0.07-0.72-0.22-0.92c-0.15-0.21-0.39-0.31-0.73-0.31
		c-0.15,0-0.29,0.02-0.42,0.06c-0.14,0.04-0.26,0.1-0.36,0.18s-0.19,0.17-0.26,0.29c-0.07,0.11-0.1,0.25-0.1,0.4v3.79H90.86z"/>
	<path class="st0" d="M102.51,8.69c0,0.3-0.05,0.57-0.16,0.8c-0.11,0.23-0.28,0.42-0.52,0.58c-0.24,0.15-0.55,0.27-0.94,0.35
		s-0.85,0.12-1.4,0.12c-0.48,0-0.9-0.03-1.23-0.09c-0.34-0.06-0.61-0.15-0.83-0.26c-0.22-0.11-0.37-0.25-0.47-0.42
		c-0.1-0.17-0.14-0.36-0.14-0.57c0-0.32,0.09-0.57,0.27-0.75s0.43-0.3,0.75-0.35V7.96c-0.23-0.06-0.42-0.17-0.54-0.35
		c-0.13-0.17-0.19-0.38-0.19-0.61c0-0.15,0.03-0.28,0.09-0.39s0.14-0.21,0.24-0.29c0.1-0.08,0.21-0.15,0.33-0.2
		c0.12-0.06,0.26-0.1,0.4-0.13V5.95c-0.35-0.16-0.61-0.38-0.79-0.67c-0.17-0.29-0.26-0.62-0.26-1c0-0.59,0.2-1.06,0.6-1.41
		s0.99-0.53,1.77-0.53c0.18,0,0.35,0.01,0.52,0.03c0.17,0.02,0.33,0.06,0.48,0.11V2.29c0-0.56,0.27-0.84,0.81-0.84h0.89v1.08h-1.22
		v0.15c0.3,0.17,0.52,0.39,0.67,0.66c0.15,0.27,0.22,0.58,0.22,0.94c0,0.58-0.2,1.04-0.6,1.4c-0.4,0.35-0.99,0.53-1.78,0.53
		c-0.34,0-0.63-0.03-0.88-0.1c-0.11,0.05-0.21,0.12-0.29,0.2c-0.08,0.08-0.12,0.19-0.12,0.31c0,0.29,0.25,0.43,0.75,0.43h1.54
		c0.7,0,1.21,0.14,1.53,0.43C102.35,7.78,102.51,8.18,102.51,8.69z M101.19,8.85c0-0.18-0.07-0.33-0.22-0.43
		c-0.15-0.1-0.4-0.15-0.76-0.15h-1.96c-0.2,0.15-0.3,0.34-0.3,0.59c0,0.22,0.09,0.39,0.27,0.52c0.18,0.12,0.5,0.19,0.94,0.19h0.7
		c0.46,0,0.8-0.06,1.01-0.18S101.19,9.1,101.19,8.85z M99.49,5.24c0.69,0,1.03-0.29,1.03-0.88V4.18c0-0.58-0.34-0.88-1.03-0.88
		c-0.69,0-1.03,0.29-1.03,0.88v0.19C98.46,4.94,98.8,5.24,99.49,5.24z"/>
	<path class="st0" d="M105.2,8.34c-0.55,0-1.01-0.09-1.39-0.28s-0.7-0.45-0.99-0.78l0.86-0.84c0.21,0.24,0.45,0.43,0.7,0.57
		c0.25,0.14,0.54,0.21,0.87,0.21c0.34,0,0.58-0.06,0.73-0.18c0.15-0.12,0.23-0.28,0.23-0.48c0-0.17-0.05-0.3-0.16-0.4
		c-0.11-0.1-0.29-0.17-0.54-0.2l-0.57-0.08c-0.62-0.08-1.1-0.26-1.42-0.53c-0.33-0.27-0.49-0.68-0.49-1.2
		c0-0.28,0.05-0.53,0.15-0.75s0.25-0.41,0.44-0.57c0.19-0.16,0.42-0.28,0.69-0.36c0.27-0.08,0.57-0.13,0.9-0.13
		c0.28,0,0.53,0.02,0.74,0.06c0.22,0.04,0.41,0.1,0.59,0.18c0.18,0.08,0.34,0.17,0.48,0.29s0.29,0.24,0.43,0.38l-0.83,0.83
		c-0.17-0.18-0.37-0.32-0.61-0.44s-0.49-0.18-0.77-0.18c-0.31,0-0.53,0.06-0.67,0.17c-0.14,0.11-0.2,0.25-0.2,0.43
		c0,0.19,0.06,0.34,0.17,0.43c0.11,0.1,0.31,0.17,0.58,0.21l0.58,0.08c1.24,0.18,1.86,0.74,1.86,1.69c0,0.28-0.06,0.53-0.17,0.76
		c-0.11,0.23-0.27,0.43-0.48,0.59s-0.45,0.29-0.74,0.39C105.88,8.29,105.56,8.34,105.2,8.34z"/>
	<path class="st0" d="M111.41,8.21V2.46h1.41v0.96h0.06c0.11-0.3,0.29-0.56,0.53-0.77c0.24-0.21,0.58-0.32,1.01-0.32
		c0.4,0,0.74,0.1,1.02,0.29c0.29,0.19,0.5,0.48,0.64,0.87h0.02c0.1-0.32,0.31-0.6,0.61-0.82s0.69-0.34,1.15-0.34
		c0.56,0,1,0.19,1.3,0.58s0.46,0.94,0.46,1.66v3.63h-1.41V4.72c0-0.82-0.31-1.23-0.92-1.23c-0.14,0-0.27,0.02-0.4,0.06
		c-0.13,0.04-0.24,0.1-0.34,0.18c-0.1,0.08-0.18,0.17-0.24,0.29s-0.09,0.25-0.09,0.4v3.79h-1.41V4.72c0-0.82-0.31-1.23-0.92-1.23
		c-0.13,0-0.26,0.02-0.39,0.06c-0.13,0.04-0.24,0.1-0.34,0.18s-0.18,0.17-0.24,0.29s-0.09,0.25-0.09,0.4v3.79H111.41z"/>
	<path class="st0" d="M121.88,1.63c-0.29,0-0.5-0.07-0.63-0.2c-0.13-0.13-0.19-0.3-0.19-0.51V0.7c0-0.21,0.06-0.37,0.19-0.51
		c0.13-0.13,0.34-0.2,0.63-0.2c0.29,0,0.5,0.07,0.63,0.2c0.13,0.13,0.2,0.3,0.2,0.51v0.22c0,0.21-0.07,0.37-0.2,0.51
		C122.37,1.56,122.16,1.63,121.88,1.63z M121.17,2.46h1.41v5.74h-1.41V2.46z"/>
	<path class="st0" d="M124.21,8.21V2.46h1.41v0.96h0.06c0.12-0.31,0.3-0.57,0.55-0.78c0.25-0.21,0.6-0.31,1.05-0.31
		c0.59,0,1.05,0.19,1.36,0.58s0.47,0.94,0.47,1.66v3.63h-1.41V4.72c0-0.41-0.07-0.72-0.22-0.92c-0.15-0.21-0.39-0.31-0.73-0.31
		c-0.15,0-0.29,0.02-0.42,0.06c-0.14,0.04-0.26,0.1-0.36,0.18s-0.19,0.17-0.26,0.29c-0.07,0.11-0.1,0.25-0.1,0.4v3.79H124.21z"/>
	<path class="st0" d="M133,8.34c-0.42,0-0.8-0.07-1.14-0.21c-0.33-0.14-0.62-0.34-0.85-0.6c-0.23-0.26-0.41-0.58-0.53-0.95
		c-0.12-0.37-0.19-0.79-0.19-1.25c0-0.45,0.06-0.87,0.18-1.23s0.29-0.68,0.52-0.94c0.23-0.26,0.51-0.46,0.84-0.6s0.7-0.21,1.12-0.21
		c0.45,0,0.84,0.08,1.17,0.23c0.33,0.15,0.6,0.36,0.81,0.63c0.21,0.26,0.37,0.57,0.48,0.92c0.11,0.35,0.16,0.72,0.16,1.12v0.46
		h-3.82v0.14c0,0.42,0.12,0.75,0.35,1c0.23,0.25,0.58,0.38,1.04,0.38c0.35,0,0.64-0.07,0.86-0.22s0.42-0.33,0.6-0.56l0.76,0.85
		c-0.23,0.33-0.56,0.59-0.96,0.78C134,8.24,133.53,8.34,133,8.34z M132.98,3.39c-0.37,0-0.67,0.12-0.89,0.37
		c-0.22,0.25-0.33,0.57-0.33,0.97v0.09h2.35v-0.1c0-0.4-0.1-0.72-0.29-0.96C133.62,3.51,133.34,3.39,132.98,3.39z"/>
	<path class="st0" d="M136.81,8.21V2.46h1.41v1.19h0.06c0.04-0.15,0.09-0.3,0.17-0.45s0.18-0.27,0.3-0.38s0.27-0.2,0.45-0.26
		c0.17-0.07,0.37-0.1,0.6-0.1h0.31v1.33h-0.44c-0.48,0-0.84,0.07-1.08,0.21c-0.24,0.14-0.36,0.37-0.36,0.68v3.52H136.81z"/>
	<path class="st0" d="M143.02,8.34c-0.55,0-1.01-0.09-1.39-0.28s-0.7-0.45-0.99-0.78l0.86-0.84c0.21,0.24,0.45,0.43,0.7,0.57
		c0.25,0.14,0.54,0.21,0.87,0.21c0.34,0,0.58-0.06,0.73-0.18c0.15-0.12,0.23-0.28,0.23-0.48c0-0.17-0.05-0.3-0.16-0.4
		c-0.11-0.1-0.29-0.17-0.54-0.2l-0.57-0.08c-0.62-0.08-1.1-0.26-1.42-0.53c-0.33-0.27-0.49-0.68-0.49-1.2
		c0-0.28,0.05-0.53,0.15-0.75s0.25-0.41,0.44-0.57c0.19-0.16,0.42-0.28,0.69-0.36c0.27-0.08,0.57-0.13,0.9-0.13
		c0.28,0,0.53,0.02,0.74,0.06c0.22,0.04,0.41,0.1,0.59,0.18c0.18,0.08,0.34,0.17,0.48,0.29s0.29,0.24,0.43,0.38l-0.83,0.83
		c-0.17-0.18-0.37-0.32-0.61-0.44s-0.49-0.18-0.77-0.18c-0.31,0-0.53,0.06-0.67,0.17c-0.14,0.11-0.2,0.25-0.2,0.43
		c0,0.19,0.06,0.34,0.17,0.43c0.11,0.1,0.31,0.17,0.58,0.21l0.58,0.08c1.24,0.18,1.86,0.74,1.86,1.69c0,0.28-0.06,0.53-0.17,0.76
		c-0.11,0.23-0.27,0.43-0.48,0.59s-0.45,0.29-0.74,0.39C143.7,8.29,143.38,8.34,143.02,8.34z"/>
	<path class="st0" d="M151.02,8.21c-0.48,0-0.85-0.13-1.11-0.38c-0.25-0.25-0.38-0.61-0.38-1.08V3.6h-0.85V2.46h0.44
		c0.21,0,0.36-0.05,0.43-0.15c0.08-0.1,0.12-0.25,0.12-0.45V0.89h1.27v1.57h1.18V3.6h-1.18v3.48h1.09v1.13H151.02z"/>
	<path class="st0" d="M155.57,8.34c-0.41,0-0.78-0.07-1.11-0.21s-0.6-0.34-0.84-0.6c-0.23-0.26-0.41-0.58-0.53-0.95
		c-0.12-0.37-0.19-0.79-0.19-1.25c0-0.46,0.06-0.88,0.19-1.24c0.12-0.37,0.3-0.68,0.53-0.94c0.23-0.26,0.51-0.46,0.84-0.6
		c0.33-0.14,0.7-0.21,1.11-0.21c0.41,0,0.78,0.07,1.11,0.21c0.33,0.14,0.61,0.34,0.84,0.6c0.23,0.26,0.41,0.57,0.53,0.94
		c0.12,0.37,0.19,0.78,0.19,1.24c0,0.46-0.06,0.88-0.19,1.25c-0.12,0.37-0.3,0.69-0.53,0.95c-0.23,0.26-0.51,0.47-0.84,0.6
		S155.98,8.34,155.57,8.34z M155.57,7.21c0.37,0,0.67-0.11,0.88-0.34c0.21-0.23,0.32-0.56,0.32-1V4.8c0-0.43-0.11-0.76-0.32-0.99
		c-0.21-0.23-0.51-0.34-0.88-0.34c-0.37,0-0.66,0.11-0.87,0.34c-0.21,0.23-0.32,0.56-0.32,0.99v1.07c0,0.44,0.11,0.77,0.32,1
		C154.91,7.09,155.2,7.21,155.57,7.21z"/>
	<path class="st0" d="M163.87,8.21c-0.48,0-0.85-0.13-1.11-0.38c-0.25-0.25-0.38-0.61-0.38-1.08V3.6h-0.85V2.46h0.44
		c0.21,0,0.36-0.05,0.43-0.15c0.08-0.1,0.12-0.25,0.12-0.45V0.89h1.27v1.57h1.18V3.6h-1.18v3.48h1.09v1.13H163.87z"/>
	<path class="st0" d="M166.2,0.07h1.41v3.35h0.06c0.12-0.31,0.3-0.57,0.55-0.78c0.25-0.21,0.6-0.31,1.05-0.31
		c0.59,0,1.05,0.19,1.36,0.58s0.47,0.94,0.47,1.66v3.63h-1.41V4.72c0-0.41-0.07-0.72-0.22-0.92c-0.15-0.21-0.39-0.31-0.73-0.31
		c-0.15,0-0.29,0.02-0.42,0.06c-0.14,0.04-0.26,0.1-0.36,0.18s-0.19,0.17-0.26,0.29c-0.07,0.11-0.1,0.25-0.1,0.4v3.79h-1.41V0.07z"
		/>
	<path class="st0" d="M174.98,8.34c-0.42,0-0.8-0.07-1.14-0.21c-0.33-0.14-0.62-0.34-0.85-0.6c-0.23-0.26-0.41-0.58-0.53-0.95
		c-0.12-0.37-0.19-0.79-0.19-1.25c0-0.45,0.06-0.87,0.18-1.23s0.29-0.68,0.52-0.94c0.23-0.26,0.51-0.46,0.84-0.6s0.7-0.21,1.12-0.21
		c0.45,0,0.84,0.08,1.17,0.23c0.33,0.15,0.6,0.36,0.81,0.63c0.21,0.26,0.37,0.57,0.48,0.92c0.11,0.35,0.16,0.72,0.16,1.12v0.46
		h-3.82v0.14c0,0.42,0.12,0.75,0.35,1c0.23,0.25,0.58,0.38,1.04,0.38c0.35,0,0.64-0.07,0.86-0.22s0.42-0.33,0.6-0.56l0.76,0.85
		c-0.23,0.33-0.56,0.59-0.96,0.78C175.99,8.24,175.52,8.34,174.98,8.34z M174.96,3.39c-0.37,0-0.67,0.12-0.89,0.37
		c-0.22,0.25-0.33,0.57-0.33,0.97v0.09h2.35v-0.1c0-0.4-0.1-0.72-0.29-0.96C175.61,3.51,175.33,3.39,174.96,3.39z"/>
	<path class="st0" d="M3.01,21.54c-0.66,0-1.22-0.12-1.68-0.35c-0.46-0.23-0.85-0.54-1.18-0.93l0.98-0.95
		c0.26,0.31,0.56,0.54,0.89,0.7c0.33,0.16,0.69,0.24,1.08,0.24c0.45,0,0.78-0.1,1.01-0.29s0.34-0.45,0.34-0.78
		c0-0.25-0.07-0.46-0.22-0.62c-0.15-0.16-0.42-0.28-0.83-0.35L2.68,18.1c-1.53-0.24-2.3-0.99-2.3-2.24c0-0.35,0.06-0.66,0.19-0.94
		c0.13-0.28,0.31-0.52,0.56-0.72c0.24-0.2,0.53-0.35,0.87-0.46s0.73-0.16,1.16-0.16c0.58,0,1.08,0.1,1.52,0.29
		c0.43,0.19,0.8,0.47,1.11,0.85l-0.99,0.94c-0.19-0.23-0.42-0.42-0.69-0.57c-0.27-0.15-0.61-0.22-1.02-0.22
		c-0.42,0-0.73,0.08-0.94,0.23s-0.31,0.38-0.31,0.66c0,0.29,0.08,0.51,0.25,0.64c0.17,0.14,0.44,0.24,0.81,0.31l0.71,0.13
		C4.4,17,4.97,17.25,5.34,17.6s0.56,0.85,0.56,1.49c0,0.37-0.06,0.7-0.19,1s-0.32,0.55-0.56,0.77c-0.25,0.22-0.55,0.38-0.9,0.5
		C3.88,21.48,3.48,21.54,3.01,21.54z"/>
	<path class="st0" d="M7.96,14.83c-0.29,0-0.5-0.07-0.63-0.2c-0.13-0.13-0.19-0.3-0.19-0.51V13.9c0-0.21,0.06-0.37,0.19-0.51
		c0.13-0.13,0.34-0.2,0.63-0.2c0.29,0,0.5,0.07,0.63,0.2c0.13,0.13,0.2,0.3,0.2,0.51v0.22c0,0.21-0.07,0.37-0.2,0.51
		C8.46,14.76,8.25,14.83,7.96,14.83z M7.26,15.66h1.41v5.74H7.26V15.66z"/>
	<path class="st0" d="M12.62,21.54c-0.42,0-0.8-0.07-1.14-0.21c-0.33-0.14-0.62-0.34-0.85-0.6c-0.23-0.26-0.41-0.58-0.53-0.95
		c-0.12-0.37-0.19-0.79-0.19-1.25c0-0.45,0.06-0.87,0.18-1.23s0.29-0.68,0.52-0.94c0.23-0.26,0.51-0.46,0.84-0.6s0.7-0.21,1.12-0.21
		c0.45,0,0.84,0.08,1.17,0.23c0.33,0.15,0.6,0.36,0.81,0.63c0.21,0.26,0.37,0.57,0.48,0.92c0.11,0.35,0.16,0.72,0.16,1.12v0.46
		h-3.82v0.14c0,0.42,0.12,0.75,0.35,1c0.23,0.25,0.58,0.38,1.04,0.38c0.35,0,0.64-0.07,0.86-0.22s0.42-0.33,0.6-0.56l0.76,0.85
		c-0.23,0.33-0.56,0.59-0.96,0.78C13.62,21.44,13.15,21.54,12.62,21.54z M12.59,16.59c-0.37,0-0.67,0.12-0.89,0.37
		c-0.22,0.25-0.33,0.57-0.33,0.97v0.09h2.35v-0.1c0-0.4-0.1-0.72-0.29-0.96C13.24,16.71,12.96,16.59,12.59,16.59z"/>
	<path class="st0" d="M16.43,21.41v-5.74h1.41v1.19h0.06c0.04-0.15,0.09-0.3,0.17-0.45s0.18-0.27,0.3-0.38s0.27-0.2,0.45-0.26
		c0.17-0.07,0.37-0.1,0.6-0.1h0.31v1.33h-0.44c-0.48,0-0.84,0.07-1.08,0.21c-0.24,0.14-0.36,0.37-0.36,0.68v3.52H16.43z"/>
	<path class="st0" d="M20.76,21.41v-5.74h1.41v1.19h0.06c0.04-0.15,0.09-0.3,0.17-0.45s0.18-0.27,0.3-0.38s0.27-0.2,0.45-0.26
		c0.17-0.07,0.37-0.1,0.6-0.1h0.31v1.33h-0.44c-0.48,0-0.84,0.07-1.08,0.21c-0.24,0.14-0.36,0.37-0.36,0.68v3.52H20.76z"/>
	<path class="st0" d="M29.18,21.41c-0.31,0-0.55-0.09-0.73-0.27s-0.29-0.42-0.34-0.72h-0.07c-0.1,0.37-0.29,0.65-0.58,0.84
		c-0.29,0.19-0.66,0.28-1.09,0.28c-0.59,0-1.04-0.15-1.35-0.46c-0.32-0.31-0.47-0.72-0.47-1.23c0-0.59,0.21-1.03,0.64-1.32
		s1.03-0.43,1.82-0.43h0.98v-0.42c0-0.32-0.08-0.57-0.25-0.75c-0.17-0.18-0.44-0.26-0.81-0.26c-0.33,0-0.6,0.07-0.8,0.21
		c-0.2,0.14-0.37,0.31-0.51,0.51l-0.84-0.75c0.21-0.33,0.5-0.6,0.85-0.8c0.35-0.2,0.82-0.3,1.4-0.3c0.78,0,1.37,0.18,1.77,0.53
		s0.61,0.86,0.61,1.51v2.7h0.57v1.13H29.18z M26.85,20.51c0.32,0,0.58-0.07,0.8-0.21c0.22-0.14,0.33-0.34,0.33-0.61v-0.75h-0.9
		c-0.73,0-1.1,0.23-1.1,0.7v0.19c0,0.23,0.08,0.41,0.23,0.52S26.57,20.51,26.85,20.51z"/>
	<path class="st0" d="M35.99,17.47l-0.79-1.6h-0.03v5.53h-1.38v-7.68h1.59l2.31,3.94l0.79,1.6h0.03v-5.53h1.38v7.68H38.3
		L35.99,17.47z"/>
	<path class="st0" d="M43.93,21.54c-0.42,0-0.8-0.07-1.14-0.21c-0.33-0.14-0.62-0.34-0.85-0.6c-0.23-0.26-0.41-0.58-0.53-0.95
		c-0.12-0.37-0.19-0.79-0.19-1.25c0-0.45,0.06-0.87,0.18-1.23s0.29-0.68,0.52-0.94c0.23-0.26,0.51-0.46,0.84-0.6s0.7-0.21,1.12-0.21
		c0.45,0,0.84,0.08,1.17,0.23c0.33,0.15,0.6,0.36,0.81,0.63c0.21,0.26,0.37,0.57,0.48,0.92c0.11,0.35,0.16,0.72,0.16,1.12v0.46
		h-3.82v0.14c0,0.42,0.12,0.75,0.35,1c0.23,0.25,0.58,0.38,1.04,0.38c0.35,0,0.64-0.07,0.86-0.22s0.42-0.33,0.6-0.56l0.76,0.85
		c-0.23,0.33-0.56,0.59-0.96,0.78C44.94,21.44,44.47,21.54,43.93,21.54z M43.91,16.59c-0.37,0-0.67,0.12-0.89,0.37
		c-0.22,0.25-0.33,0.57-0.33,0.97v0.09h2.35v-0.1c0-0.4-0.1-0.72-0.29-0.96C44.56,16.71,44.28,16.59,43.91,16.59z"/>
	<path class="st0" d="M48.88,21.41l-1.91-5.74h1.39l0.8,2.48l0.56,2.05h0.08l0.56-2.05l0.78-2.48h1.34l-1.92,5.74H48.88z"/>
	<path class="st0" d="M57.54,21.41c-0.31,0-0.55-0.09-0.73-0.27s-0.29-0.42-0.34-0.72h-0.07c-0.1,0.37-0.29,0.65-0.58,0.84
		c-0.29,0.19-0.66,0.28-1.09,0.28c-0.59,0-1.04-0.15-1.35-0.46c-0.32-0.31-0.47-0.72-0.47-1.23c0-0.59,0.21-1.03,0.64-1.32
		s1.03-0.43,1.82-0.43h0.98v-0.42c0-0.32-0.08-0.57-0.25-0.75c-0.17-0.18-0.44-0.26-0.81-0.26c-0.33,0-0.6,0.07-0.8,0.21
		c-0.2,0.14-0.37,0.31-0.51,0.51l-0.84-0.75c0.21-0.33,0.5-0.6,0.85-0.8c0.35-0.2,0.82-0.3,1.4-0.3c0.78,0,1.37,0.18,1.77,0.53
		s0.61,0.86,0.61,1.51v2.7h0.57v1.13H57.54z M55.21,20.51c0.32,0,0.58-0.07,0.8-0.21c0.22-0.14,0.33-0.34,0.33-0.61v-0.75h-0.9
		c-0.73,0-1.1,0.23-1.1,0.7v0.19c0,0.23,0.08,0.41,0.23,0.52S54.93,20.51,55.21,20.51z"/>
	<path class="st0" d="M63.03,20.45h-0.05c-0.1,0.33-0.3,0.59-0.58,0.79c-0.29,0.2-0.62,0.3-1,0.3c-0.73,0-1.28-0.26-1.67-0.78
		s-0.58-1.27-0.58-2.23c0-0.96,0.19-1.7,0.58-2.22s0.94-0.78,1.67-0.78c0.38,0,0.71,0.1,1,0.29s0.48,0.46,0.58,0.79h0.05v-3.34h1.41
		v8.14h-1.41V20.45z M61.84,20.37c0.34,0,0.62-0.08,0.85-0.24s0.34-0.39,0.34-0.69v-1.83c0-0.28-0.11-0.5-0.34-0.67
		c-0.23-0.17-0.51-0.25-0.85-0.25c-0.37,0-0.66,0.12-0.89,0.37c-0.22,0.25-0.34,0.57-0.34,0.98v0.99c0,0.41,0.11,0.74,0.34,0.98
		S61.47,20.37,61.84,20.37z"/>
	<path class="st0" d="M70.29,21.41c-0.31,0-0.55-0.09-0.73-0.27s-0.29-0.42-0.34-0.72h-0.07c-0.1,0.37-0.29,0.65-0.58,0.84
		c-0.29,0.19-0.66,0.28-1.09,0.28c-0.59,0-1.04-0.15-1.35-0.46c-0.32-0.31-0.47-0.72-0.47-1.23c0-0.59,0.21-1.03,0.64-1.32
		s1.03-0.43,1.82-0.43h0.98v-0.42c0-0.32-0.08-0.57-0.25-0.75c-0.17-0.18-0.44-0.26-0.81-0.26c-0.33,0-0.6,0.07-0.8,0.21
		c-0.2,0.14-0.37,0.31-0.51,0.51l-0.84-0.75c0.21-0.33,0.5-0.6,0.85-0.8c0.35-0.2,0.82-0.3,1.4-0.3c0.78,0,1.37,0.18,1.77,0.53
		s0.61,0.86,0.61,1.51v2.7h0.57v1.13H70.29z M67.96,20.51c0.32,0,0.58-0.07,0.8-0.21c0.22-0.14,0.33-0.34,0.33-0.61v-0.75h-0.9
		c-0.73,0-1.1,0.23-1.1,0.7v0.19c0,0.23,0.08,0.41,0.23,0.52S67.68,20.51,67.96,20.51z"/>
	<path class="st0" d="M79.03,21.41c-0.31,0-0.55-0.09-0.73-0.27s-0.29-0.42-0.34-0.72H77.9c-0.1,0.37-0.29,0.65-0.58,0.84
		c-0.29,0.19-0.66,0.28-1.09,0.28c-0.59,0-1.04-0.15-1.35-0.46c-0.32-0.31-0.47-0.72-0.47-1.23c0-0.59,0.21-1.03,0.64-1.32
		s1.03-0.43,1.82-0.43h0.98v-0.42c0-0.32-0.08-0.57-0.25-0.75c-0.17-0.18-0.44-0.26-0.81-0.26c-0.33,0-0.6,0.07-0.8,0.21
		c-0.2,0.14-0.37,0.31-0.51,0.51l-0.84-0.75c0.21-0.33,0.5-0.6,0.85-0.8c0.35-0.2,0.82-0.3,1.4-0.3c0.78,0,1.37,0.18,1.77,0.53
		s0.61,0.86,0.61,1.51v2.7h0.57v1.13H79.03z M76.7,20.51c0.32,0,0.58-0.07,0.8-0.21c0.22-0.14,0.33-0.34,0.33-0.61v-0.75h-0.9
		c-0.73,0-1.1,0.23-1.1,0.7v0.19c0,0.23,0.08,0.41,0.23,0.52S76.42,20.51,76.7,20.51z"/>
	<path class="st0" d="M80.96,21.41v-5.74h1.41v0.96h0.06c0.12-0.31,0.3-0.57,0.55-0.78c0.25-0.21,0.6-0.31,1.05-0.31
		c0.59,0,1.05,0.19,1.36,0.58s0.47,0.94,0.47,1.66v3.63h-1.41v-3.49c0-0.41-0.07-0.72-0.22-0.92c-0.15-0.21-0.39-0.31-0.73-0.31
		c-0.15,0-0.29,0.02-0.42,0.06c-0.14,0.04-0.26,0.1-0.36,0.18s-0.19,0.17-0.26,0.29c-0.07,0.11-0.1,0.25-0.1,0.4v3.79H80.96z"/>
	<path class="st0" d="M90.99,20.45h-0.05c-0.1,0.33-0.3,0.59-0.58,0.79c-0.29,0.2-0.62,0.3-1,0.3c-0.73,0-1.28-0.26-1.67-0.78
		s-0.58-1.27-0.58-2.23c0-0.96,0.19-1.7,0.58-2.22s0.94-0.78,1.67-0.78c0.38,0,0.71,0.1,1,0.29s0.48,0.46,0.58,0.79h0.05v-3.34h1.41
		v8.14h-1.41V20.45z M89.8,20.37c0.34,0,0.62-0.08,0.85-0.24s0.34-0.39,0.34-0.69v-1.83c0-0.28-0.11-0.5-0.34-0.67
		c-0.23-0.17-0.51-0.25-0.85-0.25c-0.37,0-0.66,0.12-0.89,0.37c-0.22,0.25-0.34,0.57-0.34,0.98v0.99c0,0.41,0.11,0.74,0.34,0.98
		S89.43,20.37,89.8,20.37z"/>
	<path class="st0" d="M98.89,21.54c-0.43,0-0.8-0.07-1.13-0.21s-0.61-0.34-0.83-0.6c-0.22-0.26-0.39-0.58-0.51-0.95
		c-0.12-0.37-0.18-0.79-0.18-1.25c0-0.46,0.06-0.88,0.18-1.24c0.12-0.37,0.29-0.68,0.51-0.94s0.5-0.46,0.83-0.6
		c0.33-0.14,0.71-0.21,1.13-0.21c0.58,0,1.06,0.13,1.44,0.39c0.38,0.26,0.65,0.61,0.82,1.07l-1.16,0.52
		c-0.07-0.24-0.19-0.44-0.37-0.6s-0.42-0.24-0.73-0.24c-0.4,0-0.69,0.12-0.89,0.37c-0.19,0.25-0.29,0.58-0.29,0.98v1.05
		c0,0.4,0.1,0.73,0.29,0.97c0.19,0.25,0.49,0.37,0.89,0.37c0.34,0,0.6-0.09,0.78-0.26c0.18-0.17,0.33-0.39,0.43-0.64l1.08,0.52
		c-0.19,0.51-0.48,0.89-0.87,1.14S99.44,21.54,98.89,21.54z"/>
	<path class="st0" d="M104.48,21.54c-0.41,0-0.78-0.07-1.11-0.21s-0.6-0.34-0.84-0.6c-0.23-0.26-0.41-0.58-0.53-0.95
		c-0.12-0.37-0.19-0.79-0.19-1.25c0-0.46,0.06-0.88,0.19-1.24c0.12-0.37,0.3-0.68,0.53-0.94c0.23-0.26,0.51-0.46,0.84-0.6
		c0.33-0.14,0.7-0.21,1.11-0.21c0.41,0,0.78,0.07,1.11,0.21c0.33,0.14,0.61,0.34,0.84,0.6c0.23,0.26,0.41,0.57,0.53,0.94
		c0.12,0.37,0.19,0.78,0.19,1.24c0,0.46-0.06,0.88-0.19,1.25c-0.12,0.37-0.3,0.69-0.53,0.95c-0.23,0.26-0.51,0.47-0.84,0.6
		S104.9,21.54,104.48,21.54z M104.48,20.4c0.37,0,0.67-0.11,0.88-0.34c0.21-0.23,0.32-0.56,0.32-1V18c0-0.43-0.11-0.76-0.32-0.99
		c-0.21-0.23-0.51-0.34-0.88-0.34c-0.37,0-0.66,0.11-0.87,0.34c-0.21,0.23-0.32,0.56-0.32,0.99v1.07c0,0.44,0.11,0.77,0.32,1
		C103.83,20.29,104.12,20.4,104.48,20.4z"/>
	<path class="st0" d="M108.4,21.41v-5.74h1.41v0.96h0.06c0.12-0.31,0.3-0.57,0.55-0.78c0.25-0.21,0.6-0.31,1.05-0.31
		c0.59,0,1.05,0.19,1.36,0.58s0.47,0.94,0.47,1.66v3.63h-1.41v-3.49c0-0.41-0.07-0.72-0.22-0.92c-0.15-0.21-0.39-0.31-0.73-0.31
		c-0.15,0-0.29,0.02-0.42,0.06c-0.14,0.04-0.26,0.1-0.36,0.18s-0.19,0.17-0.26,0.29c-0.07,0.11-0.1,0.25-0.1,0.4v3.79H108.4z"/>
	<path class="st0" d="M115.15,16.77h-0.85v-1.11h0.85v-0.82c0-0.51,0.13-0.89,0.4-1.17c0.27-0.27,0.66-0.41,1.18-0.41h1v1.13h-1.18
		v1.26h1.18v1.11h-1.18v4.63h-1.41V16.77z"/>
	<path class="st0" d="M120.12,21.41c-0.48,0-0.84-0.12-1.07-0.36c-0.23-0.24-0.34-0.58-0.34-1.02v-6.75h1.41v7.01h0.76v1.13H120.12z
		"/>
	<path class="st0" d="M122.66,14.83c-0.29,0-0.5-0.07-0.63-0.2c-0.13-0.13-0.19-0.3-0.19-0.51V13.9c0-0.21,0.06-0.37,0.19-0.51
		c0.13-0.13,0.34-0.2,0.63-0.2c0.29,0,0.5,0.07,0.63,0.2c0.13,0.13,0.2,0.3,0.2,0.51v0.22c0,0.21-0.07,0.37-0.2,0.51
		C123.15,14.76,122.94,14.83,122.66,14.83z M121.95,15.66h1.41v5.74h-1.41V15.66z"/>
	<path class="st0" d="M127.25,21.54c-0.43,0-0.8-0.07-1.13-0.21s-0.61-0.34-0.83-0.6c-0.22-0.26-0.39-0.58-0.51-0.95
		c-0.12-0.37-0.18-0.79-0.18-1.25c0-0.46,0.06-0.88,0.18-1.24c0.12-0.37,0.29-0.68,0.51-0.94s0.5-0.46,0.83-0.6
		c0.33-0.14,0.71-0.21,1.13-0.21c0.58,0,1.06,0.13,1.44,0.39c0.38,0.26,0.65,0.61,0.82,1.07l-1.16,0.52
		c-0.07-0.24-0.19-0.44-0.37-0.6s-0.42-0.24-0.73-0.24c-0.4,0-0.69,0.12-0.89,0.37c-0.19,0.25-0.29,0.58-0.29,0.98v1.05
		c0,0.4,0.1,0.73,0.29,0.97c0.19,0.25,0.49,0.37,0.89,0.37c0.34,0,0.6-0.09,0.78-0.26c0.18-0.17,0.33-0.39,0.43-0.64l1.08,0.52
		c-0.19,0.51-0.48,0.89-0.87,1.14S127.81,21.54,127.25,21.54z"/>
	<path class="st0" d="M132.42,21.41c-0.48,0-0.85-0.13-1.11-0.38c-0.25-0.25-0.38-0.61-0.38-1.08V16.8h-0.85v-1.13h0.44
		c0.21,0,0.36-0.05,0.43-0.15c0.08-0.1,0.12-0.25,0.12-0.45v-0.98h1.27v1.57h1.18v1.13h-1.18v3.48h1.09v1.13H132.42z"/>
	<path class="st0" d="M136.63,21.54c-0.55,0-1.01-0.09-1.39-0.28s-0.7-0.45-0.99-0.78l0.86-0.84c0.21,0.24,0.45,0.43,0.7,0.57
		c0.25,0.14,0.54,0.21,0.87,0.21c0.34,0,0.58-0.06,0.73-0.18c0.15-0.12,0.23-0.28,0.23-0.48c0-0.17-0.05-0.3-0.16-0.4
		c-0.11-0.1-0.29-0.17-0.54-0.2l-0.57-0.08c-0.62-0.08-1.1-0.26-1.42-0.53c-0.33-0.27-0.49-0.68-0.49-1.2
		c0-0.28,0.05-0.53,0.15-0.75s0.25-0.41,0.44-0.57c0.19-0.16,0.42-0.28,0.69-0.36c0.27-0.08,0.57-0.13,0.9-0.13
		c0.28,0,0.53,0.02,0.74,0.06c0.22,0.04,0.41,0.1,0.59,0.18c0.18,0.08,0.34,0.17,0.48,0.29s0.29,0.24,0.43,0.38l-0.83,0.83
		c-0.17-0.18-0.37-0.32-0.61-0.44s-0.49-0.18-0.77-0.18c-0.31,0-0.53,0.06-0.67,0.17c-0.14,0.11-0.2,0.25-0.2,0.43
		c0,0.19,0.06,0.34,0.17,0.43c0.11,0.1,0.31,0.17,0.58,0.21l0.58,0.08c1.24,0.18,1.86,0.74,1.86,1.69c0,0.28-0.06,0.53-0.17,0.76
		c-0.11,0.23-0.27,0.43-0.48,0.59s-0.45,0.29-0.74,0.39C137.31,21.49,136.99,21.54,136.63,21.54z"/>
	<path class="st0" d="M142.83,13.27h1.41v3.34h0.04c0.1-0.33,0.3-0.59,0.58-0.79c0.29-0.19,0.62-0.29,1-0.29
		c0.73,0,1.29,0.26,1.68,0.78s0.58,1.26,0.58,2.22c0,0.97-0.19,1.71-0.58,2.23s-0.94,0.78-1.68,0.78c-0.38,0-0.71-0.1-1-0.3
		c-0.28-0.2-0.48-0.46-0.59-0.79h-0.04v0.96h-1.41V13.27z M145.42,20.37c0.37,0,0.66-0.12,0.89-0.36s0.34-0.57,0.34-0.98v-0.99
		c0-0.41-0.11-0.74-0.34-0.98c-0.23-0.25-0.52-0.37-0.89-0.37c-0.34,0-0.62,0.08-0.84,0.25c-0.22,0.17-0.34,0.39-0.34,0.67v1.83
		c0,0.3,0.11,0.53,0.34,0.69S145.08,20.37,145.42,20.37z"/>
	<path class="st0" d="M151.75,21.54c-0.42,0-0.8-0.07-1.14-0.21c-0.33-0.14-0.62-0.34-0.85-0.6c-0.23-0.26-0.41-0.58-0.53-0.95
		c-0.12-0.37-0.19-0.79-0.19-1.25c0-0.45,0.06-0.87,0.18-1.23s0.29-0.68,0.52-0.94c0.23-0.26,0.51-0.46,0.84-0.6s0.7-0.21,1.12-0.21
		c0.45,0,0.84,0.08,1.17,0.23c0.33,0.15,0.6,0.36,0.81,0.63c0.21,0.26,0.37,0.57,0.48,0.92c0.11,0.35,0.16,0.72,0.16,1.12v0.46
		h-3.82v0.14c0,0.42,0.12,0.75,0.35,1c0.23,0.25,0.58,0.38,1.04,0.38c0.35,0,0.64-0.07,0.86-0.22s0.42-0.33,0.6-0.56l0.76,0.85
		c-0.23,0.33-0.56,0.59-0.96,0.78C152.76,21.44,152.29,21.54,151.75,21.54z M151.73,16.59c-0.37,0-0.67,0.12-0.89,0.37
		c-0.22,0.25-0.33,0.57-0.33,0.97v0.09h2.35v-0.1c0-0.4-0.1-0.72-0.29-0.96C152.38,16.71,152.09,16.59,151.73,16.59z"/>
	<path class="st0" d="M157.36,21.41c-0.48,0-0.85-0.13-1.11-0.38c-0.25-0.25-0.38-0.61-0.38-1.08V16.8h-0.85v-1.13h0.44
		c0.21,0,0.36-0.05,0.43-0.15c0.08-0.1,0.12-0.25,0.12-0.45v-0.98h1.27v1.57h1.18v1.13h-1.18v3.48h1.09v1.13H157.36z"/>
	<path class="st0" d="M159.12,15.66h1.35l0.58,2.37l0.45,1.97h0.04l0.53-1.97l0.67-2.37h1.28l0.69,2.37l0.54,1.97h0.04l0.45-1.97
		l0.57-2.37h1.31l-1.57,5.74h-1.52l-0.74-2.53l-0.43-1.56h-0.03l-0.42,1.56l-0.73,2.53h-1.5L159.12,15.66z"/>
	<path class="st0" d="M170.91,21.54c-0.42,0-0.8-0.07-1.14-0.21c-0.33-0.14-0.62-0.34-0.85-0.6c-0.23-0.26-0.41-0.58-0.53-0.95
		c-0.12-0.37-0.19-0.79-0.19-1.25c0-0.45,0.06-0.87,0.18-1.23s0.29-0.68,0.52-0.94c0.23-0.26,0.51-0.46,0.84-0.6s0.7-0.21,1.12-0.21
		c0.45,0,0.84,0.08,1.17,0.23c0.33,0.15,0.6,0.36,0.81,0.63c0.21,0.26,0.37,0.57,0.48,0.92c0.11,0.35,0.16,0.72,0.16,1.12v0.46
		h-3.82v0.14c0,0.42,0.12,0.75,0.35,1c0.23,0.25,0.58,0.38,1.04,0.38c0.35,0,0.64-0.07,0.86-0.22s0.42-0.33,0.6-0.56l0.76,0.85
		c-0.23,0.33-0.56,0.59-0.96,0.78C171.92,21.44,171.45,21.54,170.91,21.54z M170.89,16.59c-0.37,0-0.67,0.12-0.89,0.37
		c-0.22,0.25-0.33,0.57-0.33,0.97v0.09h2.35v-0.1c0-0.4-0.1-0.72-0.29-0.96C171.54,16.71,171.26,16.59,170.89,16.59z"/>
	<path class="st0" d="M177.05,21.54c-0.42,0-0.8-0.07-1.14-0.21c-0.33-0.14-0.62-0.34-0.85-0.6c-0.23-0.26-0.41-0.58-0.53-0.95
		c-0.12-0.37-0.19-0.79-0.19-1.25c0-0.45,0.06-0.87,0.18-1.23s0.29-0.68,0.52-0.94c0.23-0.26,0.51-0.46,0.84-0.6s0.7-0.21,1.12-0.21
		c0.45,0,0.84,0.08,1.17,0.23c0.33,0.15,0.6,0.36,0.81,0.63c0.21,0.26,0.37,0.57,0.48,0.92c0.11,0.35,0.16,0.72,0.16,1.12v0.46
		h-3.82v0.14c0,0.42,0.12,0.75,0.35,1c0.23,0.25,0.58,0.38,1.04,0.38c0.35,0,0.64-0.07,0.86-0.22s0.42-0.33,0.6-0.56l0.76,0.85
		c-0.23,0.33-0.56,0.59-0.96,0.78C178.06,21.44,177.58,21.54,177.05,21.54z M177.03,16.59c-0.37,0-0.67,0.12-0.89,0.37
		c-0.22,0.25-0.33,0.57-0.33,0.97v0.09h2.35v-0.1c0-0.4-0.1-0.72-0.29-0.96C177.67,16.71,177.39,16.59,177.03,16.59z"/>
	<path class="st0" d="M180.87,21.41v-5.74h1.41v0.96h0.06c0.12-0.31,0.3-0.57,0.55-0.78c0.25-0.21,0.6-0.31,1.05-0.31
		c0.59,0,1.05,0.19,1.36,0.58s0.47,0.94,0.47,1.66v3.63h-1.41v-3.49c0-0.41-0.07-0.72-0.22-0.92c-0.15-0.21-0.39-0.31-0.73-0.31
		c-0.15,0-0.29,0.02-0.42,0.06c-0.14,0.04-0.26,0.1-0.36,0.18s-0.19,0.17-0.26,0.29c-0.07,0.11-0.1,0.25-0.1,0.4v3.79H180.87z"/>
	<path class="st0" d="M2.33,34.61c-0.48,0-0.85-0.13-1.11-0.38c-0.25-0.25-0.38-0.61-0.38-1.08V30H0v-1.13h0.44
		c0.21,0,0.36-0.05,0.43-0.15c0.08-0.1,0.12-0.25,0.12-0.45v-0.98h1.27v1.57h1.18V30H2.25v3.48h1.09v1.13H2.33z"/>
	<path class="st0" d="M4.65,26.47h1.41v3.35h0.06c0.12-0.31,0.3-0.57,0.55-0.78c0.25-0.21,0.6-0.31,1.05-0.31
		c0.59,0,1.05,0.19,1.36,0.58s0.47,0.94,0.47,1.66v3.63H8.15v-3.49c0-0.41-0.07-0.72-0.22-0.92c-0.15-0.21-0.39-0.31-0.73-0.31
		c-0.15,0-0.29,0.02-0.42,0.06c-0.14,0.04-0.26,0.1-0.36,0.18s-0.19,0.17-0.26,0.29c-0.07,0.11-0.1,0.25-0.1,0.4v3.79H4.65V26.47z"
		/>
	<path class="st0" d="M13.44,34.74c-0.42,0-0.8-0.07-1.14-0.21c-0.33-0.14-0.62-0.34-0.85-0.6c-0.23-0.26-0.41-0.58-0.53-0.95
		c-0.12-0.37-0.19-0.79-0.19-1.25c0-0.45,0.06-0.87,0.18-1.23s0.29-0.68,0.52-0.94c0.23-0.26,0.51-0.46,0.84-0.6s0.7-0.21,1.12-0.21
		c0.45,0,0.84,0.08,1.17,0.23c0.33,0.15,0.6,0.36,0.81,0.63c0.21,0.26,0.37,0.57,0.48,0.92c0.11,0.35,0.16,0.72,0.16,1.12v0.46H12.2
		v0.14c0,0.42,0.12,0.75,0.35,1c0.23,0.25,0.58,0.38,1.04,0.38c0.35,0,0.64-0.07,0.86-0.22s0.42-0.33,0.6-0.56l0.76,0.85
		c-0.23,0.33-0.56,0.59-0.96,0.78C14.45,34.64,13.98,34.74,13.44,34.74z M13.42,29.79c-0.37,0-0.67,0.12-0.89,0.37
		c-0.22,0.25-0.33,0.57-0.33,0.97v0.09h2.35v-0.1c0-0.4-0.1-0.72-0.29-0.96C14.07,29.91,13.79,29.79,13.42,29.79z"/>
	<path class="st0" d="M25.74,29.09H25.7l-0.59,1.22l-1.57,2.9l-1.57-2.9l-0.59-1.22h-0.04v5.51h-1.38v-7.68h1.64l1.97,3.75h0.04
		l1.95-3.75h1.57v7.68h-1.38V29.09z"/>
	<path class="st0" d="M29.53,28.03c-0.29,0-0.5-0.07-0.63-0.2c-0.13-0.13-0.19-0.3-0.19-0.51V27.1c0-0.21,0.06-0.37,0.19-0.51
		c0.13-0.13,0.34-0.2,0.63-0.2c0.29,0,0.5,0.07,0.63,0.2c0.13,0.13,0.2,0.3,0.2,0.51v0.22c0,0.21-0.07,0.37-0.2,0.51
		C30.03,27.96,29.82,28.03,29.53,28.03z M28.83,28.86h1.41v5.74h-1.41V28.86z"/>
	<path class="st0" d="M31.3,28.86h1.35l0.58,2.37l0.45,1.97h0.04l0.53-1.97l0.67-2.37h1.28l0.69,2.37l0.54,1.97h0.04l0.45-1.97
		l0.57-2.37h1.31l-1.57,5.74h-1.52l-0.74-2.53l-0.43-1.56h-0.03l-0.42,1.56l-0.73,2.53h-1.5L31.3,28.86z"/>
	<path class="st0" d="M43.05,34.74c-0.41,0-0.78-0.07-1.11-0.21s-0.6-0.34-0.84-0.6c-0.23-0.26-0.41-0.58-0.53-0.95
		c-0.12-0.37-0.19-0.79-0.19-1.25c0-0.46,0.06-0.88,0.19-1.24c0.12-0.37,0.3-0.68,0.53-0.94c0.23-0.26,0.51-0.46,0.84-0.6
		c0.33-0.14,0.7-0.21,1.11-0.21c0.41,0,0.78,0.07,1.11,0.21c0.33,0.14,0.61,0.34,0.84,0.6c0.23,0.26,0.41,0.57,0.53,0.94
		c0.12,0.37,0.19,0.78,0.19,1.24c0,0.46-0.06,0.88-0.19,1.25c-0.12,0.37-0.3,0.69-0.53,0.95c-0.23,0.26-0.51,0.47-0.84,0.6
		S43.46,34.74,43.05,34.74z M43.05,33.6c0.37,0,0.67-0.11,0.88-0.34c0.21-0.23,0.32-0.56,0.32-1V31.2c0-0.43-0.11-0.76-0.32-0.99
		c-0.21-0.23-0.51-0.34-0.88-0.34c-0.37,0-0.66,0.11-0.87,0.34c-0.21,0.23-0.32,0.56-0.32,0.99v1.07c0,0.44,0.11,0.77,0.32,1
		C42.4,33.49,42.69,33.6,43.05,33.6z"/>
	<path class="st0" d="M46.97,26.47h1.41v4.91h0.06l0.76-1.03l1.29-1.47h1.59l-1.98,2.22l2.19,3.52h-1.67l-1.47-2.57l-0.76,0.83v1.75
		h-1.41V26.47z"/>
	<path class="st0" d="M54.92,34.74c-0.55,0-1.01-0.09-1.39-0.28s-0.7-0.45-0.99-0.78l0.86-0.84c0.21,0.24,0.45,0.43,0.7,0.57
		c0.25,0.14,0.54,0.21,0.87,0.21c0.34,0,0.58-0.06,0.73-0.18c0.15-0.12,0.23-0.28,0.23-0.48c0-0.17-0.05-0.3-0.16-0.4
		c-0.11-0.1-0.29-0.17-0.54-0.2l-0.57-0.08c-0.62-0.08-1.1-0.26-1.42-0.53c-0.33-0.27-0.49-0.68-0.49-1.2
		c0-0.28,0.05-0.53,0.15-0.75s0.25-0.41,0.44-0.57c0.19-0.16,0.42-0.28,0.69-0.36c0.27-0.08,0.57-0.13,0.9-0.13
		c0.28,0,0.53,0.02,0.74,0.06c0.22,0.04,0.41,0.1,0.59,0.18c0.18,0.08,0.34,0.17,0.48,0.29s0.29,0.24,0.43,0.38l-0.83,0.83
		c-0.17-0.18-0.37-0.32-0.61-0.44s-0.49-0.18-0.77-0.18c-0.31,0-0.53,0.06-0.67,0.17c-0.14,0.11-0.2,0.25-0.2,0.43
		c0,0.19,0.06,0.34,0.17,0.43c0.11,0.1,0.31,0.17,0.58,0.21l0.58,0.08c1.24,0.18,1.86,0.74,1.86,1.69c0,0.28-0.06,0.53-0.17,0.76
		c-0.11,0.23-0.27,0.43-0.48,0.59s-0.45,0.29-0.74,0.39C55.61,34.69,55.28,34.74,54.92,34.74z"/>
	<path class="st0" d="M65.35,34.61c-0.31,0-0.55-0.09-0.73-0.27s-0.29-0.42-0.34-0.72h-0.07c-0.1,0.37-0.29,0.65-0.58,0.84
		c-0.29,0.19-0.66,0.28-1.09,0.28c-0.59,0-1.04-0.15-1.35-0.46c-0.32-0.31-0.47-0.72-0.47-1.23c0-0.59,0.21-1.03,0.64-1.32
		s1.03-0.43,1.82-0.43h0.98v-0.42c0-0.32-0.08-0.57-0.25-0.75c-0.17-0.18-0.44-0.26-0.81-0.26c-0.33,0-0.6,0.07-0.8,0.21
		c-0.2,0.14-0.37,0.31-0.51,0.51l-0.84-0.75c0.21-0.33,0.5-0.6,0.85-0.8c0.35-0.2,0.82-0.3,1.4-0.3c0.78,0,1.37,0.18,1.77,0.53
		s0.61,0.86,0.61,1.51v2.7h0.57v1.13H65.35z M63.02,33.71c0.32,0,0.58-0.07,0.8-0.21c0.22-0.14,0.33-0.34,0.33-0.61v-0.75h-0.9
		c-0.73,0-1.1,0.23-1.1,0.7v0.19c0,0.23,0.08,0.41,0.23,0.52S62.74,33.71,63.02,33.71z"/>
	<path class="st0" d="M67.27,34.61v-5.74h1.41v0.96h0.06c0.12-0.31,0.3-0.57,0.55-0.78c0.25-0.21,0.6-0.31,1.05-0.31
		c0.59,0,1.05,0.19,1.36,0.58s0.47,0.94,0.47,1.66v3.63h-1.41v-3.49c0-0.41-0.07-0.72-0.22-0.92c-0.15-0.21-0.39-0.31-0.73-0.31
		c-0.15,0-0.29,0.02-0.42,0.06c-0.14,0.04-0.26,0.1-0.36,0.18s-0.19,0.17-0.26,0.29c-0.07,0.11-0.1,0.25-0.1,0.4v3.79H67.27z"/>
	<path class="st0" d="M77.31,33.65h-0.05c-0.1,0.33-0.3,0.59-0.58,0.79c-0.29,0.2-0.62,0.3-1,0.3c-0.73,0-1.28-0.26-1.67-0.78
		s-0.58-1.27-0.58-2.23c0-0.96,0.19-1.7,0.58-2.22s0.94-0.78,1.67-0.78c0.38,0,0.71,0.1,1,0.29s0.48,0.46,0.58,0.79h0.05v-3.34h1.41
		v8.14h-1.41V33.65z M76.12,33.57c0.34,0,0.62-0.08,0.85-0.24s0.34-0.39,0.34-0.69v-1.83c0-0.28-0.11-0.5-0.34-0.67
		c-0.23-0.17-0.51-0.25-0.85-0.25c-0.37,0-0.66,0.12-0.89,0.37c-0.22,0.25-0.34,0.57-0.34,0.98v0.99c0,0.41,0.11,0.74,0.34,0.98
		S75.75,33.57,76.12,33.57z"/>
	<path class="st0" d="M82.94,34.61v-5.74h1.41v0.96h0.06c0.11-0.3,0.29-0.56,0.53-0.77c0.24-0.21,0.58-0.32,1.01-0.32
		c0.4,0,0.74,0.1,1.02,0.29c0.29,0.19,0.5,0.48,0.64,0.87h0.02c0.1-0.32,0.31-0.6,0.61-0.82s0.69-0.34,1.15-0.34
		c0.56,0,1,0.19,1.3,0.58s0.46,0.94,0.46,1.66v3.63h-1.41v-3.49c0-0.82-0.31-1.23-0.92-1.23c-0.14,0-0.27,0.02-0.4,0.06
		c-0.13,0.04-0.24,0.1-0.34,0.18c-0.1,0.08-0.18,0.17-0.24,0.29s-0.09,0.25-0.09,0.4v3.79h-1.41v-3.49c0-0.82-0.31-1.23-0.92-1.23
		c-0.13,0-0.26,0.02-0.39,0.06c-0.13,0.04-0.24,0.1-0.34,0.18s-0.18,0.17-0.24,0.29s-0.09,0.25-0.09,0.4v3.79H82.94z"/>
	<path class="st0" d="M93.41,28.03c-0.29,0-0.5-0.07-0.63-0.2c-0.13-0.13-0.19-0.3-0.19-0.51V27.1c0-0.21,0.06-0.37,0.19-0.51
		c0.13-0.13,0.34-0.2,0.63-0.2c0.29,0,0.5,0.07,0.63,0.2c0.13,0.13,0.2,0.3,0.2,0.51v0.22c0,0.21-0.07,0.37-0.2,0.51
		C93.9,27.96,93.69,28.03,93.41,28.03z M92.71,28.86h1.41v5.74h-1.41V28.86z"/>
	<path class="st0" d="M95.74,34.61v-5.74h1.41v0.96h0.06c0.12-0.31,0.3-0.57,0.55-0.78c0.25-0.21,0.6-0.31,1.05-0.31
		c0.59,0,1.05,0.19,1.36,0.58s0.47,0.94,0.47,1.66v3.63h-1.41v-3.49c0-0.41-0.07-0.72-0.22-0.92c-0.15-0.21-0.39-0.31-0.73-0.31
		c-0.15,0-0.29,0.02-0.42,0.06c-0.14,0.04-0.26,0.1-0.36,0.18s-0.19,0.17-0.26,0.29c-0.07,0.11-0.1,0.25-0.1,0.4v3.79H95.74z"/>
	<path class="st0" d="M104.53,34.74c-0.42,0-0.8-0.07-1.14-0.21c-0.33-0.14-0.62-0.34-0.85-0.6c-0.23-0.26-0.41-0.58-0.53-0.95
		c-0.12-0.37-0.19-0.79-0.19-1.25c0-0.45,0.06-0.87,0.18-1.23s0.29-0.68,0.52-0.94c0.23-0.26,0.51-0.46,0.84-0.6s0.7-0.21,1.12-0.21
		c0.45,0,0.84,0.08,1.17,0.23c0.33,0.15,0.6,0.36,0.81,0.63c0.21,0.26,0.37,0.57,0.48,0.92c0.11,0.35,0.16,0.72,0.16,1.12v0.46
		h-3.82v0.14c0,0.42,0.12,0.75,0.35,1c0.23,0.25,0.58,0.38,1.04,0.38c0.35,0,0.64-0.07,0.86-0.22s0.42-0.33,0.6-0.56l0.76,0.85
		c-0.23,0.33-0.56,0.59-0.96,0.78C105.54,34.64,105.06,34.74,104.53,34.74z M104.51,29.79c-0.37,0-0.67,0.12-0.89,0.37
		c-0.22,0.25-0.33,0.57-0.33,0.97v0.09h2.35v-0.1c0-0.4-0.1-0.72-0.29-0.96C105.15,29.91,104.87,29.79,104.51,29.79z"/>
	<path class="st0" d="M108.35,34.61v-5.74h1.41v1.19h0.06c0.04-0.15,0.09-0.3,0.17-0.45s0.18-0.27,0.3-0.38s0.27-0.2,0.45-0.26
		c0.17-0.07,0.37-0.1,0.6-0.1h0.31v1.33h-0.44c-0.48,0-0.84,0.07-1.08,0.21c-0.24,0.14-0.36,0.37-0.36,0.68v3.52H108.35z"/>
	<path class="st0" d="M114.55,34.74c-0.55,0-1.01-0.09-1.39-0.28s-0.7-0.45-0.99-0.78l0.86-0.84c0.21,0.24,0.45,0.43,0.7,0.57
		c0.25,0.14,0.54,0.21,0.87,0.21c0.34,0,0.58-0.06,0.73-0.18c0.15-0.12,0.23-0.28,0.23-0.48c0-0.17-0.05-0.3-0.16-0.4
		c-0.11-0.1-0.29-0.17-0.54-0.2l-0.57-0.08c-0.62-0.08-1.1-0.26-1.42-0.53c-0.33-0.27-0.49-0.68-0.49-1.2
		c0-0.28,0.05-0.53,0.15-0.75s0.25-0.41,0.44-0.57c0.19-0.16,0.42-0.28,0.69-0.36c0.27-0.08,0.57-0.13,0.9-0.13
		c0.28,0,0.53,0.02,0.74,0.06c0.22,0.04,0.41,0.1,0.59,0.18c0.18,0.08,0.34,0.17,0.48,0.29s0.29,0.24,0.43,0.38l-0.83,0.83
		c-0.17-0.18-0.37-0.32-0.61-0.44s-0.49-0.18-0.77-0.18c-0.31,0-0.53,0.06-0.67,0.17c-0.14,0.11-0.2,0.25-0.2,0.43
		c0,0.19,0.06,0.34,0.17,0.43c0.11,0.1,0.31,0.17,0.58,0.21l0.58,0.08c1.24,0.18,1.86,0.74,1.86,1.69c0,0.28-0.06,0.53-0.17,0.76
		c-0.11,0.23-0.27,0.43-0.48,0.59s-0.45,0.29-0.74,0.39C115.23,34.69,114.91,34.74,114.55,34.74z"/>
	<path class="st0" d="M120.75,26.47h1.41v3.34h0.04c0.1-0.33,0.3-0.59,0.58-0.79c0.29-0.19,0.62-0.29,1-0.29
		c0.73,0,1.29,0.26,1.68,0.78s0.58,1.26,0.58,2.22c0,0.97-0.19,1.71-0.58,2.23s-0.94,0.78-1.68,0.78c-0.38,0-0.71-0.1-1-0.3
		c-0.28-0.2-0.48-0.46-0.59-0.79h-0.04v0.96h-1.41V26.47z M123.34,33.57c0.37,0,0.66-0.12,0.89-0.36s0.34-0.57,0.34-0.98v-0.99
		c0-0.41-0.11-0.74-0.34-0.98c-0.23-0.25-0.52-0.37-0.89-0.37c-0.34,0-0.62,0.08-0.84,0.25c-0.22,0.17-0.34,0.39-0.34,0.67v1.83
		c0,0.3,0.11,0.53,0.34,0.69S123,33.57,123.34,33.57z"/>
	<path class="st0" d="M129.67,34.74c-0.42,0-0.8-0.07-1.14-0.21c-0.33-0.14-0.62-0.34-0.85-0.6c-0.23-0.26-0.41-0.58-0.53-0.95
		c-0.12-0.37-0.19-0.79-0.19-1.25c0-0.45,0.06-0.87,0.18-1.23s0.29-0.68,0.52-0.94c0.23-0.26,0.51-0.46,0.84-0.6s0.7-0.21,1.12-0.21
		c0.45,0,0.84,0.08,1.17,0.23c0.33,0.15,0.6,0.36,0.81,0.63c0.21,0.26,0.37,0.57,0.48,0.92c0.11,0.35,0.16,0.72,0.16,1.12v0.46
		h-3.82v0.14c0,0.42,0.12,0.75,0.35,1c0.23,0.25,0.58,0.38,1.04,0.38c0.35,0,0.64-0.07,0.86-0.22s0.42-0.33,0.6-0.56l0.76,0.85
		c-0.23,0.33-0.56,0.59-0.96,0.78C130.68,34.64,130.21,34.74,129.67,34.74z M129.65,29.79c-0.37,0-0.67,0.12-0.89,0.37
		c-0.22,0.25-0.33,0.57-0.33,0.97v0.09h2.35v-0.1c0-0.4-0.1-0.72-0.29-0.96C130.3,29.91,130.02,29.79,129.65,29.79z"/>
	<path class="st0" d="M138.67,35.09c0,0.3-0.05,0.57-0.16,0.8c-0.11,0.23-0.28,0.42-0.52,0.58c-0.24,0.15-0.55,0.27-0.94,0.35
		s-0.85,0.12-1.4,0.12c-0.48,0-0.9-0.03-1.23-0.09c-0.34-0.06-0.61-0.15-0.83-0.26c-0.22-0.11-0.37-0.25-0.47-0.42
		c-0.1-0.17-0.14-0.36-0.14-0.57c0-0.32,0.09-0.57,0.27-0.75s0.43-0.3,0.75-0.35v-0.12c-0.23-0.06-0.42-0.17-0.54-0.35
		c-0.13-0.17-0.19-0.38-0.19-0.61c0-0.15,0.03-0.28,0.09-0.39s0.14-0.21,0.24-0.29c0.1-0.08,0.21-0.15,0.33-0.2
		c0.12-0.06,0.26-0.1,0.4-0.13v-0.04c-0.35-0.16-0.61-0.38-0.79-0.67c-0.17-0.29-0.26-0.62-0.26-1c0-0.59,0.2-1.06,0.6-1.41
		s0.99-0.53,1.77-0.53c0.18,0,0.35,0.01,0.52,0.03c0.17,0.02,0.33,0.06,0.48,0.11v-0.19c0-0.56,0.27-0.84,0.81-0.84h0.89v1.08h-1.22
		v0.15c0.3,0.17,0.52,0.39,0.67,0.66c0.15,0.27,0.22,0.58,0.22,0.94c0,0.58-0.2,1.04-0.6,1.4c-0.4,0.35-0.99,0.53-1.78,0.53
		c-0.34,0-0.63-0.03-0.88-0.1c-0.11,0.05-0.21,0.12-0.29,0.2c-0.08,0.08-0.12,0.19-0.12,0.31c0,0.29,0.25,0.43,0.75,0.43h1.54
		c0.7,0,1.21,0.14,1.53,0.43C138.51,34.18,138.67,34.58,138.67,35.09z M137.35,35.25c0-0.18-0.07-0.33-0.22-0.43
		c-0.15-0.1-0.4-0.15-0.76-0.15h-1.96c-0.2,0.15-0.3,0.34-0.3,0.59c0,0.22,0.09,0.39,0.27,0.52c0.18,0.12,0.5,0.19,0.94,0.19h0.7
		c0.46,0,0.8-0.06,1.01-0.18S137.35,35.5,137.35,35.25z M135.66,31.64c0.69,0,1.03-0.29,1.03-0.88v-0.19c0-0.58-0.34-0.88-1.03-0.88
		c-0.69,0-1.03,0.29-1.03,0.88v0.19C134.62,31.34,134.97,31.64,135.66,31.64z"/>
	<path class="st0" d="M140.19,28.03c-0.29,0-0.5-0.07-0.63-0.2c-0.13-0.13-0.19-0.3-0.19-0.51V27.1c0-0.21,0.06-0.37,0.19-0.51
		c0.13-0.13,0.34-0.2,0.63-0.2c0.29,0,0.5,0.07,0.63,0.2c0.13,0.13,0.2,0.3,0.2,0.51v0.22c0,0.21-0.07,0.37-0.2,0.51
		C140.69,27.96,140.48,28.03,140.19,28.03z M139.49,28.86h1.41v5.74h-1.41V28.86z"/>
	<path class="st0" d="M142.52,34.61v-5.74h1.41v0.96h0.06c0.12-0.31,0.3-0.57,0.55-0.78c0.25-0.21,0.6-0.31,1.05-0.31
		c0.59,0,1.05,0.19,1.36,0.58s0.47,0.94,0.47,1.66v3.63h-1.41v-3.49c0-0.41-0.07-0.72-0.22-0.92c-0.15-0.21-0.39-0.31-0.73-0.31
		c-0.15,0-0.29,0.02-0.42,0.06c-0.14,0.04-0.26,0.1-0.36,0.18s-0.19,0.17-0.26,0.29c-0.07,0.11-0.1,0.25-0.1,0.4v3.79H142.52z"/>
	<path class="st0" d="M149.82,34.73c-0.3,0-0.52-0.08-0.67-0.23c-0.14-0.15-0.21-0.34-0.21-0.58v-0.2c0-0.23,0.07-0.43,0.21-0.58
		c0.14-0.15,0.36-0.23,0.67-0.23c0.31,0,0.53,0.08,0.67,0.23c0.14,0.15,0.21,0.35,0.21,0.58v0.2c0,0.23-0.07,0.43-0.21,0.58
		C150.35,34.65,150.12,34.73,149.82,34.73z"/>
</g>
</svg>
