<!-- Generator: Adobe Illustrator 23.1.1, SVG Export Plug-In  -->
<svg version="1.1" xmlns="http://www.w3.org/2000/svg" xmlns:xlink="http://www.w3.org/1999/xlink" x="0px" y="0px"
	 width="111.24px" height="110.49px" viewBox="0 0 111.24 110.49" style="enable-background:new 0 0 111.24 110.49;"
	 xml:space="preserve">
<style type="text/css">
	.st0{fill:#5A5837;}
	.st1{fill:#FDFEFE;}
</style>
<defs>
</defs>
<g id="auFg2k_2_">
	<g>
		<path class="st0" d="M6.17,80.86C-1.15,64.63-2.61,48.1,5.35,31.82C13.37,15.44,25.84,5.08,44.63,1.25
			c39.38-8.02,67.14,23.91,66.61,54.34c-0.4,22.51-15.1,43.84-36.48,51.53c-21.71,7.81-45.67,1.8-60.81-15.55
			c-0.76-0.87-1.61-1.67-2.41-2.5C9.75,86.34,7.96,83.6,6.17,80.86z M55.6,103.08c29.52-0.24,48.17-24.26,48.24-48.09
			C103.92,28.67,82,6.87,55.42,6.94C29.17,7.01,7.38,28.68,7.49,54.97C7.61,82.43,29.55,103.01,55.6,103.08z"/>
		<path class="st1" d="M55.6,103.08C29.55,103.01,7.61,82.43,7.49,54.97C7.38,28.68,29.17,7.01,55.42,6.94
			C82,6.87,103.92,28.67,103.84,54.99C103.77,78.82,85.12,102.84,55.6,103.08z M48.19,38.31c0,5.82,0.04,11.64-0.01,17.46
			c-0.04,4.47,2.03,6.9,6.56,6.92c9.65,0.04,19.3,0.04,28.94,0c3.75-0.02,6.21-2.03,6.13-5.71c-0.08-3.68-2.52-5.46-6.38-5.38
			c-6.65,0.13-13.31-0.12-19.96,0.1c-3.15,0.11-4.33-0.65-4.23-4.06c0.25-8.64,0.01-17.29,0.11-25.94c0.05-3.99-1.65-6.73-5.63-6.68
			c-3.99,0.05-5.6,2.93-5.55,6.83C48.24,27.34,48.19,32.83,48.19,38.31z"/>
		<path class="st0" d="M48.19,38.31c0-5.49,0.05-10.98-0.02-16.46c-0.05-3.9,1.56-6.78,5.55-6.83c3.98-0.05,5.67,2.7,5.63,6.68
			c-0.1,8.65,0.14,17.3-0.11,25.94c-0.1,3.41,1.08,4.16,4.23,4.06c6.65-0.22,13.31,0.03,19.96-0.1c3.86-0.08,6.29,1.7,6.38,5.38
			c0.08,3.68-2.38,5.7-6.13,5.71c-9.65,0.04-19.3,0.04-28.94,0c-4.53-0.02-6.6-2.44-6.56-6.92C48.23,49.95,48.19,44.13,48.19,38.31z
			"/>
	</g>
</g>
</svg>
