<!-- Generator: Adobe Illustrator 23.1.1, SVG Export Plug-In  -->
<svg version="1.1" xmlns="http://www.w3.org/2000/svg" xmlns:xlink="http://www.w3.org/1999/xlink" x="0px" y="0px" width="56.29px"
	 height="12.57px" viewBox="0 0 56.29 12.57" style="enable-background:new 0 0 56.29 12.57;" xml:space="preserve">
<style type="text/css">
	.st0{fill:#3E3B27;}
</style>
<defs>
</defs>
<g>
	<path class="st0" d="M4.49,1.4v8.37H2.91V1.4H0V0h7.41v1.4H4.49z"/>
	<path class="st0" d="M13.19,9.77c-0.4,0-0.71-0.11-0.92-0.34c-0.21-0.23-0.35-0.52-0.39-0.88H11.8c-0.14,0.46-0.4,0.8-0.77,1.04
		c-0.37,0.23-0.83,0.35-1.36,0.35c-0.76,0-1.34-0.2-1.74-0.59C7.53,8.96,7.32,8.43,7.32,7.77c0-0.73,0.26-1.27,0.79-1.64
		c0.53-0.36,1.3-0.55,2.32-0.55h1.32V4.97c0-0.45-0.12-0.79-0.36-1.04c-0.24-0.24-0.62-0.36-1.13-0.36c-0.43,0-0.78,0.09-1.05,0.28
		C8.93,4.04,8.7,4.27,8.51,4.56L7.6,3.74c0.24-0.41,0.58-0.75,1.02-1.01c0.44-0.27,1.01-0.4,1.72-0.4c0.94,0,1.67,0.22,2.17,0.66
		c0.5,0.44,0.76,1.07,0.76,1.89v3.65h0.77v1.25H13.19z M10.11,8.78c0.48,0,0.87-0.1,1.18-0.31s0.46-0.49,0.46-0.85V6.57h-1.29
		c-1.05,0-1.58,0.33-1.58,0.98V7.8c0,0.33,0.11,0.57,0.33,0.74C9.42,8.7,9.73,8.78,10.11,8.78z"/>
	<path class="st0" d="M15.54,2.49h1.53v1.2h0.07c0.16-0.44,0.42-0.78,0.78-1.01c0.36-0.24,0.78-0.36,1.27-0.36
		c0.92,0,1.64,0.33,2.14,1c0.5,0.67,0.76,1.6,0.76,2.81s-0.25,2.14-0.76,2.81c-0.5,0.67-1.22,1-2.14,1c-0.49,0-0.91-0.12-1.27-0.36
		C17.55,9.33,17.29,9,17.14,8.57h-0.07v4h-1.53V2.49z M18.72,8.62c0.53,0,0.96-0.17,1.27-0.51c0.32-0.34,0.48-0.79,0.48-1.35V5.5
		c0-0.56-0.16-1.01-0.48-1.35c-0.32-0.34-0.74-0.51-1.27-0.51c-0.47,0-0.86,0.11-1.18,0.34c-0.32,0.23-0.48,0.53-0.48,0.9v2.49
		c0,0.37,0.16,0.67,0.48,0.9C17.86,8.51,18.25,8.62,18.72,8.62z"/>
	<path class="st0" d="M33.25,5.52h-4.42v4.26h-1.58V0h1.58v4.12h4.42V0h1.58v9.77h-1.58V5.52z"/>
	<path class="st0" d="M39.98,9.94c-0.52,0-0.99-0.09-1.4-0.27s-0.76-0.43-1.05-0.76c-0.29-0.33-0.51-0.73-0.67-1.2
		s-0.23-1-0.23-1.58c0-0.58,0.08-1.1,0.23-1.57s0.38-0.87,0.67-1.2c0.29-0.33,0.64-0.59,1.05-0.76c0.41-0.18,0.88-0.27,1.4-0.27
		c0.53,0,1,0.09,1.41,0.28c0.41,0.19,0.74,0.45,1.02,0.78c0.27,0.33,0.47,0.72,0.61,1.16c0.14,0.44,0.2,0.91,0.2,1.41v0.57h-5v0.24
		c0,0.56,0.17,1.01,0.5,1.37c0.33,0.36,0.8,0.54,1.42,0.54c0.45,0,0.83-0.1,1.13-0.29c0.31-0.19,0.57-0.46,0.78-0.79l0.9,0.88
		c-0.27,0.45-0.66,0.81-1.18,1.07C41.26,9.81,40.67,9.94,39.98,9.94z M39.98,3.51c-0.26,0-0.5,0.05-0.72,0.14
		c-0.22,0.09-0.41,0.22-0.56,0.39s-0.27,0.37-0.36,0.6s-0.13,0.49-0.13,0.77v0.1h3.39V5.38c0-0.56-0.14-1.01-0.43-1.35
		C40.88,3.68,40.49,3.51,39.98,3.51z"/>
	<path class="st0" d="M44.91,9.77V2.49h1.53v1.4h0.07c0.1-0.37,0.32-0.7,0.64-0.98c0.33-0.28,0.78-0.42,1.36-0.42h0.41v1.47h-0.6
		c-0.61,0-1.07,0.1-1.39,0.29c-0.32,0.2-0.48,0.49-0.48,0.87v4.65H44.91z"/>
	<path class="st0" d="M53.06,9.94c-0.52,0-0.99-0.09-1.4-0.27s-0.76-0.43-1.05-0.76c-0.29-0.33-0.51-0.73-0.67-1.2
		s-0.23-1-0.23-1.58c0-0.58,0.08-1.1,0.23-1.57s0.38-0.87,0.67-1.2c0.29-0.33,0.64-0.59,1.05-0.76c0.41-0.18,0.88-0.27,1.4-0.27
		c0.53,0,1,0.09,1.41,0.28c0.41,0.19,0.74,0.45,1.02,0.78c0.27,0.33,0.47,0.72,0.61,1.16c0.14,0.44,0.2,0.91,0.2,1.41v0.57h-5v0.24
		c0,0.56,0.17,1.01,0.5,1.37c0.33,0.36,0.8,0.54,1.42,0.54c0.45,0,0.83-0.1,1.13-0.29c0.31-0.19,0.57-0.46,0.78-0.79l0.9,0.88
		c-0.27,0.45-0.66,0.81-1.18,1.07C54.34,9.81,53.74,9.94,53.06,9.94z M53.06,3.51c-0.26,0-0.5,0.05-0.72,0.14
		c-0.22,0.09-0.41,0.22-0.56,0.39s-0.27,0.37-0.36,0.6S51.3,5.14,51.3,5.42v0.1h3.39V5.38c0-0.56-0.14-1.01-0.43-1.35
		C53.96,3.68,53.56,3.51,53.06,3.51z"/>
</g>
</svg>
