<!-- Generator: Adobe Illustrator 23.1.1, SVG Export Plug-In  -->
<svg version="1.1" xmlns="http://www.w3.org/2000/svg" xmlns:xlink="http://www.w3.org/1999/xlink" x="0px" y="0px" width="53.34px"
	 height="10.43px" viewBox="0 0 53.34 10.43" style="enable-background:new 0 0 53.34 10.43;" xml:space="preserve">
<style type="text/css">
	.st0{fill:#595738;}
</style>
<defs>
</defs>
<g>
	<path class="st0" d="M1.32,10.26L2.1,6.33L0,0.49h0.83l1.79,4.97h0.06l3.78-4.97h0.94L2.91,6.33l-0.78,3.93H1.32z"/>
	<path class="st0" d="M8.97,10.43c-0.76,0-1.36-0.25-1.81-0.74C6.71,9.19,6.48,8.51,6.48,7.63c0-0.63,0.08-1.22,0.25-1.79
		c0.17-0.56,0.41-1.06,0.72-1.5s0.7-0.78,1.15-1.04c0.45-0.26,0.96-0.38,1.52-0.38c0.76,0,1.36,0.25,1.81,0.74
		c0.45,0.5,0.68,1.18,0.68,2.06c0,0.63-0.08,1.22-0.25,1.79c-0.17,0.56-0.41,1.06-0.72,1.5c-0.31,0.43-0.7,0.78-1.15,1.04
		C10.04,10.3,9.53,10.43,8.97,10.43z M9.07,9.74c0.62,0,1.16-0.22,1.61-0.67c0.45-0.45,0.75-1.08,0.91-1.9l0.17-0.85
		c0.03-0.13,0.05-0.26,0.06-0.38c0.01-0.13,0.01-0.26,0.01-0.4c0-0.27-0.04-0.52-0.11-0.76c-0.07-0.23-0.19-0.44-0.34-0.61
		c-0.15-0.17-0.34-0.31-0.56-0.41s-0.49-0.15-0.8-0.15c-0.63,0-1.16,0.22-1.61,0.67C7.97,4.73,7.66,5.37,7.5,6.19L7.34,7.04
		C7.31,7.17,7.29,7.3,7.28,7.43c-0.01,0.13-0.01,0.26-0.01,0.4c0,0.55,0.15,1.01,0.45,1.37C8.01,9.56,8.47,9.74,9.07,9.74z"/>
	<path class="st0" d="M16.23,10.43c-0.57,0-1.08-0.12-1.55-0.35c-0.46-0.23-0.84-0.57-1.13-1.01l0.55-0.46
		c0.51,0.76,1.22,1.13,2.13,1.13c0.55,0,1-0.13,1.34-0.4c0.34-0.26,0.51-0.65,0.51-1.15c0-0.31-0.09-0.56-0.27-0.74
		c-0.18-0.18-0.5-0.32-0.95-0.42l-0.6-0.14c-0.26-0.06-0.5-0.13-0.72-0.22c-0.22-0.09-0.41-0.2-0.57-0.34
		c-0.16-0.14-0.29-0.31-0.38-0.51s-0.13-0.45-0.13-0.74c0-0.63,0.22-1.14,0.67-1.55c0.44-0.41,1.07-0.61,1.87-0.61
		c0.57,0,1.04,0.1,1.4,0.3c0.36,0.2,0.67,0.46,0.92,0.79l-0.55,0.48c-0.18-0.24-0.41-0.45-0.69-0.62c-0.28-0.17-0.66-0.26-1.15-0.26
		c-0.56,0-0.99,0.13-1.28,0.38s-0.44,0.6-0.44,1.03c0,0.32,0.09,0.57,0.27,0.75s0.49,0.31,0.92,0.42L17,6.34
		c0.27,0.06,0.52,0.13,0.74,0.22c0.22,0.09,0.42,0.21,0.57,0.35c0.16,0.14,0.28,0.31,0.37,0.51c0.09,0.2,0.13,0.45,0.13,0.74
		c0,0.35-0.07,0.67-0.2,0.95c-0.13,0.28-0.31,0.52-0.55,0.72c-0.23,0.2-0.51,0.35-0.83,0.45C16.93,10.38,16.59,10.43,16.23,10.43z"
		/>
	<path class="st0" d="M23.18,10.43c-0.84,0-1.49-0.25-1.94-0.73c-0.45-0.49-0.68-1.22-0.68-2.19c0-0.62,0.09-1.2,0.27-1.76
		c0.18-0.56,0.42-1.04,0.74-1.46c0.32-0.42,0.7-0.75,1.15-0.99c0.45-0.25,0.95-0.37,1.5-0.37c0.32,0,0.61,0.04,0.89,0.12
		c0.28,0.08,0.52,0.2,0.72,0.35c0.21,0.15,0.37,0.35,0.49,0.58c0.12,0.23,0.18,0.5,0.18,0.8c0,0.33-0.08,0.63-0.25,0.91
		c-0.17,0.28-0.45,0.52-0.85,0.73c-0.4,0.21-0.92,0.37-1.58,0.49s-1.46,0.19-2.44,0.2c-0.02,0.09-0.03,0.2-0.04,0.31
		c0,0.12-0.01,0.21-0.01,0.29c0,0.67,0.16,1.18,0.47,1.53c0.31,0.35,0.78,0.52,1.41,0.52c0.5,0,0.96-0.13,1.36-0.38
		s0.74-0.59,1.02-1.01l0.53,0.42c-0.42,0.6-0.88,1.02-1.38,1.27C24.26,10.3,23.73,10.43,23.18,10.43z M24.14,3.61
		c-0.65,0-1.21,0.23-1.66,0.7c-0.45,0.47-0.76,1.08-0.92,1.83l-0.07,0.33c0.88-0.03,1.59-0.09,2.14-0.17s0.98-0.21,1.29-0.36
		c0.31-0.15,0.52-0.32,0.62-0.52s0.16-0.42,0.16-0.66c0-0.4-0.14-0.69-0.43-0.88C24.99,3.71,24.61,3.61,24.14,3.61z"/>
	<path class="st0" d="M27.54,10.26l1.43-7.17h0.78l-0.29,1.43h0.06c0.25-0.52,0.56-0.92,0.92-1.19c0.36-0.27,0.81-0.41,1.35-0.41
		c0.53,0,0.94,0.15,1.23,0.45c0.28,0.3,0.45,0.7,0.48,1.19h0.07c0.24-0.53,0.56-0.93,0.95-1.22c0.39-0.28,0.86-0.42,1.41-0.42
		c0.6,0,1.05,0.17,1.35,0.5c0.3,0.34,0.46,0.81,0.46,1.43c0,0.14-0.01,0.29-0.02,0.45c-0.01,0.16-0.04,0.32-0.08,0.48l-0.76,3.79
		h1.09l-0.14,0.69h-1.04c-0.21,0-0.38-0.05-0.5-0.15c-0.12-0.1-0.18-0.25-0.18-0.44c0-0.07,0-0.13,0.01-0.19
		c0.01-0.06,0.02-0.13,0.04-0.2l0.7-3.49c0.03-0.15,0.05-0.3,0.06-0.45c0.01-0.15,0.02-0.28,0.02-0.38c0-0.9-0.42-1.35-1.26-1.35
		c-0.26,0-0.52,0.05-0.76,0.16c-0.25,0.11-0.48,0.28-0.69,0.53c-0.21,0.22-0.38,0.49-0.53,0.79c-0.15,0.3-0.26,0.62-0.32,0.96
		l-0.85,4.21h-0.77l0.9-4.48c0.03-0.15,0.05-0.3,0.07-0.45c0.02-0.15,0.03-0.28,0.03-0.39c0-0.89-0.4-1.33-1.2-1.33
		c-0.55,0-1.03,0.23-1.44,0.69c-0.22,0.23-0.42,0.51-0.59,0.83c-0.17,0.32-0.29,0.64-0.36,0.97l-0.83,4.17H27.54z"/>
	<path class="st0" d="M40.25,10.26c-0.24,0-0.42-0.06-0.54-0.17c-0.12-0.12-0.17-0.27-0.17-0.47c0-0.05,0-0.09,0-0.13
		c0-0.04,0.01-0.09,0.03-0.15l1.26-6.24h0.77l-1.3,6.48h1.09l-0.14,0.69H40.25z M41.64,1.15c-0.18,0-0.3-0.04-0.37-0.12
		c-0.07-0.08-0.11-0.17-0.11-0.27c0-0.03,0-0.06,0.01-0.1c0-0.04,0.02-0.11,0.04-0.21C41.26,0.15,41.46,0,41.8,0
		c0.18,0,0.3,0.04,0.37,0.12c0.07,0.08,0.11,0.17,0.11,0.27c0,0.03,0,0.06-0.01,0.1c0,0.04-0.02,0.11-0.04,0.21
		C42.18,1,41.98,1.15,41.64,1.15z"/>
	<path class="st0" d="M44.07,10.26c-0.26,0-0.45-0.06-0.56-0.17c-0.11-0.12-0.17-0.27-0.17-0.46c0-0.15,0.01-0.28,0.04-0.39
		l1.09-5.46H43.3l0.14-0.69h0.71c0.21,0,0.36-0.04,0.43-0.13c0.07-0.08,0.13-0.23,0.17-0.43l0.29-1.44h0.73l-0.41,2h1.6l-0.14,0.69
		h-1.58l-1.16,5.8h1.48l-0.14,0.69H44.07z"/>
	<path class="st0" d="M50.02,10.43c-0.84,0-1.49-0.25-1.94-0.73C47.63,9.21,47.4,8.48,47.4,7.5c0-0.62,0.09-1.2,0.27-1.76
		c0.18-0.56,0.42-1.04,0.74-1.46c0.32-0.42,0.7-0.75,1.15-0.99c0.45-0.25,0.95-0.37,1.5-0.37c0.32,0,0.61,0.04,0.89,0.12
		c0.28,0.08,0.52,0.2,0.72,0.35c0.21,0.15,0.37,0.35,0.49,0.58c0.12,0.23,0.18,0.5,0.18,0.8c0,0.33-0.08,0.63-0.25,0.91
		c-0.17,0.28-0.45,0.52-0.85,0.73c-0.4,0.21-0.92,0.37-1.58,0.49s-1.46,0.19-2.44,0.2c-0.02,0.09-0.03,0.2-0.04,0.31
		c0,0.12-0.01,0.21-0.01,0.29c0,0.67,0.16,1.18,0.47,1.53c0.31,0.35,0.78,0.52,1.41,0.52c0.5,0,0.96-0.13,1.36-0.38
		s0.74-0.59,1.02-1.01l0.53,0.42c-0.42,0.6-0.88,1.02-1.38,1.27C51.1,10.3,50.57,10.43,50.02,10.43z M50.97,3.61
		c-0.65,0-1.21,0.23-1.66,0.7c-0.45,0.47-0.76,1.08-0.92,1.83l-0.07,0.33c0.88-0.03,1.59-0.09,2.14-0.17s0.98-0.21,1.29-0.36
		c0.31-0.15,0.52-0.32,0.62-0.52s0.16-0.42,0.16-0.66c0-0.4-0.14-0.69-0.43-0.88C51.83,3.71,51.45,3.61,50.97,3.61z"/>
</g>
</svg>
