<!-- Generator: Adobe Illustrator 23.1.1, SVG Export Plug-In  -->
<svg version="1.1" xmlns="http://www.w3.org/2000/svg" xmlns:xlink="http://www.w3.org/1999/xlink" x="0px" y="0px" width="26.45px"
	 height="26.45px" viewBox="0 0 26.45 26.45" style="enable-background:new 0 0 26.45 26.45;" xml:space="preserve">
<style type="text/css">
	.st0{fill:#FDFEFE;}
	.st1{fill:#5A5837;}
</style>
<defs>
</defs>
<circle class="st0" cx="13.23" cy="13.23" r="13.23"/>
<g>
	<path class="st1" d="M6.91,19.54L6.91,19.54c-0.39-0.39-0.39-1.02,0-1.41L18.13,6.91c0.39-0.39,1.02-0.39,1.41,0l0,0
		c0.39,0.39,0.39,1.02,0,1.41L8.32,19.54C7.93,19.93,7.3,19.93,6.91,19.54z"/>
	<path class="st1" d="M19.54,19.54L19.54,19.54c-0.39,0.39-1.02,0.39-1.41,0L6.91,8.32c-0.39-0.39-0.39-1.02,0-1.41l0,0
		c0.39-0.39,1.02-0.39,1.41,0l11.22,11.22C19.93,18.52,19.93,19.15,19.54,19.54z"/>
</g>
</svg>
