<!-- Generator: Adobe Illustrator 23.1.1, SVG Export Plug-In  -->
<svg version="1.1" xmlns="http://www.w3.org/2000/svg" xmlns:xlink="http://www.w3.org/1999/xlink" x="0px" y="0px" width="63.64px"
	 height="9.77px" viewBox="0 0 63.64 9.77" style="enable-background:new 0 0 63.64 9.77;" xml:space="preserve">
<style type="text/css">
	.st0{fill:#595738;}
</style>
<defs>
</defs>
<g>
	<path class="st0" d="M4.49,1.4v8.37H2.91V1.4H0V0h7.41v1.4H4.49z"/>
	<path class="st0" d="M8.44,9.77V8.48h1.33v-7.2H8.44V0h4.26v1.29h-1.34v7.2h1.34v1.29H8.44z"/>
	<path class="st0" d="M22.16,2.3h-0.07l-0.77,1.58l-2.14,3.91l-2.14-3.91L16.27,2.3H16.2v7.48h-1.51V0h1.88l2.62,4.97h0.08L21.88,0
		h1.79v9.77h-1.51V2.3z"/>
	<path class="st0" d="M26.08,9.77V0h6.26v1.4h-4.68v2.72h4.24v1.4h-4.24v2.86h4.68v1.4H26.08z"/>
	<path class="st0" d="M34.38,9.77V0h1.58v8.37h3.98v1.4H34.38z"/>
	<path class="st0" d="M41.15,9.77V8.48h1.33v-7.2h-1.33V0h4.26v1.29h-1.34v7.2h1.34v1.29H41.15z"/>
	<path class="st0" d="M50.02,4.37L48.94,2.3H48.9v7.48h-1.51V0h1.76l3.19,5.4l1.08,2.07h0.04V0h1.51v9.77h-1.76L50.02,4.37z"/>
	<path class="st0" d="M57.39,9.77V0h6.26v1.4h-4.68v2.72h4.24v1.4h-4.24v2.86h4.68v1.4H57.39z"/>
</g>
</svg>
