<!-- Generator: Adobe Illustrator 23.1.1, SVG Export Plug-In  -->
<svg version="1.1" xmlns="http://www.w3.org/2000/svg" xmlns:xlink="http://www.w3.org/1999/xlink" x="0px" y="0px"
	 width="170.86px" height="34.74px" viewBox="0 0 170.86 34.74" style="enable-background:new 0 0 170.86 34.74;"
	 xml:space="preserve">
<style type="text/css">
	.st0{fill:#FFFFFF;}
</style>
<defs>
</defs>
<g>
	<path class="st0" d="M4.85,0.53v5.52c0,0.34-0.06,0.66-0.17,0.93C4.57,7.26,4.41,7.5,4.2,7.7C3.99,7.9,3.73,8.05,3.43,8.16
		S2.79,8.33,2.42,8.33c-0.71,0-1.26-0.19-1.66-0.56C0.36,7.39,0.11,6.9,0,6.28l1.34-0.28C1.41,6.34,1.53,6.59,1.7,6.77
		c0.17,0.18,0.41,0.27,0.71,0.27c0.29,0,0.52-0.09,0.71-0.27C3.31,6.59,3.4,6.32,3.4,5.94V1.72H0.98V0.53H4.85z"/>
	<path class="st0" d="M8.8,8.34c-0.41,0-0.78-0.07-1.11-0.21s-0.6-0.34-0.84-0.6C6.63,7.26,6.45,6.94,6.33,6.57
		C6.2,6.2,6.14,5.79,6.14,5.32c0-0.46,0.06-0.88,0.19-1.24c0.12-0.37,0.3-0.68,0.53-0.94c0.23-0.26,0.51-0.46,0.84-0.6
		C8.02,2.4,8.39,2.33,8.8,2.33c0.41,0,0.78,0.07,1.11,0.21c0.33,0.14,0.61,0.34,0.84,0.6c0.23,0.26,0.41,0.57,0.53,0.94
		c0.12,0.37,0.19,0.78,0.19,1.24c0,0.46-0.06,0.88-0.19,1.25c-0.12,0.37-0.3,0.69-0.53,0.95c-0.23,0.26-0.51,0.47-0.84,0.6
		S9.21,8.34,8.8,8.34z M8.8,7.21c0.37,0,0.67-0.11,0.88-0.34C9.89,6.64,10,6.3,10,5.86V4.8c0-0.43-0.11-0.76-0.32-0.99
		C9.47,3.58,9.17,3.46,8.8,3.46c-0.37,0-0.66,0.11-0.87,0.34C7.72,4.03,7.61,4.36,7.61,4.8v1.07c0,0.44,0.11,0.77,0.32,1
		C8.14,7.09,8.43,7.21,8.8,7.21z"/>
	<path class="st0" d="M12.72,0.07h1.41v3.35h0.06c0.12-0.31,0.3-0.57,0.55-0.78c0.25-0.21,0.6-0.31,1.05-0.31
		c0.59,0,1.05,0.19,1.36,0.58s0.47,0.94,0.47,1.66v3.63h-1.41V4.72c0-0.41-0.07-0.72-0.22-0.92c-0.15-0.21-0.39-0.31-0.73-0.31
		c-0.15,0-0.29,0.02-0.42,0.06c-0.14,0.04-0.26,0.1-0.36,0.18s-0.19,0.17-0.26,0.29c-0.07,0.11-0.1,0.25-0.1,0.4v3.79h-1.41V0.07z"
		/>
	<path class="st0" d="M19.18,8.21V2.46h1.41v0.96h0.06c0.12-0.31,0.3-0.57,0.55-0.78c0.25-0.21,0.6-0.31,1.05-0.31
		c0.59,0,1.05,0.19,1.36,0.58s0.47,0.94,0.47,1.66v3.63h-1.41V4.72c0-0.41-0.07-0.72-0.22-0.92c-0.15-0.21-0.39-0.31-0.73-0.31
		c-0.15,0-0.29,0.02-0.42,0.06c-0.14,0.04-0.26,0.1-0.36,0.18s-0.19,0.17-0.26,0.29c-0.07,0.11-0.1,0.25-0.1,0.4v3.79H19.18z"/>
	<path class="st0" d="M34.13,2.69h-0.04l-0.59,1.22l-1.57,2.9l-1.57-2.9l-0.59-1.22h-0.04v5.51h-1.38V0.53h1.64l1.97,3.75h0.04
		l1.95-3.75h1.57v7.68h-1.38V2.69z"/>
	<path class="st0" d="M40.65,7.25H40.6c-0.05,0.15-0.12,0.28-0.2,0.41s-0.19,0.24-0.32,0.35c-0.13,0.1-0.28,0.18-0.46,0.24
		s-0.39,0.09-0.62,0.09c-0.59,0-1.05-0.19-1.36-0.58c-0.32-0.39-0.47-0.94-0.47-1.66V2.46h1.41v3.49c0,0.4,0.08,0.7,0.23,0.91
		c0.15,0.21,0.4,0.31,0.74,0.31c0.14,0,0.28-0.02,0.41-0.05s0.25-0.09,0.36-0.17c0.1-0.08,0.19-0.17,0.25-0.29
		c0.07-0.11,0.1-0.25,0.1-0.4v-3.8h1.41v5.74h-1.41V7.25z"/>
	<path class="st0" d="M44.39,1.63c-0.29,0-0.5-0.07-0.63-0.2c-0.13-0.13-0.19-0.3-0.19-0.51V0.7c0-0.21,0.06-0.37,0.19-0.51
		C43.89,0.07,44.1,0,44.39,0c0.29,0,0.5,0.07,0.63,0.2c0.13,0.13,0.2,0.3,0.2,0.51v0.22c0,0.21-0.07,0.37-0.2,0.51
		C44.89,1.56,44.68,1.63,44.39,1.63z M43.69,2.46h1.41v5.74h-1.41V2.46z"/>
	<path class="st0" d="M46.73,8.21V2.46h1.41v1.19h0.06c0.04-0.15,0.09-0.3,0.17-0.45s0.18-0.27,0.3-0.38s0.27-0.2,0.45-0.26
		c0.17-0.07,0.37-0.1,0.6-0.1h0.31v1.33h-0.44c-0.48,0-0.84,0.07-1.08,0.21c-0.24,0.14-0.36,0.37-0.36,0.68v3.52H46.73z"/>
	<path class="st0" d="M58.83,8.69c0,0.3-0.05,0.57-0.16,0.8c-0.11,0.23-0.28,0.42-0.52,0.58c-0.24,0.15-0.55,0.27-0.94,0.35
		s-0.85,0.12-1.4,0.12c-0.48,0-0.9-0.03-1.23-0.09c-0.34-0.06-0.61-0.15-0.83-0.26c-0.22-0.11-0.37-0.25-0.47-0.42
		c-0.1-0.17-0.14-0.36-0.14-0.57c0-0.32,0.09-0.57,0.27-0.75s0.43-0.3,0.75-0.35V7.96c-0.23-0.06-0.42-0.17-0.54-0.35
		c-0.13-0.17-0.19-0.38-0.19-0.61c0-0.15,0.03-0.28,0.09-0.39s0.14-0.21,0.24-0.29c0.1-0.08,0.21-0.15,0.33-0.2
		c0.12-0.06,0.26-0.1,0.4-0.13V5.95c-0.35-0.16-0.61-0.38-0.79-0.67c-0.17-0.29-0.26-0.62-0.26-1c0-0.59,0.2-1.06,0.6-1.41
		s0.99-0.53,1.77-0.53c0.18,0,0.35,0.01,0.52,0.03c0.17,0.02,0.33,0.06,0.48,0.11V2.29c0-0.56,0.27-0.84,0.81-0.84h0.89v1.08H57.3
		v0.15c0.3,0.17,0.52,0.39,0.67,0.66c0.15,0.27,0.22,0.58,0.22,0.94c0,0.58-0.2,1.04-0.6,1.4c-0.4,0.35-0.99,0.53-1.78,0.53
		c-0.34,0-0.63-0.03-0.88-0.1c-0.11,0.05-0.21,0.12-0.29,0.2c-0.08,0.08-0.12,0.19-0.12,0.31c0,0.29,0.25,0.43,0.75,0.43h1.54
		c0.7,0,1.21,0.14,1.53,0.43C58.67,7.78,58.83,8.18,58.83,8.69z M57.51,8.85c0-0.18-0.07-0.33-0.22-0.43
		c-0.15-0.1-0.4-0.15-0.76-0.15h-1.96c-0.2,0.15-0.3,0.34-0.3,0.59c0,0.22,0.09,0.39,0.27,0.52c0.18,0.12,0.5,0.19,0.94,0.19h0.7
		c0.46,0,0.8-0.06,1.01-0.18S57.51,9.1,57.51,8.85z M55.81,5.24c0.69,0,1.03-0.29,1.03-0.88V4.18c0-0.58-0.34-0.88-1.03-0.88
		c-0.69,0-1.03,0.29-1.03,0.88v0.19C54.78,4.94,55.12,5.24,55.81,5.24z"/>
	<path class="st0" d="M61.89,8.34c-0.42,0-0.8-0.07-1.14-0.21c-0.33-0.14-0.62-0.34-0.85-0.6c-0.23-0.26-0.41-0.58-0.53-0.95
		c-0.12-0.37-0.19-0.79-0.19-1.25c0-0.45,0.06-0.87,0.18-1.23s0.29-0.68,0.52-0.94c0.23-0.26,0.51-0.46,0.84-0.6s0.7-0.21,1.12-0.21
		c0.45,0,0.84,0.08,1.17,0.23c0.33,0.15,0.6,0.36,0.81,0.63c0.21,0.26,0.37,0.57,0.48,0.92c0.11,0.35,0.16,0.72,0.16,1.12v0.46
		h-3.82v0.14c0,0.42,0.12,0.75,0.35,1c0.23,0.25,0.58,0.38,1.04,0.38c0.35,0,0.64-0.07,0.86-0.22s0.42-0.33,0.6-0.56l0.76,0.85
		c-0.23,0.33-0.56,0.59-0.96,0.78C62.9,8.24,62.43,8.34,61.89,8.34z M61.87,3.39c-0.37,0-0.67,0.12-0.89,0.37
		c-0.22,0.25-0.33,0.57-0.33,0.97v0.09h2.35v-0.1c0-0.4-0.1-0.72-0.29-0.96C62.52,3.51,62.24,3.39,61.87,3.39z"/>
	<path class="st0" d="M67.5,8.21c-0.48,0-0.85-0.13-1.11-0.38c-0.25-0.25-0.38-0.61-0.38-1.08V3.6h-0.85V2.46h0.44
		c0.21,0,0.36-0.05,0.43-0.15c0.08-0.1,0.12-0.25,0.12-0.45V0.89h1.27v1.57h1.18V3.6h-1.18v3.48h1.09v1.13H67.5z"/>
	<path class="st0" d="M71.71,8.34c-0.55,0-1.01-0.09-1.39-0.28s-0.7-0.45-0.99-0.78l0.86-0.84c0.21,0.24,0.45,0.43,0.7,0.57
		c0.25,0.14,0.54,0.21,0.87,0.21c0.34,0,0.58-0.06,0.73-0.18c0.15-0.12,0.23-0.28,0.23-0.48c0-0.17-0.05-0.3-0.16-0.4
		c-0.11-0.1-0.29-0.17-0.54-0.2l-0.57-0.08c-0.62-0.08-1.1-0.26-1.42-0.53c-0.33-0.27-0.49-0.68-0.49-1.2
		c0-0.28,0.05-0.53,0.15-0.75s0.25-0.41,0.44-0.57c0.19-0.16,0.42-0.28,0.69-0.36c0.27-0.08,0.57-0.13,0.9-0.13
		c0.28,0,0.53,0.02,0.74,0.06c0.22,0.04,0.41,0.1,0.59,0.18c0.18,0.08,0.34,0.17,0.48,0.29s0.29,0.24,0.43,0.38l-0.83,0.83
		c-0.17-0.18-0.37-0.32-0.61-0.44s-0.49-0.18-0.77-0.18c-0.31,0-0.53,0.06-0.67,0.17c-0.14,0.11-0.2,0.25-0.2,0.43
		c0,0.19,0.06,0.34,0.17,0.43c0.11,0.1,0.31,0.17,0.58,0.21l0.58,0.08c1.24,0.18,1.86,0.74,1.86,1.69c0,0.28-0.06,0.53-0.17,0.76
		c-0.11,0.23-0.27,0.43-0.48,0.59s-0.45,0.29-0.74,0.39C72.39,8.29,72.07,8.34,71.71,8.34z"/>
	<path class="st0" d="M79.84,8.21V5.19l-2.63-4.66h1.63l1.77,3.25h0.02l1.73-3.25h1.58L81.3,5.18v3.02H79.84z"/>
	<path class="st0" d="M86.51,8.34c-0.41,0-0.78-0.07-1.11-0.21s-0.6-0.34-0.84-0.6c-0.23-0.26-0.41-0.58-0.53-0.95
		c-0.12-0.37-0.19-0.79-0.19-1.25c0-0.46,0.06-0.88,0.19-1.24c0.12-0.37,0.3-0.68,0.53-0.94c0.23-0.26,0.51-0.46,0.84-0.6
		c0.33-0.14,0.7-0.21,1.11-0.21c0.41,0,0.78,0.07,1.11,0.21c0.33,0.14,0.61,0.34,0.84,0.6C88.7,3.4,88.88,3.71,89,4.08
		c0.12,0.37,0.19,0.78,0.19,1.24c0,0.46-0.06,0.88-0.19,1.25c-0.12,0.37-0.3,0.69-0.53,0.95c-0.23,0.26-0.51,0.47-0.84,0.6
		S86.92,8.34,86.51,8.34z M86.51,7.21c0.37,0,0.67-0.11,0.88-0.34c0.21-0.23,0.32-0.56,0.32-1V4.8c0-0.43-0.11-0.76-0.32-0.99
		c-0.21-0.23-0.51-0.34-0.88-0.34c-0.37,0-0.66,0.11-0.87,0.34c-0.21,0.23-0.32,0.56-0.32,0.99v1.07c0,0.44,0.11,0.77,0.32,1
		C85.86,7.09,86.15,7.21,86.51,7.21z"/>
	<path class="st0" d="M92.31,8.34c-0.55,0-1.01-0.09-1.39-0.28s-0.7-0.45-0.99-0.78l0.86-0.84c0.21,0.24,0.45,0.43,0.7,0.57
		c0.25,0.14,0.54,0.21,0.87,0.21c0.34,0,0.58-0.06,0.73-0.18c0.15-0.12,0.23-0.28,0.23-0.48c0-0.17-0.05-0.3-0.16-0.4
		c-0.11-0.1-0.29-0.17-0.54-0.2l-0.57-0.08c-0.62-0.08-1.1-0.26-1.42-0.53c-0.33-0.27-0.49-0.68-0.49-1.2
		c0-0.28,0.05-0.53,0.15-0.75s0.25-0.41,0.44-0.57c0.19-0.16,0.42-0.28,0.69-0.36c0.27-0.08,0.57-0.13,0.9-0.13
		c0.28,0,0.53,0.02,0.74,0.06c0.22,0.04,0.41,0.1,0.59,0.18c0.18,0.08,0.34,0.17,0.48,0.29s0.29,0.24,0.43,0.38l-0.83,0.83
		c-0.17-0.18-0.37-0.32-0.61-0.44s-0.49-0.18-0.77-0.18c-0.31,0-0.53,0.06-0.67,0.17c-0.14,0.11-0.2,0.25-0.2,0.43
		c0,0.19,0.06,0.34,0.17,0.43c0.11,0.1,0.31,0.17,0.58,0.21l0.58,0.08c1.24,0.18,1.86,0.74,1.86,1.69c0,0.28-0.06,0.53-0.17,0.76
		c-0.11,0.23-0.27,0.43-0.48,0.59s-0.45,0.29-0.74,0.39C92.99,8.29,92.67,8.34,92.31,8.34z"/>
	<path class="st0" d="M98.24,8.34c-0.42,0-0.8-0.07-1.14-0.21c-0.33-0.14-0.62-0.34-0.85-0.6c-0.23-0.26-0.41-0.58-0.53-0.95
		c-0.12-0.37-0.19-0.79-0.19-1.25c0-0.45,0.06-0.87,0.18-1.23s0.29-0.68,0.52-0.94c0.23-0.26,0.51-0.46,0.84-0.6s0.7-0.21,1.12-0.21
		c0.45,0,0.84,0.08,1.17,0.23c0.33,0.15,0.6,0.36,0.81,0.63c0.21,0.26,0.37,0.57,0.48,0.92c0.11,0.35,0.16,0.72,0.16,1.12v0.46H97
		v0.14c0,0.42,0.12,0.75,0.35,1c0.23,0.25,0.58,0.38,1.04,0.38c0.35,0,0.64-0.07,0.86-0.22s0.42-0.33,0.6-0.56l0.76,0.85
		c-0.23,0.33-0.56,0.59-0.96,0.78C99.25,8.24,98.77,8.34,98.24,8.34z M98.22,3.39c-0.37,0-0.67,0.12-0.89,0.37
		C97.11,4.01,97,4.33,97,4.73v0.09h2.35v-0.1c0-0.4-0.1-0.72-0.29-0.96C98.86,3.51,98.58,3.39,98.22,3.39z"/>
	<path class="st0" d="M102.06,8.21V2.46h1.41v0.96h0.06c0.11-0.3,0.29-0.56,0.53-0.77c0.24-0.21,0.58-0.32,1.01-0.32
		c0.4,0,0.74,0.1,1.02,0.29c0.29,0.19,0.5,0.48,0.64,0.87h0.02c0.1-0.32,0.31-0.6,0.61-0.82s0.69-0.34,1.15-0.34
		c0.56,0,1,0.19,1.3,0.58s0.46,0.94,0.46,1.66v3.63h-1.41V4.72c0-0.82-0.31-1.23-0.92-1.23c-0.14,0-0.27,0.02-0.4,0.06
		c-0.13,0.04-0.24,0.1-0.34,0.18c-0.1,0.08-0.18,0.17-0.24,0.29s-0.09,0.25-0.09,0.4v3.79h-1.41V4.72c0-0.82-0.31-1.23-0.92-1.23
		c-0.13,0-0.26,0.02-0.39,0.06c-0.13,0.04-0.24,0.1-0.34,0.18s-0.18,0.17-0.24,0.29s-0.09,0.25-0.09,0.4v3.79H102.06z"/>
	<path class="st0" d="M112.53,1.63c-0.29,0-0.5-0.07-0.63-0.2c-0.13-0.13-0.19-0.3-0.19-0.51V0.7c0-0.21,0.06-0.37,0.19-0.51
		c0.13-0.13,0.34-0.2,0.63-0.2c0.29,0,0.5,0.07,0.63,0.2c0.13,0.13,0.2,0.3,0.2,0.51v0.22c0,0.21-0.07,0.37-0.2,0.51
		C113.02,1.56,112.81,1.63,112.53,1.63z M111.82,2.46h1.41v5.74h-1.41V2.46z"/>
	<path class="st0" d="M116.65,8.21c-0.48,0-0.85-0.13-1.11-0.38c-0.25-0.25-0.38-0.61-0.38-1.08V3.6h-0.85V2.46h0.44
		c0.21,0,0.36-0.05,0.43-0.15c0.08-0.1,0.12-0.25,0.12-0.45V0.89h1.27v1.57h1.18V3.6h-1.18v3.48h1.09v1.13H116.65z"/>
	<path class="st0" d="M121.25,8.34c-0.42,0-0.8-0.07-1.14-0.21c-0.33-0.14-0.62-0.34-0.85-0.6c-0.23-0.26-0.41-0.58-0.53-0.95
		c-0.12-0.37-0.19-0.79-0.19-1.25c0-0.45,0.06-0.87,0.18-1.23s0.29-0.68,0.52-0.94c0.23-0.26,0.51-0.46,0.84-0.6s0.7-0.21,1.12-0.21
		c0.45,0,0.84,0.08,1.17,0.23c0.33,0.15,0.6,0.36,0.81,0.63c0.21,0.26,0.37,0.57,0.48,0.92c0.11,0.35,0.16,0.72,0.16,1.12v0.46
		h-3.82v0.14c0,0.42,0.12,0.75,0.35,1c0.23,0.25,0.58,0.38,1.04,0.38c0.35,0,0.64-0.07,0.86-0.22s0.42-0.33,0.6-0.56l0.76,0.85
		c-0.23,0.33-0.56,0.59-0.96,0.78C122.26,8.24,121.79,8.34,121.25,8.34z M121.23,3.39c-0.37,0-0.67,0.12-0.89,0.37
		c-0.22,0.25-0.33,0.57-0.33,0.97v0.09h2.35v-0.1c0-0.4-0.1-0.72-0.29-0.96C121.88,3.51,121.59,3.39,121.23,3.39z"/>
	<path class="st0" d="M131.89,8.21c-0.31,0-0.55-0.09-0.73-0.27s-0.29-0.42-0.34-0.72h-0.07c-0.1,0.37-0.29,0.65-0.58,0.84
		c-0.29,0.19-0.66,0.28-1.09,0.28c-0.59,0-1.04-0.15-1.35-0.46c-0.32-0.31-0.47-0.72-0.47-1.23c0-0.59,0.21-1.03,0.64-1.32
		s1.03-0.43,1.82-0.43h0.98V4.48c0-0.32-0.08-0.57-0.25-0.75c-0.17-0.18-0.44-0.26-0.81-0.26c-0.33,0-0.6,0.07-0.8,0.21
		c-0.2,0.14-0.37,0.31-0.51,0.51l-0.84-0.75c0.21-0.33,0.5-0.6,0.85-0.8c0.35-0.2,0.82-0.3,1.4-0.3c0.78,0,1.37,0.18,1.77,0.53
		s0.61,0.86,0.61,1.51v2.7h0.57v1.13H131.89z M129.55,7.31c0.32,0,0.58-0.07,0.8-0.21c0.22-0.14,0.33-0.34,0.33-0.61V5.74h-0.9
		c-0.73,0-1.1,0.23-1.1,0.7v0.19c0,0.23,0.08,0.41,0.23,0.52S129.28,7.31,129.55,7.31z"/>
	<path class="st0" d="M133.81,8.21V2.46h1.41v1.19h0.06c0.04-0.15,0.09-0.3,0.17-0.45s0.18-0.27,0.3-0.38s0.27-0.2,0.45-0.26
		c0.17-0.07,0.37-0.1,0.6-0.1h0.31v1.33h-0.44c-0.48,0-0.84,0.07-1.08,0.21c-0.24,0.14-0.36,0.37-0.36,0.68v3.52H133.81z"/>
	<path class="st0" d="M140.4,8.34c-0.42,0-0.8-0.07-1.14-0.21c-0.33-0.14-0.62-0.34-0.85-0.6c-0.23-0.26-0.41-0.58-0.53-0.95
		c-0.12-0.37-0.19-0.79-0.19-1.25c0-0.45,0.06-0.87,0.18-1.23s0.29-0.68,0.52-0.94c0.23-0.26,0.51-0.46,0.84-0.6s0.7-0.21,1.12-0.21
		c0.45,0,0.84,0.08,1.17,0.23c0.33,0.15,0.6,0.36,0.81,0.63c0.21,0.26,0.37,0.57,0.48,0.92c0.11,0.35,0.16,0.72,0.16,1.12v0.46
		h-3.82v0.14c0,0.42,0.12,0.75,0.35,1c0.23,0.25,0.58,0.38,1.04,0.38c0.35,0,0.64-0.07,0.86-0.22s0.42-0.33,0.6-0.56l0.76,0.85
		c-0.23,0.33-0.56,0.59-0.96,0.78C141.41,8.24,140.94,8.34,140.4,8.34z M140.38,3.39c-0.37,0-0.67,0.12-0.89,0.37
		c-0.22,0.25-0.33,0.57-0.33,0.97v0.09h2.35v-0.1c0-0.4-0.1-0.72-0.29-0.96C141.03,3.51,140.75,3.39,140.38,3.39z"/>
	<path class="st0" d="M148.44,8.21c-0.31,0-0.55-0.09-0.73-0.27s-0.29-0.42-0.34-0.72h-0.07c-0.1,0.37-0.29,0.65-0.58,0.84
		c-0.29,0.19-0.66,0.28-1.09,0.28c-0.59,0-1.04-0.15-1.35-0.46c-0.32-0.31-0.47-0.72-0.47-1.23c0-0.59,0.21-1.03,0.64-1.32
		s1.03-0.43,1.82-0.43h0.98V4.48c0-0.32-0.08-0.57-0.25-0.75c-0.17-0.18-0.44-0.26-0.81-0.26c-0.33,0-0.6,0.07-0.8,0.21
		c-0.2,0.14-0.37,0.31-0.51,0.51l-0.84-0.75c0.21-0.33,0.5-0.6,0.85-0.8c0.35-0.2,0.82-0.3,1.4-0.3c0.78,0,1.37,0.18,1.77,0.53
		s0.61,0.86,0.61,1.51v2.7h0.57v1.13H148.44z M146.11,7.31c0.32,0,0.58-0.07,0.8-0.21c0.22-0.14,0.33-0.34,0.33-0.61V5.74h-0.9
		c-0.73,0-1.1,0.23-1.1,0.7v0.19c0,0.23,0.08,0.41,0.23,0.52S145.83,7.31,146.11,7.31z"/>
	<path class="st0" d="M154.84,8.34c-0.55,0-1.01-0.09-1.39-0.28s-0.7-0.45-0.99-0.78l0.86-0.84c0.21,0.24,0.45,0.43,0.7,0.57
		c0.25,0.14,0.54,0.21,0.87,0.21c0.34,0,0.58-0.06,0.73-0.18c0.15-0.12,0.23-0.28,0.23-0.48c0-0.17-0.05-0.3-0.16-0.4
		c-0.11-0.1-0.29-0.17-0.54-0.2l-0.57-0.08c-0.62-0.08-1.1-0.26-1.42-0.53c-0.33-0.27-0.49-0.68-0.49-1.2
		c0-0.28,0.05-0.53,0.15-0.75s0.25-0.41,0.44-0.57c0.19-0.16,0.42-0.28,0.69-0.36c0.27-0.08,0.57-0.13,0.9-0.13
		c0.28,0,0.53,0.02,0.74,0.06c0.22,0.04,0.41,0.1,0.59,0.18c0.18,0.08,0.34,0.17,0.48,0.29s0.29,0.24,0.43,0.38l-0.83,0.83
		c-0.17-0.18-0.37-0.32-0.61-0.44s-0.49-0.18-0.77-0.18c-0.31,0-0.53,0.06-0.67,0.17c-0.14,0.11-0.2,0.25-0.2,0.43
		c0,0.19,0.06,0.34,0.17,0.43c0.11,0.1,0.31,0.17,0.58,0.21l0.58,0.08c1.24,0.18,1.86,0.74,1.86,1.69c0,0.28-0.06,0.53-0.17,0.76
		c-0.11,0.23-0.27,0.43-0.48,0.59s-0.45,0.29-0.74,0.39C155.53,8.29,155.2,8.34,154.84,8.34z"/>
	<path class="st0" d="M160.77,8.34c-0.42,0-0.8-0.07-1.14-0.21c-0.33-0.14-0.62-0.34-0.85-0.6c-0.23-0.26-0.41-0.58-0.53-0.95
		c-0.12-0.37-0.19-0.79-0.19-1.25c0-0.45,0.06-0.87,0.18-1.23s0.29-0.68,0.52-0.94c0.23-0.26,0.51-0.46,0.84-0.6s0.7-0.21,1.12-0.21
		c0.45,0,0.84,0.08,1.17,0.23c0.33,0.15,0.6,0.36,0.81,0.63c0.21,0.26,0.37,0.57,0.48,0.92c0.11,0.35,0.16,0.72,0.16,1.12v0.46
		h-3.82v0.14c0,0.42,0.12,0.75,0.35,1c0.23,0.25,0.58,0.38,1.04,0.38c0.35,0,0.64-0.07,0.86-0.22s0.42-0.33,0.6-0.56l0.76,0.85
		c-0.23,0.33-0.56,0.59-0.96,0.78C161.78,8.24,161.31,8.34,160.77,8.34z M160.75,3.39c-0.37,0-0.67,0.12-0.89,0.37
		c-0.22,0.25-0.33,0.57-0.33,0.97v0.09h2.35v-0.1c0-0.4-0.1-0.72-0.29-0.96C161.4,3.51,161.12,3.39,160.75,3.39z"/>
	<path class="st0" d="M166.38,8.21c-0.48,0-0.85-0.13-1.11-0.38c-0.25-0.25-0.38-0.61-0.38-1.08V3.6h-0.85V2.46h0.44
		c0.21,0,0.36-0.05,0.43-0.15c0.08-0.1,0.12-0.25,0.12-0.45V0.89h1.27v1.57h1.18V3.6h-1.18v3.48h1.09v1.13H166.38z"/>
	<path class="st0" d="M4.75,21.41c-0.31,0-0.55-0.09-0.73-0.27s-0.29-0.42-0.34-0.72H3.62c-0.1,0.37-0.29,0.65-0.58,0.84
		c-0.29,0.19-0.66,0.28-1.09,0.28c-0.59,0-1.04-0.15-1.35-0.46c-0.32-0.31-0.47-0.72-0.47-1.23c0-0.59,0.21-1.03,0.64-1.32
		s1.03-0.43,1.82-0.43h0.98v-0.42c0-0.32-0.08-0.57-0.25-0.75c-0.17-0.18-0.44-0.26-0.81-0.26c-0.33,0-0.6,0.07-0.8,0.21
		c-0.2,0.14-0.37,0.31-0.51,0.51l-0.84-0.75c0.21-0.33,0.5-0.6,0.85-0.8c0.35-0.2,0.82-0.3,1.4-0.3c0.78,0,1.37,0.18,1.77,0.53
		s0.61,0.86,0.61,1.51v2.7h0.57v1.13H4.75z M2.42,20.51c0.32,0,0.58-0.07,0.8-0.21c0.22-0.14,0.33-0.34,0.33-0.61v-0.75h-0.9
		c-0.73,0-1.1,0.23-1.1,0.7v0.19c0,0.23,0.08,0.41,0.23,0.52S2.14,20.51,2.42,20.51z"/>
	<path class="st0" d="M8.56,21.54c-0.55,0-1.01-0.09-1.39-0.28s-0.7-0.45-0.99-0.78l0.86-0.84c0.21,0.24,0.45,0.43,0.7,0.57
		c0.25,0.14,0.54,0.21,0.87,0.21c0.34,0,0.58-0.06,0.73-0.18c0.15-0.12,0.23-0.28,0.23-0.48c0-0.17-0.05-0.3-0.16-0.4
		c-0.11-0.1-0.29-0.17-0.54-0.2l-0.57-0.08C7.67,19,7.2,18.83,6.87,18.55c-0.33-0.27-0.49-0.68-0.49-1.2c0-0.28,0.05-0.53,0.15-0.75
		s0.25-0.41,0.44-0.57c0.19-0.16,0.42-0.28,0.69-0.36c0.27-0.08,0.57-0.13,0.9-0.13c0.28,0,0.53,0.02,0.74,0.06
		c0.22,0.04,0.41,0.1,0.59,0.18c0.18,0.08,0.34,0.17,0.48,0.29s0.29,0.24,0.43,0.38l-0.83,0.83c-0.17-0.18-0.37-0.32-0.61-0.44
		s-0.49-0.18-0.77-0.18c-0.31,0-0.53,0.06-0.67,0.17c-0.14,0.11-0.2,0.25-0.2,0.43c0,0.19,0.06,0.34,0.17,0.43
		c0.11,0.1,0.31,0.17,0.58,0.21l0.58,0.08c1.24,0.18,1.86,0.74,1.86,1.69c0,0.28-0.06,0.53-0.17,0.76
		c-0.11,0.23-0.27,0.43-0.48,0.59s-0.45,0.29-0.74,0.39C9.24,21.49,8.92,21.54,8.56,21.54z"/>
	<path class="st0" d="M12.87,14.83c-0.29,0-0.5-0.07-0.63-0.2c-0.13-0.13-0.19-0.3-0.19-0.51V13.9c0-0.21,0.06-0.37,0.19-0.51
		c0.13-0.13,0.34-0.2,0.63-0.2c0.29,0,0.5,0.07,0.63,0.2c0.13,0.13,0.2,0.3,0.2,0.51v0.22c0,0.21-0.07,0.37-0.2,0.51
		C13.36,14.76,13.16,14.83,12.87,14.83z M12.17,15.66h1.41v5.74h-1.41V15.66z"/>
	<path class="st0" d="M18.77,20.45h-0.05c-0.1,0.33-0.3,0.59-0.58,0.79c-0.29,0.2-0.62,0.3-1,0.3c-0.73,0-1.28-0.26-1.67-0.78
		s-0.58-1.27-0.58-2.23c0-0.96,0.19-1.7,0.58-2.22s0.94-0.78,1.67-0.78c0.38,0,0.71,0.1,1,0.29s0.48,0.46,0.58,0.79h0.05v-3.34h1.41
		v8.14h-1.41V20.45z M17.58,20.37c0.34,0,0.62-0.08,0.85-0.24s0.34-0.39,0.34-0.69v-1.83c0-0.28-0.11-0.5-0.34-0.67
		c-0.23-0.17-0.51-0.25-0.85-0.25c-0.37,0-0.66,0.12-0.89,0.37c-0.22,0.25-0.34,0.57-0.34,0.98v0.99c0,0.41,0.11,0.74,0.34,0.98
		S17.21,20.37,17.58,20.37z"/>
	<path class="st0" d="M24.12,21.54c-0.42,0-0.8-0.07-1.14-0.21c-0.33-0.14-0.62-0.34-0.85-0.6c-0.23-0.26-0.41-0.58-0.53-0.95
		c-0.12-0.37-0.19-0.79-0.19-1.25c0-0.45,0.06-0.87,0.18-1.23s0.29-0.68,0.52-0.94c0.23-0.26,0.51-0.46,0.84-0.6s0.7-0.21,1.12-0.21
		c0.45,0,0.84,0.08,1.17,0.23c0.33,0.15,0.6,0.36,0.81,0.63c0.21,0.26,0.37,0.57,0.48,0.92c0.11,0.35,0.16,0.72,0.16,1.12v0.46
		h-3.82v0.14c0,0.42,0.12,0.75,0.35,1c0.23,0.25,0.58,0.38,1.04,0.38c0.35,0,0.64-0.07,0.86-0.22s0.42-0.33,0.6-0.56l0.76,0.85
		c-0.23,0.33-0.56,0.59-0.96,0.78C25.13,21.44,24.66,21.54,24.12,21.54z M24.1,16.59c-0.37,0-0.67,0.12-0.89,0.37
		c-0.22,0.25-0.33,0.57-0.33,0.97v0.09h2.35v-0.1c0-0.4-0.1-0.72-0.29-0.96C24.75,16.71,24.47,16.59,24.1,16.59z"/>
	<path class="st0" d="M34.76,21.41c-0.31,0-0.55-0.09-0.73-0.27s-0.29-0.42-0.34-0.72h-0.07c-0.1,0.37-0.29,0.65-0.58,0.84
		c-0.29,0.19-0.66,0.28-1.09,0.28c-0.59,0-1.04-0.15-1.35-0.46c-0.32-0.31-0.47-0.72-0.47-1.23c0-0.59,0.21-1.03,0.64-1.32
		s1.03-0.43,1.82-0.43h0.98v-0.42c0-0.32-0.08-0.57-0.25-0.75c-0.17-0.18-0.44-0.26-0.81-0.26c-0.33,0-0.6,0.07-0.8,0.21
		c-0.2,0.14-0.37,0.31-0.51,0.51l-0.84-0.75c0.21-0.33,0.5-0.6,0.85-0.8c0.35-0.2,0.82-0.3,1.4-0.3c0.78,0,1.37,0.18,1.77,0.53
		s0.61,0.86,0.61,1.51v2.7h0.57v1.13H34.76z M32.43,20.51c0.32,0,0.58-0.07,0.8-0.21c0.22-0.14,0.33-0.34,0.33-0.61v-0.75h-0.9
		c-0.73,0-1.1,0.23-1.1,0.7v0.19c0,0.23,0.08,0.41,0.23,0.52S32.15,20.51,32.43,20.51z"/>
	<path class="st0" d="M38.56,21.54c-0.55,0-1.01-0.09-1.39-0.28s-0.7-0.45-0.99-0.78l0.86-0.84c0.21,0.24,0.45,0.43,0.7,0.57
		c0.25,0.14,0.54,0.21,0.87,0.21c0.34,0,0.58-0.06,0.73-0.18c0.15-0.12,0.23-0.28,0.23-0.48c0-0.17-0.05-0.3-0.16-0.4
		c-0.11-0.1-0.29-0.17-0.54-0.2l-0.57-0.08c-0.62-0.08-1.1-0.26-1.42-0.53c-0.33-0.27-0.49-0.68-0.49-1.2
		c0-0.28,0.05-0.53,0.15-0.75s0.25-0.41,0.44-0.57c0.19-0.16,0.42-0.28,0.69-0.36c0.27-0.08,0.57-0.13,0.9-0.13
		c0.28,0,0.53,0.02,0.74,0.06c0.22,0.04,0.41,0.1,0.59,0.18c0.18,0.08,0.34,0.17,0.48,0.29s0.29,0.24,0.43,0.38l-0.83,0.83
		c-0.17-0.18-0.37-0.32-0.61-0.44s-0.49-0.18-0.77-0.18c-0.31,0-0.53,0.06-0.67,0.17c-0.14,0.11-0.2,0.25-0.2,0.43
		c0,0.19,0.06,0.34,0.17,0.43c0.11,0.1,0.31,0.17,0.58,0.21l0.58,0.08c1.24,0.18,1.86,0.74,1.86,1.69c0,0.28-0.06,0.53-0.17,0.76
		c-0.11,0.23-0.27,0.43-0.48,0.59s-0.45,0.29-0.74,0.39C39.25,21.49,38.92,21.54,38.56,21.54z"/>
	<path class="st0" d="M48.99,21.41c-0.31,0-0.55-0.09-0.73-0.27s-0.29-0.42-0.34-0.72h-0.07c-0.1,0.37-0.29,0.65-0.58,0.84
		c-0.29,0.19-0.66,0.28-1.09,0.28c-0.59,0-1.04-0.15-1.35-0.46c-0.32-0.31-0.47-0.72-0.47-1.23c0-0.59,0.21-1.03,0.64-1.32
		s1.03-0.43,1.82-0.43h0.98v-0.42c0-0.32-0.08-0.57-0.25-0.75c-0.17-0.18-0.44-0.26-0.81-0.26c-0.33,0-0.6,0.07-0.8,0.21
		c-0.2,0.14-0.37,0.31-0.51,0.51l-0.84-0.75c0.21-0.33,0.5-0.6,0.85-0.8c0.35-0.2,0.82-0.3,1.4-0.3c0.78,0,1.37,0.18,1.77,0.53
		s0.61,0.86,0.61,1.51v2.7h0.57v1.13H48.99z M46.66,20.51c0.32,0,0.58-0.07,0.8-0.21c0.22-0.14,0.33-0.34,0.33-0.61v-0.75h-0.9
		c-0.73,0-1.1,0.23-1.1,0.7v0.19c0,0.23,0.08,0.41,0.23,0.52S46.38,20.51,46.66,20.51z"/>
	<path class="st0" d="M53.51,21.41v-5.74h1.41v1.19h0.06c0.04-0.15,0.09-0.3,0.17-0.45s0.18-0.27,0.3-0.38s0.27-0.2,0.45-0.26
		c0.17-0.07,0.37-0.1,0.6-0.1h0.31v1.33h-0.44c-0.48,0-0.84,0.07-1.08,0.21c-0.24,0.14-0.36,0.37-0.36,0.68v3.52H53.51z"/>
	<path class="st0" d="M60.1,21.54c-0.42,0-0.8-0.07-1.14-0.21c-0.33-0.14-0.62-0.34-0.85-0.6c-0.23-0.26-0.41-0.58-0.53-0.95
		c-0.12-0.37-0.19-0.79-0.19-1.25c0-0.45,0.06-0.87,0.18-1.23s0.29-0.68,0.52-0.94c0.23-0.26,0.51-0.46,0.84-0.6s0.7-0.21,1.12-0.21
		c0.45,0,0.84,0.08,1.17,0.23c0.33,0.15,0.6,0.36,0.81,0.63c0.21,0.26,0.37,0.57,0.48,0.92c0.11,0.35,0.16,0.72,0.16,1.12v0.46
		h-3.82v0.14c0,0.42,0.12,0.75,0.35,1c0.23,0.25,0.58,0.38,1.04,0.38c0.35,0,0.64-0.07,0.86-0.22s0.42-0.33,0.6-0.56l0.76,0.85
		c-0.23,0.33-0.56,0.59-0.96,0.78C61.11,21.44,60.64,21.54,60.1,21.54z M60.08,16.59c-0.37,0-0.67,0.12-0.89,0.37
		c-0.22,0.25-0.33,0.57-0.33,0.97v0.09h2.35v-0.1c0-0.4-0.1-0.72-0.29-0.96C60.73,16.71,60.45,16.59,60.08,16.59z"/>
	<path class="st0" d="M65.8,21.54c-0.55,0-1.01-0.09-1.39-0.28s-0.7-0.45-0.99-0.78l0.86-0.84c0.21,0.24,0.45,0.43,0.7,0.57
		c0.25,0.14,0.54,0.21,0.87,0.21c0.34,0,0.58-0.06,0.73-0.18c0.15-0.12,0.23-0.28,0.23-0.48c0-0.17-0.05-0.3-0.16-0.4
		c-0.11-0.1-0.29-0.17-0.54-0.2l-0.57-0.08c-0.62-0.08-1.1-0.26-1.42-0.53c-0.33-0.27-0.49-0.68-0.49-1.2
		c0-0.28,0.05-0.53,0.15-0.75s0.25-0.41,0.44-0.57c0.19-0.16,0.42-0.28,0.69-0.36c0.27-0.08,0.57-0.13,0.9-0.13
		c0.28,0,0.53,0.02,0.74,0.06c0.22,0.04,0.41,0.1,0.59,0.18c0.18,0.08,0.34,0.17,0.48,0.29s0.29,0.24,0.43,0.38l-0.83,0.83
		c-0.17-0.18-0.37-0.32-0.61-0.44s-0.49-0.18-0.77-0.18c-0.31,0-0.53,0.06-0.67,0.17c-0.14,0.11-0.2,0.25-0.2,0.43
		c0,0.19,0.06,0.34,0.17,0.43c0.11,0.1,0.31,0.17,0.58,0.21l0.58,0.08c1.24,0.18,1.86,0.74,1.86,1.69c0,0.28-0.06,0.53-0.17,0.76
		c-0.11,0.23-0.27,0.43-0.48,0.59s-0.45,0.29-0.74,0.39C66.48,21.49,66.16,21.54,65.8,21.54z"/>
	<path class="st0" d="M71.73,21.54c-0.42,0-0.8-0.07-1.14-0.21c-0.33-0.14-0.62-0.34-0.85-0.6c-0.23-0.26-0.41-0.58-0.53-0.95
		c-0.12-0.37-0.19-0.79-0.19-1.25c0-0.45,0.06-0.87,0.18-1.23s0.29-0.68,0.52-0.94c0.23-0.26,0.51-0.46,0.84-0.6s0.7-0.21,1.12-0.21
		c0.45,0,0.84,0.08,1.17,0.23c0.33,0.15,0.6,0.36,0.81,0.63c0.21,0.26,0.37,0.57,0.48,0.92c0.11,0.35,0.16,0.72,0.16,1.12v0.46
		h-3.82v0.14c0,0.42,0.12,0.75,0.35,1c0.23,0.25,0.58,0.38,1.04,0.38c0.35,0,0.64-0.07,0.86-0.22s0.42-0.33,0.6-0.56l0.76,0.85
		c-0.23,0.33-0.56,0.59-0.96,0.78C72.74,21.44,72.26,21.54,71.73,21.54z M71.71,16.59c-0.37,0-0.67,0.12-0.89,0.37
		c-0.22,0.25-0.33,0.57-0.33,0.97v0.09h2.35v-0.1c0-0.4-0.1-0.72-0.29-0.96C72.35,16.71,72.07,16.59,71.71,16.59z"/>
	<path class="st0" d="M75.55,21.41v-5.74h1.41v1.19h0.06c0.04-0.15,0.09-0.3,0.17-0.45s0.18-0.27,0.3-0.38s0.27-0.2,0.45-0.26
		c0.17-0.07,0.37-0.1,0.6-0.1h0.31v1.33h-0.44c-0.48,0-0.84,0.07-1.08,0.21c-0.24,0.14-0.36,0.37-0.36,0.68v3.52H75.55z"/>
	<path class="st0" d="M81.19,21.41l-1.91-5.74h1.39l0.8,2.48l0.56,2.05h0.08l0.56-2.05l0.78-2.48h1.34l-1.92,5.74H81.19z"/>
	<path class="st0" d="M87.95,21.54c-0.42,0-0.8-0.07-1.14-0.21c-0.33-0.14-0.62-0.34-0.85-0.6c-0.23-0.26-0.41-0.58-0.53-0.95
		c-0.12-0.37-0.19-0.79-0.19-1.25c0-0.45,0.06-0.87,0.18-1.23s0.29-0.68,0.52-0.94c0.23-0.26,0.51-0.46,0.84-0.6s0.7-0.21,1.12-0.21
		c0.45,0,0.84,0.08,1.17,0.23c0.33,0.15,0.6,0.36,0.81,0.63c0.21,0.26,0.37,0.57,0.48,0.92c0.11,0.35,0.16,0.72,0.16,1.12v0.46
		h-3.82v0.14c0,0.42,0.12,0.75,0.35,1c0.23,0.25,0.58,0.38,1.04,0.38c0.35,0,0.64-0.07,0.86-0.22s0.42-0.33,0.6-0.56l0.76,0.85
		c-0.23,0.33-0.56,0.59-0.96,0.78C88.96,21.44,88.49,21.54,87.95,21.54z M87.93,16.59c-0.37,0-0.67,0.12-0.89,0.37
		c-0.22,0.25-0.33,0.57-0.33,0.97v0.09h2.35v-0.1c0-0.4-0.1-0.72-0.29-0.96C88.58,16.71,88.3,16.59,87.93,16.59z"/>
	<path class="st0" d="M97.8,20.45h-0.05c-0.05,0.15-0.12,0.28-0.2,0.41s-0.19,0.24-0.32,0.35c-0.13,0.1-0.28,0.18-0.46,0.24
		s-0.39,0.09-0.62,0.09c-0.59,0-1.05-0.19-1.36-0.58c-0.32-0.39-0.47-0.94-0.47-1.66v-3.63h1.41v3.49c0,0.4,0.08,0.7,0.23,0.91
		c0.15,0.21,0.4,0.31,0.74,0.31c0.14,0,0.28-0.02,0.41-0.05s0.25-0.09,0.36-0.17c0.1-0.08,0.19-0.17,0.25-0.29
		c0.07-0.11,0.1-0.25,0.1-0.4v-3.8h1.41v5.74H97.8V20.45z"/>
	<path class="st0" d="M100.83,21.41v-5.74h1.41v0.96h0.06c0.12-0.31,0.3-0.57,0.55-0.78c0.25-0.21,0.6-0.31,1.05-0.31
		c0.59,0,1.05,0.19,1.36,0.58s0.47,0.94,0.47,1.66v3.63h-1.41v-3.49c0-0.41-0.07-0.72-0.22-0.92c-0.15-0.21-0.39-0.31-0.73-0.31
		c-0.15,0-0.29,0.02-0.42,0.06c-0.14,0.04-0.26,0.1-0.36,0.18s-0.19,0.17-0.26,0.29c-0.07,0.11-0.1,0.25-0.1,0.4v3.79H100.83z"/>
	<path class="st0" d="M110.87,20.45h-0.05c-0.1,0.33-0.3,0.59-0.58,0.79c-0.29,0.2-0.62,0.3-1,0.3c-0.73,0-1.28-0.26-1.67-0.78
		s-0.58-1.27-0.58-2.23c0-0.96,0.19-1.7,0.58-2.22s0.94-0.78,1.67-0.78c0.38,0,0.71,0.1,1,0.29s0.48,0.46,0.58,0.79h0.05v-3.34h1.41
		v8.14h-1.41V20.45z M109.68,20.37c0.34,0,0.62-0.08,0.85-0.24s0.34-0.39,0.34-0.69v-1.83c0-0.28-0.11-0.5-0.34-0.67
		c-0.23-0.17-0.51-0.25-0.85-0.25c-0.37,0-0.66,0.12-0.89,0.37c-0.22,0.25-0.34,0.57-0.34,0.98v0.99c0,0.41,0.11,0.74,0.34,0.98
		S109.31,20.37,109.68,20.37z"/>
	<path class="st0" d="M116.22,21.54c-0.42,0-0.8-0.07-1.14-0.21c-0.33-0.14-0.62-0.34-0.85-0.6c-0.23-0.26-0.41-0.58-0.53-0.95
		c-0.12-0.37-0.19-0.79-0.19-1.25c0-0.45,0.06-0.87,0.18-1.23s0.29-0.68,0.52-0.94c0.23-0.26,0.51-0.46,0.84-0.6s0.7-0.21,1.12-0.21
		c0.45,0,0.84,0.08,1.17,0.23c0.33,0.15,0.6,0.36,0.81,0.63c0.21,0.26,0.37,0.57,0.48,0.92c0.11,0.35,0.16,0.72,0.16,1.12v0.46
		h-3.82v0.14c0,0.42,0.12,0.75,0.35,1c0.23,0.25,0.58,0.38,1.04,0.38c0.35,0,0.64-0.07,0.86-0.22s0.42-0.33,0.6-0.56l0.76,0.85
		c-0.23,0.33-0.56,0.59-0.96,0.78C117.23,21.44,116.76,21.54,116.22,21.54z M116.2,16.59c-0.37,0-0.67,0.12-0.89,0.37
		c-0.22,0.25-0.33,0.57-0.33,0.97v0.09h2.35v-0.1c0-0.4-0.1-0.72-0.29-0.96C116.85,16.71,116.57,16.59,116.2,16.59z"/>
	<path class="st0" d="M120.04,21.41v-5.74h1.41v1.19h0.06c0.04-0.15,0.09-0.3,0.17-0.45s0.18-0.27,0.3-0.38s0.27-0.2,0.45-0.26
		c0.17-0.07,0.37-0.1,0.6-0.1h0.31v1.33h-0.44c-0.48,0-0.84,0.07-1.08,0.21c-0.24,0.14-0.36,0.37-0.36,0.68v3.52H120.04z"/>
	<path class="st0" d="M128.84,21.54c-0.55,0-1.01-0.09-1.39-0.28s-0.7-0.45-0.99-0.78l0.86-0.84c0.21,0.24,0.45,0.43,0.7,0.57
		c0.25,0.14,0.54,0.21,0.87,0.21c0.34,0,0.58-0.06,0.73-0.18c0.15-0.12,0.23-0.28,0.23-0.48c0-0.17-0.05-0.3-0.16-0.4
		c-0.11-0.1-0.29-0.17-0.54-0.2l-0.57-0.08c-0.62-0.08-1.1-0.26-1.42-0.53c-0.33-0.27-0.49-0.68-0.49-1.2
		c0-0.28,0.05-0.53,0.15-0.75s0.25-0.41,0.44-0.57c0.19-0.16,0.42-0.28,0.69-0.36c0.27-0.08,0.57-0.13,0.9-0.13
		c0.28,0,0.53,0.02,0.74,0.06c0.22,0.04,0.41,0.1,0.59,0.18c0.18,0.08,0.34,0.17,0.48,0.29s0.29,0.24,0.43,0.38l-0.83,0.83
		c-0.17-0.18-0.37-0.32-0.61-0.44s-0.49-0.18-0.77-0.18c-0.31,0-0.53,0.06-0.67,0.17c-0.14,0.11-0.2,0.25-0.2,0.43
		c0,0.19,0.06,0.34,0.17,0.43c0.11,0.1,0.31,0.17,0.58,0.21l0.58,0.08c1.24,0.18,1.86,0.74,1.86,1.69c0,0.28-0.06,0.53-0.17,0.76
		c-0.11,0.23-0.27,0.43-0.48,0.59s-0.45,0.29-0.74,0.39C129.52,21.49,129.2,21.54,128.84,21.54z"/>
	<path class="st0" d="M134.15,21.41c-0.48,0-0.85-0.13-1.11-0.38c-0.25-0.25-0.38-0.61-0.38-1.08V16.8h-0.85v-1.13h0.44
		c0.21,0,0.36-0.05,0.43-0.15c0.08-0.1,0.12-0.25,0.12-0.45v-0.98h1.27v1.57h1.18v1.13h-1.18v3.48h1.09v1.13H134.15z"/>
	<path class="st0" d="M140.7,21.41c-0.31,0-0.55-0.09-0.73-0.27s-0.29-0.42-0.34-0.72h-0.07c-0.1,0.37-0.29,0.65-0.58,0.84
		c-0.29,0.19-0.66,0.28-1.09,0.28c-0.59,0-1.04-0.15-1.35-0.46c-0.32-0.31-0.47-0.72-0.47-1.23c0-0.59,0.21-1.03,0.64-1.32
		s1.03-0.43,1.82-0.43h0.98v-0.42c0-0.32-0.08-0.57-0.25-0.75c-0.17-0.18-0.44-0.26-0.81-0.26c-0.33,0-0.6,0.07-0.8,0.21
		c-0.2,0.14-0.37,0.31-0.51,0.51l-0.84-0.75c0.21-0.33,0.5-0.6,0.85-0.8c0.35-0.2,0.82-0.3,1.4-0.3c0.78,0,1.37,0.18,1.77,0.53
		s0.61,0.86,0.61,1.51v2.7h0.57v1.13H140.7z M138.37,20.51c0.32,0,0.58-0.07,0.8-0.21c0.22-0.14,0.33-0.34,0.33-0.61v-0.75h-0.9
		c-0.73,0-1.1,0.23-1.1,0.7v0.19c0,0.23,0.08,0.41,0.23,0.52S138.09,20.51,138.37,20.51z"/>
	<path class="st0" d="M144.37,21.41c-0.48,0-0.85-0.13-1.11-0.38c-0.25-0.25-0.38-0.61-0.38-1.08V16.8h-0.85v-1.13h0.44
		c0.21,0,0.36-0.05,0.43-0.15c0.08-0.1,0.12-0.25,0.12-0.45v-0.98h1.27v1.57h1.18v1.13h-1.18v3.48h1.09v1.13H144.37z"/>
	<path class="st0" d="M148.97,21.54c-0.42,0-0.8-0.07-1.14-0.21c-0.33-0.14-0.62-0.34-0.85-0.6c-0.23-0.26-0.41-0.58-0.53-0.95
		c-0.12-0.37-0.19-0.79-0.19-1.25c0-0.45,0.06-0.87,0.18-1.23s0.29-0.68,0.52-0.94c0.23-0.26,0.51-0.46,0.84-0.6s0.7-0.21,1.12-0.21
		c0.45,0,0.84,0.08,1.17,0.23c0.33,0.15,0.6,0.36,0.81,0.63c0.21,0.26,0.37,0.57,0.48,0.92c0.11,0.35,0.16,0.72,0.16,1.12v0.46
		h-3.82v0.14c0,0.42,0.12,0.75,0.35,1c0.23,0.25,0.58,0.38,1.04,0.38c0.35,0,0.64-0.07,0.86-0.22s0.42-0.33,0.6-0.56l0.76,0.85
		c-0.23,0.33-0.56,0.59-0.96,0.78C149.98,21.44,149.5,21.54,148.97,21.54z M148.95,16.59c-0.37,0-0.67,0.12-0.89,0.37
		c-0.22,0.25-0.33,0.57-0.33,0.97v0.09h2.35v-0.1c0-0.4-0.1-0.72-0.29-0.96C149.59,16.71,149.31,16.59,148.95,16.59z"/>
	<path class="st0" d="M157.17,21.41c-0.48,0-0.85-0.13-1.11-0.38c-0.25-0.25-0.38-0.61-0.38-1.08V16.8h-0.85v-1.13h0.44
		c0.21,0,0.36-0.05,0.43-0.15c0.08-0.1,0.12-0.25,0.12-0.45v-0.98h1.27v1.57h1.18v1.13h-1.18v3.48h1.09v1.13H157.17z"/>
	<path class="st0" d="M159.5,13.27h1.41v3.35h0.06c0.12-0.31,0.3-0.57,0.55-0.78c0.25-0.21,0.6-0.31,1.05-0.31
		c0.59,0,1.05,0.19,1.36,0.58s0.47,0.94,0.47,1.66v3.63h-1.41v-3.49c0-0.41-0.07-0.72-0.22-0.92c-0.15-0.21-0.39-0.31-0.73-0.31
		c-0.15,0-0.29,0.02-0.42,0.06c-0.14,0.04-0.26,0.1-0.36,0.18s-0.19,0.17-0.26,0.29c-0.07,0.11-0.1,0.25-0.1,0.4v3.79h-1.41V13.27z"
		/>
	<path class="st0" d="M168.28,21.54c-0.42,0-0.8-0.07-1.14-0.21c-0.33-0.14-0.62-0.34-0.85-0.6c-0.23-0.26-0.41-0.58-0.53-0.95
		c-0.12-0.37-0.19-0.79-0.19-1.25c0-0.45,0.06-0.87,0.18-1.23s0.29-0.68,0.52-0.94c0.23-0.26,0.51-0.46,0.84-0.6s0.7-0.21,1.12-0.21
		c0.45,0,0.84,0.08,1.17,0.23c0.33,0.15,0.6,0.36,0.81,0.63c0.21,0.26,0.37,0.57,0.48,0.92c0.11,0.35,0.16,0.72,0.16,1.12v0.46
		h-3.82v0.14c0,0.42,0.12,0.75,0.35,1c0.23,0.25,0.58,0.38,1.04,0.38c0.35,0,0.64-0.07,0.86-0.22s0.42-0.33,0.6-0.56l0.76,0.85
		c-0.23,0.33-0.56,0.59-0.96,0.78C169.29,21.44,168.82,21.54,168.28,21.54z M168.26,16.59c-0.37,0-0.67,0.12-0.89,0.37
		c-0.22,0.25-0.33,0.57-0.33,0.97v0.09h2.35v-0.1c0-0.4-0.1-0.72-0.29-0.96C168.91,16.71,168.63,16.59,168.26,16.59z"/>
	<path class="st0" d="M2.41,34.74c-0.55,0-1.01-0.09-1.39-0.28s-0.7-0.45-0.99-0.78l0.86-0.84c0.21,0.24,0.45,0.43,0.7,0.57
		c0.25,0.14,0.54,0.21,0.87,0.21c0.34,0,0.58-0.06,0.73-0.18c0.15-0.12,0.23-0.28,0.23-0.48c0-0.17-0.05-0.3-0.16-0.4
		c-0.11-0.1-0.29-0.17-0.54-0.2l-0.57-0.08c-0.62-0.08-1.1-0.26-1.42-0.53c-0.33-0.27-0.49-0.68-0.49-1.2
		c0-0.28,0.05-0.53,0.15-0.75s0.25-0.41,0.44-0.57c0.19-0.16,0.42-0.28,0.69-0.36c0.27-0.08,0.57-0.13,0.9-0.13
		c0.28,0,0.53,0.02,0.74,0.06c0.22,0.04,0.41,0.1,0.59,0.18c0.18,0.08,0.34,0.17,0.48,0.29s0.29,0.24,0.43,0.38l-0.83,0.83
		c-0.17-0.18-0.37-0.32-0.61-0.44s-0.49-0.18-0.77-0.18c-0.31,0-0.53,0.06-0.67,0.17c-0.14,0.11-0.2,0.25-0.2,0.43
		c0,0.19,0.06,0.34,0.17,0.43c0.11,0.1,0.31,0.17,0.58,0.21l0.58,0.08c1.24,0.18,1.86,0.74,1.86,1.69c0,0.28-0.06,0.53-0.17,0.76
		c-0.11,0.23-0.27,0.43-0.48,0.59s-0.45,0.29-0.74,0.39C3.09,34.69,2.77,34.74,2.41,34.74z"/>
	<path class="st0" d="M7.72,34.61c-0.48,0-0.85-0.13-1.11-0.38c-0.25-0.25-0.38-0.61-0.38-1.08V30H5.39v-1.13h0.44
		c0.21,0,0.36-0.05,0.43-0.15c0.08-0.1,0.12-0.25,0.12-0.45v-0.98h1.27v1.57h1.18V30H7.65v3.48h1.09v1.13H7.72z"/>
	<path class="st0" d="M14.27,34.61c-0.31,0-0.55-0.09-0.73-0.27s-0.29-0.42-0.34-0.72h-0.07c-0.1,0.37-0.29,0.65-0.58,0.84
		c-0.29,0.19-0.66,0.28-1.09,0.28c-0.59,0-1.04-0.15-1.35-0.46c-0.32-0.31-0.47-0.72-0.47-1.23c0-0.59,0.21-1.03,0.64-1.32
		s1.03-0.43,1.82-0.43h0.98v-0.42c0-0.32-0.08-0.57-0.25-0.75c-0.17-0.18-0.44-0.26-0.81-0.26c-0.33,0-0.6,0.07-0.8,0.21
		c-0.2,0.14-0.37,0.31-0.51,0.51l-0.84-0.75c0.21-0.33,0.5-0.6,0.85-0.8c0.35-0.2,0.82-0.3,1.4-0.3c0.78,0,1.37,0.18,1.77,0.53
		s0.61,0.86,0.61,1.51v2.7h0.57v1.13H14.27z M11.94,33.71c0.32,0,0.58-0.07,0.8-0.21c0.22-0.14,0.33-0.34,0.33-0.61v-0.75h-0.9
		c-0.73,0-1.1,0.23-1.1,0.7v0.19c0,0.23,0.08,0.41,0.23,0.52S11.66,33.71,11.94,33.71z"/>
	<path class="st0" d="M17.94,34.61c-0.48,0-0.85-0.13-1.11-0.38c-0.25-0.25-0.38-0.61-0.38-1.08V30h-0.85v-1.13h0.44
		c0.21,0,0.36-0.05,0.43-0.15c0.08-0.1,0.12-0.25,0.12-0.45v-0.98h1.27v1.57h1.18V30h-1.18v3.48h1.09v1.13H17.94z"/>
	<path class="st0" d="M22.54,34.74c-0.42,0-0.8-0.07-1.14-0.21c-0.33-0.14-0.62-0.34-0.85-0.6c-0.23-0.26-0.41-0.58-0.53-0.95
		c-0.12-0.37-0.19-0.79-0.19-1.25c0-0.45,0.06-0.87,0.18-1.23s0.29-0.68,0.52-0.94c0.23-0.26,0.51-0.46,0.84-0.6s0.7-0.21,1.12-0.21
		c0.45,0,0.84,0.08,1.17,0.23c0.33,0.15,0.6,0.36,0.81,0.63c0.21,0.26,0.37,0.57,0.48,0.92c0.11,0.35,0.16,0.72,0.16,1.12v0.46H21.3
		v0.14c0,0.42,0.12,0.75,0.35,1c0.23,0.25,0.58,0.38,1.04,0.38c0.35,0,0.64-0.07,0.86-0.22s0.42-0.33,0.6-0.56l0.76,0.85
		c-0.23,0.33-0.56,0.59-0.96,0.78C23.55,34.64,23.07,34.74,22.54,34.74z M22.52,29.79c-0.37,0-0.67,0.12-0.89,0.37
		c-0.22,0.25-0.33,0.57-0.33,0.97v0.09h2.35v-0.1c0-0.4-0.1-0.72-0.29-0.96C23.16,29.91,22.88,29.79,22.52,29.79z"/>
	<path class="st0" d="M31.23,34.74c-0.41,0-0.78-0.07-1.11-0.21s-0.6-0.34-0.84-0.6c-0.23-0.26-0.41-0.58-0.53-0.95
		c-0.12-0.37-0.19-0.79-0.19-1.25c0-0.46,0.06-0.88,0.19-1.24c0.12-0.37,0.3-0.68,0.53-0.94c0.23-0.26,0.51-0.46,0.84-0.6
		c0.33-0.14,0.7-0.21,1.11-0.21c0.41,0,0.78,0.07,1.11,0.21c0.33,0.14,0.61,0.34,0.84,0.6c0.23,0.26,0.41,0.57,0.53,0.94
		c0.12,0.37,0.19,0.78,0.19,1.24c0,0.46-0.06,0.88-0.19,1.25c-0.12,0.37-0.3,0.69-0.53,0.95c-0.23,0.26-0.51,0.47-0.84,0.6
		S31.64,34.74,31.23,34.74z M31.23,33.6c0.37,0,0.67-0.11,0.88-0.34c0.21-0.23,0.32-0.56,0.32-1V31.2c0-0.43-0.11-0.76-0.32-0.99
		c-0.21-0.23-0.51-0.34-0.88-0.34c-0.37,0-0.66,0.11-0.87,0.34c-0.21,0.23-0.32,0.56-0.32,0.99v1.07c0,0.44,0.11,0.77,0.32,1
		C30.57,33.49,30.86,33.6,31.23,33.6z"/>
	<path class="st0" d="M35.36,29.98h-0.85v-1.11h0.85v-0.82c0-0.51,0.13-0.89,0.4-1.17c0.27-0.27,0.66-0.41,1.18-0.41h1v1.13h-1.18
		v1.26h1.18v1.11h-1.18v4.63h-1.41V29.98z"/>
	<path class="st0" d="M44.59,34.74c-0.51,0-0.96-0.08-1.37-0.25c-0.41-0.16-0.76-0.41-1.04-0.74c-0.29-0.33-0.51-0.74-0.67-1.23
		c-0.15-0.49-0.23-1.05-0.23-1.7c0-0.65,0.08-1.22,0.23-1.72c0.15-0.5,0.38-0.92,0.67-1.27c0.29-0.34,0.64-0.6,1.04-0.78
		c0.41-0.18,0.86-0.26,1.37-0.26c0.69,0,1.26,0.15,1.72,0.44c0.46,0.29,0.82,0.74,1.09,1.33l-1.24,0.66
		c-0.11-0.34-0.29-0.62-0.54-0.83c-0.25-0.21-0.59-0.31-1.02-0.31c-0.54,0-0.97,0.18-1.29,0.55c-0.32,0.37-0.48,0.88-0.48,1.54v1.21
		c0,0.67,0.16,1.18,0.48,1.53c0.32,0.36,0.75,0.53,1.29,0.53c0.43,0,0.79-0.12,1.06-0.35c0.28-0.23,0.47-0.52,0.6-0.87l1.18,0.69
		c-0.28,0.57-0.65,1.02-1.11,1.34C45.86,34.58,45.28,34.74,44.59,34.74z"/>
	<path class="st0" d="M52.81,34.61c-0.31,0-0.55-0.09-0.73-0.27s-0.29-0.42-0.34-0.72h-0.07c-0.1,0.37-0.29,0.65-0.58,0.84
		c-0.29,0.19-0.66,0.28-1.09,0.28c-0.59,0-1.04-0.15-1.35-0.46c-0.32-0.31-0.47-0.72-0.47-1.23c0-0.59,0.21-1.03,0.64-1.32
		s1.03-0.43,1.82-0.43h0.98v-0.42c0-0.32-0.08-0.57-0.25-0.75c-0.17-0.18-0.44-0.26-0.81-0.26c-0.33,0-0.6,0.07-0.8,0.21
		c-0.2,0.14-0.37,0.31-0.51,0.51l-0.84-0.75c0.21-0.33,0.5-0.6,0.85-0.8c0.35-0.2,0.82-0.3,1.4-0.3c0.78,0,1.37,0.18,1.77,0.53
		s0.61,0.86,0.61,1.51v2.7h0.57v1.13H52.81z M50.48,33.71c0.32,0,0.58-0.07,0.8-0.21c0.22-0.14,0.33-0.34,0.33-0.61v-0.75h-0.9
		c-0.73,0-1.1,0.23-1.1,0.7v0.19c0,0.23,0.08,0.41,0.23,0.52S50.2,33.71,50.48,33.71z"/>
	<path class="st0" d="M56.14,34.61c-0.48,0-0.84-0.12-1.07-0.36c-0.23-0.24-0.34-0.58-0.34-1.02v-6.75h1.41v7.01h0.76v1.13H56.14z"
		/>
	<path class="st0" d="M58.67,28.03c-0.29,0-0.5-0.07-0.63-0.2c-0.13-0.13-0.19-0.3-0.19-0.51V27.1c0-0.21,0.06-0.37,0.19-0.51
		c0.13-0.13,0.34-0.2,0.63-0.2c0.29,0,0.5,0.07,0.63,0.2c0.13,0.13,0.2,0.3,0.2,0.51v0.22c0,0.21-0.07,0.37-0.2,0.51
		C59.17,27.96,58.96,28.03,58.67,28.03z M57.97,28.86h1.41v5.74h-1.41V28.86z"/>
	<path class="st0" d="M61.29,29.98h-0.85v-1.11h0.85v-0.82c0-0.51,0.13-0.89,0.4-1.17c0.27-0.27,0.66-0.41,1.18-0.41h1v1.13H62.7
		v1.26h1.18v1.11H62.7v4.63h-1.41V29.98z"/>
	<path class="st0" d="M67.09,34.74c-0.41,0-0.78-0.07-1.11-0.21s-0.6-0.34-0.84-0.6c-0.23-0.26-0.41-0.58-0.53-0.95
		c-0.12-0.37-0.19-0.79-0.19-1.25c0-0.46,0.06-0.88,0.19-1.24c0.12-0.37,0.3-0.68,0.53-0.94c0.23-0.26,0.51-0.46,0.84-0.6
		c0.33-0.14,0.7-0.21,1.11-0.21c0.41,0,0.78,0.07,1.11,0.21c0.33,0.14,0.61,0.34,0.84,0.6c0.23,0.26,0.41,0.57,0.53,0.94
		c0.12,0.37,0.19,0.78,0.19,1.24c0,0.46-0.06,0.88-0.19,1.25c-0.12,0.37-0.3,0.69-0.53,0.95c-0.23,0.26-0.51,0.47-0.84,0.6
		S67.5,34.74,67.09,34.74z M67.09,33.6c0.37,0,0.67-0.11,0.88-0.34c0.21-0.23,0.32-0.56,0.32-1V31.2c0-0.43-0.11-0.76-0.32-0.99
		c-0.21-0.23-0.51-0.34-0.88-0.34c-0.37,0-0.66,0.11-0.87,0.34C66,30.43,65.9,30.76,65.9,31.2v1.07c0,0.44,0.11,0.77,0.32,1
		C66.43,33.49,66.72,33.6,67.09,33.6z"/>
	<path class="st0" d="M71,34.61v-5.74h1.41v1.19h0.06c0.04-0.15,0.09-0.3,0.17-0.45s0.18-0.27,0.3-0.38s0.27-0.2,0.45-0.26
		c0.17-0.07,0.37-0.1,0.6-0.1h0.31v1.33h-0.44c-0.48,0-0.84,0.07-1.08,0.21c-0.24,0.14-0.36,0.37-0.36,0.68v3.52H71z"/>
	<path class="st0" d="M75.33,34.61v-5.74h1.41v0.96h0.06c0.12-0.31,0.3-0.57,0.55-0.78c0.25-0.21,0.6-0.31,1.05-0.31
		c0.59,0,1.05,0.19,1.36,0.58s0.47,0.94,0.47,1.66v3.63h-1.41v-3.49c0-0.41-0.07-0.72-0.22-0.92c-0.15-0.21-0.39-0.31-0.73-0.31
		c-0.15,0-0.29,0.02-0.42,0.06c-0.14,0.04-0.26,0.1-0.36,0.18s-0.19,0.17-0.26,0.29c-0.07,0.11-0.1,0.25-0.1,0.4v3.79H75.33z"/>
	<path class="st0" d="M82.5,28.03c-0.29,0-0.5-0.07-0.63-0.2c-0.13-0.13-0.19-0.3-0.19-0.51V27.1c0-0.21,0.06-0.37,0.19-0.51
		c0.13-0.13,0.34-0.2,0.63-0.2c0.29,0,0.5,0.07,0.63,0.2c0.13,0.13,0.2,0.3,0.2,0.51v0.22c0,0.21-0.07,0.37-0.2,0.51
		C82.99,27.96,82.78,28.03,82.5,28.03z M81.79,28.86h1.41v5.74h-1.41V28.86z"/>
	<path class="st0" d="M89.05,34.61c-0.31,0-0.55-0.09-0.73-0.27s-0.29-0.42-0.34-0.72h-0.07c-0.1,0.37-0.29,0.65-0.58,0.84
		c-0.29,0.19-0.66,0.28-1.09,0.28c-0.59,0-1.04-0.15-1.35-0.46c-0.32-0.31-0.47-0.72-0.47-1.23c0-0.59,0.21-1.03,0.64-1.32
		s1.03-0.43,1.82-0.43h0.98v-0.42c0-0.32-0.08-0.57-0.25-0.75c-0.17-0.18-0.44-0.26-0.81-0.26c-0.33,0-0.6,0.07-0.8,0.21
		c-0.2,0.14-0.37,0.31-0.51,0.51l-0.84-0.75c0.21-0.33,0.5-0.6,0.85-0.8c0.35-0.2,0.82-0.3,1.4-0.3c0.78,0,1.37,0.18,1.77,0.53
		s0.61,0.86,0.61,1.51v2.7h0.57v1.13H89.05z M86.72,33.71c0.32,0,0.58-0.07,0.8-0.21c0.22-0.14,0.33-0.34,0.33-0.61v-0.75h-0.9
		c-0.73,0-1.1,0.23-1.1,0.7v0.19c0,0.23,0.08,0.41,0.23,0.52S86.44,33.71,86.72,33.71z"/>
	<path class="st0" d="M91.91,34.73c-0.3,0-0.52-0.08-0.67-0.23c-0.14-0.15-0.21-0.34-0.21-0.58v-0.2c0-0.23,0.07-0.43,0.21-0.58
		c0.14-0.15,0.36-0.23,0.67-0.23c0.31,0,0.53,0.08,0.67,0.23c0.14,0.15,0.21,0.35,0.21,0.58v0.2c0,0.23-0.07,0.43-0.21,0.58
		C92.45,34.65,92.22,34.73,91.91,34.73z"/>
</g>
</svg>
