<!-- Generator: Adobe Illustrator 23.1.1, SVG Export Plug-In  -->
<svg version="1.1" xmlns="http://www.w3.org/2000/svg" xmlns:xlink="http://www.w3.org/1999/xlink" x="0px" y="0px"
	 width="187.52px" height="47.94px" viewBox="0 0 187.52 47.94" style="enable-background:new 0 0 187.52 47.94;"
	 xml:space="preserve">
<style type="text/css">
	.st0{fill:#FFFFFF;}
</style>
<defs>
</defs>
<g>
	<path class="st0" d="M4.91,0.53v5.52c0,0.34-0.06,0.66-0.17,0.93C4.62,7.26,4.46,7.5,4.25,7.7C4.04,7.9,3.79,8.05,3.49,8.16
		S2.85,8.33,2.47,8.33c-0.71,0-1.26-0.19-1.66-0.56C0.42,7.39,0.17,6.9,0.05,6.28L1.4,6.01c0.07,0.33,0.19,0.58,0.36,0.76
		c0.17,0.18,0.41,0.27,0.71,0.27c0.29,0,0.52-0.09,0.71-0.27c0.19-0.18,0.28-0.46,0.28-0.83V1.72H1.03V0.53H4.91z"/>
	<path class="st0" d="M8.85,8.34c-0.41,0-0.78-0.07-1.11-0.21s-0.6-0.34-0.84-0.6C6.68,7.26,6.5,6.94,6.38,6.57
		C6.25,6.2,6.19,5.79,6.19,5.32c0-0.46,0.06-0.88,0.19-1.24C6.5,3.71,6.68,3.4,6.91,3.14c0.23-0.26,0.51-0.46,0.84-0.6
		c0.33-0.14,0.7-0.21,1.11-0.21c0.41,0,0.78,0.07,1.11,0.21c0.33,0.14,0.61,0.34,0.84,0.6c0.23,0.26,0.41,0.57,0.53,0.94
		c0.12,0.37,0.19,0.78,0.19,1.24c0,0.46-0.06,0.88-0.19,1.25c-0.12,0.37-0.3,0.69-0.53,0.95c-0.23,0.26-0.51,0.47-0.84,0.6
		S9.27,8.34,8.85,8.34z M8.85,7.21c0.37,0,0.67-0.11,0.88-0.34c0.21-0.23,0.32-0.56,0.32-1V4.8c0-0.43-0.11-0.76-0.32-0.99
		C9.52,3.58,9.23,3.46,8.85,3.46c-0.37,0-0.66,0.11-0.87,0.34C7.77,4.03,7.67,4.36,7.67,4.8v1.07c0,0.44,0.11,0.77,0.32,1
		C8.2,7.09,8.49,7.21,8.85,7.21z"/>
	<path class="st0" d="M14.65,8.34c-0.55,0-1.01-0.09-1.39-0.28s-0.7-0.45-0.99-0.78l0.86-0.84c0.21,0.24,0.45,0.43,0.7,0.57
		c0.25,0.14,0.54,0.21,0.87,0.21c0.34,0,0.58-0.06,0.73-0.18c0.15-0.12,0.23-0.28,0.23-0.48c0-0.17-0.05-0.3-0.16-0.4
		c-0.11-0.1-0.29-0.17-0.54-0.2l-0.57-0.08c-0.62-0.08-1.1-0.26-1.42-0.53c-0.33-0.27-0.49-0.68-0.49-1.2
		c0-0.28,0.05-0.53,0.15-0.75s0.25-0.41,0.44-0.57c0.19-0.16,0.42-0.28,0.69-0.36c0.27-0.08,0.57-0.13,0.9-0.13
		c0.28,0,0.53,0.02,0.74,0.06c0.22,0.04,0.41,0.1,0.59,0.18c0.18,0.08,0.34,0.17,0.48,0.29s0.29,0.24,0.43,0.38l-0.83,0.83
		c-0.17-0.18-0.37-0.32-0.61-0.44s-0.49-0.18-0.77-0.18c-0.31,0-0.53,0.06-0.67,0.17c-0.14,0.11-0.2,0.25-0.2,0.43
		c0,0.19,0.06,0.34,0.17,0.43c0.11,0.1,0.31,0.17,0.58,0.21l0.58,0.08c1.24,0.18,1.86,0.74,1.86,1.69c0,0.28-0.06,0.53-0.17,0.76
		c-0.11,0.23-0.27,0.43-0.48,0.59s-0.45,0.29-0.74,0.39C15.33,8.29,15.01,8.34,14.65,8.34z"/>
	<path class="st0" d="M20.58,8.34c-0.42,0-0.8-0.07-1.14-0.21c-0.33-0.14-0.62-0.34-0.85-0.6c-0.23-0.26-0.41-0.58-0.53-0.95
		c-0.12-0.37-0.19-0.79-0.19-1.25c0-0.45,0.06-0.87,0.18-1.23s0.29-0.68,0.52-0.94c0.23-0.26,0.51-0.46,0.84-0.6s0.7-0.21,1.12-0.21
		c0.45,0,0.84,0.08,1.17,0.23c0.33,0.15,0.6,0.36,0.81,0.63c0.21,0.26,0.37,0.57,0.48,0.92c0.11,0.35,0.16,0.72,0.16,1.12v0.46
		h-3.82v0.14c0,0.42,0.12,0.75,0.35,1c0.23,0.25,0.58,0.38,1.04,0.38c0.35,0,0.64-0.07,0.86-0.22s0.42-0.33,0.6-0.56l0.76,0.85
		c-0.23,0.33-0.56,0.59-0.96,0.78C21.59,8.24,21.12,8.34,20.58,8.34z M20.56,3.39c-0.37,0-0.67,0.12-0.89,0.37
		c-0.22,0.25-0.33,0.57-0.33,0.97v0.09h2.35v-0.1c0-0.4-0.1-0.72-0.29-0.96C21.21,3.51,20.92,3.39,20.56,3.39z"/>
	<path class="st0" d="M24.4,2.46h1.41v0.95h0.04c0.1-0.33,0.3-0.59,0.58-0.79c0.29-0.19,0.62-0.29,1-0.29
		c0.73,0,1.29,0.26,1.68,0.78s0.58,1.26,0.58,2.22c0,0.97-0.19,1.71-0.58,2.23s-0.94,0.78-1.68,0.78c-0.38,0-0.71-0.1-1-0.3
		c-0.28-0.2-0.48-0.46-0.59-0.79H25.8v3.16H24.4V2.46z M26.98,7.17c0.37,0,0.66-0.12,0.89-0.36s0.34-0.57,0.34-0.98V4.84
		c0-0.41-0.11-0.74-0.34-0.98c-0.23-0.25-0.52-0.37-0.89-0.37c-0.34,0-0.62,0.08-0.84,0.25c-0.22,0.17-0.34,0.39-0.34,0.67v1.83
		c0,0.3,0.11,0.53,0.34,0.69S26.64,7.17,26.98,7.17z"/>
	<path class="st0" d="M31,0.07h1.41v3.35h0.06c0.12-0.31,0.3-0.57,0.55-0.78c0.25-0.21,0.6-0.31,1.05-0.31
		c0.59,0,1.05,0.19,1.36,0.58s0.47,0.94,0.47,1.66v3.63h-1.41V4.72c0-0.41-0.07-0.72-0.22-0.92c-0.15-0.21-0.39-0.31-0.73-0.31
		c-0.15,0-0.29,0.02-0.42,0.06c-0.14,0.04-0.26,0.1-0.36,0.18S32.57,3.9,32.5,4.01c-0.07,0.11-0.1,0.25-0.1,0.4v3.79H31V0.07z"/>
	<path class="st0" d="M41.6,8.21h-1.45V0.53h3.46c0.35,0,0.67,0.06,0.95,0.17c0.28,0.11,0.51,0.27,0.71,0.48s0.34,0.46,0.45,0.75
		c0.11,0.29,0.16,0.62,0.16,0.98c0,0.53-0.12,0.98-0.36,1.36s-0.6,0.65-1.07,0.81l1.57,3.12h-1.62l-1.43-2.96H41.6V8.21z
		 M43.47,4.03c0.28,0,0.5-0.07,0.66-0.23s0.24-0.36,0.24-0.64V2.65c0-0.28-0.08-0.49-0.24-0.64c-0.16-0.15-0.38-0.22-0.66-0.22H41.6
		v2.23H43.47z"/>
	<path class="st0" d="M48.19,8.33c-0.3,0-0.52-0.08-0.67-0.23c-0.14-0.15-0.21-0.34-0.21-0.58v-0.2c0-0.23,0.07-0.43,0.21-0.58
		c0.14-0.15,0.36-0.23,0.67-0.23c0.31,0,0.53,0.08,0.67,0.23C49,6.9,49.07,7.09,49.07,7.33v0.2c0,0.23-0.07,0.43-0.21,0.58
		C48.72,8.25,48.5,8.33,48.19,8.33z"/>
	<path class="st0" d="M54.5,8.21l-1.78-7.68h1.45l0.76,3.69l0.47,2.35h0.03l0.55-2.35l0.88-3.69h1.61l0.88,3.69l0.54,2.35h0.03
		l0.48-2.35l0.78-3.69h1.39l-1.84,7.68H59.1l-0.98-4.06l-0.47-2.02h-0.02l-0.5,2.02l-0.98,4.06H54.5z"/>
	<path class="st0" d="M67.65,8.21c-0.31,0-0.55-0.09-0.73-0.27s-0.29-0.42-0.34-0.72h-0.07c-0.1,0.37-0.29,0.65-0.58,0.84
		c-0.29,0.19-0.66,0.28-1.09,0.28c-0.59,0-1.04-0.15-1.35-0.46c-0.32-0.31-0.47-0.72-0.47-1.23c0-0.59,0.21-1.03,0.64-1.32
		s1.03-0.43,1.82-0.43h0.98V4.48c0-0.32-0.08-0.57-0.25-0.75c-0.17-0.18-0.44-0.26-0.81-0.26c-0.33,0-0.6,0.07-0.8,0.21
		c-0.2,0.14-0.37,0.31-0.51,0.51l-0.84-0.75c0.21-0.33,0.5-0.6,0.85-0.8c0.35-0.2,0.82-0.3,1.4-0.3c0.78,0,1.37,0.18,1.77,0.53
		s0.61,0.86,0.61,1.51v2.7h0.57v1.13H67.65z M65.32,7.31c0.32,0,0.58-0.07,0.8-0.21c0.22-0.14,0.33-0.34,0.33-0.61V5.74h-0.9
		c-0.73,0-1.1,0.23-1.1,0.7v0.19c0,0.23,0.08,0.41,0.23,0.52S65.04,7.31,65.32,7.31z"/>
	<path class="st0" d="M70.98,8.21c-0.48,0-0.84-0.12-1.07-0.36c-0.23-0.24-0.34-0.58-0.34-1.02V0.07h1.41v7.01h0.76v1.13H70.98z"/>
	<path class="st0" d="M72.81,0.07h1.41v4.91h0.06l0.76-1.03l1.29-1.47h1.59l-1.98,2.22l2.19,3.52h-1.67l-1.47-2.57l-0.76,0.83v1.75
		h-1.41V0.07z"/>
	<path class="st0" d="M81.04,8.34c-0.42,0-0.8-0.07-1.14-0.21c-0.33-0.14-0.62-0.34-0.85-0.6c-0.23-0.26-0.41-0.58-0.53-0.95
		c-0.12-0.37-0.19-0.79-0.19-1.25c0-0.45,0.06-0.87,0.18-1.23s0.29-0.68,0.52-0.94c0.23-0.26,0.51-0.46,0.84-0.6s0.7-0.21,1.12-0.21
		c0.45,0,0.84,0.08,1.17,0.23c0.33,0.15,0.6,0.36,0.81,0.63c0.21,0.26,0.37,0.57,0.48,0.92c0.11,0.35,0.16,0.72,0.16,1.12v0.46H79.8
		v0.14c0,0.42,0.12,0.75,0.35,1c0.23,0.25,0.58,0.38,1.04,0.38c0.35,0,0.64-0.07,0.86-0.22s0.42-0.33,0.6-0.56l0.76,0.85
		c-0.23,0.33-0.56,0.59-0.96,0.78C82.05,8.24,81.58,8.34,81.04,8.34z M81.02,3.39c-0.37,0-0.67,0.12-0.89,0.37
		c-0.22,0.25-0.33,0.57-0.33,0.97v0.09h2.35v-0.1c0-0.4-0.1-0.72-0.29-0.96C81.67,3.51,81.39,3.39,81.02,3.39z"/>
	<path class="st0" d="M84.86,8.21V2.46h1.41v1.19h0.06c0.04-0.15,0.09-0.3,0.17-0.45s0.18-0.27,0.3-0.38s0.27-0.2,0.45-0.26
		c0.17-0.07,0.37-0.1,0.6-0.1h0.31v1.33h-0.44c-0.48,0-0.84,0.07-1.08,0.21c-0.24,0.14-0.36,0.37-0.36,0.68v3.52H84.86z"/>
	<path class="st0" d="M94.1,8.34c-0.42,0-0.8-0.07-1.14-0.21c-0.33-0.14-0.62-0.34-0.85-0.6c-0.23-0.26-0.41-0.58-0.53-0.95
		C91.46,6.2,91.4,5.79,91.4,5.32c0-0.45,0.06-0.87,0.18-1.23s0.29-0.68,0.52-0.94c0.23-0.26,0.51-0.46,0.84-0.6s0.7-0.21,1.12-0.21
		c0.45,0,0.84,0.08,1.17,0.23c0.33,0.15,0.6,0.36,0.81,0.63c0.21,0.26,0.37,0.57,0.48,0.92c0.11,0.35,0.16,0.72,0.16,1.12v0.46
		h-3.82v0.14c0,0.42,0.12,0.75,0.35,1c0.23,0.25,0.58,0.38,1.04,0.38c0.35,0,0.64-0.07,0.86-0.22s0.42-0.33,0.6-0.56l0.76,0.85
		c-0.23,0.33-0.56,0.59-0.96,0.78C95.11,8.24,94.64,8.34,94.1,8.34z M94.08,3.39c-0.37,0-0.67,0.12-0.89,0.37
		c-0.22,0.25-0.33,0.57-0.33,0.97v0.09h2.35v-0.1c0-0.4-0.1-0.72-0.29-0.96C94.73,3.51,94.45,3.39,94.08,3.39z"/>
	<path class="st0" d="M97.15,8.21l1.96-2.92l-1.91-2.83h1.61l1.19,1.9h0.04l1.18-1.9h1.5l-1.95,2.85l1.96,2.89h-1.61L99.9,6.23
		h-0.04l-1.21,1.98H97.15z"/>
	<path class="st0" d="M103.74,2.46h1.41v0.95h0.04c0.1-0.33,0.3-0.59,0.58-0.79c0.29-0.19,0.62-0.29,1-0.29
		c0.73,0,1.29,0.26,1.68,0.78s0.58,1.26,0.58,2.22c0,0.97-0.19,1.71-0.58,2.23s-0.94,0.78-1.68,0.78c-0.38,0-0.71-0.1-1-0.3
		c-0.28-0.2-0.48-0.46-0.59-0.79h-0.04v3.16h-1.41V2.46z M106.32,7.17c0.37,0,0.66-0.12,0.89-0.36s0.34-0.57,0.34-0.98V4.84
		c0-0.41-0.11-0.74-0.34-0.98c-0.23-0.25-0.52-0.37-0.89-0.37c-0.34,0-0.62,0.08-0.84,0.25c-0.22,0.17-0.34,0.39-0.34,0.67v1.83
		c0,0.3,0.11,0.53,0.34,0.69S105.99,7.17,106.32,7.17z"/>
	<path class="st0" d="M112.66,8.34c-0.42,0-0.8-0.07-1.14-0.21c-0.33-0.14-0.62-0.34-0.85-0.6c-0.23-0.26-0.41-0.58-0.53-0.95
		c-0.12-0.37-0.19-0.79-0.19-1.25c0-0.45,0.06-0.87,0.18-1.23s0.29-0.68,0.52-0.94c0.23-0.26,0.51-0.46,0.84-0.6s0.7-0.21,1.12-0.21
		c0.45,0,0.84,0.08,1.17,0.23c0.33,0.15,0.6,0.36,0.81,0.63c0.21,0.26,0.37,0.57,0.48,0.92c0.11,0.35,0.16,0.72,0.16,1.12v0.46
		h-3.82v0.14c0,0.42,0.12,0.75,0.35,1c0.23,0.25,0.58,0.38,1.04,0.38c0.35,0,0.64-0.07,0.86-0.22s0.42-0.33,0.6-0.56l0.76,0.85
		c-0.23,0.33-0.56,0.59-0.96,0.78C113.67,8.24,113.19,8.34,112.66,8.34z M112.64,3.39c-0.37,0-0.67,0.12-0.89,0.37
		c-0.22,0.25-0.33,0.57-0.33,0.97v0.09h2.35v-0.1c0-0.4-0.1-0.72-0.29-0.96C113.28,3.51,113,3.39,112.64,3.39z"/>
	<path class="st0" d="M120.04,7.25h-0.05c-0.1,0.33-0.3,0.59-0.58,0.79c-0.29,0.2-0.62,0.3-1,0.3c-0.73,0-1.28-0.26-1.67-0.78
		s-0.58-1.27-0.58-2.23c0-0.96,0.19-1.7,0.58-2.22s0.94-0.78,1.67-0.78c0.38,0,0.71,0.1,1,0.29s0.48,0.46,0.58,0.79h0.05V0.07h1.41
		v8.14h-1.41V7.25z M118.85,7.17c0.34,0,0.62-0.08,0.85-0.24s0.34-0.39,0.34-0.69V4.41c0-0.28-0.11-0.5-0.34-0.67
		c-0.23-0.17-0.51-0.25-0.85-0.25c-0.37,0-0.66,0.12-0.89,0.37c-0.22,0.25-0.34,0.57-0.34,0.98v0.99c0,0.41,0.11,0.74,0.34,0.98
		S118.48,7.17,118.85,7.17z"/>
	<path class="st0" d="M123.78,1.63c-0.29,0-0.5-0.07-0.63-0.2c-0.13-0.13-0.19-0.3-0.19-0.51V0.7c0-0.21,0.06-0.37,0.19-0.51
		c0.13-0.13,0.34-0.2,0.63-0.2c0.29,0,0.5,0.07,0.63,0.2c0.13,0.13,0.2,0.3,0.2,0.51v0.22c0,0.21-0.07,0.37-0.2,0.51
		C124.27,1.56,124.06,1.63,123.78,1.63z M123.08,2.46h1.41v5.74h-1.41V2.46z"/>
	<path class="st0" d="M127.9,8.21c-0.48,0-0.85-0.13-1.11-0.38c-0.25-0.25-0.38-0.61-0.38-1.08V3.6h-0.85V2.46h0.44
		c0.21,0,0.36-0.05,0.43-0.15c0.08-0.1,0.12-0.25,0.12-0.45V0.89h1.27v1.57H129V3.6h-1.18v3.48h1.09v1.13H127.9z"/>
	<path class="st0" d="M130.93,1.63c-0.29,0-0.5-0.07-0.63-0.2c-0.13-0.13-0.19-0.3-0.19-0.51V0.7c0-0.21,0.06-0.37,0.19-0.51
		c0.13-0.13,0.34-0.2,0.63-0.2c0.29,0,0.5,0.07,0.63,0.2c0.13,0.13,0.2,0.3,0.2,0.51v0.22c0,0.21-0.07,0.37-0.2,0.51
		C131.42,1.56,131.21,1.63,130.93,1.63z M130.23,2.46h1.41v5.74h-1.41V2.46z"/>
	<path class="st0" d="M135.54,8.34c-0.41,0-0.78-0.07-1.11-0.21s-0.6-0.34-0.84-0.6c-0.23-0.26-0.41-0.58-0.53-0.95
		c-0.12-0.37-0.19-0.79-0.19-1.25c0-0.46,0.06-0.88,0.19-1.24c0.12-0.37,0.3-0.68,0.53-0.94c0.23-0.26,0.51-0.46,0.84-0.6
		c0.33-0.14,0.7-0.21,1.11-0.21c0.41,0,0.78,0.07,1.11,0.21c0.33,0.14,0.61,0.34,0.84,0.6c0.23,0.26,0.41,0.57,0.53,0.94
		c0.12,0.37,0.19,0.78,0.19,1.24c0,0.46-0.06,0.88-0.19,1.25c-0.12,0.37-0.3,0.69-0.53,0.95c-0.23,0.26-0.51,0.47-0.84,0.6
		S135.95,8.34,135.54,8.34z M135.54,7.21c0.37,0,0.67-0.11,0.88-0.34c0.21-0.23,0.32-0.56,0.32-1V4.8c0-0.43-0.11-0.76-0.32-0.99
		c-0.21-0.23-0.51-0.34-0.88-0.34c-0.37,0-0.66,0.11-0.87,0.34c-0.21,0.23-0.32,0.56-0.32,0.99v1.07c0,0.44,0.11,0.77,0.32,1
		C134.88,7.09,135.17,7.21,135.54,7.21z"/>
	<path class="st0" d="M139.46,8.21V2.46h1.41v0.96h0.06c0.12-0.31,0.3-0.57,0.55-0.78c0.25-0.21,0.6-0.31,1.05-0.31
		c0.59,0,1.05,0.19,1.36,0.58s0.47,0.94,0.47,1.66v3.63h-1.41V4.72c0-0.41-0.07-0.72-0.22-0.92c-0.15-0.21-0.39-0.31-0.73-0.31
		c-0.15,0-0.29,0.02-0.42,0.06c-0.14,0.04-0.26,0.1-0.36,0.18s-0.19,0.17-0.26,0.29c-0.07,0.11-0.1,0.25-0.1,0.4v3.79H139.46z"/>
	<path class="st0" d="M150.79,8.34c-0.41,0-0.78-0.07-1.11-0.21s-0.6-0.34-0.84-0.6c-0.23-0.26-0.41-0.58-0.53-0.95
		c-0.12-0.37-0.19-0.79-0.19-1.25c0-0.46,0.06-0.88,0.19-1.24c0.12-0.37,0.3-0.68,0.53-0.94c0.23-0.26,0.51-0.46,0.84-0.6
		c0.33-0.14,0.7-0.21,1.11-0.21c0.41,0,0.78,0.07,1.11,0.21c0.33,0.14,0.61,0.34,0.84,0.6c0.23,0.26,0.41,0.57,0.53,0.94
		c0.12,0.37,0.19,0.78,0.19,1.24c0,0.46-0.06,0.88-0.19,1.25c-0.12,0.37-0.3,0.69-0.53,0.95c-0.23,0.26-0.51,0.47-0.84,0.6
		S151.21,8.34,150.79,8.34z M150.79,7.21c0.37,0,0.67-0.11,0.88-0.34c0.21-0.23,0.32-0.56,0.32-1V4.8c0-0.43-0.11-0.76-0.32-0.99
		c-0.21-0.23-0.51-0.34-0.88-0.34c-0.37,0-0.66,0.11-0.87,0.34c-0.21,0.23-0.32,0.56-0.32,0.99v1.07c0,0.44,0.11,0.77,0.32,1
		C150.14,7.09,150.43,7.21,150.79,7.21z"/>
	<path class="st0" d="M154.93,3.58h-0.85V2.46h0.85V1.64c0-0.51,0.13-0.89,0.4-1.17c0.27-0.27,0.66-0.41,1.18-0.41h1V1.2h-1.18v1.26
		h1.18v1.11h-1.18v4.63h-1.41V3.58z"/>
	<path class="st0" d="M161.28,8.21V7.03h2.11V1.57h-0.1l-1.67,1.98l-0.9-0.76l1.9-2.27h2.19v6.5h1.76v1.18H161.28z"/>
	<path class="st0" d="M170.17,8.34c-0.45,0-0.84-0.06-1.19-0.17s-0.64-0.27-0.88-0.47c-0.24-0.2-0.42-0.43-0.54-0.7
		c-0.12-0.27-0.19-0.57-0.19-0.89c0-0.5,0.14-0.9,0.41-1.22c0.28-0.31,0.64-0.53,1.11-0.65V4.15c-0.38-0.14-0.69-0.36-0.93-0.65
		c-0.24-0.29-0.36-0.66-0.36-1.11c0-0.29,0.06-0.56,0.17-0.8c0.11-0.24,0.28-0.45,0.5-0.63c0.22-0.18,0.49-0.31,0.81-0.41
		c0.32-0.1,0.68-0.15,1.09-0.15c0.41,0,0.78,0.05,1.09,0.15s0.59,0.24,0.81,0.41s0.39,0.39,0.5,0.63c0.11,0.24,0.17,0.51,0.17,0.8
		c0,0.45-0.12,0.82-0.36,1.11c-0.24,0.29-0.55,0.51-0.93,0.65v0.09c0.46,0.12,0.83,0.34,1.11,0.65c0.28,0.31,0.41,0.72,0.41,1.22
		c0,0.32-0.06,0.62-0.19,0.89s-0.31,0.51-0.54,0.7c-0.24,0.2-0.53,0.35-0.88,0.47C171.02,8.28,170.62,8.34,170.17,8.34z
		 M170.17,7.21c0.42,0,0.74-0.1,0.96-0.29c0.22-0.19,0.33-0.46,0.33-0.8V5.89c0-0.34-0.11-0.61-0.33-0.8
		c-0.22-0.19-0.54-0.29-0.96-0.29s-0.74,0.1-0.96,0.29c-0.22,0.19-0.34,0.46-0.34,0.8v0.23c0,0.34,0.11,0.61,0.34,0.8
		C169.44,7.11,169.76,7.21,170.17,7.21z M170.17,3.72c0.39,0,0.69-0.09,0.89-0.26c0.21-0.18,0.31-0.43,0.31-0.75V2.53
		c0-0.32-0.1-0.56-0.31-0.74c-0.21-0.18-0.5-0.26-0.89-0.26s-0.69,0.09-0.89,0.26c-0.21,0.18-0.31,0.42-0.31,0.74v0.18
		c0,0.32,0.1,0.57,0.31,0.75C169.49,3.63,169.79,3.72,170.17,3.72z"/>
	<path class="st0" d="M176.36,3.63c0.44,0,0.76-0.09,0.97-0.27c0.21-0.18,0.31-0.41,0.31-0.69V2.6c0-0.32-0.1-0.56-0.3-0.74
		c-0.2-0.18-0.48-0.27-0.83-0.27c-0.34,0-0.64,0.08-0.9,0.24c-0.26,0.16-0.49,0.39-0.68,0.68l-0.92-0.84
		c0.13-0.18,0.28-0.34,0.43-0.5c0.16-0.16,0.34-0.29,0.54-0.41c0.21-0.11,0.44-0.2,0.69-0.27s0.55-0.1,0.87-0.1
		c0.39,0,0.74,0.05,1.06,0.14s0.59,0.23,0.83,0.4c0.23,0.18,0.41,0.39,0.53,0.63c0.12,0.25,0.19,0.52,0.19,0.83
		c0,0.25-0.04,0.47-0.12,0.67c-0.08,0.2-0.18,0.37-0.32,0.52c-0.14,0.15-0.29,0.27-0.47,0.36c-0.18,0.09-0.37,0.16-0.57,0.2v0.07
		c0.22,0.04,0.43,0.11,0.63,0.21c0.2,0.1,0.37,0.22,0.51,0.38s0.26,0.34,0.34,0.56c0.08,0.21,0.13,0.46,0.13,0.73
		c0,0.34-0.07,0.65-0.2,0.92c-0.14,0.28-0.33,0.52-0.58,0.72c-0.25,0.2-0.55,0.35-0.89,0.46c-0.35,0.11-0.73,0.16-1.16,0.16
		c-0.37,0-0.7-0.04-0.99-0.12c-0.29-0.08-0.54-0.18-0.75-0.31c-0.22-0.13-0.41-0.28-0.57-0.46s-0.3-0.35-0.42-0.54l1.07-0.81
		c0.09,0.15,0.18,0.29,0.29,0.42s0.22,0.24,0.35,0.34s0.28,0.17,0.45,0.22s0.36,0.08,0.57,0.08c0.42,0,0.75-0.1,0.98-0.31
		c0.23-0.21,0.34-0.49,0.34-0.85V5.92c0-0.35-0.12-0.62-0.37-0.8c-0.25-0.18-0.6-0.28-1.06-0.28h-0.76V3.63H176.36z"/>
	<path class="st0" d="M182.96,3.63c0.44,0,0.76-0.09,0.97-0.27c0.21-0.18,0.31-0.41,0.31-0.69V2.6c0-0.32-0.1-0.56-0.3-0.74
		c-0.2-0.18-0.48-0.27-0.83-0.27c-0.34,0-0.64,0.08-0.9,0.24c-0.26,0.16-0.49,0.39-0.68,0.68l-0.92-0.84
		c0.13-0.18,0.28-0.34,0.43-0.5c0.16-0.16,0.34-0.29,0.54-0.41c0.21-0.11,0.44-0.2,0.69-0.27s0.55-0.1,0.87-0.1
		c0.39,0,0.74,0.05,1.06,0.14s0.59,0.23,0.83,0.4c0.23,0.18,0.41,0.39,0.53,0.63c0.12,0.25,0.19,0.52,0.19,0.83
		c0,0.25-0.04,0.47-0.12,0.67c-0.08,0.2-0.18,0.37-0.32,0.52c-0.14,0.15-0.29,0.27-0.47,0.36c-0.18,0.09-0.37,0.16-0.57,0.2v0.07
		c0.22,0.04,0.43,0.11,0.63,0.21c0.2,0.1,0.37,0.22,0.51,0.38s0.26,0.34,0.34,0.56c0.08,0.21,0.13,0.46,0.13,0.73
		c0,0.34-0.07,0.65-0.2,0.92c-0.14,0.28-0.33,0.52-0.58,0.72c-0.25,0.2-0.55,0.35-0.89,0.46c-0.35,0.11-0.73,0.16-1.16,0.16
		c-0.37,0-0.7-0.04-0.99-0.12c-0.29-0.08-0.54-0.18-0.75-0.31c-0.22-0.13-0.41-0.28-0.57-0.46s-0.3-0.35-0.42-0.54l1.07-0.81
		c0.09,0.15,0.18,0.29,0.29,0.42s0.22,0.24,0.35,0.34s0.28,0.17,0.45,0.22s0.36,0.08,0.57,0.08c0.42,0,0.75-0.1,0.98-0.31
		c0.23-0.21,0.34-0.49,0.34-0.85V5.92c0-0.35-0.12-0.62-0.37-0.8c-0.25-0.18-0.6-0.28-1.06-0.28h-0.76V3.63H182.96z"/>
	<path class="st0" d="M4.15,20.45H4.09c-0.1,0.33-0.3,0.59-0.58,0.79c-0.29,0.2-0.62,0.3-1,0.3c-0.73,0-1.28-0.26-1.67-0.78
		s-0.58-1.27-0.58-2.23c0-0.96,0.19-1.7,0.58-2.22s0.94-0.78,1.67-0.78c0.38,0,0.71,0.1,1,0.29s0.48,0.46,0.58,0.79h0.05v-3.34h1.41
		v8.14H4.15V20.45z M2.96,20.37c0.34,0,0.62-0.08,0.85-0.24s0.34-0.39,0.34-0.69v-1.83c0-0.28-0.11-0.5-0.34-0.67
		c-0.23-0.17-0.51-0.25-0.85-0.25c-0.37,0-0.66,0.12-0.89,0.37c-0.22,0.25-0.34,0.57-0.34,0.98v0.99c0,0.41,0.11,0.74,0.34,0.98
		S2.59,20.37,2.96,20.37z"/>
	<path class="st0" d="M9.5,21.54c-0.42,0-0.8-0.07-1.14-0.21c-0.33-0.14-0.62-0.34-0.85-0.6c-0.23-0.26-0.41-0.58-0.53-0.95
		C6.86,19.4,6.8,18.99,6.8,18.52c0-0.45,0.06-0.87,0.18-1.23s0.29-0.68,0.52-0.94c0.23-0.26,0.51-0.46,0.84-0.6s0.7-0.21,1.12-0.21
		c0.45,0,0.84,0.08,1.17,0.23c0.33,0.15,0.6,0.36,0.81,0.63c0.21,0.26,0.37,0.57,0.48,0.92c0.11,0.35,0.16,0.72,0.16,1.12v0.46H8.26
		v0.14c0,0.42,0.12,0.75,0.35,1c0.23,0.25,0.58,0.38,1.04,0.38c0.35,0,0.64-0.07,0.86-0.22s0.42-0.33,0.6-0.56l0.76,0.85
		c-0.23,0.33-0.56,0.59-0.96,0.78C10.51,21.44,10.04,21.54,9.5,21.54z M9.48,16.59c-0.37,0-0.67,0.12-0.89,0.37
		c-0.22,0.25-0.33,0.57-0.33,0.97v0.09h2.35v-0.1c0-0.4-0.1-0.72-0.29-0.96C10.13,16.71,9.85,16.59,9.48,16.59z"/>
	<path class="st0" d="M15.2,21.54c-0.55,0-1.01-0.09-1.39-0.28s-0.7-0.45-0.99-0.78l0.86-0.84c0.21,0.24,0.45,0.43,0.7,0.57
		c0.25,0.14,0.54,0.21,0.87,0.21c0.34,0,0.58-0.06,0.73-0.18c0.15-0.12,0.23-0.28,0.23-0.48c0-0.17-0.05-0.3-0.16-0.4
		c-0.11-0.1-0.29-0.17-0.54-0.2l-0.57-0.08c-0.62-0.08-1.1-0.26-1.42-0.53c-0.33-0.27-0.49-0.68-0.49-1.2
		c0-0.28,0.05-0.53,0.15-0.75s0.25-0.41,0.44-0.57c0.19-0.16,0.42-0.28,0.69-0.36c0.27-0.08,0.57-0.13,0.9-0.13
		c0.28,0,0.53,0.02,0.74,0.06c0.22,0.04,0.41,0.1,0.59,0.18c0.18,0.08,0.34,0.17,0.48,0.29s0.29,0.24,0.43,0.38l-0.83,0.83
		c-0.17-0.18-0.37-0.32-0.61-0.44s-0.49-0.18-0.77-0.18c-0.31,0-0.53,0.06-0.67,0.17c-0.14,0.11-0.2,0.25-0.2,0.43
		c0,0.19,0.06,0.34,0.17,0.43c0.11,0.1,0.31,0.17,0.58,0.21l0.58,0.08c1.24,0.18,1.86,0.74,1.86,1.69c0,0.28-0.06,0.53-0.17,0.76
		c-0.11,0.23-0.27,0.43-0.48,0.59s-0.45,0.29-0.74,0.39C15.88,21.49,15.56,21.54,15.2,21.54z"/>
	<path class="st0" d="M21.08,21.54c-0.43,0-0.8-0.07-1.13-0.21s-0.61-0.34-0.83-0.6c-0.22-0.26-0.39-0.58-0.51-0.95
		c-0.12-0.37-0.18-0.79-0.18-1.25c0-0.46,0.06-0.88,0.18-1.24c0.12-0.37,0.29-0.68,0.51-0.94s0.5-0.46,0.83-0.6
		c0.33-0.14,0.71-0.21,1.13-0.21c0.58,0,1.06,0.13,1.44,0.39c0.38,0.26,0.65,0.61,0.82,1.07l-1.16,0.52
		c-0.07-0.24-0.19-0.44-0.37-0.6s-0.42-0.24-0.73-0.24c-0.4,0-0.69,0.12-0.89,0.37c-0.19,0.25-0.29,0.58-0.29,0.98v1.05
		c0,0.4,0.1,0.73,0.29,0.97c0.19,0.25,0.49,0.37,0.89,0.37c0.34,0,0.6-0.09,0.78-0.26c0.18-0.17,0.33-0.39,0.43-0.64l1.08,0.52
		c-0.19,0.51-0.48,0.89-0.87,1.14S21.63,21.54,21.08,21.54z"/>
	<path class="st0" d="M26.72,21.54c-0.42,0-0.8-0.07-1.14-0.21c-0.33-0.14-0.62-0.34-0.85-0.6c-0.23-0.26-0.41-0.58-0.53-0.95
		c-0.12-0.37-0.19-0.79-0.19-1.25c0-0.45,0.06-0.87,0.18-1.23s0.29-0.68,0.52-0.94c0.23-0.26,0.51-0.46,0.84-0.6s0.7-0.21,1.12-0.21
		c0.45,0,0.84,0.08,1.17,0.23c0.33,0.15,0.6,0.36,0.81,0.63c0.21,0.26,0.37,0.57,0.48,0.92c0.11,0.35,0.16,0.72,0.16,1.12v0.46
		h-3.82v0.14c0,0.42,0.12,0.75,0.35,1c0.23,0.25,0.58,0.38,1.04,0.38c0.35,0,0.64-0.07,0.86-0.22s0.42-0.33,0.6-0.56l0.76,0.85
		c-0.23,0.33-0.56,0.59-0.96,0.78C27.72,21.44,27.25,21.54,26.72,21.54z M26.7,16.59c-0.37,0-0.67,0.12-0.89,0.37
		c-0.22,0.25-0.33,0.57-0.33,0.97v0.09h2.35v-0.1c0-0.4-0.1-0.72-0.29-0.96C27.34,16.71,27.06,16.59,26.7,16.59z"/>
	<path class="st0" d="M30.54,21.41v-5.74h1.41v0.96H32c0.12-0.31,0.3-0.57,0.55-0.78c0.25-0.21,0.6-0.31,1.05-0.31
		c0.59,0,1.05,0.19,1.36,0.58s0.47,0.94,0.47,1.66v3.63h-1.41v-3.49c0-0.41-0.07-0.72-0.22-0.92c-0.15-0.21-0.39-0.31-0.73-0.31
		c-0.15,0-0.29,0.02-0.42,0.06c-0.14,0.04-0.26,0.1-0.36,0.18s-0.19,0.17-0.26,0.29c-0.07,0.11-0.1,0.25-0.1,0.4v3.79H30.54z"/>
	<path class="st0" d="M40.57,20.45h-0.05c-0.1,0.33-0.3,0.59-0.58,0.79c-0.29,0.2-0.62,0.3-1,0.3c-0.73,0-1.28-0.26-1.67-0.78
		s-0.58-1.27-0.58-2.23c0-0.96,0.19-1.7,0.58-2.22s0.94-0.78,1.67-0.78c0.38,0,0.71,0.1,1,0.29s0.48,0.46,0.58,0.79h0.05v-3.34h1.41
		v8.14h-1.41V20.45z M39.38,20.37c0.34,0,0.62-0.08,0.85-0.24s0.34-0.39,0.34-0.69v-1.83c0-0.28-0.11-0.5-0.34-0.67
		c-0.23-0.17-0.51-0.25-0.85-0.25c-0.37,0-0.66,0.12-0.89,0.37c-0.22,0.25-0.34,0.57-0.34,0.98v0.99c0,0.41,0.11,0.74,0.34,0.98
		S39.01,20.37,39.38,20.37z"/>
	<path class="st0" d="M45.92,21.54c-0.42,0-0.8-0.07-1.14-0.21c-0.33-0.14-0.62-0.34-0.85-0.6c-0.23-0.26-0.41-0.58-0.53-0.95
		c-0.12-0.37-0.19-0.79-0.19-1.25c0-0.45,0.06-0.87,0.18-1.23s0.29-0.68,0.52-0.94c0.23-0.26,0.51-0.46,0.84-0.6s0.7-0.21,1.12-0.21
		c0.45,0,0.84,0.08,1.17,0.23c0.33,0.15,0.6,0.36,0.81,0.63c0.21,0.26,0.37,0.57,0.48,0.92c0.11,0.35,0.16,0.72,0.16,1.12v0.46
		h-3.82v0.14c0,0.42,0.12,0.75,0.35,1c0.23,0.25,0.58,0.38,1.04,0.38c0.35,0,0.64-0.07,0.86-0.22s0.42-0.33,0.6-0.56l0.76,0.85
		c-0.23,0.33-0.56,0.59-0.96,0.78C46.93,21.44,46.46,21.54,45.92,21.54z M45.9,16.59c-0.37,0-0.67,0.12-0.89,0.37
		c-0.22,0.25-0.33,0.57-0.33,0.97v0.09h2.35v-0.1c0-0.4-0.1-0.72-0.29-0.96C46.55,16.71,46.27,16.59,45.9,16.59z"/>
	<path class="st0" d="M53.3,20.45h-0.05c-0.1,0.33-0.3,0.59-0.58,0.79c-0.29,0.2-0.62,0.3-1,0.3c-0.73,0-1.28-0.26-1.67-0.78
		s-0.58-1.27-0.58-2.23c0-0.96,0.19-1.7,0.58-2.22s0.94-0.78,1.67-0.78c0.38,0,0.71,0.1,1,0.29s0.48,0.46,0.58,0.79h0.05v-3.34h1.41
		v8.14H53.3V20.45z M52.12,20.37c0.34,0,0.62-0.08,0.85-0.24s0.34-0.39,0.34-0.69v-1.83c0-0.28-0.11-0.5-0.34-0.67
		c-0.23-0.17-0.51-0.25-0.85-0.25c-0.37,0-0.66,0.12-0.89,0.37c-0.22,0.25-0.34,0.57-0.34,0.98v0.99c0,0.41,0.11,0.74,0.34,0.98
		S51.75,20.37,52.12,20.37z"/>
	<path class="st0" d="M60.73,21.41c-0.48,0-0.85-0.13-1.11-0.38c-0.25-0.25-0.38-0.61-0.38-1.08V16.8H58.4v-1.13h0.44
		c0.21,0,0.36-0.05,0.43-0.15c0.08-0.1,0.12-0.25,0.12-0.45v-0.98h1.27v1.57h1.18v1.13h-1.18v3.48h1.09v1.13H60.73z"/>
	<path class="st0" d="M63.05,13.27h1.41v3.35h0.06c0.12-0.31,0.3-0.57,0.55-0.78c0.25-0.21,0.6-0.31,1.05-0.31
		c0.59,0,1.05,0.19,1.36,0.58s0.47,0.94,0.47,1.66v3.63h-1.41v-3.49c0-0.41-0.07-0.72-0.22-0.92c-0.15-0.21-0.39-0.31-0.73-0.31
		c-0.15,0-0.29,0.02-0.42,0.06c-0.14,0.04-0.26,0.1-0.36,0.18s-0.19,0.17-0.26,0.29c-0.07,0.11-0.1,0.25-0.1,0.4v3.79h-1.41V13.27z"
		/>
	<path class="st0" d="M71.84,21.54c-0.42,0-0.8-0.07-1.14-0.21c-0.33-0.14-0.62-0.34-0.85-0.6c-0.23-0.26-0.41-0.58-0.53-0.95
		c-0.12-0.37-0.19-0.79-0.19-1.25c0-0.45,0.06-0.87,0.18-1.23s0.29-0.68,0.52-0.94c0.23-0.26,0.51-0.46,0.84-0.6s0.7-0.21,1.12-0.21
		c0.45,0,0.84,0.08,1.17,0.23c0.33,0.15,0.6,0.36,0.81,0.63c0.21,0.26,0.37,0.57,0.48,0.92c0.11,0.35,0.16,0.72,0.16,1.12v0.46
		h-3.82v0.14c0,0.42,0.12,0.75,0.35,1c0.23,0.25,0.58,0.38,1.04,0.38c0.35,0,0.64-0.07,0.86-0.22s0.42-0.33,0.6-0.56l0.76,0.85
		c-0.23,0.33-0.56,0.59-0.96,0.78C72.84,21.44,72.37,21.54,71.84,21.54z M71.82,16.59c-0.37,0-0.67,0.12-0.89,0.37
		c-0.22,0.25-0.33,0.57-0.33,0.97v0.09h2.35v-0.1c0-0.4-0.1-0.72-0.29-0.96C72.46,16.71,72.18,16.59,71.82,16.59z"/>
	<path class="st0" d="M77.69,15.66h1.35l0.58,2.37L80.08,20h0.04l0.53-1.97l0.67-2.37h1.28l0.69,2.37L83.83,20h0.04l0.45-1.97
		l0.57-2.37h1.31l-1.57,5.74h-1.52l-0.74-2.53l-0.43-1.56h-0.03l-0.42,1.56l-0.73,2.53h-1.5L77.69,15.66z"/>
	<path class="st0" d="M89.48,21.54c-0.42,0-0.8-0.07-1.14-0.21c-0.33-0.14-0.62-0.34-0.85-0.6c-0.23-0.26-0.41-0.58-0.53-0.95
		c-0.12-0.37-0.19-0.79-0.19-1.25c0-0.45,0.06-0.87,0.18-1.23s0.29-0.68,0.52-0.94c0.23-0.26,0.51-0.46,0.84-0.6s0.7-0.21,1.12-0.21
		c0.45,0,0.84,0.08,1.17,0.23c0.33,0.15,0.6,0.36,0.81,0.63c0.21,0.26,0.37,0.57,0.48,0.92c0.11,0.35,0.16,0.72,0.16,1.12v0.46
		h-3.82v0.14c0,0.42,0.12,0.75,0.35,1c0.23,0.25,0.58,0.38,1.04,0.38c0.35,0,0.64-0.07,0.86-0.22s0.42-0.33,0.6-0.56l0.76,0.85
		c-0.23,0.33-0.56,0.59-0.96,0.78C90.49,21.44,90.02,21.54,89.48,21.54z M89.46,16.59c-0.37,0-0.67,0.12-0.89,0.37
		c-0.22,0.25-0.33,0.57-0.33,0.97v0.09h2.35v-0.1c0-0.4-0.1-0.72-0.29-0.96C90.11,16.71,89.83,16.59,89.46,16.59z"/>
	<path class="st0" d="M95.18,21.54c-0.55,0-1.01-0.09-1.39-0.28s-0.7-0.45-0.99-0.78l0.86-0.84c0.21,0.24,0.45,0.43,0.7,0.57
		c0.25,0.14,0.54,0.21,0.87,0.21c0.34,0,0.58-0.06,0.73-0.18c0.15-0.12,0.23-0.28,0.23-0.48c0-0.17-0.05-0.3-0.16-0.4
		c-0.11-0.1-0.29-0.17-0.54-0.2l-0.57-0.08c-0.62-0.08-1.1-0.26-1.42-0.53c-0.33-0.27-0.49-0.68-0.49-1.2
		c0-0.28,0.05-0.53,0.15-0.75s0.25-0.41,0.44-0.57c0.19-0.16,0.42-0.28,0.69-0.36c0.27-0.08,0.57-0.13,0.9-0.13
		c0.28,0,0.53,0.02,0.74,0.06c0.22,0.04,0.41,0.1,0.59,0.18c0.18,0.08,0.34,0.17,0.48,0.29s0.29,0.24,0.43,0.38l-0.83,0.83
		c-0.17-0.18-0.37-0.32-0.61-0.44s-0.49-0.18-0.77-0.18c-0.31,0-0.53,0.06-0.67,0.17c-0.14,0.11-0.2,0.25-0.2,0.43
		c0,0.19,0.06,0.34,0.17,0.43c0.11,0.1,0.31,0.17,0.58,0.21l0.58,0.08c1.24,0.18,1.86,0.74,1.86,1.69c0,0.28-0.06,0.53-0.17,0.76
		c-0.11,0.23-0.27,0.43-0.48,0.59s-0.45,0.29-0.74,0.39C95.86,21.49,95.54,21.54,95.18,21.54z"/>
	<path class="st0" d="M100.49,21.41c-0.48,0-0.85-0.13-1.11-0.38c-0.25-0.25-0.38-0.61-0.38-1.08V16.8h-0.85v-1.13h0.44
		c0.21,0,0.36-0.05,0.43-0.15c0.08-0.1,0.12-0.25,0.12-0.45v-0.98h1.27v1.57h1.18v1.13h-1.18v3.48h1.09v1.13H100.49z"/>
	<path class="st0" d="M105.09,21.54c-0.42,0-0.8-0.07-1.14-0.21c-0.33-0.14-0.62-0.34-0.85-0.6c-0.23-0.26-0.41-0.58-0.53-0.95
		c-0.12-0.37-0.19-0.79-0.19-1.25c0-0.45,0.06-0.87,0.18-1.23s0.29-0.68,0.52-0.94c0.23-0.26,0.51-0.46,0.84-0.6s0.7-0.21,1.12-0.21
		c0.45,0,0.84,0.08,1.17,0.23c0.33,0.15,0.6,0.36,0.81,0.63c0.21,0.26,0.37,0.57,0.48,0.92c0.11,0.35,0.16,0.72,0.16,1.12v0.46
		h-3.82v0.14c0,0.42,0.12,0.75,0.35,1c0.23,0.25,0.58,0.38,1.04,0.38c0.35,0,0.64-0.07,0.86-0.22s0.42-0.33,0.6-0.56l0.76,0.85
		c-0.23,0.33-0.56,0.59-0.96,0.78C106.1,21.44,105.62,21.54,105.09,21.54z M105.07,16.59c-0.37,0-0.67,0.12-0.89,0.37
		c-0.22,0.25-0.33,0.57-0.33,0.97v0.09h2.35v-0.1c0-0.4-0.1-0.72-0.29-0.96C105.71,16.71,105.43,16.59,105.07,16.59z"/>
	<path class="st0" d="M108.91,21.41v-5.74h1.41v1.19h0.06c0.04-0.15,0.09-0.3,0.17-0.45s0.18-0.27,0.3-0.38s0.27-0.2,0.45-0.26
		c0.17-0.07,0.37-0.1,0.6-0.1h0.31v1.33h-0.44c-0.48,0-0.84,0.07-1.08,0.21c-0.24,0.14-0.36,0.37-0.36,0.68v3.52H108.91z"/>
	<path class="st0" d="M113.23,21.41v-5.74h1.41v0.96h0.06c0.12-0.31,0.3-0.57,0.55-0.78c0.25-0.21,0.6-0.31,1.05-0.31
		c0.59,0,1.05,0.19,1.36,0.58s0.47,0.94,0.47,1.66v3.63h-1.41v-3.49c0-0.41-0.07-0.72-0.22-0.92c-0.15-0.21-0.39-0.31-0.73-0.31
		c-0.15,0-0.29,0.02-0.42,0.06c-0.14,0.04-0.26,0.1-0.36,0.18s-0.19,0.17-0.26,0.29c-0.07,0.11-0.1,0.25-0.1,0.4v3.79H113.23z"/>
	<path class="st0" d="M124.17,21.54c-0.55,0-1.01-0.09-1.39-0.28s-0.7-0.45-0.99-0.78l0.86-0.84c0.21,0.24,0.45,0.43,0.7,0.57
		c0.25,0.14,0.54,0.21,0.87,0.21c0.34,0,0.58-0.06,0.73-0.18c0.15-0.12,0.23-0.28,0.23-0.48c0-0.17-0.05-0.3-0.16-0.4
		c-0.11-0.1-0.29-0.17-0.54-0.2l-0.57-0.08c-0.62-0.08-1.1-0.26-1.42-0.53c-0.33-0.27-0.49-0.68-0.49-1.2
		c0-0.28,0.05-0.53,0.15-0.75s0.25-0.41,0.44-0.57c0.19-0.16,0.42-0.28,0.69-0.36c0.27-0.08,0.57-0.13,0.9-0.13
		c0.28,0,0.53,0.02,0.74,0.06c0.22,0.04,0.41,0.1,0.59,0.18c0.18,0.08,0.34,0.17,0.48,0.29s0.29,0.24,0.43,0.38l-0.83,0.83
		c-0.17-0.18-0.37-0.32-0.61-0.44s-0.49-0.18-0.77-0.18c-0.31,0-0.53,0.06-0.67,0.17c-0.14,0.11-0.2,0.25-0.2,0.43
		c0,0.19,0.06,0.34,0.17,0.43c0.11,0.1,0.31,0.17,0.58,0.21l0.58,0.08c1.24,0.18,1.86,0.74,1.86,1.69c0,0.28-0.06,0.53-0.17,0.76
		c-0.11,0.23-0.27,0.43-0.48,0.59s-0.45,0.29-0.74,0.39C124.86,21.49,124.53,21.54,124.17,21.54z"/>
	<path class="st0" d="M129.19,21.41c-0.48,0-0.84-0.12-1.07-0.36c-0.23-0.24-0.34-0.58-0.34-1.02v-6.75h1.41v7.01h0.76v1.13H129.19z
		"/>
	<path class="st0" d="M133.29,21.54c-0.41,0-0.78-0.07-1.11-0.21s-0.6-0.34-0.84-0.6c-0.23-0.26-0.41-0.58-0.53-0.95
		c-0.12-0.37-0.19-0.79-0.19-1.25c0-0.46,0.06-0.88,0.19-1.24c0.12-0.37,0.3-0.68,0.53-0.94c0.23-0.26,0.51-0.46,0.84-0.6
		c0.33-0.14,0.7-0.21,1.11-0.21c0.41,0,0.78,0.07,1.11,0.21c0.33,0.14,0.61,0.34,0.84,0.6c0.23,0.26,0.41,0.57,0.53,0.94
		c0.12,0.37,0.19,0.78,0.19,1.24c0,0.46-0.06,0.88-0.19,1.25c-0.12,0.37-0.3,0.69-0.53,0.95c-0.23,0.26-0.51,0.47-0.84,0.6
		S133.71,21.54,133.29,21.54z M133.29,20.4c0.37,0,0.67-0.11,0.88-0.34c0.21-0.23,0.32-0.56,0.32-1V18c0-0.43-0.11-0.76-0.32-0.99
		c-0.21-0.23-0.51-0.34-0.88-0.34c-0.37,0-0.66,0.11-0.87,0.34c-0.21,0.23-0.32,0.56-0.32,0.99v1.07c0,0.44,0.11,0.77,0.32,1
		C132.64,20.29,132.93,20.4,133.29,20.4z"/>
	<path class="st0" d="M137.21,15.66h1.41v0.95h0.04c0.1-0.33,0.3-0.59,0.58-0.79c0.29-0.19,0.62-0.29,1-0.29
		c0.73,0,1.29,0.26,1.68,0.78s0.58,1.26,0.58,2.22c0,0.97-0.19,1.71-0.58,2.23s-0.94,0.78-1.68,0.78c-0.38,0-0.71-0.1-1-0.3
		c-0.28-0.2-0.48-0.46-0.59-0.79h-0.04v3.16h-1.41V15.66z M139.8,20.37c0.37,0,0.66-0.12,0.89-0.36s0.34-0.57,0.34-0.98v-0.99
		c0-0.41-0.11-0.74-0.34-0.98c-0.23-0.25-0.52-0.37-0.89-0.37c-0.34,0-0.62,0.08-0.84,0.25c-0.22,0.17-0.34,0.39-0.34,0.67v1.83
		c0,0.3,0.11,0.53,0.34,0.69S139.46,20.37,139.8,20.37z"/>
	<path class="st0" d="M146.13,21.54c-0.42,0-0.8-0.07-1.14-0.21c-0.33-0.14-0.62-0.34-0.85-0.6c-0.23-0.26-0.41-0.58-0.53-0.95
		c-0.12-0.37-0.19-0.79-0.19-1.25c0-0.45,0.06-0.87,0.18-1.23s0.29-0.68,0.52-0.94c0.23-0.26,0.51-0.46,0.84-0.6s0.7-0.21,1.12-0.21
		c0.45,0,0.84,0.08,1.17,0.23c0.33,0.15,0.6,0.36,0.81,0.63c0.21,0.26,0.37,0.57,0.48,0.92c0.11,0.35,0.16,0.72,0.16,1.12v0.46
		h-3.82v0.14c0,0.42,0.12,0.75,0.35,1c0.23,0.25,0.58,0.38,1.04,0.38c0.35,0,0.64-0.07,0.86-0.22s0.42-0.33,0.6-0.56l0.76,0.85
		c-0.23,0.33-0.56,0.59-0.96,0.78C147.14,21.44,146.67,21.54,146.13,21.54z M146.11,16.59c-0.37,0-0.67,0.12-0.89,0.37
		c-0.22,0.25-0.33,0.57-0.33,0.97v0.09h2.35v-0.1c0-0.4-0.1-0.72-0.29-0.96C146.76,16.71,146.48,16.59,146.11,16.59z"/>
	<path class="st0" d="M154.82,21.54c-0.41,0-0.78-0.07-1.11-0.21s-0.6-0.34-0.84-0.6c-0.23-0.26-0.41-0.58-0.53-0.95
		c-0.12-0.37-0.19-0.79-0.19-1.25c0-0.46,0.06-0.88,0.19-1.24c0.12-0.37,0.3-0.68,0.53-0.94c0.23-0.26,0.51-0.46,0.84-0.6
		c0.33-0.14,0.7-0.21,1.11-0.21c0.41,0,0.78,0.07,1.11,0.21c0.33,0.14,0.61,0.34,0.84,0.6c0.23,0.26,0.41,0.57,0.53,0.94
		c0.12,0.37,0.19,0.78,0.19,1.24c0,0.46-0.06,0.88-0.19,1.25c-0.12,0.37-0.3,0.69-0.53,0.95c-0.23,0.26-0.51,0.47-0.84,0.6
		S155.23,21.54,154.82,21.54z M154.82,20.4c0.37,0,0.67-0.11,0.88-0.34c0.21-0.23,0.32-0.56,0.32-1V18c0-0.43-0.11-0.76-0.32-0.99
		c-0.21-0.23-0.51-0.34-0.88-0.34c-0.37,0-0.66,0.11-0.87,0.34c-0.21,0.23-0.32,0.56-0.32,0.99v1.07c0,0.44,0.11,0.77,0.32,1
		C154.16,20.29,154.45,20.4,154.82,20.4z"/>
	<path class="st0" d="M158.96,16.77h-0.85v-1.11h0.85v-0.82c0-0.51,0.13-0.89,0.4-1.17c0.27-0.27,0.66-0.41,1.18-0.41h1v1.13h-1.18
		v1.26h1.18v1.11h-1.18v4.63h-1.41V16.77z"/>
	<path class="st0" d="M166.91,21.41c-0.48,0-0.85-0.13-1.11-0.38c-0.25-0.25-0.38-0.61-0.38-1.08V16.8h-0.85v-1.13h0.44
		c0.21,0,0.36-0.05,0.43-0.15c0.08-0.1,0.12-0.25,0.12-0.45v-0.98h1.27v1.57h1.18v1.13h-1.18v3.48h1.09v1.13H166.91z"/>
	<path class="st0" d="M169.23,13.27h1.41v3.35h0.06c0.12-0.31,0.3-0.57,0.55-0.78c0.25-0.21,0.6-0.31,1.05-0.31
		c0.59,0,1.05,0.19,1.36,0.58s0.47,0.94,0.47,1.66v3.63h-1.41v-3.49c0-0.41-0.07-0.72-0.22-0.92c-0.15-0.21-0.39-0.31-0.73-0.31
		c-0.15,0-0.29,0.02-0.42,0.06c-0.14,0.04-0.26,0.1-0.36,0.18s-0.19,0.17-0.26,0.29c-0.07,0.11-0.1,0.25-0.1,0.4v3.79h-1.41V13.27z"
		/>
	<path class="st0" d="M178.02,21.54c-0.42,0-0.8-0.07-1.14-0.21c-0.33-0.14-0.62-0.34-0.85-0.6c-0.23-0.26-0.41-0.58-0.53-0.95
		c-0.12-0.37-0.19-0.79-0.19-1.25c0-0.45,0.06-0.87,0.18-1.23s0.29-0.68,0.52-0.94c0.23-0.26,0.51-0.46,0.84-0.6s0.7-0.21,1.12-0.21
		c0.45,0,0.84,0.08,1.17,0.23c0.33,0.15,0.6,0.36,0.81,0.63c0.21,0.26,0.37,0.57,0.48,0.92c0.11,0.35,0.16,0.72,0.16,1.12v0.46
		h-3.82v0.14c0,0.42,0.12,0.75,0.35,1c0.23,0.25,0.58,0.38,1.04,0.38c0.35,0,0.64-0.07,0.86-0.22s0.42-0.33,0.6-0.56l0.76,0.85
		c-0.23,0.33-0.56,0.59-0.96,0.78C179.03,21.44,178.55,21.54,178.02,21.54z M178,16.59c-0.37,0-0.67,0.12-0.89,0.37
		c-0.22,0.25-0.33,0.57-0.33,0.97v0.09h2.35v-0.1c0-0.4-0.1-0.72-0.29-0.96C178.64,16.71,178.36,16.59,178,16.59z"/>
	<path class="st0" d="M3.06,34.74c-0.66,0-1.22-0.12-1.68-0.35c-0.46-0.23-0.85-0.54-1.18-0.93l0.98-0.95
		c0.26,0.31,0.56,0.54,0.89,0.7c0.33,0.16,0.69,0.24,1.08,0.24c0.45,0,0.78-0.1,1.01-0.29s0.34-0.45,0.34-0.78
		c0-0.25-0.07-0.46-0.22-0.62c-0.15-0.16-0.42-0.28-0.83-0.35L2.73,31.3c-1.53-0.24-2.3-0.99-2.3-2.24c0-0.35,0.06-0.66,0.19-0.94
		c0.13-0.28,0.31-0.52,0.56-0.72c0.24-0.2,0.53-0.35,0.87-0.46s0.73-0.16,1.16-0.16c0.58,0,1.08,0.1,1.52,0.29
		c0.43,0.19,0.8,0.47,1.11,0.85l-0.99,0.94c-0.19-0.23-0.42-0.42-0.69-0.57c-0.27-0.15-0.61-0.22-1.02-0.22
		c-0.42,0-0.73,0.08-0.94,0.23s-0.31,0.38-0.31,0.66c0,0.29,0.08,0.51,0.25,0.64c0.17,0.14,0.44,0.24,0.81,0.31l0.71,0.13
		c0.78,0.14,1.35,0.39,1.72,0.74s0.56,0.85,0.56,1.49c0,0.37-0.06,0.7-0.19,1s-0.32,0.55-0.56,0.77c-0.25,0.22-0.55,0.38-0.9,0.5
		C3.93,34.68,3.52,34.74,3.06,34.74z"/>
	<path class="st0" d="M8.01,28.03c-0.29,0-0.5-0.07-0.63-0.2c-0.13-0.13-0.19-0.3-0.19-0.51V27.1c0-0.21,0.06-0.37,0.19-0.51
		c0.13-0.13,0.34-0.2,0.63-0.2c0.29,0,0.5,0.07,0.63,0.2c0.13,0.13,0.2,0.3,0.2,0.51v0.22c0,0.21-0.07,0.37-0.2,0.51
		C8.5,27.96,8.29,28.03,8.01,28.03z M7.3,28.86h1.41v5.74H7.3V28.86z"/>
	<path class="st0" d="M12.66,34.74c-0.42,0-0.8-0.07-1.14-0.21c-0.33-0.14-0.62-0.34-0.85-0.6c-0.23-0.26-0.41-0.58-0.53-0.95
		c-0.12-0.37-0.19-0.79-0.19-1.25c0-0.45,0.06-0.87,0.18-1.23s0.29-0.68,0.52-0.94c0.23-0.26,0.51-0.46,0.84-0.6s0.7-0.21,1.12-0.21
		c0.45,0,0.84,0.08,1.17,0.23c0.33,0.15,0.6,0.36,0.81,0.63c0.21,0.26,0.37,0.57,0.48,0.92c0.11,0.35,0.16,0.72,0.16,1.12v0.46
		h-3.82v0.14c0,0.42,0.12,0.75,0.35,1c0.23,0.25,0.58,0.38,1.04,0.38c0.35,0,0.64-0.07,0.86-0.22s0.42-0.33,0.6-0.56l0.76,0.85
		c-0.23,0.33-0.56,0.59-0.96,0.78C13.67,34.64,13.2,34.74,12.66,34.74z M12.64,29.79c-0.37,0-0.67,0.12-0.89,0.37
		c-0.22,0.25-0.33,0.57-0.33,0.97v0.09h2.35v-0.1c0-0.4-0.1-0.72-0.29-0.96C13.29,29.91,13,29.79,12.64,29.79z"/>
	<path class="st0" d="M16.48,34.61v-5.74h1.41v1.19h0.06c0.04-0.15,0.09-0.3,0.17-0.45s0.18-0.27,0.3-0.38s0.27-0.2,0.45-0.26
		c0.17-0.07,0.37-0.1,0.6-0.1h0.31v1.33h-0.44c-0.48,0-0.84,0.07-1.08,0.21c-0.24,0.14-0.36,0.37-0.36,0.68v3.52H16.48z"/>
	<path class="st0" d="M20.8,34.61v-5.74h1.41v1.19h0.06c0.04-0.15,0.09-0.3,0.17-0.45s0.18-0.27,0.3-0.38s0.27-0.2,0.45-0.26
		c0.17-0.07,0.37-0.1,0.6-0.1h0.31v1.33h-0.44c-0.48,0-0.84,0.07-1.08,0.21c-0.24,0.14-0.36,0.37-0.36,0.68v3.52H20.8z"/>
	<path class="st0" d="M29.23,34.61c-0.31,0-0.55-0.09-0.73-0.27s-0.29-0.42-0.34-0.72h-0.07c-0.1,0.37-0.29,0.65-0.58,0.84
		c-0.29,0.19-0.66,0.28-1.09,0.28c-0.59,0-1.04-0.15-1.35-0.46c-0.32-0.31-0.47-0.72-0.47-1.23c0-0.59,0.21-1.03,0.64-1.32
		s1.03-0.43,1.82-0.43h0.98v-0.42c0-0.32-0.08-0.57-0.25-0.75c-0.17-0.18-0.44-0.26-0.81-0.26c-0.33,0-0.6,0.07-0.8,0.21
		c-0.2,0.14-0.37,0.31-0.51,0.51l-0.84-0.75c0.21-0.33,0.5-0.6,0.85-0.8c0.35-0.2,0.82-0.3,1.4-0.3c0.78,0,1.37,0.18,1.77,0.53
		s0.61,0.86,0.61,1.51v2.7h0.57v1.13H29.23z M26.89,33.71c0.32,0,0.58-0.07,0.8-0.21c0.22-0.14,0.33-0.34,0.33-0.61v-0.75h-0.9
		c-0.73,0-1.1,0.23-1.1,0.7v0.19c0,0.23,0.08,0.41,0.23,0.52S26.62,33.71,26.89,33.71z"/>
	<path class="st0" d="M36.03,30.67l-0.79-1.6h-0.03v5.53h-1.38v-7.68h1.59l2.31,3.94l0.79,1.6h0.03v-5.53h1.38v7.68h-1.59
		L36.03,30.67z"/>
	<path class="st0" d="M43.98,34.74c-0.42,0-0.8-0.07-1.14-0.21c-0.33-0.14-0.62-0.34-0.85-0.6c-0.23-0.26-0.41-0.58-0.53-0.95
		c-0.12-0.37-0.19-0.79-0.19-1.25c0-0.45,0.06-0.87,0.18-1.23s0.29-0.68,0.52-0.94c0.23-0.26,0.51-0.46,0.84-0.6s0.7-0.21,1.12-0.21
		c0.45,0,0.84,0.08,1.17,0.23c0.33,0.15,0.6,0.36,0.81,0.63c0.21,0.26,0.37,0.57,0.48,0.92c0.11,0.35,0.16,0.72,0.16,1.12v0.46
		h-3.82v0.14c0,0.42,0.12,0.75,0.35,1c0.23,0.25,0.58,0.38,1.04,0.38c0.35,0,0.64-0.07,0.86-0.22s0.42-0.33,0.6-0.56l0.76,0.85
		c-0.23,0.33-0.56,0.59-0.96,0.78C44.98,34.64,44.51,34.74,43.98,34.74z M43.96,29.79c-0.37,0-0.67,0.12-0.89,0.37
		c-0.22,0.25-0.33,0.57-0.33,0.97v0.09h2.35v-0.1c0-0.4-0.1-0.72-0.29-0.96C44.6,29.91,44.32,29.79,43.96,29.79z"/>
	<path class="st0" d="M48.93,34.61l-1.91-5.74h1.39l0.8,2.48l0.56,2.05h0.08l0.56-2.05l0.78-2.48h1.34l-1.92,5.74H48.93z"/>
	<path class="st0" d="M57.58,34.61c-0.31,0-0.55-0.09-0.73-0.27s-0.29-0.42-0.34-0.72h-0.07c-0.1,0.37-0.29,0.65-0.58,0.84
		c-0.29,0.19-0.66,0.28-1.09,0.28c-0.59,0-1.04-0.15-1.35-0.46c-0.32-0.31-0.47-0.72-0.47-1.23c0-0.59,0.21-1.03,0.64-1.32
		s1.03-0.43,1.82-0.43h0.98v-0.42c0-0.32-0.08-0.57-0.25-0.75c-0.17-0.18-0.44-0.26-0.81-0.26c-0.33,0-0.6,0.07-0.8,0.21
		c-0.2,0.14-0.37,0.31-0.51,0.51l-0.84-0.75c0.21-0.33,0.5-0.6,0.85-0.8c0.35-0.2,0.82-0.3,1.4-0.3c0.78,0,1.37,0.18,1.77,0.53
		s0.61,0.86,0.61,1.51v2.7h0.57v1.13H57.58z M55.25,33.71c0.32,0,0.58-0.07,0.8-0.21c0.22-0.14,0.33-0.34,0.33-0.61v-0.75h-0.9
		c-0.73,0-1.1,0.23-1.1,0.7v0.19c0,0.23,0.08,0.41,0.23,0.52S54.97,33.71,55.25,33.71z"/>
	<path class="st0" d="M63.07,33.65h-0.05c-0.1,0.33-0.3,0.59-0.58,0.79c-0.29,0.2-0.62,0.3-1,0.3c-0.73,0-1.28-0.26-1.67-0.78
		s-0.58-1.27-0.58-2.23c0-0.96,0.19-1.7,0.58-2.22s0.94-0.78,1.67-0.78c0.38,0,0.71,0.1,1,0.29s0.48,0.46,0.58,0.79h0.05v-3.34h1.41
		v8.14h-1.41V33.65z M61.88,33.57c0.34,0,0.62-0.08,0.85-0.24s0.34-0.39,0.34-0.69v-1.83c0-0.28-0.11-0.5-0.34-0.67
		c-0.23-0.17-0.51-0.25-0.85-0.25c-0.37,0-0.66,0.12-0.89,0.37c-0.22,0.25-0.34,0.57-0.34,0.98v0.99c0,0.41,0.11,0.74,0.34,0.98
		S61.52,33.57,61.88,33.57z"/>
	<path class="st0" d="M70.33,34.61c-0.31,0-0.55-0.09-0.73-0.27s-0.29-0.42-0.34-0.72H69.2c-0.1,0.37-0.29,0.65-0.58,0.84
		c-0.29,0.19-0.66,0.28-1.09,0.28c-0.59,0-1.04-0.15-1.35-0.46c-0.32-0.31-0.47-0.72-0.47-1.23c0-0.59,0.21-1.03,0.64-1.32
		s1.03-0.43,1.82-0.43h0.98v-0.42c0-0.32-0.08-0.57-0.25-0.75c-0.17-0.18-0.44-0.26-0.81-0.26c-0.33,0-0.6,0.07-0.8,0.21
		c-0.2,0.14-0.37,0.31-0.51,0.51l-0.84-0.75c0.21-0.33,0.5-0.6,0.85-0.8c0.35-0.2,0.82-0.3,1.4-0.3c0.78,0,1.37,0.18,1.77,0.53
		s0.61,0.86,0.61,1.51v2.7h0.57v1.13H70.33z M68,33.71c0.32,0,0.58-0.07,0.8-0.21c0.22-0.14,0.33-0.34,0.33-0.61v-0.75h-0.9
		c-0.73,0-1.1,0.23-1.1,0.7v0.19c0,0.23,0.08,0.41,0.23,0.52S67.72,33.71,68,33.71z"/>
	<path class="st0" d="M80.74,29.09h-0.04l-0.59,1.22l-1.57,2.9l-1.57-2.9l-0.59-1.22h-0.04v5.51h-1.38v-7.68h1.64l1.97,3.75h0.04
		l1.95-3.75h1.57v7.68h-1.38V29.09z"/>
	<path class="st0" d="M86.1,34.74c-0.41,0-0.78-0.07-1.11-0.21s-0.6-0.34-0.84-0.6c-0.23-0.26-0.41-0.58-0.53-0.95
		c-0.12-0.37-0.19-0.79-0.19-1.25c0-0.46,0.06-0.88,0.19-1.24c0.12-0.37,0.3-0.68,0.53-0.94c0.23-0.26,0.51-0.46,0.84-0.6
		c0.33-0.14,0.7-0.21,1.11-0.21c0.41,0,0.78,0.07,1.11,0.21c0.33,0.14,0.61,0.34,0.84,0.6c0.23,0.26,0.41,0.57,0.53,0.94
		c0.12,0.37,0.19,0.78,0.19,1.24c0,0.46-0.06,0.88-0.19,1.25c-0.12,0.37-0.3,0.69-0.53,0.95c-0.23,0.26-0.51,0.47-0.84,0.6
		S86.52,34.74,86.1,34.74z M86.1,33.6c0.37,0,0.67-0.11,0.88-0.34c0.21-0.23,0.32-0.56,0.32-1V31.2c0-0.43-0.11-0.76-0.32-0.99
		c-0.21-0.23-0.51-0.34-0.88-0.34c-0.37,0-0.66,0.11-0.87,0.34c-0.21,0.23-0.32,0.56-0.32,0.99v1.07c0,0.44,0.11,0.77,0.32,1
		C85.45,33.49,85.74,33.6,86.1,33.6z"/>
	<path class="st0" d="M93.45,33.65H93.4c-0.05,0.15-0.12,0.28-0.2,0.41s-0.19,0.24-0.32,0.35c-0.13,0.1-0.28,0.18-0.46,0.24
		s-0.39,0.09-0.62,0.09c-0.59,0-1.05-0.19-1.36-0.58c-0.32-0.39-0.47-0.94-0.47-1.66v-3.63h1.41v3.49c0,0.4,0.08,0.7,0.23,0.91
		c0.15,0.21,0.4,0.31,0.74,0.31c0.14,0,0.28-0.02,0.41-0.05s0.25-0.09,0.36-0.17c0.1-0.08,0.19-0.17,0.25-0.29
		c0.07-0.11,0.1-0.25,0.1-0.4v-3.8h1.41v5.74h-1.41V33.65z"/>
	<path class="st0" d="M96.49,34.61v-5.74h1.41v0.96h0.06c0.12-0.31,0.3-0.57,0.55-0.78c0.25-0.21,0.6-0.31,1.05-0.31
		c0.59,0,1.05,0.19,1.36,0.58s0.47,0.94,0.47,1.66v3.63h-1.41v-3.49c0-0.41-0.07-0.72-0.22-0.92c-0.15-0.21-0.39-0.31-0.73-0.31
		c-0.15,0-0.29,0.02-0.42,0.06c-0.14,0.04-0.26,0.1-0.36,0.18S98.06,30.3,98,30.41c-0.07,0.11-0.1,0.25-0.1,0.4v3.79H96.49z"/>
	<path class="st0" d="M104.75,34.61c-0.48,0-0.85-0.13-1.11-0.38c-0.25-0.25-0.38-0.61-0.38-1.08V30h-0.85v-1.13h0.44
		c0.21,0,0.36-0.05,0.43-0.15c0.08-0.1,0.12-0.25,0.12-0.45v-0.98h1.27v1.57h1.18V30h-1.18v3.48h1.09v1.13H104.75z"/>
	<path class="st0" d="M111.29,34.61c-0.31,0-0.55-0.09-0.73-0.27s-0.29-0.42-0.34-0.72h-0.07c-0.1,0.37-0.29,0.65-0.58,0.84
		c-0.29,0.19-0.66,0.28-1.09,0.28c-0.59,0-1.04-0.15-1.35-0.46c-0.32-0.31-0.47-0.72-0.47-1.23c0-0.59,0.21-1.03,0.64-1.32
		s1.03-0.43,1.82-0.43h0.98v-0.42c0-0.32-0.08-0.57-0.25-0.75c-0.17-0.18-0.44-0.26-0.81-0.26c-0.33,0-0.6,0.07-0.8,0.21
		c-0.2,0.14-0.37,0.31-0.51,0.51l-0.84-0.75c0.21-0.33,0.5-0.6,0.85-0.8c0.35-0.2,0.82-0.3,1.4-0.3c0.78,0,1.37,0.18,1.77,0.53
		s0.61,0.86,0.61,1.51v2.7h0.57v1.13H111.29z M108.96,33.71c0.32,0,0.58-0.07,0.8-0.21c0.22-0.14,0.33-0.34,0.33-0.61v-0.75h-0.9
		c-0.73,0-1.1,0.23-1.1,0.7v0.19c0,0.23,0.08,0.41,0.23,0.52S108.68,33.71,108.96,33.71z"/>
	<path class="st0" d="M113.92,28.03c-0.29,0-0.5-0.07-0.63-0.2c-0.13-0.13-0.19-0.3-0.19-0.51V27.1c0-0.21,0.06-0.37,0.19-0.51
		c0.13-0.13,0.34-0.2,0.63-0.2c0.29,0,0.5,0.07,0.63,0.2c0.13,0.13,0.2,0.3,0.2,0.51v0.22c0,0.21-0.07,0.37-0.2,0.51
		C114.42,27.96,114.21,28.03,113.92,28.03z M113.22,28.86h1.41v5.74h-1.41V28.86z"/>
	<path class="st0" d="M116.25,34.61v-5.74h1.41v0.96h0.06c0.12-0.31,0.3-0.57,0.55-0.78c0.25-0.21,0.6-0.31,1.05-0.31
		c0.59,0,1.05,0.19,1.36,0.58s0.47,0.94,0.47,1.66v3.63h-1.41v-3.49c0-0.41-0.07-0.72-0.22-0.92c-0.15-0.21-0.39-0.31-0.73-0.31
		c-0.15,0-0.29,0.02-0.42,0.06c-0.14,0.04-0.26,0.1-0.36,0.18s-0.19,0.17-0.26,0.29c-0.07,0.11-0.1,0.25-0.1,0.4v3.79H116.25z"/>
	<path class="st0" d="M124.6,34.74c-0.55,0-1.01-0.09-1.39-0.28s-0.7-0.45-0.99-0.78l0.86-0.84c0.21,0.24,0.45,0.43,0.7,0.57
		c0.25,0.14,0.54,0.21,0.87,0.21c0.34,0,0.58-0.06,0.73-0.18c0.15-0.12,0.23-0.28,0.23-0.48c0-0.17-0.05-0.3-0.16-0.4
		c-0.11-0.1-0.29-0.17-0.54-0.2l-0.57-0.08c-0.62-0.08-1.1-0.26-1.42-0.53c-0.33-0.27-0.49-0.68-0.49-1.2
		c0-0.28,0.05-0.53,0.15-0.75s0.25-0.41,0.44-0.57c0.19-0.16,0.42-0.28,0.69-0.36c0.27-0.08,0.57-0.13,0.9-0.13
		c0.28,0,0.53,0.02,0.74,0.06c0.22,0.04,0.41,0.1,0.59,0.18c0.18,0.08,0.34,0.17,0.48,0.29s0.29,0.24,0.43,0.38l-0.83,0.83
		c-0.17-0.18-0.37-0.32-0.61-0.44s-0.49-0.18-0.77-0.18c-0.31,0-0.53,0.06-0.67,0.17c-0.14,0.11-0.2,0.25-0.2,0.43
		c0,0.19,0.06,0.34,0.17,0.43c0.11,0.1,0.31,0.17,0.58,0.21l0.58,0.08c1.24,0.18,1.86,0.74,1.86,1.69c0,0.28-0.06,0.53-0.17,0.76
		c-0.11,0.23-0.27,0.43-0.48,0.59s-0.45,0.29-0.74,0.39C125.29,34.69,124.96,34.74,124.6,34.74z"/>
	<path class="st0" d="M135.03,34.61c-0.31,0-0.55-0.09-0.73-0.27s-0.29-0.42-0.34-0.72h-0.07c-0.1,0.37-0.29,0.65-0.58,0.84
		c-0.29,0.19-0.66,0.28-1.09,0.28c-0.59,0-1.04-0.15-1.35-0.46c-0.32-0.31-0.47-0.72-0.47-1.23c0-0.59,0.21-1.03,0.64-1.32
		s1.03-0.43,1.82-0.43h0.98v-0.42c0-0.32-0.08-0.57-0.25-0.75c-0.17-0.18-0.44-0.26-0.81-0.26c-0.33,0-0.6,0.07-0.8,0.21
		c-0.2,0.14-0.37,0.31-0.51,0.51l-0.84-0.75c0.21-0.33,0.5-0.6,0.85-0.8c0.35-0.2,0.82-0.3,1.4-0.3c0.78,0,1.37,0.18,1.77,0.53
		s0.61,0.86,0.61,1.51v2.7h0.57v1.13H135.03z M132.7,33.71c0.32,0,0.58-0.07,0.8-0.21c0.22-0.14,0.33-0.34,0.33-0.61v-0.75h-0.9
		c-0.73,0-1.1,0.23-1.1,0.7v0.19c0,0.23,0.08,0.41,0.23,0.52S132.42,33.71,132.7,33.71z"/>
	<path class="st0" d="M136.96,34.61v-5.74h1.41v0.96h0.06c0.12-0.31,0.3-0.57,0.55-0.78c0.25-0.21,0.6-0.31,1.05-0.31
		c0.59,0,1.05,0.19,1.36,0.58s0.47,0.94,0.47,1.66v3.63h-1.41v-3.49c0-0.41-0.07-0.72-0.22-0.92c-0.15-0.21-0.39-0.31-0.73-0.31
		c-0.15,0-0.29,0.02-0.42,0.06c-0.14,0.04-0.26,0.1-0.36,0.18s-0.19,0.17-0.26,0.29c-0.07,0.11-0.1,0.25-0.1,0.4v3.79H136.96z"/>
	<path class="st0" d="M146.99,33.65h-0.05c-0.1,0.33-0.3,0.59-0.58,0.79c-0.29,0.2-0.62,0.3-1,0.3c-0.73,0-1.28-0.26-1.67-0.78
		s-0.58-1.27-0.58-2.23c0-0.96,0.19-1.7,0.58-2.22s0.94-0.78,1.67-0.78c0.38,0,0.71,0.1,1,0.29s0.48,0.46,0.58,0.79h0.05v-3.34h1.41
		v8.14h-1.41V33.65z M145.8,33.57c0.34,0,0.62-0.08,0.85-0.24s0.34-0.39,0.34-0.69v-1.83c0-0.28-0.11-0.5-0.34-0.67
		c-0.23-0.17-0.51-0.25-0.85-0.25c-0.37,0-0.66,0.12-0.89,0.37c-0.22,0.25-0.34,0.57-0.34,0.98v0.99c0,0.41,0.11,0.74,0.34,0.98
		S145.43,33.57,145.8,33.57z"/>
	<path class="st0" d="M153.85,34.61l-1.91-5.74h1.39l0.8,2.48l0.56,2.05h0.08l0.56-2.05l0.78-2.48h1.34l-1.92,5.74H153.85z"/>
	<path class="st0" d="M159.09,28.03c-0.29,0-0.5-0.07-0.63-0.2c-0.13-0.13-0.19-0.3-0.19-0.51V27.1c0-0.21,0.06-0.37,0.19-0.51
		c0.13-0.13,0.34-0.2,0.63-0.2c0.29,0,0.5,0.07,0.63,0.2c0.13,0.13,0.2,0.3,0.2,0.51v0.22c0,0.21-0.07,0.37-0.2,0.51
		C159.58,27.96,159.37,28.03,159.09,28.03z M158.38,28.86h1.41v5.74h-1.41V28.86z"/>
	<path class="st0" d="M163.74,34.74c-0.42,0-0.8-0.07-1.14-0.21c-0.33-0.14-0.62-0.34-0.85-0.6c-0.23-0.26-0.41-0.58-0.53-0.95
		c-0.12-0.37-0.19-0.79-0.19-1.25c0-0.45,0.06-0.87,0.18-1.23s0.29-0.68,0.52-0.94c0.23-0.26,0.51-0.46,0.84-0.6s0.7-0.21,1.12-0.21
		c0.45,0,0.84,0.08,1.17,0.23c0.33,0.15,0.6,0.36,0.81,0.63c0.21,0.26,0.37,0.57,0.48,0.92c0.11,0.35,0.16,0.72,0.16,1.12v0.46
		h-3.82v0.14c0,0.42,0.12,0.75,0.35,1c0.23,0.25,0.58,0.38,1.04,0.38c0.35,0,0.64-0.07,0.86-0.22s0.42-0.33,0.6-0.56l0.76,0.85
		c-0.23,0.33-0.56,0.59-0.96,0.78C164.75,34.64,164.27,34.74,163.74,34.74z M163.72,29.79c-0.37,0-0.67,0.12-0.89,0.37
		c-0.22,0.25-0.33,0.57-0.33,0.97v0.09h2.35v-0.1c0-0.4-0.1-0.72-0.29-0.96C164.36,29.91,164.08,29.79,163.72,29.79z"/>
	<path class="st0" d="M166.94,28.86h1.35l0.58,2.37l0.45,1.97h0.04l0.53-1.97l0.67-2.37h1.28l0.69,2.37l0.54,1.97h0.04l0.45-1.97
		l0.57-2.37h1.31l-1.57,5.74h-1.52l-0.74-2.53l-0.43-1.56h-0.03l-0.42,1.56l-0.73,2.53h-1.5L166.94,28.86z"/>
	<path class="st0" d="M178.73,34.74c-0.42,0-0.8-0.07-1.14-0.21c-0.33-0.14-0.62-0.34-0.85-0.6c-0.23-0.26-0.41-0.58-0.53-0.95
		c-0.12-0.37-0.19-0.79-0.19-1.25c0-0.45,0.06-0.87,0.18-1.23s0.29-0.68,0.52-0.94c0.23-0.26,0.51-0.46,0.84-0.6s0.7-0.21,1.12-0.21
		c0.45,0,0.84,0.08,1.17,0.23c0.33,0.15,0.6,0.36,0.81,0.63c0.21,0.26,0.37,0.57,0.48,0.92c0.11,0.35,0.16,0.72,0.16,1.12v0.46
		h-3.82v0.14c0,0.42,0.12,0.75,0.35,1c0.23,0.25,0.58,0.38,1.04,0.38c0.35,0,0.64-0.07,0.86-0.22s0.42-0.33,0.6-0.56l0.76,0.85
		c-0.23,0.33-0.56,0.59-0.96,0.78C179.74,34.64,179.27,34.74,178.73,34.74z M178.71,29.79c-0.37,0-0.67,0.12-0.89,0.37
		c-0.22,0.25-0.33,0.57-0.33,0.97v0.09h2.35v-0.1c0-0.4-0.1-0.72-0.29-0.96C179.36,29.91,179.08,29.79,178.71,29.79z"/>
	<path class="st0" d="M186.11,33.65h-0.05c-0.1,0.33-0.3,0.59-0.58,0.79c-0.29,0.2-0.62,0.3-1,0.3c-0.73,0-1.28-0.26-1.67-0.78
		s-0.58-1.27-0.58-2.23c0-0.96,0.19-1.7,0.58-2.22s0.94-0.78,1.67-0.78c0.38,0,0.71,0.1,1,0.29s0.48,0.46,0.58,0.79h0.05v-3.34h1.41
		v8.14h-1.41V33.65z M184.92,33.57c0.34,0,0.62-0.08,0.85-0.24s0.34-0.39,0.34-0.69v-1.83c0-0.28-0.11-0.5-0.34-0.67
		c-0.23-0.17-0.51-0.25-0.85-0.25c-0.37,0-0.66,0.12-0.89,0.37c-0.22,0.25-0.34,0.57-0.34,0.98v0.99c0,0.41,0.11,0.74,0.34,0.98
		S184.56,33.57,184.92,33.57z"/>
	<path class="st0" d="M5.42,47.81l-0.62-1.96H2.08l-0.6,1.96H0l2.57-7.68h1.8l2.55,7.68H5.42z M3.46,41.45H3.41L2.43,44.6h2.02
		L3.46,41.45z"/>
	<path class="st0" d="M7.97,39.67h1.41v3.35h0.06c0.12-0.31,0.3-0.57,0.55-0.78c0.25-0.21,0.6-0.31,1.05-0.31
		c0.59,0,1.05,0.19,1.36,0.58s0.47,0.94,0.47,1.66v3.63h-1.41v-3.49c0-0.41-0.07-0.72-0.22-0.92c-0.15-0.21-0.39-0.31-0.73-0.31
		c-0.15,0-0.29,0.02-0.42,0.06c-0.14,0.04-0.26,0.1-0.36,0.18s-0.19,0.17-0.26,0.29c-0.07,0.11-0.1,0.25-0.1,0.4v3.79H7.97V39.67z"
		/>
	<path class="st0" d="M13.81,42.06h1.35l0.58,2.37l0.45,1.97h0.04l0.53-1.97l0.67-2.37h1.28l0.69,2.37l0.54,1.97H20l0.45-1.97
		l0.57-2.37h1.31l-1.57,5.74h-1.52l-0.74-2.53l-0.43-1.56h-0.03l-0.42,1.56l-0.73,2.53h-1.5L13.81,42.06z"/>
	<path class="st0" d="M27.47,47.81c-0.31,0-0.55-0.09-0.73-0.27s-0.29-0.42-0.34-0.72h-0.07c-0.1,0.37-0.29,0.65-0.58,0.84
		c-0.29,0.19-0.66,0.28-1.09,0.28c-0.59,0-1.04-0.15-1.35-0.46c-0.32-0.31-0.47-0.72-0.47-1.23c0-0.59,0.21-1.03,0.64-1.32
		s1.03-0.43,1.82-0.43h0.98v-0.42c0-0.32-0.08-0.57-0.25-0.75c-0.17-0.18-0.44-0.26-0.81-0.26c-0.33,0-0.6,0.07-0.8,0.21
		c-0.2,0.14-0.37,0.31-0.51,0.51l-0.84-0.75c0.21-0.33,0.5-0.6,0.85-0.8c0.35-0.2,0.82-0.3,1.4-0.3c0.78,0,1.37,0.18,1.77,0.53
		s0.61,0.86,0.61,1.51v2.7h0.57v1.13H27.47z M25.13,46.91c0.32,0,0.58-0.07,0.8-0.21c0.22-0.14,0.33-0.34,0.33-0.61v-0.75h-0.9
		c-0.73,0-1.1,0.23-1.1,0.7v0.19c0,0.23,0.08,0.41,0.23,0.52S24.85,46.91,25.13,46.91z"/>
	<path class="st0" d="M29.39,39.67h1.41v3.35h0.06c0.12-0.31,0.3-0.57,0.55-0.78c0.25-0.21,0.6-0.31,1.05-0.31
		c0.59,0,1.05,0.19,1.36,0.58s0.47,0.94,0.47,1.66v3.63h-1.41v-3.49c0-0.41-0.07-0.72-0.22-0.92c-0.15-0.21-0.39-0.31-0.73-0.31
		c-0.15,0-0.29,0.02-0.42,0.06c-0.14,0.04-0.26,0.1-0.36,0.18s-0.19,0.17-0.26,0.29c-0.07,0.11-0.1,0.25-0.1,0.4v3.79h-1.41V39.67z"
		/>
	<path class="st0" d="M35.86,47.81v-5.74h1.41v0.96h0.06c0.12-0.31,0.3-0.57,0.55-0.78c0.25-0.21,0.6-0.31,1.05-0.31
		c0.59,0,1.05,0.19,1.36,0.58s0.47,0.94,0.47,1.66v3.63h-1.41v-3.49c0-0.41-0.07-0.72-0.22-0.92c-0.15-0.21-0.39-0.31-0.73-0.31
		c-0.15,0-0.29,0.02-0.42,0.06c-0.14,0.04-0.26,0.1-0.36,0.18s-0.19,0.17-0.26,0.29c-0.07,0.11-0.1,0.25-0.1,0.4v3.79H35.86z"/>
	<path class="st0" d="M44.65,47.94c-0.42,0-0.8-0.07-1.14-0.21c-0.33-0.14-0.62-0.34-0.85-0.6c-0.23-0.26-0.41-0.58-0.53-0.95
		c-0.12-0.37-0.19-0.79-0.19-1.25c0-0.45,0.06-0.87,0.18-1.23s0.29-0.68,0.52-0.94c0.23-0.26,0.51-0.46,0.84-0.6s0.7-0.21,1.12-0.21
		c0.45,0,0.84,0.08,1.17,0.23c0.33,0.15,0.6,0.36,0.81,0.63c0.21,0.26,0.37,0.57,0.48,0.92c0.11,0.35,0.16,0.72,0.16,1.12v0.46H43.4
		v0.14c0,0.42,0.12,0.75,0.35,1c0.23,0.25,0.58,0.38,1.04,0.38c0.35,0,0.64-0.07,0.86-0.22s0.42-0.33,0.6-0.56l0.76,0.85
		c-0.23,0.33-0.56,0.59-0.96,0.78C45.65,47.84,45.18,47.94,44.65,47.94z M44.62,42.99c-0.37,0-0.67,0.12-0.89,0.37
		c-0.22,0.25-0.33,0.57-0.33,0.97v0.09h2.35v-0.1c0-0.4-0.1-0.72-0.29-0.96C45.27,43.11,44.99,42.99,44.62,42.99z"/>
	<path class="st0" d="M50.78,47.94c-0.42,0-0.8-0.07-1.14-0.21c-0.33-0.14-0.62-0.34-0.85-0.6c-0.23-0.26-0.41-0.58-0.53-0.95
		c-0.12-0.37-0.19-0.79-0.19-1.25c0-0.45,0.06-0.87,0.18-1.23s0.29-0.68,0.52-0.94c0.23-0.26,0.51-0.46,0.84-0.6s0.7-0.21,1.12-0.21
		c0.45,0,0.84,0.08,1.17,0.23c0.33,0.15,0.6,0.36,0.81,0.63c0.21,0.26,0.37,0.57,0.48,0.92c0.11,0.35,0.16,0.72,0.16,1.12v0.46
		h-3.82v0.14c0,0.42,0.12,0.75,0.35,1c0.23,0.25,0.58,0.38,1.04,0.38c0.35,0,0.64-0.07,0.86-0.22s0.42-0.33,0.6-0.56l0.76,0.85
		c-0.23,0.33-0.56,0.59-0.96,0.78C51.79,47.84,51.32,47.94,50.78,47.94z M50.76,42.99c-0.37,0-0.67,0.12-0.89,0.37
		c-0.22,0.25-0.33,0.57-0.33,0.97v0.09h2.35v-0.1c0-0.4-0.1-0.72-0.29-0.96C51.41,43.11,51.13,42.99,50.76,42.99z"/>
	<path class="st0" d="M55.25,47.93c-0.3,0-0.52-0.08-0.67-0.23c-0.14-0.15-0.21-0.34-0.21-0.58v-0.2c0-0.23,0.07-0.43,0.21-0.58
		c0.14-0.15,0.36-0.23,0.67-0.23c0.31,0,0.53,0.08,0.67,0.23c0.14,0.15,0.21,0.35,0.21,0.58v0.2c0,0.23-0.07,0.43-0.21,0.58
		C55.78,47.85,55.56,47.93,55.25,47.93z"/>
</g>
</svg>
