<!-- Generator: Adobe Illustrator 23.1.1, SVG Export Plug-In  -->
<svg version="1.1" xmlns="http://www.w3.org/2000/svg" xmlns:xlink="http://www.w3.org/1999/xlink" x="0px" y="0px" width="52.22px"
	 height="10.34px" viewBox="0 0 52.22 10.34" style="enable-background:new 0 0 52.22 10.34;" xml:space="preserve">
<style type="text/css">
	.st0{fill:#FFFFFF;}
</style>
<defs>
</defs>
<g>
	<path class="st0" d="M2.62,10.34V9.36C2.01,9.32,1.49,9.17,1.07,8.91C0.65,8.65,0.3,8.32,0,7.93L0.71,7.3
		c0.26,0.34,0.54,0.62,0.85,0.82c0.31,0.2,0.67,0.33,1.07,0.39V5.42C1.8,5.24,1.2,4.97,0.82,4.61C0.44,4.26,0.25,3.77,0.25,3.14
		c0-0.32,0.06-0.61,0.17-0.86C0.54,2.03,0.7,1.82,0.91,1.63C1.12,1.45,1.37,1.3,1.66,1.19c0.29-0.11,0.61-0.18,0.96-0.21V0h0.74
		v0.97C3.9,1.02,4.37,1.16,4.77,1.38S5.51,1.92,5.8,2.32L5.06,2.87c-0.2-0.28-0.44-0.51-0.72-0.69c-0.28-0.18-0.61-0.3-1-0.35v2.82
		l0.11,0.02c0.83,0.18,1.44,0.45,1.82,0.81c0.38,0.36,0.57,0.85,0.57,1.48c0,0.69-0.22,1.24-0.67,1.66
		C4.73,9.04,4.13,9.29,3.36,9.36v0.98H2.62z M1.2,3.07c0,0.41,0.12,0.71,0.35,0.92c0.24,0.2,0.59,0.37,1.07,0.5V1.84
		C2.2,1.89,1.85,2.02,1.59,2.23S1.2,2.72,1.2,3.07z M4.9,7.02c0-0.41-0.12-0.72-0.35-0.94C4.31,5.86,3.91,5.69,3.35,5.55v2.96
		c0.48-0.06,0.86-0.23,1.13-0.49S4.9,7.43,4.9,7.02z"/>
	<path class="st0" d="M9.84,9.36l3.2-7.51H9.47v1.56h-0.9V0.98h5.5v0.89l-3.14,7.49H9.84z"/>
	<path class="st0" d="M20.63,9.36V7.72h-4.04V6.83l3.5-5.84h1.5v5.89h1.21v0.84h-1.21v1.64H20.63z M17.53,6.88h3.1V1.76h-0.06
		L17.53,6.88z"/>
	<path class="st0" d="M30.91,4.06c0,0.62-0.09,1.21-0.28,1.76c-0.18,0.55-0.42,1.05-0.71,1.5s-0.61,0.85-0.97,1.2
		c-0.35,0.35-0.7,0.63-1.03,0.85h-1.3c0.45-0.33,0.85-0.65,1.2-0.96c0.35-0.31,0.66-0.64,0.92-0.98c0.26-0.34,0.49-0.7,0.67-1.09
		c0.18-0.39,0.33-0.82,0.44-1.31L29.81,5c-0.2,0.34-0.46,0.63-0.77,0.86C28.72,6.09,28.3,6.2,27.79,6.2c-0.36,0-0.69-0.06-1-0.18
		c-0.3-0.12-0.56-0.29-0.78-0.52s-0.39-0.5-0.51-0.81c-0.12-0.32-0.19-0.68-0.19-1.08c0-0.41,0.07-0.78,0.2-1.12
		s0.32-0.63,0.56-0.88s0.54-0.43,0.88-0.57s0.72-0.2,1.15-0.2c0.43,0,0.82,0.07,1.17,0.22c0.35,0.15,0.64,0.36,0.89,0.64
		s0.43,0.61,0.56,1.01C30.85,3.11,30.91,3.56,30.91,4.06z M28.12,5.35c0.55,0,0.98-0.15,1.29-0.46c0.31-0.3,0.46-0.74,0.46-1.31
		v-0.1c0-0.57-0.15-1-0.46-1.31c-0.31-0.3-0.74-0.46-1.29-0.46c-0.55,0-0.98,0.15-1.29,0.46c-0.31,0.3-0.46,0.74-0.46,1.31v0.1
		c0,0.57,0.15,1,0.46,1.31C27.13,5.2,27.56,5.35,28.12,5.35z"/>
	<path class="st0" d="M34.53,9.5c-0.26,0-0.44-0.06-0.56-0.19c-0.12-0.13-0.17-0.3-0.17-0.5V8.65c0-0.21,0.06-0.38,0.17-0.5
		c0.12-0.13,0.3-0.19,0.56-0.19s0.44,0.06,0.56,0.19c0.12,0.13,0.17,0.3,0.17,0.5v0.16c0,0.21-0.06,0.38-0.17,0.5
		C34.98,9.44,34.79,9.5,34.53,9.5z"/>
	<path class="st0" d="M40.95,9.5c-1,0-1.73-0.38-2.19-1.14c-0.46-0.76-0.69-1.82-0.69-3.19c0-1.37,0.23-2.43,0.69-3.19
		c0.46-0.76,1.19-1.14,2.19-1.14s1.73,0.38,2.19,1.14s0.69,1.82,0.69,3.19c0,1.37-0.23,2.43-0.69,3.19S41.95,9.5,40.95,9.5z
		 M40.95,8.62c0.33,0,0.61-0.07,0.84-0.2s0.42-0.33,0.56-0.57s0.25-0.54,0.32-0.87s0.1-0.71,0.1-1.11V4.49
		c0-0.41-0.03-0.78-0.1-1.11s-0.17-0.63-0.32-0.87s-0.33-0.44-0.56-0.57s-0.51-0.2-0.84-0.2c-0.33,0-0.61,0.07-0.84,0.2
		s-0.42,0.33-0.56,0.57s-0.25,0.54-0.32,0.87s-0.1,0.71-0.1,1.11v1.36c0,0.41,0.03,0.78,0.1,1.11s0.17,0.63,0.32,0.87
		s0.33,0.44,0.56,0.57S40.63,8.62,40.95,8.62z"/>
	<path class="st0" d="M49.34,9.5c-1,0-1.73-0.38-2.19-1.14c-0.46-0.76-0.69-1.82-0.69-3.19c0-1.37,0.23-2.43,0.69-3.19
		c0.46-0.76,1.19-1.14,2.19-1.14s1.73,0.38,2.19,1.14s0.69,1.82,0.69,3.19c0,1.37-0.23,2.43-0.69,3.19S50.34,9.5,49.34,9.5z
		 M49.34,8.62c0.33,0,0.61-0.07,0.84-0.2s0.42-0.33,0.56-0.57S51,7.3,51.06,6.97s0.1-0.71,0.1-1.11V4.49c0-0.41-0.03-0.78-0.1-1.11
		s-0.17-0.63-0.32-0.87s-0.33-0.44-0.56-0.57s-0.51-0.2-0.84-0.2c-0.33,0-0.61,0.07-0.84,0.2s-0.42,0.33-0.56,0.57
		s-0.25,0.54-0.32,0.87s-0.1,0.71-0.1,1.11v1.36c0,0.41,0.03,0.78,0.1,1.11s0.17,0.63,0.32,0.87s0.33,0.44,0.56,0.57
		S49.01,8.62,49.34,8.62z"/>
</g>
</svg>
