<!-- Generator: Adobe Illustrator 23.1.1, SVG Export Plug-In  -->
<svg version="1.1" xmlns="http://www.w3.org/2000/svg" xmlns:xlink="http://www.w3.org/1999/xlink" x="0px" y="0px" width="38px"
	 height="9.02px" viewBox="0 0 38 9.02" style="enable-background:new 0 0 38 9.02;" xml:space="preserve">
<defs>
</defs>
<g>
	<path d="M2.23,8.88L0,0.5h0.29l2.11,8h0.04l2.24-8h0.38l2.24,8h0.04l2.12-8h0.28L7.51,8.88H7.15L4.88,0.79H4.85L2.59,8.88H2.23z"/>
	<path d="M11.48,0.8c-0.1,0-0.18-0.03-0.22-0.08c-0.04-0.05-0.06-0.11-0.06-0.17V0.47c0-0.06,0.02-0.12,0.06-0.17
		c0.04-0.05,0.11-0.08,0.22-0.08s0.18,0.03,0.22,0.08c0.04,0.05,0.06,0.11,0.06,0.17v0.08c0,0.06-0.02,0.12-0.06,0.17
		C11.66,0.78,11.59,0.8,11.48,0.8z M11.36,2.81h0.25v6.07h-0.25V2.81z"/>
	<path d="M14.48,8.88c-0.23,0-0.35-0.12-0.35-0.35V0h0.25v8.65h1.02v0.23H14.48z"/>
	<path d="M21.15,7.94h-0.04c-0.06,0.14-0.15,0.27-0.26,0.4s-0.25,0.24-0.41,0.34c-0.16,0.1-0.35,0.18-0.57,0.25
		c-0.22,0.06-0.46,0.1-0.72,0.1c-0.8,0-1.42-0.26-1.87-0.79c-0.45-0.53-0.67-1.32-0.67-2.39s0.22-1.86,0.67-2.39
		c0.45-0.53,1.07-0.79,1.87-0.79c0.26,0,0.5,0.03,0.72,0.1c0.22,0.06,0.41,0.15,0.57,0.25s0.3,0.22,0.41,0.35
		c0.11,0.13,0.2,0.26,0.26,0.39h0.04V0h0.25v8.88h-0.25V7.94z M19.15,8.8c0.26,0,0.52-0.04,0.76-0.12c0.24-0.08,0.45-0.19,0.64-0.34
		c0.19-0.14,0.34-0.32,0.44-0.52c0.11-0.2,0.16-0.42,0.16-0.66V4.52c0-0.24-0.05-0.46-0.16-0.66c-0.11-0.2-0.26-0.37-0.44-0.52
		c-0.19-0.14-0.4-0.26-0.64-0.34c-0.24-0.08-0.49-0.12-0.76-0.12c-0.73,0-1.29,0.24-1.68,0.71s-0.59,1.13-0.59,1.95v0.58
		c0,0.82,0.2,1.47,0.59,1.95S18.42,8.8,19.15,8.8z"/>
	<path d="M25.91,9.02c-0.8,0-1.42-0.27-1.86-0.8c-0.44-0.53-0.66-1.33-0.66-2.38c0-1.06,0.22-1.85,0.66-2.38
		c0.44-0.53,1.06-0.8,1.86-0.8c0.48,0,0.88,0.11,1.21,0.33c0.33,0.22,0.58,0.51,0.77,0.87l-0.22,0.11c-0.19-0.35-0.43-0.62-0.7-0.8
		c-0.28-0.18-0.63-0.28-1.06-0.28c-0.73,0-1.28,0.24-1.67,0.71s-0.58,1.13-0.58,1.95v0.58c0,0.82,0.19,1.47,0.58,1.95
		s0.94,0.71,1.67,0.71c0.47,0,0.86-0.09,1.16-0.28c0.3-0.18,0.55-0.44,0.74-0.78L28,7.87c-0.2,0.34-0.47,0.62-0.8,0.83
		S26.43,9.02,25.91,9.02z"/>
	<path d="M33.58,8.88c-0.23,0-0.35-0.12-0.35-0.35V7.96h-0.04c-0.15,0.29-0.38,0.54-0.69,0.75c-0.31,0.21-0.74,0.32-1.3,0.32
		c-0.62,0-1.11-0.15-1.45-0.44s-0.51-0.71-0.51-1.27c0-0.25,0.04-0.48,0.11-0.7c0.08-0.22,0.2-0.4,0.38-0.55
		c0.18-0.15,0.41-0.27,0.7-0.36s0.65-0.13,1.09-0.13h1.7V4.69c0-0.62-0.15-1.08-0.44-1.37s-0.72-0.43-1.29-0.43
		c-0.46,0-0.83,0.09-1.13,0.27c-0.3,0.18-0.53,0.47-0.7,0.87l-0.22-0.1c0.17-0.39,0.41-0.7,0.73-0.93c0.32-0.23,0.76-0.34,1.33-0.34
		c0.66,0,1.16,0.17,1.49,0.51c0.33,0.34,0.49,0.83,0.49,1.48v4h1.02v0.23H33.58z M31.2,8.8c0.27,0,0.53-0.04,0.77-0.11
		c0.24-0.07,0.46-0.18,0.64-0.32c0.18-0.14,0.33-0.32,0.44-0.53s0.17-0.46,0.17-0.74V5.8h-1.69c-0.71,0-1.23,0.12-1.54,0.37
		c-0.32,0.25-0.47,0.57-0.47,0.97V7.5c0,0.42,0.16,0.75,0.47,0.97C30.3,8.69,30.7,8.8,31.2,8.8z"/>
	<path d="M36.65,8.88c-0.23,0-0.35-0.12-0.35-0.35v-5.5h-1.14V2.81h0.86c0.11,0,0.19-0.02,0.22-0.07c0.04-0.04,0.05-0.12,0.05-0.23
		V1.08h0.25v1.73H38v0.23h-1.45v5.62h1.36v0.23H36.65z"/>
</g>
</svg>
