<!-- Generator: Adobe Illustrator 23.1.1, SVG Export Plug-In  -->
<svg version="1.1" xmlns="http://www.w3.org/2000/svg" xmlns:xlink="http://www.w3.org/1999/xlink" x="0px" y="0px" width="58px"
	 height="14.65px" viewBox="0 0 58 14.65" style="enable-background:new 0 0 58 14.65;" xml:space="preserve">
<style type="text/css">
	.st0{opacity:0.49;}
	.st1{fill:none;stroke:#000000;stroke-width:0.75;}
</style>
<defs>
</defs>
<g class="st0">
	<path class="st1" d="M0.88,11.96C1.66,12.44,2.8,12.84,4,12.84c1.78,0,2.82-0.94,2.82-2.3c0-1.26-0.72-1.98-2.54-2.68
		c-2.2-0.78-3.56-1.92-3.56-3.82c0-2.1,1.74-3.66,4.36-3.66c1.38,0,2.38,0.32,2.98,0.66L7.58,2.46C7.14,2.22,6.24,1.82,5.02,1.82
		c-1.84,0-2.54,1.1-2.54,2.02c0,1.26,0.82,1.88,2.68,2.6C7.44,7.32,8.6,8.42,8.6,10.4c0,2.08-1.54,3.88-4.72,3.88
		c-1.3,0-2.72-0.38-3.44-0.86L0.88,11.96z"/>
	<path class="st1" d="M12.72,0.6v13.48h-1.74V0.6H12.72z"/>
	<path class="st1" d="M22.74,7.76H17.5v4.86h5.84v1.46h-7.58V0.6h7.28v1.46H17.5v4.26h5.24V7.76z"/>
	<path class="st1" d="M25.6,0.78c0.88-0.18,2.14-0.28,3.34-0.28c1.86,0,3.06,0.34,3.9,1.1c0.68,0.6,1.06,1.52,1.06,2.56
		c0,1.78-1.12,2.96-2.54,3.44v0.06c1.04,0.36,1.66,1.32,1.98,2.72c0.44,1.88,0.76,3.18,1.04,3.7h-1.8c-0.22-0.38-0.52-1.54-0.9-3.22
		c-0.4-1.86-1.12-2.56-2.7-2.62h-1.64v5.84H25.6V0.78z M27.34,6.92h1.78c1.86,0,3.04-1.02,3.04-2.56c0-1.74-1.26-2.5-3.1-2.52
		c-0.84,0-1.44,0.08-1.72,0.16V6.92z"/>
	<path class="st1" d="M36.36,0.78C37.24,0.6,38.5,0.5,39.7,0.5c1.86,0,3.06,0.34,3.9,1.1c0.68,0.6,1.06,1.52,1.06,2.56
		c0,1.78-1.12,2.96-2.54,3.44v0.06c1.04,0.36,1.66,1.32,1.98,2.72c0.44,1.88,0.76,3.18,1.04,3.7h-1.8c-0.22-0.38-0.52-1.54-0.9-3.22
		c-0.4-1.86-1.12-2.56-2.7-2.62H38.1v5.84h-1.74V0.78z M38.1,6.92h1.78c1.86,0,3.04-1.02,3.04-2.56c0-1.74-1.26-2.5-3.1-2.52
		c-0.84,0-1.44,0.08-1.72,0.16V6.92z"/>
	<path class="st1" d="M49.4,9.84L48,14.08h-1.8L50.78,0.6h2.1l4.6,13.48h-1.86l-1.44-4.24H49.4z M53.82,8.48L52.5,4.6
		c-0.3-0.88-0.5-1.68-0.7-2.46h-0.04c-0.2,0.8-0.42,1.62-0.68,2.44l-1.32,3.9H53.82z"/>
</g>
</svg>
