<!-- Generator: Adobe Illustrator 23.1.1, SVG Export Plug-In  -->
<svg version="1.1" xmlns="http://www.w3.org/2000/svg" xmlns:xlink="http://www.w3.org/1999/xlink" x="0px" y="0px" width="14.48px"
	 height="8.66px" viewBox="0 0 14.48 8.66" style="enable-background:new 0 0 14.48 8.66;" xml:space="preserve">
<style type="text/css">
	.st0{fill:#FFFFFF;}
</style>
<defs>
</defs>
<g>
	<path class="st0" d="M3.23,8.66c-1.1,0-1.91-0.38-2.44-1.14S0,5.7,0,4.33C0,2.96,0.26,1.9,0.79,1.14S2.13,0,3.23,0
		c1.1,0,1.91,0.38,2.44,1.14C6.19,1.9,6.46,2.96,6.46,4.33c0,1.37-0.26,2.43-0.79,3.19C5.14,8.28,4.32,8.66,3.23,8.66z M3.23,7.14
		c0.48,0,0.81-0.18,1-0.53C4.41,6.26,4.5,5.76,4.5,5.12V3.54c0-0.64-0.09-1.14-0.28-1.49c-0.18-0.35-0.52-0.53-1-0.53
		s-0.81,0.18-1,0.53C2.05,2.4,1.96,2.9,1.96,3.54v1.58c0,0.64,0.09,1.14,0.28,1.49C2.42,6.96,2.75,7.14,3.23,7.14z"/>
	<path class="st0" d="M11.16,3.46c0.45,0,0.77-0.08,0.98-0.26c0.2-0.17,0.31-0.39,0.31-0.64V2.47c0-0.3-0.1-0.55-0.29-0.73
		c-0.2-0.18-0.47-0.28-0.83-0.28c-0.34,0-0.65,0.09-0.95,0.26S9.82,2.14,9.61,2.46L8.48,1.4C8.64,1.2,8.82,1.01,9,0.83
		c0.18-0.17,0.39-0.32,0.62-0.44s0.49-0.22,0.78-0.29C10.69,0.03,11.02,0,11.38,0c0.45,0,0.85,0.05,1.22,0.16
		c0.36,0.1,0.68,0.25,0.94,0.45c0.26,0.2,0.46,0.43,0.6,0.7c0.14,0.27,0.21,0.58,0.21,0.91c0,0.26-0.04,0.5-0.13,0.72
		c-0.08,0.22-0.2,0.4-0.35,0.56c-0.15,0.16-0.32,0.29-0.51,0.39c-0.19,0.1-0.4,0.17-0.61,0.21v0.07c0.25,0.05,0.48,0.13,0.69,0.23
		c0.21,0.11,0.4,0.25,0.55,0.41c0.16,0.17,0.28,0.37,0.37,0.59c0.09,0.23,0.13,0.49,0.13,0.77c0,0.38-0.08,0.72-0.23,1.02
		c-0.15,0.3-0.37,0.56-0.65,0.78c-0.28,0.22-0.62,0.38-1.01,0.5c-0.39,0.12-0.82,0.17-1.3,0.17c-0.42,0-0.8-0.04-1.13-0.13
		C9.85,8.44,9.56,8.33,9.32,8.18C9.07,8.03,8.86,7.86,8.68,7.67C8.5,7.48,8.34,7.27,8.21,7.06l1.33-1.03
		c0.18,0.34,0.41,0.63,0.68,0.85c0.27,0.22,0.63,0.33,1.09,0.33c0.41,0,0.73-0.1,0.95-0.31s0.34-0.48,0.34-0.83V5.99
		c0-0.34-0.13-0.6-0.39-0.77c-0.26-0.17-0.62-0.26-1.07-0.26h-0.76v-1.5H11.16z"/>
</g>
</svg>
