<!-- Generator: Adobe Illustrator 23.1.1, SVG Export Plug-In  -->
<svg version="1.1" xmlns="http://www.w3.org/2000/svg" xmlns:xlink="http://www.w3.org/1999/xlink" x="0px" y="0px" width="87.91px"
	 height="15.19px" viewBox="0 0 87.91 15.19" style="enable-background:new 0 0 87.91 15.19;" xml:space="preserve">
<style type="text/css">
	.st0{opacity:0.7;}
	.st1{fill:none;stroke:#000000;stroke-width:0.75;}
</style>
<defs>
</defs>
<g class="st0">
	<path class="st1" d="M3.71,14.58L0.47,0.62h2.64l1.38,6.7l0.86,4.28h0.06l1-4.28l1.6-6.7h2.92l1.6,6.7l0.98,4.28h0.06l0.88-4.28
		l1.42-6.7h2.52l-3.34,13.96h-2.98L10.29,7.2L9.43,3.52H9.39L8.49,7.2l-1.78,7.38H3.71z"/>
	<path class="st1" d="M19.99,14.58v-2.12h1.84V2.74h-1.84V0.62h6.34v2.12h-1.86v9.72h1.86v2.12H19.99z"/>
	<path class="st1" d="M29.03,14.58V0.62h2.64v11.62h5.5v2.34H29.03z"/>
	<path class="st1" d="M39.45,0.62h5.08c0.91,0,1.73,0.15,2.47,0.44c0.74,0.29,1.37,0.73,1.9,1.31s0.93,1.31,1.22,2.18
		c0.29,0.87,0.43,1.89,0.43,3.05s-0.14,2.18-0.43,3.05c-0.29,0.87-0.69,1.6-1.22,2.18s-1.16,1.02-1.9,1.31
		c-0.74,0.29-1.56,0.44-2.47,0.44h-5.08V0.62z M44.53,12.24c0.99,0,1.77-0.29,2.35-0.87c0.58-0.58,0.87-1.47,0.87-2.67V6.5
		c0-1.2-0.29-2.09-0.87-2.67c-0.58-0.58-1.36-0.87-2.35-0.87h-2.44v9.28H44.53z"/>
	<path class="st1" d="M58.65,14.82c-0.92,0-1.75-0.15-2.49-0.45c-0.74-0.3-1.37-0.75-1.9-1.35s-0.93-1.34-1.21-2.23
		c-0.28-0.89-0.42-1.92-0.42-3.09s0.14-2.22,0.42-3.13c0.28-0.91,0.68-1.68,1.21-2.3s1.16-1.09,1.9-1.41
		c0.74-0.32,1.57-0.48,2.49-0.48c1.25,0,2.29,0.27,3.12,0.8c0.83,0.53,1.49,1.34,1.98,2.42l-2.26,1.2c-0.2-0.63-0.53-1.13-0.98-1.51
		s-1.07-0.57-1.86-0.57c-0.99,0-1.77,0.33-2.35,1s-0.87,1.6-0.87,2.8v2.2c0,1.21,0.29,2.14,0.87,2.79c0.58,0.65,1.36,0.97,2.35,0.97
		c0.79,0,1.43-0.21,1.93-0.64c0.5-0.43,0.86-0.95,1.09-1.58l2.14,1.26c-0.51,1.04-1.18,1.85-2.02,2.43
		C60.95,14.53,59.9,14.82,58.65,14.82z"/>
	<path class="st1" d="M74.59,14.58l-1.12-3.56h-4.96l-1.1,3.56h-2.68l4.68-13.96h3.28l4.64,13.96H74.59z M71.03,3.02h-0.1
		l-1.78,5.74h3.68L71.03,3.02z"/>
	<path class="st1" d="M83.57,2.96v11.62h-2.64V2.96h-3.96V0.62h10.56v2.34H83.57z"/>
</g>
</svg>
