<!-- Generator: Adobe Illustrator 23.1.1, SVG Export Plug-In  -->
<svg version="1.1" xmlns="http://www.w3.org/2000/svg" xmlns:xlink="http://www.w3.org/1999/xlink" x="0px" y="0px" width="1080px"
	 height="512px" viewBox="0 0 1080 512" style="enable-background:new 0 0 1080 512;" xml:space="preserve">
<defs>
</defs>
<g>
	<g>
		<path d="M266,1v59H1V1H266 M267,0H0v61h267V0L267,0z"/>
	</g>
	<g>
		<path d="M90.6,36.24V22.28h3.04v11.26h5.32v2.7H90.6z"/>
		<path d="M103.18,36.24V22.28h9.5v2.7h-6.46v2.84h5.54v2.7h-5.54v3.02h6.46v2.7H103.18z"/>
		<path d="M121.56,29.64l-1.34-2.8h-0.06v9.4h-2.86V22.28h3.32l3.82,6.6l1.34,2.8h0.06v-9.4h2.86v13.96h-3.32L121.56,29.64z"/>
		<path d="M142.62,34.02h-0.1c-0.11,0.71-0.47,1.29-1.08,1.76s-1.45,0.7-2.5,0.7c-0.8,0-1.55-0.15-2.24-0.46
			c-0.7-0.31-1.3-0.76-1.82-1.36c-0.52-0.6-0.93-1.35-1.22-2.24s-0.44-1.93-0.44-3.1s0.15-2.21,0.46-3.12
			c0.31-0.91,0.74-1.67,1.29-2.28c0.55-0.61,1.22-1.08,1.99-1.4c0.77-0.32,1.63-0.48,2.58-0.48c1.25,0,2.33,0.27,3.24,0.81
			c0.91,0.54,1.62,1.35,2.14,2.43l-2.48,1.42c-0.21-0.55-0.55-1.01-1-1.39c-0.45-0.38-1.09-0.57-1.9-0.57
			c-0.95,0-1.7,0.27-2.26,0.82c-0.56,0.55-0.84,1.41-0.84,2.58v2.24c0,1.16,0.28,2.02,0.84,2.57c0.56,0.55,1.31,0.83,2.26,0.83
			c0.37,0,0.73-0.04,1.06-0.13c0.33-0.09,0.63-0.22,0.88-0.4c0.25-0.18,0.45-0.4,0.59-0.65s0.21-0.55,0.21-0.9V31h-2.6v-2.54h5.5
			v7.78h-2.56V34.02z"/>
		<path d="M155.18,24.98v11.26h-3.04V24.98h-3.78v-2.7h10.6v2.7H155.18z"/>
		<path d="M171.38,30.52h-5.32v5.72h-3.04V22.28h3.04v5.54h5.32v-5.54h3.04v13.96h-3.04V30.52z"/>
	</g>
</g>
<g>
	<g>
		<path d="M391.21,24.98v11.26h-3.04V24.98h-3.78v-2.7h10.6v2.7H391.21z"/>
		<path d="M398.43,36.24v-2.42h1.8V24.7h-1.8v-2.42h6.64v2.42h-1.8v9.12h1.8v2.42H398.43z"/>
		<path d="M409.59,36.24V22.28h6.6c0.65,0,1.24,0.11,1.76,0.33c0.52,0.22,0.96,0.52,1.33,0.91c0.37,0.39,0.65,0.86,0.85,1.41
			c0.2,0.55,0.3,1.16,0.3,1.81c0,0.67-0.1,1.27-0.3,1.82c-0.2,0.55-0.48,1.01-0.85,1.4c-0.37,0.39-0.81,0.69-1.33,0.91
			c-0.52,0.22-1.11,0.33-1.76,0.33h-3.56v5.04H409.59z M412.63,28.56h3.2c0.45,0,0.81-0.12,1.07-0.35c0.26-0.23,0.39-0.58,0.39-1.03
			V26.3c0-0.45-0.13-0.8-0.39-1.03s-0.62-0.35-1.07-0.35h-3.2V28.56z"/>
	</g>
	<g>
		<path d="M536,1v59H271V1H536 M537,0H270v61h267V0L537,0z"/>
	</g>
</g>
<g>
	<g>
		<path d="M639.82,36.24l-3.16-13.96h3l1.32,6.7l0.74,3.88h0.06l0.88-3.88l1.54-6.7h3.32l1.56,6.7l0.86,3.88H650l0.74-3.88l1.34-6.7
			h2.88l-3.24,13.96h-3.46l-1.76-7.56l-0.68-3.06h-0.06l-0.7,3.06l-1.76,7.56H639.82z"/>
		<path d="M667.1,36.24l-1-3.32h-4.66l-1,3.32h-3.08l4.6-13.96h3.76l4.54,13.96H667.1z M663.8,25.04h-0.1l-1.54,5.3h3.2L663.8,25.04
			z"/>
		<path d="M673.64,36.24v-2.42h1.8V24.7h-1.8v-2.42h6.64v2.42h-1.8v9.12h1.8v2.42H673.64z"/>
		<path d="M689.32,36.48c-1.23,0-2.27-0.21-3.12-0.63c-0.85-0.42-1.58-0.96-2.18-1.63l2-2.02c0.95,1.06,2.11,1.59,3.5,1.59
			c0.75,0,1.3-0.15,1.66-0.46c0.36-0.3,0.54-0.71,0.54-1.21c0-0.38-0.11-0.7-0.32-0.96s-0.65-0.43-1.3-0.53l-1.38-0.18
			c-1.48-0.19-2.56-0.63-3.25-1.34c-0.69-0.71-1.03-1.65-1.03-2.82c0-0.63,0.12-1.2,0.36-1.72s0.58-0.97,1.03-1.34
			s0.99-0.66,1.64-0.87s1.38-0.31,2.21-0.31c1.05,0,1.98,0.17,2.78,0.5c0.8,0.33,1.49,0.82,2.06,1.46l-2.02,2.04
			c-0.33-0.38-0.74-0.7-1.21-0.94c-0.47-0.24-1.07-0.37-1.79-0.37c-0.68,0-1.19,0.12-1.52,0.36c-0.33,0.24-0.5,0.57-0.5,0.99
			c0,0.48,0.13,0.82,0.39,1.03c0.26,0.21,0.68,0.36,1.27,0.46l1.38,0.22c1.44,0.23,2.51,0.67,3.2,1.33c0.69,0.66,1.04,1.6,1.04,2.81
			c0,0.67-0.12,1.28-0.36,1.84s-0.59,1.04-1.05,1.44c-0.46,0.4-1.03,0.71-1.71,0.93C690.96,36.37,690.19,36.48,689.32,36.48z"/>
		<path d="M704.62,24.98v11.26h-3.04V24.98h-3.78v-2.7h10.6v2.7H704.62z"/>
	</g>
	<g>
		<path d="M806,1v59H541V1H806 M807,0H540v61h267V0L807,0z"/>
	</g>
</g>
<g>
	<g>
		<path d="M925.24,24.98v11.26h-3.04V24.98h-3.78v-2.7h10.6v2.7H925.24z"/>
		<path d="M940.38,36.24l-1-3.32h-4.66l-1,3.32h-3.08l4.6-13.96H939l4.54,13.96H940.38z M937.08,25.04h-0.1l-1.54,5.3h3.2
			L937.08,25.04z"/>
		<path d="M946.92,36.24v-2.42h1.8V24.7h-1.8v-2.42h6.64v2.42h-1.8v9.12h1.8v2.42H946.92z"/>
		<path d="M958.08,36.24V22.28h3.04v11.26h5.32v2.7H958.08z"/>
	</g>
	<g>
		<g>
			<path d="M1076,1v59H811V1H1076 M1077,0H810v61h267V0L1077,0z"/>
		</g>
	</g>
</g>
<g>
	<g>
		<path d="M96.08,296.24h-3.04v-13.96h6.62c0.64,0,1.22,0.11,1.74,0.32c0.52,0.21,0.96,0.52,1.33,0.91
			c0.37,0.39,0.65,0.86,0.85,1.41c0.2,0.55,0.3,1.15,0.3,1.82c0,0.95-0.21,1.77-0.63,2.48c-0.42,0.71-1.06,1.22-1.91,1.54l2.74,5.48
			h-3.38l-2.44-5.12h-2.18V296.24z M99.28,288.56c0.45,0,0.81-0.12,1.07-0.35c0.26-0.23,0.39-0.58,0.39-1.03v-0.88
			c0-0.45-0.13-0.8-0.39-1.03c-0.26-0.23-0.62-0.35-1.07-0.35h-3.2v3.64H99.28z"/>
		<path d="M117.1,296.24l-1-3.32h-4.66l-1,3.32h-3.08l4.6-13.96h3.76l4.54,13.96H117.1z M113.8,285.04h-0.1l-1.54,5.3h3.2
			L113.8,285.04z"/>
		<path d="M124.18,282.28h5.26c0.92,0,1.76,0.15,2.52,0.44c0.76,0.29,1.41,0.73,1.94,1.31s0.95,1.31,1.24,2.18
			c0.29,0.87,0.44,1.89,0.44,3.05c0,1.16-0.15,2.18-0.44,3.05s-0.71,1.6-1.24,2.18s-1.18,1.02-1.94,1.31
			c-0.76,0.29-1.6,0.44-2.52,0.44h-5.26V282.28z M129.44,293.54c0.91,0,1.62-0.25,2.14-0.76s0.78-1.32,0.78-2.44v-2.16
			c0-1.12-0.26-1.93-0.78-2.44s-1.23-0.76-2.14-0.76h-2.22v8.56H129.44z"/>
		<path d="M142.98,282.28v8.56c0,0.99,0.19,1.72,0.58,2.21c0.39,0.49,1.03,0.73,1.94,0.73s1.55-0.24,1.94-0.73
			c0.39-0.49,0.58-1.22,0.58-2.21v-8.56h2.96v8.24c0,1.03-0.1,1.92-0.29,2.67s-0.51,1.37-0.95,1.86c-0.44,0.49-1.01,0.85-1.7,1.08
			c-0.7,0.23-1.54,0.35-2.54,0.35s-1.85-0.12-2.54-0.35c-0.69-0.23-1.26-0.59-1.7-1.08c-0.44-0.49-0.76-1.11-0.95-1.86
			s-0.29-1.64-0.29-2.67v-8.24H142.98z"/>
		<path d="M155.42,296.24v-2.42h1.8v-9.12h-1.8v-2.42h6.64v2.42h-1.8v9.12h1.8v2.42H155.42z"/>
		<path d="M171.1,296.48c-1.23,0-2.27-0.21-3.12-0.63c-0.85-0.42-1.58-0.96-2.18-1.63l2-2.02c0.95,1.06,2.11,1.59,3.5,1.59
			c0.75,0,1.3-0.15,1.66-0.46c0.36-0.3,0.54-0.71,0.54-1.21c0-0.38-0.11-0.7-0.32-0.96s-0.65-0.43-1.3-0.53l-1.38-0.18
			c-1.48-0.19-2.56-0.63-3.25-1.34c-0.69-0.71-1.03-1.65-1.03-2.82c0-0.63,0.12-1.2,0.36-1.72s0.58-0.97,1.03-1.34
			s0.99-0.66,1.64-0.87s1.38-0.31,2.21-0.31c1.05,0,1.98,0.17,2.78,0.5c0.8,0.33,1.49,0.82,2.06,1.46l-2.02,2.04
			c-0.33-0.38-0.74-0.7-1.21-0.94c-0.47-0.24-1.07-0.37-1.79-0.37c-0.68,0-1.19,0.12-1.52,0.36c-0.33,0.24-0.5,0.57-0.5,0.99
			c0,0.48,0.13,0.82,0.39,1.03c0.26,0.21,0.68,0.36,1.27,0.46l1.38,0.22c1.44,0.23,2.51,0.67,3.2,1.33c0.69,0.66,1.04,1.6,1.04,2.81
			c0,0.67-0.12,1.28-0.36,1.84s-0.59,1.04-1.05,1.44c-0.46,0.4-1.03,0.71-1.71,0.93C172.74,296.37,171.97,296.48,171.1,296.48z"/>
	</g>
	<g>
		<path d="M268,261v59H3v-59H268 M269,260H2v61h267V260L269,260z"/>
	</g>
</g>
<g>
	<g>
		<path d="M311.48,296.24v-13.96h9.5v2.7h-6.46v2.84h5.54v2.7h-5.54v3.02h6.46v2.7H311.48z"/>
		<path d="M325.6,296.24v-13.96h9.26v2.7h-6.22v2.84h5.3v2.7h-5.3v5.72H325.6z"/>
		<path d="M339.28,296.24v-13.96h9.26v2.7h-6.22v2.84h5.3v2.7h-5.3v5.72H339.28z"/>
		<path d="M352.96,296.24v-13.96h9.5v2.7H356v2.84h5.54v2.7H356v3.02h6.46v2.7H352.96z"/>
		<path d="M372.72,296.48c-0.95,0-1.8-0.15-2.56-0.45c-0.76-0.3-1.41-0.75-1.94-1.34s-0.95-1.33-1.24-2.22s-0.44-1.92-0.44-3.11
			c0-1.17,0.15-2.22,0.44-3.13c0.29-0.91,0.71-1.68,1.24-2.3s1.18-1.09,1.94-1.41s1.61-0.48,2.56-0.48c1.29,0,2.36,0.26,3.2,0.79
			s1.51,1.36,2.02,2.49l-2.62,1.36c-0.19-0.59-0.48-1.06-0.87-1.41c-0.39-0.35-0.97-0.53-1.73-0.53c-0.89,0-1.61,0.29-2.15,0.87
			c-0.54,0.58-0.81,1.42-0.81,2.53v2.24c0,1.11,0.27,1.95,0.81,2.53c0.54,0.58,1.26,0.87,2.15,0.87c0.75,0,1.34-0.2,1.79-0.61
			c0.45-0.41,0.78-0.9,0.99-1.47l2.48,1.44c-0.52,1.07-1.2,1.89-2.05,2.47C375.08,296.19,374.01,296.48,372.72,296.48z"/>
		<path d="M387.9,284.98v11.26h-3.04v-11.26h-3.78v-2.7h10.6v2.7H387.9z"/>
		<path d="M395.12,296.24v-2.42h1.8v-9.12h-1.8v-2.42h6.64v2.42h-1.8v9.12h1.8v2.42H395.12z"/>
		<path d="M409.52,296.24l-4.5-13.96h3.08l2.08,6.7l1.1,4.38h0.06l1.06-4.38l2.08-6.7h2.98l-4.54,13.96H409.52z"/>
		<path d="M421.26,296.24v-13.96h9.5v2.7h-6.46v2.84h5.54v2.7h-5.54v3.02h6.46v2.7H421.26z"/>
		<path d="M442.08,296.24v-13.96h9.5v2.7h-6.46v2.84h5.54v2.7h-5.54v3.02h6.46v2.7H442.08z"/>
		<path d="M456.2,282.28h5.26c0.92,0,1.76,0.15,2.52,0.44c0.76,0.29,1.41,0.73,1.94,1.31s0.95,1.31,1.24,2.18
			c0.29,0.88,0.44,1.89,0.44,3.05s-0.15,2.18-0.44,3.05s-0.71,1.6-1.24,2.18s-1.18,1.02-1.94,1.31c-0.76,0.29-1.6,0.44-2.52,0.44
			h-5.26V282.28z M461.46,293.54c0.91,0,1.62-0.25,2.14-0.76c0.52-0.51,0.78-1.32,0.78-2.44v-2.16c0-1.12-0.26-1.93-0.78-2.44
			c-0.52-0.51-1.23-0.76-2.14-0.76h-2.22v8.56H461.46z"/>
		<path d="M480.98,294.02h-0.1c-0.11,0.71-0.47,1.29-1.08,1.76s-1.45,0.7-2.5,0.7c-0.8,0-1.55-0.15-2.24-0.46
			c-0.7-0.31-1.3-0.76-1.82-1.36c-0.52-0.6-0.93-1.35-1.22-2.24s-0.44-1.93-0.44-3.1s0.15-2.21,0.46-3.12
			c0.31-0.91,0.74-1.67,1.29-2.28c0.55-0.61,1.22-1.08,1.99-1.4c0.77-0.32,1.63-0.48,2.58-0.48c1.25,0,2.33,0.27,3.24,0.81
			c0.91,0.54,1.62,1.35,2.14,2.43l-2.48,1.42c-0.21-0.55-0.55-1.01-1-1.39c-0.45-0.38-1.09-0.57-1.9-0.57
			c-0.95,0-1.7,0.27-2.26,0.82c-0.56,0.55-0.84,1.41-0.84,2.58v2.24c0,1.16,0.28,2.02,0.84,2.57c0.56,0.55,1.31,0.83,2.26,0.83
			c0.37,0,0.73-0.04,1.06-0.13c0.33-0.09,0.63-0.22,0.88-0.4c0.25-0.18,0.45-0.4,0.59-0.65s0.21-0.55,0.21-0.9V291h-2.6v-2.54h5.5
			v7.78h-2.56V294.02z"/>
		<path d="M488.48,296.24v-13.96h9.5v2.7h-6.46v2.84h5.54v2.7h-5.54v3.02h6.46v2.7H488.48z"/>
	</g>
	<g>
		<path d="M538,261v59H273v-59H538 M539,260H272v61h267V260L539,260z"/>
	</g>
</g>
<g>
	<g>
		<path d="M593.12,296.24l-3.16-13.96h3l1.32,6.7l0.74,3.88h0.06l0.88-3.88l1.54-6.7h3.32l1.56,6.7l0.86,3.88h0.06l0.74-3.88
			l1.34-6.7h2.88l-3.24,13.96h-3.46l-1.76-7.56l-0.68-3.06h-0.06l-0.7,3.06l-1.76,7.56H593.12z"/>
		<path d="M612.36,296.24v-13.96h9.5v2.7h-6.46v2.84h5.54v2.7h-5.54v3.02h6.46v2.7H612.36z"/>
		<path d="M625.94,296.24v-2.42h1.8v-9.12h-1.8v-2.42h6.64v2.42h-1.8v9.12h1.8v2.42H625.94z"/>
		<path d="M645.96,294.02h-0.1c-0.11,0.71-0.47,1.29-1.08,1.76s-1.45,0.7-2.5,0.7c-0.8,0-1.55-0.15-2.24-0.46
			c-0.7-0.31-1.3-0.76-1.82-1.36c-0.52-0.6-0.93-1.35-1.22-2.24c-0.29-0.89-0.44-1.93-0.44-3.1c0-1.17,0.15-2.21,0.46-3.12
			c0.31-0.91,0.74-1.67,1.29-2.28c0.55-0.61,1.22-1.08,1.99-1.4c0.77-0.32,1.63-0.48,2.58-0.48c1.25,0,2.33,0.27,3.24,0.81
			c0.91,0.54,1.62,1.35,2.14,2.43l-2.48,1.42c-0.21-0.55-0.55-1.01-1-1.39s-1.09-0.57-1.9-0.57c-0.95,0-1.7,0.27-2.26,0.82
			c-0.56,0.55-0.84,1.41-0.84,2.58v2.24c0,1.16,0.28,2.02,0.84,2.57c0.56,0.55,1.31,0.83,2.26,0.83c0.37,0,0.73-0.04,1.06-0.13
			c0.33-0.09,0.63-0.22,0.88-0.4c0.25-0.18,0.45-0.4,0.59-0.65c0.14-0.25,0.21-0.55,0.21-0.9V291h-2.6v-2.54h5.5v7.78h-2.56V294.02z
			"/>
		<path d="M661.82,290.52h-5.32v5.72h-3.04v-13.96h3.04v5.54h5.32v-5.54h3.04v13.96h-3.04V290.52z"/>
		<path d="M675.74,284.98v11.26h-3.04v-11.26h-3.78v-2.7h10.6v2.7H675.74z"/>
		<path d="M689.48,290c0-0.96,0.09-1.89,0.27-2.78c0.18-0.89,0.42-1.72,0.73-2.49s0.67-1.46,1.1-2.09c0.43-0.63,0.89-1.16,1.4-1.6
			h2.78c-1.08,1-1.93,2.2-2.55,3.61c-0.62,1.41-0.93,2.96-0.93,4.67v1.4c0,1.77,0.31,3.35,0.94,4.74c0.62,1.39,1.47,2.57,2.54,3.54
			h-2.8c-0.48-0.41-0.93-0.93-1.36-1.56c-0.43-0.63-0.8-1.33-1.11-2.11c-0.31-0.78-0.56-1.62-0.74-2.52
			C689.57,291.91,689.48,290.97,689.48,290z"/>
		<path d="M699.02,296.24v-13.96h6.6c0.65,0,1.24,0.11,1.76,0.33c0.52,0.22,0.96,0.52,1.33,0.91c0.37,0.39,0.65,0.86,0.85,1.41
			c0.2,0.55,0.3,1.16,0.3,1.81c0,0.67-0.1,1.27-0.3,1.82c-0.2,0.55-0.48,1.01-0.85,1.4c-0.37,0.39-0.81,0.69-1.33,0.91
			c-0.52,0.22-1.11,0.33-1.76,0.33h-3.56v5.04H699.02z M702.06,288.56h3.2c0.45,0,0.81-0.12,1.07-0.35
			c0.26-0.23,0.39-0.58,0.39-1.03v-0.88c0-0.45-0.13-0.8-0.39-1.03s-0.62-0.35-1.07-0.35h-3.2V288.56z"/>
		<path d="M721.26,296.24l-1-3.32h-4.66l-1,3.32h-3.08l4.6-13.96h3.76l4.54,13.96H721.26z M717.96,285.04h-0.1l-1.54,5.3h3.2
			L717.96,285.04z"/>
		<path d="M727.8,296.24v-2.42h1.8v-9.12h-1.8v-2.42h6.64v2.42h-1.8v9.12h1.8v2.42H727.8z"/>
		<path d="M742,296.24h-3.04v-13.96h6.62c0.64,0,1.22,0.11,1.74,0.32c0.52,0.21,0.96,0.52,1.33,0.91c0.37,0.39,0.65,0.86,0.85,1.41
			c0.2,0.55,0.3,1.15,0.3,1.82c0,0.95-0.21,1.77-0.63,2.48c-0.42,0.71-1.06,1.22-1.91,1.54l2.74,5.48h-3.38l-2.44-5.12H742V296.24z
			 M745.2,288.56c0.45,0,0.81-0.12,1.07-0.35c0.26-0.23,0.39-0.58,0.39-1.03v-0.88c0-0.45-0.13-0.8-0.39-1.03s-0.62-0.35-1.07-0.35
			H742v3.64H745.2z"/>
		<path d="M758.9,290c0,0.97-0.09,1.91-0.27,2.81c-0.18,0.9-0.43,1.74-0.74,2.52c-0.31,0.78-0.68,1.48-1.11,2.11
			c-0.43,0.63-0.88,1.15-1.36,1.56h-2.8c1.07-0.97,1.91-2.15,2.54-3.54c0.62-1.39,0.94-2.97,0.94-4.74v-1.4
			c0-1.71-0.31-3.26-0.93-4.67c-0.62-1.41-1.47-2.61-2.55-3.61h2.78c0.51,0.44,0.97,0.97,1.4,1.6c0.43,0.63,0.79,1.32,1.1,2.09
			s0.55,1.6,0.73,2.49C758.81,288.11,758.9,289.04,758.9,290z"/>
	</g>
	<g>
		<path d="M808,261v59H543v-59H808 M809,260H542v61h267V260L809,260z"/>
	</g>
</g>
<g>
	<g>
		<path d="M917.18,287.08h-0.06l-1.02,2.04l-2.72,4.94l-2.66-4.92l-1.06-2.2h-0.06v9.3h-2.86v-13.96h3.22l3.42,6.54h0.04l3.38-6.54
			h3.24v13.96h-2.86V287.08z"/>
		<path d="M930.7,296.48c-0.92,0-1.76-0.15-2.52-0.46s-1.41-0.76-1.94-1.37c-0.53-0.61-0.95-1.36-1.24-2.26
			c-0.29-0.9-0.44-1.94-0.44-3.13s0.15-2.23,0.44-3.13c0.29-0.9,0.71-1.65,1.24-2.26c0.53-0.61,1.18-1.06,1.94-1.37
			s1.6-0.46,2.52-0.46s1.76,0.15,2.52,0.46s1.41,0.76,1.94,1.37c0.53,0.61,0.95,1.36,1.24,2.26c0.29,0.9,0.44,1.94,0.44,3.13
			s-0.15,2.23-0.44,3.13c-0.29,0.9-0.71,1.65-1.24,2.26c-0.53,0.61-1.18,1.06-1.94,1.37S931.62,296.48,930.7,296.48z M930.7,293.78
			c0.92,0,1.64-0.3,2.15-0.9c0.51-0.6,0.77-1.46,0.77-2.58v-2.08c0-1.12-0.26-1.98-0.77-2.58c-0.51-0.6-1.23-0.9-2.15-0.9
			s-1.64,0.3-2.15,0.9c-0.51,0.6-0.77,1.46-0.77,2.58v2.08c0,1.12,0.26,1.98,0.77,2.58C929.06,293.48,929.78,293.78,930.7,293.78z"
			/>
		<path d="M944.24,282.28v8.56c0,0.99,0.19,1.72,0.58,2.21c0.39,0.49,1.03,0.73,1.94,0.73c0.91,0,1.55-0.24,1.94-0.73
			c0.39-0.49,0.58-1.22,0.58-2.21v-8.56h2.96v8.24c0,1.03-0.1,1.92-0.29,2.67c-0.19,0.75-0.51,1.37-0.95,1.86
			c-0.44,0.49-1.01,0.85-1.7,1.08c-0.69,0.23-1.54,0.35-2.54,0.35s-1.85-0.12-2.54-0.35c-0.69-0.23-1.26-0.59-1.7-1.08
			c-0.44-0.49-0.76-1.11-0.95-1.86c-0.19-0.75-0.29-1.64-0.29-2.67v-8.24H944.24z"/>
		<path d="M961.48,289.64l-1.34-2.8h-0.06v9.4h-2.86v-13.96h3.32l3.82,6.6l1.34,2.8h0.06v-9.4h2.86v13.96h-3.32L961.48,289.64z"/>
		<path d="M979.5,284.98v11.26h-3.04v-11.26h-3.78v-2.7h10.6v2.7H979.5z"/>
	</g>
	<g>
		<path d="M1078,261v59H813v-59H1078 M1079,260H812v61h267V260L1079,260z"/>
	</g>
</g>
<g>
	<g>
		<g>
			<path d="M266,70v59H1V70H266 M267,69H0v61h267V69L267,69z"/>
		</g>
		<g>
			<path d="M90.86,105.24v-1.06h4.08V92.16h-0.1L91,95.58l-0.68-0.76l3.98-3.54h1.84v12.9h3.84v1.06H90.86z"/>
			<path d="M112.86,92.34h-6.24l-0.44,5.84l0.12,0.02c0.35-0.49,0.75-0.86,1.22-1.11c0.47-0.25,1.07-0.37,1.82-0.37
				c0.61,0,1.17,0.1,1.68,0.29c0.51,0.19,0.94,0.47,1.3,0.84c0.36,0.37,0.64,0.81,0.83,1.34c0.19,0.53,0.29,1.12,0.29,1.79
				c0,0.68-0.1,1.3-0.31,1.85s-0.5,1.03-0.89,1.42s-0.86,0.7-1.41,0.91c-0.55,0.21-1.18,0.32-1.87,0.32c-0.55,0-1.04-0.06-1.48-0.17
				c-0.44-0.11-0.83-0.27-1.18-0.47s-0.66-0.44-0.93-0.72s-0.52-0.58-0.73-0.9l0.9-0.68c0.39,0.6,0.84,1.06,1.35,1.39
				c0.51,0.33,1.2,0.49,2.07,0.49c1.04,0,1.84-0.29,2.39-0.85c0.55-0.57,0.83-1.34,0.83-2.32v-0.34c0-0.97-0.27-1.75-0.81-2.32
				s-1.32-0.85-2.35-0.85c-0.36,0-0.68,0.03-0.96,0.09c-0.28,0.06-0.53,0.15-0.75,0.26c-0.22,0.11-0.42,0.25-0.6,0.4
				c-0.18,0.15-0.36,0.33-0.53,0.53l-1.04-0.16l0.5-7.58h7.22V92.34z"/>
			<path d="M127.58,105.24h-8.96v-1.22l4.88-4.68c0.65-0.64,1.19-1.3,1.6-1.97c0.41-0.68,0.62-1.37,0.62-2.08v-0.38
				c0-0.83-0.24-1.5-0.72-2.03c-0.48-0.52-1.2-0.78-2.16-0.78c-0.93,0-1.65,0.23-2.14,0.7c-0.49,0.47-0.85,1.07-1.08,1.82l-1.08-0.4
				c0.13-0.43,0.31-0.83,0.54-1.22s0.52-0.72,0.87-1.02c0.35-0.29,0.77-0.52,1.25-0.69c0.48-0.17,1.04-0.26,1.68-0.26
				c0.65,0,1.24,0.1,1.75,0.29c0.51,0.19,0.95,0.46,1.3,0.81c0.35,0.35,0.62,0.76,0.8,1.25s0.27,1.03,0.27,1.63
				c0,0.51-0.07,0.98-0.2,1.43c-0.13,0.45-0.32,0.87-0.56,1.28c-0.24,0.41-0.53,0.8-0.88,1.2c-0.35,0.39-0.73,0.78-1.14,1.17
				l-4.3,4.09h7.66V105.24z"/>
			<path d="M144.4,105.48c-1.73,0-3.07-0.6-4.02-1.81c-0.95-1.21-1.42-3-1.42-5.37c0-2.36,0.47-4.16,1.42-5.4
				c0.95-1.24,2.29-1.86,4.02-1.86c1.12,0,2.06,0.26,2.83,0.79c0.77,0.53,1.36,1.25,1.79,2.17l-0.98,0.58
				c-0.31-0.76-0.77-1.36-1.39-1.81s-1.37-0.67-2.25-0.67c-1.31,0-2.33,0.47-3.06,1.4c-0.73,0.94-1.1,2.28-1.1,4.01v1.59
				c0,1.72,0.37,3.04,1.1,3.95c0.73,0.91,1.75,1.37,3.06,1.37c0.93,0,1.71-0.24,2.34-0.71c0.63-0.47,1.09-1.11,1.4-1.91l0.98,0.58
				c-0.41,0.96-1.02,1.72-1.82,2.27C146.5,105.2,145.53,105.48,144.4,105.48z"/>
			<path d="M164.96,92.82h-0.08l-4.82,8.54l-4.82-8.54h-0.08v12.42H154V91.28h1.64l4.42,7.86h0.06l4.42-7.86h1.58v13.96h-1.16V92.82
				z"/>
		</g>
	</g>
	<g>
		<g>
			<path d="M266,131v59H1v-59H266 M267,130H0v61h267V130L267,130z"/>
		</g>
		<g>
			<path d="M90.86,166.24v-1.06h4.08v-12.02h-0.1L91,156.58l-0.68-0.76l3.98-3.54h1.84v12.9h3.84v1.06H90.86z"/>
			<path d="M109.06,166.48c-0.75,0-1.4-0.12-1.96-0.37c-0.56-0.25-1.03-0.59-1.41-1.04c-0.38-0.45-0.67-0.99-0.86-1.62
				c-0.19-0.63-0.29-1.33-0.29-2.09c0-1.08,0.15-2.08,0.45-3.01c0.3-0.93,0.69-1.77,1.17-2.53c0.48-0.76,1.03-1.44,1.65-2.03
				c0.62-0.59,1.25-1.1,1.89-1.51h1.58c-0.77,0.53-1.46,1.07-2.06,1.6c-0.6,0.54-1.13,1.1-1.58,1.69s-0.83,1.23-1.13,1.91
				c-0.3,0.68-0.54,1.43-0.71,2.24l0.08,0.02c0.35-0.63,0.8-1.12,1.37-1.49s1.27-0.55,2.11-0.55c0.61,0,1.18,0.1,1.69,0.3
				c0.51,0.2,0.95,0.48,1.32,0.85c0.37,0.37,0.65,0.81,0.85,1.34c0.2,0.53,0.3,1.12,0.3,1.77c0,0.68-0.11,1.3-0.32,1.85
				c-0.21,0.55-0.51,1.03-0.9,1.42c-0.39,0.39-0.85,0.7-1.4,0.92C110.35,166.37,109.74,166.48,109.06,166.48z M109.04,165.42
				c1.01,0,1.81-0.29,2.38-0.87s0.86-1.35,0.86-2.32v-0.34c0-0.97-0.28-1.74-0.85-2.31c-0.57-0.57-1.36-0.86-2.39-0.86
				c-1.04,0-1.84,0.29-2.41,0.86c-0.57,0.57-0.85,1.34-0.85,2.31v0.32c0,0.98,0.29,1.77,0.86,2.34S108.01,165.42,109.04,165.42z"/>
			<path d="M127.58,166.24h-8.96v-1.22l4.88-4.68c0.65-0.64,1.19-1.3,1.6-1.97c0.41-0.68,0.62-1.37,0.62-2.08v-0.38
				c0-0.83-0.24-1.5-0.72-2.03c-0.48-0.52-1.2-0.78-2.16-0.78c-0.93,0-1.65,0.23-2.14,0.7c-0.49,0.47-0.85,1.07-1.08,1.82l-1.08-0.4
				c0.13-0.43,0.31-0.83,0.54-1.22s0.52-0.72,0.87-1.02c0.35-0.29,0.77-0.52,1.25-0.69c0.48-0.17,1.04-0.26,1.68-0.26
				c0.65,0,1.24,0.1,1.75,0.29c0.51,0.19,0.95,0.46,1.3,0.81c0.35,0.35,0.62,0.76,0.8,1.25s0.27,1.03,0.27,1.63
				c0,0.51-0.07,0.98-0.2,1.43c-0.13,0.45-0.32,0.87-0.56,1.28c-0.24,0.41-0.53,0.8-0.88,1.2c-0.35,0.39-0.73,0.78-1.14,1.17
				l-4.3,4.09h7.66V166.24z"/>
			<path d="M144.4,166.48c-1.73,0-3.07-0.6-4.02-1.81c-0.95-1.21-1.42-3-1.42-5.37c0-2.36,0.47-4.16,1.42-5.4
				c0.95-1.24,2.29-1.86,4.02-1.86c1.12,0,2.06,0.26,2.83,0.79c0.77,0.53,1.36,1.25,1.79,2.17l-0.98,0.58
				c-0.31-0.76-0.77-1.36-1.39-1.81s-1.37-0.67-2.25-0.67c-1.31,0-2.33,0.47-3.06,1.4c-0.73,0.94-1.1,2.28-1.1,4.01v1.59
				c0,1.72,0.37,3.04,1.1,3.95c0.73,0.91,1.75,1.37,3.06,1.37c0.93,0,1.71-0.24,2.34-0.71c0.63-0.47,1.09-1.11,1.4-1.91l0.98,0.58
				c-0.41,0.96-1.02,1.72-1.82,2.27C146.5,166.2,145.53,166.48,144.4,166.48z"/>
			<path d="M164.96,153.82h-0.08l-4.82,8.54l-4.82-8.54h-0.08v12.42H154v-13.96h1.64l4.42,7.86h0.06l4.42-7.86h1.58v13.96h-1.16
				V153.82z"/>
		</g>
		<g>
			<g>
				<path d="M266,192v59H1v-59H266 M267,191H0v61h267V191L267,191z"/>
			</g>
			<g>
				<path d="M90.86,227.24v-1.06h4.08v-12.02h-0.1L91,217.58l-0.68-0.76l3.98-3.54h1.84v12.9h3.84v1.06H90.86z"/>
				<path d="M106.64,227.24l5.6-12.9h-6.68v2.88h-1.08v-3.94h8.98v1.08l-5.54,12.88H106.64z"/>
				<path d="M127.58,227.24h-8.96v-1.22l4.88-4.68c0.65-0.64,1.19-1.3,1.6-1.97c0.41-0.68,0.62-1.37,0.62-2.08v-0.38
					c0-0.83-0.24-1.5-0.72-2.03c-0.48-0.52-1.2-0.78-2.16-0.78c-0.93,0-1.65,0.23-2.14,0.7c-0.49,0.47-0.85,1.07-1.08,1.82
					l-1.08-0.4c0.13-0.43,0.31-0.83,0.54-1.22s0.52-0.72,0.87-1.02c0.35-0.29,0.77-0.52,1.25-0.69c0.48-0.17,1.04-0.26,1.68-0.26
					c0.65,0,1.24,0.1,1.75,0.29c0.51,0.19,0.95,0.46,1.3,0.81c0.35,0.35,0.62,0.76,0.8,1.25s0.27,1.03,0.27,1.63
					c0,0.51-0.07,0.98-0.2,1.43c-0.13,0.45-0.32,0.87-0.56,1.28c-0.24,0.41-0.53,0.8-0.88,1.2c-0.35,0.39-0.73,0.78-1.14,1.17
					l-4.3,4.09h7.66V227.24z"/>
				<path d="M144.4,227.48c-1.73,0-3.07-0.6-4.02-1.81c-0.95-1.21-1.42-3-1.42-5.37c0-2.36,0.47-4.16,1.42-5.4
					c0.95-1.24,2.29-1.86,4.02-1.86c1.12,0,2.06,0.26,2.83,0.79c0.77,0.53,1.36,1.25,1.79,2.17l-0.98,0.58
					c-0.31-0.76-0.77-1.36-1.39-1.81s-1.37-0.67-2.25-0.67c-1.31,0-2.33,0.47-3.06,1.4c-0.73,0.94-1.1,2.28-1.1,4.01v1.59
					c0,1.72,0.37,3.04,1.1,3.95c0.73,0.91,1.75,1.37,3.06,1.37c0.93,0,1.71-0.24,2.34-0.71c0.63-0.47,1.09-1.11,1.4-1.91l0.98,0.58
					c-0.41,0.96-1.02,1.72-1.82,2.27C146.5,227.2,145.53,227.48,144.4,227.48z"/>
				<path d="M164.96,214.82h-0.08l-4.82,8.54l-4.82-8.54h-0.08v12.42H154v-13.96h1.64l4.42,7.86h0.06l4.42-7.86h1.58v13.96h-1.16
					V214.82z"/>
			</g>
		</g>
	</g>
</g>
<g>
	<g>
		<g>
			<path d="M537,70v59H272V70H537 M538,69H271v61h267V69L538,69z"/>
		</g>
		<g>
			<path d="M361.86,105.24v-1.06h4.08V92.16h-0.1L362,95.58l-0.68-0.76l3.98-3.54h1.84v12.9h3.84v1.06H361.86z"/>
			<path d="M375.84,105.24v-1.06h4.08V92.16h-0.1l-3.84,3.42l-0.68-0.76l3.98-3.54h1.84v12.9h3.84v1.06H375.84z"/>
			<path d="M394.04,105.48c-0.75,0-1.4-0.12-1.96-0.37s-1.03-0.59-1.41-1.04s-0.67-0.99-0.86-1.62c-0.19-0.63-0.29-1.33-0.29-2.09
				c0-1.08,0.15-2.08,0.45-3.01c0.3-0.93,0.69-1.77,1.17-2.53c0.48-0.76,1.03-1.44,1.65-2.03c0.62-0.59,1.25-1.1,1.89-1.51h1.58
				c-0.77,0.53-1.46,1.07-2.06,1.6c-0.6,0.54-1.13,1.1-1.58,1.69s-0.83,1.23-1.13,1.91c-0.3,0.68-0.54,1.43-0.71,2.24l0.08,0.02
				c0.35-0.63,0.8-1.12,1.37-1.49s1.27-0.55,2.11-0.55c0.61,0,1.18,0.1,1.69,0.3c0.51,0.2,0.95,0.48,1.32,0.85s0.65,0.81,0.85,1.34
				c0.2,0.53,0.3,1.12,0.3,1.77c0,0.68-0.11,1.3-0.32,1.85c-0.21,0.55-0.51,1.03-0.9,1.42c-0.39,0.39-0.85,0.7-1.4,0.92
				C395.33,105.37,394.72,105.48,394.04,105.48z M394.02,104.42c1.01,0,1.81-0.29,2.38-0.87c0.57-0.58,0.86-1.35,0.86-2.32v-0.34
				c0-0.97-0.28-1.74-0.85-2.31c-0.57-0.57-1.36-0.86-2.39-0.86c-1.04,0-1.84,0.29-2.41,0.86c-0.57,0.57-0.85,1.34-0.85,2.31v0.32
				c0,0.98,0.29,1.77,0.86,2.34C392.19,104.13,392.99,104.42,394.02,104.42z"/>
			<path d="M410.56,105.24V95h1.14v1.62h0.06c0.11-0.25,0.24-0.49,0.4-0.71c0.16-0.22,0.35-0.42,0.58-0.59s0.5-0.31,0.81-0.41
				c0.31-0.1,0.68-0.15,1.11-0.15c0.73,0,1.38,0.17,1.94,0.52c0.56,0.35,0.97,0.89,1.22,1.64h0.06c0.19-0.6,0.54-1.11,1.07-1.53
				s1.24-0.63,2.15-0.63c1.09,0,1.93,0.34,2.52,1.01c0.59,0.67,0.88,1.64,0.88,2.89v6.58h-1.14v-6.38c0-2.05-0.86-3.08-2.58-3.08
				c-0.36,0-0.7,0.05-1.02,0.14s-0.6,0.24-0.85,0.43c-0.25,0.19-0.44,0.43-0.59,0.72c-0.15,0.29-0.22,0.62-0.22,0.99v7.18h-1.14
				v-6.38c0-2.05-0.85-3.08-2.56-3.08c-0.35,0-0.68,0.05-1.01,0.14c-0.33,0.09-0.62,0.23-0.87,0.42s-0.45,0.42-0.6,0.71
				c-0.15,0.29-0.22,0.62-0.22,0.99v7.2H410.56z"/>
			<path d="M430.06,105.24V95h1.14v1.62h0.06c0.11-0.25,0.24-0.49,0.4-0.71c0.16-0.22,0.35-0.42,0.58-0.59s0.5-0.31,0.81-0.41
				c0.31-0.1,0.68-0.15,1.11-0.15c0.73,0,1.38,0.17,1.94,0.52c0.56,0.35,0.96,0.89,1.22,1.64h0.06c0.19-0.6,0.54-1.11,1.07-1.53
				c0.53-0.42,1.24-0.63,2.15-0.63c1.09,0,1.93,0.34,2.52,1.01c0.59,0.67,0.88,1.64,0.88,2.89v6.58h-1.14v-6.38
				c0-2.05-0.86-3.08-2.58-3.08c-0.36,0-0.7,0.05-1.02,0.14c-0.32,0.09-0.6,0.24-0.85,0.43c-0.25,0.19-0.44,0.43-0.59,0.72
				s-0.22,0.62-0.22,0.99v7.18h-1.14v-6.38c0-2.05-0.85-3.08-2.56-3.08c-0.35,0-0.68,0.05-1.01,0.14s-0.62,0.23-0.87,0.42
				c-0.25,0.19-0.46,0.42-0.6,0.71c-0.15,0.29-0.22,0.62-0.22,0.99v7.2H430.06z"/>
		</g>
	</g>
	<g>
		<g>
			<path d="M537,131v59H272v-59H537 M538,130H271v61h267V130L538,130z"/>
		</g>
		<g>
			<path d="M361.86,166.24v-1.06h4.08v-12.02h-0.1l-3.84,3.42l-0.68-0.76l3.98-3.54h1.84v12.9h3.84v1.06H361.86z"/>
			<path d="M384.6,166.24h-8.96v-1.22l4.88-4.68c0.65-0.64,1.19-1.3,1.6-1.97c0.41-0.68,0.62-1.37,0.62-2.08v-0.38
				c0-0.83-0.24-1.5-0.72-2.03s-1.2-0.78-2.16-0.78c-0.93,0-1.65,0.23-2.14,0.7c-0.49,0.47-0.85,1.07-1.08,1.82l-1.08-0.4
				c0.13-0.43,0.31-0.83,0.54-1.22s0.52-0.72,0.87-1.02c0.35-0.29,0.77-0.52,1.25-0.69c0.48-0.17,1.04-0.26,1.68-0.26
				c0.65,0,1.24,0.1,1.75,0.29c0.51,0.19,0.95,0.46,1.3,0.81c0.35,0.35,0.62,0.76,0.8,1.25s0.27,1.03,0.27,1.63
				c0,0.51-0.07,0.98-0.2,1.43c-0.13,0.45-0.32,0.87-0.56,1.28s-0.53,0.8-0.88,1.2c-0.35,0.39-0.73,0.78-1.14,1.17l-4.3,4.09h7.66
				V166.24z"/>
			<path d="M394.02,166.48c-3.15,0-4.72-2.41-4.72-7.22s1.57-7.22,4.72-7.22s4.72,2.41,4.72,7.22S397.17,166.48,394.02,166.48z
				 M394.02,165.42c1.17,0,2.04-0.46,2.61-1.39c0.57-0.93,0.85-2.21,0.85-3.83v-1.88c0-1.62-0.28-2.9-0.85-3.83
				c-0.57-0.93-1.44-1.4-2.61-1.4c-1.19,0-2.06,0.46-2.62,1.4c-0.56,0.93-0.84,2.21-0.84,3.83v1.88c0,1.62,0.28,2.9,0.84,3.83
				C391.96,164.96,392.83,165.42,394.02,165.42z"/>
			<path d="M410.56,166.24V156h1.14v1.62h0.06c0.11-0.25,0.24-0.49,0.4-0.71c0.16-0.22,0.35-0.42,0.58-0.59s0.5-0.31,0.81-0.41
				c0.31-0.1,0.68-0.15,1.11-0.15c0.73,0,1.38,0.17,1.94,0.52c0.56,0.35,0.97,0.89,1.22,1.64h0.06c0.19-0.6,0.54-1.11,1.07-1.53
				s1.24-0.63,2.15-0.63c1.09,0,1.93,0.34,2.52,1.01c0.59,0.67,0.88,1.64,0.88,2.89v6.58h-1.14v-6.38c0-2.05-0.86-3.08-2.58-3.08
				c-0.36,0-0.7,0.05-1.02,0.14s-0.6,0.24-0.85,0.43c-0.25,0.19-0.44,0.43-0.59,0.72c-0.15,0.29-0.22,0.62-0.22,0.99v7.18h-1.14
				v-6.38c0-2.05-0.85-3.08-2.56-3.08c-0.35,0-0.68,0.05-1.01,0.14c-0.33,0.09-0.62,0.23-0.87,0.42s-0.45,0.42-0.6,0.71
				c-0.15,0.29-0.22,0.62-0.22,0.99v7.2H410.56z"/>
			<path d="M430.06,166.24V156h1.14v1.62h0.06c0.11-0.25,0.24-0.49,0.4-0.71c0.16-0.22,0.35-0.42,0.58-0.59s0.5-0.31,0.81-0.41
				c0.31-0.1,0.68-0.15,1.11-0.15c0.73,0,1.38,0.17,1.94,0.52c0.56,0.35,0.96,0.89,1.22,1.64h0.06c0.19-0.6,0.54-1.11,1.07-1.53
				c0.53-0.42,1.24-0.63,2.15-0.63c1.09,0,1.93,0.34,2.52,1.01c0.59,0.67,0.88,1.64,0.88,2.89v6.58h-1.14v-6.38
				c0-2.05-0.86-3.08-2.58-3.08c-0.36,0-0.7,0.05-1.02,0.14c-0.32,0.09-0.6,0.24-0.85,0.43c-0.25,0.19-0.44,0.43-0.59,0.72
				s-0.22,0.62-0.22,0.99v7.18h-1.14v-6.38c0-2.05-0.85-3.08-2.56-3.08c-0.35,0-0.68,0.05-1.01,0.14s-0.62,0.23-0.87,0.42
				c-0.25,0.19-0.46,0.42-0.6,0.71c-0.15,0.29-0.22,0.62-0.22,0.99v7.2H430.06z"/>
		</g>
		<g>
			<g>
				<path d="M537,192v59H272v-59H537 M538,191H271v61h267V191L538,191z"/>
			</g>
			<g>
				<path d="M361.86,227.24v-1.06h4.08v-12.02h-0.1l-3.84,3.42l-0.68-0.76l3.98-3.54h1.84v12.9h3.84v1.06H361.86z"/>
				<path d="M384.6,227.24h-8.96v-1.22l4.88-4.68c0.65-0.64,1.19-1.3,1.6-1.97c0.41-0.68,0.62-1.37,0.62-2.08v-0.38
					c0-0.83-0.24-1.5-0.72-2.03s-1.2-0.78-2.16-0.78c-0.93,0-1.65,0.23-2.14,0.7c-0.49,0.47-0.85,1.07-1.08,1.82l-1.08-0.4
					c0.13-0.43,0.31-0.83,0.54-1.22s0.52-0.72,0.87-1.02c0.35-0.29,0.77-0.52,1.25-0.69c0.48-0.17,1.04-0.26,1.68-0.26
					c0.65,0,1.24,0.1,1.75,0.29c0.51,0.19,0.95,0.46,1.3,0.81c0.35,0.35,0.62,0.76,0.8,1.25s0.27,1.03,0.27,1.63
					c0,0.51-0.07,0.98-0.2,1.43c-0.13,0.45-0.32,0.87-0.56,1.28s-0.53,0.8-0.88,1.2c-0.35,0.39-0.73,0.78-1.14,1.17l-4.3,4.09h7.66
					V227.24z"/>
				<path d="M395.8,227.24v-2.92h-6.94v-1.06l6.36-9.98h1.72v10.04h2.16v1h-2.16v2.92H395.8z M389.98,223.32h5.82v-9.02h-0.06
					L389.98,223.32z"/>
				<path d="M410.56,227.24V217h1.14v1.62h0.06c0.11-0.25,0.24-0.49,0.4-0.71c0.16-0.22,0.35-0.42,0.58-0.59s0.5-0.31,0.81-0.41
					c0.31-0.1,0.68-0.15,1.11-0.15c0.73,0,1.38,0.17,1.94,0.52c0.56,0.35,0.97,0.89,1.22,1.64h0.06c0.19-0.6,0.54-1.11,1.07-1.53
					s1.24-0.63,2.15-0.63c1.09,0,1.93,0.34,2.52,1.01c0.59,0.67,0.88,1.64,0.88,2.89v6.58h-1.14v-6.38c0-2.05-0.86-3.08-2.58-3.08
					c-0.36,0-0.7,0.05-1.02,0.14s-0.6,0.24-0.85,0.43c-0.25,0.19-0.44,0.43-0.59,0.72c-0.15,0.29-0.22,0.62-0.22,0.99v7.18h-1.14
					v-6.38c0-2.05-0.85-3.08-2.56-3.08c-0.35,0-0.68,0.05-1.01,0.14c-0.33,0.09-0.62,0.23-0.87,0.42s-0.45,0.42-0.6,0.71
					c-0.15,0.29-0.22,0.62-0.22,0.99v7.2H410.56z"/>
				<path d="M430.06,227.24V217h1.14v1.62h0.06c0.11-0.25,0.24-0.49,0.4-0.71c0.16-0.22,0.35-0.42,0.58-0.59s0.5-0.31,0.81-0.41
					c0.31-0.1,0.68-0.15,1.11-0.15c0.73,0,1.38,0.17,1.94,0.52c0.56,0.35,0.96,0.89,1.22,1.64h0.06c0.19-0.6,0.54-1.11,1.07-1.53
					c0.53-0.42,1.24-0.63,2.15-0.63c1.09,0,1.93,0.34,2.52,1.01c0.59,0.67,0.88,1.64,0.88,2.89v6.58h-1.14v-6.38
					c0-2.05-0.86-3.08-2.58-3.08c-0.36,0-0.7,0.05-1.02,0.14c-0.32,0.09-0.6,0.24-0.85,0.43c-0.25,0.19-0.44,0.43-0.59,0.72
					s-0.22,0.62-0.22,0.99v7.18h-1.14v-6.38c0-2.05-0.85-3.08-2.56-3.08c-0.35,0-0.68,0.05-1.01,0.14s-0.62,0.23-0.87,0.42
					c-0.25,0.19-0.46,0.42-0.6,0.71c-0.15,0.29-0.22,0.62-0.22,0.99v7.2H430.06z"/>
			</g>
		</g>
	</g>
</g>
<g>
	<g>
		<g>
			<path d="M808,70v59H543V70H808 M809,69H542v61h267V69L809,69z"/>
		</g>
		<g>
			<path d="M641.56,96.16c0,1.08-0.15,2.08-0.45,3.01c-0.3,0.93-0.69,1.77-1.17,2.53c-0.48,0.76-1.03,1.44-1.65,2.03
				c-0.62,0.59-1.25,1.1-1.89,1.51h-1.56c0.77-0.53,1.46-1.07,2.06-1.6s1.12-1.1,1.57-1.69c0.45-0.59,0.82-1.23,1.12-1.9
				c0.3-0.67,0.54-1.42,0.71-2.25l-0.08-0.02c-0.35,0.63-0.8,1.12-1.37,1.49s-1.27,0.55-2.11,0.55c-0.61,0-1.18-0.1-1.69-0.3
				c-0.51-0.2-0.96-0.48-1.32-0.85c-0.37-0.37-0.65-0.81-0.85-1.34c-0.2-0.53-0.3-1.12-0.3-1.77c0-0.68,0.11-1.3,0.32-1.85
				c0.21-0.55,0.51-1.03,0.9-1.42c0.39-0.39,0.86-0.7,1.41-0.92c0.55-0.22,1.17-0.33,1.85-0.33c0.73,0,1.38,0.12,1.94,0.37
				s1.03,0.59,1.41,1.04c0.38,0.45,0.67,0.99,0.86,1.62S641.56,95.4,641.56,96.16z M637.08,98.8c1.03,0,1.82-0.29,2.39-0.86
				c0.57-0.57,0.85-1.34,0.85-2.31v-0.32c0-0.98-0.29-1.77-0.86-2.34c-0.57-0.58-1.37-0.87-2.38-0.87c-1.03,0-1.83,0.29-2.4,0.87
				c-0.57,0.58-0.86,1.35-0.86,2.32v0.34c0,0.97,0.28,1.74,0.85,2.31C635.24,98.51,636.04,98.8,637.08,98.8z"/>
			<path d="M646.84,105.24v-1.06h4.08V92.16h-0.1l-3.84,3.42l-0.68-0.76l3.98-3.54h1.84v12.9h3.84v1.06H646.84z"/>
			<path d="M667.58,105.24V95h1.14v1.62h0.06c0.11-0.25,0.24-0.49,0.4-0.71c0.16-0.22,0.35-0.42,0.58-0.59s0.5-0.31,0.81-0.41
				c0.31-0.1,0.68-0.15,1.11-0.15c0.73,0,1.38,0.17,1.94,0.52c0.56,0.35,0.97,0.89,1.22,1.64h0.06c0.19-0.6,0.54-1.11,1.07-1.53
				s1.24-0.63,2.15-0.63c1.09,0,1.93,0.34,2.52,1.01c0.59,0.67,0.88,1.64,0.88,2.89v6.58h-1.14v-6.38c0-2.05-0.86-3.08-2.58-3.08
				c-0.36,0-0.7,0.05-1.02,0.14s-0.6,0.24-0.85,0.43c-0.25,0.19-0.44,0.43-0.59,0.72c-0.15,0.29-0.22,0.62-0.22,0.99v7.18h-1.14
				v-6.38c0-2.05-0.85-3.08-2.56-3.08c-0.35,0-0.68,0.05-1.01,0.14c-0.33,0.09-0.62,0.23-0.87,0.42s-0.45,0.42-0.6,0.71
				c-0.15,0.29-0.22,0.62-0.22,0.99v7.2H667.58z"/>
			<path d="M687.08,105.24V95h1.14v1.62h0.06c0.11-0.25,0.24-0.49,0.4-0.71c0.16-0.22,0.35-0.42,0.58-0.59s0.5-0.31,0.81-0.41
				c0.31-0.1,0.68-0.15,1.11-0.15c0.73,0,1.38,0.17,1.94,0.52c0.56,0.35,0.97,0.89,1.22,1.64h0.06c0.19-0.6,0.54-1.11,1.07-1.53
				s1.24-0.63,2.15-0.63c1.09,0,1.93,0.34,2.52,1.01c0.59,0.67,0.88,1.64,0.88,2.89v6.58h-1.14v-6.38c0-2.05-0.86-3.08-2.58-3.08
				c-0.36,0-0.7,0.05-1.02,0.14s-0.6,0.24-0.85,0.43c-0.25,0.19-0.44,0.43-0.59,0.72c-0.15,0.29-0.22,0.62-0.22,0.99v7.18h-1.14
				v-6.38c0-2.05-0.85-3.08-2.56-3.08c-0.35,0-0.68,0.05-1.01,0.14c-0.33,0.09-0.62,0.23-0.87,0.42s-0.45,0.42-0.6,0.71
				c-0.15,0.29-0.22,0.62-0.22,0.99v7.2H687.08z"/>
		</g>
	</g>
	<g>
		<g>
			<path d="M808,131v59H543v-59H808 M809,130H542v61h267V130L809,130z"/>
		</g>
		<g>
			<path d="M641.56,157.16c0,1.08-0.15,2.08-0.45,3.01c-0.3,0.93-0.69,1.77-1.17,2.53c-0.48,0.76-1.03,1.44-1.65,2.03
				c-0.62,0.59-1.25,1.1-1.89,1.51h-1.56c0.77-0.53,1.46-1.07,2.06-1.6s1.12-1.1,1.57-1.69c0.45-0.59,0.82-1.23,1.12-1.9
				c0.3-0.67,0.54-1.42,0.71-2.25l-0.08-0.02c-0.35,0.63-0.8,1.12-1.37,1.49s-1.27,0.55-2.11,0.55c-0.61,0-1.18-0.1-1.69-0.3
				c-0.51-0.2-0.96-0.48-1.32-0.85c-0.37-0.37-0.65-0.81-0.85-1.34c-0.2-0.53-0.3-1.12-0.3-1.77c0-0.68,0.11-1.3,0.32-1.85
				c0.21-0.55,0.51-1.03,0.9-1.42c0.39-0.39,0.86-0.7,1.41-0.92c0.55-0.22,1.17-0.33,1.85-0.33c0.73,0,1.38,0.12,1.94,0.37
				s1.03,0.59,1.41,1.04c0.38,0.45,0.67,0.99,0.86,1.62S641.56,156.4,641.56,157.16z M637.08,159.8c1.03,0,1.82-0.29,2.39-0.86
				c0.57-0.57,0.85-1.34,0.85-2.31v-0.32c0-0.98-0.29-1.77-0.86-2.34c-0.57-0.58-1.37-0.87-2.38-0.87c-1.03,0-1.83,0.29-2.4,0.87
				c-0.57,0.58-0.86,1.35-0.86,2.32v0.34c0,0.97,0.28,1.74,0.85,2.31C635.24,159.51,636.04,159.8,637.08,159.8z"/>
			<path d="M654.86,153.34h-6.24l-0.44,5.84l0.12,0.02c0.35-0.49,0.75-0.86,1.22-1.11s1.07-0.37,1.82-0.37
				c0.61,0,1.17,0.1,1.68,0.29c0.51,0.19,0.94,0.47,1.3,0.84c0.36,0.37,0.64,0.81,0.83,1.34c0.19,0.53,0.29,1.12,0.29,1.79
				c0,0.68-0.1,1.3-0.31,1.85s-0.5,1.03-0.89,1.42s-0.86,0.7-1.41,0.91c-0.55,0.21-1.18,0.32-1.87,0.32c-0.55,0-1.04-0.06-1.48-0.17
				c-0.44-0.11-0.83-0.27-1.18-0.47c-0.35-0.2-0.66-0.44-0.93-0.72s-0.52-0.58-0.73-0.9l0.9-0.68c0.39,0.6,0.84,1.06,1.35,1.39
				c0.51,0.33,1.2,0.49,2.07,0.49c1.04,0,1.84-0.29,2.39-0.85c0.55-0.57,0.83-1.34,0.83-2.32v-0.34c0-0.97-0.27-1.75-0.81-2.32
				c-0.54-0.57-1.32-0.85-2.35-0.85c-0.36,0-0.68,0.03-0.96,0.09c-0.28,0.06-0.53,0.15-0.75,0.26c-0.22,0.11-0.42,0.25-0.6,0.4
				c-0.18,0.15-0.36,0.33-0.53,0.53l-1.04-0.16l0.5-7.58h7.22V153.34z"/>
			<path d="M667.58,166.24V156h1.14v1.62h0.06c0.11-0.25,0.24-0.49,0.4-0.71c0.16-0.22,0.35-0.42,0.58-0.59s0.5-0.31,0.81-0.41
				c0.31-0.1,0.68-0.15,1.11-0.15c0.73,0,1.38,0.17,1.94,0.52c0.56,0.35,0.97,0.89,1.22,1.64h0.06c0.19-0.6,0.54-1.11,1.07-1.53
				s1.24-0.63,2.15-0.63c1.09,0,1.93,0.34,2.52,1.01c0.59,0.67,0.88,1.64,0.88,2.89v6.58h-1.14v-6.38c0-2.05-0.86-3.08-2.58-3.08
				c-0.36,0-0.7,0.05-1.02,0.14s-0.6,0.24-0.85,0.43c-0.25,0.19-0.44,0.43-0.59,0.72c-0.15,0.29-0.22,0.62-0.22,0.99v7.18h-1.14
				v-6.38c0-2.05-0.85-3.08-2.56-3.08c-0.35,0-0.68,0.05-1.01,0.14c-0.33,0.09-0.62,0.23-0.87,0.42s-0.45,0.42-0.6,0.71
				c-0.15,0.29-0.22,0.62-0.22,0.99v7.2H667.58z"/>
			<path d="M687.08,166.24V156h1.14v1.62h0.06c0.11-0.25,0.24-0.49,0.4-0.71c0.16-0.22,0.35-0.42,0.58-0.59s0.5-0.31,0.81-0.41
				c0.31-0.1,0.68-0.15,1.11-0.15c0.73,0,1.38,0.17,1.94,0.52c0.56,0.35,0.97,0.89,1.22,1.64h0.06c0.19-0.6,0.54-1.11,1.07-1.53
				s1.24-0.63,2.15-0.63c1.09,0,1.93,0.34,2.52,1.01c0.59,0.67,0.88,1.64,0.88,2.89v6.58h-1.14v-6.38c0-2.05-0.86-3.08-2.58-3.08
				c-0.36,0-0.7,0.05-1.02,0.14s-0.6,0.24-0.85,0.43c-0.25,0.19-0.44,0.43-0.59,0.72c-0.15,0.29-0.22,0.62-0.22,0.99v7.18h-1.14
				v-6.38c0-2.05-0.85-3.08-2.56-3.08c-0.35,0-0.68,0.05-1.01,0.14c-0.33,0.09-0.62,0.23-0.87,0.42s-0.45,0.42-0.6,0.71
				c-0.15,0.29-0.22,0.62-0.22,0.99v7.2H687.08z"/>
		</g>
		<g>
			<g>
				<path d="M808,192v59H543v-59H808 M809,191H542v61h267V191L809,191z"/>
			</g>
			<g>
				<path d="M641.56,218.16c0,1.08-0.15,2.08-0.45,3.01c-0.3,0.93-0.69,1.77-1.17,2.53c-0.48,0.76-1.03,1.44-1.65,2.03
					c-0.62,0.59-1.25,1.1-1.89,1.51h-1.56c0.77-0.53,1.46-1.07,2.06-1.6s1.12-1.1,1.57-1.69c0.45-0.59,0.82-1.23,1.12-1.9
					c0.3-0.67,0.54-1.42,0.71-2.25l-0.08-0.02c-0.35,0.63-0.8,1.12-1.37,1.49s-1.27,0.55-2.11,0.55c-0.61,0-1.18-0.1-1.69-0.3
					c-0.51-0.2-0.96-0.48-1.32-0.85c-0.37-0.37-0.65-0.81-0.85-1.34c-0.2-0.53-0.3-1.12-0.3-1.77c0-0.68,0.11-1.3,0.32-1.85
					c0.21-0.55,0.51-1.03,0.9-1.42c0.39-0.39,0.86-0.7,1.41-0.92c0.55-0.22,1.17-0.33,1.85-0.33c0.73,0,1.38,0.12,1.94,0.37
					s1.03,0.59,1.41,1.04c0.38,0.45,0.67,0.99,0.86,1.62S641.56,217.4,641.56,218.16z M637.08,220.8c1.03,0,1.82-0.29,2.39-0.86
					c0.57-0.57,0.85-1.34,0.85-2.31v-0.32c0-0.98-0.29-1.77-0.86-2.34c-0.57-0.58-1.37-0.87-2.38-0.87c-1.03,0-1.83,0.29-2.4,0.87
					c-0.57,0.58-0.86,1.35-0.86,2.32v0.34c0,0.97,0.28,1.74,0.85,2.31C635.24,220.51,636.04,220.8,637.08,220.8z"/>
				<path d="M655.54,218.16c0,1.08-0.15,2.08-0.45,3.01c-0.3,0.93-0.69,1.77-1.17,2.53s-1.03,1.44-1.65,2.03
					c-0.62,0.59-1.25,1.1-1.89,1.51h-1.56c0.77-0.53,1.46-1.07,2.06-1.6c0.6-0.53,1.12-1.1,1.57-1.69c0.45-0.59,0.82-1.23,1.12-1.9
					c0.3-0.67,0.54-1.42,0.71-2.25l-0.08-0.02c-0.35,0.63-0.8,1.12-1.37,1.49c-0.57,0.37-1.27,0.55-2.11,0.55
					c-0.61,0-1.18-0.1-1.69-0.3c-0.51-0.2-0.95-0.48-1.32-0.85s-0.65-0.81-0.85-1.34s-0.3-1.12-0.3-1.77c0-0.68,0.11-1.3,0.32-1.85
					c0.21-0.55,0.51-1.03,0.9-1.42c0.39-0.39,0.86-0.7,1.41-0.92c0.55-0.22,1.17-0.33,1.85-0.33c0.73,0,1.38,0.12,1.94,0.37
					c0.56,0.25,1.03,0.59,1.41,1.04c0.38,0.45,0.67,0.99,0.86,1.62S655.54,217.4,655.54,218.16z M651.06,220.8
					c1.03,0,1.82-0.29,2.39-0.86c0.57-0.57,0.85-1.34,0.85-2.31v-0.32c0-0.98-0.29-1.77-0.86-2.34c-0.57-0.58-1.37-0.87-2.38-0.87
					c-1.03,0-1.83,0.29-2.4,0.87c-0.57,0.58-0.86,1.35-0.86,2.32v0.34c0,0.97,0.28,1.74,0.85,2.31
					C649.22,220.51,650.02,220.8,651.06,220.8z"/>
				<path d="M667.58,227.24V217h1.14v1.62h0.06c0.11-0.25,0.24-0.49,0.4-0.71c0.16-0.22,0.35-0.42,0.58-0.59s0.5-0.31,0.81-0.41
					c0.31-0.1,0.68-0.15,1.11-0.15c0.73,0,1.38,0.17,1.94,0.52c0.56,0.35,0.97,0.89,1.22,1.64h0.06c0.19-0.6,0.54-1.11,1.07-1.53
					s1.24-0.63,2.15-0.63c1.09,0,1.93,0.34,2.52,1.01c0.59,0.67,0.88,1.64,0.88,2.89v6.58h-1.14v-6.38c0-2.05-0.86-3.08-2.58-3.08
					c-0.36,0-0.7,0.05-1.02,0.14s-0.6,0.24-0.85,0.43c-0.25,0.19-0.44,0.43-0.59,0.72c-0.15,0.29-0.22,0.62-0.22,0.99v7.18h-1.14
					v-6.38c0-2.05-0.85-3.08-2.56-3.08c-0.35,0-0.68,0.05-1.01,0.14c-0.33,0.09-0.62,0.23-0.87,0.42s-0.45,0.42-0.6,0.71
					c-0.15,0.29-0.22,0.62-0.22,0.99v7.2H667.58z"/>
				<path d="M687.08,227.24V217h1.14v1.62h0.06c0.11-0.25,0.24-0.49,0.4-0.71c0.16-0.22,0.35-0.42,0.58-0.59s0.5-0.31,0.81-0.41
					c0.31-0.1,0.68-0.15,1.11-0.15c0.73,0,1.38,0.17,1.94,0.52c0.56,0.35,0.97,0.89,1.22,1.64h0.06c0.19-0.6,0.54-1.11,1.07-1.53
					s1.24-0.63,2.15-0.63c1.09,0,1.93,0.34,2.52,1.01c0.59,0.67,0.88,1.64,0.88,2.89v6.58h-1.14v-6.38c0-2.05-0.86-3.08-2.58-3.08
					c-0.36,0-0.7,0.05-1.02,0.14s-0.6,0.24-0.85,0.43c-0.25,0.19-0.44,0.43-0.59,0.72c-0.15,0.29-0.22,0.62-0.22,0.99v7.18h-1.14
					v-6.38c0-2.05-0.85-3.08-2.56-3.08c-0.35,0-0.68,0.05-1.01,0.14c-0.33,0.09-0.62,0.23-0.87,0.42s-0.45,0.42-0.6,0.71
					c-0.15,0.29-0.22,0.62-0.22,0.99v7.2H687.08z"/>
			</g>
		</g>
	</g>
</g>
<g>
	<g>
		<g>
			<path d="M268,330v59H3v-59H268 M269,329H2v61h267V329L269,329z"/>
		</g>
		<g>
			<path d="M92.86,365.24v-1.06h4.08v-12.02h-0.1L93,355.58l-0.68-0.76l3.98-3.54h1.84v12.9h3.84v1.06H92.86z"/>
			<path d="M114.86,352.34h-6.24l-0.44,5.84l0.12,0.02c0.35-0.49,0.75-0.86,1.22-1.11s1.07-0.37,1.82-0.37
				c0.61,0,1.17,0.1,1.68,0.29c0.51,0.19,0.94,0.47,1.3,0.84c0.36,0.37,0.64,0.81,0.83,1.34c0.19,0.53,0.29,1.12,0.29,1.79
				c0,0.68-0.1,1.3-0.31,1.85s-0.5,1.03-0.89,1.42s-0.86,0.7-1.41,0.91c-0.55,0.21-1.18,0.32-1.87,0.32c-0.55,0-1.04-0.06-1.48-0.17
				c-0.44-0.11-0.83-0.27-1.18-0.47c-0.35-0.2-0.66-0.44-0.93-0.72s-0.52-0.58-0.73-0.9l0.9-0.68c0.39,0.6,0.84,1.06,1.35,1.39
				c0.51,0.33,1.2,0.49,2.07,0.49c1.04,0,1.84-0.29,2.39-0.85c0.55-0.57,0.83-1.34,0.83-2.32v-0.34c0-0.97-0.27-1.75-0.81-2.32
				c-0.54-0.57-1.32-0.85-2.35-0.85c-0.36,0-0.68,0.03-0.96,0.09c-0.28,0.06-0.53,0.15-0.75,0.26c-0.22,0.11-0.42,0.25-0.6,0.4
				c-0.18,0.15-0.36,0.33-0.53,0.53l-1.04-0.16l0.5-7.58h7.22V352.34z"/>
			<path d="M121.62,365.42c-0.33,0-0.58-0.08-0.73-0.25c-0.15-0.17-0.23-0.38-0.23-0.65v-0.22c0-0.27,0.08-0.48,0.23-0.65
				c0.15-0.17,0.4-0.25,0.73-0.25c0.32,0,0.56,0.08,0.72,0.25c0.16,0.17,0.24,0.38,0.24,0.65v0.22c0,0.27-0.08,0.48-0.24,0.65
				S121.94,365.42,121.62,365.42z"/>
			<path d="M136.02,352.34h-6.24l-0.44,5.84l0.12,0.02c0.35-0.49,0.75-0.86,1.22-1.11s1.07-0.37,1.82-0.37
				c0.61,0,1.17,0.1,1.68,0.29c0.51,0.19,0.94,0.47,1.3,0.84c0.36,0.37,0.64,0.81,0.83,1.34c0.19,0.53,0.29,1.12,0.29,1.79
				c0,0.68-0.1,1.3-0.31,1.85s-0.5,1.03-0.89,1.42s-0.86,0.7-1.41,0.91c-0.55,0.21-1.18,0.32-1.87,0.32c-0.55,0-1.04-0.06-1.48-0.17
				c-0.44-0.11-0.83-0.27-1.18-0.47c-0.35-0.2-0.66-0.44-0.93-0.72s-0.52-0.58-0.73-0.9l0.9-0.68c0.39,0.6,0.84,1.06,1.35,1.39
				c0.51,0.33,1.2,0.49,2.07,0.49c1.04,0,1.84-0.29,2.39-0.85c0.55-0.57,0.83-1.34,0.83-2.32v-0.34c0-0.97-0.27-1.75-0.81-2.32
				c-0.54-0.57-1.32-0.85-2.35-0.85c-0.36,0-0.68,0.03-0.96,0.09c-0.28,0.06-0.53,0.15-0.75,0.26c-0.22,0.11-0.42,0.25-0.6,0.4
				c-0.18,0.15-0.36,0.33-0.53,0.53l-1.04-0.16l0.5-7.58h7.22V352.34z"/>
			<path d="M142.04,365.24V355h1.14v1.62h0.06c0.11-0.25,0.24-0.49,0.4-0.71c0.16-0.22,0.35-0.42,0.58-0.59s0.5-0.31,0.81-0.41
				c0.31-0.1,0.68-0.15,1.11-0.15c0.73,0,1.38,0.17,1.94,0.52c0.56,0.35,0.96,0.89,1.22,1.64h0.06c0.19-0.6,0.54-1.11,1.07-1.53
				c0.53-0.42,1.24-0.63,2.15-0.63c1.09,0,1.93,0.34,2.52,1.01c0.59,0.67,0.88,1.64,0.88,2.89v6.58h-1.14v-6.38
				c0-2.05-0.86-3.08-2.58-3.08c-0.36,0-0.7,0.05-1.02,0.14c-0.32,0.09-0.6,0.24-0.85,0.43c-0.25,0.19-0.44,0.43-0.59,0.72
				s-0.22,0.62-0.22,0.99v7.18h-1.14v-6.38c0-2.05-0.85-3.08-2.56-3.08c-0.35,0-0.68,0.05-1.01,0.14s-0.62,0.23-0.87,0.42
				c-0.25,0.19-0.46,0.42-0.6,0.71c-0.15,0.29-0.22,0.62-0.22,0.99v7.2H142.04z"/>
		</g>
	</g>
	<g>
		<g>
			<path d="M268,391v59H3v-59H268 M269,390H2v61h267V390L269,390z"/>
		</g>
		<g>
			<path d="M92.86,426.24v-1.06h4.08v-12.02h-0.1L93,416.58l-0.68-0.76l3.98-3.54h1.84v12.9h3.84v1.06H92.86z"/>
			<path d="M111.04,426.48c-0.76,0-1.43-0.1-2.02-0.3s-1.08-0.47-1.49-0.82c-0.41-0.35-0.71-0.76-0.92-1.25s-0.31-1.02-0.31-1.59
				c0-0.97,0.27-1.76,0.8-2.35s1.25-0.99,2.14-1.19v-0.14c-0.76-0.21-1.36-0.61-1.81-1.18c-0.45-0.57-0.67-1.28-0.67-2.12
				c0-1.07,0.38-1.92,1.13-2.55c0.75-0.63,1.8-0.95,3.15-0.95c1.35,0,2.4,0.32,3.15,0.95s1.13,1.48,1.13,2.55
				c0,0.84-0.22,1.55-0.67,2.12c-0.45,0.57-1.05,0.97-1.81,1.18v0.14c0.89,0.2,1.61,0.6,2.14,1.19c0.53,0.59,0.8,1.38,0.8,2.35
				c0,0.57-0.1,1.1-0.31,1.59s-0.51,0.9-0.92,1.25c-0.41,0.35-0.9,0.62-1.49,0.82C112.47,426.38,111.8,426.48,111.04,426.48z
				 M111.04,425.42c1.08,0,1.93-0.25,2.54-0.75s0.92-1.17,0.92-2.02v-0.46c0-0.86-0.31-1.54-0.92-2.03
				c-0.61-0.49-1.46-0.74-2.54-0.74s-1.93,0.25-2.54,0.74c-0.61,0.49-0.92,1.17-0.92,2.03v0.46c0,0.85,0.31,1.53,0.92,2.02
				S109.96,425.42,111.04,425.42z M111.04,418.4c0.96,0,1.71-0.22,2.24-0.65s0.8-1.04,0.8-1.82v-0.36c0-0.77-0.27-1.38-0.8-1.81
				c-0.53-0.44-1.28-0.66-2.24-0.66c-0.96,0-1.71,0.22-2.24,0.66c-0.53,0.44-0.8,1.04-0.8,1.81v0.36c0,0.78,0.27,1.39,0.8,1.82
				S110.08,418.4,111.04,418.4z"/>
			<path d="M121.62,426.42c-0.33,0-0.58-0.08-0.73-0.25c-0.15-0.17-0.23-0.38-0.23-0.65v-0.22c0-0.27,0.08-0.48,0.23-0.65
				c0.15-0.17,0.4-0.25,0.73-0.25c0.32,0,0.56,0.08,0.72,0.25c0.16,0.17,0.24,0.38,0.24,0.65v0.22c0,0.27-0.08,0.48-0.24,0.65
				S121.94,426.42,121.62,426.42z"/>
			<path d="M136.02,413.34h-6.24l-0.44,5.84l0.12,0.02c0.35-0.49,0.75-0.86,1.22-1.11s1.07-0.37,1.82-0.37
				c0.61,0,1.17,0.1,1.68,0.29c0.51,0.19,0.94,0.47,1.3,0.84c0.36,0.37,0.64,0.81,0.83,1.34c0.19,0.53,0.29,1.12,0.29,1.79
				c0,0.68-0.1,1.3-0.31,1.85s-0.5,1.03-0.89,1.42s-0.86,0.7-1.41,0.91c-0.55,0.21-1.18,0.32-1.87,0.32c-0.55,0-1.04-0.06-1.48-0.17
				c-0.44-0.11-0.83-0.27-1.18-0.47c-0.35-0.2-0.66-0.44-0.93-0.72s-0.52-0.58-0.73-0.9l0.9-0.68c0.39,0.6,0.84,1.06,1.35,1.39
				c0.51,0.33,1.2,0.49,2.07,0.49c1.04,0,1.84-0.29,2.39-0.85c0.55-0.57,0.83-1.34,0.83-2.32v-0.34c0-0.97-0.27-1.75-0.81-2.32
				c-0.54-0.57-1.32-0.85-2.35-0.85c-0.36,0-0.68,0.03-0.96,0.09c-0.28,0.06-0.53,0.15-0.75,0.26c-0.22,0.11-0.42,0.25-0.6,0.4
				c-0.18,0.15-0.36,0.33-0.53,0.53l-1.04-0.16l0.5-7.58h7.22V413.34z"/>
			<path d="M142.04,426.24V416h1.14v1.62h0.06c0.11-0.25,0.24-0.49,0.4-0.71c0.16-0.22,0.35-0.42,0.58-0.59s0.5-0.31,0.81-0.41
				c0.31-0.1,0.68-0.15,1.11-0.15c0.73,0,1.38,0.17,1.94,0.52c0.56,0.35,0.96,0.89,1.22,1.64h0.06c0.19-0.6,0.54-1.11,1.07-1.53
				c0.53-0.42,1.24-0.63,2.15-0.63c1.09,0,1.93,0.34,2.52,1.01c0.59,0.67,0.88,1.64,0.88,2.89v6.58h-1.14v-6.38
				c0-2.05-0.86-3.08-2.58-3.08c-0.36,0-0.7,0.05-1.02,0.14c-0.32,0.09-0.6,0.24-0.85,0.43c-0.25,0.19-0.44,0.43-0.59,0.72
				s-0.22,0.62-0.22,0.99v7.18h-1.14v-6.38c0-2.05-0.85-3.08-2.56-3.08c-0.35,0-0.68,0.05-1.01,0.14s-0.62,0.23-0.87,0.42
				c-0.25,0.19-0.46,0.42-0.6,0.71c-0.15,0.29-0.22,0.62-0.22,0.99v7.2H142.04z"/>
		</g>
		<g>
			<g>
				<path d="M268,452v59H3v-59H268 M269,451H2v61h267V451L269,451z"/>
			</g>
			<g>
				<path d="M101.62,487.24h-8.96v-1.22l4.88-4.68c0.65-0.64,1.19-1.3,1.6-1.97c0.41-0.68,0.62-1.37,0.62-2.08v-0.38
					c0-0.83-0.24-1.5-0.72-2.03c-0.48-0.52-1.2-0.78-2.16-0.78c-0.93,0-1.65,0.23-2.14,0.7c-0.49,0.47-0.85,1.07-1.08,1.82
					l-1.08-0.4c0.13-0.43,0.31-0.83,0.54-1.22s0.52-0.72,0.87-1.02c0.35-0.29,0.77-0.52,1.25-0.69s1.04-0.26,1.68-0.26
					c0.65,0,1.24,0.1,1.75,0.29s0.95,0.46,1.3,0.81c0.35,0.35,0.62,0.76,0.8,1.25s0.27,1.03,0.27,1.63c0,0.51-0.07,0.98-0.2,1.43
					c-0.13,0.45-0.32,0.87-0.56,1.28c-0.24,0.41-0.53,0.8-0.88,1.2c-0.35,0.39-0.73,0.78-1.14,1.17l-4.3,4.09h7.66V487.24z"/>
				<path d="M106.84,487.24v-1.06h4.08v-12.02h-0.1l-3.84,3.42l-0.68-0.76l3.98-3.54h1.84v12.9h3.84v1.06H106.84z"/>
				<path d="M121.62,487.42c-0.33,0-0.58-0.08-0.73-0.25c-0.15-0.17-0.23-0.38-0.23-0.65v-0.22c0-0.27,0.08-0.48,0.23-0.65
					c0.15-0.17,0.4-0.25,0.73-0.25c0.32,0,0.56,0.08,0.72,0.25c0.16,0.17,0.24,0.38,0.24,0.65v0.22c0,0.27-0.08,0.48-0.24,0.65
					S121.94,487.42,121.62,487.42z"/>
				<path d="M136.02,474.34h-6.24l-0.44,5.84l0.12,0.02c0.35-0.49,0.75-0.86,1.22-1.11s1.07-0.37,1.82-0.37
					c0.61,0,1.17,0.1,1.68,0.29c0.51,0.19,0.94,0.47,1.3,0.84c0.36,0.37,0.64,0.81,0.83,1.34c0.19,0.53,0.29,1.12,0.29,1.79
					c0,0.68-0.1,1.3-0.31,1.85s-0.5,1.03-0.89,1.42s-0.86,0.7-1.41,0.91c-0.55,0.21-1.18,0.32-1.87,0.32
					c-0.55,0-1.04-0.06-1.48-0.17c-0.44-0.11-0.83-0.27-1.18-0.47c-0.35-0.2-0.66-0.44-0.93-0.72s-0.52-0.58-0.73-0.9l0.9-0.68
					c0.39,0.6,0.84,1.06,1.35,1.39c0.51,0.33,1.2,0.49,2.07,0.49c1.04,0,1.84-0.29,2.39-0.85c0.55-0.57,0.83-1.34,0.83-2.32v-0.34
					c0-0.97-0.27-1.75-0.81-2.32c-0.54-0.57-1.32-0.85-2.35-0.85c-0.36,0-0.68,0.03-0.96,0.09c-0.28,0.06-0.53,0.15-0.75,0.26
					c-0.22,0.11-0.42,0.25-0.6,0.4c-0.18,0.15-0.36,0.33-0.53,0.53l-1.04-0.16l0.5-7.58h7.22V474.34z"/>
				<path d="M142.04,487.24V477h1.14v1.62h0.06c0.11-0.25,0.24-0.49,0.4-0.71c0.16-0.22,0.35-0.42,0.58-0.59s0.5-0.31,0.81-0.41
					c0.31-0.1,0.68-0.15,1.11-0.15c0.73,0,1.38,0.17,1.94,0.52c0.56,0.35,0.96,0.89,1.22,1.64h0.06c0.19-0.6,0.54-1.11,1.07-1.53
					c0.53-0.42,1.24-0.63,2.15-0.63c1.09,0,1.93,0.34,2.52,1.01c0.59,0.67,0.88,1.64,0.88,2.89v6.58h-1.14v-6.38
					c0-2.05-0.86-3.08-2.58-3.08c-0.36,0-0.7,0.05-1.02,0.14c-0.32,0.09-0.6,0.24-0.85,0.43c-0.25,0.19-0.44,0.43-0.59,0.72
					s-0.22,0.62-0.22,0.99v7.18h-1.14v-6.38c0-2.05-0.85-3.08-2.56-3.08c-0.35,0-0.68,0.05-1.01,0.14s-0.62,0.23-0.87,0.42
					c-0.25,0.19-0.46,0.42-0.6,0.71c-0.15,0.29-0.22,0.62-0.22,0.99v7.2H142.04z"/>
			</g>
		</g>
	</g>
</g>
<g>
	<g>
		<g>
			<path d="M538,330v59H273v-59H538 M539,329H272v61h267V329L539,329z"/>
		</g>
		<g>
			<path d="M362.86,365.24v-1.06h4.08v-12.02h-0.1l-3.84,3.42l-0.68-0.76l3.98-3.54h1.84v12.9h3.84v1.06H362.86z"/>
			<path d="M376.84,365.24v-1.06h4.08v-12.02h-0.1l-3.84,3.42l-0.68-0.76l3.98-3.54h1.84v12.9h3.84v1.06H376.84z"/>
			<path d="M396.8,365.24v-2.92h-6.94v-1.06l6.36-9.98h1.72v10.04h2.16v1h-2.16v2.92H396.8z M390.98,361.32h5.82v-9.02h-0.06
				L390.98,361.32z"/>
			<path d="M409,365.48c-0.76,0-1.43-0.1-2.02-0.3c-0.59-0.2-1.08-0.47-1.49-0.82c-0.41-0.35-0.71-0.76-0.92-1.25
				c-0.21-0.49-0.31-1.02-0.31-1.59c0-0.97,0.27-1.76,0.8-2.35s1.25-0.99,2.14-1.19v-0.14c-0.76-0.21-1.36-0.61-1.81-1.18
				c-0.45-0.57-0.67-1.28-0.67-2.12c0-1.07,0.38-1.92,1.13-2.55s1.8-0.95,3.15-0.95c1.35,0,2.4,0.32,3.15,0.95
				c0.75,0.63,1.13,1.48,1.13,2.55c0,0.84-0.22,1.55-0.67,2.12c-0.45,0.57-1.05,0.97-1.81,1.18v0.14c0.89,0.2,1.61,0.6,2.14,1.19
				s0.8,1.38,0.8,2.35c0,0.57-0.1,1.1-0.31,1.59s-0.51,0.9-0.92,1.25c-0.41,0.35-0.9,0.62-1.49,0.82S409.76,365.48,409,365.48z
				 M409,364.42c1.08,0,1.93-0.25,2.54-0.75s0.92-1.17,0.92-2.02v-0.46c0-0.86-0.31-1.54-0.92-2.03c-0.61-0.49-1.46-0.74-2.54-0.74
				s-1.93,0.25-2.54,0.74c-0.61,0.49-0.92,1.17-0.92,2.03v0.46c0,0.85,0.31,1.53,0.92,2.02S407.92,364.42,409,364.42z M409,357.4
				c0.96,0,1.71-0.22,2.24-0.65s0.8-1.04,0.8-1.82v-0.36c0-0.77-0.27-1.38-0.8-1.81c-0.53-0.44-1.28-0.66-2.24-0.66
				c-0.96,0-1.71,0.22-2.24,0.66c-0.53,0.44-0.8,1.04-0.8,1.81v0.36c0,0.78,0.27,1.39,0.8,1.82S408.04,357.4,409,357.4z"/>
			<path d="M418.84,365.24V355h1.14v1.62h0.06c0.11-0.25,0.24-0.49,0.4-0.71c0.16-0.22,0.35-0.42,0.58-0.59s0.5-0.31,0.81-0.41
				c0.31-0.1,0.68-0.15,1.11-0.15c0.73,0,1.38,0.17,1.94,0.52c0.56,0.35,0.97,0.89,1.22,1.64h0.06c0.19-0.6,0.54-1.11,1.07-1.53
				s1.24-0.63,2.15-0.63c1.09,0,1.93,0.34,2.52,1.01c0.59,0.67,0.88,1.64,0.88,2.89v6.58h-1.14v-6.38c0-2.05-0.86-3.08-2.58-3.08
				c-0.36,0-0.7,0.05-1.02,0.14s-0.6,0.24-0.85,0.43c-0.25,0.19-0.44,0.43-0.59,0.72c-0.15,0.29-0.22,0.62-0.22,0.99v7.18h-1.14
				v-6.38c0-2.05-0.85-3.08-2.56-3.08c-0.35,0-0.68,0.05-1.01,0.14c-0.33,0.09-0.62,0.23-0.87,0.42s-0.45,0.42-0.6,0.71
				c-0.15,0.29-0.22,0.62-0.22,0.99v7.2H418.84z"/>
			<path d="M438.34,365.24V355h1.14v1.62h0.06c0.11-0.25,0.24-0.49,0.4-0.71c0.16-0.22,0.35-0.42,0.58-0.59s0.5-0.31,0.81-0.41
				c0.31-0.1,0.68-0.15,1.11-0.15c0.73,0,1.38,0.17,1.94,0.52c0.56,0.35,0.97,0.89,1.22,1.64h0.06c0.19-0.6,0.54-1.11,1.07-1.53
				s1.24-0.63,2.15-0.63c1.09,0,1.93,0.34,2.52,1.01c0.59,0.67,0.88,1.64,0.88,2.89v6.58h-1.14v-6.38c0-2.05-0.86-3.08-2.58-3.08
				c-0.36,0-0.7,0.05-1.02,0.14s-0.6,0.24-0.85,0.43c-0.25,0.19-0.44,0.43-0.59,0.72c-0.15,0.29-0.22,0.62-0.22,0.99v7.18h-1.14
				v-6.38c0-2.05-0.85-3.08-2.56-3.08c-0.35,0-0.68,0.05-1.01,0.14c-0.33,0.09-0.62,0.23-0.87,0.42s-0.45,0.42-0.6,0.71
				c-0.15,0.29-0.22,0.62-0.22,0.99v7.2H438.34z"/>
		</g>
	</g>
	<g>
		<g>
			<path d="M538,391v59H273v-59H538 M539,390H272v61h267V390L539,390z"/>
		</g>
		<g>
			<path d="M362.86,426.24v-1.06h4.08v-12.02h-0.1l-3.84,3.42l-0.68-0.76l3.98-3.54h1.84v12.9h3.84v1.06H362.86z"/>
			<path d="M385.6,426.24h-8.96v-1.22l4.88-4.68c0.65-0.64,1.19-1.3,1.6-1.97c0.41-0.68,0.62-1.37,0.62-2.08v-0.38
				c0-0.83-0.24-1.5-0.72-2.03s-1.2-0.78-2.16-0.78c-0.93,0-1.65,0.23-2.14,0.7c-0.49,0.47-0.85,1.07-1.08,1.82l-1.08-0.4
				c0.13-0.43,0.31-0.83,0.54-1.22s0.52-0.72,0.87-1.02c0.35-0.29,0.77-0.52,1.25-0.69c0.48-0.17,1.04-0.26,1.68-0.26
				c0.65,0,1.24,0.1,1.75,0.29c0.51,0.19,0.95,0.46,1.3,0.81c0.35,0.35,0.62,0.76,0.8,1.25s0.27,1.03,0.27,1.63
				c0,0.51-0.07,0.98-0.2,1.43c-0.13,0.45-0.32,0.87-0.56,1.28s-0.53,0.8-0.88,1.2c-0.35,0.39-0.73,0.78-1.14,1.17l-4.3,4.09h7.66
				V426.24z"/>
			<path d="M396.8,426.24v-2.92h-6.94v-1.06l6.36-9.98h1.72v10.04h2.16v1h-2.16v2.92H396.8z M390.98,422.32h5.82v-9.02h-0.06
				L390.98,422.32z"/>
			<path d="M409,426.48c-0.76,0-1.43-0.1-2.02-0.3c-0.59-0.2-1.08-0.47-1.49-0.82c-0.41-0.35-0.71-0.76-0.92-1.25
				c-0.21-0.49-0.31-1.02-0.31-1.59c0-0.97,0.27-1.76,0.8-2.35s1.25-0.99,2.14-1.19v-0.14c-0.76-0.21-1.36-0.61-1.81-1.18
				c-0.45-0.57-0.67-1.28-0.67-2.12c0-1.07,0.38-1.92,1.13-2.55s1.8-0.95,3.15-0.95c1.35,0,2.4,0.32,3.15,0.95
				c0.75,0.63,1.13,1.48,1.13,2.55c0,0.84-0.22,1.55-0.67,2.12c-0.45,0.57-1.05,0.97-1.81,1.18v0.14c0.89,0.2,1.61,0.6,2.14,1.19
				s0.8,1.38,0.8,2.35c0,0.57-0.1,1.1-0.31,1.59s-0.51,0.9-0.92,1.25c-0.41,0.35-0.9,0.62-1.49,0.82S409.76,426.48,409,426.48z
				 M409,425.42c1.08,0,1.93-0.25,2.54-0.75s0.92-1.17,0.92-2.02v-0.46c0-0.86-0.31-1.54-0.92-2.03c-0.61-0.49-1.46-0.74-2.54-0.74
				s-1.93,0.25-2.54,0.74c-0.61,0.49-0.92,1.17-0.92,2.03v0.46c0,0.85,0.31,1.53,0.92,2.02S407.92,425.42,409,425.42z M409,418.4
				c0.96,0,1.71-0.22,2.24-0.65s0.8-1.04,0.8-1.82v-0.36c0-0.77-0.27-1.38-0.8-1.81c-0.53-0.44-1.28-0.66-2.24-0.66
				c-0.96,0-1.71,0.22-2.24,0.66c-0.53,0.44-0.8,1.04-0.8,1.81v0.36c0,0.78,0.27,1.39,0.8,1.82S408.04,418.4,409,418.4z"/>
			<path d="M418.84,426.24V416h1.14v1.62h0.06c0.11-0.25,0.24-0.49,0.4-0.71c0.16-0.22,0.35-0.42,0.58-0.59s0.5-0.31,0.81-0.41
				c0.31-0.1,0.68-0.15,1.11-0.15c0.73,0,1.38,0.17,1.94,0.52c0.56,0.35,0.97,0.89,1.22,1.64h0.06c0.19-0.6,0.54-1.11,1.07-1.53
				s1.24-0.63,2.15-0.63c1.09,0,1.93,0.34,2.52,1.01c0.59,0.67,0.88,1.64,0.88,2.89v6.58h-1.14v-6.38c0-2.05-0.86-3.08-2.58-3.08
				c-0.36,0-0.7,0.05-1.02,0.14s-0.6,0.24-0.85,0.43c-0.25,0.19-0.44,0.43-0.59,0.72c-0.15,0.29-0.22,0.62-0.22,0.99v7.18h-1.14
				v-6.38c0-2.05-0.85-3.08-2.56-3.08c-0.35,0-0.68,0.05-1.01,0.14c-0.33,0.09-0.62,0.23-0.87,0.42s-0.45,0.42-0.6,0.71
				c-0.15,0.29-0.22,0.62-0.22,0.99v7.2H418.84z"/>
			<path d="M438.34,426.24V416h1.14v1.62h0.06c0.11-0.25,0.24-0.49,0.4-0.71c0.16-0.22,0.35-0.42,0.58-0.59s0.5-0.31,0.81-0.41
				c0.31-0.1,0.68-0.15,1.11-0.15c0.73,0,1.38,0.17,1.94,0.52c0.56,0.35,0.97,0.89,1.22,1.64h0.06c0.19-0.6,0.54-1.11,1.07-1.53
				s1.24-0.63,2.15-0.63c1.09,0,1.93,0.34,2.52,1.01c0.59,0.67,0.88,1.64,0.88,2.89v6.58h-1.14v-6.38c0-2.05-0.86-3.08-2.58-3.08
				c-0.36,0-0.7,0.05-1.02,0.14s-0.6,0.24-0.85,0.43c-0.25,0.19-0.44,0.43-0.59,0.72c-0.15,0.29-0.22,0.62-0.22,0.99v7.18h-1.14
				v-6.38c0-2.05-0.85-3.08-2.56-3.08c-0.35,0-0.68,0.05-1.01,0.14c-0.33,0.09-0.62,0.23-0.87,0.42s-0.45,0.42-0.6,0.71
				c-0.15,0.29-0.22,0.62-0.22,0.99v7.2H438.34z"/>
		</g>
		<g>
			<g>
				<path d="M538,452v59H273v-59H538 M539,451H272v61h267V451L539,451z"/>
			</g>
			<g>
				<path d="M362.86,487.24v-1.06h4.08v-12.02h-0.1l-3.84,3.42l-0.68-0.76l3.98-3.54h1.84v12.9h3.84v1.06H362.86z"/>
				<path d="M380.4,479.36c0.96,0,1.71-0.23,2.25-0.71c0.54-0.47,0.81-1.09,0.81-1.84v-0.26c0-0.78-0.26-1.39-0.78-1.81
					c-0.52-0.42-1.19-0.64-2-0.64c-0.81,0-1.46,0.16-1.95,0.49c-0.49,0.33-0.88,0.77-1.17,1.33l-0.9-0.64
					c0.16-0.29,0.36-0.58,0.6-0.85c0.24-0.27,0.52-0.52,0.85-0.72s0.7-0.37,1.13-0.49c0.43-0.12,0.91-0.18,1.46-0.18
					c0.57,0,1.11,0.08,1.6,0.24c0.49,0.16,0.92,0.39,1.28,0.69c0.36,0.3,0.64,0.66,0.85,1.1s0.31,0.92,0.31,1.46
					c0,0.94-0.26,1.68-0.78,2.21c-0.52,0.53-1.17,0.89-1.94,1.08v0.08c0.41,0.07,0.8,0.19,1.16,0.37c0.36,0.18,0.68,0.42,0.95,0.71
					c0.27,0.29,0.49,0.65,0.65,1.06c0.16,0.42,0.24,0.88,0.24,1.41c0,0.6-0.11,1.15-0.32,1.66s-0.52,0.93-0.91,1.28
					c-0.39,0.35-0.87,0.62-1.42,0.81c-0.55,0.19-1.17,0.29-1.85,0.29c-1.12,0-2.03-0.21-2.72-0.64s-1.26-0.97-1.7-1.62l0.9-0.68
					c0.39,0.6,0.85,1.06,1.39,1.39c0.54,0.33,1.24,0.49,2.11,0.49c1.01,0,1.81-0.25,2.38-0.76c0.57-0.5,0.86-1.2,0.86-2.08v-0.32
					c0-0.89-0.28-1.58-0.84-2.09c-0.56-0.5-1.36-0.75-2.4-0.75h-1.76v-1.06H380.4z"/>
				<path d="M396.8,487.24v-2.92h-6.94v-1.06l6.36-9.98h1.72v10.04h2.16v1h-2.16v2.92H396.8z M390.98,483.32h5.82v-9.02h-0.06
					L390.98,483.32z"/>
				<path d="M409,487.48c-0.76,0-1.43-0.1-2.02-0.3c-0.59-0.2-1.08-0.47-1.49-0.82c-0.41-0.35-0.71-0.76-0.92-1.25
					c-0.21-0.49-0.31-1.02-0.31-1.59c0-0.97,0.27-1.76,0.8-2.35s1.25-0.99,2.14-1.19v-0.14c-0.76-0.21-1.36-0.61-1.81-1.18
					c-0.45-0.57-0.67-1.28-0.67-2.12c0-1.07,0.38-1.92,1.13-2.55s1.8-0.95,3.15-0.95c1.35,0,2.4,0.32,3.15,0.95
					c0.75,0.63,1.13,1.48,1.13,2.55c0,0.84-0.22,1.55-0.67,2.12c-0.45,0.57-1.05,0.97-1.81,1.18v0.14c0.89,0.2,1.61,0.6,2.14,1.19
					s0.8,1.38,0.8,2.35c0,0.57-0.1,1.1-0.31,1.59s-0.51,0.9-0.92,1.25c-0.41,0.35-0.9,0.62-1.49,0.82S409.76,487.48,409,487.48z
					 M409,486.42c1.08,0,1.93-0.25,2.54-0.75s0.92-1.17,0.92-2.02v-0.46c0-0.86-0.31-1.54-0.92-2.03c-0.61-0.49-1.46-0.74-2.54-0.74
					s-1.93,0.25-2.54,0.74c-0.61,0.49-0.92,1.17-0.92,2.03v0.46c0,0.85,0.31,1.53,0.92,2.02S407.92,486.42,409,486.42z M409,479.4
					c0.96,0,1.71-0.22,2.24-0.65s0.8-1.04,0.8-1.82v-0.36c0-0.77-0.27-1.38-0.8-1.81c-0.53-0.44-1.28-0.66-2.24-0.66
					c-0.96,0-1.71,0.22-2.24,0.66c-0.53,0.44-0.8,1.04-0.8,1.81v0.36c0,0.78,0.27,1.39,0.8,1.82S408.04,479.4,409,479.4z"/>
				<path d="M418.84,487.24V477h1.14v1.62h0.06c0.11-0.25,0.24-0.49,0.4-0.71c0.16-0.22,0.35-0.42,0.58-0.59s0.5-0.31,0.81-0.41
					c0.31-0.1,0.68-0.15,1.11-0.15c0.73,0,1.38,0.17,1.94,0.52c0.56,0.35,0.97,0.89,1.22,1.64h0.06c0.19-0.6,0.54-1.11,1.07-1.53
					s1.24-0.63,2.15-0.63c1.09,0,1.93,0.34,2.52,1.01c0.59,0.67,0.88,1.64,0.88,2.89v6.58h-1.14v-6.38c0-2.05-0.86-3.08-2.58-3.08
					c-0.36,0-0.7,0.05-1.02,0.14s-0.6,0.24-0.85,0.43c-0.25,0.19-0.44,0.43-0.59,0.72c-0.15,0.29-0.22,0.62-0.22,0.99v7.18h-1.14
					v-6.38c0-2.05-0.85-3.08-2.56-3.08c-0.35,0-0.68,0.05-1.01,0.14c-0.33,0.09-0.62,0.23-0.87,0.42s-0.45,0.42-0.6,0.71
					c-0.15,0.29-0.22,0.62-0.22,0.99v7.2H418.84z"/>
				<path d="M438.34,487.24V477h1.14v1.62h0.06c0.11-0.25,0.24-0.49,0.4-0.71c0.16-0.22,0.35-0.42,0.58-0.59s0.5-0.31,0.81-0.41
					c0.31-0.1,0.68-0.15,1.11-0.15c0.73,0,1.38,0.17,1.94,0.52c0.56,0.35,0.97,0.89,1.22,1.64h0.06c0.19-0.6,0.54-1.11,1.07-1.53
					s1.24-0.63,2.15-0.63c1.09,0,1.93,0.34,2.52,1.01c0.59,0.67,0.88,1.64,0.88,2.89v6.58h-1.14v-6.38c0-2.05-0.86-3.08-2.58-3.08
					c-0.36,0-0.7,0.05-1.02,0.14s-0.6,0.24-0.85,0.43c-0.25,0.19-0.44,0.43-0.59,0.72c-0.15,0.29-0.22,0.62-0.22,0.99v7.18h-1.14
					v-6.38c0-2.05-0.85-3.08-2.56-3.08c-0.35,0-0.68,0.05-1.01,0.14c-0.33,0.09-0.62,0.23-0.87,0.42s-0.45,0.42-0.6,0.71
					c-0.15,0.29-0.22,0.62-0.22,0.99v7.2H438.34z"/>
			</g>
		</g>
	</g>
</g>
<g>
	<g>
		<g>
			<path d="M808,330v59H543v-59H808 M809,329H542v61h267V329L809,329z"/>
		</g>
		<g>
			<path d="M637.08,365.48c-0.75,0-1.4-0.12-1.96-0.37c-0.56-0.25-1.03-0.59-1.41-1.04c-0.38-0.45-0.67-0.99-0.86-1.62
				c-0.19-0.63-0.29-1.33-0.29-2.09c0-1.08,0.15-2.08,0.45-3.01c0.3-0.93,0.69-1.77,1.17-2.53s1.03-1.44,1.65-2.03
				c0.62-0.59,1.25-1.1,1.89-1.51h1.58c-0.77,0.53-1.46,1.07-2.06,1.6c-0.6,0.54-1.13,1.1-1.58,1.69s-0.83,1.23-1.13,1.91
				c-0.3,0.68-0.54,1.43-0.71,2.24l0.08,0.02c0.35-0.63,0.8-1.12,1.37-1.49s1.27-0.55,2.11-0.55c0.61,0,1.18,0.1,1.69,0.3
				c0.51,0.2,0.95,0.48,1.32,0.85c0.37,0.37,0.65,0.81,0.85,1.34c0.2,0.53,0.3,1.12,0.3,1.77c0,0.68-0.11,1.3-0.32,1.85
				c-0.21,0.55-0.51,1.03-0.9,1.42c-0.39,0.39-0.85,0.7-1.4,0.92C638.37,365.37,637.76,365.48,637.08,365.48z M637.06,364.42
				c1.01,0,1.81-0.29,2.38-0.87c0.57-0.58,0.86-1.35,0.86-2.32v-0.34c0-0.97-0.28-1.74-0.85-2.31c-0.57-0.57-1.36-0.86-2.39-0.86
				c-1.04,0-1.84,0.29-2.41,0.86c-0.57,0.57-0.85,1.34-0.85,2.31v0.32c0,0.98,0.29,1.77,0.86,2.34
				C635.23,364.13,636.03,364.42,637.06,364.42z"/>
			<path d="M647.64,365.42c-0.33,0-0.58-0.08-0.73-0.25c-0.15-0.17-0.23-0.38-0.23-0.65v-0.22c0-0.27,0.08-0.48,0.23-0.65
				c0.15-0.17,0.4-0.25,0.73-0.25c0.32,0,0.56,0.08,0.72,0.25c0.16,0.17,0.24,0.38,0.24,0.65v0.22c0,0.27-0.08,0.48-0.24,0.65
				S647.96,365.42,647.64,365.42z"/>
			<path d="M658.22,365.48c-3.15,0-4.72-2.41-4.72-7.22s1.57-7.22,4.72-7.22s4.72,2.41,4.72,7.22S661.37,365.48,658.22,365.48z
				 M658.22,364.42c1.17,0,2.04-0.46,2.61-1.39c0.57-0.93,0.85-2.21,0.85-3.83v-1.88c0-1.62-0.28-2.9-0.85-3.83
				c-0.57-0.93-1.44-1.4-2.61-1.4c-1.19,0-2.06,0.46-2.62,1.4c-0.56,0.93-0.84,2.21-0.84,3.83v1.88c0,1.62,0.28,2.9,0.84,3.83
				C656.16,363.96,657.03,364.42,658.22,364.42z"/>
			<path d="M676.76,365.24h-8.96v-1.22l4.88-4.68c0.65-0.64,1.19-1.3,1.6-1.97c0.41-0.68,0.62-1.37,0.62-2.08v-0.38
				c0-0.83-0.24-1.5-0.72-2.03s-1.2-0.78-2.16-0.78c-0.93,0-1.65,0.23-2.14,0.7c-0.49,0.47-0.85,1.07-1.08,1.82l-1.08-0.4
				c0.13-0.43,0.31-0.83,0.54-1.22s0.52-0.72,0.87-1.02c0.35-0.29,0.77-0.52,1.25-0.69c0.48-0.17,1.04-0.26,1.68-0.26
				c0.65,0,1.24,0.1,1.75,0.29c0.51,0.19,0.95,0.46,1.3,0.81c0.35,0.35,0.62,0.76,0.8,1.25s0.27,1.03,0.27,1.63
				c0,0.51-0.07,0.98-0.2,1.43c-0.13,0.45-0.32,0.87-0.56,1.28s-0.53,0.8-0.88,1.2c-0.35,0.39-0.73,0.78-1.14,1.17l-4.3,4.09h7.66
				V365.24z"/>
			<path d="M683.3,365.24c-0.41,0-0.73-0.11-0.94-0.34s-0.32-0.53-0.32-0.9v-13.56h1.14v13.82h1.58v0.98H683.3z"/>
			<path d="M689.3,350.44h1.14v6.2h0.06c0.25-0.57,0.64-1.03,1.16-1.37c0.52-0.34,1.17-0.51,1.96-0.51c1.32,0,2.35,0.47,3.1,1.4
				s1.12,2.25,1.12,3.96c0,1.71-0.38,3.03-1.12,3.96s-1.78,1.4-3.1,1.4c-0.79,0-1.43-0.17-1.94-0.51c-0.51-0.34-0.9-0.8-1.18-1.37
				h-0.06v1.64h-1.14V350.44z M693.36,364.46c1.03,0,1.83-0.33,2.4-0.98c0.57-0.65,0.86-1.53,0.86-2.64v-1.44
				c0-1.11-0.29-1.99-0.86-2.64c-0.57-0.65-1.38-0.98-2.4-0.98c-0.4,0-0.78,0.06-1.13,0.17s-0.66,0.27-0.93,0.47
				s-0.48,0.44-0.63,0.72c-0.15,0.28-0.23,0.59-0.23,0.92v4.06c0,0.36,0.08,0.68,0.23,0.97c0.15,0.29,0.36,0.53,0.63,0.74
				s0.58,0.36,0.93,0.47C692.58,364.41,692.96,364.46,693.36,364.46z"/>
			<path d="M705.66,365.48c-0.89,0-1.66-0.17-2.29-0.5c-0.63-0.33-1.18-0.82-1.65-1.46l0.84-0.66c0.43,0.56,0.89,0.97,1.4,1.24
				c0.51,0.27,1.1,0.4,1.78,0.4c0.79,0,1.39-0.17,1.82-0.5c0.43-0.33,0.64-0.81,0.64-1.44c0-0.55-0.16-0.98-0.49-1.29
				c-0.33-0.31-0.86-0.52-1.61-0.63l-0.84-0.14c-0.47-0.07-0.89-0.17-1.28-0.3c-0.39-0.13-0.72-0.31-0.99-0.54s-0.49-0.5-0.64-0.83
				c-0.15-0.33-0.23-0.72-0.23-1.19c0-0.48,0.09-0.9,0.27-1.26c0.18-0.36,0.42-0.66,0.73-0.9s0.67-0.42,1.1-0.54
				c0.43-0.12,0.89-0.18,1.38-0.18c0.85,0,1.55,0.15,2.1,0.44c0.55,0.29,1.01,0.67,1.4,1.14l-0.76,0.7
				c-0.27-0.32-0.62-0.62-1.07-0.89c-0.45-0.27-1.02-0.41-1.73-0.41c-0.73,0-1.3,0.16-1.71,0.48c-0.41,0.32-0.61,0.77-0.61,1.36
				c0,0.6,0.18,1.03,0.55,1.3c0.37,0.27,0.92,0.46,1.65,0.58l0.82,0.12c1.04,0.16,1.81,0.47,2.31,0.93s0.75,1.1,0.75,1.93
				c0,0.96-0.32,1.71-0.97,2.24S706.79,365.48,705.66,365.48z"/>
		</g>
	</g>
	<g>
		<g>
			<path d="M808,391v59H543v-59H808 M809,390H542v61h267V390L809,390z"/>
		</g>
		<g>
			<path d="M637.08,426.48c-0.75,0-1.4-0.12-1.96-0.37c-0.56-0.25-1.03-0.59-1.41-1.04c-0.38-0.45-0.67-0.99-0.86-1.62
				c-0.19-0.63-0.29-1.33-0.29-2.09c0-1.08,0.15-2.08,0.45-3.01c0.3-0.93,0.69-1.77,1.17-2.53s1.03-1.44,1.65-2.03
				c0.62-0.59,1.25-1.1,1.89-1.51h1.58c-0.77,0.53-1.46,1.07-2.06,1.6c-0.6,0.54-1.13,1.1-1.58,1.69s-0.83,1.23-1.13,1.91
				c-0.3,0.68-0.54,1.43-0.71,2.24l0.08,0.02c0.35-0.63,0.8-1.12,1.37-1.49s1.27-0.55,2.11-0.55c0.61,0,1.18,0.1,1.69,0.3
				c0.51,0.2,0.95,0.48,1.32,0.85c0.37,0.37,0.65,0.81,0.85,1.34c0.2,0.53,0.3,1.12,0.3,1.77c0,0.68-0.11,1.3-0.32,1.85
				c-0.21,0.55-0.51,1.03-0.9,1.42c-0.39,0.39-0.85,0.7-1.4,0.92C638.37,426.37,637.76,426.48,637.08,426.48z M637.06,425.42
				c1.01,0,1.81-0.29,2.38-0.87c0.57-0.58,0.86-1.35,0.86-2.32v-0.34c0-0.97-0.28-1.74-0.85-2.31c-0.57-0.57-1.36-0.86-2.39-0.86
				c-1.04,0-1.84,0.29-2.41,0.86c-0.57,0.57-0.85,1.34-0.85,2.31v0.32c0,0.98,0.29,1.77,0.86,2.34
				C635.23,425.13,636.03,425.42,637.06,425.42z"/>
			<path d="M647.64,426.42c-0.33,0-0.58-0.08-0.73-0.25c-0.15-0.17-0.23-0.38-0.23-0.65v-0.22c0-0.27,0.08-0.48,0.23-0.65
				c0.15-0.17,0.4-0.25,0.73-0.25c0.32,0,0.56,0.08,0.72,0.25c0.16,0.17,0.24,0.38,0.24,0.65v0.22c0,0.27-0.08,0.48-0.24,0.65
				S647.96,426.42,647.64,426.42z"/>
			<path d="M658.24,426.48c-0.75,0-1.4-0.12-1.96-0.37c-0.56-0.25-1.03-0.59-1.41-1.04c-0.38-0.45-0.67-0.99-0.86-1.62
				c-0.19-0.63-0.29-1.33-0.29-2.09c0-1.08,0.15-2.08,0.45-3.01c0.3-0.93,0.69-1.77,1.17-2.53s1.03-1.44,1.65-2.03
				c0.62-0.59,1.25-1.1,1.89-1.51h1.58c-0.77,0.53-1.46,1.07-2.06,1.6c-0.6,0.54-1.13,1.1-1.58,1.69s-0.83,1.23-1.13,1.91
				c-0.3,0.68-0.54,1.43-0.71,2.24l0.08,0.02c0.35-0.63,0.8-1.12,1.37-1.49s1.27-0.55,2.11-0.55c0.61,0,1.18,0.1,1.69,0.3
				c0.51,0.2,0.95,0.48,1.32,0.85c0.37,0.37,0.65,0.81,0.85,1.34c0.2,0.53,0.3,1.12,0.3,1.77c0,0.68-0.11,1.3-0.32,1.85
				c-0.21,0.55-0.51,1.03-0.9,1.42c-0.39,0.39-0.85,0.7-1.4,0.92C659.53,426.37,658.92,426.48,658.24,426.48z M658.22,425.42
				c1.01,0,1.81-0.29,2.38-0.87c0.57-0.58,0.86-1.35,0.86-2.32v-0.34c0-0.97-0.28-1.74-0.85-2.31c-0.57-0.57-1.36-0.86-2.39-0.86
				c-1.04,0-1.84,0.29-2.41,0.86c-0.57,0.57-0.85,1.34-0.85,2.31v0.32c0,0.98,0.29,1.77,0.86,2.34
				C656.39,425.13,657.19,425.42,658.22,425.42z"/>
			<path d="M671.56,418.36c0.96,0,1.71-0.23,2.25-0.71c0.54-0.47,0.81-1.09,0.81-1.84v-0.26c0-0.78-0.26-1.39-0.78-1.81
				c-0.52-0.42-1.19-0.64-2-0.64c-0.81,0-1.46,0.16-1.95,0.49c-0.49,0.33-0.88,0.77-1.17,1.33l-0.9-0.64
				c0.16-0.29,0.36-0.58,0.6-0.85c0.24-0.27,0.52-0.52,0.85-0.72s0.7-0.37,1.13-0.49c0.43-0.12,0.91-0.18,1.46-0.18
				c0.57,0,1.11,0.08,1.6,0.24c0.49,0.16,0.92,0.39,1.28,0.69c0.36,0.3,0.64,0.66,0.85,1.1s0.31,0.92,0.31,1.46
				c0,0.94-0.26,1.68-0.78,2.21c-0.52,0.53-1.17,0.89-1.94,1.08v0.08c0.41,0.07,0.8,0.19,1.16,0.37c0.36,0.18,0.68,0.42,0.95,0.71
				c0.27,0.29,0.49,0.65,0.65,1.06c0.16,0.42,0.24,0.88,0.24,1.41c0,0.6-0.11,1.15-0.32,1.66s-0.52,0.93-0.91,1.28
				c-0.39,0.35-0.87,0.62-1.42,0.81c-0.55,0.19-1.17,0.29-1.85,0.29c-1.12,0-2.03-0.21-2.72-0.64s-1.26-0.97-1.7-1.62l0.9-0.68
				c0.39,0.6,0.85,1.06,1.39,1.39c0.54,0.33,1.24,0.49,2.11,0.49c1.01,0,1.81-0.25,2.38-0.76c0.57-0.5,0.86-1.2,0.86-2.08v-0.32
				c0-0.89-0.28-1.58-0.84-2.09c-0.56-0.5-1.36-0.75-2.4-0.75h-1.76v-1.06H671.56z"/>
			<path d="M683.3,426.24c-0.41,0-0.73-0.11-0.94-0.34s-0.32-0.53-0.32-0.9v-13.56h1.14v13.82h1.58v0.98H683.3z"/>
			<path d="M689.3,411.44h1.14v6.2h0.06c0.25-0.57,0.64-1.03,1.16-1.37c0.52-0.34,1.17-0.51,1.96-0.51c1.32,0,2.35,0.47,3.1,1.4
				s1.12,2.25,1.12,3.96c0,1.71-0.38,3.03-1.12,3.96s-1.78,1.4-3.1,1.4c-0.79,0-1.43-0.17-1.94-0.51c-0.51-0.34-0.9-0.8-1.18-1.37
				h-0.06v1.64h-1.14V411.44z M693.36,425.46c1.03,0,1.83-0.33,2.4-0.98c0.57-0.65,0.86-1.53,0.86-2.64v-1.44
				c0-1.11-0.29-1.99-0.86-2.64c-0.57-0.65-1.38-0.98-2.4-0.98c-0.4,0-0.78,0.06-1.13,0.17s-0.66,0.27-0.93,0.47
				s-0.48,0.44-0.63,0.72c-0.15,0.28-0.23,0.59-0.23,0.92v4.06c0,0.36,0.08,0.68,0.23,0.97c0.15,0.29,0.36,0.53,0.63,0.74
				s0.58,0.36,0.93,0.47C692.58,425.41,692.96,425.46,693.36,425.46z"/>
			<path d="M705.66,426.48c-0.89,0-1.66-0.17-2.29-0.5c-0.63-0.33-1.18-0.82-1.65-1.46l0.84-0.66c0.43,0.56,0.89,0.97,1.4,1.24
				c0.51,0.27,1.1,0.4,1.78,0.4c0.79,0,1.39-0.17,1.82-0.5c0.43-0.33,0.64-0.81,0.64-1.44c0-0.55-0.16-0.98-0.49-1.29
				c-0.33-0.31-0.86-0.52-1.61-0.63l-0.84-0.14c-0.47-0.07-0.89-0.17-1.28-0.3c-0.39-0.13-0.72-0.31-0.99-0.54s-0.49-0.5-0.64-0.83
				c-0.15-0.33-0.23-0.72-0.23-1.19c0-0.48,0.09-0.9,0.27-1.26c0.18-0.36,0.42-0.66,0.73-0.9s0.67-0.42,1.1-0.54
				c0.43-0.12,0.89-0.18,1.38-0.18c0.85,0,1.55,0.15,2.1,0.44c0.55,0.29,1.01,0.67,1.4,1.14l-0.76,0.7
				c-0.27-0.32-0.62-0.62-1.07-0.89c-0.45-0.27-1.02-0.41-1.73-0.41c-0.73,0-1.3,0.16-1.71,0.48c-0.41,0.32-0.61,0.77-0.61,1.36
				c0,0.6,0.18,1.03,0.55,1.3c0.37,0.27,0.92,0.46,1.65,0.58l0.82,0.12c1.04,0.16,1.81,0.47,2.31,0.93s0.75,1.1,0.75,1.93
				c0,0.96-0.32,1.71-0.97,2.24S706.79,426.48,705.66,426.48z"/>
		</g>
		<g>
			<g>
				<path d="M808,452v59H543v-59H808 M809,451H542v61h267V451L809,451z"/>
			</g>
			<g>
				<path d="M634.66,487.24l5.6-12.9h-6.68v2.88h-1.08v-3.94h8.98v1.08l-5.54,12.88H634.66z"/>
				<path d="M647.64,487.42c-0.33,0-0.58-0.08-0.73-0.25c-0.15-0.17-0.23-0.38-0.23-0.65v-0.22c0-0.27,0.08-0.48,0.23-0.65
					c0.15-0.17,0.4-0.25,0.73-0.25c0.32,0,0.56,0.08,0.72,0.25c0.16,0.17,0.24,0.38,0.24,0.65v0.22c0,0.27-0.08,0.48-0.24,0.65
					S647.96,487.42,647.64,487.42z"/>
				<path d="M662.78,487.24h-8.96v-1.22l4.88-4.68c0.65-0.64,1.19-1.3,1.6-1.97c0.41-0.68,0.62-1.37,0.62-2.08v-0.38
					c0-0.83-0.24-1.5-0.72-2.03c-0.48-0.52-1.2-0.78-2.16-0.78c-0.93,0-1.65,0.23-2.14,0.7c-0.49,0.47-0.85,1.07-1.08,1.82
					l-1.08-0.4c0.13-0.43,0.31-0.83,0.54-1.22s0.52-0.72,0.87-1.02c0.35-0.29,0.77-0.52,1.25-0.69s1.04-0.26,1.68-0.26
					c0.65,0,1.24,0.1,1.75,0.29s0.95,0.46,1.3,0.81c0.35,0.35,0.62,0.76,0.8,1.25s0.27,1.03,0.27,1.63c0,0.51-0.07,0.98-0.2,1.43
					c-0.13,0.45-0.32,0.87-0.56,1.28c-0.24,0.41-0.53,0.8-0.88,1.2c-0.35,0.39-0.73,0.78-1.14,1.17l-4.3,4.09h7.66V487.24z"/>
				<path d="M672.22,487.48c-0.75,0-1.4-0.12-1.96-0.37s-1.03-0.59-1.41-1.04s-0.67-0.99-0.86-1.62c-0.19-0.63-0.29-1.33-0.29-2.09
					c0-1.08,0.15-2.08,0.45-3.01c0.3-0.93,0.69-1.77,1.17-2.53c0.48-0.76,1.03-1.44,1.65-2.03c0.62-0.59,1.25-1.1,1.89-1.51h1.58
					c-0.77,0.53-1.46,1.07-2.06,1.6c-0.6,0.54-1.13,1.1-1.58,1.69s-0.83,1.23-1.13,1.91c-0.3,0.68-0.54,1.43-0.71,2.24l0.08,0.02
					c0.35-0.63,0.8-1.12,1.37-1.49s1.27-0.55,2.11-0.55c0.61,0,1.18,0.1,1.69,0.3c0.51,0.2,0.95,0.48,1.32,0.85s0.65,0.81,0.85,1.34
					c0.2,0.53,0.3,1.12,0.3,1.77c0,0.68-0.11,1.3-0.32,1.85c-0.21,0.55-0.51,1.03-0.9,1.42c-0.39,0.39-0.85,0.7-1.4,0.92
					C673.51,487.37,672.9,487.48,672.22,487.48z M672.2,486.42c1.01,0,1.81-0.29,2.38-0.87c0.57-0.58,0.86-1.35,0.86-2.32v-0.34
					c0-0.97-0.28-1.74-0.85-2.31c-0.57-0.57-1.36-0.86-2.39-0.86c-1.04,0-1.84,0.29-2.41,0.86c-0.57,0.57-0.85,1.34-0.85,2.31v0.32
					c0,0.98,0.29,1.77,0.86,2.34C670.37,486.13,671.17,486.42,672.2,486.42z"/>
				<path d="M683.3,487.24c-0.41,0-0.73-0.11-0.94-0.34s-0.32-0.53-0.32-0.9v-13.56h1.14v13.82h1.58v0.98H683.3z"/>
				<path d="M689.3,472.44h1.14v6.2h0.06c0.25-0.57,0.64-1.03,1.16-1.37c0.52-0.34,1.17-0.51,1.96-0.51c1.32,0,2.35,0.47,3.1,1.4
					s1.12,2.25,1.12,3.96c0,1.71-0.38,3.03-1.12,3.96s-1.78,1.4-3.1,1.4c-0.79,0-1.43-0.17-1.94-0.51c-0.51-0.34-0.9-0.8-1.18-1.37
					h-0.06v1.64h-1.14V472.44z M693.36,486.46c1.03,0,1.83-0.33,2.4-0.98c0.57-0.65,0.86-1.53,0.86-2.64v-1.44
					c0-1.11-0.29-1.99-0.86-2.64c-0.57-0.65-1.38-0.98-2.4-0.98c-0.4,0-0.78,0.06-1.13,0.17s-0.66,0.27-0.93,0.47
					s-0.48,0.44-0.63,0.72c-0.15,0.28-0.23,0.59-0.23,0.92v4.06c0,0.36,0.08,0.68,0.23,0.97c0.15,0.29,0.36,0.53,0.63,0.74
					s0.58,0.36,0.93,0.47C692.58,486.41,692.96,486.46,693.36,486.46z"/>
				<path d="M705.66,487.48c-0.89,0-1.66-0.17-2.29-0.5c-0.63-0.33-1.18-0.82-1.65-1.46l0.84-0.66c0.43,0.56,0.89,0.97,1.4,1.24
					c0.51,0.27,1.1,0.4,1.78,0.4c0.79,0,1.39-0.17,1.82-0.5c0.43-0.33,0.64-0.81,0.64-1.44c0-0.55-0.16-0.98-0.49-1.29
					c-0.33-0.31-0.86-0.52-1.61-0.63l-0.84-0.14c-0.47-0.07-0.89-0.17-1.28-0.3c-0.39-0.13-0.72-0.31-0.99-0.54s-0.49-0.5-0.64-0.83
					c-0.15-0.33-0.23-0.72-0.23-1.19c0-0.48,0.09-0.9,0.27-1.26c0.18-0.36,0.42-0.66,0.73-0.9s0.67-0.42,1.1-0.54
					c0.43-0.12,0.89-0.18,1.38-0.18c0.85,0,1.55,0.15,2.1,0.44c0.55,0.29,1.01,0.67,1.4,1.14l-0.76,0.7
					c-0.27-0.32-0.62-0.62-1.07-0.89c-0.45-0.27-1.02-0.41-1.73-0.41c-0.73,0-1.3,0.16-1.71,0.48c-0.41,0.32-0.61,0.77-0.61,1.36
					c0,0.6,0.18,1.03,0.55,1.3c0.37,0.27,0.92,0.46,1.65,0.58l0.82,0.12c1.04,0.16,1.81,0.47,2.31,0.93s0.75,1.1,0.75,1.93
					c0,0.96-0.32,1.71-0.97,2.24S706.79,487.48,705.66,487.48z"/>
			</g>
		</g>
	</g>
</g>
<g>
	<g>
		<g>
			<path d="M1079,330v59H814v-59H1079 M1080,329H813v61h267V329L1080,329z"/>
		</g>
		<g>
			<path d="M903.54,359.76v-1.22h4.98v1.22H903.54z"/>
			<path d="M921.8,352.34h-6.24l-0.44,5.84l0.12,0.02c0.35-0.49,0.75-0.86,1.22-1.11c0.46-0.25,1.07-0.37,1.82-0.37
				c0.61,0,1.17,0.1,1.68,0.29c0.51,0.19,0.94,0.47,1.3,0.84s0.64,0.81,0.83,1.34c0.19,0.53,0.29,1.12,0.29,1.79
				c0,0.68-0.1,1.3-0.31,1.85s-0.5,1.03-0.89,1.42s-0.86,0.7-1.41,0.91s-1.18,0.32-1.87,0.32c-0.55,0-1.04-0.06-1.48-0.17
				s-0.83-0.27-1.18-0.47c-0.35-0.2-0.66-0.44-0.93-0.72s-0.52-0.58-0.73-0.9l0.9-0.68c0.39,0.6,0.84,1.06,1.35,1.39
				s1.2,0.49,2.07,0.49c1.04,0,1.84-0.29,2.39-0.85c0.55-0.57,0.83-1.34,0.83-2.32v-0.34c0-0.97-0.27-1.75-0.81-2.32
				c-0.54-0.57-1.32-0.85-2.35-0.85c-0.36,0-0.68,0.03-0.96,0.09s-0.53,0.15-0.75,0.26s-0.42,0.25-0.6,0.4
				c-0.18,0.15-0.36,0.33-0.53,0.53l-1.04-0.16l0.5-7.58h7.22V352.34z"/>
			<path d="M931.42,365.48c-1.41,0-2.5-0.47-3.27-1.4c-0.77-0.93-1.15-2.25-1.15-3.96c0-1.71,0.38-3.03,1.15-3.96
				c0.77-0.93,1.86-1.4,3.27-1.4c0.95,0,1.71,0.21,2.3,0.62c0.59,0.41,1.03,0.96,1.34,1.64l-0.96,0.48
				c-0.24-0.56-0.58-0.99-1.01-1.28c-0.43-0.29-0.99-0.44-1.67-0.44c-1.04,0-1.83,0.33-2.38,1c-0.55,0.67-0.82,1.54-0.82,2.62v1.44
				c0,1.08,0.27,1.95,0.82,2.62c0.55,0.67,1.34,1,2.38,1c0.71,0,1.3-0.15,1.78-0.46s0.87-0.75,1.16-1.32l0.84,0.56
				c-0.33,0.68-0.81,1.22-1.43,1.63S932.37,365.48,931.42,365.48z"/>
			<path d="M939.72,365.24V355h1.14v1.62h0.06c0.11-0.25,0.24-0.49,0.4-0.71c0.16-0.22,0.35-0.42,0.58-0.59s0.5-0.31,0.81-0.41
				c0.31-0.1,0.68-0.15,1.11-0.15c0.73,0,1.38,0.17,1.94,0.52c0.56,0.35,0.96,0.89,1.22,1.64h0.06c0.19-0.6,0.54-1.11,1.07-1.53
				c0.53-0.42,1.24-0.63,2.15-0.63c1.09,0,1.93,0.34,2.52,1.01c0.59,0.67,0.88,1.64,0.88,2.89v6.58h-1.14v-6.38
				c0-2.05-0.86-3.08-2.58-3.08c-0.36,0-0.7,0.05-1.02,0.14c-0.32,0.09-0.6,0.24-0.85,0.43c-0.25,0.19-0.44,0.43-0.59,0.72
				s-0.22,0.62-0.22,0.99v7.18h-1.14v-6.38c0-2.05-0.85-3.08-2.56-3.08c-0.35,0-0.68,0.05-1.01,0.14s-0.62,0.23-0.87,0.42
				c-0.25,0.19-0.46,0.42-0.6,0.71c-0.15,0.29-0.22,0.62-0.22,0.99v7.2H939.72z"/>
		</g>
	</g>
	<g>
		<g>
			<path d="M1079,391v59H814v-59H1079 M1080,390H813v61h267V390L1080,390z"/>
		</g>
		<g>
			<path d="M903.54,420.76v-1.22h4.98v1.22H903.54z"/>
			<path d="M921.8,413.34h-6.24l-0.44,5.84l0.12,0.02c0.35-0.49,0.75-0.86,1.22-1.11c0.46-0.25,1.07-0.37,1.82-0.37
				c0.61,0,1.17,0.1,1.68,0.29c0.51,0.19,0.94,0.47,1.3,0.84s0.64,0.81,0.83,1.34c0.19,0.53,0.29,1.12,0.29,1.79
				c0,0.68-0.1,1.3-0.31,1.85s-0.5,1.03-0.89,1.42s-0.86,0.7-1.41,0.91s-1.18,0.32-1.87,0.32c-0.55,0-1.04-0.06-1.48-0.17
				s-0.83-0.27-1.18-0.47c-0.35-0.2-0.66-0.44-0.93-0.72s-0.52-0.58-0.73-0.9l0.9-0.68c0.39,0.6,0.84,1.06,1.35,1.39
				s1.2,0.49,2.07,0.49c1.04,0,1.84-0.29,2.39-0.85c0.55-0.57,0.83-1.34,0.83-2.32v-0.34c0-0.97-0.27-1.75-0.81-2.32
				c-0.54-0.57-1.32-0.85-2.35-0.85c-0.36,0-0.68,0.03-0.96,0.09s-0.53,0.15-0.75,0.26s-0.42,0.25-0.6,0.4
				c-0.18,0.15-0.36,0.33-0.53,0.53l-1.04-0.16l0.5-7.58h7.22V413.34z"/>
			<path d="M931.42,426.48c-1.41,0-2.5-0.47-3.27-1.4c-0.77-0.93-1.15-2.25-1.15-3.96c0-1.71,0.38-3.03,1.15-3.96
				c0.77-0.93,1.86-1.4,3.27-1.4c0.95,0,1.71,0.21,2.3,0.62c0.59,0.41,1.03,0.96,1.34,1.64l-0.96,0.48
				c-0.24-0.56-0.58-0.99-1.01-1.28c-0.43-0.29-0.99-0.44-1.67-0.44c-1.04,0-1.83,0.33-2.38,1c-0.55,0.67-0.82,1.54-0.82,2.62v1.44
				c0,1.08,0.27,1.95,0.82,2.62c0.55,0.67,1.34,1,2.38,1c0.71,0,1.3-0.15,1.78-0.46s0.87-0.75,1.16-1.32l0.84,0.56
				c-0.33,0.68-0.81,1.22-1.43,1.63S932.37,426.48,931.42,426.48z"/>
			<path d="M939.72,426.24V416h1.14v1.62h0.06c0.11-0.25,0.24-0.49,0.4-0.71c0.16-0.22,0.35-0.42,0.58-0.59s0.5-0.31,0.81-0.41
				c0.31-0.1,0.68-0.15,1.11-0.15c0.73,0,1.38,0.17,1.94,0.52c0.56,0.35,0.96,0.89,1.22,1.64h0.06c0.19-0.6,0.54-1.11,1.07-1.53
				c0.53-0.42,1.24-0.63,2.15-0.63c1.09,0,1.93,0.34,2.52,1.01c0.59,0.67,0.88,1.64,0.88,2.89v6.58h-1.14v-6.38
				c0-2.05-0.86-3.08-2.58-3.08c-0.36,0-0.7,0.05-1.02,0.14c-0.32,0.09-0.6,0.24-0.85,0.43c-0.25,0.19-0.44,0.43-0.59,0.72
				s-0.22,0.62-0.22,0.99v7.18h-1.14v-6.38c0-2.05-0.85-3.08-2.56-3.08c-0.35,0-0.68,0.05-1.01,0.14s-0.62,0.23-0.87,0.42
				c-0.25,0.19-0.46,0.42-0.6,0.71c-0.15,0.29-0.22,0.62-0.22,0.99v7.2H939.72z"/>
		</g>
		<g>
			<g>
				<path d="M1079,452v59H814v-59H1079 M1080,451H813v61h267V451L1080,451z"/>
			</g>
			<g>
				<path d="M903.54,481.76v-1.22h4.98v1.22H903.54z"/>
				<path d="M921.8,474.34h-6.24l-0.44,5.84l0.12,0.02c0.35-0.49,0.75-0.86,1.22-1.11c0.46-0.25,1.07-0.37,1.82-0.37
					c0.61,0,1.17,0.1,1.68,0.29c0.51,0.19,0.94,0.47,1.3,0.84s0.64,0.81,0.83,1.34c0.19,0.53,0.29,1.12,0.29,1.79
					c0,0.68-0.1,1.3-0.31,1.85s-0.5,1.03-0.89,1.42s-0.86,0.7-1.41,0.91s-1.18,0.32-1.87,0.32c-0.55,0-1.04-0.06-1.48-0.17
					s-0.83-0.27-1.18-0.47c-0.35-0.2-0.66-0.44-0.93-0.72s-0.52-0.58-0.73-0.9l0.9-0.68c0.39,0.6,0.84,1.06,1.35,1.39
					s1.2,0.49,2.07,0.49c1.04,0,1.84-0.29,2.39-0.85c0.55-0.57,0.83-1.34,0.83-2.32v-0.34c0-0.97-0.27-1.75-0.81-2.32
					c-0.54-0.57-1.32-0.85-2.35-0.85c-0.36,0-0.68,0.03-0.96,0.09s-0.53,0.15-0.75,0.26s-0.42,0.25-0.6,0.4
					c-0.18,0.15-0.36,0.33-0.53,0.53l-1.04-0.16l0.5-7.58h7.22V474.34z"/>
				<path d="M931.42,487.48c-1.41,0-2.5-0.47-3.27-1.4c-0.77-0.93-1.15-2.25-1.15-3.96c0-1.71,0.38-3.03,1.15-3.96
					c0.77-0.93,1.86-1.4,3.27-1.4c0.95,0,1.71,0.21,2.3,0.62c0.59,0.41,1.03,0.96,1.34,1.64l-0.96,0.48
					c-0.24-0.56-0.58-0.99-1.01-1.28c-0.43-0.29-0.99-0.44-1.67-0.44c-1.04,0-1.83,0.33-2.38,1c-0.55,0.67-0.82,1.54-0.82,2.62v1.44
					c0,1.08,0.27,1.95,0.82,2.62c0.55,0.67,1.34,1,2.38,1c0.71,0,1.3-0.15,1.78-0.46s0.87-0.75,1.16-1.32l0.84,0.56
					c-0.33,0.68-0.81,1.22-1.43,1.63S932.37,487.48,931.42,487.48z"/>
				<path d="M939.72,487.24V477h1.14v1.62h0.06c0.11-0.25,0.24-0.49,0.4-0.71c0.16-0.22,0.35-0.42,0.58-0.59s0.5-0.31,0.81-0.41
					c0.31-0.1,0.68-0.15,1.11-0.15c0.73,0,1.38,0.17,1.94,0.52c0.56,0.35,0.96,0.89,1.22,1.64h0.06c0.19-0.6,0.54-1.11,1.07-1.53
					c0.53-0.42,1.24-0.63,2.15-0.63c1.09,0,1.93,0.34,2.52,1.01c0.59,0.67,0.88,1.64,0.88,2.89v6.58h-1.14v-6.38
					c0-2.05-0.86-3.08-2.58-3.08c-0.36,0-0.7,0.05-1.02,0.14c-0.32,0.09-0.6,0.24-0.85,0.43c-0.25,0.19-0.44,0.43-0.59,0.72
					s-0.22,0.62-0.22,0.99v7.18h-1.14v-6.38c0-2.05-0.85-3.08-2.56-3.08c-0.35,0-0.68,0.05-1.01,0.14s-0.62,0.23-0.87,0.42
					c-0.25,0.19-0.46,0.42-0.6,0.71c-0.15,0.29-0.22,0.62-0.22,0.99v7.2H939.72z"/>
			</g>
		</g>
	</g>
</g>
<g>
	<g>
		<g>
			<path d="M1078,70v59H813V70H1078 M1079,69H812v61h267V69L1079,69z"/>
		</g>
		<g>
			<path d="M911.56,96.16c0,1.08-0.15,2.08-0.45,3.01c-0.3,0.93-0.69,1.77-1.17,2.53c-0.48,0.76-1.03,1.44-1.65,2.03
				c-0.62,0.59-1.25,1.1-1.89,1.51h-1.56c0.77-0.53,1.46-1.07,2.06-1.6s1.12-1.1,1.57-1.69c0.45-0.59,0.82-1.23,1.12-1.9
				c0.3-0.67,0.54-1.42,0.71-2.25l-0.08-0.02c-0.35,0.63-0.8,1.12-1.37,1.49s-1.27,0.55-2.11,0.55c-0.61,0-1.18-0.1-1.69-0.3
				c-0.51-0.2-0.96-0.48-1.32-0.85c-0.37-0.37-0.65-0.81-0.85-1.34c-0.2-0.53-0.3-1.12-0.3-1.77c0-0.68,0.11-1.3,0.32-1.85
				c0.21-0.55,0.51-1.03,0.9-1.42c0.39-0.39,0.86-0.7,1.41-0.92c0.55-0.22,1.17-0.33,1.85-0.33c0.73,0,1.38,0.12,1.94,0.37
				s1.03,0.59,1.41,1.04c0.38,0.45,0.67,0.99,0.86,1.62S911.56,95.4,911.56,96.16z M907.08,98.8c1.03,0,1.82-0.29,2.39-0.86
				c0.57-0.57,0.85-1.34,0.85-2.31v-0.32c0-0.98-0.29-1.77-0.86-2.34c-0.57-0.58-1.37-0.87-2.38-0.87c-1.03,0-1.83,0.29-2.4,0.87
				c-0.57,0.58-0.86,1.35-0.86,2.32v0.34c0,0.97,0.28,1.74,0.85,2.31C905.24,98.51,906.04,98.8,907.08,98.8z"/>
			<path d="M916.84,105.24v-1.06h4.08V92.16h-0.1l-3.84,3.42l-0.68-0.76l3.98-3.54h1.84v12.9h3.84v1.06H916.84z"/>
			<path d="M937.58,105.24V95h1.14v1.62h0.06c0.11-0.25,0.24-0.49,0.4-0.71c0.16-0.22,0.35-0.42,0.58-0.59s0.5-0.31,0.81-0.41
				c0.31-0.1,0.68-0.15,1.11-0.15c0.73,0,1.38,0.17,1.94,0.52c0.56,0.35,0.97,0.89,1.22,1.64h0.06c0.19-0.6,0.54-1.11,1.07-1.53
				s1.24-0.63,2.15-0.63c1.09,0,1.93,0.34,2.52,1.01c0.59,0.67,0.88,1.64,0.88,2.89v6.58h-1.14v-6.38c0-2.05-0.86-3.08-2.58-3.08
				c-0.36,0-0.7,0.05-1.02,0.14s-0.6,0.24-0.85,0.43c-0.25,0.19-0.44,0.43-0.59,0.72c-0.15,0.29-0.22,0.62-0.22,0.99v7.18h-1.14
				v-6.38c0-2.05-0.85-3.08-2.56-3.08c-0.35,0-0.68,0.05-1.01,0.14c-0.33,0.09-0.62,0.23-0.87,0.42s-0.45,0.42-0.6,0.71
				c-0.15,0.29-0.22,0.62-0.22,0.99v7.2H937.58z"/>
			<path d="M957.08,105.24V95h1.14v1.62h0.06c0.11-0.25,0.24-0.49,0.4-0.71c0.16-0.22,0.35-0.42,0.58-0.59s0.5-0.31,0.81-0.41
				c0.31-0.1,0.68-0.15,1.11-0.15c0.73,0,1.38,0.17,1.94,0.52c0.56,0.35,0.97,0.89,1.22,1.64h0.06c0.19-0.6,0.54-1.11,1.07-1.53
				s1.24-0.63,2.15-0.63c1.09,0,1.93,0.34,2.52,1.01c0.59,0.67,0.88,1.64,0.88,2.89v6.58h-1.14v-6.38c0-2.05-0.86-3.08-2.58-3.08
				c-0.36,0-0.7,0.05-1.02,0.14s-0.6,0.24-0.85,0.43c-0.25,0.19-0.44,0.43-0.59,0.72c-0.15,0.29-0.22,0.62-0.22,0.99v7.18h-1.14
				v-6.38c0-2.05-0.85-3.08-2.56-3.08c-0.35,0-0.68,0.05-1.01,0.14c-0.33,0.09-0.62,0.23-0.87,0.42s-0.45,0.42-0.6,0.71
				c-0.15,0.29-0.22,0.62-0.22,0.99v7.2H957.08z"/>
		</g>
	</g>
	<g>
		<g>
			<path d="M1078,131v59H813v-59H1078 M1079,130H812v61h267V130L1079,130z"/>
		</g>
		<g>
			<path d="M911.56,157.16c0,1.08-0.15,2.08-0.45,3.01c-0.3,0.93-0.69,1.77-1.17,2.53c-0.48,0.76-1.03,1.44-1.65,2.03
				c-0.62,0.59-1.25,1.1-1.89,1.51h-1.56c0.77-0.53,1.46-1.07,2.06-1.6s1.12-1.1,1.57-1.69c0.45-0.59,0.82-1.23,1.12-1.9
				c0.3-0.67,0.54-1.42,0.71-2.25l-0.08-0.02c-0.35,0.63-0.8,1.12-1.37,1.49s-1.27,0.55-2.11,0.55c-0.61,0-1.18-0.1-1.69-0.3
				c-0.51-0.2-0.96-0.48-1.32-0.85c-0.37-0.37-0.65-0.81-0.85-1.34c-0.2-0.53-0.3-1.12-0.3-1.77c0-0.68,0.11-1.3,0.32-1.85
				c0.21-0.55,0.51-1.03,0.9-1.42c0.39-0.39,0.86-0.7,1.41-0.92c0.55-0.22,1.17-0.33,1.85-0.33c0.73,0,1.38,0.12,1.94,0.37
				s1.03,0.59,1.41,1.04c0.38,0.45,0.67,0.99,0.86,1.62S911.56,156.4,911.56,157.16z M907.08,159.8c1.03,0,1.82-0.29,2.39-0.86
				c0.57-0.57,0.85-1.34,0.85-2.31v-0.32c0-0.98-0.29-1.77-0.86-2.34c-0.57-0.58-1.37-0.87-2.38-0.87c-1.03,0-1.83,0.29-2.4,0.87
				c-0.57,0.58-0.86,1.35-0.86,2.32v0.34c0,0.97,0.28,1.74,0.85,2.31C905.24,159.51,906.04,159.8,907.08,159.8z"/>
			<path d="M924.86,153.34h-6.24l-0.44,5.84l0.12,0.02c0.35-0.49,0.75-0.86,1.22-1.11s1.07-0.37,1.82-0.37
				c0.61,0,1.17,0.1,1.68,0.29c0.51,0.19,0.94,0.47,1.3,0.84c0.36,0.37,0.64,0.81,0.83,1.34c0.19,0.53,0.29,1.12,0.29,1.79
				c0,0.68-0.1,1.3-0.31,1.85s-0.5,1.03-0.89,1.42s-0.86,0.7-1.41,0.91c-0.55,0.21-1.18,0.32-1.87,0.32c-0.55,0-1.04-0.06-1.48-0.17
				c-0.44-0.11-0.83-0.27-1.18-0.47c-0.35-0.2-0.66-0.44-0.93-0.72s-0.52-0.58-0.73-0.9l0.9-0.68c0.39,0.6,0.84,1.06,1.35,1.39
				c0.51,0.33,1.2,0.49,2.07,0.49c1.04,0,1.84-0.29,2.39-0.85c0.55-0.57,0.83-1.34,0.83-2.32v-0.34c0-0.97-0.27-1.75-0.81-2.32
				c-0.54-0.57-1.32-0.85-2.35-0.85c-0.36,0-0.68,0.03-0.96,0.09c-0.28,0.06-0.53,0.15-0.75,0.26c-0.22,0.11-0.42,0.25-0.6,0.4
				c-0.18,0.15-0.36,0.33-0.53,0.53l-1.04-0.16l0.5-7.58h7.22V153.34z"/>
			<path d="M937.58,166.24V156h1.14v1.62h0.06c0.11-0.25,0.24-0.49,0.4-0.71c0.16-0.22,0.35-0.42,0.58-0.59s0.5-0.31,0.81-0.41
				c0.31-0.1,0.68-0.15,1.11-0.15c0.73,0,1.38,0.17,1.94,0.52c0.56,0.35,0.97,0.89,1.22,1.64h0.06c0.19-0.6,0.54-1.11,1.07-1.53
				s1.24-0.63,2.15-0.63c1.09,0,1.93,0.34,2.52,1.01c0.59,0.67,0.88,1.64,0.88,2.89v6.58h-1.14v-6.38c0-2.05-0.86-3.08-2.58-3.08
				c-0.36,0-0.7,0.05-1.02,0.14s-0.6,0.24-0.85,0.43c-0.25,0.19-0.44,0.43-0.59,0.72c-0.15,0.29-0.22,0.62-0.22,0.99v7.18h-1.14
				v-6.38c0-2.05-0.85-3.08-2.56-3.08c-0.35,0-0.68,0.05-1.01,0.14c-0.33,0.09-0.62,0.23-0.87,0.42s-0.45,0.42-0.6,0.71
				c-0.15,0.29-0.22,0.62-0.22,0.99v7.2H937.58z"/>
			<path d="M957.08,166.24V156h1.14v1.62h0.06c0.11-0.25,0.24-0.49,0.4-0.71c0.16-0.22,0.35-0.42,0.58-0.59s0.5-0.31,0.81-0.41
				c0.31-0.1,0.68-0.15,1.11-0.15c0.73,0,1.38,0.17,1.94,0.52c0.56,0.35,0.97,0.89,1.22,1.64h0.06c0.19-0.6,0.54-1.11,1.07-1.53
				s1.24-0.63,2.15-0.63c1.09,0,1.93,0.34,2.52,1.01c0.59,0.67,0.88,1.64,0.88,2.89v6.58h-1.14v-6.38c0-2.05-0.86-3.08-2.58-3.08
				c-0.36,0-0.7,0.05-1.02,0.14s-0.6,0.24-0.85,0.43c-0.25,0.19-0.44,0.43-0.59,0.72c-0.15,0.29-0.22,0.62-0.22,0.99v7.18h-1.14
				v-6.38c0-2.05-0.85-3.08-2.56-3.08c-0.35,0-0.68,0.05-1.01,0.14c-0.33,0.09-0.62,0.23-0.87,0.42s-0.45,0.42-0.6,0.71
				c-0.15,0.29-0.22,0.62-0.22,0.99v7.2H957.08z"/>
		</g>
		<g>
			<g>
				<path d="M1078,192v59H813v-59H1078 M1079,191H812v61h267V191L1079,191z"/>
			</g>
			<g>
				<path d="M911.56,218.16c0,1.08-0.15,2.08-0.45,3.01c-0.3,0.93-0.69,1.77-1.17,2.53c-0.48,0.76-1.03,1.44-1.65,2.03
					c-0.62,0.59-1.25,1.1-1.89,1.51h-1.56c0.77-0.53,1.46-1.07,2.06-1.6s1.12-1.1,1.57-1.69c0.45-0.59,0.82-1.23,1.12-1.9
					c0.3-0.67,0.54-1.42,0.71-2.25l-0.08-0.02c-0.35,0.63-0.8,1.12-1.37,1.49s-1.27,0.55-2.11,0.55c-0.61,0-1.18-0.1-1.69-0.3
					c-0.51-0.2-0.96-0.48-1.32-0.85c-0.37-0.37-0.65-0.81-0.85-1.34c-0.2-0.53-0.3-1.12-0.3-1.77c0-0.68,0.11-1.3,0.32-1.85
					c0.21-0.55,0.51-1.03,0.9-1.42c0.39-0.39,0.86-0.7,1.41-0.92c0.55-0.22,1.17-0.33,1.85-0.33c0.73,0,1.38,0.12,1.94,0.37
					s1.03,0.59,1.41,1.04c0.38,0.45,0.67,0.99,0.86,1.62S911.56,217.4,911.56,218.16z M907.08,220.8c1.03,0,1.82-0.29,2.39-0.86
					c0.57-0.57,0.85-1.34,0.85-2.31v-0.32c0-0.98-0.29-1.77-0.86-2.34c-0.57-0.58-1.37-0.87-2.38-0.87c-1.03,0-1.83,0.29-2.4,0.87
					c-0.57,0.58-0.86,1.35-0.86,2.32v0.34c0,0.97,0.28,1.74,0.85,2.31C905.24,220.51,906.04,220.8,907.08,220.8z"/>
				<path d="M925.54,218.16c0,1.08-0.15,2.08-0.45,3.01c-0.3,0.93-0.69,1.77-1.17,2.53s-1.03,1.44-1.65,2.03
					c-0.62,0.59-1.25,1.1-1.89,1.51h-1.56c0.77-0.53,1.46-1.07,2.06-1.6c0.6-0.53,1.12-1.1,1.57-1.69c0.45-0.59,0.82-1.23,1.12-1.9
					c0.3-0.67,0.54-1.42,0.71-2.25l-0.08-0.02c-0.35,0.63-0.8,1.12-1.37,1.49c-0.57,0.37-1.27,0.55-2.11,0.55
					c-0.61,0-1.18-0.1-1.69-0.3c-0.51-0.2-0.95-0.48-1.32-0.85s-0.65-0.81-0.85-1.34s-0.3-1.12-0.3-1.77c0-0.68,0.11-1.3,0.32-1.85
					c0.21-0.55,0.51-1.03,0.9-1.42c0.39-0.39,0.86-0.7,1.41-0.92c0.55-0.22,1.17-0.33,1.85-0.33c0.73,0,1.38,0.12,1.94,0.37
					c0.56,0.25,1.03,0.59,1.41,1.04c0.38,0.45,0.67,0.99,0.86,1.62S925.54,217.4,925.54,218.16z M921.06,220.8
					c1.03,0,1.82-0.29,2.39-0.86c0.57-0.57,0.85-1.34,0.85-2.31v-0.32c0-0.98-0.29-1.77-0.86-2.34c-0.57-0.58-1.37-0.87-2.38-0.87
					c-1.03,0-1.83,0.29-2.4,0.87c-0.57,0.58-0.86,1.35-0.86,2.32v0.34c0,0.97,0.28,1.74,0.85,2.31
					C919.22,220.51,920.02,220.8,921.06,220.8z"/>
				<path d="M937.58,227.24V217h1.14v1.62h0.06c0.11-0.25,0.24-0.49,0.4-0.71c0.16-0.22,0.35-0.42,0.58-0.59s0.5-0.31,0.81-0.41
					c0.31-0.1,0.68-0.15,1.11-0.15c0.73,0,1.38,0.17,1.94,0.52c0.56,0.35,0.97,0.89,1.22,1.64h0.06c0.19-0.6,0.54-1.11,1.07-1.53
					s1.24-0.63,2.15-0.63c1.09,0,1.93,0.34,2.52,1.01c0.59,0.67,0.88,1.64,0.88,2.89v6.58h-1.14v-6.38c0-2.05-0.86-3.08-2.58-3.08
					c-0.36,0-0.7,0.05-1.02,0.14s-0.6,0.24-0.85,0.43c-0.25,0.19-0.44,0.43-0.59,0.72c-0.15,0.29-0.22,0.62-0.22,0.99v7.18h-1.14
					v-6.38c0-2.05-0.85-3.08-2.56-3.08c-0.35,0-0.68,0.05-1.01,0.14c-0.33,0.09-0.62,0.23-0.87,0.42s-0.45,0.42-0.6,0.71
					c-0.15,0.29-0.22,0.62-0.22,0.99v7.2H937.58z"/>
				<path d="M957.08,227.24V217h1.14v1.62h0.06c0.11-0.25,0.24-0.49,0.4-0.71c0.16-0.22,0.35-0.42,0.58-0.59s0.5-0.31,0.81-0.41
					c0.31-0.1,0.68-0.15,1.11-0.15c0.73,0,1.38,0.17,1.94,0.52c0.56,0.35,0.97,0.89,1.22,1.64h0.06c0.19-0.6,0.54-1.11,1.07-1.53
					s1.24-0.63,2.15-0.63c1.09,0,1.93,0.34,2.52,1.01c0.59,0.67,0.88,1.64,0.88,2.89v6.58h-1.14v-6.38c0-2.05-0.86-3.08-2.58-3.08
					c-0.36,0-0.7,0.05-1.02,0.14s-0.6,0.24-0.85,0.43c-0.25,0.19-0.44,0.43-0.59,0.72c-0.15,0.29-0.22,0.62-0.22,0.99v7.18h-1.14
					v-6.38c0-2.05-0.85-3.08-2.56-3.08c-0.35,0-0.68,0.05-1.01,0.14c-0.33,0.09-0.62,0.23-0.87,0.42s-0.45,0.42-0.6,0.71
					c-0.15,0.29-0.22,0.62-0.22,0.99v7.2H957.08z"/>
			</g>
		</g>
	</g>
</g>
</svg>
