<!-- Generator: Adobe Illustrator 23.1.1, SVG Export Plug-In  -->
<svg version="1.1" xmlns="http://www.w3.org/2000/svg" xmlns:xlink="http://www.w3.org/1999/xlink" x="0px" y="0px"
	 width="100.02px" height="10.92px" viewBox="0 0 100.02 10.92" style="enable-background:new 0 0 100.02 10.92;"
	 xml:space="preserve">
<style type="text/css">
	.st0{fill:#FFFFFF;}
</style>
<defs>
</defs>
<g>
	<path class="st0" d="M5.42,8.52H0.05V7.79l2.93-2.81C3.37,4.59,3.69,4.2,3.94,3.79c0.25-0.41,0.37-0.82,0.37-1.25V2.32
		c0-0.5-0.14-0.9-0.43-1.22s-0.72-0.47-1.3-0.47c-0.56,0-0.99,0.14-1.28,0.42C1,1.34,0.78,1.7,0.65,2.15L0,1.91
		c0.08-0.26,0.19-0.5,0.32-0.73c0.14-0.23,0.31-0.43,0.52-0.61C1.06,0.39,1.31,0.26,1.6,0.15C1.88,0.05,2.22,0,2.6,0
		C3,0,3.35,0.06,3.65,0.17s0.57,0.28,0.78,0.49c0.21,0.21,0.37,0.46,0.48,0.75C5.02,1.7,5.08,2.03,5.08,2.39
		c0,0.3-0.04,0.59-0.12,0.86C4.88,3.51,4.76,3.77,4.62,4.01C4.48,4.25,4.3,4.49,4.09,4.73S3.66,5.2,3.41,5.43L0.83,7.88h4.6V8.52z"
		/>
	<path class="st0" d="M14.58,8.52v-3.4l-2.89-4.98h0.82l2.42,4.22h0.04l2.42-4.22h0.82l-2.9,4.94v3.43H14.58z"/>
	<path class="st0" d="M22.32,8.66c-0.41,0-0.78-0.07-1.11-0.22c-0.33-0.14-0.62-0.35-0.85-0.63c-0.24-0.28-0.42-0.61-0.54-1.01
		s-0.19-0.85-0.19-1.36c0-0.5,0.06-0.95,0.19-1.35s0.3-0.73,0.54-1.01c0.24-0.28,0.52-0.49,0.85-0.64s0.7-0.22,1.1-0.22
		c0.39,0,0.75,0.07,1.07,0.22c0.32,0.15,0.59,0.36,0.82,0.62c0.22,0.27,0.4,0.58,0.52,0.96c0.12,0.37,0.19,0.78,0.19,1.23v0.32
		h-4.55v0.3c0,0.32,0.05,0.61,0.14,0.88s0.22,0.5,0.4,0.69c0.17,0.19,0.38,0.34,0.63,0.45s0.53,0.16,0.84,0.16
		c0.9,0,1.52-0.41,1.86-1.24l0.5,0.33c-0.19,0.45-0.49,0.81-0.91,1.08C23.4,8.53,22.9,8.66,22.32,8.66z M22.31,2.82
		c-0.3,0-0.56,0.05-0.8,0.16c-0.24,0.11-0.45,0.26-0.62,0.45s-0.3,0.42-0.4,0.69S20.35,4.68,20.35,5v0.06h3.8v-0.1
		c0-0.32-0.04-0.61-0.13-0.88c-0.09-0.27-0.21-0.49-0.38-0.68c-0.16-0.18-0.36-0.33-0.59-0.43S22.58,2.82,22.31,2.82z"/>
	<path class="st0" d="M32.05,8.52c-0.26,0-0.46-0.07-0.58-0.2c-0.12-0.14-0.19-0.32-0.2-0.55V7.55h-0.06
		c-0.14,0.34-0.36,0.62-0.67,0.82c-0.31,0.2-0.71,0.3-1.19,0.3c-0.65,0-1.15-0.16-1.5-0.48c-0.35-0.32-0.53-0.76-0.53-1.34
		c0-0.55,0.19-0.98,0.58-1.3c0.39-0.32,1.03-0.48,1.91-0.48h1.42V4.34c0-1.02-0.52-1.52-1.57-1.52c-0.41,0-0.75,0.09-1.02,0.26
		s-0.49,0.42-0.66,0.74l-0.43-0.36c0.17-0.36,0.43-0.65,0.77-0.88c0.35-0.23,0.8-0.35,1.36-0.35c0.72,0,1.27,0.18,1.66,0.54
		c0.38,0.36,0.58,0.87,0.58,1.52v3.64h0.83v0.59H32.05z M29.45,8.08c0.25,0,0.48-0.03,0.7-0.1c0.22-0.06,0.41-0.15,0.57-0.27
		s0.29-0.26,0.38-0.42c0.09-0.16,0.14-0.35,0.14-0.56V5.58H29.8c-0.62,0-1.06,0.1-1.34,0.3s-0.41,0.47-0.41,0.81v0.29
		c0,0.36,0.13,0.63,0.38,0.82C28.68,7.98,29.02,8.08,29.45,8.08z"/>
	<path class="st0" d="M35.34,8.52V2.38h0.68v1.1h0.05c0.12-0.29,0.32-0.54,0.61-0.77c0.29-0.22,0.7-0.34,1.22-0.34h0.41v0.67h-0.54
		c-0.51,0-0.93,0.11-1.26,0.34c-0.33,0.22-0.49,0.54-0.49,0.94v4.2H35.34z"/>
	<path class="st0" d="M46.12,8.52L44,0.14h0.77l1.79,7.49h0.04l1.98-7.49h0.88l1.96,7.49h0.04l1.85-7.49h0.74l-2.18,8.38h-0.84
		l-2-7.57h-0.02l-2.03,7.57H46.12z"/>
	<path class="st0" d="M60.73,8.52c-0.26,0-0.46-0.07-0.58-0.2c-0.12-0.14-0.19-0.32-0.2-0.55V7.55h-0.06
		c-0.14,0.34-0.36,0.62-0.67,0.82c-0.31,0.2-0.71,0.3-1.19,0.3c-0.65,0-1.15-0.16-1.5-0.48C56.18,7.87,56,7.42,56,6.85
		c0-0.55,0.19-0.98,0.58-1.3c0.39-0.32,1.03-0.48,1.91-0.48h1.42V4.34c0-1.02-0.52-1.52-1.57-1.52c-0.41,0-0.75,0.09-1.02,0.26
		s-0.49,0.42-0.66,0.74l-0.43-0.36C56.4,3.1,56.66,2.81,57,2.58c0.35-0.23,0.8-0.35,1.36-0.35c0.72,0,1.27,0.18,1.66,0.54
		c0.38,0.36,0.58,0.87,0.58,1.52v3.64h0.83v0.59H60.73z M58.13,8.08c0.25,0,0.48-0.03,0.7-0.1c0.22-0.06,0.41-0.15,0.57-0.27
		s0.29-0.26,0.38-0.42c0.09-0.16,0.14-0.35,0.14-0.56V5.58h-1.44c-0.62,0-1.06,0.1-1.34,0.3s-0.41,0.47-0.41,0.81v0.29
		c0,0.36,0.13,0.63,0.38,0.82C57.36,7.98,57.7,8.08,58.13,8.08z"/>
	<path class="st0" d="M64.02,8.52V2.38h0.68v1.1h0.05c0.12-0.29,0.32-0.54,0.61-0.77c0.29-0.22,0.7-0.34,1.22-0.34h0.41v0.67h-0.54
		c-0.51,0-0.93,0.11-1.26,0.34c-0.33,0.22-0.49,0.54-0.49,0.94v4.2H64.02z"/>
	<path class="st0" d="M69.49,8.52V2.38h0.68v1.1h0.05c0.12-0.29,0.32-0.54,0.61-0.77c0.29-0.22,0.7-0.34,1.22-0.34h0.41v0.67h-0.54
		c-0.51,0-0.93,0.11-1.26,0.34c-0.33,0.22-0.49,0.54-0.49,0.94v4.2H69.49z"/>
	<path class="st0" d="M79.16,8.52c-0.26,0-0.46-0.07-0.58-0.2C78.47,8.18,78.4,8,78.38,7.76V7.55h-0.06
		c-0.14,0.34-0.36,0.62-0.67,0.82c-0.31,0.2-0.71,0.3-1.19,0.3c-0.65,0-1.15-0.16-1.5-0.48c-0.35-0.32-0.53-0.76-0.53-1.34
		c0-0.55,0.19-0.98,0.58-1.3c0.39-0.32,1.03-0.48,1.91-0.48h1.42V4.34c0-1.02-0.52-1.52-1.57-1.52c-0.41,0-0.75,0.09-1.02,0.26
		S75.26,3.5,75.1,3.82l-0.43-0.36c0.17-0.36,0.43-0.65,0.77-0.88c0.35-0.23,0.8-0.35,1.36-0.35c0.72,0,1.27,0.18,1.66,0.54
		c0.38,0.36,0.58,0.87,0.58,1.52v3.64h0.83v0.59H79.16z M76.56,8.08c0.25,0,0.48-0.03,0.7-0.1c0.22-0.06,0.41-0.15,0.57-0.27
		s0.29-0.26,0.38-0.42c0.09-0.16,0.14-0.35,0.14-0.56V5.58h-1.44c-0.62,0-1.06,0.1-1.34,0.3s-0.41,0.47-0.41,0.81v0.29
		c0,0.36,0.13,0.63,0.38,0.82C75.8,7.98,76.14,8.08,76.56,8.08z"/>
	<path class="st0" d="M82.45,8.52V2.38h0.68v0.97h0.04c0.14-0.32,0.35-0.59,0.64-0.8c0.29-0.21,0.68-0.32,1.18-0.32
		c0.66,0,1.17,0.2,1.53,0.61c0.36,0.4,0.55,0.98,0.55,1.73v3.95h-0.68V4.69c0-0.62-0.13-1.09-0.4-1.39C85.71,3,85.31,2.84,84.8,2.84
		c-0.22,0-0.42,0.03-0.62,0.08c-0.2,0.06-0.38,0.14-0.53,0.25c-0.16,0.11-0.28,0.25-0.37,0.43c-0.09,0.17-0.14,0.37-0.14,0.59v4.32
		H82.45z"/>
	<path class="st0" d="M91.45,8.52c-0.25,0-0.44-0.07-0.56-0.2c-0.13-0.14-0.19-0.32-0.19-0.55v-4.8h-1.07V2.38h0.7
		c0.17,0,0.28-0.03,0.34-0.1c0.06-0.07,0.09-0.19,0.09-0.37V0.66h0.62v1.72h1.39v0.59h-1.39v4.97h1.3v0.59H91.45z"/>
	<path class="st0" d="M99.32,2.38h0.7l-2.84,7.87c-0.1,0.26-0.21,0.43-0.35,0.53c-0.14,0.1-0.36,0.14-0.67,0.14h-0.7v-0.59h1.03
		l0.59-1.62L94.8,2.38h0.72L97.4,7.8h0.05L99.32,2.38z"/>
</g>
</svg>
