<!-- Generator: Adobe Illustrator 23.1.1, SVG Export Plug-In  -->
<svg version="1.1" xmlns="http://www.w3.org/2000/svg" xmlns:xlink="http://www.w3.org/1999/xlink" x="0px" y="0px" width="99.55px"
	 height="8.66px" viewBox="0 0 99.55 8.66" style="enable-background:new 0 0 99.55 8.66;" xml:space="preserve">
<defs>
</defs>
<g>
	<path d="M5.84,8.52l-0.6-1.99h-2.8l-0.6,1.99H0l2.76-8.38h2.26l2.72,8.38H5.84z M3.86,1.8H3.8L2.88,4.98H4.8L3.86,1.8z"/>
	<path d="M10.09,0.14h4.07c0.7,0,1.24,0.2,1.63,0.59c0.39,0.39,0.58,0.91,0.58,1.56c0,0.32-0.04,0.59-0.13,0.82
		c-0.08,0.22-0.2,0.41-0.34,0.55c-0.14,0.14-0.3,0.25-0.49,0.32s-0.39,0.11-0.61,0.11v0.07c0.2,0,0.41,0.04,0.63,0.11
		c0.22,0.07,0.42,0.19,0.61,0.34c0.18,0.16,0.34,0.36,0.46,0.61s0.19,0.55,0.19,0.91c0,0.33-0.05,0.64-0.16,0.93
		c-0.11,0.29-0.26,0.55-0.45,0.76s-0.42,0.39-0.68,0.51s-0.55,0.19-0.86,0.19h-4.44V0.14z M11.92,3.58h1.81
		c0.24,0,0.43-0.07,0.56-0.2c0.14-0.14,0.2-0.32,0.2-0.56V2.45c0-0.24-0.07-0.43-0.2-0.56c-0.14-0.14-0.32-0.2-0.56-0.2h-1.81V3.58z
		 M11.92,6.98h2.1c0.24,0,0.43-0.07,0.57-0.2c0.14-0.13,0.21-0.32,0.21-0.56V5.82c0-0.24-0.07-0.43-0.21-0.56s-0.33-0.2-0.57-0.2
		h-2.1V6.98z"/>
	<path d="M22,8.66c-0.74,0-1.36-0.13-1.87-0.38c-0.51-0.25-0.95-0.58-1.31-0.98l1.2-1.21c0.57,0.63,1.27,0.95,2.1,0.95
		c0.45,0,0.78-0.09,1-0.27c0.22-0.18,0.32-0.42,0.32-0.73c0-0.23-0.06-0.42-0.19-0.58s-0.39-0.26-0.78-0.32l-0.83-0.11
		c-0.89-0.11-1.54-0.38-1.95-0.8c-0.41-0.42-0.62-0.99-0.62-1.69c0-0.38,0.07-0.72,0.22-1.03s0.35-0.58,0.62-0.81
		c0.27-0.22,0.6-0.4,0.98-0.52S21.72,0,22.21,0c0.63,0,1.19,0.1,1.67,0.3s0.89,0.49,1.24,0.88L23.9,2.4
		c-0.2-0.23-0.44-0.42-0.73-0.56c-0.28-0.15-0.64-0.22-1.07-0.22c-0.41,0-0.71,0.07-0.91,0.21c-0.2,0.14-0.3,0.34-0.3,0.59
		c0,0.29,0.08,0.49,0.23,0.62c0.16,0.13,0.41,0.22,0.76,0.27l0.83,0.13c0.86,0.14,1.5,0.4,1.92,0.8s0.62,0.96,0.62,1.69
		c0,0.4-0.07,0.77-0.22,1.11c-0.14,0.34-0.35,0.62-0.63,0.87c-0.28,0.24-0.62,0.43-1.03,0.56C22.98,8.6,22.52,8.66,22,8.66z"/>
	<path d="M34.69,8.66c-0.74,0-1.36-0.13-1.87-0.38c-0.51-0.25-0.95-0.58-1.31-0.98l1.2-1.21c0.57,0.63,1.27,0.95,2.1,0.95
		c0.45,0,0.78-0.09,1-0.27c0.22-0.18,0.32-0.42,0.32-0.73c0-0.23-0.06-0.42-0.19-0.58s-0.39-0.26-0.78-0.32l-0.83-0.11
		c-0.89-0.11-1.54-0.38-1.95-0.8c-0.41-0.42-0.62-0.99-0.62-1.69c0-0.38,0.07-0.72,0.22-1.03s0.35-0.58,0.62-0.81
		c0.27-0.22,0.6-0.4,0.98-0.52S34.41,0,34.91,0c0.63,0,1.19,0.1,1.67,0.3s0.89,0.49,1.24,0.88L36.6,2.4
		c-0.2-0.23-0.44-0.42-0.73-0.56c-0.28-0.15-0.64-0.22-1.07-0.22c-0.41,0-0.71,0.07-0.91,0.21c-0.2,0.14-0.3,0.34-0.3,0.59
		c0,0.29,0.08,0.49,0.23,0.62c0.16,0.13,0.41,0.22,0.76,0.27l0.83,0.13c0.86,0.14,1.5,0.4,1.92,0.8s0.62,0.96,0.62,1.69
		c0,0.4-0.07,0.77-0.22,1.11c-0.14,0.34-0.35,0.62-0.63,0.87c-0.28,0.24-0.62,0.43-1.03,0.56C35.68,8.6,35.21,8.66,34.69,8.66z"/>
	<path d="M40.33,8.52V7.07h1.08V1.6h-1.08V0.14h3.98V1.6h-1.08v5.47h1.08v1.45H40.33z"/>
	<path d="M47.03,0.14h3.16c0.55,0,1.06,0.09,1.51,0.26c0.46,0.18,0.84,0.44,1.16,0.79c0.32,0.35,0.57,0.78,0.74,1.31
		c0.18,0.52,0.26,1.13,0.26,1.83c0,0.7-0.09,1.31-0.26,1.83c-0.18,0.52-0.42,0.96-0.74,1.31c-0.32,0.35-0.71,0.61-1.16,0.79
		c-0.46,0.18-0.96,0.26-1.51,0.26h-3.16V0.14z M50.18,6.9c0.54,0,0.97-0.15,1.28-0.46c0.31-0.3,0.47-0.79,0.47-1.46v-1.3
		c0-0.67-0.16-1.16-0.47-1.46s-0.74-0.46-1.28-0.46h-1.33V6.9H50.18z"/>
	<path d="M56.58,8.52V0.14h5.7v1.62H58.4v1.7h3.32v1.62H58.4V6.9h3.88v1.62H56.58z"/>
	<path d="M66.37,8.52l-1.9-8.38h1.8l0.79,4.02l0.44,2.33h0.04l0.53-2.33L69,0.14h1.99l0.94,4.02l0.52,2.33h0.04l0.44-2.33l0.8-4.02
		h1.73l-1.94,8.38h-2.08l-1.06-4.54l-0.41-1.84h-0.04l-0.42,1.84l-1.06,4.54H66.37z"/>
	<path d="M82.74,8.52l-0.6-1.99h-2.8l-0.6,1.99H76.9l2.76-8.38h2.26l2.72,8.38H82.74z M80.76,1.8H80.7l-0.92,3.18h1.92L80.76,1.8z"
		/>
	<path d="M86.99,8.52V0.14h1.82V6.9H92v1.62H86.99z"/>
	<path d="M94.53,8.52V0.14h1.82V6.9h3.19v1.62H94.53z"/>
</g>
</svg>
