<!-- Generator: Adobe Illustrator 23.1.1, SVG Export Plug-In  -->
<svg version="1.1" xmlns="http://www.w3.org/2000/svg" xmlns:xlink="http://www.w3.org/1999/xlink" x="0px" y="0px"
	 width="207.74px" height="8.66px" viewBox="0 0 207.74 8.66" style="enable-background:new 0 0 207.74 8.66;" xml:space="preserve"
	>
<style type="text/css">
	.st0{fill:url(#SVGID_1_);}
	.st1{fill:url(#SVGID_2_);}
	.st2{fill:url(#SVGID_3_);}
	.st3{fill:url(#SVGID_4_);}
	.st4{fill:url(#SVGID_5_);}
	.st5{fill:url(#SVGID_6_);}
	.st6{fill:url(#SVGID_7_);}
	.st7{fill:url(#SVGID_8_);}
	.st8{fill:url(#SVGID_9_);}
	.st9{fill:url(#SVGID_10_);}
	.st10{fill:url(#SVGID_11_);}
	.st11{fill:url(#SVGID_12_);}
	.st12{fill:url(#SVGID_13_);}
	.st13{fill:url(#SVGID_14_);}
	.st14{fill:url(#SVGID_15_);}
	.st15{fill:url(#SVGID_16_);}
	.st16{fill:url(#SVGID_17_);}
	.st17{fill:url(#SVGID_18_);}
	.st18{fill:url(#SVGID_19_);}
	.st19{fill:url(#SVGID_20_);}
	.st20{fill:url(#SVGID_21_);}
	.st21{fill:url(#SVGID_22_);}
	.st22{fill:url(#SVGID_23_);}
	.st23{fill:url(#SVGID_24_);}
	.st24{fill:url(#SVGID_25_);}
	.st25{fill:url(#SVGID_26_);}
	.st26{fill:url(#SVGID_27_);}
	.st27{fill:url(#SVGID_28_);}
	.st28{fill:url(#SVGID_29_);}
	.st29{fill:url(#SVGID_30_);}
	.st30{fill:url(#SVGID_31_);}
	.st31{fill:url(#SVGID_32_);}
	.st32{fill:url(#SVGID_33_);}
	.st33{fill:url(#SVGID_34_);}
	.st34{fill:url(#SVGID_35_);}
	.st35{fill:url(#SVGID_36_);}
	.st36{fill:url(#SVGID_37_);}
	.st37{fill:url(#SVGID_38_);}
	.st38{fill:url(#SVGID_39_);}
	.st39{fill:url(#SVGID_40_);}
	.st40{fill:url(#SVGID_41_);}
	.st41{fill:url(#SVGID_42_);}
	.st42{fill:url(#SVGID_43_);}
	.st43{fill:url(#SVGID_44_);}
</style>
<defs>
</defs>
<g>
	<linearGradient id="SVGID_1_" gradientUnits="userSpaceOnUse" x1="0" y1="4.3315" x2="6.3599" y2="4.3315">
		<stop  offset="0" style="stop-color:#AB5184"/>
		<stop  offset="1" style="stop-color:#776B9D"/>
	</linearGradient>
	<path class="st0" d="M4.09,1.76v6.76H2.27V1.76H0V0.14h6.36v1.62H4.09z"/>
	<linearGradient id="SVGID_2_" gradientUnits="userSpaceOnUse" x1="8.7954" y1="4.3315" x2="15.4194" y2="4.3315">
		<stop  offset="0" style="stop-color:#AB5184"/>
		<stop  offset="1" style="stop-color:#776B9D"/>
	</linearGradient>
	<path class="st1" d="M10.62,8.52H8.8V0.14h3.97c0.38,0,0.73,0.06,1.04,0.19s0.58,0.31,0.8,0.55C14.83,1.12,15,1.4,15.12,1.73
		s0.18,0.69,0.18,1.09c0,0.57-0.13,1.06-0.38,1.49s-0.63,0.73-1.15,0.92l1.64,3.29h-2.03l-1.46-3.07h-1.31V8.52z M12.54,3.91
		c0.27,0,0.49-0.07,0.64-0.21c0.16-0.14,0.23-0.35,0.23-0.62V2.56c0-0.27-0.08-0.48-0.23-0.62c-0.16-0.14-0.37-0.21-0.64-0.21h-1.92
		v2.18H12.54z"/>
	<linearGradient id="SVGID_3_" gradientUnits="userSpaceOnUse" x1="17.7476" y1="4.3315" x2="21.7314" y2="4.3315">
		<stop  offset="0" style="stop-color:#AB5184"/>
		<stop  offset="1" style="stop-color:#776B9D"/>
	</linearGradient>
	<path class="st2" d="M17.75,8.52V7.07h1.08V1.6h-1.08V0.14h3.98V1.6h-1.08v5.47h1.08v1.45H17.75z"/>
	<linearGradient id="SVGID_4_" gradientUnits="userSpaceOnUse" x1="24.4434" y1="4.3315" x2="30.9478" y2="4.3315">
		<stop  offset="0" style="stop-color:#AB5184"/>
		<stop  offset="1" style="stop-color:#776B9D"/>
	</linearGradient>
	<path class="st3" d="M24.44,8.52V0.14h3.96c0.39,0,0.74,0.07,1.06,0.2s0.58,0.31,0.8,0.55c0.22,0.23,0.39,0.51,0.51,0.85
		s0.18,0.69,0.18,1.09c0,0.4-0.06,0.76-0.18,1.09c-0.12,0.33-0.29,0.61-0.51,0.84c-0.22,0.23-0.49,0.41-0.8,0.55S28.8,5.5,28.4,5.5
		h-2.14v3.02H24.44z M26.27,3.91h1.92c0.27,0,0.49-0.07,0.64-0.21c0.16-0.14,0.23-0.35,0.23-0.62V2.56c0-0.27-0.08-0.48-0.23-0.62
		c-0.16-0.14-0.37-0.21-0.64-0.21h-1.92V3.91z"/>
	<linearGradient id="SVGID_5_" gradientUnits="userSpaceOnUse" x1="33.5034" y1="4.3315" x2="38.5195" y2="4.3315">
		<stop  offset="0" style="stop-color:#AB5184"/>
		<stop  offset="1" style="stop-color:#776B9D"/>
	</linearGradient>
	<path class="st4" d="M33.5,8.52V0.14h1.82V6.9h3.19v1.62H33.5z"/>
	<linearGradient id="SVGID_6_" gradientUnits="userSpaceOnUse" x1="41.0513" y1="4.3315" x2="46.7515" y2="4.3315">
		<stop  offset="0" style="stop-color:#AB5184"/>
		<stop  offset="1" style="stop-color:#776B9D"/>
	</linearGradient>
	<path class="st5" d="M41.05,8.52V0.14h5.7v1.62h-3.88v1.7h3.32v1.62h-3.32V6.9h3.88v1.62H41.05z"/>
	<linearGradient id="SVGID_7_" gradientUnits="userSpaceOnUse" x1="53.2192" y1="4.3315" x2="60.083" y2="4.3315">
		<stop  offset="0" style="stop-color:#AB5184"/>
		<stop  offset="1" style="stop-color:#776B9D"/>
	</linearGradient>
	<path class="st6" d="M56.93,8.66c-0.57,0-1.08-0.09-1.54-0.27s-0.84-0.45-1.16-0.8c-0.32-0.36-0.57-0.8-0.74-1.33
		c-0.18-0.53-0.26-1.15-0.26-1.87c0-0.7,0.09-1.33,0.26-1.88c0.18-0.55,0.42-1.01,0.74-1.38s0.71-0.65,1.16-0.85
		C55.85,0.1,56.36,0,56.93,0c0.78,0,1.42,0.16,1.92,0.47s0.91,0.81,1.21,1.49l-1.57,0.82c-0.11-0.35-0.29-0.63-0.52-0.85
		c-0.24-0.21-0.58-0.32-1.04-0.32c-0.54,0-0.97,0.17-1.29,0.52C55.31,2.49,55.15,3,55.15,3.66V5c0,0.66,0.16,1.17,0.49,1.52
		c0.32,0.35,0.75,0.52,1.29,0.52c0.45,0,0.81-0.12,1.07-0.37s0.47-0.54,0.59-0.88l1.49,0.86c-0.31,0.64-0.72,1.13-1.23,1.48
		S57.7,8.66,56.93,8.66z"/>
	<linearGradient id="SVGID_8_" gradientUnits="userSpaceOnUse" x1="61.7632" y1="4.3315" x2="69.5029" y2="4.3315">
		<stop  offset="0" style="stop-color:#AB5184"/>
		<stop  offset="1" style="stop-color:#776B9D"/>
	</linearGradient>
	<path class="st7" d="M67.61,8.52l-0.6-1.99h-2.8l-0.6,1.99h-1.85l2.76-8.38h2.26l2.72,8.38H67.61z M65.63,1.8h-0.06l-0.92,3.18
		h1.92L65.63,1.8z"/>
	<linearGradient id="SVGID_9_" gradientUnits="userSpaceOnUse" x1="71.8555" y1="4.3315" x2="79.8354" y2="4.3315">
		<stop  offset="0" style="stop-color:#AB5184"/>
		<stop  offset="1" style="stop-color:#776B9D"/>
	</linearGradient>
	<path class="st8" d="M78.12,3.02h-0.04l-0.61,1.22l-1.63,2.96l-1.6-2.95l-0.64-1.32h-0.04v5.58h-1.72V0.14h1.93l2.05,3.92h0.02
		l2.03-3.92h1.94v8.38h-1.72V3.02z"/>
	<linearGradient id="SVGID_10_" gradientUnits="userSpaceOnUse" x1="82.8706" y1="4.3315" x2="89.4707" y2="4.3315">
		<stop  offset="0" style="stop-color:#AB5184"/>
		<stop  offset="1" style="stop-color:#776B9D"/>
	</linearGradient>
	<path class="st9" d="M82.87,0.14h4.07c0.7,0,1.24,0.2,1.63,0.59c0.39,0.39,0.58,0.91,0.58,1.56c0,0.32-0.04,0.59-0.13,0.82
		c-0.08,0.22-0.2,0.41-0.34,0.55c-0.14,0.14-0.3,0.25-0.49,0.32s-0.39,0.11-0.61,0.11v0.07c0.2,0,0.41,0.04,0.63,0.11
		c0.22,0.07,0.42,0.19,0.61,0.34c0.18,0.16,0.34,0.36,0.46,0.61s0.19,0.55,0.19,0.91c0,0.33-0.05,0.64-0.16,0.93
		c-0.11,0.29-0.26,0.55-0.45,0.76s-0.42,0.39-0.68,0.51s-0.55,0.19-0.86,0.19h-4.44V0.14z M84.69,3.58h1.81
		c0.24,0,0.43-0.07,0.56-0.2c0.14-0.14,0.2-0.32,0.2-0.56V2.45c0-0.24-0.07-0.43-0.2-0.56c-0.14-0.14-0.32-0.2-0.56-0.2h-1.81V3.58z
		 M84.69,6.98h2.1c0.24,0,0.43-0.07,0.57-0.2c0.14-0.13,0.21-0.32,0.21-0.56V5.82c0-0.24-0.07-0.43-0.21-0.56s-0.33-0.2-0.57-0.2
		h-2.1V6.98z"/>
	<linearGradient id="SVGID_11_" gradientUnits="userSpaceOnUse" x1="92.0625" y1="4.3315" x2="97.7627" y2="4.3315">
		<stop  offset="0" style="stop-color:#AB5184"/>
		<stop  offset="1" style="stop-color:#776B9D"/>
	</linearGradient>
	<path class="st10" d="M92.06,8.52V0.14h5.7v1.62h-3.88v1.7h3.32v1.62h-3.32V6.9h3.88v1.62H92.06z"/>
	<linearGradient id="SVGID_12_" gradientUnits="userSpaceOnUse" x1="100.5347" y1="4.3315" x2="107.1587" y2="4.3315">
		<stop  offset="0" style="stop-color:#AB5184"/>
		<stop  offset="1" style="stop-color:#776B9D"/>
	</linearGradient>
	<path class="st11" d="M102.36,8.52h-1.82V0.14h3.97c0.38,0,0.73,0.06,1.04,0.19s0.58,0.31,0.8,0.55c0.22,0.24,0.39,0.52,0.51,0.85
		s0.18,0.69,0.18,1.09c0,0.57-0.13,1.06-0.38,1.49s-0.63,0.73-1.15,0.92l1.64,3.29h-2.03l-1.46-3.07h-1.31V8.52z M104.28,3.91
		c0.27,0,0.49-0.07,0.64-0.21c0.16-0.14,0.23-0.35,0.23-0.62V2.56c0-0.27-0.08-0.48-0.23-0.62c-0.16-0.14-0.37-0.21-0.64-0.21h-1.92
		v2.18H104.28z"/>
	<linearGradient id="SVGID_13_" gradientUnits="userSpaceOnUse" x1="113.231" y1="4.3315" x2="119.5908" y2="4.3315">
		<stop  offset="0" style="stop-color:#AB5184"/>
		<stop  offset="1" style="stop-color:#776B9D"/>
	</linearGradient>
	<path class="st12" d="M117.32,1.76v6.76h-1.82V1.76h-2.27V0.14h6.36v1.62H117.32z"/>
	<linearGradient id="SVGID_14_" gradientUnits="userSpaceOnUse" x1="121.4863" y1="4.3315" x2="132.4663" y2="4.3315">
		<stop  offset="0" style="stop-color:#AB5184"/>
		<stop  offset="1" style="stop-color:#776B9D"/>
	</linearGradient>
	<path class="st13" d="M123.38,8.52l-1.9-8.38h1.8l0.79,4.02l0.44,2.33h0.04l0.53-2.33l0.92-4.02H128l0.94,4.02l0.52,2.33h0.04
		l0.44-2.33l0.8-4.02h1.73l-1.94,8.38h-2.08l-1.06-4.54l-0.41-1.84h-0.04l-0.42,1.84l-1.06,4.54H123.38z"/>
	<linearGradient id="SVGID_15_" gradientUnits="userSpaceOnUse" x1="134.6021" y1="4.3315" x2="138.5859" y2="4.3315">
		<stop  offset="0" style="stop-color:#AB5184"/>
		<stop  offset="1" style="stop-color:#776B9D"/>
	</linearGradient>
	<path class="st14" d="M134.6,8.52V7.07h1.08V1.6h-1.08V0.14h3.98V1.6h-1.08v5.47h1.08v1.45H134.6z"/>
	<linearGradient id="SVGID_16_" gradientUnits="userSpaceOnUse" x1="141.2979" y1="4.3315" x2="148.1382" y2="4.3315">
		<stop  offset="0" style="stop-color:#AB5184"/>
		<stop  offset="1" style="stop-color:#776B9D"/>
	</linearGradient>
	<path class="st15" d="M143.85,4.56l-0.8-1.68h-0.04v5.64h-1.72V0.14h1.99l2.29,3.96l0.8,1.68h0.04V0.14h1.72v8.38h-1.99
		L143.85,4.56z"/>
	<linearGradient id="SVGID_17_" gradientUnits="userSpaceOnUse" x1="155.1938" y1="4.3315" x2="161.8179" y2="4.3315">
		<stop  offset="0" style="stop-color:#AB5184"/>
		<stop  offset="1" style="stop-color:#776B9D"/>
	</linearGradient>
	<path class="st16" d="M157.02,8.52h-1.82V0.14h3.97c0.38,0,0.73,0.06,1.04,0.19s0.58,0.31,0.8,0.55c0.22,0.24,0.39,0.52,0.51,0.85
		s0.18,0.69,0.18,1.09c0,0.57-0.13,1.06-0.38,1.49s-0.63,0.73-1.15,0.92l1.64,3.29h-2.03l-1.46-3.07h-1.31V8.52z M158.94,3.91
		c0.27,0,0.49-0.07,0.64-0.21c0.16-0.14,0.23-0.35,0.23-0.62V2.56c0-0.27-0.08-0.48-0.23-0.62c-0.16-0.14-0.37-0.21-0.64-0.21h-1.92
		v2.18H158.94z"/>
	<linearGradient id="SVGID_18_" gradientUnits="userSpaceOnUse" x1="164.0259" y1="4.3315" x2="171.3936" y2="4.3315">
		<stop  offset="0" style="stop-color:#AB5184"/>
		<stop  offset="1" style="stop-color:#776B9D"/>
	</linearGradient>
	<path class="st17" d="M167.71,8.66c-0.55,0-1.06-0.09-1.51-0.28c-0.46-0.18-0.84-0.46-1.16-0.82s-0.57-0.82-0.74-1.36
		c-0.18-0.54-0.26-1.17-0.26-1.88c0-0.71,0.09-1.34,0.26-1.88c0.18-0.54,0.42-0.99,0.74-1.36s0.71-0.64,1.16-0.82
		c0.46-0.18,0.96-0.28,1.51-0.28c0.55,0,1.06,0.09,1.51,0.28c0.46,0.18,0.84,0.46,1.16,0.82s0.57,0.82,0.74,1.36
		c0.18,0.54,0.26,1.17,0.26,1.88c0,0.71-0.09,1.34-0.26,1.88c-0.18,0.54-0.42,0.99-0.74,1.36s-0.71,0.64-1.16,0.82
		C168.77,8.57,168.26,8.66,167.71,8.66z M167.71,7.04c0.55,0,0.98-0.18,1.29-0.54c0.31-0.36,0.46-0.88,0.46-1.55V3.71
		c0-0.67-0.15-1.19-0.46-1.55c-0.31-0.36-0.74-0.54-1.29-0.54c-0.55,0-0.98,0.18-1.29,0.54c-0.31,0.36-0.46,0.88-0.46,1.55v1.25
		c0,0.67,0.15,1.19,0.46,1.55C166.73,6.86,167.16,7.04,167.71,7.04z"/>
	<linearGradient id="SVGID_19_" gradientUnits="userSpaceOnUse" x1="173.7817" y1="4.3315" x2="180.6455" y2="4.3315">
		<stop  offset="0" style="stop-color:#AB5184"/>
		<stop  offset="1" style="stop-color:#776B9D"/>
	</linearGradient>
	<path class="st18" d="M177.49,8.66c-0.57,0-1.08-0.09-1.54-0.27s-0.84-0.45-1.16-0.8c-0.32-0.36-0.57-0.8-0.74-1.33
		c-0.18-0.53-0.26-1.15-0.26-1.87c0-0.7,0.09-1.33,0.26-1.88c0.18-0.55,0.42-1.01,0.74-1.38s0.71-0.65,1.16-0.85
		C176.41,0.1,176.92,0,177.49,0c0.78,0,1.42,0.16,1.92,0.47s0.91,0.81,1.21,1.49l-1.57,0.82c-0.11-0.35-0.29-0.63-0.52-0.85
		c-0.24-0.21-0.58-0.32-1.04-0.32c-0.54,0-0.97,0.17-1.29,0.52c-0.32,0.35-0.49,0.85-0.49,1.52V5c0,0.66,0.16,1.17,0.49,1.52
		c0.32,0.35,0.75,0.52,1.29,0.52c0.45,0,0.81-0.12,1.07-0.37s0.47-0.54,0.59-0.88l1.49,0.86c-0.31,0.64-0.72,1.13-1.23,1.48
		S178.27,8.66,177.49,8.66z"/>
	<linearGradient id="SVGID_20_" gradientUnits="userSpaceOnUse" x1="183.106" y1="4.3315" x2="190.3901" y2="4.3315">
		<stop  offset="0" style="stop-color:#AB5184"/>
		<stop  offset="1" style="stop-color:#776B9D"/>
	</linearGradient>
	<path class="st19" d="M186.02,4.87l-1.09,1.32v2.33h-1.82V0.14h1.82v3.98H185l1.19-1.62l1.88-2.36h2.06l-2.82,3.44l3.07,4.93h-2.15
		L186.02,4.87z"/>
	<linearGradient id="SVGID_21_" gradientUnits="userSpaceOnUse" x1="192.646" y1="4.3315" x2="198.3462" y2="4.3315">
		<stop  offset="0" style="stop-color:#AB5184"/>
		<stop  offset="1" style="stop-color:#776B9D"/>
	</linearGradient>
	<path class="st20" d="M192.65,8.52V0.14h5.7v1.62h-3.88v1.7h3.32v1.62h-3.32V6.9h3.88v1.62H192.65z"/>
	<linearGradient id="SVGID_22_" gradientUnits="userSpaceOnUse" x1="201.1177" y1="4.3315" x2="207.7417" y2="4.3315">
		<stop  offset="0" style="stop-color:#AB5184"/>
		<stop  offset="1" style="stop-color:#776B9D"/>
	</linearGradient>
	<path class="st21" d="M202.94,8.52h-1.82V0.14h3.97c0.38,0,0.73,0.06,1.04,0.19s0.58,0.31,0.8,0.55c0.22,0.24,0.39,0.52,0.51,0.85
		s0.18,0.69,0.18,1.09c0,0.57-0.13,1.06-0.38,1.49s-0.63,0.73-1.15,0.92l1.64,3.29h-2.03l-1.46-3.07h-1.31V8.52z M204.86,3.91
		c0.27,0,0.49-0.07,0.64-0.21c0.16-0.14,0.23-0.35,0.23-0.62V2.56c0-0.27-0.08-0.48-0.23-0.62c-0.16-0.14-0.37-0.21-0.64-0.21h-1.92
		v2.18H204.86z"/>
</g>
</svg>
