<!-- Generator: Adobe Illustrator 23.1.1, SVG Export Plug-In  -->
<svg version="1.1" xmlns="http://www.w3.org/2000/svg" xmlns:xlink="http://www.w3.org/1999/xlink" x="0px" y="0px" width="91.07px"
	 height="8.66px" viewBox="0 0 91.07 8.66" style="enable-background:new 0 0 91.07 8.66;" xml:space="preserve">
<style type="text/css">
	.st0{fill:url(#SVGID_1_);}
	.st1{fill:url(#SVGID_2_);}
	.st2{fill:url(#SVGID_3_);}
	.st3{fill:url(#SVGID_4_);}
	.st4{fill:url(#SVGID_5_);}
	.st5{fill:url(#SVGID_6_);}
	.st6{fill:url(#SVGID_7_);}
	.st7{fill:url(#SVGID_8_);}
	.st8{fill:url(#SVGID_9_);}
	.st9{fill:url(#SVGID_10_);}
	.st10{fill:url(#SVGID_11_);}
	.st11{fill:url(#SVGID_12_);}
	.st12{fill:url(#SVGID_13_);}
	.st13{fill:url(#SVGID_14_);}
	.st14{fill:url(#SVGID_15_);}
	.st15{fill:url(#SVGID_16_);}
	.st16{fill:url(#SVGID_17_);}
	.st17{fill:url(#SVGID_18_);}
	.st18{fill:url(#SVGID_19_);}
	.st19{fill:url(#SVGID_20_);}
	.st20{fill:url(#SVGID_21_);}
	.st21{fill:url(#SVGID_22_);}
	.st22{fill:url(#SVGID_23_);}
	.st23{fill:url(#SVGID_24_);}
</style>
<defs>
</defs>
<g>
	<linearGradient id="SVGID_1_" gradientUnits="userSpaceOnUse" x1="0" y1="4.332" x2="6.8643" y2="4.332">
		<stop  offset="0.2814" style="stop-color:#F84C1E"/>
		<stop  offset="1" style="stop-color:#1E1E1E"/>
	</linearGradient>
	<path class="st0" d="M3.71,8.66c-0.57,0-1.08-0.09-1.54-0.27c-0.46-0.18-0.84-0.45-1.16-0.8c-0.32-0.36-0.57-0.8-0.74-1.33
		C0.09,5.73,0,5.1,0,4.39c0-0.7,0.09-1.33,0.26-1.88c0.18-0.55,0.42-1.01,0.74-1.38c0.32-0.37,0.71-0.65,1.16-0.85
		C2.63,0.1,3.14,0,3.71,0c0.78,0,1.42,0.16,1.92,0.47c0.5,0.32,0.91,0.81,1.21,1.49L5.27,2.78C5.16,2.43,4.98,2.15,4.75,1.94
		C4.51,1.73,4.16,1.62,3.71,1.62c-0.54,0-0.97,0.17-1.29,0.52C2.09,2.49,1.93,3,1.93,3.66V5c0,0.66,0.16,1.17,0.49,1.52
		c0.32,0.35,0.75,0.52,1.29,0.52c0.45,0,0.81-0.12,1.07-0.37C5.05,6.43,5.25,6.14,5.38,5.8l1.49,0.86C6.55,7.3,6.14,7.79,5.63,8.14
		C5.13,8.49,4.48,8.66,3.71,8.66z"/>
	<linearGradient id="SVGID_2_" gradientUnits="userSpaceOnUse" x1="7.6553" y1="4.332" x2="15.0234" y2="4.332">
		<stop  offset="0.2814" style="stop-color:#F84C1E"/>
		<stop  offset="1" style="stop-color:#1E1E1E"/>
	</linearGradient>
	<path class="st1" d="M11.34,8.66c-0.55,0-1.06-0.09-1.51-0.28C9.37,8.2,8.98,7.93,8.66,7.57C8.34,7.2,8.1,6.75,7.92,6.21
		C7.74,5.67,7.66,5.04,7.66,4.33s0.09-1.34,0.26-1.88C8.1,1.91,8.34,1.46,8.66,1.1c0.32-0.36,0.71-0.64,1.16-0.82
		C10.28,0.09,10.79,0,11.34,0s1.06,0.09,1.51,0.28c0.46,0.18,0.84,0.46,1.16,0.82c0.32,0.36,0.57,0.82,0.74,1.36
		s0.26,1.17,0.26,1.88s-0.09,1.34-0.26,1.88s-0.42,0.99-0.74,1.36c-0.32,0.36-0.71,0.64-1.16,0.82C12.4,8.57,11.89,8.66,11.34,8.66z
		 M11.34,7.04c0.55,0,0.98-0.18,1.29-0.54c0.31-0.36,0.46-0.88,0.46-1.55V3.71c0-0.67-0.15-1.19-0.46-1.55
		c-0.31-0.36-0.74-0.54-1.29-0.54s-0.98,0.18-1.29,0.54C9.74,2.52,9.59,3.04,9.59,3.71v1.25c0,0.67,0.15,1.19,0.46,1.55
		C10.36,6.86,10.79,7.04,11.34,7.04z"/>
	<linearGradient id="SVGID_3_" gradientUnits="userSpaceOnUse" x1="16.5479" y1="4.332" x2="23.3877" y2="4.332">
		<stop  offset="0.2814" style="stop-color:#F84C1E"/>
		<stop  offset="1" style="stop-color:#1E1E1E"/>
	</linearGradient>
	<path class="st2" d="M19.1,4.56l-0.8-1.68h-0.04v5.64h-1.72V0.14h1.99l2.29,3.96l0.8,1.68h0.04V0.14h1.72v8.38H21.4L19.1,4.56z"/>
	<linearGradient id="SVGID_4_" gradientUnits="userSpaceOnUse" x1="24.7676" y1="4.332" x2="31.2119" y2="4.332">
		<stop  offset="0.2814" style="stop-color:#F84C1E"/>
		<stop  offset="1" style="stop-color:#1E1E1E"/>
	</linearGradient>
	<path class="st3" d="M27.95,8.66c-0.74,0-1.36-0.13-1.87-0.38c-0.51-0.25-0.95-0.58-1.31-0.98l1.2-1.21
		c0.57,0.63,1.27,0.95,2.1,0.95c0.45,0,0.78-0.09,1-0.27c0.22-0.18,0.32-0.42,0.32-0.73c0-0.23-0.06-0.42-0.19-0.58
		c-0.13-0.15-0.39-0.26-0.78-0.31l-0.83-0.11c-0.89-0.11-1.54-0.38-1.95-0.81s-0.62-0.99-0.62-1.69c0-0.38,0.07-0.72,0.22-1.03
		c0.14-0.31,0.35-0.58,0.62-0.8c0.27-0.22,0.6-0.4,0.98-0.52C27.23,0.06,27.67,0,28.16,0c0.63,0,1.19,0.1,1.67,0.3
		c0.48,0.2,0.89,0.49,1.24,0.88L29.86,2.4c-0.2-0.23-0.44-0.42-0.73-0.56c-0.28-0.15-0.64-0.22-1.07-0.22
		c-0.41,0-0.71,0.07-0.91,0.21c-0.2,0.14-0.3,0.34-0.3,0.59c0,0.29,0.08,0.49,0.23,0.62c0.16,0.13,0.41,0.22,0.76,0.27l0.83,0.13
		c0.86,0.14,1.5,0.4,1.92,0.8c0.42,0.4,0.62,0.96,0.62,1.69c0,0.4-0.07,0.77-0.22,1.11c-0.14,0.34-0.35,0.62-0.63,0.86
		c-0.28,0.24-0.62,0.43-1.03,0.56C28.93,8.6,28.47,8.66,27.95,8.66z"/>
	<linearGradient id="SVGID_5_" gradientUnits="userSpaceOnUse" x1="31.8486" y1="4.332" x2="38.208" y2="4.332">
		<stop  offset="0.2814" style="stop-color:#F84C1E"/>
		<stop  offset="1" style="stop-color:#1E1E1E"/>
	</linearGradient>
	<path class="st4" d="M35.94,1.76v6.76h-1.82V1.76h-2.27V0.14h6.36v1.62H35.94z"/>
	<linearGradient id="SVGID_6_" gradientUnits="userSpaceOnUse" x1="39.4561" y1="4.332" x2="46.0801" y2="4.332">
		<stop  offset="0.2814" style="stop-color:#F84C1E"/>
		<stop  offset="1" style="stop-color:#1E1E1E"/>
	</linearGradient>
	<path class="st5" d="M41.28,8.52h-1.82V0.14h3.97c0.38,0,0.73,0.06,1.04,0.19c0.31,0.13,0.58,0.31,0.8,0.55
		c0.22,0.24,0.39,0.52,0.51,0.85s0.18,0.69,0.18,1.09c0,0.57-0.13,1.06-0.38,1.49s-0.63,0.73-1.15,0.92l1.64,3.29h-2.03l-1.46-3.07
		h-1.31V8.52z M43.2,3.91c0.27,0,0.49-0.07,0.64-0.21c0.16-0.14,0.23-0.35,0.23-0.62V2.56c0-0.27-0.08-0.48-0.23-0.62
		c-0.16-0.14-0.37-0.21-0.64-0.21h-1.92v2.18H43.2z"/>
	<linearGradient id="SVGID_7_" gradientUnits="userSpaceOnUse" x1="47.3281" y1="4.4041" x2="53.9043" y2="4.4041">
		<stop  offset="0.2814" style="stop-color:#F84C1E"/>
		<stop  offset="1" style="stop-color:#1E1E1E"/>
	</linearGradient>
	<path class="st6" d="M49.1,0.14v5.14c0,0.59,0.12,1.03,0.35,1.33s0.62,0.44,1.16,0.44s0.93-0.15,1.16-0.44
		c0.23-0.29,0.35-0.73,0.35-1.33V0.14h1.78v4.94c0,0.62-0.06,1.15-0.17,1.6c-0.12,0.45-0.31,0.82-0.57,1.12s-0.6,0.51-1.02,0.65
		c-0.42,0.14-0.92,0.21-1.52,0.21s-1.11-0.07-1.52-0.21c-0.42-0.14-0.76-0.36-1.02-0.65s-0.45-0.66-0.57-1.12
		c-0.12-0.45-0.17-0.99-0.17-1.6V0.14H49.1z"/>
	<linearGradient id="SVGID_8_" gradientUnits="userSpaceOnUse" x1="55.3799" y1="4.332" x2="62.2441" y2="4.332">
		<stop  offset="0.2814" style="stop-color:#F84C1E"/>
		<stop  offset="1" style="stop-color:#1E1E1E"/>
	</linearGradient>
	<path class="st7" d="M59.09,8.66c-0.57,0-1.08-0.09-1.54-0.27c-0.46-0.18-0.84-0.45-1.16-0.8c-0.32-0.36-0.57-0.8-0.74-1.33
		c-0.18-0.53-0.26-1.15-0.26-1.87c0-0.7,0.09-1.33,0.26-1.88c0.18-0.55,0.42-1.01,0.74-1.38c0.32-0.37,0.71-0.65,1.16-0.85
		C58.01,0.1,58.52,0,59.09,0c0.78,0,1.42,0.16,1.92,0.47c0.5,0.32,0.91,0.81,1.21,1.49l-1.57,0.82c-0.11-0.35-0.29-0.63-0.52-0.85
		c-0.24-0.21-0.58-0.32-1.04-0.32c-0.54,0-0.97,0.17-1.29,0.52C57.47,2.49,57.31,3,57.31,3.66V5c0,0.66,0.16,1.17,0.49,1.52
		c0.32,0.35,0.75,0.52,1.29,0.52c0.45,0,0.81-0.12,1.07-0.37c0.27-0.24,0.47-0.54,0.59-0.88l1.49,0.86
		c-0.31,0.64-0.72,1.13-1.23,1.48C60.51,8.49,59.86,8.66,59.09,8.66z"/>
	<linearGradient id="SVGID_9_" gradientUnits="userSpaceOnUse" x1="62.916" y1="4.332" x2="69.2754" y2="4.332">
		<stop  offset="0.2814" style="stop-color:#F84C1E"/>
		<stop  offset="1" style="stop-color:#1E1E1E"/>
	</linearGradient>
	<path class="st8" d="M67.01,1.76v6.76h-1.82V1.76h-2.27V0.14h6.36v1.62H67.01z"/>
	<linearGradient id="SVGID_10_" gradientUnits="userSpaceOnUse" x1="70.1514" y1="4.332" x2="74.1357" y2="4.332">
		<stop  offset="0.2814" style="stop-color:#F84C1E"/>
		<stop  offset="1" style="stop-color:#1E1E1E"/>
	</linearGradient>
	<path class="st9" d="M70.15,8.52V7.07h1.08V1.6h-1.08V0.14h3.98V1.6h-1.08v5.47h1.08v1.45H70.15z"/>
	<linearGradient id="SVGID_11_" gradientUnits="userSpaceOnUse" x1="75.335" y1="4.332" x2="82.7031" y2="4.332">
		<stop  offset="0.2814" style="stop-color:#F84C1E"/>
		<stop  offset="1" style="stop-color:#1E1E1E"/>
	</linearGradient>
	<path class="st10" d="M79.02,8.66c-0.55,0-1.06-0.09-1.51-0.28c-0.46-0.18-0.84-0.46-1.16-0.82c-0.32-0.36-0.57-0.82-0.74-1.36
		c-0.18-0.54-0.26-1.17-0.26-1.88s0.09-1.34,0.26-1.88c0.18-0.54,0.42-0.99,0.74-1.36c0.32-0.36,0.71-0.64,1.16-0.82
		C77.96,0.09,78.47,0,79.02,0s1.06,0.09,1.51,0.28c0.46,0.18,0.84,0.46,1.16,0.82c0.32,0.36,0.57,0.82,0.74,1.36
		s0.26,1.17,0.26,1.88s-0.09,1.34-0.26,1.88S82.02,7.2,81.7,7.57c-0.32,0.36-0.71,0.64-1.16,0.82C80.08,8.57,79.57,8.66,79.02,8.66z
		 M79.02,7.04c0.55,0,0.98-0.18,1.29-0.54c0.31-0.36,0.46-0.88,0.46-1.55V3.71c0-0.67-0.15-1.19-0.46-1.55
		C80,1.8,79.57,1.62,79.02,1.62s-0.98,0.18-1.29,0.54c-0.31,0.36-0.46,0.88-0.46,1.55v1.25c0,0.67,0.15,1.19,0.46,1.55
		C78.04,6.86,78.47,7.04,79.02,7.04z"/>
	<linearGradient id="SVGID_12_" gradientUnits="userSpaceOnUse" x1="84.2266" y1="4.332" x2="91.0664" y2="4.332">
		<stop  offset="0.2814" style="stop-color:#F84C1E"/>
		<stop  offset="1" style="stop-color:#1E1E1E"/>
	</linearGradient>
	<path class="st11" d="M86.78,4.56l-0.8-1.68h-0.04v5.64h-1.72V0.14h1.99l2.29,3.96l0.8,1.68h0.04V0.14h1.72v8.38h-1.99L86.78,4.56z
		"/>
</g>
</svg>
