<!-- Generator: Adobe Illustrator 23.1.1, SVG Export Plug-In  -->
<svg version="1.1" xmlns="http://www.w3.org/2000/svg" xmlns:xlink="http://www.w3.org/1999/xlink" x="0px" y="0px"
	 width="115.41px" height="15.19px" viewBox="0 0 115.41 15.19" style="enable-background:new 0 0 115.41 15.19;"
	 xml:space="preserve">
<style type="text/css">
	.st0{opacity:0.7;}
	.st1{fill:none;stroke:#000000;stroke-width:0.75;}
</style>
<defs>
</defs>
<g class="st0">
	<path class="st1" d="M0.38,0.62h5.08c0.91,0,1.73,0.15,2.47,0.44c0.74,0.29,1.37,0.73,1.9,1.31s0.93,1.31,1.22,2.18
		c0.29,0.87,0.43,1.89,0.43,3.05s-0.14,2.18-0.43,3.05c-0.29,0.87-0.69,1.6-1.22,2.18s-1.16,1.02-1.9,1.31
		c-0.74,0.29-1.56,0.44-2.47,0.44H0.38V0.62z M5.46,12.24c0.99,0,1.77-0.29,2.35-0.87C8.38,10.79,8.67,9.9,8.67,8.7V6.5
		c0-1.2-0.29-2.09-0.87-2.67C7.23,3.25,6.44,2.96,5.46,2.96H3.01v9.28H5.46z"/>
	<path class="st1" d="M14.15,14.58V0.62h9.2v2.34h-6.56v3.38h5.8v2.34h-5.8v3.56h6.56v2.34H14.15z"/>
	<path class="st1" d="M34.79,14.58l-1.12-3.56h-4.96l-1.1,3.56h-2.68l4.68-13.96h3.28l4.64,13.96H34.79z M31.23,3.02h-0.1
		l-1.78,5.74h3.68L31.23,3.02z"/>
	<path class="st1" d="M43.77,2.96v11.62h-2.64V2.96h-3.96V0.62h10.56v2.34H43.77z"/>
	<path class="st1" d="M58.35,8.68h-5.82v5.9h-2.64V0.62h2.64v5.72h5.82V0.62h2.64v13.96h-2.64V8.68z"/>
	<path class="st1" d="M66.39,14.58L63.15,0.62h2.64l1.38,6.7l0.86,4.28h0.06l1-4.28l1.6-6.7h2.92l1.6,6.7l0.98,4.28h0.06l0.88-4.28
		l1.42-6.7h2.52l-3.34,13.96h-2.98L72.97,7.2l-0.86-3.68h-0.04l-0.9,3.68l-1.78,7.38H66.39z"/>
	<path class="st1" d="M82.67,14.58v-2.12h1.84V2.74h-1.84V0.62h6.34v2.12h-1.86v9.72h1.86v2.12H82.67z"/>
	<path class="st1" d="M96.05,14.82c-1.2,0-2.22-0.21-3.05-0.64c-0.83-0.43-1.55-0.99-2.15-1.68l1.78-1.72
		c0.48,0.56,1.02,0.98,1.61,1.27c0.59,0.29,1.25,0.44,1.97,0.44c0.81,0,1.43-0.18,1.84-0.53c0.41-0.35,0.62-0.82,0.62-1.42
		c0-0.46-0.13-0.84-0.4-1.13c-0.27-0.29-0.77-0.5-1.5-0.63l-1.32-0.2c-2.79-0.44-4.18-1.8-4.18-4.06c0-0.63,0.12-1.19,0.35-1.7
		s0.57-0.94,1.01-1.3c0.44-0.36,0.97-0.64,1.59-0.83c0.62-0.19,1.32-0.29,2.11-0.29c1.05,0,1.97,0.17,2.76,0.52
		c0.79,0.35,1.46,0.86,2.02,1.54l-1.8,1.7c-0.35-0.42-0.77-0.77-1.26-1.03c-0.49-0.26-1.11-0.4-1.86-0.4
		c-0.76,0-1.33,0.14-1.71,0.43c-0.38,0.28-0.57,0.68-0.57,1.2c0,0.53,0.15,0.92,0.46,1.17c0.31,0.25,0.8,0.44,1.48,0.56l1.3,0.24
		c1.41,0.25,2.46,0.7,3.13,1.35s1.01,1.55,1.01,2.71c0,0.67-0.12,1.27-0.35,1.81c-0.23,0.54-0.57,1.01-1.02,1.4
		c-0.45,0.39-0.99,0.7-1.64,0.91C97.64,14.71,96.89,14.82,96.05,14.82z"/>
	<path class="st1" d="M112.39,8.68h-5.82v5.9h-2.64V0.62h2.64v5.72h5.82V0.62h2.64v13.96h-2.64V8.68z"/>
</g>
</svg>
