<!-- Generator: Adobe Illustrator 23.1.1, SVG Export Plug-In  -->
<svg version="1.1" xmlns="http://www.w3.org/2000/svg" xmlns:xlink="http://www.w3.org/1999/xlink" x="0px" y="0px"
	 width="157.82px" height="68.62px" viewBox="0 0 157.82 68.62" style="enable-background:new 0 0 157.82 68.62;"
	 xml:space="preserve">
<defs>
</defs>
<g>
	<path d="M2.05,6.1L1.21,8.65H0.13l2.75-8.08h1.26L6.9,8.65H5.78L4.92,6.1H2.05z M4.7,5.29L3.91,2.96c-0.18-0.53-0.3-1.01-0.42-1.48
		H3.47C3.35,1.97,3.21,2.46,3.06,2.95L2.27,5.29H4.7z"/>
	<path d="M14.73,8.43c-0.28,0.14-0.89,0.34-1.67,0.34c-1.75,0-2.89-1.19-2.89-2.96c0-1.79,1.22-3.08,3.12-3.08
		c0.62,0,1.18,0.16,1.46,0.3l-0.24,0.82c-0.25-0.14-0.65-0.28-1.22-0.28c-1.33,0-2.05,0.98-2.05,2.19c0,1.34,0.86,2.17,2.02,2.17
		c0.6,0,1-0.16,1.3-0.29L14.73,8.43z"/>
	<path d="M20.83,7.06c0,0.6,0.01,1.13,0.05,1.58h-0.94L19.88,7.7h-0.02c-0.28,0.47-0.89,1.08-1.92,1.08c-0.91,0-2-0.5-2-2.54V2.84
		h1.06v3.21c0,1.1,0.34,1.85,1.3,1.85c0.71,0,1.2-0.49,1.39-0.96c0.06-0.16,0.1-0.35,0.1-0.54V2.84h1.06V7.06z"/>
	<path d="M22.44,7.57c0.31,0.2,0.86,0.42,1.39,0.42c0.77,0,1.13-0.38,1.13-0.86c0-0.5-0.3-0.78-1.08-1.07
		c-1.04-0.37-1.54-0.95-1.54-1.64c0-0.94,0.76-1.7,2-1.7c0.59,0,1.1,0.17,1.43,0.36l-0.26,0.77c-0.23-0.14-0.65-0.34-1.19-0.34
		c-0.62,0-0.97,0.36-0.97,0.79c0,0.48,0.35,0.7,1.1,0.98c1.01,0.38,1.52,0.89,1.52,1.75c0,1.02-0.79,1.74-2.17,1.74
		c-0.64,0-1.22-0.16-1.63-0.4L22.44,7.57z"/>
	<path d="M28.61,1.18v1.67h1.51v0.8h-1.51v3.13c0,0.72,0.2,1.13,0.79,1.13c0.28,0,0.48-0.04,0.61-0.07l0.05,0.79
		c-0.2,0.08-0.53,0.14-0.94,0.14c-0.49,0-0.89-0.16-1.14-0.44c-0.3-0.31-0.41-0.83-0.41-1.51V3.65h-0.9v-0.8h0.9V1.45L28.61,1.18z"
		/>
	<path d="M36.49,5.7c0,2.15-1.49,3.08-2.89,3.08c-1.57,0-2.78-1.15-2.78-2.99c0-1.94,1.27-3.08,2.88-3.08
		C35.36,2.71,36.49,3.92,36.49,5.7z M31.88,5.76c0,1.27,0.73,2.23,1.76,2.23c1.01,0,1.76-0.95,1.76-2.25c0-0.98-0.49-2.23-1.74-2.23
		C32.42,3.5,31.88,4.65,31.88,5.76z"/>
	<path d="M37.82,4.41c0-0.6-0.01-1.09-0.05-1.57h0.92l0.05,0.94h0.04c0.32-0.55,0.86-1.07,1.82-1.07c0.79,0,1.39,0.48,1.64,1.16
		h0.02c0.18-0.32,0.41-0.58,0.65-0.76c0.35-0.26,0.73-0.41,1.28-0.41c0.77,0,1.91,0.5,1.91,2.52v3.42h-1.03V5.36
		c0-1.12-0.41-1.79-1.26-1.79c-0.6,0-1.07,0.44-1.25,0.96c-0.05,0.14-0.08,0.33-0.08,0.53v3.59h-1.03V5.17
		c0-0.92-0.41-1.59-1.21-1.59c-0.66,0-1.14,0.53-1.31,1.06c-0.06,0.16-0.08,0.34-0.08,0.52v3.5h-1.03V4.41z"/>
	<path d="M50.33,8.65c0.02-0.4,0.05-0.98,0.05-1.5V0.13h1.04v3.65h0.02c0.37-0.65,1.04-1.07,1.98-1.07c1.44,0,2.46,1.2,2.45,2.96
		c0,2.08-1.31,3.11-2.6,3.11c-0.84,0-1.51-0.32-1.94-1.09h-0.04l-0.05,0.96H50.33z M51.42,6.32c0,0.13,0.02,0.26,0.05,0.38
		c0.2,0.73,0.82,1.24,1.58,1.24c1.1,0,1.76-0.9,1.76-2.23c0-1.16-0.6-2.16-1.73-2.16c-0.72,0-1.39,0.49-1.61,1.3
		c-0.02,0.12-0.06,0.26-0.06,0.43V6.32z"/>
	<path d="M57.2,0.13h1.06v8.52H57.2V0.13z"/>
	<path d="M60.62,5.94c0.02,1.43,0.94,2.02,1.99,2.02c0.76,0,1.21-0.13,1.61-0.3l0.18,0.75c-0.37,0.17-1.01,0.36-1.93,0.36
		c-1.79,0-2.85-1.18-2.85-2.93s1.03-3.13,2.72-3.13c1.9,0,2.4,1.67,2.4,2.73c0,0.22-0.02,0.38-0.04,0.49H60.62z M63.72,5.18
		c0.01-0.67-0.28-1.71-1.46-1.71c-1.07,0-1.54,0.98-1.62,1.71H63.72z"/>
	<path d="M66.05,4.41c0-0.6-0.01-1.09-0.05-1.57h0.94l0.06,0.96h0.02c0.29-0.55,0.96-1.09,1.92-1.09c0.8,0,2.05,0.48,2.05,2.47v3.47
		h-1.06V5.3c0-0.94-0.35-1.72-1.34-1.72c-0.7,0-1.24,0.49-1.42,1.08C67.13,4.8,67.1,4.98,67.1,5.16v3.49h-1.06V4.41z"/>
	<path d="M77.72,0.13v7.02c0,0.52,0.01,1.1,0.05,1.5h-0.95l-0.05-1.01h-0.02c-0.32,0.65-1.03,1.14-1.98,1.14
		c-1.4,0-2.48-1.19-2.48-2.95c-0.01-1.93,1.19-3.12,2.6-3.12c0.89,0,1.49,0.42,1.75,0.89h0.02V0.13H77.72z M76.66,5.21
		c0-0.13-0.01-0.31-0.05-0.44c-0.16-0.67-0.73-1.22-1.52-1.22c-1.09,0-1.74,0.96-1.74,2.24c0,1.17,0.58,2.15,1.72,2.15
		c0.71,0,1.35-0.47,1.55-1.26c0.04-0.14,0.05-0.29,0.05-0.46V5.21z"/>
	<path d="M87.27,5.7c0,2.15-1.49,3.08-2.89,3.08c-1.57,0-2.78-1.15-2.78-2.99c0-1.94,1.27-3.08,2.88-3.08
		C86.14,2.71,87.27,3.92,87.27,5.7z M82.67,5.76c0,1.27,0.73,2.23,1.76,2.23c1.01,0,1.76-0.95,1.76-2.25c0-0.98-0.49-2.23-1.74-2.23
		C83.21,3.5,82.67,4.65,82.67,5.76z"/>
	<path d="M88.71,8.65v-5H87.9v-0.8h0.82V2.57c0-0.82,0.18-1.56,0.67-2.03C89.78,0.16,90.31,0,90.8,0c0.37,0,0.7,0.08,0.9,0.17
		l-0.14,0.82c-0.16-0.07-0.37-0.13-0.67-0.13c-0.9,0-1.13,0.79-1.13,1.68v0.31h1.4v0.8h-1.4v5H88.71z"/>
	<path d="M95.93,1.18v1.67h1.51v0.8h-1.51v3.13c0,0.72,0.2,1.13,0.79,1.13c0.28,0,0.48-0.04,0.61-0.07l0.05,0.79
		c-0.2,0.08-0.53,0.14-0.94,0.14c-0.49,0-0.89-0.16-1.14-0.44C95,8.01,94.89,7.5,94.89,6.81V3.65h-0.9v-0.8h0.9V1.45L95.93,1.18z"/>
	<path d="M98.63,4.65c0-0.68-0.01-1.27-0.05-1.81h0.92l0.04,1.14h0.05c0.26-0.78,0.9-1.27,1.61-1.27c0.12,0,0.2,0.01,0.3,0.04v1
		c-0.11-0.02-0.22-0.04-0.36-0.04c-0.74,0-1.27,0.56-1.42,1.36c-0.02,0.14-0.05,0.31-0.05,0.49v3.09h-1.04V4.65z"/>
	<path d="M103.77,1.21c0.01,0.36-0.25,0.65-0.67,0.65c-0.37,0-0.64-0.29-0.64-0.65c0-0.37,0.28-0.66,0.66-0.66
		C103.52,0.55,103.77,0.84,103.77,1.21z M102.6,8.65v-5.8h1.06v5.8H102.6z"/>
	<path d="M108.62,8.65l-0.08-0.73h-0.04c-0.32,0.46-0.95,0.86-1.77,0.86c-1.18,0-1.77-0.83-1.77-1.67c0-1.4,1.25-2.17,3.49-2.16
		V4.83c0-0.48-0.13-1.34-1.32-1.34c-0.54,0-1.1,0.17-1.51,0.43l-0.24-0.7c0.48-0.31,1.18-0.52,1.91-0.52c1.77,0,2.21,1.21,2.21,2.37
		v2.17c0,0.5,0.02,1,0.1,1.39H108.62z M108.46,5.69c-1.15-0.02-2.46,0.18-2.46,1.31c0,0.68,0.46,1.01,1,1.01
		c0.76,0,1.24-0.48,1.4-0.97c0.04-0.11,0.06-0.23,0.06-0.34V5.69z"/>
	<path d="M111.68,2.84l0.83,1.25c0.22,0.32,0.4,0.62,0.59,0.95h0.04c0.19-0.35,0.38-0.65,0.58-0.96l0.82-1.24h1.14l-1.98,2.81
		l2.04,3h-1.2l-0.85-1.31c-0.23-0.34-0.42-0.66-0.62-1.01h-0.02c-0.19,0.35-0.4,0.66-0.61,1.01l-0.84,1.31h-1.16l2.06-2.96
		l-1.97-2.84H111.68z"/>
	<path d="M117.92,1.21c0.01,0.36-0.25,0.65-0.67,0.65c-0.37,0-0.64-0.29-0.64-0.65c0-0.37,0.28-0.66,0.66-0.66
		C117.67,0.55,117.92,0.84,117.92,1.21z M116.75,8.65v-5.8h1.06v5.8H116.75z"/>
	<path d="M122.77,8.65l-0.08-0.73h-0.04c-0.32,0.46-0.95,0.86-1.77,0.86c-1.18,0-1.77-0.83-1.77-1.67c0-1.4,1.25-2.17,3.49-2.16
		V4.83c0-0.48-0.13-1.34-1.32-1.34c-0.54,0-1.1,0.17-1.51,0.43l-0.24-0.7c0.48-0.31,1.18-0.52,1.91-0.52c1.77,0,2.21,1.21,2.21,2.37
		v2.17c0,0.5,0.02,1,0.1,1.39H122.77z M122.61,5.69c-1.15-0.02-2.46,0.18-2.46,1.31c0,0.68,0.46,1.01,1,1.01
		c0.76,0,1.24-0.48,1.4-0.97c0.04-0.11,0.06-0.23,0.06-0.34V5.69z"/>
	<path d="M125.34,0.13h1.06v8.52h-1.06V0.13z"/>
	<path d="M0.82,23.05v-5H0v-0.8h0.82v-0.31c0-1.54,0.9-2.53,2.53-2.53c0.54,0,1.18,0.17,1.48,0.38l-0.3,0.8
		c-0.25-0.18-0.71-0.34-1.22-0.34c-1.12,0-1.44,0.78-1.44,1.7v0.29h3.37v5.8H4.19v-5H1.86v5H0.82z"/>
	<path d="M6.94,23.05c0.02-0.4,0.05-0.98,0.05-1.5v-7.02h1.04v3.65h0.02c0.37-0.65,1.04-1.07,1.98-1.07c1.44,0,2.46,1.2,2.45,2.96
		c0,2.08-1.31,3.11-2.6,3.11c-0.84,0-1.51-0.32-1.94-1.09H7.9l-0.05,0.96H6.94z M8.03,20.72c0,0.13,0.02,0.26,0.05,0.38
		c0.2,0.73,0.82,1.24,1.58,1.24c1.1,0,1.76-0.9,1.76-2.23c0-1.16-0.6-2.16-1.73-2.16c-0.72,0-1.39,0.49-1.61,1.3
		c-0.02,0.12-0.06,0.26-0.06,0.43V20.72z"/>
	<path d="M14.4,20.34c0.02,1.43,0.94,2.02,1.99,2.02c0.76,0,1.21-0.13,1.61-0.3l0.18,0.75c-0.37,0.17-1.01,0.36-1.93,0.36
		c-1.79,0-2.85-1.18-2.85-2.93s1.03-3.13,2.72-3.13c1.9,0,2.4,1.67,2.4,2.73c0,0.22-0.02,0.38-0.04,0.49H14.4z M17.49,19.58
		c0.01-0.67-0.28-1.71-1.46-1.71c-1.07,0-1.54,0.98-1.62,1.71H17.49z"/>
	<path d="M19.82,19.05c0-0.68-0.01-1.27-0.05-1.81h0.92l0.04,1.14h0.05c0.26-0.78,0.9-1.27,1.61-1.27c0.12,0,0.2,0.01,0.3,0.04v1
		c-0.11-0.02-0.22-0.04-0.36-0.04c-0.74,0-1.27,0.56-1.42,1.36c-0.02,0.14-0.05,0.31-0.05,0.49v3.09h-1.04V19.05z"/>
	<path d="M28.65,17.24c-0.02,0.42-0.05,0.89-0.05,1.59v3.37c0,1.33-0.26,2.15-0.83,2.65c-0.56,0.53-1.38,0.7-2.11,0.7
		c-0.7,0-1.46-0.17-1.93-0.48l0.26-0.8c0.38,0.24,0.98,0.46,1.7,0.46c1.08,0,1.87-0.56,1.87-2.03v-0.65h-0.02
		c-0.32,0.54-0.95,0.97-1.85,0.97c-1.44,0-2.47-1.22-2.47-2.83c0-1.97,1.28-3.08,2.61-3.08c1.01,0,1.56,0.53,1.81,1.01h0.02
		l0.05-0.88H28.65z M27.56,19.53c0-0.18-0.01-0.34-0.06-0.48c-0.19-0.61-0.71-1.12-1.48-1.12c-1.01,0-1.73,0.85-1.73,2.2
		c0,1.14,0.58,2.09,1.72,2.09c0.65,0,1.24-0.41,1.46-1.08c0.06-0.18,0.08-0.38,0.08-0.56V19.53z"/>
	<path d="M30.36,14.53h1.06v8.52h-1.06V14.53z"/>
	<path d="M36.41,23.05l-0.08-0.73h-0.04c-0.32,0.46-0.95,0.86-1.77,0.86c-1.18,0-1.77-0.83-1.77-1.67c0-1.4,1.25-2.17,3.49-2.16
		v-0.12c0-0.48-0.13-1.34-1.32-1.34c-0.54,0-1.1,0.17-1.51,0.43l-0.24-0.7c0.48-0.31,1.18-0.52,1.91-0.52
		c1.77,0,2.21,1.21,2.21,2.37v2.17c0,0.5,0.02,1,0.1,1.39H36.41z M36.25,20.09c-1.15-0.02-2.46,0.18-2.46,1.31
		c0,0.68,0.46,1.01,1,1.01c0.76,0,1.24-0.48,1.4-0.97c0.04-0.11,0.06-0.23,0.06-0.34V20.09z"/>
	<path d="M38.83,21.97c0.31,0.2,0.86,0.42,1.39,0.42c0.77,0,1.13-0.38,1.13-0.86c0-0.5-0.3-0.78-1.08-1.07
		c-1.04-0.37-1.54-0.95-1.54-1.64c0-0.94,0.76-1.7,2-1.7c0.59,0,1.1,0.17,1.43,0.36l-0.26,0.77c-0.23-0.14-0.65-0.34-1.19-0.34
		c-0.62,0-0.97,0.36-0.97,0.79c0,0.48,0.35,0.7,1.1,0.98c1.01,0.38,1.52,0.89,1.52,1.75c0,1.02-0.79,1.74-2.17,1.74
		c-0.64,0-1.22-0.16-1.63-0.4L38.83,21.97z"/>
	<path d="M43.58,21.97c0.31,0.2,0.86,0.42,1.39,0.42c0.77,0,1.13-0.38,1.13-0.86c0-0.5-0.3-0.78-1.08-1.07
		c-1.04-0.37-1.54-0.95-1.54-1.64c0-0.94,0.76-1.7,2-1.7c0.59,0,1.1,0.17,1.43,0.36l-0.26,0.77c-0.23-0.14-0.65-0.34-1.19-0.34
		c-0.62,0-0.97,0.36-0.97,0.79c0,0.48,0.35,0.7,1.1,0.98c1.01,0.38,1.52,0.89,1.52,1.75c0,1.02-0.79,1.74-2.17,1.74
		c-0.64,0-1.22-0.16-1.63-0.4L43.58,21.97z"/>
	<path d="M54.24,23.05l-0.08-0.73h-0.04c-0.32,0.46-0.95,0.86-1.77,0.86c-1.18,0-1.77-0.83-1.77-1.67c0-1.4,1.25-2.17,3.49-2.16
		v-0.12c0-0.48-0.13-1.34-1.32-1.34c-0.54,0-1.1,0.17-1.51,0.43l-0.24-0.7c0.48-0.31,1.18-0.52,1.91-0.52
		c1.77,0,2.21,1.21,2.21,2.37v2.17c0,0.5,0.02,1,0.1,1.39H54.24z M54.08,20.09c-1.15-0.02-2.46,0.18-2.46,1.31
		c0,0.68,0.46,1.01,1,1.01c0.76,0,1.24-0.48,1.4-0.97c0.04-0.11,0.06-0.23,0.06-0.34V20.09z"/>
	<path d="M56.81,18.81c0-0.6-0.01-1.09-0.05-1.57h0.94l0.06,0.96h0.02c0.29-0.55,0.96-1.09,1.92-1.09c0.8,0,2.05,0.48,2.05,2.47
		v3.47h-1.06V19.7c0-0.94-0.35-1.72-1.34-1.72c-0.7,0-1.24,0.49-1.42,1.08c-0.05,0.13-0.07,0.31-0.07,0.49v3.49h-1.06V18.81z"/>
	<path d="M68.48,14.53v7.02c0,0.52,0.01,1.1,0.05,1.5h-0.95l-0.05-1.01h-0.02c-0.32,0.65-1.03,1.14-1.98,1.14
		c-1.4,0-2.48-1.19-2.48-2.95c-0.01-1.93,1.19-3.12,2.6-3.12c0.89,0,1.49,0.42,1.75,0.89h0.02v-3.47H68.48z M67.43,19.61
		c0-0.13-0.01-0.31-0.05-0.44c-0.16-0.67-0.73-1.22-1.52-1.22c-1.09,0-1.74,0.96-1.74,2.24c0,1.17,0.58,2.15,1.72,2.15
		c0.71,0,1.35-0.47,1.55-1.26c0.04-0.14,0.05-0.29,0.05-0.46V19.61z"/>
	<path d="M76.92,22.83c-0.28,0.14-0.89,0.34-1.67,0.34c-1.75,0-2.89-1.19-2.89-2.96c0-1.79,1.22-3.08,3.12-3.08
		c0.62,0,1.18,0.16,1.46,0.3l-0.24,0.82c-0.25-0.14-0.65-0.28-1.22-0.28c-1.33,0-2.05,0.98-2.05,2.19c0,1.34,0.86,2.17,2.02,2.17
		c0.6,0,1-0.16,1.3-0.29L76.92,22.83z"/>
	<path d="M81.37,23.05l-0.08-0.73h-0.04c-0.32,0.46-0.95,0.86-1.77,0.86c-1.18,0-1.77-0.83-1.77-1.67c0-1.4,1.25-2.17,3.49-2.16
		v-0.12c0-0.48-0.13-1.34-1.32-1.34c-0.54,0-1.1,0.17-1.51,0.43l-0.24-0.7c0.48-0.31,1.18-0.52,1.91-0.52
		c1.77,0,2.21,1.21,2.21,2.37v2.17c0,0.5,0.02,1,0.1,1.39H81.37z M81.21,20.09c-1.15-0.02-2.46,0.18-2.46,1.31
		c0,0.68,0.46,1.01,1,1.01c0.76,0,1.24-0.48,1.4-0.97c0.04-0.11,0.06-0.23,0.06-0.34V20.09z"/>
	<path d="M83.94,19.05c0-0.68-0.01-1.27-0.05-1.81h0.92l0.04,1.14h0.05c0.26-0.78,0.9-1.27,1.61-1.27c0.12,0,0.2,0.01,0.3,0.04v1
		c-0.11-0.02-0.22-0.04-0.36-0.04c-0.74,0-1.27,0.56-1.42,1.36c-0.02,0.14-0.05,0.31-0.05,0.49v3.09h-1.04V19.05z"/>
	<path d="M87.86,23.05c0.02-0.4,0.05-0.98,0.05-1.5v-7.02h1.04v3.65h0.02c0.37-0.65,1.04-1.07,1.98-1.07c1.44,0,2.46,1.2,2.45,2.96
		c0,2.08-1.31,3.11-2.6,3.11c-0.84,0-1.51-0.32-1.94-1.09h-0.04l-0.05,0.96H87.86z M88.95,20.72c0,0.13,0.02,0.26,0.05,0.38
		c0.2,0.73,0.82,1.24,1.58,1.24c1.1,0,1.76-0.9,1.76-2.23c0-1.16-0.6-2.16-1.73-2.16c-0.72,0-1.39,0.49-1.61,1.3
		c-0.02,0.12-0.06,0.26-0.06,0.43V20.72z"/>
	<path d="M99.99,20.1c0,2.15-1.49,3.08-2.89,3.08c-1.57,0-2.78-1.15-2.78-2.99c0-1.94,1.27-3.08,2.88-3.08
		C98.86,17.11,99.99,18.32,99.99,20.1z M95.39,20.16c0,1.27,0.73,2.23,1.76,2.23c1.01,0,1.76-0.95,1.76-2.25
		c0-0.98-0.49-2.23-1.74-2.23C95.93,17.9,95.39,19.05,95.39,20.16z"/>
	<path d="M101.33,18.81c0-0.6-0.01-1.09-0.05-1.57h0.94l0.06,0.96h0.02c0.29-0.55,0.96-1.09,1.92-1.09c0.8,0,2.05,0.48,2.05,2.47
		v3.47h-1.06V19.7c0-0.94-0.35-1.72-1.34-1.72c-0.7,0-1.24,0.49-1.42,1.08c-0.05,0.13-0.07,0.31-0.07,0.49v3.49h-1.06V18.81z"/>
	<path d="M110.64,23.05v-5h-0.82v-0.8h0.82v-0.31c0-1.54,0.9-2.53,2.53-2.53c0.54,0,1.18,0.17,1.48,0.38l-0.3,0.8
		c-0.25-0.18-0.71-0.34-1.22-0.34c-1.12,0-1.44,0.78-1.44,1.7v0.29h3.37v5.8h-1.04v-5h-2.33v5H110.64z"/>
	<path d="M116.76,23.05c0.02-0.4,0.05-0.98,0.05-1.5v-7.02h1.04v3.65h0.02c0.37-0.65,1.04-1.07,1.98-1.07c1.44,0,2.46,1.2,2.45,2.96
		c0,2.08-1.31,3.11-2.6,3.11c-0.84,0-1.51-0.32-1.94-1.09h-0.04l-0.05,0.96H116.76z M117.85,20.72c0,0.13,0.02,0.26,0.05,0.38
		c0.2,0.73,0.82,1.24,1.58,1.24c1.1,0,1.76-0.9,1.76-2.23c0-1.16-0.6-2.16-1.73-2.16c-0.72,0-1.39,0.49-1.61,1.3
		c-0.02,0.12-0.06,0.26-0.06,0.43V20.72z"/>
	<path d="M124.22,20.34c0.02,1.43,0.94,2.02,1.99,2.02c0.76,0,1.21-0.13,1.61-0.3l0.18,0.75c-0.37,0.17-1.01,0.36-1.93,0.36
		c-1.79,0-2.85-1.18-2.85-2.93s1.03-3.13,2.72-3.13c1.9,0,2.4,1.67,2.4,2.73c0,0.22-0.02,0.38-0.04,0.49H124.22z M127.32,19.58
		c0.01-0.67-0.28-1.71-1.46-1.71c-1.07,0-1.54,0.98-1.62,1.71H127.32z"/>
	<path d="M129.65,19.05c0-0.68-0.01-1.27-0.05-1.81h0.92l0.04,1.14h0.05c0.26-0.78,0.9-1.27,1.61-1.27c0.12,0,0.2,0.01,0.3,0.04v1
		c-0.11-0.02-0.22-0.04-0.36-0.04c-0.74,0-1.27,0.56-1.42,1.36c-0.02,0.14-0.05,0.31-0.05,0.49v3.09h-1.04V19.05z"/>
	<path d="M137.38,15.58v1.67h1.51v0.8h-1.51v3.13c0,0.72,0.2,1.13,0.79,1.13c0.28,0,0.48-0.04,0.61-0.07l0.05,0.79
		c-0.2,0.08-0.53,0.14-0.94,0.14c-0.49,0-0.89-0.16-1.14-0.44c-0.3-0.31-0.41-0.83-0.41-1.51v-3.17h-0.9v-0.8h0.9v-1.39
		L137.38,15.58z"/>
	<path d="M140.08,14.53h1.06v3.62h0.02c0.17-0.3,0.43-0.56,0.76-0.74c0.31-0.18,0.68-0.3,1.08-0.3c0.78,0,2.03,0.48,2.03,2.48v3.45
		h-1.06v-3.33c0-0.94-0.35-1.73-1.34-1.73c-0.68,0-1.22,0.48-1.42,1.06c-0.06,0.14-0.07,0.3-0.07,0.5v3.5h-1.06V14.53z"/>
	<path d="M149.96,23.05l-0.08-0.73h-0.04c-0.32,0.46-0.95,0.86-1.77,0.86c-1.18,0-1.77-0.83-1.77-1.67c0-1.4,1.25-2.17,3.49-2.16
		v-0.12c0-0.48-0.13-1.34-1.32-1.34c-0.54,0-1.1,0.17-1.51,0.43l-0.24-0.7c0.48-0.31,1.18-0.52,1.91-0.52
		c1.77,0,2.21,1.21,2.21,2.37v2.17c0,0.5,0.02,1,0.1,1.39H149.96z M149.8,20.09c-1.15-0.02-2.46,0.18-2.46,1.31
		c0,0.68,0.46,1.01,1,1.01c0.76,0,1.24-0.48,1.4-0.97c0.04-0.11,0.06-0.23,0.06-0.34V20.09z"/>
	<path d="M153.75,15.58v1.67h1.51v0.8h-1.51v3.13c0,0.72,0.2,1.13,0.79,1.13c0.28,0,0.48-0.04,0.61-0.07l0.05,0.79
		c-0.2,0.08-0.53,0.14-0.94,0.14c-0.49,0-0.89-0.16-1.14-0.44c-0.3-0.31-0.41-0.83-0.41-1.51v-3.17h-0.9v-0.8h0.9v-1.39
		L153.75,15.58z"/>
	<path d="M0.71,33.54c0-0.74-0.02-1.34-0.05-1.89h0.95l0.05,1h0.02c0.43-0.71,1.12-1.13,2.06-1.13c1.4,0,2.46,1.19,2.46,2.95
		c0,2.09-1.27,3.12-2.64,3.12c-0.77,0-1.44-0.34-1.79-0.91H1.75v3.15H0.71V33.54z M1.75,35.09c0,0.16,0.02,0.3,0.05,0.43
		c0.19,0.73,0.83,1.24,1.58,1.24c1.12,0,1.76-0.91,1.76-2.24c0-1.16-0.61-2.16-1.73-2.16c-0.72,0-1.39,0.52-1.6,1.31
		c-0.04,0.13-0.07,0.29-0.07,0.43V35.09z"/>
	<path d="M7.54,33.45c0-0.68-0.01-1.27-0.05-1.81h0.92l0.04,1.14h0.05c0.26-0.78,0.9-1.27,1.61-1.27c0.12,0,0.2,0.01,0.3,0.04v1
		c-0.11-0.02-0.22-0.04-0.36-0.04c-0.74,0-1.27,0.56-1.42,1.36c-0.02,0.14-0.05,0.31-0.05,0.49v3.09H7.54V33.45z"/>
	<path d="M16.59,34.5c0,2.15-1.49,3.08-2.89,3.08c-1.57,0-2.78-1.15-2.78-2.99c0-1.94,1.27-3.08,2.88-3.08
		C15.46,31.51,16.59,32.72,16.59,34.5z M11.99,34.56c0,1.27,0.73,2.23,1.76,2.23c1.01,0,1.76-0.95,1.76-2.25
		c0-0.98-0.49-2.23-1.74-2.23C12.53,32.3,11.99,33.45,11.99,34.56z"/>
	<path d="M18.25,31.64l1.14,3.26c0.19,0.53,0.35,1.01,0.47,1.49h0.04c0.13-0.48,0.3-0.96,0.49-1.49l1.13-3.26h1.1l-2.28,5.8h-1.01
		l-2.21-5.8H18.25z"/>
	<path d="M24.79,30.01c0.01,0.36-0.25,0.65-0.67,0.65c-0.37,0-0.64-0.29-0.64-0.65c0-0.37,0.28-0.66,0.66-0.66
		C24.54,29.35,24.79,29.64,24.79,30.01z M23.62,37.45v-5.8h1.06v5.8H23.62z"/>
	<path d="M31.44,28.93v7.02c0,0.52,0.01,1.1,0.05,1.5h-0.95l-0.05-1.01h-0.02c-0.32,0.65-1.03,1.14-1.98,1.14
		c-1.4,0-2.48-1.19-2.48-2.95c-0.01-1.93,1.19-3.12,2.6-3.12c0.89,0,1.49,0.42,1.75,0.89h0.02v-3.47H31.44z M30.38,34.01
		c0-0.13-0.01-0.31-0.05-0.44c-0.16-0.67-0.73-1.22-1.52-1.22c-1.09,0-1.74,0.96-1.74,2.24c0,1.17,0.58,2.15,1.72,2.15
		c0.71,0,1.35-0.47,1.55-1.26c0.04-0.14,0.05-0.29,0.05-0.46V34.01z"/>
	<path d="M33.78,34.74c0.02,1.43,0.94,2.02,1.99,2.02c0.76,0,1.21-0.13,1.61-0.3l0.18,0.75c-0.37,0.17-1.01,0.36-1.93,0.36
		c-1.79,0-2.85-1.18-2.85-2.93s1.03-3.13,2.72-3.13c1.9,0,2.4,1.67,2.4,2.73c0,0.22-0.02,0.38-0.04,0.49H33.78z M36.87,33.98
		c0.01-0.67-0.28-1.71-1.46-1.71c-1.07,0-1.54,0.98-1.62,1.71H36.87z"/>
	<path d="M39.06,36.37c0.31,0.2,0.86,0.42,1.39,0.42c0.77,0,1.13-0.38,1.13-0.86c0-0.5-0.3-0.78-1.08-1.07
		c-1.04-0.37-1.54-0.95-1.54-1.64c0-0.94,0.76-1.7,2-1.7c0.59,0,1.1,0.17,1.43,0.36l-0.26,0.77c-0.23-0.14-0.65-0.34-1.19-0.34
		c-0.62,0-0.97,0.36-0.97,0.79c0,0.48,0.35,0.7,1.1,0.98c1.01,0.38,1.52,0.89,1.52,1.75c0,1.02-0.79,1.74-2.17,1.74
		c-0.64,0-1.22-0.16-1.63-0.4L39.06,36.37z"/>
	<path d="M47.77,29.98v1.67h1.51v0.8h-1.51v3.13c0,0.72,0.2,1.13,0.79,1.13c0.28,0,0.48-0.04,0.61-0.07l0.05,0.79
		c-0.2,0.08-0.53,0.14-0.94,0.14c-0.49,0-0.89-0.16-1.14-0.44c-0.3-0.31-0.41-0.83-0.41-1.51v-3.17h-0.9v-0.8h0.9v-1.39L47.77,29.98
		z"/>
	<path d="M55.65,34.5c0,2.15-1.49,3.08-2.89,3.08c-1.57,0-2.78-1.15-2.78-2.99c0-1.94,1.27-3.08,2.88-3.08
		C54.52,31.51,55.65,32.72,55.65,34.5z M51.05,34.56c0,1.27,0.73,2.23,1.76,2.23c1.01,0,1.76-0.95,1.76-2.25
		c0-0.98-0.49-2.23-1.74-2.23C51.59,32.3,51.05,33.45,51.05,34.56z"/>
	<path d="M56.99,33.45c0-0.68-0.01-1.27-0.05-1.81h0.92l0.04,1.14h0.05c0.26-0.78,0.9-1.27,1.61-1.27c0.12,0,0.2,0.01,0.3,0.04v1
		c-0.11-0.02-0.22-0.04-0.36-0.04c-0.74,0-1.27,0.56-1.42,1.36c-0.02,0.14-0.05,0.31-0.05,0.49v3.09h-1.04V33.45z"/>
	<path d="M60.77,36.37c0.31,0.2,0.86,0.42,1.39,0.42c0.77,0,1.13-0.38,1.13-0.86c0-0.5-0.3-0.78-1.08-1.07
		c-1.04-0.37-1.54-0.95-1.54-1.64c0-0.94,0.76-1.7,2-1.7c0.59,0,1.1,0.17,1.43,0.36l-0.26,0.77c-0.23-0.14-0.65-0.34-1.19-0.34
		c-0.62,0-0.97,0.36-0.97,0.79c0,0.48,0.35,0.7,1.1,0.98c1.01,0.38,1.52,0.89,1.52,1.75c0,1.02-0.79,1.74-2.17,1.74
		c-0.64,0-1.22-0.16-1.63-0.4L60.77,36.37z"/>
	<path d="M66.84,30.01c0.01,0.36-0.25,0.65-0.67,0.65c-0.37,0-0.64-0.29-0.64-0.65c0-0.37,0.28-0.66,0.66-0.66
		C66.59,29.35,66.84,29.64,66.84,30.01z M65.66,37.45v-5.8h1.06v5.8H65.66z"/>
	<path d="M73.72,34.5c0,2.15-1.49,3.08-2.89,3.08c-1.57,0-2.78-1.15-2.78-2.99c0-1.94,1.27-3.08,2.88-3.08
		C72.6,31.51,73.72,32.72,73.72,34.5z M69.12,34.56c0,1.27,0.73,2.23,1.76,2.23c1.01,0,1.76-0.95,1.76-2.25
		c0-0.98-0.49-2.23-1.74-2.23C69.66,32.3,69.12,33.45,69.12,34.56z"/>
	<path d="M75.06,33.21c0-0.6-0.01-1.09-0.05-1.57h0.94l0.06,0.96h0.02c0.29-0.55,0.96-1.09,1.92-1.09c0.8,0,2.05,0.48,2.05,2.47
		v3.47h-1.06V34.1c0-0.94-0.35-1.72-1.34-1.72c-0.7,0-1.24,0.49-1.42,1.08c-0.05,0.13-0.07,0.31-0.07,0.49v3.49h-1.06V33.21z"/>
	<path d="M84.93,37.45l-0.08-0.73h-0.04c-0.32,0.46-0.95,0.86-1.77,0.86c-1.18,0-1.77-0.83-1.77-1.67c0-1.4,1.25-2.17,3.49-2.16
		v-0.12c0-0.48-0.13-1.34-1.32-1.34c-0.54,0-1.1,0.17-1.51,0.43l-0.24-0.7c0.48-0.31,1.18-0.52,1.91-0.52
		c1.77,0,2.21,1.21,2.21,2.37v2.17c0,0.5,0.02,1,0.1,1.39H84.93z M84.78,34.49c-1.15-0.02-2.46,0.18-2.46,1.31
		c0,0.68,0.46,1.01,1,1.01c0.76,0,1.24-0.48,1.4-0.97c0.04-0.11,0.06-0.23,0.06-0.34V34.49z"/>
	<path d="M87.5,28.93h1.06v8.52H87.5V28.93z"/>
	<path d="M92.88,33.45c0-0.68-0.01-1.27-0.05-1.81h0.92l0.04,1.14h0.05c0.26-0.78,0.9-1.27,1.61-1.27c0.12,0,0.2,0.01,0.3,0.04v1
		c-0.11-0.02-0.22-0.04-0.36-0.04c-0.74,0-1.27,0.56-1.42,1.36c-0.02,0.14-0.05,0.31-0.05,0.49v3.09h-1.04V33.45z"/>
	<path d="M98.03,30.01c0.01,0.36-0.25,0.65-0.67,0.65c-0.37,0-0.64-0.29-0.64-0.65c0-0.37,0.28-0.66,0.66-0.66
		C97.77,29.35,98.03,29.64,98.03,30.01z M96.85,37.45v-5.8h1.06v5.8H96.85z"/>
	<path d="M104.66,31.64c-0.02,0.42-0.05,0.89-0.05,1.59v3.37c0,1.33-0.26,2.15-0.83,2.65c-0.56,0.53-1.38,0.7-2.11,0.7
		c-0.7,0-1.46-0.17-1.93-0.48l0.26-0.8c0.38,0.24,0.98,0.46,1.7,0.46c1.08,0,1.87-0.56,1.87-2.03v-0.65h-0.02
		c-0.32,0.54-0.95,0.97-1.85,0.97c-1.44,0-2.47-1.22-2.47-2.83c0-1.97,1.28-3.08,2.61-3.08c1.01,0,1.56,0.53,1.81,1.01h0.02
		l0.05-0.88H104.66z M103.57,33.93c0-0.18-0.01-0.34-0.06-0.48c-0.19-0.61-0.71-1.12-1.48-1.12c-1.01,0-1.73,0.85-1.73,2.2
		c0,1.14,0.58,2.09,1.72,2.09c0.65,0,1.24-0.41,1.46-1.08c0.06-0.18,0.08-0.38,0.08-0.56V33.93z"/>
	<path d="M107.47,30.01c0.01,0.36-0.25,0.65-0.67,0.65c-0.37,0-0.64-0.29-0.64-0.65c0-0.37,0.28-0.66,0.66-0.66
		C107.22,29.35,107.47,29.64,107.47,30.01z M106.29,37.45v-5.8h1.06v5.8H106.29z"/>
	<path d="M114.12,28.93v7.02c0,0.52,0.01,1.1,0.05,1.5h-0.95l-0.05-1.01h-0.02c-0.32,0.65-1.03,1.14-1.98,1.14
		c-1.4,0-2.48-1.19-2.48-2.95c-0.01-1.93,1.19-3.12,2.6-3.12c0.89,0,1.49,0.42,1.75,0.89h0.02v-3.47H114.12z M113.06,34.01
		c0-0.13-0.01-0.31-0.05-0.44c-0.16-0.67-0.73-1.22-1.52-1.22c-1.09,0-1.74,0.96-1.74,2.24c0,1.17,0.58,2.15,1.72,2.15
		c0.71,0,1.35-0.47,1.55-1.26c0.04-0.14,0.05-0.29,0.05-0.46V34.01z"/>
	<path d="M117.05,30.01c0.01,0.36-0.25,0.65-0.67,0.65c-0.37,0-0.64-0.29-0.64-0.65c0-0.37,0.28-0.66,0.66-0.66
		C116.79,29.35,117.05,29.64,117.05,30.01z M115.87,37.45v-5.8h1.06v5.8H115.87z"/>
	<path d="M119.95,29.98v1.67h1.51v0.8h-1.51v3.13c0,0.72,0.2,1.13,0.79,1.13c0.28,0,0.48-0.04,0.61-0.07l0.05,0.79
		c-0.2,0.08-0.53,0.14-0.94,0.14c-0.49,0-0.89-0.16-1.14-0.44c-0.3-0.31-0.41-0.83-0.41-1.51v-3.17h-0.9v-0.8h0.9v-1.39
		L119.95,29.98z"/>
	<path d="M123.14,31.64l1.27,3.43c0.13,0.38,0.28,0.84,0.37,1.19h0.02c0.11-0.35,0.23-0.79,0.37-1.21l1.15-3.41h1.12l-1.58,4.14
		c-0.76,1.99-1.27,3.01-1.99,3.63c-0.52,0.46-1.03,0.64-1.29,0.68l-0.26-0.89c0.26-0.08,0.61-0.25,0.92-0.52
		c0.29-0.23,0.65-0.64,0.89-1.17c0.05-0.11,0.08-0.19,0.08-0.25c0-0.06-0.02-0.14-0.07-0.28l-2.15-5.35H123.14z"/>
	<path d="M134.17,37.45l-0.08-0.73h-0.04c-0.32,0.46-0.95,0.86-1.77,0.86c-1.18,0-1.77-0.83-1.77-1.67c0-1.4,1.25-2.17,3.49-2.16
		v-0.12c0-0.48-0.13-1.34-1.32-1.34c-0.54,0-1.1,0.17-1.51,0.43l-0.24-0.7c0.48-0.31,1.18-0.52,1.91-0.52
		c1.77,0,2.21,1.21,2.21,2.37v2.17c0,0.5,0.02,1,0.1,1.39H134.17z M134.01,34.49c-1.15-0.02-2.46,0.18-2.46,1.31
		c0,0.68,0.46,1.01,1,1.01c0.76,0,1.24-0.48,1.4-0.97c0.04-0.11,0.06-0.23,0.06-0.34V34.49z"/>
	<path d="M136.74,28.93h1.06v8.52h-1.06V28.93z"/>
	<path d="M144.82,34.5c0,2.15-1.49,3.08-2.89,3.08c-1.57,0-2.78-1.15-2.78-2.99c0-1.94,1.27-3.08,2.88-3.08
		C143.7,31.51,144.82,32.72,144.82,34.5z M140.22,34.56c0,1.27,0.73,2.23,1.76,2.23c1.01,0,1.76-0.95,1.76-2.25
		c0-0.98-0.49-2.23-1.74-2.23C140.76,32.3,140.22,33.45,140.22,34.56z"/>
	<path d="M146.16,33.21c0-0.6-0.01-1.09-0.05-1.57h0.94l0.06,0.96h0.02c0.29-0.55,0.96-1.09,1.92-1.09c0.8,0,2.05,0.48,2.05,2.47
		v3.47h-1.06V34.1c0-0.94-0.35-1.72-1.34-1.72c-0.7,0-1.24,0.49-1.42,1.08c-0.05,0.13-0.07,0.31-0.07,0.49v3.49h-1.06V33.21z"/>
	<path d="M157.82,31.64c-0.02,0.42-0.05,0.89-0.05,1.59v3.37c0,1.33-0.26,2.15-0.83,2.65c-0.56,0.53-1.38,0.7-2.11,0.7
		c-0.7,0-1.46-0.17-1.93-0.48l0.26-0.8c0.38,0.24,0.98,0.46,1.7,0.46c1.08,0,1.87-0.56,1.87-2.03v-0.65h-0.02
		c-0.32,0.54-0.95,0.97-1.85,0.97c-1.44,0-2.47-1.22-2.47-2.83c0-1.97,1.28-3.08,2.61-3.08c1.01,0,1.56,0.53,1.81,1.01h0.02
		l0.05-0.88H157.82z M156.73,33.93c0-0.18-0.01-0.34-0.06-0.48c-0.19-0.61-0.71-1.12-1.48-1.12c-1.01,0-1.73,0.85-1.73,2.2
		c0,1.14,0.58,2.09,1.72,2.09c0.65,0,1.24-0.41,1.46-1.08c0.06-0.18,0.08-0.38,0.08-0.56V33.93z"/>
	<path d="M1.13,46.04l0.77,2.95c0.17,0.65,0.32,1.25,0.43,1.85h0.04c0.13-0.59,0.32-1.21,0.52-1.83l0.95-2.96h0.89l0.9,2.9
		c0.22,0.7,0.38,1.31,0.52,1.89h0.04c0.1-0.59,0.25-1.2,0.44-1.88l0.83-2.91h1.04l-1.87,5.8H5.65l-0.89-2.77
		c-0.2-0.65-0.37-1.22-0.52-1.91H4.22c-0.14,0.7-0.32,1.3-0.53,1.92l-0.94,2.76H1.8l-1.75-5.8H1.13z"/>
	<path d="M10.71,44.41c0.01,0.36-0.25,0.65-0.67,0.65c-0.37,0-0.64-0.29-0.64-0.65c0-0.37,0.28-0.66,0.66-0.66
		C10.46,43.75,10.71,44.04,10.71,44.41z M9.54,51.85v-5.8h1.06v5.8H9.54z"/>
	<path d="M13.62,44.38v1.67h1.51v0.8h-1.51v3.13c0,0.72,0.2,1.13,0.79,1.13c0.28,0,0.48-0.04,0.61-0.07l0.05,0.79
		c-0.2,0.08-0.53,0.14-0.94,0.14c-0.49,0-0.89-0.16-1.14-0.44c-0.3-0.31-0.41-0.83-0.41-1.51v-3.17h-0.9v-0.8h0.9v-1.39L13.62,44.38
		z"/>
	<path d="M16.32,43.33h1.06v3.62h0.02c0.17-0.3,0.43-0.56,0.76-0.74c0.31-0.18,0.68-0.3,1.08-0.3c0.78,0,2.03,0.48,2.03,2.48v3.45
		h-1.06v-3.33c0-0.94-0.35-1.73-1.34-1.73c-0.68,0-1.22,0.48-1.42,1.06c-0.06,0.14-0.07,0.3-0.07,0.5v3.5h-1.06V43.33z"/>
	<path d="M25.52,43.33h1.06v8.52h-1.06V43.33z"/>
	<path d="M33.61,48.9c0,2.15-1.49,3.08-2.89,3.08c-1.57,0-2.78-1.15-2.78-2.99c0-1.94,1.27-3.08,2.88-3.08
		C32.48,45.91,33.61,47.12,33.61,48.9z M29,48.96c0,1.27,0.73,2.23,1.76,2.23c1.01,0,1.76-0.95,1.76-2.25
		c0-0.98-0.49-2.23-1.74-2.23C29.54,46.7,29,47.85,29,48.96z"/>
	<path d="M34.94,47.61c0-0.6-0.01-1.09-0.05-1.57h0.94L35.89,47h0.02c0.29-0.55,0.96-1.09,1.92-1.09c0.8,0,2.05,0.48,2.05,2.47v3.47
		h-1.06V48.5c0-0.94-0.35-1.72-1.34-1.72c-0.7,0-1.24,0.49-1.42,1.08C36.02,48,36,48.18,36,48.36v3.49h-1.06V47.61z"/>
	<path d="M46.61,46.04c-0.02,0.42-0.05,0.89-0.05,1.59v3.37c0,1.33-0.26,2.15-0.83,2.65c-0.56,0.53-1.38,0.7-2.11,0.7
		c-0.7,0-1.46-0.17-1.93-0.48l0.26-0.8c0.38,0.24,0.98,0.46,1.7,0.46c1.08,0,1.87-0.56,1.87-2.03v-0.65H45.5
		c-0.32,0.54-0.95,0.97-1.85,0.97c-1.44,0-2.47-1.22-2.47-2.83c0-1.97,1.28-3.08,2.61-3.08c1.01,0,1.56,0.53,1.81,1.01h0.02
		l0.05-0.88H46.61z M45.51,48.33c0-0.18-0.01-0.34-0.06-0.48c-0.19-0.61-0.71-1.12-1.48-1.12c-1.01,0-1.73,0.85-1.73,2.2
		c0,1.14,0.58,2.09,1.72,2.09c0.65,0,1.24-0.41,1.46-1.08c0.06-0.18,0.08-0.38,0.08-0.56V48.33z"/>
	<path d="M49.42,44.41c0.01,0.36-0.25,0.65-0.67,0.65c-0.37,0-0.64-0.29-0.64-0.65c0-0.37,0.28-0.66,0.66-0.66
		C49.16,43.75,49.42,44.04,49.42,44.41z M48.24,51.85v-5.8h1.06v5.8H48.24z"/>
	<path d="M52.32,44.38v1.67h1.51v0.8h-1.51v3.13c0,0.72,0.2,1.13,0.79,1.13c0.28,0,0.48-0.04,0.61-0.07l0.05,0.79
		c-0.2,0.08-0.53,0.14-0.94,0.14c-0.49,0-0.89-0.16-1.14-0.44c-0.3-0.31-0.41-0.83-0.41-1.51v-3.17h-0.9v-0.8h0.9v-1.39L52.32,44.38
		z"/>
	<path d="M59.88,50.26c0,0.6,0.01,1.13,0.05,1.58h-0.94l-0.06-0.95h-0.02c-0.28,0.47-0.89,1.08-1.92,1.08c-0.91,0-2-0.5-2-2.54
		v-3.39h1.06v3.21c0,1.1,0.34,1.85,1.3,1.85c0.71,0,1.2-0.49,1.39-0.96c0.06-0.16,0.1-0.35,0.1-0.54v-3.56h1.06V50.26z"/>
	<path d="M66.65,43.33v7.02c0,0.52,0.01,1.1,0.05,1.5h-0.95l-0.05-1.01h-0.02c-0.32,0.65-1.03,1.14-1.98,1.14
		c-1.4,0-2.48-1.19-2.48-2.95c-0.01-1.93,1.19-3.12,2.6-3.12c0.89,0,1.49,0.42,1.75,0.89h0.02v-3.47H66.65z M65.59,48.41
		c0-0.13-0.01-0.31-0.05-0.44c-0.16-0.67-0.73-1.22-1.52-1.22c-1.09,0-1.74,0.96-1.74,2.24c0,1.17,0.58,2.15,1.72,2.15
		c0.71,0,1.35-0.47,1.55-1.26c0.04-0.14,0.05-0.29,0.05-0.46V48.41z"/>
	<path d="M69.58,44.41c0.01,0.36-0.25,0.65-0.67,0.65c-0.37,0-0.64-0.29-0.64-0.65c0-0.37,0.28-0.66,0.66-0.66
		C69.32,43.75,69.58,44.04,69.58,44.41z M68.4,51.85v-5.8h1.06v5.8H68.4z"/>
	<path d="M71.21,47.61c0-0.6-0.01-1.09-0.05-1.57h0.94L72.16,47h0.02c0.29-0.55,0.96-1.09,1.92-1.09c0.8,0,2.05,0.48,2.05,2.47v3.47
		h-1.06V48.5c0-0.94-0.35-1.72-1.34-1.72c-0.7,0-1.24,0.49-1.42,1.08c-0.05,0.13-0.07,0.31-0.07,0.49v3.49h-1.06V47.61z"/>
	<path d="M81.08,51.85L81,51.12h-0.04c-0.32,0.46-0.95,0.86-1.77,0.86c-1.18,0-1.77-0.83-1.77-1.67c0-1.4,1.25-2.17,3.49-2.16v-0.12
		c0-0.48-0.13-1.34-1.32-1.34c-0.54,0-1.1,0.17-1.51,0.43l-0.24-0.7c0.48-0.31,1.18-0.52,1.91-0.52c1.77,0,2.21,1.21,2.21,2.37v2.17
		c0,0.5,0.02,1,0.1,1.39H81.08z M80.93,48.89c-1.15-0.02-2.46,0.18-2.46,1.31c0,0.68,0.46,1.01,1,1.01c0.76,0,1.24-0.48,1.4-0.97
		c0.04-0.11,0.06-0.23,0.06-0.34V48.89z"/>
	<path d="M83.65,43.33h1.06v8.52h-1.06V43.33z"/>
	<path d="M89.03,47.94c0-0.74-0.02-1.34-0.05-1.89h0.95l0.05,1H90c0.43-0.71,1.12-1.13,2.06-1.13c1.4,0,2.46,1.19,2.46,2.95
		c0,2.09-1.27,3.12-2.64,3.12c-0.77,0-1.44-0.34-1.79-0.91h-0.02v3.15h-1.04V47.94z M90.07,49.49c0,0.16,0.02,0.3,0.05,0.43
		c0.19,0.73,0.83,1.24,1.58,1.24c1.12,0,1.76-0.91,1.76-2.24c0-1.16-0.61-2.16-1.73-2.16c-0.72,0-1.39,0.52-1.6,1.31
		c-0.04,0.13-0.07,0.29-0.07,0.43V49.49z"/>
	<path d="M101.11,48.9c0,2.15-1.49,3.08-2.89,3.08c-1.57,0-2.78-1.15-2.78-2.99c0-1.94,1.27-3.08,2.88-3.08
		C99.98,45.91,101.11,47.12,101.11,48.9z M96.5,48.96c0,1.27,0.73,2.23,1.76,2.23c1.01,0,1.76-0.95,1.76-2.25
		c0-0.98-0.49-2.23-1.74-2.23C97.04,46.7,96.5,47.85,96.5,48.96z"/>
	<path d="M102.44,47.94c0-0.74-0.02-1.34-0.05-1.89h0.95l0.05,1h0.02c0.43-0.71,1.12-1.13,2.06-1.13c1.4,0,2.46,1.19,2.46,2.95
		c0,2.09-1.27,3.12-2.64,3.12c-0.77,0-1.44-0.34-1.79-0.91h-0.02v3.15h-1.04V47.94z M103.49,49.49c0,0.16,0.02,0.3,0.05,0.43
		c0.19,0.73,0.83,1.24,1.58,1.24c1.12,0,1.76-0.91,1.76-2.24c0-1.16-0.61-2.16-1.73-2.16c-0.72,0-1.39,0.52-1.6,1.31
		c-0.04,0.13-0.07,0.29-0.07,0.43V49.49z"/>
	<path d="M115.03,51.85l-0.08-0.73h-0.04c-0.32,0.46-0.95,0.86-1.77,0.86c-1.18,0-1.77-0.83-1.77-1.67c0-1.4,1.25-2.17,3.49-2.16
		v-0.12c0-0.48-0.13-1.34-1.32-1.34c-0.54,0-1.1,0.17-1.51,0.43l-0.24-0.7c0.48-0.31,1.18-0.52,1.91-0.52
		c1.77,0,2.21,1.21,2.21,2.37v2.17c0,0.5,0.02,1,0.1,1.39H115.03z M114.87,48.89c-1.15-0.02-2.46,0.18-2.46,1.31
		c0,0.68,0.46,1.01,1,1.01c0.76,0,1.24-0.48,1.4-0.97c0.04-0.11,0.06-0.23,0.06-0.34V48.89z"/>
	<path d="M117.6,47.61c0-0.6-0.01-1.09-0.05-1.57h0.94l0.06,0.96h0.02c0.29-0.55,0.96-1.09,1.92-1.09c0.8,0,2.05,0.48,2.05,2.47
		v3.47h-1.06V48.5c0-0.94-0.35-1.72-1.34-1.72c-0.7,0-1.24,0.49-1.42,1.08c-0.05,0.13-0.07,0.31-0.07,0.49v3.49h-1.06V47.61z"/>
	<path d="M129.27,43.33v7.02c0,0.52,0.01,1.1,0.05,1.5h-0.95l-0.05-1.01h-0.02c-0.32,0.65-1.03,1.14-1.98,1.14
		c-1.4,0-2.48-1.19-2.48-2.95c-0.01-1.93,1.19-3.12,2.6-3.12c0.89,0,1.49,0.42,1.75,0.89h0.02v-3.47H129.27z M128.22,48.41
		c0-0.13-0.01-0.31-0.05-0.44c-0.16-0.67-0.73-1.22-1.52-1.22c-1.09,0-1.74,0.96-1.74,2.24c0,1.17,0.58,2.15,1.72,2.15
		c0.71,0,1.35-0.47,1.55-1.26c0.04-0.14,0.05-0.29,0.05-0.46V48.41z"/>
	<path d="M4.85,66.03c-0.28,0.14-0.89,0.34-1.67,0.34c-1.75,0-2.89-1.19-2.89-2.96c0-1.79,1.22-3.08,3.12-3.08
		c0.62,0,1.18,0.16,1.46,0.3l-0.24,0.82c-0.25-0.14-0.65-0.28-1.22-0.28c-1.33,0-2.05,0.98-2.05,2.19c0,1.34,0.86,2.17,2.02,2.17
		c0.6,0,1-0.16,1.3-0.29L4.85,66.03z"/>
	<path d="M11.26,63.3c0,2.15-1.49,3.08-2.89,3.08c-1.57,0-2.78-1.15-2.78-2.99c0-1.94,1.27-3.08,2.88-3.08
		C10.14,60.31,11.26,61.52,11.26,63.3z M6.66,63.36c0,1.27,0.73,2.23,1.76,2.23c1.01,0,1.76-0.95,1.76-2.25
		c0-0.98-0.49-2.23-1.74-2.23C7.2,61.1,6.66,62.25,6.66,63.36z"/>
	<path d="M12.6,62.01c0-0.6-0.01-1.09-0.05-1.57h0.92l0.05,0.94h0.04c0.32-0.55,0.86-1.07,1.82-1.07c0.79,0,1.39,0.48,1.64,1.16
		h0.02c0.18-0.32,0.41-0.58,0.65-0.76c0.35-0.26,0.73-0.41,1.28-0.41c0.77,0,1.91,0.5,1.91,2.52v3.42h-1.03v-3.29
		c0-1.12-0.41-1.79-1.26-1.79c-0.6,0-1.07,0.44-1.25,0.96c-0.05,0.14-0.08,0.33-0.08,0.53v3.59h-1.03v-3.48
		c0-0.92-0.41-1.59-1.21-1.59c-0.66,0-1.14,0.53-1.31,1.06c-0.06,0.16-0.08,0.34-0.08,0.52v3.5H12.6V62.01z"/>
	<path d="M22.61,62.34c0-0.74-0.02-1.34-0.05-1.89h0.95l0.05,1h0.02c0.43-0.71,1.12-1.13,2.06-1.13c1.4,0,2.46,1.19,2.46,2.95
		c0,2.09-1.27,3.12-2.64,3.12c-0.77,0-1.44-0.34-1.79-0.91h-0.02v3.15h-1.04V62.34z M23.65,63.89c0,0.16,0.02,0.3,0.05,0.43
		c0.19,0.73,0.83,1.24,1.58,1.24c1.12,0,1.76-0.91,1.76-2.24c0-1.16-0.61-2.16-1.73-2.16c-0.72,0-1.39,0.52-1.6,1.31
		c-0.04,0.13-0.07,0.29-0.07,0.43V63.89z"/>
	<path d="M34.69,63.3c0,2.15-1.49,3.08-2.89,3.08c-1.57,0-2.78-1.15-2.78-2.99c0-1.94,1.27-3.08,2.88-3.08
		C33.56,60.31,34.69,61.52,34.69,63.3z M30.08,63.36c0,1.27,0.73,2.23,1.76,2.23c1.01,0,1.76-0.95,1.76-2.25
		c0-0.98-0.49-2.23-1.74-2.23C30.62,61.1,30.08,62.25,30.08,63.36z"/>
	<path d="M35.88,65.17c0.31,0.2,0.86,0.42,1.39,0.42c0.77,0,1.13-0.38,1.13-0.86c0-0.5-0.3-0.78-1.08-1.07
		c-1.04-0.37-1.54-0.95-1.54-1.64c0-0.94,0.76-1.7,2-1.7c0.59,0,1.1,0.17,1.43,0.36l-0.26,0.77c-0.23-0.14-0.65-0.34-1.19-0.34
		c-0.62,0-0.97,0.36-0.97,0.79c0,0.48,0.35,0.7,1.1,0.98c1.01,0.38,1.52,0.89,1.52,1.75c0,1.02-0.79,1.74-2.17,1.74
		c-0.64,0-1.22-0.16-1.63-0.4L35.88,65.17z"/>
	<path d="M45.63,64.67c0,0.6,0.01,1.13,0.05,1.58h-0.94l-0.06-0.95h-0.02c-0.28,0.47-0.89,1.08-1.92,1.08c-0.91,0-2-0.5-2-2.54
		v-3.39h1.06v3.21c0,1.1,0.34,1.85,1.3,1.85c0.71,0,1.2-0.49,1.39-0.96c0.06-0.16,0.1-0.35,0.1-0.54v-3.56h1.06V64.67z"/>
	<path d="M47.39,62.25c0-0.68-0.01-1.27-0.05-1.81h0.92l0.04,1.14h0.05c0.26-0.78,0.9-1.27,1.61-1.27c0.12,0,0.2,0.01,0.3,0.04v1
		c-0.11-0.02-0.22-0.04-0.36-0.04c-0.74,0-1.27,0.56-1.42,1.36c-0.02,0.14-0.05,0.31-0.05,0.49v3.09h-1.04V62.25z"/>
	<path d="M51.78,63.54c0.02,1.43,0.94,2.02,1.99,2.02c0.76,0,1.21-0.13,1.61-0.3l0.18,0.75c-0.37,0.17-1.01,0.36-1.93,0.36
		c-1.79,0-2.85-1.18-2.85-2.93s1.03-3.13,2.72-3.13c1.9,0,2.4,1.67,2.4,2.73c0,0.22-0.02,0.38-0.04,0.49H51.78z M54.87,62.78
		c0.01-0.67-0.28-1.72-1.46-1.72c-1.07,0-1.54,0.98-1.62,1.72H54.87z"/>
	<path d="M62.96,66.25l-0.08-0.73h-0.04c-0.32,0.46-0.95,0.86-1.77,0.86c-1.18,0-1.77-0.83-1.77-1.67c0-1.4,1.25-2.17,3.49-2.16
		v-0.12c0-0.48-0.13-1.34-1.32-1.34c-0.54,0-1.1,0.17-1.51,0.43l-0.24-0.7c0.48-0.31,1.18-0.52,1.91-0.52
		c1.77,0,2.21,1.21,2.21,2.37v2.17c0,0.5,0.02,1,0.1,1.39H62.96z M62.8,63.29c-1.15-0.02-2.46,0.18-2.46,1.31
		c0,0.68,0.46,1.01,1,1.01c0.76,0,1.24-0.48,1.4-0.97c0.04-0.11,0.06-0.23,0.06-0.34V63.29z"/>
	<path d="M66.75,58.78v1.67h1.51v0.8h-1.51v3.13c0,0.72,0.2,1.13,0.79,1.13c0.28,0,0.48-0.04,0.61-0.07l0.05,0.79
		c-0.2,0.08-0.53,0.14-0.94,0.14c-0.49,0-0.89-0.16-1.14-0.44c-0.3-0.31-0.41-0.83-0.41-1.51v-3.17h-0.9v-0.8h0.9v-1.39L66.75,58.78
		z"/>
	<path d="M71.85,65.17c0.31,0.2,0.86,0.42,1.39,0.42c0.77,0,1.13-0.38,1.13-0.86c0-0.5-0.3-0.78-1.08-1.07
		c-1.04-0.37-1.54-0.95-1.54-1.64c0-0.94,0.76-1.7,2-1.7c0.59,0,1.1,0.17,1.43,0.36l-0.26,0.77c-0.23-0.14-0.65-0.34-1.19-0.34
		c-0.62,0-0.97,0.36-0.97,0.79c0,0.48,0.35,0.7,1.1,0.98c1.01,0.38,1.52,0.89,1.52,1.75c0,1.02-0.79,1.74-2.17,1.74
		c-0.64,0-1.22-0.16-1.63-0.4L71.85,65.17z"/>
	<path d="M76.75,62.34c0-0.74-0.02-1.34-0.05-1.89h0.95l0.05,1h0.02c0.43-0.71,1.12-1.13,2.06-1.13c1.4,0,2.46,1.19,2.46,2.95
		c0,2.09-1.27,3.12-2.64,3.12c-0.77,0-1.44-0.34-1.79-0.91h-0.02v3.15h-1.04V62.34z M77.79,63.89c0,0.16,0.02,0.3,0.05,0.43
		c0.19,0.73,0.83,1.24,1.58,1.24c1.12,0,1.76-0.91,1.76-2.24c0-1.16-0.61-2.16-1.73-2.16c-0.72,0-1.39,0.52-1.6,1.31
		c-0.04,0.13-0.07,0.29-0.07,0.43V63.89z"/>
	<path d="M84.17,63.54c0.02,1.43,0.94,2.02,1.99,2.02c0.76,0,1.21-0.13,1.61-0.3l0.18,0.75c-0.37,0.17-1.01,0.36-1.93,0.36
		c-1.79,0-2.85-1.18-2.85-2.93s1.03-3.13,2.72-3.13c1.9,0,2.4,1.67,2.4,2.73c0,0.22-0.02,0.38-0.04,0.49H84.17z M87.26,62.78
		c0.01-0.67-0.28-1.72-1.46-1.72c-1.07,0-1.54,0.98-1.62,1.72H87.26z"/>
	<path d="M90.18,63.54c0.02,1.43,0.94,2.02,1.99,2.02c0.76,0,1.21-0.13,1.61-0.3l0.18,0.75c-0.37,0.17-1.01,0.36-1.93,0.36
		c-1.79,0-2.85-1.18-2.85-2.93s1.03-3.13,2.72-3.13c1.9,0,2.4,1.67,2.4,2.73c0,0.22-0.02,0.38-0.04,0.49H90.18z M93.27,62.78
		c0.01-0.67-0.28-1.72-1.46-1.72c-1.07,0-1.54,0.98-1.62,1.72H93.27z"/>
	<path d="M100.61,57.73v7.02c0,0.52,0.01,1.1,0.05,1.5h-0.95l-0.05-1.01h-0.02c-0.32,0.65-1.03,1.14-1.98,1.14
		c-1.4,0-2.48-1.19-2.48-2.95c-0.01-1.93,1.19-3.12,2.6-3.12c0.89,0,1.49,0.42,1.75,0.89h0.02v-3.47H100.61z M99.56,62.81
		c0-0.13-0.01-0.31-0.05-0.44c-0.16-0.67-0.73-1.22-1.52-1.22c-1.09,0-1.74,0.96-1.74,2.24c0,1.17,0.58,2.15,1.72,2.15
		c0.71,0,1.35-0.47,1.55-1.26c0.04-0.14,0.05-0.29,0.05-0.46V62.81z"/>
	<path d="M102,65.62c0-0.44,0.3-0.75,0.72-0.75s0.71,0.31,0.71,0.75c0,0.43-0.28,0.76-0.72,0.76C102.29,66.38,102,66.06,102,65.62z"
		/>
</g>
</svg>
