<!-- Generator: Adobe Illustrator 23.1.1, SVG Export Plug-In  -->
<svg version="1.1" xmlns="http://www.w3.org/2000/svg" xmlns:xlink="http://www.w3.org/1999/xlink" x="0px" y="0px" width="42.83px"
	 height="9.02px" viewBox="0 0 42.83 9.02" style="enable-background:new 0 0 42.83 9.02;" xml:space="preserve">
<defs>
</defs>
<g>
	<path d="M6.71,0.8H6.67L3.48,6.05L0.29,0.8H0.25v8.08H0V0.5h0.4l3.07,5.04H3.5L6.56,0.5h0.4v8.38H6.71V0.8z"/>
	<path d="M11.52,9.02c-0.8,0-1.42-0.27-1.87-0.8C9.2,7.69,8.98,6.9,8.98,5.84C8.98,4.8,9.2,4,9.64,3.47c0.44-0.54,1.05-0.8,1.84-0.8
		c0.37,0,0.7,0.07,1,0.21s0.56,0.34,0.77,0.61c0.22,0.26,0.38,0.58,0.5,0.95c0.12,0.37,0.18,0.79,0.18,1.25v0.12H9.25v0.32
		c0,0.82,0.2,1.47,0.59,1.95s0.95,0.71,1.68,0.71c1.02,0,1.72-0.5,2.1-1.49l0.22,0.08c-0.18,0.5-0.47,0.9-0.86,1.19
		C12.59,8.88,12.1,9.02,11.52,9.02z M11.47,2.89c-0.71,0-1.26,0.24-1.64,0.71S9.25,4.73,9.25,5.56v0.02h4.4V5.53
		c0-0.4-0.05-0.76-0.16-1.09c-0.1-0.32-0.25-0.6-0.44-0.83c-0.19-0.23-0.42-0.41-0.69-0.53C12.1,2.95,11.8,2.89,11.47,2.89z"/>
	<path d="M15.91,8.88V2.81h0.25v1.05h0.04c0.07-0.15,0.16-0.28,0.26-0.41c0.1-0.12,0.22-0.24,0.37-0.33
		c0.15-0.1,0.33-0.17,0.53-0.23c0.21-0.06,0.45-0.08,0.73-0.08h0.49v0.24h-0.53c-0.25,0-0.49,0.03-0.71,0.1
		c-0.23,0.07-0.43,0.17-0.61,0.31s-0.32,0.31-0.42,0.52c-0.1,0.21-0.16,0.45-0.16,0.73v4.18H15.91z"/>
	<path d="M20.12,0.8c-0.1,0-0.18-0.03-0.22-0.08c-0.04-0.05-0.06-0.11-0.06-0.17V0.47c0-0.06,0.02-0.12,0.06-0.17
		c0.04-0.05,0.11-0.08,0.22-0.08s0.18,0.03,0.22,0.08c0.04,0.05,0.06,0.11,0.06,0.17v0.08c0,0.06-0.02,0.12-0.06,0.17
		C20.3,0.78,20.23,0.8,20.12,0.8z M20,2.81h0.25v6.07H20V2.81z"/>
	<path d="M26.78,7.94h-0.04c-0.06,0.14-0.15,0.27-0.26,0.4s-0.25,0.24-0.41,0.34c-0.16,0.1-0.35,0.18-0.57,0.25
		c-0.22,0.06-0.46,0.1-0.72,0.1c-0.8,0-1.42-0.26-1.87-0.79c-0.45-0.53-0.67-1.32-0.67-2.39s0.22-1.86,0.67-2.39
		c0.45-0.53,1.07-0.79,1.87-0.79c0.26,0,0.5,0.03,0.72,0.1c0.22,0.06,0.41,0.15,0.57,0.25s0.3,0.22,0.41,0.35
		c0.11,0.13,0.2,0.26,0.26,0.39h0.04V0h0.25v8.88h-0.25V7.94z M24.78,8.8c0.26,0,0.52-0.04,0.76-0.12c0.24-0.08,0.45-0.19,0.64-0.34
		c0.19-0.14,0.34-0.32,0.44-0.52c0.11-0.2,0.16-0.42,0.16-0.66V4.52c0-0.24-0.05-0.46-0.16-0.66c-0.11-0.2-0.26-0.37-0.44-0.52
		c-0.19-0.14-0.4-0.26-0.64-0.34c-0.24-0.08-0.49-0.12-0.76-0.12c-0.73,0-1.29,0.24-1.68,0.71s-0.59,1.13-0.59,1.95v0.58
		c0,0.82,0.2,1.47,0.59,1.95S24.05,8.8,24.78,8.8z"/>
	<path d="M29.67,0.8c-0.1,0-0.18-0.03-0.22-0.08c-0.04-0.05-0.06-0.11-0.06-0.17V0.47c0-0.06,0.02-0.12,0.06-0.17
		c0.04-0.05,0.11-0.08,0.22-0.08s0.18,0.03,0.22,0.08c0.04,0.05,0.06,0.11,0.06,0.17v0.08c0,0.06-0.02,0.12-0.06,0.17
		C29.85,0.78,29.78,0.8,29.67,0.8z M29.55,2.81h0.25v6.07h-0.25V2.81z"/>
	<path d="M36.13,8.88c-0.23,0-0.35-0.12-0.35-0.35V7.96h-0.04c-0.15,0.29-0.38,0.54-0.69,0.75c-0.31,0.21-0.74,0.32-1.3,0.32
		c-0.62,0-1.11-0.15-1.45-0.44S31.8,7.87,31.8,7.32c0-0.25,0.04-0.48,0.11-0.7c0.08-0.22,0.2-0.4,0.38-0.55
		c0.18-0.15,0.41-0.27,0.7-0.36s0.65-0.13,1.09-0.13h1.7V4.69c0-0.62-0.15-1.08-0.44-1.37s-0.72-0.43-1.29-0.43
		c-0.46,0-0.83,0.09-1.13,0.27c-0.3,0.18-0.53,0.47-0.7,0.87L32,3.94c0.17-0.39,0.41-0.7,0.73-0.93c0.32-0.23,0.76-0.34,1.33-0.34
		c0.66,0,1.16,0.17,1.49,0.51c0.33,0.34,0.49,0.83,0.49,1.48v4h1.02v0.23H36.13z M33.75,8.8c0.27,0,0.53-0.04,0.77-0.11
		c0.24-0.07,0.46-0.18,0.64-0.32c0.18-0.14,0.33-0.32,0.44-0.53s0.17-0.46,0.17-0.74V5.8h-1.69c-0.71,0-1.23,0.12-1.54,0.37
		c-0.32,0.25-0.47,0.57-0.47,0.97V7.5c0,0.42,0.16,0.75,0.47,0.97C32.85,8.69,33.26,8.8,33.75,8.8z"/>
	<path d="M38.55,8.88V2.81h0.25v0.91h0.04c0.1-0.27,0.31-0.52,0.62-0.73c0.31-0.22,0.73-0.32,1.28-0.32c0.68,0,1.2,0.2,1.55,0.59
		c0.36,0.39,0.53,0.97,0.53,1.73v3.9h-0.25V5.03c0-0.74-0.16-1.29-0.48-1.63c-0.32-0.34-0.78-0.51-1.38-0.51
		c-0.25,0-0.49,0.03-0.72,0.1c-0.23,0.07-0.44,0.17-0.61,0.31c-0.18,0.14-0.32,0.31-0.42,0.52c-0.1,0.21-0.16,0.45-0.16,0.72v4.34
		H38.55z"/>
</g>
</svg>
