<!-- Generator: Adobe Illustrator 23.1.1, SVG Export Plug-In  -->
<svg version="1.1" xmlns="http://www.w3.org/2000/svg" xmlns:xlink="http://www.w3.org/1999/xlink" x="0px" y="0px"
	 width="115.72px" height="20.22px" viewBox="0 0 115.72 20.22" style="enable-background:new 0 0 115.72 20.22;"
	 xml:space="preserve">
<style type="text/css">
	.st0{fill:#FFFFFF;}
</style>
<defs>
</defs>
<g>
	<path class="st0" d="M7.42,20.22c-1.72,0-3.17-0.29-4.37-0.88C1.86,18.74,0.84,17.98,0,17.05l2.8-2.83
		c1.33,1.48,2.96,2.22,4.9,2.22c1.04,0,1.82-0.21,2.32-0.64s0.76-0.99,0.76-1.69c0-0.54-0.15-0.98-0.45-1.35
		c-0.3-0.36-0.91-0.61-1.82-0.74l-1.93-0.25c-2.07-0.26-3.59-0.89-4.55-1.88C1.07,8.91,0.59,7.59,0.59,5.94
		c0-0.88,0.17-1.68,0.5-2.41C1.43,2.8,1.91,2.18,2.53,1.65c0.62-0.52,1.39-0.93,2.3-1.22C5.74,0.14,6.77,0,7.92,0
		c1.47,0,2.77,0.23,3.89,0.7s2.08,1.15,2.88,2.05l-2.83,2.86c-0.47-0.54-1.03-0.97-1.69-1.32c-0.66-0.34-1.5-0.51-2.51-0.51
		c-0.95,0-1.66,0.17-2.13,0.5c-0.47,0.33-0.7,0.79-0.7,1.39c0,0.67,0.18,1.15,0.55,1.44c0.36,0.3,0.96,0.51,1.78,0.64L9.1,8.05
		c2.02,0.32,3.51,0.94,4.48,1.86c0.97,0.92,1.46,2.24,1.46,3.94c0,0.93-0.17,1.79-0.5,2.58c-0.34,0.78-0.83,1.46-1.47,2.02
		c-0.64,0.56-1.44,1-2.39,1.3S8.63,20.22,7.42,20.22z"/>
	<path class="st0" d="M20.58,19.88v-3.39h2.52V3.72h-2.52V0.34h9.3v3.39h-2.52v12.77h2.52v3.39H20.58z"/>
	<path class="st0" d="M36.2,19.88V0.34h13.3v3.78h-9.04v3.98h7.76v3.78h-7.76v4.23h9.04v3.78H36.2z"/>
	<path class="st0" d="M60.23,19.88h-4.26V0.34h9.27c0.9,0,1.71,0.15,2.44,0.45c0.73,0.3,1.35,0.72,1.86,1.27
		c0.51,0.55,0.91,1.21,1.19,1.97c0.28,0.77,0.42,1.61,0.42,2.55c0,1.33-0.29,2.48-0.88,3.47c-0.59,0.99-1.48,1.71-2.67,2.16
		l3.84,7.67H66.7l-3.42-7.17h-3.05V19.88z M64.71,9.13c0.63,0,1.13-0.16,1.5-0.49c0.36-0.33,0.55-0.81,0.55-1.44V5.96
		c0-0.63-0.18-1.12-0.55-1.44c-0.36-0.33-0.86-0.49-1.5-0.49h-4.48v5.1H64.71z"/>
	<path class="st0" d="M81.87,19.88h-4.26V0.34h9.27c0.9,0,1.71,0.15,2.44,0.45c0.73,0.3,1.35,0.72,1.86,1.27
		c0.51,0.55,0.91,1.21,1.19,1.97c0.28,0.77,0.42,1.61,0.42,2.55c0,1.33-0.29,2.48-0.88,3.47c-0.59,0.99-1.48,1.71-2.67,2.16
		l3.84,7.67h-4.73l-3.42-7.17h-3.05V19.88z M86.35,9.13c0.63,0,1.13-0.16,1.5-0.49c0.36-0.33,0.55-0.81,0.55-1.44V5.96
		c0-0.63-0.18-1.12-0.55-1.44c-0.36-0.33-0.86-0.49-1.5-0.49h-4.48v5.1H86.35z"/>
	<path class="st0" d="M111.3,19.88l-1.4-4.65h-6.52l-1.4,4.65h-4.31l6.44-19.54h5.26l6.36,19.54H111.3z M106.68,4.2h-0.14
		l-2.16,7.42h4.48L106.68,4.2z"/>
</g>
</svg>
