<!-- Generator: Adobe Illustrator 23.1.1, SVG Export Plug-In  -->
<svg version="1.1" xmlns="http://www.w3.org/2000/svg" xmlns:xlink="http://www.w3.org/1999/xlink" x="0px" y="0px" width="16.18px"
	 height="10.69px" viewBox="0 0 16.18 10.69" style="enable-background:new 0 0 16.18 10.69;" xml:space="preserve">
<defs>
</defs>
<g>
	<path d="M2.52,4.37c0.3,0,0.58-0.04,0.83-0.13S3.82,4.04,4,3.88c0.18-0.16,0.32-0.34,0.42-0.56c0.1-0.22,0.15-0.45,0.15-0.71V2.33
		c0-0.26-0.05-0.49-0.14-0.7c-0.1-0.21-0.23-0.39-0.4-0.55C3.85,0.93,3.65,0.81,3.4,0.73C3.16,0.64,2.89,0.6,2.6,0.6
		c-0.56,0-1,0.11-1.33,0.32C0.95,1.14,0.7,1.43,0.52,1.79L0.3,1.69C0.47,1.3,0.74,0.98,1.13,0.73C1.51,0.48,2,0.36,2.6,0.36
		c0.69,0,1.24,0.19,1.64,0.56C4.66,1.3,4.86,1.81,4.86,2.45c0,0.3-0.04,0.56-0.13,0.79s-0.2,0.43-0.35,0.59
		C4.24,4,4.06,4.13,3.86,4.24c-0.2,0.1-0.43,0.18-0.68,0.23V4.5C3.75,4.57,4.2,4.79,4.54,5.15c0.34,0.36,0.5,0.86,0.5,1.48
		c0,0.74-0.22,1.33-0.67,1.75C3.93,8.81,3.32,9.02,2.56,9.02c-0.58,0-1.09-0.1-1.51-0.31S0.28,8.18,0,7.74l0.22-0.13
		C0.47,8.02,0.79,8.31,1.17,8.5s0.84,0.28,1.39,0.28c0.32,0,0.62-0.05,0.89-0.14c0.27-0.09,0.5-0.22,0.7-0.4s0.34-0.38,0.45-0.62
		c0.11-0.24,0.16-0.5,0.16-0.79V6.5c0-0.58-0.2-1.04-0.59-1.38c-0.4-0.34-0.93-0.52-1.61-0.52H1.39V4.37H2.52z"/>
	<path d="M6.52,10.69L9.37,0h0.24L6.76,10.69H6.52z"/>
	<path d="M15.89,0.74h-3.88l-0.29,4.01l0.04,0.01C12,4.45,12.28,4.23,12.6,4.11s0.71-0.19,1.16-0.19c0.77,0,1.36,0.22,1.78,0.67
		c0.42,0.44,0.63,1.06,0.63,1.85c0,0.4-0.06,0.76-0.17,1.08c-0.12,0.32-0.28,0.59-0.5,0.81c-0.22,0.22-0.48,0.39-0.79,0.51
		c-0.31,0.12-0.65,0.18-1.04,0.18c-0.58,0-1.09-0.1-1.51-0.31s-0.77-0.53-1.05-0.97l0.22-0.13c0.26,0.41,0.57,0.71,0.95,0.89
		c0.38,0.19,0.84,0.28,1.39,0.28c0.35,0,0.66-0.05,0.94-0.16c0.27-0.11,0.5-0.26,0.69-0.45s0.33-0.42,0.43-0.68
		c0.1-0.26,0.15-0.55,0.15-0.86V6.29c0-0.63-0.18-1.14-0.54-1.54s-0.89-0.59-1.58-0.59c-0.26,0-0.48,0.02-0.68,0.05
		c-0.2,0.03-0.37,0.08-0.53,0.16c-0.16,0.07-0.3,0.16-0.43,0.26C12,4.74,11.88,4.86,11.76,5l-0.28-0.04L11.8,0.5h4.09V0.74z"/>
</g>
</svg>
