<!-- Generator: Adobe Illustrator 23.1.1, SVG Export Plug-In  -->
<svg version="1.1" xmlns="http://www.w3.org/2000/svg" xmlns:xlink="http://www.w3.org/1999/xlink" x="0px" y="0px" width="75.25px"
	 height="8.66px" viewBox="0 0 75.25 8.66" style="enable-background:new 0 0 75.25 8.66;" xml:space="preserve">
<style type="text/css">
	.st0{fill:url(#SVGID_1_);}
	.st1{fill:url(#SVGID_2_);}
	.st2{fill:url(#SVGID_3_);}
	.st3{fill:url(#SVGID_4_);}
	.st4{fill:url(#SVGID_5_);}
	.st5{fill:url(#SVGID_6_);}
	.st6{fill:url(#SVGID_7_);}
	.st7{fill:url(#SVGID_8_);}
	.st8{fill:url(#SVGID_9_);}
	.st9{fill:url(#SVGID_10_);}
	.st10{fill:url(#SVGID_11_);}
	.st11{fill:url(#SVGID_12_);}
	.st12{fill:url(#SVGID_13_);}
	.st13{fill:url(#SVGID_14_);}
	.st14{fill:url(#SVGID_15_);}
	.st15{fill:url(#SVGID_16_);}
	.st16{fill:url(#SVGID_17_);}
	.st17{fill:url(#SVGID_18_);}
	.st18{fill:url(#SVGID_19_);}
	.st19{fill:url(#SVGID_20_);}
</style>
<defs>
</defs>
<g>
	<linearGradient id="SVGID_1_" gradientUnits="userSpaceOnUse" x1="0" y1="4.332" x2="6.8398" y2="4.332">
		<stop  offset="0.2814" style="stop-color:#F84C1E"/>
		<stop  offset="1" style="stop-color:#1E1E1E"/>
	</linearGradient>
	<path class="st0" d="M0,0.14h3.16c0.55,0,1.06,0.09,1.51,0.26c0.46,0.18,0.84,0.44,1.16,0.79C6.15,1.54,6.4,1.98,6.58,2.5
		s0.26,1.13,0.26,1.83S6.75,5.64,6.58,6.16S6.15,7.12,5.83,7.47C5.51,7.82,5.12,8.08,4.67,8.26C4.21,8.43,3.71,8.52,3.16,8.52H0
		V0.14z M3.16,6.9c0.54,0,0.97-0.15,1.28-0.46c0.31-0.3,0.47-0.79,0.47-1.46v-1.3c0-0.67-0.16-1.16-0.47-1.46
		C4.13,1.92,3.7,1.76,3.16,1.76H1.82V6.9H3.16z"/>
	<linearGradient id="SVGID_2_" gradientUnits="userSpaceOnUse" x1="8.04" y1="4.332" x2="12.0244" y2="4.332">
		<stop  offset="0.2814" style="stop-color:#F84C1E"/>
		<stop  offset="1" style="stop-color:#1E1E1E"/>
	</linearGradient>
	<path class="st1" d="M8.04,8.52V7.07h1.08V1.6H8.04V0.14h3.98V1.6h-1.08v5.47h1.08v1.45H8.04z"/>
	<linearGradient id="SVGID_3_" gradientUnits="userSpaceOnUse" x1="13.5479" y1="4.332" x2="21.5283" y2="4.332">
		<stop  offset="0.2814" style="stop-color:#F84C1E"/>
		<stop  offset="1" style="stop-color:#1E1E1E"/>
	</linearGradient>
	<path class="st2" d="M19.81,3.02h-0.04l-0.61,1.22l-1.63,2.96l-1.6-2.95L15.3,2.94h-0.04v5.58h-1.72V0.14h1.93l2.05,3.92h0.02
		l2.03-3.92h1.94v8.38h-1.72V3.02z"/>
	<linearGradient id="SVGID_4_" gradientUnits="userSpaceOnUse" x1="23.376" y1="4.332" x2="29.0762" y2="4.332">
		<stop  offset="0.2814" style="stop-color:#F84C1E"/>
		<stop  offset="1" style="stop-color:#1E1E1E"/>
	</linearGradient>
	<path class="st3" d="M23.38,8.52V0.14h5.7v1.62H25.2v1.7h3.32v1.62H25.2V6.9h3.88v1.62H23.38z"/>
	<linearGradient id="SVGID_5_" gradientUnits="userSpaceOnUse" x1="30.6602" y1="4.332" x2="37.5" y2="4.332">
		<stop  offset="0.2814" style="stop-color:#F84C1E"/>
		<stop  offset="1" style="stop-color:#1E1E1E"/>
	</linearGradient>
	<path class="st4" d="M33.22,4.56l-0.8-1.68h-0.04v5.64h-1.72V0.14h1.99l2.29,3.96l0.8,1.68h0.04V0.14h1.72v8.38h-1.99L33.22,4.56z"
		/>
	<linearGradient id="SVGID_6_" gradientUnits="userSpaceOnUse" x1="38.8809" y1="4.332" x2="45.3252" y2="4.332">
		<stop  offset="0.2814" style="stop-color:#F84C1E"/>
		<stop  offset="1" style="stop-color:#1E1E1E"/>
	</linearGradient>
	<path class="st5" d="M42.06,8.66c-0.74,0-1.36-0.13-1.87-0.38c-0.51-0.25-0.95-0.58-1.31-0.98l1.2-1.21
		c0.57,0.63,1.27,0.95,2.1,0.95c0.45,0,0.78-0.09,1-0.27c0.22-0.18,0.32-0.42,0.32-0.73c0-0.23-0.06-0.42-0.19-0.58
		c-0.13-0.15-0.39-0.26-0.78-0.31L41.7,5.05c-0.89-0.11-1.54-0.38-1.95-0.81s-0.62-0.99-0.62-1.69c0-0.38,0.07-0.72,0.22-1.03
		c0.14-0.31,0.35-0.58,0.62-0.8c0.27-0.22,0.6-0.4,0.98-0.52C41.34,0.06,41.78,0,42.28,0c0.63,0,1.19,0.1,1.67,0.3
		c0.48,0.2,0.89,0.49,1.24,0.88L43.97,2.4c-0.2-0.23-0.44-0.42-0.73-0.56c-0.28-0.15-0.64-0.22-1.07-0.22
		c-0.41,0-0.71,0.07-0.91,0.21c-0.2,0.14-0.3,0.34-0.3,0.59c0,0.29,0.08,0.49,0.23,0.62c0.16,0.13,0.41,0.22,0.76,0.27l0.83,0.13
		c0.86,0.14,1.5,0.4,1.92,0.8c0.42,0.4,0.62,0.96,0.62,1.69c0,0.4-0.07,0.77-0.22,1.11c-0.14,0.34-0.35,0.62-0.63,0.86
		c-0.28,0.24-0.62,0.43-1.03,0.56C43.04,8.6,42.58,8.66,42.06,8.66z"/>
	<linearGradient id="SVGID_7_" gradientUnits="userSpaceOnUse" x1="46.5127" y1="4.332" x2="50.4971" y2="4.332">
		<stop  offset="0.2814" style="stop-color:#F84C1E"/>
		<stop  offset="1" style="stop-color:#1E1E1E"/>
	</linearGradient>
	<path class="st6" d="M46.51,8.52V7.07h1.08V1.6h-1.08V0.14h3.98V1.6h-1.08v5.47h1.08v1.45H46.51z"/>
	<linearGradient id="SVGID_8_" gradientUnits="userSpaceOnUse" x1="51.6963" y1="4.332" x2="59.0645" y2="4.332">
		<stop  offset="0.2814" style="stop-color:#F84C1E"/>
		<stop  offset="1" style="stop-color:#1E1E1E"/>
	</linearGradient>
	<path class="st7" d="M55.38,8.66c-0.55,0-1.06-0.09-1.51-0.28c-0.46-0.18-0.84-0.46-1.16-0.82c-0.32-0.36-0.57-0.82-0.74-1.36
		c-0.18-0.54-0.26-1.17-0.26-1.88s0.09-1.34,0.26-1.88c0.18-0.54,0.42-0.99,0.74-1.36c0.32-0.36,0.71-0.64,1.16-0.82
		C54.32,0.09,54.83,0,55.38,0s1.06,0.09,1.51,0.28c0.46,0.18,0.84,0.46,1.16,0.82c0.32,0.36,0.57,0.82,0.74,1.36
		s0.26,1.17,0.26,1.88s-0.09,1.34-0.26,1.88s-0.42,0.99-0.74,1.36c-0.32,0.36-0.71,0.64-1.16,0.82C56.44,8.57,55.93,8.66,55.38,8.66
		z M55.38,7.04c0.55,0,0.98-0.18,1.29-0.54c0.31-0.36,0.46-0.88,0.46-1.55V3.71c0-0.67-0.15-1.19-0.46-1.55
		c-0.31-0.36-0.74-0.54-1.29-0.54S54.4,1.8,54.09,2.16c-0.31,0.36-0.46,0.88-0.46,1.55v1.25c0,0.67,0.15,1.19,0.46,1.55
		C54.4,6.86,54.83,7.04,55.38,7.04z"/>
	<linearGradient id="SVGID_9_" gradientUnits="userSpaceOnUse" x1="60.5889" y1="4.332" x2="67.4287" y2="4.332">
		<stop  offset="0.2814" style="stop-color:#F84C1E"/>
		<stop  offset="1" style="stop-color:#1E1E1E"/>
	</linearGradient>
	<path class="st8" d="M63.15,4.56l-0.8-1.68H62.3v5.64h-1.72V0.14h1.99l2.29,3.96l0.8,1.68h0.04V0.14h1.72v8.38h-1.99L63.15,4.56z"
		/>
	<linearGradient id="SVGID_10_" gradientUnits="userSpaceOnUse" x1="68.8086" y1="4.332" x2="75.2529" y2="4.332">
		<stop  offset="0.2814" style="stop-color:#F84C1E"/>
		<stop  offset="1" style="stop-color:#1E1E1E"/>
	</linearGradient>
	<path class="st9" d="M71.99,8.66c-0.74,0-1.36-0.13-1.87-0.38c-0.51-0.25-0.95-0.58-1.31-0.98l1.2-1.21
		c0.57,0.63,1.27,0.95,2.1,0.95c0.45,0,0.78-0.09,1-0.27c0.22-0.18,0.32-0.42,0.32-0.73c0-0.23-0.06-0.42-0.19-0.58
		c-0.13-0.15-0.39-0.26-0.78-0.31l-0.83-0.11c-0.89-0.11-1.54-0.38-1.95-0.81s-0.62-0.99-0.62-1.69c0-0.38,0.07-0.72,0.22-1.03
		c0.14-0.31,0.35-0.58,0.62-0.8c0.27-0.22,0.6-0.4,0.98-0.52C71.27,0.06,71.71,0,72.2,0c0.63,0,1.19,0.1,1.67,0.3
		c0.48,0.2,0.89,0.49,1.24,0.88L73.9,2.4c-0.2-0.23-0.44-0.42-0.73-0.56c-0.28-0.15-0.64-0.22-1.07-0.22
		c-0.41,0-0.71,0.07-0.91,0.21c-0.2,0.14-0.3,0.34-0.3,0.59c0,0.29,0.08,0.49,0.23,0.62c0.16,0.13,0.41,0.22,0.76,0.27l0.83,0.13
		c0.86,0.14,1.5,0.4,1.92,0.8c0.42,0.4,0.62,0.96,0.62,1.69c0,0.4-0.07,0.77-0.22,1.11c-0.14,0.34-0.35,0.62-0.63,0.86
		c-0.28,0.24-0.62,0.43-1.03,0.56C72.97,8.6,72.51,8.66,71.99,8.66z"/>
</g>
</svg>
