<!-- Generator: Adobe Illustrator 23.1.1, SVG Export Plug-In  -->
<svg version="1.1" xmlns="http://www.w3.org/2000/svg" xmlns:xlink="http://www.w3.org/1999/xlink" x="0px" y="0px" width="93.8px"
	 height="12.05px" viewBox="0 0 93.8 12.05" style="enable-background:new 0 0 93.8 12.05;" xml:space="preserve">
<style type="text/css">
	.st0{fill:none;stroke:#000000;stroke-width:0.5;}
</style>
<defs>
</defs>
<g>
	<path class="st0" d="M0.25,0.44h4.21c0.74,0,1.41,0.12,2.02,0.35C7.08,1.03,7.6,1.38,8.03,1.84s0.76,1.05,0.99,1.74
		c0.23,0.7,0.35,1.51,0.35,2.44S9.25,7.77,9.02,8.47c-0.23,0.7-0.57,1.28-0.99,1.74s-0.94,0.81-1.55,1.05
		c-0.61,0.23-1.28,0.35-2.02,0.35H0.25V0.44z M4.46,9.45c0.73,0,1.3-0.2,1.71-0.61c0.42-0.41,0.62-1.06,0.62-1.95V5.16
		c0-0.9-0.21-1.55-0.62-1.95S5.18,2.6,4.46,2.6H2.68v6.85H4.46z"/>
	<path class="st0" d="M11.4,11.61V0.44H19V2.6h-5.17v2.27h4.43v2.16h-4.43v2.42H19v2.16H11.4z"/>
	<path class="st0" d="M27.99,11.61l-0.8-2.66h-3.73l-0.8,2.66H20.2l3.68-11.17h3.01l3.63,11.17H27.99z M25.35,2.65h-0.08l-1.23,4.24
		h2.56L25.35,2.65z"/>
	<path class="st0" d="M35.69,2.6v9.01h-2.43V2.6h-3.02V0.44h8.48V2.6H35.69z"/>
	<path class="st0" d="M47.07,7.03h-4.26v4.58h-2.43V0.44h2.43v4.43h4.26V0.44h2.43v11.17h-2.43V7.03z"/>
	<path class="st0" d="M53.72,11.61L51.19,0.44h2.4l1.06,5.36l0.59,3.1h0.05l0.7-3.1l1.23-5.36h2.66l1.25,5.36l0.69,3.1h0.05
		l0.59-3.1l1.07-5.36h2.3l-2.59,11.17h-2.77l-1.41-6.05l-0.54-2.45h-0.05l-0.56,2.45l-1.41,6.05H53.72z"/>
	<path class="st0" d="M67.1,11.61V9.67h1.44v-7.3H67.1V0.44h5.31v1.94h-1.44v7.3h1.44v1.94H67.1z"/>
	<path class="st0" d="M78.06,11.8c-0.98,0-1.81-0.17-2.5-0.5s-1.26-0.77-1.74-1.31l1.6-1.62c0.76,0.85,1.69,1.27,2.8,1.27
		c0.6,0,1.04-0.12,1.33-0.36s0.43-0.57,0.43-0.97c0-0.31-0.09-0.56-0.26-0.77c-0.17-0.21-0.52-0.35-1.04-0.42l-1.1-0.14
		c-1.18-0.15-2.05-0.51-2.6-1.07c-0.55-0.57-0.82-1.32-0.82-2.26c0-0.5,0.1-0.96,0.29-1.38s0.47-0.77,0.82-1.07
		c0.36-0.3,0.79-0.53,1.31-0.7c0.52-0.17,1.11-0.25,1.77-0.25c0.84,0,1.58,0.13,2.22,0.4c0.64,0.27,1.19,0.66,1.65,1.17L80.6,3.46
		c-0.27-0.31-0.59-0.56-0.97-0.75c-0.38-0.19-0.86-0.29-1.43-0.29c-0.54,0-0.95,0.1-1.22,0.29s-0.4,0.45-0.4,0.79
		c0,0.38,0.1,0.65,0.31,0.82s0.55,0.29,1.02,0.36l1.1,0.18c1.15,0.18,2.01,0.54,2.56,1.07c0.55,0.53,0.83,1.28,0.83,2.25
		c0,0.53-0.1,1.02-0.29,1.47c-0.19,0.45-0.47,0.83-0.84,1.15c-0.37,0.32-0.82,0.57-1.37,0.74S78.75,11.8,78.06,11.8z"/>
	<path class="st0" d="M91.11,7.03h-4.26v4.58h-2.43V0.44h2.43v4.43h4.26V0.44h2.43v11.17h-2.43V7.03z"/>
</g>
</svg>
