<!-- Generator: Adobe Illustrator 23.1.1, SVG Export Plug-In  -->
<svg version="1.1" xmlns="http://www.w3.org/2000/svg" xmlns:xlink="http://www.w3.org/1999/xlink" x="0px" y="0px" width="39.54px"
	 height="8.66px" viewBox="0 0 39.54 8.66" style="enable-background:new 0 0 39.54 8.66;" xml:space="preserve">
<style type="text/css">
	.st0{fill:#FFFFFF;}
</style>
<defs>
</defs>
<g>
	<path class="st0" d="M0.32,8.52V7.88h2.45V0.67H2.71l-2.3,2.05L0,2.27l2.39-2.12h1.1v7.74h2.3v0.64H0.32z"/>
	<path class="st0" d="M8.6,8.52l3.36-7.74H7.96v1.73H7.31V0.14h5.39v0.65L9.37,8.52H8.6z"/>
	<path class="st0" d="M14.72,8.52V7.88h2.45V0.67h-0.06l-2.3,2.05L14.4,2.27l2.39-2.12h1.1v7.74h2.3v0.64H14.72z"/>
	<path class="st0" d="M27.7,8.66c-1.04,0-1.84-0.36-2.41-1.09c-0.57-0.72-0.85-1.8-0.85-3.22c0-1.42,0.28-2.5,0.85-3.24
		C25.85,0.37,26.66,0,27.7,0c0.67,0,1.24,0.16,1.7,0.47s0.82,0.75,1.07,1.3l-0.59,0.35c-0.18-0.46-0.46-0.82-0.83-1.09
		s-0.82-0.4-1.35-0.4c-0.78,0-1.4,0.28-1.84,0.84c-0.44,0.56-0.66,1.36-0.66,2.41v0.95c0,1.04,0.22,1.83,0.66,2.37
		c0.44,0.55,1.05,0.82,1.84,0.82c0.56,0,1.03-0.14,1.4-0.43c0.38-0.28,0.66-0.67,0.84-1.15l0.59,0.35
		c-0.25,0.58-0.61,1.03-1.09,1.36C28.96,8.5,28.38,8.66,27.7,8.66z"/>
	<path class="st0" d="M38.84,1.07H38.8l-2.89,5.12l-2.89-5.12h-0.05v7.45h-0.7V0.14h0.98l2.65,4.72h0.04l2.65-4.72h0.95v8.38h-0.7
		V1.07z"/>
</g>
</svg>
