<!-- Generator: Adobe Illustrator 23.1.1, SVG Export Plug-In  -->
<svg version="1.1" xmlns="http://www.w3.org/2000/svg" xmlns:xlink="http://www.w3.org/1999/xlink" x="0px" y="0px" width="20px"
	 height="20px" viewBox="0 0 20 20" style="enable-background:new 0 0 20 20;" xml:space="preserve">
<style type="text/css">
	.st0{fill:none;stroke:#FFFFFF;stroke-miterlimit:10;}
	.st1{fill:#FFFFFF;}
</style>
<defs>
</defs>
<circle class="st0" cx="10" cy="10" r="9.5"/>
<g>
	<path class="st1" d="M12.93,13.78H7v-1.64l2.58-2.21c0.23-0.2,0.43-0.38,0.59-0.55c0.16-0.16,0.29-0.32,0.39-0.48
		c0.1-0.16,0.17-0.31,0.22-0.46s0.07-0.32,0.07-0.49V7.78c0-0.16-0.03-0.3-0.1-0.42c-0.06-0.12-0.15-0.22-0.25-0.3
		c-0.1-0.08-0.22-0.14-0.35-0.18c-0.13-0.04-0.27-0.06-0.4-0.06c-0.2,0-0.37,0.03-0.52,0.1S8.94,7.06,8.83,7.17
		C8.72,7.28,8.63,7.4,8.56,7.54C8.49,7.68,8.43,7.83,8.39,7.99l-1.57-0.6c0.1-0.29,0.23-0.56,0.4-0.82
		c0.17-0.26,0.38-0.49,0.63-0.68C8.1,5.69,8.4,5.54,8.74,5.42C9.08,5.31,9.47,5.26,9.9,5.26c0.46,0,0.86,0.06,1.21,0.19
		c0.35,0.13,0.65,0.3,0.89,0.53c0.24,0.22,0.43,0.49,0.56,0.8s0.19,0.64,0.19,1s-0.06,0.69-0.18,0.98c-0.12,0.3-0.28,0.57-0.49,0.83
		c-0.2,0.26-0.44,0.51-0.71,0.74s-0.56,0.47-0.85,0.71l-1.56,1.22h3.96V13.78z"/>
</g>
</svg>
