<!-- Generator: Adobe Illustrator 23.1.1, SVG Export Plug-In  -->
<svg version="1.1" xmlns="http://www.w3.org/2000/svg" xmlns:xlink="http://www.w3.org/1999/xlink" x="0px" y="0px" width="72.51px"
	 height="15.19px" viewBox="0 0 72.51 15.19" style="enable-background:new 0 0 72.51 15.19;" xml:space="preserve">
<style type="text/css">
	.st0{opacity:0.7;}
	.st1{fill:none;stroke:#000000;stroke-width:0.75;}
</style>
<defs>
</defs>
<g class="st0">
	<path class="st1" d="M5.72,14.82c-1.2,0-2.22-0.21-3.05-0.64c-0.83-0.43-1.55-0.99-2.15-1.68l1.78-1.72
		c0.48,0.56,1.02,0.98,1.61,1.27c0.59,0.29,1.25,0.44,1.97,0.44c0.81,0,1.43-0.18,1.84-0.53c0.41-0.35,0.62-0.82,0.62-1.42
		c0-0.46-0.13-0.84-0.4-1.13c-0.27-0.29-0.77-0.5-1.5-0.63l-1.32-0.2C2.33,8.12,0.94,6.77,0.94,4.5c0-0.63,0.12-1.19,0.35-1.7
		S1.86,1.86,2.3,1.5c0.44-0.36,0.97-0.64,1.59-0.83C4.51,0.47,5.21,0.38,6,0.38c1.05,0,1.97,0.17,2.76,0.52
		c0.79,0.35,1.46,0.86,2.02,1.54l-1.8,1.7C8.63,3.72,8.21,3.38,7.72,3.11c-0.49-0.26-1.11-0.4-1.86-0.4c-0.76,0-1.33,0.14-1.71,0.43
		c-0.38,0.28-0.57,0.68-0.57,1.2c0,0.53,0.15,0.92,0.46,1.17c0.31,0.25,0.8,0.44,1.48,0.56l1.3,0.24c1.41,0.25,2.46,0.7,3.13,1.35
		s1.01,1.55,1.01,2.71c0,0.67-0.12,1.27-0.35,1.81c-0.23,0.54-0.57,1.01-1.02,1.4c-0.45,0.39-0.99,0.7-1.64,0.91
		C7.3,14.71,6.56,14.82,5.72,14.82z"/>
	<path class="st1" d="M13.02,14.58v-2.12h1.84V2.74h-1.84V0.62h6.34v2.12H17.5v9.72h1.86v2.12H13.02z"/>
	<path class="st1" d="M22.06,14.58V0.62h9.2v2.34H24.7v3.38h5.8v2.34h-5.8v3.56h6.56v2.34H22.06z"/>
	<path class="st1" d="M36.7,14.58h-2.64V0.62h6.3c0.64,0,1.21,0.1,1.72,0.3c0.51,0.2,0.94,0.49,1.29,0.87
		c0.35,0.38,0.63,0.84,0.82,1.37c0.19,0.53,0.29,1.13,0.29,1.78c0,0.96-0.22,1.79-0.65,2.48c-0.43,0.69-1.08,1.19-1.95,1.48
		l2.86,5.68H41.8L39.2,9.2h-2.5V14.58z M40.1,6.98c0.51,0,0.91-0.14,1.2-0.41s0.44-0.66,0.44-1.17V4.48c0-0.51-0.15-0.89-0.44-1.16
		s-0.69-0.4-1.2-0.4h-3.4v4.06H40.1z"/>
	<path class="st1" d="M49.97,14.58h-2.64V0.62h6.3c0.64,0,1.21,0.1,1.72,0.3c0.51,0.2,0.94,0.49,1.29,0.87
		c0.35,0.38,0.63,0.84,0.82,1.37c0.19,0.53,0.29,1.13,0.29,1.78c0,0.96-0.22,1.79-0.65,2.48c-0.43,0.69-1.08,1.19-1.95,1.48
		l2.86,5.68h-2.94l-2.6-5.38h-2.5V14.58z M53.38,6.98c0.51,0,0.91-0.14,1.2-0.41s0.44-0.66,0.44-1.17V4.48
		c0-0.51-0.15-0.89-0.44-1.16s-0.69-0.4-1.2-0.4h-3.4v4.06H53.38z"/>
	<path class="st1" d="M69.25,14.58l-1.12-3.56h-4.96l-1.1,3.56h-2.68l4.68-13.96h3.28l4.64,13.96H69.25z M65.7,3.02h-0.1l-1.78,5.74
		h3.68L65.7,3.02z"/>
</g>
</svg>
