<!-- Generator: Adobe Illustrator 23.1.1, SVG Export Plug-In  -->
<svg version="1.1" xmlns="http://www.w3.org/2000/svg" xmlns:xlink="http://www.w3.org/1999/xlink" x="0px" y="0px" width="39.9px"
	 height="8.66px" viewBox="0 0 39.9 8.66" style="enable-background:new 0 0 39.9 8.66;" xml:space="preserve">
<style type="text/css">
	.st0{fill:#FFFFFF;}
</style>
<defs>
</defs>
<g>
	<path class="st0" d="M0.44,8.52V7.63h2.34V0.89H2.7L0.59,2.86L0,2.22l2.22-2.08h1.57v7.49h2.16v0.89H0.44z"/>
	<path class="st0" d="M10.19,8.66c-0.48,0-0.9-0.06-1.26-0.19C8.57,8.35,8.27,8.18,8.02,7.97S7.59,7.5,7.47,7.2S7.28,6.58,7.28,6.24
		c0-0.58,0.16-1.03,0.47-1.37C8.06,4.54,8.47,4.3,8.98,4.16v-0.1c-0.44-0.15-0.79-0.4-1.05-0.74C7.67,2.99,7.54,2.58,7.54,2.1
		c0-0.64,0.23-1.15,0.7-1.53S9.35,0,10.19,0c0.84,0,1.49,0.19,1.96,0.57s0.7,0.89,0.7,1.53c0,0.48-0.13,0.89-0.39,1.23
		c-0.26,0.34-0.61,0.59-1.05,0.74v0.1c0.5,0.14,0.91,0.37,1.22,0.71c0.31,0.34,0.47,0.79,0.47,1.37c0,0.34-0.06,0.66-0.19,0.96
		s-0.31,0.55-0.55,0.77s-0.55,0.39-0.91,0.51C11.09,8.6,10.67,8.66,10.19,8.66z M10.19,7.78c0.58,0,1.04-0.13,1.36-0.39
		c0.32-0.26,0.48-0.63,0.48-1.11V6.03c0-0.48-0.16-0.85-0.48-1.11c-0.32-0.26-0.77-0.39-1.36-0.39S9.15,4.67,8.83,4.92
		C8.51,5.18,8.35,5.55,8.35,6.03v0.25c0,0.48,0.16,0.85,0.48,1.11C9.15,7.65,9.6,7.78,10.19,7.78z M10.19,3.7
		c0.53,0,0.93-0.11,1.2-0.33c0.27-0.22,0.41-0.55,0.41-0.98V2.2c0-0.43-0.14-0.76-0.41-0.98c-0.27-0.22-0.67-0.33-1.2-0.33
		c-0.53,0-0.93,0.11-1.2,0.33C8.72,1.45,8.58,1.77,8.58,2.2v0.18c0,0.43,0.14,0.76,0.41,0.98C9.26,3.58,9.66,3.7,10.19,3.7z"/>
	<path class="st0" d="M18.29,8.52V6.88h-4.04V5.99l3.5-5.84h1.5v5.89h1.21v0.84h-1.21v1.64H18.29z M15.19,6.04h3.1V0.92h-0.06
		L15.19,6.04z"/>
	<path class="st0" d="M27.89,8.66c-1.06,0-1.89-0.36-2.48-1.09c-0.59-0.72-0.89-1.79-0.89-3.2s0.3-2.49,0.89-3.25S26.82,0,27.89,0
		c0.7,0,1.29,0.16,1.77,0.47s0.85,0.77,1.11,1.35l-0.82,0.49c-0.17-0.43-0.42-0.78-0.77-1.04c-0.34-0.26-0.78-0.39-1.3-0.39
		c-0.36,0-0.68,0.07-0.97,0.2c-0.28,0.14-0.52,0.33-0.72,0.58s-0.35,0.55-0.45,0.9c-0.1,0.35-0.16,0.74-0.16,1.17v1.25
		c0,0.87,0.2,1.55,0.6,2.04c0.4,0.49,0.96,0.73,1.69,0.73c0.54,0,0.98-0.14,1.34-0.41c0.36-0.28,0.62-0.64,0.79-1.1l0.8,0.5
		c-0.26,0.59-0.64,1.06-1.14,1.39S28.59,8.66,27.89,8.66z"/>
	<path class="st0" d="M38.92,1.46h-0.06l-0.71,1.4l-2,3.65l-2-3.65l-0.71-1.4h-0.06v7.06h-0.98V0.14h1.34l2.4,4.51h0.06l2.41-4.51
		h1.3v8.38h-0.98V1.46z"/>
</g>
</svg>
