<!-- Generator: Adobe Illustrator 23.1.1, SVG Export Plug-In  -->
<svg version="1.1" xmlns="http://www.w3.org/2000/svg" xmlns:xlink="http://www.w3.org/1999/xlink" x="0px" y="0px"
	 width="104.14px" height="8.66px" viewBox="0 0 104.14 8.66" style="enable-background:new 0 0 104.14 8.66;" xml:space="preserve"
	>
<style type="text/css">
	.st0{fill:url(#SVGID_1_);}
	.st1{fill:url(#SVGID_2_);}
	.st2{fill:url(#SVGID_3_);}
	.st3{fill:url(#SVGID_4_);}
	.st4{fill:url(#SVGID_5_);}
	.st5{fill:url(#SVGID_6_);}
	.st6{fill:url(#SVGID_7_);}
	.st7{fill:url(#SVGID_8_);}
	.st8{fill:url(#SVGID_9_);}
	.st9{fill:url(#SVGID_10_);}
	.st10{fill:url(#SVGID_11_);}
	.st11{fill:url(#SVGID_12_);}
	.st12{fill:url(#SVGID_13_);}
	.st13{fill:url(#SVGID_14_);}
	.st14{fill:url(#SVGID_15_);}
	.st15{fill:url(#SVGID_16_);}
	.st16{fill:url(#SVGID_17_);}
	.st17{fill:url(#SVGID_18_);}
	.st18{fill:url(#SVGID_19_);}
	.st19{fill:url(#SVGID_20_);}
	.st20{fill:url(#SVGID_21_);}
	.st21{fill:url(#SVGID_22_);}
	.st22{fill:url(#SVGID_23_);}
	.st23{fill:url(#SVGID_24_);}
</style>
<defs>
</defs>
<g>
	<linearGradient id="SVGID_1_" gradientUnits="userSpaceOnUse" x1="0" y1="4.3315" x2="6.8638" y2="4.3315">
		<stop  offset="0" style="stop-color:#AB5184"/>
		<stop  offset="1" style="stop-color:#776B9D"/>
	</linearGradient>
	<path class="st0" d="M3.71,8.66c-0.57,0-1.08-0.09-1.54-0.27s-0.84-0.45-1.16-0.8c-0.32-0.36-0.57-0.8-0.74-1.33
		C0.09,5.73,0,5.1,0,4.39c0-0.7,0.09-1.33,0.26-1.88c0.18-0.55,0.42-1.01,0.74-1.38s0.71-0.65,1.16-0.85C2.63,0.1,3.14,0,3.71,0
		c0.78,0,1.42,0.16,1.92,0.47s0.91,0.81,1.21,1.49L5.27,2.78C5.16,2.43,4.98,2.15,4.75,1.94C4.51,1.73,4.16,1.62,3.71,1.62
		c-0.54,0-0.97,0.17-1.29,0.52C2.09,2.49,1.93,3,1.93,3.66V5c0,0.66,0.16,1.17,0.49,1.52c0.32,0.35,0.75,0.52,1.29,0.52
		c0.45,0,0.81-0.12,1.07-0.37S5.25,6.14,5.38,5.8l1.49,0.86C6.55,7.3,6.14,7.79,5.63,8.14S4.48,8.66,3.71,8.66z"/>
	<linearGradient id="SVGID_2_" gradientUnits="userSpaceOnUse" x1="8.8442" y1="4.3315" x2="16.2119" y2="4.3315">
		<stop  offset="0" style="stop-color:#AB5184"/>
		<stop  offset="1" style="stop-color:#776B9D"/>
	</linearGradient>
	<path class="st1" d="M12.53,8.66c-0.55,0-1.06-0.09-1.51-0.28c-0.46-0.18-0.84-0.46-1.16-0.82S9.28,6.75,9.11,6.21
		C8.93,5.67,8.84,5.04,8.84,4.33c0-0.71,0.09-1.34,0.26-1.88C9.28,1.91,9.53,1.46,9.85,1.1s0.71-0.64,1.16-0.82
		C11.47,0.09,11.98,0,12.53,0c0.55,0,1.06,0.09,1.51,0.28c0.46,0.18,0.84,0.46,1.16,0.82s0.57,0.82,0.74,1.36
		c0.18,0.54,0.26,1.17,0.26,1.88c0,0.71-0.09,1.34-0.26,1.88c-0.18,0.54-0.42,0.99-0.74,1.36S14.5,8.2,14.04,8.39
		C13.58,8.57,13.08,8.66,12.53,8.66z M12.53,7.04c0.55,0,0.98-0.18,1.29-0.54c0.31-0.36,0.46-0.88,0.46-1.55V3.71
		c0-0.67-0.15-1.19-0.46-1.55c-0.31-0.36-0.74-0.54-1.29-0.54c-0.55,0-0.98,0.18-1.29,0.54c-0.31,0.36-0.46,0.88-0.46,1.55v1.25
		c0,0.67,0.15,1.19,0.46,1.55C11.55,6.86,11.98,7.04,12.53,7.04z"/>
	<linearGradient id="SVGID_3_" gradientUnits="userSpaceOnUse" x1="18.9238" y1="4.3315" x2="25.7642" y2="4.3315">
		<stop  offset="0" style="stop-color:#AB5184"/>
		<stop  offset="1" style="stop-color:#776B9D"/>
	</linearGradient>
	<path class="st2" d="M21.48,4.56l-0.8-1.68h-0.04v5.64h-1.72V0.14h1.99l2.29,3.96l0.8,1.68h0.04V0.14h1.72v8.38h-1.99L21.48,4.56z"
		/>
	<linearGradient id="SVGID_4_" gradientUnits="userSpaceOnUse" x1="28.332" y1="4.3315" x2="34.7759" y2="4.3315">
		<stop  offset="0" style="stop-color:#AB5184"/>
		<stop  offset="1" style="stop-color:#776B9D"/>
	</linearGradient>
	<path class="st3" d="M31.51,8.66c-0.74,0-1.36-0.13-1.87-0.38c-0.51-0.25-0.95-0.58-1.31-0.98l1.2-1.21
		c0.57,0.63,1.27,0.95,2.1,0.95c0.45,0,0.78-0.09,1-0.27c0.22-0.18,0.32-0.42,0.32-0.73c0-0.23-0.06-0.42-0.19-0.58
		s-0.39-0.26-0.78-0.32l-0.83-0.11c-0.89-0.11-1.54-0.38-1.95-0.8c-0.41-0.42-0.62-0.99-0.62-1.69c0-0.38,0.07-0.72,0.22-1.03
		s0.35-0.58,0.62-0.81c0.27-0.22,0.6-0.4,0.98-0.52S31.23,0,31.73,0c0.63,0,1.19,0.1,1.67,0.3s0.89,0.49,1.24,0.88L33.42,2.4
		c-0.2-0.23-0.44-0.42-0.73-0.56c-0.28-0.15-0.64-0.22-1.07-0.22c-0.41,0-0.71,0.07-0.91,0.21c-0.2,0.14-0.3,0.34-0.3,0.59
		c0,0.29,0.08,0.49,0.23,0.62c0.16,0.13,0.41,0.22,0.76,0.27l0.83,0.13c0.86,0.14,1.5,0.4,1.92,0.8s0.62,0.96,0.62,1.69
		c0,0.4-0.07,0.77-0.22,1.11c-0.14,0.34-0.35,0.62-0.63,0.87c-0.28,0.24-0.62,0.43-1.03,0.56C32.5,8.6,32.03,8.66,31.51,8.66z"/>
	<linearGradient id="SVGID_5_" gradientUnits="userSpaceOnUse" x1="36.6001" y1="4.3315" x2="42.96" y2="4.3315">
		<stop  offset="0" style="stop-color:#AB5184"/>
		<stop  offset="1" style="stop-color:#776B9D"/>
	</linearGradient>
	<path class="st4" d="M40.69,1.76v6.76h-1.82V1.76H36.6V0.14h6.36v1.62H40.69z"/>
	<linearGradient id="SVGID_6_" gradientUnits="userSpaceOnUse" x1="45.3955" y1="4.3315" x2="52.0195" y2="4.3315">
		<stop  offset="0" style="stop-color:#AB5184"/>
		<stop  offset="1" style="stop-color:#776B9D"/>
	</linearGradient>
	<path class="st5" d="M47.22,8.52H45.4V0.14h3.97c0.38,0,0.73,0.06,1.04,0.19s0.58,0.31,0.8,0.55c0.22,0.24,0.39,0.52,0.51,0.85
		s0.18,0.69,0.18,1.09c0,0.57-0.13,1.06-0.38,1.49s-0.63,0.73-1.15,0.92l1.64,3.29h-2.03l-1.46-3.07h-1.31V8.52z M49.14,3.91
		c0.27,0,0.49-0.07,0.64-0.21c0.16-0.14,0.23-0.35,0.23-0.62V2.56c0-0.27-0.08-0.48-0.23-0.62c-0.16-0.14-0.37-0.21-0.64-0.21h-1.92
		v2.18H49.14z"/>
	<linearGradient id="SVGID_7_" gradientUnits="userSpaceOnUse" x1="54.4556" y1="4.4033" x2="61.0317" y2="4.4033">
		<stop  offset="0" style="stop-color:#AB5184"/>
		<stop  offset="1" style="stop-color:#776B9D"/>
	</linearGradient>
	<path class="st6" d="M56.23,0.14v5.14c0,0.59,0.12,1.03,0.35,1.33s0.62,0.44,1.16,0.44s0.93-0.15,1.16-0.44
		c0.23-0.29,0.35-0.73,0.35-1.33V0.14h1.78v4.94c0,0.62-0.06,1.15-0.17,1.6c-0.12,0.45-0.31,0.82-0.57,1.12s-0.6,0.51-1.02,0.65
		c-0.42,0.14-0.92,0.21-1.52,0.21s-1.11-0.07-1.52-0.21C55.8,8.31,55.46,8.1,55.2,7.81c-0.26-0.29-0.45-0.66-0.57-1.12
		c-0.12-0.45-0.17-0.99-0.17-1.6V0.14H56.23z"/>
	<linearGradient id="SVGID_8_" gradientUnits="userSpaceOnUse" x1="63.6953" y1="4.3315" x2="70.5591" y2="4.3315">
		<stop  offset="0" style="stop-color:#AB5184"/>
		<stop  offset="1" style="stop-color:#776B9D"/>
	</linearGradient>
	<path class="st7" d="M67.4,8.66c-0.57,0-1.08-0.09-1.54-0.27s-0.84-0.45-1.16-0.8c-0.32-0.36-0.57-0.8-0.74-1.33
		C63.78,5.73,63.7,5.1,63.7,4.39c0-0.7,0.09-1.33,0.26-1.88c0.18-0.55,0.42-1.01,0.74-1.38s0.71-0.65,1.16-0.85
		C66.32,0.1,66.83,0,67.4,0c0.78,0,1.42,0.16,1.92,0.47s0.91,0.81,1.21,1.49l-1.57,0.82c-0.11-0.35-0.29-0.63-0.52-0.85
		c-0.24-0.21-0.58-0.32-1.04-0.32c-0.54,0-0.97,0.17-1.29,0.52C65.79,2.49,65.63,3,65.63,3.66V5c0,0.66,0.16,1.17,0.49,1.52
		c0.32,0.35,0.75,0.52,1.29,0.52c0.45,0,0.81-0.12,1.07-0.37s0.47-0.54,0.59-0.88l1.49,0.86c-0.31,0.64-0.72,1.13-1.23,1.48
		S68.18,8.66,67.4,8.66z"/>
	<linearGradient id="SVGID_9_" gradientUnits="userSpaceOnUse" x1="72.4194" y1="4.3315" x2="78.7793" y2="4.3315">
		<stop  offset="0" style="stop-color:#AB5184"/>
		<stop  offset="1" style="stop-color:#776B9D"/>
	</linearGradient>
	<path class="st8" d="M76.51,1.76v6.76h-1.82V1.76h-2.27V0.14h6.36v1.62H76.51z"/>
	<linearGradient id="SVGID_10_" gradientUnits="userSpaceOnUse" x1="80.8433" y1="4.3315" x2="84.8271" y2="4.3315">
		<stop  offset="0" style="stop-color:#AB5184"/>
		<stop  offset="1" style="stop-color:#776B9D"/>
	</linearGradient>
	<path class="st9" d="M80.84,8.52V7.07h1.08V1.6h-1.08V0.14h3.98V1.6h-1.08v5.47h1.08v1.45H80.84z"/>
	<linearGradient id="SVGID_11_" gradientUnits="userSpaceOnUse" x1="87.2153" y1="4.3315" x2="94.583" y2="4.3315">
		<stop  offset="0" style="stop-color:#AB5184"/>
		<stop  offset="1" style="stop-color:#776B9D"/>
	</linearGradient>
	<path class="st10" d="M90.9,8.66c-0.55,0-1.06-0.09-1.51-0.28c-0.46-0.18-0.84-0.46-1.16-0.82s-0.57-0.82-0.74-1.36
		c-0.18-0.54-0.26-1.17-0.26-1.88c0-0.71,0.09-1.34,0.26-1.88c0.18-0.54,0.42-0.99,0.74-1.36s0.71-0.64,1.16-0.82
		C89.84,0.09,90.35,0,90.9,0c0.55,0,1.06,0.09,1.51,0.28c0.46,0.18,0.84,0.46,1.16,0.82s0.57,0.82,0.74,1.36
		c0.18,0.54,0.26,1.17,0.26,1.88c0,0.71-0.09,1.34-0.26,1.88c-0.18,0.54-0.42,0.99-0.74,1.36s-0.71,0.64-1.16,0.82
		C91.96,8.57,91.45,8.66,90.9,8.66z M90.9,7.04c0.55,0,0.98-0.18,1.29-0.54c0.31-0.36,0.46-0.88,0.46-1.55V3.71
		c0-0.67-0.15-1.19-0.46-1.55c-0.31-0.36-0.74-0.54-1.29-0.54c-0.55,0-0.98,0.18-1.29,0.54c-0.31,0.36-0.46,0.88-0.46,1.55v1.25
		c0,0.67,0.15,1.19,0.46,1.55C89.92,6.86,90.35,7.04,90.9,7.04z"/>
	<linearGradient id="SVGID_12_" gradientUnits="userSpaceOnUse" x1="97.2949" y1="4.3315" x2="104.1353" y2="4.3315">
		<stop  offset="0" style="stop-color:#AB5184"/>
		<stop  offset="1" style="stop-color:#776B9D"/>
	</linearGradient>
	<path class="st11" d="M99.85,4.56l-0.8-1.68h-0.04v5.64h-1.72V0.14h1.99l2.29,3.96l0.8,1.68h0.04V0.14h1.72v8.38h-1.99L99.85,4.56z
		"/>
</g>
</svg>
