<!-- Generator: Adobe Illustrator 23.1.1, SVG Export Plug-In  -->
<svg version="1.1" xmlns="http://www.w3.org/2000/svg" xmlns:xlink="http://www.w3.org/1999/xlink" x="0px" y="0px" width="13.58px"
	 height="8.66px" viewBox="0 0 13.58 8.66" style="enable-background:new 0 0 13.58 8.66;" xml:space="preserve">
<style type="text/css">
	.st0{fill:#FFFFFF;}
</style>
<defs>
</defs>
<g>
	<path class="st0" d="M3.23,8.66c-1.1,0-1.91-0.38-2.44-1.14C0.26,6.76,0,5.7,0,4.33S0.26,1.9,0.79,1.14C1.32,0.38,2.13,0,3.23,0
		c1.1,0,1.91,0.38,2.44,1.14C6.19,1.9,6.46,2.96,6.46,4.33S6.19,6.76,5.66,7.52C5.14,8.28,4.32,8.66,3.23,8.66z M3.23,7.14
		c0.48,0,0.81-0.18,1-0.53C4.41,6.26,4.5,5.76,4.5,5.12V3.54c0-0.64-0.09-1.14-0.28-1.49c-0.18-0.35-0.52-0.53-1-0.53
		s-0.81,0.18-1,0.53S1.96,2.9,1.96,3.54v1.58c0,0.64,0.09,1.14,0.28,1.49C2.42,6.96,2.75,7.14,3.23,7.14z"/>
	<path class="st0" d="M13.09,1.72h-3.8L9.11,4.37h0.1c0.08-0.2,0.17-0.38,0.27-0.55c0.1-0.16,0.22-0.3,0.35-0.42
		c0.14-0.12,0.3-0.21,0.49-0.27c0.19-0.06,0.42-0.1,0.68-0.1c0.36,0,0.7,0.06,1.01,0.18c0.31,0.12,0.58,0.29,0.82,0.52
		c0.23,0.23,0.42,0.51,0.55,0.84c0.14,0.33,0.2,0.71,0.2,1.12c0,0.42-0.07,0.82-0.21,1.18c-0.14,0.36-0.35,0.68-0.62,0.94
		c-0.28,0.26-0.61,0.47-1.01,0.62c-0.4,0.15-0.86,0.22-1.37,0.22c-0.41,0-0.77-0.04-1.08-0.13C8.98,8.44,8.7,8.33,8.46,8.18
		C8.22,8.03,8.01,7.86,7.84,7.67c-0.18-0.19-0.33-0.4-0.46-0.61l1.31-1.03c0.18,0.33,0.4,0.61,0.66,0.83
		C9.6,7.09,9.95,7.2,10.38,7.2c0.43,0,0.76-0.12,0.98-0.37c0.22-0.25,0.33-0.58,0.33-0.98v-0.1c0-0.38-0.11-0.69-0.34-0.91
		c-0.22-0.22-0.53-0.34-0.92-0.34c-0.33,0-0.6,0.07-0.81,0.2C9.41,4.83,9.24,4.96,9.13,5.09l-1.48-0.2l0.31-4.74h5.12V1.72z"/>
</g>
</svg>
