<!-- Generator: Adobe Illustrator 23.1.1, SVG Export Plug-In  -->
<svg version="1.1" xmlns="http://www.w3.org/2000/svg" xmlns:xlink="http://www.w3.org/1999/xlink" x="0px" y="0px"
	 width="148.38px" height="8.66px" viewBox="0 0 148.38 8.66" style="enable-background:new 0 0 148.38 8.66;" xml:space="preserve"
	>
<defs>
</defs>
<g>
	<path d="M3.68,8.52V6.91H0V5.36l3.26-5.22H5.4v5.36h1.06v1.4H5.4v1.61H3.68z M1.44,5.51h2.24V2H3.56L1.44,5.51z"/>
	<path d="M11.63,8.66c-1.1,0-1.91-0.38-2.44-1.14S8.4,5.7,8.4,4.33c0-1.37,0.26-2.43,0.79-3.19S10.53,0,11.63,0
		c1.1,0,1.91,0.38,2.44,1.14c0.53,0.76,0.79,1.82,0.79,3.19c0,1.37-0.26,2.43-0.79,3.19C13.54,8.28,12.72,8.66,11.63,8.66z
		 M11.63,7.14c0.48,0,0.81-0.18,1-0.53c0.18-0.35,0.28-0.85,0.28-1.49V3.54c0-0.64-0.09-1.14-0.28-1.49c-0.18-0.35-0.52-0.53-1-0.53
		s-0.81,0.18-1,0.53c-0.18,0.35-0.28,0.85-0.28,1.49v1.58c0,0.64,0.09,1.14,0.28,1.49C10.82,6.96,11.15,7.14,11.63,7.14z"/>
	<path d="M20.02,8.66c-1.1,0-1.91-0.38-2.44-1.14s-0.79-1.82-0.79-3.19c0-1.37,0.26-2.43,0.79-3.19S18.92,0,20.02,0
		c1.1,0,1.91,0.38,2.44,1.14c0.53,0.76,0.79,1.82,0.79,3.19c0,1.37-0.26,2.43-0.79,3.19C21.92,8.28,21.11,8.66,20.02,8.66z
		 M20.02,7.14c0.48,0,0.81-0.18,1-0.53c0.18-0.35,0.28-0.85,0.28-1.49V3.54c0-0.64-0.09-1.14-0.28-1.49c-0.18-0.35-0.52-0.53-1-0.53
		s-0.81,0.18-1,0.53c-0.18,0.35-0.28,0.85-0.28,1.49v1.58c0,0.64,0.09,1.14,0.28,1.49C19.2,6.96,19.54,7.14,20.02,7.14z"/>
	<path d="M25.93,8.52V7.07h2.26V1.45h-0.11l-1.7,2.23l-1.15-0.9l2-2.64h2.76v6.92h1.78v1.45H25.93z"/>
	<path d="M38.13,0.14h3.16c0.55,0,1.06,0.09,1.51,0.26c0.46,0.18,0.84,0.44,1.16,0.79c0.32,0.35,0.57,0.78,0.74,1.31
		c0.18,0.52,0.26,1.13,0.26,1.83c0,0.7-0.09,1.31-0.26,1.83c-0.18,0.52-0.42,0.96-0.74,1.31c-0.32,0.35-0.71,0.61-1.16,0.79
		c-0.46,0.18-0.96,0.26-1.51,0.26h-3.16V0.14z M41.29,6.9c0.54,0,0.97-0.15,1.28-0.46c0.31-0.3,0.47-0.79,0.47-1.46v-1.3
		c0-0.67-0.16-1.16-0.47-1.46s-0.74-0.46-1.28-0.46h-1.33V6.9H41.29z"/>
	<path d="M49.41,0.14v5.14c0,0.59,0.12,1.03,0.35,1.33s0.62,0.44,1.16,0.44s0.93-0.15,1.16-0.44c0.23-0.29,0.35-0.73,0.35-1.33V0.14
		h1.78v4.94c0,0.62-0.06,1.15-0.17,1.6c-0.12,0.45-0.31,0.82-0.57,1.12s-0.6,0.51-1.02,0.65c-0.42,0.14-0.92,0.21-1.52,0.21
		s-1.11-0.07-1.52-0.21c-0.42-0.14-0.76-0.36-1.02-0.65c-0.26-0.29-0.45-0.66-0.57-1.12c-0.12-0.45-0.17-0.99-0.17-1.6V0.14H49.41z"
		/>
	<path d="M59.03,8.52H57.2V0.14h3.97c0.38,0,0.73,0.06,1.04,0.19s0.58,0.31,0.8,0.55c0.22,0.24,0.39,0.52,0.51,0.85
		s0.18,0.69,0.18,1.09c0,0.57-0.13,1.06-0.38,1.49s-0.63,0.73-1.15,0.92l1.64,3.29H61.8l-1.46-3.07h-1.31V8.52z M60.95,3.91
		c0.27,0,0.49-0.07,0.64-0.21c0.16-0.14,0.23-0.35,0.23-0.62V2.56c0-0.27-0.08-0.48-0.23-0.62c-0.16-0.14-0.37-0.21-0.64-0.21h-1.92
		v2.18H60.95z"/>
	<path d="M71.64,8.52l-0.6-1.99h-2.8l-0.6,1.99h-1.85l2.76-8.38h2.26l2.72,8.38H71.64z M69.66,1.8H69.6l-0.92,3.18h1.92L69.66,1.8z"
		/>
	<path d="M78.6,8.66c-0.74,0-1.36-0.13-1.87-0.38c-0.51-0.25-0.95-0.58-1.31-0.98l1.2-1.21c0.57,0.63,1.27,0.95,2.1,0.95
		c0.45,0,0.78-0.09,1-0.27c0.22-0.18,0.32-0.42,0.32-0.73c0-0.23-0.06-0.42-0.19-0.58s-0.39-0.26-0.78-0.32l-0.83-0.11
		c-0.89-0.11-1.54-0.38-1.95-0.8c-0.41-0.42-0.62-0.99-0.62-1.69c0-0.38,0.07-0.72,0.22-1.03s0.35-0.58,0.62-0.81
		c0.27-0.22,0.6-0.4,0.98-0.52S78.32,0,78.81,0c0.63,0,1.19,0.1,1.67,0.3s0.89,0.49,1.24,0.88L80.51,2.4
		c-0.2-0.23-0.44-0.42-0.73-0.56c-0.28-0.15-0.64-0.22-1.07-0.22c-0.41,0-0.71,0.07-0.91,0.21c-0.2,0.14-0.3,0.34-0.3,0.59
		c0,0.29,0.08,0.49,0.23,0.62c0.16,0.13,0.41,0.22,0.76,0.27l0.83,0.13c0.86,0.14,1.5,0.4,1.92,0.8s0.62,0.96,0.62,1.69
		c0,0.4-0.07,0.77-0.22,1.11c-0.14,0.34-0.35,0.62-0.63,0.87c-0.28,0.24-0.62,0.43-1.03,0.56C79.58,8.6,79.12,8.66,78.6,8.66z"/>
	<path d="M86.29,0.14v5.14c0,0.59,0.12,1.03,0.35,1.33s0.62,0.44,1.16,0.44s0.93-0.15,1.16-0.44c0.23-0.29,0.35-0.73,0.35-1.33V0.14
		h1.78v4.94c0,0.62-0.06,1.15-0.17,1.6c-0.12,0.45-0.31,0.82-0.57,1.12s-0.6,0.51-1.02,0.65c-0.42,0.14-0.92,0.21-1.52,0.21
		s-1.11-0.07-1.52-0.21c-0.42-0.14-0.76-0.36-1.02-0.65c-0.26-0.29-0.45-0.66-0.57-1.12c-0.12-0.45-0.17-0.99-0.17-1.6V0.14H86.29z"
		/>
	<path d="M95.9,8.52h-1.82V0.14h3.97c0.38,0,0.73,0.06,1.04,0.19s0.58,0.31,0.8,0.55c0.22,0.24,0.39,0.52,0.51,0.85
		s0.18,0.69,0.18,1.09c0,0.57-0.13,1.06-0.38,1.49s-0.63,0.73-1.15,0.92l1.64,3.29h-2.03l-1.46-3.07H95.9V8.52z M97.82,3.91
		c0.27,0,0.49-0.07,0.64-0.21c0.16-0.14,0.23-0.35,0.23-0.62V2.56c0-0.27-0.08-0.48-0.23-0.62c-0.16-0.14-0.37-0.21-0.64-0.21H95.9
		v2.18H97.82z"/>
	<path d="M103.35,8.52V0.14h5.56v1.62h-3.73v1.7h3.18v1.62h-3.18v3.43H103.35z"/>
	<path d="M115.58,0.14h4.07c0.7,0,1.24,0.2,1.63,0.59c0.39,0.39,0.58,0.91,0.58,1.56c0,0.32-0.04,0.59-0.13,0.82
		c-0.08,0.22-0.2,0.41-0.34,0.55c-0.14,0.14-0.3,0.25-0.49,0.32s-0.39,0.11-0.61,0.11v0.07c0.2,0,0.41,0.04,0.63,0.11
		c0.22,0.07,0.42,0.19,0.61,0.34c0.18,0.16,0.34,0.36,0.46,0.61s0.19,0.55,0.19,0.91c0,0.33-0.05,0.64-0.16,0.93
		c-0.11,0.29-0.26,0.55-0.45,0.76s-0.42,0.39-0.68,0.51s-0.55,0.19-0.86,0.19h-4.44V0.14z M117.41,3.58h1.81
		c0.24,0,0.43-0.07,0.56-0.2c0.14-0.14,0.2-0.32,0.2-0.56V2.45c0-0.24-0.07-0.43-0.2-0.56c-0.14-0.14-0.32-0.2-0.56-0.2h-1.81V3.58z
		 M117.41,6.98h2.1c0.24,0,0.43-0.07,0.57-0.2c0.14-0.13,0.21-0.32,0.21-0.56V5.82c0-0.24-0.07-0.43-0.21-0.56s-0.33-0.2-0.57-0.2
		h-2.1V6.98z"/>
	<path d="M129.75,8.52l-0.6-1.99h-2.8l-0.6,1.99h-1.85l2.76-8.38h2.26l2.72,8.38H129.75z M127.77,1.8h-0.06l-0.92,3.18h1.92
		L127.77,1.8z"/>
	<path d="M136.71,8.66c-0.74,0-1.36-0.13-1.87-0.38c-0.51-0.25-0.95-0.58-1.31-0.98l1.2-1.21c0.57,0.63,1.27,0.95,2.1,0.95
		c0.45,0,0.78-0.09,1-0.27c0.22-0.18,0.32-0.42,0.32-0.73c0-0.23-0.06-0.42-0.19-0.58s-0.39-0.26-0.78-0.32l-0.83-0.11
		c-0.89-0.11-1.54-0.38-1.95-0.8c-0.41-0.42-0.62-0.99-0.62-1.69c0-0.38,0.07-0.72,0.22-1.03s0.35-0.58,0.62-0.81
		c0.27-0.22,0.6-0.4,0.98-0.52S136.43,0,136.93,0c0.63,0,1.19,0.1,1.67,0.3s0.89,0.49,1.24,0.88l-1.21,1.23
		c-0.2-0.23-0.44-0.42-0.73-0.56c-0.28-0.15-0.64-0.22-1.07-0.22c-0.41,0-0.71,0.07-0.91,0.21c-0.2,0.14-0.3,0.34-0.3,0.59
		c0,0.29,0.08,0.49,0.23,0.62c0.16,0.13,0.41,0.22,0.76,0.27l0.83,0.13c0.86,0.14,1.5,0.4,1.92,0.8s0.62,0.96,0.62,1.69
		c0,0.4-0.07,0.77-0.22,1.11c-0.14,0.34-0.35,0.62-0.63,0.87c-0.28,0.24-0.62,0.43-1.03,0.56C137.7,8.6,137.23,8.66,136.71,8.66z"/>
	<path d="M142.68,8.52V0.14h5.7v1.62h-3.88v1.7h3.32v1.62h-3.32V6.9h3.88v1.62H142.68z"/>
</g>
</svg>
