<!-- Generator: Adobe Illustrator 23.1.1, SVG Export Plug-In  -->
<svg version="1.1" xmlns="http://www.w3.org/2000/svg" xmlns:xlink="http://www.w3.org/1999/xlink" x="0px" y="0px" width="79.16px"
	 height="11.67px" viewBox="0 0 79.16 11.67" style="enable-background:new 0 0 79.16 11.67;" xml:space="preserve">
<style type="text/css">
	.st0{fill:none;stroke:#000000;stroke-width:0.5;}
</style>
<defs>
</defs>
<g>
	<path class="st0" d="M8.6,4.09H8.55L7.74,5.72L5.56,9.67L3.43,5.74L2.59,3.98H2.54v7.44H0.25V0.25h2.58l2.74,5.23h0.03l2.7-5.23
		h2.59v11.17H8.6V4.09z"/>
	<path class="st0" d="M13.35,11.42V0.25h7.6v2.16h-5.17v2.27h4.43v2.16h-4.43v2.42h5.17v2.16H13.35z"/>
	<path class="st0" d="M25.5,11.42h-2.43V0.25h5.3c0.51,0,0.98,0.09,1.39,0.26c0.42,0.17,0.77,0.41,1.06,0.73
		c0.29,0.31,0.52,0.69,0.68,1.13c0.16,0.44,0.24,0.92,0.24,1.46c0,0.76-0.17,1.42-0.5,1.98c-0.34,0.57-0.85,0.98-1.53,1.23
		l2.19,4.38h-2.7l-1.95-4.1H25.5V11.42z M28.06,5.27c0.36,0,0.65-0.09,0.86-0.28s0.31-0.46,0.31-0.82v-0.7
		c0-0.36-0.1-0.64-0.31-0.82s-0.49-0.28-0.86-0.28H25.5v2.91H28.06z"/>
	<path class="st0" d="M33.42,11.42V9.48h1.44v-7.3h-1.44V0.25h5.31v1.94h-1.44v7.3h1.44v1.94H33.42z"/>
	<path class="st0" d="M40.76,0.25h4.21c0.74,0,1.41,0.12,2.02,0.35c0.61,0.23,1.12,0.58,1.55,1.05s0.76,1.05,0.99,1.74
		c0.23,0.7,0.35,1.51,0.35,2.44s-0.12,1.74-0.35,2.44c-0.23,0.7-0.57,1.28-0.99,1.74s-0.94,0.81-1.55,1.05
		c-0.61,0.23-1.28,0.35-2.02,0.35h-4.21V0.25z M44.97,9.26c0.73,0,1.3-0.2,1.71-0.61c0.42-0.41,0.62-1.06,0.62-1.95V4.97
		c0-0.9-0.21-1.55-0.62-1.95s-0.99-0.61-1.71-0.61h-1.78v6.85H44.97z"/>
	<path class="st0" d="M51.48,11.42V9.48h1.44v-7.3h-1.44V0.25h5.31v1.94h-1.44v7.3h1.44v1.94H51.48z"/>
	<path class="st0" d="M65.71,11.42l-0.8-2.66h-3.73l-0.8,2.66h-2.46l3.68-11.17h3.01l3.63,11.17H65.71z M63.07,2.46h-0.08L61.75,6.7
		h2.56L63.07,2.46z"/>
	<path class="st0" d="M73.19,6.14L72.12,3.9h-0.05v7.52h-2.29V0.25h2.66l3.06,5.28l1.07,2.24h0.05V0.25h2.29v11.17h-2.66L73.19,6.14
		z"/>
</g>
</svg>
