<!-- Generator: Adobe Illustrator 23.1.1, SVG Export Plug-In  -->
<svg version="1.1" xmlns="http://www.w3.org/2000/svg" xmlns:xlink="http://www.w3.org/1999/xlink" x="0px" y="0px" width="45.84px"
	 height="8.66px" viewBox="0 0 45.84 8.66" style="enable-background:new 0 0 45.84 8.66;" xml:space="preserve">
<style type="text/css">
	.st0{fill:#FFFFFF;}
</style>
<defs>
</defs>
<g>
	<path class="st0" d="M0.44,8.52V7.63h2.34V0.89H2.7L0.59,2.86L0,2.22l2.22-2.08h1.57v7.49h2.16v0.89H0.44z"/>
	<path class="st0" d="M11.39,8.66c-0.43,0-0.82-0.07-1.17-0.22C9.87,8.29,9.57,8.08,9.33,7.81C9.09,7.53,8.9,7.19,8.77,6.79
		c-0.13-0.4-0.19-0.85-0.19-1.34c0-0.62,0.09-1.21,0.28-1.76c0.18-0.55,0.42-1.05,0.71-1.5c0.29-0.45,0.61-0.85,0.97-1.2
		c0.35-0.35,0.7-0.63,1.03-0.85h1.3c-0.45,0.33-0.85,0.65-1.2,0.96C11.31,1.41,11,1.74,10.74,2.08c-0.26,0.34-0.49,0.7-0.67,1.09
		C9.88,3.55,9.74,3.99,9.62,4.48L9.68,4.5c0.2-0.34,0.46-0.63,0.77-0.86c0.32-0.23,0.73-0.34,1.24-0.34c0.36,0,0.69,0.06,1,0.18
		S13.26,3.77,13.48,4c0.22,0.22,0.39,0.5,0.51,0.82s0.19,0.68,0.19,1.07c0,0.41-0.07,0.78-0.2,1.12c-0.13,0.34-0.32,0.63-0.56,0.88
		c-0.24,0.24-0.54,0.44-0.88,0.57C12.18,8.6,11.8,8.66,11.39,8.66z M11.38,7.78c0.55,0,0.98-0.15,1.29-0.46
		c0.31-0.3,0.46-0.74,0.46-1.31v-0.1c0-0.57-0.15-1-0.46-1.31c-0.31-0.3-0.74-0.46-1.29-0.46c-0.55,0-0.98,0.15-1.29,0.46
		c-0.31,0.3-0.46,0.74-0.46,1.31v0.1c0,0.57,0.15,1,0.46,1.31C10.39,7.62,10.82,7.78,11.38,7.78z"/>
	<path class="st0" d="M22.56,8.52h-5.5V7.49l2.74-2.52c0.39-0.36,0.72-0.74,0.98-1.15c0.26-0.41,0.4-0.81,0.4-1.22V2.45
		c0-0.47-0.13-0.84-0.38-1.13c-0.26-0.29-0.64-0.43-1.16-0.43c-0.26,0-0.48,0.04-0.67,0.11c-0.19,0.07-0.36,0.17-0.5,0.3
		c-0.14,0.13-0.26,0.28-0.35,0.45c-0.09,0.17-0.17,0.36-0.22,0.56l-0.9-0.35c0.08-0.25,0.19-0.49,0.33-0.73
		c0.14-0.24,0.32-0.44,0.53-0.63s0.47-0.33,0.77-0.44C18.92,0.06,19.27,0,19.68,0c0.41,0,0.77,0.06,1.09,0.18
		c0.32,0.12,0.59,0.29,0.8,0.5c0.22,0.22,0.38,0.47,0.5,0.77c0.12,0.3,0.17,0.62,0.17,0.98c0,0.33-0.05,0.63-0.14,0.91
		c-0.09,0.28-0.22,0.55-0.38,0.8c-0.16,0.25-0.35,0.5-0.58,0.74s-0.47,0.48-0.74,0.72l-2.26,2.03h4.4V8.52z"/>
	<path class="st0" d="M32.64,8.66c-1.06,0-1.89-0.36-2.48-1.09c-0.59-0.72-0.89-1.79-0.89-3.2c0-1.41,0.3-2.49,0.89-3.25
		C30.75,0.38,31.58,0,32.64,0c0.7,0,1.29,0.16,1.77,0.47s0.85,0.77,1.11,1.35L34.7,2.32c-0.17-0.43-0.42-0.78-0.77-1.04
		c-0.34-0.26-0.78-0.39-1.3-0.39c-0.36,0-0.68,0.07-0.97,0.2c-0.28,0.14-0.52,0.33-0.72,0.58c-0.2,0.25-0.35,0.55-0.45,0.9
		c-0.1,0.35-0.16,0.74-0.16,1.17v1.25c0,0.87,0.2,1.55,0.6,2.04s0.96,0.73,1.69,0.73c0.54,0,0.98-0.14,1.34-0.41
		c0.36-0.28,0.62-0.64,0.79-1.1l0.8,0.5c-0.26,0.59-0.64,1.06-1.14,1.39C33.94,8.5,33.34,8.66,32.64,8.66z"/>
	<path class="st0" d="M44.85,1.46h-0.06l-0.71,1.4l-2,3.65l-2-3.65l-0.71-1.4h-0.06v7.06h-0.98V0.14h1.34l2.4,4.51h0.06l2.41-4.51
		h1.3v8.38h-0.98V1.46z"/>
</g>
</svg>
