<!-- Generator: Adobe Illustrator 23.1.1, SVG Export Plug-In  -->
<svg version="1.1" xmlns="http://www.w3.org/2000/svg" xmlns:xlink="http://www.w3.org/1999/xlink" x="0px" y="0px" width="38.13px"
	 height="11.55px" viewBox="0 0 38.13 11.55" style="enable-background:new 0 0 38.13 11.55;" xml:space="preserve">
<defs>
</defs>
<g>
	<path d="M4.14,11.55c-1.33,0-2.36-0.48-3.07-1.44S0,7.71,0,5.78S0.36,2.4,1.07,1.44S2.81,0,4.14,0c0.82,0,1.52,0.21,2.11,0.63
		C6.84,1.05,7.29,1.61,7.6,2.29L7.3,2.43c-0.29-0.66-0.7-1.18-1.24-1.55C5.52,0.51,4.88,0.32,4.14,0.32c-1.17,0-2.09,0.42-2.76,1.26
		s-1,2.13-1,3.86v0.67c0,1.73,0.33,3.01,1,3.86c0.67,0.84,1.59,1.26,2.76,1.26c0.8,0,1.47-0.2,2.01-0.59
		C6.69,10.25,7.1,9.7,7.38,8.99l0.3,0.13c-0.29,0.74-0.73,1.33-1.34,1.77C5.74,11.33,5.01,11.55,4.14,11.55z"/>
	<path d="M12.96,11.55c-1.07,0-1.89-0.35-2.48-1.06C9.89,9.78,9.6,8.72,9.6,7.31c0-1.41,0.29-2.47,0.88-3.18
		c0.59-0.71,1.41-1.06,2.48-1.06c1.07,0,1.89,0.35,2.48,1.06c0.59,0.71,0.88,1.77,0.88,3.18c0,1.41-0.29,2.47-0.88,3.18
		C14.85,11.2,14.03,11.55,12.96,11.55z M12.96,11.25c0.97,0,1.71-0.32,2.22-0.95c0.51-0.63,0.77-1.5,0.77-2.6V6.93
		c0-1.1-0.26-1.97-0.77-2.6c-0.51-0.63-1.25-0.95-2.22-0.95s-1.71,0.32-2.22,0.95c-0.51,0.63-0.77,1.5-0.77,2.6V7.7
		c0,1.1,0.26,1.97,0.77,2.6C11.25,10.93,11.99,11.25,12.96,11.25z"/>
	<path d="M17.6,3.26h0.35l2.85,7.71h0.05l2.85-7.71h0.34l-3.01,8.1h-0.42L17.6,3.26z"/>
	<path d="M28.7,11.55c-1.07,0-1.9-0.35-2.5-1.06c-0.6-0.71-0.9-1.77-0.9-3.18c0-1.4,0.29-2.45,0.88-3.17
		c0.59-0.71,1.4-1.07,2.45-1.07c0.49,0,0.94,0.09,1.34,0.28s0.74,0.46,1.03,0.81c0.29,0.35,0.51,0.78,0.67,1.27
		c0.16,0.5,0.24,1.05,0.24,1.67v0.16h-6.24V7.7c0,1.1,0.26,1.97,0.78,2.6s1.27,0.95,2.24,0.95c1.37,0,2.3-0.66,2.8-1.98l0.29,0.11
		c-0.25,0.67-0.63,1.2-1.14,1.59C30.13,11.36,29.48,11.55,28.7,11.55z M28.64,3.38c-0.95,0-1.68,0.32-2.19,0.95
		c-0.51,0.63-0.77,1.5-0.77,2.6v0.03h5.87V6.9c0-0.53-0.07-1.02-0.21-1.45c-0.14-0.43-0.34-0.8-0.59-1.11
		c-0.26-0.31-0.56-0.55-0.92-0.71S29.08,3.38,28.64,3.38z"/>
	<path d="M34.56,11.36v-8.1h0.34v1.41h0.05c0.1-0.19,0.21-0.37,0.34-0.54c0.13-0.17,0.3-0.31,0.5-0.44s0.43-0.23,0.71-0.31
		c0.28-0.08,0.6-0.11,0.98-0.11h0.66v0.32h-0.7c-0.33,0-0.65,0.04-0.95,0.14c-0.3,0.09-0.57,0.23-0.81,0.41
		c-0.23,0.18-0.42,0.41-0.56,0.69c-0.14,0.28-0.21,0.6-0.21,0.97v5.57H34.56z"/>
</g>
</svg>
