<!-- Generator: Adobe Illustrator 23.1.1, SVG Export Plug-In  -->
<svg version="1.1" xmlns="http://www.w3.org/2000/svg" xmlns:xlink="http://www.w3.org/1999/xlink" x="0px" y="0px"
	 width="156.83px" height="23.06px" viewBox="0 0 156.83 23.06" style="enable-background:new 0 0 156.83 23.06;"
	 xml:space="preserve">
<defs>
</defs>
<g>
	<path d="M3.71,8.66c-0.57,0-1.08-0.09-1.54-0.27s-0.84-0.45-1.16-0.8c-0.32-0.36-0.57-0.8-0.74-1.33C0.09,5.73,0,5.1,0,4.39
		c0-0.7,0.09-1.33,0.26-1.88c0.18-0.55,0.42-1.01,0.74-1.38s0.71-0.65,1.16-0.85C2.63,0.1,3.14,0,3.71,0c0.78,0,1.42,0.16,1.92,0.47
		s0.91,0.81,1.21,1.49L5.27,2.78C5.16,2.43,4.98,2.15,4.75,1.94C4.51,1.73,4.16,1.62,3.71,1.62c-0.54,0-0.97,0.17-1.29,0.52
		C2.09,2.49,1.93,3,1.93,3.66V5c0,0.66,0.16,1.17,0.49,1.52c0.32,0.35,0.75,0.52,1.29,0.52c0.45,0,0.81-0.12,1.07-0.37
		S5.25,6.14,5.38,5.8l1.49,0.86C6.55,7.3,6.14,7.79,5.63,8.14S4.48,8.66,3.71,8.66z"/>
	<path d="M14.39,8.52l-0.6-1.99h-2.8l-0.6,1.99H8.54l2.76-8.38h2.26l2.72,8.38H14.39z M12.41,1.8h-0.06l-0.92,3.18h1.92L12.41,1.8z"
		/>
	<path d="M20.46,8.52h-1.82V0.14h3.97c0.38,0,0.73,0.06,1.04,0.19s0.58,0.31,0.8,0.55c0.22,0.24,0.39,0.52,0.51,0.85
		s0.18,0.69,0.18,1.09c0,0.57-0.13,1.06-0.38,1.49s-0.63,0.73-1.15,0.92l1.64,3.29h-2.03l-1.46-3.07h-1.31V8.52z M22.38,3.91
		c0.27,0,0.49-0.07,0.64-0.21c0.16-0.14,0.23-0.35,0.23-0.62V2.56c0-0.27-0.08-0.48-0.23-0.62c-0.16-0.14-0.37-0.21-0.64-0.21h-1.92
		v2.18H22.38z"/>
	<path d="M27.91,0.14h4.07c0.7,0,1.24,0.2,1.63,0.59c0.39,0.39,0.58,0.91,0.58,1.56c0,0.32-0.04,0.59-0.13,0.82
		c-0.08,0.22-0.2,0.41-0.34,0.55c-0.14,0.14-0.3,0.25-0.49,0.32s-0.39,0.11-0.61,0.11v0.07c0.2,0,0.41,0.04,0.63,0.11
		c0.22,0.07,0.42,0.19,0.61,0.34c0.18,0.16,0.34,0.36,0.46,0.61s0.19,0.55,0.19,0.91c0,0.33-0.05,0.64-0.16,0.93
		c-0.11,0.29-0.26,0.55-0.45,0.76s-0.42,0.39-0.68,0.51s-0.55,0.19-0.86,0.19h-4.44V0.14z M29.74,3.58h1.81
		c0.24,0,0.43-0.07,0.56-0.2c0.14-0.14,0.2-0.32,0.2-0.56V2.45c0-0.24-0.07-0.43-0.2-0.56c-0.14-0.14-0.32-0.2-0.56-0.2h-1.81V3.58z
		 M29.74,6.98h2.1c0.24,0,0.43-0.07,0.57-0.2c0.14-0.13,0.21-0.32,0.21-0.56V5.82c0-0.24-0.07-0.43-0.21-0.56s-0.33-0.2-0.57-0.2
		h-2.1V6.98z"/>
	<path d="M40.46,8.66c-0.55,0-1.06-0.09-1.51-0.28c-0.46-0.18-0.84-0.46-1.16-0.82s-0.57-0.82-0.74-1.36
		c-0.18-0.54-0.26-1.17-0.26-1.88c0-0.71,0.09-1.34,0.26-1.88c0.18-0.54,0.42-0.99,0.74-1.36s0.71-0.64,1.16-0.82
		C39.41,0.09,39.91,0,40.46,0c0.55,0,1.06,0.09,1.51,0.28c0.46,0.18,0.84,0.46,1.16,0.82s0.57,0.82,0.74,1.36
		c0.18,0.54,0.26,1.17,0.26,1.88c0,0.71-0.09,1.34-0.26,1.88c-0.18,0.54-0.42,0.99-0.74,1.36s-0.71,0.64-1.16,0.82
		C41.52,8.57,41.02,8.66,40.46,8.66z M40.46,7.04c0.55,0,0.98-0.18,1.29-0.54c0.31-0.36,0.46-0.88,0.46-1.55V3.71
		c0-0.67-0.15-1.19-0.46-1.55c-0.31-0.36-0.74-0.54-1.29-0.54c-0.55,0-0.98,0.18-1.29,0.54c-0.31,0.36-0.46,0.88-0.46,1.55v1.25
		c0,0.67,0.15,1.19,0.46,1.55C39.48,6.86,39.91,7.04,40.46,7.04z"/>
	<path d="M49.42,4.56l-0.8-1.68h-0.04v5.64h-1.72V0.14h1.99l2.29,3.96l0.8,1.68h0.04V0.14h1.72v8.38h-1.99L49.42,4.56z"/>
	<path d="M60.76,8.52V0.14h5.56v1.62h-3.73v1.7h3.18v1.62h-3.18v3.43H60.76z"/>
	<path d="M68.64,8.52V7.07h1.08V1.6h-1.08V0.14h3.98V1.6h-1.08v5.47h1.08v1.45H68.64z"/>
	<path d="M75.34,0.14h4.07c0.7,0,1.24,0.2,1.63,0.59c0.39,0.39,0.58,0.91,0.58,1.56c0,0.32-0.04,0.59-0.13,0.82
		c-0.08,0.22-0.2,0.41-0.34,0.55c-0.14,0.14-0.3,0.25-0.49,0.32s-0.39,0.11-0.61,0.11v0.07c0.2,0,0.41,0.04,0.63,0.11
		c0.22,0.07,0.42,0.19,0.61,0.34c0.18,0.16,0.34,0.36,0.46,0.61s0.19,0.55,0.19,0.91c0,0.33-0.05,0.64-0.16,0.93
		c-0.11,0.29-0.26,0.55-0.45,0.76s-0.42,0.39-0.68,0.51s-0.55,0.19-0.86,0.19h-4.44V0.14z M77.16,3.58h1.81
		c0.24,0,0.43-0.07,0.56-0.2c0.14-0.14,0.2-0.32,0.2-0.56V2.45c0-0.24-0.07-0.43-0.2-0.56c-0.14-0.14-0.32-0.2-0.56-0.2h-1.81V3.58z
		 M77.16,6.98h2.1c0.24,0,0.43-0.07,0.57-0.2c0.14-0.13,0.21-0.32,0.21-0.56V5.82c0-0.24-0.07-0.43-0.21-0.56s-0.33-0.2-0.57-0.2
		h-2.1V6.98z"/>
	<path d="M84.53,8.52V0.14h5.7v1.62h-3.88v1.7h3.32v1.62h-3.32V6.9h3.88v1.62H84.53z"/>
	<path d="M94.82,8.52H93V0.14h3.97c0.38,0,0.73,0.06,1.04,0.19s0.58,0.31,0.8,0.55c0.22,0.24,0.39,0.52,0.51,0.85
		s0.18,0.69,0.18,1.09c0,0.57-0.13,1.06-0.38,1.49s-0.63,0.73-1.15,0.92l1.64,3.29H97.6l-1.46-3.07h-1.31V8.52z M96.74,3.91
		c0.27,0,0.49-0.07,0.64-0.21c0.16-0.14,0.23-0.35,0.23-0.62V2.56c0-0.27-0.08-0.48-0.23-0.62c-0.16-0.14-0.37-0.21-0.64-0.21h-1.92
		v2.18H96.74z"/>
	<path d="M111.31,5.09h-3.19v3.43h-1.82V0.14h1.82v3.32h3.19V0.14h1.82v8.38h-1.82V5.09z"/>
	<path d="M118.22,8.52V5.24l-2.87-5.1h2.04l1.8,3.34h0.02l1.73-3.34h1.98l-2.87,5.09v3.29H118.22z"/>
	<path d="M125.15,0.14h4.07c0.7,0,1.24,0.2,1.63,0.59c0.39,0.39,0.58,0.91,0.58,1.56c0,0.32-0.04,0.59-0.13,0.82
		c-0.08,0.22-0.2,0.41-0.34,0.55c-0.14,0.14-0.3,0.25-0.49,0.32s-0.39,0.11-0.61,0.11v0.07c0.2,0,0.41,0.04,0.63,0.11
		c0.22,0.07,0.42,0.19,0.61,0.34c0.18,0.16,0.34,0.36,0.46,0.61s0.19,0.55,0.19,0.91c0,0.33-0.05,0.64-0.16,0.93
		c-0.11,0.29-0.26,0.55-0.45,0.76s-0.42,0.39-0.68,0.51s-0.55,0.19-0.86,0.19h-4.44V0.14z M126.97,3.58h1.81
		c0.24,0,0.43-0.07,0.56-0.2c0.14-0.14,0.2-0.32,0.2-0.56V2.45c0-0.24-0.07-0.43-0.2-0.56c-0.14-0.14-0.32-0.2-0.56-0.2h-1.81V3.58z
		 M126.97,6.98h2.1c0.24,0,0.43-0.07,0.57-0.2c0.14-0.13,0.21-0.32,0.21-0.56V5.82c0-0.24-0.07-0.43-0.21-0.56s-0.33-0.2-0.57-0.2
		h-2.1V6.98z"/>
	<path d="M136.16,8.52h-1.82V0.14h3.97c0.38,0,0.73,0.06,1.04,0.19s0.58,0.31,0.8,0.55c0.22,0.24,0.39,0.52,0.51,0.85
		s0.18,0.69,0.18,1.09c0,0.57-0.13,1.06-0.38,1.49s-0.63,0.73-1.15,0.92l1.64,3.29h-2.03l-1.46-3.07h-1.31V8.52z M138.08,3.91
		c0.27,0,0.49-0.07,0.64-0.21c0.16-0.14,0.23-0.35,0.23-0.62V2.56c0-0.27-0.08-0.48-0.23-0.62c-0.16-0.14-0.37-0.21-0.64-0.21h-1.92
		v2.18H138.08z"/>
	<path d="M143.29,8.52V7.07h1.08V1.6h-1.08V0.14h3.98V1.6h-1.08v5.47h1.08v1.45H143.29z"/>
	<path d="M149.99,0.14h3.16c0.55,0,1.06,0.09,1.51,0.26c0.46,0.18,0.84,0.44,1.16,0.79c0.32,0.35,0.57,0.78,0.74,1.31
		c0.18,0.52,0.26,1.13,0.26,1.83c0,0.7-0.09,1.31-0.26,1.83c-0.18,0.52-0.42,0.96-0.74,1.31c-0.32,0.35-0.71,0.61-1.16,0.79
		c-0.46,0.18-0.96,0.26-1.51,0.26h-3.16V0.14z M153.14,6.9c0.54,0,0.97-0.15,1.28-0.46c0.31-0.3,0.47-0.79,0.47-1.46v-1.3
		c0-0.67-0.16-1.16-0.47-1.46s-0.74-0.46-1.28-0.46h-1.33V6.9H153.14z"/>
	<path d="M3.71,23.06c-0.57,0-1.08-0.09-1.54-0.27s-0.84-0.45-1.16-0.8c-0.32-0.36-0.57-0.8-0.74-1.33C0.09,20.13,0,19.5,0,18.79
		c0-0.7,0.09-1.33,0.26-1.88c0.18-0.55,0.42-1.01,0.74-1.38s0.71-0.65,1.16-0.85c0.46-0.19,0.97-0.29,1.54-0.29
		c0.78,0,1.42,0.16,1.92,0.47s0.91,0.81,1.21,1.49l-1.57,0.82c-0.11-0.35-0.29-0.63-0.52-0.85c-0.24-0.21-0.58-0.32-1.04-0.32
		c-0.54,0-0.97,0.17-1.29,0.52c-0.32,0.35-0.49,0.85-0.49,1.52v1.34c0,0.66,0.16,1.17,0.49,1.52c0.32,0.35,0.75,0.52,1.29,0.52
		c0.45,0,0.81-0.12,1.07-0.37s0.47-0.54,0.59-0.88l1.49,0.86c-0.31,0.64-0.72,1.13-1.23,1.48S4.48,23.06,3.71,23.06z"/>
	<path d="M12.53,23.06c-0.55,0-1.06-0.09-1.51-0.28c-0.46-0.18-0.84-0.46-1.16-0.82s-0.57-0.82-0.74-1.36
		c-0.18-0.54-0.26-1.17-0.26-1.88c0-0.71,0.09-1.34,0.26-1.88c0.18-0.54,0.42-0.99,0.74-1.36s0.71-0.64,1.16-0.82
		c0.46-0.18,0.96-0.28,1.51-0.28c0.55,0,1.06,0.09,1.51,0.28c0.46,0.18,0.84,0.46,1.16,0.82s0.57,0.82,0.74,1.36
		c0.18,0.54,0.26,1.17,0.26,1.88c0,0.71-0.09,1.34-0.26,1.88c-0.18,0.54-0.42,0.99-0.74,1.36s-0.71,0.64-1.16,0.82
		C13.58,22.97,13.08,23.06,12.53,23.06z M12.53,21.44c0.55,0,0.98-0.18,1.29-0.54c0.31-0.36,0.46-0.88,0.46-1.55v-1.25
		c0-0.67-0.15-1.19-0.46-1.55c-0.31-0.36-0.74-0.54-1.29-0.54c-0.55,0-0.98,0.18-1.29,0.54c-0.31,0.36-0.46,0.88-0.46,1.55v1.25
		c0,0.67,0.15,1.19,0.46,1.55C11.55,21.26,11.98,21.44,12.53,21.44z"/>
	<path d="M25.19,17.42h-0.04l-0.61,1.22l-1.63,2.96l-1.6-2.95l-0.64-1.32h-0.04v5.58h-1.72v-8.38h1.93l2.05,3.92h0.02l2.03-3.92
		h1.94v8.38h-1.72V17.42z"/>
	<path d="M29.94,22.92v-8.38h3.96c0.39,0,0.74,0.07,1.06,0.2s0.58,0.31,0.8,0.55c0.22,0.23,0.39,0.51,0.51,0.85s0.18,0.69,0.18,1.09
		c0,0.4-0.06,0.76-0.18,1.09c-0.12,0.33-0.29,0.61-0.51,0.84c-0.22,0.23-0.49,0.41-0.8,0.55s-0.66,0.2-1.06,0.2h-2.14v3.02H29.94z
		 M31.76,18.31h1.92c0.27,0,0.49-0.07,0.64-0.21c0.16-0.14,0.23-0.35,0.23-0.62v-0.53c0-0.27-0.08-0.48-0.23-0.62
		c-0.16-0.14-0.37-0.21-0.64-0.21h-1.92V18.31z"/>
	<path d="M42.36,23.06c-0.55,0-1.06-0.09-1.51-0.28c-0.46-0.18-0.84-0.46-1.16-0.82s-0.57-0.82-0.74-1.36
		c-0.18-0.54-0.26-1.17-0.26-1.88c0-0.71,0.09-1.34,0.26-1.88c0.18-0.54,0.42-0.99,0.74-1.36s0.71-0.64,1.16-0.82
		c0.46-0.18,0.96-0.28,1.51-0.28c0.55,0,1.06,0.09,1.51,0.28c0.46,0.18,0.84,0.46,1.16,0.82s0.57,0.82,0.74,1.36
		c0.18,0.54,0.26,1.17,0.26,1.88c0,0.71-0.09,1.34-0.26,1.88c-0.18,0.54-0.42,0.99-0.74,1.36s-0.71,0.64-1.16,0.82
		C43.42,22.97,42.91,23.06,42.36,23.06z M42.36,21.44c0.55,0,0.98-0.18,1.29-0.54c0.31-0.36,0.46-0.88,0.46-1.55v-1.25
		c0-0.67-0.15-1.19-0.46-1.55c-0.31-0.36-0.74-0.54-1.29-0.54c-0.55,0-0.98,0.18-1.29,0.54c-0.31,0.36-0.46,0.88-0.46,1.55v1.25
		c0,0.67,0.15,1.19,0.46,1.55C41.38,21.26,41.81,21.44,42.36,21.44z"/>
	<path d="M51.42,23.06c-0.74,0-1.36-0.13-1.87-0.38c-0.51-0.25-0.95-0.58-1.31-0.98l1.2-1.21c0.57,0.63,1.27,0.95,2.1,0.95
		c0.45,0,0.78-0.09,1-0.27c0.22-0.18,0.32-0.42,0.32-0.73c0-0.23-0.06-0.42-0.19-0.58s-0.39-0.26-0.78-0.32l-0.83-0.11
		c-0.89-0.11-1.54-0.38-1.95-0.8c-0.41-0.42-0.62-0.99-0.62-1.69c0-0.38,0.07-0.72,0.22-1.03s0.35-0.58,0.62-0.81
		c0.27-0.22,0.6-0.4,0.98-0.52s0.83-0.19,1.33-0.19c0.63,0,1.19,0.1,1.67,0.3s0.89,0.49,1.24,0.88l-1.21,1.23
		c-0.2-0.23-0.44-0.42-0.73-0.56c-0.28-0.15-0.64-0.22-1.07-0.22c-0.41,0-0.71,0.07-0.91,0.21c-0.2,0.14-0.3,0.34-0.3,0.59
		c0,0.29,0.08,0.49,0.23,0.62c0.16,0.13,0.41,0.22,0.76,0.27l0.83,0.13c0.86,0.14,1.5,0.4,1.92,0.8s0.62,0.96,0.62,1.69
		c0,0.4-0.07,0.77-0.22,1.11c-0.14,0.34-0.35,0.62-0.63,0.87c-0.28,0.24-0.62,0.43-1.03,0.56C52.4,23,51.94,23.06,51.42,23.06z"/>
	<path d="M57.06,22.92v-1.45h1.08V16h-1.08v-1.45h3.98V16h-1.08v5.47h1.08v1.45H57.06z"/>
	<path d="M67.2,16.16v6.76h-1.82v-6.76h-2.27v-1.62h6.36v1.62H67.2z"/>
	<path d="M71.9,22.92v-8.38h5.7v1.62h-3.88v1.7h3.32v1.62h-3.32v1.81h3.88v1.62H71.9z"/>
	<path d="M84.4,22.92v-8.38h1.82v6.76h3.19v1.62H84.4z"/>
	<path d="M97.31,22.92l-0.6-1.99h-2.8l-0.6,1.99h-1.85l2.76-8.38h2.26l2.72,8.38H97.31z M95.33,16.2h-0.06l-0.92,3.18h1.92
		L95.33,16.2z"/>
	<path d="M102.77,22.92v-3.28l-2.87-5.1h2.04l1.8,3.34h0.02l1.73-3.34h1.98l-2.87,5.09v3.29H102.77z"/>
	<path d="M111.42,14.54v5.14c0,0.59,0.12,1.03,0.35,1.33s0.62,0.44,1.16,0.44s0.93-0.15,1.16-0.44c0.23-0.29,0.35-0.73,0.35-1.33
		v-5.14h1.78v4.94c0,0.62-0.06,1.15-0.17,1.6c-0.12,0.45-0.31,0.82-0.57,1.12s-0.6,0.51-1.02,0.65c-0.42,0.14-0.92,0.21-1.52,0.21
		s-1.11-0.07-1.52-0.21c-0.42-0.14-0.76-0.36-1.02-0.65c-0.26-0.29-0.45-0.66-0.57-1.12c-0.12-0.45-0.17-0.99-0.17-1.6v-4.94H111.42
		z"/>
	<path d="M119.21,22.92v-8.38h3.96c0.39,0,0.74,0.07,1.06,0.2s0.58,0.31,0.8,0.55c0.22,0.23,0.39,0.51,0.51,0.85
		s0.18,0.69,0.18,1.09c0,0.4-0.06,0.76-0.18,1.09c-0.12,0.33-0.29,0.61-0.51,0.84c-0.22,0.23-0.49,0.41-0.8,0.55s-0.66,0.2-1.06,0.2
		h-2.14v3.02H119.21z M121.03,18.31h1.92c0.27,0,0.49-0.07,0.64-0.21c0.16-0.14,0.23-0.35,0.23-0.62v-0.53
		c0-0.27-0.08-0.48-0.23-0.62c-0.16-0.14-0.37-0.21-0.64-0.21h-1.92V18.31z"/>
</g>
</svg>
