<!-- Generator: Adobe Illustrator 23.1.1, SVG Export Plug-In  -->
<svg version="1.1" xmlns="http://www.w3.org/2000/svg" xmlns:xlink="http://www.w3.org/1999/xlink" x="0px" y="0px" width="52.16px"
	 height="9.02px" viewBox="0 0 52.16 9.02" style="enable-background:new 0 0 52.16 9.02;" xml:space="preserve">
<defs>
</defs>
<g>
	<path d="M0,0.5h2.45c1.12,0,1.95,0.35,2.5,1.05c0.54,0.7,0.82,1.75,0.82,3.14S5.49,7.13,4.94,7.83c-0.54,0.7-1.38,1.05-2.5,1.05H0
		V0.5z M2.46,8.64c0.52,0,0.97-0.09,1.35-0.26C4.19,8.21,4.5,7.97,4.75,7.66s0.43-0.69,0.55-1.13S5.47,5.6,5.47,5.05V4.33
		c0-0.54-0.06-1.04-0.18-1.48s-0.3-0.82-0.55-1.13S4.19,1.17,3.81,1S2.98,0.74,2.46,0.74h-2.2v7.9H2.46z"/>
	<path d="M9.86,9.02c-0.8,0-1.42-0.27-1.87-0.8C7.54,7.69,7.32,6.9,7.32,5.84C7.32,4.8,7.54,4,7.98,3.47
		c0.44-0.54,1.05-0.8,1.84-0.8c0.37,0,0.7,0.07,1,0.21c0.3,0.14,0.56,0.34,0.77,0.61c0.22,0.26,0.38,0.58,0.5,0.95
		c0.12,0.37,0.18,0.79,0.18,1.25v0.12H7.6v0.32c0,0.82,0.2,1.47,0.59,1.95S9.14,8.8,9.86,8.8c1.02,0,1.72-0.5,2.1-1.49l0.22,0.08
		c-0.18,0.5-0.47,0.9-0.86,1.19C10.93,8.88,10.45,9.02,9.86,9.02z M9.82,2.89c-0.71,0-1.26,0.24-1.64,0.71
		C7.79,4.08,7.6,4.73,7.6,5.56v0.02H12V5.53c0-0.4-0.05-0.76-0.16-1.09c-0.1-0.32-0.25-0.6-0.44-0.83
		c-0.19-0.23-0.42-0.41-0.69-0.53S10.14,2.89,9.82,2.89z"/>
	<path d="M18.06,8.88c-0.23,0-0.35-0.12-0.35-0.35V7.96h-0.04c-0.15,0.29-0.38,0.54-0.69,0.75c-0.31,0.21-0.74,0.32-1.3,0.32
		c-0.62,0-1.11-0.15-1.45-0.44c-0.34-0.29-0.51-0.71-0.51-1.27c0-0.25,0.04-0.48,0.11-0.7c0.08-0.22,0.2-0.4,0.38-0.55
		c0.18-0.15,0.41-0.27,0.7-0.36s0.65-0.13,1.09-0.13h1.7V4.69c0-0.62-0.15-1.08-0.44-1.37c-0.29-0.29-0.72-0.43-1.29-0.43
		c-0.46,0-0.83,0.09-1.13,0.27c-0.3,0.18-0.53,0.47-0.7,0.87l-0.22-0.1c0.17-0.39,0.41-0.7,0.73-0.93c0.32-0.23,0.76-0.34,1.33-0.34
		c0.66,0,1.16,0.17,1.49,0.51c0.33,0.34,0.49,0.83,0.49,1.48v4h1.02v0.23H18.06z M15.68,8.8c0.27,0,0.53-0.04,0.77-0.11
		c0.24-0.07,0.46-0.18,0.64-0.32c0.19-0.14,0.33-0.32,0.45-0.53c0.11-0.21,0.17-0.46,0.17-0.74V5.8h-1.69
		c-0.71,0-1.23,0.12-1.54,0.37S14,6.74,14,7.14V7.5c0,0.42,0.16,0.75,0.47,0.97C14.78,8.69,15.19,8.8,15.68,8.8z"/>
	<path d="M21.13,8.88c-0.23,0-0.35-0.12-0.35-0.35v-5.5h-1.14V2.81h0.86c0.11,0,0.19-0.02,0.22-0.07c0.04-0.04,0.05-0.12,0.05-0.23
		V1.08h0.25v1.73h1.45v0.23h-1.45v5.62h1.36v0.23H21.13z"/>
	<path d="M24.26,0h0.25v3.72h0.04c0.1-0.27,0.31-0.52,0.62-0.73c0.31-0.22,0.73-0.32,1.28-0.32c0.68,0,1.2,0.2,1.55,0.59
		c0.36,0.39,0.53,0.97,0.53,1.73v3.9h-0.25V5.03c0-0.74-0.16-1.29-0.48-1.63c-0.32-0.34-0.78-0.51-1.38-0.51
		c-0.25,0-0.49,0.03-0.72,0.1c-0.23,0.07-0.44,0.17-0.61,0.31c-0.18,0.14-0.32,0.31-0.42,0.52c-0.1,0.21-0.16,0.45-0.16,0.72v4.34
		h-0.25V0z"/>
	<path d="M30.04,2.81h0.26l1.73,5.75h0.04l1.78-5.75h0.26l1.78,5.75h0.04l1.73-5.75h0.25l-1.85,6.07h-0.31l-1.75-5.66h-0.04
		L32.2,8.88h-0.31L30.04,2.81z"/>
	<path d="M39.7,0.8c-0.1,0-0.18-0.03-0.22-0.08c-0.04-0.05-0.06-0.11-0.06-0.17V0.47c0-0.06,0.02-0.12,0.06-0.17
		c0.04-0.05,0.11-0.08,0.22-0.08s0.18,0.03,0.22,0.08c0.04,0.05,0.06,0.11,0.06,0.17v0.08c0,0.06-0.02,0.12-0.06,0.17
		C39.87,0.78,39.8,0.8,39.7,0.8z M39.58,2.81h0.25v6.07h-0.25V2.81z"/>
	<path d="M43.92,9.02c-0.49,0-0.91-0.09-1.28-0.26c-0.36-0.17-0.69-0.46-0.97-0.86l0.22-0.14c0.27,0.38,0.57,0.64,0.88,0.8
		c0.32,0.16,0.7,0.23,1.15,0.23c0.58,0,1.01-0.12,1.31-0.36c0.3-0.24,0.44-0.59,0.44-1.04c0-0.46-0.13-0.79-0.39-1.01
		c-0.26-0.22-0.64-0.36-1.15-0.44l-0.53-0.08c-0.54-0.08-0.96-0.24-1.27-0.49c-0.31-0.24-0.46-0.63-0.46-1.16
		c0-0.26,0.05-0.48,0.15-0.67c0.1-0.19,0.24-0.35,0.41-0.49c0.17-0.13,0.37-0.23,0.61-0.29c0.23-0.06,0.48-0.1,0.76-0.1
		c0.26,0,0.5,0.02,0.7,0.07s0.39,0.11,0.55,0.2s0.3,0.18,0.43,0.28s0.23,0.21,0.33,0.32l-0.19,0.17c-0.1-0.1-0.2-0.21-0.31-0.31
		c-0.11-0.1-0.23-0.19-0.37-0.26c-0.14-0.08-0.3-0.14-0.49-0.18c-0.18-0.04-0.4-0.07-0.64-0.07c-0.5,0-0.91,0.11-1.22,0.33
		c-0.31,0.22-0.46,0.55-0.46,0.98c0,0.46,0.12,0.78,0.37,0.98c0.25,0.2,0.63,0.34,1.15,0.43l0.53,0.08c0.26,0.04,0.5,0.1,0.72,0.18
		c0.22,0.08,0.4,0.19,0.55,0.32c0.15,0.13,0.26,0.3,0.35,0.49c0.08,0.2,0.13,0.43,0.13,0.69c0,0.53-0.18,0.93-0.53,1.22
		C45.03,8.88,44.54,9.02,43.92,9.02z"/>
	<path d="M47.89,0h0.25v3.72h0.04c0.1-0.27,0.31-0.52,0.62-0.73c0.31-0.22,0.73-0.32,1.28-0.32c0.68,0,1.2,0.2,1.55,0.59
		c0.36,0.39,0.53,0.97,0.53,1.73v3.9h-0.25V5.03c0-0.74-0.16-1.29-0.48-1.63c-0.32-0.34-0.78-0.51-1.38-0.51
		c-0.25,0-0.49,0.03-0.72,0.1C49.1,3.06,48.9,3.16,48.72,3.3c-0.18,0.14-0.32,0.31-0.42,0.52c-0.1,0.21-0.16,0.45-0.16,0.72v4.34
		h-0.25V0z"/>
</g>
</svg>
