<!-- Generator: Adobe Illustrator 23.1.1, SVG Export Plug-In  -->
<svg version="1.1" xmlns="http://www.w3.org/2000/svg" xmlns:xlink="http://www.w3.org/1999/xlink" x="0px" y="0px" width="51.72px"
	 height="14.44px" viewBox="0 0 51.72 14.44" style="enable-background:new 0 0 51.72 14.44;" xml:space="preserve">
<style type="text/css">
	.st0{fill:url(#SVGID_1_);}
	.st1{fill:url(#SVGID_2_);}
	.st2{fill:url(#SVGID_3_);}
	.st3{fill:url(#SVGID_4_);}
	.st4{fill:url(#SVGID_5_);}
	.st5{fill:url(#SVGID_6_);}
	.st6{fill:url(#SVGID_7_);}
	.st7{fill:url(#SVGID_8_);}
</style>
<defs>
</defs>
<g>
	<linearGradient id="SVGID_1_" gradientUnits="userSpaceOnUse" x1="0" y1="7.2202" x2="10.7402" y2="7.2202">
		<stop  offset="0.2814" style="stop-color:#D7142C"/>
		<stop  offset="1" style="stop-color:#1E1E1E"/>
	</linearGradient>
	<path class="st0" d="M5.3,14.44c-1.23,0-2.27-0.21-3.12-0.63C1.33,13.39,0.6,12.84,0,12.18l2-2.02c0.95,1.06,2.11,1.59,3.5,1.59
		c0.75,0,1.3-0.15,1.66-0.46s0.54-0.71,0.54-1.21c0-0.38-0.11-0.7-0.32-0.96c-0.21-0.26-0.65-0.43-1.3-0.53L4.7,8.41
		C3.22,8.22,2.14,7.78,1.45,7.07C0.76,6.36,0.42,5.42,0.42,4.25c0-0.63,0.12-1.2,0.36-1.72C1.02,2,1.36,1.56,1.81,1.18
		S2.8,0.52,3.45,0.31C4.1,0.1,4.83,0,5.66,0c1.05,0,1.98,0.17,2.78,0.5c0.8,0.33,1.49,0.82,2.06,1.46L8.48,4.01
		c-0.33-0.38-0.74-0.7-1.21-0.94S6.2,2.7,5.48,2.7c-0.68,0-1.19,0.12-1.52,0.36c-0.33,0.24-0.5,0.57-0.5,0.99
		c0,0.48,0.13,0.82,0.39,1.03c0.26,0.21,0.68,0.36,1.27,0.46L6.5,5.75c1.44,0.23,2.51,0.67,3.2,1.33c0.69,0.66,1.04,1.6,1.04,2.81
		c0,0.67-0.12,1.28-0.36,1.84c-0.24,0.56-0.59,1.04-1.05,1.44s-1.03,0.71-1.71,0.93C6.94,14.33,6.17,14.44,5.3,14.44z"/>
	<linearGradient id="SVGID_2_" gradientUnits="userSpaceOnUse" x1="15.2402" y1="7.2202" x2="27.3804" y2="7.2202">
		<stop  offset="0.2814" style="stop-color:#D7142C"/>
		<stop  offset="1" style="stop-color:#1E1E1E"/>
	</linearGradient>
	<path class="st1" d="M20.1,8.12l-1.82,2.2v3.88h-3.04V0.24h3.04v6.64h0.12l1.98-2.7l3.14-3.94h3.44l-4.7,5.74l5.12,8.22H23.8
		L20.1,8.12z"/>
	<linearGradient id="SVGID_3_" gradientUnits="userSpaceOnUse" x1="30.6001" y1="7.2202" x2="37.2402" y2="7.2202">
		<stop  offset="0.2814" style="stop-color:#D7142C"/>
		<stop  offset="1" style="stop-color:#1E1E1E"/>
	</linearGradient>
	<path class="st2" d="M30.6,14.2v-2.42h1.8V2.66h-1.8V0.24h6.64v2.42h-1.8v9.12h1.8v2.42H30.6z"/>
	<linearGradient id="SVGID_4_" gradientUnits="userSpaceOnUse" x1="40.9795" y1="7.2202" x2="51.7197" y2="7.2202">
		<stop  offset="0.2814" style="stop-color:#D7142C"/>
		<stop  offset="1" style="stop-color:#1E1E1E"/>
	</linearGradient>
	<path class="st3" d="M46.28,14.44c-1.23,0-2.27-0.21-3.12-0.63c-0.85-0.42-1.58-0.96-2.18-1.63l2-2.02
		c0.95,1.06,2.11,1.59,3.5,1.59c0.75,0,1.3-0.15,1.66-0.46s0.54-0.71,0.54-1.21c0-0.38-0.11-0.7-0.32-0.96
		c-0.21-0.26-0.65-0.43-1.3-0.53l-1.38-0.18c-1.48-0.19-2.56-0.63-3.25-1.34c-0.69-0.71-1.03-1.65-1.03-2.82
		c0-0.63,0.12-1.2,0.36-1.72C42,2,42.34,1.56,42.79,1.18s0.99-0.66,1.64-0.87C45.08,0.1,45.81,0,46.64,0c1.05,0,1.98,0.17,2.78,0.5
		c0.8,0.33,1.49,0.82,2.06,1.46l-2.02,2.04c-0.33-0.38-0.74-0.7-1.21-0.94S47.18,2.7,46.46,2.7c-0.68,0-1.19,0.12-1.52,0.36
		c-0.33,0.24-0.5,0.57-0.5,0.99c0,0.48,0.13,0.82,0.39,1.03c0.26,0.21,0.68,0.36,1.27,0.46l1.38,0.22c1.44,0.23,2.51,0.67,3.2,1.33
		c0.69,0.66,1.04,1.6,1.04,2.81c0,0.67-0.12,1.28-0.36,1.84c-0.24,0.56-0.59,1.04-1.05,1.44s-1.03,0.71-1.71,0.93
		C47.92,14.33,47.15,14.44,46.28,14.44z"/>
</g>
</svg>
