<!-- Generator: Adobe Illustrator 23.1.1, SVG Export Plug-In  -->
<svg version="1.1" xmlns="http://www.w3.org/2000/svg" xmlns:xlink="http://www.w3.org/1999/xlink" x="0px" y="0px"
	 width="247.92px" height="72.64px" viewBox="0 0 247.92 72.64" style="enable-background:new 0 0 247.92 72.64;"
	 xml:space="preserve">
<defs>
</defs>
<g>
	<path d="M1.84,3.2c-0.15,0-0.25-0.03-0.31-0.1C1.47,3.04,1.44,2.97,1.44,2.9c0-0.04,0-0.1,0.02-0.16c0.01-0.06,0.02-0.11,0.03-0.14
		c0.05-0.21,0.13-0.44,0.24-0.68c0.11-0.24,0.24-0.47,0.39-0.7c0.16-0.23,0.32-0.45,0.5-0.66C2.81,0.34,3,0.16,3.2,0h0.34
		c-0.48,0.41-0.85,0.81-1.1,1.22S2.01,1.97,1.92,2.27c0.18,0,0.3,0.03,0.35,0.1C2.33,2.43,2.35,2.5,2.35,2.58
		c0,0.04-0.01,0.09-0.02,0.15S2.31,2.83,2.3,2.86C2.28,2.95,2.24,3.03,2.18,3.1C2.11,3.17,2,3.2,1.84,3.2z M4.4,3.2
		c-0.15,0-0.25-0.03-0.31-0.1C4.03,3.04,4,2.97,4,2.9c0-0.04,0.01-0.1,0.02-0.16c0.01-0.06,0.02-0.11,0.03-0.14
		C4.1,2.38,4.18,2.15,4.29,1.91c0.11-0.24,0.24-0.47,0.39-0.7C4.83,0.98,5,0.76,5.18,0.55C5.37,0.34,5.56,0.16,5.76,0H6.1
		c-0.48,0.41-0.85,0.81-1.1,1.22S4.57,1.97,4.48,2.27c0.18,0,0.3,0.03,0.35,0.1C4.89,2.43,4.91,2.5,4.91,2.58
		c0,0.04,0,0.09-0.02,0.15s-0.02,0.1-0.03,0.14C4.84,2.95,4.8,3.03,4.74,3.1C4.67,3.17,4.56,3.2,4.4,3.2z"/>
	<path d="M16.14,6.34H9.33l-1.1,5.5H7.87l2.24-11.17h0.35L9.39,6.02h6.82l1.07-5.34h0.35l-2.24,11.17h-0.35L16.14,6.34z"/>
	<path d="M26.08,11.84c-0.25,0-0.37-0.1-0.37-0.3c0-0.05,0-0.1,0.01-0.13c0-0.03,0.01-0.08,0.02-0.13l0.24-1.22h-0.05
		c-0.34,0.6-0.74,1.08-1.19,1.43c-0.45,0.36-1.02,0.54-1.7,0.54c-0.42,0-0.79-0.08-1.11-0.23s-0.6-0.37-0.82-0.63
		c-0.22-0.27-0.39-0.58-0.5-0.95s-0.17-0.77-0.17-1.19c0-0.74,0.09-1.43,0.26-2.1c0.18-0.66,0.43-1.24,0.77-1.74
		c0.34-0.5,0.75-0.9,1.25-1.19c0.5-0.29,1.06-0.44,1.7-0.44c0.68,0,1.23,0.16,1.65,0.46c0.42,0.31,0.7,0.71,0.85,1.22h0.05
		l0.29-1.49h0.34l-1.55,7.79h1.36l-0.06,0.3H26.08z M23.04,11.73c0.34,0,0.65-0.05,0.93-0.14s0.55-0.26,0.83-0.5
		c0.31-0.26,0.61-0.6,0.89-1.02c0.28-0.43,0.48-0.92,0.6-1.49l0.45-2.27c0.05-0.27,0.05-0.54-0.01-0.83s-0.18-0.55-0.36-0.79
		c-0.18-0.24-0.43-0.44-0.75-0.59c-0.32-0.15-0.72-0.23-1.2-0.23c-0.92,0-1.67,0.32-2.26,0.94c-0.59,0.63-0.98,1.47-1.18,2.53
		l-0.11,0.56c-0.03,0.18-0.06,0.36-0.07,0.54c-0.02,0.18-0.02,0.38-0.02,0.6c0,0.37,0.04,0.72,0.14,1.05s0.23,0.61,0.42,0.86
		c0.19,0.25,0.42,0.44,0.7,0.58C22.31,11.66,22.64,11.73,23.04,11.73z"/>
	<path d="M30.97,11.84l1.62-8.1h0.34l-0.34,1.68h0.05c0.32-0.61,0.71-1.07,1.16-1.39c0.45-0.32,1.02-0.48,1.69-0.48
		c0.68,0,1.21,0.18,1.57,0.55c0.36,0.37,0.54,0.89,0.54,1.56c0,0.16-0.01,0.33-0.03,0.52c-0.02,0.19-0.05,0.36-0.08,0.52l-0.96,4.83
		h1.36l-0.06,0.3h-1.25c-0.25,0-0.37-0.1-0.37-0.3c0-0.05,0-0.1,0.01-0.13c0-0.03,0.01-0.08,0.02-0.13l0.91-4.56
		c0.03-0.18,0.06-0.37,0.08-0.56c0.02-0.19,0.03-0.34,0.03-0.45c0-1.24-0.61-1.86-1.82-1.86c-0.36,0-0.73,0.07-1.1,0.22
		c-0.37,0.14-0.71,0.4-1.03,0.78c-0.18,0.21-0.37,0.48-0.57,0.8c-0.2,0.32-0.34,0.72-0.44,1.2l-0.99,4.99H30.97z"/>
	<path d="M47.09,11.84c-0.25,0-0.37-0.1-0.37-0.3c0-0.05,0-0.1,0.01-0.13c0-0.03,0.01-0.08,0.02-0.13l0.24-1.22h-0.05
		c-0.34,0.6-0.74,1.08-1.19,1.43c-0.45,0.36-1.02,0.54-1.7,0.54c-0.42,0-0.79-0.08-1.11-0.23s-0.6-0.37-0.82-0.63
		c-0.22-0.27-0.39-0.58-0.5-0.95s-0.17-0.77-0.17-1.19c0-0.74,0.09-1.43,0.26-2.1c0.18-0.66,0.43-1.24,0.77-1.74
		c0.34-0.5,0.75-0.9,1.25-1.19c0.5-0.29,1.06-0.44,1.7-0.44c0.68,0,1.23,0.16,1.65,0.46c0.42,0.31,0.7,0.71,0.85,1.22h0.05L49.01,0
		h0.34l-2.3,11.54h1.36l-0.06,0.3H47.09z M44.05,11.73c0.34,0,0.65-0.05,0.93-0.14s0.55-0.26,0.83-0.5c0.31-0.26,0.61-0.6,0.89-1.02
		c0.28-0.43,0.48-0.92,0.6-1.49l0.45-2.27c0.05-0.27,0.05-0.54-0.01-0.83s-0.18-0.55-0.36-0.79c-0.18-0.24-0.43-0.44-0.75-0.59
		c-0.32-0.15-0.72-0.23-1.2-0.23c-0.92,0-1.67,0.32-2.26,0.94c-0.59,0.63-0.98,1.47-1.18,2.53l-0.11,0.56
		c-0.03,0.18-0.06,0.36-0.07,0.54c-0.02,0.18-0.02,0.38-0.02,0.6c0,0.37,0.04,0.72,0.14,1.05s0.23,0.61,0.42,0.86
		c0.19,0.25,0.42,0.44,0.7,0.58C43.31,11.66,43.65,11.73,44.05,11.73z"/>
	<path d="M54.32,12.03c-0.67,0-1.25-0.13-1.74-0.4s-0.9-0.66-1.24-1.17l0.29-0.19c0.61,0.97,1.5,1.46,2.69,1.46
		c0.75,0,1.35-0.18,1.8-0.54c0.45-0.36,0.68-0.88,0.68-1.55c0-0.26-0.04-0.47-0.11-0.65c-0.07-0.18-0.18-0.33-0.32-0.46
		c-0.14-0.13-0.31-0.24-0.51-0.32c-0.2-0.08-0.44-0.16-0.7-0.22l-0.8-0.21c-0.28-0.07-0.53-0.16-0.75-0.26
		c-0.22-0.1-0.42-0.23-0.58-0.38s-0.29-0.33-0.38-0.55S52.5,6.1,52.5,5.79c0-0.37,0.07-0.7,0.22-0.98c0.14-0.28,0.34-0.51,0.58-0.7
		c0.24-0.19,0.52-0.33,0.85-0.42c0.33-0.1,0.67-0.14,1.03-0.14c0.35,0,0.66,0.04,0.93,0.1s0.5,0.16,0.71,0.28
		c0.21,0.12,0.39,0.25,0.54,0.41c0.15,0.16,0.29,0.31,0.41,0.47L57.5,5.04c-0.22-0.32-0.51-0.6-0.86-0.83
		c-0.35-0.23-0.85-0.35-1.49-0.35c-0.7,0-1.27,0.17-1.69,0.5c-0.42,0.33-0.63,0.81-0.63,1.44c0,0.5,0.14,0.87,0.41,1.11
		c0.27,0.24,0.67,0.43,1.21,0.57l0.8,0.21c0.27,0.08,0.52,0.16,0.75,0.26c0.23,0.1,0.43,0.22,0.6,0.36c0.17,0.14,0.3,0.32,0.39,0.54
		c0.1,0.21,0.14,0.47,0.14,0.78c0,0.41-0.07,0.76-0.22,1.06c-0.14,0.3-0.34,0.55-0.6,0.75c-0.26,0.2-0.55,0.35-0.9,0.46
		C55.08,11.98,54.71,12.03,54.32,12.03z"/>
	<path d="M71.85,11.84c-0.25,0-0.37-0.1-0.37-0.3c0-0.05,0-0.1,0.01-0.13c0-0.03,0.01-0.08,0.02-0.13l0.24-1.22h-0.05
		c-0.34,0.6-0.74,1.08-1.19,1.43c-0.45,0.36-1.02,0.54-1.7,0.54c-0.42,0-0.79-0.08-1.11-0.23s-0.6-0.37-0.82-0.63
		c-0.22-0.27-0.39-0.58-0.5-0.95s-0.17-0.77-0.17-1.19c0-0.74,0.09-1.43,0.26-2.1c0.18-0.66,0.43-1.24,0.77-1.74
		c0.34-0.5,0.75-0.9,1.25-1.19c0.5-0.29,1.06-0.44,1.7-0.44c0.68,0,1.23,0.16,1.65,0.46c0.42,0.31,0.7,0.71,0.85,1.22h0.05L73.77,0
		h0.34l-2.3,11.54h1.36l-0.06,0.3H71.85z M68.81,11.73c0.34,0,0.65-0.05,0.93-0.14s0.55-0.26,0.83-0.5c0.31-0.26,0.61-0.6,0.89-1.02
		c0.28-0.43,0.48-0.92,0.6-1.49l0.45-2.27c0.05-0.27,0.05-0.54-0.01-0.83s-0.18-0.55-0.36-0.79c-0.18-0.24-0.43-0.44-0.75-0.59
		c-0.32-0.15-0.72-0.23-1.2-0.23c-0.92,0-1.67,0.32-2.26,0.94c-0.59,0.63-0.98,1.47-1.18,2.53l-0.11,0.56
		c-0.03,0.18-0.06,0.36-0.07,0.54c-0.02,0.18-0.02,0.38-0.02,0.6c0,0.37,0.04,0.72,0.14,1.05s0.23,0.61,0.42,0.86
		c0.19,0.25,0.42,0.44,0.7,0.58C68.08,11.66,68.42,11.73,68.81,11.73z"/>
	<path d="M79.5,12.03c-0.43,0-0.8-0.08-1.14-0.22s-0.61-0.36-0.83-0.62c-0.22-0.27-0.39-0.57-0.51-0.92s-0.18-0.72-0.18-1.13
		c0-0.75,0.08-1.46,0.26-2.14c0.17-0.68,0.42-1.27,0.76-1.78S78.61,4.3,79.11,4s1.07-0.45,1.74-0.45c0.43,0,0.8,0.08,1.14,0.22
		c0.33,0.15,0.61,0.36,0.83,0.62c0.22,0.27,0.39,0.58,0.51,0.93c0.12,0.35,0.18,0.73,0.18,1.12c0,0.75-0.08,1.46-0.26,2.14
		s-0.42,1.27-0.76,1.78c-0.34,0.51-0.75,0.92-1.25,1.22S80.16,12.03,79.5,12.03z M79.53,11.73c0.91,0,1.65-0.31,2.23-0.93
		c0.58-0.62,0.98-1.47,1.19-2.56l0.13-0.64c0.03-0.18,0.05-0.37,0.06-0.55s0.02-0.39,0.02-0.6c0-0.35-0.04-0.69-0.14-1
		s-0.23-0.59-0.42-0.82s-0.44-0.42-0.74-0.56c-0.3-0.14-0.65-0.21-1.06-0.21c-0.91,0-1.65,0.31-2.23,0.93
		C78,5.4,77.6,6.26,77.39,7.34l-0.13,0.64c-0.03,0.18-0.05,0.37-0.06,0.55s-0.02,0.39-0.02,0.6c0,0.35,0.04,0.69,0.14,1
		s0.23,0.59,0.42,0.82c0.19,0.23,0.44,0.42,0.74,0.56C78.78,11.66,79.13,11.73,79.53,11.73z"/>
	<path d="M86.99,3.74h0.32l0.77,7.66h0.05l3.92-7.66h0.35l0.82,7.66h0.03l3.86-7.66h0.35l-4.1,8.1h-0.42l-0.78-7.55h-0.05
		l-3.87,7.55h-0.42L86.99,3.74z"/>
	<path d="M99.66,11.84l1.62-8.1h0.34l-0.34,1.68h0.05c0.32-0.61,0.71-1.07,1.16-1.39c0.45-0.32,1.02-0.48,1.69-0.48
		c0.68,0,1.21,0.18,1.57,0.55c0.36,0.37,0.54,0.89,0.54,1.56c0,0.16-0.01,0.33-0.03,0.52c-0.02,0.19-0.05,0.36-0.08,0.52l-0.96,4.83
		h1.36l-0.06,0.3h-1.25c-0.25,0-0.37-0.1-0.37-0.3c0-0.05,0-0.1,0.01-0.13c0-0.03,0.01-0.08,0.02-0.13l0.91-4.56
		c0.03-0.18,0.06-0.37,0.08-0.56c0.02-0.19,0.03-0.34,0.03-0.45c0-1.24-0.61-1.86-1.82-1.86c-0.36,0-0.73,0.07-1.1,0.22
		c-0.37,0.14-0.71,0.4-1.03,0.78c-0.18,0.21-0.37,0.48-0.57,0.8c-0.2,0.32-0.34,0.72-0.44,1.2L100,11.84H99.66z"/>
	<path d="M117.74,0h0.34l-1.1,5.52h0.05c0.34-0.6,0.74-1.07,1.19-1.43c0.45-0.36,1.02-0.54,1.7-0.54c0.42,0,0.79,0.08,1.11,0.23
		c0.33,0.15,0.6,0.37,0.82,0.63c0.22,0.27,0.39,0.58,0.5,0.95s0.17,0.77,0.17,1.19c0,0.74-0.09,1.43-0.26,2.1
		c-0.18,0.66-0.43,1.24-0.77,1.74c-0.34,0.5-0.75,0.9-1.25,1.19s-1.06,0.44-1.7,0.44c-0.68,0-1.23-0.16-1.65-0.46
		c-0.42-0.31-0.7-0.71-0.85-1.22H116l-0.29,1.49h-0.34L117.74,0z M118.54,11.73c0.92,0,1.67-0.31,2.25-0.94
		c0.58-0.63,0.98-1.47,1.19-2.53l0.11-0.56c0.03-0.18,0.06-0.36,0.07-0.54c0.02-0.18,0.02-0.38,0.02-0.6c0-0.37-0.05-0.72-0.14-1.05
		c-0.09-0.33-0.23-0.61-0.42-0.86c-0.19-0.25-0.42-0.44-0.7-0.58c-0.28-0.14-0.62-0.22-1.02-0.22c-0.34,0-0.65,0.05-0.93,0.14
		s-0.55,0.26-0.83,0.5c-0.31,0.26-0.61,0.6-0.89,1.02c-0.28,0.43-0.48,0.92-0.6,1.49l-0.45,2.27c-0.05,0.27-0.05,0.54,0.01,0.83
		c0.06,0.29,0.18,0.55,0.36,0.79c0.18,0.24,0.43,0.44,0.75,0.59C117.66,11.65,118.06,11.73,118.54,11.73z"/>
	<path d="M128.86,12.03c-0.91,0-1.6-0.26-2.09-0.77s-0.73-1.32-0.73-2.42c0-0.74,0.1-1.43,0.29-2.07c0.19-0.64,0.46-1.21,0.81-1.68
		s0.76-0.85,1.25-1.13s1.02-0.42,1.61-0.42c0.77,0,1.38,0.18,1.84,0.53c0.46,0.35,0.69,0.83,0.69,1.44c0,0.26-0.06,0.53-0.19,0.82
		c-0.13,0.29-0.4,0.57-0.82,0.82c-0.42,0.25-1.04,0.46-1.84,0.64c-0.8,0.18-1.88,0.28-3.24,0.31c-0.01,0.08-0.02,0.2-0.03,0.35
		s-0.02,0.27-0.02,0.35c0,1.04,0.21,1.78,0.62,2.23c0.41,0.45,1.03,0.68,1.86,0.68c0.66,0,1.25-0.18,1.76-0.53
		c0.51-0.35,0.93-0.84,1.26-1.47l0.3,0.13c-0.41,0.76-0.89,1.31-1.46,1.66C130.15,11.86,129.53,12.03,128.86,12.03z M129.96,3.86
		c-0.45,0-0.86,0.09-1.25,0.27c-0.38,0.18-0.72,0.44-1.02,0.77s-0.54,0.72-0.74,1.17c-0.2,0.45-0.35,0.94-0.45,1.48l-0.05,0.27
		c1.2-0.02,2.17-0.1,2.91-0.24c0.75-0.14,1.33-0.32,1.74-0.53c0.42-0.21,0.7-0.46,0.84-0.72c0.14-0.27,0.22-0.54,0.22-0.8
		c0-0.49-0.17-0.89-0.52-1.2S130.74,3.86,129.96,3.86z"/>
	<path d="M137.92,12.03c-0.67,0-1.25-0.13-1.74-0.4s-0.9-0.66-1.24-1.17l0.29-0.19c0.61,0.97,1.5,1.46,2.69,1.46
		c0.75,0,1.35-0.18,1.8-0.54c0.45-0.36,0.68-0.88,0.68-1.55c0-0.26-0.04-0.47-0.11-0.65c-0.07-0.18-0.18-0.33-0.32-0.46
		c-0.14-0.13-0.31-0.24-0.51-0.32c-0.2-0.08-0.44-0.16-0.7-0.22l-0.8-0.21c-0.28-0.07-0.53-0.16-0.75-0.26
		c-0.22-0.1-0.42-0.23-0.58-0.38s-0.29-0.33-0.38-0.55s-0.14-0.48-0.14-0.79c0-0.37,0.07-0.7,0.22-0.98
		c0.14-0.28,0.34-0.51,0.58-0.7c0.24-0.19,0.52-0.33,0.85-0.42c0.33-0.1,0.67-0.14,1.03-0.14c0.35,0,0.66,0.04,0.93,0.1
		s0.5,0.16,0.71,0.28c0.21,0.12,0.39,0.25,0.54,0.41c0.15,0.16,0.29,0.31,0.41,0.47l-0.26,0.22c-0.22-0.32-0.51-0.6-0.86-0.83
		c-0.35-0.23-0.85-0.35-1.49-0.35c-0.7,0-1.27,0.17-1.69,0.5c-0.42,0.33-0.63,0.81-0.63,1.44c0,0.5,0.14,0.87,0.41,1.11
		c0.27,0.24,0.67,0.43,1.21,0.57l0.8,0.21c0.27,0.08,0.52,0.16,0.75,0.26c0.23,0.1,0.43,0.22,0.6,0.36c0.17,0.14,0.3,0.32,0.39,0.54
		c0.1,0.21,0.14,0.47,0.14,0.78c0,0.41-0.07,0.76-0.22,1.06c-0.14,0.3-0.34,0.55-0.6,0.75c-0.26,0.2-0.55,0.35-0.9,0.46
		C138.68,11.98,138.31,12.03,137.92,12.03z"/>
	<path d="M144.81,11.84c-0.25,0-0.37-0.1-0.37-0.3c0-0.05,0-0.1,0.01-0.13c0-0.03,0.01-0.08,0.02-0.13l1.44-7.23h-1.52l0.06-0.3
		h1.15c0.15,0,0.26-0.03,0.32-0.09c0.06-0.06,0.11-0.16,0.13-0.31l0.38-1.9h0.34l-0.46,2.3h1.94l-0.06,0.3h-1.94l-1.49,7.49h1.81
		l-0.06,0.3H144.81z"/>
	<path d="M158.17,12.03c-0.67,0-1.25-0.13-1.74-0.4s-0.9-0.66-1.24-1.17l0.29-0.19c0.61,0.97,1.5,1.46,2.69,1.46
		c0.75,0,1.35-0.18,1.8-0.54c0.45-0.36,0.68-0.88,0.68-1.55c0-0.26-0.04-0.47-0.11-0.65c-0.07-0.18-0.18-0.33-0.32-0.46
		c-0.14-0.13-0.31-0.24-0.51-0.32c-0.2-0.08-0.44-0.16-0.7-0.22l-0.8-0.21c-0.28-0.07-0.53-0.16-0.75-0.26
		c-0.22-0.1-0.42-0.23-0.58-0.38s-0.29-0.33-0.38-0.55s-0.14-0.48-0.14-0.79c0-0.37,0.07-0.7,0.22-0.98
		c0.14-0.28,0.34-0.51,0.58-0.7c0.24-0.19,0.52-0.33,0.85-0.42c0.33-0.1,0.67-0.14,1.03-0.14c0.35,0,0.66,0.04,0.93,0.1
		s0.5,0.16,0.71,0.28c0.21,0.12,0.39,0.25,0.54,0.41c0.15,0.16,0.29,0.31,0.41,0.47l-0.26,0.22c-0.22-0.32-0.51-0.6-0.86-0.83
		c-0.35-0.23-0.85-0.35-1.49-0.35c-0.7,0-1.27,0.17-1.69,0.5c-0.42,0.33-0.63,0.81-0.63,1.44c0,0.5,0.14,0.87,0.41,1.11
		c0.27,0.24,0.67,0.43,1.21,0.57l0.8,0.21c0.27,0.08,0.52,0.16,0.75,0.26c0.23,0.1,0.43,0.22,0.6,0.36c0.17,0.14,0.3,0.32,0.39,0.54
		c0.1,0.21,0.14,0.47,0.14,0.78c0,0.41-0.07,0.76-0.22,1.06c-0.14,0.3-0.34,0.55-0.6,0.75c-0.26,0.2-0.55,0.35-0.9,0.46
		C158.94,11.98,158.57,12.03,158.17,12.03z"/>
	<path d="M166.96,0h0.34l-1.66,8.3h0.06l1.79-1.5l3.5-3.06h0.43l-3.89,3.42l2.26,4.37h0.91l-0.06,0.3h-0.77
		c-0.12,0-0.21-0.03-0.27-0.08c-0.06-0.05-0.13-0.14-0.19-0.26l-2.13-4.14l-1.74,1.46l-0.61,3.02h-0.34L166.96,0z"/>
	<path d="M174.29,11.84c-0.25,0-0.37-0.1-0.37-0.3c0-0.05,0-0.1,0.01-0.13c0.01-0.03,0.01-0.08,0.02-0.13l1.52-7.54h0.34l-1.57,7.79
		h1.36l-0.06,0.3H174.29z M176.19,1.07c-0.12,0-0.2-0.03-0.25-0.08c-0.05-0.05-0.07-0.11-0.07-0.18c0-0.03,0-0.06,0.01-0.1
		c0.01-0.03,0.01-0.07,0.02-0.13c0.02-0.1,0.06-0.17,0.13-0.22c0.06-0.05,0.17-0.08,0.3-0.08c0.12,0,0.2,0.03,0.25,0.08
		c0.05,0.05,0.07,0.11,0.07,0.18c0,0.03,0,0.06-0.01,0.1c-0.01,0.03-0.01,0.08-0.02,0.13c-0.02,0.1-0.06,0.17-0.13,0.22
		C176.43,1.04,176.33,1.07,176.19,1.07z"/>
	<path d="M181.52,12.03c-0.67,0-1.25-0.13-1.74-0.4s-0.9-0.66-1.24-1.17l0.29-0.19c0.61,0.97,1.5,1.46,2.69,1.46
		c0.75,0,1.35-0.18,1.8-0.54c0.45-0.36,0.68-0.88,0.68-1.55c0-0.26-0.04-0.47-0.11-0.65c-0.07-0.18-0.18-0.33-0.32-0.46
		c-0.14-0.13-0.31-0.24-0.51-0.32c-0.2-0.08-0.44-0.16-0.7-0.22l-0.8-0.21c-0.28-0.07-0.53-0.16-0.75-0.26
		c-0.22-0.1-0.42-0.23-0.58-0.38s-0.29-0.33-0.38-0.55s-0.14-0.48-0.14-0.79c0-0.37,0.07-0.7,0.22-0.98
		c0.14-0.28,0.34-0.51,0.58-0.7c0.24-0.19,0.52-0.33,0.85-0.42c0.33-0.1,0.67-0.14,1.03-0.14c0.35,0,0.66,0.04,0.93,0.1
		s0.5,0.16,0.71,0.28c0.21,0.12,0.39,0.25,0.54,0.41c0.15,0.16,0.29,0.31,0.41,0.47l-0.26,0.22c-0.22-0.32-0.51-0.6-0.86-0.83
		c-0.35-0.23-0.85-0.35-1.49-0.35c-0.7,0-1.27,0.17-1.69,0.5c-0.42,0.33-0.63,0.81-0.63,1.44c0,0.5,0.14,0.87,0.41,1.11
		c0.27,0.24,0.67,0.43,1.21,0.57l0.8,0.21c0.27,0.08,0.52,0.16,0.75,0.26c0.23,0.1,0.43,0.22,0.6,0.36c0.17,0.14,0.3,0.32,0.39,0.54
		c0.1,0.21,0.14,0.47,0.14,0.78c0,0.41-0.07,0.76-0.22,1.06c-0.14,0.3-0.34,0.55-0.6,0.75c-0.26,0.2-0.55,0.35-0.9,0.46
		C182.28,11.98,181.91,12.03,181.52,12.03z"/>
	<path d="M196.04,12.03c-0.43,0-0.8-0.08-1.14-0.22s-0.61-0.36-0.83-0.62c-0.22-0.27-0.39-0.57-0.51-0.92s-0.18-0.72-0.18-1.13
		c0-0.75,0.08-1.46,0.26-2.14c0.17-0.68,0.42-1.27,0.76-1.78s0.75-0.92,1.25-1.22s1.07-0.45,1.74-0.45c0.43,0,0.8,0.08,1.14,0.22
		c0.33,0.15,0.61,0.36,0.83,0.62c0.22,0.27,0.39,0.58,0.51,0.93c0.12,0.35,0.18,0.73,0.18,1.12c0,0.75-0.08,1.46-0.26,2.14
		s-0.42,1.27-0.76,1.78c-0.34,0.51-0.75,0.92-1.25,1.22S196.71,12.03,196.04,12.03z M196.08,11.73c0.91,0,1.65-0.31,2.23-0.93
		c0.58-0.62,0.98-1.47,1.19-2.56l0.13-0.64c0.03-0.18,0.05-0.37,0.06-0.55s0.02-0.39,0.02-0.6c0-0.35-0.04-0.69-0.14-1
		s-0.23-0.59-0.42-0.82s-0.44-0.42-0.74-0.56c-0.3-0.14-0.65-0.21-1.06-0.21c-0.91,0-1.65,0.31-2.23,0.93
		c-0.58,0.62-0.98,1.47-1.19,2.56l-0.13,0.64c-0.03,0.18-0.05,0.37-0.06,0.55s-0.02,0.39-0.02,0.6c0,0.35,0.04,0.69,0.14,1
		s0.23,0.59,0.42,0.82c0.19,0.23,0.44,0.42,0.74,0.56C195.32,11.66,195.67,11.73,196.08,11.73z"/>
	<path d="M205.23,3.74l-1.02,5.12c-0.03,0.18-0.06,0.37-0.08,0.56s-0.03,0.34-0.03,0.45c0,1.24,0.61,1.86,1.82,1.86
		c0.36,0,0.73-0.07,1.1-0.22c0.37-0.14,0.71-0.4,1.03-0.78c0.18-0.21,0.37-0.48,0.57-0.8c0.2-0.32,0.34-0.72,0.44-1.2l0.99-4.99
		h0.34l-1.55,7.79h1.36l-0.06,0.3h-1.25c-0.25,0-0.37-0.1-0.37-0.3c0-0.05,0-0.1,0.01-0.13c0-0.03,0.01-0.08,0.02-0.13l0.22-1.12
		h-0.05c-0.32,0.61-0.71,1.07-1.16,1.39c-0.45,0.32-1.02,0.48-1.69,0.48c-0.68,0-1.21-0.18-1.57-0.55
		c-0.36-0.37-0.54-0.89-0.54-1.56c0-0.16,0.01-0.33,0.03-0.52c0.02-0.19,0.05-0.36,0.08-0.52l1.02-5.14H205.23z"/>
	<path d="M214.52,11.84c-0.25,0-0.37-0.1-0.37-0.3c0-0.05,0-0.1,0.01-0.13c0-0.03,0.01-0.08,0.02-0.13l1.44-7.23h-1.52l0.06-0.3
		h1.15c0.15,0,0.26-0.03,0.32-0.09c0.06-0.06,0.11-0.16,0.13-0.31l0.38-1.9h0.34l-0.46,2.3h1.94l-0.06,0.3h-1.94l-1.49,7.49h1.81
		l-0.06,0.3H214.52z"/>
	<path d="M0.62,31.04c-0.25,0-0.37-0.1-0.37-0.3c0-0.05,0-0.1,0.01-0.13c0-0.03,0.01-0.08,0.02-0.13l1.44-7.23H0.21l0.06-0.3h1.15
		c0.15,0,0.26-0.03,0.32-0.09c0.06-0.06,0.11-0.16,0.13-0.31l0.38-1.9h0.34l-0.46,2.3h1.94L4,23.25H2.06l-1.49,7.49h1.81l-0.06,0.3
		H0.62z"/>
	<path d="M8.66,19.2h0.34l-1.07,5.42h0.05c0.32-0.61,0.71-1.07,1.16-1.39c0.45-0.32,1.02-0.48,1.69-0.48c0.68,0,1.21,0.18,1.57,0.55
		c0.36,0.37,0.54,0.89,0.54,1.56c0,0.16-0.01,0.33-0.03,0.52s-0.05,0.36-0.08,0.52l-0.96,4.83h1.36l-0.06,0.3H11.9
		c-0.25,0-0.37-0.1-0.37-0.3c0-0.05,0-0.1,0.01-0.13c0.01-0.03,0.01-0.08,0.02-0.13l0.91-4.56c0.03-0.18,0.06-0.37,0.08-0.56
		c0.02-0.19,0.03-0.34,0.03-0.45c0-1.24-0.61-1.86-1.82-1.86c-0.36,0-0.73,0.07-1.1,0.22c-0.37,0.14-0.71,0.4-1.03,0.78
		c-0.18,0.21-0.37,0.48-0.57,0.8c-0.2,0.32-0.34,0.72-0.44,1.2l-0.99,4.99H6.3L8.66,19.2z"/>
	<path d="M19.6,31.23c-0.91,0-1.6-0.26-2.09-0.77s-0.73-1.32-0.73-2.42c0-0.74,0.1-1.43,0.29-2.07c0.19-0.64,0.46-1.21,0.81-1.68
		s0.76-0.85,1.25-1.13s1.02-0.42,1.61-0.42c0.77,0,1.38,0.18,1.84,0.53c0.46,0.35,0.69,0.83,0.69,1.44c0,0.26-0.06,0.53-0.19,0.82
		c-0.13,0.29-0.4,0.57-0.82,0.82c-0.42,0.25-1.04,0.46-1.84,0.64c-0.8,0.18-1.88,0.28-3.24,0.31c-0.01,0.08-0.02,0.2-0.03,0.35
		s-0.02,0.27-0.02,0.35c0,1.04,0.21,1.78,0.62,2.23c0.41,0.45,1.03,0.68,1.86,0.68c0.66,0,1.25-0.18,1.76-0.53
		c0.51-0.35,0.93-0.84,1.26-1.47l0.3,0.13c-0.41,0.76-0.89,1.31-1.46,1.66C20.89,31.06,20.27,31.23,19.6,31.23z M20.71,23.06
		c-0.45,0-0.86,0.09-1.25,0.27c-0.38,0.18-0.72,0.44-1.02,0.77s-0.54,0.72-0.74,1.17c-0.2,0.45-0.35,0.94-0.45,1.48l-0.05,0.27
		c1.2-0.02,2.17-0.1,2.91-0.24c0.75-0.14,1.33-0.32,1.74-0.53c0.42-0.21,0.7-0.46,0.84-0.72c0.14-0.27,0.22-0.54,0.22-0.8
		c0-0.49-0.17-0.89-0.52-1.2S21.48,23.06,20.71,23.06z"/>
	<path d="M26.32,31.04l1.62-8.1h0.34l-0.37,1.84h0.05c0.14-0.27,0.29-0.52,0.46-0.74c0.17-0.23,0.36-0.42,0.58-0.58
		s0.47-0.29,0.75-0.38c0.28-0.09,0.61-0.14,0.98-0.14h0.48l-0.06,0.32h-0.46c-0.39,0-0.76,0.08-1.1,0.24
		c-0.34,0.16-0.65,0.38-0.91,0.66c-0.27,0.28-0.49,0.61-0.67,0.99s-0.31,0.78-0.4,1.21l-0.93,4.68H26.32z"/>
	<path d="M36.18,31.23c-0.91,0-1.6-0.26-2.09-0.77s-0.73-1.32-0.73-2.42c0-0.74,0.1-1.43,0.29-2.07c0.19-0.64,0.46-1.21,0.81-1.68
		s0.76-0.85,1.25-1.13s1.02-0.42,1.61-0.42c0.77,0,1.38,0.18,1.84,0.53c0.46,0.35,0.69,0.83,0.69,1.44c0,0.26-0.06,0.53-0.19,0.82
		c-0.13,0.29-0.4,0.57-0.82,0.82c-0.42,0.25-1.04,0.46-1.84,0.64c-0.8,0.18-1.88,0.28-3.24,0.31c-0.01,0.08-0.02,0.2-0.03,0.35
		s-0.02,0.27-0.02,0.35c0,1.04,0.21,1.78,0.62,2.23c0.41,0.45,1.03,0.68,1.86,0.68c0.66,0,1.25-0.18,1.76-0.53
		c0.51-0.35,0.93-0.84,1.26-1.47l0.3,0.13c-0.41,0.76-0.89,1.31-1.46,1.66C37.47,31.06,36.85,31.23,36.18,31.23z M37.28,23.06
		c-0.45,0-0.86,0.09-1.25,0.27c-0.38,0.18-0.72,0.44-1.02,0.77s-0.54,0.72-0.74,1.17c-0.2,0.45-0.35,0.94-0.45,1.48l-0.05,0.27
		c1.2-0.02,2.17-0.1,2.91-0.24c0.75-0.14,1.33-0.32,1.74-0.53c0.42-0.21,0.7-0.46,0.84-0.72c0.14-0.27,0.22-0.54,0.22-0.8
		c0-0.49-0.17-0.89-0.52-1.2S38.06,23.06,37.28,23.06z"/>
	<path d="M43.02,31.12c-0.16,0-0.27-0.03-0.33-0.1c-0.06-0.06-0.09-0.13-0.09-0.21c0-0.04,0.01-0.09,0.02-0.15
		c0.01-0.06,0.02-0.1,0.03-0.14c0.02-0.09,0.06-0.16,0.13-0.23c0.06-0.07,0.18-0.1,0.34-0.1c0.15,0,0.25,0.03,0.31,0.1
		c0.06,0.06,0.09,0.13,0.09,0.21c0,0.04,0,0.09-0.02,0.15s-0.02,0.1-0.03,0.14c-0.02,0.08-0.06,0.16-0.12,0.23
		C43.29,31.08,43.18,31.12,43.02,31.12z"/>
	<path d="M52.91,31.04l0.06-0.32h1.71l2.11-10.53h-1.71l0.06-0.32h3.78l-0.06,0.32h-1.71l-2.11,10.53h1.71l-0.06,0.32H52.91z"/>
	<path d="M63.71,19.04c0.15,0,0.25,0.03,0.31,0.1c0.06,0.06,0.09,0.13,0.09,0.21c0,0.04,0,0.1-0.02,0.16
		c-0.01,0.06-0.02,0.11-0.03,0.14c-0.05,0.21-0.13,0.44-0.24,0.68s-0.24,0.47-0.39,0.7c-0.16,0.23-0.32,0.45-0.5,0.66
		c-0.18,0.21-0.37,0.39-0.58,0.55h-0.34c0.48-0.41,0.85-0.81,1.1-1.22c0.26-0.41,0.43-0.76,0.51-1.06c-0.18,0-0.3-0.03-0.35-0.1
		s-0.08-0.13-0.08-0.21c0-0.04,0.01-0.09,0.02-0.15c0.01-0.06,0.02-0.1,0.03-0.14c0.02-0.08,0.06-0.16,0.13-0.23
		C63.44,19.08,63.55,19.04,63.71,19.04z"/>
	<path d="M67.94,31.04l-1.44-8.1h0.32l1.36,7.71h0.05l4.37-7.71h0.37l-4.61,8.1H67.94z"/>
	<path d="M77.92,31.23c-0.91,0-1.6-0.26-2.09-0.77s-0.73-1.32-0.73-2.42c0-0.74,0.1-1.43,0.29-2.07c0.19-0.64,0.46-1.21,0.81-1.68
		s0.76-0.85,1.25-1.13s1.02-0.42,1.61-0.42c0.77,0,1.38,0.18,1.84,0.53c0.46,0.35,0.69,0.83,0.69,1.44c0,0.26-0.06,0.53-0.19,0.82
		c-0.13,0.29-0.4,0.57-0.82,0.82c-0.42,0.25-1.04,0.46-1.84,0.64c-0.8,0.18-1.88,0.28-3.24,0.31c-0.01,0.08-0.02,0.2-0.03,0.35
		s-0.02,0.27-0.02,0.35c0,1.04,0.21,1.78,0.62,2.23c0.41,0.45,1.03,0.68,1.86,0.68c0.66,0,1.25-0.18,1.76-0.53
		c0.51-0.35,0.93-0.84,1.26-1.47l0.3,0.13c-0.41,0.76-0.89,1.31-1.46,1.66C79.21,31.06,78.59,31.23,77.92,31.23z M79.03,23.06
		c-0.45,0-0.86,0.09-1.25,0.27c-0.38,0.18-0.72,0.44-1.02,0.77s-0.54,0.72-0.74,1.17c-0.2,0.45-0.35,0.94-0.45,1.48l-0.05,0.27
		c1.2-0.02,2.17-0.1,2.91-0.24c0.75-0.14,1.33-0.32,1.74-0.53c0.42-0.21,0.7-0.46,0.84-0.72c0.14-0.27,0.22-0.54,0.22-0.8
		c0-0.49-0.17-0.89-0.52-1.2S79.8,23.06,79.03,23.06z"/>
	<path d="M91.81,22.94l-1.02,5.12c-0.03,0.18-0.06,0.37-0.08,0.56s-0.03,0.34-0.03,0.45c0,1.24,0.61,1.86,1.82,1.86
		c0.36,0,0.73-0.07,1.1-0.22c0.37-0.14,0.71-0.4,1.03-0.78c0.18-0.21,0.37-0.48,0.57-0.8c0.2-0.32,0.34-0.72,0.44-1.2l0.99-4.99
		h0.34l-1.55,7.79h1.36l-0.06,0.3h-1.25c-0.25,0-0.37-0.1-0.37-0.3c0-0.05,0-0.1,0.01-0.13c0-0.03,0.01-0.08,0.02-0.13l0.22-1.12
		H95.3c-0.32,0.61-0.71,1.07-1.16,1.39c-0.45,0.32-1.02,0.48-1.69,0.48c-0.68,0-1.21-0.18-1.57-0.55c-0.36-0.37-0.54-0.89-0.54-1.56
		c0-0.16,0.01-0.33,0.03-0.52c0.02-0.19,0.05-0.36,0.08-0.52l1.02-5.14H91.81z"/>
	<path d="M102.69,31.23c-0.67,0-1.25-0.13-1.74-0.4s-0.9-0.66-1.24-1.17l0.29-0.19c0.61,0.97,1.5,1.46,2.69,1.46
		c0.75,0,1.35-0.18,1.8-0.54c0.45-0.36,0.68-0.88,0.68-1.55c0-0.26-0.04-0.47-0.11-0.65c-0.07-0.18-0.18-0.33-0.32-0.46
		c-0.14-0.13-0.31-0.24-0.51-0.32c-0.2-0.08-0.44-0.16-0.7-0.22l-0.8-0.21c-0.28-0.07-0.53-0.16-0.75-0.26
		c-0.22-0.1-0.42-0.23-0.58-0.38S101.09,26,101,25.78s-0.14-0.48-0.14-0.79c0-0.37,0.07-0.7,0.22-0.98c0.14-0.28,0.34-0.51,0.58-0.7
		c0.24-0.19,0.52-0.33,0.85-0.42c0.33-0.1,0.67-0.14,1.03-0.14c0.35,0,0.66,0.04,0.93,0.1s0.5,0.16,0.71,0.28
		c0.21,0.12,0.39,0.25,0.54,0.41c0.15,0.16,0.29,0.31,0.41,0.47l-0.26,0.22c-0.22-0.32-0.51-0.6-0.86-0.83
		c-0.35-0.23-0.85-0.35-1.49-0.35c-0.7,0-1.27,0.17-1.69,0.5c-0.42,0.33-0.63,0.81-0.63,1.44c0,0.5,0.14,0.87,0.41,1.11
		c0.27,0.24,0.67,0.43,1.21,0.57l0.8,0.21c0.27,0.08,0.52,0.16,0.75,0.26c0.23,0.1,0.43,0.22,0.6,0.36c0.17,0.14,0.3,0.32,0.39,0.54
		c0.1,0.21,0.14,0.47,0.14,0.78c0,0.41-0.07,0.76-0.22,1.06c-0.14,0.3-0.34,0.55-0.6,0.75c-0.26,0.2-0.55,0.35-0.9,0.46
		C103.45,31.18,103.08,31.23,102.69,31.23z"/>
	<path d="M112.05,31.23c-0.91,0-1.6-0.26-2.09-0.77s-0.73-1.32-0.73-2.42c0-0.74,0.1-1.43,0.29-2.07c0.19-0.64,0.46-1.21,0.81-1.68
		s0.76-0.85,1.25-1.13s1.02-0.42,1.61-0.42c0.77,0,1.38,0.18,1.84,0.53c0.46,0.35,0.69,0.83,0.69,1.44c0,0.26-0.06,0.53-0.19,0.82
		c-0.13,0.29-0.4,0.57-0.82,0.82c-0.42,0.25-1.04,0.46-1.84,0.64c-0.8,0.18-1.88,0.28-3.24,0.31c-0.01,0.08-0.02,0.2-0.03,0.35
		s-0.02,0.27-0.02,0.35c0,1.04,0.21,1.78,0.62,2.23c0.41,0.45,1.03,0.68,1.86,0.68c0.66,0,1.25-0.18,1.76-0.53
		c0.51-0.35,0.93-0.84,1.26-1.47l0.3,0.13c-0.41,0.76-0.89,1.31-1.46,1.66C113.34,31.06,112.72,31.23,112.05,31.23z M113.15,23.06
		c-0.45,0-0.86,0.09-1.25,0.27c-0.38,0.18-0.72,0.44-1.02,0.77s-0.54,0.72-0.74,1.17c-0.2,0.45-0.35,0.94-0.45,1.48l-0.05,0.27
		c1.2-0.02,2.17-0.1,2.91-0.24c0.75-0.14,1.33-0.32,1.74-0.53c0.42-0.21,0.7-0.46,0.84-0.72c0.14-0.27,0.22-0.54,0.22-0.8
		c0-0.49-0.17-0.89-0.52-1.2S113.93,23.06,113.15,23.06z"/>
	<path d="M124.53,31.04c-0.25,0-0.37-0.1-0.37-0.3c0-0.05,0-0.1,0.01-0.13c0-0.03,0.01-0.08,0.02-0.13l0.24-1.22h-0.05
		c-0.34,0.6-0.74,1.08-1.19,1.43c-0.45,0.36-1.02,0.54-1.7,0.54c-0.42,0-0.79-0.08-1.11-0.23s-0.6-0.37-0.82-0.63
		c-0.22-0.27-0.39-0.58-0.5-0.95s-0.17-0.77-0.17-1.19c0-0.74,0.09-1.43,0.26-2.1c0.18-0.66,0.43-1.24,0.77-1.74
		c0.34-0.5,0.75-0.9,1.25-1.19c0.5-0.29,1.06-0.44,1.7-0.44c0.68,0,1.23,0.16,1.65,0.46c0.42,0.31,0.7,0.71,0.85,1.22h0.05
		l1.04-5.23h0.34l-2.3,11.54h1.36l-0.06,0.3H124.53z M121.49,30.93c0.34,0,0.65-0.05,0.93-0.14s0.55-0.26,0.83-0.5
		c0.31-0.26,0.61-0.6,0.89-1.02c0.28-0.43,0.48-0.92,0.6-1.49l0.45-2.27c0.05-0.27,0.05-0.54-0.01-0.83s-0.18-0.55-0.36-0.79
		c-0.18-0.24-0.43-0.44-0.75-0.59c-0.32-0.15-0.72-0.23-1.2-0.23c-0.92,0-1.67,0.32-2.26,0.94c-0.59,0.63-0.98,1.47-1.18,2.53
		l-0.11,0.56c-0.03,0.18-0.06,0.36-0.07,0.54c-0.02,0.18-0.02,0.38-0.02,0.6c0,0.37,0.04,0.72,0.14,1.05s0.23,0.61,0.42,0.86
		c0.19,0.25,0.42,0.44,0.7,0.58C120.75,30.86,121.09,30.93,121.49,30.93z"/>
	<path d="M135.54,31.04c-0.25,0-0.37-0.1-0.37-0.3c0-0.05,0-0.1,0.01-0.13c0-0.03,0.01-0.08,0.02-0.13l1.44-7.23h-1.52l0.06-0.3
		h1.15c0.15,0,0.26-0.03,0.32-0.09c0.06-0.06,0.11-0.16,0.13-0.31l0.38-1.9h0.34l-0.46,2.3h1.94l-0.06,0.3h-1.94l-1.49,7.49h1.81
		l-0.06,0.3H135.54z"/>
	<path d="M143.57,19.2h0.34l-1.07,5.42h0.05c0.32-0.61,0.71-1.07,1.16-1.39c0.45-0.32,1.02-0.48,1.69-0.48
		c0.68,0,1.21,0.18,1.57,0.55c0.36,0.37,0.54,0.89,0.54,1.56c0,0.16-0.01,0.33-0.03,0.52s-0.05,0.36-0.08,0.52l-0.96,4.83h1.36
		l-0.06,0.3h-1.25c-0.25,0-0.37-0.1-0.37-0.3c0-0.05,0-0.1,0.01-0.13c0.01-0.03,0.01-0.08,0.02-0.13l0.91-4.56
		c0.03-0.18,0.06-0.37,0.08-0.56c0.02-0.19,0.03-0.34,0.03-0.45c0-1.24-0.61-1.86-1.82-1.86c-0.36,0-0.73,0.07-1.1,0.22
		c-0.37,0.14-0.71,0.4-1.03,0.78c-0.18,0.21-0.37,0.48-0.57,0.8c-0.2,0.32-0.34,0.72-0.44,1.2l-0.99,4.99h-0.34L143.57,19.2z"/>
	<path d="M154.51,31.23c-0.91,0-1.6-0.26-2.09-0.77s-0.73-1.32-0.73-2.42c0-0.74,0.1-1.43,0.29-2.07c0.19-0.64,0.46-1.21,0.81-1.68
		s0.76-0.85,1.25-1.13s1.02-0.42,1.61-0.42c0.77,0,1.38,0.18,1.84,0.53c0.46,0.35,0.69,0.83,0.69,1.44c0,0.26-0.06,0.53-0.19,0.82
		c-0.13,0.29-0.4,0.57-0.82,0.82c-0.42,0.25-1.04,0.46-1.84,0.64c-0.8,0.18-1.88,0.28-3.24,0.31c-0.01,0.08-0.02,0.2-0.03,0.35
		s-0.02,0.27-0.02,0.35c0,1.04,0.21,1.78,0.62,2.23c0.41,0.45,1.03,0.68,1.86,0.68c0.66,0,1.25-0.18,1.76-0.53
		c0.51-0.35,0.93-0.84,1.26-1.47l0.3,0.13c-0.41,0.76-0.89,1.31-1.46,1.66C155.8,31.06,155.18,31.23,154.51,31.23z M155.62,23.06
		c-0.45,0-0.86,0.09-1.25,0.27c-0.38,0.18-0.72,0.44-1.02,0.77s-0.54,0.72-0.74,1.17c-0.2,0.45-0.35,0.94-0.45,1.48l-0.05,0.27
		c1.2-0.02,2.17-0.1,2.91-0.24c0.75-0.14,1.33-0.32,1.74-0.53c0.42-0.21,0.7-0.46,0.84-0.72c0.14-0.27,0.22-0.54,0.22-0.8
		c0-0.49-0.17-0.89-0.52-1.2S156.39,23.06,155.62,23.06z"/>
	<path d="M161.23,31.04l1.62-8.1h0.34l-0.34,1.68h0.05c0.29-0.57,0.65-1.02,1.1-1.36c0.44-0.34,0.98-0.51,1.62-0.51
		c0.66,0,1.16,0.19,1.5,0.58c0.34,0.38,0.51,0.85,0.52,1.41h0.05c0.28-0.61,0.66-1.09,1.14-1.45c0.48-0.36,1.06-0.54,1.74-0.54
		c0.65,0,1.15,0.18,1.5,0.55c0.35,0.37,0.52,0.89,0.52,1.56c0,0.16-0.01,0.33-0.03,0.52s-0.05,0.36-0.08,0.52l-0.96,4.83h1.36
		l-0.06,0.3h-1.25c-0.25,0-0.37-0.1-0.37-0.3c0-0.05,0-0.1,0.01-0.13c0.01-0.03,0.01-0.08,0.02-0.13l0.91-4.56
		c0.03-0.18,0.06-0.37,0.08-0.56c0.02-0.19,0.03-0.34,0.03-0.45c0-0.62-0.15-1.08-0.44-1.39c-0.29-0.31-0.72-0.46-1.29-0.46
		c-0.35,0-0.71,0.08-1.07,0.23c-0.36,0.15-0.69,0.41-0.99,0.76c-0.2,0.24-0.39,0.5-0.55,0.78c-0.17,0.29-0.29,0.66-0.38,1.1
		l-1.02,5.1h-0.34l1.02-5.12c0.03-0.18,0.06-0.37,0.08-0.56c0.02-0.19,0.03-0.34,0.03-0.45c0-1.24-0.58-1.86-1.73-1.86
		c-0.34,0-0.68,0.08-1.02,0.23c-0.34,0.15-0.67,0.41-0.98,0.76c-0.19,0.21-0.39,0.49-0.58,0.83c-0.2,0.34-0.34,0.73-0.42,1.17
		l-0.99,4.99H161.23z"/>
	<path d="M182.11,31.04c-0.25,0-0.37-0.1-0.37-0.3c0-0.05,0-0.1,0.01-0.13c0.01-0.03,0.01-0.08,0.02-0.13l1.52-7.54h0.34l-1.57,7.79
		h1.36l-0.06,0.3H182.11z M184.01,20.27c-0.12,0-0.2-0.03-0.25-0.08c-0.05-0.05-0.07-0.11-0.07-0.18c0-0.03,0-0.06,0.01-0.1
		c0.01-0.03,0.01-0.07,0.02-0.13c0.02-0.1,0.06-0.17,0.13-0.22c0.06-0.05,0.17-0.08,0.3-0.08c0.12,0,0.2,0.03,0.25,0.08
		c0.05,0.05,0.07,0.11,0.07,0.18c0,0.03,0,0.06-0.01,0.1c-0.01,0.03-0.01,0.08-0.02,0.13c-0.02,0.1-0.06,0.17-0.13,0.22
		C184.25,20.25,184.15,20.27,184.01,20.27z"/>
	<path d="M187.01,31.04l1.62-8.1h0.34l-0.34,1.68h0.05c0.32-0.61,0.71-1.07,1.16-1.39c0.45-0.32,1.02-0.48,1.69-0.48
		c0.68,0,1.21,0.18,1.57,0.55c0.36,0.37,0.54,0.89,0.54,1.56c0,0.16-0.01,0.33-0.03,0.52c-0.02,0.19-0.05,0.36-0.08,0.52l-0.96,4.83
		h1.36l-0.06,0.3h-1.25c-0.25,0-0.37-0.1-0.37-0.3c0-0.05,0-0.1,0.01-0.13c0-0.03,0.01-0.08,0.02-0.13l0.91-4.56
		c0.03-0.18,0.06-0.37,0.08-0.56c0.02-0.19,0.03-0.34,0.03-0.45c0-1.24-0.61-1.86-1.82-1.86c-0.36,0-0.73,0.07-1.1,0.22
		c-0.37,0.14-0.71,0.4-1.03,0.78c-0.18,0.21-0.37,0.48-0.57,0.8c-0.2,0.32-0.34,0.72-0.44,1.2l-0.99,4.99H187.01z"/>
	<path d="M205.66,31.23c-0.91,0-1.6-0.26-2.09-0.77s-0.73-1.32-0.73-2.42c0-0.74,0.1-1.43,0.29-2.07c0.19-0.64,0.46-1.21,0.81-1.68
		s0.76-0.85,1.25-1.13s1.02-0.42,1.61-0.42c0.77,0,1.38,0.18,1.84,0.53c0.46,0.35,0.69,0.83,0.69,1.44c0,0.26-0.06,0.53-0.19,0.82
		c-0.13,0.29-0.4,0.57-0.82,0.82c-0.42,0.25-1.04,0.46-1.84,0.64c-0.8,0.18-1.88,0.28-3.24,0.31c-0.01,0.08-0.02,0.2-0.03,0.35
		s-0.02,0.27-0.02,0.35c0,1.04,0.21,1.78,0.62,2.23c0.41,0.45,1.03,0.68,1.86,0.68c0.66,0,1.25-0.18,1.76-0.53
		c0.51-0.35,0.93-0.84,1.26-1.47l0.3,0.13c-0.41,0.76-0.89,1.31-1.46,1.66C206.95,31.06,206.33,31.23,205.66,31.23z M206.77,23.06
		c-0.45,0-0.86,0.09-1.25,0.27c-0.38,0.18-0.72,0.44-1.02,0.77s-0.54,0.72-0.74,1.17c-0.2,0.45-0.35,0.94-0.45,1.48l-0.05,0.27
		c1.2-0.02,2.17-0.1,2.91-0.24c0.75-0.14,1.33-0.32,1.74-0.53c0.42-0.21,0.7-0.46,0.84-0.72c0.14-0.27,0.22-0.54,0.22-0.8
		c0-0.49-0.17-0.89-0.52-1.2S207.54,23.06,206.77,23.06z"/>
	<path d="M214.06,31.04l-1.44-8.1h0.32l1.36,7.71h0.05l4.37-7.71h0.37l-4.61,8.1H214.06z"/>
	<path d="M224.04,31.23c-0.91,0-1.6-0.26-2.09-0.77s-0.73-1.32-0.73-2.42c0-0.74,0.1-1.43,0.29-2.07c0.19-0.64,0.46-1.21,0.81-1.68
		s0.76-0.85,1.25-1.13s1.02-0.42,1.61-0.42c0.77,0,1.38,0.18,1.84,0.53c0.46,0.35,0.69,0.83,0.69,1.44c0,0.26-0.06,0.53-0.19,0.82
		c-0.13,0.29-0.4,0.57-0.82,0.82c-0.42,0.25-1.04,0.46-1.84,0.64c-0.8,0.18-1.88,0.28-3.24,0.31c-0.01,0.08-0.02,0.2-0.03,0.35
		s-0.02,0.27-0.02,0.35c0,1.04,0.21,1.78,0.62,2.23c0.41,0.45,1.03,0.68,1.86,0.68c0.66,0,1.25-0.18,1.76-0.53
		c0.51-0.35,0.93-0.84,1.26-1.47l0.3,0.13c-0.41,0.76-0.89,1.31-1.46,1.66C225.34,31.06,224.72,31.23,224.04,31.23z M225.15,23.06
		c-0.45,0-0.86,0.09-1.25,0.27c-0.38,0.18-0.72,0.44-1.02,0.77s-0.54,0.72-0.74,1.17c-0.2,0.45-0.35,0.94-0.45,1.48l-0.05,0.27
		c1.2-0.02,2.17-0.1,2.91-0.24c0.75-0.14,1.33-0.32,1.74-0.53c0.42-0.21,0.7-0.46,0.84-0.72c0.14-0.27,0.22-0.54,0.22-0.8
		c0-0.49-0.17-0.89-0.52-1.2S225.93,23.06,225.15,23.06z"/>
	<path d="M230.76,31.04l1.62-8.1h0.34l-0.37,1.84h0.05c0.14-0.27,0.29-0.52,0.46-0.74c0.17-0.23,0.36-0.42,0.58-0.58
		s0.47-0.29,0.75-0.38c0.28-0.09,0.61-0.14,0.98-0.14h0.48l-0.06,0.32h-0.46c-0.39,0-0.76,0.08-1.1,0.24
		c-0.34,0.16-0.65,0.38-0.91,0.66c-0.27,0.28-0.49,0.61-0.67,0.99s-0.31,0.78-0.4,1.21l-0.93,4.68H230.76z"/>
	<path d="M2.59,50.43c-0.44,0-0.82-0.08-1.14-0.24c-0.32-0.16-0.59-0.38-0.81-0.66s-0.38-0.62-0.49-1S0,47.72,0,47.26
		c0-0.75,0.08-1.44,0.25-2.09c0.17-0.64,0.41-1.21,0.74-1.69c0.33-0.48,0.73-0.86,1.21-1.13c0.48-0.27,1.03-0.41,1.65-0.41
		c0.64,0,1.17,0.17,1.59,0.51c0.42,0.34,0.69,0.78,0.81,1.33l-0.3,0.08c-0.12-0.52-0.37-0.92-0.74-1.2
		c-0.38-0.28-0.84-0.42-1.38-0.42c-0.82,0-1.52,0.29-2.1,0.86c-0.58,0.58-0.96,1.37-1.14,2.37l-0.14,0.78
		c-0.03,0.19-0.06,0.35-0.07,0.49c-0.02,0.13-0.02,0.3-0.02,0.5c0,0.39,0.04,0.76,0.13,1.11s0.22,0.65,0.41,0.91
		c0.19,0.26,0.42,0.47,0.7,0.62c0.28,0.15,0.63,0.22,1.03,0.22c0.63,0,1.18-0.17,1.65-0.5s0.89-0.79,1.26-1.35l0.27,0.14
		c-0.39,0.61-0.85,1.1-1.36,1.46C3.9,50.25,3.3,50.43,2.59,50.43z"/>
	<path d="M11.71,50.43c-0.43,0-0.8-0.08-1.14-0.22s-0.61-0.36-0.83-0.62c-0.22-0.27-0.39-0.57-0.51-0.92s-0.18-0.72-0.18-1.13
		c0-0.75,0.08-1.46,0.26-2.14c0.17-0.68,0.42-1.27,0.76-1.78s0.75-0.92,1.25-1.22s1.07-0.45,1.74-0.45c0.43,0,0.8,0.08,1.14,0.22
		c0.33,0.15,0.61,0.36,0.83,0.62c0.22,0.27,0.39,0.58,0.51,0.93c0.12,0.35,0.18,0.73,0.18,1.12c0,0.75-0.08,1.46-0.26,2.14
		s-0.42,1.27-0.76,1.78c-0.34,0.51-0.75,0.92-1.25,1.22S12.37,50.43,11.71,50.43z M11.74,50.13c0.91,0,1.65-0.31,2.23-0.93
		c0.58-0.62,0.98-1.47,1.19-2.56L15.3,46c0.03-0.18,0.05-0.37,0.06-0.55s0.02-0.39,0.02-0.6c0-0.35-0.04-0.69-0.14-1
		s-0.23-0.59-0.42-0.82s-0.44-0.42-0.74-0.56c-0.3-0.14-0.65-0.21-1.06-0.21c-0.91,0-1.65,0.31-2.23,0.93
		c-0.58,0.62-0.98,1.47-1.19,2.56l-0.13,0.64c-0.03,0.18-0.05,0.37-0.06,0.55s-0.02,0.39-0.02,0.6c0,0.35,0.04,0.69,0.14,1
		s0.23,0.59,0.42,0.82c0.19,0.23,0.44,0.42,0.74,0.56C10.99,50.06,11.34,50.13,11.74,50.13z"/>
	<path d="M19.09,50.24l1.62-8.1h0.34l-0.34,1.68h0.05c0.32-0.61,0.71-1.07,1.16-1.39c0.45-0.32,1.02-0.48,1.69-0.48
		c0.68,0,1.21,0.18,1.57,0.55c0.36,0.37,0.54,0.89,0.54,1.56c0,0.16-0.01,0.33-0.03,0.52c-0.02,0.19-0.05,0.36-0.08,0.52l-0.96,4.83
		H26l-0.06,0.3h-1.25c-0.25,0-0.37-0.1-0.37-0.3c0-0.05,0-0.1,0.01-0.13c0-0.03,0.01-0.08,0.02-0.13l0.91-4.56
		c0.03-0.18,0.06-0.37,0.08-0.56c0.02-0.19,0.03-0.34,0.03-0.45c0-1.24-0.61-1.86-1.82-1.86c-0.36,0-0.73,0.07-1.1,0.22
		c-0.37,0.14-0.71,0.4-1.03,0.78c-0.18,0.21-0.37,0.48-0.57,0.8c-0.2,0.32-0.34,0.72-0.44,1.2l-0.99,4.99H19.09z"/>
	<path d="M35.2,50.24c-0.25,0-0.37-0.1-0.37-0.3c0-0.05,0-0.1,0.01-0.13c0-0.03,0.01-0.08,0.02-0.13l0.24-1.22h-0.05
		c-0.34,0.6-0.74,1.08-1.19,1.43c-0.45,0.36-1.02,0.54-1.7,0.54c-0.42,0-0.79-0.08-1.11-0.23s-0.6-0.37-0.82-0.63
		c-0.22-0.27-0.39-0.58-0.5-0.95s-0.17-0.77-0.17-1.19c0-0.74,0.09-1.43,0.26-2.1c0.18-0.66,0.43-1.24,0.77-1.74
		c0.34-0.5,0.75-0.9,1.25-1.19c0.5-0.29,1.06-0.44,1.7-0.44c0.68,0,1.23,0.16,1.65,0.46c0.42,0.31,0.7,0.71,0.85,1.22h0.05
		l1.04-5.23h0.34l-2.3,11.54h1.36l-0.06,0.3H35.2z M32.16,50.13c0.34,0,0.65-0.05,0.93-0.14s0.55-0.26,0.83-0.5
		c0.31-0.26,0.61-0.6,0.89-1.02c0.28-0.43,0.48-0.92,0.6-1.49l0.45-2.27c0.05-0.27,0.05-0.54-0.01-0.83s-0.18-0.55-0.36-0.79
		c-0.18-0.24-0.43-0.44-0.75-0.59c-0.32-0.15-0.72-0.23-1.2-0.23c-0.92,0-1.67,0.32-2.26,0.94c-0.59,0.63-0.98,1.47-1.18,2.53
		l-0.11,0.56c-0.03,0.18-0.06,0.36-0.07,0.54c-0.02,0.18-0.02,0.38-0.02,0.6c0,0.37,0.04,0.72,0.14,1.05s0.23,0.61,0.42,0.86
		c0.19,0.25,0.42,0.44,0.7,0.58C31.43,50.06,31.76,50.13,32.16,50.13z"/>
	<path d="M40.54,50.24c-0.25,0-0.37-0.1-0.37-0.3c0-0.05,0-0.1,0.01-0.13c0.01-0.03,0.01-0.08,0.02-0.13l1.52-7.54h0.34l-1.57,7.79
		h1.36l-0.06,0.3H40.54z M42.45,39.47c-0.12,0-0.2-0.03-0.25-0.08c-0.05-0.05-0.07-0.11-0.07-0.18c0-0.03,0-0.06,0.01-0.1
		c0.01-0.03,0.01-0.07,0.02-0.13c0.02-0.1,0.06-0.17,0.13-0.22c0.06-0.05,0.17-0.08,0.3-0.08c0.12,0,0.2,0.03,0.25,0.08
		c0.05,0.05,0.07,0.11,0.07,0.18c0,0.03,0,0.06-0.01,0.1c-0.01,0.03-0.01,0.08-0.02,0.13c-0.02,0.1-0.06,0.17-0.13,0.22
		C42.69,39.45,42.59,39.47,42.45,39.47z"/>
	<path d="M46.19,50.24c-0.25,0-0.37-0.1-0.37-0.3c0-0.05,0-0.1,0.01-0.13c0-0.03,0.01-0.08,0.02-0.13l1.44-7.23h-1.52l0.06-0.3h1.15
		c0.15,0,0.26-0.03,0.32-0.09c0.06-0.06,0.11-0.16,0.13-0.31l0.38-1.9h0.34l-0.46,2.3h1.94l-0.06,0.3h-1.94l-1.49,7.49h1.81
		l-0.06,0.3H46.19z"/>
	<path d="M52.3,50.24c-0.25,0-0.37-0.1-0.37-0.3c0-0.05,0-0.1,0.01-0.13c0.01-0.03,0.01-0.08,0.02-0.13l1.52-7.54h0.34l-1.57,7.79
		h1.36l-0.06,0.3H52.3z M54.21,39.47c-0.12,0-0.2-0.03-0.25-0.08c-0.05-0.05-0.07-0.11-0.07-0.18c0-0.03,0-0.06,0.01-0.1
		c0.01-0.03,0.01-0.07,0.02-0.13c0.02-0.1,0.06-0.17,0.13-0.22c0.06-0.05,0.17-0.08,0.3-0.08c0.12,0,0.2,0.03,0.25,0.08
		c0.05,0.05,0.07,0.11,0.07,0.18c0,0.03,0,0.06-0.01,0.1c-0.01,0.03-0.01,0.08-0.02,0.13c-0.02,0.1-0.06,0.17-0.13,0.22
		C54.45,39.45,54.35,39.47,54.21,39.47z"/>
	<path d="M59.95,50.43c-0.43,0-0.8-0.08-1.14-0.22s-0.61-0.36-0.83-0.62c-0.22-0.27-0.39-0.57-0.51-0.92s-0.18-0.72-0.18-1.13
		c0-0.75,0.08-1.46,0.26-2.14c0.17-0.68,0.42-1.27,0.76-1.78s0.75-0.92,1.25-1.22s1.07-0.45,1.74-0.45c0.43,0,0.8,0.08,1.14,0.22
		c0.33,0.15,0.61,0.36,0.83,0.62c0.22,0.27,0.39,0.58,0.51,0.93c0.12,0.35,0.18,0.73,0.18,1.12c0,0.75-0.08,1.46-0.26,2.14
		s-0.42,1.27-0.76,1.78c-0.34,0.51-0.75,0.92-1.25,1.22S60.61,50.43,59.95,50.43z M59.98,50.13c0.91,0,1.65-0.31,2.23-0.93
		c0.58-0.62,0.98-1.47,1.19-2.56L63.54,46c0.03-0.18,0.05-0.37,0.06-0.55s0.02-0.39,0.02-0.6c0-0.35-0.04-0.69-0.14-1
		s-0.23-0.59-0.42-0.82s-0.44-0.42-0.74-0.56c-0.3-0.14-0.65-0.21-1.06-0.21c-0.91,0-1.65,0.31-2.23,0.93
		c-0.58,0.62-0.98,1.47-1.19,2.56l-0.13,0.64c-0.03,0.18-0.05,0.37-0.06,0.55s-0.02,0.39-0.02,0.6c0,0.35,0.04,0.69,0.14,1
		s0.23,0.59,0.42,0.82c0.19,0.23,0.44,0.42,0.74,0.56C59.23,50.06,59.58,50.13,59.98,50.13z"/>
	<path d="M67.33,50.24l1.62-8.1h0.34l-0.34,1.68h0.05c0.32-0.61,0.71-1.07,1.16-1.39c0.45-0.32,1.02-0.48,1.69-0.48
		c0.68,0,1.21,0.18,1.57,0.55c0.36,0.37,0.54,0.89,0.54,1.56c0,0.16-0.01,0.33-0.03,0.52c-0.02,0.19-0.05,0.36-0.08,0.52l-0.96,4.83
		h1.36l-0.06,0.3h-1.25c-0.25,0-0.37-0.1-0.37-0.3c0-0.05,0-0.1,0.01-0.13c0-0.03,0.01-0.08,0.02-0.13l0.91-4.56
		c0.03-0.18,0.06-0.37,0.08-0.56c0.02-0.19,0.03-0.34,0.03-0.45c0-1.24-0.61-1.86-1.82-1.86c-0.36,0-0.73,0.07-1.1,0.22
		c-0.37,0.14-0.71,0.4-1.03,0.78c-0.18,0.21-0.37,0.48-0.57,0.8c-0.2,0.32-0.34,0.72-0.44,1.2l-0.99,4.99H67.33z"/>
	<path d="M78.38,49.39c0.15,0,0.25,0.03,0.31,0.1c0.06,0.06,0.09,0.13,0.09,0.21c0,0.04,0,0.1-0.02,0.16
		c-0.01,0.06-0.02,0.11-0.03,0.14c-0.05,0.21-0.13,0.44-0.24,0.68c-0.11,0.24-0.24,0.47-0.39,0.7c-0.16,0.23-0.32,0.45-0.5,0.66
		c-0.18,0.21-0.37,0.39-0.58,0.55h-0.34c0.48-0.41,0.85-0.81,1.1-1.22c0.26-0.41,0.43-0.76,0.51-1.06c-0.18,0-0.3-0.03-0.35-0.1
		c-0.05-0.06-0.08-0.13-0.08-0.21c0-0.04,0.01-0.09,0.02-0.15c0.01-0.06,0.02-0.1,0.03-0.14c0.02-0.09,0.06-0.16,0.13-0.23
		C78.11,49.43,78.22,49.39,78.38,49.39z"/>
	<path d="M91.12,50.43c-0.67,0-1.25-0.13-1.74-0.4s-0.9-0.66-1.24-1.17l0.29-0.19c0.61,0.97,1.5,1.46,2.69,1.46
		c0.75,0,1.35-0.18,1.8-0.54c0.45-0.36,0.68-0.88,0.68-1.55c0-0.26-0.04-0.47-0.11-0.65c-0.07-0.18-0.18-0.33-0.32-0.46
		c-0.14-0.13-0.31-0.24-0.51-0.32c-0.2-0.08-0.44-0.16-0.7-0.22l-0.8-0.21c-0.28-0.07-0.53-0.16-0.75-0.26
		c-0.22-0.1-0.42-0.23-0.58-0.38s-0.29-0.33-0.38-0.55s-0.14-0.48-0.14-0.79c0-0.37,0.07-0.7,0.22-0.98
		c0.14-0.28,0.34-0.51,0.58-0.7c0.24-0.19,0.52-0.33,0.85-0.42c0.33-0.1,0.67-0.14,1.03-0.14c0.35,0,0.66,0.04,0.93,0.1
		s0.5,0.16,0.71,0.28c0.21,0.12,0.39,0.25,0.54,0.41c0.15,0.16,0.29,0.31,0.41,0.47l-0.26,0.22c-0.22-0.32-0.51-0.6-0.86-0.83
		c-0.35-0.23-0.85-0.35-1.49-0.35c-0.7,0-1.27,0.17-1.69,0.5c-0.42,0.33-0.63,0.81-0.63,1.44c0,0.5,0.14,0.87,0.41,1.11
		c0.27,0.24,0.67,0.43,1.21,0.57l0.8,0.21c0.27,0.08,0.52,0.16,0.75,0.26c0.23,0.1,0.43,0.22,0.6,0.36c0.17,0.14,0.3,0.32,0.39,0.54
		c0.1,0.21,0.14,0.47,0.14,0.78c0,0.41-0.07,0.76-0.22,1.06c-0.14,0.3-0.34,0.55-0.6,0.75c-0.26,0.2-0.55,0.35-0.9,0.46
		C91.88,50.38,91.51,50.43,91.12,50.43z"/>
	<path d="M99.17,42.14h0.34l-0.35,1.78h0.05c0.34-0.6,0.74-1.07,1.19-1.43s1.02-0.54,1.7-0.54c0.42,0,0.79,0.08,1.11,0.23
		c0.33,0.15,0.6,0.37,0.82,0.63c0.22,0.27,0.39,0.58,0.5,0.95c0.11,0.37,0.17,0.77,0.17,1.19c0,0.74-0.09,1.43-0.26,2.1
		c-0.18,0.66-0.43,1.24-0.77,1.74c-0.34,0.5-0.75,0.9-1.25,1.19s-1.06,0.44-1.7,0.44c-0.68,0-1.23-0.16-1.65-0.46
		c-0.42-0.31-0.7-0.71-0.85-1.22h-0.05l-0.93,4.69h-0.34L99.17,42.14z M100.72,50.13c0.92,0,1.67-0.31,2.25-0.94
		c0.58-0.63,0.98-1.47,1.19-2.53l0.11-0.56c0.03-0.18,0.06-0.36,0.07-0.54c0.02-0.18,0.02-0.38,0.02-0.6c0-0.37-0.04-0.72-0.14-1.05
		s-0.23-0.61-0.42-0.86c-0.19-0.25-0.42-0.44-0.7-0.58c-0.28-0.14-0.62-0.22-1.02-0.22c-0.34,0-0.65,0.05-0.93,0.14
		c-0.28,0.1-0.56,0.26-0.83,0.5c-0.31,0.26-0.61,0.6-0.89,1.02c-0.28,0.43-0.48,0.92-0.6,1.49l-0.45,2.27
		c-0.05,0.27-0.05,0.54,0.01,0.83c0.06,0.29,0.18,0.55,0.36,0.79c0.18,0.24,0.43,0.44,0.75,0.59S100.24,50.13,100.72,50.13z"/>
	<path d="M108.09,50.24l1.62-8.1h0.34l-0.37,1.84h0.05c0.14-0.27,0.29-0.52,0.46-0.74c0.17-0.23,0.36-0.42,0.58-0.58
		s0.47-0.29,0.75-0.38c0.28-0.09,0.61-0.14,0.98-0.14h0.48l-0.06,0.32h-0.46c-0.39,0-0.76,0.08-1.1,0.24
		c-0.34,0.16-0.65,0.38-0.91,0.66c-0.27,0.28-0.49,0.61-0.67,0.99s-0.31,0.78-0.4,1.21l-0.93,4.68H108.09z"/>
	<path d="M115.54,50.24c-0.25,0-0.37-0.1-0.37-0.3c0-0.05,0-0.1,0.01-0.13c0.01-0.03,0.01-0.08,0.02-0.13l1.52-7.54h0.34l-1.57,7.79
		h1.36l-0.06,0.3H115.54z M117.44,39.47c-0.12,0-0.2-0.03-0.25-0.08c-0.05-0.05-0.07-0.11-0.07-0.18c0-0.03,0-0.06,0.01-0.1
		c0.01-0.03,0.01-0.07,0.02-0.13c0.02-0.1,0.06-0.17,0.13-0.22c0.06-0.05,0.17-0.08,0.3-0.08c0.12,0,0.2,0.03,0.25,0.08
		c0.05,0.05,0.07,0.11,0.07,0.18c0,0.03,0,0.06-0.01,0.1c-0.01,0.03-0.01,0.08-0.02,0.13c-0.02,0.1-0.06,0.17-0.13,0.22
		C117.68,39.45,117.58,39.47,117.44,39.47z"/>
	<path d="M120.43,50.24l1.62-8.1h0.34l-0.34,1.68h0.05c0.32-0.61,0.71-1.07,1.16-1.39c0.45-0.32,1.02-0.48,1.69-0.48
		c0.68,0,1.21,0.18,1.57,0.55c0.36,0.37,0.54,0.89,0.54,1.56c0,0.16-0.01,0.33-0.03,0.52c-0.02,0.19-0.05,0.36-0.08,0.52l-0.96,4.83
		h1.36l-0.06,0.3h-1.25c-0.25,0-0.37-0.1-0.37-0.3c0-0.05,0-0.1,0.01-0.13c0-0.03,0.01-0.08,0.02-0.13l0.91-4.56
		c0.03-0.18,0.06-0.37,0.08-0.56c0.02-0.19,0.03-0.34,0.03-0.45c0-1.24-0.61-1.86-1.82-1.86c-0.36,0-0.73,0.07-1.1,0.22
		c-0.37,0.14-0.71,0.4-1.03,0.78c-0.18,0.21-0.37,0.48-0.57,0.8c-0.2,0.32-0.34,0.72-0.44,1.2l-0.99,4.99H120.43z"/>
	<path d="M136.97,51.12c0,0.85-0.36,1.49-1.07,1.9c-0.71,0.41-1.73,0.62-3.04,0.62c-0.98,0-1.73-0.17-2.23-0.52
		c-0.51-0.35-0.76-0.81-0.76-1.4c0-0.51,0.16-0.94,0.47-1.28c0.31-0.34,0.73-0.6,1.26-0.78V49.6c-0.19-0.05-0.34-0.17-0.46-0.35
		c-0.11-0.18-0.17-0.38-0.17-0.59c0-0.39,0.16-0.71,0.47-0.95s0.68-0.42,1.1-0.54l0.02-0.06c-0.38-0.18-0.68-0.44-0.88-0.77
		c-0.2-0.33-0.3-0.69-0.3-1.09c0-0.51,0.08-0.97,0.23-1.38s0.37-0.75,0.64-1.03c0.27-0.28,0.59-0.5,0.97-0.66
		c0.37-0.16,0.78-0.23,1.22-0.23c0.36,0,0.69,0.06,0.98,0.17s0.53,0.26,0.74,0.44l0.16-0.9c0.02-0.15,0.07-0.25,0.14-0.31
		c0.08-0.06,0.19-0.09,0.35-0.09h1.49l-0.05,0.3h-1.62l-0.22,1.26c0.27,0.36,0.4,0.77,0.4,1.23c0,0.51-0.08,0.97-0.23,1.38
		s-0.37,0.75-0.64,1.03c-0.27,0.28-0.59,0.5-0.97,0.66c-0.37,0.16-0.78,0.23-1.22,0.23c-0.27,0-0.51-0.03-0.74-0.1
		c-0.62,0.16-1.06,0.35-1.32,0.58s-0.39,0.5-0.39,0.81c0,0.2,0.07,0.38,0.21,0.52c0.14,0.14,0.41,0.22,0.82,0.22h2.22
		c0.85,0,1.47,0.15,1.86,0.46S136.97,50.59,136.97,51.12z M136.62,51.14c0-0.46-0.16-0.81-0.48-1.06s-0.88-0.37-1.66-0.37h-2.37
		c-0.57,0.15-1.02,0.38-1.37,0.7s-0.52,0.74-0.52,1.27c0,0.29,0.06,0.54,0.18,0.74c0.12,0.21,0.3,0.38,0.52,0.51
		c0.22,0.13,0.49,0.23,0.79,0.3c0.3,0.06,0.64,0.1,1,0.1h0.51c0.49,0,0.94-0.04,1.36-0.13c0.42-0.09,0.77-0.22,1.07-0.4
		c0.3-0.18,0.53-0.41,0.7-0.68C136.54,51.85,136.62,51.52,136.62,51.14z M133.74,47.06c0.73,0,1.31-0.2,1.76-0.58
		c0.45-0.39,0.73-0.89,0.85-1.51c0.05-0.28,0.08-0.48,0.1-0.61s0.02-0.22,0.02-0.29c0-0.52-0.17-0.96-0.52-1.3
		c-0.35-0.34-0.85-0.51-1.51-0.51c-0.73,0-1.31,0.2-1.76,0.58c-0.45,0.39-0.73,0.89-0.85,1.51c-0.05,0.28-0.08,0.48-0.1,0.61
		s-0.02,0.22-0.02,0.29c0,0.52,0.17,0.96,0.52,1.3C132.58,46.89,133.08,47.06,133.74,47.06z"/>
	<path d="M147.82,50.43c-0.67,0-1.25-0.13-1.74-0.4s-0.9-0.66-1.24-1.17l0.29-0.19c0.61,0.97,1.5,1.46,2.69,1.46
		c0.75,0,1.35-0.18,1.8-0.54c0.45-0.36,0.68-0.88,0.68-1.55c0-0.26-0.04-0.47-0.11-0.65c-0.07-0.18-0.18-0.33-0.32-0.46
		c-0.14-0.13-0.31-0.24-0.51-0.32c-0.2-0.08-0.44-0.16-0.7-0.22l-0.8-0.21c-0.28-0.07-0.53-0.16-0.75-0.26
		c-0.22-0.1-0.42-0.23-0.58-0.38s-0.29-0.33-0.38-0.55S146,44.5,146,44.19c0-0.37,0.07-0.7,0.22-0.98c0.14-0.28,0.34-0.51,0.58-0.7
		c0.24-0.19,0.52-0.33,0.85-0.42c0.33-0.1,0.67-0.14,1.03-0.14c0.35,0,0.66,0.04,0.93,0.1s0.5,0.16,0.71,0.28
		c0.21,0.12,0.39,0.25,0.54,0.41c0.15,0.16,0.29,0.31,0.41,0.47l-0.26,0.22c-0.22-0.32-0.51-0.6-0.86-0.83
		c-0.35-0.23-0.85-0.35-1.49-0.35c-0.7,0-1.27,0.17-1.69,0.5c-0.42,0.33-0.63,0.81-0.63,1.44c0,0.5,0.14,0.87,0.41,1.11
		c0.27,0.24,0.67,0.43,1.21,0.57l0.8,0.21c0.27,0.08,0.52,0.16,0.75,0.26c0.23,0.1,0.43,0.22,0.6,0.36c0.17,0.14,0.3,0.32,0.39,0.54
		c0.1,0.21,0.14,0.47,0.14,0.78c0,0.41-0.07,0.76-0.22,1.06c-0.14,0.3-0.34,0.55-0.6,0.75c-0.26,0.2-0.55,0.35-0.9,0.46
		C148.58,50.38,148.22,50.43,147.82,50.43z"/>
	<path d="M154.69,50.24c-0.25,0-0.37-0.1-0.37-0.3c0-0.05,0-0.1,0.01-0.13c0.01-0.03,0.01-0.08,0.02-0.13l2.26-11.28h0.34
		l-2.3,11.54H156l-0.06,0.3H154.69z"/>
	<path d="M161.39,42.14l-1.02,5.12c-0.03,0.18-0.06,0.37-0.08,0.56s-0.03,0.34-0.03,0.45c0,1.24,0.61,1.86,1.82,1.86
		c0.36,0,0.73-0.07,1.1-0.22c0.37-0.14,0.71-0.4,1.03-0.78c0.18-0.21,0.37-0.48,0.57-0.8c0.2-0.32,0.34-0.72,0.44-1.2l0.99-4.99
		h0.34l-1.55,7.79h1.36l-0.06,0.3h-1.25c-0.25,0-0.37-0.1-0.37-0.3c0-0.05,0-0.1,0.01-0.13c0-0.03,0.01-0.08,0.02-0.13l0.22-1.12
		h-0.05c-0.32,0.61-0.71,1.07-1.16,1.39c-0.45,0.32-1.02,0.48-1.69,0.48c-0.68,0-1.21-0.18-1.57-0.55
		c-0.36-0.37-0.54-0.89-0.54-1.56c0-0.16,0.01-0.33,0.03-0.52c0.02-0.19,0.05-0.36,0.08-0.52l1.02-5.14H161.39z"/>
	<path d="M172.27,50.43c-0.67,0-1.25-0.13-1.74-0.4s-0.9-0.66-1.24-1.17l0.29-0.19c0.61,0.97,1.5,1.46,2.69,1.46
		c0.75,0,1.35-0.18,1.8-0.54c0.45-0.36,0.68-0.88,0.68-1.55c0-0.26-0.04-0.47-0.11-0.65c-0.07-0.18-0.18-0.33-0.32-0.46
		c-0.14-0.13-0.31-0.24-0.51-0.32c-0.2-0.08-0.44-0.16-0.7-0.22l-0.8-0.21c-0.28-0.07-0.53-0.16-0.75-0.26
		c-0.22-0.1-0.42-0.23-0.58-0.38s-0.29-0.33-0.38-0.55s-0.14-0.48-0.14-0.79c0-0.37,0.07-0.7,0.22-0.98
		c0.14-0.28,0.34-0.51,0.58-0.7c0.24-0.19,0.52-0.33,0.85-0.42c0.33-0.1,0.67-0.14,1.03-0.14c0.35,0,0.66,0.04,0.93,0.1
		s0.5,0.16,0.71,0.28c0.21,0.12,0.39,0.25,0.54,0.41c0.15,0.16,0.29,0.31,0.41,0.47l-0.26,0.22c-0.22-0.32-0.51-0.6-0.86-0.83
		c-0.35-0.23-0.85-0.35-1.49-0.35c-0.7,0-1.27,0.17-1.69,0.5c-0.42,0.33-0.63,0.81-0.63,1.44c0,0.5,0.14,0.87,0.41,1.11
		c0.27,0.24,0.67,0.43,1.21,0.57l0.8,0.21c0.27,0.08,0.52,0.16,0.75,0.26c0.23,0.1,0.43,0.22,0.6,0.36c0.17,0.14,0.3,0.32,0.39,0.54
		c0.1,0.21,0.14,0.47,0.14,0.78c0,0.41-0.07,0.76-0.22,1.06c-0.14,0.3-0.34,0.55-0.6,0.75c-0.26,0.2-0.55,0.35-0.9,0.46
		C173.03,50.38,172.66,50.43,172.27,50.43z"/>
	<path d="M181.05,38.4h0.34l-1.07,5.42h0.05c0.32-0.61,0.71-1.07,1.16-1.39c0.45-0.32,1.02-0.48,1.69-0.48
		c0.68,0,1.21,0.18,1.57,0.55c0.36,0.37,0.54,0.89,0.54,1.56c0,0.16-0.01,0.33-0.03,0.52s-0.05,0.36-0.08,0.52l-0.96,4.83h1.36
		l-0.06,0.3h-1.25c-0.25,0-0.37-0.1-0.37-0.3c0-0.05,0-0.1,0.01-0.13c0.01-0.03,0.01-0.08,0.02-0.13l0.91-4.56
		c0.03-0.18,0.06-0.37,0.08-0.56c0.02-0.19,0.03-0.34,0.03-0.45c0-1.24-0.61-1.86-1.82-1.86c-0.36,0-0.73,0.07-1.1,0.22
		c-0.37,0.14-0.71,0.4-1.03,0.78c-0.18,0.21-0.37,0.48-0.57,0.8c-0.2,0.32-0.34,0.72-0.44,1.2l-0.99,4.99h-0.34L181.05,38.4z"/>
	<path d="M189.76,49.39c0.15,0,0.25,0.03,0.31,0.1c0.06,0.06,0.09,0.13,0.09,0.21c0,0.04,0,0.1-0.02,0.16
		c-0.01,0.06-0.02,0.11-0.03,0.14c-0.05,0.21-0.13,0.44-0.24,0.68c-0.11,0.24-0.24,0.47-0.39,0.7c-0.16,0.23-0.32,0.45-0.5,0.66
		c-0.18,0.21-0.37,0.39-0.58,0.55h-0.34c0.48-0.41,0.85-0.81,1.1-1.22c0.26-0.41,0.43-0.76,0.51-1.06c-0.18,0-0.3-0.03-0.35-0.1
		c-0.05-0.06-0.08-0.13-0.08-0.21c0-0.04,0.01-0.09,0.02-0.15c0.01-0.06,0.02-0.1,0.03-0.14c0.02-0.09,0.06-0.16,0.13-0.23
		C189.49,49.43,189.6,49.39,189.76,49.39z"/>
	<path d="M200.29,52.91c-0.04,0.21-0.1,0.35-0.18,0.42s-0.22,0.1-0.45,0.1h-1.34l0.06-0.3h1.52l2.11-10.69h-1.6l0.06-0.3h1.6
		l0.62-3.22c0.04-0.21,0.1-0.35,0.18-0.42c0.07-0.07,0.22-0.1,0.45-0.1h1.5l-0.06,0.3h-1.68l-0.67,3.44h1.66l-0.06,0.3h-1.66
		L200.29,52.91z"/>
	<path d="M206.25,50.24l1.62-8.1h0.34l-0.37,1.84h0.05c0.14-0.27,0.29-0.52,0.46-0.74c0.17-0.23,0.36-0.42,0.58-0.58
		s0.47-0.29,0.75-0.38c0.28-0.09,0.61-0.14,0.98-0.14h0.48l-0.06,0.32h-0.46c-0.39,0-0.76,0.08-1.1,0.24
		c-0.34,0.16-0.65,0.38-0.91,0.66c-0.27,0.28-0.49,0.61-0.67,0.99s-0.31,0.78-0.4,1.21l-0.93,4.68H206.25z"/>
	<path d="M215.92,50.43c-0.43,0-0.8-0.08-1.14-0.22s-0.61-0.36-0.83-0.62c-0.22-0.27-0.39-0.57-0.51-0.92s-0.18-0.72-0.18-1.13
		c0-0.75,0.08-1.46,0.26-2.14c0.17-0.68,0.42-1.27,0.76-1.78s0.75-0.92,1.25-1.22s1.07-0.45,1.74-0.45c0.43,0,0.8,0.08,1.14,0.22
		c0.33,0.15,0.61,0.36,0.83,0.62c0.22,0.27,0.39,0.58,0.51,0.93c0.12,0.35,0.18,0.73,0.18,1.12c0,0.75-0.08,1.46-0.26,2.14
		s-0.42,1.27-0.76,1.78c-0.34,0.51-0.75,0.92-1.25,1.22S216.58,50.43,215.92,50.43z M215.95,50.13c0.91,0,1.65-0.31,2.23-0.93
		c0.58-0.62,0.98-1.47,1.19-2.56L219.5,46c0.03-0.18,0.05-0.37,0.06-0.55s0.02-0.39,0.02-0.6c0-0.35-0.04-0.69-0.14-1
		s-0.23-0.59-0.42-0.82s-0.44-0.42-0.74-0.56c-0.3-0.14-0.65-0.21-1.06-0.21c-0.91,0-1.65,0.31-2.23,0.93
		c-0.58,0.62-0.98,1.47-1.19,2.56l-0.13,0.64c-0.03,0.18-0.05,0.37-0.06,0.55s-0.02,0.39-0.02,0.6c0,0.35,0.04,0.69,0.14,1
		s0.23,0.59,0.42,0.82c0.19,0.23,0.44,0.42,0.74,0.56C215.19,50.06,215.54,50.13,215.95,50.13z"/>
	<path d="M222.24,50.24l0.06-0.32l6.38-7.47h-4.96l0.06-0.3h5.34l-0.06,0.32l-6.37,7.47h5.15l-0.06,0.3H222.24z"/>
	<path d="M234.29,50.43c-0.91,0-1.6-0.26-2.09-0.77s-0.73-1.32-0.73-2.42c0-0.74,0.1-1.43,0.29-2.07c0.19-0.64,0.46-1.21,0.81-1.68
		s0.76-0.85,1.25-1.13s1.02-0.42,1.61-0.42c0.77,0,1.38,0.18,1.84,0.53c0.46,0.35,0.69,0.83,0.69,1.44c0,0.26-0.06,0.53-0.19,0.82
		c-0.13,0.29-0.4,0.57-0.82,0.82c-0.42,0.25-1.04,0.46-1.84,0.64c-0.8,0.18-1.88,0.28-3.24,0.31c-0.01,0.08-0.02,0.2-0.03,0.35
		s-0.02,0.27-0.02,0.35c0,1.04,0.21,1.78,0.62,2.23c0.41,0.45,1.03,0.68,1.86,0.68c0.66,0,1.25-0.18,1.76-0.53
		c0.51-0.35,0.93-0.84,1.26-1.47l0.3,0.13c-0.41,0.76-0.89,1.31-1.46,1.66C235.58,50.26,234.96,50.43,234.29,50.43z M235.39,42.26
		c-0.45,0-0.86,0.09-1.25,0.27c-0.38,0.18-0.72,0.44-1.02,0.77s-0.54,0.72-0.74,1.17c-0.2,0.45-0.35,0.94-0.45,1.48l-0.05,0.27
		c1.2-0.02,2.17-0.1,2.91-0.24c0.75-0.14,1.33-0.32,1.74-0.53c0.42-0.21,0.7-0.46,0.84-0.72c0.14-0.27,0.22-0.54,0.22-0.8
		c0-0.49-0.17-0.89-0.52-1.2S236.17,42.26,235.39,42.26z"/>
	<path d="M241.01,50.24l1.62-8.1h0.34l-0.34,1.68h0.05c0.32-0.61,0.71-1.07,1.16-1.39c0.45-0.32,1.02-0.48,1.69-0.48
		c0.68,0,1.21,0.18,1.57,0.55c0.36,0.37,0.54,0.89,0.54,1.56c0,0.16-0.01,0.33-0.03,0.52c-0.02,0.19-0.05,0.36-0.08,0.52l-0.96,4.83
		h1.36l-0.06,0.3h-1.25c-0.25,0-0.37-0.1-0.37-0.3c0-0.05,0-0.1,0.01-0.13c0-0.03,0.01-0.08,0.02-0.13l0.91-4.56
		c0.03-0.18,0.06-0.37,0.08-0.56c0.02-0.19,0.03-0.34,0.03-0.45c0-1.24-0.61-1.86-1.82-1.86c-0.36,0-0.73,0.07-1.1,0.22
		c-0.37,0.14-0.71,0.4-1.03,0.78c-0.18,0.21-0.37,0.48-0.57,0.8c-0.2,0.32-0.34,0.72-0.44,1.2l-0.99,4.99H241.01z"/>
	<path d="M2.59,69.63c-0.44,0-0.82-0.08-1.14-0.24c-0.32-0.16-0.59-0.38-0.81-0.66s-0.38-0.62-0.49-1S0,66.92,0,66.46
		c0-0.75,0.08-1.44,0.25-2.09c0.17-0.64,0.41-1.21,0.74-1.69c0.33-0.48,0.73-0.86,1.21-1.13c0.48-0.27,1.03-0.41,1.65-0.41
		c0.64,0,1.17,0.17,1.59,0.51c0.42,0.34,0.69,0.78,0.81,1.33l-0.3,0.08c-0.12-0.52-0.37-0.92-0.74-1.2
		c-0.38-0.28-0.84-0.42-1.38-0.42c-0.82,0-1.52,0.29-2.1,0.86c-0.58,0.58-0.96,1.37-1.14,2.37l-0.14,0.78
		c-0.03,0.19-0.06,0.35-0.07,0.49c-0.02,0.13-0.02,0.3-0.02,0.5c0,0.39,0.04,0.76,0.13,1.11s0.22,0.65,0.41,0.91
		c0.19,0.26,0.42,0.47,0.7,0.62c0.28,0.15,0.63,0.22,1.03,0.22c0.63,0,1.18-0.17,1.65-0.5s0.89-0.79,1.26-1.35l0.27,0.14
		c-0.39,0.61-0.85,1.1-1.36,1.46C3.9,69.45,3.3,69.63,2.59,69.63z"/>
	<path d="M11.49,57.6h0.34l-1.07,5.42h0.05c0.32-0.61,0.71-1.07,1.16-1.39c0.45-0.32,1.02-0.48,1.69-0.48
		c0.68,0,1.21,0.18,1.57,0.55c0.36,0.37,0.54,0.89,0.54,1.56c0,0.16-0.01,0.33-0.03,0.52s-0.05,0.36-0.08,0.52l-0.96,4.83h1.36
		l-0.06,0.3h-1.25c-0.25,0-0.37-0.1-0.37-0.3c0-0.05,0-0.1,0.01-0.13c0.01-0.03,0.01-0.08,0.02-0.13l0.91-4.56
		c0.03-0.18,0.06-0.37,0.08-0.56c0.02-0.19,0.03-0.34,0.03-0.45c0-1.24-0.61-1.86-1.82-1.86c-0.36,0-0.73,0.07-1.1,0.22
		c-0.37,0.14-0.71,0.4-1.03,0.78c-0.18,0.21-0.37,0.48-0.57,0.8c-0.2,0.32-0.34,0.72-0.44,1.2l-0.99,4.99H9.14L11.49,57.6z"/>
	<path d="M22.24,69.63c-0.43,0-0.8-0.08-1.14-0.22s-0.61-0.36-0.83-0.62c-0.22-0.27-0.39-0.57-0.51-0.92s-0.18-0.72-0.18-1.13
		c0-0.75,0.08-1.46,0.26-2.14c0.17-0.68,0.42-1.27,0.76-1.78s0.75-0.92,1.25-1.22s1.07-0.45,1.74-0.45c0.43,0,0.8,0.08,1.14,0.22
		c0.33,0.15,0.61,0.36,0.83,0.62c0.22,0.27,0.39,0.58,0.51,0.93c0.12,0.35,0.18,0.73,0.18,1.12c0,0.75-0.08,1.46-0.26,2.14
		s-0.42,1.27-0.76,1.78c-0.34,0.51-0.75,0.92-1.25,1.22S22.9,69.63,22.24,69.63z M22.27,69.33c0.91,0,1.65-0.31,2.23-0.93
		c0.58-0.62,0.98-1.47,1.19-2.56l0.13-0.64c0.03-0.18,0.05-0.37,0.06-0.55s0.02-0.39,0.02-0.6c0-0.35-0.04-0.69-0.14-1
		s-0.23-0.59-0.42-0.82s-0.44-0.42-0.74-0.56c-0.3-0.14-0.65-0.21-1.06-0.21c-0.91,0-1.65,0.31-2.23,0.93
		c-0.58,0.62-0.98,1.47-1.19,2.56L20,65.58c-0.03,0.18-0.05,0.37-0.06,0.55s-0.02,0.39-0.02,0.6c0,0.35,0.04,0.69,0.14,1
		s0.23,0.59,0.42,0.82c0.19,0.23,0.44,0.42,0.74,0.56C21.51,69.26,21.87,69.33,22.27,69.33z"/>
	<path d="M31.25,61.34h0.34l-0.35,1.78h0.05c0.34-0.6,0.74-1.07,1.19-1.43s1.02-0.54,1.7-0.54c0.42,0,0.79,0.08,1.11,0.23
		c0.33,0.15,0.6,0.37,0.82,0.63c0.22,0.27,0.39,0.58,0.5,0.95c0.11,0.37,0.17,0.77,0.17,1.19c0,0.74-0.09,1.43-0.26,2.1
		c-0.18,0.66-0.43,1.24-0.77,1.74c-0.34,0.5-0.75,0.9-1.25,1.19s-1.06,0.44-1.7,0.44c-0.68,0-1.23-0.16-1.65-0.46
		c-0.42-0.31-0.7-0.71-0.85-1.22h-0.05l-0.93,4.69h-0.34L31.25,61.34z M32.8,69.33c0.92,0,1.67-0.31,2.25-0.94
		c0.58-0.63,0.98-1.47,1.19-2.53l0.11-0.56c0.03-0.18,0.06-0.36,0.07-0.54c0.02-0.18,0.02-0.38,0.02-0.6c0-0.37-0.04-0.72-0.14-1.05
		s-0.23-0.61-0.42-0.86c-0.19-0.25-0.42-0.44-0.7-0.58c-0.28-0.14-0.62-0.22-1.02-0.22c-0.34,0-0.65,0.05-0.93,0.14
		c-0.28,0.1-0.56,0.26-0.83,0.5c-0.31,0.26-0.61,0.6-0.89,1.02c-0.28,0.43-0.48,0.92-0.6,1.49l-0.45,2.27
		c-0.05,0.27-0.05,0.54,0.01,0.83c0.06,0.29,0.18,0.55,0.36,0.79c0.18,0.24,0.43,0.44,0.75,0.59S32.32,69.33,32.8,69.33z"/>
	<path d="M40.08,68.59c0.15,0,0.25,0.03,0.31,0.1c0.06,0.06,0.09,0.13,0.09,0.21c0,0.04,0,0.1-0.02,0.16
		c-0.01,0.06-0.02,0.11-0.03,0.14c-0.05,0.21-0.13,0.44-0.24,0.68c-0.11,0.24-0.24,0.47-0.39,0.7c-0.16,0.23-0.32,0.45-0.5,0.66
		c-0.18,0.21-0.37,0.39-0.58,0.55h-0.34c0.48-0.41,0.85-0.81,1.1-1.22c0.26-0.41,0.43-0.76,0.51-1.06c-0.18,0-0.3-0.03-0.35-0.1
		c-0.05-0.06-0.08-0.13-0.08-0.21c0-0.04,0.01-0.09,0.02-0.15c0.01-0.06,0.02-0.1,0.03-0.14c0.02-0.09,0.06-0.16,0.13-0.23
		C39.81,68.63,39.92,68.59,40.08,68.59z"/>
	<path d="M56.24,69.44c-0.25,0-0.37-0.1-0.37-0.3c0-0.05,0-0.1,0.01-0.13c0-0.03,0.01-0.08,0.02-0.13l0.24-1.22h-0.05
		c-0.34,0.6-0.74,1.08-1.19,1.43c-0.45,0.36-1.02,0.54-1.7,0.54c-0.42,0-0.79-0.08-1.11-0.23s-0.6-0.37-0.82-0.63
		c-0.22-0.27-0.39-0.58-0.5-0.95s-0.17-0.77-0.17-1.19c0-0.74,0.09-1.43,0.26-2.1c0.18-0.66,0.43-1.24,0.77-1.74
		c0.34-0.5,0.75-0.9,1.25-1.19c0.5-0.29,1.06-0.44,1.7-0.44c0.68,0,1.23,0.16,1.65,0.46c0.42,0.31,0.7,0.71,0.85,1.22h0.05
		l0.29-1.49h0.34l-1.55,7.79h1.36l-0.06,0.3H56.24z M53.2,69.33c0.34,0,0.65-0.05,0.93-0.14s0.55-0.26,0.83-0.5
		c0.31-0.26,0.61-0.6,0.89-1.02c0.28-0.43,0.48-0.92,0.6-1.49l0.45-2.27c0.05-0.27,0.05-0.54-0.01-0.83s-0.18-0.55-0.36-0.79
		c-0.18-0.24-0.43-0.44-0.75-0.59c-0.32-0.15-0.72-0.23-1.2-0.23c-0.92,0-1.67,0.32-2.26,0.94c-0.59,0.63-0.98,1.47-1.18,2.53
		l-0.11,0.56c-0.03,0.18-0.06,0.36-0.07,0.54c-0.02,0.18-0.02,0.38-0.02,0.6c0,0.37,0.04,0.72,0.14,1.05s0.23,0.61,0.42,0.86
		c0.19,0.25,0.42,0.44,0.7,0.58C52.47,69.26,52.8,69.33,53.2,69.33z"/>
	<path d="M61.13,69.44l1.62-8.1h0.34l-0.34,1.68h0.05c0.32-0.61,0.71-1.07,1.16-1.39c0.45-0.32,1.02-0.48,1.69-0.48
		c0.68,0,1.21,0.18,1.57,0.55c0.36,0.37,0.54,0.89,0.54,1.56c0,0.16-0.01,0.33-0.03,0.52c-0.02,0.19-0.05,0.36-0.08,0.52l-0.96,4.83
		h1.36l-0.06,0.3h-1.25c-0.25,0-0.37-0.1-0.37-0.3c0-0.05,0-0.1,0.01-0.13c0-0.03,0.01-0.08,0.02-0.13l0.91-4.56
		c0.03-0.18,0.06-0.37,0.08-0.56c0.02-0.19,0.03-0.34,0.03-0.45c0-1.24-0.61-1.86-1.82-1.86c-0.36,0-0.73,0.07-1.1,0.22
		c-0.37,0.14-0.71,0.4-1.03,0.78c-0.18,0.21-0.37,0.48-0.57,0.8c-0.2,0.32-0.34,0.72-0.44,1.2l-0.99,4.99H61.13z"/>
	<path d="M77.25,69.44c-0.25,0-0.37-0.1-0.37-0.3c0-0.05,0-0.1,0.01-0.13c0-0.03,0.01-0.08,0.02-0.13l0.24-1.22H77.1
		c-0.34,0.6-0.74,1.08-1.19,1.43c-0.45,0.36-1.02,0.54-1.7,0.54c-0.42,0-0.79-0.08-1.11-0.23s-0.6-0.37-0.82-0.63
		c-0.22-0.27-0.39-0.58-0.5-0.95s-0.17-0.77-0.17-1.19c0-0.74,0.09-1.43,0.26-2.1c0.18-0.66,0.43-1.24,0.77-1.74
		c0.34-0.5,0.75-0.9,1.25-1.19c0.5-0.29,1.06-0.44,1.7-0.44c0.68,0,1.23,0.16,1.65,0.46c0.42,0.31,0.7,0.71,0.85,1.22h0.05
		l1.04-5.23h0.34l-2.3,11.54h1.36l-0.06,0.3H77.25z M74.21,69.33c0.34,0,0.65-0.05,0.93-0.14s0.55-0.26,0.83-0.5
		c0.31-0.26,0.61-0.6,0.89-1.02c0.28-0.43,0.48-0.92,0.6-1.49l0.45-2.27c0.05-0.27,0.05-0.54-0.01-0.83s-0.18-0.55-0.36-0.79
		c-0.18-0.24-0.43-0.44-0.75-0.59c-0.32-0.15-0.72-0.23-1.2-0.23c-0.92,0-1.67,0.32-2.26,0.94c-0.59,0.63-0.98,1.47-1.18,2.53
		l-0.11,0.56c-0.03,0.18-0.06,0.36-0.07,0.54c-0.02,0.18-0.02,0.38-0.02,0.6c0,0.37,0.04,0.72,0.14,1.05s0.23,0.61,0.42,0.86
		c0.19,0.25,0.42,0.44,0.7,0.58C73.47,69.26,73.81,69.33,74.21,69.33z"/>
	<path d="M87.42,69.44l0.06-0.32h3.5l2.1-10.59h-0.05l-4,2.9l-0.18-0.26l4.02-2.9h0.62l-2.16,10.85h3.38l-0.06,0.32H87.42z"/>
	<path d="M101.9,69.63c-1.91,0-2.86-1.23-2.86-3.7c0-0.53,0.04-1.1,0.11-1.69c0.08-0.59,0.2-1.18,0.36-1.76
		c0.17-0.58,0.38-1.14,0.63-1.67s0.56-1,0.92-1.41s0.77-0.73,1.24-0.97s1-0.36,1.58-0.36c1.91,0,2.86,1.23,2.86,3.7
		c0,0.53-0.04,1.1-0.11,1.69c-0.07,0.59-0.19,1.18-0.36,1.76c-0.17,0.58-0.38,1.14-0.63,1.67c-0.26,0.53-0.56,1-0.92,1.41
		s-0.77,0.73-1.24,0.97C103.02,69.51,102.49,69.63,101.9,69.63z M101.9,69.31c1.02,0,1.89-0.41,2.61-1.24
		c0.71-0.83,1.23-2.01,1.54-3.56l0.19-0.94c0.06-0.32,0.11-0.63,0.14-0.93c0.03-0.3,0.04-0.59,0.04-0.86c0-1.07-0.19-1.9-0.57-2.49
		c-0.38-0.59-1.03-0.89-1.96-0.89c-1.02,0-1.89,0.41-2.61,1.24c-0.71,0.83-1.23,2.01-1.54,3.56l-0.19,0.94
		c-0.06,0.32-0.11,0.63-0.14,0.93c-0.03,0.3-0.04,0.59-0.04,0.86c0,1.07,0.19,1.9,0.57,2.49C100.32,69.02,100.97,69.31,101.9,69.31z
		"/>
	<path d="M115.68,69.44c-0.25,0-0.37-0.1-0.37-0.3c0-0.05,0-0.1,0.01-0.13c0.01-0.03,0.01-0.08,0.02-0.13l1.52-7.54h0.34l-1.57,7.79
		h1.36l-0.06,0.3H115.68z M117.58,58.67c-0.12,0-0.2-0.03-0.25-0.08c-0.05-0.05-0.07-0.11-0.07-0.18c0-0.03,0-0.06,0.01-0.1
		c0.01-0.03,0.01-0.07,0.02-0.13c0.02-0.1,0.06-0.17,0.13-0.22c0.06-0.05,0.17-0.08,0.3-0.08c0.12,0,0.2,0.03,0.25,0.08
		c0.05,0.05,0.07,0.11,0.07,0.18c0,0.03,0,0.06-0.01,0.1c-0.01,0.03-0.01,0.08-0.02,0.13c-0.02,0.1-0.06,0.17-0.13,0.22
		C117.82,58.64,117.72,58.67,117.58,58.67z"/>
	<path d="M120.57,69.44l1.62-8.1h0.34l-0.34,1.68h0.05c0.32-0.61,0.71-1.07,1.16-1.39c0.45-0.32,1.02-0.48,1.69-0.48
		c0.68,0,1.21,0.18,1.57,0.55c0.36,0.37,0.54,0.89,0.54,1.56c0,0.16-0.01,0.33-0.03,0.52c-0.02,0.19-0.05,0.36-0.08,0.52l-0.96,4.83
		h1.36l-0.06,0.3h-1.25c-0.25,0-0.37-0.1-0.37-0.3c0-0.05,0-0.1,0.01-0.13c0-0.03,0.01-0.08,0.02-0.13l0.91-4.56
		c0.03-0.18,0.06-0.37,0.08-0.56c0.02-0.19,0.03-0.34,0.03-0.45c0-1.24-0.61-1.86-1.82-1.86c-0.36,0-0.73,0.07-1.1,0.22
		c-0.37,0.14-0.71,0.4-1.03,0.78c-0.18,0.21-0.37,0.48-0.57,0.8c-0.2,0.32-0.34,0.72-0.44,1.2l-0.99,4.99H120.57z"/>
	<path d="M133.64,69.63c-0.44,0-0.82-0.08-1.14-0.24c-0.32-0.16-0.59-0.38-0.81-0.66s-0.38-0.62-0.49-1s-0.16-0.81-0.16-1.26
		c0-0.75,0.08-1.44,0.25-2.09c0.17-0.64,0.41-1.21,0.74-1.69c0.33-0.48,0.73-0.86,1.21-1.13c0.48-0.27,1.03-0.41,1.65-0.41
		c0.64,0,1.17,0.17,1.59,0.51c0.42,0.34,0.69,0.78,0.81,1.33l-0.3,0.08c-0.12-0.52-0.37-0.92-0.74-1.2
		c-0.38-0.28-0.84-0.42-1.38-0.42c-0.82,0-1.52,0.29-2.1,0.86c-0.58,0.58-0.96,1.37-1.14,2.37l-0.14,0.78
		c-0.03,0.19-0.06,0.35-0.07,0.49c-0.02,0.13-0.02,0.3-0.02,0.5c0,0.39,0.04,0.76,0.13,1.11s0.22,0.65,0.41,0.91
		c0.19,0.26,0.42,0.47,0.7,0.62c0.28,0.15,0.63,0.22,1.03,0.22c0.63,0,1.18-0.17,1.65-0.5s0.89-0.79,1.26-1.35l0.27,0.14
		c-0.39,0.61-0.85,1.1-1.36,1.46C134.96,69.45,134.35,69.63,133.64,69.63z"/>
	<path d="M142.54,57.6h0.34l-1.07,5.42h0.05c0.32-0.61,0.71-1.07,1.16-1.39c0.45-0.32,1.02-0.48,1.69-0.48
		c0.68,0,1.21,0.18,1.57,0.55c0.36,0.37,0.54,0.89,0.54,1.56c0,0.16-0.01,0.33-0.03,0.52s-0.05,0.36-0.08,0.52l-0.96,4.83h1.36
		l-0.06,0.3h-1.25c-0.25,0-0.37-0.1-0.37-0.3c0-0.05,0-0.1,0.01-0.13c0.01-0.03,0.01-0.08,0.02-0.13l0.91-4.56
		c0.03-0.18,0.06-0.37,0.08-0.56c0.02-0.19,0.03-0.34,0.03-0.45c0-1.24-0.61-1.86-1.82-1.86c-0.36,0-0.73,0.07-1.1,0.22
		c-0.37,0.14-0.71,0.4-1.03,0.78c-0.18,0.21-0.37,0.48-0.57,0.8c-0.2,0.32-0.34,0.72-0.44,1.2l-0.99,4.99h-0.34L142.54,57.6z"/>
	<path d="M153.49,69.63c-0.91,0-1.6-0.26-2.09-0.77s-0.73-1.32-0.73-2.42c0-0.74,0.1-1.43,0.29-2.07c0.19-0.64,0.46-1.21,0.81-1.68
		s0.76-0.85,1.25-1.13s1.02-0.42,1.61-0.42c0.77,0,1.38,0.18,1.84,0.53c0.46,0.35,0.69,0.83,0.69,1.44c0,0.26-0.06,0.53-0.19,0.82
		c-0.13,0.29-0.4,0.57-0.82,0.82c-0.42,0.25-1.04,0.46-1.84,0.64c-0.8,0.18-1.88,0.28-3.24,0.31c-0.01,0.08-0.02,0.2-0.03,0.35
		S151,66.33,151,66.42c0,1.04,0.21,1.78,0.62,2.23c0.41,0.45,1.03,0.68,1.86,0.68c0.66,0,1.25-0.18,1.76-0.53
		c0.51-0.35,0.93-0.84,1.26-1.47l0.3,0.13c-0.41,0.76-0.89,1.31-1.46,1.66C154.78,69.46,154.16,69.63,153.49,69.63z M154.59,61.46
		c-0.45,0-0.86,0.09-1.25,0.27c-0.38,0.18-0.72,0.44-1.02,0.77s-0.54,0.72-0.74,1.17c-0.2,0.45-0.35,0.94-0.45,1.48l-0.05,0.27
		c1.2-0.02,2.17-0.1,2.91-0.24c0.75-0.14,1.33-0.32,1.74-0.53c0.42-0.21,0.7-0.46,0.84-0.72c0.14-0.27,0.22-0.54,0.22-0.8
		c0-0.49-0.17-0.89-0.52-1.2S155.37,61.46,154.59,61.46z"/>
	<path d="M162.54,69.63c-0.67,0-1.25-0.13-1.74-0.4s-0.9-0.66-1.24-1.17l0.29-0.19c0.61,0.97,1.5,1.46,2.69,1.46
		c0.75,0,1.35-0.18,1.8-0.54c0.45-0.36,0.68-0.88,0.68-1.55c0-0.26-0.04-0.47-0.11-0.65c-0.07-0.18-0.18-0.33-0.32-0.46
		c-0.14-0.13-0.31-0.24-0.51-0.32c-0.2-0.08-0.44-0.16-0.7-0.22l-0.8-0.21c-0.28-0.07-0.53-0.16-0.75-0.26
		c-0.22-0.1-0.42-0.23-0.58-0.38s-0.29-0.33-0.38-0.55s-0.14-0.48-0.14-0.79c0-0.37,0.07-0.7,0.22-0.98
		c0.14-0.28,0.34-0.51,0.58-0.7c0.24-0.19,0.52-0.33,0.85-0.42c0.33-0.1,0.67-0.14,1.03-0.14c0.35,0,0.66,0.04,0.93,0.1
		s0.5,0.16,0.71,0.28c0.21,0.12,0.39,0.25,0.54,0.41c0.15,0.16,0.29,0.31,0.41,0.47l-0.26,0.22c-0.22-0.32-0.51-0.6-0.86-0.83
		c-0.35-0.23-0.85-0.35-1.49-0.35c-0.7,0-1.27,0.17-1.69,0.5c-0.42,0.33-0.63,0.81-0.63,1.44c0,0.5,0.14,0.87,0.41,1.11
		c0.27,0.24,0.67,0.43,1.21,0.57l0.8,0.21c0.27,0.08,0.52,0.16,0.75,0.26c0.23,0.1,0.43,0.22,0.6,0.36c0.17,0.14,0.3,0.32,0.39,0.54
		c0.1,0.21,0.14,0.47,0.14,0.78c0,0.41-0.07,0.76-0.22,1.06c-0.14,0.3-0.34,0.55-0.6,0.75c-0.26,0.2-0.55,0.35-0.9,0.46
		C163.3,69.58,162.94,69.63,162.54,69.63z"/>
	<path d="M177.07,69.63c-0.43,0-0.8-0.08-1.14-0.22s-0.61-0.36-0.83-0.62c-0.22-0.27-0.39-0.57-0.51-0.92s-0.18-0.72-0.18-1.13
		c0-0.75,0.08-1.46,0.26-2.14c0.17-0.68,0.42-1.27,0.76-1.78s0.75-0.92,1.25-1.22s1.07-0.45,1.74-0.45c0.43,0,0.8,0.08,1.14,0.22
		c0.33,0.15,0.61,0.36,0.83,0.62c0.22,0.27,0.39,0.58,0.51,0.93c0.12,0.35,0.18,0.73,0.18,1.12c0,0.75-0.08,1.46-0.26,2.14
		s-0.42,1.27-0.76,1.78c-0.34,0.51-0.75,0.92-1.25,1.22S177.73,69.63,177.07,69.63z M177.1,69.33c0.91,0,1.65-0.31,2.23-0.93
		c0.58-0.62,0.98-1.47,1.19-2.56l0.13-0.64c0.03-0.18,0.05-0.37,0.06-0.55s0.02-0.39,0.02-0.6c0-0.35-0.04-0.69-0.14-1
		s-0.23-0.59-0.42-0.82s-0.44-0.42-0.74-0.56c-0.3-0.14-0.65-0.21-1.06-0.21c-0.91,0-1.65,0.31-2.23,0.93
		c-0.58,0.62-0.98,1.47-1.19,2.56l-0.13,0.64c-0.03,0.18-0.05,0.37-0.06,0.55s-0.02,0.39-0.02,0.6c0,0.35,0.04,0.69,0.14,1
		s0.23,0.59,0.42,0.82c0.19,0.23,0.44,0.42,0.74,0.56C176.34,69.26,176.7,69.33,177.1,69.33z"/>
	<path d="M184.46,72.11c-0.04,0.21-0.1,0.35-0.18,0.42s-0.22,0.1-0.45,0.1h-1.34l0.06-0.3h1.52l2.11-10.69h-1.6l0.06-0.3h1.6
		l0.62-3.22c0.04-0.21,0.1-0.35,0.18-0.42c0.07-0.07,0.22-0.1,0.45-0.1h1.5l-0.06,0.3h-1.68l-0.67,3.44h1.66l-0.06,0.3h-1.66
		L184.46,72.11z"/>
	<path d="M197.42,61.34h0.34l-0.35,1.78h0.05c0.34-0.6,0.74-1.07,1.19-1.43s1.02-0.54,1.7-0.54c0.42,0,0.79,0.08,1.11,0.23
		c0.33,0.15,0.6,0.37,0.82,0.63c0.22,0.27,0.39,0.58,0.5,0.95c0.11,0.37,0.17,0.77,0.17,1.19c0,0.74-0.09,1.43-0.26,2.1
		c-0.18,0.66-0.43,1.24-0.77,1.74c-0.34,0.5-0.75,0.9-1.25,1.19s-1.06,0.44-1.7,0.44c-0.68,0-1.23-0.16-1.65-0.46
		c-0.42-0.31-0.7-0.71-0.85-1.22h-0.05l-0.93,4.69h-0.34L197.42,61.34z M198.97,69.33c0.92,0,1.67-0.31,2.25-0.94
		c0.58-0.63,0.98-1.47,1.19-2.53l0.11-0.56c0.03-0.18,0.06-0.36,0.07-0.54c0.02-0.18,0.02-0.38,0.02-0.6c0-0.37-0.04-0.72-0.14-1.05
		s-0.23-0.61-0.42-0.86c-0.19-0.25-0.42-0.44-0.7-0.58c-0.28-0.14-0.62-0.22-1.02-0.22c-0.34,0-0.65,0.05-0.93,0.14
		c-0.28,0.1-0.56,0.26-0.83,0.5c-0.31,0.26-0.61,0.6-0.89,1.02c-0.28,0.43-0.48,0.92-0.6,1.49l-0.45,2.27
		c-0.05,0.27-0.05,0.54,0.01,0.83c0.06,0.29,0.18,0.55,0.36,0.79c0.18,0.24,0.43,0.44,0.75,0.59S198.49,69.33,198.97,69.33z"/>
	<path d="M209.1,69.63c-0.43,0-0.8-0.08-1.14-0.22s-0.61-0.36-0.83-0.62c-0.22-0.27-0.39-0.57-0.51-0.92s-0.18-0.72-0.18-1.13
		c0-0.75,0.08-1.46,0.26-2.14c0.17-0.68,0.42-1.27,0.76-1.78s0.75-0.92,1.25-1.22s1.07-0.45,1.74-0.45c0.43,0,0.8,0.08,1.14,0.22
		c0.33,0.15,0.61,0.36,0.83,0.62c0.22,0.27,0.39,0.58,0.51,0.93c0.12,0.35,0.18,0.73,0.18,1.12c0,0.75-0.08,1.46-0.26,2.14
		s-0.42,1.27-0.76,1.78c-0.34,0.51-0.75,0.92-1.25,1.22S209.76,69.63,209.1,69.63z M209.13,69.33c0.91,0,1.65-0.31,2.23-0.93
		c0.58-0.62,0.98-1.47,1.19-2.56l0.13-0.64c0.03-0.18,0.05-0.37,0.06-0.55s0.02-0.39,0.02-0.6c0-0.35-0.04-0.69-0.14-1
		s-0.23-0.59-0.42-0.82s-0.44-0.42-0.74-0.56c-0.3-0.14-0.65-0.21-1.06-0.21c-0.91,0-1.65,0.31-2.23,0.93
		c-0.58,0.62-0.98,1.47-1.19,2.56l-0.13,0.64c-0.03,0.18-0.05,0.37-0.06,0.55s-0.02,0.39-0.02,0.6c0,0.35,0.04,0.69,0.14,1
		s0.23,0.59,0.42,0.82c0.19,0.23,0.44,0.42,0.74,0.56C208.38,69.26,208.73,69.33,209.13,69.33z"/>
	<path d="M216.59,61.34h0.32l0.77,7.66h0.05l3.92-7.66H222l0.82,7.66h0.03l3.86-7.66h0.35l-4.1,8.1h-0.42l-0.78-7.55h-0.05
		l-3.87,7.55h-0.42L216.59,61.34z"/>
	<path d="M228.59,69.52c-0.16,0-0.27-0.03-0.33-0.1c-0.06-0.06-0.09-0.13-0.09-0.21c0-0.04,0.01-0.09,0.02-0.15
		c0.01-0.06,0.02-0.1,0.03-0.14c0.02-0.09,0.06-0.16,0.13-0.23c0.06-0.07,0.18-0.1,0.34-0.1c0.15,0,0.25,0.03,0.31,0.1
		c0.06,0.06,0.09,0.13,0.09,0.21c0,0.04,0,0.09-0.02,0.15s-0.02,0.1-0.03,0.14c-0.02,0.08-0.06,0.16-0.12,0.23
		C228.86,69.48,228.75,69.52,228.59,69.52z"/>
	<path d="M234.21,57.44c0.15,0,0.25,0.03,0.31,0.1c0.06,0.06,0.09,0.13,0.09,0.21c0,0.04,0,0.1-0.02,0.16
		c-0.01,0.06-0.02,0.11-0.03,0.14c-0.05,0.21-0.13,0.44-0.24,0.68s-0.24,0.47-0.39,0.7c-0.16,0.23-0.32,0.45-0.5,0.66
		c-0.18,0.21-0.37,0.39-0.58,0.55h-0.34c0.48-0.41,0.85-0.81,1.1-1.22c0.26-0.41,0.43-0.76,0.51-1.06c-0.18,0-0.3-0.03-0.35-0.1
		s-0.08-0.13-0.08-0.21c0-0.04,0.01-0.09,0.02-0.15c0.01-0.06,0.02-0.1,0.03-0.14c0.02-0.08,0.06-0.16,0.13-0.23
		C233.93,57.47,234.04,57.44,234.21,57.44z M236.76,57.44c0.15,0,0.25,0.03,0.31,0.1c0.06,0.06,0.09,0.13,0.09,0.21
		c0,0.04-0.01,0.1-0.02,0.16c-0.01,0.06-0.02,0.11-0.03,0.14c-0.05,0.21-0.13,0.44-0.24,0.68c-0.11,0.24-0.24,0.47-0.39,0.7
		c-0.15,0.23-0.32,0.45-0.5,0.66s-0.37,0.39-0.58,0.55h-0.34c0.48-0.41,0.85-0.81,1.1-1.22s0.43-0.76,0.51-1.06
		c-0.18,0-0.3-0.03-0.35-0.1c-0.05-0.06-0.08-0.13-0.08-0.21c0-0.04,0-0.09,0.02-0.15s0.02-0.1,0.03-0.14
		c0.02-0.08,0.06-0.16,0.13-0.23C236.49,57.47,236.6,57.44,236.76,57.44z"/>
</g>
</svg>
