<!-- Generator: Adobe Illustrator 23.1.1, SVG Export Plug-In  -->
<svg version="1.1" xmlns="http://www.w3.org/2000/svg" xmlns:xlink="http://www.w3.org/1999/xlink" x="0px" y="0px" width="116.5px"
	 height="11.55px" viewBox="0 0 116.5 11.55" style="enable-background:new 0 0 116.5 11.55;" xml:space="preserve">
<defs>
</defs>
<g>
	<path d="M4.5,11.55c-1.42,0-2.52-0.48-3.31-1.45S0,7.72,0,5.84s0.39-3.32,1.18-4.33C1.97,0.5,3.08,0,4.5,0
		c0.94,0,1.73,0.21,2.36,0.63c0.63,0.42,1.13,1.02,1.48,1.8L7.25,3.09C7.02,2.51,6.68,2.05,6.22,1.7S5.19,1.18,4.5,1.18
		c-0.48,0-0.91,0.09-1.29,0.27C2.83,1.64,2.51,1.9,2.25,2.24c-0.26,0.34-0.46,0.74-0.6,1.2C1.51,3.91,1.44,4.43,1.44,5v1.67
		c0,1.16,0.27,2.06,0.8,2.71c0.53,0.65,1.29,0.98,2.26,0.98c0.71,0,1.31-0.18,1.79-0.55s0.83-0.86,1.06-1.46l1.07,0.67
		c-0.35,0.79-0.86,1.41-1.52,1.86C6.23,11.33,5.43,11.55,4.5,11.55z"/>
	<path d="M17.18,11.55c-0.73,0-1.38-0.13-1.96-0.38c-0.58-0.25-1.08-0.62-1.49-1.1s-0.73-1.09-0.95-1.81
		c-0.22-0.72-0.34-1.55-0.34-2.49c0-0.94,0.11-1.77,0.34-2.48c0.22-0.71,0.54-1.32,0.95-1.81c0.41-0.49,0.91-0.86,1.49-1.11
		C15.81,0.13,16.46,0,17.18,0c0.71,0,1.37,0.13,1.95,0.38c0.59,0.25,1.08,0.62,1.5,1.11c0.41,0.49,0.73,1.09,0.95,1.81
		c0.22,0.71,0.34,1.54,0.34,2.48c0,0.94-0.11,1.77-0.34,2.49c-0.22,0.72-0.54,1.32-0.95,1.81s-0.91,0.85-1.5,1.1
		C18.55,11.43,17.9,11.55,17.18,11.55z M17.18,10.37c0.48,0,0.92-0.09,1.33-0.26c0.41-0.17,0.75-0.42,1.05-0.74
		c0.29-0.32,0.52-0.71,0.68-1.16c0.16-0.45,0.24-0.95,0.24-1.51V4.84c0-0.56-0.08-1.06-0.24-1.51c-0.16-0.45-0.39-0.83-0.68-1.16
		c-0.29-0.32-0.64-0.57-1.05-0.74c-0.41-0.17-0.85-0.26-1.33-0.26s-0.92,0.09-1.33,0.26s-0.75,0.42-1.05,0.74
		c-0.29,0.32-0.52,0.71-0.68,1.16c-0.16,0.45-0.24,0.95-0.24,1.51v1.86c0,0.56,0.08,1.06,0.24,1.51c0.16,0.45,0.39,0.83,0.68,1.16
		c0.29,0.32,0.64,0.57,1.05,0.74C16.26,10.28,16.7,10.37,17.18,10.37z"/>
	<path d="M27.06,11.36V0.19h1.34v9.98h4.75v1.18H27.06z"/>
	<path d="M37.79,11.36V0.19h1.34v9.98h4.75v1.18H37.79z"/>
	<path d="M48.53,11.36V0.19h6.82v1.18h-5.47v3.74h5.15V6.3h-5.15v3.87h5.47v1.18H48.53z"/>
	<path d="M64.51,11.55c-1.42,0-2.52-0.48-3.31-1.45s-1.18-2.39-1.18-4.26s0.39-3.32,1.18-4.33C61.99,0.5,63.09,0,64.51,0
		c0.94,0,1.73,0.21,2.36,0.63c0.63,0.42,1.13,1.02,1.48,1.8l-1.09,0.66c-0.22-0.58-0.57-1.04-1.02-1.38s-1.03-0.52-1.73-0.52
		c-0.48,0-0.91,0.09-1.29,0.27c-0.38,0.18-0.7,0.44-0.96,0.78c-0.26,0.34-0.46,0.74-0.6,1.2C61.52,3.91,61.46,4.43,61.46,5v1.67
		c0,1.16,0.27,2.06,0.8,2.71c0.53,0.65,1.29,0.98,2.26,0.98c0.71,0,1.31-0.18,1.79-0.55s0.83-0.86,1.06-1.46l1.07,0.67
		c-0.35,0.79-0.86,1.41-1.52,1.86C66.25,11.33,65.45,11.55,64.51,11.55z"/>
	<path d="M76.99,1.38v9.98h-1.34V1.38h-3.55V0.19h8.45v1.18H76.99z"/>
	<path d="M84.46,11.36v-1.12h1.57V1.31h-1.57V0.19h4.48v1.12h-1.57v8.93h1.57v1.12H84.46z"/>
	<path d="M98.29,11.55c-0.73,0-1.38-0.13-1.96-0.38c-0.58-0.25-1.08-0.62-1.49-1.1s-0.73-1.09-0.95-1.81
		c-0.22-0.72-0.34-1.55-0.34-2.49c0-0.94,0.11-1.77,0.34-2.48c0.22-0.71,0.54-1.32,0.95-1.81c0.41-0.49,0.91-0.86,1.49-1.11
		C96.91,0.13,97.56,0,98.29,0c0.71,0,1.37,0.13,1.95,0.38c0.59,0.25,1.08,0.62,1.5,1.11c0.41,0.49,0.73,1.09,0.95,1.81
		c0.22,0.71,0.34,1.54,0.34,2.48c0,0.94-0.11,1.77-0.34,2.49c-0.22,0.72-0.54,1.32-0.95,1.81s-0.91,0.85-1.5,1.1
		C99.65,11.43,99,11.55,98.29,11.55z M98.29,10.37c0.48,0,0.92-0.09,1.33-0.26c0.41-0.17,0.75-0.42,1.05-0.74
		c0.29-0.32,0.52-0.71,0.68-1.16c0.16-0.45,0.24-0.95,0.24-1.51V4.84c0-0.56-0.08-1.06-0.24-1.51c-0.16-0.45-0.39-0.83-0.68-1.16
		c-0.29-0.32-0.64-0.57-1.05-0.74c-0.41-0.17-0.85-0.26-1.33-0.26s-0.92,0.09-1.33,0.26s-0.75,0.42-1.05,0.74
		c-0.29,0.32-0.52,0.71-0.68,1.16c-0.16,0.45-0.24,0.95-0.24,1.51v1.86c0,0.56,0.08,1.06,0.24,1.51c0.16,0.45,0.39,0.83,0.68,1.16
		c0.29,0.32,0.64,0.57,1.05,0.74C97.36,10.28,97.81,10.37,98.29,10.37z"/>
	<path d="M110.86,4.54l-1.34-2.48h-0.05v9.3h-1.31V0.19h1.55l4.08,6.82l1.34,2.48h0.05v-9.3h1.31v11.17h-1.55L110.86,4.54z"/>
</g>
</svg>
