<!-- Generator: Adobe Illustrator 23.1.1, SVG Export Plug-In  -->
<svg version="1.1" xmlns="http://www.w3.org/2000/svg" xmlns:xlink="http://www.w3.org/1999/xlink" x="0px" y="0px"
	 width="112.68px" height="8.66px" viewBox="0 0 112.68 8.66" style="enable-background:new 0 0 112.68 8.66;" xml:space="preserve"
	>
<style type="text/css">
	.st0{fill:url(#SVGID_1_);}
	.st1{fill:url(#SVGID_2_);}
	.st2{fill:url(#SVGID_3_);}
	.st3{fill:url(#SVGID_4_);}
	.st4{fill:url(#SVGID_5_);}
	.st5{fill:url(#SVGID_6_);}
	.st6{fill:url(#SVGID_7_);}
	.st7{fill:url(#SVGID_8_);}
	.st8{fill:url(#SVGID_9_);}
	.st9{fill:url(#SVGID_10_);}
	.st10{fill:url(#SVGID_11_);}
	.st11{fill:url(#SVGID_12_);}
	.st12{fill:url(#SVGID_13_);}
	.st13{fill:url(#SVGID_14_);}
	.st14{fill:url(#SVGID_15_);}
	.st15{fill:url(#SVGID_16_);}
	.st16{fill:url(#SVGID_17_);}
	.st17{fill:url(#SVGID_18_);}
	.st18{fill:url(#SVGID_19_);}
	.st19{fill:url(#SVGID_20_);}
	.st20{fill:url(#SVGID_21_);}
	.st21{fill:url(#SVGID_22_);}
	.st22{fill:url(#SVGID_23_);}
	.st23{fill:url(#SVGID_24_);}
	.st24{fill:url(#SVGID_25_);}
	.st25{fill:url(#SVGID_26_);}
	.st26{fill:url(#SVGID_27_);}
	.st27{fill:url(#SVGID_28_);}
</style>
<defs>
</defs>
<g>
	<linearGradient id="SVGID_1_" gradientUnits="userSpaceOnUse" x1="0" y1="4.3315" x2="7.9805" y2="4.3315">
		<stop  offset="0.2814" style="stop-color:#F84C1E"/>
		<stop  offset="1" style="stop-color:#1E1E1E"/>
	</linearGradient>
	<path class="st0" d="M6.26,3.02H6.23L5.62,4.25L3.98,7.21l-1.6-2.95L1.75,2.94H1.72v5.58H0V0.14h1.93l2.05,3.92h0.02l2.03-3.92
		h1.94v8.38H6.26V3.02z"/>
	<linearGradient id="SVGID_2_" gradientUnits="userSpaceOnUse" x1="9.7803" y1="4.4033" x2="16.3564" y2="4.4033">
		<stop  offset="0.2814" style="stop-color:#F84C1E"/>
		<stop  offset="1" style="stop-color:#1E1E1E"/>
	</linearGradient>
	<path class="st1" d="M11.56,0.14v5.14c0,0.59,0.12,1.03,0.35,1.33s0.62,0.44,1.16,0.44S14,6.9,14.23,6.61
		c0.23-0.29,0.35-0.73,0.35-1.33V0.14h1.78v4.94c0,0.62-0.06,1.15-0.17,1.6c-0.12,0.45-0.31,0.82-0.57,1.12s-0.6,0.51-1.02,0.65
		c-0.42,0.14-0.92,0.21-1.52,0.21s-1.11-0.07-1.52-0.21c-0.42-0.14-0.76-0.36-1.02-0.65s-0.45-0.66-0.57-1.12S9.78,5.7,9.78,5.09
		V0.14H11.56z"/>
	<linearGradient id="SVGID_3_" gradientUnits="userSpaceOnUse" x1="17.6885" y1="4.3315" x2="24.1328" y2="4.3315">
		<stop  offset="0.2814" style="stop-color:#F84C1E"/>
		<stop  offset="1" style="stop-color:#1E1E1E"/>
	</linearGradient>
	<path class="st2" d="M20.87,8.66c-0.74,0-1.36-0.13-1.87-0.38s-0.95-0.58-1.31-0.98l1.2-1.21c0.57,0.63,1.27,0.95,2.1,0.95
		c0.45,0,0.78-0.09,1-0.27c0.22-0.18,0.32-0.42,0.32-0.73c0-0.23-0.06-0.42-0.19-0.58s-0.39-0.26-0.78-0.32l-0.83-0.11
		c-0.89-0.11-1.54-0.38-1.95-0.8c-0.41-0.42-0.62-0.99-0.62-1.69c0-0.38,0.07-0.72,0.22-1.03c0.14-0.31,0.35-0.58,0.62-0.81
		c0.27-0.22,0.6-0.4,0.98-0.52C20.15,0.06,20.59,0,21.08,0c0.63,0,1.19,0.1,1.67,0.3c0.48,0.2,0.89,0.49,1.24,0.88L22.78,2.4
		c-0.2-0.23-0.44-0.42-0.73-0.56c-0.28-0.15-0.64-0.22-1.07-0.22c-0.41,0-0.71,0.07-0.91,0.21s-0.3,0.34-0.3,0.59
		c0,0.29,0.08,0.49,0.23,0.62c0.16,0.13,0.41,0.22,0.76,0.27l0.83,0.13c0.86,0.14,1.5,0.4,1.92,0.8c0.42,0.4,0.62,0.96,0.62,1.69
		c0,0.4-0.07,0.77-0.22,1.11c-0.14,0.34-0.35,0.62-0.63,0.87c-0.28,0.24-0.62,0.43-1.03,0.56C21.85,8.6,21.39,8.66,20.87,8.66z"/>
	<linearGradient id="SVGID_4_" gradientUnits="userSpaceOnUse" x1="24.7686" y1="4.3315" x2="31.1279" y2="4.3315">
		<stop  offset="0.2814" style="stop-color:#F84C1E"/>
		<stop  offset="1" style="stop-color:#1E1E1E"/>
	</linearGradient>
	<path class="st3" d="M28.86,1.76v6.76h-1.82V1.76h-2.27V0.14h6.36v1.62H28.86z"/>
	<linearGradient id="SVGID_5_" gradientUnits="userSpaceOnUse" x1="30.9131" y1="4.3315" x2="38.6533" y2="4.3315">
		<stop  offset="0.2814" style="stop-color:#F84C1E"/>
		<stop  offset="1" style="stop-color:#1E1E1E"/>
	</linearGradient>
	<path class="st4" d="M36.76,8.52l-0.6-1.99h-2.8l-0.6,1.99h-1.85l2.76-8.38h2.26l2.72,8.38H36.76z M34.78,1.8h-0.06l-0.92,3.18
		h1.92L34.78,1.8z"/>
	<linearGradient id="SVGID_6_" gradientUnits="userSpaceOnUse" x1="39.1318" y1="4.3315" x2="45.9961" y2="4.3315">
		<stop  offset="0.2814" style="stop-color:#F84C1E"/>
		<stop  offset="1" style="stop-color:#1E1E1E"/>
	</linearGradient>
	<path class="st5" d="M42.84,8.66c-0.57,0-1.08-0.09-1.54-0.27c-0.46-0.18-0.84-0.45-1.16-0.8c-0.32-0.36-0.57-0.8-0.74-1.33
		c-0.18-0.53-0.26-1.15-0.26-1.87c0-0.7,0.09-1.33,0.26-1.88c0.18-0.55,0.42-1.01,0.74-1.38c0.32-0.37,0.71-0.65,1.16-0.85
		C41.76,0.1,42.27,0,42.84,0c0.78,0,1.42,0.16,1.92,0.47c0.5,0.32,0.91,0.81,1.21,1.49L44.4,2.78c-0.11-0.35-0.29-0.63-0.52-0.85
		c-0.24-0.21-0.58-0.32-1.04-0.32c-0.54,0-0.97,0.17-1.29,0.52C41.23,2.49,41.06,3,41.06,3.66V5c0,0.66,0.16,1.17,0.49,1.52
		c0.32,0.35,0.75,0.52,1.29,0.52c0.45,0,0.81-0.12,1.07-0.37c0.27-0.24,0.47-0.54,0.59-0.88L46,6.66c-0.31,0.64-0.72,1.13-1.23,1.48
		C44.26,8.49,43.62,8.66,42.84,8.66z"/>
	<linearGradient id="SVGID_7_" gradientUnits="userSpaceOnUse" x1="47.2676" y1="4.3315" x2="54.1074" y2="4.3315">
		<stop  offset="0.2814" style="stop-color:#F84C1E"/>
		<stop  offset="1" style="stop-color:#1E1E1E"/>
	</linearGradient>
	<path class="st6" d="M52.28,5.09h-3.19v3.43h-1.82V0.14h1.82v3.32h3.19V0.14h1.82v8.38h-1.82V5.09z"/>
	<linearGradient id="SVGID_8_" gradientUnits="userSpaceOnUse" x1="55.9551" y1="4.3315" x2="61.6553" y2="4.3315">
		<stop  offset="0.2814" style="stop-color:#F84C1E"/>
		<stop  offset="1" style="stop-color:#1E1E1E"/>
	</linearGradient>
	<path class="st7" d="M55.96,8.52V0.14h5.7v1.62h-3.88v1.7h3.32v1.62h-3.32V6.9h3.88v1.62H55.96z"/>
	<linearGradient id="SVGID_9_" gradientUnits="userSpaceOnUse" x1="66.0713" y1="4.3315" x2="72.6953" y2="4.3315">
		<stop  offset="0.2814" style="stop-color:#F84C1E"/>
		<stop  offset="1" style="stop-color:#1E1E1E"/>
	</linearGradient>
	<path class="st8" d="M67.9,8.52h-1.82V0.14h3.97c0.38,0,0.73,0.06,1.04,0.19c0.31,0.13,0.58,0.31,0.8,0.55
		c0.22,0.24,0.39,0.52,0.51,0.85s0.18,0.69,0.18,1.09c0,0.57-0.13,1.06-0.38,1.49s-0.63,0.73-1.15,0.92l1.64,3.29h-2.03L69.2,5.45
		H67.9V8.52z M69.82,3.91c0.27,0,0.49-0.07,0.64-0.21c0.16-0.14,0.23-0.35,0.23-0.62V2.56c0-0.27-0.08-0.48-0.23-0.62
		c-0.16-0.14-0.37-0.21-0.64-0.21H67.9v2.18H69.82z"/>
	<linearGradient id="SVGID_10_" gradientUnits="userSpaceOnUse" x1="73.7148" y1="4.3315" x2="81.083" y2="4.3315">
		<stop  offset="0.2814" style="stop-color:#F84C1E"/>
		<stop  offset="1" style="stop-color:#1E1E1E"/>
	</linearGradient>
	<path class="st9" d="M77.4,8.66c-0.55,0-1.06-0.09-1.51-0.28c-0.46-0.18-0.84-0.46-1.16-0.82c-0.32-0.36-0.57-0.82-0.74-1.36
		c-0.18-0.54-0.26-1.17-0.26-1.88c0-0.71,0.09-1.34,0.26-1.88c0.18-0.54,0.42-0.99,0.74-1.36c0.32-0.36,0.71-0.64,1.16-0.82
		C76.34,0.09,76.85,0,77.4,0s1.06,0.09,1.51,0.28c0.46,0.18,0.84,0.46,1.16,0.82s0.57,0.82,0.74,1.36s0.26,1.17,0.26,1.88
		c0,0.71-0.09,1.34-0.26,1.88S80.4,7.2,80.08,7.57s-0.71,0.64-1.16,0.82C78.46,8.57,77.95,8.66,77.4,8.66z M77.4,7.04
		c0.55,0,0.98-0.18,1.29-0.54c0.31-0.36,0.46-0.88,0.46-1.55V3.71c0-0.67-0.15-1.19-0.46-1.55c-0.31-0.36-0.74-0.54-1.29-0.54
		s-0.98,0.18-1.29,0.54c-0.31,0.36-0.46,0.88-0.46,1.55v1.25c0,0.67,0.15,1.19,0.46,1.55C76.42,6.86,76.85,7.04,77.4,7.04z"/>
	<linearGradient id="SVGID_11_" gradientUnits="userSpaceOnUse" x1="82.2822" y1="4.3315" x2="89.1465" y2="4.3315">
		<stop  offset="0.2814" style="stop-color:#F84C1E"/>
		<stop  offset="1" style="stop-color:#1E1E1E"/>
	</linearGradient>
	<path class="st10" d="M85.99,8.66c-0.57,0-1.08-0.09-1.54-0.27c-0.46-0.18-0.84-0.45-1.16-0.8c-0.32-0.36-0.57-0.8-0.74-1.33
		c-0.18-0.53-0.26-1.15-0.26-1.87c0-0.7,0.09-1.33,0.26-1.88c0.18-0.55,0.42-1.01,0.74-1.38c0.32-0.37,0.71-0.65,1.16-0.85
		C84.91,0.1,85.42,0,85.99,0c0.78,0,1.42,0.16,1.92,0.47c0.5,0.32,0.91,0.81,1.21,1.49l-1.57,0.82c-0.11-0.35-0.29-0.63-0.52-0.85
		c-0.24-0.21-0.58-0.32-1.04-0.32c-0.54,0-0.97,0.17-1.29,0.52C84.38,2.49,84.21,3,84.21,3.66V5c0,0.66,0.16,1.17,0.49,1.52
		c0.32,0.35,0.75,0.52,1.29,0.52c0.45,0,0.81-0.12,1.07-0.37c0.27-0.24,0.47-0.54,0.59-0.88l1.49,0.86
		c-0.31,0.64-0.72,1.13-1.23,1.48C87.41,8.49,86.77,8.66,85.99,8.66z"/>
	<linearGradient id="SVGID_12_" gradientUnits="userSpaceOnUse" x1="90.418" y1="4.3315" x2="97.7021" y2="4.3315">
		<stop  offset="0.2814" style="stop-color:#F84C1E"/>
		<stop  offset="1" style="stop-color:#1E1E1E"/>
	</linearGradient>
	<path class="st11" d="M93.33,4.87l-1.09,1.32v2.33h-1.82V0.14h1.82v3.98h0.07l1.19-1.62l1.88-2.36h2.06l-2.82,3.44l3.07,4.93h-2.15
		L93.33,4.87z"/>
	<linearGradient id="SVGID_13_" gradientUnits="userSpaceOnUse" x1="98.7695" y1="4.3315" x2="104.4697" y2="4.3315">
		<stop  offset="0.2814" style="stop-color:#F84C1E"/>
		<stop  offset="1" style="stop-color:#1E1E1E"/>
	</linearGradient>
	<path class="st12" d="M98.77,8.52V0.14h5.7v1.62h-3.88v1.7h3.32v1.62h-3.32V6.9h3.88v1.62H98.77z"/>
	<linearGradient id="SVGID_14_" gradientUnits="userSpaceOnUse" x1="106.0537" y1="4.3315" x2="112.6777" y2="4.3315">
		<stop  offset="0.2814" style="stop-color:#F84C1E"/>
		<stop  offset="1" style="stop-color:#1E1E1E"/>
	</linearGradient>
	<path class="st13" d="M107.88,8.52h-1.82V0.14h3.97c0.38,0,0.73,0.06,1.04,0.19c0.31,0.13,0.58,0.31,0.8,0.55
		c0.22,0.24,0.39,0.52,0.51,0.85s0.18,0.69,0.18,1.09c0,0.57-0.13,1.06-0.38,1.49s-0.63,0.73-1.15,0.92l1.64,3.29h-2.03l-1.46-3.07
		h-1.31V8.52z M109.8,3.91c0.27,0,0.49-0.07,0.64-0.21c0.16-0.14,0.23-0.35,0.23-0.62V2.56c0-0.27-0.08-0.48-0.23-0.62
		c-0.16-0.14-0.37-0.21-0.64-0.21h-1.92v2.18H109.8z"/>
</g>
</svg>
