<!-- Generator: Adobe Illustrator 23.1.1, SVG Export Plug-In  -->
<svg version="1.1" xmlns="http://www.w3.org/2000/svg" xmlns:xlink="http://www.w3.org/1999/xlink" x="0px" y="0px" width="72.08px"
	 height="12.1px" viewBox="0 0 72.08 12.1" style="enable-background:new 0 0 72.08 12.1;" xml:space="preserve">
<style type="text/css">
	.st0{fill:#FFFFFF;}
</style>
<defs>
</defs>
<g>
	<path class="st0" d="M0,11.9V3.58h1.74v1.38h0.08c0.08-0.21,0.19-0.42,0.31-0.61c0.12-0.19,0.27-0.36,0.45-0.5
		C2.76,3.7,2.97,3.59,3.21,3.51s0.52-0.12,0.84-0.12c0.57,0,1.07,0.14,1.5,0.42s0.76,0.7,0.96,1.28h0.05C6.71,4.62,7,4.22,7.42,3.89
		c0.43-0.33,0.98-0.5,1.65-0.5c0.83,0,1.48,0.28,1.94,0.84c0.46,0.56,0.69,1.36,0.69,2.39v5.28H9.95V6.83
		c0-0.64-0.12-1.12-0.37-1.45C9.34,5.06,8.95,4.9,8.42,4.9c-0.22,0-0.44,0.03-0.64,0.09c-0.2,0.06-0.38,0.15-0.54,0.26
		C7.08,5.37,6.96,5.51,6.86,5.7c-0.1,0.18-0.14,0.39-0.14,0.62v5.58H4.98V6.83c0-1.29-0.51-1.94-1.52-1.94
		c-0.21,0-0.42,0.03-0.63,0.09S2.43,5.13,2.27,5.25C2.11,5.37,1.98,5.51,1.89,5.7c-0.1,0.18-0.14,0.39-0.14,0.62v5.58H0z"/>
	<path class="st0" d="M17.38,12.1c-0.58,0-1.1-0.1-1.58-0.3c-0.47-0.2-0.88-0.49-1.21-0.87c-0.33-0.38-0.59-0.84-0.77-1.38
		c-0.18-0.54-0.27-1.14-0.27-1.8c0-0.66,0.09-1.26,0.27-1.8c0.18-0.54,0.44-1,0.77-1.38c0.33-0.38,0.73-0.67,1.21-0.87
		c0.47-0.2,1-0.3,1.58-0.3s1.1,0.1,1.58,0.3c0.47,0.2,0.88,0.49,1.21,0.87s0.59,0.84,0.77,1.38c0.18,0.54,0.27,1.14,0.27,1.8
		c0,0.66-0.09,1.26-0.27,1.8c-0.18,0.54-0.44,1-0.77,1.38c-0.33,0.38-0.73,0.67-1.21,0.87C18.48,12,17.95,12.1,17.38,12.1z
		 M17.38,10.64c0.6,0,1.08-0.18,1.44-0.55c0.36-0.37,0.54-0.91,0.54-1.65v-1.4c0-0.73-0.18-1.28-0.54-1.65
		c-0.36-0.37-0.84-0.55-1.44-0.55S16.3,5.03,15.94,5.4c-0.36,0.37-0.54,0.92-0.54,1.65v1.4c0,0.73,0.18,1.28,0.54,1.65
		C16.3,10.46,16.78,10.64,17.38,10.64z"/>
	<path class="st0" d="M28.17,10.53h-0.06c-0.07,0.2-0.17,0.4-0.3,0.59c-0.12,0.19-0.28,0.36-0.46,0.5
		c-0.19,0.14-0.41,0.26-0.67,0.34c-0.26,0.08-0.56,0.13-0.9,0.13c-0.86,0-1.53-0.28-2.01-0.83s-0.71-1.35-0.71-2.38v-5.3h1.74v5.07
		c0,1.29,0.53,1.94,1.6,1.94c0.22,0,0.44-0.03,0.66-0.09c0.21-0.06,0.4-0.15,0.57-0.26c0.17-0.12,0.3-0.27,0.4-0.45
		c0.1-0.18,0.15-0.39,0.15-0.64V3.58h1.74v8.32h-1.74V10.53z"/>
	<path class="st0" d="M32.41,11.9V3.58h1.74v1.38h0.08c0.18-0.45,0.46-0.82,0.82-1.12c0.37-0.3,0.87-0.45,1.51-0.45
		c0.85,0,1.52,0.28,1.99,0.84c0.47,0.56,0.71,1.36,0.71,2.39v5.28h-1.74V6.85c0-1.3-0.52-1.95-1.57-1.95
		c-0.22,0-0.45,0.03-0.66,0.09s-0.41,0.15-0.58,0.26c-0.17,0.12-0.31,0.27-0.41,0.45c-0.1,0.18-0.15,0.39-0.15,0.64v5.57H32.41z"/>
	<path class="st0" d="M44,11.9c-0.61,0-1.07-0.16-1.38-0.47s-0.46-0.76-0.46-1.34V5.01h-1.3V3.58h0.7c0.29,0,0.49-0.06,0.6-0.19
		c0.11-0.13,0.17-0.34,0.17-0.62V1.31h1.57v2.27h1.74v1.42H43.9v5.47h1.62v1.42H44z"/>
	<path class="st0" d="M53.63,11.9c-0.46,0-0.81-0.13-1.06-0.39c-0.25-0.26-0.39-0.59-0.45-1h-0.08c-0.16,0.52-0.45,0.92-0.88,1.18
		s-0.94,0.4-1.55,0.4c-0.86,0-1.53-0.22-1.99-0.67c-0.46-0.45-0.7-1.05-0.7-1.81c0-0.83,0.3-1.46,0.9-1.87s1.49-0.62,2.65-0.62h1.5
		v-0.7c0-0.51-0.14-0.91-0.42-1.18s-0.71-0.42-1.3-0.42c-0.49,0-0.89,0.11-1.2,0.32c-0.31,0.21-0.57,0.49-0.78,0.82l-1.04-0.94
		c0.28-0.47,0.67-0.86,1.17-1.16c0.5-0.3,1.16-0.46,1.97-0.46c1.08,0,1.9,0.25,2.48,0.75c0.58,0.5,0.86,1.22,0.86,2.16v4.18h0.88
		v1.42H53.63z M50.11,10.77c0.54,0,0.99-0.12,1.34-0.36s0.53-0.56,0.53-0.97v-1.2h-1.47c-1.21,0-1.81,0.37-1.81,1.12v0.29
		c0,0.37,0.12,0.65,0.38,0.84S49.67,10.77,50.11,10.77z"/>
	<path class="st0" d="M57.2,2.1c-0.36,0-0.63-0.09-0.79-0.26c-0.17-0.17-0.25-0.39-0.25-0.66V0.91c0-0.27,0.08-0.49,0.25-0.66
		C56.57,0.09,56.83,0,57.2,0s0.62,0.09,0.78,0.26c0.16,0.17,0.24,0.39,0.24,0.66v0.27c0,0.27-0.08,0.49-0.24,0.66
		C57.82,2.01,57.56,2.1,57.2,2.1z M56.32,3.58h1.74v8.32h-1.74V3.58z"/>
	<path class="st0" d="M60.56,11.9V3.58h1.74v1.38h0.08c0.18-0.45,0.46-0.82,0.82-1.12c0.37-0.3,0.87-0.45,1.51-0.45
		c0.85,0,1.52,0.28,1.99,0.84c0.47,0.56,0.71,1.36,0.71,2.39v5.28h-1.74V6.85c0-1.3-0.52-1.95-1.57-1.95
		c-0.22,0-0.45,0.03-0.66,0.09s-0.41,0.15-0.58,0.26c-0.17,0.12-0.31,0.27-0.41,0.45c-0.1,0.18-0.15,0.39-0.15,0.64v5.57H60.56z"/>
	<path class="st0" d="M70.91,12.1c-0.4,0-0.69-0.1-0.88-0.31c-0.19-0.21-0.29-0.47-0.29-0.78v-0.24c0-0.31,0.1-0.57,0.29-0.78
		c0.19-0.21,0.48-0.31,0.88-0.31c0.39,0,0.69,0.1,0.88,0.31c0.19,0.21,0.29,0.47,0.29,0.78v0.24c0,0.31-0.1,0.57-0.29,0.78
		C71.6,11.99,71.3,12.1,70.91,12.1z"/>
</g>
</svg>
