<!-- Generator: Adobe Illustrator 23.1.1, SVG Export Plug-In  -->
<svg version="1.1" xmlns="http://www.w3.org/2000/svg" xmlns:xlink="http://www.w3.org/1999/xlink" x="0px" y="0px" width="30.99px"
	 height="8.7px" viewBox="0 0 30.99 8.7" style="enable-background:new 0 0 30.99 8.7;" xml:space="preserve">
<style type="text/css">
	.st0{fill:#FFFFFF;}
</style>
<defs>
</defs>
<g>
	<path class="st0" d="M3.82,8.7c-0.58,0-1.1-0.1-1.58-0.3C1.77,8.2,1.37,7.91,1.04,7.53C0.71,7.15,0.45,6.69,0.27,6.15
		S0,5.01,0,4.35c0-0.66,0.09-1.26,0.27-1.8s0.44-1,0.77-1.38C1.37,0.8,1.77,0.51,2.25,0.3S3.25,0,3.82,0s1.1,0.1,1.58,0.3
		S6.28,0.8,6.61,1.18c0.33,0.38,0.59,0.84,0.77,1.38c0.18,0.54,0.27,1.14,0.27,1.8c0,0.66-0.09,1.26-0.27,1.8
		c-0.18,0.54-0.44,1-0.77,1.38S5.87,8.2,5.4,8.4C4.92,8.6,4.4,8.7,3.82,8.7z M3.82,7.25c0.6,0,1.08-0.18,1.44-0.55
		c0.36-0.37,0.54-0.91,0.54-1.65v-1.4c0-0.73-0.18-1.28-0.54-1.65C4.9,1.64,4.42,1.46,3.82,1.46S2.75,1.64,2.38,2.01
		C2.02,2.37,1.84,2.92,1.84,3.65v1.4c0,0.73,0.18,1.28,0.54,1.65C2.75,7.07,3.23,7.25,3.82,7.25z"/>
	<path class="st0" d="M11.26,8.51L8.43,0.19h1.73l1.26,3.79l0.85,2.91h0.1l0.85-2.91l1.3-3.79h1.66l-2.86,8.32H11.26z"/>
	<path class="st0" d="M20.78,8.7c-0.6,0-1.13-0.1-1.6-0.3c-0.47-0.2-0.87-0.49-1.2-0.87s-0.58-0.84-0.76-1.38s-0.26-1.14-0.26-1.8
		c0-0.66,0.09-1.26,0.26-1.8s0.43-1,0.76-1.38c0.33-0.38,0.73-0.67,1.2-0.87c0.47-0.2,1-0.3,1.6-0.3c0.61,0,1.14,0.11,1.61,0.32
		s0.85,0.51,1.16,0.89c0.31,0.38,0.54,0.82,0.7,1.32c0.16,0.5,0.23,1.04,0.23,1.62V4.8h-5.71v0.27c0,0.64,0.19,1.16,0.57,1.57
		c0.38,0.41,0.92,0.61,1.62,0.61c0.51,0,0.94-0.11,1.3-0.33c0.35-0.22,0.65-0.52,0.9-0.91l1.02,1.01c-0.31,0.51-0.76,0.92-1.34,1.23
		C22.24,8.55,21.56,8.7,20.78,8.7z M20.78,1.36c-0.3,0-0.57,0.05-0.82,0.16c-0.25,0.11-0.46,0.26-0.64,0.45s-0.31,0.42-0.41,0.69
		c-0.1,0.27-0.14,0.56-0.14,0.88v0.11h3.87V3.49c0-0.64-0.17-1.15-0.5-1.54C21.81,1.56,21.36,1.36,20.78,1.36z"/>
	<path class="st0" d="M26.42,8.51V0.19h1.74v1.6h0.08c0.12-0.43,0.36-0.8,0.74-1.12c0.37-0.32,0.89-0.48,1.55-0.48h0.46v1.68H30.3
		c-0.69,0-1.22,0.11-1.59,0.34c-0.37,0.22-0.55,0.56-0.55,0.99v5.31H26.42z"/>
</g>
</svg>
