<!-- Generator: Adobe Illustrator 23.1.1, SVG Export Plug-In  -->
<svg version="1.1" xmlns="http://www.w3.org/2000/svg" xmlns:xlink="http://www.w3.org/1999/xlink" x="0px" y="0px"
	 width="254.03px" height="15.23px" viewBox="0 0 254.03 15.23" style="enable-background:new 0 0 254.03 15.23;"
	 xml:space="preserve">
<style type="text/css">
	.st0{fill:#FFFFFF;}
</style>
<defs>
</defs>
<g>
	<path class="st0" d="M3.38,12.03c-0.79,0-1.45-0.14-1.98-0.42s-1-0.66-1.39-1.15l1.12-1.02c0.31,0.37,0.65,0.66,1.03,0.87
		c0.38,0.21,0.82,0.31,1.32,0.31c0.51,0,0.89-0.1,1.14-0.3S4.99,9.86,4.99,9.5c0-0.27-0.09-0.49-0.26-0.68
		C4.55,8.64,4.25,8.52,3.81,8.46l-0.77-0.1C2.19,8.26,1.52,8.01,1.03,7.62S0.3,6.66,0.3,5.89c0-0.41,0.07-0.76,0.22-1.08
		c0.15-0.31,0.36-0.58,0.63-0.8s0.6-0.39,0.98-0.5c0.38-0.12,0.8-0.18,1.26-0.18c0.75,0,1.36,0.12,1.83,0.35
		C5.7,3.92,6.12,4.24,6.5,4.66L5.42,5.68C5.21,5.42,4.93,5.2,4.58,5.02C4.24,4.83,3.84,4.74,3.39,4.74c-0.48,0-0.83,0.1-1.06,0.29
		C2.1,5.22,1.98,5.47,1.98,5.78c0,0.32,0.1,0.56,0.3,0.72s0.53,0.28,0.98,0.35l0.77,0.1c0.92,0.14,1.59,0.41,2.01,0.81
		c0.42,0.4,0.63,0.94,0.63,1.61c0,0.41-0.08,0.77-0.23,1.1c-0.15,0.33-0.38,0.61-0.66,0.84s-0.63,0.42-1.04,0.54
		C4.33,11.97,3.88,12.03,3.38,12.03z"/>
	<path class="st0" d="M10.83,11.84c-0.61,0-1.07-0.16-1.38-0.47c-0.31-0.31-0.46-0.76-0.46-1.34V4.94H7.7V3.52h0.7
		c0.29,0,0.49-0.06,0.6-0.19C9.11,3.2,9.17,2.99,9.17,2.7V1.25h1.57v2.27h1.74v1.42h-1.74v5.47h1.62v1.42H10.83z"/>
	<path class="st0" d="M20.46,11.84c-0.46,0-0.81-0.13-1.06-0.39c-0.25-0.26-0.4-0.59-0.45-1h-0.08c-0.16,0.52-0.45,0.92-0.88,1.18
		s-0.94,0.4-1.55,0.4c-0.86,0-1.53-0.22-1.99-0.67c-0.46-0.45-0.7-1.05-0.7-1.81c0-0.83,0.3-1.46,0.9-1.87s1.49-0.62,2.65-0.62h1.5
		v-0.7c0-0.51-0.14-0.91-0.42-1.18s-0.71-0.42-1.3-0.42c-0.49,0-0.89,0.11-1.2,0.32c-0.31,0.21-0.57,0.49-0.78,0.82l-1.04-0.94
		c0.28-0.47,0.67-0.86,1.17-1.16c0.5-0.3,1.16-0.46,1.97-0.46c1.08,0,1.9,0.25,2.48,0.75c0.58,0.5,0.86,1.22,0.86,2.16v4.18h0.88
		v1.42H20.46z M16.94,10.7c0.54,0,0.99-0.12,1.34-0.36s0.53-0.56,0.53-0.97v-1.2h-1.47c-1.21,0-1.81,0.37-1.81,1.12v0.29
		c0,0.37,0.12,0.65,0.38,0.84C16.16,10.61,16.51,10.7,16.94,10.7z"/>
	<path class="st0" d="M26.37,12.03c-0.6,0-1.13-0.1-1.6-0.3c-0.47-0.2-0.86-0.49-1.18-0.87c-0.32-0.38-0.57-0.84-0.74-1.38
		c-0.17-0.54-0.26-1.14-0.26-1.8c0-0.66,0.09-1.26,0.26-1.8c0.17-0.54,0.42-1,0.74-1.38c0.32-0.38,0.71-0.67,1.18-0.87
		c0.47-0.2,1-0.3,1.6-0.3c0.83,0,1.51,0.19,2.05,0.56c0.53,0.37,0.92,0.87,1.17,1.49l-1.44,0.67c-0.12-0.38-0.32-0.69-0.62-0.92
		s-0.68-0.34-1.16-0.34c-0.64,0-1.12,0.2-1.45,0.6c-0.33,0.4-0.49,0.92-0.49,1.55v1.48c0,0.64,0.16,1.16,0.49,1.56
		c0.33,0.4,0.81,0.6,1.45,0.6c0.51,0,0.92-0.13,1.22-0.38c0.3-0.25,0.55-0.58,0.73-1l1.33,0.7c-0.28,0.68-0.69,1.21-1.25,1.58
		C27.84,11.85,27.17,12.03,26.37,12.03z"/>
	<path class="st0" d="M31.31,0h1.74v7.26h0.08l1.15-1.49l2-2.26h2.03l-2.91,3.22l3.26,5.1h-2.08l-2.38-3.97l-1.15,1.25v2.72h-1.74V0
		z"/>
	<path class="st0" d="M46.14,11.84c-0.61,0-1.07-0.16-1.38-0.47c-0.31-0.31-0.46-0.76-0.46-1.34V4.94h-1.3V3.52h0.7
		c0.29,0,0.49-0.06,0.6-0.19c0.11-0.13,0.17-0.34,0.17-0.62V1.25h1.57v2.27h1.74v1.42h-1.74v5.47h1.62v1.42H46.14z"/>
	<path class="st0" d="M49.68,0h1.74v4.9h0.08c0.18-0.45,0.46-0.82,0.82-1.12c0.37-0.3,0.87-0.45,1.51-0.45
		c0.85,0,1.52,0.28,1.99,0.84c0.47,0.56,0.71,1.36,0.71,2.39v5.28H54.8V6.77c0-1.29-0.52-1.94-1.57-1.94
		c-0.22,0-0.45,0.03-0.66,0.09c-0.22,0.06-0.41,0.15-0.58,0.26c-0.17,0.12-0.31,0.27-0.41,0.45c-0.1,0.18-0.15,0.39-0.15,0.62v5.58
		h-1.74V0z"/>
	<path class="st0" d="M62.22,12.03c-0.58,0-1.1-0.1-1.58-0.3c-0.47-0.2-0.88-0.49-1.21-0.87c-0.33-0.38-0.59-0.84-0.77-1.38
		c-0.18-0.54-0.27-1.14-0.27-1.8c0-0.66,0.09-1.26,0.27-1.8c0.18-0.54,0.44-1,0.77-1.38s0.73-0.67,1.21-0.87
		c0.47-0.2,1-0.3,1.58-0.3c0.58,0,1.1,0.1,1.58,0.3c0.47,0.2,0.88,0.49,1.21,0.87s0.59,0.84,0.77,1.38c0.18,0.54,0.27,1.14,0.27,1.8
		c0,0.66-0.09,1.26-0.27,1.8c-0.18,0.54-0.44,1-0.77,1.38c-0.33,0.38-0.73,0.67-1.21,0.87C63.32,11.93,62.8,12.03,62.22,12.03z
		 M62.22,10.58c0.6,0,1.08-0.18,1.44-0.55c0.36-0.37,0.54-0.91,0.54-1.65v-1.4c0-0.73-0.18-1.28-0.54-1.65
		c-0.36-0.37-0.84-0.55-1.44-0.55c-0.6,0-1.08,0.18-1.44,0.55c-0.36,0.37-0.54,0.92-0.54,1.65v1.4c0,0.73,0.18,1.28,0.54,1.65
		C61.15,10.39,61.63,10.58,62.22,10.58z"/>
	<path class="st0" d="M70.62,12.03c-0.79,0-1.45-0.14-1.98-0.42s-1-0.66-1.39-1.15l1.12-1.02c0.31,0.37,0.65,0.66,1.03,0.87
		c0.38,0.21,0.82,0.31,1.32,0.31c0.51,0,0.89-0.1,1.14-0.3s0.38-0.47,0.38-0.82c0-0.27-0.09-0.49-0.26-0.68
		c-0.18-0.19-0.48-0.31-0.92-0.36l-0.77-0.1c-0.85-0.11-1.52-0.35-2.01-0.74s-0.73-0.97-0.73-1.74c0-0.41,0.07-0.76,0.22-1.08
		c0.15-0.31,0.36-0.58,0.63-0.8s0.6-0.39,0.98-0.5c0.38-0.12,0.8-0.18,1.26-0.18c0.75,0,1.36,0.12,1.83,0.35
		c0.47,0.24,0.9,0.56,1.27,0.98l-1.07,1.02c-0.21-0.26-0.49-0.48-0.84-0.66c-0.35-0.19-0.74-0.28-1.19-0.28
		c-0.48,0-0.83,0.1-1.06,0.29c-0.23,0.19-0.34,0.44-0.34,0.75c0,0.32,0.1,0.56,0.3,0.72s0.53,0.28,0.98,0.35l0.77,0.1
		c0.92,0.14,1.59,0.41,2.01,0.81c0.42,0.4,0.63,0.94,0.63,1.61c0,0.41-0.08,0.77-0.23,1.1c-0.15,0.33-0.38,0.61-0.66,0.84
		s-0.63,0.42-1.04,0.54C71.58,11.97,71.12,12.03,70.62,12.03z"/>
	<path class="st0" d="M79.15,12.03c-0.6,0-1.13-0.1-1.6-0.3c-0.47-0.2-0.87-0.49-1.2-0.87c-0.33-0.38-0.58-0.84-0.76-1.38
		c-0.18-0.54-0.26-1.14-0.26-1.8c0-0.66,0.09-1.26,0.26-1.8c0.18-0.54,0.43-1,0.76-1.38s0.73-0.67,1.2-0.87c0.47-0.2,1-0.3,1.6-0.3
		c0.61,0,1.14,0.11,1.61,0.32c0.46,0.21,0.85,0.51,1.16,0.89c0.31,0.38,0.54,0.82,0.7,1.32c0.15,0.5,0.23,1.04,0.23,1.62v0.66h-5.71
		V8.4c0,0.64,0.19,1.16,0.57,1.57c0.38,0.41,0.92,0.61,1.62,0.61c0.51,0,0.94-0.11,1.3-0.33s0.65-0.52,0.9-0.91l1.02,1.01
		c-0.31,0.51-0.76,0.92-1.34,1.23C80.61,11.88,79.93,12.03,79.15,12.03z M79.15,4.69c-0.3,0-0.57,0.05-0.82,0.16
		c-0.25,0.11-0.46,0.26-0.64,0.45c-0.18,0.19-0.31,0.42-0.41,0.69c-0.1,0.27-0.14,0.56-0.14,0.88v0.11h3.87V6.82
		c0-0.64-0.17-1.15-0.5-1.54C80.18,4.88,79.73,4.69,79.15,4.69z"/>
	<path class="st0" d="M93.79,10.46h-0.08c-0.18,0.49-0.48,0.88-0.89,1.15c-0.41,0.28-0.89,0.42-1.45,0.42
		c-1.06,0-1.87-0.38-2.45-1.14c-0.58-0.76-0.86-1.83-0.86-3.21s0.29-2.45,0.86-3.21c0.58-0.76,1.39-1.14,2.45-1.14
		c0.55,0,1.04,0.14,1.45,0.41c0.41,0.27,0.71,0.66,0.89,1.16h0.08V0h1.74v11.84h-1.74V10.46z M91.9,10.53
		c0.53,0,0.98-0.13,1.34-0.39c0.36-0.26,0.54-0.61,0.54-1.03V6.26c0-0.43-0.18-0.77-0.54-1.03c-0.36-0.26-0.81-0.39-1.34-0.39
		c-0.61,0-1.09,0.19-1.46,0.58c-0.36,0.39-0.54,0.9-0.54,1.54V8.4c0,0.64,0.18,1.16,0.54,1.54C90.81,10.33,91.29,10.53,91.9,10.53z"
		/>
	<path class="st0" d="M103.07,10.46h-0.06c-0.07,0.2-0.17,0.4-0.3,0.59c-0.12,0.19-0.28,0.36-0.46,0.5
		c-0.19,0.14-0.41,0.26-0.67,0.34c-0.26,0.08-0.56,0.13-0.9,0.13c-0.86,0-1.53-0.28-2.01-0.83s-0.71-1.35-0.71-2.38v-5.3h1.74v5.07
		c0,1.29,0.53,1.94,1.6,1.94c0.22,0,0.44-0.03,0.66-0.09c0.21-0.06,0.4-0.15,0.57-0.26s0.3-0.27,0.4-0.45
		c0.1-0.18,0.15-0.39,0.15-0.64V3.52h1.74v8.32h-1.74V10.46z"/>
	<path class="st0" d="M107.31,11.84V3.52h1.74V4.9h0.08c0.09-0.21,0.19-0.42,0.31-0.61c0.12-0.19,0.27-0.36,0.45-0.5
		c0.18-0.14,0.38-0.26,0.62-0.34c0.24-0.08,0.52-0.12,0.84-0.12c0.57,0,1.07,0.14,1.5,0.42s0.76,0.7,0.96,1.28h0.05
		c0.15-0.47,0.44-0.87,0.86-1.2c0.43-0.33,0.98-0.5,1.65-0.5c0.83,0,1.48,0.28,1.94,0.84c0.46,0.56,0.69,1.36,0.69,2.39v5.28h-1.74
		V6.77c0-0.64-0.12-1.12-0.37-1.45c-0.25-0.33-0.63-0.49-1.17-0.49c-0.22,0-0.44,0.03-0.64,0.09s-0.38,0.15-0.54,0.26
		c-0.15,0.12-0.28,0.27-0.38,0.45c-0.1,0.18-0.14,0.39-0.14,0.62v5.58h-1.74V6.77c0-1.29-0.51-1.94-1.52-1.94
		c-0.21,0-0.42,0.03-0.63,0.09s-0.39,0.15-0.55,0.26c-0.16,0.12-0.29,0.27-0.38,0.45c-0.1,0.18-0.14,0.39-0.14,0.62v5.58H107.31z"/>
	<path class="st0" d="M121.42,3.52h1.74V4.9h0.08c0.18-0.5,0.48-0.89,0.89-1.16c0.41-0.27,0.89-0.41,1.45-0.41
		c1.06,0,1.87,0.38,2.45,1.14s0.86,1.83,0.86,3.21s-0.29,2.45-0.86,3.21s-1.39,1.14-2.45,1.14c-0.56,0-1.04-0.14-1.45-0.42
		s-0.71-0.66-0.89-1.15h-0.08v4.58h-1.74V3.52z M125.05,10.53c0.61,0,1.09-0.2,1.46-0.58c0.36-0.39,0.54-0.9,0.54-1.54V6.96
		c0-0.64-0.18-1.15-0.54-1.54s-0.85-0.58-1.46-0.58c-0.53,0-0.98,0.13-1.34,0.39c-0.36,0.26-0.54,0.61-0.54,1.03V9.1
		c0,0.43,0.18,0.77,0.54,1.03C124.07,10.4,124.52,10.53,125.05,10.53z"/>
	<path class="st0" d="M133.53,12.03c-0.79,0-1.45-0.14-1.98-0.42s-1-0.66-1.39-1.15l1.12-1.02c0.31,0.37,0.65,0.66,1.03,0.87
		c0.38,0.21,0.82,0.31,1.32,0.31c0.51,0,0.89-0.1,1.14-0.3s0.38-0.47,0.38-0.82c0-0.27-0.09-0.49-0.26-0.68
		c-0.18-0.19-0.48-0.31-0.92-0.36l-0.77-0.1c-0.85-0.11-1.52-0.35-2.01-0.74s-0.73-0.97-0.73-1.74c0-0.41,0.07-0.76,0.22-1.08
		c0.15-0.31,0.36-0.58,0.63-0.8s0.6-0.39,0.98-0.5c0.38-0.12,0.8-0.18,1.26-0.18c0.75,0,1.36,0.12,1.83,0.35
		c0.47,0.24,0.9,0.56,1.27,0.98l-1.07,1.02c-0.21-0.26-0.49-0.48-0.84-0.66c-0.35-0.19-0.74-0.28-1.19-0.28
		c-0.48,0-0.83,0.1-1.06,0.29c-0.23,0.19-0.34,0.44-0.34,0.75c0,0.32,0.1,0.56,0.3,0.72s0.53,0.28,0.98,0.35l0.77,0.1
		c0.92,0.14,1.59,0.41,2.01,0.81c0.42,0.4,0.63,0.94,0.63,1.61c0,0.41-0.08,0.77-0.23,1.1c-0.15,0.33-0.38,0.61-0.66,0.84
		s-0.63,0.42-1.04,0.54C134.49,11.97,134.03,12.03,133.53,12.03z"/>
	<path class="st0" d="M140.99,11.84c-0.61,0-1.07-0.16-1.38-0.47c-0.31-0.31-0.46-0.76-0.46-1.34V4.94h-1.3V3.52h0.7
		c0.29,0,0.49-0.06,0.6-0.19c0.11-0.13,0.17-0.34,0.17-0.62V1.25h1.57v2.27h1.74v1.42h-1.74v5.47h1.62v1.42H140.99z"/>
	<path class="st0" d="M147.73,12.03c-0.6,0-1.13-0.1-1.6-0.3c-0.47-0.2-0.87-0.49-1.2-0.87c-0.33-0.38-0.58-0.84-0.76-1.38
		c-0.18-0.54-0.26-1.14-0.26-1.8c0-0.66,0.09-1.26,0.26-1.8c0.18-0.54,0.43-1,0.76-1.38s0.73-0.67,1.2-0.87c0.47-0.2,1-0.3,1.6-0.3
		c0.61,0,1.14,0.11,1.61,0.32c0.46,0.21,0.85,0.51,1.16,0.89c0.31,0.38,0.54,0.82,0.7,1.32c0.15,0.5,0.23,1.04,0.23,1.62v0.66h-5.71
		V8.4c0,0.64,0.19,1.16,0.57,1.57c0.38,0.41,0.92,0.61,1.62,0.61c0.51,0,0.94-0.11,1.3-0.33s0.65-0.52,0.9-0.91l1.02,1.01
		c-0.31,0.51-0.76,0.92-1.34,1.23C149.19,11.88,148.5,12.03,147.73,12.03z M147.73,4.69c-0.3,0-0.57,0.05-0.82,0.16
		c-0.25,0.11-0.46,0.26-0.64,0.45c-0.18,0.19-0.31,0.42-0.41,0.69c-0.1,0.27-0.14,0.56-0.14,0.88v0.11h3.87V6.82
		c0-0.64-0.17-1.15-0.5-1.54C148.75,4.88,148.3,4.69,147.73,4.69z"/>
	<path class="st0" d="M153.36,11.84V3.52h1.74v1.6h0.08c0.12-0.43,0.36-0.8,0.74-1.12c0.37-0.32,0.89-0.48,1.55-0.48h0.46V5.2h-0.69
		c-0.69,0-1.22,0.11-1.59,0.34c-0.37,0.22-0.55,0.55-0.55,0.99v5.31H153.36z"/>
	<path class="st0" d="M162.13,12.03c-0.79,0-1.45-0.14-1.98-0.42s-1-0.66-1.39-1.15l1.12-1.02c0.31,0.37,0.65,0.66,1.03,0.87
		c0.38,0.21,0.82,0.31,1.32,0.31c0.51,0,0.89-0.1,1.14-0.3s0.38-0.47,0.38-0.82c0-0.27-0.09-0.49-0.26-0.68
		c-0.18-0.19-0.48-0.31-0.92-0.36l-0.77-0.1c-0.85-0.11-1.52-0.35-2.01-0.74s-0.73-0.97-0.73-1.74c0-0.41,0.07-0.76,0.22-1.08
		c0.15-0.31,0.36-0.58,0.63-0.8s0.6-0.39,0.98-0.5c0.38-0.12,0.8-0.18,1.26-0.18c0.75,0,1.36,0.12,1.83,0.35
		c0.47,0.24,0.9,0.56,1.27,0.98l-1.07,1.02c-0.21-0.26-0.49-0.48-0.84-0.66c-0.35-0.19-0.74-0.28-1.19-0.28
		c-0.48,0-0.83,0.1-1.06,0.29c-0.23,0.19-0.34,0.44-0.34,0.75c0,0.32,0.1,0.56,0.3,0.72s0.53,0.28,0.98,0.35l0.77,0.1
		c0.92,0.14,1.59,0.41,2.01,0.81c0.42,0.4,0.63,0.94,0.63,1.61c0,0.41-0.08,0.77-0.23,1.1c-0.15,0.33-0.38,0.61-0.66,0.84
		s-0.63,0.42-1.04,0.54C163.08,11.97,162.63,12.03,162.13,12.03z"/>
	<path class="st0" d="M177.26,11.84c-0.46,0-0.81-0.13-1.06-0.39c-0.25-0.26-0.4-0.59-0.45-1h-0.08c-0.16,0.52-0.45,0.92-0.88,1.18
		s-0.94,0.4-1.55,0.4c-0.86,0-1.53-0.22-1.99-0.67c-0.46-0.45-0.7-1.05-0.7-1.81c0-0.83,0.3-1.46,0.9-1.87s1.49-0.62,2.65-0.62h1.5
		v-0.7c0-0.51-0.14-0.91-0.42-1.18s-0.71-0.42-1.3-0.42c-0.49,0-0.89,0.11-1.2,0.32c-0.31,0.21-0.57,0.49-0.78,0.82l-1.04-0.94
		c0.28-0.47,0.67-0.86,1.17-1.16c0.5-0.3,1.16-0.46,1.97-0.46c1.08,0,1.9,0.25,2.48,0.75c0.58,0.5,0.86,1.22,0.86,2.16v4.18h0.88
		v1.42H177.26z M173.74,10.7c0.54,0,0.99-0.12,1.34-0.36s0.53-0.56,0.53-0.97v-1.2h-1.47c-1.21,0-1.81,0.37-1.81,1.12v0.29
		c0,0.37,0.12,0.65,0.38,0.84C172.96,10.61,173.3,10.7,173.74,10.7z"/>
	<path class="st0" d="M179.95,11.84V3.52h1.74V4.9h0.08c0.18-0.45,0.46-0.82,0.82-1.12c0.37-0.3,0.87-0.45,1.51-0.45
		c0.85,0,1.52,0.28,1.99,0.84c0.47,0.56,0.71,1.36,0.71,2.39v5.28h-1.74V6.78c0-1.3-0.52-1.95-1.57-1.95
		c-0.22,0-0.45,0.03-0.66,0.09c-0.22,0.06-0.41,0.15-0.58,0.26c-0.17,0.12-0.31,0.27-0.41,0.45c-0.1,0.18-0.15,0.39-0.15,0.64v5.57
		H179.95z"/>
	<path class="st0" d="M194.46,10.46h-0.08c-0.18,0.49-0.48,0.88-0.89,1.15c-0.41,0.28-0.89,0.42-1.45,0.42
		c-1.06,0-1.87-0.38-2.45-1.14c-0.58-0.76-0.86-1.83-0.86-3.21s0.29-2.45,0.86-3.21c0.58-0.76,1.39-1.14,2.45-1.14
		c0.55,0,1.04,0.14,1.45,0.41c0.41,0.27,0.71,0.66,0.89,1.16h0.08V0h1.74v11.84h-1.74V10.46z M192.57,10.53
		c0.53,0,0.98-0.13,1.34-0.39c0.36-0.26,0.54-0.61,0.54-1.03V6.26c0-0.43-0.18-0.77-0.54-1.03c-0.36-0.26-0.81-0.39-1.34-0.39
		c-0.61,0-1.09,0.19-1.46,0.58c-0.36,0.39-0.54,0.9-0.54,1.54V8.4c0,0.64,0.18,1.16,0.54,1.54
		C191.48,10.33,191.96,10.53,192.57,10.53z"/>
	<path class="st0" d="M207.58,3.52h1.68l-3.5,9.97c-0.1,0.28-0.21,0.51-0.33,0.71c-0.12,0.2-0.27,0.36-0.43,0.48
		c-0.17,0.12-0.37,0.21-0.6,0.27c-0.23,0.06-0.51,0.09-0.83,0.09h-1.01v-1.42h1.41l0.48-1.41l-3.02-8.69h1.74l1.66,4.9l0.48,1.81
		h0.08l0.53-1.81L207.58,3.52z"/>
	<path class="st0" d="M213.87,12.03c-0.58,0-1.1-0.1-1.58-0.3c-0.47-0.2-0.88-0.49-1.21-0.87c-0.33-0.38-0.59-0.84-0.77-1.38
		c-0.18-0.54-0.27-1.14-0.27-1.8c0-0.66,0.09-1.26,0.27-1.8c0.18-0.54,0.44-1,0.77-1.38s0.73-0.67,1.21-0.87
		c0.47-0.2,1-0.3,1.58-0.3c0.58,0,1.1,0.1,1.58,0.3c0.47,0.2,0.88,0.49,1.21,0.87s0.59,0.84,0.77,1.38c0.18,0.54,0.27,1.14,0.27,1.8
		c0,0.66-0.09,1.26-0.27,1.8c-0.18,0.54-0.44,1-0.77,1.38c-0.33,0.38-0.73,0.67-1.21,0.87C214.97,11.93,214.44,12.03,213.87,12.03z
		 M213.87,10.58c0.6,0,1.08-0.18,1.44-0.55c0.36-0.37,0.54-0.91,0.54-1.65v-1.4c0-0.73-0.18-1.28-0.54-1.65
		c-0.36-0.37-0.84-0.55-1.44-0.55c-0.6,0-1.08,0.18-1.44,0.55c-0.36,0.37-0.54,0.92-0.54,1.65v1.4c0,0.73,0.18,1.28,0.54,1.65
		C212.79,10.39,213.27,10.58,213.87,10.58z"/>
	<path class="st0" d="M224.67,10.46h-0.06c-0.07,0.2-0.17,0.4-0.3,0.59c-0.12,0.19-0.28,0.36-0.46,0.5
		c-0.19,0.14-0.41,0.26-0.67,0.34c-0.26,0.08-0.56,0.13-0.9,0.13c-0.86,0-1.53-0.28-2.01-0.83s-0.71-1.35-0.71-2.38v-5.3h1.74v5.07
		c0,1.29,0.53,1.94,1.6,1.94c0.22,0,0.44-0.03,0.66-0.09c0.21-0.06,0.4-0.15,0.57-0.26s0.3-0.27,0.4-0.45
		c0.1-0.18,0.15-0.39,0.15-0.64V3.52h1.74v8.32h-1.74V10.46z"/>
	<path class="st0" d="M239.98,12.62c0,0.86-0.33,1.51-0.99,1.95c-0.66,0.44-1.74,0.66-3.23,0.66c-0.68,0-1.26-0.04-1.74-0.14
		s-0.86-0.22-1.17-0.39c-0.3-0.17-0.53-0.38-0.66-0.62c-0.14-0.25-0.21-0.53-0.21-0.85c0-0.46,0.13-0.82,0.38-1.07
		s0.6-0.43,1.05-0.53v-0.18c-0.63-0.2-0.94-0.63-0.94-1.28c0-0.43,0.14-0.75,0.43-0.98c0.29-0.23,0.63-0.39,1.04-0.49V8.64
		c-0.49-0.23-0.87-0.56-1.13-0.98c-0.26-0.42-0.39-0.92-0.39-1.48c0-0.85,0.29-1.54,0.86-2.06c0.57-0.52,1.39-0.78,2.46-0.78
		c0.59,0,1.09,0.08,1.5,0.26V3.36c0-0.37,0.09-0.66,0.26-0.87c0.18-0.21,0.45-0.31,0.82-0.31h1.28v1.41h-1.7v0.34
		c0.37,0.25,0.66,0.56,0.86,0.95c0.2,0.39,0.3,0.82,0.3,1.3c0,0.84-0.29,1.52-0.86,2.04s-1.4,0.78-2.46,0.78
		c-0.41,0-0.77-0.04-1.09-0.13c-0.21,0.07-0.4,0.18-0.56,0.31c-0.16,0.13-0.24,0.31-0.24,0.52c0,0.22,0.1,0.38,0.3,0.48
		c0.2,0.1,0.49,0.14,0.86,0.14h2.05c1.02,0,1.77,0.21,2.22,0.62C239.75,11.35,239.98,11.91,239.98,12.62z M238.35,12.82
		c0-0.29-0.11-0.52-0.33-0.69s-0.62-0.26-1.19-0.26h-2.82c-0.38,0.22-0.58,0.54-0.58,0.96c0,0.34,0.14,0.62,0.41,0.82
		s0.73,0.31,1.38,0.31h1.09C237.67,13.97,238.35,13.58,238.35,12.82z M235.74,7.73c0.51,0,0.91-0.11,1.19-0.34
		c0.28-0.23,0.42-0.58,0.42-1.06V6c0-0.48-0.14-0.83-0.42-1.06c-0.28-0.23-0.68-0.34-1.19-0.34c-0.51,0-0.91,0.12-1.19,0.34
		c-0.28,0.23-0.42,0.58-0.42,1.06v0.32c0,0.48,0.14,0.83,0.42,1.06S235.23,7.73,235.74,7.73z"/>
	<path class="st0" d="M244.44,12.03c-0.6,0-1.13-0.1-1.6-0.3c-0.47-0.2-0.87-0.49-1.2-0.87c-0.33-0.38-0.58-0.84-0.76-1.38
		c-0.18-0.54-0.26-1.14-0.26-1.8c0-0.66,0.09-1.26,0.26-1.8c0.18-0.54,0.43-1,0.76-1.38s0.73-0.67,1.2-0.87c0.47-0.2,1-0.3,1.6-0.3
		c0.61,0,1.14,0.11,1.61,0.32c0.46,0.21,0.85,0.51,1.16,0.89c0.31,0.38,0.54,0.82,0.7,1.32c0.15,0.5,0.23,1.04,0.23,1.62v0.66h-5.71
		V8.4c0,0.64,0.19,1.16,0.57,1.57c0.38,0.41,0.92,0.61,1.62,0.61c0.51,0,0.94-0.11,1.3-0.33s0.65-0.52,0.9-0.91l1.02,1.01
		c-0.31,0.51-0.76,0.92-1.34,1.23C245.91,11.88,245.22,12.03,244.44,12.03z M244.44,4.69c-0.3,0-0.57,0.05-0.82,0.16
		c-0.25,0.11-0.46,0.26-0.64,0.45c-0.18,0.19-0.31,0.42-0.41,0.69c-0.1,0.27-0.14,0.56-0.14,0.88v0.11h3.87V6.82
		c0-0.64-0.17-1.15-0.5-1.54C245.47,4.88,245.02,4.69,244.44,4.69z"/>
	<path class="st0" d="M252.38,11.84c-0.61,0-1.07-0.16-1.38-0.47c-0.31-0.31-0.46-0.76-0.46-1.34V4.94h-1.3V3.52h0.7
		c0.29,0,0.49-0.06,0.6-0.19c0.11-0.13,0.17-0.34,0.17-0.62V1.25h1.57v2.27h1.74v1.42h-1.74v5.47h1.62v1.42H252.38z"/>
</g>
</svg>
