<!-- Generator: Adobe Illustrator 23.1.1, SVG Export Plug-In  -->
<svg version="1.1" xmlns="http://www.w3.org/2000/svg" xmlns:xlink="http://www.w3.org/1999/xlink" x="0px" y="0px" width="62.82px"
	 height="11.55px" viewBox="0 0 62.82 11.55" style="enable-background:new 0 0 62.82 11.55;" xml:space="preserve">
<style type="text/css">
	.st0{fill:#FFFFFF;}
</style>
<defs>
</defs>
<g>
	<path class="st0" d="M8.54,2.82H8.46L7.58,4.62L5.14,9.09L2.69,4.62L1.81,2.82H1.73v8.54H0V0.19h2.14l2.99,5.68h0.1l2.99-5.68h2.05
		v11.17H8.54V2.82z"/>
	<path class="st0" d="M12.54,11.36V9.89h1.52V1.66h-1.52V0.19h4.86v1.47h-1.54v8.22h1.54v1.47H12.54z"/>
	<path class="st0" d="M19.68,11.36V0.19h1.81v9.57h4.54v1.6H19.68z"/>
	<path class="st0" d="M27.89,11.36V0.19h1.81v9.57h4.54v1.6H27.89z"/>
	<path class="st0" d="M35.62,11.36V9.89h1.52V1.66h-1.52V0.19h4.86v1.47h-1.54v8.22h1.54v1.47H35.62z"/>
	<path class="st0" d="M47.07,11.55c-0.73,0-1.38-0.13-1.98-0.38s-1.1-0.62-1.52-1.1c-0.42-0.49-0.75-1.09-0.98-1.81
		c-0.23-0.72-0.34-1.55-0.34-2.49c0-0.94,0.11-1.77,0.34-2.49c0.23-0.72,0.55-1.32,0.98-1.81C44,0.99,44.5,0.63,45.1,0.38
		S46.35,0,47.07,0c0.72,0,1.38,0.13,1.98,0.38s1.1,0.62,1.52,1.1c0.42,0.49,0.75,1.09,0.98,1.81c0.23,0.72,0.34,1.55,0.34,2.49
		c0,0.94-0.11,1.77-0.34,2.49c-0.23,0.72-0.55,1.32-0.98,1.81c-0.42,0.49-0.93,0.85-1.52,1.1S47.8,11.55,47.07,11.55z M47.07,9.95
		c0.43,0,0.82-0.07,1.18-0.22s0.66-0.37,0.91-0.65c0.25-0.28,0.45-0.63,0.58-1.04c0.14-0.41,0.21-0.87,0.21-1.38V4.89
		c0-0.51-0.07-0.97-0.21-1.38c-0.14-0.41-0.33-0.75-0.58-1.04c-0.25-0.28-0.55-0.5-0.91-0.65C47.89,1.67,47.5,1.6,47.07,1.6
		c-0.44,0-0.83,0.07-1.18,0.22c-0.35,0.15-0.65,0.37-0.9,0.65c-0.25,0.28-0.45,0.63-0.58,1.04c-0.14,0.41-0.21,0.87-0.21,1.38v1.77
		c0,0.51,0.07,0.97,0.21,1.38c0.14,0.41,0.33,0.75,0.58,1.04c0.25,0.28,0.55,0.5,0.9,0.65C46.24,9.88,46.63,9.95,47.07,9.95z"/>
	<path class="st0" d="M57.15,5.18l-1.23-2.37h-0.05v8.54h-1.73V0.19h2.02l3.65,6.18l1.23,2.37h0.05V0.19h1.73v11.17H60.8L57.15,5.18
		z"/>
</g>
</svg>
