<!-- Generator: Adobe Illustrator 23.1.1, SVG Export Plug-In  -->
<svg version="1.1" xmlns="http://www.w3.org/2000/svg" xmlns:xlink="http://www.w3.org/1999/xlink" x="0px" y="0px" width="48.14px"
	 height="12.1px" viewBox="0 0 48.14 12.1" style="enable-background:new 0 0 48.14 12.1;" xml:space="preserve">
<style type="text/css">
	.st0{fill:#FFFFFF;}
</style>
<defs>
</defs>
<g>
	<path class="st0" d="M0,0.06h1.74v4.9h0.08C2,4.46,2.3,4.07,2.71,3.8c0.41-0.27,0.89-0.41,1.45-0.41c1.06,0,1.87,0.38,2.45,1.14
		C7.18,5.3,7.47,6.37,7.47,7.74s-0.29,2.45-0.86,3.21c-0.58,0.76-1.39,1.14-2.45,1.14c-0.55,0-1.04-0.14-1.45-0.42
		C2.3,11.4,2,11.02,1.82,10.53H1.74v1.38H0V0.06z M3.63,10.59c0.61,0,1.09-0.19,1.46-0.58c0.36-0.39,0.54-0.9,0.54-1.54V7.02
		c0-0.64-0.18-1.15-0.54-1.54C4.73,5.09,4.24,4.9,3.63,4.9c-0.53,0-0.98,0.13-1.34,0.39C1.92,5.55,1.74,5.89,1.74,6.32v2.85
		c0,0.43,0.18,0.77,0.54,1.03C2.65,10.46,3.1,10.59,3.63,10.59z"/>
	<path class="st0" d="M12.74,12.1c-0.6,0-1.13-0.1-1.6-0.3c-0.47-0.2-0.87-0.49-1.2-0.87s-0.58-0.84-0.76-1.38s-0.26-1.14-0.26-1.8
		c0-0.66,0.09-1.26,0.26-1.8s0.43-1,0.76-1.38c0.33-0.38,0.73-0.67,1.2-0.87c0.47-0.2,1-0.3,1.6-0.3c0.61,0,1.14,0.11,1.61,0.32
		s0.85,0.51,1.16,0.89c0.31,0.38,0.54,0.82,0.7,1.32c0.16,0.5,0.23,1.04,0.23,1.62v0.66h-5.71v0.27c0,0.64,0.19,1.16,0.57,1.57
		c0.38,0.41,0.92,0.61,1.62,0.61c0.51,0,0.94-0.11,1.3-0.33c0.35-0.22,0.65-0.52,0.9-0.91l1.02,1.01c-0.31,0.51-0.76,0.92-1.34,1.23
		C14.2,11.94,13.51,12.1,12.74,12.1z M12.74,4.75c-0.3,0-0.57,0.05-0.82,0.16c-0.25,0.11-0.46,0.26-0.64,0.45s-0.31,0.42-0.41,0.69
		c-0.1,0.27-0.14,0.56-0.14,0.88v0.11h3.87V6.88c0-0.64-0.17-1.15-0.5-1.54C13.76,4.95,13.31,4.75,12.74,4.75z"/>
	<path class="st0" d="M18.37,0.06h1.74v4.9h0.08c0.18-0.45,0.46-0.82,0.82-1.12c0.37-0.3,0.87-0.45,1.51-0.45
		c0.85,0,1.52,0.28,1.99,0.84c0.47,0.56,0.71,1.36,0.71,2.39v5.28h-1.74V6.83c0-1.29-0.52-1.94-1.57-1.94
		c-0.22,0-0.45,0.03-0.66,0.09s-0.41,0.15-0.58,0.26c-0.17,0.12-0.31,0.27-0.41,0.45c-0.1,0.18-0.15,0.39-0.15,0.62v5.58h-1.74V0.06
		z"/>
	<path class="st0" d="M28.53,2.1c-0.36,0-0.63-0.08-0.79-0.26c-0.17-0.17-0.25-0.39-0.25-0.66V0.91c0-0.27,0.08-0.48,0.25-0.66
		C27.9,0.09,28.17,0,28.53,0s0.62,0.09,0.78,0.26c0.16,0.17,0.24,0.39,0.24,0.66v0.27c0,0.27-0.08,0.49-0.24,0.66
		C29.15,2.01,28.89,2.1,28.53,2.1z M27.65,3.58h1.74v8.32h-1.74V3.58z"/>
	<path class="st0" d="M31.89,11.9V3.58h1.74v1.38h0.08c0.18-0.45,0.46-0.82,0.82-1.12c0.37-0.3,0.87-0.45,1.51-0.45
		c0.85,0,1.52,0.28,1.99,0.84c0.47,0.56,0.71,1.36,0.71,2.39v5.28h-1.74V6.85c0-1.3-0.52-1.95-1.57-1.95
		c-0.22,0-0.45,0.03-0.66,0.09s-0.41,0.15-0.58,0.26c-0.17,0.12-0.31,0.27-0.41,0.45c-0.1,0.18-0.15,0.39-0.15,0.64v5.57H31.89z"/>
	<path class="st0" d="M46.4,10.53h-0.08c-0.18,0.49-0.48,0.87-0.89,1.15c-0.41,0.28-0.89,0.42-1.45,0.42
		c-1.06,0-1.87-0.38-2.45-1.14c-0.58-0.76-0.86-1.83-0.86-3.21s0.29-2.45,0.86-3.21c0.58-0.76,1.39-1.14,2.45-1.14
		c0.55,0,1.04,0.14,1.45,0.41c0.41,0.27,0.71,0.66,0.89,1.16h0.08v-4.9h1.74V11.9H46.4V10.53z M44.51,10.59
		c0.53,0,0.98-0.13,1.34-0.39c0.36-0.26,0.54-0.6,0.54-1.03V6.32c0-0.43-0.18-0.77-0.54-1.03c-0.36-0.26-0.81-0.39-1.34-0.39
		c-0.61,0-1.09,0.19-1.46,0.58c-0.36,0.39-0.54,0.9-0.54,1.54v1.44c0,0.64,0.18,1.15,0.54,1.54C43.42,10.4,43.9,10.59,44.51,10.59z"
		/>
</g>
</svg>
