<!-- Generator: Adobe Illustrator 23.1.1, SVG Export Plug-In  -->
<svg version="1.1" xmlns="http://www.w3.org/2000/svg" xmlns:xlink="http://www.w3.org/1999/xlink" x="0px" y="0px"
	 width="142.75px" height="15.23px" viewBox="0 0 142.75 15.23" style="enable-background:new 0 0 142.75 15.23;"
	 xml:space="preserve">
<style type="text/css">
	.st0{fill:#FFFFFF;}
</style>
<defs>
</defs>
<g>
	<path class="st0" d="M3.82,12.03c-0.58,0-1.1-0.1-1.58-0.3c-0.47-0.2-0.88-0.49-1.21-0.87c-0.33-0.38-0.59-0.84-0.77-1.38
		S0,8.34,0,7.68c0-0.66,0.09-1.26,0.27-1.8s0.44-1,0.77-1.38c0.33-0.38,0.73-0.67,1.21-0.87s1-0.3,1.58-0.3s1.1,0.1,1.58,0.3
		S6.28,4.13,6.61,4.5c0.33,0.38,0.59,0.84,0.77,1.38c0.18,0.54,0.27,1.14,0.27,1.8c0,0.66-0.09,1.26-0.27,1.8
		c-0.18,0.54-0.44,1-0.77,1.38s-0.73,0.67-1.21,0.87C4.92,11.93,4.4,12.03,3.82,12.03z M3.82,10.58c0.6,0,1.08-0.18,1.44-0.55
		c0.36-0.37,0.54-0.91,0.54-1.65v-1.4c0-0.73-0.18-1.28-0.54-1.65C4.9,4.97,4.42,4.78,3.82,4.78S2.75,4.97,2.38,5.33
		C2.02,5.7,1.84,6.25,1.84,6.98v1.4c0,0.73,0.18,1.28,0.54,1.65C2.75,10.39,3.23,10.58,3.82,10.58z"/>
	<path class="st0" d="M9.92,4.94H8.66V3.52h1.26V2.14c0-0.67,0.18-1.2,0.53-1.58C10.8,0.19,11.33,0,12.03,0h1.38v1.42h-1.74v2.1
		h1.74v1.42h-1.74v6.9H9.92V4.94z"/>
	<path class="st0" d="M26,12.62c0,0.86-0.33,1.51-0.99,1.95s-1.74,0.66-3.23,0.66c-0.68,0-1.26-0.05-1.74-0.14s-0.86-0.22-1.17-0.39
		c-0.3-0.17-0.53-0.38-0.66-0.62C18.07,13.83,18,13.55,18,13.23c0-0.46,0.12-0.82,0.38-1.07c0.25-0.26,0.6-0.43,1.05-0.53v-0.18
		c-0.63-0.2-0.94-0.63-0.94-1.28c0-0.43,0.14-0.75,0.43-0.98s0.63-0.39,1.04-0.49V8.64c-0.49-0.23-0.87-0.56-1.13-0.98
		c-0.26-0.42-0.39-0.91-0.39-1.48c0-0.85,0.29-1.54,0.86-2.06c0.57-0.52,1.39-0.78,2.46-0.78c0.59,0,1.09,0.09,1.5,0.26V3.36
		c0-0.37,0.09-0.66,0.26-0.87c0.18-0.21,0.45-0.31,0.82-0.31h1.28v1.41h-1.7v0.34c0.37,0.25,0.66,0.56,0.86,0.95
		c0.2,0.39,0.3,0.82,0.3,1.3c0,0.84-0.29,1.52-0.86,2.04c-0.58,0.52-1.4,0.78-2.46,0.78c-0.41,0-0.77-0.04-1.09-0.13
		c-0.21,0.07-0.4,0.18-0.56,0.31c-0.16,0.13-0.24,0.31-0.24,0.52c0,0.22,0.1,0.38,0.3,0.48c0.2,0.1,0.49,0.14,0.86,0.14h2.05
		c1.02,0,1.77,0.21,2.22,0.62C25.77,11.35,26,11.91,26,12.62z M24.37,12.82c0-0.29-0.11-0.52-0.33-0.69
		c-0.22-0.17-0.62-0.26-1.19-0.26h-2.82c-0.38,0.22-0.58,0.54-0.58,0.96c0,0.34,0.14,0.62,0.41,0.82c0.27,0.21,0.73,0.31,1.38,0.31
		h1.09C23.69,13.97,24.37,13.58,24.37,12.82z M21.76,7.73c0.51,0,0.91-0.11,1.19-0.34c0.28-0.23,0.42-0.58,0.42-1.06V6
		c0-0.48-0.14-0.83-0.42-1.06c-0.28-0.23-0.68-0.34-1.19-0.34c-0.51,0-0.91,0.11-1.19,0.34C20.28,5.17,20.14,5.52,20.14,6v0.32
		c0,0.48,0.14,0.83,0.42,1.06C20.85,7.61,21.25,7.73,21.76,7.73z"/>
	<path class="st0" d="M33.34,11.84c-0.46,0-0.81-0.13-1.06-0.39c-0.25-0.26-0.39-0.59-0.45-1h-0.08c-0.16,0.52-0.45,0.92-0.88,1.18
		s-0.94,0.4-1.55,0.4c-0.86,0-1.53-0.22-1.99-0.67c-0.46-0.45-0.7-1.05-0.7-1.81c0-0.83,0.3-1.46,0.9-1.87s1.49-0.62,2.65-0.62h1.5
		v-0.7c0-0.51-0.14-0.91-0.42-1.18s-0.71-0.42-1.3-0.42c-0.49,0-0.89,0.11-1.2,0.32C28.47,5.29,28.21,5.56,28,5.89l-1.04-0.94
		c0.28-0.47,0.67-0.86,1.17-1.16c0.5-0.3,1.16-0.46,1.97-0.46c1.08,0,1.9,0.25,2.48,0.75s0.86,1.22,0.86,2.16v4.18h0.88v1.42H33.34z
		 M29.82,10.7c0.54,0,0.99-0.12,1.34-0.36c0.35-0.24,0.53-0.56,0.53-0.97v-1.2h-1.47c-1.21,0-1.81,0.37-1.81,1.12v0.29
		c0,0.37,0.12,0.65,0.38,0.84S29.38,10.7,29.82,10.7z"/>
	<path class="st0" d="M36.03,11.84V3.52h1.74v1.6h0.08c0.12-0.43,0.36-0.8,0.74-1.12c0.37-0.32,0.89-0.48,1.55-0.48h0.46V5.2h-0.69
		c-0.69,0-1.22,0.11-1.59,0.34c-0.37,0.22-0.55,0.56-0.55,0.99v5.31H36.03z"/>
	<path class="st0" d="M42.16,0h1.74v4.9h0.08c0.18-0.5,0.48-0.89,0.89-1.16c0.41-0.27,0.89-0.41,1.45-0.41
		c1.06,0,1.87,0.38,2.45,1.14c0.58,0.76,0.86,1.83,0.86,3.21s-0.29,2.45-0.86,3.21c-0.58,0.76-1.39,1.14-2.45,1.14
		c-0.55,0-1.04-0.14-1.45-0.42c-0.41-0.28-0.71-0.66-0.89-1.15H43.9v1.38h-1.74V0z M45.79,10.53c0.61,0,1.09-0.19,1.46-0.58
		c0.36-0.39,0.54-0.9,0.54-1.54V6.96c0-0.64-0.18-1.15-0.54-1.54c-0.36-0.39-0.85-0.58-1.46-0.58c-0.53,0-0.98,0.13-1.34,0.39
		c-0.36,0.26-0.54,0.61-0.54,1.03V9.1c0,0.43,0.18,0.77,0.54,1.03C44.81,10.4,45.26,10.53,45.79,10.53z"/>
	<path class="st0" d="M57.73,11.84c-0.46,0-0.81-0.13-1.06-0.39c-0.25-0.26-0.39-0.59-0.45-1h-0.08c-0.16,0.52-0.45,0.92-0.88,1.18
		s-0.94,0.4-1.55,0.4c-0.86,0-1.53-0.22-1.99-0.67c-0.46-0.45-0.7-1.05-0.7-1.81c0-0.83,0.3-1.46,0.9-1.87s1.49-0.62,2.65-0.62h1.5
		v-0.7c0-0.51-0.14-0.91-0.42-1.18s-0.71-0.42-1.3-0.42c-0.49,0-0.89,0.11-1.2,0.32c-0.31,0.21-0.57,0.49-0.78,0.82l-1.04-0.94
		c0.28-0.47,0.67-0.86,1.17-1.16c0.5-0.3,1.16-0.46,1.97-0.46c1.08,0,1.9,0.25,2.48,0.75s0.86,1.22,0.86,2.16v4.18h0.88v1.42H57.73z
		 M54.21,10.7c0.54,0,0.99-0.12,1.34-0.36c0.35-0.24,0.53-0.56,0.53-0.97v-1.2h-1.47c-1.21,0-1.81,0.37-1.81,1.12v0.29
		c0,0.37,0.12,0.65,0.38,0.84S53.77,10.7,54.21,10.7z"/>
	<path class="st0" d="M67.71,12.62c0,0.86-0.33,1.51-0.99,1.95s-1.74,0.66-3.23,0.66c-0.68,0-1.26-0.05-1.74-0.14
		s-0.86-0.22-1.17-0.39c-0.3-0.17-0.53-0.38-0.66-0.62c-0.14-0.25-0.21-0.53-0.21-0.85c0-0.46,0.12-0.82,0.38-1.07
		c0.25-0.26,0.6-0.43,1.05-0.53v-0.18c-0.63-0.2-0.94-0.63-0.94-1.28c0-0.43,0.14-0.75,0.43-0.98s0.63-0.39,1.04-0.49V8.64
		c-0.49-0.23-0.87-0.56-1.13-0.98c-0.26-0.42-0.39-0.91-0.39-1.48c0-0.85,0.29-1.54,0.86-2.06c0.57-0.52,1.39-0.78,2.46-0.78
		c0.59,0,1.09,0.09,1.5,0.26V3.36c0-0.37,0.09-0.66,0.26-0.87c0.18-0.21,0.45-0.31,0.82-0.31h1.28v1.41h-1.7v0.34
		c0.37,0.25,0.66,0.56,0.86,0.95c0.2,0.39,0.3,0.82,0.3,1.3c0,0.84-0.29,1.52-0.86,2.04c-0.58,0.52-1.4,0.78-2.46,0.78
		c-0.41,0-0.77-0.04-1.09-0.13c-0.21,0.07-0.4,0.18-0.56,0.31c-0.16,0.13-0.24,0.31-0.24,0.52c0,0.22,0.1,0.38,0.3,0.48
		c0.2,0.1,0.49,0.14,0.86,0.14h2.05c1.02,0,1.77,0.21,2.22,0.62C67.48,11.35,67.71,11.91,67.71,12.62z M66.08,12.82
		c0-0.29-0.11-0.52-0.33-0.69c-0.22-0.17-0.62-0.26-1.19-0.26h-2.82c-0.38,0.22-0.58,0.54-0.58,0.96c0,0.34,0.14,0.62,0.41,0.82
		c0.27,0.21,0.73,0.31,1.38,0.31h1.09C65.4,13.97,66.08,13.58,66.08,12.82z M63.47,7.73c0.51,0,0.91-0.11,1.19-0.34
		c0.28-0.23,0.42-0.58,0.42-1.06V6c0-0.48-0.14-0.83-0.42-1.06c-0.28-0.23-0.68-0.34-1.19-0.34c-0.51,0-0.91,0.11-1.19,0.34
		C62,5.17,61.85,5.52,61.85,6v0.32c0,0.48,0.14,0.83,0.42,1.06C62.56,7.61,62.96,7.73,63.47,7.73z"/>
	<path class="st0" d="M72.17,12.03c-0.6,0-1.13-0.1-1.6-0.3c-0.47-0.2-0.87-0.49-1.2-0.87s-0.58-0.84-0.76-1.38s-0.26-1.14-0.26-1.8
		c0-0.66,0.09-1.26,0.26-1.8s0.43-1,0.76-1.38c0.33-0.38,0.73-0.67,1.2-0.87c0.47-0.2,1-0.3,1.6-0.3c0.61,0,1.14,0.11,1.61,0.32
		s0.85,0.51,1.16,0.89c0.31,0.38,0.54,0.82,0.7,1.32c0.16,0.5,0.23,1.04,0.23,1.62v0.66h-5.71V8.4c0,0.64,0.19,1.16,0.57,1.57
		c0.38,0.41,0.92,0.61,1.62,0.61c0.51,0,0.94-0.11,1.3-0.33c0.35-0.22,0.65-0.52,0.9-0.91l1.02,1.01c-0.31,0.51-0.76,0.92-1.34,1.23
		C73.63,11.88,72.95,12.03,72.17,12.03z M72.17,4.69c-0.3,0-0.57,0.05-0.82,0.16C71.1,4.95,70.88,5.1,70.71,5.3S70.4,5.72,70.3,5.98
		c-0.1,0.27-0.14,0.56-0.14,0.88v0.11h3.87V6.82c0-0.64-0.17-1.15-0.5-1.54C73.2,4.88,72.75,4.69,72.17,4.69z"/>
	<path class="st0" d="M81.58,3.52h1.74V4.9h0.08c0.18-0.5,0.48-0.89,0.89-1.16c0.41-0.27,0.89-0.41,1.45-0.41
		c1.06,0,1.87,0.38,2.45,1.14c0.58,0.76,0.86,1.83,0.86,3.21s-0.29,2.45-0.86,3.21c-0.58,0.76-1.39,1.14-2.45,1.14
		c-0.55,0-1.04-0.14-1.45-0.42c-0.41-0.28-0.71-0.66-0.89-1.15h-0.08v4.58h-1.74V3.52z M85.21,10.53c0.61,0,1.09-0.19,1.46-0.58
		c0.36-0.39,0.54-0.9,0.54-1.54V6.96c0-0.64-0.18-1.15-0.54-1.54c-0.36-0.39-0.85-0.58-1.46-0.58c-0.53,0-0.98,0.13-1.34,0.39
		c-0.36,0.26-0.54,0.61-0.54,1.03V9.1c0,0.43,0.18,0.77,0.54,1.03C84.23,10.4,84.68,10.53,85.21,10.53z"/>
	<path class="st0" d="M94.32,12.03c-0.6,0-1.13-0.1-1.6-0.3c-0.47-0.2-0.87-0.49-1.2-0.87s-0.58-0.84-0.76-1.38s-0.26-1.14-0.26-1.8
		c0-0.66,0.09-1.26,0.26-1.8s0.43-1,0.76-1.38c0.33-0.38,0.73-0.67,1.2-0.87c0.47-0.2,1-0.3,1.6-0.3c0.61,0,1.14,0.11,1.61,0.32
		s0.85,0.51,1.16,0.89c0.31,0.38,0.54,0.82,0.7,1.32c0.16,0.5,0.23,1.04,0.23,1.62v0.66H92.3V8.4c0,0.64,0.19,1.16,0.57,1.57
		c0.38,0.41,0.92,0.61,1.62,0.61c0.51,0,0.94-0.11,1.3-0.33c0.35-0.22,0.65-0.52,0.9-0.91l1.02,1.01c-0.31,0.51-0.76,0.92-1.34,1.23
		C95.78,11.88,95.1,12.03,94.32,12.03z M94.32,4.69c-0.3,0-0.57,0.05-0.82,0.16c-0.25,0.11-0.46,0.26-0.64,0.45
		s-0.31,0.42-0.41,0.69c-0.1,0.27-0.14,0.56-0.14,0.88v0.11h3.87V6.82c0-0.64-0.17-1.15-0.5-1.54C95.35,4.88,94.89,4.69,94.32,4.69z
		"/>
	<path class="st0" d="M99.95,11.84V3.52h1.74v1.6h0.08c0.12-0.43,0.36-0.8,0.74-1.12c0.37-0.32,0.89-0.48,1.55-0.48h0.46V5.2h-0.69
		c-0.69,0-1.22,0.11-1.59,0.34c-0.37,0.22-0.55,0.56-0.55,0.99v5.31H99.95z"/>
	<path class="st0" d="M114.96,3.52h1.68l-3.5,9.97c-0.1,0.28-0.21,0.51-0.33,0.71c-0.12,0.2-0.27,0.36-0.43,0.48
		c-0.17,0.12-0.37,0.21-0.6,0.27s-0.51,0.09-0.83,0.09h-1.01v-1.42h1.41l0.48-1.41l-3.02-8.69h1.74l1.66,4.9l0.48,1.81h0.08
		l0.53-1.81L114.96,3.52z"/>
	<path class="st0" d="M121.24,12.03c-0.6,0-1.13-0.1-1.6-0.3c-0.47-0.2-0.87-0.49-1.2-0.87s-0.58-0.84-0.76-1.38
		s-0.26-1.14-0.26-1.8c0-0.66,0.09-1.26,0.26-1.8s0.43-1,0.76-1.38c0.33-0.38,0.73-0.67,1.2-0.87c0.47-0.2,1-0.3,1.6-0.3
		c0.61,0,1.14,0.11,1.61,0.32s0.85,0.51,1.16,0.89c0.31,0.38,0.54,0.82,0.7,1.32c0.16,0.5,0.23,1.04,0.23,1.62v0.66h-5.71V8.4
		c0,0.64,0.19,1.16,0.57,1.57c0.38,0.41,0.92,0.61,1.62,0.61c0.51,0,0.94-0.11,1.3-0.33c0.35-0.22,0.65-0.52,0.9-0.91l1.02,1.01
		c-0.31,0.51-0.76,0.92-1.34,1.23C122.71,11.88,122.02,12.03,121.24,12.03z M121.24,4.69c-0.3,0-0.57,0.05-0.82,0.16
		c-0.25,0.11-0.46,0.26-0.64,0.45s-0.31,0.42-0.41,0.69c-0.1,0.27-0.14,0.56-0.14,0.88v0.11h3.87V6.82c0-0.64-0.17-1.15-0.5-1.54
		C122.27,4.88,121.82,4.69,121.24,4.69z"/>
	<path class="st0" d="M132.97,11.84c-0.46,0-0.81-0.13-1.06-0.39c-0.25-0.26-0.39-0.59-0.45-1h-0.08c-0.16,0.52-0.45,0.92-0.88,1.18
		s-0.94,0.4-1.55,0.4c-0.86,0-1.53-0.22-1.99-0.67c-0.46-0.45-0.7-1.05-0.7-1.81c0-0.83,0.3-1.46,0.9-1.87s1.49-0.62,2.65-0.62h1.5
		v-0.7c0-0.51-0.14-0.91-0.42-1.18s-0.71-0.42-1.3-0.42c-0.49,0-0.89,0.11-1.2,0.32c-0.31,0.21-0.57,0.49-0.78,0.82l-1.04-0.94
		c0.28-0.47,0.67-0.86,1.17-1.16c0.5-0.3,1.16-0.46,1.97-0.46c1.08,0,1.9,0.25,2.48,0.75s0.86,1.22,0.86,2.16v4.18h0.88v1.42H132.97
		z M129.45,10.7c0.54,0,0.99-0.12,1.34-0.36c0.35-0.24,0.53-0.56,0.53-0.97v-1.2h-1.47c-1.21,0-1.81,0.37-1.81,1.12v0.29
		c0,0.37,0.12,0.65,0.38,0.84S129.01,10.7,129.45,10.7z"/>
	<path class="st0" d="M135.66,11.84V3.52h1.74v1.6h0.08c0.12-0.43,0.36-0.8,0.74-1.12c0.37-0.32,0.89-0.48,1.55-0.48h0.46V5.2h-0.69
		c-0.69,0-1.22,0.11-1.59,0.34c-0.37,0.22-0.55,0.56-0.55,0.99v5.31H135.66z"/>
	<path class="st0" d="M141.58,12.03c-0.4,0-0.69-0.1-0.88-0.31c-0.19-0.21-0.29-0.47-0.29-0.78V10.7c0-0.31,0.1-0.57,0.29-0.78
		c0.19-0.21,0.48-0.31,0.88-0.31c0.39,0,0.69,0.1,0.88,0.31c0.19,0.21,0.29,0.47,0.29,0.78v0.24c0,0.31-0.1,0.57-0.29,0.78
		C142.27,11.93,141.98,12.03,141.58,12.03z"/>
</g>
</svg>
