<!-- Generator: Adobe Illustrator 23.1.1, SVG Export Plug-In  -->
<svg version="1.1" xmlns="http://www.w3.org/2000/svg" xmlns:xlink="http://www.w3.org/1999/xlink" x="0px" y="0px"
	 width="292.46px" height="15.36px" viewBox="0 0 292.46 15.36" style="enable-background:new 0 0 292.46 15.36;"
	 xml:space="preserve">
<style type="text/css">
	.st0{fill:#FFFFFF;}
</style>
<defs>
</defs>
<g>
	<path class="st0" d="M0,7.18c0-0.78,0.07-1.53,0.22-2.24c0.14-0.71,0.34-1.38,0.6-2s0.56-1.18,0.9-1.68S2.44,0.34,2.85,0H4.5
		C4.06,0.41,3.66,0.86,3.31,1.36c-0.35,0.5-0.65,1.03-0.9,1.6C2.17,3.53,1.98,4.11,1.85,4.72c-0.13,0.61-0.2,1.22-0.2,1.82v1.28
		c0,0.61,0.07,1.22,0.2,1.82c0.13,0.61,0.32,1.19,0.57,1.76s0.54,1.1,0.9,1.61c0.35,0.51,0.75,0.96,1.18,1.35H2.85
		c-0.41-0.34-0.78-0.76-1.13-1.26s-0.65-1.06-0.9-1.68s-0.46-1.29-0.6-2C0.07,8.71,0,7.96,0,7.18z"/>
	<path class="st0" d="M7.92,12.16c-0.61,0-1.07-0.16-1.38-0.47c-0.31-0.31-0.46-0.76-0.46-1.34V5.26h-1.3V3.84h0.7
		c0.29,0,0.49-0.06,0.6-0.19C6.2,3.52,6.26,3.31,6.26,3.02V1.57h1.57v2.27h1.74v1.42H7.82v5.47h1.62v1.42H7.92z"/>
	<path class="st0" d="M11.46,0.32h1.74v4.9h0.08c0.18-0.45,0.46-0.82,0.82-1.12c0.37-0.3,0.87-0.45,1.51-0.45
		c0.85,0,1.52,0.28,1.99,0.84c0.47,0.56,0.71,1.36,0.71,2.39v5.28h-1.74V7.09c0-1.29-0.52-1.94-1.57-1.94
		c-0.22,0-0.45,0.03-0.66,0.09s-0.41,0.15-0.58,0.26c-0.17,0.12-0.31,0.27-0.41,0.45c-0.1,0.18-0.15,0.39-0.15,0.62v5.58h-1.74V0.32
		z"/>
	<path class="st0" d="M26.83,12.16c-0.46,0-0.81-0.13-1.06-0.39c-0.25-0.26-0.39-0.59-0.45-1h-0.08c-0.16,0.52-0.45,0.92-0.88,1.18
		s-0.94,0.4-1.55,0.4c-0.86,0-1.53-0.22-1.99-0.67c-0.46-0.45-0.7-1.05-0.7-1.81c0-0.83,0.3-1.46,0.9-1.87s1.49-0.62,2.65-0.62h1.5
		v-0.7c0-0.51-0.14-0.91-0.42-1.18s-0.71-0.42-1.3-0.42c-0.49,0-0.89,0.11-1.2,0.32c-0.31,0.21-0.57,0.49-0.78,0.82l-1.04-0.94
		c0.28-0.47,0.67-0.86,1.17-1.16c0.5-0.3,1.16-0.46,1.97-0.46c1.08,0,1.9,0.25,2.48,0.75s0.86,1.22,0.86,2.16v4.18h0.88v1.42H26.83z
		 M23.31,11.02c0.54,0,0.99-0.12,1.34-0.36c0.35-0.24,0.53-0.56,0.53-0.97V8.5h-1.47c-1.21,0-1.81,0.37-1.81,1.12V9.9
		c0,0.37,0.12,0.65,0.38,0.84S22.88,11.02,23.31,11.02z"/>
	<path class="st0" d="M31.78,12.16c-0.61,0-1.07-0.16-1.38-0.47c-0.31-0.31-0.46-0.76-0.46-1.34V5.26h-1.3V3.84h0.7
		c0.29,0,0.49-0.06,0.6-0.19c0.11-0.13,0.17-0.34,0.17-0.62V1.57h1.57v2.27h1.74v1.42h-1.74v5.47h1.62v1.42H31.78z"/>
	<path class="st0" d="M36.61,0.16c0.41,0,0.7,0.1,0.88,0.29c0.18,0.19,0.27,0.44,0.27,0.75v0.27c0,0.26-0.04,0.52-0.11,0.79
		c-0.08,0.27-0.18,0.54-0.32,0.81s-0.3,0.52-0.5,0.77c-0.19,0.25-0.41,0.46-0.64,0.66h-1.25c0.34-0.33,0.62-0.66,0.83-0.98
		c0.21-0.32,0.38-0.67,0.5-1.04c-0.28-0.05-0.48-0.17-0.62-0.35c-0.13-0.18-0.2-0.39-0.2-0.64V1.2c0-0.31,0.09-0.56,0.27-0.75
		C35.91,0.26,36.2,0.16,36.61,0.16z"/>
	<path class="st0" d="M41.78,12.35c-0.79,0-1.45-0.14-1.98-0.42c-0.53-0.28-1-0.66-1.39-1.15l1.12-1.02
		c0.31,0.37,0.65,0.66,1.03,0.87s0.82,0.31,1.32,0.31c0.51,0,0.89-0.1,1.14-0.3c0.25-0.2,0.38-0.47,0.38-0.82
		c0-0.27-0.09-0.49-0.26-0.68c-0.18-0.19-0.48-0.31-0.92-0.36l-0.77-0.1c-0.85-0.11-1.52-0.35-2.01-0.74
		c-0.49-0.39-0.73-0.97-0.73-1.74c0-0.41,0.07-0.77,0.22-1.08c0.15-0.31,0.36-0.58,0.63-0.8c0.27-0.22,0.6-0.39,0.98-0.5
		c0.38-0.12,0.8-0.18,1.26-0.18c0.75,0,1.36,0.12,1.83,0.35c0.47,0.23,0.9,0.56,1.27,0.98L43.82,6c-0.21-0.26-0.49-0.48-0.84-0.66
		c-0.35-0.19-0.74-0.28-1.19-0.28c-0.48,0-0.83,0.1-1.06,0.29s-0.34,0.44-0.34,0.75c0,0.32,0.1,0.56,0.3,0.72
		c0.2,0.16,0.53,0.28,0.98,0.35l0.77,0.1c0.92,0.14,1.59,0.41,2.01,0.81c0.42,0.4,0.63,0.94,0.63,1.61c0,0.41-0.08,0.77-0.23,1.1
		c-0.16,0.33-0.38,0.61-0.66,0.84c-0.29,0.23-0.63,0.42-1.04,0.54S42.28,12.35,41.78,12.35z"/>
	<path class="st0" d="M53.12,12.16c-0.61,0-1.07-0.16-1.38-0.47c-0.31-0.31-0.46-0.76-0.46-1.34V5.26h-1.3V3.84h0.7
		c0.29,0,0.49-0.06,0.6-0.19c0.11-0.13,0.17-0.34,0.17-0.62V1.57h1.57v2.27h1.74v1.42h-1.74v5.47h1.62v1.42H53.12z"/>
	<path class="st0" d="M62.75,12.16c-0.46,0-0.81-0.13-1.06-0.39c-0.25-0.26-0.39-0.59-0.45-1h-0.08c-0.16,0.52-0.45,0.92-0.88,1.18
		s-0.94,0.4-1.55,0.4c-0.86,0-1.53-0.22-1.99-0.67c-0.46-0.45-0.7-1.05-0.7-1.81c0-0.83,0.3-1.46,0.9-1.87s1.49-0.62,2.65-0.62h1.5
		v-0.7c0-0.51-0.14-0.91-0.42-1.18s-0.71-0.42-1.3-0.42c-0.49,0-0.89,0.11-1.2,0.32c-0.31,0.21-0.57,0.49-0.78,0.82l-1.04-0.94
		c0.28-0.47,0.67-0.86,1.17-1.16c0.5-0.3,1.16-0.46,1.97-0.46c1.08,0,1.9,0.25,2.48,0.75s0.86,1.22,0.86,2.16v4.18h0.88v1.42H62.75z
		 M59.23,11.02c0.54,0,0.99-0.12,1.34-0.36c0.35-0.24,0.53-0.56,0.53-0.97V8.5h-1.47c-1.21,0-1.81,0.37-1.81,1.12V9.9
		c0,0.37,0.12,0.65,0.38,0.84S58.79,11.02,59.23,11.02z"/>
	<path class="st0" d="M67.22,12.16c-0.6,0-1.04-0.15-1.34-0.46c-0.29-0.3-0.44-0.73-0.44-1.27V0.32h1.74v10.42h1.15v1.42H67.22z"/>
	<path class="st0" d="M71.68,12.16c-0.6,0-1.04-0.15-1.34-0.46c-0.29-0.3-0.44-0.73-0.44-1.27V0.32h1.74v10.42h1.15v1.42H71.68z"/>
	<path class="st0" d="M77.73,12.35c-0.6,0-1.13-0.1-1.6-0.3c-0.47-0.2-0.87-0.49-1.2-0.87s-0.58-0.84-0.76-1.38S73.9,8.66,73.9,8
		c0-0.66,0.09-1.26,0.26-1.8s0.43-1,0.76-1.38c0.33-0.38,0.73-0.67,1.2-0.87c0.47-0.2,1-0.3,1.6-0.3c0.61,0,1.14,0.11,1.61,0.32
		s0.85,0.51,1.16,0.89c0.31,0.38,0.54,0.82,0.7,1.32c0.16,0.5,0.23,1.04,0.23,1.62v0.66h-5.71v0.27c0,0.64,0.19,1.16,0.57,1.57
		c0.38,0.41,0.92,0.61,1.62,0.61c0.51,0,0.94-0.11,1.3-0.33c0.35-0.22,0.65-0.52,0.9-0.91l1.02,1.01c-0.31,0.51-0.76,0.92-1.34,1.23
		C79.19,12.2,78.5,12.35,77.73,12.35z M77.73,5.01c-0.3,0-0.57,0.05-0.82,0.16c-0.25,0.11-0.46,0.26-0.64,0.45s-0.31,0.42-0.41,0.69
		c-0.1,0.27-0.14,0.56-0.14,0.88V7.3h3.87V7.14c0-0.64-0.17-1.15-0.5-1.54C78.76,5.2,78.3,5.01,77.73,5.01z"/>
	<path class="st0" d="M83.36,12.16V3.84h1.74v1.6h0.08c0.12-0.43,0.36-0.8,0.74-1.12c0.37-0.32,0.89-0.48,1.55-0.48h0.46v1.68h-0.69
		c-0.69,0-1.22,0.11-1.59,0.34c-0.37,0.22-0.55,0.56-0.55,0.99v5.31H83.36z"/>
	<path class="st0" d="M95.57,12.16c-0.61,0-1.07-0.16-1.38-0.47c-0.31-0.31-0.46-0.76-0.46-1.34V5.26h-1.3V3.84h0.7
		c0.29,0,0.49-0.06,0.6-0.19c0.11-0.13,0.17-0.34,0.17-0.62V1.57h1.57v2.27h1.74v1.42h-1.74v5.47h1.62v1.42H95.57z"/>
	<path class="st0" d="M99.1,0.32h1.74v4.9h0.08c0.18-0.45,0.46-0.82,0.82-1.12c0.37-0.3,0.87-0.45,1.51-0.45
		c0.85,0,1.52,0.28,1.99,0.84c0.47,0.56,0.71,1.36,0.71,2.39v5.28h-1.74V7.09c0-1.29-0.52-1.94-1.57-1.94
		c-0.22,0-0.45,0.03-0.66,0.09s-0.41,0.15-0.58,0.26c-0.17,0.12-0.31,0.27-0.41,0.45c-0.1,0.18-0.15,0.39-0.15,0.62v5.58H99.1V0.32z
		"/>
	<path class="st0" d="M114.48,12.16c-0.46,0-0.81-0.13-1.06-0.39c-0.25-0.26-0.39-0.59-0.45-1h-0.08c-0.16,0.52-0.45,0.92-0.88,1.18
		s-0.94,0.4-1.55,0.4c-0.86,0-1.53-0.22-1.99-0.67c-0.46-0.45-0.7-1.05-0.7-1.81c0-0.83,0.3-1.46,0.9-1.87s1.49-0.62,2.65-0.62h1.5
		v-0.7c0-0.51-0.14-0.91-0.42-1.18s-0.71-0.42-1.3-0.42c-0.49,0-0.89,0.11-1.2,0.32c-0.31,0.21-0.57,0.49-0.78,0.82l-1.04-0.94
		c0.28-0.47,0.67-0.86,1.17-1.16c0.5-0.3,1.16-0.46,1.97-0.46c1.08,0,1.9,0.25,2.48,0.75s0.86,1.22,0.86,2.16v4.18h0.88v1.42H114.48
		z M110.96,11.02c0.54,0,0.99-0.12,1.34-0.36c0.35-0.24,0.53-0.56,0.53-0.97V8.5h-1.47c-1.21,0-1.81,0.37-1.81,1.12V9.9
		c0,0.37,0.12,0.65,0.38,0.84S110.52,11.02,110.96,11.02z"/>
	<path class="st0" d="M117.17,12.16V3.84h1.74v1.38h0.08c0.18-0.45,0.46-0.82,0.82-1.12c0.37-0.3,0.87-0.45,1.51-0.45
		c0.85,0,1.52,0.28,1.99,0.84c0.47,0.56,0.71,1.36,0.71,2.39v5.28h-1.74V7.1c0-1.3-0.52-1.95-1.57-1.95c-0.22,0-0.45,0.03-0.66,0.09
		s-0.41,0.15-0.58,0.26c-0.17,0.12-0.31,0.27-0.41,0.45c-0.1,0.18-0.15,0.39-0.15,0.64v5.57H117.17z"/>
	<path class="st0" d="M136.32,12.16c-0.46,0-0.81-0.13-1.06-0.39c-0.25-0.26-0.39-0.59-0.45-1h-0.08c-0.16,0.52-0.45,0.92-0.88,1.18
		s-0.94,0.4-1.55,0.4c-0.86,0-1.53-0.22-1.99-0.67c-0.46-0.45-0.7-1.05-0.7-1.81c0-0.83,0.3-1.46,0.9-1.87s1.49-0.62,2.65-0.62h1.5
		v-0.7c0-0.51-0.14-0.91-0.42-1.18s-0.71-0.42-1.3-0.42c-0.49,0-0.89,0.11-1.2,0.32c-0.31,0.21-0.57,0.49-0.78,0.82l-1.04-0.94
		c0.28-0.47,0.67-0.86,1.17-1.16c0.5-0.3,1.16-0.46,1.97-0.46c1.08,0,1.9,0.25,2.48,0.75s0.86,1.22,0.86,2.16v4.18h0.88v1.42H136.32
		z M132.8,11.02c0.54,0,0.99-0.12,1.34-0.36c0.35-0.24,0.53-0.56,0.53-0.97V8.5h-1.47c-1.21,0-1.81,0.37-1.81,1.12V9.9
		c0,0.37,0.12,0.65,0.38,0.84S132.36,11.02,132.8,11.02z"/>
	<path class="st0" d="M139.01,12.16V3.84h1.74v1.38h0.08c0.18-0.45,0.46-0.82,0.82-1.12c0.37-0.3,0.87-0.45,1.51-0.45
		c0.85,0,1.52,0.28,1.99,0.84c0.47,0.56,0.71,1.36,0.71,2.39v5.28h-1.74V7.1c0-1.3-0.52-1.95-1.57-1.95c-0.22,0-0.45,0.03-0.66,0.09
		s-0.41,0.15-0.58,0.26c-0.17,0.12-0.31,0.27-0.41,0.45c-0.1,0.18-0.15,0.39-0.15,0.64v5.57H139.01z"/>
	<path class="st0" d="M153.26,3.84h1.68l-3.5,9.97c-0.1,0.28-0.21,0.51-0.33,0.71c-0.12,0.2-0.27,0.36-0.43,0.48
		c-0.17,0.12-0.37,0.21-0.6,0.27s-0.51,0.09-0.83,0.09h-1.01v-1.42h1.41l0.48-1.41l-3.02-8.69h1.74l1.66,4.9l0.48,1.81h0.08
		l0.53-1.81L153.26,3.84z"/>
	<path class="st0" d="M160.16,3.84h1.74v1.38h0.08c0.18-0.5,0.48-0.89,0.89-1.16c0.41-0.27,0.89-0.41,1.45-0.41
		c1.06,0,1.87,0.38,2.45,1.14c0.58,0.76,0.86,1.83,0.86,3.21s-0.29,2.45-0.86,3.21c-0.58,0.76-1.39,1.14-2.45,1.14
		c-0.55,0-1.04-0.14-1.45-0.42c-0.41-0.28-0.71-0.66-0.89-1.15h-0.08v4.58h-1.74V3.84z M163.79,10.85c0.61,0,1.09-0.19,1.46-0.58
		c0.36-0.39,0.54-0.9,0.54-1.54V7.28c0-0.64-0.18-1.15-0.54-1.54c-0.36-0.39-0.85-0.58-1.46-0.58c-0.53,0-0.98,0.13-1.34,0.39
		c-0.36,0.26-0.54,0.61-0.54,1.03v2.85c0,0.43,0.18,0.77,0.54,1.03C162.81,10.72,163.26,10.85,163.79,10.85z"/>
	<path class="st0" d="M172.89,12.35c-0.6,0-1.13-0.1-1.6-0.3c-0.47-0.2-0.87-0.49-1.2-0.87s-0.58-0.84-0.76-1.38
		s-0.26-1.14-0.26-1.8c0-0.66,0.09-1.26,0.26-1.8s0.43-1,0.76-1.38c0.33-0.38,0.73-0.67,1.2-0.87c0.47-0.2,1-0.3,1.6-0.3
		c0.61,0,1.14,0.11,1.61,0.32s0.85,0.51,1.16,0.89c0.31,0.38,0.54,0.82,0.7,1.32c0.16,0.5,0.23,1.04,0.23,1.62v0.66h-5.71v0.27
		c0,0.64,0.19,1.16,0.57,1.57c0.38,0.41,0.92,0.61,1.62,0.61c0.51,0,0.94-0.11,1.3-0.33c0.35-0.22,0.65-0.52,0.9-0.91l1.02,1.01
		c-0.31,0.51-0.76,0.92-1.34,1.23C174.36,12.2,173.67,12.35,172.89,12.35z M172.89,5.01c-0.3,0-0.57,0.05-0.82,0.16
		c-0.25,0.11-0.46,0.26-0.64,0.45s-0.31,0.42-0.41,0.69c-0.1,0.27-0.14,0.56-0.14,0.88V7.3h3.87V7.14c0-0.64-0.17-1.15-0.5-1.54
		C173.92,5.2,173.47,5.01,172.89,5.01z"/>
	<path class="st0" d="M184.62,12.16c-0.46,0-0.81-0.13-1.06-0.39c-0.25-0.26-0.39-0.59-0.45-1h-0.08c-0.16,0.52-0.45,0.92-0.88,1.18
		s-0.94,0.4-1.55,0.4c-0.86,0-1.53-0.22-1.99-0.67c-0.46-0.45-0.7-1.05-0.7-1.81c0-0.83,0.3-1.46,0.9-1.87s1.49-0.62,2.65-0.62h1.5
		v-0.7c0-0.51-0.14-0.91-0.42-1.18s-0.71-0.42-1.3-0.42c-0.49,0-0.89,0.11-1.2,0.32c-0.31,0.21-0.57,0.49-0.78,0.82l-1.04-0.94
		c0.28-0.47,0.67-0.86,1.17-1.16c0.5-0.3,1.16-0.46,1.97-0.46c1.08,0,1.9,0.25,2.48,0.75s0.86,1.22,0.86,2.16v4.18h0.88v1.42H184.62
		z M181.1,11.02c0.54,0,0.99-0.12,1.34-0.36c0.35-0.24,0.53-0.56,0.53-0.97V8.5h-1.47c-1.21,0-1.81,0.37-1.81,1.12V9.9
		c0,0.37,0.12,0.65,0.38,0.84S180.66,11.02,181.1,11.02z"/>
	<path class="st0" d="M187.31,0.32h1.74v7.26h0.08l1.15-1.49l2-2.26h2.03l-2.91,3.22l3.26,5.1h-2.08l-2.38-3.97l-1.15,1.25v2.72
		h-1.74V0.32z"/>
	<path class="st0" d="M200.72,2.35c-0.36,0-0.63-0.08-0.79-0.26c-0.17-0.17-0.25-0.39-0.25-0.66V1.17c0-0.27,0.08-0.48,0.25-0.66
		c0.17-0.17,0.43-0.26,0.79-0.26s0.62,0.09,0.78,0.26c0.16,0.17,0.24,0.39,0.24,0.66v0.27c0,0.27-0.08,0.49-0.24,0.66
		C201.34,2.27,201.08,2.35,200.72,2.35z M199.84,3.84h1.74v8.32h-1.74V3.84z"/>
	<path class="st0" d="M204.08,12.16V3.84h1.74v1.38h0.08c0.18-0.45,0.46-0.82,0.82-1.12c0.37-0.3,0.87-0.45,1.51-0.45
		c0.85,0,1.52,0.28,1.99,0.84c0.47,0.56,0.71,1.36,0.71,2.39v5.28h-1.74V7.1c0-1.3-0.52-1.95-1.57-1.95c-0.22,0-0.45,0.03-0.66,0.09
		s-0.41,0.15-0.58,0.26c-0.17,0.12-0.31,0.27-0.41,0.45c-0.1,0.18-0.15,0.39-0.15,0.64v5.57H204.08z"/>
	<path class="st0" d="M219.9,12.16v-4.4l-3.84-6.77h2.06l2.72,4.98h0.05l2.7-4.98h1.98l-3.87,6.74v4.43H219.9z"/>
	<path class="st0" d="M229.41,12.35c-0.58,0-1.1-0.1-1.58-0.3c-0.47-0.2-0.88-0.49-1.21-0.87c-0.33-0.38-0.59-0.84-0.77-1.38
		s-0.27-1.14-0.27-1.8c0-0.66,0.09-1.26,0.27-1.8s0.44-1,0.77-1.38c0.33-0.38,0.73-0.67,1.21-0.87s1-0.3,1.58-0.3s1.1,0.1,1.58,0.3
		s0.88,0.49,1.21,0.87c0.33,0.38,0.59,0.84,0.77,1.38c0.18,0.54,0.27,1.14,0.27,1.8c0,0.66-0.09,1.26-0.27,1.8
		c-0.18,0.54-0.44,1-0.77,1.38s-0.73,0.67-1.21,0.87C230.51,12.25,229.98,12.35,229.41,12.35z M229.41,10.9
		c0.6,0,1.08-0.18,1.44-0.55c0.36-0.37,0.54-0.91,0.54-1.65V7.3c0-0.73-0.18-1.28-0.54-1.65c-0.36-0.37-0.84-0.55-1.44-0.55
		s-1.08,0.18-1.44,0.55c-0.36,0.37-0.54,0.92-0.54,1.65v1.4c0,0.73,0.18,1.28,0.54,1.65C228.33,10.71,228.81,10.9,229.41,10.9z"/>
	<path class="st0" d="M237.81,12.35c-0.79,0-1.45-0.14-1.98-0.42c-0.53-0.28-1-0.66-1.39-1.15l1.12-1.02
		c0.31,0.37,0.65,0.66,1.03,0.87s0.82,0.31,1.32,0.31c0.51,0,0.89-0.1,1.14-0.3c0.25-0.2,0.38-0.47,0.38-0.82
		c0-0.27-0.09-0.49-0.26-0.68c-0.18-0.19-0.48-0.31-0.92-0.36l-0.77-0.1c-0.85-0.11-1.52-0.35-2.01-0.74
		c-0.49-0.39-0.73-0.97-0.73-1.74c0-0.41,0.07-0.77,0.22-1.08c0.15-0.31,0.36-0.58,0.63-0.8c0.27-0.22,0.6-0.39,0.98-0.5
		c0.38-0.12,0.8-0.18,1.26-0.18c0.75,0,1.36,0.12,1.83,0.35c0.47,0.23,0.9,0.56,1.27,0.98L239.85,6c-0.21-0.26-0.49-0.48-0.84-0.66
		c-0.35-0.19-0.74-0.28-1.19-0.28c-0.48,0-0.83,0.1-1.06,0.29s-0.34,0.44-0.34,0.75c0,0.32,0.1,0.56,0.3,0.72
		c0.2,0.16,0.53,0.28,0.98,0.35l0.77,0.1c0.92,0.14,1.59,0.41,2.01,0.81c0.42,0.4,0.63,0.94,0.63,1.61c0,0.41-0.08,0.77-0.23,1.1
		c-0.16,0.33-0.38,0.61-0.66,0.84c-0.29,0.23-0.63,0.42-1.04,0.54S238.31,12.35,237.81,12.35z"/>
	<path class="st0" d="M246.33,12.35c-0.6,0-1.13-0.1-1.6-0.3c-0.47-0.2-0.87-0.49-1.2-0.87s-0.58-0.84-0.76-1.38
		s-0.26-1.14-0.26-1.8c0-0.66,0.09-1.26,0.26-1.8s0.43-1,0.76-1.38c0.33-0.38,0.73-0.67,1.2-0.87c0.47-0.2,1-0.3,1.6-0.3
		c0.61,0,1.14,0.11,1.61,0.32s0.85,0.51,1.16,0.89c0.31,0.38,0.54,0.82,0.7,1.32c0.16,0.5,0.23,1.04,0.23,1.62v0.66h-5.71v0.27
		c0,0.64,0.19,1.16,0.57,1.57c0.38,0.41,0.92,0.61,1.62,0.61c0.51,0,0.94-0.11,1.3-0.33c0.35-0.22,0.65-0.52,0.9-0.91l1.02,1.01
		c-0.31,0.51-0.76,0.92-1.34,1.23C247.8,12.2,247.11,12.35,246.33,12.35z M246.33,5.01c-0.3,0-0.57,0.05-0.82,0.16
		c-0.25,0.11-0.46,0.26-0.64,0.45s-0.31,0.42-0.41,0.69c-0.1,0.27-0.14,0.56-0.14,0.88V7.3h3.87V7.14c0-0.64-0.17-1.15-0.5-1.54
		C247.36,5.2,246.91,5.01,246.33,5.01z"/>
	<path class="st0" d="M251.97,12.16V3.84h1.74v1.38h0.08c0.08-0.21,0.19-0.42,0.31-0.61c0.12-0.19,0.27-0.36,0.45-0.5
		s0.38-0.26,0.62-0.34s0.52-0.12,0.84-0.12c0.57,0,1.07,0.14,1.5,0.42c0.44,0.28,0.76,0.7,0.96,1.28h0.05
		c0.15-0.47,0.44-0.87,0.86-1.2c0.43-0.33,0.98-0.5,1.65-0.5c0.83,0,1.48,0.28,1.94,0.84s0.69,1.36,0.69,2.39v5.28h-1.74V7.09
		c0-0.64-0.12-1.12-0.37-1.45c-0.25-0.33-0.63-0.49-1.17-0.49c-0.22,0-0.44,0.03-0.64,0.09c-0.2,0.06-0.38,0.15-0.54,0.26
		c-0.16,0.12-0.28,0.27-0.38,0.45c-0.1,0.18-0.14,0.39-0.14,0.62v5.58h-1.74V7.09c0-1.29-0.51-1.94-1.52-1.94
		c-0.21,0-0.42,0.03-0.63,0.09s-0.39,0.15-0.55,0.26c-0.16,0.12-0.29,0.27-0.38,0.45c-0.1,0.18-0.14,0.39-0.14,0.62v5.58H251.97z"/>
	<path class="st0" d="M266.96,2.35c-0.36,0-0.63-0.08-0.79-0.26c-0.17-0.17-0.25-0.39-0.25-0.66V1.17c0-0.27,0.08-0.48,0.25-0.66
		c0.17-0.17,0.43-0.26,0.79-0.26s0.62,0.09,0.78,0.26c0.16,0.17,0.24,0.39,0.24,0.66v0.27c0,0.27-0.08,0.49-0.24,0.66
		C267.58,2.27,267.32,2.35,266.96,2.35z M266.08,3.84h1.74v8.32h-1.74V3.84z"/>
	<path class="st0" d="M272.62,12.16c-0.61,0-1.07-0.16-1.38-0.47c-0.31-0.31-0.46-0.76-0.46-1.34V5.26h-1.3V3.84h0.7
		c0.29,0,0.49-0.06,0.6-0.19c0.11-0.13,0.17-0.34,0.17-0.62V1.57h1.57v2.27h1.74v1.42h-1.74v5.47h1.62v1.42H272.62z"/>
	<path class="st0" d="M279.36,12.35c-0.6,0-1.13-0.1-1.6-0.3c-0.47-0.2-0.87-0.49-1.2-0.87s-0.58-0.84-0.76-1.38
		s-0.26-1.14-0.26-1.8c0-0.66,0.09-1.26,0.26-1.8s0.43-1,0.76-1.38c0.33-0.38,0.73-0.67,1.2-0.87c0.47-0.2,1-0.3,1.6-0.3
		c0.61,0,1.14,0.11,1.61,0.32s0.85,0.51,1.16,0.89c0.31,0.38,0.54,0.82,0.7,1.32c0.16,0.5,0.23,1.04,0.23,1.62v0.66h-5.71v0.27
		c0,0.64,0.19,1.16,0.57,1.57c0.38,0.41,0.92,0.61,1.62,0.61c0.51,0,0.94-0.11,1.3-0.33c0.35-0.22,0.65-0.52,0.9-0.91l1.02,1.01
		c-0.31,0.51-0.76,0.92-1.34,1.23C280.82,12.2,280.14,12.35,279.36,12.35z M279.36,5.01c-0.3,0-0.57,0.05-0.82,0.16
		c-0.25,0.11-0.46,0.26-0.64,0.45s-0.31,0.42-0.41,0.69c-0.1,0.27-0.14,0.56-0.14,0.88V7.3h3.87V7.14c0-0.64-0.17-1.15-0.5-1.54
		C280.39,5.2,279.93,5.01,279.36,5.01z"/>
	<path class="st0" d="M285.78,12.35c-0.4,0-0.69-0.1-0.88-0.31c-0.19-0.21-0.29-0.47-0.29-0.78v-0.24c0-0.31,0.1-0.57,0.29-0.78
		c0.19-0.21,0.48-0.31,0.88-0.31c0.39,0,0.69,0.1,0.88,0.31c0.19,0.21,0.29,0.47,0.29,0.78v0.24c0,0.31-0.1,0.57-0.29,0.78
		C286.46,12.25,286.17,12.35,285.78,12.35z"/>
	<path class="st0" d="M292.46,7.18c0,0.78-0.07,1.53-0.22,2.24c-0.14,0.71-0.34,1.38-0.6,2s-0.56,1.18-0.9,1.68
		c-0.35,0.5-0.72,0.92-1.13,1.26h-1.65c0.44-0.39,0.83-0.85,1.18-1.35c0.35-0.51,0.65-1.04,0.9-1.61c0.25-0.57,0.43-1.15,0.57-1.76
		c0.13-0.61,0.2-1.22,0.2-1.82V6.54c0-0.61-0.07-1.22-0.2-1.82c-0.13-0.61-0.32-1.19-0.57-1.76c-0.25-0.56-0.54-1.1-0.9-1.6
		c-0.35-0.5-0.75-0.95-1.18-1.36h1.65c0.41,0.34,0.78,0.76,1.13,1.26c0.35,0.5,0.65,1.06,0.9,1.68s0.46,1.29,0.6,2
		C292.39,5.66,292.46,6.41,292.46,7.18z"/>
</g>
</svg>
