<!-- Generator: Adobe Illustrator 23.1.1, SVG Export Plug-In  -->
<svg version="1.1" xmlns="http://www.w3.org/2000/svg" xmlns:xlink="http://www.w3.org/1999/xlink" x="0px" y="0px" width="52.46px"
	 height="12.1px" viewBox="0 0 52.46 12.1" style="enable-background:new 0 0 52.46 12.1;" xml:space="preserve">
<style type="text/css">
	.st0{fill:#FFFFFF;}
</style>
<defs>
</defs>
<g>
	<path class="st0" d="M2.83,11.9L0,3.58h1.73l1.26,3.79l0.85,2.91h0.1l0.85-2.91l1.3-3.79h1.66L4.88,11.9H2.83z"/>
	<path class="st0" d="M10.1,2.1c-0.36,0-0.63-0.08-0.79-0.26C9.14,1.67,9.06,1.45,9.06,1.18V0.91c0-0.27,0.08-0.48,0.25-0.66
		C9.47,0.09,9.73,0,10.1,0s0.62,0.09,0.78,0.26c0.16,0.17,0.24,0.39,0.24,0.66v0.27c0,0.27-0.08,0.49-0.24,0.66
		C10.72,2.01,10.46,2.1,10.1,2.1z M9.22,3.58h1.74v8.32H9.22V3.58z"/>
	<path class="st0" d="M16.1,12.1c-0.79,0-1.45-0.14-1.98-0.42c-0.53-0.28-1-0.66-1.39-1.15l1.12-1.02c0.31,0.37,0.65,0.66,1.03,0.87
		s0.82,0.31,1.32,0.31c0.51,0,0.89-0.1,1.14-0.3c0.25-0.2,0.38-0.47,0.38-0.82c0-0.27-0.09-0.49-0.26-0.68
		c-0.18-0.19-0.48-0.31-0.92-0.36l-0.77-0.1c-0.85-0.11-1.52-0.35-2.01-0.74c-0.49-0.39-0.73-0.97-0.73-1.74
		c0-0.41,0.07-0.77,0.22-1.08c0.15-0.31,0.36-0.58,0.63-0.8c0.27-0.22,0.6-0.39,0.98-0.5c0.38-0.12,0.8-0.18,1.26-0.18
		c0.75,0,1.36,0.12,1.83,0.35c0.47,0.23,0.9,0.56,1.27,0.98l-1.07,1.02c-0.21-0.26-0.49-0.48-0.84-0.66
		c-0.35-0.19-0.74-0.28-1.19-0.28c-0.48,0-0.83,0.1-1.06,0.29S14.7,5.53,14.7,5.84c0,0.32,0.1,0.56,0.3,0.72
		c0.2,0.16,0.53,0.28,0.98,0.35l0.77,0.1c0.92,0.14,1.59,0.41,2.01,0.81c0.42,0.4,0.63,0.94,0.63,1.61c0,0.41-0.08,0.77-0.23,1.1
		c-0.16,0.33-0.38,0.61-0.66,0.84c-0.29,0.23-0.63,0.42-1.04,0.54S16.6,12.1,16.1,12.1z"/>
	<path class="st0" d="M22.24,2.1c-0.36,0-0.63-0.08-0.79-0.26c-0.17-0.17-0.25-0.39-0.25-0.66V0.91c0-0.27,0.08-0.48,0.25-0.66
		C21.61,0.09,21.88,0,22.24,0s0.62,0.09,0.78,0.26c0.16,0.17,0.24,0.39,0.24,0.66v0.27c0,0.27-0.08,0.49-0.24,0.66
		C22.86,2.01,22.6,2.1,22.24,2.1z M21.36,3.58h1.74v8.32h-1.74V3.58z"/>
	<path class="st0" d="M27.9,11.9c-0.61,0-1.07-0.16-1.38-0.47c-0.31-0.31-0.46-0.76-0.46-1.34V5.01h-1.3V3.58h0.7
		c0.29,0,0.49-0.06,0.6-0.19c0.11-0.13,0.17-0.34,0.17-0.62V1.31h1.57v2.27h1.74v1.42h-1.74v5.47h1.62v1.42H27.9z"/>
	<path class="st0" d="M34.64,12.1c-0.58,0-1.1-0.1-1.58-0.3c-0.47-0.2-0.88-0.49-1.21-0.87c-0.33-0.38-0.59-0.84-0.77-1.38
		s-0.27-1.14-0.27-1.8c0-0.66,0.09-1.26,0.27-1.8s0.44-1,0.77-1.38c0.33-0.38,0.73-0.67,1.21-0.87s1-0.3,1.58-0.3s1.1,0.1,1.58,0.3
		s0.88,0.49,1.21,0.87c0.33,0.38,0.59,0.84,0.77,1.38c0.18,0.54,0.27,1.14,0.27,1.8c0,0.66-0.09,1.26-0.27,1.8
		c-0.18,0.54-0.44,1-0.77,1.38s-0.73,0.67-1.21,0.87C35.74,11.99,35.22,12.1,34.64,12.1z M34.64,10.64c0.6,0,1.08-0.18,1.44-0.55
		c0.36-0.37,0.54-0.91,0.54-1.65v-1.4c0-0.73-0.18-1.28-0.54-1.65c-0.36-0.37-0.84-0.55-1.44-0.55S33.56,5.03,33.2,5.4
		c-0.36,0.37-0.54,0.92-0.54,1.65v1.4c0,0.73,0.18,1.28,0.54,1.65C33.56,10.46,34.04,10.64,34.64,10.64z"/>
	<path class="st0" d="M40.4,11.9V3.58h1.74v1.6h0.08c0.12-0.43,0.36-0.8,0.74-1.12c0.37-0.32,0.89-0.48,1.55-0.48h0.46v1.68h-0.69
		c-0.69,0-1.22,0.11-1.59,0.34c-0.37,0.22-0.55,0.56-0.55,0.99v5.31H40.4z"/>
	<path class="st0" d="M49.17,12.1c-0.79,0-1.45-0.14-1.98-0.42c-0.53-0.28-1-0.66-1.39-1.15l1.12-1.02
		c0.31,0.37,0.65,0.66,1.03,0.87s0.82,0.31,1.32,0.31c0.51,0,0.89-0.1,1.14-0.3c0.25-0.2,0.38-0.47,0.38-0.82
		c0-0.27-0.09-0.49-0.26-0.68c-0.18-0.19-0.48-0.31-0.92-0.36l-0.77-0.1c-0.85-0.11-1.52-0.35-2.01-0.74
		C46.34,7.3,46.1,6.72,46.1,5.95c0-0.41,0.07-0.77,0.22-1.08c0.15-0.31,0.36-0.58,0.63-0.8c0.27-0.22,0.6-0.39,0.98-0.5
		c0.38-0.12,0.8-0.18,1.26-0.18c0.75,0,1.36,0.12,1.83,0.35c0.47,0.23,0.9,0.56,1.27,0.98l-1.07,1.02C51,5.49,50.72,5.27,50.38,5.08
		c-0.35-0.19-0.74-0.28-1.19-0.28c-0.48,0-0.83,0.1-1.06,0.29s-0.34,0.44-0.34,0.75c0,0.32,0.1,0.56,0.3,0.72
		c0.2,0.16,0.53,0.28,0.98,0.35l0.77,0.1c0.92,0.14,1.59,0.41,2.01,0.81c0.42,0.4,0.63,0.94,0.63,1.61c0,0.41-0.08,0.77-0.23,1.1
		c-0.16,0.33-0.38,0.61-0.66,0.84c-0.29,0.23-0.63,0.42-1.04,0.54S49.67,12.1,49.17,12.1z"/>
</g>
</svg>
