<!-- Generator: Adobe Illustrator 23.1.1, SVG Export Plug-In  -->
<svg version="1.1" xmlns="http://www.w3.org/2000/svg" xmlns:xlink="http://www.w3.org/1999/xlink" x="0px" y="0px" width="90.78px"
	 height="11.55px" viewBox="0 0 90.78 11.55" style="enable-background:new 0 0 90.78 11.55;" xml:space="preserve">
<style type="text/css">
	.st0{fill:#FFFFFF;}
</style>
<defs>
</defs>
<g>
	<path class="st0" d="M0,0.19h3.95c0.71,0,1.36,0.12,1.94,0.35c0.58,0.24,1.08,0.58,1.49,1.05c0.41,0.46,0.73,1.04,0.95,1.74
		c0.22,0.7,0.34,1.51,0.34,2.44S8.56,7.52,8.34,8.22C8.11,8.92,7.79,9.5,7.38,9.96c-0.41,0.46-0.91,0.81-1.49,1.05
		c-0.58,0.23-1.23,0.35-1.94,0.35H0V0.19z M3.95,9.76c0.83,0,1.5-0.26,2.02-0.78c0.51-0.52,0.77-1.29,0.77-2.3V4.88
		c0-1.01-0.26-1.78-0.77-2.3C5.46,2.05,4.78,1.79,3.95,1.79H1.81v7.97H3.95z"/>
	<path class="st0" d="M12.64,0.19v6.89c0,0.95,0.18,1.67,0.54,2.15s0.98,0.72,1.86,0.72s1.49-0.24,1.86-0.72
		c0.36-0.48,0.54-1.2,0.54-2.15V0.19h1.78v6.59c0,0.82-0.07,1.53-0.22,2.13c-0.15,0.6-0.39,1.09-0.72,1.48
		c-0.33,0.39-0.76,0.68-1.29,0.87c-0.53,0.19-1.18,0.29-1.94,0.29c-0.77,0-1.42-0.1-1.94-0.29c-0.53-0.19-0.96-0.48-1.29-0.87
		s-0.57-0.88-0.72-1.48c-0.15-0.6-0.22-1.31-0.22-2.13V0.19H12.64z"/>
	<path class="st0" d="M30.45,2.82h-0.08l-0.88,1.81l-2.45,4.46l-2.45-4.46l-0.88-1.81h-0.08v8.54H21.9V0.19h2.14l2.99,5.68h0.1
		l2.99-5.68h2.05v11.17h-1.73V2.82z"/>
	<path class="st0" d="M34.93,11.36V0.19h4.8c1.03,0,1.83,0.3,2.4,0.91c0.56,0.61,0.85,1.42,0.85,2.45c0,1.02-0.28,1.84-0.85,2.45
		c-0.57,0.61-1.37,0.91-2.4,0.91h-2.99v4.45H34.93z M36.74,5.31h2.88c0.46,0,0.82-0.12,1.07-0.36c0.26-0.24,0.38-0.58,0.38-1.02
		V3.17c0-0.44-0.13-0.79-0.38-1.02c-0.26-0.24-0.61-0.36-1.07-0.36h-2.88V5.31z"/>
	<path class="st0" d="M48.24,11.55c-0.94,0-1.74-0.17-2.39-0.51c-0.66-0.34-1.22-0.8-1.69-1.38l1.25-1.17
		c0.39,0.48,0.83,0.84,1.3,1.09c0.47,0.25,1.02,0.37,1.62,0.37c0.71,0,1.25-0.16,1.62-0.48c0.36-0.32,0.54-0.75,0.54-1.3
		c0-0.44-0.13-0.78-0.38-1.04c-0.26-0.26-0.71-0.45-1.36-0.58l-0.99-0.18c-1.09-0.2-1.9-0.56-2.45-1.07S44.5,4.1,44.5,3.2
		c0-0.49,0.09-0.94,0.28-1.34s0.45-0.74,0.78-1.01c0.34-0.27,0.74-0.48,1.22-0.63S47.8,0,48.4,0c0.84,0,1.57,0.15,2.19,0.44
		s1.15,0.72,1.58,1.27l-1.26,1.12c-0.29-0.37-0.64-0.67-1.06-0.9C49.44,1.71,48.92,1.6,48.3,1.6c-0.64,0-1.14,0.13-1.49,0.38
		s-0.53,0.63-0.53,1.12c0,0.47,0.14,0.82,0.43,1.05c0.29,0.23,0.74,0.4,1.34,0.52l0.99,0.21c1.12,0.21,1.94,0.58,2.46,1.09
		c0.52,0.51,0.78,1.22,0.78,2.11c0,0.52-0.09,1-0.27,1.42c-0.18,0.43-0.45,0.79-0.79,1.1c-0.35,0.3-0.77,0.54-1.27,0.7
		C49.45,11.47,48.88,11.55,48.24,11.55z"/>
	<path class="st0" d="M58.34,1.79v9.57h-1.81V1.79H53.2v-1.6h8.46v1.6H58.34z"/>
	<path class="st0" d="M63.42,11.36V0.19h7.15v1.6h-5.34v3.1h4.85v1.6h-4.85v3.26h5.34v1.6H63.42z"/>
	<path class="st0" d="M74.72,11.36h-1.81V0.19h4.82c1,0,1.79,0.3,2.37,0.9s0.86,1.42,0.86,2.46c0,0.8-0.18,1.46-0.55,1.99
		c-0.37,0.53-0.91,0.9-1.62,1.11l2.42,4.7h-2.02l-2.24-4.51h-2.22V11.36z M77.6,5.33c0.46,0,0.82-0.12,1.07-0.36
		c0.26-0.24,0.38-0.58,0.38-1.03V3.18c0-0.45-0.13-0.79-0.38-1.03c-0.26-0.24-0.61-0.36-1.07-0.36h-2.88v3.54H77.6z"/>
	<path class="st0" d="M86.74,11.55c-0.94,0-1.74-0.17-2.39-0.51c-0.66-0.34-1.22-0.8-1.69-1.38L83.9,8.5
		c0.39,0.48,0.83,0.84,1.3,1.09c0.47,0.25,1.02,0.37,1.62,0.37c0.71,0,1.25-0.16,1.62-0.48c0.36-0.32,0.54-0.75,0.54-1.3
		c0-0.44-0.13-0.78-0.38-1.04c-0.26-0.26-0.71-0.45-1.36-0.58l-0.99-0.18c-1.09-0.2-1.9-0.56-2.45-1.07S82.99,4.1,82.99,3.2
		c0-0.49,0.09-0.94,0.28-1.34s0.45-0.74,0.78-1.01c0.34-0.27,0.74-0.48,1.22-0.63S86.3,0,86.9,0c0.84,0,1.57,0.15,2.19,0.44
		s1.15,0.72,1.58,1.27l-1.26,1.12c-0.29-0.37-0.64-0.67-1.06-0.9C87.94,1.71,87.42,1.6,86.8,1.6c-0.64,0-1.14,0.13-1.49,0.38
		s-0.53,0.63-0.53,1.12c0,0.47,0.14,0.82,0.43,1.05c0.29,0.23,0.74,0.4,1.34,0.52l0.99,0.21c1.12,0.21,1.94,0.58,2.46,1.09
		c0.52,0.51,0.78,1.22,0.78,2.11c0,0.52-0.09,1-0.27,1.42c-0.18,0.43-0.45,0.79-0.79,1.1c-0.35,0.3-0.77,0.54-1.27,0.7
		C87.95,11.47,87.38,11.55,86.74,11.55z"/>
</g>
</svg>
