<!-- Generator: Adobe Illustrator 23.1.1, SVG Export Plug-In  -->
<svg version="1.1" xmlns="http://www.w3.org/2000/svg" xmlns:xlink="http://www.w3.org/1999/xlink" x="0px" y="0px"
	 width="111.28px" height="15.1px" viewBox="0 0 111.28 15.1" style="enable-background:new 0 0 111.28 15.1;" xml:space="preserve"
	>
<style type="text/css">
	.st0{fill:#576A36;}
</style>
<defs>
</defs>
<g>
	<path class="st0" d="M5.14,2.34v9.57H3.33V2.34H0v-1.6h8.46v1.6H5.14z"/>
	<path class="st0" d="M10.1,0.06h1.74v4.9h0.08c0.18-0.45,0.46-0.82,0.82-1.12c0.37-0.3,0.87-0.45,1.51-0.45
		c0.85,0,1.52,0.28,1.99,0.84c0.47,0.56,0.71,1.36,0.71,2.39v5.28h-1.74V6.83c0-1.29-0.52-1.94-1.57-1.94
		c-0.22,0-0.45,0.03-0.66,0.09s-0.41,0.15-0.58,0.26c-0.17,0.12-0.31,0.27-0.41,0.45c-0.1,0.18-0.15,0.39-0.15,0.62v5.58H10.1V0.06z
		"/>
	<path class="st0" d="M25.47,11.9c-0.46,0-0.81-0.13-1.06-0.39c-0.25-0.26-0.39-0.59-0.45-1h-0.08c-0.16,0.52-0.45,0.92-0.88,1.18
		s-0.94,0.4-1.55,0.4c-0.86,0-1.53-0.22-1.99-0.67c-0.46-0.45-0.7-1.05-0.7-1.81c0-0.83,0.3-1.46,0.9-1.87s1.49-0.62,2.65-0.62h1.5
		v-0.7c0-0.51-0.14-0.91-0.42-1.18s-0.71-0.42-1.3-0.42c-0.49,0-0.89,0.11-1.2,0.32c-0.31,0.21-0.57,0.49-0.78,0.82l-1.04-0.94
		c0.28-0.47,0.67-0.86,1.17-1.16c0.5-0.3,1.16-0.46,1.97-0.46c1.08,0,1.9,0.25,2.48,0.75c0.58,0.5,0.86,1.22,0.86,2.16v4.18h0.88
		v1.42H25.47z M21.95,10.77c0.54,0,0.99-0.12,1.34-0.36s0.53-0.56,0.53-0.97v-1.2h-1.47c-1.21,0-1.81,0.37-1.81,1.12v0.29
		c0,0.37,0.12,0.65,0.38,0.84S21.51,10.77,21.95,10.77z"/>
	<path class="st0" d="M30.42,11.9c-0.61,0-1.07-0.16-1.38-0.47s-0.46-0.76-0.46-1.34V5.01h-1.3V3.58h0.7c0.29,0,0.49-0.06,0.6-0.19
		c0.11-0.13,0.17-0.34,0.17-0.62V1.31h1.57v2.27h1.74v1.42h-1.74v5.47h1.62v1.42H30.42z"/>
	<path class="st0" d="M38.61,2.1c-0.36,0-0.63-0.09-0.79-0.26c-0.17-0.17-0.25-0.39-0.25-0.66V0.91c0-0.27,0.08-0.49,0.25-0.66
		C37.98,0.09,38.25,0,38.61,0s0.62,0.09,0.78,0.26c0.16,0.17,0.24,0.39,0.24,0.66v0.27c0,0.27-0.08,0.49-0.24,0.66
		C39.23,2.01,38.97,2.1,38.61,2.1z M37.73,3.58h1.74v8.32h-1.74V3.58z"/>
	<path class="st0" d="M44.61,12.1c-0.79,0-1.45-0.14-1.98-0.42c-0.53-0.28-1-0.66-1.39-1.15l1.12-1.02
		c0.31,0.37,0.65,0.66,1.03,0.87s0.82,0.31,1.32,0.31c0.51,0,0.89-0.1,1.14-0.3s0.38-0.47,0.38-0.82c0-0.27-0.09-0.49-0.26-0.68
		s-0.48-0.31-0.92-0.36l-0.77-0.1c-0.85-0.11-1.52-0.35-2.01-0.74s-0.73-0.97-0.73-1.74c0-0.41,0.07-0.76,0.22-1.08
		c0.15-0.31,0.36-0.58,0.63-0.8c0.27-0.22,0.6-0.39,0.98-0.5c0.38-0.12,0.8-0.18,1.26-0.18c0.75,0,1.36,0.12,1.83,0.35
		c0.47,0.24,0.9,0.56,1.27,0.98l-1.07,1.02c-0.21-0.26-0.49-0.48-0.84-0.66S45.07,4.8,44.62,4.8c-0.48,0-0.83,0.1-1.06,0.29
		c-0.23,0.19-0.34,0.44-0.34,0.75c0,0.32,0.1,0.56,0.3,0.72c0.2,0.16,0.53,0.28,0.98,0.35l0.77,0.1c0.92,0.14,1.59,0.41,2.01,0.81
		c0.42,0.4,0.63,0.94,0.63,1.61c0,0.41-0.08,0.77-0.23,1.1c-0.16,0.33-0.38,0.61-0.66,0.84s-0.63,0.42-1.04,0.54
		S45.11,12.1,44.61,12.1z"/>
	<path class="st0" d="M56.91,12.1c-0.6,0-1.13-0.1-1.6-0.3c-0.47-0.2-0.87-0.49-1.2-0.87c-0.33-0.38-0.58-0.84-0.76-1.38
		c-0.18-0.54-0.26-1.14-0.26-1.8c0-0.66,0.09-1.26,0.26-1.8c0.18-0.54,0.43-1,0.76-1.38s0.73-0.67,1.2-0.87c0.47-0.2,1-0.3,1.6-0.3
		c0.61,0,1.14,0.11,1.61,0.32c0.46,0.21,0.85,0.51,1.16,0.89c0.31,0.38,0.54,0.82,0.7,1.32c0.16,0.5,0.23,1.04,0.23,1.62v0.66H54.9
		v0.27c0,0.64,0.19,1.16,0.57,1.57c0.38,0.41,0.92,0.61,1.62,0.61c0.51,0,0.94-0.11,1.3-0.33c0.35-0.22,0.65-0.52,0.9-0.91
		l1.02,1.01c-0.31,0.51-0.76,0.92-1.34,1.23C58.37,11.94,57.69,12.1,56.91,12.1z M56.91,4.75c-0.3,0-0.57,0.05-0.82,0.16
		c-0.25,0.11-0.46,0.26-0.64,0.45s-0.31,0.42-0.41,0.69c-0.1,0.27-0.14,0.56-0.14,0.88v0.11h3.87V6.88c0-0.64-0.17-1.15-0.5-1.54
		C57.94,4.95,57.49,4.75,56.91,4.75z"/>
	<path class="st0" d="M67.78,10.53H67.7c-0.18,0.49-0.48,0.88-0.89,1.15c-0.41,0.28-0.89,0.42-1.45,0.42
		c-1.06,0-1.87-0.38-2.45-1.14s-0.86-1.83-0.86-3.21s0.29-2.45,0.86-3.21s1.39-1.14,2.45-1.14c0.55,0,1.04,0.14,1.45,0.41
		c0.41,0.27,0.71,0.66,0.89,1.16h0.08V3.58h1.74V15.1h-1.74V10.53z M65.89,10.59c0.53,0,0.98-0.13,1.34-0.39
		c0.36-0.26,0.54-0.61,0.54-1.03V6.32c0-0.43-0.18-0.77-0.54-1.03c-0.36-0.26-0.81-0.39-1.34-0.39c-0.61,0-1.09,0.19-1.46,0.58
		s-0.54,0.9-0.54,1.54v1.44c0,0.64,0.18,1.16,0.54,1.54C64.79,10.4,65.28,10.59,65.89,10.59z"/>
	<path class="st0" d="M77.06,10.53h-0.06c-0.07,0.2-0.17,0.4-0.3,0.59c-0.12,0.19-0.28,0.36-0.46,0.5
		c-0.19,0.14-0.41,0.26-0.67,0.34c-0.26,0.08-0.56,0.13-0.9,0.13c-0.86,0-1.53-0.28-2.01-0.83s-0.71-1.35-0.71-2.38v-5.3h1.74v5.07
		c0,1.29,0.53,1.94,1.6,1.94c0.22,0,0.44-0.03,0.66-0.09c0.21-0.06,0.4-0.15,0.57-0.26c0.17-0.12,0.3-0.27,0.4-0.45
		c0.1-0.18,0.15-0.39,0.15-0.64V3.58h1.74v8.32h-1.74V10.53z"/>
	<path class="st0" d="M87.39,11.9c-0.46,0-0.81-0.13-1.06-0.39c-0.25-0.26-0.39-0.59-0.45-1h-0.08c-0.16,0.52-0.45,0.92-0.88,1.18
		s-0.94,0.4-1.55,0.4c-0.86,0-1.53-0.22-1.99-0.67c-0.46-0.45-0.7-1.05-0.7-1.81c0-0.83,0.3-1.46,0.9-1.87s1.49-0.62,2.65-0.62h1.5
		v-0.7c0-0.51-0.14-0.91-0.42-1.18s-0.71-0.42-1.3-0.42c-0.49,0-0.89,0.11-1.2,0.32c-0.31,0.21-0.57,0.49-0.78,0.82l-1.04-0.94
		c0.28-0.47,0.67-0.86,1.17-1.16c0.5-0.3,1.16-0.46,1.97-0.46c1.08,0,1.9,0.25,2.48,0.75c0.58,0.5,0.86,1.22,0.86,2.16v4.18h0.88
		v1.42H87.39z M83.87,10.77c0.54,0,0.99-0.12,1.34-0.36s0.53-0.56,0.53-0.97v-1.2h-1.47c-1.21,0-1.81,0.37-1.81,1.12v0.29
		c0,0.37,0.12,0.65,0.38,0.84S83.44,10.77,83.87,10.77z"/>
	<path class="st0" d="M91.86,11.9c-0.6,0-1.04-0.15-1.34-0.46c-0.29-0.3-0.44-0.73-0.44-1.27V0.06h1.74v10.42h1.15v1.42H91.86z"/>
	<path class="st0" d="M100.72,11.9c-0.61,0-1.07-0.16-1.38-0.47s-0.46-0.76-0.46-1.34V5.01h-1.3V3.58h0.7c0.29,0,0.49-0.06,0.6-0.19
		c0.11-0.13,0.17-0.34,0.17-0.62V1.31h1.57v2.27h1.74v1.42h-1.74v5.47h1.62v1.42H100.72z"/>
	<path class="st0" d="M107.46,12.1c-0.58,0-1.1-0.1-1.58-0.3c-0.47-0.2-0.88-0.49-1.21-0.87c-0.33-0.38-0.59-0.84-0.77-1.38
		c-0.18-0.54-0.27-1.14-0.27-1.8c0-0.66,0.09-1.26,0.27-1.8c0.18-0.54,0.44-1,0.77-1.38c0.33-0.38,0.73-0.67,1.21-0.87
		c0.47-0.2,1-0.3,1.58-0.3s1.1,0.1,1.58,0.3c0.47,0.2,0.88,0.49,1.21,0.87s0.59,0.84,0.77,1.38c0.18,0.54,0.27,1.14,0.27,1.8
		c0,0.66-0.09,1.26-0.27,1.8c-0.18,0.54-0.44,1-0.77,1.38c-0.33,0.38-0.73,0.67-1.21,0.87C108.56,12,108.03,12.1,107.46,12.1z
		 M107.46,10.64c0.6,0,1.08-0.18,1.44-0.55c0.36-0.37,0.54-0.91,0.54-1.65v-1.4c0-0.73-0.18-1.28-0.54-1.65
		c-0.36-0.37-0.84-0.55-1.44-0.55s-1.08,0.18-1.44,0.55c-0.36,0.37-0.54,0.92-0.54,1.65v1.4c0,0.73,0.18,1.28,0.54,1.65
		C106.38,10.46,106.86,10.64,107.46,10.64z"/>
</g>
</svg>
