<!-- Generator: Adobe Illustrator 23.1.1, SVG Export Plug-In  -->
<svg version="1.1" xmlns="http://www.w3.org/2000/svg" xmlns:xlink="http://www.w3.org/1999/xlink" x="0px" y="0px" width="57.29px"
	 height="10.78px" viewBox="0 0 57.29 10.78" style="enable-background:new 0 0 57.29 10.78;" xml:space="preserve">
<style type="text/css">
	.st0{fill:#FFFFFF;}
</style>
<defs>
</defs>
<g>
	<path class="st0" d="M3.78,10.78c-0.6,0-1.13-0.1-1.6-0.3c-0.47-0.2-0.86-0.49-1.18-0.87C0.67,9.23,0.43,8.77,0.26,8.23
		C0.08,7.69,0,7.09,0,6.43c0-0.66,0.08-1.26,0.26-1.8c0.17-0.54,0.42-1,0.74-1.38c0.32-0.38,0.71-0.67,1.18-0.87
		c0.47-0.2,1-0.3,1.6-0.3c0.83,0,1.51,0.19,2.05,0.56c0.53,0.37,0.92,0.87,1.17,1.49L5.55,4.8C5.43,4.42,5.23,4.11,4.94,3.88
		C4.64,3.65,4.26,3.54,3.78,3.54c-0.64,0-1.12,0.2-1.45,0.6S1.84,5.05,1.84,5.69v1.48c0,0.64,0.16,1.16,0.49,1.56s0.81,0.6,1.45,0.6
		C4.29,9.33,4.7,9.2,5,8.95c0.3-0.25,0.55-0.58,0.73-1l1.33,0.7c-0.28,0.69-0.69,1.21-1.25,1.58C5.25,10.6,4.58,10.78,3.78,10.78z"
		/>
	<path class="st0" d="M11.89,10.78c-0.58,0-1.1-0.1-1.58-0.3c-0.47-0.2-0.88-0.49-1.21-0.87C8.77,9.23,8.52,8.77,8.34,8.23
		s-0.27-1.14-0.27-1.8c0-0.66,0.09-1.26,0.27-1.8s0.44-1,0.77-1.38c0.33-0.38,0.73-0.67,1.21-0.87s1-0.3,1.58-0.3s1.1,0.1,1.58,0.3
		s0.88,0.49,1.21,0.87c0.33,0.38,0.59,0.84,0.77,1.38c0.18,0.54,0.27,1.14,0.27,1.8c0,0.66-0.09,1.26-0.27,1.8
		c-0.18,0.54-0.44,1-0.77,1.38s-0.73,0.67-1.21,0.87C12.99,10.68,12.46,10.78,11.89,10.78z M11.89,9.33c0.6,0,1.08-0.18,1.44-0.55
		c0.36-0.37,0.54-0.91,0.54-1.65v-1.4c0-0.73-0.18-1.28-0.54-1.65c-0.36-0.37-0.84-0.55-1.44-0.55s-1.08,0.18-1.44,0.55
		C10.08,4.45,9.9,5,9.9,5.73v1.4c0,0.73,0.18,1.28,0.54,1.65C10.81,9.15,11.29,9.33,11.89,9.33z"/>
	<path class="st0" d="M17.65,10.59V2.27h1.74v1.38h0.08c0.08-0.21,0.19-0.42,0.31-0.61c0.12-0.19,0.27-0.36,0.45-0.5
		s0.38-0.26,0.62-0.34s0.52-0.12,0.84-0.12c0.57,0,1.07,0.14,1.5,0.42c0.44,0.28,0.76,0.7,0.96,1.28h0.05
		c0.15-0.47,0.44-0.87,0.86-1.2c0.43-0.33,0.98-0.5,1.65-0.5c0.83,0,1.48,0.28,1.94,0.84s0.69,1.36,0.69,2.39v5.28H27.6V5.52
		c0-0.64-0.12-1.12-0.37-1.45c-0.25-0.33-0.63-0.49-1.17-0.49c-0.22,0-0.44,0.03-0.64,0.09c-0.2,0.06-0.38,0.15-0.54,0.26
		c-0.16,0.12-0.28,0.27-0.38,0.45c-0.1,0.18-0.14,0.39-0.14,0.62v5.58h-1.74V5.52c0-1.29-0.51-1.94-1.52-1.94
		c-0.21,0-0.42,0.03-0.63,0.09s-0.39,0.15-0.55,0.26c-0.16,0.12-0.29,0.27-0.38,0.45c-0.1,0.18-0.14,0.39-0.14,0.62v5.58H17.65z"/>
	<path class="st0" d="M35.02,10.78c-0.6,0-1.13-0.1-1.6-0.3c-0.47-0.2-0.87-0.49-1.2-0.87s-0.58-0.84-0.76-1.38s-0.26-1.14-0.26-1.8
		c0-0.66,0.09-1.26,0.26-1.8s0.43-1,0.76-1.38c0.33-0.38,0.73-0.67,1.2-0.87c0.47-0.2,1-0.3,1.6-0.3c0.61,0,1.14,0.11,1.61,0.32
		s0.85,0.51,1.16,0.89c0.31,0.38,0.54,0.82,0.7,1.32c0.16,0.5,0.23,1.04,0.23,1.62v0.66h-5.71v0.27c0,0.64,0.19,1.16,0.57,1.57
		c0.38,0.41,0.92,0.61,1.62,0.61c0.51,0,0.94-0.11,1.3-0.33c0.35-0.22,0.65-0.52,0.9-0.91l1.02,1.01c-0.31,0.51-0.76,0.92-1.34,1.23
		C36.49,10.63,35.8,10.78,35.02,10.78z M35.02,3.44c-0.3,0-0.57,0.05-0.82,0.16c-0.25,0.11-0.46,0.26-0.64,0.45
		s-0.31,0.42-0.41,0.69C33.06,5,33.01,5.3,33.01,5.62v0.11h3.87V5.57c0-0.64-0.17-1.15-0.5-1.54C36.05,3.63,35.6,3.44,35.02,3.44z"
		/>
	<path class="st0" d="M46.74,10.59c-0.61,0-1.07-0.16-1.38-0.47c-0.31-0.31-0.46-0.76-0.46-1.34V3.7h-1.3V2.27h0.7
		c0.29,0,0.49-0.06,0.6-0.19c0.11-0.13,0.17-0.34,0.17-0.62V0h1.57v2.27h1.74V3.7h-1.74v5.47h1.62v1.42H46.74z"/>
	<path class="st0" d="M53.47,10.78c-0.58,0-1.1-0.1-1.58-0.3c-0.47-0.2-0.88-0.49-1.21-0.87c-0.33-0.38-0.59-0.84-0.77-1.38
		s-0.27-1.14-0.27-1.8c0-0.66,0.09-1.26,0.27-1.8s0.44-1,0.77-1.38c0.33-0.38,0.73-0.67,1.21-0.87s1-0.3,1.58-0.3s1.1,0.1,1.58,0.3
		s0.88,0.49,1.21,0.87c0.33,0.38,0.59,0.84,0.77,1.38c0.18,0.54,0.27,1.14,0.27,1.8c0,0.66-0.09,1.26-0.27,1.8
		c-0.18,0.54-0.44,1-0.77,1.38s-0.73,0.67-1.21,0.87C54.57,10.68,54.05,10.78,53.47,10.78z M53.47,9.33c0.6,0,1.08-0.18,1.44-0.55
		c0.36-0.37,0.54-0.91,0.54-1.65v-1.4c0-0.73-0.18-1.28-0.54-1.65c-0.36-0.37-0.84-0.55-1.44-0.55s-1.08,0.18-1.44,0.55
		C51.67,4.45,51.49,5,51.49,5.73v1.4c0,0.73,0.18,1.28,0.54,1.65C52.39,9.15,52.87,9.33,53.47,9.33z"/>
</g>
</svg>
