<!-- Generator: Adobe Illustrator 23.1.1, SVG Export Plug-In  -->
<svg version="1.1" xmlns="http://www.w3.org/2000/svg" xmlns:xlink="http://www.w3.org/1999/xlink" x="0px" y="0px" width="76.83px"
	 height="11.55px" viewBox="0 0 76.83 11.55" style="enable-background:new 0 0 76.83 11.55;" xml:space="preserve">
<style type="text/css">
	.st0{fill:#FFFFFF;}
</style>
<defs>
</defs>
<g>
	<path class="st0" d="M3.84,11.36v-4.4L0,0.19h2.06l2.72,4.98h0.05l2.7-4.98h1.98L5.65,6.93v4.43H3.84z"/>
	<path class="st0" d="M14.77,11.55c-0.73,0-1.38-0.13-1.98-0.38s-1.1-0.62-1.52-1.1c-0.42-0.49-0.75-1.09-0.98-1.81
		c-0.23-0.72-0.34-1.55-0.34-2.49c0-0.94,0.11-1.77,0.34-2.49c0.23-0.72,0.55-1.32,0.98-1.81c0.42-0.49,0.93-0.85,1.52-1.1
		S14.04,0,14.77,0c0.72,0,1.38,0.13,1.98,0.38s1.1,0.62,1.52,1.1c0.42,0.49,0.75,1.09,0.98,1.81c0.23,0.72,0.34,1.55,0.34,2.49
		c0,0.94-0.11,1.77-0.34,2.49c-0.23,0.72-0.55,1.32-0.98,1.81c-0.42,0.49-0.93,0.85-1.52,1.1S15.49,11.55,14.77,11.55z M14.77,9.95
		c0.43,0,0.82-0.07,1.18-0.22s0.66-0.37,0.91-0.65c0.25-0.28,0.45-0.63,0.58-1.04c0.14-0.41,0.21-0.87,0.21-1.38V4.89
		c0-0.51-0.07-0.97-0.21-1.38c-0.14-0.41-0.33-0.75-0.58-1.04c-0.25-0.28-0.55-0.5-0.91-0.65c-0.36-0.15-0.75-0.22-1.18-0.22
		c-0.44,0-0.83,0.07-1.18,0.22c-0.35,0.15-0.65,0.37-0.9,0.65c-0.25,0.28-0.45,0.63-0.58,1.04c-0.14,0.41-0.21,0.87-0.21,1.38v1.77
		c0,0.51,0.07,0.97,0.21,1.38c0.14,0.41,0.33,0.75,0.58,1.04c0.25,0.28,0.55,0.5,0.9,0.65C13.94,9.88,14.33,9.95,14.77,9.95z"/>
	<path class="st0" d="M25.15,11.55c-0.94,0-1.74-0.17-2.39-0.51s-1.22-0.8-1.69-1.38l1.25-1.17c0.39,0.48,0.83,0.84,1.3,1.09
		c0.47,0.25,1.02,0.37,1.62,0.37c0.71,0,1.25-0.16,1.62-0.48c0.36-0.32,0.54-0.75,0.54-1.3c0-0.44-0.13-0.78-0.38-1.04
		c-0.26-0.26-0.71-0.45-1.36-0.58l-0.99-0.18c-1.09-0.2-1.9-0.56-2.45-1.07C21.68,4.8,21.41,4.1,21.41,3.2
		c0-0.49,0.09-0.94,0.28-1.34s0.45-0.74,0.78-1.01s0.74-0.48,1.22-0.63C24.18,0.07,24.71,0,25.31,0c0.84,0,1.57,0.15,2.19,0.44
		c0.62,0.29,1.15,0.72,1.58,1.27l-1.26,1.12c-0.29-0.37-0.64-0.67-1.06-0.9c-0.42-0.22-0.93-0.34-1.55-0.34
		c-0.64,0-1.14,0.13-1.49,0.38C23.38,2.24,23.2,2.61,23.2,3.1c0,0.47,0.14,0.82,0.43,1.05c0.29,0.23,0.74,0.4,1.34,0.52l0.99,0.21
		c1.12,0.21,1.94,0.58,2.46,1.09c0.52,0.51,0.78,1.22,0.78,2.11c0,0.52-0.09,1-0.27,1.42s-0.45,0.79-0.79,1.1
		c-0.35,0.3-0.77,0.54-1.27,0.7C26.36,11.47,25.79,11.55,25.15,11.55z"/>
	<path class="st0" d="M31.38,11.36V0.19h7.15v1.6h-5.34v3.1h4.85v1.6h-4.85v3.26h5.34v1.6H31.38z"/>
	<path class="st0" d="M49.41,2.82h-0.08l-0.88,1.81L46,9.09l-2.45-4.46l-0.88-1.81h-0.08v8.54h-1.73V0.19h2.14L46,5.87h0.1
		l2.99-5.68h2.05v11.17h-1.73V2.82z"/>
	<path class="st0" d="M53.41,11.36V9.89h1.52V1.66h-1.52V0.19h4.86v1.47h-1.54v8.22h1.54v1.47H53.41z"/>
	<path class="st0" d="M64.59,1.79v9.57h-1.81V1.79h-3.33v-1.6h8.46v1.6H64.59z"/>
	<path class="st0" d="M69.68,11.36V0.19h7.15v1.6h-5.34v3.1h4.85v1.6h-4.85v3.26h5.34v1.6H69.68z"/>
</g>
</svg>
