<!-- Generator: Adobe Illustrator 23.1.1, SVG Export Plug-In  -->
<svg version="1.1" xmlns="http://www.w3.org/2000/svg" xmlns:xlink="http://www.w3.org/1999/xlink" x="0px" y="0px"
	 width="319.56px" height="281.29px" viewBox="0 0 319.56 281.29" style="enable-background:new 0 0 319.56 281.29;"
	 xml:space="preserve">
<style type="text/css">
	.st0{fill:#FFFFFF;}
	.st1{fill:#FCFDFC;}
	.st2{fill:#418005;}
	.st3{fill:#408004;}
</style>
<defs>
</defs>
<g>
	<path class="st0" d="M302.97,108.35V97.18h6.98v1.6h-5.17v3.1h4.59v1.6h-4.59v4.86H302.97z"/>
	<path class="st0" d="M316.24,98.78v9.57h-1.81v-9.57h-3.33v-1.6h8.46v1.6H316.24z"/>
</g>
<g id="iOf4AR_2_">
	<g>
		<path class="st1" d="M125.92,259.55c1.35,0.03,1.33-0.79,1.08-1.75c0.07-21.98,0.09-43.96,0.26-65.94
			c0.02-2.91-1.35-3.13-3.67-3.14c-26.64-0.12-53.29-0.33-79.93-0.48c-7.72-0.04-15.17-1.05-22.44-3.97
			c-4.87-1.96-8.73-5.73-14.17-7.6c0.42,1.12,0.57,1.72,0.86,2.24c11.14,20.43,22.63,40.67,33.29,61.35
			c4.26,8.27,9.87,14.13,18.64,16.72c6.21,1.83,12.6,3.08,19.16,2.61c0.97,0.01,1.94,0.02,2.91,0.03c2.68-0.01,5.36-0.02,8.04-0.03
			c11.33,0.39,22.65,0.46,33.98-0.04C124.59,259.55,125.26,259.55,125.92,259.55z M109.49,0.23c10.56,4.98,18.78,11.88,25.05,20.95
			c11.93,17.26,20.43,36.51,30.96,54.59c1.44,2.47,0.13,3.54-1.76,4.71c-4.54,2.82-9.02,5.76-13.52,8.65
			c0.11,0.5,0.21,0.99,0.32,1.49c20.25,0,40.5-0.03,60.75,0.05c2.4,0.01,3.07-1.65,3.99-3.16c4.78-7.79,9.53-15.59,14.26-23.4
			c5.78-9.56,11.53-19.15,17.29-28.72c-5.74,2-10.94,4.46-15.92,7.33c-2.64,1.52-3.78,1.36-5.24-1.54
			c-4.12-8.15-8.48-16.19-13.08-24.08C206.18,6.05,196.58,0.01,183.63,0C168.81-0.01,154,0.17,139.18,0.23
			C129.28,0.27,119.39,0.23,109.49,0.23z M180.59,168.5c-0.94,0.85-1.26,1.03-1.41,1.3c-9.77,17.59-19.48,35.21-29.34,52.75
			c-1.01,1.8-0.65,2.92,0.22,4.48c5.81,10.46,11.54,20.97,17.29,31.47c4.16,7.59,8.31,15.19,12.46,22.79
			c0.45-0.11,0.9-0.22,1.35-0.33c0-5.6,0.25-11.21-0.08-16.79c-0.24-3.95,1.33-4.74,4.9-4.64c8.49,0.24,16.99,0.24,25.48,0.08
			c12-0.23,22.05-5.03,27.93-15.51c11.63-20.72,22.47-41.89,33.64-62.87c0.52-0.98,1.72-2.06,0.64-3.08c-1.38-1.3-2.41,0.33-3.41,1
			c-7.79,5.18-16.37,7.99-25.65,8.82c-19.95,1.78-39.93,0.41-59.9,0.88c-2.65,0.06-2.93-1.37-3.04-3.4
			C181.36,180.04,180.98,174.63,180.59,168.5z M99.61,152.62c0.66-1.22,0.1-1.88-0.29-2.6c-9.76-18.15-19.55-36.29-29.22-54.48
			c-1.33-2.49-3.13-2.9-5.67-2.87c-17.48,0.22-34.97,0.3-52.45,0.42c-2.92,0.02-5.85,0-8.77,0c4.7,5,9.65,9.03,14.78,12.8
			c2.18,1.6,2.44,2.74,1.08,5.23c-5.72,10.5-11.06,21.21-16.65,31.79c-3.22,6.09-3.18,12.22-0.16,18.2
			c4.5,8.92,11.34,15.43,20.76,19.16c9.37,3.71,19.2,3.49,29.01,3.86c3.98,0.15,6.24-1.12,8.26-4.59
			c6.52-11.2,13.48-22.14,20.14-33.26c1.41-2.35,2.61-2.84,5.05-1.38C90.05,147.62,94.8,150.02,99.61,152.62z M231.48,183.71
			c2,0,3.17,0.08,4.32-0.01c12.54-0.97,24.73-3.27,35.34-10.59c10.81-7.45,14.71-18.45,10.48-28.03
			c-7.5-16.97-16.55-33.26-24.9-49.86c-1.19-2.36-2.22-3.08-4.86-1.44c-18.34,11.37-36.76,22.6-55.24,33.73
			c-2.24,1.35-1.9,2.21-0.83,4.16c8.24,14.98,16.6,29.9,24.32,45.15C222.91,182.34,225.98,185.4,231.48,183.71z M99.03,2.96
			C89.86,3,83.2,6.49,79,12.93c-9.36,14.33-18.5,28.81-28.06,43.01c-2.37,3.52-1.56,4.82,1.67,6.7
			c17.67,10.3,35.29,20.68,52.77,31.29c3.22,1.96,4.57,1.69,6.49-1.51c9.34-15.53,18.86-30.95,28.46-46.32
			c1.37-2.19,1.2-3.8,0.09-5.93c-4.03-7.7-8.73-14.97-14.61-21.33C118.14,10.56,109.63,3.44,99.03,2.96z"/>
		<path class="st2" d="M109.49,0.23c9.9,0,19.8,0.03,29.7-0.01C154,0.17,168.81-0.01,183.63,0c12.95,0.01,22.55,6.05,28.97,17.09
			c4.59,7.89,8.96,15.93,13.08,24.08c1.47,2.9,2.6,3.06,5.24,1.54c4.97-2.87,10.18-5.33,15.92-7.33
			c-5.76,9.57-11.51,19.16-17.29,28.72c-4.73,7.82-9.48,15.62-14.26,23.4c-0.93,1.51-1.59,3.17-3.99,3.16
			c-20.25-0.08-40.5-0.05-60.75-0.05c-0.11-0.5-0.21-0.99-0.32-1.49c4.5-2.89,8.97-5.83,13.52-8.65c1.89-1.17,3.2-2.24,1.76-4.71
			c-10.53-18.08-19.03-37.32-30.96-54.59C128.27,12.12,120.05,5.21,109.49,0.23z"/>
		<path class="st2" d="M180.59,168.5c0.39,6.13,0.77,11.54,1.06,16.95c0.11,2.03,0.39,3.46,3.04,3.4c19.96-0.46,39.95,0.9,59.9-0.88
			c9.28-0.83,17.86-3.64,25.65-8.82c1-0.66,2.03-2.29,3.41-1c1.09,1.02-0.12,2.1-0.64,3.08c-11.17,20.98-22.01,42.15-33.64,62.87
			c-5.88,10.48-15.93,15.28-27.93,15.51c-8.49,0.16-16.99,0.16-25.48-0.08c-3.57-0.1-5.13,0.69-4.9,4.64
			c0.34,5.58,0.08,11.19,0.08,16.79c-0.45,0.11-0.9,0.22-1.35,0.33c-4.15-7.6-8.3-15.19-12.46-22.79
			c-5.75-10.5-11.47-21.01-17.29-31.47c-0.87-1.56-1.23-2.68-0.22-4.48c9.86-17.54,19.57-35.16,29.34-52.75
			C179.33,169.53,179.65,169.35,180.59,168.5z"/>
		<path class="st3" d="M79,259.59c-6.57,0.47-12.95-0.78-19.16-2.61c-8.77-2.59-14.38-8.44-18.64-16.72
			c-10.65-20.68-22.14-40.92-33.29-61.35c-0.29-0.52-0.43-1.12-0.86-2.24c5.44,1.87,9.3,5.65,14.17,7.6
			c7.27,2.92,14.73,3.92,22.44,3.97c26.64,0.15,53.29,0.36,79.93,0.48c2.32,0.01,3.69,0.23,3.67,3.14
			c-0.16,21.98-0.19,43.96-0.26,65.94c-0.78,0.33-1.03,0.97-1.08,1.75c-0.67,0-1.33,0-2,0c-0.35-1.78-1.72-1.73-3.08-1.73
			c-9.28,0-18.57,0-27.85,0c-1.37,0-2.72,0-3.05,1.77c-2.68,0.01-5.36,0.02-8.04,0.03C80.95,258.58,79.98,258.59,79,259.59z"/>
		<path class="st2" d="M99.61,152.62c-4.81-2.6-9.57-5-14.13-7.72c-2.44-1.45-3.65-0.97-5.05,1.38
			c-6.66,11.12-13.62,22.06-20.14,33.26c-2.02,3.47-4.28,4.74-8.26,4.59c-9.81-0.37-19.64-0.15-29.01-3.86
			c-9.41-3.73-16.26-10.24-20.76-19.16c-3.02-5.98-3.06-12.11,0.16-18.2c5.59-10.58,10.93-21.29,16.65-31.79
			c1.36-2.5,1.1-3.64-1.08-5.23c-5.14-3.77-10.08-7.8-14.78-12.8c2.92,0,5.85,0.02,8.77,0c17.48-0.12,34.97-0.21,52.45-0.42
			c2.55-0.03,4.35,0.38,5.67,2.87c9.67,18.2,19.46,36.33,29.22,54.48C99.71,150.74,100.27,151.4,99.61,152.62z"/>
		<path class="st2" d="M231.48,183.71c-5.49,1.68-8.57-1.37-11.36-6.89c-7.72-15.25-16.08-30.17-24.32-45.15
			c-1.07-1.95-1.41-2.81,0.83-4.16c18.48-11.14,36.9-22.37,55.24-33.73c2.64-1.64,3.67-0.92,4.86,1.44
			c8.35,16.6,17.39,32.89,24.9,49.86c4.23,9.57,0.33,20.57-10.48,28.03c-10.61,7.32-22.8,9.62-35.34,10.59
			C234.64,183.79,233.48,183.71,231.48,183.71z"/>
		<path class="st2" d="M99.03,2.96c10.6,0.48,19.11,7.6,26.77,15.89c5.88,6.36,10.58,13.63,14.61,21.33
			c1.11,2.12,1.28,3.74-0.09,5.93c-9.6,15.37-19.13,30.79-28.46,46.32c-1.92,3.2-3.27,3.47-6.49,1.51
			C87.9,83.32,70.28,72.94,52.61,62.64c-3.23-1.88-4.04-3.18-1.67-6.7C60.5,41.74,69.63,27.26,79,12.93
			C83.2,6.49,89.86,3,99.03,2.96z"/>
		<path class="st2" d="M89.95,259.59c0.33-1.78,1.68-1.77,3.05-1.77c9.28,0.01,18.57,0,27.85,0c1.36,0,2.73-0.05,3.08,1.73
			C112.6,260.05,101.28,259.98,89.95,259.59z"/>
		<path class="st2" d="M79,259.59c0.98-1,1.95-1.01,2.91,0.03C80.94,259.61,79.97,259.6,79,259.59z"/>
		<path class="st2" d="M125.92,259.55c0.05-0.78,0.3-1.42,1.08-1.75C127.25,258.76,127.28,259.58,125.92,259.55z"/>
	</g>
</g>
</svg>
