<!-- Generator: Adobe Illustrator 23.1.1, SVG Export Plug-In  -->
<svg version="1.1" xmlns="http://www.w3.org/2000/svg" xmlns:xlink="http://www.w3.org/1999/xlink" x="0px" y="0px" width="39.1px"
	 height="11.17px" viewBox="0 0 39.1 11.17" style="enable-background:new 0 0 39.1 11.17;" xml:space="preserve">
<style type="text/css">
	.st0{fill:#FFFFFF;}
</style>
<defs>
</defs>
<g>
	<path class="st0" d="M0,11.17V0h4.8c1.04,0,1.83,0.3,2.4,0.91s0.85,1.42,0.85,2.45S7.77,5.2,7.2,5.81S5.83,6.72,4.8,6.72H1.81v4.45
		H0z M1.81,5.12h2.88C5.15,5.12,5.5,5,5.76,4.76s0.38-0.58,0.38-1.02V2.98c0-0.44-0.13-0.78-0.38-1.02C5.5,1.72,5.15,1.6,4.69,1.6
		H1.81V5.12z"/>
	<path class="st0" d="M16.1,11.17l-1.01-3.02h-4.18l-0.98,3.02H8.1L11.9,0h2.27l3.81,11.17H16.1z M13.04,1.66h-0.08l-1.62,4.93h3.3
		L13.04,1.66z"/>
	<path class="st0" d="M21.52,11.17h-1.81V0h4.82c1,0,1.79,0.3,2.37,0.9c0.58,0.6,0.86,1.42,0.86,2.46c0,0.8-0.18,1.46-0.55,1.99
		c-0.37,0.53-0.91,0.9-1.62,1.11l2.42,4.7h-2.02l-2.24-4.51h-2.22V11.17z M24.4,5.14c0.46,0,0.82-0.12,1.07-0.36
		c0.26-0.24,0.38-0.58,0.38-1.03V2.99c0-0.45-0.13-0.79-0.38-1.03C25.22,1.72,24.86,1.6,24.4,1.6h-2.88v3.54H24.4z"/>
	<path class="st0" d="M33.54,5.95L32,7.71v3.46h-1.81V0H32v5.66h0.06l1.6-2.03L36.67,0h2.11L34.8,4.7l4.3,6.46h-2.18L33.54,5.95z"/>
</g>
</svg>
