<!-- Generator: Adobe Illustrator 23.1.1, SVG Export Plug-In  -->
<svg version="1.1" xmlns="http://www.w3.org/2000/svg" xmlns:xlink="http://www.w3.org/1999/xlink" x="0px" y="0px" width="72.25px"
	 height="15.04px" viewBox="0 0 72.25 15.04" style="enable-background:new 0 0 72.25 15.04;" xml:space="preserve">
<style type="text/css">
	.st0{fill:#FFFFFF;}
</style>
<defs>
</defs>
<g>
	<path class="st0" d="M0,11.84V0.67h7.15v1.6H1.81v3.1h4.85v1.6H1.81v3.26h5.34v1.6H0z"/>
	<path class="st0" d="M15.46,11.84c-0.46,0-0.81-0.13-1.06-0.39c-0.25-0.26-0.39-0.59-0.45-1h-0.08c-0.16,0.52-0.45,0.92-0.88,1.18
		s-0.94,0.4-1.55,0.4c-0.86,0-1.53-0.22-1.99-0.67c-0.46-0.45-0.7-1.05-0.7-1.81c0-0.83,0.3-1.46,0.9-1.87s1.49-0.62,2.65-0.62h1.5
		v-0.7c0-0.51-0.14-0.91-0.42-1.18s-0.71-0.42-1.3-0.42c-0.49,0-0.89,0.11-1.2,0.32c-0.31,0.21-0.57,0.49-0.78,0.82L9.07,4.94
		c0.28-0.47,0.67-0.86,1.17-1.16c0.5-0.3,1.16-0.46,1.97-0.46c1.08,0,1.9,0.25,2.48,0.75s0.86,1.22,0.86,2.16v4.18h0.88v1.42H15.46z
		 M11.94,10.7c0.54,0,0.99-0.12,1.34-0.36c0.35-0.24,0.53-0.56,0.53-0.97v-1.2h-1.47c-1.21,0-1.81,0.37-1.81,1.12v0.29
		c0,0.37,0.12,0.65,0.38,0.84S11.5,10.7,11.94,10.7z"/>
	<path class="st0" d="M21.36,12.03c-0.6,0-1.13-0.1-1.6-0.3c-0.47-0.2-0.86-0.49-1.18-0.87c-0.32-0.38-0.57-0.84-0.74-1.38
		c-0.17-0.54-0.26-1.14-0.26-1.8c0-0.66,0.08-1.26,0.26-1.8c0.17-0.54,0.42-1,0.74-1.38c0.32-0.38,0.71-0.67,1.18-0.87
		c0.47-0.2,1-0.3,1.6-0.3c0.83,0,1.51,0.19,2.05,0.56c0.53,0.37,0.92,0.87,1.17,1.49l-1.44,0.67c-0.12-0.38-0.32-0.69-0.62-0.92
		c-0.29-0.23-0.68-0.34-1.16-0.34c-0.64,0-1.12,0.2-1.45,0.6s-0.49,0.92-0.49,1.56v1.48c0,0.64,0.16,1.16,0.49,1.56
		s0.81,0.6,1.45,0.6c0.51,0,0.92-0.12,1.22-0.38c0.3-0.25,0.55-0.58,0.73-1l1.33,0.7c-0.28,0.69-0.69,1.21-1.25,1.58
		C22.84,11.85,22.16,12.03,21.36,12.03z"/>
	<path class="st0" d="M26.3,0h1.74v4.9h0.08c0.18-0.45,0.46-0.82,0.82-1.12c0.37-0.3,0.87-0.45,1.51-0.45
		c0.85,0,1.52,0.28,1.99,0.84c0.47,0.56,0.71,1.36,0.71,2.39v5.28h-1.74V6.77c0-1.29-0.52-1.94-1.57-1.94
		c-0.22,0-0.45,0.03-0.66,0.09s-0.41,0.15-0.58,0.26C28.44,5.3,28.3,5.45,28.2,5.63c-0.1,0.18-0.15,0.39-0.15,0.62v5.58H26.3V0z"/>
	<path class="st0" d="M44.46,3.52h1.68l-3.5,9.97c-0.1,0.28-0.21,0.51-0.33,0.71c-0.12,0.2-0.27,0.36-0.43,0.48
		c-0.17,0.12-0.37,0.21-0.6,0.27s-0.51,0.09-0.83,0.09h-1.01v-1.42h1.41l0.48-1.41L38.3,3.52h1.74l1.66,4.9l0.48,1.81h0.08
		l0.53-1.81L44.46,3.52z"/>
	<path class="st0" d="M50.75,12.03c-0.6,0-1.13-0.1-1.6-0.3c-0.47-0.2-0.87-0.49-1.2-0.87s-0.58-0.84-0.76-1.38s-0.26-1.14-0.26-1.8
		c0-0.66,0.09-1.26,0.26-1.8s0.43-1,0.76-1.38c0.33-0.38,0.73-0.67,1.2-0.87c0.47-0.2,1-0.3,1.6-0.3c0.61,0,1.14,0.11,1.61,0.32
		s0.85,0.51,1.16,0.89c0.31,0.38,0.54,0.82,0.7,1.32c0.16,0.5,0.23,1.04,0.23,1.62v0.66h-5.71V8.4c0,0.64,0.19,1.16,0.57,1.57
		c0.38,0.41,0.92,0.61,1.62,0.61c0.51,0,0.94-0.11,1.3-0.33c0.35-0.22,0.65-0.52,0.9-0.91l1.02,1.01c-0.31,0.51-0.76,0.92-1.34,1.23
		C52.21,11.88,51.53,12.03,50.75,12.03z M50.75,4.69c-0.3,0-0.57,0.05-0.82,0.16c-0.25,0.11-0.46,0.26-0.64,0.45
		s-0.31,0.42-0.41,0.69c-0.1,0.27-0.14,0.56-0.14,0.88v0.11h3.87V6.82c0-0.64-0.17-1.15-0.5-1.54C51.78,4.88,51.33,4.69,50.75,4.69z
		"/>
	<path class="st0" d="M62.48,11.84c-0.46,0-0.81-0.13-1.06-0.39c-0.25-0.26-0.39-0.59-0.45-1h-0.08c-0.16,0.52-0.45,0.92-0.88,1.18
		s-0.94,0.4-1.55,0.4c-0.86,0-1.53-0.22-1.99-0.67c-0.46-0.45-0.7-1.05-0.7-1.81c0-0.83,0.3-1.46,0.9-1.87s1.49-0.62,2.65-0.62h1.5
		v-0.7c0-0.51-0.14-0.91-0.42-1.18s-0.71-0.42-1.3-0.42c-0.49,0-0.89,0.11-1.2,0.32c-0.31,0.21-0.57,0.49-0.78,0.82l-1.04-0.94
		c0.28-0.47,0.67-0.86,1.17-1.16c0.5-0.3,1.16-0.46,1.97-0.46c1.08,0,1.9,0.25,2.48,0.75s0.86,1.22,0.86,2.16v4.18h0.88v1.42H62.48z
		 M58.96,10.7c0.54,0,0.99-0.12,1.34-0.36c0.35-0.24,0.53-0.56,0.53-0.97v-1.2h-1.47c-1.21,0-1.81,0.37-1.81,1.12v0.29
		c0,0.37,0.12,0.65,0.38,0.84S58.52,10.7,58.96,10.7z"/>
	<path class="st0" d="M65.17,11.84V3.52h1.74v1.6h0.08c0.12-0.43,0.36-0.8,0.74-1.12c0.37-0.32,0.89-0.48,1.55-0.48h0.46V5.2h-0.69
		c-0.69,0-1.22,0.11-1.59,0.34c-0.37,0.22-0.55,0.56-0.55,0.99v5.31H65.17z"/>
	<path class="st0" d="M71.09,9.62c0.39,0,0.69,0.1,0.88,0.3c0.19,0.2,0.29,0.46,0.29,0.78v0.26c0,0.52-0.14,1.07-0.42,1.64
		c-0.28,0.57-0.66,1.05-1.14,1.45h-1.3c0.34-0.34,0.62-0.67,0.85-0.99c0.22-0.32,0.39-0.68,0.51-1.07
		c-0.28-0.05-0.49-0.17-0.62-0.36c-0.14-0.19-0.21-0.41-0.21-0.66V10.7c0-0.32,0.1-0.58,0.29-0.78C70.4,9.72,70.69,9.62,71.09,9.62z
		"/>
</g>
</svg>
