<!-- Generator: Adobe Illustrator 23.1.1, SVG Export Plug-In  -->
<svg version="1.1" xmlns="http://www.w3.org/2000/svg" xmlns:xlink="http://www.w3.org/1999/xlink" x="0px" y="0px" width="41.63px"
	 height="13.57px" viewBox="0 0 41.63 13.57" style="enable-background:new 0 0 41.63 13.57;" xml:space="preserve">
<style type="text/css">
	.st0{fill:#FFFFFF;}
</style>
<defs>
</defs>
<g>
	<path class="st0" d="M3.68,4.78c0.69,0,1.21-0.15,1.54-0.44c0.33-0.29,0.5-0.67,0.5-1.13V3.1c0-0.51-0.16-0.9-0.48-1.18
		c-0.32-0.27-0.75-0.41-1.3-0.41c-0.53,0-0.99,0.12-1.36,0.36c-0.37,0.24-0.69,0.57-0.94,1l-1.2-1.04c0.17-0.25,0.36-0.48,0.58-0.7
		c0.21-0.22,0.46-0.42,0.75-0.58c0.29-0.17,0.61-0.3,0.98-0.4C3.1,0.05,3.51,0,3.98,0c0.52,0,1.01,0.06,1.46,0.19
		s0.83,0.32,1.15,0.57c0.32,0.25,0.57,0.55,0.75,0.91c0.18,0.36,0.27,0.76,0.27,1.21c0,0.35-0.06,0.67-0.17,0.96
		C7.34,4.13,7.18,4.38,6.98,4.6S6.56,5,6.3,5.14c-0.26,0.14-0.54,0.24-0.82,0.3v0.08c0.32,0.06,0.62,0.17,0.9,0.31
		c0.28,0.14,0.53,0.33,0.74,0.56c0.21,0.23,0.38,0.5,0.5,0.82c0.12,0.32,0.18,0.67,0.18,1.08c0,0.49-0.1,0.94-0.29,1.34
		c-0.19,0.4-0.46,0.74-0.81,1.03s-0.76,0.51-1.26,0.66c-0.49,0.15-1.03,0.23-1.63,0.23c-0.52,0-0.98-0.06-1.38-0.17
		c-0.39-0.11-0.74-0.26-1.05-0.45s-0.57-0.4-0.8-0.64C0.37,10.06,0.17,9.81,0,9.55l1.33-1.04c0.14,0.22,0.29,0.43,0.44,0.62
		C1.92,9.32,2.1,9.48,2.3,9.61c0.2,0.13,0.42,0.24,0.67,0.31C3.22,10,3.5,10.03,3.82,10.03c0.68,0,1.21-0.16,1.57-0.49
		c0.36-0.33,0.54-0.78,0.54-1.35V8.08c0-0.58-0.19-1.01-0.58-1.31S4.43,6.32,3.73,6.32H2.54V4.78H3.68z"/>
	<path class="st0" d="M11.41,9.14c0.39,0,0.69,0.1,0.88,0.3c0.19,0.2,0.29,0.46,0.29,0.78v0.26c0,0.52-0.14,1.07-0.42,1.64
		c-0.28,0.57-0.66,1.05-1.14,1.45h-1.3c0.34-0.34,0.62-0.67,0.85-0.99c0.22-0.32,0.39-0.68,0.51-1.07
		c-0.28-0.05-0.49-0.17-0.62-0.36c-0.14-0.19-0.21-0.41-0.21-0.66v-0.26c0-0.32,0.1-0.58,0.29-0.78
		C10.72,9.24,11.01,9.14,11.41,9.14z"/>
	<path class="st0" d="M17.92,4.78c0.69,0,1.21-0.15,1.54-0.44c0.33-0.29,0.5-0.67,0.5-1.13V3.1c0-0.51-0.16-0.9-0.48-1.18
		c-0.32-0.27-0.75-0.41-1.3-0.41c-0.53,0-0.99,0.12-1.36,0.36c-0.37,0.24-0.69,0.57-0.94,1l-1.2-1.04c0.17-0.25,0.36-0.48,0.58-0.7
		c0.21-0.22,0.46-0.42,0.75-0.58c0.29-0.17,0.61-0.3,0.98-0.4C17.34,0.05,17.75,0,18.22,0c0.52,0,1.01,0.06,1.46,0.19
		s0.83,0.32,1.15,0.57c0.32,0.25,0.57,0.55,0.75,0.91c0.18,0.36,0.27,0.76,0.27,1.21c0,0.35-0.06,0.67-0.17,0.96
		c-0.11,0.29-0.27,0.54-0.46,0.76S20.8,5,20.54,5.14c-0.26,0.14-0.54,0.24-0.82,0.3v0.08c0.32,0.06,0.62,0.17,0.9,0.31
		c0.28,0.14,0.53,0.33,0.74,0.56c0.21,0.23,0.38,0.5,0.5,0.82c0.12,0.32,0.18,0.67,0.18,1.08c0,0.49-0.1,0.94-0.29,1.34
		c-0.19,0.4-0.46,0.74-0.81,1.03s-0.76,0.51-1.26,0.66c-0.49,0.15-1.03,0.23-1.63,0.23c-0.52,0-0.98-0.06-1.38-0.17
		c-0.39-0.11-0.74-0.26-1.05-0.45s-0.57-0.4-0.8-0.64c-0.23-0.24-0.43-0.49-0.6-0.74l1.33-1.04c0.14,0.22,0.29,0.43,0.44,0.62
		c0.15,0.19,0.33,0.35,0.53,0.48c0.2,0.13,0.42,0.24,0.67,0.31c0.25,0.08,0.54,0.11,0.86,0.11c0.68,0,1.21-0.16,1.57-0.49
		c0.36-0.33,0.54-0.78,0.54-1.35V8.08c0-0.58-0.19-1.01-0.58-1.31s-0.93-0.45-1.63-0.45h-1.18V4.78H17.92z"/>
	<path class="st0" d="M24.74,11.36v-1.5h3.14V1.5h-0.13l-2.59,2.77l-1.1-0.99l2.85-3.09h2.75v9.66h2.72v1.5H24.74z"/>
	<path class="st0" d="M41.63,4.35c0,0.81-0.12,1.57-0.37,2.29s-0.56,1.37-0.94,1.97c-0.38,0.6-0.81,1.13-1.29,1.6
		c-0.47,0.47-0.94,0.85-1.4,1.15h-2.4c0.63-0.46,1.19-0.9,1.7-1.33c0.5-0.43,0.94-0.86,1.31-1.31c0.37-0.45,0.69-0.92,0.94-1.42
		c0.25-0.5,0.45-1.05,0.58-1.65l-0.11-0.03c-0.12,0.22-0.25,0.43-0.41,0.63c-0.15,0.2-0.34,0.37-0.54,0.52s-0.45,0.27-0.71,0.35
		c-0.27,0.09-0.58,0.13-0.93,0.13c-0.47,0-0.9-0.08-1.3-0.24c-0.4-0.16-0.75-0.39-1.04-0.7c-0.29-0.3-0.52-0.67-0.69-1.09
		c-0.17-0.42-0.25-0.9-0.25-1.43c0-0.55,0.09-1.07,0.28-1.54c0.19-0.47,0.45-0.87,0.79-1.2c0.34-0.33,0.75-0.59,1.23-0.78
		C36.56,0.09,37.1,0,37.69,0c0.62,0,1.17,0.1,1.66,0.3c0.49,0.2,0.9,0.49,1.23,0.87c0.34,0.38,0.59,0.83,0.78,1.37
		C41.54,3.08,41.63,3.68,41.63,4.35z M37.69,5.79c0.65,0,1.16-0.17,1.52-0.52c0.36-0.35,0.54-0.86,0.54-1.53V3.52
		c0-0.67-0.18-1.18-0.54-1.53c-0.36-0.35-0.87-0.52-1.52-0.52c-0.65,0-1.16,0.17-1.52,0.52c-0.36,0.35-0.54,0.86-0.54,1.53v0.22
		c0,0.67,0.18,1.18,0.54,1.53C36.54,5.62,37.04,5.79,37.69,5.79z"/>
</g>
</svg>
