<!-- Generator: Adobe Illustrator 23.1.1, SVG Export Plug-In  -->
<svg version="1.1" xmlns="http://www.w3.org/2000/svg" xmlns:xlink="http://www.w3.org/1999/xlink" x="0px" y="0px" width="76.53px"
	 height="11.55px" viewBox="0 0 76.53 11.55" style="enable-background:new 0 0 76.53 11.55;" xml:space="preserve">
<style type="text/css">
	.st0{fill:#FFFFFF;}
</style>
<defs>
</defs>
<g>
	<path class="st0" d="M3.01,5.18L1.78,2.82H1.73v8.54H0V0.19h2.02l3.65,6.18L6.9,8.74h0.05V0.19h1.73v11.17H6.66L3.01,5.18z"/>
	<path class="st0" d="M18.4,11.36l-1.01-3.02h-4.18l-0.98,3.02H10.4l3.81-11.17h2.27l3.81,11.17H18.4z M15.34,1.86h-0.08l-1.62,4.93
		h3.3L15.34,1.86z"/>
	<path class="st0" d="M25.12,1.79v9.57h-1.81V1.79h-3.33v-1.6h8.46v1.6H25.12z"/>
	<path class="st0" d="M29.63,11.36V9.89h1.52V1.66h-1.52V0.19h4.86v1.47h-1.54v8.22h1.54v1.47H29.63z"/>
	<path class="st0" d="M41.09,11.55c-0.73,0-1.38-0.13-1.98-0.38s-1.1-0.62-1.52-1.1c-0.42-0.49-0.75-1.09-0.98-1.81
		c-0.23-0.72-0.34-1.55-0.34-2.49c0-0.94,0.11-1.77,0.34-2.49c0.23-0.72,0.55-1.32,0.98-1.81c0.42-0.49,0.93-0.85,1.52-1.1
		S40.36,0,41.09,0c0.72,0,1.38,0.13,1.98,0.38s1.1,0.62,1.52,1.1c0.42,0.49,0.75,1.09,0.98,1.81c0.23,0.72,0.34,1.55,0.34,2.49
		c0,0.94-0.11,1.77-0.34,2.49c-0.23,0.72-0.55,1.32-0.98,1.81c-0.42,0.49-0.93,0.85-1.52,1.1S41.81,11.55,41.09,11.55z M41.09,9.95
		c0.43,0,0.82-0.07,1.18-0.22s0.66-0.37,0.91-0.65c0.25-0.28,0.45-0.63,0.58-1.04c0.14-0.41,0.21-0.87,0.21-1.38V4.89
		c0-0.51-0.07-0.97-0.21-1.38c-0.14-0.41-0.33-0.75-0.58-1.04c-0.25-0.28-0.55-0.5-0.91-0.65c-0.36-0.15-0.75-0.22-1.18-0.22
		c-0.44,0-0.83,0.07-1.18,0.22c-0.35,0.15-0.65,0.37-0.9,0.65c-0.25,0.28-0.45,0.63-0.58,1.04c-0.14,0.41-0.21,0.87-0.21,1.38v1.77
		c0,0.51,0.07,0.97,0.21,1.38c0.14,0.41,0.33,0.75,0.58,1.04c0.25,0.28,0.55,0.5,0.9,0.65C40.26,9.88,40.65,9.95,41.09,9.95z"/>
	<path class="st0" d="M51.17,5.18l-1.23-2.37h-0.05v8.54h-1.73V0.19h2.02l3.65,6.18l1.23,2.37h0.05V0.19h1.73v11.17h-2.02
		L51.17,5.18z"/>
	<path class="st0" d="M66.56,11.36l-1.01-3.02h-4.18l-0.98,3.02h-1.84l3.81-11.17h2.27l3.81,11.17H66.56z M63.5,1.86h-0.08
		l-1.62,4.93h3.3L63.5,1.86z"/>
	<path class="st0" d="M70.17,11.36V0.19h1.81v9.57h4.54v1.6H70.17z"/>
</g>
</svg>
