<!-- Generator: Adobe Illustrator 23.1.1, SVG Export Plug-In  -->
<svg version="1.1" xmlns="http://www.w3.org/2000/svg" xmlns:xlink="http://www.w3.org/1999/xlink" x="0px" y="0px" width="86.37px"
	 height="13.57px" viewBox="0 0 86.37 13.57" style="enable-background:new 0 0 86.37 13.57;" xml:space="preserve">
<style type="text/css">
	.st0{fill:#FFFFFF;}
</style>
<defs>
</defs>
<g>
	<path class="st0" d="M7.74,11.36H0.16V9.63l3.57-3.18c0.56-0.51,1-1,1.3-1.46c0.3-0.46,0.46-0.95,0.46-1.46V3.31
		c0-0.54-0.16-0.97-0.49-1.28C4.67,1.72,4.23,1.57,3.68,1.57c-0.31,0-0.58,0.05-0.81,0.14c-0.23,0.09-0.43,0.22-0.6,0.38
		C2.1,2.24,1.96,2.43,1.85,2.64c-0.11,0.21-0.2,0.44-0.26,0.69L0,2.72C0.12,2.37,0.28,2.03,0.48,1.7c0.2-0.33,0.46-0.62,0.77-0.87
		c0.31-0.26,0.67-0.46,1.1-0.61C2.77,0.07,3.26,0,3.82,0S4.9,0.08,5.34,0.25c0.45,0.17,0.82,0.39,1.13,0.69
		c0.3,0.29,0.54,0.64,0.7,1.05s0.24,0.85,0.24,1.33c0,0.45-0.07,0.86-0.21,1.25C7.06,4.94,6.87,5.31,6.62,5.65
		C6.38,5.99,6.09,6.31,5.77,6.62C5.44,6.93,5.1,7.25,4.74,7.57L2.11,9.82h5.63V11.36z"/>
	<path class="st0" d="M11.01,9.14c0.39,0,0.69,0.1,0.88,0.3c0.19,0.2,0.29,0.46,0.29,0.78v0.26c0,0.52-0.14,1.07-0.42,1.64
		c-0.28,0.57-0.66,1.05-1.14,1.45h-1.3c0.34-0.34,0.62-0.67,0.85-0.99c0.22-0.32,0.39-0.68,0.51-1.07
		c-0.28-0.05-0.49-0.17-0.62-0.36s-0.21-0.41-0.21-0.66v-0.26c0-0.32,0.1-0.58,0.29-0.78S10.61,9.14,11.01,9.14z"/>
	<path class="st0" d="M21.98,11.36H14.4V9.63l3.57-3.18c0.56-0.51,1-1,1.3-1.46c0.3-0.46,0.46-0.95,0.46-1.46V3.31
		c0-0.54-0.16-0.97-0.49-1.28c-0.33-0.31-0.77-0.46-1.32-0.46c-0.31,0-0.58,0.05-0.81,0.14c-0.23,0.09-0.43,0.22-0.6,0.38
		c-0.17,0.16-0.31,0.35-0.42,0.56c-0.11,0.21-0.2,0.44-0.26,0.69l-1.58-0.61c0.12-0.35,0.28-0.69,0.48-1.02
		c0.2-0.33,0.46-0.62,0.77-0.87c0.31-0.26,0.67-0.46,1.1-0.61C17,0.07,17.5,0,18.06,0s1.07,0.08,1.52,0.25
		c0.45,0.17,0.82,0.39,1.13,0.69c0.3,0.29,0.54,0.64,0.7,1.05s0.24,0.85,0.24,1.33c0,0.45-0.07,0.86-0.21,1.25
		c-0.14,0.38-0.33,0.75-0.58,1.09c-0.25,0.34-0.53,0.67-0.86,0.98c-0.33,0.31-0.67,0.62-1.03,0.94l-2.62,2.26h5.63V11.36z"/>
	<path class="st0" d="M31.58,11.36H24V9.63l3.57-3.18c0.56-0.51,1-1,1.3-1.46c0.3-0.46,0.46-0.95,0.46-1.46V3.31
		c0-0.54-0.16-0.97-0.49-1.28c-0.33-0.31-0.77-0.46-1.32-0.46c-0.31,0-0.58,0.05-0.81,0.14c-0.23,0.09-0.43,0.22-0.6,0.38
		c-0.17,0.16-0.31,0.35-0.42,0.56c-0.11,0.21-0.2,0.44-0.26,0.69l-1.58-0.61c0.12-0.35,0.28-0.69,0.48-1.02
		c0.2-0.33,0.46-0.62,0.77-0.87c0.31-0.26,0.67-0.46,1.1-0.61C26.6,0.07,27.1,0,27.66,0s1.07,0.08,1.52,0.25
		c0.45,0.17,0.82,0.39,1.13,0.69c0.3,0.29,0.54,0.64,0.7,1.05s0.24,0.85,0.24,1.33c0,0.45-0.07,0.86-0.21,1.25
		c-0.14,0.38-0.33,0.75-0.58,1.09c-0.25,0.34-0.53,0.67-0.86,0.98c-0.33,0.31-0.67,0.62-1.03,0.94l-2.62,2.26h5.63V11.36z"/>
	<path class="st0" d="M37.33,11.55c-0.69,0-1.3-0.13-1.81-0.39c-0.51-0.26-0.93-0.64-1.26-1.13c-0.33-0.49-0.58-1.09-0.74-1.81
		c-0.16-0.71-0.24-1.53-0.24-2.45c0-0.91,0.08-1.72,0.24-2.44c0.16-0.72,0.41-1.33,0.74-1.82s0.75-0.87,1.26-1.13
		C36.03,0.13,36.63,0,37.33,0c1.39,0,2.41,0.51,3.06,1.52c0.66,1.01,0.98,2.43,0.98,4.26s-0.33,3.24-0.98,4.26
		C39.73,11.05,38.71,11.55,37.33,11.55z M37.33,10.02c0.38,0,0.71-0.08,0.98-0.23c0.27-0.15,0.49-0.38,0.66-0.66
		c0.17-0.29,0.29-0.63,0.37-1.03s0.11-0.85,0.11-1.34V4.8c0-0.49-0.04-0.94-0.11-1.34s-0.2-0.74-0.37-1.03
		c-0.17-0.29-0.39-0.51-0.66-0.66s-0.6-0.23-0.98-0.23c-0.38,0-0.71,0.08-0.98,0.23s-0.49,0.38-0.66,0.66
		c-0.17,0.29-0.29,0.63-0.37,1.03c-0.07,0.4-0.11,0.85-0.11,1.34v1.95c0,0.49,0.04,0.94,0.11,1.34c0.07,0.4,0.2,0.74,0.37,1.03
		c0.17,0.29,0.39,0.51,0.66,0.66C36.61,9.94,36.94,10.02,37.33,10.02z"/>
	<path class="st0" d="M51.42,1.79v9.57h-1.81V1.79h-3.33v-1.6h8.46v1.6H51.42z"/>
	<path class="st0" d="M60.48,11.55c-0.73,0-1.38-0.13-1.98-0.38c-0.59-0.25-1.1-0.62-1.52-1.1c-0.42-0.49-0.75-1.09-0.98-1.81
		c-0.23-0.72-0.34-1.55-0.34-2.49c0-0.94,0.11-1.77,0.34-2.49c0.23-0.72,0.55-1.32,0.98-1.81c0.42-0.49,0.93-0.85,1.52-1.1
		C59.09,0.13,59.75,0,60.48,0c0.73,0,1.38,0.13,1.98,0.38c0.59,0.25,1.1,0.62,1.52,1.1s0.75,1.09,0.98,1.81
		c0.23,0.72,0.34,1.55,0.34,2.49c0,0.94-0.11,1.77-0.34,2.49c-0.23,0.72-0.55,1.32-0.98,1.81s-0.93,0.85-1.52,1.1
		C61.86,11.43,61.2,11.55,60.48,11.55z M60.48,9.95c0.43,0,0.82-0.07,1.18-0.22s0.66-0.37,0.91-0.65c0.25-0.28,0.45-0.63,0.58-1.04
		c0.14-0.41,0.21-0.87,0.21-1.38V4.89c0-0.51-0.07-0.97-0.21-1.38c-0.14-0.41-0.33-0.75-0.58-1.04c-0.25-0.28-0.55-0.5-0.91-0.65
		C61.3,1.67,60.9,1.6,60.48,1.6c-0.44,0-0.83,0.07-1.18,0.22c-0.35,0.15-0.65,0.37-0.9,0.65c-0.25,0.28-0.45,0.63-0.58,1.04
		c-0.14,0.41-0.21,0.87-0.21,1.38v1.77c0,0.51,0.07,0.97,0.21,1.38c0.14,0.41,0.33,0.75,0.58,1.04s0.55,0.5,0.9,0.65
		C59.65,9.88,60.04,9.95,60.48,9.95z"/>
	<path class="st0" d="M70.56,5.18l-1.23-2.37h-0.05v8.54h-1.73V0.19h2.02l3.65,6.18l1.23,2.37h0.05V0.19h1.73v11.17h-2.02
		L70.56,5.18z"/>
	<path class="st0" d="M82.32,11.55c-0.94,0-1.74-0.17-2.39-0.51c-0.66-0.34-1.22-0.8-1.69-1.38l1.25-1.17
		c0.39,0.48,0.83,0.84,1.3,1.09s1.02,0.37,1.62,0.37c0.71,0,1.25-0.16,1.62-0.48c0.36-0.32,0.54-0.75,0.54-1.3
		c0-0.44-0.13-0.78-0.38-1.04c-0.26-0.26-0.71-0.45-1.36-0.58l-0.99-0.18c-1.09-0.2-1.9-0.56-2.45-1.07
		C78.85,4.8,78.57,4.1,78.57,3.2c0-0.49,0.09-0.94,0.28-1.34s0.45-0.74,0.78-1.01s0.74-0.48,1.22-0.63C81.34,0.07,81.88,0,82.48,0
		c0.84,0,1.57,0.15,2.19,0.44s1.15,0.72,1.58,1.27l-1.26,1.12c-0.29-0.37-0.64-0.67-1.06-0.9C83.52,1.71,83,1.6,82.38,1.6
		c-0.64,0-1.14,0.13-1.49,0.38s-0.53,0.63-0.53,1.12c0,0.47,0.14,0.82,0.43,1.05c0.29,0.23,0.74,0.4,1.34,0.52l0.99,0.21
		c1.12,0.21,1.94,0.58,2.46,1.09c0.52,0.51,0.78,1.22,0.78,2.11c0,0.52-0.09,1-0.27,1.42c-0.18,0.43-0.45,0.79-0.79,1.1
		c-0.35,0.3-0.77,0.54-1.27,0.7C83.53,11.47,82.96,11.55,82.32,11.55z"/>
</g>
</svg>
