<!-- Generator: Adobe Illustrator 23.1.1, SVG Export Plug-In  -->
<svg version="1.1" xmlns="http://www.w3.org/2000/svg" xmlns:xlink="http://www.w3.org/1999/xlink" x="0px" y="0px" width="84.21px"
	 height="12.03px" viewBox="0 0 84.21 12.03" style="enable-background:new 0 0 84.21 12.03;" xml:space="preserve">
<style type="text/css">
	.st0{fill:#576A36;}
</style>
<defs>
</defs>
<g>
	<path class="st0" d="M0,11.84V0.67h6.98v1.6H1.81v3.1H6.4v1.6H1.81v4.86H0z"/>
	<path class="st0" d="M13.63,10.46h-0.06c-0.07,0.2-0.17,0.4-0.3,0.59c-0.12,0.19-0.28,0.36-0.46,0.5
		c-0.19,0.14-0.41,0.26-0.67,0.34c-0.26,0.08-0.56,0.13-0.9,0.13c-0.86,0-1.53-0.28-2.01-0.83S8.51,9.85,8.51,8.82v-5.3h1.74v5.07
		c0,1.29,0.53,1.94,1.6,1.94c0.22,0,0.44-0.03,0.66-0.09c0.21-0.06,0.4-0.15,0.57-0.26c0.17-0.12,0.3-0.27,0.4-0.45
		c0.1-0.18,0.15-0.39,0.15-0.64V3.52h1.74v8.32h-1.74V10.46z"/>
	<path class="st0" d="M19.65,11.84c-0.6,0-1.04-0.15-1.34-0.46c-0.29-0.3-0.44-0.73-0.44-1.27V0h1.74v10.42h1.15v1.42H19.65z"/>
	<path class="st0" d="M24.11,11.84c-0.6,0-1.04-0.15-1.34-0.46c-0.29-0.3-0.44-0.73-0.44-1.27V0h1.74v10.42h1.15v1.42H24.11z"/>
	<path class="st0" d="M33.93,12.03c-0.58,0-1.1-0.1-1.58-0.3c-0.47-0.2-0.88-0.49-1.21-0.87c-0.33-0.38-0.59-0.84-0.77-1.38
		c-0.18-0.54-0.27-1.14-0.27-1.8c0-0.66,0.09-1.26,0.27-1.8c0.18-0.54,0.44-1,0.77-1.38c0.33-0.38,0.73-0.67,1.21-0.87
		c0.47-0.2,1-0.3,1.58-0.3s1.1,0.1,1.58,0.3c0.47,0.2,0.88,0.49,1.21,0.87s0.59,0.84,0.77,1.38c0.18,0.54,0.27,1.14,0.27,1.8
		c0,0.66-0.09,1.26-0.27,1.8c-0.18,0.54-0.44,1-0.77,1.38c-0.33,0.38-0.73,0.67-1.21,0.87C35.04,11.93,34.51,12.03,33.93,12.03z
		 M33.93,10.58c0.6,0,1.08-0.18,1.44-0.55c0.36-0.37,0.54-0.91,0.54-1.65v-1.4c0-0.73-0.18-1.28-0.54-1.65
		c-0.36-0.37-0.84-0.55-1.44-0.55s-1.08,0.18-1.44,0.55c-0.36,0.37-0.54,0.92-0.54,1.65v1.4c0,0.73,0.18,1.28,0.54,1.65
		C32.86,10.39,33.34,10.58,33.93,10.58z"/>
	<path class="st0" d="M40.03,4.94h-1.26V3.52h1.26V2.14c0-0.67,0.18-1.2,0.53-1.58C40.91,0.19,41.44,0,42.14,0h1.38v1.42h-1.74v2.1
		h1.74v1.42h-1.74v6.9h-1.74V4.94z"/>
	<path class="st0" d="M51.12,11.84c-0.61,0-1.07-0.16-1.38-0.47s-0.46-0.76-0.46-1.34V4.94h-1.3V3.52h0.7c0.29,0,0.49-0.06,0.6-0.19
		c0.11-0.13,0.17-0.34,0.17-0.62V1.25h1.57v2.27h1.74v1.42h-1.74v5.47h1.62v1.42H51.12z"/>
	<path class="st0" d="M54.65,11.84V3.52h1.74v1.6h0.08c0.12-0.43,0.36-0.8,0.74-1.12c0.37-0.32,0.89-0.48,1.55-0.48h0.46V5.2h-0.69
		c-0.69,0-1.22,0.11-1.59,0.34c-0.37,0.22-0.55,0.55-0.55,0.99v5.31H54.65z"/>
	<path class="st0" d="M66.75,11.84c-0.46,0-0.81-0.13-1.06-0.39c-0.25-0.26-0.39-0.59-0.45-1h-0.08c-0.16,0.52-0.45,0.92-0.88,1.18
		s-0.94,0.4-1.55,0.4c-0.86,0-1.53-0.22-1.99-0.67c-0.46-0.45-0.7-1.05-0.7-1.81c0-0.83,0.3-1.46,0.9-1.87s1.49-0.62,2.65-0.62h1.5
		v-0.7c0-0.51-0.14-0.91-0.42-1.18s-0.71-0.42-1.3-0.42c-0.49,0-0.89,0.11-1.2,0.32c-0.31,0.21-0.57,0.49-0.78,0.82l-1.04-0.94
		c0.28-0.47,0.67-0.86,1.17-1.16c0.5-0.3,1.16-0.46,1.97-0.46c1.08,0,1.9,0.25,2.48,0.75c0.58,0.5,0.86,1.22,0.86,2.16v4.18h0.88
		v1.42H66.75z M63.23,10.7c0.54,0,0.99-0.12,1.34-0.36s0.53-0.56,0.53-0.97v-1.2h-1.47c-1.21,0-1.81,0.37-1.81,1.12v0.29
		c0,0.37,0.12,0.65,0.38,0.84S62.79,10.7,63.23,10.7z"/>
	<path class="st0" d="M72.08,12.03c-0.79,0-1.45-0.14-1.98-0.42c-0.53-0.28-1-0.66-1.39-1.15l1.12-1.02
		c0.31,0.37,0.65,0.66,1.03,0.87s0.82,0.31,1.32,0.31c0.51,0,0.89-0.1,1.14-0.3s0.38-0.47,0.38-0.82c0-0.27-0.09-0.49-0.26-0.68
		s-0.48-0.31-0.92-0.36l-0.77-0.1c-0.85-0.11-1.52-0.35-2.01-0.74S69,6.66,69,5.89c0-0.41,0.07-0.76,0.22-1.08
		c0.15-0.31,0.36-0.58,0.63-0.8c0.27-0.22,0.6-0.39,0.98-0.5c0.38-0.12,0.8-0.18,1.26-0.18c0.75,0,1.36,0.12,1.83,0.35
		c0.47,0.24,0.9,0.56,1.27,0.98l-1.07,1.02c-0.21-0.26-0.49-0.48-0.84-0.66s-0.74-0.28-1.19-0.28c-0.48,0-0.83,0.1-1.06,0.29
		c-0.23,0.19-0.34,0.44-0.34,0.75c0,0.32,0.1,0.56,0.3,0.72c0.2,0.16,0.53,0.28,0.98,0.35l0.77,0.1c0.92,0.14,1.59,0.41,2.01,0.81
		c0.42,0.4,0.63,0.94,0.63,1.61c0,0.41-0.08,0.77-0.23,1.1c-0.16,0.33-0.38,0.61-0.66,0.84s-0.63,0.42-1.04,0.54
		S72.58,12.03,72.08,12.03z"/>
	<path class="st0" d="M77.34,0h1.74v4.9h0.08c0.18-0.45,0.46-0.82,0.82-1.12c0.37-0.3,0.87-0.45,1.51-0.45
		c0.85,0,1.52,0.28,1.99,0.84c0.47,0.56,0.71,1.36,0.71,2.39v5.28h-1.74V6.77c0-1.29-0.52-1.94-1.57-1.94
		c-0.22,0-0.45,0.03-0.66,0.09s-0.41,0.15-0.58,0.26c-0.17,0.12-0.31,0.27-0.41,0.45c-0.1,0.18-0.15,0.39-0.15,0.62v5.58h-1.74V0z"
		/>
</g>
</svg>
