<!-- Generator: Adobe Illustrator 23.1.1, SVG Export Plug-In  -->
<svg version="1.1" xmlns="http://www.w3.org/2000/svg" xmlns:xlink="http://www.w3.org/1999/xlink" x="0px" y="0px" width="7.68px"
	 height="8.7px" viewBox="0 0 7.68 8.7" style="enable-background:new 0 0 7.68 8.7;" xml:space="preserve">
<style type="text/css">
	.st0{fill:#FFFFFF;}
</style>
<defs>
</defs>
<g>
	<path class="st0" d="M6.7,8.51c-0.46,0-0.81-0.13-1.06-0.39c-0.25-0.26-0.39-0.59-0.45-1H5.12C4.96,7.64,4.67,8.04,4.24,8.3
		S3.3,8.7,2.69,8.7c-0.86,0-1.53-0.22-1.99-0.67C0.23,7.58,0,6.98,0,6.22c0-0.83,0.3-1.46,0.9-1.87s1.49-0.62,2.65-0.62h1.5v-0.7
		c0-0.51-0.14-0.91-0.42-1.18s-0.71-0.42-1.3-0.42c-0.49,0-0.89,0.11-1.2,0.32C1.83,1.96,1.57,2.23,1.36,2.56L0.32,1.62
		C0.6,1.15,0.99,0.76,1.49,0.46C1.99,0.15,2.65,0,3.46,0c1.08,0,1.9,0.25,2.48,0.75C6.51,1.25,6.8,1.97,6.8,2.91v4.18h0.88v1.42H6.7
		z M3.18,7.38c0.54,0,0.99-0.12,1.34-0.36s0.53-0.56,0.53-0.97v-1.2H3.58c-1.21,0-1.81,0.37-1.81,1.12v0.29
		c0,0.37,0.12,0.65,0.38,0.84S2.75,7.38,3.18,7.38z"/>
</g>
</svg>
