<!-- Generator: Adobe Illustrator 23.1.1, SVG Export Plug-In  -->
<svg version="1.1" xmlns="http://www.w3.org/2000/svg" xmlns:xlink="http://www.w3.org/1999/xlink" x="0px" y="0px" width="69.04px"
	 height="12.03px" viewBox="0 0 69.04 12.03" style="enable-background:new 0 0 69.04 12.03;" xml:space="preserve">
<style type="text/css">
	.st0{fill:#FFFFFF;}
</style>
<defs>
</defs>
<g>
	<path class="st0" d="M6.7,11.84c-0.46,0-0.81-0.13-1.06-0.39c-0.25-0.26-0.39-0.59-0.45-1H5.12c-0.16,0.52-0.45,0.92-0.88,1.18
		s-0.94,0.4-1.55,0.4c-0.86,0-1.53-0.22-1.99-0.67C0.23,10.91,0,10.31,0,9.55C0,8.72,0.3,8.1,0.9,7.68s1.49-0.62,2.65-0.62h1.5v-0.7
		c0-0.51-0.14-0.91-0.42-1.18s-0.71-0.42-1.3-0.42c-0.49,0-0.89,0.11-1.2,0.32C1.83,5.29,1.57,5.56,1.36,5.89L0.32,4.94
		C0.6,4.47,0.99,4.09,1.49,3.78c0.5-0.3,1.16-0.46,1.97-0.46c1.08,0,1.9,0.25,2.48,0.75S6.8,5.3,6.8,6.24v4.18h0.88v1.42H6.7z
		 M3.18,10.7c0.54,0,0.99-0.12,1.34-0.36c0.35-0.24,0.53-0.56,0.53-0.97v-1.2H3.58c-1.21,0-1.81,0.37-1.81,1.12v0.29
		c0,0.37,0.12,0.65,0.38,0.84S2.75,10.7,3.18,10.7z"/>
	<path class="st0" d="M9.39,11.84V3.52h1.74V4.9h0.08c0.18-0.45,0.46-0.82,0.82-1.12c0.37-0.3,0.87-0.45,1.51-0.45
		c0.85,0,1.52,0.28,1.99,0.84c0.47,0.56,0.71,1.36,0.71,2.39v5.28h-1.74V6.78c0-1.3-0.52-1.95-1.57-1.95
		c-0.22,0-0.45,0.03-0.66,0.09s-0.41,0.15-0.58,0.26c-0.17,0.12-0.31,0.27-0.41,0.45c-0.1,0.18-0.15,0.39-0.15,0.64v5.57H9.39z"/>
	<path class="st0" d="M23.9,10.46h-0.08c-0.18,0.49-0.48,0.87-0.89,1.15c-0.41,0.28-0.89,0.42-1.45,0.42
		c-1.06,0-1.87-0.38-2.45-1.14c-0.58-0.76-0.86-1.83-0.86-3.21s0.29-2.45,0.86-3.21c0.58-0.76,1.39-1.14,2.45-1.14
		c0.55,0,1.04,0.14,1.45,0.41c0.41,0.27,0.71,0.66,0.89,1.16h0.08V0h1.74v11.84H23.9V10.46z M22.02,10.53
		c0.53,0,0.98-0.13,1.34-0.39c0.36-0.26,0.54-0.6,0.54-1.03V6.26c0-0.43-0.18-0.77-0.54-1.03C23,4.96,22.55,4.83,22.02,4.83
		c-0.61,0-1.09,0.19-1.46,0.58c-0.36,0.39-0.54,0.9-0.54,1.54V8.4c0,0.64,0.18,1.15,0.54,1.54C20.92,10.33,21.41,10.53,22.02,10.53z
		"/>
	<path class="st0" d="M33.7,11.84c-0.6,0-1.04-0.15-1.34-0.46c-0.29-0.3-0.44-0.73-0.44-1.27V0h1.74v10.42h1.15v1.42H33.7z"/>
	<path class="st0" d="M39.74,12.03c-0.6,0-1.13-0.1-1.6-0.3c-0.47-0.2-0.87-0.49-1.2-0.87s-0.58-0.84-0.76-1.38s-0.26-1.14-0.26-1.8
		c0-0.66,0.09-1.26,0.26-1.8s0.43-1,0.76-1.38c0.33-0.38,0.73-0.67,1.2-0.87c0.47-0.2,1-0.3,1.6-0.3c0.61,0,1.14,0.11,1.61,0.32
		s0.85,0.51,1.16,0.89c0.31,0.38,0.54,0.82,0.7,1.32c0.16,0.5,0.23,1.04,0.23,1.62v0.66h-5.71V8.4c0,0.64,0.19,1.16,0.57,1.57
		c0.38,0.41,0.92,0.61,1.62,0.61c0.51,0,0.94-0.11,1.3-0.33c0.35-0.22,0.65-0.52,0.9-0.91l1.02,1.01c-0.31,0.51-0.76,0.92-1.34,1.23
		C41.21,11.88,40.52,12.03,39.74,12.03z M39.74,4.69c-0.3,0-0.57,0.05-0.82,0.16c-0.25,0.11-0.46,0.26-0.64,0.45
		s-0.31,0.42-0.41,0.69c-0.1,0.27-0.14,0.56-0.14,0.88v0.11h3.87V6.82c0-0.64-0.17-1.15-0.5-1.54C40.77,4.88,40.32,4.69,39.74,4.69z
		"/>
	<path class="st0" d="M51.47,11.84c-0.46,0-0.81-0.13-1.06-0.39c-0.25-0.26-0.39-0.59-0.45-1h-0.08c-0.16,0.52-0.45,0.92-0.88,1.18
		s-0.94,0.4-1.55,0.4c-0.86,0-1.53-0.22-1.99-0.67c-0.46-0.45-0.7-1.05-0.7-1.81c0-0.83,0.3-1.46,0.9-1.87s1.49-0.62,2.65-0.62h1.5
		v-0.7c0-0.51-0.14-0.91-0.42-1.18s-0.71-0.42-1.3-0.42c-0.49,0-0.89,0.11-1.2,0.32c-0.31,0.21-0.57,0.49-0.78,0.82l-1.04-0.94
		c0.28-0.47,0.67-0.86,1.17-1.16c0.5-0.3,1.16-0.46,1.97-0.46c1.08,0,1.9,0.25,2.48,0.75s0.86,1.22,0.86,2.16v4.18h0.88v1.42H51.47z
		 M47.95,10.7c0.54,0,0.99-0.12,1.34-0.36c0.35-0.24,0.53-0.56,0.53-0.97v-1.2h-1.47c-1.21,0-1.81,0.37-1.81,1.12v0.29
		c0,0.37,0.12,0.65,0.38,0.84S47.51,10.7,47.95,10.7z"/>
	<path class="st0" d="M55.82,11.84l-2.83-8.32h1.73l1.26,3.79l0.85,2.91h0.1l0.85-2.91l1.3-3.79h1.66l-2.86,8.32H55.82z"/>
	<path class="st0" d="M65.34,12.03c-0.6,0-1.13-0.1-1.6-0.3c-0.47-0.2-0.87-0.49-1.2-0.87s-0.58-0.84-0.76-1.38s-0.26-1.14-0.26-1.8
		c0-0.66,0.09-1.26,0.26-1.8s0.43-1,0.76-1.38c0.33-0.38,0.73-0.67,1.2-0.87c0.47-0.2,1-0.3,1.6-0.3c0.61,0,1.14,0.11,1.61,0.32
		s0.85,0.51,1.16,0.89c0.31,0.38,0.54,0.82,0.7,1.32c0.16,0.5,0.23,1.04,0.23,1.62v0.66h-5.71V8.4c0,0.64,0.19,1.16,0.57,1.57
		c0.38,0.41,0.92,0.61,1.62,0.61c0.51,0,0.94-0.11,1.3-0.33c0.35-0.22,0.65-0.52,0.9-0.91l1.02,1.01c-0.31,0.51-0.76,0.92-1.34,1.23
		C66.81,11.88,66.12,12.03,65.34,12.03z M65.34,4.69c-0.3,0-0.57,0.05-0.82,0.16c-0.25,0.11-0.46,0.26-0.64,0.45
		s-0.31,0.42-0.41,0.69c-0.1,0.27-0.14,0.56-0.14,0.88v0.11h3.87V6.82c0-0.64-0.17-1.15-0.5-1.54C66.37,4.88,65.92,4.69,65.34,4.69z
		"/>
</g>
</svg>
