<!-- Generator: Adobe Illustrator 23.1.1, SVG Export Plug-In  -->
<svg version="1.1" xmlns="http://www.w3.org/2000/svg" xmlns:xlink="http://www.w3.org/1999/xlink" x="0px" y="0px" width="51.07px"
	 height="13.57px" viewBox="0 0 51.07 13.57" style="enable-background:new 0 0 51.07 13.57;" xml:space="preserve">
<style type="text/css">
	.st0{fill:#FFFFFF;}
</style>
<defs>
</defs>
<g>
	<path class="st0" d="M0.69,11.36v-1.5h3.14V1.5H3.7L1.1,4.27L0,3.28l2.85-3.09H5.6v9.66h2.72v1.5H0.69z"/>
	<path class="st0" d="M13.71,11.55c-0.62,0-1.17-0.1-1.66-0.3c-0.49-0.2-0.9-0.49-1.23-0.87s-0.59-0.83-0.78-1.37
		C9.87,8.47,9.78,7.87,9.78,7.2c0-0.81,0.12-1.57,0.37-2.29c0.25-0.71,0.56-1.37,0.94-1.97c0.38-0.6,0.81-1.13,1.29-1.59
		c0.47-0.46,0.94-0.85,1.4-1.16h2.4c-0.63,0.46-1.19,0.9-1.7,1.33c-0.5,0.43-0.94,0.86-1.31,1.31c-0.37,0.45-0.69,0.92-0.94,1.42
		c-0.25,0.5-0.45,1.05-0.58,1.65l0.11,0.03c0.12-0.22,0.25-0.43,0.41-0.63c0.15-0.2,0.34-0.37,0.54-0.52
		c0.21-0.15,0.45-0.27,0.71-0.35C13.69,4.35,14,4.3,14.35,4.3c0.47,0,0.9,0.08,1.3,0.24c0.4,0.16,0.75,0.39,1.04,0.7
		c0.29,0.3,0.52,0.67,0.69,1.1s0.25,0.9,0.25,1.42c0,0.57-0.09,1.08-0.28,1.54c-0.19,0.46-0.45,0.86-0.79,1.19
		c-0.34,0.33-0.75,0.59-1.24,0.78C14.83,11.46,14.3,11.55,13.71,11.55z M13.71,10.08c0.65,0,1.16-0.17,1.52-0.52
		c0.36-0.35,0.54-0.86,0.54-1.53V7.81c0-0.67-0.18-1.18-0.54-1.53c-0.36-0.35-0.87-0.52-1.52-0.52s-1.16,0.17-1.52,0.52
		c-0.36,0.35-0.54,0.86-0.54,1.53v0.22c0,0.67,0.18,1.18,0.54,1.53C12.55,9.91,13.06,10.08,13.71,10.08z"/>
	<path class="st0" d="M20.8,9.14c0.39,0,0.69,0.1,0.88,0.3c0.19,0.2,0.29,0.46,0.29,0.78v0.26c0,0.52-0.14,1.07-0.42,1.64
		c-0.28,0.57-0.66,1.05-1.14,1.45h-1.3c0.34-0.34,0.62-0.67,0.85-0.99c0.22-0.32,0.39-0.68,0.51-1.07
		c-0.28-0.05-0.49-0.17-0.62-0.36c-0.14-0.19-0.21-0.41-0.21-0.66v-0.26c0-0.32,0.1-0.58,0.29-0.78C20.11,9.24,20.4,9.14,20.8,9.14z
		"/>
	<path class="st0" d="M25.86,11.36l4.05-9.68h-4.22v2.06h-1.55V0.19h7.57v1.57l-3.94,9.6H25.86z"/>
	<path class="st0" d="M36.91,4.78c0.69,0,1.21-0.15,1.54-0.44c0.33-0.29,0.5-0.67,0.5-1.13V3.1c0-0.51-0.16-0.9-0.48-1.18
		s-0.75-0.41-1.3-0.41c-0.53,0-0.99,0.12-1.36,0.36c-0.37,0.24-0.69,0.57-0.94,1l-1.2-1.04c0.17-0.25,0.36-0.48,0.58-0.7
		c0.21-0.22,0.46-0.42,0.75-0.58c0.29-0.17,0.61-0.3,0.98-0.4C36.33,0.05,36.75,0,37.21,0c0.52,0,1.01,0.06,1.46,0.19
		s0.83,0.32,1.15,0.57c0.32,0.25,0.57,0.55,0.75,0.91c0.18,0.36,0.27,0.76,0.27,1.21c0,0.35-0.06,0.67-0.17,0.96
		s-0.27,0.54-0.46,0.76S39.79,5,39.53,5.14c-0.26,0.14-0.54,0.24-0.82,0.3v0.08c0.32,0.06,0.62,0.17,0.9,0.31
		c0.28,0.14,0.53,0.33,0.74,0.56c0.21,0.23,0.38,0.5,0.5,0.82c0.12,0.31,0.18,0.67,0.18,1.08c0,0.49-0.1,0.94-0.29,1.34
		c-0.19,0.4-0.46,0.74-0.81,1.03s-0.76,0.51-1.26,0.66c-0.49,0.15-1.03,0.23-1.63,0.23c-0.52,0-0.98-0.06-1.38-0.17
		c-0.39-0.11-0.74-0.26-1.05-0.45s-0.57-0.4-0.8-0.64c-0.23-0.24-0.43-0.49-0.6-0.74l1.33-1.04C34.7,8.74,34.84,8.94,35,9.13
		c0.15,0.19,0.33,0.35,0.53,0.48s0.42,0.24,0.67,0.31c0.25,0.07,0.54,0.11,0.86,0.11c0.68,0,1.21-0.16,1.57-0.49
		c0.36-0.33,0.54-0.78,0.54-1.35V8.08c0-0.58-0.19-1.01-0.58-1.31c-0.38-0.3-0.93-0.45-1.63-0.45h-1.18V4.78H36.91z"/>
	<path class="st0" d="M47.15,11.55c-0.62,0-1.17-0.1-1.66-0.3c-0.49-0.2-0.9-0.49-1.23-0.87s-0.59-0.83-0.78-1.37
		c-0.18-0.53-0.27-1.14-0.27-1.81c0-0.81,0.12-1.57,0.37-2.29c0.25-0.71,0.56-1.37,0.94-1.97c0.38-0.6,0.81-1.13,1.29-1.59
		c0.47-0.46,0.94-0.85,1.4-1.16h2.4c-0.63,0.46-1.19,0.9-1.7,1.33c-0.5,0.43-0.94,0.86-1.31,1.31c-0.37,0.45-0.69,0.92-0.94,1.42
		c-0.25,0.5-0.45,1.05-0.58,1.65l0.11,0.03c0.12-0.22,0.25-0.43,0.41-0.63c0.15-0.2,0.34-0.37,0.54-0.52
		c0.21-0.15,0.45-0.27,0.71-0.35c0.27-0.08,0.58-0.13,0.93-0.13c0.47,0,0.9,0.08,1.3,0.24c0.4,0.16,0.75,0.39,1.04,0.7
		c0.29,0.3,0.52,0.67,0.69,1.1s0.25,0.9,0.25,1.42c0,0.57-0.09,1.08-0.28,1.54C50.6,9.77,50.34,10.17,50,10.5
		c-0.34,0.33-0.75,0.59-1.24,0.78C48.27,11.46,47.74,11.55,47.15,11.55z M47.15,10.08c0.65,0,1.16-0.17,1.52-0.52
		c0.36-0.35,0.54-0.86,0.54-1.53V7.81c0-0.67-0.18-1.18-0.54-1.53c-0.36-0.35-0.87-0.52-1.52-0.52s-1.16,0.17-1.52,0.52
		c-0.36,0.35-0.54,0.86-0.54,1.53v0.22c0,0.67,0.18,1.18,0.54,1.53C45.99,9.91,46.5,10.08,47.15,10.08z"/>
</g>
</svg>
