<svg id="Layer_1" data-name="Layer 1" xmlns="http://www.w3.org/2000/svg" viewBox="0 0 154.48 156.44"><defs><style>.cls-1{fill:#d76436;}.cls-2{fill:#656667;}.cls-3{fill:#555654;}.cls-4{fill:#f0d0af;}.cls-5{fill:#e97840;}.cls-11,.cls-6{fill:none;}.cls-7{fill:#333;}.cls-8{fill:#d56236;}.cls-9{fill:#e87757;}.cls-10{fill:#c95732;}.cls-11{stroke:#000;stroke-miterlimit:10;}.cls-12{opacity:0.41;}</style></defs><title>flashlight</title><path class="cls-1" d="M258,327.9l6.21,6.82a2.28,2.28,0,0,0,3.44.21L331,270.67a3.6,3.6,0,0,0,.08-5l-6.46-7Z" transform="translate(-239.01 -181.18)"/><path class="cls-2" d="M239.82,309.4c1.26,4.39,6.28,16.64,24.56,26.15a.46.46,0,0,0,.55-.71L240.59,309A.45.45,0,0,0,239.82,309.4Z" transform="translate(-239.01 -181.18)"/><path class="cls-3" d="M257.22,279.8l4.31,4.32,25-25-5.6-4.67a.4.4,0,0,0-.62.12c-1.37,2.7-9,16.74-22.91,24.1A.71.71,0,0,0,257.22,279.8Z" transform="translate(-239.01 -181.18)"/><rect class="cls-2" x="336.26" y="185.47" width="15.26" height="13" rx="0.31" transform="translate(-2.54 -368.12) rotate(45)"/><path class="cls-4" d="M246,316.62l72-71-8.69-4.75a3.46,3.46,0,0,0-4.11.6l-64.32,65.59c-.49.5-1.36,2.06-.88,2.56Z" transform="translate(-239.01 -181.18)"/><polygon class="cls-5" points="7.03 135.44 20.02 147.44 89.03 79.44 76.03 66.44 7.03 135.44"/><polygon class="cls-6" points="68.44 58.03 0 127.02 27.02 156.44 96.94 86.53 68.44 58.03"/><polygon class="cls-3" points="86.95 55.36 76.1 66.45 89.03 79.44 99.53 67.94 86.95 55.36"/><polygon class="cls-7" points="99.53 67.94 89.03 79.44 96.35 87.11 107.53 75.94 99.53 67.94"/><polygon class="cls-2" points="78.75 47.16 68.03 58.44 76.03 66.44 87.03 55.44 78.75 47.16"/><path class="cls-4" d="M327,235.62s-.52-12,17.24-33l-10.24-11s-15.17,19.72-14.86,35.9a1.87,1.87,0,0,0,.6,1.31Z" transform="translate(-239.01 -181.18)"/><path class="cls-5" d="M327,235.36s.62-17.38,17-33.74l25,25.56s-7.59,15.26-28.89,21.44Z" transform="translate(-239.01 -181.18)"/><path class="cls-1" d="M338.51,248.38s22.26-7.7,30.28-24.08a.39.39,0,0,1,.61-.12l13.38,11.67a.2.2,0,0,1,0,.31c-1.68,1.8-17.23,17.94-35.7,19.28a1.08,1.08,0,0,1-.79-.27Z" transform="translate(-239.01 -181.18)"/><rect class="cls-3" x="343.65" y="203.74" width="34.86" height="12.36" rx="0.52" transform="translate(15.19 -375.02) rotate(45)"/><rect class="cls-7" x="370.11" y="222.02" width="18.5" height="12.36" rx="0.42" transform="translate(33.47 -382.59) rotate(45)"/><rect class="cls-8" x="349.06" y="203.2" width="33.94" height="2.83" rx="0.18" transform="translate(12.89 -380.07) rotate(45)"/><rect class="cls-9" x="341.47" y="186" width="14.73" height="2.81" rx="0.1" transform="translate(-4.32 -372.95) rotate(45)"/><polygon class="cls-10" points="139.95 34.42 153.03 47.44 151.03 49.44 138.03 36.44 139.95 34.42"/><rect class="cls-11" x="334.65" y="204.64" width="67.86" height="2.91" rx="1.46" transform="translate(14.68 -381.44) rotate(45)"/><path class="cls-11" d="M318.69,226.85c.45-4,4-22.57,14.94-35.11a.42.42,0,0,1,.61,0l46.68,46.88a1.28,1.28,0,0,1,0,1.84c-3.65,3.45-17.49,15.43-33.75,15.73L319.2,228.3A1.78,1.78,0,0,1,318.69,226.85Z" transform="translate(-239.01 -181.18)"/><path class="cls-11" d="M241.69,268.92H334.2a1,1,0,0,1,1,1V306a2.67,2.67,0,0,1-2.67,2.67H241.09a2.8,2.8,0,0,1-2.8-2.8V272.32a3.41,3.41,0,0,1,3.41-3.41Z" transform="translate(-359.24 106.16) rotate(-45)"/><path class="cls-7" d="M259.07,280.43l2,2.19,24.27-23.15-4.77-3.91S279.45,266.17,259.07,280.43Z" transform="translate(-239.01 -181.18)"/><g class="cls-12"><path class="cls-4" d="M309.57,260.2c-3.22,0-3.23,5,0,5S312.79,260.2,309.57,260.2Z" transform="translate(-239.01 -181.18)"/><path class="cls-4" d="M314.89,265.52c-3.22,0-3.23,5,0,5S318.11,265.52,314.89,265.52Z" transform="translate(-239.01 -181.18)"/><path class="cls-4" d="M320.21,271.18c-3.22,0-3.22,5,0,5S323.43,271.18,320.21,271.18Z" transform="translate(-239.01 -181.18)"/><path class="cls-4" d="M304.25,265.86c-3.22,0-3.23,5,0,5S307.47,265.86,304.25,265.86Z" transform="translate(-239.01 -181.18)"/><path class="cls-4" d="M310.23,270.84c-3.22,0-3.22,5,0,5S313.45,270.84,310.23,270.84Z" transform="translate(-239.01 -181.18)"/><path class="cls-4" d="M314.89,275.83c-3.22,0-3.23,5,0,5S318.11,275.83,314.89,275.83Z" transform="translate(-239.01 -181.18)"/><path class="cls-4" d="M309.9,280.49c-3.22,0-3.22,5,0,5S313.12,280.49,309.9,280.49Z" transform="translate(-239.01 -181.18)"/><path class="cls-4" d="M304.91,275.5c-3.22,0-3.22,5,0,5S308.13,275.5,304.91,275.5Z" transform="translate(-239.01 -181.18)"/><path class="cls-4" d="M299.26,270.84c-3.22,0-3.22,5,0,5S302.48,270.84,299.26,270.84Z" transform="translate(-239.01 -181.18)"/><path class="cls-4" d="M294.6,276.5c-3.21,0-3.22,5,0,5S297.83,276.5,294.6,276.5Z" transform="translate(-239.01 -181.18)"/><path class="cls-4" d="M300.26,281.15c-3.22,0-3.23,5,0,5S303.48,281.15,300.26,281.15Z" transform="translate(-239.01 -181.18)"/><path class="cls-4" d="M305.58,285.81c-3.22,0-3.22,5,0,5S308.8,285.81,305.58,285.81Z" transform="translate(-239.01 -181.18)"/><path class="cls-4" d="M289.61,281.49c-3.21,0-3.22,5,0,5S292.84,281.49,289.61,281.49Z" transform="translate(-239.01 -181.18)"/><path class="cls-4" d="M294.6,286.14c-3.21,0-3.22,5,0,5S297.83,286.14,294.6,286.14Z" transform="translate(-239.01 -181.18)"/><path class="cls-4" d="M300.26,291.46c-3.22,0-3.22,5,0,5S303.48,291.46,300.26,291.46Z" transform="translate(-239.01 -181.18)"/></g></svg>