<svg id="Layer_1" data-name="Layer 1" xmlns="http://www.w3.org/2000/svg" viewBox="0 0 191.9 120.28"><defs><style>.cls-1{fill:#b5decb;}.cls-2{fill:#45a089;}.cls-3,.cls-4{fill:none;stroke-miterlimit:10;}.cls-3{stroke:#000;}.cls-4{stroke:#020202;}</style></defs><title>hat</title><path class="cls-1" d="M236.86,284.44s0-50.4,43.18-61.74,67.17,2.52,67.17,2.52,20.21,7.72,27.67,35.82a73.46,73.46,0,0,1,2.32,18.87v7.66a6.58,6.58,0,0,1-3,5.61c-6.21,3.86-24.1,10.74-71.37,8.9C302.83,302.08,257.25,303.34,236.86,284.44Z" transform="translate(-187.6 -209.72)"/><path class="cls-2" d="M234.46,285.7s9.6,18.9,66,17.64c0,0-22.79,34-70.77,25.2,0,0-27.87-7.32-41-23.87a5,5,0,0,1,1.8-7.56C197.6,294,211.1,289.93,234.46,285.7Z" transform="translate(-187.6 -209.72)"/><path class="cls-2" d="M341.3,222.69s37.1,10.09,35.9,64.27c0,0,2.07,6.3-16.36,11.34s-58,3.78-58,3.78V248.47a17.55,17.55,0,0,1,4.56-12.12,16,16,0,0,1,5-3.57C320.82,229,341.3,222.69,341.3,222.69Z" transform="translate(-187.6 -209.72)"/><rect class="cls-1" x="117.63" y="0.38" width="13.19" height="2.52" rx="1.23"/><path class="cls-3" d="M238.66,283s0-50.4,43.18-61.74S349,223.76,349,223.76s20.21,7.72,27.67,35.82A73.46,73.46,0,0,1,379,278.45v7.66a6.58,6.58,0,0,1-3,5.61c-6.22,3.86-24.1,10.74-71.37,8.9C304.63,300.62,259.05,301.88,238.66,283Z" transform="translate(-187.6 -209.72)"/><path class="cls-4" d="M237.86,284.53s9.59,18.9,66,17.64c0,0-22.79,34-70.77,25.2,0,0-27.88-7.32-41-23.87a5,5,0,0,1,1.79-7.56C201,292.87,214.5,288.76,237.86,284.53Z" transform="translate(-187.6 -209.72)"/><rect class="cls-4" x="117.95" y="0.5" width="13.19" height="2.52" rx="1.23"/><path class="cls-1" d="M319.37,254c-3.86,0-3.87,6.3,0,6.3S323.24,254,319.37,254Z" transform="translate(-187.6 -209.72)"/><path class="cls-1" d="M328.54,250.64c-3.85,0-3.86,6.3,0,6.3S332.41,250.64,328.54,250.64Z" transform="translate(-187.6 -209.72)"/><path class="cls-1" d="M338.92,246.45c-3.86,0-3.87,6.3,0,6.3S342.78,246.45,338.92,246.45Z" transform="translate(-187.6 -209.72)"/><path class="cls-1" d="M347.69,241.84c-3.86,0-3.87,6.3,0,6.3S351.56,241.84,347.69,241.84Z" transform="translate(-187.6 -209.72)"/><path class="cls-1" d="M349.68,252.32c-3.85,0-3.86,6.3,0,6.3S353.55,252.32,349.68,252.32Z" transform="translate(-187.6 -209.72)"/><path class="cls-1" d="M350.48,263.21c-3.86,0-3.86,6.3,0,6.3S354.35,263.21,350.48,263.21Z" transform="translate(-187.6 -209.72)"/><path class="cls-1" d="M350.08,274.94c-3.86,0-3.86,6.3,0,6.3S354,274.94,350.08,274.94Z" transform="translate(-187.6 -209.72)"/><path class="cls-1" d="M320.57,264.05c-3.86,0-3.87,6.3,0,6.3S324.43,264.05,320.57,264.05Z" transform="translate(-187.6 -209.72)"/><path class="cls-1" d="M321.36,274.52c-3.85,0-3.86,6.3,0,6.3S325.23,274.52,321.36,274.52Z" transform="translate(-187.6 -209.72)"/><path class="cls-1" d="M322.56,284.16c-3.86,0-3.87,6.3,0,6.3S326.42,284.16,322.56,284.16Z" transform="translate(-187.6 -209.72)"/><path class="cls-1" d="M332.13,281.23c-3.85,0-3.86,6.3,0,6.3S336,281.23,332.13,281.23Z" transform="translate(-187.6 -209.72)"/><path class="cls-1" d="M341.31,278.29c-3.86,0-3.87,6.3,0,6.3S345.17,278.29,341.31,278.29Z" transform="translate(-187.6 -209.72)"/><path class="cls-1" d="M330.54,260.28c-3.86,0-3.87,6.3,0,6.3S334.4,260.28,330.54,260.28Z" transform="translate(-187.6 -209.72)"/><path class="cls-1" d="M340.51,255.25c-3.86,0-3.86,6.3,0,6.3S344.38,255.25,340.51,255.25Z" transform="translate(-187.6 -209.72)"/><path class="cls-1" d="M341.31,265.3c-3.86,0-3.87,6.3,0,6.3S345.17,265.3,341.31,265.3Z" transform="translate(-187.6 -209.72)"/><path class="cls-1" d="M331.33,269.91c-3.86,0-3.86,6.3,0,6.3S335.2,269.91,331.33,269.91Z" transform="translate(-187.6 -209.72)"/></svg>