<svg id="Layer_1" data-name="Layer 1" xmlns="http://www.w3.org/2000/svg" viewBox="0 0 232.94 177.91"><defs><style>.cls-1{fill:#25a1c7;}.cls-2{fill:#27778c;}.cls-3{fill:#0b1f32;}.cls-4{fill:#003e4f;}.cls-5{fill:#103e4e;}.cls-6{fill:#0b5a72;}.cls-7{fill:#84d1ef;}.cls-8,.cls-9{fill:none;stroke-miterlimit:10;}.cls-8{stroke:#020202;}.cls-9{stroke:#000;}</style></defs><title>jacket</title><path class="cls-1" d="M298.52,184.77s4.28-11.8,22.08-10.44,19,10.44,19,10.44S318.7,191.53,298.52,184.77Z" transform="translate(-204.06 -174.22)"/><path class="cls-2" d="M255,216.49s16,45.91,11.07,65.23l-23.65,52.75a11.44,11.44,0,0,1-8.05,6.47l-1.24.27a11.46,11.46,0,0,1-7.92-1.14l-12.42-6.82a9.15,9.15,0,0,1-4.55-6l-.68-2.95a11.63,11.63,0,0,1,.85-7.59Z" transform="translate(-204.06 -174.22)"/><rect class="cls-3" x="204.57" y="337.61" width="23.35" height="9.66" rx="0.94" transform="translate(-3.87 -236.46) rotate(30)"/><path class="cls-4" d="M255,216.49l2-4.6a7.76,7.76,0,0,1,5.78-4.58l36.94-6.52s4.83,6,16.91,6v43.49l-51.94,6Z" transform="translate(-204.06 -174.22)"/><path class="cls-2" d="M264.7,256.36l1.16,74a9.31,9.31,0,0,0,2.15,5.81l1.3,1.55a8,8,0,0,0,6.76,2.84l40.57-3.29v-87Z" transform="translate(-204.06 -174.22)"/><path class="cls-2" d="M383.08,216.49S367,262.42,372,281.75l24.12,52.75a11.65,11.65,0,0,0,8.22,6.47l1.27.27a11.91,11.91,0,0,0,8.08-1.15l12.67-6.82a9.2,9.2,0,0,0,4.64-6l.69-3a11.36,11.36,0,0,0-.87-7.58Z" transform="translate(-204.06 -174.22)"/><rect class="cls-3" x="413.19" y="337.64" width="23.35" height="9.66" rx="1.09" transform="translate(759.99 252.4) rotate(150)"/><path class="cls-4" d="M383.08,216.52l-2-4.6a7.74,7.74,0,0,0-5.78-4.58l-36.94-6.52s-4.84,6-16.92,6v43.48l51.95,6Z" transform="translate(-204.06 -174.22)"/><path class="cls-2" d="M373.42,256.36l-1.21,73.91a9.44,9.44,0,0,1-2.19,6l-1.58,1.89a6.82,6.82,0,0,1-5.82,2.45l-41.15-3.34v-87Z" transform="translate(-204.06 -174.22)"/><path class="cls-2" d="M316.64,204.42V185.09H298.52v13.29S298.52,203.21,316.64,204.42Z" transform="translate(-204.06 -174.22)"/><path class="cls-2" d="M321.47,204.42V185.09h18.12v13.29S339.59,203.21,321.47,204.42Z" transform="translate(-204.06 -174.22)"/><path class="cls-5" d="M298.52,185.09s4.7-9.66,22.3-8.46,18.77,8.46,18.77,8.46S318.47,191.13,298.52,185.09Z" transform="translate(-204.06 -174.22)"/><path class="cls-5" d="M298.52,200.79" transform="translate(-204.06 -174.22)"/><path class="cls-6" d="M255,218.91l6,73.52,3.63-8.29S267.12,262.4,255,218.91Z" transform="translate(-204.06 -174.22)"/><path class="cls-6" d="M383.29,218.86l-6,73.53-3.63-8.3S371.21,262.35,383.29,218.86Z" transform="translate(-204.06 -174.22)"/><polygon class="cls-5" points="64.27 161.86 66.68 172.73 112.58 167.9 112.58 161.86 64.27 161.86"/><polygon class="cls-5" points="165.73 161.86 163.31 172.73 117.41 167.9 117.41 161.86 165.73 161.86"/><rect class="cls-7" x="112.58" y="16.91" width="3.62" height="150.99"/><path class="cls-5" d="M275,319.51s8.74-1.9,13.73-7.59c0,0,1.25,1.9,5,1.9,0,0-5,4.74-17.47,11.39A5.55,5.55,0,0,0,275,319.51Z" transform="translate(-204.06 -174.22)"/><path class="cls-5" d="M363.29,319.69s-8.8-2.25-13.83-9c0,0-1.26,2.25-5,2.25,0,0,5,5.6,17.6,13.46A7.46,7.46,0,0,1,363.29,319.69Z" transform="translate(-204.06 -174.22)"/><path class="cls-8" d="M397.62,334.88a11.65,11.65,0,0,0,8.21,6.47l1.27.27a11.9,11.9,0,0,0,8.08-1.15l12.67-6.82a9.19,9.19,0,0,0,4.65-6l.68-3a11.36,11.36,0,0,0-.86-7.58l-47.43-98.82" transform="translate(-204.06 -174.22)"/><path class="cls-8" d="M384.89,218.31l-2-6a7.77,7.77,0,0,0-5.78-4.59l-36.94-6.51s-4.83,6-16.91,6v43.48l51.94,6Z" transform="translate(-204.06 -174.22)"/><path class="cls-9" d="M364,319.14s-8.8-2.24-13.83-9c0,0-1.26,2.24-5,2.24,0,0,5,5.61,17.61,13.46A7.47,7.47,0,0,1,364,319.14Z" transform="translate(-204.06 -174.22)"/><path class="cls-9" d="M276.38,319s8.74-1.9,13.73-7.6c0,0,1.25,1.9,5,1.9,0,0-5,4.75-17.47,11.39A5.54,5.54,0,0,0,276.38,319Z" transform="translate(-204.06 -174.22)"/><path class="cls-9" d="M255.84,216.71,209.25,316.94a11.63,11.63,0,0,0-.85,7.59l.67,3a9.18,9.18,0,0,0,4.56,6l12.42,6.82a11.4,11.4,0,0,0,7.92,1.14l1.24-.27a11.44,11.44,0,0,0,8-6.47c7.19-16,15.75-35.45,22.35-51.74" transform="translate(-204.06 -174.22)"/><path class="cls-9" d="M255.64,217l2-4.6a7.76,7.76,0,0,1,5.78-4.59l36.94-6.52s4.83,6,16.91,6V250.8l-51.94,6Z" transform="translate(-204.06 -174.22)"/><path class="cls-9" d="M397.71,335l-23.59-49.36" transform="translate(-204.06 -174.22)"/><path class="cls-8" d="M339.24,199.49l.16-12a10.11,10.11,0,0,0-.41-3.68c-.73-1.91-2.54-3.19-4.35-4.13a41.12,41.12,0,0,0-17.39-3.79" transform="translate(-204.06 -174.22)"/><path class="cls-9" d="M339.5,198.54c-13,5.86-29.06,6.15-42.09.31" transform="translate(-204.06 -174.22)"/><path class="cls-9" d="M374.62,256.36l-1.2,73.91a9.44,9.44,0,0,1-2.19,6l-1.58,1.89a6.83,6.83,0,0,1-5.82,2.45l-41.15-3.34v-87Z" transform="translate(-204.06 -174.22)"/><path class="cls-9" d="M265.1,257l1.21,73.91a9.44,9.44,0,0,0,2.19,6l1.57,1.89a6.85,6.85,0,0,0,5.83,2.45L317,337.9v-87Z" transform="translate(-204.06 -174.22)"/><path class="cls-8" d="M297.51,199.49l-.16-12a9.89,9.89,0,0,1,.41-3.68c.72-1.91,2.53-3.19,4.35-4.13a41,41,0,0,1,17.38-3.79" transform="translate(-204.06 -174.22)"/></svg>