<svg id="Layer_1" data-name="Layer 1" xmlns="http://www.w3.org/2000/svg" viewBox="0 0 481.86 368.01"><defs><style>.cls-1{fill:#25a1c7;}.cls-2{fill:#27778c;}.cls-3{fill:#0b1f32;}.cls-4{fill:#003e4f;}.cls-5{fill:#103e4e;}.cls-6{fill:#0b5a72;}.cls-7{fill:#84d1ef;}.cls-8,.cls-9{fill:none;stroke-miterlimit:10;}.cls-8{stroke:#020202;}.cls-9{stroke:#000;}</style></defs><title>jacket</title><path class="cls-1" d="M643.92,297.82s8.85-24.41,45.68-21.59,39.3,21.59,39.3,21.59S685.67,311.81,643.92,297.82Z" transform="translate(-448.52 -276)"/><path class="cls-2" d="M553.89,363.44s33.1,95,22.9,134.94L527.87,607.5a23.68,23.68,0,0,1-16.65,13.38l-2.57.56a23.69,23.69,0,0,1-16.38-2.36L466.58,605a18.92,18.92,0,0,1-9.42-12.41l-1.4-6.1a24,24,0,0,1,1.76-15.7Z" transform="translate(-448.52 -276)"/><rect class="cls-3" x="463.73" y="599.84" width="19.98" height="48.3" rx="1.94" transform="translate(-752.05 446.25) rotate(-60)"/><path class="cls-4" d="M553.89,363.44l4.14-9.52a16.06,16.06,0,0,1,12-9.47L646.4,331s10,12.41,35,12.41v90L573.94,445.75Z" transform="translate(-448.52 -276)"/><path class="cls-2" d="M574,445.92,576.36,599a19.28,19.28,0,0,0,4.45,12l2.69,3.21a16.54,16.54,0,0,0,14,5.87l83.92-6.8v-180Z" transform="translate(-448.52 -276)"/><path class="cls-2" d="M818.84,363.44s-33.26,95-22.92,135l49.9,109.12a24.08,24.08,0,0,0,17,13.38l2.63.56a24.6,24.6,0,0,0,16.71-2.38L908.37,605A19,19,0,0,0,918,592.6l1.43-6.2a23.47,23.47,0,0,0-1.8-15.68Z" transform="translate(-448.52 -276)"/><rect class="cls-3" x="881.14" y="614.04" width="48.3" height="19.98" rx="2.25" transform="translate(-639.25 260.25) rotate(-30)"/><path class="cls-4" d="M818.84,363.5,814.71,354a16,16,0,0,0-12-9.48L726.33,331s-10,12.42-35,12.42v89.94L798.8,445.79Z" transform="translate(-448.52 -276)"/><path class="cls-2" d="M798.86,445.92l-2.5,152.89a19.55,19.55,0,0,1-4.53,12.41l-3.27,3.91a14.11,14.11,0,0,1-12,5.07l-85.12-6.91v-180Z" transform="translate(-448.52 -276)"/><path class="cls-2" d="M681.4,338.47v-40H643.92V326S643.92,336,681.4,338.47Z" transform="translate(-448.52 -276)"/><path class="cls-2" d="M691.4,338.47v-40h37.48V326S728.88,336,691.4,338.47Z" transform="translate(-448.52 -276)"/><path class="cls-5" d="M643.92,298.48s9.72-20,46.13-17.5,38.83,17.5,38.83,17.5S685.19,311,643.92,298.48Z" transform="translate(-448.52 -276)"/><path class="cls-5" d="M643.92,331" transform="translate(-448.52 -276)"/><path class="cls-6" d="M553.89,368.45l12.42,152.08,7.5-17.15S579,458.41,553.89,368.45Z" transform="translate(-448.52 -276)"/><path class="cls-6" d="M819.28,368.34,806.87,520.45l-7.51-17.17S794.29,458.31,819.28,368.34Z" transform="translate(-448.52 -276)"/><polygon class="cls-5" points="132.95 334.83 137.93 357.31 232.88 347.32 232.88 334.83 132.95 334.83"/><polygon class="cls-5" points="342.83 334.83 337.82 357.31 242.87 347.32 242.87 334.83 342.83 334.83"/><rect class="cls-7" x="232.88" y="34.98" width="7.49" height="312.34"/><path class="cls-5" d="M595.27,576.55s18.08-3.93,28.4-15.7c0,0,2.58,3.93,10.34,3.93,0,0-10.34,9.8-36.14,23.56A11.47,11.47,0,0,0,595.27,576.55Z" transform="translate(-448.52 -276)"/><path class="cls-5" d="M777.91,576.92s-18.21-4.65-28.61-18.62c0,0-2.61,4.66-10.35,4.66,0,0,10.35,11.58,36.41,27.84A15.44,15.44,0,0,1,777.91,576.92Z" transform="translate(-448.52 -276)"/><path class="cls-8" d="M848.92,608.34a24.1,24.1,0,0,0,17,13.39l2.63.56a24.64,24.64,0,0,0,16.72-2.38l26.21-14.11a19,19,0,0,0,9.61-12.41l1.41-6.21a23.48,23.48,0,0,0-1.78-15.68L822.59,367.08" transform="translate(-448.52 -276)"/><path class="cls-8" d="M822.59,367.2l-4.14-12.41a16.09,16.09,0,0,0-12-9.49l-76.41-13.47s-10,12.41-35,12.41v89.95L802.54,446.6Z" transform="translate(-448.52 -276)"/><path class="cls-9" d="M779.37,575.78s-18.2-4.63-28.61-18.61c0,0-2.6,4.63-10.34,4.63,0,0,10.34,11.6,36.43,27.84A15.45,15.45,0,0,1,779.37,575.78Z" transform="translate(-448.52 -276)"/><path class="cls-9" d="M598.12,575.49s18.08-3.93,28.4-15.72c0,0,2.59,3.93,10.35,3.93,0,0-10.35,9.83-36.14,23.56A11.47,11.47,0,0,0,598.12,575.49Z" transform="translate(-448.52 -276)"/><path class="cls-9" d="M555.63,363.89,459.25,571.23a24.09,24.09,0,0,0-1.75,15.7l1.38,6.21a19,19,0,0,0,9.43,12.41L494,619.66A23.56,23.56,0,0,0,510.39,622l2.57-.56a23.65,23.65,0,0,0,16.54-13.38c14.88-33.1,32.59-73.34,46.24-107" transform="translate(-448.52 -276)"/><path class="cls-9" d="M555.22,364.49l4.13-9.51a16.08,16.08,0,0,1,12-9.5L647.73,332s10,12.41,35,12.41v90L575.26,446.83Z" transform="translate(-448.52 -276)"/><path class="cls-9" d="M849.11,608.59l-48.8-102.11" transform="translate(-448.52 -276)"/><path class="cls-8" d="M728.15,328.27l.34-24.82a21,21,0,0,0-.85-7.61c-1.51-3.95-5.26-6.6-9-8.55a85.1,85.1,0,0,0-36-7.84" transform="translate(-448.52 -276)"/><path class="cls-9" d="M728.69,326.31c-26.89,12.12-60.11,12.72-87.07.64" transform="translate(-448.52 -276)"/><path class="cls-9" d="M801.34,445.92l-2.48,152.89a19.5,19.5,0,0,1-4.53,12.41l-3.27,3.91a14.13,14.13,0,0,1-12,5.07l-85.12-6.91v-180Z" transform="translate(-448.52 -276)"/><path class="cls-9" d="M574.79,447.24l2.5,152.89a19.48,19.48,0,0,0,4.53,12.41l3.25,3.91a14.15,14.15,0,0,0,12.06,5.07l85-6.93v-180Z" transform="translate(-448.52 -276)"/><path class="cls-8" d="M641.83,328.27l-.33-24.82a20.41,20.41,0,0,1,.85-7.61c1.49-3.95,5.23-6.6,9-8.55a84.83,84.83,0,0,1,35.95-7.84" transform="translate(-448.52 -276)"/></svg>