<!-- Generator: Adobe Illustrator 23.1.1, SVG Export Plug-In  -->
<svg version="1.1" xmlns="http://www.w3.org/2000/svg" xmlns:xlink="http://www.w3.org/1999/xlink" x="0px" y="0px" width="379px"
	 height="147.68px" viewBox="0 0 379 147.68" style="enable-background:new 0 0 379 147.68;" xml:space="preserve">
<style type="text/css">
	.st0{fill:#E0BBA9;}
</style>
<defs>
</defs>
<g>
	<path class="st0" d="M367,127H12c-6.6,0-12-5.4-12-12V12C0,5.4,5.4,0,12,0h355c6.6,0,12,5.4,12,12v103C379,121.6,373.6,127,367,127
		z"/>
	<path class="st0" d="M63.54,125.21c24.09,0.08,32.24,7.89,48.95,22.48c-1.07-32.47,32.67-20.81,54.4-28.83
		c-22.41-1.78-47.61-5.6-69.83-1.33C88.24,119.21,79.3,123.37,63.54,125.21z"/>
</g>
</svg>
