<!-- Generator: Adobe Illustrator 23.1.1, SVG Export Plug-In  -->
<svg version="1.1" xmlns="http://www.w3.org/2000/svg" xmlns:xlink="http://www.w3.org/1999/xlink" x="0px" y="0px" width="72.52px"
	 height="13.83px" viewBox="0 0 72.52 13.83" style="enable-background:new 0 0 72.52 13.83;" xml:space="preserve">
<defs>
</defs>
<g>
	<path d="M4.05,6.95C4.05,6.94,4.05,6.94,4.05,6.95c0.02,0,0.03-0.01,0.06-0.04c0.2-0.13,0.67-0.19,1.41-0.19
		c0.56,0,1.18,0.03,1.86,0.08L8,6.84l0.06,0.02c0.1,1.01,0.15,1.81,0.15,2.39c0,0.72-0.05,1.36-0.15,1.9
		c-0.06,0.61-0.25,1.09-0.55,1.44c-0.3,0.35-0.72,0.63-1.25,0.82c-0.92,0.28-1.75,0.42-2.49,0.42c-0.6,0-1.11-0.09-1.54-0.29
		c-0.65-0.28-1.12-0.7-1.42-1.25c-0.3-0.56-0.5-1.33-0.6-2.32c-0.08-0.72-0.13-1.3-0.16-1.75C0.02,7.78,0,7.29,0,6.75
		C0,6.28,0.01,5.9,0.02,5.62c0.02-1.13,0.09-2,0.18-2.63c0.1-0.63,0.37-1.21,0.82-1.74c0.45-0.53,1.17-0.87,2.16-1.01
		c0.29-0.04,0.58-0.06,0.85-0.06c1.18,0,2.15,0.31,2.91,0.94c0.76,0.63,1.14,1.51,1.14,2.65c0,0.13-0.01,0.33-0.04,0.61L8.02,4.5
		C7.97,4.49,7.78,4.5,7.45,4.52C7.14,4.55,6.9,4.56,6.71,4.56c-0.14,0-0.29-0.01-0.44-0.04c-0.03,0-0.04-0.03-0.04-0.09
		s0-0.19,0.01-0.38c0.01-0.19,0.01-0.41,0.01-0.67c-0.01-0.2-0.11-0.41-0.29-0.64C5.79,2.52,5.56,2.34,5.27,2.19
		c-0.29-0.15-0.59-0.23-0.9-0.25L4.03,1.92c-0.6,0-1.04,0.13-1.35,0.39c-0.3,0.26-0.52,0.64-0.65,1.15C1.8,4.33,1.69,5.55,1.69,7.11
		c0,0.67,0.01,1.17,0.04,1.5C1.8,9.39,1.9,9.99,2,10.41c0.11,0.42,0.25,0.74,0.44,0.97c0.18,0.23,0.45,0.41,0.81,0.55
		c0.34,0.1,0.68,0.15,1.03,0.15c0.37,0,0.72-0.07,1.04-0.21c0.05-0.03,0.15-0.07,0.29-0.12c0.14-0.06,0.28-0.16,0.41-0.29
		c0.13-0.14,0.26-0.41,0.39-0.8c0.04-0.44,0.06-0.81,0.06-1.1c0-0.41-0.02-0.71-0.07-0.91c-0.04-0.2-0.08-0.32-0.1-0.34
		c-0.05-0.01-0.3-0.02-0.76-0.02C5.34,8.27,5.16,8.27,4.99,8.27C4.82,8.28,4.71,8.28,4.65,8.28c-0.28,0-0.46-0.01-0.53-0.04
		C4.1,8.08,4.08,7.88,4.08,7.64c0-0.09-0.01-0.31-0.04-0.67V6.95z"/>
	<path d="M11.04,4.08c0,0.15,0,0.27,0.01,0.35c0.01,0.08,0.01,0.18,0.01,0.29c0.09-0.05,0.21-0.11,0.37-0.17
		c0.16-0.06,0.33-0.13,0.52-0.19c0.29-0.1,0.64-0.17,1.05-0.22c0.41-0.04,0.78-0.07,1.11-0.07c0.3,0,0.46,0.01,0.46,0.04L14.55,5.7
		c0,0.25,0.01,0.44,0.02,0.57c-0.19-0.08-0.41-0.15-0.65-0.21C13.65,6,13.34,5.97,13.01,5.97c-0.34,0-0.73,0.05-1.16,0.15
		c-0.35,0.09-0.6,0.22-0.72,0.4s-0.18,0.51-0.17,1.01c0.05,1.74,0.08,3.71,0.08,5.91v0.08c-0.22,0.05-0.44,0.08-0.67,0.08
		c-0.09,0-0.23,0-0.43-0.01c-0.2-0.01-0.4,0-0.6,0.01l-0.02-3.27C9.3,8.82,9.29,7.7,9.29,6.95c0-0.61,0.01-1.57,0.04-2.89
		c0.13,0.01,0.26,0.02,0.41,0.01c0.15-0.01,0.28-0.01,0.39-0.01c0.15-0.01,0.35-0.02,0.61-0.02C10.94,4.05,11.04,4.06,11.04,4.08z"
		/>
	<path d="M17.16,8.72v0.34l-0.02,0.55c0,1.57,0.77,2.36,2.32,2.36c0.62,0,1.08-0.14,1.38-0.43c0.3-0.29,0.45-0.67,0.45-1.17
		c0-0.08-0.01-0.21-0.04-0.42c0.27-0.04,0.51-0.06,0.74-0.06c0.2,0,0.35,0.01,0.46,0.02c0.08,0,0.17,0,0.28,0.01
		c0.11,0.01,0.23,0,0.37-0.01c0.01,0.72-0.01,1.3-0.08,1.73s-0.22,0.84-0.46,1.23c-0.23,0.34-0.62,0.59-1.19,0.73
		s-1.18,0.22-1.85,0.22c-0.3,0-0.59-0.01-0.85-0.04c-0.26-0.03-0.42-0.05-0.48-0.08c-0.99-0.17-1.7-0.79-2.15-1.87
		c-0.44-1.08-0.63-2.32-0.57-3.71c0.01-0.1,0.03-0.31,0.06-0.64c0.03-0.32,0.06-0.66,0.1-1c0.04-0.34,0.13-0.68,0.26-1.01
		c0.24-0.56,0.68-0.99,1.31-1.29s1.34-0.46,2.11-0.46c0.41,0,0.83,0.05,1.27,0.15c1.72,0.29,2.58,1.59,2.58,3.89
		c0,0.19-0.01,0.46-0.04,0.82c-0.24,0.08-0.95,0.14-2.13,0.19c-0.14,0.01-0.44,0.02-0.91,0.02c-1,0-1.74-0.01-2.22-0.04
		C17.54,8.78,17.31,8.76,17.16,8.72z M21.77,7.3c-0.01-0.39-0.11-0.78-0.29-1.16c-0.18-0.38-0.45-0.68-0.79-0.89
		C20.5,5.16,20.34,5.1,20.2,5.07c-0.14-0.03-0.32-0.04-0.53-0.04c-0.82,0-1.41,0.17-1.76,0.51c-0.35,0.34-0.57,0.83-0.66,1.46
		c-0.03,0.15-0.04,0.25-0.04,0.3c0,0.15,0.07,0.25,0.22,0.3c0.15,0.05,0.46,0.08,0.94,0.08c0.47,0,0.87-0.01,1.2-0.02
		c1.22,0,1.9-0.01,2.05-0.02c0.06-0.01,0.1-0.03,0.12-0.05c0.02-0.02,0.03-0.05,0.03-0.1V7.3z"/>
	<path d="M30.23,3.99c0.29-0.01,0.67,0,1.12,0.04l0.49,0.04c0.03,0.2,0.04,0.35,0.04,0.46v0.19C31.87,5,31.86,5.44,31.86,6.02
		c0,0.48,0.01,1.19,0.04,2.13l0.02,2.13c0,0.91-0.03,1.74-0.08,2.49c0,0.04,0,0.12,0,0.25c0,0.13-0.01,0.24-0.04,0.34
		c-0.03,0.1-0.1,0.17-0.21,0.19h-0.32l-0.61-0.02c-0.1,0-0.19,0.01-0.27,0.02s-0.15,0.02-0.21,0.02C30.06,13.53,30,13.39,30,13.15
		c-0.01-0.1-0.01-0.22,0.01-0.34c0.02-0.13,0.03-0.23,0.03-0.32c-0.3,0.42-0.79,0.7-1.44,0.85c-0.66,0.15-1.3,0.23-1.94,0.23
		c-0.61,0-1.12-0.27-1.55-0.81s-0.74-1.2-0.94-1.99s-0.3-1.55-0.3-2.3c0-0.82,0.14-1.56,0.42-2.22c0.28-0.66,0.66-1.18,1.15-1.57
		c0.49-0.39,1.03-0.59,1.62-0.6l0.61-0.02c0.57,0,1.04,0.07,1.42,0.2C29.45,4.4,29.73,4.64,29.9,5c0-0.11,0.01-0.26,0.04-0.44
		c0.03-0.25,0.04-0.43,0.04-0.53C29.98,4,30.06,3.99,30.23,3.99z M28.1,5.7c-0.66-0.01-1.21,0.16-1.66,0.5
		c-0.45,0.35-0.73,0.76-0.83,1.24c-0.1,0.37-0.15,0.86-0.15,1.48c0.06,2.04,0.89,3.01,2.47,2.93c0.65,0,1.11-0.11,1.41-0.34
		c0.29-0.23,0.47-0.55,0.54-0.97c0.07-0.42,0.1-1.04,0.1-1.88c0-0.91-0.04-1.55-0.11-1.93c-0.08-0.37-0.24-0.63-0.48-0.77
		C29.14,5.83,28.71,5.74,28.1,5.7z"/>
	<path d="M36.48,0.51v2.91l0.02,1.06c0.82-0.03,1.84-0.07,3.06-0.13c0.08,0.1,0.11,0.29,0.11,0.57l-0.02,0.44
		c-0.03,0.28-0.03,0.48-0.02,0.61c-1.38,0-2.41-0.01-3.1-0.02v2.91V9.5c0,0.57,0.01,0.98,0.04,1.22c0.03,0.24,0.08,0.45,0.15,0.63
		c0.2,0.25,0.61,0.41,1.23,0.47s1.17,0.08,1.68,0.06c0.06,0.51,0.1,0.83,0.1,0.97c0,0.23-0.03,0.46-0.1,0.68
		c-0.27,0.01-0.68,0.02-1.25,0.02c-0.99,0-1.76-0.12-2.32-0.36c-0.56-0.24-0.91-0.72-1.06-1.44c-0.14-1.23-0.21-2.83-0.21-4.81V6.02
		c-0.08,0.01-0.27,0.02-0.57,0.02l-1.44-0.02l0.06-1.56c0.28,0.03,0.94,0.04,1.99,0.04l-0.02-1.99V1.62c0-0.53,0.01-0.91,0.04-1.12
		c0.18-0.01,0.45-0.01,0.82,0.02l0.51,0.02C36.31,0.53,36.42,0.53,36.48,0.51z"/>
	<path d="M49.65,0.04L51.47,0l-0.02,0.97c0,0.86,0.02,1.74,0.06,2.64c0.01,0.3,0.03,0.68,0.04,1.12s0.02,0.96,0.02,1.56l-0.02,0.99
		c-0.01,0.17-0.02,0.42-0.02,0.78c-0.03,0.92-0.08,1.69-0.16,2.3c-0.08,0.61-0.28,1.18-0.59,1.71s-0.79,0.92-1.43,1.16
		c-0.61,0.3-1.32,0.46-2.15,0.46c-0.46,0-0.92-0.05-1.41-0.15c-0.85-0.25-1.45-0.85-1.81-1.78s-0.53-1.97-0.53-3.13l0.02-0.57
		c0.13-0.03,0.37-0.04,0.72-0.04c0.46,0,0.83,0.03,1.12,0.08v0.08l0.02,0.32c0.04,0.53,0.09,0.99,0.15,1.37s0.24,0.77,0.53,1.16
		c0.29,0.39,0.73,0.59,1.33,0.59c0.76,0,1.33-0.2,1.71-0.59s0.57-0.83,0.58-1.3c0.01-0.47,0.01-0.74,0.01-0.81l-0.02-1.46
		c-0.03-1.54-0.04-2.75-0.04-3.63c0-1.22,0.02-2.43,0.06-3.65V0.04z"/>
	<path d="M52.65,7.35c0-0.47,0.02-0.87,0.07-1.22c0.04-0.34,0.15-0.77,0.33-1.27c0.16-0.37,0.52-0.64,1.05-0.83
		c0.54-0.18,1.14-0.28,1.8-0.28c0.09,0.01,0.22,0.02,0.38,0.02l0.76-0.02c1.06,0,1.88,0.28,2.45,0.84c0.23,0.15,0.4,0.44,0.52,0.85
		s0.19,0.98,0.22,1.68c0.02,0.7,0.04,1.11,0.04,1.23c-0.05,1.27-0.11,2.27-0.18,3.02c-0.07,0.75-0.21,1.23-0.43,1.44
		c-0.24,0.34-0.57,0.58-1,0.7c-0.42,0.13-0.93,0.19-1.51,0.19c-0.23,0-0.57-0.01-1.03-0.04l-0.87-0.02
		c-0.75-0.13-1.31-0.4-1.68-0.82s-0.61-0.91-0.72-1.46c-0.11-0.56-0.16-1.23-0.16-2.01V8.38C52.69,7.91,52.67,7.57,52.65,7.35z
		 M56.52,5.55c-0.86,0-1.48,0.22-1.86,0.67c-0.17,0.2-0.27,0.46-0.31,0.77C54.3,7.29,54.29,7.7,54.3,8.19
		c-0.01,0.19-0.01,0.44,0.01,0.76s0.03,0.56,0.03,0.74l0.04,0.8c0.04,0.51,0.18,0.86,0.43,1.07c0.25,0.21,0.56,0.35,0.94,0.43
		c0.25,0.04,0.51,0.06,0.78,0.06c0.49,0,0.92-0.09,1.29-0.27c0.37-0.18,0.6-0.47,0.7-0.87c0.05-0.33,0.08-0.59,0.08-0.78
		c0.06-0.89,0.1-1.49,0.1-1.8c0-0.84-0.15-1.51-0.46-2.01S57.36,5.55,56.52,5.55z"/>
	<path d="M63.17,0.32c0,0.11,0,0.21,0.01,0.28c0.01,0.07,0.01,0.12,0.01,0.16c0.01,0.09,0.02,0.26,0.02,0.51l0.04,0.97l-0.02,2.74
		c0.01-0.09,0.1-0.21,0.26-0.37c0.16-0.16,0.37-0.3,0.64-0.42c0.27-0.12,0.56-0.19,0.89-0.2c1.11-0.04,1.97,0.05,2.56,0.27
		c0.53,0.19,0.92,0.64,1.17,1.35s0.37,1.54,0.37,2.51c-0.04,1.1-0.13,2-0.27,2.71c-0.14,0.7-0.44,1.3-0.89,1.8s-1.13,0.78-2.03,0.85
		c-0.2,0.03-0.37,0.04-0.49,0.04c-0.29,0-0.56-0.04-0.82-0.13c-0.2-0.06-0.41-0.19-0.61-0.38c-0.41-0.23-0.68-0.52-0.84-0.87
		c0.02,0.18,0.04,0.4,0.04,0.67l-0.02,0.61c0,0.08-0.01,0.12-0.02,0.13c-0.08,0.01-0.21,0.02-0.4,0.02c-0.28,0-0.49-0.01-0.65-0.02
		l-0.76-0.02c-0.01-0.46-0.02-1.15-0.02-2.09c0-1.01,0.01-1.92,0.02-2.73c0.01-0.8,0.03-1.48,0.04-2.04
		c0.05-2.31,0.08-4.05,0.08-5.24V0.15c0.22-0.04,0.46-0.06,0.74-0.06c0.23,0,0.43,0.01,0.61,0.03c0.18,0.02,0.29,0.04,0.34,0.05
		V0.32z M67.58,8.89c0-0.42-0.03-0.73-0.08-0.95c-0.05-0.52-0.13-0.93-0.23-1.24c-0.1-0.31-0.33-0.58-0.68-0.8
		c-0.35-0.22-0.89-0.33-1.62-0.33c-0.71,0-1.19,0.25-1.43,0.75c-0.25,0.5-0.37,1.28-0.37,2.35c0,0.9,0.16,1.67,0.48,2.31
		c0.32,0.64,0.84,0.96,1.55,0.96c0.79,0,1.38-0.26,1.78-0.77C67.38,10.65,67.58,9.89,67.58,8.89z"/>
	<path d="M70.85,0.19h0.06c0.09-0.01,0.24-0.03,0.46-0.06s0.41-0.04,0.57-0.04c0.19,0,0.38,0.02,0.57,0.06
		c-0.05,2.43-0.08,4.33-0.08,5.68c0,1.33,0.03,2.79,0.09,4.37c-0.29,0.04-0.62,0.06-0.99,0.08c-0.37,0.01-0.61,0.02-0.72,0.02h-0.02
		l0.02-1.29l-0.02-2.62c-0.03-1.14-0.04-2.01-0.04-2.6C70.75,2.4,70.79,1.2,70.85,0.19z M71.82,13.51h-1.01
		c-0.04,0-0.06-0.1-0.06-0.29c0-0.28,0.02-0.59,0.06-0.93c0.01-0.15,0.03-0.31,0.04-0.48c0.01-0.17,0.02-0.34,0.02-0.52v-0.02
		c0.14-0.06,0.34-0.1,0.59-0.1l0.51,0.02c0.23,0.03,0.41,0.04,0.53,0.04l-0.02,0.65c-0.03,0.74-0.04,1.28-0.04,1.63h-0.13h-0.48
		H71.82z"/>
</g>
</svg>
