<!-- Generator: Adobe Illustrator 23.1.1, SVG Export Plug-In  -->
<svg version="1.1" xmlns="http://www.w3.org/2000/svg" xmlns:xlink="http://www.w3.org/1999/xlink" x="0px" y="0px" width="79.99px"
	 height="83.44px" viewBox="0 0 79.99 83.44" style="enable-background:new 0 0 79.99 83.44;" xml:space="preserve">
<style type="text/css">
	.st0{fill:none;stroke:#A09F9F;stroke-width:8;stroke-miterlimit:10;}
	.st1{fill:none;stroke:#020202;stroke-miterlimit:10;}
</style>
<defs>
</defs>
<g>
	<path class="st0" d="M61.22,79.44H15.86C9.31,79.44,4,74.14,4,67.59V15.86C4,9.31,9.31,4,15.86,4h45.36
		c6.55,0,11.86,5.31,11.86,11.86v51.73C73.07,74.14,67.77,79.44,61.22,79.44z"/>
	<path class="st1" d="M66.42,82.21H14.4c-7.22,0-13.07-5.85-13.07-13.07V14.3c0-7.22,5.85-13.07,13.07-13.07h52.02
		c7.22,0,13.07,5.85,13.07,13.07v54.85C79.49,76.36,73.64,82.21,66.42,82.21z"/>
</g>
</svg>
