<!-- Generator: Adobe Illustrator 23.1.1, SVG Export Plug-In  -->
<svg version="1.1" xmlns="http://www.w3.org/2000/svg" xmlns:xlink="http://www.w3.org/1999/xlink" x="0px" y="0px" width="279px"
	 height="205.68px" viewBox="0 0 279 205.68" style="enable-background:new 0 0 279 205.68;" xml:space="preserve">
<style type="text/css">
	.st0{fill:#E0BBA9;}
</style>
<defs>
</defs>
<g>
	<path class="st0" d="M12.43,185h254.15c6.83,0,12.43-5.59,12.43-12.43V12.43C279,5.59,273.41,0,266.57,0L12.43,0
		C5.59,0,0,5.59,0,12.43l0,160.15C0,179.41,5.59,185,12.43,185z"/>
	<path class="st0" d="M215.46,183.21c-24.09,0.08-32.24,7.89-48.95,22.48c1.07-32.47-32.67-20.81-54.4-28.83
		c22.41-1.78,47.61-5.6,69.83-1.33C190.76,177.21,199.7,181.37,215.46,183.21z"/>
</g>
</svg>
