<!-- Generator: Adobe Illustrator 23.1.1, SVG Export Plug-In  -->
<svg version="1.1" xmlns="http://www.w3.org/2000/svg" xmlns:xlink="http://www.w3.org/1999/xlink" x="0px" y="0px"
	 width="195.45px" height="36.92px" viewBox="0 0 195.45 36.92" style="enable-background:new 0 0 195.45 36.92;"
	 xml:space="preserve">
<defs>
</defs>
<g>
	<path d="M8.02,0.57l0.02,0.02c-0.11,1.36-0.31,3.39-0.59,6.1C7.4,7.26,7.3,8.27,7.15,9.74c-0.15,1.46-0.27,2.79-0.37,3.98
		c-0.06,0.03-0.18,0.04-0.36,0.04H6.14H5.23c-0.17-0.32-0.3-0.68-0.41-1.08c-0.11-0.41-0.23-0.92-0.37-1.56
		c-0.04-0.18-0.09-0.39-0.14-0.64c-0.06-0.25-0.12-0.52-0.2-0.83H4.08l-0.48,2c-0.1,0.46-0.2,0.88-0.29,1.26
		c-0.09,0.39-0.18,0.64-0.26,0.77c-0.35,0.06-0.67,0.09-0.93,0.09c-0.19,0-0.43-0.02-0.72-0.06H1.39l-0.23-1.58
		C0.8,9.71,0.53,7.61,0.34,5.84C0.15,4.08,0.04,2.33,0,0.61V0.59c0.2-0.02,0.51-0.05,0.91-0.08c0.27,0,0.59,0.01,0.97,0.04
		C1.92,0.92,1.96,1.69,2,2.87c0.09,1.94,0.18,3.54,0.28,4.81c0.1,1.27,0.24,2.25,0.43,2.96c0.19-0.67,0.36-1.33,0.51-1.99
		C3.36,8,3.59,6.97,3.9,5.55l0.02-0.08c0.18,0.42,0.46,1.36,0.84,2.81c0.29,1.09,0.45,1.67,0.48,1.73c0.02,0.13,0.1,0.37,0.23,0.74
		c0.18-1.94,0.31-3.71,0.41-5.32c0.1-1.61,0.15-2.53,0.16-2.77C6.06,1.7,6.1,1.02,6.14,0.63V0.61C6.4,0.54,6.69,0.51,7.01,0.51
		C7.26,0.51,7.6,0.53,8.02,0.57z"/>
	<path d="M10.28,9.01v0.34L10.26,9.9c0,1.57,0.77,2.36,2.32,2.36c0.62,0,1.08-0.14,1.38-0.43c0.3-0.29,0.45-0.67,0.45-1.17
		c0-0.08-0.01-0.22-0.04-0.42c0.27-0.04,0.51-0.06,0.74-0.06c0.2,0,0.35,0.01,0.46,0.02c0.08,0,0.17,0,0.28,0.01
		c0.11,0.01,0.23,0,0.37-0.01c0.01,0.72-0.01,1.3-0.08,1.73c-0.06,0.43-0.22,0.84-0.46,1.23c-0.23,0.34-0.62,0.59-1.19,0.73
		c-0.56,0.15-1.18,0.22-1.85,0.22c-0.3,0-0.59-0.01-0.85-0.04c-0.26-0.03-0.42-0.05-0.48-0.08c-0.99-0.16-1.7-0.79-2.15-1.87
		c-0.44-1.08-0.63-2.32-0.57-3.71C8.6,8.32,8.62,8.1,8.65,7.78c0.03-0.32,0.06-0.66,0.1-1c0.04-0.34,0.13-0.68,0.26-1.01
		c0.24-0.56,0.68-0.99,1.31-1.29c0.63-0.3,1.34-0.46,2.11-0.46c0.41,0,0.83,0.05,1.27,0.15c1.72,0.29,2.58,1.59,2.58,3.9
		c0,0.19-0.01,0.46-0.04,0.82C16,8.97,15.3,9.03,14.12,9.08C13.98,9.09,13.67,9.1,13.2,9.1c-1,0-1.74-0.01-2.22-0.04
		C10.67,9.06,10.43,9.04,10.28,9.01z M14.9,7.58c-0.01-0.39-0.11-0.78-0.29-1.16s-0.45-0.68-0.79-0.89
		c-0.19-0.09-0.35-0.15-0.49-0.17S13,5.32,12.79,5.32c-0.82,0-1.41,0.17-1.76,0.51c-0.35,0.34-0.57,0.83-0.66,1.46
		c-0.03,0.15-0.04,0.25-0.04,0.3c0,0.15,0.07,0.25,0.22,0.3c0.15,0.05,0.46,0.08,0.94,0.08c0.47,0,0.87-0.01,1.2-0.02
		c1.22,0,1.9-0.01,2.05-0.02c0.06-0.01,0.1-0.03,0.12-0.05c0.02-0.02,0.03-0.05,0.03-0.1V7.58z"/>
	<path d="M17.78,0l1.73,0.06c0,0.52-0.01,1.8-0.04,3.86c-0.03,2.53-0.04,4.52-0.04,5.97c0,1.6,0.02,2.87,0.06,3.82
		c-0.08,0.09-0.29,0.13-0.63,0.13l-0.59-0.02c-0.11-0.01-0.25-0.02-0.42-0.02c-0.1,0-0.17,0.01-0.19,0.02
		c0.08-1.03,0.11-2.06,0.11-3.1c0-0.79-0.03-1.96-0.08-3.53s-0.08-2.76-0.08-3.55C17.63,2.29,17.68,1.08,17.78,0z"/>
	<path d="M26.92,10.09c0.15,0.03,0.29,0.04,0.42,0.04l0.67-0.02c0.2,0,0.38,0.02,0.53,0.06c-0.06,0.87-0.13,1.55-0.2,2.03
		c-0.07,0.48-0.18,0.8-0.33,0.95c-0.24,0.34-0.57,0.58-1,0.7c-0.42,0.13-0.93,0.19-1.51,0.19c-0.23,0-0.57-0.01-1.03-0.04
		l-0.87-0.02c-0.75-0.13-1.3-0.41-1.67-0.85s-0.6-0.95-0.71-1.55c-0.11-0.6-0.18-1.38-0.22-2.36c0-0.71-0.01-1.23-0.02-1.56
		c0-0.75,0.14-1.58,0.42-2.49c0.16-0.37,0.52-0.64,1.05-0.83c0.54-0.18,1.14-0.28,1.8-0.28c0.1,0.01,0.25,0.02,0.44,0.02
		c0.11,0,0.26,0,0.43-0.01s0.38,0,0.62,0.01c0.95,0.09,1.65,0.35,2.11,0.8c0.29,0.2,0.48,0.53,0.56,0.97s0.14,1.11,0.16,2l0.02,0.46
		c-0.19,0.04-0.38,0.06-0.57,0.06c-0.33,0-0.67-0.03-1.01-0.09c-0.01-0.9-0.17-1.51-0.48-1.84c-0.31-0.33-0.8-0.49-1.47-0.49
		c-0.14,0-0.39,0.01-0.74,0.04c-0.33,0.01-0.59,0.04-0.77,0.1s-0.34,0.17-0.48,0.36s-0.24,0.48-0.3,0.87
		c-0.04,0.27-0.06,0.74-0.06,1.42v1.52c-0.03,0.42,0.08,0.85,0.3,1.3c0.23,0.45,0.68,0.71,1.37,0.77c0.13,0.01,0.3,0.02,0.51,0.02
		c0.59,0,1.04-0.11,1.33-0.34c0.29-0.23,0.48-0.49,0.56-0.79C26.84,10.92,26.9,10.54,26.92,10.09z"/>
	<path d="M29.39,7.64c0-0.47,0.02-0.87,0.07-1.22c0.04-0.34,0.16-0.77,0.33-1.27c0.16-0.37,0.52-0.64,1.05-0.83
		c0.54-0.18,1.14-0.28,1.8-0.28c0.09,0.01,0.21,0.02,0.38,0.02l0.76-0.02c1.06,0,1.88,0.28,2.45,0.84c0.23,0.15,0.4,0.44,0.52,0.85
		s0.19,0.98,0.22,1.68s0.04,1.11,0.04,1.23c-0.05,1.27-0.11,2.27-0.18,3.02c-0.07,0.75-0.21,1.23-0.43,1.44
		c-0.24,0.34-0.57,0.58-1,0.7C34.98,13.94,34.48,14,33.9,14c-0.23,0-0.57-0.01-1.03-0.04l-0.87-0.02c-0.75-0.13-1.31-0.4-1.68-0.82
		c-0.37-0.42-0.62-0.91-0.72-1.46c-0.11-0.56-0.16-1.23-0.16-2.01V8.66C29.43,8.2,29.42,7.85,29.39,7.64z M33.27,5.83
		c-0.86,0-1.48,0.22-1.86,0.67c-0.16,0.2-0.27,0.46-0.31,0.77c-0.04,0.31-0.06,0.71-0.05,1.21c-0.01,0.19-0.01,0.44,0.01,0.76
		c0.02,0.32,0.03,0.56,0.03,0.74l0.04,0.8c0.04,0.51,0.18,0.86,0.43,1.07s0.56,0.35,0.94,0.43c0.25,0.04,0.51,0.06,0.78,0.06
		c0.49,0,0.92-0.09,1.29-0.27c0.37-0.18,0.6-0.47,0.7-0.87c0.05-0.33,0.08-0.59,0.08-0.78c0.06-0.89,0.09-1.49,0.09-1.81
		c0-0.84-0.15-1.51-0.46-2.01C34.67,6.09,34.1,5.83,33.27,5.83z"/>
	<path d="M39.86,4.39c0.03,0.14,0.04,0.32,0.04,0.53V5.4c0.47-0.47,1.03-0.75,1.67-0.85c0.44-0.09,0.82-0.13,1.12-0.13
		c0.54,0,0.99,0.11,1.35,0.32c0.28,0.13,0.46,0.3,0.55,0.53c0.09-0.05,0.22-0.14,0.39-0.28c0.17-0.13,0.41-0.26,0.7-0.38
		c0.3-0.12,0.71-0.19,1.25-0.2c0.63-0.03,1.13,0,1.49,0.09S49.11,4.74,49.4,5c0.16,0.14,0.28,0.47,0.34,0.99
		c0.06,0.52,0.09,1.2,0.09,2.05c0,0.48-0.01,1.24-0.04,2.28c-0.03,1.01-0.04,1.74-0.04,2.17c0,0.35,0.01,0.79,0.04,1.29
		c-0.46,0.08-0.99,0.1-1.61,0.08c-0.03-0.34-0.04-0.97-0.04-1.88c0.03-0.99,0.04-1.75,0.04-2.28v-0.8c-0.01-0.1-0.03-0.29-0.04-0.55
		c-0.01-0.27-0.04-0.56-0.08-0.87c-0.04-0.32-0.11-0.56-0.23-0.72c-0.08-0.25-0.32-0.4-0.74-0.44c-0.13-0.03-0.31-0.04-0.55-0.04
		c-0.37,0-0.68,0.06-0.95,0.18c-0.27,0.12-0.46,0.31-0.57,0.56c-0.03,0.28-0.04,0.5-0.04,0.66l0.02,0.53v0.7
		c0,0.43-0.01,1.09-0.04,1.98l-0.02,1.9c0,0.47,0.01,0.8,0.02,1.01c-0.27,0.04-0.63,0.06-1.08,0.06H43.3
		c-0.03-0.25-0.04-0.7-0.04-1.35V11.5l0.02-1.41c0-0.87-0.03-1.65-0.08-2.32c0-0.53-0.09-0.9-0.27-1.09
		c-0.18-0.2-0.51-0.29-0.99-0.29c-1.34,0-2.06,0.75-2.17,2.26c-0.01,0.19-0.02,0.47-0.02,0.84c0,0.41,0.01,0.98,0.04,1.71l0.02,0.93
		c0,0.52-0.02,1.06-0.06,1.61v0.08c-0.19,0.04-0.37,0.06-0.53,0.06l-0.63-0.02c-0.19,0-0.34,0.01-0.46,0.02l-0.02-3.27
		c-0.03-1.49-0.04-2.62-0.04-3.36c0-0.61,0.01-1.57,0.04-2.89c0.33,0.03,0.53,0.04,0.59,0.04l0.42-0.02c0.06,0,0.15-0.01,0.25-0.02
		c0.1-0.01,0.2-0.02,0.3-0.02C39.8,4.33,39.86,4.35,39.86,4.39z"/>
	<path d="M52.53,9.01v0.34L52.52,9.9c0,1.57,0.77,2.36,2.32,2.36c0.62,0,1.08-0.14,1.38-0.43c0.3-0.29,0.45-0.67,0.45-1.17
		c0-0.08-0.01-0.22-0.04-0.42c0.27-0.04,0.51-0.06,0.74-0.06c0.2,0,0.35,0.01,0.46,0.02c0.08,0,0.17,0,0.28,0.01
		c0.11,0.01,0.23,0,0.37-0.01c0.01,0.72-0.01,1.3-0.08,1.73c-0.06,0.43-0.22,0.84-0.46,1.23c-0.23,0.34-0.62,0.59-1.19,0.73
		c-0.56,0.15-1.18,0.22-1.85,0.22c-0.3,0-0.59-0.01-0.85-0.04c-0.26-0.03-0.42-0.05-0.48-0.08c-0.99-0.16-1.7-0.79-2.15-1.87
		s-0.63-2.32-0.57-3.71c0.01-0.1,0.03-0.31,0.06-0.64c0.03-0.32,0.06-0.66,0.1-1c0.04-0.34,0.13-0.68,0.26-1.01
		c0.24-0.56,0.68-0.99,1.31-1.29c0.63-0.3,1.34-0.46,2.11-0.46c0.41,0,0.83,0.05,1.27,0.15c1.72,0.29,2.58,1.59,2.58,3.9
		c0,0.19-0.01,0.46-0.04,0.82c-0.24,0.08-0.95,0.14-2.13,0.19c-0.14,0.01-0.44,0.02-0.91,0.02c-1,0-1.74-0.01-2.22-0.04
		C52.92,9.06,52.69,9.04,52.53,9.01z M57.15,7.58c-0.01-0.39-0.11-0.78-0.29-1.16s-0.45-0.68-0.79-0.89
		c-0.19-0.09-0.35-0.15-0.49-0.17s-0.32-0.04-0.53-0.04c-0.82,0-1.41,0.17-1.76,0.51c-0.35,0.34-0.57,0.83-0.66,1.46
		c-0.03,0.15-0.04,0.25-0.04,0.3c0,0.15,0.07,0.25,0.22,0.3c0.15,0.05,0.46,0.08,0.94,0.08c0.47,0,0.87-0.01,1.2-0.02
		c1.22,0,1.9-0.01,2.05-0.02c0.06-0.01,0.1-0.03,0.12-0.05c0.02-0.02,0.03-0.05,0.03-0.1V7.58z"/>
	<path d="M66.35,0.8v2.91l0.02,1.06c0.82-0.03,1.84-0.07,3.06-0.13c0.08,0.1,0.11,0.29,0.11,0.57l-0.02,0.44
		c-0.03,0.28-0.03,0.48-0.02,0.61c-1.38,0-2.41-0.01-3.1-0.02v2.91v0.65c0,0.57,0.01,0.98,0.04,1.22c0.03,0.24,0.08,0.45,0.15,0.63
		c0.2,0.25,0.61,0.41,1.23,0.48s1.17,0.08,1.68,0.06c0.06,0.51,0.09,0.83,0.09,0.97c0,0.23-0.03,0.46-0.09,0.68
		c-0.27,0.01-0.68,0.02-1.25,0.02c-0.99,0-1.76-0.12-2.32-0.36s-0.91-0.72-1.06-1.44c-0.14-1.23-0.21-2.83-0.21-4.81V6.31
		c-0.08,0.01-0.27,0.02-0.57,0.02l-1.44-0.02l0.06-1.56c0.28,0.03,0.94,0.04,2,0.04l-0.02-2V1.9c0-0.53,0.01-0.91,0.04-1.12
		c0.18-0.01,0.45-0.01,0.82,0.02l0.51,0.02C66.18,0.82,66.28,0.81,66.35,0.8z"/>
	<path d="M70.22,7.64c0-0.47,0.02-0.87,0.07-1.22c0.04-0.34,0.16-0.77,0.33-1.27c0.16-0.37,0.52-0.64,1.05-0.83
		c0.54-0.18,1.14-0.28,1.8-0.28c0.09,0.01,0.21,0.02,0.38,0.02l0.76-0.02c1.06,0,1.88,0.28,2.45,0.84c0.23,0.15,0.4,0.44,0.52,0.85
		s0.19,0.98,0.22,1.68s0.04,1.11,0.04,1.23c-0.05,1.27-0.11,2.27-0.18,3.02c-0.07,0.75-0.21,1.23-0.43,1.44
		c-0.24,0.34-0.57,0.58-1,0.7C75.81,13.94,75.31,14,74.73,14c-0.23,0-0.57-0.01-1.03-0.04l-0.87-0.02c-0.75-0.13-1.31-0.4-1.68-0.82
		c-0.37-0.42-0.62-0.91-0.72-1.46c-0.11-0.56-0.16-1.23-0.16-2.01V8.66C70.26,8.2,70.25,7.85,70.22,7.64z M74.1,5.83
		c-0.86,0-1.48,0.22-1.86,0.67c-0.16,0.2-0.27,0.46-0.31,0.77c-0.04,0.31-0.06,0.71-0.05,1.21c-0.01,0.19-0.01,0.44,0.01,0.76
		c0.02,0.32,0.03,0.56,0.03,0.74l0.04,0.8c0.04,0.51,0.18,0.86,0.43,1.07s0.56,0.35,0.94,0.43c0.25,0.04,0.51,0.06,0.78,0.06
		c0.49,0,0.92-0.09,1.29-0.27c0.37-0.18,0.6-0.47,0.7-0.87c0.05-0.33,0.08-0.59,0.08-0.78c0.06-0.89,0.09-1.49,0.09-1.81
		c0-0.84-0.15-1.51-0.46-2.01C75.5,6.09,74.93,5.83,74.1,5.83z"/>
	<path d="M85.74,0.8v2.91l0.02,1.06c0.82-0.03,1.84-0.07,3.06-0.13c0.08,0.1,0.11,0.29,0.11,0.57l-0.02,0.44
		c-0.03,0.28-0.03,0.48-0.02,0.61c-1.38,0-2.41-0.01-3.1-0.02v2.91v0.65c0,0.57,0.01,0.98,0.04,1.22c0.03,0.24,0.08,0.45,0.15,0.63
		c0.2,0.25,0.61,0.41,1.23,0.48s1.17,0.08,1.68,0.06c0.06,0.51,0.09,0.83,0.09,0.97c0,0.23-0.03,0.46-0.09,0.68
		c-0.27,0.01-0.68,0.02-1.25,0.02c-0.99,0-1.76-0.12-2.32-0.36s-0.91-0.72-1.06-1.44c-0.14-1.23-0.21-2.83-0.21-4.81V6.31
		c-0.08,0.01-0.27,0.02-0.57,0.02l-1.44-0.02l0.06-1.56c0.28,0.03,0.94,0.04,2,0.04l-0.02-2V1.9c0-0.53,0.01-0.91,0.04-1.12
		c0.18-0.01,0.45-0.01,0.82,0.02l0.51,0.02C85.58,0.82,85.68,0.81,85.74,0.8z"/>
	<path d="M91.56,3.63v1.69c0.34-0.29,0.64-0.51,0.9-0.66c0.26-0.15,0.64-0.24,1.15-0.28c0.3-0.04,0.59-0.06,0.85-0.06
		c0.92,0,1.65,0.22,2.17,0.67c0.17,0.14,0.28,0.47,0.34,0.99c0.06,0.52,0.1,1.2,0.1,2.05c0,0.48-0.01,1.24-0.04,2.28
		c-0.03,1.01-0.04,1.74-0.04,2.17c0,0.35,0.01,0.79,0.04,1.29c-0.51,0.08-1.05,0.1-1.63,0.08c-0.03-0.38-0.04-0.71-0.04-0.99v-1.14
		V8c-0.03-0.81-0.22-1.34-0.57-1.58c-0.08-0.05-0.23-0.1-0.46-0.15c-0.27-0.08-0.54-0.11-0.82-0.11c-0.49,0-0.92,0.12-1.26,0.37
		c-0.35,0.25-0.57,0.63-0.67,1.15c-0.09,0.48-0.13,1.06-0.13,1.73l0.02,0.65c0.03,0.84,0.04,1.53,0.04,2.07
		c0,0.68-0.01,1.21-0.04,1.58v0.08c-0.25,0.06-0.46,0.1-0.61,0.1l-0.57-0.02c-0.18,0-0.32,0.01-0.44,0.02
		c0-1.46-0.01-2.66-0.02-3.61l-0.02-5.81c0-1.42,0.01-2.88,0.04-4.37c0.39,0.04,0.71,0.05,0.95,0.04c0.06,0,0.14-0.01,0.24-0.02
		c0.1-0.01,0.19-0.02,0.29-0.02c0.13,0,0.19,0.02,0.19,0.06c0.02,0.11,0.04,0.89,0.04,2.32V3.63z"/>
	<path d="M99.77,9.01v0.34L99.75,9.9c0,1.57,0.77,2.36,2.32,2.36c0.62,0,1.08-0.14,1.38-0.43c0.3-0.29,0.45-0.67,0.45-1.17
		c0-0.08-0.01-0.22-0.04-0.42c0.27-0.04,0.51-0.06,0.74-0.06c0.2,0,0.35,0.01,0.46,0.02c0.08,0,0.17,0,0.28,0.01
		c0.11,0.01,0.23,0,0.37-0.01c0.01,0.72-0.01,1.3-0.08,1.73c-0.06,0.43-0.22,0.84-0.46,1.23c-0.23,0.34-0.62,0.59-1.19,0.73
		c-0.56,0.15-1.18,0.22-1.85,0.22c-0.3,0-0.59-0.01-0.85-0.04c-0.26-0.03-0.42-0.05-0.48-0.08c-0.99-0.16-1.7-0.79-2.15-1.87
		s-0.63-2.32-0.57-3.71c0.01-0.1,0.03-0.31,0.06-0.64c0.03-0.32,0.06-0.66,0.1-1c0.04-0.34,0.13-0.68,0.26-1.01
		c0.24-0.56,0.68-0.99,1.31-1.29c0.63-0.3,1.34-0.46,2.11-0.46c0.41,0,0.83,0.05,1.27,0.15c1.72,0.29,2.58,1.59,2.58,3.9
		c0,0.19-0.01,0.46-0.04,0.82c-0.24,0.08-0.95,0.14-2.13,0.19c-0.14,0.01-0.44,0.02-0.91,0.02c-1,0-1.74-0.01-2.22-0.04
		C100.15,9.06,99.92,9.04,99.77,9.01z M104.38,7.58c-0.01-0.39-0.11-0.78-0.29-1.16s-0.45-0.68-0.79-0.89
		c-0.19-0.09-0.35-0.15-0.49-0.17s-0.32-0.04-0.53-0.04c-0.82,0-1.41,0.17-1.76,0.51c-0.35,0.34-0.57,0.83-0.66,1.46
		c-0.03,0.15-0.04,0.25-0.04,0.3c0,0.15,0.07,0.25,0.22,0.3c0.15,0.05,0.46,0.08,0.94,0.08c0.47,0,0.87-0.01,1.2-0.02
		c1.22,0,1.9-0.01,2.05-0.02c0.06-0.01,0.1-0.03,0.12-0.05c0.02-0.02,0.03-0.05,0.03-0.1V7.58z"/>
	<path d="M109.74,0.44c0.75,0,1.3-0.01,1.67-0.02l1.77-0.02c1.85,0,3.38,0.07,4.58,0.21c0.01,0.11,0.02,0.31,0.02,0.59
		c0,0.43-0.03,0.89-0.09,1.37c-0.28-0.05-0.67-0.07-1.18-0.06c-0.41,0.03-0.81,0.04-1.22,0.04h-0.49c0.03,0.08,0.03,0.15,0,0.23
		c-0.01,0.08-0.02,0.93-0.02,2.56c0,0.39,0.01,0.72,0.02,0.97c0.04,3.34,0.08,5.79,0.11,7.35v0.04c-0.23,0.04-0.58,0.06-1.04,0.06
		c-0.49,0-0.87,0.03-1.12,0.08c-0.01-0.05-0.02-0.14-0.01-0.26c0.01-0.12,0.01-0.26,0.01-0.41v-1.16c0.01-0.25,0.02-0.71,0.02-1.37
		c0-0.75-0.01-1.35-0.02-1.81c-0.03-1.81-0.07-3.85-0.13-6.12V2.64c-0.27-0.08-0.97-0.13-2.11-0.15c-0.41,0-0.63-0.01-0.67-0.02
		c-0.04-0.08-0.06-0.32-0.08-0.72S109.74,0.91,109.74,0.44z"/>
	<path d="M119.16,4.22c0.09-0.01,0.27-0.01,0.53,0c0.38,0.03,0.8,0.04,1.25,0.04v0.06c0,0.57-0.01,1.45-0.04,2.64
		c-0.04,1.22-0.06,2.44-0.06,3.69c0,1.17,0.03,2.2,0.08,3.12c-0.18,0.04-0.44,0.06-0.8,0.06s-0.57,0-0.65,0
		c-0.23,0-0.37,0.01-0.42,0.02c0.01-0.37,0.02-0.92,0.02-1.67v-1.71v-1.6c-0.03-0.89-0.04-1.57-0.04-2.05
		c0-0.87,0.04-1.73,0.11-2.56V4.22z M119.09,0.13c0.79,0.03,1.38,0.04,1.79,0.04l0.06,2.51c-0.13,0.06-0.35,0.09-0.68,0.09
		c-0.2,0-0.36-0.01-0.46-0.02c-0.08,0-0.17,0-0.27-0.01s-0.22,0-0.36,0.01c0-0.19-0.01-0.5-0.04-0.93
		C119.09,0.99,119.08,0.42,119.09,0.13z"/>
	<path d="M124.31,4.39c0.03,0.14,0.04,0.32,0.04,0.53V5.4c0.47-0.47,1.03-0.75,1.67-0.85c0.44-0.09,0.82-0.13,1.12-0.13
		c0.54,0,0.99,0.11,1.35,0.32c0.28,0.13,0.46,0.3,0.55,0.53c0.09-0.05,0.22-0.14,0.39-0.28c0.17-0.13,0.41-0.26,0.7-0.38
		c0.3-0.12,0.71-0.19,1.25-0.2c0.63-0.03,1.13,0,1.49,0.09s0.69,0.25,0.98,0.5c0.16,0.14,0.28,0.47,0.34,0.99
		c0.06,0.52,0.09,1.2,0.09,2.05c0,0.48-0.01,1.24-0.04,2.28c-0.03,1.01-0.04,1.74-0.04,2.17c0,0.35,0.01,0.79,0.04,1.29
		c-0.46,0.08-0.99,0.1-1.61,0.08c-0.03-0.34-0.04-0.97-0.04-1.88c0.03-0.99,0.04-1.75,0.04-2.28v-0.8c-0.01-0.1-0.03-0.29-0.04-0.55
		c-0.01-0.27-0.04-0.56-0.08-0.87c-0.04-0.32-0.11-0.56-0.23-0.72c-0.08-0.25-0.32-0.4-0.74-0.44c-0.13-0.03-0.31-0.04-0.55-0.04
		c-0.37,0-0.68,0.06-0.95,0.18c-0.27,0.12-0.46,0.31-0.57,0.56c-0.03,0.28-0.04,0.5-0.04,0.66l0.02,0.53v0.7
		c0,0.43-0.01,1.09-0.04,1.98l-0.02,1.9c0,0.47,0.01,0.8,0.02,1.01c-0.27,0.04-0.63,0.06-1.08,0.06h-0.59
		c-0.03-0.25-0.04-0.7-0.04-1.35V11.5l0.02-1.41c0-0.87-0.03-1.65-0.08-2.32c0-0.53-0.09-0.9-0.27-1.09
		c-0.18-0.2-0.51-0.29-0.99-0.29c-1.34,0-2.06,0.75-2.17,2.26c-0.01,0.19-0.02,0.47-0.02,0.84c0,0.41,0.01,0.98,0.04,1.71l0.02,0.93
		c0,0.52-0.02,1.06-0.06,1.61v0.08c-0.19,0.04-0.37,0.06-0.53,0.06l-0.63-0.02c-0.19,0-0.34,0.01-0.46,0.02l-0.02-3.27
		c-0.03-1.49-0.04-2.62-0.04-3.36c0-0.61,0.01-1.57,0.04-2.89c0.33,0.03,0.53,0.04,0.59,0.04l0.42-0.02c0.06,0,0.15-0.01,0.25-0.02
		c0.1-0.01,0.2-0.02,0.3-0.02C124.26,4.33,124.31,4.35,124.31,4.39z"/>
	<path d="M137.29,17.44v0.21c0,0.03-0.08,0.05-0.25,0.07c-0.17,0.02-0.35,0.03-0.55,0.03c-0.29,0-0.56-0.02-0.82-0.06v-1.25
		c0-1.19-0.03-2.94-0.08-5.24c-0.01-0.56-0.03-1.24-0.04-2.04c-0.01-0.8-0.02-1.71-0.02-2.73c0-0.94,0.01-1.63,0.02-2.09l1.24-0.02
		c0.25,0,0.44,0.01,0.55,0.02c0.01,0.01,0.02,0.07,0.03,0.16c0.01,0.09,0.01,0.19,0.01,0.29c0,0.05,0,0.11,0.01,0.17
		c0.01,0.06,0,0.15-0.01,0.27c0.01,0.06,0.03,0.09,0.07,0.09c0.03-0.01,0.07-0.05,0.12-0.14c0.23-0.29,0.54-0.5,0.93-0.63
		c0.39-0.13,0.79-0.19,1.2-0.19c0.2,0,0.34,0.01,0.42,0.02c0.87,0.06,1.54,0.34,2,0.82c0.46,0.48,0.77,1.09,0.92,1.82
		c0.15,0.73,0.24,1.64,0.27,2.72c0,0.96-0.12,1.8-0.37,2.51c-0.25,0.71-0.64,1.16-1.17,1.35c-0.32,0.13-0.7,0.21-1.14,0.25
		c-0.14,0.01-0.36,0.02-0.67,0.02c-0.63,0-1.22-0.05-1.77-0.15c-0.54-0.1-0.83-0.23-0.85-0.38l0.04,2.32c0,0.28-0.01,0.62-0.04,1.03
		L137.29,17.44z M139.02,12.39c0.59,0,1.05-0.03,1.36-0.09c0.31-0.06,0.58-0.19,0.8-0.4s0.4-0.55,0.54-1.02
		c0.1-0.49,0.15-0.96,0.15-1.39c0-1.01-0.18-1.89-0.54-2.62c-0.36-0.73-1.05-1.06-2.08-0.99c-0.61,0.05-1.05,0.22-1.34,0.5
		s-0.47,0.66-0.54,1.13c-0.08,0.47-0.11,1.13-0.11,1.98c0,0.9,0.04,1.54,0.11,1.93s0.23,0.64,0.47,0.77
		C138.07,12.32,138.46,12.39,139.02,12.39z"/>
	<path d="M150.44,4.27c0.29-0.01,0.67,0,1.12,0.04l0.49,0.04c0.03,0.2,0.04,0.35,0.04,0.46V5c-0.01,0.29-0.02,0.73-0.02,1.31
		c0,0.48,0.01,1.19,0.04,2.13l0.02,2.13c0,0.91-0.03,1.74-0.08,2.49c0,0.04,0,0.12,0,0.25c0,0.13-0.01,0.24-0.04,0.34
		s-0.09,0.16-0.21,0.19h-0.32l-0.61-0.02c-0.1,0-0.19,0.01-0.27,0.02c-0.08,0.01-0.15,0.02-0.21,0.02
		c-0.13-0.04-0.19-0.18-0.19-0.42c-0.01-0.1-0.01-0.22,0.01-0.34c0.02-0.13,0.03-0.23,0.03-0.32c-0.3,0.42-0.79,0.7-1.44,0.85
		s-1.3,0.23-1.94,0.23c-0.61,0-1.12-0.27-1.55-0.81c-0.42-0.54-0.74-1.2-0.94-1.99c-0.2-0.79-0.3-1.55-0.3-2.3
		c0-0.82,0.14-1.56,0.42-2.22c0.28-0.66,0.66-1.18,1.15-1.57c0.49-0.39,1.03-0.59,1.62-0.6l0.61-0.02c0.57,0,1.04,0.07,1.42,0.2
		c0.37,0.13,0.65,0.38,0.83,0.73c0-0.11,0.01-0.26,0.04-0.44c0.02-0.25,0.04-0.43,0.04-0.53C150.19,4.29,150.27,4.27,150.44,4.27z
		 M148.31,5.98c-0.66-0.01-1.21,0.16-1.66,0.5c-0.45,0.35-0.73,0.76-0.83,1.24c-0.1,0.37-0.15,0.86-0.15,1.48
		c0.06,2.04,0.89,3.02,2.47,2.93c0.65,0,1.11-0.11,1.41-0.34c0.29-0.23,0.47-0.55,0.54-0.97c0.07-0.42,0.1-1.04,0.1-1.88
		c0-0.91-0.04-1.56-0.11-1.93s-0.24-0.63-0.48-0.77C149.35,6.11,148.92,6.02,148.31,5.98z"/>
	<path d="M155.24,4.37c0.03,0.14,0.04,0.32,0.04,0.53v0.48c0.43-0.25,0.94-0.48,1.52-0.67s1.17-0.29,1.75-0.29
		c0.7,0.03,1.27,0.22,1.71,0.59c0.3,0.27,0.46,1.35,0.46,3.25c0,0.48-0.01,1.23-0.04,2.24c-0.03,0.96-0.04,1.66-0.04,2.09
		c0,0.56,0.01,0.96,0.02,1.2c-0.24,0.04-0.59,0.06-1.04,0.06h-0.63c-0.03-0.2-0.04-0.56-0.04-1.06v-0.82l0.02-1.22
		c0.03-0.82,0.03-1.41,0.02-1.77c0-0.08-0.02-0.34-0.05-0.78c-0.03-0.44-0.1-0.84-0.22-1.18c-0.04-0.44-0.35-0.65-0.93-0.61
		c-0.87,0.01-1.52,0.13-1.93,0.36c-0.41,0.23-0.64,0.64-0.69,1.23c-0.01,0.16-0.02,0.48-0.02,0.93c0,0.71,0.01,1.47,0.04,2.28
		c0.03,0.48,0.04,0.84,0.04,1.06c0,0.47-0.02,0.95-0.06,1.44v0.08c-0.24,0.05-0.48,0.07-0.71,0.07s-0.4-0.01-0.5-0.01
		c-0.2,0-0.36,0.01-0.48,0.02l-0.02-3.27c-0.03-1.49-0.04-2.62-0.04-3.36c0-0.61,0.01-1.57,0.04-2.89c0.15,0.01,0.33,0.02,0.53,0.02
		c0.2,0,0.37-0.01,0.49-0.02c0.08,0,0.17-0.01,0.27-0.02s0.2-0.02,0.3-0.02C155.18,4.31,155.24,4.33,155.24,4.37z"/>
	<path d="M161.76,7.64c0-0.47,0.02-0.87,0.07-1.22c0.04-0.34,0.16-0.77,0.33-1.27c0.16-0.37,0.52-0.64,1.05-0.83
		c0.54-0.18,1.14-0.28,1.8-0.28c0.09,0.01,0.21,0.02,0.38,0.02l0.76-0.02c1.06,0,1.88,0.28,2.45,0.84c0.23,0.15,0.4,0.44,0.52,0.85
		s0.19,0.98,0.22,1.68s0.04,1.11,0.04,1.23c-0.05,1.27-0.11,2.27-0.18,3.02c-0.07,0.75-0.21,1.23-0.43,1.44
		c-0.24,0.34-0.57,0.58-1,0.7c-0.42,0.13-0.93,0.19-1.51,0.19c-0.23,0-0.57-0.01-1.03-0.04l-0.87-0.02
		c-0.75-0.13-1.31-0.4-1.68-0.82c-0.37-0.42-0.62-0.91-0.72-1.46c-0.11-0.56-0.16-1.23-0.16-2.01V8.66
		C161.8,8.2,161.79,7.85,161.76,7.64z M165.64,5.83c-0.86,0-1.48,0.22-1.86,0.67c-0.16,0.2-0.27,0.46-0.31,0.77
		c-0.04,0.31-0.06,0.71-0.05,1.21c-0.01,0.19-0.01,0.44,0.01,0.76c0.02,0.32,0.03,0.56,0.03,0.74l0.04,0.8
		c0.04,0.51,0.18,0.86,0.43,1.07s0.56,0.35,0.94,0.43c0.25,0.04,0.51,0.06,0.78,0.06c0.49,0,0.92-0.09,1.29-0.27
		c0.37-0.18,0.6-0.47,0.7-0.87c0.05-0.33,0.08-0.59,0.08-0.78c0.06-0.89,0.09-1.49,0.09-1.81c0-0.84-0.15-1.51-0.46-2.01
		C167.04,6.09,166.47,5.83,165.64,5.83z"/>
	<path d="M177.78,16.28c-0.24,0.54-0.54,0.91-0.91,1.08c-0.37,0.18-0.79,0.28-1.27,0.32c-0.56,0.03-0.91,0.04-1.04,0.04
		c-0.24,0-0.55-0.01-0.93-0.04c-0.84-0.06-1.54-0.34-2.11-0.84c-0.57-0.49-0.86-1.11-0.86-1.86c0-0.17,0.01-0.29,0.02-0.38
		c0.06-0.03,0.23-0.05,0.51-0.07c0.28-0.02,0.54-0.03,0.8-0.03c0.21,0,0.34,0.01,0.36,0.04c0.01,0.02,0.02,0.12,0.02,0.28
		c0,0.33,0.08,0.62,0.23,0.87c0.15,0.25,0.47,0.42,0.97,0.49c0.25,0.01,0.58,0.02,0.99,0.02c0.53,0,0.92-0.03,1.17-0.09
		c0.25-0.06,0.41-0.16,0.47-0.3c0.07-0.15,0.09-0.36,0.07-0.66v-0.7v-0.63c0-0.06,0-0.13,0.01-0.21c0.01-0.08,0.02-0.18,0.03-0.32
		c-0.21,0.25-0.46,0.41-0.75,0.46c-0.29,0.05-0.81,0.08-1.59,0.08h-0.72c-1.27,0-2.09-0.4-2.47-1.2c-0.32-0.6-0.49-1.34-0.53-2.22
		c0-1.18,0.05-2.15,0.14-2.93c0.09-0.77,0.37-1.47,0.84-2.1c0.46-0.63,1.19-0.97,2.19-1.04c0.66-0.01,1.17,0.01,1.53,0.07
		c0.36,0.06,0.63,0.16,0.81,0.29c0.18,0.14,0.32,0.34,0.44,0.59c0.04-0.18,0.06-0.34,0.06-0.49c0-0.08,0-0.16-0.01-0.24
		c-0.01-0.08,0-0.16,0.01-0.24c0.33-0.03,0.58-0.04,0.74-0.04l0.99,0.02c0.05,1.47,0.08,3.19,0.08,5.17c0,1.96-0.03,3.67-0.09,5.13
		c0,0.13,0,0.3-0.01,0.51c-0.01,0.22-0.02,0.42-0.04,0.62C177.88,15.96,177.84,16.13,177.78,16.28z M171.72,9.29v0.23
		c-0.04,0.68,0.08,1.32,0.34,1.92c0.27,0.6,0.76,0.91,1.48,0.95c0.19,0.01,0.45,0.02,0.78,0.02c0.68,0,1.17-0.12,1.47-0.36
		c0.3-0.24,0.47-0.71,0.5-1.41c0-0.9-0.01-1.62-0.02-2.17c0-1.28-0.29-2.07-0.85-2.38c-0.27-0.15-0.63-0.23-1.1-0.23
		c-0.25,0-0.5,0.02-0.74,0.06c-0.71,0.13-1.2,0.48-1.46,1.07C171.85,7.59,171.72,8.35,171.72,9.29z"/>
	<path d="M179.15,7.64c0-0.47,0.02-0.87,0.07-1.22c0.04-0.34,0.16-0.77,0.33-1.27c0.16-0.37,0.52-0.64,1.05-0.83
		c0.54-0.18,1.14-0.28,1.8-0.28c0.09,0.01,0.21,0.02,0.38,0.02l0.76-0.02c1.06,0,1.88,0.28,2.45,0.84c0.23,0.15,0.4,0.44,0.52,0.85
		s0.19,0.98,0.22,1.68s0.04,1.11,0.04,1.23c-0.05,1.27-0.11,2.27-0.18,3.02c-0.07,0.75-0.21,1.23-0.43,1.44
		c-0.24,0.34-0.57,0.58-1,0.7c-0.42,0.13-0.93,0.19-1.51,0.19c-0.23,0-0.57-0.01-1.03-0.04l-0.87-0.02
		c-0.75-0.13-1.31-0.4-1.68-0.82c-0.37-0.42-0.62-0.91-0.72-1.46c-0.11-0.56-0.16-1.23-0.16-2.01V8.66
		C179.18,8.2,179.17,7.85,179.15,7.64z M183.02,5.83c-0.86,0-1.48,0.22-1.86,0.67c-0.16,0.2-0.27,0.46-0.31,0.77
		c-0.04,0.31-0.06,0.71-0.05,1.21c-0.01,0.19-0.01,0.44,0.01,0.76c0.02,0.32,0.03,0.56,0.03,0.74l0.04,0.8
		c0.04,0.51,0.18,0.86,0.43,1.07s0.56,0.35,0.94,0.43c0.25,0.04,0.51,0.06,0.78,0.06c0.49,0,0.92-0.09,1.29-0.27
		c0.37-0.18,0.6-0.47,0.7-0.87c0.05-0.33,0.08-0.59,0.08-0.78c0.06-0.89,0.09-1.49,0.09-1.81c0-0.84-0.15-1.51-0.46-2.01
		C184.43,6.09,183.86,5.83,183.02,5.83z"/>
	<path d="M195.45,6.78c0,0.06-0.22,0.09-0.67,0.09c-0.33,0-0.57-0.01-0.72-0.02c-0.1,0-0.2,0-0.3-0.01s-0.18,0-0.25,0.01
		c0-0.01,0-0.23,0-0.66s-0.37-0.68-1.1-0.77c-0.17-0.03-0.41-0.04-0.74-0.04c-0.35,0-0.67,0.03-0.96,0.08
		c-0.29,0.05-0.5,0.12-0.64,0.21c-0.17,0.13-0.29,0.31-0.38,0.55c-0.09,0.24-0.13,0.48-0.13,0.7c0,0.18,0.02,0.3,0.08,0.36
		c0.14,0.29,0.32,0.49,0.55,0.61c0.13,0.09,0.44,0.2,0.93,0.32s0.92,0.2,1.27,0.21c0.52,0.01,0.98,0.09,1.38,0.24
		c0.4,0.15,0.71,0.35,0.94,0.6c0.23,0.28,0.4,0.55,0.5,0.83c0.11,0.27,0.16,0.57,0.16,0.88c0,0.39-0.09,0.87-0.29,1.43
		c-0.28,0.6-0.72,1.03-1.33,1.31c-0.61,0.28-1.3,0.41-2.07,0.4c-0.85,0.02-1.6-0.09-2.24-0.33c-0.65-0.25-1.15-0.62-1.5-1.11
		c-0.35-0.49-0.53-1.08-0.53-1.75v-0.09c0.23-0.03,0.56-0.04,1.01-0.04c0.49,0,0.76,0.02,0.8,0.06c0.03,0.03,0.08,0.17,0.16,0.43
		c0.08,0.26,0.23,0.52,0.45,0.79c0.21,0.27,0.58,0.42,1.1,0.46c0.41,0.03,0.65,0.04,0.72,0.04c0.2,0,0.37-0.02,0.5-0.06
		s0.31-0.11,0.52-0.21c0.65-0.29,0.96-0.72,0.95-1.27c0.01-0.37-0.08-0.65-0.29-0.85s-0.47-0.34-0.79-0.41
		c-0.32-0.07-0.75-0.14-1.29-0.2c-0.39-0.04-0.71-0.08-0.95-0.11c-0.24-0.04-0.46-0.1-0.65-0.19c-0.66-0.22-1.16-0.55-1.51-1.02
		c-0.35-0.46-0.52-0.97-0.52-1.51c0-0.6,0.17-1.14,0.52-1.62c0.35-0.49,0.83-0.81,1.43-0.96c0.52-0.14,1.18-0.21,2-0.21
		c0.19,0,0.47,0.01,0.85,0.04c0.54,0.04,1.05,0.13,1.52,0.28c0.44,0.19,0.8,0.52,1.08,0.98C195.31,5.7,195.45,6.21,195.45,6.78z"/>
	<path d="M1.98,30.53c-0.03,0.66-0.04,1.11-0.04,1.37c0,0.82,0.08,1.46,0.25,1.92c0.16,0.46,0.49,0.78,0.97,0.97
		c0.34,0.08,0.65,0.11,0.93,0.11c0.87,0,1.52-0.32,1.94-0.95c0.42-0.63,0.62-1.54,0.61-2.74c0.14,0.01,0.27,0.02,0.39,0.01
		c0.12-0.01,0.22-0.01,0.31-0.01c0.11-0.01,0.27-0.02,0.48-0.02c0.24,0,0.41,0.01,0.51,0.04c0.11,0.43,0.17,0.85,0.17,1.27
		c0,0.76-0.17,1.47-0.49,2.12c-0.33,0.65-0.79,1.17-1.4,1.57c-0.6,0.39-1.28,0.6-2.04,0.63c-0.24,0.04-0.49,0.06-0.74,0.06
		c-0.91,0-1.71-0.22-2.4-0.65c-0.69-0.43-1.08-1.08-1.17-1.94c-0.06-1.27-0.1-2.62-0.1-4.07c0-0.67,0.01-1.2,0.02-1.58l0.02-2.3
		c0-0.79,0.2-1.49,0.6-2.1s0.94-1.02,1.62-1.21c0.49-0.16,1-0.25,1.52-0.25c0.84,0,1.6,0.21,2.3,0.64c0.7,0.42,1.25,1,1.66,1.73
		s0.62,1.52,0.62,2.38c0,0.35-0.04,0.72-0.11,1.08c-0.38,0.06-0.68,0.1-0.91,0.1c-0.25,0-0.56-0.04-0.91-0.11v-0.61
		c0-0.68-0.07-1.23-0.21-1.65c-0.14-0.42-0.46-0.75-0.95-1.01c-0.34-0.24-0.85-0.36-1.54-0.36c-0.2,0-0.36,0.01-0.48,0.02
		c-0.51,0.03-0.87,0.39-1.1,1.1S1.97,27.97,2,29.56L1.98,30.53z"/>
	<path d="M15.56,27.07c0.29-0.01,0.66,0,1.12,0.04l0.49,0.04c0.03,0.2,0.04,0.35,0.04,0.46v0.19c-0.01,0.29-0.02,0.73-0.02,1.31
		c0,0.48,0.01,1.19,0.04,2.13l0.02,2.13c0,0.91-0.03,1.74-0.08,2.49c0,0.04,0,0.12,0,0.25c0,0.13-0.01,0.24-0.04,0.34
		s-0.09,0.16-0.21,0.19h-0.32L16,36.61c-0.1,0-0.19,0.01-0.27,0.02c-0.08,0.01-0.15,0.02-0.21,0.02c-0.13-0.04-0.19-0.18-0.19-0.42
		c-0.01-0.1-0.01-0.22,0.01-0.34c0.02-0.13,0.03-0.23,0.03-0.32c-0.3,0.42-0.79,0.7-1.45,0.85s-1.3,0.23-1.94,0.23
		c-0.61,0-1.12-0.27-1.55-0.81c-0.42-0.54-0.74-1.2-0.94-1.99c-0.2-0.79-0.3-1.55-0.3-2.3c0-0.82,0.14-1.56,0.42-2.22
		c0.28-0.66,0.66-1.18,1.15-1.57c0.49-0.39,1.03-0.59,1.62-0.6L13,27.15c0.57,0,1.04,0.07,1.41,0.2c0.38,0.13,0.65,0.38,0.83,0.73
		c0-0.11,0.01-0.26,0.04-0.44c0.03-0.25,0.04-0.43,0.04-0.53C15.31,27.09,15.4,27.07,15.56,27.07z M13.43,28.78
		c-0.66-0.01-1.21,0.16-1.66,0.5c-0.45,0.35-0.72,0.76-0.83,1.24c-0.1,0.37-0.15,0.86-0.15,1.48c0.06,2.04,0.89,3.02,2.47,2.93
		c0.65,0,1.11-0.11,1.41-0.34c0.29-0.23,0.47-0.55,0.54-0.97s0.1-1.04,0.1-1.88c0-0.91-0.04-1.56-0.11-1.93s-0.24-0.63-0.48-0.77
		C14.47,28.91,14.04,28.82,13.43,28.78z"/>
	<path d="M18.09,27.11c0.19,0.03,0.46,0.04,0.8,0.04c0.11,0,0.25,0,0.41-0.01c0.16-0.01,0.33,0,0.52,0.01
		c0.2,0.71,0.58,2.06,1.12,4.05c0.27,1,0.46,1.72,0.59,2.17c0.13,0.44,0.28,0.87,0.46,1.29c0.11-0.28,0.25-0.7,0.42-1.27
		c0.16-0.57,0.27-0.94,0.32-1.12c0.62-2.12,1.15-3.81,1.6-5.07c0.11,0,0.3-0.01,0.55-0.04c0.46-0.03,0.84-0.03,1.14-0.02
		c-0.25,0.67-0.49,1.36-0.7,2.08c-0.21,0.72-0.42,1.42-0.61,2.12c-0.61,2.1-1.15,3.86-1.63,5.26c-0.2,0.04-0.53,0.06-0.97,0.06
		l-1.37-0.02c-0.56-1.77-0.97-3.12-1.23-4.04c-0.26-0.92-0.52-1.93-0.79-3.03L18.09,27.11z"/>
	<path d="M27.87,31.81v0.34l-0.02,0.55c0,1.57,0.77,2.36,2.32,2.36c0.62,0,1.08-0.14,1.38-0.43c0.3-0.29,0.45-0.67,0.45-1.17
		c0-0.08-0.01-0.22-0.04-0.42c0.27-0.04,0.51-0.06,0.74-0.06c0.2,0,0.35,0.01,0.46,0.02c0.08,0,0.17,0,0.28,0.01
		c0.11,0.01,0.23,0,0.37-0.01c0.01,0.72-0.01,1.3-0.08,1.73c-0.06,0.43-0.22,0.84-0.46,1.23c-0.23,0.34-0.62,0.59-1.19,0.73
		c-0.56,0.15-1.18,0.22-1.85,0.22c-0.3,0-0.59-0.01-0.85-0.04c-0.26-0.03-0.42-0.05-0.48-0.08c-0.99-0.16-1.7-0.79-2.15-1.87
		s-0.63-2.32-0.57-3.71c0.01-0.1,0.03-0.31,0.06-0.64c0.03-0.32,0.06-0.66,0.1-1c0.04-0.34,0.13-0.68,0.26-1.01
		c0.24-0.56,0.68-0.99,1.31-1.29c0.63-0.3,1.34-0.46,2.11-0.46c0.41,0,0.83,0.05,1.27,0.15c1.72,0.29,2.58,1.59,2.58,3.9
		c0,0.19-0.01,0.46-0.04,0.82c-0.24,0.08-0.95,0.14-2.13,0.19c-0.14,0.01-0.44,0.02-0.91,0.02c-1,0-1.74-0.01-2.22-0.04
		C28.26,31.86,28.02,31.84,27.87,31.81z M32.49,30.38c-0.01-0.39-0.11-0.78-0.29-1.16s-0.45-0.68-0.79-0.89
		c-0.19-0.09-0.35-0.15-0.49-0.17s-0.32-0.04-0.53-0.04c-0.82,0-1.41,0.17-1.76,0.51c-0.35,0.34-0.57,0.83-0.66,1.46
		c-0.03,0.15-0.04,0.25-0.04,0.3c0,0.15,0.07,0.25,0.22,0.3c0.15,0.05,0.46,0.08,0.94,0.08c0.47,0,0.87-0.01,1.2-0.02
		c1.22,0,1.9-0.01,2.05-0.02c0.06-0.01,0.1-0.03,0.12-0.05c0.02-0.02,0.03-0.05,0.03-0.1V30.38z"/>
	<path d="M37.85,23.24c0.75,0,1.3-0.01,1.67-0.02l1.77-0.02c1.85,0,3.38,0.07,4.58,0.21c0.01,0.11,0.02,0.31,0.02,0.59
		c0,0.43-0.03,0.89-0.09,1.37c-0.28-0.05-0.67-0.07-1.18-0.06c-0.41,0.03-0.81,0.04-1.22,0.04H42.9c0.03,0.08,0.03,0.15,0,0.23
		c-0.01,0.08-0.02,0.93-0.02,2.56c0,0.39,0.01,0.72,0.02,0.97c0.04,3.34,0.08,5.79,0.11,7.35v0.04c-0.23,0.04-0.58,0.06-1.04,0.06
		c-0.49,0-0.87,0.03-1.12,0.08c-0.01-0.05-0.02-0.14-0.01-0.26c0.01-0.12,0.01-0.26,0.01-0.41v-1.16c0.01-0.25,0.02-0.71,0.02-1.37
		c0-0.75-0.01-1.35-0.02-1.81c-0.03-1.81-0.07-3.85-0.13-6.12v-0.08c-0.27-0.08-0.97-0.13-2.11-0.15c-0.41,0-0.63-0.01-0.67-0.02
		c-0.04-0.08-0.06-0.32-0.08-0.72S37.85,23.71,37.85,23.24z"/>
	<path d="M47.65,27.17c0,0.15,0,0.27,0.01,0.35c0.01,0.08,0.01,0.18,0.01,0.29c0.09-0.05,0.21-0.11,0.37-0.17
		c0.16-0.06,0.33-0.13,0.52-0.19c0.29-0.1,0.64-0.17,1.05-0.22c0.41-0.04,0.78-0.07,1.11-0.07c0.3,0,0.46,0.01,0.46,0.04l-0.02,1.58
		c0,0.25,0.01,0.44,0.02,0.57c-0.19-0.08-0.41-0.15-0.65-0.21c-0.28-0.06-0.58-0.1-0.91-0.1c-0.34,0-0.73,0.05-1.16,0.15
		c-0.36,0.09-0.6,0.22-0.72,0.4c-0.13,0.18-0.18,0.51-0.17,1.01c0.05,1.74,0.08,3.71,0.08,5.91v0.08c-0.22,0.05-0.44,0.08-0.67,0.08
		c-0.09,0-0.23,0-0.43-0.01s-0.4,0-0.6,0.01l-0.02-3.27c-0.03-1.49-0.04-2.62-0.04-3.36c0-0.61,0.01-1.57,0.04-2.89
		c0.13,0.01,0.26,0.02,0.41,0.01c0.15-0.01,0.28-0.01,0.39-0.01c0.15-0.01,0.35-0.02,0.61-0.02C47.55,27.13,47.65,27.14,47.65,27.17
		z"/>
	<path d="M58.4,27.07c0.29-0.01,0.67,0,1.12,0.04l0.49,0.04c0.03,0.2,0.04,0.35,0.04,0.46v0.19c-0.01,0.29-0.02,0.73-0.02,1.31
		c0,0.48,0.01,1.19,0.04,2.13l0.02,2.13c0,0.91-0.03,1.74-0.08,2.49c0,0.04,0,0.12,0,0.25c0,0.13-0.01,0.24-0.04,0.34
		s-0.09,0.16-0.21,0.19h-0.32l-0.61-0.02c-0.1,0-0.19,0.01-0.27,0.02c-0.08,0.01-0.15,0.02-0.21,0.02
		c-0.13-0.04-0.19-0.18-0.19-0.42c-0.01-0.1-0.01-0.22,0.01-0.34c0.02-0.13,0.03-0.23,0.03-0.32c-0.3,0.42-0.79,0.7-1.44,0.85
		s-1.3,0.23-1.94,0.23c-0.61,0-1.12-0.27-1.55-0.81c-0.42-0.54-0.74-1.2-0.94-1.99c-0.2-0.79-0.3-1.55-0.3-2.3
		c0-0.82,0.14-1.56,0.42-2.22c0.28-0.66,0.66-1.18,1.15-1.57c0.49-0.39,1.03-0.59,1.62-0.6l0.61-0.02c0.57,0,1.04,0.07,1.42,0.2
		c0.37,0.13,0.65,0.38,0.83,0.73c0-0.11,0.01-0.26,0.04-0.44c0.02-0.25,0.04-0.43,0.04-0.53C58.16,27.09,58.24,27.07,58.4,27.07z
		 M56.28,28.78c-0.66-0.01-1.21,0.16-1.66,0.5c-0.45,0.35-0.73,0.76-0.83,1.24c-0.1,0.37-0.15,0.86-0.15,1.48
		c0.06,2.04,0.89,3.02,2.47,2.93c0.65,0,1.11-0.11,1.41-0.34c0.29-0.23,0.47-0.55,0.54-0.97c0.07-0.42,0.1-1.04,0.1-1.88
		c0-0.91-0.04-1.56-0.11-1.93s-0.24-0.63-0.48-0.77C57.31,28.91,56.89,28.82,56.28,28.78z"/>
	<path d="M61.92,27.02c0.09-0.01,0.27-0.01,0.53,0c0.38,0.03,0.8,0.04,1.25,0.04v0.06c0,0.57-0.01,1.45-0.04,2.64
		c-0.04,1.22-0.06,2.44-0.06,3.69c0,1.17,0.03,2.2,0.08,3.12c-0.18,0.04-0.44,0.06-0.8,0.06s-0.57,0-0.65,0
		c-0.23,0-0.37,0.01-0.42,0.02c0.01-0.37,0.02-0.92,0.02-1.67v-1.71v-1.6c-0.03-0.89-0.04-1.57-0.04-2.05
		c0-0.87,0.04-1.73,0.11-2.56V27.02z M61.84,22.93c0.79,0.03,1.38,0.04,1.79,0.04l0.06,2.51c-0.13,0.06-0.35,0.09-0.68,0.09
		c-0.2,0-0.36-0.01-0.46-0.02c-0.08,0-0.17,0-0.27-0.01s-0.22,0-0.36,0.01c0-0.19-0.01-0.5-0.04-0.93
		C61.84,23.79,61.83,23.22,61.84,22.93z"/>
	<path d="M65.81,22.8l1.73,0.06c0,0.52-0.01,1.8-0.04,3.86c-0.03,2.53-0.04,4.52-0.04,5.97c0,1.6,0.02,2.87,0.06,3.82
		c-0.08,0.09-0.29,0.13-0.63,0.13l-0.59-0.02c-0.11-0.01-0.25-0.02-0.42-0.02c-0.1,0-0.17,0.01-0.19,0.02
		c0.08-1.03,0.11-2.06,0.11-3.1c0-0.79-0.03-1.96-0.08-3.53s-0.08-2.76-0.08-3.55C65.66,25.09,65.71,23.88,65.81,22.8z"/>
	<path d="M69.9,23.27h0.06c0.09-0.01,0.24-0.03,0.46-0.06c0.22-0.03,0.41-0.04,0.57-0.04c0.19,0,0.38,0.02,0.57,0.06
		c-0.05,2.43-0.08,4.33-0.08,5.68c0,1.33,0.03,2.79,0.09,4.37c-0.29,0.04-0.62,0.06-0.99,0.08c-0.37,0.01-0.61,0.02-0.72,0.02h-0.02
		l0.02-1.29l-0.02-2.62c-0.03-1.14-0.04-2.01-0.04-2.6C69.81,25.49,69.84,24.29,69.9,23.27z M70.87,36.59h-1.01
		c-0.04,0-0.06-0.09-0.06-0.29c0-0.28,0.02-0.59,0.06-0.93c0.01-0.15,0.03-0.31,0.04-0.48c0.01-0.17,0.02-0.34,0.02-0.52v-0.02
		c0.14-0.06,0.34-0.09,0.59-0.09l0.51,0.02c0.23,0.03,0.41,0.04,0.53,0.04l-0.02,0.65c-0.03,0.73-0.04,1.28-0.04,1.63h-0.13h-0.47
		H70.87z"/>
</g>
</svg>
