<!-- Generator: Adobe Illustrator 23.1.1, SVG Export Plug-In  -->
<svg version="1.1" xmlns="http://www.w3.org/2000/svg" xmlns:xlink="http://www.w3.org/1999/xlink" x="0px" y="0px" width="243px"
	 height="112.65px" viewBox="0 0 243 112.65" style="enable-background:new 0 0 243 112.65;" xml:space="preserve">
<style type="text/css">
	.st0{opacity:0.66;fill:#FDFDFD;}
</style>
<defs>
</defs>
<path class="st0" d="M37.19,27.87c3.58,0.65,5.79-0.69,8.05-3.21c5.62-6.26,13.4-9.62,21.95-11.79c4.83-1.22,9.81-1.34,14.61-1.09
	c4.21,0.22,8.61,1.15,12.55,2.85c2.32,1,3.93,0.38,5.36-1.21c6.32-6.98,14.68-10.71,24.36-12.67c4.69-0.95,9.54-0.86,13.96-0.41
	c7.42,0.75,14.44,3.53,20.51,7.78c5.19,3.63,8.96,8.17,11.42,13.6c0.45,0.99,1.1,1.94,2.44,1.65c3.9-0.83,7.55,0.44,11.21,1.1
	c11.26,2.03,21.21,6.14,27.68,15.19c1.5,2.1,2.39,4.36,2.97,6.84c0.34,1.47,0.64,3.16,3.23,3.93c6.98,2.07,13.8,4.63,18.94,9.67
	c4.55,4.46,7.36,9.74,6.35,15.71c-0.95,5.65-4.38,10.38-9.93,13.69c-5.49,3.27-11.49,5.11-17.96,6.18
	c-3.7,0.61-7.31,0.15-10.95,0.37c-2.55,0.16-4.35,0.64-5.5,3.19c-2.09,4.65-6.72,7.04-11.65,9.11c-6.67,2.79-13.83,3.28-20.84,2.85
	c-4.47-0.28-9.24-1.38-13.26-3.7c-1.75-1.01-3.22-0.74-4.91,0.12c-4.69,2.4-9.74,3.79-15.12,4.56c-11.78,1.68-22.37-0.92-32.18-6.56
	c-1.7-0.98-2.86-0.9-4.51,0.03c-4.82,2.72-10.21,4-15.77,5.11c-3.97,0.79-8.07,0.78-11.72,0.39c-6.04-0.64-12.08-2.17-17.61-5
	c-8.81-4.51-14.5-11.08-17.47-19.58c-0.5-1.44-1.06-3.05-0.76-4.73c0.22-1.21-0.15-1.87-2.01-2.25
	c-9.16-1.87-17.75-4.81-24.34-11.27c-8.38-8.22-8.44-20.42-0.05-28.59c6.03-5.88,13.6-9.18,22.22-10.8
	C31.37,28.36,34.2,27.46,37.19,27.87z"/>
</svg>
