<!-- Generator: Adobe Illustrator 23.1.1, SVG Export Plug-In  -->
<svg version="1.1" xmlns="http://www.w3.org/2000/svg" xmlns:xlink="http://www.w3.org/1999/xlink" x="0px" y="0px"
	 width="122.17px" height="30.1px" viewBox="0 0 122.17 30.1" style="enable-background:new 0 0 122.17 30.1;" xml:space="preserve"
	>
<style type="text/css">
	.st0{fill:#3EB150;stroke:#CBC9CA;stroke-width:0.25;stroke-miterlimit:10;}
	.st1{fill:#FFFFFF;}
</style>
<defs>
</defs>
<path class="st0" d="M118.73,29.98H3.44c-1.83,0-3.31-1.48-3.31-3.31V3.44c0-1.83,1.48-3.31,3.31-3.31h115.3
	c1.83,0,3.31,1.48,3.31,3.31v23.23C122.04,28.5,120.56,29.98,118.73,29.98z"/>
<g>
	<g>
		<path class="st1" d="M38.72,19.23c0,0.11-0.01,0.27-0.03,0.46c-0.02,0.2-0.02,0.36-0.01,0.5c0,0.3-0.02,0.52-0.05,0.64
			c-0.03,0.12-0.07,0.19-0.12,0.21c-0.05,0.02-0.15,0.03-0.28,0.03c-0.11-0.01-0.24-0.02-0.37-0.01c-0.13,0.01-0.27,0.01-0.41,0.01
			c-1.14,0.04-2.25,0.06-3.33,0.06l-2.6-0.02c-0.17-0.01-0.43-0.02-0.8-0.02v-0.34c0.1-2.38,0.15-4.48,0.15-6.31
			c0-1.15-0.02-2.43-0.06-3.84c0-0.48-0.01-1.44-0.04-2.89c0.16-0.06,0.43-0.09,0.8-0.09c0.54,0,0.97,0.06,1.27,0.19
			c-0.03,0.99-0.04,1.74-0.04,2.24c0,0.61,0.01,1.53,0.04,2.77l0.02,2.75v1.2c0,0.98-0.01,1.76-0.04,2.36v0.02
			c0.15-0.01,0.41-0.03,0.78-0.04c0.37-0.01,0.73-0.02,1.08-0.02c0.39,0,1.07,0.03,2.03,0.08c0.86,0.05,1.41,0.08,1.65,0.08
			C38.56,19.25,38.67,19.24,38.72,19.23z"/>
		<path class="st1" d="M40.89,16.27v0.34l-0.02,0.55c0,1.57,0.77,2.36,2.32,2.36c0.62,0,1.08-0.14,1.38-0.43s0.45-0.67,0.45-1.17
			c0-0.08-0.01-0.21-0.04-0.42c0.27-0.04,0.51-0.06,0.74-0.06c0.2,0,0.35,0.01,0.46,0.02c0.08,0,0.17,0,0.28,0.01
			c0.11,0.01,0.23,0,0.37-0.01c0.01,0.72-0.01,1.3-0.08,1.73c-0.06,0.43-0.22,0.84-0.46,1.23c-0.23,0.34-0.62,0.59-1.19,0.73
			c-0.56,0.15-1.18,0.22-1.85,0.22c-0.3,0-0.59-0.01-0.85-0.04s-0.42-0.05-0.48-0.08c-0.99-0.17-1.7-0.79-2.15-1.87
			s-0.63-2.32-0.57-3.71c0.01-0.1,0.03-0.31,0.06-0.64c0.03-0.32,0.06-0.66,0.1-1c0.04-0.34,0.13-0.68,0.26-1.01
			c0.24-0.56,0.68-0.99,1.31-1.29s1.34-0.46,2.11-0.46c0.41,0,0.83,0.05,1.27,0.15c1.72,0.29,2.58,1.59,2.58,3.89
			c0,0.19-0.01,0.46-0.04,0.82c-0.24,0.08-0.95,0.14-2.13,0.19c-0.14,0.01-0.44,0.02-0.91,0.02c-1,0-1.74-0.01-2.22-0.04
			C41.28,16.32,41.04,16.31,40.89,16.27z M45.51,14.84c-0.01-0.39-0.11-0.78-0.29-1.16c-0.18-0.38-0.45-0.68-0.79-0.89
			c-0.19-0.09-0.35-0.15-0.49-0.17s-0.32-0.04-0.53-0.04c-0.82,0-1.41,0.17-1.76,0.51c-0.35,0.34-0.57,0.83-0.66,1.46
			c-0.03,0.15-0.04,0.25-0.04,0.3c0,0.15,0.07,0.25,0.22,0.3c0.15,0.05,0.46,0.08,0.94,0.08c0.47,0,0.87-0.01,1.2-0.02
			c1.22,0,1.9-0.01,2.05-0.02c0.06-0.01,0.1-0.03,0.12-0.05c0.02-0.02,0.03-0.05,0.03-0.1V14.84z"/>
		<path class="st1" d="M51.09,8.06v2.91l0.02,1.06c0.82-0.03,1.84-0.07,3.06-0.13c0.08,0.1,0.11,0.29,0.11,0.57l-0.02,0.44
			c-0.03,0.28-0.03,0.48-0.02,0.61c-1.38,0-2.41-0.01-3.1-0.02v2.91v0.65c0,0.57,0.01,0.98,0.04,1.22c0.03,0.24,0.08,0.45,0.15,0.63
			c0.2,0.25,0.61,0.41,1.23,0.47s1.17,0.08,1.68,0.06c0.06,0.51,0.09,0.83,0.09,0.97c0,0.23-0.03,0.46-0.09,0.68
			c-0.27,0.01-0.68,0.02-1.25,0.02c-0.99,0-1.76-0.12-2.32-0.36s-0.91-0.72-1.06-1.44c-0.14-1.23-0.21-2.83-0.21-4.81v-0.91
			c-0.08,0.01-0.27,0.02-0.57,0.02l-1.44-0.02l0.06-1.56c0.28,0.03,0.94,0.04,2,0.04l-0.02-1.99V9.16c0-0.53,0.01-0.91,0.04-1.12
			c0.18-0.01,0.45-0.01,0.82,0.02l0.51,0.02C50.93,8.08,51.03,8.07,51.09,8.06z"/>
		<path class="st1" d="M56.66,12.32h-0.21c-0.08,0-0.2,0.01-0.38,0.03c-0.18,0.02-0.39,0.03-0.63,0.03c-0.18,0-0.28-0.01-0.3-0.04
			c0.34-1.37,0.77-2.93,1.27-4.67c0.01-0.05,0.03-0.08,0.06-0.08c0.03-0.01,0.12,0,0.29,0.02c0.16,0.02,0.41,0.03,0.72,0.03
			c0.24,0,0.39,0.01,0.44,0.04l-0.38,1.46c-0.32,1.29-0.58,2.27-0.8,2.95L56.66,12.32z"/>
		<path class="st1" d="M66.26,14.04c0,0.06-0.22,0.1-0.67,0.1c-0.33,0-0.57-0.01-0.72-0.02c-0.1,0-0.2,0-0.3-0.01
			c-0.1-0.01-0.18,0-0.25,0.01c0-0.01,0-0.23,0-0.66s-0.37-0.68-1.1-0.77c-0.17-0.03-0.41-0.04-0.74-0.04
			c-0.35,0-0.67,0.03-0.96,0.08c-0.29,0.05-0.5,0.12-0.64,0.21c-0.17,0.13-0.29,0.31-0.38,0.55c-0.09,0.24-0.13,0.47-0.13,0.7
			c0,0.18,0.02,0.3,0.08,0.36c0.14,0.29,0.32,0.49,0.55,0.61c0.13,0.09,0.44,0.2,0.93,0.32s0.92,0.2,1.27,0.21
			c0.52,0.01,0.98,0.09,1.38,0.24c0.4,0.15,0.71,0.35,0.94,0.6c0.23,0.28,0.4,0.55,0.5,0.83c0.11,0.27,0.16,0.57,0.16,0.88
			c0,0.39-0.09,0.87-0.29,1.42c-0.28,0.6-0.72,1.03-1.33,1.31c-0.61,0.28-1.3,0.41-2.07,0.4c-0.85,0.03-1.6-0.08-2.24-0.33
			c-0.65-0.25-1.15-0.62-1.5-1.11c-0.35-0.49-0.53-1.08-0.53-1.75v-0.1c0.23-0.02,0.56-0.04,1.01-0.04c0.49,0,0.76,0.02,0.8,0.06
			c0.03,0.03,0.08,0.17,0.16,0.43c0.08,0.26,0.23,0.52,0.45,0.79c0.21,0.27,0.58,0.42,1.1,0.46c0.41,0.03,0.65,0.04,0.72,0.04
			c0.2,0,0.37-0.02,0.5-0.06c0.13-0.04,0.31-0.11,0.52-0.21c0.65-0.29,0.96-0.72,0.95-1.27c0.01-0.37-0.08-0.65-0.29-0.86
			c-0.21-0.2-0.47-0.34-0.79-0.41c-0.32-0.07-0.75-0.14-1.29-0.2c-0.39-0.04-0.71-0.08-0.95-0.11c-0.24-0.04-0.46-0.1-0.65-0.19
			c-0.66-0.22-1.16-0.55-1.51-1.02c-0.35-0.46-0.52-0.97-0.52-1.51c0-0.6,0.17-1.14,0.52-1.62c0.35-0.49,0.83-0.81,1.43-0.96
			c0.52-0.14,1.18-0.21,2-0.21c0.19,0,0.47,0.01,0.85,0.04c0.54,0.04,1.05,0.13,1.52,0.29c0.44,0.19,0.8,0.52,1.08,0.98
			C66.12,12.96,66.26,13.47,66.26,14.04z"/>
		<path class="st1" d="M74.92,14.5C74.92,14.49,74.92,14.48,74.92,14.5c0.02,0,0.03-0.01,0.06-0.04c0.2-0.13,0.67-0.19,1.41-0.19
			c0.56,0,1.18,0.03,1.86,0.08l0.63,0.04l0.06,0.02c0.1,1.01,0.15,1.81,0.15,2.39c0,0.72-0.05,1.36-0.15,1.9
			c-0.06,0.61-0.25,1.09-0.55,1.44c-0.3,0.35-0.72,0.63-1.25,0.82c-0.92,0.28-1.75,0.42-2.49,0.42c-0.6,0-1.11-0.09-1.54-0.29
			c-0.65-0.28-1.12-0.7-1.42-1.25c-0.3-0.56-0.5-1.33-0.6-2.32c-0.08-0.72-0.13-1.3-0.16-1.75c-0.03-0.44-0.05-0.94-0.05-1.48
			c0-0.47,0.01-0.84,0.02-1.12c0.03-1.13,0.08-2,0.18-2.63c0.09-0.63,0.37-1.21,0.82-1.74c0.45-0.53,1.17-0.87,2.16-1.01
			c0.29-0.04,0.58-0.06,0.86-0.06c1.18,0,2.15,0.31,2.91,0.94s1.14,1.51,1.14,2.65c0,0.13-0.01,0.33-0.04,0.61l-0.02,0.11
			c-0.05-0.01-0.24-0.01-0.57,0.02c-0.3,0.03-0.55,0.04-0.74,0.04c-0.14,0-0.29-0.01-0.44-0.04c-0.03,0-0.04-0.03-0.04-0.09
			s0-0.19,0.01-0.38c0.01-0.19,0.01-0.41,0.01-0.67c-0.01-0.2-0.11-0.41-0.29-0.64c-0.18-0.22-0.41-0.41-0.69-0.56
			c-0.28-0.15-0.59-0.23-0.9-0.25L74.9,9.46c-0.6,0-1.04,0.13-1.35,0.39c-0.3,0.26-0.52,0.64-0.65,1.15
			c-0.23,0.87-0.34,2.09-0.34,3.65c0,0.67,0.01,1.17,0.04,1.5c0.08,0.79,0.17,1.39,0.28,1.8s0.25,0.74,0.44,0.97
			c0.18,0.23,0.45,0.41,0.81,0.55c0.34,0.1,0.68,0.15,1.03,0.15c0.37,0,0.72-0.07,1.04-0.21c0.05-0.03,0.15-0.07,0.29-0.12
			c0.14-0.06,0.28-0.16,0.41-0.29c0.13-0.14,0.26-0.41,0.39-0.8c0.04-0.44,0.06-0.81,0.06-1.1c0-0.41-0.02-0.71-0.07-0.91
			c-0.04-0.2-0.08-0.32-0.1-0.34c-0.05-0.01-0.3-0.02-0.76-0.02c-0.19-0.01-0.37-0.02-0.54-0.01c-0.17,0.01-0.28,0.01-0.33,0.01
			c-0.28,0-0.46-0.01-0.53-0.04c-0.03-0.16-0.04-0.37-0.04-0.61c0-0.09-0.01-0.31-0.04-0.67V14.5z"/>
		<path class="st1" d="M79.95,14.9c0-0.47,0.02-0.87,0.07-1.22c0.04-0.34,0.16-0.77,0.33-1.27c0.16-0.37,0.52-0.64,1.05-0.83
			s1.14-0.28,1.8-0.28c0.09,0.01,0.21,0.02,0.38,0.02l0.76-0.02c1.06,0,1.88,0.28,2.45,0.84c0.23,0.15,0.4,0.44,0.52,0.85
			s0.19,0.98,0.22,1.68s0.04,1.11,0.04,1.23c-0.05,1.27-0.11,2.27-0.18,3.02c-0.07,0.75-0.21,1.23-0.43,1.44
			c-0.24,0.34-0.57,0.58-1,0.7c-0.42,0.13-0.93,0.19-1.51,0.19c-0.23,0-0.57-0.01-1.03-0.04l-0.87-0.02
			c-0.75-0.13-1.31-0.4-1.68-0.82c-0.37-0.42-0.62-0.91-0.72-1.46c-0.11-0.56-0.16-1.23-0.16-2.01v-0.99
			C79.99,15.46,79.98,15.11,79.95,14.9z M83.83,13.09c-0.86,0-1.48,0.22-1.86,0.67c-0.16,0.2-0.27,0.46-0.31,0.77
			c-0.04,0.31-0.06,0.71-0.05,1.21c-0.01,0.19-0.01,0.44,0.01,0.76c0.02,0.32,0.03,0.56,0.03,0.74l0.04,0.8
			c0.04,0.51,0.18,0.86,0.43,1.07s0.56,0.35,0.94,0.43c0.25,0.04,0.51,0.06,0.78,0.06c0.49,0,0.92-0.09,1.29-0.27
			c0.37-0.18,0.6-0.47,0.7-0.87c0.05-0.33,0.08-0.59,0.08-0.78c0.06-0.89,0.09-1.49,0.09-1.8c0-0.84-0.15-1.51-0.46-2.01
			S84.67,13.09,83.83,13.09z"/>
		<path class="st1" d="M89.34,7.74h0.06c0.09-0.01,0.24-0.03,0.46-0.06c0.22-0.03,0.41-0.04,0.57-0.04c0.19,0,0.38,0.02,0.57,0.06
			c-0.05,2.43-0.08,4.33-0.08,5.68c0,1.33,0.03,2.79,0.09,4.37c-0.29,0.04-0.62,0.06-0.99,0.08s-0.61,0.02-0.72,0.02h-0.02
			l0.02-1.29l-0.02-2.62c-0.03-1.14-0.04-2.01-0.04-2.6C89.24,9.95,89.28,8.75,89.34,7.74z M90.31,21.06H89.3
			c-0.04,0-0.06-0.1-0.06-0.29c0-0.28,0.02-0.59,0.06-0.93c0.01-0.15,0.03-0.31,0.04-0.48s0.02-0.34,0.02-0.52v-0.02
			c0.14-0.06,0.34-0.1,0.59-0.1l0.51,0.02c0.23,0.03,0.41,0.04,0.53,0.04l-0.02,0.65c-0.03,0.74-0.04,1.28-0.04,1.63H90.8h-0.47
			H90.31z"/>
	</g>
</g>
</svg>
