<!-- Generator: Adobe Illustrator 23.1.1, SVG Export Plug-In  -->
<svg version="1.1" xmlns="http://www.w3.org/2000/svg" xmlns:xlink="http://www.w3.org/1999/xlink" x="0px" y="0px"
	 width="190.62px" height="85.71px" viewBox="0 0 190.62 85.71" style="enable-background:new 0 0 190.62 85.71;"
	 xml:space="preserve">
<defs>
</defs>
<g>
	<path d="M7.98,12.07v0.04c0.03,0.67-0.01,1.2-0.09,1.58c-0.61-0.01-1.54-0.01-2.79,0.02c-0.99,0.03-1.74,0.04-2.24,0.04
		c-1.09,0-2.01-0.03-2.75-0.09c0-1.43-0.02-2.85-0.06-4.26C0.01,7.51,0,6.12,0,5.21c0-1.82,0.04-3.34,0.11-4.56
		c2.34-0.11,4.5-0.17,6.48-0.17c0.92,0,1.39,0.02,1.39,0.06C7.99,0.62,8,0.76,8,0.95C8,1.2,7.99,1.39,7.98,1.5L7.96,2.07v0.19
		C7.05,2.33,6.25,2.36,5.55,2.36H4.5H3.9c-0.73,0-1.36,0.02-1.88,0.06L1.94,2.43c0.03,0.32,0.01,0.89-0.06,1.73
		c-0.03,0.63-0.04,1.03-0.04,1.2c0,0.39,0.03,0.68,0.08,0.87l0.02,0.02c0.61,0.01,1.25,0.02,1.94,0.02c0.58,0,1.06,0.01,1.42,0.04
		v0.02c0.03,0.19,0.04,0.46,0.04,0.8c0,0.11,0,0.24-0.01,0.39c-0.01,0.15,0,0.3,0.01,0.47c-0.29,0.03-0.53,0.04-0.7,0.06
		C4.46,8.05,4.26,8.06,4.03,8.06c-0.38,0-0.73,0.01-1.06,0.02C2.39,8.1,2.08,8.13,2.01,8.17c-0.05,0.29-0.08,0.7-0.08,1.24
		c0,0.35,0.01,0.63,0.02,0.82c0,0.16,0,0.42,0.01,0.77s0,0.67-0.01,0.96l0.02,0.02c0.91-0.01,2.08,0.01,3.5,0.08
		c0.81,0.03,1.39,0.04,1.75,0.04L7.98,12.07z"/>
	<path d="M8.06,4.24c0.19,0.03,0.46,0.04,0.8,0.04c0.11,0,0.25,0,0.41-0.01c0.16-0.01,0.33,0,0.52,0.01
		c0.2,0.71,0.58,2.06,1.12,4.05c0.27,1,0.46,1.72,0.59,2.17c0.13,0.44,0.28,0.87,0.46,1.29c0.11-0.28,0.25-0.7,0.42-1.27
		c0.16-0.57,0.27-0.94,0.32-1.12c0.62-2.12,1.15-3.81,1.6-5.07c0.11,0,0.3-0.01,0.55-0.04c0.46-0.03,0.84-0.03,1.14-0.02
		c-0.25,0.67-0.49,1.37-0.7,2.08c-0.22,0.72-0.42,1.42-0.61,2.12c-0.61,2.1-1.15,3.86-1.63,5.26c-0.2,0.04-0.53,0.06-0.97,0.06
		l-1.37-0.02c-0.56-1.77-0.97-3.12-1.23-4.04C9.21,8.8,8.95,7.79,8.68,6.69L8.06,4.24z"/>
	<path d="M17.84,8.93v0.34l-0.02,0.55c0,1.57,0.77,2.36,2.32,2.36c0.62,0,1.08-0.14,1.38-0.43s0.45-0.67,0.45-1.17
		c0-0.08-0.01-0.21-0.04-0.42c0.27-0.04,0.51-0.06,0.74-0.06c0.2,0,0.35,0.01,0.46,0.02c0.08,0,0.17,0,0.28,0.01
		c0.11,0.01,0.23,0,0.37-0.01c0.01,0.72-0.01,1.3-0.08,1.73s-0.22,0.84-0.46,1.23c-0.23,0.34-0.62,0.59-1.19,0.73
		s-1.18,0.22-1.85,0.22c-0.3,0-0.59-0.01-0.85-0.04s-0.42-0.05-0.48-0.08c-0.99-0.17-1.7-0.79-2.15-1.87
		c-0.44-1.08-0.63-2.32-0.57-3.71c0.01-0.1,0.03-0.31,0.06-0.64c0.03-0.32,0.06-0.66,0.1-1s0.13-0.68,0.26-1.01
		c0.24-0.56,0.68-0.99,1.31-1.29c0.63-0.3,1.34-0.46,2.11-0.46c0.41,0,0.83,0.05,1.27,0.15C22.98,4.4,23.85,5.69,23.85,8
		c0,0.19-0.01,0.46-0.04,0.82c-0.24,0.08-0.95,0.14-2.13,0.19c-0.14,0.01-0.44,0.02-0.91,0.02c-1,0-1.74-0.01-2.22-0.04
		C18.23,8.99,17.99,8.97,17.84,8.93z M22.46,7.5c-0.01-0.39-0.11-0.78-0.29-1.16c-0.18-0.38-0.45-0.68-0.79-0.89
		c-0.19-0.09-0.35-0.15-0.49-0.17s-0.32-0.04-0.53-0.04c-0.82,0-1.41,0.17-1.76,0.51c-0.35,0.34-0.57,0.83-0.66,1.46
		c-0.03,0.15-0.04,0.25-0.04,0.3c0,0.15,0.07,0.25,0.22,0.3c0.14,0.05,0.46,0.08,0.94,0.08c0.47,0,0.87-0.01,1.2-0.02
		c1.22,0,1.9-0.01,2.05-0.02c0.06-0.01,0.1-0.03,0.12-0.05c0.02-0.02,0.03-0.05,0.03-0.1V7.5z"/>
	<path d="M26.68,4.29c0.03,0.14,0.04,0.32,0.04,0.53V5.3c0.43-0.25,0.94-0.48,1.52-0.67c0.58-0.2,1.17-0.29,1.75-0.29
		c0.7,0.03,1.27,0.22,1.71,0.59c0.3,0.27,0.46,1.35,0.46,3.25c0,0.48-0.01,1.23-0.04,2.24c-0.03,0.96-0.04,1.66-0.04,2.09
		c0,0.56,0.01,0.96,0.02,1.2c-0.24,0.04-0.59,0.06-1.04,0.06h-0.63c-0.03-0.2-0.04-0.56-0.04-1.06v-0.82l0.02-1.22
		c0.03-0.82,0.03-1.41,0.02-1.77c0-0.08-0.02-0.34-0.05-0.78s-0.1-0.84-0.22-1.18c-0.04-0.44-0.35-0.65-0.93-0.61
		c-0.87,0.01-1.52,0.13-1.93,0.36c-0.41,0.23-0.64,0.64-0.69,1.23c-0.01,0.17-0.02,0.48-0.02,0.93c0,0.71,0.01,1.47,0.04,2.28
		c0.02,0.48,0.04,0.84,0.04,1.06c0,0.47-0.02,0.95-0.06,1.44v0.08c-0.24,0.05-0.48,0.07-0.71,0.07c-0.24-0.01-0.4-0.01-0.5-0.01
		c-0.2,0-0.36,0.01-0.47,0.02l-0.02-3.27c-0.03-1.49-0.04-2.62-0.04-3.36c0-0.61,0.01-1.57,0.04-2.89c0.15,0.01,0.33,0.02,0.53,0.02
		c0.2,0,0.37-0.01,0.49-0.02c0.08,0,0.16-0.01,0.27-0.02c0.1-0.01,0.2-0.02,0.3-0.02C26.61,4.24,26.68,4.26,26.68,4.29z"/>
	<path d="M36.42,4.24c0.21,0.01,0.54,0.02,0.97,0.02c0.42,0,0.73,0.01,0.93,0.04l0.29,1.75c0.33,2.18,0.69,4.12,1.08,5.81
		c0.62-1.76,1.1-3.21,1.43-4.35c0.34-1.14,0.61-2.23,0.83-3.27c0.11,0.01,0.41,0.01,0.89-0.02c0.44-0.03,0.78-0.01,1.01,0.04
		l0.11,0.63c0.21,1.09,0.44,2.12,0.67,3.09s0.6,2.22,1.09,3.75c0.3-1.17,0.62-2.61,0.95-4.33c0.05-0.22,0.15-0.69,0.3-1.42
		c0.15-0.73,0.29-1.29,0.4-1.7c0.46-0.03,0.83-0.04,1.12-0.04c0.28,0,0.5,0.01,0.67,0.02c-0.3,1.04-0.56,1.98-0.77,2.82
		c-0.21,0.84-0.4,1.63-0.56,2.37c-0.05,0.2-0.17,0.71-0.35,1.53c-0.18,0.82-0.42,1.75-0.69,2.78c-0.29,0.06-0.56,0.08-0.8,0.06
		l-1.35-0.02c-0.57-2.24-1.19-4.45-1.86-6.61c-0.49,1.6-0.79,2.57-0.89,2.93c-0.44,1.56-0.82,2.78-1.12,3.67
		c-0.18,0.03-0.49,0.04-0.93,0.04l-1.44-0.02C37.82,10.51,37.16,7.33,36.42,4.24z"/>
	<path d="M51.58,3.55v1.69c0.34-0.29,0.64-0.51,0.9-0.66s0.64-0.24,1.15-0.28c0.3-0.04,0.59-0.06,0.85-0.06
		c0.92,0,1.65,0.22,2.17,0.67c0.17,0.14,0.28,0.47,0.34,0.99c0.06,0.52,0.09,1.2,0.09,2.05c0,0.48-0.01,1.24-0.04,2.28
		c-0.03,1.01-0.04,1.74-0.04,2.17c0,0.35,0.01,0.79,0.04,1.29c-0.51,0.08-1.05,0.1-1.63,0.08c-0.03-0.38-0.04-0.71-0.04-0.99v-1.14
		V7.92c-0.03-0.81-0.22-1.34-0.57-1.58c-0.08-0.05-0.23-0.1-0.46-0.15c-0.27-0.08-0.54-0.11-0.82-0.11c-0.49,0-0.92,0.12-1.26,0.37
		C51.93,6.7,51.71,7.08,51.6,7.6c-0.09,0.48-0.13,1.06-0.13,1.73l0.02,0.65c0.03,0.84,0.04,1.53,0.04,2.07
		c0,0.68-0.01,1.21-0.04,1.58v0.08c-0.25,0.06-0.46,0.09-0.61,0.09l-0.57-0.02c-0.18,0-0.32,0.01-0.44,0.02
		c0-1.46-0.01-2.66-0.02-3.61l-0.02-5.81c0-1.42,0.01-2.88,0.04-4.37c0.39,0.04,0.71,0.05,0.95,0.04c0.06,0,0.14-0.01,0.24-0.02
		C51.16,0.01,51.25,0,51.36,0c0.13,0,0.19,0.02,0.19,0.06c0.03,0.11,0.04,0.89,0.04,2.32V3.55z"/>
	<path d="M59.79,8.93v0.34l-0.02,0.55c0,1.57,0.77,2.36,2.32,2.36c0.62,0,1.08-0.14,1.38-0.43c0.3-0.29,0.45-0.67,0.45-1.17
		c0-0.08-0.01-0.21-0.04-0.42c0.27-0.04,0.51-0.06,0.74-0.06c0.2,0,0.35,0.01,0.46,0.02c0.08,0,0.17,0,0.28,0.01
		c0.11,0.01,0.23,0,0.37-0.01c0.01,0.72-0.01,1.3-0.08,1.73s-0.21,0.84-0.46,1.23c-0.23,0.34-0.62,0.59-1.19,0.73
		s-1.18,0.22-1.85,0.22c-0.3,0-0.59-0.01-0.84-0.04c-0.26-0.03-0.42-0.05-0.48-0.08c-0.99-0.17-1.7-0.79-2.15-1.87
		s-0.63-2.32-0.57-3.71c0.01-0.1,0.03-0.31,0.06-0.64c0.03-0.32,0.06-0.66,0.1-1c0.04-0.34,0.13-0.68,0.26-1.01
		c0.24-0.56,0.68-0.99,1.31-1.29c0.63-0.3,1.34-0.46,2.11-0.46c0.41,0,0.83,0.05,1.27,0.15C64.94,4.4,65.8,5.69,65.8,8
		c0,0.19-0.01,0.46-0.04,0.82c-0.24,0.08-0.95,0.14-2.13,0.19c-0.14,0.01-0.44,0.02-0.91,0.02c-1,0-1.74-0.01-2.22-0.04
		C60.18,8.99,59.95,8.97,59.79,8.93z M64.41,7.5c-0.01-0.39-0.11-0.78-0.29-1.16c-0.18-0.38-0.45-0.68-0.79-0.89
		c-0.19-0.09-0.36-0.15-0.49-0.17c-0.14-0.03-0.32-0.04-0.53-0.04c-0.82,0-1.41,0.17-1.76,0.51c-0.35,0.34-0.57,0.83-0.66,1.46
		c-0.03,0.15-0.04,0.25-0.04,0.3c0,0.15,0.07,0.25,0.22,0.3c0.15,0.05,0.46,0.08,0.94,0.08c0.47,0,0.87-0.01,1.2-0.02
		c1.22,0,1.9-0.01,2.05-0.02c0.06-0.01,0.1-0.03,0.12-0.05c0.02-0.02,0.03-0.05,0.03-0.1V7.5z"/>
	<path d="M68.63,4.29c0.03,0.14,0.04,0.32,0.04,0.53V5.3c0.43-0.25,0.94-0.48,1.52-0.67c0.58-0.2,1.17-0.29,1.75-0.29
		c0.7,0.03,1.27,0.22,1.71,0.59c0.3,0.27,0.46,1.35,0.46,3.25c0,0.48-0.01,1.23-0.04,2.24c-0.03,0.96-0.04,1.66-0.04,2.09
		c0,0.56,0.01,0.96,0.02,1.2c-0.24,0.04-0.59,0.06-1.04,0.06h-0.63c-0.03-0.2-0.04-0.56-0.04-1.06v-0.82l0.02-1.22
		c0.03-0.82,0.03-1.41,0.02-1.77c0-0.08-0.02-0.34-0.05-0.78c-0.03-0.44-0.1-0.84-0.22-1.18c-0.04-0.44-0.35-0.65-0.93-0.61
		c-0.87,0.01-1.52,0.13-1.93,0.36c-0.41,0.23-0.64,0.64-0.69,1.23c-0.01,0.17-0.02,0.48-0.02,0.93c0,0.71,0.01,1.47,0.04,2.28
		c0.03,0.48,0.04,0.84,0.04,1.06c0,0.47-0.02,0.95-0.06,1.44v0.08c-0.24,0.05-0.48,0.07-0.71,0.07c-0.23-0.01-0.4-0.01-0.5-0.01
		c-0.2,0-0.36,0.01-0.47,0.02l-0.02-3.27c-0.03-1.49-0.04-2.62-0.04-3.36c0-0.61,0.01-1.57,0.04-2.89c0.15,0.01,0.33,0.02,0.53,0.02
		c0.2,0,0.37-0.01,0.49-0.02c0.08,0,0.17-0.01,0.27-0.02c0.1-0.01,0.2-0.02,0.3-0.02C68.56,4.24,68.63,4.26,68.63,4.29z"/>
	<path d="M79.68,4.14c0.09-0.01,0.27-0.01,0.53,0c0.38,0.03,0.8,0.04,1.25,0.04v0.06c0,0.57-0.01,1.45-0.04,2.64
		c-0.04,1.22-0.06,2.45-0.06,3.69c0,1.17,0.03,2.2,0.08,3.12c-0.18,0.04-0.44,0.06-0.8,0.06c-0.36,0-0.57,0-0.65,0
		c-0.23,0-0.37,0.01-0.42,0.02c0.01-0.37,0.02-0.92,0.02-1.67v-1.71v-1.6c-0.03-0.89-0.04-1.57-0.04-2.05
		c0-0.87,0.04-1.73,0.11-2.57V4.14z M79.61,0.06c0.79,0.03,1.38,0.04,1.79,0.04l0.06,2.51C81.33,2.67,81.1,2.7,80.77,2.7
		c-0.2,0-0.35-0.01-0.46-0.02c-0.08,0-0.17,0-0.27-0.01s-0.22,0-0.36,0.01c0-0.19-0.01-0.5-0.04-0.93
		C79.61,0.91,79.6,0.35,79.61,0.06z"/>
	<path d="M86.35,0.72v2.91l0.02,1.06c0.82-0.03,1.84-0.07,3.06-0.13c0.08,0.1,0.11,0.29,0.11,0.57l-0.02,0.44
		c-0.03,0.28-0.03,0.48-0.02,0.61c-1.38,0-2.41-0.01-3.1-0.02v2.91v0.65c0,0.57,0.01,0.98,0.04,1.22c0.03,0.24,0.08,0.45,0.15,0.63
		c0.2,0.25,0.61,0.41,1.23,0.47s1.17,0.08,1.68,0.06c0.06,0.51,0.09,0.83,0.09,0.97c0,0.23-0.03,0.46-0.09,0.68
		c-0.27,0.01-0.68,0.02-1.25,0.02c-0.99,0-1.76-0.12-2.32-0.36s-0.91-0.72-1.06-1.44c-0.14-1.23-0.21-2.83-0.21-4.81V6.23
		c-0.08,0.01-0.27,0.02-0.57,0.02l-1.44-0.02l0.06-1.56c0.28,0.03,0.94,0.04,1.99,0.04l-0.02-1.99V1.82c0-0.53,0.01-0.91,0.04-1.12
		c0.18-0.01,0.45-0.01,0.82,0.02l0.51,0.02C86.19,0.74,86.29,0.74,86.35,0.72z"/>
	<path d="M91.92,4.98h-0.21c-0.08,0-0.2,0.01-0.38,0.03c-0.18,0.02-0.39,0.03-0.63,0.03c-0.18,0-0.28-0.01-0.3-0.04
		c0.34-1.37,0.77-2.93,1.27-4.67c0.01-0.05,0.03-0.08,0.06-0.08c0.03-0.01,0.12,0,0.29,0.02c0.16,0.02,0.41,0.03,0.72,0.03
		c0.24,0,0.39,0.01,0.44,0.04l-0.38,1.46c-0.32,1.29-0.58,2.27-0.8,2.95L91.92,4.98z"/>
	<path d="M101.52,6.71c0,0.06-0.22,0.1-0.67,0.1c-0.33,0-0.57-0.01-0.72-0.02c-0.1,0-0.2,0-0.3-0.01c-0.1-0.01-0.18,0-0.25,0.01
		c0-0.01,0-0.23,0-0.66s-0.37-0.68-1.1-0.77c-0.17-0.03-0.41-0.04-0.74-0.04c-0.35,0-0.67,0.03-0.96,0.08
		c-0.28,0.05-0.5,0.12-0.64,0.21c-0.17,0.13-0.29,0.31-0.38,0.55c-0.09,0.24-0.13,0.47-0.13,0.7c0,0.18,0.03,0.3,0.08,0.36
		c0.14,0.29,0.32,0.49,0.55,0.61c0.13,0.09,0.44,0.2,0.93,0.32s0.92,0.2,1.27,0.21c0.52,0.01,0.98,0.09,1.38,0.24
		c0.4,0.15,0.71,0.35,0.94,0.6c0.23,0.28,0.4,0.55,0.5,0.83c0.11,0.27,0.16,0.57,0.16,0.88c0,0.39-0.09,0.87-0.29,1.42
		c-0.28,0.6-0.72,1.03-1.33,1.31s-1.3,0.41-2.07,0.4c-0.85,0.03-1.6-0.08-2.24-0.33c-0.65-0.25-1.15-0.62-1.5-1.11
		c-0.36-0.49-0.53-1.08-0.53-1.75v-0.1c0.23-0.02,0.56-0.04,1.01-0.04c0.49,0,0.76,0.02,0.8,0.06c0.03,0.03,0.08,0.17,0.16,0.43
		c0.08,0.26,0.23,0.52,0.45,0.79c0.21,0.27,0.58,0.42,1.1,0.46c0.41,0.03,0.65,0.04,0.72,0.04c0.2,0,0.37-0.02,0.5-0.06
		c0.13-0.04,0.31-0.11,0.52-0.21c0.65-0.29,0.96-0.72,0.95-1.27c0.01-0.37-0.09-0.65-0.29-0.86c-0.21-0.2-0.47-0.34-0.79-0.41
		c-0.32-0.07-0.75-0.14-1.29-0.2c-0.39-0.04-0.71-0.08-0.95-0.11s-0.46-0.1-0.65-0.19c-0.66-0.22-1.16-0.55-1.51-1.02
		c-0.35-0.46-0.52-0.97-0.52-1.51c0-0.6,0.17-1.14,0.52-1.62c0.35-0.49,0.83-0.81,1.43-0.96c0.52-0.14,1.18-0.21,2-0.21
		c0.19,0,0.47,0.01,0.85,0.04c0.54,0.04,1.05,0.13,1.52,0.29c0.44,0.19,0.8,0.52,1.08,0.98C101.38,5.62,101.52,6.14,101.52,6.71z"/>
	<path d="M108.01,3.55v1.69c0.34-0.29,0.64-0.51,0.9-0.66s0.64-0.24,1.15-0.28c0.3-0.04,0.59-0.06,0.86-0.06
		c0.92,0,1.65,0.22,2.17,0.67c0.16,0.14,0.28,0.47,0.34,0.99s0.09,1.2,0.09,2.05c0,0.48-0.01,1.24-0.04,2.28
		c-0.03,1.01-0.04,1.74-0.04,2.17c0,0.35,0.01,0.79,0.04,1.29c-0.51,0.08-1.05,0.1-1.63,0.08c-0.03-0.38-0.04-0.71-0.04-0.99v-1.14
		V7.92c-0.03-0.81-0.21-1.34-0.57-1.58c-0.08-0.05-0.23-0.1-0.46-0.15c-0.27-0.08-0.54-0.11-0.82-0.11c-0.49,0-0.92,0.12-1.26,0.37
		s-0.57,0.63-0.67,1.15c-0.09,0.48-0.13,1.06-0.13,1.73l0.02,0.65c0.03,0.84,0.04,1.53,0.04,2.07c0,0.68-0.01,1.21-0.04,1.58v0.08
		c-0.25,0.06-0.46,0.09-0.61,0.09l-0.57-0.02c-0.18,0-0.32,0.01-0.44,0.02c0-1.46-0.01-2.66-0.02-3.61l-0.02-5.81
		c0-1.42,0.01-2.88,0.04-4.37c0.39,0.04,0.71,0.05,0.95,0.04c0.06,0,0.14-0.01,0.24-0.02S107.68,0,107.79,0
		c0.13,0,0.19,0.02,0.19,0.06c0.03,0.11,0.04,0.89,0.04,2.32V3.55z"/>
	<path d="M114.59,7.56c0-0.47,0.02-0.87,0.07-1.22c0.04-0.34,0.16-0.77,0.33-1.27c0.16-0.37,0.52-0.64,1.05-0.83
		c0.54-0.18,1.14-0.28,1.79-0.28c0.09,0.01,0.22,0.02,0.38,0.02l0.76-0.02c1.06,0,1.88,0.28,2.45,0.84c0.23,0.15,0.4,0.44,0.52,0.85
		c0.12,0.42,0.19,0.98,0.22,1.68s0.04,1.11,0.04,1.23c-0.05,1.27-0.11,2.27-0.18,3.02c-0.07,0.75-0.21,1.23-0.43,1.44
		c-0.24,0.34-0.57,0.58-1,0.7c-0.42,0.13-0.93,0.19-1.51,0.19c-0.23,0-0.57-0.01-1.03-0.04l-0.87-0.02
		c-0.75-0.13-1.31-0.4-1.68-0.82c-0.37-0.42-0.61-0.91-0.72-1.46c-0.11-0.56-0.16-1.23-0.16-2.01V8.59
		C114.62,8.12,114.61,7.78,114.59,7.56z M118.46,5.76c-0.86,0-1.48,0.22-1.86,0.67c-0.17,0.2-0.27,0.46-0.31,0.77
		c-0.04,0.31-0.06,0.71-0.05,1.21c-0.01,0.19-0.01,0.44,0.01,0.76c0.02,0.32,0.03,0.56,0.03,0.74l0.04,0.8
		c0.04,0.51,0.18,0.86,0.43,1.07c0.25,0.21,0.56,0.35,0.94,0.43c0.25,0.04,0.51,0.06,0.78,0.06c0.49,0,0.92-0.09,1.29-0.27
		c0.37-0.18,0.6-0.47,0.7-0.87c0.05-0.33,0.08-0.59,0.08-0.78c0.06-0.89,0.09-1.49,0.09-1.8c0-0.84-0.15-1.51-0.46-2.01
		C119.87,6.01,119.3,5.76,118.46,5.76z"/>
	<path d="M126.48,0.72v2.91l0.02,1.06c0.82-0.03,1.84-0.07,3.06-0.13c0.08,0.1,0.11,0.29,0.11,0.57l-0.02,0.44
		c-0.03,0.28-0.03,0.48-0.02,0.61c-1.38,0-2.41-0.01-3.1-0.02v2.91v0.65c0,0.57,0.01,0.98,0.04,1.22c0.03,0.24,0.08,0.45,0.15,0.63
		c0.2,0.25,0.61,0.41,1.22,0.47s1.17,0.08,1.68,0.06c0.06,0.51,0.1,0.83,0.1,0.97c0,0.23-0.03,0.46-0.1,0.68
		c-0.27,0.01-0.68,0.02-1.25,0.02c-0.99,0-1.76-0.12-2.32-0.36c-0.56-0.24-0.91-0.72-1.06-1.44c-0.14-1.23-0.21-2.83-0.21-4.81V6.23
		c-0.08,0.01-0.27,0.02-0.57,0.02l-1.44-0.02l0.06-1.56c0.28,0.03,0.94,0.04,2,0.04l-0.02-1.99V1.82c0-0.53,0.01-0.91,0.04-1.12
		c0.18-0.01,0.45-0.01,0.82,0.02l0.51,0.02C126.32,0.74,126.42,0.74,126.48,0.72z"/>
	<path d="M134.16,7.56c0-0.47,0.02-0.87,0.07-1.22c0.04-0.34,0.15-0.77,0.33-1.27c0.17-0.37,0.52-0.64,1.05-0.83s1.14-0.28,1.8-0.28
		c0.09,0.01,0.21,0.02,0.38,0.02l0.76-0.02c1.06,0,1.88,0.28,2.45,0.84c0.23,0.15,0.4,0.44,0.52,0.85c0.12,0.42,0.19,0.98,0.22,1.68
		c0.02,0.7,0.04,1.11,0.04,1.23c-0.05,1.27-0.11,2.27-0.18,3.02c-0.07,0.75-0.21,1.23-0.43,1.44c-0.24,0.34-0.57,0.58-1,0.7
		c-0.42,0.13-0.93,0.19-1.51,0.19c-0.23,0-0.57-0.01-1.03-0.04l-0.87-0.02c-0.75-0.13-1.31-0.4-1.68-0.82
		c-0.37-0.42-0.61-0.91-0.72-1.46c-0.11-0.56-0.16-1.23-0.16-2.01V8.59C134.2,8.12,134.18,7.78,134.16,7.56z M138.03,5.76
		c-0.86,0-1.48,0.22-1.86,0.67c-0.17,0.2-0.27,0.46-0.31,0.77c-0.04,0.31-0.06,0.71-0.05,1.21c-0.01,0.19-0.01,0.44,0.01,0.76
		c0.02,0.32,0.03,0.56,0.03,0.74l0.04,0.8c0.04,0.51,0.18,0.86,0.43,1.07s0.56,0.35,0.94,0.43c0.25,0.04,0.51,0.06,0.78,0.06
		c0.49,0,0.92-0.09,1.29-0.27c0.37-0.18,0.6-0.47,0.7-0.87c0.05-0.33,0.08-0.59,0.08-0.78c0.06-0.89,0.1-1.49,0.1-1.8
		c0-0.84-0.15-1.51-0.46-2.01C139.44,6.01,138.87,5.76,138.03,5.76z"/>
	<path d="M148.41,13.74c-0.01-0.24-0.02-0.44-0.02-0.6s-0.01-0.29-0.02-0.41c-0.03,0.01-0.13,0.08-0.3,0.21
		c-0.18,0.13-0.46,0.23-0.86,0.32c-0.73,0.27-1.45,0.4-2.15,0.4c-0.79,0-1.38-0.19-1.77-0.57c-0.21-0.19-0.35-0.51-0.4-0.96
		c-0.05-0.45-0.08-1.17-0.1-2.16V9.39c0-0.39,0.01-0.97,0.04-1.73c0.04-0.76,0.06-1.48,0.06-2.17c0-0.33-0.01-0.73-0.04-1.22
		c0.23-0.03,0.54-0.04,0.93-0.04h0.63c0.04,0.38,0.06,0.83,0.06,1.35l-0.02,1.54c0,0.51,0.01,0.87,0.02,1.1l0.02,0.53
		c0,0.46,0.02,0.99,0.06,1.6c0.03,0.42,0.11,0.73,0.26,0.95c0.15,0.21,0.36,0.36,0.66,0.44c0.25,0.04,0.49,0.06,0.7,0.06
		c0.75,0,1.32-0.2,1.72-0.61c0.4-0.41,0.6-0.96,0.62-1.65c0.01-0.46-0.01-1.29-0.06-2.49c-0.03-0.61-0.04-1.01-0.04-1.2
		c0-0.34,0.01-0.83,0.04-1.46V4.31c0.2-0.05,0.4-0.08,0.58-0.09s0.29-0.02,0.33-0.02c0.27,0,0.49-0.01,0.68-0.02l0.02,3.27
		c0.02,1.5,0.04,2.62,0.04,3.36c0,0.61-0.01,1.57-0.04,2.89c-0.28,0-0.59,0.02-0.93,0.06c-0.06,0-0.14,0.01-0.24,0.02
		s-0.19,0.02-0.29,0.02C148.47,13.79,148.41,13.78,148.41,13.74z"/>
	<path d="M154.7,0.72v2.91l0.02,1.06c0.82-0.03,1.84-0.07,3.06-0.13c0.08,0.1,0.11,0.29,0.11,0.57l-0.02,0.44
		c-0.03,0.28-0.03,0.48-0.02,0.61c-1.38,0-2.41-0.01-3.1-0.02v2.91v0.65c0,0.57,0.01,0.98,0.04,1.22c0.03,0.24,0.08,0.45,0.15,0.63
		c0.2,0.25,0.61,0.41,1.22,0.47s1.17,0.08,1.68,0.06c0.06,0.51,0.1,0.83,0.1,0.97c0,0.23-0.03,0.46-0.1,0.68
		c-0.27,0.01-0.68,0.02-1.25,0.02c-0.99,0-1.76-0.12-2.32-0.36c-0.56-0.24-0.91-0.72-1.06-1.44c-0.14-1.23-0.21-2.83-0.21-4.81V6.23
		c-0.08,0.01-0.27,0.02-0.57,0.02l-1.44-0.02l0.06-1.56c0.28,0.03,0.94,0.04,2,0.04l-0.02-1.99V1.82c0-0.53,0.01-0.91,0.04-1.12
		c0.18-0.01,0.45-0.01,0.82,0.02l0.51,0.02C154.53,0.74,154.63,0.74,154.7,0.72z"/>
	<path d="M166.36,6.71c0,0.06-0.22,0.1-0.67,0.1c-0.33,0-0.57-0.01-0.72-0.02c-0.1,0-0.2,0-0.3-0.01c-0.1-0.01-0.18,0-0.25,0.01
		c0-0.01,0-0.23,0-0.66s-0.37-0.68-1.1-0.77c-0.17-0.03-0.41-0.04-0.74-0.04c-0.35,0-0.67,0.03-0.96,0.08
		c-0.28,0.05-0.5,0.12-0.64,0.21c-0.17,0.13-0.29,0.31-0.38,0.55c-0.09,0.24-0.13,0.47-0.13,0.7c0,0.18,0.03,0.3,0.08,0.36
		c0.14,0.29,0.32,0.49,0.55,0.61c0.13,0.09,0.44,0.2,0.93,0.32s0.92,0.2,1.27,0.21c0.52,0.01,0.98,0.09,1.38,0.24
		c0.4,0.15,0.71,0.35,0.94,0.6c0.23,0.28,0.4,0.55,0.5,0.83c0.11,0.27,0.16,0.57,0.16,0.88c0,0.39-0.09,0.87-0.29,1.42
		c-0.28,0.6-0.72,1.03-1.33,1.31s-1.3,0.41-2.07,0.4c-0.85,0.03-1.6-0.08-2.24-0.33c-0.65-0.25-1.15-0.62-1.5-1.11
		c-0.36-0.49-0.53-1.08-0.53-1.75v-0.1c0.23-0.02,0.56-0.04,1.01-0.04c0.49,0,0.76,0.02,0.8,0.06c0.03,0.03,0.08,0.17,0.16,0.43
		c0.08,0.26,0.23,0.52,0.45,0.79c0.21,0.27,0.58,0.42,1.1,0.46c0.41,0.03,0.65,0.04,0.72,0.04c0.2,0,0.37-0.02,0.5-0.06
		c0.13-0.04,0.31-0.11,0.52-0.21c0.65-0.29,0.96-0.72,0.95-1.27c0.01-0.37-0.09-0.65-0.29-0.86c-0.21-0.2-0.47-0.34-0.79-0.41
		c-0.32-0.07-0.75-0.14-1.29-0.2c-0.39-0.04-0.71-0.08-0.95-0.11s-0.46-0.1-0.65-0.19c-0.66-0.22-1.16-0.55-1.51-1.02
		c-0.35-0.46-0.52-0.97-0.52-1.51c0-0.6,0.17-1.14,0.52-1.62c0.35-0.49,0.83-0.81,1.43-0.96c0.52-0.14,1.18-0.21,2-0.21
		c0.19,0,0.47,0.01,0.85,0.04c0.54,0.04,1.05,0.13,1.52,0.29c0.44,0.19,0.8,0.52,1.08,0.98C166.22,5.62,166.36,6.14,166.36,6.71z"/>
	<path d="M167.86,4.14c0.09-0.01,0.27-0.01,0.53,0c0.38,0.03,0.8,0.04,1.25,0.04v0.06c0,0.57-0.01,1.45-0.04,2.64
		c-0.04,1.22-0.06,2.45-0.06,3.69c0,1.17,0.03,2.2,0.08,3.12c-0.18,0.04-0.44,0.06-0.8,0.06c-0.36,0-0.57,0-0.65,0
		c-0.23,0-0.37,0.01-0.42,0.02c0.01-0.37,0.02-0.92,0.02-1.67v-1.71v-1.6c-0.03-0.89-0.04-1.57-0.04-2.05
		c0-0.87,0.04-1.73,0.11-2.57V4.14z M167.79,0.06c0.79,0.03,1.38,0.04,1.79,0.04l0.06,2.51c-0.13,0.06-0.35,0.09-0.68,0.09
		c-0.2,0-0.35-0.01-0.46-0.02c-0.08,0-0.17,0-0.27-0.01s-0.22,0-0.36,0.01c0-0.19-0.01-0.5-0.04-0.93
		C167.79,0.91,167.77,0.35,167.79,0.06z"/>
	<path d="M176.98,0.63V0.42c0.03-0.06,0.33-0.09,0.91-0.09c0.33,0,0.58,0.01,0.74,0.04v1.25c0,1.2,0.02,2.96,0.08,5.26
		c0.01,0.57,0.03,1.25,0.04,2.04s0.02,1.69,0.02,2.71c0,0.94-0.01,1.63-0.02,2.09c-0.41,0.02-0.74,0.04-1.01,0.04
		c-0.34,0-0.6-0.01-0.76-0.04c-0.01-0.03-0.02-0.16-0.02-0.4c0-0.33-0.03-0.58-0.1-0.76c-0.09,0.2-0.24,0.41-0.45,0.61
		c-0.21,0.2-0.42,0.32-0.64,0.36c-0.34,0.11-0.72,0.17-1.14,0.17c-0.2,0-0.35-0.01-0.46-0.02c-0.9-0.06-1.58-0.35-2.03-0.85
		s-0.76-1.11-0.9-1.84s-0.23-1.62-0.26-2.67c0-1.06,0.14-1.94,0.43-2.63c0.29-0.69,0.78-1.13,1.49-1.32c0.47-0.13,1-0.19,1.6-0.19
		c0.48,0,0.85,0.03,1.12,0.09c0.25,0.04,0.48,0.12,0.68,0.26c0.2,0.13,0.36,0.27,0.47,0.42c0.11,0.15,0.18,0.25,0.19,0.31
		l-0.02-1.62c0-0.33,0-0.62-0.01-0.88c-0.01-0.26,0-0.47,0.01-0.62c0.01-0.06,0.02-0.14,0.01-0.24c-0.01-0.1-0.01-0.18-0.01-0.26
		v-0.4C176.96,0.96,176.97,0.75,176.98,0.63z M175.14,5.61l-0.36-0.02c-0.68,0-1.21,0.17-1.58,0.5s-0.58,0.86-0.63,1.57
		c-0.04,0.28-0.06,0.7-0.06,1.25c0.03,0.84,0.13,1.49,0.31,1.95c0.18,0.46,0.44,0.79,0.76,0.97s0.75,0.28,1.28,0.28
		c0.61,0,1.06-0.14,1.37-0.43s0.5-0.66,0.59-1.13c0.09-0.47,0.13-1.08,0.13-1.84c-0.01-0.72-0.05-1.29-0.12-1.69
		s-0.23-0.74-0.49-0.99S175.68,5.63,175.14,5.61z"/>
	<path d="M181.49,8.93v0.34l-0.02,0.55c0,1.57,0.77,2.36,2.32,2.36c0.62,0,1.08-0.14,1.38-0.43c0.3-0.29,0.45-0.67,0.45-1.17
		c0-0.08-0.01-0.21-0.04-0.42c0.27-0.04,0.51-0.06,0.74-0.06c0.2,0,0.35,0.01,0.46,0.02c0.08,0,0.17,0,0.28,0.01
		c0.11,0.01,0.23,0,0.37-0.01c0.01,0.72-0.01,1.3-0.08,1.73s-0.21,0.84-0.46,1.23c-0.23,0.34-0.62,0.59-1.19,0.73
		s-1.18,0.22-1.85,0.22c-0.3,0-0.59-0.01-0.84-0.04c-0.26-0.03-0.42-0.05-0.48-0.08c-0.99-0.17-1.7-0.79-2.15-1.87
		s-0.63-2.32-0.57-3.71c0.01-0.1,0.03-0.31,0.06-0.64c0.03-0.32,0.06-0.66,0.1-1c0.04-0.34,0.13-0.68,0.26-1.01
		c0.24-0.56,0.68-0.99,1.31-1.29c0.63-0.3,1.34-0.46,2.11-0.46c0.41,0,0.83,0.05,1.27,0.15c1.72,0.29,2.58,1.59,2.58,3.89
		c0,0.19-0.01,0.46-0.04,0.82c-0.24,0.08-0.95,0.14-2.13,0.19c-0.14,0.01-0.44,0.02-0.91,0.02c-1,0-1.74-0.01-2.22-0.04
		C181.87,8.99,181.64,8.97,181.49,8.93z M186.1,7.5c-0.01-0.39-0.11-0.78-0.29-1.16c-0.18-0.38-0.45-0.68-0.79-0.89
		c-0.19-0.09-0.36-0.15-0.49-0.17c-0.14-0.03-0.32-0.04-0.53-0.04c-0.82,0-1.41,0.17-1.76,0.51c-0.35,0.34-0.57,0.83-0.66,1.46
		c-0.03,0.15-0.04,0.25-0.04,0.3c0,0.15,0.07,0.25,0.22,0.3c0.15,0.05,0.46,0.08,0.94,0.08c0.47,0,0.87-0.01,1.2-0.02
		c1.22,0,1.9-0.01,2.05-0.02c0.06-0.01,0.1-0.03,0.12-0.05c0.02-0.02,0.03-0.05,0.03-0.1V7.5z"/>
	<path d="M190.42,14.14l-0.15,0.76l-0.15,0.74c-0.04-0.01-0.19-0.02-0.46-0.02c-0.1-0.01-0.29-0.02-0.55-0.02
		c-0.03-0.03,0.02-0.27,0.13-0.74c0.14-0.53,0.22-0.9,0.25-1.1l-0.63-0.08c-0.03,0-0.04-0.01-0.06-0.02c0-0.35,0.03-1.08,0.08-2.18
		v-0.02h0.02c0.18-0.04,0.36-0.06,0.55-0.06c0.13,0,0.34,0.01,0.65,0.04c0.23,0.03,0.4,0.04,0.51,0.04h0.02l-0.08,2.18h-0.04
		l-0.02,0.06c0,0.08-0.01,0.15-0.03,0.22C190.44,14.01,190.43,14.07,190.42,14.14z"/>
	<path d="M7.98,23.52v2.91L8,27.49c0.82-0.03,1.84-0.07,3.06-0.13c0.08,0.1,0.11,0.29,0.11,0.57l-0.02,0.44
		c-0.03,0.28-0.03,0.48-0.02,0.61c-1.38,0-2.41-0.01-3.1-0.02v2.91v0.65c0,0.57,0.01,0.98,0.04,1.22c0.03,0.24,0.08,0.45,0.15,0.63
		c0.2,0.25,0.61,0.41,1.23,0.47s1.17,0.08,1.68,0.06c0.06,0.51,0.09,0.83,0.09,0.97c0,0.23-0.03,0.46-0.09,0.68
		c-0.27,0.01-0.68,0.02-1.25,0.02c-0.99,0-1.76-0.12-2.32-0.36s-0.91-0.72-1.06-1.44c-0.14-1.23-0.21-2.83-0.21-4.81v-0.91
		c-0.08,0.01-0.27,0.02-0.57,0.02l-1.44-0.02l0.06-1.56c0.28,0.03,0.94,0.04,1.99,0.04l-0.02-1.99v-0.89c0-0.53,0.01-0.91,0.04-1.12
		c0.18-0.01,0.45-0.01,0.82,0.02l0.51,0.02C7.82,23.54,7.92,23.54,7.98,23.52z"/>
	<path d="M13.49,31.73v0.34l-0.02,0.55c0,1.57,0.77,2.36,2.32,2.36c0.62,0,1.08-0.14,1.38-0.43s0.45-0.67,0.45-1.17
		c0-0.08-0.01-0.21-0.04-0.42c0.27-0.04,0.51-0.06,0.74-0.06c0.2,0,0.35,0.01,0.46,0.02c0.08,0,0.17,0,0.28,0.01
		c0.11,0.01,0.23,0,0.37-0.01c0.01,0.72-0.01,1.3-0.08,1.73s-0.22,0.84-0.46,1.23c-0.23,0.34-0.62,0.59-1.19,0.73
		s-1.18,0.22-1.85,0.22c-0.3,0-0.59-0.01-0.85-0.04s-0.42-0.05-0.48-0.08c-0.99-0.17-1.7-0.79-2.15-1.87
		c-0.44-1.08-0.63-2.32-0.57-3.71c0.01-0.1,0.03-0.31,0.06-0.64c0.03-0.32,0.06-0.66,0.1-1s0.13-0.68,0.26-1.01
		c0.24-0.56,0.68-0.99,1.31-1.29c0.63-0.3,1.34-0.46,2.11-0.46c0.41,0,0.83,0.05,1.27,0.15c1.72,0.29,2.58,1.59,2.58,3.89
		c0,0.19-0.01,0.46-0.04,0.82c-0.24,0.08-0.95,0.14-2.13,0.19c-0.14,0.01-0.44,0.02-0.91,0.02c-1,0-1.74-0.01-2.22-0.04
		C13.88,31.79,13.64,31.77,13.49,31.73z M18.11,30.3c-0.01-0.39-0.11-0.78-0.29-1.16c-0.18-0.38-0.45-0.68-0.79-0.89
		c-0.19-0.09-0.35-0.15-0.49-0.17s-0.32-0.04-0.53-0.04c-0.82,0-1.41,0.17-1.76,0.51c-0.35,0.34-0.57,0.83-0.66,1.46
		c-0.03,0.15-0.04,0.25-0.04,0.3c0,0.15,0.07,0.25,0.22,0.3c0.14,0.05,0.46,0.08,0.94,0.08c0.47,0,0.87-0.01,1.2-0.02
		c1.22,0,1.9-0.01,2.05-0.02c0.06-0.01,0.1-0.03,0.12-0.05c0.02-0.02,0.03-0.05,0.03-0.1V30.3z"/>
	<path d="M22.25,27.11c0.03,0.14,0.04,0.32,0.04,0.53v0.47c0.47-0.47,1.03-0.75,1.67-0.86c0.44-0.09,0.82-0.13,1.12-0.13
		c0.54,0,0.99,0.11,1.35,0.32c0.28,0.13,0.46,0.3,0.55,0.53c0.09-0.05,0.22-0.14,0.39-0.28c0.17-0.13,0.41-0.26,0.7-0.38
		c0.3-0.12,0.71-0.19,1.25-0.2c0.63-0.03,1.13,0,1.49,0.09s0.69,0.25,0.98,0.5c0.16,0.14,0.28,0.47,0.34,0.99s0.1,1.2,0.1,2.05
		c0,0.48-0.01,1.24-0.04,2.28c-0.03,1.01-0.04,1.74-0.04,2.17c0,0.35,0.01,0.79,0.04,1.29c-0.46,0.08-1,0.1-1.62,0.08
		c-0.03-0.34-0.04-0.97-0.04-1.88c0.03-0.99,0.04-1.75,0.04-2.28v-0.8c-0.01-0.1-0.03-0.29-0.04-0.55
		c-0.01-0.27-0.04-0.56-0.08-0.87s-0.11-0.56-0.23-0.72c-0.08-0.25-0.32-0.4-0.74-0.44c-0.13-0.03-0.31-0.04-0.55-0.04
		c-0.37,0-0.68,0.06-0.95,0.18c-0.27,0.12-0.46,0.31-0.57,0.56c-0.03,0.28-0.04,0.5-0.04,0.67l0.02,0.53v0.7
		c0,0.43-0.01,1.09-0.04,1.98l-0.02,1.9c0,0.47,0.01,0.8,0.02,1.01c-0.27,0.04-0.63,0.06-1.08,0.06h-0.59
		c-0.03-0.25-0.04-0.7-0.04-1.35v-1.01l0.02-1.41c0-0.87-0.03-1.65-0.08-2.32c0-0.53-0.09-0.9-0.27-1.09
		c-0.18-0.2-0.51-0.29-0.99-0.29c-1.34,0-2.06,0.75-2.17,2.26c-0.01,0.19-0.02,0.47-0.02,0.84c0,0.41,0.01,0.98,0.04,1.71l0.02,0.93
		c0,0.52-0.02,1.06-0.06,1.62v0.08c-0.19,0.04-0.37,0.06-0.53,0.06L21,36.58c-0.19,0-0.34,0.01-0.46,0.02l-0.02-3.27
		c-0.03-1.49-0.04-2.62-0.04-3.36c0-0.61,0.01-1.57,0.04-2.89c0.33,0.03,0.53,0.04,0.59,0.04l0.42-0.02c0.06,0,0.15-0.01,0.25-0.02
		c0.1-0.01,0.2-0.02,0.3-0.02C22.19,27.06,22.25,27.08,22.25,27.11z"/>
	<path d="M35.23,40.17v0.21c0,0.03-0.08,0.05-0.25,0.07c-0.16,0.02-0.35,0.03-0.55,0.03c-0.29,0-0.56-0.02-0.82-0.06v-1.25
		c0-1.19-0.03-2.94-0.08-5.24c-0.01-0.56-0.03-1.24-0.04-2.04c-0.01-0.8-0.02-1.71-0.02-2.73c0-0.94,0.01-1.63,0.02-2.09l1.23-0.02
		c0.25,0,0.44,0.01,0.55,0.02c0.01,0.01,0.02,0.07,0.03,0.16c0.01,0.09,0.01,0.19,0.01,0.29c0,0.05,0,0.11,0.01,0.17
		c0.01,0.06,0,0.15-0.01,0.27c0.01,0.06,0.04,0.09,0.07,0.08c0.03-0.01,0.07-0.05,0.12-0.14c0.23-0.29,0.54-0.5,0.93-0.63
		c0.39-0.13,0.79-0.19,1.2-0.19c0.2,0,0.34,0.01,0.42,0.02c0.87,0.06,1.54,0.34,2,0.82c0.46,0.48,0.77,1.09,0.92,1.82
		c0.15,0.73,0.24,1.64,0.27,2.72c0,0.96-0.12,1.8-0.37,2.51c-0.25,0.71-0.64,1.16-1.17,1.35c-0.32,0.13-0.7,0.21-1.14,0.25
		c-0.14,0.01-0.36,0.02-0.66,0.02c-0.63,0-1.22-0.05-1.77-0.15c-0.54-0.1-0.83-0.23-0.85-0.38l0.04,2.32c0,0.28-0.01,0.62-0.04,1.03
		L35.23,40.17z M36.96,35.11c0.59,0,1.05-0.03,1.36-0.09c0.31-0.06,0.58-0.19,0.8-0.4s0.4-0.55,0.54-1.02
		c0.1-0.49,0.15-0.96,0.15-1.39c0-1.01-0.18-1.89-0.54-2.62c-0.36-0.74-1.05-1.06-2.08-0.99c-0.61,0.05-1.05,0.22-1.34,0.5
		c-0.29,0.29-0.47,0.66-0.54,1.13s-0.11,1.13-0.11,1.98c0,0.9,0.04,1.54,0.11,1.93c0.08,0.39,0.23,0.64,0.47,0.77
		C36,35.05,36.4,35.11,36.96,35.11z"/>
	<path d="M43.74,31.73v0.34l-0.02,0.55c0,1.57,0.77,2.36,2.32,2.36c0.62,0,1.08-0.14,1.38-0.43s0.45-0.67,0.45-1.17
		c0-0.08-0.01-0.21-0.04-0.42c0.27-0.04,0.51-0.06,0.74-0.06c0.2,0,0.35,0.01,0.46,0.02c0.08,0,0.17,0,0.28,0.01
		c0.11,0.01,0.23,0,0.37-0.01c0.01,0.72-0.01,1.3-0.08,1.73s-0.22,0.84-0.46,1.23c-0.23,0.34-0.62,0.59-1.19,0.73
		s-1.18,0.22-1.85,0.22c-0.3,0-0.59-0.01-0.85-0.04s-0.42-0.05-0.48-0.08c-0.99-0.17-1.7-0.79-2.15-1.87
		c-0.44-1.08-0.63-2.32-0.57-3.71c0.01-0.1,0.03-0.31,0.06-0.64c0.03-0.32,0.06-0.66,0.1-1s0.13-0.68,0.26-1.01
		c0.24-0.56,0.68-0.99,1.31-1.29c0.63-0.3,1.34-0.46,2.11-0.46c0.41,0,0.83,0.05,1.27,0.15c1.72,0.29,2.58,1.59,2.58,3.89
		c0,0.19-0.01,0.46-0.04,0.82c-0.24,0.08-0.95,0.14-2.13,0.19c-0.14,0.01-0.44,0.02-0.91,0.02c-1,0-1.74-0.01-2.22-0.04
		C44.12,31.79,43.89,31.77,43.74,31.73z M48.35,30.3c-0.01-0.39-0.11-0.78-0.29-1.16c-0.18-0.38-0.45-0.68-0.79-0.89
		c-0.19-0.09-0.35-0.15-0.49-0.17s-0.32-0.04-0.53-0.04c-0.82,0-1.41,0.17-1.76,0.51c-0.35,0.34-0.57,0.83-0.66,1.46
		c-0.03,0.15-0.04,0.25-0.04,0.3c0,0.15,0.07,0.25,0.22,0.3c0.14,0.05,0.46,0.08,0.94,0.08c0.47,0,0.87-0.01,1.2-0.02
		c1.22,0,1.9-0.01,2.05-0.02c0.06-0.01,0.1-0.03,0.12-0.05c0.02-0.02,0.03-0.05,0.03-0.1V30.3z"/>
	<path d="M52.5,27.09c0,0.15,0,0.27,0.01,0.35c0.01,0.08,0.01,0.18,0.01,0.29c0.09-0.05,0.21-0.11,0.37-0.17s0.33-0.13,0.52-0.19
		c0.29-0.1,0.64-0.17,1.05-0.22c0.41-0.04,0.78-0.07,1.11-0.07c0.3,0,0.46,0.01,0.46,0.04l-0.02,1.58c0,0.25,0.01,0.44,0.02,0.57
		c-0.19-0.08-0.41-0.15-0.65-0.21c-0.28-0.06-0.58-0.09-0.91-0.09c-0.34,0-0.73,0.05-1.16,0.15c-0.36,0.09-0.6,0.22-0.72,0.4
		c-0.13,0.18-0.18,0.51-0.17,1.01c0.05,1.74,0.08,3.71,0.08,5.91v0.08c-0.22,0.05-0.44,0.08-0.67,0.08c-0.09,0-0.23,0-0.43-0.01
		c-0.2-0.01-0.4,0-0.6,0.01l-0.02-3.27c-0.03-1.49-0.04-2.62-0.04-3.36c0-0.61,0.01-1.57,0.04-2.89c0.13,0.01,0.26,0.02,0.41,0.01
		c0.15-0.01,0.28-0.01,0.39-0.01c0.15-0.01,0.35-0.02,0.61-0.02C52.39,27.06,52.5,27.07,52.5,27.09z"/>
	<path d="M63.25,27c0.29-0.01,0.67,0,1.12,0.04l0.49,0.04c0.03,0.2,0.04,0.35,0.04,0.46v0.19c-0.01,0.29-0.02,0.73-0.02,1.31
		c0,0.48,0.01,1.19,0.04,2.13l0.02,2.13c0,0.91-0.03,1.74-0.08,2.49c0,0.04,0,0.12,0,0.25c0,0.13-0.01,0.24-0.04,0.34
		s-0.09,0.17-0.21,0.19h-0.32l-0.61-0.02c-0.1,0-0.19,0.01-0.27,0.02s-0.15,0.02-0.21,0.02c-0.13-0.04-0.19-0.18-0.19-0.42
		c-0.01-0.1-0.01-0.22,0.01-0.34c0.02-0.13,0.03-0.23,0.03-0.32c-0.3,0.42-0.79,0.7-1.44,0.85c-0.66,0.15-1.3,0.23-1.94,0.23
		c-0.61,0-1.12-0.27-1.55-0.81c-0.42-0.54-0.74-1.2-0.94-1.99c-0.2-0.79-0.3-1.55-0.3-2.3c0-0.82,0.14-1.56,0.42-2.22
		c0.28-0.66,0.66-1.18,1.15-1.57c0.49-0.39,1.03-0.59,1.62-0.6l0.61-0.02c0.57,0,1.04,0.07,1.42,0.2s0.65,0.38,0.83,0.73
		c0-0.11,0.01-0.26,0.04-0.44c0.03-0.25,0.04-0.43,0.04-0.53C63,27.01,63.08,27,63.25,27z M61.12,28.71
		c-0.66-0.01-1.21,0.16-1.66,0.5c-0.45,0.35-0.73,0.76-0.83,1.24c-0.1,0.37-0.15,0.86-0.15,1.48c0.06,2.04,0.89,3.01,2.47,2.93
		c0.65,0,1.11-0.11,1.41-0.34c0.29-0.23,0.47-0.55,0.54-0.97s0.1-1.04,0.1-1.88c0-0.91-0.04-1.55-0.11-1.93
		c-0.08-0.37-0.24-0.63-0.49-0.77C62.16,28.84,61.73,28.75,61.12,28.71z"/>
	<path d="M69.5,23.52v2.91l0.02,1.06c0.82-0.03,1.84-0.07,3.06-0.13c0.08,0.1,0.11,0.29,0.11,0.57l-0.02,0.44
		c-0.03,0.28-0.03,0.48-0.02,0.61c-1.38,0-2.41-0.01-3.1-0.02v2.91v0.65c0,0.57,0.01,0.98,0.04,1.22c0.03,0.24,0.08,0.45,0.15,0.63
		c0.2,0.25,0.61,0.41,1.23,0.47s1.17,0.08,1.68,0.06c0.06,0.51,0.09,0.83,0.09,0.97c0,0.23-0.03,0.46-0.09,0.68
		c-0.27,0.01-0.68,0.02-1.25,0.02c-0.99,0-1.76-0.12-2.32-0.36s-0.91-0.72-1.06-1.44c-0.14-1.23-0.21-2.83-0.21-4.81v-0.91
		c-0.08,0.01-0.27,0.02-0.57,0.02l-1.44-0.02l0.06-1.56c0.28,0.03,0.94,0.04,1.99,0.04l-0.02-1.99v-0.89c0-0.53,0.01-0.91,0.04-1.12
		c0.18-0.01,0.45-0.01,0.82,0.02l0.51,0.02C69.34,23.54,69.44,23.54,69.5,23.52z"/>
	<path d="M79.12,36.54c-0.01-0.24-0.02-0.44-0.02-0.6s-0.01-0.29-0.02-0.41c-0.03,0.01-0.13,0.08-0.3,0.21
		c-0.18,0.13-0.46,0.23-0.86,0.32c-0.73,0.27-1.45,0.4-2.15,0.4c-0.79,0-1.38-0.19-1.77-0.57c-0.21-0.19-0.35-0.51-0.4-0.96
		c-0.05-0.45-0.08-1.17-0.1-2.16v-0.59c0-0.39,0.01-0.97,0.04-1.73c0.04-0.76,0.06-1.48,0.06-2.17c0-0.33-0.01-0.73-0.04-1.22
		c0.23-0.03,0.54-0.04,0.93-0.04h0.63c0.04,0.38,0.06,0.83,0.06,1.35l-0.02,1.54c0,0.51,0.01,0.87,0.02,1.1l0.02,0.53
		c0,0.46,0.02,0.99,0.06,1.6c0.03,0.42,0.11,0.73,0.26,0.95c0.15,0.21,0.36,0.36,0.66,0.44c0.25,0.04,0.49,0.06,0.7,0.06
		c0.75,0,1.32-0.2,1.72-0.61c0.4-0.41,0.6-0.96,0.62-1.65c0.01-0.46-0.01-1.29-0.06-2.49c-0.03-0.61-0.04-1.01-0.04-1.2
		c0-0.34,0.01-0.83,0.04-1.46v-0.08c0.2-0.05,0.4-0.08,0.58-0.09S80.03,27,80.07,27c0.27,0,0.49-0.01,0.68-0.02l0.02,3.27
		c0.02,1.5,0.04,2.62,0.04,3.36c0,0.61-0.01,1.57-0.04,2.89c-0.28,0-0.59,0.02-0.93,0.06c-0.06,0-0.14,0.01-0.24,0.02
		s-0.19,0.02-0.29,0.02C79.18,36.59,79.12,36.58,79.12,36.54z"/>
	<path d="M83.88,27.09c0,0.15,0,0.27,0.01,0.35c0.01,0.08,0.01,0.18,0.01,0.29c0.09-0.05,0.21-0.11,0.37-0.17s0.33-0.13,0.52-0.19
		c0.29-0.1,0.64-0.17,1.05-0.22c0.41-0.04,0.78-0.07,1.11-0.07c0.3,0,0.46,0.01,0.46,0.04l-0.02,1.58c0,0.25,0.01,0.44,0.02,0.57
		c-0.19-0.08-0.41-0.15-0.65-0.21c-0.28-0.06-0.58-0.09-0.91-0.09c-0.34,0-0.73,0.05-1.16,0.15c-0.36,0.09-0.6,0.22-0.72,0.4
		c-0.13,0.18-0.18,0.51-0.17,1.01c0.05,1.74,0.08,3.71,0.08,5.91v0.08c-0.22,0.05-0.44,0.08-0.67,0.08c-0.09,0-0.23,0-0.43-0.01
		c-0.2-0.01-0.4,0-0.6,0.01l-0.02-3.27c-0.03-1.49-0.04-2.62-0.04-3.36c0-0.61,0.01-1.57,0.04-2.89c0.13,0.01,0.26,0.02,0.41,0.01
		c0.15-0.01,0.28-0.01,0.39-0.01c0.15-0.01,0.35-0.02,0.61-0.02C83.78,27.06,83.88,27.07,83.88,27.09z"/>
	<path d="M90,31.73v0.34l-0.02,0.55c0,1.57,0.77,2.36,2.32,2.36c0.62,0,1.08-0.14,1.38-0.43c0.3-0.29,0.45-0.67,0.45-1.17
		c0-0.08-0.01-0.21-0.04-0.42c0.27-0.04,0.51-0.06,0.74-0.06c0.2,0,0.35,0.01,0.46,0.02c0.08,0,0.17,0,0.28,0.01
		c0.11,0.01,0.23,0,0.37-0.01c0.01,0.72-0.01,1.3-0.08,1.73s-0.21,0.84-0.46,1.23c-0.23,0.34-0.62,0.59-1.19,0.73
		s-1.18,0.22-1.85,0.22c-0.3,0-0.59-0.01-0.84-0.04c-0.26-0.03-0.42-0.05-0.48-0.08c-0.99-0.17-1.7-0.79-2.15-1.87
		s-0.63-2.32-0.57-3.71c0.01-0.1,0.03-0.31,0.06-0.64c0.03-0.32,0.06-0.66,0.1-1c0.04-0.34,0.13-0.68,0.26-1.01
		c0.24-0.56,0.68-0.99,1.31-1.29c0.63-0.3,1.34-0.46,2.11-0.46c0.41,0,0.83,0.05,1.27,0.15c1.72,0.29,2.58,1.59,2.58,3.89
		c0,0.19-0.01,0.46-0.04,0.82c-0.24,0.08-0.95,0.14-2.13,0.19c-0.14,0.01-0.44,0.02-0.91,0.02c-1,0-1.74-0.01-2.22-0.04
		C90.39,31.79,90.15,31.77,90,31.73z M94.62,30.3c-0.01-0.39-0.11-0.78-0.29-1.16c-0.18-0.38-0.45-0.68-0.79-0.89
		c-0.19-0.09-0.36-0.15-0.49-0.17c-0.14-0.03-0.32-0.04-0.53-0.04c-0.82,0-1.41,0.17-1.76,0.51c-0.35,0.34-0.57,0.83-0.66,1.46
		c-0.03,0.15-0.04,0.25-0.04,0.3c0,0.15,0.07,0.25,0.22,0.3c0.15,0.05,0.46,0.08,0.94,0.08c0.47,0,0.87-0.01,1.2-0.02
		c1.22,0,1.9-0.01,2.05-0.02c0.06-0.01,0.1-0.03,0.12-0.05c0.02-0.02,0.03-0.05,0.03-0.1V30.3z"/>
	<path d="M104.59,29.51c0,0.06-0.22,0.1-0.67,0.1c-0.33,0-0.57-0.01-0.72-0.02c-0.1,0-0.2,0-0.3-0.01c-0.1-0.01-0.18,0-0.25,0.01
		c0-0.01,0-0.23,0-0.66s-0.37-0.68-1.1-0.77c-0.17-0.03-0.41-0.04-0.74-0.04c-0.35,0-0.67,0.03-0.96,0.08
		c-0.28,0.05-0.5,0.12-0.64,0.21c-0.17,0.13-0.29,0.31-0.38,0.55c-0.09,0.24-0.13,0.47-0.13,0.7c0,0.18,0.03,0.3,0.08,0.36
		c0.14,0.29,0.32,0.49,0.55,0.61c0.13,0.09,0.44,0.2,0.93,0.32s0.92,0.2,1.27,0.21c0.52,0.01,0.98,0.09,1.38,0.24
		c0.4,0.15,0.71,0.35,0.94,0.6c0.23,0.28,0.4,0.55,0.5,0.83c0.11,0.27,0.16,0.57,0.16,0.88c0,0.39-0.09,0.87-0.29,1.42
		c-0.28,0.6-0.72,1.03-1.33,1.31s-1.3,0.41-2.07,0.4c-0.85,0.03-1.6-0.08-2.24-0.33c-0.65-0.25-1.15-0.62-1.5-1.11
		c-0.36-0.49-0.53-1.08-0.53-1.75v-0.1c0.23-0.02,0.56-0.04,1.01-0.04c0.49,0,0.76,0.02,0.8,0.06c0.03,0.03,0.08,0.17,0.16,0.43
		c0.08,0.26,0.23,0.52,0.45,0.79c0.21,0.27,0.58,0.42,1.1,0.46c0.41,0.03,0.65,0.04,0.72,0.04c0.2,0,0.37-0.02,0.5-0.06
		c0.13-0.04,0.31-0.11,0.52-0.21c0.65-0.29,0.96-0.72,0.95-1.27c0.01-0.37-0.09-0.65-0.29-0.86c-0.21-0.2-0.47-0.34-0.79-0.41
		c-0.32-0.07-0.75-0.14-1.29-0.2c-0.39-0.04-0.71-0.08-0.95-0.11s-0.46-0.1-0.65-0.19c-0.66-0.22-1.16-0.55-1.51-1.02
		c-0.35-0.46-0.52-0.97-0.52-1.51c0-0.6,0.17-1.14,0.52-1.62c0.35-0.49,0.83-0.81,1.43-0.96c0.52-0.14,1.18-0.21,2-0.21
		c0.19,0,0.47,0.01,0.85,0.04c0.54,0.04,1.05,0.13,1.52,0.29c0.44,0.19,0.8,0.52,1.08,0.98C104.45,28.42,104.59,28.94,104.59,29.51z
		"/>
	<path d="M109.89,26.94c0.09-0.01,0.27-0.01,0.53,0c0.38,0.03,0.8,0.04,1.25,0.04v0.06c0,0.57-0.01,1.45-0.04,2.64
		c-0.04,1.22-0.06,2.45-0.06,3.69c0,1.17,0.03,2.2,0.08,3.12c-0.18,0.04-0.44,0.06-0.8,0.06c-0.36,0-0.57,0-0.65,0
		c-0.23,0-0.37,0.01-0.42,0.02c0.01-0.37,0.02-0.92,0.02-1.67v-1.71v-1.6c-0.03-0.89-0.04-1.57-0.04-2.05
		c0-0.87,0.04-1.73,0.11-2.57V26.94z M109.82,22.86c0.79,0.03,1.38,0.04,1.79,0.04l0.06,2.51c-0.13,0.06-0.35,0.09-0.68,0.09
		c-0.2,0-0.35-0.01-0.46-0.02c-0.08,0-0.17,0-0.27-0.01s-0.22,0-0.36,0.01c0-0.19-0.01-0.5-0.04-0.93
		C109.82,23.71,109.81,23.15,109.82,22.86z"/>
	<path d="M115.12,27.09c0.03,0.14,0.04,0.32,0.04,0.53v0.48c0.43-0.25,0.94-0.48,1.52-0.67c0.58-0.2,1.17-0.29,1.75-0.29
		c0.7,0.03,1.27,0.22,1.71,0.59c0.3,0.27,0.46,1.35,0.46,3.25c0,0.48-0.01,1.23-0.04,2.24c-0.03,0.96-0.04,1.66-0.04,2.09
		c0,0.56,0.01,0.96,0.02,1.2c-0.24,0.04-0.59,0.06-1.04,0.06h-0.63c-0.03-0.2-0.04-0.56-0.04-1.06v-0.82l0.02-1.22
		c0.03-0.82,0.03-1.41,0.02-1.77c0-0.08-0.02-0.34-0.05-0.78c-0.03-0.44-0.1-0.84-0.22-1.18c-0.04-0.44-0.35-0.65-0.93-0.61
		c-0.87,0.01-1.52,0.13-1.93,0.36c-0.41,0.23-0.64,0.64-0.69,1.23c-0.01,0.17-0.02,0.48-0.02,0.93c0,0.71,0.01,1.47,0.04,2.28
		c0.03,0.48,0.04,0.84,0.04,1.06c0,0.47-0.02,0.95-0.06,1.44v0.08c-0.24,0.05-0.48,0.07-0.71,0.07c-0.23-0.01-0.4-0.01-0.5-0.01
		c-0.2,0-0.36,0.01-0.47,0.02l-0.02-3.27c-0.03-1.49-0.04-2.62-0.04-3.36c0-0.61,0.01-1.57,0.04-2.89c0.15,0.01,0.33,0.02,0.53,0.02
		c0.2,0,0.37-0.01,0.49-0.02c0.08,0,0.17-0.01,0.27-0.02c0.1-0.01,0.2-0.02,0.3-0.02C115.05,27.04,115.12,27.06,115.12,27.09z"/>
	<path d="M128.65,23.52v2.91l0.02,1.06c0.82-0.03,1.84-0.07,3.06-0.13c0.08,0.1,0.11,0.29,0.11,0.57l-0.02,0.44
		c-0.03,0.28-0.03,0.48-0.02,0.61c-1.38,0-2.41-0.01-3.1-0.02v2.91v0.65c0,0.57,0.01,0.98,0.04,1.22c0.03,0.24,0.08,0.45,0.15,0.63
		c0.2,0.25,0.61,0.41,1.23,0.47s1.17,0.08,1.68,0.06c0.06,0.51,0.09,0.83,0.09,0.97c0,0.23-0.03,0.46-0.09,0.68
		c-0.27,0.01-0.68,0.02-1.25,0.02c-0.99,0-1.76-0.12-2.32-0.36s-0.91-0.72-1.06-1.44c-0.14-1.23-0.21-2.83-0.21-4.81v-0.91
		c-0.08,0.01-0.27,0.02-0.57,0.02l-1.44-0.02l0.06-1.56c0.28,0.03,0.94,0.04,1.99,0.04l-0.02-1.99v-0.89c0-0.53,0.01-0.91,0.04-1.12
		c0.18-0.01,0.45-0.01,0.82,0.02l0.51,0.02C128.48,23.54,128.58,23.54,128.65,23.52z"/>
	<path d="M134.46,26.35v1.69c0.34-0.29,0.64-0.51,0.9-0.66s0.64-0.24,1.15-0.28c0.3-0.04,0.59-0.06,0.85-0.06
		c0.92,0,1.65,0.22,2.17,0.67c0.17,0.14,0.28,0.47,0.34,0.99c0.06,0.52,0.09,1.2,0.09,2.05c0,0.48-0.01,1.24-0.04,2.28
		c-0.03,1.01-0.04,1.74-0.04,2.17c0,0.35,0.01,0.79,0.04,1.29c-0.51,0.08-1.05,0.1-1.63,0.08c-0.03-0.38-0.04-0.71-0.04-0.99v-1.14
		v-3.72c-0.03-0.81-0.22-1.34-0.57-1.58c-0.08-0.05-0.23-0.1-0.46-0.15c-0.27-0.08-0.54-0.11-0.82-0.11c-0.49,0-0.92,0.12-1.26,0.37
		c-0.35,0.25-0.57,0.63-0.67,1.15c-0.09,0.48-0.13,1.06-0.13,1.73l0.02,0.65c0.03,0.84,0.04,1.53,0.04,2.07
		c0,0.68-0.01,1.21-0.04,1.58v0.08c-0.25,0.06-0.46,0.09-0.61,0.09l-0.57-0.02c-0.18,0-0.32,0.01-0.44,0.02
		c0-1.46-0.01-2.66-0.02-3.61l-0.02-5.81c0-1.42,0.01-2.88,0.04-4.37c0.39,0.04,0.71,0.05,0.95,0.04c0.06,0,0.14-0.01,0.24-0.02
		c0.09-0.01,0.19-0.02,0.29-0.02c0.13,0,0.19,0.02,0.19,0.06c0.03,0.11,0.04,0.89,0.04,2.32V26.35z"/>
	<path d="M142.67,31.73v0.34l-0.02,0.55c0,1.57,0.77,2.36,2.32,2.36c0.62,0,1.08-0.14,1.38-0.43c0.3-0.29,0.45-0.67,0.45-1.17
		c0-0.08-0.01-0.21-0.04-0.42c0.27-0.04,0.51-0.06,0.74-0.06c0.2,0,0.35,0.01,0.46,0.02c0.08,0,0.17,0,0.28,0.01
		c0.11,0.01,0.23,0,0.37-0.01c0.01,0.72-0.01,1.3-0.08,1.73s-0.21,0.84-0.46,1.23c-0.23,0.34-0.62,0.59-1.19,0.73
		s-1.18,0.22-1.85,0.22c-0.3,0-0.59-0.01-0.84-0.04c-0.26-0.03-0.42-0.05-0.48-0.08c-0.99-0.17-1.7-0.79-2.15-1.87
		s-0.63-2.32-0.57-3.71c0.01-0.1,0.03-0.31,0.06-0.64c0.03-0.32,0.06-0.66,0.1-1c0.04-0.34,0.13-0.68,0.26-1.01
		c0.24-0.56,0.68-0.99,1.31-1.29c0.63-0.3,1.34-0.46,2.11-0.46c0.41,0,0.83,0.05,1.27,0.15c1.72,0.29,2.58,1.59,2.58,3.89
		c0,0.19-0.01,0.46-0.04,0.82c-0.24,0.08-0.95,0.14-2.13,0.19c-0.14,0.01-0.44,0.02-0.91,0.02c-1,0-1.74-0.01-2.22-0.04
		C143.05,31.79,142.82,31.77,142.67,31.73z M147.29,30.3c-0.01-0.39-0.11-0.78-0.29-1.16c-0.18-0.38-0.45-0.68-0.79-0.89
		c-0.19-0.09-0.36-0.15-0.49-0.17c-0.14-0.03-0.32-0.04-0.53-0.04c-0.82,0-1.41,0.17-1.76,0.51c-0.35,0.34-0.57,0.83-0.66,1.46
		c-0.03,0.15-0.04,0.25-0.04,0.3c0,0.15,0.07,0.25,0.22,0.3c0.15,0.05,0.46,0.08,0.94,0.08c0.47,0,0.87-0.01,1.2-0.02
		c1.22,0,1.9-0.01,2.05-0.02c0.06-0.01,0.1-0.03,0.12-0.05c0.02-0.02,0.03-0.05,0.03-0.1V30.3z"/>
	<path d="M159.2,32.81c0.15,0.03,0.29,0.04,0.42,0.04l0.67-0.02c0.2,0,0.38,0.02,0.53,0.06c-0.06,0.87-0.13,1.55-0.2,2.03
		c-0.07,0.48-0.18,0.8-0.33,0.95c-0.24,0.34-0.57,0.58-1,0.7c-0.42,0.13-0.93,0.19-1.51,0.19c-0.23,0-0.57-0.01-1.03-0.04
		l-0.87-0.02c-0.75-0.13-1.3-0.41-1.67-0.85c-0.37-0.44-0.61-0.95-0.71-1.55c-0.11-0.6-0.18-1.38-0.22-2.36
		c0-0.71-0.01-1.23-0.02-1.56c0-0.75,0.14-1.58,0.42-2.49c0.17-0.37,0.52-0.64,1.05-0.83s1.14-0.28,1.8-0.28
		c0.1,0.01,0.25,0.02,0.44,0.02c0.11,0,0.26,0,0.43-0.01c0.17-0.01,0.38,0,0.62,0.01c0.95,0.09,1.65,0.35,2.11,0.8
		c0.29,0.2,0.48,0.53,0.56,0.97c0.08,0.44,0.14,1.11,0.16,2l0.02,0.46c-0.19,0.04-0.38,0.06-0.57,0.06c-0.33,0-0.67-0.03-1.01-0.1
		c-0.01-0.9-0.17-1.51-0.48-1.84c-0.31-0.33-0.8-0.49-1.47-0.49c-0.14,0-0.39,0.01-0.74,0.04c-0.33,0.01-0.59,0.04-0.77,0.09
		c-0.18,0.05-0.34,0.17-0.48,0.36c-0.14,0.19-0.24,0.48-0.3,0.87c-0.04,0.27-0.06,0.74-0.06,1.42v1.52c-0.03,0.42,0.08,0.85,0.3,1.3
		c0.23,0.45,0.68,0.71,1.37,0.77c0.13,0.01,0.3,0.02,0.51,0.02c0.59,0,1.04-0.11,1.33-0.34c0.29-0.23,0.48-0.49,0.56-0.79
		C159.12,33.65,159.17,33.27,159.2,32.81z"/>
	<path d="M167.94,27c0.29-0.01,0.67,0,1.12,0.04l0.49,0.04c0.03,0.2,0.04,0.35,0.04,0.46v0.19c-0.01,0.29-0.02,0.73-0.02,1.31
		c0,0.48,0.01,1.19,0.04,2.13l0.02,2.13c0,0.91-0.03,1.74-0.08,2.49c0,0.04,0,0.12,0,0.25c0,0.13-0.01,0.24-0.04,0.34
		c-0.03,0.1-0.1,0.17-0.21,0.19h-0.32l-0.61-0.02c-0.1,0-0.19,0.01-0.27,0.02s-0.15,0.02-0.21,0.02c-0.13-0.04-0.19-0.18-0.19-0.42
		c-0.01-0.1-0.01-0.22,0.01-0.34c0.02-0.13,0.03-0.23,0.03-0.32c-0.3,0.42-0.79,0.7-1.44,0.85c-0.66,0.15-1.3,0.23-1.94,0.23
		c-0.61,0-1.12-0.27-1.55-0.81c-0.42-0.54-0.74-1.2-0.94-1.99c-0.2-0.79-0.3-1.55-0.3-2.3c0-0.82,0.14-1.56,0.42-2.22
		c0.28-0.66,0.66-1.18,1.15-1.57c0.49-0.39,1.03-0.59,1.62-0.6l0.61-0.02c0.57,0,1.04,0.07,1.42,0.2c0.37,0.13,0.65,0.38,0.83,0.73
		c0-0.11,0.01-0.26,0.04-0.44c0.03-0.25,0.04-0.43,0.04-0.53C167.69,27.01,167.77,27,167.94,27z M165.81,28.71
		c-0.66-0.01-1.21,0.16-1.66,0.5s-0.72,0.76-0.83,1.24c-0.1,0.37-0.15,0.86-0.15,1.48c0.06,2.04,0.89,3.01,2.47,2.93
		c0.65,0,1.12-0.11,1.41-0.34c0.29-0.23,0.47-0.55,0.54-0.97c0.07-0.42,0.1-1.04,0.1-1.88c0-0.91-0.04-1.55-0.11-1.93
		c-0.08-0.37-0.24-0.63-0.48-0.77C166.85,28.84,166.42,28.75,165.81,28.71z"/>
	<path d="M170.46,27.04c0.19,0.03,0.46,0.04,0.8,0.04c0.11,0,0.25,0,0.41-0.01c0.16-0.01,0.33,0,0.52,0.01
		c0.2,0.71,0.58,2.06,1.12,4.05c0.27,1,0.46,1.72,0.59,2.17c0.13,0.44,0.28,0.87,0.46,1.29c0.11-0.28,0.25-0.7,0.42-1.27
		c0.16-0.57,0.27-0.94,0.32-1.12c0.62-2.12,1.15-3.81,1.6-5.07c0.11,0,0.3-0.01,0.55-0.04c0.46-0.03,0.84-0.03,1.14-0.02
		c-0.25,0.67-0.49,1.37-0.7,2.08c-0.22,0.72-0.42,1.42-0.61,2.12c-0.61,2.1-1.15,3.86-1.63,5.26c-0.2,0.04-0.53,0.06-0.97,0.06
		l-1.37-0.02c-0.56-1.77-0.97-3.12-1.23-4.04c-0.26-0.92-0.52-1.93-0.79-3.03L170.46,27.04z"/>
	<path d="M180.25,31.73v0.34l-0.02,0.55c0,1.57,0.77,2.36,2.32,2.36c0.62,0,1.08-0.14,1.38-0.43c0.3-0.29,0.45-0.67,0.45-1.17
		c0-0.08-0.01-0.21-0.04-0.42c0.27-0.04,0.51-0.06,0.74-0.06c0.2,0,0.35,0.01,0.46,0.02c0.08,0,0.17,0,0.28,0.01
		c0.11,0.01,0.23,0,0.37-0.01c0.01,0.72-0.01,1.3-0.08,1.73s-0.21,0.84-0.46,1.23c-0.23,0.34-0.62,0.59-1.19,0.73
		s-1.18,0.22-1.85,0.22c-0.3,0-0.59-0.01-0.84-0.04c-0.26-0.03-0.42-0.05-0.48-0.08c-0.99-0.17-1.7-0.79-2.15-1.87
		s-0.63-2.32-0.57-3.71c0.01-0.1,0.03-0.31,0.06-0.64c0.03-0.32,0.06-0.66,0.1-1c0.04-0.34,0.13-0.68,0.26-1.01
		c0.24-0.56,0.68-0.99,1.31-1.29c0.63-0.3,1.34-0.46,2.11-0.46c0.41,0,0.83,0.05,1.27,0.15c1.72,0.29,2.58,1.59,2.58,3.89
		c0,0.19-0.01,0.46-0.04,0.82c-0.24,0.08-0.95,0.14-2.13,0.19c-0.14,0.01-0.44,0.02-0.91,0.02c-1,0-1.74-0.01-2.22-0.04
		C180.64,31.79,180.4,31.77,180.25,31.73z M184.87,30.3c-0.01-0.39-0.11-0.78-0.29-1.16c-0.18-0.38-0.45-0.68-0.79-0.89
		c-0.19-0.09-0.36-0.15-0.49-0.17c-0.14-0.03-0.32-0.04-0.53-0.04c-0.82,0-1.41,0.17-1.76,0.51c-0.35,0.34-0.57,0.83-0.66,1.46
		c-0.03,0.15-0.04,0.25-0.04,0.3c0,0.15,0.07,0.25,0.22,0.3c0.15,0.05,0.46,0.08,0.94,0.08c0.47,0,0.87-0.01,1.2-0.02
		c1.22,0,1.9-0.01,2.05-0.02c0.06-0.01,0.1-0.03,0.12-0.05c0.02-0.02,0.03-0.05,0.03-0.1V30.3z"/>
	<path d="M57.2,49.8c0.29-0.01,0.67,0,1.12,0.04l0.49,0.04c0.03,0.2,0.04,0.35,0.04,0.46v0.19c-0.01,0.29-0.02,0.73-0.02,1.31
		c0,0.48,0.01,1.19,0.04,2.13l0.02,2.13c0,0.91-0.03,1.74-0.08,2.49c0,0.04,0,0.12,0,0.25c0,0.13-0.01,0.24-0.04,0.34
		c-0.03,0.1-0.1,0.17-0.21,0.19h-0.32l-0.61-0.02c-0.1,0-0.19,0.01-0.27,0.02s-0.15,0.02-0.21,0.02c-0.13-0.04-0.19-0.18-0.19-0.42
		c-0.01-0.1-0.01-0.22,0.01-0.34c0.02-0.13,0.03-0.23,0.03-0.32c-0.3,0.42-0.79,0.7-1.44,0.85c-0.66,0.15-1.3,0.23-1.94,0.23
		c-0.61,0-1.12-0.27-1.55-0.81c-0.42-0.54-0.74-1.2-0.94-1.99c-0.2-0.79-0.3-1.55-0.3-2.3c0-0.82,0.14-1.56,0.42-2.22
		c0.28-0.66,0.66-1.18,1.15-1.57c0.49-0.39,1.03-0.59,1.62-0.6l0.61-0.02c0.57,0,1.04,0.07,1.42,0.2c0.37,0.13,0.65,0.38,0.83,0.73
		c0-0.11,0.01-0.26,0.04-0.44c0.03-0.25,0.04-0.43,0.04-0.53C56.95,49.81,57.03,49.8,57.2,49.8z M55.07,51.51
		c-0.66-0.01-1.21,0.16-1.66,0.5s-0.72,0.76-0.83,1.24c-0.1,0.37-0.15,0.86-0.15,1.48c0.06,2.04,0.89,3.01,2.47,2.93
		c0.65,0,1.12-0.11,1.41-0.34c0.29-0.23,0.47-0.55,0.54-0.97c0.07-0.42,0.1-1.04,0.1-1.88c0-0.91-0.04-1.55-0.11-1.93
		c-0.08-0.37-0.24-0.63-0.48-0.77C56.11,51.64,55.68,51.55,55.07,51.51z"/>
	<path d="M59.73,49.84c0.19,0.03,0.46,0.04,0.8,0.04c0.11,0,0.25,0,0.41-0.01c0.16-0.01,0.33,0,0.52,0.01
		c0.2,0.71,0.58,2.06,1.12,4.05c0.27,1,0.46,1.72,0.59,2.17c0.13,0.44,0.28,0.87,0.46,1.29c0.11-0.28,0.25-0.7,0.42-1.27
		c0.16-0.57,0.27-0.94,0.32-1.12c0.62-2.12,1.15-3.81,1.6-5.07c0.11,0,0.3-0.01,0.55-0.04c0.46-0.03,0.84-0.03,1.14-0.02
		c-0.25,0.67-0.49,1.37-0.7,2.08c-0.22,0.72-0.42,1.42-0.61,2.12c-0.61,2.1-1.15,3.86-1.63,5.26c-0.2,0.04-0.53,0.06-0.97,0.06
		l-1.37-0.02c-0.56-1.77-0.97-3.12-1.23-4.04c-0.26-0.92-0.52-1.93-0.79-3.03L59.73,49.84z"/>
	<path d="M69.51,54.53v0.34l-0.02,0.55c0,1.57,0.77,2.36,2.32,2.36c0.62,0,1.08-0.14,1.38-0.43s0.45-0.67,0.45-1.17
		c0-0.08-0.01-0.21-0.04-0.42c0.27-0.04,0.51-0.06,0.74-0.06c0.2,0,0.35,0.01,0.46,0.02c0.08,0,0.17,0,0.28,0.01
		c0.11,0.01,0.23,0,0.37-0.01c0.01,0.72-0.01,1.3-0.08,1.73s-0.22,0.84-0.46,1.23c-0.23,0.34-0.62,0.59-1.19,0.73
		s-1.18,0.22-1.85,0.22c-0.3,0-0.59-0.01-0.85-0.04s-0.42-0.05-0.48-0.08c-0.99-0.17-1.7-0.79-2.15-1.87
		c-0.44-1.08-0.63-2.32-0.57-3.71c0.01-0.1,0.03-0.31,0.06-0.64c0.03-0.32,0.06-0.66,0.1-1s0.13-0.68,0.26-1.01
		c0.24-0.56,0.68-0.99,1.31-1.29c0.63-0.3,1.34-0.46,2.11-0.46c0.41,0,0.83,0.05,1.27,0.15c1.72,0.29,2.58,1.59,2.58,3.89
		c0,0.19-0.01,0.46-0.04,0.82c-0.24,0.08-0.95,0.14-2.13,0.19c-0.14,0.01-0.44,0.02-0.91,0.02c-1,0-1.74-0.01-2.22-0.04
		C69.9,54.59,69.66,54.57,69.51,54.53z M74.13,53.1c-0.01-0.39-0.11-0.78-0.29-1.16c-0.18-0.38-0.45-0.68-0.79-0.89
		c-0.19-0.09-0.35-0.15-0.49-0.17s-0.32-0.04-0.53-0.04c-0.82,0-1.41,0.17-1.76,0.51c-0.35,0.34-0.57,0.83-0.66,1.46
		c-0.03,0.15-0.04,0.25-0.04,0.3c0,0.15,0.07,0.25,0.22,0.3c0.14,0.05,0.46,0.08,0.94,0.08c0.47,0,0.87-0.01,1.2-0.02
		c1.22,0,1.9-0.01,2.05-0.02c0.06-0.01,0.1-0.03,0.12-0.05c0.02-0.02,0.03-0.05,0.03-0.1V53.1z"/>
	<path d="M78.27,49.89c0,0.15,0,0.27,0.01,0.35c0.01,0.08,0.01,0.18,0.01,0.29c0.09-0.05,0.21-0.11,0.37-0.17s0.33-0.13,0.52-0.19
		c0.29-0.1,0.64-0.17,1.05-0.22c0.41-0.04,0.78-0.07,1.11-0.07c0.3,0,0.46,0.01,0.46,0.04l-0.02,1.58c0,0.25,0.01,0.44,0.02,0.57
		c-0.19-0.08-0.41-0.15-0.65-0.21c-0.28-0.06-0.58-0.09-0.91-0.09c-0.34,0-0.73,0.05-1.16,0.15c-0.36,0.09-0.6,0.22-0.72,0.4
		c-0.13,0.18-0.18,0.51-0.17,1.01c0.05,1.74,0.08,3.71,0.08,5.91v0.08c-0.22,0.05-0.44,0.08-0.67,0.08c-0.09,0-0.23,0-0.43-0.01
		c-0.2-0.01-0.4,0-0.6,0.01l-0.02-3.27c-0.03-1.49-0.04-2.62-0.04-3.36c0-0.61,0.01-1.57,0.04-2.89c0.13,0.01,0.26,0.02,0.41,0.01
		c0.15-0.01,0.28-0.01,0.39-0.01c0.15-0.01,0.35-0.02,0.61-0.02C78.17,49.86,78.27,49.87,78.27,49.89z"/>
	<path d="M89.02,49.8c0.29-0.01,0.67,0,1.12,0.04l0.49,0.04c0.03,0.2,0.04,0.35,0.04,0.46v0.19c-0.01,0.29-0.02,0.73-0.02,1.31
		c0,0.48,0.01,1.19,0.04,2.13l0.02,2.13c0,0.91-0.03,1.74-0.08,2.49c0,0.04,0,0.12,0,0.25c0,0.13-0.01,0.24-0.04,0.34
		s-0.09,0.17-0.21,0.19h-0.32l-0.61-0.02c-0.1,0-0.19,0.01-0.27,0.02s-0.15,0.02-0.21,0.02c-0.13-0.04-0.19-0.18-0.19-0.42
		c-0.01-0.1-0.01-0.22,0.01-0.34c0.02-0.13,0.03-0.23,0.03-0.32c-0.3,0.42-0.79,0.7-1.44,0.85c-0.66,0.15-1.3,0.23-1.94,0.23
		c-0.61,0-1.12-0.27-1.55-0.81c-0.42-0.54-0.74-1.2-0.94-1.99c-0.2-0.79-0.3-1.55-0.3-2.3c0-0.82,0.14-1.56,0.42-2.22
		c0.28-0.66,0.66-1.18,1.15-1.57c0.49-0.39,1.03-0.59,1.62-0.6l0.61-0.02c0.57,0,1.04,0.07,1.42,0.2s0.65,0.38,0.83,0.73
		c0-0.11,0.01-0.26,0.04-0.44c0.03-0.25,0.04-0.43,0.04-0.53C88.78,49.81,88.86,49.8,89.02,49.8z M86.9,51.51
		c-0.66-0.01-1.21,0.16-1.66,0.5c-0.45,0.35-0.73,0.76-0.83,1.24c-0.1,0.37-0.15,0.86-0.15,1.48c0.06,2.04,0.89,3.01,2.47,2.93
		c0.65,0,1.11-0.11,1.41-0.34c0.29-0.23,0.47-0.55,0.54-0.97s0.1-1.04,0.1-1.88c0-0.91-0.04-1.55-0.11-1.93
		c-0.08-0.37-0.24-0.63-0.49-0.77C87.93,51.64,87.5,51.55,86.9,51.51z"/>
	<path d="M99.3,61.81c-0.24,0.54-0.54,0.91-0.91,1.08s-0.79,0.29-1.27,0.32c-0.56,0.03-0.91,0.04-1.04,0.04
		c-0.24,0-0.55-0.01-0.93-0.04c-0.84-0.06-1.54-0.34-2.11-0.84c-0.57-0.49-0.85-1.12-0.85-1.86c0-0.16,0.01-0.29,0.02-0.38
		c0.06-0.03,0.23-0.05,0.51-0.07c0.28-0.02,0.54-0.03,0.8-0.03c0.21,0,0.33,0.01,0.36,0.04c0.01,0.03,0.02,0.12,0.02,0.29
		c0,0.33,0.08,0.62,0.23,0.87c0.15,0.25,0.48,0.42,0.97,0.49c0.25,0.01,0.58,0.02,0.99,0.02c0.53,0,0.92-0.03,1.17-0.09
		c0.25-0.06,0.41-0.16,0.47-0.3s0.09-0.36,0.07-0.66V60v-0.63c0-0.06,0-0.13,0.01-0.21c0.01-0.08,0.02-0.18,0.03-0.32
		c-0.21,0.25-0.46,0.41-0.75,0.46s-0.81,0.08-1.59,0.08h-0.72c-1.27,0-2.09-0.4-2.47-1.2c-0.32-0.59-0.49-1.34-0.53-2.22
		c0-1.18,0.05-2.15,0.14-2.93c0.09-0.77,0.37-1.47,0.84-2.1c0.46-0.63,1.19-0.97,2.19-1.04c0.66-0.01,1.17,0.01,1.53,0.07
		c0.36,0.06,0.63,0.16,0.81,0.29s0.32,0.34,0.44,0.59c0.04-0.18,0.06-0.34,0.06-0.49c0-0.08,0-0.15-0.01-0.24
		c-0.01-0.08,0-0.16,0.01-0.24c0.33-0.03,0.58-0.04,0.74-0.04l0.99,0.02c0.05,1.47,0.08,3.19,0.08,5.17c0,1.96-0.03,3.67-0.09,5.13
		c0,0.13,0,0.3-0.01,0.51c-0.01,0.21-0.02,0.42-0.04,0.62C99.41,61.48,99.37,61.66,99.3,61.81z M93.24,54.81v0.23
		c-0.04,0.68,0.08,1.32,0.34,1.92c0.27,0.6,0.76,0.91,1.48,0.95c0.19,0.01,0.45,0.02,0.78,0.02c0.68,0,1.17-0.12,1.47-0.36
		c0.3-0.24,0.46-0.71,0.5-1.41c0-0.9-0.01-1.62-0.02-2.17c0-1.28-0.29-2.07-0.86-2.38c-0.27-0.15-0.63-0.23-1.1-0.23
		c-0.25,0-0.5,0.02-0.74,0.06c-0.71,0.13-1.2,0.48-1.46,1.07S93.24,53.88,93.24,54.81z"/>
	<path d="M102.3,54.53v0.34l-0.02,0.55c0,1.57,0.77,2.36,2.32,2.36c0.62,0,1.08-0.14,1.38-0.43c0.3-0.29,0.45-0.67,0.45-1.17
		c0-0.08-0.01-0.21-0.04-0.42c0.27-0.04,0.51-0.06,0.74-0.06c0.2,0,0.35,0.01,0.46,0.02c0.08,0,0.17,0,0.28,0.01
		c0.11,0.01,0.23,0,0.37-0.01c0.01,0.72-0.01,1.3-0.08,1.73s-0.21,0.84-0.46,1.23c-0.23,0.34-0.62,0.59-1.19,0.73
		s-1.18,0.22-1.85,0.22c-0.3,0-0.59-0.01-0.84-0.04c-0.26-0.03-0.42-0.05-0.48-0.08c-0.99-0.17-1.7-0.79-2.15-1.87
		s-0.63-2.32-0.57-3.71c0.01-0.1,0.03-0.31,0.06-0.64c0.03-0.32,0.06-0.66,0.1-1c0.04-0.34,0.13-0.68,0.26-1.01
		c0.24-0.56,0.68-0.99,1.31-1.29c0.63-0.3,1.34-0.46,2.11-0.46c0.41,0,0.83,0.05,1.27,0.15c1.72,0.29,2.58,1.59,2.58,3.89
		c0,0.19-0.01,0.46-0.04,0.82c-0.24,0.08-0.95,0.14-2.13,0.19c-0.14,0.01-0.44,0.02-0.91,0.02c-1,0-1.74-0.01-2.22-0.04
		C102.69,54.59,102.46,54.57,102.3,54.53z M106.92,53.1c-0.01-0.39-0.11-0.78-0.29-1.16c-0.18-0.38-0.45-0.68-0.79-0.89
		c-0.19-0.09-0.36-0.15-0.49-0.17c-0.14-0.03-0.32-0.04-0.53-0.04c-0.82,0-1.41,0.17-1.76,0.51c-0.35,0.34-0.57,0.83-0.66,1.46
		c-0.03,0.15-0.04,0.25-0.04,0.3c0,0.15,0.07,0.25,0.22,0.3c0.15,0.05,0.46,0.08,0.94,0.08c0.47,0,0.87-0.01,1.2-0.02
		c1.22,0,1.9-0.01,2.05-0.02c0.06-0.01,0.1-0.03,0.12-0.05c0.02-0.02,0.03-0.05,0.03-0.1V53.1z"/>
	<path d="M119.76,53.18l0.11-0.02c0.2-0.01,0.42-0.01,0.67,0.01c0.24,0.02,0.41,0.03,0.49,0.03l-0.11,1.94
		c-0.15,0.04-0.32,0.06-0.51,0.06c-0.06,0-0.15,0-0.26-0.01s-0.24,0-0.39,0.01l-0.04,0.34c-0.05,1.05-0.08,1.63-0.08,1.73
		c-0.03,0.37-0.04,0.75-0.06,1.14s-0.03,0.68-0.06,0.85c-0.05,0.06-0.22,0.1-0.49,0.11s-0.79,0.02-1.52,0.02l-0.02-0.19
		c0-0.1,0.03-0.51,0.08-1.22l0.11-2l0.04-0.93c-0.13-0.02-0.32-0.04-0.59-0.04h-0.72c-0.92,0-1.57,0.01-1.94,0.02
		c-1.08,0-1.63-0.02-1.65-0.06c-0.06-0.35-0.09-0.75-0.09-1.2c0-0.29,0.01-0.51,0.02-0.67c0.53-0.71,1.08-1.49,1.64-2.34
		s0.92-1.37,1.05-1.58c0.58-0.9,1.3-1.97,2.15-3.21c0.2-0.01,0.54-0.03,1.03-0.04s0.85-0.01,1.12,0h0.11h0.04
		c0,0.08-0.02,0.73-0.07,1.95c-0.04,1.22-0.07,2.44-0.08,3.64v1.16C119.75,52.97,119.75,53.13,119.76,53.18z M118.05,53.18
		c0.05-2.25,0.1-3.95,0.13-5.07c-0.01-0.05-0.08,0.01-0.22,0.18s-0.31,0.42-0.54,0.75c-0.75,1.09-1.4,2.01-1.96,2.77
		c-0.58,0.84-0.89,1.29-0.93,1.37c-0.03,0.01,0.16,0.02,0.55,0.02l0.68,0.02h1.29l0.49-0.02C117.84,53.2,118,53.19,118.05,53.18z"/>
	<path d="M122.18,55.23l1.88-0.04v0.02c0,0.52,0.04,0.93,0.11,1.24c0.08,0.3,0.25,0.55,0.51,0.73s0.68,0.28,1.24,0.28
		c0.92,0,1.58-0.28,1.98-0.85s0.57-1.24,0.53-2.02c-0.05-0.89-0.29-1.5-0.7-1.84s-1.08-0.51-1.98-0.51c-0.77,0-1.7,0.03-2.77,0.1
		c-0.57,0-0.86-0.01-0.86-0.04c-0.06-0.65-0.09-1.59-0.09-2.83l0.02-3.34h0.02l0.91-0.02c3.23-0.08,5.37-0.11,6.42-0.11
		c0.46,0,0.71,0.01,0.76,0.02c0.01,0.01,0.02,0.13,0.02,0.36c0,0.3-0.01,0.6-0.02,0.89c-0.01,0.29-0.02,0.49-0.02,0.59
		c-0.3,0.05-1.19,0.09-2.67,0.11s-2.62,0.04-3.45,0.04L124,48.03v0.02c0,0.01,0.01,0.1,0.02,0.26s0.03,0.42,0.04,0.77
		c0.01,0.15,0.02,0.35,0.02,0.59c0,0.06,0.01,0.18,0.02,0.36c0.01,0.18,0.03,0.28,0.06,0.32l0.04,0.04h0.02
		c0.67-0.08,1.28-0.11,1.82-0.11c0.44,0,0.77,0.01,0.99,0.04c2.27,0.24,3.4,1.79,3.4,4.64c0,0.54-0.04,1.16-0.13,1.84
		c-0.13,0.56-0.41,1.04-0.85,1.45c-0.44,0.41-0.97,0.73-1.6,0.94c-0.63,0.22-1.28,0.32-1.95,0.32c-1.08,0-1.99-0.26-2.73-0.79
		c-0.74-0.53-1.11-1.29-1.11-2.29c0-0.35,0.04-0.74,0.11-1.16V55.23z"/>
	<path d="M134.57,51.62c-0.35,0.06-0.68,0.09-0.97,0.09c-0.41,0-0.8-0.06-1.18-0.17c-0.43-0.21-0.71-0.47-0.84-0.78
		c-0.05-0.14-0.09-0.32-0.11-0.55c-0.01-0.11-0.03-0.28-0.04-0.48c-0.01-0.21-0.02-0.4-0.02-0.56c0-0.37,0.04-0.7,0.11-1.01
		c0.1-0.3,0.28-0.55,0.53-0.75c0.25-0.2,0.56-0.33,0.91-0.39l0.25-0.02c0.19-0.01,0.44-0.02,0.74-0.02c0.32,0,0.58,0.03,0.78,0.09
		l0.34,0.13c0.19,0.06,0.37,0.17,0.53,0.32c0.24,0.19,0.39,0.49,0.46,0.89c0.03,0.11,0.04,0.28,0.04,0.49v0.34
		c0,1.23-0.39,1.98-1.16,2.26C134.84,51.57,134.72,51.6,134.57,51.62z M134.72,47.94c-0.24-0.08-0.55-0.11-0.93-0.11
		c-0.34,0-0.64,0.03-0.89,0.08c-0.33,0.11-0.53,0.35-0.61,0.7c-0.03,0.28-0.04,0.49-0.04,0.63l0.02,0.8c0,0.23,0.06,0.42,0.19,0.58
		s0.3,0.25,0.51,0.28c0.48,0.03,0.9,0.01,1.25-0.04c0.04,0,0.07-0.01,0.09-0.02s0.06-0.02,0.09-0.02h0.02
		c0.25-0.03,0.43-0.11,0.53-0.26s0.18-0.35,0.23-0.6c0.03-0.1,0.04-0.22,0.06-0.36s0.03-0.26,0.04-0.36
		c0.03-0.15,0.04-0.27,0.04-0.34c0-0.27-0.08-0.49-0.25-0.67C134.96,48.08,134.84,47.99,134.72,47.94z"/>
	<path d="M139.11,59.34l-1.44-0.02h-0.06c-0.04-0.23-0.06-0.52-0.06-0.87l0.02-0.93c0.01-0.11,0.02-0.25,0.02-0.4
		c0.23-0.09,0.53-0.13,0.91-0.13c0.35,0,0.61,0.03,0.76,0.1c0,0.06-0.02,0.41-0.06,1.03c-0.04,0.62-0.06,1.02-0.06,1.2v0.04H139.11z
		"/>
	<path d="M23.62,68.82c0.41,0.1,0.79,0.3,1.17,0.59c0.37,0.29,0.67,0.63,0.9,1.01c0.37,0.59,0.67,1.24,0.9,1.94
		c0.23,0.7,0.37,1.38,0.41,2.05l-0.04,0.86c-0.03,1.14-0.1,2.05-0.23,2.72c0,0.04-0.04,0.13-0.1,0.29s-0.14,0.31-0.2,0.47
		c-0.19,0.44-0.48,0.97-0.87,1.57c-0.39,0.6-0.81,1.18-1.25,1.74c-1.12,0.04-2.78,0.06-5,0.06l-0.02,0.02
		c-0.21-1.56-0.32-3.59-0.32-6.1c0-1.13,0.01-1.98,0.02-2.55L19,70.91c0-0.81-0.01-1.42-0.02-1.82l0.06-0.08
		c0.56-0.14,1.27-0.21,2.15-0.21c0.42,0,0.73,0.01,0.93,0.02C22.62,68.83,23.12,68.83,23.62,68.82z M21.91,79.69
		c0.62-0.01,1.07-0.05,1.34-0.1c0.27-0.06,0.48-0.15,0.62-0.28c0.14-0.13,0.34-0.37,0.61-0.72c0.37-0.48,0.65-1.29,0.84-2.41
		c0.03-0.3,0.04-0.53,0.04-0.68c0-0.15-0.01-0.38-0.04-0.68c-0.06-0.67-0.2-1.27-0.42-1.79c-0.22-0.52-0.47-0.93-0.76-1.24
		c-0.29-0.3-0.58-0.48-0.86-0.53c-0.33-0.03-0.54-0.04-0.65-0.04c-0.34-0.03-0.95,0-1.82,0.08h-0.1c0.05,0.35,0.08,1.03,0.08,2.01
		c0,0.81-0.01,1.5-0.04,2.05l-0.02,0.67c0,0.22,0.01,0.7,0.04,1.46l0.09,2.09C20.96,79.65,21.31,79.69,21.91,79.69z"/>
	<path d="M27.83,75.96c0-0.47,0.02-0.87,0.07-1.22c0.04-0.34,0.16-0.77,0.33-1.27c0.16-0.37,0.52-0.64,1.05-0.83
		c0.54-0.18,1.14-0.28,1.79-0.28c0.09,0.01,0.22,0.02,0.38,0.02l0.76-0.02c1.06,0,1.88,0.28,2.45,0.84c0.23,0.15,0.4,0.44,0.52,0.85
		c0.12,0.42,0.19,0.98,0.22,1.68s0.04,1.11,0.04,1.23c-0.05,1.27-0.11,2.27-0.18,3.02c-0.07,0.75-0.21,1.23-0.43,1.44
		c-0.24,0.34-0.57,0.58-1,0.7c-0.42,0.13-0.93,0.19-1.51,0.19c-0.23,0-0.57-0.01-1.03-0.04l-0.87-0.02
		c-0.75-0.13-1.31-0.4-1.68-0.82c-0.37-0.42-0.61-0.91-0.72-1.46c-0.11-0.56-0.16-1.23-0.16-2.01v-0.99
		C27.87,76.52,27.86,76.18,27.83,75.96z M31.71,74.16c-0.86,0-1.48,0.22-1.86,0.67c-0.17,0.2-0.27,0.46-0.31,0.77
		c-0.04,0.31-0.06,0.71-0.05,1.21c-0.01,0.19-0.01,0.44,0.01,0.76c0.02,0.32,0.03,0.56,0.03,0.74l0.04,0.8
		c0.04,0.51,0.18,0.86,0.43,1.07c0.25,0.21,0.56,0.35,0.94,0.43c0.25,0.04,0.51,0.06,0.78,0.06c0.49,0,0.92-0.09,1.29-0.27
		c0.37-0.18,0.6-0.47,0.7-0.87c0.05-0.33,0.08-0.59,0.08-0.78c0.06-0.89,0.09-1.49,0.09-1.8c0-0.84-0.15-1.51-0.46-2.01
		C33.12,74.41,32.55,74.16,31.71,74.16z"/>
	<path d="M39.41,72.64c0.22,0.01,0.54,0.02,0.99,0.02c0.43,0,0.73,0.01,0.91,0.04l0.68,2.6c0.47,1.79,0.83,3.13,1.08,4.04
		c0.25,0.91,0.46,1.51,0.63,1.81c0.19-0.23,0.41-0.85,0.67-1.86c0.25-1.01,0.56-2.36,0.91-4.03c0.04-0.15,0.13-0.58,0.28-1.27
		c0.15-0.7,0.25-1.13,0.31-1.29l0.74-0.02c0.46-0.03,0.83-0.03,1.12-0.02c-0.13,0.46-0.35,1.38-0.68,2.77l-0.34,1.42
		c-0.05,0.17-0.16,0.69-0.34,1.58c-0.33,1.53-0.67,2.76-1.04,3.7c-0.36,0.93-0.97,1.73-1.83,2.39s-2.06,1-3.61,1
		c-0.28,0-0.49-0.01-0.65-0.02c-0.1-0.27-0.15-0.6-0.15-0.99c0-0.29,0.03-0.53,0.08-0.72c0.41,0.03,0.7,0.04,0.87,0.04
		c1.44,0,2.17-0.37,2.17-1.12c0-0.06-0.01-0.16-0.04-0.29l-1.35-4.77C40.37,76.13,39.9,74.46,39.41,72.64z"/>
	<path d="M48.11,75.96c0-0.47,0.02-0.87,0.07-1.22c0.04-0.34,0.15-0.77,0.33-1.27c0.17-0.37,0.52-0.64,1.05-0.83s1.14-0.28,1.8-0.28
		c0.09,0.01,0.21,0.02,0.38,0.02l0.76-0.02c1.06,0,1.88,0.28,2.45,0.84c0.23,0.15,0.4,0.44,0.52,0.85c0.12,0.42,0.19,0.98,0.22,1.68
		c0.02,0.7,0.04,1.11,0.04,1.23c-0.05,1.27-0.11,2.27-0.18,3.02c-0.07,0.75-0.21,1.23-0.43,1.44c-0.24,0.34-0.57,0.58-1,0.7
		c-0.42,0.13-0.93,0.19-1.51,0.19c-0.23,0-0.57-0.01-1.03-0.04l-0.87-0.02c-0.75-0.13-1.31-0.4-1.68-0.82
		c-0.37-0.42-0.61-0.91-0.72-1.46c-0.11-0.56-0.16-1.23-0.16-2.01v-0.99C48.15,76.52,48.13,76.18,48.11,75.96z M51.98,74.16
		c-0.86,0-1.48,0.22-1.86,0.67c-0.17,0.2-0.27,0.46-0.31,0.77c-0.04,0.31-0.06,0.71-0.05,1.21c-0.01,0.19-0.01,0.44,0.01,0.76
		c0.02,0.32,0.03,0.56,0.03,0.74l0.04,0.8c0.04,0.51,0.18,0.86,0.43,1.07s0.56,0.35,0.94,0.43c0.25,0.04,0.51,0.06,0.78,0.06
		c0.49,0,0.92-0.09,1.29-0.27c0.37-0.18,0.6-0.47,0.7-0.87c0.05-0.33,0.08-0.59,0.08-0.78c0.06-0.89,0.1-1.49,0.1-1.8
		c0-0.84-0.15-1.51-0.46-2.01C53.39,74.41,52.82,74.16,51.98,74.16z"/>
	<path d="M62.36,82.14c-0.01-0.24-0.02-0.44-0.02-0.6s-0.01-0.29-0.02-0.41c-0.03,0.01-0.13,0.08-0.3,0.21
		c-0.18,0.13-0.46,0.23-0.86,0.32c-0.73,0.27-1.45,0.4-2.15,0.4c-0.79,0-1.38-0.19-1.77-0.57c-0.21-0.19-0.35-0.51-0.4-0.96
		c-0.05-0.45-0.08-1.17-0.1-2.16v-0.59c0-0.39,0.01-0.97,0.04-1.73c0.04-0.76,0.06-1.48,0.06-2.17c0-0.33-0.01-0.73-0.04-1.22
		c0.23-0.03,0.54-0.04,0.93-0.04h0.63c0.04,0.38,0.06,0.83,0.06,1.35l-0.02,1.54c0,0.51,0.01,0.87,0.02,1.1l0.02,0.53
		c0,0.46,0.02,0.99,0.06,1.6c0.03,0.42,0.11,0.73,0.26,0.95c0.15,0.21,0.36,0.36,0.66,0.44c0.25,0.04,0.49,0.06,0.7,0.06
		c0.75,0,1.32-0.2,1.72-0.61c0.4-0.41,0.6-0.96,0.62-1.65c0.01-0.46-0.01-1.29-0.06-2.49c-0.03-0.61-0.04-1.01-0.04-1.2
		c0-0.34,0.01-0.83,0.04-1.46v-0.08c0.2-0.05,0.4-0.08,0.58-0.09s0.29-0.02,0.33-0.02c0.27,0,0.49-0.01,0.68-0.02l0.02,3.27
		c0.02,1.5,0.04,2.62,0.04,3.36c0,0.61-0.01,1.57-0.04,2.89c-0.28,0-0.59,0.02-0.93,0.06c-0.06,0-0.14,0.01-0.24,0.02
		s-0.19,0.02-0.29,0.02C62.42,82.19,62.36,82.17,62.36,82.14z"/>
	<path d="M70.91,71.95v1.69c0.34-0.29,0.64-0.51,0.9-0.66s0.64-0.24,1.15-0.28c0.3-0.04,0.59-0.06,0.85-0.06
		c0.92,0,1.65,0.22,2.17,0.67c0.17,0.14,0.28,0.47,0.34,0.99c0.06,0.52,0.09,1.2,0.09,2.05c0,0.48-0.01,1.24-0.04,2.28
		c-0.03,1.01-0.04,1.74-0.04,2.17c0,0.35,0.01,0.79,0.04,1.29c-0.51,0.08-1.05,0.1-1.63,0.08c-0.03-0.38-0.04-0.71-0.04-0.99v-1.14
		v-3.72c-0.03-0.81-0.22-1.34-0.57-1.58c-0.08-0.05-0.23-0.1-0.46-0.15c-0.27-0.08-0.54-0.11-0.82-0.11c-0.49,0-0.92,0.12-1.26,0.37
		c-0.35,0.25-0.57,0.63-0.67,1.15c-0.09,0.48-0.13,1.06-0.13,1.73l0.02,0.65c0.03,0.84,0.04,1.53,0.04,2.07
		c0,0.68-0.01,1.21-0.04,1.58v0.08c-0.25,0.06-0.46,0.09-0.61,0.09l-0.57-0.02c-0.18,0-0.32,0.01-0.44,0.02
		c0-1.46-0.01-2.66-0.02-3.61l-0.02-5.81c0-1.42,0.01-2.88,0.04-4.37c0.39,0.04,0.71,0.05,0.95,0.04c0.06,0,0.14-0.01,0.24-0.02
		c0.09-0.01,0.19-0.02,0.29-0.02c0.13,0,0.19,0.02,0.19,0.06c0.03,0.11,0.04,0.89,0.04,2.32V71.95z"/>
	<path d="M83.75,72.6c0.29-0.01,0.67,0,1.12,0.04l0.49,0.04c0.03,0.2,0.04,0.35,0.04,0.46v0.19c-0.01,0.29-0.02,0.73-0.02,1.31
		c0,0.48,0.01,1.19,0.04,2.13l0.02,2.13c0,0.91-0.03,1.74-0.08,2.49c0,0.04,0,0.12,0,0.25c0,0.13-0.01,0.24-0.04,0.34
		c-0.03,0.1-0.1,0.17-0.21,0.19H84.8l-0.61-0.02c-0.1,0-0.19,0.01-0.27,0.02s-0.15,0.02-0.21,0.02c-0.13-0.04-0.19-0.18-0.19-0.42
		c-0.01-0.1-0.01-0.22,0.01-0.34c0.02-0.13,0.03-0.23,0.03-0.32c-0.3,0.42-0.79,0.7-1.44,0.85c-0.66,0.15-1.3,0.23-1.94,0.23
		c-0.61,0-1.12-0.27-1.55-0.81c-0.42-0.54-0.74-1.2-0.94-1.99c-0.2-0.79-0.3-1.55-0.3-2.3c0-0.82,0.14-1.56,0.42-2.22
		c0.28-0.66,0.66-1.18,1.15-1.57c0.49-0.39,1.03-0.59,1.62-0.6l0.61-0.02c0.57,0,1.04,0.07,1.42,0.2c0.37,0.13,0.65,0.38,0.83,0.73
		c0-0.11,0.01-0.26,0.04-0.44c0.03-0.25,0.04-0.43,0.04-0.53C83.5,72.61,83.59,72.6,83.75,72.6z M81.62,74.31
		c-0.66-0.01-1.21,0.16-1.66,0.5s-0.72,0.76-0.83,1.24c-0.1,0.37-0.15,0.86-0.15,1.48c0.06,2.04,0.89,3.01,2.47,2.93
		c0.65,0,1.12-0.11,1.41-0.34c0.29-0.23,0.47-0.55,0.54-0.97c0.07-0.42,0.1-1.04,0.1-1.88c0-0.91-0.04-1.55-0.11-1.93
		c-0.08-0.37-0.24-0.63-0.48-0.77C82.66,74.44,82.23,74.35,81.62,74.31z"/>
	<path d="M86.28,72.64c0.19,0.03,0.46,0.04,0.8,0.04c0.11,0,0.25,0,0.41-0.01c0.16-0.01,0.33,0,0.52,0.01
		c0.2,0.71,0.58,2.06,1.12,4.05c0.27,1,0.46,1.72,0.59,2.17c0.13,0.44,0.28,0.87,0.46,1.29c0.11-0.28,0.25-0.7,0.42-1.27
		c0.16-0.57,0.27-0.94,0.32-1.12c0.62-2.12,1.15-3.81,1.6-5.07c0.11,0,0.3-0.01,0.55-0.04c0.46-0.03,0.84-0.03,1.14-0.02
		c-0.25,0.67-0.49,1.37-0.7,2.08c-0.22,0.72-0.42,1.42-0.61,2.12c-0.61,2.1-1.15,3.86-1.63,5.26c-0.2,0.04-0.53,0.06-0.97,0.06
		l-1.37-0.02c-0.56-1.77-0.97-3.12-1.23-4.04c-0.26-0.92-0.52-1.93-0.79-3.03L86.28,72.64z"/>
	<path d="M96.06,77.33v0.34l-0.02,0.55c0,1.57,0.77,2.36,2.32,2.36c0.62,0,1.08-0.14,1.38-0.43s0.45-0.67,0.45-1.17
		c0-0.08-0.01-0.21-0.04-0.42c0.27-0.04,0.51-0.06,0.74-0.06c0.2,0,0.35,0.01,0.46,0.02c0.08,0,0.17,0,0.28,0.01
		c0.11,0.01,0.23,0,0.37-0.01c0.01,0.72-0.01,1.3-0.08,1.73s-0.22,0.84-0.46,1.23c-0.23,0.34-0.62,0.59-1.19,0.73
		s-1.18,0.22-1.85,0.22c-0.3,0-0.59-0.01-0.85-0.04s-0.42-0.05-0.48-0.08c-0.99-0.17-1.7-0.79-2.15-1.87
		c-0.44-1.08-0.63-2.32-0.57-3.71c0.01-0.1,0.03-0.31,0.06-0.64c0.03-0.32,0.06-0.66,0.1-1s0.13-0.68,0.26-1.01
		c0.24-0.56,0.68-0.99,1.31-1.29c0.63-0.3,1.34-0.46,2.11-0.46c0.41,0,0.83,0.05,1.27,0.15c1.72,0.29,2.58,1.59,2.58,3.89
		c0,0.19-0.01,0.46-0.04,0.82c-0.24,0.08-0.95,0.14-2.13,0.19c-0.14,0.01-0.44,0.02-0.91,0.02c-1,0-1.74-0.01-2.22-0.04
		C96.45,77.39,96.21,77.37,96.06,77.33z M100.68,75.9c-0.01-0.39-0.11-0.78-0.29-1.16c-0.18-0.38-0.45-0.68-0.79-0.89
		c-0.19-0.09-0.35-0.15-0.49-0.17s-0.32-0.04-0.53-0.04c-0.82,0-1.41,0.17-1.76,0.51c-0.35,0.34-0.57,0.83-0.66,1.46
		c-0.03,0.15-0.04,0.25-0.04,0.3c0,0.15,0.07,0.25,0.22,0.3c0.14,0.05,0.46,0.08,0.94,0.08c0.47,0,0.87-0.01,1.2-0.02
		c1.22,0,1.9-0.01,2.05-0.02c0.06-0.01,0.1-0.03,0.12-0.05c0.02-0.02,0.03-0.05,0.03-0.1V75.9z"/>
	<path d="M114.55,72.67c0.01,0.08,0.02,0.15,0.03,0.23c0.01,0.08,0.01,0.15,0.01,0.23v0.19c-0.04,1.37-0.03,2.71,0.02,4.04
		c0.05,1.32,0.03,2.66-0.06,4.02c0,0.16,0,0.33-0.01,0.49c-0.01,0.16-0.09,0.26-0.24,0.28h-0.23c-0.2,0-0.41-0.01-0.62-0.03
		c-0.21-0.02-0.42-0.03-0.62-0.03c-0.14,0-0.28,0.01-0.41,0.03c-0.13,0.02-0.27,0.03-0.41,0.03c-0.09-0.02-0.15-0.08-0.18-0.15
		c-0.03-0.08-0.05-0.17-0.05-0.27c0-0.14,0.01-0.25,0.04-0.34c0.03-0.09,0.04-0.2,0.04-0.32c-0.3,0.3-0.69,0.56-1.15,0.78
		c-0.46,0.22-0.92,0.32-1.36,0.32c-0.49,0-0.92-0.17-1.26-0.51c-0.35-0.34-0.64-0.77-0.86-1.27c-0.23-0.51-0.4-1.06-0.5-1.65
		c-0.11-0.59-0.16-1.15-0.16-1.65c0-0.63,0.08-1.22,0.25-1.75c0.16-0.53,0.39-0.99,0.67-1.38c0.28-0.39,0.62-0.69,1.02-0.91
		c0.39-0.22,0.81-0.34,1.25-0.35c0.23,0,0.44,0,0.64,0.01c0.2,0.01,0.38,0.04,0.54,0.09c0.16,0.06,0.31,0.15,0.44,0.27
		s0.23,0.29,0.32,0.5c-0.01-0.2,0-0.38,0.03-0.52c0.03-0.15,0.05-0.29,0.05-0.45c0-0.01,0.04-0.02,0.12-0.03
		c0.08-0.01,0.17-0.01,0.28,0c0.1,0.01,0.2,0.01,0.3,0.01c0.1,0,0.17,0,0.21,0c0.21,0.01,0.48,0.03,0.79,0.04
		S114.14,72.65,114.55,72.67z M109.02,76.46c-0.05,0.16-0.08,0.33-0.1,0.5s-0.02,0.34-0.02,0.5c0,0.57,0.15,1.05,0.45,1.45
		c0.3,0.4,0.71,0.6,1.25,0.6c0.32,0,0.55-0.05,0.71-0.16s0.27-0.26,0.34-0.46c0.07-0.2,0.11-0.44,0.11-0.72
		c0.01-0.28,0.01-0.6,0.01-0.96c0-0.44,0-0.79-0.01-1.05s-0.04-0.46-0.09-0.6c-0.06-0.14-0.15-0.23-0.29-0.27s-0.33-0.06-0.6-0.06
		c-0.52,0-0.93,0.12-1.23,0.37S109.08,76.14,109.02,76.46z"/>
	<path d="M119.77,75.24v-2.55c0.2,0.03,0.41,0.03,0.64,0.02s0.44-0.03,0.66-0.05c0.21-0.02,0.42-0.03,0.62-0.05s0.38-0.01,0.54,0.02
		c0.04,0.3,0.06,0.67,0.06,1.09c0,0.42,0,0.85-0.01,1.27c-0.01,0.42-0.02,0.83-0.03,1.22c-0.01,0.39-0.01,0.69,0.02,0.92
		c0,0.62,0,1.21,0.01,1.78c0.01,0.56,0.01,1.12,0,1.67c-0.01,0.55-0.03,1.11-0.08,1.67c-0.04,0.56-0.12,1.15-0.22,1.76
		c-0.16,0.39-0.43,0.7-0.81,0.93c-0.37,0.23-0.8,0.4-1.28,0.51s-0.99,0.19-1.54,0.22c-0.54,0.03-1.07,0.03-1.58,0.01
		c-0.06-0.19-0.1-0.4-0.12-0.63c-0.02-0.23-0.02-0.46-0.01-0.68c0.01-0.23,0.03-0.45,0.06-0.67c0.03-0.22,0.05-0.41,0.08-0.59
		c0.21,0.01,0.46,0.01,0.75,0c0.29-0.01,0.57-0.05,0.85-0.1c0.28-0.06,0.54-0.14,0.78-0.24c0.24-0.1,0.42-0.24,0.55-0.42
		c0.01-0.53,0.02-1.11,0.02-1.73c0-0.62,0-1.25,0-1.88s0-1.25,0.01-1.86C119.73,76.29,119.75,75.73,119.77,75.24z M119.66,68.44
		l2.53,0.06c0,0.08,0,0.21,0.01,0.41c0.01,0.2,0.01,0.41,0.02,0.65c0.01,0.24,0.01,0.48,0.02,0.72s0.01,0.46,0.01,0.66
		c-0.05,0.08-0.17,0.13-0.34,0.15c-0.18,0.03-0.38,0.03-0.62,0.03c-0.23-0.01-0.49-0.02-0.77-0.04c-0.28-0.02-0.54-0.02-0.78-0.01
		c0-0.37-0.02-0.75-0.05-1.15C119.66,69.51,119.65,69.02,119.66,68.44z"/>
	<path d="M131.27,72.67c0.01,0.08,0.02,0.15,0.03,0.23c0.01,0.08,0.01,0.15,0.01,0.23v0.19c-0.04,1.37-0.03,2.71,0.02,4.04
		c0.05,1.32,0.03,2.66-0.06,4.02c0,0.16,0,0.33-0.01,0.49c-0.01,0.16-0.09,0.26-0.24,0.28h-0.23c-0.2,0-0.41-0.01-0.62-0.03
		c-0.21-0.02-0.42-0.03-0.62-0.03c-0.14,0-0.28,0.01-0.41,0.03c-0.13,0.02-0.27,0.03-0.41,0.03c-0.09-0.02-0.15-0.08-0.18-0.15
		c-0.03-0.08-0.05-0.17-0.05-0.27c0-0.14,0.01-0.25,0.04-0.34c0.03-0.09,0.04-0.2,0.04-0.32c-0.3,0.3-0.69,0.56-1.15,0.78
		c-0.46,0.22-0.92,0.32-1.36,0.32c-0.49,0-0.92-0.17-1.26-0.51c-0.35-0.34-0.64-0.77-0.86-1.27c-0.23-0.51-0.4-1.06-0.5-1.65
		c-0.11-0.59-0.16-1.15-0.16-1.65c0-0.63,0.08-1.22,0.25-1.75c0.16-0.53,0.39-0.99,0.67-1.38c0.28-0.39,0.62-0.69,1.02-0.91
		c0.39-0.22,0.81-0.34,1.25-0.35c0.23,0,0.44,0,0.64,0.01c0.2,0.01,0.38,0.04,0.54,0.09c0.16,0.06,0.31,0.15,0.44,0.27
		s0.23,0.29,0.32,0.5c-0.01-0.2,0-0.38,0.03-0.52c0.03-0.15,0.05-0.29,0.05-0.45c0-0.01,0.04-0.02,0.12-0.03
		c0.08-0.01,0.17-0.01,0.28,0c0.1,0.01,0.2,0.01,0.3,0.01c0.1,0,0.17,0,0.21,0c0.21,0.01,0.48,0.03,0.79,0.04
		S130.86,72.65,131.27,72.67z M125.74,76.46c-0.05,0.16-0.08,0.33-0.1,0.5s-0.02,0.34-0.02,0.5c0,0.57,0.15,1.05,0.45,1.45
		c0.3,0.4,0.71,0.6,1.25,0.6c0.32,0,0.55-0.05,0.71-0.16s0.27-0.26,0.34-0.46c0.07-0.2,0.11-0.44,0.11-0.72
		c0.01-0.28,0.01-0.6,0.01-0.96c0-0.44,0-0.79-0.01-1.05s-0.04-0.46-0.09-0.6c-0.06-0.14-0.15-0.23-0.29-0.27s-0.33-0.06-0.6-0.06
		c-0.52,0-0.93,0.12-1.23,0.37S125.8,76.14,125.74,76.46z"/>
	<path d="M139.97,78.49c-0.03,0.33-0.05,0.65-0.08,0.97s-0.06,0.61-0.09,0.88c-0.04,0.27-0.08,0.51-0.14,0.7
		c-0.06,0.2-0.13,0.34-0.22,0.43c-0.21,0.3-0.5,0.52-0.84,0.65c-0.35,0.13-0.73,0.21-1.13,0.24c-0.41,0.03-0.82,0.03-1.25,0
		c-0.43-0.03-0.82-0.05-1.18-0.05c-0.65-0.11-1.19-0.39-1.63-0.84c-0.34-0.3-0.58-0.68-0.7-1.14c-0.13-0.46-0.2-0.93-0.23-1.43
		s-0.03-1-0.01-1.51c0.02-0.51,0-0.97-0.05-1.39c0-0.46,0.04-0.91,0.11-1.37c0.01-0.14,0.06-0.33,0.13-0.57
		c0.08-0.24,0.13-0.42,0.17-0.55c0.09-0.19,0.23-0.35,0.43-0.49c0.2-0.14,0.42-0.26,0.68-0.35s0.54-0.16,0.84-0.2s0.6-0.06,0.9-0.06
		c0.25,0.03,0.5,0.03,0.73,0.01c0.23-0.02,0.48-0.02,0.75,0.01c0.41,0.03,0.79,0.1,1.16,0.23c0.37,0.13,0.68,0.32,0.95,0.57
		c0.18,0.13,0.31,0.3,0.41,0.51c0.09,0.22,0.17,0.47,0.22,0.76c0.05,0.29,0.08,0.62,0.09,0.98c0.01,0.36,0.02,0.75,0.03,1.17
		c-0.17,0.04-0.35,0.06-0.56,0.06s-0.42-0.01-0.65-0.02c-0.22-0.01-0.44-0.03-0.65-0.06s-0.4-0.05-0.56-0.08
		c-0.06-0.44-0.25-0.79-0.55-1.04s-0.7-0.31-1.2-0.18c-0.27,0.08-0.48,0.21-0.65,0.42c-0.08,0.05-0.13,0.18-0.17,0.38
		c-0.05,0.39-0.08,0.79-0.08,1.2s-0.01,0.83-0.04,1.27c-0.03,0.29,0.05,0.52,0.22,0.68c0.17,0.16,0.38,0.28,0.62,0.33
		c0.24,0.06,0.49,0.07,0.74,0.04c0.25-0.03,0.46-0.1,0.61-0.2c0.13-0.09,0.22-0.24,0.29-0.45c0.07-0.21,0.12-0.4,0.16-0.56
		c0.13,0.01,0.3,0.02,0.51,0.01c0.21-0.01,0.44-0.02,0.68-0.03c0.24-0.01,0.47-0.02,0.68-0.01
		C139.65,78.43,139.83,78.45,139.97,78.49z"/>
	<path d="M143.68,68.34v4.16c0,0.42-0.01,0.86-0.03,1.33c-0.02,0.47-0.01,0.85,0.03,1.14c0.21-0.19,0.4-0.4,0.56-0.63
		c0.16-0.23,0.31-0.46,0.45-0.69s0.28-0.47,0.43-0.71c0.15-0.24,0.31-0.47,0.5-0.68c0.16,0.06,0.38,0.1,0.65,0.1
		c0.27,0.01,0.54,0.01,0.83,0c0.29-0.01,0.57-0.02,0.85-0.04s0.51-0.02,0.68-0.01c-0.47,0.72-0.98,1.43-1.52,2.14
		s-1.08,1.41-1.62,2.12c0.57,0.92,1.14,1.84,1.72,2.75s1.11,1.85,1.59,2.82c-0.18,0-0.4,0.01-0.67,0.03
		c-0.27,0.02-0.55,0.04-0.85,0.05c-0.29,0.01-0.57,0.01-0.85,0s-0.5-0.04-0.69-0.08c-0.19-0.3-0.36-0.61-0.52-0.93
		s-0.31-0.63-0.46-0.94c-0.15-0.31-0.31-0.62-0.48-0.92c-0.17-0.3-0.37-0.6-0.58-0.87c0,0.23,0.01,0.49,0.02,0.8
		c0.01,0.3,0.02,0.62,0.02,0.95s-0.01,0.66-0.02,1c-0.01,0.34-0.04,0.64-0.1,0.92c-0.14-0.01-0.31-0.02-0.52-0.01
		c-0.21,0.01-0.43,0.02-0.66,0.03s-0.46,0.02-0.69,0.02s-0.45-0.01-0.64-0.04c-0.09-2.36-0.11-4.67-0.06-6.93
		c0.05-2.27,0.07-4.55,0.06-6.86c0.19,0,0.4,0,0.64-0.01c0.23-0.01,0.47-0.01,0.7-0.02c0.23-0.01,0.46-0.01,0.67-0.01
		C143.32,68.3,143.51,68.32,143.68,68.34z"/>
	<path d="M151.11,77.37v0.34c0.01,0.38,0.03,0.69,0.05,0.93c0.02,0.24,0.1,0.47,0.24,0.7c0.15,0.29,0.37,0.51,0.65,0.65
		c0.28,0.14,0.55,0.18,0.82,0.13c0.27-0.05,0.49-0.21,0.67-0.47c0.18-0.26,0.26-0.65,0.24-1.17c0.13,0.01,0.3,0.02,0.51,0.01
		c0.21-0.01,0.44-0.02,0.67-0.03s0.46-0.02,0.67-0.01c0.22,0.01,0.39,0.03,0.53,0.07c-0.03,0.33-0.05,0.65-0.08,0.97
		s-0.06,0.61-0.09,0.88c-0.04,0.27-0.08,0.51-0.14,0.7c-0.06,0.2-0.13,0.33-0.22,0.41c-0.21,0.3-0.49,0.52-0.84,0.65
		c-0.34,0.13-0.72,0.2-1.12,0.23s-0.82,0.03-1.24,0c-0.42-0.03-0.81-0.04-1.17-0.04c-0.36-0.05-0.68-0.17-0.99-0.34
		c-0.34-0.24-0.63-0.55-0.86-0.94c-0.23-0.39-0.41-0.81-0.55-1.27c-0.14-0.46-0.23-0.95-0.29-1.47s-0.06-1.04-0.04-1.56
		c0.04-0.47,0.08-0.92,0.12-1.36c0.04-0.44,0.14-0.86,0.29-1.28c0.17-0.37,0.42-0.68,0.76-0.94c0.34-0.26,0.73-0.46,1.16-0.59
		s0.89-0.21,1.37-0.22s0.95,0.04,1.41,0.15c0.58,0.1,1.05,0.3,1.41,0.61c0.35,0.3,0.62,0.67,0.81,1.1c0.18,0.43,0.29,0.91,0.33,1.42
		s0.04,1.04,0,1.58c-0.09,0.03-0.26,0.05-0.5,0.08c-0.25,0.03-0.54,0.05-0.87,0.08c-0.34,0.03-0.69,0.04-1.07,0.06
		s-0.74,0.02-1.09,0.02c-0.35,0-0.66-0.01-0.94-0.02C151.43,77.41,151.23,77.39,151.11,77.37z M153.4,74.42
		c-0.1-0.06-0.2-0.11-0.3-0.14c-0.1-0.03-0.22-0.05-0.36-0.05c-0.3,0-0.55,0.03-0.74,0.1c-0.19,0.06-0.34,0.15-0.46,0.27
		c-0.11,0.11-0.2,0.25-0.26,0.4c-0.06,0.15-0.1,0.31-0.12,0.47c-0.03,0.14-0.04,0.24-0.03,0.29c0.01,0.06,0.07,0.09,0.18,0.11
		c0.11,0.02,0.29,0.03,0.54,0.02c0.25-0.01,0.61-0.01,1.09-0.01c0.33,0,0.58,0.01,0.74,0.02c0.16,0.01,0.28,0.02,0.35,0.01
		c0.07-0.01,0.1-0.03,0.1-0.06s0-0.1,0-0.2c0-0.25-0.07-0.49-0.2-0.72C153.81,74.71,153.63,74.54,153.4,74.42z"/>
	<path d="M160.59,69.14v2.55c0,0.17,0,0.34,0.01,0.51c0.01,0.18,0.01,0.36,0.01,0.55c0.39-0.01,0.81-0.03,1.25-0.06
		c0.44-0.02,0.98-0.06,1.62-0.09c0.09,0.1,0.14,0.25,0.15,0.45c0.01,0.2,0.01,0.41,0,0.64c-0.01,0.23-0.03,0.46-0.05,0.69
		c-0.02,0.23-0.02,0.43,0.01,0.6h-2.95c0,0.68,0,1.35,0,2s0.01,1.26,0.02,1.83c0.13,0.18,0.31,0.32,0.55,0.42
		c0.24,0.1,0.5,0.18,0.78,0.24c0.28,0.06,0.56,0.09,0.84,0.1c0.29,0.01,0.54,0.01,0.75,0c0.03,0.18,0.05,0.37,0.08,0.59
		c0.03,0.21,0.04,0.44,0.06,0.67c0.01,0.23,0.01,0.46-0.01,0.68c-0.02,0.23-0.06,0.44-0.12,0.63c-0.51,0.03-1.03,0.02-1.58-0.01
		s-1.06-0.1-1.54-0.22c-0.48-0.11-0.91-0.29-1.28-0.51c-0.37-0.23-0.64-0.54-0.81-0.93c-0.17-0.98-0.26-1.9-0.29-2.76
		c-0.03-0.87-0.03-1.76-0.02-2.69c-0.2,0.01-0.42,0.02-0.64,0.02s-0.47,0-0.73,0l0.06-2.32c0.25,0.01,0.49,0.02,0.71,0.02
		s0.43,0,0.64,0c0-0.28-0.01-0.58-0.02-0.9s-0.02-0.65-0.02-0.98c0-0.33,0-0.65,0.01-0.95c0.01-0.3,0.02-0.58,0.05-0.82
		c0.16-0.03,0.34-0.03,0.54-0.02c0.2,0.01,0.4,0.03,0.62,0.05c0.21,0.02,0.43,0.04,0.65,0.05
		C160.16,69.17,160.37,69.17,160.59,69.14z"/>
	<path d="M166.55,78.36l0.04-0.72c0.06-0.41,0.14-0.79,0.24-1.17c0.09-0.37,0.26-0.74,0.5-1.09c0.14-0.27,0.35-0.58,0.64-0.94
		c0.29-0.36,0.53-0.72,0.73-1.07c0.2-0.35,0.3-0.68,0.28-0.99c-0.01-0.3-0.25-0.54-0.7-0.7c-0.29-0.13-0.52-0.16-0.67-0.09
		c-0.16,0.07-0.29,0.18-0.41,0.32c-0.11,0.15-0.22,0.3-0.32,0.47c-0.1,0.16-0.23,0.28-0.4,0.34c-0.39,0.04-0.78,0.04-1.17,0.02
		c-0.39-0.03-0.77-0.04-1.15-0.06v-0.02c0.02-0.48,0.13-0.95,0.32-1.42c0.19-0.46,0.45-0.88,0.78-1.24s0.72-0.67,1.16-0.9
		c0.44-0.23,0.94-0.36,1.48-0.39c0.58-0.05,1.14,0.01,1.66,0.17c0.53,0.16,0.98,0.42,1.37,0.76c0.39,0.34,0.68,0.75,0.88,1.24
		c0.2,0.48,0.27,1,0.21,1.56c-0.05,0.41-0.16,0.77-0.32,1.1c-0.17,0.33-0.36,0.63-0.57,0.91c-0.2,0.28-0.4,0.5-0.58,0.67
		s-0.37,0.38-0.56,0.64c-0.27,0.37-0.47,0.73-0.6,1.1c-0.13,0.37-0.24,0.77-0.33,1.22c-0.03,0.1-0.05,0.21-0.08,0.32
		s-0.03,0.22,0,0.32v0.02c-0.39,0.05-0.78,0.06-1.17,0.04c-0.39-0.03-0.78-0.03-1.17,0h-0.02c-0.05-0.05-0.08-0.12-0.08-0.2
		C166.55,78.49,166.55,78.42,166.55,78.36z M168.77,82.14l-2.15-0.02h-0.06c-0.03-0.14-0.04-0.32-0.05-0.53
		c-0.01-0.22-0.01-0.43,0-0.65c0.01-0.21,0.01-0.42,0.02-0.61c0.01-0.19,0.01-0.33,0.01-0.42c0.13-0.05,0.31-0.09,0.54-0.11
		s0.47-0.04,0.71-0.04s0.47,0.01,0.67,0.03c0.21,0.02,0.36,0.05,0.45,0.09c0,0.01-0.01,0.12-0.02,0.31
		c-0.01,0.2-0.03,0.42-0.04,0.67c-0.01,0.25-0.03,0.5-0.04,0.74c-0.01,0.24-0.02,0.41-0.02,0.49v0.02v0.02H168.77z"/>
</g>
</svg>
