<!-- Generator: Adobe Illustrator 23.1.1, SVG Export Plug-In  -->
<svg version="1.1" xmlns="http://www.w3.org/2000/svg" xmlns:xlink="http://www.w3.org/1999/xlink" x="0px" y="0px"
	 width="359.75px" height="36.96px" viewBox="0 0 359.75 36.96" style="enable-background:new 0 0 359.75 36.96;"
	 xml:space="preserve">
<defs>
</defs>
<g>
	<path d="M21.7,1.5v0.05c-0.97,3.1-2.11,6.19-3.42,9.27c-1.32,3.08-2.94,6.67-4.88,10.78c-1.6,3.43-2.87,6.17-3.8,8.22
		c-0.93,2.05-1.8,4.16-2.6,6.33c-0.1-0.03-0.28-0.05-0.55-0.05c-0.3,0-0.55,0.02-0.75,0.05c-0.57,0-1,0.02-1.3,0.05
		c-0.2,0-0.45,0.01-0.75,0.03c-0.3,0.02-0.62,0.01-0.95-0.03H2.1H2c1.1-2.97,3.05-7.95,5.85-14.95L8.3,20.1c-0.43-1.07-1.1-2.4-2-4
		c-0.3-0.77-0.71-1.68-1.22-2.75C4.56,12.28,4.2,11.57,4,11.2C2.97,9.13,2.13,7.35,1.5,5.85C0.87,4.35,0.37,2.92,0,1.55
		c0.43,0,1.05-0.03,1.85-0.1c0.47-0.07,0.82-0.1,1.05-0.1c0.63,0,1.15,0.08,1.55,0.25c0.97,2.53,2.07,5.08,3.3,7.65
		c1.23,2.57,2.38,4.72,3.45,6.45c1.37-2.87,2.93-6.63,4.7-11.3l1.05-2.75c0.77-0.13,1.78-0.2,3.05-0.2
		C20.47,1.42,21.03,1.43,21.7,1.5z"/>
	<path d="M18.95,19.9c0-1.23,0.06-2.3,0.17-3.2c0.12-0.9,0.41-2.02,0.88-3.35c0.43-0.97,1.36-1.69,2.78-2.17
		c1.42-0.48,2.99-0.73,4.72-0.73c0.23,0.03,0.57,0.05,1,0.05l2-0.05c2.8,0,4.95,0.73,6.45,2.2c0.6,0.4,1.06,1.15,1.38,2.25
		c0.32,1.1,0.51,2.58,0.58,4.42c0.07,1.85,0.1,2.92,0.1,3.23c-0.13,3.33-0.29,5.98-0.47,7.95c-0.18,1.97-0.56,3.23-1.12,3.8
		c-0.63,0.9-1.51,1.52-2.62,1.85c-1.12,0.33-2.44,0.5-3.98,0.5c-0.6,0-1.5-0.03-2.7-0.1l-2.3-0.05c-1.97-0.33-3.44-1.05-4.42-2.15
		c-0.98-1.1-1.62-2.38-1.9-3.85c-0.28-1.47-0.42-3.23-0.42-5.3v-2.6C19.05,21.37,19.02,20.47,18.95,19.9z M29.15,15.15
		c-2.27,0-3.9,0.58-4.9,1.75c-0.43,0.53-0.71,1.21-0.83,2.03c-0.12,0.82-0.16,1.88-0.12,3.17c-0.03,0.5-0.02,1.17,0.03,2
		s0.08,1.48,0.08,1.95l0.1,2.1c0.1,1.33,0.47,2.28,1.12,2.83s1.47,0.92,2.47,1.12c0.67,0.1,1.35,0.15,2.05,0.15
		c1.3,0,2.43-0.23,3.4-0.7s1.58-1.23,1.85-2.3c0.13-0.87,0.2-1.55,0.2-2.05c0.17-2.33,0.25-3.92,0.25-4.75c0-2.2-0.4-3.97-1.2-5.3
		C32.85,15.82,31.35,15.15,29.15,15.15z"/>
	<path d="M56.45,36.15c-0.03-0.63-0.05-1.16-0.05-1.58c0-0.42-0.02-0.77-0.05-1.08c-0.07,0.03-0.33,0.22-0.8,0.55
		c-0.47,0.33-1.22,0.62-2.25,0.85c-1.93,0.7-3.82,1.05-5.65,1.05c-2.07,0-3.62-0.5-4.65-1.5c-0.57-0.5-0.92-1.34-1.05-2.52
		c-0.13-1.18-0.22-3.08-0.25-5.68V24.7c0-1.03,0.03-2.55,0.1-4.55c0.1-2,0.15-3.9,0.15-5.7c0-0.87-0.03-1.93-0.1-3.2
		c0.6-0.07,1.42-0.1,2.45-0.1h1.65c0.1,1,0.15,2.18,0.15,3.55l-0.05,4.05c0,1.33,0.02,2.3,0.05,2.9l0.05,1.4
		c0,1.2,0.05,2.6,0.15,4.2c0.07,1.1,0.29,1.93,0.67,2.5c0.38,0.57,0.96,0.95,1.72,1.15c0.67,0.1,1.28,0.15,1.85,0.15
		c1.97,0,3.47-0.53,4.52-1.6c1.05-1.07,1.59-2.52,1.62-4.35c0.03-1.2-0.02-3.38-0.15-6.55c-0.07-1.6-0.1-2.65-0.1-3.15
		c0-0.9,0.03-2.18,0.1-3.85v-0.2c0.53-0.13,1.04-0.22,1.52-0.25s0.78-0.05,0.88-0.05c0.7,0,1.3-0.02,1.8-0.05l0.05,8.6
		c0.07,3.93,0.1,6.88,0.1,8.85c0,1.6-0.03,4.13-0.1,7.6c-0.73,0-1.55,0.05-2.45,0.15c-0.17,0-0.38,0.02-0.62,0.05
		s-0.51,0.05-0.78,0.05C56.62,36.3,56.45,36.25,56.45,36.15z"/>
	<path d="M78.95,9.35v4.45c0.9-0.77,1.69-1.34,2.38-1.73c0.68-0.38,1.69-0.62,3.03-0.72c0.8-0.1,1.55-0.15,2.25-0.15
		c2.43,0,4.33,0.58,5.7,1.75c0.43,0.37,0.73,1.23,0.9,2.6s0.25,3.17,0.25,5.4c0,1.27-0.03,3.27-0.1,6c-0.07,2.67-0.1,4.57-0.1,5.7
		c0,0.93,0.03,2.07,0.1,3.4c-1.33,0.2-2.77,0.27-4.3,0.2c-0.07-1-0.1-1.87-0.1-2.6v-3v-9.8c-0.07-2.13-0.57-3.52-1.5-4.15
		c-0.2-0.13-0.6-0.27-1.2-0.4c-0.7-0.2-1.42-0.3-2.15-0.3c-1.3,0-2.41,0.33-3.33,0.98C79.86,17.62,79.27,18.63,79,20
		c-0.23,1.27-0.35,2.78-0.35,4.55l0.05,1.7c0.07,2.2,0.1,4.02,0.1,5.45c0,1.8-0.03,3.18-0.1,4.15v0.2c-0.67,0.17-1.2,0.25-1.6,0.25
		l-1.5-0.05c-0.47,0-0.85,0.02-1.15,0.05c0-3.83-0.02-7-0.05-9.5l-0.05-15.3c0-3.73,0.03-7.57,0.1-11.5c1.03,0.1,1.87,0.13,2.5,0.1
		c0.17,0,0.38-0.02,0.62-0.05S78.08,0,78.35,0c0.33,0,0.5,0.05,0.5,0.15c0.07,0.3,0.1,2.33,0.1,6.1V9.35z"/>
	<path d="M112.75,11.05c0.77-0.03,1.75,0,2.95,0.1l1.3,0.1c0.07,0.53,0.1,0.93,0.1,1.2v0.5c-0.03,0.77-0.05,1.92-0.05,3.45
		c0,1.27,0.03,3.13,0.1,5.6l0.05,5.6c0,2.4-0.07,4.58-0.2,6.55c0,0.1,0,0.32,0,0.65s-0.03,0.63-0.1,0.9
		c-0.07,0.27-0.25,0.43-0.55,0.5h-0.85l-1.6-0.05c-0.27,0-0.5,0.02-0.7,0.05c-0.2,0.03-0.38,0.05-0.55,0.05
		c-0.33-0.1-0.5-0.47-0.5-1.1c-0.03-0.27-0.02-0.57,0.03-0.9c0.05-0.33,0.08-0.62,0.08-0.85c-0.8,1.1-2.07,1.85-3.8,2.25
		c-1.73,0.4-3.43,0.6-5.1,0.6c-1.6,0-2.96-0.71-4.08-2.12c-1.12-1.42-1.94-3.16-2.47-5.22c-0.53-2.07-0.8-4.08-0.8-6.05
		c0-2.17,0.37-4.12,1.1-5.85c0.73-1.73,1.74-3.11,3.03-4.12c1.28-1.02,2.71-1.54,4.27-1.57l1.6-0.05c1.5,0,2.74,0.18,3.72,0.53
		s1.71,0.99,2.17,1.92c0-0.3,0.03-0.68,0.1-1.15c0.07-0.67,0.1-1.13,0.1-1.4C112.1,11.08,112.32,11.05,112.75,11.05z M107.15,15.55
		c-1.73-0.03-3.19,0.41-4.38,1.32c-1.18,0.92-1.91,2.01-2.17,3.28c-0.27,0.97-0.4,2.27-0.4,3.9c0.17,5.37,2.33,7.93,6.5,7.7
		c1.7,0,2.93-0.3,3.7-0.9c0.77-0.6,1.24-1.45,1.43-2.55c0.18-1.1,0.27-2.75,0.27-4.95c0-2.4-0.1-4.09-0.3-5.08
		c-0.2-0.98-0.62-1.66-1.28-2.03C109.88,15.88,108.75,15.65,107.15,15.55z"/>
	<path d="M119.4,11.15c0.5,0.07,1.2,0.1,2.1,0.1c0.3,0,0.66-0.01,1.07-0.02s0.88-0.01,1.38,0.02c0.53,1.87,1.52,5.42,2.95,10.65
		c0.7,2.63,1.22,4.53,1.55,5.7s0.73,2.3,1.2,3.4c0.3-0.73,0.67-1.85,1.1-3.35c0.43-1.5,0.72-2.48,0.85-2.95
		c1.63-5.57,3.03-10.02,4.2-13.35c0.3,0,0.78-0.03,1.45-0.1c1.2-0.07,2.2-0.08,3-0.05c-0.67,1.77-1.28,3.59-1.85,5.48
		c-0.57,1.88-1.1,3.74-1.6,5.57c-1.6,5.53-3.03,10.15-4.3,13.85c-0.53,0.1-1.38,0.15-2.55,0.15l-3.6-0.05
		c-1.47-4.67-2.54-8.21-3.22-10.62c-0.68-2.42-1.38-5.08-2.08-7.97L119.4,11.15z"/>
	<path d="M145.15,23.5v0.9l-0.05,1.45c0,4.13,2.03,6.2,6.1,6.2c1.63,0,2.84-0.38,3.62-1.12s1.17-1.78,1.17-3.08
		c0-0.2-0.03-0.57-0.1-1.1c0.7-0.1,1.35-0.15,1.95-0.15c0.53,0,0.93,0.02,1.2,0.05c0.2,0,0.44,0.01,0.72,0.03s0.61,0.01,0.97-0.03
		c0.03,1.9-0.03,3.42-0.2,4.55c-0.17,1.13-0.57,2.22-1.2,3.25c-0.6,0.9-1.64,1.54-3.12,1.92c-1.48,0.38-3.11,0.58-4.88,0.58
		c-0.8,0-1.54-0.03-2.23-0.1c-0.68-0.07-1.11-0.13-1.27-0.2c-2.6-0.43-4.48-2.08-5.65-4.92c-1.17-2.85-1.67-6.11-1.5-9.78
		c0.03-0.27,0.08-0.83,0.15-1.67c0.07-0.85,0.16-1.72,0.27-2.62s0.34-1.78,0.68-2.65c0.63-1.47,1.78-2.6,3.45-3.4s3.52-1.2,5.55-1.2
		c1.07,0,2.18,0.13,3.35,0.4c4.53,0.77,6.8,4.18,6.8,10.25c0,0.5-0.03,1.22-0.1,2.15c-0.63,0.2-2.5,0.37-5.6,0.5
		c-0.37,0.03-1.17,0.05-2.4,0.05c-2.63,0-4.58-0.03-5.85-0.1C146.17,23.65,145.55,23.6,145.15,23.5z M157.3,19.75
		c-0.03-1.03-0.29-2.05-0.78-3.05c-0.48-1-1.17-1.78-2.08-2.35c-0.5-0.23-0.93-0.38-1.3-0.45c-0.37-0.07-0.83-0.1-1.4-0.1
		c-2.17,0-3.71,0.45-4.62,1.35s-1.49,2.18-1.72,3.85c-0.07,0.4-0.1,0.67-0.1,0.8c0,0.4,0.19,0.67,0.57,0.8
		c0.38,0.13,1.21,0.2,2.48,0.2c1.23,0,2.28-0.02,3.15-0.05c3.2,0,5-0.02,5.4-0.05c0.17-0.03,0.28-0.08,0.33-0.12
		s0.08-0.14,0.08-0.27V19.75z"/>
	<path d="M194.85,35.9l-13.5,0.25l-5.7,0.05h-2.25c-0.03-0.03-0.05-0.08-0.05-0.15l0.05-1.5c0.03-1.97,0.18-3.58,0.45-4.83
		c0.27-1.25,0.93-2.54,2-3.88c1.07-1.17,2.25-2.21,3.55-3.12s3.03-2.06,5.2-3.42c0.37-0.23,0.77-0.48,1.2-0.73
		c0.43-0.25,0.88-0.54,1.35-0.88c2-1.03,3.05-2.37,3.15-4l0.05-1.15c0-2.6-0.46-4.36-1.38-5.28c-0.92-0.92-2.16-1.38-3.72-1.38
		c-0.1,0-0.85,0.05-2.25,0.15c-1.43,0.17-2.49,0.92-3.18,2.27c-0.68,1.35-1.02,2.84-1.02,4.48l0.05,1.8v0.35l-0.05,0.1
		c-1.2,0.2-2.3,0.3-3.3,0.3c-0.37,0-0.95-0.03-1.75-0.1l-0.05-0.1c-0.2-1.1-0.3-2.18-0.3-3.25c0-3.4,0.93-6.17,2.8-8.3
		c0.77-1,1.95-1.75,3.55-2.25c1.6-0.5,3.33-0.75,5.2-0.75c2.17,0,4.02,0.3,5.55,0.9c2,1.03,3.36,2.66,4.07,4.88
		c0.72,2.22,1.03,4.88,0.93,7.98c-0.13,1.43-0.54,2.64-1.23,3.62c-0.68,0.98-1.5,1.8-2.45,2.45c-0.95,0.65-2.21,1.39-3.77,2.22
		c-1.33,0.7-2.42,1.31-3.25,1.83c-0.83,0.52-1.6,1.12-2.3,1.83c-0.87,0.93-1.6,1.77-2.2,2.5c-0.6,0.73-0.9,1.33-0.9,1.8
		c0,0.23,0.1,0.4,0.3,0.5c2.47,0.07,4.6,0.1,6.4,0.1c1.7,0,3.95-0.07,6.75-0.2l1.6-0.05c0.2,0.6,0.3,1.28,0.3,2.05l-0.05,1.65
		c0,0.43,0,0.65,0,0.65S194.75,35.5,194.85,35.9z"/>
	<path d="M199.03,35c0.25-0.7,0.41-1.17,0.47-1.4l0.95-2.65c0.5-1.4,0.9-2.47,1.2-3.2c0.27-0.83,0.75-2.15,1.45-3.95
		c1.77-4.77,3.53-9.82,5.3-15.15c1.1-3.13,1.93-5.78,2.5-7.95c0.4,0.07,1.05,0.1,1.95,0.1c0.47,0,0.93,0.02,1.38,0.05
		c0.45,0.03,0.81,0.12,1.08,0.25c-0.07,0.17-0.12,0.32-0.15,0.45C215.12,1.68,215.07,1.83,215,2c-0.33,1.37-1.53,5.18-3.58,11.43
		S207.57,24.73,206,28.6l-2.8,7.2c-0.03,0.17-0.17,0.27-0.4,0.3s-0.77,0.05-1.6,0.05c-0.93,0-1.75,0.02-2.45,0.05
		C198.68,36.1,198.78,35.7,199.03,35z"/>
	<path d="M235.6,18.45c1.63,0.5,2.84,1.31,3.62,2.42c0.78,1.12,1.31,2.62,1.58,4.53c0,0.27,0.02,0.47,0.05,0.6
		c0.03,0.27,0.05,0.63,0.05,1.1c0,3.03-1.15,5.33-3.45,6.88c-2.3,1.55-5.15,2.33-8.55,2.33c-1,0-1.75-0.03-2.25-0.1
		c-3.13-0.53-5.29-2.33-6.47-5.4c-1.18-3.07-1.78-6.97-1.78-11.7c0-1.8,0.1-4.27,0.3-7.4c0.07-0.8,0.1-1.37,0.1-1.7
		c0.03-0.63,0.09-1.23,0.17-1.8c0.08-0.57,0.21-1,0.38-1.3c0.87-1.93,2.47-3.44,4.8-4.53c2.33-1.08,4.78-1.62,7.35-1.62
		c1.7,0,3.2,0.41,4.5,1.23c1.3,0.82,2.31,1.9,3.02,3.25c0.72,1.35,1.08,2.79,1.08,4.33c0,0.77-0.1,1.55-0.3,2.35
		c-0.57,0.13-1.47,0.2-2.7,0.2h-1.8l-0.1-0.05c0-0.2-0.01-0.62-0.03-1.25c-0.02-0.63-0.12-1.35-0.3-2.15
		c-0.18-0.8-0.61-1.5-1.28-2.1c-0.3-0.27-0.78-0.43-1.45-0.5s-1.52-0.1-2.55-0.1c-2.3,0.17-3.83,0.99-4.58,2.48
		s-1.12,3.27-1.12,5.38l0.05,1.95c-0.03,1.07-0.02,2.32,0.05,3.75c0.03,0.57,0.05,1.33,0.05,2.3v0.05c0.63-1.07,1.78-1.96,3.45-2.67
		c1.67-0.72,3.43-1.08,5.3-1.08C233.83,18.1,234.77,18.22,235.6,18.45z M236.65,25.95V25.7c0-1.07-0.46-1.96-1.38-2.67
		s-1.92-1.08-3.02-1.08c-1.67,0-3.11,0.45-4.33,1.35c-1.22,0.9-1.89,2.1-2.03,3.6c-0.1,0.77,0.05,1.52,0.45,2.25
		c0.4,0.73,0.98,1.32,1.73,1.75c0.75,0.43,1.59,0.63,2.52,0.6c2.17-0.1,3.72-0.67,4.65-1.72C236.18,28.73,236.65,27.45,236.65,25.95
		z"/>
	<path d="M255.1,10.9c0.23-0.03,0.7-0.03,1.4,0c1,0.07,2.1,0.1,3.3,0.1v0.15c0,1.5-0.03,3.82-0.1,6.95c-0.1,3.2-0.15,6.43-0.15,9.7
		c0,3.07,0.07,5.8,0.2,8.2c-0.47,0.1-1.17,0.15-2.1,0.15c-0.93,0-1.5,0-1.7,0c-0.6,0-0.97,0.02-1.1,0.05
		c0.03-0.97,0.05-2.43,0.05-4.4v-4.5v-4.2c-0.07-2.33-0.1-4.13-0.1-5.4c0-2.3,0.1-4.55,0.3-6.75V10.9z M254.9,0.15
		c2.07,0.07,3.63,0.1,4.7,0.1l0.15,6.6c-0.33,0.17-0.93,0.25-1.8,0.25c-0.53,0-0.93-0.02-1.2-0.05c-0.2,0-0.43-0.01-0.7-0.03
		c-0.27-0.02-0.58-0.01-0.95,0.03c0-0.5-0.03-1.32-0.1-2.45C254.9,2.4,254.87,0.92,254.9,0.15z"/>
	<path d="M272.65,1.9v7.65l0.05,2.8c2.17-0.07,4.85-0.18,8.05-0.35c0.2,0.27,0.3,0.77,0.3,1.5L281,14.65
		c-0.07,0.73-0.08,1.27-0.05,1.6c-3.63,0-6.35-0.02-8.15-0.05v7.65v1.7c0,1.5,0.03,2.57,0.1,3.2c0.07,0.63,0.2,1.18,0.4,1.65
		c0.53,0.67,1.61,1.08,3.22,1.25c1.62,0.17,3.09,0.22,4.43,0.15c0.17,1.33,0.25,2.18,0.25,2.55c0,0.6-0.08,1.2-0.25,1.8
		c-0.7,0.03-1.8,0.05-3.3,0.05c-2.6,0-4.63-0.32-6.1-0.95c-1.47-0.63-2.4-1.9-2.8-3.8c-0.37-3.23-0.55-7.45-0.55-12.65v-2.4
		c-0.2,0.03-0.7,0.05-1.5,0.05l-3.8-0.05l0.15-4.1c0.73,0.07,2.48,0.1,5.25,0.1l-0.05-5.25V4.8c0-1.4,0.03-2.38,0.1-2.95
		c0.47-0.03,1.18-0.02,2.15,0.05l1.35,0.05C272.21,1.95,272.48,1.93,272.65,1.9z"/>
	<path d="M287.15,23.5v0.9l-0.05,1.45c0,4.13,2.03,6.2,6.1,6.2c1.63,0,2.84-0.38,3.62-1.12s1.17-1.78,1.17-3.08
		c0-0.2-0.03-0.57-0.1-1.1c0.7-0.1,1.35-0.15,1.95-0.15c0.53,0,0.93,0.02,1.2,0.05c0.2,0,0.44,0.01,0.72,0.03s0.61,0.01,0.97-0.03
		c0.03,1.9-0.03,3.42-0.2,4.55c-0.17,1.13-0.57,2.22-1.2,3.25c-0.6,0.9-1.64,1.54-3.12,1.92c-1.48,0.38-3.11,0.58-4.88,0.58
		c-0.8,0-1.54-0.03-2.23-0.1c-0.68-0.07-1.11-0.13-1.27-0.2c-2.6-0.43-4.48-2.08-5.65-4.92c-1.17-2.85-1.67-6.11-1.5-9.78
		c0.03-0.27,0.08-0.83,0.15-1.67c0.07-0.85,0.16-1.72,0.27-2.62s0.34-1.78,0.68-2.65c0.63-1.47,1.78-2.6,3.45-3.4s3.52-1.2,5.55-1.2
		c1.07,0,2.18,0.13,3.35,0.4c4.53,0.77,6.8,4.18,6.8,10.25c0,0.5-0.03,1.22-0.1,2.15c-0.63,0.2-2.5,0.37-5.6,0.5
		c-0.37,0.03-1.17,0.05-2.4,0.05c-2.63,0-4.58-0.03-5.85-0.1C288.17,23.65,287.55,23.6,287.15,23.5z M299.3,19.75
		c-0.03-1.03-0.29-2.05-0.78-3.05c-0.48-1-1.17-1.78-2.08-2.35c-0.5-0.23-0.93-0.38-1.3-0.45c-0.37-0.07-0.83-0.1-1.4-0.1
		c-2.17,0-3.71,0.45-4.62,1.35s-1.49,2.18-1.72,3.85c-0.07,0.4-0.1,0.67-0.1,0.8c0,0.4,0.19,0.67,0.57,0.8
		c0.38,0.13,1.21,0.2,2.48,0.2c1.23,0,2.28-0.02,3.15-0.05c3.2,0,5-0.02,5.4-0.05c0.17-0.03,0.28-0.08,0.33-0.12
		s0.08-0.14,0.08-0.27V19.75z"/>
	<path d="M310.2,11.35c0.07,0.37,0.1,0.83,0.1,1.4V14c1.23-1.23,2.7-1.98,4.4-2.25c1.17-0.23,2.15-0.35,2.95-0.35
		c1.43,0,2.62,0.28,3.55,0.85c0.73,0.33,1.22,0.8,1.45,1.4c0.23-0.13,0.58-0.38,1.03-0.72c0.45-0.35,1.07-0.68,1.85-1
		s1.88-0.49,3.28-0.53c1.67-0.07,2.97,0.01,3.92,0.22c0.95,0.22,1.81,0.66,2.58,1.33c0.43,0.37,0.73,1.23,0.9,2.6
		s0.25,3.17,0.25,5.4c0,1.27-0.03,3.27-0.1,6c-0.07,2.67-0.1,4.57-0.1,5.7c0,0.93,0.03,2.07,0.1,3.4c-1.2,0.2-2.62,0.27-4.25,0.2
		c-0.07-0.9-0.1-2.55-0.1-4.95c0.07-2.6,0.1-4.6,0.1-6v-2.1c-0.03-0.27-0.07-0.75-0.1-1.45c-0.03-0.7-0.1-1.47-0.2-2.3
		c-0.1-0.83-0.3-1.47-0.6-1.9c-0.2-0.67-0.85-1.05-1.95-1.15c-0.33-0.07-0.82-0.1-1.45-0.1c-0.97,0-1.8,0.16-2.5,0.47
		c-0.7,0.32-1.2,0.81-1.5,1.47c-0.07,0.73-0.1,1.32-0.1,1.75l0.05,1.4v1.85c0,1.13-0.03,2.87-0.1,5.2l-0.05,5
		c0,1.23,0.02,2.12,0.05,2.65c-0.7,0.1-1.65,0.15-2.85,0.15h-1.55c-0.07-0.67-0.1-1.85-0.1-3.55v-2.65l0.05-3.7
		c0-2.3-0.07-4.33-0.2-6.1c0-1.4-0.23-2.36-0.7-2.88c-0.47-0.52-1.33-0.77-2.6-0.77c-3.53,0-5.43,1.98-5.7,5.95
		c-0.03,0.5-0.05,1.23-0.05,2.2c0,1.07,0.03,2.57,0.1,4.5l0.05,2.45c0,1.37-0.05,2.78-0.15,4.25v0.2c-0.5,0.1-0.97,0.15-1.4,0.15
		l-1.65-0.05c-0.5,0-0.9,0.02-1.2,0.05l-0.05-8.6c-0.07-3.93-0.1-6.88-0.1-8.85c0-1.6,0.03-4.13,0.1-7.6
		c0.87,0.07,1.38,0.1,1.55,0.1l1.1-0.05c0.17,0,0.38-0.02,0.65-0.05c0.27-0.03,0.53-0.05,0.8-0.05
		C310.05,11.2,310.2,11.25,310.2,11.35z"/>
	<path d="M359.75,17.65c0,0.17-0.58,0.25-1.75,0.25c-0.87,0-1.5-0.02-1.9-0.05c-0.27,0-0.53-0.01-0.8-0.03
		c-0.27-0.02-0.48-0.01-0.65,0.03c0-0.03,0-0.61,0-1.73c0-1.12-0.97-1.79-2.9-2.02c-0.43-0.07-1.08-0.1-1.95-0.1
		c-0.93,0-1.78,0.07-2.53,0.2c-0.75,0.13-1.31,0.32-1.67,0.55c-0.43,0.33-0.77,0.82-1,1.45c-0.23,0.63-0.35,1.25-0.35,1.85
		c0,0.47,0.07,0.78,0.2,0.95c0.37,0.77,0.85,1.3,1.45,1.6c0.33,0.23,1.15,0.52,2.45,0.85c1.3,0.33,2.42,0.52,3.35,0.55
		c1.37,0.03,2.57,0.24,3.62,0.62c1.05,0.38,1.88,0.91,2.47,1.58c0.6,0.73,1.04,1.46,1.33,2.17c0.28,0.72,0.42,1.49,0.42,2.33
		c0,1.03-0.25,2.28-0.75,3.75c-0.73,1.57-1.9,2.72-3.5,3.45s-3.42,1.08-5.45,1.05c-2.23,0.07-4.2-0.22-5.9-0.88
		c-1.7-0.65-3.02-1.62-3.95-2.92c-0.93-1.3-1.4-2.83-1.4-4.6V28.3c0.6-0.07,1.48-0.1,2.65-0.1c1.3,0,2,0.05,2.1,0.15
		c0.07,0.07,0.21,0.44,0.42,1.12c0.22,0.68,0.61,1.38,1.18,2.08c0.57,0.7,1.53,1.1,2.9,1.2c1.07,0.07,1.7,0.1,1.9,0.1
		c0.53,0,0.97-0.05,1.33-0.15c0.35-0.1,0.81-0.28,1.38-0.55c1.7-0.77,2.53-1.88,2.5-3.35c0.03-0.97-0.23-1.72-0.78-2.25
		s-1.24-0.89-2.08-1.08c-0.83-0.18-1.97-0.36-3.4-0.53c-1.03-0.1-1.87-0.2-2.5-0.3c-0.63-0.1-1.2-0.27-1.7-0.5
		c-1.73-0.57-3.06-1.46-3.98-2.67s-1.38-2.54-1.38-3.98c0-1.57,0.46-2.99,1.38-4.27s2.18-2.12,3.78-2.53
		c1.37-0.37,3.12-0.55,5.25-0.55c0.5,0,1.25,0.03,2.25,0.1c1.43,0.1,2.77,0.35,4,0.75c1.17,0.5,2.12,1.36,2.85,2.58
		C359.38,14.79,359.75,16.15,359.75,17.65z"/>
</g>
</svg>
