<!-- Generator: Adobe Illustrator 23.1.1, SVG Export Plug-In  -->
<svg version="1.1" xmlns="http://www.w3.org/2000/svg" xmlns:xlink="http://www.w3.org/1999/xlink" x="0px" y="0px" width="79.23px"
	 height="80.31px" viewBox="0 0 79.23 80.31" style="enable-background:new 0 0 79.23 80.31;" xml:space="preserve">
<style type="text/css">
	.st0{fill:#3EB150;stroke:#CBC9CA;stroke-width:0.25;stroke-miterlimit:10;}
	.st1{fill:none;stroke:#000000;stroke-miterlimit:10;}
</style>
<defs>
</defs>
<g>
	<path class="st0" d="M3.59,50.91L3.59,50.91c3.36-2.37,8.02-1.33,10.05,2.24l2.88,5.07c0.78,1.37,2.72,1.48,3.65,0.2L52.7,13.65
		c2.97-4.08,6.46-7.76,10.39-10.93l0,0c1.78-1.44,4-2.22,6.28-2.22h5.53c1.78,0,2.8,2.01,1.76,3.45L22.17,78.92
		c-0.41,0.56-1.06,0.9-1.76,0.9H9.05c-0.92,0-1.74-0.58-2.05-1.45L0.6,60.33C-0.63,56.87,0.59,53.02,3.59,50.91z"/>
	<path class="st1" d="M5.25,50.91L5.25,50.91c3.36-2.37,8.02-1.33,10.05,2.24l2.88,5.07c0.78,1.37,2.72,1.48,3.65,0.2l32.54-44.77
		c2.97-4.08,6.46-7.76,10.39-10.93l0,0c1.78-1.44,4-2.22,6.28-2.22h5.53c1.78,0,2.8,2.01,1.76,3.45L23.82,78.92
		c-0.41,0.56-1.06,0.9-1.76,0.9H10.71c-0.92,0-1.74-0.58-2.05-1.45L2.25,60.33C1.03,56.87,2.25,53.02,5.25,50.91z"/>
</g>
</svg>
