<!-- Generator: Adobe Illustrator 23.1.1, SVG Export Plug-In  -->
<svg version="1.1" xmlns="http://www.w3.org/2000/svg" xmlns:xlink="http://www.w3.org/1999/xlink" x="0px" y="0px"
	 width="287.01px" height="40.19px" viewBox="0 0 287.01 40.19" style="enable-background:new 0 0 287.01 40.19;"
	 xml:space="preserve">
<defs>
</defs>
<g>
	<path d="M0,1.3c2.12,0,3.71-0.02,4.75-0.05l5.02-0.05c5.26,0,9.59,0.2,13.01,0.59c0.04,0.32,0.05,0.88,0.05,1.67
		c0,1.22-0.09,2.52-0.27,3.89c-0.79-0.14-1.91-0.2-3.35-0.16c-1.15,0.07-2.3,0.11-3.46,0.11h-1.4c0.07,0.22,0.07,0.43,0,0.65
		c-0.04,0.22-0.05,2.65-0.05,7.29c0,1.12,0.02,2.03,0.05,2.75c0.11,9.5,0.22,16.47,0.32,20.9v0.11c-0.65,0.11-1.64,0.16-2.97,0.16
		c-1.4,0-2.47,0.07-3.19,0.22c-0.04-0.14-0.05-0.39-0.03-0.73c0.02-0.34,0.03-0.73,0.03-1.16v-3.29c0.04-0.72,0.05-2.02,0.05-3.89
		c0-2.12-0.02-3.83-0.05-5.13c-0.07-5.15-0.2-10.94-0.38-17.39V7.56C7.4,7.34,5.4,7.2,2.16,7.13c-1.15,0-1.78-0.02-1.89-0.05
		c-0.11-0.22-0.18-0.9-0.22-2.05C0.02,3.87,0,2.63,0,1.3z"/>
	<path d="M27.86,12.47c0,0.43,0.01,0.77,0.03,1c0.02,0.23,0.03,0.51,0.03,0.84c0.25-0.14,0.6-0.31,1.05-0.49
		c0.45-0.18,0.95-0.36,1.49-0.54c0.83-0.29,1.83-0.49,3-0.62c1.17-0.13,2.22-0.19,3.16-0.19c0.86,0,1.3,0.04,1.3,0.11l-0.05,4.48
		c0,0.72,0.02,1.26,0.05,1.62c-0.54-0.22-1.15-0.41-1.84-0.59c-0.79-0.18-1.66-0.27-2.59-0.27c-0.97,0-2.07,0.14-3.29,0.43
		c-1.01,0.25-1.69,0.63-2.05,1.13c-0.36,0.5-0.52,1.46-0.49,2.86c0.14,4.93,0.22,10.53,0.22,16.79v0.22
		c-0.61,0.14-1.24,0.22-1.89,0.22c-0.25,0-0.66-0.01-1.21-0.03c-0.56-0.02-1.13-0.01-1.7,0.03L23,30.19
		c-0.07-4.25-0.11-7.43-0.11-9.56c0-1.73,0.04-4.46,0.11-8.21c0.36,0.04,0.75,0.05,1.16,0.03c0.41-0.02,0.78-0.03,1.11-0.03
		c0.43-0.04,1.01-0.05,1.73-0.05C27.58,12.37,27.86,12.4,27.86,12.47z"/>
	<path d="M58.43,12.2c0.83-0.04,1.89,0,3.19,0.11l1.4,0.11c0.07,0.58,0.11,1.01,0.11,1.3v0.54c-0.04,0.83-0.05,2.07-0.05,3.73
		c0,1.37,0.04,3.38,0.11,6.05l0.05,6.05c0,2.59-0.07,4.95-0.22,7.07c0,0.11,0,0.34,0,0.7c0,0.36-0.04,0.68-0.11,0.97
		c-0.07,0.29-0.27,0.47-0.59,0.54H61.4l-1.73-0.05c-0.29,0-0.54,0.02-0.76,0.05c-0.22,0.04-0.41,0.05-0.59,0.05
		c-0.36-0.11-0.54-0.5-0.54-1.19c-0.04-0.29-0.03-0.61,0.03-0.97c0.05-0.36,0.08-0.67,0.08-0.92c-0.86,1.19-2.23,2-4.1,2.43
		c-1.87,0.43-3.71,0.65-5.51,0.65c-1.73,0-3.2-0.76-4.4-2.29c-1.21-1.53-2.1-3.41-2.67-5.64c-0.58-2.23-0.86-4.41-0.86-6.53
		c0-2.34,0.4-4.45,1.19-6.32c0.79-1.87,1.88-3.36,3.27-4.46c1.39-1.1,2.92-1.66,4.62-1.7l1.73-0.05c1.62,0,2.96,0.19,4.02,0.57
		c1.06,0.38,1.84,1.07,2.35,2.08c0-0.32,0.04-0.74,0.11-1.24c0.07-0.72,0.11-1.22,0.11-1.51C57.73,12.24,57.96,12.2,58.43,12.2z
		 M52.38,17.06c-1.87-0.04-3.45,0.44-4.73,1.43c-1.28,0.99-2.06,2.17-2.35,3.54c-0.29,1.04-0.43,2.45-0.43,4.21
		c0.18,5.8,2.52,8.57,7.02,8.32c1.84,0,3.17-0.32,4-0.97c0.83-0.65,1.34-1.57,1.54-2.75c0.2-1.19,0.3-2.97,0.3-5.35
		c0-2.59-0.11-4.42-0.32-5.48c-0.22-1.06-0.67-1.79-1.38-2.19C55.32,17.42,54.11,17.17,52.38,17.06z"/>
	<path d="M68.42,12.04c0.25-0.04,0.76-0.04,1.51,0c1.08,0.07,2.27,0.11,3.56,0.11v0.16c0,1.62-0.04,4.12-0.11,7.51
		c-0.11,3.46-0.16,6.95-0.16,10.48c0,3.31,0.07,6.26,0.22,8.86c-0.5,0.11-1.26,0.16-2.27,0.16s-1.62,0-1.84,0
		c-0.65,0-1.04,0.02-1.19,0.05c0.04-1.04,0.05-2.63,0.05-4.75v-4.86v-4.54c-0.07-2.52-0.11-4.46-0.11-5.83
		c0-2.48,0.11-4.91,0.32-7.29V12.04z M68.2,0.43c2.23,0.07,3.92,0.11,5.08,0.11l0.16,7.13c-0.36,0.18-1.01,0.27-1.94,0.27
		c-0.58,0-1.01-0.02-1.3-0.05c-0.22,0-0.47-0.01-0.76-0.03c-0.29-0.02-0.63-0.01-1.03,0.03c0-0.54-0.04-1.42-0.11-2.65
		C68.2,2.86,68.17,1.26,68.2,0.43z"/>
	<path d="M79.49,0.05l4.91,0.16c0,1.48-0.04,5.13-0.11,10.96c-0.07,7.2-0.11,12.85-0.11,16.96c0,4.54,0.05,8.15,0.16,10.85
		c-0.22,0.25-0.81,0.38-1.78,0.38l-1.67-0.05c-0.32-0.04-0.72-0.05-1.19-0.05c-0.29,0-0.47,0.02-0.54,0.05
		c0.22-2.92,0.32-5.85,0.32-8.8c0-2.23-0.07-5.58-0.22-10.04c-0.14-4.46-0.22-7.83-0.22-10.1C79.06,6.55,79.2,3.11,79.49,0.05z"/>
	<path d="M104.97,22.03c-0.07,1.87-0.11,3.17-0.11,3.89c0,2.34,0.23,4.16,0.7,5.45c0.47,1.3,1.39,2.21,2.75,2.75
		c0.97,0.22,1.85,0.32,2.65,0.32c2.48,0,4.32-0.9,5.51-2.7c1.19-1.8,1.76-4.39,1.73-7.78c0.4,0.04,0.76,0.05,1.11,0.03
		c0.34-0.02,0.64-0.03,0.89-0.03c0.32-0.04,0.77-0.05,1.35-0.05c0.68,0,1.17,0.04,1.46,0.11c0.32,1.22,0.49,2.43,0.49,3.62
		c0,2.16-0.47,4.17-1.4,6.02c-0.94,1.85-2.26,3.34-3.97,4.46c-1.71,1.12-3.65,1.71-5.8,1.78c-0.68,0.11-1.39,0.16-2.11,0.16
		c-2.59,0-4.87-0.61-6.83-1.84c-1.96-1.22-3.07-3.06-3.32-5.51c-0.18-3.6-0.27-7.45-0.27-11.56c0-1.91,0.02-3.4,0.05-4.48l0.05-6.53
		c0-2.23,0.57-4.22,1.7-5.97c1.13-1.75,2.67-2.89,4.62-3.43c1.4-0.47,2.84-0.7,4.32-0.7c2.38,0,4.55,0.6,6.53,1.81
		c1.98,1.21,3.55,2.84,4.73,4.91c1.17,2.07,1.75,4.33,1.75,6.78c0,1.01-0.11,2.03-0.32,3.08c-1.08,0.18-1.94,0.27-2.59,0.27
		c-0.72,0-1.58-0.11-2.59-0.32v-1.73c0-1.94-0.2-3.51-0.59-4.7c-0.4-1.19-1.3-2.14-2.7-2.86c-0.97-0.68-2.43-1.03-4.37-1.03
		c-0.58,0-1.03,0.02-1.35,0.05c-1.44,0.07-2.48,1.12-3.13,3.13c-0.65,2.02-0.94,5.29-0.86,9.83L104.97,22.03z"/>
	<path d="M131.27,10.37v4.81c0.97-0.83,1.83-1.45,2.56-1.86c0.74-0.41,1.83-0.67,3.27-0.78c0.86-0.11,1.67-0.16,2.43-0.16
		c2.63,0,4.68,0.63,6.16,1.89c0.47,0.4,0.79,1.33,0.97,2.81c0.18,1.48,0.27,3.42,0.27,5.83c0,1.37-0.04,3.53-0.11,6.48
		c-0.07,2.88-0.11,4.93-0.11,6.16c0,1.01,0.04,2.23,0.11,3.67c-1.44,0.22-2.99,0.29-4.64,0.22c-0.07-1.08-0.11-2.02-0.11-2.81v-3.24
		V22.79c-0.07-2.3-0.61-3.8-1.62-4.48c-0.22-0.14-0.65-0.29-1.3-0.43c-0.76-0.22-1.53-0.32-2.32-0.32c-1.4,0-2.6,0.35-3.59,1.05
		c-0.99,0.7-1.63,1.79-1.92,3.27c-0.25,1.37-0.38,3.01-0.38,4.91l0.05,1.84c0.07,2.38,0.11,4.34,0.11,5.89
		c0,1.94-0.04,3.44-0.11,4.48v0.22c-0.72,0.18-1.3,0.27-1.73,0.27l-1.62-0.05c-0.5,0-0.92,0.02-1.24,0.05
		c0-4.14-0.02-7.56-0.05-10.26l-0.05-16.52c0-4.03,0.04-8.17,0.11-12.42c1.12,0.11,2.02,0.14,2.7,0.11c0.18,0,0.4-0.02,0.67-0.05
		c0.27-0.04,0.55-0.05,0.84-0.05c0.36,0,0.54,0.05,0.54,0.16c0.07,0.32,0.11,2.52,0.11,6.59V10.37z"/>
	<path d="M154.6,25.65v0.97l-0.05,1.57c0,4.46,2.2,6.7,6.59,6.7c1.76,0,3.07-0.4,3.92-1.21c0.85-0.81,1.27-1.92,1.27-3.32
		c0-0.22-0.04-0.61-0.11-1.19c0.76-0.11,1.46-0.16,2.11-0.16c0.58,0,1.01,0.02,1.3,0.05c0.22,0,0.48,0.01,0.78,0.03
		c0.31,0.02,0.66,0.01,1.05-0.03c0.04,2.05-0.04,3.69-0.22,4.91c-0.18,1.22-0.61,2.39-1.3,3.51c-0.65,0.97-1.77,1.67-3.38,2.08
		c-1.6,0.41-3.36,0.62-5.26,0.62c-0.86,0-1.67-0.04-2.4-0.11c-0.74-0.07-1.2-0.14-1.38-0.22c-2.81-0.47-4.84-2.24-6.1-5.32
		c-1.26-3.08-1.8-6.6-1.62-10.56c0.04-0.29,0.09-0.89,0.16-1.81c0.07-0.92,0.17-1.86,0.3-2.83c0.13-0.97,0.37-1.93,0.73-2.86
		c0.68-1.58,1.93-2.81,3.73-3.67c1.8-0.86,3.8-1.3,5.99-1.3c1.15,0,2.36,0.14,3.62,0.43c4.9,0.83,7.34,4.52,7.34,11.07
		c0,0.54-0.04,1.31-0.11,2.32c-0.68,0.22-2.7,0.4-6.05,0.54c-0.4,0.04-1.26,0.05-2.59,0.05c-2.84,0-4.95-0.04-6.32-0.11
		C155.7,25.81,155.03,25.76,154.6,25.65z M167.72,21.6c-0.04-1.12-0.32-2.21-0.84-3.29c-0.52-1.08-1.27-1.93-2.24-2.54
		c-0.54-0.25-1.01-0.41-1.4-0.49c-0.4-0.07-0.9-0.11-1.51-0.11c-2.34,0-4,0.49-4.99,1.46c-0.99,0.97-1.61,2.36-1.86,4.16
		c-0.07,0.43-0.11,0.72-0.11,0.86c0,0.43,0.21,0.72,0.62,0.86c0.41,0.14,1.3,0.22,2.67,0.22c1.33,0,2.47-0.02,3.4-0.05
		c3.46,0,5.4-0.02,5.83-0.05c0.18-0.04,0.3-0.08,0.35-0.13c0.05-0.05,0.08-0.15,0.08-0.3V21.6z"/>
	<path d="M190.78,28.73c0.43,0.07,0.83,0.11,1.19,0.11l1.89-0.05c0.58,0,1.08,0.05,1.51,0.16c-0.18,2.48-0.37,4.41-0.57,5.78
		c-0.2,1.37-0.51,2.27-0.95,2.7c-0.68,0.97-1.63,1.64-2.84,2c-1.21,0.36-2.64,0.54-4.29,0.54c-0.65,0-1.62-0.04-2.92-0.11
		l-2.48-0.05c-2.12-0.36-3.71-1.16-4.75-2.4c-1.04-1.24-1.72-2.71-2.03-4.4c-0.31-1.69-0.51-3.92-0.62-6.7
		c0-2.02-0.02-3.49-0.05-4.43c0-2.12,0.4-4.48,1.19-7.07c0.47-1.04,1.47-1.83,3-2.35c1.53-0.52,3.23-0.78,5.1-0.78
		c0.29,0.04,0.7,0.05,1.24,0.05c0.32,0,0.73-0.01,1.21-0.03c0.48-0.02,1.07-0.01,1.75,0.03c2.7,0.25,4.7,1.01,5.99,2.27
		c0.83,0.58,1.36,1.49,1.59,2.75c0.23,1.26,0.39,3.15,0.46,5.67l0.05,1.3c-0.54,0.11-1.08,0.16-1.62,0.16
		c-0.94,0-1.89-0.09-2.86-0.27c-0.04-2.56-0.5-4.3-1.38-5.24c-0.88-0.94-2.28-1.4-4.19-1.4c-0.4,0-1.1,0.04-2.11,0.11
		c-0.94,0.04-1.67,0.13-2.19,0.27c-0.52,0.14-0.98,0.49-1.38,1.03c-0.4,0.54-0.69,1.37-0.87,2.48c-0.11,0.76-0.16,2.11-0.16,4.05
		v4.32c-0.07,1.19,0.22,2.42,0.87,3.7c0.65,1.28,1.94,2.01,3.89,2.19c0.36,0.04,0.85,0.05,1.46,0.05c1.69,0,2.95-0.32,3.78-0.97
		s1.36-1.4,1.59-2.24C190.56,31.1,190.71,30.02,190.78,28.73z"/>
	<path d="M203.31,9.94c0,1.91-0.02,3.51-0.05,4.81l-0.05,3.89c0,0.72,0.04,1.44,0.11,2.16c1.84-1.37,3.31-2.55,4.43-3.54
		c1.12-0.99,2.45-2.2,4-3.65c1.01-1.01,1.78-1.75,2.32-2.21c0.61,0.14,1.42,0.22,2.43,0.22c0.76,0,1.31-0.02,1.67-0.05
		c0.25,0,0.53-0.01,0.84-0.03c0.31-0.02,0.62-0.01,0.94,0.03c-2.12,1.84-4.23,3.8-6.32,5.89c-2.2,2.2-4.46,4.28-6.8,6.26
		c2.66,2.77,4.73,5,6.21,6.67c1.48,1.67,3.11,3.65,4.91,5.91l2.48,3.02c-0.29,0-0.9,0.04-1.84,0.11c-1.01,0.07-1.82,0.11-2.43,0.11
		c-0.43,0-0.97-0.04-1.62-0.11c-0.58-0.65-1.33-1.58-2.27-2.81c-1.19-1.51-2.39-2.95-3.62-4.32c-1.22-1.37-3.01-3.1-5.35-5.18
		c0,1.01,0.02,1.87,0.05,2.59l0.05,4.1l-0.05,5.45c-0.36-0.04-0.99-0.02-1.89,0.05l-1.78,0.05c-0.54,0-0.92-0.02-1.13-0.05
		c-0.14-3.78-0.22-7.97-0.22-12.58c0-2.74,0.04-6.84,0.11-12.31c0.07-5.54,0.11-9.68,0.11-12.42V0.11c0.72,0,1.28-0.02,1.67-0.05
		L202.17,0c0.54,0,0.92,0.02,1.13,0.05V9.94z"/>
	<path d="M223.29,0.05l4.91,0.16c0,1.48-0.04,5.13-0.11,10.96c-0.07,7.2-0.11,12.85-0.11,16.96c0,4.54,0.05,8.15,0.16,10.85
		c-0.22,0.25-0.81,0.38-1.78,0.38l-1.67-0.05c-0.32-0.04-0.72-0.05-1.19-0.05c-0.29,0-0.47,0.02-0.54,0.05
		c0.22-2.92,0.32-5.85,0.32-8.8c0-2.23-0.07-5.58-0.22-10.04c-0.14-4.46-0.22-7.83-0.22-10.1C222.85,6.55,223,3.11,223.29,0.05z"/>
	<path d="M234.52,12.04c0.25-0.04,0.76-0.04,1.51,0c1.08,0.07,2.27,0.11,3.56,0.11v0.16c0,1.62-0.04,4.12-0.11,7.51
		c-0.11,3.46-0.16,6.95-0.16,10.48c0,3.31,0.07,6.26,0.22,8.86c-0.5,0.11-1.26,0.16-2.27,0.16c-1.01,0-1.62,0-1.84,0
		c-0.65,0-1.04,0.02-1.19,0.05c0.04-1.04,0.05-2.63,0.05-4.75v-4.86v-4.54c-0.07-2.52-0.11-4.46-0.11-5.83
		c0-2.48,0.11-4.91,0.32-7.29V12.04z M234.3,0.43c2.23,0.07,3.92,0.11,5.08,0.11l0.16,7.13c-0.36,0.18-1.01,0.27-1.94,0.27
		c-0.58,0-1.01-0.02-1.3-0.05c-0.22,0-0.47-0.01-0.76-0.03c-0.29-0.02-0.63-0.01-1.03,0.03c0-0.54-0.04-1.42-0.11-2.65
		C234.3,2.86,234.27,1.26,234.3,0.43z"/>
	<path d="M265.73,19.33c0,0.18-0.63,0.27-1.89,0.27c-0.94,0-1.62-0.02-2.05-0.05c-0.29,0-0.58-0.01-0.86-0.03
		c-0.29-0.02-0.52-0.01-0.7,0.03c0-0.04,0-0.66,0-1.86c0-1.21-1.04-1.93-3.13-2.19c-0.47-0.07-1.17-0.11-2.11-0.11
		c-1.01,0-1.92,0.07-2.73,0.22c-0.81,0.14-1.41,0.34-1.81,0.59c-0.47,0.36-0.83,0.88-1.08,1.57c-0.25,0.68-0.38,1.35-0.38,2
		c0,0.5,0.07,0.85,0.22,1.03c0.4,0.83,0.92,1.4,1.57,1.73c0.36,0.25,1.24,0.56,2.65,0.92c1.4,0.36,2.61,0.56,3.62,0.59
		c1.48,0.04,2.78,0.26,3.92,0.68c1.13,0.41,2.02,0.98,2.67,1.7c0.65,0.79,1.12,1.58,1.43,2.35c0.31,0.77,0.46,1.61,0.46,2.51
		c0,1.12-0.27,2.47-0.81,4.05c-0.79,1.69-2.05,2.93-3.78,3.73c-1.73,0.79-3.69,1.17-5.89,1.13c-2.41,0.07-4.54-0.24-6.37-0.94
		s-3.26-1.75-4.27-3.16c-1.01-1.4-1.51-3.06-1.51-4.97v-0.27c0.65-0.07,1.6-0.11,2.86-0.11c1.4,0,2.16,0.05,2.27,0.16
		c0.07,0.07,0.22,0.48,0.46,1.21c0.23,0.74,0.66,1.48,1.27,2.24c0.61,0.76,1.66,1.19,3.13,1.3c1.15,0.07,1.84,0.11,2.05,0.11
		c0.58,0,1.05-0.05,1.43-0.16s0.87-0.31,1.48-0.59c1.84-0.83,2.74-2.03,2.7-3.62c0.04-1.04-0.24-1.85-0.84-2.43
		c-0.59-0.58-1.34-0.96-2.24-1.16c-0.9-0.2-2.12-0.39-3.67-0.57c-1.12-0.11-2.02-0.22-2.7-0.32s-1.3-0.29-1.84-0.54
		c-1.87-0.61-3.3-1.57-4.29-2.89c-0.99-1.31-1.48-2.74-1.48-4.29c0-1.69,0.49-3.23,1.48-4.62c0.99-1.39,2.35-2.3,4.08-2.73
		c1.48-0.4,3.37-0.59,5.67-0.59c0.54,0,1.35,0.04,2.43,0.11c1.55,0.11,2.99,0.38,4.32,0.81c1.26,0.54,2.29,1.47,3.08,2.78
		C265.33,16.25,265.73,17.71,265.73,19.33z"/>
	<path d="M277.77,2.32v8.26l0.05,3.02c2.34-0.07,5.24-0.2,8.69-0.38c0.22,0.29,0.32,0.83,0.32,1.62l-0.05,1.24
		c-0.07,0.79-0.09,1.37-0.05,1.73c-3.92,0-6.86-0.02-8.8-0.05v8.26v1.84c0,1.62,0.04,2.77,0.11,3.46c0.07,0.68,0.22,1.28,0.43,1.78
		c0.58,0.72,1.74,1.17,3.48,1.35c1.75,0.18,3.34,0.23,4.78,0.16c0.18,1.44,0.27,2.36,0.27,2.75c0,0.65-0.09,1.3-0.27,1.94
		c-0.76,0.04-1.94,0.05-3.56,0.05c-2.81,0-5-0.34-6.59-1.03c-1.58-0.68-2.59-2.05-3.02-4.1c-0.4-3.49-0.59-8.05-0.59-13.66v-2.59
		c-0.22,0.04-0.76,0.05-1.62,0.05l-4.1-0.05l0.16-4.43c0.79,0.07,2.68,0.11,5.67,0.11l-0.05-5.67V5.45c0-1.51,0.04-2.57,0.11-3.19
		c0.5-0.04,1.28-0.02,2.32,0.05l1.46,0.05C277.3,2.38,277.59,2.36,277.77,2.32z"/>
</g>
</svg>
