<!-- Generator: Adobe Illustrator 23.1.1, SVG Export Plug-In  -->
<svg version="1.1" xmlns="http://www.w3.org/2000/svg" xmlns:xlink="http://www.w3.org/1999/xlink" x="0px" y="0px"
	 width="141.98px" height="118.62px" viewBox="0 0 141.98 118.62" style="enable-background:new 0 0 141.98 118.62;"
	 xml:space="preserve">
<style type="text/css">
	.st0{fill:#E2A56D;}
</style>
<defs>
</defs>
<g>
	<path class="st0" d="M66.95,105.28c-1.58,0-6.24,0.28-8,0c-1.77-0.28-4.5-2.54-5-5c-0.32-1.7,0-14.97,0-18
		c0-6.43,0-0.08,1.77-36.03c0.13-2.02,0.19-3.94,0.19-5.77c0-12.55-2.49-18.82-7.47-18.82c-3.53,0-6.83,2.95-9.88,8.84
		c-3.06,5.9-4.59,13.13-4.59,21.71l-0.19,46.82c0,5.93-0.49,10.67-1.47,14.24c-0.98,3.56-4.9,5.34-11.78,5.34
		c-9.02,0-14.69-0.74-17.03-2.22c-2.33-1.48-3.5-3.64-3.5-6.48c0-1.32,0.06-2.87,0.19-4.63c0.76-14.57,1.32-27.56,1.7-38.97
		c0.5-17.03,1.23-34.08,2.18-51.17c0.25-5.04,2.68-8.07,7.28-9.08c3.03-0.63,6.46-0.95,10.31-0.95c4.22,0,7.06,2.87,8.51,8.61
		c0.44,1.89,1.04,2.84,1.8,2.84c0.63,0,1.61-0.85,2.93-2.55C42.09,4.67,49.82,0,58.08,0c11.73,0,19.07,4.82,22.04,14.47
		c0.76,2.46,1.58,3.69,2.46,3.69c0.82,0,1.83-1.04,3.03-3.12c5.49-9.58,13.75-14.38,24.78-14.38c18.54,0,28.79,14.06,30.74,42.19
		c0.57,8.32,0.85,18.86,0.85,31.59c0,8.01-0.1,16.87-0.28,26.58c-0.06,5.61-1.17,9.4-3.31,11.35c-1.64,1.45-4.26,2.18-7.85,2.18
		c-1.89,0-4.04-0.16-6.43-0.47c-4.86-0.63-7.66-3.18-8.42-7.66c-0.69-3.91-1.04-8.07-1.04-12.49c0-5.68,0.14-11.24,0.43-16.7
		c0.28-5.45,0.43-11.4,0.43-17.83c0-12.74-0.82-21.8-2.46-27.2c-1.64-5.39-4.73-8.09-9.27-8.09c-5.42,0-9.76,3.04-13.01,9.13
		c-3.25,6.09-4.87,12.6-4.87,19.53c0,5.25,0.03,10.51,0.1,15.76c0.07,5.3,0.19,10.59,0.34,15.89c0.15,5.25,0.54,10.49,0,15.72
		c-0.05,0.46-0.07,0.93-0.13,1.39c-0.43,3.21-3.03,3.86-5.84,3.95C75.9,105.64,71.41,105.28,66.95,105.28z"/>
</g>
</svg>
