<!-- Generator: Adobe Illustrator 23.1.1, SVG Export Plug-In  -->
<svg version="1.1" xmlns="http://www.w3.org/2000/svg" xmlns:xlink="http://www.w3.org/1999/xlink" x="0px" y="0px"
	 width="204.64px" height="63.24px" viewBox="0 0 204.64 63.24" style="enable-background:new 0 0 204.64 63.24;"
	 xml:space="preserve">
<defs>
</defs>
<g>
	<path d="M13.11,4.81h-0.02c-0.38,0.06-0.73,0.09-1.06,0.09c-0.35,0-0.64-0.03-0.85-0.09c0.03-0.11,0.04-0.28,0.04-0.49
		c0-0.42-0.1-0.77-0.3-1.05c-0.2-0.29-0.48-0.49-0.84-0.62C9.82,2.55,9.54,2.51,9.23,2.51c-0.44,0-0.87,0.1-1.27,0.29
		S7.24,3.27,7.01,3.61S6.69,4.33,6.73,4.75c0.17,0.96,0.83,1.46,2,1.5c1.46,0.05,2.55,0.39,3.29,1.01c0.73,0.62,1.1,1.41,1.1,2.38
		c0,0.91-0.17,1.69-0.52,2.34c-0.35,0.65-0.82,1.13-1.42,1.45c-0.6,0.32-1.25,0.48-1.98,0.48c-0.72,0-1.42-0.13-2.11-0.39
		c-0.68-0.26-1.25-0.64-1.71-1.15c-0.46-0.51-0.72-1.11-0.78-1.8v-0.02c-0.04-0.15-0.06-0.32-0.06-0.51V9.9
		c0.28-0.03,0.49-0.04,0.65-0.04l0.7,0.02C6.03,9.89,6.23,9.9,6.48,9.9c-0.01,0.51,0.14,0.94,0.47,1.29s0.81,0.61,1.47,0.78
		c0.19,0.05,0.39,0.08,0.59,0.08c0.42,0,0.8-0.1,1.14-0.3c0.34-0.2,0.6-0.48,0.78-0.84c0.18-0.35,0.25-0.75,0.21-1.18
		c-0.05-0.48-0.21-0.84-0.48-1.08c-0.27-0.24-0.59-0.4-0.95-0.47C9.34,8.09,8.84,8.03,8.21,7.98L7.49,7.92
		c-0.65-0.1-1.2-0.35-1.65-0.75c-0.46-0.4-0.77-0.86-0.93-1.4C4.79,5.4,4.73,5.02,4.73,4.66c0-0.41,0.06-0.79,0.17-1.14
		c0.18-0.6,0.47-1.13,0.88-1.61c0.41-0.48,0.9-0.83,1.47-1.07c0.49-0.2,1.07-0.3,1.73-0.3c0.9,0,1.73,0.17,2.49,0.51
		c0.53,0.27,0.95,0.64,1.26,1.13c0.31,0.49,0.47,1.07,0.47,1.74C13.21,4.16,13.17,4.45,13.11,4.81z"/>
	<path d="M14.72,4.22c0.09-0.01,0.27-0.01,0.53,0c0.38,0.03,0.8,0.04,1.25,0.04v0.06c0,0.57-0.01,1.45-0.04,2.64
		c-0.04,1.22-0.06,2.45-0.06,3.69c0,1.17,0.02,2.2,0.08,3.12c-0.18,0.04-0.44,0.06-0.8,0.06s-0.57,0-0.65,0
		c-0.23,0-0.37,0.01-0.42,0.02c0.01-0.37,0.02-0.92,0.02-1.67v-1.71v-1.6c-0.03-0.89-0.04-1.57-0.04-2.05
		c0-0.87,0.04-1.73,0.11-2.57V4.22z M14.65,0.13c0.79,0.03,1.38,0.04,1.79,0.04l0.06,2.51c-0.13,0.06-0.35,0.09-0.68,0.09
		c-0.2,0-0.35-0.01-0.46-0.02c-0.08,0-0.17,0-0.27-0.01c-0.1-0.01-0.22,0-0.36,0.01c0-0.19-0.01-0.5-0.04-0.93
		C14.65,0.99,14.64,0.42,14.65,0.13z"/>
	<path d="M19.95,4.37c0.03,0.14,0.04,0.32,0.04,0.53v0.48c0.43-0.25,0.94-0.48,1.52-0.67c0.58-0.2,1.17-0.29,1.75-0.29
		c0.7,0.03,1.27,0.22,1.71,0.59c0.3,0.27,0.46,1.35,0.46,3.25c0,0.48-0.01,1.23-0.04,2.24c-0.03,0.96-0.04,1.66-0.04,2.09
		c0,0.56,0.01,0.96,0.02,1.2c-0.24,0.04-0.59,0.06-1.04,0.06h-0.63c-0.03-0.2-0.04-0.56-0.04-1.06v-0.82l0.02-1.22
		c0.03-0.82,0.03-1.41,0.02-1.77c0-0.08-0.02-0.34-0.05-0.78s-0.1-0.84-0.22-1.18c-0.04-0.44-0.35-0.65-0.93-0.61
		c-0.87,0.01-1.52,0.13-1.93,0.36C20.16,6.99,19.92,7.4,19.87,8c-0.01,0.17-0.02,0.48-0.02,0.93c0,0.71,0.01,1.47,0.04,2.28
		c0.02,0.48,0.04,0.84,0.04,1.06c0,0.47-0.02,0.95-0.06,1.44v0.08c-0.24,0.05-0.48,0.07-0.71,0.07c-0.24-0.01-0.4-0.01-0.5-0.01
		c-0.2,0-0.36,0.01-0.47,0.02l-0.02-3.27c-0.03-1.49-0.04-2.62-0.04-3.36c0-0.61,0.01-1.57,0.04-2.89c0.15,0.01,0.33,0.02,0.53,0.02
		c0.2,0,0.37-0.01,0.49-0.02c0.08,0,0.16-0.01,0.27-0.02c0.1-0.01,0.2-0.02,0.3-0.02C19.89,4.31,19.95,4.33,19.95,4.37z"/>
	<path d="M32.39,10.09c0.15,0.03,0.29,0.04,0.42,0.04l0.67-0.02c0.2,0,0.38,0.02,0.53,0.06c-0.06,0.87-0.13,1.55-0.2,2.03
		c-0.07,0.48-0.18,0.8-0.33,0.95c-0.24,0.34-0.57,0.58-1,0.7c-0.42,0.13-0.93,0.19-1.51,0.19c-0.23,0-0.57-0.01-1.03-0.04
		l-0.87-0.02c-0.75-0.13-1.3-0.41-1.67-0.85c-0.37-0.44-0.61-0.95-0.71-1.55c-0.11-0.6-0.18-1.38-0.22-2.36
		c0-0.71-0.01-1.23-0.02-1.56c0-0.75,0.14-1.58,0.42-2.49c0.16-0.37,0.52-0.64,1.05-0.83c0.54-0.18,1.14-0.28,1.79-0.28
		c0.1,0.01,0.25,0.02,0.44,0.02c0.11,0,0.26,0,0.43-0.01c0.17-0.01,0.38,0,0.62,0.01c0.95,0.09,1.65,0.35,2.11,0.8
		c0.29,0.2,0.48,0.53,0.56,0.97c0.08,0.44,0.14,1.11,0.16,2l0.02,0.46c-0.19,0.04-0.38,0.06-0.57,0.06c-0.33,0-0.67-0.03-1.01-0.1
		c-0.01-0.9-0.17-1.51-0.48-1.84c-0.31-0.33-0.8-0.49-1.47-0.49c-0.14,0-0.39,0.01-0.74,0.04C29.44,6,29.19,6.03,29,6.08
		c-0.18,0.05-0.35,0.17-0.49,0.36c-0.14,0.19-0.24,0.48-0.3,0.87c-0.04,0.27-0.06,0.74-0.06,1.42v1.52c-0.03,0.42,0.08,0.85,0.3,1.3
		c0.23,0.45,0.68,0.71,1.37,0.77c0.13,0.01,0.3,0.02,0.51,0.02c0.6,0,1.04-0.11,1.33-0.34c0.29-0.23,0.48-0.49,0.56-0.79
		C32.31,10.92,32.37,10.55,32.39,10.09z"/>
	<path d="M36.5,9.01v0.34L36.48,9.9c0,1.57,0.77,2.36,2.32,2.36c0.62,0,1.08-0.14,1.38-0.43c0.3-0.29,0.45-0.67,0.45-1.17
		c0-0.08-0.01-0.21-0.04-0.42c0.27-0.04,0.51-0.06,0.74-0.06c0.2,0,0.35,0.01,0.46,0.02c0.08,0,0.17,0,0.28,0.01
		c0.11,0.01,0.23,0,0.37-0.01c0.01,0.72-0.01,1.3-0.08,1.73s-0.21,0.84-0.46,1.23c-0.23,0.34-0.62,0.59-1.19,0.73
		s-1.18,0.22-1.85,0.22c-0.3,0-0.59-0.01-0.84-0.04c-0.26-0.03-0.42-0.05-0.48-0.08c-0.99-0.17-1.7-0.79-2.15-1.87
		s-0.63-2.32-0.57-3.71c0.01-0.1,0.03-0.31,0.06-0.64c0.03-0.32,0.06-0.66,0.1-1c0.04-0.34,0.13-0.68,0.26-1.01
		c0.24-0.56,0.68-0.99,1.31-1.29c0.63-0.3,1.34-0.46,2.11-0.46c0.41,0,0.83,0.05,1.27,0.15c1.72,0.29,2.58,1.59,2.58,3.89
		c0,0.19-0.01,0.46-0.04,0.82c-0.24,0.08-0.95,0.14-2.13,0.19C40.2,9.1,39.89,9.1,39.42,9.1c-1,0-1.74-0.01-2.22-0.04
		C36.88,9.06,36.65,9.04,36.5,9.01z M41.12,7.58C41.1,7.19,41,6.8,40.82,6.42c-0.18-0.38-0.45-0.68-0.79-0.89
		c-0.19-0.09-0.36-0.15-0.49-0.17c-0.14-0.03-0.32-0.04-0.53-0.04c-0.82,0-1.41,0.17-1.76,0.51c-0.35,0.34-0.57,0.83-0.66,1.46
		c-0.03,0.15-0.04,0.25-0.04,0.3c0,0.15,0.07,0.25,0.22,0.3c0.15,0.05,0.46,0.08,0.94,0.08c0.47,0,0.87-0.01,1.2-0.02
		c1.22,0,1.9-0.01,2.05-0.02c0.06-0.01,0.1-0.03,0.12-0.05c0.02-0.02,0.03-0.05,0.03-0.1V7.58z"/>
	<path d="M50.31,0.8v2.91l0.02,1.06c0.82-0.03,1.84-0.07,3.06-0.13c0.08,0.1,0.11,0.29,0.11,0.57l-0.02,0.44
		c-0.03,0.28-0.03,0.48-0.02,0.61c-1.38,0-2.41-0.01-3.1-0.02v2.91v0.65c0,0.57,0.01,0.98,0.04,1.22c0.03,0.24,0.08,0.45,0.15,0.63
		c0.2,0.25,0.61,0.41,1.23,0.47s1.17,0.08,1.68,0.06c0.06,0.51,0.09,0.83,0.09,0.97c0,0.23-0.03,0.46-0.09,0.68
		c-0.27,0.01-0.68,0.02-1.25,0.02c-0.99,0-1.76-0.12-2.32-0.36s-0.91-0.72-1.06-1.44c-0.14-1.23-0.21-2.83-0.21-4.81V6.31
		c-0.08,0.01-0.27,0.02-0.57,0.02l-1.44-0.02l0.06-1.56c0.28,0.03,0.94,0.04,1.99,0.04l-0.02-1.99V1.9c0-0.53,0.01-0.91,0.04-1.12
		c0.18-0.01,0.45-0.01,0.82,0.02l0.51,0.02C50.15,0.82,50.25,0.81,50.31,0.8z"/>
	<path d="M56.12,3.63v1.69c0.34-0.29,0.64-0.51,0.9-0.66s0.64-0.24,1.15-0.28c0.3-0.04,0.59-0.06,0.85-0.06
		c0.92,0,1.65,0.22,2.17,0.67c0.17,0.14,0.28,0.47,0.34,0.99c0.06,0.52,0.09,1.2,0.09,2.05c0,0.48-0.01,1.24-0.04,2.28
		c-0.03,1.01-0.04,1.74-0.04,2.17c0,0.35,0.01,0.79,0.04,1.29c-0.51,0.08-1.05,0.1-1.63,0.08c-0.03-0.38-0.04-0.71-0.04-0.99v-1.14
		V8c-0.03-0.81-0.22-1.34-0.57-1.58c-0.08-0.05-0.23-0.1-0.46-0.15c-0.27-0.08-0.54-0.11-0.82-0.11c-0.49,0-0.92,0.12-1.26,0.37
		c-0.35,0.25-0.57,0.63-0.67,1.15c-0.09,0.48-0.13,1.06-0.13,1.73l0.02,0.65c0.03,0.84,0.04,1.53,0.04,2.07
		c0,0.68-0.01,1.21-0.04,1.58v0.08c-0.25,0.06-0.46,0.09-0.61,0.09l-0.57-0.02c-0.18,0-0.32,0.01-0.44,0.02
		c0-1.46-0.01-2.66-0.02-3.61l-0.02-5.81c0-1.42,0.01-2.88,0.04-4.37c0.39,0.04,0.71,0.05,0.95,0.04c0.06,0,0.14-0.01,0.24-0.02
		c0.09-0.01,0.19-0.02,0.29-0.02c0.13,0,0.19,0.02,0.19,0.06c0.03,0.11,0.04,0.89,0.04,2.32V3.63z"/>
	<path d="M64.33,9.01v0.34L64.31,9.9c0,1.57,0.77,2.36,2.32,2.36c0.62,0,1.08-0.14,1.38-0.43c0.3-0.29,0.45-0.67,0.45-1.17
		c0-0.08-0.01-0.21-0.04-0.42c0.27-0.04,0.51-0.06,0.74-0.06c0.2,0,0.35,0.01,0.46,0.02c0.08,0,0.17,0,0.28,0.01
		c0.11,0.01,0.23,0,0.37-0.01c0.01,0.72-0.01,1.3-0.08,1.73s-0.21,0.84-0.46,1.23c-0.23,0.34-0.62,0.59-1.19,0.73
		s-1.18,0.22-1.85,0.22c-0.3,0-0.59-0.01-0.84-0.04c-0.26-0.03-0.42-0.05-0.48-0.08c-0.99-0.17-1.7-0.79-2.15-1.87
		s-0.63-2.32-0.57-3.71c0.01-0.1,0.03-0.31,0.06-0.64c0.03-0.32,0.06-0.66,0.1-1c0.04-0.34,0.13-0.68,0.26-1.01
		c0.24-0.56,0.68-0.99,1.31-1.29c0.63-0.3,1.34-0.46,2.11-0.46c0.41,0,0.83,0.05,1.27,0.15c1.72,0.29,2.58,1.59,2.58,3.89
		c0,0.19-0.01,0.46-0.04,0.82c-0.24,0.08-0.95,0.14-2.13,0.19C68.03,9.1,67.73,9.1,67.26,9.1c-1,0-1.74-0.01-2.22-0.04
		C64.72,9.06,64.49,9.04,64.33,9.01z M68.95,7.58c-0.01-0.39-0.11-0.78-0.29-1.16c-0.18-0.38-0.45-0.68-0.79-0.89
		c-0.19-0.09-0.36-0.15-0.49-0.17c-0.14-0.03-0.32-0.04-0.53-0.04c-0.82,0-1.41,0.17-1.76,0.51c-0.35,0.34-0.57,0.83-0.66,1.46
		c-0.03,0.15-0.04,0.25-0.04,0.3c0,0.15,0.07,0.25,0.22,0.3c0.15,0.05,0.46,0.08,0.94,0.08c0.47,0,0.87-0.01,1.2-0.02
		c1.22,0,1.9-0.01,2.05-0.02c0.06-0.01,0.1-0.03,0.12-0.05c0.02-0.02,0.03-0.05,0.03-0.1V7.58z"/>
	<path d="M73.09,4.37c0,0.15,0,0.27,0.01,0.35c0.01,0.08,0.01,0.18,0.01,0.29c0.09-0.05,0.21-0.11,0.37-0.17
		c0.16-0.06,0.33-0.13,0.52-0.19c0.29-0.1,0.64-0.17,1.05-0.22c0.41-0.04,0.78-0.07,1.11-0.07c0.3,0,0.46,0.01,0.46,0.04l-0.02,1.58
		c0,0.25,0.01,0.44,0.02,0.57c-0.19-0.08-0.41-0.15-0.65-0.21c-0.28-0.06-0.58-0.09-0.91-0.09c-0.34,0-0.73,0.05-1.16,0.15
		c-0.35,0.09-0.6,0.22-0.72,0.4C73.06,6.98,73,7.32,73.02,7.81c0.05,1.74,0.08,3.71,0.08,5.91v0.08c-0.22,0.05-0.44,0.08-0.67,0.08
		c-0.09,0-0.23,0-0.43-0.01c-0.2-0.01-0.4,0-0.6,0.01l-0.02-3.27c-0.03-1.49-0.04-2.62-0.04-3.36c0-0.61,0.01-1.57,0.04-2.89
		c0.13,0.01,0.26,0.02,0.41,0.01c0.15-0.01,0.28-0.01,0.39-0.01c0.15-0.01,0.35-0.02,0.61-0.02C72.99,4.33,73.09,4.35,73.09,4.37z"
		/>
	<path d="M79.21,9.01v0.34L79.19,9.9c0,1.57,0.77,2.36,2.32,2.36c0.62,0,1.08-0.14,1.38-0.43s0.45-0.67,0.45-1.17
		c0-0.08-0.01-0.21-0.04-0.42c0.27-0.04,0.51-0.06,0.74-0.06c0.2,0,0.35,0.01,0.46,0.02c0.08,0,0.17,0,0.28,0.01
		c0.11,0.01,0.23,0,0.37-0.01c0.01,0.72-0.01,1.3-0.08,1.73s-0.22,0.84-0.46,1.23c-0.23,0.34-0.62,0.59-1.19,0.73
		s-1.18,0.22-1.85,0.22c-0.3,0-0.59-0.01-0.85-0.04S80.3,14.03,80.24,14c-0.99-0.17-1.7-0.79-2.15-1.87
		c-0.44-1.08-0.63-2.32-0.57-3.71c0.01-0.1,0.03-0.31,0.06-0.64c0.03-0.32,0.06-0.66,0.1-1s0.13-0.68,0.26-1.01
		c0.24-0.56,0.68-0.99,1.31-1.29c0.63-0.3,1.34-0.46,2.11-0.46c0.41,0,0.83,0.05,1.27,0.15c1.72,0.29,2.58,1.59,2.58,3.89
		c0,0.19-0.01,0.46-0.04,0.82c-0.24,0.08-0.95,0.14-2.13,0.19C82.91,9.1,82.6,9.1,82.14,9.1c-1,0-1.74-0.01-2.22-0.04
		C79.6,9.06,79.36,9.04,79.21,9.01z M83.83,7.58c-0.01-0.39-0.11-0.78-0.29-1.16c-0.18-0.38-0.45-0.68-0.79-0.89
		c-0.19-0.09-0.35-0.15-0.49-0.17s-0.32-0.04-0.53-0.04c-0.82,0-1.41,0.17-1.76,0.51c-0.35,0.34-0.57,0.83-0.66,1.46
		c-0.03,0.15-0.04,0.25-0.04,0.3c0,0.15,0.07,0.25,0.22,0.3c0.14,0.05,0.46,0.08,0.94,0.08c0.47,0,0.87-0.01,1.2-0.02
		c1.22,0,1.9-0.01,2.05-0.02c0.06-0.01,0.1-0.03,0.12-0.05c0.02-0.02,0.03-0.05,0.03-0.1V7.58z"/>
	<path d="M90.55,4.22c0.09-0.01,0.27-0.01,0.53,0c0.38,0.03,0.8,0.04,1.25,0.04v0.06c0,0.57-0.01,1.45-0.04,2.64
		c-0.04,1.22-0.06,2.45-0.06,3.69c0,1.17,0.02,2.2,0.08,3.12c-0.18,0.04-0.44,0.06-0.8,0.06s-0.57,0-0.65,0
		c-0.23,0-0.37,0.01-0.42,0.02c0.01-0.37,0.02-0.92,0.02-1.67v-1.71v-1.6c-0.03-0.89-0.04-1.57-0.04-2.05
		c0-0.87,0.04-1.73,0.11-2.57V4.22z M90.48,0.13c0.79,0.03,1.38,0.04,1.79,0.04l0.06,2.51c-0.13,0.06-0.35,0.09-0.68,0.09
		c-0.2,0-0.35-0.01-0.46-0.02c-0.08,0-0.17,0-0.27-0.01c-0.1-0.01-0.22,0-0.36,0.01c0-0.19-0.01-0.5-0.04-0.93
		C90.48,0.99,90.46,0.42,90.48,0.13z"/>
	<path d="M101.53,6.78c0,0.06-0.22,0.1-0.67,0.1c-0.33,0-0.57-0.01-0.72-0.02c-0.1,0-0.2,0-0.3-0.01c-0.1-0.01-0.18,0-0.25,0.01
		c0-0.01,0-0.23,0-0.66s-0.37-0.68-1.1-0.77c-0.17-0.03-0.41-0.04-0.74-0.04c-0.35,0-0.67,0.03-0.96,0.08s-0.5,0.12-0.64,0.21
		c-0.17,0.13-0.29,0.31-0.38,0.55c-0.09,0.24-0.13,0.47-0.13,0.7c0,0.18,0.03,0.3,0.08,0.36c0.14,0.29,0.32,0.49,0.55,0.61
		c0.13,0.09,0.44,0.2,0.93,0.32s0.92,0.2,1.27,0.21c0.52,0.01,0.98,0.09,1.38,0.24c0.4,0.15,0.71,0.35,0.94,0.6
		c0.23,0.28,0.4,0.55,0.5,0.83c0.11,0.27,0.16,0.57,0.16,0.88c0,0.39-0.09,0.87-0.29,1.42c-0.28,0.6-0.72,1.03-1.33,1.31
		c-0.61,0.28-1.3,0.41-2.07,0.4c-0.85,0.03-1.6-0.08-2.24-0.33c-0.65-0.25-1.15-0.62-1.5-1.11c-0.35-0.49-0.53-1.08-0.53-1.75v-0.1
		c0.23-0.02,0.56-0.04,1.01-0.04c0.49,0,0.76,0.02,0.8,0.06c0.02,0.03,0.08,0.17,0.16,0.43c0.08,0.26,0.23,0.52,0.45,0.79
		s0.58,0.42,1.1,0.46c0.41,0.03,0.65,0.04,0.72,0.04c0.2,0,0.37-0.02,0.5-0.06c0.13-0.04,0.31-0.11,0.52-0.21
		c0.65-0.29,0.96-0.72,0.95-1.27c0.01-0.37-0.08-0.65-0.29-0.86c-0.21-0.2-0.47-0.34-0.79-0.41c-0.32-0.07-0.75-0.14-1.29-0.2
		c-0.39-0.04-0.71-0.08-0.95-0.11c-0.24-0.04-0.46-0.1-0.65-0.19c-0.66-0.22-1.16-0.55-1.51-1.02c-0.35-0.46-0.52-0.97-0.52-1.51
		c0-0.6,0.17-1.14,0.52-1.62c0.35-0.49,0.83-0.81,1.43-0.96c0.52-0.14,1.18-0.21,2-0.21c0.19,0,0.48,0.01,0.86,0.04
		c0.54,0.04,1.05,0.13,1.52,0.29c0.44,0.19,0.8,0.52,1.08,0.98C101.39,5.7,101.53,6.21,101.53,6.78z"/>
	<path d="M108.13,4.37c0.03,0.14,0.04,0.32,0.04,0.53v0.48c0.43-0.25,0.94-0.48,1.52-0.67c0.58-0.2,1.17-0.29,1.75-0.29
		c0.7,0.03,1.27,0.22,1.71,0.59c0.3,0.27,0.46,1.35,0.46,3.25c0,0.48-0.01,1.23-0.04,2.24c-0.03,0.96-0.04,1.66-0.04,2.09
		c0,0.56,0.01,0.96,0.02,1.2c-0.24,0.04-0.59,0.06-1.04,0.06h-0.63c-0.03-0.2-0.04-0.56-0.04-1.06v-0.82l0.02-1.22
		c0.03-0.82,0.03-1.41,0.02-1.77c0-0.08-0.02-0.34-0.05-0.78s-0.1-0.84-0.22-1.18c-0.04-0.44-0.35-0.65-0.93-0.61
		c-0.87,0.01-1.52,0.13-1.93,0.36c-0.41,0.23-0.64,0.64-0.69,1.23c-0.01,0.17-0.02,0.48-0.02,0.93c0,0.71,0.01,1.47,0.04,2.28
		c0.02,0.48,0.04,0.84,0.04,1.06c0,0.47-0.02,0.95-0.06,1.44v0.08c-0.24,0.05-0.48,0.07-0.71,0.07c-0.24-0.01-0.4-0.01-0.5-0.01
		c-0.2,0-0.36,0.01-0.47,0.02l-0.02-3.27c-0.03-1.49-0.04-2.62-0.04-3.36c0-0.61,0.01-1.57,0.04-2.89c0.15,0.01,0.33,0.02,0.53,0.02
		c0.2,0,0.37-0.01,0.49-0.02c0.08,0,0.16-0.01,0.27-0.02c0.1-0.01,0.2-0.02,0.3-0.02C108.06,4.31,108.13,4.33,108.13,4.37z"/>
	<path d="M114.64,7.64c0-0.47,0.02-0.87,0.07-1.22c0.04-0.34,0.16-0.77,0.33-1.27c0.16-0.37,0.52-0.64,1.05-0.83
		c0.54-0.18,1.14-0.28,1.79-0.28c0.09,0.01,0.22,0.02,0.38,0.02l0.76-0.02c1.06,0,1.88,0.28,2.45,0.84c0.23,0.15,0.4,0.44,0.52,0.85
		c0.12,0.42,0.19,0.98,0.22,1.68s0.04,1.11,0.04,1.23c-0.05,1.27-0.11,2.27-0.18,3.02c-0.07,0.75-0.21,1.23-0.43,1.44
		c-0.24,0.34-0.57,0.58-1,0.7c-0.42,0.13-0.93,0.19-1.51,0.19c-0.23,0-0.57-0.01-1.03-0.04l-0.87-0.02
		c-0.75-0.13-1.31-0.4-1.68-0.82c-0.37-0.42-0.61-0.91-0.72-1.46c-0.11-0.56-0.16-1.23-0.16-2.01V8.66
		C114.68,8.2,114.67,7.85,114.64,7.64z M118.52,5.83c-0.86,0-1.48,0.22-1.86,0.67c-0.17,0.2-0.27,0.46-0.31,0.77
		c-0.04,0.31-0.06,0.71-0.05,1.21c-0.01,0.19-0.01,0.44,0.01,0.76c0.02,0.32,0.03,0.56,0.03,0.74l0.04,0.8
		c0.04,0.51,0.18,0.86,0.43,1.07c0.25,0.21,0.56,0.35,0.94,0.43c0.25,0.04,0.51,0.06,0.78,0.06c0.49,0,0.92-0.09,1.29-0.27
		c0.37-0.18,0.6-0.47,0.7-0.87c0.05-0.33,0.08-0.59,0.08-0.78c0.06-0.89,0.09-1.49,0.09-1.8c0-0.84-0.15-1.51-0.46-2.01
		C119.92,6.09,119.35,5.83,118.52,5.83z"/>
	<path d="M134.75,6.78c0,0.06-0.22,0.1-0.67,0.1c-0.33,0-0.57-0.01-0.72-0.02c-0.1,0-0.2,0-0.3-0.01c-0.1-0.01-0.18,0-0.25,0.01
		c0-0.01,0-0.23,0-0.66s-0.37-0.68-1.1-0.77c-0.17-0.03-0.41-0.04-0.74-0.04c-0.35,0-0.67,0.03-0.96,0.08
		c-0.28,0.05-0.5,0.12-0.64,0.21c-0.17,0.13-0.29,0.31-0.38,0.55c-0.09,0.24-0.13,0.47-0.13,0.7c0,0.18,0.03,0.3,0.08,0.36
		c0.14,0.29,0.32,0.49,0.55,0.61c0.13,0.09,0.44,0.2,0.93,0.32s0.92,0.2,1.27,0.21c0.52,0.01,0.98,0.09,1.38,0.24
		c0.4,0.15,0.71,0.35,0.94,0.6c0.23,0.28,0.4,0.55,0.5,0.83c0.11,0.27,0.16,0.57,0.16,0.88c0,0.39-0.09,0.87-0.29,1.42
		c-0.28,0.6-0.72,1.03-1.33,1.31s-1.3,0.41-2.07,0.4c-0.85,0.03-1.6-0.08-2.24-0.33c-0.65-0.25-1.15-0.62-1.5-1.11
		c-0.36-0.49-0.53-1.08-0.53-1.75v-0.1c0.23-0.02,0.56-0.04,1.01-0.04c0.49,0,0.76,0.02,0.8,0.06c0.03,0.03,0.08,0.17,0.16,0.43
		c0.08,0.26,0.23,0.52,0.45,0.79c0.21,0.27,0.58,0.42,1.1,0.46c0.41,0.03,0.65,0.04,0.72,0.04c0.2,0,0.37-0.02,0.5-0.06
		c0.13-0.04,0.31-0.11,0.52-0.21c0.65-0.29,0.96-0.72,0.95-1.27c0.01-0.37-0.09-0.65-0.29-0.86c-0.21-0.2-0.47-0.34-0.79-0.41
		c-0.32-0.07-0.75-0.14-1.29-0.2c-0.39-0.04-0.71-0.08-0.95-0.11s-0.46-0.1-0.65-0.19c-0.66-0.22-1.16-0.55-1.51-1.02
		c-0.35-0.46-0.52-0.97-0.52-1.51c0-0.6,0.17-1.14,0.52-1.62c0.35-0.49,0.83-0.81,1.43-0.96c0.52-0.14,1.18-0.21,2-0.21
		c0.19,0,0.47,0.01,0.85,0.04c0.54,0.04,1.05,0.13,1.52,0.29c0.44,0.19,0.8,0.52,1.08,0.98C134.61,5.7,134.75,6.21,134.75,6.78z"/>
	<path d="M141.24,13.81c-0.01-0.24-0.02-0.44-0.02-0.6s-0.01-0.29-0.02-0.41c-0.03,0.01-0.13,0.08-0.3,0.21s-0.46,0.23-0.85,0.32
		c-0.74,0.27-1.45,0.4-2.15,0.4c-0.79,0-1.37-0.19-1.77-0.57c-0.22-0.19-0.35-0.51-0.4-0.96c-0.05-0.45-0.08-1.17-0.09-2.16V9.46
		c0-0.39,0.01-0.97,0.04-1.73c0.04-0.76,0.06-1.48,0.06-2.17c0-0.33-0.01-0.73-0.04-1.22c0.23-0.03,0.54-0.04,0.93-0.04h0.63
		c0.04,0.38,0.06,0.83,0.06,1.35l-0.02,1.54c0,0.51,0.01,0.87,0.02,1.1l0.02,0.53c0,0.46,0.02,0.99,0.06,1.6
		c0.03,0.42,0.11,0.73,0.26,0.95c0.15,0.21,0.36,0.36,0.66,0.44c0.25,0.04,0.49,0.06,0.7,0.06c0.75,0,1.32-0.2,1.72-0.61
		c0.4-0.41,0.61-0.96,0.62-1.65c0.01-0.46-0.01-1.29-0.06-2.49c-0.03-0.61-0.04-1.01-0.04-1.2c0-0.34,0.01-0.83,0.04-1.46V4.39
		c0.2-0.05,0.4-0.08,0.58-0.09s0.29-0.02,0.33-0.02c0.27,0,0.49-0.01,0.68-0.02l0.02,3.27c0.03,1.5,0.04,2.62,0.04,3.36
		c0,0.61-0.01,1.57-0.04,2.89c-0.28,0-0.59,0.02-0.93,0.06c-0.06,0-0.14,0.01-0.24,0.02c-0.1,0.01-0.19,0.02-0.29,0.02
		C141.31,13.87,141.24,13.85,141.24,13.81z"/>
	<path d="M146.09,4.37c0.03,0.14,0.04,0.32,0.04,0.53v0.48c0.43-0.25,0.94-0.48,1.52-0.67c0.58-0.2,1.17-0.29,1.75-0.29
		c0.7,0.03,1.27,0.22,1.71,0.59c0.3,0.27,0.46,1.35,0.46,3.25c0,0.48-0.01,1.23-0.04,2.24c-0.03,0.96-0.04,1.66-0.04,2.09
		c0,0.56,0.01,0.96,0.02,1.2c-0.24,0.04-0.59,0.06-1.04,0.06h-0.63c-0.03-0.2-0.04-0.56-0.04-1.06v-0.82l0.02-1.22
		c0.03-0.82,0.03-1.41,0.02-1.77c0-0.08-0.02-0.34-0.05-0.78c-0.03-0.44-0.1-0.84-0.22-1.18c-0.04-0.44-0.35-0.65-0.93-0.61
		c-0.87,0.01-1.52,0.13-1.93,0.36c-0.41,0.23-0.64,0.64-0.69,1.23c-0.01,0.17-0.02,0.48-0.02,0.93c0,0.71,0.01,1.47,0.04,2.28
		c0.03,0.48,0.04,0.84,0.04,1.06c0,0.47-0.02,0.95-0.06,1.44v0.08c-0.24,0.05-0.48,0.07-0.71,0.07c-0.23-0.01-0.4-0.01-0.5-0.01
		c-0.2,0-0.36,0.01-0.47,0.02l-0.02-3.27c-0.03-1.49-0.04-2.62-0.04-3.36c0-0.61,0.01-1.57,0.04-2.89c0.15,0.01,0.33,0.02,0.53,0.02
		c0.2,0,0.37-0.01,0.49-0.02c0.08,0,0.17-0.01,0.27-0.02c0.1-0.01,0.2-0.02,0.3-0.02C146.02,4.31,146.09,4.33,146.09,4.37z"/>
	<path d="M153.31,0l1.73,0.06c0,0.52-0.01,1.8-0.04,3.86c-0.03,2.53-0.04,4.52-0.04,5.97c0,1.6,0.02,2.87,0.06,3.82
		c-0.08,0.09-0.29,0.13-0.63,0.13l-0.59-0.02c-0.11-0.01-0.25-0.02-0.42-0.02c-0.1,0-0.16,0.01-0.19,0.02
		c0.08-1.03,0.11-2.06,0.11-3.1c0-0.79-0.03-1.96-0.08-3.53c-0.05-1.57-0.08-2.75-0.08-3.55C153.16,2.29,153.21,1.08,153.31,0z"/>
	<path d="M157.26,4.22c0.09-0.01,0.27-0.01,0.53,0c0.38,0.03,0.8,0.04,1.25,0.04v0.06c0,0.57-0.01,1.45-0.04,2.64
		c-0.04,1.22-0.06,2.45-0.06,3.69c0,1.17,0.03,2.2,0.08,3.12c-0.18,0.04-0.44,0.06-0.8,0.06c-0.36,0-0.57,0-0.65,0
		c-0.23,0-0.37,0.01-0.42,0.02c0.01-0.37,0.02-0.92,0.02-1.67v-1.71v-1.6c-0.03-0.89-0.04-1.57-0.04-2.05
		c0-0.87,0.04-1.73,0.11-2.57V4.22z M157.18,0.13c0.79,0.03,1.38,0.04,1.79,0.04l0.06,2.51c-0.13,0.06-0.35,0.09-0.68,0.09
		c-0.2,0-0.35-0.01-0.46-0.02c-0.08,0-0.17,0-0.27-0.01s-0.22,0-0.36,0.01c0-0.19-0.01-0.5-0.04-0.93
		C157.18,0.99,157.17,0.42,157.18,0.13z"/>
	<path d="M167.96,16.28c-0.24,0.54-0.54,0.91-0.91,1.08s-0.79,0.29-1.27,0.32c-0.56,0.03-0.91,0.04-1.04,0.04
		c-0.24,0-0.55-0.01-0.93-0.04c-0.84-0.06-1.54-0.34-2.11-0.84c-0.57-0.49-0.85-1.12-0.85-1.86c0-0.16,0.01-0.29,0.02-0.38
		c0.06-0.03,0.23-0.05,0.51-0.07c0.28-0.02,0.54-0.03,0.8-0.03c0.21,0,0.33,0.01,0.36,0.04c0.01,0.03,0.02,0.12,0.02,0.29
		c0,0.33,0.08,0.62,0.23,0.87c0.15,0.25,0.48,0.42,0.97,0.49c0.25,0.01,0.58,0.02,0.99,0.02c0.53,0,0.92-0.03,1.17-0.09
		c0.25-0.06,0.41-0.16,0.47-0.3s0.09-0.36,0.07-0.66v-0.7v-0.63c0-0.06,0-0.13,0.01-0.21c0.01-0.08,0.02-0.18,0.03-0.32
		c-0.21,0.25-0.46,0.41-0.75,0.46s-0.81,0.08-1.59,0.08h-0.72c-1.27,0-2.09-0.4-2.47-1.2c-0.32-0.59-0.49-1.34-0.53-2.22
		c0-1.18,0.05-2.15,0.14-2.93c0.09-0.77,0.37-1.47,0.84-2.1c0.46-0.63,1.19-0.97,2.19-1.04c0.66-0.01,1.17,0.01,1.53,0.07
		c0.36,0.06,0.63,0.16,0.81,0.29s0.32,0.34,0.44,0.59c0.04-0.18,0.06-0.34,0.06-0.49c0-0.08,0-0.15-0.01-0.24
		c-0.01-0.08,0-0.16,0.01-0.24c0.33-0.03,0.58-0.04,0.74-0.04l0.99,0.02c0.05,1.47,0.08,3.19,0.08,5.17c0,1.96-0.03,3.67-0.09,5.13
		c0,0.13,0,0.3-0.01,0.51c-0.01,0.21-0.02,0.42-0.04,0.62C168.06,15.96,168.02,16.13,167.96,16.28z M161.89,9.29v0.23
		c-0.04,0.68,0.08,1.32,0.34,1.92c0.27,0.6,0.76,0.91,1.48,0.95c0.19,0.01,0.45,0.02,0.78,0.02c0.68,0,1.17-0.12,1.47-0.36
		c0.3-0.24,0.46-0.71,0.5-1.41c0-0.9-0.01-1.62-0.02-2.17c0-1.28-0.29-2.07-0.86-2.38c-0.27-0.15-0.63-0.23-1.1-0.23
		c-0.25,0-0.5,0.02-0.74,0.06c-0.71,0.13-1.2,0.48-1.46,1.07S161.89,8.35,161.89,9.29z"/>
	<path d="M171.26,3.63v1.69c0.34-0.29,0.64-0.51,0.9-0.66s0.64-0.24,1.15-0.28c0.3-0.04,0.59-0.06,0.86-0.06
		c0.92,0,1.65,0.22,2.17,0.67c0.16,0.14,0.28,0.47,0.34,0.99s0.09,1.2,0.09,2.05c0,0.48-0.01,1.24-0.04,2.28
		c-0.03,1.01-0.04,1.74-0.04,2.17c0,0.35,0.01,0.79,0.04,1.29c-0.51,0.08-1.05,0.1-1.63,0.08c-0.03-0.38-0.04-0.71-0.04-0.99v-1.14
		V8c-0.03-0.81-0.21-1.34-0.57-1.58c-0.08-0.05-0.23-0.1-0.46-0.15c-0.27-0.08-0.54-0.11-0.82-0.11c-0.49,0-0.92,0.12-1.26,0.37
		s-0.57,0.63-0.67,1.15c-0.09,0.48-0.13,1.06-0.13,1.73l0.02,0.65c0.03,0.84,0.04,1.53,0.04,2.07c0,0.68-0.01,1.21-0.04,1.58v0.08
		c-0.25,0.06-0.46,0.09-0.61,0.09l-0.57-0.02c-0.18,0-0.32,0.01-0.44,0.02c0-1.46-0.01-2.66-0.02-3.61l-0.02-5.81
		c0-1.42,0.01-2.88,0.04-4.37c0.39,0.04,0.71,0.05,0.95,0.04c0.06,0,0.14-0.01,0.24-0.02s0.19-0.02,0.29-0.02
		c0.13,0,0.19,0.02,0.19,0.06c0.03,0.11,0.04,0.89,0.04,2.32V3.63z"/>
	<path d="M181.31,0.8v2.91l0.02,1.06c0.82-0.03,1.84-0.07,3.06-0.13c0.08,0.1,0.11,0.29,0.11,0.57l-0.02,0.44
		c-0.03,0.28-0.03,0.48-0.02,0.61c-1.38,0-2.41-0.01-3.1-0.02v2.91v0.65c0,0.57,0.01,0.98,0.04,1.22c0.03,0.24,0.08,0.45,0.15,0.63
		c0.2,0.25,0.61,0.41,1.23,0.47s1.17,0.08,1.68,0.06c0.06,0.51,0.09,0.83,0.09,0.97c0,0.23-0.03,0.46-0.09,0.68
		c-0.27,0.01-0.68,0.02-1.25,0.02c-0.99,0-1.76-0.12-2.32-0.36s-0.91-0.72-1.06-1.44c-0.14-1.23-0.21-2.83-0.21-4.81V6.31
		c-0.08,0.01-0.27,0.02-0.57,0.02l-1.44-0.02l0.06-1.56c0.28,0.03,0.94,0.04,1.99,0.04l-0.02-1.99V1.9c0-0.53,0.01-0.91,0.04-1.12
		c0.18-0.01,0.45-0.01,0.82,0.02l0.51,0.02C181.15,0.82,181.25,0.81,181.31,0.8z"/>
	<path d="M189.73,4.22c0.09-0.01,0.27-0.01,0.53,0c0.38,0.03,0.8,0.04,1.25,0.04v0.06c0,0.57-0.01,1.45-0.04,2.64
		c-0.04,1.22-0.06,2.45-0.06,3.69c0,1.17,0.02,2.2,0.08,3.12c-0.18,0.04-0.44,0.06-0.8,0.06s-0.57,0-0.65,0
		c-0.23,0-0.37,0.01-0.42,0.02c0.01-0.37,0.02-0.92,0.02-1.67v-1.71v-1.6c-0.03-0.89-0.04-1.57-0.04-2.05
		c0-0.87,0.04-1.73,0.11-2.57V4.22z M189.65,0.13c0.79,0.03,1.38,0.04,1.79,0.04l0.06,2.51c-0.13,0.06-0.35,0.09-0.68,0.09
		c-0.2,0-0.35-0.01-0.46-0.02c-0.08,0-0.17,0-0.27-0.01c-0.1-0.01-0.22,0-0.36,0.01c0-0.19-0.01-0.5-0.04-0.93
		C189.65,0.99,189.64,0.42,189.65,0.13z"/>
	<path d="M194.95,4.37c0.03,0.14,0.04,0.32,0.04,0.53v0.48c0.43-0.25,0.94-0.48,1.52-0.67c0.58-0.2,1.17-0.29,1.75-0.29
		c0.7,0.03,1.27,0.22,1.71,0.59c0.3,0.27,0.46,1.35,0.46,3.25c0,0.48-0.01,1.23-0.04,2.24c-0.03,0.96-0.04,1.66-0.04,2.09
		c0,0.56,0.01,0.96,0.02,1.2c-0.24,0.04-0.59,0.06-1.04,0.06h-0.63c-0.03-0.2-0.04-0.56-0.04-1.06v-0.82l0.02-1.22
		c0.03-0.82,0.03-1.41,0.02-1.77c0-0.08-0.02-0.34-0.05-0.78s-0.1-0.84-0.22-1.18c-0.04-0.44-0.35-0.65-0.93-0.61
		c-0.87,0.01-1.52,0.13-1.93,0.36c-0.41,0.23-0.64,0.64-0.69,1.23c-0.01,0.17-0.02,0.48-0.02,0.93c0,0.71,0.01,1.47,0.04,2.28
		c0.02,0.48,0.04,0.84,0.04,1.06c0,0.47-0.02,0.95-0.06,1.44v0.08c-0.24,0.05-0.48,0.07-0.71,0.07c-0.24-0.01-0.4-0.01-0.5-0.01
		c-0.2,0-0.36,0.01-0.47,0.02l-0.02-3.27c-0.03-1.49-0.04-2.62-0.04-3.36c0-0.61,0.01-1.57,0.04-2.89c0.15,0.01,0.33,0.02,0.53,0.02
		c0.2,0,0.37-0.01,0.49-0.02c0.08,0,0.16-0.01,0.27-0.02c0.1-0.01,0.2-0.02,0.3-0.02C194.89,4.31,194.95,4.33,194.95,4.37z"/>
	<path d="M3.71,23.6v2.91l0.02,1.06c0.82-0.03,1.84-0.07,3.06-0.13c0.08,0.1,0.11,0.29,0.11,0.57l-0.02,0.44
		c-0.03,0.28-0.03,0.48-0.02,0.61c-1.38,0-2.41-0.01-3.1-0.02v2.91v0.65c0,0.57,0.01,0.98,0.04,1.22c0.03,0.24,0.08,0.45,0.15,0.63
		c0.2,0.25,0.61,0.41,1.23,0.47s1.17,0.08,1.68,0.06c0.06,0.51,0.09,0.83,0.09,0.97c0,0.23-0.03,0.46-0.09,0.68
		c-0.27,0.01-0.68,0.02-1.25,0.02c-0.99,0-1.76-0.12-2.32-0.36s-0.91-0.72-1.06-1.44C2.08,33.6,2.01,32,2.01,30.02v-0.91
		c-0.08,0.01-0.27,0.02-0.57,0.02L0,29.11l0.06-1.56c0.28,0.03,0.94,0.04,1.99,0.04l-0.02-1.99V24.7c0-0.53,0.01-0.91,0.04-1.12
		c0.18-0.01,0.45-0.01,0.82,0.02l0.51,0.02C3.54,23.62,3.64,23.61,3.71,23.6z"/>
	<path d="M9.52,26.43v1.69c0.34-0.29,0.64-0.51,0.9-0.66s0.64-0.24,1.15-0.28c0.3-0.04,0.59-0.06,0.85-0.06
		c0.92,0,1.65,0.22,2.17,0.67c0.17,0.14,0.28,0.47,0.34,0.99c0.06,0.52,0.09,1.2,0.09,2.05c0,0.48-0.01,1.24-0.04,2.28
		c-0.03,1.01-0.04,1.74-0.04,2.17c0,0.35,0.01,0.79,0.04,1.29c-0.51,0.08-1.05,0.1-1.63,0.08c-0.03-0.38-0.04-0.71-0.04-0.99v-1.14
		V30.8c-0.03-0.81-0.22-1.34-0.57-1.58c-0.08-0.05-0.23-0.1-0.46-0.15c-0.27-0.08-0.54-0.11-0.82-0.11c-0.49,0-0.92,0.12-1.26,0.37
		c-0.35,0.25-0.57,0.63-0.67,1.15c-0.09,0.48-0.13,1.06-0.13,1.73l0.02,0.65c0.03,0.84,0.04,1.53,0.04,2.07
		c0,0.68-0.01,1.21-0.04,1.58v0.08c-0.25,0.06-0.46,0.09-0.61,0.09l-0.57-0.02c-0.18,0-0.32,0.01-0.44,0.02
		c0-1.46-0.01-2.66-0.02-3.61l-0.02-5.81c0-1.42,0.01-2.88,0.04-4.37c0.39,0.04,0.71,0.05,0.95,0.04c0.06,0,0.14-0.01,0.24-0.02
		c0.09-0.01,0.19-0.02,0.29-0.02c0.13,0,0.19,0.02,0.19,0.06c0.03,0.11,0.04,0.89,0.04,2.32V26.43z"/>
	<path d="M17.73,31.81v0.34l-0.02,0.55c0,1.57,0.77,2.36,2.32,2.36c0.62,0,1.08-0.14,1.38-0.43c0.3-0.29,0.45-0.67,0.45-1.17
		c0-0.08-0.01-0.21-0.04-0.42c0.27-0.04,0.51-0.06,0.74-0.06c0.2,0,0.35,0.01,0.46,0.02c0.08,0,0.17,0,0.28,0.01
		c0.11,0.01,0.23,0,0.37-0.01c0.01,0.72-0.01,1.3-0.08,1.73s-0.21,0.84-0.46,1.23c-0.23,0.34-0.62,0.59-1.19,0.73
		s-1.18,0.22-1.85,0.22c-0.3,0-0.59-0.01-0.84-0.04c-0.26-0.03-0.42-0.05-0.48-0.08c-0.99-0.17-1.7-0.79-2.15-1.87
		s-0.63-2.32-0.57-3.71c0.01-0.1,0.03-0.31,0.06-0.64c0.03-0.32,0.06-0.66,0.1-1c0.04-0.34,0.13-0.68,0.26-1.01
		c0.24-0.56,0.68-0.99,1.31-1.29c0.63-0.3,1.34-0.46,2.11-0.46c0.41,0,0.83,0.05,1.27,0.15c1.72,0.29,2.58,1.59,2.58,3.89
		c0,0.19-0.01,0.46-0.04,0.82c-0.24,0.08-0.95,0.14-2.13,0.19c-0.14,0.01-0.44,0.02-0.91,0.02c-1,0-1.74-0.01-2.22-0.04
		C18.11,31.86,17.88,31.84,17.73,31.81z M22.34,30.38c-0.01-0.39-0.11-0.78-0.29-1.16c-0.18-0.38-0.45-0.68-0.79-0.89
		c-0.19-0.09-0.36-0.15-0.49-0.17c-0.14-0.03-0.32-0.04-0.53-0.04c-0.82,0-1.41,0.17-1.76,0.51c-0.35,0.34-0.57,0.83-0.66,1.46
		c-0.03,0.15-0.04,0.25-0.04,0.3c0,0.15,0.07,0.25,0.22,0.3c0.15,0.05,0.46,0.08,0.94,0.08c0.47,0,0.87-0.01,1.2-0.02
		c1.22,0,1.9-0.01,2.05-0.02c0.06-0.01,0.1-0.03,0.12-0.05c0.02-0.02,0.03-0.05,0.03-0.1V30.38z"/>
	<path d="M34.26,32.89c0.15,0.03,0.29,0.04,0.42,0.04l0.67-0.02c0.2,0,0.38,0.02,0.53,0.06c-0.06,0.87-0.13,1.55-0.2,2.03
		c-0.07,0.48-0.18,0.8-0.33,0.95c-0.24,0.34-0.57,0.58-1,0.7c-0.42,0.13-0.93,0.19-1.51,0.19c-0.23,0-0.57-0.01-1.03-0.04
		l-0.87-0.02c-0.75-0.13-1.3-0.41-1.67-0.85c-0.37-0.44-0.61-0.95-0.71-1.55c-0.11-0.6-0.18-1.38-0.22-2.36
		c0-0.71-0.01-1.23-0.02-1.56c0-0.75,0.14-1.58,0.42-2.49c0.17-0.37,0.52-0.64,1.05-0.83s1.14-0.28,1.8-0.28
		c0.1,0.01,0.25,0.02,0.44,0.02c0.11,0,0.26,0,0.43-0.01c0.17-0.01,0.38,0,0.62,0.01c0.95,0.09,1.65,0.35,2.11,0.8
		c0.29,0.2,0.48,0.53,0.56,0.97c0.08,0.44,0.14,1.11,0.16,2l0.02,0.46c-0.19,0.04-0.38,0.06-0.57,0.06c-0.33,0-0.67-0.03-1.01-0.1
		c-0.01-0.9-0.17-1.51-0.48-1.84c-0.31-0.33-0.8-0.49-1.47-0.49c-0.14,0-0.39,0.01-0.74,0.04c-0.33,0.01-0.59,0.04-0.77,0.09
		c-0.18,0.05-0.34,0.17-0.48,0.36c-0.14,0.19-0.24,0.48-0.3,0.87c-0.04,0.27-0.06,0.74-0.06,1.42v1.52c-0.03,0.42,0.08,0.85,0.3,1.3
		c0.23,0.45,0.68,0.71,1.37,0.77c0.13,0.01,0.3,0.02,0.51,0.02c0.59,0,1.04-0.11,1.33-0.34c0.29-0.23,0.48-0.49,0.56-0.79
		C34.18,33.72,34.23,33.35,34.26,32.89z"/>
	<path d="M43,27.08c0.29-0.01,0.67,0,1.12,0.04l0.49,0.04c0.03,0.2,0.04,0.35,0.04,0.46v0.19c-0.01,0.29-0.02,0.73-0.02,1.31
		c0,0.48,0.01,1.19,0.04,2.13l0.02,2.13c0,0.91-0.03,1.74-0.08,2.49c0,0.04,0,0.12,0,0.25c0,0.13-0.01,0.24-0.04,0.34
		c-0.03,0.1-0.1,0.17-0.21,0.19h-0.32l-0.61-0.02c-0.1,0-0.19,0.01-0.27,0.02s-0.15,0.02-0.21,0.02c-0.13-0.04-0.19-0.18-0.19-0.42
		c-0.01-0.1-0.01-0.22,0.01-0.34c0.02-0.13,0.03-0.23,0.03-0.32c-0.3,0.42-0.79,0.7-1.44,0.85c-0.66,0.15-1.3,0.23-1.94,0.23
		c-0.61,0-1.12-0.27-1.55-0.81c-0.42-0.54-0.74-1.2-0.94-1.99c-0.2-0.79-0.3-1.55-0.3-2.3c0-0.82,0.14-1.56,0.42-2.22
		c0.28-0.66,0.66-1.18,1.15-1.57c0.49-0.39,1.03-0.59,1.62-0.6l0.61-0.02c0.57,0,1.04,0.07,1.42,0.2c0.37,0.13,0.65,0.38,0.83,0.73
		c0-0.11,0.01-0.26,0.04-0.44c0.03-0.25,0.04-0.43,0.04-0.53C42.75,27.09,42.83,27.08,43,27.08z M40.87,28.79
		c-0.66-0.01-1.21,0.16-1.66,0.5s-0.72,0.76-0.83,1.24c-0.1,0.37-0.15,0.86-0.15,1.48c0.06,2.04,0.89,3.01,2.47,2.93
		c0.65,0,1.12-0.11,1.41-0.34c0.29-0.23,0.47-0.55,0.54-0.97c0.07-0.42,0.1-1.04,0.1-1.88c0-0.91-0.04-1.55-0.11-1.93
		c-0.08-0.37-0.24-0.63-0.48-0.77C41.9,28.91,41.48,28.82,40.87,28.79z"/>
	<path d="M45.52,27.11c0.19,0.03,0.46,0.04,0.8,0.04c0.11,0,0.25,0,0.41-0.01c0.16-0.01,0.33,0,0.52,0.01
		c0.2,0.71,0.58,2.06,1.12,4.05c0.27,1,0.46,1.72,0.59,2.17c0.13,0.44,0.28,0.87,0.46,1.29c0.11-0.28,0.25-0.7,0.42-1.27
		c0.16-0.57,0.27-0.94,0.32-1.12c0.62-2.12,1.15-3.81,1.6-5.07c0.11,0,0.3-0.01,0.55-0.04c0.46-0.03,0.84-0.03,1.14-0.02
		c-0.25,0.67-0.49,1.37-0.7,2.08c-0.22,0.72-0.42,1.42-0.61,2.12c-0.61,2.1-1.15,3.86-1.63,5.26c-0.2,0.04-0.53,0.06-0.97,0.06
		l-1.37-0.02c-0.56-1.77-0.97-3.12-1.23-4.04c-0.26-0.92-0.52-1.93-0.79-3.03L45.52,27.11z"/>
	<path d="M55.31,31.81v0.34l-0.02,0.55c0,1.57,0.77,2.36,2.32,2.36c0.62,0,1.08-0.14,1.38-0.43s0.45-0.67,0.45-1.17
		c0-0.08-0.01-0.21-0.04-0.42c0.27-0.04,0.51-0.06,0.74-0.06c0.2,0,0.35,0.01,0.46,0.02c0.08,0,0.17,0,0.28,0.01
		c0.11,0.01,0.23,0,0.37-0.01c0.01,0.72-0.01,1.3-0.08,1.73s-0.22,0.84-0.46,1.23c-0.23,0.34-0.62,0.59-1.19,0.73
		s-1.18,0.22-1.85,0.22c-0.3,0-0.59-0.01-0.85-0.04s-0.42-0.05-0.48-0.08c-0.99-0.17-1.7-0.79-2.15-1.87
		c-0.44-1.08-0.63-2.32-0.57-3.71c0.01-0.1,0.03-0.31,0.06-0.64c0.03-0.32,0.06-0.66,0.1-1s0.13-0.68,0.26-1.01
		c0.24-0.56,0.68-0.99,1.31-1.29c0.63-0.3,1.34-0.46,2.11-0.46c0.41,0,0.83,0.05,1.27,0.15c1.72,0.29,2.58,1.59,2.58,3.89
		c0,0.19-0.01,0.46-0.04,0.82c-0.24,0.08-0.95,0.14-2.13,0.19c-0.14,0.01-0.44,0.02-0.91,0.02c-1,0-1.74-0.01-2.22-0.04
		C55.7,31.86,55.46,31.84,55.31,31.81z M59.93,30.38c-0.01-0.39-0.11-0.78-0.29-1.16c-0.18-0.38-0.45-0.68-0.79-0.89
		c-0.19-0.09-0.35-0.15-0.49-0.17s-0.32-0.04-0.53-0.04c-0.82,0-1.41,0.17-1.76,0.51c-0.35,0.34-0.57,0.83-0.66,1.46
		c-0.03,0.15-0.04,0.25-0.04,0.3c0,0.15,0.07,0.25,0.22,0.3c0.14,0.05,0.46,0.08,0.94,0.08c0.47,0,0.87-0.01,1.2-0.02
		c1.22,0,1.9-0.01,2.05-0.02c0.06-0.01,0.1-0.03,0.12-0.05c0.02-0.02,0.03-0.05,0.03-0.1V30.38z"/>
	<path d="M64.24,37.01l-0.15,0.76l-0.15,0.74c-0.04-0.01-0.19-0.02-0.46-0.02c-0.1-0.01-0.29-0.02-0.55-0.02
		c-0.03-0.03,0.02-0.27,0.13-0.74c0.14-0.53,0.22-0.9,0.25-1.1l-0.63-0.08c-0.03,0-0.04-0.01-0.06-0.02c0-0.35,0.02-1.08,0.08-2.18
		v-0.02h0.02c0.18-0.04,0.36-0.06,0.55-0.06c0.13,0,0.34,0.01,0.65,0.04c0.23,0.03,0.4,0.04,0.51,0.04h0.02l-0.08,2.18h-0.04
		l-0.02,0.06c0,0.08-0.01,0.15-0.03,0.22C64.27,36.88,64.25,36.95,64.24,37.01z"/>
	<path d="M70.22,27.02c0.09-0.01,0.27-0.01,0.53,0c0.38,0.03,0.8,0.04,1.25,0.04v0.06c0,0.57-0.01,1.45-0.04,2.64
		c-0.04,1.22-0.06,2.45-0.06,3.69c0,1.17,0.03,2.2,0.08,3.12c-0.18,0.04-0.44,0.06-0.8,0.06c-0.36,0-0.57,0-0.65,0
		c-0.23,0-0.37,0.01-0.42,0.02c0.01-0.37,0.02-0.92,0.02-1.67v-1.71v-1.6c-0.03-0.89-0.04-1.57-0.04-2.05
		c0-0.87,0.04-1.73,0.11-2.57V27.02z M70.15,22.93c0.79,0.03,1.38,0.04,1.79,0.04l0.06,2.51c-0.13,0.06-0.35,0.09-0.68,0.09
		c-0.2,0-0.35-0.01-0.46-0.02c-0.08,0-0.17,0-0.27-0.01s-0.22,0-0.36,0.01c0-0.19-0.01-0.5-0.04-0.93
		C70.15,23.79,70.13,23.22,70.15,22.93z"/>
	<path d="M76.89,23.6v2.91l0.02,1.06c0.82-0.03,1.84-0.07,3.06-0.13c0.08,0.1,0.11,0.29,0.11,0.57l-0.02,0.44
		c-0.03,0.28-0.03,0.48-0.02,0.61c-1.38,0-2.41-0.01-3.1-0.02v2.91v0.65c0,0.57,0.01,0.98,0.04,1.22c0.03,0.24,0.08,0.45,0.15,0.63
		c0.2,0.25,0.61,0.41,1.23,0.47s1.17,0.08,1.68,0.06c0.06,0.51,0.09,0.83,0.09,0.97c0,0.23-0.03,0.46-0.09,0.68
		c-0.27,0.01-0.68,0.02-1.25,0.02c-0.99,0-1.76-0.12-2.32-0.36s-0.91-0.72-1.06-1.44C75.27,33.6,75.2,32,75.2,30.02v-0.91
		c-0.08,0.01-0.27,0.02-0.57,0.02l-1.44-0.02l0.06-1.56c0.28,0.03,0.94,0.04,1.99,0.04l-0.02-1.99V24.7c0-0.53,0.01-0.91,0.04-1.12
		c0.18-0.01,0.45-0.01,0.82,0.02l0.51,0.02C76.73,23.62,76.83,23.61,76.89,23.6z"/>
	<path d="M90.5,32.89c0.15,0.03,0.29,0.04,0.42,0.04l0.67-0.02c0.2,0,0.38,0.02,0.53,0.06c-0.06,0.87-0.13,1.55-0.2,2.03
		c-0.07,0.48-0.18,0.8-0.33,0.95c-0.24,0.34-0.57,0.58-1,0.7c-0.42,0.13-0.93,0.19-1.51,0.19c-0.23,0-0.57-0.01-1.03-0.04
		l-0.87-0.02c-0.75-0.13-1.3-0.41-1.67-0.85c-0.37-0.44-0.61-0.95-0.71-1.55c-0.11-0.6-0.18-1.38-0.22-2.36
		c0-0.71-0.01-1.23-0.02-1.56c0-0.75,0.14-1.58,0.42-2.49c0.16-0.37,0.52-0.64,1.05-0.83c0.54-0.18,1.14-0.28,1.79-0.28
		c0.1,0.01,0.25,0.02,0.44,0.02c0.11,0,0.26,0,0.43-0.01c0.17-0.01,0.38,0,0.62,0.01c0.95,0.09,1.65,0.35,2.11,0.8
		c0.29,0.2,0.48,0.53,0.56,0.97c0.08,0.44,0.14,1.11,0.16,2l0.02,0.46c-0.19,0.04-0.38,0.06-0.57,0.06c-0.33,0-0.67-0.03-1.01-0.1
		c-0.01-0.9-0.17-1.51-0.48-1.84c-0.31-0.33-0.8-0.49-1.47-0.49c-0.14,0-0.39,0.01-0.74,0.04c-0.33,0.01-0.59,0.04-0.77,0.09
		c-0.18,0.05-0.35,0.17-0.49,0.36c-0.14,0.19-0.24,0.48-0.3,0.87c-0.04,0.27-0.06,0.74-0.06,1.42v1.52c-0.03,0.42,0.08,0.85,0.3,1.3
		c0.23,0.45,0.68,0.71,1.37,0.77c0.13,0.01,0.3,0.02,0.51,0.02c0.6,0,1.04-0.11,1.33-0.34c0.29-0.23,0.48-0.49,0.56-0.79
		C90.42,33.72,90.47,33.35,90.5,32.89z"/>
	<path d="M99.24,27.08c0.29-0.01,0.67,0,1.12,0.04l0.49,0.04c0.03,0.2,0.04,0.35,0.04,0.46v0.19c-0.01,0.29-0.02,0.73-0.02,1.31
		c0,0.48,0.01,1.19,0.04,2.13l0.02,2.13c0,0.91-0.03,1.74-0.08,2.49c0,0.04,0,0.12,0,0.25c0,0.13-0.01,0.24-0.04,0.34
		s-0.09,0.17-0.21,0.19h-0.32l-0.61-0.02c-0.1,0-0.19,0.01-0.27,0.02s-0.15,0.02-0.21,0.02c-0.13-0.04-0.19-0.18-0.19-0.42
		c-0.01-0.1-0.01-0.22,0.01-0.34c0.02-0.13,0.03-0.23,0.03-0.32c-0.3,0.42-0.79,0.7-1.44,0.85c-0.66,0.15-1.3,0.23-1.94,0.23
		c-0.61,0-1.12-0.27-1.55-0.81c-0.42-0.54-0.74-1.2-0.94-1.99c-0.2-0.79-0.3-1.55-0.3-2.3c0-0.82,0.14-1.56,0.42-2.22
		c0.28-0.66,0.66-1.18,1.15-1.57c0.49-0.39,1.03-0.59,1.62-0.6l0.61-0.02c0.57,0,1.04,0.07,1.42,0.2s0.65,0.38,0.83,0.73
		c0-0.11,0.01-0.26,0.04-0.44c0.03-0.25,0.04-0.43,0.04-0.53C98.99,27.09,99.07,27.08,99.24,27.08z M97.11,28.79
		c-0.66-0.01-1.21,0.16-1.66,0.5c-0.45,0.35-0.73,0.76-0.83,1.24c-0.1,0.37-0.15,0.86-0.15,1.48c0.06,2.04,0.89,3.01,2.47,2.93
		c0.65,0,1.11-0.11,1.41-0.34c0.29-0.23,0.47-0.55,0.54-0.97s0.1-1.04,0.1-1.88c0-0.91-0.04-1.55-0.11-1.93
		c-0.08-0.37-0.24-0.63-0.49-0.77C98.14,28.91,97.72,28.82,97.11,28.79z"/>
	<path d="M104.04,27.17c0.03,0.14,0.04,0.32,0.04,0.53v0.48c0.43-0.25,0.94-0.48,1.52-0.67c0.58-0.2,1.17-0.29,1.75-0.29
		c0.7,0.03,1.27,0.22,1.71,0.59c0.3,0.27,0.46,1.35,0.46,3.25c0,0.48-0.01,1.23-0.04,2.24c-0.03,0.96-0.04,1.66-0.04,2.09
		c0,0.56,0.01,0.96,0.02,1.2c-0.24,0.04-0.59,0.06-1.04,0.06h-0.63c-0.03-0.2-0.04-0.56-0.04-1.06v-0.82l0.02-1.22
		c0.03-0.82,0.03-1.41,0.02-1.77c0-0.08-0.02-0.34-0.05-0.78c-0.03-0.44-0.1-0.84-0.22-1.18c-0.04-0.44-0.35-0.65-0.93-0.61
		c-0.87,0.01-1.52,0.13-1.93,0.36c-0.41,0.23-0.64,0.64-0.69,1.23c-0.01,0.17-0.02,0.48-0.02,0.93c0,0.71,0.01,1.47,0.04,2.28
		c0.03,0.48,0.04,0.84,0.04,1.06c0,0.47-0.02,0.95-0.06,1.44v0.08c-0.24,0.05-0.48,0.07-0.71,0.07c-0.23-0.01-0.4-0.01-0.5-0.01
		c-0.2,0-0.36,0.01-0.47,0.02l-0.02-3.27c-0.03-1.49-0.04-2.62-0.04-3.36c0-0.61,0.01-1.57,0.04-2.89c0.15,0.01,0.33,0.02,0.53,0.02
		c0.2,0,0.37-0.01,0.49-0.02c0.08,0,0.17-0.01,0.27-0.02c0.1-0.01,0.2-0.02,0.3-0.02C103.98,27.11,104.04,27.13,104.04,27.17z"/>
	<path d="M116.37,23.41c0,0.11,0,0.21,0.01,0.28c0.01,0.07,0.01,0.12,0.01,0.16c0.01,0.09,0.02,0.26,0.02,0.51l0.04,0.97l-0.02,2.74
		c0.01-0.09,0.1-0.21,0.26-0.37c0.16-0.16,0.37-0.3,0.64-0.42c0.27-0.12,0.56-0.19,0.89-0.2c1.11-0.04,1.97,0.05,2.57,0.27
		c0.53,0.19,0.92,0.64,1.17,1.35s0.37,1.54,0.37,2.51c-0.04,1.1-0.13,2-0.27,2.71c-0.14,0.7-0.44,1.3-0.89,1.8s-1.13,0.78-2.03,0.85
		c-0.2,0.03-0.37,0.04-0.49,0.04c-0.29,0-0.56-0.04-0.82-0.13c-0.2-0.06-0.41-0.19-0.61-0.38c-0.41-0.23-0.68-0.52-0.84-0.87
		c0.03,0.18,0.04,0.4,0.04,0.67l-0.02,0.61c0,0.08-0.01,0.12-0.02,0.13c-0.08,0.01-0.21,0.02-0.4,0.02c-0.28,0-0.49-0.01-0.65-0.02
		l-0.76-0.02c-0.01-0.46-0.02-1.15-0.02-2.09c0-1.01,0.01-1.92,0.02-2.73c0.01-0.8,0.03-1.48,0.04-2.04
		c0.05-2.31,0.08-4.05,0.08-5.24v-1.25c0.22-0.04,0.46-0.06,0.74-0.06c0.23,0,0.43,0.01,0.61,0.03c0.18,0.02,0.29,0.04,0.34,0.05
		V23.41z M120.78,31.98c0-0.42-0.03-0.73-0.08-0.95c-0.05-0.52-0.13-0.93-0.23-1.24c-0.1-0.31-0.33-0.58-0.68-0.8
		c-0.35-0.22-0.89-0.33-1.62-0.33c-0.71,0-1.19,0.25-1.43,0.75c-0.25,0.5-0.37,1.28-0.37,2.35c0,0.9,0.16,1.67,0.48,2.31
		s0.84,0.96,1.55,0.96c0.79,0,1.38-0.26,1.78-0.77C120.58,33.73,120.78,32.98,120.78,31.98z"/>
	<path d="M124.81,31.81v0.34l-0.02,0.55c0,1.57,0.77,2.36,2.32,2.36c0.62,0,1.08-0.14,1.38-0.43s0.45-0.67,0.45-1.17
		c0-0.08-0.01-0.21-0.04-0.42c0.27-0.04,0.51-0.06,0.74-0.06c0.2,0,0.35,0.01,0.46,0.02c0.08,0,0.17,0,0.28,0.01
		c0.11,0.01,0.23,0,0.37-0.01c0.01,0.72-0.01,1.3-0.08,1.73s-0.22,0.84-0.46,1.23c-0.23,0.34-0.62,0.59-1.19,0.73
		s-1.18,0.22-1.85,0.22c-0.3,0-0.59-0.01-0.85-0.04s-0.42-0.05-0.48-0.08c-0.99-0.17-1.7-0.79-2.15-1.87
		c-0.44-1.08-0.63-2.32-0.57-3.71c0.01-0.1,0.03-0.31,0.06-0.64c0.03-0.32,0.06-0.66,0.1-1s0.13-0.68,0.26-1.01
		c0.24-0.56,0.68-0.99,1.31-1.29c0.63-0.3,1.34-0.46,2.11-0.46c0.41,0,0.83,0.05,1.27,0.15c1.72,0.29,2.58,1.59,2.58,3.89
		c0,0.19-0.01,0.46-0.04,0.82c-0.24,0.08-0.95,0.14-2.13,0.19c-0.14,0.01-0.44,0.02-0.91,0.02c-1,0-1.74-0.01-2.22-0.04
		C125.2,31.86,124.96,31.84,124.81,31.81z M129.43,30.38c-0.01-0.39-0.11-0.78-0.29-1.16c-0.18-0.38-0.45-0.68-0.79-0.89
		c-0.19-0.09-0.35-0.15-0.49-0.17s-0.32-0.04-0.53-0.04c-0.82,0-1.41,0.17-1.76,0.51c-0.35,0.34-0.57,0.83-0.66,1.46
		c-0.03,0.15-0.04,0.25-0.04,0.3c0,0.15,0.07,0.25,0.22,0.3c0.14,0.05,0.46,0.08,0.94,0.08c0.47,0,0.87-0.01,1.2-0.02
		c1.22,0,1.9-0.01,2.05-0.02c0.06-0.01,0.1-0.03,0.12-0.05c0.02-0.02,0.03-0.05,0.03-0.1V30.38z"/>
	<path d="M134.84,27.11c0.19,0.03,0.46,0.04,0.8,0.04c0.11,0,0.25,0,0.41-0.01c0.16-0.01,0.33,0,0.52,0.01
		c0.2,0.71,0.58,2.06,1.12,4.05c0.27,1,0.46,1.72,0.59,2.17c0.13,0.44,0.28,0.87,0.46,1.29c0.11-0.28,0.25-0.7,0.42-1.27
		c0.16-0.57,0.27-0.94,0.32-1.12c0.62-2.12,1.15-3.81,1.6-5.07c0.11,0,0.3-0.01,0.55-0.04c0.46-0.03,0.84-0.03,1.14-0.02
		c-0.25,0.67-0.49,1.37-0.7,2.08c-0.22,0.72-0.42,1.42-0.61,2.12c-0.61,2.1-1.15,3.86-1.63,5.26c-0.2,0.04-0.53,0.06-0.97,0.06
		l-1.37-0.02c-0.56-1.77-0.97-3.12-1.23-4.04c-0.26-0.92-0.52-1.93-0.79-3.03L134.84,27.11z"/>
	<path d="M144.62,31.81v0.34l-0.02,0.55c0,1.57,0.77,2.36,2.32,2.36c0.62,0,1.08-0.14,1.38-0.43s0.45-0.67,0.45-1.17
		c0-0.08-0.01-0.21-0.04-0.42c0.27-0.04,0.51-0.06,0.74-0.06c0.2,0,0.35,0.01,0.46,0.02c0.08,0,0.17,0,0.28,0.01
		c0.11,0.01,0.23,0,0.37-0.01c0.01,0.72-0.01,1.3-0.08,1.73s-0.22,0.84-0.46,1.23c-0.23,0.34-0.62,0.59-1.19,0.73
		s-1.18,0.22-1.85,0.22c-0.3,0-0.59-0.01-0.85-0.04s-0.42-0.05-0.48-0.08c-0.99-0.17-1.7-0.79-2.15-1.87
		c-0.44-1.08-0.63-2.32-0.57-3.71c0.01-0.1,0.03-0.31,0.06-0.64c0.03-0.32,0.06-0.66,0.1-1s0.13-0.68,0.26-1.01
		c0.24-0.56,0.68-0.99,1.31-1.29c0.63-0.3,1.34-0.46,2.11-0.46c0.41,0,0.83,0.05,1.27,0.15c1.72,0.29,2.58,1.59,2.58,3.89
		c0,0.19-0.01,0.46-0.04,0.82c-0.24,0.08-0.95,0.14-2.13,0.19c-0.14,0.01-0.44,0.02-0.91,0.02c-1,0-1.74-0.01-2.22-0.04
		C145.01,31.86,144.78,31.84,144.62,31.81z M149.24,30.38c-0.01-0.39-0.11-0.78-0.29-1.16c-0.18-0.38-0.45-0.68-0.79-0.89
		c-0.19-0.09-0.35-0.15-0.49-0.17s-0.32-0.04-0.53-0.04c-0.82,0-1.41,0.17-1.76,0.51c-0.35,0.34-0.57,0.83-0.66,1.46
		c-0.03,0.15-0.04,0.25-0.04,0.3c0,0.15,0.07,0.25,0.22,0.3c0.14,0.05,0.46,0.08,0.94,0.08c0.47,0,0.87-0.01,1.2-0.02
		c1.22,0,1.9-0.01,2.05-0.02c0.06-0.01,0.1-0.03,0.12-0.05c0.02-0.02,0.03-0.05,0.03-0.1V30.38z"/>
	<path d="M153.38,27.17c0,0.15,0,0.27,0.01,0.35c0.01,0.08,0.01,0.18,0.01,0.29c0.09-0.05,0.21-0.11,0.37-0.17s0.33-0.13,0.52-0.19
		c0.29-0.1,0.64-0.17,1.05-0.22c0.41-0.04,0.78-0.07,1.11-0.07c0.3,0,0.46,0.01,0.46,0.04l-0.02,1.58c0,0.25,0.01,0.44,0.02,0.57
		c-0.19-0.08-0.41-0.15-0.65-0.21c-0.28-0.06-0.58-0.09-0.91-0.09c-0.34,0-0.73,0.05-1.16,0.15c-0.36,0.09-0.6,0.22-0.72,0.4
		c-0.13,0.18-0.18,0.51-0.17,1.01c0.05,1.74,0.08,3.71,0.08,5.91v0.08c-0.22,0.05-0.44,0.08-0.67,0.08c-0.09,0-0.23,0-0.43-0.01
		c-0.2-0.01-0.4,0-0.6,0.01l-0.02-3.27c-0.03-1.49-0.04-2.62-0.04-3.36c0-0.61,0.01-1.57,0.04-2.89c0.13,0.01,0.26,0.02,0.41,0.01
		c0.15-0.01,0.28-0.01,0.39-0.01c0.15-0.01,0.35-0.02,0.61-0.02C153.28,27.13,153.38,27.15,153.38,27.17z"/>
	<path d="M157.47,27.11c0.22,0.01,0.54,0.02,0.99,0.02c0.43,0,0.73,0.01,0.91,0.04l0.68,2.6c0.47,1.79,0.83,3.13,1.08,4.04
		c0.25,0.91,0.46,1.51,0.63,1.81c0.19-0.23,0.41-0.85,0.67-1.86c0.25-1.01,0.56-2.36,0.91-4.03c0.04-0.15,0.13-0.58,0.28-1.27
		c0.15-0.7,0.25-1.13,0.31-1.29l0.74-0.02c0.46-0.03,0.83-0.03,1.12-0.02c-0.13,0.46-0.35,1.38-0.68,2.77l-0.34,1.42
		c-0.05,0.17-0.16,0.69-0.34,1.58c-0.33,1.53-0.67,2.76-1.04,3.7c-0.36,0.93-0.97,1.73-1.83,2.39s-2.06,1-3.61,1
		c-0.28,0-0.49-0.01-0.65-0.02c-0.1-0.27-0.15-0.6-0.15-0.99c0-0.29,0.03-0.53,0.08-0.72c0.41,0.03,0.7,0.04,0.87,0.04
		c1.44,0,2.17-0.37,2.17-1.12c0-0.06-0.01-0.16-0.04-0.29l-1.35-4.77C158.43,30.61,157.96,28.94,157.47,27.11z"/>
	<path d="M175.8,23.5v-0.21c0.03-0.06,0.33-0.09,0.91-0.09c0.33,0,0.58,0.01,0.74,0.04v1.25c0,1.2,0.02,2.96,0.08,5.26
		c0.01,0.57,0.03,1.25,0.04,2.04s0.02,1.69,0.02,2.71c0,0.94-0.01,1.63-0.02,2.09c-0.41,0.02-0.74,0.04-1.01,0.04
		c-0.34,0-0.6-0.01-0.76-0.04c-0.01-0.03-0.02-0.16-0.02-0.4c0-0.33-0.03-0.58-0.1-0.76c-0.09,0.2-0.24,0.41-0.45,0.61
		c-0.21,0.2-0.42,0.32-0.64,0.36c-0.34,0.11-0.72,0.17-1.14,0.17c-0.2,0-0.35-0.01-0.46-0.02c-0.9-0.06-1.58-0.35-2.03-0.85
		s-0.76-1.11-0.9-1.84s-0.23-1.62-0.26-2.67c0-1.06,0.14-1.94,0.43-2.63c0.29-0.69,0.78-1.13,1.49-1.32c0.47-0.13,1-0.19,1.6-0.19
		c0.48,0,0.85,0.03,1.12,0.09c0.25,0.04,0.48,0.12,0.68,0.26c0.2,0.13,0.36,0.27,0.47,0.42c0.11,0.15,0.18,0.25,0.19,0.31
		l-0.02-1.62c0-0.33,0-0.62-0.01-0.88c-0.01-0.26,0-0.47,0.01-0.62c0.01-0.06,0.02-0.14,0.01-0.24c-0.01-0.1-0.01-0.18-0.01-0.26
		v-0.4C175.79,23.84,175.79,23.63,175.8,23.5z M173.96,28.48l-0.36-0.02c-0.68,0-1.21,0.17-1.58,0.5s-0.58,0.86-0.63,1.57
		c-0.04,0.28-0.06,0.7-0.06,1.25c0.03,0.84,0.13,1.49,0.31,1.95c0.18,0.46,0.44,0.79,0.76,0.97s0.75,0.28,1.28,0.28
		c0.61,0,1.06-0.14,1.37-0.43s0.5-0.66,0.59-1.13c0.09-0.47,0.13-1.08,0.13-1.84c-0.01-0.72-0.05-1.29-0.12-1.69
		s-0.23-0.74-0.49-0.99S174.5,28.51,173.96,28.48z"/>
	<path d="M184.94,27.08c0.29-0.01,0.67,0,1.12,0.04l0.49,0.04c0.03,0.2,0.04,0.35,0.04,0.46v0.19c-0.01,0.29-0.02,0.73-0.02,1.31
		c0,0.48,0.01,1.19,0.04,2.13l0.02,2.13c0,0.91-0.03,1.74-0.08,2.49c0,0.04,0,0.12,0,0.25c0,0.13-0.01,0.24-0.04,0.34
		s-0.09,0.17-0.21,0.19h-0.32l-0.61-0.02c-0.1,0-0.19,0.01-0.27,0.02s-0.15,0.02-0.21,0.02c-0.13-0.04-0.19-0.18-0.19-0.42
		c-0.01-0.1-0.01-0.22,0.01-0.34c0.02-0.13,0.03-0.23,0.03-0.32c-0.3,0.42-0.79,0.7-1.44,0.85c-0.66,0.15-1.3,0.23-1.94,0.23
		c-0.61,0-1.12-0.27-1.55-0.81c-0.42-0.54-0.74-1.2-0.94-1.99c-0.2-0.79-0.3-1.55-0.3-2.3c0-0.82,0.14-1.56,0.42-2.22
		c0.28-0.66,0.66-1.18,1.15-1.57c0.49-0.39,1.03-0.59,1.62-0.6l0.61-0.02c0.57,0,1.04,0.07,1.42,0.2s0.65,0.38,0.83,0.73
		c0-0.11,0.01-0.26,0.04-0.44c0.03-0.25,0.04-0.43,0.04-0.53C184.7,27.09,184.78,27.08,184.94,27.08z M182.81,28.79
		c-0.66-0.01-1.21,0.16-1.66,0.5c-0.45,0.35-0.73,0.76-0.83,1.24c-0.1,0.37-0.15,0.86-0.15,1.48c0.06,2.04,0.89,3.01,2.47,2.93
		c0.65,0,1.11-0.11,1.41-0.34c0.29-0.23,0.47-0.55,0.54-0.97s0.1-1.04,0.1-1.88c0-0.91-0.04-1.55-0.11-1.93
		c-0.08-0.37-0.24-0.63-0.49-0.77C183.85,28.91,183.42,28.82,182.81,28.79z"/>
	<path d="M189.67,27.17c0,0.15,0,0.27,0.01,0.35c0.01,0.08,0.01,0.18,0.01,0.29c0.09-0.05,0.21-0.11,0.37-0.17
		c0.16-0.06,0.33-0.13,0.52-0.19c0.29-0.1,0.64-0.17,1.05-0.22c0.41-0.04,0.78-0.07,1.11-0.07c0.3,0,0.46,0.01,0.46,0.04l-0.02,1.58
		c0,0.25,0.01,0.44,0.02,0.57c-0.19-0.08-0.41-0.15-0.65-0.21c-0.28-0.06-0.58-0.09-0.91-0.09c-0.34,0-0.73,0.05-1.16,0.15
		c-0.35,0.09-0.6,0.22-0.72,0.4c-0.13,0.18-0.18,0.51-0.17,1.01c0.05,1.74,0.08,3.71,0.08,5.91v0.08c-0.22,0.05-0.44,0.08-0.67,0.08
		c-0.09,0-0.23,0-0.43-0.01c-0.2-0.01-0.4,0-0.6,0.01l-0.02-3.27c-0.03-1.49-0.04-2.62-0.04-3.36c0-0.61,0.01-1.57,0.04-2.89
		c0.13,0.01,0.26,0.02,0.41,0.01c0.15-0.01,0.28-0.01,0.39-0.01c0.15-0.01,0.35-0.02,0.61-0.02
		C189.57,27.13,189.67,27.15,189.67,27.17z"/>
	<path d="M196.1,26.28c0,0.67-0.01,1.24-0.02,1.69l-0.02,1.37c0,0.25,0.01,0.51,0.04,0.76c0.65-0.48,1.17-0.9,1.56-1.25
		c0.39-0.35,0.86-0.78,1.41-1.28c0.35-0.35,0.63-0.61,0.82-0.78c0.22,0.05,0.5,0.08,0.86,0.08c0.27,0,0.46-0.01,0.59-0.02
		c0.09,0,0.19,0,0.29-0.01c0.11-0.01,0.22,0,0.33,0.01c-0.75,0.65-1.49,1.34-2.22,2.07c-0.77,0.77-1.57,1.51-2.39,2.2
		c0.94,0.98,1.67,1.76,2.19,2.35c0.52,0.59,1.1,1.28,1.73,2.08l0.87,1.06c-0.1,0-0.32,0.01-0.65,0.04
		c-0.36,0.03-0.64,0.04-0.86,0.04c-0.15,0-0.34-0.01-0.57-0.04c-0.2-0.23-0.47-0.56-0.8-0.99c-0.42-0.53-0.84-1.04-1.27-1.52
		s-1.06-1.09-1.88-1.82c0,0.35,0.01,0.66,0.02,0.91l0.02,1.44l-0.02,1.92c-0.13-0.01-0.35-0.01-0.67,0.02l-0.63,0.02
		c-0.19,0-0.32-0.01-0.4-0.02c-0.05-1.33-0.08-2.81-0.08-4.43c0-0.96,0.01-2.41,0.04-4.33c0.03-1.95,0.04-3.41,0.04-4.37v-0.67
		c0.25,0,0.45-0.01,0.59-0.02l0.68-0.02c0.19,0,0.32,0.01,0.4,0.02V26.28z"/>
	<path d="M204.49,36.61l-1.45-0.02h-0.06c-0.04-0.23-0.06-0.52-0.06-0.87l0.02-0.93c0.01-0.11,0.02-0.25,0.02-0.4
		c0.23-0.09,0.53-0.13,0.91-0.13c0.36,0,0.61,0.03,0.76,0.1c0,0.06-0.02,0.41-0.06,1.03c-0.04,0.62-0.06,1.02-0.06,1.2v0.04H204.49z
		"/>
	<path d="M18.57,46.09c0.41,0.1,0.79,0.3,1.17,0.59c0.37,0.29,0.67,0.63,0.9,1.01c0.37,0.59,0.67,1.24,0.9,1.94
		c0.23,0.7,0.37,1.38,0.41,2.05l-0.04,0.86c-0.03,1.14-0.1,2.05-0.23,2.72c0,0.04-0.04,0.13-0.1,0.29s-0.14,0.31-0.2,0.47
		c-0.19,0.44-0.48,0.97-0.87,1.57c-0.39,0.6-0.81,1.18-1.25,1.74c-1.12,0.04-2.78,0.06-5,0.06l-0.02,0.02
		c-0.21-1.56-0.32-3.59-0.32-6.1c0-1.13,0.01-1.98,0.02-2.55l0.02-2.56c0-0.81-0.01-1.42-0.02-1.82l0.06-0.08
		c0.56-0.14,1.27-0.21,2.15-0.21c0.42,0,0.73,0.01,0.93,0.02C17.58,46.11,18.08,46.11,18.57,46.09z M16.86,56.96
		c0.62-0.01,1.07-0.05,1.34-0.1c0.27-0.06,0.48-0.15,0.62-0.28c0.14-0.13,0.34-0.37,0.61-0.72c0.37-0.48,0.65-1.29,0.84-2.41
		c0.03-0.3,0.04-0.53,0.04-0.68c0-0.15-0.01-0.38-0.04-0.68c-0.06-0.67-0.2-1.27-0.42-1.79c-0.22-0.52-0.47-0.93-0.76-1.24
		c-0.29-0.3-0.58-0.48-0.86-0.53c-0.33-0.03-0.54-0.04-0.65-0.04c-0.34-0.03-0.95,0-1.82,0.08h-0.1c0.05,0.35,0.08,1.03,0.08,2.01
		c0,0.81-0.01,1.5-0.04,2.05l-0.02,0.67c0,0.22,0.01,0.7,0.04,1.46l0.09,2.09C15.92,56.92,16.27,56.96,16.86,56.96z"/>
	<path d="M22.79,53.24c0-0.47,0.02-0.87,0.07-1.22c0.04-0.34,0.16-0.77,0.33-1.27c0.16-0.37,0.52-0.64,1.05-0.83
		c0.54-0.18,1.14-0.28,1.79-0.28c0.09,0.01,0.22,0.02,0.38,0.02l0.76-0.02c1.06,0,1.88,0.28,2.45,0.84c0.23,0.15,0.4,0.44,0.52,0.85
		c0.12,0.42,0.19,0.98,0.22,1.68s0.04,1.11,0.04,1.23c-0.05,1.27-0.11,2.27-0.18,3.02c-0.07,0.75-0.21,1.23-0.43,1.44
		c-0.24,0.34-0.57,0.58-1,0.7c-0.42,0.13-0.93,0.19-1.51,0.19c-0.23,0-0.57-0.01-1.03-0.04l-0.87-0.02
		c-0.75-0.13-1.31-0.4-1.68-0.82c-0.37-0.42-0.61-0.91-0.72-1.46c-0.11-0.56-0.16-1.23-0.16-2.01v-0.99
		C22.83,53.8,22.81,53.45,22.79,53.24z M26.67,51.43c-0.86,0-1.48,0.22-1.86,0.67c-0.17,0.2-0.27,0.46-0.31,0.77
		c-0.04,0.31-0.06,0.71-0.05,1.21c-0.01,0.19-0.01,0.44,0.01,0.76c0.02,0.32,0.03,0.56,0.03,0.74l0.04,0.8
		c0.04,0.51,0.18,0.86,0.43,1.07c0.25,0.21,0.56,0.35,0.94,0.43c0.25,0.04,0.51,0.06,0.78,0.06c0.49,0,0.92-0.09,1.29-0.27
		c0.37-0.18,0.6-0.47,0.7-0.87c0.05-0.33,0.08-0.59,0.08-0.78c0.06-0.89,0.09-1.49,0.09-1.8c0-0.84-0.15-1.51-0.46-2.01
		C28.07,51.69,27.5,51.43,26.67,51.43z"/>
	<path d="M34.36,49.91c0.22,0.01,0.54,0.02,0.99,0.02c0.43,0,0.73,0.01,0.91,0.04l0.68,2.6c0.47,1.79,0.83,3.13,1.08,4.04
		c0.25,0.91,0.46,1.51,0.63,1.81c0.19-0.23,0.41-0.85,0.67-1.86c0.25-1.01,0.56-2.36,0.91-4.03c0.04-0.15,0.13-0.58,0.28-1.27
		c0.15-0.7,0.25-1.13,0.31-1.29l0.74-0.02c0.46-0.03,0.83-0.03,1.12-0.02c-0.13,0.46-0.35,1.38-0.68,2.77l-0.34,1.42
		c-0.05,0.17-0.16,0.69-0.34,1.58c-0.33,1.53-0.67,2.76-1.04,3.7c-0.36,0.93-0.97,1.73-1.83,2.39s-2.06,1-3.61,1
		c-0.28,0-0.49-0.01-0.65-0.02c-0.1-0.27-0.15-0.6-0.15-0.99c0-0.29,0.03-0.53,0.08-0.72c0.41,0.03,0.7,0.04,0.87,0.04
		c1.44,0,2.17-0.37,2.17-1.12c0-0.06-0.01-0.16-0.04-0.29l-1.35-4.77C35.32,53.41,34.85,51.74,34.36,49.91z"/>
	<path d="M43.06,53.24c0-0.47,0.02-0.87,0.07-1.22c0.04-0.34,0.15-0.77,0.33-1.27c0.17-0.37,0.52-0.64,1.05-0.83s1.14-0.28,1.8-0.28
		c0.09,0.01,0.21,0.02,0.38,0.02l0.76-0.02c1.06,0,1.88,0.28,2.45,0.84c0.23,0.15,0.4,0.44,0.52,0.85c0.12,0.42,0.19,0.98,0.22,1.68
		c0.02,0.7,0.04,1.11,0.04,1.23c-0.05,1.27-0.11,2.27-0.18,3.02c-0.07,0.75-0.21,1.23-0.43,1.44c-0.24,0.34-0.57,0.58-1,0.7
		c-0.42,0.13-0.93,0.19-1.51,0.19c-0.23,0-0.57-0.01-1.03-0.04l-0.87-0.02c-0.75-0.13-1.31-0.4-1.68-0.82
		c-0.37-0.42-0.61-0.91-0.72-1.46c-0.11-0.56-0.16-1.23-0.16-2.01v-0.99C43.1,53.8,43.09,53.45,43.06,53.24z M46.94,51.43
		c-0.86,0-1.48,0.22-1.86,0.67c-0.17,0.2-0.27,0.46-0.31,0.77c-0.04,0.31-0.06,0.71-0.05,1.21c-0.01,0.19-0.01,0.44,0.01,0.76
		c0.02,0.32,0.03,0.56,0.03,0.74l0.04,0.8c0.04,0.51,0.18,0.86,0.43,1.07s0.56,0.35,0.94,0.43c0.25,0.04,0.51,0.06,0.78,0.06
		c0.49,0,0.92-0.09,1.29-0.27c0.37-0.18,0.6-0.47,0.7-0.87c0.05-0.33,0.08-0.59,0.08-0.78c0.06-0.89,0.1-1.49,0.1-1.8
		c0-0.84-0.15-1.51-0.46-2.01C48.34,51.69,47.77,51.43,46.94,51.43z"/>
	<path d="M57.31,59.41c-0.01-0.24-0.02-0.44-0.02-0.6s-0.01-0.29-0.02-0.41c-0.03,0.01-0.13,0.08-0.3,0.21
		c-0.18,0.13-0.46,0.23-0.86,0.32c-0.73,0.27-1.45,0.4-2.15,0.4c-0.79,0-1.38-0.19-1.77-0.57c-0.21-0.19-0.35-0.51-0.4-0.96
		c-0.05-0.45-0.08-1.17-0.1-2.16v-0.59c0-0.39,0.01-0.97,0.04-1.73c0.04-0.76,0.06-1.48,0.06-2.17c0-0.33-0.01-0.73-0.04-1.22
		c0.23-0.03,0.54-0.04,0.93-0.04h0.63c0.04,0.38,0.06,0.83,0.06,1.35l-0.02,1.54c0,0.51,0.01,0.87,0.02,1.1l0.02,0.53
		c0,0.46,0.02,0.99,0.06,1.6c0.03,0.42,0.11,0.73,0.26,0.95c0.15,0.21,0.36,0.36,0.66,0.44c0.25,0.04,0.49,0.06,0.7,0.06
		c0.75,0,1.32-0.2,1.72-0.61c0.4-0.41,0.6-0.96,0.62-1.65c0.01-0.46-0.01-1.29-0.06-2.49c-0.03-0.61-0.04-1.01-0.04-1.2
		c0-0.34,0.01-0.83,0.04-1.46v-0.08c0.2-0.05,0.4-0.08,0.58-0.09s0.29-0.02,0.33-0.02c0.27,0,0.49-0.01,0.68-0.02l0.02,3.27
		c0.02,1.5,0.04,2.62,0.04,3.36c0,0.61-0.01,1.57-0.04,2.89c-0.28,0-0.59,0.02-0.93,0.06c-0.06,0-0.14,0.01-0.24,0.02
		s-0.19,0.02-0.29,0.02C57.38,59.47,57.31,59.45,57.31,59.41z"/>
	<path d="M65.86,49.23v1.69c0.34-0.29,0.64-0.51,0.9-0.66s0.64-0.24,1.15-0.28c0.3-0.04,0.59-0.06,0.85-0.06
		c0.92,0,1.65,0.22,2.17,0.67c0.17,0.14,0.28,0.47,0.34,0.99c0.06,0.52,0.09,1.2,0.09,2.05c0,0.48-0.01,1.24-0.04,2.28
		c-0.03,1.01-0.04,1.74-0.04,2.17c0,0.35,0.01,0.79,0.04,1.29c-0.51,0.08-1.05,0.1-1.63,0.08c-0.03-0.38-0.04-0.71-0.04-0.99v-1.14
		V53.6c-0.03-0.81-0.22-1.34-0.57-1.58c-0.08-0.05-0.23-0.1-0.46-0.15c-0.27-0.08-0.54-0.11-0.82-0.11c-0.49,0-0.92,0.12-1.26,0.37
		c-0.35,0.25-0.57,0.63-0.67,1.15c-0.09,0.48-0.13,1.06-0.13,1.73l0.02,0.65c0.03,0.84,0.04,1.53,0.04,2.07
		c0,0.68-0.01,1.21-0.04,1.58v0.08c-0.25,0.06-0.46,0.09-0.61,0.09l-0.57-0.02c-0.18,0-0.32,0.01-0.44,0.02
		c0-1.46-0.01-2.66-0.02-3.61l-0.02-5.81c0-1.42,0.01-2.88,0.04-4.37c0.39,0.04,0.71,0.05,0.95,0.04c0.06,0,0.14-0.01,0.24-0.02
		c0.09-0.01,0.19-0.02,0.29-0.02c0.13,0,0.19,0.02,0.19,0.06c0.03,0.11,0.04,0.89,0.04,2.32V49.23z"/>
	<path d="M78.71,49.88c0.29-0.01,0.67,0,1.12,0.04l0.49,0.04c0.03,0.2,0.04,0.35,0.04,0.46v0.19c-0.01,0.29-0.02,0.73-0.02,1.31
		c0,0.48,0.01,1.19,0.04,2.13l0.02,2.13c0,0.91-0.03,1.74-0.08,2.49c0,0.04,0,0.12,0,0.25c0,0.13-0.01,0.24-0.04,0.34
		c-0.03,0.1-0.1,0.17-0.21,0.19h-0.32l-0.61-0.02c-0.1,0-0.19,0.01-0.27,0.02s-0.15,0.02-0.21,0.02c-0.13-0.04-0.19-0.18-0.19-0.42
		c-0.01-0.1-0.01-0.22,0.01-0.34c0.02-0.13,0.03-0.23,0.03-0.32c-0.3,0.42-0.79,0.7-1.44,0.85c-0.66,0.15-1.3,0.23-1.94,0.23
		c-0.61,0-1.12-0.27-1.55-0.81c-0.42-0.54-0.74-1.2-0.94-1.99c-0.2-0.79-0.3-1.55-0.3-2.3c0-0.82,0.14-1.56,0.42-2.22
		c0.28-0.66,0.66-1.18,1.15-1.57c0.49-0.39,1.03-0.59,1.62-0.6l0.61-0.02c0.57,0,1.04,0.07,1.42,0.2c0.37,0.13,0.65,0.38,0.83,0.73
		c0-0.11,0.01-0.26,0.04-0.44c0.03-0.25,0.04-0.43,0.04-0.53C78.46,49.89,78.54,49.88,78.71,49.88z M76.58,51.58
		c-0.66-0.01-1.21,0.16-1.66,0.5s-0.72,0.76-0.83,1.24c-0.1,0.37-0.15,0.86-0.15,1.48c0.06,2.04,0.89,3.01,2.47,2.93
		c0.65,0,1.12-0.11,1.41-0.34c0.29-0.23,0.47-0.55,0.54-0.97c0.07-0.42,0.1-1.04,0.1-1.88c0-0.91-0.04-1.55-0.11-1.93
		c-0.08-0.37-0.24-0.63-0.48-0.77C77.61,51.71,77.19,51.62,76.58,51.58z"/>
	<path d="M81.23,49.91c0.19,0.03,0.46,0.04,0.8,0.04c0.11,0,0.25,0,0.41-0.01c0.16-0.01,0.33,0,0.52,0.01
		c0.2,0.71,0.58,2.06,1.12,4.05c0.27,1,0.46,1.72,0.59,2.17c0.13,0.44,0.28,0.87,0.46,1.29c0.11-0.28,0.25-0.7,0.42-1.27
		c0.16-0.57,0.27-0.94,0.32-1.12c0.62-2.12,1.15-3.81,1.6-5.07c0.11,0,0.3-0.01,0.55-0.04c0.46-0.03,0.84-0.03,1.14-0.02
		c-0.25,0.67-0.49,1.37-0.7,2.08c-0.22,0.72-0.42,1.42-0.61,2.12c-0.61,2.1-1.15,3.86-1.63,5.26c-0.2,0.04-0.53,0.06-0.97,0.06
		l-1.37-0.02c-0.56-1.77-0.97-3.12-1.23-4.04c-0.26-0.92-0.52-1.93-0.79-3.03L81.23,49.91z"/>
	<path d="M91.02,54.61v0.34L91,55.5c0,1.57,0.77,2.36,2.32,2.36c0.62,0,1.08-0.14,1.38-0.43s0.45-0.67,0.45-1.17
		c0-0.08-0.01-0.21-0.04-0.42c0.27-0.04,0.51-0.06,0.74-0.06c0.2,0,0.35,0.01,0.46,0.02c0.08,0,0.17,0,0.28,0.01
		c0.11,0.01,0.23,0,0.37-0.01c0.01,0.72-0.01,1.3-0.08,1.73s-0.22,0.84-0.46,1.23c-0.23,0.34-0.62,0.59-1.19,0.73
		s-1.18,0.22-1.85,0.22c-0.3,0-0.59-0.01-0.85-0.04s-0.42-0.05-0.48-0.08c-0.99-0.17-1.7-0.79-2.15-1.87
		c-0.44-1.08-0.63-2.32-0.57-3.71c0.01-0.1,0.03-0.31,0.06-0.64c0.03-0.32,0.06-0.66,0.1-1s0.13-0.68,0.26-1.01
		c0.24-0.56,0.68-0.99,1.31-1.29c0.63-0.3,1.34-0.46,2.11-0.46c0.41,0,0.83,0.05,1.27,0.15c1.72,0.29,2.58,1.59,2.58,3.89
		c0,0.19-0.01,0.46-0.04,0.82c-0.24,0.08-0.95,0.14-2.13,0.19c-0.14,0.01-0.44,0.02-0.91,0.02c-1,0-1.74-0.01-2.22-0.04
		C91.4,54.66,91.17,54.64,91.02,54.61z M95.63,53.18c-0.01-0.39-0.11-0.78-0.29-1.16c-0.18-0.38-0.45-0.68-0.79-0.89
		c-0.19-0.09-0.35-0.15-0.49-0.17s-0.32-0.04-0.53-0.04c-0.82,0-1.41,0.17-1.76,0.51c-0.35,0.34-0.57,0.83-0.66,1.46
		c-0.03,0.15-0.04,0.25-0.04,0.3c0,0.15,0.07,0.25,0.22,0.3c0.14,0.05,0.46,0.08,0.94,0.08c0.47,0,0.87-0.01,1.2-0.02
		c1.22,0,1.9-0.01,2.05-0.02c0.06-0.01,0.1-0.03,0.12-0.05c0.02-0.02,0.03-0.05,0.03-0.1V53.18z"/>
	<path d="M109.5,49.95c0.01,0.08,0.02,0.15,0.03,0.23c0.01,0.08,0.01,0.15,0.01,0.23v0.19c-0.04,1.37-0.03,2.71,0.02,4.04
		c0.05,1.32,0.03,2.66-0.06,4.02c0,0.16,0,0.33-0.01,0.49c-0.01,0.16-0.09,0.26-0.24,0.28h-0.23c-0.2,0-0.41-0.01-0.62-0.03
		c-0.21-0.02-0.42-0.03-0.62-0.03c-0.14,0-0.28,0.01-0.41,0.03c-0.13,0.02-0.27,0.03-0.41,0.03c-0.09-0.02-0.15-0.08-0.18-0.15
		c-0.03-0.08-0.05-0.17-0.05-0.27c0-0.14,0.01-0.25,0.04-0.34c0.03-0.09,0.04-0.2,0.04-0.32c-0.3,0.3-0.69,0.56-1.15,0.78
		c-0.46,0.22-0.92,0.32-1.36,0.32c-0.49,0-0.92-0.17-1.26-0.51c-0.35-0.34-0.64-0.77-0.86-1.27c-0.23-0.51-0.4-1.06-0.5-1.65
		c-0.11-0.59-0.16-1.15-0.16-1.65c0-0.63,0.08-1.22,0.25-1.75c0.16-0.53,0.39-0.99,0.67-1.38c0.28-0.39,0.62-0.69,1.02-0.91
		c0.39-0.22,0.81-0.34,1.25-0.35c0.23,0,0.44,0,0.64,0.01c0.2,0.01,0.38,0.04,0.54,0.09c0.16,0.06,0.31,0.15,0.44,0.27
		s0.23,0.29,0.32,0.5c-0.01-0.2,0-0.38,0.03-0.52c0.03-0.15,0.05-0.29,0.05-0.45c0-0.01,0.04-0.02,0.12-0.03
		c0.08-0.01,0.17-0.01,0.28,0c0.1,0.01,0.2,0.01,0.3,0.01c0.1,0,0.17,0,0.21,0c0.21,0.01,0.48,0.03,0.79,0.04
		S109.1,49.93,109.5,49.95z M103.98,53.73c-0.05,0.16-0.08,0.33-0.1,0.5s-0.02,0.34-0.02,0.5c0,0.57,0.15,1.05,0.45,1.45
		c0.3,0.4,0.71,0.6,1.25,0.6c0.32,0,0.55-0.05,0.71-0.16s0.27-0.26,0.34-0.46c0.07-0.2,0.11-0.44,0.11-0.72
		c0.01-0.28,0.01-0.6,0.01-0.96c0-0.44,0-0.79-0.01-1.05s-0.04-0.46-0.09-0.6c-0.06-0.14-0.15-0.23-0.29-0.27s-0.33-0.06-0.6-0.06
		c-0.52,0-0.93,0.12-1.23,0.37S104.04,53.42,103.98,53.73z"/>
	<path d="M117.88,56.79v2.55c-0.21-0.03-0.43-0.03-0.65-0.02c-0.22,0.01-0.43,0.03-0.65,0.05c-0.21,0.02-0.42,0.04-0.62,0.05
		s-0.38,0.01-0.54-0.02c-0.03-0.15-0.04-0.4-0.05-0.75c-0.01-0.35-0.01-0.74-0.02-1.18c-0.01-0.44-0.01-0.9-0.01-1.38
		s0-0.95,0.01-1.4c0.01-0.45,0.01-0.85,0.02-1.21c0.01-0.35,0.01-0.63,0.01-0.82c-0.2,0-0.42,0-0.64,0s-0.46,0.01-0.71,0.02
		l-0.06-2.32c0.27,0,0.51,0,0.73,0s0.43,0.01,0.64,0.02c-0.03-0.32-0.02-0.66,0.02-1.03s0.13-0.73,0.28-1.07
		c0.15-0.35,0.35-0.67,0.62-0.95c0.27-0.29,0.61-0.5,1.05-0.64c0.53-0.18,1.11-0.29,1.74-0.33c0.63-0.04,1.24-0.05,1.83-0.03
		c0.06,0.19,0.1,0.4,0.12,0.63c0.02,0.23,0.02,0.46,0.01,0.68c-0.01,0.23-0.03,0.45-0.06,0.67c-0.03,0.21-0.05,0.41-0.08,0.59
		c-0.15-0.01-0.33-0.01-0.52,0s-0.4,0.03-0.62,0.06c-0.22,0.03-0.43,0.05-0.65,0.09c-0.21,0.03-0.41,0.06-0.59,0.08
		c-0.29,0.05-0.47,0.2-0.54,0.45c-0.07,0.25-0.07,0.53-0.01,0.84h2.91c-0.03,0.14-0.03,0.28-0.02,0.41c0.01,0.13,0.01,0.29,0,0.46
		c0,0.14,0,0.25,0,0.33s0,0.17-0.01,0.26c-0.01,0.09-0.02,0.2-0.03,0.34s-0.03,0.33-0.06,0.57c-0.65-0.04-1.19-0.07-1.62-0.09
		c-0.44-0.03-0.85-0.04-1.25-0.06V56.79z"/>
	<path d="M121.72,45.6l2.58,0.06c0,0.52-0.01,1.15-0.02,1.88s-0.03,1.52-0.04,2.36c-0.01,0.84-0.02,1.7-0.03,2.6
		c-0.01,0.9-0.01,1.77-0.01,2.6c0,0.84,0.01,1.62,0.02,2.35c0.01,0.73,0.03,1.35,0.06,1.85c-0.06,0.08-0.22,0.12-0.47,0.12
		c-0.25,0.01-0.53,0.01-0.83,0c-0.3-0.01-0.58-0.02-0.84-0.03c-0.27-0.01-0.44-0.01-0.53,0.02c0.09-1.14,0.12-2.29,0.1-3.44
		c-0.02-1.15-0.05-2.3-0.09-3.46c-0.04-1.15-0.06-2.3-0.07-3.46C121.55,47.91,121.61,46.75,121.72,45.6z"/>
	<path d="M133.24,49.95c0.01,0.08,0.02,0.15,0.03,0.23c0.01,0.08,0.01,0.15,0.01,0.23v0.19c-0.04,1.37-0.03,2.71,0.02,4.04
		s0.03,2.66-0.06,4.02c0,0.16,0,0.33-0.01,0.49c-0.01,0.16-0.08,0.26-0.24,0.28h-0.23c-0.2,0-0.41-0.01-0.62-0.03
		c-0.21-0.02-0.42-0.03-0.62-0.03c-0.14,0-0.28,0.01-0.41,0.03c-0.13,0.02-0.27,0.03-0.41,0.03c-0.09-0.02-0.15-0.08-0.18-0.15
		c-0.03-0.08-0.05-0.17-0.05-0.27c0-0.14,0.01-0.25,0.04-0.34c0.03-0.09,0.04-0.2,0.04-0.32c-0.3,0.3-0.69,0.56-1.15,0.78
		c-0.46,0.22-0.92,0.32-1.36,0.32c-0.49,0-0.92-0.17-1.26-0.51c-0.35-0.34-0.64-0.77-0.87-1.27c-0.23-0.51-0.4-1.06-0.5-1.65
		c-0.11-0.59-0.16-1.15-0.16-1.65c0-0.63,0.08-1.22,0.25-1.75c0.17-0.53,0.39-0.99,0.67-1.38c0.29-0.39,0.62-0.69,1.02-0.91
		c0.39-0.22,0.81-0.34,1.25-0.35c0.23,0,0.44,0,0.64,0.01c0.2,0.01,0.38,0.04,0.54,0.09c0.17,0.06,0.31,0.15,0.44,0.27
		c0.13,0.12,0.23,0.29,0.32,0.5c-0.01-0.2,0-0.38,0.03-0.52c0.03-0.15,0.05-0.29,0.05-0.45c0-0.01,0.04-0.02,0.12-0.03
		c0.08-0.01,0.17-0.01,0.28,0c0.1,0.01,0.2,0.01,0.3,0.01s0.17,0,0.21,0c0.22,0.01,0.48,0.03,0.79,0.04
		C132.47,49.91,132.83,49.93,133.24,49.95z M127.71,53.73c-0.05,0.16-0.08,0.33-0.09,0.5s-0.02,0.34-0.02,0.5
		c0,0.57,0.15,1.05,0.45,1.45c0.3,0.4,0.71,0.6,1.24,0.6c0.32,0,0.55-0.05,0.71-0.16c0.16-0.11,0.27-0.26,0.34-0.46
		c0.07-0.2,0.11-0.44,0.11-0.72c0.01-0.28,0.01-0.6,0.01-0.96c0-0.44,0-0.79-0.01-1.05c-0.01-0.26-0.04-0.46-0.1-0.6
		c-0.06-0.14-0.15-0.23-0.28-0.27c-0.13-0.04-0.33-0.06-0.6-0.06c-0.52,0-0.93,0.12-1.23,0.37
		C127.95,53.13,127.77,53.42,127.71,53.73z"/>
	<path d="M142.22,52.84c-0.41,0.06-0.85,0.1-1.34,0.11c-0.49,0.01-0.95-0.03-1.38-0.11c0.04-0.15,0.02-0.3-0.05-0.46
		c-0.07-0.15-0.17-0.29-0.3-0.4c-0.13-0.11-0.28-0.2-0.46-0.26c-0.17-0.06-0.34-0.08-0.5-0.07c-0.29,0.05-0.51,0.16-0.66,0.33
		c-0.15,0.17-0.22,0.36-0.22,0.56c0,0.2,0.08,0.41,0.23,0.61c0.15,0.2,0.37,0.35,0.67,0.46c0.71,0.1,1.38,0.24,2,0.41
		c0.62,0.17,1.08,0.45,1.37,0.83c0.28,0.46,0.45,0.92,0.51,1.4c0.06,0.47-0.03,1.06-0.27,1.76c-0.29,0.62-0.75,1.06-1.37,1.33
		c-0.62,0.27-1.3,0.39-2.03,0.38c-0.65,0.03-1.23-0.03-1.75-0.17c-0.52-0.14-0.97-0.35-1.34-0.63c-0.37-0.28-0.67-0.62-0.87-1.03
		s-0.31-0.86-0.31-1.37v-0.06v-0.04c0.42-0.05,0.89-0.07,1.42-0.05c0.53,0.02,0.99,0.03,1.39,0.03c0.01,0.29,0.15,0.53,0.41,0.71
		c0.26,0.18,0.53,0.29,0.83,0.32c0.29,0.03,0.56-0.02,0.8-0.16s0.35-0.39,0.34-0.76c0.04-0.3-0.03-0.53-0.21-0.68
		c-0.18-0.15-0.41-0.27-0.7-0.35c-0.29-0.08-0.62-0.15-0.99-0.22c-0.37-0.06-0.73-0.17-1.08-0.32c-0.71-0.24-1.23-0.62-1.55-1.13
		c-0.32-0.51-0.47-1.04-0.46-1.6c0.02-0.55,0.2-1.06,0.53-1.53c0.33-0.47,0.81-0.79,1.43-0.95c0.24-0.06,0.54-0.11,0.88-0.15
		c0.35-0.04,0.72-0.06,1.11-0.06c0.39,0,0.79,0.02,1.18,0.07c0.39,0.04,0.75,0.1,1.08,0.18c0.59,0.25,1.02,0.66,1.27,1.21
		C142.1,51.54,142.22,52.16,142.22,52.84z"/>
	<path d="M145.66,50.94c0.06-0.04,0.14-0.08,0.24-0.13c0.09-0.05,0.17-0.1,0.24-0.15c0.27-0.19,0.56-0.34,0.89-0.46
		c0.33-0.11,0.67-0.18,1.02-0.19c0.35-0.01,0.69,0.03,1.02,0.11c0.33,0.09,0.63,0.25,0.89,0.47c0.13,0.11,0.22,0.35,0.29,0.71
		c0.07,0.36,0.11,0.79,0.13,1.3c0.02,0.51,0.03,1.06,0.02,1.66s-0.02,1.21-0.03,1.82s-0.03,1.21-0.04,1.78s-0.01,1.07,0.02,1.5
		c-0.44,0.06-0.84,0.09-1.19,0.09c-0.35-0.01-0.75-0.01-1.19-0.01c-0.03-0.29-0.04-0.62-0.04-0.99c0-0.37,0-0.75,0.01-1.14
		c0.01-0.39,0.01-0.79,0-1.18c-0.01-0.39-0.02-0.76-0.05-1.1c-0.01-0.15-0.03-0.32-0.04-0.5s-0.04-0.36-0.07-0.54
		c-0.03-0.18-0.08-0.33-0.13-0.47c-0.06-0.14-0.14-0.25-0.24-0.32c-0.01-0.01-0.03-0.02-0.04-0.02s-0.03-0.01-0.04-0.02
		c-0.1-0.05-0.25-0.09-0.45-0.12c-0.2-0.03-0.39-0.02-0.58,0.04c-0.19,0.06-0.36,0.17-0.51,0.34c-0.15,0.17-0.24,0.43-0.27,0.77
		c-0.03,0.44-0.03,0.88-0.02,1.3c0.01,0.42,0.03,0.85,0.05,1.27c0.02,0.42,0.03,0.85,0.03,1.26s-0.03,0.84-0.08,1.25v0.08
		c-0.22,0.06-0.4,0.1-0.56,0.11c-0.16,0.01-0.32,0.02-0.48,0.01c-0.17-0.01-0.35-0.02-0.55-0.03c-0.2-0.01-0.46-0.01-0.76,0.02
		c0-0.52,0-1.14-0.01-1.87c-0.01-0.73-0.01-1.51-0.02-2.35c-0.01-0.84-0.01-1.7-0.01-2.59c0-0.89,0-1.76,0-2.61s0-1.65,0.01-2.4
		c0.01-0.75,0.02-1.41,0.03-1.97c0.15,0.01,0.28,0.02,0.38,0.03c0.1,0.01,0.2,0.01,0.29,0.01s0.18,0,0.29-0.01
		c0.1-0.01,0.23-0.02,0.38-0.03c0.05,0,0.14-0.01,0.27-0.03c0.13-0.02,0.25-0.03,0.38-0.05c0.13-0.01,0.24-0.02,0.34-0.01
		c0.1,0.01,0.15,0.03,0.15,0.07c0.01,0.06,0.02,0.23,0.02,0.5c0,0.27,0,0.6,0,0.97c0,0.37,0,0.77,0,1.2c0,0.42,0,0.82,0,1.19
		c0,0.37,0,0.68,0,0.95C145.66,50.73,145.66,50.89,145.66,50.94z"/>
	<path d="M151.74,45.6l2.58,0.06c0,0.52-0.01,1.15-0.02,1.88c-0.01,0.73-0.03,1.52-0.04,2.36c-0.01,0.84-0.02,1.7-0.03,2.6
		c-0.01,0.9-0.01,1.77-0.01,2.6c0,0.84,0.01,1.62,0.02,2.35c0.01,0.73,0.03,1.35,0.06,1.85c-0.06,0.08-0.22,0.12-0.48,0.12
		c-0.25,0.01-0.53,0.01-0.83,0c-0.3-0.01-0.58-0.02-0.85-0.03s-0.44-0.01-0.53,0.02c0.09-1.14,0.12-2.29,0.1-3.44
		c-0.02-1.15-0.05-2.3-0.08-3.46c-0.04-1.15-0.06-2.3-0.07-3.46C151.57,47.91,151.63,46.75,151.74,45.6z"/>
	<path d="M157.92,49.86h0.32v0.06c-0.01,1.53-0.04,3.1-0.09,4.69c-0.04,1.6-0.02,3.16,0.07,4.69c-0.06,0.08-0.22,0.12-0.48,0.12
		c-0.25,0.01-0.53,0.01-0.83,0c-0.3-0.01-0.58-0.02-0.85-0.03s-0.44-0.01-0.53,0.02c0.06-0.8,0.09-1.61,0.09-2.43
		c-0.01-0.82-0.02-1.64-0.05-2.45s-0.04-1.61-0.04-2.4c0-0.79,0.04-1.56,0.11-2.31V49.8c0.05-0.01,0.14-0.01,0.26,0
		c0.12,0.01,0.21,0.02,0.28,0.02c0.16,0.01,0.39,0.03,0.68,0.04S157.51,49.87,157.92,49.86z M155.58,45.71l2.58,0.06
		c0,0.08,0,0.21,0.01,0.41c0.01,0.2,0.01,0.41,0.02,0.65c0.01,0.24,0.01,0.48,0.02,0.72c0.01,0.25,0.01,0.46,0.01,0.66
		c-0.05,0.08-0.17,0.13-0.35,0.15c-0.18,0.03-0.4,0.03-0.65,0.03c-0.25-0.01-0.51-0.02-0.79-0.04c-0.28-0.02-0.54-0.02-0.78-0.01
		c0-0.37-0.02-0.75-0.05-1.15C155.58,46.79,155.57,46.3,155.58,45.71z"/>
	<path d="M164.7,63.21c-0.13,0.03-0.36,0.03-0.68,0.02c-0.33-0.01-0.75-0.02-1.27-0.02c-0.6,0-1.13-0.13-1.6-0.38
		c-0.47-0.25-0.85-0.6-1.14-1.03c-0.05-0.09-0.1-0.21-0.14-0.35c-0.04-0.15-0.08-0.29-0.11-0.45c-0.03-0.15-0.05-0.3-0.06-0.44
		c-0.01-0.14,0-0.26,0.01-0.36c0.13-0.05,0.3-0.08,0.51-0.1c0.21-0.02,0.44-0.03,0.67-0.02c0.23,0.01,0.46,0.02,0.68,0.04
		c0.22,0.02,0.41,0.04,0.56,0.07c0,0.33,0.1,0.59,0.31,0.79s0.44,0.31,0.7,0.33c0.26,0.02,0.51-0.04,0.76-0.19s0.41-0.41,0.48-0.76
		c0.01-0.13,0.03-0.26,0.04-0.39s0.01-0.25,0-0.35c-0.03-0.21-0.03-0.44,0-0.67c-0.13,0.14-0.28,0.24-0.45,0.3
		c-0.17,0.06-0.35,0.11-0.55,0.13c-0.2,0.02-0.4,0.04-0.6,0.04c-0.2,0-0.39,0.01-0.57,0.02c-0.24,0-0.48-0.02-0.73-0.06
		c-0.25-0.04-0.48-0.1-0.7-0.19s-0.42-0.21-0.6-0.36c-0.18-0.15-0.32-0.35-0.44-0.59c-0.18-0.34-0.3-0.7-0.38-1.07
		s-0.13-0.76-0.15-1.15c0-0.6,0.01-1.24,0.04-1.92c0.03-0.68,0.14-1.33,0.33-1.93c0.2-0.6,0.51-1.11,0.94-1.52
		c0.43-0.41,1.05-0.64,1.86-0.69c0.41-0.02,0.78,0.03,1.13,0.16s0.6,0.38,0.75,0.73c0.05,0.03,0.08,0,0.08-0.07s0.01-0.16,0-0.27
		c-0.01-0.11-0.01-0.21-0.02-0.32c-0.01-0.11,0.01-0.19,0.05-0.26c0.42-0.05,0.84-0.07,1.27-0.05c0.43,0.02,0.86,0.03,1.29,0.03
		c0.05,1.58,0.08,3.24,0.08,4.97c0.01,1.73-0.03,3.51-0.1,5.33c-0.01,0.3-0.01,0.6,0,0.9c0.01,0.3-0.04,0.55-0.17,0.75
		c-0.18,0.28-0.36,0.5-0.54,0.67c-0.18,0.17-0.36,0.29-0.54,0.39c-0.18,0.09-0.35,0.16-0.53,0.2
		C165.02,63.17,164.85,63.2,164.7,63.21z M161.41,54.91v0.17c0,0.65,0.19,1.2,0.57,1.65c0.23,0.28,0.53,0.45,0.91,0.5
		c0.38,0.06,0.73,0.04,1.06-0.07c0.11-0.04,0.2-0.1,0.27-0.18c0.06-0.08,0.11-0.18,0.15-0.28c0.04-0.11,0.07-0.22,0.08-0.34
		c0.02-0.12,0.04-0.24,0.05-0.35c0-0.51-0.01-1.02-0.03-1.55c-0.02-0.53-0.09-1.03-0.22-1.51c-0.08-0.19-0.2-0.34-0.37-0.45
		s-0.36-0.17-0.56-0.2c-0.2-0.02-0.4-0.01-0.6,0.05s-0.37,0.15-0.52,0.28c-0.19,0.22-0.35,0.45-0.48,0.71s-0.23,0.54-0.28,0.83
		c-0.03,0.13-0.04,0.25-0.04,0.37C161.41,54.66,161.41,54.78,161.41,54.91z"/>
	<path d="M170.89,50.94c0.06-0.04,0.14-0.08,0.24-0.13c0.09-0.05,0.17-0.1,0.24-0.15c0.27-0.19,0.56-0.34,0.89-0.46
		s0.67-0.18,1.02-0.19c0.35-0.01,0.69,0.03,1.02,0.11s0.63,0.25,0.89,0.47c0.13,0.11,0.23,0.35,0.29,0.71s0.11,0.79,0.13,1.3
		c0.02,0.51,0.03,1.06,0.02,1.66c-0.01,0.6-0.02,1.21-0.03,1.82s-0.03,1.21-0.04,1.78c-0.01,0.57-0.01,1.07,0.02,1.5
		c-0.44,0.06-0.84,0.09-1.19,0.09c-0.35-0.01-0.74-0.01-1.19-0.01c-0.03-0.29-0.04-0.62-0.04-0.99c0-0.37,0-0.75,0.01-1.14
		c0.01-0.39,0.01-0.79,0-1.18c-0.01-0.39-0.02-0.76-0.05-1.1c-0.01-0.15-0.03-0.32-0.04-0.5s-0.04-0.36-0.07-0.54
		c-0.03-0.18-0.08-0.33-0.13-0.47s-0.14-0.25-0.24-0.32c-0.01-0.01-0.03-0.02-0.04-0.02s-0.03-0.01-0.04-0.02
		c-0.1-0.05-0.25-0.09-0.45-0.12c-0.2-0.03-0.39-0.02-0.58,0.04c-0.19,0.06-0.36,0.17-0.51,0.34s-0.24,0.43-0.27,0.77
		c-0.03,0.44-0.03,0.88-0.02,1.3c0.01,0.42,0.03,0.85,0.05,1.27c0.02,0.42,0.03,0.85,0.03,1.26s-0.03,0.84-0.08,1.25v0.08
		c-0.21,0.06-0.4,0.1-0.56,0.11s-0.32,0.02-0.48,0.01c-0.17-0.01-0.35-0.02-0.55-0.03c-0.2-0.01-0.46-0.01-0.76,0.02
		c0-0.52,0-1.14-0.01-1.87c-0.01-0.73-0.01-1.51-0.02-2.35c-0.01-0.84-0.01-1.7-0.01-2.59c0-0.89,0-1.76,0-2.61s0-1.65,0.01-2.4
		c0.01-0.75,0.02-1.41,0.03-1.97c0.15,0.01,0.28,0.02,0.38,0.03c0.1,0.01,0.2,0.01,0.29,0.01c0.09,0,0.18,0,0.28-0.01
		c0.1-0.01,0.23-0.02,0.38-0.03c0.05,0,0.14-0.01,0.27-0.03c0.13-0.02,0.25-0.03,0.38-0.05c0.13-0.01,0.24-0.02,0.34-0.01
		c0.1,0.01,0.15,0.03,0.15,0.07c0.01,0.06,0.02,0.23,0.02,0.5c0,0.27,0,0.6,0,0.97c0,0.37,0,0.77,0,1.2c0,0.42,0,0.82,0,1.19
		c0,0.37,0,0.68,0,0.95C170.89,50.73,170.89,50.89,170.89,50.94z"/>
	<path d="M180.32,46.42v2.55c0,0.17,0,0.34,0.01,0.51c0.01,0.18,0.01,0.36,0.01,0.55c0.39-0.01,0.81-0.03,1.24-0.06
		c0.44-0.02,0.98-0.06,1.62-0.09c0.09,0.1,0.14,0.25,0.15,0.45c0.01,0.2,0.01,0.41,0,0.64c-0.01,0.23-0.03,0.46-0.05,0.69
		c-0.02,0.23-0.02,0.43,0.01,0.6h-2.94c0,0.68,0,1.35,0,2s0.01,1.26,0.02,1.83c0.13,0.18,0.31,0.32,0.55,0.42
		c0.24,0.1,0.5,0.18,0.78,0.24c0.28,0.06,0.56,0.09,0.85,0.1c0.29,0.01,0.54,0.01,0.75,0c0.03,0.18,0.05,0.37,0.08,0.59
		c0.03,0.21,0.04,0.44,0.06,0.67c0.01,0.23,0.01,0.46-0.01,0.68c-0.02,0.23-0.06,0.44-0.12,0.63c-0.51,0.03-1.03,0.02-1.58-0.01
		c-0.54-0.03-1.06-0.1-1.54-0.22c-0.48-0.11-0.91-0.29-1.28-0.51c-0.37-0.23-0.64-0.54-0.81-0.93c-0.16-0.98-0.26-1.9-0.28-2.76
		c-0.03-0.87-0.03-1.76-0.02-2.69c-0.2,0.01-0.42,0.02-0.64,0.02s-0.46,0-0.73,0l0.06-2.32c0.25,0.01,0.49,0.02,0.71,0.02
		s0.43,0,0.64,0c0-0.28-0.01-0.58-0.02-0.9c-0.01-0.32-0.02-0.65-0.02-0.98c0-0.33,0-0.65,0.01-0.95c0.01-0.3,0.02-0.58,0.05-0.82
		c0.17-0.03,0.35-0.03,0.54-0.02c0.2,0.01,0.4,0.03,0.62,0.05c0.22,0.02,0.43,0.04,0.65,0.05C179.89,46.45,180.1,46.44,180.32,46.42
		z"/>
	<path d="M186.28,55.63l0.04-0.72c0.06-0.41,0.14-0.79,0.24-1.17c0.09-0.37,0.26-0.74,0.5-1.09c0.14-0.27,0.35-0.58,0.64-0.94
		c0.29-0.36,0.53-0.72,0.73-1.07c0.2-0.35,0.3-0.68,0.29-0.99c-0.01-0.3-0.25-0.54-0.7-0.7c-0.29-0.13-0.52-0.16-0.67-0.09
		c-0.16,0.07-0.29,0.18-0.41,0.32s-0.22,0.3-0.32,0.47c-0.1,0.16-0.23,0.28-0.4,0.34c-0.39,0.04-0.78,0.04-1.17,0.02
		s-0.77-0.04-1.15-0.06v-0.02c0.03-0.48,0.13-0.95,0.32-1.42c0.19-0.46,0.45-0.88,0.78-1.24c0.33-0.37,0.72-0.67,1.16-0.9
		c0.44-0.23,0.94-0.36,1.48-0.39c0.58-0.05,1.14,0.01,1.66,0.17c0.53,0.16,0.98,0.42,1.37,0.76s0.68,0.75,0.88,1.24
		c0.2,0.48,0.27,1,0.21,1.56c-0.05,0.41-0.16,0.77-0.32,1.1c-0.17,0.33-0.35,0.63-0.57,0.91c-0.2,0.28-0.4,0.5-0.58,0.67
		s-0.37,0.38-0.56,0.64c-0.27,0.37-0.47,0.73-0.6,1.1c-0.13,0.37-0.24,0.77-0.33,1.22c-0.03,0.1-0.05,0.21-0.08,0.32
		s-0.03,0.22,0,0.32v0.02c-0.39,0.05-0.78,0.06-1.17,0.04c-0.39-0.03-0.78-0.03-1.17,0h-0.02c-0.05-0.05-0.08-0.12-0.08-0.2
		C186.28,55.77,186.28,55.7,186.28,55.63z M188.51,59.41l-2.15-0.02h-0.06c-0.03-0.14-0.04-0.32-0.05-0.53
		c-0.01-0.22-0.01-0.43,0-0.65c0.01-0.21,0.01-0.42,0.02-0.61c0.01-0.19,0.01-0.33,0.01-0.42c0.13-0.05,0.31-0.09,0.54-0.11
		s0.47-0.04,0.71-0.04c0.24,0,0.46,0.01,0.67,0.03c0.21,0.02,0.36,0.05,0.45,0.09c0,0.01-0.01,0.12-0.02,0.31s-0.03,0.42-0.04,0.67
		c-0.01,0.25-0.03,0.5-0.04,0.74c-0.01,0.24-0.02,0.41-0.02,0.49v0.02v0.02H188.51z"/>
</g>
</svg>
