<!-- Generator: Adobe Illustrator 23.1.1, SVG Export Plug-In  -->
<svg version="1.1" xmlns="http://www.w3.org/2000/svg" xmlns:xlink="http://www.w3.org/1999/xlink" x="0px" y="0px" width="48.52px"
	 height="163.44px" viewBox="0 0 48.52 163.44" style="enable-background:new 0 0 48.52 163.44;" xml:space="preserve">
<style type="text/css">
	.st0{fill:#1A1A1A;}
	.st1{fill:#623891;}
	.st2{fill:#6D4094;}
	.st3{fill:#2D3031;}
	.st4{fill:none;stroke:#050606;stroke-miterlimit:10;}
	.st5{fill:none;stroke:#020202;stroke-miterlimit:10;}
	.st6{fill:none;stroke:#000000;stroke-miterlimit:10;}
	.st7{opacity:0.65;}
</style>
<defs>
</defs>
<g>
	<g>
		<rect x="19.16" y="2.64" class="st0" width="9.07" height="9.07"/>
		<path class="st0" d="M1.08,15.14H45.5C45.5,15.14,27.57,3.79,1.08,15.14z"/>
		<path class="st1" d="M0.43,28.44c0,0,0.14-3.08,0.72-3.6s22.64-3.68,44.41,0c0,0,1.01,1.37,1.3,3.25
			C46.86,28.1,30.28,26.39,0.43,28.44z"/>
		<path class="st2" d="M5.04,85.58h37.18c2.51,0,4.54,2.03,4.54,4.54v61.2c0,3.02-1.68,5.8-4.37,7.15
			c-7.12,3.57-22.18,8.51-39.55-1.21c-1.44-0.8-2.33-2.33-2.33-3.97l0-63.17C0.5,87.61,2.53,85.58,5.04,85.58z"/>
		<path class="st2" d="M0.43,53.57c0,0-0.83-8.27,0-22.54c0,0,23.04-7.05,44-0.56c1.04,0.32,1.75,1.27,1.81,2.35
			c0.24,4.25,0.71,15.02-0.11,20.74C46.13,53.57,22.65,56.46,0.43,53.57z"/>
		<path class="st1" d="M1.32,56.95c1.15,5.09,2.75,15.24,0.21,25.24c-0.44,1.72,0.9,3.39,2.68,3.39h39.03c1.76,0,3.07-1.61,2.7-3.33
			c-1.13-5.25-2.77-15.81-0.22-25.22c0.47-1.74-0.86-3.45-2.66-3.45l-39.04,0C2.24,53.59,0.93,55.22,1.32,56.95z"/>
		<path class="st3" d="M1.08,23.83v-8.69c0,0,24.45-7.34,44.42,0v8.69C45.5,23.83,30.59,20.44,1.08,23.83z"/>
		<path class="st0" d="M3.07,22.61H2.89c-0.32,0-0.59-0.27-0.59-0.59v-4.85c0-0.32,0.27-0.59,0.59-0.59h0.17
			c0.32,0,0.59,0.27,0.59,0.59v4.85C3.66,22.34,3.39,22.61,3.07,22.61z"/>
		<path class="st0" d="M6.23,22.06H6.06c-0.33,0-0.6-0.27-0.6-0.6V16.5c0-0.33,0.27-0.6,0.6-0.6h0.16c0.33,0,0.6,0.27,0.6,0.6v4.96
			C6.82,21.79,6.56,22.06,6.23,22.06z"/>
		<path class="st0" d="M9.9,21.65H9.73c-0.33,0-0.6-0.27-0.6-0.6v-4.94c0-0.33,0.27-0.6,0.6-0.6H9.9c0.33,0,0.6,0.27,0.6,0.6v4.94
			C10.49,21.38,10.22,21.65,9.9,21.65z"/>
		<path class="st0" d="M13.57,21.29H13.4c-0.33,0-0.59-0.27-0.59-0.59v-4.87c0-0.33,0.27-0.59,0.59-0.59h0.17
			c0.33,0,0.59,0.27,0.59,0.59v4.87C14.16,21.03,13.89,21.29,13.57,21.29z"/>
		<path class="st0" d="M17.69,21.09h-0.16c-0.33,0-0.6-0.27-0.6-0.6v-4.95c0-0.33,0.27-0.6,0.6-0.6h0.16c0.33,0,0.6,0.27,0.6,0.6
			v4.95C18.29,20.82,18.02,21.09,17.69,21.09z"/>
		<path class="st0" d="M22.09,21.09h-0.1c-0.35,0-0.63-0.28-0.63-0.63v-5.58c0-0.35,0.28-0.63,0.63-0.63h0.1
			c0.35,0,0.63,0.28,0.63,0.63v5.58C22.72,20.81,22.43,21.09,22.09,21.09z"/>
		<path class="st0" d="M26.73,21.09h-0.12c-0.34,0-0.62-0.28-0.62-0.62v-5.38c0-0.34,0.28-0.62,0.62-0.62h0.12
			c0.34,0,0.62,0.28,0.62,0.62v5.38C27.35,20.81,27.07,21.09,26.73,21.09z"/>
		<path class="st0" d="M30.99,21.09h-0.16c-0.33,0-0.6-0.27-0.6-0.6v-4.95c0-0.33,0.27-0.6,0.6-0.6h0.16c0.33,0,0.6,0.27,0.6,0.6
			v4.95C31.58,20.82,31.31,21.09,30.99,21.09z"/>
		<path class="st0" d="M34.65,21.33h-0.16c-0.33,0-0.6-0.27-0.6-0.6v-4.95c0-0.33,0.27-0.6,0.6-0.6h0.16c0.33,0,0.6,0.27,0.6,0.6
			v4.95C35.25,21.06,34.98,21.33,34.65,21.33z"/>
		<path class="st0" d="M38.98,21.65h-0.16c-0.33,0-0.6-0.27-0.6-0.6v-4.95c0-0.33,0.27-0.6,0.6-0.6h0.16c0.33,0,0.6,0.27,0.6,0.6
			v4.95C39.58,21.39,39.31,21.65,38.98,21.65z"/>
		<path class="st0" d="M42.8,22.34h-0.16c-0.33,0-0.6-0.27-0.6-0.6V16.8c0-0.33,0.27-0.6,0.6-0.6h0.16c0.33,0,0.6,0.27,0.6,0.6v4.95
			C43.4,22.07,43.13,22.34,42.8,22.34z"/>
		<ellipse class="st0" cx="23.7" cy="1.97" rx="5.48" ry="1.35"/>
		<path class="st0" d="M25.67,1.22h-4.08c-0.34,0-0.61-0.28-0.61-0.61v0c0-0.34,0.28-0.61,0.61-0.61h4.08
			c0.34,0,0.61,0.28,0.61,0.61v0C26.28,0.95,26,1.22,25.67,1.22z"/>
		<path class="st4" d="M3.01,85.58h41.61c1.5,0,2.71,1.21,2.71,2.71v65.63c0,1.27-0.65,2.44-1.74,3.09
			c-5.46,3.27-23.11,11.73-43.82-0.37c-0.79-0.46-1.27-1.33-1.27-2.25l0-66.3C0.5,86.71,1.63,85.58,3.01,85.58z"/>
		<path class="st5" d="M1.23,54.21C2.1,57.25,5.6,70.98,1.64,83.95c-0.25,0.81,0.33,1.63,1.18,1.63l42.02,0
			c1.26,0,2.19-1.17,1.91-2.4c-1.23-5.33-3.55-18.52,0.55-29.15c0.08-0.21-0.07-0.44-0.3-0.44H1.7C1.37,53.59,1.14,53.9,1.23,54.21z
			"/>
		<path class="st6" d="M1.01,51.38c-0.19-2.71-0.52-9.66,0.04-19.92c0.03-0.61,0.45-1.13,1.04-1.28c4.64-1.22,24.99-5.91,43.71-0.29
			c1.06,0.32,1.8,1.28,1.86,2.39c0.21,3.78,0.62,12.55,0.11,18.39c-0.1,1.15-0.99,2.08-2.14,2.19c-5.95,0.58-24.87,2.1-43.26-0.05
			C1.64,52.72,1.07,52.12,1.01,51.38z"/>
		<path class="st6" d="M2.17,22.39v-6.48c0-0.51,0.33-0.94,0.82-1.08c4.26-1.14,24.39-5.98,41.82-0.38c1.07,0.34,1.78,1.37,1.78,2.5
			v4.36c0,1.25-1.1,2.22-2.34,2.03c-5.15-0.77-18.76-2.15-40.7,0.26C2.81,23.68,2.17,23.12,2.17,22.39z"/>
		<path class="st6" d="M1.16,27.73c0,0,0.14-2.72,0.7-3.17c0.56-0.45,22.01-3.25,43.17,0c0,0,0.98,1.21,1.26,2.87
			C46.3,27.42,30.18,25.91,1.16,27.73z"/>
	</g>
	<g class="st7">
		<path class="st1" d="M20.07,94.5c-3.22,0-3.22,5,0,5C23.28,99.5,23.29,94.5,20.07,94.5z"/>
		<path class="st1" d="M20.4,101.49c-3.22,0-3.22,5,0,5C23.62,106.49,23.62,101.49,20.4,101.49z"/>
		<path class="st1" d="M20.4,109.47c-3.22,0-3.22,5,0,5C23.62,114.47,23.62,109.47,20.4,109.47z"/>
		<path class="st1" d="M20.4,117.78c-3.22,0-3.22,5,0,5C23.62,122.78,23.62,117.78,20.4,117.78z"/>
		<path class="st1" d="M20.73,125.1c-3.22,0-3.22,5,0,5C23.95,130.1,23.95,125.1,20.73,125.1z"/>
		<path class="st1" d="M21.06,133.08c-3.22,0-3.22,5,0,5C24.28,138.08,24.29,133.08,21.06,133.08z"/>
		<path class="st1" d="M27.38,133.08c-3.22,0-3.22,5,0,5C30.6,138.08,30.6,133.08,27.38,133.08z"/>
		<path class="st1" d="M27.38,124.76c-3.22,0-3.22,5,0,5C30.6,129.76,30.6,124.76,27.38,124.76z"/>
		<path class="st1" d="M27.05,117.45c-3.22,0-3.22,5,0,5C30.27,122.45,30.27,117.45,27.05,117.45z"/>
		<path class="st1" d="M27.05,109.8c-3.22,0-3.22,5,0,5C30.27,114.8,30.27,109.8,27.05,109.8z"/>
		<path class="st1" d="M27.05,101.49c-3.22,0-3.22,5,0,5C30.27,106.49,30.27,101.49,27.05,101.49z"/>
		<path class="st1" d="M27.05,94.5c-3.22,0-3.22,5,0,5C30.27,99.5,30.27,94.5,27.05,94.5z"/>
		<path class="st1" d="M34.03,94.5c-3.22,0-3.22,5,0,5C37.25,99.5,37.26,94.5,34.03,94.5z"/>
		<path class="st1" d="M34.03,101.49c-3.22,0-3.22,5,0,5C37.25,106.49,37.26,101.49,34.03,101.49z"/>
		<path class="st1" d="M34.03,109.47c-3.22,0-3.22,5,0,5C37.25,114.47,37.26,109.47,34.03,109.47z"/>
		<path class="st1" d="M34.37,117.45c-3.22,0-3.22,5,0,5C37.58,122.45,37.59,117.45,34.37,117.45z"/>
		<path class="st1" d="M34.37,124.43c-3.22,0-3.22,5,0,5C37.58,129.43,37.59,124.43,34.37,124.43z"/>
		<path class="st1" d="M34.7,132.08c-3.22,0-3.22,5,0,5C37.91,137.08,37.92,132.08,34.7,132.08z"/>
		<path class="st1" d="M41.02,131.41c-3.22,0-3.22,5,0,5C44.23,136.41,44.24,131.41,41.02,131.41z"/>
		<path class="st1" d="M40.68,124.1c-3.22,0-3.22,5,0,5C43.9,129.1,43.91,124.1,40.68,124.1z"/>
		<path class="st1" d="M41.02,116.78c-3.22,0-3.22,5,0,5C44.23,121.78,44.24,116.78,41.02,116.78z"/>
		<path class="st1" d="M40.68,109.47c-3.22,0-3.22,5,0,5C43.9,114.47,43.91,109.47,40.68,109.47z"/>
		<path class="st1" d="M41.02,101.82c-3.22,0-3.22,5,0,5C44.23,106.82,44.24,101.82,41.02,101.82z"/>
		<path class="st1" d="M41.35,94.5c-3.22,0-3.22,5,0,5C44.57,99.5,44.57,94.5,41.35,94.5z"/>
	</g>
</g>
</svg>
