<!-- Generator: Adobe Illustrator 23.1.1, SVG Export Plug-In  -->
<svg version="1.1" xmlns="http://www.w3.org/2000/svg" xmlns:xlink="http://www.w3.org/1999/xlink" x="0px" y="0px" width="76.94px"
	 height="160.49px" viewBox="0 0 76.94 160.49" style="enable-background:new 0 0 76.94 160.49;" xml:space="preserve">
<style type="text/css">
	.st0{fill:#36C2E9;}
	.st1{fill:#F07A30;}
	.st2{fill:#B55F2F;}
	.st3{fill:#F8A948;}
	.st4{fill:none;stroke:#010101;stroke-miterlimit:10;}
	.st5{fill:#79D0EE;}
	.st6{fill:#24AFD6;}
	.st7{fill:none;stroke:#030303;stroke-miterlimit:10;}
	.st8{fill:#F38B3C;}
	.st9{fill:#F9F9FA;}
	.st10{fill:#EAEAEA;}
	.st11{fill:none;}
	.st12{font-family:'Impact';}
	.st13{font-size:15px;}
	.st14{fill:#2080A0;}
	.st15{fill:#F9F9FA;stroke:#020202;stroke-miterlimit:10;}
	.st16{fill:#EAEAEA;stroke:#020202;stroke-miterlimit:10;}
	.st17{fill:none;stroke:#020202;stroke-width:0.75;stroke-miterlimit:10;}
	.st18{fill:none;stroke:#000000;stroke-miterlimit:10;}
	.st19{opacity:0.49;}
</style>
<defs>
</defs>
<g>
	<g>
		<path class="st0" d="M61.56,160.49H17.33c-1.66,0-3.01-1.35-3.01-3.01v-2.49h51v1.74C65.32,158.81,63.64,160.49,61.56,160.49z"/>
		<path class="st0" d="M65.25,153h-52v-12.59c0-0.78,0.63-1.41,1.41-1.41h45.51c2.8,0,5.07,2.27,5.07,5.07V153z"/>
		<path class="st1" d="M2.27,17.16l10.61,112.02c0.58,6.14-1.63,5.82,4.37,8.82l39.5-1.39c7.1,0,7.5-2.41,8-8.9l9.41-111.12
			c0.15-1.92-2.78-4.09-4.69-4.09L6.93,12C4.17,12,2.01,14.39,2.27,17.16z"/>
		<g>
			<path class="st2" d="M74.03,11H2.69c-0.68,0-1.23-0.55-1.23-1.23V7.93h74v1.65C75.46,10.36,74.82,11,74.03,11z"/>
			<path class="st3" d="M1.47,8L0.72,2.09C0.58,0.98,1.44,0,2.56,0h72.03C76,0,77.1,1.24,76.92,2.64l-0.5,3.97
				C76.32,7.41,75.64,8,74.85,8H1.47z"/>
			<path class="st4" d="M1.05,6.61L0.52,2.85C0.38,1.88,1.14,1,2.12,1h72.25c0.99,0,1.75,0.88,1.61,1.85l-0.54,3.75
				C75.34,7.41,74.65,8,73.84,8H2.66C1.85,8,1.17,7.41,1.05,6.61z"/>
		</g>
		<path class="st5" d="M24.92,158.68L25.25,140H14.46c-0.12,0-0.21,0.09-0.21,0.19V158c0,0,2.04,1.86,9.76,1.54
			C24.51,159.52,24.91,159.14,24.92,158.68z"/>
		<path class="st6" d="M49.25,159v-19h12.43c1.42,0,2.57,1.15,2.57,2.57v15.08c0,0.74-0.7,1.35-1.55,1.35H49.25z"/>
		<path class="st7" d="M60.99,159.5H16.77c-1.66,0-3.01-1.35-3.01-3.01V154h51v1.74C64.75,157.82,63.07,159.5,60.99,159.5z"/>
		<path class="st3" d="M25.25,137c0,0-14.07,3.83-12.54-9.08L2.25,18c0,0,0-6,6-5C8.25,13,6.25,46,25.25,137z"/>
		<path class="st8" d="M25.25,137c0,0-21-101-17-124l49.77-0.11c0,0-13.77,98.11-8.77,124.11H25.25z"/>
		<circle class="st9" cx="38.75" cy="71.5" r="16.5"/>
		<path class="st10" d="M51.23,60.7l-2.25,23.74c0,0,7.19-4.73,6.23-14.09C55.21,70.36,55.2,64.41,51.23,60.7z"/>
		<path class="st9" d="M45.06,46.54l1.4,4.26l1.4,4.26l-0.97-0.43c-2.4-1.07-5.02-1.56-7.64-1.41l-0.18,0.01l2.99-3.35L45.06,46.54z
			"/>
		<path class="st9" d="M59.47,54.71l-1.28,4.3l-1.28,4.3l-1.78-2.22c-0.58-0.73-1.22-1.41-1.91-2.04l-2.48-2.26l4.37-1.04
			L59.47,54.71z"/>
		<path class="st10" d="M65.56,71.83l-3.99,2.06l-3.99,2.06v0c1.09-2.56,1.31-5.4,0.64-8.1L58,66.98l3.78,2.42L65.56,71.83z"/>
		<path class="st10" d="M56.03,80.08l1.32,4.29l1.32,4.29l-4.38-1l-4.38-1l0.65-0.4C52.97,84.79,54.87,82.63,56.03,80.08
			L56.03,80.08z"/>
		<path class="st9" d="M35.6,89.4l0.39,0.13c2.77,0.95,5.77,1.01,8.58,0.17h0l-2.38,3.81l-2.38,3.81l-2.11-3.96L35.6,89.4z"/>
		<path class="st9" d="M24.34,82.55L24.34,82.55c1.92,2.28,4.29,4.14,6.96,5.47l0.11,0.06l-4.16,1.68l-4.16,1.68l0.63-4.44
			L24.34,82.55z"/>
		<path class="st9" d="M21.36,69.89L21.36,69.89c-0.72,2.67-0.58,5.5,0.4,8.09l0.32,0.86l-4.05-1.92l-4.05-1.92l3.69-2.55
			L21.36,69.89z"/>
		<path class="st9" d="M26.07,58.75L26.07,58.75c-1.87,2.15-3.36,4.6-4.42,7.24l-0.19,0.46l-2.19-3.92l-2.19-3.92l4.49,0.07
			L26.07,58.75z"/>
		<path class="st9" d="M36.03,53.42l-0.91,0.12c-2.72,0.35-5.3,1.4-7.49,3.06h0l0.72-4.43l0.72-4.43l3.47,2.84L36.03,53.42z"/>
		<path class="st4" d="M1.81,18.34l10.98,114.33c0.26,2.74,2.56,4.82,5.31,4.82h42.23c2.78,0,5.1-2.14,5.32-4.91l9.15-114.33
			c0.25-3.1-2.2-5.76-5.32-5.76H7.12C3.98,12.5,1.51,15.21,1.81,18.34z"/>
		<rect x="28.77" y="104" class="st11" width="24.48" height="14"/>
		<text transform="matrix(1 0 0 1 28.7733 115.8648)" class="st9 st12 st13">SPF</text>
		<path class="st4" d="M64.75,153h-51v-12.12c0-0.76,0.62-1.38,1.38-1.38h48.38c0.69,0,1.25,0.56,1.25,1.25V153z"/>
		<rect x="33.25" y="151" class="st14" width="11" height="2"/>
		<rect x="14.25" y="152" class="st14" width="50" height="3"/>
		<g>
			<path class="st15" d="M44.06,46.54l1.4,4.26l1.4,4.26l-0.97-0.43c-2.4-1.07-5.02-1.56-7.64-1.41l-0.18,0.01l2.99-3.35
				L44.06,46.54z"/>
			<path class="st15" d="M58.47,54.71l-1.28,4.3l-1.28,4.3l-1.78-2.22c-0.58-0.73-1.22-1.41-1.91-2.04l-2.48-2.26l4.37-1.04
				L58.47,54.71z"/>
			<path class="st16" d="M64.56,71.83l-3.99,2.06l-3.99,2.06v0c1.09-2.56,1.31-5.4,0.64-8.1L57,66.98l3.78,2.42L64.56,71.83z"/>
			<path class="st16" d="M55.03,80.08l1.32,4.29l1.32,4.29l-4.38-1l-4.38-1l0.65-0.4C51.97,84.79,53.87,82.63,55.03,80.08
				L55.03,80.08z"/>
			<path class="st15" d="M34.6,89.4l0.39,0.13c2.77,0.95,5.77,1.01,8.58,0.17h0l-2.38,3.81l-2.38,3.81l-2.11-3.96L34.6,89.4z"/>
			<path class="st15" d="M23.34,82.55L23.34,82.55c1.92,2.28,4.29,4.14,6.96,5.47l0.11,0.06l-4.16,1.68l-4.16,1.68l0.63-4.44
				L23.34,82.55z"/>
			<path class="st15" d="M20.36,69.89L20.36,69.89c-0.72,2.67-0.58,5.5,0.4,8.09l0.32,0.86l-4.05-1.92l-4.05-1.92l3.69-2.55
				L20.36,69.89z"/>
			<path class="st15" d="M25.07,58.75L25.07,58.75c-1.87,2.15-3.36,4.6-4.42,7.24l-0.19,0.46l-2.19-3.92l-2.19-3.92l4.49,0.07
				L25.07,58.75z"/>
			<path class="st15" d="M35.03,53.42l-0.91,0.12c-2.72,0.35-5.3,1.4-7.49,3.06h0l0.72-4.43l0.72-4.43l3.47,2.84L35.03,53.42z"/>
		</g>
		<rect x="27.84" y="104" class="st11" width="24.48" height="14"/>
		<text transform="matrix(1 0 0 1 27.8431 115.8648)" class="st17 st12 st13">SPF</text>
		<circle class="st18" cx="38.18" cy="72.08" r="15.92"/>
	</g>
	<g class="st19">
		<path class="st3" d="M40,17.71c-3.22,0-3.22,5,0,5C43.22,22.71,43.22,17.71,40,17.71z"/>
		<path class="st3" d="M47.76,17.71c-3.22,0-3.22,5,0,5C50.98,22.71,50.98,17.71,47.76,17.71z"/>
		<path class="st3" d="M55.52,17.71c-3.22,0-3.22,5,0,5C58.74,22.71,58.74,17.71,55.52,17.71z"/>
		<path class="st3" d="M63.72,17.71c-3.22,0-3.22,5,0,5C66.94,22.71,66.94,17.71,63.72,17.71z"/>
		<path class="st3" d="M40,25.25c-3.22,0-3.22,5,0,5C43.22,30.25,43.22,25.25,40,25.25z"/>
		<path class="st3" d="M47.54,25.47c-3.22,0-3.22,5,0,5C50.75,30.47,50.76,25.47,47.54,25.47z"/>
		<path class="st3" d="M55.52,25.47c-3.22,0-3.22,5,0,5C58.74,30.47,58.74,25.47,55.52,25.47z"/>
		<path class="st3" d="M63.06,25.69c-3.22,0-3.22,5,0,5C66.27,30.69,66.28,25.69,63.06,25.69z"/>
		<path class="st3" d="M63.06,33.45c-3.22,0-3.22,5,0,5C66.27,38.45,66.28,33.45,63.06,33.45z"/>
		<path class="st3" d="M55.74,33.45c-3.22,0-3.22,5,0,5C58.96,38.45,58.96,33.45,55.74,33.45z"/>
		<path class="st3" d="M47.76,33.23c-3.22,0-3.22,5,0,5C50.98,38.23,50.98,33.23,47.76,33.23z"/>
		<path class="st3" d="M40.44,33.23c-3.22,0-3.22,5,0,5C43.66,38.23,43.67,33.23,40.44,33.23z"/>
	</g>
</g>
</svg>
