<!-- Generator: Adobe Illustrator 23.1.1, SVG Export Plug-In  -->
<svg version="1.1" xmlns="http://www.w3.org/2000/svg" xmlns:xlink="http://www.w3.org/1999/xlink" x="0px" y="0px"
	 width="160.07px" height="94.16px" viewBox="0 0 160.07 94.16" style="enable-background:new 0 0 160.07 94.16;"
	 xml:space="preserve">
<style type="text/css">
	.st0{fill:#E83636;}
	.st1{fill:#D1302E;}
	.st2{fill:#DA252E;}
	.st3{fill:none;stroke:#010101;stroke-miterlimit:10;}
	.st4{fill:none;stroke:#030303;stroke-miterlimit:10;}
</style>
<defs>
</defs>
<g>
	<g>
		<path class="st0" d="M41.07,58c0,0,0-40,36-49s56,2,56,2s16.84,6.13,23.06,28.42c1.36,4.87,1.94,9.92,1.94,14.98v6.08
			c0,1.82-0.94,3.53-2.5,4.45c-5.18,3.06-20.09,8.52-59.5,7.06C96.07,72,58.07,73,41.07,58z"/>
		<path class="st1" d="M39.07,59c0,0,8,15,55,14c0,0-19,27-59,20c0,0-23.24-5.81-34.18-18.94c-1.66-1.99-0.9-5.02,1.5-6
			C8.33,65.62,19.59,62.36,39.07,59z"/>
		<path class="st2" d="M128.13,8.99c0,0,30.93,8.01,29.93,51.01c0,0,1.72,5-13.64,9s-48.36,3-48.36,3V29.45
			c0-3.57,1.27-7.1,3.8-9.63c1.08-1.08,2.45-2.08,4.2-2.83C111.07,14,128.13,8.99,128.13,8.99z"/>
		<path class="st2" d="M108.07,3h-9c-0.55,0-1-0.45-1-1v0c0-0.55,0.45-1,1-1h9c0.55,0,1,0.45,1,1v0C109.07,2.55,108.62,3,108.07,3z"
			/>
		<path class="st3" d="M42.57,56.84c0,0,0-40,36-49s56,2,56,2s16.84,6.13,23.06,28.42c1.36,4.87,1.94,9.92,1.94,14.98l0,6.08
			c0,1.82-0.94,3.53-2.5,4.45c-5.18,3.06-20.09,8.52-59.5,7.06C97.57,70.84,59.57,71.84,42.57,56.84z"/>
		<path class="st4" d="M41.9,58.07c0,0,8,15,55,14c0,0-19,27-59,20c0,0-23.24-5.81-34.18-18.94c-1.66-1.99-0.9-5.02,1.5-6
			C11.16,64.69,22.42,61.43,41.9,58.07z"/>
		<path class="st4" d="M108.57,2.5h-9c-0.55,0-1-0.45-1-1v0c0-0.55,0.45-1,1-1h9c0.55,0,1,0.45,1,1v0
			C109.57,2.05,109.12,2.5,108.57,2.5z"/>
	</g>
	<g>
		<path class="st0" d="M109.85,33.83c-3.22,0-3.22,5,0,5C113.07,38.83,113.08,33.83,109.85,33.83z"/>
		<path class="st0" d="M117.5,31.17c-3.22,0-3.22,5,0,5C120.72,36.17,120.73,31.17,117.5,31.17z"/>
		<path class="st0" d="M126.15,27.85c-3.22,0-3.22,5,0,5C129.37,32.85,129.37,27.85,126.15,27.85z"/>
		<path class="st0" d="M133.47,24.19c-3.22,0-3.22,5,0,5C136.68,29.19,136.69,24.19,133.47,24.19z"/>
		<path class="st0" d="M135.13,32.5c-3.22,0-3.22,5,0,5C138.35,37.5,138.35,32.5,135.13,32.5z"/>
		<path class="st0" d="M135.79,41.15c-3.22,0-3.22,5,0,5C139.01,46.15,139.02,41.15,135.79,41.15z"/>
		<path class="st0" d="M135.46,50.46c-3.22,0-3.22,5,0,5C138.68,55.46,138.68,50.46,135.46,50.46z"/>
		<path class="st0" d="M110.85,41.81c-3.22,0-3.22,5,0,5C114.07,46.81,114.07,41.81,110.85,41.81z"/>
		<path class="st0" d="M111.52,50.13c-3.22,0-3.22,5,0,5C114.73,55.13,114.74,50.13,111.52,50.13z"/>
		<path class="st0" d="M112.51,57.78c-3.22,0-3.22,5,0,5C115.73,62.78,115.74,57.78,112.51,57.78z"/>
		<path class="st0" d="M120.5,55.45c-3.22,0-3.22,5,0,5C123.71,60.45,123.72,55.45,120.5,55.45z"/>
		<path class="st0" d="M128.14,53.12c-3.22,0-3.22,5,0,5C131.36,58.12,131.37,53.12,128.14,53.12z"/>
		<path class="st0" d="M119.17,38.82c-3.22,0-3.22,5,0,5C122.38,43.82,122.39,38.82,119.17,38.82z"/>
		<path class="st0" d="M127.48,34.83c-3.22,0-3.22,5,0,5C130.7,39.83,130.7,34.83,127.48,34.83z"/>
		<path class="st0" d="M128.14,42.81c-3.22,0-3.22,5,0,5C131.36,47.81,131.36,42.81,128.14,42.81z"/>
		<path class="st0" d="M119.83,46.47c-3.22,0-3.22,5,0,5C123.05,51.47,123.05,46.47,119.83,46.47z"/>
	</g>
</g>
</svg>
