<!-- Generator: Adobe Illustrator 23.1.1, SVG Export Plug-In  -->
<svg version="1.1" xmlns="http://www.w3.org/2000/svg" xmlns:xlink="http://www.w3.org/1999/xlink" x="0px" y="0px"
	 width="118.41px" height="83.19px" viewBox="0 0 118.41 83.19" style="enable-background:new 0 0 118.41 83.19;"
	 xml:space="preserve">
<style type="text/css">
	.st0{fill:#E2E1D0;}
	.st1{fill:#1B1B1B;}
	.st2{fill:#24A2C4;}
	.st3{fill:#8DCEBE;}
	.st4{fill:#FDFBEA;}
	.st5{fill:#1F549C;}
	.st6{fill:none;stroke:#010101;stroke-miterlimit:10;}
	.st7{opacity:0.53;fill:#8DCEBE;}
</style>
<defs>
</defs>
<g>
	<g>
		<g>
			<g>
				<g>
					<path class="st0" d="M82.15,6.05c1.09-1.89,1.74-4.3,3.71-5.25c2.42-1.18,5.18,0.57,7.3,2.23c1.82,1.43,3.82,3.21,3.74,5.52
						c-0.05,1.48-0.97,2.77-1.65,4.09c-2.04,3.94-2.26,8.89-5.37,12.05c-2.58,2.61-6.57,3.3-10.23,3.06
						c-4.3-0.29-8.69-1.79-11.59-4.98c-2.39-2.63-5.25-10.4-0.02-11.67c2.61-0.64,5.22,0.64,7.92-0.16
						C78.54,10.17,80.81,8.38,82.15,6.05z"/>
					<path class="st1" d="M1.36,51.8c0,0,2.73,19.22,26,19c7.55-0.07,19.96-1.51,27-4.11l25-9.25c0,0,21.92-8.23,23-9.25l-1-16.38
						C101.36,31.8,29.32,67.22,1.36,51.8z"/>
					<path class="st2" d="M12.14,38.32c-3.55,1.46-6.71,3.79-8.98,6.89c-1.56,2.13-2.65,4.57-1.8,6.65c2.02,5.01,8.1,9.02,8.1,9.02
						s15.18,12.02,59.71-6.01l16.19-16.03c0,0-8.1-2-14.17-15.03c0,0-5.06-7.01-8.1-6.01L35.27,37.33l-6.07-6.01L12.14,38.32z"/>
					<path class="st3" d="M101.36,31.8l1,9c0,0-3,7-16,7L101.36,31.8z"/>
					<path class="st3" d="M78.01,21.94c0,0,13.41,2.67,18.35,0.86l-9.34,12.97C87.02,35.77,80.75,36.99,78.01,21.94z"/>
					<path class="st4" d="M62.36,18.13l6.25-4.33c0,0,7.29,3.25,9.38,9.74c2.08,6.49,5.21,10.82,9.38,11.91l-4.07,4.35
						c0,0-5.33-2.16-11.57-13C65.49,15.96,62.36,18.13,62.36,18.13z"/>
					<path class="st5" d="M27.99,30.27L54.8,4.55c0.55-0.53,1.3-0.81,2.06-0.72c1.87,0.21,5.54,1.69,10.84,8.59
						c0.92,1.2,0.65,2.94-0.61,3.79L36.21,36.93c-0.8,0.54-1.82,0.59-2.67,0.15l-4.94-2.59C27,33.65,26.7,31.51,27.99,30.27z"/>
					<path class="st4" d="M91.36,22.8c0,0,0,0,4,0s5-7,5-7l-3-8L91.36,22.8z"/>
					<path class="st3" d="M8.96,48.96c2.76,1.3,7.62,1.94,16,0.93c0,0,19.02-0.53,20.53-6.67c0,0-0.4-5.03-9.5-2.82
						c-2.5,0.61-5.09,0.74-7.6,0.19c-3.16-0.7-6.81-2.19-7.62-5.41L9.21,40.08C5.36,41.72,5.18,47.18,8.96,48.96z"/>
					<path class="st5" d="M66.36,55.8c0,0,34-34,34-40l1,16l-15,16L66.36,55.8z"/>
					<path class="st4" d="M7.07,58.72c-0.4-0.19-0.76,0.3-0.46,0.62c2.82,3.04,10.77,9.5,27.34,9.33
						c7.02-0.07,13.97-1.52,20.52-4.15l22.89-9.18c0.01,0,0.01-0.01,0.03-0.01c0.51-0.15,22.36-6.76,24.8-8.15
						c0.12-0.07,0.19-0.2,0.19-0.34v-6.42c0-0.29-0.3-0.49-0.56-0.36C95.24,43.08,32.88,71.23,7.07,58.72z"/>
					<path class="st4" d="M27.36,30.8l6.98,6.54c0.29,0.27,0.72,0.3,1.04,0.07l4.98-3.6l-1.85-9.32l3.85,8.32l10-7l-4.41-8.26
						l6.41,7.26l9-6l-9.11-14L51.1,8.27l4.2,10.42l-6.93-7.89l-6,6l5.59,10l-7.59-8l-6,5l1,8.79l-4-5.79L27.36,30.8z"/>
				</g>
				<path class="st6" d="M5.21,58.18c7.34,6.98,18.12,9.48,28.28,8.92S53.44,63.25,63.08,60c11.44-3.87,22.89-7.74,34.33-11.61
					c1.48-0.5,3.11-1.14,3.73-2.56c0.33-0.75,0.3-1.61,0.27-2.43c-0.13-3.63-0.26-7.27-0.39-10.9c-0.3-8.29-0.66-16.84-4.25-24.33
					c-0.65,2.93-1.31,5.9-2.69,8.57c-1.37,2.67-3.56,5.07-6.42,6.06c-3.4,1.18-7.25,0.21-10.29-1.7s-5.41-4.68-7.73-7.4
					c-0.75-0.88-1.23-1.81-1.64-2.89c4.68,1.09,9.95-1.05,12.5-5.08c0.84-1.33,1.43-2.86,2.61-3.91c2.08-1.85,5.43-1.61,7.82-0.18
					c2.4,1.43,4.06,3.77,5.64,6.05"/>
				<path class="st6" d="M21.04,34.9c-6.11,1.64-11.85,4.61-16.72,8.65c-1.53,1.27-3.03,2.73-3.59,4.64
					c-0.85,2.92,0.79,6.06,3.1,8.04c3.95,3.39,9.48,4.17,14.68,4.4c14.26,0.61,28.52-1.94,42.2-6S87.58,45,100.73,39.46"/>
			</g>
			<path class="st6" d="M24.69,33.79c1.81,0.76,3.44,1.9,5.22,2.75s3.81,1.4,5.71,0.88c1.34-0.37,2.48-1.23,3.58-2.08
				c8.95-6.87,17.93-13.92,28.15-18.65c0.95-0.44,1.42-1.54,1.01-2.49c-2.12-4.9-6.59-8.71-11.79-9.88
				c-0.89-0.2-1.82,0.08-2.47,0.71L24.69,33.79z"/>
			<path class="st6" d="M20.69,34.69c1.39,2.45,4.21,3.79,6.99,4.21s5.62,0.08,8.43-0.02c2.81-0.1,5.75,0.06,8.23,1.39
				c0.92,0.49,1.83,1.24,1.98,2.28c0.13,0.87-0.32,1.74-0.96,2.33s-1.46,0.96-2.27,1.3c-9.19,3.89-19.48,5.95-29.22,3.79
				c-1.87-0.41-3.75-1-5.25-2.17s-2.6-3.03-2.41-4.94"/>
		</g>
		<g>
			<g>
				<g>
					<path class="st0" d="M96.69,18.44c1.09-1.89,1.74-4.3,3.71-5.25c2.42-1.18,5.18,0.57,7.3,2.23c1.82,1.43,3.82,3.21,3.74,5.52
						c-0.05,1.48-0.97,2.77-1.65,4.09c-2.04,3.94-2.26,8.89-5.37,12.05c-2.58,2.61-6.57,3.3-10.23,3.06
						c-4.3-0.29-8.69-1.79-11.59-4.98c-2.39-2.63-5.25-10.4-0.02-11.67c2.61-0.64,5.22,0.64,7.92-0.16
						C93.08,22.56,95.36,20.78,96.69,18.44z"/>
					<path class="st1" d="M15.91,64.2c0,0,2.73,19.22,26,19c7.55-0.07,19.96-1.51,27-4.11l25-9.25c0,0,21.92-8.23,23-9.25l-1-16.38
						C115.91,44.2,43.86,79.62,15.91,64.2z"/>
					<path class="st2" d="M26.69,50.72c-3.55,1.46-6.71,3.79-8.98,6.89c-1.56,2.13-2.65,4.57-1.8,6.65c2.02,5.01,8.1,9.02,8.1,9.02
						s15.18,12.02,59.71-6.01l16.19-16.03c0,0-8.1-2-14.17-15.03c0,0-5.06-7.01-8.1-6.01L49.81,49.73l-6.07-6.01L26.69,50.72z"/>
					<path class="st3" d="M115.91,44.2l1,9c0,0-3,7-16,7L115.91,44.2z"/>
					<path class="st3" d="M92.55,34.34c0,0,13.41,2.67,18.35,0.86l-9.34,12.97C101.56,48.17,95.29,49.39,92.55,34.34z"/>
					<path class="st4" d="M76.91,30.53l6.25-4.33c0,0,7.29,3.25,9.38,9.74c2.08,6.49,5.21,10.82,9.38,11.91l-4.07,4.35
						c0,0-5.33-2.16-11.57-13S76.91,30.53,76.91,30.53z"/>
					<path class="st5" d="M39.91,45.2l30.08-28.87c0,0,4.47-1.96,12.75,9.13c0.65,0.87,0.44,2.12-0.46,2.73L49.46,50.2L39.91,45.2z"
						/>
					<path class="st4" d="M105.91,35.2c0,0,0,0,4,0s5-7,5-7l-3-8L105.91,35.2z"/>
					<path class="st3" d="M23.51,61.36c2.76,1.3,7.62,1.94,16,0.93c0,0,19.02-0.53,20.53-6.67c0,0-0.4-5.03-9.5-2.82
						c-2.5,0.61-5.09,0.74-7.6,0.19c-3.16-0.7-6.81-2.19-7.62-5.41l-11.56,4.92C19.91,54.12,19.72,59.58,23.51,61.36z"/>
					<path class="st5" d="M80.91,68.2c0,0,34-34,34-40l1,16l-15,16L80.91,68.2z"/>
					<path class="st4" d="M21.61,71.12c-0.4-0.19-0.76,0.3-0.46,0.62c2.82,3.04,10.77,9.5,27.34,9.33
						c7.02-0.07,13.97-1.52,20.52-4.15l22.89-9.18c0.01,0,0.01-0.01,0.03-0.01c0.51-0.15,22.36-6.76,24.8-8.15
						c0.12-0.07,0.19-0.2,0.19-0.34v-6.42c0-0.29-0.3-0.49-0.56-0.36C109.79,55.48,47.42,83.63,21.61,71.12z"/>
					<path class="st4" d="M41.91,43.2l6.98,6.54c0.29,0.27,0.72,0.3,1.04,0.07l4.98-3.6l-1.85-9.32l3.85,8.32l10-7l-4.41-8.26
						l6.41,7.26l9-6l-9.11-14l-3.15,3.47l4.2,10.42l-6.93-7.89l-6,6l5.59,10l-7.59-8l-6,5l1,8.79l-4-5.79L41.91,43.2z"/>
				</g>
				<path class="st6" d="M21.69,71.18c7.34,6.98,18.12,9.48,28.28,8.92s19.95-3.85,29.58-7.11c11.44-3.87,22.89-7.74,34.33-11.61
					c1.48-0.5,3.11-1.14,3.73-2.56c0.33-0.75,0.3-1.61,0.27-2.43c-0.13-3.63-0.26-7.27-0.39-10.9c-0.3-8.29-0.66-16.84-4.25-24.33
					c-0.65,2.93-1.31,5.9-2.69,8.57c-1.37,2.67-3.56,5.07-6.42,6.06c-3.4,1.18-7.25,0.21-10.29-1.7s-5.41-4.68-7.73-7.4
					c-0.75-0.88-1.23-1.81-1.64-2.89c4.68,1.09,9.95-1.05,12.5-5.08c0.84-1.33,1.43-2.86,2.61-3.91c2.08-1.85,5.43-1.61,7.82-0.18
					c2.4,1.43,4.06,3.77,5.64,6.05"/>
				<path class="st6" d="M36.31,47.43c-6.11,1.64-11.85,4.61-16.72,8.65c-1.53,1.27-3.03,2.73-3.59,4.64
					c-0.85,2.92,0.79,6.06,3.1,8.04c3.95,3.39,9.48,4.17,14.68,4.4c14.26,0.61,28.52-1.94,42.2-6s26.87-9.62,40.02-15.16"/>
			</g>
			<path class="st6" d="M39.01,45.93c1.81,0.76,3.44,1.9,5.22,2.75c1.78,0.85,3.81,1.4,5.71,0.88c1.34-0.37,2.48-1.23,3.58-2.08
				c8.95-6.87,17.93-13.92,28.15-18.65c0.95-0.44,1.42-1.54,1.01-2.49c-2.16-4.99-6.77-8.86-12.09-9.94
				c-0.7-0.14-1.43,0.06-1.95,0.56L39.01,45.93z"/>
			<path class="st6" d="M35.58,47.47c2.42,4.08,7.3,6.56,12.02,6.1c3.31-0.32,6.78-1.91,9.79-0.5c1.06,0.5,2,1.47,2.04,2.65
				c0.05,1.77-1.81,2.9-3.43,3.61c-5.08,2.23-10.35,4.16-15.86,4.81s-11.3-0.05-16.11-2.82c-1.11-0.64-2.19-1.41-2.9-2.48
				s-1-2.48-0.49-3.66"/>
		</g>
		<path class="st6" d="M79.29,30.5c2.86,1.29,4.16,4.52,5.59,7.31c2.74,5.36,6.86,10,11.86,13.36"/>
	</g>
	<path class="st7" d="M62.93,50.14c-3.22,0-3.22,5,0,5C66.15,55.14,66.16,50.14,62.93,50.14z"/>
	<path class="st7" d="M68.92,46.81c-3.22,0-3.22,5,0,5C72.14,51.81,72.14,46.81,68.92,46.81z"/>
	<path class="st7" d="M75.13,43.49c-3.22,0-3.22,5,0,5C78.34,48.49,78.35,43.49,75.13,43.49z"/>
	<path class="st7" d="M81.33,39.94c-3.22,0-3.22,5,0,5C84.55,44.94,84.56,39.94,81.33,39.94z"/>
	<path class="st7" d="M84.44,46.81c-3.22,0-3.22,5,0,5C87.65,51.81,87.66,46.81,84.44,46.81z"/>
	<path class="st7" d="M78.45,49.47c-3.22,0-3.22,5,0,5C81.67,54.47,81.67,49.47,78.45,49.47z"/>
	<path class="st7" d="M71.58,52.58c-3.22,0-3.22,5,0,5C74.8,57.58,74.8,52.58,71.58,52.58z"/>
	<path class="st7" d="M65.37,56.35c-3.22,0-3.22,5,0,5C68.59,61.35,68.59,56.35,65.37,56.35z"/>
	<path class="st7" d="M67.59,62.78c-3.22,0-3.22,5,0,5C70.81,67.78,70.81,62.78,67.59,62.78z"/>
	<path class="st7" d="M74.02,59.67c-3.22,0-3.22,5,0,5C77.23,64.67,77.24,59.67,74.02,59.67z"/>
	<path class="st7" d="M79.78,56.79c-3.22,0-3.22,5,0,5C83,61.79,83,56.79,79.78,56.79z"/>
	<path class="st7" d="M86.65,53.91c-3.22,0-3.22,5,0,5C89.87,58.91,89.88,53.91,86.65,53.91z"/>
</g>
</svg>
