<!-- Generator: Adobe Illustrator 23.1.1, SVG Export Plug-In  -->
<svg version="1.1" xmlns="http://www.w3.org/2000/svg" xmlns:xlink="http://www.w3.org/1999/xlink" x="0px" y="0px"
	 width="208.24px" height="62.81px" viewBox="0 0 208.24 62.81" style="enable-background:new 0 0 208.24 62.81;"
	 xml:space="preserve">
<defs>
</defs>
<g>
	<path d="M0.17,0.38c0.09-0.01,0.2-0.02,0.32-0.02c0.1,0,0.28,0.01,0.53,0.04c0.61,0.04,1.04,0.06,1.29,0.08v0.08
		c0,0.82-0.01,2.08-0.04,3.78C2.24,6.02,2.22,7.72,2.22,9.44c0,1.61,0.03,3.05,0.08,4.33c-0.1,0.08-0.35,0.11-0.76,0.11l-1.04-0.02
		c-0.17,0-0.32,0.01-0.48,0.04c0.05-0.96,0.08-2.11,0.08-3.44c0-0.81-0.01-1.42-0.02-1.84L0.02,5.38L0,3.69
		c0-1.11,0.06-2.2,0.17-3.27V0.38z"/>
	<path d="M7.62,0.82v2.91l0.02,1.06c0.82-0.03,1.84-0.07,3.06-0.13c0.08,0.1,0.11,0.29,0.11,0.57l-0.02,0.44
		c-0.03,0.28-0.03,0.48-0.02,0.61c-1.38,0-2.41-0.01-3.1-0.02v2.91V9.8c0,0.57,0.01,0.98,0.04,1.22c0.03,0.24,0.08,0.45,0.15,0.63
		c0.2,0.25,0.61,0.41,1.22,0.47s1.17,0.08,1.68,0.06c0.06,0.51,0.1,0.83,0.1,0.97c0,0.23-0.03,0.46-0.1,0.68
		c-0.27,0.01-0.68,0.02-1.25,0.02c-0.99,0-1.76-0.12-2.32-0.36c-0.56-0.24-0.91-0.72-1.06-1.44C6,10.82,5.93,9.21,5.93,7.24V6.33
		C5.85,6.34,5.66,6.35,5.36,6.35L3.91,6.33l0.06-1.56c0.28,0.03,0.94,0.04,2,0.04L5.95,2.81V1.92c0-0.53,0.01-0.91,0.04-1.12
		C6.16,0.79,6.43,0.79,6.8,0.82l0.51,0.02C7.45,0.84,7.56,0.83,7.62,0.82z"/>
	<path d="M13.19,5.07h-0.21c-0.08,0-0.2,0.01-0.38,0.03s-0.39,0.03-0.63,0.03c-0.18,0-0.28-0.01-0.3-0.04
		c0.34-1.37,0.77-2.93,1.27-4.67c0.01-0.05,0.03-0.08,0.06-0.08c0.03-0.01,0.12,0,0.29,0.02c0.16,0.02,0.41,0.03,0.72,0.03
		c0.24,0,0.39,0.01,0.44,0.04l-0.38,1.46c-0.32,1.29-0.58,2.27-0.8,2.95L13.19,5.07z"/>
	<path d="M22.78,6.8c0,0.06-0.22,0.1-0.67,0.1c-0.33,0-0.57-0.01-0.72-0.02c-0.1,0-0.2,0-0.3-0.01c-0.1-0.01-0.18,0-0.25,0.01
		c0-0.01,0-0.23,0-0.66s-0.37-0.68-1.1-0.77C19.58,5.43,19.33,5.42,19,5.42c-0.35,0-0.67,0.03-0.96,0.08s-0.5,0.12-0.64,0.21
		c-0.17,0.13-0.29,0.31-0.38,0.55c-0.09,0.24-0.13,0.47-0.13,0.7c0,0.18,0.03,0.3,0.08,0.36c0.14,0.29,0.32,0.49,0.55,0.61
		c0.13,0.09,0.44,0.2,0.93,0.32s0.92,0.2,1.27,0.21c0.52,0.01,0.98,0.09,1.38,0.24c0.4,0.15,0.71,0.35,0.94,0.6
		c0.23,0.28,0.4,0.55,0.5,0.83c0.11,0.27,0.16,0.57,0.16,0.88c0,0.39-0.09,0.87-0.29,1.42c-0.28,0.6-0.72,1.03-1.33,1.31
		c-0.61,0.28-1.3,0.41-2.07,0.4c-0.85,0.03-1.6-0.08-2.24-0.33c-0.65-0.25-1.15-0.62-1.5-1.11c-0.35-0.49-0.53-1.08-0.53-1.75v-0.1
		c0.23-0.02,0.56-0.04,1.01-0.04c0.49,0,0.76,0.02,0.8,0.06c0.02,0.03,0.08,0.17,0.16,0.43c0.08,0.26,0.23,0.52,0.45,0.79
		s0.58,0.42,1.1,0.46c0.41,0.03,0.65,0.04,0.72,0.04c0.2,0,0.37-0.02,0.5-0.06c0.13-0.04,0.31-0.11,0.52-0.21
		c0.65-0.29,0.96-0.72,0.95-1.27c0.01-0.37-0.08-0.65-0.29-0.86c-0.21-0.2-0.47-0.34-0.79-0.41c-0.32-0.07-0.75-0.14-1.29-0.2
		c-0.39-0.04-0.71-0.08-0.95-0.11c-0.24-0.04-0.46-0.1-0.65-0.19c-0.66-0.22-1.16-0.55-1.51-1.02c-0.35-0.46-0.52-0.97-0.52-1.51
		c0-0.6,0.17-1.14,0.52-1.62c0.35-0.49,0.83-0.81,1.43-0.96c0.52-0.14,1.18-0.21,2-0.21c0.19,0,0.48,0.01,0.86,0.04
		c0.54,0.04,1.05,0.13,1.52,0.29c0.44,0.19,0.8,0.52,1.08,0.98C22.64,5.72,22.78,6.23,22.78,6.8z"/>
	<path d="M28.08,4.24c0.09-0.01,0.27-0.01,0.53,0c0.38,0.03,0.8,0.04,1.25,0.04v0.06c0,0.57-0.01,1.45-0.04,2.64
		c-0.04,1.22-0.06,2.45-0.06,3.69c0,1.17,0.02,2.2,0.08,3.12c-0.18,0.04-0.44,0.06-0.8,0.06s-0.57,0-0.65,0
		c-0.23,0-0.37,0.01-0.42,0.02C28,13.48,28,12.93,28,12.18v-1.71v-1.6c-0.03-0.89-0.04-1.57-0.04-2.05c0-0.87,0.04-1.73,0.11-2.57
		V4.24z M28,0.15c0.79,0.03,1.38,0.04,1.79,0.04l0.06,2.51c-0.13,0.06-0.35,0.09-0.68,0.09c-0.2,0-0.35-0.01-0.46-0.02
		c-0.08,0-0.17,0-0.27-0.01c-0.1-0.01-0.22,0-0.36,0.01c0-0.19-0.01-0.5-0.04-0.93C28,1.01,27.99,0.44,28,0.15z"/>
	<path d="M33.23,4.41c0.03,0.14,0.04,0.32,0.04,0.53v0.47c0.47-0.47,1.03-0.75,1.67-0.86c0.44-0.09,0.82-0.13,1.12-0.13
		c0.54,0,0.99,0.11,1.35,0.32c0.28,0.13,0.46,0.3,0.55,0.53c0.09-0.05,0.22-0.14,0.39-0.28c0.17-0.13,0.41-0.26,0.7-0.38
		c0.3-0.12,0.71-0.19,1.25-0.2c0.63-0.03,1.13,0,1.49,0.09s0.69,0.25,0.98,0.5c0.16,0.14,0.28,0.47,0.34,0.99s0.1,1.2,0.1,2.05
		c0,0.48-0.01,1.24-0.04,2.28c-0.03,1.01-0.04,1.74-0.04,2.17c0,0.35,0.01,0.79,0.04,1.29c-0.46,0.08-1,0.1-1.62,0.08
		c-0.03-0.34-0.04-0.97-0.04-1.88c0.03-0.99,0.04-1.75,0.04-2.28v-0.8c-0.01-0.1-0.03-0.29-0.04-0.55
		c-0.01-0.27-0.04-0.56-0.08-0.87s-0.11-0.56-0.23-0.72c-0.08-0.25-0.32-0.4-0.74-0.44c-0.13-0.03-0.31-0.04-0.55-0.04
		c-0.37,0-0.68,0.06-0.95,0.18c-0.27,0.12-0.46,0.31-0.57,0.56c-0.03,0.28-0.04,0.5-0.04,0.67l0.02,0.53v0.7
		c0,0.43-0.01,1.09-0.04,1.98l-0.02,1.9c0,0.47,0.01,0.8,0.02,1.01c-0.27,0.04-0.63,0.06-1.08,0.06h-0.59
		c-0.03-0.25-0.04-0.7-0.04-1.35v-1.01l0.02-1.41c0-0.87-0.03-1.65-0.08-2.32c0-0.53-0.09-0.9-0.27-1.09
		C36.13,6.5,35.8,6.4,35.32,6.4c-1.34,0-2.06,0.75-2.17,2.26c-0.01,0.19-0.02,0.47-0.02,0.84c0,0.41,0.01,0.98,0.04,1.71l0.02,0.93
		c0,0.52-0.02,1.06-0.06,1.62v0.08c-0.19,0.04-0.37,0.06-0.53,0.06l-0.63-0.02c-0.19,0-0.34,0.01-0.46,0.02l-0.02-3.27
		c-0.03-1.49-0.04-2.62-0.04-3.36c0-0.61,0.01-1.57,0.04-2.89c0.33,0.03,0.53,0.04,0.59,0.04l0.42-0.02c0.06,0,0.15-0.01,0.25-0.02
		c0.1-0.01,0.2-0.02,0.3-0.02C33.17,4.35,33.23,4.37,33.23,4.41z"/>
	<path d="M46.21,17.46v0.21c0,0.03-0.08,0.05-0.25,0.07c-0.16,0.02-0.35,0.03-0.55,0.03c-0.29,0-0.56-0.02-0.82-0.06v-1.25
		c0-1.19-0.03-2.94-0.08-5.24c-0.01-0.56-0.03-1.24-0.04-2.04c-0.01-0.8-0.02-1.71-0.02-2.73c0-0.94,0.01-1.63,0.02-2.09l1.23-0.02
		c0.25,0,0.44,0.01,0.55,0.02c0.01,0.01,0.02,0.07,0.03,0.16c0.01,0.09,0.01,0.19,0.01,0.29c0,0.05,0,0.11,0.01,0.17
		c0.01,0.06,0,0.15-0.01,0.27c0.01,0.06,0.04,0.09,0.07,0.08c0.03-0.01,0.07-0.05,0.12-0.14c0.23-0.29,0.54-0.5,0.93-0.63
		c0.39-0.13,0.79-0.19,1.2-0.19c0.2,0,0.34,0.01,0.42,0.02c0.87,0.06,1.54,0.34,2,0.82c0.46,0.48,0.77,1.09,0.92,1.82
		c0.15,0.73,0.24,1.64,0.27,2.72c0,0.96-0.12,1.8-0.37,2.51c-0.25,0.71-0.64,1.16-1.17,1.35c-0.32,0.13-0.7,0.21-1.14,0.25
		c-0.14,0.01-0.36,0.02-0.66,0.02c-0.63,0-1.22-0.05-1.77-0.15c-0.54-0.1-0.83-0.23-0.85-0.38l0.04,2.32c0,0.28-0.01,0.62-0.04,1.03
		L46.21,17.46z M47.94,12.41c0.59,0,1.05-0.03,1.36-0.09c0.31-0.06,0.58-0.19,0.8-0.4s0.4-0.55,0.54-1.02
		c0.1-0.49,0.15-0.96,0.15-1.39c0-1.01-0.18-1.89-0.54-2.62c-0.36-0.74-1.05-1.06-2.08-0.99c-0.61,0.05-1.05,0.22-1.34,0.5
		c-0.29,0.29-0.47,0.66-0.54,1.13s-0.11,1.13-0.11,1.98c0,0.9,0.04,1.54,0.11,1.93c0.08,0.39,0.23,0.64,0.47,0.77
		C46.98,12.34,47.38,12.41,47.94,12.41z"/>
	<path d="M53.08,7.66c0-0.47,0.02-0.87,0.07-1.22c0.04-0.34,0.16-0.77,0.33-1.27C53.65,4.8,54,4.53,54.54,4.34
		c0.54-0.18,1.14-0.28,1.79-0.28c0.09,0.01,0.22,0.02,0.38,0.02l0.76-0.02c1.06,0,1.88,0.28,2.45,0.84c0.23,0.15,0.4,0.44,0.52,0.85
		c0.12,0.42,0.19,0.98,0.22,1.68s0.04,1.11,0.04,1.23c-0.05,1.27-0.11,2.27-0.18,3.02c-0.07,0.75-0.21,1.23-0.43,1.44
		c-0.24,0.34-0.57,0.58-1,0.7c-0.42,0.13-0.93,0.19-1.51,0.19c-0.23,0-0.57-0.01-1.03-0.04l-0.87-0.02
		c-0.75-0.13-1.31-0.4-1.68-0.82c-0.37-0.42-0.61-0.91-0.72-1.46c-0.11-0.56-0.16-1.23-0.16-2.01V8.68
		C53.12,8.21,53.11,7.87,53.08,7.66z M56.96,5.85c-0.86,0-1.48,0.22-1.86,0.67c-0.17,0.2-0.27,0.46-0.31,0.77
		C54.74,7.6,54.72,8,54.74,8.49c-0.01,0.19-0.01,0.44,0.01,0.76c0.02,0.32,0.03,0.56,0.03,0.74l0.04,0.8
		c0.04,0.51,0.18,0.86,0.43,1.07c0.25,0.21,0.56,0.35,0.94,0.43c0.25,0.04,0.51,0.06,0.78,0.06c0.49,0,0.92-0.09,1.29-0.27
		c0.37-0.18,0.6-0.47,0.7-0.87c0.05-0.33,0.08-0.59,0.08-0.78c0.06-0.89,0.09-1.49,0.09-1.8c0-0.84-0.15-1.51-0.46-2.01
		C58.37,6.11,57.8,5.85,56.96,5.85z"/>
	<path d="M63.55,4.39c0,0.15,0,0.27,0.01,0.35c0.01,0.08,0.01,0.18,0.01,0.29c0.09-0.05,0.21-0.11,0.37-0.17s0.33-0.13,0.52-0.19
		c0.29-0.1,0.64-0.17,1.05-0.22c0.41-0.04,0.78-0.07,1.11-0.07c0.3,0,0.46,0.01,0.46,0.04L67.07,6c0,0.25,0.01,0.44,0.02,0.57
		c-0.19-0.08-0.41-0.15-0.65-0.21c-0.28-0.06-0.58-0.09-0.91-0.09c-0.34,0-0.73,0.05-1.16,0.15c-0.36,0.09-0.6,0.22-0.72,0.4
		C63.52,7,63.46,7.33,63.48,7.83c0.05,1.74,0.08,3.71,0.08,5.91v0.08c-0.22,0.05-0.44,0.08-0.67,0.08c-0.09,0-0.23,0-0.43-0.01
		c-0.2-0.01-0.4,0-0.6,0.01l-0.02-3.27c-0.03-1.49-0.04-2.62-0.04-3.36c0-0.61,0.01-1.57,0.04-2.89c0.13,0.01,0.26,0.02,0.41,0.01
		c0.15-0.01,0.28-0.01,0.39-0.01c0.15-0.01,0.35-0.02,0.61-0.02C63.45,4.35,63.55,4.36,63.55,4.39z"/>
	<path d="M71.51,0.82v2.91l0.02,1.06c0.82-0.03,1.84-0.07,3.06-0.13c0.08,0.1,0.11,0.29,0.11,0.57l-0.02,0.44
		c-0.03,0.28-0.03,0.48-0.02,0.61c-1.38,0-2.41-0.01-3.1-0.02v2.91V9.8c0,0.57,0.01,0.98,0.04,1.22c0.03,0.24,0.08,0.45,0.15,0.63
		c0.2,0.25,0.61,0.41,1.23,0.47s1.17,0.08,1.68,0.06c0.06,0.51,0.09,0.83,0.09,0.97c0,0.23-0.03,0.46-0.09,0.68
		c-0.27,0.01-0.68,0.02-1.25,0.02c-0.99,0-1.76-0.12-2.32-0.36s-0.91-0.72-1.06-1.44c-0.14-1.23-0.21-2.83-0.21-4.81V6.33
		c-0.08,0.01-0.27,0.02-0.57,0.02l-1.44-0.02l0.06-1.56c0.28,0.03,0.94,0.04,1.99,0.04l-0.02-1.99V1.92c0-0.53,0.01-0.91,0.04-1.12
		c0.18-0.01,0.45-0.01,0.82,0.02l0.51,0.02C71.35,0.84,71.45,0.83,71.51,0.82z"/>
	<path d="M81.58,4.29c0.29-0.01,0.67,0,1.12,0.04l0.49,0.04c0.03,0.2,0.04,0.35,0.04,0.46v0.19c-0.01,0.29-0.02,0.73-0.02,1.31
		c0,0.48,0.01,1.19,0.04,2.13l0.02,2.13c0,0.91-0.03,1.74-0.08,2.49c0,0.04,0,0.12,0,0.25c0,0.13-0.01,0.24-0.04,0.34
		s-0.09,0.17-0.21,0.19h-0.32l-0.61-0.02c-0.1,0-0.19,0.01-0.27,0.02s-0.15,0.02-0.21,0.02c-0.13-0.04-0.19-0.18-0.19-0.42
		c-0.01-0.1-0.01-0.22,0.01-0.34c0.02-0.13,0.03-0.23,0.03-0.32c-0.3,0.42-0.79,0.7-1.44,0.85c-0.66,0.15-1.3,0.23-1.94,0.23
		c-0.61,0-1.12-0.27-1.55-0.81c-0.42-0.54-0.74-1.2-0.94-1.99c-0.2-0.79-0.3-1.55-0.3-2.3c0-0.82,0.14-1.56,0.42-2.22
		c0.28-0.66,0.66-1.18,1.15-1.57c0.49-0.39,1.03-0.59,1.62-0.6l0.61-0.02c0.57,0,1.04,0.07,1.42,0.2s0.65,0.38,0.83,0.73
		c0-0.11,0.01-0.26,0.04-0.44c0.03-0.25,0.04-0.43,0.04-0.53C81.34,4.31,81.42,4.29,81.58,4.29z M79.46,6
		c-0.66-0.01-1.21,0.16-1.66,0.5c-0.45,0.35-0.73,0.76-0.83,1.24c-0.1,0.37-0.15,0.86-0.15,1.48c0.06,2.04,0.89,3.01,2.47,2.93
		c0.65,0,1.11-0.11,1.41-0.34c0.29-0.23,0.47-0.55,0.54-0.97s0.1-1.04,0.1-1.88c0-0.91-0.04-1.55-0.11-1.93
		c-0.08-0.37-0.24-0.63-0.49-0.77C80.49,6.13,80.06,6.04,79.46,6z"/>
	<path d="M86.39,4.39c0.03,0.14,0.04,0.32,0.04,0.53V5.4c0.43-0.25,0.94-0.48,1.52-0.67c0.58-0.2,1.17-0.29,1.75-0.29
		c0.7,0.03,1.27,0.22,1.71,0.59c0.3,0.27,0.46,1.35,0.46,3.25c0,0.48-0.01,1.23-0.04,2.24c-0.03,0.96-0.04,1.66-0.04,2.09
		c0,0.56,0.01,0.96,0.02,1.2c-0.24,0.04-0.59,0.06-1.04,0.06h-0.63c-0.03-0.2-0.04-0.56-0.04-1.06v-0.82l0.02-1.22
		c0.03-0.82,0.03-1.41,0.02-1.77c0-0.08-0.02-0.34-0.05-0.78c-0.03-0.44-0.1-0.84-0.22-1.18c-0.04-0.44-0.35-0.65-0.93-0.61
		c-0.87,0.01-1.52,0.13-1.93,0.36c-0.41,0.23-0.64,0.64-0.69,1.23C86.3,8.18,86.3,8.49,86.3,8.95c0,0.71,0.01,1.47,0.04,2.28
		c0.03,0.48,0.04,0.84,0.04,1.06c0,0.47-0.02,0.95-0.06,1.44v0.08c-0.24,0.05-0.48,0.07-0.71,0.07c-0.23-0.01-0.4-0.01-0.5-0.01
		c-0.2,0-0.36,0.01-0.47,0.02l-0.02-3.27c-0.03-1.49-0.04-2.62-0.04-3.36c0-0.61,0.01-1.57,0.04-2.89c0.15,0.01,0.33,0.02,0.53,0.02
		c0.2,0,0.37-0.01,0.49-0.02c0.08,0,0.17-0.01,0.27-0.02c0.1-0.01,0.2-0.02,0.3-0.02C86.33,4.33,86.39,4.35,86.39,4.39z"/>
	<path d="M96.38,0.82v2.91l0.02,1.06c0.82-0.03,1.84-0.07,3.06-0.13c0.08,0.1,0.11,0.29,0.11,0.57l-0.02,0.44
		c-0.03,0.28-0.03,0.48-0.02,0.61c-1.38,0-2.41-0.01-3.1-0.02v2.91V9.8c0,0.57,0.01,0.98,0.04,1.22c0.03,0.24,0.08,0.45,0.15,0.63
		c0.2,0.25,0.61,0.41,1.23,0.47s1.17,0.08,1.68,0.06c0.06,0.51,0.09,0.83,0.09,0.97c0,0.23-0.03,0.46-0.09,0.68
		c-0.27,0.01-0.68,0.02-1.25,0.02c-0.99,0-1.76-0.12-2.32-0.36s-0.91-0.72-1.06-1.44c-0.14-1.23-0.21-2.83-0.21-4.81V6.33
		c-0.08,0.01-0.27,0.02-0.57,0.02l-1.44-0.02l0.06-1.56c0.28,0.03,0.94,0.04,1.99,0.04l-0.02-1.99V1.92c0-0.53,0.01-0.91,0.04-1.12
		c0.18-0.01,0.45-0.01,0.82,0.02l0.51,0.02C96.22,0.84,96.32,0.83,96.38,0.82z"/>
	<path d="M107.27,0.82v2.91l0.02,1.06c0.82-0.03,1.84-0.07,3.06-0.13c0.08,0.1,0.11,0.29,0.11,0.57l-0.02,0.44
		c-0.03,0.28-0.03,0.48-0.02,0.61c-1.38,0-2.41-0.01-3.1-0.02v2.91V9.8c0,0.57,0.01,0.98,0.04,1.22c0.03,0.24,0.08,0.45,0.15,0.63
		c0.2,0.25,0.61,0.41,1.23,0.47s1.17,0.08,1.68,0.06c0.06,0.51,0.09,0.83,0.09,0.97c0,0.23-0.03,0.46-0.09,0.68
		c-0.27,0.01-0.68,0.02-1.25,0.02c-0.99,0-1.76-0.12-2.32-0.36s-0.91-0.72-1.06-1.44c-0.14-1.23-0.21-2.83-0.21-4.81V6.33
		c-0.08,0.01-0.27,0.02-0.57,0.02l-1.44-0.02l0.06-1.56c0.28,0.03,0.94,0.04,1.99,0.04l-0.02-1.99V1.92c0-0.53,0.01-0.91,0.04-1.12
		c0.18-0.01,0.45-0.01,0.82,0.02l0.51,0.02C107.11,0.84,107.21,0.83,107.27,0.82z"/>
	<path d="M111.15,7.66c0-0.47,0.02-0.87,0.07-1.22c0.04-0.34,0.16-0.77,0.33-1.27c0.16-0.37,0.52-0.64,1.05-0.83
		c0.54-0.18,1.14-0.28,1.79-0.28c0.09,0.01,0.22,0.02,0.38,0.02l0.76-0.02c1.06,0,1.88,0.28,2.45,0.84c0.23,0.15,0.4,0.44,0.52,0.85
		c0.12,0.42,0.19,0.98,0.22,1.68s0.04,1.11,0.04,1.23c-0.05,1.27-0.11,2.27-0.18,3.02c-0.07,0.75-0.21,1.23-0.43,1.44
		c-0.24,0.34-0.57,0.58-1,0.7c-0.42,0.13-0.93,0.19-1.51,0.19c-0.23,0-0.57-0.01-1.03-0.04l-0.87-0.02
		c-0.75-0.13-1.31-0.4-1.68-0.82c-0.37-0.42-0.61-0.91-0.72-1.46c-0.11-0.56-0.16-1.23-0.16-2.01V8.68
		C111.19,8.21,111.17,7.87,111.15,7.66z M115.02,5.85c-0.86,0-1.48,0.22-1.86,0.67c-0.17,0.2-0.27,0.46-0.31,0.77
		C112.8,7.6,112.79,8,112.8,8.49c-0.01,0.19-0.01,0.44,0.01,0.76c0.02,0.32,0.03,0.56,0.03,0.74l0.04,0.8
		c0.04,0.51,0.18,0.86,0.43,1.07c0.25,0.21,0.56,0.35,0.94,0.43c0.25,0.04,0.51,0.06,0.78,0.06c0.49,0,0.92-0.09,1.29-0.27
		c0.37-0.18,0.6-0.47,0.7-0.87c0.05-0.33,0.08-0.59,0.08-0.78c0.06-0.89,0.09-1.49,0.09-1.8c0-0.84-0.15-1.51-0.46-2.01
		C116.43,6.11,115.86,5.85,115.02,5.85z"/>
	<path d="M129.39,0.72V0.51c0.03-0.06,0.33-0.09,0.91-0.09c0.33,0,0.58,0.01,0.74,0.04v1.25c0,1.2,0.03,2.96,0.08,5.26
		c0.01,0.57,0.03,1.25,0.04,2.04s0.02,1.69,0.02,2.71c0,0.94-0.01,1.63-0.02,2.09c-0.41,0.02-0.74,0.04-1.01,0.04
		c-0.34,0-0.6-0.01-0.76-0.04c-0.01-0.03-0.02-0.16-0.02-0.4c0-0.33-0.03-0.58-0.09-0.76c-0.09,0.2-0.24,0.41-0.45,0.61
		c-0.21,0.2-0.42,0.32-0.64,0.36c-0.34,0.11-0.72,0.17-1.14,0.17c-0.2,0-0.35-0.01-0.46-0.02c-0.9-0.06-1.58-0.35-2.03-0.85
		s-0.76-1.11-0.9-1.84s-0.23-1.62-0.26-2.67c0-1.06,0.14-1.94,0.43-2.63c0.28-0.69,0.78-1.13,1.49-1.32c0.47-0.13,1-0.19,1.6-0.19
		c0.48,0,0.86,0.03,1.12,0.09c0.25,0.04,0.48,0.12,0.68,0.26c0.2,0.13,0.36,0.27,0.47,0.42s0.18,0.25,0.19,0.31l-0.02-1.62
		c0-0.33,0-0.62-0.01-0.88c-0.01-0.26,0-0.47,0.01-0.62c0.01-0.06,0.02-0.14,0.01-0.24c-0.01-0.1-0.01-0.18-0.01-0.26v-0.4
		C129.37,1.06,129.37,0.85,129.39,0.72z M127.54,5.7l-0.36-0.02c-0.68,0-1.21,0.17-1.58,0.5c-0.37,0.34-0.58,0.86-0.63,1.57
		c-0.04,0.28-0.06,0.7-0.06,1.25c0.03,0.84,0.13,1.49,0.31,1.95c0.18,0.46,0.44,0.79,0.76,0.97c0.32,0.18,0.75,0.28,1.28,0.28
		c0.61,0,1.06-0.14,1.37-0.43c0.3-0.29,0.5-0.66,0.59-1.13c0.09-0.47,0.13-1.08,0.13-1.84c-0.01-0.72-0.05-1.29-0.12-1.69
		c-0.07-0.41-0.24-0.74-0.49-0.99C128.49,5.87,128.09,5.73,127.54,5.7z"/>
	<path d="M134.21,4.39c0,0.15,0,0.27,0.01,0.35c0.01,0.08,0.01,0.18,0.01,0.29c0.09-0.05,0.21-0.11,0.37-0.17s0.33-0.13,0.52-0.19
		c0.29-0.1,0.64-0.17,1.05-0.22c0.41-0.04,0.78-0.07,1.11-0.07c0.3,0,0.46,0.01,0.46,0.04L137.73,6c0,0.25,0.01,0.44,0.02,0.57
		c-0.19-0.08-0.41-0.15-0.65-0.21c-0.28-0.06-0.58-0.09-0.91-0.09c-0.34,0-0.73,0.05-1.16,0.15c-0.36,0.09-0.6,0.22-0.72,0.4
		c-0.13,0.18-0.18,0.51-0.17,1.01c0.05,1.74,0.08,3.71,0.08,5.91v0.08c-0.22,0.05-0.44,0.08-0.67,0.08c-0.09,0-0.23,0-0.43-0.01
		c-0.2-0.01-0.4,0-0.6,0.01l-0.02-3.27c-0.03-1.49-0.04-2.62-0.04-3.36c0-0.61,0.01-1.57,0.04-2.89c0.13,0.01,0.26,0.02,0.41,0.01
		c0.15-0.01,0.28-0.01,0.39-0.01c0.15-0.01,0.35-0.02,0.61-0.02C134.11,4.35,134.21,4.36,134.21,4.39z"/>
	<path d="M139.44,4.24c0.09-0.01,0.27-0.01,0.53,0c0.38,0.03,0.8,0.04,1.25,0.04v0.06c0,0.57-0.01,1.45-0.04,2.64
		c-0.04,1.22-0.06,2.45-0.06,3.69c0,1.17,0.03,2.2,0.08,3.12c-0.18,0.04-0.44,0.06-0.8,0.06c-0.36,0-0.57,0-0.65,0
		c-0.23,0-0.37,0.01-0.42,0.02c0.01-0.37,0.02-0.92,0.02-1.67v-1.71v-1.6c-0.03-0.89-0.04-1.57-0.04-2.05
		c0-0.87,0.04-1.73,0.11-2.57V4.24z M139.36,0.15c0.79,0.03,1.38,0.04,1.79,0.04l0.06,2.51c-0.13,0.06-0.35,0.09-0.68,0.09
		c-0.2,0-0.35-0.01-0.46-0.02c-0.08,0-0.17,0-0.27-0.01s-0.22,0-0.36,0.01c0-0.19-0.01-0.5-0.04-0.93
		C139.36,1.01,139.35,0.44,139.36,0.15z"/>
	<path d="M144.66,4.39c0.03,0.14,0.04,0.32,0.04,0.53V5.4c0.43-0.25,0.94-0.48,1.52-0.67c0.58-0.2,1.17-0.29,1.75-0.29
		c0.7,0.03,1.27,0.22,1.71,0.59c0.3,0.27,0.46,1.35,0.46,3.25c0,0.48-0.01,1.23-0.04,2.24c-0.03,0.96-0.04,1.66-0.04,2.09
		c0,0.56,0.01,0.96,0.02,1.2c-0.24,0.04-0.59,0.06-1.04,0.06h-0.63c-0.03-0.2-0.04-0.56-0.04-1.06v-0.82l0.02-1.22
		c0.03-0.82,0.03-1.41,0.02-1.77c0-0.08-0.02-0.34-0.05-0.78c-0.03-0.44-0.1-0.84-0.22-1.18c-0.04-0.44-0.35-0.65-0.93-0.61
		c-0.87,0.01-1.52,0.13-1.93,0.36c-0.41,0.23-0.64,0.64-0.69,1.23c-0.01,0.17-0.02,0.48-0.02,0.93c0,0.71,0.01,1.47,0.04,2.28
		c0.03,0.48,0.04,0.84,0.04,1.06c0,0.47-0.02,0.95-0.06,1.44v0.08c-0.24,0.05-0.48,0.07-0.71,0.07c-0.23-0.01-0.4-0.01-0.5-0.01
		c-0.2,0-0.36,0.01-0.47,0.02l-0.02-3.27c-0.03-1.49-0.04-2.62-0.04-3.36c0-0.61,0.01-1.57,0.04-2.89c0.15,0.01,0.33,0.02,0.53,0.02
		c0.2,0,0.37-0.01,0.49-0.02c0.08,0,0.17-0.01,0.27-0.02c0.1-0.01,0.2-0.02,0.3-0.02C144.6,4.33,144.66,4.35,144.66,4.39z"/>
	<path d="M153.12,3.5c0,0.67-0.01,1.24-0.02,1.69l-0.02,1.37c0,0.25,0.01,0.51,0.04,0.76c0.65-0.48,1.17-0.9,1.56-1.25
		c0.39-0.35,0.86-0.78,1.41-1.28c0.35-0.35,0.63-0.61,0.82-0.78c0.21,0.05,0.5,0.08,0.85,0.08c0.27,0,0.46-0.01,0.59-0.02
		c0.09,0,0.19,0,0.29-0.01c0.11-0.01,0.22,0,0.33,0.01c-0.75,0.65-1.49,1.34-2.22,2.07c-0.77,0.77-1.57,1.51-2.39,2.2
		c0.94,0.98,1.67,1.76,2.18,2.35s1.1,1.28,1.73,2.08l0.87,1.06c-0.1,0-0.32,0.01-0.65,0.04c-0.35,0.03-0.64,0.04-0.85,0.04
		c-0.15,0-0.34-0.01-0.57-0.04c-0.2-0.23-0.47-0.56-0.8-0.99c-0.42-0.53-0.84-1.04-1.27-1.52s-1.06-1.09-1.88-1.82
		c0,0.35,0.01,0.66,0.02,0.91l0.02,1.44l-0.02,1.92c-0.13-0.01-0.35-0.01-0.67,0.02l-0.63,0.02c-0.19,0-0.32-0.01-0.4-0.02
		c-0.05-1.33-0.08-2.81-0.08-4.43c0-0.96,0.01-2.41,0.04-4.33c0.03-1.95,0.04-3.41,0.04-4.37V0.04c0.25,0,0.45-0.01,0.59-0.02
		L152.72,0c0.19,0,0.32,0.01,0.4,0.02V3.5z"/>
	<path d="M165.18,17.46v0.21c0,0.03-0.08,0.05-0.25,0.07c-0.17,0.02-0.35,0.03-0.55,0.03c-0.29,0-0.56-0.02-0.82-0.06v-1.25
		c0-1.19-0.03-2.94-0.08-5.24c-0.01-0.56-0.03-1.24-0.04-2.04c-0.01-0.8-0.02-1.71-0.02-2.73c0-0.94,0.01-1.63,0.02-2.09l1.24-0.02
		c0.25,0,0.44,0.01,0.55,0.02c0.01,0.01,0.02,0.07,0.03,0.16c0.01,0.09,0.01,0.19,0.01,0.29c0,0.05,0,0.11,0.01,0.17
		c0.01,0.06,0,0.15-0.01,0.27c0.01,0.06,0.04,0.09,0.07,0.08c0.03-0.01,0.07-0.05,0.12-0.14c0.23-0.29,0.54-0.5,0.93-0.63
		c0.39-0.13,0.79-0.19,1.2-0.19c0.2,0,0.34,0.01,0.42,0.02c0.87,0.06,1.54,0.34,2,0.82c0.46,0.48,0.77,1.09,0.92,1.82
		s0.24,1.64,0.27,2.72c0,0.96-0.12,1.8-0.37,2.51c-0.25,0.71-0.64,1.16-1.17,1.35c-0.32,0.13-0.7,0.21-1.14,0.25
		c-0.14,0.01-0.36,0.02-0.67,0.02c-0.63,0-1.22-0.05-1.77-0.15c-0.54-0.1-0.83-0.23-0.86-0.38l0.04,2.32c0,0.28-0.01,0.62-0.04,1.03
		L165.18,17.46z M166.91,12.41c0.6,0,1.05-0.03,1.36-0.09c0.31-0.06,0.58-0.19,0.8-0.4s0.4-0.55,0.54-1.02
		c0.1-0.49,0.15-0.96,0.15-1.39c0-1.01-0.18-1.89-0.54-2.62c-0.36-0.74-1.05-1.06-2.08-0.99c-0.61,0.05-1.05,0.22-1.34,0.5
		c-0.29,0.29-0.47,0.66-0.54,1.13c-0.08,0.47-0.11,1.13-0.11,1.98c0,0.9,0.04,1.54,0.11,1.93c0.08,0.39,0.23,0.64,0.46,0.77
		C165.96,12.34,166.35,12.41,166.91,12.41z"/>
	<path d="M172.76,0.02l1.73,0.06c0,0.52-0.01,1.8-0.04,3.86c-0.03,2.53-0.04,4.52-0.04,5.97c0,1.6,0.02,2.87,0.06,3.82
		c-0.08,0.09-0.29,0.13-0.63,0.13l-0.59-0.02c-0.11-0.01-0.25-0.02-0.42-0.02c-0.1,0-0.16,0.01-0.19,0.02
		c0.08-1.03,0.11-2.06,0.11-3.1c0-0.79-0.03-1.96-0.08-3.53c-0.05-1.57-0.08-2.75-0.08-3.55C172.61,2.31,172.66,1.1,172.76,0.02z"/>
	<path d="M177.61,9.03v0.34l-0.02,0.55c0,1.57,0.77,2.36,2.32,2.36c0.62,0,1.08-0.14,1.38-0.43c0.3-0.29,0.45-0.67,0.45-1.17
		c0-0.08-0.01-0.21-0.04-0.42c0.27-0.04,0.51-0.06,0.74-0.06c0.2,0,0.35,0.01,0.46,0.02c0.08,0,0.17,0,0.28,0.01
		c0.11,0.01,0.23,0,0.37-0.01c0.01,0.72-0.01,1.3-0.08,1.73s-0.21,0.84-0.46,1.23c-0.23,0.34-0.62,0.59-1.19,0.73
		s-1.18,0.22-1.85,0.22c-0.3,0-0.59-0.01-0.84-0.04c-0.26-0.03-0.42-0.05-0.48-0.08c-0.99-0.17-1.7-0.79-2.15-1.87
		s-0.63-2.32-0.57-3.71c0.01-0.1,0.03-0.31,0.06-0.64c0.03-0.32,0.06-0.66,0.1-1c0.04-0.34,0.13-0.68,0.26-1.01
		c0.24-0.56,0.68-0.99,1.31-1.29c0.63-0.3,1.34-0.46,2.11-0.46c0.41,0,0.83,0.05,1.27,0.15c1.72,0.29,2.58,1.59,2.58,3.89
		c0,0.19-0.01,0.46-0.04,0.82c-0.24,0.08-0.95,0.14-2.13,0.19c-0.14,0.01-0.44,0.02-0.91,0.02c-1,0-1.74-0.01-2.22-0.04
		C177.99,9.08,177.76,9.06,177.61,9.03z M182.23,7.6c-0.01-0.39-0.11-0.78-0.29-1.16c-0.18-0.38-0.45-0.68-0.79-0.89
		c-0.19-0.09-0.36-0.15-0.49-0.17c-0.14-0.03-0.32-0.04-0.53-0.04c-0.82,0-1.41,0.17-1.76,0.51c-0.35,0.34-0.57,0.83-0.66,1.46
		c-0.03,0.15-0.04,0.25-0.04,0.3c0,0.15,0.07,0.25,0.22,0.3c0.15,0.05,0.46,0.08,0.94,0.08c0.47,0,0.87-0.01,1.2-0.02
		c1.22,0,1.9-0.01,2.05-0.02c0.06-0.01,0.1-0.03,0.12-0.05c0.02-0.02,0.03-0.05,0.03-0.1V7.6z"/>
	<path d="M186.44,4.39c0.03,0.14,0.04,0.32,0.04,0.53V5.4c0.43-0.25,0.94-0.48,1.52-0.67c0.58-0.2,1.17-0.29,1.75-0.29
		c0.7,0.03,1.27,0.22,1.71,0.59c0.3,0.27,0.46,1.35,0.46,3.25c0,0.48-0.01,1.23-0.04,2.24c-0.03,0.96-0.04,1.66-0.04,2.09
		c0,0.56,0.01,0.96,0.02,1.2c-0.24,0.04-0.59,0.06-1.04,0.06h-0.63c-0.03-0.2-0.04-0.56-0.04-1.06v-0.82l0.02-1.22
		c0.03-0.82,0.03-1.41,0.02-1.77c0-0.08-0.02-0.34-0.05-0.78c-0.03-0.44-0.1-0.84-0.22-1.18c-0.04-0.44-0.35-0.65-0.93-0.61
		c-0.87,0.01-1.52,0.13-1.93,0.36c-0.41,0.23-0.64,0.64-0.69,1.23c-0.01,0.17-0.02,0.48-0.02,0.93c0,0.71,0.01,1.47,0.04,2.28
		c0.03,0.48,0.04,0.84,0.04,1.06c0,0.47-0.02,0.95-0.06,1.44v0.08c-0.24,0.05-0.48,0.07-0.71,0.07c-0.23-0.01-0.4-0.01-0.5-0.01
		c-0.2,0-0.36,0.01-0.47,0.02l-0.02-3.27c-0.03-1.49-0.04-2.62-0.04-3.36c0-0.61,0.01-1.57,0.04-2.89c0.15,0.01,0.33,0.02,0.53,0.02
		c0.2,0,0.37-0.01,0.49-0.02c0.08,0,0.17-0.01,0.27-0.02c0.1-0.01,0.2-0.02,0.3-0.02C186.38,4.33,186.44,4.35,186.44,4.39z"/>
	<path d="M196.44,0.82v2.91l0.02,1.06c0.82-0.03,1.84-0.07,3.06-0.13c0.08,0.1,0.11,0.29,0.11,0.57l-0.02,0.44
		c-0.03,0.28-0.03,0.48-0.02,0.61c-1.38,0-2.41-0.01-3.1-0.02v2.91V9.8c0,0.57,0.01,0.98,0.04,1.22c0.03,0.24,0.08,0.45,0.15,0.63
		c0.2,0.25,0.61,0.41,1.23,0.47s1.17,0.08,1.68,0.06c0.06,0.51,0.09,0.83,0.09,0.97c0,0.23-0.03,0.46-0.09,0.68
		c-0.27,0.01-0.68,0.02-1.25,0.02c-0.99,0-1.76-0.12-2.32-0.36s-0.91-0.72-1.06-1.44c-0.14-1.23-0.21-2.83-0.21-4.81V6.33
		c-0.08,0.01-0.27,0.02-0.57,0.02l-1.44-0.02l0.06-1.56c0.28,0.03,0.94,0.04,1.99,0.04l-0.02-1.99V1.92c0-0.53,0.01-0.91,0.04-1.12
		c0.18-0.01,0.45-0.01,0.82,0.02l0.51,0.02C196.27,0.84,196.37,0.83,196.44,0.82z"/>
	<path d="M199.91,4.33c0.21,0.01,0.54,0.02,0.99,0.02c0.43,0,0.73,0.01,0.91,0.04l0.68,2.6c0.47,1.79,0.83,3.13,1.08,4.04
		c0.25,0.91,0.46,1.51,0.63,1.81c0.19-0.23,0.41-0.85,0.66-1.86c0.25-1.01,0.56-2.36,0.91-4.03c0.04-0.15,0.13-0.58,0.28-1.27
		c0.15-0.7,0.25-1.13,0.31-1.29l0.74-0.02c0.46-0.03,0.83-0.03,1.12-0.02c-0.13,0.46-0.35,1.38-0.68,2.77l-0.34,1.42
		c-0.05,0.17-0.16,0.69-0.34,1.58c-0.33,1.53-0.67,2.76-1.04,3.7c-0.36,0.93-0.97,1.73-1.83,2.39c-0.86,0.67-2.07,1-3.61,1
		c-0.28,0-0.49-0.01-0.65-0.02c-0.1-0.27-0.15-0.6-0.15-0.99c0-0.29,0.03-0.53,0.08-0.72c0.41,0.03,0.7,0.04,0.87,0.04
		c1.44,0,2.17-0.37,2.17-1.12c0-0.06-0.01-0.16-0.04-0.29l-1.35-4.77C200.88,7.83,200.41,6.16,199.91,4.33z"/>
	<path d="M7.94,30.46c0-0.47,0.02-0.87,0.07-1.22c0.04-0.34,0.16-0.77,0.33-1.27c0.16-0.37,0.52-0.64,1.05-0.83
		c0.54-0.18,1.14-0.28,1.79-0.28c0.09,0.01,0.22,0.02,0.38,0.02l0.76-0.02c1.06,0,1.88,0.28,2.45,0.84c0.23,0.15,0.4,0.44,0.52,0.85
		c0.12,0.42,0.19,0.98,0.22,1.68s0.04,1.11,0.04,1.23c-0.05,1.27-0.11,2.27-0.18,3.02c-0.07,0.75-0.21,1.23-0.43,1.44
		c-0.24,0.34-0.57,0.58-1,0.7c-0.42,0.13-0.93,0.19-1.51,0.19c-0.23,0-0.57-0.01-1.03-0.04l-0.87-0.02
		c-0.75-0.13-1.31-0.4-1.68-0.82c-0.37-0.42-0.61-0.91-0.72-1.46c-0.11-0.56-0.16-1.23-0.16-2.01v-0.99
		C7.98,31.01,7.97,30.67,7.94,30.46z M11.82,28.65c-0.86,0-1.48,0.22-1.86,0.67c-0.17,0.2-0.27,0.46-0.31,0.77
		C9.6,30.4,9.58,30.8,9.59,31.29c-0.01,0.19-0.01,0.44,0.01,0.76c0.02,0.32,0.03,0.56,0.03,0.74l0.04,0.8
		c0.04,0.51,0.18,0.86,0.43,1.07c0.25,0.21,0.56,0.35,0.94,0.43c0.25,0.04,0.51,0.06,0.78,0.06c0.49,0,0.92-0.09,1.29-0.27
		c0.37-0.18,0.6-0.47,0.7-0.87c0.05-0.33,0.08-0.59,0.08-0.78c0.06-0.89,0.09-1.49,0.09-1.8c0-0.84-0.15-1.51-0.46-2.01
		C13.22,28.91,12.65,28.65,11.82,28.65z"/>
	<path d="M19.66,29.54v7.03c-0.19-0.01-0.41-0.01-0.67,0.02l-0.46,0.02c-0.2,0-0.37-0.01-0.49-0.04c-0.05-0.3-0.08-1.41-0.08-3.31
		l0.02-2.3c0.01-0.38,0.02-0.85,0.02-1.42c-0.14,0.01-0.42,0.02-0.84,0.02c-0.11-0.01-0.28-0.02-0.49-0.02
		c-0.19,0-0.33,0.01-0.42,0.02l-0.06-1.63c0.94,0,1.53,0.01,1.77,0.02l-0.02-0.76c0-0.95,0.15-1.75,0.45-2.39
		c0.3-0.65,0.87-1.03,1.72-1.14c0.7-0.06,1.44-0.1,2.24-0.1h0.74c0.08,0.24,0.11,0.49,0.11,0.76c0,0.14-0.03,0.46-0.09,0.97
		c-0.22-0.01-0.92,0.01-2.13,0.06c-0.41,0.03-0.68,0.06-0.84,0.1c-0.15,0.04-0.27,0.16-0.34,0.35c-0.08,0.19-0.11,0.53-0.11,1.01
		c0,0.17,0.01,0.56,0.04,1.2c0.75-0.01,1.86-0.02,3.34-0.02c-0.01,0.05-0.03,0.26-0.06,0.63c0,0.38-0.01,0.72-0.04,1.01l-2.19-0.06
		L19.66,29.54z"/>
	<path d="M26.64,27.13c0.22,0.01,0.54,0.02,0.97,0.02c0.42,0,0.73,0.01,0.93,0.04l0.29,1.75c0.33,2.18,0.69,4.12,1.08,5.81
		c0.62-1.76,1.1-3.21,1.43-4.35c0.33-1.14,0.61-2.23,0.83-3.27c0.11,0.01,0.41,0.01,0.89-0.02c0.44-0.03,0.78-0.01,1.01,0.04
		l0.11,0.63c0.22,1.09,0.44,2.12,0.67,3.09s0.6,2.22,1.09,3.75c0.3-1.17,0.62-2.61,0.95-4.33c0.05-0.22,0.15-0.69,0.3-1.42
		c0.15-0.73,0.29-1.29,0.4-1.7c0.46-0.03,0.83-0.04,1.12-0.04c0.28,0,0.5,0.01,0.67,0.02c-0.3,1.04-0.56,1.98-0.77,2.82
		c-0.21,0.84-0.4,1.63-0.56,2.37c-0.05,0.2-0.17,0.71-0.35,1.53c-0.18,0.82-0.42,1.75-0.69,2.78c-0.29,0.06-0.56,0.08-0.8,0.06
		l-1.35-0.02c-0.57-2.24-1.19-4.45-1.86-6.61c-0.49,1.6-0.79,2.57-0.89,2.93c-0.44,1.56-0.82,2.78-1.12,3.67
		c-0.18,0.03-0.49,0.04-0.93,0.04l-1.44-0.02C28.03,33.41,27.37,30.22,26.64,27.13z"/>
	<path d="M45.83,27.09c0.29-0.01,0.67,0,1.12,0.04l0.49,0.04c0.03,0.2,0.04,0.35,0.04,0.46v0.19c-0.01,0.29-0.02,0.73-0.02,1.31
		c0,0.48,0.01,1.19,0.04,2.13l0.02,2.13c0,0.91-0.03,1.74-0.08,2.49c0,0.04,0,0.12,0,0.25c0,0.13-0.01,0.24-0.04,0.34
		s-0.09,0.17-0.21,0.19h-0.32l-0.61-0.02c-0.1,0-0.19,0.01-0.27,0.02s-0.15,0.02-0.21,0.02c-0.13-0.04-0.19-0.18-0.19-0.42
		c-0.01-0.1-0.01-0.22,0.01-0.34c0.02-0.13,0.03-0.23,0.03-0.32c-0.3,0.42-0.79,0.7-1.44,0.85c-0.66,0.15-1.3,0.23-1.94,0.23
		c-0.61,0-1.12-0.27-1.55-0.81c-0.42-0.54-0.74-1.2-0.94-1.99c-0.2-0.79-0.3-1.55-0.3-2.3c0-0.82,0.14-1.56,0.42-2.22
		c0.28-0.66,0.66-1.18,1.15-1.57c0.49-0.39,1.03-0.59,1.62-0.6l0.61-0.02c0.57,0,1.04,0.07,1.42,0.2s0.65,0.38,0.83,0.73
		c0-0.11,0.01-0.26,0.04-0.44c0.03-0.25,0.04-0.43,0.04-0.53C45.58,27.11,45.66,27.09,45.83,27.09z M43.7,28.8
		c-0.66-0.01-1.21,0.16-1.66,0.5c-0.45,0.35-0.73,0.76-0.83,1.24c-0.1,0.37-0.15,0.86-0.15,1.48c0.06,2.04,0.89,3.01,2.47,2.93
		c0.65,0,1.11-0.11,1.41-0.34c0.29-0.23,0.47-0.55,0.54-0.97s0.1-1.04,0.1-1.88c0-0.91-0.04-1.55-0.11-1.93
		c-0.08-0.37-0.24-0.63-0.49-0.77C44.73,28.93,44.31,28.84,43.7,28.8z"/>
	<path d="M52.08,23.62v2.91l0.02,1.06c0.82-0.03,1.84-0.07,3.06-0.13c0.08,0.1,0.11,0.29,0.11,0.57l-0.02,0.44
		c-0.03,0.28-0.03,0.48-0.02,0.61c-1.38,0-2.41-0.01-3.1-0.02v2.91v0.65c0,0.57,0.01,0.98,0.04,1.22c0.03,0.24,0.08,0.45,0.15,0.63
		c0.2,0.25,0.61,0.41,1.23,0.47s1.17,0.08,1.68,0.06c0.06,0.51,0.09,0.83,0.09,0.97c0,0.23-0.03,0.46-0.09,0.68
		c-0.27,0.01-0.68,0.02-1.25,0.02c-0.99,0-1.76-0.12-2.32-0.36s-0.91-0.72-1.06-1.44c-0.14-1.23-0.21-2.83-0.21-4.81v-0.91
		c-0.08,0.01-0.27,0.02-0.57,0.02l-1.44-0.02l0.06-1.56c0.28,0.03,0.94,0.04,1.99,0.04l-0.02-1.99v-0.89c0-0.53,0.01-0.91,0.04-1.12
		c0.18-0.01,0.45-0.01,0.82,0.02l0.51,0.02C51.91,23.64,52.01,23.63,52.08,23.62z"/>
	<path d="M57.59,31.83v0.34l-0.02,0.55c0,1.57,0.77,2.36,2.32,2.36c0.62,0,1.08-0.14,1.38-0.43s0.45-0.67,0.45-1.17
		c0-0.08-0.01-0.21-0.04-0.42c0.27-0.04,0.51-0.06,0.74-0.06c0.2,0,0.35,0.01,0.46,0.02c0.08,0,0.17,0,0.28,0.01
		c0.11,0.01,0.23,0,0.37-0.01c0.01,0.72-0.01,1.3-0.08,1.73s-0.22,0.84-0.46,1.23c-0.23,0.34-0.62,0.59-1.19,0.73
		s-1.18,0.22-1.85,0.22c-0.3,0-0.59-0.01-0.85-0.04s-0.42-0.05-0.48-0.08c-0.99-0.17-1.7-0.79-2.15-1.87
		c-0.44-1.08-0.63-2.32-0.57-3.71c0.01-0.1,0.03-0.31,0.06-0.64c0.03-0.32,0.06-0.66,0.1-1s0.13-0.68,0.26-1.01
		c0.24-0.56,0.68-0.99,1.31-1.29c0.63-0.3,1.34-0.46,2.11-0.46c0.41,0,0.83,0.05,1.27,0.15c1.72,0.29,2.58,1.59,2.58,3.89
		c0,0.19-0.01,0.46-0.04,0.82c-0.24,0.08-0.95,0.14-2.13,0.19c-0.14,0.01-0.44,0.02-0.91,0.02c-1,0-1.74-0.01-2.22-0.04
		C57.97,31.88,57.74,31.86,57.59,31.83z M62.21,30.4c-0.01-0.39-0.11-0.78-0.29-1.16c-0.18-0.38-0.45-0.68-0.79-0.89
		c-0.19-0.09-0.35-0.15-0.49-0.17s-0.32-0.04-0.53-0.04c-0.82,0-1.41,0.17-1.76,0.51c-0.35,0.34-0.57,0.83-0.66,1.46
		c-0.03,0.15-0.04,0.25-0.04,0.3c0,0.15,0.07,0.25,0.22,0.3c0.14,0.05,0.46,0.08,0.94,0.08c0.47,0,0.87-0.01,1.2-0.02
		c1.22,0,1.9-0.01,2.05-0.02c0.06-0.01,0.1-0.03,0.12-0.05c0.02-0.02,0.03-0.05,0.03-0.1V30.4z"/>
	<path d="M66.35,27.19c0,0.15,0,0.27,0.01,0.35c0.01,0.08,0.01,0.18,0.01,0.29c0.09-0.05,0.21-0.11,0.37-0.17s0.33-0.13,0.52-0.19
		c0.29-0.1,0.64-0.17,1.05-0.22c0.41-0.04,0.78-0.07,1.11-0.07c0.3,0,0.46,0.01,0.46,0.04l-0.02,1.58c0,0.25,0.01,0.44,0.02,0.57
		c-0.19-0.08-0.41-0.15-0.65-0.21c-0.28-0.06-0.58-0.09-0.91-0.09c-0.34,0-0.73,0.05-1.16,0.15c-0.36,0.09-0.6,0.22-0.72,0.4
		c-0.13,0.18-0.18,0.51-0.17,1.01c0.05,1.74,0.08,3.71,0.08,5.91v0.08c-0.22,0.05-0.44,0.08-0.67,0.08c-0.09,0-0.23,0-0.43-0.01
		c-0.2-0.01-0.4,0-0.6,0.01l-0.02-3.27c-0.03-1.49-0.04-2.62-0.04-3.36c0-0.61,0.01-1.57,0.04-2.89c0.13,0.01,0.26,0.02,0.41,0.01
		c0.15-0.01,0.28-0.01,0.39-0.01c0.15-0.01,0.35-0.02,0.61-0.02C66.25,27.15,66.35,27.16,66.35,27.19z"/>
	<path d="M77.59,23.62v2.91l0.02,1.06c0.82-0.03,1.84-0.07,3.06-0.13c0.08,0.1,0.11,0.29,0.11,0.57l-0.02,0.44
		c-0.03,0.28-0.03,0.48-0.02,0.61c-1.38,0-2.41-0.01-3.1-0.02v2.91v0.65c0,0.57,0.01,0.98,0.04,1.22c0.03,0.24,0.08,0.45,0.15,0.63
		c0.2,0.25,0.61,0.41,1.23,0.47s1.17,0.08,1.68,0.06c0.06,0.51,0.09,0.83,0.09,0.97c0,0.23-0.03,0.46-0.09,0.68
		c-0.27,0.01-0.68,0.02-1.25,0.02c-0.99,0-1.76-0.12-2.32-0.36s-0.91-0.72-1.06-1.44c-0.14-1.23-0.21-2.83-0.21-4.81v-0.91
		c-0.08,0.01-0.27,0.02-0.57,0.02l-1.44-0.02l0.06-1.56c0.28,0.03,0.94,0.04,1.99,0.04l-0.02-1.99v-0.89c0-0.53,0.01-0.91,0.04-1.12
		c0.18-0.01,0.45-0.01,0.82,0.02l0.51,0.02C77.43,23.64,77.53,23.63,77.59,23.62z"/>
	<path d="M81.47,30.46c0-0.47,0.02-0.87,0.07-1.22c0.04-0.34,0.16-0.77,0.33-1.27c0.16-0.37,0.52-0.64,1.05-0.83
		c0.54-0.18,1.14-0.28,1.79-0.28c0.09,0.01,0.22,0.02,0.38,0.02l0.76-0.02c1.06,0,1.88,0.28,2.45,0.84c0.23,0.15,0.4,0.44,0.52,0.85
		c0.12,0.42,0.19,0.98,0.22,1.68s0.04,1.11,0.04,1.23c-0.05,1.27-0.11,2.27-0.18,3.02c-0.07,0.75-0.21,1.23-0.43,1.44
		c-0.24,0.34-0.57,0.58-1,0.7c-0.42,0.13-0.93,0.19-1.51,0.19c-0.23,0-0.57-0.01-1.03-0.04l-0.87-0.02
		c-0.75-0.13-1.31-0.4-1.68-0.82c-0.37-0.42-0.61-0.91-0.72-1.46c-0.11-0.56-0.16-1.23-0.16-2.01v-0.99
		C81.51,31.01,81.5,30.67,81.47,30.46z M85.35,28.65c-0.86,0-1.48,0.22-1.86,0.67c-0.17,0.2-0.27,0.46-0.31,0.77
		c-0.04,0.31-0.06,0.71-0.05,1.21c-0.01,0.19-0.01,0.44,0.01,0.76c0.02,0.32,0.03,0.56,0.03,0.74l0.04,0.8
		c0.04,0.51,0.18,0.86,0.43,1.07c0.25,0.21,0.56,0.35,0.94,0.43c0.25,0.04,0.51,0.06,0.78,0.06c0.49,0,0.92-0.09,1.29-0.27
		c0.37-0.18,0.6-0.47,0.7-0.87c0.05-0.33,0.08-0.59,0.08-0.78c0.06-0.89,0.09-1.49,0.09-1.8c0-0.84-0.15-1.51-0.46-2.01
		C86.75,28.91,86.18,28.65,85.35,28.65z"/>
	<path d="M101.57,29.6c0,0.06-0.22,0.1-0.67,0.1c-0.33,0-0.57-0.01-0.72-0.02c-0.1,0-0.2,0-0.3-0.01c-0.1-0.01-0.18,0-0.25,0.01
		c0-0.01,0-0.23,0-0.66s-0.37-0.68-1.1-0.77c-0.17-0.03-0.41-0.04-0.74-0.04c-0.35,0-0.67,0.03-0.96,0.08s-0.5,0.12-0.64,0.21
		c-0.17,0.13-0.29,0.31-0.38,0.55c-0.09,0.24-0.13,0.47-0.13,0.7c0,0.18,0.03,0.3,0.08,0.36c0.14,0.29,0.32,0.49,0.55,0.61
		c0.13,0.09,0.44,0.2,0.93,0.32s0.92,0.2,1.27,0.21c0.52,0.01,0.98,0.09,1.38,0.24c0.4,0.15,0.71,0.35,0.94,0.6
		c0.23,0.28,0.4,0.55,0.5,0.83c0.11,0.27,0.16,0.57,0.16,0.88c0,0.39-0.09,0.87-0.29,1.42c-0.28,0.6-0.72,1.03-1.33,1.31
		c-0.61,0.28-1.3,0.41-2.07,0.4c-0.85,0.03-1.6-0.08-2.24-0.33c-0.65-0.25-1.15-0.62-1.5-1.11c-0.35-0.49-0.53-1.08-0.53-1.75v-0.1
		c0.23-0.02,0.56-0.04,1.01-0.04c0.49,0,0.76,0.02,0.8,0.06c0.02,0.03,0.08,0.17,0.16,0.43c0.08,0.26,0.23,0.52,0.45,0.79
		s0.58,0.42,1.1,0.46c0.41,0.03,0.65,0.04,0.72,0.04c0.2,0,0.37-0.02,0.5-0.06c0.13-0.04,0.31-0.11,0.52-0.21
		c0.65-0.29,0.96-0.72,0.95-1.27c0.01-0.37-0.08-0.65-0.29-0.86c-0.21-0.2-0.47-0.34-0.79-0.41c-0.32-0.07-0.75-0.14-1.29-0.2
		c-0.39-0.04-0.71-0.08-0.95-0.11c-0.24-0.04-0.46-0.1-0.65-0.19c-0.66-0.22-1.16-0.55-1.51-1.02c-0.35-0.46-0.52-0.97-0.52-1.51
		c0-0.6,0.17-1.14,0.52-1.62c0.35-0.49,0.83-0.81,1.43-0.96c0.52-0.14,1.18-0.21,2-0.21c0.19,0,0.48,0.01,0.86,0.04
		c0.54,0.04,1.05,0.13,1.52,0.29c0.44,0.19,0.8,0.52,1.08,0.98C101.43,28.52,101.57,29.03,101.57,29.6z"/>
	<path d="M105.81,23.62v2.91l0.02,1.06c0.82-0.03,1.84-0.07,3.06-0.13c0.08,0.1,0.11,0.29,0.11,0.57l-0.02,0.44
		c-0.03,0.28-0.03,0.48-0.02,0.61c-1.38,0-2.41-0.01-3.1-0.02v2.91v0.65c0,0.57,0.01,0.98,0.04,1.22c0.03,0.24,0.08,0.45,0.15,0.63
		c0.2,0.25,0.61,0.41,1.22,0.47s1.17,0.08,1.68,0.06c0.06,0.51,0.1,0.83,0.1,0.97c0,0.23-0.03,0.46-0.1,0.68
		c-0.27,0.01-0.68,0.02-1.25,0.02c-0.99,0-1.76-0.12-2.32-0.36c-0.56-0.24-0.91-0.72-1.06-1.44c-0.14-1.23-0.21-2.83-0.21-4.81
		v-0.91c-0.08,0.01-0.27,0.02-0.57,0.02l-1.44-0.02l0.06-1.56c0.28,0.03,0.94,0.04,2,0.04l-0.02-1.99v-0.89
		c0-0.53,0.01-0.91,0.04-1.12c0.18-0.01,0.45-0.01,0.82,0.02l0.51,0.02C105.64,23.64,105.75,23.63,105.81,23.62z"/>
	<path d="M115.88,27.09c0.29-0.01,0.67,0,1.12,0.04l0.49,0.04c0.03,0.2,0.04,0.35,0.04,0.46v0.19c-0.01,0.29-0.02,0.73-0.02,1.31
		c0,0.48,0.01,1.19,0.04,2.13l0.02,2.13c0,0.91-0.03,1.74-0.08,2.49c0,0.04,0,0.12,0,0.25c0,0.13-0.01,0.24-0.04,0.34
		c-0.03,0.1-0.1,0.17-0.21,0.19h-0.32l-0.61-0.02c-0.1,0-0.19,0.01-0.27,0.02s-0.15,0.02-0.21,0.02c-0.13-0.04-0.19-0.18-0.19-0.42
		c-0.01-0.1-0.01-0.22,0.01-0.34c0.02-0.13,0.03-0.23,0.03-0.32c-0.3,0.42-0.79,0.7-1.44,0.85c-0.66,0.15-1.3,0.23-1.94,0.23
		c-0.61,0-1.12-0.27-1.55-0.81c-0.42-0.54-0.74-1.2-0.94-1.99c-0.2-0.79-0.3-1.55-0.3-2.3c0-0.82,0.14-1.56,0.42-2.22
		c0.28-0.66,0.66-1.18,1.15-1.57c0.49-0.39,1.03-0.59,1.62-0.6l0.61-0.02c0.57,0,1.04,0.07,1.42,0.2c0.37,0.13,0.65,0.38,0.83,0.73
		c0-0.11,0.01-0.26,0.04-0.44c0.03-0.25,0.04-0.43,0.04-0.53C115.63,27.11,115.71,27.09,115.88,27.09z M113.75,28.8
		c-0.66-0.01-1.21,0.16-1.66,0.5s-0.72,0.76-0.83,1.24c-0.1,0.37-0.15,0.86-0.15,1.48c0.06,2.04,0.89,3.01,2.47,2.93
		c0.65,0,1.12-0.11,1.41-0.34c0.29-0.23,0.47-0.55,0.54-0.97c0.07-0.42,0.1-1.04,0.1-1.88c0-0.91-0.04-1.55-0.11-1.93
		c-0.08-0.37-0.24-0.63-0.48-0.77C114.79,28.93,114.36,28.84,113.75,28.8z"/>
	<path d="M118.25,27.13c0.21,0.01,0.54,0.02,0.99,0.02c0.43,0,0.73,0.01,0.91,0.04l0.68,2.6c0.47,1.79,0.83,3.13,1.08,4.04
		c0.25,0.91,0.46,1.51,0.63,1.81c0.19-0.23,0.41-0.85,0.67-1.86c0.25-1.01,0.56-2.36,0.91-4.03c0.04-0.15,0.13-0.58,0.28-1.27
		c0.15-0.7,0.25-1.13,0.31-1.29l0.74-0.02c0.46-0.03,0.83-0.03,1.12-0.02c-0.13,0.46-0.35,1.38-0.68,2.77l-0.34,1.42
		c-0.05,0.17-0.17,0.69-0.34,1.58c-0.33,1.53-0.67,2.76-1.04,3.7c-0.36,0.93-0.97,1.73-1.83,2.39c-0.86,0.67-2.07,1-3.61,1
		c-0.28,0-0.49-0.01-0.65-0.02c-0.1-0.27-0.15-0.6-0.15-0.99c0-0.29,0.03-0.53,0.08-0.72c0.41,0.03,0.7,0.04,0.87,0.04
		c1.44,0,2.17-0.37,2.17-1.12c0-0.06-0.01-0.16-0.04-0.29l-1.35-4.77C119.22,30.63,118.75,28.96,118.25,27.13z"/>
	<path d="M132.6,26.45v1.69c0.34-0.29,0.64-0.51,0.9-0.66s0.64-0.24,1.15-0.28c0.3-0.04,0.59-0.06,0.86-0.06
		c0.92,0,1.65,0.22,2.17,0.67c0.16,0.14,0.28,0.47,0.34,0.99s0.09,1.2,0.09,2.05c0,0.48-0.01,1.24-0.04,2.28
		c-0.03,1.01-0.04,1.74-0.04,2.17c0,0.35,0.01,0.79,0.04,1.29c-0.51,0.08-1.05,0.1-1.63,0.08c-0.03-0.38-0.04-0.71-0.04-0.99v-1.14
		v-3.72c-0.03-0.81-0.21-1.34-0.57-1.58c-0.08-0.05-0.23-0.1-0.46-0.15c-0.27-0.08-0.54-0.11-0.82-0.11c-0.49,0-0.92,0.12-1.26,0.37
		s-0.57,0.63-0.67,1.15c-0.09,0.48-0.13,1.06-0.13,1.73l0.02,0.65c0.03,0.84,0.04,1.53,0.04,2.07c0,0.68-0.01,1.21-0.04,1.58v0.08
		c-0.25,0.06-0.46,0.09-0.61,0.09l-0.57-0.02c-0.18,0-0.32,0.01-0.44,0.02c0-1.46-0.01-2.66-0.02-3.61l-0.02-5.81
		c0-1.42,0.01-2.88,0.04-4.37c0.39,0.04,0.71,0.05,0.95,0.04c0.06,0,0.14-0.01,0.24-0.02s0.19-0.02,0.29-0.02
		c0.13,0,0.19,0.02,0.19,0.06c0.03,0.11,0.04,0.89,0.04,2.32V26.45z"/>
	<path d="M138.64,27.13c0.22,0.01,0.54,0.02,0.99,0.02c0.43,0,0.73,0.01,0.91,0.04l0.68,2.6c0.47,1.79,0.83,3.13,1.08,4.04
		c0.25,0.91,0.46,1.51,0.63,1.81c0.19-0.23,0.41-0.85,0.67-1.86c0.25-1.01,0.56-2.36,0.91-4.03c0.04-0.15,0.13-0.58,0.28-1.27
		c0.15-0.7,0.25-1.13,0.31-1.29l0.74-0.02c0.46-0.03,0.83-0.03,1.12-0.02c-0.13,0.46-0.35,1.38-0.68,2.77l-0.34,1.42
		c-0.05,0.17-0.16,0.69-0.34,1.58c-0.33,1.53-0.67,2.76-1.04,3.7c-0.36,0.93-0.97,1.73-1.83,2.39s-2.06,1-3.61,1
		c-0.28,0-0.49-0.01-0.65-0.02c-0.1-0.27-0.15-0.6-0.15-0.99c0-0.29,0.03-0.53,0.08-0.72c0.41,0.03,0.7,0.04,0.87,0.04
		c1.44,0,2.17-0.37,2.17-1.12c0-0.06-0.01-0.16-0.04-0.29l-1.35-4.77C139.6,30.63,139.13,28.96,138.64,27.13z"/>
	<path d="M153.25,23.52v-0.21c0.03-0.06,0.33-0.09,0.91-0.09c0.33,0,0.58,0.01,0.74,0.04v1.25c0,1.2,0.02,2.96,0.08,5.26
		c0.01,0.57,0.03,1.25,0.04,2.04s0.02,1.69,0.02,2.71c0,0.94-0.01,1.63-0.02,2.09c-0.41,0.02-0.74,0.04-1.01,0.04
		c-0.34,0-0.6-0.01-0.76-0.04c-0.01-0.03-0.02-0.16-0.02-0.4c0-0.33-0.03-0.58-0.1-0.76c-0.09,0.2-0.24,0.41-0.45,0.61
		c-0.21,0.2-0.42,0.32-0.64,0.36c-0.34,0.11-0.72,0.17-1.14,0.17c-0.2,0-0.35-0.01-0.46-0.02c-0.9-0.06-1.58-0.35-2.03-0.85
		s-0.76-1.11-0.9-1.84s-0.23-1.62-0.26-2.67c0-1.06,0.14-1.94,0.43-2.63c0.29-0.69,0.78-1.13,1.49-1.32c0.47-0.13,1-0.19,1.6-0.19
		c0.48,0,0.85,0.03,1.12,0.09c0.25,0.04,0.48,0.12,0.68,0.26c0.2,0.13,0.36,0.27,0.47,0.42c0.11,0.15,0.18,0.25,0.19,0.31
		l-0.02-1.62c0-0.33,0-0.62-0.01-0.88c-0.01-0.26,0-0.47,0.01-0.62c0.01-0.06,0.02-0.14,0.01-0.24c-0.01-0.1-0.01-0.18-0.01-0.26
		v-0.4C153.23,23.86,153.24,23.65,153.25,23.52z M151.41,28.5l-0.36-0.02c-0.68,0-1.21,0.17-1.58,0.5s-0.58,0.86-0.63,1.57
		c-0.04,0.28-0.06,0.7-0.06,1.25c0.03,0.84,0.13,1.49,0.31,1.95c0.18,0.46,0.44,0.79,0.76,0.97s0.75,0.28,1.28,0.28
		c0.61,0,1.06-0.14,1.37-0.43s0.5-0.66,0.59-1.13c0.09-0.47,0.13-1.08,0.13-1.84c-0.01-0.72-0.05-1.29-0.12-1.69
		s-0.23-0.74-0.49-0.99S151.95,28.53,151.41,28.5z"/>
	<path d="M158.08,27.19c0,0.15,0,0.27,0.01,0.35c0.01,0.08,0.01,0.18,0.01,0.29c0.09-0.05,0.21-0.11,0.37-0.17
		c0.16-0.06,0.33-0.13,0.52-0.19c0.29-0.1,0.64-0.17,1.05-0.22c0.41-0.04,0.78-0.07,1.11-0.07c0.3,0,0.46,0.01,0.46,0.04l-0.02,1.58
		c0,0.25,0.01,0.44,0.02,0.57c-0.19-0.08-0.41-0.15-0.65-0.21c-0.28-0.06-0.58-0.09-0.91-0.09c-0.34,0-0.73,0.05-1.16,0.15
		c-0.35,0.09-0.6,0.22-0.72,0.4c-0.13,0.18-0.18,0.51-0.17,1.01c0.05,1.74,0.08,3.71,0.08,5.91v0.08c-0.22,0.05-0.44,0.08-0.67,0.08
		c-0.09,0-0.23,0-0.43-0.01c-0.2-0.01-0.4,0-0.6,0.01l-0.02-3.27c-0.03-1.49-0.04-2.62-0.04-3.36c0-0.61,0.01-1.57,0.04-2.89
		c0.13,0.01,0.26,0.02,0.41,0.01c0.15-0.01,0.28-0.01,0.39-0.01c0.15-0.01,0.35-0.02,0.61-0.02
		C157.98,27.15,158.08,27.16,158.08,27.19z"/>
	<path d="M168.83,27.09c0.29-0.01,0.67,0,1.12,0.04l0.49,0.04c0.03,0.2,0.04,0.35,0.04,0.46v0.19c-0.01,0.29-0.02,0.73-0.02,1.31
		c0,0.48,0.01,1.19,0.04,2.13l0.02,2.13c0,0.91-0.03,1.74-0.08,2.49c0,0.04,0,0.12,0,0.25c0,0.13-0.01,0.24-0.04,0.34
		c-0.03,0.1-0.1,0.17-0.21,0.19h-0.32l-0.61-0.02c-0.1,0-0.19,0.01-0.27,0.02s-0.15,0.02-0.21,0.02c-0.13-0.04-0.19-0.18-0.19-0.42
		c-0.01-0.1-0.01-0.22,0.01-0.34c0.02-0.13,0.03-0.23,0.03-0.32c-0.3,0.42-0.79,0.7-1.44,0.85c-0.66,0.15-1.3,0.23-1.94,0.23
		c-0.61,0-1.12-0.27-1.55-0.81c-0.42-0.54-0.74-1.2-0.94-1.99c-0.2-0.79-0.3-1.55-0.3-2.3c0-0.82,0.14-1.56,0.42-2.22
		c0.28-0.66,0.66-1.18,1.15-1.57c0.49-0.39,1.03-0.59,1.62-0.6l0.61-0.02c0.57,0,1.04,0.07,1.42,0.2c0.37,0.13,0.65,0.38,0.83,0.73
		c0-0.11,0.01-0.26,0.04-0.44c0.03-0.25,0.04-0.43,0.04-0.53C168.58,27.11,168.67,27.09,168.83,27.09z M166.7,28.8
		c-0.66-0.01-1.21,0.16-1.66,0.5s-0.72,0.76-0.83,1.24c-0.1,0.37-0.15,0.86-0.15,1.48c0.06,2.04,0.89,3.01,2.47,2.93
		c0.65,0,1.12-0.11,1.41-0.34c0.29-0.23,0.47-0.55,0.54-0.97c0.07-0.42,0.1-1.04,0.1-1.88c0-0.91-0.04-1.55-0.11-1.93
		c-0.08-0.37-0.24-0.63-0.48-0.77C167.74,28.93,167.31,28.84,166.7,28.8z"/>
	<path d="M175.08,23.62v2.91l0.02,1.06c0.82-0.03,1.84-0.07,3.06-0.13c0.08,0.1,0.11,0.29,0.11,0.57l-0.02,0.44
		c-0.03,0.28-0.03,0.48-0.02,0.61c-1.38,0-2.41-0.01-3.1-0.02v2.91v0.65c0,0.57,0.01,0.98,0.04,1.22c0.03,0.24,0.08,0.45,0.15,0.63
		c0.2,0.25,0.61,0.41,1.22,0.47s1.17,0.08,1.68,0.06c0.06,0.51,0.1,0.83,0.1,0.97c0,0.23-0.03,0.46-0.1,0.68
		c-0.27,0.01-0.68,0.02-1.25,0.02c-0.99,0-1.76-0.12-2.32-0.36c-0.56-0.24-0.91-0.72-1.06-1.44c-0.14-1.23-0.21-2.83-0.21-4.81
		v-0.91c-0.08,0.01-0.27,0.02-0.57,0.02l-1.44-0.02l0.06-1.56c0.28,0.03,0.94,0.04,2,0.04l-0.02-1.99v-0.89
		c0-0.53,0.01-0.91,0.04-1.12c0.18-0.01,0.45-0.01,0.82,0.02l0.51,0.02C174.92,23.64,175.02,23.63,175.08,23.62z"/>
	<path d="M180.59,31.83v0.34l-0.02,0.55c0,1.57,0.77,2.36,2.32,2.36c0.62,0,1.08-0.14,1.38-0.43c0.3-0.29,0.45-0.67,0.45-1.17
		c0-0.08-0.01-0.21-0.04-0.42c0.27-0.04,0.51-0.06,0.74-0.06c0.2,0,0.35,0.01,0.46,0.02c0.08,0,0.17,0,0.28,0.01
		c0.11,0.01,0.23,0,0.37-0.01c0.01,0.72-0.01,1.3-0.08,1.73s-0.21,0.84-0.46,1.23c-0.23,0.34-0.62,0.59-1.19,0.73
		s-1.18,0.22-1.85,0.22c-0.3,0-0.59-0.01-0.84-0.04c-0.26-0.03-0.42-0.05-0.48-0.08c-0.99-0.17-1.7-0.79-2.15-1.87
		s-0.63-2.32-0.57-3.71c0.01-0.1,0.03-0.31,0.06-0.64c0.03-0.32,0.06-0.66,0.1-1c0.04-0.34,0.13-0.68,0.26-1.01
		c0.24-0.56,0.68-0.99,1.31-1.29c0.63-0.3,1.34-0.46,2.11-0.46c0.41,0,0.83,0.05,1.27,0.15c1.72,0.29,2.58,1.59,2.58,3.89
		c0,0.19-0.01,0.46-0.04,0.82c-0.24,0.08-0.95,0.14-2.13,0.19c-0.14,0.01-0.44,0.02-0.91,0.02c-1,0-1.74-0.01-2.22-0.04
		C180.98,31.88,180.75,31.86,180.59,31.83z M185.21,30.4c-0.01-0.39-0.11-0.78-0.29-1.16c-0.18-0.38-0.45-0.68-0.79-0.89
		c-0.19-0.09-0.36-0.15-0.49-0.17c-0.14-0.03-0.32-0.04-0.53-0.04c-0.82,0-1.41,0.17-1.76,0.51c-0.35,0.34-0.57,0.83-0.66,1.46
		c-0.03,0.15-0.04,0.25-0.04,0.3c0,0.15,0.07,0.25,0.22,0.3c0.15,0.05,0.46,0.08,0.94,0.08c0.47,0,0.87-0.01,1.2-0.02
		c1.22,0,1.9-0.01,2.05-0.02c0.06-0.01,0.1-0.03,0.12-0.05c0.02-0.02,0.03-0.05,0.03-0.1V30.4z"/>
	<path d="M193.32,23.52v-0.21c0.03-0.06,0.33-0.09,0.91-0.09c0.33,0,0.58,0.01,0.74,0.04v1.25c0,1.2,0.02,2.96,0.08,5.26
		c0.01,0.57,0.03,1.25,0.04,2.04s0.02,1.69,0.02,2.71c0,0.94-0.01,1.63-0.02,2.09c-0.41,0.02-0.74,0.04-1.01,0.04
		c-0.34,0-0.6-0.01-0.76-0.04c-0.01-0.03-0.02-0.16-0.02-0.4c0-0.33-0.03-0.58-0.1-0.76c-0.09,0.2-0.24,0.41-0.45,0.61
		c-0.21,0.2-0.42,0.32-0.64,0.36c-0.34,0.11-0.72,0.17-1.14,0.17c-0.2,0-0.35-0.01-0.46-0.02c-0.9-0.06-1.58-0.35-2.03-0.85
		s-0.76-1.11-0.9-1.84s-0.23-1.62-0.26-2.67c0-1.06,0.14-1.94,0.43-2.63c0.29-0.69,0.78-1.13,1.49-1.32c0.47-0.13,1-0.19,1.6-0.19
		c0.48,0,0.85,0.03,1.12,0.09c0.25,0.04,0.48,0.12,0.68,0.26c0.2,0.13,0.36,0.27,0.47,0.42c0.11,0.15,0.18,0.25,0.19,0.31
		l-0.02-1.62c0-0.33,0-0.62-0.01-0.88c-0.01-0.26,0-0.47,0.01-0.62c0.01-0.06,0.02-0.14,0.01-0.24c-0.01-0.1-0.01-0.18-0.01-0.26
		v-0.4C193.3,23.86,193.31,23.65,193.32,23.52z M191.48,28.5l-0.36-0.02c-0.68,0-1.21,0.17-1.58,0.5s-0.58,0.86-0.63,1.57
		c-0.04,0.28-0.06,0.7-0.06,1.25c0.03,0.84,0.13,1.49,0.31,1.95c0.18,0.46,0.44,0.79,0.76,0.97s0.75,0.28,1.28,0.28
		c0.61,0,1.06-0.14,1.37-0.43s0.5-0.66,0.59-1.13c0.09-0.47,0.13-1.08,0.13-1.84c-0.01-0.72-0.05-1.29-0.12-1.69
		s-0.23-0.74-0.49-0.99S192.02,28.53,191.48,28.5z"/>
	<path d="M198.26,36.63l-1.44-0.02h-0.06c-0.04-0.23-0.06-0.52-0.06-0.87l0.02-0.93c0.01-0.11,0.02-0.25,0.02-0.4
		c0.23-0.09,0.53-0.13,0.91-0.13c0.35,0,0.61,0.03,0.76,0.1c0,0.06-0.02,0.41-0.06,1.03c-0.04,0.62-0.06,1.02-0.06,1.2v0.04H198.26z
		"/>
	<path d="M7.93,46.11c0.41,0.1,0.79,0.3,1.17,0.59c0.37,0.29,0.67,0.63,0.9,1.01c0.37,0.59,0.67,1.24,0.9,1.94
		c0.23,0.7,0.37,1.38,0.41,2.05l-0.04,0.86c-0.03,1.14-0.1,2.05-0.23,2.72c0,0.04-0.04,0.13-0.1,0.29s-0.14,0.31-0.2,0.47
		c-0.19,0.44-0.48,0.97-0.87,1.57c-0.39,0.6-0.81,1.18-1.25,1.74c-1.12,0.04-2.78,0.06-5,0.06L3.6,59.41
		c-0.21-1.56-0.32-3.59-0.32-6.1c0-1.13,0.01-1.98,0.02-2.55l0.02-2.56c0-0.81-0.01-1.42-0.02-1.82l0.06-0.08
		c0.56-0.14,1.27-0.21,2.15-0.21c0.42,0,0.73,0.01,0.93,0.02C6.94,46.12,7.44,46.12,7.93,46.11z M6.22,56.98
		c0.62-0.01,1.07-0.05,1.34-0.1c0.27-0.06,0.48-0.15,0.62-0.28c0.14-0.13,0.34-0.37,0.61-0.72c0.37-0.48,0.65-1.29,0.84-2.41
		c0.03-0.3,0.04-0.53,0.04-0.68c0-0.15-0.01-0.38-0.04-0.68c-0.06-0.67-0.2-1.27-0.42-1.79c-0.22-0.52-0.47-0.93-0.76-1.24
		c-0.29-0.3-0.58-0.48-0.86-0.53c-0.33-0.03-0.54-0.04-0.65-0.04c-0.34-0.03-0.95,0-1.82,0.08h-0.1c0.05,0.35,0.08,1.03,0.08,2.01
		c0,0.81-0.01,1.5-0.04,2.05l-0.02,0.67c0,0.22,0.01,0.7,0.04,1.46l0.09,2.09C5.28,56.94,5.63,56.98,6.22,56.98z"/>
	<path d="M12.15,53.26c0-0.47,0.02-0.87,0.07-1.22c0.04-0.34,0.16-0.77,0.33-1.27c0.16-0.37,0.52-0.64,1.05-0.83
		c0.54-0.18,1.14-0.28,1.79-0.28c0.09,0.01,0.22,0.02,0.38,0.02l0.76-0.02c1.06,0,1.88,0.28,2.45,0.84c0.23,0.15,0.4,0.44,0.52,0.85
		c0.12,0.42,0.19,0.98,0.22,1.68s0.04,1.11,0.04,1.23c-0.05,1.27-0.11,2.27-0.18,3.02c-0.07,0.75-0.21,1.23-0.43,1.44
		c-0.24,0.34-0.57,0.58-1,0.7c-0.42,0.13-0.93,0.19-1.51,0.19c-0.23,0-0.57-0.01-1.03-0.04l-0.87-0.02
		c-0.75-0.13-1.31-0.4-1.68-0.82c-0.37-0.42-0.61-0.91-0.72-1.46c-0.11-0.56-0.16-1.23-0.16-2.01v-0.99
		C12.19,53.81,12.17,53.47,12.15,53.26z M16.03,51.45c-0.86,0-1.48,0.22-1.86,0.67c-0.17,0.2-0.27,0.46-0.31,0.77
		c-0.04,0.31-0.06,0.71-0.05,1.21c-0.01,0.19-0.01,0.44,0.01,0.76c0.02,0.32,0.03,0.56,0.03,0.74l0.04,0.8
		c0.04,0.51,0.18,0.86,0.43,1.07c0.25,0.21,0.56,0.35,0.94,0.43c0.25,0.04,0.51,0.06,0.78,0.06c0.49,0,0.92-0.09,1.29-0.27
		c0.37-0.18,0.6-0.47,0.7-0.87c0.05-0.33,0.08-0.59,0.08-0.78c0.06-0.89,0.09-1.49,0.09-1.8c0-0.84-0.15-1.51-0.46-2.01
		C17.43,51.71,16.86,51.45,16.03,51.45z"/>
	<path d="M23.72,49.93c0.22,0.01,0.54,0.02,0.99,0.02c0.43,0,0.73,0.01,0.91,0.04l0.68,2.6c0.47,1.79,0.83,3.13,1.08,4.04
		c0.25,0.91,0.46,1.51,0.63,1.81c0.19-0.23,0.41-0.85,0.67-1.86c0.25-1.01,0.56-2.36,0.91-4.03c0.04-0.15,0.13-0.58,0.28-1.27
		c0.15-0.7,0.25-1.13,0.31-1.29l0.74-0.02c0.46-0.03,0.83-0.03,1.12-0.02c-0.13,0.46-0.35,1.38-0.68,2.77l-0.34,1.42
		c-0.05,0.17-0.16,0.69-0.34,1.58c-0.33,1.53-0.67,2.76-1.04,3.7c-0.36,0.93-0.97,1.73-1.83,2.39s-2.06,1-3.61,1
		c-0.28,0-0.49-0.01-0.65-0.02c-0.1-0.27-0.15-0.6-0.15-0.99c0-0.29,0.03-0.53,0.08-0.72c0.41,0.03,0.7,0.04,0.87,0.04
		c1.44,0,2.17-0.37,2.17-1.12c0-0.06-0.01-0.16-0.04-0.29l-1.35-4.77C24.68,53.43,24.21,51.76,23.72,49.93z"/>
	<path d="M32.42,53.26c0-0.47,0.02-0.87,0.07-1.22c0.04-0.34,0.15-0.77,0.33-1.27c0.17-0.37,0.52-0.64,1.05-0.83s1.14-0.28,1.8-0.28
		c0.09,0.01,0.21,0.02,0.38,0.02l0.76-0.02c1.06,0,1.88,0.28,2.45,0.84c0.23,0.15,0.4,0.44,0.52,0.85c0.12,0.42,0.19,0.98,0.22,1.68
		c0.02,0.7,0.04,1.11,0.04,1.23c-0.05,1.27-0.11,2.27-0.18,3.02c-0.07,0.75-0.21,1.23-0.43,1.44c-0.24,0.34-0.57,0.58-1,0.7
		c-0.42,0.13-0.93,0.19-1.51,0.19c-0.23,0-0.57-0.01-1.03-0.04l-0.87-0.02c-0.75-0.13-1.31-0.4-1.68-0.82
		c-0.37-0.42-0.61-0.91-0.72-1.46c-0.11-0.56-0.16-1.23-0.16-2.01v-0.99C32.46,53.81,32.45,53.47,32.42,53.26z M36.3,51.45
		c-0.86,0-1.48,0.22-1.86,0.67c-0.17,0.2-0.27,0.46-0.31,0.77c-0.04,0.31-0.06,0.71-0.05,1.21c-0.01,0.19-0.01,0.44,0.01,0.76
		c0.02,0.32,0.03,0.56,0.03,0.74l0.04,0.8c0.04,0.51,0.18,0.86,0.43,1.07s0.56,0.35,0.94,0.43c0.25,0.04,0.51,0.06,0.78,0.06
		c0.49,0,0.92-0.09,1.29-0.27c0.37-0.18,0.6-0.47,0.7-0.87c0.05-0.33,0.08-0.59,0.08-0.78c0.06-0.89,0.1-1.49,0.1-1.8
		c0-0.84-0.15-1.51-0.46-2.01C37.7,51.71,37.13,51.45,36.3,51.45z"/>
	<path d="M46.67,59.43c-0.01-0.24-0.02-0.44-0.02-0.6s-0.01-0.29-0.02-0.41c-0.03,0.01-0.13,0.08-0.3,0.21
		c-0.18,0.13-0.46,0.23-0.86,0.32c-0.73,0.27-1.45,0.4-2.15,0.4c-0.79,0-1.38-0.19-1.77-0.57c-0.21-0.19-0.35-0.51-0.4-0.96
		c-0.05-0.45-0.08-1.17-0.1-2.16v-0.59c0-0.39,0.01-0.97,0.04-1.73c0.04-0.76,0.06-1.48,0.06-2.17c0-0.33-0.01-0.73-0.04-1.22
		c0.23-0.03,0.54-0.04,0.93-0.04h0.63c0.04,0.38,0.06,0.83,0.06,1.35l-0.02,1.54c0,0.51,0.01,0.87,0.02,1.1l0.02,0.53
		c0,0.46,0.02,0.99,0.06,1.6c0.03,0.42,0.11,0.73,0.26,0.95c0.15,0.21,0.36,0.36,0.66,0.44c0.25,0.04,0.49,0.06,0.7,0.06
		c0.75,0,1.32-0.2,1.72-0.61c0.4-0.41,0.6-0.96,0.62-1.65c0.01-0.46-0.01-1.29-0.06-2.49c-0.03-0.61-0.04-1.01-0.04-1.2
		c0-0.34,0.01-0.83,0.04-1.46v-0.08c0.2-0.05,0.4-0.08,0.58-0.09s0.29-0.02,0.33-0.02c0.27,0,0.49-0.01,0.68-0.02l0.02,3.27
		c0.02,1.5,0.04,2.62,0.04,3.36c0,0.61-0.01,1.57-0.04,2.89c-0.28,0-0.59,0.02-0.93,0.06c-0.06,0-0.14,0.01-0.24,0.02
		s-0.19,0.02-0.29,0.02C46.74,59.49,46.67,59.47,46.67,59.43z"/>
	<path d="M55.22,49.25v1.69c0.34-0.29,0.64-0.51,0.9-0.66s0.64-0.24,1.15-0.28c0.3-0.04,0.59-0.06,0.85-0.06
		c0.92,0,1.65,0.22,2.17,0.67c0.17,0.14,0.28,0.47,0.34,0.99c0.06,0.52,0.09,1.2,0.09,2.05c0,0.48-0.01,1.24-0.04,2.28
		c-0.03,1.01-0.04,1.74-0.04,2.17c0,0.35,0.01,0.79,0.04,1.29c-0.51,0.08-1.05,0.1-1.63,0.08c-0.03-0.38-0.04-0.71-0.04-0.99v-1.14
		v-3.72c-0.03-0.81-0.22-1.34-0.57-1.58c-0.08-0.05-0.23-0.1-0.46-0.15c-0.27-0.08-0.54-0.11-0.82-0.11c-0.49,0-0.92,0.12-1.26,0.37
		c-0.35,0.25-0.57,0.63-0.67,1.15c-0.09,0.48-0.13,1.06-0.13,1.73l0.02,0.65c0.03,0.84,0.04,1.53,0.04,2.07
		c0,0.68-0.01,1.21-0.04,1.58v0.08c-0.25,0.06-0.46,0.09-0.61,0.09l-0.57-0.02c-0.18,0-0.32,0.01-0.44,0.02
		c0-1.46-0.01-2.66-0.02-3.61l-0.02-5.81c0-1.42,0.01-2.88,0.04-4.37c0.39,0.04,0.71,0.05,0.95,0.04c0.06,0,0.14-0.01,0.24-0.02
		c0.09-0.01,0.19-0.02,0.29-0.02c0.13,0,0.19,0.02,0.19,0.06c0.03,0.11,0.04,0.89,0.04,2.32V49.25z"/>
	<path d="M68.07,49.89c0.29-0.01,0.67,0,1.12,0.04l0.49,0.04c0.03,0.2,0.04,0.35,0.04,0.46v0.19c-0.01,0.29-0.02,0.73-0.02,1.31
		c0,0.48,0.01,1.19,0.04,2.13l0.02,2.13c0,0.91-0.03,1.74-0.08,2.49c0,0.04,0,0.12,0,0.25c0,0.13-0.01,0.24-0.04,0.34
		c-0.03,0.1-0.1,0.17-0.21,0.19h-0.32l-0.61-0.02c-0.1,0-0.19,0.01-0.27,0.02s-0.15,0.02-0.21,0.02c-0.13-0.04-0.19-0.18-0.19-0.42
		c-0.01-0.1-0.01-0.22,0.01-0.34c0.02-0.13,0.03-0.23,0.03-0.32c-0.3,0.42-0.79,0.7-1.44,0.85c-0.66,0.15-1.3,0.23-1.94,0.23
		c-0.61,0-1.12-0.27-1.55-0.81c-0.42-0.54-0.74-1.2-0.94-1.99c-0.2-0.79-0.3-1.55-0.3-2.3c0-0.82,0.14-1.56,0.42-2.22
		c0.28-0.66,0.66-1.18,1.15-1.57c0.49-0.39,1.03-0.59,1.62-0.6l0.61-0.02c0.57,0,1.04,0.07,1.42,0.2c0.37,0.13,0.65,0.38,0.83,0.73
		c0-0.11,0.01-0.26,0.04-0.44c0.03-0.25,0.04-0.43,0.04-0.53C67.82,49.91,67.9,49.89,68.07,49.89z M65.94,51.6
		c-0.66-0.01-1.21,0.16-1.66,0.5s-0.72,0.76-0.83,1.24c-0.1,0.37-0.15,0.86-0.15,1.48c0.06,2.04,0.89,3.01,2.47,2.93
		c0.65,0,1.12-0.11,1.41-0.34c0.29-0.23,0.47-0.55,0.54-0.97c0.07-0.42,0.1-1.04,0.1-1.88c0-0.91-0.04-1.55-0.11-1.93
		c-0.08-0.37-0.24-0.63-0.48-0.77C66.97,51.73,66.55,51.64,65.94,51.6z"/>
	<path d="M70.59,49.93c0.19,0.03,0.46,0.04,0.8,0.04c0.11,0,0.25,0,0.41-0.01c0.16-0.01,0.33,0,0.52,0.01
		c0.2,0.71,0.58,2.06,1.12,4.05c0.27,1,0.46,1.72,0.59,2.17c0.13,0.44,0.28,0.87,0.46,1.29c0.11-0.28,0.25-0.7,0.42-1.27
		c0.16-0.57,0.27-0.94,0.32-1.12c0.62-2.12,1.15-3.81,1.6-5.07c0.11,0,0.3-0.01,0.55-0.04c0.46-0.03,0.84-0.03,1.14-0.02
		c-0.25,0.67-0.49,1.37-0.7,2.08c-0.22,0.72-0.42,1.42-0.61,2.12c-0.61,2.1-1.15,3.86-1.63,5.26c-0.2,0.04-0.53,0.06-0.97,0.06
		l-1.37-0.02c-0.56-1.77-0.97-3.12-1.23-4.04c-0.26-0.92-0.52-1.93-0.79-3.03L70.59,49.93z"/>
	<path d="M80.38,54.62v0.34l-0.02,0.55c0,1.57,0.77,2.36,2.32,2.36c0.62,0,1.08-0.14,1.38-0.43s0.45-0.67,0.45-1.17
		c0-0.08-0.01-0.21-0.04-0.42c0.27-0.04,0.51-0.06,0.74-0.06c0.2,0,0.35,0.01,0.46,0.02c0.08,0,0.17,0,0.28,0.01
		c0.11,0.01,0.23,0,0.37-0.01c0.01,0.72-0.01,1.3-0.08,1.73s-0.22,0.84-0.46,1.23c-0.23,0.34-0.62,0.59-1.19,0.73
		s-1.18,0.22-1.85,0.22c-0.3,0-0.59-0.01-0.85-0.04s-0.42-0.05-0.48-0.08c-0.99-0.17-1.7-0.79-2.15-1.87
		c-0.44-1.08-0.63-2.32-0.57-3.71c0.01-0.1,0.03-0.31,0.06-0.64c0.03-0.32,0.06-0.66,0.1-1s0.13-0.68,0.26-1.01
		c0.24-0.56,0.68-0.99,1.31-1.29c0.63-0.3,1.34-0.46,2.11-0.46c0.41,0,0.83,0.05,1.27,0.15c1.72,0.29,2.58,1.59,2.58,3.89
		c0,0.19-0.01,0.46-0.04,0.82c-0.24,0.08-0.95,0.14-2.13,0.19c-0.14,0.01-0.44,0.02-0.91,0.02c-1,0-1.74-0.01-2.22-0.04
		C80.76,54.68,80.53,54.66,80.38,54.62z M85,53.2c-0.01-0.39-0.11-0.78-0.29-1.16c-0.18-0.38-0.45-0.68-0.79-0.89
		c-0.19-0.09-0.35-0.15-0.49-0.17s-0.32-0.04-0.53-0.04c-0.82,0-1.41,0.17-1.76,0.51c-0.35,0.34-0.57,0.83-0.66,1.46
		c-0.03,0.15-0.04,0.25-0.04,0.3c0,0.15,0.07,0.25,0.22,0.3c0.14,0.05,0.46,0.08,0.94,0.08c0.47,0,0.87-0.01,1.2-0.02
		c1.22,0,1.9-0.01,2.05-0.02c0.06-0.01,0.1-0.03,0.12-0.05c0.02-0.02,0.03-0.05,0.03-0.1V53.2z"/>
	<path d="M97.25,49.89c0.29-0.01,0.67,0,1.12,0.04l0.49,0.04c0.03,0.2,0.04,0.35,0.04,0.46v0.19c-0.01,0.29-0.02,0.73-0.02,1.31
		c0,0.48,0.01,1.19,0.04,2.13l0.02,2.13c0,0.91-0.03,1.74-0.08,2.49c0,0.04,0,0.12,0,0.25c0,0.13-0.01,0.24-0.04,0.34
		c-0.03,0.1-0.1,0.17-0.21,0.19h-0.32l-0.61-0.02c-0.1,0-0.19,0.01-0.27,0.02s-0.15,0.02-0.21,0.02c-0.13-0.04-0.19-0.18-0.19-0.42
		c-0.01-0.1-0.01-0.22,0.01-0.34c0.02-0.13,0.03-0.23,0.03-0.32c-0.3,0.42-0.79,0.7-1.44,0.85c-0.66,0.15-1.3,0.23-1.94,0.23
		c-0.61,0-1.12-0.27-1.55-0.81c-0.42-0.54-0.74-1.2-0.94-1.99c-0.2-0.79-0.3-1.55-0.3-2.3c0-0.82,0.14-1.56,0.42-2.22
		c0.28-0.66,0.66-1.18,1.15-1.57c0.49-0.39,1.03-0.59,1.62-0.6l0.61-0.02c0.57,0,1.04,0.07,1.42,0.2c0.37,0.13,0.65,0.38,0.83,0.73
		c0-0.11,0.01-0.26,0.04-0.44c0.03-0.25,0.04-0.43,0.04-0.53C97,49.91,97.08,49.89,97.25,49.89z M95.12,51.6
		c-0.66-0.01-1.21,0.16-1.66,0.5s-0.72,0.76-0.83,1.24c-0.1,0.37-0.15,0.86-0.15,1.48c0.06,2.04,0.89,3.01,2.47,2.93
		c0.65,0,1.12-0.11,1.41-0.34c0.29-0.23,0.47-0.55,0.54-0.97c0.07-0.42,0.1-1.04,0.1-1.88c0-0.91-0.04-1.55-0.11-1.93
		c-0.08-0.37-0.24-0.63-0.48-0.77C96.16,51.73,95.73,51.64,95.12,51.6z"/>
	<path d="M106.24,49.99c0.09,0.46,0.18,0.98,0.27,1.57c0.09,0.59,0.18,1.19,0.28,1.8c0.09,0.61,0.2,1.19,0.31,1.74
		c0.11,0.55,0.24,1.02,0.38,1.4c0.14-0.38,0.25-0.73,0.34-1.06s0.18-0.69,0.27-1.07c0.09-0.39,0.18-0.82,0.28-1.31
		c0.1-0.49,0.22-1.08,0.37-1.78c0.06-0.28,0.11-0.5,0.13-0.67c0.03-0.16,0.06-0.39,0.11-0.67c0.24,0.03,0.45,0.03,0.63,0.02
		c0.18-0.01,0.34-0.02,0.5-0.04s0.31-0.02,0.47-0.02s0.32,0.02,0.51,0.06c0.09,0.46,0.17,0.98,0.26,1.58
		c0.08,0.6,0.17,1.2,0.27,1.81c0.1,0.61,0.2,1.19,0.31,1.75c0.11,0.56,0.24,1.03,0.38,1.41c0.15-0.37,0.3-0.86,0.44-1.47
		c0.14-0.61,0.27-1.24,0.4-1.89c0.13-0.65,0.25-1.25,0.37-1.82s0.24-1,0.35-1.29c0.41,0,0.79-0.02,1.16-0.06
		c0.37-0.04,0.8-0.04,1.31,0c-0.27,0.72-0.5,1.47-0.69,2.25s-0.38,1.57-0.56,2.38s-0.35,1.62-0.53,2.44
		c-0.18,0.82-0.37,1.62-0.59,2.42c-0.25,0.04-0.52,0.06-0.81,0.07c-0.28,0.01-0.58,0.01-0.87,0c-0.3-0.01-0.59-0.01-0.87-0.02
		c-0.28-0.01-0.55-0.01-0.79-0.01c-0.11-0.68-0.23-1.41-0.35-2.18s-0.25-1.51-0.39-2.22c-0.15,0.7-0.27,1.43-0.35,2.19
		s-0.21,1.49-0.39,2.17c-0.25,0.04-0.54,0.06-0.84,0.07c-0.31,0.01-0.63,0.01-0.95,0c-0.32-0.01-0.64-0.01-0.95-0.02
		c-0.31-0.01-0.59-0.01-0.83-0.01c-0.25-1.58-0.54-3.2-0.87-4.84c-0.33-1.65-0.7-3.22-1.1-4.71c0.46,0.05,0.91,0.06,1.37,0.03
		c0.46-0.03,0.68-0.05,0.68-0.05S105.83,49.94,106.24,49.99z"/>
	<path d="M124.38,49.97c0.01,0.08,0.02,0.15,0.03,0.23c0.01,0.08,0.01,0.15,0.01,0.23v0.19c-0.04,1.37-0.03,2.71,0.02,4.04
		s0.03,2.66-0.06,4.02c0,0.16,0,0.33-0.01,0.49c-0.01,0.16-0.08,0.26-0.24,0.28h-0.23c-0.2,0-0.41-0.01-0.62-0.03
		c-0.21-0.02-0.42-0.03-0.62-0.03c-0.14,0-0.28,0.01-0.41,0.03c-0.13,0.02-0.27,0.03-0.41,0.03c-0.09-0.02-0.15-0.08-0.18-0.15
		c-0.03-0.08-0.05-0.17-0.05-0.27c0-0.14,0.01-0.25,0.04-0.34c0.03-0.09,0.04-0.2,0.04-0.32c-0.3,0.3-0.69,0.56-1.15,0.78
		c-0.46,0.22-0.92,0.32-1.36,0.32c-0.49,0-0.92-0.17-1.26-0.51c-0.35-0.34-0.64-0.77-0.87-1.27c-0.23-0.51-0.4-1.06-0.5-1.65
		c-0.11-0.59-0.16-1.15-0.16-1.65c0-0.63,0.08-1.22,0.25-1.75c0.17-0.53,0.39-0.99,0.67-1.38c0.29-0.39,0.62-0.69,1.02-0.91
		c0.39-0.22,0.81-0.34,1.25-0.35c0.23,0,0.44,0,0.64,0.01c0.2,0.01,0.38,0.04,0.54,0.09c0.17,0.06,0.31,0.15,0.44,0.27
		c0.13,0.12,0.23,0.29,0.32,0.5c-0.01-0.2,0-0.38,0.03-0.52c0.03-0.15,0.05-0.29,0.05-0.45c0-0.01,0.04-0.02,0.12-0.03
		c0.08-0.01,0.17-0.01,0.28,0c0.1,0.01,0.2,0.01,0.3,0.01s0.17,0,0.21,0c0.22,0.01,0.48,0.03,0.79,0.04
		C123.62,49.93,123.98,49.94,124.38,49.97z M118.85,53.75c-0.05,0.16-0.08,0.33-0.09,0.5s-0.02,0.34-0.02,0.5
		c0,0.57,0.15,1.05,0.45,1.45c0.3,0.4,0.71,0.6,1.24,0.6c0.32,0,0.55-0.05,0.71-0.16c0.16-0.11,0.27-0.26,0.34-0.46
		c0.07-0.2,0.11-0.44,0.11-0.72c0.01-0.28,0.01-0.6,0.01-0.96c0-0.44,0-0.79-0.01-1.05c-0.01-0.26-0.04-0.46-0.1-0.6
		c-0.06-0.14-0.15-0.23-0.28-0.27c-0.13-0.04-0.33-0.06-0.6-0.06c-0.52,0-0.93,0.12-1.23,0.37
		C119.1,53.15,118.92,53.43,118.85,53.75z"/>
	<path d="M129.17,46.44v2.55c0,0.17,0,0.34,0.01,0.51c0.01,0.18,0.01,0.36,0.01,0.55c0.39-0.01,0.81-0.03,1.25-0.06
		c0.44-0.02,0.98-0.06,1.62-0.09c0.09,0.1,0.14,0.25,0.15,0.45c0.01,0.2,0.01,0.41,0,0.64c-0.01,0.23-0.03,0.46-0.05,0.69
		c-0.02,0.23-0.02,0.43,0.01,0.6h-2.95c0,0.68,0,1.35,0,2s0.01,1.26,0.02,1.83c0.13,0.18,0.31,0.32,0.55,0.42
		c0.24,0.1,0.5,0.18,0.78,0.24c0.28,0.06,0.56,0.09,0.84,0.1c0.29,0.01,0.54,0.01,0.75,0c0.03,0.18,0.05,0.37,0.08,0.59
		c0.03,0.21,0.04,0.44,0.06,0.67c0.01,0.23,0.01,0.46-0.01,0.68c-0.02,0.23-0.06,0.44-0.12,0.63c-0.51,0.03-1.03,0.02-1.58-0.01
		s-1.06-0.1-1.54-0.22c-0.48-0.11-0.91-0.29-1.28-0.51c-0.37-0.23-0.64-0.54-0.81-0.93c-0.17-0.98-0.26-1.9-0.29-2.76
		c-0.03-0.87-0.03-1.76-0.02-2.69c-0.2,0.01-0.42,0.02-0.64,0.02s-0.47,0-0.73,0l0.06-2.32c0.25,0.01,0.49,0.02,0.71,0.02
		s0.43,0,0.64,0c0-0.28-0.01-0.58-0.02-0.9s-0.02-0.65-0.02-0.98c0-0.33,0-0.65,0.01-0.95c0.01-0.3,0.02-0.58,0.05-0.82
		c0.16-0.03,0.34-0.03,0.54-0.02c0.2,0.01,0.4,0.03,0.62,0.05c0.21,0.02,0.43,0.04,0.65,0.05
		C128.74,46.47,128.95,46.46,129.17,46.44z"/>
	<path d="M135.4,54.66V55c0.01,0.38,0.03,0.69,0.05,0.93c0.02,0.24,0.1,0.47,0.24,0.7c0.15,0.29,0.37,0.51,0.65,0.65
		c0.28,0.14,0.55,0.18,0.82,0.13c0.27-0.05,0.49-0.21,0.67-0.47s0.26-0.65,0.24-1.17c0.13,0.01,0.3,0.02,0.51,0.01
		c0.21-0.01,0.44-0.02,0.67-0.03s0.46-0.02,0.67-0.01c0.21,0.01,0.39,0.03,0.53,0.07c-0.03,0.33-0.05,0.65-0.08,0.97
		s-0.06,0.61-0.09,0.88c-0.04,0.27-0.09,0.51-0.14,0.7c-0.06,0.2-0.13,0.33-0.22,0.41c-0.22,0.3-0.49,0.52-0.84,0.65
		s-0.72,0.2-1.12,0.23s-0.82,0.03-1.24,0c-0.42-0.03-0.81-0.04-1.17-0.04c-0.35-0.05-0.68-0.17-0.99-0.34
		c-0.34-0.24-0.63-0.55-0.85-0.94c-0.23-0.39-0.41-0.81-0.55-1.27c-0.14-0.46-0.24-0.95-0.29-1.47c-0.05-0.52-0.06-1.04-0.04-1.56
		c0.04-0.47,0.08-0.92,0.12-1.36c0.04-0.44,0.14-0.86,0.29-1.28c0.16-0.37,0.42-0.68,0.76-0.94s0.73-0.46,1.16-0.59
		s0.89-0.21,1.37-0.22s0.95,0.04,1.41,0.15c0.58,0.1,1.05,0.3,1.41,0.61c0.35,0.3,0.62,0.67,0.81,1.1s0.29,0.91,0.33,1.42
		s0.04,1.04,0,1.58c-0.09,0.03-0.26,0.05-0.5,0.08s-0.54,0.05-0.87,0.08s-0.69,0.04-1.07,0.06s-0.74,0.02-1.09,0.02
		s-0.66-0.01-0.94-0.02S135.53,54.69,135.4,54.66z M137.7,51.72c-0.1-0.06-0.2-0.11-0.3-0.14s-0.22-0.05-0.36-0.05
		c-0.3,0-0.55,0.03-0.74,0.1c-0.19,0.06-0.34,0.15-0.46,0.27s-0.2,0.25-0.26,0.4c-0.06,0.15-0.1,0.31-0.12,0.47
		c-0.03,0.14-0.04,0.24-0.03,0.29c0.01,0.06,0.07,0.09,0.18,0.11c0.11,0.02,0.29,0.03,0.54,0.02c0.25-0.01,0.61-0.01,1.09-0.01
		c0.33,0,0.58,0.01,0.74,0.02c0.17,0.01,0.28,0.02,0.35,0.01c0.07-0.01,0.1-0.03,0.1-0.06s0-0.1,0-0.2c0-0.25-0.07-0.49-0.2-0.72
		C138.11,52,137.93,51.83,137.7,51.72z"/>
	<path d="M144.16,50.6c0.05-0.03,0.17-0.08,0.35-0.15s0.36-0.15,0.54-0.21c0.24-0.08,0.51-0.14,0.82-0.18
		c0.3-0.04,0.59-0.07,0.86-0.08c0.27-0.01,0.49-0.02,0.67-0.01c0.18,0.01,0.28,0.02,0.28,0.03c0,0.43,0,0.81-0.01,1.14
		c-0.01,0.33-0.01,0.62-0.01,0.88c0,0.26,0,0.5,0,0.71c0,0.22,0.01,0.42,0.02,0.61l-0.17-0.06c-0.06-0.03-0.13-0.05-0.2-0.07
		c-0.07-0.02-0.14-0.04-0.2-0.07c-0.15-0.04-0.31-0.07-0.47-0.09s-0.24-0.04-0.26-0.04c-0.34-0.04-0.66-0.06-0.94-0.06
		c-0.28,0-0.53,0.04-0.74,0.13s-0.37,0.23-0.48,0.42c-0.11,0.19-0.17,0.46-0.15,0.82c0.01,0.44,0.03,0.86,0.04,1.25
		c0.01,0.39,0.02,0.79,0.02,1.19c0,0.4,0,0.8,0.01,1.22c0.01,0.41,0.01,0.85,0.01,1.32v0.08c-0.22,0.06-0.41,0.1-0.59,0.11
		c-0.18,0.01-0.36,0.02-0.55,0.01c-0.19-0.01-0.4-0.02-0.62-0.03s-0.48-0.01-0.79,0.02c0-1.56-0.02-3.12-0.05-4.67
		c-0.03-1.56-0.02-3.17,0.03-4.84c0.15,0.01,0.28,0.02,0.38,0.03c0.1,0.01,0.2,0.01,0.29,0.01s0.18,0,0.29-0.01
		c0.1-0.01,0.23-0.02,0.38-0.03c0.05,0,0.14-0.01,0.28-0.02c0.13-0.01,0.27-0.02,0.42-0.04s0.27-0.02,0.38-0.01s0.16,0.02,0.16,0.05
		c0,0.1,0,0.18,0,0.23s0,0.09,0,0.12c0,0.03,0,0.07,0.01,0.1C144.16,50.44,144.16,50.51,144.16,50.6z"/>
	<path d="M154.59,46.07v0.21c0.01,0.25,0.02,0.45,0.03,0.58c0.01,0.13,0.01,0.25,0.02,0.36c0.01,0.11,0.01,0.22,0.02,0.34
		c0.01,0.12,0.01,0.29,0.01,0.51s0,0.52,0,0.88s-0.01,0.85-0.02,1.44c0.03-0.11,0.17-0.21,0.42-0.3c0.25-0.09,0.56-0.15,0.93-0.18
		c0.37-0.03,0.76-0.03,1.17,0c0.41,0.03,0.79,0.11,1.13,0.24c0.28,0.1,0.52,0.28,0.71,0.52c0.2,0.25,0.35,0.54,0.48,0.89
		c0.12,0.35,0.21,0.73,0.27,1.15c0.06,0.42,0.09,0.85,0.09,1.29c-0.03,0.63-0.07,1.26-0.13,1.88c-0.06,0.62-0.2,1.18-0.41,1.68
		c-0.21,0.5-0.52,0.91-0.94,1.24c-0.42,0.32-0.99,0.51-1.71,0.56c-0.35,0.05-0.69,0.02-1.01-0.09s-0.57-0.35-0.76-0.73
		c-0.04-0.08-0.07-0.1-0.1-0.07c-0.03,0.03-0.06,0.08-0.09,0.14c0,0.14,0,0.25-0.01,0.32c-0.01,0.08-0.01,0.18-0.01,0.3
		c0,0.06-0.01,0.11-0.02,0.13c-0.38,0.05-0.8,0.07-1.27,0.05c-0.47-0.02-0.9-0.03-1.29-0.03c-0.03-0.91-0.04-1.86-0.03-2.84
		c0.01-0.98,0.02-1.98,0.04-3c0.02-1.02,0.04-2.05,0.07-3.11c0.02-1.05,0.04-2.1,0.04-3.15v-1.25c0.2-0.04,0.44-0.06,0.72-0.07
		c0.28-0.01,0.54-0.01,0.79,0s0.46,0.02,0.63,0.04C154.5,46.05,154.59,46.06,154.59,46.07z M157.54,53.45
		c-0.06-0.44-0.25-0.78-0.56-1.01c-0.31-0.23-0.73-0.34-1.25-0.34c-0.27,0-0.48,0.02-0.64,0.07c-0.16,0.04-0.28,0.14-0.35,0.29
		c-0.08,0.15-0.12,0.37-0.14,0.66c-0.02,0.29-0.03,0.67-0.03,1.17c0,0.41,0.01,0.78,0.03,1.11c0.02,0.33,0.08,0.62,0.17,0.86
		c0.09,0.24,0.23,0.43,0.41,0.57c0.18,0.14,0.43,0.21,0.76,0.21c0.27,0,0.51-0.07,0.72-0.21c0.21-0.14,0.4-0.33,0.55-0.56
		c0.15-0.23,0.27-0.5,0.34-0.8c0.08-0.3,0.11-0.6,0.11-0.92c0-0.18-0.01-0.36-0.02-0.55C157.64,53.81,157.6,53.62,157.54,53.45z"/>
	<path d="M161.09,50.77c0.09-0.19,0.23-0.35,0.43-0.49c0.2-0.14,0.42-0.26,0.68-0.35c0.26-0.09,0.54-0.16,0.84-0.2
		s0.6-0.06,0.9-0.06c0.25,0.03,0.5,0.03,0.73,0.01c0.23-0.02,0.48-0.02,0.75,0.01c0.41,0.03,0.79,0.1,1.16,0.24
		c0.37,0.13,0.68,0.33,0.95,0.58c0.18,0.11,0.32,0.3,0.42,0.55c0.1,0.25,0.18,0.55,0.23,0.88c0.05,0.33,0.08,0.7,0.09,1.1
		s0.03,0.81,0.04,1.23c-0.01,0.37-0.03,0.79-0.05,1.25c-0.02,0.47-0.05,0.92-0.09,1.35c-0.04,0.43-0.1,0.82-0.17,1.16
		s-0.17,0.58-0.29,0.7c-0.21,0.3-0.5,0.52-0.84,0.65c-0.35,0.13-0.73,0.21-1.13,0.24c-0.41,0.03-0.82,0.03-1.25,0
		c-0.43-0.03-0.82-0.05-1.18-0.05c-0.65-0.11-1.19-0.39-1.63-0.84c-0.34-0.3-0.58-0.68-0.7-1.14c-0.13-0.46-0.2-0.93-0.23-1.43
		s-0.03-1-0.01-1.51c0.02-0.51,0.01-0.97-0.03-1.39c0-0.23,0.01-0.45,0.02-0.67c0.01-0.22,0.04-0.45,0.08-0.69
		c0.01-0.14,0.06-0.33,0.13-0.56C160.99,51.09,161.05,50.91,161.09,50.77z M163.46,53.01c-0.08,0.05-0.13,0.18-0.17,0.38
		c-0.05,0.41-0.08,0.81-0.08,1.21c0,0.4-0.01,0.82-0.04,1.26c-0.01,0.29,0.06,0.52,0.23,0.67c0.17,0.16,0.36,0.27,0.6,0.32
		c0.23,0.06,0.48,0.07,0.73,0.04c0.25-0.03,0.46-0.09,0.63-0.18c0.22-0.1,0.36-0.31,0.44-0.63c0.05-0.41,0.09-0.81,0.12-1.23
		c0.03-0.41,0.01-0.8-0.07-1.17c-0.06-0.44-0.25-0.77-0.55-0.97c-0.3-0.2-0.7-0.25-1.2-0.13C163.84,52.67,163.63,52.81,163.46,53.01
		z"/>
	<path d="M172.74,46.44v2.55c0,0.17,0,0.34,0.01,0.51c0.01,0.18,0.01,0.36,0.01,0.55c0.39-0.01,0.81-0.03,1.25-0.06
		c0.44-0.02,0.98-0.06,1.62-0.09c0.09,0.1,0.14,0.25,0.15,0.45c0.01,0.2,0.01,0.41,0,0.64c-0.01,0.23-0.03,0.46-0.05,0.69
		c-0.02,0.23-0.02,0.43,0.01,0.6h-2.95c0,0.68,0,1.35,0,2s0.01,1.26,0.02,1.83c0.13,0.18,0.31,0.32,0.55,0.42
		c0.24,0.1,0.5,0.18,0.78,0.24c0.28,0.06,0.56,0.09,0.84,0.1c0.29,0.01,0.54,0.01,0.75,0c0.03,0.18,0.05,0.37,0.08,0.59
		c0.03,0.21,0.04,0.44,0.06,0.67c0.01,0.23,0.01,0.46-0.01,0.68c-0.02,0.23-0.06,0.44-0.12,0.63c-0.51,0.03-1.03,0.02-1.58-0.01
		s-1.06-0.1-1.54-0.22c-0.48-0.11-0.91-0.29-1.28-0.51c-0.37-0.23-0.64-0.54-0.81-0.93c-0.17-0.98-0.26-1.9-0.29-2.76
		c-0.03-0.87-0.03-1.76-0.02-2.69c-0.2,0.01-0.42,0.02-0.64,0.02s-0.47,0-0.73,0l0.06-2.32c0.25,0.01,0.49,0.02,0.71,0.02
		s0.43,0,0.64,0c0-0.28-0.01-0.58-0.02-0.9s-0.02-0.65-0.02-0.98c0-0.33,0-0.65,0.01-0.95c0.01-0.3,0.02-0.58,0.05-0.82
		c0.16-0.03,0.34-0.03,0.54-0.02c0.2,0.01,0.4,0.03,0.62,0.05c0.21,0.02,0.43,0.04,0.65,0.05
		C172.31,46.47,172.52,46.46,172.74,46.44z"/>
	<path d="M180.09,46.44v2.55c0,0.17,0,0.34,0.01,0.51c0.01,0.18,0.01,0.36,0.01,0.55c0.39-0.01,0.81-0.03,1.24-0.06
		c0.44-0.02,0.98-0.06,1.62-0.09c0.09,0.1,0.14,0.25,0.15,0.45c0.01,0.2,0.01,0.41,0,0.64c-0.01,0.23-0.03,0.46-0.05,0.69
		c-0.02,0.23-0.02,0.43,0.01,0.6h-2.94c0,0.68,0,1.35,0,2s0.01,1.26,0.02,1.83c0.13,0.18,0.31,0.32,0.55,0.42
		c0.24,0.1,0.5,0.18,0.78,0.24c0.28,0.06,0.56,0.09,0.85,0.1c0.29,0.01,0.54,0.01,0.75,0c0.03,0.18,0.05,0.37,0.08,0.59
		c0.03,0.21,0.04,0.44,0.06,0.67c0.01,0.23,0.01,0.46-0.01,0.68c-0.02,0.23-0.06,0.44-0.12,0.63c-0.51,0.03-1.03,0.02-1.58-0.01
		c-0.54-0.03-1.06-0.1-1.54-0.22c-0.48-0.11-0.91-0.29-1.28-0.51c-0.37-0.23-0.64-0.54-0.81-0.93c-0.16-0.98-0.26-1.9-0.28-2.76
		c-0.03-0.87-0.03-1.76-0.02-2.69c-0.2,0.01-0.42,0.02-0.64,0.02s-0.46,0-0.73,0l0.06-2.32c0.25,0.01,0.49,0.02,0.71,0.02
		s0.43,0,0.64,0c0-0.28-0.01-0.58-0.02-0.9c-0.01-0.32-0.02-0.65-0.02-0.98c0-0.33,0-0.65,0.01-0.95c0.01-0.3,0.02-0.58,0.05-0.82
		c0.17-0.03,0.35-0.03,0.54-0.02c0.2,0.01,0.4,0.03,0.62,0.05c0.22,0.02,0.43,0.04,0.65,0.05
		C179.66,46.47,179.87,46.46,180.09,46.44z"/>
	<path d="M184.1,45.62l2.58,0.06c0,0.52-0.01,1.15-0.02,1.88s-0.03,1.52-0.04,2.36c-0.01,0.84-0.02,1.7-0.03,2.6
		c-0.01,0.9-0.01,1.77-0.01,2.6c0,0.84,0.01,1.62,0.02,2.35c0.01,0.73,0.03,1.35,0.06,1.85c-0.06,0.08-0.22,0.12-0.47,0.12
		c-0.25,0.01-0.53,0.01-0.83,0c-0.3-0.01-0.58-0.02-0.84-0.03c-0.27-0.01-0.44-0.01-0.53,0.02c0.09-1.14,0.12-2.29,0.1-3.44
		c-0.02-1.15-0.05-2.3-0.09-3.46c-0.04-1.15-0.06-2.3-0.07-3.46C183.93,47.92,183.98,46.77,184.1,45.62z"/>
	<path d="M190.24,54.66V55c0.01,0.38,0.03,0.69,0.05,0.93c0.02,0.24,0.1,0.47,0.24,0.7c0.15,0.29,0.37,0.51,0.65,0.65
		c0.28,0.14,0.55,0.18,0.82,0.13c0.27-0.05,0.49-0.21,0.67-0.47c0.18-0.26,0.26-0.65,0.24-1.17c0.13,0.01,0.3,0.02,0.51,0.01
		c0.21-0.01,0.44-0.02,0.67-0.03s0.46-0.02,0.67-0.01c0.22,0.01,0.39,0.03,0.53,0.07c-0.03,0.33-0.05,0.65-0.08,0.97
		s-0.06,0.61-0.09,0.88c-0.04,0.27-0.08,0.51-0.14,0.7c-0.06,0.2-0.13,0.33-0.22,0.41c-0.21,0.3-0.49,0.52-0.84,0.65
		c-0.34,0.13-0.72,0.2-1.12,0.23s-0.82,0.03-1.24,0c-0.42-0.03-0.81-0.04-1.17-0.04c-0.36-0.05-0.68-0.17-0.99-0.34
		c-0.34-0.24-0.63-0.55-0.86-0.94c-0.23-0.39-0.41-0.81-0.55-1.27c-0.14-0.46-0.23-0.95-0.29-1.47s-0.06-1.04-0.04-1.56
		c0.04-0.47,0.08-0.92,0.12-1.36c0.04-0.44,0.14-0.86,0.29-1.28c0.17-0.37,0.42-0.68,0.76-0.94c0.34-0.26,0.73-0.46,1.16-0.59
		s0.89-0.21,1.37-0.22s0.95,0.04,1.41,0.15c0.58,0.1,1.05,0.3,1.41,0.61c0.35,0.3,0.62,0.67,0.81,1.1c0.18,0.43,0.29,0.91,0.33,1.42
		s0.04,1.04,0,1.58c-0.09,0.03-0.26,0.05-0.5,0.08c-0.25,0.03-0.54,0.05-0.87,0.08c-0.34,0.03-0.69,0.04-1.07,0.06
		s-0.74,0.02-1.09,0.02c-0.35,0-0.66-0.01-0.94-0.02C190.56,54.71,190.36,54.69,190.24,54.66z M192.53,51.72
		c-0.1-0.06-0.2-0.11-0.3-0.14c-0.1-0.03-0.22-0.05-0.36-0.05c-0.3,0-0.55,0.03-0.74,0.1c-0.19,0.06-0.34,0.15-0.46,0.27
		c-0.11,0.11-0.2,0.25-0.26,0.4c-0.06,0.15-0.1,0.31-0.12,0.47c-0.03,0.14-0.04,0.24-0.03,0.29c0.01,0.06,0.07,0.09,0.18,0.11
		c0.11,0.02,0.29,0.03,0.54,0.02c0.25-0.01,0.61-0.01,1.09-0.01c0.33,0,0.58,0.01,0.74,0.02c0.16,0.01,0.28,0.02,0.35,0.01
		c0.07-0.01,0.1-0.03,0.1-0.06s0-0.1,0-0.2c0-0.25-0.07-0.49-0.2-0.72C192.94,52,192.76,51.83,192.53,51.72z"/>
	<path d="M199.2,55.59l0.04-0.61c0.09-0.53,0.23-1,0.42-1.42c0.19-0.41,0.49-0.87,0.89-1.38c0.38-0.44,0.68-0.84,0.9-1.2
		s0.37-0.72,0.45-1.1c0.03-0.15,0.04-0.27,0.04-0.34c0-0.52-0.2-0.93-0.61-1.24c-0.41-0.31-0.95-0.44-1.63-0.39
		c-0.53-0.01-0.93,0.13-1.19,0.43c-0.26,0.3-0.49,0.71-0.69,1.25c-0.08,0.2-0.13,0.34-0.17,0.42l-0.38,0.02
		c-0.18,0-0.44-0.01-0.8-0.04l-0.46-0.02v-0.02c0.04-0.65,0.22-1.27,0.54-1.86c0.32-0.6,0.76-1.09,1.32-1.47
		c0.56-0.39,1.18-0.59,1.88-0.62c0.09-0.01,0.21-0.02,0.38-0.02c0.68,0,1.31,0.15,1.88,0.44c0.57,0.29,1.03,0.69,1.37,1.2
		c0.34,0.51,0.51,1.08,0.51,1.71c0,0.62-0.12,1.14-0.35,1.56s-0.59,0.89-1.05,1.41c-0.3,0.33-0.52,0.58-0.65,0.76
		c-0.28,0.38-0.49,0.74-0.65,1.08c-0.15,0.34-0.26,0.73-0.32,1.16c-0.01,0.09-0.03,0.18-0.04,0.28c-0.01,0.09-0.02,0.19-0.02,0.29
		c0,0.08,0.01,0.13,0.02,0.15v0.02c-0.15,0.03-0.39,0.04-0.7,0.04c-0.1,0-0.22,0-0.37-0.01c-0.15-0.01-0.31,0-0.5,0.01h-0.02
		c-0.03-0.05-0.04-0.15-0.04-0.29V55.59z M200.63,59.43h-1.37h-0.06c-0.04-0.23-0.06-0.52-0.06-0.87l0.02-0.93
		c0.01-0.11,0.02-0.25,0.02-0.4c0.22-0.09,0.51-0.13,0.89-0.13c0.27,0,0.5,0.03,0.7,0.08c0,0.06-0.02,0.41-0.06,1.03
		c-0.04,0.62-0.06,1.02-0.06,1.2v0.04H200.63z"/>
</g>
</svg>
