<!-- Generator: Adobe Illustrator 23.1.1, SVG Export Plug-In  -->
<svg version="1.1" xmlns="http://www.w3.org/2000/svg" xmlns:xlink="http://www.w3.org/1999/xlink" x="0px" y="0px"
	 width="386.31px" height="39.92px" viewBox="0 0 386.31 39.92" style="enable-background:new 0 0 386.31 39.92;"
	 xml:space="preserve">
<defs>
</defs>
<g>
	<path d="M23.44,1.62v0.05c-1.04,3.35-2.28,6.69-3.7,10.02c-1.42,3.33-3.18,7.21-5.27,11.64c-1.73,3.71-3.1,6.67-4.1,8.88
		c-1.01,2.21-1.94,4.49-2.81,6.83c-0.11-0.04-0.31-0.05-0.59-0.05c-0.32,0-0.59,0.02-0.81,0.05c-0.61,0-1.08,0.02-1.4,0.05
		c-0.22,0-0.49,0.01-0.81,0.03c-0.32,0.02-0.67,0.01-1.03-0.03H2.27H2.16c1.19-3.2,3.29-8.59,6.32-16.15l0.49-1.24
		c-0.47-1.15-1.19-2.59-2.16-4.32c-0.32-0.83-0.77-1.82-1.32-2.97c-0.56-1.15-0.95-1.93-1.16-2.32C3.2,9.86,2.3,7.94,1.62,6.32
		C0.94,4.7,0.4,3.15,0,1.67c0.47,0,1.13-0.04,2-0.11c0.5-0.07,0.88-0.11,1.13-0.11c0.68,0,1.24,0.09,1.67,0.27
		c1.04,2.74,2.23,5.49,3.56,8.26c1.33,2.77,2.57,5.09,3.73,6.97c1.48-3.1,3.17-7.16,5.08-12.2l1.13-2.97
		c0.83-0.14,1.93-0.22,3.29-0.22C22.1,1.53,22.72,1.55,23.44,1.62z"/>
	<path d="M20.47,21.49c0-1.33,0.06-2.48,0.19-3.46c0.13-0.97,0.44-2.18,0.95-3.62c0.47-1.04,1.47-1.83,3-2.35
		c1.53-0.52,3.23-0.78,5.1-0.78c0.25,0.04,0.61,0.05,1.08,0.05l2.16-0.05c3.02,0,5.35,0.79,6.97,2.38c0.65,0.43,1.14,1.24,1.49,2.43
		c0.34,1.19,0.55,2.78,0.62,4.78c0.07,2,0.11,3.16,0.11,3.48c-0.14,3.6-0.32,6.46-0.51,8.59c-0.2,2.12-0.6,3.49-1.21,4.1
		c-0.68,0.97-1.63,1.64-2.83,2c-1.21,0.36-2.64,0.54-4.29,0.54c-0.65,0-1.62-0.04-2.92-0.11l-2.48-0.05
		c-2.12-0.36-3.72-1.13-4.78-2.32c-1.06-1.19-1.75-2.57-2.05-4.16c-0.31-1.58-0.46-3.49-0.46-5.72v-2.81
		C20.57,23.08,20.54,22.1,20.47,21.49z M31.48,16.36c-2.45,0-4.21,0.63-5.29,1.89c-0.47,0.58-0.77,1.31-0.89,2.19
		c-0.13,0.88-0.17,2.02-0.13,3.43c-0.04,0.54-0.03,1.26,0.03,2.16c0.05,0.9,0.08,1.6,0.08,2.11l0.11,2.27
		c0.11,1.44,0.51,2.46,1.21,3.05c0.7,0.59,1.59,1,2.67,1.21c0.72,0.11,1.46,0.16,2.21,0.16c1.4,0,2.63-0.25,3.67-0.76
		c1.04-0.5,1.71-1.33,2-2.48c0.14-0.94,0.22-1.67,0.22-2.21c0.18-2.52,0.27-4.23,0.27-5.13c0-2.38-0.43-4.28-1.3-5.72
		C35.48,17.08,33.86,16.36,31.48,16.36z"/>
	<path d="M60.97,39.04c-0.04-0.68-0.05-1.25-0.05-1.7c0-0.45-0.02-0.84-0.05-1.16c-0.07,0.04-0.36,0.23-0.86,0.59
		c-0.5,0.36-1.31,0.67-2.43,0.92c-2.09,0.76-4.12,1.13-6.1,1.13c-2.23,0-3.91-0.54-5.02-1.62c-0.61-0.54-0.99-1.45-1.13-2.73
		c-0.14-1.28-0.23-3.32-0.27-6.13v-1.67c0-1.12,0.04-2.75,0.11-4.91c0.11-2.16,0.16-4.21,0.16-6.16c0-0.94-0.04-2.09-0.11-3.46
		c0.65-0.07,1.53-0.11,2.65-0.11h1.78c0.11,1.08,0.16,2.36,0.16,3.83l-0.05,4.37c0,1.44,0.02,2.48,0.05,3.13l0.05,1.51
		c0,1.3,0.05,2.81,0.16,4.54c0.07,1.19,0.31,2.09,0.73,2.7c0.41,0.61,1.03,1.03,1.86,1.24c0.72,0.11,1.39,0.16,2,0.16
		c2.12,0,3.75-0.58,4.89-1.73c1.13-1.15,1.72-2.72,1.75-4.7c0.04-1.3-0.02-3.65-0.16-7.07c-0.07-1.73-0.11-2.86-0.11-3.4
		c0-0.97,0.04-2.36,0.11-4.16v-0.22c0.58-0.14,1.12-0.23,1.65-0.27c0.52-0.04,0.84-0.05,0.95-0.05c0.76,0,1.4-0.02,1.94-0.05
		l0.05,9.29c0.07,4.25,0.11,7.43,0.11,9.56c0,1.73-0.04,4.46-0.11,8.21c-0.79,0-1.67,0.05-2.65,0.16c-0.18,0-0.4,0.02-0.67,0.05
		c-0.27,0.04-0.55,0.05-0.84,0.05C61.15,39.2,60.97,39.15,60.97,39.04z"/>
	<path d="M85.27,10.1v4.81c0.97-0.83,1.83-1.45,2.56-1.86c0.74-0.41,1.83-0.67,3.27-0.78c0.86-0.11,1.67-0.16,2.43-0.16
		c2.63,0,4.68,0.63,6.16,1.89c0.47,0.4,0.79,1.33,0.97,2.81c0.18,1.48,0.27,3.42,0.27,5.83c0,1.37-0.04,3.53-0.11,6.48
		c-0.07,2.88-0.11,4.93-0.11,6.16c0,1.01,0.04,2.23,0.11,3.67c-1.44,0.22-2.99,0.29-4.64,0.22c-0.07-1.08-0.11-2.02-0.11-2.81V33.1
		V22.52c-0.07-2.3-0.61-3.8-1.62-4.48c-0.22-0.14-0.65-0.29-1.3-0.43c-0.76-0.22-1.53-0.32-2.32-0.32c-1.4,0-2.6,0.35-3.59,1.05
		c-0.99,0.7-1.63,1.79-1.92,3.27c-0.25,1.37-0.38,3.01-0.38,4.91L85,28.35c0.07,2.38,0.11,4.34,0.11,5.89
		c0,1.94-0.04,3.44-0.11,4.48v0.22c-0.72,0.18-1.3,0.27-1.73,0.27l-1.62-0.05c-0.5,0-0.92,0.02-1.24,0.05
		c0-4.14-0.02-7.56-0.05-10.26L80.3,12.42c0-4.03,0.04-8.17,0.11-12.42c1.12,0.11,2.02,0.14,2.7,0.11c0.18,0,0.4-0.02,0.67-0.05
		C84.05,0.02,84.33,0,84.62,0c0.36,0,0.54,0.05,0.54,0.16c0.07,0.32,0.11,2.52,0.11,6.59V10.1z"/>
	<path d="M121.77,11.93c0.83-0.04,1.89,0,3.19,0.11l1.4,0.11c0.07,0.58,0.11,1.01,0.11,1.3v0.54c-0.04,0.83-0.05,2.07-0.05,3.73
		c0,1.37,0.04,3.38,0.11,6.05l0.05,6.05c0,2.59-0.07,4.95-0.22,7.07c0,0.11,0,0.34,0,0.7c0,0.36-0.04,0.68-0.11,0.97
		c-0.07,0.29-0.27,0.47-0.59,0.54h-0.92l-1.73-0.05c-0.29,0-0.54,0.02-0.76,0.05c-0.22,0.04-0.41,0.05-0.59,0.05
		c-0.36-0.11-0.54-0.5-0.54-1.19c-0.04-0.29-0.03-0.61,0.03-0.97c0.05-0.36,0.08-0.67,0.08-0.92c-0.86,1.19-2.23,2-4.1,2.43
		c-1.87,0.43-3.71,0.65-5.51,0.65c-1.73,0-3.2-0.76-4.4-2.29c-1.21-1.53-2.1-3.41-2.67-5.64c-0.58-2.23-0.86-4.41-0.86-6.53
		c0-2.34,0.4-4.45,1.19-6.32c0.79-1.87,1.88-3.36,3.27-4.46c1.39-1.1,2.92-1.66,4.62-1.7l1.73-0.05c1.62,0,2.96,0.19,4.02,0.57
		c1.06,0.38,1.84,1.07,2.35,2.08c0-0.32,0.04-0.74,0.11-1.24c0.07-0.72,0.11-1.22,0.11-1.51C121.07,11.97,121.3,11.93,121.77,11.93z
		 M115.72,16.79c-1.87-0.04-3.45,0.44-4.73,1.43c-1.28,0.99-2.06,2.17-2.35,3.54c-0.29,1.04-0.43,2.45-0.43,4.21
		c0.18,5.8,2.52,8.57,7.02,8.32c1.84,0,3.17-0.32,4-0.97c0.83-0.65,1.34-1.57,1.54-2.75c0.2-1.19,0.3-2.97,0.3-5.35
		c0-2.59-0.11-4.42-0.32-5.48c-0.22-1.06-0.67-1.79-1.38-2.19C118.67,17.15,117.45,16.9,115.72,16.79z"/>
	<path d="M128.95,12.04c0.54,0.07,1.3,0.11,2.27,0.11c0.32,0,0.71-0.01,1.16-0.03c0.45-0.02,0.94-0.01,1.48,0.03
		c0.58,2.02,1.64,5.85,3.19,11.5c0.76,2.84,1.31,4.9,1.67,6.16c0.36,1.26,0.79,2.48,1.3,3.67c0.32-0.79,0.72-2,1.19-3.62
		c0.47-1.62,0.77-2.68,0.92-3.19c1.76-6.01,3.28-10.82,4.54-14.42c0.32,0,0.85-0.04,1.57-0.11c1.3-0.07,2.38-0.09,3.24-0.05
		c-0.72,1.91-1.39,3.88-2,5.91c-0.61,2.03-1.19,4.04-1.73,6.02c-1.73,5.98-3.28,10.96-4.64,14.96c-0.58,0.11-1.49,0.16-2.75,0.16
		l-3.89-0.05c-1.58-5.04-2.75-8.86-3.48-11.48c-0.74-2.61-1.49-5.48-2.24-8.61L128.95,12.04z"/>
	<path d="M156.76,25.38v0.97l-0.05,1.57c0,4.46,2.2,6.7,6.59,6.7c1.76,0,3.07-0.4,3.92-1.21c0.85-0.81,1.27-1.92,1.27-3.32
		c0-0.22-0.04-0.61-0.11-1.19c0.76-0.11,1.46-0.16,2.11-0.16c0.58,0,1.01,0.02,1.3,0.05c0.22,0,0.48,0.01,0.78,0.03
		c0.31,0.02,0.66,0.01,1.05-0.03c0.04,2.05-0.04,3.69-0.22,4.91c-0.18,1.22-0.61,2.39-1.3,3.51c-0.65,0.97-1.77,1.67-3.38,2.08
		c-1.6,0.41-3.36,0.62-5.26,0.62c-0.86,0-1.67-0.04-2.4-0.11c-0.74-0.07-1.2-0.14-1.38-0.22c-2.81-0.47-4.84-2.24-6.1-5.32
		c-1.26-3.08-1.8-6.6-1.62-10.56c0.04-0.29,0.09-0.89,0.16-1.81c0.07-0.92,0.17-1.86,0.3-2.83c0.13-0.97,0.37-1.93,0.73-2.86
		c0.68-1.58,1.93-2.81,3.73-3.67c1.8-0.86,3.8-1.3,5.99-1.3c1.15,0,2.36,0.14,3.62,0.43c4.9,0.83,7.34,4.52,7.34,11.07
		c0,0.54-0.04,1.31-0.11,2.32c-0.68,0.22-2.7,0.4-6.05,0.54c-0.4,0.04-1.26,0.05-2.59,0.05c-2.84,0-4.95-0.04-6.32-0.11
		C157.86,25.54,157.19,25.49,156.76,25.38z M169.88,21.33c-0.04-1.12-0.32-2.21-0.84-3.29c-0.52-1.08-1.27-1.93-2.24-2.54
		c-0.54-0.25-1.01-0.41-1.4-0.49c-0.4-0.07-0.9-0.11-1.51-0.11c-2.34,0-4.01,0.49-4.99,1.46c-0.99,0.97-1.61,2.36-1.86,4.16
		c-0.07,0.43-0.11,0.72-0.11,0.86c0,0.43,0.21,0.72,0.62,0.86c0.41,0.14,1.3,0.22,2.67,0.22c1.33,0,2.47-0.02,3.4-0.05
		c3.46,0,5.4-0.02,5.83-0.05c0.18-0.04,0.3-0.08,0.35-0.13c0.05-0.05,0.08-0.15,0.08-0.3V21.33z"/>
	<path d="M206.39,21.55l0.32-0.05c0.58-0.04,1.21-0.03,1.89,0.03c0.68,0.05,1.15,0.08,1.4,0.08l-0.32,5.51
		c-0.43,0.11-0.92,0.16-1.46,0.16c-0.18,0-0.42-0.01-0.73-0.03c-0.31-0.02-0.68-0.01-1.11,0.03l-0.11,0.97
		c-0.14,2.99-0.22,4.63-0.22,4.91c-0.07,1.04-0.13,2.12-0.16,3.24c-0.04,1.12-0.09,1.93-0.16,2.43c-0.14,0.18-0.61,0.29-1.4,0.32
		c-0.79,0.04-2.23,0.05-4.32,0.05l-0.05-0.54c0-0.29,0.07-1.44,0.22-3.46l0.32-5.67l0.11-2.65c-0.36-0.07-0.92-0.11-1.67-0.11h-2.05
		c-2.63,0-4.46,0.02-5.51,0.05c-3.06,0-4.63-0.05-4.7-0.16c-0.18-1.01-0.27-2.14-0.27-3.4c0-0.83,0.02-1.46,0.05-1.89
		c1.51-2.02,3.07-4.23,4.67-6.64c1.6-2.41,2.6-3.91,3-4.48c1.66-2.56,3.69-5.6,6.1-9.13c0.58-0.04,1.55-0.07,2.92-0.11
		c1.37-0.04,2.43-0.04,3.19,0h0.32h0.11c0,0.22-0.06,2.06-0.19,5.54c-0.13,3.47-0.21,6.92-0.24,10.34v3.29
		C206.33,20.95,206.35,21.4,206.39,21.55z M201.53,21.55c0.14-6.41,0.27-11.21,0.38-14.42c-0.04-0.14-0.24,0.03-0.62,0.51
		c-0.38,0.49-0.89,1.2-1.54,2.13c-2.12,3.1-3.98,5.72-5.56,7.88c-1.66,2.38-2.54,3.67-2.65,3.89c-0.07,0.04,0.45,0.05,1.57,0.05
		l1.94,0.05h3.67l1.4-0.05C200.91,21.6,201.38,21.58,201.53,21.55z"/>
	<path d="M212.73,37.8c0.27-0.76,0.44-1.26,0.51-1.51l1.03-2.86c0.54-1.51,0.97-2.66,1.3-3.46c0.29-0.9,0.81-2.32,1.57-4.27
		c1.91-5.15,3.82-10.6,5.72-16.36c1.19-3.38,2.09-6.25,2.7-8.59c0.43,0.07,1.13,0.11,2.11,0.11c0.5,0,1,0.02,1.49,0.05
		c0.49,0.04,0.87,0.13,1.16,0.27c-0.07,0.18-0.13,0.34-0.16,0.49c-0.04,0.14-0.09,0.31-0.16,0.49c-0.36,1.48-1.65,5.59-3.86,12.34
		c-2.21,6.75-4.17,12.21-5.86,16.39l-3.02,7.78c-0.04,0.18-0.18,0.29-0.43,0.32c-0.25,0.04-0.83,0.05-1.73,0.05
		c-1.01,0-1.89,0.02-2.65,0.05C212.36,38.99,212.46,38.56,212.73,37.8z"/>
	<path d="M252.23,19.93c1.76,0.54,3.07,1.41,3.92,2.62c0.85,1.21,1.41,2.83,1.7,4.89c0,0.29,0.02,0.5,0.05,0.65
		c0.04,0.29,0.05,0.68,0.05,1.19c0,3.28-1.24,5.75-3.73,7.42c-2.48,1.67-5.56,2.51-9.23,2.51c-1.08,0-1.89-0.04-2.43-0.11
		c-3.38-0.58-5.71-2.52-6.99-5.83c-1.28-3.31-1.92-7.52-1.92-12.64c0-1.94,0.11-4.61,0.32-7.99c0.07-0.86,0.11-1.48,0.11-1.84
		c0.04-0.68,0.1-1.33,0.19-1.94c0.09-0.61,0.22-1.08,0.41-1.4c0.94-2.09,2.66-3.72,5.18-4.89c2.52-1.17,5.17-1.75,7.94-1.75
		c1.84,0,3.46,0.44,4.86,1.32c1.4,0.88,2.49,2.05,3.27,3.51c0.77,1.46,1.16,3.02,1.16,4.67c0,0.83-0.11,1.67-0.32,2.54
		c-0.61,0.14-1.58,0.22-2.92,0.22h-1.94l-0.11-0.05c0-0.22-0.01-0.67-0.03-1.35c-0.02-0.68-0.13-1.46-0.32-2.32
		c-0.2-0.86-0.66-1.62-1.38-2.27c-0.32-0.29-0.85-0.47-1.57-0.54c-0.72-0.07-1.64-0.11-2.75-0.11c-2.48,0.18-4.13,1.07-4.94,2.67
		c-0.81,1.6-1.21,3.54-1.21,5.8l0.05,2.11c-0.04,1.15-0.02,2.5,0.05,4.05c0.04,0.61,0.05,1.44,0.05,2.48v0.05
		c0.68-1.15,1.93-2.11,3.73-2.89c1.8-0.77,3.71-1.16,5.72-1.16C250.32,19.55,251.33,19.67,252.23,19.93z M253.37,28.03v-0.27
		c0-1.15-0.5-2.11-1.49-2.89c-0.99-0.77-2.08-1.16-3.27-1.16c-1.8,0-3.36,0.49-4.67,1.46s-2.04,2.27-2.19,3.89
		c-0.11,0.83,0.05,1.64,0.49,2.43c0.43,0.79,1.05,1.42,1.86,1.89c0.81,0.47,1.72,0.68,2.73,0.65c2.34-0.11,4.01-0.73,5.02-1.86
		C252.86,31.02,253.37,29.65,253.37,28.03z"/>
	<path d="M273.29,11.77c0.25-0.04,0.76-0.04,1.51,0c1.08,0.07,2.27,0.11,3.56,0.11v0.16c0,1.62-0.04,4.12-0.11,7.51
		c-0.11,3.46-0.16,6.95-0.16,10.48c0,3.31,0.07,6.26,0.22,8.86c-0.5,0.11-1.26,0.16-2.27,0.16c-1.01,0-1.62,0-1.84,0
		c-0.65,0-1.04,0.02-1.19,0.05c0.04-1.04,0.05-2.63,0.05-4.75v-4.86v-4.54c-0.07-2.52-0.11-4.46-0.11-5.83
		c0-2.48,0.11-4.91,0.32-7.29V11.77z M273.07,0.16c2.23,0.07,3.92,0.11,5.08,0.11l0.16,7.13c-0.36,0.18-1.01,0.27-1.94,0.27
		c-0.58,0-1.01-0.02-1.3-0.05c-0.22,0-0.47-0.01-0.76-0.03c-0.29-0.02-0.63-0.01-1.03,0.03c0-0.54-0.04-1.42-0.11-2.65
		C273.07,2.59,273.04,0.99,273.07,0.16z"/>
	<path d="M292.24,2.05v8.26l0.05,3.02c2.34-0.07,5.24-0.2,8.69-0.38c0.22,0.29,0.32,0.83,0.32,1.62l-0.05,1.24
		c-0.07,0.79-0.09,1.37-0.05,1.73c-3.92,0-6.86-0.02-8.8-0.05v8.26v1.84c0,1.62,0.04,2.77,0.11,3.46c0.07,0.68,0.22,1.28,0.43,1.78
		c0.58,0.72,1.74,1.17,3.48,1.35c1.75,0.18,3.34,0.23,4.78,0.16c0.18,1.44,0.27,2.36,0.27,2.75c0,0.65-0.09,1.3-0.27,1.94
		c-0.76,0.04-1.94,0.05-3.56,0.05c-2.81,0-5-0.34-6.59-1.03c-1.58-0.68-2.59-2.05-3.02-4.1c-0.4-3.49-0.59-8.05-0.59-13.66v-2.59
		c-0.22,0.04-0.76,0.05-1.62,0.05l-4.1-0.05l0.16-4.43c0.79,0.07,2.68,0.11,5.67,0.11l-0.05-5.67V5.18c0-1.51,0.04-2.57,0.11-3.19
		c0.5-0.04,1.28-0.02,2.32,0.05l1.46,0.05C291.78,2.11,292.06,2.09,292.24,2.05z"/>
	<path d="M307.9,25.38v0.97l-0.05,1.57c0,4.46,2.2,6.7,6.59,6.7c1.76,0,3.07-0.4,3.92-1.21s1.27-1.92,1.27-3.32
		c0-0.22-0.04-0.61-0.11-1.19c0.76-0.11,1.46-0.16,2.11-0.16c0.58,0,1.01,0.02,1.3,0.05c0.22,0,0.48,0.01,0.78,0.03
		c0.3,0.02,0.66,0.01,1.05-0.03c0.04,2.05-0.04,3.69-0.22,4.91c-0.18,1.22-0.61,2.39-1.3,3.51c-0.65,0.97-1.77,1.67-3.38,2.08
		c-1.6,0.41-3.36,0.62-5.27,0.62c-0.86,0-1.67-0.04-2.4-0.11c-0.74-0.07-1.2-0.14-1.38-0.22c-2.81-0.47-4.84-2.24-6.1-5.32
		c-1.26-3.08-1.8-6.6-1.62-10.56c0.04-0.29,0.09-0.89,0.16-1.81s0.17-1.86,0.3-2.83s0.37-1.93,0.73-2.86
		c0.68-1.58,1.92-2.81,3.73-3.67c1.8-0.86,3.8-1.3,5.99-1.3c1.15,0,2.36,0.14,3.62,0.43c4.9,0.83,7.34,4.52,7.34,11.07
		c0,0.54-0.04,1.31-0.11,2.32c-0.68,0.22-2.7,0.4-6.05,0.54c-0.4,0.04-1.26,0.05-2.59,0.05c-2.84,0-4.95-0.04-6.32-0.11
		C309,25.54,308.34,25.49,307.9,25.38z M321.02,21.33c-0.04-1.12-0.32-2.21-0.84-3.29s-1.27-1.93-2.24-2.54
		c-0.54-0.25-1.01-0.41-1.4-0.49c-0.4-0.07-0.9-0.11-1.51-0.11c-2.34,0-4.01,0.49-5,1.46c-0.99,0.97-1.61,2.36-1.86,4.16
		c-0.07,0.43-0.11,0.72-0.11,0.86c0,0.43,0.21,0.72,0.62,0.86c0.41,0.14,1.3,0.22,2.67,0.22c1.33,0,2.46-0.02,3.4-0.05
		c3.46,0,5.4-0.02,5.83-0.05c0.18-0.04,0.3-0.08,0.35-0.13c0.05-0.05,0.08-0.15,0.08-0.3V21.33z"/>
	<path d="M332.8,12.26c0.07,0.4,0.11,0.9,0.11,1.51v1.35c1.33-1.33,2.92-2.14,4.75-2.43c1.26-0.25,2.32-0.38,3.19-0.38
		c1.55,0,2.83,0.31,3.83,0.92c0.79,0.36,1.31,0.86,1.57,1.51c0.25-0.14,0.62-0.41,1.11-0.78s1.15-0.74,2-1.08
		c0.85-0.34,2.02-0.53,3.54-0.57c1.8-0.07,3.21,0.01,4.24,0.24c1.03,0.23,1.95,0.71,2.78,1.43c0.47,0.4,0.79,1.33,0.97,2.81
		c0.18,1.48,0.27,3.42,0.27,5.83c0,1.37-0.04,3.53-0.11,6.48c-0.07,2.88-0.11,4.93-0.11,6.16c0,1.01,0.04,2.23,0.11,3.67
		c-1.3,0.22-2.83,0.29-4.59,0.22c-0.07-0.97-0.11-2.75-0.11-5.35c0.07-2.81,0.11-4.97,0.11-6.48v-2.27
		c-0.04-0.29-0.07-0.81-0.11-1.57c-0.04-0.76-0.11-1.58-0.22-2.48c-0.11-0.9-0.32-1.58-0.65-2.05c-0.22-0.72-0.92-1.13-2.11-1.24
		c-0.36-0.07-0.88-0.11-1.57-0.11c-1.04,0-1.94,0.17-2.7,0.51c-0.76,0.34-1.3,0.87-1.62,1.59c-0.07,0.79-0.11,1.42-0.11,1.89
		l0.05,1.51v2c0,1.22-0.04,3.1-0.11,5.62l-0.05,5.4c0,1.33,0.02,2.29,0.05,2.86c-0.76,0.11-1.78,0.16-3.08,0.16h-1.67
		c-0.07-0.72-0.11-2-0.11-3.83v-2.86l0.05-4c0-2.48-0.07-4.68-0.22-6.59c0-1.51-0.25-2.55-0.76-3.1c-0.5-0.56-1.44-0.84-2.81-0.84
		c-3.82,0-5.87,2.14-6.16,6.43c-0.04,0.54-0.05,1.33-0.05,2.38c0,1.15,0.04,2.77,0.11,4.86l0.05,2.65c0,1.48-0.05,3.01-0.16,4.59
		v0.22c-0.54,0.11-1.04,0.16-1.51,0.16l-1.78-0.05c-0.54,0-0.97,0.02-1.3,0.05l-0.05-9.29c-0.07-4.25-0.11-7.43-0.11-9.56
		c0-1.73,0.04-4.46,0.11-8.21c0.94,0.07,1.49,0.11,1.67,0.11l1.19-0.05c0.18,0,0.41-0.02,0.7-0.05c0.29-0.04,0.58-0.05,0.86-0.05
		C332.64,12.1,332.8,12.15,332.8,12.26z"/>
	<path d="M386.31,19.06c0,0.18-0.63,0.27-1.89,0.27c-0.94,0-1.62-0.02-2.05-0.05c-0.29,0-0.58-0.01-0.86-0.03
		c-0.29-0.02-0.52-0.01-0.7,0.03c0-0.04,0-0.66,0-1.86c0-1.21-1.04-1.93-3.13-2.19c-0.47-0.07-1.17-0.11-2.11-0.11
		c-1.01,0-1.92,0.07-2.73,0.22c-0.81,0.14-1.41,0.34-1.81,0.59c-0.47,0.36-0.83,0.88-1.08,1.57c-0.25,0.68-0.38,1.35-0.38,2
		c0,0.5,0.07,0.85,0.22,1.03c0.4,0.83,0.92,1.4,1.57,1.73c0.36,0.25,1.24,0.56,2.65,0.92c1.4,0.36,2.61,0.56,3.62,0.59
		c1.48,0.04,2.78,0.26,3.92,0.68c1.13,0.41,2.02,0.98,2.67,1.7c0.65,0.79,1.12,1.58,1.43,2.35c0.31,0.77,0.46,1.61,0.46,2.51
		c0,1.12-0.27,2.47-0.81,4.05c-0.79,1.69-2.05,2.93-3.78,3.73c-1.73,0.79-3.69,1.17-5.89,1.13c-2.41,0.07-4.54-0.24-6.37-0.94
		s-3.26-1.75-4.27-3.16c-1.01-1.4-1.51-3.06-1.51-4.97v-0.27c0.65-0.07,1.6-0.11,2.86-0.11c1.4,0,2.16,0.05,2.27,0.16
		c0.07,0.07,0.22,0.48,0.46,1.21c0.23,0.74,0.66,1.48,1.27,2.24c0.61,0.76,1.66,1.19,3.13,1.3c1.15,0.07,1.84,0.11,2.05,0.11
		c0.58,0,1.05-0.05,1.43-0.16s0.87-0.31,1.48-0.59c1.84-0.83,2.74-2.03,2.7-3.62c0.04-1.04-0.24-1.85-0.84-2.43
		c-0.59-0.58-1.34-0.96-2.24-1.16c-0.9-0.2-2.12-0.39-3.67-0.57c-1.12-0.11-2.02-0.22-2.7-0.32s-1.3-0.29-1.84-0.54
		c-1.87-0.61-3.3-1.57-4.29-2.89c-0.99-1.31-1.48-2.74-1.48-4.29c0-1.69,0.49-3.23,1.48-4.62c0.99-1.39,2.35-2.3,4.08-2.73
		c1.48-0.4,3.37-0.59,5.67-0.59c0.54,0,1.35,0.04,2.43,0.11c1.55,0.11,2.99,0.38,4.32,0.81c1.26,0.54,2.29,1.47,3.08,2.78
		C385.91,15.98,386.31,17.44,386.31,19.06z"/>
</g>
</svg>
