<!-- Generator: Adobe Illustrator 23.1.1, SVG Export Plug-In  -->
<svg version="1.1" xmlns="http://www.w3.org/2000/svg" xmlns:xlink="http://www.w3.org/1999/xlink" x="0px" y="0px"
	 width="193.17px" height="62.66px" viewBox="0 0 193.17 62.66" style="enable-background:new 0 0 193.17 62.66;"
	 xml:space="preserve">
<defs>
</defs>
<g>
	<path d="M7.94,7.64L7.88,13.7c-0.28-0.04-0.58-0.06-0.89-0.06l-0.82,0.02c-0.05-1.05-0.08-2.02-0.09-2.9
		C6.07,9.88,6.06,9.34,6.06,9.14c0-1.81-0.01-3.5-0.04-5.07C5.95,4.18,5.86,4.34,5.76,4.56L5.05,6.1C4.96,6.28,4.69,6.88,4.24,7.92
		C4.16,8.11,4.1,8.25,4.05,8.35C4,8.45,3.95,8.49,3.91,8.49C3.8,8.42,3.64,8.17,3.43,7.75s-0.5-1.04-0.86-1.86
		C2.43,5.55,2.18,5,1.82,4.24C1.81,4.98,1.8,5.98,1.8,7.22c0,1.41,0.01,2.34,0.02,2.81c0.01,1.09,0.06,2.29,0.15,3.59
		c-0.25,0.04-0.67,0.06-1.23,0.06H0.13c-0.05,0-0.08-0.2-0.1-0.6C0.01,12.68,0,11.86,0,10.62c0-1.7,0.02-5.02,0.06-9.98
		C0.25,0.6,0.48,0.57,0.77,0.57s0.46,0,0.52,0c0.24,0,0.42-0.01,0.53-0.02h0.02C1.89,0.6,2.06,0.94,2.34,1.56
		c0.04,0.09,0.21,0.47,0.51,1.15c0.3,0.68,0.67,1.4,1.08,2.16c0.04-0.01,0.22-0.41,0.53-1.2c0.05-0.13,0.17-0.41,0.34-0.84
		C4.98,2.4,5.18,1.95,5.39,1.49c0.21-0.46,0.4-0.79,0.56-1C6.05,0.51,6.4,0.5,6.99,0.47c0.46-0.03,0.78-0.04,0.97-0.04
		c-0.03,0.68-0.04,1.2-0.04,1.54c0,0.42,0.01,1.06,0.04,1.92l0.02,1.88C7.98,6.6,7.97,7.22,7.94,7.64z"/>
	<path d="M9.94,4.08c0.09-0.01,0.27-0.01,0.53,0c0.38,0.03,0.8,0.04,1.25,0.04v0.06c0,0.57-0.01,1.45-0.04,2.64
		c-0.04,1.22-0.06,2.45-0.06,3.69c0,1.17,0.03,2.2,0.08,3.12c-0.18,0.04-0.44,0.06-0.8,0.06c-0.36,0-0.57,0-0.65,0
		c-0.23,0-0.37,0.01-0.42,0.02c0.01-0.37,0.02-0.92,0.02-1.67v-1.71v-1.6C9.84,7.83,9.82,7.15,9.82,6.67c0-0.87,0.04-1.73,0.11-2.57
		V4.08z M9.86,0c0.79,0.03,1.38,0.04,1.79,0.04l0.06,2.51c-0.13,0.06-0.35,0.09-0.68,0.09c-0.2,0-0.35-0.01-0.46-0.02
		c-0.08,0-0.17,0-0.27-0.01s-0.22,0-0.36,0.01c0-0.19-0.01-0.5-0.04-0.93C9.86,0.85,9.85,0.29,9.86,0z"/>
	<path d="M19.06,0.57V0.36c0.03-0.06,0.33-0.09,0.91-0.09c0.33,0,0.58,0.01,0.74,0.04v1.25c0,1.2,0.02,2.96,0.08,5.26
		c0.01,0.57,0.03,1.25,0.04,2.04s0.02,1.69,0.02,2.71c0,0.94-0.01,1.63-0.02,2.09c-0.41,0.02-0.74,0.04-1.01,0.04
		c-0.34,0-0.6-0.01-0.76-0.04c-0.01-0.03-0.02-0.16-0.02-0.4c0-0.33-0.03-0.58-0.1-0.76c-0.09,0.2-0.24,0.41-0.45,0.61
		c-0.21,0.2-0.42,0.32-0.64,0.36c-0.34,0.11-0.72,0.17-1.14,0.17c-0.2,0-0.35-0.01-0.46-0.02c-0.9-0.06-1.58-0.35-2.03-0.85
		s-0.76-1.11-0.9-1.84s-0.23-1.62-0.26-2.67c0-1.06,0.14-1.94,0.43-2.63c0.29-0.69,0.78-1.13,1.49-1.32c0.47-0.13,1-0.19,1.6-0.19
		c0.48,0,0.85,0.03,1.12,0.09c0.25,0.04,0.48,0.12,0.68,0.26c0.2,0.13,0.36,0.27,0.47,0.42c0.11,0.15,0.18,0.25,0.19,0.31
		l-0.02-1.62c0-0.33,0-0.62-0.01-0.88c-0.01-0.26,0-0.47,0.01-0.62c0.01-0.06,0.02-0.14,0.01-0.24c-0.01-0.1-0.01-0.18-0.01-0.26
		V1.2C19.04,0.91,19.04,0.7,19.06,0.57z M17.21,5.55l-0.36-0.02c-0.68,0-1.21,0.17-1.58,0.5S14.7,6.89,14.65,7.6
		c-0.04,0.28-0.06,0.7-0.06,1.25c0.03,0.84,0.13,1.49,0.31,1.95c0.18,0.46,0.44,0.79,0.76,0.97s0.75,0.28,1.28,0.28
		c0.61,0,1.06-0.14,1.37-0.43s0.5-0.66,0.59-1.13c0.09-0.47,0.13-1.08,0.13-1.84c-0.01-0.72-0.05-1.29-0.12-1.69
		s-0.23-0.74-0.49-0.99S17.76,5.57,17.21,5.55z"/>
	<path d="M30.67,9.31l-8.51-0.13l0.04-1.29l0.02-0.7h8.42c0.01,0.23,0.02,0.43,0.01,0.61c-0.01,0.18-0.01,0.33-0.01,0.46
		c0,0.34,0.02,0.7,0.06,1.06H30.67z"/>
	<path d="M39.61,6.65c0,0.06-0.22,0.1-0.67,0.1c-0.33,0-0.57-0.01-0.72-0.02c-0.1,0-0.2,0-0.3-0.01c-0.1-0.01-0.18,0-0.25,0.01
		c0-0.01,0-0.23,0-0.66s-0.37-0.68-1.1-0.77c-0.17-0.03-0.41-0.04-0.74-0.04c-0.35,0-0.67,0.03-0.96,0.08s-0.5,0.12-0.64,0.21
		c-0.17,0.13-0.29,0.31-0.38,0.55c-0.09,0.24-0.13,0.47-0.13,0.7c0,0.18,0.03,0.3,0.08,0.36c0.14,0.29,0.32,0.49,0.55,0.61
		c0.13,0.09,0.44,0.2,0.93,0.32s0.92,0.2,1.27,0.21c0.52,0.01,0.98,0.09,1.38,0.24c0.4,0.15,0.71,0.35,0.94,0.6
		c0.23,0.28,0.4,0.55,0.5,0.83c0.11,0.27,0.16,0.57,0.16,0.88c0,0.39-0.09,0.87-0.29,1.42c-0.28,0.6-0.72,1.03-1.33,1.31
		c-0.61,0.28-1.3,0.41-2.07,0.4c-0.85,0.03-1.6-0.08-2.24-0.33c-0.65-0.25-1.15-0.62-1.5-1.11c-0.35-0.49-0.53-1.08-0.53-1.75v-0.1
		c0.23-0.02,0.56-0.04,1.01-0.04c0.49,0,0.76,0.02,0.8,0.06c0.02,0.03,0.08,0.17,0.16,0.43c0.08,0.26,0.23,0.52,0.45,0.79
		s0.58,0.42,1.1,0.46c0.41,0.03,0.65,0.04,0.72,0.04c0.2,0,0.37-0.02,0.5-0.06c0.13-0.04,0.31-0.11,0.52-0.21
		c0.65-0.29,0.96-0.72,0.95-1.27c0.01-0.37-0.08-0.65-0.29-0.86c-0.21-0.2-0.47-0.34-0.79-0.41c-0.32-0.07-0.75-0.14-1.29-0.2
		c-0.39-0.04-0.71-0.08-0.95-0.11c-0.24-0.04-0.46-0.1-0.65-0.19c-0.66-0.22-1.16-0.55-1.51-1.02c-0.35-0.46-0.52-0.97-0.52-1.51
		c0-0.6,0.17-1.14,0.52-1.62c0.35-0.49,0.83-0.81,1.43-0.96c0.52-0.14,1.18-0.21,2-0.21c0.19,0,0.48,0.01,0.86,0.04
		c0.54,0.04,1.05,0.13,1.52,0.29c0.44,0.19,0.8,0.52,1.08,0.98C39.47,5.56,39.61,6.08,39.61,6.65z"/>
	<path d="M46.11,13.68c-0.01-0.24-0.02-0.44-0.02-0.6s-0.01-0.29-0.02-0.41c-0.03,0.01-0.13,0.08-0.3,0.21
		c-0.18,0.13-0.46,0.23-0.86,0.32c-0.73,0.27-1.45,0.4-2.15,0.4c-0.79,0-1.38-0.19-1.77-0.57c-0.21-0.19-0.35-0.51-0.4-0.96
		c-0.05-0.45-0.08-1.17-0.1-2.16V9.33c0-0.39,0.01-0.97,0.04-1.73c0.04-0.76,0.06-1.48,0.06-2.17c0-0.33-0.01-0.73-0.04-1.22
		c0.23-0.03,0.54-0.04,0.93-0.04h0.63c0.04,0.38,0.06,0.83,0.06,1.35l-0.02,1.54c0,0.51,0.01,0.87,0.02,1.1L42.2,8.7
		c0,0.46,0.02,0.99,0.06,1.6c0.03,0.42,0.11,0.73,0.26,0.95c0.15,0.21,0.36,0.36,0.66,0.44c0.25,0.04,0.49,0.06,0.7,0.06
		c0.75,0,1.32-0.2,1.72-0.61c0.4-0.41,0.6-0.96,0.62-1.65c0.01-0.46-0.01-1.29-0.06-2.49c-0.03-0.61-0.04-1.01-0.04-1.2
		c0-0.34,0.01-0.83,0.04-1.46V4.26c0.2-0.05,0.4-0.08,0.58-0.09s0.29-0.02,0.33-0.02c0.27,0,0.49-0.01,0.68-0.02l0.02,3.27
		c0.02,1.5,0.04,2.62,0.04,3.36c0,0.61-0.01,1.57-0.04,2.89c-0.28,0-0.59,0.02-0.93,0.06c-0.06,0-0.14,0.01-0.24,0.02
		s-0.19,0.02-0.29,0.02C46.18,13.74,46.11,13.72,46.11,13.68z"/>
	<path d="M50.88,4.26c0.03,0.14,0.04,0.32,0.04,0.53v0.47c0.47-0.47,1.03-0.75,1.67-0.86c0.44-0.09,0.82-0.13,1.12-0.13
		c0.54,0,0.99,0.11,1.35,0.32c0.28,0.13,0.46,0.3,0.55,0.53C55.7,5.08,55.83,4.99,56,4.85c0.17-0.13,0.41-0.26,0.7-0.38
		c0.3-0.12,0.71-0.19,1.25-0.2c0.63-0.03,1.13,0,1.49,0.09s0.69,0.25,0.98,0.5C60.58,5,60.7,5.33,60.76,5.85s0.1,1.2,0.1,2.05
		c0,0.48-0.01,1.24-0.04,2.28c-0.03,1.01-0.04,1.74-0.04,2.17c0,0.35,0.01,0.79,0.04,1.29c-0.46,0.08-1,0.1-1.62,0.08
		c-0.03-0.34-0.04-0.97-0.04-1.88c0.03-0.99,0.04-1.75,0.04-2.28v-0.8c-0.01-0.1-0.03-0.29-0.04-0.55
		c-0.01-0.27-0.04-0.56-0.08-0.87s-0.11-0.56-0.23-0.72c-0.08-0.25-0.32-0.4-0.74-0.44c-0.13-0.03-0.31-0.04-0.55-0.04
		c-0.37,0-0.68,0.06-0.95,0.18c-0.27,0.12-0.46,0.31-0.57,0.56c-0.03,0.28-0.04,0.5-0.04,0.67l0.02,0.53v0.7
		c0,0.43-0.01,1.09-0.04,1.98l-0.02,1.9c0,0.47,0.01,0.8,0.02,1.01c-0.27,0.04-0.63,0.06-1.08,0.06h-0.59
		c-0.03-0.25-0.04-0.7-0.04-1.35v-1.01l0.02-1.41c0-0.87-0.03-1.65-0.08-2.32c0-0.53-0.09-0.9-0.27-1.09
		c-0.18-0.2-0.51-0.29-0.99-0.29c-1.34,0-2.06,0.75-2.17,2.26c-0.01,0.19-0.02,0.47-0.02,0.84c0,0.41,0.01,0.98,0.04,1.71l0.02,0.93
		c0,0.52-0.02,1.06-0.06,1.62v0.08c-0.19,0.04-0.37,0.06-0.53,0.06l-0.63-0.02c-0.19,0-0.34,0.01-0.46,0.02l-0.02-3.27
		c-0.03-1.49-0.04-2.62-0.04-3.36c0-0.61,0.01-1.57,0.04-2.89c0.33,0.03,0.53,0.04,0.59,0.04l0.42-0.02c0.06,0,0.15-0.01,0.25-0.02
		c0.1-0.01,0.2-0.02,0.3-0.02C50.82,4.2,50.88,4.22,50.88,4.26z"/>
	<path d="M63.88,4.26c0.03,0.14,0.04,0.32,0.04,0.53v0.47c0.47-0.47,1.03-0.75,1.67-0.86c0.44-0.09,0.82-0.13,1.12-0.13
		c0.54,0,0.99,0.11,1.35,0.32c0.28,0.13,0.46,0.3,0.55,0.53C68.7,5.08,68.83,4.99,69,4.85c0.17-0.13,0.41-0.26,0.7-0.38
		c0.3-0.12,0.71-0.19,1.24-0.2c0.63-0.03,1.13,0,1.49,0.09c0.36,0.08,0.69,0.25,0.98,0.5c0.16,0.14,0.28,0.47,0.34,0.99
		s0.09,1.2,0.09,2.05c0,0.48-0.01,1.24-0.04,2.28c-0.03,1.01-0.04,1.74-0.04,2.17c0,0.35,0.01,0.79,0.04,1.29
		c-0.46,0.08-0.99,0.1-1.62,0.08c-0.03-0.34-0.04-0.97-0.04-1.88c0.03-0.99,0.04-1.75,0.04-2.28v-0.8c-0.01-0.1-0.03-0.29-0.04-0.55
		c-0.01-0.27-0.04-0.56-0.08-0.87s-0.11-0.56-0.23-0.72c-0.08-0.25-0.32-0.4-0.74-0.44c-0.13-0.03-0.31-0.04-0.55-0.04
		c-0.37,0-0.68,0.06-0.95,0.18c-0.27,0.12-0.46,0.31-0.57,0.56c-0.03,0.28-0.04,0.5-0.04,0.67l0.02,0.53v0.7
		c0,0.43-0.01,1.09-0.04,1.98l-0.02,1.9c0,0.47,0.01,0.8,0.02,1.01c-0.27,0.04-0.63,0.06-1.08,0.06h-0.59
		c-0.03-0.25-0.04-0.7-0.04-1.35v-1.01l0.02-1.41c0-0.87-0.03-1.65-0.08-2.32c0-0.53-0.09-0.9-0.27-1.09
		c-0.18-0.2-0.51-0.29-0.99-0.29c-1.34,0-2.06,0.75-2.17,2.26c-0.01,0.19-0.02,0.47-0.02,0.84c0,0.41,0.01,0.98,0.04,1.71l0.02,0.93
		c0,0.52-0.02,1.06-0.06,1.62v0.08c-0.19,0.04-0.37,0.06-0.53,0.06l-0.63-0.02c-0.19,0-0.34,0.01-0.46,0.02l-0.02-3.27
		c-0.03-1.49-0.04-2.62-0.04-3.36c0-0.61,0.01-1.57,0.04-2.89c0.33,0.03,0.53,0.04,0.59,0.04l0.42-0.02c0.06,0,0.15-0.01,0.25-0.02
		s0.2-0.02,0.3-0.02C63.82,4.2,63.88,4.22,63.88,4.26z"/>
	<path d="M76.55,8.87v0.34l-0.02,0.55c0,1.57,0.77,2.36,2.32,2.36c0.62,0,1.08-0.14,1.38-0.43s0.45-0.67,0.45-1.17
		c0-0.08-0.01-0.21-0.04-0.42c0.27-0.04,0.51-0.06,0.74-0.06c0.2,0,0.35,0.01,0.46,0.02c0.08,0,0.17,0,0.28,0.01
		c0.11,0.01,0.23,0,0.37-0.01c0.01,0.72-0.01,1.3-0.08,1.73s-0.22,0.84-0.46,1.23c-0.23,0.34-0.62,0.59-1.19,0.73
		s-1.18,0.22-1.85,0.22c-0.3,0-0.59-0.01-0.85-0.04s-0.42-0.05-0.48-0.08c-0.99-0.17-1.7-0.79-2.15-1.87
		c-0.44-1.08-0.63-2.32-0.57-3.71c0.01-0.1,0.03-0.31,0.06-0.64c0.03-0.32,0.06-0.66,0.1-1s0.13-0.68,0.26-1.01
		c0.24-0.56,0.68-0.99,1.31-1.29c0.63-0.3,1.34-0.46,2.11-0.46c0.41,0,0.83,0.05,1.27,0.15c1.72,0.29,2.58,1.59,2.58,3.89
		c0,0.19-0.01,0.46-0.04,0.82c-0.24,0.08-0.95,0.14-2.13,0.19c-0.14,0.01-0.44,0.02-0.91,0.02c-1,0-1.74-0.01-2.22-0.04
		C76.94,8.93,76.7,8.91,76.55,8.87z M81.17,7.45c-0.01-0.39-0.11-0.78-0.29-1.16c-0.18-0.38-0.45-0.68-0.79-0.89
		c-0.19-0.09-0.35-0.15-0.49-0.17s-0.32-0.04-0.53-0.04c-0.82,0-1.41,0.17-1.76,0.51c-0.35,0.34-0.57,0.83-0.66,1.46
		c-0.03,0.15-0.04,0.25-0.04,0.3c0,0.15,0.07,0.25,0.22,0.3c0.14,0.05,0.46,0.08,0.94,0.08c0.47,0,0.87-0.01,1.2-0.02
		c1.22,0,1.9-0.01,2.05-0.02c0.06-0.01,0.1-0.03,0.12-0.05c0.02-0.02,0.03-0.05,0.03-0.1V7.45z"/>
	<path d="M85.31,4.24c0,0.15,0,0.27,0.01,0.35c0.01,0.08,0.01,0.18,0.01,0.29c0.09-0.05,0.21-0.11,0.37-0.17s0.33-0.13,0.52-0.19
		c0.29-0.1,0.64-0.17,1.05-0.22c0.41-0.04,0.78-0.07,1.11-0.07c0.3,0,0.46,0.01,0.46,0.04l-0.02,1.58c0,0.25,0.01,0.44,0.02,0.57
		c-0.19-0.08-0.41-0.15-0.65-0.21c-0.28-0.06-0.58-0.09-0.91-0.09c-0.34,0-0.73,0.05-1.16,0.15c-0.36,0.09-0.6,0.22-0.72,0.4
		c-0.13,0.18-0.18,0.51-0.17,1.01c0.05,1.74,0.08,3.71,0.08,5.91v0.08c-0.22,0.05-0.44,0.08-0.67,0.08c-0.09,0-0.23,0-0.43-0.01
		c-0.2-0.01-0.4,0-0.6,0.01l-0.02-3.27c-0.03-1.49-0.04-2.62-0.04-3.36c0-0.61,0.01-1.57,0.04-2.89c0.13,0.01,0.26,0.02,0.41,0.01
		c0.15-0.01,0.28-0.01,0.39-0.01C84.55,4.21,84.75,4.2,85,4.2C85.21,4.2,85.31,4.21,85.31,4.24z"/>
	<path d="M96.56,0.67v2.91l0.02,1.06c0.82-0.03,1.84-0.07,3.06-0.13c0.08,0.1,0.11,0.29,0.11,0.57l-0.02,0.44
		c-0.03,0.28-0.03,0.48-0.02,0.61c-1.38,0-2.41-0.01-3.1-0.02v2.91v0.65c0,0.57,0.01,0.98,0.04,1.22c0.03,0.24,0.08,0.45,0.15,0.63
		c0.2,0.25,0.61,0.41,1.23,0.47s1.17,0.08,1.68,0.06c0.06,0.51,0.09,0.83,0.09,0.97c0,0.23-0.03,0.46-0.09,0.68
		c-0.27,0.01-0.68,0.02-1.25,0.02c-0.99,0-1.76-0.12-2.32-0.36s-0.91-0.72-1.06-1.44c-0.14-1.23-0.21-2.83-0.21-4.81V6.17
		c-0.08,0.01-0.27,0.02-0.57,0.02l-1.44-0.02l0.06-1.56c0.28,0.03,0.94,0.04,1.99,0.04l-0.02-1.99V1.77c0-0.53,0.01-0.91,0.04-1.12
		c0.18-0.01,0.45-0.01,0.82,0.02l0.51,0.02C96.39,0.68,96.49,0.68,96.56,0.67z"/>
	<path d="M102.07,8.87v0.34l-0.02,0.55c0,1.57,0.77,2.36,2.32,2.36c0.62,0,1.08-0.14,1.38-0.43s0.45-0.67,0.45-1.17
		c0-0.08-0.01-0.21-0.04-0.42c0.27-0.04,0.51-0.06,0.74-0.06c0.2,0,0.35,0.01,0.46,0.02c0.08,0,0.17,0,0.28,0.01
		c0.11,0.01,0.23,0,0.37-0.01c0.01,0.72-0.01,1.3-0.08,1.73s-0.22,0.84-0.46,1.23c-0.23,0.34-0.62,0.59-1.19,0.73
		s-1.18,0.22-1.85,0.22c-0.3,0-0.59-0.01-0.85-0.04s-0.42-0.05-0.48-0.08c-0.99-0.17-1.7-0.79-2.15-1.87
		c-0.44-1.08-0.63-2.32-0.57-3.71c0.01-0.1,0.03-0.31,0.06-0.64c0.03-0.32,0.06-0.66,0.1-1s0.13-0.68,0.26-1.01
		c0.24-0.56,0.68-0.99,1.31-1.29c0.63-0.3,1.34-0.46,2.11-0.46c0.41,0,0.83,0.05,1.27,0.15c1.72,0.29,2.58,1.59,2.58,3.89
		c0,0.19-0.01,0.46-0.04,0.82c-0.24,0.08-0.95,0.14-2.13,0.19c-0.14,0.01-0.44,0.02-0.91,0.02c-1,0-1.74-0.01-2.22-0.04
		C102.45,8.93,102.22,8.91,102.07,8.87z M106.68,7.45c-0.01-0.39-0.11-0.78-0.29-1.16c-0.18-0.38-0.45-0.68-0.79-0.89
		c-0.19-0.09-0.35-0.15-0.49-0.17s-0.32-0.04-0.53-0.04c-0.82,0-1.41,0.17-1.76,0.51c-0.35,0.34-0.57,0.83-0.66,1.46
		c-0.03,0.15-0.04,0.25-0.04,0.3c0,0.15,0.07,0.25,0.22,0.3c0.14,0.05,0.46,0.08,0.94,0.08c0.47,0,0.87-0.01,1.2-0.02
		c1.22,0,1.9-0.01,2.05-0.02c0.06-0.01,0.1-0.03,0.12-0.05c0.02-0.02,0.03-0.05,0.03-0.1V7.45z"/>
	<path d="M110.82,4.26c0.03,0.14,0.04,0.32,0.04,0.53v0.47c0.47-0.47,1.03-0.75,1.67-0.86c0.44-0.09,0.82-0.13,1.12-0.13
		c0.54,0,0.99,0.11,1.35,0.32c0.28,0.13,0.46,0.3,0.55,0.53c0.09-0.05,0.22-0.14,0.39-0.28c0.17-0.13,0.41-0.26,0.7-0.38
		c0.3-0.12,0.71-0.19,1.25-0.2c0.63-0.03,1.13,0,1.49,0.09s0.69,0.25,0.98,0.5c0.16,0.14,0.28,0.47,0.34,0.99s0.1,1.2,0.1,2.05
		c0,0.48-0.01,1.24-0.04,2.28c-0.03,1.01-0.04,1.74-0.04,2.17c0,0.35,0.01,0.79,0.04,1.29c-0.46,0.08-1,0.1-1.62,0.08
		c-0.03-0.34-0.04-0.97-0.04-1.88c0.03-0.99,0.04-1.75,0.04-2.28v-0.8c-0.01-0.1-0.03-0.29-0.04-0.55
		c-0.01-0.27-0.04-0.56-0.08-0.87s-0.11-0.56-0.23-0.72c-0.08-0.25-0.32-0.4-0.74-0.44c-0.13-0.03-0.31-0.04-0.55-0.04
		c-0.37,0-0.68,0.06-0.95,0.18c-0.27,0.12-0.46,0.31-0.57,0.56c-0.03,0.28-0.04,0.5-0.04,0.67l0.02,0.53v0.7
		c0,0.43-0.01,1.09-0.04,1.98l-0.02,1.9c0,0.47,0.01,0.8,0.02,1.01c-0.27,0.04-0.63,0.06-1.08,0.06h-0.59
		c-0.03-0.25-0.04-0.7-0.04-1.35v-1.01l0.02-1.41c0-0.87-0.03-1.65-0.08-2.32c0-0.53-0.09-0.9-0.27-1.09
		c-0.18-0.2-0.51-0.29-0.99-0.29c-1.34,0-2.06,0.75-2.17,2.26c-0.01,0.19-0.02,0.47-0.02,0.84c0,0.41,0.01,0.98,0.04,1.71l0.02,0.93
		c0,0.52-0.02,1.06-0.06,1.62v0.08c-0.19,0.04-0.37,0.06-0.53,0.06l-0.63-0.02c-0.19,0-0.34,0.01-0.46,0.02l-0.02-3.27
		c-0.03-1.49-0.04-2.62-0.04-3.36c0-0.61,0.01-1.57,0.04-2.89c0.33,0.03,0.53,0.04,0.59,0.04l0.42-0.02c0.06,0,0.15-0.01,0.25-0.02
		c0.1-0.01,0.2-0.02,0.3-0.02C110.77,4.2,110.82,4.22,110.82,4.26z"/>
	<path d="M123.8,17.31v0.21c0,0.03-0.08,0.05-0.25,0.07c-0.16,0.02-0.35,0.03-0.55,0.03c-0.29,0-0.56-0.02-0.82-0.06V16.3
		c0-1.19-0.03-2.94-0.08-5.24c-0.01-0.56-0.03-1.24-0.04-2.04c-0.01-0.8-0.02-1.71-0.02-2.73c0-0.94,0.01-1.63,0.02-2.09l1.23-0.02
		c0.25,0,0.44,0.01,0.55,0.02c0.01,0.01,0.02,0.07,0.03,0.16c0.01,0.09,0.01,0.19,0.01,0.29c0,0.05,0,0.11,0.01,0.17
		c0.01,0.06,0,0.15-0.01,0.27c0.01,0.06,0.04,0.09,0.07,0.08c0.03-0.01,0.07-0.05,0.12-0.14c0.23-0.29,0.54-0.5,0.93-0.63
		c0.39-0.13,0.79-0.19,1.2-0.19c0.2,0,0.34,0.01,0.42,0.02c0.87,0.06,1.54,0.34,2,0.82c0.46,0.48,0.77,1.09,0.92,1.82
		c0.15,0.73,0.24,1.64,0.27,2.72c0,0.96-0.12,1.8-0.37,2.51c-0.25,0.71-0.64,1.16-1.17,1.35c-0.32,0.13-0.7,0.21-1.14,0.25
		c-0.14,0.01-0.36,0.02-0.66,0.02c-0.63,0-1.22-0.05-1.77-0.15c-0.54-0.1-0.83-0.23-0.85-0.38l0.04,2.32c0,0.28-0.01,0.62-0.04,1.03
		L123.8,17.31z M125.53,12.25c0.59,0,1.05-0.03,1.36-0.09c0.31-0.06,0.58-0.19,0.8-0.4s0.4-0.55,0.54-1.02
		c0.1-0.49,0.15-0.96,0.15-1.39c0-1.01-0.18-1.89-0.54-2.62c-0.36-0.74-1.05-1.06-2.08-0.99c-0.61,0.05-1.05,0.22-1.34,0.5
		c-0.29,0.29-0.47,0.66-0.54,1.13s-0.11,1.13-0.11,1.98c0,0.9,0.04,1.54,0.11,1.93c0.08,0.39,0.23,0.64,0.47,0.77
		C124.58,12.19,124.97,12.25,125.53,12.25z"/>
	<path d="M132.31,8.87v0.34l-0.02,0.55c0,1.57,0.77,2.36,2.32,2.36c0.62,0,1.08-0.14,1.38-0.43s0.45-0.67,0.45-1.17
		c0-0.08-0.01-0.21-0.04-0.42c0.27-0.04,0.51-0.06,0.74-0.06c0.2,0,0.35,0.01,0.46,0.02c0.08,0,0.17,0,0.28,0.01
		c0.11,0.01,0.23,0,0.37-0.01c0.01,0.72-0.01,1.3-0.08,1.73s-0.22,0.84-0.46,1.23c-0.23,0.34-0.62,0.59-1.19,0.73
		s-1.18,0.22-1.85,0.22c-0.3,0-0.59-0.01-0.85-0.04s-0.42-0.05-0.48-0.08c-0.99-0.17-1.7-0.79-2.15-1.87
		c-0.44-1.08-0.63-2.32-0.57-3.71c0.01-0.1,0.03-0.31,0.06-0.64c0.03-0.32,0.06-0.66,0.1-1s0.13-0.68,0.26-1.01
		c0.24-0.56,0.68-0.99,1.31-1.29c0.63-0.3,1.34-0.46,2.11-0.46c0.41,0,0.83,0.05,1.27,0.15c1.72,0.29,2.58,1.59,2.58,3.89
		c0,0.19-0.01,0.46-0.04,0.82c-0.24,0.08-0.95,0.14-2.13,0.19c-0.14,0.01-0.44,0.02-0.91,0.02c-1,0-1.74-0.01-2.22-0.04
		C132.7,8.93,132.46,8.91,132.31,8.87z M136.93,7.45c-0.01-0.39-0.11-0.78-0.29-1.16c-0.18-0.38-0.45-0.68-0.79-0.89
		c-0.19-0.09-0.35-0.15-0.49-0.17s-0.32-0.04-0.53-0.04c-0.82,0-1.41,0.17-1.76,0.51c-0.35,0.34-0.57,0.83-0.66,1.46
		c-0.03,0.15-0.04,0.25-0.04,0.3c0,0.15,0.07,0.25,0.22,0.3c0.14,0.05,0.46,0.08,0.94,0.08c0.47,0,0.87-0.01,1.2-0.02
		c1.22,0,1.9-0.01,2.05-0.02c0.06-0.01,0.1-0.03,0.12-0.05c0.02-0.02,0.03-0.05,0.03-0.1V7.45z"/>
	<path d="M141.07,4.24c0,0.15,0,0.27,0.01,0.35c0.01,0.08,0.01,0.18,0.01,0.29c0.09-0.05,0.21-0.11,0.37-0.17s0.33-0.13,0.52-0.19
		c0.29-0.1,0.64-0.17,1.05-0.22c0.41-0.04,0.78-0.07,1.11-0.07c0.3,0,0.46,0.01,0.46,0.04l-0.02,1.58c0,0.25,0.01,0.44,0.02,0.57
		c-0.19-0.08-0.41-0.15-0.65-0.21c-0.28-0.06-0.58-0.09-0.91-0.09c-0.34,0-0.73,0.05-1.16,0.15c-0.36,0.09-0.6,0.22-0.72,0.4
		c-0.13,0.18-0.18,0.51-0.17,1.01c0.05,1.74,0.08,3.71,0.08,5.91v0.08c-0.22,0.05-0.44,0.08-0.67,0.08c-0.09,0-0.23,0-0.43-0.01
		c-0.2-0.01-0.4,0-0.6,0.01l-0.02-3.27c-0.03-1.49-0.04-2.62-0.04-3.36c0-0.61,0.01-1.57,0.04-2.89c0.13,0.01,0.26,0.02,0.41,0.01
		c0.15-0.01,0.28-0.01,0.39-0.01c0.15-0.01,0.35-0.02,0.61-0.02C140.97,4.2,141.07,4.21,141.07,4.24z"/>
	<path d="M151.83,4.14c0.29-0.01,0.67,0,1.12,0.04l0.49,0.04c0.03,0.2,0.04,0.35,0.04,0.46v0.19c-0.01,0.29-0.02,0.73-0.02,1.31
		c0,0.48,0.01,1.19,0.04,2.13l0.02,2.13c0,0.91-0.03,1.74-0.08,2.49c0,0.04,0,0.12,0,0.25c0,0.13-0.01,0.24-0.04,0.34
		s-0.09,0.17-0.21,0.19h-0.32l-0.61-0.02c-0.1,0-0.19,0.01-0.27,0.02s-0.15,0.02-0.21,0.02c-0.13-0.04-0.19-0.18-0.19-0.42
		c-0.01-0.1-0.01-0.22,0.01-0.34c0.02-0.13,0.03-0.23,0.03-0.32c-0.3,0.42-0.79,0.7-1.44,0.85c-0.66,0.15-1.3,0.23-1.94,0.23
		c-0.61,0-1.12-0.27-1.55-0.81c-0.42-0.54-0.74-1.2-0.94-1.99c-0.2-0.79-0.3-1.55-0.3-2.3c0-0.82,0.14-1.56,0.42-2.22
		c0.28-0.66,0.66-1.18,1.15-1.57c0.49-0.39,1.03-0.59,1.62-0.6l0.61-0.02c0.57,0,1.04,0.07,1.42,0.2s0.65,0.38,0.83,0.73
		c0-0.11,0.01-0.26,0.04-0.44c0.03-0.25,0.04-0.43,0.04-0.53C151.58,4.15,151.66,4.14,151.83,4.14z M149.7,5.85
		c-0.66-0.01-1.21,0.16-1.66,0.5c-0.45,0.35-0.73,0.76-0.83,1.24c-0.1,0.37-0.15,0.86-0.15,1.48c0.06,2.04,0.89,3.01,2.47,2.93
		c0.65,0,1.11-0.11,1.41-0.34c0.29-0.23,0.47-0.55,0.54-0.97s0.1-1.04,0.1-1.88c0-0.91-0.04-1.55-0.11-1.93
		c-0.08-0.37-0.24-0.63-0.49-0.77C150.73,5.98,150.31,5.89,149.7,5.85z"/>
	<path d="M158.08,0.67v2.91l0.02,1.06c0.82-0.03,1.84-0.07,3.06-0.13c0.08,0.1,0.11,0.29,0.11,0.57l-0.02,0.44
		c-0.03,0.28-0.03,0.48-0.02,0.61c-1.38,0-2.41-0.01-3.1-0.02v2.91v0.65c0,0.57,0.01,0.98,0.04,1.22c0.03,0.24,0.08,0.45,0.15,0.63
		c0.2,0.25,0.61,0.41,1.23,0.47s1.17,0.08,1.68,0.06c0.06,0.51,0.09,0.83,0.09,0.97c0,0.23-0.03,0.46-0.09,0.68
		c-0.27,0.01-0.68,0.02-1.25,0.02c-0.99,0-1.76-0.12-2.32-0.36s-0.91-0.72-1.06-1.44c-0.14-1.23-0.21-2.83-0.21-4.81V6.17
		c-0.08,0.01-0.27,0.02-0.57,0.02l-1.44-0.02l0.06-1.56c0.28,0.03,0.94,0.04,1.99,0.04l-0.02-1.99V1.77c0-0.53,0.01-0.91,0.04-1.12
		c0.18-0.01,0.45-0.01,0.82,0.02l0.51,0.02C157.91,0.68,158.01,0.68,158.08,0.67z"/>
	<path d="M167.69,13.68c-0.01-0.24-0.02-0.44-0.02-0.6s-0.01-0.29-0.02-0.41c-0.03,0.01-0.13,0.08-0.3,0.21
		c-0.18,0.13-0.46,0.23-0.86,0.32c-0.73,0.27-1.45,0.4-2.15,0.4c-0.79,0-1.38-0.19-1.77-0.57c-0.21-0.19-0.35-0.51-0.4-0.96
		c-0.05-0.45-0.08-1.17-0.1-2.16V9.33c0-0.39,0.01-0.97,0.04-1.73c0.04-0.76,0.06-1.48,0.06-2.17c0-0.33-0.01-0.73-0.04-1.22
		c0.23-0.03,0.54-0.04,0.93-0.04h0.63c0.04,0.38,0.06,0.83,0.06,1.35l-0.02,1.54c0,0.51,0.01,0.87,0.02,1.1l0.02,0.53
		c0,0.46,0.02,0.99,0.06,1.6c0.03,0.42,0.11,0.73,0.26,0.95c0.15,0.21,0.36,0.36,0.66,0.44c0.25,0.04,0.49,0.06,0.7,0.06
		c0.75,0,1.32-0.2,1.72-0.61c0.4-0.41,0.6-0.96,0.62-1.65c0.01-0.46-0.01-1.29-0.06-2.49c-0.03-0.61-0.04-1.01-0.04-1.2
		c0-0.34,0.01-0.83,0.04-1.46V4.26c0.2-0.05,0.4-0.08,0.58-0.09s0.29-0.02,0.33-0.02c0.27,0,0.49-0.01,0.68-0.02l0.02,3.27
		c0.02,1.5,0.04,2.62,0.04,3.36c0,0.61-0.01,1.57-0.04,2.89c-0.28,0-0.59,0.02-0.93,0.06c-0.06,0-0.14,0.01-0.24,0.02
		s-0.19,0.02-0.29,0.02C167.75,13.74,167.69,13.72,167.69,13.68z"/>
	<path d="M172.46,4.24c0,0.15,0,0.27,0.01,0.35c0.01,0.08,0.01,0.18,0.01,0.29c0.09-0.05,0.21-0.11,0.37-0.17s0.33-0.13,0.52-0.19
		c0.29-0.1,0.64-0.17,1.05-0.22c0.41-0.04,0.78-0.07,1.11-0.07c0.3,0,0.46,0.01,0.46,0.04l-0.02,1.58c0,0.25,0.01,0.44,0.02,0.57
		c-0.19-0.08-0.41-0.15-0.65-0.21c-0.28-0.06-0.58-0.09-0.91-0.09c-0.34,0-0.73,0.05-1.16,0.15c-0.36,0.09-0.6,0.22-0.72,0.4
		c-0.13,0.18-0.18,0.51-0.17,1.01c0.05,1.74,0.08,3.71,0.08,5.91v0.08c-0.22,0.05-0.44,0.08-0.67,0.08c-0.09,0-0.23,0-0.43-0.01
		c-0.2-0.01-0.4,0-0.6,0.01l-0.02-3.27c-0.03-1.49-0.04-2.62-0.04-3.36c0-0.61,0.01-1.57,0.04-2.89c0.13,0.01,0.26,0.02,0.41,0.01
		c0.15-0.01,0.28-0.01,0.39-0.01c0.15-0.01,0.35-0.02,0.61-0.02C172.36,4.2,172.46,4.21,172.46,4.24z"/>
	<path d="M178.58,8.87v0.34l-0.02,0.55c0,1.57,0.77,2.36,2.32,2.36c0.62,0,1.08-0.14,1.38-0.43c0.3-0.29,0.45-0.67,0.45-1.17
		c0-0.08-0.01-0.21-0.04-0.42c0.27-0.04,0.51-0.06,0.74-0.06c0.2,0,0.35,0.01,0.46,0.02c0.08,0,0.17,0,0.28,0.01
		c0.11,0.01,0.23,0,0.37-0.01c0.01,0.72-0.01,1.3-0.08,1.73s-0.21,0.84-0.46,1.23c-0.23,0.34-0.62,0.59-1.19,0.73
		s-1.18,0.22-1.85,0.22c-0.3,0-0.59-0.01-0.84-0.04c-0.26-0.03-0.42-0.05-0.48-0.08c-0.99-0.17-1.7-0.79-2.15-1.87
		s-0.63-2.32-0.57-3.71c0.01-0.1,0.03-0.31,0.06-0.64c0.03-0.32,0.06-0.66,0.1-1c0.04-0.34,0.13-0.68,0.26-1.01
		c0.24-0.56,0.68-0.99,1.31-1.29c0.63-0.3,1.34-0.46,2.11-0.46c0.41,0,0.83,0.05,1.27,0.15c1.72,0.29,2.58,1.59,2.58,3.89
		c0,0.19-0.01,0.46-0.04,0.82c-0.24,0.08-0.95,0.14-2.13,0.19c-0.14,0.01-0.44,0.02-0.91,0.02c-1,0-1.74-0.01-2.22-0.04
		C178.96,8.93,178.73,8.91,178.58,8.87z M183.19,7.45c-0.01-0.39-0.11-0.78-0.29-1.16c-0.18-0.38-0.45-0.68-0.79-0.89
		c-0.19-0.09-0.36-0.15-0.49-0.17c-0.14-0.03-0.32-0.04-0.53-0.04c-0.82,0-1.41,0.17-1.76,0.51c-0.35,0.34-0.57,0.83-0.66,1.46
		c-0.03,0.15-0.04,0.25-0.04,0.3c0,0.15,0.07,0.25,0.22,0.3c0.15,0.05,0.46,0.08,0.94,0.08c0.47,0,0.87-0.01,1.2-0.02
		c1.22,0,1.9-0.01,2.05-0.02c0.06-0.01,0.1-0.03,0.12-0.05c0.02-0.02,0.03-0.05,0.03-0.1V7.45z"/>
	<path d="M193.17,6.65c0,0.06-0.22,0.1-0.67,0.1c-0.33,0-0.57-0.01-0.72-0.02c-0.1,0-0.2,0-0.3-0.01c-0.1-0.01-0.18,0-0.25,0.01
		c0-0.01,0-0.23,0-0.66s-0.37-0.68-1.1-0.77c-0.17-0.03-0.41-0.04-0.74-0.04c-0.35,0-0.67,0.03-0.96,0.08
		c-0.28,0.05-0.5,0.12-0.64,0.21c-0.17,0.13-0.29,0.31-0.38,0.55c-0.09,0.24-0.13,0.47-0.13,0.7c0,0.18,0.03,0.3,0.08,0.36
		c0.14,0.29,0.32,0.49,0.55,0.61c0.13,0.09,0.44,0.2,0.93,0.32s0.92,0.2,1.27,0.21c0.52,0.01,0.98,0.09,1.38,0.24
		c0.4,0.15,0.71,0.35,0.94,0.6c0.23,0.28,0.4,0.55,0.5,0.83c0.11,0.27,0.16,0.57,0.16,0.88c0,0.39-0.09,0.87-0.29,1.42
		c-0.28,0.6-0.72,1.03-1.33,1.31s-1.3,0.41-2.07,0.4c-0.85,0.03-1.6-0.08-2.24-0.33c-0.65-0.25-1.15-0.62-1.5-1.11
		c-0.36-0.49-0.53-1.08-0.53-1.75v-0.1c0.23-0.02,0.56-0.04,1.01-0.04c0.49,0,0.76,0.02,0.8,0.06c0.03,0.03,0.08,0.17,0.16,0.43
		c0.08,0.26,0.23,0.52,0.45,0.79c0.21,0.27,0.58,0.42,1.1,0.46c0.41,0.03,0.65,0.04,0.72,0.04c0.2,0,0.37-0.02,0.5-0.06
		c0.13-0.04,0.31-0.11,0.52-0.21c0.65-0.29,0.96-0.72,0.95-1.27c0.01-0.37-0.09-0.65-0.29-0.86c-0.21-0.2-0.47-0.34-0.79-0.41
		c-0.32-0.07-0.75-0.14-1.29-0.2c-0.39-0.04-0.71-0.08-0.95-0.11s-0.46-0.1-0.65-0.19c-0.66-0.22-1.16-0.55-1.51-1.02
		c-0.35-0.46-0.52-0.97-0.52-1.51c0-0.6,0.17-1.14,0.52-1.62c0.35-0.49,0.83-0.81,1.43-0.96c0.52-0.14,1.18-0.21,2-0.21
		c0.19,0,0.47,0.01,0.85,0.04c0.54,0.04,1.05,0.13,1.52,0.29c0.44,0.19,0.8,0.52,1.08,0.98C193.03,5.56,193.17,6.08,193.17,6.65z"/>
	<path d="M2.37,30.3c0-0.47,0.02-0.87,0.07-1.22c0.04-0.34,0.16-0.77,0.33-1.27c0.16-0.37,0.52-0.64,1.05-0.83
		c0.54-0.18,1.14-0.28,1.79-0.28c0.09,0.01,0.22,0.02,0.38,0.02l0.76-0.02c1.06,0,1.88,0.28,2.45,0.84c0.23,0.15,0.4,0.44,0.52,0.85
		c0.12,0.42,0.19,0.98,0.22,1.68s0.04,1.11,0.04,1.23c-0.05,1.27-0.11,2.27-0.18,3.02c-0.07,0.75-0.21,1.23-0.43,1.44
		c-0.24,0.34-0.57,0.58-1,0.7c-0.42,0.13-0.93,0.19-1.51,0.19c-0.23,0-0.57-0.01-1.03-0.04l-0.87-0.02
		c-0.75-0.13-1.31-0.4-1.68-0.82c-0.37-0.42-0.61-0.91-0.72-1.46C2.46,33.78,2.4,33.1,2.4,32.32v-0.99
		C2.4,30.86,2.39,30.52,2.37,30.3z M6.24,28.5c-0.86,0-1.48,0.22-1.86,0.67c-0.17,0.2-0.27,0.46-0.31,0.77
		c-0.04,0.31-0.06,0.71-0.05,1.21c-0.01,0.19-0.01,0.44,0.01,0.76c0.02,0.32,0.03,0.56,0.03,0.74l0.04,0.8
		c0.04,0.51,0.18,0.86,0.43,1.07c0.25,0.21,0.56,0.35,0.94,0.43C5.72,34.98,5.98,35,6.24,35c0.49,0,0.92-0.09,1.29-0.27
		c0.37-0.18,0.6-0.47,0.7-0.87c0.05-0.33,0.08-0.59,0.08-0.78c0.06-0.89,0.09-1.49,0.09-1.8c0-0.84-0.15-1.51-0.46-2.01
		C7.65,28.75,7.08,28.5,6.24,28.5z"/>
	<path d="M12.91,27.04c0.03,0.14,0.04,0.32,0.04,0.53v0.48c0.43-0.25,0.94-0.48,1.52-0.67c0.58-0.2,1.17-0.29,1.75-0.29
		c0.7,0.03,1.27,0.22,1.71,0.59c0.3,0.27,0.46,1.35,0.46,3.25c0,0.48-0.01,1.23-0.04,2.24c-0.03,0.96-0.04,1.66-0.04,2.09
		c0,0.56,0.01,0.96,0.02,1.2c-0.24,0.04-0.59,0.06-1.04,0.06h-0.63c-0.03-0.2-0.04-0.56-0.04-1.06v-0.82l0.02-1.22
		c0.03-0.82,0.03-1.41,0.02-1.77c0-0.08-0.02-0.34-0.05-0.78c-0.03-0.44-0.1-0.84-0.22-1.18c-0.04-0.44-0.35-0.65-0.93-0.61
		c-0.87,0.01-1.52,0.13-1.93,0.36c-0.41,0.23-0.64,0.64-0.69,1.23c-0.01,0.17-0.02,0.48-0.02,0.93c0,0.71,0.01,1.47,0.04,2.28
		c0.03,0.48,0.04,0.84,0.04,1.06c0,0.47-0.02,0.95-0.06,1.44v0.08c-0.24,0.05-0.48,0.07-0.71,0.07c-0.23-0.01-0.4-0.01-0.5-0.01
		c-0.2,0-0.36,0.01-0.47,0.02l-0.02-3.27c-0.03-1.49-0.04-2.62-0.04-3.36c0-0.61,0.01-1.57,0.04-2.89c0.15,0.01,0.33,0.02,0.53,0.02
		c0.2,0,0.37-0.01,0.49-0.02c0.08,0,0.17-0.01,0.27-0.02c0.1-0.01,0.2-0.02,0.3-0.02C12.85,26.98,12.91,27,12.91,27.04z"/>
	<path d="M26.44,23.46v2.91l0.02,1.06c0.82-0.03,1.84-0.07,3.06-0.13c0.08,0.1,0.11,0.29,0.11,0.57l-0.02,0.44
		c-0.03,0.28-0.03,0.48-0.02,0.61c-1.38,0-2.41-0.01-3.1-0.02v2.91v0.65c0,0.57,0.01,0.98,0.04,1.22c0.03,0.24,0.08,0.45,0.15,0.63
		c0.2,0.25,0.61,0.41,1.23,0.47s1.17,0.08,1.68,0.06c0.06,0.51,0.09,0.83,0.09,0.97c0,0.23-0.03,0.46-0.09,0.68
		c-0.27,0.01-0.68,0.02-1.25,0.02c-0.99,0-1.76-0.12-2.32-0.36s-0.91-0.72-1.06-1.44c-0.14-1.23-0.21-2.83-0.21-4.81v-0.91
		c-0.08,0.01-0.27,0.02-0.57,0.02l-1.44-0.02l0.06-1.56c0.28,0.03,0.94,0.04,1.99,0.04l-0.02-1.99v-0.89c0-0.53,0.01-0.91,0.04-1.12
		c0.18-0.01,0.45-0.01,0.82,0.02l0.51,0.02C26.27,23.48,26.38,23.48,26.44,23.46z"/>
	<path d="M32.25,26.3v1.69c0.34-0.29,0.64-0.51,0.9-0.66s0.64-0.24,1.15-0.28c0.3-0.04,0.59-0.06,0.85-0.06
		c0.92,0,1.65,0.22,2.17,0.67c0.17,0.14,0.28,0.47,0.34,0.99c0.06,0.52,0.09,1.2,0.09,2.05c0,0.48-0.01,1.24-0.04,2.28
		c-0.03,1.01-0.04,1.74-0.04,2.17c0,0.35,0.01,0.79,0.04,1.29c-0.51,0.08-1.05,0.1-1.63,0.08c-0.03-0.38-0.04-0.71-0.04-0.99v-1.14
		v-3.72c-0.03-0.81-0.22-1.34-0.57-1.58c-0.08-0.05-0.23-0.1-0.46-0.15c-0.27-0.08-0.54-0.11-0.82-0.11c-0.49,0-0.92,0.12-1.26,0.37
		c-0.35,0.25-0.57,0.63-0.67,1.15c-0.09,0.48-0.13,1.06-0.13,1.73l0.02,0.65c0.03,0.84,0.04,1.53,0.04,2.07
		c0,0.68-0.01,1.21-0.04,1.58v0.08c-0.25,0.06-0.46,0.09-0.61,0.09l-0.57-0.02c-0.18,0-0.32,0.01-0.44,0.02
		c0-1.46-0.01-2.66-0.02-3.61l-0.02-5.81c0-1.42,0.01-2.88,0.04-4.37c0.39,0.04,0.71,0.05,0.95,0.04c0.06,0,0.14-0.01,0.24-0.02
		c0.09-0.01,0.19-0.02,0.29-0.02c0.13,0,0.19,0.02,0.19,0.06c0.03,0.11,0.04,0.89,0.04,2.32V26.3z"/>
	<path d="M40.46,31.67v0.34l-0.02,0.55c0,1.57,0.77,2.36,2.32,2.36c0.62,0,1.08-0.14,1.38-0.43c0.3-0.29,0.45-0.67,0.45-1.17
		c0-0.08-0.01-0.21-0.04-0.42c0.27-0.04,0.51-0.06,0.74-0.06c0.2,0,0.35,0.01,0.46,0.02c0.08,0,0.17,0,0.28,0.01
		c0.11,0.01,0.23,0,0.37-0.01c0.01,0.72-0.01,1.3-0.08,1.73s-0.21,0.84-0.46,1.23c-0.23,0.34-0.62,0.59-1.19,0.73
		s-1.18,0.22-1.85,0.22c-0.3,0-0.59-0.01-0.84-0.04c-0.26-0.03-0.42-0.05-0.48-0.08c-0.99-0.17-1.7-0.79-2.15-1.87
		s-0.63-2.32-0.57-3.71c0.01-0.1,0.03-0.31,0.06-0.64c0.03-0.32,0.06-0.66,0.1-1c0.04-0.34,0.13-0.68,0.26-1.01
		c0.24-0.56,0.68-0.99,1.31-1.29c0.63-0.3,1.34-0.46,2.11-0.46c0.41,0,0.83,0.05,1.27,0.15c1.72,0.29,2.58,1.59,2.58,3.89
		c0,0.19-0.01,0.46-0.04,0.82c-0.24,0.08-0.95,0.14-2.13,0.19c-0.14,0.01-0.44,0.02-0.91,0.02c-1,0-1.74-0.01-2.22-0.04
		C40.85,31.73,40.61,31.71,40.46,31.67z M45.08,30.25c-0.01-0.39-0.11-0.78-0.29-1.16c-0.18-0.38-0.45-0.68-0.79-0.89
		c-0.19-0.09-0.36-0.15-0.49-0.17c-0.14-0.03-0.32-0.04-0.53-0.04c-0.82,0-1.41,0.17-1.76,0.51c-0.35,0.34-0.57,0.83-0.66,1.46
		c-0.03,0.15-0.04,0.25-0.04,0.3c0,0.15,0.07,0.25,0.22,0.3c0.15,0.05,0.46,0.08,0.94,0.08c0.47,0,0.87-0.01,1.2-0.02
		c1.22,0,1.9-0.01,2.05-0.02c0.06-0.01,0.1-0.03,0.12-0.05c0.02-0.02,0.03-0.05,0.03-0.1V30.25z"/>
	<path d="M54.27,23.46v2.91l0.02,1.06c0.82-0.03,1.84-0.07,3.06-0.13c0.08,0.1,0.11,0.29,0.11,0.57l-0.02,0.44
		c-0.03,0.28-0.03,0.48-0.02,0.61c-1.38,0-2.41-0.01-3.1-0.02v2.91v0.65c0,0.57,0.01,0.98,0.04,1.22c0.03,0.24,0.08,0.45,0.15,0.63
		c0.2,0.25,0.61,0.41,1.22,0.47s1.17,0.08,1.68,0.06c0.06,0.51,0.1,0.83,0.1,0.97c0,0.23-0.03,0.46-0.1,0.68
		c-0.27,0.01-0.68,0.02-1.25,0.02c-0.99,0-1.76-0.12-2.32-0.36c-0.56-0.24-0.91-0.72-1.06-1.44c-0.14-1.23-0.21-2.83-0.21-4.81
		v-0.91c-0.08,0.01-0.27,0.02-0.57,0.02l-1.44-0.02l0.06-1.56c0.28,0.03,0.94,0.04,2,0.04l-0.02-1.99v-0.89
		c0-0.53,0.01-0.91,0.04-1.12c0.18-0.01,0.45-0.01,0.82,0.02l0.51,0.02C54.11,23.48,54.21,23.48,54.27,23.46z"/>
	<path d="M60.11,27.04c0,0.15,0,0.27,0.01,0.35c0.01,0.08,0.01,0.18,0.01,0.29c0.09-0.05,0.21-0.11,0.37-0.17
		c0.16-0.06,0.33-0.13,0.52-0.19c0.29-0.1,0.64-0.17,1.05-0.22c0.41-0.04,0.78-0.07,1.11-0.07c0.3,0,0.46,0.01,0.46,0.04l-0.02,1.58
		c0,0.25,0.01,0.44,0.02,0.57c-0.19-0.08-0.41-0.15-0.65-0.21c-0.28-0.06-0.58-0.09-0.91-0.09c-0.34,0-0.73,0.05-1.16,0.15
		c-0.35,0.09-0.6,0.22-0.72,0.4c-0.13,0.18-0.18,0.51-0.17,1.01c0.05,1.74,0.08,3.71,0.08,5.91v0.08c-0.22,0.05-0.44,0.08-0.67,0.08
		c-0.09,0-0.23,0-0.43-0.01c-0.2-0.01-0.4,0-0.6,0.01l-0.02-3.27c-0.03-1.49-0.04-2.62-0.04-3.36c0-0.61,0.01-1.57,0.04-2.89
		c0.13,0.01,0.26,0.02,0.41,0.01c0.15-0.01,0.28-0.01,0.39-0.01C59.35,27,59.55,27,59.8,27C60,27,60.11,27.01,60.11,27.04z"/>
	<path d="M70.86,26.94c0.29-0.01,0.67,0,1.12,0.04l0.49,0.04c0.03,0.2,0.04,0.35,0.04,0.46v0.19c-0.01,0.29-0.02,0.73-0.02,1.31
		c0,0.48,0.01,1.19,0.04,2.13l0.02,2.13c0,0.91-0.03,1.74-0.08,2.49c0,0.04,0,0.12,0,0.25c0,0.13-0.01,0.24-0.04,0.34
		c-0.03,0.1-0.1,0.17-0.21,0.19h-0.32l-0.61-0.02c-0.1,0-0.19,0.01-0.27,0.02s-0.15,0.02-0.21,0.02c-0.13-0.04-0.19-0.18-0.19-0.42
		c-0.01-0.1-0.01-0.22,0.01-0.34c0.02-0.13,0.03-0.23,0.03-0.32c-0.3,0.42-0.79,0.7-1.44,0.85c-0.66,0.15-1.3,0.23-1.94,0.23
		c-0.61,0-1.12-0.27-1.55-0.81c-0.42-0.54-0.74-1.2-0.94-1.99c-0.2-0.79-0.3-1.55-0.3-2.3c0-0.82,0.14-1.56,0.42-2.22
		c0.28-0.66,0.66-1.18,1.15-1.57c0.49-0.39,1.03-0.59,1.62-0.6l0.61-0.02c0.57,0,1.04,0.07,1.42,0.2c0.37,0.13,0.65,0.38,0.83,0.73
		c0-0.11,0.01-0.26,0.04-0.44c0.03-0.25,0.04-0.43,0.04-0.53C70.61,26.95,70.7,26.94,70.86,26.94z M68.73,28.65
		c-0.66-0.01-1.21,0.16-1.66,0.5s-0.72,0.76-0.83,1.24c-0.1,0.37-0.15,0.86-0.15,1.48c0.06,2.04,0.89,3.01,2.47,2.93
		c0.65,0,1.12-0.11,1.41-0.34c0.29-0.23,0.47-0.55,0.54-0.97c0.07-0.42,0.1-1.04,0.1-1.88c0-0.91-0.04-1.55-0.11-1.93
		c-0.08-0.37-0.24-0.63-0.48-0.77C69.77,28.78,69.34,28.69,68.73,28.65z"/>
	<path d="M74.38,26.88c0.09-0.01,0.27-0.01,0.53,0c0.38,0.03,0.8,0.04,1.25,0.04v0.06c0,0.57-0.01,1.45-0.04,2.64
		c-0.04,1.22-0.06,2.45-0.06,3.69c0,1.17,0.02,2.2,0.08,3.12c-0.18,0.04-0.44,0.06-0.8,0.06s-0.57,0-0.65,0
		c-0.23,0-0.37,0.01-0.42,0.02c0.01-0.37,0.02-0.92,0.02-1.67v-1.71v-1.6c-0.03-0.89-0.04-1.57-0.04-2.05
		c0-0.87,0.04-1.73,0.11-2.57V26.88z M74.3,22.8c0.79,0.03,1.38,0.04,1.79,0.04l0.06,2.51c-0.13,0.06-0.35,0.09-0.68,0.09
		c-0.2,0-0.35-0.01-0.46-0.02c-0.08,0-0.17,0-0.27-0.01c-0.1-0.01-0.22,0-0.36,0.01c0-0.19-0.01-0.5-0.04-0.93
		C74.3,23.65,74.29,23.09,74.3,22.8z"/>
	<path d="M78.27,22.67L80,22.72c0,0.52-0.01,1.8-0.04,3.86c-0.03,2.53-0.04,4.52-0.04,5.97c0,1.6,0.02,2.87,0.06,3.82
		c-0.08,0.09-0.29,0.13-0.63,0.13l-0.59-0.02c-0.11-0.01-0.25-0.02-0.42-0.02c-0.1,0-0.17,0.01-0.19,0.02
		c0.08-1.03,0.11-2.06,0.11-3.1c0-0.79-0.03-1.96-0.08-3.53s-0.08-2.75-0.08-3.55C78.12,24.95,78.17,23.74,78.27,22.67z"/>
	<path d="M91.21,32.76c0.15,0.03,0.29,0.04,0.42,0.04l0.67-0.02c0.2,0,0.38,0.02,0.53,0.06c-0.06,0.87-0.13,1.55-0.2,2.03
		c-0.07,0.48-0.18,0.8-0.33,0.95c-0.24,0.34-0.57,0.58-1,0.7c-0.42,0.13-0.93,0.19-1.51,0.19c-0.23,0-0.57-0.01-1.03-0.04
		l-0.87-0.02c-0.75-0.13-1.3-0.41-1.67-0.85c-0.37-0.44-0.61-0.95-0.71-1.55c-0.11-0.6-0.18-1.38-0.22-2.36
		c0-0.71-0.01-1.23-0.02-1.56c0-0.75,0.14-1.58,0.42-2.49c0.16-0.37,0.52-0.64,1.05-0.83c0.54-0.18,1.14-0.28,1.79-0.28
		c0.1,0.01,0.25,0.02,0.44,0.02c0.11,0,0.26,0,0.43-0.01c0.17-0.01,0.38,0,0.62,0.01c0.95,0.09,1.65,0.35,2.11,0.8
		c0.29,0.2,0.48,0.53,0.56,0.97c0.08,0.44,0.14,1.11,0.16,2l0.02,0.46c-0.19,0.04-0.38,0.06-0.57,0.06c-0.33,0-0.67-0.03-1.01-0.1
		c-0.01-0.9-0.17-1.51-0.48-1.84c-0.31-0.33-0.8-0.49-1.47-0.49c-0.14,0-0.39,0.01-0.74,0.04c-0.33,0.01-0.59,0.04-0.77,0.09
		c-0.18,0.05-0.35,0.17-0.49,0.36c-0.14,0.19-0.24,0.48-0.3,0.87c-0.04,0.27-0.06,0.74-0.06,1.42v1.52c-0.03,0.42,0.08,0.85,0.3,1.3
		c0.23,0.45,0.68,0.71,1.37,0.77c0.13,0.01,0.3,0.02,0.51,0.02c0.6,0,1.04-0.11,1.33-0.34c0.29-0.23,0.48-0.49,0.56-0.79
		C91.13,33.59,91.18,33.21,91.21,32.76z"/>
	<path d="M99.95,26.94c0.29-0.01,0.67,0,1.12,0.04l0.49,0.04c0.03,0.2,0.04,0.35,0.04,0.46v0.19c-0.01,0.29-0.02,0.73-0.02,1.31
		c0,0.48,0.01,1.19,0.04,2.13l0.02,2.13c0,0.91-0.03,1.74-0.08,2.49c0,0.04,0,0.12,0,0.25c0,0.13-0.01,0.24-0.04,0.34
		s-0.09,0.17-0.21,0.19h-0.32l-0.61-0.02c-0.1,0-0.19,0.01-0.27,0.02s-0.15,0.02-0.21,0.02c-0.13-0.04-0.19-0.18-0.19-0.42
		c-0.01-0.1-0.01-0.22,0.01-0.34c0.02-0.13,0.03-0.23,0.03-0.32c-0.3,0.42-0.79,0.7-1.44,0.85c-0.66,0.15-1.3,0.23-1.94,0.23
		c-0.61,0-1.12-0.27-1.55-0.81c-0.42-0.54-0.74-1.2-0.94-1.99c-0.2-0.79-0.3-1.55-0.3-2.3c0-0.82,0.14-1.56,0.42-2.22
		c0.28-0.66,0.66-1.18,1.15-1.57c0.49-0.39,1.03-0.59,1.62-0.6l0.61-0.02c0.57,0,1.04,0.07,1.42,0.2s0.65,0.38,0.83,0.73
		c0-0.11,0.01-0.26,0.04-0.44c0.03-0.25,0.04-0.43,0.04-0.53C99.7,26.95,99.78,26.94,99.95,26.94z M97.82,28.65
		c-0.66-0.01-1.21,0.16-1.66,0.5c-0.45,0.35-0.73,0.76-0.83,1.24c-0.1,0.37-0.15,0.86-0.15,1.48c0.06,2.04,0.89,3.01,2.47,2.93
		c0.65,0,1.11-0.11,1.41-0.34c0.29-0.23,0.47-0.55,0.54-0.97s0.1-1.04,0.1-1.88c0-0.91-0.04-1.55-0.11-1.93
		c-0.08-0.37-0.24-0.63-0.49-0.77C98.86,28.78,98.43,28.69,97.82,28.65z"/>
	<path d="M104.75,27.04c0.03,0.14,0.04,0.32,0.04,0.53v0.48c0.43-0.25,0.94-0.48,1.52-0.67c0.58-0.2,1.17-0.29,1.75-0.29
		c0.7,0.03,1.27,0.22,1.71,0.59c0.3,0.27,0.46,1.35,0.46,3.25c0,0.48-0.01,1.23-0.04,2.24c-0.03,0.96-0.04,1.66-0.04,2.09
		c0,0.56,0.01,0.96,0.02,1.2c-0.24,0.04-0.59,0.06-1.04,0.06h-0.63c-0.03-0.2-0.04-0.56-0.04-1.06v-0.82l0.02-1.22
		c0.03-0.82,0.03-1.41,0.02-1.77c0-0.08-0.02-0.34-0.05-0.78c-0.03-0.44-0.1-0.84-0.22-1.18c-0.04-0.44-0.35-0.65-0.93-0.61
		c-0.87,0.01-1.52,0.13-1.93,0.36c-0.41,0.23-0.64,0.64-0.69,1.23c-0.01,0.17-0.02,0.48-0.02,0.93c0,0.71,0.01,1.47,0.04,2.28
		c0.03,0.48,0.04,0.84,0.04,1.06c0,0.47-0.02,0.95-0.06,1.44v0.08c-0.24,0.05-0.48,0.07-0.71,0.07c-0.23-0.01-0.4-0.01-0.5-0.01
		c-0.2,0-0.36,0.01-0.47,0.02l-0.02-3.27c-0.03-1.49-0.04-2.62-0.04-3.36c0-0.61,0.01-1.57,0.04-2.89c0.15,0.01,0.33,0.02,0.53,0.02
		c0.2,0,0.37-0.01,0.49-0.02c0.08,0,0.17-0.01,0.27-0.02c0.1-0.01,0.2-0.02,0.3-0.02C104.69,26.98,104.75,27,104.75,27.04z"/>
	<path d="M117.03,27.04c0,0.15,0,0.27,0.01,0.35c0.01,0.08,0.01,0.18,0.01,0.29c0.09-0.05,0.21-0.11,0.37-0.17
		c0.16-0.06,0.33-0.13,0.52-0.19c0.29-0.1,0.64-0.17,1.05-0.22c0.41-0.04,0.78-0.07,1.11-0.07c0.3,0,0.46,0.01,0.46,0.04l-0.02,1.58
		c0,0.25,0.01,0.44,0.02,0.57c-0.19-0.08-0.41-0.15-0.65-0.21c-0.28-0.06-0.58-0.09-0.91-0.09c-0.34,0-0.73,0.05-1.16,0.15
		c-0.35,0.09-0.6,0.22-0.72,0.4c-0.13,0.18-0.18,0.51-0.17,1.01c0.05,1.74,0.08,3.71,0.08,5.91v0.08c-0.22,0.05-0.44,0.08-0.67,0.08
		c-0.09,0-0.23,0-0.43-0.01c-0.2-0.01-0.4,0-0.6,0.01l-0.02-3.27c-0.03-1.49-0.04-2.62-0.04-3.36c0-0.61,0.01-1.57,0.04-2.89
		c0.13,0.01,0.26,0.02,0.41,0.01c0.15-0.01,0.28-0.01,0.39-0.01c0.15-0.01,0.35-0.02,0.61-0.02C116.93,27,117.03,27.01,117.03,27.04
		z"/>
	<path d="M123.15,31.67v0.34l-0.02,0.55c0,1.57,0.77,2.36,2.32,2.36c0.62,0,1.08-0.14,1.38-0.43s0.45-0.67,0.45-1.17
		c0-0.08-0.01-0.21-0.04-0.42c0.27-0.04,0.51-0.06,0.74-0.06c0.2,0,0.35,0.01,0.46,0.02c0.08,0,0.17,0,0.28,0.01
		c0.11,0.01,0.23,0,0.37-0.01c0.01,0.72-0.01,1.3-0.08,1.73s-0.22,0.84-0.46,1.23c-0.23,0.34-0.62,0.59-1.19,0.73
		s-1.18,0.22-1.85,0.22c-0.3,0-0.59-0.01-0.85-0.04s-0.42-0.05-0.48-0.08c-0.99-0.17-1.7-0.79-2.15-1.87
		c-0.44-1.08-0.63-2.32-0.57-3.71c0.01-0.1,0.03-0.31,0.06-0.64c0.03-0.32,0.06-0.66,0.1-1s0.13-0.68,0.26-1.01
		c0.24-0.56,0.68-0.99,1.31-1.29c0.63-0.3,1.34-0.46,2.11-0.46c0.41,0,0.83,0.05,1.27,0.15c1.72,0.29,2.58,1.59,2.58,3.89
		c0,0.19-0.01,0.46-0.04,0.82c-0.24,0.08-0.95,0.14-2.13,0.19c-0.14,0.01-0.44,0.02-0.91,0.02c-1,0-1.74-0.01-2.22-0.04
		C123.53,31.73,123.3,31.71,123.15,31.67z M127.76,30.25c-0.01-0.39-0.11-0.78-0.29-1.16c-0.18-0.38-0.45-0.68-0.79-0.89
		c-0.19-0.09-0.35-0.15-0.49-0.17s-0.32-0.04-0.53-0.04c-0.82,0-1.41,0.17-1.76,0.51c-0.35,0.34-0.57,0.83-0.66,1.46
		c-0.03,0.15-0.04,0.25-0.04,0.3c0,0.15,0.07,0.25,0.22,0.3c0.14,0.05,0.46,0.08,0.94,0.08c0.47,0,0.87-0.01,1.2-0.02
		c1.22,0,1.9-0.01,2.05-0.02c0.06-0.01,0.1-0.03,0.12-0.05c0.02-0.02,0.03-0.05,0.03-0.1V30.25z"/>
	<path d="M136.22,26.94c0.29-0.01,0.67,0,1.12,0.04l0.49,0.04c0.03,0.2,0.04,0.35,0.04,0.46v0.19c-0.01,0.29-0.02,0.73-0.02,1.31
		c0,0.48,0.01,1.19,0.04,2.13l0.02,2.13c0,0.91-0.03,1.74-0.08,2.49c0,0.04,0,0.12,0,0.25c0,0.13-0.01,0.24-0.04,0.34
		c-0.03,0.1-0.1,0.17-0.21,0.19h-0.32l-0.61-0.02c-0.1,0-0.19,0.01-0.27,0.02s-0.15,0.02-0.21,0.02c-0.13-0.04-0.19-0.18-0.19-0.42
		c-0.01-0.1-0.01-0.22,0.01-0.34c0.02-0.13,0.03-0.23,0.03-0.32c-0.3,0.42-0.79,0.7-1.44,0.85c-0.66,0.15-1.3,0.23-1.94,0.23
		c-0.61,0-1.12-0.27-1.55-0.81c-0.42-0.54-0.74-1.2-0.94-1.99c-0.2-0.79-0.3-1.55-0.3-2.3c0-0.82,0.14-1.56,0.42-2.22
		c0.28-0.66,0.66-1.18,1.15-1.57c0.49-0.39,1.03-0.59,1.62-0.6l0.61-0.02c0.57,0,1.04,0.07,1.42,0.2c0.37,0.13,0.65,0.38,0.83,0.73
		c0-0.11,0.01-0.26,0.04-0.44c0.03-0.25,0.04-0.43,0.04-0.53C135.97,26.95,136.05,26.94,136.22,26.94z M134.09,28.65
		c-0.66-0.01-1.21,0.16-1.66,0.5s-0.72,0.76-0.83,1.24c-0.1,0.37-0.15,0.86-0.15,1.48c0.06,2.04,0.89,3.01,2.47,2.93
		c0.65,0,1.12-0.11,1.41-0.34c0.29-0.23,0.47-0.55,0.54-0.97c0.07-0.42,0.1-1.04,0.1-1.88c0-0.91-0.04-1.55-0.11-1.93
		c-0.08-0.37-0.24-0.63-0.48-0.77C135.13,28.78,134.7,28.69,134.09,28.65z"/>
	<path d="M144.92,32.76c0.15,0.03,0.29,0.04,0.42,0.04l0.67-0.02c0.2,0,0.38,0.02,0.53,0.06c-0.06,0.87-0.13,1.55-0.2,2.03
		c-0.07,0.48-0.18,0.8-0.33,0.95c-0.24,0.34-0.57,0.58-1,0.7c-0.42,0.13-0.93,0.19-1.51,0.19c-0.23,0-0.57-0.01-1.03-0.04
		l-0.87-0.02c-0.75-0.13-1.3-0.41-1.67-0.85c-0.37-0.44-0.61-0.95-0.71-1.55c-0.11-0.6-0.18-1.38-0.22-2.36
		c0-0.71-0.01-1.23-0.02-1.56c0-0.75,0.14-1.58,0.42-2.49c0.16-0.37,0.52-0.64,1.05-0.83c0.54-0.18,1.14-0.28,1.79-0.28
		c0.1,0.01,0.25,0.02,0.44,0.02c0.11,0,0.26,0,0.43-0.01c0.17-0.01,0.38,0,0.62,0.01c0.95,0.09,1.65,0.35,2.11,0.8
		c0.29,0.2,0.48,0.53,0.56,0.97c0.08,0.44,0.14,1.11,0.16,2l0.02,0.46c-0.19,0.04-0.38,0.06-0.57,0.06c-0.33,0-0.67-0.03-1.01-0.1
		c-0.01-0.9-0.17-1.51-0.48-1.84c-0.31-0.33-0.8-0.49-1.47-0.49c-0.14,0-0.39,0.01-0.74,0.04c-0.33,0.01-0.59,0.04-0.77,0.09
		c-0.18,0.05-0.35,0.17-0.49,0.36c-0.14,0.19-0.24,0.48-0.3,0.87c-0.04,0.27-0.06,0.74-0.06,1.42v1.52c-0.03,0.42,0.08,0.85,0.3,1.3
		c0.23,0.45,0.68,0.71,1.37,0.77c0.13,0.01,0.3,0.02,0.51,0.02c0.6,0,1.04-0.11,1.33-0.34c0.29-0.23,0.48-0.49,0.56-0.79
		C144.84,33.59,144.89,33.21,144.92,32.76z"/>
	<path d="M149.33,26.3v1.69c0.34-0.29,0.64-0.51,0.9-0.66s0.64-0.24,1.15-0.28c0.3-0.04,0.59-0.06,0.86-0.06
		c0.92,0,1.65,0.22,2.17,0.67c0.16,0.14,0.28,0.47,0.34,0.99s0.09,1.2,0.09,2.05c0,0.48-0.01,1.24-0.04,2.28
		c-0.03,1.01-0.04,1.74-0.04,2.17c0,0.35,0.01,0.79,0.04,1.29c-0.51,0.08-1.05,0.1-1.63,0.08c-0.03-0.38-0.04-0.71-0.04-0.99v-1.14
		v-3.72c-0.03-0.81-0.21-1.34-0.57-1.58c-0.08-0.05-0.23-0.1-0.46-0.15c-0.27-0.08-0.54-0.11-0.82-0.11c-0.49,0-0.92,0.12-1.26,0.37
		s-0.57,0.63-0.67,1.15c-0.09,0.48-0.13,1.06-0.13,1.73l0.02,0.65c0.03,0.84,0.04,1.53,0.04,2.07c0,0.68-0.01,1.21-0.04,1.58v0.08
		c-0.25,0.06-0.46,0.09-0.61,0.09l-0.57-0.02c-0.18,0-0.32,0.01-0.44,0.02c0-1.46-0.01-2.66-0.02-3.61l-0.02-5.81
		c0-1.42,0.01-2.88,0.04-4.37c0.39,0.04,0.71,0.05,0.95,0.04c0.06,0,0.14-0.01,0.24-0.02s0.19-0.02,0.29-0.02
		c0.13,0,0.19,0.02,0.19,0.06c0.03,0.11,0.04,0.89,0.04,2.32V26.3z"/>
	<path d="M164.62,34.81v1.46c-0.04,0.11-0.3,0.17-0.8,0.17c-0.51,0-0.93-0.03-1.27-0.08V34.5c0-0.92,0.03-1.99,0.09-3.19
		c0.06-2.38,0.1-3.99,0.11-4.83v-0.57c0-0.14-0.01-0.25-0.02-0.34c-0.08-0.01-0.26,0.27-0.55,0.84c-0.23,0.46-0.43,0.82-0.62,1.08
		c-0.18,0.27-0.35,0.4-0.49,0.4c-0.11,0-0.41-0.07-0.89-0.21s-0.72-0.25-0.72-0.32c0.24-0.52,0.55-1.1,0.92-1.76
		c0.37-0.65,0.71-1.22,1.02-1.69c0.3-0.48,0.51-0.79,0.63-0.94l1.18-0.02c0.28,0,0.79,0.01,1.52,0.04c0.04,0.48,0.06,1.19,0.06,2.13
		v1.06v0.97c0,0.85-0.03,2.12-0.08,3.82C164.66,32.39,164.62,33.67,164.62,34.81z"/>
	<path d="M166.24,30.49L166.22,30c-0.03-0.48-0.04-0.84-0.04-1.08c0-0.82,0.07-1.58,0.22-2.26c0.15-0.68,0.41-1.32,0.79-1.92
		c0.3-0.53,0.76-0.96,1.38-1.27s1.26-0.48,1.95-0.48c1.01,0,1.85,0.3,2.51,0.89c0.66,0.59,1.14,1.34,1.44,2.24
		c0.3,0.9,0.46,1.81,0.46,2.72c0,0.25-0.01,0.44-0.02,0.55l0.02,0.51c0,1.04-0.16,2.06-0.46,3.06c-0.31,1-0.8,1.83-1.45,2.49
		c-0.66,0.66-1.48,0.99-2.47,0.99c-0.65,0-1.18-0.08-1.6-0.25c-0.8-0.29-1.39-0.73-1.78-1.31c-0.39-0.58-0.63-1.21-0.73-1.87
		S166.26,31.51,166.24,30.49z M168.06,30.13c0.01,1.18,0.15,2.19,0.43,3.04s0.87,1.29,1.78,1.33c0.32,0.03,0.59,0,0.82-0.08
		c0.6-0.2,1.05-0.6,1.36-1.19s0.46-1.16,0.45-1.72s-0.02-0.86-0.02-0.89c0-0.24,0.01-0.42,0.02-0.55l0.02-0.7
		c0-0.16-0.01-0.5-0.04-1.01c-0.03-0.84-0.21-1.6-0.56-2.28c-0.35-0.68-0.9-1.08-1.64-1.18c-1.03,0-1.7,0.3-2.02,0.9
		c-0.32,0.6-0.48,1.18-0.48,1.72c-0.03,0.18-0.05,0.42-0.08,0.74C168.06,29.16,168.05,29.78,168.06,30.13z"/>
	<path d="M175.98,30.49L175.97,30c-0.03-0.48-0.04-0.84-0.04-1.08c0-0.82,0.07-1.58,0.22-2.26c0.15-0.68,0.41-1.32,0.79-1.92
		c0.3-0.53,0.76-0.96,1.38-1.27c0.61-0.32,1.26-0.48,1.95-0.48c1.01,0,1.85,0.3,2.51,0.89c0.66,0.59,1.14,1.34,1.44,2.24
		c0.3,0.9,0.46,1.81,0.46,2.72c0,0.25-0.01,0.44-0.02,0.55l0.02,0.51c0,1.04-0.16,2.06-0.47,3.06c-0.31,1-0.79,1.83-1.45,2.49
		c-0.66,0.66-1.48,0.99-2.47,0.99c-0.65,0-1.18-0.08-1.6-0.25c-0.8-0.29-1.39-0.73-1.78-1.31c-0.39-0.58-0.63-1.21-0.73-1.87
		S176.01,31.51,175.98,30.49z M177.81,30.13c0.01,1.18,0.16,2.19,0.43,3.04s0.86,1.29,1.78,1.33c0.32,0.03,0.59,0,0.82-0.08
		c0.59-0.2,1.05-0.6,1.36-1.19c0.31-0.59,0.46-1.16,0.45-1.72s-0.02-0.86-0.02-0.89c0-0.24,0.01-0.42,0.02-0.55l0.02-0.7
		c0-0.16-0.01-0.5-0.04-1.01c-0.03-0.84-0.21-1.6-0.56-2.28c-0.35-0.68-0.9-1.08-1.64-1.18c-1.03,0-1.7,0.3-2.02,0.9
		c-0.32,0.6-0.49,1.18-0.49,1.72c-0.03,0.18-0.05,0.42-0.08,0.74C177.8,29.16,177.8,29.78,177.81,30.13z"/>
	<path d="M188.77,28.77c-0.35,0.06-0.68,0.09-0.97,0.09c-0.41,0-0.8-0.06-1.18-0.17c-0.43-0.21-0.71-0.47-0.84-0.78
		c-0.05-0.14-0.09-0.32-0.11-0.55c-0.01-0.11-0.03-0.28-0.04-0.48c-0.01-0.21-0.02-0.4-0.02-0.56c0-0.37,0.04-0.7,0.11-1.01
		c0.1-0.3,0.28-0.55,0.53-0.75c0.25-0.2,0.56-0.33,0.91-0.39l0.25-0.02c0.19-0.01,0.44-0.02,0.74-0.02c0.32,0,0.58,0.03,0.78,0.09
		l0.34,0.13c0.19,0.06,0.37,0.17,0.53,0.32c0.24,0.19,0.39,0.49,0.46,0.89c0.03,0.11,0.04,0.28,0.04,0.49v0.34
		c0,1.23-0.39,1.98-1.16,2.26C189.05,28.71,188.92,28.74,188.77,28.77z M188.92,25.08c-0.24-0.08-0.55-0.11-0.93-0.11
		c-0.34,0-0.64,0.03-0.89,0.08c-0.33,0.11-0.53,0.35-0.61,0.7c-0.03,0.28-0.04,0.49-0.04,0.63l0.02,0.8c0,0.23,0.06,0.42,0.19,0.58
		s0.3,0.25,0.51,0.28c0.48,0.03,0.9,0.01,1.25-0.04c0.04,0,0.07-0.01,0.09-0.02s0.06-0.02,0.09-0.02h0.02
		c0.25-0.03,0.43-0.11,0.53-0.26s0.18-0.35,0.23-0.6c0.03-0.1,0.04-0.22,0.06-0.36s0.03-0.26,0.04-0.36
		c0.03-0.15,0.04-0.27,0.04-0.34c0-0.27-0.08-0.49-0.25-0.67C189.17,25.23,189.05,25.13,188.92,25.08z"/>
	<path d="M16.06,45.96c0.41,0.1,0.79,0.3,1.17,0.59c0.37,0.29,0.67,0.63,0.9,1.01c0.37,0.59,0.67,1.24,0.9,1.94
		c0.23,0.7,0.37,1.38,0.41,2.05l-0.04,0.86c-0.03,1.14-0.1,2.05-0.23,2.72c0,0.04-0.04,0.13-0.1,0.29s-0.14,0.31-0.2,0.47
		c-0.19,0.44-0.48,0.97-0.87,1.57c-0.39,0.6-0.81,1.18-1.25,1.74c-1.12,0.04-2.78,0.06-5,0.06l-0.02,0.02
		c-0.21-1.56-0.32-3.59-0.32-6.1c0-1.13,0.01-1.98,0.02-2.55l0.02-2.56c0-0.81-0.01-1.42-0.02-1.82l0.06-0.08
		c0.56-0.14,1.27-0.21,2.15-0.21c0.42,0,0.73,0.01,0.93,0.02C15.07,45.97,15.57,45.97,16.06,45.96z M14.35,56.83
		c0.62-0.01,1.07-0.05,1.34-0.1c0.27-0.06,0.48-0.15,0.62-0.28c0.14-0.13,0.34-0.37,0.61-0.72c0.37-0.48,0.65-1.29,0.84-2.41
		c0.03-0.3,0.04-0.53,0.04-0.68c0-0.15-0.01-0.38-0.04-0.68c-0.06-0.67-0.2-1.27-0.42-1.79c-0.22-0.52-0.47-0.93-0.76-1.24
		c-0.29-0.3-0.58-0.48-0.86-0.53c-0.33-0.03-0.54-0.04-0.65-0.04c-0.34-0.03-0.95,0-1.82,0.08h-0.1c0.05,0.35,0.08,1.03,0.08,2.01
		c0,0.81-0.01,1.5-0.04,2.05l-0.02,0.67c0,0.22,0.01,0.7,0.04,1.46l0.09,2.09C13.41,56.79,13.76,56.83,14.35,56.83z"/>
	<path d="M20.28,53.1c0-0.47,0.02-0.87,0.07-1.22c0.04-0.34,0.16-0.77,0.33-1.27c0.16-0.37,0.52-0.64,1.05-0.83
		c0.54-0.18,1.14-0.28,1.79-0.28c0.09,0.01,0.22,0.02,0.38,0.02l0.76-0.02c1.06,0,1.88,0.28,2.45,0.84c0.23,0.15,0.4,0.44,0.52,0.85
		c0.12,0.42,0.19,0.98,0.22,1.68S27.9,54,27.9,54.11c-0.05,1.27-0.11,2.27-0.18,3.02c-0.07,0.75-0.21,1.23-0.43,1.44
		c-0.24,0.34-0.57,0.58-1,0.7c-0.42,0.13-0.93,0.19-1.51,0.19c-0.23,0-0.57-0.01-1.03-0.04l-0.87-0.02
		c-0.75-0.13-1.31-0.4-1.68-0.82c-0.37-0.42-0.61-0.91-0.72-1.46c-0.11-0.56-0.16-1.23-0.16-2.01v-0.99
		C20.32,53.66,20.31,53.32,20.28,53.1z M24.16,51.3c-0.86,0-1.48,0.22-1.86,0.67c-0.17,0.2-0.27,0.46-0.31,0.77
		c-0.04,0.31-0.06,0.71-0.05,1.21c-0.01,0.19-0.01,0.44,0.01,0.76c0.02,0.32,0.03,0.56,0.03,0.74l0.04,0.8
		c0.04,0.51,0.18,0.86,0.43,1.07c0.25,0.21,0.56,0.35,0.94,0.43c0.25,0.04,0.51,0.06,0.78,0.06c0.49,0,0.92-0.09,1.29-0.27
		c0.37-0.18,0.6-0.47,0.7-0.87c0.05-0.33,0.08-0.59,0.08-0.78c0.06-0.89,0.09-1.49,0.09-1.8c0-0.84-0.15-1.51-0.46-2.01
		C25.56,51.55,24.99,51.3,24.16,51.3z"/>
	<path d="M31.85,49.78c0.22,0.01,0.54,0.02,0.99,0.02c0.43,0,0.73,0.01,0.91,0.04l0.68,2.6c0.47,1.79,0.83,3.13,1.08,4.04
		c0.25,0.91,0.46,1.51,0.63,1.81c0.19-0.23,0.41-0.85,0.67-1.86c0.25-1.01,0.56-2.36,0.91-4.03c0.04-0.15,0.13-0.58,0.28-1.27
		c0.15-0.7,0.25-1.13,0.31-1.29l0.74-0.02c0.46-0.03,0.83-0.03,1.12-0.02c-0.13,0.46-0.35,1.38-0.68,2.77L39.15,54
		c-0.05,0.17-0.16,0.69-0.34,1.58c-0.33,1.53-0.67,2.76-1.04,3.7c-0.36,0.93-0.97,1.73-1.83,2.39s-2.06,1-3.61,1
		c-0.28,0-0.49-0.01-0.65-0.02c-0.1-0.27-0.15-0.6-0.15-0.99c0-0.29,0.03-0.53,0.08-0.72c0.41,0.03,0.7,0.04,0.87,0.04
		c1.44,0,2.17-0.37,2.17-1.12c0-0.06-0.01-0.16-0.04-0.29l-1.35-4.77C32.82,53.28,32.35,51.6,31.85,49.78z"/>
	<path d="M40.55,53.1c0-0.47,0.02-0.87,0.07-1.22c0.04-0.34,0.15-0.77,0.33-1.27c0.17-0.37,0.52-0.64,1.05-0.83s1.14-0.28,1.8-0.28
		c0.09,0.01,0.21,0.02,0.38,0.02l0.76-0.02c1.06,0,1.88,0.28,2.45,0.84c0.23,0.15,0.4,0.44,0.52,0.85c0.12,0.42,0.19,0.98,0.22,1.68
		c0.02,0.7,0.04,1.11,0.04,1.23c-0.05,1.27-0.11,2.27-0.18,3.02c-0.07,0.75-0.21,1.23-0.43,1.44c-0.24,0.34-0.57,0.58-1,0.7
		c-0.42,0.13-0.93,0.19-1.51,0.19c-0.23,0-0.57-0.01-1.03-0.04l-0.87-0.02c-0.75-0.13-1.31-0.4-1.68-0.82
		c-0.37-0.42-0.61-0.91-0.72-1.46c-0.11-0.56-0.16-1.23-0.16-2.01v-0.99C40.59,53.66,40.58,53.32,40.55,53.1z M44.43,51.3
		c-0.86,0-1.48,0.22-1.86,0.67c-0.17,0.2-0.27,0.46-0.31,0.77c-0.04,0.31-0.06,0.71-0.05,1.21c-0.01,0.19-0.01,0.44,0.01,0.76
		c0.02,0.32,0.03,0.56,0.03,0.74l0.04,0.8c0.04,0.51,0.18,0.86,0.43,1.07s0.56,0.35,0.94,0.43c0.25,0.04,0.51,0.06,0.78,0.06
		c0.49,0,0.92-0.09,1.29-0.27c0.37-0.18,0.6-0.47,0.7-0.87c0.05-0.33,0.08-0.59,0.08-0.78c0.06-0.89,0.1-1.49,0.1-1.8
		c0-0.84-0.15-1.51-0.46-2.01C45.84,51.55,45.27,51.3,44.43,51.3z"/>
	<path d="M54.8,59.28c-0.01-0.24-0.02-0.44-0.02-0.6s-0.01-0.29-0.02-0.41c-0.03,0.01-0.13,0.08-0.3,0.21
		c-0.18,0.13-0.46,0.23-0.86,0.32c-0.73,0.27-1.45,0.4-2.15,0.4c-0.79,0-1.38-0.19-1.77-0.57c-0.21-0.19-0.35-0.51-0.4-0.96
		c-0.05-0.45-0.08-1.17-0.1-2.16v-0.59c0-0.39,0.01-0.97,0.04-1.73c0.04-0.76,0.06-1.48,0.06-2.17c0-0.33-0.01-0.73-0.04-1.22
		c0.23-0.03,0.54-0.04,0.93-0.04h0.63c0.04,0.38,0.06,0.83,0.06,1.35l-0.02,1.54c0,0.51,0.01,0.87,0.02,1.1l0.02,0.53
		c0,0.46,0.02,0.99,0.06,1.6c0.03,0.42,0.11,0.73,0.26,0.95c0.15,0.21,0.36,0.36,0.66,0.44c0.25,0.04,0.49,0.06,0.7,0.06
		c0.75,0,1.32-0.2,1.72-0.61c0.4-0.41,0.6-0.96,0.62-1.65c0.01-0.46-0.01-1.29-0.06-2.49c-0.03-0.61-0.04-1.01-0.04-1.2
		c0-0.34,0.01-0.83,0.04-1.46v-0.08c0.2-0.05,0.4-0.08,0.58-0.09s0.29-0.02,0.33-0.02c0.27,0,0.49-0.01,0.68-0.02l0.02,3.27
		c0.02,1.5,0.04,2.62,0.04,3.36c0,0.61-0.01,1.57-0.04,2.89c-0.28,0-0.59,0.02-0.93,0.06c-0.06,0-0.14,0.01-0.24,0.02
		s-0.19,0.02-0.29,0.02C54.87,59.34,54.8,59.32,54.8,59.28z"/>
	<path d="M63.35,49.1v1.69c0.34-0.29,0.64-0.51,0.9-0.66s0.64-0.24,1.15-0.28c0.3-0.04,0.59-0.06,0.85-0.06
		c0.92,0,1.65,0.22,2.17,0.67c0.17,0.14,0.28,0.47,0.34,0.99c0.06,0.52,0.09,1.2,0.09,2.05c0,0.48-0.01,1.24-0.04,2.28
		c-0.03,1.01-0.04,1.74-0.04,2.17c0,0.35,0.01,0.79,0.04,1.29c-0.51,0.08-1.05,0.1-1.63,0.08c-0.03-0.38-0.04-0.71-0.04-0.99v-1.14
		v-3.72c-0.03-0.81-0.22-1.34-0.57-1.58c-0.08-0.05-0.23-0.1-0.46-0.15c-0.27-0.08-0.54-0.11-0.82-0.11c-0.49,0-0.92,0.12-1.26,0.37
		c-0.35,0.25-0.57,0.63-0.67,1.15c-0.09,0.48-0.13,1.06-0.13,1.73l0.02,0.65c0.03,0.84,0.04,1.53,0.04,2.07
		c0,0.68-0.01,1.21-0.04,1.58v0.08c-0.25,0.06-0.46,0.09-0.61,0.09l-0.57-0.02c-0.18,0-0.32,0.01-0.44,0.02
		c0-1.46-0.01-2.66-0.02-3.61l-0.02-5.81c0-1.42,0.01-2.88,0.04-4.37c0.39,0.04,0.71,0.05,0.95,0.04c0.06,0,0.14-0.01,0.24-0.02
		c0.09-0.01,0.19-0.02,0.29-0.02c0.13,0,0.19,0.02,0.19,0.06c0.03,0.11,0.04,0.89,0.04,2.32V49.1z"/>
	<path d="M76.2,49.74c0.29-0.01,0.67,0,1.12,0.04l0.49,0.04c0.03,0.2,0.04,0.35,0.04,0.46v0.19c-0.01,0.29-0.02,0.73-0.02,1.31
		c0,0.48,0.01,1.19,0.04,2.13l0.02,2.13c0,0.91-0.03,1.74-0.08,2.49c0,0.04,0,0.12,0,0.25c0,0.13-0.01,0.24-0.04,0.34
		c-0.03,0.1-0.1,0.17-0.21,0.19h-0.32l-0.61-0.02c-0.1,0-0.19,0.01-0.27,0.02s-0.15,0.02-0.21,0.02c-0.13-0.04-0.19-0.18-0.19-0.42
		c-0.01-0.1-0.01-0.22,0.01-0.34c0.02-0.13,0.03-0.23,0.03-0.32c-0.3,0.42-0.79,0.7-1.44,0.85c-0.66,0.15-1.3,0.23-1.94,0.23
		c-0.61,0-1.12-0.27-1.55-0.81c-0.42-0.54-0.74-1.2-0.94-1.99c-0.2-0.79-0.3-1.55-0.3-2.3c0-0.82,0.14-1.56,0.42-2.22
		c0.28-0.66,0.66-1.18,1.15-1.57c0.49-0.39,1.03-0.59,1.62-0.6l0.61-0.02c0.57,0,1.04,0.07,1.42,0.2c0.37,0.13,0.65,0.38,0.83,0.73
		c0-0.11,0.01-0.26,0.04-0.44c0.03-0.25,0.04-0.43,0.04-0.53C75.95,49.75,76.03,49.74,76.2,49.74z M74.07,51.45
		c-0.66-0.01-1.21,0.16-1.66,0.5s-0.72,0.76-0.83,1.24c-0.1,0.37-0.15,0.86-0.15,1.48c0.06,2.04,0.89,3.01,2.47,2.93
		c0.65,0,1.12-0.11,1.41-0.34c0.29-0.23,0.47-0.55,0.54-0.97c0.07-0.42,0.1-1.04,0.1-1.88c0-0.91-0.04-1.55-0.11-1.93
		c-0.08-0.37-0.24-0.63-0.48-0.77C75.11,51.58,74.68,51.49,74.07,51.45z"/>
	<path d="M78.72,49.78c0.19,0.03,0.46,0.04,0.8,0.04c0.11,0,0.25,0,0.41-0.01c0.16-0.01,0.33,0,0.52,0.01
		c0.2,0.71,0.58,2.06,1.12,4.05c0.27,1,0.46,1.72,0.59,2.17c0.13,0.44,0.28,0.87,0.46,1.29c0.11-0.28,0.25-0.7,0.42-1.27
		c0.16-0.57,0.27-0.94,0.32-1.12c0.62-2.12,1.15-3.81,1.6-5.07c0.11,0,0.3-0.01,0.55-0.04c0.46-0.03,0.84-0.03,1.14-0.02
		c-0.25,0.67-0.49,1.37-0.7,2.08c-0.22,0.72-0.42,1.42-0.61,2.12c-0.61,2.1-1.15,3.86-1.63,5.26c-0.2,0.04-0.53,0.06-0.97,0.06
		l-1.37-0.02c-0.56-1.77-0.97-3.12-1.23-4.04c-0.26-0.92-0.52-1.93-0.79-3.03L78.72,49.78z"/>
	<path d="M88.51,54.47v0.34l-0.02,0.55c0,1.57,0.77,2.36,2.32,2.36c0.62,0,1.08-0.14,1.38-0.43s0.45-0.67,0.45-1.17
		c0-0.08-0.01-0.21-0.04-0.42c0.27-0.04,0.51-0.06,0.74-0.06c0.2,0,0.35,0.01,0.46,0.02c0.08,0,0.17,0,0.28,0.01
		c0.11,0.01,0.23,0,0.37-0.01c0.01,0.72-0.01,1.3-0.08,1.73s-0.22,0.84-0.46,1.23c-0.23,0.34-0.62,0.59-1.19,0.73
		s-1.18,0.22-1.85,0.22c-0.3,0-0.59-0.01-0.85-0.04s-0.42-0.05-0.48-0.08c-0.99-0.17-1.7-0.79-2.15-1.87
		c-0.44-1.08-0.63-2.32-0.57-3.71c0.01-0.1,0.03-0.31,0.06-0.64c0.03-0.32,0.06-0.66,0.1-1s0.13-0.68,0.26-1.01
		c0.24-0.56,0.68-0.99,1.31-1.29c0.63-0.3,1.34-0.46,2.11-0.46c0.41,0,0.83,0.05,1.27,0.15c1.72,0.29,2.58,1.59,2.58,3.89
		c0,0.19-0.01,0.46-0.04,0.82c-0.24,0.08-0.95,0.14-2.13,0.19c-0.14,0.01-0.44,0.02-0.91,0.02c-1,0-1.74-0.01-2.22-0.04
		C88.9,54.53,88.66,54.51,88.51,54.47z M93.13,53.05c-0.01-0.39-0.11-0.78-0.29-1.16c-0.18-0.38-0.45-0.68-0.79-0.89
		c-0.19-0.09-0.35-0.15-0.49-0.17s-0.32-0.04-0.53-0.04c-0.82,0-1.41,0.17-1.76,0.51c-0.35,0.34-0.57,0.83-0.66,1.46
		c-0.03,0.15-0.04,0.25-0.04,0.3c0,0.15,0.07,0.25,0.22,0.3c0.14,0.05,0.46,0.08,0.94,0.08c0.47,0,0.87-0.01,1.2-0.02
		c1.22,0,1.9-0.01,2.05-0.02c0.06-0.01,0.1-0.03,0.12-0.05c0.02-0.02,0.03-0.05,0.03-0.1V53.05z"/>
	<path d="M106.94,52.71c-0.41,0.06-0.85,0.1-1.34,0.11c-0.49,0.01-0.95-0.03-1.38-0.11c0.04-0.15,0.02-0.3-0.05-0.46
		c-0.07-0.15-0.17-0.29-0.3-0.4c-0.13-0.11-0.29-0.2-0.46-0.26s-0.34-0.08-0.5-0.07c-0.29,0.05-0.51,0.16-0.66,0.33
		c-0.15,0.17-0.22,0.36-0.22,0.56c0,0.2,0.08,0.41,0.23,0.61c0.15,0.2,0.37,0.35,0.67,0.46c0.71,0.1,1.37,0.24,2,0.41
		c0.62,0.17,1.08,0.45,1.37,0.83c0.28,0.46,0.45,0.92,0.51,1.4c0.06,0.47-0.03,1.06-0.27,1.76c-0.29,0.62-0.75,1.06-1.37,1.33
		c-0.62,0.27-1.3,0.39-2.03,0.38c-0.65,0.03-1.23-0.03-1.75-0.17c-0.52-0.14-0.97-0.35-1.34-0.63c-0.37-0.28-0.67-0.62-0.87-1.03
		s-0.31-0.86-0.31-1.37v-0.06V56.3c0.42-0.05,0.89-0.07,1.42-0.05c0.53,0.02,1,0.03,1.39,0.03c0.01,0.29,0.15,0.53,0.41,0.71
		s0.54,0.29,0.83,0.32c0.29,0.03,0.56-0.02,0.8-0.16c0.24-0.14,0.35-0.39,0.34-0.76c0.04-0.3-0.03-0.53-0.21-0.68
		c-0.18-0.15-0.41-0.27-0.7-0.35c-0.29-0.08-0.62-0.15-0.99-0.22s-0.73-0.17-1.08-0.32c-0.71-0.24-1.23-0.62-1.55-1.13
		c-0.32-0.51-0.47-1.04-0.46-1.6c0.02-0.55,0.2-1.06,0.53-1.53s0.81-0.79,1.43-0.95c0.24-0.06,0.54-0.11,0.88-0.15
		s0.72-0.06,1.11-0.06s0.79,0.02,1.18,0.07c0.39,0.04,0.75,0.1,1.08,0.18c0.6,0.25,1.02,0.66,1.27,1.21
		C106.81,51.4,106.94,52.02,106.94,52.71z"/>
	<path d="M112.54,58.25c-0.06,0.04-0.14,0.08-0.24,0.13s-0.17,0.1-0.24,0.15c-0.27,0.19-0.56,0.34-0.89,0.46
		c-0.33,0.11-0.67,0.18-1.02,0.19c-0.35,0.01-0.69-0.03-1.02-0.11c-0.33-0.09-0.63-0.25-0.89-0.47c-0.13-0.11-0.22-0.35-0.29-0.71
		c-0.07-0.36-0.11-0.79-0.13-1.3c-0.02-0.51-0.03-1.06-0.02-1.66c0.01-0.6,0.02-1.21,0.03-1.82s0.03-1.21,0.04-1.78
		s0.01-1.07-0.02-1.5c0.44-0.06,0.84-0.09,1.19-0.09c0.35,0.01,0.74,0.01,1.19,0.01c0.03,0.29,0.04,0.62,0.04,0.99s0,0.75-0.01,1.14
		c-0.01,0.39-0.01,0.79,0,1.18c0.01,0.39,0.02,0.76,0.05,1.1c0.01,0.15,0.02,0.32,0.04,0.5c0.01,0.18,0.04,0.36,0.07,0.54
		c0.03,0.18,0.08,0.34,0.13,0.47c0.06,0.14,0.14,0.25,0.24,0.32c0.01,0.01,0.03,0.02,0.04,0.02s0.03,0.01,0.04,0.02
		c0.1,0.05,0.25,0.09,0.45,0.12c0.2,0.03,0.39,0.02,0.58-0.04c0.19-0.06,0.36-0.17,0.51-0.34c0.15-0.17,0.24-0.43,0.27-0.77
		c0.03-0.43,0.03-0.86,0.02-1.29c-0.01-0.43-0.03-0.86-0.05-1.28c-0.02-0.42-0.03-0.85-0.04-1.26c-0.01-0.42,0.02-0.84,0.09-1.25
		v-0.08c0.21-0.06,0.4-0.1,0.56-0.11c0.16-0.01,0.32-0.02,0.48-0.01c0.16,0.01,0.35,0.02,0.55,0.03c0.2,0.01,0.46,0.01,0.76-0.02
		c0,1.56,0.02,3.12,0.05,4.67c0.03,1.56,0.02,3.17-0.03,4.84c-0.15-0.01-0.28-0.02-0.38-0.03c-0.1-0.01-0.2-0.01-0.28-0.01
		c-0.09,0-0.18,0-0.29,0.01c-0.1,0.01-0.23,0.02-0.38,0.03c-0.05,0-0.14,0.01-0.27,0.03c-0.13,0.02-0.25,0.04-0.38,0.05
		s-0.24,0.02-0.34,0.01c-0.1-0.01-0.15-0.03-0.15-0.07c-0.03-0.22-0.04-0.39-0.03-0.53C112.56,58.59,112.56,58.43,112.54,58.25z"/>
	<path d="M118.97,50.81c0.06-0.04,0.14-0.08,0.24-0.13c0.09-0.05,0.17-0.1,0.24-0.15c0.27-0.19,0.56-0.34,0.89-0.46
		s0.67-0.18,1.02-0.19c0.35-0.01,0.69,0.03,1.02,0.11c0.33,0.09,0.63,0.25,0.89,0.47c0.13,0.11,0.22,0.35,0.29,0.71
		c0.07,0.36,0.11,0.79,0.13,1.3c0.02,0.51,0.03,1.06,0.02,1.66c-0.01,0.6-0.02,1.21-0.03,1.82s-0.03,1.21-0.04,1.78
		s-0.01,1.07,0.02,1.5c-0.44,0.06-0.84,0.09-1.19,0.09c-0.35-0.01-0.74-0.01-1.19-0.01c-0.03-0.29-0.04-0.62-0.04-0.99
		c0-0.37,0-0.75,0.01-1.14c0.01-0.39,0.01-0.79,0-1.18c-0.01-0.39-0.02-0.76-0.05-1.1c-0.01-0.15-0.03-0.32-0.04-0.5
		s-0.04-0.36-0.07-0.54c-0.03-0.18-0.08-0.33-0.13-0.47s-0.14-0.25-0.24-0.32c-0.01-0.01-0.03-0.02-0.04-0.02s-0.03-0.01-0.04-0.02
		c-0.1-0.05-0.25-0.09-0.45-0.12c-0.2-0.03-0.39-0.02-0.58,0.04c-0.19,0.06-0.36,0.17-0.51,0.34s-0.24,0.43-0.27,0.77
		c-0.03,0.44-0.03,0.88-0.02,1.3c0.01,0.42,0.03,0.85,0.05,1.27c0.02,0.42,0.03,0.85,0.03,1.26s-0.03,0.84-0.08,1.25v0.08
		c-0.22,0.06-0.4,0.1-0.56,0.11s-0.32,0.02-0.48,0.01c-0.17-0.01-0.35-0.02-0.55-0.03c-0.2-0.01-0.46-0.01-0.76,0.02
		c0-1.56-0.02-3.12-0.05-4.67c-0.03-1.56-0.02-3.17,0.03-4.84c0.15,0.01,0.28,0.02,0.38,0.03c0.1,0.01,0.2,0.01,0.29,0.01
		s0.18,0,0.29-0.01c0.1-0.01,0.23-0.02,0.38-0.03c0.05,0,0.14-0.01,0.27-0.03c0.13-0.02,0.25-0.04,0.38-0.05
		c0.13-0.01,0.24-0.02,0.34-0.01c0.1,0.01,0.15,0.03,0.15,0.07c0.03,0.22,0.04,0.39,0.03,0.53
		C118.95,50.47,118.95,50.63,118.97,50.81z"/>
	<path d="M132.59,52.71c-0.41,0.06-0.85,0.1-1.34,0.11c-0.49,0.01-0.95-0.03-1.38-0.11c0.04-0.15,0.02-0.3-0.05-0.46
		c-0.07-0.15-0.17-0.29-0.3-0.4c-0.13-0.11-0.29-0.2-0.46-0.26s-0.34-0.08-0.5-0.07c-0.29,0.05-0.51,0.16-0.66,0.33
		c-0.15,0.17-0.22,0.36-0.22,0.56c0,0.2,0.08,0.41,0.23,0.61c0.15,0.2,0.37,0.35,0.67,0.46c0.71,0.1,1.37,0.24,2,0.41
		c0.62,0.17,1.08,0.45,1.37,0.83c0.28,0.46,0.45,0.92,0.51,1.4c0.06,0.47-0.03,1.06-0.27,1.76c-0.29,0.62-0.75,1.06-1.37,1.33
		c-0.62,0.27-1.3,0.39-2.03,0.38c-0.65,0.03-1.23-0.03-1.75-0.17c-0.52-0.14-0.97-0.35-1.34-0.63c-0.37-0.28-0.67-0.62-0.87-1.03
		s-0.31-0.86-0.31-1.37v-0.06V56.3c0.42-0.05,0.89-0.07,1.42-0.05c0.53,0.02,1,0.03,1.39,0.03c0.01,0.29,0.15,0.53,0.41,0.71
		s0.54,0.29,0.83,0.32c0.29,0.03,0.56-0.02,0.8-0.16c0.24-0.14,0.35-0.39,0.34-0.76c0.04-0.3-0.03-0.53-0.21-0.68
		c-0.18-0.15-0.41-0.27-0.7-0.35c-0.29-0.08-0.62-0.15-0.99-0.22s-0.73-0.17-1.08-0.32c-0.71-0.24-1.23-0.62-1.55-1.13
		c-0.32-0.51-0.47-1.04-0.46-1.6c0.02-0.55,0.2-1.06,0.53-1.53s0.81-0.79,1.43-0.95c0.24-0.06,0.54-0.11,0.88-0.15
		s0.72-0.06,1.11-0.06s0.79,0.02,1.18,0.07c0.39,0.04,0.75,0.1,1.08,0.18c0.6,0.25,1.02,0.66,1.27,1.21
		C132.46,51.4,132.59,52.02,132.59,52.71z"/>
	<path d="M140.85,55.63c-0.03,0.33-0.05,0.65-0.08,0.97s-0.06,0.61-0.09,0.88c-0.04,0.27-0.08,0.51-0.14,0.7
		c-0.06,0.2-0.13,0.34-0.22,0.43c-0.21,0.3-0.5,0.52-0.84,0.65c-0.35,0.13-0.73,0.21-1.13,0.24c-0.41,0.03-0.82,0.03-1.25,0
		c-0.43-0.03-0.82-0.05-1.18-0.05c-0.65-0.11-1.19-0.39-1.63-0.84c-0.34-0.3-0.58-0.68-0.7-1.14c-0.13-0.46-0.2-0.93-0.23-1.43
		s-0.03-1-0.01-1.51c0.02-0.51,0-0.97-0.05-1.39c0-0.46,0.04-0.91,0.11-1.37c0.01-0.14,0.06-0.33,0.13-0.57
		c0.08-0.24,0.13-0.42,0.17-0.55c0.09-0.19,0.23-0.35,0.43-0.49c0.2-0.14,0.42-0.26,0.68-0.35s0.54-0.16,0.84-0.2s0.6-0.06,0.9-0.06
		c0.25,0.03,0.5,0.03,0.73,0.01c0.23-0.02,0.48-0.02,0.75,0.01c0.41,0.03,0.79,0.1,1.16,0.23c0.37,0.13,0.68,0.32,0.95,0.57
		c0.18,0.13,0.31,0.3,0.41,0.51c0.09,0.22,0.17,0.47,0.22,0.76c0.05,0.29,0.08,0.62,0.09,0.98c0.01,0.36,0.02,0.75,0.03,1.17
		c-0.17,0.04-0.35,0.06-0.56,0.06s-0.42-0.01-0.65-0.02c-0.22-0.01-0.44-0.03-0.65-0.06s-0.4-0.05-0.56-0.08
		c-0.06-0.44-0.25-0.79-0.55-1.04s-0.7-0.31-1.2-0.18c-0.27,0.08-0.48,0.21-0.65,0.42c-0.08,0.05-0.13,0.18-0.17,0.38
		c-0.05,0.39-0.08,0.79-0.08,1.2s-0.01,0.83-0.04,1.27c-0.03,0.29,0.05,0.52,0.22,0.68c0.17,0.16,0.38,0.28,0.62,0.33
		c0.24,0.06,0.49,0.07,0.74,0.04c0.25-0.03,0.46-0.1,0.61-0.2c0.13-0.09,0.22-0.24,0.29-0.45c0.07-0.21,0.12-0.4,0.16-0.56
		c0.13,0.01,0.3,0.02,0.51,0.01c0.21-0.01,0.44-0.02,0.68-0.03c0.24-0.01,0.47-0.02,0.68-0.01
		C140.54,55.57,140.71,55.59,140.85,55.63z"/>
	<path d="M144.54,50.44c0.05-0.03,0.17-0.08,0.35-0.15c0.18-0.08,0.36-0.15,0.54-0.21c0.24-0.08,0.51-0.14,0.82-0.18
		c0.3-0.04,0.59-0.07,0.85-0.08c0.27-0.01,0.49-0.02,0.67-0.01c0.18,0.01,0.28,0.02,0.28,0.03c0,0.43,0,0.81-0.01,1.14
		c-0.01,0.33-0.01,0.62-0.01,0.88c0,0.26,0,0.5,0,0.71c0,0.22,0.01,0.42,0.02,0.61l-0.17-0.06c-0.06-0.03-0.13-0.05-0.2-0.07
		c-0.07-0.02-0.14-0.04-0.2-0.07c-0.15-0.04-0.31-0.07-0.46-0.09c-0.16-0.03-0.24-0.04-0.26-0.04c-0.34-0.04-0.66-0.06-0.94-0.06
		s-0.53,0.04-0.74,0.13s-0.37,0.23-0.48,0.42c-0.11,0.19-0.17,0.46-0.15,0.82c0.01,0.44,0.03,0.86,0.04,1.25
		c0.01,0.39,0.02,0.79,0.02,1.19c0,0.4,0,0.8,0.01,1.22c0.01,0.41,0.01,0.85,0.01,1.32v0.08c-0.22,0.06-0.41,0.1-0.59,0.11
		s-0.36,0.02-0.55,0.01c-0.19-0.01-0.4-0.02-0.62-0.03c-0.22-0.01-0.49-0.01-0.79,0.02c0-1.56-0.02-3.12-0.05-4.67
		c-0.03-1.56-0.02-3.17,0.03-4.84c0.15,0.01,0.28,0.02,0.38,0.03c0.1,0.01,0.2,0.01,0.29,0.01c0.09,0,0.18,0,0.28-0.01
		c0.1-0.01,0.23-0.02,0.38-0.03c0.05,0,0.14-0.01,0.28-0.02c0.13-0.01,0.27-0.02,0.42-0.04c0.15-0.01,0.27-0.02,0.38-0.01
		c0.11,0.01,0.16,0.02,0.16,0.05c0,0.1,0,0.18,0,0.23s0,0.09,0,0.12c0,0.03,0,0.07,0.01,0.1C144.54,50.29,144.54,50.36,144.54,50.44
		z"/>
	<path d="M151.21,54.51v0.34c0.01,0.38,0.03,0.69,0.05,0.93c0.02,0.24,0.1,0.47,0.24,0.7c0.15,0.29,0.37,0.51,0.65,0.65
		c0.28,0.14,0.55,0.18,0.82,0.13c0.27-0.05,0.49-0.21,0.67-0.47s0.26-0.65,0.24-1.17c0.13,0.01,0.3,0.02,0.51,0.01
		c0.21-0.01,0.44-0.02,0.67-0.03s0.46-0.02,0.67-0.01c0.21,0.01,0.39,0.03,0.53,0.07c-0.03,0.33-0.05,0.65-0.08,0.97
		s-0.06,0.61-0.09,0.88c-0.04,0.27-0.09,0.51-0.14,0.7c-0.06,0.2-0.13,0.33-0.22,0.41c-0.22,0.3-0.49,0.52-0.84,0.65
		s-0.72,0.2-1.12,0.23s-0.82,0.03-1.24,0c-0.42-0.03-0.81-0.04-1.17-0.04c-0.35-0.05-0.68-0.17-0.99-0.34
		c-0.34-0.24-0.63-0.55-0.85-0.94c-0.23-0.39-0.41-0.81-0.55-1.27c-0.14-0.46-0.24-0.95-0.29-1.47c-0.05-0.52-0.06-1.04-0.04-1.56
		c0.04-0.47,0.08-0.92,0.12-1.36c0.04-0.44,0.14-0.86,0.29-1.28c0.16-0.37,0.42-0.68,0.76-0.94s0.73-0.46,1.16-0.59
		s0.89-0.21,1.37-0.22s0.95,0.04,1.41,0.15c0.58,0.1,1.05,0.3,1.41,0.61c0.35,0.3,0.62,0.67,0.81,1.1s0.29,0.91,0.33,1.42
		s0.04,1.04,0,1.58c-0.09,0.03-0.26,0.05-0.5,0.08s-0.54,0.05-0.87,0.08s-0.69,0.04-1.07,0.06s-0.74,0.02-1.09,0.02
		s-0.66-0.01-0.94-0.02S151.33,54.54,151.21,54.51z M153.51,51.57c-0.1-0.06-0.2-0.11-0.3-0.14s-0.22-0.05-0.36-0.05
		c-0.3,0-0.55,0.03-0.74,0.1c-0.19,0.06-0.34,0.15-0.46,0.27s-0.2,0.25-0.26,0.4c-0.06,0.15-0.1,0.31-0.12,0.47
		c-0.03,0.14-0.04,0.24-0.03,0.29c0.01,0.06,0.07,0.09,0.18,0.11c0.11,0.02,0.29,0.03,0.54,0.02c0.25-0.01,0.61-0.01,1.09-0.01
		c0.33,0,0.58,0.01,0.74,0.02c0.17,0.01,0.28,0.02,0.35,0.01c0.07-0.01,0.1-0.03,0.1-0.06s0-0.1,0-0.2c0-0.25-0.07-0.49-0.2-0.72
		C153.92,51.85,153.74,51.68,153.51,51.57z"/>
	<path d="M159.64,54.51v0.34c0.01,0.38,0.03,0.69,0.05,0.93c0.02,0.24,0.1,0.47,0.24,0.7c0.15,0.29,0.37,0.51,0.65,0.65
		c0.28,0.14,0.55,0.18,0.82,0.13c0.27-0.05,0.49-0.21,0.67-0.47s0.26-0.65,0.24-1.17c0.13,0.01,0.3,0.02,0.51,0.01
		c0.21-0.01,0.44-0.02,0.67-0.03s0.46-0.02,0.67-0.01c0.21,0.01,0.39,0.03,0.53,0.07c-0.03,0.33-0.05,0.65-0.08,0.97
		s-0.06,0.61-0.09,0.88c-0.04,0.27-0.09,0.51-0.14,0.7c-0.06,0.2-0.13,0.33-0.22,0.41c-0.22,0.3-0.49,0.52-0.84,0.65
		s-0.72,0.2-1.12,0.23s-0.82,0.03-1.24,0c-0.42-0.03-0.81-0.04-1.17-0.04c-0.35-0.05-0.68-0.17-0.99-0.34
		c-0.34-0.24-0.63-0.55-0.85-0.94c-0.23-0.39-0.41-0.81-0.55-1.27c-0.14-0.46-0.24-0.95-0.29-1.47c-0.05-0.52-0.06-1.04-0.04-1.56
		c0.04-0.47,0.08-0.92,0.12-1.36c0.04-0.44,0.14-0.86,0.29-1.28c0.16-0.37,0.42-0.68,0.76-0.94s0.73-0.46,1.16-0.59
		s0.89-0.21,1.37-0.22s0.95,0.04,1.41,0.15c0.58,0.1,1.05,0.3,1.41,0.61c0.35,0.3,0.62,0.67,0.81,1.1s0.29,0.91,0.33,1.42
		s0.04,1.04,0,1.58c-0.09,0.03-0.26,0.05-0.5,0.08s-0.54,0.05-0.87,0.08s-0.69,0.04-1.07,0.06s-0.74,0.02-1.09,0.02
		s-0.66-0.01-0.94-0.02S159.77,54.54,159.64,54.51z M161.94,51.57c-0.1-0.06-0.2-0.11-0.3-0.14s-0.22-0.05-0.36-0.05
		c-0.3,0-0.55,0.03-0.74,0.1c-0.19,0.06-0.34,0.15-0.46,0.27s-0.2,0.25-0.26,0.4c-0.06,0.15-0.1,0.31-0.12,0.47
		c-0.03,0.14-0.04,0.24-0.03,0.29c0.01,0.06,0.07,0.09,0.18,0.11c0.11,0.02,0.29,0.03,0.54,0.02c0.25-0.01,0.61-0.01,1.09-0.01
		c0.33,0,0.58,0.01,0.74,0.02c0.17,0.01,0.28,0.02,0.35,0.01c0.07-0.01,0.1-0.03,0.1-0.06s0-0.1,0-0.2c0-0.25-0.07-0.49-0.2-0.72
		C162.35,51.85,162.17,51.68,161.94,51.57z"/>
	<path d="M168.33,50.81c0.06-0.04,0.14-0.08,0.24-0.13c0.09-0.05,0.17-0.1,0.24-0.15c0.27-0.19,0.56-0.34,0.89-0.46
		s0.67-0.18,1.02-0.19c0.35-0.01,0.69,0.03,1.02,0.11c0.33,0.09,0.63,0.25,0.89,0.47c0.13,0.11,0.22,0.35,0.29,0.71
		c0.07,0.36,0.11,0.79,0.13,1.3c0.02,0.51,0.03,1.06,0.02,1.66c-0.01,0.6-0.02,1.21-0.03,1.82s-0.03,1.21-0.04,1.78
		s-0.01,1.07,0.02,1.5c-0.44,0.06-0.84,0.09-1.19,0.09c-0.35-0.01-0.74-0.01-1.19-0.01c-0.03-0.29-0.04-0.62-0.04-0.99
		c0-0.37,0-0.75,0.01-1.14c0.01-0.39,0.01-0.79,0-1.18c-0.01-0.39-0.02-0.76-0.05-1.1c-0.01-0.15-0.03-0.32-0.04-0.5
		s-0.04-0.36-0.07-0.54c-0.03-0.18-0.08-0.33-0.13-0.47s-0.14-0.25-0.24-0.32c-0.01-0.01-0.03-0.02-0.04-0.02s-0.03-0.01-0.04-0.02
		c-0.1-0.05-0.25-0.09-0.45-0.12c-0.2-0.03-0.39-0.02-0.58,0.04c-0.19,0.06-0.36,0.17-0.51,0.34s-0.24,0.43-0.27,0.77
		c-0.03,0.44-0.03,0.88-0.02,1.3c0.01,0.42,0.03,0.85,0.05,1.27c0.02,0.42,0.03,0.85,0.03,1.26s-0.03,0.84-0.08,1.25v0.08
		c-0.22,0.06-0.4,0.1-0.56,0.11s-0.32,0.02-0.48,0.01c-0.17-0.01-0.35-0.02-0.55-0.03c-0.2-0.01-0.46-0.01-0.76,0.02
		c0-1.56-0.02-3.12-0.05-4.67c-0.03-1.56-0.02-3.17,0.03-4.84c0.15,0.01,0.28,0.02,0.38,0.03c0.1,0.01,0.2,0.01,0.29,0.01
		s0.18,0,0.29-0.01c0.1-0.01,0.23-0.02,0.38-0.03c0.05,0,0.14-0.01,0.27-0.03c0.13-0.02,0.25-0.04,0.38-0.05
		c0.13-0.01,0.24-0.02,0.34-0.01c0.1,0.01,0.15,0.03,0.15,0.07c0.03,0.22,0.04,0.39,0.03,0.53
		C168.31,50.47,168.31,50.63,168.33,50.81z"/>
	<path d="M176.16,55.5l0.04-0.72c0.06-0.41,0.14-0.79,0.24-1.17c0.09-0.37,0.26-0.74,0.5-1.09c0.14-0.27,0.35-0.58,0.64-0.94
		c0.29-0.36,0.53-0.72,0.73-1.07c0.2-0.35,0.3-0.68,0.29-0.99c-0.01-0.3-0.25-0.54-0.7-0.7c-0.29-0.13-0.52-0.16-0.67-0.09
		c-0.16,0.07-0.29,0.18-0.41,0.32s-0.22,0.3-0.32,0.47c-0.1,0.16-0.23,0.28-0.4,0.34c-0.39,0.04-0.78,0.04-1.17,0.02
		s-0.77-0.04-1.15-0.06V49.8c0.03-0.48,0.13-0.95,0.32-1.42c0.19-0.46,0.45-0.88,0.78-1.24c0.33-0.37,0.72-0.67,1.16-0.9
		c0.44-0.23,0.94-0.36,1.48-0.39c0.58-0.05,1.14,0.01,1.66,0.17c0.53,0.16,0.98,0.42,1.37,0.76s0.68,0.75,0.88,1.24
		c0.2,0.48,0.27,1,0.21,1.56c-0.05,0.41-0.16,0.77-0.32,1.1c-0.17,0.33-0.35,0.63-0.57,0.91c-0.2,0.28-0.4,0.5-0.58,0.67
		s-0.37,0.38-0.56,0.64c-0.27,0.37-0.47,0.73-0.6,1.1c-0.13,0.37-0.24,0.77-0.33,1.22c-0.03,0.1-0.05,0.21-0.08,0.32
		s-0.03,0.22,0,0.32v0.02c-0.39,0.05-0.78,0.06-1.17,0.04c-0.39-0.03-0.78-0.03-1.17,0h-0.02c-0.05-0.05-0.08-0.12-0.08-0.2
		C176.16,55.63,176.16,55.56,176.16,55.5z M178.38,59.28l-2.15-0.02h-0.06c-0.03-0.14-0.04-0.32-0.05-0.53
		c-0.01-0.22-0.01-0.43,0-0.65c0.01-0.21,0.01-0.42,0.02-0.61c0.01-0.19,0.01-0.33,0.01-0.42c0.13-0.05,0.31-0.09,0.54-0.11
		s0.47-0.04,0.71-0.04c0.24,0,0.46,0.01,0.67,0.03c0.21,0.02,0.36,0.05,0.45,0.09c0,0.01-0.01,0.12-0.02,0.31s-0.03,0.42-0.04,0.67
		c-0.01,0.25-0.03,0.5-0.04,0.74c-0.01,0.24-0.02,0.41-0.02,0.49v0.02v0.02H178.38z"/>
</g>
</svg>
