<!-- Generator: Adobe Illustrator 23.1.1, SVG Export Plug-In  -->
<svg version="1.1" xmlns="http://www.w3.org/2000/svg" xmlns:xlink="http://www.w3.org/1999/xlink" x="0px" y="0px"
	 width="122.17px" height="30.1px" viewBox="0 0 122.17 30.1" style="enable-background:new 0 0 122.17 30.1;" xml:space="preserve"
	>
<style type="text/css">
	.st0{fill:#3EB150;stroke:#CBC9CA;stroke-width:0.25;stroke-miterlimit:10;}
	.st1{fill:#FFFFFF;}
</style>
<defs>
</defs>
<path class="st0" d="M118.73,29.98H3.44c-1.83,0-3.31-1.48-3.31-3.31V3.44c0-1.83,1.48-3.31,3.31-3.31h115.3
	c1.83,0,3.31,1.48,3.31,3.31v23.23C122.04,28.5,120.56,29.98,118.73,29.98z"/>
<g>
	<path class="st1" d="M53.03,20.1c0,0.19,0.01,0.51,0.04,0.97v0.38h-1.62c-0.15-0.3-0.31-0.62-0.48-0.95
		c-0.17-0.33-0.34-0.65-0.5-0.97c-0.15-0.29-0.56-1.08-1.22-2.37c-0.66-1.29-1.27-2.52-1.82-3.7c-0.06-0.14-0.13-0.28-0.19-0.44
		s-0.11-0.24-0.13-0.27s-0.04,0-0.06,0.08v0.55c0,0.35,0,0.99,0.01,1.92c0.01,0.92,0.01,2.37,0.01,4.35v0.49
		c0,0.62,0.01,1.05,0.02,1.29c-0.22,0.05-0.43,0.07-0.65,0.06c-0.14,0-0.34-0.01-0.59-0.04c-0.3-0.02-0.53-0.04-0.67-0.04V20.1
		c0-0.81-0.01-1.96-0.04-3.46l-0.02-3.4c0-2.01,0.06-3.71,0.17-5.09c0.15-0.03,0.28-0.04,0.38-0.04L46,8.13
		c0.65,0.04,0.97,0.08,0.97,0.13c0.15,0.37,0.32,0.74,0.51,1.12c0.19,0.38,0.42,0.82,0.68,1.33c0.62,1.13,1.27,2.43,1.96,3.91
		c0.68,1.48,1.1,2.42,1.25,2.84c0.01-0.51-0.01-1.34-0.06-2.49l-0.04-1.27c-0.03-1.41-0.05-2.41-0.08-3.02l-0.02-1.03V9.02V8.03
		c0.3-0.04,0.62-0.06,0.95-0.06c0.41,0.03,0.71,0.06,0.91,0.09v6.12c0.01,0.71,0.02,1.79,0.02,3.25l-0.02,2.11
		C53.03,19.67,53.03,19.86,53.03,20.1z"/>
	<path class="st1" d="M55.93,16.64v0.34l-0.02,0.55c0,1.57,0.77,2.36,2.32,2.36c0.62,0,1.08-0.14,1.38-0.43
		c0.3-0.29,0.45-0.67,0.45-1.17c0-0.08-0.01-0.21-0.04-0.42c0.27-0.04,0.51-0.06,0.74-0.06c0.2,0,0.35,0.01,0.46,0.02
		c0.08,0,0.17,0,0.28,0.01c0.11,0.01,0.23,0,0.37-0.01c0.01,0.72-0.01,1.3-0.08,1.73s-0.21,0.84-0.46,1.23
		c-0.23,0.34-0.62,0.59-1.19,0.73s-1.18,0.22-1.85,0.22c-0.3,0-0.59-0.01-0.84-0.04c-0.26-0.03-0.42-0.05-0.48-0.08
		c-0.99-0.17-1.7-0.79-2.15-1.87s-0.63-2.32-0.57-3.71c0.01-0.1,0.03-0.31,0.06-0.64c0.03-0.32,0.06-0.66,0.1-1
		c0.04-0.34,0.13-0.68,0.26-1.01c0.24-0.56,0.68-0.99,1.31-1.29c0.63-0.3,1.34-0.46,2.11-0.46c0.41,0,0.83,0.05,1.27,0.15
		c1.72,0.29,2.58,1.59,2.58,3.89c0,0.19-0.01,0.46-0.04,0.82c-0.24,0.08-0.95,0.14-2.13,0.19c-0.14,0.01-0.44,0.02-0.91,0.02
		c-1,0-1.74-0.01-2.22-0.04C56.32,16.7,56.09,16.68,55.93,16.64z M60.55,15.22c-0.01-0.39-0.11-0.78-0.29-1.16
		c-0.18-0.38-0.45-0.68-0.79-0.89c-0.19-0.09-0.36-0.15-0.49-0.17c-0.14-0.03-0.32-0.04-0.53-0.04c-0.82,0-1.41,0.17-1.76,0.51
		c-0.35,0.34-0.57,0.83-0.66,1.46c-0.03,0.15-0.04,0.25-0.04,0.3c0,0.15,0.07,0.25,0.22,0.3c0.15,0.05,0.46,0.08,0.94,0.08
		c0.47,0,0.87-0.01,1.2-0.02c1.22,0,1.9-0.01,2.05-0.02c0.06-0.01,0.1-0.03,0.12-0.05c0.02-0.02,0.03-0.05,0.03-0.1V15.22z"/>
	<path class="st1" d="M69.98,11.93c0,0.01-0.01,0.02-0.02,0.02c-0.9,1.61-1.72,3.18-2.45,4.71c0.54,1.04,1.01,2.03,1.41,2.96
		c0.08,0.18,0.18,0.41,0.3,0.69c0.13,0.29,0.3,0.66,0.53,1.13l-0.38-0.02c-0.06,0-0.14,0-0.22,0.01c-0.08,0.01-0.17,0-0.28-0.01
		h-0.23c-0.44,0-0.69-0.01-0.74-0.02h-0.02c-0.28-0.49-0.61-1.17-1.01-2.03c-0.37-0.77-0.63-1.3-0.8-1.58
		c-0.33,0.57-0.63,1.14-0.91,1.71c-0.48,0.94-0.83,1.58-1.04,1.94l-0.91,0.02c-0.46,0-0.76-0.02-0.91-0.06
		c0.76-1.44,1.56-3.03,2.39-4.77c-0.41-0.71-0.81-1.47-1.22-2.28c-0.22-0.46-0.41-0.84-0.59-1.16c-0.18-0.32-0.42-0.72-0.72-1.2
		c0.28-0.01,0.63-0.02,1.06-0.02c0.58,0,0.89,0.01,0.91,0.04c0.25,0.42,0.57,0.99,0.95,1.73c0.43,0.85,0.76,1.44,0.99,1.79
		c0.13-0.23,0.35-0.66,0.67-1.29c0.05-0.11,0.2-0.42,0.45-0.92c0.25-0.5,0.5-0.95,0.75-1.34c0.34-0.04,1.01-0.06,2.01-0.06H69.98z"
		/>
	<path class="st1" d="M73.91,8.43v2.91l0.02,1.06c0.82-0.03,1.84-0.07,3.06-0.13c0.08,0.1,0.11,0.29,0.11,0.57l-0.02,0.44
		c-0.03,0.28-0.03,0.48-0.02,0.61c-1.38,0-2.41-0.01-3.1-0.02v2.91v0.65c0,0.57,0.01,0.98,0.04,1.22c0.03,0.24,0.08,0.45,0.15,0.63
		c0.2,0.25,0.61,0.41,1.22,0.47s1.17,0.08,1.68,0.06c0.06,0.51,0.1,0.83,0.1,0.97c0,0.23-0.03,0.46-0.1,0.68
		c-0.27,0.01-0.68,0.02-1.25,0.02c-0.99,0-1.76-0.12-2.32-0.36c-0.56-0.24-0.91-0.72-1.06-1.44c-0.14-1.23-0.21-2.83-0.21-4.81
		v-0.91c-0.08,0.01-0.27,0.02-0.57,0.02l-1.44-0.02l0.06-1.56c0.28,0.03,0.94,0.04,2,0.04l-0.02-1.99V9.53
		c0-0.53,0.01-0.91,0.04-1.12c0.18-0.01,0.45-0.01,0.82,0.02l0.51,0.02C73.74,8.45,73.84,8.45,73.91,8.43z"/>
</g>
</svg>
