<!-- Generator: Adobe Illustrator 23.1.1, SVG Export Plug-In  -->
<svg version="1.1" xmlns="http://www.w3.org/2000/svg" xmlns:xlink="http://www.w3.org/1999/xlink" x="0px" y="0px"
	 width="153.48px" height="157.44px" viewBox="0 0 153.48 157.44" style="enable-background:new 0 0 153.48 157.44;"
	 xml:space="preserve">
<style type="text/css">
	.st0{fill:#F6CC3C;}
	.st1{fill:#666767;}
	.st2{fill:#E9582F;stroke:#010101;stroke-miterlimit:10;}
	.st3{fill:#FDE279;}
	.st4{fill:#FBD550;}
	.st5{fill:none;}
	.st6{fill:#555555;}
	.st7{fill:#333333;}
	.st8{fill:none;stroke:#010101;stroke-miterlimit:10;}
	.st9{fill:#D34D2F;}
	.st10{opacity:0.49;fill:#FDE279;}
</style>
<defs>
</defs>
<g>
	<g>
		<path class="st0" d="M19.03,147.72l6.2,6.82c0.85,1.11,2.46,1.21,3.44,0.22l63.33-64.26c1.34-1.36,1.38-3.56,0.08-4.97l-6.46-6.98
			L19.03,147.72z"/>
		<path class="st1" d="M0.81,129.22c1.26,4.39,6.28,16.64,24.56,26.14c0.45,0.24,0.9-0.34,0.55-0.71L1.58,128.8
			C1.26,128.45,0.68,128.77,0.81,129.22z"/>
		<path class="st2" d="M18.21,99.63l4.31,4.31l25-25l-5.6-4.67c-0.2-0.17-0.5-0.11-0.62,0.13c-1.37,2.7-9.01,16.74-22.91,24.1
			C17.97,98.72,17.87,99.28,18.21,99.63z"/>
		<path class="st1" d="M105.46,21.57L95.1,11.21c-0.12-0.12-0.12-0.31,0-0.43l8.76-8.76c0.12-0.12,0.31-0.12,0.43,0l10.36,10.36
			c0.12,0.12,0.12,0.31,0,0.43l-8.76,8.76C105.78,21.69,105.58,21.69,105.46,21.57z"/>
		<path class="st3" d="M7.03,136.44l72-71l-8.7-4.75c-1.35-0.74-3.03-0.49-4.11,0.61L1.9,126.88c-0.49,0.5-1.36,2.06-0.87,2.56
			L7.03,136.44z"/>
		<polygon class="st4" points="7.03,136.44 20.03,148.44 89.03,80.44 76.03,67.44 		"/>
		<g>
			<polygon class="st5" points="68.44,59.03 0,128.02 27.03,157.44 96.94,87.53 			"/>
		</g>
		<polygon class="st6" points="86.95,56.36 76.1,67.45 89.03,80.44 99.53,68.94 		"/>
		<polygon class="st7" points="99.53,68.94 89.03,80.44 96.35,88.11 107.53,76.94 		"/>
		<polygon class="st1" points="78.75,48.16 68.03,59.44 76.03,67.44 87.03,56.44 		"/>
		<path class="st3" d="M88.03,55.44c0,0-0.53-11.97,17.24-32.98L95.03,11.44c0,0-15.18,19.72-14.86,35.9
			c0.01,0.5,0.23,0.97,0.6,1.31L88.03,55.44z"/>
		<path class="st4" d="M88.03,55.18c0,0,0.62-17.38,17-33.75l25,25.57c0,0-7.6,15.26-28.89,21.43L88.03,55.18z"/>
		<path class="st0" d="M99.51,68.2c0,0,22.25-7.69,30.27-24.07c0.11-0.23,0.42-0.3,0.61-0.13l13.38,11.67
			c0.09,0.08,0.11,0.22,0.02,0.31c-1.68,1.8-17.23,17.94-35.7,19.28c-0.29,0.02-0.58-0.08-0.8-0.27L99.51,68.2z"/>
		<path class="st6" d="M129.65,46.07l-23.91-23.91c-0.2-0.2-0.2-0.54,0-0.74l8-8c0.2-0.2,0.54-0.2,0.74,0l23.91,23.91
			c0.2,0.2,0.2,0.54,0,0.74l-8,8C130.19,46.27,129.86,46.27,129.65,46.07z"/>
		<path class="st7" d="M142.23,58.64l-12.49-12.49c-0.16-0.16-0.16-0.43,0-0.59l8.15-8.15c0.16-0.16,0.43-0.16,0.59,0l12.49,12.49
			c0.16,0.16,0.16,0.43,0,0.59l-8.15,8.15C142.66,58.81,142.39,58.81,142.23,58.64z"/>
		<path class="st4" d="M137.9,37.31l-23.74-23.74c-0.07-0.07-0.07-0.19,0-0.26l1.74-1.74c0.07-0.07,0.19-0.07,0.26,0l23.74,23.74
			c0.07,0.07,0.07,0.19,0,0.26l-1.74,1.74C138.08,37.38,137.97,37.38,137.9,37.31z"/>
		<path class="st3" d="M113.96,13.35L103.7,3.09c-0.04-0.04-0.04-0.11,0-0.15l1.84-1.84c0.04-0.04,0.11-0.04,0.15,0l10.27,10.27
			c0.04,0.04,0.04,0.11,0,0.15l-1.84,1.84C114.07,13.39,114,13.39,113.96,13.35z"/>
		<polygon class="st0" points="139.95,35.42 153.03,48.44 151.03,50.44 138.03,37.44 		"/>
		<path class="st8" d="M150.5,48.91L104.57,2.99c-0.57-0.57-0.57-1.49,0-2.06v0c0.57-0.57,1.49-0.57,2.06,0l45.92,45.92
			c0.57,0.57,0.57,1.49,0,2.06v0C151.99,49.48,151.06,49.48,150.5,48.91z"/>
		<path class="st8" d="M79.68,46.67c0.45-4.04,3.96-22.57,14.95-35.11c0.16-0.18,0.44-0.19,0.61-0.02l46.67,46.88
			c0.51,0.51,0.51,1.34-0.02,1.84c-3.65,3.45-17.5,15.43-33.75,15.73L80.19,48.12C79.81,47.74,79.62,47.21,79.68,46.67z"/>
		<path class="st8" d="M94.15,90.31l-64.64,64.64c-1.09,1.09-2.87,1.09-3.96,0L1.81,131.22c-1.33-1.33-1.33-3.49,0-4.82l65.42-65.42
			c0.38-0.38,0.99-0.38,1.37,0l25.55,25.55C95.19,87.59,95.19,89.27,94.15,90.31z"/>
		<path class="st9" d="M20.06,100.26l1.97,2.18l24.27-23.14l-4.77-3.92C41.52,75.38,40.44,85.99,20.06,100.26z"/>
	</g>
	<path class="st10" d="M70.56,80.02c-3.22,0-3.22,5,0,5C73.78,85.02,73.78,80.02,70.56,80.02z"/>
	<path class="st10" d="M75.88,85.35c-3.22,0-3.22,5,0,5C79.1,90.35,79.1,85.35,75.88,85.35z"/>
	<path class="st10" d="M81.2,91c-3.22,0-3.22,5,0,5C84.42,96,84.42,91,81.2,91z"/>
	<path class="st10" d="M65.24,85.68c-3.22,0-3.22,5,0,5C68.45,90.68,68.46,85.68,65.24,85.68z"/>
	<path class="st10" d="M71.22,90.67c-3.22,0-3.22,5,0,5C74.44,95.67,74.45,90.67,71.22,90.67z"/>
	<path class="st10" d="M75.88,95.65c-3.22,0-3.22,5,0,5C79.1,100.65,79.1,95.65,75.88,95.65z"/>
	<path class="st10" d="M70.89,100.31c-3.22,0-3.22,5,0,5C74.11,105.31,74.12,100.31,70.89,100.31z"/>
	<path class="st10" d="M65.9,95.32c-3.22,0-3.22,5,0,5C69.12,100.32,69.13,95.32,65.9,95.32z"/>
	<path class="st10" d="M60.25,90.67c-3.22,0-3.22,5,0,5C63.47,95.67,63.47,90.67,60.25,90.67z"/>
	<path class="st10" d="M55.59,96.32c-3.22,0-3.22,5,0,5C58.81,101.32,58.82,96.32,55.59,96.32z"/>
	<path class="st10" d="M61.25,100.97c-3.22,0-3.22,5,0,5C64.46,105.97,64.47,100.97,61.25,100.97z"/>
	<path class="st10" d="M66.57,105.63c-3.22,0-3.22,5,0,5C69.79,110.63,69.79,105.63,66.57,105.63z"/>
	<path class="st10" d="M50.61,101.31c-3.22,0-3.22,5,0,5C53.82,106.31,53.83,101.31,50.61,101.31z"/>
	<path class="st10" d="M55.59,105.96c-3.22,0-3.22,5,0,5C58.81,110.96,58.82,105.96,55.59,105.96z"/>
	<path class="st10" d="M61.25,111.29c-3.22,0-3.22,5,0,5C64.47,116.29,64.47,111.29,61.25,111.29z"/>
</g>
</svg>
