<!-- Generator: Adobe Illustrator 23.1.1, SVG Export Plug-In  -->
<svg version="1.1" xmlns="http://www.w3.org/2000/svg" xmlns:xlink="http://www.w3.org/1999/xlink" x="0px" y="0px"
	 width="182.07px" height="62.41px" viewBox="0 0 182.07 62.41" style="enable-background:new 0 0 182.07 62.41;"
	 xml:space="preserve">
<defs>
</defs>
<g>
	<path d="M11.84,0.02l0.51,13.3c-0.2,0.04-0.54,0.06-1.01,0.06h-0.76h-0.02c-0.06-0.62-0.11-1.17-0.13-1.66
		c-0.03-0.49-0.04-0.95-0.04-1.4c-0.03-1.01-0.06-1.87-0.1-2.56H9.42C9.03,7.71,8.61,7.69,8.15,7.69c-0.62,0-1.29,0.04-2,0.11
		c-0.03,0.72-0.04,1.54-0.04,2.45l0.02,2.09c0,0.41-0.01,0.74-0.02,1.01C6,13.41,5.84,13.43,5.62,13.43c-0.13,0-0.29-0.01-0.49-0.04
		l-0.42-0.02c-0.09,0-0.17,0.01-0.25,0.04c-0.06-0.94-0.13-2.56-0.19-4.85C4.21,6.26,4.18,4.14,4.18,2.2c0-0.95,0.01-1.63,0.02-2.03
		l0.02-0.02h0.04c0.18,0.03,0.32,0.04,0.44,0.04L5.3,0.17c0.2,0,0.35,0.01,0.44,0.04c0.06,0.85,0.1,1.67,0.11,2.45
		c0.01,0.15,0.03,0.59,0.07,1.31C5.95,4.69,6,5.34,6.08,5.93H6.1c0.39,0.03,0.94,0.04,1.63,0.04c0.87,0,1.67-0.03,2.39-0.09h0.02
		c0.03-1.09,0.04-1.91,0.04-2.47c0-0.58-0.01-1.67-0.04-3.27C10.5,0.04,10.93,0,11.44,0C11.63,0,11.76,0.01,11.84,0.02z"/>
	<path d="M19.65,3.89c0.29-0.01,0.67,0,1.12,0.04l0.49,0.04c0.03,0.2,0.04,0.35,0.04,0.46v0.19c-0.01,0.29-0.02,0.73-0.02,1.31
		c0,0.48,0.01,1.19,0.04,2.13l0.02,2.13c0,0.91-0.03,1.74-0.08,2.49c0,0.04,0,0.12,0,0.25c0,0.13-0.01,0.24-0.04,0.34
		c-0.03,0.1-0.1,0.17-0.21,0.19h-0.32l-0.61-0.02c-0.1,0-0.19,0.01-0.27,0.02s-0.15,0.02-0.21,0.02c-0.13-0.04-0.19-0.18-0.19-0.42
		c-0.01-0.1-0.01-0.22,0.01-0.34c0.02-0.13,0.03-0.23,0.03-0.32c-0.3,0.42-0.79,0.7-1.44,0.85c-0.66,0.15-1.3,0.23-1.94,0.23
		c-0.61,0-1.12-0.27-1.55-0.81c-0.42-0.54-0.74-1.2-0.94-1.99c-0.2-0.79-0.3-1.55-0.3-2.3c0-0.82,0.14-1.56,0.42-2.22
		c0.28-0.66,0.66-1.18,1.15-1.57c0.49-0.39,1.03-0.59,1.62-0.6l0.61-0.02c0.57,0,1.04,0.07,1.42,0.2c0.37,0.13,0.65,0.38,0.83,0.73
		c0-0.11,0.01-0.26,0.04-0.44c0.03-0.25,0.04-0.43,0.04-0.53C19.4,3.91,19.48,3.89,19.65,3.89z M17.52,5.6
		c-0.66-0.01-1.21,0.16-1.66,0.5s-0.72,0.76-0.83,1.24c-0.1,0.37-0.15,0.86-0.15,1.48c0.06,2.04,0.89,3.01,2.47,2.93
		c0.65,0,1.12-0.11,1.41-0.34c0.29-0.23,0.47-0.55,0.54-0.97c0.07-0.42,0.1-1.04,0.1-1.88c0-0.91-0.04-1.55-0.11-1.93
		c-0.08-0.37-0.24-0.63-0.48-0.77C18.55,5.73,18.13,5.64,17.52,5.6z"/>
	<path d="M25.9,0.42v2.91l0.02,1.06c0.82-0.03,1.84-0.07,3.06-0.13c0.08,0.1,0.11,0.29,0.11,0.57l-0.02,0.44
		c-0.03,0.28-0.03,0.48-0.02,0.61c-1.38,0-2.41-0.01-3.1-0.02v2.91V9.4c0,0.57,0.01,0.98,0.04,1.22c0.03,0.24,0.08,0.45,0.15,0.63
		c0.2,0.25,0.61,0.41,1.22,0.47s1.17,0.08,1.68,0.06c0.06,0.51,0.1,0.83,0.1,0.97c0,0.23-0.03,0.46-0.1,0.68
		c-0.27,0.01-0.68,0.02-1.25,0.02c-0.99,0-1.76-0.12-2.32-0.36c-0.56-0.24-0.91-0.72-1.06-1.44c-0.14-1.23-0.21-2.83-0.21-4.81V5.93
		c-0.08,0.01-0.27,0.02-0.57,0.02l-1.44-0.02l0.06-1.56c0.28,0.03,0.94,0.04,2,0.04l-0.02-1.99V1.52c0-0.53,0.01-0.91,0.04-1.12
		c0.18-0.01,0.45-0.01,0.82,0.02l0.51,0.02C25.73,0.44,25.83,0.43,25.9,0.42z"/>
	<path d="M37.56,6.4c0,0.06-0.22,0.1-0.67,0.1c-0.33,0-0.57-0.01-0.72-0.02c-0.1,0-0.2,0-0.3-0.01c-0.1-0.01-0.18,0-0.25,0.01
		c0-0.01,0-0.23,0-0.66s-0.37-0.68-1.1-0.77c-0.17-0.03-0.41-0.04-0.74-0.04c-0.35,0-0.67,0.03-0.96,0.08
		c-0.28,0.05-0.5,0.12-0.64,0.21c-0.17,0.13-0.29,0.31-0.38,0.55c-0.09,0.24-0.13,0.47-0.13,0.7c0,0.18,0.03,0.3,0.08,0.36
		c0.14,0.29,0.32,0.49,0.55,0.61c0.13,0.09,0.44,0.2,0.93,0.32s0.92,0.2,1.27,0.21c0.52,0.01,0.98,0.09,1.38,0.24
		c0.4,0.15,0.71,0.35,0.94,0.6c0.23,0.28,0.4,0.55,0.5,0.83c0.11,0.27,0.16,0.57,0.16,0.88c0,0.39-0.09,0.87-0.29,1.42
		c-0.28,0.6-0.72,1.03-1.33,1.31s-1.3,0.41-2.07,0.4c-0.85,0.03-1.6-0.08-2.24-0.33c-0.65-0.25-1.15-0.62-1.5-1.11
		c-0.36-0.49-0.53-1.08-0.53-1.75v-0.1c0.23-0.02,0.56-0.04,1.01-0.04c0.49,0,0.76,0.02,0.8,0.06c0.03,0.03,0.08,0.17,0.16,0.43
		c0.08,0.26,0.23,0.52,0.45,0.79c0.21,0.27,0.58,0.42,1.1,0.46c0.41,0.03,0.65,0.04,0.72,0.04c0.2,0,0.37-0.02,0.5-0.06
		c0.13-0.04,0.31-0.11,0.52-0.21c0.65-0.29,0.96-0.72,0.95-1.27c0.01-0.37-0.09-0.65-0.29-0.86c-0.21-0.2-0.47-0.34-0.79-0.41
		c-0.32-0.07-0.75-0.14-1.29-0.2c-0.39-0.04-0.71-0.08-0.95-0.11s-0.46-0.1-0.65-0.19c-0.66-0.22-1.16-0.55-1.51-1.02
		c-0.35-0.46-0.52-0.97-0.52-1.51c0-0.6,0.17-1.14,0.52-1.62c0.35-0.49,0.83-0.81,1.43-0.96c0.52-0.14,1.18-0.21,2-0.21
		c0.19,0,0.47,0.01,0.85,0.04c0.54,0.04,1.05,0.13,1.52,0.29c0.44,0.19,0.8,0.52,1.08,0.98C37.42,5.32,37.56,5.83,37.56,6.4z"/>
	<path d="M48.05,9.71c0.15,0.03,0.29,0.04,0.42,0.04l0.67-0.02c0.2,0,0.38,0.02,0.53,0.06c-0.06,0.87-0.13,1.55-0.2,2.03
		c-0.07,0.48-0.18,0.8-0.33,0.95c-0.24,0.34-0.57,0.58-1,0.7c-0.42,0.13-0.93,0.19-1.51,0.19c-0.23,0-0.57-0.01-1.03-0.04
		l-0.87-0.02c-0.75-0.13-1.3-0.41-1.67-0.85c-0.37-0.44-0.61-0.95-0.71-1.55c-0.11-0.6-0.18-1.38-0.22-2.36
		c0-0.71-0.01-1.23-0.02-1.56c0-0.75,0.14-1.58,0.42-2.49c0.17-0.37,0.52-0.64,1.05-0.83s1.14-0.28,1.8-0.28
		c0.1,0.01,0.25,0.02,0.44,0.02c0.11,0,0.26,0,0.43-0.01c0.17-0.01,0.38,0,0.62,0.01c0.95,0.09,1.65,0.35,2.11,0.8
		c0.29,0.2,0.48,0.53,0.56,0.97c0.08,0.44,0.14,1.11,0.16,2l0.02,0.46C49.51,7.98,49.32,8,49.13,8c-0.33,0-0.67-0.03-1.01-0.1
		c-0.01-0.9-0.17-1.51-0.48-1.84c-0.31-0.33-0.8-0.49-1.47-0.49c-0.14,0-0.39,0.01-0.74,0.04c-0.33,0.01-0.59,0.04-0.77,0.09
		c-0.18,0.05-0.34,0.17-0.48,0.36c-0.14,0.19-0.24,0.48-0.3,0.87c-0.04,0.27-0.06,0.74-0.06,1.42v1.52c-0.03,0.42,0.08,0.85,0.3,1.3
		c0.23,0.45,0.68,0.71,1.37,0.77c0.13,0.01,0.3,0.02,0.51,0.02c0.59,0,1.04-0.11,1.33-0.34c0.29-0.23,0.48-0.49,0.56-0.79
		C47.97,10.54,48.03,10.17,48.05,9.71z"/>
	<path d="M56.79,3.89c0.29-0.01,0.67,0,1.12,0.04l0.49,0.04c0.03,0.2,0.04,0.35,0.04,0.46v0.19c-0.01,0.29-0.02,0.73-0.02,1.31
		c0,0.48,0.01,1.19,0.04,2.13l0.02,2.13c0,0.91-0.03,1.74-0.08,2.49c0,0.04,0,0.12,0,0.25c0,0.13-0.01,0.24-0.04,0.34
		c-0.03,0.1-0.1,0.17-0.21,0.19h-0.32l-0.61-0.02c-0.1,0-0.19,0.01-0.27,0.02s-0.15,0.02-0.21,0.02c-0.13-0.04-0.19-0.18-0.19-0.42
		c-0.01-0.1-0.01-0.22,0.01-0.34c0.02-0.13,0.03-0.23,0.03-0.32c-0.3,0.42-0.79,0.7-1.44,0.85c-0.66,0.15-1.3,0.23-1.94,0.23
		c-0.61,0-1.12-0.27-1.55-0.81c-0.42-0.54-0.74-1.2-0.94-1.99c-0.2-0.79-0.3-1.55-0.3-2.3c0-0.82,0.14-1.56,0.42-2.22
		c0.28-0.66,0.66-1.18,1.15-1.57c0.49-0.39,1.03-0.59,1.62-0.6l0.61-0.02c0.57,0,1.04,0.07,1.42,0.2c0.37,0.13,0.65,0.38,0.83,0.73
		c0-0.11,0.01-0.26,0.04-0.44c0.03-0.25,0.04-0.43,0.04-0.53C56.54,3.91,56.63,3.89,56.79,3.89z M54.66,5.6
		C54,5.59,53.45,5.76,53,6.11s-0.72,0.76-0.83,1.24c-0.1,0.37-0.15,0.86-0.15,1.48c0.06,2.04,0.89,3.01,2.47,2.93
		c0.65,0,1.12-0.11,1.41-0.34c0.29-0.23,0.47-0.55,0.54-0.97c0.07-0.42,0.1-1.04,0.1-1.88c0-0.91-0.04-1.55-0.11-1.93
		c-0.08-0.37-0.24-0.63-0.48-0.77C55.7,5.73,55.27,5.64,54.66,5.6z"/>
	<path d="M61.6,3.99c0.03,0.14,0.04,0.32,0.04,0.53V5c0.43-0.25,0.94-0.48,1.52-0.67c0.58-0.2,1.17-0.29,1.75-0.29
		c0.7,0.03,1.27,0.22,1.71,0.59c0.3,0.27,0.46,1.35,0.46,3.25c0,0.48-0.01,1.23-0.04,2.24c-0.03,0.96-0.04,1.66-0.04,2.09
		c0,0.56,0.01,0.96,0.02,1.2c-0.24,0.04-0.59,0.06-1.04,0.06h-0.63c-0.03-0.2-0.04-0.56-0.04-1.06v-0.82l0.02-1.22
		c0.03-0.82,0.03-1.41,0.02-1.77c0-0.08-0.02-0.34-0.05-0.78s-0.1-0.84-0.22-1.18c-0.04-0.44-0.35-0.65-0.93-0.61
		c-0.87,0.01-1.52,0.13-1.93,0.36c-0.41,0.23-0.64,0.64-0.69,1.23c-0.01,0.17-0.02,0.48-0.02,0.93c0,0.71,0.01,1.47,0.04,2.28
		c0.02,0.48,0.04,0.84,0.04,1.06c0,0.47-0.02,0.95-0.06,1.44v0.08c-0.24,0.05-0.48,0.07-0.71,0.07c-0.24-0.01-0.4-0.01-0.5-0.01
		c-0.2,0-0.36,0.01-0.47,0.02l-0.02-3.27c-0.03-1.49-0.04-2.62-0.04-3.36c0-0.61,0.01-1.57,0.04-2.89c0.15,0.01,0.33,0.02,0.53,0.02
		c0.2,0,0.37-0.01,0.49-0.02c0.08,0,0.16-0.01,0.27-0.02c0.1-0.01,0.2-0.02,0.3-0.02C61.53,3.93,61.6,3.95,61.6,3.99z"/>
	<path d="M73.93,0.23c0,0.11,0,0.21,0.01,0.28c0.01,0.07,0.01,0.12,0.01,0.16c0.01,0.09,0.02,0.26,0.02,0.51L74,2.15l-0.02,2.74
		c0.01-0.09,0.1-0.21,0.26-0.37c0.16-0.16,0.37-0.3,0.64-0.42c0.27-0.12,0.56-0.19,0.89-0.2c1.11-0.04,1.97,0.05,2.56,0.27
		c0.53,0.19,0.92,0.64,1.17,1.35s0.37,1.54,0.37,2.51c-0.04,1.1-0.13,2-0.27,2.71c-0.14,0.7-0.44,1.3-0.89,1.8s-1.13,0.78-2.03,0.85
		c-0.2,0.03-0.37,0.04-0.49,0.04c-0.29,0-0.56-0.04-0.82-0.13c-0.2-0.06-0.41-0.19-0.61-0.38c-0.41-0.23-0.68-0.52-0.84-0.87
		c0.02,0.18,0.04,0.4,0.04,0.67l-0.02,0.61c0,0.08-0.01,0.12-0.02,0.13c-0.08,0.01-0.21,0.02-0.4,0.02c-0.28,0-0.49-0.01-0.65-0.02
		l-0.76-0.02c-0.01-0.46-0.02-1.15-0.02-2.09c0-1.01,0.01-1.92,0.02-2.73c0.01-0.8,0.03-1.48,0.04-2.04
		c0.05-2.31,0.08-4.05,0.08-5.24V0.06C72.45,0.02,72.7,0,72.98,0c0.23,0,0.43,0.01,0.61,0.03c0.18,0.02,0.29,0.04,0.34,0.05V0.23z
		 M78.34,8.8c0-0.42-0.03-0.73-0.08-0.95c-0.05-0.52-0.13-0.93-0.23-1.24s-0.33-0.58-0.68-0.8c-0.36-0.22-0.89-0.33-1.62-0.33
		c-0.71,0-1.19,0.25-1.43,0.75c-0.25,0.5-0.37,1.28-0.37,2.35c0,0.9,0.16,1.67,0.48,2.31c0.32,0.64,0.84,0.96,1.55,0.96
		c0.79,0,1.38-0.26,1.78-0.77C78.14,10.55,78.34,9.8,78.34,8.8z"/>
	<path d="M82.36,8.63v0.34l-0.02,0.55c0,1.57,0.77,2.36,2.32,2.36c0.62,0,1.08-0.14,1.38-0.43c0.3-0.29,0.45-0.67,0.45-1.17
		c0-0.08-0.01-0.21-0.04-0.42c0.27-0.04,0.51-0.06,0.74-0.06c0.2,0,0.35,0.01,0.46,0.02c0.08,0,0.17,0,0.28,0.01
		c0.11,0.01,0.23,0,0.37-0.01c0.01,0.72-0.01,1.3-0.08,1.73s-0.21,0.84-0.46,1.23c-0.23,0.34-0.62,0.59-1.19,0.73
		s-1.18,0.22-1.85,0.22c-0.3,0-0.59-0.01-0.84-0.04c-0.26-0.03-0.42-0.05-0.48-0.08c-0.99-0.17-1.7-0.79-2.15-1.87
		s-0.63-2.32-0.57-3.71c0.01-0.1,0.03-0.31,0.06-0.64c0.03-0.32,0.06-0.66,0.1-1c0.04-0.34,0.13-0.68,0.26-1.01
		c0.24-0.56,0.68-0.99,1.31-1.29c0.63-0.3,1.34-0.46,2.11-0.46c0.41,0,0.83,0.05,1.27,0.15c1.72,0.29,2.58,1.59,2.58,3.89
		c0,0.19-0.01,0.46-0.04,0.82c-0.24,0.08-0.95,0.14-2.13,0.19c-0.14,0.01-0.44,0.02-0.91,0.02c-1,0-1.74-0.01-2.22-0.04
		C82.75,8.68,82.52,8.66,82.36,8.63z M86.98,7.2c-0.01-0.39-0.11-0.78-0.29-1.16c-0.18-0.38-0.45-0.68-0.79-0.89
		C85.71,5.06,85.54,5,85.4,4.98c-0.14-0.03-0.32-0.04-0.53-0.04c-0.82,0-1.41,0.17-1.76,0.51c-0.35,0.34-0.57,0.83-0.66,1.46
		c-0.03,0.15-0.04,0.25-0.04,0.3c0,0.15,0.07,0.25,0.22,0.3c0.15,0.05,0.46,0.08,0.94,0.08c0.47,0,0.87-0.01,1.2-0.02
		c1.22,0,1.9-0.01,2.05-0.02c0.06-0.01,0.1-0.03,0.12-0.05c0.02-0.02,0.03-0.05,0.03-0.1V7.2z"/>
	<path d="M99.24,3.89c0.29-0.01,0.67,0,1.12,0.04l0.49,0.04c0.03,0.2,0.04,0.35,0.04,0.46v0.19c-0.01,0.29-0.02,0.73-0.02,1.31
		c0,0.48,0.01,1.19,0.04,2.13l0.02,2.13c0,0.91-0.03,1.74-0.08,2.49c0,0.04,0,0.12,0,0.25c0,0.13-0.01,0.24-0.04,0.34
		s-0.09,0.17-0.21,0.19h-0.32l-0.61-0.02c-0.1,0-0.19,0.01-0.27,0.02s-0.15,0.02-0.21,0.02c-0.13-0.04-0.19-0.18-0.19-0.42
		c-0.01-0.1-0.01-0.22,0.01-0.34c0.02-0.13,0.03-0.23,0.03-0.32c-0.3,0.42-0.79,0.7-1.44,0.85c-0.66,0.15-1.3,0.23-1.94,0.23
		c-0.61,0-1.12-0.27-1.55-0.81c-0.42-0.54-0.74-1.2-0.94-1.99c-0.2-0.79-0.3-1.55-0.3-2.3c0-0.82,0.14-1.56,0.42-2.22
		c0.28-0.66,0.66-1.18,1.15-1.57c0.49-0.39,1.03-0.59,1.62-0.6l0.61-0.02c0.57,0,1.04,0.07,1.42,0.2s0.65,0.38,0.83,0.73
		c0-0.11,0.01-0.26,0.04-0.44c0.03-0.25,0.04-0.43,0.04-0.53C98.99,3.91,99.07,3.89,99.24,3.89z M97.11,5.6
		c-0.66-0.01-1.21,0.16-1.66,0.5C95,6.46,94.72,6.87,94.62,7.35c-0.1,0.37-0.15,0.86-0.15,1.48c0.06,2.04,0.89,3.01,2.47,2.93
		c0.65,0,1.11-0.11,1.41-0.34c0.29-0.23,0.47-0.55,0.54-0.97s0.1-1.04,0.1-1.88c0-0.91-0.04-1.55-0.11-1.93
		c-0.08-0.37-0.24-0.63-0.49-0.77C98.14,5.73,97.72,5.64,97.11,5.6z"/>
	<path d="M113.31,15.9c-0.24,0.54-0.54,0.91-0.91,1.08s-0.79,0.29-1.27,0.32c-0.56,0.03-0.91,0.04-1.04,0.04
		c-0.24,0-0.55-0.01-0.93-0.04c-0.84-0.06-1.54-0.34-2.11-0.84c-0.57-0.49-0.85-1.12-0.85-1.86c0-0.16,0.01-0.29,0.02-0.38
		c0.06-0.03,0.23-0.05,0.51-0.07c0.28-0.02,0.54-0.03,0.8-0.03c0.21,0,0.33,0.01,0.36,0.04c0.01,0.03,0.02,0.12,0.02,0.29
		c0,0.33,0.08,0.62,0.23,0.87c0.15,0.25,0.48,0.42,0.97,0.49c0.25,0.01,0.58,0.02,0.99,0.02c0.53,0,0.92-0.03,1.17-0.09
		c0.25-0.06,0.41-0.16,0.47-0.3s0.09-0.36,0.07-0.66v-0.7v-0.63c0-0.06,0-0.13,0.01-0.21c0.01-0.08,0.02-0.18,0.03-0.32
		c-0.21,0.25-0.46,0.41-0.75,0.46s-0.81,0.08-1.59,0.08h-0.72c-1.27,0-2.09-0.4-2.47-1.2c-0.32-0.59-0.49-1.34-0.53-2.22
		c0-1.18,0.05-2.15,0.14-2.93c0.09-0.77,0.37-1.47,0.84-2.1c0.46-0.63,1.19-0.97,2.19-1.04c0.66-0.01,1.17,0.01,1.53,0.07
		c0.36,0.06,0.63,0.16,0.81,0.29s0.32,0.34,0.44,0.59c0.04-0.18,0.06-0.34,0.06-0.49c0-0.08,0-0.15-0.01-0.24
		c-0.01-0.08,0-0.16,0.01-0.24c0.33-0.03,0.58-0.04,0.74-0.04l0.99,0.02c0.05,1.47,0.08,3.19,0.08,5.17c0,1.96-0.03,3.67-0.09,5.13
		c0,0.13,0,0.3-0.01,0.51c-0.01,0.21-0.02,0.42-0.04,0.62C113.42,15.58,113.38,15.75,113.31,15.9z M107.25,8.91v0.23
		c-0.04,0.68,0.08,1.32,0.34,1.92c0.27,0.6,0.76,0.91,1.48,0.95c0.19,0.01,0.45,0.02,0.78,0.02c0.68,0,1.17-0.12,1.47-0.36
		c0.3-0.24,0.46-0.71,0.5-1.41c0-0.9-0.01-1.62-0.02-2.17c0-1.28-0.29-2.07-0.86-2.38c-0.27-0.15-0.63-0.23-1.1-0.23
		c-0.25,0-0.5,0.02-0.74,0.06c-0.71,0.13-1.2,0.48-1.46,1.07S107.25,7.97,107.25,8.91z"/>
	<path d="M116.64,3.99c0,0.15,0,0.27,0.01,0.35c0.01,0.08,0.01,0.18,0.01,0.29c0.09-0.05,0.21-0.11,0.37-0.17
		c0.16-0.06,0.33-0.13,0.52-0.19c0.29-0.1,0.64-0.17,1.05-0.22c0.41-0.04,0.78-0.07,1.11-0.07c0.3,0,0.46,0.01,0.46,0.04l-0.02,1.58
		c0,0.25,0.01,0.44,0.02,0.57c-0.19-0.08-0.41-0.15-0.65-0.21c-0.28-0.06-0.58-0.09-0.91-0.09c-0.34,0-0.73,0.05-1.16,0.15
		c-0.35,0.09-0.6,0.22-0.72,0.4c-0.13,0.18-0.18,0.51-0.17,1.01c0.05,1.74,0.08,3.71,0.08,5.91v0.08c-0.22,0.05-0.44,0.08-0.67,0.08
		c-0.09,0-0.23,0-0.43-0.01c-0.2-0.01-0.4,0-0.6,0.01l-0.02-3.27c-0.03-1.49-0.04-2.62-0.04-3.36c0-0.61,0.01-1.57,0.04-2.89
		c0.13,0.01,0.26,0.02,0.41,0.01c0.15-0.01,0.28-0.01,0.39-0.01c0.15-0.01,0.35-0.02,0.61-0.02C116.54,3.95,116.64,3.96,116.64,3.99
		z"/>
	<path d="M122.76,8.63v0.34l-0.02,0.55c0,1.57,0.77,2.36,2.32,2.36c0.62,0,1.08-0.14,1.38-0.43s0.45-0.67,0.45-1.17
		c0-0.08-0.01-0.21-0.04-0.42c0.27-0.04,0.51-0.06,0.74-0.06c0.2,0,0.35,0.01,0.46,0.02c0.08,0,0.17,0,0.28,0.01
		c0.11,0.01,0.23,0,0.37-0.01c0.01,0.72-0.01,1.3-0.08,1.73s-0.22,0.84-0.46,1.23c-0.23,0.34-0.62,0.59-1.19,0.73
		s-1.18,0.22-1.85,0.22c-0.3,0-0.59-0.01-0.85-0.04s-0.42-0.05-0.48-0.08c-0.99-0.17-1.7-0.79-2.15-1.87
		c-0.44-1.08-0.63-2.32-0.57-3.71c0.01-0.1,0.03-0.31,0.06-0.64c0.03-0.32,0.06-0.66,0.1-1s0.13-0.68,0.26-1.01
		c0.24-0.56,0.68-0.99,1.31-1.29c0.63-0.3,1.34-0.46,2.11-0.46c0.41,0,0.83,0.05,1.27,0.15c1.72,0.29,2.58,1.59,2.58,3.89
		c0,0.19-0.01,0.46-0.04,0.82c-0.24,0.08-0.95,0.14-2.13,0.19c-0.14,0.01-0.44,0.02-0.91,0.02c-1,0-1.74-0.01-2.22-0.04
		C123.14,8.68,122.91,8.66,122.76,8.63z M127.37,7.2c-0.01-0.39-0.11-0.78-0.29-1.16c-0.18-0.38-0.45-0.68-0.79-0.89
		c-0.19-0.09-0.35-0.15-0.49-0.17s-0.32-0.04-0.53-0.04c-0.82,0-1.41,0.17-1.76,0.51c-0.35,0.34-0.57,0.83-0.66,1.46
		c-0.03,0.15-0.04,0.25-0.04,0.3c0,0.15,0.07,0.25,0.22,0.3c0.14,0.05,0.46,0.08,0.94,0.08c0.47,0,0.87-0.01,1.2-0.02
		c1.22,0,1.9-0.01,2.05-0.02c0.06-0.01,0.1-0.03,0.12-0.05c0.02-0.02,0.03-0.05,0.03-0.1V7.2z"/>
	<path d="M135.83,3.89c0.29-0.01,0.67,0,1.12,0.04l0.49,0.04c0.03,0.2,0.04,0.35,0.04,0.46v0.19c-0.01,0.29-0.02,0.73-0.02,1.31
		c0,0.48,0.01,1.19,0.04,2.13l0.02,2.13c0,0.91-0.03,1.74-0.08,2.49c0,0.04,0,0.12,0,0.25c0,0.13-0.01,0.24-0.04,0.34
		c-0.03,0.1-0.1,0.17-0.21,0.19h-0.32l-0.61-0.02c-0.1,0-0.19,0.01-0.27,0.02s-0.15,0.02-0.21,0.02c-0.13-0.04-0.19-0.18-0.19-0.42
		c-0.01-0.1-0.01-0.22,0.01-0.34c0.02-0.13,0.03-0.23,0.03-0.32c-0.3,0.42-0.79,0.7-1.44,0.85c-0.66,0.15-1.3,0.23-1.94,0.23
		c-0.61,0-1.12-0.27-1.55-0.81c-0.42-0.54-0.74-1.2-0.94-1.99c-0.2-0.79-0.3-1.55-0.3-2.3c0-0.82,0.14-1.56,0.42-2.22
		c0.28-0.66,0.66-1.18,1.15-1.57c0.49-0.39,1.03-0.59,1.62-0.6l0.61-0.02c0.57,0,1.04,0.07,1.42,0.2c0.37,0.13,0.65,0.38,0.83,0.73
		c0-0.11,0.01-0.26,0.04-0.44c0.03-0.25,0.04-0.43,0.04-0.53C135.58,3.91,135.66,3.89,135.83,3.89z M133.7,5.6
		c-0.66-0.01-1.21,0.16-1.66,0.5s-0.72,0.76-0.83,1.24c-0.1,0.37-0.15,0.86-0.15,1.48c0.06,2.04,0.89,3.01,2.47,2.93
		c0.65,0,1.12-0.11,1.41-0.34c0.29-0.23,0.47-0.55,0.54-0.97c0.07-0.42,0.1-1.04,0.1-1.88c0-0.91-0.04-1.55-0.11-1.93
		c-0.08-0.37-0.24-0.63-0.48-0.77C134.74,5.73,134.31,5.64,133.7,5.6z"/>
	<path d="M142.08,0.42v2.91l0.02,1.06c0.82-0.03,1.84-0.07,3.06-0.13c0.08,0.1,0.11,0.29,0.11,0.57l-0.02,0.44
		c-0.03,0.28-0.03,0.48-0.02,0.61c-1.38,0-2.41-0.01-3.1-0.02v2.91V9.4c0,0.57,0.01,0.98,0.04,1.22c0.03,0.24,0.08,0.45,0.15,0.63
		c0.2,0.25,0.61,0.41,1.22,0.47s1.17,0.08,1.68,0.06c0.06,0.51,0.1,0.83,0.1,0.97c0,0.23-0.03,0.46-0.1,0.68
		c-0.27,0.01-0.68,0.02-1.25,0.02c-0.99,0-1.76-0.12-2.32-0.36c-0.56-0.24-0.91-0.72-1.06-1.44c-0.14-1.23-0.21-2.83-0.21-4.81V5.93
		c-0.08,0.01-0.27,0.02-0.57,0.02l-1.44-0.02l0.06-1.56c0.28,0.03,0.94,0.04,2,0.04l-0.02-1.99V1.52c0-0.53,0.01-0.91,0.04-1.12
		c0.18-0.01,0.45-0.01,0.82,0.02l0.51,0.02C141.92,0.44,142.02,0.43,142.08,0.42z"/>
	<path d="M149.19,3.93c0.22,0.01,0.54,0.02,0.97,0.02c0.42,0,0.73,0.01,0.93,0.04l0.29,1.75c0.33,2.18,0.69,4.12,1.08,5.81
		c0.62-1.76,1.1-3.21,1.43-4.35c0.33-1.14,0.61-2.23,0.83-3.27c0.11,0.01,0.41,0.01,0.89-0.02c0.44-0.03,0.78-0.01,1.01,0.04
		l0.11,0.63c0.22,1.09,0.44,2.12,0.67,3.09s0.6,2.22,1.09,3.75c0.3-1.17,0.62-2.61,0.95-4.33c0.05-0.22,0.15-0.69,0.3-1.42
		c0.15-0.73,0.29-1.29,0.4-1.7c0.46-0.03,0.83-0.04,1.12-0.04c0.28,0,0.5,0.01,0.67,0.02c-0.3,1.04-0.56,1.98-0.77,2.82
		c-0.21,0.84-0.4,1.63-0.56,2.37c-0.05,0.2-0.17,0.71-0.35,1.53c-0.18,0.82-0.42,1.75-0.69,2.78c-0.29,0.06-0.56,0.08-0.8,0.06
		l-1.35-0.02c-0.57-2.24-1.19-4.45-1.86-6.61c-0.49,1.6-0.79,2.57-0.89,2.93c-0.44,1.56-0.82,2.78-1.12,3.67
		c-0.18,0.03-0.49,0.04-0.93,0.04l-1.44-0.02C150.58,10.21,149.92,7.02,149.19,3.93z"/>
	<path d="M168.38,3.89c0.29-0.01,0.67,0,1.12,0.04l0.49,0.04c0.03,0.2,0.04,0.35,0.04,0.46v0.19c-0.01,0.29-0.02,0.73-0.02,1.31
		c0,0.48,0.01,1.19,0.04,2.13l0.02,2.13c0,0.91-0.03,1.74-0.08,2.49c0,0.04,0,0.12,0,0.25c0,0.13-0.01,0.24-0.04,0.34
		c-0.03,0.1-0.1,0.17-0.21,0.19h-0.32l-0.61-0.02c-0.1,0-0.19,0.01-0.27,0.02s-0.15,0.02-0.21,0.02c-0.13-0.04-0.19-0.18-0.19-0.42
		c-0.01-0.1-0.01-0.22,0.01-0.34c0.02-0.13,0.03-0.23,0.03-0.32c-0.3,0.42-0.79,0.7-1.44,0.85c-0.66,0.15-1.3,0.23-1.94,0.23
		c-0.61,0-1.12-0.27-1.55-0.81c-0.42-0.54-0.74-1.2-0.94-1.99c-0.2-0.79-0.3-1.55-0.3-2.3c0-0.82,0.14-1.56,0.42-2.22
		c0.28-0.66,0.66-1.18,1.15-1.57c0.49-0.39,1.03-0.59,1.62-0.6l0.61-0.02c0.57,0,1.04,0.07,1.42,0.2c0.37,0.13,0.65,0.38,0.83,0.73
		c0-0.11,0.01-0.26,0.04-0.44c0.03-0.25,0.04-0.43,0.04-0.53C168.13,3.91,168.21,3.89,168.38,3.89z M166.25,5.6
		c-0.66-0.01-1.21,0.16-1.66,0.5s-0.72,0.76-0.83,1.24c-0.1,0.37-0.15,0.86-0.15,1.48c0.06,2.04,0.89,3.01,2.47,2.93
		c0.65,0,1.12-0.11,1.41-0.34c0.29-0.23,0.47-0.55,0.54-0.97c0.07-0.42,0.1-1.04,0.1-1.88c0-0.91-0.04-1.55-0.11-1.93
		c-0.08-0.37-0.24-0.63-0.48-0.77C167.28,5.73,166.86,5.64,166.25,5.6z"/>
	<path d="M170.75,3.93c0.21,0.01,0.54,0.02,0.99,0.02c0.43,0,0.73,0.01,0.91,0.04l0.68,2.6c0.47,1.79,0.83,3.13,1.08,4.04
		c0.25,0.91,0.46,1.51,0.63,1.81c0.19-0.23,0.41-0.85,0.67-1.86c0.25-1.01,0.56-2.36,0.91-4.03c0.04-0.15,0.13-0.58,0.28-1.27
		c0.15-0.7,0.25-1.13,0.31-1.29l0.74-0.02c0.46-0.03,0.83-0.03,1.12-0.02c-0.13,0.46-0.35,1.38-0.68,2.77l-0.34,1.42
		c-0.05,0.17-0.17,0.69-0.34,1.58c-0.33,1.53-0.67,2.76-1.04,3.7c-0.36,0.93-0.97,1.73-1.83,2.39c-0.86,0.67-2.07,1-3.61,1
		c-0.28,0-0.49-0.01-0.65-0.02c-0.1-0.27-0.15-0.6-0.15-0.99c0-0.29,0.03-0.53,0.08-0.72c0.41,0.03,0.7,0.04,0.87,0.04
		c1.44,0,2.17-0.37,2.17-1.12c0-0.06-0.01-0.16-0.04-0.29l-1.35-4.77C171.71,7.43,171.24,5.76,170.75,3.93z"/>
	<path d="M1.75,39.86v0.21c0,0.03-0.08,0.05-0.25,0.07c-0.16,0.02-0.35,0.03-0.55,0.03c-0.29,0-0.56-0.02-0.82-0.06v-1.25
		c0-1.19-0.03-2.94-0.08-5.24c-0.01-0.56-0.03-1.24-0.04-2.04C0.01,30.76,0,29.85,0,28.84c0-0.94,0.01-1.63,0.02-2.09l1.23-0.02
		c0.25,0,0.44,0.01,0.55,0.02c0.01,0.01,0.02,0.07,0.03,0.16c0.01,0.09,0.01,0.19,0.01,0.29c0,0.05,0,0.11,0.01,0.17
		c0.01,0.06,0,0.15-0.01,0.27c0.01,0.06,0.04,0.09,0.07,0.08c0.03-0.01,0.07-0.05,0.12-0.14c0.23-0.29,0.54-0.5,0.93-0.63
		c0.39-0.13,0.79-0.19,1.2-0.19c0.2,0,0.34,0.01,0.42,0.02c0.87,0.06,1.54,0.34,2,0.82c0.46,0.48,0.77,1.09,0.92,1.82
		c0.15,0.73,0.24,1.64,0.27,2.72c0,0.96-0.12,1.8-0.37,2.51C7.15,35.37,6.76,35.81,6.23,36c-0.32,0.13-0.7,0.21-1.14,0.25
		c-0.14,0.01-0.36,0.02-0.66,0.02c-0.63,0-1.22-0.05-1.77-0.15c-0.54-0.1-0.83-0.23-0.85-0.38l0.04,2.32c0,0.28-0.01,0.62-0.04,1.03
		L1.75,39.86z M3.48,34.81c0.59,0,1.05-0.03,1.36-0.09c0.31-0.06,0.58-0.19,0.8-0.4s0.4-0.55,0.54-1.02
		c0.1-0.49,0.15-0.96,0.15-1.39c0-1.01-0.18-1.89-0.54-2.62c-0.36-0.74-1.05-1.06-2.08-0.99c-0.61,0.05-1.05,0.22-1.34,0.5
		c-0.29,0.29-0.47,0.66-0.54,1.13s-0.11,1.13-0.11,1.98c0,0.9,0.04,1.54,0.11,1.93c0.08,0.39,0.23,0.64,0.47,0.77
		C2.52,34.74,2.92,34.81,3.48,34.81z"/>
	<path d="M10.58,26.79c0,0.15,0,0.27,0.01,0.35c0.01,0.08,0.01,0.18,0.01,0.29c0.09-0.05,0.21-0.11,0.37-0.17s0.33-0.13,0.52-0.19
		c0.29-0.1,0.64-0.17,1.05-0.22c0.41-0.04,0.78-0.07,1.11-0.07c0.3,0,0.46,0.01,0.46,0.04L14.1,28.4c0,0.25,0.01,0.44,0.02,0.57
		c-0.19-0.08-0.41-0.15-0.65-0.21c-0.28-0.06-0.58-0.09-0.91-0.09c-0.34,0-0.73,0.05-1.16,0.15c-0.36,0.09-0.6,0.22-0.72,0.4
		c-0.13,0.18-0.18,0.51-0.17,1.01c0.05,1.74,0.08,3.71,0.08,5.91v0.08c-0.22,0.05-0.44,0.08-0.67,0.08c-0.09,0-0.23,0-0.43-0.01
		c-0.2-0.01-0.4,0-0.6,0.01l-0.02-3.27c-0.03-1.49-0.04-2.62-0.04-3.36c0-0.61,0.01-1.57,0.04-2.89c0.13,0.01,0.26,0.02,0.41,0.01
		c0.15-0.01,0.28-0.01,0.39-0.01c0.15-0.01,0.35-0.02,0.61-0.02C10.48,26.75,10.58,26.76,10.58,26.79z"/>
	<path d="M15.07,30.06c0-0.47,0.02-0.87,0.07-1.22c0.04-0.34,0.15-0.77,0.33-1.27c0.17-0.37,0.52-0.64,1.05-0.83s1.14-0.28,1.8-0.28
		c0.09,0.01,0.21,0.02,0.38,0.02l0.76-0.02c1.06,0,1.88,0.28,2.45,0.84c0.23,0.15,0.4,0.44,0.52,0.85c0.12,0.42,0.19,0.98,0.22,1.68
		c0.02,0.7,0.04,1.11,0.04,1.23c-0.05,1.27-0.11,2.27-0.18,3.02c-0.07,0.75-0.21,1.23-0.43,1.44c-0.24,0.34-0.57,0.58-1,0.7
		c-0.42,0.13-0.93,0.19-1.51,0.19c-0.23,0-0.57-0.01-1.03-0.04l-0.87-0.02c-0.75-0.13-1.31-0.4-1.68-0.82
		c-0.37-0.42-0.61-0.91-0.72-1.46c-0.11-0.56-0.16-1.23-0.16-2.01v-0.99C15.11,30.62,15.09,30.27,15.07,30.06z M18.94,28.25
		c-0.86,0-1.48,0.22-1.86,0.67c-0.17,0.2-0.27,0.46-0.31,0.77c-0.04,0.31-0.06,0.71-0.05,1.21c-0.01,0.19-0.01,0.44,0.01,0.76
		c0.02,0.32,0.03,0.56,0.03,0.74l0.04,0.8c0.04,0.51,0.18,0.86,0.43,1.07s0.56,0.35,0.94,0.43c0.25,0.04,0.51,0.06,0.78,0.06
		c0.49,0,0.92-0.09,1.29-0.27c0.37-0.18,0.6-0.47,0.7-0.87c0.05-0.33,0.08-0.59,0.08-0.78c0.06-0.89,0.1-1.49,0.1-1.8
		c0-0.84-0.15-1.51-0.46-2.01C20.35,28.51,19.78,28.25,18.94,28.25z"/>
	<path d="M26.96,23.22v2.91l0.02,1.06c0.82-0.03,1.84-0.07,3.06-0.13c0.08,0.1,0.11,0.29,0.11,0.57l-0.02,0.44
		c-0.03,0.28-0.03,0.48-0.02,0.61c-1.38,0-2.41-0.01-3.1-0.02v2.91v0.65c0,0.57,0.01,0.98,0.04,1.22c0.03,0.24,0.08,0.45,0.15,0.63
		c0.2,0.25,0.61,0.41,1.23,0.47s1.17,0.08,1.68,0.06c0.06,0.51,0.09,0.83,0.09,0.97c0,0.23-0.03,0.46-0.09,0.68
		c-0.27,0.01-0.68,0.02-1.25,0.02c-0.99,0-1.76-0.12-2.32-0.36s-0.91-0.72-1.06-1.44c-0.14-1.23-0.21-2.83-0.21-4.81v-0.91
		c-0.08,0.01-0.27,0.02-0.57,0.02l-1.44-0.02l0.06-1.56c0.28,0.03,0.94,0.04,1.99,0.04l-0.02-1.99v-0.89c0-0.53,0.01-0.91,0.04-1.12
		c0.18-0.01,0.45-0.01,0.82,0.02l0.51,0.02C26.8,23.24,26.9,23.23,26.96,23.22z"/>
	<path d="M32.47,31.43v0.34l-0.02,0.55c0,1.57,0.77,2.36,2.32,2.36c0.62,0,1.08-0.14,1.38-0.43s0.45-0.67,0.45-1.17
		c0-0.08-0.01-0.21-0.04-0.42c0.27-0.04,0.51-0.06,0.74-0.06c0.2,0,0.35,0.01,0.46,0.02c0.08,0,0.17,0,0.28,0.01
		c0.11,0.01,0.23,0,0.37-0.01c0.01,0.72-0.01,1.3-0.08,1.73s-0.22,0.84-0.46,1.23c-0.23,0.34-0.62,0.59-1.19,0.73
		s-1.18,0.22-1.85,0.22c-0.3,0-0.59-0.01-0.85-0.04s-0.42-0.05-0.48-0.08c-0.99-0.17-1.7-0.79-2.15-1.87
		c-0.44-1.08-0.63-2.32-0.57-3.71c0.01-0.1,0.03-0.31,0.06-0.64c0.03-0.32,0.06-0.66,0.1-1s0.13-0.68,0.26-1.01
		c0.24-0.56,0.68-0.99,1.31-1.29c0.63-0.3,1.34-0.46,2.11-0.46c0.41,0,0.83,0.05,1.27,0.15c1.72,0.29,2.58,1.59,2.58,3.89
		c0,0.19-0.01,0.46-0.04,0.82c-0.24,0.08-0.95,0.14-2.13,0.19c-0.14,0.01-0.44,0.02-0.91,0.02c-1,0-1.74-0.01-2.22-0.04
		C32.86,31.48,32.62,31.46,32.47,31.43z M37.09,30c-0.01-0.39-0.11-0.78-0.29-1.16c-0.18-0.38-0.45-0.68-0.79-0.89
		c-0.19-0.09-0.35-0.15-0.49-0.17s-0.32-0.04-0.53-0.04c-0.82,0-1.41,0.17-1.76,0.51c-0.35,0.34-0.57,0.83-0.66,1.46
		c-0.03,0.15-0.04,0.25-0.04,0.3c0,0.15,0.07,0.25,0.22,0.3c0.14,0.05,0.46,0.08,0.94,0.08c0.47,0,0.87-0.01,1.2-0.02
		c1.22,0,1.9-0.01,2.05-0.02c0.06-0.01,0.1-0.03,0.12-0.05c0.02-0.02,0.03-0.05,0.03-0.1V30z"/>
	<path d="M45.2,32.51c0.15,0.03,0.29,0.04,0.42,0.04l0.67-0.02c0.2,0,0.38,0.02,0.53,0.06c-0.06,0.87-0.13,1.55-0.2,2.03
		c-0.07,0.48-0.18,0.8-0.33,0.95c-0.24,0.34-0.57,0.58-1,0.7c-0.42,0.13-0.93,0.19-1.51,0.19c-0.23,0-0.57-0.01-1.03-0.04
		l-0.87-0.02c-0.75-0.13-1.3-0.41-1.67-0.85c-0.37-0.44-0.61-0.95-0.71-1.55c-0.11-0.6-0.18-1.38-0.22-2.36
		c0-0.71-0.01-1.23-0.02-1.56c0-0.75,0.14-1.58,0.42-2.49c0.16-0.37,0.52-0.64,1.05-0.83c0.54-0.18,1.14-0.28,1.79-0.28
		c0.1,0.01,0.25,0.02,0.44,0.02c0.11,0,0.26,0,0.43-0.01c0.17-0.01,0.38,0,0.62,0.01c0.95,0.09,1.65,0.35,2.11,0.8
		c0.29,0.2,0.48,0.53,0.56,0.97c0.08,0.44,0.14,1.11,0.16,2l0.02,0.46c-0.19,0.04-0.38,0.06-0.57,0.06c-0.33,0-0.67-0.03-1.01-0.1
		c-0.01-0.9-0.17-1.51-0.48-1.84c-0.31-0.33-0.8-0.49-1.47-0.49c-0.14,0-0.39,0.01-0.74,0.04c-0.33,0.01-0.59,0.04-0.77,0.09
		c-0.18,0.05-0.35,0.17-0.49,0.36c-0.14,0.19-0.24,0.48-0.3,0.87c-0.04,0.27-0.06,0.74-0.06,1.42v1.52c-0.03,0.42,0.08,0.85,0.3,1.3
		c0.23,0.45,0.68,0.71,1.37,0.77c0.13,0.01,0.3,0.02,0.51,0.02c0.6,0,1.04-0.11,1.33-0.34c0.29-0.23,0.48-0.49,0.56-0.79
		C45.12,33.34,45.17,32.96,45.2,32.51z"/>
	<path d="M51.15,23.22v2.91l0.02,1.06c0.82-0.03,1.84-0.07,3.06-0.13c0.08,0.1,0.11,0.29,0.11,0.57l-0.02,0.44
		c-0.03,0.28-0.03,0.48-0.02,0.61c-1.38,0-2.41-0.01-3.1-0.02v2.91v0.65c0,0.57,0.01,0.98,0.04,1.22c0.03,0.24,0.08,0.45,0.15,0.63
		c0.2,0.25,0.61,0.41,1.23,0.47s1.17,0.08,1.68,0.06c0.06,0.51,0.09,0.83,0.09,0.97c0,0.23-0.03,0.46-0.09,0.68
		c-0.27,0.01-0.68,0.02-1.25,0.02c-0.99,0-1.76-0.12-2.32-0.36s-0.91-0.72-1.06-1.44c-0.14-1.23-0.21-2.83-0.21-4.81v-0.91
		c-0.08,0.01-0.27,0.02-0.57,0.02l-1.44-0.02l0.06-1.56c0.28,0.03,0.94,0.04,1.99,0.04l-0.02-1.99v-0.89c0-0.53,0.01-0.91,0.04-1.12
		c0.18-0.01,0.45-0.01,0.82,0.02l0.51,0.02C50.98,23.24,51.08,23.23,51.15,23.22z"/>
	<path d="M58.08,26.73c0.21,0.01,0.54,0.02,0.99,0.02c0.43,0,0.73,0.01,0.91,0.04l0.68,2.6c0.47,1.79,0.83,3.13,1.08,4.04
		c0.25,0.91,0.46,1.51,0.63,1.81c0.19-0.23,0.41-0.85,0.67-1.86c0.25-1.01,0.56-2.36,0.91-4.03c0.04-0.15,0.13-0.58,0.28-1.27
		c0.15-0.7,0.25-1.13,0.31-1.29l0.74-0.02c0.46-0.03,0.83-0.03,1.12-0.02c-0.13,0.46-0.35,1.38-0.68,2.77l-0.34,1.42
		c-0.05,0.17-0.17,0.69-0.34,1.58c-0.33,1.53-0.67,2.76-1.04,3.7c-0.36,0.93-0.97,1.73-1.83,2.39c-0.86,0.67-2.07,1-3.61,1
		c-0.28,0-0.49-0.01-0.65-0.02c-0.1-0.27-0.15-0.6-0.15-0.99c0-0.29,0.03-0.53,0.08-0.72c0.41,0.03,0.7,0.04,0.87,0.04
		c1.44,0,2.17-0.37,2.17-1.12c0-0.06-0.01-0.16-0.04-0.29l-1.35-4.77C59.04,30.23,58.58,28.56,58.08,26.73z"/>
	<path d="M66.78,30.06c0-0.47,0.02-0.87,0.07-1.22c0.04-0.34,0.16-0.77,0.33-1.27c0.16-0.37,0.52-0.64,1.05-0.83
		c0.54-0.18,1.14-0.28,1.79-0.28c0.09,0.01,0.22,0.02,0.38,0.02l0.76-0.02c1.06,0,1.88,0.28,2.45,0.84c0.23,0.15,0.4,0.44,0.52,0.85
		c0.12,0.42,0.19,0.98,0.22,1.68s0.04,1.11,0.04,1.23c-0.05,1.27-0.11,2.27-0.18,3.02c-0.07,0.75-0.21,1.23-0.43,1.44
		c-0.24,0.34-0.57,0.58-1,0.7c-0.42,0.13-0.93,0.19-1.51,0.19c-0.23,0-0.57-0.01-1.03-0.04l-0.87-0.02
		c-0.75-0.13-1.31-0.4-1.68-0.82c-0.37-0.42-0.61-0.91-0.72-1.46c-0.11-0.56-0.16-1.23-0.16-2.01v-0.99
		C66.82,30.62,66.81,30.27,66.78,30.06z M70.66,28.25c-0.86,0-1.48,0.22-1.86,0.67c-0.17,0.2-0.27,0.46-0.31,0.77
		c-0.04,0.31-0.06,0.71-0.05,1.21c-0.01,0.19-0.01,0.44,0.01,0.76c0.02,0.32,0.03,0.56,0.03,0.74l0.04,0.8
		c0.04,0.51,0.18,0.86,0.43,1.07c0.25,0.21,0.56,0.35,0.94,0.43c0.25,0.04,0.51,0.06,0.78,0.06c0.49,0,0.92-0.09,1.29-0.27
		c0.37-0.18,0.6-0.47,0.7-0.87c0.05-0.33,0.08-0.59,0.08-0.78c0.06-0.89,0.09-1.49,0.09-1.8c0-0.84-0.15-1.51-0.46-2.01
		C72.07,28.51,71.5,28.25,70.66,28.25z"/>
	<path d="M81.03,36.23c-0.01-0.24-0.02-0.44-0.02-0.6s-0.01-0.29-0.02-0.41c-0.03,0.01-0.13,0.08-0.3,0.21
		c-0.18,0.13-0.46,0.23-0.86,0.32c-0.73,0.27-1.45,0.4-2.15,0.4c-0.79,0-1.38-0.19-1.77-0.57c-0.21-0.19-0.35-0.51-0.4-0.96
		c-0.05-0.45-0.08-1.17-0.1-2.16v-0.59c0-0.39,0.01-0.97,0.04-1.73c0.04-0.76,0.06-1.48,0.06-2.17c0-0.33-0.01-0.73-0.04-1.22
		c0.23-0.03,0.54-0.04,0.93-0.04h0.63c0.04,0.38,0.06,0.83,0.06,1.35l-0.02,1.54c0,0.51,0.01,0.87,0.02,1.1l0.02,0.53
		c0,0.46,0.02,0.99,0.06,1.6c0.03,0.42,0.11,0.73,0.26,0.95c0.15,0.21,0.36,0.36,0.66,0.44c0.25,0.04,0.49,0.06,0.7,0.06
		c0.75,0,1.32-0.2,1.72-0.61c0.4-0.41,0.6-0.96,0.62-1.65c0.01-0.46-0.01-1.29-0.06-2.49c-0.03-0.61-0.04-1.01-0.04-1.2
		c0-0.34,0.01-0.83,0.04-1.46v-0.08c0.2-0.05,0.4-0.08,0.58-0.09s0.29-0.02,0.33-0.02c0.27,0,0.49-0.01,0.68-0.02l0.02,3.27
		c0.02,1.5,0.04,2.62,0.04,3.36c0,0.61-0.01,1.57-0.04,2.89c-0.28,0-0.59,0.02-0.93,0.06c-0.06,0-0.14,0.01-0.24,0.02
		s-0.19,0.02-0.29,0.02C81.1,36.29,81.03,36.27,81.03,36.23z"/>
	<path d="M90.63,29.15v7.03c-0.19-0.01-0.41-0.01-0.67,0.02l-0.46,0.02c-0.2,0-0.37-0.01-0.49-0.04c-0.05-0.3-0.08-1.41-0.08-3.31
		l0.02-2.3c0.01-0.38,0.02-0.85,0.02-1.42c-0.14,0.01-0.42,0.02-0.84,0.02c-0.11-0.01-0.28-0.02-0.49-0.02
		c-0.19,0-0.33,0.01-0.42,0.02l-0.06-1.63c0.94,0,1.53,0.01,1.77,0.02l-0.02-0.76c0-0.95,0.15-1.75,0.45-2.39
		c0.3-0.65,0.87-1.03,1.72-1.14c0.7-0.06,1.44-0.1,2.24-0.1h0.74c0.08,0.24,0.11,0.49,0.11,0.76c0,0.14-0.03,0.46-0.09,0.97
		c-0.22-0.01-0.92,0.01-2.13,0.06c-0.41,0.03-0.68,0.06-0.84,0.1c-0.15,0.04-0.27,0.16-0.34,0.35c-0.08,0.19-0.11,0.53-0.11,1.01
		c0,0.17,0.01,0.56,0.04,1.2c0.75-0.01,1.86-0.02,3.34-0.02c-0.01,0.05-0.03,0.26-0.06,0.63c0,0.38-0.01,0.72-0.04,1.01l-2.19-0.06
		L90.63,29.15z"/>
	<path d="M96.58,26.79c0,0.15,0,0.27,0.01,0.35c0.01,0.08,0.01,0.18,0.01,0.29c0.09-0.05,0.21-0.11,0.37-0.17
		c0.16-0.06,0.33-0.13,0.52-0.19c0.29-0.1,0.64-0.17,1.05-0.22c0.41-0.04,0.78-0.07,1.11-0.07c0.3,0,0.46,0.01,0.46,0.04l-0.02,1.58
		c0,0.25,0.01,0.44,0.02,0.57c-0.19-0.08-0.41-0.15-0.65-0.21c-0.28-0.06-0.58-0.09-0.91-0.09c-0.34,0-0.73,0.05-1.16,0.15
		c-0.35,0.09-0.6,0.22-0.72,0.4c-0.13,0.18-0.18,0.51-0.17,1.01c0.05,1.74,0.08,3.71,0.08,5.91v0.08c-0.22,0.05-0.44,0.08-0.67,0.08
		c-0.09,0-0.23,0-0.43-0.01c-0.2-0.01-0.4,0-0.6,0.01l-0.02-3.27c-0.03-1.49-0.04-2.62-0.04-3.36c0-0.61,0.01-1.57,0.04-2.89
		c0.13,0.01,0.26,0.02,0.41,0.01c0.15-0.01,0.28-0.01,0.39-0.01c0.15-0.01,0.35-0.02,0.61-0.02C96.47,26.75,96.58,26.76,96.58,26.79
		z"/>
	<path d="M101.06,30.06c0-0.47,0.02-0.87,0.07-1.22c0.04-0.34,0.16-0.77,0.33-1.27c0.16-0.37,0.52-0.64,1.05-0.83
		c0.54-0.18,1.14-0.28,1.79-0.28c0.09,0.01,0.22,0.02,0.38,0.02l0.76-0.02c1.06,0,1.88,0.28,2.45,0.84c0.23,0.15,0.4,0.44,0.52,0.85
		c0.12,0.42,0.19,0.98,0.22,1.68s0.04,1.11,0.04,1.23c-0.05,1.27-0.11,2.27-0.18,3.02c-0.07,0.75-0.21,1.23-0.43,1.44
		c-0.24,0.34-0.57,0.58-1,0.7c-0.42,0.13-0.93,0.19-1.51,0.19c-0.23,0-0.57-0.01-1.03-0.04l-0.87-0.02
		c-0.75-0.13-1.31-0.4-1.68-0.82c-0.37-0.42-0.61-0.91-0.72-1.46c-0.11-0.56-0.16-1.23-0.16-2.01v-0.99
		C101.1,30.62,101.08,30.27,101.06,30.06z M104.94,28.25c-0.86,0-1.48,0.22-1.86,0.67c-0.17,0.2-0.27,0.46-0.31,0.77
		c-0.04,0.31-0.06,0.71-0.05,1.21c-0.01,0.19-0.01,0.44,0.01,0.76c0.02,0.32,0.03,0.56,0.03,0.74l0.04,0.8
		c0.04,0.51,0.18,0.86,0.43,1.07c0.25,0.21,0.56,0.35,0.94,0.43c0.25,0.04,0.51,0.06,0.78,0.06c0.49,0,0.92-0.09,1.29-0.27
		c0.37-0.18,0.6-0.47,0.7-0.87c0.05-0.33,0.08-0.59,0.08-0.78c0.06-0.89,0.09-1.49,0.09-1.8c0-0.84-0.15-1.51-0.46-2.01
		C106.34,28.51,105.77,28.25,104.94,28.25z"/>
	<path d="M111.53,26.81c0.03,0.14,0.04,0.32,0.04,0.53v0.47c0.47-0.47,1.03-0.75,1.67-0.86c0.44-0.09,0.82-0.13,1.12-0.13
		c0.54,0,0.99,0.11,1.35,0.32c0.28,0.13,0.46,0.3,0.55,0.53c0.09-0.05,0.22-0.14,0.39-0.28c0.17-0.13,0.41-0.26,0.7-0.38
		c0.3-0.12,0.71-0.19,1.24-0.2c0.63-0.03,1.13,0,1.49,0.09c0.36,0.08,0.69,0.25,0.98,0.5c0.16,0.14,0.28,0.47,0.34,0.99
		s0.09,1.2,0.09,2.05c0,0.48-0.01,1.24-0.04,2.28c-0.03,1.01-0.04,1.74-0.04,2.17c0,0.35,0.01,0.79,0.04,1.29
		c-0.46,0.08-0.99,0.1-1.62,0.08c-0.03-0.34-0.04-0.97-0.04-1.88c0.03-0.99,0.04-1.75,0.04-2.28v-0.8c-0.01-0.1-0.03-0.29-0.04-0.55
		c-0.01-0.27-0.04-0.56-0.08-0.87s-0.11-0.56-0.23-0.72c-0.08-0.25-0.32-0.4-0.74-0.44c-0.13-0.03-0.31-0.04-0.55-0.04
		c-0.37,0-0.68,0.06-0.95,0.18c-0.27,0.12-0.46,0.31-0.57,0.56c-0.03,0.28-0.04,0.5-0.04,0.67l0.02,0.53v0.7
		c0,0.43-0.01,1.09-0.04,1.98l-0.02,1.9c0,0.47,0.01,0.8,0.02,1.01c-0.27,0.04-0.63,0.06-1.08,0.06h-0.59
		c-0.03-0.25-0.04-0.7-0.04-1.35v-1.01l0.02-1.41c0-0.87-0.03-1.65-0.08-2.32c0-0.53-0.09-0.9-0.27-1.09
		c-0.18-0.2-0.51-0.29-0.99-0.29c-1.34,0-2.06,0.75-2.17,2.26c-0.01,0.19-0.02,0.47-0.02,0.84c0,0.41,0.01,0.98,0.04,1.71l0.02,0.93
		c0,0.52-0.02,1.06-0.06,1.62v0.08c-0.19,0.04-0.37,0.06-0.53,0.06l-0.63-0.02c-0.19,0-0.34,0.01-0.46,0.02l-0.02-3.27
		c-0.03-1.49-0.04-2.62-0.04-3.36c0-0.61,0.01-1.57,0.04-2.89c0.33,0.03,0.53,0.04,0.59,0.04l0.42-0.02c0.06,0,0.15-0.01,0.25-0.02
		s0.2-0.02,0.3-0.02C111.47,26.75,111.53,26.77,111.53,26.81z"/>
	<path d="M129.58,23.22v2.91l0.02,1.06c0.82-0.03,1.84-0.07,3.06-0.13c0.08,0.1,0.11,0.29,0.11,0.57l-0.02,0.44
		c-0.03,0.28-0.03,0.48-0.02,0.61c-1.38,0-2.41-0.01-3.1-0.02v2.91v0.65c0,0.57,0.01,0.98,0.04,1.22c0.03,0.24,0.08,0.45,0.15,0.63
		c0.2,0.25,0.61,0.41,1.22,0.47s1.17,0.08,1.68,0.06c0.06,0.51,0.1,0.83,0.1,0.97c0,0.23-0.03,0.46-0.1,0.68
		c-0.27,0.01-0.68,0.02-1.25,0.02c-0.99,0-1.76-0.12-2.32-0.36c-0.56-0.24-0.91-0.72-1.06-1.44c-0.14-1.23-0.21-2.83-0.21-4.81
		v-0.91c-0.08,0.01-0.27,0.02-0.57,0.02l-1.44-0.02l0.06-1.56c0.28,0.03,0.94,0.04,2,0.04l-0.02-1.99v-0.89
		c0-0.53,0.01-0.91,0.04-1.12c0.18-0.01,0.45-0.01,0.82,0.02l0.51,0.02C129.41,23.24,129.52,23.23,129.58,23.22z"/>
	<path d="M135.39,26.05v1.69c0.34-0.29,0.64-0.51,0.9-0.66s0.64-0.24,1.15-0.28c0.3-0.04,0.59-0.06,0.86-0.06
		c0.92,0,1.65,0.22,2.17,0.67c0.16,0.14,0.28,0.47,0.34,0.99s0.09,1.2,0.09,2.05c0,0.48-0.01,1.24-0.04,2.28
		c-0.03,1.01-0.04,1.74-0.04,2.17c0,0.35,0.01,0.79,0.04,1.29c-0.51,0.08-1.05,0.1-1.63,0.08c-0.03-0.38-0.04-0.71-0.04-0.99v-1.14
		v-3.72c-0.03-0.81-0.21-1.34-0.57-1.58c-0.08-0.05-0.23-0.1-0.46-0.15c-0.27-0.08-0.54-0.11-0.82-0.11c-0.49,0-0.92,0.12-1.26,0.37
		s-0.57,0.63-0.67,1.15c-0.09,0.48-0.13,1.06-0.13,1.73l0.02,0.65c0.03,0.84,0.04,1.53,0.04,2.07c0,0.68-0.01,1.21-0.04,1.58v0.08
		c-0.25,0.06-0.46,0.09-0.61,0.09l-0.57-0.02c-0.18,0-0.32,0.01-0.44,0.02c0-1.46-0.01-2.66-0.02-3.61l-0.02-5.81
		c0-1.42,0.01-2.88,0.04-4.37c0.39,0.04,0.71,0.05,0.95,0.04c0.06,0,0.14-0.01,0.24-0.02s0.19-0.02,0.29-0.02
		c0.13,0,0.19,0.02,0.19,0.06c0.03,0.11,0.04,0.89,0.04,2.32V26.05z"/>
	<path d="M143.6,31.43v0.34l-0.02,0.55c0,1.57,0.77,2.36,2.32,2.36c0.62,0,1.08-0.14,1.38-0.43c0.3-0.29,0.45-0.67,0.45-1.17
		c0-0.08-0.01-0.21-0.04-0.42c0.27-0.04,0.51-0.06,0.74-0.06c0.2,0,0.35,0.01,0.46,0.02c0.08,0,0.17,0,0.28,0.01
		c0.11,0.01,0.23,0,0.37-0.01c0.01,0.72-0.01,1.3-0.08,1.73s-0.21,0.84-0.46,1.23c-0.23,0.34-0.62,0.59-1.19,0.73
		s-1.18,0.22-1.85,0.22c-0.3,0-0.59-0.01-0.84-0.04c-0.26-0.03-0.42-0.05-0.48-0.08c-0.99-0.17-1.7-0.79-2.15-1.87
		s-0.63-2.32-0.57-3.71c0.01-0.1,0.03-0.31,0.06-0.64c0.03-0.32,0.06-0.66,0.1-1c0.04-0.34,0.13-0.68,0.26-1.01
		c0.24-0.56,0.68-0.99,1.31-1.29c0.63-0.3,1.34-0.46,2.11-0.46c0.41,0,0.83,0.05,1.27,0.15c1.72,0.29,2.58,1.59,2.58,3.89
		c0,0.19-0.01,0.46-0.04,0.82c-0.24,0.08-0.95,0.14-2.13,0.19c-0.14,0.01-0.44,0.02-0.91,0.02c-1,0-1.74-0.01-2.22-0.04
		C143.99,31.48,143.75,31.46,143.6,31.43z M148.22,30c-0.01-0.39-0.11-0.78-0.29-1.16c-0.18-0.38-0.45-0.68-0.79-0.89
		c-0.19-0.09-0.36-0.15-0.49-0.17c-0.14-0.03-0.32-0.04-0.53-0.04c-0.82,0-1.41,0.17-1.76,0.51c-0.35,0.34-0.57,0.83-0.66,1.46
		c-0.03,0.15-0.04,0.25-0.04,0.3c0,0.15,0.07,0.25,0.22,0.3c0.15,0.05,0.46,0.08,0.94,0.08c0.47,0,0.87-0.01,1.2-0.02
		c1.22,0,1.9-0.01,2.05-0.02c0.06-0.01,0.1-0.03,0.12-0.05c0.02-0.02,0.03-0.05,0.03-0.1V30z"/>
	<path d="M161.99,29.2c0,0.06-0.22,0.1-0.67,0.1c-0.33,0-0.57-0.01-0.72-0.02c-0.1,0-0.2,0-0.3-0.01c-0.1-0.01-0.18,0-0.25,0.01
		c0-0.01,0-0.23,0-0.66s-0.37-0.68-1.1-0.77c-0.17-0.03-0.41-0.04-0.74-0.04c-0.35,0-0.67,0.03-0.96,0.08
		c-0.28,0.05-0.5,0.12-0.64,0.21c-0.17,0.13-0.29,0.31-0.38,0.55c-0.09,0.24-0.13,0.47-0.13,0.7c0,0.18,0.03,0.3,0.08,0.36
		c0.14,0.29,0.32,0.49,0.55,0.61c0.13,0.09,0.44,0.2,0.93,0.32s0.92,0.2,1.27,0.21c0.52,0.01,0.98,0.09,1.38,0.24
		c0.4,0.15,0.71,0.35,0.94,0.6c0.23,0.28,0.4,0.55,0.5,0.83c0.11,0.27,0.16,0.57,0.16,0.88c0,0.39-0.09,0.87-0.29,1.42
		c-0.28,0.6-0.72,1.03-1.33,1.31s-1.3,0.41-2.07,0.4c-0.85,0.03-1.6-0.08-2.24-0.33c-0.65-0.25-1.15-0.62-1.5-1.11
		c-0.36-0.49-0.53-1.08-0.53-1.75v-0.1c0.23-0.02,0.56-0.04,1.01-0.04c0.49,0,0.76,0.02,0.8,0.06c0.03,0.03,0.08,0.17,0.16,0.43
		c0.08,0.26,0.23,0.52,0.45,0.79c0.21,0.27,0.58,0.42,1.1,0.46c0.41,0.03,0.65,0.04,0.72,0.04c0.2,0,0.37-0.02,0.5-0.06
		c0.13-0.04,0.31-0.11,0.52-0.21c0.65-0.29,0.96-0.72,0.95-1.27c0.01-0.37-0.09-0.65-0.29-0.86c-0.21-0.2-0.47-0.34-0.79-0.41
		c-0.32-0.07-0.75-0.14-1.29-0.2c-0.39-0.04-0.71-0.08-0.95-0.11s-0.46-0.1-0.65-0.19c-0.66-0.22-1.16-0.55-1.51-1.02
		c-0.35-0.46-0.52-0.97-0.52-1.51c0-0.6,0.17-1.14,0.52-1.62c0.35-0.49,0.83-0.81,1.43-0.96c0.52-0.14,1.18-0.21,2-0.21
		c0.19,0,0.47,0.01,0.85,0.04c0.54,0.04,1.05,0.13,1.52,0.29c0.44,0.19,0.8,0.52,1.08,0.98C161.85,28.12,161.99,28.63,161.99,29.2z"
		/>
	<path d="M168.49,36.23c-0.01-0.24-0.02-0.44-0.02-0.6s-0.01-0.29-0.02-0.41c-0.03,0.01-0.13,0.08-0.3,0.21s-0.46,0.23-0.85,0.32
		c-0.74,0.27-1.45,0.4-2.15,0.4c-0.79,0-1.37-0.19-1.77-0.57c-0.22-0.19-0.35-0.51-0.4-0.96c-0.05-0.45-0.08-1.17-0.09-2.16v-0.59
		c0-0.39,0.01-0.97,0.04-1.73c0.04-0.76,0.06-1.48,0.06-2.17c0-0.33-0.01-0.73-0.04-1.22c0.23-0.03,0.54-0.04,0.93-0.04h0.63
		c0.04,0.38,0.06,0.83,0.06,1.35l-0.02,1.54c0,0.51,0.01,0.87,0.02,1.1l0.02,0.53c0,0.46,0.02,0.99,0.06,1.6
		c0.03,0.42,0.11,0.73,0.26,0.95c0.15,0.21,0.36,0.36,0.66,0.44c0.25,0.04,0.49,0.06,0.7,0.06c0.75,0,1.32-0.2,1.72-0.61
		c0.4-0.41,0.61-0.96,0.62-1.65c0.01-0.46-0.01-1.29-0.06-2.49c-0.03-0.61-0.04-1.01-0.04-1.2c0-0.34,0.01-0.83,0.04-1.46v-0.08
		c0.2-0.05,0.4-0.08,0.58-0.09s0.29-0.02,0.33-0.02c0.27,0,0.49-0.01,0.68-0.02l0.02,3.27c0.03,1.5,0.04,2.62,0.04,3.36
		c0,0.61-0.01,1.57-0.04,2.89c-0.28,0-0.59,0.02-0.93,0.06c-0.06,0-0.14,0.01-0.24,0.02c-0.1,0.01-0.19,0.02-0.29,0.02
		C168.55,36.29,168.49,36.27,168.49,36.23z"/>
	<path d="M173.33,26.79c0.03,0.14,0.04,0.32,0.04,0.53v0.48c0.43-0.25,0.94-0.48,1.52-0.67c0.58-0.2,1.17-0.29,1.75-0.29
		c0.7,0.03,1.27,0.22,1.71,0.59c0.3,0.27,0.46,1.35,0.46,3.25c0,0.48-0.01,1.23-0.04,2.24c-0.03,0.96-0.04,1.66-0.04,2.09
		c0,0.56,0.01,0.96,0.02,1.2c-0.24,0.04-0.59,0.06-1.04,0.06h-0.63c-0.03-0.2-0.04-0.56-0.04-1.06v-0.82l0.02-1.22
		c0.03-0.82,0.03-1.41,0.02-1.77c0-0.08-0.02-0.34-0.05-0.78c-0.03-0.44-0.1-0.84-0.22-1.18c-0.04-0.44-0.35-0.65-0.93-0.61
		c-0.87,0.01-1.52,0.13-1.93,0.36c-0.41,0.23-0.64,0.64-0.69,1.23c-0.01,0.17-0.02,0.48-0.02,0.93c0,0.71,0.01,1.47,0.04,2.28
		c0.03,0.48,0.04,0.84,0.04,1.06c0,0.47-0.02,0.95-0.06,1.44v0.08c-0.24,0.05-0.48,0.07-0.71,0.07c-0.23-0.01-0.4-0.01-0.5-0.01
		c-0.2,0-0.36,0.01-0.47,0.02l-0.02-3.27c-0.03-1.49-0.04-2.62-0.04-3.36c0-0.61,0.01-1.57,0.04-2.89c0.15,0.01,0.33,0.02,0.53,0.02
		c0.2,0,0.37-0.01,0.49-0.02c0.08,0,0.17-0.01,0.27-0.02c0.1-0.01,0.2-0.02,0.3-0.02C173.27,26.73,173.33,26.75,173.33,26.79z"/>
	<path d="M181.92,36.23l-1.44-0.02h-0.06c-0.04-0.23-0.06-0.52-0.06-0.87l0.02-0.93c0.01-0.11,0.02-0.25,0.02-0.4
		c0.23-0.09,0.53-0.13,0.91-0.13c0.35,0,0.61,0.03,0.76,0.1c0,0.06-0.02,0.41-0.06,1.03c-0.04,0.62-0.06,1.02-0.06,1.2v0.04H181.92z
		"/>
	<path d="M29.41,45.71c0.41,0.1,0.79,0.3,1.17,0.59c0.37,0.29,0.67,0.63,0.9,1.01c0.37,0.59,0.67,1.24,0.9,1.94
		c0.23,0.7,0.37,1.38,0.41,2.05l-0.04,0.86c-0.03,1.14-0.1,2.05-0.23,2.72c0,0.04-0.04,0.13-0.1,0.29s-0.14,0.31-0.2,0.47
		c-0.19,0.44-0.48,0.97-0.87,1.57c-0.39,0.6-0.81,1.18-1.25,1.74c-1.12,0.04-2.78,0.06-5,0.06l-0.02,0.02
		c-0.21-1.56-0.32-3.59-0.32-6.1c0-1.13,0.01-1.98,0.02-2.55l0.02-2.56c0-0.81-0.01-1.42-0.02-1.82l0.06-0.08
		c0.56-0.14,1.27-0.21,2.15-0.21c0.42,0,0.73,0.01,0.93,0.02C28.42,45.73,28.92,45.73,29.41,45.71z M27.7,56.58
		c0.62-0.01,1.07-0.05,1.34-0.1c0.27-0.06,0.48-0.15,0.62-0.28c0.14-0.13,0.34-0.37,0.61-0.72c0.37-0.48,0.65-1.29,0.84-2.41
		c0.03-0.3,0.04-0.53,0.04-0.68c0-0.15-0.01-0.38-0.04-0.68c-0.06-0.67-0.2-1.27-0.42-1.79c-0.22-0.52-0.47-0.93-0.76-1.24
		c-0.29-0.3-0.58-0.48-0.86-0.53c-0.33-0.03-0.54-0.04-0.65-0.04c-0.34-0.03-0.95,0-1.82,0.08h-0.1c0.05,0.35,0.08,1.03,0.08,2.01
		c0,0.81-0.01,1.5-0.04,2.05l-0.02,0.67c0,0.22,0.01,0.7,0.04,1.46l0.09,2.09C26.76,56.54,27.11,56.58,27.7,56.58z"/>
	<path d="M33.63,52.86c0-0.47,0.02-0.87,0.07-1.22c0.04-0.34,0.16-0.77,0.33-1.27c0.16-0.37,0.52-0.64,1.05-0.83
		c0.54-0.18,1.14-0.28,1.79-0.28c0.09,0.01,0.22,0.02,0.38,0.02l0.76-0.02c1.06,0,1.88,0.28,2.45,0.84c0.23,0.15,0.4,0.44,0.52,0.85
		c0.12,0.42,0.19,0.98,0.22,1.68s0.04,1.11,0.04,1.23c-0.05,1.27-0.11,2.27-0.18,3.02c-0.07,0.75-0.21,1.23-0.43,1.44
		c-0.24,0.34-0.57,0.58-1,0.7c-0.42,0.13-0.93,0.19-1.51,0.19c-0.23,0-0.57-0.01-1.03-0.04l-0.87-0.02
		c-0.75-0.13-1.31-0.4-1.68-0.82c-0.37-0.42-0.61-0.91-0.72-1.46c-0.11-0.56-0.16-1.23-0.16-2.01v-0.99
		C33.67,53.42,33.65,53.07,33.63,52.86z M37.5,51.05c-0.86,0-1.48,0.22-1.86,0.67c-0.17,0.2-0.27,0.46-0.31,0.77
		c-0.04,0.31-0.06,0.71-0.05,1.21c-0.01,0.19-0.01,0.44,0.01,0.76c0.02,0.32,0.03,0.56,0.03,0.74l0.04,0.8
		c0.04,0.51,0.18,0.86,0.43,1.07c0.25,0.21,0.56,0.35,0.94,0.43c0.25,0.04,0.51,0.06,0.78,0.06c0.49,0,0.92-0.09,1.29-0.27
		c0.37-0.18,0.6-0.47,0.7-0.87c0.05-0.33,0.08-0.59,0.08-0.78c0.06-0.89,0.09-1.49,0.09-1.8c0-0.84-0.15-1.51-0.46-2.01
		C38.91,51.31,38.34,51.05,37.5,51.05z"/>
	<path d="M45.2,49.53c0.22,0.01,0.54,0.02,0.99,0.02c0.43,0,0.73,0.01,0.91,0.04l0.68,2.6c0.47,1.79,0.83,3.13,1.08,4.04
		c0.25,0.91,0.46,1.51,0.63,1.81c0.19-0.23,0.41-0.85,0.67-1.86c0.25-1.01,0.56-2.36,0.91-4.03c0.04-0.15,0.13-0.58,0.28-1.27
		c0.15-0.7,0.25-1.13,0.31-1.29l0.74-0.02c0.46-0.03,0.83-0.03,1.12-0.02c-0.13,0.46-0.35,1.38-0.68,2.77l-0.34,1.42
		c-0.05,0.17-0.16,0.69-0.34,1.58c-0.33,1.53-0.67,2.76-1.04,3.7c-0.36,0.93-0.97,1.73-1.83,2.39s-2.06,1-3.61,1
		c-0.28,0-0.49-0.01-0.65-0.02c-0.1-0.27-0.15-0.6-0.15-0.99c0-0.29,0.03-0.53,0.08-0.72c0.41,0.03,0.7,0.04,0.87,0.04
		c1.44,0,2.17-0.37,2.17-1.12c0-0.06-0.01-0.16-0.04-0.29l-1.35-4.77C46.16,53.03,45.69,51.36,45.2,49.53z"/>
	<path d="M53.9,52.86c0-0.47,0.02-0.87,0.07-1.22c0.04-0.34,0.15-0.77,0.33-1.27c0.17-0.37,0.52-0.64,1.05-0.83s1.14-0.28,1.8-0.28
		c0.09,0.01,0.21,0.02,0.38,0.02l0.76-0.02c1.06,0,1.88,0.28,2.45,0.84c0.23,0.15,0.4,0.44,0.52,0.85c0.12,0.42,0.19,0.98,0.22,1.68
		c0.02,0.7,0.04,1.11,0.04,1.23c-0.05,1.27-0.11,2.27-0.18,3.02c-0.07,0.75-0.21,1.23-0.43,1.44c-0.24,0.34-0.57,0.58-1,0.7
		c-0.42,0.13-0.93,0.19-1.51,0.19c-0.23,0-0.57-0.01-1.03-0.04l-0.87-0.02c-0.75-0.13-1.31-0.4-1.68-0.82
		c-0.37-0.42-0.61-0.91-0.72-1.46c-0.11-0.56-0.16-1.23-0.16-2.01v-0.99C53.94,53.42,53.93,53.07,53.9,52.86z M57.78,51.05
		c-0.86,0-1.48,0.22-1.86,0.67c-0.17,0.2-0.27,0.46-0.31,0.77c-0.04,0.31-0.06,0.71-0.05,1.21c-0.01,0.19-0.01,0.44,0.01,0.76
		c0.02,0.32,0.03,0.56,0.03,0.74l0.04,0.8c0.04,0.51,0.18,0.86,0.43,1.07s0.56,0.35,0.94,0.43c0.25,0.04,0.51,0.06,0.78,0.06
		c0.49,0,0.92-0.09,1.29-0.27c0.37-0.18,0.6-0.47,0.7-0.87c0.05-0.33,0.08-0.59,0.08-0.78c0.06-0.89,0.1-1.49,0.1-1.8
		c0-0.84-0.15-1.51-0.46-2.01C59.18,51.31,58.61,51.05,57.78,51.05z"/>
	<path d="M68.15,59.03c-0.01-0.24-0.02-0.44-0.02-0.6s-0.01-0.29-0.02-0.41c-0.03,0.01-0.13,0.08-0.3,0.21
		c-0.18,0.13-0.46,0.23-0.86,0.32c-0.73,0.27-1.45,0.4-2.15,0.4c-0.79,0-1.38-0.19-1.77-0.57c-0.21-0.19-0.35-0.51-0.4-0.96
		c-0.05-0.45-0.08-1.17-0.1-2.16v-0.59c0-0.39,0.01-0.97,0.04-1.73c0.04-0.76,0.06-1.48,0.06-2.17c0-0.33-0.01-0.73-0.04-1.22
		c0.23-0.03,0.54-0.04,0.93-0.04h0.63c0.04,0.38,0.06,0.83,0.06,1.35l-0.02,1.54c0,0.51,0.01,0.87,0.02,1.1l0.02,0.53
		c0,0.46,0.02,0.99,0.06,1.6c0.03,0.42,0.11,0.73,0.26,0.95c0.15,0.21,0.36,0.36,0.66,0.44c0.25,0.04,0.49,0.06,0.7,0.06
		c0.75,0,1.32-0.2,1.72-0.61c0.4-0.41,0.6-0.96,0.62-1.65c0.01-0.46-0.01-1.29-0.06-2.49c-0.03-0.61-0.04-1.01-0.04-1.2
		c0-0.34,0.01-0.83,0.04-1.46v-0.08c0.2-0.05,0.4-0.08,0.58-0.09s0.29-0.02,0.33-0.02c0.27,0,0.49-0.01,0.68-0.02l0.02,3.27
		c0.02,1.5,0.04,2.62,0.04,3.36c0,0.61-0.01,1.57-0.04,2.89c-0.28,0-0.59,0.02-0.93,0.06c-0.06,0-0.14,0.01-0.24,0.02
		s-0.19,0.02-0.29,0.02C68.22,59.09,68.15,59.07,68.15,59.03z"/>
	<path d="M76.7,48.85v1.69c0.34-0.29,0.64-0.51,0.9-0.66s0.64-0.24,1.15-0.28c0.3-0.04,0.59-0.06,0.85-0.06
		c0.92,0,1.65,0.22,2.17,0.67c0.17,0.14,0.28,0.47,0.34,0.99c0.06,0.52,0.09,1.2,0.09,2.05c0,0.48-0.01,1.24-0.04,2.28
		c-0.03,1.01-0.04,1.74-0.04,2.17c0,0.35,0.01,0.79,0.04,1.29c-0.51,0.08-1.05,0.1-1.63,0.08c-0.03-0.38-0.04-0.71-0.04-0.99v-1.14
		v-3.72c-0.03-0.81-0.22-1.34-0.57-1.58c-0.08-0.05-0.23-0.1-0.46-0.15c-0.27-0.08-0.54-0.11-0.82-0.11c-0.49,0-0.92,0.12-1.26,0.37
		c-0.35,0.25-0.57,0.63-0.67,1.15c-0.09,0.48-0.13,1.06-0.13,1.73l0.02,0.65c0.03,0.84,0.04,1.53,0.04,2.07
		c0,0.68-0.01,1.21-0.04,1.58v0.08c-0.25,0.06-0.46,0.09-0.61,0.09l-0.57-0.02c-0.18,0-0.32,0.01-0.44,0.02
		c0-1.46-0.01-2.66-0.02-3.61l-0.02-5.81c0-1.42,0.01-2.88,0.04-4.37c0.39,0.04,0.71,0.05,0.95,0.04c0.06,0,0.14-0.01,0.24-0.02
		c0.09-0.01,0.19-0.02,0.29-0.02c0.13,0,0.19,0.02,0.19,0.06c0.03,0.11,0.04,0.89,0.04,2.32V48.85z"/>
	<path d="M89.55,49.49c0.29-0.01,0.67,0,1.12,0.04l0.49,0.04c0.03,0.2,0.04,0.35,0.04,0.46v0.19c-0.01,0.29-0.02,0.73-0.02,1.31
		c0,0.48,0.01,1.19,0.04,2.13l0.02,2.13c0,0.91-0.03,1.74-0.08,2.49c0,0.04,0,0.12,0,0.25c0,0.13-0.01,0.24-0.04,0.34
		c-0.03,0.1-0.1,0.17-0.21,0.19h-0.32l-0.61-0.02c-0.1,0-0.19,0.01-0.27,0.02s-0.15,0.02-0.21,0.02c-0.13-0.04-0.19-0.18-0.19-0.42
		c-0.01-0.1-0.01-0.22,0.01-0.34c0.02-0.13,0.03-0.23,0.03-0.32c-0.3,0.42-0.79,0.7-1.44,0.85c-0.66,0.15-1.3,0.23-1.94,0.23
		c-0.61,0-1.12-0.27-1.55-0.81c-0.42-0.54-0.74-1.2-0.94-1.99c-0.2-0.79-0.3-1.55-0.3-2.3c0-0.82,0.14-1.56,0.42-2.22
		c0.28-0.66,0.66-1.18,1.15-1.57c0.49-0.39,1.03-0.59,1.62-0.6l0.61-0.02c0.57,0,1.04,0.07,1.42,0.2c0.37,0.13,0.65,0.38,0.83,0.73
		c0-0.11,0.01-0.26,0.04-0.44c0.03-0.25,0.04-0.43,0.04-0.53C89.3,49.51,89.38,49.49,89.55,49.49z M87.42,51.2
		c-0.66-0.01-1.21,0.16-1.66,0.5s-0.72,0.76-0.83,1.24c-0.1,0.37-0.15,0.86-0.15,1.48c0.06,2.04,0.89,3.01,2.47,2.93
		c0.65,0,1.12-0.11,1.41-0.34c0.29-0.23,0.47-0.55,0.54-0.97c0.07-0.42,0.1-1.04,0.1-1.88c0-0.91-0.04-1.55-0.11-1.93
		c-0.08-0.37-0.24-0.63-0.48-0.77C88.45,51.33,88.03,51.24,87.42,51.2z"/>
	<path d="M92.07,49.53c0.19,0.03,0.46,0.04,0.8,0.04c0.11,0,0.25,0,0.41-0.01c0.16-0.01,0.33,0,0.52,0.01
		c0.2,0.71,0.58,2.06,1.12,4.05c0.27,1,0.46,1.72,0.59,2.17c0.13,0.44,0.28,0.87,0.46,1.29c0.11-0.28,0.25-0.7,0.42-1.27
		c0.16-0.57,0.27-0.94,0.32-1.12c0.62-2.12,1.15-3.81,1.6-5.07c0.11,0,0.3-0.01,0.55-0.04c0.46-0.03,0.84-0.03,1.14-0.02
		c-0.25,0.67-0.49,1.37-0.7,2.08c-0.22,0.72-0.42,1.42-0.61,2.12c-0.61,2.1-1.15,3.86-1.63,5.26c-0.2,0.04-0.53,0.06-0.97,0.06
		l-1.37-0.02c-0.56-1.77-0.97-3.12-1.23-4.04c-0.26-0.92-0.52-1.93-0.79-3.03L92.07,49.53z"/>
	<path d="M101.86,54.23v0.34l-0.02,0.55c0,1.57,0.77,2.36,2.32,2.36c0.62,0,1.08-0.14,1.38-0.43s0.45-0.67,0.45-1.17
		c0-0.08-0.01-0.21-0.04-0.42c0.27-0.04,0.51-0.06,0.74-0.06c0.2,0,0.35,0.01,0.46,0.02c0.08,0,0.17,0,0.28,0.01
		c0.11,0.01,0.23,0,0.37-0.01c0.01,0.72-0.01,1.3-0.08,1.73s-0.22,0.84-0.46,1.23c-0.23,0.34-0.62,0.59-1.19,0.73
		s-1.18,0.22-1.85,0.22c-0.3,0-0.59-0.01-0.85-0.04s-0.42-0.05-0.48-0.08c-0.99-0.17-1.7-0.79-2.15-1.87
		c-0.44-1.08-0.63-2.32-0.57-3.71c0.01-0.1,0.03-0.31,0.06-0.64c0.03-0.32,0.06-0.66,0.1-1s0.13-0.68,0.26-1.01
		c0.24-0.56,0.68-0.99,1.31-1.29c0.63-0.3,1.34-0.46,2.11-0.46c0.41,0,0.83,0.05,1.27,0.15c1.72,0.29,2.58,1.59,2.58,3.89
		c0,0.19-0.01,0.46-0.04,0.82c-0.24,0.08-0.95,0.14-2.13,0.19c-0.14,0.01-0.44,0.02-0.91,0.02c-1,0-1.74-0.01-2.22-0.04
		C102.24,54.28,102.01,54.26,101.86,54.23z M106.47,52.8c-0.01-0.39-0.11-0.78-0.29-1.16c-0.18-0.38-0.45-0.68-0.79-0.89
		c-0.19-0.09-0.35-0.15-0.49-0.17s-0.32-0.04-0.53-0.04c-0.82,0-1.41,0.17-1.76,0.51c-0.35,0.34-0.57,0.83-0.66,1.46
		c-0.03,0.15-0.04,0.25-0.04,0.3c0,0.15,0.07,0.25,0.22,0.3c0.14,0.05,0.46,0.08,0.94,0.08c0.47,0,0.87-0.01,1.2-0.02
		c1.22,0,1.9-0.01,2.05-0.02c0.06-0.01,0.1-0.03,0.12-0.05c0.02-0.02,0.03-0.05,0.03-0.1V52.8z"/>
	<path d="M120.34,49.57c0.01,0.08,0.02,0.15,0.03,0.23c0.01,0.08,0.01,0.15,0.01,0.23v0.19c-0.04,1.37-0.03,2.71,0.02,4.04
		c0.05,1.32,0.03,2.66-0.06,4.02c0,0.16,0,0.33-0.01,0.49c-0.01,0.16-0.09,0.26-0.24,0.28h-0.23c-0.2,0-0.41-0.01-0.62-0.03
		c-0.21-0.02-0.42-0.03-0.62-0.03c-0.14,0-0.28,0.01-0.41,0.03c-0.13,0.02-0.27,0.03-0.41,0.03c-0.09-0.02-0.15-0.08-0.18-0.15
		c-0.03-0.08-0.05-0.17-0.05-0.27c0-0.14,0.01-0.25,0.04-0.34c0.03-0.09,0.04-0.2,0.04-0.32c-0.3,0.3-0.69,0.56-1.15,0.78
		c-0.46,0.22-0.92,0.32-1.36,0.32c-0.49,0-0.92-0.17-1.26-0.51c-0.35-0.34-0.64-0.77-0.86-1.27c-0.23-0.51-0.4-1.06-0.5-1.65
		c-0.11-0.59-0.16-1.15-0.16-1.65c0-0.63,0.08-1.22,0.25-1.75c0.16-0.53,0.39-0.99,0.67-1.38c0.28-0.39,0.62-0.69,1.02-0.91
		c0.39-0.22,0.81-0.34,1.25-0.35c0.23,0,0.44,0,0.64,0.01c0.2,0.01,0.38,0.04,0.54,0.09c0.16,0.06,0.31,0.15,0.44,0.27
		s0.23,0.29,0.32,0.5c-0.01-0.2,0-0.38,0.03-0.52c0.03-0.15,0.05-0.29,0.05-0.45c0-0.01,0.04-0.02,0.12-0.03
		c0.08-0.01,0.17-0.01,0.28,0c0.1,0.01,0.2,0.01,0.3,0.01c0.1,0,0.17,0,0.21,0c0.21,0.01,0.48,0.03,0.79,0.04
		S119.94,49.54,120.34,49.57z M114.82,53.35c-0.05,0.16-0.08,0.33-0.1,0.5s-0.02,0.34-0.02,0.5c0,0.57,0.15,1.05,0.45,1.45
		c0.3,0.4,0.71,0.6,1.25,0.6c0.32,0,0.55-0.05,0.71-0.16s0.27-0.26,0.34-0.46c0.07-0.2,0.11-0.44,0.11-0.72
		c0.01-0.28,0.01-0.6,0.01-0.96c0-0.44,0-0.79-0.01-1.05s-0.04-0.46-0.09-0.6c-0.06-0.14-0.15-0.23-0.29-0.27s-0.33-0.06-0.6-0.06
		c-0.52,0-0.93,0.12-1.23,0.37S114.88,53.04,114.82,53.35z"/>
	<path d="M128.02,50.56c0.06-0.04,0.14-0.08,0.24-0.13c0.09-0.05,0.17-0.1,0.24-0.15c0.27-0.19,0.56-0.34,0.89-0.46
		s0.67-0.18,1.02-0.19c0.35-0.01,0.69,0.03,1.02,0.11s0.63,0.25,0.89,0.47c0.13,0.11,0.23,0.35,0.29,0.71s0.11,0.79,0.13,1.3
		c0.02,0.51,0.03,1.06,0.02,1.66c-0.01,0.6-0.02,1.21-0.03,1.82s-0.03,1.21-0.04,1.78c-0.01,0.57-0.01,1.07,0.02,1.5
		c-0.44,0.06-0.84,0.09-1.19,0.09c-0.35-0.01-0.74-0.01-1.19-0.01c-0.03-0.29-0.04-0.62-0.04-0.99c0-0.37,0-0.75,0.01-1.14
		c0.01-0.39,0.01-0.79,0-1.18c-0.01-0.39-0.02-0.76-0.05-1.1c-0.01-0.15-0.03-0.32-0.04-0.5s-0.04-0.36-0.07-0.54
		c-0.03-0.18-0.08-0.33-0.13-0.47s-0.14-0.25-0.24-0.32c-0.01-0.01-0.03-0.02-0.04-0.02s-0.03-0.01-0.04-0.02
		c-0.1-0.05-0.25-0.09-0.45-0.12c-0.2-0.03-0.39-0.02-0.58,0.04c-0.19,0.06-0.36,0.17-0.51,0.34s-0.24,0.43-0.27,0.77
		c-0.03,0.44-0.03,0.88-0.02,1.3c0.01,0.42,0.03,0.85,0.05,1.27c0.02,0.42,0.03,0.85,0.03,1.26s-0.03,0.84-0.08,1.25v0.08
		c-0.21,0.06-0.4,0.1-0.56,0.11s-0.32,0.02-0.48,0.01c-0.17-0.01-0.35-0.02-0.55-0.03c-0.2-0.01-0.46-0.01-0.76,0.02
		c0-0.52,0-1.14-0.01-1.87c-0.01-0.73-0.01-1.51-0.02-2.35c-0.01-0.84-0.01-1.7-0.01-2.59c0-0.89,0-1.76,0-2.61s0-1.65,0.01-2.4
		c0.01-0.75,0.02-1.41,0.03-1.97c0.15,0.01,0.28,0.02,0.38,0.03c0.1,0.01,0.2,0.01,0.29,0.01c0.09,0,0.18,0,0.28-0.01
		c0.1-0.01,0.23-0.02,0.38-0.03c0.05,0,0.14-0.01,0.27-0.03c0.13-0.02,0.25-0.03,0.38-0.05c0.13-0.01,0.24-0.02,0.34-0.01
		c0.1,0.01,0.15,0.03,0.15,0.07c0.01,0.06,0.02,0.23,0.02,0.5c0,0.27,0,0.6,0,0.97c0,0.37,0,0.77,0,1.2c0,0.42,0,0.82,0,1.19
		c0,0.37,0,0.68,0,0.95C128.02,50.35,128.02,50.51,128.02,50.56z"/>
	<path d="M141.7,49.57c0.01,0.08,0.02,0.15,0.03,0.23c0.01,0.08,0.01,0.15,0.01,0.23v0.19c-0.04,1.37-0.03,2.71,0.02,4.04
		s0.03,2.66-0.06,4.02c0,0.16,0,0.33-0.01,0.49c-0.01,0.16-0.08,0.26-0.24,0.28h-0.23c-0.2,0-0.41-0.01-0.62-0.03
		c-0.21-0.02-0.42-0.03-0.62-0.03c-0.14,0-0.28,0.01-0.41,0.03c-0.13,0.02-0.27,0.03-0.41,0.03c-0.09-0.02-0.15-0.08-0.18-0.15
		c-0.03-0.08-0.05-0.17-0.05-0.27c0-0.14,0.01-0.25,0.04-0.34c0.03-0.09,0.04-0.2,0.04-0.32c-0.3,0.3-0.69,0.56-1.15,0.78
		c-0.46,0.22-0.92,0.32-1.36,0.32c-0.49,0-0.92-0.17-1.26-0.51c-0.35-0.34-0.64-0.77-0.87-1.27c-0.23-0.51-0.4-1.06-0.5-1.65
		c-0.11-0.59-0.16-1.15-0.16-1.65c0-0.63,0.08-1.22,0.25-1.75c0.17-0.53,0.39-0.99,0.67-1.38c0.29-0.39,0.62-0.69,1.02-0.91
		c0.39-0.22,0.81-0.34,1.25-0.35c0.23,0,0.44,0,0.64,0.01c0.2,0.01,0.38,0.04,0.54,0.09c0.17,0.06,0.31,0.15,0.44,0.27
		c0.13,0.12,0.23,0.29,0.32,0.5c-0.01-0.2,0-0.38,0.03-0.52c0.03-0.15,0.05-0.29,0.05-0.45c0-0.01,0.04-0.02,0.12-0.03
		c0.08-0.01,0.17-0.01,0.28,0c0.1,0.01,0.2,0.01,0.3,0.01s0.17,0,0.21,0c0.22,0.01,0.48,0.03,0.79,0.04
		C140.94,49.53,141.29,49.54,141.7,49.57z M136.17,53.35c-0.05,0.16-0.08,0.33-0.09,0.5s-0.02,0.34-0.02,0.5
		c0,0.57,0.15,1.05,0.45,1.45c0.3,0.4,0.71,0.6,1.24,0.6c0.32,0,0.55-0.05,0.71-0.16c0.16-0.11,0.27-0.26,0.34-0.46
		c0.07-0.2,0.11-0.44,0.11-0.72c0.01-0.28,0.01-0.6,0.01-0.96c0-0.44,0-0.79-0.01-1.05c-0.01-0.26-0.04-0.46-0.1-0.6
		c-0.06-0.14-0.15-0.23-0.28-0.27c-0.13-0.04-0.33-0.06-0.6-0.06c-0.52,0-0.93,0.12-1.23,0.37
		C136.42,52.75,136.23,53.04,136.17,53.35z"/>
	<path d="M146.49,46.04v2.55c0,0.17,0,0.34,0.01,0.51c0.01,0.18,0.01,0.36,0.01,0.55c0.39-0.01,0.81-0.03,1.25-0.06
		c0.44-0.02,0.98-0.06,1.62-0.09c0.09,0.1,0.14,0.25,0.15,0.45c0.01,0.2,0.01,0.41,0,0.64c-0.01,0.23-0.03,0.46-0.05,0.69
		c-0.02,0.23-0.02,0.43,0.01,0.6h-2.95c0,0.68,0,1.35,0,2s0.01,1.26,0.02,1.83c0.13,0.18,0.31,0.32,0.55,0.42
		c0.24,0.1,0.5,0.18,0.78,0.24c0.28,0.06,0.56,0.09,0.84,0.1c0.29,0.01,0.54,0.01,0.75,0c0.03,0.18,0.05,0.37,0.08,0.59
		c0.03,0.21,0.04,0.44,0.06,0.67c0.01,0.23,0.01,0.46-0.01,0.68c-0.02,0.23-0.06,0.44-0.12,0.63c-0.51,0.03-1.03,0.02-1.58-0.01
		s-1.06-0.1-1.54-0.22c-0.48-0.11-0.91-0.29-1.28-0.51c-0.37-0.23-0.64-0.54-0.81-0.93c-0.17-0.98-0.26-1.9-0.29-2.76
		c-0.03-0.87-0.03-1.76-0.02-2.69c-0.2,0.01-0.42,0.02-0.64,0.02s-0.47,0-0.73,0l0.06-2.32c0.25,0.01,0.49,0.02,0.71,0.02
		s0.43,0,0.64,0c0-0.28-0.01-0.58-0.02-0.9s-0.02-0.65-0.02-0.98c0-0.33,0-0.65,0.01-0.95c0.01-0.3,0.02-0.58,0.05-0.82
		c0.16-0.03,0.34-0.03,0.54-0.02c0.2,0.01,0.4,0.03,0.62,0.05c0.21,0.02,0.43,0.04,0.65,0.05
		C146.06,46.07,146.27,46.06,146.49,46.04z"/>
	<path d="M152.45,55.25l0.04-0.72c0.06-0.41,0.14-0.79,0.24-1.17c0.09-0.37,0.26-0.74,0.5-1.09c0.14-0.27,0.35-0.58,0.64-0.94
		c0.29-0.36,0.53-0.72,0.73-1.07c0.2-0.35,0.3-0.68,0.28-0.99c-0.01-0.3-0.25-0.54-0.7-0.7c-0.29-0.13-0.52-0.16-0.67-0.09
		c-0.16,0.07-0.29,0.18-0.41,0.32c-0.11,0.15-0.22,0.3-0.32,0.47c-0.1,0.16-0.23,0.28-0.4,0.34c-0.39,0.04-0.78,0.04-1.17,0.02
		c-0.39-0.03-0.77-0.04-1.15-0.06v-0.02c0.02-0.48,0.13-0.95,0.32-1.42c0.19-0.46,0.45-0.88,0.78-1.24s0.72-0.67,1.16-0.9
		c0.44-0.23,0.94-0.36,1.48-0.39c0.58-0.05,1.14,0.01,1.66,0.17c0.53,0.16,0.98,0.42,1.37,0.76c0.39,0.34,0.68,0.75,0.88,1.24
		c0.2,0.48,0.27,1,0.21,1.56c-0.05,0.41-0.16,0.77-0.32,1.1c-0.17,0.33-0.36,0.63-0.57,0.91c-0.2,0.28-0.4,0.5-0.58,0.67
		s-0.37,0.38-0.56,0.64c-0.27,0.37-0.47,0.73-0.6,1.1c-0.13,0.37-0.24,0.77-0.33,1.22c-0.03,0.1-0.05,0.21-0.08,0.32
		s-0.03,0.22,0,0.32v0.02c-0.39,0.05-0.78,0.06-1.17,0.04c-0.39-0.03-0.78-0.03-1.17,0h-0.02c-0.05-0.05-0.08-0.12-0.08-0.2
		C152.45,55.39,152.45,55.31,152.45,55.25z M154.68,59.03l-2.15-0.02h-0.06c-0.03-0.14-0.04-0.32-0.05-0.53
		c-0.01-0.22-0.01-0.43,0-0.65c0.01-0.21,0.01-0.42,0.02-0.61c0.01-0.19,0.01-0.33,0.01-0.42c0.13-0.05,0.31-0.09,0.54-0.11
		s0.47-0.04,0.71-0.04s0.47,0.01,0.67,0.03c0.21,0.02,0.36,0.05,0.45,0.09c0,0.01-0.01,0.12-0.02,0.31
		c-0.01,0.2-0.03,0.42-0.04,0.67c-0.01,0.25-0.03,0.5-0.04,0.74c-0.01,0.24-0.02,0.41-0.02,0.49v0.02v0.02H154.68z"/>
</g>
</svg>
