<!-- Generator: Adobe Illustrator 23.1.1, SVG Export Plug-In  -->
<svg version="1.1" xmlns="http://www.w3.org/2000/svg" xmlns:xlink="http://www.w3.org/1999/xlink" x="0px" y="0px" width="126.2px"
	 height="36.9px" viewBox="0 0 126.2 36.9" style="enable-background:new 0 0 126.2 36.9;" xml:space="preserve">
<defs>
</defs>
<g>
	<path d="M16.6,2.6c1.5-0.17,2.52-0.25,3.05-0.25c0.8,0,1.42,0.12,1.85,0.35c0.17,3.57,0.25,6.78,0.25,9.65
		c0,5.73-0.28,11.15-0.85,16.25c-0.3,2.27-1.17,4.15-2.6,5.65c-1.43,1.5-3.3,2.37-5.6,2.6c-0.37,0.03-0.9,0.05-1.6,0.05
		c-3,0-5.56-0.72-7.67-2.17c-2.12-1.45-3.24-3.59-3.38-6.42C0.02,27.03,0,25.1,0,22.5c0-2.67,0.02-4.68,0.05-6.05
		c0.07-3.73,0.1-6.52,0.1-8.35L0.1,2.2L0.05,2.15H0.1L2.55,2.1c0.97,0,1.77,0.07,2.4,0.2C4.92,2.93,4.9,3.83,4.9,5L4.85,7
		c-0.1,3.2-0.15,6-0.15,8.4c0,3.47,0.13,6.3,0.4,8.5s0.75,4.22,1.45,6.05c0.53,0.83,1.28,1.4,2.25,1.7
		c0.67,0.17,1.25,0.25,1.75,0.25c0.87,0,1.67-0.17,2.4-0.53c0.73-0.35,1.3-0.88,1.7-1.57c0.77-1.77,1.28-3.94,1.55-6.53
		c0.27-2.58,0.4-5.67,0.4-9.28l-0.05-7.7C16.55,4.63,16.57,3.4,16.6,2.6z"/>
	<path d="M29.6,9.35v4.45c0.9-0.77,1.69-1.34,2.38-1.73c0.68-0.38,1.69-0.62,3.03-0.72c0.8-0.1,1.55-0.15,2.25-0.15
		c2.43,0,4.33,0.58,5.7,1.75c0.43,0.37,0.73,1.23,0.9,2.6s0.25,3.17,0.25,5.4c0,1.27-0.03,3.27-0.1,6c-0.07,2.67-0.1,4.57-0.1,5.7
		c0,0.93,0.03,2.07,0.1,3.4c-1.33,0.2-2.77,0.27-4.3,0.2c-0.07-1-0.1-1.87-0.1-2.6v-3v-9.8c-0.07-2.13-0.57-3.52-1.5-4.15
		c-0.2-0.13-0.6-0.27-1.2-0.4c-0.7-0.2-1.42-0.3-2.15-0.3c-1.3,0-2.41,0.33-3.33,0.98c-0.92,0.65-1.51,1.66-1.78,3.02
		c-0.23,1.27-0.35,2.78-0.35,4.55l0.05,1.7c0.07,2.2,0.1,4.02,0.1,5.45c0,1.8-0.03,3.18-0.1,4.15v0.2c-0.67,0.17-1.2,0.25-1.6,0.25
		l-1.5-0.05c-0.47,0-0.85,0.02-1.15,0.05c0-3.83-0.02-7-0.05-9.5L25,11.5c0-3.73,0.03-7.57,0.1-11.5c1.03,0.1,1.87,0.13,2.5,0.1
		c0.17,0,0.38-0.02,0.62-0.05S28.73,0,29,0c0.33,0,0.5,0.05,0.5,0.15c0.07,0.3,0.1,2.33,0.1,6.1V9.35z"/>
	<path d="M69.9,24.65L47.5,24.3l0.1-3.4l0.05-1.85H69.8c0.03,0.6,0.04,1.13,0.03,1.6c-0.02,0.47-0.03,0.87-0.03,1.2
		c0,0.9,0.05,1.83,0.15,2.8H69.9z"/>
	<path d="M77.1,2.6c2-0.97,4.27-1.45,6.8-1.45c2.27,0,4.29,0.44,6.07,1.33c1.78,0.88,2.99,2.24,3.62,4.08
		c0.63,1.4,0.95,3.3,0.95,5.7c0,1.07-0.02,1.85-0.05,2.35c-0.07,1.17-0.1,2.88-0.1,5.15c0,0.57-0.01,1.28-0.03,2.12
		c-0.02,0.85-0.06,1.84-0.12,2.98L94.1,26.5c-0.23,2.83-0.87,5.08-1.9,6.75c-0.87,1.2-2.16,2.1-3.88,2.7
		c-1.72,0.6-3.53,0.9-5.42,0.9c-0.7,0-1.22-0.02-1.55-0.05c-2.53-0.2-4.45-0.98-5.75-2.33c-1.3-1.35-1.98-3.59-2.05-6.73L73.4,24.6
		c-0.03-0.67-0.08-1.83-0.15-3.48c-0.07-1.65-0.1-3.16-0.1-4.52c0-1.53,0.05-3.05,0.15-4.55c0.03-2,0.33-3.88,0.9-5.65
		C74.76,4.63,75.73,3.37,77.1,2.6z M90.2,18.8l-0.05-4c-0.13-2.27-0.25-3.81-0.35-4.62c-0.1-0.82-0.6-1.79-1.5-2.93
		c-0.9-1.13-2.38-1.7-4.45-1.7c-2.53,0-4.31,1.12-5.32,3.35C77.51,11.13,77,14.53,77,19.1c0,2.8,0.06,4.97,0.17,6.52
		c0.12,1.55,0.36,2.8,0.73,3.75c0.37,0.95,0.93,1.69,1.7,2.23c0.8,0.57,1.95,0.85,3.45,0.85c2.37,0,4.08-0.48,5.15-1.45
		c1.07-0.97,1.65-2.38,1.75-4.25c0-1,0.03-2.18,0.1-3.55c0.07-1.37,0.12-2.25,0.15-2.65V18.8z"/>
	<path d="M102.2,9.35v4.45c0.9-0.77,1.69-1.34,2.38-1.73c0.68-0.38,1.69-0.62,3.03-0.72c0.8-0.1,1.55-0.15,2.25-0.15
		c2.43,0,4.33,0.58,5.7,1.75c0.43,0.37,0.73,1.23,0.9,2.6s0.25,3.17,0.25,5.4c0,1.27-0.03,3.27-0.1,6c-0.07,2.67-0.1,4.57-0.1,5.7
		c0,0.93,0.03,2.07,0.1,3.4c-1.33,0.2-2.77,0.27-4.3,0.2c-0.07-1-0.1-1.87-0.1-2.6v-3v-9.8c-0.07-2.13-0.57-3.52-1.5-4.15
		c-0.2-0.13-0.6-0.27-1.2-0.4c-0.7-0.2-1.42-0.3-2.15-0.3c-1.3,0-2.41,0.33-3.33,0.98c-0.92,0.65-1.51,1.66-1.78,3.02
		c-0.23,1.27-0.35,2.78-0.35,4.55l0.05,1.7c0.07,2.2,0.1,4.02,0.1,5.45c0,1.8-0.03,3.18-0.1,4.15v0.2c-0.67,0.17-1.2,0.25-1.6,0.25
		l-1.5-0.05c-0.47,0-0.85,0.02-1.15,0.05c0-3.83-0.02-7-0.05-9.5L97.6,11.5c0-3.73,0.03-7.57,0.1-11.5c1.03,0.1,1.87,0.13,2.5,0.1
		c0.17,0,0.38-0.02,0.62-0.05S101.33,0,101.6,0c0.33,0,0.5,0.05,0.5,0.15c0.07,0.3,0.1,2.33,0.1,6.1V9.35z"/>
	<path d="M121.8,1.05h0.15c0.23-0.03,0.63-0.08,1.2-0.15c0.57-0.07,1.07-0.1,1.5-0.1c0.5,0,1,0.05,1.5,0.15
		c-0.13,6.4-0.2,11.38-0.2,14.95c0,3.5,0.08,7.33,0.25,11.5c-0.77,0.1-1.63,0.17-2.6,0.2s-1.6,0.05-1.9,0.05h-0.05l0.05-3.4
		l-0.05-6.9c-0.07-3-0.1-5.28-0.1-6.85C121.55,6.87,121.63,3.72,121.8,1.05z M124.35,36.1h-2.65c-0.1,0-0.15-0.25-0.15-0.75
		c0-0.73,0.05-1.55,0.15-2.45c0.03-0.4,0.07-0.83,0.1-1.28c0.03-0.45,0.05-0.91,0.05-1.38V30.2c0.37-0.17,0.88-0.25,1.55-0.25
		l1.35,0.05c0.6,0.07,1.07,0.1,1.4,0.1l-0.05,1.7c-0.07,1.93-0.1,3.37-0.1,4.3h-0.35h-1.25H124.35z"/>
</g>
</svg>
