<!-- Generator: Adobe Illustrator 23.1.1, SVG Export Plug-In  -->
<svg version="1.1" xmlns="http://www.w3.org/2000/svg" xmlns:xlink="http://www.w3.org/1999/xlink" x="0px" y="0px" width="377px"
	 height="177.55px" viewBox="0 0 377 177.55" style="enable-background:new 0 0 377 177.55;" xml:space="preserve">
<style type="text/css">
	.st0{fill:#2C491B;}
	.st1{fill:#FDFDFD;}
</style>
<defs>
</defs>
<path class="st0" d="M324.57,41.62L275.48,0.82c-2.51-2.08-5.96,0.06-5.93,3.67l0.17,18.61c0.02,2.47-1.67,4.48-3.76,4.48H3.76
	C1.68,27.58,0,29.56,0,32.01v109.77c0,2.45,1.68,4.43,3.76,4.43h263.38c2.06,0,3.74,1.95,3.76,4.38l0.21,22.57
	c0.03,3.61,3.53,5.66,5.99,3.52l48.33-42.05l50.05-43.55c2.06-1.79,2.03-5.44-0.07-7.18L324.57,41.62z"/>
<g>
	<path class="st1" d="M40.57,77.67l0.04,4.99c0,0.37,0.31,0.65,0.68,0.63l6.11-0.37c0.34-0.02,0.6-0.29,0.6-0.63
		c0.01-4.74,0.08-9.74,0.23-15.01c0.01-0.37,0.33-0.66,0.7-0.63l5.21,0.47c0.34,0.03,0.6,0.32,0.58,0.66
		c-0.27,5.05-0.41,10.5-0.41,16.36c0,5.85,0.16,11.72,0.5,17.61c0.02,0.39-0.3,0.7-0.69,0.67l-5.04-0.43
		c-0.31-0.03-0.55-0.26-0.58-0.56c-0.26-2.73-0.42-6.86-0.48-12.39c0-0.37-0.31-0.66-0.68-0.64l-5.95,0.36
		c-0.34,0.02-0.61,0.31-0.6,0.65c0.09,4.23,0.23,8.52,0.4,12.89c0.02,0.38-0.31,0.7-0.69,0.66l-5.42-0.48
		c-0.32-0.03-0.57-0.29-0.58-0.61c-0.34-6.71-0.51-12.89-0.51-18.54c0-5.52,0.12-10.32,0.36-14.42c0.02-0.36,0.34-0.62,0.7-0.59
		l5.22,0.48c0.34,0.03,0.6,0.33,0.57,0.67C40.65,72.19,40.57,74.93,40.57,77.67z"/>
	<path class="st1" d="M61.65,70.26l4.24,0.49c0.34,0.04,0.59,0.35,0.56,0.69l-0.38,4.23c-0.03,0.36-0.36,0.62-0.72,0.58l-4.24-0.53
		c-0.34-0.04-0.59-0.35-0.56-0.69l0.38-4.2C60.97,70.48,61.29,70.22,61.65,70.26z M61.31,78.92l4.33,0.42
		c0.33,0.03,0.58,0.31,0.58,0.64v22.35c0,0.38-0.33,0.67-0.7,0.64l-4.33-0.42c-0.33-0.03-0.58-0.31-0.58-0.64V79.56
		C60.61,79.18,60.93,78.89,61.31,78.92z"/>
	<path class="st1" d="M72.49,102.78c-0.32-0.03-0.57-0.28-0.58-0.6c-0.12-3.4-0.18-8.27-0.18-14.62c0-6.5,0.23-13.35,0.7-20.57
		c0.02-0.36,0.33-0.63,0.69-0.6l4.49,0.35c0.35,0.03,0.61,0.33,0.59,0.68c-0.43,7.16-0.66,14.08-0.7,20.76
		c0,0.61,0.78,0.87,1.16,0.39c2.63-3.39,4.69-6.7,6.18-9.93c0.18-0.39,0.67-0.49,0.99-0.21L88.75,81c0.21,0.19,0.28,0.49,0.17,0.75
		c-1.39,3.16-3.2,6.3-5.43,9.41c-0.17,0.23-0.15,0.56,0.03,0.78c2.27,2.68,4.11,5.2,5.52,7.55c0.15,0.26,0.1,0.59-0.12,0.79
		l-2.82,2.67c-0.29,0.27-0.74,0.23-0.96-0.1c-1.57-2.32-3.75-4.99-6.55-7.99c-0.4-0.42-1.11-0.13-1.11,0.45
		c0.02,2.67,0.07,5.09,0.16,7.25c0.02,0.39-0.31,0.69-0.7,0.65L72.49,102.78z"/>
	<path class="st1" d="M93.46,70.26l4.24,0.49c0.34,0.04,0.59,0.35,0.56,0.69l-0.38,4.23c-0.03,0.36-0.36,0.62-0.72,0.58l-4.24-0.53
		c-0.34-0.04-0.59-0.35-0.56-0.69l0.38-4.2C92.78,70.48,93.1,70.22,93.46,70.26z M93.11,78.92l4.33,0.42
		c0.33,0.03,0.58,0.31,0.58,0.64v22.35c0,0.38-0.33,0.67-0.7,0.64l-4.33-0.42c-0.33-0.03-0.58-0.31-0.58-0.64V79.56
		C92.41,79.18,92.74,78.89,93.11,78.92z"/>
	<path class="st1" d="M113.28,78.9c4.33,0,6.5,3.61,6.5,10.83c0,3.61-0.19,7.44-0.58,11.46c-0.03,0.35-0.35,0.62-0.7,0.59
		l-4.49-0.42c-0.35-0.03-0.6-0.34-0.57-0.69c0.32-3.54,0.48-7.11,0.48-10.72c0-3.82-0.54-5.74-1.62-5.74c-0.53,0-1.2,1.32-2.02,3.96
		c-0.82,2.63-1.32,5.19-1.52,7.7c0,0.03,0,0.06,0,0.1c0.06,1.25,0.18,3.42,0.35,6.49c0.02,0.39-0.31,0.72-0.7,0.68l-4.48-0.42
		c-0.31-0.03-0.56-0.29-0.58-0.6c-0.33-4.4-0.5-8.29-0.5-11.66c0-3.24,0.08-6.17,0.25-8.8c0.02-0.36,0.35-0.62,0.71-0.59l2.53,0.27
		c0.27,0.03,0.49,0.22,0.55,0.49c0.12,0.52,0.33,1.44,0.63,2.76C109.43,80.81,111.35,78.9,113.28,78.9z"/>
	<path class="st1" d="M131.01,108.94c1.02,0,1.84-1.04,2.46-3.13c0.46-1.53,0.75-3.34,0.87-5.41c0.04-0.62-0.78-0.94-1.15-0.44
		c-1.36,1.85-2.75,2.77-4.18,2.77c-1.85,0-3.35-0.63-4.48-1.9c-1.13-1.26-1.7-3.18-1.7-5.76c0-2.58,0.44-5.14,1.33-7.68
		c0.89-2.54,1.98-4.58,3.28-6.11c1.3-1.53,2.53-2.29,3.72-2.29c2.01,0,3.87,0.79,5.57,2.38c0.09,0.08,0.21,0.14,0.33,0.16l2.6,0.37
		c0.36,0.05,0.6,0.38,0.54,0.73c-0.35,2.13-0.52,5.19-0.52,9.18c0,4.42-0.12,7.66-0.37,9.75c-0.25,2.08-0.65,4.13-1.21,6.13
		c-0.56,2-1.38,3.59-2.46,4.78c-1.08,1.18-2.51,1.77-4.28,1.77c-1.77,0-3.46-0.71-5.07-2.14c-1.44-1.28-2.63-2.78-3.57-4.52
		c-0.18-0.33-0.02-0.75,0.32-0.9l2.96-1.27c0.3-0.13,0.65,0.01,0.81,0.29C128.02,107.86,129.42,108.94,131.01,108.94z M132.39,84.02
		c-0.82,0-1.65,1.18-2.49,3.54c-0.84,2.36-1.26,4.87-1.26,7.53c0,1.02,0.14,1.79,0.42,2.31c0.28,0.53,0.59,0.79,0.93,0.79
		c0.35,0,0.8-0.33,1.36-0.98c0.56-0.66,1.16-1.71,1.8-3.15c0.63-1.43,1.1-3,1.39-4.72c0.01-0.04,0.01-0.07,0.01-0.11l0.09-3.42
		c0-0.17-0.07-0.35-0.19-0.48C133.6,84.46,132.91,84.02,132.39,84.02z"/>
	<path class="st1" d="M166.56,74.03c-1.45,0-2.71,1.78-3.79,5.34c-1.08,3.56-1.62,6.72-1.62,9.48c0,5.78,1.51,8.66,4.53,8.66
		c0.85,0,1.6-0.37,2.24-1.11c0.64-0.74,1.1-1.5,1.38-2.29c0.24-0.68,0.53-1.59,0.85-2.71c0.09-0.31,0.38-0.52,0.7-0.5l4.93,0.39
		c0.41,0.03,0.7,0.43,0.61,0.83c-0.85,3.66-2.06,6.49-3.64,8.49c-1.69,2.13-4.05,3.2-7.06,3.2c-3.55,0-6.28-1.34-8.2-4.01
		c-1.92-2.68-2.88-6.08-2.88-10.22c0-4.82,0.95-9.52,2.86-14.08c0.92-2.27,2.21-4.13,3.86-5.59c1.66-1.46,3.55-2.19,5.69-2.19
		c2.62,0,4.53,0.87,5.71,2.61c0.59,0.85,1.07,1.72,1.45,2.61c0.38,0.89,0.65,2.02,0.81,3.4c0.27,1.97,0.44,4.08,0.52,6.32
		c0.01,0.41-0.33,0.74-0.74,0.7l-4.99-0.46c-0.34-0.03-0.6-0.33-0.61-0.68c-0.04-3.87-0.43-6.33-1.18-7.36
		C167.62,74.31,167.15,74.03,166.56,74.03z"/>
	<path class="st1" d="M185.95,80.59c0,0.59,0.7,0.88,1.14,0.48c1.12-1.05,2.23-1.57,3.32-1.57c1.46,0,2.65,0.49,3.57,1.48
		c1.61,1.71,2.41,3.87,2.41,6.5c0,4.55-0.16,9.29-0.49,14.22c-0.03,0.38-0.36,0.67-0.74,0.63l-4.39-0.42
		c-0.36-0.03-0.62-0.34-0.6-0.7c0.21-4.61,0.32-9.14,0.32-13.59c0-1.74-0.44-2.61-1.33-2.61c-1.04,0-2.17,2.27-3.38,6.81
		c-0.01,0.05-0.02,0.11-0.02,0.16c-0.06,3.08-0.21,6.54-0.45,10.39c-0.02,0.38-0.36,0.68-0.74,0.64l-4.42-0.42
		c-0.36-0.03-0.63-0.34-0.6-0.7c0.4-5.48,0.59-11.57,0.59-18.26c0-6.55-0.1-11.89-0.3-16.03c-0.02-0.41,0.33-0.73,0.73-0.69
		l4.41,0.41c0.33,0.03,0.59,0.29,0.61,0.63C185.8,71.92,185.92,76.13,185.95,80.59z"/>
	<path class="st1" d="M207.02,98.79c1.14,0,2.36-1.01,3.64-3.02c0.2-0.31,0.6-0.42,0.91-0.23l2.6,1.54
		c0.32,0.19,0.42,0.62,0.23,0.94c-0.5,0.83-0.98,1.55-1.45,2.16c-0.58,0.76-1.44,1.48-2.58,2.17c-1.15,0.69-2.43,1.03-3.84,1.03
		c-2.07,0-3.81-0.88-5.22-2.63c-1.41-1.76-2.12-4.13-2.12-7.11c0-3.41,0.61-6.6,1.82-9.55c0.66-1.54,1.6-2.8,2.83-3.77
		c1.23-0.97,2.49-1.45,3.79-1.45s2.34,0.21,3.13,0.62c0.79,0.41,1.42,0.87,1.89,1.38s0.89,1.26,1.26,2.24
		c0.36,0.98,0.61,1.79,0.76,2.41c0.15,0.62,0.27,1.53,0.37,2.71c0.11,1.37,0.18,2.62,0.19,3.77c0,0.31-0.2,0.57-0.5,0.65
		c-2.41,0.63-5.43,1.21-9.04,1.74c-0.36,0.05-0.63,0.39-0.59,0.74c0.12,1.01,0.33,1.85,0.63,2.5
		C206.1,98.4,206.53,98.79,207.02,98.79z M208.11,83.68c-0.72,0-1.37,0.72-1.94,2.17c-0.48,1.21-0.8,2.59-0.94,4.12
		c-0.04,0.45,0.38,0.81,0.82,0.71c1.16-0.25,2.2-0.49,3.14-0.72c0.3-0.08,0.51-0.36,0.5-0.67
		C209.63,85.55,209.11,83.68,208.11,83.68z"/>
	<path class="st1" d="M227.46,89.73c0.07-0.46,0.1-1.05,0.1-1.77c0-0.72-0.15-1.46-0.44-2.22c-0.3-0.75-0.67-1.13-1.13-1.13
		c-0.92,0-1.58,1.06-1.99,3.18c-0.41,2.12-0.62,4.06-0.62,5.83c0,2.99,0.61,4.48,1.82,4.48c0.92,0,2.19-1.5,3.82-4.49
		c0.19-0.36,0.66-0.47,0.98-0.24l2.6,1.86c0.25,0.18,0.35,0.52,0.24,0.8c-0.85,2.16-1.9,3.9-3.13,5.21
		c-1.33,1.41-2.93,2.12-4.8,2.12s-3.55-0.74-5.05-2.22c-1.49-1.48-2.24-3.72-2.24-6.74c0-3.22,0.52-6.42,1.57-9.6
		c0.59-1.74,1.47-3.17,2.63-4.28s2.65-1.67,4.46-1.67c1.8,0,3.31,0.92,4.5,2.76c1.2,1.84,1.8,3.87,1.8,6.11
		c0,0.74-0.09,1.39-0.26,1.97c-0.09,0.29-0.39,0.47-0.7,0.44L227.46,89.73z"/>
	<path class="st1" d="M237.15,102.79c-0.34-0.03-0.6-0.29-0.61-0.63c-0.12-3.4-0.18-8.26-0.18-14.59c0-6.49,0.23-13.33,0.69-20.53
		c0.02-0.37,0.35-0.66,0.73-0.64l4.42,0.34c0.36,0.03,0.64,0.35,0.62,0.71c-0.42,7.11-0.66,13.99-0.69,20.64
		c0,0.64,0.82,0.92,1.21,0.41c2.59-3.35,4.63-6.62,6.1-9.82c0.19-0.41,0.7-0.52,1.04-0.22l2.89,2.53c0.22,0.2,0.3,0.51,0.18,0.79
		c-1.39,3.15-3.19,6.27-5.41,9.36c-0.18,0.25-0.16,0.59,0.03,0.82c2.25,2.66,4.08,5.17,5.49,7.51c0.16,0.27,0.11,0.62-0.12,0.83
		l-2.77,2.62c-0.3,0.29-0.78,0.24-1.01-0.11c-1.55-2.3-3.71-4.93-6.47-7.9c-0.41-0.45-1.17-0.14-1.17,0.47
		c0.02,2.63,0.07,5.01,0.16,7.13c0.02,0.41-0.33,0.72-0.73,0.68L237.15,102.79z"/>
	<path class="st1" d="M262.64,66.74c0.36,0.03,0.64,0.35,0.62,0.71c-0.47,8.04-0.7,15.3-0.7,21.79c0,6.07,0.07,10.49,0.2,13.26
		c0.02,0.41-0.32,0.74-0.73,0.7l-4.45-0.41c-0.34-0.03-0.6-0.29-0.61-0.63c-0.12-3.37-0.18-8.03-0.18-13.97
		c0-6.11,0.23-13.16,0.7-21.14c0.02-0.38,0.35-0.67,0.72-0.64L262.64,66.74z"/>
	<path class="st1" d="M269.74,70.27l4.18,0.49c0.36,0.04,0.62,0.36,0.59,0.73l-0.37,4.17c-0.03,0.38-0.38,0.65-0.75,0.61l-4.18-0.52
		c-0.36-0.04-0.62-0.37-0.59-0.73l0.37-4.13C269.03,70.5,269.37,70.22,269.74,70.27z M269.4,78.92l4.27,0.41
		c0.34,0.03,0.61,0.32,0.61,0.67v22.28c0,0.4-0.34,0.71-0.74,0.67l-4.27-0.41c-0.34-0.03-0.61-0.32-0.61-0.67V79.59
		C268.66,79.2,269,78.89,269.4,78.92z"/>
	<path class="st1" d="M288.55,86.83c0-1.97-0.49-2.95-1.48-2.95c-0.49,0-0.94,0.24-1.35,0.71c-0.41,0.48-0.62,1.12-0.62,1.92
		c0,0.8,0.16,1.47,0.47,1.99c0.31,0.53,0.88,1.04,1.72,1.55c0.84,0.51,1.49,0.92,1.97,1.23c0.48,0.31,1.04,0.75,1.7,1.3
		c1.34,1.18,2.02,2.7,2.02,4.55c0,1.85-0.7,3.36-2.09,4.5c-1.39,1.15-2.96,1.72-4.7,1.72c-1.74,0-3.31-0.47-4.7-1.4
		c-1.25-0.84-2.28-1.86-3.09-3.08c-0.17-0.25-0.14-0.6,0.06-0.82l1.72-1.94c0.3-0.34,0.82-0.28,1.07,0.09
		c1.17,1.75,2.39,2.63,3.66,2.63c0.49,0,0.92-0.14,1.28-0.42c0.36-0.28,0.54-0.66,0.54-1.16c0-1.05-0.76-2.02-2.27-2.91
		c-1.61-0.89-2.87-1.87-3.79-2.95c-0.92-1.08-1.38-2.62-1.38-4.6c0-1.99,0.82-3.77,2.46-5.37c1.64-1.59,3.4-2.39,5.29-2.39
		c1.89,0,3.38,0.65,4.48,1.94c1.1,1.3,1.65,3.04,1.65,5.24c0,0.7-0.06,1.45-0.19,2.24c-0.05,0.35-0.38,0.6-0.73,0.57l-3.86-0.34
		C288.5,87.95,288.55,87.32,288.55,86.83z"/>
	<path class="st1" d="M308,82.43v3.33c0,0.37-0.31,0.67-0.68,0.67c-0.92,0-1.69,0.01-2.33,0.03c-0.36,0.01-0.64,0.29-0.65,0.64
		c-0.08,3.22-0.13,8.28-0.13,15.17c0,0.4-0.34,0.72-0.73,0.68l-4.47-0.42c-0.35-0.03-0.61-0.33-0.61-0.68
		c0-5.21,0.05-9.97,0.13-14.28c0.01-0.39-0.31-0.7-0.71-0.67c-0.39,0.03-0.87,0.07-1.45,0.14c-0.35,0.04-0.68-0.2-0.75-0.54
		l-0.51-2.77c-0.07-0.36,0.17-0.71,0.53-0.78c0.64-0.12,1.47-0.26,2.48-0.42c0.32-0.05,0.57-0.31,0.58-0.63
		c0.07-2.27,0.18-5.39,0.35-9.37c0.02-0.38,0.35-0.69,0.73-0.65l4.51,0.42c0.36,0.03,0.63,0.35,0.61,0.71
		c-0.16,2.77-0.29,5.46-0.38,8.09c-0.01,0.39,0.29,0.7,0.68,0.69c0.59-0.01,1.29-0.02,2.11-0.03C307.69,81.76,308,82.06,308,82.43z"
		/>
</g>
</svg>
