<!-- Generator: Adobe Illustrator 23.1.1, SVG Export Plug-In  -->
<svg version="1.1" xmlns="http://www.w3.org/2000/svg" xmlns:xlink="http://www.w3.org/1999/xlink" x="0px" y="0px"
	 width="190.43px" height="162.28px" viewBox="0 0 190.43 162.28" style="enable-background:new 0 0 190.43 162.28;"
	 xml:space="preserve">
<style type="text/css">
	.st0{fill:#35A4C7;}
	.st1{fill:#137FA1;}
	.st2{fill:#0A2033;}
	.st3{fill:#153F4D;}
	.st4{fill:#257C9C;}
	.st5{fill:#8BD4F0;}
	.st6{fill:none;stroke:#030303;stroke-miterlimit:10;}
	.st7{fill:none;stroke:#010101;stroke-miterlimit:10;}
	.st8{fill:none;stroke:#020202;stroke-miterlimit:10;}
	.st9{fill:none;stroke:#000000;stroke-miterlimit:10;}
</style>
<defs>
</defs>
<g>
	<g>
		<path class="st0" d="M78.2,23.73c0,0,3.54-9.76,18.28-8.64s15.72,8.64,15.72,8.64S94.91,29.33,78.2,23.73z"/>
		<path class="st1" d="M96.2,0"/>
		<path class="st0" d="M42.2,50c0,0,13.26,38,9.16,54l-19.57,43.67c-1.22,2.72-3.7,4.71-6.66,5.35l-1.03,0.22
			c-2.23,0.48-4.57,0.15-6.56-0.95l-10.28-5.64c-1.92-1.05-3.29-2.86-3.77-4.96l-0.56-2.44c-0.48-2.11-0.23-4.32,0.7-6.28L42.2,50z"
			/>
		<path class="st2" d="M15.79,162.18l-15.4-8.89c-0.37-0.21-0.5-0.69-0.28-1.06l3.23-5.59c0.21-0.37,0.69-0.5,1.06-0.28l15.4,8.89
			c0.37,0.21,0.5,0.69,0.28,1.06l-3.23,5.59C16.63,162.27,16.16,162.39,15.79,162.18z"/>
		<path class="st0" d="M11,158.04L0.54,152c-0.36-0.21-0.48-0.67-0.28-1.03l1.8-3.11c0.21-0.36,0.67-0.48,1.03-0.28l10.46,6.04
			c0.36,0.21,0.48,0.67,0.28,1.03l-1.8,3.11C11.82,158.12,11.36,158.25,11,158.04z"/>
		<path class="st3" d="M42.2,50l1.63-3.81c0.85-1.99,2.65-3.42,4.78-3.79L79.2,37c0,0,4,5,14,5v36l-43,5L42.2,50z"/>
		<path class="st0" d="M50.2,83l0.96,61.28c0.03,1.76,0.66,3.46,1.78,4.81l1.07,1.28c1.37,1.65,3.46,2.52,5.6,2.35L93.2,150V78
			L50.2,83z"/>
		<path class="st0" d="M148.2,50c0,0-13.33,38.02-9.15,54.02l19.97,43.67c1.24,2.72,3.77,4.71,6.8,5.35l1.05,0.22
			c2.28,0.48,4.66,0.15,6.69-0.95l10.49-5.64c1.96-1.05,3.36-2.86,3.85-4.96l0.57-2.44c0.49-2.11,0.24-4.32-0.71-6.28L148.2,50z"/>
		<path class="st2" d="M174.73,162.14l15.18-8.76c0.43-0.25,0.58-0.8,0.33-1.23l-3.1-5.36c-0.25-0.43-0.8-0.58-1.23-0.33
			l-15.18,8.76c-0.43,0.25-0.58,0.8-0.33,1.23l3.1,5.36C173.74,162.24,174.3,162.38,174.73,162.14z"/>
		<path class="st0" d="M179.48,158.02l10.31-5.95c0.4-0.23,0.54-0.74,0.31-1.14l-1.71-2.97c-0.23-0.4-0.74-0.54-1.14-0.31
			l-10.31,5.95c-0.4,0.23-0.54,0.74-0.31,1.14l1.71,2.97C178.56,158.11,179.08,158.25,179.48,158.02z"/>
		<path class="st3" d="M148.2,50.02l-1.63-3.81c-0.85-1.99-2.65-3.42-4.78-3.79l-30.58-5.4c0,0-4,5-14,5v36l43,5L148.2,50.02z"/>
		<path class="st0" d="M140.2,83l-1,61.19c0,1.83-0.64,3.6-1.81,5l-1.31,1.57c-1.18,1.42-2.98,2.17-4.82,2.02l-34.07-2.76v-72
			L140.2,83z"/>
		<path class="st0" d="M93.2,40V24h-15v11C78.2,35,78.2,39,93.2,40z"/>
		<path class="st0" d="M97.2,40V24h15v11C112.2,35,112.2,39,97.2,40z"/>
		<path class="st3" d="M78.2,24c0,0,3.89-8,18.46-7s15.54,7,15.54,7S94.72,29,78.2,24z"/>
		<path class="st3" d="M78.2,37"/>
		<path class="st4" d="M42.2,52l4.99,60.87L50.2,106C50.2,106,52.2,88,42.2,52z"/>
		<path class="st4" d="M148.38,51.96l-4.99,60.87l-3.01-6.87C140.38,105.96,138.38,87.96,148.38,51.96z"/>
		<polygon class="st3" points="53.2,149 55.2,158 93.2,154 93.2,149 		"/>
		<polygon class="st3" points="137.2,149 135.2,158 97.2,154 97.2,149 		"/>
		<rect x="93.2" y="29" class="st5" width="3" height="125"/>
		<path class="st3" d="M58.7,135.29c0,0,7.23-1.57,11.37-6.29c0,0,1.03,1.57,4.13,1.57c0,0-4.13,3.93-14.47,9.43
			C59.74,140,60.77,137.64,58.7,135.29z"/>
		<path class="st3" d="M131.82,135.43c0,0-7.29-1.86-11.45-7.43c0,0-1.04,1.86-4.16,1.86c0,0,4.16,4.64,14.58,11.14
			C130.78,141,129.74,138.21,131.82,135.43z"/>
		<path class="st6" d="M160.24,148.01c1.24,2.72,3.77,4.71,6.8,5.35l1.05,0.22c2.28,0.48,4.66,0.15,6.69-0.95l10.49-5.64
			c1.96-1.05,3.36-2.86,3.85-4.96l0.57-2.44c0.49-2.11,0.24-4.32-0.71-6.28L149.7,51.5"/>
		<path class="st6" d="M149.7,51.5l-1.63-4.95c-0.85-1.99-2.65-3.42-4.78-3.79l-30.58-5.4c0,0-4,5-14,5v36l43,5L149.7,51.5z"/>
		<path class="st7" d="M132.43,134.98c0,0-7.29-1.86-11.45-7.43c0,0-1.04,1.86-4.16,1.86c0,0,4.16,4.64,14.58,11.14
			C131.39,140.55,130.35,137.76,132.43,134.98z"/>
		<path class="st7" d="M59.87,134.83c0,0,7.23-1.57,11.37-6.29c0,0,1.03,1.57,4.13,1.57c0,0-4.13,3.93-14.47,9.43
			C60.9,139.55,61.94,137.19,59.87,134.83z"/>
		<path class="st7" d="M42.86,50.18L4.29,133.16c-0.93,1.96-1.18,4.17-0.7,6.28l0.56,2.44c0.48,2.1,1.85,3.9,3.77,4.96l10.28,5.64
			c1.99,1.09,4.33,1.43,6.56,0.95l1.03-0.22c2.97-0.64,5.45-2.63,6.66-5.35c5.95-13.28,13.04-29.35,18.5-42.84"/>
		<path class="st7" d="M42.7,50.4l1.63-3.81c0.85-1.99,2.65-3.42,4.78-3.79l30.58-5.4c0,0,4,5,14,5v36l-43,5L42.7,50.4z"/>
		<path class="st7" d="M160.32,148.09c-6.51-13.62-13.02-27.24-19.53-40.86"/>
	</g>
	<path class="st8" d="M111.91,35.92c0.04-3.3,0.09-6.6,0.13-9.9c0.01-1.03,0.02-2.09-0.34-3.05c-0.6-1.58-2.1-2.64-3.6-3.42
		c-3.62-1.89-10.31-3.34-14.4-3.13"/>
	<path class="st9" d="M112.13,35.14c-10.74,4.85-24.06,5.09-34.85,0.25"/>
	<path class="st9" d="M141.2,83l-1,61.19c0,1.83-0.64,3.6-1.81,5l-1.31,1.57c-1.18,1.42-2.98,2.17-4.82,2.02l-34.07-2.76v-72
		L141.2,83z"/>
	<path class="st9" d="M50.54,83.49l1,61.19c0,1.83,0.64,3.6,1.81,5l1.31,1.57c1.18,1.42,2.98,2.17,4.82,2.02l34.07-2.76v-72
		L50.54,83.49z"/>
	<path class="st8" d="M77.36,35.92c-0.04-3.3-0.09-6.6-0.13-9.9c-0.01-1.03-0.02-2.09,0.34-3.05c0.6-1.58,2.1-2.64,3.6-3.42
		c3.62-1.89,10.31-3.34,14.39-3.13"/>
</g>
</svg>
