<!-- Generator: Adobe Illustrator 23.1.1, SVG Export Plug-In  -->
<svg version="1.1" xmlns="http://www.w3.org/2000/svg" xmlns:xlink="http://www.w3.org/1999/xlink" x="0px" y="0px"
	 width="243.14px" height="55.85px" viewBox="0 0 243.14 55.85" style="enable-background:new 0 0 243.14 55.85;"
	 xml:space="preserve">
<style type="text/css">
	.st0{fill:#2C491B;}
</style>
<defs>
</defs>
<g>
	<path class="st0" d="M18.41,49.37l-1.93-5.52c-0.2-0.58-0.8-0.91-1.4-0.78L8.93,44.4c-0.55,0.12-0.94,0.59-0.96,1.15l-0.23,8.66
		c-0.02,0.62-0.49,1.12-1.11,1.17l-5.32,0.46C0.57,55.91-0.05,55.3,0,54.56l2.73-39.1c0.04-0.59,0.51-1.07,1.1-1.12l8.37-0.72
		c0.54-0.05,1.04,0.27,1.24,0.78l12.79,33.65c0.29,0.75-0.22,1.56-1.02,1.64l-5.55,0.5C19.11,50.23,18.6,49.89,18.41,49.37z
		 M8.43,27.52l-0.26,9.47c-0.02,0.78,0.69,1.38,1.46,1.22l3.27-0.69c0.71-0.15,1.13-0.89,0.9-1.58l-3.01-8.77
		C10.35,25.88,8.47,26.17,8.43,27.52z"/>
	<path class="st0" d="M35.32,8.77c4.31-0.59,7.87,0.65,10.67,3.71c2.8,3.07,4.54,7.01,5.2,11.84c0.51,3.72,0.4,7.31-0.32,10.77
		c-0.73,3.46-2.19,6.47-4.39,9.05c-2.2,2.57-4.97,4.09-8.33,4.55c-0.6,0.08-2.76,0.16-6.47,0.24c-0.64,0.01-1.19-0.49-1.24-1.13
		c-0.55-7.47-1.16-13.68-1.84-18.62c-0.68-4.94-1.58-10.36-2.69-16.26c-0.1-0.53,0.17-1.09,0.65-1.32
		C29.67,10.09,32.58,9.15,35.32,8.77z M43.05,36.56c1.26-3.23,1.66-6.59,1.18-10.07s-1.47-6.26-2.98-8.35
		c-1.5-2.08-3.09-3.01-4.75-2.78c-0.53,0.07-1.03,0.2-1.51,0.37c-0.54,0.2-0.86,0.77-0.76,1.34c0.82,5.03,1.47,9.28,1.95,12.77
		c0.51,3.7,0.93,7.58,1.26,11.62c0.3,0.26,0.69,0.35,1.17,0.29C40.31,41.53,41.79,39.8,43.05,36.56z"/>
	<path class="st0" d="M53.83,7.69l4.68-0.05c0.55-0.01,1.04,0.37,1.18,0.9c2.3,8.73,4.9,17.1,7.79,25.11l0.22-0.08
		c1.5-9.83,2.55-19.4,3.17-28.73c0.04-0.63,0.55-1.11,1.18-1.12l4.92-0.1c0.73-0.01,1.31,0.6,1.24,1.32
		C77.03,17.23,74.83,30,71.6,43.26c-0.13,0.54-0.61,0.92-1.16,0.93l-4.66,0.08c-0.51,0.01-0.97-0.3-1.15-0.77
		c-4.79-12.09-8.78-23.51-11.96-34.26C52.45,8.47,53.03,7.7,53.83,7.69z"/>
	<path class="st0" d="M86.34,42.78c-0.62-0.01-1.13-0.49-1.19-1.1c-0.53-5.45-0.97-10.63-1.33-15.53
		c-0.36-5.02-0.56-11.52-0.59-19.49c0-0.57,0.4-1.08,0.96-1.2c5.52-1.21,10.95-2.04,16.29-2.49c0.67-0.06,1.26,0.45,1.31,1.13
		l0.32,4.42c0.05,0.66-0.46,1.24-1.12,1.29c-3.32,0.26-6.44,0.59-9.37,0.99c-0.62,0.08-1.06,0.63-1.04,1.25
		c0.11,2.86,0.21,5.22,0.3,7.09c0.04,0.73,0.71,1.26,1.43,1.12c2.22-0.43,4.74-0.79,7.56-1.07c0.6-0.06,1.16,0.33,1.3,0.91
		l0.91,3.67c0.18,0.71-0.31,1.41-1.03,1.49c-2.19,0.25-5.08,0.69-8.67,1.32c-0.61,0.11-1.05,0.67-1,1.29
		c0.22,3.05,0.41,5.46,0.56,7.22c0.06,0.71,0.72,1.21,1.42,1.09c2.61-0.45,5.59-1.11,8.93-1.98c0.66-0.17,1.34,0.23,1.49,0.9
		l0.9,3.92c0.12,0.54-0.13,1.11-0.62,1.35c-2.86,1.41-6.23,2.25-10.12,2.54c-0.04,0-0.09,0-0.13,0L86.34,42.78z"/>
	<path class="st0" d="M130.9,0.65c0.63,0.03,1.12,0.53,1.15,1.16l1,24.81c0.15,3.9,0.19,8.07,0.11,12.51
		c-0.01,0.69-0.6,1.24-1.29,1.19l-4.3-0.26c-0.44-0.03-0.83-0.29-1.02-0.68c-3.84-7.87-7.15-14.26-9.91-19.15
		c-0.62-1.11-2.32-0.62-2.26,0.65c0.21,5.06,0.48,11.75,0.8,20.07c0.03,0.72-0.58,1.32-1.3,1.26l-4.16-0.3
		c-0.6-0.04-1.08-0.52-1.12-1.12c-0.15-1.93-0.27-3.81-0.34-5.64c-0.33-8.68-0.25-18.76,0.24-30.25c0.03-0.68,0.61-1.2,1.28-1.16
		l5.45,0.32c0.46,0.03,0.87,0.33,1.05,0.76c2.88,7.03,5.52,12.84,7.92,17.42c0.61,1.15,2.36,0.65,2.28-0.65
		c-0.49-8.02-0.94-14.64-1.37-19.85c-0.06-0.73,0.54-1.34,1.27-1.31L130.9,0.65z"/>
	<path class="st0" d="M144.83,40.08c-0.6-0.05-1.08-0.54-1.11-1.14c-0.36-6.14-0.55-11.52-0.58-16.15
		c-0.02-4.44,0.05-9.06,0.21-13.86c0.03-0.75-0.63-1.35-1.38-1.25l-4.23,0.61c-0.64,0.09-1.24-0.33-1.36-0.97l-0.8-4.11
		c-0.13-0.67,0.32-1.32,0.99-1.43c3.22-0.54,6.42-0.95,9.58-1.23L155.51,0c0.61-0.04,1.16,0.39,1.26,1l0.67,3.79
		c0.12,0.71-0.39,1.37-1.11,1.42c-1.39,0.09-2.89,0.21-4.5,0.35c-0.61,0.05-1.09,0.56-1.11,1.18c-0.17,4.94-0.25,9.49-0.22,13.65
		c0.02,4.22,0.11,10.16,0.29,17.83c0.02,0.72-0.59,1.3-1.31,1.24L144.83,40.08z"/>
	<path class="st0" d="M168.02,26.95c-0.06,1.93,0.32,3.67,1.13,5.22c0.81,1.55,1.8,2.34,2.97,2.38c1.17,0.04,2.12-0.46,2.86-1.48
		c0.74-1.02,1.28-2.38,1.63-4.08c0.61-2.99,0.98-6.47,1.1-10.43c0.11-3.71,0.06-9.04-0.15-16.01c-0.02-0.75,0.63-1.34,1.37-1.25
		L184.05,2c0.58,0.08,1.03,0.57,1.05,1.16c0.26,7.11,0.35,11.98,0.27,14.6c-0.08,2.75-0.18,4.67-0.29,5.77
		c-0.11,1.09-0.29,2.36-0.56,3.81c-0.27,1.44-0.61,2.79-1.01,4.04c-0.41,1.25-0.95,2.5-1.62,3.75c-0.67,1.24-1.45,2.3-2.33,3.17
		c-1.96,1.99-4.56,2.93-7.81,2.83c-3.25-0.1-5.99-1.63-8.2-4.6c-2.22-2.97-3.27-6.24-3.16-9.8c0.23-7.48,0.86-15.43,1.89-23.83
		c0.08-0.67,0.69-1.15,1.36-1.06l5.15,0.65c0.66,0.08,1.13,0.69,1.04,1.35C168.85,11.54,168.25,19.25,168.02,26.95z"/>
	<path class="st0" d="M191.21,41.58c-0.63-0.12-1.06-0.71-0.98-1.35c1.06-8.4,1.83-15.94,2.32-22.61
		c0.46-6.22,0.76-10.54,0.91-12.95c0.03-0.48,0.34-0.9,0.8-1.07c3.98-1.42,8.05-1.98,12.2-1.68c3.26,0.24,5.92,1.48,7.98,3.72
		c2.05,2.24,2.94,5.25,2.67,9.03c-0.3,4.11-3.33,7.88-9.08,11.3c-0.61,0.36-0.8,1.14-0.4,1.72c2.63,3.89,5.29,8.1,7.99,12.63
		c0.34,0.56,0.16,1.3-0.39,1.65l-3.56,2.25c-0.58,0.37-1.35,0.18-1.69-0.41c-1.88-3.25-4.81-7.97-8.79-14.15
		c-0.62-0.96-2.11-0.6-2.22,0.54c-0.38,3.94-0.78,7.7-1.2,11.29c-0.08,0.7-0.73,1.17-1.42,1.04L191.21,41.58z M207.08,18.66
		c2.07-1.77,3.16-3.43,3.27-4.99c0.11-1.56-0.25-2.8-1.1-3.72c-0.85-0.92-2.01-1.43-3.49-1.54c-1.25-0.09-2.62,0.03-4.11,0.37
		c-0.51,0.12-0.88,0.57-0.92,1.1c-0.34,4.61-0.62,8.3-0.85,11.08c-0.08,0.92,0.88,1.59,1.72,1.19
		C203.66,21.19,205.48,20.02,207.08,18.66z"/>
	<path class="st0" d="M220.72,43.69c-0.6-0.13-1.02-0.69-0.96-1.31c0.5-5.45,1.03-10.62,1.6-15.51c0.58-5,1.6-11.42,3.06-19.26
		c0.1-0.56,0.59-0.99,1.17-1c5.65-0.16,11.14,0.04,16.47,0.6c0.67,0.07,1.15,0.68,1.07,1.35l-0.51,4.4
		c-0.08,0.66-0.68,1.13-1.34,1.06c-3.31-0.36-6.44-0.62-9.39-0.77c-0.62-0.03-1.16,0.42-1.25,1.04c-0.43,2.83-0.77,5.17-1.03,7.02
		c-0.1,0.73,0.46,1.37,1.19,1.37c2.26-0.01,4.8,0.11,7.63,0.36c0.6,0.05,1.07,0.54,1.11,1.14l0.21,3.78
		c0.04,0.73-0.56,1.33-1.29,1.27c-2.2-0.16-5.12-0.27-8.76-0.33c-0.62-0.01-1.16,0.46-1.23,1.08c-0.35,3.04-0.62,5.44-0.8,7.2
		c-0.07,0.71,0.48,1.32,1.19,1.33c2.65,0.04,5.7-0.05,9.14-0.27c0.68-0.04,1.27,0.48,1.3,1.16l0.15,4.02
		c0.02,0.55-0.33,1.07-0.87,1.21c-3.07,0.85-6.54,1.05-10.42,0.61c-0.04-0.01-0.09-0.01-0.13-0.02L220.72,43.69z"/>
</g>
</svg>
