<!-- Generator: Adobe Illustrator 23.1.1, SVG Export Plug-In  -->
<svg version="1.1" xmlns="http://www.w3.org/2000/svg" xmlns:xlink="http://www.w3.org/1999/xlink" x="0px" y="0px"
	 width="206.37px" height="63.26px" viewBox="0 0 206.37 63.26" style="enable-background:new 0 0 206.37 63.26;"
	 xml:space="preserve">
<defs>
</defs>
<g>
	<path d="M16.61,0.46c0.75,0,1.3-0.01,1.67-0.02l1.77-0.02c1.85,0,3.38,0.07,4.58,0.21c0.01,0.11,0.02,0.31,0.02,0.59
		c0,0.43-0.03,0.89-0.09,1.37c-0.28-0.05-0.67-0.07-1.18-0.06c-0.41,0.03-0.81,0.04-1.22,0.04h-0.49c0.02,0.08,0.02,0.15,0,0.23
		c-0.01,0.08-0.02,0.93-0.02,2.57c0,0.39,0.01,0.72,0.02,0.97c0.04,3.34,0.08,5.79,0.11,7.35v0.04c-0.23,0.04-0.58,0.06-1.04,0.06
		c-0.49,0-0.87,0.03-1.12,0.08c-0.01-0.05-0.02-0.14-0.01-0.26c0.01-0.12,0.01-0.26,0.01-0.41v-1.16c0.01-0.25,0.02-0.71,0.02-1.37
		c0-0.75-0.01-1.35-0.02-1.8C19.59,7.04,19.55,5,19.48,2.74V2.66c-0.27-0.08-0.97-0.13-2.11-0.15c-0.41,0-0.63-0.01-0.67-0.02
		c-0.04-0.08-0.06-0.32-0.08-0.72C16.62,1.36,16.61,0.92,16.61,0.46z"/>
	<path d="M27.24,3.65v1.69c0.34-0.29,0.64-0.51,0.9-0.66s0.64-0.24,1.15-0.28c0.3-0.04,0.59-0.06,0.86-0.06
		c0.92,0,1.65,0.22,2.17,0.67c0.16,0.14,0.28,0.47,0.34,0.99s0.09,1.2,0.09,2.05c0,0.48-0.01,1.24-0.04,2.28
		c-0.03,1.01-0.04,1.74-0.04,2.17c0,0.35,0.01,0.79,0.04,1.29c-0.51,0.08-1.05,0.1-1.63,0.08c-0.03-0.38-0.04-0.71-0.04-0.99v-1.14
		V8.02c-0.03-0.81-0.21-1.34-0.57-1.58c-0.08-0.05-0.23-0.1-0.46-0.15c-0.27-0.08-0.54-0.11-0.82-0.11c-0.49,0-0.92,0.12-1.26,0.37
		s-0.57,0.63-0.67,1.15c-0.09,0.48-0.13,1.06-0.13,1.73l0.02,0.65c0.03,0.84,0.04,1.53,0.04,2.07c0,0.68-0.01,1.21-0.04,1.58v0.08
		c-0.25,0.06-0.46,0.09-0.61,0.09l-0.57-0.02c-0.18,0-0.32,0.01-0.44,0.02c0-1.46-0.01-2.66-0.02-3.61l-0.02-5.81
		c0-1.42,0.01-2.88,0.04-4.37c0.39,0.04,0.71,0.05,0.95,0.04c0.06,0,0.14-0.01,0.24-0.02s0.19-0.02,0.29-0.02
		c0.13,0,0.19,0.02,0.19,0.06c0.03,0.11,0.04,0.89,0.04,2.32V3.65z"/>
	<path d="M34.55,4.24c0.09-0.01,0.27-0.01,0.53,0c0.38,0.03,0.8,0.04,1.25,0.04v0.06c0,0.57-0.01,1.45-0.04,2.64
		c-0.04,1.22-0.06,2.45-0.06,3.69c0,1.17,0.03,2.2,0.08,3.12c-0.18,0.04-0.44,0.06-0.8,0.06c-0.36,0-0.57,0-0.65,0
		c-0.23,0-0.37,0.01-0.42,0.02c0.01-0.37,0.02-0.92,0.02-1.67v-1.71v-1.6c-0.03-0.89-0.04-1.57-0.04-2.05
		c0-0.87,0.04-1.73,0.11-2.57V4.24z M34.47,0.15c0.79,0.03,1.38,0.04,1.79,0.04l0.06,2.51c-0.13,0.06-0.35,0.09-0.68,0.09
		c-0.2,0-0.35-0.01-0.46-0.02c-0.08,0-0.17,0-0.27-0.01s-0.22,0-0.36,0.01c0-0.19-0.01-0.5-0.04-0.93
		C34.47,1.01,34.46,0.44,34.47,0.15z"/>
	<path d="M45.53,6.8c0,0.06-0.22,0.1-0.67,0.1c-0.33,0-0.57-0.01-0.72-0.02c-0.1,0-0.2,0-0.3-0.01c-0.1-0.01-0.18,0-0.25,0.01
		c0-0.01,0-0.23,0-0.66s-0.37-0.68-1.1-0.77c-0.17-0.03-0.41-0.04-0.74-0.04c-0.35,0-0.67,0.03-0.96,0.08
		c-0.28,0.05-0.5,0.12-0.64,0.21c-0.17,0.13-0.29,0.31-0.38,0.55c-0.09,0.24-0.13,0.47-0.13,0.7c0,0.18,0.03,0.3,0.08,0.36
		c0.14,0.29,0.32,0.49,0.55,0.61c0.13,0.09,0.44,0.2,0.93,0.32s0.92,0.2,1.27,0.21c0.52,0.01,0.98,0.09,1.38,0.24
		c0.4,0.15,0.71,0.35,0.94,0.6c0.23,0.28,0.4,0.55,0.5,0.83c0.11,0.27,0.16,0.57,0.16,0.88c0,0.39-0.09,0.87-0.29,1.42
		c-0.28,0.6-0.72,1.03-1.33,1.31s-1.3,0.41-2.07,0.4c-0.85,0.03-1.6-0.08-2.24-0.33c-0.65-0.25-1.15-0.62-1.5-1.11
		c-0.36-0.49-0.53-1.08-0.53-1.75v-0.1c0.23-0.02,0.56-0.04,1.01-0.04c0.49,0,0.76,0.02,0.8,0.06c0.03,0.03,0.08,0.17,0.16,0.43
		c0.08,0.26,0.23,0.52,0.45,0.79c0.21,0.27,0.58,0.42,1.1,0.46c0.41,0.03,0.65,0.04,0.72,0.04c0.2,0,0.37-0.02,0.5-0.06
		c0.13-0.04,0.31-0.11,0.52-0.21c0.65-0.29,0.96-0.72,0.95-1.27c0.01-0.37-0.09-0.65-0.29-0.86c-0.21-0.2-0.47-0.34-0.79-0.41
		c-0.32-0.07-0.75-0.14-1.29-0.2c-0.39-0.04-0.71-0.08-0.95-0.11s-0.46-0.1-0.65-0.19c-0.66-0.22-1.16-0.55-1.51-1.02
		c-0.35-0.46-0.52-0.97-0.52-1.51c0-0.6,0.17-1.14,0.52-1.62c0.35-0.49,0.83-0.81,1.43-0.96c0.52-0.14,1.18-0.21,2-0.21
		c0.19,0,0.47,0.01,0.85,0.04c0.54,0.04,1.05,0.13,1.52,0.29c0.44,0.19,0.8,0.52,1.08,0.98C45.39,5.72,45.53,6.23,45.53,6.8z"/>
	<path d="M52.03,3.65v1.69c0.34-0.29,0.64-0.51,0.9-0.66s0.64-0.24,1.15-0.28c0.3-0.04,0.59-0.06,0.86-0.06
		c0.92,0,1.65,0.22,2.17,0.67c0.16,0.14,0.28,0.47,0.34,0.99s0.09,1.2,0.09,2.05c0,0.48-0.01,1.24-0.04,2.28
		c-0.03,1.01-0.04,1.74-0.04,2.17c0,0.35,0.01,0.79,0.04,1.29c-0.51,0.08-1.05,0.1-1.63,0.08c-0.03-0.38-0.04-0.71-0.04-0.99v-1.14
		V8.02c-0.03-0.81-0.21-1.34-0.57-1.58c-0.08-0.05-0.23-0.1-0.46-0.15c-0.27-0.08-0.54-0.11-0.82-0.11c-0.49,0-0.92,0.12-1.26,0.37
		s-0.57,0.63-0.67,1.15c-0.09,0.48-0.13,1.06-0.13,1.73l0.02,0.65c0.03,0.84,0.04,1.53,0.04,2.07c0,0.68-0.01,1.21-0.04,1.58v0.08
		c-0.25,0.06-0.46,0.09-0.61,0.09l-0.57-0.02c-0.18,0-0.32,0.01-0.44,0.02c0-1.46-0.01-2.66-0.02-3.61l-0.02-5.81
		c0-1.42,0.01-2.88,0.04-4.37c0.39,0.04,0.71,0.05,0.95,0.04c0.06,0,0.14-0.01,0.24-0.02s0.19-0.02,0.29-0.02
		c0.13,0,0.19,0.02,0.19,0.06c0.03,0.11,0.04,0.89,0.04,2.32V3.65z"/>
	<path d="M59.34,4.24c0.09-0.01,0.27-0.01,0.53,0c0.38,0.03,0.8,0.04,1.25,0.04v0.06c0,0.57-0.01,1.45-0.04,2.64
		c-0.04,1.22-0.06,2.45-0.06,3.69c0,1.17,0.03,2.2,0.08,3.12c-0.18,0.04-0.44,0.06-0.8,0.06c-0.36,0-0.57,0-0.65,0
		c-0.23,0-0.37,0.01-0.42,0.02c0.01-0.37,0.02-0.92,0.02-1.67v-1.71v-1.6c-0.03-0.89-0.04-1.57-0.04-2.05
		c0-0.87,0.04-1.73,0.11-2.57V4.24z M59.27,0.15c0.79,0.03,1.38,0.04,1.79,0.04l0.06,2.51c-0.13,0.06-0.35,0.09-0.68,0.09
		c-0.2,0-0.35-0.01-0.46-0.02c-0.08,0-0.17,0-0.27-0.01s-0.22,0-0.36,0.01c0-0.19-0.01-0.5-0.04-0.93
		C59.27,1.01,59.26,0.44,59.27,0.15z"/>
	<path d="M64.47,3.5c0,0.67-0.01,1.24-0.02,1.69l-0.02,1.37c0,0.25,0.01,0.51,0.04,0.76c0.65-0.48,1.17-0.9,1.56-1.25
		c0.39-0.35,0.86-0.78,1.41-1.28c0.35-0.35,0.63-0.61,0.82-0.78c0.21,0.05,0.5,0.08,0.85,0.08c0.27,0,0.46-0.01,0.59-0.02
		c0.09,0,0.19,0,0.29-0.01c0.11-0.01,0.22,0,0.33,0.01c-0.75,0.65-1.49,1.34-2.22,2.07c-0.77,0.77-1.57,1.51-2.39,2.2
		c0.94,0.98,1.67,1.76,2.18,2.35s1.1,1.28,1.73,2.08l0.87,1.06c-0.1,0-0.32,0.01-0.65,0.04c-0.35,0.03-0.64,0.04-0.85,0.04
		c-0.15,0-0.34-0.01-0.57-0.04c-0.2-0.23-0.47-0.56-0.8-0.99c-0.42-0.53-0.84-1.04-1.27-1.52s-1.06-1.09-1.88-1.82
		c0,0.35,0.01,0.66,0.02,0.91l0.02,1.44l-0.02,1.92c-0.13-0.01-0.35-0.01-0.67,0.02l-0.63,0.02c-0.19,0-0.32-0.01-0.4-0.02
		c-0.05-1.33-0.08-2.81-0.08-4.43c0-0.96,0.01-2.41,0.04-4.33c0.03-1.95,0.04-3.41,0.04-4.37V0.04c0.25,0,0.45-0.01,0.59-0.02
		L64.08,0c0.19,0,0.32,0.01,0.4,0.02V3.5z"/>
	<path d="M71.94,9.03v0.34l-0.02,0.55c0,1.57,0.77,2.36,2.32,2.36c0.62,0,1.08-0.14,1.38-0.43c0.3-0.29,0.45-0.67,0.45-1.17
		c0-0.08-0.01-0.21-0.04-0.42c0.27-0.04,0.51-0.06,0.74-0.06c0.2,0,0.35,0.01,0.46,0.02c0.08,0,0.17,0,0.28,0.01
		c0.11,0.01,0.23,0,0.37-0.01c0.01,0.72-0.01,1.3-0.08,1.73s-0.21,0.84-0.46,1.23c-0.23,0.34-0.62,0.59-1.19,0.73
		s-1.18,0.22-1.85,0.22c-0.3,0-0.59-0.01-0.84-0.04c-0.26-0.03-0.42-0.05-0.48-0.08c-0.99-0.17-1.7-0.79-2.15-1.87
		s-0.63-2.32-0.57-3.71c0.01-0.1,0.03-0.31,0.06-0.64c0.03-0.32,0.06-0.66,0.1-1c0.04-0.34,0.13-0.68,0.26-1.01
		c0.24-0.56,0.68-0.99,1.31-1.29c0.63-0.3,1.34-0.46,2.11-0.46c0.41,0,0.83,0.05,1.27,0.15c1.72,0.29,2.58,1.59,2.58,3.89
		c0,0.19-0.01,0.46-0.04,0.82c-0.24,0.08-0.95,0.14-2.13,0.19c-0.14,0.01-0.44,0.02-0.91,0.02c-1,0-1.74-0.01-2.22-0.04
		C72.33,9.08,72.09,9.06,71.94,9.03z M76.56,7.6c-0.01-0.39-0.11-0.78-0.29-1.16c-0.18-0.38-0.45-0.68-0.79-0.89
		c-0.19-0.09-0.36-0.15-0.49-0.17c-0.14-0.03-0.32-0.04-0.53-0.04c-0.82,0-1.41,0.17-1.76,0.51c-0.35,0.34-0.57,0.83-0.66,1.46
		C72.01,7.47,72,7.57,72,7.62c0,0.15,0.07,0.25,0.22,0.3C72.36,7.97,72.68,8,73.16,8c0.47,0,0.87-0.01,1.2-0.02
		c1.22,0,1.9-0.01,2.05-0.02c0.06-0.01,0.1-0.03,0.12-0.05c0.02-0.02,0.03-0.05,0.03-0.1V7.6z"/>
	<path d="M83.28,4.24c0.09-0.01,0.27-0.01,0.53,0c0.38,0.03,0.8,0.04,1.25,0.04v0.06c0,0.57-0.01,1.45-0.04,2.64
		c-0.04,1.22-0.06,2.45-0.06,3.69c0,1.17,0.03,2.2,0.08,3.12c-0.18,0.04-0.44,0.06-0.8,0.06c-0.36,0-0.57,0-0.65,0
		c-0.23,0-0.37,0.01-0.42,0.02c0.01-0.37,0.02-0.92,0.02-1.67v-1.71v-1.6c-0.03-0.89-0.04-1.57-0.04-2.05
		c0-0.87,0.04-1.73,0.11-2.57V4.24z M83.21,0.15c0.79,0.03,1.38,0.04,1.79,0.04l0.06,2.51c-0.13,0.06-0.35,0.09-0.68,0.09
		c-0.2,0-0.35-0.01-0.46-0.02c-0.08,0-0.17,0-0.27-0.01s-0.22,0-0.36,0.01c0-0.19-0.01-0.5-0.04-0.93
		C83.21,1.01,83.2,0.44,83.21,0.15z"/>
	<path d="M94.27,6.8c0,0.06-0.22,0.1-0.67,0.1c-0.33,0-0.57-0.01-0.72-0.02c-0.1,0-0.2,0-0.3-0.01c-0.1-0.01-0.18,0-0.25,0.01
		c0-0.01,0-0.23,0-0.66s-0.37-0.68-1.1-0.77c-0.17-0.03-0.41-0.04-0.74-0.04c-0.35,0-0.67,0.03-0.96,0.08
		c-0.28,0.05-0.5,0.12-0.64,0.21c-0.17,0.13-0.29,0.31-0.38,0.55c-0.09,0.24-0.13,0.47-0.13,0.7c0,0.18,0.03,0.3,0.08,0.36
		c0.14,0.29,0.32,0.49,0.55,0.61c0.13,0.09,0.44,0.2,0.93,0.32s0.92,0.2,1.27,0.21c0.52,0.01,0.98,0.09,1.38,0.24
		c0.4,0.15,0.71,0.35,0.94,0.6c0.23,0.28,0.4,0.55,0.5,0.83c0.11,0.27,0.16,0.57,0.16,0.88c0,0.39-0.09,0.87-0.29,1.42
		c-0.28,0.6-0.72,1.03-1.33,1.31s-1.3,0.41-2.07,0.4c-0.85,0.03-1.6-0.08-2.24-0.33c-0.65-0.25-1.15-0.62-1.5-1.11
		c-0.36-0.49-0.53-1.08-0.53-1.75v-0.1c0.23-0.02,0.56-0.04,1.01-0.04c0.49,0,0.76,0.02,0.8,0.06c0.03,0.03,0.08,0.17,0.16,0.43
		c0.08,0.26,0.23,0.52,0.45,0.79c0.21,0.27,0.58,0.42,1.1,0.46c0.41,0.03,0.65,0.04,0.72,0.04c0.2,0,0.37-0.02,0.5-0.06
		c0.13-0.04,0.31-0.11,0.52-0.21c0.65-0.29,0.96-0.72,0.95-1.27c0.01-0.37-0.09-0.65-0.29-0.86c-0.21-0.2-0.47-0.34-0.79-0.41
		c-0.32-0.07-0.75-0.14-1.29-0.2c-0.39-0.04-0.71-0.08-0.95-0.11s-0.46-0.1-0.65-0.19c-0.66-0.22-1.16-0.55-1.51-1.02
		c-0.35-0.46-0.52-0.97-0.52-1.51c0-0.6,0.17-1.14,0.52-1.62c0.35-0.49,0.83-0.81,1.43-0.96c0.52-0.14,1.18-0.21,2-0.21
		c0.19,0,0.47,0.01,0.85,0.04c0.54,0.04,1.05,0.13,1.52,0.29c0.44,0.19,0.8,0.52,1.08,0.98C94.13,5.72,94.27,6.23,94.27,6.8z"/>
	<path d="M103.75,12.16v1.46c-0.04,0.11-0.3,0.17-0.8,0.17c-0.51,0-0.93-0.03-1.27-0.08v-1.86c0-0.92,0.03-1.99,0.09-3.19
		c0.06-2.38,0.1-3.99,0.11-4.83V3.27c0-0.14-0.01-0.25-0.02-0.34c-0.08-0.01-0.26,0.27-0.55,0.84c-0.23,0.46-0.43,0.82-0.62,1.08
		c-0.18,0.27-0.34,0.4-0.48,0.4c-0.11,0-0.41-0.07-0.89-0.21C98.84,4.9,98.6,4.79,98.6,4.71c0.24-0.52,0.55-1.1,0.92-1.76
		c0.37-0.65,0.71-1.22,1.02-1.69c0.3-0.48,0.51-0.79,0.63-0.94l1.18-0.02c0.28,0,0.79,0.01,1.52,0.04c0.04,0.48,0.06,1.19,0.06,2.13
		v1.06V4.5c0,0.85-0.03,2.12-0.08,3.82C103.78,9.74,103.75,11.02,103.75,12.16z"/>
	<path d="M107.28,13.83l-1.44-0.02h-0.06c-0.04-0.23-0.06-0.52-0.06-0.87l0.02-0.93c0.01-0.11,0.02-0.25,0.02-0.4
		c0.23-0.09,0.53-0.13,0.91-0.13c0.35,0,0.61,0.03,0.76,0.1c0,0.06-0.02,0.41-0.06,1.03c-0.04,0.62-0.06,1.02-0.06,1.2v0.04H107.28z
		"/>
	<path d="M109.16,9.73l1.88-0.04v0.02c0,0.52,0.04,0.93,0.11,1.24c0.08,0.3,0.25,0.55,0.51,0.73c0.27,0.18,0.68,0.28,1.23,0.28
		c0.92,0,1.58-0.28,1.98-0.85c0.39-0.56,0.57-1.24,0.53-2.02c-0.05-0.89-0.28-1.5-0.7-1.84c-0.42-0.34-1.08-0.51-1.98-0.51
		c-0.77,0-1.7,0.03-2.77,0.1c-0.57,0-0.86-0.01-0.86-0.04c-0.06-0.65-0.09-1.59-0.09-2.83l0.02-3.34h0.02l0.91-0.02
		c3.23-0.08,5.37-0.11,6.42-0.11c0.46,0,0.71,0.01,0.76,0.02c0.01,0.01,0.02,0.13,0.02,0.36c0,0.3-0.01,0.6-0.02,0.89
		c-0.01,0.29-0.02,0.49-0.02,0.59c-0.3,0.05-1.19,0.09-2.67,0.11s-2.62,0.04-3.45,0.04l-0.02,0.04v0.02c0,0.01,0.01,0.1,0.02,0.26
		c0.01,0.16,0.02,0.42,0.04,0.77c0.01,0.15,0.02,0.35,0.02,0.59c0,0.06,0.01,0.18,0.02,0.36c0.01,0.18,0.03,0.28,0.06,0.32
		l0.04,0.04h0.02c0.67-0.08,1.28-0.11,1.82-0.11c0.44,0,0.77,0.01,0.99,0.04c2.27,0.24,3.4,1.79,3.4,4.64
		c0,0.54-0.04,1.16-0.13,1.84c-0.13,0.56-0.41,1.04-0.85,1.45c-0.44,0.41-0.97,0.73-1.6,0.94c-0.63,0.22-1.28,0.32-1.95,0.32
		c-1.08,0-1.99-0.26-2.73-0.79s-1.11-1.29-1.11-2.29c0-0.35,0.04-0.74,0.11-1.16V9.73z"/>
	<path d="M124.11,4.41c0.03,0.14,0.04,0.32,0.04,0.53v0.47c0.47-0.47,1.03-0.75,1.67-0.86c0.44-0.09,0.82-0.13,1.12-0.13
		c0.54,0,0.99,0.11,1.35,0.32c0.28,0.13,0.46,0.3,0.55,0.53c0.09-0.05,0.22-0.14,0.39-0.28c0.17-0.13,0.41-0.26,0.7-0.38
		c0.3-0.12,0.71-0.19,1.24-0.2c0.63-0.03,1.13,0,1.49,0.09c0.36,0.08,0.69,0.25,0.98,0.5c0.16,0.14,0.28,0.47,0.34,0.99
		s0.09,1.2,0.09,2.05c0,0.48-0.01,1.24-0.04,2.28c-0.03,1.01-0.04,1.74-0.04,2.17c0,0.35,0.01,0.79,0.04,1.29
		c-0.46,0.08-0.99,0.1-1.62,0.08c-0.03-0.34-0.04-0.97-0.04-1.88c0.03-0.99,0.04-1.75,0.04-2.28v-0.8c-0.01-0.1-0.03-0.29-0.04-0.55
		c-0.01-0.27-0.04-0.56-0.08-0.87s-0.11-0.56-0.23-0.72c-0.08-0.25-0.32-0.4-0.74-0.44c-0.13-0.03-0.31-0.04-0.55-0.04
		c-0.37,0-0.68,0.06-0.95,0.18c-0.27,0.12-0.46,0.31-0.57,0.56c-0.03,0.28-0.04,0.5-0.04,0.67l0.02,0.53v0.7
		c0,0.43-0.01,1.09-0.04,1.98l-0.02,1.9c0,0.47,0.01,0.8,0.02,1.01c-0.27,0.04-0.63,0.06-1.08,0.06h-0.59
		c-0.03-0.25-0.04-0.7-0.04-1.35v-1.01l0.02-1.41c0-0.87-0.03-1.65-0.08-2.32c0-0.53-0.09-0.9-0.27-1.09
		c-0.18-0.2-0.51-0.29-0.99-0.29c-1.34,0-2.06,0.75-2.17,2.26c-0.01,0.19-0.02,0.47-0.02,0.84c0,0.41,0.01,0.98,0.04,1.71l0.02,0.93
		c0,0.52-0.02,1.06-0.06,1.62v0.08c-0.19,0.04-0.37,0.06-0.53,0.06l-0.63-0.02c-0.19,0-0.34,0.01-0.46,0.02l-0.02-3.27
		c-0.03-1.49-0.04-2.62-0.04-3.36c0-0.61,0.01-1.57,0.04-2.89c0.33,0.03,0.53,0.04,0.59,0.04l0.42-0.02c0.06,0,0.15-0.01,0.25-0.02
		s0.2-0.02,0.3-0.02C124.06,4.35,124.11,4.37,124.11,4.41z"/>
	<path d="M135.89,4.24c0.09-0.01,0.27-0.01,0.53,0c0.38,0.03,0.8,0.04,1.25,0.04v0.06c0,0.57-0.01,1.45-0.04,2.64
		c-0.04,1.22-0.06,2.45-0.06,3.69c0,1.17,0.02,2.2,0.08,3.12c-0.18,0.04-0.44,0.06-0.8,0.06s-0.57,0-0.65,0
		c-0.23,0-0.37,0.01-0.42,0.02c0.01-0.37,0.02-0.92,0.02-1.67v-1.71v-1.6c-0.03-0.89-0.04-1.57-0.04-2.05
		c0-0.87,0.04-1.73,0.11-2.57V4.24z M135.82,0.15c0.79,0.03,1.38,0.04,1.79,0.04l0.06,2.51c-0.13,0.06-0.35,0.09-0.68,0.09
		c-0.2,0-0.35-0.01-0.46-0.02c-0.08,0-0.17,0-0.27-0.01c-0.1-0.01-0.22,0-0.36,0.01c0-0.19-0.01-0.5-0.04-0.93
		C135.82,1.01,135.8,0.44,135.82,0.15z"/>
	<path d="M139.79,0.02l1.73,0.06c0,0.52-0.01,1.8-0.04,3.86c-0.03,2.53-0.04,4.52-0.04,5.97c0,1.6,0.02,2.87,0.06,3.82
		c-0.08,0.09-0.29,0.13-0.63,0.13l-0.59-0.02c-0.11-0.01-0.25-0.02-0.42-0.02c-0.1,0-0.17,0.01-0.19,0.02
		c0.08-1.03,0.11-2.06,0.11-3.1c0-0.79-0.03-1.96-0.08-3.53s-0.08-2.75-0.08-3.55C139.63,2.31,139.69,1.1,139.79,0.02z"/>
	<path d="M144.63,9.03v0.34l-0.02,0.55c0,1.57,0.77,2.36,2.32,2.36c0.62,0,1.08-0.14,1.38-0.43s0.45-0.67,0.45-1.17
		c0-0.08-0.01-0.21-0.04-0.42c0.27-0.04,0.51-0.06,0.74-0.06c0.2,0,0.35,0.01,0.46,0.02c0.08,0,0.17,0,0.28,0.01
		c0.11,0.01,0.23,0,0.37-0.01c0.01,0.72-0.01,1.3-0.08,1.73s-0.22,0.84-0.46,1.23c-0.23,0.34-0.62,0.59-1.19,0.73
		s-1.18,0.22-1.85,0.22c-0.3,0-0.59-0.01-0.85-0.04s-0.42-0.05-0.48-0.08c-0.99-0.17-1.7-0.79-2.15-1.87
		c-0.44-1.08-0.63-2.32-0.57-3.71c0.01-0.1,0.03-0.31,0.06-0.64c0.03-0.32,0.06-0.66,0.1-1s0.13-0.68,0.26-1.01
		c0.24-0.56,0.68-0.99,1.31-1.29c0.63-0.3,1.34-0.46,2.11-0.46c0.41,0,0.83,0.05,1.27,0.15c1.72,0.29,2.58,1.59,2.58,3.89
		c0,0.19-0.01,0.46-0.04,0.82c-0.24,0.08-0.95,0.14-2.13,0.19c-0.14,0.01-0.44,0.02-0.91,0.02c-1,0-1.74-0.01-2.22-0.04
		C145.02,9.08,144.78,9.06,144.63,9.03z M149.25,7.6c-0.01-0.39-0.11-0.78-0.29-1.16c-0.18-0.38-0.45-0.68-0.79-0.89
		c-0.19-0.09-0.35-0.15-0.49-0.17s-0.32-0.04-0.53-0.04c-0.82,0-1.41,0.17-1.76,0.51c-0.35,0.34-0.57,0.83-0.66,1.46
		c-0.03,0.15-0.04,0.25-0.04,0.3c0,0.15,0.07,0.25,0.22,0.3c0.14,0.05,0.46,0.08,0.94,0.08c0.47,0,0.87-0.01,1.2-0.02
		c1.22,0,1.9-0.01,2.05-0.02c0.06-0.01,0.1-0.03,0.12-0.05c0.02-0.02,0.03-0.05,0.03-0.1V7.6z"/>
	<path d="M159.22,6.8c0,0.06-0.22,0.1-0.67,0.1c-0.33,0-0.57-0.01-0.72-0.02c-0.1,0-0.2,0-0.3-0.01c-0.1-0.01-0.18,0-0.25,0.01
		c0-0.01,0-0.23,0-0.66s-0.37-0.68-1.1-0.77c-0.17-0.03-0.41-0.04-0.74-0.04c-0.35,0-0.67,0.03-0.96,0.08s-0.5,0.12-0.64,0.21
		c-0.17,0.13-0.29,0.31-0.38,0.55c-0.09,0.24-0.13,0.47-0.13,0.7c0,0.18,0.03,0.3,0.08,0.36c0.14,0.29,0.32,0.49,0.55,0.61
		c0.13,0.09,0.44,0.2,0.93,0.32s0.92,0.2,1.27,0.21c0.52,0.01,0.98,0.09,1.38,0.24c0.4,0.15,0.71,0.35,0.94,0.6
		c0.23,0.28,0.4,0.55,0.5,0.83c0.11,0.27,0.16,0.57,0.16,0.88c0,0.39-0.09,0.87-0.29,1.42c-0.28,0.6-0.72,1.03-1.33,1.31
		c-0.61,0.28-1.3,0.41-2.07,0.4c-0.85,0.03-1.6-0.08-2.24-0.33c-0.65-0.25-1.15-0.62-1.5-1.11c-0.35-0.49-0.53-1.08-0.53-1.75v-0.1
		c0.23-0.02,0.56-0.04,1.01-0.04c0.49,0,0.76,0.02,0.8,0.06c0.02,0.03,0.08,0.17,0.16,0.43c0.08,0.26,0.23,0.52,0.45,0.79
		s0.58,0.42,1.1,0.46c0.41,0.03,0.65,0.04,0.72,0.04c0.2,0,0.37-0.02,0.5-0.06c0.13-0.04,0.31-0.11,0.52-0.21
		c0.65-0.29,0.96-0.72,0.95-1.27c0.01-0.37-0.08-0.65-0.29-0.86c-0.21-0.2-0.47-0.34-0.79-0.41c-0.32-0.07-0.75-0.14-1.29-0.2
		c-0.39-0.04-0.71-0.08-0.95-0.11c-0.24-0.04-0.46-0.1-0.65-0.19c-0.66-0.22-1.16-0.55-1.51-1.02c-0.35-0.46-0.52-0.97-0.52-1.51
		c0-0.6,0.17-1.14,0.52-1.62c0.35-0.49,0.83-0.81,1.43-0.96c0.52-0.14,1.18-0.21,2-0.21c0.19,0,0.48,0.01,0.86,0.04
		c0.54,0.04,1.05,0.13,1.52,0.29c0.44,0.19,0.8,0.52,1.08,0.98C159.08,5.72,159.22,6.23,159.22,6.8z"/>
	<path d="M170.05,4.29c0.29-0.01,0.67,0,1.12,0.04l0.49,0.04c0.03,0.2,0.04,0.35,0.04,0.46v0.19c-0.01,0.29-0.02,0.73-0.02,1.31
		c0,0.48,0.01,1.19,0.04,2.13l0.02,2.13c0,0.91-0.03,1.74-0.08,2.49c0,0.04,0,0.12,0,0.25c0,0.13-0.01,0.24-0.04,0.34
		c-0.03,0.1-0.1,0.17-0.21,0.19h-0.32l-0.61-0.02c-0.1,0-0.19,0.01-0.27,0.02s-0.15,0.02-0.21,0.02c-0.13-0.04-0.19-0.18-0.19-0.42
		c-0.01-0.1-0.01-0.22,0.01-0.34c0.02-0.13,0.03-0.23,0.03-0.32c-0.3,0.42-0.79,0.7-1.44,0.85c-0.66,0.15-1.3,0.23-1.94,0.23
		c-0.61,0-1.12-0.27-1.55-0.81c-0.42-0.54-0.74-1.2-0.94-1.99c-0.2-0.79-0.3-1.55-0.3-2.3c0-0.82,0.14-1.56,0.42-2.22
		c0.28-0.66,0.66-1.18,1.15-1.57c0.49-0.39,1.03-0.59,1.62-0.6l0.61-0.02c0.57,0,1.04,0.07,1.42,0.2c0.37,0.13,0.65,0.38,0.83,0.73
		c0-0.11,0.01-0.26,0.04-0.44c0.03-0.25,0.04-0.43,0.04-0.53C169.81,4.31,169.89,4.29,170.05,4.29z M167.93,6
		c-0.66-0.01-1.21,0.16-1.66,0.5s-0.72,0.76-0.83,1.24c-0.1,0.37-0.15,0.86-0.15,1.48c0.06,2.04,0.89,3.01,2.47,2.93
		c0.65,0,1.12-0.11,1.41-0.34c0.29-0.23,0.47-0.55,0.54-0.97c0.07-0.42,0.1-1.04,0.1-1.88c0-0.91-0.04-1.55-0.11-1.93
		c-0.08-0.37-0.24-0.63-0.48-0.77C168.96,6.13,168.53,6.04,167.93,6z"/>
	<path d="M174.86,4.39c0.03,0.14,0.04,0.32,0.04,0.53V5.4c0.43-0.25,0.94-0.48,1.52-0.67c0.58-0.2,1.17-0.29,1.75-0.29
		c0.7,0.03,1.27,0.22,1.71,0.59c0.3,0.27,0.46,1.35,0.46,3.25c0,0.48-0.01,1.23-0.04,2.24c-0.03,0.96-0.04,1.66-0.04,2.09
		c0,0.56,0.01,0.96,0.02,1.2c-0.24,0.04-0.59,0.06-1.04,0.06h-0.63c-0.03-0.2-0.04-0.56-0.04-1.06v-0.82l0.02-1.22
		c0.03-0.82,0.03-1.41,0.02-1.77c0-0.08-0.02-0.34-0.05-0.78s-0.1-0.84-0.22-1.18c-0.04-0.44-0.35-0.65-0.93-0.61
		c-0.87,0.01-1.52,0.13-1.93,0.36c-0.41,0.23-0.64,0.64-0.69,1.23c-0.01,0.17-0.02,0.48-0.02,0.93c0,0.71,0.01,1.47,0.04,2.28
		c0.02,0.48,0.04,0.84,0.04,1.06c0,0.47-0.02,0.95-0.06,1.44v0.08c-0.24,0.05-0.48,0.07-0.71,0.07c-0.24-0.01-0.4-0.01-0.5-0.01
		c-0.2,0-0.36,0.01-0.47,0.02l-0.02-3.27c-0.03-1.49-0.04-2.62-0.04-3.36c0-0.61,0.01-1.57,0.04-2.89c0.15,0.01,0.33,0.02,0.53,0.02
		c0.2,0,0.37-0.01,0.49-0.02c0.08,0,0.16-0.01,0.27-0.02c0.1-0.01,0.2-0.02,0.3-0.02C174.8,4.33,174.86,4.35,174.86,4.39z"/>
	<path d="M187.3,0.72V0.51c0.03-0.06,0.33-0.09,0.91-0.09c0.33,0,0.58,0.01,0.74,0.04v1.25c0,1.2,0.03,2.96,0.08,5.26
		c0.01,0.57,0.03,1.25,0.04,2.04s0.02,1.69,0.02,2.71c0,0.94-0.01,1.63-0.02,2.09c-0.41,0.02-0.74,0.04-1.01,0.04
		c-0.34,0-0.6-0.01-0.76-0.04c-0.01-0.03-0.02-0.16-0.02-0.4c0-0.33-0.03-0.58-0.09-0.76c-0.09,0.2-0.24,0.41-0.45,0.61
		c-0.21,0.2-0.42,0.32-0.64,0.36c-0.34,0.11-0.72,0.17-1.14,0.17c-0.2,0-0.35-0.01-0.46-0.02c-0.9-0.06-1.58-0.35-2.03-0.85
		s-0.76-1.11-0.9-1.84s-0.23-1.62-0.26-2.67c0-1.06,0.14-1.94,0.43-2.63c0.28-0.69,0.78-1.13,1.49-1.32c0.47-0.13,1-0.19,1.6-0.19
		c0.48,0,0.86,0.03,1.12,0.09c0.25,0.04,0.48,0.12,0.68,0.26c0.2,0.13,0.36,0.27,0.47,0.42s0.18,0.25,0.19,0.31l-0.02-1.62
		c0-0.33,0-0.62-0.01-0.88c-0.01-0.26,0-0.47,0.01-0.62C187.3,2.18,187.3,2.1,187.3,2c-0.01-0.1-0.01-0.18-0.01-0.26v-0.4
		C187.29,1.06,187.29,0.85,187.3,0.72z M185.46,5.7l-0.36-0.02c-0.68,0-1.21,0.17-1.58,0.5c-0.37,0.34-0.58,0.86-0.63,1.57
		c-0.04,0.28-0.06,0.7-0.06,1.25c0.03,0.84,0.13,1.49,0.31,1.95c0.18,0.46,0.44,0.79,0.76,0.97c0.32,0.18,0.75,0.28,1.28,0.28
		c0.61,0,1.06-0.14,1.37-0.43c0.3-0.29,0.5-0.66,0.59-1.13c0.09-0.47,0.13-1.08,0.13-1.84c-0.01-0.72-0.05-1.29-0.12-1.69
		c-0.07-0.41-0.24-0.74-0.49-0.99C186.41,5.87,186.01,5.73,185.46,5.7z"/>
	<path d="M1.75,27.19c0,0.15,0,0.27,0.01,0.35c0.01,0.08,0.01,0.18,0.01,0.29c0.09-0.05,0.21-0.11,0.37-0.17
		c0.16-0.06,0.33-0.13,0.52-0.19c0.29-0.1,0.64-0.17,1.05-0.22c0.41-0.04,0.78-0.07,1.11-0.07c0.3,0,0.46,0.01,0.46,0.04L5.26,28.8
		c0,0.25,0.01,0.44,0.02,0.57c-0.19-0.08-0.41-0.15-0.65-0.21c-0.28-0.06-0.58-0.09-0.91-0.09c-0.34,0-0.73,0.05-1.16,0.15
		c-0.35,0.09-0.6,0.22-0.72,0.4c-0.13,0.18-0.18,0.51-0.17,1.01c0.05,1.74,0.08,3.71,0.08,5.91v0.08c-0.22,0.05-0.44,0.08-0.67,0.08
		c-0.09,0-0.23,0-0.43-0.01c-0.2-0.01-0.4,0-0.6,0.01l-0.02-3.27C0.01,31.93,0,30.81,0,30.06c0-0.61,0.01-1.57,0.04-2.89
		c0.13,0.01,0.26,0.02,0.41,0.01c0.15-0.01,0.28-0.01,0.39-0.01c0.15-0.01,0.35-0.02,0.61-0.02C1.65,27.15,1.75,27.16,1.75,27.19z"
		/>
	<path d="M6.97,27.04c0.09-0.01,0.27-0.01,0.53,0c0.38,0.03,0.8,0.04,1.25,0.04v0.06c0,0.57-0.01,1.45-0.04,2.64
		c-0.04,1.22-0.06,2.45-0.06,3.69c0,1.17,0.02,2.2,0.08,3.12c-0.18,0.04-0.44,0.06-0.8,0.06s-0.57,0-0.65,0
		c-0.23,0-0.37,0.01-0.42,0.02c0.01-0.37,0.02-0.92,0.02-1.67v-1.71v-1.6c-0.03-0.89-0.04-1.57-0.04-2.05
		c0-0.87,0.04-1.73,0.11-2.57V27.04z M6.9,22.95c0.79,0.03,1.38,0.04,1.79,0.04l0.06,2.51c-0.13,0.06-0.35,0.09-0.68,0.09
		c-0.2,0-0.35-0.01-0.46-0.02c-0.08,0-0.17,0-0.27-0.01c-0.1-0.01-0.22,0-0.36,0.01c0-0.19-0.01-0.5-0.04-0.93
		C6.9,23.81,6.88,23.24,6.9,22.95z"/>
	<path d="M17.95,29.6c0,0.06-0.22,0.1-0.67,0.1c-0.33,0-0.57-0.01-0.72-0.02c-0.1,0-0.2,0-0.3-0.01c-0.1-0.01-0.18,0-0.25,0.01
		c0-0.01,0-0.23,0-0.66s-0.37-0.68-1.1-0.77c-0.17-0.03-0.41-0.04-0.74-0.04c-0.35,0-0.67,0.03-0.96,0.08s-0.5,0.12-0.64,0.21
		c-0.17,0.13-0.29,0.31-0.38,0.55c-0.09,0.24-0.13,0.47-0.13,0.7c0,0.18,0.03,0.3,0.08,0.36c0.14,0.29,0.32,0.49,0.55,0.61
		c0.13,0.09,0.44,0.2,0.93,0.32s0.92,0.2,1.27,0.21c0.52,0.01,0.98,0.09,1.38,0.24c0.4,0.15,0.71,0.35,0.94,0.6
		c0.23,0.28,0.4,0.55,0.5,0.83c0.11,0.27,0.16,0.57,0.16,0.88c0,0.39-0.09,0.87-0.29,1.42c-0.28,0.6-0.72,1.03-1.33,1.31
		c-0.61,0.28-1.3,0.41-2.07,0.4c-0.85,0.03-1.6-0.08-2.24-0.33c-0.65-0.25-1.15-0.62-1.5-1.11c-0.35-0.49-0.53-1.08-0.53-1.75v-0.1
		c0.23-0.02,0.56-0.04,1.01-0.04c0.49,0,0.76,0.02,0.8,0.06c0.02,0.03,0.08,0.17,0.16,0.43c0.08,0.26,0.23,0.52,0.45,0.79
		s0.58,0.42,1.1,0.46c0.41,0.03,0.65,0.04,0.72,0.04c0.2,0,0.37-0.02,0.5-0.06c0.13-0.04,0.31-0.11,0.52-0.21
		c0.65-0.29,0.96-0.72,0.95-1.27c0.01-0.37-0.08-0.65-0.29-0.86c-0.21-0.2-0.47-0.34-0.79-0.41c-0.32-0.07-0.75-0.14-1.29-0.2
		c-0.39-0.04-0.71-0.08-0.95-0.11c-0.24-0.04-0.46-0.1-0.65-0.19c-0.66-0.22-1.16-0.55-1.51-1.02c-0.35-0.46-0.52-0.97-0.52-1.51
		c0-0.6,0.17-1.14,0.52-1.62c0.35-0.49,0.83-0.81,1.43-0.96c0.52-0.14,1.18-0.21,2-0.21c0.19,0,0.48,0.01,0.86,0.04
		c0.54,0.04,1.05,0.13,1.52,0.29c0.44,0.19,0.8,0.52,1.08,0.98C17.81,28.52,17.95,29.03,17.95,29.6z"/>
	<path d="M20.35,31.83v0.34l-0.02,0.55c0,1.57,0.77,2.36,2.32,2.36c0.62,0,1.08-0.14,1.38-0.43s0.45-0.67,0.45-1.17
		c0-0.08-0.01-0.21-0.04-0.42C24.7,33.02,24.95,33,25.17,33c0.2,0,0.35,0.01,0.46,0.02c0.08,0,0.17,0,0.28,0.01
		c0.11,0.01,0.23,0,0.37-0.01c0.01,0.72-0.01,1.3-0.08,1.73s-0.22,0.84-0.46,1.23c-0.23,0.34-0.62,0.59-1.19,0.73
		s-1.18,0.22-1.85,0.22c-0.3,0-0.59-0.01-0.85-0.04s-0.42-0.05-0.48-0.08c-0.99-0.17-1.7-0.79-2.15-1.87
		c-0.44-1.08-0.63-2.32-0.57-3.71c0.01-0.1,0.03-0.31,0.06-0.64c0.03-0.32,0.06-0.66,0.1-1s0.13-0.68,0.26-1.01
		c0.24-0.56,0.68-0.99,1.31-1.29c0.63-0.3,1.34-0.46,2.11-0.46c0.41,0,0.83,0.05,1.27,0.15c1.72,0.29,2.58,1.59,2.58,3.89
		c0,0.19-0.01,0.46-0.04,0.82c-0.24,0.08-0.95,0.14-2.13,0.19c-0.14,0.01-0.44,0.02-0.91,0.02c-1,0-1.74-0.01-2.22-0.04
		C20.73,31.88,20.5,31.86,20.35,31.83z M24.96,30.4c-0.01-0.39-0.11-0.78-0.29-1.16c-0.18-0.38-0.45-0.68-0.79-0.89
		c-0.19-0.09-0.35-0.15-0.49-0.17s-0.32-0.04-0.53-0.04c-0.82,0-1.41,0.17-1.76,0.51c-0.35,0.34-0.57,0.83-0.66,1.46
		c-0.03,0.15-0.04,0.25-0.04,0.3c0,0.15,0.07,0.25,0.22,0.3c0.14,0.05,0.46,0.08,0.94,0.08c0.47,0,0.87-0.01,1.2-0.02
		c1.22,0,1.9-0.01,2.05-0.02c0.06-0.01,0.1-0.03,0.12-0.05c0.02-0.02,0.03-0.05,0.03-0.1V30.4z"/>
	<path d="M34.94,29.6c0,0.06-0.22,0.1-0.67,0.1c-0.33,0-0.57-0.01-0.72-0.02c-0.1,0-0.2,0-0.3-0.01c-0.1-0.01-0.18,0-0.25,0.01
		c0-0.01,0-0.23,0-0.66s-0.37-0.68-1.1-0.77c-0.17-0.03-0.41-0.04-0.74-0.04c-0.35,0-0.67,0.03-0.96,0.08s-0.5,0.12-0.64,0.21
		c-0.17,0.13-0.29,0.31-0.38,0.55c-0.09,0.24-0.13,0.47-0.13,0.7c0,0.18,0.03,0.3,0.08,0.36c0.14,0.29,0.32,0.49,0.55,0.61
		c0.13,0.09,0.44,0.2,0.93,0.32s0.92,0.2,1.27,0.21c0.52,0.01,0.98,0.09,1.38,0.24c0.4,0.15,0.71,0.35,0.94,0.6
		c0.23,0.28,0.4,0.55,0.5,0.83c0.11,0.27,0.16,0.57,0.16,0.88c0,0.39-0.09,0.87-0.29,1.42c-0.28,0.6-0.72,1.03-1.33,1.31
		c-0.61,0.28-1.3,0.41-2.07,0.4c-0.85,0.03-1.6-0.08-2.24-0.33c-0.65-0.25-1.15-0.62-1.5-1.11c-0.35-0.49-0.53-1.08-0.53-1.75v-0.1
		c0.23-0.02,0.56-0.04,1.01-0.04c0.49,0,0.76,0.02,0.8,0.06c0.02,0.03,0.08,0.17,0.16,0.43c0.08,0.26,0.23,0.52,0.45,0.79
		s0.58,0.42,1.1,0.46c0.41,0.03,0.65,0.04,0.72,0.04c0.2,0,0.37-0.02,0.5-0.06c0.13-0.04,0.31-0.11,0.52-0.21
		c0.65-0.29,0.96-0.72,0.95-1.27c0.01-0.37-0.08-0.65-0.29-0.86c-0.21-0.2-0.47-0.34-0.79-0.41c-0.32-0.07-0.75-0.14-1.29-0.2
		c-0.39-0.04-0.71-0.08-0.95-0.11c-0.24-0.04-0.46-0.1-0.65-0.19c-0.66-0.22-1.16-0.55-1.51-1.02c-0.35-0.46-0.52-0.97-0.52-1.51
		c0-0.6,0.17-1.14,0.52-1.62c0.35-0.49,0.83-0.81,1.43-0.96c0.52-0.14,1.18-0.21,2-0.21c0.19,0,0.48,0.01,0.86,0.04
		c0.54,0.04,1.05,0.13,1.52,0.29c0.44,0.19,0.8,0.52,1.08,0.98C34.8,28.52,34.94,29.03,34.94,29.6z"/>
	<path d="M44.42,34.96v1.46c-0.04,0.11-0.3,0.17-0.8,0.17c-0.51,0-0.93-0.03-1.27-0.08v-1.86c0-0.92,0.03-1.99,0.09-3.19
		c0.06-2.38,0.1-3.99,0.11-4.83v-0.57c0-0.14-0.01-0.25-0.02-0.34c-0.08-0.01-0.26,0.27-0.55,0.84c-0.23,0.46-0.43,0.82-0.62,1.08
		c-0.18,0.27-0.35,0.4-0.49,0.4c-0.11,0-0.41-0.07-0.89-0.21s-0.72-0.25-0.72-0.32c0.24-0.52,0.55-1.1,0.92-1.76
		c0.37-0.65,0.71-1.22,1.02-1.69c0.3-0.48,0.51-0.79,0.63-0.94l1.18-0.02c0.28,0,0.79,0.01,1.52,0.04c0.04,0.48,0.06,1.19,0.06,2.13
		v1.06v0.97c0,0.85-0.03,2.12-0.08,3.82C44.45,32.54,44.42,33.82,44.42,34.96z"/>
	<path d="M48.01,37.03l-0.15,0.76l-0.15,0.74c-0.04-0.01-0.19-0.02-0.46-0.02c-0.1-0.01-0.29-0.02-0.55-0.02
		c-0.03-0.03,0.02-0.27,0.13-0.74c0.14-0.53,0.22-0.9,0.25-1.1l-0.63-0.08c-0.03,0-0.04-0.01-0.06-0.02c0-0.35,0.02-1.08,0.08-2.18
		v-0.02h0.02c0.18-0.04,0.36-0.06,0.55-0.06c0.13,0,0.34,0.01,0.65,0.04c0.23,0.03,0.4,0.04,0.51,0.04h0.02l-0.08,2.18h-0.04
		l-0.02,0.06c0,0.08-0.01,0.15-0.03,0.22C48.04,36.9,48.02,36.97,48.01,37.03z"/>
	<path d="M49.42,30.65l-0.02-0.49c-0.03-0.48-0.04-0.84-0.04-1.08c0-0.82,0.07-1.58,0.22-2.26c0.15-0.68,0.41-1.32,0.79-1.92
		c0.3-0.53,0.76-0.96,1.38-1.27s1.26-0.48,1.95-0.48c1.01,0,1.85,0.3,2.51,0.89c0.66,0.59,1.14,1.34,1.44,2.24
		c0.3,0.9,0.46,1.81,0.46,2.72c0,0.25-0.01,0.44-0.02,0.55l0.02,0.51c0,1.04-0.16,2.06-0.46,3.06c-0.31,1-0.8,1.83-1.45,2.49
		c-0.66,0.66-1.48,0.99-2.47,0.99c-0.65,0-1.18-0.08-1.6-0.25c-0.8-0.29-1.39-0.73-1.78-1.31c-0.39-0.58-0.63-1.21-0.73-1.87
		S49.44,31.66,49.42,30.65z M51.24,30.29c0.01,1.18,0.15,2.19,0.43,3.04s0.87,1.29,1.78,1.33c0.32,0.03,0.59,0,0.82-0.08
		c0.6-0.2,1.05-0.6,1.36-1.19s0.46-1.16,0.45-1.72s-0.02-0.86-0.02-0.89c0-0.24,0.01-0.42,0.02-0.55l0.02-0.7
		c0-0.16-0.01-0.5-0.04-1.01c-0.03-0.84-0.21-1.6-0.56-2.28c-0.35-0.68-0.9-1.08-1.64-1.18c-1.03,0-1.7,0.3-2.02,0.9
		c-0.32,0.6-0.48,1.18-0.48,1.72c-0.03,0.18-0.05,0.42-0.08,0.74C51.23,29.31,51.23,29.93,51.24,30.29z"/>
	<path d="M67.56,27.68l0.04,2.81l0.02,0.57c0.03,0.51,0.04,0.88,0.04,1.12c0,0.36-0.01,0.62-0.04,0.8c-0.14,1-0.46,1.86-0.95,2.57
		c-0.33,0.38-0.76,0.67-1.28,0.86c-0.53,0.2-1.1,0.29-1.72,0.29c-0.82,0-1.62-0.16-2.38-0.48c-0.77-0.32-1.33-0.75-1.7-1.29
		c-0.33-0.48-0.49-1.08-0.49-1.79c0-0.28,0.01-0.49,0.04-0.65v-0.09c0.29,0,0.51-0.01,0.67-0.02l0.7-0.02
		c0.09,0.79,0.38,1.38,0.88,1.78c0.5,0.4,1.09,0.6,1.76,0.6c0.35,0,0.69-0.06,1.01-0.17c0.44-0.15,0.76-0.4,0.96-0.75
		c0.2-0.35,0.3-0.79,0.31-1.32v-1.14l0.02-0.87l-0.02-0.02c-0.62,0.47-1.23,0.71-1.84,0.72c-0.92,0.04-1.7-0.09-2.34-0.38
		c-0.63-0.29-1.15-0.75-1.56-1.37c-0.19-0.29-0.34-0.65-0.44-1.06s-0.15-0.85-0.15-1.31c0-0.7,0.1-1.3,0.3-1.81
		c0.77-1.32,2.12-2.02,4.03-2.11l0.57,0.02c0.76,0.01,1.37,0.08,1.81,0.2c0.45,0.12,0.82,0.4,1.11,0.85
		c0.27,0.41,0.44,0.87,0.51,1.41S67.55,26.85,67.56,27.68z M63.48,29.45c0.57,0,1.04-0.17,1.42-0.5c0.37-0.33,0.61-0.78,0.69-1.32
		c0.03-0.09,0.04-0.25,0.04-0.49c0.03-0.42-0.05-0.8-0.23-1.15c-0.18-0.35-0.45-0.59-0.82-0.71c-0.33-0.11-0.69-0.17-1.08-0.17
		c-0.63,0-1.18,0.14-1.63,0.43s-0.68,0.7-0.68,1.24c0.05,0.65,0.13,1.13,0.25,1.46v0.02c0.18,0.39,0.46,0.69,0.84,0.89
		C62.64,29.35,63.05,29.45,63.48,29.45z"/>
	<path d="M77.04,36.54l-5.13,0.09l-2.17,0.02h-0.86c-0.01-0.01-0.02-0.03-0.02-0.06l0.02-0.57c0.01-0.75,0.07-1.36,0.17-1.83
		c0.1-0.47,0.35-0.97,0.76-1.47c0.41-0.44,0.85-0.84,1.35-1.19s1.15-0.78,1.98-1.3c0.14-0.09,0.29-0.18,0.46-0.28
		c0.17-0.09,0.34-0.21,0.51-0.33c0.76-0.39,1.16-0.9,1.2-1.52l0.02-0.44c0-0.99-0.17-1.66-0.52-2c-0.35-0.35-0.82-0.52-1.42-0.52
		c-0.04,0-0.32,0.02-0.85,0.06c-0.54,0.06-0.95,0.35-1.21,0.87c-0.26,0.51-0.39,1.08-0.39,1.7l0.02,0.68v0.13l-0.02,0.04
		c-0.46,0.08-0.87,0.11-1.25,0.11c-0.14,0-0.36-0.01-0.67-0.04L69,28.65c-0.08-0.42-0.11-0.83-0.11-1.23c0-1.29,0.35-2.34,1.06-3.15
		c0.29-0.38,0.74-0.67,1.35-0.85c0.61-0.19,1.27-0.29,1.98-0.29c0.82,0,1.53,0.11,2.11,0.34c0.76,0.39,1.28,1.01,1.55,1.85
		c0.27,0.84,0.39,1.85,0.35,3.03c-0.05,0.54-0.21,1-0.47,1.38c-0.26,0.37-0.57,0.68-0.93,0.93s-0.84,0.53-1.43,0.85
		c-0.51,0.27-0.92,0.5-1.24,0.69s-0.61,0.43-0.87,0.69c-0.33,0.35-0.61,0.67-0.84,0.95c-0.23,0.28-0.34,0.51-0.34,0.68
		c0,0.09,0.04,0.15,0.11,0.19c0.94,0.03,1.75,0.04,2.43,0.04c0.65,0,1.5-0.03,2.57-0.08l0.61-0.02c0.08,0.23,0.11,0.49,0.11,0.78
		l-0.02,0.63c0,0.17,0,0.25,0,0.25S77,36.38,77.04,36.54z"/>
	<path d="M85,29.54v7.03c-0.19-0.01-0.41-0.01-0.67,0.02l-0.46,0.02c-0.2,0-0.37-0.01-0.49-0.04c-0.05-0.3-0.08-1.41-0.08-3.31
		l0.02-2.3c0.01-0.38,0.02-0.85,0.02-1.42c-0.14,0.01-0.42,0.02-0.84,0.02c-0.11-0.01-0.28-0.02-0.49-0.02
		c-0.19,0-0.33,0.01-0.42,0.02l-0.06-1.63c0.94,0,1.53,0.01,1.77,0.02l-0.02-0.76c0-0.95,0.15-1.75,0.45-2.39
		c0.3-0.65,0.87-1.03,1.72-1.14c0.7-0.06,1.44-0.1,2.24-0.1h0.74c0.08,0.24,0.11,0.49,0.11,0.76c0,0.14-0.03,0.46-0.09,0.97
		c-0.22-0.01-0.92,0.01-2.13,0.06c-0.41,0.03-0.68,0.06-0.84,0.1c-0.15,0.04-0.27,0.16-0.34,0.35c-0.08,0.19-0.11,0.53-0.11,1.01
		c0,0.17,0.01,0.56,0.04,1.2c0.75-0.01,1.86-0.02,3.34-0.02c-0.01,0.05-0.03,0.26-0.06,0.63c0,0.38-0.01,0.72-0.04,1.01l-2.19-0.06
		L85,29.54z"/>
	<path d="M92.47,23.62v2.91l0.02,1.06c0.82-0.03,1.84-0.07,3.06-0.13c0.08,0.1,0.11,0.29,0.11,0.57l-0.02,0.44
		c-0.03,0.28-0.03,0.48-0.02,0.61c-1.38,0-2.41-0.01-3.1-0.02v2.91v0.65c0,0.57,0.01,0.98,0.04,1.22c0.03,0.24,0.08,0.45,0.15,0.63
		c0.2,0.25,0.61,0.41,1.23,0.47s1.17,0.08,1.68,0.06c0.06,0.51,0.09,0.83,0.09,0.97c0,0.23-0.03,0.46-0.09,0.68
		c-0.27,0.01-0.68,0.02-1.25,0.02c-0.99,0-1.76-0.12-2.32-0.36s-0.91-0.72-1.06-1.44c-0.14-1.23-0.21-2.83-0.21-4.81v-0.91
		c-0.08,0.01-0.27,0.02-0.57,0.02l-1.44-0.02l0.06-1.56c0.28,0.03,0.94,0.04,1.99,0.04l-0.02-1.99v-0.89c0-0.53,0.01-0.91,0.04-1.12
		c0.18-0.01,0.45-0.01,0.82,0.02l0.51,0.02C92.3,23.64,92.41,23.63,92.47,23.62z"/>
	<path d="M100.89,27.04c0.09-0.01,0.27-0.01,0.53,0c0.38,0.03,0.8,0.04,1.25,0.04v0.06c0,0.57-0.01,1.45-0.04,2.64
		c-0.04,1.22-0.06,2.45-0.06,3.69c0,1.17,0.02,2.2,0.08,3.12c-0.18,0.04-0.44,0.06-0.8,0.06s-0.57,0-0.65,0
		c-0.23,0-0.37,0.01-0.42,0.02c0.01-0.37,0.02-0.92,0.02-1.67v-1.71v-1.6c-0.03-0.89-0.04-1.57-0.04-2.05
		c0-0.87,0.04-1.73,0.11-2.57V27.04z M100.81,22.95c0.79,0.03,1.38,0.04,1.79,0.04l0.06,2.51c-0.13,0.06-0.35,0.09-0.68,0.09
		c-0.2,0-0.35-0.01-0.46-0.02c-0.08,0-0.17,0-0.27-0.01c-0.1-0.01-0.22,0-0.36,0.01c0-0.19-0.01-0.5-0.04-0.93
		C100.81,23.81,100.8,23.24,100.81,22.95z"/>
	<path d="M106.11,27.19c0.03,0.14,0.04,0.32,0.04,0.53v0.48c0.43-0.25,0.94-0.48,1.52-0.67c0.58-0.2,1.17-0.29,1.75-0.29
		c0.7,0.03,1.27,0.22,1.71,0.59c0.3,0.27,0.46,1.35,0.46,3.25c0,0.48-0.01,1.23-0.04,2.24c-0.03,0.96-0.04,1.66-0.04,2.09
		c0,0.56,0.01,0.96,0.02,1.2c-0.24,0.04-0.59,0.06-1.04,0.06h-0.63c-0.03-0.2-0.04-0.56-0.04-1.06v-0.82l0.02-1.22
		c0.03-0.82,0.03-1.41,0.02-1.77c0-0.08-0.02-0.34-0.05-0.78s-0.1-0.84-0.22-1.18c-0.04-0.44-0.35-0.65-0.93-0.61
		c-0.87,0.01-1.52,0.13-1.93,0.36c-0.41,0.23-0.64,0.64-0.69,1.23c-0.01,0.17-0.02,0.48-0.02,0.93c0,0.71,0.01,1.47,0.04,2.28
		c0.02,0.48,0.04,0.84,0.04,1.06c0,0.47-0.02,0.95-0.06,1.44v0.08c-0.24,0.05-0.48,0.07-0.71,0.07c-0.24-0.01-0.4-0.01-0.5-0.01
		c-0.2,0-0.36,0.01-0.47,0.02l-0.02-3.27c-0.03-1.49-0.04-2.62-0.04-3.36c0-0.61,0.01-1.57,0.04-2.89c0.15,0.01,0.33,0.02,0.53,0.02
		c0.2,0,0.37-0.01,0.49-0.02c0.08,0,0.16-0.01,0.27-0.02c0.1-0.01,0.2-0.02,0.3-0.02C106.05,27.13,106.11,27.15,106.11,27.19z"/>
	<path d="M118.06,31.83v0.34l-0.02,0.55c0,1.57,0.77,2.36,2.32,2.36c0.62,0,1.08-0.14,1.38-0.43s0.45-0.67,0.45-1.17
		c0-0.08-0.01-0.21-0.04-0.42c0.27-0.04,0.51-0.06,0.74-0.06c0.2,0,0.35,0.01,0.46,0.02c0.08,0,0.17,0,0.28,0.01
		c0.11,0.01,0.23,0,0.37-0.01c0.01,0.72-0.01,1.3-0.08,1.73s-0.22,0.84-0.46,1.23c-0.23,0.34-0.62,0.59-1.19,0.73
		s-1.18,0.22-1.85,0.22c-0.3,0-0.59-0.01-0.85-0.04s-0.42-0.05-0.48-0.08c-0.99-0.17-1.7-0.79-2.15-1.87
		c-0.44-1.08-0.63-2.32-0.57-3.71c0.01-0.1,0.03-0.31,0.06-0.64c0.03-0.32,0.06-0.66,0.1-1s0.13-0.68,0.26-1.01
		c0.24-0.56,0.68-0.99,1.31-1.29c0.63-0.3,1.34-0.46,2.11-0.46c0.41,0,0.83,0.05,1.27,0.15c1.72,0.29,2.58,1.59,2.58,3.89
		c0,0.19-0.01,0.46-0.04,0.82c-0.24,0.08-0.95,0.14-2.13,0.19c-0.14,0.01-0.44,0.02-0.91,0.02c-1,0-1.74-0.01-2.22-0.04
		C118.45,31.88,118.21,31.86,118.06,31.83z M122.68,30.4c-0.01-0.39-0.11-0.78-0.29-1.16c-0.18-0.38-0.45-0.68-0.79-0.89
		c-0.19-0.09-0.35-0.15-0.49-0.17s-0.32-0.04-0.53-0.04c-0.82,0-1.41,0.17-1.76,0.51c-0.35,0.34-0.57,0.83-0.66,1.46
		c-0.03,0.15-0.04,0.25-0.04,0.3c0,0.15,0.07,0.25,0.22,0.3c0.14,0.05,0.46,0.08,0.94,0.08c0.47,0,0.87-0.01,1.2-0.02
		c1.22,0,1.9-0.01,2.05-0.02c0.06-0.01,0.1-0.03,0.12-0.05c0.02-0.02,0.03-0.05,0.03-0.1V30.4z"/>
	<path d="M125.57,22.82l1.73,0.06c0,0.52-0.01,1.8-0.04,3.86c-0.03,2.53-0.04,4.52-0.04,5.97c0,1.6,0.02,2.87,0.06,3.82
		c-0.08,0.09-0.29,0.13-0.63,0.13l-0.59-0.02c-0.11-0.01-0.25-0.02-0.42-0.02c-0.1,0-0.17,0.01-0.19,0.02
		c0.08-1.03,0.11-2.06,0.11-3.1c0-0.79-0.03-1.96-0.08-3.53s-0.08-2.75-0.08-3.55C125.41,25.11,125.46,23.9,125.57,22.82z"/>
	<path d="M130.41,31.83v0.34l-0.02,0.55c0,1.57,0.77,2.36,2.32,2.36c0.62,0,1.08-0.14,1.38-0.43s0.45-0.67,0.45-1.17
		c0-0.08-0.01-0.21-0.04-0.42c0.27-0.04,0.51-0.06,0.74-0.06c0.2,0,0.35,0.01,0.46,0.02c0.08,0,0.17,0,0.28,0.01
		c0.11,0.01,0.23,0,0.37-0.01c0.01,0.72-0.01,1.3-0.08,1.73s-0.22,0.84-0.46,1.23c-0.23,0.34-0.62,0.59-1.19,0.73
		s-1.18,0.22-1.85,0.22c-0.3,0-0.59-0.01-0.85-0.04s-0.42-0.05-0.48-0.08c-0.99-0.17-1.7-0.79-2.15-1.87
		c-0.44-1.08-0.63-2.32-0.57-3.71c0.01-0.1,0.03-0.31,0.06-0.64c0.03-0.32,0.06-0.66,0.1-1s0.13-0.68,0.26-1.01
		c0.24-0.56,0.68-0.99,1.31-1.29c0.63-0.3,1.34-0.46,2.11-0.46c0.41,0,0.83,0.05,1.27,0.15c1.72,0.29,2.58,1.59,2.58,3.89
		c0,0.19-0.01,0.46-0.04,0.82c-0.24,0.08-0.95,0.14-2.13,0.19c-0.14,0.01-0.44,0.02-0.91,0.02c-1,0-1.74-0.01-2.22-0.04
		C130.8,31.88,130.56,31.86,130.41,31.83z M135.03,30.4c-0.01-0.39-0.11-0.78-0.29-1.16c-0.18-0.38-0.45-0.68-0.79-0.89
		c-0.19-0.09-0.35-0.15-0.49-0.17s-0.32-0.04-0.53-0.04c-0.82,0-1.41,0.17-1.76,0.51c-0.35,0.34-0.57,0.83-0.66,1.46
		c-0.03,0.15-0.04,0.25-0.04,0.3c0,0.15,0.07,0.25,0.22,0.3c0.14,0.05,0.46,0.08,0.94,0.08c0.47,0,0.87-0.01,1.2-0.02
		c1.22,0,1.9-0.01,2.05-0.02c0.06-0.01,0.1-0.03,0.12-0.05c0.02-0.02,0.03-0.05,0.03-0.1V30.4z"/>
	<path d="M136.72,27.13c0.19,0.03,0.46,0.04,0.8,0.04c0.11,0,0.25,0,0.41-0.01c0.16-0.01,0.33,0,0.52,0.01
		c0.2,0.71,0.58,2.06,1.12,4.05c0.27,1,0.46,1.72,0.59,2.17s0.28,0.87,0.46,1.29c0.11-0.28,0.25-0.7,0.42-1.27
		c0.17-0.57,0.27-0.94,0.32-1.12c0.62-2.12,1.15-3.81,1.6-5.07c0.11,0,0.3-0.01,0.55-0.04c0.46-0.03,0.84-0.03,1.14-0.02
		c-0.25,0.67-0.49,1.37-0.7,2.08c-0.22,0.72-0.42,1.42-0.61,2.12c-0.61,2.1-1.15,3.86-1.63,5.26c-0.2,0.04-0.53,0.06-0.97,0.06
		l-1.37-0.02c-0.56-1.77-0.97-3.12-1.23-4.04c-0.26-0.92-0.52-1.93-0.79-3.03L136.72,27.13z"/>
	<path d="M151.08,27.09c0.29-0.01,0.67,0,1.12,0.04l0.49,0.04c0.03,0.2,0.04,0.35,0.04,0.46v0.19c-0.01,0.29-0.02,0.73-0.02,1.31
		c0,0.48,0.01,1.19,0.04,2.13l0.02,2.13c0,0.91-0.03,1.74-0.08,2.49c0,0.04,0,0.12,0,0.25c0,0.13-0.01,0.24-0.04,0.34
		c-0.03,0.1-0.1,0.17-0.21,0.19h-0.32l-0.61-0.02c-0.1,0-0.19,0.01-0.27,0.02s-0.15,0.02-0.21,0.02c-0.13-0.04-0.19-0.18-0.19-0.42
		c-0.01-0.1-0.01-0.22,0.01-0.34c0.02-0.13,0.03-0.23,0.03-0.32c-0.3,0.42-0.79,0.7-1.44,0.85c-0.66,0.15-1.3,0.23-1.94,0.23
		c-0.61,0-1.12-0.27-1.55-0.81c-0.42-0.54-0.74-1.2-0.94-1.99c-0.2-0.79-0.3-1.55-0.3-2.3c0-0.82,0.14-1.56,0.42-2.22
		c0.28-0.66,0.66-1.18,1.15-1.57c0.49-0.39,1.03-0.59,1.62-0.6l0.61-0.02c0.57,0,1.04,0.07,1.42,0.2c0.37,0.13,0.65,0.38,0.83,0.73
		c0-0.11,0.01-0.26,0.04-0.44c0.03-0.25,0.04-0.43,0.04-0.53C150.84,27.11,150.92,27.09,151.08,27.09z M148.96,28.8
		c-0.66-0.01-1.21,0.16-1.66,0.5s-0.72,0.76-0.83,1.24c-0.1,0.37-0.15,0.86-0.15,1.48c0.06,2.04,0.89,3.01,2.47,2.93
		c0.65,0,1.12-0.11,1.41-0.34c0.29-0.23,0.47-0.55,0.54-0.97c0.07-0.42,0.1-1.04,0.1-1.88c0-0.91-0.04-1.55-0.11-1.93
		c-0.08-0.37-0.24-0.63-0.48-0.77C149.99,28.93,149.56,28.84,148.96,28.8z"/>
	<path d="M157.33,23.62v2.91l0.02,1.06c0.82-0.03,1.84-0.07,3.06-0.13c0.08,0.1,0.11,0.29,0.11,0.57l-0.02,0.44
		c-0.03,0.28-0.03,0.48-0.02,0.61c-1.38,0-2.41-0.01-3.1-0.02v2.91v0.65c0,0.57,0.01,0.98,0.04,1.22c0.03,0.24,0.08,0.45,0.15,0.63
		c0.2,0.25,0.61,0.41,1.22,0.47s1.17,0.08,1.68,0.06c0.06,0.51,0.1,0.83,0.1,0.97c0,0.23-0.03,0.46-0.1,0.68
		c-0.27,0.01-0.68,0.02-1.25,0.02c-0.99,0-1.76-0.12-2.32-0.36c-0.56-0.24-0.91-0.72-1.06-1.44c-0.14-1.23-0.21-2.83-0.21-4.81
		v-0.91c-0.08,0.01-0.27,0.02-0.57,0.02l-1.44-0.02l0.06-1.56c0.28,0.03,0.94,0.04,2,0.04l-0.02-1.99v-0.89
		c0-0.53,0.01-0.91,0.04-1.12c0.18-0.01,0.45-0.01,0.82,0.02l0.51,0.02C157.17,23.64,157.27,23.63,157.33,23.62z"/>
	<path d="M161.95,27.04c0.09-0.01,0.27-0.01,0.53,0c0.38,0.03,0.8,0.04,1.25,0.04v0.06c0,0.57-0.01,1.45-0.04,2.64
		c-0.04,1.22-0.06,2.45-0.06,3.69c0,1.17,0.03,2.2,0.08,3.12c-0.18,0.04-0.44,0.06-0.8,0.06c-0.36,0-0.57,0-0.65,0
		c-0.23,0-0.37,0.01-0.42,0.02c0.01-0.37,0.02-0.92,0.02-1.67v-1.71v-1.6c-0.03-0.89-0.04-1.57-0.04-2.05
		c0-0.87,0.04-1.73,0.11-2.57V27.04z M161.88,22.95c0.79,0.03,1.38,0.04,1.79,0.04l0.06,2.51c-0.13,0.06-0.35,0.09-0.68,0.09
		c-0.2,0-0.35-0.01-0.46-0.02c-0.08,0-0.17,0-0.27-0.01s-0.22,0-0.36,0.01c0-0.19-0.01-0.5-0.04-0.93
		C161.88,23.81,161.86,23.24,161.88,22.95z"/>
	<path d="M165.14,30.46c0-0.47,0.02-0.87,0.07-1.22c0.04-0.34,0.15-0.77,0.33-1.27c0.17-0.37,0.52-0.64,1.05-0.83
		s1.14-0.28,1.8-0.28c0.09,0.01,0.21,0.02,0.38,0.02l0.76-0.02c1.06,0,1.88,0.28,2.45,0.84c0.23,0.15,0.4,0.44,0.52,0.85
		c0.12,0.42,0.19,0.98,0.22,1.68c0.02,0.7,0.04,1.11,0.04,1.23c-0.05,1.27-0.11,2.27-0.18,3.02c-0.07,0.75-0.21,1.23-0.43,1.44
		c-0.24,0.34-0.57,0.58-1,0.7c-0.42,0.13-0.93,0.19-1.51,0.19c-0.23,0-0.57-0.01-1.03-0.04l-0.87-0.02
		c-0.75-0.13-1.31-0.4-1.68-0.82c-0.37-0.42-0.61-0.91-0.72-1.46c-0.11-0.56-0.16-1.23-0.16-2.01v-0.99
		C165.18,31.01,165.17,30.67,165.14,30.46z M169.02,28.65c-0.86,0-1.48,0.22-1.86,0.67c-0.17,0.2-0.27,0.46-0.31,0.77
		c-0.04,0.31-0.06,0.71-0.05,1.21c-0.01,0.19-0.01,0.44,0.01,0.76c0.02,0.32,0.03,0.56,0.03,0.74l0.04,0.8
		c0.04,0.51,0.18,0.86,0.43,1.07s0.56,0.35,0.94,0.43c0.25,0.04,0.51,0.06,0.78,0.06c0.49,0,0.92-0.09,1.29-0.27
		c0.37-0.18,0.6-0.47,0.7-0.87c0.05-0.33,0.08-0.59,0.08-0.78c0.06-0.89,0.1-1.49,0.1-1.8c0-0.84-0.15-1.51-0.46-2.01
		C170.42,28.91,169.86,28.65,169.02,28.65z"/>
	<path d="M175.69,27.19c0.03,0.14,0.04,0.32,0.04,0.53v0.48c0.43-0.25,0.94-0.48,1.52-0.67c0.58-0.2,1.17-0.29,1.75-0.29
		c0.7,0.03,1.27,0.22,1.71,0.59c0.3,0.27,0.46,1.35,0.46,3.25c0,0.48-0.01,1.23-0.04,2.24c-0.03,0.96-0.04,1.66-0.04,2.09
		c0,0.56,0.01,0.96,0.02,1.2c-0.24,0.04-0.59,0.06-1.04,0.06h-0.63c-0.03-0.2-0.04-0.56-0.04-1.06v-0.82l0.02-1.22
		c0.03-0.82,0.03-1.41,0.02-1.77c0-0.08-0.02-0.34-0.05-0.78s-0.1-0.84-0.22-1.18c-0.04-0.44-0.35-0.65-0.93-0.61
		c-0.87,0.01-1.52,0.13-1.93,0.36c-0.41,0.23-0.64,0.64-0.69,1.23c-0.01,0.17-0.02,0.48-0.02,0.93c0,0.71,0.01,1.47,0.04,2.28
		c0.02,0.48,0.04,0.84,0.04,1.06c0,0.47-0.02,0.95-0.06,1.44v0.08c-0.24,0.05-0.48,0.07-0.71,0.07c-0.24-0.01-0.4-0.01-0.5-0.01
		c-0.2,0-0.36,0.01-0.47,0.02l-0.02-3.27c-0.03-1.49-0.04-2.62-0.04-3.36c0-0.61,0.01-1.57,0.04-2.89c0.15,0.01,0.33,0.02,0.53,0.02
		c0.2,0,0.37-0.01,0.49-0.02c0.08,0,0.16-0.01,0.27-0.02c0.1-0.01,0.2-0.02,0.3-0.02C175.62,27.13,175.69,27.15,175.69,27.19z"/>
	<path d="M184.28,36.63l-1.44-0.02h-0.06c-0.04-0.23-0.06-0.52-0.06-0.87l0.02-0.93c0.01-0.11,0.02-0.25,0.02-0.4
		c0.23-0.09,0.53-0.13,0.91-0.13c0.35,0,0.61,0.03,0.76,0.1c0,0.06-0.02,0.41-0.06,1.03c-0.04,0.62-0.06,1.02-0.06,1.2v0.04H184.28z
		"/>
	<path d="M194.54,23.31c0.41,0.1,0.79,0.3,1.17,0.59c0.37,0.29,0.67,0.63,0.9,1.01c0.37,0.59,0.67,1.24,0.9,1.94
		c0.23,0.7,0.37,1.38,0.41,2.05l-0.04,0.86c-0.03,1.14-0.1,2.05-0.23,2.72c0,0.04-0.04,0.13-0.1,0.29c-0.07,0.15-0.14,0.31-0.2,0.47
		c-0.19,0.44-0.48,0.97-0.87,1.57c-0.39,0.6-0.81,1.18-1.25,1.74c-1.11,0.04-2.78,0.06-5,0.06l-0.02,0.02
		c-0.22-1.56-0.32-3.59-0.32-6.1c0-1.13,0.01-1.98,0.02-2.55l0.02-2.56c0-0.81-0.01-1.42-0.02-1.82l0.06-0.08
		c0.56-0.14,1.27-0.21,2.15-0.21c0.42,0,0.73,0.01,0.93,0.02C193.54,23.33,194.04,23.33,194.54,23.31z M192.83,34.18
		c0.62-0.01,1.07-0.05,1.34-0.1c0.27-0.06,0.48-0.15,0.62-0.28c0.14-0.13,0.34-0.37,0.61-0.72c0.37-0.48,0.65-1.29,0.84-2.41
		c0.03-0.3,0.04-0.53,0.04-0.68c0-0.15-0.01-0.38-0.04-0.68c-0.06-0.67-0.2-1.27-0.42-1.79c-0.21-0.52-0.47-0.93-0.76-1.24
		c-0.29-0.3-0.58-0.48-0.85-0.53c-0.33-0.03-0.54-0.04-0.65-0.04c-0.34-0.03-0.95,0-1.82,0.08h-0.09c0.05,0.35,0.08,1.03,0.08,2.01
		c0,0.81-0.01,1.5-0.04,2.05l-0.02,0.67c0,0.22,0.01,0.7,0.04,1.46l0.1,2.09C191.88,34.14,192.23,34.18,192.83,34.18z"/>
	<path d="M198.75,30.46c0-0.47,0.02-0.87,0.07-1.22c0.04-0.34,0.15-0.77,0.33-1.27c0.17-0.37,0.52-0.64,1.05-0.83
		s1.14-0.28,1.8-0.28c0.09,0.01,0.21,0.02,0.38,0.02l0.76-0.02c1.06,0,1.88,0.28,2.45,0.84c0.23,0.15,0.4,0.44,0.52,0.85
		s0.19,0.98,0.22,1.68s0.04,1.11,0.04,1.23c-0.05,1.27-0.11,2.27-0.18,3.02c-0.07,0.75-0.21,1.23-0.43,1.44
		c-0.24,0.34-0.57,0.58-1,0.7c-0.42,0.13-0.93,0.19-1.51,0.19c-0.23,0-0.57-0.01-1.03-0.04l-0.87-0.02
		c-0.75-0.13-1.31-0.4-1.68-0.82c-0.37-0.42-0.61-0.91-0.72-1.46c-0.11-0.56-0.16-1.23-0.16-2.01v-0.99
		C198.79,31.01,198.78,30.67,198.75,30.46z M202.63,28.65c-0.86,0-1.48,0.22-1.86,0.67c-0.17,0.2-0.27,0.46-0.31,0.77
		c-0.04,0.31-0.06,0.71-0.05,1.21c-0.01,0.19-0.01,0.44,0.01,0.76c0.02,0.32,0.03,0.56,0.03,0.74l0.04,0.8
		c0.04,0.51,0.18,0.86,0.43,1.07s0.56,0.35,0.94,0.43c0.25,0.04,0.51,0.06,0.78,0.06c0.49,0,0.92-0.09,1.29-0.27
		c0.37-0.18,0.6-0.47,0.7-0.87c0.05-0.33,0.08-0.59,0.08-0.78c0.06-0.89,0.09-1.49,0.09-1.8c0-0.84-0.15-1.51-0.46-2.01
		S203.47,28.65,202.63,28.65z"/>
	<path d="M1.96,49.93c0.22,0.01,0.54,0.02,0.99,0.02c0.43,0,0.73,0.01,0.91,0.04l0.68,2.6c0.47,1.79,0.83,3.13,1.08,4.04
		c0.25,0.91,0.46,1.51,0.63,1.81c0.19-0.23,0.41-0.85,0.67-1.86c0.25-1.01,0.56-2.36,0.91-4.03c0.04-0.15,0.13-0.58,0.28-1.27
		c0.15-0.7,0.25-1.13,0.31-1.29l0.74-0.02c0.46-0.03,0.83-0.03,1.12-0.02c-0.13,0.46-0.35,1.38-0.68,2.77l-0.34,1.42
		c-0.05,0.17-0.16,0.69-0.34,1.58c-0.33,1.53-0.67,2.76-1.04,3.7c-0.36,0.93-0.97,1.73-1.83,2.39s-2.06,1-3.61,1
		c-0.28,0-0.49-0.01-0.65-0.02c-0.1-0.27-0.15-0.6-0.15-0.99c0-0.29,0.03-0.53,0.08-0.72c0.41,0.03,0.7,0.04,0.87,0.04
		c1.44,0,2.17-0.37,2.17-1.12c0-0.06-0.01-0.16-0.04-0.29l-1.35-4.77C2.92,53.43,2.45,51.76,1.96,49.93z"/>
	<path d="M10.66,53.26c0-0.47,0.02-0.87,0.07-1.22c0.04-0.34,0.15-0.77,0.33-1.27c0.17-0.37,0.52-0.64,1.05-0.83s1.14-0.28,1.8-0.28
		c0.09,0.01,0.21,0.02,0.38,0.02l0.76-0.02c1.06,0,1.88,0.28,2.45,0.84c0.23,0.15,0.4,0.44,0.52,0.85c0.12,0.42,0.19,0.98,0.22,1.68
		c0.02,0.7,0.04,1.11,0.04,1.23c-0.05,1.27-0.11,2.27-0.18,3.02c-0.07,0.75-0.21,1.23-0.43,1.44c-0.24,0.34-0.57,0.58-1,0.7
		c-0.42,0.13-0.93,0.19-1.51,0.19c-0.23,0-0.57-0.01-1.03-0.04l-0.87-0.02c-0.75-0.13-1.31-0.4-1.68-0.82
		c-0.37-0.42-0.61-0.91-0.72-1.46c-0.11-0.56-0.16-1.23-0.16-2.01v-0.99C10.7,53.81,10.68,53.47,10.66,53.26z M14.53,51.45
		c-0.86,0-1.48,0.22-1.86,0.67c-0.17,0.2-0.27,0.46-0.31,0.77c-0.04,0.31-0.06,0.71-0.05,1.21c-0.01,0.19-0.01,0.44,0.01,0.76
		c0.02,0.32,0.03,0.56,0.03,0.74l0.04,0.8c0.04,0.51,0.18,0.86,0.43,1.07s0.56,0.35,0.94,0.43c0.25,0.04,0.51,0.06,0.78,0.06
		c0.49,0,0.92-0.09,1.29-0.27c0.37-0.18,0.6-0.47,0.7-0.87c0.05-0.33,0.08-0.59,0.08-0.78c0.06-0.89,0.1-1.49,0.1-1.8
		c0-0.84-0.15-1.51-0.46-2.01C15.94,51.71,15.37,51.45,14.53,51.45z"/>
	<path d="M24.91,59.43c-0.01-0.24-0.02-0.44-0.02-0.6s-0.01-0.29-0.02-0.41c-0.03,0.01-0.13,0.08-0.3,0.21
		c-0.18,0.13-0.46,0.23-0.86,0.32c-0.73,0.27-1.45,0.4-2.15,0.4c-0.79,0-1.38-0.19-1.77-0.57c-0.21-0.19-0.35-0.51-0.4-0.96
		c-0.05-0.45-0.08-1.17-0.1-2.16v-0.59c0-0.39,0.01-0.97,0.04-1.73c0.04-0.76,0.06-1.48,0.06-2.17c0-0.33-0.01-0.73-0.04-1.22
		c0.23-0.03,0.54-0.04,0.93-0.04h0.63c0.04,0.38,0.06,0.83,0.06,1.35l-0.02,1.54c0,0.51,0.01,0.87,0.02,1.1l0.02,0.53
		c0,0.46,0.02,0.99,0.06,1.6c0.03,0.42,0.11,0.73,0.26,0.95c0.15,0.21,0.36,0.36,0.66,0.44c0.25,0.04,0.49,0.06,0.7,0.06
		c0.75,0,1.32-0.2,1.72-0.61c0.4-0.41,0.6-0.96,0.62-1.65c0.01-0.46-0.01-1.29-0.06-2.49c-0.03-0.61-0.04-1.01-0.04-1.2
		c0-0.34,0.01-0.83,0.04-1.46v-0.08c0.2-0.05,0.4-0.08,0.58-0.09s0.29-0.02,0.33-0.02c0.27,0,0.49-0.01,0.68-0.02l0.02,3.27
		c0.02,1.5,0.04,2.62,0.04,3.36c0,0.61-0.01,1.57-0.04,2.89c-0.28,0-0.59,0.02-0.93,0.06c-0.06,0-0.14,0.01-0.24,0.02
		s-0.19,0.02-0.29,0.02C24.97,59.49,24.91,59.47,24.91,59.43z"/>
	<path d="M33.46,49.25v1.69c0.34-0.29,0.64-0.51,0.9-0.66s0.64-0.24,1.15-0.28c0.3-0.04,0.59-0.06,0.85-0.06
		c0.92,0,1.65,0.22,2.17,0.67c0.17,0.14,0.28,0.47,0.34,0.99c0.06,0.52,0.09,1.2,0.09,2.05c0,0.48-0.01,1.24-0.04,2.28
		c-0.03,1.01-0.04,1.74-0.04,2.17c0,0.35,0.01,0.79,0.04,1.29c-0.51,0.08-1.05,0.1-1.63,0.08c-0.03-0.38-0.04-0.71-0.04-0.99v-1.14
		v-3.72c-0.03-0.81-0.22-1.34-0.57-1.58c-0.08-0.05-0.23-0.1-0.46-0.15c-0.27-0.08-0.54-0.11-0.82-0.11c-0.49,0-0.92,0.12-1.26,0.37
		c-0.35,0.25-0.57,0.63-0.67,1.15c-0.09,0.48-0.13,1.06-0.13,1.73l0.02,0.65c0.03,0.84,0.04,1.53,0.04,2.07
		c0,0.68-0.01,1.21-0.04,1.58v0.08c-0.25,0.06-0.46,0.09-0.61,0.09l-0.57-0.02c-0.18,0-0.32,0.01-0.44,0.02
		c0-1.46-0.01-2.66-0.02-3.61l-0.02-5.81c0-1.42,0.01-2.88,0.04-4.37c0.39,0.04,0.71,0.05,0.95,0.04c0.06,0,0.14-0.01,0.24-0.02
		c0.09-0.01,0.19-0.02,0.29-0.02c0.13,0,0.19,0.02,0.19,0.06c0.03,0.11,0.04,0.89,0.04,2.32V49.25z"/>
	<path d="M46.3,49.89c0.29-0.01,0.67,0,1.12,0.04l0.49,0.04c0.03,0.2,0.04,0.35,0.04,0.46v0.19c-0.01,0.29-0.02,0.73-0.02,1.31
		c0,0.48,0.01,1.19,0.04,2.13l0.02,2.13c0,0.91-0.03,1.74-0.08,2.49c0,0.04,0,0.12,0,0.25c0,0.13-0.01,0.24-0.04,0.34
		c-0.03,0.1-0.1,0.17-0.21,0.19h-0.32l-0.61-0.02c-0.1,0-0.19,0.01-0.27,0.02s-0.15,0.02-0.21,0.02c-0.13-0.04-0.19-0.18-0.19-0.42
		c-0.01-0.1-0.01-0.22,0.01-0.34c0.02-0.13,0.03-0.23,0.03-0.32c-0.3,0.42-0.79,0.7-1.44,0.85c-0.66,0.15-1.3,0.23-1.94,0.23
		c-0.61,0-1.12-0.27-1.55-0.81c-0.42-0.54-0.74-1.2-0.94-1.99c-0.2-0.79-0.3-1.55-0.3-2.3c0-0.82,0.14-1.56,0.42-2.22
		c0.28-0.66,0.66-1.18,1.15-1.57c0.49-0.39,1.03-0.59,1.62-0.6l0.61-0.02c0.57,0,1.04,0.07,1.42,0.2c0.37,0.13,0.65,0.38,0.83,0.73
		c0-0.11,0.01-0.26,0.04-0.44c0.03-0.25,0.04-0.43,0.04-0.53C46.05,49.91,46.14,49.89,46.3,49.89z M44.17,51.6
		c-0.66-0.01-1.21,0.16-1.66,0.5s-0.72,0.76-0.83,1.24c-0.1,0.37-0.15,0.86-0.15,1.48c0.06,2.04,0.89,3.01,2.47,2.93
		c0.65,0,1.12-0.11,1.41-0.34c0.29-0.23,0.47-0.55,0.54-0.97c0.07-0.42,0.1-1.04,0.1-1.88c0-0.91-0.04-1.55-0.11-1.93
		c-0.08-0.37-0.24-0.63-0.48-0.77C45.21,51.73,44.78,51.64,44.17,51.6z"/>
	<path d="M48.83,49.93c0.19,0.03,0.46,0.04,0.8,0.04c0.11,0,0.25,0,0.41-0.01c0.16-0.01,0.33,0,0.52,0.01
		c0.2,0.71,0.58,2.06,1.12,4.05c0.27,1,0.46,1.72,0.59,2.17c0.13,0.44,0.28,0.87,0.46,1.29c0.11-0.28,0.25-0.7,0.42-1.27
		c0.16-0.57,0.27-0.94,0.32-1.12c0.62-2.12,1.15-3.81,1.6-5.07c0.11,0,0.3-0.01,0.55-0.04c0.46-0.03,0.84-0.03,1.14-0.02
		c-0.25,0.67-0.49,1.37-0.7,2.08c-0.22,0.72-0.42,1.42-0.61,2.12c-0.61,2.1-1.15,3.86-1.63,5.26c-0.2,0.04-0.53,0.06-0.97,0.06
		l-1.37-0.02c-0.56-1.77-0.97-3.12-1.23-4.04c-0.26-0.92-0.52-1.93-0.79-3.03L48.83,49.93z"/>
	<path d="M58.61,54.62v0.34l-0.02,0.55c0,1.57,0.77,2.36,2.32,2.36c0.62,0,1.08-0.14,1.38-0.43s0.45-0.67,0.45-1.17
		c0-0.08-0.01-0.21-0.04-0.42c0.27-0.04,0.51-0.06,0.74-0.06c0.2,0,0.35,0.01,0.46,0.02c0.08,0,0.17,0,0.28,0.01
		c0.11,0.01,0.23,0,0.37-0.01c0.01,0.72-0.01,1.3-0.08,1.73s-0.22,0.84-0.46,1.23c-0.23,0.34-0.62,0.59-1.19,0.73
		s-1.18,0.22-1.85,0.22c-0.3,0-0.59-0.01-0.85-0.04s-0.42-0.05-0.48-0.08c-0.99-0.17-1.7-0.79-2.15-1.87
		c-0.44-1.08-0.63-2.32-0.57-3.71c0.01-0.1,0.03-0.31,0.06-0.64c0.03-0.32,0.06-0.66,0.1-1s0.13-0.68,0.26-1.01
		c0.24-0.56,0.68-0.99,1.31-1.29c0.63-0.3,1.34-0.46,2.11-0.46c0.41,0,0.83,0.05,1.27,0.15c1.72,0.29,2.58,1.59,2.58,3.89
		c0,0.19-0.01,0.46-0.04,0.82c-0.24,0.08-0.95,0.14-2.13,0.19c-0.14,0.01-0.44,0.02-0.91,0.02c-1,0-1.74-0.01-2.22-0.04
		C59,54.68,58.77,54.66,58.61,54.62z M63.23,53.2c-0.01-0.39-0.11-0.78-0.29-1.16c-0.18-0.38-0.45-0.68-0.79-0.89
		c-0.19-0.09-0.35-0.15-0.49-0.17s-0.32-0.04-0.53-0.04c-0.82,0-1.41,0.17-1.76,0.51c-0.35,0.34-0.57,0.83-0.66,1.46
		c-0.03,0.15-0.04,0.25-0.04,0.3c0,0.15,0.07,0.25,0.22,0.3c0.14,0.05,0.46,0.08,0.94,0.08c0.47,0,0.87-0.01,1.2-0.02
		c1.22,0,1.9-0.01,2.05-0.02c0.06-0.01,0.1-0.03,0.12-0.05c0.02-0.02,0.03-0.05,0.03-0.1V53.2z"/>
	<path d="M74.61,63.23c-0.13,0.03-0.36,0.03-0.68,0.02c-0.33-0.01-0.75-0.02-1.27-0.02c-0.6,0-1.13-0.13-1.6-0.38
		c-0.47-0.25-0.85-0.6-1.14-1.03c-0.05-0.09-0.1-0.21-0.14-0.35c-0.04-0.15-0.08-0.29-0.11-0.45c-0.03-0.15-0.05-0.3-0.06-0.44
		c-0.01-0.14,0-0.26,0.01-0.36c0.13-0.05,0.3-0.08,0.51-0.1c0.21-0.02,0.44-0.03,0.67-0.02c0.23,0.01,0.46,0.02,0.68,0.04
		c0.22,0.02,0.41,0.04,0.56,0.07c0,0.33,0.1,0.59,0.31,0.79s0.44,0.31,0.7,0.33c0.26,0.02,0.51-0.04,0.76-0.19s0.41-0.41,0.48-0.76
		c0.01-0.13,0.03-0.26,0.04-0.39s0.01-0.25,0-0.35c-0.03-0.21-0.03-0.44,0-0.67c-0.13,0.14-0.28,0.24-0.45,0.3
		c-0.17,0.06-0.35,0.11-0.55,0.13c-0.2,0.02-0.4,0.04-0.6,0.04c-0.2,0-0.39,0.01-0.57,0.02c-0.24,0-0.48-0.02-0.73-0.06
		c-0.25-0.04-0.48-0.1-0.7-0.19s-0.42-0.21-0.6-0.36c-0.18-0.15-0.32-0.35-0.44-0.59c-0.18-0.34-0.3-0.7-0.38-1.07
		s-0.13-0.76-0.15-1.15c0-0.6,0.01-1.24,0.04-1.92c0.03-0.68,0.14-1.33,0.33-1.93c0.2-0.6,0.51-1.11,0.94-1.52
		c0.43-0.41,1.05-0.64,1.86-0.69c0.41-0.02,0.78,0.03,1.13,0.16s0.6,0.38,0.75,0.73c0.05,0.03,0.08,0,0.08-0.07s0.01-0.16,0-0.27
		c-0.01-0.11-0.01-0.21-0.02-0.32c-0.01-0.11,0.01-0.19,0.05-0.26c0.42-0.05,0.84-0.07,1.27-0.05c0.43,0.02,0.86,0.03,1.29,0.03
		c0.05,1.58,0.08,3.24,0.08,4.97c0.01,1.73-0.03,3.51-0.1,5.33c-0.01,0.3-0.01,0.6,0,0.9c0.01,0.3-0.04,0.55-0.17,0.75
		c-0.18,0.28-0.36,0.5-0.54,0.67c-0.18,0.17-0.36,0.29-0.54,0.39c-0.18,0.09-0.35,0.16-0.53,0.2
		C74.93,63.19,74.76,63.22,74.61,63.23z M71.32,54.93v0.17c0,0.65,0.19,1.2,0.57,1.65c0.23,0.28,0.53,0.45,0.91,0.5
		c0.38,0.06,0.73,0.04,1.06-0.07c0.11-0.04,0.2-0.1,0.27-0.18c0.06-0.08,0.11-0.18,0.15-0.28c0.04-0.11,0.07-0.22,0.08-0.34
		c0.02-0.12,0.04-0.24,0.05-0.35c0-0.51-0.01-1.02-0.03-1.55c-0.02-0.53-0.09-1.03-0.22-1.51c-0.08-0.19-0.2-0.34-0.37-0.45
		s-0.36-0.17-0.56-0.2c-0.2-0.02-0.4-0.01-0.6,0.05s-0.37,0.15-0.52,0.28c-0.19,0.22-0.35,0.45-0.48,0.71s-0.23,0.54-0.28,0.83
		c-0.03,0.13-0.04,0.25-0.04,0.37C71.32,54.68,71.32,54.8,71.32,54.93z"/>
	<path d="M78.49,50.77c0.09-0.19,0.23-0.35,0.43-0.49c0.2-0.14,0.42-0.26,0.68-0.35c0.26-0.09,0.54-0.16,0.84-0.2s0.6-0.06,0.9-0.06
		c0.25,0.03,0.5,0.03,0.73,0.01c0.23-0.02,0.48-0.02,0.75,0.01c0.41,0.03,0.79,0.1,1.16,0.24c0.37,0.13,0.68,0.33,0.95,0.58
		c0.18,0.11,0.32,0.3,0.42,0.55c0.1,0.25,0.18,0.55,0.23,0.88c0.05,0.33,0.08,0.7,0.09,1.1s0.03,0.81,0.04,1.23
		c-0.01,0.37-0.03,0.79-0.05,1.25c-0.02,0.47-0.05,0.92-0.09,1.35c-0.04,0.43-0.1,0.82-0.17,1.16s-0.17,0.58-0.29,0.7
		c-0.21,0.3-0.5,0.52-0.84,0.65c-0.35,0.13-0.73,0.21-1.13,0.24c-0.41,0.03-0.82,0.03-1.25,0c-0.43-0.03-0.82-0.05-1.18-0.05
		c-0.65-0.11-1.19-0.39-1.63-0.84c-0.34-0.3-0.58-0.68-0.7-1.14c-0.13-0.46-0.2-0.93-0.23-1.43s-0.03-1-0.01-1.51
		c0.02-0.51,0.01-0.97-0.03-1.39c0-0.23,0.01-0.45,0.02-0.67c0.01-0.22,0.04-0.45,0.08-0.69c0.01-0.14,0.06-0.33,0.13-0.56
		C78.39,51.09,78.45,50.91,78.49,50.77z M80.86,53.01c-0.08,0.05-0.13,0.18-0.17,0.38c-0.05,0.41-0.08,0.81-0.08,1.21
		c0,0.4-0.01,0.82-0.04,1.26c-0.01,0.29,0.06,0.52,0.23,0.67c0.17,0.16,0.36,0.27,0.6,0.32c0.23,0.06,0.48,0.07,0.73,0.04
		c0.25-0.03,0.46-0.09,0.63-0.18c0.22-0.1,0.36-0.31,0.44-0.63c0.05-0.41,0.09-0.81,0.12-1.23c0.03-0.41,0.01-0.8-0.07-1.17
		c-0.06-0.44-0.25-0.77-0.55-0.97c-0.3-0.2-0.7-0.25-1.2-0.13C81.24,52.67,81.03,52.81,80.86,53.01z"/>
	<path d="M87,50.77c0.09-0.19,0.23-0.35,0.43-0.49c0.2-0.14,0.42-0.26,0.68-0.35c0.26-0.09,0.54-0.16,0.84-0.2
		c0.3-0.04,0.6-0.06,0.9-0.06c0.25,0.03,0.5,0.03,0.73,0.01c0.23-0.02,0.48-0.02,0.75,0.01c0.41,0.03,0.79,0.1,1.16,0.24
		s0.68,0.33,0.95,0.58c0.18,0.11,0.32,0.3,0.42,0.55c0.1,0.25,0.18,0.55,0.23,0.88c0.05,0.33,0.08,0.7,0.1,1.1
		c0.01,0.4,0.02,0.81,0.04,1.23c-0.01,0.37-0.03,0.79-0.05,1.25c-0.02,0.47-0.05,0.92-0.09,1.35c-0.04,0.43-0.1,0.82-0.17,1.16
		c-0.07,0.34-0.17,0.58-0.29,0.7c-0.22,0.3-0.5,0.52-0.85,0.65c-0.35,0.13-0.73,0.21-1.13,0.24c-0.41,0.03-0.82,0.03-1.25,0
		c-0.43-0.03-0.82-0.05-1.18-0.05c-0.65-0.11-1.19-0.39-1.63-0.84c-0.34-0.3-0.58-0.68-0.7-1.14s-0.2-0.93-0.23-1.43
		c-0.03-0.5-0.03-1-0.01-1.51c0.02-0.51,0.01-0.97-0.03-1.39c0-0.23,0.01-0.45,0.02-0.67s0.04-0.45,0.08-0.69
		c0.01-0.14,0.06-0.33,0.13-0.56S86.96,50.91,87,50.77z M89.37,53.01c-0.08,0.05-0.13,0.18-0.17,0.38
		c-0.05,0.41-0.08,0.81-0.08,1.21c0,0.4-0.01,0.82-0.04,1.26c-0.01,0.29,0.06,0.52,0.23,0.67c0.16,0.16,0.36,0.27,0.6,0.32
		c0.23,0.06,0.48,0.07,0.73,0.04c0.25-0.03,0.46-0.09,0.63-0.18c0.21-0.1,0.36-0.31,0.44-0.63c0.05-0.41,0.09-0.81,0.12-1.23
		c0.03-0.41,0.01-0.8-0.07-1.17c-0.06-0.44-0.25-0.77-0.55-0.97c-0.3-0.2-0.7-0.25-1.2-0.13C89.75,52.67,89.54,52.81,89.37,53.01z"
		/>
	<path d="M100.3,46.28v-0.21c0-0.01,0.09-0.03,0.26-0.05c0.17-0.02,0.38-0.03,0.63-0.04s0.51-0.01,0.79,0s0.52,0.03,0.72,0.07v1.25
		c0,2.12,0.03,4.21,0.09,6.27s0.07,4.01,0.02,5.83c-0.39,0-0.82,0.01-1.29,0.03c-0.47,0.02-0.89,0-1.27-0.05
		c-0.01-0.03-0.02-0.07-0.02-0.13c0-0.13,0-0.23-0.01-0.3c-0.01-0.08-0.01-0.18-0.01-0.32c-0.03-0.06-0.05-0.11-0.09-0.14
		c-0.03-0.03-0.07-0.01-0.1,0.07c-0.19,0.38-0.44,0.62-0.76,0.73s-0.65,0.14-1.01,0.09c-0.72-0.05-1.29-0.24-1.71-0.56
		c-0.42-0.32-0.73-0.73-0.94-1.24c-0.21-0.5-0.35-1.06-0.42-1.68c-0.07-0.62-0.11-1.25-0.12-1.88c0-0.44,0.03-0.87,0.09-1.29
		s0.15-0.8,0.27-1.15s0.28-0.65,0.48-0.89c0.2-0.25,0.43-0.42,0.71-0.52c0.34-0.13,0.72-0.21,1.13-0.24c0.41-0.03,0.8-0.03,1.17,0
		c0.37,0.03,0.68,0.09,0.93,0.18c0.25,0.09,0.39,0.19,0.42,0.3c-0.01-0.59-0.02-1.08-0.02-1.44s0-0.66,0-0.88s0-0.39,0.01-0.51
		c0.01-0.12,0.01-0.23,0.02-0.34c0.01-0.11,0.01-0.23,0.02-0.36C100.28,46.73,100.29,46.54,100.3,46.28z M97.35,53.45
		c-0.06,0.18-0.1,0.36-0.11,0.55c-0.01,0.19-0.02,0.37-0.02,0.55c0,0.32,0.04,0.62,0.11,0.92c0.08,0.3,0.19,0.56,0.34,0.8
		c0.15,0.23,0.34,0.42,0.55,0.56c0.22,0.14,0.46,0.21,0.72,0.21c0.32,0,0.57-0.07,0.75-0.21c0.18-0.14,0.32-0.33,0.42-0.57
		c0.1-0.24,0.15-0.53,0.17-0.86c0.02-0.34,0.03-0.71,0.03-1.11c0-0.49-0.01-0.88-0.03-1.17c-0.02-0.29-0.07-0.5-0.14-0.66
		c-0.08-0.15-0.19-0.25-0.35-0.29c-0.16-0.04-0.37-0.07-0.64-0.07c-0.52,0-0.93,0.11-1.25,0.34C97.6,52.67,97.42,53,97.35,53.45z"/>
	<path d="M110.43,50.96c0.06-0.04,0.14-0.08,0.24-0.13c0.09-0.05,0.17-0.1,0.24-0.15c0.27-0.19,0.56-0.34,0.89-0.46
		c0.33-0.11,0.67-0.18,1.02-0.19c0.35-0.01,0.69,0.03,1.02,0.11c0.33,0.09,0.63,0.25,0.89,0.47c0.13,0.11,0.22,0.35,0.29,0.71
		c0.07,0.36,0.11,0.79,0.13,1.3c0.02,0.51,0.03,1.06,0.02,1.66s-0.02,1.21-0.03,1.82s-0.03,1.21-0.04,1.78s-0.01,1.07,0.02,1.5
		c-0.44,0.06-0.84,0.09-1.19,0.09c-0.35-0.01-0.75-0.01-1.19-0.01c-0.03-0.29-0.04-0.62-0.04-0.99c0-0.37,0-0.75,0.01-1.14
		c0.01-0.39,0.01-0.79,0-1.18c-0.01-0.39-0.02-0.76-0.05-1.1c-0.01-0.15-0.03-0.32-0.04-0.5s-0.04-0.36-0.07-0.54
		c-0.03-0.18-0.08-0.33-0.13-0.47c-0.06-0.14-0.14-0.25-0.24-0.32c-0.01-0.01-0.03-0.02-0.04-0.02s-0.03-0.01-0.04-0.02
		c-0.1-0.05-0.25-0.09-0.45-0.12c-0.2-0.03-0.39-0.02-0.58,0.04c-0.19,0.06-0.36,0.17-0.51,0.34c-0.15,0.17-0.24,0.43-0.27,0.77
		c-0.03,0.44-0.03,0.88-0.02,1.3c0.01,0.42,0.03,0.85,0.05,1.27c0.02,0.42,0.03,0.85,0.03,1.26s-0.03,0.84-0.08,1.25v0.08
		c-0.22,0.06-0.4,0.1-0.56,0.11c-0.16,0.01-0.32,0.02-0.48,0.01c-0.17-0.01-0.35-0.02-0.55-0.03c-0.2-0.01-0.46-0.01-0.76,0.02
		c0-0.52,0-1.14-0.01-1.87c-0.01-0.73-0.01-1.51-0.02-2.35c-0.01-0.84-0.01-1.7-0.01-2.59c0-0.89,0-1.76,0-2.61s0-1.65,0.01-2.4
		c0.01-0.75,0.02-1.41,0.03-1.97c0.15,0.01,0.28,0.02,0.38,0.03c0.1,0.01,0.2,0.01,0.29,0.01s0.18,0,0.29-0.01
		c0.1-0.01,0.23-0.02,0.38-0.03c0.05,0,0.14-0.01,0.27-0.03c0.13-0.02,0.25-0.03,0.38-0.05c0.13-0.01,0.24-0.02,0.34-0.01
		c0.1,0.01,0.15,0.03,0.15,0.07c0.01,0.06,0.02,0.23,0.02,0.5c0,0.27,0,0.6,0,0.97c0,0.37,0,0.77,0,1.2c0,0.42,0,0.82,0,1.19
		c0,0.37,0,0.68,0,0.95C110.43,50.75,110.43,50.91,110.43,50.96z"/>
	<path d="M118.77,49.88h0.32v0.06c-0.01,1.53-0.04,3.1-0.09,4.69c-0.04,1.6-0.02,3.16,0.07,4.69c-0.06,0.08-0.22,0.12-0.47,0.12
		c-0.25,0.01-0.53,0.01-0.83,0c-0.3-0.01-0.58-0.02-0.84-0.03c-0.27-0.01-0.44-0.01-0.53,0.02c0.06-0.8,0.09-1.61,0.08-2.43
		c-0.01-0.82-0.02-1.64-0.05-2.45s-0.04-1.61-0.04-2.4c0-0.79,0.04-1.56,0.11-2.31v-0.02c0.05-0.01,0.14-0.01,0.26,0
		s0.21,0.02,0.28,0.02c0.17,0.01,0.39,0.03,0.68,0.04C118.01,49.89,118.36,49.89,118.77,49.88z M116.43,45.73l2.58,0.06
		c0,0.08,0,0.21,0.01,0.41c0.01,0.2,0.01,0.41,0.02,0.65c0.01,0.24,0.01,0.48,0.02,0.72c0.01,0.25,0.01,0.46,0.01,0.66
		c-0.05,0.08-0.17,0.13-0.35,0.15s-0.4,0.03-0.65,0.03c-0.25-0.01-0.51-0.02-0.79-0.04c-0.28-0.02-0.54-0.02-0.78-0.01
		c0-0.37-0.02-0.75-0.05-1.15C116.43,46.81,116.42,46.32,116.43,45.73z"/>
	<path d="M123,45.64v4.16c0,0.42-0.01,0.86-0.03,1.33c-0.02,0.47-0.01,0.85,0.03,1.14c0.21-0.19,0.4-0.4,0.56-0.63
		c0.16-0.23,0.31-0.46,0.45-0.69s0.28-0.47,0.43-0.71c0.15-0.24,0.31-0.47,0.5-0.68c0.16,0.06,0.38,0.1,0.65,0.1
		c0.27,0.01,0.54,0.01,0.83,0c0.29-0.01,0.57-0.02,0.85-0.04s0.51-0.02,0.68-0.01c-0.47,0.72-0.98,1.43-1.52,2.14
		s-1.08,1.41-1.62,2.12c0.57,0.92,1.14,1.84,1.72,2.75s1.11,1.85,1.59,2.82c-0.18,0-0.4,0.01-0.67,0.03
		c-0.27,0.02-0.55,0.04-0.85,0.05c-0.29,0.01-0.57,0.01-0.85,0s-0.5-0.04-0.69-0.08c-0.19-0.3-0.36-0.61-0.52-0.93
		s-0.31-0.63-0.46-0.94c-0.15-0.31-0.31-0.62-0.48-0.92c-0.17-0.3-0.37-0.6-0.58-0.87c0,0.23,0.01,0.49,0.02,0.8
		c0.01,0.3,0.02,0.62,0.02,0.95s-0.01,0.66-0.02,1c-0.01,0.34-0.04,0.64-0.1,0.92c-0.14-0.01-0.31-0.02-0.52-0.01
		c-0.21,0.01-0.43,0.02-0.66,0.03s-0.46,0.02-0.69,0.02s-0.45-0.01-0.64-0.04c-0.09-2.36-0.11-4.67-0.06-6.93
		c0.05-2.27,0.07-4.55,0.06-6.86c0.19,0,0.4,0,0.64-0.01c0.23-0.01,0.47-0.01,0.7-0.02c0.23-0.01,0.46-0.01,0.67-0.01
		C122.65,45.6,122.84,45.61,123,45.64z"/>
	<path d="M130.96,49.88h0.32v0.06c-0.01,1.53-0.04,3.1-0.09,4.69c-0.04,1.6-0.02,3.16,0.07,4.69c-0.06,0.08-0.22,0.12-0.48,0.12
		c-0.25,0.01-0.53,0.01-0.83,0c-0.3-0.01-0.58-0.02-0.85-0.03s-0.44-0.01-0.53,0.02c0.06-0.8,0.09-1.61,0.09-2.43
		c-0.01-0.82-0.02-1.64-0.05-2.45s-0.04-1.61-0.04-2.4c0-0.79,0.04-1.56,0.11-2.31v-0.02c0.05-0.01,0.14-0.01,0.26,0
		c0.12,0.01,0.21,0.02,0.28,0.02c0.16,0.01,0.39,0.03,0.68,0.04S130.56,49.89,130.96,49.88z M128.63,45.73l2.58,0.06
		c0,0.08,0,0.21,0.01,0.41c0.01,0.2,0.01,0.41,0.02,0.65c0.01,0.24,0.01,0.48,0.02,0.72c0.01,0.25,0.01,0.46,0.01,0.66
		c-0.05,0.08-0.17,0.13-0.35,0.15c-0.18,0.03-0.4,0.03-0.65,0.03c-0.25-0.01-0.51-0.02-0.79-0.04c-0.28-0.02-0.54-0.02-0.78-0.01
		c0-0.37-0.02-0.75-0.05-1.15C128.62,46.81,128.61,46.32,128.63,45.73z"/>
	<path d="M135.11,50.96c0.06-0.04,0.14-0.08,0.24-0.13c0.09-0.05,0.17-0.1,0.24-0.15c0.27-0.19,0.56-0.34,0.89-0.46
		s0.67-0.18,1.02-0.19c0.35-0.01,0.69,0.03,1.02,0.11c0.33,0.09,0.63,0.25,0.89,0.47c0.13,0.11,0.22,0.35,0.29,0.71
		c0.07,0.36,0.11,0.79,0.13,1.3c0.02,0.51,0.03,1.06,0.02,1.66c-0.01,0.6-0.02,1.21-0.03,1.82s-0.03,1.21-0.04,1.78
		s-0.01,1.07,0.02,1.5c-0.44,0.06-0.84,0.09-1.19,0.09c-0.35-0.01-0.74-0.01-1.19-0.01c-0.03-0.29-0.04-0.62-0.04-0.99
		c0-0.37,0-0.75,0.01-1.14c0.01-0.39,0.01-0.79,0-1.18c-0.01-0.39-0.02-0.76-0.05-1.1c-0.01-0.15-0.03-0.32-0.04-0.5
		s-0.04-0.36-0.07-0.54c-0.03-0.18-0.08-0.33-0.13-0.47s-0.14-0.25-0.24-0.32c-0.01-0.01-0.03-0.02-0.04-0.02s-0.03-0.01-0.04-0.02
		c-0.1-0.05-0.25-0.09-0.45-0.12c-0.2-0.03-0.39-0.02-0.58,0.04c-0.19,0.06-0.36,0.17-0.51,0.34s-0.24,0.43-0.27,0.77
		c-0.03,0.44-0.03,0.88-0.02,1.3c0.01,0.42,0.03,0.85,0.05,1.27c0.02,0.42,0.03,0.85,0.03,1.26s-0.03,0.84-0.08,1.25v0.08
		c-0.22,0.06-0.4,0.1-0.56,0.11s-0.32,0.02-0.48,0.01c-0.17-0.01-0.35-0.02-0.55-0.03c-0.2-0.01-0.46-0.01-0.76,0.02
		c0-1.56-0.02-3.12-0.05-4.67c-0.03-1.56-0.02-3.17,0.03-4.84c0.15,0.01,0.28,0.02,0.38,0.03c0.1,0.01,0.2,0.01,0.29,0.01
		s0.18,0,0.29-0.01c0.1-0.01,0.23-0.02,0.38-0.03c0.05,0,0.14-0.01,0.27-0.03c0.13-0.02,0.25-0.04,0.38-0.05
		c0.13-0.01,0.24-0.02,0.34-0.01c0.1,0.01,0.15,0.03,0.15,0.07c0.03,0.22,0.04,0.39,0.03,0.53
		C135.09,50.62,135.09,50.78,135.11,50.96z"/>
	<path d="M146.3,63.23c-0.13,0.03-0.36,0.03-0.68,0.02c-0.33-0.01-0.75-0.02-1.27-0.02c-0.6,0-1.13-0.13-1.6-0.38
		c-0.47-0.25-0.85-0.6-1.14-1.03c-0.05-0.09-0.1-0.21-0.14-0.35c-0.04-0.15-0.08-0.29-0.11-0.45c-0.03-0.15-0.05-0.3-0.06-0.44
		c-0.01-0.14,0-0.26,0.01-0.36c0.13-0.05,0.3-0.08,0.51-0.1c0.21-0.02,0.44-0.03,0.67-0.02c0.23,0.01,0.46,0.02,0.68,0.04
		c0.22,0.02,0.41,0.04,0.56,0.07c0,0.33,0.1,0.59,0.31,0.79s0.44,0.31,0.7,0.33c0.26,0.02,0.51-0.04,0.76-0.19s0.41-0.41,0.48-0.76
		c0.01-0.13,0.03-0.26,0.04-0.39s0.01-0.25,0-0.35c-0.03-0.21-0.03-0.44,0-0.67c-0.13,0.14-0.28,0.24-0.45,0.3
		c-0.17,0.06-0.35,0.11-0.55,0.13c-0.2,0.02-0.4,0.04-0.6,0.04c-0.2,0-0.39,0.01-0.57,0.02c-0.24,0-0.48-0.02-0.73-0.06
		c-0.25-0.04-0.48-0.1-0.7-0.19s-0.42-0.21-0.6-0.36c-0.18-0.15-0.32-0.35-0.44-0.59c-0.18-0.34-0.3-0.7-0.38-1.07
		s-0.13-0.76-0.15-1.15c0-0.6,0.01-1.24,0.04-1.92c0.03-0.68,0.14-1.33,0.33-1.93c0.2-0.6,0.51-1.11,0.94-1.52
		c0.43-0.41,1.05-0.64,1.86-0.69c0.41-0.02,0.78,0.03,1.13,0.16s0.6,0.38,0.75,0.73c0.05,0.03,0.08,0,0.08-0.07s0.01-0.16,0-0.27
		c-0.01-0.11-0.01-0.21-0.02-0.32c-0.01-0.11,0.01-0.19,0.05-0.26c0.42-0.05,0.84-0.07,1.27-0.05c0.43,0.02,0.86,0.03,1.29,0.03
		c0.05,1.58,0.08,3.24,0.08,4.97c0.01,1.73-0.03,3.51-0.1,5.33c-0.01,0.3-0.01,0.6,0,0.9c0.01,0.3-0.04,0.55-0.17,0.75
		c-0.18,0.28-0.36,0.5-0.54,0.67c-0.18,0.17-0.36,0.29-0.54,0.39c-0.18,0.09-0.35,0.16-0.53,0.2
		C146.61,63.19,146.45,63.22,146.3,63.23z M143.01,54.93v0.17c0,0.65,0.19,1.2,0.57,1.65c0.23,0.28,0.53,0.45,0.91,0.5
		c0.38,0.06,0.73,0.04,1.06-0.07c0.11-0.04,0.2-0.1,0.27-0.18c0.06-0.08,0.11-0.18,0.15-0.28c0.04-0.11,0.07-0.22,0.08-0.34
		c0.02-0.12,0.04-0.24,0.05-0.35c0-0.51-0.01-1.02-0.03-1.55c-0.02-0.53-0.09-1.03-0.22-1.51c-0.08-0.19-0.2-0.34-0.37-0.45
		s-0.36-0.17-0.56-0.2c-0.2-0.02-0.4-0.01-0.6,0.05s-0.37,0.15-0.52,0.28c-0.19,0.22-0.35,0.45-0.48,0.71s-0.23,0.54-0.28,0.83
		c-0.03,0.13-0.04,0.25-0.04,0.37C143.01,54.68,143.01,54.8,143.01,54.93z"/>
	<path d="M161.4,52.86c-0.41,0.06-0.85,0.1-1.34,0.11c-0.49,0.01-0.95-0.03-1.38-0.11c0.04-0.15,0.02-0.3-0.05-0.46
		c-0.07-0.15-0.17-0.29-0.3-0.4c-0.13-0.11-0.29-0.2-0.46-0.26s-0.34-0.08-0.5-0.07c-0.29,0.05-0.51,0.16-0.66,0.33
		c-0.15,0.17-0.22,0.36-0.22,0.56c0,0.2,0.08,0.41,0.23,0.61c0.15,0.2,0.37,0.35,0.67,0.46c0.71,0.1,1.37,0.24,2,0.41
		c0.62,0.17,1.08,0.45,1.37,0.83c0.28,0.46,0.45,0.92,0.51,1.4c0.06,0.47-0.03,1.06-0.27,1.76c-0.29,0.62-0.75,1.06-1.37,1.33
		c-0.62,0.27-1.3,0.39-2.03,0.38c-0.65,0.03-1.23-0.03-1.75-0.17c-0.52-0.14-0.97-0.35-1.34-0.63c-0.37-0.28-0.67-0.62-0.87-1.03
		s-0.31-0.86-0.31-1.37v-0.06v-0.04c0.42-0.05,0.89-0.07,1.42-0.05c0.53,0.02,1,0.03,1.39,0.03c0.01,0.29,0.15,0.53,0.41,0.71
		s0.54,0.29,0.83,0.32c0.29,0.03,0.56-0.02,0.8-0.16c0.24-0.14,0.35-0.39,0.34-0.76c0.04-0.3-0.03-0.53-0.21-0.68
		c-0.18-0.15-0.41-0.27-0.7-0.35c-0.29-0.08-0.62-0.15-0.99-0.22s-0.73-0.17-1.08-0.32c-0.71-0.24-1.23-0.62-1.55-1.13
		c-0.32-0.51-0.47-1.04-0.46-1.6c0.02-0.55,0.2-1.06,0.53-1.53s0.81-0.79,1.43-0.95c0.24-0.06,0.54-0.11,0.88-0.15
		s0.72-0.06,1.11-0.06s0.79,0.02,1.18,0.07c0.39,0.04,0.75,0.1,1.08,0.18c0.6,0.25,1.02,0.66,1.27,1.21
		C161.27,51.56,161.4,52.17,161.4,52.86z"/>
	<path d="M164.84,50.96c0.06-0.04,0.14-0.08,0.24-0.13c0.09-0.05,0.17-0.1,0.24-0.15c0.27-0.19,0.56-0.34,0.89-0.46
		s0.67-0.18,1.02-0.19c0.35-0.01,0.69,0.03,1.02,0.11s0.63,0.25,0.89,0.47c0.13,0.11,0.23,0.35,0.29,0.71s0.11,0.79,0.13,1.3
		c0.02,0.51,0.03,1.06,0.02,1.66c-0.01,0.6-0.02,1.21-0.03,1.82s-0.03,1.21-0.04,1.78c-0.01,0.57-0.01,1.07,0.02,1.5
		c-0.44,0.06-0.84,0.09-1.19,0.09c-0.35-0.01-0.74-0.01-1.19-0.01c-0.03-0.29-0.04-0.62-0.04-0.99c0-0.37,0-0.75,0.01-1.14
		c0.01-0.39,0.01-0.79,0-1.18c-0.01-0.39-0.02-0.76-0.05-1.1c-0.01-0.15-0.03-0.32-0.04-0.5s-0.04-0.36-0.07-0.54
		c-0.03-0.18-0.08-0.33-0.13-0.47s-0.14-0.25-0.24-0.32c-0.01-0.01-0.03-0.02-0.04-0.02s-0.03-0.01-0.04-0.02
		c-0.1-0.05-0.25-0.09-0.45-0.12c-0.2-0.03-0.39-0.02-0.58,0.04c-0.19,0.06-0.36,0.17-0.51,0.34s-0.24,0.43-0.27,0.77
		c-0.03,0.44-0.03,0.88-0.02,1.3c0.01,0.42,0.03,0.85,0.05,1.27c0.02,0.42,0.03,0.85,0.03,1.26s-0.03,0.84-0.08,1.25v0.08
		c-0.21,0.06-0.4,0.1-0.56,0.11s-0.32,0.02-0.48,0.01c-0.17-0.01-0.35-0.02-0.55-0.03c-0.2-0.01-0.46-0.01-0.76,0.02
		c0-0.52,0-1.14-0.01-1.87c-0.01-0.73-0.01-1.51-0.02-2.35c-0.01-0.84-0.01-1.7-0.01-2.59c0-0.89,0-1.76,0-2.61s0-1.65,0.01-2.4
		c0.01-0.75,0.02-1.41,0.03-1.97c0.15,0.01,0.28,0.02,0.38,0.03c0.1,0.01,0.2,0.01,0.29,0.01c0.09,0,0.18,0,0.28-0.01
		c0.1-0.01,0.23-0.02,0.38-0.03c0.05,0,0.14-0.01,0.27-0.03c0.13-0.02,0.25-0.03,0.38-0.05c0.13-0.01,0.24-0.02,0.34-0.01
		c0.1,0.01,0.15,0.03,0.15,0.07c0.01,0.06,0.02,0.23,0.02,0.5c0,0.27,0,0.6,0,0.97c0,0.37,0,0.77,0,1.2c0,0.42,0,0.82,0,1.19
		c0,0.37,0,0.68,0,0.95C164.84,50.75,164.84,50.91,164.84,50.96z"/>
	<path d="M171.03,50.77c0.09-0.19,0.23-0.35,0.43-0.49c0.2-0.14,0.42-0.26,0.68-0.35c0.26-0.09,0.54-0.16,0.84-0.2
		c0.3-0.04,0.6-0.06,0.9-0.06c0.25,0.03,0.5,0.03,0.73,0.01c0.23-0.02,0.48-0.02,0.75,0.01c0.41,0.03,0.79,0.1,1.16,0.24
		s0.68,0.33,0.95,0.58c0.18,0.11,0.32,0.3,0.42,0.55c0.1,0.25,0.18,0.55,0.23,0.88c0.05,0.33,0.08,0.7,0.1,1.1
		c0.01,0.4,0.02,0.81,0.04,1.23c-0.01,0.37-0.03,0.79-0.05,1.25c-0.02,0.47-0.05,0.92-0.09,1.35c-0.04,0.43-0.1,0.82-0.17,1.16
		c-0.07,0.34-0.17,0.58-0.29,0.7c-0.22,0.3-0.5,0.52-0.85,0.65c-0.35,0.13-0.73,0.21-1.13,0.24c-0.41,0.03-0.82,0.03-1.25,0
		c-0.43-0.03-0.82-0.05-1.18-0.05c-0.65-0.11-1.19-0.39-1.63-0.84c-0.34-0.3-0.58-0.68-0.7-1.14s-0.2-0.93-0.23-1.43
		c-0.03-0.5-0.03-1-0.01-1.51c0.02-0.51,0.01-0.97-0.03-1.39c0-0.23,0.01-0.45,0.02-0.67s0.04-0.45,0.08-0.69
		c0.01-0.14,0.06-0.33,0.13-0.56S171,50.91,171.03,50.77z M173.41,53.01c-0.08,0.05-0.13,0.18-0.17,0.38
		c-0.05,0.41-0.08,0.81-0.08,1.21c0,0.4-0.01,0.82-0.04,1.26c-0.01,0.29,0.06,0.52,0.23,0.67c0.16,0.16,0.36,0.27,0.6,0.32
		c0.23,0.06,0.48,0.07,0.73,0.04c0.25-0.03,0.46-0.09,0.63-0.18c0.21-0.1,0.36-0.31,0.44-0.63c0.05-0.41,0.09-0.81,0.12-1.23
		c0.03-0.41,0.01-0.8-0.07-1.17c-0.06-0.44-0.25-0.77-0.55-0.97c-0.3-0.2-0.7-0.25-1.2-0.13C173.79,52.67,173.57,52.81,173.41,53.01
		z"/>
	<path d="M181.66,54.66V55c0.01,0.38,0.03,0.69,0.05,0.93c0.02,0.24,0.1,0.47,0.24,0.7c0.15,0.29,0.37,0.51,0.65,0.65
		c0.28,0.14,0.55,0.18,0.82,0.13c0.27-0.05,0.49-0.21,0.67-0.47c0.18-0.26,0.26-0.65,0.24-1.17c0.13,0.01,0.3,0.02,0.51,0.01
		c0.21-0.01,0.44-0.02,0.67-0.03s0.46-0.02,0.67-0.01c0.22,0.01,0.39,0.03,0.53,0.07c-0.03,0.33-0.05,0.65-0.08,0.97
		s-0.06,0.61-0.09,0.88c-0.04,0.27-0.08,0.51-0.14,0.7c-0.06,0.2-0.13,0.33-0.22,0.41c-0.21,0.3-0.49,0.52-0.84,0.65
		c-0.34,0.13-0.72,0.2-1.12,0.23s-0.82,0.03-1.24,0c-0.42-0.03-0.81-0.04-1.17-0.04c-0.36-0.05-0.68-0.17-0.99-0.34
		c-0.34-0.24-0.63-0.55-0.86-0.94c-0.23-0.39-0.41-0.81-0.55-1.27c-0.14-0.46-0.23-0.95-0.29-1.47s-0.06-1.04-0.04-1.56
		c0.04-0.47,0.08-0.92,0.12-1.36c0.04-0.44,0.14-0.86,0.29-1.28c0.17-0.37,0.42-0.68,0.76-0.94c0.34-0.26,0.73-0.46,1.16-0.59
		s0.89-0.21,1.37-0.22s0.95,0.04,1.41,0.15c0.58,0.1,1.05,0.3,1.41,0.61c0.35,0.3,0.62,0.67,0.81,1.1c0.18,0.43,0.29,0.91,0.33,1.42
		s0.04,1.04,0,1.58c-0.09,0.03-0.26,0.05-0.5,0.08c-0.25,0.03-0.54,0.05-0.87,0.08c-0.34,0.03-0.69,0.04-1.07,0.06
		s-0.74,0.02-1.09,0.02c-0.35,0-0.66-0.01-0.94-0.02C181.98,54.71,181.78,54.69,181.66,54.66z M183.95,51.72
		c-0.1-0.06-0.2-0.11-0.3-0.14c-0.1-0.03-0.22-0.05-0.36-0.05c-0.3,0-0.55,0.03-0.74,0.1c-0.19,0.06-0.34,0.15-0.46,0.27
		c-0.11,0.11-0.2,0.25-0.26,0.4c-0.06,0.15-0.1,0.31-0.12,0.47c-0.03,0.14-0.04,0.24-0.03,0.29c0.01,0.06,0.07,0.09,0.18,0.11
		c0.11,0.02,0.29,0.03,0.54,0.02c0.25-0.01,0.61-0.01,1.09-0.01c0.33,0,0.58,0.01,0.74,0.02c0.16,0.01,0.28,0.02,0.35,0.01
		c0.07-0.01,0.1-0.03,0.1-0.06s0-0.1,0-0.2c0-0.25-0.07-0.49-0.2-0.72C184.36,52,184.18,51.83,183.95,51.72z"/>
	<path d="M195.41,52.86c-0.41,0.06-0.85,0.1-1.34,0.11c-0.49,0.01-0.95-0.03-1.38-0.11c0.04-0.15,0.02-0.3-0.05-0.46
		c-0.07-0.15-0.17-0.29-0.3-0.4c-0.13-0.11-0.28-0.2-0.46-0.26c-0.17-0.06-0.34-0.08-0.5-0.07c-0.29,0.05-0.51,0.16-0.66,0.33
		c-0.15,0.17-0.22,0.36-0.22,0.56c0,0.2,0.08,0.41,0.23,0.61c0.15,0.2,0.37,0.35,0.67,0.46c0.71,0.1,1.38,0.24,2,0.41
		c0.62,0.17,1.08,0.45,1.37,0.83c0.28,0.46,0.45,0.92,0.51,1.4c0.06,0.47-0.03,1.06-0.27,1.76c-0.29,0.62-0.75,1.06-1.37,1.33
		c-0.62,0.27-1.3,0.39-2.03,0.38c-0.65,0.03-1.23-0.03-1.75-0.17c-0.52-0.14-0.97-0.35-1.34-0.63c-0.37-0.28-0.67-0.62-0.87-1.03
		s-0.31-0.86-0.31-1.37v-0.06v-0.04c0.42-0.05,0.89-0.07,1.42-0.05c0.53,0.02,0.99,0.03,1.39,0.03c0.01,0.29,0.15,0.53,0.41,0.71
		c0.26,0.18,0.53,0.29,0.83,0.32c0.29,0.03,0.56-0.02,0.8-0.16s0.35-0.39,0.34-0.76c0.04-0.3-0.03-0.53-0.21-0.68
		c-0.18-0.15-0.41-0.27-0.7-0.35c-0.29-0.08-0.62-0.15-0.99-0.22c-0.37-0.06-0.73-0.17-1.08-0.32c-0.71-0.24-1.23-0.62-1.55-1.13
		c-0.32-0.51-0.47-1.04-0.46-1.6c0.02-0.55,0.2-1.06,0.53-1.53c0.33-0.47,0.81-0.79,1.43-0.95c0.24-0.06,0.54-0.11,0.88-0.15
		c0.35-0.04,0.72-0.06,1.11-0.06c0.39,0,0.79,0.02,1.18,0.07c0.39,0.04,0.75,0.1,1.08,0.18c0.59,0.25,1.02,0.66,1.27,1.21
		C195.28,51.56,195.41,52.17,195.41,52.86z"/>
	<path d="M198.38,55.65l0.04-0.72c0.06-0.41,0.14-0.79,0.24-1.17c0.09-0.37,0.26-0.74,0.5-1.09c0.14-0.27,0.35-0.58,0.64-0.94
		c0.29-0.36,0.53-0.72,0.73-1.07c0.2-0.35,0.3-0.68,0.29-0.99c-0.01-0.3-0.25-0.54-0.7-0.7c-0.29-0.13-0.52-0.16-0.67-0.09
		c-0.16,0.07-0.29,0.18-0.41,0.32s-0.22,0.3-0.32,0.47c-0.1,0.16-0.23,0.28-0.4,0.34c-0.39,0.04-0.78,0.04-1.17,0.02
		s-0.77-0.04-1.15-0.06v-0.02c0.03-0.48,0.13-0.95,0.32-1.42c0.19-0.46,0.45-0.88,0.78-1.24c0.33-0.37,0.72-0.67,1.16-0.9
		c0.44-0.23,0.94-0.36,1.48-0.39c0.58-0.05,1.14,0.01,1.66,0.17c0.53,0.16,0.98,0.42,1.37,0.76s0.68,0.75,0.88,1.24
		s0.27,1,0.21,1.56c-0.05,0.41-0.16,0.77-0.32,1.1c-0.16,0.33-0.35,0.63-0.57,0.91c-0.2,0.28-0.4,0.5-0.58,0.67
		s-0.37,0.38-0.56,0.64c-0.27,0.37-0.47,0.73-0.6,1.1c-0.13,0.37-0.24,0.77-0.33,1.22c-0.03,0.1-0.05,0.21-0.08,0.32
		s-0.03,0.22,0,0.32v0.02c-0.39,0.05-0.78,0.06-1.17,0.04c-0.39-0.03-0.78-0.03-1.17,0h-0.02c-0.05-0.05-0.08-0.12-0.08-0.2
		C198.38,55.79,198.38,55.71,198.38,55.65z M200.6,59.43l-2.15-0.02h-0.06c-0.03-0.14-0.04-0.32-0.05-0.53
		c-0.01-0.22-0.01-0.43,0-0.65c0.01-0.21,0.01-0.42,0.02-0.61c0.01-0.19,0.01-0.33,0.01-0.42c0.13-0.05,0.31-0.09,0.54-0.11
		s0.47-0.04,0.71-0.04c0.24,0,0.46,0.01,0.67,0.03c0.21,0.02,0.36,0.05,0.45,0.09c0,0.01-0.01,0.12-0.02,0.31s-0.03,0.42-0.04,0.67
		c-0.01,0.25-0.03,0.5-0.04,0.74c-0.01,0.24-0.02,0.41-0.02,0.49v0.02v0.02H200.6z"/>
</g>
</svg>
