<!-- Generator: Adobe Illustrator 23.1.1, SVG Export Plug-In  -->
<svg version="1.1" xmlns="http://www.w3.org/2000/svg" xmlns:xlink="http://www.w3.org/1999/xlink" x="0px" y="0px"
	 width="299.28px" height="17.75px" viewBox="0 0 299.28 17.75" style="enable-background:new 0 0 299.28 17.75;"
	 xml:space="preserve">
<defs>
</defs>
<g>
	<path d="M7.9,12.48c0,0.19,0.01,0.51,0.04,0.97v0.38H6.33c-0.15-0.3-0.31-0.62-0.48-0.95c-0.17-0.33-0.34-0.65-0.5-0.97
		c-0.15-0.29-0.56-1.08-1.22-2.37C3.46,8.26,2.86,7.03,2.3,5.85C2.24,5.71,2.17,5.57,2.11,5.42C2.05,5.26,2,5.17,1.98,5.15
		s-0.04,0-0.06,0.08v0.55c0,0.35,0,0.99,0.01,1.92s0.01,2.38,0.01,4.35v0.49c0,0.62,0.01,1.05,0.02,1.29
		c-0.22,0.05-0.43,0.07-0.65,0.06c-0.14,0-0.34-0.01-0.59-0.04c-0.3-0.02-0.53-0.04-0.67-0.04v-1.33c0-0.81-0.01-1.96-0.04-3.46
		L0,5.62c0-2.01,0.06-3.71,0.17-5.09c0.15-0.03,0.28-0.04,0.38-0.04l0.32,0.02C1.52,0.55,1.84,0.6,1.84,0.65
		c0.15,0.37,0.32,0.74,0.51,1.12C2.55,2.15,2.77,2.59,3.04,3.1C3.66,4.22,4.31,5.53,5,7c0.68,1.48,1.1,2.42,1.25,2.84
		c0.01-0.51-0.01-1.34-0.06-2.49L6.16,6.08C6.13,4.67,6.1,3.67,6.08,3.06L6.06,2.03V1.41V0.42c0.3-0.04,0.62-0.06,0.95-0.06
		c0.41,0.03,0.71,0.06,0.91,0.09v6.12c0.01,0.71,0.02,1.79,0.02,3.25l-0.02,2.11C7.91,12.06,7.9,12.24,7.9,12.48z"/>
	<path d="M10.81,9.03v0.34l-0.02,0.55c0,1.57,0.77,2.36,2.32,2.36c0.62,0,1.08-0.14,1.38-0.43c0.3-0.29,0.45-0.67,0.45-1.17
		c0-0.08-0.01-0.21-0.04-0.42c0.27-0.04,0.51-0.06,0.74-0.06c0.2,0,0.35,0.01,0.46,0.02c0.08,0,0.17,0,0.28,0.01
		c0.11,0.01,0.23,0,0.37-0.01c0.01,0.72-0.01,1.3-0.08,1.73s-0.22,0.84-0.46,1.23c-0.23,0.34-0.62,0.59-1.19,0.73
		s-1.18,0.22-1.85,0.22c-0.3,0-0.59-0.01-0.85-0.04c-0.26-0.03-0.42-0.05-0.48-0.08c-0.99-0.17-1.7-0.79-2.15-1.87
		c-0.44-1.08-0.63-2.32-0.57-3.71c0.01-0.1,0.03-0.31,0.06-0.64c0.03-0.32,0.06-0.66,0.1-1c0.04-0.34,0.13-0.68,0.26-1.01
		c0.24-0.56,0.68-0.99,1.31-1.29s1.34-0.46,2.11-0.46c0.41,0,0.83,0.05,1.27,0.15c1.72,0.29,2.58,1.59,2.58,3.89
		c0,0.19-0.01,0.46-0.04,0.82c-0.24,0.08-0.95,0.14-2.13,0.19c-0.14,0.01-0.44,0.02-0.91,0.02c-1,0-1.74-0.01-2.22-0.04
		C11.2,9.08,10.96,9.06,10.81,9.03z M15.43,7.6c-0.01-0.39-0.11-0.78-0.29-1.16c-0.18-0.38-0.45-0.68-0.79-0.89
		c-0.19-0.09-0.35-0.15-0.49-0.17c-0.14-0.03-0.32-0.04-0.53-0.04c-0.82,0-1.41,0.17-1.76,0.51c-0.35,0.34-0.57,0.83-0.66,1.46
		c-0.03,0.15-0.04,0.25-0.04,0.3c0,0.15,0.07,0.25,0.22,0.3C11.23,7.97,11.55,8,12.03,8c0.47,0,0.87-0.01,1.2-0.02
		c1.22,0,1.9-0.01,2.05-0.02c0.06-0.01,0.1-0.03,0.12-0.05c0.02-0.02,0.03-0.05,0.03-0.1V7.6z"/>
	<path d="M24.85,4.31c0,0.01-0.01,0.02-0.02,0.02c-0.9,1.61-1.72,3.18-2.45,4.71c0.54,1.04,1.01,2.03,1.41,2.96
		c0.08,0.18,0.18,0.41,0.3,0.69c0.13,0.29,0.3,0.66,0.53,1.13l-0.38-0.02c-0.06,0-0.14,0-0.22,0.01c-0.08,0.01-0.17,0-0.28-0.01
		h-0.23c-0.44,0-0.69-0.01-0.74-0.02h-0.02c-0.28-0.49-0.61-1.17-1.01-2.03c-0.37-0.77-0.63-1.3-0.8-1.58
		c-0.33,0.57-0.63,1.14-0.91,1.71c-0.48,0.94-0.83,1.58-1.04,1.94l-0.91,0.02c-0.46,0-0.76-0.02-0.91-0.06
		c0.76-1.44,1.56-3.03,2.39-4.77c-0.41-0.71-0.81-1.47-1.22-2.28c-0.22-0.46-0.41-0.84-0.59-1.16s-0.42-0.72-0.72-1.2
		c0.28-0.01,0.63-0.02,1.06-0.02c0.58,0,0.89,0.01,0.91,0.04c0.25,0.42,0.57,0.99,0.95,1.73c0.43,0.85,0.76,1.44,0.99,1.79
		c0.13-0.23,0.35-0.66,0.67-1.29c0.05-0.11,0.2-0.42,0.45-0.92c0.25-0.5,0.5-0.95,0.75-1.34c0.34-0.04,1.01-0.06,2.01-0.06H24.85z"
		/>
	<path d="M28.78,0.82v2.91l0.02,1.06c0.82-0.03,1.84-0.07,3.06-0.13c0.08,0.1,0.11,0.29,0.11,0.57l-0.02,0.44
		c-0.03,0.28-0.03,0.48-0.02,0.61c-1.38,0-2.41-0.01-3.1-0.02v2.91V9.8c0,0.57,0.01,0.98,0.04,1.22c0.03,0.24,0.08,0.45,0.15,0.63
		c0.2,0.25,0.61,0.41,1.23,0.47s1.17,0.08,1.68,0.06c0.06,0.51,0.1,0.83,0.1,0.97c0,0.23-0.03,0.46-0.1,0.68
		c-0.27,0.01-0.68,0.02-1.25,0.02c-0.99,0-1.76-0.12-2.32-0.36c-0.56-0.24-0.91-0.72-1.06-1.44c-0.14-1.23-0.21-2.83-0.21-4.81V6.33
		c-0.08,0.01-0.27,0.02-0.57,0.02l-1.44-0.02l0.06-1.56c0.28,0.03,0.94,0.04,1.99,0.04l-0.02-1.99V1.92c0-0.53,0.01-0.91,0.04-1.12
		c0.18-0.01,0.45-0.01,0.82,0.02l0.51,0.02C28.62,0.84,28.72,0.83,28.78,0.82z"/>
	<path d="M39.67,0.82v2.91l0.02,1.06c0.82-0.03,1.84-0.07,3.06-0.13c0.08,0.1,0.11,0.29,0.11,0.57l-0.02,0.44
		c-0.03,0.28-0.03,0.48-0.02,0.61c-1.38,0-2.41-0.01-3.1-0.02v2.91V9.8c0,0.57,0.01,0.98,0.04,1.22c0.03,0.24,0.08,0.45,0.15,0.63
		c0.2,0.25,0.61,0.41,1.23,0.47s1.17,0.08,1.68,0.06c0.06,0.51,0.1,0.83,0.1,0.97c0,0.23-0.03,0.46-0.1,0.68
		c-0.27,0.01-0.68,0.02-1.25,0.02c-0.99,0-1.76-0.12-2.32-0.36c-0.56-0.24-0.91-0.72-1.06-1.44c-0.14-1.23-0.21-2.83-0.21-4.81V6.33
		c-0.08,0.01-0.27,0.02-0.57,0.02l-1.44-0.02l0.06-1.56c0.28,0.03,0.94,0.04,1.99,0.04L38,2.81V1.92c0-0.53,0.01-0.91,0.04-1.12
		c0.18-0.01,0.45-0.01,0.82,0.02l0.51,0.02C39.51,0.84,39.61,0.83,39.67,0.82z"/>
	<path d="M44.29,4.24c0.09-0.01,0.27-0.01,0.53,0c0.38,0.03,0.8,0.04,1.25,0.04v0.06c0,0.57-0.01,1.45-0.04,2.64
		c-0.04,1.22-0.06,2.45-0.06,3.69c0,1.17,0.02,2.2,0.08,3.12c-0.18,0.04-0.44,0.06-0.8,0.06c-0.35,0-0.57,0-0.65,0
		c-0.23,0-0.37,0.01-0.42,0.02c0.01-0.37,0.02-0.92,0.02-1.67v-1.71v-1.6c-0.03-0.89-0.04-1.57-0.04-2.05
		c0-0.87,0.04-1.73,0.11-2.57V4.24z M44.21,0.15C45,0.18,45.59,0.19,46,0.19l0.06,2.51c-0.13,0.06-0.35,0.09-0.68,0.09
		c-0.2,0-0.35-0.01-0.46-0.02c-0.08,0-0.17,0-0.27-0.01c-0.1-0.01-0.22,0-0.36,0.01c0-0.19-0.01-0.5-0.04-0.93
		C44.21,1.01,44.2,0.44,44.21,0.15z"/>
	<path d="M49.44,4.41c0.03,0.14,0.04,0.32,0.04,0.53v0.47c0.47-0.47,1.03-0.75,1.67-0.86c0.44-0.09,0.82-0.13,1.12-0.13
		c0.54,0,0.99,0.11,1.35,0.32c0.28,0.13,0.46,0.3,0.55,0.53c0.09-0.05,0.22-0.14,0.39-0.28c0.17-0.13,0.41-0.26,0.7-0.38
		c0.3-0.12,0.71-0.19,1.25-0.2c0.63-0.03,1.13,0,1.49,0.09s0.69,0.25,0.98,0.5c0.16,0.14,0.28,0.47,0.34,0.99s0.1,1.2,0.1,2.05
		c0,0.48-0.01,1.24-0.04,2.28c-0.03,1.01-0.04,1.74-0.04,2.17c0,0.35,0.01,0.79,0.04,1.29c-0.46,0.08-1,0.1-1.62,0.08
		c-0.03-0.34-0.04-0.97-0.04-1.88c0.03-0.99,0.04-1.75,0.04-2.28v-0.8c-0.01-0.1-0.03-0.29-0.04-0.55
		c-0.01-0.27-0.04-0.56-0.08-0.87s-0.11-0.56-0.23-0.72c-0.08-0.25-0.32-0.4-0.74-0.44c-0.13-0.03-0.31-0.04-0.55-0.04
		c-0.37,0-0.68,0.06-0.95,0.18c-0.27,0.12-0.46,0.31-0.57,0.56c-0.03,0.28-0.04,0.5-0.04,0.67l0.02,0.53v0.7
		c0,0.43-0.01,1.09-0.04,1.98l-0.02,1.9c0,0.47,0.01,0.8,0.02,1.01c-0.27,0.04-0.63,0.06-1.08,0.06h-0.59
		c-0.03-0.25-0.04-0.7-0.04-1.35v-1.01l0.02-1.41c0-0.87-0.03-1.65-0.08-2.32c0-0.53-0.09-0.9-0.27-1.09
		c-0.18-0.2-0.51-0.29-0.99-0.29c-1.34,0-2.06,0.75-2.17,2.26c-0.01,0.19-0.02,0.47-0.02,0.84c0,0.41,0.01,0.98,0.04,1.71l0.02,0.93
		c0,0.52-0.02,1.06-0.06,1.62v0.08c-0.19,0.04-0.37,0.06-0.53,0.06l-0.63-0.02c-0.19,0-0.34,0.01-0.46,0.02l-0.02-3.27
		c-0.03-1.49-0.04-2.62-0.04-3.36c0-0.61,0.01-1.57,0.04-2.89c0.33,0.03,0.53,0.04,0.59,0.04l0.42-0.02c0.06,0,0.15-0.01,0.25-0.02
		c0.1-0.01,0.2-0.02,0.3-0.02C49.38,4.35,49.44,4.37,49.44,4.41z"/>
	<path d="M62.11,9.03v0.34l-0.02,0.55c0,1.57,0.77,2.36,2.32,2.36c0.62,0,1.08-0.14,1.38-0.43c0.3-0.29,0.45-0.67,0.45-1.17
		c0-0.08-0.01-0.21-0.04-0.42c0.27-0.04,0.51-0.06,0.74-0.06c0.2,0,0.35,0.01,0.46,0.02c0.08,0,0.17,0,0.28,0.01
		c0.11,0.01,0.23,0,0.37-0.01c0.01,0.72-0.01,1.3-0.08,1.73s-0.21,0.84-0.46,1.23c-0.23,0.34-0.62,0.59-1.19,0.73
		s-1.18,0.22-1.85,0.22c-0.3,0-0.59-0.01-0.84-0.04c-0.26-0.03-0.42-0.05-0.48-0.08c-0.99-0.17-1.7-0.79-2.15-1.87
		s-0.63-2.32-0.57-3.71c0.01-0.1,0.03-0.31,0.06-0.64c0.03-0.32,0.06-0.66,0.1-1c0.04-0.34,0.13-0.68,0.26-1.01
		c0.24-0.56,0.68-0.99,1.31-1.29c0.63-0.3,1.34-0.46,2.11-0.46c0.41,0,0.83,0.05,1.27,0.15c1.72,0.29,2.58,1.59,2.58,3.89
		c0,0.19-0.01,0.46-0.04,0.82c-0.24,0.08-0.95,0.14-2.13,0.19c-0.14,0.01-0.44,0.02-0.91,0.02c-1,0-1.74-0.01-2.22-0.04
		C62.49,9.08,62.26,9.06,62.11,9.03z M66.73,7.6c-0.01-0.39-0.11-0.78-0.29-1.16c-0.18-0.38-0.45-0.68-0.79-0.89
		c-0.19-0.09-0.36-0.15-0.49-0.17c-0.14-0.03-0.32-0.04-0.53-0.04c-0.82,0-1.41,0.17-1.76,0.51c-0.35,0.34-0.57,0.83-0.66,1.46
		c-0.03,0.15-0.04,0.25-0.04,0.3c0,0.15,0.07,0.25,0.22,0.3C62.53,7.97,62.84,8,63.32,8c0.47,0,0.87-0.01,1.2-0.02
		c1.22,0,1.9-0.01,2.05-0.02c0.06-0.01,0.1-0.03,0.12-0.05c0.02-0.02,0.03-0.05,0.03-0.1V7.6z"/>
	<path d="M74.72,0.63c0,0.11,0,0.21,0.01,0.28c0.01,0.07,0.01,0.12,0.01,0.16c0.01,0.09,0.02,0.26,0.02,0.51l0.04,0.97l-0.02,2.74
		c0.01-0.09,0.1-0.21,0.26-0.37c0.16-0.16,0.37-0.3,0.64-0.42c0.27-0.12,0.56-0.19,0.89-0.2c1.11-0.04,1.97,0.05,2.57,0.27
		c0.53,0.19,0.92,0.64,1.17,1.35s0.37,1.54,0.37,2.51c-0.04,1.1-0.13,2-0.27,2.71c-0.14,0.7-0.44,1.3-0.89,1.8s-1.13,0.78-2.03,0.85
		c-0.2,0.03-0.37,0.04-0.49,0.04c-0.29,0-0.56-0.04-0.82-0.13c-0.2-0.06-0.41-0.19-0.61-0.38c-0.41-0.23-0.68-0.52-0.84-0.87
		c0.03,0.18,0.04,0.4,0.04,0.67l-0.02,0.61c0,0.08-0.01,0.12-0.02,0.13c-0.08,0.01-0.21,0.02-0.4,0.02c-0.28,0-0.49-0.01-0.65-0.02
		l-0.76-0.02c-0.01-0.46-0.02-1.15-0.02-2.09c0-1.01,0.01-1.92,0.02-2.73c0.01-0.8,0.03-1.48,0.04-2.04
		c0.05-2.31,0.08-4.05,0.08-5.24V0.46c0.22-0.04,0.46-0.06,0.74-0.06c0.23,0,0.43,0.01,0.61,0.03c0.18,0.02,0.29,0.04,0.34,0.05
		V0.63z M79.13,9.2c0-0.42-0.03-0.73-0.08-0.95C79.01,7.73,78.93,7.31,78.83,7c-0.1-0.31-0.33-0.58-0.68-0.8
		c-0.35-0.22-0.89-0.33-1.62-0.33c-0.71,0-1.19,0.25-1.43,0.75c-0.25,0.5-0.37,1.28-0.37,2.35c0,0.9,0.16,1.67,0.48,2.31
		s0.84,0.96,1.55,0.96c0.79,0,1.38-0.26,1.78-0.77C78.93,10.95,79.13,10.2,79.13,9.2z"/>
	<path d="M83.48,4.39c0,0.15,0,0.27,0.01,0.35c0.01,0.08,0.01,0.18,0.01,0.29c0.09-0.05,0.21-0.11,0.37-0.17s0.33-0.13,0.52-0.19
		c0.29-0.1,0.64-0.17,1.05-0.22c0.41-0.04,0.78-0.07,1.11-0.07c0.3,0,0.46,0.01,0.46,0.04L87,6c0,0.25,0.01,0.44,0.02,0.57
		c-0.19-0.08-0.41-0.15-0.65-0.21c-0.28-0.06-0.58-0.09-0.91-0.09c-0.34,0-0.73,0.05-1.16,0.15c-0.36,0.09-0.6,0.22-0.72,0.4
		C83.45,7,83.39,7.33,83.41,7.83c0.05,1.74,0.08,3.71,0.08,5.91v0.08c-0.22,0.05-0.44,0.08-0.67,0.08c-0.09,0-0.23,0-0.43-0.01
		c-0.2-0.01-0.4,0-0.6,0.01l-0.02-3.27c-0.03-1.49-0.04-2.62-0.04-3.36c0-0.61,0.01-1.57,0.04-2.89c0.13,0.01,0.26,0.02,0.41,0.01
		c0.15-0.01,0.28-0.01,0.39-0.01c0.15-0.01,0.35-0.02,0.61-0.02C83.38,4.35,83.48,4.36,83.48,4.39z"/>
	<path d="M88.71,4.24c0.09-0.01,0.27-0.01,0.53,0c0.38,0.03,0.8,0.04,1.25,0.04v0.06c0,0.57-0.01,1.45-0.04,2.64
		c-0.04,1.22-0.06,2.45-0.06,3.69c0,1.17,0.03,2.2,0.08,3.12c-0.18,0.04-0.44,0.06-0.8,0.06c-0.36,0-0.57,0-0.65,0
		c-0.23,0-0.37,0.01-0.42,0.02c0.01-0.37,0.02-0.92,0.02-1.67v-1.71v-1.6c-0.03-0.89-0.04-1.57-0.04-2.05
		c0-0.87,0.04-1.73,0.11-2.57V4.24z M88.63,0.15c0.79,0.03,1.38,0.04,1.79,0.04l0.06,2.51c-0.13,0.06-0.35,0.09-0.68,0.09
		c-0.2,0-0.35-0.01-0.46-0.02c-0.08,0-0.17,0-0.27-0.01s-0.22,0-0.36,0.01c0-0.19-0.01-0.5-0.04-0.93
		C88.63,1.01,88.62,0.44,88.63,0.15z"/>
	<path d="M93.93,4.39c0.03,0.14,0.04,0.32,0.04,0.53V5.4c0.43-0.25,0.94-0.48,1.52-0.67c0.58-0.2,1.17-0.29,1.75-0.29
		c0.7,0.03,1.27,0.22,1.71,0.59c0.3,0.27,0.46,1.35,0.46,3.25c0,0.48-0.01,1.23-0.04,2.24c-0.03,0.96-0.04,1.66-0.04,2.09
		c0,0.56,0.01,0.96,0.02,1.2c-0.24,0.04-0.59,0.06-1.04,0.06h-0.63c-0.03-0.2-0.04-0.56-0.04-1.06v-0.82l0.02-1.22
		c0.03-0.82,0.03-1.41,0.02-1.77c0-0.08-0.02-0.34-0.05-0.78c-0.03-0.44-0.1-0.84-0.22-1.18c-0.04-0.44-0.35-0.65-0.93-0.61
		c-0.87,0.01-1.52,0.13-1.93,0.36c-0.41,0.23-0.64,0.64-0.69,1.23c-0.01,0.17-0.02,0.48-0.02,0.93c0,0.71,0.01,1.47,0.04,2.28
		c0.03,0.48,0.04,0.84,0.04,1.06c0,0.47-0.02,0.95-0.06,1.44v0.08c-0.24,0.05-0.48,0.07-0.71,0.07c-0.23-0.01-0.4-0.01-0.5-0.01
		c-0.2,0-0.36,0.01-0.47,0.02l-0.02-3.27c-0.03-1.49-0.04-2.62-0.04-3.36c0-0.61,0.01-1.57,0.04-2.89c0.15,0.01,0.33,0.02,0.53,0.02
		c0.2,0,0.37-0.01,0.49-0.02c0.08,0,0.17-0.01,0.27-0.02c0.1-0.01,0.2-0.02,0.3-0.02C93.87,4.33,93.93,4.35,93.93,4.39z"/>
	<path d="M107.95,16.3c-0.24,0.54-0.54,0.91-0.91,1.08s-0.79,0.29-1.27,0.32c-0.56,0.03-0.91,0.04-1.04,0.04
		c-0.24,0-0.55-0.01-0.93-0.04c-0.84-0.06-1.54-0.34-2.11-0.84c-0.57-0.49-0.85-1.12-0.85-1.86c0-0.16,0.01-0.29,0.02-0.38
		c0.06-0.03,0.23-0.05,0.51-0.07c0.28-0.02,0.54-0.03,0.8-0.03c0.21,0,0.33,0.01,0.36,0.04c0.01,0.03,0.02,0.12,0.02,0.29
		c0,0.33,0.08,0.62,0.23,0.87c0.15,0.25,0.48,0.42,0.97,0.49c0.25,0.01,0.58,0.02,0.99,0.02c0.53,0,0.92-0.03,1.17-0.09
		c0.25-0.06,0.41-0.16,0.47-0.3s0.09-0.36,0.07-0.66v-0.7v-0.63c0-0.06,0-0.13,0.01-0.21c0.01-0.08,0.02-0.18,0.03-0.32
		c-0.21,0.25-0.46,0.41-0.75,0.46s-0.81,0.08-1.59,0.08h-0.72c-1.27,0-2.09-0.4-2.47-1.2c-0.32-0.59-0.49-1.34-0.53-2.22
		c0-1.18,0.05-2.15,0.14-2.93c0.09-0.77,0.37-1.47,0.84-2.1c0.46-0.63,1.19-0.97,2.19-1.04c0.66-0.01,1.17,0.01,1.53,0.07
		c0.36,0.06,0.63,0.16,0.81,0.29s0.32,0.34,0.44,0.59c0.04-0.18,0.06-0.34,0.06-0.49c0-0.08,0-0.15-0.01-0.24
		c-0.01-0.08,0-0.16,0.01-0.24c0.33-0.03,0.58-0.04,0.74-0.04l0.99,0.02c0.05,1.47,0.08,3.19,0.08,5.17c0,1.96-0.03,3.67-0.09,5.13
		c0,0.13,0,0.3-0.01,0.51c-0.01,0.21-0.02,0.42-0.04,0.62C108.06,15.98,108.02,16.15,107.95,16.3z M101.89,9.31v0.23
		c-0.04,0.68,0.08,1.32,0.34,1.92c0.27,0.6,0.76,0.91,1.48,0.95c0.19,0.01,0.45,0.02,0.78,0.02c0.68,0,1.17-0.12,1.47-0.36
		c0.3-0.24,0.46-0.71,0.5-1.41c0-0.9-0.01-1.62-0.02-2.17c0-1.28-0.29-2.07-0.86-2.38c-0.27-0.15-0.63-0.23-1.1-0.23
		c-0.25,0-0.5,0.02-0.74,0.06c-0.71,0.13-1.2,0.48-1.46,1.07S101.89,8.37,101.89,9.31z"/>
	<path d="M112.38,4.33c0.22,0.01,0.54,0.02,0.99,0.02c0.43,0,0.73,0.01,0.91,0.04l0.68,2.6c0.47,1.79,0.83,3.13,1.08,4.04
		c0.25,0.91,0.46,1.51,0.63,1.81c0.19-0.23,0.41-0.85,0.67-1.86c0.25-1.01,0.56-2.36,0.91-4.03c0.04-0.15,0.13-0.58,0.28-1.27
		c0.15-0.7,0.25-1.13,0.31-1.29l0.74-0.02c0.46-0.03,0.83-0.03,1.12-0.02c-0.13,0.46-0.35,1.38-0.68,2.77l-0.34,1.42
		c-0.05,0.17-0.16,0.69-0.34,1.58c-0.33,1.53-0.67,2.76-1.04,3.7c-0.36,0.93-0.97,1.73-1.83,2.39s-2.06,1-3.61,1
		c-0.28,0-0.49-0.01-0.65-0.02c-0.1-0.27-0.15-0.6-0.15-0.99c0-0.29,0.03-0.53,0.08-0.72c0.41,0.03,0.7,0.04,0.87,0.04
		c1.44,0,2.17-0.37,2.17-1.12c0-0.06-0.01-0.16-0.04-0.29l-1.35-4.77C113.34,7.83,112.88,6.16,112.38,4.33z"/>
	<path d="M121.08,7.66c0-0.47,0.02-0.87,0.07-1.22c0.04-0.34,0.16-0.77,0.33-1.27c0.16-0.37,0.52-0.64,1.05-0.83
		c0.54-0.18,1.14-0.28,1.79-0.28c0.09,0.01,0.22,0.02,0.38,0.02l0.76-0.02c1.06,0,1.88,0.28,2.45,0.84c0.23,0.15,0.4,0.44,0.52,0.85
		c0.12,0.42,0.19,0.98,0.22,1.68s0.04,1.11,0.04,1.23c-0.05,1.27-0.11,2.27-0.18,3.02c-0.07,0.75-0.21,1.23-0.43,1.44
		c-0.24,0.34-0.57,0.58-1,0.7c-0.42,0.13-0.93,0.19-1.51,0.19c-0.23,0-0.57-0.01-1.03-0.04l-0.87-0.02
		c-0.75-0.13-1.31-0.4-1.68-0.82c-0.37-0.42-0.61-0.91-0.72-1.46c-0.11-0.56-0.16-1.23-0.16-2.01V8.68
		C121.12,8.21,121.11,7.87,121.08,7.66z M124.96,5.85c-0.86,0-1.48,0.22-1.86,0.67c-0.17,0.2-0.27,0.46-0.31,0.77
		c-0.04,0.31-0.06,0.71-0.05,1.21c-0.01,0.19-0.01,0.44,0.01,0.76c0.02,0.32,0.03,0.56,0.03,0.74l0.04,0.8
		c0.04,0.51,0.18,0.86,0.43,1.07c0.25,0.21,0.56,0.35,0.94,0.43c0.25,0.04,0.51,0.06,0.78,0.06c0.49,0,0.92-0.09,1.29-0.27
		c0.37-0.18,0.6-0.47,0.7-0.87c0.05-0.33,0.08-0.59,0.08-0.78c0.06-0.89,0.09-1.49,0.09-1.8c0-0.84-0.15-1.51-0.46-2.01
		C126.37,6.11,125.8,5.85,124.96,5.85z"/>
	<path d="M135.33,13.83c-0.01-0.24-0.02-0.44-0.02-0.6s-0.01-0.29-0.02-0.41c-0.03,0.01-0.13,0.08-0.3,0.21
		c-0.18,0.13-0.46,0.23-0.86,0.32c-0.73,0.27-1.45,0.4-2.15,0.4c-0.79,0-1.38-0.19-1.77-0.57c-0.21-0.19-0.35-0.51-0.4-0.96
		c-0.05-0.45-0.08-1.17-0.1-2.16V9.48c0-0.39,0.01-0.97,0.04-1.73c0.04-0.76,0.06-1.48,0.06-2.17c0-0.33-0.01-0.73-0.04-1.22
		c0.23-0.03,0.54-0.04,0.93-0.04h0.63c0.04,0.38,0.06,0.83,0.06,1.35l-0.02,1.54c0,0.51,0.01,0.87,0.02,1.1l0.02,0.53
		c0,0.46,0.02,0.99,0.06,1.6c0.03,0.42,0.11,0.73,0.26,0.95c0.15,0.21,0.36,0.36,0.66,0.44c0.25,0.04,0.49,0.06,0.7,0.06
		c0.75,0,1.32-0.2,1.72-0.61c0.4-0.41,0.6-0.96,0.62-1.65c0.01-0.46-0.01-1.29-0.06-2.49c-0.03-0.61-0.04-1.01-0.04-1.2
		c0-0.34,0.01-0.83,0.04-1.46V4.41c0.2-0.05,0.4-0.08,0.58-0.09s0.29-0.02,0.33-0.02c0.27,0,0.49-0.01,0.68-0.02l0.02,3.27
		c0.02,1.5,0.04,2.62,0.04,3.36c0,0.61-0.01,1.57-0.04,2.89c-0.28,0-0.59,0.02-0.93,0.06c-0.06,0-0.14,0.01-0.24,0.02
		s-0.19,0.02-0.29,0.02C135.4,13.89,135.33,13.87,135.33,13.83z"/>
	<path d="M140.1,4.39c0,0.15,0,0.27,0.01,0.35c0.01,0.08,0.01,0.18,0.01,0.29c0.09-0.05,0.21-0.11,0.37-0.17s0.33-0.13,0.52-0.19
		c0.29-0.1,0.64-0.17,1.05-0.22c0.41-0.04,0.78-0.07,1.11-0.07c0.3,0,0.46,0.01,0.46,0.04L143.62,6c0,0.25,0.01,0.44,0.02,0.57
		c-0.19-0.08-0.41-0.15-0.65-0.21c-0.28-0.06-0.58-0.09-0.91-0.09c-0.34,0-0.73,0.05-1.16,0.15c-0.36,0.09-0.6,0.22-0.72,0.4
		c-0.13,0.18-0.18,0.51-0.17,1.01c0.05,1.74,0.08,3.71,0.08,5.91v0.08c-0.22,0.05-0.44,0.08-0.67,0.08c-0.09,0-0.23,0-0.43-0.01
		c-0.2-0.01-0.4,0-0.6,0.01l-0.02-3.27c-0.03-1.49-0.04-2.62-0.04-3.36c0-0.61,0.01-1.57,0.04-2.89c0.13,0.01,0.26,0.02,0.41,0.01
		c0.15-0.01,0.28-0.01,0.39-0.01c0.15-0.01,0.35-0.02,0.61-0.02C140,4.35,140.1,4.36,140.1,4.39z"/>
	<path d="M151.79,11.21v2.55c-0.21-0.03-0.43-0.03-0.65-0.02c-0.22,0.01-0.43,0.03-0.65,0.05c-0.21,0.02-0.42,0.04-0.62,0.05
		s-0.38,0.01-0.54-0.02c-0.03-0.15-0.04-0.4-0.05-0.75c-0.01-0.35-0.01-0.74-0.02-1.18c-0.01-0.44-0.01-0.9-0.01-1.38
		s0-0.95,0.01-1.4c0.01-0.45,0.01-0.85,0.02-1.21c0.01-0.35,0.01-0.63,0.01-0.82c-0.2,0-0.42,0-0.64,0s-0.46,0.01-0.71,0.02
		l-0.06-2.32c0.27,0,0.51,0,0.73,0s0.43,0.01,0.64,0.02c-0.03-0.32-0.02-0.66,0.02-1.03s0.13-0.73,0.28-1.07
		c0.15-0.35,0.35-0.67,0.62-0.95c0.27-0.29,0.61-0.5,1.05-0.64c0.53-0.18,1.11-0.29,1.74-0.33c0.63-0.04,1.24-0.05,1.83-0.03
		c0.06,0.19,0.1,0.4,0.12,0.63c0.02,0.23,0.02,0.46,0.01,0.68c-0.01,0.23-0.03,0.45-0.06,0.67c-0.03,0.21-0.05,0.41-0.08,0.59
		c-0.15-0.01-0.33-0.01-0.52,0s-0.4,0.03-0.62,0.06c-0.22,0.03-0.43,0.05-0.65,0.09c-0.21,0.03-0.41,0.06-0.59,0.08
		c-0.29,0.05-0.47,0.2-0.54,0.45c-0.07,0.25-0.07,0.53-0.01,0.84h2.91c-0.03,0.14-0.03,0.28-0.02,0.41c0.01,0.13,0.01,0.29,0,0.46
		c0,0.14,0,0.25,0,0.33s0,0.17-0.01,0.26c-0.01,0.09-0.02,0.2-0.03,0.34s-0.03,0.33-0.06,0.57c-0.65-0.04-1.19-0.07-1.62-0.09
		c-0.44-0.03-0.85-0.04-1.25-0.06V11.21z"/>
	<path d="M155.63,0.02l2.58,0.06c0,0.52-0.01,1.15-0.02,1.88s-0.03,1.52-0.04,2.36c-0.01,0.84-0.02,1.7-0.03,2.6
		c-0.01,0.9-0.01,1.77-0.01,2.6c0,0.84,0.01,1.62,0.02,2.35c0.01,0.73,0.03,1.35,0.06,1.85c-0.06,0.08-0.22,0.12-0.47,0.12
		c-0.25,0.01-0.53,0.01-0.83,0c-0.3-0.01-0.58-0.02-0.84-0.03c-0.27-0.01-0.44-0.01-0.53,0.02c0.09-1.14,0.12-2.29,0.1-3.44
		c-0.02-1.15-0.05-2.3-0.09-3.46c-0.04-1.15-0.06-2.3-0.07-3.46C155.46,2.32,155.51,1.17,155.63,0.02z"/>
	<path d="M167.14,4.37c0.01,0.08,0.02,0.15,0.03,0.23c0.01,0.08,0.01,0.15,0.01,0.23v0.19c-0.04,1.37-0.03,2.71,0.02,4.04
		s0.03,2.66-0.06,4.02c0,0.16,0,0.33-0.01,0.49c-0.01,0.16-0.08,0.26-0.24,0.28h-0.23c-0.2,0-0.41-0.01-0.62-0.03
		c-0.21-0.02-0.42-0.03-0.62-0.03c-0.14,0-0.28,0.01-0.41,0.03c-0.13,0.02-0.27,0.03-0.41,0.03c-0.09-0.02-0.15-0.08-0.18-0.15
		c-0.03-0.08-0.05-0.17-0.05-0.27c0-0.14,0.01-0.25,0.04-0.34c0.03-0.09,0.04-0.2,0.04-0.32c-0.3,0.3-0.69,0.56-1.15,0.78
		c-0.46,0.22-0.92,0.32-1.36,0.32c-0.49,0-0.92-0.17-1.26-0.51c-0.35-0.34-0.64-0.77-0.87-1.27c-0.23-0.51-0.4-1.06-0.5-1.65
		c-0.11-0.59-0.16-1.15-0.16-1.65c0-0.63,0.08-1.22,0.25-1.75c0.17-0.53,0.39-0.99,0.67-1.38c0.29-0.39,0.62-0.69,1.02-0.91
		c0.39-0.22,0.81-0.34,1.25-0.35c0.23,0,0.44,0,0.64,0.01c0.2,0.01,0.38,0.04,0.54,0.09c0.17,0.06,0.31,0.15,0.44,0.27
		c0.13,0.12,0.23,0.29,0.32,0.5c-0.01-0.2,0-0.38,0.03-0.52c0.03-0.15,0.05-0.29,0.05-0.45c0-0.01,0.04-0.02,0.12-0.03
		c0.08-0.01,0.17-0.01,0.28,0c0.1,0.01,0.2,0.01,0.3,0.01s0.17,0,0.21,0c0.22,0.01,0.48,0.03,0.79,0.04
		C166.38,4.33,166.73,4.34,167.14,4.37z M161.61,8.15c-0.05,0.16-0.08,0.33-0.09,0.5s-0.02,0.34-0.02,0.5
		c0,0.57,0.15,1.05,0.45,1.45c0.3,0.4,0.71,0.6,1.24,0.6c0.32,0,0.55-0.05,0.71-0.16c0.16-0.11,0.27-0.26,0.34-0.46
		c0.07-0.2,0.11-0.44,0.11-0.72c0.01-0.28,0.01-0.6,0.01-0.96c0-0.44,0-0.79-0.01-1.05c-0.01-0.26-0.04-0.46-0.1-0.6
		c-0.06-0.14-0.15-0.23-0.28-0.27c-0.13-0.04-0.33-0.06-0.6-0.06c-0.52,0-0.93,0.12-1.23,0.37C161.85,7.55,161.67,7.83,161.61,8.15z
		"/>
	<path d="M176.13,7.26c-0.41,0.06-0.85,0.1-1.34,0.11c-0.49,0.01-0.95-0.03-1.38-0.11c0.04-0.15,0.02-0.3-0.05-0.46
		c-0.07-0.15-0.17-0.29-0.3-0.4c-0.13-0.11-0.28-0.2-0.46-0.26c-0.17-0.06-0.34-0.08-0.5-0.07c-0.29,0.05-0.51,0.16-0.66,0.33
		c-0.15,0.17-0.22,0.36-0.22,0.56c0,0.2,0.08,0.41,0.23,0.61c0.15,0.2,0.37,0.35,0.67,0.46c0.71,0.1,1.38,0.24,2,0.41
		c0.62,0.17,1.08,0.45,1.37,0.83c0.28,0.46,0.45,0.92,0.51,1.4c0.06,0.47-0.03,1.06-0.27,1.76c-0.29,0.62-0.75,1.06-1.37,1.33
		c-0.62,0.27-1.3,0.39-2.03,0.38c-0.65,0.03-1.23-0.03-1.75-0.17c-0.52-0.14-0.97-0.35-1.34-0.63c-0.37-0.28-0.67-0.62-0.87-1.03
		s-0.31-0.86-0.31-1.37v-0.06v-0.04c0.42-0.05,0.89-0.07,1.42-0.05c0.53,0.02,0.99,0.03,1.39,0.03c0.01,0.29,0.15,0.53,0.41,0.71
		c0.26,0.18,0.53,0.29,0.83,0.32c0.29,0.03,0.56-0.02,0.8-0.16s0.35-0.39,0.34-0.76c0.04-0.3-0.03-0.53-0.21-0.68
		c-0.18-0.15-0.41-0.27-0.7-0.35c-0.29-0.08-0.62-0.15-0.99-0.22c-0.37-0.06-0.73-0.17-1.08-0.32c-0.71-0.24-1.23-0.62-1.55-1.13
		c-0.32-0.51-0.47-1.04-0.46-1.6c0.02-0.55,0.2-1.06,0.53-1.53c0.33-0.47,0.81-0.79,1.43-0.95c0.24-0.06,0.54-0.11,0.88-0.15
		c0.35-0.04,0.72-0.06,1.11-0.06c0.39,0,0.79,0.02,1.18,0.07c0.39,0.04,0.75,0.1,1.08,0.18c0.59,0.25,1.02,0.66,1.27,1.21
		C176,5.96,176.13,6.57,176.13,7.26z"/>
	<path d="M179.56,5.36c0.06-0.04,0.14-0.08,0.24-0.13c0.09-0.05,0.17-0.1,0.24-0.15c0.27-0.19,0.56-0.34,0.89-0.46
		c0.33-0.11,0.67-0.18,1.02-0.19c0.35-0.01,0.69,0.03,1.02,0.11c0.33,0.09,0.63,0.25,0.89,0.47c0.13,0.11,0.22,0.35,0.29,0.71
		c0.07,0.36,0.11,0.79,0.13,1.3c0.02,0.51,0.03,1.06,0.02,1.66s-0.02,1.21-0.03,1.82s-0.03,1.21-0.04,1.78s-0.01,1.07,0.02,1.5
		c-0.44,0.06-0.84,0.09-1.19,0.09c-0.35-0.01-0.75-0.01-1.19-0.01c-0.03-0.29-0.04-0.62-0.04-0.99c0-0.37,0-0.75,0.01-1.14
		c0.01-0.39,0.01-0.79,0-1.18c-0.01-0.39-0.02-0.76-0.05-1.1c-0.01-0.15-0.03-0.32-0.04-0.5s-0.04-0.36-0.07-0.54
		c-0.03-0.18-0.08-0.33-0.13-0.47c-0.06-0.14-0.14-0.25-0.24-0.32c-0.01-0.01-0.03-0.02-0.04-0.02s-0.03-0.01-0.04-0.02
		c-0.1-0.05-0.25-0.09-0.45-0.12c-0.2-0.03-0.39-0.02-0.58,0.04c-0.19,0.06-0.36,0.17-0.51,0.34c-0.15,0.17-0.24,0.43-0.27,0.77
		c-0.03,0.44-0.03,0.88-0.02,1.3c0.01,0.42,0.03,0.85,0.05,1.27c0.02,0.42,0.03,0.85,0.03,1.26s-0.03,0.84-0.08,1.25v0.08
		c-0.22,0.06-0.4,0.1-0.56,0.11c-0.16,0.01-0.32,0.02-0.48,0.01c-0.17-0.01-0.35-0.02-0.55-0.03c-0.2-0.01-0.46-0.01-0.76,0.02
		c0-0.52,0-1.14-0.01-1.87c-0.01-0.73-0.01-1.51-0.02-2.35c-0.01-0.84-0.01-1.7-0.01-2.59c0-0.89,0-1.76,0-2.61s0-1.65,0.01-2.4
		c0.01-0.75,0.02-1.41,0.03-1.97c0.15,0.01,0.28,0.02,0.38,0.03c0.1,0.01,0.2,0.01,0.29,0.01s0.18,0,0.29-0.01
		c0.1-0.01,0.23-0.02,0.38-0.03c0.05,0,0.14-0.01,0.27-0.03c0.13-0.02,0.25-0.03,0.38-0.05c0.13-0.01,0.24-0.02,0.34-0.01
		c0.1,0.01,0.15,0.03,0.15,0.07c0.01,0.06,0.02,0.23,0.02,0.5c0,0.27,0,0.6,0,0.97c0,0.37,0,0.77,0,1.2c0,0.42,0,0.82,0,1.19
		c0,0.37,0,0.68,0,0.95C179.56,5.15,179.56,5.31,179.56,5.36z"/>
	<path d="M185.65,0.02l2.58,0.06c0,0.52-0.01,1.15-0.02,1.88c-0.01,0.73-0.03,1.52-0.04,2.36c-0.01,0.84-0.02,1.7-0.03,2.6
		c-0.01,0.9-0.01,1.77-0.01,2.6c0,0.84,0.01,1.62,0.02,2.35c0.01,0.73,0.03,1.35,0.06,1.85c-0.06,0.08-0.22,0.12-0.48,0.12
		c-0.25,0.01-0.53,0.01-0.83,0c-0.3-0.01-0.58-0.02-0.85-0.03s-0.44-0.01-0.53,0.02c0.09-1.14,0.12-2.29,0.1-3.44
		c-0.02-1.15-0.05-2.3-0.08-3.46c-0.04-1.15-0.06-2.3-0.07-3.46C185.48,2.32,185.53,1.17,185.65,0.02z"/>
	<path d="M191.82,4.28h0.32v0.06c-0.01,1.53-0.04,3.1-0.09,4.69c-0.04,1.6-0.02,3.16,0.07,4.69c-0.06,0.08-0.22,0.12-0.48,0.12
		c-0.25,0.01-0.53,0.01-0.83,0c-0.3-0.01-0.58-0.02-0.85-0.03s-0.44-0.01-0.53,0.02c0.06-0.8,0.09-1.61,0.09-2.43
		c-0.01-0.82-0.02-1.64-0.05-2.45s-0.04-1.61-0.04-2.4c0-0.79,0.04-1.56,0.11-2.31V4.22c0.05-0.01,0.14-0.01,0.26,0
		c0.12,0.01,0.21,0.02,0.28,0.02c0.16,0.01,0.39,0.03,0.68,0.04S191.41,4.29,191.82,4.28z M189.48,0.13l2.58,0.06
		c0,0.08,0,0.21,0.01,0.41c0.01,0.2,0.01,0.41,0.02,0.65c0.01,0.24,0.01,0.48,0.02,0.72c0.01,0.25,0.01,0.46,0.01,0.66
		c-0.05,0.08-0.17,0.13-0.35,0.15c-0.18,0.03-0.4,0.03-0.65,0.03c-0.25-0.01-0.51-0.02-0.79-0.04c-0.28-0.02-0.54-0.02-0.78-0.01
		c0-0.37-0.02-0.75-0.05-1.15C189.48,1.21,189.47,0.72,189.48,0.13z"/>
	<path d="M198.6,17.63c-0.13,0.03-0.36,0.03-0.68,0.02c-0.33-0.01-0.75-0.02-1.27-0.02c-0.6,0-1.13-0.13-1.6-0.38
		c-0.47-0.25-0.85-0.6-1.14-1.03c-0.05-0.09-0.1-0.21-0.14-0.35c-0.04-0.15-0.08-0.29-0.11-0.45c-0.03-0.15-0.05-0.3-0.06-0.44
		c-0.01-0.14,0-0.26,0.01-0.36c0.13-0.05,0.3-0.08,0.51-0.1c0.21-0.02,0.44-0.03,0.67-0.02c0.23,0.01,0.46,0.02,0.68,0.04
		c0.22,0.02,0.41,0.04,0.56,0.07c0,0.33,0.1,0.59,0.31,0.79s0.44,0.31,0.7,0.33c0.26,0.02,0.51-0.04,0.76-0.19s0.41-0.41,0.48-0.76
		c0.01-0.13,0.03-0.26,0.04-0.39s0.01-0.25,0-0.35c-0.03-0.21-0.03-0.44,0-0.67c-0.13,0.14-0.28,0.24-0.45,0.3
		c-0.17,0.06-0.35,0.11-0.55,0.13c-0.2,0.02-0.4,0.04-0.6,0.04c-0.2,0-0.39,0.01-0.57,0.02c-0.24,0-0.48-0.02-0.73-0.06
		c-0.25-0.04-0.48-0.1-0.7-0.19s-0.42-0.21-0.6-0.36c-0.18-0.15-0.32-0.35-0.44-0.59c-0.18-0.34-0.3-0.7-0.38-1.07
		s-0.13-0.76-0.15-1.15c0-0.6,0.01-1.24,0.04-1.92c0.03-0.68,0.14-1.33,0.33-1.93c0.2-0.6,0.51-1.11,0.94-1.52
		c0.43-0.41,1.05-0.64,1.86-0.69c0.41-0.02,0.78,0.03,1.13,0.16s0.6,0.38,0.75,0.73c0.05,0.03,0.08,0,0.08-0.07s0.01-0.16,0-0.27
		c-0.01-0.11-0.01-0.21-0.02-0.32c-0.01-0.11,0.01-0.19,0.05-0.26c0.42-0.05,0.84-0.07,1.27-0.05c0.43,0.02,0.86,0.03,1.29,0.03
		c0.05,1.58,0.08,3.24,0.08,4.97c0.01,1.73-0.03,3.51-0.1,5.33c-0.01,0.3-0.01,0.6,0,0.9c0.01,0.3-0.04,0.55-0.17,0.75
		c-0.18,0.28-0.36,0.5-0.54,0.67c-0.18,0.17-0.36,0.29-0.54,0.39c-0.18,0.09-0.35,0.16-0.53,0.2
		C198.92,17.59,198.75,17.62,198.6,17.63z M195.32,9.33V9.5c0,0.65,0.19,1.2,0.57,1.65c0.23,0.28,0.53,0.45,0.91,0.5
		c0.38,0.06,0.73,0.04,1.06-0.07c0.11-0.04,0.2-0.1,0.27-0.18c0.06-0.08,0.11-0.18,0.15-0.28c0.04-0.11,0.07-0.22,0.08-0.34
		c0.02-0.12,0.04-0.24,0.05-0.35c0-0.51-0.01-1.02-0.03-1.55c-0.02-0.53-0.09-1.03-0.22-1.51c-0.08-0.19-0.2-0.34-0.37-0.45
		s-0.36-0.17-0.56-0.2c-0.2-0.02-0.4-0.01-0.6,0.05s-0.37,0.15-0.52,0.28c-0.19,0.22-0.35,0.45-0.48,0.71s-0.23,0.54-0.28,0.83
		c-0.03,0.13-0.04,0.25-0.04,0.37C195.32,9.08,195.32,9.2,195.32,9.33z"/>
	<path d="M204.8,5.36c0.06-0.04,0.14-0.08,0.24-0.13c0.1-0.05,0.17-0.1,0.24-0.15c0.27-0.19,0.56-0.34,0.89-0.46
		s0.67-0.18,1.02-0.19c0.35-0.01,0.69,0.03,1.02,0.11c0.33,0.09,0.63,0.25,0.89,0.47c0.13,0.11,0.22,0.35,0.29,0.71
		c0.07,0.36,0.11,0.79,0.13,1.3s0.03,1.06,0.02,1.66c-0.01,0.6-0.02,1.21-0.03,1.82s-0.03,1.21-0.04,1.78s-0.01,1.07,0.02,1.5
		c-0.44,0.06-0.84,0.09-1.19,0.09c-0.35-0.01-0.74-0.01-1.19-0.01c-0.03-0.29-0.04-0.62-0.04-0.99c0-0.37,0-0.75,0.01-1.14
		c0.01-0.39,0.01-0.79,0-1.18c-0.01-0.39-0.02-0.76-0.05-1.1c-0.01-0.15-0.03-0.32-0.04-0.5s-0.04-0.36-0.07-0.54
		c-0.03-0.18-0.08-0.33-0.13-0.47c-0.06-0.14-0.14-0.25-0.24-0.32c-0.01-0.01-0.03-0.02-0.04-0.02c-0.01,0-0.03-0.01-0.04-0.02
		c-0.1-0.05-0.25-0.09-0.45-0.12c-0.2-0.03-0.39-0.02-0.58,0.04c-0.19,0.06-0.36,0.17-0.51,0.34c-0.15,0.17-0.24,0.43-0.27,0.77
		c-0.03,0.44-0.03,0.88-0.02,1.3c0.01,0.42,0.03,0.85,0.05,1.27c0.02,0.42,0.03,0.85,0.03,1.26s-0.03,0.84-0.08,1.25v0.08
		c-0.22,0.06-0.4,0.1-0.56,0.11s-0.32,0.02-0.48,0.01c-0.17-0.01-0.35-0.02-0.55-0.03c-0.2-0.01-0.46-0.01-0.76,0.02
		c0-0.52,0-1.14-0.01-1.87c-0.01-0.73-0.01-1.51-0.02-2.35c-0.01-0.84-0.01-1.7-0.01-2.59c0-0.89,0-1.76,0-2.61s0-1.65,0.01-2.4
		c0.01-0.75,0.02-1.41,0.03-1.97c0.15,0.01,0.28,0.02,0.38,0.03c0.1,0.01,0.2,0.01,0.29,0.01c0.09,0,0.18,0,0.28-0.01
		c0.1-0.01,0.23-0.02,0.38-0.03c0.05,0,0.14-0.01,0.27-0.03c0.13-0.02,0.25-0.03,0.38-0.05c0.13-0.01,0.24-0.02,0.34-0.01
		c0.1,0.01,0.15,0.03,0.15,0.07c0.01,0.06,0.02,0.23,0.02,0.5c0,0.27,0,0.6,0,0.97c0,0.37,0,0.77,0,1.2c0,0.42,0,0.82,0,1.19
		c0,0.37,0,0.68,0,0.95C204.8,5.15,204.8,5.31,204.8,5.36z"/>
	<path d="M214.22,0.84v2.55c0,0.17,0,0.34,0.01,0.51c0.01,0.18,0.01,0.36,0.01,0.55c0.39-0.01,0.81-0.03,1.25-0.06
		c0.44-0.02,0.98-0.06,1.62-0.09c0.09,0.1,0.14,0.25,0.15,0.45c0.01,0.2,0.01,0.41,0,0.64c-0.01,0.23-0.03,0.46-0.05,0.69
		c-0.02,0.23-0.02,0.43,0.01,0.6h-2.95c0,0.68,0,1.35,0,2s0.01,1.26,0.02,1.83c0.13,0.18,0.31,0.32,0.55,0.42
		c0.24,0.1,0.5,0.18,0.78,0.24c0.28,0.06,0.56,0.09,0.85,0.1c0.28,0.01,0.53,0.01,0.75,0c0.03,0.18,0.05,0.37,0.08,0.59
		c0.03,0.21,0.04,0.44,0.06,0.67c0.01,0.23,0.01,0.46-0.01,0.68c-0.02,0.23-0.06,0.44-0.12,0.63c-0.51,0.03-1.03,0.02-1.58-0.01
		s-1.06-0.1-1.54-0.22c-0.48-0.11-0.91-0.29-1.28-0.51c-0.37-0.23-0.64-0.54-0.81-0.93c-0.17-0.98-0.26-1.9-0.29-2.76
		c-0.03-0.87-0.03-1.76-0.02-2.69c-0.2,0.01-0.42,0.02-0.64,0.02s-0.47,0-0.73,0l0.06-2.32c0.25,0.01,0.49,0.02,0.71,0.02
		s0.43,0,0.64,0c0-0.28-0.01-0.58-0.02-0.9s-0.02-0.65-0.02-0.98c0-0.33,0-0.65,0.01-0.95c0.01-0.3,0.02-0.58,0.05-0.82
		c0.17-0.03,0.34-0.03,0.54-0.02c0.2,0.01,0.4,0.03,0.62,0.05c0.21,0.02,0.43,0.04,0.65,0.05C213.79,0.87,214,0.86,214.22,0.84z"/>
	<path d="M228.01,4.29c0.29-0.01,0.67,0,1.12,0.04l0.49,0.04c0.03,0.2,0.04,0.35,0.04,0.46v0.19c-0.01,0.29-0.02,0.73-0.02,1.31
		c0,0.48,0.01,1.19,0.04,2.13l0.02,2.13c0,0.91-0.03,1.74-0.08,2.49c0,0.04,0,0.12,0,0.25c0,0.13-0.01,0.24-0.04,0.34
		s-0.09,0.17-0.21,0.19h-0.32l-0.61-0.02c-0.1,0-0.19,0.01-0.27,0.02c-0.08,0.01-0.15,0.02-0.21,0.02
		c-0.13-0.04-0.19-0.18-0.19-0.42c-0.01-0.1-0.01-0.22,0.01-0.34c0.02-0.13,0.03-0.23,0.03-0.32c-0.3,0.42-0.79,0.7-1.44,0.85
		c-0.66,0.15-1.3,0.23-1.94,0.23c-0.61,0-1.12-0.27-1.55-0.81c-0.42-0.54-0.74-1.2-0.94-1.99c-0.2-0.79-0.3-1.55-0.3-2.3
		c0-0.82,0.14-1.56,0.42-2.22c0.28-0.66,0.66-1.18,1.15-1.57c0.49-0.39,1.03-0.59,1.62-0.6l0.61-0.02c0.57,0,1.04,0.07,1.42,0.2
		c0.37,0.13,0.65,0.38,0.83,0.73c0-0.11,0.01-0.26,0.04-0.44c0.02-0.25,0.04-0.43,0.04-0.53C227.77,4.31,227.85,4.29,228.01,4.29z
		 M225.89,6c-0.66-0.01-1.21,0.16-1.66,0.5c-0.45,0.35-0.73,0.76-0.83,1.24c-0.1,0.37-0.15,0.86-0.15,1.48
		c0.06,2.04,0.89,3.01,2.47,2.93c0.65,0,1.11-0.11,1.41-0.34c0.29-0.23,0.47-0.55,0.54-0.97c0.07-0.42,0.1-1.04,0.1-1.88
		c0-0.91-0.04-1.55-0.11-1.93c-0.08-0.37-0.24-0.63-0.48-0.77C226.92,6.13,226.49,6.04,225.89,6z"/>
	<path d="M232.82,4.39c0.03,0.14,0.04,0.32,0.04,0.53V5.4c0.43-0.25,0.94-0.48,1.52-0.67s1.17-0.29,1.75-0.29
		c0.7,0.03,1.27,0.22,1.71,0.59c0.3,0.27,0.46,1.35,0.46,3.25c0,0.48-0.01,1.23-0.04,2.24c-0.03,0.96-0.04,1.66-0.04,2.09
		c0,0.56,0.01,0.96,0.02,1.2c-0.24,0.04-0.59,0.06-1.04,0.06h-0.63c-0.03-0.2-0.04-0.56-0.04-1.06v-0.82l0.02-1.22
		c0.03-0.82,0.03-1.41,0.02-1.77c0-0.08-0.02-0.34-0.05-0.78c-0.03-0.44-0.1-0.84-0.22-1.18c-0.04-0.44-0.35-0.65-0.93-0.61
		c-0.87,0.01-1.52,0.13-1.93,0.36c-0.41,0.23-0.64,0.64-0.69,1.23c-0.01,0.17-0.02,0.48-0.02,0.93c0,0.71,0.01,1.47,0.04,2.28
		c0.03,0.48,0.04,0.84,0.04,1.06c0,0.47-0.02,0.95-0.06,1.44v0.08c-0.24,0.05-0.48,0.07-0.71,0.07c-0.23-0.01-0.4-0.01-0.5-0.01
		c-0.2,0-0.36,0.01-0.48,0.02l-0.02-3.27C231.01,9.13,231,8.01,231,7.26c0-0.61,0.01-1.57,0.04-2.89c0.15,0.01,0.33,0.02,0.53,0.02
		c0.2,0,0.37-0.01,0.49-0.02c0.08,0,0.17-0.01,0.27-0.02c0.1-0.01,0.2-0.02,0.3-0.02C232.76,4.33,232.82,4.35,232.82,4.39z"/>
	<path d="M245.27,0.72V0.51c0.03-0.06,0.33-0.09,0.91-0.09c0.33,0,0.58,0.01,0.74,0.04v1.25c0,1.2,0.03,2.96,0.08,5.26
		c0.01,0.57,0.03,1.25,0.04,2.04c0.01,0.79,0.02,1.69,0.02,2.71c0,0.94-0.01,1.63-0.02,2.09c-0.41,0.02-0.74,0.04-1.01,0.04
		c-0.34,0-0.59-0.01-0.76-0.04c-0.01-0.03-0.02-0.16-0.02-0.4c0-0.33-0.03-0.58-0.1-0.76c-0.09,0.2-0.24,0.41-0.45,0.61
		c-0.21,0.2-0.42,0.32-0.64,0.36c-0.34,0.11-0.72,0.17-1.14,0.17c-0.2,0-0.35-0.01-0.46-0.02c-0.9-0.06-1.58-0.35-2.03-0.85
		s-0.76-1.11-0.9-1.84s-0.23-1.62-0.26-2.67c0-1.06,0.14-1.94,0.43-2.63c0.29-0.69,0.78-1.13,1.49-1.32c0.47-0.13,1-0.19,1.6-0.19
		c0.48,0,0.85,0.03,1.12,0.09c0.25,0.04,0.48,0.12,0.68,0.26c0.2,0.13,0.36,0.27,0.48,0.42c0.11,0.15,0.18,0.25,0.19,0.31
		l-0.02-1.62c0-0.33,0-0.62-0.01-0.88c-0.01-0.26,0-0.47,0.01-0.62c0.01-0.06,0.02-0.14,0.01-0.24c-0.01-0.1-0.01-0.18-0.01-0.26
		v-0.4C245.25,1.06,245.25,0.85,245.27,0.72z M243.42,5.7l-0.36-0.02c-0.68,0-1.21,0.17-1.58,0.5c-0.37,0.34-0.58,0.86-0.63,1.57
		c-0.04,0.28-0.06,0.7-0.06,1.25c0.03,0.84,0.13,1.49,0.31,1.95c0.18,0.46,0.44,0.79,0.76,0.97c0.32,0.18,0.75,0.28,1.28,0.28
		c0.61,0,1.06-0.14,1.37-0.43c0.3-0.29,0.5-0.66,0.59-1.13c0.09-0.47,0.13-1.08,0.13-1.84c-0.01-0.72-0.05-1.29-0.12-1.69
		s-0.23-0.74-0.49-0.99S243.97,5.73,243.42,5.7z"/>
	<path d="M252.2,6.93V4.39c0.2,0.03,0.42,0.03,0.64,0.02s0.44-0.03,0.66-0.05c0.22-0.02,0.42-0.03,0.62-0.05
		c0.2-0.01,0.38-0.01,0.54,0.02c0.04,0.3,0.06,0.67,0.06,1.09c0,0.42,0,0.85-0.01,1.27c-0.01,0.42-0.02,0.83-0.03,1.22
		c-0.01,0.39-0.01,0.69,0.02,0.92c0,0.62,0,1.21,0.01,1.78c0.01,0.56,0.01,1.12,0,1.67c-0.01,0.55-0.03,1.11-0.08,1.67
		c-0.04,0.56-0.12,1.15-0.22,1.76c-0.16,0.39-0.43,0.7-0.81,0.93c-0.37,0.23-0.8,0.4-1.28,0.51s-0.99,0.19-1.54,0.22
		c-0.54,0.03-1.07,0.03-1.58,0.01c-0.06-0.19-0.1-0.4-0.12-0.63c-0.02-0.23-0.02-0.46-0.01-0.68c0.01-0.23,0.03-0.45,0.06-0.67
		c0.03-0.22,0.05-0.41,0.08-0.59c0.22,0.01,0.47,0.01,0.75,0c0.29-0.01,0.57-0.05,0.85-0.1c0.28-0.06,0.54-0.14,0.78-0.24
		c0.24-0.1,0.42-0.24,0.55-0.42c0.01-0.53,0.02-1.11,0.02-1.73c0-0.62,0-1.25,0-1.88s0-1.25,0.01-1.86
		C252.16,7.98,252.17,7.43,252.2,6.93z M252.09,0.13l2.53,0.06c0,0.08,0,0.21,0.01,0.41c0.01,0.2,0.01,0.41,0.02,0.65
		c0.01,0.24,0.01,0.48,0.02,0.72c0.01,0.25,0.01,0.46,0.01,0.66c-0.05,0.08-0.17,0.13-0.34,0.15c-0.18,0.03-0.38,0.03-0.62,0.03
		c-0.23-0.01-0.49-0.02-0.77-0.04c-0.28-0.02-0.54-0.02-0.78-0.01c0-0.37-0.02-0.75-0.05-1.15C252.08,1.21,252.07,0.72,252.09,0.13z
		"/>
	<path d="M263.69,4.37c0.01,0.08,0.02,0.15,0.03,0.23c0.01,0.08,0.01,0.15,0.01,0.23v0.19c-0.04,1.37-0.03,2.71,0.02,4.04
		c0.05,1.32,0.03,2.66-0.06,4.02c0,0.16,0,0.33-0.01,0.49c-0.01,0.16-0.08,0.26-0.24,0.28h-0.23c-0.2,0-0.41-0.01-0.62-0.03
		c-0.21-0.02-0.42-0.03-0.62-0.03c-0.14,0-0.28,0.01-0.41,0.03c-0.13,0.02-0.27,0.03-0.41,0.03c-0.09-0.02-0.15-0.08-0.18-0.15
		c-0.03-0.08-0.05-0.17-0.05-0.27c0-0.14,0.01-0.25,0.04-0.34c0.03-0.09,0.04-0.2,0.04-0.32c-0.3,0.3-0.69,0.56-1.15,0.78
		c-0.46,0.22-0.92,0.32-1.36,0.32c-0.49,0-0.92-0.17-1.26-0.51c-0.35-0.34-0.64-0.77-0.86-1.27c-0.23-0.51-0.4-1.06-0.5-1.65
		c-0.11-0.59-0.16-1.15-0.16-1.65c0-0.63,0.08-1.22,0.25-1.75c0.16-0.53,0.39-0.99,0.67-1.38c0.29-0.39,0.62-0.69,1.02-0.91
		c0.39-0.22,0.81-0.34,1.25-0.35c0.23,0,0.44,0,0.64,0.01c0.2,0.01,0.38,0.04,0.54,0.09c0.16,0.06,0.31,0.15,0.44,0.27
		s0.23,0.29,0.32,0.5c-0.01-0.2,0-0.38,0.03-0.52c0.03-0.15,0.05-0.29,0.05-0.45c0-0.01,0.04-0.02,0.12-0.03
		c0.08-0.01,0.17-0.01,0.28,0c0.1,0.01,0.2,0.01,0.3,0.01c0.1,0,0.17,0,0.21,0c0.22,0.01,0.48,0.03,0.79,0.04
		S263.29,4.34,263.69,4.37z M258.17,8.15c-0.05,0.16-0.08,0.33-0.09,0.5s-0.02,0.34-0.02,0.5c0,0.57,0.15,1.05,0.45,1.45
		c0.3,0.4,0.71,0.6,1.24,0.6c0.32,0,0.55-0.05,0.71-0.16s0.27-0.26,0.34-0.46s0.11-0.44,0.11-0.72c0.01-0.28,0.01-0.6,0.01-0.96
		c0-0.44,0-0.79-0.01-1.05c-0.01-0.26-0.04-0.46-0.09-0.6c-0.06-0.14-0.15-0.23-0.29-0.27s-0.33-0.06-0.6-0.06
		c-0.52,0-0.93,0.12-1.23,0.37S258.23,7.83,258.17,8.15z"/>
	<path d="M272.4,10.18c-0.03,0.33-0.05,0.65-0.08,0.97s-0.06,0.61-0.09,0.88c-0.04,0.27-0.09,0.51-0.14,0.7
		c-0.06,0.2-0.13,0.34-0.22,0.43c-0.21,0.3-0.5,0.52-0.85,0.65c-0.35,0.13-0.72,0.21-1.13,0.24c-0.41,0.03-0.82,0.03-1.25,0
		c-0.43-0.03-0.82-0.05-1.18-0.05c-0.65-0.11-1.19-0.39-1.63-0.84c-0.34-0.3-0.58-0.68-0.7-1.14c-0.13-0.46-0.2-0.93-0.23-1.43
		s-0.03-1-0.01-1.51c0.02-0.51,0-0.97-0.05-1.39c0-0.46,0.04-0.91,0.11-1.37c0.01-0.14,0.06-0.33,0.13-0.57
		c0.08-0.24,0.13-0.42,0.17-0.55c0.09-0.19,0.23-0.35,0.43-0.49c0.2-0.14,0.42-0.26,0.68-0.35c0.26-0.09,0.54-0.16,0.84-0.2
		c0.3-0.04,0.6-0.06,0.9-0.06c0.25,0.03,0.5,0.03,0.73,0.01c0.23-0.02,0.48-0.02,0.75,0.01c0.41,0.03,0.79,0.1,1.16,0.23
		c0.37,0.13,0.68,0.32,0.95,0.57c0.18,0.13,0.31,0.3,0.41,0.51c0.1,0.22,0.17,0.47,0.22,0.76c0.05,0.29,0.08,0.62,0.09,0.98
		c0.01,0.36,0.02,0.75,0.03,1.17c-0.17,0.04-0.35,0.06-0.56,0.06s-0.42-0.01-0.65-0.02s-0.44-0.03-0.65-0.06s-0.4-0.05-0.56-0.08
		c-0.06-0.44-0.25-0.79-0.55-1.04c-0.3-0.25-0.7-0.31-1.2-0.18c-0.27,0.08-0.48,0.21-0.65,0.42c-0.08,0.05-0.13,0.18-0.17,0.38
		c-0.05,0.39-0.08,0.79-0.08,1.2s-0.01,0.83-0.04,1.27c-0.03,0.29,0.05,0.52,0.22,0.68c0.17,0.16,0.38,0.28,0.62,0.33
		c0.24,0.06,0.49,0.07,0.74,0.04c0.25-0.03,0.46-0.1,0.61-0.2c0.13-0.09,0.22-0.24,0.29-0.45c0.07-0.21,0.12-0.4,0.16-0.56
		c0.13,0.01,0.3,0.02,0.51,0.01c0.22-0.01,0.44-0.02,0.68-0.03c0.24-0.01,0.47-0.02,0.68-0.01
		C272.08,10.12,272.26,10.15,272.4,10.18z"/>
	<path d="M276.1,0.04V4.2c0,0.42-0.01,0.86-0.03,1.33c-0.02,0.47-0.01,0.85,0.03,1.14c0.22-0.19,0.4-0.4,0.56-0.63
		c0.16-0.23,0.31-0.46,0.45-0.69c0.14-0.23,0.28-0.47,0.43-0.71c0.15-0.24,0.31-0.47,0.5-0.68c0.16,0.06,0.38,0.1,0.65,0.1
		c0.27,0.01,0.54,0.01,0.83,0c0.29-0.01,0.57-0.02,0.84-0.04c0.28-0.02,0.51-0.02,0.68-0.01c-0.47,0.72-0.98,1.43-1.52,2.14
		c-0.54,0.7-1.08,1.41-1.61,2.12c0.57,0.92,1.14,1.84,1.72,2.75s1.11,1.85,1.59,2.82c-0.18,0-0.4,0.01-0.67,0.03
		c-0.27,0.02-0.55,0.04-0.84,0.05c-0.29,0.01-0.57,0.01-0.85,0s-0.5-0.04-0.69-0.08c-0.19-0.3-0.36-0.61-0.52-0.93
		c-0.16-0.32-0.31-0.63-0.47-0.94s-0.31-0.62-0.48-0.92s-0.36-0.6-0.58-0.87c0,0.23,0.01,0.49,0.02,0.8s0.02,0.62,0.02,0.95
		s-0.01,0.66-0.02,1c-0.01,0.34-0.04,0.64-0.09,0.92c-0.14-0.01-0.31-0.02-0.52-0.01c-0.21,0.01-0.43,0.02-0.66,0.03
		c-0.23,0.01-0.46,0.02-0.69,0.02s-0.45-0.01-0.64-0.04c-0.09-2.36-0.11-4.67-0.06-6.93s0.07-4.55,0.06-6.86c0.19,0,0.4,0,0.64-0.01
		c0.23-0.01,0.47-0.01,0.7-0.02C275.09,0,275.32,0,275.53,0C275.75,0,275.94,0.01,276.1,0.04z"/>
	<path d="M283.53,9.06v0.34c0.01,0.38,0.03,0.69,0.05,0.93c0.02,0.24,0.1,0.47,0.24,0.7c0.15,0.29,0.37,0.51,0.65,0.65
		c0.28,0.14,0.55,0.18,0.82,0.13s0.49-0.21,0.67-0.47s0.26-0.65,0.24-1.17c0.13,0.01,0.3,0.02,0.51,0.01
		c0.22-0.01,0.44-0.02,0.67-0.03s0.46-0.02,0.67-0.01c0.21,0.01,0.39,0.03,0.53,0.07c-0.03,0.33-0.05,0.65-0.08,0.97
		c-0.03,0.32-0.06,0.61-0.1,0.88c-0.04,0.27-0.08,0.51-0.14,0.7c-0.06,0.2-0.13,0.33-0.22,0.41c-0.22,0.3-0.49,0.52-0.84,0.65
		c-0.34,0.13-0.72,0.2-1.12,0.23c-0.41,0.03-0.82,0.03-1.25,0c-0.42-0.03-0.81-0.04-1.17-0.04c-0.35-0.05-0.68-0.17-0.99-0.34
		c-0.34-0.24-0.63-0.55-0.85-0.94c-0.23-0.39-0.41-0.81-0.55-1.27c-0.14-0.46-0.23-0.95-0.29-1.47c-0.05-0.52-0.06-1.04-0.04-1.56
		c0.04-0.47,0.08-0.92,0.12-1.36c0.04-0.44,0.14-0.86,0.29-1.28c0.16-0.37,0.42-0.68,0.76-0.94s0.73-0.46,1.16-0.59
		c0.43-0.13,0.89-0.21,1.37-0.22s0.95,0.04,1.41,0.15c0.58,0.1,1.05,0.3,1.41,0.61c0.35,0.3,0.62,0.67,0.81,1.1s0.29,0.91,0.33,1.42
		s0.04,1.04,0,1.58c-0.09,0.03-0.26,0.05-0.5,0.08s-0.54,0.05-0.87,0.08c-0.34,0.03-0.69,0.04-1.07,0.06
		c-0.38,0.01-0.75,0.02-1.09,0.02c-0.35,0-0.66-0.01-0.94-0.02C283.86,9.11,283.66,9.09,283.53,9.06z M285.83,6.12
		c-0.1-0.06-0.2-0.11-0.3-0.14s-0.22-0.05-0.36-0.05c-0.3,0-0.55,0.03-0.74,0.1c-0.19,0.06-0.34,0.15-0.46,0.27
		c-0.11,0.11-0.2,0.25-0.26,0.4c-0.06,0.15-0.1,0.31-0.12,0.47c-0.03,0.14-0.04,0.24-0.03,0.29c0.01,0.06,0.07,0.09,0.18,0.11
		c0.11,0.02,0.29,0.03,0.54,0.02c0.25-0.01,0.61-0.01,1.09-0.01c0.33,0,0.58,0.01,0.74,0.02c0.17,0.01,0.28,0.02,0.35,0.01
		c0.07-0.01,0.1-0.03,0.1-0.06s0-0.1,0-0.2c0-0.25-0.07-0.49-0.2-0.72C286.24,6.4,286.06,6.23,285.83,6.12z"/>
	<path d="M293.01,0.84v2.55c0,0.17,0,0.34,0.01,0.51c0.01,0.18,0.01,0.36,0.01,0.55c0.39-0.01,0.81-0.03,1.25-0.06
		c0.44-0.02,0.98-0.06,1.62-0.09c0.09,0.1,0.14,0.25,0.15,0.45c0.01,0.2,0.01,0.41,0,0.64c-0.01,0.23-0.03,0.46-0.05,0.69
		c-0.02,0.23-0.02,0.43,0.01,0.6h-2.95c0,0.68,0,1.35,0,2s0.01,1.26,0.02,1.83c0.13,0.18,0.31,0.32,0.55,0.42
		c0.24,0.1,0.5,0.18,0.78,0.24c0.28,0.06,0.56,0.09,0.85,0.1c0.28,0.01,0.53,0.01,0.75,0c0.03,0.18,0.05,0.37,0.08,0.59
		c0.03,0.21,0.04,0.44,0.06,0.67c0.01,0.23,0.01,0.46-0.01,0.68c-0.02,0.23-0.06,0.44-0.12,0.63c-0.51,0.03-1.03,0.02-1.58-0.01
		s-1.06-0.1-1.54-0.22c-0.48-0.11-0.91-0.29-1.28-0.51c-0.37-0.23-0.64-0.54-0.81-0.93c-0.17-0.98-0.26-1.9-0.29-2.76
		c-0.03-0.87-0.03-1.76-0.02-2.69c-0.2,0.01-0.42,0.02-0.64,0.02s-0.47,0-0.73,0l0.06-2.32c0.25,0.01,0.49,0.02,0.71,0.02
		s0.43,0,0.64,0c0-0.28-0.01-0.58-0.02-0.9s-0.02-0.65-0.02-0.98c0-0.33,0-0.65,0.01-0.95c0.01-0.3,0.02-0.58,0.05-0.82
		c0.17-0.03,0.34-0.03,0.54-0.02c0.2,0.01,0.4,0.03,0.62,0.05c0.21,0.02,0.43,0.04,0.65,0.05C292.58,0.87,292.8,0.86,293.01,0.84z"
		/>
	<path d="M297.61,0.49h0.06c0.09-0.01,0.24-0.03,0.46-0.06c0.22-0.03,0.41-0.04,0.57-0.04c0.19,0,0.38,0.02,0.57,0.06
		c-0.05,2.43-0.08,4.33-0.08,5.68c0,1.33,0.03,2.79,0.09,4.37c-0.29,0.04-0.62,0.06-0.99,0.08s-0.61,0.02-0.72,0.02h-0.02l0.02-1.29
		l-0.02-2.62c-0.03-1.14-0.04-2.01-0.04-2.6C297.51,2.7,297.55,1.51,297.61,0.49z M298.58,13.81h-1.01c-0.04,0-0.06-0.1-0.06-0.29
		c0-0.28,0.02-0.59,0.06-0.93c0.01-0.15,0.03-0.31,0.04-0.48s0.02-0.34,0.02-0.52v-0.02c0.14-0.06,0.34-0.1,0.59-0.1l0.51,0.02
		c0.23,0.03,0.41,0.04,0.53,0.04l-0.02,0.65c-0.03,0.74-0.04,1.28-0.04,1.63h-0.13h-0.47H298.58z"/>
</g>
</svg>
