<!-- Generator: Adobe Illustrator 23.1.1, SVG Export Plug-In  -->
<svg version="1.1" xmlns="http://www.w3.org/2000/svg" xmlns:xlink="http://www.w3.org/1999/xlink" x="0px" y="0px"
	 width="289.16px" height="360.17px" viewBox="0 0 289.16 360.17" style="enable-background:new 0 0 289.16 360.17;"
	 xml:space="preserve">
<style type="text/css">
	.st0{fill:#BCCBD7;}
	.st1{fill:#E1EBF4;}
	.st2{fill:#ECA382;}
	.st3{fill:#C38A70;}
	.st4{fill:#748696;}
</style>
<defs>
</defs>
<g>
	<path class="st0" d="M265.47,137.24c2.39,8.28,4.79,16.55,8.08,24.53c0.95,2.29,1.14,4.78,2.05,7.13
		c1.59,4.09,3.12,8.36,3.62,12.67c0.43,3.65-0.44,7.51-1.07,11.22c-0.79,4.62-1.16,9.1-0.77,13.88c0.45,5.49-1.34,10.93-5.33,15.23
		c-2.33-0.32-4.46,0.28-6.15,1.84c-1.77,1.63-3.63,3.07-5.79,4.11c-1.9,0.92-2.85,2.19-2.06,4.42c0.58,1.62-0.08,2.55-1.82,3
		c-2.74,0.71-5.45,1.55-8.11,2.51c-6.92,2.47-14.07,4.16-21.06,6.4c-6.19,1.98-12.53,3.95-19.27,3.89
		c-3.36-0.03-6.74,1.37-10.09,1.32c-6.75-0.1-13.4,0.52-20.03,1.64c-6.93,1.17-13.49,3.71-20.25,5.41
		c-8.63,2.16-17.2,4.56-25.84,6.72c-7.78,1.94-15.23,5.84-23.61,3.25c-5.63,1.46-11.29-0.12-16.87-0.36
		c-7.01-0.31-14.05-0.37-21.06-0.86c-2.34-0.16-4.68-0.41-7.02-0.62c0.12-5.48-0.37-10.96-0.87-16.37
		c-0.74-7.97-1.06-15.97-1.81-23.94c-0.44-4.7-0.29-9.45-0.78-14.14c-0.67-6.37-1.14-12.75-1.56-19.15
		c-0.24-3.64,0.02-7.32-0.74-10.93c0.14-1.08,0.66-2.03,0.56-3.21c-0.92-10.93-2.14-21.84-2.61-32.8c1.25-0.28,2.48,0.12,3.77,0.01
		c4.6-0.38,9.09-2.11,13.79-1.17c0.32,1.07,0.18,2.28,1.03,3.18c0.02,3.41,1.16,6.65,1.5,10c0.09,0.87,0.73,1.22,1.2,1.75
		c-0.04,0.37-0.08,0.74-0.12,1.12c-0.52,0.17-1.06,0.51-1.57,0.47c-3.02-0.28-3.06,1.42-2.59,3.64c0.54,2.52,1.04,5.05,1.41,7.59
		c0.18,1.22,0.66,2.03,1.73,2.62c1.2,0.66,2.32,1.48,3.5,2.17c1.34,0.78,1.71,1.65,1.42,3.35c-0.64,3.69-1.69,7.4-1.38,11.16
		c0.16,1.94,1.37,3.73-0.54,5.52c-0.63,0.59-0.21,1.75-0.05,2.67c0.88,4.98,1.69,9.98,2.62,14.95c0.26,1.38,0.02,3.15,1.59,3.91
		c2.75,1.34,3.19,3.8,3.4,6.4c0.09,1.06,0.35,1.8,1.54,1.86c0.08,1.84,0.33,3.66,0.91,5.42c0.48,2.71,1.15,5.39,1.39,8.12
		c0.19,2.22,1.3,2.64,3.12,2.32c8.31-1.46,16.61-2.93,24.92-4.42c2.05-0.37,3.38-1.08,2.63-3.69c-0.68-2.36-0.86-4.86-1.21-7.31
		c-0.09-0.65-0.35-1.01-1-1.09c-0.06-0.61-0.11-1.22-0.17-1.83c0.15-0.17,0.44-0.36,0.42-0.5c-0.07-0.42-0.44-0.42-0.79-0.37
		c0.11-0.58,0.21-1.16,0.32-1.73c0.04-0.82,0.29-1.7,0.1-2.46c-0.73-2.86-0.73-5.46,1.8-7.53c0.57-0.46,0.34-1.15,0.22-1.81
		c-0.92-5.25-1.79-10.51-2.69-15.76c-0.33-1.91-0.65-3.8-2.65-4.84c-0.64-0.33-1.07-0.92-0.75-1.84c0.43-1.22-0.05-2.41-0.6-3.46
		c-1.05-2.03-2.51-3.87-3.36-5.97c-0.88-2.18-3.53-4.48-0.94-6.93c3.35-3.18,3.36-6.8,2.27-10.79c-0.17-0.62-0.36-1.24-0.46-1.88
		c-0.65-3.92-0.64-3.92-4.5-3.04c-0.09-4.91-2.66-9.64-1.08-14.67c0.5-0.64,0.89-1.24,1.88-1.44c5.93-1.18,11.88-2.21,17.7-3.92
		c3.87-1.13,8-1.42,11.82-2.68c6.74-2.21,13.86-2.66,20.56-4.99c5.76-2,11.99-1.12,17.92-2.25c0.9-0.17,2.07-1.34,2.97,0.13
		c-1.05,5.26-1.35,7.86,2.92,8.63c0.36,2.59,0.73,5.18,1.09,7.77c-1.27,0.53-3.91-0.31-3.57,1.82c0.85,5.46,0.09,11.88,6.97,14.61
		c1.16,0.46,1.58,1.56,1.18,3.2c-1.07,4.33-1.78,8.76-0.8,13.25c0.2,0.92,0.19,1.89-0.6,2.58c-0.92,0.8-0.79,1.71-0.6,2.76
		c1.03,5.8,1.98,11.62,2.98,17.43c0.23,1.33,0.81,2.39,2.22,2.89c1.46,0.52,2,1.68,2.18,3.22c0.17,1.47-0.07,3.19,1.55,4.15
		c1.12,1.65,0.11,3.82,1.33,5.45c-0.15,2.41,0.4,4.75,0.91,7.07c0.67,3.05,1.67,3.83,4.56,3.33c8.15-1.41,16.28-2.97,24.44-4.34
		c1.55-0.26,2.24-1.05,2.07-2.35c-0.34-2.77-0.51-5.61-1.78-8.19c0.26-0.95,0.18-1.88-0.06-2.82c0.21-0.63,0.42-1.27-0.51-1.52
		c0.13-0.6,0.29-1.21-0.14-1.77c0-0.55,0.04-1.11-0.01-1.66c-0.27-2.91-0.94-5.9,2.09-7.98c0.66-0.45,0.28-1.16,0.17-1.79
		c-0.97-5.44-1.93-10.88-2.87-16.33c-0.22-1.27-0.04-2.89-1.28-3.5c-1.86-0.92-2.12-2.39-2.1-4.1c0.01-1.07-0.35-1.97-0.86-2.87
		c-1.59-2.79-3.1-5.62-4.73-8.38c-0.63-1.07-0.52-1.95,0.31-2.73c3.66-3.42,4.06-7.48,2.83-12.13c-1.26-4.78-1.07-4.83-5.96-4.76
		c0.5-1.47,1.14-2.95-0.13-4.38c-0.43-3.32-0.3-6.76-2.09-9.79c4.81-1.55,9.63-3.1,14.44-4.65c0.64,3.73,1.44,7.44,3.09,10.86
		c2.07,4.29,3.55,8.77,4.63,13.4c0.49,2.12,1.52,3.96,3.01,5.45c0.95,0.94,2.33,1.8,3.31-0.2c0.91-0.1,1.81-0.27,2.72-0.29
		c4.4-0.11,8.01-2.99,12.31-3.44c2.58-0.27,4.8-1.41,7.07-2.69C261.98,138.4,263.49,137.07,265.47,137.24z M254,198.55
		c0.24-3.98-1.91-7.33-2.75-11.02c-1.21-5.28-3.65-10.21-4.9-15.58c-1.69-7.24-5.25-13.95-6.53-21.36
		c-0.19-1.13-0.81-2.28-1.99-2.76c-0.68-0.28-1.52-0.18-2.02,0.52c-0.73,1.03-1.21,2.08-0.02,3.19c0.27,0.25,0.17,0.88,0.29,1.32
		c1.42,5.2,3.56,10.18,5.33,15.25c2.42,6.94,5.13,13.84,8.18,20.56C251.08,191.95,251.64,195.64,254,198.55z"/>
	<path class="st1" d="M72.79,142.86c-4.7-0.94-9.2,0.79-13.8,1.17c-1.29,0.11-2.52-0.3-3.77-0.01c-2.04-2.73-2.16-6.19-3.5-9.18
		c1.28-1.61,0.01-3.05-0.42-4.47c-1.82-6-3.75-11.97-5.7-17.92c-0.62-1.88-0.33-3.99-1.51-5.71c0.17-2.3,0.56-4.56,0.59-6.88
		c0.09-7.43,0.29-14.87,0.57-22.3c0.05-1.45-0.48-2.46-1.35-3.44c1.24-0.27,1.63-1.13,1.46-2.27c-0.71-4.72,1.15-9.44,0.4-14.04
		c-0.8-4.88,2.11-6.76,5.19-9.19c4.63-3.65,8.98-7.63,14.1-10.66c1.33-0.79,2.56-1.31,4.07-1.38c1.75-0.09,3.46-0.39,4.78-1.72
		c0.79,0.57,1.7,0.75,2.61,0.56c3.64-0.73,7.38-0.97,10.92-2.21c3.91,0.41,7.76,0.02,11.58-0.88c0.7-0.16,1.46-0.23,2.17-0.14
		c1.09,0.13,2.49-0.07,3.1-0.62c0.95,6.55,2.6,12.94,4.11,19.37c1.26,5.37,2.11,10.83,3.15,16.26c0.06,0.64,0.12,1.28,0.17,1.92
		c0.29,3.35,1.78,5.02,5.3,6.18c3.03,0.99,6.28,1.81,9.23,3.32c1.09,0.56,2.62,2.16,4.24,0.71c3.94-3.55,7.85-7.13,11.76-10.72
		c0.18-0.16,0.37-0.53,0.3-0.72c-1.21-3.45-0.5-7.29-2.16-10.65c-0.03-0.39-0.07-0.77-0.1-1.16c0.15-0.65-0.11-1.02-0.77-1.12
		c-1.48-9.41-4.49-18.49-6.17-27.86c1.82-0.8,3.17-2.66,5.29-2.67c3.53-0.02,6.5-1.8,9.68-2.85c1.98-0.66,3.7-1.45,2.38-4.4
		c-0.77-1.72-0.6-3.47-2.53-5.02c-1.39-1.11-2.98-1.13-4.07-2.02c-2.93-2.39-6.03-2.68-9.5-1.92c-5.64,1.23-11.41,0.65-17.11,1.1
		c-3.16,0.25-6.23,0.91-9.5,0.86c-3.18-0.05-7.24-0.37-9.64,2.3c-2.33,2.59-5.07,4.11-7.99,5.68c-1.56,0.84-2.06,3.26-1.42,4.41
		c2.03,3.66-1.07,6.08-1.57,9.08c-1.22-3.39-0.39-6.91-0.63-10.37c-0.15-2.12,0.73-4.03,2.9-5.18c2.17-1.15,4.12-2.75,6.31-3.87
		c2.27-1.17,4.26-3.2,6.92-3.25c5.03-0.08,10.04-0.54,15.06-0.72c5.94-0.21,11.82-1.07,17.74-1.46c7.82-0.53,14.69,3.39,17.04,10.87
		c0.48,1.53,1.23,2.38,3.26,1.86c2.72-0.7,5.5-1.68,8.42-0.86c0.68,0.19,0.92-0.46,1.09-1.01c2.02,2,4.41,1.94,7.13,1.95
		c3.62,0.02,7.23,1.16,10.85,1.77c4.84,0.81,9.85,0.56,14.56,2.26c0.75,0.27,1.62,0.13,1.98,1.19c1.1,3.18,3.38,5.77,4.42,9.04
		c0.89,2.76,2.3,5.37,3.61,7.98c0.32,0.64,1.19,0.84,1.96,0.88c-0.59,1.71-0.54,3.21,0.46,4.92c1.55,2.65,2.77,5.53,3.89,8.41
		c2.19,5.61,4.92,10.94,7.96,16.12c-0.2,3.08,1.41,5.43,3.15,7.72c0.17,1.28,0.55,2.57,0.47,3.83c-0.59,9.91-0.5,19.84-0.48,29.76
		c0,1.05-0.12,2.03-1.1,2.67c-4.81,1.55-9.63,3.1-14.44,4.65c-1,0.09-2,0.27-3.01,0.26c-7.47-0.02-14.8,1.39-22.21,2.06
		c-1.56-0.76-2.43-0.57-4.35,0.97c-0.71-0.02-1.41-0.04-2.12-0.06c-0.9-1.48-2.07-0.31-2.97-0.13c-5.94,1.13-12.16,0.24-17.92,2.25
		c-6.71,2.33-13.83,2.79-20.56,4.99c-3.82,1.25-7.95,1.54-11.82,2.68c-5.82,1.71-11.78,2.74-17.7,3.92c-0.99,0.2-1.38,0.8-1.88,1.44
		c-4.35,0.52-8.67,1.52-13.07,1.48c-3.41-0.03-6.72,0.78-10.13,0.89C79.1,141.64,75.8,141.6,72.79,142.86z"/>
	<path class="st2" d="M79.82,300.33c-2.95-0.74-3.73-3.18-4.46-5.66c-2.75-7.91-5.91-15.65-9.68-23.15c-0.61-1.22-1.5-2.95-0.6-4.21
		c0.95-1.34,2.87-1.46,4.36-1.02c3.32,0.97,6.75,0.47,10.07,0.67c2.47,0.15,5.06,0.57,7.62,0.36c3.41-0.28,6.83-0.64,10.23,0.32
		c1.12,0.31,2.39,0.23,3.57,0.12c2.21-0.21,4.43-0.15,6.49,0.58c2.88,1.02,5.87,0.78,8.6,0.21c4.64-0.98,9.27-2.14,13.89-3.26
		c5.04-1.22,9.94-2.99,14.95-4.32c3.28-0.87,6.68-1.32,9.99-2.08c9.12-2.11,17.89-5.45,27.5-5.68c6.95-0.16,13.94-1.07,20.92-1.45
		c1-0.05,2.03-0.48,2.98-0.34c6.18,0.89,12.02-0.71,17.68-2.74c5.44-1.95,10.89-3.71,16.58-4.68c1.24-0.21,2.65,0.01,3.4,0.83
		c1.21,1.31,2.71,2.21,3.95,3.44c1.05,1.05,1.45,1.95,1.13,3.61c-0.54,2.8-1.51,5.55-1.7,8.37c-0.24,3.56-1.78,6.19-4.5,8.28
		c-0.88,0.67-1.96,1.17-2.65,1.99c-3.97,4.7-8.92,8.45-12.84,13.15c-3.82,4.59-8.64,7.05-14.34,8.08
		c-9.41,1.71-18.84,3.31-28.23,5.09c-4.76,0.9-9.47,2.12-14.19,3.16c-11.66,2.57-23.47,4.45-35.23,6.58
		c-3.96,0.72-8.01,2.29-11.94,1.57c-11.66-2.12-23.2-4.92-34.86-7.1c-2.27-0.42-4.53-2.24-7.06-0.83
		C80.92,300.26,80.37,300.29,79.82,300.33z"/>
	<path class="st3" d="M81.47,300.23c2.52-1.41,4.79,0.4,7.06,0.83c11.65,2.18,23.19,4.98,34.86,7.1c3.93,0.71,7.97-0.85,11.94-1.57
		c11.76-2.13,23.57-4.02,35.23-6.58c4.72-1.04,9.43-2.25,14.19-3.16c9.39-1.79,18.82-3.39,28.23-5.09
		c5.7-1.03,10.52-3.49,14.34-8.08c3.92-4.7,8.87-8.45,12.84-13.15c0.69-0.82,1.77-1.31,2.65-1.99c2.72-2.09,4.26-4.72,4.5-8.28
		c0.19-2.82,1.16-5.57,1.7-8.37c0.32-1.66-0.08-2.56-1.13-3.61c-1.24-1.24-2.75-2.13-3.95-3.44c-0.75-0.82-2.16-1.04-3.4-0.83
		c-5.69,0.98-11.14,2.73-16.58,4.68c-5.66,2.03-11.5,3.62-17.68,2.74c-0.96-0.14-1.98,0.29-2.98,0.34
		c-6.98,0.38-13.97,1.29-20.92,1.45c-9.61,0.22-18.39,3.57-27.5,5.68c-3.31,0.77-6.71,1.21-9.99,2.08
		c-5.01,1.33-9.91,3.1-14.95,4.32c-4.62,1.12-9.24,2.28-13.89,3.26c-2.73,0.57-5.72,0.81-8.6-0.21c-2.07-0.73-4.28-0.79-6.49-0.58
		c-1.18,0.11-2.46,0.2-3.57-0.12c-3.41-0.96-6.82-0.6-10.23-0.32c-2.56,0.21-5.15-0.21-7.62-0.36c-3.32-0.2-6.75,0.3-10.07-0.67
		c-1.49-0.43-3.41-0.31-4.36,1.02c-0.9,1.27-0.01,3,0.6,4.21c3.77,7.5,6.93,15.24,9.68,23.15c-0.51,0.19-1.01,0.38-1.51,0.57
		c-1.69-0.2-1.49-1.93-2.27-2.87c-3.35-4.06-6.48-8.29-9.76-12.41c-2.28-2.86-4.64-5.77-8.22-7.01c-4.2-1.47-7.64-4.07-11.08-6.73
		c0.28-1.74,1.38-3.08,2.24-4.53c1.63-0.62,3.13-0.3,4.81,0.16c4.41,1.2,8.89,2.18,13.45,2.71c2.34,0.21,4.68,0.46,7.02,0.62
		c7.01,0.49,14.05,0.55,21.06,0.86c5.58,0.25,11.23,1.82,16.87,0.36c8.38,2.59,15.83-1.31,23.61-3.25
		c8.63-2.15,17.21-4.56,25.84-6.72c6.76-1.69,13.32-4.24,20.25-5.41c6.63-1.12,13.27-1.74,20.03-1.64
		c3.36,0.05,6.73-1.36,10.09-1.32c6.74,0.07,13.09-1.91,19.27-3.89c6.99-2.24,14.15-3.92,21.06-6.4c2.66-0.95,5.38-1.79,8.11-2.51
		c1.73-0.45,2.4-1.38,1.82-3c-0.8-2.22,0.16-3.5,2.06-4.42c2.16-1.04,4.02-2.47,5.79-4.11c1.69-1.56,3.82-2.16,6.15-1.84
		c2.87,3.25,6.47,5.78,9.08,9.28c-1.81,2.32-1.76,5.38-2.96,7.86c-2.86,5.9-4.11,12.32-6.21,18.44c-1.8,5.28-3.63,9.56-9.31,11.17
		c-0.54-0.13-1.14-0.14-1.6-0.41c-3.8-2.19-3.82-2.23-6.78,0.92c-1.94,2.06-4.31,3.75-5.64,6.36c-6.48,5.51-12.04,11.89-17.61,18.27
		c-0.82,0.1-1.71,0.14-1.68,1.32c-1.12,0.76-2.24,1.52-3.36,2.28c-12.74,2.24-25.49,4.47-38.23,6.73
		c-18.44,3.27-36.88,6.56-55.31,9.85c-3.47,0.62-6.81,0.98-10.27-0.6c-2.43-1.11-5.24-1.38-7.88-2.03
		c-0.38-0.08-0.76-0.16-1.14-0.23c-1.05-2.17-3.18-1.32-4.86-1.74c-0.41,0.04-0.81,0.08-1.22,0.12c0,0,0.04-0.24,0.04-0.24
		c-0.16-0.56-0.56-0.77-1.11-0.74c-3.02-0.82-6.2-1.28-9.01-2.56c-4.23-1.93-8.6-2.99-13.14-3.64c-0.39-0.24-0.79-0.48-1.18-0.72
		C82.72,300.76,81.78,300.77,81.47,300.23z"/>
	<path class="st2" d="M265.47,137.24c-1.98-0.17-3.48,1.17-4.97,2c-2.27,1.28-4.49,2.42-7.07,2.69c-4.31,0.44-7.92,3.33-12.31,3.44
		c-0.91,0.02-1.81,0.19-2.72,0.29c-1.57-2.56-2.64-5.34-3.64-8.16c-1.61-4.54-2.4-9.33-4.37-13.76c-0.43-0.96-0.72-1.97-0.21-2.94
		c1.67-3.2,1.77-6.7,1.86-10.15c0.09-3.53-0.31-7.08,0.38-10.58c0.28-1.39-0.07-2.78,0.08-4.08c0.31-2.69-0.87-5.55,1.24-8.11
		c1.11-1.35,1.55-3.24-0.15-4.97c-1.51-1.54-1.6-3.64-1.34-5.7c0.08-0.62,0.67-1.25,0.24-1.85c-2.46-3.38-2.23-8.76-7.48-10.1
		c-0.4-0.1-0.89-0.5-1.02-0.87c-0.63-1.74-2.08-2.47-3.61-3.16c-0.66-0.3-1.56-0.61-1.29-1.52c0.3-1.01,1.26-0.95,2.1-0.75
		c0.94,0.23,1.98,0.99,2.59-0.44c0.51-1.19,1.05-2.45,0.16-3.69c-1.21-1.7-2.19-3.63-4.1-4.73c-2.11-1.21-2.58-3.16-1.96-5.25
		c0.47-1.59,0.2-3.12-0.53-4.24c-1.23-1.88-1.37-3.95-1.84-5.98c0.8-4.58,4.16-8.23,8.77-9.02c1.72-0.29,3.44-0.59,5.16-0.92
		c1.92-0.36,3.77-0.06,5.21,1.21c5.53,4.87,11.82,8.74,17.46,13.47c1.41,1.18,1.86,2.37,1.62,4.07c-1.23,8.88-4.45,16.95-9.04,24.65
		c-3.47,5.83-6.19,12.09-9.23,18.17c-0.99,1.98-0.63,3.35,1.16,5.03c4.6,4.31,10.52,7.27,13.88,12.8
		c4.56,7.52,8.79,15.25,13.14,22.89c0.72,1.27,1.23,2.7,2.08,3.87C267.34,133.13,267.54,135.19,265.47,137.24z"/>
	<path class="st0" d="M36.41,254.02c-2.37-0.93-2.15-3.61-2.36-5.12c-0.94-6.58-4.99-11.56-7.95-17.05c-1.99-3.69-3-7.32-3.04-11.52
		c-0.07-8.57-0.83-17.15-0.79-25.72c0.02-4.55-0.55-9.1-0.09-13.65c1.68,1.14,3.45,1.08,5.4,0.76c1.75-0.28,3.7-0.14,5.37-0.35
		c2.47-0.32,4.85,0.25,7.32-0.14c4.08-0.65,8.27-1.81,12.42-0.13c-0.88,4.58-0.54,9.27-0.39,13.83c0.15,4.7-0.09,9.42,0.11,14.13
		c0.24,5.68-0.04,11.41-0.12,17.12c-0.03,2.08,0.48,4.22-0.02,6.25c-0.87,3.52-0.62,7.19-0.43,10.61c0.2,3.51-0.09,5.93-3.32,7.39
		c-3.33,1.5-6.2,4.87-10.5,2.75C37.15,252.74,36.6,253.1,36.41,254.02z"/>
	<path class="st2" d="M44.09,106.74c1.19,1.72,0.9,3.83,1.51,5.71c1.95,5.96,3.88,11.93,5.7,17.92c0.43,1.42,1.7,2.85,0.42,4.47
		c-1.26-3.34-2.61-6.66-3.58-10.12c0.19,3.19,1.16,6.17,1.9,9.21c1.21,4.99,2.91,10.01,2.35,15.44c-0.23,2.27,0.01,4.72-0.16,7.08
		c-0.33,4.44,1.21,8.9,0.26,13.27c-0.62,2.85,0.82,5.64-0.36,8.45c-0.47,1.13-0.99,1.44-2,1.3c-3.99-0.56-7.91,0.55-11.88,0.48
		c-5.6-0.09-11.31,1.68-16.75-1.03c-2.46,0.32-2.93-1.26-2.62-3.1c1.77-10.63,3.51-21.26,5.49-31.85
		c1.06-5.65,4.89-10.04,7.59-14.93c1.02-1.85,2.23-3.58,2.49-5.74c1.12,0.16,2.01-0.12,2.36-1.32c0.25-0.87,0.65-1.62,1.12-2.42
		C40.33,115.46,43.39,111.65,44.09,106.74z"/>
	<path class="st2" d="M29.79,118.86c-4.26-2.93-7.58-6.9-11.48-10.24c-2.8-2.4-5.36-5.07-8.17-7.45c-4.56-3.86-6.79-9.28-9.81-14.18
		c-0.58-0.93-0.33-1.66,0.23-2.53C5,77.59,9.39,70.69,13.82,63.83c0.39-0.6,0.88-1.36,1.66-1.34c3.36,0.1,6.54-0.89,9.79-1.45
		c2.38-0.41,3.71,1.07,5.31,2.28c3.44,2.61,6.71,5.4,9.76,8.45c-1.08,1.98,0.46,4.01-0.04,5.93c-1.05,4.02,0.57,7.9,0.39,11.92
		c-0.26,5.69,2.09,11.56-1.86,16.85c-0.31,0.42-0.37,1.04-0.54,1.56c-0.84,2.48-2.15,4.58-4.41,6.07
		C32.1,115.28,30.59,116.79,29.79,118.86z"/>
	<path class="st2" d="M87.41,33.21c-3.54,1.24-7.28,1.48-10.92,2.21c-0.91,0.18-1.82,0-2.61-0.56c0.97-4.4,0.7-8.92,1.54-13.37
		c0.71-3.74,2.35-6.31,5.54-8.3c5.04-3.16,9.79-6.8,14.91-9.82c3.3-1.95,7.34-1.94,11.06-1.98c3.96-0.04,7.9-0.4,11.86-0.43
		c4.39-0.03,8.78-0.32,13.16-0.44c2.29-0.07,4.67-0.08,6.84-0.36c4.82-0.62,8.87,0.59,12.71,3.2c4.22,2.86,9.25,4.72,11.88,9.56
		c0.35,0.65,0.64,1.33,0.96,2c-0.05,0.82,0.04,1.56,1.03,1.77c0.04,0.32,0.08,0.64,0.12,0.96c-0.18,0.55-0.41,1.19-1.09,1
		c-2.93-0.81-5.71,0.16-8.42,0.86c-2.03,0.52-2.78-0.33-3.26-1.86c-2.35-7.48-9.22-11.39-17.04-10.87
		c-5.92,0.4-11.8,1.26-17.74,1.46c-5.02,0.18-10.03,0.64-15.06,0.72c-2.65,0.04-4.65,2.08-6.92,3.25c-2.19,1.13-4.13,2.72-6.31,3.87
		c-2.17,1.15-3.05,3.06-2.9,5.18c0.24,3.45-0.59,6.98,0.63,10.37C87.39,32.17,87.4,32.69,87.41,33.21z"/>
	<path class="st2" d="M42.53,266.21c3.44,2.66,6.87,5.27,11.08,6.73c3.58,1.25,5.94,4.15,8.22,7.01c3.28,4.12,6.41,8.35,9.76,12.41
		c0.78,0.94,0.58,2.67,2.27,2.87c-1.55,5.25-4.81,7.82-10.45,9c-5.14,1.08-8.75,0.06-12.5-3.11c-4.49-3.8-9.23-7.3-13.88-10.91
		c-1.28-0.99-1.7-2.19-1.56-3.85c0.58-6.89,2.62-13.3,6.08-19.27C41.75,266.73,42.19,266.5,42.53,266.21z"/>
	<path class="st1" d="M229.35,295.12c-0.02-1.18,0.86-1.22,1.68-1.32c0.71,1.7,0.08,3.77,1.36,5.44c3.58-4.63,5.91-6.7,12.08-10.19
		c1.98-1.12,4.39-0.68,6.08-2.28c0.97,4.93,1.57,9.97,3.01,14.76c1.71,5.71,2.75,11.51,3.89,17.33c0.25,1.3,0.29,2.62-0.44,3.42
		c-1.78,1.93-1.83,4.39-2.44,6.64c-1.13,4.18-3.58,5.31-7.3,2.88c-2.84-1.85-5.46-4.02-8.3-5.87c-2.94-1.91-3.24-4.83-3.58-7.89
		c-0.64-5.74-2.58-11.19-4.03-16.75c-0.41-1.59-0.64-3.24-0.86-4.88C230.4,295.66,230.12,295.21,229.35,295.12z"/>
	<path class="st4" d="M36.41,254.02c0.2-0.92,0.74-1.28,1.61-0.86c4.3,2.12,7.17-1.25,10.5-2.75c3.23-1.46,3.51-3.88,3.32-7.39
		c-0.19-3.42-0.44-7.09,0.43-10.61c0.5-2.03-0.01-4.17,0.02-6.25c0.08-5.71,0.36-11.44,0.12-17.12c-0.2-4.71,0.03-9.42-0.11-14.13
		c-0.14-4.56-0.49-9.24,0.39-13.83c1.53-0.35,3.06-0.71,4.59-1.06c0.76,3.61,0.5,7.29,0.74,10.93c0.42,6.39,0.89,12.77,1.56,19.15
		c0.49,4.69,0.34,9.44,0.78,14.14c0.75,7.97,1.07,15.96,1.81,23.94c0.5,5.4,1,10.89,0.87,16.37c-4.56-0.53-9.04-1.51-13.45-2.71
		c-1.68-0.46-3.18-0.79-4.81-0.16C40.51,260.74,38.8,257,36.41,254.02z"/>
	<path class="st1" d="M109.17,321.16c-0.73,6.37,2.57,12.03,3.2,18.2c0.43,4.22,1.24,7.84-2.75,11.18
		c-2.73,2.28-4.35,5.88-6.95,8.52c-1.54,1.55-2.75,1.51-3.99-0.35c-1.37-2.06-2.98-3.9-4.71-5.7c-2.63-2.73-2.31-6.66-2.96-10.13
		c-1.51-8.03-2.75-16.12-4.2-24.16c-0.22-1.2-0.28-2.37-0.31-3.57c3.54,1.23,7.35,1.51,10.82,3.03
		C101.11,319.83,104.96,321.2,109.17,321.16z"/>
	<path class="st3" d="M215.51,34.66c0.47,2.03,0.61,4.1,1.84,5.98c0.73,1.11,1.01,2.64,0.53,4.24c-0.62,2.09-0.14,4.04,1.96,5.25
		c1.91,1.1,2.88,3.03,4.1,4.73c0.88,1.24,0.35,2.5-0.16,3.69c-0.61,1.42-1.65,0.66-2.59,0.44c-0.84-0.2-1.8-0.26-2.1,0.75
		c-0.27,0.92,0.63,1.23,1.29,1.52c1.53,0.69,2.97,1.42,3.61,3.16c0.14,0.37,0.62,0.77,1.02,0.87c5.24,1.34,5.01,6.72,7.48,10.1
		c0.44,0.6-0.16,1.23-0.24,1.85c-0.26,2.06-0.17,4.17,1.34,5.7c1.7,1.73,1.26,3.62,0.15,4.97c-2.11,2.56-0.93,5.42-1.24,8.11
		c-0.15,1.29,0.19,2.68-0.08,4.08c-0.69,3.5-0.29,7.05-0.38,10.58c-0.09,3.45-0.19,6.95-1.86,10.15c-0.51,0.97-0.21,1.98,0.21,2.94
		c1.97,4.42,2.76,9.22,4.37,13.76c1,2.82,2.06,5.6,3.64,8.16c-0.98,2.01-2.36,1.15-3.31,0.2c-1.49-1.48-2.52-3.33-3.01-5.45
		c-1.07-4.62-2.56-9.1-4.63-13.4c-1.65-3.42-2.45-7.13-3.09-10.86c0.98-0.64,1.1-1.62,1.1-2.67c-0.02-9.92-0.11-19.84,0.48-29.76
		c0.08-1.26-0.3-2.55-0.47-3.83c-0.15-1.07-0.63-2.22-0.4-3.2c0.6-2.55-0.92-3.57-2.75-4.52c-3.04-5.18-5.77-10.51-7.96-16.12
		c-1.12-2.87-2.34-5.75-3.89-8.41c-1-1.72-1.05-3.21-0.46-4.92C211.89,40.07,212.94,36.85,215.51,34.66z"/>
	<path class="st2" d="M262.66,268.66c5.68-1.61,7.5-5.89,9.31-11.17c2.09-6.12,3.35-12.54,6.21-18.44c1.2-2.48,1.15-5.54,2.96-7.86
		c0.33,0.15,0.79,0.2,0.97,0.45c2.61,3.62,5.27,7.2,6.85,11.44c0.38,1.03,0.24,1.79-0.4,2.79c-3.98,6.16-7.85,12.4-11.69,18.64
		c-0.67,1.09-1.65,2.07-2.65,2.32C270.44,267.78,266.64,268.9,262.66,268.66z"/>
	<path class="st0" d="M109.17,321.16c-4.21,0.04-8.06-1.33-11.85-2.99c-3.46-1.52-7.27-1.8-10.82-3.03
		c-1.39-4.17-1.67-8.56-2.65-12.82c4.54,0.65,8.91,1.71,13.14,3.64c2.81,1.28,5.99,1.73,9.01,2.56c0.06,0.71,0.35,1.08,1.11,0.74
		c0,0-0.04,0.24-0.04,0.24C107.78,313.39,108.48,317.28,109.17,321.16z"/>
	<path class="st3" d="M29.79,118.86c0.8-2.07,2.31-3.57,4.09-4.75c2.26-1.49,3.57-3.59,4.41-6.07c0.18-0.52,0.23-1.14,0.54-1.56
		c3.95-5.3,1.6-11.17,1.86-16.85c0.18-4.03-1.44-7.91-0.39-11.92c0.5-1.92-1.04-3.95,0.04-5.93c1.19,0.78,2.37,1.56,3.56,2.34
		c0.87,0.98,1.41,1.99,1.35,3.44c-0.28,7.43-0.48,14.86-0.57,22.3c-0.03,2.32-0.42,4.59-0.59,6.88c-0.71,4.92-3.77,8.72-6.16,12.82
		c-0.47,0.8-0.87,1.55-1.12,2.42c-0.35,1.2-1.23,1.49-2.36,1.32C32.97,121.75,31.03,120.67,29.79,118.86z"/>
	<path class="st3" d="M57.27,180.03c-1.53,0.35-3.06,0.71-4.59,1.06c-4.15-1.68-8.34-0.52-12.42,0.13
		c-2.47,0.39-4.85-0.18-7.32,0.14c-1.67,0.21-3.62,0.07-5.37,0.35c-1.96,0.32-3.72,0.38-5.4-0.76c-0.68-0.53-0.53-1.33-0.66-2.04
		c5.44,2.71,11.15,0.95,16.75,1.03c3.97,0.06,7.89-1.05,11.88-0.48c1.01,0.14,1.53-0.17,2-1.3c1.17-2.81-0.26-5.6,0.36-8.45
		c0.95-4.37-0.58-8.83-0.26-13.27c0.17-2.37-0.07-4.82,0.16-7.08c0.55-5.43-1.14-10.45-2.35-15.44c-0.74-3.03-1.71-6.01-1.9-9.21
		c0.97,3.46,2.31,6.78,3.58,10.12c1.33,2.99,1.46,6.45,3.5,9.18c0.47,10.97,1.69,21.87,2.61,32.8
		C57.94,178.01,57.42,178.96,57.27,180.03z"/>
	<path class="st0" d="M250.55,286.78c-1.69,1.6-4.1,1.16-6.08,2.28c-6.17,3.49-8.5,5.55-12.08,10.19c-1.28-1.67-0.64-3.74-1.36-5.44
		c5.57-6.38,11.13-12.77,17.61-18.27C249.49,279.24,250.37,282.95,250.55,286.78z"/>
	<path class="st2" d="M114.3,311.35c2.64,0.65,5.45,0.92,7.88,2.03c3.46,1.58,6.79,1.22,10.27,0.6c18.43-3.29,36.87-6.58,55.31-9.85
		c12.74-2.26,25.49-4.49,38.23-6.73c-0.39,1.19-1.42,1.31-2.43,1.49c-21.28,3.73-42.56,7.47-63.84,11.2
		c-10.64,1.86-21.28,3.68-31.9,5.62c-1.38,0.25-2.44-0.05-3.68-0.55c-2.39-0.95-4.89-1.63-7.36-2.36
		C115.82,312.51,114.76,312.47,114.3,311.35z"/>
	<path class="st2" d="M108.3,309.38c1.68,0.42,3.81-0.43,4.86,1.74C111.45,310.8,109.58,310.92,108.3,309.38z"/>
	<path class="st0" d="M81.47,300.23c0.31,0.54,1.24,0.53,1.21,1.38c-1.13-0.03-2.28-0.03-2.86-1.28
		C80.37,300.29,80.92,300.26,81.47,300.23z"/>
	<path class="st1" d="M165.37,16.69c-0.99-0.22-1.08-0.95-1.03-1.77C165.54,15,165.45,15.85,165.37,16.69z"/>
	<path class="st4" d="M193.74,206.35c-1.62-0.97-1.38-2.69-1.55-4.16c-0.18-1.54-0.71-2.7-2.18-3.22c-1.41-0.5-1.99-1.56-2.22-2.89
		c-1-5.81-1.96-11.63-2.98-17.43c-0.19-1.06-0.31-1.96,0.6-2.76c0.79-0.69,0.8-1.66,0.6-2.58c-0.98-4.49-0.27-8.92,0.8-13.25
		c0.41-1.64-0.02-2.74-1.18-3.2c-6.88-2.73-6.11-9.14-6.97-14.61c-0.33-2.13,2.3-1.29,3.57-1.82c5.5-0.93,11.05-1.67,16.5-2.85
		c4.45-0.96,9.1-0.87,13.39-2.62c4.89-0.06,4.7-0.01,5.96,4.76c1.23,4.65,0.83,8.71-2.83,12.13c-0.83,0.78-0.94,1.66-0.31,2.73
		c1.63,2.76,3.14,5.59,4.73,8.38c0.51,0.9,0.87,1.81,0.86,2.87c-0.01,1.7,0.24,3.18,2.1,4.1c1.25,0.62,1.07,2.23,1.28,3.5
		c0.93,5.45,1.89,10.89,2.87,16.33c0.11,0.63,0.49,1.34-0.17,1.79c-3.03,2.07-2.36,5.06-2.09,7.98c0.05,0.55,0.01,1.11,0.01,1.66
		c-1,0.1-2.01,0.13-3,0.3C212.28,203.11,203.01,204.73,193.74,206.35z M194.48,175.07c5.15-1.4,10.52-1.46,15.73-2.75
		c5.75-1.42,6.01-1.47,4.2-6.88c-0.21-0.62-0.22-1.33-1.07-1.4c-5.81-0.46-11.6-2.28-17.24,1.35c-5.23,3.37-5.31,3.12-4.14,7.84
		C192.35,174.81,193.05,175.2,194.48,175.07z M214.61,173.98c-0.56,0.04-0.84,0.05-1.11,0.08c-6.47,0.78-12.73,2.75-19.24,3.34
		c-1.8,0.17-1.63,1.46-1.2,2.69c0.45,1.27-0.28,3.44,2.49,2.91c6.51-1.24,13.04-2.34,19.56-3.49c0.98-0.17,2.28,0,1.67-1.67
		C216.25,176.4,217.11,174.02,214.61,173.98z M185.27,148.81c4.19-0.75,8.26-1.49,12.34-2.19c4.72-0.81,9.45-1.55,14.16-2.42
		c0.87-0.16,2.24-0.2,1.95-1.77c-0.24-1.3-1.05-1.08-2.1-0.9c-4.08,0.71-8.2,1.18-12.27,1.88c-4.71,0.81-9.4,1.8-14.1,2.65
		c-1,0.18-1.49,0.57-1.41,1.62C183.91,148.71,184.57,148.84,185.27,148.81z M195.27,196.2c2.11-0.36,4.56-0.78,7.01-1.21
		c6.08-1.08,12.15-2.18,18.22-3.27c0.75-0.14,1.6-0.32,1.4-1.32c-0.18-0.9-0.99-1.01-1.78-0.87c-8.5,1.52-17,3.02-25.49,4.61
		c-0.69,0.13-1.97,0.12-1.8,1.28C193,196.59,194.15,196.04,195.27,196.2z"/>
	<path class="st4" d="M106.46,153.84c3.86-0.88,3.85-0.88,4.5,3.04c0.1,0.63,0.29,1.26,0.46,1.88c1.09,3.98,1.08,7.61-2.27,10.79
		c-2.58,2.45,0.07,4.75,0.94,6.93c0.84,2.1,2.3,3.94,3.36,5.97c0.54,1.05,1.02,2.24,0.6,3.46c-0.32,0.92,0.11,1.51,0.75,1.84
		c2,1.04,2.32,2.94,2.65,4.84c0.9,5.25,1.77,10.51,2.69,15.76c0.11,0.66,0.34,1.35-0.22,1.81c-2.54,2.07-2.53,4.67-1.8,7.53
		c0.19,0.76-0.05,1.64-0.1,2.46c-2.97-0.25-5.81,0.6-8.69,1.1c-7.29,1.27-14.57,2.65-21.85,3.98c-1.19-0.06-1.45-0.81-1.54-1.86
		c-0.22-2.6-0.66-5.06-3.4-6.4c-1.57-0.76-1.33-2.53-1.59-3.91c-0.93-4.97-1.74-9.97-2.62-14.95c-0.16-0.92-0.58-2.08,0.05-2.67
		c1.91-1.79,0.71-3.58,0.54-5.52c-0.32-3.76,0.74-7.47,1.38-11.16c0.29-1.7-0.08-2.57-1.42-3.35c-1.19-0.69-2.3-1.5-3.5-2.17
		c-1.07-0.59-1.55-1.4-1.73-2.62c-0.37-2.55-0.87-5.07-1.41-7.59c-0.47-2.21-0.43-3.91,2.59-3.64c0.5,0.05,1.05-0.3,1.57-0.47
		c1.31-0.15,2.57,0.97,3.81,0.38c4.58-2.2,9.68-1.96,14.43-3.27C98.53,154.95,102.74,155.74,106.46,153.84z M108.67,188.11
		c-0.76-1.39,0.38-4.3-1.55-4.91c-3.26-1.03-6.73-1.69-10.25-1.69c-3.16,0-5.52,1.8-8.07,3.22c-1.44,0.8-3.13,1.36-4.26,2.47
		c-1.73,1.71,0.79,3.08,0.83,4.72c0.05,2.09,1.48,2.14,2.92,1.89c6.26-1.06,12.49-2.22,18.75-3.28
		C108.36,190.31,108.75,189.61,108.67,188.11z M89.35,201.63c6.22-1.07,12.97-2.08,19.64-3.46c2.72-0.56,0.47-2.79,0.71-4.21
		c0.2-1.22-0.73-1.61-2.05-1.35c-6.49,1.26-13,2.49-19.52,3.56c-2.17,0.35-2.12,1.72-2.05,3.21
		C86.18,201.06,87.14,201.85,89.35,201.63z M105.03,160.05c-3.16,0.55-6.33,1.12-9.49,1.65c-5.71,0.95-11.34,2.32-17.12,2.87
		c-1.19,0.11-1.4,1.06-1.28,2.07c0.16,1.34,0.99,0.91,1.84,0.76c8.78-1.57,17.56-3.1,26.35-4.61c0.84-0.14,1.77-0.05,1.67-1.29
		C106.9,160.31,106.07,160.01,105.03,160.05z M87.83,215.04c4.48-0.76,9.02-1.52,13.55-2.3c4.17-0.72,8.34-1.47,12.51-2.2
		c0.64-0.11,1.36-0.1,1.43-0.97c0.09-1.04-0.68-1.09-1.44-1.26c-0.99-0.22-1.81-0.42-2.88,0.15c-1.17,0.63-2.62,0.78-3.96,1.02
		c-6.51,1.15-13.02,2.25-19.53,3.36c-0.8,0.14-1.51,0.44-1.46,1.35C86.13,215.3,87.1,214.95,87.83,215.04z"/>
	<path class="st2" d="M76.51,157.8c-0.47-0.53-1.11-0.88-1.2-1.75c-0.34-3.36-1.48-6.59-1.5-10c0.52-0.83,0.91-1.53,2.19-1.7
		c2.55-0.33,5.13-0.17,7.62-0.17c4.82-0.01,9.6,0.09,14.38-0.78c4.34-0.79,4.35-0.69,5.97,3.53c0.16,0.42,0.55,0.76,0.71,1.18
		c1.51,4.08,0.62,5.37-3.7,5.84c-2.82,0.31-5.62,0.91-8.42,1.38C87.22,156.23,81.93,157.41,76.51,157.8z"/>
	<path class="st2" d="M118.22,224.59c0.65,0.07,0.91,0.43,1,1.09c0.35,2.45,0.53,4.95,1.21,7.31c0.75,2.61-0.58,3.33-2.63,3.69
		c-8.3,1.48-16.61,2.96-24.92,4.42c-1.82,0.32-2.93-0.1-3.12-2.32c-0.23-2.73-0.9-5.42-1.39-8.12c1.27-0.07,2.53-0.07,3.82-0.3
		c7-1.28,14.05-2.32,21.03-3.71C114.93,226.3,117.28,226.96,118.22,224.59z"/>
	<path class="st2" d="M225.27,207.31c1.27,2.58,1.44,5.42,1.78,8.19c0.16,1.31-0.53,2.09-2.07,2.35
		c-8.16,1.37-16.29,2.93-24.44,4.34c-2.88,0.5-3.89-0.28-4.56-3.33c-0.51-2.32-1.06-4.66-0.91-7.07c0.34,0.12,0.71,0.38,1.03,0.33
		c4.41-0.75,8.81-1.55,13.21-2.32C214.61,208.88,219.87,207.64,225.27,207.31z"/>
	<path class="st3" d="M184.7,123.12c7.4-0.67,14.74-2.08,22.21-2.06c1,0,2-0.17,3.01-0.26c1.79,3.03,1.65,6.47,2.09,9.79
		c-2.86,0.51-5.79,0.04-8.63,0.45c-4.87,0.71-9.78,0.67-14.66,1.16c-0.85,0.09-2.41,0.16-1.99-1.08c1.06-3.12-1.14-4.51-2.77-6.23
		C182.72,123.58,183.89,123.47,184.7,123.12z"/>
	<path class="st2" d="M184.7,123.12c-0.81,0.34-1.98,0.46-0.75,1.76c1.63,1.73,3.84,3.11,2.77,6.23c-0.42,1.24,1.14,1.17,1.99,1.08
		c4.88-0.49,9.79-0.45,14.66-1.16c2.84-0.41,5.77,0.06,8.63-0.45c1.27,1.42,0.63,2.9,0.12,4.38c-4.29,1.74-8.94,1.66-13.39,2.62
		c-5.45,1.18-11,1.92-16.5,2.85c-0.36-2.59-0.72-5.18-1.09-7.77c0.17-0.16,0.33-0.32,0.5-0.47c2.51-0.29,3.62-2.39,2.11-4.3
		c-0.8-1.02-1.74-2.13-3.24-2.29c-0.05-0.5-0.11-1-0.16-1.51C182.27,122.55,183.13,122.36,184.7,123.12z"/>
	<path class="st3" d="M225.27,207.31c-5.4,0.33-10.65,1.56-15.95,2.49c-4.41,0.77-8.8,1.57-13.21,2.32
		c-0.32,0.05-0.69-0.21-1.03-0.33c-1.21-1.63-0.21-3.8-1.33-5.45c9.27-1.62,18.54-3.24,27.81-4.84c0.99-0.17,2-0.2,3-0.3
		c0.44,0.56,0.27,1.16,0.15,1.76c-0.48,0.72-0.41,1.26,0.51,1.52C225.44,205.43,225.53,206.37,225.27,207.31z"/>
	<path class="st3" d="M118.22,224.59c-0.95,2.37-3.3,1.71-4.99,2.05c-6.98,1.39-14.03,2.43-21.03,3.71
		c-1.29,0.24-2.55,0.24-3.82,0.3c-0.58-1.76-0.83-3.58-0.91-5.42c7.28-1.33,14.55-2.71,21.85-3.98c2.87-0.5,5.71-1.35,8.69-1.1
		c-0.11,0.58-0.22,1.16-0.32,1.73c0.12,0.29,0.25,0.58,0.38,0.87C118.11,223.37,118.17,223.98,118.22,224.59z"/>
	<path class="st4" d="M254,198.55c-2.37-2.91-2.92-6.6-4.41-9.88c-3.05-6.72-5.76-13.62-8.18-20.56c-1.77-5.08-3.9-10.05-5.33-15.25
		c-0.12-0.44-0.02-1.06-0.29-1.32c-1.19-1.12-0.71-2.17,0.02-3.19c0.49-0.7,1.34-0.79,2.02-0.52c1.17,0.48,1.79,1.63,1.99,2.76
		c1.28,7.41,4.85,14.13,6.53,21.36c1.25,5.36,3.69,10.3,4.9,15.58C252.1,191.22,254.24,194.57,254,198.55z"/>
	<path class="st3" d="M76.51,157.8c5.42-0.38,10.71-1.57,16.05-2.46c2.81-0.47,5.6-1.08,8.42-1.38c4.31-0.47,5.21-1.76,3.7-5.84
		c-0.16-0.42-0.55-0.76-0.71-1.18c-1.62-4.22-1.63-4.32-5.97-3.53c-4.78,0.86-9.55,0.77-14.38,0.78c-2.49,0.01-5.08-0.15-7.62,0.17
		c-1.28,0.16-1.67,0.87-2.19,1.7c-0.84-0.9-0.71-2.12-1.02-3.18c3.01-1.26,6.31-1.22,9.4-1.32c3.41-0.11,6.72-0.92,10.13-0.89
		c4.4,0.04,8.71-0.96,13.07-1.48c-1.58,5.03,0.99,9.76,1.08,14.67c-3.72,1.9-7.93,1.11-11.84,2.19c-4.75,1.31-9.85,1.06-14.43,3.27
		c-1.23,0.59-2.5-0.53-3.81-0.38C76.43,158.54,76.47,158.17,76.51,157.8z"/>
	<path class="st4" d="M181.65,132.19c-0.17,0.16-0.33,0.32-0.5,0.47c-4.27-0.77-3.97-3.37-2.92-8.63c0.71,0.02,1.41,0.04,2.12,0.06
		c0.05,0.5,0.11,1.01,0.16,1.51C180.89,127.79,181.27,129.99,181.65,132.19z"/>
	<path class="st2" d="M225.2,204.5c-0.92-0.26-0.99-0.8-0.51-1.52C225.63,203.23,225.41,203.86,225.2,204.5z"/>
	<path class="st2" d="M118.06,222.76c-0.13-0.29-0.25-0.58-0.38-0.87c0.35-0.05,0.72-0.05,0.79,0.37
		C118.5,222.4,118.2,222.59,118.06,222.76z"/>
	<path class="st2" d="M133.34,27.09c1.67,9.37,4.69,18.45,6.16,27.86c-0.17,0.67,0.13,1.01,0.77,1.12c0.03,0.39,0.07,0.77,0.1,1.16
		c-0.85,0.84-0.22,1.69-0.05,2.56c0.39,2.01,0.14,4.05-1.54,5.29c-2.7,1.99-5.46,3.83-7.02,6.96c-0.16,0.33-0.72,0.54-1.14,0.65
		c-3.67,0.96-7.02-0.84-10.28-1.78c-2.97-0.86-6.21-1.74-8.83-3.71c-1.03-5.42-1.89-10.89-3.15-16.26
		c-1.5-6.43-3.15-12.83-4.11-19.37c3.12-2.03,6.97-2.09,10.23-3.86c2.22-1.21,4.63-2.05,7.25-2.43c3.57-0.52,6.9,1.23,10.4,0.61
		c0.11,0.62,0.58,0.65,1.06,0.66C133.25,26.73,133.3,26.91,133.34,27.09z"/>
	<path class="st0" d="M111.52,67.2c2.62,1.98,5.86,2.85,8.83,3.71c3.27,0.94,6.62,2.74,10.28,1.78c0.42-0.11,0.98-0.32,1.14-0.65
		c1.55-3.13,4.32-4.97,7.02-6.96c1.68-1.24,1.93-3.27,1.54-5.29c-0.17-0.87-0.8-1.72,0.05-2.56c1.66,3.36,0.95,7.2,2.16,10.65
		c0.07,0.19-0.12,0.56-0.3,0.72c-3.91,3.59-7.82,7.17-11.76,10.72c-1.62,1.46-3.15-0.15-4.24-0.71c-2.95-1.52-6.2-2.33-9.23-3.32
		c-3.52-1.16-5.02-2.83-5.3-6.18C111.64,68.48,111.58,67.84,111.52,67.2z"/>
	<path class="st2" d="M222.31,72.18c1.83,0.94,3.35,1.97,2.75,4.52c-0.23,0.98,0.24,2.13,0.4,3.2
		C223.72,77.6,222.11,75.26,222.31,72.18z"/>
	<path class="st0" d="M140.27,56.07c-0.65-0.1-0.95-0.45-0.77-1.12C140.17,55.04,140.42,55.42,140.27,56.07z"/>
	<path class="st2" d="M107.12,309.26c-0.76,0.34-1.05-0.03-1.11-0.74C106.56,308.49,106.96,308.7,107.12,309.26z"/>
	<path class="st0" d="M194.48,175.07c-1.43,0.13-2.13-0.26-2.52-1.84c-1.16-4.71-1.08-4.47,4.14-7.84
		c5.64-3.63,11.43-1.82,17.24-1.35c0.85,0.07,0.87,0.78,1.07,1.4c1.8,5.41,1.55,5.47-4.2,6.88
		C205,173.6,199.63,173.67,194.48,175.07z"/>
	<path class="st0" d="M214.61,173.98c2.51,0.04,1.65,2.42,2.18,3.87c0.61,1.66-0.7,1.5-1.67,1.67c-6.53,1.14-13.06,2.24-19.56,3.49
		c-2.78,0.53-2.05-1.64-2.49-2.91c-0.43-1.23-0.6-2.53,1.2-2.69c6.51-0.6,12.77-2.57,19.24-3.34
		C213.77,174.03,214.04,174.02,214.61,173.98z"/>
	<path class="st0" d="M185.27,148.81c-0.7,0.03-1.36-0.1-1.44-1.12c-0.08-1.05,0.41-1.44,1.41-1.62c4.71-0.85,9.39-1.84,14.1-2.65
		c4.08-0.7,8.2-1.17,12.27-1.88c1.05-0.18,1.85-0.4,2.1,0.9c0.29,1.57-1.08,1.61-1.95,1.77c-4.71,0.87-9.44,1.6-14.16,2.42
		C193.53,147.32,189.46,148.06,185.27,148.81z"/>
	<path class="st0" d="M195.27,196.2c-1.12-0.16-2.27,0.39-2.44-0.78c-0.17-1.16,1.11-1.15,1.8-1.28c8.49-1.58,16.99-3.09,25.49-4.61
		c0.78-0.14,1.6-0.03,1.78,0.87c0.2,1-0.65,1.18-1.4,1.32c-6.07,1.09-12.15,2.19-18.22,3.27
		C199.83,195.42,197.38,195.83,195.27,196.2z"/>
	<path class="st0" d="M108.67,188.11c0.08,1.5-0.31,2.2-1.62,2.42c-6.26,1.06-12.5,2.22-18.75,3.28c-1.44,0.24-2.87,0.19-2.92-1.89
		c-0.04-1.64-2.56-3.01-0.83-4.72c1.13-1.12,2.82-1.68,4.26-2.47c2.55-1.41,4.91-3.22,8.07-3.22c3.52,0.01,6.99,0.66,10.25,1.69
		C109.05,183.81,107.9,186.71,108.67,188.11z"/>
	<path class="st0" d="M89.35,201.63c-2.21,0.22-3.18-0.56-3.27-2.25c-0.08-1.49-0.12-2.86,2.05-3.21c6.53-1.06,13.03-2.3,19.52-3.56
		c1.32-0.26,2.25,0.13,2.05,1.35c-0.23,1.42,2.02,3.65-0.71,4.21C102.32,199.55,95.58,200.56,89.35,201.63z"/>
	<path class="st0" d="M105.03,160.05c1.04-0.04,1.86,0.26,1.96,1.45c0.1,1.24-0.83,1.14-1.67,1.29c-8.79,1.51-17.57,3.05-26.35,4.61
		c-0.85,0.15-1.68,0.58-1.84-0.76c-0.12-1.02,0.09-1.96,1.28-2.07c5.78-0.55,11.41-1.93,17.12-2.87
		C98.71,161.17,101.87,160.6,105.03,160.05z"/>
	<path class="st0" d="M87.83,215.04c-0.74-0.09-1.7,0.26-1.77-0.86c-0.05-0.9,0.65-1.21,1.46-1.35c6.51-1.11,13.03-2.22,19.53-3.36
		c1.35-0.24,2.79-0.39,3.96-1.02c1.06-0.57,1.88-0.37,2.88-0.15c0.76,0.17,1.53,0.21,1.44,1.26c-0.08,0.87-0.8,0.86-1.43,0.97
		c-4.17,0.73-8.34,1.48-12.51,2.2C96.85,213.52,92.32,214.28,87.83,215.04z"/>
	<path class="st3" d="M181.65,132.19c-0.38-2.2-0.76-4.39-1.14-6.59c1.51,0.15,2.44,1.27,3.24,2.29
		C185.27,129.8,184.17,131.9,181.65,132.19z"/>
	<path class="st1" d="M132.15,25.89c0.91-0.69,0.96,0.03,1.06,0.66C132.73,26.54,132.26,26.51,132.15,25.89z"/>
</g>
</svg>
