<svg id="Layer_1" data-name="Layer 1" xmlns="http://www.w3.org/2000/svg" xmlns:xlink="http://www.w3.org/1999/xlink" viewBox="0 0 217.33 358.07"><defs><style>.cls-1,.cls-12,.cls-19,.cls-29,.cls-30,.cls-33,.cls-34,.cls-42,.cls-49{fill:none;}.cls-2{fill:#d1e5e4;}.cls-3{fill:#374f55;}.cls-4{fill:#34788c;}.cls-5{fill:#fefefe;}.cls-6{fill:#5b503a;}.cls-7{fill:#72664c;}.cls-13,.cls-8{fill:#784d2a;}.cls-19,.cls-42,.cls-8{stroke:#49291a;}.cls-11,.cls-12,.cls-17,.cls-19,.cls-29,.cls-30,.cls-33,.cls-34,.cls-39,.cls-42,.cls-45,.cls-49,.cls-8{stroke-miterlimit:10;}.cls-9{fill:#1e1e1e;}.cls-10{fill:#efbf9e;}.cls-11{fill:#1a5a6d;}.cls-11,.cls-12{stroke:#374f55;}.cls-14{fill:#212121;}.cls-15,.cls-16{fill:#383838;}.cls-16{opacity:0.58;}.cls-17{fill:#2d2d2d;}.cls-17,.cls-30,.cls-39{stroke:#000;}.cls-17,.cls-34{stroke-width:2px;}.cls-18{fill:#3a3a3a;}.cls-20{fill:#87542d;}.cls-21{fill:#1a280f;}.cls-22{fill:#0c1104;}.cls-23{clip-path:url(#clip-path);}.cls-24{fill:#af9b7c;}.cls-25{fill:#d4c7b4;}.cls-26{fill:#725d48;}.cls-27{fill:#a17e59;}.cls-28{fill:#0f1e08;}.cls-29{stroke:#071403;stroke-width:4px;}.cls-31{fill:#ddba2a;}.cls-32{fill:#e5c53c;}.cls-33,.cls-45{stroke:#020202;}.cls-33,.cls-39{stroke-width:0.25px;}.cls-34{stroke:#af9b7c;}.cls-35{fill:#b09c7c;}.cls-36{fill:#d0410b;}.cls-37{fill:#6b9da9;}.cls-38{fill:#1b5a6f;}.cls-39{fill:#9a361c;}.cls-40{fill:#fffcf8;}.cls-41{fill:#606060;}.cls-42{stroke-width:0.75px;}.cls-43{fill:#49291a;}.cls-44{fill:#fffdff;}.cls-45{fill:#5f3600;}.cls-46{fill:#67461b;}.cls-47{fill:#1c0b11;}.cls-48{fill:#070707;}.cls-49{stroke:#070707;}.cls-50{fill:#fff;}.cls-51{fill:#746745;}.cls-52{fill:#635e40;}</style><clipPath id="clip-path" transform="translate(-166.38 -30.23)"><rect class="cls-1" x="-203.06" y="-119.7" width="1045.31" height="587.7"/></clipPath></defs><title>ranger-boy</title><path class="cls-2" d="M348.81,152.37,367,153.76l.26-3.46-6.44-.49a3.09,3.09,0,0,0-5.26-.4l-6.44-.49Zm7.75-2a1.45,1.45,0,1,1,1.45,1.44A1.45,1.45,0,0,1,356.56,150.42Z" transform="translate(-166.38 -30.23)"/><rect class="cls-3" x="329.04" y="152.88" width="52.6" height="72.13" rx="2.04" transform="translate(531.93 369.29) rotate(-176.45)"/><rect class="cls-4" x="330.3" y="154.62" width="49.98" height="69.83" rx="1.95" transform="translate(531.78 370.48) rotate(-176.45)"/><rect class="cls-5" x="333.79" y="159.59" width="42.75" height="61" transform="translate(531.5 371.59) rotate(-176.45)"/><path class="cls-6" d="M198.62,85.36a33.07,33.07,0,0,0-.69,4.07,28.46,28.46,0,0,0-.68,3.3c0,1,.9,1.75.76,2.76s-1.2,1.58-1.48,2.48a18.52,18.52,0,0,1-4.94-1.59c-2.66-1.12-5.46-2.68-7.09-5.15C184.5,91.23,185.07,86.9,198.62,85.36Z" transform="translate(-166.38 -30.23)"/><path class="cls-7" d="M198.62,85.36l.36-2.42s-11.56,2.91-15.5,6.21c0,0-4.3,3.67,12.48,10.37l.52-1.54s-7.78-2-12-6.75C184.5,91.23,184.3,88,198.62,85.36Z" transform="translate(-166.38 -30.23)"/><path class="cls-7" d="M289.12,85.36s11.67,1.54,18.32,9c0,0,2.45,8.23-17.39,11v-3.84s15-.22,16.06-5.26c0,0-4.4-6.48-17-9.77Z" transform="translate(-166.38 -30.23)"/><path class="cls-6" d="M289.12,86.46s1.85,11.3.93,15c0,0,14.31,0,16.67-5.34a1.17,1.17,0,0,0-.24-1.31A32.74,32.74,0,0,0,289.12,86.46Z" transform="translate(-166.38 -30.23)"/><path class="cls-8" d="M287.49,94.06s4.78-.07,5.93,6.76-5.14,10.49-5.14,10.49Z" transform="translate(-166.38 -30.23)"/><path class="cls-9" d="M287.94,106.15a2.08,2.08,0,0,0,.91,0c1.82-.24,3.22-3.17,2.29-4.78,1.3-.38,2.55-.82,3-2.27.55-1.62-.89-2.33-1-3.43-.23-1.81,2.69-5.83-.22-7,1.18-4.31-3.75-8.71-8.15-7.31-4.14,1.32.12,7.09-.32,7.31-2.95,1.45-2.42,4.61,0,6.47-2.16,2.09-.95,6.48,2.05,6.85C286.17,102,286,105.57,287.94,106.15Z" transform="translate(-166.38 -30.23)"/><path class="cls-10" d="M291.88,218.3c.55-2.71-6-11.59-6-11.59l-13.71-3.41,13.16,20Z" transform="translate(-166.38 -30.23)"/><path class="cls-8" d="M289.14,201.51a1.71,1.71,0,0,0-1.23-.82l-17.68-2.95c-1.43-.24-2.52,1-2.7.76l17.79,24.8c2.3,3,9.28,4.26,11.17,2.92l24.29-14c.65-.46,7.91-4.5,7.42-5.09l-5.35-7c-.36-.44-5,2.43-8.38,4.56a23.44,23.44,0,0,1-7.28,3l-11.29,2.59a2.26,2.26,0,0,1-2.45-1.1c-.29-.52-.6-1-.87-1.55-.56-1.05-1.1-2-1.73-3.05a17.58,17.58,0,0,1-1-1.81" transform="translate(-166.38 -30.23)"/><path class="cls-11" d="M240.63,133.72A170.64,170.64,0,0,0,193.37,142c-6.1,2-12.38,4.51-16.45,9.47s-5,13-.42,17.51c5.83-3.33,13-2.6,19.72-2.24a146.39,146.39,0,0,0,43.44-4.15c5.05-1.26,10.13-2.84,14.4-5.83,17.37-12.22,1.42-23.46-13.43-23" transform="translate(-166.38 -30.23)"/><path class="cls-12" d="M240.63,133.72A170.64,170.64,0,0,0,193.37,142c-6.1,2-12.38,4.51-16.45,9.47s-5,13-.42,17.51c5.83-3.33,13-2.6,19.72-2.24a146.39,146.39,0,0,0,43.44-4.15c5.05-1.26,10.13-2.84,14.4-5.83C271.43,144.49,255.48,133.25,240.63,133.72Z" transform="translate(-166.38 -30.23)"/><path class="cls-4" d="M235.8,137.68c-7.37.29-14.56,2.18-21.69,4.06l-20,5.28c-6.84,1.8-14.33,4.06-18.1,10a327.89,327.89,0,0,1,80.51-10.34c3.58-7.89-16.18-9.23-20.7-9" transform="translate(-166.38 -30.23)"/><path class="cls-13" d="M251.88,157.45s-4.76-13.95,0-19.79H231.35s9.74,16.92,0,19.79Z" transform="translate(-166.38 -30.23)"/><path d="M235.75,381.5a6.14,6.14,0,0,1-1.46,4.83s-10.78,5.75-25.79-2.41c0,0-10.17-5.39-11.63-8v-3.34S222,394.31,235.75,381.5Z" transform="translate(-166.38 -30.23)"/><path class="cls-14" d="M235.56,383.61s-19.91,9.43-38.63-10.7a21.56,21.56,0,0,1,1.91-10.34A15.94,15.94,0,0,0,214.77,365s8.79,6.4,15.7,8.72a7.87,7.87,0,0,1,4.73,4.79A8.61,8.61,0,0,1,235.56,383.61Z" transform="translate(-166.38 -30.23)"/><path class="cls-15" d="M223.88,370.87a3.21,3.21,0,0,1,.77.19c1.65.64,3.31,1.41,4.95,2.1,2.84,1.21,7.11,3.34,5.68,8.16-1.11,3.73-5.67,3-8.14,3-4.57,0-8.82-.35-13-2.14-3.48-1.48-7.22-2.24-7-7.67.73.07,1.74,1.74,2.52,2.21,1.4.84,3.8,2,5.35,1.48s2.67-2.91,3.95-4.13C220.55,372.5,222,370.66,223.88,370.87Z" transform="translate(-166.38 -30.23)"/><path class="cls-16" d="M234.44,385.47c-2.21,2.85-11.59,2.28-15.27,1.91a24.26,24.26,0,0,1-4.3-.78,1.66,1.66,0,0,1,.15-.72c5.25-.2,10.35,1.31,15.73.33C232.06,386,233.28,385.36,234.44,385.47Z" transform="translate(-166.38 -30.23)"/><path class="cls-17" d="M211.48,372.82a10.93,10.93,0,0,1,6.73-4.81l5.26,2.85c-2.58,0-4.21,3.54-6.1,5.68-1.3,1.46-1.49.58-2.71-.56S212.57,373.76,211.48,372.82Z" transform="translate(-166.38 -30.23)"/><path class="cls-18" d="M218.94,368.88c-3,.56-4.06,4.17-2.84,7.22-1.2-1.52-3-1.63-4-3.51C213.72,370.79,216.8,368.46,218.94,368.88Z" transform="translate(-166.38 -30.23)"/><path d="M278.53,379.73s.42,3.08-1.38,5c0,0-10.21,6-24.41-2.5,0,0-9.63-5.57-11-8.26v-3.46S265.53,393,278.53,379.73Z" transform="translate(-166.38 -30.23)"/><path class="cls-14" d="M278.35,381.92s-18.84,9.76-36.57-11.08a24.21,24.21,0,0,1,1.81-10.71s6.42,6.25,15.08,2.47c0,0,8.32,6.63,14.87,9a7.87,7.87,0,0,1,4.47,5A9.78,9.78,0,0,1,278.35,381.92Z" transform="translate(-166.38 -30.23)"/><path class="cls-15" d="M267.3,368.73a3,3,0,0,1,.72.19c1.56.66,3.13,1.46,4.69,2.18,2.69,1.25,6.73,3.46,5.37,8.45-1,3.86-5.36,3.07-7.7,3.07-4.32,0-8.34-.36-12.33-2.21-3.29-1.54-6.83-2.33-6.62-8,.69.07,1.65,1.81,2.39,2.3,1.33.87,3.59,2.08,5.06,1.53s2.53-3,3.74-4.29C264.14,370.42,265.51,368.51,267.3,368.73Z" transform="translate(-166.38 -30.23)"/><path class="cls-16" d="M277.29,383.84c-2.09,3-11,2.36-14.45,2a21.21,21.21,0,0,1-4.08-.81,2.21,2.21,0,0,1,.14-.75c5-.2,9.8,1.37,14.9.35C275,384.36,276.19,383.73,277.29,383.84Z" transform="translate(-166.38 -30.23)"/><path class="cls-17" d="M255.56,370.75a10.28,10.28,0,0,1,6.37-5l5,3c-2.45,0-4,3.66-5.78,5.87-1.22,1.51-1.41.61-2.56-.57S256.59,371.71,255.56,370.75Z" transform="translate(-166.38 -30.23)"/><path class="cls-18" d="M262.62,366.67c-2.8.57-3.85,4.31-2.69,7.47-1.14-1.58-2.85-1.68-3.83-3.63C257.68,368.64,260.59,366.23,262.62,366.67Z" transform="translate(-166.38 -30.23)"/><path class="cls-11" d="M170.11,170.75l0,.21c-2.19,14.2-4.15,28-2.71,42.44a121.25,121.25,0,0,0,4.37,22.42c1.39,4.69,3.42,9.73,7.79,11.93,3.23,1.62,7.06,1.32,10.67,1,2.7-.26,5.61-.61,7.62-2.43a10.67,10.67,0,0,0,2.51-4.08c2.13-5.43,1.4-11.12,3.46-16.35,2.53-6.38,5.89-12.54,8.8-18.75,1.36-2.91,2.74-5.9,2.67-9a18.15,18.15,0,0,0-1.44-5.91C209.36,180.36,197,163.3,184.16,160c-7.78-2-12.86,3.66-14,10.79" transform="translate(-166.38 -30.23)"/><path class="cls-11" d="M170.11,170.75l0,.21c-2.19,14.2-4.15,28-2.71,42.44a121.25,121.25,0,0,0,4.37,22.42c1.39,4.69,3.42,9.73,7.79,11.93,3.23,1.62,7.06,1.32,10.67,1,2.7-.26,5.61-.61,7.62-2.43a10.67,10.67,0,0,0,2.51-4.08c2.13-5.43,1.4-11.12,3.46-16.35,2.53-6.38,5.89-12.54,8.8-18.75,1.36-2.91,2.74-5.9,2.67-9a18.15,18.15,0,0,0-1.44-5.91C209.36,180.36,197,163.3,184.16,160,176.38,157.93,171.3,163.62,170.11,170.75Z" transform="translate(-166.38 -30.23)"/><path class="cls-4" d="M178.94,240.7c-1.67-2.26-2.34-5.09-2.9-7.84a162.82,162.82,0,0,1-.69-61.25c.49-2.75,1.16-5.68,3.21-7.58,1.52,1.33,2.21,3.36,2.75,5.3,4.51,16.13,3.25,33.2,3.55,49.94.08,4.34,3.9,34.72-5.92,21.43" transform="translate(-166.38 -30.23)"/><path class="cls-13" d="M185.19,187.49a17.77,17.77,0,0,0-1.1,4.36c-.55,2.79-1,5.6-1.49,8.4q-1.08,6.58-2,13.18c-.75,5.31-1,10.65-1.58,16-.51,4.61-1.4,9.06-1.09,13.72a5.1,5.1,0,0,1-.37,2.84,7.64,7.64,0,0,1-1.06,1.3c-2.78,3.11-2.95,7.45-3,11.29,0,1.85-.37,8.33,3.11,8.24-.3-3.48-1.65-7.37-.76-10.77-.87,4.4-.42,11.89,4.52,13.58-.22-2.2-1.57-4.26-1.73-6.6a29.69,29.69,0,0,1,.52-6.26c-.5,4.14-1.35,15.06,5.53,14.72-1.46-2.7-3.12-4.28-3-7.6.06-2.52.29-4.91.16-7.42-.65,6.23-.75,15,6.77,16.82,1.55.37,3-.19,2.28-2s-3.52-2.38-4.52-4.06c-1.55-2.6-.69-8,.55-10.46a39.12,39.12,0,0,0,2.73,4.6c1.09,1.45,4.77,2.55,4.28-.52a4.19,4.19,0,0,0-.75-1.51c-2.45-3.8-2.43-8.56-5-12.33a6.87,6.87,0,0,1-1.22-2.23,4.85,4.85,0,0,1,.3-2.4,36,36,0,0,0,1.31-7c.42-4.22,2.19-8.11,3.1-12.2.61-2.72,1.32-5.32,2.11-8,.43-1.44,7.72-23.69,7.59-25.18-3.47-1.16-11.91-.48-15.46-1.25-1-.23-.3-2.1-.71-1.26" transform="translate(-166.38 -30.23)"/><path class="cls-19" d="M185.26,187.58a17.89,17.89,0,0,0-1.1,4.36c-.55,2.79-1,5.6-1.49,8.4-.72,4.39-1.41,8.78-2,13.18-.74,5.31-1,10.65-1.58,16-.5,4.62-1.4,9.06-1.09,13.72a5,5,0,0,1-.37,2.84,7.13,7.13,0,0,1-1,1.3c-2.79,3.11-3,7.45-3,11.3,0,1.84-.36,8.32,3.12,8.23-.3-3.48-1.65-7.37-.76-10.76-.87,4.39-.42,11.88,4.51,13.57-.22-2.2-1.56-4.26-1.73-6.6a29.69,29.69,0,0,1,.53-6.26c-.5,4.15-1.35,15.06,5.53,14.72-1.47-2.7-3.12-4.28-3-7.6.06-2.52.28-4.91.16-7.42-.65,6.23-.76,15,6.77,16.82,1.55.37,3-.19,2.28-2s-3.52-2.38-4.52-4.06c-1.56-2.6-.7-8,.55-10.46a36.54,36.54,0,0,0,2.73,4.6c1.09,1.45,4.77,2.55,4.28-.52a4.22,4.22,0,0,0-.76-1.51c-2.44-3.79-2.43-8.56-4.94-12.33a6.9,6.9,0,0,1-1.23-2.23,5.09,5.09,0,0,1,.3-2.4,35.24,35.24,0,0,0,1.32-7c.42-4.22,2.19-8.1,3.1-12.2.61-2.71,1.31-5.32,2.1-8,.43-1.44,7.73-23.69,7.6-25.18-3.47-1.16-11.91-.47-15.47-1.25C184.94,188.61,185.67,186.75,185.26,187.58Z" transform="translate(-166.38 -30.23)"/><path class="cls-20" d="M187,190.94c-1.32,2-.86,5.09-1.15,7.37-.61,4.81-1.15,9.63-1.79,14.42-1.2,9-3.36,18-4.32,27.09a112.06,112.06,0,0,0-1.06,11.4c0,2.4.84,2.82,2.87,4a4.83,4.83,0,0,0,2.66.94c1.13.1,2.65-.46,3.71-.08,1.92.68,2.06,4.43,4.21,4.43-.64-.22-1.73-4.39-1.86-5.1-.63-3.44-.38-6.2-2.82-9.24a5.15,5.15,0,0,1-1.33-2.18,4.46,4.46,0,0,1,.36-2.05c1.54-4.59,1.2-9.2,2.08-13.86a116.28,116.28,0,0,1,3.6-13.9c1.44-4.53,3.09-9,4.79-13.46.64-1.68,4.31-7.8,1.3-8.53-2.63-.63-6.49-1.29-9.14-1.88-2.81-.62-1.25,0-2.11.63" transform="translate(-166.38 -30.23)"/><path class="cls-20" d="M184.56,257.56c-1.54.48-1.57,2.73-1.57,4a7.58,7.58,0,0,0,.66,3.44c.4.85,1.19,2.27,2.3,2.47.05-1-.72-2.09-.78-3.15a18.47,18.47,0,0,1,.27-3.08c.09-.82.23-1.63.33-2.42s-.28-1.09-1.21-1.25" transform="translate(-166.38 -30.23)"/><path class="cls-21" d="M205.69,242.32c-.18.78.73,2.08.64,2.49-.18.74-1.09,1.09-1.28,1.61-.49,1.38-1.69,3.09-1.81,4.78a73.65,73.65,0,0,0,.46,11.06c.55,7.2-.5,14.5-.5,21.88,0,8.08.14,15.94,1.61,23.8.71,3.81,4.09,7.09,1.41,10.61-1.34,1.75-2.74,2.31-3,4.82s-.78,4.95-1,7.43c-.65,7.4-1,14.72-1,22.17,0,1.21-.36,2.67,0,3.85.24.78,1.62,1.94,1.64,2.56.07,2.74-1.42,2.09-4.05,3.79,3.65,1.27,14.06,1.62,17.51-.15,4-2.08,3.49-10.91,4.37-14.09,5.76-20.8,5.91-42.42,8.73-63.47,1-7.17-1.06-14.59,2.1-21.56,1.41-3.1,2.87-2.95-2.15-4.36-3.89-1.1-11.83-1.4-13.68-4,5.51.08,27.24,3,14-3-4.07-1.85-20.1-12.24-23.94-10.25" transform="translate(-166.38 -30.23)"/><path class="cls-22" d="M259.45,254.63a11.24,11.24,0,0,0-2.71.77,23.51,23.51,0,0,0-2.36,1.16c-.75.42-1.48.87-2.2,1.36a18.53,18.53,0,0,0-2.2,1.69,6.44,6.44,0,0,0,2.9,0,9.27,9.27,0,0,0,2.62-1,10.65,10.65,0,0,0,2.23-1.65,8.55,8.55,0,0,0,1.72-2.28" transform="translate(-166.38 -30.23)"/><g class="cls-23"><path class="cls-24" d="M267.91,149.37c19.48,9.34,26.69,31.8,25.52,52.65-.15,2.68-16.31-1.16-17.89-.85-3.31.65-2,4.35-2.12,7.59A67.09,67.09,0,0,1,272.35,219c-1,4.84-3.07,11.05-2.13,16-6.08-1.93-13.78,2.24-20,2.56a129.66,129.66,0,0,1-24-1.23c-8.93-1.21-18,.39-26.11-4.49a5.72,5.72,0,0,1-1.79-1.48,6.19,6.19,0,0,1-.88-3.08,89,89,0,0,1,3.62-35.16,85.26,85.26,0,0,1-17.78-3.25c1.13-9.9,4.52-19.39,7.89-28.78a30.14,30.14,0,0,1,3.64-7.74c5.7-7.86,18.73-5.46,26.35-11.14,3.77,4.21,4.62,11.2,8.51,15,5.92,5.87,10.81-1.49,17.28-.38,4.88.84,6,6.28,9.75.68,1.56-2.36,1.49-7.39,2.05-10.18,4.06-.64,6.4,1,9.56,3.31-.79-.51.39-.28-.41-.29" transform="translate(-166.38 -30.23)"/><path class="cls-25" d="M259.92,232.31c-.81-1.88-.22-5.29-1-7.24-4.62,5.4-12.37,7.12-20,6.74-8.85-.44-14-3.69-21.42-7.64.6,3.22,2.72,6,3.93,9.09-4-2.1-12.55-2.33-12.62-7.61,0-1.9,2.55-5.63,3.27-7.55a104,104,0,0,0,3.38-11.34c3.8-14.94,6-29,3.44-44.5,2.93,4.2,9.35,16.61,13.67,18.3,1.21-6.44-5.92-10.69,1.23-16.76,8.47-7.2,10.48,3.9,15.89,8.78,2.36-2.68.76-6.48,3-9.3,6.86,11.48,7.83,21.12,4.12,33.83-2.32,8-8.37,20-11.24,27,7.17-3.48,9.85-13.31,14.71-18.78,3.29,5.69,6.87,23.26.75,27.8-.57-.48-1.26-1.19-1.14-.81" transform="translate(-166.38 -30.23)"/><path class="cls-26" d="M229.76,137.57c-9.5,2.53-11.55,6.09-6.66,14.73a100.48,100.48,0,0,0,6.42,10.1c2.85,3.87,3.28,4.11,7.12,1.39,3.17-2.24,6.2-5.69,10-6.88-5.05-5.64-8.9-17.19-16.83-19.34" transform="translate(-166.38 -30.23)"/><path class="cls-26" d="M249.8,140.77c-1.89,2.21-4.22,12.44-3.74,15.25.46,2.63,6.8,9,9.35,10.82a50.09,50.09,0,0,0,1.84-7.58c.48-2.11,2.09-4.81,2.2-6.82.2-3.64-5.58-11.84-9.65-11.67" transform="translate(-166.38 -30.23)"/></g><path class="cls-27" d="M245.4,160.12a.33.33,0,0,1-.28-.17.2.2,0,0,0-.06-.07.1.1,0,0,0-.11,0,.6.6,0,0,0-.08.16h0c.88,5.28,2.23,10.47,3.45,15.65.58,2.6,1.19,5.2,1.59,7.8a74.35,74.35,0,0,1,.82,7.88,143.44,143.44,0,0,1-.18,15.92,77.62,77.62,0,0,1-.73,7.93,23.1,23.1,0,0,1-2.26,7.59,15,15,0,0,0,1.84-3.58,30.69,30.69,0,0,0,1.15-3.87,63.75,63.75,0,0,0,1.19-8c.25-2.66.46-5.33.56-8s.08-5.38,0-8.07a72.47,72.47,0,0,0-.92-8c-.49-2.67-1.13-5.27-1.85-7.85-1.4-5.18-3.13-10.22-4.55-15.38v0A.76.76,0,0,1,245,160s.05,0,.09,0a.36.36,0,0,0,.31.15" transform="translate(-166.38 -30.23)"/><path class="cls-28" d="M199.11,350.91c.68-8.6-.13-17.38.5-25.9a182.56,182.56,0,0,0-1.52-42.93c-.6-3.64.39-7.38.91-10.78.57-3.79-.6-7.3-.89-10.94-.59-7.55,1-14.66,1-22.19l8,2.31c5.89.37,13.32,0,16.65-.06,11.32-.26,22.22,1.32,33.6.46,2.51-.19,9.83-2.23,12.13-.88,1.15.68.73,3.85.81,4.93.27,4,.43,7.93.72,11.93,1,14.63.38,29.31.38,44.09,0,6.72,1.44,13.07,0,19.75a114.44,114.44,0,0,0-2.49,15.72A92.44,92.44,0,0,1,267,351.19a25.67,25.67,0,0,0-.55,10.14c.45,2.3,2.63,2-1,3.64-2,.93-6.88,1.42-9.26,1.5-5.06.16-9.39-1.73-14.14-2.27-.16-8.43,1.35-17.44,0-26-1.26-8.23,1.5-16.49.89-24.44-.14-1.8-1.3-3.12-1.6-4.83-.36-2.08.23-2.55.62-4.66.6-3.31-1-7.47-1.52-10.61-1.19-7.42-.41-14.67-1-22.19-.54-6.89.08-14,6.48-19.46l-.7-.2c-1.73.49-3.07,2.39-4.16,3.75-6.84,8.57-4.74,17.79-6.64,27.4-1.1,5.6-.7,11.53-2.44,17a68.29,68.29,0,0,0-3,14.93,149.44,149.44,0,0,1-6,31.8c-1.45,4.58-2.85,9.29-2.47,14.07.14,1.92,1.23,3-1,4.66s-7.09,2.7-10.11,2.66c-4.6-.06-12-2.5-12.86-5.07-1.1-3.27,2.22-8.52,2.5-12" transform="translate(-166.38 -30.23)"/><path class="cls-29" d="M199.11,350.91c.68-8.6-.13-17.38.5-25.9a182.56,182.56,0,0,0-1.52-42.93c-.6-3.64.39-7.38.91-10.78.57-3.79-.6-7.3-.89-10.94-.59-7.55,1-14.66,1-22.19l8,2.31c5.89.37,13.32,0,16.65-.06,11.32-.26,22.22,1.32,33.6.46,2.51-.19,9.83-2.23,12.13-.88,1.15.68.73,3.85.81,4.93.27,4,.43,7.93.72,11.93,1,14.63.38,29.31.38,44.09,0,6.72,1.44,13.07,0,19.75a114.44,114.44,0,0,0-2.49,15.72A92.44,92.44,0,0,1,267,351.19a25.67,25.67,0,0,0-.55,10.14c.45,2.3,2.63,2-1,3.64-2,.93-6.88,1.42-9.26,1.5-5.06.16-9.39-1.73-14.14-2.27-.16-8.43,1.35-17.44,0-26-1.26-8.23,1.5-16.49.89-24.44-.14-1.8-1.3-3.12-1.6-4.83-.36-2.08.23-2.55.62-4.66.6-3.31-1-7.47-1.52-10.61-1.19-7.42-.41-14.67-1-22.19-.54-6.89.08-14,6.48-19.46l-.7-.2c-1.73.49-3.07,2.39-4.16,3.75-6.84,8.57-4.74,17.79-6.64,27.4-1.1,5.6-.7,11.53-2.44,17a68.29,68.29,0,0,0-3,14.93,149.44,149.44,0,0,1-6,31.8c-1.45,4.58-2.85,9.29-2.47,14.07.14,1.92,1.23,3-1,4.66s-7.09,2.7-10.11,2.66c-4.6-.06-12-2.5-12.86-5.07C195.51,359.69,198.83,354.44,199.11,350.91Z" transform="translate(-166.38 -30.23)"/><path class="cls-21" d="M250.08,354.1a7.38,7.38,0,0,0,.83,3.12c.47.92,1.54,1.93,1.75,2.88.38,1.79-5.09.11-6.61,1.21,1.2,1.14,5,1.78,7,1.95,3.4.29,8.71.75,9.7-2s-.64-5.43-.22-8.1c1.19-7.58,2.39-15.16,3-23,1.24-16.72,4.63-33.65,2-50.58-.83-5.37-.51-11-.51-16.47,0-2.54,2.25-11.54-1.41-12,.14-1.55,4.9-6.78-2.51-4.82a4,4,0,0,1,.91-2.47c.34-.62-.51-1.23-1.5-1.09-2.9.45-5.93,1.41-9.11,1.69a128.06,128.06,0,0,1-14.21.63c-6.46-.13-14.21-2.34-20.47-1.56.19,4.12,13.2,6.88,18.37,7.42,9.09,1,15.72-1.66,24.71-2-13,2.32-12.77,7.38-11.86,15.18,1,8.72-.4,17-.38,25.8,0,6-1.56,14.13,2.46,19.43a6.37,6.37,0,0,1-4.65-.48c-1.32,3.34,3.69,10.41,8,12.46-2.39-.65-4-2.05-6.63-1.92-1.65,7.78,1.31,15.77,1.31,23.67C250.08,346.73,249.94,350.42,250.08,354.1Z" transform="translate(-166.38 -30.23)"/><path d="M270.79,238.1a15,15,0,0,1-.77-5.5,172.9,172.9,0,0,1-58.6,1.06c-2.56-.41-4.91-.52-7.43-1.08-2.07-.47-4.18-2-6.28-1.79,0,1.86-.91,3.09-.72,5,1.86.2,3.67,2.19,5.36,2.94a17.42,17.42,0,0,0,6.53,1.46c5.06.24,10.16-.22,15.22,0,10.52.46,22.18,2.33,32.4.72,2.91-.45,8.52-1.23,12.56-.72a1.6,1.6,0,0,0,1.73-2.05" transform="translate(-166.38 -30.23)"/><path class="cls-30" d="M270.79,238.1a15,15,0,0,1-.77-5.5,172.9,172.9,0,0,1-58.6,1.06c-2.56-.41-4.91-.52-7.43-1.08-2.07-.47-4.18-2-6.28-1.79,0,1.86-.91,3.09-.72,5,1.86.2,3.67,2.19,5.36,2.94a17.42,17.42,0,0,0,6.53,1.46c5.06.24,10.16-.22,15.22,0,10.52.46,22.18,2.33,32.4.72,2.91-.45,8.52-1.23,12.56-.72A1.6,1.6,0,0,0,270.79,238.1Z" transform="translate(-166.38 -30.23)"/><path class="cls-31" d="M242.82,236.12c-.58-.06-1.17-.05-1.75-.13-.36-.05-.68-.08-1-.1a2.28,2.28,0,0,1-.91-.12c-.54-.47.78-.4,1-.4.86,0,1.73.09,2.59.13.63,0,2.14,0,2.45.56a2.05,2.05,0,0,1,.1,1.18c0,.44,0,.88,0,1.32a13.3,13.3,0,0,1-.1,1.89c-.09.65-.44.93-1.14,1a29.44,29.44,0,0,1-3,0c-.45,0-2.32.09-2.52-.39a6.26,6.26,0,0,1,1.67,0c.83,0,1.66.13,2.49.13.46,0,1.06,0,1.39-.36a2,2,0,0,0,.24-1.16c0-.33,0-.65.06-1,0-.14,0-.29,0-.44s0-.22,0-.33l0-.38a2.53,2.53,0,0,0,0-.78.72.72,0,0,0-.61-.57,7.3,7.3,0,0,0-.93-.08" transform="translate(-166.38 -30.23)"/><path class="cls-32" d="M241.53,236c-.34,0-.71-.08-1.07-.12-.17,0-1.27-.08-1.25-.29a4.79,4.79,0,0,1,.93-.05c.49,0,1,0,1.47.07.74.1,1.52.08,2.26.14a1.19,1.19,0,0,1,1.11.9,5.19,5.19,0,0,1,0,.56c0,.27,0,.54,0,.8,0,.54,0,1.08-.05,1.62a2,2,0,0,1-.26,1.34,1.29,1.29,0,0,1-.83.34,8.24,8.24,0,0,1-1.79.08c-.64,0-1.27,0-1.92-.08l-.82,0c-.12,0-.43,0-.48-.15.09.06.25,0,.35,0a3.77,3.77,0,0,1,.58,0,8.68,8.68,0,0,0,1.34.13c.58,0,1.17,0,1.75,0a3.41,3.41,0,0,0,.78-.11,1.17,1.17,0,0,0,.83-1,6.22,6.22,0,0,1,.06-.86,5.71,5.71,0,0,0,.09-.82,4.09,4.09,0,0,0-.23-2c-.27-.6-1.37-.55-1.94-.55a5,5,0,0,0-.95,0" transform="translate(-166.38 -30.23)"/><path class="cls-31" d="M243.16,238.58h2a.22.22,0,0,0,.21-.21v-.19a.22.22,0,0,0-.21-.21h-2a.22.22,0,0,0-.21.21v.19a.22.22,0,0,0,.21.21" transform="translate(-166.38 -30.23)"/><rect class="cls-33" x="76.58" y="207.74" width="2.41" height="0.61" rx="0.21"/><path class="cls-25" d="M243.07,176.79v10.12c0,2.9,1.09,7.06-1.76,8.88-1.69,1.09-3.34,2.3-5,3.36-2.73,1.72-2.73,1-5.66-.38a67.41,67.41,0,0,0-6.47-2.73c-1.45-.52-4.81-.95-5.89-1.95-.93-.87-.48-2.56-.49-3.67,0-2.29-.38-4.54-.38-6.85,0-1.84-.27-3.61-.39-5.44-.09-1.53-.34-1.72,1.63-1.81,4.59-.19,9.26.48,13.89.16,3.48-.23,7-.79,10.53-.6.06.35.24.81,0,.91" transform="translate(-166.38 -30.23)"/><path class="cls-34" d="M243.07,176.79v10.12c0,2.9,1.09,7.06-1.76,8.88-1.69,1.09-3.34,2.3-5,3.36-2.73,1.72-2.73,1-5.66-.38a67.41,67.41,0,0,0-6.47-2.73c-1.45-.52-4.81-.95-5.89-1.95-.93-.87-.48-2.56-.49-3.67,0-2.29-.38-4.54-.38-6.85,0-1.84-.27-3.61-.39-5.44-.09-1.53-.34-1.72,1.63-1.81,4.59-.19,9.26.48,13.89.16,3.48-.23,7-.79,10.53-.6C243.11,176.23,243.29,176.69,243.07,176.79Z" transform="translate(-166.38 -30.23)"/><path class="cls-35" d="M236.05,183.64a7.29,7.29,0,0,1-2.18.68,9.73,9.73,0,0,1-3.13-.32l-10.9-2.33a5.65,5.65,0,0,1-2.08-.73c-.55-.4-.78-1.11-.28-1.55l10.64,2a15.74,15.74,0,0,0,3.49.37c2.47-.11,9.64-5.2,11.19-4.5,2.57,1.15-5.64,5.92-6.75,6.41" transform="translate(-166.38 -30.23)"/><path class="cls-25" d="M243.3,177.15l-10.63,4.39a7.78,7.78,0,0,1-2,.61,8.17,8.17,0,0,1-2.51-.19c-3.68-.68-7.35-1.43-11-2.26.29-2.25-.71-4.49-.42-6.74,3.06.51,7.48-.3,10.56-.68a68,68,0,0,1,12.92-.22c1.15.08,2.25.05,2.89.93.28.37.47,4,.14,4.16" transform="translate(-166.38 -30.23)"/><path class="cls-34" d="M243.3,177.15l-10.63,4.39a7.78,7.78,0,0,1-2,.61,8.17,8.17,0,0,1-2.51-.19c-3.68-.68-7.35-1.43-11-2.26.29-2.25-.71-4.49-.42-6.74,3.06.51,7.48-.3,10.56-.68a68,68,0,0,1,12.92-.22c1.15.08,2.25.05,2.89.93C243.44,173.36,243.63,177,243.3,177.15Z" transform="translate(-166.38 -30.23)"/><path class="cls-36" d="M221.31,183.16c-2.41,15.15-7.85,29.44-15.6,41-2.09,3.12-4.62,6.23-7.75,6.62-.27-3.19.91-6.24,2-9.07,5.08-12.66,9.87-25.78,11.77-39.9a51.79,51.79,0,0,0,0-16.67c-1.06-5.43-3.61-10.52-7.39-13-1.33-.86-3-1.82-3.1-3.78-.05-1.33,10.64-3.88,11.59-3.68,3.59.74,6.48,4.55,7.79,9.31,2.56,9.26,2.19,19.65.68,29.16" transform="translate(-166.38 -30.23)"/><path class="cls-11" d="M221.31,183.16c-2.41,15.15-7.85,29.44-15.6,41-2.09,3.12-4.62,6.23-7.75,6.62-.27-3.19.91-6.24,2-9.07,5.08-12.66,9.87-25.78,11.77-39.9a51.79,51.79,0,0,0,0-16.67c-1.06-5.43-3.61-10.52-7.39-13-1.33-.86-3-1.82-3.1-3.78-.05-1.33,10.64-3.88,11.59-3.68,3.59.74,6.48,4.55,7.79,9.31C223.19,163.26,222.82,173.65,221.31,183.16Z" transform="translate(-166.38 -30.23)"/><path class="cls-4" d="M205.15,220.65c6.59-20,12.69-41.65,10.86-63.59,1.55-.83,3.33.66,4.11,2.72a18.41,18.41,0,0,1,.74,6.84,141.09,141.09,0,0,1-4.5,32c-2.12,8.13-4.64,19.26-11.21,22" transform="translate(-166.38 -30.23)"/><path class="cls-37" d="M215.11,203.48c1.08-11.65,5.39-22.64,5.36-34.37a33.91,33.91,0,0,1,.11-4.52c2.55,1,.24,16.17-.24,19.27a92.79,92.79,0,0,1-2.1,10c-.75,2.84-2.86,6.7-3.13,9.57" transform="translate(-166.38 -30.23)"/><path class="cls-25" d="M264,172.52a19.4,19.4,0,0,1-8.22-.79,12.44,12.44,0,0,0,.89,6.52h9.11q-1.1-3.27-2.2-6.54" transform="translate(-166.38 -30.23)"/><path class="cls-34" d="M264,172.52a19.4,19.4,0,0,1-8.22-.79,12.44,12.44,0,0,0,.89,6.52h9.11q-1.1-3.27-2.2-6.54" transform="translate(-166.38 -30.23)"/><path class="cls-25" d="M257.73,185.89a13.14,13.14,0,0,0,.67,3.69,8.81,8.81,0,0,0,5.15,4.71,26.15,26.15,0,0,0,7,1.37,43.27,43.27,0,0,1-4.14-16.94c0,.64-7.2-.86-7.92-.43-2.28,1.37-1,5.4-.79,7.6" transform="translate(-166.38 -30.23)"/><path class="cls-34" d="M257.73,185.89a13.14,13.14,0,0,0,.67,3.69,8.81,8.81,0,0,0,5.15,4.71,26.15,26.15,0,0,0,7,1.37,43.27,43.27,0,0,1-4.14-16.94c0,.64-7.2-.86-7.92-.43C256.24,179.66,257.55,183.69,257.73,185.89Z" transform="translate(-166.38 -30.23)"/><path class="cls-25" d="M193.73,162.42a141.68,141.68,0,0,0-8.42,25,107.57,107.57,0,0,0,16,2.87c-.53-.06,5.59-23.73,5.32-26-1-8.29-9.45-9.73-12.92-1.89" transform="translate(-166.38 -30.23)"/><path class="cls-24" d="M227.3,139.91a8.75,8.75,0,0,0-3.36,6.84,15.93,15.93,0,0,0,2.29,7.46,61.18,61.18,0,0,0,5.44,8.48,4.57,4.57,0,0,0,1.24,1.24c1.42.81,3.1-.24,4.41-1.26l7-5.37a1.48,1.48,0,0,0,.67-.88c.09-.52-.31-1-.66-1.32-4.53-4.72-8.57-21.35-17-15.19" transform="translate(-166.38 -30.23)"/><path class="cls-25" d="M228.39,141.94c-1.44,1.88-1.59,4.46-1.23,6.8A18.43,18.43,0,0,0,234,160.32a2.47,2.47,0,0,0,1.54.69,2.8,2.8,0,0,0,1.38-.6l7.37-5.1c-2-3.9-9.78-21.31-15.85-13.37" transform="translate(-166.38 -30.23)"/><path class="cls-24" d="M254.07,163.62q-2.46-3.08-4.9-6.17a6.29,6.29,0,0,1-1.42-7c.7-2.94.68-9.13,4.13-8.28,1.63.41,4.45,3.62,5.21,5.13,1.08,2.15.8,4.57.42,6.87-.17,1-3.45,9.45-3.44,9.46" transform="translate(-166.38 -30.23)"/><path class="cls-25" d="M252.81,144.5a10.42,10.42,0,0,1,2.88,6c.17,2.45-.91,4.8-2,7-.17.36-.42.76-.81.75a1.09,1.09,0,0,1-.6-.33l-2.67-2.41a4.58,4.58,0,0,1-1.41-1.75,4.49,4.49,0,0,1-.11-2c.23-2.27.64-11.79,4.68-7.26" transform="translate(-166.38 -30.23)"/><path class="cls-25" d="M287.66,200.61c-2.49-.3-4.82-.15-6.86-1.65a46.91,46.91,0,0,1-4.06-3.38,20.8,20.8,0,0,1-2.29-4.6c-2.33-7.42-.59-13.88-2.91-21.31-1.4-4.44-7.19-15.62-5.07-19.82,3.48.93,6.5,3.22,9.07,5.67a51.39,51.39,0,0,1,12.37,19.11c1.12,3,1.38,6.19,2.24,9.24l.09.3c1.44,4.85.9,9.63.13,14.56a2.57,2.57,0,0,1-.64,1.57c-1.11,1-3.39.09-4.62-.12a30.7,30.7,0,0,0-5.74-.43,8.54,8.54,0,0,1-2.26-.12,2.46,2.46,0,0,1-1.72-1.34,3.56,3.56,0,0,1-.18-1.26c0-2.35-.09-4.69-.13-7" transform="translate(-166.38 -30.23)"/><path class="cls-38" d="M264.87,152.37a150.49,150.49,0,0,1,9.78,29.37c2.12,9.53,3.21,19.94-1.16,28.67.33-4-.67-8-1.67-11.88-3-11.65-5.94-23.34-10.59-34.42a36.75,36.75,0,0,1-2.14-5.86c-1-4.32-.81-9.15-1.18-13.5,3.62.58,5.49,4.35,7,7.62" transform="translate(-166.38 -30.23)"/><path class="cls-12" d="M264.87,152.37a150.49,150.49,0,0,1,9.78,29.37c2.12,9.53,3.21,19.94-1.16,28.67.33-4-.67-8-1.67-11.88-3-11.65-5.94-23.34-10.59-34.42a36.75,36.75,0,0,1-2.14-5.86c-1-4.32-.81-9.15-1.18-13.5C261.53,145.33,263.4,149.1,264.87,152.37Z" transform="translate(-166.38 -30.23)"/><path class="cls-4" d="M263.25,156.57a229,229,0,0,0,11,40.36,29.54,29.54,0,0,0,.72-10,52.22,52.22,0,0,0-1.8-8.64q-2.22-8.06-5-15.91c-.83-2.29-1.48-5.69-2.92-7.65-1.67-2.28-2.39-.73-1.94,1.8" transform="translate(-166.38 -30.23)"/><path class="cls-27" d="M209.8,169.17a16.32,16.32,0,0,0-1,3.82,25.86,25.86,0,0,1-.89,4l-2.26,6.55.44-6.77.14-2.13a6.15,6.15,0,0,0-.22-2.14,3.45,3.45,0,0,1,1.45,1.93,8.66,8.66,0,0,1,.48,2.3l-1.82-.22a22.08,22.08,0,0,1,1-4A5.82,5.82,0,0,1,209.8,169.17Z" transform="translate(-166.38 -30.23)"/><path class="cls-21" d="M230.33,255.87s13,.78,3.47-3.12-25.54-11.23-27.27-11.08-5.2-1.09-1.3,2.65c0,0-4.11-.95-3.47,4.44s1.09,56.87,1.09,56.87a13.37,13.37,0,0,0,3.89,9.83c4.33,4.21-4.11,1.87-4.11,1.87l-3.38,39.79a1.88,1.88,0,0,0,.88,1.63l2.72,1.95-3.46.52c-1.08.16-1.3,1.1-.33,1.45a34.47,34.47,0,0,0,17.87,1.46l17.83-103.7c.07-.38-.3-.74-.88-.84L214.53,256Z" transform="translate(-166.38 -30.23)"/><path class="cls-13" d="M330.19,193.21V199c0,2.4.76,6.14-1.12,8a6.53,6.53,0,0,1-2.52,1.33c.61-.17-3.19-3.73-3.42-3.93-1.55-1.36-2.72-2.92-2.16-5.14a39.18,39.18,0,0,1,4.19-9.15,8.29,8.29,0,0,1,7.17-3.95c3.69-.09,4.39,3.4,5.65,5.26,0,0,1.48,2.47-3.39,2a5.51,5.51,0,0,1-2.43-1.61" transform="translate(-166.38 -30.23)"/><path class="cls-19" d="M324.06,196.85s6.6-2.18,6.75-6.74a6.69,6.69,0,0,0,2.74,3c2,1.11,4.23-1,4.23-1,.22,1.93-2.44,1.8-3.73,1.19" transform="translate(-166.38 -30.23)"/><path class="cls-19" d="M320.78,200.94c1.89-5.28,3.21-10,7.32-13.62,3.89-3.42,10.23.51,9.64,5.26" transform="translate(-166.38 -30.23)"/><path class="cls-13" d="M284.84,81.69s-1.21,13.84,2.42,20.64c0,0,9,16.51-16.94,29.37s-37.76,8.5-57.61-3.15c0,0-10.46-8.28-10.7-16.29,0,0,.29-15,.78-21.59,0,0,21.06-10.19,22.75-10.19S284.84,81.69,284.84,81.69Z" transform="translate(-166.38 -30.23)"/><path class="cls-39" d="M258.47,122.47c-2.67.34-17.33,2-28-.65-.17,0-.3.12-.19.24,1.56,1.61,7.82,7.79,12.82,8.67a2.75,2.75,0,0,0,.76,0c1.7-.13,8.35-1.09,14.75-8A.15.15,0,0,0,258.47,122.47Z" transform="translate(-166.38 -30.23)"/><path class="cls-40" d="M257.6,123S250,130.65,244,130.3s-12.87-7.84-12.87-7.84S241.62,125,257.6,123Z" transform="translate(-166.38 -30.23)"/><path class="cls-41" d="M255.46,124.08a17.34,17.34,0,0,1-5.69,2.53,19.16,19.16,0,0,1-6.22.58A13.41,13.41,0,0,1,242,127a10,10,0,0,1-1.54-.31l-1.51-.41-1.47-.57a23.5,23.5,0,0,1-2.81-1.37c-.89-.53-1.73-1.16-2.59-1.73.88.54,1.74,1.13,2.65,1.63a24.12,24.12,0,0,0,2.82,1.32l1.45.54,1.51.38a8.68,8.68,0,0,0,1.52.29,13.2,13.2,0,0,0,1.54.18,18.8,18.8,0,0,0,6.16-.49A19.84,19.84,0,0,0,255.46,124.08Z" transform="translate(-166.38 -30.23)"/><path class="cls-42" d="M284.82,81.7s-1.21,13.92,2.42,20.76c0,0,8.95,16.61-16.94,29.55-25.05,12.52-37,8.82-55.67-2a24,24,0,0,1-4.06-2.94,39.85,39.85,0,0,1-3.92-4.11A21.35,21.35,0,0,1,201.93,107c.52-5,1.16-12.48.86-16.29,0,0,21.05-10.26,22.74-10.26S284.82,81.7,284.82,81.7Z" transform="translate(-166.38 -30.23)"/><path class="cls-20" d="M276.49,109.83c-1.27.49-2.78.18-4.08.67a9.43,9.43,0,0,0-2.72,1.83c-1.48,1.19-4.21,4.2-5.53,1.57-2.35-4.68,6.28-7.65,9.08-7.79C275.23,106,280.93,108.11,276.49,109.83Z" transform="translate(-166.38 -30.23)"/><path class="cls-20" d="M224.57,110.09c1.22,2,1.91,6.14-1.64,5.35-2.06-.46-3.81-2.72-5.91-3.38-1.8-.56-6.86.28-6.4-2.44.41-2.49,4.65-3,6.4-3C220.54,106.46,222.69,106.63,224.57,110.09Z" transform="translate(-166.38 -30.23)"/><path class="cls-43" d="M224.57,110.09a6.71,6.71,0,0,0-1.95-1.78,8.88,8.88,0,0,0-2.38-1,18,18,0,0,0-2.59-.5c-.44,0-.89-.08-1.34-.12s-.91-.06-1.38-.13a12.18,12.18,0,0,1,1.35-.36c.46-.08.93-.13,1.4-.17a9.73,9.73,0,0,1,2.83.32,6.63,6.63,0,0,1,2.57,1.32A4.28,4.28,0,0,1,224.57,110.09Z" transform="translate(-166.38 -30.23)"/><path class="cls-43" d="M273.24,106.11c-1.49.66-2.94,1.19-4.37,1.8-.71.29-1.4.62-2.1,1s-1.36.73-2.07,1.15a6.33,6.33,0,0,1,1.65-1.81,10.76,10.76,0,0,1,2.13-1.22,13,13,0,0,1,2.33-.7A9,9,0,0,1,273.24,106.11Z" transform="translate(-166.38 -30.23)"/><path class="cls-44" d="M254.31,107s-3.84-12.07,7.11-15c0,0,11.23-2.52,12.64,9.74C274.06,101.72,270.41,111.83,254.31,107Z" transform="translate(-166.38 -30.23)"/><circle class="cls-45" cx="97.48" cy="69.8" r="6.65"/><path class="cls-46" d="M269.33,100s.57,4.6-5.05,5.25-5.62-5.25-5.62-5.25S263.53,107,269.33,100Z" transform="translate(-166.38 -30.23)"/><circle class="cls-47" cx="97.49" cy="69.13" r="2.56"/><path class="cls-48" d="M270.5,106a8,8,0,0,1-3,1.86,13.62,13.62,0,0,1-3.44.78,15.84,15.84,0,0,1-3.51-.06c-.58-.07-1.15-.21-1.72-.32s-1.11-.32-1.66-.52c.59,0,1.16,0,1.73,0l1.7,0c1.13,0,2.25,0,3.36-.15a22.71,22.71,0,0,0,3.3-.54A15.77,15.77,0,0,0,270.5,106Z" transform="translate(-166.38 -30.23)"/><path class="cls-48" d="M274.06,101.72a14.46,14.46,0,0,0-1.42-4.34A9.4,9.4,0,0,0,269.8,94a10.84,10.84,0,0,0-8.45-1.46A10,10,0,0,0,254.83,98a15.79,15.79,0,0,0-.52,8.95c-.21-.74-.4-1.49-.59-2.25s-.23-1.54-.28-2.32a12.66,12.66,0,0,1,.67-4.67,10.32,10.32,0,0,1,7-6.17c.84-.15,1.6-.18,2.4-.27l1.2,0a5.28,5.28,0,0,1,1.19.12l1.19.25c.38.12.75.28,1.13.42a5,5,0,0,1,1.08.55,5.64,5.64,0,0,1,1,.7,9.94,9.94,0,0,1,2.81,3.81A13,13,0,0,1,274.06,101.72Z" transform="translate(-166.38 -30.23)"/><path class="cls-44" d="M235,106.3s3.83-12.08-7.12-15c0,0-11.24-2.53-12.64,9.74C215.24,101.06,218.89,111.17,235,106.3Z" transform="translate(-166.38 -30.23)"/><circle class="cls-45" cx="59.07" cy="69.13" r="6.65"/><path class="cls-46" d="M220,99.36s-.57,4.6,5.05,5.26,5.62-5.26,5.62-5.26S225.77,106.35,220,99.36Z" transform="translate(-166.38 -30.23)"/><circle class="cls-47" cx="58.92" cy="68.46" r="2.82"/><path class="cls-48" d="M218.79,105.31a16,16,0,0,0,3.2,1.11,24.55,24.55,0,0,0,3.31.54c1.11.12,2.23.13,3.36.15l1.7,0c.57,0,1.14,0,1.73,0-.54.2-1.1.36-1.66.52s-1.14.25-1.72.31a15.84,15.84,0,0,1-3.51.07,13.54,13.54,0,0,1-3.44-.79A8.05,8.05,0,0,1,218.79,105.31Z" transform="translate(-166.38 -30.23)"/><path class="cls-48" d="M215.24,101.06a13.08,13.08,0,0,1,1-4.55,9.81,9.81,0,0,1,2.81-3.8,4.49,4.49,0,0,1,1-.7,5.53,5.53,0,0,1,1.08-.56c.38-.14.75-.3,1.13-.42l1.19-.24a5.29,5.29,0,0,1,1.19-.13l1.2,0c.8.09,1.56.11,2.4.26a10.34,10.34,0,0,1,7,6.18,12.85,12.85,0,0,1,.68,4.67c-.05.78-.19,1.55-.29,2.32s-.38,1.51-.58,2.25a15.82,15.82,0,0,0-.53-9A9.93,9.93,0,0,0,228,91.85a10.84,10.84,0,0,0-8.45,1.46,9.34,9.34,0,0,0-2.84,3.41A14.37,14.37,0,0,0,215.24,101.06Z" transform="translate(-166.38 -30.23)"/><line class="cls-49" x1="78.99" y1="78.41" x2="78.99" y2="80.82"/><path class="cls-48" d="M243.19,111.05a7.93,7.93,0,0,1,2.34-.41,4.27,4.27,0,0,1,2.42.61,3.07,3.07,0,0,1,1.29,2.29,7.15,7.15,0,0,1-.35,2.49,4.27,4.27,0,0,1-.52,1.16,3.43,3.43,0,0,1-.89,1,2.83,2.83,0,0,1-2.62.26,8.58,8.58,0,0,1-3.76-2.93,11.78,11.78,0,0,0,4,2.18,2.06,2.06,0,0,0,1.85-.28,3.5,3.5,0,0,0,1-1.72,6.5,6.5,0,0,0,.36-2.11,2.33,2.33,0,0,0-.81-1.73,4.07,4.07,0,0,0-2-.75A10.45,10.45,0,0,0,243.19,111.05Z" transform="translate(-166.38 -30.23)"/><ellipse class="cls-20" cx="79.34" cy="83.45" rx="2.24" ry="1.85"/><path class="cls-9" d="M257.19,86.75l.72,2.54s9.69-2.25,17.18,1.8C275.09,91.09,273.79,85,257.19,86.75Z" transform="translate(-166.38 -30.23)"/><path class="cls-9" d="M235.94,86.75l-.72,2.54S225.54,87,218,91.09C218,91.09,219.34,85,235.94,86.75Z" transform="translate(-166.38 -30.23)"/><path class="cls-19" d="M326.15,209c.87-.84,2.87-1.5,3.59-2.51" transform="translate(-166.38 -30.23)"/><path class="cls-8" d="M202.4,93.39s-4.78-.06-5.93,6.77,5.14,10.48,5.14,10.48Z" transform="translate(-166.38 -30.23)"/><circle class="cls-50" cx="93.83" cy="70.85" r="1.16"/><circle class="cls-50" cx="54.85" cy="70.34" r="1.16"/><rect class="cls-30" x="342.39" y="170.37" width="7.02" height="7.02" rx="0.25" transform="translate(-154.14 -52.7) rotate(3.79)"/><rect class="cls-30" x="341.39" y="185.47" width="7.02" height="7.02" rx="0.25" transform="translate(-153.14 -52.6) rotate(3.79)"/><rect class="cls-30" x="340.39" y="200.57" width="7.02" height="7.02" rx="0.25" transform="translate(-152.15 -52.5) rotate(3.79)"/><g id="MnKpsb"><path class="cls-4" d="M351.42,171.46c-1.26,1.46-2.55,2.89-3.83,4.34-.46.52-.92,1-1.39,1.55a.62.62,0,0,1-1,0c-.64-.76-1.23-1.56-1.83-2.34a4.57,4.57,0,0,1-.56-.82l0-.14a3.73,3.73,0,0,1,1-.8.38.38,0,0,1,.51.12c.45.56.89,1.13,1.33,1.7.08.1.12.13.22,0l3.73-4.22.4-.42a.42.42,0,0,1,.6-.05c.24.2.46.43.69.64s.09.19.13.28Z" transform="translate(-166.38 -30.23)"/></g><g id="MnKpsb-2" data-name="MnKpsb"><path class="cls-4" d="M350.45,185.19c-1.26,1.46-2.55,2.89-3.83,4.34-.46.52-.92,1-1.39,1.55a.62.62,0,0,1-1,0c-.64-.76-1.23-1.56-1.83-2.34a4.57,4.57,0,0,1-.56-.82l0-.14a3.73,3.73,0,0,1,1-.8.38.38,0,0,1,.51.12c.45.56.89,1.13,1.33,1.7.08.1.12.13.22,0l3.73-4.22.4-.42a.42.42,0,0,1,.6,0c.24.2.46.43.69.64s.09.19.14.28Z" transform="translate(-166.38 -30.23)"/></g><g id="MnKpsb-3" data-name="MnKpsb"><path class="cls-4" d="M349.71,200c-1.26,1.47-2.55,2.9-3.83,4.35l-1.38,1.55a.62.62,0,0,1-1,0c-.64-.76-1.24-1.55-1.84-2.34a4,4,0,0,1-.55-.81l0-.15a3.9,3.9,0,0,1,1-.8.38.38,0,0,1,.51.12c.45.57.9,1.13,1.33,1.7.08.1.12.13.22,0,1.25-1.41,2.49-2.82,3.74-4.22l.39-.43a.42.42,0,0,1,.6,0c.24.2.47.42.7.63.08.08.08.19.13.29Z" transform="translate(-166.38 -30.23)"/></g><rect x="355.28" y="175.62" width="15.01" height="1.04" transform="translate(-153.95 -53.81) rotate(3.79)"/><rect x="355.43" y="173.27" width="15.01" height="1.04" transform="matrix(1, 0.07, -0.07, 1, -154.11, -53.82)"/><rect x="354.39" y="190.24" width="15.01" height="1.04" transform="translate(-152.99 -53.72) rotate(3.79)"/><rect x="354.54" y="187.89" width="15.01" height="1.04" transform="translate(-153.14 -53.73) rotate(3.79)"/><rect x="353.41" y="204.98" width="15.01" height="1.04" transform="translate(-152.02 -53.62) rotate(3.79)"/><rect x="353.57" y="202.63" width="15.01" height="1.04" transform="translate(-152.17 -53.63) rotate(3.79)"/><rect class="cls-2" x="348.74" y="152.87" width="18.16" height="1.8" transform="translate(539.05 299.18) rotate(-176.45)"/><path d="M276.61,77c3.1.47,4,4.92.89,6.08-.78.28-1.7-.12-2.29,0-.81.2-1.44.85-2.29,1-2.23.48-3.27-.42-4.7-2.1a11.93,11.93,0,0,1-7.41,1.82c-2.21-.11-2.57-.95-4.26-1.75-.76,1.64-2.55,1.26-4.23,1.24a14,14,0,0,1-2.7-.19c-.46-.09-.81-1-1.16-1.08-3-.41-7,2.33-10.44,2-2.32-.2-2.82-1.17-4.7-2.52-2.53,1.73-7,3.52-9.85,1.54-2.19,3.3-9.5,5.78-13,3.81-.61,3.19-4.36,4.07-7.13,4.09-1.06,2.8-4.41,3.94-4.63.46-.3-4.71,3.68-8.6,7-11.43,7.13-6,14.65-9.73,23.52-12.77,9.48-3.26,18.55-4.91,27.78.19a89.57,89.57,0,0,0,13.71,6.67C272.64,74.84,275.09,75.63,276.61,77Z" transform="translate(-166.38 -30.23)"/><path class="cls-9" d="M197.34,94a32.69,32.69,0,0,1-.52-11.79c.73-4.2,3.09-6,5.81-8.59,5.85-5.48,12.7-8.69,19.93-10.74,7.63-2.16,15.78-1.39,23.57-1.37a32,32,0,0,1,12.25,2.54c3.13,1.3,6.77,2.55,9.53,4.76,3.59,2.89,6.49,7.87,8.17,12.44.75,2,4.2,4.07,1.06,5.49-1.93.87-4.31-1.34-4.71-3.47-3.75.06-8.63,4.11-11.17-1.53-2.12,1.54-3.06,2.49-5.9,2.69-4.32.31-4.72-.31-6.27-4.22-2.68,1.12-10.45,5.64-11.43-.29-2.54,2.46-15.15,6.38-15-.61-2.78,4.27-3.35,4.76-8.53,6.28-2.91.85-1.47.91-3.22,3.4s-4.73,2.35-7.1,2.46c-.1,2.22-.89,11.31-4.64,7.57-1.48,2.93-3,0-3.18-1.86-.09-1.16.63-2.5.54-3.34s-.92-1.74-1.07-2.71c-.35-2.33.77-4.33,1.05-6.53.49-3.8,1.26-4.66,4.15-7.17,5.47-4.75,13-6.24,19.68-7.16a110,110,0,0,1,42.29,2.22c2.7.72,4.93,1.8,7.57,2.25,1.3.23,5.52,0,6.41,1s-.14,2.54.11,3.34,1,1.29,1.5,2c.87,1.23,2.85,3.11,1.39,4.59s-4.5-1.7-5.91-2.27c-3.66-1.46-7-1.66-10.88-1.91a100.91,100.91,0,0,0-15.26-.28,58.85,58.85,0,0,1-14.16-.3c-2.77-.41-5.45-1.53-8.16-1.68-2.49-.14-4.77.92-7,2.24-4.65,2.8-9.69,5.07-13.61,9.09-2.21,2.26-2.34,6.32-2.58,9.47-.1,1.34.29,3.91-.39,4.94-2.69-2.48-3.42-6.52-4.16-10.21Z" transform="translate(-166.38 -30.23)"/><path class="cls-43" d="M293.05,73.83s-6.72-47.95-54.94-43.28c0,0-36.62,1.78-42.72,39.18C195.39,69.73,241.17,50.17,293.05,73.83Z" transform="translate(-166.38 -30.23)"/><path class="cls-51" d="M294.18,78.6s-.47-4.36-1.25-5.92c0,0-40.49-23.35-97.54-3.78,0,0-1.09,3.16-.63,5.18C194.76,74.08,247,56.65,294.18,78.6Z" transform="translate(-166.38 -30.23)"/><path class="cls-52" d="M200.91,68a14.26,14.26,0,0,0-.91,3.27s36.09-11,70.27-3.27C270.27,68,238.07,56.88,200.91,68Z" transform="translate(-166.38 -30.23)"/><path class="cls-43" d="M307.44,94.36s-2.08-23.92-54.3-27.44c0,0-36.87-2.74-57.71,6.92a10.1,10.1,0,0,0-2.27,1.43c-2.62,2.17-9.29,8.24-9.68,13.88,0,0,10.65-7.65,35.88-9.38C219.36,79.77,276.06,72.05,307.44,94.36Z" transform="translate(-166.38 -30.23)"/><path class="cls-20" d="M323.11,209.47a2.26,2.26,0,0,0,0-3.65,1.41,1.41,0,0,0-.24-.13c-1.4-.59-3.28.89-4.53,1.52a73.11,73.11,0,0,1-11.4,4.13,34.9,34.9,0,0,1-8.68,2c-4.13.21-5.11-2.69-7.81-5-2.5-2.14-5.72-2.27-8.91-2.11-4.58.22-2.8,3-.61,5.36,2.55,2.7,4.29,6,6.41,9,4.78,6.69,13.23.42,18.79-2a81.71,81.71,0,0,0,8.91-5c2.62-1.55,5.47-2.32,7.91-4A1.56,1.56,0,0,0,323.11,209.47Z" transform="translate(-166.38 -30.23)"/></svg>