<svg id="Layer_1" data-name="Layer 1" xmlns="http://www.w3.org/2000/svg" viewBox="0 0 475.62 154.94"><defs><style>.cls-1{fill:#706c63;}.cls-2{fill:#918d84;}.cls-3{fill:#99958c;}.cls-4{fill:#7d7972;}.cls-5{fill:#aba79e;}</style></defs><title>rocks</title><path class="cls-1" d="M714.47,452l12.45,30.64c1.07,3.64,1.53,7.43,3.32,10.9,1,6.81,3.42,13.33,5,20a1.28,1.28,0,0,0,.59,1.5l-.06,1.43c-1.5,4-.35,8.14-.82,12.19-1,.78-.65,1.86-.84,2.82-1.79,2.09.28,3.15,1.47,4.55,3.78,4.48,9.92,7.63,10.09,14.15A65,65,0,0,0,746.8,558l.66,5.09c.27,3.65,1.75,7.17,1.51,10.88l-55,14a9,9,0,0,1-1.57.13q.72-5.42,1.43-10.84c.69-3.26.46-6.65,1.89-9.8l8.12-5.85a7.77,7.77,0,0,0,3.4-1c4.84-2.13,9.74-4.15,14.62-6.21.57,1.81,2.29,2.43,4.05,3a1.65,1.65,0,0,0,1.68,1.41l.37.13-.35-.15c0-.91-.57-1.39-1.58-1.49a5.2,5.2,0,0,0-4.2-3.49c.77-6.78,3.55-13.25,4-20.07-.58-3.58-2.66-6.71-4-10.07-.81-2.05-2.63-2.36-4.58-1.83-12.28,3.32-25.73,3.72-36.42,11.05a2.41,2.41,0,0,1-.79.16c-2.71-1.94-5-4.13-5.8-7.25,0-1.22-1.11-1.9-1.68-2.84-.16-2.16.79-4.42-.69-6.47a13.35,13.35,0,0,0-1.45-6.44c-.75-6.8,3.32-12.61,5-18.9.17-.59,1.84-.38,1.23-1.43-1.57-2.72-.42-5.62-.87-8.41s1.05-4.41,3.84-5.57c4.35-1.81,8.32-4.15,10.53-8.07C695.28,458.83,705.3,456,714.47,452Zm15.61,108.25-.31-.15.33.13.14.68.37-.17Z" transform="translate(-402.1 -435.45)"/><path class="cls-2" d="M641.7,473.38c2.85-.47,3.89-2.8,5.68-4.32,4.12-3.46,8-7.11,12-10.69,4.27,1.78,5.48,4,4.3,8a3.81,3.81,0,0,0-2.45,4.47,5.63,5.63,0,0,1-2,5.19,53.09,53.09,0,0,0-11.89,15.45c-.42.18-1.15.29-1.21.54-.2.76.6.76,1.19.87l0,.72c-3,3.89-2.91,8.55-4.12,12.88l-12.6,1.13A159.43,159.43,0,0,0,650.3,510c1.33.1,3.15.59,3.56-1.37,4.12.64,6,2.82,5.76,6.44.46,1.65,1.09,3.29.82,5-.42,2.14,1.52,4.49-.76,6.47l-.8,1.3c-2.27.61-4.58,1.17-5,3.71h0c-2.93.07-5.43,1.4-8.15,2.1-7.16,1.83-14.21,4.62-21.87,3.48-7.3-1.09-14.67-.07-22-1.28-9.7-1.61-19.71-1.75-29.2-4.48l-.65-.59c-1-2.68-3.81-3.91-5.89-5.73-1.18-2.21-4.44-3-4.92-5.72,2.17-.16,4.45.41,6.46-.78,3.8,4,9.48,5.14,14.53,7.44-3.5-3.09-4.79-7.72-9.59-9.69.5-1.59,2-1.1,3.27-1.3,3.33-.52,6.83-.2,10-1.47,4.89.43,9.65-1.21,14.55-.67,2.82-.43,4.94.8,7.07,2.17,7.2,4.67,14.44,9.29,21.66,13.93.62.39,1.26,1.31,2,.59,1-.94-.2-1.42-.93-1.91-6.25-4.21-12-8.89-17.85-13.53-.79-.64-2-1.12-1.67-2.24s1.51-1.35,2.53-1.63c1.79-.5,3.78-.49,5.3-1.64,6.55-9.8,12.19-20.05,19.71-29.35C639.79,477.57,641.82,475.88,641.7,473.38Z" transform="translate(-402.1 -435.45)"/><path class="cls-2" d="M438.34,512.58a78.13,78.13,0,0,1,18.9.37c.65,2.58,2.34,4.71,3.85,6.93.51.76.41,2.18,1.8,2a3.84,3.84,0,0,0,2.28-1.78,2.06,2.06,0,0,0-.73-2.84c-1.69-1.32-3.18-2.83-4.76-4.27,5.62.23,11.11-.69,16.64-1.32a5.35,5.35,0,0,0,4.56-3.07,34,34,0,0,0,2.39-4.94c1.63-5,5.56-8,10.74-10.07,4.18,1.22,6.26,4.72,9.68,6.84,4.77,2.95,5.06,5.19,2.68,10-.33.68-.84,1.23-.11,1.9.9.83,1.74.17,2.6-.08,1.52,0,3.3-.17,4.2.94,3.78,4.66,6.08,9.7,4,15.56-2.1,1.81-4.2,3.66-5.44,6-2.28,4.29-6.35,6.16-11.37,6.94-1.18.18-2.34.49-3.51.75-.62-.68-1.35-.45-2.2-.35-4.28.5-8.38,1.66-12.8,1.8-9.27.31-17.93-2.21-26.84-3.57-2.92-.45-5.08-1.94-7.23-3.7s-3.4-4.32-6-5.74h0c-1.08-4-3.31-7.84-2.5-12.14C438.65,516.7,439.62,514.52,438.34,512.58Zm49.4,1.49c-2.94-.37-5.05-.6-7.16-.89-1.34-.19-3-.72-3.86.21-1,1.09,1,1.68,1.39,2.62.44,1.11.72,2.27,1.12,3.4.25.71-.1,1.92,1.33,1.8,1.06-.09,2.54-.59,2.52-1.52C483,517,485.45,516,487.74,514.07Zm.61-14.62c1.07,3.12,3.12,5.05,7.07,4.68Z" transform="translate(-402.1 -435.45)"/><path class="cls-1" d="M496.74,542.44c1.17-.26,2.33-.57,3.51-.75,5-.78,9.09-2.65,11.37-6.94,1.24-2.35,3.34-4.2,5.44-6,1.72.07,2.44,1.22,3.38,2.23,1.24,1.34,2.45,2.87,4.82,2.77,4.29.19,8.25-1.17,12.23-2.22,2.3-.61,4.93-1.42,6.61-.24s.75,3.69.33,5.69c-1.09,5.09-3.56,10-2.75,15.37.36,2.34.53,4.71.79,7.06-15.27,3.92-30.87,6.78-46.16,10.57-11,2.73-22.29,2.93-33.37,4.7.48-2.62-1.31-5.71,1.29-7.8a7.34,7.34,0,0,0,2.8-7.32c5.19-3,10.2-6.56,16.41-7.59C490.09,550.86,493.28,546.64,496.74,542.44ZM507.79,562c2.63-.93,4.21-2.84,6-4.54,2-1.89,3.53-4.6,7.48-4,.91.15,2.17-.84,1.76-1.93s-1.58-.5-2.48-.35C513.69,552.37,510.56,557,507.79,562Z" transform="translate(-402.1 -435.45)"/><path class="cls-3" d="M552.32,480.6c2.91-4.23,3.85-9.08,5.44-13.71,1-3,2.93-5.07,5.38-7.27,7.55-6.77,17-10.72,26.7-14.15,7.5-2.67,15.39-2.69,22.26,2.23-1.76,1.41-.31,2.93.41,3.83,2.09,2.58,3.1,5.53,4.54,8.34-2.93.53-5,2.28-7.26,3.8-6.39,4.3-9.47,11.53-17.7,14.38-3.66,1.26-6.56,2.54-10.2.56a5.36,5.36,0,0,0-5.8.06c2.45.95,5,.57,6.58,2-9.85,3.78-20.18,2.8-30.39,2.86Z" transform="translate(-402.1 -435.45)"/><path class="cls-1" d="M744.14,474.56c12.52,2,23.32,7.91,35,11.83,7.45,2.5,12,6.55,14.94,12.93,1.7,3.69,2.43,6.76.48,10.44a80.23,80.23,0,0,0-4.36,10.42c-1.79,5-.64,6.44,5.07,6.06,3.9-.26,5,2.11,6.05,4.33a77.73,77.73,0,0,1,2.95,8.55c-1,6.91-1.41,13.92-4.52,20.47-2,5.74-7.53,8.17-13.06,10.59,1.76-5.81-1-11.6-.06-17.39.78-4.94-.86-9.11-4.84-12.62,0-2.22,1.39-4.36.52-6.63a30.35,30.35,0,0,1-2.38-10c-.07-2-1.26-3.64-4.12-3.43-1.77.13-2.42-.73-2.36-2.16,1.31-1.71,2.21-3.89,4-5,3.43-2.21,4-4.65,2.4-7.82,2.76-.11,4.65,1.92,7.4,2.06-9.39-6.79-18.47-13.94-30.43-17.27,2.72-3.52.44-4.24-3.13-5.32-3.22-1-6.36-.84-9.54-1.18A10.22,10.22,0,0,1,744.14,474.56Z" transform="translate(-402.1 -435.45)"/><path class="cls-2" d="M542.47,559.4c-.26-2.35-.43-4.72-.79-7.06-.81-5.37,1.66-10.28,2.75-15.37.42-2,1.5-4.39-.33-5.69s-4.31-.37-6.61.24c-4,1.05-7.94,2.41-12.23,2.22a20.83,20.83,0,0,1,1.27-8.79c.39-1.11,1-2.75-.63-3.12-4.6-1-2.66-2.59-.65-4.19,1.21-1,1.37-2.23,1.92-3.43s-.18-3.12,2.19-3.41c0,2.6,0,5.2,0,7.8,0,4,0,4.06,4.55,2.72a47.18,47.18,0,0,1,8.59-1.89c2.67-.82,4.17.1,5.85,2.07,1.82,2.13,3.11,5.31,7.24,5.08.05.94-.23,2,.19,2.81,3.56,6.78,6.71,13.85,14.56,18,3.21,3.63,3,4.43-1.63,7.16-.09-.46-.12-1-.79-1-.13,0-.46.27-.44.39.1.58.66.64,1.2.69-.33,1.42,1.2,2.69.45,4.15-3.54,6.84-2.18,13.9-1.26,20.93-1.21,1-.89,2.06-.09,3.1a9.62,9.62,0,0,1,1.72,4.18c-6.32-1.82-12.62-4-17.89-7.41C544.09,574.67,542.9,567,542.47,559.4Zm6.89-12c1.79,8.55,1.92,8.71,7.34,8.86C552.52,554.36,552.38,550.64,549.36,547.38Z" transform="translate(-402.1 -435.45)"/><path class="cls-3" d="M569.47,586.92a9.62,9.62,0,0,0-1.72-4.18c-.8-1-1.12-2.09.09-3.1s.8-2.21.81-3.36c0-3.7-.06-7.41,0-11.11.16-7,2.65-9.16,10.46-9.19,1.91,0,3.82,0,5.73-.12,10.16-.41,20.12-4.49,30.49-1.32-2.32,5.38-4.32,10.85-7.63,15.92-2.11,3.24-5.31,5-8.71,6.58-3.9,1.85-8.17,3.13-11.94,5.14-2.66,1.42-6.07,2-7.75,4.68A20.55,20.55,0,0,1,569.47,586.92Z" transform="translate(-402.1 -435.45)"/><path class="cls-3" d="M467,559.55a7.34,7.34,0,0,1-2.8,7.32c-2.6,2.09-.81,5.18-1.29,7.8-7.57-1.29-14.47-4.18-21.39-7,1.23-1.43.5-2.9.18-4.4-1-4.75,1.13-7,6.64-7.31.94-.05,2.26.49,2.66-1-2.39-1.7-5.11-1.37-7.7-.73-3.64.91-5.75-.11-6.56-3.3,1.31-1.13.93-2.46.32-3.64-3.35-6.45-6.78-12.87-10.19-19.3-1.15-1.56,2.91-4-1.14-5.09,0-3.2,1.64-5.33,5.14-6.35,2.83-.81,4.46-3.36,7.45-4,1.27,1.94.3,4.12.82,6.15-3,2.6-1.54,9.63,2.5,12.14h0a4.15,4.15,0,0,0,1.38,3.6,56.9,56.9,0,0,0,7.68,6.28c6.76,4.41,13,9.27,14.63,17.1C465.55,558.77,465.85,559.45,467,559.55Z" transform="translate(-402.1 -435.45)"/><path class="cls-4" d="M579.33,586.86c1.68-2.67,5.09-3.26,7.75-4.68,3.77-2,8-3.29,11.94-5.14,3.4-1.62,6.6-3.34,8.71-6.58,3.31-5.07,5.31-10.54,7.63-15.92a3,3,0,0,1,2.42-1.5c.25,3.53,3.24,2.24,5.17,2,6.26-.83,12-3.22,17.88-5.09,1.07-.33,2.2-.67,3.13-.16,1.31.72.2,1.75-.07,2.55-1.79,5.22-3.79,10.39-5.47,15.64-.27.84-2.11,2.55.71,3.08l0,.67c-4.45.95-8.11,3.36-12.14,5.07-1,.45-.91,1.34-1,2.14a1.74,1.74,0,0,0-1.58.71C609.77,583.94,594.84,586.82,579.33,586.86Z" transform="translate(-402.1 -435.45)"/><path class="cls-4" d="M781.79,540.17c4,3.51,5.62,7.68,4.84,12.62-.92,5.79,1.82,11.58.06,17.39a92.3,92.3,0,0,1-18.09,4.43c-1-3.31-2.29-6.51-5.69-8.63-1.76-5-5.41-9.5-4.22-15.08a3,3,0,0,0,0-.6c0-.52,0-1,0-1.56l.08-3.5c2.46-.35,5.69,1.12,7.25-1.2,2.05-3.06,4.9-3.24,8.31-3.18A64.67,64.67,0,0,0,781.79,540.17Zm-15.06,13.62c4.07,3.59,4.11,3.59,9.7-.31C773.28,552.63,770.53,554.35,766.73,553.79Z" transform="translate(-402.1 -435.45)"/><path class="cls-2" d="M693.86,577.32q-.71,5.41-1.43,10.84c-6.21-2.73-11.94-6.38-18.9-7.73,2-3.38,4.14-6.75.53-10.53l-2.12,2.61c-3.29,0-6.62-.37-9.81.72-.82-1.4-2.39-1.79-3.93-2.24-3.16-.92-5.32-2.68-6-5.66,2.52-.44,3.19-2.27,4-4,.89-2.94,1.84-5.87,2.62-8.83a2,2,0,0,1,2.23-1.57c5.1,3.64,10.07,7.29,16.89,8.55,3.7.68,7.69,1.53,10.34,4.41,4.4,3.08,6.2,7,5,11.86C693.15,576.19,693.65,576.78,693.86,577.32Z" transform="translate(-402.1 -435.45)"/><path class="cls-3" d="M663.72,466.35c1.18-4,0-6.2-4.3-8,6.52-6.9,14.12-12.87,21.66-18.86,7.26-5.75,10-5.4,17.81,1.08-5.8,12.48-15.86,21.94-27.82,30.06-2.72-.81-2.94-4.56-6.57-4.3Z" transform="translate(-402.1 -435.45)"/><path class="cls-1" d="M641.7,473.38c.12,2.5-1.91,4.19-3.33,6-7.52,9.3-13.16,19.55-19.71,29.35-.86-3.35-2.35-6.29-6-8.15a36.88,36.88,0,0,1-4.05-2.79c1.26-1.55,4.17-1.77,4.37-4.17,2.9-3.18.43-7.3,2.43-10.63a1.55,1.55,0,0,0,.73-1.53l.87-1.41c1.55-2.13,2-4.76,4-6.69,2,1.2,4.1,1.91,6.7,1.1a42.59,42.59,0,0,1,13.73-2.31Z" transform="translate(-402.1 -435.45)"/><path class="cls-2" d="M436.77,550.92c.81,3.19,2.92,4.21,6.56,3.3,2.59-.64,5.31-1,7.7.73-.4,1.5-1.72,1-2.66,1-5.51.28-7.65,2.56-6.64,7.31.32,1.5,1,3-.18,4.4-8.34-4.74-15.57-10.66-22.92-16.46-1.32-1.05-.63-2.47-.58-3.73.22-5.65,2-11,4.3-16.22,1.19-2.77,2.28-5.58,3.41-8.37,4.05,1.07,0,3.53,1.14,5.09a11.33,11.33,0,0,0,1.16,5.86C430.81,539.6,435.57,544.57,436.77,550.92Z" transform="translate(-402.1 -435.45)"/><path class="cls-4" d="M870.17,548.93c3.86.73,2.78,3.71,3.14,5.79.33,1.92-2.15,1.72-3.54,2.19-9.08,3.09-18.59,4.16-28.23,4.6-1-3.23-4.31-4.76-6.84-6.67-4.84-3.64-8.24-7.35-5.38-13.21.86-.56.72-1.4.8-2.18,6.32.86,11.36,3.38,14.57,8.4,1,1.64,2,3.78,4.6,3.64,6.81-.38,13.6-1,20.39-1.64C869.88,549.83,870,549.25,870.17,548.93Z" transform="translate(-402.1 -435.45)"/><path class="cls-2" d="M552.32,480.6c0,1,0,2,0,3-1.51,2.66-4.45,3.46-7.36,4.3-3.39-.8-6.25,1.08-9.35,1.61-4.26.73-8.69-.28-12.79,1.26-2.84-.35-5.54.16-7.4,2-1.53,1.54-2.09.92-2.74-.4a41.2,41.2,0,0,0-9.44-12.55c-.15-.14-.11-.45-.16-.68,5.74-3.41,12.26-3.74,18.89-3.63a8.88,8.88,0,0,0,2.36,3.26c2.78,2.31,5.17,5.52,9.92,3.31,5.4-1.84,11-2.2,16.77-2.24A1.38,1.38,0,0,1,552.32,480.6Z" transform="translate(-402.1 -435.45)"/><path class="cls-1" d="M870.17,548.93c-.16.32-.29.9-.49.92-6.79.6-13.58,1.26-20.39,1.64-2.55.14-3.56-2-4.6-3.64-3.21-5-8.25-7.54-14.57-8.4-.58-3.31,2.28-5.91,2.46-9.06a87.77,87.77,0,0,1,22.5,8.51,9.38,9.38,0,0,1,4.15,3.77C861.33,546.76,866.43,547,870.17,548.93Z" transform="translate(-402.1 -435.45)"/><path class="cls-2" d="M832.58,530.39c-.18,3.15-3,5.75-2.46,9.06-.08.78.06,1.62-.8,2.18a2.7,2.7,0,0,0-1.52,2c-.78,4.29-3.85,6.19-8.53,6.62a22.85,22.85,0,0,0-3.13.72c0-4.85-3.28-7-8.35-7.84a2.87,2.87,0,0,1-2.32-3.62C812.89,531,821.9,527.93,832.58,530.39Z" transform="translate(-402.1 -435.45)"/><path class="cls-5" d="M503,479.15c0,.23,0,.54.16.68a41.2,41.2,0,0,1,9.44,12.55c.65,1.32,1.21,1.94,2.74.4,1.86-1.89,4.56-2.4,7.4-2a1.45,1.45,0,0,1-1.52,1.38c-4.53.06-6.17,3-7.39,6-1.38,3.42-2.3,7-3.42,10.48a7.82,7.82,0,0,0-1.59,3.64c-.86.25-1.7.91-2.6.08-.73-.67-.22-1.22.11-1.9,2.38-4.85,2.09-7.09-2.68-10-3.42-2.12-5.5-5.62-9.68-6.84,1.66-3.58,3.16-7.22,5.06-10.7C499.88,481.36,500.77,479.59,503,479.15Z" transform="translate(-402.1 -435.45)"/><path class="cls-5" d="M816.14,551a22.85,22.85,0,0,1,3.13-.72c4.68-.43,7.75-2.33,8.53-6.62a2.7,2.7,0,0,1,1.52-2c-2.86,5.86.54,9.57,5.38,13.21,2.53,1.91,5.87,3.44,6.84,6.67-7.27,1.9-14.58,3.65-22.2,4.09,0-1.86-1.64-3.15-2.28-4.8C815.81,557.59,814.33,554.41,816.14,551Z" transform="translate(-402.1 -435.45)"/><path class="cls-1" d="M617.05,459.87c-1.44-2.81-2.45-5.76-4.54-8.34-.72-.9-2.17-2.42-.41-3.83,3.49,2.23,7.61,3,11.71,3.69a6.37,6.37,0,0,1,4.86,3.24c2.47,4.2,5.43,8.2,5.67,13.13-4.76.75-8.43,4-13.32,4.43C622.27,467.45,619.7,463.65,617.05,459.87Z" transform="translate(-402.1 -435.45)"/><path class="cls-3" d="M816.14,551c-1.81,3.42-.33,6.6.92,9.81.64,1.65,2.24,2.94,2.28,4.8-5.27-1.09-10-3.4-15-5.12-1.49-.51-2.89-1.29-4.61-.89,3.11-6.55,3.54-13.56,4.52-20.47l1.2.41a2.87,2.87,0,0,0,2.32,3.62C812.86,544,816.09,546.14,816.14,551Z" transform="translate(-402.1 -435.45)"/><path class="cls-3" d="M744.14,474.56a10.22,10.22,0,0,0,0,8.84c-.88.55-.79,1.43-1.08,2.21a25.16,25.16,0,0,1-6,8.72c-1.3,1.32-4-1.34-6.38-.74a1.35,1.35,0,0,1-.4,0c-1.79-3.47-2.25-7.26-3.32-10.9,4.18-3.11,9.15-5.12,13.78-7.61C741.74,474.51,742.84,474,744.14,474.56Z" transform="translate(-402.1 -435.45)"/><path class="cls-2" d="M762.91,566c3.4,2.12,4.65,5.32,5.69,8.63-6.56.11-13.14.74-19.63-.61.24-3.71-1.24-7.23-1.52-10.88,2,.09,4.08.17,5.58-1.4,1-.06,1.62-.5,1.65-1.44v0h1.64c.83,2.48,3.24,4,4.9,5.94C761.68,566.78,762.43,566.54,762.91,566Z" transform="translate(-402.1 -435.45)"/><path class="cls-4" d="M662.13,573.23c3.19-1.09,6.52-.7,9.81-.72l-1.59,9.72c-6.41,4-12.7,8.29-21.41,6.06,1.44-1.63,4.18-2.12,4.95-4.34,1.43-.66,3.64-.6,3.35-2.82C662.17,580.06,662.32,576.73,662.13,573.23Z" transform="translate(-402.1 -435.45)"/><path class="cls-3" d="M520.33,583.93c-2.57.24-5.15.48-7.55-.64-2.16-1-4-2-4-4.74A5.48,5.48,0,0,1,512.3,573c4.28-1.7,8.86-2.84,13.35-4.15a2,2,0,0,1,2.32,1.05c-.89.83-2.62,1-2.66,2.49-.41,0-.83,0-1.23,0-2.88.34-5.42,1.95-5,4.22.52,2.93,3.51.78,5.44.84l.82,0c.21,1.81-1.64,2.31-2.74,3.27S520,582.26,520.33,583.93Z" transform="translate(-402.1 -435.45)"/><path class="cls-5" d="M789.11,575.34c-1.57-1.41-.41-2.28.81-3.14a18.19,18.19,0,0,1,5.6-2.71,35.73,35.73,0,0,0,9.21,3.12c2.92.46,6.26.68,8.07,3.38-3.54.74-7.11,1.37-10.6,2.26-4,1-7.71,1.27-10.48-2.2C791.12,575.3,790.06,575.36,789.11,575.34Z" transform="translate(-402.1 -435.45)"/><path class="cls-3" d="M812.8,576c-1.81-2.7-5.15-2.92-8.07-3.38a35.73,35.73,0,0,1-9.21-3.12,7.47,7.47,0,0,1,5.23-1.44c1.49.09,3.09.12,4.27-.72,4.09-2.9,8.21-.81,12.3-.18,1.56.25,2.33,1.13,1.58,2.59-2.51,1.61-3.33,4.31-5.3,6.27A5.35,5.35,0,0,1,812.8,576Z" transform="translate(-402.1 -435.45)"/><path class="cls-2" d="M653.89,584c-.77,2.22-3.51,2.71-4.95,4.34-5.28,0-10.55.05-15.82.05-8.21,0-10-1.76-8.73-8.71a1.74,1.74,0,0,1,1.58-.71c2,.7,1.93,2.52,2.59,3.86,1.13,2.29,2.89,2.82,5.52,2.5A136.51,136.51,0,0,1,653.89,584Z" transform="translate(-402.1 -435.45)"/><path class="cls-2" d="M526.09,470.72c6-1.94,12.27-2,18.51-1.36,3,.33,4.19,2.65,5.19,4.88a5.94,5.94,0,0,1-3.11.22c-3.6-.16-7.27-.9-10.79.48C531.89,474.85,527.46,475.5,526.09,470.72Z" transform="translate(-402.1 -435.45)"/><path class="cls-3" d="M858.73,576c-5.14-1.1-6.81-4.84-3.66-8.54,1.81-2.13,3.25-4.78,6.94-5-.09,2.86,2.39,1.88,4.08,2.09h0c0,1,0,2,1.57,2.17l1.72,2.84C861.19,569.62,860.29,570.16,858.73,576Z" transform="translate(-402.1 -435.45)"/><path class="cls-3" d="M535.89,474.94c3.52-1.38,7.19-.64,10.79-.48a5.94,5.94,0,0,0,3.11-.22c1.54,1.69.12,3.85,1.19,5.61-5.72,0-11.37.4-16.77,2.24C534.3,479.62,533.84,477.06,535.89,474.94Z" transform="translate(-402.1 -435.45)"/><path class="cls-5" d="M404.7,572.76c-.39-2.12,1.81-2.23,3.11-3s2.9-1.54,4.36-2.3c1.34,4.47,6.76,4.19,9.93,6.53-.18,1.36-1.36,1.36-2.5,1.41a5.25,5.25,0,0,0-4.14,1.27l-8.21.1C407.28,575,405,574.36,404.7,572.76Z" transform="translate(-402.1 -435.45)"/><path class="cls-4" d="M488.36,576.07c5.11.34,8.26,3.8,12.17,6,1.52.85,1,2.06-.84,2.54a31.25,31.25,0,0,1-9.58,1.28c-.32-1.87-1.93-2.93-3.38-4.09C488.1,580.07,486.91,577.78,488.36,576.07Z" transform="translate(-402.1 -435.45)"/><path class="cls-5" d="M535.89,474.94c-2,2.12-1.59,4.68-1.68,7.15-4.75,2.21-7.14-1-9.92-3.31a8.88,8.88,0,0,1-2.36-3.26c1.51-1.52,1.71-3.91,4.16-4.8C527.46,475.5,531.89,474.85,535.89,474.94Z" transform="translate(-402.1 -435.45)"/><path class="cls-5" d="M858.73,576c1.56-5.83,2.46-6.37,10.65-6.39,2.83.66,2.36,3.07,3.26,4.74C868.39,577.37,863.67,577.41,858.73,576Z" transform="translate(-402.1 -435.45)"/><path class="cls-3" d="M488.36,576.07c-1.45,1.71-.26,4-1.63,5.72-3.79.37-4.63,2.2-3.28,5.1-3.57-.89-7.52-1.36-8.14-5.55l.18-.18c2.27.42,2.83-1.33,3.92-2.39C481.83,576.42,484.41,574.51,488.36,576.07Z" transform="translate(-402.1 -435.45)"/><path class="cls-4" d="M812.8,576a5.35,5.35,0,0,0,.8,0c.57.9,1.15,1.8,1.72,2.71-5.61,2.45-11.76,2.37-17.78,2.66-3,.14-7.63-3.51-8.43-6,.95,0,2,0,2.61.71,2.77,3.47,6.44,3.23,10.48,2.2C805.69,577.36,809.26,576.73,812.8,576Z" transform="translate(-402.1 -435.45)"/><path class="cls-1" d="M846.94,566.19a18,18,0,0,1,2.28,2.06c2.77,3.51,1.53,6.75-3.06,7.89-2.65.66-5.14,2.06-8.09,1.57.32-1.28.64-2.55.95-3.82a1.5,1.5,0,0,0,.85-1.45c4.06-.26,5.43-2.41,5.21-5.68Z" transform="translate(-402.1 -435.45)"/><path class="cls-3" d="M422.1,574c-3.17-2.34-8.59-2.06-9.93-6.53,1.89-4.16,6.64-2.17,9.84-3.5-1.84,3.07-1.14,4.11,3.32,4.94C424.92,570.92,425.72,573.53,422.1,574Z" transform="translate(-402.1 -435.45)"/><path class="cls-4" d="M872.64,574.34c-.9-1.67-.43-4.08-3.26-4.74l-1.72-2.84c.08-1.06.06-2.06-1.57-2.17h0l0-1.82a15.17,15.17,0,0,1,9.5,3.4,5.4,5.4,0,0,1,1.78,6.2C876.87,574.14,874.54,574.2,872.64,574.34Z" transform="translate(-402.1 -435.45)"/><path class="cls-2" d="M621,472.19c4.89-.45,8.56-3.68,13.32-4.43,2.63,1.15,5.35,2.19,7.18,4.35a42.59,42.59,0,0,0-13.73,2.31c-2.6.81-4.65.1-6.7-1.09C621.07,473,621.05,472.57,621,472.19Z" transform="translate(-402.1 -435.45)"/><path class="cls-1" d="M525.31,572.43c0-1.52,1.77-1.66,2.66-2.49a14.52,14.52,0,0,1,7.18,5.95c2.09,3.27,1.89,3.62-2.55,4.41-1.16-2.11-4.49-.88-5.75-2.84C527.23,575.57,526.19,574,525.31,572.43Z" transform="translate(-402.1 -435.45)"/><path class="cls-4" d="M422.1,574c3.62-.46,2.82-3.07,3.23-5.09l5.67,0c-.66,2-2.63,3.84-.69,6-3.68,2.32-7.32,4.71-12.31,3.66-.39-1.42.92-2.18,1.6-3.19C420.74,575.35,421.92,575.35,422.1,574Z" transform="translate(-402.1 -435.45)"/><path class="cls-3" d="M445,577c-2.74,2.58-6.09,2-9.11.89-2.86-1-1.66-3.13-.66-4.84.83-1.4,1.88-2.68,4-2.52C441.22,572.69,444.13,574.18,445,577Z" transform="translate(-402.1 -435.45)"/><path class="cls-5" d="M461.2,583.34c-1.91-.35-3.17-1.27-3.55-3-.46-2.09,1.81-2.06,3-2.88a20.27,20.27,0,0,1,2.4-1.28c1.79,4.25,6.24,2.8,9.7,3.48,0,.91-.51,1.39-1.54,1.44C467.91,582.06,464.18,581.44,461.2,583.34Z" transform="translate(-402.1 -435.45)"/><path class="cls-3" d="M472.7,579.64c-3.46-.68-7.91.77-9.7-3.48,3.6.62,6.74-2.36,10.57-.9,1.8.68,2.8,1.27,2.22,3C474.42,578.15,473.84,579.39,472.7,579.64Z" transform="translate(-402.1 -435.45)"/><path class="cls-2" d="M431,568.88l-5.67,0c-4.46-.83-5.16-1.87-3.32-4.94,4.35-.15,8.21.77,11,3.94Z" transform="translate(-402.1 -435.45)"/><path class="cls-4" d="M526.85,577.46c1.26,2,4.59.73,5.75,2.84-3.89,1.73-7.24,4.85-12.27,3.63-.38-1.67,1.24-2.19,2.26-3.09s2.95-1.46,2.73-3.27Z" transform="translate(-402.1 -435.45)"/><path class="cls-3" d="M419.6,575.4c-.68,1-2,1.77-1.6,3.19-3.88,0-7.76.2-11.64.1-1.93,0-3.92-.79-4.2-2.64-.21-1.4,0-3.21,2.54-3.29.31,1.6,2.58,2.25,2.55,4a11,11,0,0,0,8.21-.1A5.25,5.25,0,0,1,419.6,575.4Z" transform="translate(-402.1 -435.45)"/><path class="cls-5" d="M618.64,588.85c-2.43,2.39-5.57,1.6-7.6.23-1.88-1.26-.48-3.44,1.05-4.92,1.12-1.09,2.33-1.55,3.71-.3C615.52,586.06,619,586.64,618.64,588.85Z" transform="translate(-402.1 -435.45)"/><path class="cls-2" d="M839,573.89c-.31,1.27-.63,2.54-.95,3.82-1-.34-2-.73-3-1-5.54-1.49-6.1-2.91-2.8-7.22l1.84.09C834.35,572.24,836.68,573.07,839,573.89Z" transform="translate(-402.1 -435.45)"/><path class="cls-5" d="M785.79,580.94c-2.21,2.27-4.87,1.31-7.48.81a1.6,1.6,0,0,1-1.42-2.17c.53-1.93,1.08-4,4.15-3.94-.25,1.72,1.2,2.49,2.56,3.12C784.71,579.29,785.73,579.68,785.79,580.94Z" transform="translate(-402.1 -435.45)"/><path class="cls-5" d="M544.08,584.49c-2,2.06-4.52,1.08-6.84.78-1.6-.21-1.65-1.56-1.39-2.59.48-1.89,1.31-3.64,4.14-3.46C540.67,581.38,544.42,581.72,544.08,584.49Z" transform="translate(-402.1 -435.45)"/><path class="cls-5" d="M845.08,566.76c.22,3.27-1.15,5.42-5.21,5.68-1.62-1.7-2.91-3.73-5.69-4.24l-.26-.25a2.86,2.86,0,0,1,2.71-1.89C839.21,568.48,842.14,567.71,845.08,566.76Z" transform="translate(-402.1 -435.45)"/><path class="cls-1" d="M670.35,582.23l1.59-9.72,2.12-2.61c3.61,3.78,1.49,7.15-.53,10.53C671.85,580.19,671.41,581.63,670.35,582.23Z" transform="translate(-402.1 -435.45)"/><path class="cls-5" d="M459.68,512.94c1.58,1.44,3.07,2.95,4.76,4.27a2.06,2.06,0,0,1,.73,2.84,3.84,3.84,0,0,1-2.28,1.78c-1.39.23-1.29-1.19-1.8-2-1.51-2.22-3.2-4.35-3.85-6.93Z" transform="translate(-402.1 -435.45)"/><path class="cls-1" d="M815.32,578.72c-.57-.91-1.15-1.81-1.72-2.71,2-2,2.79-4.66,5.3-6.27a39.93,39.93,0,0,1,.52,5C819.38,577,818.05,578.44,815.32,578.72Z" transform="translate(-402.1 -435.45)"/><path class="cls-5" d="M483.45,586.89c-1.35-2.9-.51-4.73,3.28-5.1,1.45,1.16,3.06,2.22,3.38,4.09C488,586.73,485.9,587.74,483.45,586.89Z" transform="translate(-402.1 -435.45)"/><path class="cls-3" d="M845.08,566.76c-2.94,1-5.87,1.72-8.45-.7,5.41-2.88,7.84-2.85,10.31.14Z" transform="translate(-402.1 -435.45)"/><path class="cls-4" d="M445,577c-.89-2.84-3.8-4.33-5.73-6.47,2.53-.35,4.7.64,6.8,1.59a3,3,0,0,1,1.94,3.2C447.78,577,446.33,576.89,445,577Z" transform="translate(-402.1 -435.45)"/><path class="cls-4" d="M785.79,580.94c-.06-1.26-1.08-1.65-2.19-2.18-1.36-.63-2.81-1.4-2.56-3.12a8,8,0,0,1,5.71,1.4C788.85,578.68,789.24,580.23,785.79,580.94Z" transform="translate(-402.1 -435.45)"/><path class="cls-2" d="M461.2,583.34c3-1.9,6.71-1.28,10-2.26l1.65,1.45A16.32,16.32,0,0,1,461.2,583.34Z" transform="translate(-402.1 -435.45)"/><path class="cls-1" d="M431,568.88l2-1c2.16,3.25-.34,5.13-2.72,7C428.37,572.72,430.34,570.86,431,568.88Z" transform="translate(-402.1 -435.45)"/><path class="cls-4" d="M544.08,584.49c.34-2.77-3.41-3.11-4.09-5.27a8.06,8.06,0,0,1,5.31,1,2.63,2.63,0,0,1,1.37,2.73C546.52,584.44,545.4,584.6,544.08,584.49Z" transform="translate(-402.1 -435.45)"/><path class="cls-4" d="M618.64,588.85c.31-2.21-3.12-2.79-2.84-5a5.22,5.22,0,0,1,4.2.78,2.74,2.74,0,0,1,1.41,2.78C621.17,588.9,619.89,588.85,618.64,588.85Z" transform="translate(-402.1 -435.45)"/><path class="cls-1" d="M472.81,582.53l-1.65-1.45c1-.05,1.55-.53,1.54-1.44,1.14-.25,1.72-1.49,3.09-1.34,0,1,.67,2-.3,2.86l-.18.18A2.58,2.58,0,0,1,472.81,582.53Z" transform="translate(-402.1 -435.45)"/><path class="cls-2" d="M866.12,562.77l0,1.82c-1.69-.21-4.17.77-4.08-2.09C863.47,561.53,864.81,562,866.12,562.77Z" transform="translate(-402.1 -435.45)"/><path class="cls-5" d="M834.14,569.57l-1.84-.09a2,2,0,0,1,1.62-1.53l.26.25C834.17,568.66,834.15,569.12,834.14,569.57Z" transform="translate(-402.1 -435.45)"/><path class="cls-5" d="M725.89,533.79c-.48,6.82-3.26,13.29-4,20.07a5.83,5.83,0,0,0,0,.59c-4.88,2.06-9.78,4.08-14.62,6.21a7.77,7.77,0,0,1-3.4,1,2.71,2.71,0,0,0-1.43-2c-7-5.23-14.08-10.42-21-15.8-2.47-1.94-5-4-5.48-7.22l1.62-.08a41.5,41.5,0,0,0,22.51,2.21C708.75,537.18,717.31,535.45,725.89,533.79Z" transform="translate(-402.1 -435.45)"/><path class="cls-2" d="M781.79,540.17a64.67,64.67,0,0,1-7.45.69c-3.41-.06-6.26.12-8.31,3.18-1.56,2.32-4.79.85-7.25,1.2a21.89,21.89,0,0,0-.09-4.29c-.59-2.89-1.12-5.89-4.85-7.2-.09-.83-.31-1.62-1.42-1.83-.46-.09-.78.18-.68.59.25,1,1.16,1.14,2.11,1.24,1.26,1.87-.3,3.38-.84,5v0c-1.76,2.22-3.28,1.27-4.84-.23-3.8-3.67-8-6.71-14.06-7,.19-1-.12-2,.84-2.82,1.63.7,3.29,1.2,5,.18,1.18-.71,6.1-.94,7.37-.29a2.84,2.84,0,0,0,.79.13c.11-.06.31-.15.3-.19a3.5,3.5,0,0,0-.26-.51c-2.72-3.15-2.78-4.88,0-5.42,6-1.14,11.84-3.11,18.16-2.5,2.74.26,5.6.69,7.14-2.16-.06,1.43.59,2.29,2.36,2.16,2.86-.21,4.05,1.42,4.12,3.43a30.35,30.35,0,0,0,2.38,10C783.18,535.81,781.82,538,781.79,540.17Z" transform="translate(-402.1 -435.45)"/><path class="cls-3" d="M748.08,528.74a2.84,2.84,0,0,1-.79-.13c-1.27-.65-6.19-.42-7.37.29-1.67,1-3.33.52-5-.18.47-4.05-.68-8.19.82-12.19,6.34.22,11.71-2.51,17.35-4.39,1.84-.61,2.32-2.06,2.41-3.76s-.83-3.8.78-5.47c4.68.44,9.25-.63,13.89-.73,3.18,1.05,7,.6,9.63,2.93,1.6,3.17,1,5.61-2.4,7.82-1.78,1.14-2.68,3.32-4,5-1.54,2.85-4.4,2.42-7.14,2.16-6.32-.61-12.17,1.36-18.16,2.5-2.81.54-2.75,2.27,0,5.42C748.11,528.27,748.1,528.51,748.08,528.74Z" transform="translate(-402.1 -435.45)"/><path class="cls-5" d="M756.32,502.91c-1.61,1.67-.7,3.64-.78,5.47s-.57,3.15-2.41,3.76c-5.64,1.88-11,4.61-17.35,4.39l.06-1.43c1.14-.9.35-1.22-.59-1.5-1.59-6.69-4-13.21-5-20a1.35,1.35,0,0,0,.4,0c2.35-.6,5.08,2.06,6.38.74a25.16,25.16,0,0,0,6-8.72c.29-.78.2-1.66,1.08-2.21,3.18.34,6.32.2,9.54,1.18,3.57,1.08,5.85,1.8,3.14,5.32-2.49.69-3.6,2.83-5.58,4s-1.87,2.2.11,3.2,4,2,6,3Z" transform="translate(-402.1 -435.45)"/><path class="cls-2" d="M671.07,470.65c.1.82-.1,1.79.34,2.44,5.45,8.16,2.84,16.3-.12,24.38-.85,2.31-.36,5.31-3.74,6.79-.34.15.8,2.95,1.29,4.51a10.42,10.42,0,0,0,.61,1.32c-.17,2.45,1.1,4.47,2.5,6.45s.53,4.31.69,6.47c-1.18-.1-1.34-.93-1.77-1.69-3.88-6.76-7.82-13.5-13.14-19.52-1.65-1.86-4.78-3-3.92-6.12a40,40,0,0,1,8.83-16.41c1.86-2.17,3-4,1.93-6.71a7.26,7.26,0,0,1-.07-6.21C668.13,466.09,668.35,469.84,671.07,470.65Z" transform="translate(-402.1 -435.45)"/><path class="cls-3" d="M676,536.62c.43,3.21,3,5.28,5.48,7.22,6.87,5.38,13.93,10.57,21,15.8a2.71,2.71,0,0,1,1.43,2l-8.12,5.85c-2.68-.91-3.94-4-7.45-3.66-2.65-2.88-6.64-3.73-10.34-4.41-6.82-1.26-11.79-4.91-16.89-8.55,0-1.6,1.06-2.84,1.94-4.14a18.82,18.82,0,0,0,3.41-2.34A36.91,36.91,0,0,1,676,536.62Z" transform="translate(-402.1 -435.45)"/><path class="cls-3" d="M725.89,533.79c-8.58,1.66-17.14,3.39-25.75,5a41.5,41.5,0,0,1-22.51-2.21c-.48-1.87,1.85-2.19,2.49-3.44a2.41,2.41,0,0,0,.79-.16c10.69-7.33,24.14-7.73,36.42-11.05,1.95-.53,3.77-.22,4.58,1.83C723.23,527.08,725.31,530.21,725.89,533.79Z" transform="translate(-402.1 -435.45)"/><path class="cls-3" d="M653.81,495.68c-.86,3.1,2.27,4.26,3.92,6.12,5.32,6,9.26,12.76,13.14,19.52.43.76.59,1.59,1.77,1.69.57.94,1.73,1.62,1.68,2.84-1-.26-.12,2.55-1.84,1-2-1.84-4.87-2.87-6.31-5.22-.53-3.44-3.3-5.15-6.55-6.49.22-3.62-1.64-5.8-5.76-6.45-3.73,0-6.87-2.21-10.62-2.19,1.21-4.33,1.11-9,4.12-12.88C650,493.05,651.11,496.28,653.81,495.68Z" transform="translate(-402.1 -435.45)"/><path class="cls-4" d="M666.17,521.6c1.44,2.35,4.31,3.38,6.31,5.22,1.72,1.58.81-1.23,1.84-1,.79,3.12,3.09,5.31,5.8,7.25-.64,1.25-3,1.57-2.49,3.44l-1.62.08a36.91,36.91,0,0,0-9.59,7.8,18.82,18.82,0,0,1-3.41,2.34c2.18-6.47-.81-12.72-1.09-19.09,0-1.09-1.28-1-2.24-1,2.28-2,.34-4.33.76-6.47C663,518.66,664.35,520.85,666.17,521.6Z" transform="translate(-402.1 -435.45)"/><path class="cls-5" d="M734.12,531.54c6,.27,10.26,3.31,14.06,7,1.56,1.5,3.08,2.45,4.84.23-1,4.22-2.7,8.49-.37,12.7,1.59,2.85,3.4,5.58,3.66,8.84h-1.64c-1.59-3.51-5.2-1.63-7.87-2.27a65,65,0,0,1-1.12-7.79c-.17-6.52-6.31-9.67-10.09-14.15C734.4,534.69,732.33,533.63,734.12,531.54Z" transform="translate(-402.1 -435.45)"/><path class="cls-3" d="M746.8,558c2.67.64,6.28-1.24,7.87,2.27v0c-1.06,0-1.61.52-1.65,1.44-1.5,1.57-3.54,1.49-5.58,1.4C747.24,561.42,747,559.73,746.8,558Z" transform="translate(-402.1 -435.45)"/><path class="cls-5" d="M688.3,563.86c3.51-.37,4.77,2.75,7.45,3.66-1.43,3.15-1.2,6.54-1.89,9.8-.21-.54-.71-1.13-.59-1.6C694.5,570.82,692.7,566.94,688.3,563.86Z" transform="translate(-402.1 -435.45)"/><path class="cls-3" d="M672,516.54c-1.4-2-2.67-4-2.5-6.45h1A13.35,13.35,0,0,1,672,516.54Z" transform="translate(-402.1 -435.45)"/><path class="cls-2" d="M721.89,554.45a5.83,5.83,0,0,1,0-.59,5.2,5.2,0,0,1,4.2,3.49l-.12.1C724.18,556.88,722.46,556.26,721.89,554.45Z" transform="translate(-402.1 -435.45)"/><path class="cls-2" d="M726.06,557.35c1,.1,1.56.58,1.58,1.49l0,0a1.65,1.65,0,0,1-1.68-1.41Z" transform="translate(-402.1 -435.45)"/><path class="cls-3" d="M735.25,513.6c.94.28,1.73.6.59,1.5A1.28,1.28,0,0,1,735.25,513.6Z" transform="translate(-402.1 -435.45)"/><path class="cls-2" d="M730.08,560.29l.53.49-.37.17-.14-.68Z" transform="translate(-402.1 -435.45)"/><path class="cls-2" d="M730.1,560.27l-.33-.13.31.15Z" transform="translate(-402.1 -435.45)"/><path class="cls-2" d="M727.64,558.84l.35.15-.37-.13Z" transform="translate(-402.1 -435.45)"/><path class="cls-5" d="M621,472.19c0,.38.05.76.07,1.14-2,1.92-2.49,4.55-4,6.68a6,6,0,0,0-5.85,2.48,15.35,15.35,0,0,1-6.19,5.06c-7.18,2.79-13,7.8-21,9.31a3.53,3.53,0,0,0-.08.88c3-.35,5.87-.71,8.78-1,6.82-.74,12.77-5.78,20.27-3.14-.2,2.4-3.11,2.62-4.36,4.17-4.2.35-6.45,2.36-7.36,6-.78,3.07-.62,6.15-.77,9.23-4.9-.54-9.66,1.1-14.56.67-3.93-2.85-9-2.5-13.52-3.49-6.71-1.47-14-1.64-20.05-4.52a55.08,55.08,0,0,0-19-4.84c1.05-3.35,2.46-6.35,6.5-7.94,2-.8,3.74-2.27,5.56-3.47,1.39-.92.6-1.29-.57-1.5,2.91-.84,5.85-1.64,7.36-4.3,10.21-.06,20.54.92,30.39-2.86-1.59-1.46-4.13-1.08-6.58-2a5.36,5.36,0,0,1,5.8-.06c3.64,2,6.54.7,10.2-.56,8.23-2.85,11.31-10.08,17.7-14.38,2.27-1.52,4.33-3.27,7.26-3.8C619.7,463.65,622.27,467.45,621,472.19Z" transform="translate(-402.1 -435.45)"/><path class="cls-5" d="M617.78,553a3,3,0,0,0-2.42,1.5c-10.37-3.17-20.33.91-30.49,1.32-1.91.08-3.82.11-5.73.12-7.81,0-10.3,2.18-10.46,9.19-.09,3.7,0,7.41,0,11.11,0,1.15.43,2.42-.81,3.36-.92-7-2.28-14.09,1.26-20.93.75-1.46-.78-2.73-.45-4.15l0,0c4.66-2.73,4.84-3.53,1.63-7.16,2.27-5.13,4.88-10.22,2.44-15.91,9.49,2.73,19.5,2.87,29.2,4.48,7.29,1.21,14.66.19,22,1.28,7.66,1.14,14.71-1.65,21.87-3.48,2.72-.7,5.22-2,8.15-2.1-2.06,3-5.94,2.43-9,3.52-3.82,1.39-8.42,1.22-11.56,3.91C628.09,543.63,623,548.37,617.78,553Z" transform="translate(-402.1 -435.45)"/><path class="cls-1" d="M617.78,553c5.2-4.67,10.31-9.41,15.63-14,3.14-2.69,7.74-2.52,11.56-3.91,3-1.09,6.9-.55,9-3.52h0c2.18-.7,4.44-1.32,5-3.71l.8-1.3c1,0,2.2,0,2.24,1,.28,6.37,3.27,12.62,1.09,19.09-.88,1.3-1.9,2.54-1.94,4.14a2,2,0,0,0-2.23,1.57c-.78,3-1.73,5.89-2.62,8.83a7.72,7.72,0,0,0-5.23,4c-5.18-.05-9.51,1.26-11.86,5.72-2.82-.53-1-2.24-.71-3.08,1.68-5.25,3.68-10.42,5.47-15.64.27-.8,1.38-1.83.07-2.55-.93-.51-2.06-.17-3.13.16-5.9,1.87-11.62,4.26-17.88,5.09C621,555.28,618,556.57,617.78,553Z" transform="translate(-402.1 -435.45)"/><path class="cls-4" d="M533.43,500.77a55.08,55.08,0,0,1,19,4.84c6,2.88,13.34,3.05,20.05,4.52,4.55,1,9.59.64,13.52,3.49-3.18,1.27-6.68,1-10,1.47-1.25.2-2.77-.29-3.27,1.3-2.05.07-3.45,1.24-4.94,2.25-2,1.19-4.29.62-6.46.78-4.5.8-3.62,4.9-5.73,7.16-4.13.23-5.42-3-7.24-5.08-1.68-2-3.18-2.89-5.85-2.07a1.7,1.7,0,0,0-1.07-1.4c-5.53-2.36-7-6.86-8-11.62C533.42,504.53,533.43,502.65,533.43,500.77Z" transform="translate(-402.1 -435.45)"/><path class="cls-3" d="M555.56,526.58c2.11-2.26,1.23-6.36,5.73-7.16.48,2.67,3.74,3.51,4.92,5.72q-.24,3.65,5.89,5.73l.65.59c2.44,5.69-.17,10.78-2.44,15.91-7.85-4.13-11-11.2-14.56-18C555.33,528.59,555.61,527.52,555.56,526.58Z" transform="translate(-402.1 -435.45)"/><path class="cls-4" d="M600.53,513c.15-3.08,0-6.16.77-9.23.91-3.61,3.16-5.62,7.36-6a35.83,35.83,0,0,0,4,2.79c3.61,1.86,5.1,4.8,6,8.15-1.52,1.15-3.51,1.14-5.3,1.64-1,.28-2.24.6-2.53,1.63s.88,1.6,1.67,2.24c5.82,4.64,11.6,9.32,17.85,13.53.73.49,1.92,1,.93,1.91-.76.72-1.4-.2-2-.59-7.22-4.64-14.46-9.26-21.66-13.93C605.47,513.75,603.35,512.52,600.53,513Z" transform="translate(-402.1 -435.45)"/><path class="cls-5" d="M653.81,495.68c-2.7.6-3.78-2.63-6.45-2.09,0-.24,0-.48,0-.72,0-.47,0-.94,0-1.41A53.09,53.09,0,0,1,659.25,476a5.63,5.63,0,0,0,2-5.19,3.81,3.81,0,0,1,2.45-4.47h.78a7.26,7.26,0,0,0,.07,6.21c1.1,2.71-.07,4.54-1.93,6.71A40,40,0,0,0,653.81,495.68Z" transform="translate(-402.1 -435.45)"/><path class="cls-5" d="M567.75,518.64c1.49-1,2.89-2.18,4.94-2.25,4.8,2,6.09,6.6,9.59,9.69C577.23,523.78,571.55,522.62,567.75,518.64Z" transform="translate(-402.1 -435.45)"/><path class="cls-4" d="M643.24,506.47c3.75,0,6.89,2.16,10.62,2.19-.41,2-2.23,1.48-3.56,1.38a159.43,159.43,0,0,1-19.66-2.44Z" transform="translate(-402.1 -435.45)"/><path class="cls-5" d="M666.17,521.6c-1.82-.75-3.17-2.94-5.73-1.45.27-1.75-.36-3.39-.82-5C662.87,516.45,665.64,518.16,666.17,521.6Z" transform="translate(-402.1 -435.45)"/><path class="cls-5" d="M572.1,530.87q-6.14-2.08-5.89-5.73C568.29,527,571.12,528.19,572.1,530.87Z" transform="translate(-402.1 -435.45)"/><path class="cls-5" d="M658.88,527.92c-.53,2.39-2.79,3-5,3.71C654.3,529.09,656.61,528.53,658.88,527.92Z" transform="translate(-402.1 -435.45)"/><path class="cls-3" d="M647.36,491.46c0,.47,0,.94,0,1.41-.59-.11-1.39-.11-1.19-.87C646.21,491.75,646.94,491.64,647.36,491.46Z" transform="translate(-402.1 -435.45)"/><path class="cls-5" d="M467,559.55c-1.18-.1-1.48-.78-1.66-1.69-1.61-7.83-7.87-12.69-14.63-17.1a56.9,56.9,0,0,1-7.68-6.28,4.15,4.15,0,0,1-1.38-3.6c2.59,1.42,3.81,3.94,6,5.74s4.31,3.25,7.23,3.7c8.91,1.36,17.57,3.88,26.84,3.57,4.42-.14,8.52-1.3,12.8-1.8.85-.1,1.58-.33,2.2.35-3.46,4.2-6.65,8.42-13.3,9.52C477.23,553,472.22,556.55,467,559.55Z" transform="translate(-402.1 -435.45)"/><path class="cls-4" d="M508.86,512.24a7.82,7.82,0,0,1,1.59-3.64c3.29-.7,6.89-.41,9.58-2.93,1-.94,3-1,4.16-2.07.66-.6,1.85-.55,1.64.45-.86,4.1,2.75,1.83,4.32,2.44-.23,1.44.61,3-.79,4.31-2.37.29-1.66,2.23-2.19,3.41s-.71,2.47-1.92,3.43c-2,1.6-4,3.15.65,4.19,1.65.37,1,2,.63,3.12a20.83,20.83,0,0,0-1.27,8.79c-2.37.1-3.58-1.43-4.82-2.77-.94-1-1.66-2.16-3.38-2.23,2.08-5.86-.22-10.9-4-15.56C512.16,512.07,510.38,512.19,508.86,512.24Z" transform="translate(-402.1 -435.45)"/><path class="cls-4" d="M487.74,514.07c-2.29,1.9-4.73,2.94-4.66,5.62,0,.93-1.46,1.43-2.52,1.52-1.43.12-1.08-1.09-1.33-1.8-.4-1.13-.68-2.29-1.12-3.4-.37-.94-2.37-1.53-1.39-2.62.85-.93,2.52-.4,3.86-.21C482.69,513.47,484.8,513.7,487.74,514.07Z" transform="translate(-402.1 -435.45)"/><path class="cls-5" d="M441.67,530.87c-4-2.51-5.49-9.54-2.5-12.14C438.36,523,440.59,526.86,441.67,530.87Z" transform="translate(-402.1 -435.45)"/><path class="cls-5" d="M488.35,499.45l7.07,4.68C491.47,504.5,489.42,502.57,488.35,499.45Z" transform="translate(-402.1 -435.45)"/><path class="cls-4" d="M507.79,562c2.77-5,5.9-9.65,12.8-10.79.9-.15,2.09-.66,2.48.35s-.85,2.08-1.76,1.93c-3.95-.63-5.44,2.08-7.48,4C512,559.18,510.42,561.09,507.79,562Z" transform="translate(-402.1 -435.45)"/><path class="cls-4" d="M757.31,500.09c-2-1-4-2-6-3s-2-2.05-.11-3.2,3.09-3.34,5.58-4c11.95,3.33,21,10.48,30.42,17.27-2.75-.14-4.64-2.17-7.4-2.06-2.67-2.33-6.45-1.88-9.63-2.93C766.24,499.94,761.82,499.8,757.31,500.09Z" transform="translate(-402.1 -435.45)"/><path class="cls-1" d="M529.36,510.8c1.4-1.28.56-2.87.79-4.31l3.26-.08c1,4.76,2.46,9.26,8,11.62a1.7,1.7,0,0,1,1.07,1.4,47.18,47.18,0,0,0-8.59,1.89c-4.52,1.34-4.54,1.31-4.55-2.72C529.33,516,529.35,513.4,529.36,510.8Z" transform="translate(-402.1 -435.45)"/><path class="cls-3" d="M549.36,547.38c3,3.26,3.16,7,7.34,8.86C551.28,556.09,551.15,555.93,549.36,547.38Z" transform="translate(-402.1 -435.45)"/><path class="cls-5" d="M568.65,554.56c-.54,0-1.1-.11-1.2-.69,0-.12.31-.41.44-.39.67.08.7.59.79,1Z" transform="translate(-402.1 -435.45)"/><path class="cls-5" d="M436.77,550.92c-1.2-6.35-6-11.32-8.71-17.08A11.33,11.33,0,0,1,426.9,528c3.41,6.43,6.84,12.85,10.19,19.3C437.7,548.46,438.08,549.79,436.77,550.92Z" transform="translate(-402.1 -435.45)"/><path class="cls-5" d="M653.89,584a136.51,136.51,0,0,0-19.81,1.33c-2.63.32-4.39-.21-5.52-2.5-.66-1.34-.62-3.16-2.59-3.86.08-.8,0-1.69,1-2.14,4-1.71,7.69-4.12,12.14-5.07,3.28,2.47,6.66,4.8,10.94,5.8,2.77.65,5.4,1.5,7.2,3.62C657.53,583.35,655.32,583.29,653.89,584Z" transform="translate(-402.1 -435.45)"/><path class="cls-3" d="M657.24,581.13c-1.8-2.12-4.43-3-7.2-3.62-4.28-1-7.66-3.33-10.94-5.8l0-.67c2.35-4.46,6.68-5.77,11.86-5.72h1.26c.63,3,2.79,4.74,6,5.66,1.54.45,3.11.84,3.93,2.24C662.32,576.73,662.17,580.06,657.24,581.13Z" transform="translate(-402.1 -435.45)"/><path class="cls-3" d="M756.31,560.29c-.26-3.26-2.07-6-3.66-8.84-2.33-4.21-.61-8.48.37-12.7v0c3.2-1.47,4,.1,4.09,2.5a16.21,16.21,0,0,0,1.6,7.47c0,.52,0,1,0,1.56-.09.06-.26.14-.25.16a2.76,2.76,0,0,0,.25.44c-1.19,5.58,2.46,10.13,4.22,15.08-.48.56-1.23.8-1.7.25C759.55,564.27,757.14,562.77,756.31,560.29Z" transform="translate(-402.1 -435.45)"/><path class="cls-5" d="M758.7,548.74a16.21,16.21,0,0,1-1.6-7.47c-.05-2.4-.89-4-4.09-2.5.54-1.64,2.1-3.15.84-5h0c3.73,1.31,4.26,4.31,4.85,7.2a21.89,21.89,0,0,1,.09,4.29C758.75,546.4,758.73,547.57,758.7,548.74Z" transform="translate(-402.1 -435.45)"/><path class="cls-2" d="M766.73,553.79c3.8.56,6.55-1.16,9.7-.31C770.84,557.38,770.8,557.38,766.73,553.79Z" transform="translate(-402.1 -435.45)"/><path class="cls-5" d="M758.69,550.9a2.76,2.76,0,0,1-.25-.44s.16-.1.25-.16A3,3,0,0,1,758.69,550.9Z" transform="translate(-402.1 -435.45)"/><path class="cls-2" d="M613,493.58c-7.5-2.64-13.45,2.4-20.27,3.14-2.91.31-5.81.67-8.78,1a3.53,3.53,0,0,1,.08-.88c7.91-1.51,13.78-6.52,21-9.31a15.35,15.35,0,0,0,6.19-5.06,6,6,0,0,1,5.85-2.48l-.87,1.41c-.66.35-1.79.54-.73,1.53C613.45,486.28,615.92,490.4,613,493.58Z" transform="translate(-402.1 -435.45)"/><path class="cls-5" d="M615.45,483c-1.06-1,.07-1.18.73-1.53A1.55,1.55,0,0,1,615.45,483Z" transform="translate(-402.1 -435.45)"/><path class="cls-3" d="M533.41,506.41l-3.26.08c-1.57-.61-5.18,1.66-4.32-2.44.21-1-1-1.05-1.64-.45-1.19,1.09-3.15,1.13-4.16,2.07-2.69,2.52-6.29,2.23-9.58,2.93,1.12-3.5,2-7.06,3.42-10.48,1.22-3,2.86-5.95,7.39-6a1.45,1.45,0,0,0,1.52-1.38c4.1-1.54,8.53-.53,12.79-1.26,3.1-.53,6-2.41,9.35-1.61,1.17.21,2,.58.57,1.5-1.82,1.2-3.52,2.67-5.56,3.47-4,1.59-5.45,4.59-6.5,7.94C533.43,502.65,533.42,504.53,533.41,506.41Z" transform="translate(-402.1 -435.45)"/><path class="cls-5" d="M753,561.72c0-.92.59-1.41,1.65-1.44C754.65,561.22,754.05,561.66,753,561.72Z" transform="translate(-402.1 -435.45)"/><path class="cls-5" d="M526.85,577.46l-1.53.11-.81,0c-1.93-.06-4.92,2.09-5.44-.84-.41-2.27,2.13-3.88,5-4.22.4-.05.82,0,1.23,0C526.19,574,527.23,575.57,526.85,577.46Z" transform="translate(-402.1 -435.45)"/><path class="cls-2" d="M866.09,564.59c1.63.11,1.65,1.11,1.57,2.17C866.11,566.61,866.08,565.61,866.09,564.59Z" transform="translate(-402.1 -435.45)"/><path class="cls-4" d="M415.46,576.67a11,11,0,0,1-8.21.1Z" transform="translate(-402.1 -435.45)"/><path class="cls-3" d="M834.14,569.57c0-.45,0-.91,0-1.37,2.78.51,4.07,2.54,5.69,4.24a1.5,1.5,0,0,1-.85,1.45C836.68,573.07,834.35,572.24,834.14,569.57Z" transform="translate(-402.1 -435.45)"/><path class="cls-5" d="M753.85,533.75c-1-.1-1.86-.27-2.11-1.24-.1-.41.22-.68.68-.59,1.11.21,1.33,1,1.42,1.83Z" transform="translate(-402.1 -435.45)"/><path class="cls-5" d="M748.08,528.74c0-.23,0-.47,0-.7a3.5,3.5,0,0,1,.26.51S748.19,528.68,748.08,528.74Z" transform="translate(-402.1 -435.45)"/><path class="cls-1" d="M757.31,500.09c4.51-.29,8.93-.15,12.9,2.09-4.64.1-9.21,1.17-13.89.73Z" transform="translate(-402.1 -435.45)"/></svg>