<svg id="Layer_1" data-name="Layer 1" xmlns="http://www.w3.org/2000/svg" viewBox="0 0 134.39 94.45"><defs><style>.cls-1{fill:#e0dfcd;}.cls-2{fill:#1a1a1a;}.cls-3{fill:#207a90;}.cls-10,.cls-4{fill:#87cdbc;}.cls-5{fill:#faf9e8;}.cls-6{fill:#003e4f;}.cls-7{fill:#1b529d;}.cls-8{fill:none;stroke:#000;stroke-miterlimit:10;}.cls-9{fill:#27788d;}.cls-10{opacity:0.53;}</style></defs><title>shoes</title><path class="cls-1" d="M333.38,237.76c1.23-2.15,2-4.88,4.21-6,2.75-1.34,5.89.65,8.29,2.53,2.07,1.62,4.34,3.65,4.25,6.27-.06,1.69-1.1,3.15-1.88,4.65-2.31,4.47-2.56,10.1-6.1,13.68-2.93,3-7.46,3.76-11.63,3.48-4.88-.33-9.87-2-13.16-5.66-2.72-3-6-11.81,0-13.26,3-.72,5.93.73,9-.18A12.17,12.17,0,0,0,333.38,237.76Z" transform="translate(-240.11 -230.96)"/><path class="cls-2" d="M241.59,289.74s3.1,21.83,29.54,21.58c8.57-.08,22.67-1.71,30.67-4.67l28.41-10.51s24.91-9.35,26.13-10.52L355.2,267S273.35,307.26,241.59,289.74Z" transform="translate(-240.11 -230.96)"/><path class="cls-3" d="M253.84,274.42a23.7,23.7,0,0,0-10.2,7.83c-1.77,2.42-3,5.18-2,7.55,2.3,5.7,9.2,10.25,9.2,10.25s17.25,13.66,67.84-6.83L337,275s-9.19-2.28-16.09-17.07c0,0-5.75-8-9.2-6.83L280.11,273.3l-6.9-6.83Z" transform="translate(-240.11 -230.96)"/><path class="cls-4" d="M355.2,267l1.14,10.23s-3.41,7.95-18.18,7.95Z" transform="translate(-240.11 -230.96)"/><path class="cls-4" d="M328.67,255.81s15.23,3,20.85,1l-10.61,14.74S331.78,272.92,328.67,255.81Z" transform="translate(-240.11 -230.96)"/><path class="cls-5" d="M310.89,251.48l7.1-4.92s8.29,3.69,10.66,11.07,5.91,12.3,10.65,13.53l-4.63,4.94s-6.05-2.46-13.14-14.77S310.89,251.48,310.89,251.48Z" transform="translate(-240.11 -230.96)"/><path class="cls-6" d="M271.84,265.29l30.46-29.24a2.92,2.92,0,0,1,2.35-.81c2.12.24,6.29,1.92,12.31,9.76a3,3,0,0,1-.69,4.3l-35.09,23.54a3,3,0,0,1-3,.17l-5.62-2.94A3,3,0,0,1,271.84,265.29Z" transform="translate(-240.11 -230.96)"/><path class="cls-5" d="M343.84,256.79h4.55c4.54,0,5.68-8,5.68-8l-3.41-9.09Z" transform="translate(-240.11 -230.96)"/><path class="cls-4" d="M250.22,286.51c3.14,1.47,8.66,2.2,18.18,1.05,0,0,21.61-.6,23.33-7.57,0,0-.46-5.71-10.79-3.21a19.11,19.11,0,0,1-8.64.22c-3.59-.79-7.74-2.49-8.66-6.15l-13.14,5.58A5.54,5.54,0,0,0,250.22,286.51Z" transform="translate(-240.11 -230.96)"/><path class="cls-7" d="M315.44,294.28s38.63-38.63,38.63-45.44L355.2,267l-17,18.18Z" transform="translate(-240.11 -230.96)"/><path class="cls-5" d="M248.07,297.6a.45.45,0,0,0-.53.7c3.2,3.45,12.24,10.8,31.06,10.61a64.65,64.65,0,0,0,23.31-4.72l26-10.43h0c.58-.17,25.4-7.68,28.17-9.26a.44.44,0,0,0,.22-.39v-7.29a.45.45,0,0,0-.64-.41C348.25,279.84,277.4,311.82,248.07,297.6Z" transform="translate(-240.11 -230.96)"/><path class="cls-5" d="M271.13,265.88l7.93,7.43a.94.94,0,0,0,1.18.07l5.66-4.09-2.11-10.59,4.38,9.45,11.36-7.95-5-9.39,7.28,8.25L312,252.24l-10.36-15.9-3.57,3.94,4.77,11.84-7.88-9L288.17,250l6.35,11.36-8.62-9.09-6.82,5.69,1.14,10-4.55-6.58Z" transform="translate(-240.11 -230.96)"/><path class="cls-8" d="M246,297c8.35,7.92,20.59,10.77,32.14,10.13s22.66-4.37,33.61-8.08l39-13.19c1.68-.57,3.54-1.29,4.24-2.91a6.07,6.07,0,0,0,.31-2.75l-.44-12.39c-.34-9.41-.76-19.13-4.83-27.64a39.92,39.92,0,0,1-3.06,9.73,13.64,13.64,0,0,1-7.29,6.89c-3.86,1.34-8.24.24-11.69-1.93s-6.15-5.32-8.79-8.41a10.76,10.76,0,0,1-1.86-3.28,13.61,13.61,0,0,0,14.21-5.78c.95-1.5,1.62-3.24,3-4.43,2.36-2.11,6.17-1.83,8.89-.21s4.61,4.29,6.41,6.87" transform="translate(-240.11 -230.96)"/><path class="cls-8" d="M263.94,270.54a50.38,50.38,0,0,0-19,9.82c-1.74,1.44-3.45,3.11-4.08,5.27-1,3.31.9,6.89,3.52,9.14,4.5,3.84,10.77,4.74,16.68,5,16.2.7,32.4-2.2,47.94-6.81s30.53-10.93,45.47-17.23" transform="translate(-240.11 -230.96)"/><path class="cls-8" d="M268.09,269.28c2.06.86,3.91,2.16,5.93,3.12a9.51,9.51,0,0,0,6.48,1,12.36,12.36,0,0,0,4.07-2.36c10.17-7.81,20.37-15.82,32-21.19A2.2,2.2,0,0,0,317.7,247a19.57,19.57,0,0,0-13.4-11.22,3.08,3.08,0,0,0-2.8.81Z" transform="translate(-240.11 -230.96)"/><path class="cls-8" d="M263.55,270.3c1.58,2.78,4.78,4.31,7.94,4.79s6.39.09,9.58,0,6.53.07,9.36,1.57a3.93,3.93,0,0,1,2.25,2.59,3.13,3.13,0,0,1-1.09,2.66,8.56,8.56,0,0,1-2.58,1.47c-10.44,4.42-22.12,6.76-33.2,4.31a14.72,14.72,0,0,1-6-2.47,6.59,6.59,0,0,1-2.74-5.6" transform="translate(-240.11 -230.96)"/><path class="cls-1" d="M349.9,251.85c1.24-2.16,2-4.88,4.21-6,2.75-1.34,5.89.64,8.3,2.53,2.06,1.62,4.33,3.65,4.24,6.27,0,1.69-1.1,3.15-1.87,4.64-2.32,4.48-2.57,10.11-6.11,13.69-2.93,3-7.46,3.75-11.62,3.48-4.89-.33-9.87-2-13.17-5.66-2.71-3-6-11.82,0-13.26,3-.72,5.93.72,9-.18A12.15,12.15,0,0,0,349.9,251.85Z" transform="translate(-240.11 -230.96)"/><path class="cls-2" d="M258.11,303.83s3.11,21.83,29.54,21.58c8.58-.08,22.68-1.71,30.68-4.67l28.4-10.52s24.91-9.34,26.13-10.51l-1.13-18.61S289.88,321.35,258.11,303.83Z" transform="translate(-240.11 -230.96)"/><path class="cls-9" d="M270.36,288.51a23.7,23.7,0,0,0-10.19,7.82c-1.77,2.42-3,5.19-2.05,7.56,2.3,5.69,9.19,10.25,9.19,10.25s17.25,13.65,67.84-6.83l18.4-18.21s-9.2-2.28-16.1-17.08c0,0-5.75-8-9.2-6.82l-31.62,22.19-6.89-6.83Z" transform="translate(-240.11 -230.96)"/><path class="cls-4" d="M371.73,281.1l1.13,10.23s-3.4,7.95-18.17,7.95Z" transform="translate(-240.11 -230.96)"/><path class="cls-4" d="M345.2,269.9s15.23,3,20.85,1l-10.62,14.74S348.31,287,345.2,269.9Z" transform="translate(-240.11 -230.96)"/><path class="cls-5" d="M327.42,265.57l7.1-4.92s8.28,3.69,10.65,11.07,5.92,12.3,10.65,13.53l-4.62,4.94s-6.06-2.46-13.14-14.77S327.42,265.57,327.42,265.57Z" transform="translate(-240.11 -230.96)"/><path class="cls-6" d="M285.38,282.24l34.18-32.8s5.07-2.23,14.48,10.37a2.17,2.17,0,0,1-.53,3.1l-37.28,25Z" transform="translate(-240.11 -230.96)"/><path class="cls-5" d="M360.37,270.88h4.54c4.55,0,5.68-8,5.68-8l-3.41-9.09Z" transform="translate(-240.11 -230.96)"/><path class="cls-4" d="M266.75,300.6c3.13,1.47,8.65,2.2,18.18,1,0,0,21.61-.6,23.33-7.57,0,0-.46-5.71-10.8-3.21a19.25,19.25,0,0,1-8.64.22c-3.58-.79-7.74-2.49-8.65-6.15L267,290.52A5.53,5.53,0,0,0,266.75,300.6Z" transform="translate(-240.11 -230.96)"/><path class="cls-6" d="M332,308.37s38.63-38.63,38.63-45.45l1.14,18.18-17,18.18Z" transform="translate(-240.11 -230.96)"/><path class="cls-5" d="M264.6,311.69a.45.45,0,0,0-.53.7c3.2,3.45,12.23,10.8,31.06,10.6a64.47,64.47,0,0,0,23.31-4.71l26-10.43h0c.58-.17,25.4-7.68,28.18-9.26a.44.44,0,0,0,.21-.39V290.9a.44.44,0,0,0-.63-.41C364.78,293.93,293.92,325.9,264.6,311.69Z" transform="translate(-240.11 -230.96)"/><path class="cls-5" d="M287.65,280l7.94,7.43a.93.93,0,0,0,1.18.07l5.65-4.1-2.1-10.58,4.37,9.45,11.37-7.95-5-9.39,7.28,8.25,10.22-6.82-10.35-15.9-3.58,3.94,4.77,11.84-7.88-9-6.82,6.82,6.36,11.36-8.63-9.09L295.61,272l1.13,10-4.54-6.58Z" transform="translate(-240.11 -230.96)"/><path class="cls-8" d="M264.68,311.76c8.34,7.93,20.59,10.77,32.14,10.14s22.66-4.38,33.6-8.08l39-13.19c1.68-.57,3.54-1.3,4.24-2.91A6.25,6.25,0,0,0,374,295l-.45-12.38c-.34-9.41-.75-19.13-4.83-27.65a39.68,39.68,0,0,1-3.05,9.74,13.67,13.67,0,0,1-7.29,6.89c-3.86,1.34-8.25.24-11.69-1.94s-6.15-5.31-8.79-8.4a10.41,10.41,0,0,1-1.86-3.29,13.63,13.63,0,0,0,14.21-5.77c.95-1.51,1.62-3.24,3-4.44,2.36-2.1,6.17-1.82,8.89-.2s4.6,4.28,6.41,6.87" transform="translate(-240.11 -230.96)"/><path class="cls-8" d="M281.3,284.78a50.34,50.34,0,0,0-19,9.82c-1.74,1.44-3.45,3.11-4.08,5.27-1,3.31.9,6.89,3.53,9.14,4.49,3.84,10.76,4.74,16.67,5,16.2.7,32.4-2.2,47.95-6.81s30.52-10.93,45.47-17.23" transform="translate(-240.11 -230.96)"/><path class="cls-8" d="M284.36,283.07c2.06.86,3.92,2.16,5.93,3.12a9.54,9.54,0,0,0,6.49,1,12.26,12.26,0,0,0,4.07-2.35c10.16-7.81,20.37-15.82,32-21.19A2.18,2.18,0,0,0,334,260.8a19.5,19.5,0,0,0-13.73-11.29,2.48,2.48,0,0,0-2.22.64Z" transform="translate(-240.11 -230.96)"/><path class="cls-8" d="M280.47,284.82a14.61,14.61,0,0,0,13.65,6.94c3.76-.36,7.7-2.17,11.12-.57a3.72,3.72,0,0,1,2.32,3c.06,2-2.06,3.3-3.9,4.1-5.77,2.53-11.77,4.73-18,5.47s-12.84-.06-18.3-3.21a9.45,9.45,0,0,1-3.3-2.81,4.42,4.42,0,0,1-.55-4.15" transform="translate(-240.11 -230.96)"/><path class="cls-8" d="M330.13,265.55c3.24,1.46,4.73,5.13,6.35,8.3A40.77,40.77,0,0,0,350,289" transform="translate(-240.11 -230.96)"/><path class="cls-10" d="M311.54,287.85c-3.65,0-3.66,5.69,0,5.69S315.2,287.85,311.54,287.85Z" transform="translate(-240.11 -230.96)"/><path class="cls-10" d="M318.34,284.08c-3.65,0-3.66,5.68,0,5.68S322,284.08,318.34,284.08Z" transform="translate(-240.11 -230.96)"/><path class="cls-10" d="M325.4,280.3c-3.66,0-3.66,5.68,0,5.68S329.06,280.3,325.4,280.3Z" transform="translate(-240.11 -230.96)"/><path class="cls-10" d="M332.45,276.27c-3.66,0-3.66,5.68,0,5.68S336.11,276.27,332.45,276.27Z" transform="translate(-240.11 -230.96)"/><path class="cls-10" d="M336,284.08c-3.66,0-3.67,5.68,0,5.68S339.64,284.08,336,284.08Z" transform="translate(-240.11 -230.96)"/><path class="cls-10" d="M329.17,287.1c-3.65,0-3.66,5.68,0,5.68S332.84,287.1,329.17,287.1Z" transform="translate(-240.11 -230.96)"/><path class="cls-10" d="M321.37,290.63c-3.66,0-3.66,5.68,0,5.68S325,290.63,321.37,290.63Z" transform="translate(-240.11 -230.96)"/><path class="cls-10" d="M314.31,294.91c-3.65,0-3.66,5.68,0,5.68S318,294.91,314.31,294.91Z" transform="translate(-240.11 -230.96)"/><path class="cls-10" d="M316.83,302.21c-3.65,0-3.66,5.68,0,5.68S320.49,302.21,316.83,302.21Z" transform="translate(-240.11 -230.96)"/><path class="cls-10" d="M324.14,298.69c-3.66,0-3.66,5.68,0,5.68S327.8,298.69,324.14,298.69Z" transform="translate(-240.11 -230.96)"/><path class="cls-10" d="M330.69,295.41c-3.66,0-3.67,5.68,0,5.68S334.35,295.41,330.69,295.41Z" transform="translate(-240.11 -230.96)"/><path class="cls-10" d="M338.49,292.14c-3.65,0-3.66,5.68,0,5.68S342.16,292.14,338.49,292.14Z" transform="translate(-240.11 -230.96)"/></svg>