<svg id="Layer_1" data-name="Layer 1" xmlns="http://www.w3.org/2000/svg" viewBox="0 0 76.94 160.49"><defs><style>.cls-1{fill:#27788d;}.cls-2{fill:#d76436;}.cls-3{fill:#e5a866;}.cls-4{fill:#f0d0af;}.cls-16,.cls-5,.cls-8{fill:none;}.cls-5{stroke:#000;}.cls-14,.cls-15,.cls-16,.cls-5,.cls-8{stroke-miterlimit:10;}.cls-6{fill:#679ba7;}.cls-7{fill:#0b5a72;}.cls-14,.cls-15,.cls-16,.cls-8{stroke:#020202;}.cls-9{fill:#e97840;}.cls-10,.cls-12,.cls-14{fill:#f6f7f8;}.cls-11,.cls-15{fill:#e8e7e7;}.cls-12,.cls-16{font-size:15px;font-family:Impact;}.cls-13{fill:#007fa2;}.cls-16{stroke-width:0.75px;}.cls-17{opacity:0.7;}</style></defs><title>sunscreen</title><path class="cls-1" d="M14.32,155h51a0,0,0,0,1,0,0v1.74a3.76,3.76,0,0,1-3.76,3.76H17.33a3,3,0,0,1-3-3V155A0,0,0,0,1,14.32,155Z"/><path class="cls-1" d="M14.67,139H60.18a5.07,5.07,0,0,1,5.07,5.07V153a0,0,0,0,1,0,0h-52a0,0,0,0,1,0,0V140.41A1.41,1.41,0,0,1,14.67,139Z"/><path class="cls-2" d="M273,197.31l10.6,112c.58,6.14-1.63,5.82,4.37,8.82l39.5-1.39c7.11,0,7.5-2.42,8-8.9l9.42-111.12c.15-1.92-2.78-4.09-4.69-4.09l-62.55-.5A4.69,4.69,0,0,0,273,197.31Z" transform="translate(-270.7 -180.15)"/><path class="cls-3" d="M1.46,7.93h74a0,0,0,0,1,0,0V9.58A1.42,1.42,0,0,1,74,11H2.69A1.23,1.23,0,0,1,1.46,9.77V7.93A0,0,0,0,1,1.46,7.93Z"/><path class="cls-4" d="M272.17,188.15l-.75-5.91a1.86,1.86,0,0,1,1.84-2.09h72a2.35,2.35,0,0,1,2.33,2.65l-.5,4a1.58,1.58,0,0,1-1.57,1.38Z" transform="translate(-270.7 -180.15)"/><path class="cls-5" d="M271.76,186.76l-.54-3.75a1.63,1.63,0,0,1,1.61-1.86h72.25a1.63,1.63,0,0,1,1.61,1.86l-.54,3.75a1.62,1.62,0,0,1-1.6,1.39H273.36A1.61,1.61,0,0,1,271.76,186.76Z" transform="translate(-270.7 -180.15)"/><path class="cls-6" d="M295.63,338.84l.32-18.69H285.17a.21.21,0,0,0-.22.2v17.8s2.05,1.86,9.76,1.55A.92.92,0,0,0,295.63,338.84Z" transform="translate(-270.7 -180.15)"/><path class="cls-7" d="M320,339.15v-19h12.43a2.57,2.57,0,0,1,2.57,2.57v15.09a1.45,1.45,0,0,1-1.55,1.34Z" transform="translate(-270.7 -180.15)"/><path class="cls-8" d="M13.75,154h51a0,0,0,0,1,0,0v1.74A3.76,3.76,0,0,1,61,159.5H16.77a3,3,0,0,1-3-3V154A0,0,0,0,1,13.75,154Z"/><path class="cls-4" d="M296,317.15s-14.07,3.83-12.53-9.08L273,198.15s0-6,6-5C279,193.15,277,226.15,296,317.15Z" transform="translate(-270.7 -180.15)"/><path class="cls-9" d="M296,317.15s-21-101-17-124l49.78-.11S315,291.15,320,317.15Z" transform="translate(-270.7 -180.15)"/><circle class="cls-10" cx="38.75" cy="71.5" r="16.5"/><path class="cls-11" d="M321.93,240.86l-2.25,23.74a15.46,15.46,0,0,0,6.23-14.09S325.9,244.56,321.93,240.86Z" transform="translate(-270.7 -180.15)"/><path class="cls-10" d="M315.76,226.69l1.41,4.27,1.4,4.26-1-.43a16.38,16.38,0,0,0-7.65-1.41h-.18l3-3.35Z" transform="translate(-270.7 -180.15)"/><path class="cls-10" d="M330.17,234.87l-1.28,4.3-1.28,4.3-1.78-2.22a17.54,17.54,0,0,0-1.91-2L321.44,237l4.36-1Z" transform="translate(-270.7 -180.15)"/><path class="cls-11" d="M336.26,252l-4,2.06-4,2.06h0a12.8,12.8,0,0,0,.64-8.1l-.22-.87,3.78,2.42Z" transform="translate(-270.7 -180.15)"/><path class="cls-11" d="M326.73,260.23l1.33,4.29,1.32,4.29-4.37-1-4.38-1,.65-.4a14,14,0,0,0,5.45-6.18Z" transform="translate(-270.7 -180.15)"/><path class="cls-10" d="M306.3,269.56l.39.13a14,14,0,0,0,8.58.17h0l-2.38,3.81-2.37,3.81-2.11-4Z" transform="translate(-270.7 -180.15)"/><path class="cls-10" d="M295,262.7h0a21.81,21.81,0,0,0,7,5.47l.11.06L298,269.91l-4.16,1.68.62-4.45Z" transform="translate(-270.7 -180.15)"/><path class="cls-10" d="M292.06,250.05h0a13.14,13.14,0,0,0,.4,8.08l.32.86-4-1.92-4.06-1.93,3.7-2.55Z" transform="translate(-270.7 -180.15)"/><path class="cls-10" d="M296.77,238.9h0a25.74,25.74,0,0,0-4.42,7.24l-.18.47L290,242.69l-2.18-3.92,4.48.07Z" transform="translate(-270.7 -180.15)"/><path class="cls-10" d="M306.74,233.57l-.91.12a15.71,15.71,0,0,0-7.49,3.06h0l.72-4.43.73-4.43,3.47,2.84Z" transform="translate(-270.7 -180.15)"/><path class="cls-5" d="M272.52,198.5l11,114.33a5.33,5.33,0,0,0,5.31,4.82H331a5.33,5.33,0,0,0,5.32-4.91l9.14-114.33a5.33,5.33,0,0,0-5.31-5.76H277.83A5.33,5.33,0,0,0,272.52,198.5Z" transform="translate(-270.7 -180.15)"/><text class="cls-12" transform="translate(28.77 115.86)">SPF</text><path class="cls-5" d="M15.13,139.5H63.51a1.25,1.25,0,0,1,1.25,1.25V153a0,0,0,0,1,0,0h-51a0,0,0,0,1,0,0V140.88A1.38,1.38,0,0,1,15.13,139.5Z"/><rect class="cls-13" x="33.25" y="151" width="11" height="2"/><rect class="cls-1" x="14.25" y="152" width="50" height="3"/><path class="cls-14" d="M314.76,226.69l1.41,4.27,1.4,4.26-1-.43a16.38,16.38,0,0,0-7.65-1.41h-.18l3-3.35Z" transform="translate(-270.7 -180.15)"/><path class="cls-14" d="M329.17,234.87l-1.28,4.3-1.28,4.3-1.78-2.22a17.54,17.54,0,0,0-1.91-2L320.44,237l4.36-1Z" transform="translate(-270.7 -180.15)"/><path class="cls-15" d="M335.26,252l-4,2.06-4,2.06h0a12.8,12.8,0,0,0,.64-8.1l-.22-.87,3.78,2.42Z" transform="translate(-270.7 -180.15)"/><path class="cls-15" d="M325.73,260.23l1.33,4.29,1.32,4.29-4.37-1-4.38-1,.65-.4a14,14,0,0,0,5.45-6.18Z" transform="translate(-270.7 -180.15)"/><path class="cls-14" d="M305.3,269.56l.39.13a14,14,0,0,0,8.58.17h0l-2.38,3.81-2.37,3.81-2.11-4Z" transform="translate(-270.7 -180.15)"/><path class="cls-14" d="M294,262.7h0a21.81,21.81,0,0,0,7,5.47l.11.06L297,269.91l-4.16,1.68.62-4.45Z" transform="translate(-270.7 -180.15)"/><path class="cls-14" d="M291.06,250.05h0a13.14,13.14,0,0,0,.4,8.08l.32.86-4-1.92-4.06-1.93,3.7-2.55Z" transform="translate(-270.7 -180.15)"/><path class="cls-14" d="M295.77,238.9h0a25.74,25.74,0,0,0-4.42,7.24l-.18.47L289,242.69l-2.18-3.92,4.48.07Z" transform="translate(-270.7 -180.15)"/><path class="cls-14" d="M305.74,233.57l-.91.12a15.71,15.71,0,0,0-7.49,3.06h0l.72-4.43.73-4.43,3.47,2.84Z" transform="translate(-270.7 -180.15)"/><text class="cls-16" transform="translate(27.84 115.86)">SPF</text><circle class="cls-5" cx="38.18" cy="72.08" r="15.92"/><g class="cls-17"><path class="cls-4" d="M310.7,197.86c-3.22,0-3.22,5,0,5S313.92,197.86,310.7,197.86Z" transform="translate(-270.7 -180.15)"/><path class="cls-4" d="M318.46,197.86c-3.22,0-3.22,5,0,5S321.68,197.86,318.46,197.86Z" transform="translate(-270.7 -180.15)"/><path class="cls-4" d="M326.22,197.86c-3.22,0-3.22,5,0,5S329.44,197.86,326.22,197.86Z" transform="translate(-270.7 -180.15)"/><path class="cls-4" d="M334.42,197.86c-3.21,0-3.22,5,0,5S337.65,197.86,334.42,197.86Z" transform="translate(-270.7 -180.15)"/><path class="cls-4" d="M310.7,205.4c-3.22,0-3.22,5,0,5S313.92,205.4,310.7,205.4Z" transform="translate(-270.7 -180.15)"/><path class="cls-4" d="M318.24,205.62c-3.22,0-3.22,5,0,5S321.46,205.62,318.24,205.62Z" transform="translate(-270.7 -180.15)"/><path class="cls-4" d="M326.22,205.62c-3.22,0-3.22,5,0,5S329.44,205.62,326.22,205.62Z" transform="translate(-270.7 -180.15)"/><path class="cls-4" d="M333.76,205.84c-3.22,0-3.22,5,0,5S337,205.84,333.76,205.84Z" transform="translate(-270.7 -180.15)"/><path class="cls-4" d="M333.76,213.6c-3.22,0-3.22,5,0,5S337,213.6,333.76,213.6Z" transform="translate(-270.7 -180.15)"/><path class="cls-4" d="M326.44,213.6c-3.21,0-3.22,5,0,5S329.67,213.6,326.44,213.6Z" transform="translate(-270.7 -180.15)"/><path class="cls-4" d="M318.46,213.38c-3.22,0-3.22,5,0,5S321.68,213.38,318.46,213.38Z" transform="translate(-270.7 -180.15)"/><path class="cls-4" d="M311.15,213.38c-3.22,0-3.23,5,0,5S314.37,213.38,311.15,213.38Z" transform="translate(-270.7 -180.15)"/></g></svg>