<svg id="Layer_1" data-name="Layer 1" xmlns="http://www.w3.org/2000/svg" viewBox="0 0 60.53 204.47"><defs><style>.cls-1{fill:#1a1a1a;}.cls-2{fill:#64338f;}.cls-3{fill:#d15789;}.cls-4{fill:#b4416e;}.cls-5{fill:#2d3030;}.cls-6,.cls-7,.cls-8{fill:none;stroke-miterlimit:10;}.cls-6{stroke:#060606;}.cls-7{stroke:#020202;}.cls-8{stroke:#000;}.cls-9{opacity:0.3;}.cls-10{fill:#ebbfd0;}</style></defs><title>waterbottle</title><rect class="cls-1" x="23.91" y="3.3" width="11.35" height="11.35"/><path class="cls-1" d="M283.53,169h55.6S316.69,154.78,283.53,169Z" transform="translate(-282.25 -150.03)"/><path class="cls-2" d="M282.72,185.63s.18-3.86.9-4.5,28.34-4.61,55.6,0a10.22,10.22,0,0,1,1.62,4.07S320.08,183.06,282.72,185.63Z" transform="translate(-282.25 -150.03)"/><path class="cls-3" d="M288.49,257.16H335a5.68,5.68,0,0,1,5.69,5.68v76.61a10,10,0,0,1-5.48,8.95c-8.91,4.47-27.76,10.66-49.51-1.51a5.71,5.71,0,0,1-2.91-5V262.84A5.68,5.68,0,0,1,288.49,257.16Z" transform="translate(-282.25 -150.03)"/><path class="cls-3" d="M282.71,217.09s-1-10.36,0-28.21c0,0,28.84-8.83,55.08-.7a3.25,3.25,0,0,1,2.27,2.94c.29,5.32.89,18.8-.14,26C339.92,217.09,310.54,220.71,282.71,217.09Z" transform="translate(-282.25 -150.03)"/><path class="cls-4" d="M283.83,221.31c1.44,6.38,3.44,19.08.26,31.61a3.44,3.44,0,0,0,3.36,4.24H336.3a3.45,3.45,0,0,0,3.38-4.17c-1.42-6.56-3.47-19.79-.28-31.56a3.44,3.44,0,0,0-3.33-4.32H287.19A3.44,3.44,0,0,0,283.83,221.31Z" transform="translate(-282.25 -150.03)"/><path class="cls-5" d="M283.53,179.86V169s30.61-9.18,55.6,0v10.88S320.48,175.61,283.53,179.86Z" transform="translate(-282.25 -150.03)"/><rect class="cls-1" x="2.81" y="20.75" width="1.7" height="7.55" rx="0.74"/><rect class="cls-1" x="6.77" y="19.91" width="1.7" height="7.7" rx="0.75"/><rect class="cls-1" x="11.36" y="19.43" width="1.7" height="7.67" rx="0.75"/><rect class="cls-1" x="15.95" y="19.07" width="1.7" height="7.58" rx="0.74"/><rect class="cls-1" x="21.12" y="18.72" width="1.7" height="7.68" rx="0.75"/><rect class="cls-1" x="26.67" y="17.84" width="1.7" height="8.56" rx="0.79"/><rect class="cls-1" x="32.47" y="18.12" width="1.7" height="8.28" rx="0.77"/><rect class="cls-1" x="37.76" y="18.72" width="1.7" height="7.68" rx="0.75"/><rect class="cls-1" x="42.35" y="19.02" width="1.7" height="7.68" rx="0.75"/><rect class="cls-1" x="47.78" y="19.42" width="1.7" height="7.68" rx="0.75"/><rect class="cls-1" x="52.56" y="20.28" width="1.7" height="7.68" rx="0.75"/><ellipse class="cls-1" cx="29.59" cy="2.46" rx="6.86" ry="1.69"/><rect class="cls-1" x="26.19" width="6.63" height="1.53" rx="0.77"/><path class="cls-6" d="M286,257.16H338a3.39,3.39,0,0,1,3.39,3.39V342.7a4.49,4.49,0,0,1-2.18,3.87c-6.83,4.09-28.92,14.69-54.85-.45a3.25,3.25,0,0,1-1.59-2.82v-83A3.14,3.14,0,0,1,286,257.16Z" transform="translate(-282.25 -150.03)"/><path class="cls-7" d="M283.71,217.89c1.1,3.8,5.48,21,.53,37.23a1.56,1.56,0,0,0,1.47,2h52.6a2.46,2.46,0,0,0,2.39-3c-1.55-6.68-4.45-23.18.69-36.49a.4.4,0,0,0-.38-.55H284.3A.62.62,0,0,0,283.71,217.89Z" transform="translate(-282.25 -150.03)"/><path class="cls-8" d="M283.45,214.34a204.73,204.73,0,0,1,.05-24.93,1.78,1.78,0,0,1,1.3-1.61c5.81-1.52,31.28-7.4,54.71-.36a3.31,3.31,0,0,1,2.33,3c.27,4.72.77,15.71.14,23a3,3,0,0,1-2.67,2.74c-7.46.73-31.14,2.63-54.15-.06A1.93,1.93,0,0,1,283.45,214.34Z" transform="translate(-282.25 -150.03)"/><path class="cls-8" d="M284.89,178.05v-8.11a1.38,1.38,0,0,1,1-1.34c5.33-1.43,30.53-7.49,52.35-.48a3.27,3.27,0,0,1,2.23,3.13v5.46a2.56,2.56,0,0,1-2.94,2.54c-6.44-1-23.47-2.69-50.95.33A1.55,1.55,0,0,1,284.89,178.05Z" transform="translate(-282.25 -150.03)"/><path class="cls-3" d="M283.64,184.74s.17-3.41.87-4,27.55-4.07,54,0a8.6,8.6,0,0,1,1.58,3.6S320,182.46,283.64,184.74Z" transform="translate(-282.25 -150.03)"/><g class="cls-9"><path class="cls-10" d="M307.3,268.33c-4,0-4,6.25,0,6.25S311.33,268.33,307.3,268.33Z" transform="translate(-282.25 -150.03)"/><path class="cls-10" d="M307.71,277.07c-4,0-4,6.26,0,6.26S311.75,277.07,307.71,277.07Z" transform="translate(-282.25 -150.03)"/><path class="cls-10" d="M307.71,287.06c-4,0-4,6.26,0,6.26S311.75,287.06,307.71,287.06Z" transform="translate(-282.25 -150.03)"/><path class="cls-10" d="M307.71,297.46c-4,0-4,6.26,0,6.26S311.75,297.46,307.71,297.46Z" transform="translate(-282.25 -150.03)"/><path class="cls-10" d="M308.13,306.62c-4,0-4,6.26,0,6.26S312.16,306.62,308.13,306.62Z" transform="translate(-282.25 -150.03)"/><path class="cls-10" d="M308.55,316.61c-4,0-4,6.26,0,6.26S312.58,316.61,308.55,316.61Z" transform="translate(-282.25 -150.03)"/><path class="cls-10" d="M316.46,316.61c-4,0-4,6.26,0,6.26S320.49,316.61,316.46,316.61Z" transform="translate(-282.25 -150.03)"/><path class="cls-10" d="M316.46,306.21c-4,0-4,6.26,0,6.26S320.49,306.21,316.46,306.21Z" transform="translate(-282.25 -150.03)"/><path class="cls-10" d="M316,297.05c-4,0-4,6.26,0,6.26S320.07,297.05,316,297.05Z" transform="translate(-282.25 -150.03)"/><path class="cls-10" d="M316,287.47c-4,0-4,6.26,0,6.26S320.07,287.47,316,287.47Z" transform="translate(-282.25 -150.03)"/><path class="cls-10" d="M316,277.07c-4,0-4,6.26,0,6.26S320.07,277.07,316,277.07Z" transform="translate(-282.25 -150.03)"/><path class="cls-10" d="M316,268.33c-4,0-4,6.25,0,6.25S320.07,268.33,316,268.33Z" transform="translate(-282.25 -150.03)"/><path class="cls-10" d="M324.78,268.33c-4,0-4,6.25,0,6.25S328.82,268.33,324.78,268.33Z" transform="translate(-282.25 -150.03)"/><path class="cls-10" d="M324.78,277.07c-4,0-4,6.26,0,6.26S328.82,277.07,324.78,277.07Z" transform="translate(-282.25 -150.03)"/><path class="cls-10" d="M324.78,287.06c-4,0-4,6.26,0,6.26S328.82,287.06,324.78,287.06Z" transform="translate(-282.25 -150.03)"/><path class="cls-10" d="M325.2,297.05c-4,0-4,6.26,0,6.26S329.23,297.05,325.2,297.05Z" transform="translate(-282.25 -150.03)"/><path class="cls-10" d="M325.2,305.79c-4,0-4,6.26,0,6.26S329.23,305.79,325.2,305.79Z" transform="translate(-282.25 -150.03)"/><path class="cls-10" d="M325.61,315.36c-4,0-4,6.26,0,6.26S329.65,315.36,325.61,315.36Z" transform="translate(-282.25 -150.03)"/><path class="cls-10" d="M333.52,314.53c-4,0-4,6.26,0,6.26S337.56,314.53,333.52,314.53Z" transform="translate(-282.25 -150.03)"/><path class="cls-10" d="M333.11,305.37c-4,0-4,6.26,0,6.26S337.14,305.37,333.11,305.37Z" transform="translate(-282.25 -150.03)"/><path class="cls-10" d="M333.52,296.22c-4,0-4,6.25,0,6.25S337.56,296.22,333.52,296.22Z" transform="translate(-282.25 -150.03)"/><path class="cls-10" d="M333.11,287.06c-4,0-4,6.26,0,6.26S337.14,287.06,333.11,287.06Z" transform="translate(-282.25 -150.03)"/><path class="cls-10" d="M333.52,277.48c-4,0-4,6.26,0,6.26S337.56,277.48,333.52,277.48Z" transform="translate(-282.25 -150.03)"/><path class="cls-10" d="M333.94,268.33c-4,0-4,6.25,0,6.25S338,268.33,333.94,268.33Z" transform="translate(-282.25 -150.03)"/></g></svg>