<svg width="480" height="800" viewBox="0 0 480 800" fill="none" xmlns="http://www.w3.org/2000/svg">
<g id="welcome screen_2" clip-path="url(#clip0)">
<rect width="480" height="800" fill="#D0EBFF"/>
<g id="Group 11">
<path id="Subtract" fill-rule="evenodd" clip-rule="evenodd" d="M-1 0H479.361V243.499H479.361V214.494C477.658 213.344 473.484 211.044 470.418 211.044C468.308 211.044 463.295 211.492 458.788 211.895L458.787 211.895C455.107 212.224 451.764 212.522 450.616 212.522C449.869 212.522 448.032 212.312 445.646 212.039C439.866 211.377 430.864 210.346 426.342 211.044C422.891 211.576 416.083 209.231 409.948 207.118L409.948 207.117C404.729 205.32 399.998 203.69 398.236 204.143C394.404 205.129 379.712 206.607 374.601 206.607H359.909C359.061 206.607 357.836 207.768 356.29 209.233C354.347 211.074 351.897 213.396 349.05 214.494C345.732 215.774 338.105 215.184 332.465 214.748C329.418 214.512 326.95 214.321 326.054 214.494C323.499 214.987 308.168 216.466 305.613 215.973C303.569 215.579 282.617 218.109 272.397 219.423C260.09 223.543 251.956 224.845 238.542 224.845C231.893 223.99 219.595 224.407 211.623 224.677C208.872 224.77 206.636 224.845 205.325 224.845C202.047 224.845 192.209 226.533 182.629 228.176C173.542 229.735 164.687 231.253 161.888 231.253H131.227C126.54 231.253 117.382 234.172 110.062 236.506L110.06 236.506C107.405 237.353 104.991 238.122 103.121 238.647C98.4697 239.952 91.5799 239.529 84.4889 239.094C80.8669 238.872 77.1923 238.647 73.7368 238.647C70.7082 238.647 62.7363 239.278 52.8276 240.19C43.5609 230.731 36.0299 210.202 32.2163 199.316C28.6391 189.105 9.85902 162.333 0.916122 150.223L0.773 243.499H-1V150.714V0Z" fill="#D0EBFF" fill-opacity="0.8"/>
<path id="Subtract_2" fill-rule="evenodd" clip-rule="evenodd" d="M-0.97274 549.815L-1 549.837V567.511V798.737H243.348H480V472.17C457.914 468.692 410.962 461.451 394.703 459.507C378.045 457.514 298.008 458.756 263.31 459.295C255.259 459.42 249.649 459.507 247.837 459.507H147.148C150.355 461.307 157.281 466.576 159.333 473.253C161.899 481.598 165.105 490.435 168.953 492.399C172.801 494.363 133.039 517.436 120.212 514H109.309C106.53 516.618 104.05 523.622 116.364 530.691C124.182 535.179 112.147 536.755 96.812 538.762C81.9543 540.707 63.9991 543.057 58.0027 548.855C48.2544 558.281 14.6058 565.22 -1 567.511L-0.97274 549.815Z" fill="url(#paint0_linear)" fill-opacity="0.8"/>
<g id="Subtract_3" filter="url(#filter0_d)">
<path fill-rule="evenodd" clip-rule="evenodd" d="M480.359 374.162V312.229C480.359 312.229 479.975 312.425 473.315 315.175C469.097 316.916 461.263 321.807 453.394 326.72C445.731 331.505 438.035 336.31 433.612 338.248C426.44 341.39 404.582 347.739 394.549 350.521V357.885L281.844 338.248C271.236 336.4 251.552 315.347 240.56 303.591C236.954 299.734 234.283 296.877 233.176 296.028C228.693 292.592 207.561 288.174 199.236 286.701C193.954 285.766 181.195 279.495 171.102 274.535C165.288 271.677 160.359 269.254 158.252 268.537C152.489 266.573 116.628 258.718 107.023 258.227C97.4169 257.736 68.6002 250.863 57.0735 244.972C55.115 243.971 53.2118 242.389 51.3799 240.389C62.2425 239.382 71.1244 238.666 74.3641 238.666C77.8282 238.666 81.512 238.891 85.143 239.112C92.2517 239.545 99.1587 239.966 103.821 238.666C105.697 238.144 108.117 237.377 110.78 236.534C118.118 234.21 127.299 231.303 131.998 231.303H162.735C165.541 231.303 174.418 229.79 183.528 228.238C193.131 226.601 202.994 224.921 206.281 224.921C207.595 224.921 209.837 224.845 212.594 224.752C220.587 224.484 232.915 224.069 239.58 224.92C253.028 224.92 261.183 223.623 273.52 219.52C283.766 218.211 304.77 215.691 306.819 216.084C309.38 216.575 324.749 215.102 327.311 214.611C328.209 214.439 330.683 214.629 333.737 214.864C339.392 215.298 347.038 215.886 350.364 214.611C353.218 213.517 355.674 211.205 357.622 209.371C359.171 207.912 360.399 206.756 361.251 206.756H375.979C381.102 206.756 395.831 205.283 399.673 204.302C401.439 203.85 406.182 205.474 411.414 207.264C417.564 209.369 424.389 211.705 427.849 211.174C432.382 210.48 441.406 211.506 447.201 212.166C449.593 212.438 451.435 212.647 452.183 212.647C453.335 212.647 456.685 212.35 460.375 212.022C464.893 211.621 469.92 211.174 472.035 211.174C475.109 211.174 479.292 213.465 481 214.611V374.162H480.359Z" fill="url(#paint1_radial)" fill-opacity="0.7"/>
</g>
<g id="Vector 11" filter="url(#filter1_d)">
<path d="M37.7097 201.158C28.2454 174.112 9.58722 163.13 0.639148 151L0 568C15.5526 565.705 49.0865 558.755 58.8016 549.314C70.9454 537.512 132.304 539.971 116.964 531.119C104.692 524.038 107.164 517.022 109.933 514.4H120.799C133.582 517.842 173.209 494.73 169.374 492.763C165.539 490.796 162.344 481.945 159.787 473.585C157.742 466.897 150.839 461.619 147.643 459.816H247.989C257.577 459.816 373.901 457.357 394.354 459.816C410.716 461.783 458.269 469.159 480 472.601V312.292C480 312.292 479.616 312.489 472.969 315.243C464.66 318.685 442.29 334.421 433.342 338.355C426.184 341.502 404.367 347.862 394.354 350.649V358.025L281.864 338.355C267.803 335.896 237.763 299.507 233.289 296.065C228.815 292.623 207.723 288.197 199.414 286.722C191.105 285.246 164.261 270.494 158.509 268.527C152.756 266.56 116.964 258.692 107.377 258.2C97.7896 257.709 63.5019 251.197 55.6059 242.465C45.3795 231.154 42.1838 213.943 37.7097 201.158Z" fill="url(#paint2_linear)" fill-opacity="0.9"/>
</g>
</g>
</g>
<defs>
<filter id="filter0_d" x="47.3799" y="199.225" width="441.62" height="181.937" filterUnits="userSpaceOnUse" color-interpolation-filters="sRGB">
<feFlood flood-opacity="0" result="BackgroundImageFix"/>
<feColorMatrix in="SourceAlpha" type="matrix" values="0 0 0 0 0 0 0 0 0 0 0 0 0 0 0 0 0 0 127 0"/>
<feOffset dx="2" dy="1"/>
<feGaussianBlur stdDeviation="3"/>
<feColorMatrix type="matrix" values="0 0 0 0 0 0 0 0 0 0 0 0 0 0 0 0 0 0 0.15 0"/>
<feBlend mode="normal" in2="BackgroundImageFix" result="effect1_dropShadow"/>
<feBlend mode="normal" in="SourceGraphic" in2="effect1_dropShadow" result="shape"/>
</filter>
<filter id="filter1_d" x="-4" y="145" width="488" height="425" filterUnits="userSpaceOnUse" color-interpolation-filters="sRGB">
<feFlood flood-opacity="0" result="BackgroundImageFix"/>
<feColorMatrix in="SourceAlpha" type="matrix" values="0 0 0 0 0 0 0 0 0 0 0 0 0 0 0 0 0 0 127 0"/>
<feOffset dy="-2"/>
<feGaussianBlur stdDeviation="2"/>
<feColorMatrix type="matrix" values="0 0 0 0 0 0 0 0 0 0 0 0 0 0 0 0 0 0 0.25 0"/>
<feBlend mode="normal" in2="BackgroundImageFix" result="effect1_dropShadow"/>
<feBlend mode="normal" in="SourceGraphic" in2="effect1_dropShadow" result="shape"/>
</filter>
<linearGradient id="paint0_linear" x1="190.759" y1="432.015" x2="224.779" y2="803.362" gradientUnits="userSpaceOnUse">
<stop stop-color="#464441"/>
<stop offset="0.221593" stop-color="#A0A09E"/>
<stop offset="1" stop-color="#B09F96"/>
</linearGradient>
<radialGradient id="paint1_radial" cx="0" cy="0" r="1" gradientUnits="userSpaceOnUse" gradientTransform="translate(386.865 403.541) rotate(-88.8263) scale(187.573 530.032)">
<stop offset="0.0996095" stop-color="#4A715A"/>
<stop offset="0.724815" stop-color="#C4B6B0"/>
<stop offset="1" stop-color="#94B1C6"/>
</radialGradient>
<linearGradient id="paint2_linear" x1="-19.1744" y1="339.83" x2="413.861" y2="388.593" gradientUnits="userSpaceOnUse">
<stop stop-color="#404A3B"/>
<stop offset="1" stop-color="#655746"/>
</linearGradient>
<clipPath id="clip0">
<rect width="480" height="800" fill="white"/>
</clipPath>
</defs>
</svg>
