<!-- Generator: Adobe Illustrator 23.1.1, SVG Export Plug-In  -->
<svg version="1.1" xmlns="http://www.w3.org/2000/svg" xmlns:xlink="http://www.w3.org/1999/xlink" x="0px" y="0px"
	 width="228.23px" height="78.73px" viewBox="0 0 228.23 78.73" style="enable-background:new 0 0 228.23 78.73;"
	 xml:space="preserve">
<defs>
</defs>
<g>
	<path d="M25,0.99v0.03c-0.64,2.05-1.39,4.09-2.26,6.12c-0.87,2.04-1.94,4.41-3.22,7.11c-1.06,2.27-1.89,4.08-2.51,5.43
		c-0.62,1.35-1.19,2.75-1.72,4.17c-0.07-0.02-0.19-0.03-0.36-0.03c-0.2,0-0.36,0.01-0.5,0.03c-0.37,0-0.66,0.01-0.86,0.03
		c-0.13,0-0.3,0-0.5,0.02c-0.2,0.01-0.41,0-0.63-0.02h-0.4H12c0.73-1.96,2.01-5.25,3.86-9.87l0.3-0.76
		c-0.29-0.7-0.73-1.58-1.32-2.64c-0.2-0.51-0.47-1.11-0.81-1.81c-0.34-0.7-0.58-1.18-0.71-1.42c-0.68-1.36-1.23-2.54-1.65-3.53
		c-0.42-0.99-0.75-1.94-0.99-2.84c0.29,0,0.69-0.02,1.22-0.07c0.31-0.04,0.54-0.07,0.69-0.07c0.42,0,0.76,0.05,1.02,0.17
		c0.64,1.67,1.36,3.35,2.18,5.05c0.81,1.69,1.57,3.11,2.28,4.26c0.9-1.89,1.94-4.38,3.1-7.46l0.69-1.81
		c0.51-0.09,1.18-0.13,2.01-0.13C24.19,0.94,24.56,0.95,25,0.99z"/>
	<path d="M23.19,13.13c0-0.81,0.04-1.52,0.12-2.11c0.08-0.59,0.27-1.33,0.58-2.21c0.29-0.64,0.9-1.12,1.83-1.44
		c0.94-0.32,1.97-0.48,3.12-0.48c0.15,0.02,0.37,0.03,0.66,0.03l1.32-0.03c1.85,0,3.27,0.48,4.26,1.45c0.4,0.26,0.7,0.76,0.91,1.48
		c0.21,0.73,0.33,1.7,0.38,2.92c0.04,1.22,0.07,1.93,0.07,2.13c-0.09,2.2-0.19,3.95-0.31,5.25c-0.12,1.3-0.37,2.13-0.74,2.51
		c-0.42,0.59-1,1-1.73,1.22c-0.74,0.22-1.61,0.33-2.62,0.33c-0.4,0-0.99-0.02-1.78-0.07l-1.52-0.03c-1.3-0.22-2.27-0.69-2.92-1.42
		c-0.65-0.73-1.07-1.57-1.25-2.54c-0.19-0.97-0.28-2.13-0.28-3.5v-1.72C23.25,14.1,23.23,13.51,23.19,13.13z M29.92,10
		c-1.5,0-2.57,0.39-3.23,1.16c-0.29,0.35-0.47,0.8-0.54,1.34c-0.08,0.54-0.1,1.24-0.08,2.09c-0.02,0.33-0.02,0.77,0.02,1.32
		c0.03,0.55,0.05,0.98,0.05,1.29l0.07,1.39c0.07,0.88,0.31,1.5,0.74,1.87c0.43,0.36,0.97,0.61,1.63,0.74
		c0.44,0.07,0.89,0.1,1.35,0.1c0.86,0,1.61-0.15,2.24-0.46c0.64-0.31,1.04-0.81,1.22-1.52c0.09-0.57,0.13-1.02,0.13-1.35
		c0.11-1.54,0.17-2.58,0.17-3.13c0-1.45-0.26-2.62-0.79-3.5C32.36,10.44,31.37,10,29.92,10z"/>
	<path d="M47.94,23.86c-0.02-0.42-0.03-0.76-0.03-1.04s-0.01-0.51-0.03-0.71c-0.04,0.02-0.22,0.14-0.53,0.36
		c-0.31,0.22-0.8,0.41-1.48,0.56c-1.28,0.46-2.52,0.69-3.73,0.69c-1.36,0-2.39-0.33-3.07-0.99c-0.37-0.33-0.6-0.89-0.69-1.67
		c-0.09-0.78-0.14-2.03-0.17-3.75V16.3c0-0.68,0.02-1.68,0.07-3c0.07-1.32,0.1-2.57,0.1-3.76c0-0.57-0.02-1.28-0.07-2.11
		c0.4-0.04,0.93-0.07,1.62-0.07h1.09c0.07,0.66,0.1,1.44,0.1,2.34l-0.03,2.67c0,0.88,0.01,1.52,0.03,1.91l0.03,0.92
		c0,0.79,0.03,1.72,0.1,2.77c0.04,0.73,0.19,1.28,0.45,1.65s0.63,0.63,1.14,0.76c0.44,0.07,0.85,0.1,1.22,0.1
		c1.3,0,2.29-0.35,2.99-1.06s1.05-1.66,1.07-2.87c0.02-0.79-0.01-2.23-0.1-4.32c-0.04-1.06-0.07-1.75-0.07-2.08
		c0-0.59,0.02-1.44,0.07-2.54V7.49c0.35-0.09,0.69-0.14,1.01-0.17c0.32-0.02,0.51-0.03,0.58-0.03c0.46,0,0.86-0.01,1.19-0.03
		l0.03,5.68c0.04,2.6,0.07,4.54,0.07,5.84c0,1.06-0.02,2.73-0.07,5.02c-0.48,0-1.02,0.03-1.62,0.1c-0.11,0-0.25,0.01-0.41,0.03
		c-0.17,0.02-0.34,0.03-0.51,0.03C48.05,23.96,47.94,23.93,47.94,23.86z"/>
	<path d="M62.82,7.49c0.04,0.24,0.07,0.55,0.07,0.92v0.83c0.81-0.81,1.78-1.31,2.9-1.48c0.77-0.15,1.42-0.23,1.95-0.23
		c0.95,0,1.73,0.19,2.34,0.56c0.48,0.22,0.8,0.53,0.96,0.92c0.15-0.09,0.38-0.25,0.68-0.48c0.3-0.23,0.7-0.45,1.22-0.66
		c0.52-0.21,1.24-0.32,2.16-0.35c1.1-0.04,1.96,0.01,2.59,0.15c0.63,0.14,1.19,0.43,1.7,0.88c0.29,0.24,0.48,0.81,0.59,1.72
		c0.11,0.9,0.17,2.09,0.17,3.56c0,0.84-0.02,2.16-0.07,3.96c-0.04,1.76-0.07,3.01-0.07,3.76c0,0.62,0.02,1.36,0.07,2.24
		c-0.79,0.13-1.73,0.18-2.81,0.13c-0.04-0.59-0.07-1.68-0.07-3.27c0.04-1.72,0.07-3.04,0.07-3.96v-1.39
		c-0.02-0.18-0.04-0.5-0.07-0.96c-0.02-0.46-0.07-0.97-0.13-1.52c-0.07-0.55-0.2-0.97-0.4-1.25c-0.13-0.44-0.56-0.69-1.29-0.76
		c-0.22-0.04-0.54-0.07-0.96-0.07c-0.64,0-1.19,0.1-1.65,0.31c-0.46,0.21-0.79,0.53-0.99,0.97c-0.04,0.48-0.07,0.87-0.07,1.16
		l0.03,0.92v1.22c0,0.75-0.02,1.89-0.07,3.43l-0.03,3.3c0,0.81,0.01,1.4,0.03,1.75c-0.46,0.07-1.09,0.1-1.88,0.1h-1.02
		c-0.04-0.44-0.07-1.22-0.07-2.34v-1.75l0.03-2.44c0-1.52-0.04-2.86-0.13-4.03c0-0.92-0.15-1.56-0.46-1.9
		c-0.31-0.34-0.88-0.51-1.72-0.51c-2.33,0-3.59,1.31-3.76,3.93c-0.02,0.33-0.03,0.81-0.03,1.45c0,0.71,0.02,1.69,0.07,2.97
		l0.03,1.62c0,0.9-0.03,1.84-0.1,2.8v0.13c-0.33,0.07-0.64,0.1-0.92,0.1l-1.09-0.03c-0.33,0-0.59,0.01-0.79,0.03l-0.03-5.68
		c-0.04-2.6-0.07-4.54-0.07-5.84c0-1.06,0.02-2.73,0.07-5.02c0.57,0.04,0.91,0.07,1.02,0.07l0.73-0.03c0.11,0,0.25-0.01,0.43-0.03
		c0.18-0.02,0.35-0.03,0.53-0.03C62.72,7.39,62.82,7.43,62.82,7.49z"/>
	<path d="M83.28,7.19c0.15-0.02,0.46-0.02,0.92,0c0.66,0.04,1.39,0.07,2.18,0.07v0.1c0,0.99-0.02,2.52-0.07,4.59
		c-0.07,2.11-0.1,4.25-0.1,6.4c0,2.02,0.04,3.83,0.13,5.41c-0.31,0.07-0.77,0.1-1.39,0.1c-0.62,0-0.99,0-1.12,0
		c-0.4,0-0.64,0.01-0.73,0.03c0.02-0.64,0.03-1.61,0.03-2.9v-2.97v-2.77c-0.04-1.54-0.07-2.73-0.07-3.56c0-1.52,0.07-3,0.2-4.46
		V7.19z M83.15,0.1c1.36,0.04,2.4,0.07,3.1,0.07l0.1,4.36c-0.22,0.11-0.62,0.17-1.19,0.17c-0.35,0-0.62-0.01-0.79-0.03
		c-0.13,0-0.29,0-0.46-0.02c-0.18-0.01-0.39,0-0.63,0.02c0-0.33-0.02-0.87-0.07-1.62C83.15,1.58,83.12,0.61,83.15,0.1z"/>
	<path d="M101.86,28.15c-0.42,0.95-0.95,1.57-1.58,1.88c-0.64,0.31-1.38,0.5-2.21,0.56c-0.97,0.04-1.57,0.07-1.82,0.07
		c-0.42,0-0.96-0.02-1.62-0.07c-1.45-0.11-2.67-0.59-3.66-1.45c-0.99-0.86-1.48-1.94-1.48-3.23c0-0.29,0.01-0.51,0.03-0.66
		c0.11-0.04,0.41-0.08,0.89-0.12c0.48-0.03,0.95-0.05,1.39-0.05c0.37,0,0.58,0.02,0.63,0.07c0.02,0.04,0.03,0.21,0.03,0.5
		c0,0.57,0.13,1.08,0.4,1.52c0.26,0.44,0.83,0.73,1.68,0.86c0.44,0.02,1.01,0.03,1.72,0.03c0.92,0,1.6-0.05,2.03-0.15
		c0.43-0.1,0.7-0.28,0.82-0.53s0.16-0.63,0.12-1.14v-1.22v-1.09c0-0.11,0.01-0.23,0.02-0.36c0.01-0.13,0.03-0.32,0.05-0.56
		c-0.37,0.44-0.81,0.71-1.3,0.79c-0.5,0.09-1.41,0.13-2.76,0.13h-1.25c-2.2,0-3.63-0.69-4.29-2.08c-0.55-1.03-0.86-2.32-0.92-3.86
		c0-2.05,0.08-3.74,0.25-5.08s0.65-2.56,1.45-3.65s2.07-1.69,3.81-1.8c1.14-0.02,2.03,0.02,2.66,0.12c0.63,0.1,1.09,0.27,1.4,0.51
		c0.31,0.24,0.56,0.58,0.76,1.02c0.07-0.31,0.1-0.59,0.1-0.86c0-0.13-0.01-0.27-0.02-0.41c-0.01-0.14-0.01-0.28,0.02-0.41
		c0.57-0.04,1-0.07,1.29-0.07l1.72,0.03c0.09,2.55,0.13,5.54,0.13,8.98c0,3.41-0.06,6.38-0.17,8.91c0,0.22-0.01,0.52-0.02,0.89
		c-0.01,0.37-0.03,0.73-0.07,1.07C102.04,27.58,101.97,27.89,101.86,28.15z M91.33,16.01v0.4c-0.07,1.19,0.13,2.3,0.59,3.33
		s1.32,1.58,2.57,1.65c0.33,0.02,0.78,0.03,1.35,0.03c1.19,0,2.04-0.21,2.56-0.63c0.52-0.42,0.81-1.23,0.87-2.44
		c0-1.56-0.01-2.82-0.03-3.76c0-2.22-0.5-3.6-1.49-4.12c-0.46-0.26-1.1-0.4-1.91-0.4c-0.44,0-0.87,0.03-1.29,0.1
		c-1.23,0.22-2.08,0.84-2.54,1.87C91.56,13.05,91.33,14.38,91.33,16.01z"/>
	<path d="M107.6,6.17v2.94c0.59-0.51,1.12-0.89,1.57-1.14c0.45-0.25,1.12-0.41,2-0.48c0.53-0.07,1.02-0.1,1.48-0.1
		c1.61,0,2.86,0.38,3.76,1.16c0.29,0.24,0.48,0.81,0.59,1.72c0.11,0.9,0.17,2.09,0.17,3.56c0,0.84-0.02,2.16-0.07,3.96
		c-0.04,1.76-0.07,3.01-0.07,3.76c0,0.62,0.02,1.36,0.07,2.24c-0.88,0.13-1.83,0.18-2.84,0.13c-0.04-0.66-0.07-1.23-0.07-1.72v-1.98
		v-6.47c-0.04-1.41-0.37-2.32-0.99-2.74c-0.13-0.09-0.4-0.18-0.79-0.26c-0.46-0.13-0.94-0.2-1.42-0.2c-0.86,0-1.59,0.21-2.19,0.64
		c-0.6,0.43-1,1.09-1.17,2c-0.15,0.84-0.23,1.84-0.23,3l0.03,1.12c0.04,1.45,0.07,2.65,0.07,3.6c0,1.19-0.02,2.1-0.07,2.74v0.13
		c-0.44,0.11-0.79,0.17-1.06,0.17l-0.99-0.03c-0.31,0-0.56,0.01-0.76,0.03c0-2.53-0.01-4.62-0.03-6.27l-0.03-10.1
		c0-2.46,0.02-4.99,0.07-7.59c0.68,0.07,1.23,0.09,1.65,0.07c0.11,0,0.25-0.01,0.41-0.03C106.86,0.01,107.03,0,107.2,0
		c0.22,0,0.33,0.03,0.33,0.1c0.04,0.2,0.07,1.54,0.07,4.03V6.17z"/>
	<path d="M125.06,1.25V6.3l0.03,1.85c1.43-0.04,3.2-0.12,5.31-0.23c0.13,0.18,0.2,0.51,0.2,0.99l-0.03,0.76
		c-0.04,0.48-0.06,0.84-0.03,1.06c-2.4,0-4.19-0.01-5.38-0.03v5.05v1.12c0,0.99,0.02,1.69,0.07,2.11c0.04,0.42,0.13,0.78,0.26,1.09
		c0.35,0.44,1.06,0.71,2.13,0.83c1.07,0.11,2.04,0.14,2.92,0.1c0.11,0.88,0.17,1.44,0.17,1.68c0,0.4-0.06,0.79-0.17,1.19
		c-0.46,0.02-1.19,0.03-2.18,0.03c-1.72,0-3.06-0.21-4.03-0.63c-0.97-0.42-1.58-1.25-1.85-2.51c-0.24-2.13-0.36-4.92-0.36-8.35
		v-1.58c-0.13,0.02-0.46,0.03-0.99,0.03l-2.51-0.03l0.1-2.71c0.48,0.04,1.64,0.07,3.46,0.07l-0.03-3.46V3.17
		c0-0.92,0.02-1.57,0.07-1.95c0.31-0.02,0.78-0.01,1.42,0.03l0.89,0.03C124.77,1.29,124.95,1.28,125.06,1.25z"/>
	<path d="M141.75,6.17v2.94c0.59-0.51,1.12-0.89,1.57-1.14c0.45-0.25,1.12-0.41,2-0.48c0.53-0.07,1.02-0.1,1.48-0.1
		c1.61,0,2.86,0.38,3.76,1.16c0.29,0.24,0.48,0.81,0.59,1.72c0.11,0.9,0.17,2.09,0.17,3.56c0,0.84-0.02,2.16-0.07,3.96
		c-0.04,1.76-0.07,3.01-0.07,3.76c0,0.62,0.02,1.36,0.07,2.24c-0.88,0.13-1.83,0.18-2.84,0.13c-0.04-0.66-0.07-1.23-0.07-1.72v-1.98
		v-6.47c-0.04-1.41-0.37-2.32-0.99-2.74c-0.13-0.09-0.4-0.18-0.79-0.26c-0.46-0.13-0.94-0.2-1.42-0.2c-0.86,0-1.59,0.21-2.19,0.64
		c-0.6,0.43-1,1.09-1.17,2c-0.15,0.84-0.23,1.84-0.23,3l0.03,1.12c0.04,1.45,0.07,2.65,0.07,3.6c0,1.19-0.02,2.1-0.07,2.74v0.13
		c-0.44,0.11-0.79,0.17-1.06,0.17l-0.99-0.03c-0.31,0-0.56,0.01-0.76,0.03c0-2.53-0.01-4.62-0.03-6.27l-0.03-10.1
		c0-2.46,0.02-4.99,0.07-7.59c0.68,0.07,1.23,0.09,1.65,0.07c0.11,0,0.25-0.01,0.41-0.03c0.17-0.02,0.33-0.03,0.51-0.03
		c0.22,0,0.33,0.03,0.33,0.1c0.04,0.2,0.07,1.54,0.07,4.03V6.17z"/>
	<path d="M164.06,7.29c0.51-0.02,1.15,0,1.95,0.07l0.86,0.07c0.04,0.35,0.07,0.62,0.07,0.79v0.33c-0.02,0.51-0.03,1.26-0.03,2.28
		c0,0.84,0.02,2.07,0.07,3.7l0.03,3.7c0,1.58-0.04,3.02-0.13,4.32c0,0.07,0,0.21,0,0.43s-0.02,0.42-0.07,0.59
		c-0.04,0.18-0.17,0.29-0.36,0.33h-0.56l-1.06-0.03c-0.18,0-0.33,0.01-0.46,0.03c-0.13,0.02-0.25,0.03-0.36,0.03
		c-0.22-0.07-0.33-0.31-0.33-0.73c-0.02-0.18-0.02-0.37,0.02-0.59c0.03-0.22,0.05-0.41,0.05-0.56c-0.53,0.73-1.36,1.22-2.51,1.49
		c-1.14,0.26-2.27,0.4-3.37,0.4c-1.06,0-1.95-0.47-2.69-1.4c-0.74-0.93-1.28-2.08-1.63-3.45c-0.35-1.36-0.53-2.69-0.53-3.99
		c0-1.43,0.24-2.72,0.73-3.86c0.48-1.14,1.15-2.05,2-2.72c0.85-0.67,1.79-1.02,2.82-1.04l1.06-0.03c0.99,0,1.81,0.12,2.46,0.35
		c0.65,0.23,1.13,0.66,1.44,1.27c0-0.2,0.02-0.45,0.07-0.76c0.04-0.44,0.07-0.75,0.07-0.92C163.63,7.32,163.78,7.29,164.06,7.29z
		 M160.37,10.26c-1.14-0.02-2.11,0.27-2.89,0.87c-0.78,0.61-1.26,1.33-1.44,2.16c-0.18,0.64-0.26,1.5-0.26,2.57
		c0.11,3.54,1.54,5.24,4.29,5.08c1.12,0,1.94-0.2,2.44-0.59c0.51-0.4,0.82-0.96,0.94-1.68c0.12-0.73,0.18-1.82,0.18-3.27
		c0-1.58-0.07-2.7-0.2-3.35c-0.13-0.65-0.41-1.09-0.84-1.34C162.17,10.48,161.42,10.33,160.37,10.26z"/>
	<path d="M168.45,7.36c0.33,0.04,0.79,0.07,1.39,0.07c0.2,0,0.43-0.01,0.71-0.02c0.27-0.01,0.58-0.01,0.91,0.02
		c0.35,1.23,1,3.58,1.95,7.03c0.46,1.74,0.8,2.99,1.02,3.76c0.22,0.77,0.48,1.52,0.79,2.24c0.2-0.48,0.44-1.22,0.73-2.21
		c0.29-0.99,0.47-1.64,0.56-1.95c1.08-3.67,2-6.61,2.77-8.81c0.2,0,0.52-0.02,0.96-0.07c0.79-0.04,1.45-0.05,1.98-0.03
		c-0.44,1.17-0.85,2.37-1.22,3.61c-0.37,1.24-0.73,2.47-1.06,3.68c-1.06,3.65-2,6.7-2.84,9.14c-0.35,0.07-0.91,0.1-1.68,0.1
		l-2.38-0.03c-0.97-3.08-1.68-5.42-2.13-7.01c-0.45-1.59-0.91-3.35-1.37-5.26L168.45,7.36z"/>
	<path d="M185.45,15.51v0.59l-0.03,0.96c0,2.73,1.34,4.09,4.03,4.09c1.08,0,1.88-0.25,2.39-0.74c0.52-0.5,0.78-1.17,0.78-2.03
		c0-0.13-0.02-0.37-0.07-0.73c0.46-0.07,0.89-0.1,1.29-0.1c0.35,0,0.62,0.01,0.79,0.03c0.13,0,0.29,0,0.48,0.02
		c0.19,0.01,0.4,0.01,0.64-0.02c0.02,1.25-0.02,2.25-0.13,3c-0.11,0.75-0.37,1.46-0.79,2.14c-0.4,0.59-1.08,1.02-2.06,1.27
		c-0.98,0.25-2.05,0.38-3.22,0.38c-0.53,0-1.02-0.02-1.47-0.07c-0.45-0.04-0.73-0.09-0.84-0.13c-1.72-0.29-2.96-1.37-3.73-3.25
		c-0.77-1.88-1.1-4.03-0.99-6.45c0.02-0.18,0.05-0.54,0.1-1.11c0.04-0.56,0.1-1.14,0.18-1.73c0.08-0.59,0.23-1.18,0.45-1.75
		c0.42-0.97,1.18-1.72,2.28-2.24s2.32-0.79,3.66-0.79c0.7,0,1.44,0.09,2.21,0.26c2.99,0.51,4.49,2.76,4.49,6.77
		c0,0.33-0.02,0.8-0.07,1.42c-0.42,0.13-1.65,0.24-3.7,0.33c-0.24,0.02-0.77,0.03-1.58,0.03c-1.74,0-3.02-0.02-3.86-0.07
		C186.12,15.61,185.71,15.58,185.45,15.51z M193.47,13.04c-0.02-0.68-0.19-1.35-0.51-2.01c-0.32-0.66-0.78-1.18-1.37-1.55
		c-0.33-0.15-0.62-0.25-0.86-0.3c-0.24-0.04-0.55-0.07-0.92-0.07c-1.43,0-2.45,0.3-3.05,0.89c-0.61,0.59-0.98,1.44-1.14,2.54
		c-0.04,0.26-0.07,0.44-0.07,0.53c0,0.26,0.13,0.44,0.38,0.53s0.8,0.13,1.63,0.13c0.81,0,1.51-0.01,2.08-0.03
		c2.11,0,3.3-0.01,3.56-0.03c0.11-0.02,0.18-0.05,0.21-0.08c0.03-0.03,0.05-0.09,0.05-0.18V13.04z"/>
	<path d="M214.75,7.29c0.51-0.02,1.15,0,1.95,0.07l0.86,0.07c0.04,0.35,0.07,0.62,0.07,0.79v0.33c-0.02,0.51-0.03,1.26-0.03,2.28
		c0,0.84,0.02,2.07,0.07,3.7l0.03,3.7c0,1.58-0.04,3.02-0.13,4.32c0,0.07,0,0.21,0,0.43s-0.02,0.42-0.07,0.59
		c-0.04,0.18-0.17,0.29-0.36,0.33h-0.56l-1.06-0.03c-0.18,0-0.33,0.01-0.46,0.03c-0.13,0.02-0.25,0.03-0.36,0.03
		c-0.22-0.07-0.33-0.31-0.33-0.73c-0.02-0.18-0.02-0.37,0.02-0.59c0.03-0.22,0.05-0.41,0.05-0.56c-0.53,0.73-1.36,1.22-2.51,1.49
		c-1.14,0.26-2.27,0.4-3.37,0.4c-1.06,0-1.95-0.47-2.69-1.4c-0.74-0.93-1.28-2.08-1.63-3.45c-0.35-1.36-0.53-2.69-0.53-3.99
		c0-1.43,0.24-2.72,0.73-3.86c0.48-1.14,1.15-2.05,2-2.72c0.85-0.67,1.79-1.02,2.82-1.04l1.06-0.03c0.99,0,1.81,0.12,2.46,0.35
		c0.65,0.23,1.13,0.66,1.44,1.27c0-0.2,0.02-0.45,0.07-0.76c0.04-0.44,0.07-0.75,0.07-0.92C214.32,7.32,214.46,7.29,214.75,7.29z
		 M211.05,10.26c-1.14-0.02-2.11,0.27-2.89,0.87c-0.78,0.61-1.26,1.33-1.44,2.16c-0.18,0.64-0.26,1.5-0.26,2.57
		c0.11,3.54,1.54,5.24,4.29,5.08c1.12,0,1.94-0.2,2.44-0.59c0.51-0.4,0.82-0.96,0.94-1.68c0.12-0.73,0.18-1.82,0.18-3.27
		c0-1.58-0.07-2.7-0.2-3.35c-0.13-0.65-0.41-1.09-0.84-1.34C212.85,10.48,212.11,10.33,211.05,10.26z"/>
	<path d="M13.61,56.93c-0.05,0.08-0.08,0.18-0.08,0.31c0,0.16,0.09,0.33,0.27,0.51c0.96,1.2,1.66,2.2,2.11,3
		c0.44,0.81,0.66,1.77,0.66,2.89c0,0.44-0.04,0.9-0.12,1.36c-0.39,2.26-1.4,3.8-3.04,4.6c-1.64,0.81-3.74,1.21-6.32,1.21
		c-0.52,0-1.14-0.01-1.87-0.04c-0.73-0.03-1.27-0.05-1.64-0.08c-1.04-0.08-2.03-0.12-2.96-0.12c-0.23,0-0.4-0.03-0.51-0.08
		C0.04,68.45,0,65.38,0,61.3l0.04-12.25c0-2.39-0.01-4.19-0.04-5.38l0.04-0.04c2.08-0.57,4.08-0.86,6.01-0.86
		c2.78,0,5.06,0.63,6.83,1.89c1.77,1.26,2.65,3.32,2.65,6.18C15.52,52.77,14.88,54.8,13.61,56.93z M5.62,67.27
		c0.99,0.05,1.66,0.08,2.03,0.08c1.09,0,1.98-0.16,2.67-0.49c0.69-0.32,1.29-0.94,1.81-1.85c0.21-0.42,0.31-0.88,0.31-1.4
		c0-0.62-0.14-1.33-0.43-2.11c-0.23-0.7-0.68-1.22-1.33-1.56c-0.65-0.34-1.32-0.52-2.01-0.55c-0.69-0.03-1.1-0.04-1.23-0.04
		c-0.16-0.03-0.49-0.04-1.01-0.04c-0.29,0-1.21,0.03-2.77,0.08c-0.23,0.34-0.35,1.07-0.35,2.18c0,1.33,0.17,3.17,0.51,5.54
		C4.45,67.19,5.04,67.24,5.62,67.27z M5.62,55.8c0.99,0.05,1.62,0.08,1.91,0.08c1.14,0,2.01-0.15,2.61-0.45s1.07-0.84,1.4-1.62
		c0.42-0.78,0.62-1.62,0.62-2.54c0-0.39-0.04-0.78-0.12-1.17c-0.21-1.14-0.7-1.97-1.48-2.48c-0.78-0.51-1.82-0.79-3.12-0.84
		c-0.26-0.03-0.66-0.04-1.21-0.04c-1.43,0-2.34,0.12-2.73,0.35l0.04,1.05l-0.08,2.73v1.6c0,1.48,0.08,2.52,0.23,3.12L5.62,55.8z"/>
	<path d="M17.94,57.98c0-0.96,0.04-1.79,0.14-2.5c0.09-0.7,0.32-1.57,0.68-2.61c0.34-0.75,1.06-1.32,2.16-1.7
		c1.1-0.38,2.33-0.57,3.69-0.57c0.18,0.03,0.44,0.04,0.78,0.04l1.56-0.04c2.18,0,3.86,0.57,5.03,1.72c0.47,0.31,0.83,0.9,1.07,1.75
		c0.25,0.86,0.4,2.01,0.45,3.45c0.05,1.44,0.08,2.28,0.08,2.51c-0.1,2.6-0.23,4.67-0.37,6.2c-0.14,1.53-0.44,2.52-0.88,2.96
		c-0.49,0.7-1.18,1.18-2.05,1.44s-1.9,0.39-3.1,0.39c-0.47,0-1.17-0.03-2.11-0.08l-1.79-0.04c-1.53-0.26-2.68-0.82-3.45-1.68
		c-0.77-0.86-1.26-1.86-1.48-3c-0.22-1.14-0.33-2.52-0.33-4.13v-2.03C18.02,59.13,17.99,58.43,17.94,57.98z M25.9,54.28
		c-1.77,0-3.04,0.46-3.82,1.37c-0.34,0.42-0.55,0.94-0.64,1.58c-0.09,0.64-0.12,1.46-0.1,2.48c-0.03,0.39-0.02,0.91,0.02,1.56
		c0.04,0.65,0.06,1.16,0.06,1.52l0.08,1.64c0.08,1.04,0.37,1.77,0.88,2.2c0.51,0.43,1.15,0.72,1.93,0.88
		c0.52,0.08,1.05,0.12,1.6,0.12c1.01,0,1.9-0.18,2.65-0.55c0.75-0.36,1.23-0.96,1.44-1.79c0.1-0.68,0.16-1.21,0.16-1.6
		c0.13-1.82,0.19-3.05,0.19-3.7c0-1.72-0.31-3.09-0.94-4.13C28.78,54.8,27.61,54.28,25.9,54.28z"/>
	<path d="M50.23,51.12c0,0.03-0.01,0.04-0.04,0.04c-1.85,3.3-3.52,6.53-5.03,9.67c1.12,2.13,2.08,4.16,2.89,6.08
		c0.16,0.36,0.36,0.84,0.62,1.42c0.26,0.58,0.62,1.36,1.09,2.32l-0.78-0.04c-0.13,0-0.28,0.01-0.45,0.02
		c-0.17,0.01-0.36,0.01-0.57-0.02H47.5c-0.91,0-1.42-0.01-1.52-0.04h-0.04c-0.57-1.01-1.26-2.4-2.07-4.17
		c-0.75-1.59-1.3-2.67-1.64-3.24c-0.68,1.17-1.3,2.34-1.87,3.51c-0.99,1.92-1.7,3.25-2.15,3.98l-1.87,0.04
		c-0.94,0-1.56-0.04-1.87-0.12c1.56-2.96,3.2-6.23,4.91-9.79c-0.83-1.46-1.66-3.02-2.5-4.68c-0.44-0.94-0.85-1.73-1.21-2.38
		c-0.36-0.65-0.86-1.47-1.48-2.46c0.57-0.03,1.3-0.04,2.18-0.04c1.2,0,1.82,0.03,1.87,0.08c0.52,0.86,1.17,2.04,1.95,3.55
		c0.88,1.74,1.56,2.96,2.03,3.67c0.26-0.47,0.71-1.35,1.37-2.65c0.1-0.23,0.41-0.86,0.92-1.89c0.51-1.03,1.02-1.94,1.54-2.75
		c0.7-0.08,2.08-0.12,4.13-0.12H50.23z"/>
	<path d="M75.97,67.23v0.08c0.05,1.38-0.01,2.46-0.19,3.24c-1.25-0.03-3.16-0.01-5.73,0.04c-2.03,0.05-3.56,0.08-4.6,0.08
		c-2.24,0-4.12-0.06-5.66-0.2c0-2.94-0.04-5.85-0.12-8.74c-0.05-3.85-0.08-6.71-0.08-8.58c0-3.74,0.08-6.86,0.23-9.36
		c4.81-0.23,9.24-0.35,13.3-0.35c1.9,0,2.85,0.04,2.85,0.12c0.03,0.18,0.04,0.47,0.04,0.86c0,0.52-0.01,0.9-0.04,1.13l-0.04,1.17
		v0.39c-1.87,0.13-3.52,0.19-4.95,0.19h-2.15h-1.25c-1.51,0-2.8,0.04-3.86,0.12l-0.16,0.04c0.05,0.65,0.01,1.83-0.12,3.55
		c-0.05,1.3-0.08,2.12-0.08,2.46c0,0.81,0.05,1.4,0.16,1.79l0.04,0.04c1.25,0.03,2.57,0.04,3.98,0.04c1.2,0,2.17,0.03,2.92,0.08
		v0.04c0.05,0.39,0.08,0.94,0.08,1.64c0,0.23-0.01,0.5-0.02,0.8c-0.01,0.3-0.01,0.62,0.02,0.96c-0.6,0.05-1.08,0.09-1.44,0.12
		C68.74,58.99,68.33,59,67.86,59c-0.78,0-1.51,0.01-2.18,0.04c-1.17,0.05-1.82,0.12-1.95,0.2c-0.1,0.6-0.16,1.44-0.16,2.54
		c0,0.73,0.01,1.29,0.04,1.68c0,0.34,0.01,0.86,0.02,1.58c0.01,0.72,0.01,1.37-0.02,1.97l0.04,0.04c1.87-0.03,4.26,0.03,7.18,0.16
		c1.66,0.05,2.86,0.08,3.59,0.08L75.97,67.23z"/>
	<path d="M79.17,42.31l3.55,0.12c0,1.07-0.03,3.71-0.08,7.92c-0.05,5.2-0.08,9.28-0.08,12.25c0,3.28,0.04,5.89,0.12,7.84
		c-0.16,0.18-0.58,0.27-1.29,0.27l-1.21-0.04c-0.23-0.03-0.52-0.04-0.86-0.04c-0.21,0-0.34,0.01-0.39,0.04
		c0.16-2.11,0.23-4.22,0.23-6.36c0-1.61-0.05-4.03-0.16-7.25c-0.1-3.22-0.16-5.65-0.16-7.29C78.86,47,78.96,44.52,79.17,42.31z"/>
	<path d="M97.93,43.75v-0.43c0.05-0.13,0.68-0.2,1.87-0.2c0.68,0,1.18,0.03,1.52,0.08v2.57c0,2.47,0.05,6.07,0.16,10.8
		c0.03,1.17,0.05,2.57,0.08,4.19c0.03,1.62,0.04,3.48,0.04,5.56c0,1.92-0.01,3.35-0.04,4.29c-0.83,0.05-1.52,0.08-2.07,0.08
		c-0.7,0-1.22-0.03-1.56-0.08c-0.03-0.05-0.04-0.33-0.04-0.82c0-0.68-0.06-1.2-0.19-1.56c-0.18,0.42-0.49,0.83-0.92,1.25
		c-0.43,0.42-0.86,0.66-1.31,0.74c-0.7,0.23-1.48,0.35-2.34,0.35c-0.42,0-0.73-0.01-0.94-0.04c-1.85-0.13-3.24-0.71-4.17-1.74
		c-0.94-1.03-1.55-2.29-1.85-3.78c-0.3-1.49-0.48-3.32-0.53-5.48c0-2.18,0.29-3.98,0.88-5.4c0.59-1.42,1.61-2.32,3.06-2.71
		c0.96-0.26,2.05-0.39,3.28-0.39c0.99,0,1.75,0.07,2.3,0.2c0.52,0.08,0.99,0.25,1.4,0.53s0.74,0.56,0.98,0.86
		c0.23,0.3,0.36,0.51,0.39,0.64l-0.04-3.32c0-0.68-0.01-1.28-0.02-1.81c-0.01-0.53-0.01-0.96,0.02-1.27
		c0.03-0.13,0.03-0.29,0.02-0.49c-0.01-0.2-0.02-0.37-0.02-0.53v-0.82C97.89,44.44,97.9,44.01,97.93,43.75z M94.14,53.97l-0.74-0.04
		c-1.4,0-2.48,0.35-3.24,1.03c-0.75,0.69-1.18,1.76-1.29,3.22c-0.08,0.57-0.12,1.43-0.12,2.57c0.05,1.72,0.27,3.05,0.64,4
		c0.38,0.95,0.9,1.61,1.56,1.99c0.66,0.38,1.54,0.57,2.63,0.57c1.25,0,2.18-0.29,2.81-0.88s1.03-1.36,1.21-2.32
		c0.18-0.96,0.27-2.22,0.27-3.78c-0.03-1.48-0.11-2.64-0.25-3.47c-0.14-0.83-0.48-1.51-1.01-2.03
		C96.09,54.31,95.26,54.02,94.14,53.97z"/>
	<path d="M107.17,60.79v0.7l-0.04,1.13c0,3.22,1.59,4.84,4.76,4.84c1.27,0,2.22-0.29,2.83-0.88c0.61-0.58,0.92-1.38,0.92-2.4
		c0-0.16-0.03-0.44-0.08-0.86c0.55-0.08,1.05-0.12,1.52-0.12c0.42,0,0.73,0.01,0.94,0.04c0.16,0,0.34,0.01,0.57,0.02
		c0.22,0.01,0.47,0.01,0.76-0.02c0.03,1.48-0.03,2.67-0.16,3.55c-0.13,0.88-0.44,1.73-0.94,2.54c-0.47,0.7-1.28,1.2-2.44,1.5
		c-1.16,0.3-2.42,0.45-3.8,0.45c-0.62,0-1.2-0.03-1.74-0.08c-0.53-0.05-0.86-0.1-0.99-0.16c-2.03-0.34-3.5-1.62-4.41-3.84
		c-0.91-2.22-1.3-4.76-1.17-7.62c0.03-0.21,0.06-0.64,0.12-1.31c0.05-0.66,0.12-1.34,0.21-2.05c0.09-0.7,0.27-1.39,0.53-2.07
		c0.49-1.14,1.39-2.03,2.69-2.65c1.3-0.62,2.74-0.94,4.33-0.94c0.83,0,1.7,0.1,2.61,0.31c3.54,0.6,5.3,3.26,5.3,8
		c0,0.39-0.03,0.95-0.08,1.68c-0.49,0.16-1.95,0.29-4.37,0.39c-0.29,0.03-0.91,0.04-1.87,0.04c-2.05,0-3.58-0.03-4.56-0.08
		C107.96,60.91,107.48,60.87,107.17,60.79z M116.65,57.87c-0.03-0.81-0.23-1.6-0.6-2.38c-0.38-0.78-0.92-1.39-1.62-1.83
		c-0.39-0.18-0.73-0.3-1.01-0.35c-0.29-0.05-0.65-0.08-1.09-0.08c-1.69,0-2.89,0.35-3.61,1.05c-0.72,0.7-1.16,1.7-1.35,3
		c-0.05,0.31-0.08,0.52-0.08,0.62c0,0.31,0.15,0.52,0.45,0.62c0.3,0.1,0.94,0.16,1.93,0.16c0.96,0,1.78-0.01,2.46-0.04
		c2.5,0,3.9-0.01,4.21-0.04c0.13-0.03,0.21-0.06,0.25-0.1s0.06-0.11,0.06-0.21V57.87z"/>
	<path d="M125.15,51.28c0,0.31,0.01,0.55,0.02,0.72c0.01,0.17,0.02,0.37,0.02,0.6c0.18-0.1,0.44-0.22,0.76-0.35
		c0.32-0.13,0.68-0.26,1.07-0.39c0.6-0.21,1.32-0.36,2.16-0.45s1.61-0.14,2.28-0.14c0.62,0,0.94,0.03,0.94,0.08l-0.04,3.24
		c0,0.52,0.01,0.91,0.04,1.17c-0.39-0.16-0.83-0.3-1.33-0.43c-0.57-0.13-1.2-0.2-1.87-0.2c-0.7,0-1.5,0.1-2.38,0.31
		c-0.73,0.18-1.22,0.46-1.48,0.82c-0.26,0.36-0.38,1.05-0.35,2.07c0.1,3.56,0.16,7.61,0.16,12.13v0.16c-0.44,0.1-0.9,0.16-1.37,0.16
		c-0.18,0-0.47-0.01-0.88-0.02c-0.4-0.01-0.81-0.01-1.23,0.02l-0.04-6.71c-0.05-3.07-0.08-5.37-0.08-6.9c0-1.25,0.03-3.22,0.08-5.93
		c0.26,0.03,0.54,0.03,0.84,0.02c0.3-0.01,0.57-0.02,0.8-0.02c0.31-0.03,0.73-0.04,1.25-0.04C124.94,51.2,125.15,51.22,125.15,51.28
		z"/>
	<path d="M158.61,58.26l-0.12,12.44c-0.57-0.08-1.18-0.12-1.83-0.12l-1.68,0.04c-0.1-2.16-0.17-4.14-0.19-5.95
		c-0.03-1.81-0.04-2.92-0.04-3.33c0-3.72-0.03-7.19-0.08-10.41c-0.16,0.23-0.34,0.57-0.55,1.01l-1.44,3.16
		c-0.18,0.36-0.74,1.61-1.68,3.74c-0.16,0.39-0.29,0.68-0.39,0.88s-0.19,0.29-0.27,0.29c-0.23-0.16-0.57-0.66-0.99-1.52
		c-0.43-0.86-1.02-2.13-1.77-3.82c-0.29-0.7-0.79-1.83-1.52-3.39c-0.03,1.53-0.04,3.58-0.04,6.12c0,2.89,0.01,4.81,0.04,5.77
		c0.03,2.24,0.13,4.69,0.31,7.37c-0.52,0.08-1.36,0.12-2.53,0.12h-1.25c-0.1,0-0.18-0.41-0.21-1.23c-0.04-0.82-0.06-2.5-0.06-5.05
		c0-3.48,0.04-10.31,0.12-20.47c0.39-0.1,0.88-0.16,1.46-0.16c0.58,0,0.94,0,1.07,0c0.49,0,0.86-0.01,1.09-0.04h0.04
		c0.1,0.1,0.44,0.79,1.01,2.07c0.08,0.18,0.43,0.97,1.05,2.36c0.62,1.39,1.36,2.87,2.22,4.43c0.08-0.03,0.44-0.84,1.09-2.46
		c0.1-0.26,0.34-0.83,0.7-1.72c0.36-0.88,0.76-1.8,1.19-2.75c0.43-0.95,0.81-1.63,1.15-2.05c0.21,0.03,0.92,0.01,2.15-0.04
		c0.94-0.05,1.6-0.08,1.99-0.08c-0.05,1.4-0.08,2.46-0.08,3.16c0,0.86,0.03,2.17,0.08,3.94l0.04,3.86
		C158.69,56.13,158.66,57.4,158.61,58.26z"/>
	<path d="M173.86,51.08c0.6-0.03,1.36,0,2.3,0.08l1.01,0.08c0.05,0.42,0.08,0.73,0.08,0.94v0.39c-0.03,0.6-0.04,1.5-0.04,2.69
		c0,0.99,0.03,2.44,0.08,4.37l0.04,4.37c0,1.87-0.05,3.58-0.16,5.11c0,0.08,0,0.25,0,0.51s-0.03,0.49-0.08,0.7
		c-0.05,0.21-0.19,0.34-0.43,0.39h-0.66l-1.25-0.04c-0.21,0-0.39,0.01-0.55,0.04c-0.16,0.03-0.3,0.04-0.43,0.04
		c-0.26-0.08-0.39-0.36-0.39-0.86c-0.03-0.21-0.02-0.44,0.02-0.7c0.04-0.26,0.06-0.48,0.06-0.66c-0.62,0.86-1.61,1.44-2.96,1.75
		c-1.35,0.31-2.68,0.47-3.98,0.47c-1.25,0-2.31-0.55-3.18-1.66s-1.51-2.46-1.93-4.08c-0.42-1.61-0.62-3.18-0.62-4.72
		c0-1.69,0.29-3.21,0.86-4.56c0.57-1.35,1.36-2.42,2.36-3.22c1-0.79,2.11-1.2,3.33-1.23l1.25-0.04c1.17,0,2.14,0.14,2.91,0.41
		c0.77,0.27,1.33,0.77,1.7,1.5c0-0.23,0.03-0.53,0.08-0.9c0.05-0.52,0.08-0.88,0.08-1.09C173.35,51.11,173.52,51.08,173.86,51.08z
		 M169.49,54.59c-1.35-0.03-2.49,0.32-3.41,1.03s-1.49,1.57-1.7,2.55c-0.21,0.75-0.31,1.77-0.31,3.04c0.13,4.19,1.82,6.19,5.07,6.01
		c1.33,0,2.29-0.23,2.89-0.7c0.6-0.47,0.97-1.13,1.11-1.99c0.14-0.86,0.21-2.14,0.21-3.86c0-1.87-0.08-3.19-0.23-3.96
		c-0.16-0.77-0.49-1.29-0.99-1.58C171.62,54.85,170.74,54.67,169.49,54.59z"/>
	<path d="M183.53,78.11v0.43c0,0.05-0.17,0.1-0.51,0.14c-0.34,0.04-0.72,0.06-1.13,0.06c-0.6,0-1.16-0.04-1.68-0.12v-2.57
		c0-2.44-0.05-6.03-0.16-10.76c-0.03-1.14-0.05-2.54-0.08-4.19c-0.03-1.65-0.04-3.52-0.04-5.6c0-1.92,0.01-3.35,0.04-4.29l2.53-0.04
		c0.52,0,0.9,0.01,1.13,0.04c0.03,0.03,0.05,0.14,0.06,0.33c0.01,0.2,0.02,0.4,0.02,0.6c0,0.1,0.01,0.22,0.02,0.35
		c0.01,0.13,0.01,0.31-0.02,0.55c0.03,0.13,0.07,0.19,0.14,0.18c0.06-0.01,0.15-0.11,0.25-0.29c0.47-0.6,1.1-1.03,1.91-1.29
		c0.81-0.26,1.62-0.39,2.46-0.39c0.42,0,0.7,0.01,0.86,0.04c1.79,0.13,3.17,0.69,4.11,1.68c0.95,0.99,1.58,2.24,1.89,3.74
		s0.49,3.37,0.55,5.58c0,1.98-0.25,3.69-0.76,5.15c-0.51,1.46-1.31,2.38-2.4,2.77c-0.65,0.26-1.43,0.43-2.34,0.51
		c-0.29,0.03-0.74,0.04-1.36,0.04c-1.3,0-2.51-0.1-3.63-0.31c-1.12-0.21-1.7-0.47-1.76-0.78l0.08,4.76c0,0.57-0.03,1.27-0.08,2.11
		L183.53,78.11z M187.08,67.73c1.22,0,2.15-0.06,2.79-0.18c0.64-0.12,1.18-0.39,1.64-0.82c0.45-0.43,0.82-1.12,1.11-2.09
		c0.21-1.01,0.31-1.96,0.31-2.85c0-2.08-0.37-3.87-1.11-5.38c-0.74-1.51-2.16-2.18-4.27-2.03c-1.25,0.1-2.16,0.45-2.75,1.03
		s-0.96,1.36-1.11,2.32c-0.16,0.96-0.23,2.31-0.23,4.06c0,1.85,0.08,3.17,0.23,3.96c0.16,0.79,0.47,1.32,0.96,1.58
		C185.12,67.6,185.94,67.73,187.08,67.73z"/>
	<path d="M199.09,42.31l3.55,0.12c0,1.07-0.03,3.71-0.08,7.92c-0.05,5.2-0.08,9.28-0.08,12.25c0,3.28,0.04,5.89,0.12,7.84
		c-0.16,0.18-0.58,0.27-1.29,0.27l-1.21-0.04c-0.23-0.03-0.52-0.04-0.86-0.04c-0.21,0-0.34,0.01-0.39,0.04
		c0.16-2.11,0.23-4.22,0.23-6.36c0-1.61-0.05-4.03-0.16-7.25c-0.1-3.22-0.16-5.65-0.16-7.29C198.78,47,198.88,44.52,199.09,42.31z"
		/>
	<path d="M209.04,60.79v0.7L209,62.62c0,3.22,1.59,4.84,4.76,4.84c1.27,0,2.22-0.29,2.83-0.88c0.61-0.58,0.92-1.38,0.92-2.4
		c0-0.16-0.03-0.44-0.08-0.86c0.55-0.08,1.05-0.12,1.52-0.12c0.42,0,0.73,0.01,0.94,0.04c0.16,0,0.34,0.01,0.57,0.02
		c0.22,0.01,0.47,0.01,0.76-0.02c0.03,1.48-0.03,2.67-0.16,3.55c-0.13,0.88-0.44,1.73-0.94,2.54c-0.47,0.7-1.28,1.2-2.44,1.5
		c-1.16,0.3-2.42,0.45-3.8,0.45c-0.62,0-1.2-0.03-1.74-0.08c-0.53-0.05-0.86-0.1-0.99-0.16c-2.03-0.34-3.5-1.62-4.41-3.84
		c-0.91-2.22-1.3-4.76-1.17-7.62c0.03-0.21,0.06-0.64,0.12-1.31c0.05-0.66,0.12-1.34,0.21-2.05c0.09-0.7,0.27-1.39,0.53-2.07
		c0.49-1.14,1.39-2.03,2.69-2.65c1.3-0.62,2.74-0.94,4.33-0.94c0.83,0,1.7,0.1,2.61,0.31c3.54,0.6,5.3,3.26,5.3,8
		c0,0.39-0.03,0.95-0.08,1.68c-0.49,0.16-1.95,0.29-4.37,0.39c-0.29,0.03-0.91,0.04-1.87,0.04c-2.05,0-3.58-0.03-4.56-0.08
		C209.83,60.91,209.35,60.87,209.04,60.79z M218.51,57.87c-0.03-0.81-0.23-1.6-0.6-2.38c-0.38-0.78-0.92-1.39-1.62-1.83
		c-0.39-0.18-0.73-0.3-1.01-0.35c-0.29-0.05-0.65-0.08-1.09-0.08c-1.69,0-2.89,0.35-3.61,1.05c-0.72,0.7-1.16,1.7-1.35,3
		c-0.05,0.31-0.08,0.52-0.08,0.62c0,0.31,0.15,0.52,0.45,0.62c0.3,0.1,0.94,0.16,1.93,0.16c0.96,0,1.78-0.01,2.46-0.04
		c2.5,0,3.9-0.01,4.21-0.04c0.13-0.03,0.21-0.06,0.25-0.1s0.06-0.11,0.06-0.21V57.87z"/>
	<path d="M224.79,43.28h0.12c0.18-0.03,0.49-0.06,0.94-0.12c0.44-0.05,0.83-0.08,1.17-0.08c0.39,0,0.78,0.04,1.17,0.12
		c-0.1,4.99-0.16,8.88-0.16,11.66c0,2.73,0.06,5.72,0.2,8.97c-0.6,0.08-1.27,0.13-2.03,0.16c-0.75,0.03-1.25,0.04-1.48,0.04h-0.04
		l0.04-2.65L224.68,56c-0.05-2.34-0.08-4.12-0.08-5.34C224.6,47.82,224.66,45.36,224.79,43.28z M226.78,70.62h-2.07
		c-0.08,0-0.12-0.2-0.12-0.58c0-0.57,0.04-1.21,0.12-1.91c0.03-0.31,0.05-0.64,0.08-0.99c0.03-0.35,0.04-0.71,0.04-1.07v-0.04
		c0.29-0.13,0.69-0.2,1.21-0.2l1.05,0.04c0.47,0.05,0.83,0.08,1.09,0.08l-0.04,1.33c-0.05,1.51-0.08,2.63-0.08,3.35h-0.27h-0.98
		H226.78z"/>
</g>
</svg>
