<!-- Generator: Adobe Illustrator 23.1.1, SVG Export Plug-In  -->
<svg version="1.1" xmlns="http://www.w3.org/2000/svg" xmlns:xlink="http://www.w3.org/1999/xlink" x="0px" y="0px" width="30.14px"
	 height="10.19px" viewBox="0 0 30.14 10.19" style="enable-background:new 0 0 30.14 10.19;" xml:space="preserve">
<defs>
</defs>
<g>
	<path d="M6.31,3.49H6.3C6.02,3.53,5.76,3.56,5.52,3.56c-0.26,0-0.47-0.02-0.63-0.07C4.9,3.4,4.91,3.28,4.91,3.12
		c0-0.31-0.08-0.57-0.22-0.78C4.54,2.13,4.33,1.98,4.07,1.89c-0.19-0.06-0.39-0.1-0.62-0.1c-0.33,0-0.64,0.07-0.94,0.22
		c-0.3,0.15-0.53,0.34-0.7,0.6S1.58,3.14,1.61,3.44c0.12,0.71,0.61,1.08,1.47,1.11C4.15,4.59,4.96,4.83,5.5,5.29
		s0.81,1.04,0.81,1.75c0,0.67-0.13,1.25-0.39,1.72C5.67,9.24,5.32,9.6,4.89,9.83s-0.92,0.36-1.46,0.36c-0.53,0-1.05-0.1-1.55-0.29
		S0.95,9.43,0.62,9.06C0.28,8.68,0.09,8.24,0.04,7.73V7.71C0.01,7.6,0,7.48,0,7.34v-0.1c0.21-0.02,0.36-0.03,0.48-0.03l0.52,0.01
		c0.1,0.01,0.25,0.01,0.43,0.01C1.42,7.61,1.53,7.93,1.77,8.19c0.24,0.26,0.6,0.45,1.08,0.57C3,8.8,3.14,8.82,3.29,8.82
		c0.31,0,0.59-0.08,0.84-0.22C4.38,8.45,4.57,8.24,4.7,7.98c0.13-0.26,0.18-0.55,0.15-0.87C4.82,6.76,4.7,6.49,4.5,6.31
		C4.3,6.14,4.07,6.02,3.8,5.96c-0.27-0.06-0.63-0.1-1.1-0.14L2.17,5.78C1.69,5.71,1.29,5.52,0.95,5.23S0.39,4.59,0.27,4.2
		C0.18,3.92,0.14,3.64,0.14,3.37c0-0.3,0.04-0.58,0.13-0.84C0.4,2.1,0.61,1.7,0.92,1.35C1.22,1,1.58,0.74,2,0.56
		c0.36-0.15,0.79-0.22,1.27-0.22c0.66,0,1.27,0.13,1.83,0.38c0.39,0.2,0.7,0.47,0.93,0.83s0.34,0.79,0.34,1.28
		C6.38,3.01,6.36,3.22,6.31,3.49z"/>
	<path d="M8.39,2.62v1.25c0.25-0.21,0.47-0.38,0.67-0.48s0.47-0.17,0.85-0.2c0.22-0.03,0.43-0.04,0.63-0.04
		c0.68,0,1.21,0.16,1.6,0.49c0.12,0.1,0.21,0.35,0.25,0.73s0.07,0.89,0.07,1.51c0,0.35-0.01,0.92-0.03,1.68
		c-0.02,0.75-0.03,1.28-0.03,1.6c0,0.26,0.01,0.58,0.03,0.95c-0.37,0.06-0.77,0.08-1.2,0.06c-0.02-0.28-0.03-0.52-0.03-0.73V8.58
		V5.84c-0.02-0.6-0.16-0.98-0.42-1.16c-0.06-0.04-0.17-0.07-0.34-0.11c-0.2-0.06-0.4-0.08-0.6-0.08c-0.36,0-0.67,0.09-0.93,0.27
		C8.64,4.94,8.47,5.22,8.4,5.6C8.33,5.96,8.3,6.38,8.3,6.87l0.01,0.48c0.02,0.62,0.03,1.12,0.03,1.53c0,0.5-0.01,0.89-0.03,1.16
		v0.06c-0.19,0.05-0.34,0.07-0.45,0.07l-0.42-0.01c-0.13,0-0.24,0-0.32,0.01c0-1.07,0-1.96-0.01-2.66L7.1,3.22
		C7.1,2.17,7.11,1.1,7.13,0c0.29,0.03,0.52,0.04,0.7,0.03c0.05,0,0.1,0,0.17-0.01C8.07,0,8.14,0,8.22,0c0.09,0,0.14,0.01,0.14,0.04
		C8.38,0.13,8.39,0.7,8.39,1.75V2.62z"/>
	<path d="M14.67,3.16c0,0.11,0,0.2,0.01,0.26s0.01,0.13,0.01,0.22c0.07-0.04,0.16-0.08,0.27-0.13c0.12-0.05,0.24-0.09,0.38-0.14
		c0.21-0.07,0.47-0.13,0.78-0.16c0.3-0.03,0.58-0.05,0.82-0.05c0.22,0,0.34,0.01,0.34,0.03l-0.01,1.16c0,0.19,0,0.33,0.01,0.42
		c-0.14-0.06-0.3-0.11-0.48-0.15c-0.21-0.05-0.43-0.07-0.67-0.07c-0.25,0-0.54,0.04-0.85,0.11c-0.26,0.07-0.44,0.16-0.53,0.29
		c-0.09,0.13-0.13,0.38-0.13,0.74c0.04,1.28,0.06,2.73,0.06,4.35v0.06c-0.16,0.04-0.32,0.06-0.49,0.06c-0.07,0-0.17,0-0.32-0.01
		s-0.29,0-0.44,0.01l-0.01-2.41c-0.02-1.1-0.03-1.93-0.03-2.48c0-0.45,0.01-1.16,0.03-2.13c0.09,0.01,0.19,0.01,0.3,0.01
		c0.11,0,0.2-0.01,0.29-0.01c0.11-0.01,0.26-0.01,0.45-0.01C14.6,3.14,14.67,3.15,14.67,3.16z"/>
	<path d="M22.21,10.12c-0.01-0.18-0.01-0.32-0.01-0.44c0-0.12,0-0.22-0.01-0.3c-0.02,0.01-0.09,0.06-0.22,0.15
		c-0.13,0.09-0.34,0.17-0.63,0.24c-0.54,0.2-1.07,0.29-1.58,0.29c-0.58,0-1.01-0.14-1.3-0.42c-0.16-0.14-0.26-0.38-0.29-0.71
		c-0.04-0.33-0.06-0.86-0.07-1.59V6.92c0-0.29,0.01-0.71,0.03-1.27c0.03-0.56,0.04-1.09,0.04-1.6c0-0.24-0.01-0.54-0.03-0.9
		c0.17-0.02,0.4-0.03,0.69-0.03h0.46c0.03,0.28,0.04,0.61,0.04,0.99l-0.01,1.13c0,0.37,0,0.64,0.01,0.81l0.01,0.39
		c0,0.34,0.01,0.73,0.04,1.18c0.02,0.31,0.08,0.54,0.19,0.7c0.11,0.16,0.27,0.27,0.48,0.32c0.19,0.03,0.36,0.04,0.52,0.04
		c0.55,0,0.97-0.15,1.27-0.45s0.45-0.71,0.46-1.22c0.01-0.34,0-0.95-0.04-1.83c-0.02-0.45-0.03-0.74-0.03-0.88
		c0-0.25,0.01-0.61,0.03-1.08V3.18c0.15-0.04,0.29-0.06,0.43-0.07c0.14-0.01,0.22-0.01,0.25-0.01c0.2,0,0.36,0,0.5-0.01l0.01,2.41
		c0.02,1.1,0.03,1.93,0.03,2.48c0,0.45-0.01,1.16-0.03,2.13c-0.21,0-0.43,0.01-0.69,0.04c-0.05,0-0.1,0-0.17,0.01
		c-0.07,0.01-0.14,0.01-0.22,0.01C22.25,10.16,22.21,10.15,22.21,10.12z"/>
	<path d="M25.76,0.39c0,0.08,0,0.15,0.01,0.2c0,0.05,0.01,0.09,0.01,0.12c0.01,0.07,0.01,0.19,0.01,0.38l0.03,0.71L25.8,3.82
		c0.01-0.07,0.07-0.16,0.19-0.27c0.12-0.12,0.27-0.22,0.47-0.31c0.2-0.09,0.42-0.14,0.66-0.15c0.82-0.03,1.45,0.04,1.89,0.2
		c0.39,0.14,0.68,0.47,0.86,0.99c0.18,0.52,0.27,1.14,0.27,1.85c-0.03,0.81-0.09,1.48-0.2,2c-0.1,0.52-0.32,0.96-0.66,1.33
		c-0.34,0.37-0.83,0.58-1.5,0.62c-0.15,0.02-0.27,0.03-0.36,0.03c-0.21,0-0.42-0.03-0.6-0.1c-0.15-0.05-0.3-0.14-0.45-0.28
		c-0.3-0.17-0.5-0.38-0.62-0.64c0.02,0.13,0.03,0.29,0.03,0.49l-0.01,0.45c0,0.06,0,0.09-0.01,0.1c-0.06,0.01-0.15,0.01-0.29,0.01
		c-0.21,0-0.36,0-0.48-0.01l-0.56-0.01c-0.01-0.34-0.01-0.85-0.01-1.54c0-0.75,0-1.42,0.01-2.01c0.01-0.59,0.02-1.09,0.03-1.5
		c0.04-1.7,0.06-2.99,0.06-3.86V0.27c0.16-0.03,0.34-0.04,0.55-0.04c0.17,0,0.32,0.01,0.45,0.02c0.13,0.01,0.21,0.03,0.25,0.04V0.39
		z M29.01,6.71c0-0.31-0.02-0.54-0.06-0.7c-0.04-0.38-0.09-0.69-0.17-0.92c-0.07-0.23-0.24-0.42-0.5-0.59s-0.66-0.25-1.19-0.25
		c-0.52,0-0.88,0.18-1.06,0.55c-0.18,0.37-0.27,0.95-0.27,1.73c0,0.66,0.12,1.23,0.36,1.7c0.24,0.47,0.62,0.71,1.14,0.71
		c0.58,0,1.01-0.19,1.31-0.57S29.01,7.44,29.01,6.71z"/>
</g>
</svg>
