<!-- Generator: Adobe Illustrator 23.1.1, SVG Export Plug-In  -->
<svg version="1.1" xmlns="http://www.w3.org/2000/svg" xmlns:xlink="http://www.w3.org/1999/xlink" x="0px" y="0px"
	 width="347.68px" height="24.56px" viewBox="0 0 347.68 24.56" style="enable-background:new 0 0 347.68 24.56;"
	 xml:space="preserve">
<defs>
</defs>
<g>
	<path d="M13.93,1.02l0.03,0.03c-0.2,2.35-0.54,5.88-1.02,10.59c-0.09,0.99-0.26,2.76-0.51,5.3c-0.25,2.54-0.47,4.85-0.64,6.91
		c-0.11,0.04-0.32,0.07-0.63,0.07h-0.5H9.08c-0.29-0.55-0.52-1.18-0.71-1.88c-0.19-0.7-0.4-1.61-0.64-2.71
		c-0.07-0.31-0.15-0.68-0.25-1.11c-0.1-0.43-0.21-0.91-0.35-1.44H7.1l-0.83,3.46c-0.18,0.79-0.35,1.52-0.51,2.19
		s-0.31,1.12-0.45,1.34C4.7,23.9,4.16,23.96,3.7,23.96c-0.33,0-0.75-0.03-1.25-0.1H2.41l-0.4-2.74C1.4,16.9,0.92,13.25,0.59,10.18
		C0.26,7.11,0.07,4.08,0,1.09V1.06c0.35-0.04,0.88-0.09,1.58-0.13c0.46,0,1.02,0.02,1.68,0.07c0.07,0.64,0.13,1.98,0.2,4.03
		c0.15,3.37,0.31,6.15,0.48,8.35c0.17,2.2,0.41,3.92,0.74,5.15c0.33-1.17,0.63-2.32,0.89-3.45c0.26-1.13,0.66-2.93,1.19-5.4
		L6.8,9.54c0.31,0.73,0.79,2.35,1.45,4.88c0.51,1.89,0.78,2.89,0.83,3c0.04,0.22,0.18,0.65,0.4,1.29c0.31-3.37,0.54-6.45,0.71-9.24
		s0.26-4.4,0.28-4.82c0.07-1.67,0.13-2.85,0.2-3.53V1.09c0.46-0.11,0.97-0.17,1.52-0.17C12.62,0.92,13.2,0.96,13.93,1.02z"/>
	<path d="M18.74,6.34v2.94c0.59-0.51,1.12-0.89,1.57-1.14c0.45-0.25,1.12-0.41,2-0.48c0.53-0.07,1.02-0.1,1.48-0.1
		c1.61,0,2.86,0.38,3.76,1.16c0.29,0.24,0.48,0.81,0.59,1.72c0.11,0.9,0.17,2.09,0.17,3.56c0,0.84-0.02,2.16-0.07,3.96
		c-0.04,1.76-0.07,3.01-0.07,3.76c0,0.62,0.02,1.36,0.07,2.24c-0.88,0.13-1.83,0.18-2.84,0.13c-0.04-0.66-0.07-1.23-0.07-1.72v-1.98
		v-6.47c-0.04-1.41-0.37-2.32-0.99-2.74c-0.13-0.09-0.4-0.18-0.79-0.26c-0.46-0.13-0.94-0.2-1.42-0.2c-0.86,0-1.59,0.21-2.19,0.64
		c-0.6,0.43-1,1.09-1.17,2c-0.15,0.84-0.23,1.84-0.23,3l0.03,1.12c0.04,1.45,0.07,2.65,0.07,3.6c0,1.19-0.02,2.1-0.07,2.74v0.13
		c-0.44,0.11-0.79,0.17-1.06,0.17l-0.99-0.03c-0.31,0-0.56,0.01-0.76,0.03c0-2.53-0.01-4.62-0.03-6.27l-0.03-10.1
		c0-2.46,0.02-4.99,0.07-7.59c0.68,0.07,1.23,0.09,1.65,0.07c0.11,0,0.25-0.01,0.41-0.03c0.17-0.02,0.33-0.03,0.51-0.03
		c0.22,0,0.33,0.03,0.33,0.1c0.04,0.2,0.07,1.54,0.07,4.03V6.34z"/>
	<path d="M41.05,7.46c0.51-0.02,1.15,0,1.95,0.07l0.86,0.07c0.04,0.35,0.07,0.62,0.07,0.79v0.33c-0.02,0.51-0.03,1.26-0.03,2.28
		c0,0.84,0.02,2.07,0.07,3.7l0.03,3.7c0,1.58-0.04,3.02-0.13,4.32c0,0.07,0,0.21,0,0.43s-0.02,0.42-0.07,0.59
		c-0.04,0.18-0.17,0.29-0.36,0.33h-0.56l-1.06-0.03c-0.18,0-0.33,0.01-0.46,0.03c-0.13,0.02-0.25,0.03-0.36,0.03
		c-0.22-0.07-0.33-0.31-0.33-0.73c-0.02-0.18-0.02-0.37,0.02-0.59c0.03-0.22,0.05-0.41,0.05-0.56c-0.53,0.73-1.36,1.22-2.51,1.49
		c-1.14,0.26-2.27,0.4-3.37,0.4c-1.06,0-1.95-0.47-2.69-1.4c-0.74-0.93-1.28-2.08-1.63-3.45C30.17,17.88,30,16.54,30,15.25
		c0-1.43,0.24-2.72,0.73-3.86c0.48-1.14,1.15-2.05,2-2.72c0.85-0.67,1.79-1.02,2.82-1.04l1.06-0.03c0.99,0,1.81,0.12,2.46,0.35
		c0.65,0.23,1.13,0.66,1.44,1.27c0-0.2,0.02-0.45,0.07-0.76c0.04-0.44,0.07-0.75,0.07-0.92C40.62,7.48,40.77,7.46,41.05,7.46z
		 M37.36,10.43c-1.14-0.02-2.11,0.27-2.89,0.87c-0.78,0.61-1.26,1.33-1.44,2.16c-0.18,0.64-0.26,1.5-0.26,2.57
		c0.11,3.54,1.54,5.24,4.29,5.08c1.12,0,1.94-0.2,2.44-0.59c0.51-0.4,0.82-0.96,0.94-1.68c0.12-0.73,0.18-1.82,0.18-3.27
		c0-1.58-0.07-2.7-0.2-3.35c-0.13-0.65-0.41-1.09-0.84-1.34C39.15,10.65,38.41,10.49,37.36,10.43z"/>
	<path d="M51.91,1.42v5.05l0.03,1.85c1.43-0.04,3.2-0.12,5.31-0.23c0.13,0.18,0.2,0.51,0.2,0.99l-0.03,0.76
		c-0.04,0.48-0.06,0.84-0.03,1.06c-2.4,0-4.19-0.01-5.38-0.03v5.05v1.12c0,0.99,0.02,1.69,0.07,2.11c0.04,0.42,0.13,0.78,0.26,1.09
		c0.35,0.44,1.06,0.71,2.13,0.83c1.07,0.11,2.04,0.14,2.92,0.1c0.11,0.88,0.17,1.44,0.17,1.68c0,0.4-0.06,0.79-0.17,1.19
		c-0.46,0.02-1.19,0.03-2.18,0.03c-1.72,0-3.06-0.21-4.03-0.63c-0.97-0.42-1.58-1.25-1.85-2.51c-0.24-2.13-0.36-4.92-0.36-8.35
		v-1.58c-0.13,0.02-0.46,0.03-0.99,0.03l-2.51-0.03l0.1-2.71c0.48,0.04,1.64,0.07,3.46,0.07L49,4.88V3.33
		c0-0.92,0.02-1.57,0.07-1.95c0.31-0.02,0.78-0.01,1.42,0.03l0.89,0.03C51.62,1.45,51.8,1.44,51.91,1.42z"/>
	<path d="M75.54,1.25V0.89c0.04-0.11,0.57-0.17,1.58-0.17c0.57,0,1,0.02,1.29,0.07v2.18c0,2.09,0.04,5.14,0.13,9.14
		c0.02,0.99,0.04,2.17,0.07,3.55c0.02,1.38,0.03,2.94,0.03,4.7c0,1.63-0.01,2.84-0.03,3.63c-0.7,0.04-1.29,0.07-1.75,0.07
		c-0.59,0-1.03-0.02-1.32-0.07c-0.02-0.04-0.03-0.27-0.03-0.69c0-0.57-0.06-1.01-0.17-1.32c-0.15,0.35-0.41,0.7-0.78,1.06
		c-0.36,0.35-0.73,0.56-1.11,0.63c-0.59,0.2-1.25,0.3-1.98,0.3c-0.35,0-0.62-0.01-0.79-0.03c-1.56-0.11-2.74-0.6-3.53-1.47
		s-1.31-1.94-1.57-3.2c-0.25-1.26-0.4-2.81-0.45-4.64c0-1.85,0.25-3.37,0.74-4.57s1.36-1.96,2.59-2.29
		c0.81-0.22,1.74-0.33,2.77-0.33c0.84,0,1.49,0.05,1.95,0.17c0.44,0.07,0.84,0.21,1.19,0.45c0.35,0.23,0.63,0.47,0.82,0.73
		c0.2,0.25,0.31,0.43,0.33,0.54L75.5,6.5c0-0.57-0.01-1.08-0.02-1.53c-0.01-0.45-0.01-0.81,0.02-1.07c0.02-0.11,0.03-0.25,0.02-0.41
		c-0.01-0.16-0.02-0.31-0.02-0.45V2.34C75.5,1.84,75.52,1.47,75.54,1.25z M72.34,9.9l-0.63-0.03c-1.19,0-2.1,0.29-2.74,0.88
		c-0.64,0.58-1,1.49-1.09,2.72c-0.07,0.48-0.1,1.21-0.1,2.18c0.04,1.45,0.23,2.58,0.54,3.38c0.32,0.8,0.76,1.36,1.32,1.68
		c0.56,0.32,1.3,0.48,2.23,0.48c1.06,0,1.85-0.25,2.38-0.74c0.53-0.5,0.87-1.15,1.02-1.96c0.15-0.81,0.23-1.88,0.23-3.2
		c-0.02-1.25-0.09-2.23-0.21-2.94c-0.12-0.7-0.41-1.28-0.86-1.72C73.98,10.19,73.28,9.94,72.34,9.9z"/>
	<path d="M80.52,13.3c0-0.81,0.04-1.52,0.12-2.11c0.08-0.59,0.27-1.33,0.58-2.21c0.29-0.64,0.9-1.12,1.83-1.44
		c0.94-0.32,1.97-0.48,3.12-0.48c0.15,0.02,0.37,0.03,0.66,0.03l1.32-0.03c1.85,0,3.27,0.48,4.26,1.45c0.4,0.26,0.7,0.76,0.91,1.48
		c0.21,0.73,0.33,1.7,0.38,2.92c0.04,1.22,0.07,1.93,0.07,2.13c-0.09,2.2-0.19,3.95-0.31,5.25c-0.12,1.3-0.37,2.13-0.74,2.51
		c-0.42,0.59-1,1-1.73,1.22c-0.74,0.22-1.61,0.33-2.62,0.33c-0.4,0-0.99-0.02-1.78-0.07l-1.52-0.03c-1.3-0.22-2.27-0.69-2.92-1.42
		c-0.65-0.73-1.07-1.57-1.25-2.54c-0.19-0.97-0.28-2.13-0.28-3.5v-1.72C80.59,14.27,80.56,13.67,80.52,13.3z M87.25,10.16
		c-1.5,0-2.57,0.39-3.23,1.16c-0.29,0.35-0.47,0.8-0.54,1.34c-0.08,0.54-0.1,1.24-0.08,2.09c-0.02,0.33-0.02,0.77,0.02,1.32
		c0.03,0.55,0.05,0.98,0.05,1.29l0.07,1.39c0.07,0.88,0.31,1.5,0.74,1.87c0.43,0.36,0.97,0.61,1.63,0.74
		c0.44,0.07,0.89,0.1,1.35,0.1c0.86,0,1.61-0.15,2.24-0.46c0.64-0.31,1.04-0.81,1.22-1.52c0.09-0.57,0.13-1.02,0.13-1.35
		c0.11-1.54,0.17-2.58,0.17-3.13c0-1.45-0.26-2.62-0.79-3.5C89.69,10.6,88.7,10.16,87.25,10.16z"/>
	<path d="M98.14,15.68v0.59l-0.03,0.96c0,2.73,1.34,4.09,4.03,4.09c1.08,0,1.88-0.25,2.39-0.74c0.52-0.5,0.78-1.17,0.78-2.03
		c0-0.13-0.02-0.37-0.07-0.73c0.46-0.07,0.89-0.1,1.29-0.1c0.35,0,0.62,0.01,0.79,0.03c0.13,0,0.29,0,0.48,0.02
		c0.19,0.01,0.4,0.01,0.64-0.02c0.02,1.25-0.02,2.25-0.13,3c-0.11,0.75-0.37,1.46-0.79,2.14c-0.4,0.59-1.08,1.02-2.06,1.27
		c-0.98,0.25-2.05,0.38-3.22,0.38c-0.53,0-1.02-0.02-1.47-0.07c-0.45-0.04-0.73-0.09-0.84-0.13c-1.72-0.29-2.96-1.37-3.73-3.25
		c-0.77-1.88-1.1-4.03-0.99-6.45c0.02-0.18,0.05-0.54,0.1-1.11c0.04-0.56,0.1-1.14,0.18-1.73c0.08-0.59,0.23-1.18,0.45-1.75
		c0.42-0.97,1.18-1.72,2.28-2.24s2.32-0.79,3.66-0.79c0.7,0,1.44,0.09,2.21,0.26c2.99,0.51,4.49,2.76,4.49,6.77
		c0,0.33-0.02,0.8-0.07,1.42c-0.42,0.13-1.65,0.24-3.7,0.33c-0.24,0.02-0.77,0.03-1.58,0.03c-1.74,0-3.02-0.02-3.86-0.07
		C98.81,15.77,98.41,15.74,98.14,15.68z M106.16,13.2c-0.02-0.68-0.19-1.35-0.51-2.01c-0.32-0.66-0.78-1.18-1.37-1.55
		c-0.33-0.15-0.62-0.25-0.86-0.3c-0.24-0.04-0.55-0.07-0.92-0.07c-1.43,0-2.45,0.3-3.05,0.89c-0.61,0.59-0.98,1.44-1.14,2.54
		c-0.04,0.26-0.07,0.44-0.07,0.53c0,0.26,0.13,0.44,0.38,0.53s0.8,0.13,1.63,0.13c0.81,0,1.51-0.01,2.08-0.03
		c2.11,0,3.3-0.01,3.56-0.03c0.11-0.02,0.18-0.05,0.21-0.08c0.03-0.03,0.05-0.09,0.05-0.18V13.2z"/>
	<path d="M123.48,11.81c0,0.11-0.38,0.17-1.15,0.17c-0.57,0-0.99-0.01-1.25-0.03c-0.18,0-0.35,0-0.53-0.02
		c-0.18-0.01-0.32,0-0.43,0.02c0-0.02,0-0.4,0-1.14c0-0.74-0.64-1.18-1.91-1.34c-0.29-0.04-0.72-0.07-1.29-0.07
		c-0.62,0-1.17,0.04-1.67,0.13c-0.5,0.09-0.86,0.21-1.11,0.36c-0.29,0.22-0.51,0.54-0.66,0.96c-0.15,0.42-0.23,0.83-0.23,1.22
		c0,0.31,0.04,0.52,0.13,0.63c0.24,0.51,0.56,0.86,0.96,1.06c0.22,0.15,0.76,0.34,1.62,0.56c0.86,0.22,1.6,0.34,2.21,0.36
		c0.9,0.02,1.7,0.16,2.39,0.41c0.69,0.25,1.24,0.6,1.63,1.04c0.4,0.48,0.69,0.96,0.87,1.44c0.19,0.47,0.28,0.98,0.28,1.53
		c0,0.68-0.17,1.51-0.5,2.47c-0.48,1.04-1.25,1.79-2.31,2.28c-1.06,0.48-2.25,0.71-3.6,0.69c-1.47,0.04-2.77-0.15-3.89-0.58
		c-1.12-0.43-1.99-1.07-2.61-1.93c-0.62-0.86-0.92-1.87-0.92-3.04v-0.17c0.4-0.04,0.98-0.07,1.75-0.07c0.86,0,1.32,0.03,1.39,0.1
		c0.04,0.04,0.14,0.29,0.28,0.74s0.4,0.91,0.78,1.37c0.37,0.46,1.01,0.73,1.91,0.79c0.7,0.04,1.12,0.07,1.25,0.07
		c0.35,0,0.64-0.03,0.87-0.1c0.23-0.07,0.53-0.19,0.91-0.36c1.12-0.51,1.67-1.24,1.65-2.21c0.02-0.64-0.15-1.13-0.51-1.49
		c-0.36-0.35-0.82-0.59-1.37-0.71c-0.55-0.12-1.3-0.24-2.24-0.35c-0.68-0.07-1.23-0.13-1.65-0.2c-0.42-0.07-0.79-0.18-1.12-0.33
		c-1.14-0.37-2.02-0.96-2.62-1.77c-0.6-0.8-0.91-1.68-0.91-2.62c0-1.03,0.3-1.97,0.91-2.82c0.6-0.85,1.44-1.4,2.49-1.67
		c0.9-0.24,2.06-0.36,3.46-0.36c0.33,0,0.83,0.02,1.49,0.07c0.95,0.07,1.83,0.23,2.64,0.5c0.77,0.33,1.4,0.9,1.88,1.7
		C123.24,9.93,123.48,10.82,123.48,11.81z"/>
	<path d="M136.98,1.42v5.05l0.03,1.85c1.43-0.04,3.2-0.12,5.31-0.23c0.13,0.18,0.2,0.51,0.2,0.99l-0.03,0.76
		c-0.04,0.48-0.06,0.84-0.03,1.06c-2.4,0-4.19-0.01-5.38-0.03v5.05v1.12c0,0.99,0.02,1.69,0.07,2.11c0.04,0.42,0.13,0.78,0.26,1.09
		c0.35,0.44,1.06,0.71,2.13,0.83c1.07,0.11,2.04,0.14,2.92,0.1c0.11,0.88,0.17,1.44,0.17,1.68c0,0.4-0.06,0.79-0.17,1.19
		c-0.46,0.02-1.19,0.03-2.18,0.03c-1.72,0-3.06-0.21-4.03-0.63c-0.97-0.42-1.58-1.25-1.85-2.51c-0.24-2.13-0.36-4.92-0.36-8.35
		v-1.58c-0.13,0.02-0.46,0.03-0.99,0.03l-2.51-0.03l0.1-2.71c0.48,0.04,1.64,0.07,3.46,0.07l-0.03-3.46V3.33
		c0-0.92,0.02-1.57,0.07-1.95c0.31-0.02,0.78-0.01,1.42,0.03l0.89,0.03C136.7,1.45,136.87,1.44,136.98,1.42z"/>
	<path d="M147.08,6.34v2.94c0.59-0.51,1.12-0.89,1.57-1.14c0.45-0.25,1.12-0.41,2-0.48c0.53-0.07,1.02-0.1,1.48-0.1
		c1.61,0,2.86,0.38,3.76,1.16c0.29,0.24,0.48,0.81,0.59,1.72c0.11,0.9,0.17,2.09,0.17,3.56c0,0.84-0.02,2.16-0.07,3.96
		c-0.04,1.76-0.07,3.01-0.07,3.76c0,0.62,0.02,1.36,0.07,2.24c-0.88,0.13-1.83,0.18-2.84,0.13c-0.04-0.66-0.07-1.23-0.07-1.72v-1.98
		v-6.47c-0.04-1.41-0.37-2.32-0.99-2.74c-0.13-0.09-0.4-0.18-0.79-0.26c-0.46-0.13-0.94-0.2-1.42-0.2c-0.86,0-1.59,0.21-2.19,0.64
		c-0.6,0.43-1,1.09-1.17,2c-0.15,0.84-0.23,1.84-0.23,3l0.03,1.12c0.04,1.45,0.07,2.65,0.07,3.6c0,1.19-0.02,2.1-0.07,2.74v0.13
		c-0.44,0.11-0.79,0.17-1.06,0.17l-0.99-0.03c-0.31,0-0.56,0.01-0.76,0.03c0-2.53-0.01-4.62-0.03-6.27l-0.03-10.1
		c0-2.46,0.02-4.99,0.07-7.59c0.68,0.07,1.23,0.09,1.65,0.07c0.11,0,0.25-0.01,0.41-0.03c0.17-0.02,0.33-0.03,0.51-0.03
		c0.22,0,0.33,0.03,0.33,0.1c0.04,0.2,0.07,1.54,0.07,4.03V6.34z"/>
	<path d="M161.34,15.68v0.59l-0.03,0.96c0,2.73,1.34,4.09,4.03,4.09c1.08,0,1.88-0.25,2.39-0.74c0.52-0.5,0.78-1.17,0.78-2.03
		c0-0.13-0.02-0.37-0.07-0.73c0.46-0.07,0.89-0.1,1.29-0.1c0.35,0,0.62,0.01,0.79,0.03c0.13,0,0.29,0,0.48,0.02
		c0.19,0.01,0.4,0.01,0.64-0.02c0.02,1.25-0.02,2.25-0.13,3c-0.11,0.75-0.37,1.46-0.79,2.14c-0.4,0.59-1.08,1.02-2.06,1.27
		c-0.98,0.25-2.05,0.38-3.22,0.38c-0.53,0-1.02-0.02-1.47-0.07c-0.45-0.04-0.73-0.09-0.84-0.13c-1.72-0.29-2.96-1.37-3.73-3.25
		c-0.77-1.88-1.1-4.03-0.99-6.45c0.02-0.18,0.05-0.54,0.1-1.11c0.04-0.56,0.1-1.14,0.18-1.73c0.08-0.59,0.23-1.18,0.45-1.75
		c0.42-0.97,1.18-1.72,2.28-2.24s2.32-0.79,3.66-0.79c0.7,0,1.44,0.09,2.21,0.26c2.99,0.51,4.49,2.76,4.49,6.77
		c0,0.33-0.02,0.8-0.07,1.42c-0.42,0.13-1.65,0.24-3.7,0.33c-0.24,0.02-0.77,0.03-1.58,0.03c-1.74,0-3.02-0.02-3.86-0.07
		C162.01,15.77,161.6,15.74,161.34,15.68z M169.35,13.2c-0.02-0.68-0.19-1.35-0.51-2.01c-0.32-0.66-0.78-1.18-1.37-1.55
		c-0.33-0.15-0.62-0.25-0.86-0.3c-0.24-0.04-0.55-0.07-0.92-0.07c-1.43,0-2.45,0.3-3.05,0.89c-0.61,0.59-0.98,1.44-1.14,2.54
		c-0.04,0.26-0.07,0.44-0.07,0.53c0,0.26,0.13,0.44,0.38,0.53s0.8,0.13,1.63,0.13c0.81,0,1.51-0.01,2.08-0.03
		c2.11,0,3.3-0.01,3.56-0.03c0.11-0.02,0.18-0.05,0.21-0.08c0.03-0.03,0.05-0.09,0.05-0.18V13.2z"/>
	<path d="M180.97,0.03l3,0.1c0,0.9-0.02,3.13-0.07,6.7c-0.04,4.4-0.07,7.85-0.07,10.36c0,2.77,0.03,4.98,0.1,6.63
		c-0.13,0.15-0.5,0.23-1.09,0.23l-1.02-0.03c-0.2-0.02-0.44-0.03-0.73-0.03c-0.18,0-0.29,0.01-0.33,0.03
		c0.13-1.78,0.2-3.58,0.2-5.38c0-1.36-0.04-3.41-0.13-6.14c-0.09-2.73-0.13-4.79-0.13-6.17C180.71,4,180.79,1.9,180.97,0.03z"/>
	<path d="M189.38,15.68v0.59l-0.03,0.96c0,2.73,1.34,4.09,4.03,4.09c1.08,0,1.88-0.25,2.39-0.74c0.52-0.5,0.78-1.17,0.78-2.03
		c0-0.13-0.02-0.37-0.07-0.73c0.46-0.07,0.89-0.1,1.29-0.1c0.35,0,0.62,0.01,0.79,0.03c0.13,0,0.29,0,0.48,0.02
		c0.19,0.01,0.4,0.01,0.64-0.02c0.02,1.25-0.02,2.25-0.13,3s-0.37,1.46-0.79,2.14c-0.4,0.59-1.08,1.02-2.06,1.27
		c-0.98,0.25-2.05,0.38-3.22,0.38c-0.53,0-1.02-0.02-1.47-0.07c-0.45-0.04-0.73-0.09-0.84-0.13c-1.72-0.29-2.96-1.37-3.73-3.25
		c-0.77-1.88-1.1-4.03-0.99-6.45c0.02-0.18,0.05-0.54,0.1-1.11c0.04-0.56,0.1-1.14,0.18-1.73s0.23-1.18,0.45-1.75
		c0.42-0.97,1.18-1.72,2.28-2.24c1.1-0.53,2.32-0.79,3.66-0.79c0.7,0,1.44,0.09,2.21,0.26c2.99,0.51,4.49,2.76,4.49,6.77
		c0,0.33-0.02,0.8-0.07,1.42c-0.42,0.13-1.65,0.24-3.7,0.33c-0.24,0.02-0.77,0.03-1.58,0.03c-1.74,0-3.03-0.02-3.86-0.07
		C190.06,15.77,189.65,15.74,189.38,15.68z M197.4,13.2c-0.02-0.68-0.19-1.35-0.51-2.01c-0.32-0.66-0.78-1.18-1.37-1.55
		c-0.33-0.15-0.62-0.25-0.86-0.3c-0.24-0.04-0.55-0.07-0.92-0.07c-1.43,0-2.45,0.3-3.05,0.89c-0.61,0.59-0.99,1.44-1.14,2.54
		c-0.04,0.26-0.07,0.44-0.07,0.53c0,0.26,0.13,0.44,0.38,0.53s0.8,0.13,1.63,0.13c0.81,0,1.51-0.01,2.08-0.03
		c2.11,0,3.3-0.01,3.56-0.03c0.11-0.02,0.18-0.05,0.21-0.08s0.05-0.09,0.05-0.18V13.2z"/>
	<path d="M212.09,7.46c0.51-0.02,1.16,0,1.95,0.07l0.86,0.07c0.04,0.35,0.07,0.62,0.07,0.79v0.33c-0.02,0.51-0.03,1.26-0.03,2.28
		c0,0.84,0.02,2.07,0.07,3.7l0.03,3.7c0,1.58-0.04,3.02-0.13,4.32c0,0.07,0,0.21,0,0.43s-0.02,0.42-0.07,0.59s-0.17,0.29-0.36,0.33
		h-0.56l-1.06-0.03c-0.18,0-0.33,0.01-0.46,0.03c-0.13,0.02-0.25,0.03-0.36,0.03c-0.22-0.07-0.33-0.31-0.33-0.73
		c-0.02-0.18-0.02-0.37,0.02-0.59s0.05-0.41,0.05-0.56c-0.53,0.73-1.36,1.22-2.51,1.49s-2.27,0.4-3.37,0.4
		c-1.06,0-1.95-0.47-2.69-1.4c-0.74-0.93-1.28-2.08-1.63-3.45c-0.35-1.36-0.53-2.69-0.53-3.99c0-1.43,0.24-2.72,0.73-3.86
		c0.48-1.14,1.15-2.05,2-2.72c0.85-0.67,1.79-1.02,2.82-1.04l1.06-0.03c0.99,0,1.81,0.12,2.46,0.35c0.65,0.23,1.13,0.66,1.44,1.27
		c0-0.2,0.02-0.45,0.07-0.76c0.04-0.44,0.07-0.75,0.07-0.92C211.66,7.48,211.8,7.46,212.09,7.46z M208.39,10.43
		c-1.14-0.02-2.11,0.27-2.89,0.87c-0.78,0.61-1.26,1.33-1.44,2.16c-0.18,0.64-0.26,1.5-0.26,2.57c0.11,3.54,1.54,5.24,4.29,5.08
		c1.12,0,1.94-0.2,2.44-0.59c0.51-0.4,0.82-0.96,0.94-1.68c0.12-0.73,0.18-1.82,0.18-3.27c0-1.58-0.07-2.7-0.2-3.35
		c-0.13-0.65-0.41-1.09-0.84-1.34C210.19,10.65,209.45,10.49,208.39,10.43z"/>
	<path d="M222.48,11.72v12.21c-0.33-0.02-0.71-0.01-1.16,0.03l-0.79,0.03c-0.35,0-0.64-0.02-0.86-0.07
		c-0.09-0.53-0.13-2.44-0.13-5.74l0.03-3.99c0.02-0.66,0.03-1.49,0.03-2.47c-0.24,0.02-0.73,0.03-1.45,0.03
		c-0.2-0.02-0.48-0.03-0.86-0.03c-0.33,0-0.57,0.01-0.73,0.03l-0.1-2.84c1.63,0,2.65,0.01,3.07,0.03l-0.03-1.32
		c0-1.65,0.26-3.04,0.78-4.16c0.52-1.12,1.51-1.78,2.99-1.98c1.21-0.11,2.51-0.17,3.89-0.17h1.29c0.13,0.42,0.2,0.86,0.2,1.32
		c0,0.24-0.06,0.8-0.17,1.68c-0.37-0.02-1.61,0.01-3.7,0.1c-0.7,0.04-1.19,0.1-1.45,0.18c-0.26,0.08-0.46,0.28-0.59,0.61
		c-0.13,0.33-0.2,0.91-0.2,1.75c0,0.29,0.02,0.98,0.07,2.08c1.3-0.02,3.23-0.03,5.81-0.03c-0.02,0.09-0.05,0.45-0.1,1.09
		c0,0.66-0.02,1.24-0.07,1.75l-3.79-0.1L222.48,11.72z"/>
	<path d="M236.8,0.03l3,0.1c0,0.9-0.02,3.13-0.07,6.7c-0.04,4.4-0.07,7.85-0.07,10.36c0,2.77,0.03,4.98,0.1,6.63
		c-0.13,0.15-0.5,0.23-1.09,0.23l-1.02-0.03c-0.2-0.02-0.44-0.03-0.73-0.03c-0.18,0-0.29,0.01-0.33,0.03
		c0.13-1.78,0.2-3.58,0.2-5.38c0-1.36-0.04-3.41-0.13-6.14c-0.09-2.73-0.13-4.79-0.13-6.17C236.54,4,236.63,1.9,236.8,0.03z"/>
	<path d="M242.38,13.3c0-0.81,0.04-1.52,0.12-2.11s0.27-1.33,0.58-2.21c0.29-0.64,0.9-1.12,1.83-1.44c0.93-0.32,1.97-0.48,3.12-0.48
		c0.15,0.02,0.37,0.03,0.66,0.03L250,7.06c1.85,0,3.27,0.48,4.26,1.45c0.4,0.26,0.7,0.76,0.91,1.48c0.21,0.73,0.34,1.7,0.38,2.92
		s0.07,1.93,0.07,2.13c-0.09,2.2-0.19,3.95-0.31,5.25c-0.12,1.3-0.37,2.13-0.74,2.51c-0.42,0.59-1,1-1.73,1.22s-1.61,0.33-2.62,0.33
		c-0.4,0-0.99-0.02-1.78-0.07l-1.52-0.03c-1.3-0.22-2.27-0.69-2.92-1.42c-0.65-0.73-1.07-1.57-1.25-2.54
		c-0.19-0.97-0.28-2.13-0.28-3.5v-1.72C242.45,14.27,242.43,13.67,242.38,13.3z M249.11,10.16c-1.5,0-2.57,0.39-3.23,1.16
		c-0.29,0.35-0.47,0.8-0.54,1.34s-0.1,1.24-0.08,2.09c-0.02,0.33-0.02,0.77,0.02,1.32c0.03,0.55,0.05,0.98,0.05,1.29l0.07,1.39
		c0.07,0.88,0.31,1.5,0.74,1.87c0.43,0.36,0.97,0.61,1.63,0.74c0.44,0.07,0.89,0.1,1.35,0.1c0.86,0,1.61-0.15,2.24-0.46
		c0.64-0.31,1.04-0.81,1.22-1.52c0.09-0.57,0.13-1.02,0.13-1.35c0.11-1.54,0.17-2.58,0.17-3.13c0-1.45-0.26-2.62-0.79-3.5
		S250.57,10.16,249.11,10.16z"/>
	<path d="M257.17,13.3c0-0.81,0.04-1.52,0.12-2.11s0.27-1.33,0.58-2.21c0.29-0.64,0.9-1.12,1.83-1.44c0.93-0.32,1.97-0.48,3.12-0.48
		c0.15,0.02,0.37,0.03,0.66,0.03l1.32-0.03c1.85,0,3.27,0.48,4.26,1.45c0.4,0.26,0.7,0.76,0.91,1.48c0.21,0.73,0.34,1.7,0.38,2.92
		s0.07,1.93,0.07,2.13c-0.09,2.2-0.19,3.95-0.31,5.25c-0.12,1.3-0.37,2.13-0.74,2.51c-0.42,0.59-1,1-1.73,1.22s-1.61,0.33-2.62,0.33
		c-0.4,0-0.99-0.02-1.78-0.07l-1.52-0.03c-1.3-0.22-2.27-0.69-2.92-1.42c-0.65-0.73-1.07-1.57-1.25-2.54
		c-0.19-0.97-0.28-2.13-0.28-3.5v-1.72C257.23,14.27,257.21,13.67,257.17,13.3z M263.9,10.16c-1.5,0-2.57,0.39-3.23,1.16
		c-0.29,0.35-0.47,0.8-0.54,1.34s-0.1,1.24-0.08,2.09c-0.02,0.33-0.02,0.77,0.02,1.32c0.03,0.55,0.05,0.98,0.05,1.29l0.07,1.39
		c0.07,0.88,0.31,1.5,0.74,1.87c0.43,0.36,0.97,0.61,1.63,0.74c0.44,0.07,0.89,0.1,1.35,0.1c0.86,0,1.61-0.15,2.24-0.46
		c0.64-0.31,1.04-0.81,1.22-1.52c0.09-0.57,0.13-1.02,0.13-1.35c0.11-1.54,0.17-2.58,0.17-3.13c0-1.45-0.26-2.62-0.79-3.5
		S265.35,10.16,263.9,10.16z"/>
	<path d="M275.32,6.07c0,1.17-0.01,2.15-0.03,2.94l-0.03,2.38c0,0.44,0.02,0.88,0.07,1.32c1.12-0.84,2.02-1.56,2.71-2.16
		c0.68-0.6,1.5-1.35,2.44-2.23c0.62-0.62,1.09-1.07,1.42-1.35c0.37,0.09,0.87,0.13,1.49,0.13c0.46,0,0.8-0.01,1.02-0.03
		c0.15,0,0.32,0,0.51-0.02c0.19-0.01,0.38,0,0.58,0.02c-1.3,1.12-2.59,2.32-3.86,3.6c-1.34,1.34-2.73,2.62-4.16,3.83
		c1.63,1.69,2.89,3.05,3.79,4.08c0.9,1.02,1.9,2.23,3,3.61l1.52,1.85c-0.18,0-0.55,0.02-1.12,0.07c-0.62,0.04-1.11,0.07-1.49,0.07
		c-0.26,0-0.59-0.02-0.99-0.07c-0.35-0.4-0.81-0.97-1.39-1.72c-0.73-0.92-1.46-1.8-2.21-2.64s-1.84-1.89-3.27-3.17
		c0,0.62,0.01,1.14,0.03,1.58l0.03,2.51l-0.03,3.33c-0.22-0.02-0.61-0.01-1.16,0.03l-1.09,0.03c-0.33,0-0.56-0.01-0.69-0.03
		c-0.09-2.31-0.13-4.87-0.13-7.69c0-1.67,0.02-4.18,0.07-7.52c0.04-3.39,0.07-5.92,0.07-7.59V0.07c0.44,0,0.78-0.01,1.02-0.03
		L274.62,0c0.33,0,0.56,0.01,0.69,0.03V6.07z"/>
	<path d="M294.12,0.03l3,0.1c0,0.9-0.02,3.13-0.07,6.7c-0.04,4.4-0.07,7.85-0.07,10.36c0,2.77,0.03,4.98,0.1,6.63
		c-0.13,0.15-0.5,0.23-1.09,0.23l-1.02-0.03c-0.2-0.02-0.44-0.03-0.73-0.03c-0.18,0-0.29,0.01-0.33,0.03
		c0.13-1.78,0.2-3.58,0.2-5.38c0-1.36-0.04-3.41-0.13-6.14c-0.09-2.73-0.13-4.79-0.13-6.17C293.86,4,293.95,1.9,294.12,0.03z"/>
	<path d="M300.99,7.36c0.15-0.02,0.46-0.02,0.92,0c0.66,0.04,1.39,0.07,2.18,0.07v0.1c0,0.99-0.02,2.52-0.07,4.59
		c-0.07,2.11-0.1,4.25-0.1,6.4c0,2.02,0.04,3.83,0.13,5.41c-0.31,0.07-0.77,0.1-1.39,0.1s-0.99,0-1.12,0c-0.4,0-0.64,0.01-0.73,0.03
		c0.02-0.64,0.03-1.61,0.03-2.9v-2.97v-2.77c-0.04-1.54-0.07-2.73-0.07-3.56c0-1.52,0.07-3,0.2-4.46V7.36z M300.86,0.26
		c1.36,0.04,2.4,0.07,3.1,0.07l0.1,4.36c-0.22,0.11-0.62,0.17-1.19,0.17c-0.35,0-0.62-0.01-0.79-0.03c-0.13,0-0.29,0-0.46-0.02
		c-0.18-0.01-0.38,0-0.63,0.02c0-0.33-0.02-0.87-0.07-1.62C300.86,1.75,300.83,0.77,300.86,0.26z"/>
	<path d="M309.9,6.07c0,1.17-0.01,2.15-0.03,2.94l-0.03,2.38c0,0.44,0.02,0.88,0.07,1.32c1.12-0.84,2.02-1.56,2.71-2.16
		c0.68-0.6,1.5-1.35,2.44-2.23c0.62-0.62,1.09-1.07,1.42-1.35c0.37,0.09,0.87,0.13,1.49,0.13c0.46,0,0.8-0.01,1.02-0.03
		c0.15,0,0.32,0,0.51-0.02c0.19-0.01,0.38,0,0.58,0.02c-1.3,1.12-2.59,2.32-3.86,3.6c-1.34,1.34-2.73,2.62-4.16,3.83
		c1.63,1.69,2.89,3.05,3.79,4.08c0.9,1.02,1.9,2.23,3,3.61l1.52,1.85c-0.18,0-0.55,0.02-1.12,0.07c-0.62,0.04-1.11,0.07-1.49,0.07
		c-0.26,0-0.59-0.02-0.99-0.07c-0.35-0.4-0.81-0.97-1.39-1.72c-0.73-0.92-1.46-1.8-2.21-2.64s-1.84-1.89-3.27-3.17
		c0,0.62,0.01,1.14,0.03,1.58l0.03,2.51l-0.03,3.33c-0.22-0.02-0.61-0.01-1.16,0.03l-1.09,0.03c-0.33,0-0.56-0.01-0.69-0.03
		c-0.09-2.31-0.13-4.87-0.13-7.69c0-1.67,0.02-4.18,0.07-7.52c0.04-3.39,0.07-5.92,0.07-7.59V0.07c0.44,0,0.78-0.01,1.02-0.03
		L309.21,0c0.33,0,0.56,0.01,0.69,0.03V6.07z"/>
	<path d="M322.87,15.68v0.59l-0.03,0.96c0,2.73,1.34,4.09,4.03,4.09c1.08,0,1.88-0.25,2.39-0.74c0.52-0.5,0.78-1.17,0.78-2.03
		c0-0.13-0.02-0.37-0.07-0.73c0.46-0.07,0.89-0.1,1.29-0.1c0.35,0,0.62,0.01,0.79,0.03c0.13,0,0.29,0,0.48,0.02
		c0.19,0.01,0.4,0.01,0.64-0.02c0.02,1.25-0.02,2.25-0.13,3s-0.37,1.46-0.79,2.14c-0.4,0.59-1.08,1.02-2.06,1.27
		c-0.98,0.25-2.05,0.38-3.22,0.38c-0.53,0-1.02-0.02-1.47-0.07c-0.45-0.04-0.73-0.09-0.84-0.13c-1.72-0.29-2.96-1.37-3.73-3.25
		c-0.77-1.88-1.1-4.03-0.99-6.45c0.02-0.18,0.05-0.54,0.1-1.11c0.04-0.56,0.1-1.14,0.18-1.73s0.23-1.18,0.45-1.75
		c0.42-0.97,1.18-1.72,2.28-2.24c1.1-0.53,2.32-0.79,3.66-0.79c0.7,0,1.44,0.09,2.21,0.26c2.99,0.51,4.49,2.76,4.49,6.77
		c0,0.33-0.02,0.8-0.07,1.42c-0.42,0.13-1.65,0.24-3.7,0.33c-0.24,0.02-0.77,0.03-1.58,0.03c-1.74,0-3.03-0.02-3.86-0.07
		C323.54,15.77,323.13,15.74,322.87,15.68z M330.89,13.2c-0.02-0.68-0.19-1.35-0.51-2.01c-0.32-0.66-0.78-1.18-1.37-1.55
		c-0.33-0.15-0.62-0.25-0.86-0.3c-0.24-0.04-0.55-0.07-0.92-0.07c-1.43,0-2.45,0.3-3.05,0.89c-0.61,0.59-0.99,1.44-1.14,2.54
		c-0.04,0.26-0.07,0.44-0.07,0.53c0,0.26,0.13,0.44,0.38,0.53s0.8,0.13,1.63,0.13c0.81,0,1.51-0.01,2.08-0.03
		c2.11,0,3.3-0.01,3.56-0.03c0.11-0.02,0.18-0.05,0.21-0.08s0.05-0.09,0.05-0.18V13.2z"/>
	<path d="M339.53,17.36l0.07-1.06c0.15-0.92,0.4-1.74,0.73-2.46c0.33-0.71,0.85-1.51,1.55-2.39c0.66-0.77,1.18-1.46,1.57-2.08
		c0.38-0.62,0.64-1.25,0.78-1.91c0.04-0.26,0.07-0.46,0.07-0.59c0-0.9-0.35-1.62-1.06-2.16s-1.65-0.76-2.84-0.68
		c-0.92-0.02-1.61,0.23-2.06,0.74c-0.45,0.52-0.85,1.24-1.2,2.16c-0.13,0.35-0.23,0.59-0.3,0.73l-0.66,0.03
		c-0.31,0-0.77-0.02-1.39-0.07l-0.79-0.03V7.56c0.07-1.12,0.38-2.2,0.94-3.23c0.56-1.03,1.33-1.89,2.29-2.56
		c0.97-0.67,2.06-1.03,3.27-1.07c0.15-0.02,0.37-0.03,0.66-0.03c1.19,0,2.28,0.25,3.27,0.76c0.99,0.51,1.78,1.2,2.38,2.08
		c0.59,0.88,0.89,1.87,0.89,2.97c0,1.08-0.2,1.98-0.61,2.71c-0.41,0.73-1.02,1.54-1.83,2.44c-0.53,0.57-0.9,1.01-1.12,1.32
		c-0.48,0.66-0.86,1.29-1.12,1.88s-0.45,1.27-0.56,2.01c-0.02,0.15-0.04,0.31-0.07,0.48c-0.02,0.17-0.03,0.34-0.03,0.51
		c0,0.13,0.01,0.22,0.03,0.26v0.03c-0.26,0.04-0.67,0.07-1.22,0.07c-0.18,0-0.39,0-0.64-0.02c-0.25-0.01-0.54,0-0.88,0.02h-0.03
		c-0.04-0.09-0.07-0.25-0.07-0.5V17.36z M342.01,24.02h-2.38h-0.1c-0.07-0.4-0.1-0.9-0.1-1.52l0.03-1.62
		c0.02-0.2,0.03-0.43,0.03-0.69c0.37-0.15,0.89-0.23,1.55-0.23c0.46,0,0.87,0.04,1.22,0.13c0,0.11-0.03,0.7-0.1,1.78
		c-0.07,1.08-0.1,1.77-0.1,2.08v0.07H342.01z"/>
</g>
</svg>
