<!-- Generator: Adobe Illustrator 23.1.1, SVG Export Plug-In  -->
<svg version="1.1" xmlns="http://www.w3.org/2000/svg" xmlns:xlink="http://www.w3.org/1999/xlink" x="0px" y="0px"
	 width="172.78px" height="102.01px" viewBox="0 0 172.78 102.01" style="enable-background:new 0 0 172.78 102.01;"
	 xml:space="preserve">
<style type="text/css">
	.st0{fill:#AFBB79;}
	.st1{fill:#97A065;}
	.st2{fill:none;stroke:#000000;stroke-miterlimit:10;}
</style>
<defs>
</defs>
<g>
	<g>
		<path class="st0" d="M80.19,47.51c0,0,19,16,51,25s37,10,37,10s-17-39-86-38L80.19,47.51z"/>
		<path class="st1" d="M88.12,47.33c17.8,10.6,40.25,11.31,59.52,19.69c3.59,1.56,5.91,3.82,8.99,5.91"/>
	</g>
	<g>
		<path class="st0" d="M82.19,47.51c0,0,14-25-18-45c0,0-1,21,11,39L82.19,47.51z"/>
		<path class="st0" d="M81.16,43.54c0,0-31.3-29.76-81.16-26.04c0,0,25.94,25.14,77.39,29.33L81.16,43.54z"/>
		<path class="st1" d="M73.16,43.34c-10-5.49-21.72-8.57-32.42-12.48c-7.09-2.59-14.19-4.82-21.11-7.18
			c-3.11-1.06-5.95-1.91-8.99-2.62"/>
	</g>
	<g>
		<path class="st0" d="M77.69,50.01c0,0-10,26,8,52c0,0,19-17-4-54L77.69,50.01z"/>
		<path class="st1" d="M78.81,50.66c2.02,5.48,4.81,9.81,5.65,15.82c0.83,5.98,1.04,12.36,1.33,18.17c0.17,3.28,0,6.62,0,9.9"/>
	</g>
</g>
<path class="st2" d="M171.94,80.88c0,0-16.8-38.5-84.71-38.01c2.56-7.23,6.02-26.17-19.29-41.99c0,0-0.83,17.47,8.13,34.2
	C63.46,26.53,37.98,13.31,3.75,15.86c0,0,25.94,25.14,77.39,29.33l1.98-1.73l1.55,1.33l-0.73,1.09c0,0,0.33,0.28,0.96,0.77
	l-3.46,1.73c0,0-10,26,8,52c0,0,18.56-16.62-3.23-52.74c5.91,4.4,23.17,16.05,48.73,23.24C166.94,79.88,171.94,80.88,171.94,80.88z"
	/>
</svg>
