<!-- Generator: Adobe Illustrator 23.1.1, SVG Export Plug-In  -->
<svg version="1.1" xmlns="http://www.w3.org/2000/svg" xmlns:xlink="http://www.w3.org/1999/xlink" x="0px" y="0px"
	 width="136.68px" height="133.74px" viewBox="0 0 136.68 133.74" style="enable-background:new 0 0 136.68 133.74;"
	 xml:space="preserve">
<style type="text/css">
	.st0{fill:#A7B93B;}
	.st1{fill:#AF8264;}
	.st2{fill:#BDC661;stroke:#020202;stroke-width:0.25;stroke-miterlimit:10;}
	.st3{fill:none;stroke:#020202;stroke-width:0.25;stroke-miterlimit:10;}
	.st4{fill:none;stroke:#000000;stroke-width:0.5;stroke-miterlimit:10;}
	.st5{fill:#A6B83B;}
	.st6{fill:#CAD381;}
	.st7{fill:none;stroke:#000000;stroke-width:0.25;stroke-miterlimit:10;}
	.st8{fill:#AF8264;stroke:#000000;stroke-width:0.25;stroke-miterlimit:10;}
	.st9{fill:#BB3E3D;}
	.st10{fill:#FFFFFF;}
	.st11{fill:#36362B;}
	.st12{fill:#985959;}
	.st13{fill:#A9B846;}
</style>
<defs>
</defs>
<path class="st0" d="M80.37,59.78c0.31-0.39,0.65-0.82,0.94-1.16c0.06-0.07,0.05-0.22,0.14-0.33c0.04-0.05,0.3-0.03,0.4-0.11
	c0.13-0.11,0.33-0.5,0.42-0.65c0.13-0.24,0.16-0.48,0.37-0.67c0.09-0.08,0.32-0.01,0.41-0.12c0.14-0.16,0.05-0.38,0.14-0.55
	c0.13-0.25,0.43-0.38,0.55-0.67c0.15-0.34,0.07-0.65,0.24-0.99c0.22-0.44,0.52-0.87,0.75-1.3c0.3-0.56,0.82-0.88,1.33-1.33
	c0.43-0.38,0.79-0.84,1.22-1.24c0.36-0.33,0.97-0.5,1.27-0.81c0.21-0.22,0.23-0.46,0.46-0.67c0.19-0.17,0.45-0.39,0.67-0.56
	c0.25-0.19,0.41-0.3,0.6-0.52c0.24-0.27,0.48-0.7,0.88-0.52c0.1-0.58,1.21-1.09,1.66-1.37c0.77-0.48,1.41-1.16,2.02-1.96
	c0.13,0.06,1.06-0.49,1.33-0.59c1.2-0.44,2.21-0.98,3.3-1.67c0.57,0.29,1.59-1.01,2.11-0.55c0.59-0.31,1.07-0.57,1.71-0.83
	c0.42,0.42,1.12-0.68,1.72-0.61c0.17,0.34,0.56-0.01,0.83-0.06c0.15,0.31,1.22-0.28,1.5-0.39c0.01,0.05,0,0.1,0.01,0.15
	c0.47,0.03,3.18-0.77,3.27-0.5c0.55-0.08,1.93-0.77,2.05,0.06c0.46-0.09,2.59-0.78,2.82-0.06c0.21-0.04,0.43-0.18,0.61-0.32
	c0.28,0.13,0.65-0.11,0.91-0.23c0.11,0.56,0.37,0.25,0.68,0.34c0.3,0.08,0.38,0.2,0.78,0.21c0.82,0.04,1.44-0.01,2.19,0.25
	c0.37,0.13,0.55,0.46,0.97,0.56c0.17,0.04,0.37,0.03,0.54,0.06c0.39,0.06,0.96,0.23,1.26,0.25c0.4,0.02,1.28-0.37,1.46-0.12
	c0.52-0.16,1.03-0.32,1.52-0.28c0.41,0.04,0.8,0.16,1.27,0.17c0.86,0.01,1.56-0.26,2.34,0c0.9,0.3,1.72,0.33,2.68,0.33
	c0.58,0,1.42,0.08,1.93-0.16c-0.16,0.2-0.31,0.58-0.44,0.73c-0.21,0.25-0.55,0.37-0.79,0.59c-0.51,0.47-0.36,1.04-0.71,1.55
	c0.1-0.04,0.24-0.02,0.33-0.04c-0.26,0.61-0.95,1.13-0.78,1.81c-0.51,0.25-0.8,1.05-0.94,1.54c-0.06,0.21-0.11,0.49-0.23,0.69
	c-0.11,0.19-0.36,0.27-0.44,0.47c-0.04,0.1,0.03,0.25,0,0.36c-0.06,0.28-0.11,0.54-0.25,0.81c-0.15,0.29-0.46,0.48-0.6,0.76
	c-0.12,0.22,0,0.46-0.08,0.7c-0.05,0.15-0.3,0.5-0.39,0.66c-0.62,1.19-1.23,2.42-1.97,3.53c-0.36,0.53-0.64,1.01-1.1,1.48
	c-0.51,0.51-1.06,1-1.6,1.51c-0.74,0.7-1.41,1.4-2.25,2c-0.72,0.52-1.24,1.06-2.19,1.31c0.06,0.38-0.43,0.46-0.69,0.63
	c-0.12,0.07-0.11,0.24-0.24,0.32c-0.26,0.14-0.61,0.07-0.89,0.22c0.03,0.07,0.04,0.15,0.06,0.21c-0.76,0.18-1.48,0.47-2.23,0.71
	c-0.36,0.11-0.84,0.12-1.16,0.26c-0.36,0.16-0.8,0.56-1.16,0.68c-0.52,0.17-1.04,0.38-1.57,0.52c-0.89,0.22-1.22,0.28-1.87,0.91
	c-0.46,0.44-1.07,0.49-1.73,0.53c-0.47,0.03-0.88-0.1-1.3,0.06c-0.57,0.21-1,0.4-1.58,0.55c-0.67,0.17-1.36,0.32-2.06,0.44
	c-0.82,0.14-1.54,0.63-2.39,0.62c-0.53-0.01-0.78-0.05-1.3,0.06c-0.57,0.12-1.48,0.23-2.03,0.17c-0.36-0.04-0.65-0.08-1.03-0.11
	c-0.38-0.03-0.71-0.23-1.08-0.31c-0.4-0.08-0.87,0.07-1.25-0.03c-0.57-0.14-1.05-0.6-1.57-0.84c-0.59-0.27-1.24-0.08-1.85-0.39
	c-0.52-0.26-0.98-0.67-1.55-0.78c-0.44-0.09-0.87-0.09-1.31-0.22c-0.48-0.15-0.69-0.38-1.15-0.61c-0.4-0.2-0.87-0.27-1.25-0.4
	c-0.24-0.08-0.32-0.13-0.6-0.29c-0.3-0.17-0.57-0.13-0.82-0.25c-0.21-0.1-0.31-0.33-0.55-0.4c-0.2-0.05-0.42,0.13-0.61,0.07
	c-0.51-0.16-0.86-1.03-1.32-1.39c-0.41-0.33-0.79-0.6-1.17-0.94C80.72,60.43,80.64,60.13,80.37,59.78z"/>
<path class="st0" d="M43.31,35.95c-0.25-0.91,0.23-1.59,1.15-1.71c-0.23-0.09-0.59-0.48-0.8-0.58c1.3-0.28,1.8-2.72,2.34-3.87
	c0.63-1.32,0.68-2.91,1.33-4.27c0.66-1.39,1.62-2.58,2.27-3.97c0.69-1.48,1.5-2.79,2.52-4.12c0.83-1.1,3.97-3.13,3.85-4.23
	c0.68-0.09,1.22-0.46,1.78-0.72c0.24-0.51,0.55-1,0.89-1.44c0.32,0.07,0.79-0.12,1.11-0.06c0.03-0.3,0.2-0.46,0.22-0.78
	c1.15,0.45,1.62-0.67,2.14-1.52c0.82,0.13,1.72-0.57,2.41-0.85c1.06-0.43,1.31-1.11,2.08-1.61c1.18-0.77,4.52-0.49,4.52-2.8
	c4.12-0.99,8.66-2.18,12.94-3.05c1.84-0.37,4.46-0.43,6.31-0.33c2.52,0.14,4.82,1.03,7.49,1.16c2.41,0.11,5.33,0.17,7.45-0.64
	c0.05,0.25,0.05,0.53,0,0.78c-0.84,0.25-1.51,0.4-2.18,0.98c-0.58,0.51-0.64,1.28-1.43,1.57c0.03,0.6-0.16,1.2-0.54,1.63
	c0.29,1.02-1.28,2.45-2,3.22c-0.32,0.34-0.98,0.81-1.21,1.2c-0.44,0.73,0.38,1.6-0.9,1.59c0.08,0.32-0.03,0.49,0.16,0.81
	c-0.07,0.06-0.45,0.32-0.49,0.36c0.05,0.64-0.12,1.23-0.67,1.5c0.11,1.06-0.78,1-1.2,1.8c-0.31,0.58,0.7,1.05-0.5,1.67
	c0.88,1.71-3.59,4.78-4.54,6.16c-1.46,2.12-3.63,3.25-5.59,5.07c-0.99,0.91-3.72,2.88-5.3,2.6c0.21,0.99-0.33,1.57-1.33,1.33
	c-0.04,0.64-0.01,1.31-0.05,1.94c-1.66-0.17-2.17,0.18-3.49,0.83c-2.02-0.19-3.63,1.46-5.37,2.03c-0.48,0.16-1.19,0.03-1.62,0.15
	c-0.45,0.13-0.97,0.53-1.46,0.72c-0.48,0.18-1.04,0.08-1.49,0.2c-0.76,0.21-0.5,1.22-1.64,0.44c-0.11,0.16-0.14,0.28-0.23,0.44
	c-1.81,0.08-3.64,0.48-5.36,0.66c-1.85,0.19-3.65,0.06-5.64,0.05c-1.73-0.01-3.53-0.07-5.14-0.72
	C44.96,39.1,43.73,37.49,43.31,35.95z"/>
<path class="st1" d="M9.33,38.45c0,0,47,2,79,43c0,0-35.5-38.5-78.5-41.5L9.33,38.45z"/>
<path class="st2" d="M27.33,41.45c0,0,30-8,40-18s37-22,37-22c-0.09-0.92-34,18-39,25c-3.72,5.21-36,16-36,16L27.33,41.45z"/>
<path class="st3" d="M50.37,24.89c-0.01,1.47-0.05,3.03-0.32,4.42c-0.31,1.6-1.23,2.75-1.01,4.39"/>
<path class="st3" d="M49.04,35.03c1.04,1.43,5.23,1.17,6.9,1.48c1.97,0.36,4.14-0.31,6.23-0.31"/>
<path class="st3" d="M55.03,30.71c-0.44-1.03,0.25-1.95,0.34-2.99c0.08-1-0.34-2.17-0.17-3.24c0.17-1.08,0.73-1.87,1.04-2.87
	c0.29-0.95,0.23-2.04,0.62-3.03"/>
<path class="st3" d="M56.03,32.04c1.67,0.39,3.54,0.86,5.32,0.58c1.47-0.23,3.6-0.58,4.99-1.08"/>
<path class="st3" d="M62.18,26.88c-0.93-1.26-0.25-5.4,0.15-6.91c0.3-1.15,0.33-2.03,0.52-3.23c0.16-1.02,0.88-1.9,1-2.99"/>
<path class="st3" d="M63.51,28.05c3.04,0.44,5.69-0.12,8.58-1.08c2.11-0.7,4.64-1.04,6.39-2.41"/>
<path class="st3" d="M66.83,22.89c0-2.38,0.83-3.64,1.33-5.82c0.45-1.97-0.17-4.01,1.5-5.49"/>
<path class="st3" d="M69,24.72c2.37-0.26,4.11-1.64,6.23-2.34c2.13-0.71,4.42-1.25,6.4-2.48"/>
<path class="st3" d="M73.65,18.24c-0.1-2.53,0.04-3.61,1.33-5.73c0.98-1.62,1.22-3.8,2.49-5.07"/>
<path class="st3" d="M75.31,18.07c3.62-0.89,7.54-1.91,10.64-3.99"/>
<path class="st3" d="M79.64,14.08c-0.72-1.94,1.55-3.29,2.41-4.82c0.72-1.29,1.1-3.18,2.24-4.16"/>
<path class="st3" d="M86.45,11.09c2.03,0,3.22-0.08,5-0.64c1.22-0.39,2.95-0.27,3.98-1.02"/>
<path class="st3" d="M86.79,9.59c-0.32-0.39,3.06-5.73,3.99-6.48"/>
<path class="st4" d="M43.91,36.37c-0.25-0.91,0.23-1.59,1.15-1.71c-0.23-0.09-0.59-0.48-0.8-0.58c1.3-0.28,1.8-2.72,2.34-3.87
	c0.63-1.32,0.68-2.91,1.33-4.27c0.66-1.39,1.62-2.58,2.27-3.97c0.69-1.48,1.5-2.79,2.52-4.12c0.83-1.1,3.97-3.13,3.85-4.23
	c0.68-0.09,1.22-0.46,1.78-0.72c0.24-0.51,0.55-1,0.89-1.44c0.32,0.07,0.79-0.12,1.11-0.06c0.03-0.3,0.2-0.46,0.22-0.78
	c1.15,0.45,1.62-0.67,2.14-1.52c0.82,0.13,1.72-0.57,2.41-0.85c1.06-0.43,1.31-1.11,2.08-1.61c1.18-0.77,4.52-0.49,4.52-2.8
	c4.12-0.99,8.66-2.18,12.94-3.05c1.84-0.37,4.46-0.43,6.31-0.33c2.52,0.14,4.82,1.03,7.49,1.16c2.41,0.11,5.33,0.17,7.45-0.64
	c0.05,0.25,0.05,0.53,0,0.78c-0.84,0.25-1.51,0.4-2.18,0.98c-0.58,0.51-0.64,1.28-1.43,1.57c0.03,0.6-0.16,1.2-0.54,1.63
	c0.29,1.02-1.28,2.45-2,3.22c-0.32,0.34-0.98,0.81-1.21,1.2c-0.44,0.73,0.38,1.6-0.9,1.59c0.08,0.32-0.03,0.49,0.16,0.81
	c-0.07,0.06-0.45,0.32-0.49,0.36c0.05,0.64-0.12,1.23-0.67,1.5c0.11,1.06-0.78,1-1.2,1.8c-0.31,0.58,0.7,1.05-0.5,1.67
	c0.88,1.71-3.59,4.78-4.54,6.16c-1.46,2.12-3.63,3.25-5.59,5.07c-0.99,0.91-3.72,2.88-5.3,2.6c0.21,0.99-0.33,1.57-1.33,1.33
	c-0.04,0.64-0.01,1.31-0.05,1.94c-1.66-0.17-2.17,0.18-3.49,0.83c-2.02-0.19-3.63,1.46-5.37,2.03c-0.48,0.16-1.19,0.03-1.62,0.15
	c-0.45,0.13-0.97,0.53-1.46,0.72c-0.48,0.18-1.04,0.08-1.49,0.2c-0.76,0.21-0.5,1.22-1.64,0.44c-0.11,0.16-0.14,0.28-0.23,0.44
	c-1.81,0.08-3.64,0.48-5.36,0.66c-1.85,0.19-3.65,0.06-5.64,0.05c-1.73-0.01-3.53-0.07-5.14-0.72
	C45.55,39.52,44.33,37.91,43.91,36.37z"/>
<path class="st4" d="M9.3,39.39c0,0,47,2,79,43c0,0-35.5-38.5-78.5-41.5L9.3,39.39z"/>
<g>
	<path class="st0" d="M62.7,68.91c0.03,0.44-0.28,0.61-0.32,0.95c-0.04,0.36,0.17,0.67,0.1,1.04c-0.1,0.6-0.55,0.95-0.46,1.65
		c-0.26-0.01-0.48,0.16-0.74,0.14c0.2,0.83,0.02,2.23-1.01,2.34c0.17,0.84,0.16,1.85-0.66,2.33c0.37,1.16-2.24,4.31-1.56,5.08
		c-0.36,0.28-0.72,0.66-0.36,1.02c-0.6,0.89-0.23,1.78-1.08,2.73c0.22,0.14,0.27,0.43,0.41,0.56c-0.64,0.41-0.01,0.72-0.09,1.24
		c-0.06,0.41-0.37,0.77-0.43,1.19c0.1,0.05,0.2,0.07,0.3,0.12c-0.11,0.68-0.3,1.48-0.19,2.21c0.06,0.01,0.12,0.03,0.19,0.04
		c-0.17,0.25-0.16,1.67-0.04,1.98c0.12,0.32,0.65,0.37,0.73,0.82c0.06,0.37-0.29,0.85-0.43,1.17c0.82,0.82,1.54,1.02,1.22,2.3
		c0.97,0.35,0.82,0.98,1.06,1.71c0.11,0.35,0.38,0.63,0.48,0.98c0.03,0.11-0.27,0.33-0.24,0.43c0.08,0.27,0.44,0.38,0.51,0.56
		c0.07,0.2,0.31,0.83,0.34,1c0.05,0.37-0.09,0.66-0.06,1.05c0.04,0.56-0.03,1.98,0.35,2.27c-0.6,0.62,0.1,1.12,0.39,1.66
		c0.4,0.76,0.29,1.08,0.29,1.98c0.49,0.18,1.09,2.32,1.31,2.9c0.11,0.3-0.04,0.56,0.14,0.86c0.12,0.22,0.52,0.09,0.64,0.3
		c0.3,0.52,0.21,1.08,0.23,1.71c0.18-0.07,0.57-0.01,0.75-0.08c0.02,0.53-0.05,1.16,0.12,1.61c0.19-0.2,0.36-0.17,0.54-0.28
		c-0.03,0.65,0.04,1.35,0.47,1.87c0.49-0.49,0.85,0.06,0.9,0.65c0.25-0.06,0.6,0.09,0.85,0.03c0.17,0.73,1.85,2.58,2.57,2.32
		c0.18,0.44,0.44,1.17,0.75,1.55c0.32,0.4,0.41,0.29,0.8,0.63c0.13,0.12,0.34,0.56,0.45,0.62c0.34,0.19,0.72,0.04,1.1,0.18
		c0.74,0.28,1.26,0.52,1.97,0.8c0.24,0.09,0.49,0.42,0.76,0.53c0.48,0.2,1.03,0.08,1.5,0.3c0.6,0.28,1.04,1.03,1.63,1.39
		c0.52,0.32,0.97,0.7,1.44,0.98c0.52,0.3,1.27,0.21,1.8,0.48c0.64,0.33,1.48,1.12,2.01,1.62c0.82,0.76,1.58,1.39,2.53,2
		c0.54,0.35,1,0.92,1.64,1.29c0.11-1-0.15-2.07-0.18-3.05c0.09-0.02,0.08,0.1,0.17,0.09c0.28-1.34,1-2.37,0.25-3.74
		c0.81-0.15,0.86-2.81,0.98-3.6c0.2-1.3,0.75-2.61,1.02-3.96c0.56-2.81,0.63-5.67,0.77-8.59c0.07-1.41-0.01-2.66-0.23-4.07
		c-0.22-1.4,0.04-2.96-0.15-4.24c-0.24-1.65-0.16-3.36-0.4-5.05c-0.08-0.53-0.06-1.37-0.23-1.86c-0.18-0.54-0.75-0.86-0.88-1.41
		c-0.11-0.43,0.08-0.9-0.05-1.33c-0.22-0.7-0.76-1.51-1.05-2.16c-0.37-0.84-0.96-1.63-1.4-2.44c-0.84-1.54-1.54-3.05-2.22-4.66
		c0.05-0.08,0.13-0.14,0.19-0.22c-0.85-0.71-0.99-1.5-1.65-2.24c-0.81-0.93-1.91-1.67-2.76-2.62c0.08-0.05,0.18,0,0.27-0.03
		c-0.36-0.35-0.83-0.47-1.18-0.75c-0.48-0.39-0.64-0.85-1.22-1.15c0.38-0.95-2.07-1.91-2.71-2.43c-1.54-1.23-2.82-1.87-4.68-2.43
		C68.48,71.04,65.79,70.33,62.7,68.91z"/>
	<path class="st2" d="M57.33,57.45c0,0,20,38,23,51s8,24,8,24s-10-30-13-36s-8-21-20-40L57.33,57.45z"/>
	<path class="st3" d="M64.16,72.52c-0.71,0.47-1.3,1.53-1.45,2.32c-0.28,1.52-0.5,3.27-0.55,4.82c-0.03,1.16,0.19,2.26-0.03,3.4
		c-0.16,0.88-0.46,1.76-0.53,2.65c-0.11,1.37-0.3,3.47,0.12,4.76"/>
	<path class="st3" d="M65.04,72.41c0.84,0.6,2.24,0.75,3.22,1.19c1.42,0.63,2.39,1.58,3.59,2.53c1.54,1.22,3.63,2.35,4.68,3.98
		c0.73,1.12,0.93,2.44,1.82,3.5"/>
	<path class="st3" d="M67.59,79.39c-1.23,0.55-1.07,2.73-1.11,3.8c-0.09,2.34-0.22,5.02-0.9,7.28c-0.71,2.34-1.29,4.26-1.31,6.75
		c-0.01,1.25-0.45,3.83,0.55,4.79"/>
	<path class="st3" d="M68.7,80.39c2.59,0.69,3.61,2.3,5.52,3.99c2.67,2.37,6.61,3.08,8.12,6.76"/>
	<path class="st3" d="M86.55,128.5c-0.2,0.61-0.22,1.63,0,2.22"/>
	<path class="st3" d="M86,126.28c0.57,0.63,1.64,0.75,2.16,1.44c0.22,0.29,0.3,0.7,0.5,0.99"/>
	<path class="st3" d="M84.78,122.95c-0.85,1.59-1.18,2.72-0.55,4.43"/>
	<path class="st3" d="M84.11,119.41c1.02,0.84,2.26,0.66,3.1,2"/>
	<path class="st3" d="M82,117.3c-0.98,0.19-0.99,1.69-1.28,2.49c-0.4,1.11-0.92,2.26-0.83,3.49"/>
	<path class="st3" d="M82.67,114.97c1.36-0.11,4.53,2.05,5.32,3.21"/>
	<path class="st3" d="M71.03,87.59c-0.74,0.54-0.98,1.88-1.27,2.74c-0.65,1.96-1.37,3.83-1.39,5.92c-0.02,1.87,0,3.74,0,5.61
		c0,1.66-0.52,4.38,0.22,5.79"/>
	<path class="st3" d="M73.13,89.7c2.19,0.64,4.19,1.96,5.88,3.45c1.79,1.57,2.85,3.89,4.43,5.53"/>
	<path class="st3" d="M75.24,96.68c-0.28,1.19-0.75,2.41-1,3.65c-0.39,1.92-0.23,3.82-0.33,5.77c-0.08,1.57-0.56,2.95-0.56,4.54
		c0,1.38,0.11,2.72,0.11,4.1"/>
	<path class="st3" d="M77.46,99.9c0.15,0.42,1.2,0.76,1.8,1.02c1.38,0.6,2.79,1.62,3.92,2.64c0.43,0.39,0.9,1.02,1.26,1.5
		c0.65,0.89,1.64,1.77,2.23,2.7"/>
	<path class="st3" d="M78.12,104.78c-0.05,1-0.81,2.07-1.11,3.03c-0.38,1.23-0.55,2.32-0.55,3.63c0,1.03-0.67,7.14,0.33,7.19"/>
	<path class="st3" d="M80.56,108.99c1.98,0.84,4.37,1.4,5.65,3.44"/>
	<path class="st4" d="M63.5,68.53c0.03,0.44-0.28,0.61-0.32,0.95c-0.04,0.36,0.17,0.67,0.1,1.04c-0.1,0.6-0.55,0.95-0.46,1.65
		c-0.26-0.01-0.48,0.16-0.74,0.14c0.2,0.83,0.02,2.23-1.01,2.34c0.17,0.84,0.16,1.85-0.66,2.33c0.37,1.16-2.24,4.31-1.56,5.08
		c-0.36,0.28-0.72,0.66-0.36,1.02c-0.6,0.89-0.23,1.78-1.08,2.73c0.22,0.14,0.27,0.43,0.41,0.56c-0.64,0.41-0.01,0.72-0.09,1.24
		c-0.06,0.41-0.37,0.77-0.43,1.19c0.1,0.05,0.2,0.07,0.3,0.12c-0.11,0.68-0.3,1.48-0.19,2.21c0.06,0.01,0.12,0.03,0.19,0.04
		c-0.17,0.25-0.16,1.67-0.04,1.98c0.12,0.32,0.65,0.37,0.73,0.82c0.06,0.37-0.29,0.85-0.43,1.17c0.82,0.82,1.54,1.02,1.22,2.3
		c0.97,0.35,0.82,0.98,1.06,1.71c0.11,0.35,0.38,0.63,0.48,0.98c0.03,0.11-0.27,0.33-0.24,0.43c0.08,0.27,0.44,0.38,0.51,0.56
		c0.07,0.2,0.31,0.83,0.34,1c0.05,0.37-0.09,0.66-0.06,1.05c0.04,0.56-0.03,1.98,0.35,2.27c-0.6,0.62,0.1,1.12,0.39,1.66
		c0.4,0.76,0.29,1.08,0.29,1.98c0.49,0.18,1.09,2.32,1.31,2.9c0.11,0.3-0.04,0.56,0.14,0.86c0.12,0.22,0.52,0.09,0.64,0.3
		c0.3,0.52,0.21,1.08,0.23,1.71c0.18-0.07,0.57-0.01,0.75-0.08c0.02,0.53-0.05,1.16,0.12,1.61c0.19-0.2,0.36-0.17,0.54-0.28
		c-0.03,0.65,0.04,1.35,0.47,1.87c0.49-0.49,0.85,0.06,0.9,0.65c0.25-0.06,0.6,0.09,0.85,0.03c0.17,0.73,1.85,2.58,2.57,2.32
		c0.18,0.44,0.44,1.17,0.75,1.55c0.32,0.4,0.41,0.29,0.8,0.63c0.13,0.12,0.34,0.56,0.45,0.62c0.34,0.19,0.72,0.04,1.1,0.18
		c0.74,0.28,1.26,0.52,1.97,0.8c0.24,0.09,0.49,0.42,0.76,0.53c0.48,0.2,1.03,0.08,1.5,0.3c0.6,0.28,1.04,1.03,1.63,1.39
		c0.52,0.32,0.97,0.7,1.44,0.98c0.52,0.3,1.27,0.21,1.8,0.48c0.64,0.33,1.48,1.12,2.01,1.62c0.82,0.76,1.58,1.39,2.53,2
		c0.54,0.35,1,0.92,1.64,1.29c0.11-1-0.15-2.07-0.18-3.05c0.09-0.02,0.08,0.1,0.17,0.09c0.28-1.34,1-2.37,0.25-3.74
		c0.81-0.15,0.86-2.81,0.98-3.6c0.2-1.3,0.75-2.61,1.02-3.96c0.56-2.81,0.63-5.67,0.77-8.59c0.07-1.41-0.01-2.66-0.23-4.07
		c-0.22-1.4,0.04-2.96-0.15-4.24c-0.24-1.65-0.16-3.36-0.4-5.05c-0.08-0.53-0.06-1.37-0.23-1.86c-0.18-0.54-0.75-0.86-0.88-1.41
		c-0.11-0.43,0.08-0.9-0.05-1.33c-0.22-0.7-0.76-1.51-1.05-2.16c-0.37-0.84-0.96-1.63-1.4-2.44c-0.84-1.54-1.54-3.05-2.22-4.66
		c0.05-0.08,0.13-0.14,0.19-0.22c-0.85-0.71-0.99-1.5-1.65-2.24c-0.81-0.93-1.91-1.67-2.76-2.62c0.08-0.05,0.18,0,0.27-0.03
		c-0.36-0.35-0.83-0.47-1.18-0.75c-0.48-0.39-0.64-0.85-1.22-1.15c0.38-0.95-2.07-1.91-2.71-2.43c-1.54-1.23-2.82-1.87-4.68-2.43
		C69.28,70.66,66.58,69.95,63.5,68.53z"/>
</g>
<g>
	<path class="st4" d="M118.2,81.43c0,0,21.02,11.5,15.5,37.5L118.2,81.43z"/>
	<path class="st5" d="M117.83,81.95c0,0,21.02,11.5,15.5,37.5L117.83,81.95z"/>
	<path class="st6" d="M95.33,78.45c0,0,24.37,8.1,38,39l-1-8c0,0-1-2-1-5s-1-4-1-4s-3-4-4-6s-2-8-4-9c0,0-4-5-9-7s-8-1-8-1s-5-1-8,0
		S95.33,78.45,95.33,78.45z"/>
	<path class="st2" d="M82.33,74.45c0,0,33,1,51,44c0,0-18-40-50-43L82.33,74.45z"/>
	<path class="st3" d="M100.42,79.79c3-1.14,7.02-0.53,10.09,0"/>
	<path class="st3" d="M108.07,84.78c1.16-0.84,4.16-0.67,5.65-0.67c1.85,0,3.18,0.53,4.88,0.78"/>
	<path class="st3" d="M114.05,90.1c2.69-1.19,6.88-0.83,9.2,1"/>
	<path class="st3" d="M119.6,95.86c0.89,0.41,2.2-0.06,3.21,0.25c1.04,0.32,2.17,0.77,3.11,1.3"/>
	<path class="st3" d="M124.03,101.52c0.7,0.29,1.39-0.06,2.11,0c0.59,0.05,1.22,0.35,1.77,0.55"/>
	<path class="st3" d="M127.13,106.73c0.55,0,1.11,0,1.66,0"/>
	<path class="st3" d="M130.02,111.38c0.31,0.05,0.62,0.01,0.89-0.11"/>
	<path class="st4" d="M95.21,77.68c0,0,24.37,8.1,38,39l-1-8c0,0-1-2-1-5s-1-4-1-4s-3-4-4-6s-2-8-4-9c0,0-4-5-9-7s-8-1-8-1s-5-1-8,0
		S95.21,77.68,95.21,77.68z"/>
</g>
<path class="st2" d="M67.15,60.72c0.2,0.45,0.21,1.12,0.73,1.33c0.63-1.35,4.17-0.91,5.38-0.91c2.01,0,4.1,0.14,6.07-0.15
	c2.83-0.41,5.71-0.46,8.59-0.81c3-0.36,5.94-1.15,8.91-1.69c3.35-0.61,6.54-1.69,9.6-3.22c2.08-1.04,4.09-2.03,6.26-2.85
	c4.07-1.54,7.82-3.29,11.51-5.59c2.76-1.72,5.55-3.47,8.31-5.13c0.25-0.15,0.52-0.3,0.78-0.44c-2.39,0.43-4.7,2.18-6.79,3.39
	c-3.16,1.84-6.49,3.13-9.83,4.61c-4.02,1.79-7.98,3.7-12.1,5.25c-3.15,1.19-6.46,2.2-9.72,3.13c-3.04,0.87-6.15,1.78-9.32,1.99
	c-3.93,0.26-7.89,0.56-11.83,0.66C71.69,60.36,68.77,59.82,67.15,60.72z"/>
<path class="st3" d="M84.14,59.45c0.35-0.53,0.54-1.27,0.94-1.83c0.63-0.87,1.31-1.75,1.9-2.65c0.61-0.93,1.15-1.71,2.04-2.41
	c0.64-0.5,1.26-1.01,1.91-1.52c0.58-0.46,1.3-1.16,1.75-1.74"/>
<path class="st3" d="M85.8,60.39c-0.17,1.37,1.81,1.79,2.55,2.55"/>
<path class="st3" d="M91.51,58.39c0.11-0.5,0.11-0.87,0.44-1.27c0.28-0.34,0.62-0.65,0.92-0.97c0.75-0.82,1.4-1.74,2.01-2.68
	c1.2-1.87,1.27-4.32,2.4-6.27c0.4-0.69,0.98-1.2,1.38-1.83"/>
<path class="st3" d="M92.01,59.34c0.16,0.99,1.44,1.68,2.16,2.26c1.32,1.06,2.51,2.09,4.13,2.67c0.56,0.2,1.25,0.53,1.85,0.5"/>
<path class="st3" d="M99.55,56.01c0.02-0.41,0.47-0.82,0.67-1.17c0.21-0.39,0.41-0.84,0.56-1.24c0.43-1.18,0.82-2.37,1.13-3.59
	c0.63-2.5,1.57-4.91,3.57-6.63c0.61-0.53,1.45-1.13,2.23-1.38"/>
<path class="st3" d="M100.21,57.56c0.66,0.23,1.09,0.88,1.5,1.42c0.43,0.58,0.95,1.09,1.5,1.58c1.27,1.13,2.73,1.98,4.43,2.22"/>
<path class="st3" d="M107.7,53.18c0.13-2.46,1.09-4.9,2.22-7.06c0.74-1.42,1.7-2.95,2.76-4.13c0.44-0.49,0.92-0.87,1.51-1.17"/>
<path class="st3" d="M107.97,54.52c0.62,0.01,1.32,1.36,1.77,1.77c0.65,0.6,1.46,1.13,2.26,1.5c1.25,0.58,2.72,1.05,4.06,1.16"/>
<path class="st3" d="M114.57,50.08c0.02-2.06,1.71-2.8,2.33-4.58c0.28-0.8,0.53-1.31,1.05-1.97c0.42-0.53,0.84-1.37,1.39-1.76"/>
<path class="st3" d="M115.01,51.52c1.46,0.92,2.42,2.27,4.19,2.61c0.95,0.18,1.92,0.37,2.87,0.56c0.53,0.1,1.19,0.37,1.7,0.11"/>
<path class="st3" d="M121.27,46.98c0.01-0.96,0.78-1.93,1.28-2.68c0.41-0.63,0.89-1.3,1.44-1.81"/>
<path class="st3" d="M122.38,48.14c0.47,0.78,1.93,1.09,2.77,1.28c0.66,0.14,1.36,0.11,2.05,0.11"/>
<path class="st3" d="M126.98,44.43c-0.31-0.76,0.84-1.86,1.33-2.38"/>
<path class="st3" d="M127.09,45.54c0.79,0.27,1.48,0.98,2.38,0.89"/>
<path class="st4" d="M81.55,60.05c0.31-0.39,0.65-0.82,0.94-1.16c0.06-0.07,0.05-0.22,0.14-0.33c0.04-0.05,0.3-0.03,0.4-0.11
	c0.13-0.11,0.33-0.5,0.42-0.65c0.13-0.24,0.16-0.48,0.37-0.67c0.09-0.08,0.32-0.01,0.41-0.12c0.14-0.16,0.05-0.38,0.14-0.55
	c0.13-0.25,0.43-0.38,0.55-0.67c0.15-0.34,0.07-0.65,0.24-0.99c0.22-0.44,0.52-0.87,0.75-1.3c0.3-0.56,0.82-0.88,1.33-1.33
	c0.43-0.38,0.79-0.84,1.22-1.24c0.36-0.33,0.97-0.5,1.27-0.81c0.21-0.22,0.23-0.46,0.46-0.67c0.19-0.17,0.45-0.39,0.67-0.56
	c0.25-0.19,0.41-0.3,0.6-0.52c0.24-0.27,0.48-0.7,0.88-0.52c0.1-0.58,1.21-1.09,1.66-1.37c0.77-0.48,1.41-1.16,2.02-1.96
	c0.13,0.06,1.06-0.49,1.33-0.59c1.2-0.44,2.21-0.98,3.3-1.67c0.57,0.29,1.59-1.01,2.11-0.55c0.59-0.31,1.07-0.57,1.71-0.83
	c0.42,0.42,1.12-0.68,1.72-0.61c0.17,0.34,0.56-0.01,0.83-0.06c0.15,0.31,1.22-0.28,1.5-0.39c0.01,0.05,0,0.1,0.01,0.15
	c0.47,0.03,3.18-0.77,3.27-0.5c0.55-0.08,1.93-0.77,2.05,0.06c0.46-0.09,2.59-0.78,2.82-0.06c0.21-0.04,0.43-0.18,0.61-0.32
	c0.28,0.13,0.65-0.11,0.91-0.23c0.11,0.56,0.37,0.25,0.68,0.34c0.3,0.08,0.38,0.2,0.78,0.21c0.82,0.04,1.44-0.01,2.19,0.25
	c0.37,0.13,0.55,0.46,0.97,0.56c0.17,0.04,0.37,0.03,0.54,0.06c0.39,0.06,0.96,0.23,1.26,0.25c0.4,0.02,1.28-0.37,1.46-0.12
	c0.52-0.16,1.03-0.32,1.52-0.28c0.41,0.04,0.8,0.16,1.27,0.17c0.86,0.01,1.56-0.26,2.34,0c0.9,0.3,1.72,0.33,2.68,0.33
	c0.58,0,1.42,0.08,1.93-0.16c-0.16,0.2-0.31,0.58-0.44,0.73c-0.21,0.25-0.55,0.37-0.79,0.59c-0.51,0.47-0.36,1.04-0.71,1.55
	c0.1-0.04,0.24-0.02,0.33-0.04c-0.26,0.61-0.95,1.13-0.78,1.81c-0.51,0.25-0.8,1.05-0.94,1.54c-0.06,0.21-0.11,0.49-0.23,0.69
	c-0.11,0.19-0.36,0.27-0.44,0.47c-0.04,0.1,0.03,0.25,0,0.36c-0.06,0.28-0.11,0.54-0.25,0.81c-0.15,0.29-0.46,0.48-0.6,0.76
	c-0.12,0.22,0,0.46-0.08,0.7c-0.05,0.15-0.3,0.5-0.39,0.66c-0.62,1.19-1.23,2.42-1.97,3.53c-0.36,0.53-0.64,1.01-1.1,1.48
	c-0.51,0.51-1.06,1-1.6,1.51c-0.74,0.7-1.41,1.4-2.25,2c-0.72,0.52-1.24,1.06-2.19,1.31c0.06,0.38-0.43,0.46-0.69,0.63
	c-0.12,0.07-0.11,0.24-0.24,0.32c-0.26,0.14-0.61,0.07-0.89,0.22c0.03,0.07,0.04,0.15,0.06,0.21c-0.76,0.18-1.48,0.47-2.23,0.71
	c-0.36,0.11-0.84,0.12-1.16,0.26c-0.36,0.16-0.8,0.56-1.16,0.68c-0.52,0.17-1.04,0.38-1.57,0.52c-0.89,0.22-1.22,0.28-1.87,0.91
	c-0.46,0.44-1.07,0.49-1.73,0.53c-0.47,0.03-0.88-0.1-1.3,0.06c-0.57,0.21-1,0.4-1.58,0.55c-0.67,0.17-1.36,0.32-2.06,0.44
	c-0.82,0.14-1.54,0.63-2.39,0.62c-0.53-0.01-0.78-0.05-1.3,0.06c-0.57,0.12-1.48,0.23-2.03,0.17c-0.36-0.04-0.65-0.08-1.03-0.11
	c-0.38-0.03-0.71-0.23-1.08-0.31c-0.4-0.08-0.87,0.07-1.25-0.03c-0.57-0.14-1.05-0.6-1.57-0.84c-0.59-0.27-1.24-0.08-1.85-0.39
	c-0.52-0.26-0.98-0.67-1.55-0.78c-0.44-0.09-0.87-0.09-1.31-0.22c-0.48-0.15-0.69-0.38-1.15-0.61c-0.4-0.2-0.87-0.27-1.25-0.4
	c-0.24-0.08-0.32-0.13-0.6-0.29c-0.3-0.17-0.57-0.13-0.82-0.25c-0.21-0.1-0.31-0.33-0.55-0.4c-0.2-0.05-0.42,0.13-0.61,0.07
	c-0.51-0.16-0.86-1.03-1.32-1.39c-0.41-0.33-0.79-0.6-1.17-0.94C81.9,60.69,81.82,60.4,81.55,60.05z"/>
<path class="st1" d="M37.33,46.45c0,0,8,7,11,28s5,46,5,46l3,2l-1,1l-2-2l-1,3h-1l1.5-3.5c0,0-4-68-17-74L37.33,46.45z"/>
<path class="st7" d="M38.04,46.45c0,0,8,7,11,28s5,46,5,46l3,2l-1,1l-2-2l-1,3h-1l1.5-3.5c0,0-4-68-17-74L38.04,46.45z"/>
<path class="st8" d="M43.42,57.14c0.67,0.54,4.55,2.39,3.32,3.4c-0.37-1.23-1.61-1.75-2.78-1.81C43.88,58.2,43.61,57.56,43.42,57.14
	z"/>
<circle class="st9" cx="49.42" cy="61.3" r="3"/>
<path class="st10" d="M47.28,60.5c1.56,0.72,2.09,1.55,3.64,0.02c-0.32,0.92-0.55,1.87-1.81,1.87
	C48.16,62.39,47.18,61.51,47.28,60.5"/>
<path class="st8" d="M44.51,61.28c-0.48,1.54-1.03,4.26-2.34,5.43c1.07,1.16,1.66-1.39,2.01-2.11
	C44.59,63.75,45.68,62.18,44.51,61.28z"/>
<circle class="st11" cx="40.83" cy="69.95" r="3.5"/>
<path class="st10" d="M38.97,68.82c-0.24,1.72,1.77,3.06,3.31,2.23c-1.95,2.24-5.54-0.38-3.31-2.34"/>
<path class="st8" d="M48.47,69.18c0.22,1.19,3.56,3,2.25,3.98c-0.43-0.65-1.09-0.96-1.6-1.48c-0.46-0.48-0.39-0.26-0.59-0.95
	C48.39,70.3,48.52,69.82,48.47,69.18z"/>
<circle class="st11" cx="53.37" cy="74.42" r="3"/>
<path class="st10" d="M52.81,75.9c1.59,0.1,2.39-1.88,1.78-2.96c0.66,1.71,0.14,4.54-2.12,2.75"/>
<path class="st8" d="M47.28,73.47c-0.84,1.27-1.58,2.58-2.31,3.86c0.19,0.14,0.6,0.31,0.84,0.34c0.58-0.57,0.85-1.31,1.19-1.98
	C47.48,74.75,47.29,74.69,47.28,73.47z"/>
<circle class="st12" cx="44.33" cy="80.45" r="3"/>
<path class="st10" d="M42.74,79.35c-0.09,1.3,0.53,2.24,1.85,2.46c-1.19,0.37-3.43-0.85-2.07-2.13"/>
<circle class="st7" cx="40.83" cy="69.95" r="3.5"/>
<circle class="st7" cx="49.33" cy="61.45" r="3"/>
<circle class="st7" cx="53.33" cy="74.45" r="3"/>
<circle class="st7" cx="44.33" cy="80.45" r="3"/>
<circle class="st9" cx="58.14" cy="125.05" r="3"/>
<path class="st10" d="M56,124.25c1.56,0.72,2.09,1.55,3.64,0.02c-0.32,0.92-0.55,1.87-1.81,1.87C56.88,126.13,55.9,125.25,56,124.25
	"/>
<circle class="st7" cx="58.05" cy="125.19" r="3"/>
<circle class="st11" cx="51.1" cy="127.12" r="3"/>
<path class="st10" d="M50.54,128.6c1.59,0.1,2.39-1.88,1.78-2.96c0.66,1.71,0.14,4.54-2.12,2.75"/>
<circle class="st7" cx="51.06" cy="127.15" r="3"/>
<path class="st8" d="M50.21,82.36c0,0.26,0.09,0.46,0.12,0.71c0.91,0.14,1.7,0.9,2.26,1.54c0.06-0.05,0.15-0.18,0.17-0.26
	c-0.75-0.68-1.6-1.39-2.44-2C50.16,82.49,50.18,82.71,50.21,82.36z"/>
<circle class="st9" cx="53.7" cy="86.96" r="3"/>
<path class="st10" d="M51.56,86.16c1.56,0.72,2.09,1.55,3.64,0.02c-0.32,0.92-0.55,1.87-1.81,1.87
	C52.43,88.05,51.46,87.17,51.56,86.16"/>
<circle class="st7" cx="53.6" cy="87.11" r="3"/>
<path class="st8" d="M49.1,86.68c-0.03,0.31,0.25,0.58,0.21,0.83c-0.04,0.23-0.41,0.52-0.54,0.7c-0.41,0.54-0.53,1.11-0.78,1.72
	c-0.37-0.57-0.29-0.81,0.03-1.45C48.26,87.99,48.58,87.48,49.1,86.68z"/>
<circle class="st11" cx="45.83" cy="91.95" r="3.5"/>
<path class="st10" d="M43.97,90.82c-0.24,1.72,1.77,3.06,3.31,2.23c-1.95,2.24-5.54-0.38-3.31-2.34"/>
<circle class="st7" cx="45.83" cy="91.95" r="3.5"/>
<path class="st8" d="M50.32,95.83c-0.04,0.52,0.31,0.96,0.12,1.36c-0.14,0.29-0.82,0.58-1.07,0.74c-0.69,0.42-1.41,0.7-1.91,1.42
	c-0.07-0.16-0.17-0.57-0.2-0.74C48.12,97.73,49.04,97.09,50.32,95.83z"/>
<circle class="st12" cx="45.33" cy="100.45" r="3"/>
<path class="st10" d="M43.74,99.35c-0.09,1.3,0.53,2.24,1.85,2.46c-1.19,0.37-3.43-0.85-2.07-2.13"/>
<circle class="st7" cx="45.33" cy="100.45" r="3"/>
<path class="st8" d="M51.98,96.49c-0.03,0.36,0,0.74,0.02,1.09c1.09,0.3,1.9,1.1,2.95,1.45c0.07-0.1,0.15-0.22,0.2-0.32
	c-1.1-0.65-2.12-1.5-3.17-1.99"/>
<circle class="st12" cx="57.33" cy="100.45" r="3"/>
<path class="st10" d="M55.74,99.35c-0.09,1.3,0.53,2.24,1.85,2.46c-1.19,0.37-3.43-0.85-2.07-2.13"/>
<circle class="st7" cx="57.33" cy="100.45" r="3"/>
<path class="st8" d="M51.21,103.03c0.04,0.36,0.25,0.76,0.2,1.12c-1.04,0.06-1.89,0.51-2.69,1.12c-0.01-0.14-0.07-0.27-0.17-0.36
	C49.28,104.33,50.22,103.88,51.21,103.03z"/>
<circle class="st9" cx="46.06" cy="106.84" r="3"/>
<path class="st10" d="M43.92,106.05c1.56,0.72,2.09,1.55,3.64,0.02c-0.32,0.92-0.55,1.87-1.81,1.87
	C44.8,107.93,43.82,107.05,43.92,106.05"/>
<circle class="st7" cx="45.97" cy="106.99" r="3"/>
<path class="st8" d="M52.87,106.61c0.1,0.18,0.11,0.49,0.05,0.7c0.59-0.03,1.26,0.28,1.7,0.68c0.1-0.07,0.19-0.17,0.23-0.29
	C54.25,107.35,53.57,107,52.87,106.61z"/>
<circle class="st11" cx="57.01" cy="109.92" r="3"/>
<path class="st10" d="M56.46,111.4c1.59,0.1,2.39-1.88,1.78-2.96c0.66,1.71,0.14,4.54-2.12,2.75"/>
<circle class="st7" cx="56.97" cy="109.95" r="3"/>
<path class="st8" d="M52.37,112.68c0,0.29-0.02,0.56,0.12,0.82c-0.46-0.08-0.81-0.25-1.3-0.16c-0.46,0.08-0.9,0.31-1.34,0.45
	c0-0.14-0.06-0.29-0.13-0.4C50.47,113.09,51.29,113.06,52.37,112.68z"/>
<circle class="st9" cx="47.06" cy="114.84" r="3"/>
<path class="st10" d="M44.92,113.05c1.56,0.72,2.09,1.55,3.64,0.02c-0.32,0.92-0.55,1.87-1.81,1.87
	C45.8,114.93,44.82,114.05,44.92,113.05"/>
<circle class="st7" cx="46.97" cy="114.99" r="3"/>
<path class="st8" d="M53.66,115.75c0.09,0.17,0.2,0.36,0.17,0.58c0.64-0.37,1.39,0.1,1.98,0.37c0.06-0.07,0.09-0.19,0.09-0.28
	C55.53,116.28,53.89,115.48,53.66,115.75z"/>
<circle class="st12" cx="58.33" cy="118.45" r="3"/>
<path class="st10" d="M56.74,117.35c-0.09,1.3,0.53,2.24,1.85,2.46c-1.19,0.37-3.43-0.85-2.07-2.13"/>
<circle class="st7" cx="58.33" cy="118.45" r="3"/>
<g>
	<path class="st13" d="M26.49,50.96c-0.29,0.11-0.53-0.02-0.82-0.12c-0.29-0.1-0.29-0.11-0.6-0.14c-0.48-0.04-1-0.02-1.43,0.04
		c-0.37,0.05-0.8,0.29-1.14,0.28c-0.21-0.01-0.47-0.19-0.65-0.18c-0.29,0.02-0.39,0.12-0.61,0.21c-0.14,0.06-0.55,0.24-0.76,0.19
		c0.05,0.06,0.08,0.14,0.13,0.2c-0.28,0.13-0.61,0.17-0.92,0.24c-0.03,0.21-0.22,0.31-0.44,0.33c0,0.35-0.53,0.51-0.78,0.59
		c0.06,0,0.14,0.01,0.2,0.01c-0.27,0-0.53,0.14-0.75,0.29c0.01,0.05,0.04,0.09,0.04,0.14c-0.82,0.33-1.59,0.61-2.42,1.01
		c0.04,0.01,0.09-0.01,0.13-0.01c-0.19,0.15-0.43,0.24-0.65,0.34c0,0.05,0.04,0.05,0.05,0.1c-0.39,0.33-0.94,0.48-1.34,0.82
		c-0.27,0.22-0.52,0.45-0.8,0.65c-0.77,0.54-1.03,1.48-1.97,1.81c0.14-0.07,0.26-0.14,0.42-0.19c-0.29,0.13-0.57,0.41-0.79,0.64
		c0.06,0.02,0.18,0.14,0.24,0.16c-0.58,0.53-0.72,1.53-0.95,2.27c-0.12,0.41-0.21,0.82-0.33,1.22c-0.1,0.33-0.66,0.81-0.45,1.04
		c-0.35,0.35-0.5,0.96-0.86,1.36c-0.39,0.43-0.76,0.69-1.1,1.17C6.75,65.99,6.37,66.49,6,67.02c-0.48,0.68-0.76,1.68-1.4,2.19
		c0.15,0.3-0.17,0.76-0.29,1.07c0-0.02,0-0.05,0-0.07c-0.08,0.82,0.05,1.73-0.1,2.53c-0.08,0.42-0.29,0.9-0.4,1.39
		c-0.08,0.35-0.25,0.67-0.4,1c-0.38,0.84-0.64,1.69-1.03,2.54c-0.29,0.65-0.7,1.25-0.89,1.89C1.22,80.51,1,81.44,0.39,82.2
		c0.5-0.47,0.79-0.77,1.49-0.94c0.56-0.13,1.17-0.21,1.75-0.24c0,0.05,0.03,0.13,0.03,0.2c0.23-0.08,0.48-0.18,0.71-0.27
		c0,0.03,0.01,0.07,0.01,0.1c0.46-0.06,1.17-0.37,1.53-0.48c0.58-0.18,1.25-0.36,1.69-0.78c0.39,0.27,1.65-0.31,2-0.53
		c0.44-0.28,1.62-1.65,1.97-0.62c0.68-0.27,1.15-0.86,1.84-1.13c0.6-0.23,0.76,0.13,1.36,0.02c0.41-0.08,0.7-0.32,1.02-0.56
		c0.23-0.17,0.48-0.42,0.69-0.51c0.43-0.2,0.86-0.29,1.3-0.55c0.54-0.31,0.61-0.44,1.02-0.81c0.25-0.23,0.59-0.28,0.83-0.55
		c0.44-0.49,0.88-0.88,1.4-1.35c0.03,0.04,0,0.08,0.03,0.12c0.57-0.25,1.41-0.74,1.62-1.39c0.05-0.17-0.01-0.35,0.04-0.52
		c0.12-0.43,0.4-0.85,0.71-1.17c0.27-0.27,0.42-0.58,0.61-0.86c0.21-0.31,0.78-0.52,0.67-1.02c0.57-0.33,0.85-1.17,1.32-1.66
		c0.36-0.38,0.52-0.5,0.72-0.9c0.3-0.59,0.68-0.88,1.18-1.35c-0.25-0.46-0.08-0.91,0.04-1.38c0.11-0.42,0.08-0.84,0.17-1.27
		c0.12-0.56,0.28-1.21,0.43-1.77c0.18-0.65,0.51-1.18,0.61-1.88c0.14-1.02,0.06-2.57-0.33-3.46c-0.21-0.48-0.23-1-0.47-1.49
		c-0.2-0.4-0.47-0.65-0.71-1.01C27.27,51.6,27.16,51.26,26.49,50.96z"/>
	<path class="st2" d="M28.98,44.14c0.26,0.34,0.62,0.66,0.9,1c-1.53,2.42-1.95,5.23-3.36,7.76c-1.53,2.74-3.06,5.44-4.49,8.23
		c-1.4,2.73-3.23,5.15-5.07,7.62c-2.02,2.7-4.85,4.56-7.48,6.57c-2.94,2.25-5.52,4.75-8.83,6.41c2.11-2.34,4.96-4.14,7.47-6.13
		c2.43-1.94,4.94-3.85,7.12-6.07c4.21-4.26,6.87-10.04,9.73-15.21C26.63,51.33,28.02,47.72,28.98,44.14z"/>
	<path class="st7" d="M25.1,53.68c-0.67-0.33-2.16-0.05-2.9,0.13c-0.99,0.25-1.99,0.52-2.97,0.78c-0.84,0.22-1.64,0.53-2.28,1.14"/>
	<path class="st7" d="M25.88,53.95c0.65,0.96,0.55,2.6,0.55,3.77c0,1.23,0.06,2.41,0.06,3.65"/>
	<path class="st7" d="M22.61,57.72c-2.54,0-5.11-0.26-7.57,0.49c-1.05,0.32-2.35,0.77-3.08,1.61"/>
	<path class="st7" d="M23.66,58.22c0.42,1.38,0.5,2.68,0.5,4.16c0,0.69,0.01,1.38-0.06,2.06c-0.07,0.65,0.04,1.39-0.22,1.99"/>
	<path class="st7" d="M20.17,62.32c-0.65-0.32-2.05-0.04-2.82,0.01c-0.29,0.02-0.6,0.05-0.88,0.11c-0.6,0.13-1.18,0.36-1.76,0.54
		c-0.9,0.28-3.29,1.13-3.63,2.16"/>
	<path class="st7" d="M21.06,62.93c0.51,1,0.28,2.36,0.28,3.47c0,0.6,0.08,1.25,0,1.84c-0.06,0.5-0.38,0.93-0.34,1.45"/>
	<path class="st7" d="M17.4,66.92c-0.67,0.29-1.51,0.22-2.23,0.37c-1.15,0.24-2.3,0.57-3.4,0.98c-1.39,0.51-3.49,0.83-4.57,1.92"/>
	<path class="st7" d="M18.45,67.26c-0.15,0.35,0.04,1.01,0.06,1.45c0.02,0.47,0.02,0.97-0.03,1.43c-0.14,1.11-0.68,2.09-0.91,3.16"
		/>
	<path class="st7" d="M15.07,71.02c0,1.1,0.1,2.31-0.5,3.27"/>
	<path class="st7" d="M4.76,74.68c1.85-1.22,4.47-2.05,6.65-2.05"/>
	<path class="st7" d="M11.47,73.68c-0.16,1.12-0.04,2.16-0.5,3.21"/>
	<path class="st7" d="M8.09,75.4c-0.85-0.24-3.04-0.29-3.66,0.72"/>
	<path class="st7" d="M9.08,75.62c0,0.72-0.01,1.29-0.33,1.94"/>
	<path class="st7" d="M5.26,77.51c-1.23-0.05-2.08,0.74-2.94,1.5"/>
	<path class="st7" d="M5.93,78.4c0.07,0.44,0.25,1.07,0,1.5"/>
	<path class="st7" d="M26.2,50.31c-0.29,0.11-0.53-0.02-0.82-0.12c-0.29-0.1-0.29-0.11-0.6-0.14c-0.48-0.04-1-0.02-1.43,0.04
		c-0.37,0.05-0.8,0.29-1.14,0.28c-0.21-0.01-0.47-0.19-0.65-0.18c-0.29,0.02-0.39,0.12-0.61,0.21c-0.14,0.06-0.55,0.24-0.76,0.19
		c0.05,0.06,0.08,0.14,0.13,0.2c-0.28,0.13-0.61,0.17-0.92,0.24c-0.03,0.21-0.22,0.31-0.44,0.33c0,0.35-0.53,0.51-0.78,0.59
		c0.06,0,0.14,0.01,0.2,0.01c-0.27,0-0.53,0.14-0.75,0.29c0.01,0.05,0.04,0.09,0.04,0.14c-0.82,0.33-1.59,0.61-2.42,1.01
		c0.04,0.01,0.09-0.01,0.13-0.01c-0.19,0.15-0.43,0.24-0.65,0.34c0,0.05,0.04,0.05,0.05,0.1c-0.39,0.33-0.94,0.48-1.34,0.82
		c-0.27,0.22-0.52,0.45-0.8,0.65c-0.77,0.54-1.03,1.48-1.97,1.81c0.14-0.07,0.26-0.14,0.42-0.19c-0.29,0.13-0.57,0.41-0.79,0.64
		c0.06,0.02,0.18,0.14,0.24,0.16c-0.58,0.53-0.72,1.53-0.95,2.27c-0.12,0.41-0.21,0.82-0.33,1.22c-0.1,0.33-0.66,0.81-0.45,1.04
		c-0.35,0.35-0.5,0.96-0.86,1.36c-0.39,0.43-0.76,0.69-1.1,1.17c-0.37,0.54-0.75,1.04-1.12,1.57c-0.48,0.68-0.76,1.68-1.4,2.19
		c0.15,0.3-0.17,0.76-0.29,1.07c0-0.02,0-0.05,0-0.07c-0.08,0.82,0.05,1.73-0.1,2.53c-0.08,0.42-0.29,0.9-0.4,1.39
		c-0.08,0.35-0.25,0.67-0.4,1c-0.38,0.84-0.64,1.69-1.03,2.54c-0.29,0.65-0.7,1.25-0.89,1.89c-0.28,0.95-0.51,1.88-1.12,2.64
		c0.5-0.47,0.79-0.77,1.49-0.94c0.56-0.13,1.17-0.21,1.75-0.24c0,0.05,0.03,0.13,0.03,0.2c0.23-0.08,0.48-0.18,0.71-0.27
		c0,0.03,0.01,0.07,0.01,0.1c0.46-0.06,1.17-0.37,1.53-0.48c0.58-0.18,1.25-0.36,1.69-0.78c0.39,0.27,1.65-0.31,2-0.53
		c0.44-0.28,1.62-1.65,1.97-0.62c0.68-0.27,1.15-0.86,1.84-1.13c0.6-0.23,0.76,0.13,1.36,0.02c0.41-0.08,0.7-0.32,1.02-0.56
		c0.23-0.17,0.48-0.42,0.69-0.51c0.43-0.2,0.86-0.29,1.3-0.55c0.54-0.31,0.61-0.44,1.02-0.81c0.25-0.23,0.59-0.28,0.83-0.55
		c0.44-0.49,0.88-0.88,1.4-1.35c0.03,0.04,0,0.08,0.03,0.12c0.57-0.25,1.41-0.74,1.62-1.39c0.05-0.17-0.01-0.35,0.04-0.52
		c0.12-0.43,0.4-0.85,0.71-1.17c0.27-0.27,0.42-0.58,0.61-0.86c0.21-0.31,0.78-0.52,0.67-1.02c0.57-0.33,0.85-1.17,1.32-1.66
		c0.36-0.38,0.52-0.5,0.72-0.9c0.3-0.59,0.68-0.88,1.18-1.35c-0.25-0.46-0.08-0.91,0.04-1.38c0.11-0.42,0.08-0.84,0.17-1.27
		c0.12-0.56,0.28-1.21,0.43-1.77c0.18-0.65,0.51-1.18,0.61-1.88c0.14-1.02,0.06-2.57-0.33-3.46c-0.21-0.48-0.23-1-0.47-1.49
		c-0.2-0.4-0.47-0.65-0.71-1.01C26.98,50.95,26.87,50.61,26.2,50.31z"/>
</g>
</svg>
