<!-- Generator: Adobe Illustrator 23.1.1, SVG Export Plug-In  -->
<svg version="1.1" xmlns="http://www.w3.org/2000/svg" xmlns:xlink="http://www.w3.org/1999/xlink" x="0px" y="0px"
	 width="306.38px" height="376.36px" viewBox="0 0 306.38 376.36" style="enable-background:new 0 0 306.38 376.36;"
	 xml:space="preserve">
<style type="text/css">
	.st0{fill:#6D9C56;}
	.st1{fill:none;stroke:#000000;stroke-miterlimit:10;}
	.st2{fill:#A0CA73;}
	.st3{fill:#E1EECA;}
	.st4{opacity:0.69;fill:#E1EECA;}
	.st5{fill:#567A43;}
	.st6{fill:#EBF0E4;}
	.st7{opacity:0.38;fill:#C7DA66;}
	.st8{fill:none;stroke:#070707;stroke-width:0.5;stroke-miterlimit:10;}
	.st9{fill:none;stroke:#000000;stroke-width:0.25;stroke-miterlimit:10;}
</style>
<defs>
</defs>
<g>
	<g>
		<path class="st0" d="M62.96,232.34c-2.33-5.22,1.15-16.07,2.76-21.28c2.02-6.55,5.78-12.85,9.64-18.44
			c9.6-13.86,24.34-25.55,36.7-36.65c6.01-5.4,10.5-11.34,13.78-18.01c-4.6,17.87,0.61,36.85-1.8,55.71
			c-1.23,9.66-5.09,16.33-14.07,21.06c-7.84,4.13-15.79,8.24-23.52,12.29c-6.88,3.6-15.47,9.49-22.98,11.03
			C63.71,235.11,62.14,233.57,62.96,232.34z"/>
		<path class="st1" d="M65.61,232.67c-2.33-5.22,1.15-16.07,2.76-21.28c2.02-6.55,5.78-12.85,9.64-18.44
			c9.6-13.86,24.34-25.55,36.7-36.65c6.01-5.4,10.5-11.34,13.78-18.01c-4.6,17.87,0.61,36.85-1.8,55.71
			c-1.23,9.66-5.09,16.33-14.07,21.06c-7.84,4.13-15.79,8.24-23.52,12.29c-6.88,3.6-15.47,9.49-22.98,11.03
			C66.36,235.44,64.79,233.9,65.61,232.67z"/>
	</g>
	<path class="st0" d="M170.26,61.19c0.1-7.32,4.82-15.9,7.43-22.72c2.69-7.03,5.44-14.27,5.43-22.28c0-4.98,0.21-9.55,0.86-14.25
		c2.53,8.24,5.57,16.91,9.33,25.14c3.77,8.24,9.66,17.47,11.92,26.36c2.94,11.55-2.74,22.16-7.38,32.14
		c-3.8,8.19-3.01,17.36-7.97,25.4c-4.41,7.14-11.73,13.49-19.22,17c-0.43-4.38,1.52-7.9,2.57-11.99c2.07-8.11,2.59-18.47,1.01-26.64
		C172.8,81.84,173.05,71.99,170.26,61.19z"/>
	<path class="st1" d="M173.24,61.57c0.1-7.32,4.82-15.9,7.43-22.72c2.69-7.03,5.44-14.27,5.43-22.28c0-4.98,0.21-9.55,0.86-14.25
		c2.53,8.24,5.57,16.91,9.33,25.14c3.77,8.24,9.66,17.47,11.92,26.36c2.94,11.55-2.74,22.16-7.38,32.14
		c-3.8,8.19-3.01,17.36-7.97,25.4c-4.41,7.14-11.73,13.49-19.22,17c-0.43-4.38,1.52-7.9,2.57-11.99c2.07-8.11,2.59-18.47,1.01-26.64
		C175.78,82.22,176.03,72.37,173.24,61.57z"/>
	<path class="st0" d="M90.01,5.76c7.23,8.75,12.07,18.47,21.83,25.15c10.67,7.31,20.39,14.25,24.84,27.07
		c2.08,5.98,4.3,12.67,4.25,19.1c-12.62-0.42-25.62-12.31-32.56-21.64c-6.18-8.31-9.75-20.23-12.93-29.82
		C93.59,20.06,91.77,14.69,90.01,5.76z"/>
	<g>
		<path class="st0" d="M2.99,163.5c3.27-14.23,10.84-34.37,6.13-49.73c9.37,6.67,8.97,23.06,14.82,32.76
			c6.08,10.08,14.5,17.63,16.93,29.46c2.68,13.02,0.35,25.92,5.01,38.38c4.32,11.54,7.43,25.78,5.01,38.93
			c-1.13,6.17-4.8,11.77-6.01,17.93c-1.4,7.15-0.74,15.2-1.17,22.82c-12.91-5.24-23.61-28.09-28.03-40.8
			c-6.39-18.35-9.74-35.29-9.7-55.34C6,188.45,7.19,174.22,2.99,163.5z"/>
		<path class="st2" d="M44.89,296.18c-10.36,1.85-28.85-29.62-33.05-38.28C2.47,238.54,0.01,221.04,0,198.42
			c-0.01-12.78,0.57-26.09,3.05-38c-0.04-0.74-0.07-0.74-0.11,0c3.48,9.1,2.32,19.77,6.04,28.97c3.35,8.27,8.69,15.08,13.22,22.75
			c11.37,19.29,0.03,40.04,7.83,59.51C33.78,281.02,42.35,287.53,44.89,296.18z"/>
		<path class="st1" d="M46.39,295.78c-10.36,1.85-28.85-29.62-33.05-38.28C3.97,238.14,1.51,220.64,1.5,198.02
			c-0.01-12.78,0.57-26.09,3.05-38c-0.04-0.74-0.07-0.74-0.11,0c3.48,9.1,2.32,19.77,6.04,28.97c3.35,8.27,8.69,15.08,13.22,22.75
			c11.37,19.29,0.03,40.04,7.83,59.51C35.28,280.62,43.85,287.13,46.39,295.78z"/>
		<path class="st1" d="M4.69,159.86c3.27-14.23,10.92-31.19,6.22-46.55c9.37,6.67,8.97,23.06,14.82,32.76
			c6.08,10.08,14.5,17.63,16.93,29.46c2.68,13.02,0.35,25.92,5.01,38.38c4.32,11.54,7.43,25.78,5.01,38.93
			c-1.13,6.17-4.8,11.77-6.01,17.93c-1.4,7.15-0.74,15.2-1.17,22.82"/>
	</g>
	<path class="st1" d="M45.1,146.9c5.61,7.38,14.04,11.58,18.97,20.06c4.41,7.58,7.49,17.1,10.41,25.5
		c1.71,4.93,4.05,10.91,3.95,16.45c6.36,1.26,7.88-8.81,9.15-13.33c1.71-6.1,0.8-12.07-1.57-17.75
		c-4.95-11.87-14.52-15.62-24.16-22.39C56.75,151.86,51.22,146.49,45.1,146.9z"/>
	<path class="st0" d="M88.23,198.64c0.16-4.47,3.44-9.2,4.43-13.74c1.06-4.83,1.16-10.14,1.67-15.18
		c1.19-11.56-0.72-23.11-2.57-34.26c-0.99-6-1.65-10.82-4.98-16.19c-2.83-4.56-7.11-8.19-9.26-13.03c-4.1-9.24-1.45-18.43-9.74-26.2
		c-4.36-4.09-9.97-7.07-14.8-10.69c-4.58-3.44-7.45-8.6-11.68-12.1c-1.47,4.83-0.93,10.44-1.42,15.47
		c-0.52,5.34-1.27,10.73-1.78,15.97c-1.03,10.6-2.19,20.99-2.65,31.69c-0.4,9.22-1.8,19.42,7.07,25.05
		c4.31,2.74,8.65,5.27,12.9,8.43c6.48,4.81,8.77,10.45,12.07,17.7C71.07,179.39,75.8,202.81,88.23,198.64z"/>
	<path class="st1" d="M89.82,198.94c0.16-4.47,3.44-9.2,4.43-13.74c1.06-4.83,1.16-10.14,1.67-15.18
		c1.19-11.56-0.72-23.11-2.57-34.26c-0.99-6-1.65-10.82-4.98-16.19c-2.83-4.56-7.11-8.19-9.26-13.03c-4.1-9.24-1.45-18.43-9.74-26.2
		c-4.36-4.09-9.97-7.07-14.8-10.69c-4.58-3.44-7.45-8.6-11.68-12.1c-1.47,4.83-0.93,10.44-1.42,15.47
		c-0.52,5.34-1.27,10.73-1.78,15.97c-1.03,10.6-2.19,20.99-2.65,31.69c-0.4,9.22-1.8,19.42,7.07,25.05
		c4.31,2.74,8.65,5.27,12.9,8.43c6.48,4.81,8.77,10.45,12.07,17.7C72.66,179.7,77.39,203.11,89.82,198.94z"/>
	<path class="st2" d="M43.78,146.76c5.61,7.38,14.04,11.58,18.97,20.06c4.41,7.58,7.49,17.1,10.41,25.5
		c1.71,4.93,4.05,10.91,3.95,16.45c6.36,1.26,7.88-8.81,9.15-13.33c1.71-6.1,0.8-12.07-1.57-17.75
		c-4.95-11.87-14.52-15.62-24.16-22.39C55.43,151.72,49.9,146.35,43.78,146.76z"/>
	<path class="st1" d="M45.1,146.9c5.61,7.38,14.04,11.58,18.97,20.06c4.41,7.58,7.49,17.1,10.41,25.5
		c1.71,4.93,4.05,10.91,3.95,16.45c6.36,1.26,7.88-8.81,9.15-13.33c1.71-6.1,0.8-12.07-1.57-17.75
		c-4.95-11.87-14.52-15.62-24.16-22.39C56.75,151.86,51.22,146.49,45.1,146.9z"/>
	<path class="st1" d="M91.71,5.67c7.23,8.75,12.07,18.47,21.83,25.15c10.67,7.31,20.39,14.25,24.84,27.07
		c2.08,5.98,4.3,12.67,4.25,19.1c-12.62-0.42-25.62-12.31-32.56-21.64c-6.18-8.31-9.75-20.23-12.93-29.82
		C95.29,19.96,93.47,14.6,91.71,5.67z"/>
	<path class="st2" d="M136.56,152.53c0-22.13-12.88-38.84-26.27-55.41c-7.29-9.02-9.52-17.92-10.09-29.27
		c-0.27-5.46-1.52-10.36-1.77-15.74c-0.24-5.15-0.35-9.71-1.76-14.4c-3.17-10.51-5.92-19.83-7.48-30.89c4.07,1.4,6.9,9.7,8.69,13.25
		c2.41,4.76,4.04,9.58,5.98,14.43c3.86,9.66,10.28,18.49,17.62,26.26c7.73,8.2,19.41,13.45,25.18,23.16
		c5.84,9.82,6.98,22,5.87,33.59C151.66,126.68,146.13,149.65,136.56,152.53z"/>
	<path class="st1" d="M136.34,152.19c0-22.13-12.88-38.84-26.27-55.41c-7.29-9.02-9.52-17.92-10.09-29.27
		c-0.27-5.46-1.52-10.36-1.77-15.74c-0.24-5.15-0.35-9.71-1.76-14.4c-3.17-10.51-5.92-19.83-7.48-30.89c4.07,1.4,6.9,9.7,8.69,13.25
		c2.41,4.76,4.04,9.58,5.98,14.43c3.86,9.66,10.28,18.49,17.62,26.26c7.73,8.2,19.41,13.45,25.18,23.16
		c5.84,9.82,6.98,22,5.87,33.59C151.43,126.34,145.9,149.32,136.34,152.19z"/>
	<path class="st2" d="M171.51,126.3c-0.82,0.95-1.81,1.62-3.02,1.84c4.23-8.16-1.33-16.92-2.22-24.83
		c-1.02-9.04-1.9-18.89,0.89-27.49c1.38-4.27,2.12-8.57,2.66-13.17c-0.28,8.26,4.17,17.77,5.75,25.82
		c1.78,9.07,2.41,18.19,0.03,27.24c-1.3,4.94-2.41,12.93-8.88,12.87"/>
	<path class="st1" d="M173.52,125.98c-0.82,0.95-1.81,1.62-3.02,1.84c4.23-8.16-1.33-16.92-2.22-24.83
		c-1.02-9.04-1.9-18.89,0.89-27.49c1.38-4.27,2.12-8.57,2.66-13.17c-0.28,8.26,4.17,17.77,5.75,25.82
		c1.78,9.07,2.41,18.19,0.03,27.24c-1.3,4.94-2.41,12.93-8.88,12.87"/>
	<path class="st0" d="M185.44,119.93c6.03,1.97,13.63-0.17,19.41-0.98c6.54-0.92,14.64-0.92,21.38-0.25
		c13.65,1.35,25.48,6.89,37.67,12.31c6.72,2.99,13.3,3.21,20.38,4.54c-5.67,4.37-15.29,6.91-22.38,9.44
		c-7.08,2.52-13.76,5.81-21.03,6.87c-17.52,2.55-28.78-8.34-42.22-17.65c-7.06-4.89-13.28-6.62-21.15-9.07
		C180.12,123.99,182.39,122.4,185.44,119.93z"/>
	<path class="st1" d="M187.74,119.04c6.03,1.97,13.63-0.17,19.41-0.98c6.54-0.92,14.64-0.92,21.38-0.25
		c13.65,1.35,25.48,6.89,37.67,12.31c6.72,2.99,13.3,3.21,20.38,4.54c-5.67,4.37-15.29,6.91-22.38,9.44
		c-7.08,2.52-13.76,5.81-21.03,6.87c-17.52,2.55-28.78-8.34-42.22-17.65c-7.06-4.89-13.28-6.62-21.15-9.07
		C182.42,123.09,184.7,121.51,187.74,119.04z"/>
	<path class="st0" d="M41.68,340.52c1.83-4.26,2.4-9.52,5.32-13.19c3.83-4.83,9.87-5.53,15.51-6.31c17.3-2.37,32.08-8.9,45.46-20.15
		c11.09-9.31,12.58-22.95,21.16-33.98c4.05-5.21,10.25-8,14.44-12.83c5.56-6.42,7.05-16.13,9.14-24.1
		c4.74-18.1,1.66-35.26-2.48-52.58c-5.04,1.38-10.78,8.29-14.1,12.37c-4.14,5.08-7.23,11.21-11.97,15.53
		c-10.12,9.23-24.09,12.38-35.03,20.4c-14.02,10.28-25.41,23.3-32.81,39.03c-4.62,9.81-10.52,21.17-11.53,31.89
		C43.48,310.35,41.68,323.65,41.68,340.52z"/>
	<path class="st1" d="M43.3,340.9c1.83-4.26,2.4-9.52,5.32-13.19c3.83-4.83,9.87-5.53,15.51-6.31c17.3-2.37,32.08-8.9,45.46-20.15
		c11.09-9.31,12.58-22.95,21.16-33.98c4.05-5.21,10.25-8,14.44-12.83c5.56-6.42,7.05-16.13,9.14-24.1
		c4.74-18.1,1.66-35.26-2.48-52.58c-5.04,1.38-10.78,8.29-14.1,12.37c-4.14,5.08-7.23,11.21-11.97,15.53
		c-10.12,9.23-24.09,12.38-35.03,20.4c-14.02,10.28-25.41,23.3-32.81,39.03c-4.62,9.81-10.52,21.17-11.53,31.89
		C45.11,310.72,43.3,324.02,43.3,340.9z"/>
	<path class="st0" d="M106.41,177.8c14.02-9.25,27.61-21.16,44.36-24.72c8.09-1.72,16.88-5.1,24.78-5.88
		c12.19-1.22,23.09,2.56,34.35,6.44c6.14,2.11,11.89,4.97,18.01,7.22c2.82,1.03,8.09,0.83,9.69,3.1
		c-16.59,8.47-31.87,18.55-49.58,25.56c-22.34,8.84-47.74,5.41-70.97,2.82c-10.21-1.14-18.77,3.1-27.76,6.68
		c2.98-5.23,8.2-8.88,12.47-13.01c4.15-4.02,7.09-8.11,10.86-12.19"/>
	<path class="st1" d="M114.69,174.86c14.02-9.25,21.07-17.38,37.83-20.95c8.09-1.72,16.88-5.1,24.78-5.88
		c12.19-1.22,23.09,2.56,34.35,6.44c6.14,2.11,11.89,4.97,18.01,7.22c2.82,1.03,8.09,0.83,9.69,3.1
		c-16.59,8.47-31.87,18.55-49.58,25.56c-22.34,8.84-47.74,5.41-70.97,2.82c-10.21-1.14-18.77,3.1-27.76,6.68
		c2.98-5.23,8.2-8.88,12.47-13.01c4.15-4.02,7.19-8.98,12.19-12.98"/>
	<path class="st0" d="M38.19,376.36c0,0,0-111,24-144c0,0,21-44,97-99c0,0,48-33,80-35v3.52c0,0-51,3.48-106,55.48s-96,96-88,219
		H38.19z"/>
	<path class="st1" d="M39.69,375.86c0,0,0-111,24-144c0,0,21-44,97-99c0,0,48-33,80-35v3.52c0,0-51,3.48-106,55.48s-96,96-88,219
		H39.69z"/>
	<g>
		<path class="st0" d="M255.39,95.77c7.25-2.9,14.03-3.99,21.51-0.21c5.53,2.79,10.09,7.78,15.94,9.96
			c3.65,1.36,8.19,2.62,12.16,2.31c-4.14,3.95-11.64,6.41-16.78,9.22c-7.02,3.85-14.18,5.41-22.19,3.76
			c-4.31-0.89-38.68-11.22-33.7-18.18c1.88-2.63,11.73-1.57,15.19-3.21C250.71,97.92,253.47,95.8,255.39,95.77z"/>
		<path class="st1" d="M255.4,96.97c7.25-2.9,14.03-3.99,21.51-0.21c5.53,2.79,10.09,7.78,15.94,9.96
			c3.65,1.36,8.19,2.62,12.16,2.31c-4.14,3.95-11.64,6.41-16.78,9.22c-7.02,3.85-14.18,5.41-22.19,3.76
			c-4.31-0.89-38.68-11.22-33.7-18.18c1.88-2.63,11.73-1.57,15.19-3.21C250.72,99.12,253.48,97,255.4,96.97z"/>
	</g>
	<path class="st0" d="M230.12,102.42c3.93-2.81,0.37-16.2,0-20.4c-0.76-8.52,0.26-15.94,2.66-24.04
		c4.75-16.02,17.53-24.35,30.05-34.15c5.73-4.49,10.31-9.01,15.19-14.37c-0.19,8.34-2.68,15.21-2.68,23.79
		c0,8.85,0.47,18.11-0.88,26.61c-2.37,14.94-9.69,31.42-24.25,38.56C246.27,100.36,228.97,110.07,230.12,102.42z"/>
	<path class="st1" d="M231.81,102.98c3.93-2.81,0.37-16.2,0-20.4c-0.76-8.52,0.26-15.94,2.66-24.04
		c4.75-16.02,17.53-24.35,30.05-34.15c5.73-4.49,10.31-9.01,15.19-14.37c-0.19,8.34-2.68,15.21-2.68,23.79
		c0,8.85,0.47,18.11-0.88,26.61c-2.37,14.94-9.69,31.42-24.25,38.56C247.96,100.92,230.66,110.63,231.81,102.98z"/>
	<path class="st3" d="M50.21,318.46c1.67-2.12,2.59-5.5,4.06-7.99c3.15-5.33,7.88-9.49,12.42-13.62
		c8.93-8.12,18.63-15.04,28.59-21.82c10.67-7.26,22.2-13.5,32.14-21.82c7.89-6.61,12.22-14.3,15.3-23.78
		c2.18-6.71,6.4-13.07,7.57-19.93c-0.06,8.38-2.65,16.61-4.53,24.84c-2.33,10.17-10.56,18.36-16.43,26.7
		c-5.42,7.71-11.3,14.87-16.6,22.76c-3.71,5.53-9.49,9.84-15.5,12.56c-7.22,3.27-14.82,4.53-22.25,6.94
		c-5.86,1.89-10.68,4.55-15.32,8.39C56.54,314.28,52.04,315.34,50.21,318.46z"/>
	<path class="st4" d="M60.52,290.53c0-16.74,8.91-38.34,22.96-49.14c13.87-10.67,31.3-15.37,44.89-26.35
		c3.97-3.2,5.93-7.9,9.25-11.52c-2.64,5.32-5.05,10.4-9.53,14.85c-6.78,6.73-15.77,12.45-23.76,17.64
		c-9.36,6.08-19.39,12.11-25.61,21.82c-4.14,6.47-7.5,13.64-10.82,20.66C65.21,284.2,65.21,289.46,60.52,290.53z"/>
	<path class="st3" d="M39.24,273.57c3.1-2.95,4.75-14.15,5.15-19.1c0.87-10.67,1.14-23.48-3.15-33.41
		c-7.33-16.98-8.43-35.66-16.71-52.23c-2.64-5.28-6.8-13.91-5.91-19.34c0,8.94-1.62,19.8,2.08,28c3.9,8.66,8.43,16.11,9.58,25.83
		c1.31,11.09,4.82,21.05,5.29,32.26c0.35,8.35,0,16.01-0.32,24.37C35.12,263.27,34.45,274.36,39.24,273.57z"/>
	<path class="st5" d="M52.87,300.17c6.59-0.27,14.57-8.11,19.29-12.28c7.51-6.63,14.88-13.67,22.34-20.37
		c16.91-15.19,39.81-27.42,45.54-50.96c1.56-6.4,4.86-12.94,5.62-19.38c-0.68,8.68-4.01,17.6-6.5,25.85
		c-3.19,10.6-7.15,21.02-16.13,27.92c-8.8,6.77-17.2,13.84-26.56,19.61c-8.98,5.53-16.25,13.08-24.64,19.45
		c-3.58,2.71-6.92,5.44-10.43,8.16C59.96,299.29,50.42,306.38,52.87,300.17z"/>
	<path class="st3" d="M114.73,187.44c5.08,2.15,11.83-2.1,16.89-3c9.25-1.66,19.29-0.79,28.74-1.31
		c16.84-0.93,31.82-9.28,47.4-14.63c6.19-2.13,12.15-3.25,18.59-3.35c-12.54,6.54-26.18,12.11-39.11,18.37
		c-9.42,4.57-18.31,5.39-28.79,5.92c-8.36,0.42-16.74,1.02-25.1,0.33c-4.65-0.39-9.29-0.85-13.96-1
		C117.29,188.71,114.24,189.37,114.73,187.44z"/>
	<path class="st5" d="M119.71,183.78c2.07-5.22,8.77-8.72,12.94-12.03c8.02-6.37,18.49-10.22,28.72-10.25
		c7.96-0.02,15.85,1.35,23.79,1.33c5.24-0.01,8.93-1.81,13.67-2.66c4.53-0.81,9.95-0.59,14.56-0.27
		c-5.13,2.71-11.98,2.51-17.51,4.24c-7.04,2.2-12.69,2.34-20.3,2.34c-2.2,0-5.19,0.06-7.42,0.4c-3.73,0.57-7.59,0.77-11.24,1.69
		c-6.51,1.65-12.45,5.18-18.76,7.23C130.98,178.14,126.56,181.1,119.71,183.78z"/>
	<path class="st5" d="M87.79,175.14c2.02-6.14-0.99-14.29-2.79-20.03c-3.3-10.53-7.52-18.29-13.62-27.46
		c-3.2-4.81-7.03-8.62-9.19-13.92c-1.82-4.45-3.33-9.08-4.01-13.87c-0.8-5.65-0.17-11.17-2.07-16.5c-1.41-3.96-3.35-7.18-6.94-9.51
		c3.35,3.43,3.58,10.72,4.01,15.33c0.52,5.6-1.47,11.21-0.97,16.8c0.49,5.46,2.93,10.67,5.32,15.64c2.09,4.34,4.02,8.38,7.12,12.13
		c2.62,3.16,5.84,6.04,8.09,9.45c3.67,5.55,5.76,12.23,7.72,18.32C81.67,165.26,84.23,175.7,87.79,175.14z"/>
	<path class="st4" d="M190.88,122.6c5.91-0.28,12.48,5.28,17.39,7.93c4.94,2.67,10.55,5.21,15.81,7.13
		c9.86,3.61,21.23,0.59,31.31-0.13c4.44-0.32,10.96-1.45,15.18,0.36c-12.09,4.46-25.88,8.17-39.26,6.25
		c-5.3-0.76-10.07-3.72-15.07-5.67c-6.03-2.36-11.54-4.8-17.12-8.15C196.28,128.63,188.16,124.91,190.88,122.6z"/>
	<path class="st5" d="M207.84,123.59c8.71-0.1,16.43,2.35,24.95,3.97c6.12,1.17,11.91,1.86,17.78,3.71
		c3.28,1.03,6.56,1.16,9.77,2.04c-1.86,1.59-7.41,0.35-9.96,0.09c-3.85-0.39-7.89-0.59-11.72-1.48c-8.45-1.96-15.76-3.34-24.33-4.67
		C211.64,126.83,208.27,126.16,207.84,123.59z"/>
	<path class="st5" d="M236.44,99.32c4.08-3.68,3.66-9.56,3.66-14.6c0-7.09-0.45-14.34,0.67-21.33c1.4-8.75,4.22-13.92,10.62-19.72
		c2.96-2.68,6.07-5.18,9.09-7.87c2.86-2.55,5.15-5.41,7.85-8.21c-3.44,10-15.42,14.05-21.49,22.25c-7.3,9.85-2.27,24.72-4.14,36.17
		C242.24,88.72,239.96,100.7,236.44,99.32z"/>
	<path class="st5" d="M242.76,96.33c8.86-10.04,16.72-20.3,18.63-34.42c0.84-6.17,1.32-12.52,3.48-18.45
		c1.4-3.84,3.72-7.44,4.9-11.31c1.19-3.88,0.36-9.18,3.17-12.28c-0.5,5.3-0.22,10.87-1.63,16.07c-1.59,5.86-4.05,11.94-5.61,17.89
		c-1.73,6.56-0.33,13.8-2.33,20.2c-1.6,5.12-4.79,10.9-8.71,14.64C252.18,91.03,244.99,96.61,242.76,96.33z"/>
	<path class="st4" d="M246.08,107.3c9.4-0.76,18.58,5.07,27.77,6.36c7.96,1.11,14.72-1.01,21.99-2.05c-6.33,6.03-12.96,5.03-21.33,5
		c-3.08-0.01-6.43,0.4-9.48,0c-3.28-0.44-6.31-2.36-9.36-3.64C254.16,112.33,242.85,109.69,246.08,107.3z"/>
	<path class="st5" d="M253.73,102.64c5.33-2.52,12.16-3.38,17.96-0.91c5.58,2.37,10.08,5.73,16.26,6.3
		c-3.9,2.99-13.47-2.01-17.6-3.04c-3.22-0.8-6.23-1.02-9.64-1.02C258.45,103.97,252.48,105.6,253.73,102.64z"/>
	<g>
		<g>
			<path class="st6" d="M150.88,218.9c-1.46-2.25-2.94-2.95-3.82-5.65c-0.82-2.49-0.64-4.89-0.81-7.67
				c-0.29-4.67-1.12-10.28-2.69-14.61c-1.9-5.23-5.62-7.1-9.54-2.25c-2.92,3.62-3.92,10.5-3.75,15.04
				c0.13,3.48,3.5,15.47-3.28,14.85c0.72,5.16,9.04,6.13,8.27,0.05c-0.47,4.8,4.84,4.68,8.26,4.5c-0.11-0.55,0.23-1.37,0.12-1.91
				C146.17,222.46,149.37,219.42,150.88,218.9z"/>
			<path class="st7" d="M147.09,214.47c0.86,2.4,2.29,3.02,3.7,5.02c-1.47,0.46-4.56,3.16-7.01,2.1c0.1,0.48-0.22,1.21-0.11,1.7
				c-3.31,0.16-8.44,0.26-7.99-4c0.74,5.4-7.3,4.54-8-0.04c1.73-0.55,1.84-2.2,3.12-3.18c1.45-1.11,3.18-0.73,5.06-0.81
				C139.67,215.08,143.13,214.47,147.09,214.47z"/>
			<path class="st8" d="M124.89,218.74c0.82,0.08,1.49-0.04,2.04-0.3c0.6-0.71,0.94-1.63,1.77-2.26c0,0,0.01-0.01,0.01-0.01
				c1.14-3.59-0.45-9.91-0.54-12.28c-0.17-4.54,0.82-11.42,3.75-15.04c3.92-4.85,7.65-2.99,9.54,2.25c1.57,4.32,2.4,9.94,2.69,14.61
				c0.17,2.78,0,5.17,0.81,7.67c0.89,2.7,2.36,3.4,3.82,5.65c-0.12,0.04-0.26,0.11-0.41,0.18c0.11,0.14,0.21,0.27,0.32,0.42
				c-1.47,0.46-4.56,3.16-7.01,2.1c0.1,0.48-0.22,1.21-0.11,1.7c-2.13,0.1-5,0.18-6.66-0.91c-0.61-0.34-1.11-0.8-1.42-1.43
				c-0.57,2.03-2.95,2.48-4.97,1.71C126.8,222.29,125.19,220.88,124.89,218.74z"/>
		</g>
		<g>
			<path class="st6" d="M134.34,231.1c1.4-2.29,2.86-3.02,3.68-5.75c0.76-2.51,0.52-4.9,0.63-7.68c0.17-4.67,0.87-10.31,2.33-14.67
				c1.77-5.28,5.44-7.23,9.49-2.48c3.01,3.55,4.18,10.4,4.12,14.94c-0.05,3.48-3.12,15.55,3.65,14.76
				c-0.59,5.17-8.89,6.35-8.27,0.25c0.59,4.79-4.72,4.8-8.15,4.71c0.1-0.55-0.26-1.36-0.16-1.91
				C139.14,234.54,135.87,231.58,134.34,231.1z"/>
			<path class="st7" d="M138.02,226.58c-0.8,2.42-2.21,3.08-3.57,5.11c1.48,0.42,4.63,3.05,7.06,1.93c-0.09,0.49,0.25,1.2,0.16,1.7
				c3.31,0.08,8.45,0.06,7.89-4.2c-0.61,5.42,7.41,4.36,8-0.24c-1.74-0.5-1.89-2.15-3.19-3.11c-1.47-1.08-3.2-0.65-5.08-0.69
				C145.45,227.01,141.99,226.49,138.02,226.58z"/>
			<path class="st8" d="M160.32,230.3c-0.82,0.1-1.49,0-2.05-0.25c-0.62-0.7-0.98-1.6-1.82-2.22c0,0-0.01,0-0.01-0.01
				c-1.23-3.56,0.21-9.92,0.24-12.29c0.06-4.54-1.1-11.4-4.12-14.94c-4.04-4.76-7.72-2.8-9.49,2.48c-1.46,4.36-2.16,9.99-2.33,14.67
				c-0.1,2.78,0.13,5.17-0.63,7.68c-0.82,2.72-2.28,3.46-3.68,5.75c0.13,0.04,0.27,0.1,0.42,0.17c-0.1,0.14-0.21,0.27-0.31,0.42
				c1.48,0.42,4.63,3.05,7.06,1.93c-0.09,0.49,0.25,1.2,0.16,1.7c2.13,0.05,5,0.05,6.64-1.07c0.6-0.35,1.09-0.83,1.38-1.47
				c0.62,2.01,3.01,2.41,5.01,1.59C158.5,233.89,160.08,232.45,160.32,230.3z"/>
		</g>
		<path class="st0" d="M136.2,187.67c-0.51-1.48,0.67-5.7,0.79-7.98c0.19-3.52-0.41-6.27-0.53-9.51c0.05-0.08,0.51-0.4,0.64-0.41
			c1.28,6.39,0.06,12.48,0.01,18.85C136.8,188.68,136.37,188.86,136.2,187.67z"/>
		<path class="st9" d="M137.2,187.74c-0.51-1.48,0.67-5.7,0.79-7.98c0.19-3.52-0.41-6.27-0.53-9.51c0.05-0.08,0.51-0.4,0.64-0.41
			c1.28,6.39,0.06,12.48,0.01,18.85C137.8,188.75,137.37,188.93,137.2,187.74z"/>
		<path class="st0" d="M148.76,197.25c-2.03-9.93-5.89-23.1-11.64-31.26c-1.65-2.35-3.49-5.6-5.98-7.02
			c-0.55,0.32-1.05,0.83-1.29,1.36c3.92,1.99,7.91,8.84,9.94,12.63c2.58,4.82,3.24,10.79,4.64,15.98
			C144.97,190.93,145.96,197.27,148.76,197.25z"/>
		<path class="st9" d="M148.49,196.44c-2.03-9.93-5.89-23.1-11.64-31.26c-1.65-2.35-3.49-5.6-5.98-7.02
			c-0.55,0.32-1.05,0.83-1.29,1.36c3.92,1.99,7.91,8.84,9.94,12.63c2.58,4.82,3.24,10.79,4.64,15.98
			C144.69,190.13,145.69,196.46,148.49,196.44z"/>
	</g>
	<g>
		<g>
			<path class="st6" d="M194.31,186.92c-1.46-2.25-2.94-2.95-3.82-5.65c-0.82-2.49-0.64-4.89-0.81-7.67
				c-0.29-4.67-1.12-10.28-2.69-14.61c-1.9-5.23-5.62-7.1-9.54-2.25c-2.92,3.62-3.92,10.5-3.75,15.04
				c0.13,3.48,3.5,15.47-3.28,14.85c0.72,5.16,9.04,6.13,8.27,0.05c-0.47,4.8,4.84,4.68,8.26,4.5c-0.11-0.55,0.23-1.37,0.12-1.91
				C189.6,190.47,192.79,187.43,194.31,186.92z"/>
			<path class="st7" d="M190.52,182.49c0.86,2.4,2.29,3.02,3.7,5.02c-1.47,0.46-4.56,3.16-7.01,2.1c0.1,0.48-0.22,1.21-0.11,1.7
				c-3.31,0.16-8.44,0.26-7.99-4c0.74,5.4-7.3,4.54-8-0.04c1.73-0.55,1.84-2.2,3.12-3.18c1.45-1.11,3.18-0.73,5.06-0.81
				C183.1,183.09,186.56,182.49,190.52,182.49z"/>
			<path class="st8" d="M168.32,186.75c0.82,0.08,1.49-0.04,2.04-0.3c0.6-0.71,0.94-1.63,1.77-2.26c0,0,0.01-0.01,0.01-0.01
				c1.14-3.59-0.45-9.91-0.54-12.28c-0.17-4.54,0.82-11.42,3.75-15.04c3.92-4.85,7.65-2.99,9.54,2.25c1.57,4.32,2.4,9.94,2.69,14.61
				c0.17,2.78,0,5.17,0.81,7.67c0.89,2.7,2.36,3.4,3.82,5.65c-0.12,0.04-0.26,0.11-0.41,0.18c0.11,0.14,0.21,0.27,0.32,0.42
				c-1.47,0.46-4.56,3.16-7.01,2.1c0.1,0.48-0.22,1.21-0.11,1.7c-2.13,0.1-5,0.18-6.66-0.91c-0.61-0.34-1.11-0.8-1.42-1.43
				c-0.57,2.03-2.95,2.48-4.97,1.71C170.23,190.3,168.62,188.89,168.32,186.75z"/>
		</g>
		<g>
			<path class="st6" d="M177.77,199.11c1.4-2.29,2.86-3.02,3.68-5.75c0.76-2.51,0.52-4.9,0.63-7.68c0.17-4.67,0.87-10.31,2.33-14.67
				c1.77-5.28,5.44-7.23,9.49-2.48c3.01,3.55,4.18,10.4,4.12,14.94c-0.05,3.48-3.12,15.55,3.65,14.76
				c-0.59,5.17-8.89,6.35-8.27,0.25c0.59,4.79-4.72,4.8-8.15,4.71c0.1-0.55-0.26-1.36-0.16-1.91
				C182.57,202.55,179.3,199.59,177.77,199.11z"/>
			<path class="st7" d="M181.45,194.59c-0.8,2.42-2.21,3.08-3.57,5.11c1.48,0.42,4.63,3.05,7.06,1.93c-0.09,0.49,0.25,1.2,0.16,1.7
				c3.31,0.08,8.45,0.06,7.89-4.2c-0.61,5.42,7.41,4.36,8-0.24c-1.74-0.5-1.89-2.15-3.19-3.11c-1.47-1.08-3.2-0.65-5.08-0.69
				C188.88,195.02,185.41,194.5,181.45,194.59z"/>
			<path class="st8" d="M203.75,198.31c-0.82,0.1-1.49,0-2.05-0.25c-0.62-0.7-0.98-1.6-1.82-2.22c0,0-0.01,0-0.01-0.01
				c-1.23-3.56,0.21-9.92,0.24-12.29c0.06-4.54-1.1-11.4-4.12-14.94c-4.04-4.76-7.72-2.8-9.49,2.48c-1.46,4.36-2.16,9.99-2.33,14.67
				c-0.1,2.78,0.13,5.17-0.63,7.68c-0.82,2.72-2.28,3.46-3.68,5.75c0.13,0.04,0.27,0.1,0.42,0.17c-0.1,0.14-0.21,0.27-0.31,0.42
				c1.48,0.42,4.63,3.05,7.06,1.93c-0.09,0.49,0.25,1.2,0.16,1.7c2.13,0.05,5,0.05,6.64-1.07c0.6-0.35,1.09-0.83,1.38-1.47
				c0.62,2.01,3.01,2.41,5.01,1.59C201.93,201.91,203.5,200.46,203.75,198.31z"/>
		</g>
		<path class="st0" d="M179.63,155.69c-0.51-1.48,0.67-5.7,0.79-7.98c0.19-3.52-0.41-6.27-0.53-9.51c0.05-0.08,0.51-0.4,0.64-0.41
			c1.28,6.39,0.06,12.48,0.01,18.85C180.23,156.69,179.8,156.87,179.63,155.69z"/>
		<path class="st9" d="M180.63,155.75c-0.51-1.48,0.67-5.7,0.79-7.98c0.19-3.52-0.41-6.27-0.53-9.51c0.05-0.08,0.51-0.4,0.64-0.41
			c1.28,6.39,0.06,12.48,0.01,18.85C181.23,156.76,180.8,156.94,180.63,155.75z"/>
		<path class="st0" d="M192.19,165.26c-2.03-9.93-5.89-23.1-11.64-31.26c-1.65-2.35-3.49-5.6-5.98-7.02
			c-0.55,0.32-1.05,0.83-1.29,1.36c3.92,1.99,7.91,8.84,9.94,12.63c2.58,4.82,3.24,10.79,4.64,15.98
			C188.4,158.94,189.39,165.28,192.19,165.26z"/>
		<path class="st9" d="M191.92,164.45c-2.03-9.93-5.89-23.1-11.64-31.26c-1.65-2.35-3.49-5.6-5.98-7.02
			c-0.55,0.32-1.05,0.83-1.29,1.36c3.92,1.99,7.91,8.84,9.94,12.63c2.58,4.82,3.24,10.79,4.64,15.98
			C188.12,158.14,189.12,164.47,191.92,164.45z"/>
	</g>
	<g>
		<g>
			<path class="st6" d="M119.31,252.92c-1.46-2.25-2.94-2.95-3.82-5.65c-0.82-2.49-0.64-4.89-0.81-7.67
				c-0.29-4.67-1.12-10.28-2.69-14.61c-1.9-5.23-5.62-7.1-9.54-2.25c-2.92,3.62-3.92,10.5-3.75,15.04
				c0.13,3.48,3.5,15.47-3.28,14.85c0.72,5.16,9.04,6.13,8.27,0.05c-0.47,4.8,4.84,4.68,8.26,4.5c-0.11-0.55,0.23-1.37,0.12-1.91
				C114.6,256.47,117.79,253.43,119.31,252.92z"/>
			<path class="st7" d="M115.52,248.49c0.86,2.4,2.29,3.02,3.7,5.02c-1.47,0.46-4.56,3.16-7.01,2.1c0.1,0.48-0.22,1.21-0.11,1.7
				c-3.31,0.16-8.44,0.26-7.99-4c0.74,5.4-7.3,4.54-8-0.04c1.73-0.55,1.84-2.2,3.12-3.18c1.45-1.11,3.18-0.73,5.06-0.81
				C108.1,249.09,111.56,248.49,115.52,248.49z"/>
			<path class="st8" d="M93.32,252.75c0.82,0.08,1.49-0.04,2.04-0.3c0.6-0.71,0.94-1.63,1.77-2.26c0,0,0.01-0.01,0.01-0.01
				c1.14-3.59-0.45-9.91-0.54-12.28c-0.17-4.54,0.82-11.42,3.75-15.04c3.92-4.85,7.65-2.99,9.54,2.25c1.57,4.32,2.4,9.94,2.69,14.61
				c0.17,2.78,0,5.17,0.81,7.67c0.89,2.7,2.36,3.4,3.82,5.65c-0.12,0.04-0.26,0.11-0.41,0.18c0.11,0.14,0.21,0.27,0.32,0.42
				c-1.47,0.46-4.56,3.16-7.01,2.1c0.1,0.48-0.22,1.21-0.11,1.7c-2.13,0.1-5,0.18-6.66-0.91c-0.61-0.34-1.11-0.8-1.42-1.43
				c-0.57,2.03-2.95,2.48-4.97,1.71C95.23,256.3,93.62,254.89,93.32,252.75z"/>
		</g>
		<g>
			<path class="st6" d="M102.77,265.11c1.4-2.29,2.86-3.02,3.68-5.75c0.76-2.51,0.52-4.9,0.63-7.68c0.17-4.67,0.87-10.31,2.33-14.67
				c1.77-5.28,5.44-7.23,9.49-2.48c3.01,3.55,4.18,10.4,4.12,14.94c-0.05,3.48-3.12,15.55,3.65,14.76
				c-0.59,5.17-8.89,6.35-8.27,0.25c0.59,4.79-4.72,4.8-8.15,4.71c0.1-0.55-0.26-1.36-0.16-1.91
				C107.57,268.55,104.3,265.59,102.77,265.11z"/>
			<path class="st7" d="M106.45,260.59c-0.8,2.42-2.21,3.08-3.57,5.11c1.48,0.42,4.63,3.05,7.06,1.93c-0.09,0.49,0.25,1.2,0.16,1.7
				c3.31,0.08,8.45,0.06,7.89-4.2c-0.61,5.42,7.41,4.36,8-0.24c-1.74-0.5-1.89-2.15-3.19-3.11c-1.47-1.08-3.2-0.65-5.08-0.69
				C113.88,261.02,110.41,260.5,106.45,260.59z"/>
			<path class="st8" d="M128.75,264.31c-0.82,0.1-1.49,0-2.05-0.25c-0.62-0.7-0.98-1.6-1.82-2.22c0,0-0.01,0-0.01-0.01
				c-1.23-3.56,0.21-9.92,0.24-12.29c0.06-4.54-1.1-11.4-4.12-14.94c-4.04-4.76-7.72-2.8-9.49,2.48c-1.46,4.36-2.16,9.99-2.33,14.67
				c-0.1,2.78,0.13,5.17-0.63,7.68c-0.82,2.72-2.28,3.46-3.68,5.75c0.13,0.04,0.27,0.1,0.42,0.17c-0.1,0.14-0.21,0.27-0.31,0.42
				c1.48,0.42,4.63,3.05,7.06,1.93c-0.09,0.49,0.25,1.2,0.16,1.7c2.13,0.05,5,0.05,6.64-1.07c0.6-0.35,1.09-0.83,1.38-1.47
				c0.62,2.01,3.01,2.41,5.01,1.59C126.93,267.91,128.5,266.46,128.75,264.31z"/>
		</g>
		<path class="st0" d="M104.63,221.69c-0.51-1.48,0.67-5.7,0.79-7.98c0.19-3.52-0.41-6.27-0.53-9.51c0.05-0.08,0.51-0.4,0.64-0.41
			c1.28,6.39,0.06,12.48,0.01,18.85C105.23,222.69,104.8,222.87,104.63,221.69z"/>
		<path class="st9" d="M105.63,221.75c-0.51-1.48,0.67-5.7,0.79-7.98c0.19-3.52-0.41-6.27-0.53-9.51c0.05-0.08,0.51-0.4,0.64-0.41
			c1.28,6.39,0.06,12.48,0.01,18.85C106.23,222.76,105.8,222.94,105.63,221.75z"/>
		<path class="st0" d="M117.19,231.26c-2.03-9.93-5.89-23.1-11.64-31.26c-1.65-2.35-3.49-5.6-5.98-7.02
			c-0.55,0.32-1.05,0.83-1.29,1.36c3.92,1.99,7.91,8.84,9.94,12.63c2.58,4.82,3.24,10.79,4.64,15.98
			C113.4,224.94,114.39,231.28,117.19,231.26z"/>
		<path class="st9" d="M116.92,230.45c-2.03-9.93-5.89-23.1-11.64-31.26c-1.65-2.35-3.49-5.6-5.98-7.02
			c-0.55,0.32-1.05,0.83-1.29,1.36c3.92,1.99,7.91,8.84,9.94,12.63c2.58,4.82,3.24,10.79,4.64,15.98
			C113.12,224.14,114.12,230.47,116.92,230.45z"/>
	</g>
	<g>
		<g>
			<path class="st6" d="M235.31,166.92c-1.46-2.25-2.94-2.95-3.82-5.65c-0.82-2.49-0.64-4.89-0.81-7.67
				c-0.29-4.67-1.12-10.28-2.69-14.61c-1.9-5.23-5.62-7.1-9.54-2.25c-2.92,3.62-3.92,10.5-3.75,15.04
				c0.13,3.48,3.5,15.47-3.28,14.85c0.72,5.16,9.04,6.13,8.27,0.05c-0.47,4.8,4.84,4.68,8.26,4.5c-0.11-0.55,0.23-1.37,0.12-1.91
				C230.6,170.47,233.79,167.43,235.31,166.92z"/>
			<path class="st7" d="M231.52,162.49c0.86,2.4,2.29,3.02,3.7,5.02c-1.47,0.46-4.56,3.16-7.01,2.1c0.1,0.48-0.22,1.21-0.11,1.7
				c-3.31,0.16-8.44,0.26-7.99-4c0.74,5.4-7.3,4.54-8-0.04c1.73-0.55,1.84-2.2,3.12-3.18c1.45-1.11,3.18-0.73,5.06-0.81
				C224.1,163.09,227.56,162.49,231.52,162.49z"/>
			<path class="st8" d="M209.32,166.75c0.82,0.08,1.49-0.04,2.04-0.3c0.6-0.71,0.94-1.63,1.77-2.26c0,0,0.01-0.01,0.01-0.01
				c1.14-3.59-0.45-9.91-0.54-12.28c-0.17-4.54,0.82-11.42,3.75-15.04c3.92-4.85,7.65-2.99,9.54,2.25c1.57,4.32,2.4,9.94,2.69,14.61
				c0.17,2.78,0,5.17,0.81,7.67c0.89,2.7,2.36,3.4,3.82,5.65c-0.12,0.04-0.26,0.11-0.41,0.18c0.11,0.14,0.21,0.27,0.32,0.42
				c-1.47,0.46-4.56,3.16-7.01,2.1c0.1,0.48-0.22,1.21-0.11,1.7c-2.13,0.1-5,0.18-6.66-0.91c-0.61-0.34-1.11-0.8-1.42-1.43
				c-0.57,2.03-2.95,2.48-4.97,1.71C211.23,170.3,209.62,168.89,209.32,166.75z"/>
		</g>
		<g>
			<path class="st6" d="M218.77,179.11c1.4-2.29,2.86-3.02,3.68-5.75c0.76-2.51,0.52-4.9,0.63-7.68c0.17-4.67,0.87-10.31,2.33-14.67
				c1.77-5.28,5.44-7.23,9.49-2.48c3.01,3.55,4.18,10.4,4.12,14.94c-0.05,3.48-3.12,15.55,3.65,14.76
				c-0.59,5.17-8.89,6.35-8.27,0.25c0.59,4.79-4.72,4.8-8.15,4.71c0.1-0.55-0.26-1.36-0.16-1.91
				C223.57,182.55,220.3,179.59,218.77,179.11z"/>
			<path class="st7" d="M222.45,174.59c-0.8,2.42-2.21,3.08-3.57,5.11c1.48,0.42,4.63,3.05,7.06,1.93c-0.09,0.49,0.25,1.2,0.16,1.7
				c3.31,0.08,8.45,0.06,7.89-4.2c-0.61,5.42,7.41,4.36,8-0.24c-1.74-0.5-1.89-2.15-3.19-3.11c-1.47-1.08-3.2-0.65-5.08-0.69
				C229.88,175.02,226.41,174.5,222.45,174.59z"/>
			<path class="st8" d="M244.75,178.31c-0.82,0.1-1.49,0-2.05-0.25c-0.62-0.7-0.98-1.6-1.82-2.22c0,0-0.01,0-0.01-0.01
				c-1.23-3.56,0.21-9.92,0.24-12.29c0.06-4.54-1.1-11.4-4.12-14.94c-4.04-4.76-7.72-2.8-9.49,2.48c-1.46,4.36-2.16,9.99-2.33,14.67
				c-0.1,2.78,0.13,5.17-0.63,7.68c-0.82,2.72-2.28,3.46-3.68,5.75c0.13,0.04,0.27,0.1,0.42,0.17c-0.1,0.14-0.21,0.27-0.31,0.42
				c1.48,0.42,4.63,3.05,7.06,1.93c-0.09,0.49,0.25,1.2,0.16,1.7c2.13,0.05,5,0.05,6.64-1.07c0.6-0.35,1.09-0.83,1.38-1.47
				c0.62,2.01,3.01,2.41,5.01,1.59C242.93,181.91,244.5,180.46,244.75,178.31z"/>
		</g>
		<path class="st0" d="M220.63,135.69c-0.51-1.48,0.67-5.7,0.79-7.98c0.19-3.52-0.41-6.27-0.53-9.51c0.05-0.08,0.51-0.4,0.64-0.41
			c1.28,6.39,0.06,12.48,0.01,18.85C221.23,136.69,220.8,136.87,220.63,135.69z"/>
		<path class="st9" d="M221.63,135.75c-0.51-1.48,0.67-5.7,0.79-7.98c0.19-3.52-0.41-6.27-0.53-9.51c0.05-0.08,0.51-0.4,0.64-0.41
			c1.28,6.39,0.06,12.48,0.01,18.85C222.23,136.76,221.8,136.94,221.63,135.75z"/>
		<path class="st0" d="M233.19,145.26c-2.03-9.93-5.89-23.1-11.64-31.26c-1.65-2.35-3.49-5.6-5.98-7.02
			c-0.55,0.32-1.05,0.83-1.29,1.36c3.92,1.99,7.91,8.84,9.94,12.63c2.58,4.82,3.24,10.79,4.64,15.98
			C229.4,138.94,230.39,145.28,233.19,145.26z"/>
		<path class="st9" d="M232.92,144.45c-2.03-9.93-5.89-23.1-11.64-31.26c-1.65-2.35-3.49-5.6-5.98-7.02
			c-0.55,0.32-1.05,0.83-1.29,1.36c3.92,1.99,7.91,8.84,9.94,12.63c2.58,4.82,3.24,10.79,4.64,15.98
			C229.12,138.14,230.12,144.47,232.92,144.45z"/>
	</g>
</g>
</svg>
