<!-- Generator: Adobe Illustrator 23.1.1, SVG Export Plug-In  -->
<svg version="1.1" xmlns="http://www.w3.org/2000/svg" xmlns:xlink="http://www.w3.org/1999/xlink" x="0px" y="0px"
	 width="488.56px" height="91.33px" viewBox="0 0 488.56 91.33" style="enable-background:new 0 0 488.56 91.33;"
	 xml:space="preserve">
<defs>
</defs>
<g>
	<path d="M9.03,1.08c1.85,0,3.23-0.02,4.14-0.05l4.37-0.05c4.57,0,8.35,0.17,11.33,0.52c0.03,0.28,0.05,0.77,0.05,1.46
		c0,1.07-0.08,2.19-0.23,3.38c-0.69-0.12-1.66-0.17-2.91-0.14c-1,0.06-2.01,0.09-3.01,0.09h-1.22c0.06,0.19,0.06,0.38,0,0.56
		c-0.03,0.19-0.05,2.3-0.05,6.34c0,0.97,0.02,1.77,0.05,2.4c0.09,8.27,0.19,14.33,0.28,18.19v0.09c-0.56,0.09-1.43,0.14-2.58,0.14
		c-1.22,0-2.15,0.06-2.77,0.19c-0.03-0.12-0.04-0.34-0.02-0.63c0.02-0.3,0.02-0.63,0.02-1.01V29.7c0.03-0.63,0.05-1.75,0.05-3.38
		c0-1.85-0.02-3.34-0.05-4.47c-0.06-4.48-0.17-9.52-0.33-15.13V6.53c-0.66-0.19-2.4-0.31-5.22-0.38c-1,0-1.55-0.02-1.65-0.05
		C9.17,5.92,9.1,5.33,9.07,4.32C9.04,3.32,9.03,2.24,9.03,1.08z"/>
	<path d="M35.3,8.98v4.18c0.85-0.72,1.59-1.26,2.23-1.62c0.64-0.36,1.59-0.59,2.84-0.68c0.75-0.09,1.46-0.14,2.11-0.14
		c2.29,0,4.07,0.55,5.36,1.65c0.41,0.34,0.69,1.16,0.85,2.44c0.16,1.29,0.23,2.98,0.23,5.08c0,1.19-0.03,3.07-0.09,5.64
		c-0.06,2.51-0.09,4.29-0.09,5.36c0,0.88,0.03,1.94,0.09,3.2c-1.25,0.19-2.6,0.25-4.04,0.19c-0.06-0.94-0.09-1.75-0.09-2.44V29
		v-9.21c-0.06-2-0.53-3.31-1.41-3.9c-0.19-0.12-0.56-0.25-1.13-0.38c-0.66-0.19-1.33-0.28-2.02-0.28c-1.22,0-2.26,0.31-3.13,0.92
		c-0.86,0.61-1.42,1.56-1.67,2.84c-0.22,1.19-0.33,2.62-0.33,4.28l0.05,1.6c0.06,2.07,0.09,3.78,0.09,5.12
		c0,1.69-0.03,2.99-0.09,3.9v0.19c-0.63,0.16-1.13,0.23-1.5,0.23l-1.41-0.05c-0.44,0-0.8,0.02-1.08,0.05c0-3.6-0.02-6.58-0.05-8.93
		L30.97,11c0-3.51,0.03-7.11,0.09-10.81c0.97,0.09,1.75,0.13,2.35,0.09c0.16,0,0.35-0.02,0.59-0.05s0.48-0.05,0.73-0.05
		c0.31,0,0.47,0.05,0.47,0.14c0.06,0.28,0.09,2.19,0.09,5.73V8.98z"/>
	<path d="M55.6,22.28v0.85l-0.05,1.36c0,3.88,1.91,5.83,5.73,5.83c1.53,0,2.67-0.35,3.41-1.06c0.74-0.71,1.1-1.67,1.1-2.89
		c0-0.19-0.03-0.53-0.09-1.03c0.66-0.09,1.27-0.14,1.83-0.14c0.5,0,0.88,0.02,1.13,0.05c0.19,0,0.42,0.01,0.68,0.02
		c0.27,0.02,0.57,0.01,0.92-0.02c0.03,1.79-0.03,3.21-0.19,4.28c-0.16,1.07-0.53,2.08-1.13,3.06c-0.56,0.85-1.54,1.45-2.94,1.81
		c-1.39,0.36-2.92,0.54-4.58,0.54c-0.75,0-1.45-0.03-2.09-0.09c-0.64-0.06-1.04-0.13-1.2-0.19c-2.44-0.41-4.21-1.95-5.31-4.63
		c-1.1-2.68-1.57-5.74-1.41-9.19c0.03-0.25,0.08-0.78,0.14-1.58c0.06-0.8,0.15-1.62,0.26-2.47c0.11-0.85,0.32-1.68,0.63-2.49
		c0.59-1.38,1.68-2.44,3.24-3.2c1.57-0.75,3.31-1.13,5.22-1.13c1,0,2.05,0.13,3.15,0.38c4.26,0.72,6.39,3.93,6.39,9.63
		c0,0.47-0.03,1.14-0.09,2.02c-0.6,0.19-2.35,0.34-5.26,0.47c-0.35,0.03-1.1,0.05-2.26,0.05c-2.48,0-4.31-0.03-5.5-0.09
		C56.56,22.42,55.98,22.37,55.6,22.28z M67.02,18.75c-0.03-0.97-0.27-1.93-0.73-2.87c-0.45-0.94-1.1-1.68-1.95-2.21
		c-0.47-0.22-0.88-0.36-1.22-0.42c-0.35-0.06-0.78-0.09-1.32-0.09c-2.04,0-3.49,0.42-4.35,1.27c-0.86,0.85-1.4,2.05-1.62,3.62
		c-0.06,0.38-0.09,0.63-0.09,0.75c0,0.38,0.18,0.63,0.54,0.75c0.36,0.13,1.14,0.19,2.33,0.19c1.16,0,2.15-0.02,2.96-0.05
		c3.01,0,4.7-0.02,5.08-0.05c0.16-0.03,0.26-0.07,0.31-0.12s0.07-0.13,0.07-0.26V18.75z"/>
	<path d="M91.7,16.78c0,0.16-0.55,0.23-1.65,0.23c-0.81,0-1.41-0.02-1.79-0.05c-0.25,0-0.5-0.01-0.75-0.02
		c-0.25-0.02-0.45-0.01-0.61,0.02c0-0.03,0-0.57,0-1.62s-0.91-1.68-2.73-1.9c-0.41-0.06-1.02-0.09-1.83-0.09
		c-0.88,0-1.67,0.06-2.37,0.19s-1.23,0.3-1.57,0.52c-0.41,0.31-0.72,0.77-0.94,1.36c-0.22,0.6-0.33,1.17-0.33,1.74
		c0,0.44,0.06,0.74,0.19,0.89c0.34,0.72,0.8,1.22,1.36,1.5c0.31,0.22,1.08,0.49,2.3,0.8c1.22,0.31,2.27,0.49,3.15,0.52
		c1.28,0.03,2.42,0.23,3.41,0.59c0.99,0.36,1.76,0.85,2.33,1.48c0.56,0.69,0.98,1.37,1.25,2.04c0.27,0.67,0.4,1.4,0.4,2.19
		c0,0.97-0.23,2.15-0.71,3.53c-0.69,1.47-1.79,2.55-3.29,3.24c-1.5,0.69-3.21,1.02-5.12,0.99c-2.1,0.06-3.95-0.21-5.55-0.82
		c-1.6-0.61-2.84-1.53-3.71-2.75c-0.88-1.22-1.32-2.66-1.32-4.32v-0.24c0.56-0.06,1.39-0.09,2.49-0.09c1.22,0,1.88,0.05,1.97,0.14
		c0.06,0.06,0.2,0.42,0.4,1.06c0.2,0.64,0.57,1.29,1.1,1.95c0.53,0.66,1.44,1.03,2.73,1.13c1,0.06,1.6,0.09,1.79,0.09
		c0.5,0,0.92-0.05,1.25-0.14c0.33-0.09,0.76-0.27,1.29-0.52c1.6-0.72,2.38-1.77,2.35-3.15c0.03-0.91-0.21-1.61-0.73-2.12
		c-0.52-0.5-1.17-0.84-1.95-1.01c-0.78-0.17-1.85-0.34-3.2-0.49c-0.97-0.09-1.76-0.19-2.35-0.28c-0.6-0.09-1.13-0.25-1.6-0.47
		c-1.63-0.53-2.88-1.37-3.74-2.51c-0.86-1.14-1.29-2.39-1.29-3.74c0-1.47,0.43-2.81,1.29-4.02c0.86-1.21,2.04-2,3.55-2.37
		c1.28-0.34,2.93-0.52,4.94-0.52c0.47,0,1.17,0.03,2.11,0.09c1.35,0.09,2.6,0.33,3.76,0.71c1.1,0.47,1.99,1.28,2.68,2.42
		C91.35,14.09,91.7,15.37,91.7,16.78z"/>
	<path d="M97.62,22.28v0.85l-0.05,1.36c0,3.88,1.91,5.83,5.73,5.83c1.53,0,2.67-0.35,3.41-1.06c0.74-0.71,1.1-1.67,1.1-2.89
		c0-0.19-0.03-0.53-0.09-1.03c0.66-0.09,1.27-0.14,1.83-0.14c0.5,0,0.88,0.02,1.13,0.05c0.19,0,0.42,0.01,0.68,0.02
		c0.27,0.02,0.57,0.01,0.92-0.02c0.03,1.79-0.03,3.21-0.19,4.28c-0.16,1.07-0.53,2.08-1.13,3.06c-0.56,0.85-1.54,1.45-2.94,1.81
		c-1.39,0.36-2.92,0.54-4.58,0.54c-0.75,0-1.45-0.03-2.09-0.09c-0.64-0.06-1.04-0.13-1.2-0.19c-2.44-0.41-4.21-1.95-5.31-4.63
		c-1.1-2.68-1.57-5.74-1.41-9.19c0.03-0.25,0.08-0.78,0.14-1.58c0.06-0.8,0.15-1.62,0.26-2.47c0.11-0.85,0.32-1.68,0.63-2.49
		c0.59-1.38,1.68-2.44,3.24-3.2c1.57-0.75,3.31-1.13,5.22-1.13c1,0,2.05,0.13,3.15,0.38c4.26,0.72,6.39,3.93,6.39,9.63
		c0,0.47-0.03,1.14-0.09,2.02c-0.6,0.19-2.35,0.34-5.26,0.47c-0.35,0.03-1.1,0.05-2.26,0.05c-2.48,0-4.31-0.03-5.5-0.09
		C98.57,22.42,97.99,22.37,97.62,22.28z M109.04,18.75c-0.03-0.97-0.27-1.93-0.73-2.87c-0.45-0.94-1.1-1.68-1.95-2.21
		c-0.47-0.22-0.88-0.36-1.22-0.42c-0.35-0.06-0.78-0.09-1.32-0.09c-2.04,0-3.49,0.42-4.35,1.27c-0.86,0.85-1.4,2.05-1.62,3.62
		c-0.06,0.38-0.09,0.63-0.09,0.75c0,0.38,0.18,0.63,0.54,0.75c0.36,0.13,1.14,0.19,2.33,0.19c1.16,0,2.15-0.02,2.96-0.05
		c3.01,0,4.7-0.02,5.08-0.05c0.16-0.03,0.26-0.07,0.31-0.12s0.07-0.13,0.07-0.26V18.75z"/>
	<path d="M139.35,10.58c0.72-0.03,1.65,0,2.77,0.09l1.22,0.09c0.06,0.5,0.09,0.88,0.09,1.13v0.47c-0.03,0.72-0.05,1.8-0.05,3.24
		c0,1.19,0.03,2.95,0.09,5.26l0.05,5.26c0,2.26-0.06,4.31-0.19,6.16c0,0.09,0,0.3,0,0.61s-0.03,0.59-0.09,0.85
		c-0.06,0.25-0.23,0.41-0.52,0.47h-0.8l-1.5-0.05c-0.25,0-0.47,0.02-0.66,0.05s-0.36,0.05-0.52,0.05c-0.31-0.09-0.47-0.44-0.47-1.03
		c-0.03-0.25-0.02-0.53,0.02-0.85c0.05-0.31,0.07-0.58,0.07-0.8c-0.75,1.03-1.94,1.74-3.57,2.12c-1.63,0.38-3.23,0.56-4.79,0.56
		c-1.5,0-2.78-0.67-3.83-2c-1.05-1.33-1.83-2.97-2.33-4.91c-0.5-1.94-0.75-3.84-0.75-5.69c0-2.04,0.34-3.87,1.03-5.5
		c0.69-1.63,1.64-2.92,2.84-3.88c1.21-0.96,2.55-1.45,4.02-1.48l1.5-0.05c1.41,0,2.58,0.17,3.5,0.49c0.92,0.33,1.61,0.93,2.04,1.81
		c0-0.28,0.03-0.64,0.09-1.08c0.06-0.63,0.09-1.07,0.09-1.32C138.74,10.61,138.95,10.58,139.35,10.58z M134.09,14.8
		c-1.63-0.03-3,0.38-4.11,1.25c-1.11,0.86-1.79,1.89-2.04,3.08c-0.25,0.91-0.38,2.13-0.38,3.67c0.16,5.04,2.19,7.46,6.11,7.24
		c1.6,0,2.76-0.28,3.48-0.85c0.72-0.56,1.17-1.36,1.34-2.4c0.17-1.03,0.26-2.58,0.26-4.65c0-2.26-0.09-3.85-0.28-4.77
		c-0.19-0.92-0.59-1.56-1.2-1.9C136.65,15.12,135.59,14.9,134.09,14.8z"/>
	<path d="M151.06,10.81c0,0.38,0.01,0.67,0.02,0.87c0.02,0.2,0.02,0.45,0.02,0.73c0.22-0.12,0.52-0.27,0.92-0.42
		c0.39-0.16,0.82-0.31,1.29-0.47c0.72-0.25,1.59-0.43,2.61-0.54c1.02-0.11,1.93-0.17,2.75-0.17c0.75,0,1.13,0.03,1.13,0.09
		l-0.05,3.9c0,0.63,0.02,1.1,0.05,1.41c-0.47-0.19-1-0.36-1.6-0.52c-0.69-0.16-1.44-0.24-2.26-0.24c-0.85,0-1.8,0.13-2.87,0.38
		c-0.88,0.22-1.47,0.55-1.79,0.99c-0.31,0.44-0.45,1.27-0.42,2.49c0.12,4.29,0.19,9.17,0.19,14.62v0.19
		c-0.53,0.12-1.08,0.19-1.65,0.19c-0.22,0-0.57-0.01-1.06-0.02c-0.49-0.02-0.98-0.01-1.48,0.02l-0.05-8.08
		c-0.06-3.7-0.09-6.47-0.09-8.32c0-1.5,0.03-3.88,0.09-7.14c0.31,0.03,0.65,0.04,1.01,0.02c0.36-0.01,0.68-0.02,0.96-0.02
		c0.38-0.03,0.88-0.05,1.5-0.05C150.81,10.72,151.06,10.75,151.06,10.81z"/>
	<path d="M166.19,22.28v0.85l-0.05,1.36c0,3.88,1.91,5.83,5.73,5.83c1.53,0,2.67-0.35,3.41-1.06c0.74-0.71,1.1-1.67,1.1-2.89
		c0-0.19-0.03-0.53-0.09-1.03c0.66-0.09,1.27-0.14,1.83-0.14c0.5,0,0.88,0.02,1.13,0.05c0.19,0,0.42,0.01,0.68,0.02
		c0.27,0.02,0.57,0.01,0.92-0.02c0.03,1.79-0.03,3.21-0.19,4.28c-0.16,1.07-0.53,2.08-1.13,3.06c-0.56,0.85-1.54,1.45-2.94,1.81
		c-1.39,0.36-2.92,0.54-4.58,0.54c-0.75,0-1.45-0.03-2.09-0.09c-0.64-0.06-1.04-0.13-1.2-0.19c-2.44-0.41-4.21-1.95-5.31-4.63
		c-1.1-2.68-1.57-5.74-1.41-9.19c0.03-0.25,0.08-0.78,0.14-1.58c0.06-0.8,0.15-1.62,0.26-2.47c0.11-0.85,0.32-1.68,0.63-2.49
		c0.59-1.38,1.68-2.44,3.24-3.2c1.57-0.75,3.31-1.13,5.22-1.13c1,0,2.05,0.13,3.15,0.38c4.26,0.72,6.39,3.93,6.39,9.63
		c0,0.47-0.03,1.14-0.09,2.02c-0.6,0.19-2.35,0.34-5.26,0.47c-0.35,0.03-1.1,0.05-2.26,0.05c-2.48,0-4.31-0.03-5.5-0.09
		C167.15,22.42,166.57,22.37,166.19,22.28z M177.61,18.75c-0.03-0.97-0.27-1.93-0.73-2.87c-0.45-0.94-1.1-1.68-1.95-2.21
		c-0.47-0.22-0.88-0.36-1.22-0.42c-0.35-0.06-0.78-0.09-1.32-0.09c-2.04,0-3.49,0.42-4.35,1.27c-0.86,0.85-1.4,2.05-1.62,3.62
		c-0.06,0.38-0.09,0.63-0.09,0.75c0,0.38,0.18,0.63,0.54,0.75c0.36,0.13,1.14,0.19,2.33,0.19c1.16,0,2.15-0.02,2.96-0.05
		c3.01,0,4.7-0.02,5.08-0.05c0.16-0.03,0.26-0.07,0.31-0.12s0.07-0.13,0.07-0.26V18.75z"/>
	<path d="M211.69,16.78c0,0.16-0.55,0.23-1.65,0.23c-0.81,0-1.41-0.02-1.79-0.05c-0.25,0-0.5-0.01-0.75-0.02
		c-0.25-0.02-0.45-0.01-0.61,0.02c0-0.03,0-0.57,0-1.62s-0.91-1.68-2.73-1.9c-0.41-0.06-1.02-0.09-1.83-0.09
		c-0.88,0-1.67,0.06-2.37,0.19s-1.23,0.3-1.57,0.52c-0.41,0.31-0.72,0.77-0.94,1.36c-0.22,0.6-0.33,1.17-0.33,1.74
		c0,0.44,0.06,0.74,0.19,0.89c0.34,0.72,0.8,1.22,1.36,1.5c0.31,0.22,1.08,0.49,2.3,0.8c1.22,0.31,2.27,0.49,3.15,0.52
		c1.28,0.03,2.42,0.23,3.41,0.59c0.99,0.36,1.76,0.85,2.33,1.48c0.56,0.69,0.98,1.37,1.25,2.04c0.27,0.67,0.4,1.4,0.4,2.19
		c0,0.97-0.23,2.15-0.71,3.53c-0.69,1.47-1.79,2.55-3.29,3.24c-1.5,0.69-3.21,1.02-5.12,0.99c-2.1,0.06-3.95-0.21-5.55-0.82
		c-1.6-0.61-2.84-1.53-3.71-2.75c-0.88-1.22-1.32-2.66-1.32-4.32v-0.24c0.56-0.06,1.39-0.09,2.49-0.09c1.22,0,1.88,0.05,1.97,0.14
		c0.06,0.06,0.2,0.42,0.4,1.06c0.2,0.64,0.57,1.29,1.1,1.95c0.53,0.66,1.44,1.03,2.73,1.13c1,0.06,1.6,0.09,1.79,0.09
		c0.5,0,0.92-0.05,1.25-0.14c0.33-0.09,0.76-0.27,1.29-0.52c1.6-0.72,2.38-1.77,2.35-3.15c0.03-0.91-0.21-1.61-0.73-2.12
		c-0.52-0.5-1.17-0.84-1.95-1.01c-0.78-0.17-1.85-0.34-3.2-0.49c-0.97-0.09-1.76-0.19-2.35-0.28c-0.6-0.09-1.13-0.25-1.6-0.47
		c-1.63-0.53-2.88-1.37-3.74-2.51c-0.86-1.14-1.29-2.39-1.29-3.74c0-1.47,0.43-2.81,1.29-4.02c0.86-1.21,2.04-2,3.55-2.37
		c1.28-0.34,2.93-0.52,4.94-0.52c0.47,0,1.17,0.03,2.11,0.09c1.35,0.09,2.6,0.33,3.76,0.71c1.1,0.47,1.99,1.28,2.68,2.42
		C211.34,14.09,211.69,15.37,211.69,16.78z"/>
	<path d="M218.41,10.86c0.06,0.34,0.09,0.78,0.09,1.32v1.17c1.16-1.16,2.54-1.86,4.14-2.11c1.1-0.22,2.02-0.33,2.77-0.33
		c1.35,0,2.46,0.27,3.34,0.8c0.69,0.31,1.14,0.75,1.36,1.32c0.22-0.12,0.54-0.35,0.96-0.68c0.42-0.33,1-0.64,1.74-0.94
		c0.74-0.3,1.76-0.46,3.08-0.49c1.57-0.06,2.8,0.01,3.69,0.21c0.89,0.2,1.7,0.62,2.42,1.25c0.41,0.34,0.69,1.16,0.85,2.44
		c0.16,1.29,0.23,2.98,0.23,5.08c0,1.19-0.03,3.07-0.09,5.64c-0.06,2.51-0.09,4.29-0.09,5.36c0,0.88,0.03,1.94,0.09,3.2
		c-1.13,0.19-2.46,0.25-3.99,0.19c-0.06-0.85-0.09-2.4-0.09-4.65c0.06-2.44,0.09-4.32,0.09-5.64V22c-0.03-0.25-0.06-0.71-0.09-1.36
		c-0.03-0.66-0.09-1.38-0.19-2.16c-0.09-0.78-0.28-1.38-0.56-1.79c-0.19-0.63-0.8-0.99-1.83-1.08c-0.31-0.06-0.77-0.09-1.36-0.09
		c-0.91,0-1.69,0.15-2.35,0.45c-0.66,0.3-1.13,0.76-1.41,1.39c-0.06,0.69-0.09,1.24-0.09,1.65l0.05,1.32v1.74
		c0,1.07-0.03,2.7-0.09,4.89l-0.05,4.7c0,1.16,0.02,1.99,0.05,2.49c-0.66,0.09-1.55,0.14-2.68,0.14h-1.46
		c-0.06-0.63-0.09-1.74-0.09-3.34v-2.49l0.05-3.48c0-2.16-0.06-4.07-0.19-5.73c0-1.32-0.22-2.22-0.66-2.7
		c-0.44-0.49-1.25-0.73-2.44-0.73c-3.32,0-5.11,1.86-5.36,5.59c-0.03,0.47-0.05,1.16-0.05,2.07c0,1,0.03,2.41,0.09,4.23l0.05,2.3
		c0,1.29-0.05,2.62-0.14,3.99v0.19c-0.47,0.09-0.91,0.14-1.32,0.14l-1.55-0.05c-0.47,0-0.85,0.02-1.13,0.05l-0.05-8.08
		c-0.06-3.7-0.09-6.47-0.09-8.32c0-1.5,0.03-3.88,0.09-7.14c0.81,0.06,1.3,0.09,1.46,0.09l1.03-0.05c0.16,0,0.36-0.01,0.61-0.05
		c0.25-0.03,0.5-0.05,0.75-0.05C218.27,10.72,218.41,10.76,218.41,10.86z"/>
	<path d="M261.22,10.58c0.72-0.03,1.65,0,2.77,0.09l1.22,0.09c0.06,0.5,0.09,0.88,0.09,1.13v0.47c-0.03,0.72-0.05,1.8-0.05,3.24
		c0,1.19,0.03,2.95,0.09,5.26l0.05,5.26c0,2.26-0.06,4.31-0.19,6.16c0,0.09,0,0.3,0,0.61s-0.03,0.59-0.09,0.85
		c-0.06,0.25-0.23,0.41-0.52,0.47h-0.8l-1.5-0.05c-0.25,0-0.47,0.02-0.66,0.05s-0.36,0.05-0.52,0.05c-0.31-0.09-0.47-0.44-0.47-1.03
		c-0.03-0.25-0.02-0.53,0.02-0.85c0.05-0.31,0.07-0.58,0.07-0.8c-0.75,1.03-1.94,1.74-3.57,2.12c-1.63,0.38-3.23,0.56-4.79,0.56
		c-1.5,0-2.78-0.67-3.83-2c-1.05-1.33-1.83-2.97-2.33-4.91c-0.5-1.94-0.75-3.84-0.75-5.69c0-2.04,0.34-3.87,1.03-5.5
		c0.69-1.63,1.64-2.92,2.84-3.88c1.21-0.96,2.55-1.45,4.02-1.48l1.5-0.05c1.41,0,2.58,0.17,3.5,0.49c0.92,0.33,1.61,0.93,2.04,1.81
		c0-0.28,0.03-0.64,0.09-1.08c0.06-0.63,0.09-1.07,0.09-1.32C260.61,10.61,260.82,10.58,261.22,10.58z M255.96,14.8
		c-1.63-0.03-3,0.38-4.11,1.25c-1.11,0.86-1.79,1.89-2.04,3.08c-0.25,0.91-0.38,2.13-0.38,3.67c0.16,5.04,2.19,7.46,6.11,7.24
		c1.6,0,2.76-0.28,3.48-0.85c0.72-0.56,1.17-1.36,1.34-2.4c0.17-1.03,0.26-2.58,0.26-4.65c0-2.26-0.09-3.85-0.28-4.77
		c-0.19-0.92-0.59-1.56-1.2-1.9C258.52,15.12,257.46,14.9,255.96,14.8z"/>
	<path d="M269.82,0l4.28,0.14c0,1.29-0.03,4.46-0.09,9.54c-0.06,6.27-0.09,11.19-0.09,14.76c0,3.95,0.05,7.1,0.14,9.45
		c-0.19,0.22-0.71,0.33-1.55,0.33l-1.46-0.05c-0.28-0.03-0.63-0.05-1.03-0.05c-0.25,0-0.41,0.02-0.47,0.05
		c0.19-2.54,0.28-5.09,0.28-7.66c0-1.94-0.06-4.86-0.19-8.74c-0.13-3.88-0.19-6.81-0.19-8.79C269.45,5.66,269.57,2.66,269.82,0z"/>
	<path d="M279.51,0l4.28,0.14c0,1.29-0.03,4.46-0.09,9.54c-0.06,6.27-0.09,11.19-0.09,14.76c0,3.95,0.05,7.1,0.14,9.45
		c-0.19,0.22-0.71,0.33-1.55,0.33l-1.46-0.05c-0.28-0.03-0.63-0.05-1.03-0.05c-0.25,0-0.41,0.02-0.47,0.05
		c0.19-2.54,0.28-5.09,0.28-7.66c0-1.94-0.06-4.86-0.19-8.74c-0.13-3.88-0.19-6.81-0.19-8.79C279.13,5.66,279.25,2.66,279.51,0z"/>
	<path d="M304.79,1.97v7.19l0.05,2.63c2.04-0.06,4.56-0.17,7.57-0.33c0.19,0.25,0.28,0.72,0.28,1.41l-0.05,1.08
		c-0.06,0.69-0.08,1.19-0.05,1.5c-3.42,0-5.97-0.02-7.66-0.05v7.19v1.6c0,1.41,0.03,2.41,0.09,3.01c0.06,0.6,0.19,1.11,0.38,1.55
		c0.5,0.63,1.51,1.02,3.03,1.17c1.52,0.16,2.91,0.21,4.16,0.14c0.16,1.25,0.24,2.05,0.24,2.4c0,0.56-0.08,1.13-0.24,1.69
		c-0.66,0.03-1.69,0.05-3.1,0.05c-2.44,0-4.36-0.3-5.73-0.89c-1.38-0.59-2.26-1.79-2.63-3.57c-0.35-3.04-0.52-7-0.52-11.89V15.6
		c-0.19,0.03-0.66,0.05-1.41,0.05l-3.57-0.05l0.14-3.85c0.69,0.06,2.33,0.09,4.94,0.09l-0.05-4.93V4.7c0-1.32,0.03-2.24,0.09-2.77
		c0.44-0.03,1.11-0.02,2.02,0.05l1.27,0.05C304.38,2.02,304.63,2.01,304.79,1.97z"/>
	<path d="M319.22,10.81c0,0.38,0.01,0.67,0.02,0.87c0.02,0.2,0.02,0.45,0.02,0.73c0.22-0.12,0.52-0.27,0.92-0.42
		c0.39-0.16,0.82-0.31,1.29-0.47c0.72-0.25,1.59-0.43,2.61-0.54c1.02-0.11,1.93-0.17,2.75-0.17c0.75,0,1.13,0.03,1.13,0.09
		l-0.05,3.9c0,0.63,0.02,1.1,0.05,1.41c-0.47-0.19-1-0.36-1.6-0.52c-0.69-0.16-1.44-0.24-2.26-0.24c-0.85,0-1.8,0.13-2.87,0.38
		c-0.88,0.22-1.47,0.55-1.79,0.99c-0.31,0.44-0.45,1.27-0.42,2.49c0.12,4.29,0.19,9.17,0.19,14.62v0.19
		c-0.53,0.12-1.08,0.19-1.65,0.19c-0.22,0-0.57-0.01-1.06-0.02c-0.49-0.02-0.98-0.01-1.48,0.02l-0.05-8.08
		c-0.06-3.7-0.09-6.47-0.09-8.32c0-1.5,0.03-3.88,0.09-7.14c0.31,0.03,0.65,0.04,1.01,0.02c0.36-0.01,0.68-0.02,0.96-0.02
		c0.38-0.03,0.88-0.05,1.5-0.05C318.97,10.72,319.22,10.75,319.22,10.81z"/>
	<path d="M334.35,22.28v0.85l-0.05,1.36c0,3.88,1.91,5.83,5.73,5.83c1.53,0,2.67-0.35,3.41-1.06c0.74-0.71,1.1-1.67,1.1-2.89
		c0-0.19-0.03-0.53-0.09-1.03c0.66-0.09,1.27-0.14,1.83-0.14c0.5,0,0.88,0.02,1.13,0.05c0.19,0,0.42,0.01,0.68,0.02
		c0.27,0.02,0.57,0.01,0.92-0.02c0.03,1.79-0.03,3.21-0.19,4.28c-0.16,1.07-0.53,2.08-1.13,3.06c-0.56,0.85-1.54,1.45-2.94,1.81
		c-1.39,0.36-2.92,0.54-4.58,0.54c-0.75,0-1.45-0.03-2.09-0.09c-0.64-0.06-1.04-0.13-1.2-0.19c-2.44-0.41-4.21-1.95-5.31-4.63
		c-1.1-2.68-1.57-5.74-1.41-9.19c0.03-0.25,0.08-0.78,0.14-1.58c0.06-0.8,0.15-1.62,0.26-2.47c0.11-0.85,0.32-1.68,0.63-2.49
		c0.59-1.38,1.68-2.44,3.24-3.2c1.57-0.75,3.31-1.13,5.22-1.13c1,0,2.05,0.13,3.15,0.38c4.26,0.72,6.39,3.93,6.39,9.63
		c0,0.47-0.03,1.14-0.09,2.02c-0.6,0.19-2.35,0.34-5.26,0.47c-0.35,0.03-1.1,0.05-2.26,0.05c-2.48,0-4.31-0.03-5.5-0.09
		C335.31,22.42,334.73,22.37,334.35,22.28z M345.77,18.75c-0.03-0.97-0.27-1.93-0.73-2.87c-0.45-0.94-1.1-1.68-1.95-2.21
		c-0.47-0.22-0.88-0.36-1.22-0.42c-0.35-0.06-0.78-0.09-1.32-0.09c-2.04,0-3.49,0.42-4.35,1.27c-0.86,0.85-1.4,2.05-1.62,3.62
		c-0.06,0.38-0.09,0.63-0.09,0.75c0,0.38,0.18,0.63,0.54,0.75c0.36,0.13,1.14,0.19,2.33,0.19c1.16,0,2.15-0.02,2.96-0.05
		c3.01,0,4.7-0.02,5.08-0.05c0.16-0.03,0.26-0.07,0.31-0.12s0.07-0.13,0.07-0.26V18.75z"/>
	<path d="M355.22,22.28v0.85l-0.05,1.36c0,3.88,1.91,5.83,5.73,5.83c1.53,0,2.67-0.35,3.41-1.06c0.74-0.71,1.1-1.67,1.1-2.89
		c0-0.19-0.03-0.53-0.09-1.03c0.66-0.09,1.27-0.14,1.83-0.14c0.5,0,0.88,0.02,1.13,0.05c0.19,0,0.42,0.01,0.68,0.02
		c0.27,0.02,0.57,0.01,0.92-0.02c0.03,1.79-0.03,3.21-0.19,4.28c-0.16,1.07-0.53,2.08-1.13,3.06c-0.56,0.85-1.54,1.45-2.94,1.81
		c-1.39,0.36-2.92,0.54-4.58,0.54c-0.75,0-1.45-0.03-2.09-0.09c-0.64-0.06-1.04-0.13-1.2-0.19c-2.44-0.41-4.21-1.95-5.31-4.63
		c-1.1-2.68-1.57-5.74-1.41-9.19c0.03-0.25,0.08-0.78,0.14-1.58c0.06-0.8,0.15-1.62,0.26-2.47c0.11-0.85,0.32-1.68,0.63-2.49
		c0.59-1.38,1.68-2.44,3.24-3.2c1.57-0.75,3.31-1.13,5.22-1.13c1,0,2.05,0.13,3.15,0.38c4.26,0.72,6.39,3.93,6.39,9.63
		c0,0.47-0.03,1.14-0.09,2.02c-0.6,0.19-2.35,0.34-5.26,0.47c-0.35,0.03-1.1,0.05-2.26,0.05c-2.48,0-4.31-0.03-5.5-0.09
		C356.18,22.42,355.6,22.37,355.22,22.28z M366.64,18.75c-0.03-0.97-0.27-1.93-0.73-2.87c-0.45-0.94-1.1-1.68-1.95-2.21
		c-0.47-0.22-0.88-0.36-1.22-0.42c-0.35-0.06-0.78-0.09-1.32-0.09c-2.04,0-3.49,0.42-4.35,1.27c-0.86,0.85-1.4,2.05-1.62,3.62
		c-0.06,0.38-0.09,0.63-0.09,0.75c0,0.38,0.18,0.63,0.54,0.75c0.36,0.13,1.14,0.19,2.33,0.19c1.16,0,2.15-0.02,2.96-0.05
		c3.01,0,4.7-0.02,5.08-0.05c0.16-0.03,0.26-0.07,0.31-0.12s0.07-0.13,0.07-0.26V18.75z"/>
	<path d="M391.32,16.78c0,0.16-0.55,0.23-1.65,0.23c-0.81,0-1.41-0.02-1.79-0.05c-0.25,0-0.5-0.01-0.75-0.02
		c-0.25-0.02-0.45-0.01-0.61,0.02c0-0.03,0-0.57,0-1.62s-0.91-1.68-2.73-1.9c-0.41-0.06-1.02-0.09-1.83-0.09
		c-0.88,0-1.67,0.06-2.37,0.19s-1.23,0.3-1.57,0.52c-0.41,0.31-0.72,0.77-0.94,1.36c-0.22,0.6-0.33,1.17-0.33,1.74
		c0,0.44,0.06,0.74,0.19,0.89c0.34,0.72,0.8,1.22,1.36,1.5c0.31,0.22,1.08,0.49,2.3,0.8c1.22,0.31,2.27,0.49,3.15,0.52
		c1.28,0.03,2.42,0.23,3.41,0.59c0.99,0.36,1.76,0.85,2.33,1.48c0.56,0.69,0.98,1.37,1.25,2.04c0.27,0.67,0.4,1.4,0.4,2.19
		c0,0.97-0.23,2.15-0.71,3.53c-0.69,1.47-1.79,2.55-3.29,3.24c-1.5,0.69-3.21,1.02-5.12,0.99c-2.1,0.06-3.95-0.21-5.55-0.82
		c-1.6-0.61-2.84-1.53-3.71-2.75c-0.88-1.22-1.32-2.66-1.32-4.32v-0.24c0.56-0.06,1.39-0.09,2.49-0.09c1.22,0,1.88,0.05,1.97,0.14
		c0.06,0.06,0.2,0.42,0.4,1.06c0.2,0.64,0.57,1.29,1.1,1.95c0.53,0.66,1.44,1.03,2.73,1.13c1,0.06,1.6,0.09,1.79,0.09
		c0.5,0,0.92-0.05,1.25-0.14c0.33-0.09,0.76-0.27,1.29-0.52c1.6-0.72,2.38-1.77,2.35-3.15c0.03-0.91-0.21-1.61-0.73-2.12
		c-0.52-0.5-1.17-0.84-1.95-1.01c-0.78-0.17-1.85-0.34-3.2-0.49c-0.97-0.09-1.76-0.19-2.35-0.28c-0.6-0.09-1.13-0.25-1.6-0.47
		c-1.63-0.53-2.88-1.37-3.74-2.51c-0.86-1.14-1.29-2.39-1.29-3.74c0-1.47,0.43-2.81,1.29-4.02c0.86-1.21,2.04-2,3.55-2.37
		c1.28-0.34,2.93-0.52,4.94-0.52c0.47,0,1.17,0.03,2.11,0.09c1.35,0.09,2.6,0.33,3.76,0.71c1.1,0.47,1.99,1.28,2.68,2.42
		C390.97,14.09,391.32,15.37,391.32,16.78z"/>
	<path d="M401.19,10.67c0.53,0.03,1.33,0.05,2.4,0.05c1.03,0,1.8,0.03,2.3,0.09l0.71,4.32c0.81,5.39,1.71,10.18,2.68,14.38
		c1.53-4.35,2.72-7.94,3.55-10.76c0.83-2.82,1.51-5.51,2.04-8.08c0.28,0.03,1.02,0.02,2.21-0.05c1.1-0.06,1.93-0.03,2.49,0.09
		l0.28,1.55c0.53,2.7,1.09,5.24,1.67,7.64c0.58,2.4,1.48,5.49,2.7,9.28c0.75-2.88,1.54-6.45,2.35-10.72c0.12-0.53,0.38-1.7,0.75-3.5
		s0.71-3.2,0.99-4.21c1.13-0.06,2.05-0.09,2.77-0.09c0.69,0,1.24,0.02,1.65,0.05c-0.75,2.57-1.39,4.9-1.9,6.98
		c-0.52,2.08-0.98,4.04-1.39,5.85c-0.13,0.5-0.42,1.76-0.87,3.78c-0.45,2.02-1.03,4.32-1.72,6.89c-0.72,0.16-1.38,0.2-1.97,0.14
		l-3.34-0.05c-1.41-5.55-2.95-11-4.61-16.36c-1.22,3.95-1.96,6.36-2.21,7.24c-1.1,3.85-2.02,6.88-2.77,9.07
		c-0.44,0.06-1.21,0.09-2.3,0.09l-3.57-0.05C404.63,26.2,403,18.31,401.19,10.67z"/>
	<path d="M435.73,10.43c0.22-0.03,0.66-0.03,1.32,0c0.94,0.06,1.97,0.09,3.1,0.09v0.14c0,1.41-0.03,3.59-0.09,6.53
		c-0.09,3.01-0.14,6.05-0.14,9.12c0,2.88,0.06,5.45,0.19,7.71c-0.44,0.09-1.1,0.14-1.97,0.14c-0.88,0-1.41,0-1.6,0
		c-0.56,0-0.91,0.02-1.03,0.05c0.03-0.91,0.05-2.29,0.05-4.14v-4.23V21.9c-0.06-2.19-0.09-3.88-0.09-5.08
		c0-2.16,0.09-4.28,0.28-6.35V10.43z M435.54,0.33c1.94,0.06,3.42,0.09,4.42,0.09l0.14,6.2c-0.31,0.16-0.88,0.24-1.69,0.24
		c-0.5,0-0.88-0.02-1.13-0.05c-0.19,0-0.41-0.01-0.66-0.02c-0.25-0.01-0.55-0.01-0.89,0.02c0-0.47-0.03-1.24-0.09-2.3
		C435.54,2.44,435.51,1.05,435.54,0.33z"/>
	<path d="M452.23,1.97v7.19l0.05,2.63c2.04-0.06,4.56-0.17,7.57-0.33c0.19,0.25,0.28,0.72,0.28,1.41l-0.05,1.08
		c-0.06,0.69-0.08,1.19-0.05,1.5c-3.42,0-5.97-0.02-7.66-0.05v7.19v1.6c0,1.41,0.03,2.41,0.09,3.01c0.06,0.6,0.19,1.11,0.38,1.55
		c0.5,0.63,1.51,1.02,3.03,1.17c1.52,0.16,2.91,0.21,4.16,0.14c0.16,1.25,0.24,2.05,0.24,2.4c0,0.56-0.08,1.13-0.24,1.69
		c-0.66,0.03-1.69,0.05-3.1,0.05c-2.44,0-4.36-0.3-5.73-0.89c-1.38-0.59-2.26-1.79-2.63-3.57c-0.35-3.04-0.52-7-0.52-11.89V15.6
		c-0.19,0.03-0.66,0.05-1.41,0.05l-3.57-0.05l0.14-3.85c0.69,0.06,2.33,0.09,4.94,0.09l-0.05-4.93V4.7c0-1.32,0.03-2.24,0.09-2.77
		c0.44-0.03,1.11-0.02,2.02,0.05l1.27,0.05C451.82,2.02,452.07,2.01,452.23,1.97z"/>
	<path d="M466.61,8.98v4.18c0.85-0.72,1.59-1.26,2.23-1.62c0.64-0.36,1.59-0.59,2.84-0.68c0.75-0.09,1.46-0.14,2.11-0.14
		c2.29,0,4.07,0.55,5.36,1.65c0.41,0.34,0.69,1.16,0.85,2.44c0.16,1.29,0.23,2.98,0.23,5.08c0,1.19-0.03,3.07-0.09,5.64
		c-0.06,2.51-0.09,4.29-0.09,5.36c0,0.88,0.03,1.94,0.09,3.2c-1.25,0.19-2.6,0.25-4.04,0.19c-0.06-0.94-0.09-1.75-0.09-2.44V29
		v-9.21c-0.06-2-0.53-3.31-1.41-3.9c-0.19-0.12-0.56-0.25-1.13-0.38c-0.66-0.19-1.33-0.28-2.02-0.28c-1.22,0-2.26,0.31-3.13,0.92
		c-0.86,0.61-1.42,1.56-1.67,2.84c-0.22,1.19-0.33,2.62-0.33,4.28l0.05,1.6c0.06,2.07,0.09,3.78,0.09,5.12
		c0,1.69-0.03,2.99-0.09,3.9v0.19c-0.63,0.16-1.13,0.23-1.5,0.23l-1.41-0.05c-0.44,0-0.8,0.02-1.08,0.05c0-3.6-0.02-6.58-0.05-8.93
		L462.29,11c0-3.51,0.03-7.11,0.09-10.81c0.97,0.09,1.75,0.13,2.35,0.09c0.16,0,0.35-0.02,0.59-0.05s0.48-0.05,0.73-0.05
		c0.31,0,0.47,0.05,0.47,0.14c0.06,0.28,0.09,2.19,0.09,5.73V8.98z"/>
	<path d="M0,67.07c0.53,0.03,1.33,0.05,2.4,0.05c1.03,0,1.8,0.03,2.3,0.09l0.71,4.32c0.81,5.39,1.71,10.18,2.68,14.38
		c1.53-4.35,2.72-7.94,3.55-10.76c0.83-2.82,1.51-5.51,2.04-8.08c0.28,0.03,1.02,0.02,2.21-0.05c1.1-0.06,1.93-0.03,2.49,0.09
		l0.28,1.55c0.53,2.7,1.09,5.24,1.67,7.64c0.58,2.4,1.48,5.49,2.7,9.28c0.75-2.88,1.54-6.45,2.35-10.72c0.12-0.53,0.38-1.7,0.75-3.5
		s0.71-3.2,0.99-4.21c1.13-0.06,2.05-0.09,2.77-0.09c0.69,0,1.24,0.02,1.65,0.05c-0.75,2.57-1.39,4.9-1.9,6.98
		c-0.52,2.08-0.98,4.04-1.39,5.85c-0.13,0.5-0.42,1.76-0.87,3.78c-0.45,2.02-1.03,4.32-1.72,6.89c-0.72,0.16-1.38,0.2-1.97,0.14
		l-3.34-0.05c-1.41-5.55-2.95-11-4.61-16.36c-1.22,3.95-1.96,6.36-2.21,7.24c-1.1,3.85-2.02,6.88-2.77,9.07
		c-0.44,0.06-1.21,0.09-2.3,0.09l-3.57-0.05C3.45,82.6,1.82,74.71,0,67.07z"/>
	<path d="M37.51,65.38v4.18c0.85-0.72,1.59-1.26,2.23-1.62c0.64-0.36,1.59-0.59,2.84-0.68c0.75-0.09,1.46-0.14,2.11-0.14
		c2.29,0,4.07,0.55,5.36,1.65c0.41,0.34,0.69,1.16,0.85,2.44c0.16,1.29,0.23,2.98,0.23,5.08c0,1.19-0.03,3.07-0.09,5.64
		c-0.06,2.51-0.09,4.29-0.09,5.36c0,0.88,0.03,1.94,0.09,3.2c-1.25,0.19-2.6,0.25-4.04,0.19c-0.06-0.94-0.09-1.75-0.09-2.44V85.4
		v-9.21c-0.06-2-0.53-3.31-1.41-3.9c-0.19-0.12-0.56-0.25-1.13-0.38c-0.66-0.19-1.33-0.28-2.02-0.28c-1.22,0-2.26,0.31-3.13,0.92
		c-0.86,0.61-1.42,1.56-1.67,2.84c-0.22,1.19-0.33,2.62-0.33,4.28l0.05,1.6c0.06,2.07,0.09,3.78,0.09,5.12
		c0,1.69-0.03,2.99-0.09,3.9v0.19c-0.63,0.16-1.13,0.23-1.5,0.23l-1.41-0.05c-0.44,0-0.8,0.02-1.08,0.05c0-3.6-0.02-6.58-0.05-8.93
		L33.18,67.4c0-3.51,0.03-7.11,0.09-10.81c0.97,0.09,1.75,0.13,2.35,0.09c0.16,0,0.35-0.02,0.59-0.05s0.48-0.05,0.73-0.05
		c0.31,0,0.47,0.05,0.47,0.14c0.06,0.28,0.09,2.19,0.09,5.73V65.38z"/>
	<path d="M55.6,66.83c0.22-0.03,0.66-0.03,1.32,0c0.94,0.06,1.97,0.09,3.1,0.09v0.14c0,1.41-0.03,3.59-0.09,6.53
		c-0.09,3.01-0.14,6.05-0.14,9.12c0,2.88,0.06,5.45,0.19,7.71c-0.44,0.09-1.1,0.14-1.97,0.14c-0.88,0-1.41,0-1.6,0
		c-0.56,0-0.91,0.02-1.03,0.05c0.03-0.91,0.05-2.29,0.05-4.14v-4.23V78.3c-0.06-2.19-0.09-3.88-0.09-5.08
		c0-2.16,0.09-4.28,0.28-6.35V66.83z M55.41,56.73c1.94,0.06,3.42,0.09,4.42,0.09l0.14,6.2c-0.31,0.16-0.88,0.24-1.69,0.24
		c-0.5,0-0.88-0.02-1.13-0.05c-0.19,0-0.41-0.01-0.66-0.02c-0.25-0.01-0.55-0.01-0.89,0.02c0-0.47-0.03-1.24-0.09-2.3
		C55.41,58.84,55.38,57.45,55.41,56.73z"/>
	<path d="M72.1,58.37v7.19l0.05,2.63c2.04-0.06,4.56-0.17,7.57-0.33c0.19,0.25,0.28,0.72,0.28,1.41l-0.05,1.08
		c-0.06,0.69-0.08,1.19-0.05,1.5c-3.42,0-5.97-0.02-7.66-0.05v7.19v1.6c0,1.41,0.03,2.41,0.09,3.01c0.06,0.6,0.19,1.11,0.38,1.55
		c0.5,0.63,1.51,1.02,3.03,1.17c1.52,0.16,2.91,0.21,4.16,0.14c0.16,1.25,0.24,2.05,0.24,2.4c0,0.56-0.08,1.13-0.24,1.69
		c-0.66,0.03-1.69,0.05-3.1,0.05c-2.44,0-4.36-0.3-5.73-0.89c-1.38-0.59-2.26-1.79-2.63-3.57c-0.35-3.04-0.52-7-0.52-11.89V72
		c-0.19,0.03-0.66,0.05-1.41,0.05L62.93,72l0.14-3.85c0.69,0.06,2.33,0.09,4.94,0.09l-0.05-4.93V61.1c0-1.32,0.03-2.24,0.09-2.77
		c0.44-0.03,1.11-0.02,2.02,0.05l1.27,0.05C71.69,58.42,71.94,58.41,72.1,58.37z"/>
	<path d="M85.73,78.68v0.85l-0.05,1.36c0,3.88,1.91,5.83,5.73,5.83c1.53,0,2.67-0.35,3.41-1.06c0.74-0.71,1.1-1.67,1.1-2.89
		c0-0.19-0.03-0.53-0.09-1.03c0.66-0.09,1.27-0.14,1.83-0.14c0.5,0,0.88,0.02,1.13,0.05c0.19,0,0.42,0.01,0.68,0.02
		c0.27,0.02,0.57,0.01,0.92-0.02c0.03,1.79-0.03,3.21-0.19,4.28c-0.16,1.07-0.53,2.08-1.13,3.06c-0.56,0.85-1.54,1.45-2.94,1.81
		c-1.39,0.36-2.92,0.54-4.58,0.54c-0.75,0-1.45-0.03-2.09-0.09c-0.64-0.06-1.04-0.13-1.2-0.19c-2.44-0.41-4.21-1.95-5.31-4.63
		c-1.1-2.68-1.57-5.74-1.41-9.19c0.03-0.25,0.08-0.78,0.14-1.58c0.06-0.8,0.15-1.62,0.26-2.47c0.11-0.85,0.32-1.68,0.63-2.49
		c0.59-1.38,1.68-2.44,3.24-3.2c1.57-0.75,3.31-1.13,5.22-1.13c1,0,2.05,0.13,3.15,0.38c4.26,0.72,6.39,3.93,6.39,9.63
		c0,0.47-0.03,1.14-0.09,2.02c-0.6,0.19-2.35,0.34-5.26,0.47c-0.35,0.03-1.1,0.05-2.26,0.05c-2.48,0-4.31-0.03-5.5-0.09
		C86.68,78.82,86.1,78.77,85.73,78.68z M97.15,75.15c-0.03-0.97-0.27-1.93-0.73-2.87c-0.45-0.94-1.1-1.68-1.95-2.21
		c-0.47-0.22-0.88-0.36-1.22-0.42c-0.35-0.06-0.78-0.09-1.32-0.09c-2.04,0-3.49,0.42-4.35,1.27c-0.86,0.85-1.4,2.05-1.62,3.62
		c-0.06,0.38-0.09,0.63-0.09,0.75c0,0.38,0.18,0.63,0.54,0.75c0.36,0.13,1.14,0.19,2.33,0.19c1.16,0,2.15-0.02,2.96-0.05
		c3.01,0,4.7-0.02,5.08-0.05c0.16-0.03,0.26-0.07,0.31-0.12s0.07-0.13,0.07-0.26V75.15z"/>
	<path d="M119.33,73.04v17.39c-0.47-0.03-1.02-0.02-1.65,0.05l-1.13,0.05c-0.5,0-0.91-0.03-1.22-0.09
		c-0.13-0.75-0.19-3.48-0.19-8.18l0.05-5.69c0.03-0.94,0.05-2.12,0.05-3.53c-0.35,0.03-1.03,0.05-2.07,0.05
		c-0.28-0.03-0.69-0.05-1.22-0.05c-0.47,0-0.81,0.02-1.03,0.05l-0.14-4.04c2.32,0,3.78,0.02,4.37,0.05l-0.05-1.88
		c0-2.35,0.37-4.32,1.1-5.92c0.74-1.6,2.15-2.54,4.25-2.82c1.72-0.16,3.57-0.24,5.55-0.24h1.83c0.19,0.6,0.28,1.22,0.28,1.88
		c0,0.34-0.08,1.14-0.23,2.4c-0.53-0.03-2.29,0.02-5.26,0.14c-1,0.06-1.69,0.15-2.07,0.26s-0.66,0.4-0.85,0.87s-0.28,1.3-0.28,2.49
		c0,0.41,0.03,1.39,0.09,2.96c1.85-0.03,4.61-0.05,8.27-0.05c-0.03,0.12-0.08,0.64-0.14,1.55c0,0.94-0.03,1.77-0.09,2.49l-5.4-0.14
		L119.33,73.04z"/>
	<path d="M130.94,56.4l4.28,0.14c0,1.29-0.03,4.46-0.09,9.54c-0.06,6.27-0.09,11.19-0.09,14.76c0,3.95,0.05,7.1,0.14,9.45
		c-0.19,0.22-0.71,0.33-1.55,0.33l-1.46-0.05c-0.28-0.03-0.63-0.05-1.03-0.05c-0.25,0-0.41,0.02-0.47,0.05
		c0.19-2.54,0.28-5.09,0.28-7.66c0-1.94-0.06-4.86-0.19-8.74c-0.13-3.88-0.19-6.81-0.19-8.79C130.56,62.06,130.69,59.06,130.94,56.4
		z"/>
	<path d="M138.88,75.29c0-1.16,0.05-2.16,0.16-3.01c0.11-0.85,0.38-1.9,0.82-3.15c0.41-0.91,1.28-1.59,2.61-2.04
		c1.33-0.45,2.81-0.68,4.44-0.68c0.22,0.03,0.53,0.05,0.94,0.05l1.88-0.05c2.63,0,4.65,0.69,6.06,2.07
		c0.56,0.38,0.99,1.08,1.29,2.12c0.3,1.03,0.48,2.42,0.54,4.16c0.06,1.74,0.09,2.75,0.09,3.03c-0.13,3.13-0.27,5.62-0.45,7.47
		c-0.17,1.85-0.52,3.04-1.06,3.57c-0.6,0.85-1.42,1.43-2.47,1.74c-1.05,0.31-2.3,0.47-3.74,0.47c-0.56,0-1.41-0.03-2.54-0.09
		l-2.16-0.05c-1.85-0.31-3.24-0.99-4.16-2.02c-0.92-1.03-1.52-2.24-1.79-3.62c-0.27-1.38-0.4-3.04-0.4-4.98v-2.44
		C138.98,76.67,138.95,75.83,138.88,75.29z M148.47,70.83c-2.13,0-3.67,0.55-4.61,1.65c-0.41,0.5-0.67,1.14-0.78,1.9
		c-0.11,0.77-0.15,1.76-0.12,2.98c-0.03,0.47-0.02,1.1,0.02,1.88c0.05,0.78,0.07,1.39,0.07,1.83l0.09,1.97
		c0.09,1.25,0.45,2.14,1.06,2.66c0.61,0.52,1.39,0.87,2.33,1.06c0.63,0.09,1.27,0.14,1.93,0.14c1.22,0,2.29-0.22,3.2-0.66
		c0.91-0.44,1.49-1.16,1.74-2.16c0.12-0.81,0.19-1.46,0.19-1.93c0.16-2.19,0.24-3.68,0.24-4.46c0-2.07-0.38-3.73-1.13-4.98
		C151.95,71.46,150.54,70.83,148.47,70.83z"/>
	<path d="M158.72,67.07c0.53,0.03,1.33,0.05,2.4,0.05c1.03,0,1.8,0.03,2.3,0.09l0.71,4.32c0.81,5.39,1.71,10.18,2.68,14.38
		c1.53-4.35,2.72-7.94,3.55-10.76c0.83-2.82,1.51-5.51,2.04-8.08c0.28,0.03,1.02,0.02,2.21-0.05c1.1-0.06,1.93-0.03,2.49,0.09
		l0.28,1.55c0.53,2.7,1.09,5.24,1.67,7.64c0.58,2.4,1.48,5.49,2.7,9.28c0.75-2.88,1.54-6.45,2.35-10.72c0.12-0.53,0.38-1.7,0.75-3.5
		s0.71-3.2,0.99-4.21c1.13-0.06,2.05-0.09,2.77-0.09c0.69,0,1.24,0.02,1.65,0.05c-0.75,2.57-1.39,4.9-1.9,6.98
		c-0.52,2.08-0.98,4.04-1.39,5.85c-0.13,0.5-0.42,1.76-0.87,3.78c-0.45,2.02-1.03,4.32-1.72,6.89c-0.72,0.16-1.38,0.2-1.97,0.14
		l-3.34-0.05c-1.41-5.55-2.95-11-4.61-16.36c-1.22,3.95-1.96,6.36-2.21,7.24c-1.1,3.85-2.02,6.88-2.77,9.07
		c-0.44,0.06-1.21,0.09-2.3,0.09l-3.57-0.05C162.16,82.6,160.53,74.71,158.72,67.07z"/>
	<path d="M194.86,78.68v0.85l-0.05,1.36c0,3.88,1.91,5.83,5.73,5.83c1.53,0,2.67-0.35,3.41-1.06c0.74-0.71,1.1-1.67,1.1-2.89
		c0-0.19-0.03-0.53-0.09-1.03c0.66-0.09,1.27-0.14,1.83-0.14c0.5,0,0.88,0.02,1.13,0.05c0.19,0,0.42,0.01,0.68,0.02
		c0.27,0.02,0.57,0.01,0.92-0.02c0.03,1.79-0.03,3.21-0.19,4.28c-0.16,1.07-0.53,2.08-1.13,3.06c-0.56,0.85-1.54,1.45-2.94,1.81
		c-1.39,0.36-2.92,0.54-4.58,0.54c-0.75,0-1.45-0.03-2.09-0.09c-0.64-0.06-1.04-0.13-1.2-0.19c-2.44-0.41-4.21-1.95-5.31-4.63
		c-1.1-2.68-1.57-5.74-1.41-9.19c0.03-0.25,0.08-0.78,0.14-1.58c0.06-0.8,0.15-1.62,0.26-2.47c0.11-0.85,0.32-1.68,0.63-2.49
		c0.59-1.38,1.68-2.44,3.24-3.2c1.57-0.75,3.31-1.13,5.22-1.13c1,0,2.05,0.13,3.15,0.38c4.26,0.72,6.39,3.93,6.39,9.63
		c0,0.47-0.03,1.14-0.09,2.02c-0.6,0.19-2.35,0.34-5.26,0.47c-0.35,0.03-1.1,0.05-2.26,0.05c-2.48,0-4.31-0.03-5.5-0.09
		C195.82,78.82,195.24,78.77,194.86,78.68z M206.28,75.15c-0.03-0.97-0.27-1.93-0.73-2.87c-0.45-0.94-1.1-1.68-1.95-2.21
		c-0.47-0.22-0.88-0.36-1.22-0.42c-0.35-0.06-0.78-0.09-1.32-0.09c-2.04,0-3.49,0.42-4.35,1.27c-0.86,0.85-1.4,2.05-1.62,3.62
		c-0.06,0.38-0.09,0.63-0.09,0.75c0,0.38,0.18,0.63,0.54,0.75c0.36,0.13,1.14,0.19,2.33,0.19c1.16,0,2.15-0.02,2.96-0.05
		c3.01,0,4.7-0.02,5.08-0.05c0.16-0.03,0.26-0.07,0.31-0.12s0.07-0.13,0.07-0.26V75.15z"/>
	<path d="M216.53,67.21c0,0.38,0.01,0.67,0.02,0.87c0.02,0.2,0.02,0.45,0.02,0.73c0.22-0.12,0.52-0.27,0.92-0.42
		c0.39-0.16,0.82-0.31,1.29-0.47c0.72-0.25,1.59-0.43,2.61-0.54c1.02-0.11,1.93-0.17,2.75-0.17c0.75,0,1.13,0.03,1.13,0.09
		l-0.05,3.9c0,0.63,0.02,1.1,0.05,1.41c-0.47-0.19-1-0.36-1.6-0.52c-0.69-0.16-1.44-0.24-2.26-0.24c-0.85,0-1.8,0.13-2.87,0.38
		c-0.88,0.22-1.47,0.55-1.79,0.99c-0.31,0.44-0.45,1.27-0.42,2.49c0.12,4.29,0.19,9.17,0.19,14.62v0.19
		c-0.53,0.12-1.08,0.19-1.65,0.19c-0.22,0-0.57-0.01-1.06-0.02c-0.49-0.02-0.98-0.01-1.48,0.02l-0.05-8.08
		c-0.06-3.7-0.09-6.47-0.09-8.32c0-1.5,0.03-3.88,0.09-7.14c0.31,0.03,0.65,0.04,1.01,0.02c0.36-0.01,0.68-0.02,0.96-0.02
		c0.38-0.03,0.88-0.05,1.5-0.05C216.28,67.12,216.53,67.15,216.53,67.21z"/>
	<path d="M246.89,73.18c0,0.16-0.55,0.23-1.65,0.23c-0.81,0-1.41-0.02-1.79-0.05c-0.25,0-0.5-0.01-0.75-0.02
		c-0.25-0.02-0.45-0.01-0.61,0.02c0-0.03,0-0.57,0-1.62s-0.91-1.68-2.73-1.9c-0.41-0.06-1.02-0.09-1.83-0.09
		c-0.88,0-1.67,0.06-2.37,0.19s-1.23,0.3-1.57,0.52c-0.41,0.31-0.72,0.77-0.94,1.36c-0.22,0.6-0.33,1.17-0.33,1.74
		c0,0.44,0.06,0.74,0.19,0.89c0.34,0.72,0.8,1.22,1.36,1.5c0.31,0.22,1.08,0.49,2.3,0.8c1.22,0.31,2.27,0.49,3.15,0.52
		c1.28,0.03,2.42,0.23,3.41,0.59c0.99,0.36,1.76,0.85,2.33,1.48c0.56,0.69,0.98,1.37,1.25,2.04c0.27,0.67,0.4,1.4,0.4,2.19
		c0,0.97-0.23,2.15-0.71,3.53c-0.69,1.47-1.79,2.55-3.29,3.24c-1.5,0.69-3.21,1.02-5.12,0.99c-2.1,0.06-3.95-0.21-5.55-0.82
		c-1.6-0.61-2.84-1.53-3.71-2.75c-0.88-1.22-1.32-2.66-1.32-4.32v-0.24c0.56-0.06,1.39-0.09,2.49-0.09c1.22,0,1.88,0.05,1.97,0.14
		c0.06,0.06,0.2,0.42,0.4,1.06c0.2,0.64,0.57,1.29,1.1,1.95c0.53,0.66,1.44,1.03,2.73,1.13c1,0.06,1.6,0.09,1.79,0.09
		c0.5,0,0.92-0.05,1.25-0.14c0.33-0.09,0.76-0.27,1.29-0.52c1.6-0.72,2.38-1.77,2.35-3.15c0.03-0.91-0.21-1.61-0.73-2.12
		c-0.52-0.5-1.17-0.84-1.95-1.01c-0.78-0.17-1.85-0.34-3.2-0.49c-0.97-0.09-1.76-0.19-2.35-0.28c-0.6-0.09-1.13-0.25-1.6-0.47
		c-1.63-0.53-2.88-1.37-3.74-2.51c-0.86-1.14-1.29-2.39-1.29-3.74c0-1.47,0.43-2.81,1.29-4.02c0.86-1.21,2.04-2,3.55-2.37
		c1.28-0.34,2.93-0.52,4.94-0.52c0.47,0,1.17,0.03,2.11,0.09c1.35,0.09,2.6,0.33,3.76,0.71c1.1,0.47,1.99,1.28,2.68,2.42
		C246.54,70.49,246.89,71.77,246.89,73.18z"/>
	<path d="M273.68,66.98c0.72-0.03,1.65,0,2.77,0.09l1.22,0.09c0.06,0.5,0.09,0.88,0.09,1.13v0.47c-0.03,0.72-0.05,1.8-0.05,3.24
		c0,1.19,0.03,2.95,0.09,5.26l0.05,5.26c0,2.26-0.06,4.31-0.19,6.16c0,0.09,0,0.3,0,0.61s-0.03,0.59-0.09,0.85
		c-0.06,0.25-0.23,0.41-0.52,0.47h-0.8l-1.5-0.05c-0.25,0-0.47,0.02-0.66,0.05s-0.36,0.05-0.52,0.05c-0.31-0.09-0.47-0.44-0.47-1.03
		c-0.03-0.25-0.02-0.53,0.02-0.85c0.05-0.31,0.07-0.58,0.07-0.8c-0.75,1.03-1.94,1.74-3.57,2.12c-1.63,0.38-3.23,0.56-4.79,0.56
		c-1.5,0-2.78-0.67-3.83-2c-1.05-1.33-1.83-2.97-2.33-4.91c-0.5-1.94-0.75-3.84-0.75-5.69c0-2.04,0.34-3.87,1.03-5.5
		c0.69-1.63,1.64-2.92,2.84-3.88c1.21-0.96,2.55-1.45,4.02-1.48l1.5-0.05c1.41,0,2.58,0.17,3.5,0.49c0.92,0.33,1.61,0.93,2.04,1.81
		c0-0.28,0.03-0.64,0.09-1.08c0.06-0.63,0.09-1.07,0.09-1.32C273.07,67.01,273.27,66.98,273.68,66.98z M268.41,71.21
		c-1.63-0.03-3,0.38-4.11,1.25c-1.11,0.86-1.79,1.89-2.04,3.08c-0.25,0.91-0.38,2.13-0.38,3.67c0.16,5.04,2.19,7.46,6.11,7.24
		c1.6,0,2.76-0.28,3.48-0.85c0.72-0.56,1.17-1.36,1.34-2.4c0.17-1.03,0.26-2.58,0.26-4.65c0-2.26-0.09-3.85-0.28-4.77
		c-0.19-0.92-0.59-1.56-1.2-1.9C270.98,71.52,269.92,71.3,268.41,71.21z"/>
	<path d="M285.57,67.21c0.06,0.35,0.09,0.78,0.09,1.32v1.17c1.06-0.63,2.32-1.18,3.76-1.67c1.44-0.49,2.88-0.73,4.32-0.73
		c1.72,0.06,3.13,0.55,4.23,1.46c0.75,0.66,1.13,3.34,1.13,8.04c0,1.19-0.03,3.04-0.09,5.55c-0.06,2.38-0.09,4.1-0.09,5.17
		c0,1.38,0.02,2.37,0.05,2.96c-0.6,0.09-1.46,0.14-2.58,0.14h-1.55c-0.06-0.5-0.09-1.38-0.09-2.63v-2.02l0.05-3.01
		c0.06-2.04,0.08-3.49,0.05-4.37c0-0.19-0.04-0.83-0.12-1.93c-0.08-1.1-0.26-2.07-0.54-2.91c-0.09-1.1-0.86-1.6-2.3-1.5
		c-2.16,0.03-3.75,0.33-4.77,0.89c-1.02,0.56-1.59,1.58-1.72,3.05c-0.03,0.41-0.05,1.17-0.05,2.3c0,1.75,0.03,3.64,0.09,5.64
		c0.06,1.19,0.09,2.07,0.09,2.63c0,1.16-0.05,2.35-0.14,3.57v0.19c-0.6,0.12-1.18,0.18-1.76,0.16c-0.58-0.02-1-0.02-1.25-0.02
		c-0.5,0-0.89,0.02-1.17,0.05l-0.05-8.08c-0.06-3.7-0.09-6.47-0.09-8.32c0-1.5,0.03-3.88,0.09-7.14c0.38,0.03,0.81,0.05,1.32,0.05
		c0.5,0,0.91-0.01,1.22-0.05c0.19,0,0.41-0.02,0.66-0.05c0.25-0.03,0.5-0.05,0.75-0.05C285.41,67.07,285.57,67.12,285.57,67.21z"/>
	<path d="M316.35,58.14v-0.52c0.06-0.16,0.81-0.23,2.26-0.23c0.81,0,1.43,0.03,1.83,0.09v3.1c0,2.98,0.06,7.32,0.19,13.02
		c0.03,1.41,0.06,3.09,0.09,5.05c0.03,1.96,0.05,4.19,0.05,6.7c0,2.32-0.02,4.04-0.05,5.17c-1,0.06-1.83,0.09-2.49,0.09
		c-0.85,0-1.47-0.03-1.88-0.09c-0.03-0.06-0.05-0.39-0.05-0.99c0-0.81-0.08-1.44-0.24-1.88c-0.22,0.5-0.59,1-1.1,1.5
		c-0.52,0.5-1.04,0.8-1.57,0.89c-0.85,0.28-1.79,0.42-2.82,0.42c-0.5,0-0.88-0.02-1.13-0.05c-2.23-0.16-3.9-0.85-5.03-2.09
		c-1.13-1.24-1.87-2.76-2.23-4.56c-0.36-1.8-0.57-4-0.63-6.6c0-2.63,0.35-4.8,1.06-6.51s1.93-2.8,3.69-3.27
		c1.16-0.31,2.48-0.47,3.95-0.47c1.19,0,2.11,0.08,2.77,0.23c0.63,0.09,1.19,0.31,1.69,0.63c0.5,0.33,0.89,0.67,1.17,1.03
		c0.28,0.36,0.44,0.62,0.47,0.78l-0.05-4c0-0.81-0.01-1.54-0.02-2.19c-0.02-0.64-0.01-1.15,0.02-1.53c0.03-0.16,0.04-0.35,0.02-0.59
		c-0.02-0.23-0.02-0.45-0.02-0.63v-0.99C316.31,58.97,316.32,58.45,316.35,58.14z M311.8,70.45l-0.89-0.05
		c-1.69,0-2.99,0.42-3.9,1.25c-0.91,0.83-1.43,2.12-1.55,3.88c-0.09,0.69-0.14,1.72-0.14,3.1c0.06,2.07,0.32,3.67,0.78,4.82
		c0.45,1.14,1.08,1.94,1.88,2.4c0.8,0.46,1.86,0.68,3.17,0.68c1.5,0,2.63-0.35,3.38-1.06s1.24-1.64,1.46-2.8
		c0.22-1.16,0.33-2.68,0.33-4.56c-0.03-1.79-0.13-3.18-0.31-4.18c-0.17-1-0.58-1.82-1.22-2.44
		C314.14,70.86,313.14,70.52,311.8,70.45z"/>
	<path d="M337.69,67.21c0,0.38,0.01,0.67,0.02,0.87c0.02,0.2,0.02,0.45,0.02,0.73c0.22-0.12,0.52-0.27,0.92-0.42
		c0.39-0.16,0.82-0.31,1.29-0.47c0.72-0.25,1.59-0.43,2.61-0.54c1.02-0.11,1.93-0.17,2.75-0.17c0.75,0,1.13,0.03,1.13,0.09
		l-0.05,3.9c0,0.63,0.02,1.1,0.05,1.41c-0.47-0.19-1-0.36-1.6-0.52c-0.69-0.16-1.44-0.24-2.26-0.24c-0.85,0-1.8,0.13-2.87,0.38
		c-0.88,0.22-1.47,0.55-1.79,0.99c-0.31,0.44-0.45,1.27-0.42,2.49c0.12,4.29,0.19,9.17,0.19,14.62v0.19
		c-0.53,0.12-1.08,0.19-1.65,0.19c-0.22,0-0.57-0.01-1.06-0.02c-0.49-0.02-0.98-0.01-1.48,0.02l-0.05-8.08
		c-0.06-3.7-0.09-6.47-0.09-8.32c0-1.5,0.03-3.88,0.09-7.14c0.31,0.03,0.65,0.04,1.01,0.02c0.36-0.01,0.68-0.02,0.96-0.02
		c0.38-0.03,0.88-0.05,1.5-0.05C337.44,67.12,337.69,67.15,337.69,67.21z"/>
	<path d="M352.83,78.68v0.85l-0.05,1.36c0,3.88,1.91,5.83,5.73,5.83c1.53,0,2.67-0.35,3.41-1.06c0.74-0.71,1.1-1.67,1.1-2.89
		c0-0.19-0.03-0.53-0.09-1.03c0.66-0.09,1.27-0.14,1.83-0.14c0.5,0,0.88,0.02,1.13,0.05c0.19,0,0.42,0.01,0.68,0.02
		c0.27,0.02,0.57,0.01,0.92-0.02c0.03,1.79-0.03,3.21-0.19,4.28c-0.16,1.07-0.53,2.08-1.13,3.06c-0.56,0.85-1.54,1.45-2.94,1.81
		c-1.39,0.36-2.92,0.54-4.58,0.54c-0.75,0-1.45-0.03-2.09-0.09c-0.64-0.06-1.04-0.13-1.2-0.19c-2.44-0.41-4.21-1.95-5.31-4.63
		c-1.1-2.68-1.57-5.74-1.41-9.19c0.03-0.25,0.08-0.78,0.14-1.58c0.06-0.8,0.15-1.62,0.26-2.47c0.11-0.85,0.32-1.68,0.63-2.49
		c0.59-1.38,1.68-2.44,3.24-3.2c1.57-0.75,3.31-1.13,5.22-1.13c1,0,2.05,0.13,3.15,0.38c4.26,0.72,6.39,3.93,6.39,9.63
		c0,0.47-0.03,1.14-0.09,2.02c-0.6,0.19-2.35,0.34-5.26,0.47c-0.35,0.03-1.1,0.05-2.26,0.05c-2.48,0-4.31-0.03-5.5-0.09
		C353.78,78.82,353.2,78.77,352.83,78.68z M364.25,75.15c-0.03-0.97-0.27-1.93-0.73-2.87c-0.45-0.94-1.1-1.68-1.95-2.21
		c-0.47-0.22-0.88-0.36-1.22-0.42c-0.35-0.06-0.78-0.09-1.32-0.09c-2.04,0-3.49,0.42-4.35,1.27c-0.86,0.85-1.4,2.05-1.62,3.62
		c-0.06,0.38-0.09,0.63-0.09,0.75c0,0.38,0.18,0.63,0.54,0.75c0.36,0.13,1.14,0.19,2.33,0.19c1.16,0,2.15-0.02,2.96-0.05
		c3.01,0,4.7-0.02,5.08-0.05c0.16-0.03,0.26-0.07,0.31-0.12s0.07-0.13,0.07-0.26V75.15z"/>
	<path d="M384.31,58.14v-0.52c0.06-0.16,0.81-0.23,2.26-0.23c0.81,0,1.43,0.03,1.83,0.09v3.1c0,2.98,0.06,7.32,0.19,13.02
		c0.03,1.41,0.06,3.09,0.09,5.05c0.03,1.96,0.05,4.19,0.05,6.7c0,2.32-0.02,4.04-0.05,5.17c-1,0.06-1.83,0.09-2.49,0.09
		c-0.85,0-1.47-0.03-1.88-0.09c-0.03-0.06-0.05-0.39-0.05-0.99c0-0.81-0.08-1.44-0.24-1.88c-0.22,0.5-0.59,1-1.1,1.5
		c-0.52,0.5-1.04,0.8-1.57,0.89c-0.85,0.28-1.79,0.42-2.82,0.42c-0.5,0-0.88-0.02-1.13-0.05c-2.23-0.16-3.9-0.85-5.03-2.09
		c-1.13-1.24-1.87-2.76-2.23-4.56c-0.36-1.8-0.57-4-0.63-6.6c0-2.63,0.35-4.8,1.06-6.51s1.93-2.8,3.69-3.27
		c1.16-0.31,2.48-0.47,3.95-0.47c1.19,0,2.11,0.08,2.77,0.23c0.63,0.09,1.19,0.31,1.69,0.63c0.5,0.33,0.89,0.67,1.17,1.03
		c0.28,0.36,0.44,0.62,0.47,0.78l-0.05-4c0-0.81-0.01-1.54-0.02-2.19c-0.02-0.64-0.01-1.15,0.02-1.53c0.03-0.16,0.04-0.35,0.02-0.59
		c-0.02-0.23-0.02-0.45-0.02-0.63v-0.99C384.27,58.97,384.28,58.45,384.31,58.14z M379.76,70.45l-0.89-0.05
		c-1.69,0-2.99,0.42-3.9,1.25c-0.91,0.83-1.43,2.12-1.55,3.88c-0.09,0.69-0.14,1.72-0.14,3.1c0.06,2.07,0.32,3.67,0.78,4.82
		c0.45,1.14,1.08,1.94,1.88,2.4c0.8,0.46,1.86,0.68,3.17,0.68c1.5,0,2.63-0.35,3.38-1.06s1.24-1.64,1.46-2.8
		c0.22-1.16,0.33-2.68,0.33-4.56c-0.03-1.79-0.13-3.18-0.31-4.18c-0.17-1-0.58-1.82-1.22-2.44C382.1,70.86,381.1,70.52,379.76,70.45
		z"/>
	<path d="M408.19,73.04v17.39c-0.47-0.03-1.02-0.02-1.65,0.05l-1.13,0.05c-0.5,0-0.91-0.03-1.22-0.09
		c-0.13-0.75-0.19-3.48-0.19-8.18l0.05-5.69c0.03-0.94,0.05-2.12,0.05-3.53c-0.35,0.03-1.03,0.05-2.07,0.05
		c-0.28-0.03-0.69-0.05-1.22-0.05c-0.47,0-0.81,0.02-1.03,0.05l-0.14-4.04c2.32,0,3.78,0.02,4.37,0.05l-0.05-1.88
		c0-2.35,0.37-4.32,1.1-5.92c0.74-1.6,2.15-2.54,4.25-2.82c1.72-0.16,3.57-0.24,5.55-0.24h1.83c0.19,0.6,0.28,1.22,0.28,1.88
		c0,0.34-0.08,1.14-0.23,2.4c-0.53-0.03-2.29,0.02-5.26,0.14c-1,0.06-1.69,0.15-2.07,0.26s-0.66,0.4-0.85,0.87s-0.28,1.3-0.28,2.49
		c0,0.41,0.03,1.39,0.09,2.96c1.85-0.03,4.61-0.05,8.27-0.05c-0.03,0.12-0.08,0.64-0.14,1.55c0,0.94-0.03,1.77-0.09,2.49l-5.4-0.14
		L408.19,73.04z"/>
	<path d="M422.9,67.21c0,0.38,0.01,0.67,0.02,0.87c0.02,0.2,0.02,0.45,0.02,0.73c0.22-0.12,0.52-0.27,0.92-0.42
		c0.39-0.16,0.82-0.31,1.29-0.47c0.72-0.25,1.59-0.43,2.61-0.54c1.02-0.11,1.93-0.17,2.75-0.17c0.75,0,1.13,0.03,1.13,0.09
		l-0.05,3.9c0,0.63,0.02,1.1,0.05,1.41c-0.47-0.19-1-0.36-1.6-0.52c-0.69-0.16-1.44-0.24-2.26-0.24c-0.85,0-1.8,0.13-2.87,0.38
		c-0.88,0.22-1.47,0.55-1.79,0.99c-0.31,0.44-0.45,1.27-0.42,2.49c0.12,4.29,0.19,9.17,0.19,14.62v0.19
		c-0.53,0.12-1.08,0.19-1.65,0.19c-0.22,0-0.57-0.01-1.06-0.02c-0.49-0.02-0.98-0.01-1.48,0.02l-0.05-8.08
		c-0.06-3.7-0.09-6.47-0.09-8.32c0-1.5,0.03-3.88,0.09-7.14c0.31,0.03,0.65,0.04,1.01,0.02c0.36-0.01,0.68-0.02,0.96-0.02
		c0.38-0.03,0.88-0.05,1.5-0.05C422.65,67.12,422.9,67.15,422.9,67.21z"/>
	<path d="M448.19,90.57c-0.03-0.59-0.05-1.09-0.05-1.48c0-0.39-0.02-0.73-0.05-1.01c-0.06,0.03-0.31,0.2-0.75,0.52
		c-0.44,0.31-1.14,0.58-2.12,0.8c-1.82,0.66-3.59,0.99-5.31,0.99c-1.94,0-3.4-0.47-4.37-1.41c-0.53-0.47-0.86-1.26-0.99-2.37
		c-0.13-1.11-0.2-2.89-0.23-5.33v-1.46c0-0.97,0.03-2.4,0.09-4.28c0.09-1.88,0.14-3.67,0.14-5.36c0-0.81-0.03-1.82-0.09-3.01
		c0.56-0.06,1.33-0.09,2.3-0.09h1.55c0.09,0.94,0.14,2.05,0.14,3.34l-0.05,3.81c0,1.25,0.02,2.16,0.05,2.73l0.05,1.32
		c0,1.13,0.05,2.44,0.14,3.95c0.06,1.03,0.27,1.82,0.63,2.35c0.36,0.53,0.9,0.89,1.62,1.08c0.63,0.09,1.21,0.14,1.74,0.14
		c1.85,0,3.27-0.5,4.25-1.5c0.99-1,1.5-2.37,1.53-4.09c0.03-1.13-0.02-3.18-0.14-6.16c-0.06-1.5-0.09-2.49-0.09-2.96
		c0-0.85,0.03-2.05,0.09-3.62v-0.19c0.5-0.12,0.98-0.2,1.43-0.24c0.45-0.03,0.73-0.05,0.82-0.05c0.66,0,1.22-0.02,1.69-0.05
		l0.05,8.08c0.06,3.7,0.09,6.47,0.09,8.32c0,1.5-0.03,3.89-0.09,7.14c-0.69,0-1.46,0.05-2.3,0.14c-0.16,0-0.35,0.02-0.59,0.05
		s-0.48,0.05-0.73,0.05C448.34,90.71,448.19,90.66,448.19,90.57z"/>
	<path d="M456.98,66.83c0.22-0.03,0.66-0.03,1.32,0c0.94,0.06,1.97,0.09,3.1,0.09v0.14c0,1.41-0.03,3.59-0.09,6.53
		c-0.09,3.01-0.14,6.05-0.14,9.12c0,2.88,0.06,5.45,0.19,7.71c-0.44,0.09-1.1,0.14-1.97,0.14c-0.88,0-1.41,0-1.6,0
		c-0.56,0-0.91,0.02-1.03,0.05c0.03-0.91,0.05-2.29,0.05-4.14v-4.23V78.3c-0.06-2.19-0.09-3.88-0.09-5.08
		c0-2.16,0.09-4.28,0.28-6.35V66.83z M456.79,56.73c1.94,0.06,3.42,0.09,4.42,0.09l0.14,6.2c-0.31,0.16-0.88,0.24-1.69,0.24
		c-0.5,0-0.88-0.02-1.13-0.05c-0.19,0-0.41-0.01-0.66-0.02c-0.25-0.01-0.55-0.01-0.89,0.02c0-0.47-0.03-1.24-0.09-2.3
		C456.79,58.84,456.76,57.45,456.79,56.73z"/>
	<path d="M473.47,58.37v7.19l0.05,2.63c2.04-0.06,4.56-0.17,7.57-0.33c0.19,0.25,0.28,0.72,0.28,1.41l-0.05,1.08
		c-0.06,0.69-0.08,1.19-0.05,1.5c-3.42,0-5.97-0.02-7.66-0.05v7.19v1.6c0,1.41,0.03,2.41,0.09,3.01c0.06,0.6,0.19,1.11,0.38,1.55
		c0.5,0.63,1.51,1.02,3.03,1.17c1.52,0.16,2.91,0.21,4.16,0.14c0.16,1.25,0.24,2.05,0.24,2.4c0,0.56-0.08,1.13-0.24,1.69
		c-0.66,0.03-1.69,0.05-3.1,0.05c-2.44,0-4.36-0.3-5.73-0.89c-1.38-0.59-2.26-1.79-2.63-3.57c-0.35-3.04-0.52-7-0.52-11.89V72
		c-0.19,0.03-0.66,0.05-1.41,0.05L464.31,72l0.14-3.85c0.69,0.06,2.33,0.09,4.94,0.09l-0.05-4.93V61.1c0-1.32,0.03-2.24,0.09-2.77
		c0.44-0.03,1.11-0.02,2.02,0.05l1.27,0.05C473.06,58.42,473.32,58.41,473.47,58.37z"/>
	<path d="M488.18,90.57l-3.57-0.05h-0.14c-0.09-0.56-0.14-1.28-0.14-2.16l0.05-2.3c0.03-0.28,0.05-0.61,0.05-0.99
		c0.56-0.22,1.32-0.33,2.26-0.33c0.88,0,1.5,0.08,1.88,0.24c0,0.16-0.05,1-0.14,2.54c-0.09,1.54-0.14,2.52-0.14,2.96v0.09H488.18z"
		/>
</g>
</svg>
