<!-- Generator: Adobe Illustrator 23.1.1, SVG Export Plug-In  -->
<svg version="1.1" xmlns="http://www.w3.org/2000/svg" xmlns:xlink="http://www.w3.org/1999/xlink" x="0px" y="0px"
	 width="126.12px" height="30.66px" viewBox="0 0 126.12 30.66" style="enable-background:new 0 0 126.12 30.66;"
	 xml:space="preserve">
<defs>
</defs>
<g>
	<path d="M11.52,12.24c-0.04,0.07-0.07,0.15-0.07,0.26c0,0.13,0.08,0.28,0.23,0.43c0.81,1.01,1.41,1.86,1.78,2.54
		c0.37,0.68,0.56,1.5,0.56,2.44c0,0.38-0.03,0.76-0.1,1.16c-0.33,1.91-1.19,3.21-2.57,3.89s-3.17,1.02-5.35,1.02
		c-0.44,0-0.97-0.01-1.58-0.03c-0.62-0.02-1.08-0.04-1.39-0.07c-0.88-0.07-1.72-0.1-2.51-0.1c-0.2,0-0.34-0.02-0.43-0.07
		C0.03,21.99,0,19.39,0,15.94L0.03,5.58c0-2.02-0.01-3.54-0.03-4.55l0.03-0.03c1.76-0.48,3.45-0.73,5.08-0.73
		c2.35,0,4.28,0.53,5.78,1.6s2.24,2.81,2.24,5.23C13.13,8.72,12.59,10.44,11.52,12.24z M4.75,20.99c0.83,0.04,1.41,0.07,1.72,0.07
		c0.92,0,1.68-0.14,2.26-0.41c0.58-0.27,1.09-0.8,1.54-1.57c0.18-0.35,0.26-0.75,0.26-1.19c0-0.53-0.12-1.12-0.36-1.78
		c-0.2-0.59-0.57-1.03-1.12-1.32c-0.55-0.29-1.12-0.44-1.7-0.46c-0.58-0.02-0.93-0.03-1.04-0.03c-0.13-0.02-0.42-0.03-0.86-0.03
		c-0.24,0-1.02,0.02-2.34,0.07c-0.2,0.29-0.3,0.9-0.3,1.85c0,1.12,0.14,2.68,0.43,4.69C3.76,20.92,4.27,20.97,4.75,20.99z
		 M4.75,11.29c0.83,0.04,1.37,0.07,1.62,0.07c0.97,0,1.71-0.13,2.21-0.38c0.51-0.25,0.9-0.71,1.19-1.37
		c0.35-0.66,0.53-1.38,0.53-2.15c0-0.33-0.03-0.66-0.1-0.99C10.02,5.5,9.6,4.8,8.94,4.37S7.4,3.71,6.3,3.66
		C6.08,3.64,5.74,3.63,5.28,3.63c-1.21,0-1.98,0.1-2.31,0.3L3,4.82L2.94,7.13v1.35c0,1.25,0.07,2.13,0.2,2.64L4.75,11.29z"/>
	<path d="M16.47,7.19c0.15-0.02,0.46-0.02,0.92,0c0.66,0.04,1.39,0.07,2.18,0.07v0.1c0,0.99-0.02,2.52-0.07,4.59
		c-0.07,2.11-0.1,4.25-0.1,6.4c0,2.02,0.04,3.83,0.13,5.41c-0.31,0.07-0.77,0.1-1.39,0.1s-0.99,0-1.12,0c-0.4,0-0.64,0.01-0.73,0.03
		c0.02-0.64,0.03-1.61,0.03-2.9v-2.97v-2.77c-0.04-1.54-0.07-2.73-0.07-3.56c0-1.52,0.07-3,0.2-4.46V7.19z M16.33,0.1
		c1.36,0.04,2.4,0.07,3.1,0.07l0.1,4.36c-0.22,0.11-0.62,0.17-1.19,0.17c-0.35,0-0.62-0.01-0.79-0.03c-0.13,0-0.29,0-0.46-0.02
		c-0.18-0.01-0.38,0-0.63,0.02c0-0.33-0.02-0.87-0.07-1.62C16.33,1.58,16.31,0.61,16.33,0.1z"/>
	<path d="M35.04,28.15c-0.42,0.95-0.95,1.57-1.58,1.88c-0.64,0.31-1.38,0.5-2.21,0.56c-0.97,0.04-1.57,0.07-1.82,0.07
		c-0.42,0-0.96-0.02-1.62-0.07c-1.45-0.11-2.67-0.59-3.66-1.45c-0.99-0.86-1.48-1.94-1.48-3.23c0-0.29,0.01-0.51,0.03-0.66
		c0.11-0.04,0.41-0.08,0.89-0.12c0.48-0.03,0.95-0.05,1.39-0.05c0.37,0,0.58,0.02,0.63,0.07c0.02,0.04,0.03,0.21,0.03,0.5
		c0,0.57,0.13,1.08,0.4,1.52c0.26,0.44,0.82,0.73,1.68,0.86c0.44,0.02,1.01,0.03,1.72,0.03c0.92,0,1.6-0.05,2.03-0.15
		c0.43-0.1,0.7-0.28,0.83-0.53s0.16-0.63,0.12-1.14v-1.22v-1.09c0-0.11,0.01-0.23,0.02-0.36s0.03-0.32,0.05-0.56
		c-0.37,0.44-0.81,0.71-1.3,0.79c-0.5,0.09-1.41,0.13-2.75,0.13h-1.25c-2.2,0-3.63-0.69-4.29-2.08c-0.55-1.03-0.86-2.32-0.92-3.86
		c0-2.05,0.08-3.74,0.25-5.08s0.65-2.56,1.45-3.65c0.8-1.09,2.07-1.69,3.81-1.8c1.14-0.02,2.03,0.02,2.66,0.12
		c0.63,0.1,1.09,0.27,1.4,0.51c0.31,0.24,0.56,0.58,0.76,1.02c0.07-0.31,0.1-0.59,0.1-0.86c0-0.13-0.01-0.27-0.02-0.41
		c-0.01-0.14-0.01-0.28,0.02-0.41c0.57-0.04,1-0.07,1.29-0.07l1.72,0.03c0.09,2.55,0.13,5.54,0.13,8.98c0,3.41-0.06,6.38-0.17,8.91
		c0,0.22-0.01,0.52-0.02,0.89c-0.01,0.37-0.03,0.73-0.07,1.07C35.23,27.58,35.15,27.89,35.04,28.15z M24.52,16.01v0.4
		c-0.07,1.19,0.13,2.3,0.59,3.33c0.46,1.03,1.32,1.58,2.57,1.65c0.33,0.02,0.78,0.03,1.35,0.03c1.19,0,2.04-0.21,2.56-0.63
		c0.52-0.42,0.81-1.23,0.87-2.44c0-1.56-0.01-2.82-0.03-3.76c0-2.22-0.5-3.6-1.48-4.12c-0.46-0.26-1.1-0.4-1.91-0.4
		c-0.44,0-0.87,0.03-1.29,0.1c-1.23,0.22-2.08,0.84-2.54,1.87C24.75,13.05,24.52,14.38,24.52,16.01z"/>
	<path d="M49.6,1.25V6.3l0.03,1.85c1.43-0.04,3.2-0.12,5.31-0.23c0.13,0.18,0.2,0.51,0.2,0.99l-0.03,0.76
		c-0.04,0.48-0.05,0.84-0.03,1.06c-2.4,0-4.19-0.01-5.38-0.03v5.05v1.12c0,0.99,0.02,1.69,0.07,2.11c0.04,0.42,0.13,0.78,0.26,1.09
		c0.35,0.44,1.06,0.71,2.13,0.83c1.07,0.11,2.04,0.14,2.92,0.1c0.11,0.88,0.17,1.44,0.17,1.68c0,0.4-0.05,0.79-0.17,1.19
		c-0.46,0.02-1.19,0.03-2.18,0.03c-1.72,0-3.06-0.21-4.03-0.63c-0.97-0.42-1.58-1.25-1.85-2.51c-0.24-2.13-0.36-4.92-0.36-8.35
		v-1.58c-0.13,0.02-0.46,0.03-0.99,0.03l-2.51-0.03l0.1-2.71c0.48,0.04,1.64,0.07,3.46,0.07l-0.03-3.46V3.17
		c0-0.92,0.02-1.57,0.07-1.95c0.31-0.02,0.78-0.01,1.42,0.03l0.89,0.03C49.31,1.29,49.49,1.28,49.6,1.25z"/>
	<path d="M59.17,15.51v0.59l-0.03,0.96c0,2.73,1.34,4.09,4.03,4.09c1.08,0,1.88-0.25,2.39-0.74c0.52-0.5,0.78-1.17,0.78-2.03
		c0-0.13-0.02-0.37-0.07-0.73c0.46-0.07,0.89-0.1,1.29-0.1c0.35,0,0.62,0.01,0.79,0.03c0.13,0,0.29,0,0.48,0.02
		c0.19,0.01,0.4,0.01,0.64-0.02c0.02,1.25-0.02,2.25-0.13,3s-0.37,1.46-0.79,2.14c-0.4,0.59-1.08,1.02-2.06,1.27
		c-0.98,0.25-2.05,0.38-3.22,0.38c-0.53,0-1.02-0.02-1.47-0.07c-0.45-0.04-0.73-0.09-0.84-0.13c-1.72-0.29-2.96-1.37-3.73-3.25
		c-0.77-1.88-1.1-4.03-0.99-6.45c0.02-0.18,0.05-0.54,0.1-1.11c0.04-0.56,0.1-1.14,0.18-1.73s0.23-1.18,0.45-1.75
		c0.42-0.97,1.18-1.72,2.28-2.24c1.1-0.53,2.32-0.79,3.66-0.79c0.7,0,1.44,0.09,2.21,0.26c2.99,0.51,4.49,2.76,4.49,6.77
		c0,0.33-0.02,0.8-0.07,1.42c-0.42,0.13-1.65,0.24-3.7,0.33c-0.24,0.02-0.77,0.03-1.58,0.03c-1.74,0-3.03-0.02-3.86-0.07
		C59.84,15.61,59.43,15.58,59.17,15.51z M67.19,13.04c-0.02-0.68-0.19-1.35-0.51-2.01c-0.32-0.66-0.78-1.18-1.37-1.55
		c-0.33-0.15-0.62-0.25-0.86-0.3c-0.24-0.04-0.55-0.07-0.92-0.07c-1.43,0-2.45,0.3-3.05,0.89c-0.61,0.59-0.99,1.44-1.14,2.54
		c-0.04,0.26-0.07,0.44-0.07,0.53c0,0.26,0.13,0.44,0.38,0.53s0.8,0.13,1.63,0.13c0.81,0,1.51-0.01,2.08-0.03
		c2.11,0,3.3-0.01,3.56-0.03c0.11-0.02,0.18-0.05,0.21-0.08s0.05-0.09,0.05-0.18V13.04z"/>
	<path d="M73.82,15.51v0.59l-0.03,0.96c0,2.73,1.34,4.09,4.03,4.09c1.08,0,1.88-0.25,2.39-0.74c0.52-0.5,0.78-1.17,0.78-2.03
		c0-0.13-0.02-0.37-0.07-0.73c0.46-0.07,0.89-0.1,1.29-0.1c0.35,0,0.62,0.01,0.79,0.03c0.13,0,0.29,0,0.48,0.02
		c0.19,0.01,0.4,0.01,0.64-0.02c0.02,1.25-0.02,2.25-0.13,3s-0.37,1.46-0.79,2.14c-0.4,0.59-1.08,1.02-2.06,1.27
		c-0.98,0.25-2.05,0.38-3.22,0.38c-0.53,0-1.02-0.02-1.47-0.07c-0.45-0.04-0.73-0.09-0.84-0.13c-1.72-0.29-2.96-1.37-3.73-3.25
		c-0.77-1.88-1.1-4.03-0.99-6.45c0.02-0.18,0.05-0.54,0.1-1.11c0.04-0.56,0.1-1.14,0.18-1.73s0.23-1.18,0.45-1.75
		c0.42-0.97,1.18-1.72,2.28-2.24c1.1-0.53,2.32-0.79,3.66-0.79c0.7,0,1.44,0.09,2.21,0.26c2.99,0.51,4.49,2.76,4.49,6.77
		c0,0.33-0.02,0.8-0.07,1.42c-0.42,0.13-1.65,0.24-3.7,0.33c-0.24,0.02-0.77,0.03-1.58,0.03c-1.74,0-3.03-0.02-3.86-0.07
		C74.49,15.61,74.08,15.58,73.82,15.51z M81.84,13.04c-0.02-0.68-0.19-1.35-0.51-2.01c-0.32-0.66-0.78-1.18-1.37-1.55
		c-0.33-0.15-0.62-0.25-0.86-0.3c-0.24-0.04-0.55-0.07-0.92-0.07c-1.43,0-2.45,0.3-3.05,0.89c-0.61,0.59-0.99,1.44-1.14,2.54
		c-0.04,0.26-0.07,0.44-0.07,0.53c0,0.26,0.13,0.44,0.38,0.53s0.8,0.13,1.63,0.13c0.81,0,1.51-0.01,2.08-0.03
		c2.11,0,3.3-0.01,3.56-0.03c0.11-0.02,0.18-0.05,0.21-0.08s0.05-0.09,0.05-0.18V13.04z"/>
	<path d="M91.54,1.25V6.3l0.03,1.85c1.43-0.04,3.2-0.12,5.31-0.23c0.13,0.18,0.2,0.51,0.2,0.99l-0.03,0.76
		c-0.04,0.48-0.05,0.84-0.03,1.06c-2.4,0-4.19-0.01-5.38-0.03v5.05v1.12c0,0.99,0.02,1.69,0.07,2.11c0.04,0.42,0.13,0.78,0.26,1.09
		c0.35,0.44,1.06,0.71,2.13,0.83c1.07,0.11,2.04,0.14,2.92,0.1c0.11,0.88,0.17,1.44,0.17,1.68c0,0.4-0.05,0.79-0.17,1.19
		c-0.46,0.02-1.19,0.03-2.18,0.03c-1.72,0-3.06-0.21-4.03-0.63c-0.97-0.42-1.58-1.25-1.85-2.51c-0.24-2.13-0.36-4.92-0.36-8.35
		v-1.58c-0.13,0.02-0.46,0.03-0.99,0.03l-2.51-0.03l0.1-2.71c0.48,0.04,1.64,0.07,3.46,0.07l-0.03-3.46V3.17
		c0-0.92,0.02-1.57,0.07-1.95c0.31-0.02,0.78-0.01,1.42,0.03l0.89,0.03C91.25,1.29,91.43,1.28,91.54,1.25z"/>
	<path d="M101.64,6.17v2.94c0.59-0.51,1.12-0.89,1.57-1.14c0.45-0.25,1.12-0.41,2-0.48c0.53-0.07,1.02-0.1,1.49-0.1
		c1.61,0,2.86,0.38,3.76,1.16c0.29,0.24,0.48,0.81,0.59,1.72c0.11,0.9,0.16,2.09,0.16,3.56c0,0.84-0.02,2.16-0.07,3.96
		c-0.04,1.76-0.07,3.01-0.07,3.76c0,0.62,0.02,1.36,0.07,2.24c-0.88,0.13-1.83,0.18-2.84,0.13c-0.04-0.66-0.07-1.23-0.07-1.72v-1.98
		v-6.47c-0.04-1.41-0.37-2.32-0.99-2.74c-0.13-0.09-0.4-0.18-0.79-0.26c-0.46-0.13-0.93-0.2-1.42-0.2c-0.86,0-1.59,0.21-2.19,0.64
		c-0.61,0.43-1,1.09-1.17,2c-0.15,0.84-0.23,1.84-0.23,3l0.03,1.12c0.04,1.45,0.07,2.65,0.07,3.6c0,1.19-0.02,2.1-0.07,2.74v0.13
		c-0.44,0.11-0.79,0.17-1.06,0.17l-0.99-0.03c-0.31,0-0.56,0.01-0.76,0.03c0-2.53-0.01-4.62-0.03-6.27L98.6,7.59
		c0-2.46,0.02-4.99,0.07-7.59c0.68,0.07,1.23,0.09,1.65,0.07c0.11,0,0.25-0.01,0.41-0.03c0.16-0.02,0.33-0.03,0.51-0.03
		c0.22,0,0.33,0.03,0.33,0.1c0.04,0.2,0.07,1.54,0.07,4.03V6.17z"/>
	<path d="M117.97,17.19l0.07-1.06c0.15-0.92,0.4-1.74,0.73-2.46c0.33-0.71,0.85-1.51,1.55-2.39c0.66-0.77,1.18-1.46,1.57-2.08
		c0.38-0.62,0.64-1.25,0.78-1.91c0.04-0.26,0.07-0.46,0.07-0.59c0-0.9-0.35-1.62-1.06-2.16s-1.65-0.76-2.84-0.68
		c-0.92-0.02-1.61,0.23-2.06,0.74c-0.45,0.52-0.85,1.24-1.2,2.16c-0.13,0.35-0.23,0.59-0.3,0.73l-0.66,0.03
		c-0.31,0-0.77-0.02-1.39-0.07l-0.79-0.03V7.39c0.07-1.12,0.38-2.2,0.94-3.23c0.56-1.03,1.33-1.89,2.29-2.56
		c0.97-0.67,2.06-1.03,3.27-1.07c0.15-0.02,0.37-0.03,0.66-0.03c1.19,0,2.28,0.25,3.27,0.76c0.99,0.51,1.78,1.2,2.38,2.08
		c0.59,0.88,0.89,1.87,0.89,2.97c0,1.08-0.2,1.98-0.61,2.71c-0.41,0.73-1.02,1.54-1.83,2.44c-0.53,0.57-0.9,1.01-1.12,1.32
		c-0.48,0.66-0.86,1.29-1.12,1.88s-0.45,1.27-0.56,2.01c-0.02,0.15-0.04,0.31-0.07,0.48c-0.02,0.17-0.03,0.34-0.03,0.51
		c0,0.13,0.01,0.22,0.03,0.26v0.03c-0.26,0.04-0.67,0.07-1.22,0.07c-0.18,0-0.39,0-0.64-0.02c-0.25-0.01-0.54,0-0.88,0.02h-0.03
		c-0.04-0.09-0.07-0.25-0.07-0.5V17.19z M120.45,23.86h-2.38h-0.1c-0.07-0.4-0.1-0.9-0.1-1.52l0.03-1.62
		c0.02-0.2,0.03-0.43,0.03-0.69c0.37-0.15,0.89-0.23,1.55-0.23c0.46,0,0.87,0.04,1.22,0.13c0,0.11-0.03,0.7-0.1,1.78
		c-0.07,1.08-0.1,1.77-0.1,2.08v0.07H120.45z"/>
</g>
</svg>
