<!-- Generator: Adobe Illustrator 23.1.1, SVG Export Plug-In  -->
<svg version="1.1" xmlns="http://www.w3.org/2000/svg" xmlns:xlink="http://www.w3.org/1999/xlink" x="0px" y="0px" width="175.7px"
	 height="40.01px" viewBox="0 0 175.7 40.01" style="enable-background:new 0 0 175.7 40.01;" xml:space="preserve">
<defs>
</defs>
<g>
	<path d="M0,0.28c0.47,0,0.82,0,1.06-0.01l1.12-0.01c1.17,0,2.13,0.04,2.89,0.13c0.01,0.07,0.01,0.2,0.01,0.37
		c0,0.27-0.02,0.56-0.06,0.86C4.84,1.59,4.59,1.58,4.27,1.58C4.02,1.6,3.76,1.61,3.5,1.61H3.19c0.02,0.05,0.02,0.1,0,0.14
		C3.18,1.8,3.18,2.34,3.18,3.37c0,0.25,0,0.45,0.01,0.61C3.22,6.1,3.24,7.64,3.26,8.63v0.02C3.12,8.68,2.9,8.69,2.6,8.69
		c-0.31,0-0.55,0.02-0.71,0.05C1.89,8.7,1.89,8.65,1.89,8.57c0-0.08,0.01-0.16,0.01-0.26V7.58C1.9,7.42,1.91,7.14,1.91,6.72
		c0-0.47,0-0.85-0.01-1.14C1.88,4.44,1.85,3.15,1.81,1.72V1.67C1.64,1.62,1.2,1.59,0.48,1.57c-0.26,0-0.4,0-0.42-0.01
		C0.04,1.51,0.02,1.36,0.01,1.1C0,0.85,0,0.57,0,0.28z"/>
	<path d="M6.71,2.29v1.07c0.22-0.18,0.41-0.32,0.57-0.41C7.44,2.85,7.68,2.8,8,2.77C8.2,2.75,8.38,2.74,8.54,2.74
		c0.58,0,1.04,0.14,1.37,0.42c0.1,0.09,0.18,0.3,0.22,0.62s0.06,0.76,0.06,1.3c0,0.3-0.01,0.78-0.02,1.44
		c-0.02,0.64-0.02,1.1-0.02,1.37c0,0.22,0.01,0.5,0.02,0.82C9.84,8.75,9.5,8.76,9.13,8.75C9.12,8.51,9.11,8.3,9.11,8.12V7.4V5.05
		c-0.02-0.51-0.14-0.84-0.36-1C8.7,4.02,8.6,3.99,8.46,3.96C8.29,3.91,8.12,3.89,7.94,3.89c-0.31,0-0.58,0.08-0.8,0.23
		c-0.22,0.16-0.36,0.4-0.43,0.73c-0.06,0.3-0.08,0.67-0.08,1.09l0.01,0.41c0.02,0.53,0.02,0.96,0.02,1.31c0,0.43-0.01,0.76-0.02,1
		V8.7C6.49,8.74,6.36,8.76,6.26,8.76L5.9,8.75c-0.11,0-0.2,0-0.28,0.01c0-0.92,0-1.68-0.01-2.28L5.6,2.81c0-0.9,0.01-1.82,0.02-2.76
		c0.25,0.02,0.45,0.03,0.6,0.02c0.04,0,0.09,0,0.15-0.01C6.44,0.05,6.5,0.05,6.56,0.05c0.08,0,0.12,0.01,0.12,0.04
		C6.7,0.16,6.71,0.64,6.71,1.55V2.29z"/>
	<path d="M11.33,2.66c0.06-0.01,0.17-0.01,0.34,0c0.24,0.02,0.5,0.02,0.79,0.02v0.04c0,0.36-0.01,0.92-0.02,1.67
		c-0.02,0.77-0.04,1.54-0.04,2.33c0,0.74,0.02,1.39,0.05,1.97c-0.11,0.02-0.28,0.04-0.5,0.04c-0.22,0-0.36,0-0.41,0
		c-0.14,0-0.23,0-0.26,0.01c0.01-0.23,0.01-0.58,0.01-1.06V6.6V5.59c-0.02-0.56-0.02-0.99-0.02-1.3c0-0.55,0.02-1.09,0.07-1.62V2.66
		z M11.28,0.08c0.5,0.02,0.87,0.02,1.13,0.02l0.04,1.58c-0.08,0.04-0.22,0.06-0.43,0.06c-0.13,0-0.22,0-0.29-0.01
		c-0.05,0-0.1,0-0.17-0.01c-0.06,0-0.14,0-0.23,0.01c0-0.12-0.01-0.32-0.02-0.59C11.28,0.62,11.27,0.27,11.28,0.08z"/>
	<path d="M18.26,4.28c0,0.04-0.14,0.06-0.42,0.06c-0.21,0-0.36,0-0.46-0.01c-0.06,0-0.13,0-0.19-0.01c-0.06,0-0.12,0-0.16,0.01
		c0-0.01,0-0.15,0-0.41c0-0.27-0.23-0.43-0.7-0.49c-0.1-0.02-0.26-0.02-0.47-0.02c-0.22,0-0.43,0.02-0.61,0.05
		c-0.18,0.03-0.31,0.08-0.4,0.13c-0.1,0.08-0.18,0.2-0.24,0.35c-0.06,0.15-0.08,0.3-0.08,0.44c0,0.11,0.02,0.19,0.05,0.23
		c0.09,0.18,0.2,0.31,0.35,0.38c0.08,0.06,0.28,0.12,0.59,0.2s0.58,0.12,0.8,0.13c0.33,0.01,0.62,0.06,0.87,0.15
		c0.25,0.09,0.45,0.22,0.59,0.38c0.14,0.18,0.25,0.35,0.32,0.52c0.07,0.17,0.1,0.36,0.1,0.56c0,0.25-0.06,0.55-0.18,0.9
		c-0.18,0.38-0.46,0.65-0.84,0.83c-0.38,0.18-0.82,0.26-1.31,0.25c-0.54,0.02-1.01-0.05-1.42-0.21c-0.41-0.16-0.72-0.39-0.95-0.7
		c-0.22-0.31-0.34-0.68-0.34-1.1V6.84c0.14-0.02,0.36-0.02,0.64-0.02c0.31,0,0.48,0.01,0.5,0.04c0.02,0.02,0.05,0.11,0.1,0.27
		c0.05,0.16,0.15,0.33,0.28,0.5c0.14,0.17,0.37,0.26,0.7,0.29c0.26,0.02,0.41,0.02,0.46,0.02c0.13,0,0.23-0.01,0.32-0.04
		s0.19-0.07,0.33-0.13c0.41-0.18,0.61-0.45,0.6-0.8c0.01-0.23-0.05-0.41-0.19-0.54c-0.13-0.13-0.3-0.21-0.5-0.26
		c-0.2-0.04-0.47-0.09-0.82-0.13c-0.25-0.02-0.45-0.05-0.6-0.07c-0.15-0.02-0.29-0.06-0.41-0.12c-0.42-0.14-0.73-0.35-0.95-0.64
		c-0.22-0.29-0.33-0.61-0.33-0.95c0-0.38,0.11-0.72,0.33-1.03c0.22-0.31,0.52-0.51,0.91-0.61c0.33-0.09,0.75-0.13,1.26-0.13
		c0.12,0,0.3,0.01,0.54,0.02c0.34,0.02,0.66,0.08,0.96,0.18C17.6,2.81,17.82,3.01,18,3.31C18.18,3.6,18.26,3.92,18.26,4.28z"/>
	<path d="M22.37,11.02v0.13c0,0.02-0.05,0.03-0.16,0.04c-0.1,0.01-0.22,0.02-0.35,0.02c-0.18,0-0.36-0.01-0.52-0.04v-0.79
		c0-0.75-0.02-1.86-0.05-3.31c-0.01-0.35-0.02-0.78-0.02-1.29c-0.01-0.51-0.01-1.08-0.01-1.72c0-0.59,0-1.03,0.01-1.32l0.78-0.01
		c0.16,0,0.28,0,0.35,0.01c0.01,0.01,0.01,0.04,0.02,0.1c0,0.06,0.01,0.12,0.01,0.19c0,0.03,0,0.07,0.01,0.11
		c0,0.04,0,0.1-0.01,0.17c0.01,0.04,0.02,0.06,0.04,0.05c0.02,0,0.05-0.03,0.08-0.09c0.14-0.18,0.34-0.32,0.59-0.4
		s0.5-0.12,0.76-0.12c0.13,0,0.22,0,0.26,0.01c0.55,0.04,0.97,0.21,1.27,0.52c0.29,0.3,0.49,0.69,0.58,1.15s0.15,1.04,0.17,1.72
		c0,0.61-0.08,1.14-0.23,1.58c-0.16,0.45-0.4,0.73-0.74,0.85c-0.2,0.08-0.44,0.13-0.72,0.16c-0.09,0.01-0.23,0.01-0.42,0.01
		c-0.4,0-0.77-0.03-1.12-0.1s-0.52-0.14-0.54-0.24l0.02,1.46c0,0.18-0.01,0.39-0.02,0.65L22.37,11.02z M23.46,7.82
		c0.38,0,0.66-0.02,0.86-0.05s0.36-0.12,0.5-0.25c0.14-0.13,0.25-0.35,0.34-0.64c0.06-0.31,0.1-0.6,0.1-0.88
		c0-0.64-0.11-1.19-0.34-1.66s-0.67-0.67-1.31-0.62c-0.38,0.03-0.67,0.14-0.85,0.32c-0.18,0.18-0.29,0.42-0.34,0.71
		c-0.05,0.3-0.07,0.71-0.07,1.25c0,0.57,0.02,0.97,0.07,1.22s0.15,0.41,0.29,0.49S23.11,7.82,23.46,7.82z"/>
	<path d="M27.16,0l1.09,0.04c0,0.33-0.01,1.14-0.02,2.44c-0.02,1.6-0.02,2.86-0.02,3.77c0,1.01,0.01,1.81,0.04,2.41
		c-0.05,0.06-0.18,0.08-0.4,0.08l-0.37-0.01c-0.07-0.01-0.16-0.01-0.26-0.01c-0.06,0-0.1,0-0.12,0.01c0.05-0.65,0.07-1.3,0.07-1.96
		c0-0.5-0.02-1.24-0.05-2.23c-0.03-0.99-0.05-1.74-0.05-2.24C27.06,1.44,27.09,0.68,27.16,0z"/>
	<path d="M33.14,2.7c0.18-0.01,0.42,0,0.71,0.02l0.31,0.02c0.02,0.13,0.02,0.22,0.02,0.29v0.12c-0.01,0.18-0.01,0.46-0.01,0.83
		c0,0.3,0.01,0.75,0.02,1.34l0.01,1.34c0,0.58-0.02,1.1-0.05,1.57c0,0.02,0,0.08,0,0.16c0,0.08-0.01,0.15-0.02,0.22
		c-0.02,0.06-0.06,0.1-0.13,0.12h-0.2l-0.38-0.01c-0.06,0-0.12,0-0.17,0.01c-0.05,0.01-0.09,0.01-0.13,0.01
		C33.04,8.72,33,8.64,33,8.48c-0.01-0.06-0.01-0.14,0.01-0.22c0.01-0.08,0.02-0.15,0.02-0.2c-0.19,0.26-0.5,0.44-0.91,0.54
		c-0.42,0.1-0.82,0.14-1.22,0.14c-0.38,0-0.71-0.17-0.98-0.51c-0.27-0.34-0.47-0.76-0.59-1.25c-0.13-0.5-0.19-0.98-0.19-1.45
		c0-0.52,0.09-0.99,0.26-1.4c0.18-0.42,0.42-0.75,0.73-0.99c0.31-0.24,0.65-0.37,1.03-0.38l0.38-0.01c0.36,0,0.66,0.04,0.89,0.13
		s0.41,0.24,0.52,0.46c0-0.07,0.01-0.16,0.02-0.28c0.02-0.16,0.02-0.27,0.02-0.34C32.99,2.71,33.04,2.7,33.14,2.7z M31.8,3.78
		c-0.42-0.01-0.77,0.1-1.05,0.32c-0.28,0.22-0.46,0.48-0.52,0.79c-0.06,0.23-0.1,0.54-0.1,0.94c0.04,1.29,0.56,1.9,1.56,1.85
		c0.41,0,0.7-0.07,0.89-0.22s0.3-0.35,0.34-0.61c0.04-0.26,0.07-0.66,0.07-1.19c0-0.58-0.02-0.98-0.07-1.22
		c-0.05-0.24-0.15-0.4-0.31-0.49C32.45,3.86,32.18,3.8,31.8,3.78z"/>
	<path d="M36.18,2.76c0.02,0.09,0.02,0.2,0.02,0.34v0.3c0.27-0.16,0.59-0.3,0.96-0.43c0.37-0.12,0.74-0.19,1.1-0.19
		c0.44,0.02,0.8,0.14,1.08,0.37c0.19,0.17,0.29,0.85,0.29,2.05c0,0.3-0.01,0.78-0.02,1.42c-0.02,0.61-0.02,1.05-0.02,1.32
		c0,0.35,0,0.6,0.01,0.76c-0.15,0.02-0.37,0.04-0.66,0.04h-0.4c-0.02-0.13-0.02-0.35-0.02-0.67V7.55l0.01-0.77
		c0.02-0.52,0.02-0.89,0.01-1.12c0-0.05-0.01-0.21-0.03-0.49c-0.02-0.28-0.07-0.53-0.14-0.74c-0.02-0.28-0.22-0.41-0.59-0.38
		c-0.55,0.01-0.96,0.08-1.22,0.23s-0.41,0.4-0.44,0.78c-0.01,0.1-0.01,0.3-0.01,0.59c0,0.45,0.01,0.93,0.02,1.44
		c0.02,0.3,0.02,0.53,0.02,0.67c0,0.3-0.01,0.6-0.04,0.91v0.05c-0.15,0.03-0.3,0.05-0.45,0.04c-0.15,0-0.25-0.01-0.32-0.01
		c-0.13,0-0.23,0-0.3,0.01L35.05,6.7c-0.02-0.94-0.02-1.65-0.02-2.12c0-0.38,0.01-0.99,0.02-1.82c0.1,0.01,0.21,0.01,0.34,0.01
		s0.23,0,0.31-0.01c0.05,0,0.1,0,0.17-0.01c0.06-0.01,0.13-0.01,0.19-0.01C36.14,2.72,36.18,2.74,36.18,2.76z"/>
	<path d="M42.49,0.5v1.84l0.01,0.67c0.52-0.02,1.16-0.04,1.93-0.08c0.05,0.06,0.07,0.18,0.07,0.36L44.5,3.56
		c-0.02,0.18-0.02,0.3-0.01,0.38c-0.87,0-1.52,0-1.96-0.01v1.84v0.41c0,0.36,0.01,0.62,0.02,0.77s0.05,0.28,0.1,0.4
		c0.13,0.16,0.39,0.26,0.77,0.3c0.39,0.04,0.74,0.05,1.06,0.04C44.52,8,44.54,8.2,44.54,8.29c0,0.14-0.02,0.29-0.06,0.43
		c-0.17,0.01-0.43,0.01-0.79,0.01c-0.62,0-1.11-0.08-1.46-0.23c-0.35-0.15-0.58-0.46-0.67-0.91c-0.09-0.78-0.13-1.79-0.13-3.04V3.98
		C41.38,3.99,41.26,4,41.06,4l-0.91-0.01L40.19,3c0.18,0.02,0.6,0.02,1.26,0.02l-0.01-1.26V1.2c0-0.34,0.01-0.57,0.02-0.71
		c0.11-0.01,0.28,0,0.52,0.01l0.32,0.01C42.39,0.52,42.45,0.51,42.49,0.5z"/>
	<path d="M48.56,2.29v1.07c0.22-0.18,0.41-0.32,0.57-0.41c0.16-0.09,0.41-0.15,0.73-0.17c0.19-0.02,0.37-0.04,0.54-0.04
		c0.58,0,1.04,0.14,1.37,0.42c0.1,0.09,0.18,0.3,0.22,0.62s0.06,0.76,0.06,1.3c0,0.3-0.01,0.78-0.02,1.44C52,7.16,52,7.61,52,7.88
		c0,0.22,0.01,0.5,0.02,0.82c-0.32,0.05-0.66,0.06-1.03,0.05c-0.02-0.24-0.02-0.45-0.02-0.62V7.4V5.05c-0.02-0.51-0.14-0.84-0.36-1
		c-0.05-0.03-0.14-0.06-0.29-0.1c-0.17-0.05-0.34-0.07-0.52-0.07c-0.31,0-0.58,0.08-0.8,0.23c-0.22,0.16-0.36,0.4-0.43,0.73
		c-0.06,0.3-0.08,0.67-0.08,1.09l0.01,0.41c0.02,0.53,0.02,0.96,0.02,1.31c0,0.43-0.01,0.76-0.02,1V8.7
		c-0.16,0.04-0.29,0.06-0.38,0.06l-0.36-0.01c-0.11,0-0.2,0-0.28,0.01c0-0.92,0-1.68-0.01-2.28l-0.01-3.67
		c0-0.9,0.01-1.82,0.02-2.76c0.25,0.02,0.45,0.03,0.6,0.02c0.04,0,0.09,0,0.15-0.01c0.06-0.01,0.12-0.01,0.19-0.01
		c0.08,0,0.12,0.01,0.12,0.04c0.02,0.07,0.02,0.56,0.02,1.46V2.29z"/>
	<path d="M56.68,2.7c0.18-0.01,0.42,0,0.71,0.02l0.31,0.02c0.02,0.13,0.02,0.22,0.02,0.29v0.12c-0.01,0.18-0.01,0.46-0.01,0.83
		c0,0.3,0.01,0.75,0.02,1.34l0.01,1.34c0,0.58-0.02,1.1-0.05,1.57c0,0.02,0,0.08,0,0.16c0,0.08-0.01,0.15-0.02,0.22
		c-0.02,0.06-0.06,0.1-0.13,0.12h-0.2l-0.38-0.01c-0.06,0-0.12,0-0.17,0.01c-0.05,0.01-0.09,0.01-0.13,0.01
		c-0.08-0.02-0.12-0.11-0.12-0.26c-0.01-0.06-0.01-0.14,0.01-0.22c0.01-0.08,0.02-0.15,0.02-0.2c-0.19,0.26-0.5,0.44-0.91,0.54
		c-0.42,0.1-0.82,0.14-1.22,0.14c-0.38,0-0.71-0.17-0.98-0.51c-0.27-0.34-0.47-0.76-0.59-1.25c-0.13-0.5-0.19-0.98-0.19-1.45
		c0-0.52,0.09-0.99,0.26-1.4c0.18-0.42,0.42-0.75,0.73-0.99c0.31-0.24,0.65-0.37,1.03-0.38l0.38-0.01c0.36,0,0.66,0.04,0.89,0.13
		s0.41,0.24,0.52,0.46c0-0.07,0.01-0.16,0.02-0.28c0.02-0.16,0.02-0.27,0.02-0.34C56.52,2.71,56.57,2.7,56.68,2.7z M55.33,3.78
		c-0.42-0.01-0.77,0.1-1.05,0.32C54,4.32,53.82,4.58,53.76,4.88c-0.06,0.23-0.1,0.54-0.1,0.94c0.04,1.29,0.56,1.9,1.56,1.85
		c0.41,0,0.7-0.07,0.89-0.22s0.3-0.35,0.34-0.61c0.04-0.26,0.07-0.66,0.07-1.19c0-0.58-0.02-0.98-0.07-1.22
		c-0.05-0.24-0.15-0.4-0.31-0.49C55.99,3.86,55.72,3.8,55.33,3.78z"/>
	<path d="M63.35,4.28c0,0.04-0.14,0.06-0.42,0.06c-0.21,0-0.36,0-0.46-0.01c-0.06,0-0.13,0-0.19-0.01c-0.06,0-0.12,0-0.16,0.01
		c0-0.01,0-0.15,0-0.41c0-0.27-0.23-0.43-0.7-0.49c-0.1-0.02-0.26-0.02-0.47-0.02c-0.22,0-0.43,0.02-0.61,0.05
		c-0.18,0.03-0.31,0.08-0.4,0.13c-0.1,0.08-0.18,0.2-0.24,0.35c-0.06,0.15-0.08,0.3-0.08,0.44c0,0.11,0.02,0.19,0.05,0.23
		c0.09,0.18,0.2,0.31,0.35,0.38c0.08,0.06,0.28,0.12,0.59,0.2s0.58,0.12,0.8,0.13c0.33,0.01,0.62,0.06,0.87,0.15
		c0.25,0.09,0.45,0.22,0.59,0.38c0.14,0.18,0.25,0.35,0.32,0.52c0.07,0.17,0.1,0.36,0.1,0.56c0,0.25-0.06,0.55-0.18,0.9
		c-0.18,0.38-0.46,0.65-0.84,0.83c-0.38,0.18-0.82,0.26-1.31,0.25c-0.54,0.02-1.01-0.05-1.42-0.21c-0.41-0.16-0.72-0.39-0.95-0.7
		c-0.22-0.31-0.34-0.68-0.34-1.1V6.84c0.14-0.02,0.36-0.02,0.64-0.02c0.31,0,0.48,0.01,0.5,0.04c0.02,0.02,0.05,0.11,0.1,0.27
		c0.05,0.16,0.15,0.33,0.28,0.5c0.14,0.17,0.37,0.26,0.7,0.29c0.26,0.02,0.41,0.02,0.46,0.02c0.13,0,0.23-0.01,0.32-0.04
		s0.19-0.07,0.33-0.13c0.41-0.18,0.61-0.45,0.6-0.8c0.01-0.23-0.05-0.41-0.19-0.54c-0.13-0.13-0.3-0.21-0.5-0.26
		c-0.2-0.04-0.47-0.09-0.82-0.13c-0.25-0.02-0.45-0.05-0.6-0.07c-0.15-0.02-0.29-0.06-0.41-0.12c-0.42-0.14-0.73-0.35-0.95-0.64
		c-0.22-0.29-0.33-0.61-0.33-0.95c0-0.38,0.11-0.72,0.33-1.03c0.22-0.31,0.52-0.51,0.91-0.61c0.33-0.09,0.75-0.13,1.26-0.13
		c0.12,0,0.3,0.01,0.54,0.02c0.34,0.02,0.66,0.08,0.96,0.18c0.28,0.12,0.51,0.33,0.68,0.62S63.35,3.92,63.35,4.28z"/>
	<path d="M70.19,2.7c0.18-0.01,0.42,0,0.71,0.02l0.31,0.02c0.02,0.13,0.02,0.22,0.02,0.29v0.12c-0.01,0.18-0.01,0.46-0.01,0.83
		c0,0.3,0.01,0.75,0.02,1.34l0.01,1.34c0,0.58-0.02,1.1-0.05,1.57c0,0.02,0,0.08,0,0.16c0,0.08-0.01,0.15-0.02,0.22
		c-0.02,0.06-0.06,0.1-0.13,0.12h-0.2l-0.38-0.01c-0.06,0-0.12,0-0.17,0.01c-0.05,0.01-0.09,0.01-0.13,0.01
		c-0.08-0.02-0.12-0.11-0.12-0.26c-0.01-0.06-0.01-0.14,0.01-0.22c0.01-0.08,0.02-0.15,0.02-0.2c-0.19,0.26-0.5,0.44-0.91,0.54
		c-0.42,0.1-0.82,0.14-1.22,0.14c-0.38,0-0.71-0.17-0.98-0.51c-0.27-0.34-0.47-0.76-0.59-1.25c-0.13-0.5-0.19-0.98-0.19-1.45
		c0-0.52,0.09-0.99,0.26-1.4c0.18-0.42,0.42-0.75,0.73-0.99s0.65-0.37,1.03-0.38l0.38-0.01c0.36,0,0.66,0.04,0.89,0.13
		c0.24,0.08,0.41,0.24,0.52,0.46c0-0.07,0.01-0.16,0.02-0.28c0.02-0.16,0.02-0.27,0.02-0.34C70.03,2.71,70.08,2.7,70.19,2.7z
		 M68.84,3.78c-0.42-0.01-0.77,0.1-1.05,0.32c-0.28,0.22-0.46,0.48-0.52,0.79c-0.06,0.23-0.1,0.54-0.1,0.94
		c0.04,1.29,0.56,1.9,1.56,1.85c0.41,0,0.7-0.07,0.89-0.22c0.18-0.14,0.3-0.35,0.34-0.61c0.04-0.26,0.07-0.66,0.07-1.19
		c0-0.58-0.02-0.98-0.07-1.22c-0.05-0.24-0.15-0.4-0.31-0.49S69.23,3.8,68.84,3.78z"/>
	<path d="M73.18,2.76c0,0.1,0,0.17,0.01,0.22c0,0.05,0.01,0.11,0.01,0.19c0.06-0.03,0.13-0.07,0.23-0.11
		c0.1-0.04,0.21-0.08,0.33-0.12c0.18-0.06,0.41-0.11,0.67-0.14s0.49-0.04,0.7-0.04c0.19,0,0.29,0.01,0.29,0.02l-0.01,1
		c0,0.16,0,0.28,0.01,0.36C75.29,4.09,75.15,4.05,75,4.01c-0.18-0.04-0.37-0.06-0.58-0.06c-0.22,0-0.46,0.03-0.73,0.1
		c-0.22,0.06-0.38,0.14-0.46,0.25c-0.08,0.11-0.12,0.32-0.11,0.64c0.03,1.1,0.05,2.34,0.05,3.73v0.05
		c-0.14,0.03-0.28,0.05-0.42,0.05c-0.06,0-0.15,0-0.27-0.01c-0.12,0-0.25,0-0.38,0.01L72.1,6.7c-0.02-0.94-0.02-1.65-0.02-2.12
		c0-0.38,0.01-0.99,0.02-1.82c0.08,0.01,0.17,0.01,0.26,0.01c0.09,0,0.17-0.01,0.25-0.01c0.1-0.01,0.22-0.01,0.38-0.01
		C73.11,2.74,73.18,2.74,73.18,2.76z"/>
	<path d="M79.75,6.37c0.1,0.02,0.18,0.02,0.26,0.02l0.42-0.01c0.13,0,0.24,0.01,0.34,0.04c-0.04,0.55-0.08,0.98-0.13,1.28
		c-0.04,0.3-0.11,0.5-0.21,0.6c-0.15,0.22-0.36,0.36-0.63,0.44c-0.27,0.08-0.59,0.12-0.95,0.12c-0.14,0-0.36-0.01-0.65-0.02
		l-0.55-0.01c-0.47-0.08-0.82-0.26-1.06-0.53c-0.23-0.28-0.38-0.6-0.45-0.98c-0.07-0.38-0.11-0.87-0.14-1.49
		c0-0.45,0-0.78-0.01-0.98c0-0.47,0.09-1,0.26-1.57c0.1-0.23,0.33-0.41,0.67-0.52c0.34-0.12,0.72-0.17,1.13-0.17
		c0.06,0.01,0.16,0.01,0.28,0.01c0.07,0,0.16,0,0.27-0.01c0.11,0,0.24,0,0.39,0.01c0.6,0.06,1.04,0.22,1.33,0.5
		c0.18,0.13,0.3,0.33,0.35,0.61c0.05,0.28,0.09,0.7,0.1,1.26l0.01,0.29c-0.12,0.02-0.24,0.04-0.36,0.04c-0.21,0-0.42-0.02-0.64-0.06
		c-0.01-0.57-0.11-0.96-0.31-1.16c-0.2-0.21-0.51-0.31-0.93-0.31c-0.09,0-0.24,0.01-0.47,0.02c-0.21,0.01-0.37,0.03-0.49,0.06
		c-0.12,0.03-0.22,0.11-0.31,0.23c-0.09,0.12-0.15,0.3-0.19,0.55c-0.02,0.17-0.04,0.47-0.04,0.9v0.96
		c-0.02,0.26,0.05,0.54,0.19,0.82c0.14,0.28,0.43,0.45,0.86,0.49c0.08,0.01,0.19,0.01,0.32,0.01c0.38,0,0.66-0.07,0.84-0.22
		c0.18-0.14,0.3-0.31,0.35-0.5C79.7,6.9,79.74,6.66,79.75,6.37z"/>
	<path d="M82.54,2.29v1.07c0.22-0.18,0.41-0.32,0.57-0.41c0.16-0.09,0.41-0.15,0.73-0.17c0.19-0.02,0.37-0.04,0.54-0.04
		c0.58,0,1.04,0.14,1.37,0.42c0.1,0.09,0.18,0.3,0.22,0.62s0.06,0.76,0.06,1.3c0,0.3-0.01,0.78-0.02,1.44
		c-0.02,0.64-0.02,1.1-0.02,1.37c0,0.22,0.01,0.5,0.02,0.82c-0.32,0.05-0.66,0.06-1.03,0.05c-0.02-0.24-0.02-0.45-0.02-0.62V7.4
		V5.05c-0.02-0.51-0.14-0.84-0.36-1c-0.05-0.03-0.14-0.06-0.29-0.1c-0.17-0.05-0.34-0.07-0.52-0.07c-0.31,0-0.58,0.08-0.8,0.23
		c-0.22,0.16-0.36,0.4-0.43,0.73c-0.06,0.3-0.08,0.67-0.08,1.09l0.01,0.41c0.02,0.53,0.02,0.96,0.02,1.31c0,0.43-0.01,0.76-0.02,1
		V8.7c-0.16,0.04-0.29,0.06-0.38,0.06l-0.36-0.01c-0.11,0-0.2,0-0.28,0.01c0-0.92,0-1.68-0.01-2.28l-0.01-3.67
		c0-0.9,0.01-1.82,0.02-2.76c0.25,0.02,0.45,0.03,0.6,0.02c0.04,0,0.09,0,0.15-0.01c0.06-0.01,0.12-0.01,0.19-0.01
		c0.08,0,0.12,0.01,0.12,0.04c0.02,0.07,0.02,0.56,0.02,1.46V2.29z"/>
	<path d="M87.16,2.66c0.06-0.01,0.17-0.01,0.34,0c0.24,0.02,0.5,0.02,0.79,0.02v0.04c0,0.36-0.01,0.92-0.02,1.67
		c-0.02,0.77-0.04,1.54-0.04,2.33c0,0.74,0.02,1.39,0.05,1.97c-0.11,0.02-0.28,0.04-0.5,0.04c-0.22,0-0.36,0-0.41,0
		c-0.14,0-0.23,0-0.26,0.01c0.01-0.23,0.01-0.58,0.01-1.06V6.6V5.59c-0.02-0.56-0.02-0.99-0.02-1.3c0-0.55,0.02-1.09,0.07-1.62V2.66
		z M87.11,0.08c0.5,0.02,0.87,0.02,1.13,0.02l0.04,1.58c-0.08,0.04-0.22,0.06-0.43,0.06c-0.13,0-0.22,0-0.29-0.01
		c-0.05,0-0.1,0-0.17-0.01c-0.06,0-0.14,0-0.23,0.01c0-0.12-0.01-0.32-0.02-0.59C87.11,0.62,87.1,0.27,87.11,0.08z"/>
	<path d="M90.46,2.76c0.02,0.09,0.02,0.2,0.02,0.34v0.3c0.27-0.16,0.59-0.3,0.96-0.43s0.74-0.19,1.1-0.19
		c0.44,0.02,0.8,0.14,1.08,0.37c0.19,0.17,0.29,0.85,0.29,2.05c0,0.3-0.01,0.78-0.02,1.42c-0.02,0.61-0.02,1.05-0.02,1.32
		c0,0.35,0,0.6,0.01,0.76c-0.15,0.02-0.37,0.04-0.66,0.04h-0.4c-0.02-0.13-0.02-0.35-0.02-0.67V7.55l0.01-0.77
		c0.02-0.52,0.02-0.89,0.01-1.12c0-0.05-0.01-0.21-0.03-0.49c-0.02-0.28-0.07-0.53-0.14-0.74c-0.02-0.28-0.22-0.41-0.59-0.38
		c-0.55,0.01-0.96,0.08-1.22,0.23s-0.41,0.4-0.44,0.78c-0.01,0.1-0.01,0.3-0.01,0.59c0,0.45,0.01,0.93,0.02,1.44
		c0.02,0.3,0.02,0.53,0.02,0.67c0,0.3-0.01,0.6-0.04,0.91v0.05c-0.15,0.03-0.3,0.05-0.45,0.04c-0.15,0-0.25-0.01-0.32-0.01
		c-0.13,0-0.23,0-0.3,0.01L89.33,6.7c-0.02-0.94-0.02-1.65-0.02-2.12c0-0.38,0.01-0.99,0.02-1.82c0.1,0.01,0.21,0.01,0.34,0.01
		s0.23,0,0.31-0.01c0.05,0,0.1,0,0.17-0.01c0.06-0.01,0.13-0.01,0.19-0.01C90.42,2.72,90.46,2.74,90.46,2.76z"/>
	<path d="M99.31,10.28c-0.15,0.34-0.34,0.57-0.58,0.68c-0.23,0.11-0.5,0.18-0.8,0.2c-0.35,0.02-0.57,0.02-0.66,0.02
		c-0.15,0-0.35-0.01-0.59-0.02c-0.53-0.04-0.97-0.22-1.33-0.53c-0.36-0.31-0.54-0.7-0.54-1.18c0-0.1,0-0.18,0.01-0.24
		c0.04-0.02,0.15-0.03,0.32-0.04c0.18-0.01,0.34-0.02,0.5-0.02c0.14,0,0.21,0.01,0.23,0.02c0.01,0.02,0.01,0.08,0.01,0.18
		c0,0.21,0.05,0.39,0.14,0.55c0.1,0.16,0.3,0.26,0.61,0.31c0.16,0.01,0.37,0.01,0.62,0.01c0.34,0,0.58-0.02,0.74-0.05
		c0.16-0.04,0.26-0.1,0.3-0.19c0.04-0.09,0.06-0.23,0.04-0.41V9.14v-0.4c0-0.04,0-0.08,0.01-0.13s0.01-0.12,0.02-0.2
		c-0.14,0.16-0.29,0.26-0.47,0.29s-0.51,0.05-1,0.05h-0.46c-0.8,0-1.32-0.25-1.56-0.76c-0.2-0.38-0.31-0.84-0.34-1.4
		c0-0.74,0.03-1.36,0.09-1.85c0.06-0.49,0.24-0.93,0.53-1.33s0.75-0.61,1.39-0.65c0.42-0.01,0.74,0.01,0.97,0.04
		c0.23,0.04,0.4,0.1,0.51,0.19c0.11,0.09,0.2,0.21,0.28,0.37c0.02-0.11,0.04-0.22,0.04-0.31c0-0.05,0-0.1-0.01-0.15
		c0-0.05,0-0.1,0.01-0.15c0.21-0.02,0.36-0.02,0.47-0.02l0.62,0.01c0.03,0.93,0.05,2.02,0.05,3.26c0,1.24-0.02,2.32-0.06,3.24
		c0,0.08,0,0.19-0.01,0.32c0,0.14-0.01,0.27-0.02,0.39C99.38,10.08,99.35,10.19,99.31,10.28z M95.48,5.87v0.14
		c-0.02,0.43,0.05,0.84,0.22,1.21s0.48,0.58,0.94,0.6c0.12,0.01,0.28,0.01,0.49,0.01c0.43,0,0.74-0.08,0.93-0.23
		c0.19-0.15,0.29-0.45,0.32-0.89c0-0.57,0-1.02-0.01-1.37c0-0.81-0.18-1.31-0.54-1.5c-0.17-0.1-0.4-0.14-0.7-0.14
		c-0.16,0-0.32,0.01-0.47,0.04c-0.45,0.08-0.76,0.31-0.92,0.68C95.57,4.79,95.48,5.28,95.48,5.87z"/>
	<path d="M107.5,4.28c0,0.04-0.14,0.06-0.42,0.06c-0.21,0-0.36,0-0.46-0.01c-0.06,0-0.13,0-0.19-0.01c-0.06,0-0.12,0-0.16,0.01
		c0-0.01,0-0.15,0-0.41c0-0.27-0.23-0.43-0.7-0.49c-0.1-0.02-0.26-0.02-0.47-0.02c-0.22,0-0.43,0.02-0.61,0.05
		c-0.18,0.03-0.31,0.08-0.4,0.13c-0.1,0.08-0.18,0.2-0.24,0.35c-0.06,0.15-0.08,0.3-0.08,0.44c0,0.11,0.02,0.19,0.05,0.23
		c0.09,0.18,0.2,0.31,0.35,0.38c0.08,0.06,0.28,0.12,0.59,0.2c0.31,0.08,0.58,0.12,0.8,0.13c0.33,0.01,0.62,0.06,0.87,0.15
		c0.25,0.09,0.45,0.22,0.59,0.38c0.14,0.18,0.25,0.35,0.32,0.52c0.07,0.17,0.1,0.36,0.1,0.56c0,0.25-0.06,0.55-0.18,0.9
		c-0.18,0.38-0.46,0.65-0.84,0.83c-0.38,0.18-0.82,0.26-1.31,0.25c-0.54,0.02-1.01-0.05-1.42-0.21c-0.41-0.16-0.72-0.39-0.95-0.7
		s-0.34-0.68-0.34-1.1V6.84c0.14-0.02,0.36-0.02,0.64-0.02c0.31,0,0.48,0.01,0.5,0.04c0.02,0.02,0.05,0.11,0.1,0.27
		s0.15,0.33,0.28,0.5c0.14,0.17,0.37,0.26,0.7,0.29c0.26,0.02,0.41,0.02,0.46,0.02c0.13,0,0.23-0.01,0.32-0.04s0.19-0.07,0.33-0.13
		c0.41-0.18,0.61-0.45,0.6-0.8c0.01-0.23-0.05-0.41-0.19-0.54c-0.13-0.13-0.3-0.21-0.5-0.26s-0.47-0.09-0.82-0.13
		c-0.25-0.02-0.45-0.05-0.6-0.07c-0.15-0.02-0.29-0.06-0.41-0.12c-0.42-0.14-0.73-0.35-0.95-0.64s-0.33-0.61-0.33-0.95
		c0-0.38,0.11-0.72,0.33-1.03s0.52-0.51,0.91-0.61c0.33-0.09,0.75-0.13,1.26-0.13c0.12,0,0.3,0.01,0.54,0.02
		c0.34,0.02,0.66,0.08,0.96,0.18c0.28,0.12,0.51,0.33,0.68,0.62C107.41,3.6,107.5,3.92,107.5,4.28z"/>
	<path d="M110.17,0.5v1.84l0.01,0.67c0.52-0.02,1.16-0.04,1.93-0.08c0.05,0.06,0.07,0.18,0.07,0.36l-0.01,0.28
		c-0.02,0.18-0.02,0.3-0.01,0.38c-0.87,0-1.52,0-1.96-0.01v1.84v0.41c0,0.36,0.01,0.62,0.02,0.77s0.05,0.28,0.1,0.4
		c0.13,0.16,0.39,0.26,0.77,0.3c0.39,0.04,0.74,0.05,1.06,0.04c0.04,0.32,0.06,0.52,0.06,0.61c0,0.14-0.02,0.29-0.06,0.43
		c-0.17,0.01-0.43,0.01-0.79,0.01c-0.62,0-1.11-0.08-1.46-0.23c-0.35-0.15-0.58-0.46-0.67-0.91c-0.09-0.78-0.13-1.79-0.13-3.04V3.98
		C109.06,3.99,108.94,4,108.74,4l-0.91-0.01L107.87,3c0.18,0.02,0.6,0.02,1.26,0.02l-0.01-1.26V1.2c0-0.34,0.01-0.57,0.02-0.71
		c0.11-0.01,0.28,0,0.52,0.01l0.32,0.01C110.07,0.52,110.13,0.51,110.17,0.5z"/>
	<path d="M113.65,5.69V5.9l-0.01,0.35c0,0.99,0.49,1.49,1.46,1.49c0.39,0,0.68-0.09,0.87-0.27c0.19-0.18,0.28-0.43,0.28-0.74
		c0-0.05-0.01-0.14-0.02-0.26c0.17-0.02,0.32-0.04,0.47-0.04c0.13,0,0.22,0,0.29,0.01c0.05,0,0.11,0,0.17,0.01
		c0.07,0,0.15,0,0.23-0.01c0.01,0.46-0.01,0.82-0.05,1.09s-0.14,0.53-0.29,0.78c-0.14,0.22-0.39,0.37-0.75,0.46
		c-0.36,0.09-0.75,0.14-1.17,0.14c-0.19,0-0.37-0.01-0.53-0.02c-0.16-0.02-0.27-0.03-0.31-0.05c-0.62-0.1-1.08-0.5-1.36-1.18
		c-0.28-0.68-0.4-1.47-0.36-2.35c0.01-0.06,0.02-0.2,0.04-0.4c0.02-0.2,0.04-0.41,0.07-0.63c0.03-0.22,0.08-0.43,0.16-0.64
		c0.15-0.35,0.43-0.62,0.83-0.82c0.4-0.19,0.84-0.29,1.33-0.29c0.26,0,0.52,0.03,0.8,0.1c1.09,0.18,1.63,1,1.63,2.46
		c0,0.12-0.01,0.29-0.02,0.52c-0.15,0.05-0.6,0.09-1.34,0.12c-0.09,0.01-0.28,0.01-0.58,0.01c-0.63,0-1.1-0.01-1.4-0.02
		C113.89,5.72,113.75,5.71,113.65,5.69z M116.57,4.79c-0.01-0.25-0.07-0.49-0.19-0.73c-0.12-0.24-0.28-0.43-0.5-0.56
		c-0.12-0.06-0.22-0.09-0.31-0.11s-0.2-0.02-0.34-0.02c-0.52,0-0.89,0.11-1.11,0.32s-0.36,0.52-0.41,0.92
		c-0.02,0.1-0.02,0.16-0.02,0.19c0,0.1,0.05,0.16,0.14,0.19c0.09,0.03,0.29,0.05,0.59,0.05c0.3,0,0.55,0,0.76-0.01
		c0.77,0,1.2,0,1.3-0.01c0.04-0.01,0.07-0.02,0.08-0.03c0.01-0.01,0.02-0.03,0.02-0.07V4.79z"/>
	<path d="M119.18,2.77c0.02,0.09,0.02,0.2,0.02,0.34v0.3c0.3-0.3,0.65-0.48,1.06-0.54c0.28-0.06,0.52-0.08,0.71-0.08
		c0.34,0,0.63,0.07,0.85,0.2c0.18,0.08,0.29,0.19,0.35,0.34c0.06-0.03,0.14-0.09,0.25-0.17c0.11-0.08,0.26-0.16,0.44-0.24
		c0.19-0.08,0.45-0.12,0.79-0.13c0.4-0.02,0.71,0,0.94,0.05c0.23,0.05,0.43,0.16,0.62,0.32c0.1,0.09,0.18,0.3,0.22,0.62
		s0.06,0.76,0.06,1.3c0,0.3-0.01,0.78-0.02,1.44c-0.02,0.64-0.02,1.1-0.02,1.37c0,0.22,0.01,0.5,0.02,0.82
		c-0.29,0.05-0.63,0.06-1.02,0.05c-0.02-0.22-0.02-0.61-0.02-1.19c0.02-0.62,0.02-1.1,0.02-1.44v-0.5
		c-0.01-0.06-0.02-0.18-0.02-0.35s-0.02-0.35-0.05-0.55c-0.02-0.2-0.07-0.35-0.14-0.46c-0.05-0.16-0.2-0.25-0.47-0.28
		c-0.08-0.02-0.2-0.02-0.35-0.02c-0.23,0-0.43,0.04-0.6,0.11s-0.29,0.19-0.36,0.35c-0.02,0.18-0.02,0.32-0.02,0.42l0.01,0.34v0.44
		c0,0.27-0.01,0.69-0.02,1.25l-0.01,1.2c0,0.3,0,0.51,0.01,0.64c-0.17,0.02-0.4,0.04-0.68,0.04h-0.37
		c-0.02-0.16-0.02-0.44-0.02-0.85V7.26l0.01-0.89c0-0.55-0.02-1.04-0.05-1.46c0-0.34-0.06-0.57-0.17-0.69s-0.32-0.19-0.62-0.19
		c-0.85,0-1.3,0.48-1.37,1.43c-0.01,0.12-0.01,0.3-0.01,0.53c0,0.26,0.01,0.62,0.02,1.08l0.01,0.59c0,0.33-0.01,0.67-0.04,1.02v0.05
		c-0.12,0.02-0.23,0.04-0.34,0.04l-0.4-0.01c-0.12,0-0.22,0-0.29,0.01l-0.01-2.06c-0.02-0.94-0.02-1.65-0.02-2.12
		c0-0.38,0.01-0.99,0.02-1.82c0.21,0.02,0.33,0.02,0.37,0.02l0.26-0.01c0.04,0,0.09,0,0.16-0.01c0.06-0.01,0.13-0.01,0.19-0.01
		C119.15,2.74,119.18,2.75,119.18,2.77z"/>
	<path d="M131.08,4.28c0,0.04-0.14,0.06-0.42,0.06c-0.21,0-0.36,0-0.46-0.01c-0.06,0-0.13,0-0.19-0.01c-0.06,0-0.12,0-0.16,0.01
		c0-0.01,0-0.15,0-0.41c0-0.27-0.23-0.43-0.7-0.49c-0.1-0.02-0.26-0.02-0.47-0.02c-0.22,0-0.43,0.02-0.61,0.05
		c-0.18,0.03-0.31,0.08-0.4,0.13c-0.1,0.08-0.18,0.2-0.24,0.35c-0.06,0.15-0.08,0.3-0.08,0.44c0,0.11,0.02,0.19,0.05,0.23
		c0.09,0.18,0.2,0.31,0.35,0.38c0.08,0.06,0.28,0.12,0.59,0.2c0.31,0.08,0.58,0.12,0.8,0.13c0.33,0.01,0.62,0.06,0.87,0.15
		c0.25,0.09,0.45,0.22,0.59,0.38c0.14,0.18,0.25,0.35,0.32,0.52c0.07,0.17,0.1,0.36,0.1,0.56c0,0.25-0.06,0.55-0.18,0.9
		c-0.18,0.38-0.46,0.65-0.84,0.83c-0.38,0.18-0.82,0.26-1.31,0.25c-0.54,0.02-1.01-0.05-1.42-0.21c-0.41-0.16-0.72-0.39-0.95-0.7
		S126,7.32,126,6.9V6.84c0.14-0.02,0.36-0.02,0.64-0.02c0.31,0,0.48,0.01,0.5,0.04c0.02,0.02,0.05,0.11,0.1,0.27s0.15,0.33,0.28,0.5
		c0.14,0.17,0.37,0.26,0.7,0.29c0.26,0.02,0.41,0.02,0.46,0.02c0.13,0,0.23-0.01,0.32-0.04s0.19-0.07,0.33-0.13
		c0.41-0.18,0.61-0.45,0.6-0.8c0.01-0.23-0.05-0.41-0.19-0.54c-0.13-0.13-0.3-0.21-0.5-0.26s-0.47-0.09-0.82-0.13
		c-0.25-0.02-0.45-0.05-0.6-0.07c-0.15-0.02-0.29-0.06-0.41-0.12c-0.42-0.14-0.73-0.35-0.95-0.64s-0.33-0.61-0.33-0.95
		c0-0.38,0.11-0.72,0.33-1.03s0.52-0.51,0.91-0.61c0.33-0.09,0.75-0.13,1.26-0.13c0.12,0,0.3,0.01,0.54,0.02
		c0.34,0.02,0.66,0.08,0.96,0.18c0.28,0.12,0.51,0.33,0.68,0.62C130.99,3.6,131.08,3.92,131.08,4.28z"/>
	<path d="M137.92,2.7c0.18-0.01,0.42,0,0.71,0.02l0.31,0.02c0.02,0.13,0.02,0.22,0.02,0.29v0.12c-0.01,0.18-0.01,0.46-0.01,0.83
		c0,0.3,0.01,0.75,0.02,1.34l0.01,1.34c0,0.58-0.02,1.1-0.05,1.57c0,0.02,0,0.08,0,0.16c0,0.08-0.01,0.15-0.02,0.22
		c-0.02,0.06-0.06,0.1-0.13,0.12h-0.2l-0.38-0.01c-0.06,0-0.12,0-0.17,0.01c-0.05,0.01-0.09,0.01-0.13,0.01
		c-0.08-0.02-0.12-0.11-0.12-0.26c-0.01-0.06-0.01-0.14,0.01-0.22c0.01-0.08,0.02-0.15,0.02-0.2c-0.19,0.26-0.5,0.44-0.91,0.54
		c-0.42,0.1-0.82,0.14-1.22,0.14c-0.38,0-0.71-0.17-0.98-0.51c-0.27-0.34-0.47-0.76-0.59-1.25c-0.13-0.5-0.19-0.98-0.19-1.45
		c0-0.52,0.09-0.99,0.26-1.4c0.18-0.42,0.42-0.75,0.73-0.99s0.65-0.37,1.03-0.38l0.38-0.01c0.36,0,0.66,0.04,0.89,0.13
		c0.24,0.08,0.41,0.24,0.52,0.46c0-0.07,0.01-0.16,0.02-0.28c0.02-0.16,0.02-0.27,0.02-0.34C137.76,2.71,137.81,2.7,137.92,2.7z
		 M136.57,3.78c-0.42-0.01-0.77,0.1-1.05,0.32c-0.28,0.22-0.46,0.48-0.52,0.79c-0.06,0.23-0.1,0.54-0.1,0.94
		c0.04,1.29,0.56,1.9,1.56,1.85c0.41,0,0.7-0.07,0.89-0.22c0.18-0.14,0.3-0.35,0.34-0.61c0.04-0.26,0.07-0.66,0.07-1.19
		c0-0.58-0.02-0.98-0.07-1.22c-0.05-0.24-0.15-0.4-0.31-0.49S136.96,3.8,136.57,3.78z"/>
	<path d="M140.95,2.76c0.02,0.09,0.02,0.2,0.02,0.34v0.3c0.27-0.16,0.59-0.3,0.96-0.43s0.74-0.19,1.1-0.19
		c0.44,0.02,0.8,0.14,1.08,0.37c0.19,0.17,0.29,0.85,0.29,2.05c0,0.3-0.01,0.78-0.02,1.42c-0.02,0.61-0.02,1.05-0.02,1.32
		c0,0.35,0,0.6,0.01,0.76c-0.15,0.02-0.37,0.04-0.66,0.04h-0.4c-0.02-0.13-0.02-0.35-0.02-0.67V7.55l0.01-0.77
		c0.02-0.52,0.02-0.89,0.01-1.12c0-0.05-0.01-0.21-0.03-0.49c-0.02-0.28-0.07-0.53-0.14-0.74c-0.02-0.28-0.22-0.41-0.59-0.38
		c-0.55,0.01-0.96,0.08-1.22,0.23s-0.41,0.4-0.44,0.78c-0.01,0.1-0.01,0.3-0.01,0.59c0,0.45,0.01,0.93,0.02,1.44
		c0.02,0.3,0.02,0.53,0.02,0.67c0,0.3-0.01,0.6-0.04,0.91v0.05c-0.15,0.03-0.3,0.05-0.45,0.04c-0.15,0-0.25-0.01-0.32-0.01
		c-0.13,0-0.23,0-0.3,0.01l-0.01-2.06c-0.02-0.94-0.02-1.65-0.02-2.12c0-0.38,0.01-0.99,0.02-1.82c0.1,0.01,0.21,0.01,0.34,0.01
		s0.23,0,0.31-0.01c0.05,0,0.1,0,0.17-0.01c0.06-0.01,0.13-0.01,0.19-0.01C140.91,2.72,140.95,2.74,140.95,2.76z"/>
	<path d="M148.81,0.44V0.31c0.02-0.04,0.21-0.06,0.58-0.06c0.21,0,0.36,0.01,0.47,0.02v0.79c0,0.76,0.02,1.87,0.05,3.32
		c0.01,0.36,0.02,0.79,0.02,1.29c0.01,0.5,0.01,1.07,0.01,1.71c0,0.59,0,1.03-0.01,1.32c-0.26,0.02-0.47,0.02-0.64,0.02
		c-0.22,0-0.38-0.01-0.48-0.02c-0.01-0.02-0.01-0.1-0.01-0.25c0-0.21-0.02-0.37-0.06-0.48c-0.06,0.13-0.15,0.26-0.28,0.38
		s-0.27,0.2-0.4,0.23c-0.22,0.07-0.46,0.11-0.72,0.11c-0.13,0-0.22,0-0.29-0.01c-0.57-0.04-1-0.22-1.28-0.53s-0.48-0.7-0.57-1.16
		s-0.15-1.02-0.16-1.69c0-0.67,0.09-1.23,0.27-1.66c0.18-0.44,0.49-0.71,0.94-0.83c0.3-0.08,0.63-0.12,1.01-0.12
		c0.3,0,0.54,0.02,0.71,0.06c0.16,0.02,0.3,0.08,0.43,0.16s0.23,0.17,0.3,0.26c0.07,0.09,0.11,0.16,0.12,0.2l-0.01-1.02
		c0-0.21,0-0.39-0.01-0.56c0-0.16,0-0.29,0.01-0.39c0.01-0.04,0.01-0.09,0.01-0.15c0-0.06-0.01-0.11-0.01-0.16V0.84
		C148.8,0.66,148.8,0.52,148.81,0.44z M147.65,3.59l-0.23-0.01c-0.43,0-0.76,0.11-1,0.32c-0.23,0.21-0.36,0.54-0.4,0.99
		c-0.02,0.18-0.04,0.44-0.04,0.79c0.02,0.53,0.08,0.94,0.2,1.23c0.12,0.29,0.28,0.5,0.48,0.61c0.2,0.12,0.47,0.17,0.81,0.17
		c0.38,0,0.67-0.09,0.86-0.27c0.19-0.18,0.32-0.42,0.37-0.71c0.06-0.3,0.08-0.68,0.08-1.16c-0.01-0.46-0.03-0.81-0.08-1.07
		c-0.04-0.26-0.15-0.46-0.31-0.62C148.25,3.69,147.99,3.6,147.65,3.59z"/>
	<path d="M153.47,0l1.09,0.04c0,0.33-0.01,1.14-0.02,2.44c-0.02,1.6-0.02,2.86-0.02,3.77c0,1.01,0.01,1.81,0.04,2.41
		c-0.05,0.06-0.18,0.08-0.4,0.08l-0.37-0.01c-0.07-0.01-0.16-0.01-0.26-0.01c-0.06,0-0.1,0-0.12,0.01c0.05-0.65,0.07-1.3,0.07-1.96
		c0-0.5-0.02-1.24-0.05-2.23c-0.03-0.99-0.05-1.74-0.05-2.24C153.37,1.44,153.4,0.68,153.47,0z"/>
	<path d="M159.46,2.7c0.18-0.01,0.42,0,0.71,0.02l0.31,0.02c0.02,0.13,0.02,0.22,0.02,0.29v0.12c-0.01,0.18-0.01,0.46-0.01,0.83
		c0,0.3,0.01,0.75,0.02,1.34l0.01,1.34c0,0.58-0.02,1.1-0.05,1.57c0,0.02,0,0.08,0,0.16c0,0.08-0.01,0.15-0.02,0.22
		c-0.02,0.06-0.06,0.1-0.13,0.12h-0.2l-0.38-0.01c-0.06,0-0.12,0-0.17,0.01c-0.05,0.01-0.09,0.01-0.13,0.01
		c-0.08-0.02-0.12-0.11-0.12-0.26c-0.01-0.06-0.01-0.14,0.01-0.22c0.01-0.08,0.02-0.15,0.02-0.2c-0.19,0.26-0.5,0.44-0.91,0.54
		c-0.42,0.1-0.82,0.14-1.22,0.14c-0.38,0-0.71-0.17-0.98-0.51c-0.27-0.34-0.47-0.76-0.59-1.25c-0.13-0.5-0.19-0.98-0.19-1.45
		c0-0.52,0.09-0.99,0.26-1.4c0.18-0.42,0.42-0.75,0.73-0.99s0.65-0.37,1.03-0.38l0.38-0.01c0.36,0,0.66,0.04,0.89,0.13
		c0.24,0.08,0.41,0.24,0.52,0.46c0-0.07,0.01-0.16,0.02-0.28c0.02-0.16,0.02-0.27,0.02-0.34C159.3,2.71,159.35,2.7,159.46,2.7z
		 M158.11,3.78c-0.42-0.01-0.77,0.1-1.05,0.32c-0.28,0.22-0.46,0.48-0.52,0.79c-0.06,0.23-0.1,0.54-0.1,0.94
		c0.04,1.29,0.56,1.9,1.56,1.85c0.41,0,0.7-0.07,0.89-0.22c0.18-0.14,0.3-0.35,0.34-0.61c0.04-0.26,0.07-0.66,0.07-1.19
		c0-0.58-0.02-0.98-0.07-1.22c-0.05-0.24-0.15-0.4-0.31-0.49S158.5,3.8,158.11,3.78z"/>
	<path d="M162.44,2.76c0,0.1,0,0.17,0.01,0.22c0,0.05,0.01,0.11,0.01,0.19c0.06-0.03,0.13-0.07,0.23-0.11
		c0.1-0.04,0.21-0.08,0.33-0.12c0.18-0.06,0.41-0.11,0.67-0.14s0.49-0.04,0.7-0.04c0.19,0,0.29,0.01,0.29,0.02l-0.01,1
		c0,0.16,0,0.28,0.01,0.36c-0.12-0.05-0.26-0.09-0.41-0.13c-0.18-0.04-0.37-0.06-0.58-0.06c-0.22,0-0.46,0.03-0.73,0.1
		c-0.22,0.06-0.38,0.14-0.46,0.25c-0.08,0.11-0.12,0.32-0.11,0.64c0.03,1.1,0.05,2.34,0.05,3.73v0.05
		c-0.14,0.03-0.28,0.05-0.42,0.05c-0.06,0-0.15,0-0.27-0.01c-0.12,0-0.25,0-0.38,0.01l-0.01-2.06c-0.02-0.94-0.02-1.65-0.02-2.12
		c0-0.38,0.01-0.99,0.02-1.82c0.08,0.01,0.17,0.01,0.26,0.01c0.09,0,0.17-0.01,0.25-0.01c0.1-0.01,0.22-0.01,0.38-0.01
		C162.38,2.74,162.44,2.74,162.44,2.76z"/>
	<path d="M170.02,10.28c-0.15,0.34-0.34,0.57-0.58,0.68c-0.23,0.11-0.5,0.18-0.8,0.2c-0.35,0.02-0.57,0.02-0.66,0.02
		c-0.15,0-0.35-0.01-0.59-0.02c-0.53-0.04-0.97-0.22-1.33-0.53c-0.36-0.31-0.54-0.7-0.54-1.18c0-0.1,0-0.18,0.01-0.24
		c0.04-0.02,0.15-0.03,0.32-0.04c0.18-0.01,0.34-0.02,0.5-0.02c0.14,0,0.21,0.01,0.23,0.02c0.01,0.02,0.01,0.08,0.01,0.18
		c0,0.21,0.05,0.39,0.14,0.55c0.1,0.16,0.3,0.26,0.61,0.31c0.16,0.01,0.37,0.01,0.62,0.01c0.34,0,0.58-0.02,0.74-0.05
		c0.16-0.04,0.26-0.1,0.3-0.19c0.04-0.09,0.06-0.23,0.04-0.41V9.14v-0.4c0-0.04,0-0.08,0.01-0.13s0.01-0.12,0.02-0.2
		c-0.14,0.16-0.29,0.26-0.47,0.29s-0.51,0.05-1,0.05h-0.46c-0.8,0-1.32-0.25-1.56-0.76c-0.2-0.38-0.31-0.84-0.34-1.4
		c0-0.74,0.03-1.36,0.09-1.85c0.06-0.49,0.24-0.93,0.53-1.33s0.75-0.61,1.39-0.65c0.42-0.01,0.74,0.01,0.97,0.04
		c0.23,0.04,0.4,0.1,0.51,0.19c0.11,0.09,0.2,0.21,0.28,0.37c0.02-0.11,0.04-0.22,0.04-0.31c0-0.05,0-0.1-0.01-0.15
		c0-0.05,0-0.1,0.01-0.15c0.21-0.02,0.36-0.02,0.47-0.02l0.62,0.01c0.03,0.93,0.05,2.02,0.05,3.26c0,1.24-0.02,2.32-0.06,3.24
		c0,0.08,0,0.19-0.01,0.32c0,0.14-0.01,0.27-0.02,0.39C170.08,10.08,170.06,10.19,170.02,10.28z M166.19,5.87v0.14
		c-0.02,0.43,0.05,0.84,0.22,1.21s0.48,0.58,0.94,0.6c0.12,0.01,0.28,0.01,0.49,0.01c0.43,0,0.74-0.08,0.93-0.23
		c0.19-0.15,0.29-0.45,0.32-0.89c0-0.57,0-1.02-0.01-1.37c0-0.81-0.18-1.31-0.54-1.5c-0.17-0.1-0.4-0.14-0.7-0.14
		c-0.16,0-0.32,0.01-0.47,0.04c-0.45,0.08-0.76,0.31-0.92,0.68C166.27,4.79,166.19,5.28,166.19,5.87z"/>
	<path d="M171.91,5.69V5.9l-0.01,0.35c0,0.99,0.49,1.49,1.46,1.49c0.39,0,0.68-0.09,0.87-0.27c0.19-0.18,0.28-0.43,0.28-0.74
		c0-0.05-0.01-0.14-0.02-0.26c0.17-0.02,0.32-0.04,0.47-0.04c0.13,0,0.22,0,0.29,0.01c0.05,0,0.11,0,0.17,0.01
		c0.07,0,0.15,0,0.23-0.01c0.01,0.46-0.01,0.82-0.05,1.09s-0.14,0.53-0.29,0.78c-0.14,0.22-0.39,0.37-0.75,0.46
		c-0.36,0.09-0.75,0.14-1.17,0.14c-0.19,0-0.37-0.01-0.53-0.02c-0.16-0.02-0.27-0.03-0.31-0.05c-0.62-0.1-1.08-0.5-1.36-1.18
		c-0.28-0.68-0.4-1.47-0.36-2.35c0.01-0.06,0.02-0.2,0.04-0.4c0.02-0.2,0.04-0.41,0.07-0.63c0.03-0.22,0.08-0.43,0.16-0.64
		c0.15-0.35,0.43-0.62,0.83-0.82c0.4-0.19,0.84-0.29,1.33-0.29c0.26,0,0.52,0.03,0.8,0.1c1.09,0.18,1.63,1,1.63,2.46
		c0,0.12-0.01,0.29-0.02,0.52c-0.15,0.05-0.6,0.09-1.34,0.12c-0.09,0.01-0.28,0.01-0.58,0.01c-0.63,0-1.1-0.01-1.4-0.02
		C172.15,5.72,172.01,5.71,171.91,5.69z M174.83,4.79c-0.01-0.25-0.07-0.49-0.19-0.73c-0.12-0.24-0.28-0.43-0.5-0.56
		c-0.12-0.06-0.22-0.09-0.31-0.11s-0.2-0.02-0.34-0.02c-0.52,0-0.89,0.11-1.11,0.32s-0.36,0.52-0.41,0.92
		c-0.02,0.1-0.02,0.16-0.02,0.19c0,0.1,0.05,0.16,0.14,0.19c0.09,0.03,0.29,0.05,0.59,0.05c0.3,0,0.55,0,0.76-0.01
		c0.77,0,1.2,0,1.3-0.01c0.04-0.01,0.07-0.02,0.08-0.03c0.01-0.01,0.02-0.03,0.02-0.07V4.79z"/>
	<path d="M6.45,24.68c-0.15,0.34-0.34,0.57-0.58,0.68c-0.23,0.11-0.5,0.18-0.8,0.2C4.72,25.59,4.5,25.6,4.41,25.6
		c-0.15,0-0.35-0.01-0.59-0.02c-0.53-0.04-0.97-0.22-1.33-0.53c-0.36-0.31-0.54-0.7-0.54-1.18c0-0.1,0-0.18,0.01-0.24
		C2,23.61,2.11,23.6,2.29,23.59c0.18-0.01,0.34-0.02,0.5-0.02c0.14,0,0.21,0.01,0.23,0.02c0.01,0.02,0.01,0.08,0.01,0.18
		c0,0.21,0.05,0.39,0.14,0.55c0.1,0.16,0.3,0.26,0.61,0.31c0.16,0.01,0.37,0.01,0.62,0.01c0.34,0,0.58-0.02,0.74-0.05
		c0.16-0.04,0.26-0.1,0.3-0.19c0.04-0.09,0.06-0.23,0.04-0.41v-0.44v-0.4c0-0.04,0-0.08,0.01-0.13c0-0.05,0.01-0.12,0.02-0.2
		c-0.14,0.16-0.29,0.26-0.47,0.29c-0.18,0.03-0.51,0.05-1,0.05H3.58c-0.8,0-1.32-0.25-1.56-0.76c-0.2-0.38-0.31-0.84-0.34-1.4
		c0-0.74,0.03-1.36,0.09-1.85s0.24-0.93,0.53-1.33s0.75-0.61,1.39-0.65c0.42-0.01,0.74,0.01,0.97,0.04c0.23,0.04,0.4,0.1,0.51,0.19
		c0.11,0.09,0.2,0.21,0.28,0.37c0.02-0.11,0.04-0.22,0.04-0.31c0-0.05,0-0.1-0.01-0.15c0-0.05,0-0.1,0.01-0.15
		c0.21-0.02,0.36-0.02,0.47-0.02l0.62,0.01c0.03,0.93,0.05,2.02,0.05,3.26c0,1.24-0.02,2.32-0.06,3.24c0,0.08,0,0.19-0.01,0.32
		c0,0.14-0.01,0.27-0.02,0.39C6.52,24.48,6.49,24.59,6.45,24.68z M2.62,20.27v0.14c-0.02,0.43,0.05,0.84,0.22,1.21
		s0.48,0.58,0.94,0.6c0.12,0.01,0.28,0.01,0.49,0.01c0.43,0,0.74-0.08,0.93-0.23c0.19-0.15,0.29-0.45,0.32-0.89
		c0-0.57,0-1.02-0.01-1.37c0-0.81-0.18-1.31-0.54-1.5c-0.17-0.1-0.4-0.14-0.7-0.14c-0.16,0-0.32,0.01-0.47,0.04
		c-0.45,0.08-0.76,0.31-0.92,0.68C2.71,19.19,2.62,19.68,2.62,20.27z"/>
	<path d="M8.55,17.16c0,0.1,0,0.17,0.01,0.22c0,0.05,0.01,0.11,0.01,0.19c0.06-0.03,0.13-0.07,0.23-0.11s0.21-0.08,0.33-0.12
		c0.18-0.06,0.41-0.11,0.67-0.14c0.26-0.03,0.49-0.04,0.7-0.04c0.19,0,0.29,0.01,0.29,0.02l-0.01,1c0,0.16,0,0.28,0.01,0.36
		c-0.12-0.05-0.26-0.09-0.41-0.13c-0.18-0.04-0.37-0.06-0.58-0.06c-0.22,0-0.46,0.03-0.73,0.1c-0.22,0.06-0.38,0.14-0.46,0.25
		c-0.08,0.11-0.12,0.32-0.11,0.64c0.03,1.1,0.05,2.34,0.05,3.73v0.05c-0.14,0.03-0.28,0.05-0.42,0.05c-0.06,0-0.15,0-0.27-0.01
		c-0.12,0-0.25,0-0.38,0.01L7.47,21.1c-0.02-0.94-0.02-1.65-0.02-2.12c0-0.38,0.01-0.99,0.02-1.82c0.08,0.01,0.17,0.01,0.26,0.01
		c0.09,0,0.17-0.01,0.25-0.01c0.1-0.01,0.22-0.01,0.38-0.01C8.49,17.14,8.55,17.14,8.55,17.16z"/>
	<path d="M12.41,20.09v0.22l-0.01,0.35c0,0.99,0.49,1.49,1.46,1.49c0.39,0,0.68-0.09,0.87-0.27c0.19-0.18,0.28-0.43,0.28-0.74
		c0-0.05-0.01-0.14-0.02-0.26c0.17-0.02,0.32-0.04,0.47-0.04c0.13,0,0.22,0,0.29,0.01c0.05,0,0.11,0,0.17,0.01
		c0.07,0,0.15,0,0.23-0.01c0.01,0.46-0.01,0.82-0.05,1.09s-0.14,0.53-0.29,0.78c-0.14,0.22-0.39,0.37-0.75,0.46
		c-0.36,0.09-0.75,0.14-1.17,0.14c-0.19,0-0.37-0.01-0.53-0.02s-0.27-0.03-0.31-0.05c-0.62-0.1-1.08-0.5-1.36-1.18
		c-0.28-0.68-0.4-1.47-0.36-2.35c0.01-0.06,0.02-0.2,0.04-0.4c0.02-0.2,0.04-0.41,0.07-0.63c0.03-0.22,0.08-0.43,0.16-0.64
		c0.15-0.35,0.43-0.62,0.83-0.82c0.4-0.19,0.84-0.29,1.33-0.29c0.26,0,0.52,0.03,0.8,0.1c1.09,0.18,1.63,1,1.63,2.46
		c0,0.12-0.01,0.29-0.02,0.52c-0.15,0.05-0.6,0.09-1.34,0.12c-0.09,0.01-0.28,0.01-0.58,0.01c-0.63,0-1.1-0.01-1.4-0.02
		C12.66,20.12,12.51,20.11,12.41,20.09z M15.33,19.19c-0.01-0.25-0.07-0.49-0.19-0.73c-0.12-0.24-0.28-0.43-0.5-0.56
		c-0.12-0.06-0.22-0.09-0.31-0.11c-0.09-0.02-0.2-0.02-0.34-0.02c-0.52,0-0.89,0.11-1.11,0.32s-0.36,0.52-0.41,0.92
		c-0.02,0.1-0.02,0.16-0.02,0.19c0,0.1,0.05,0.16,0.14,0.19c0.09,0.03,0.29,0.05,0.59,0.05c0.3,0,0.55,0,0.76-0.01
		c0.77,0,1.2,0,1.3-0.01c0.04-0.01,0.07-0.02,0.08-0.03c0.01-0.01,0.02-0.03,0.02-0.07V19.19z"/>
	<path d="M17.74,20.09v0.22l-0.01,0.35c0,0.99,0.49,1.49,1.46,1.49c0.39,0,0.68-0.09,0.87-0.27c0.19-0.18,0.28-0.43,0.28-0.74
		c0-0.05-0.01-0.14-0.02-0.26c0.17-0.02,0.32-0.04,0.47-0.04c0.13,0,0.22,0,0.29,0.01c0.05,0,0.11,0,0.17,0.01
		c0.07,0,0.15,0,0.23-0.01c0.01,0.46-0.01,0.82-0.05,1.09s-0.14,0.53-0.29,0.78c-0.14,0.22-0.39,0.37-0.75,0.46
		c-0.36,0.09-0.75,0.14-1.17,0.14c-0.19,0-0.37-0.01-0.53-0.02s-0.27-0.03-0.31-0.05c-0.62-0.1-1.08-0.5-1.36-1.18
		c-0.28-0.68-0.4-1.47-0.36-2.35c0.01-0.06,0.02-0.2,0.04-0.4c0.02-0.2,0.04-0.41,0.07-0.63c0.03-0.22,0.08-0.43,0.16-0.64
		c0.15-0.35,0.43-0.62,0.83-0.82c0.4-0.19,0.84-0.29,1.33-0.29c0.26,0,0.52,0.03,0.8,0.1c1.09,0.18,1.63,1,1.63,2.46
		c0,0.12-0.01,0.29-0.02,0.52c-0.15,0.05-0.6,0.09-1.34,0.12c-0.09,0.01-0.28,0.01-0.58,0.01c-0.63,0-1.1-0.01-1.4-0.02
		C17.99,20.12,17.84,20.11,17.74,20.09z M20.66,19.19c-0.01-0.25-0.07-0.49-0.19-0.73c-0.12-0.24-0.28-0.43-0.5-0.56
		c-0.12-0.06-0.22-0.09-0.31-0.11c-0.09-0.02-0.2-0.02-0.34-0.02c-0.52,0-0.89,0.11-1.11,0.32s-0.36,0.52-0.41,0.92
		c-0.02,0.1-0.02,0.16-0.02,0.19c0,0.1,0.05,0.16,0.14,0.19c0.09,0.03,0.29,0.05,0.59,0.05c0.3,0,0.55,0,0.76-0.01
		c0.77,0,1.2,0,1.3-0.01c0.04-0.01,0.07-0.02,0.08-0.03c0.01-0.01,0.02-0.03,0.02-0.07V19.19z"/>
	<path d="M23.32,17.16c0.02,0.09,0.02,0.2,0.02,0.34v0.3c0.27-0.16,0.59-0.3,0.96-0.43c0.37-0.12,0.74-0.19,1.1-0.19
		c0.44,0.02,0.8,0.14,1.08,0.37c0.19,0.17,0.29,0.85,0.29,2.05c0,0.3-0.01,0.78-0.02,1.42c-0.02,0.61-0.02,1.05-0.02,1.32
		c0,0.35,0,0.6,0.01,0.76c-0.15,0.02-0.37,0.04-0.66,0.04h-0.4c-0.02-0.13-0.02-0.35-0.02-0.67v-0.52l0.01-0.77
		c0.02-0.52,0.02-0.89,0.01-1.12c0-0.05-0.01-0.21-0.03-0.49c-0.02-0.28-0.07-0.53-0.14-0.74c-0.02-0.28-0.22-0.41-0.59-0.38
		c-0.55,0.01-0.96,0.08-1.22,0.23s-0.41,0.4-0.44,0.78c-0.01,0.1-0.01,0.3-0.01,0.59c0,0.45,0.01,0.93,0.02,1.44
		c0.02,0.3,0.02,0.53,0.02,0.67c0,0.3-0.01,0.6-0.04,0.91v0.05c-0.15,0.03-0.3,0.05-0.45,0.04c-0.15,0-0.25-0.01-0.32-0.01
		c-0.13,0-0.23,0-0.3,0.01l-0.01-2.06c-0.02-0.94-0.02-1.65-0.02-2.12c0-0.38,0.01-0.99,0.02-1.82c0.1,0.01,0.21,0.01,0.34,0.01
		s0.23,0,0.31-0.01c0.05,0,0.1,0,0.17-0.01c0.06-0.01,0.13-0.01,0.19-0.01C23.28,17.12,23.32,17.14,23.32,17.16z"/>
	<path d="M30.28,14.4l1.09,0.04c0,0.33-0.01,1.14-0.02,2.44c-0.02,1.6-0.02,2.86-0.02,3.77c0,1.01,0.01,1.81,0.04,2.41
		c-0.05,0.06-0.18,0.08-0.4,0.08l-0.37-0.01c-0.07-0.01-0.16-0.01-0.26-0.01c-0.06,0-0.1,0-0.12,0.01c0.05-0.65,0.07-1.3,0.07-1.96
		c0-0.5-0.02-1.24-0.05-2.23c-0.03-0.99-0.05-1.74-0.05-2.24C30.19,15.84,30.22,15.08,30.28,14.4z"/>
	<path d="M33.34,20.09v0.22l-0.01,0.35c0,0.99,0.49,1.49,1.46,1.49c0.39,0,0.68-0.09,0.87-0.27c0.19-0.18,0.28-0.43,0.28-0.74
		c0-0.05-0.01-0.14-0.02-0.26c0.17-0.02,0.32-0.04,0.47-0.04c0.13,0,0.22,0,0.29,0.01c0.05,0,0.11,0,0.17,0.01
		c0.07,0,0.15,0,0.23-0.01c0.01,0.46-0.01,0.82-0.05,1.09s-0.14,0.53-0.29,0.78c-0.14,0.22-0.39,0.37-0.75,0.46
		c-0.36,0.09-0.75,0.14-1.17,0.14c-0.19,0-0.37-0.01-0.53-0.02s-0.27-0.03-0.31-0.05c-0.62-0.1-1.08-0.5-1.36-1.18
		c-0.28-0.68-0.4-1.47-0.36-2.35c0.01-0.06,0.02-0.2,0.04-0.4c0.02-0.2,0.04-0.41,0.07-0.63c0.03-0.22,0.08-0.43,0.16-0.64
		c0.15-0.35,0.43-0.62,0.83-0.82c0.4-0.19,0.84-0.29,1.33-0.29c0.26,0,0.52,0.03,0.8,0.1c1.09,0.18,1.63,1,1.63,2.46
		c0,0.12-0.01,0.29-0.02,0.52c-0.15,0.05-0.6,0.09-1.34,0.12c-0.09,0.01-0.28,0.01-0.58,0.01c-0.63,0-1.1-0.01-1.4-0.02
		C33.58,20.12,33.44,20.11,33.34,20.09z M36.26,19.19c-0.01-0.25-0.07-0.49-0.19-0.73c-0.12-0.24-0.28-0.43-0.5-0.56
		c-0.12-0.06-0.22-0.09-0.31-0.11c-0.09-0.02-0.2-0.02-0.34-0.02c-0.52,0-0.89,0.11-1.11,0.32s-0.36,0.52-0.41,0.92
		c-0.02,0.1-0.02,0.16-0.02,0.19c0,0.1,0.05,0.16,0.14,0.19c0.09,0.03,0.29,0.05,0.59,0.05c0.3,0,0.55,0,0.76-0.01
		c0.77,0,1.2,0,1.3-0.01c0.04-0.01,0.07-0.02,0.08-0.03c0.01-0.01,0.02-0.03,0.02-0.07V19.19z"/>
	<path d="M41.6,17.1c0.18-0.01,0.42,0,0.71,0.02l0.31,0.02c0.02,0.13,0.02,0.22,0.02,0.29v0.12c-0.01,0.18-0.01,0.46-0.01,0.83
		c0,0.3,0.01,0.75,0.02,1.34l0.01,1.34c0,0.58-0.02,1.1-0.05,1.57c0,0.02,0,0.08,0,0.16c0,0.08-0.01,0.15-0.02,0.22
		c-0.02,0.06-0.06,0.1-0.13,0.12h-0.2l-0.38-0.01c-0.06,0-0.12,0-0.17,0.01c-0.05,0.01-0.09,0.01-0.13,0.01
		c-0.08-0.02-0.12-0.11-0.12-0.26c-0.01-0.06-0.01-0.14,0.01-0.22c0.01-0.08,0.02-0.15,0.02-0.2c-0.19,0.26-0.5,0.44-0.91,0.54
		c-0.42,0.1-0.82,0.14-1.22,0.14c-0.38,0-0.71-0.17-0.98-0.51c-0.27-0.34-0.47-0.76-0.59-1.25c-0.13-0.5-0.19-0.98-0.19-1.45
		c0-0.52,0.09-0.99,0.26-1.4c0.18-0.42,0.42-0.75,0.73-0.99c0.31-0.24,0.65-0.37,1.03-0.38l0.38-0.01c0.36,0,0.66,0.04,0.89,0.13
		s0.41,0.24,0.52,0.46c0-0.07,0.01-0.16,0.02-0.28c0.02-0.16,0.02-0.27,0.02-0.34C41.44,17.11,41.49,17.1,41.6,17.1z M40.25,18.18
		c-0.42-0.01-0.77,0.1-1.05,0.32c-0.28,0.22-0.46,0.48-0.52,0.79c-0.06,0.23-0.1,0.54-0.1,0.94c0.04,1.29,0.56,1.9,1.56,1.85
		c0.41,0,0.7-0.07,0.89-0.22s0.3-0.35,0.34-0.61c0.04-0.26,0.07-0.66,0.07-1.19c0-0.58-0.02-0.98-0.07-1.22
		c-0.05-0.24-0.15-0.4-0.31-0.49C40.91,18.26,40.64,18.2,40.25,18.18z"/>
	<path d="M43.19,17.12c0.12,0.02,0.29,0.02,0.5,0.02c0.07,0,0.16,0,0.26-0.01s0.21,0,0.33,0.01c0.13,0.45,0.36,1.3,0.71,2.56
		c0.17,0.63,0.29,1.09,0.37,1.37c0.08,0.28,0.18,0.55,0.29,0.82c0.07-0.18,0.16-0.44,0.26-0.8s0.17-0.6,0.2-0.71
		c0.39-1.34,0.73-2.4,1.01-3.2c0.07,0,0.19-0.01,0.35-0.02c0.29-0.02,0.53-0.02,0.72-0.01c-0.16,0.42-0.31,0.86-0.44,1.31
		c-0.14,0.45-0.26,0.9-0.38,1.34c-0.38,1.33-0.73,2.44-1.03,3.32c-0.13,0.02-0.33,0.04-0.61,0.04l-0.86-0.01
		c-0.35-1.12-0.61-1.97-0.77-2.55s-0.33-1.22-0.5-1.91L43.19,17.12z"/>
	<path d="M49.37,20.09v0.22l-0.01,0.35c0,0.99,0.49,1.49,1.46,1.49c0.39,0,0.68-0.09,0.87-0.27c0.19-0.18,0.28-0.43,0.28-0.74
		c0-0.05-0.01-0.14-0.02-0.26c0.17-0.02,0.32-0.04,0.47-0.04c0.13,0,0.22,0,0.29,0.01c0.05,0,0.11,0,0.17,0.01
		c0.07,0,0.15,0,0.23-0.01c0.01,0.46-0.01,0.82-0.05,1.09s-0.14,0.53-0.29,0.78c-0.14,0.22-0.39,0.37-0.75,0.46
		c-0.36,0.09-0.75,0.14-1.17,0.14c-0.19,0-0.37-0.01-0.53-0.02s-0.27-0.03-0.31-0.05c-0.62-0.1-1.08-0.5-1.36-1.18
		c-0.28-0.68-0.4-1.47-0.36-2.35c0.01-0.06,0.02-0.2,0.04-0.4c0.02-0.2,0.04-0.41,0.07-0.63c0.03-0.22,0.08-0.43,0.16-0.64
		c0.15-0.35,0.43-0.62,0.83-0.82c0.4-0.19,0.84-0.29,1.33-0.29c0.26,0,0.52,0.03,0.8,0.1c1.09,0.18,1.63,1,1.63,2.46
		c0,0.12-0.01,0.29-0.02,0.52c-0.15,0.05-0.6,0.09-1.34,0.12c-0.09,0.01-0.28,0.01-0.58,0.01c-0.63,0-1.1-0.01-1.4-0.02
		C49.62,20.12,49.47,20.11,49.37,20.09z M52.29,19.19c-0.01-0.25-0.07-0.49-0.19-0.73c-0.12-0.24-0.28-0.43-0.5-0.56
		c-0.12-0.06-0.22-0.09-0.31-0.11c-0.09-0.02-0.2-0.02-0.34-0.02c-0.52,0-0.89,0.11-1.11,0.32s-0.36,0.52-0.41,0.92
		c-0.02,0.1-0.02,0.16-0.02,0.19c0,0.1,0.05,0.16,0.14,0.19c0.09,0.03,0.29,0.05,0.59,0.05c0.3,0,0.55,0,0.76-0.01
		c0.77,0,1.2,0,1.3-0.01c0.04-0.01,0.07-0.02,0.08-0.03c0.01-0.01,0.02-0.03,0.02-0.07V19.19z"/>
	<path d="M58.59,18.68c0,0.04-0.14,0.06-0.42,0.06c-0.21,0-0.36,0-0.46-0.01c-0.06,0-0.13,0-0.19-0.01c-0.06,0-0.12,0-0.16,0.01
		c0-0.01,0-0.15,0-0.41c0-0.27-0.23-0.43-0.7-0.49c-0.1-0.02-0.26-0.02-0.47-0.02c-0.22,0-0.43,0.02-0.61,0.05
		c-0.18,0.03-0.31,0.08-0.4,0.13c-0.1,0.08-0.18,0.2-0.24,0.35c-0.06,0.15-0.08,0.3-0.08,0.44c0,0.11,0.02,0.19,0.05,0.23
		c0.09,0.18,0.2,0.31,0.35,0.38c0.08,0.06,0.28,0.12,0.59,0.2s0.58,0.12,0.8,0.13c0.33,0.01,0.62,0.06,0.87,0.15
		c0.25,0.09,0.45,0.22,0.59,0.38c0.14,0.18,0.25,0.35,0.32,0.52c0.07,0.17,0.1,0.36,0.1,0.56c0,0.25-0.06,0.55-0.18,0.9
		c-0.18,0.38-0.46,0.65-0.84,0.83c-0.38,0.18-0.82,0.26-1.31,0.25c-0.54,0.02-1.01-0.05-1.42-0.21c-0.41-0.16-0.72-0.39-0.95-0.7
		c-0.22-0.31-0.34-0.68-0.34-1.1v-0.06c0.14-0.02,0.36-0.02,0.64-0.02c0.31,0,0.48,0.01,0.5,0.04c0.02,0.02,0.05,0.11,0.1,0.27
		c0.05,0.16,0.15,0.33,0.28,0.5c0.14,0.17,0.37,0.26,0.7,0.29c0.26,0.02,0.41,0.02,0.46,0.02c0.13,0,0.23-0.01,0.32-0.04
		s0.19-0.07,0.33-0.13c0.41-0.18,0.61-0.45,0.6-0.8c0.01-0.23-0.05-0.41-0.19-0.54c-0.13-0.13-0.3-0.21-0.5-0.26
		c-0.2-0.04-0.47-0.09-0.82-0.13c-0.25-0.02-0.45-0.05-0.6-0.07c-0.15-0.02-0.29-0.06-0.41-0.12c-0.42-0.14-0.73-0.35-0.95-0.64
		c-0.22-0.29-0.33-0.61-0.33-0.95c0-0.38,0.11-0.72,0.33-1.03c0.22-0.31,0.52-0.51,0.91-0.61c0.33-0.09,0.75-0.13,1.26-0.13
		c0.12,0,0.3,0.01,0.54,0.02c0.34,0.02,0.66,0.08,0.96,0.18c0.28,0.12,0.51,0.33,0.68,0.62C58.5,18,58.59,18.32,58.59,18.68z"/>
	<path d="M60.38,23.12l-0.91-0.01h-0.04c-0.02-0.14-0.04-0.33-0.04-0.55l0.01-0.59c0.01-0.07,0.01-0.16,0.01-0.25
		c0.14-0.06,0.34-0.08,0.58-0.08c0.22,0,0.38,0.02,0.48,0.06c0,0.04-0.01,0.26-0.04,0.65c-0.02,0.39-0.04,0.64-0.04,0.76v0.02H60.38
		z"/>
	<path d="M64.35,14.63c0.06-0.01,0.12-0.01,0.2-0.01c0.06,0,0.18,0.01,0.34,0.02c0.38,0.02,0.66,0.04,0.82,0.05v0.05
		c0,0.52-0.01,1.32-0.02,2.39c-0.02,1.06-0.04,2.14-0.04,3.23c0,1.02,0.02,1.93,0.05,2.74c-0.06,0.05-0.22,0.07-0.48,0.07
		l-0.66-0.01c-0.1,0-0.2,0.01-0.3,0.02c0.03-0.61,0.05-1.33,0.05-2.17c0-0.51,0-0.9-0.01-1.16l-0.04-2.05l-0.01-1.07
		c0-0.7,0.04-1.39,0.11-2.06V14.63z"/>
	<path d="M68.14,17.16c0.02,0.09,0.02,0.2,0.02,0.34v0.3c0.27-0.16,0.59-0.3,0.96-0.43s0.74-0.19,1.1-0.19
		c0.44,0.02,0.8,0.14,1.08,0.37c0.19,0.17,0.29,0.85,0.29,2.05c0,0.3-0.01,0.78-0.02,1.42c-0.02,0.61-0.02,1.05-0.02,1.32
		c0,0.35,0,0.6,0.01,0.76c-0.15,0.02-0.37,0.04-0.66,0.04h-0.4c-0.02-0.13-0.02-0.35-0.02-0.67v-0.52l0.01-0.77
		c0.02-0.52,0.02-0.89,0.01-1.12c0-0.05-0.01-0.21-0.03-0.49c-0.02-0.28-0.07-0.53-0.14-0.74c-0.02-0.28-0.22-0.41-0.59-0.38
		c-0.55,0.01-0.96,0.08-1.22,0.23s-0.41,0.4-0.44,0.78c-0.01,0.1-0.01,0.3-0.01,0.59c0,0.45,0.01,0.93,0.02,1.44
		c0.02,0.3,0.02,0.53,0.02,0.67c0,0.3-0.01,0.6-0.04,0.91v0.05c-0.15,0.03-0.3,0.05-0.45,0.04c-0.15,0-0.25-0.01-0.32-0.01
		c-0.13,0-0.23,0-0.3,0.01l-0.01-2.06c-0.02-0.94-0.02-1.65-0.02-2.12c0-0.38,0.01-0.99,0.02-1.82c0.1,0.01,0.21,0.01,0.34,0.01
		s0.23,0,0.31-0.01c0.05,0,0.1,0,0.17-0.01c0.06-0.01,0.13-0.01,0.19-0.01C68.1,17.12,68.14,17.14,68.14,17.16z"/>
	<path d="M79.58,18.68c0,0.04-0.14,0.06-0.42,0.06c-0.21,0-0.36,0-0.46-0.01c-0.06,0-0.13,0-0.19-0.01c-0.06,0-0.12,0-0.16,0.01
		c0-0.01,0-0.15,0-0.41c0-0.27-0.23-0.43-0.7-0.49c-0.1-0.02-0.26-0.02-0.47-0.02c-0.22,0-0.43,0.02-0.61,0.05
		c-0.18,0.03-0.31,0.08-0.4,0.13c-0.1,0.08-0.18,0.2-0.24,0.35c-0.06,0.15-0.08,0.3-0.08,0.44c0,0.11,0.02,0.19,0.05,0.23
		c0.09,0.18,0.2,0.31,0.35,0.38c0.08,0.06,0.28,0.12,0.59,0.2c0.31,0.08,0.58,0.12,0.8,0.13c0.33,0.01,0.62,0.06,0.87,0.15
		c0.25,0.09,0.45,0.22,0.59,0.38c0.14,0.18,0.25,0.35,0.32,0.52c0.07,0.17,0.1,0.36,0.1,0.56c0,0.25-0.06,0.55-0.18,0.9
		c-0.18,0.38-0.46,0.65-0.84,0.83c-0.38,0.18-0.82,0.26-1.31,0.25c-0.54,0.02-1.01-0.05-1.42-0.21c-0.41-0.16-0.72-0.39-0.95-0.7
		s-0.34-0.68-0.34-1.1v-0.06c0.14-0.02,0.36-0.02,0.64-0.02c0.31,0,0.48,0.01,0.5,0.04c0.02,0.02,0.05,0.11,0.1,0.27
		s0.15,0.33,0.28,0.5c0.14,0.17,0.37,0.26,0.7,0.29c0.26,0.02,0.41,0.02,0.46,0.02c0.13,0,0.23-0.01,0.32-0.04s0.19-0.07,0.33-0.13
		c0.41-0.18,0.61-0.45,0.6-0.8c0.01-0.23-0.05-0.41-0.19-0.54c-0.13-0.13-0.3-0.21-0.5-0.26s-0.47-0.09-0.82-0.13
		c-0.25-0.02-0.45-0.05-0.6-0.07c-0.15-0.02-0.29-0.06-0.41-0.12c-0.42-0.14-0.73-0.35-0.95-0.64s-0.33-0.61-0.33-0.95
		c0-0.38,0.11-0.72,0.33-1.03s0.52-0.51,0.91-0.61c0.33-0.09,0.75-0.13,1.26-0.13c0.12,0,0.3,0.01,0.54,0.02
		c0.34,0.02,0.66,0.08,0.96,0.18c0.28,0.12,0.51,0.33,0.68,0.62C79.49,18,79.58,18.32,79.58,18.68z"/>
	<path d="M81.28,25.42v0.13c0,0.02-0.05,0.03-0.16,0.04c-0.1,0.01-0.22,0.02-0.35,0.02c-0.18,0-0.36-0.01-0.52-0.04v-0.79
		c0-0.75-0.02-1.86-0.05-3.31c-0.01-0.35-0.02-0.78-0.02-1.29c-0.01-0.51-0.01-1.08-0.01-1.72c0-0.59,0-1.03,0.01-1.32l0.78-0.01
		c0.16,0,0.28,0,0.35,0.01c0.01,0.01,0.01,0.04,0.02,0.1c0,0.06,0.01,0.12,0.01,0.19c0,0.03,0,0.07,0.01,0.11s0,0.1-0.01,0.17
		c0.01,0.04,0.02,0.06,0.04,0.05c0.02,0,0.05-0.03,0.08-0.09c0.14-0.18,0.34-0.32,0.59-0.4s0.5-0.12,0.76-0.12
		c0.13,0,0.22,0,0.26,0.01c0.55,0.04,0.97,0.21,1.27,0.52c0.29,0.3,0.49,0.69,0.58,1.15c0.1,0.46,0.15,1.04,0.17,1.72
		c0,0.61-0.08,1.14-0.23,1.58c-0.16,0.45-0.4,0.73-0.74,0.85c-0.2,0.08-0.44,0.13-0.72,0.16c-0.09,0.01-0.23,0.01-0.42,0.01
		c-0.4,0-0.77-0.03-1.12-0.1s-0.52-0.14-0.54-0.24l0.02,1.46c0,0.18-0.01,0.39-0.02,0.65L81.28,25.42z M82.37,22.22
		c0.38,0,0.66-0.02,0.86-0.05s0.36-0.12,0.5-0.25s0.25-0.35,0.34-0.64c0.06-0.31,0.1-0.6,0.1-0.88c0-0.64-0.11-1.19-0.34-1.66
		c-0.23-0.46-0.67-0.67-1.31-0.62c-0.38,0.03-0.67,0.14-0.85,0.32c-0.18,0.18-0.29,0.42-0.34,0.71c-0.05,0.3-0.07,0.71-0.07,1.25
		c0,0.57,0.02,0.97,0.07,1.22c0.05,0.24,0.15,0.41,0.29,0.49C81.77,22.18,82.02,22.22,82.37,22.22z"/>
	<path d="M86.86,17.16c0,0.1,0,0.17,0.01,0.22c0,0.05,0.01,0.11,0.01,0.19c0.06-0.03,0.13-0.07,0.23-0.11
		c0.1-0.04,0.21-0.08,0.33-0.12c0.18-0.06,0.41-0.11,0.67-0.14s0.49-0.04,0.7-0.04c0.19,0,0.29,0.01,0.29,0.02l-0.01,1
		c0,0.16,0,0.28,0.01,0.36c-0.12-0.05-0.26-0.09-0.41-0.13c-0.18-0.04-0.37-0.06-0.58-0.06c-0.22,0-0.46,0.03-0.73,0.1
		c-0.22,0.06-0.38,0.14-0.46,0.25c-0.08,0.11-0.12,0.32-0.11,0.64c0.03,1.1,0.05,2.34,0.05,3.73v0.05
		c-0.14,0.03-0.28,0.05-0.42,0.05c-0.06,0-0.15,0-0.27-0.01c-0.12,0-0.25,0-0.38,0.01l-0.01-2.06c-0.02-0.94-0.02-1.65-0.02-2.12
		c0-0.38,0.01-0.99,0.02-1.82c0.08,0.01,0.17,0.01,0.26,0.01c0.09,0,0.17-0.01,0.25-0.01c0.1-0.01,0.22-0.01,0.38-0.01
		C86.8,17.14,86.86,17.14,86.86,17.16z"/>
	<path d="M90.16,17.06c0.06-0.01,0.17-0.01,0.34,0c0.24,0.02,0.5,0.02,0.79,0.02v0.04c0,0.36-0.01,0.92-0.02,1.67
		c-0.02,0.77-0.04,1.54-0.04,2.33c0,0.74,0.02,1.39,0.05,1.97c-0.11,0.02-0.28,0.04-0.5,0.04c-0.22,0-0.36,0-0.41,0
		c-0.14,0-0.23,0-0.26,0.01c0.01-0.23,0.01-0.58,0.01-1.06V21v-1.01c-0.02-0.56-0.02-0.99-0.02-1.3c0-0.55,0.02-1.09,0.07-1.62
		V17.06z M90.11,14.48c0.5,0.02,0.87,0.02,1.13,0.02l0.04,1.58c-0.08,0.04-0.22,0.06-0.43,0.06c-0.13,0-0.22,0-0.29-0.01
		c-0.05,0-0.1,0-0.17-0.01c-0.06,0-0.14,0-0.23,0.01c0-0.12-0.01-0.32-0.02-0.59C90.11,15.02,90.11,14.67,90.11,14.48z"/>
	<path d="M93.46,17.16c0.02,0.09,0.02,0.2,0.02,0.34v0.3c0.27-0.16,0.59-0.3,0.96-0.43s0.74-0.19,1.1-0.19
		c0.44,0.02,0.8,0.14,1.08,0.37c0.19,0.17,0.29,0.85,0.29,2.05c0,0.3-0.01,0.78-0.02,1.42c-0.02,0.61-0.02,1.05-0.02,1.32
		c0,0.35,0,0.6,0.01,0.76c-0.15,0.02-0.37,0.04-0.66,0.04h-0.4c-0.02-0.13-0.02-0.35-0.02-0.67v-0.52l0.01-0.77
		c0.02-0.52,0.02-0.89,0.01-1.12c0-0.05-0.01-0.21-0.03-0.49c-0.02-0.28-0.07-0.53-0.14-0.74c-0.02-0.28-0.22-0.41-0.59-0.38
		c-0.55,0.01-0.96,0.08-1.22,0.23s-0.41,0.4-0.44,0.78c-0.01,0.1-0.01,0.3-0.01,0.59c0,0.45,0.01,0.93,0.02,1.44
		c0.02,0.3,0.02,0.53,0.02,0.67c0,0.3-0.01,0.6-0.04,0.91v0.05c-0.15,0.03-0.3,0.05-0.45,0.04c-0.15,0-0.25-0.01-0.32-0.01
		c-0.13,0-0.23,0-0.3,0.01l-0.01-2.06c-0.02-0.94-0.02-1.65-0.02-2.12c0-0.38,0.01-0.99,0.02-1.82c0.1,0.01,0.21,0.01,0.34,0.01
		s0.23,0,0.31-0.01c0.05,0,0.1,0,0.17-0.01c0.06-0.01,0.13-0.01,0.19-0.01C93.42,17.12,93.46,17.14,93.46,17.16z"/>
	<path d="M102.32,24.68c-0.15,0.34-0.34,0.57-0.58,0.68c-0.23,0.11-0.5,0.18-0.8,0.2c-0.35,0.02-0.57,0.02-0.66,0.02
		c-0.15,0-0.35-0.01-0.59-0.02c-0.53-0.04-0.97-0.22-1.33-0.53c-0.36-0.31-0.54-0.7-0.54-1.18c0-0.1,0-0.18,0.01-0.24
		c0.04-0.02,0.15-0.03,0.32-0.04c0.18-0.01,0.34-0.02,0.5-0.02c0.14,0,0.21,0.01,0.23,0.02c0.01,0.02,0.01,0.08,0.01,0.18
		c0,0.21,0.05,0.39,0.14,0.55c0.1,0.16,0.3,0.26,0.61,0.31c0.16,0.01,0.37,0.01,0.62,0.01c0.34,0,0.58-0.02,0.74-0.05
		c0.16-0.04,0.26-0.1,0.3-0.19c0.04-0.09,0.06-0.23,0.04-0.41v-0.44v-0.4c0-0.04,0-0.08,0.01-0.13s0.01-0.12,0.02-0.2
		c-0.14,0.16-0.29,0.26-0.47,0.29s-0.51,0.05-1,0.05h-0.46c-0.8,0-1.32-0.25-1.56-0.76c-0.2-0.38-0.31-0.84-0.34-1.4
		c0-0.74,0.03-1.36,0.09-1.85c0.06-0.49,0.24-0.93,0.53-1.33s0.75-0.61,1.39-0.65c0.42-0.01,0.74,0.01,0.97,0.04
		c0.23,0.04,0.4,0.1,0.51,0.19c0.11,0.09,0.2,0.21,0.28,0.37c0.02-0.11,0.04-0.22,0.04-0.31c0-0.05,0-0.1-0.01-0.15
		c0-0.05,0-0.1,0.01-0.15c0.21-0.02,0.36-0.02,0.47-0.02l0.62,0.01c0.03,0.93,0.05,2.02,0.05,3.26c0,1.24-0.02,2.32-0.06,3.24
		c0,0.08,0,0.19-0.01,0.32c0,0.14-0.01,0.27-0.02,0.39C102.38,24.48,102.36,24.59,102.32,24.68z M98.49,20.27v0.14
		c-0.02,0.43,0.05,0.84,0.22,1.21s0.48,0.58,0.94,0.6c0.12,0.01,0.28,0.01,0.49,0.01c0.43,0,0.74-0.08,0.93-0.23
		c0.19-0.15,0.29-0.45,0.32-0.89c0-0.57,0-1.02-0.01-1.37c0-0.81-0.18-1.31-0.54-1.5c-0.17-0.1-0.4-0.14-0.7-0.14
		c-0.16,0-0.32,0.01-0.47,0.04c-0.45,0.08-0.76,0.31-0.92,0.68C98.57,19.19,98.49,19.68,98.49,20.27z"/>
	<path d="M107.61,14.9v1.84l0.01,0.67c0.52-0.02,1.16-0.04,1.93-0.08c0.05,0.06,0.07,0.18,0.07,0.36l-0.01,0.28
		c-0.02,0.18-0.02,0.3-0.01,0.38c-0.87,0-1.52,0-1.96-0.01v1.84v0.41c0,0.36,0.01,0.62,0.02,0.77s0.05,0.28,0.1,0.4
		c0.13,0.16,0.39,0.26,0.77,0.3c0.39,0.04,0.74,0.05,1.06,0.04c0.04,0.32,0.06,0.52,0.06,0.61c0,0.14-0.02,0.29-0.06,0.43
		c-0.17,0.01-0.43,0.01-0.79,0.01c-0.62,0-1.11-0.08-1.46-0.23c-0.35-0.15-0.58-0.46-0.67-0.91c-0.09-0.78-0.13-1.79-0.13-3.04
		v-0.58c-0.05,0.01-0.17,0.01-0.36,0.01l-0.91-0.01l0.04-0.98c0.18,0.02,0.6,0.02,1.26,0.02l-0.01-1.26V15.6
		c0-0.34,0.01-0.57,0.02-0.71c0.11-0.01,0.28,0,0.52,0.01l0.32,0.01C107.51,14.92,107.57,14.91,107.61,14.9z"/>
	<path d="M110.52,17.06c0.06-0.01,0.17-0.01,0.34,0c0.24,0.02,0.5,0.02,0.79,0.02v0.04c0,0.36-0.01,0.92-0.02,1.67
		c-0.02,0.77-0.04,1.54-0.04,2.33c0,0.74,0.02,1.39,0.05,1.97c-0.11,0.02-0.28,0.04-0.5,0.04c-0.22,0-0.36,0-0.41,0
		c-0.14,0-0.23,0-0.26,0.01c0.01-0.23,0.01-0.58,0.01-1.06V21v-1.01c-0.02-0.56-0.02-0.99-0.02-1.3c0-0.55,0.02-1.09,0.07-1.62
		V17.06z M110.48,14.48c0.5,0.02,0.87,0.02,1.13,0.02l0.04,1.58c-0.08,0.04-0.22,0.06-0.43,0.06c-0.13,0-0.22,0-0.29-0.01
		c-0.05,0-0.1,0-0.17-0.01c-0.06,0-0.14,0-0.23,0.01c0-0.12-0.01-0.32-0.02-0.59C110.48,15.02,110.47,14.67,110.48,14.48z"/>
	<path d="M113.78,17.17c0.02,0.09,0.02,0.2,0.02,0.34v0.3c0.3-0.3,0.65-0.48,1.06-0.54c0.28-0.06,0.52-0.08,0.71-0.08
		c0.34,0,0.63,0.07,0.85,0.2c0.18,0.08,0.29,0.19,0.35,0.34c0.06-0.03,0.14-0.09,0.25-0.17c0.11-0.08,0.26-0.16,0.44-0.24
		c0.19-0.08,0.45-0.12,0.79-0.13c0.4-0.02,0.71,0,0.94,0.05c0.23,0.05,0.43,0.16,0.62,0.32c0.1,0.09,0.18,0.3,0.22,0.62
		s0.06,0.76,0.06,1.3c0,0.3-0.01,0.78-0.02,1.44c-0.02,0.64-0.02,1.1-0.02,1.37c0,0.22,0.01,0.5,0.02,0.82
		c-0.29,0.05-0.63,0.06-1.02,0.05c-0.02-0.22-0.02-0.61-0.02-1.19c0.02-0.62,0.02-1.1,0.02-1.44v-0.5
		c-0.01-0.06-0.02-0.18-0.02-0.35s-0.02-0.35-0.05-0.55c-0.02-0.2-0.07-0.35-0.14-0.46c-0.05-0.16-0.2-0.25-0.47-0.28
		c-0.08-0.02-0.2-0.02-0.35-0.02c-0.23,0-0.43,0.04-0.6,0.11s-0.29,0.19-0.36,0.35c-0.02,0.18-0.02,0.32-0.02,0.42l0.01,0.34v0.44
		c0,0.27-0.01,0.69-0.02,1.25l-0.01,1.2c0,0.3,0,0.51,0.01,0.64c-0.17,0.02-0.4,0.04-0.68,0.04h-0.37
		c-0.02-0.16-0.02-0.44-0.02-0.85v-0.64l0.01-0.89c0-0.55-0.02-1.04-0.05-1.46c0-0.34-0.06-0.57-0.17-0.69s-0.32-0.19-0.62-0.19
		c-0.85,0-1.3,0.48-1.37,1.43c-0.01,0.12-0.01,0.3-0.01,0.53c0,0.26,0.01,0.62,0.02,1.08l0.01,0.59c0,0.33-0.01,0.67-0.04,1.02v0.05
		c-0.12,0.02-0.23,0.04-0.34,0.04l-0.4-0.01c-0.12,0-0.22,0-0.29,0.01l-0.01-2.06c-0.02-0.94-0.02-1.65-0.02-2.12
		c0-0.38,0.01-0.99,0.02-1.82c0.21,0.02,0.33,0.02,0.37,0.02l0.26-0.01c0.04,0,0.09,0,0.16-0.01c0.06-0.01,0.13-0.01,0.19-0.01
		C113.74,17.14,113.78,17.15,113.78,17.17z"/>
	<path d="M121.78,20.09v0.22l-0.01,0.35c0,0.99,0.49,1.49,1.46,1.49c0.39,0,0.68-0.09,0.87-0.27c0.19-0.18,0.28-0.43,0.28-0.74
		c0-0.05-0.01-0.14-0.02-0.26c0.17-0.02,0.32-0.04,0.47-0.04c0.13,0,0.22,0,0.29,0.01c0.05,0,0.11,0,0.17,0.01
		c0.07,0,0.15,0,0.23-0.01c0.01,0.46-0.01,0.82-0.05,1.09s-0.14,0.53-0.29,0.78c-0.14,0.22-0.39,0.37-0.75,0.46
		c-0.36,0.09-0.75,0.14-1.17,0.14c-0.19,0-0.37-0.01-0.53-0.02c-0.16-0.02-0.27-0.03-0.31-0.05c-0.62-0.1-1.08-0.5-1.36-1.18
		c-0.28-0.68-0.4-1.47-0.36-2.35c0.01-0.06,0.02-0.2,0.04-0.4c0.02-0.2,0.04-0.41,0.07-0.63c0.03-0.22,0.08-0.43,0.16-0.64
		c0.15-0.35,0.43-0.62,0.83-0.82c0.4-0.19,0.84-0.29,1.33-0.29c0.26,0,0.52,0.03,0.8,0.1c1.09,0.18,1.63,1,1.63,2.46
		c0,0.12-0.01,0.29-0.02,0.52c-0.15,0.05-0.6,0.09-1.34,0.12c-0.09,0.01-0.28,0.01-0.58,0.01c-0.63,0-1.1-0.01-1.4-0.02
		C122.02,20.12,121.88,20.11,121.78,20.09z M124.7,19.19c-0.01-0.25-0.07-0.49-0.19-0.73c-0.12-0.24-0.28-0.43-0.5-0.56
		c-0.12-0.06-0.22-0.09-0.31-0.11s-0.2-0.02-0.34-0.02c-0.52,0-0.89,0.11-1.11,0.32s-0.36,0.52-0.41,0.92
		c-0.02,0.1-0.02,0.16-0.02,0.19c0,0.1,0.05,0.16,0.14,0.19c0.09,0.03,0.29,0.05,0.59,0.05c0.3,0,0.55,0,0.76-0.01
		c0.77,0,1.2,0,1.3-0.01c0.04-0.01,0.07-0.02,0.08-0.03c0.01-0.01,0.02-0.03,0.02-0.07V19.19z"/>
	<path d="M127.42,23.38l-0.1,0.48l-0.1,0.47c-0.02-0.01-0.12-0.01-0.29-0.01c-0.06-0.01-0.18-0.01-0.35-0.01
		c-0.02-0.02,0.01-0.17,0.08-0.47c0.09-0.34,0.14-0.57,0.16-0.7l-0.4-0.05c-0.02,0-0.03,0-0.04-0.01c0-0.22,0.02-0.68,0.05-1.38
		v-0.01h0.01c0.11-0.02,0.23-0.04,0.35-0.04c0.08,0,0.22,0.01,0.41,0.02c0.14,0.02,0.25,0.02,0.32,0.02h0.01l-0.05,1.38h-0.02
		l-0.01,0.04c0,0.05-0.01,0.09-0.02,0.14S127.43,23.34,127.42,23.38z"/>
	<path d="M132.76,14.9v1.84l0.01,0.67c0.52-0.02,1.16-0.04,1.93-0.08c0.05,0.06,0.07,0.18,0.07,0.36l-0.01,0.28
		c-0.02,0.18-0.02,0.3-0.01,0.38c-0.87,0-1.52,0-1.96-0.01v1.84v0.41c0,0.36,0.01,0.62,0.02,0.77s0.05,0.28,0.1,0.4
		c0.13,0.16,0.39,0.26,0.77,0.3c0.39,0.04,0.74,0.05,1.06,0.04c0.04,0.32,0.06,0.52,0.06,0.61c0,0.14-0.02,0.29-0.06,0.43
		c-0.17,0.01-0.43,0.01-0.79,0.01c-0.62,0-1.11-0.08-1.46-0.23c-0.35-0.15-0.58-0.46-0.67-0.91c-0.09-0.78-0.13-1.79-0.13-3.04
		v-0.58c-0.05,0.01-0.17,0.01-0.36,0.01l-0.91-0.01l0.04-0.98c0.18,0.02,0.6,0.02,1.26,0.02l-0.01-1.26V15.6
		c0-0.34,0.01-0.57,0.02-0.71c0.11-0.01,0.28,0,0.52,0.01l0.32,0.01C132.66,14.92,132.72,14.91,132.76,14.9z"/>
	<path d="M136.43,16.69v1.07c0.22-0.18,0.41-0.32,0.57-0.41c0.16-0.09,0.41-0.15,0.73-0.17c0.19-0.02,0.37-0.04,0.54-0.04
		c0.58,0,1.04,0.14,1.37,0.42c0.1,0.09,0.18,0.3,0.22,0.62s0.06,0.76,0.06,1.3c0,0.3-0.01,0.78-0.02,1.44
		c-0.02,0.64-0.02,1.1-0.02,1.37c0,0.22,0.01,0.5,0.02,0.82c-0.32,0.05-0.66,0.06-1.03,0.05c-0.02-0.24-0.02-0.45-0.02-0.62V21.8
		v-2.35c-0.02-0.51-0.14-0.84-0.36-1c-0.05-0.03-0.14-0.06-0.29-0.1c-0.17-0.05-0.34-0.07-0.52-0.07c-0.31,0-0.58,0.08-0.8,0.23
		c-0.22,0.16-0.36,0.4-0.43,0.73c-0.06,0.3-0.08,0.67-0.08,1.09l0.01,0.41c0.02,0.53,0.02,0.96,0.02,1.31c0,0.43-0.01,0.76-0.02,1
		v0.05c-0.16,0.04-0.29,0.06-0.38,0.06l-0.36-0.01c-0.11,0-0.2,0-0.28,0.01c0-0.92,0-1.68-0.01-2.28l-0.01-3.67
		c0-0.9,0.01-1.82,0.02-2.76c0.25,0.02,0.45,0.03,0.6,0.02c0.04,0,0.09,0,0.15-0.01c0.06-0.01,0.12-0.01,0.19-0.01
		c0.08,0,0.12,0.01,0.12,0.04c0.02,0.07,0.02,0.56,0.02,1.46V16.69z"/>
	<path d="M141.05,17.06c0.06-0.01,0.17-0.01,0.34,0c0.24,0.02,0.5,0.02,0.79,0.02v0.04c0,0.36-0.01,0.92-0.02,1.67
		c-0.02,0.77-0.04,1.54-0.04,2.33c0,0.74,0.02,1.39,0.05,1.97c-0.11,0.02-0.28,0.04-0.5,0.04c-0.22,0-0.36,0-0.41,0
		c-0.14,0-0.23,0-0.26,0.01C141,22.9,141,22.55,141,22.08V21v-1.01c-0.02-0.56-0.02-0.99-0.02-1.3c0-0.55,0.02-1.09,0.07-1.62V17.06
		z M141,14.48c0.5,0.02,0.87,0.02,1.13,0.02l0.04,1.58c-0.08,0.04-0.22,0.06-0.43,0.06c-0.13,0-0.22,0-0.29-0.01
		c-0.05,0-0.1,0-0.17-0.01c-0.06,0-0.14,0-0.23,0.01c0-0.12-0.01-0.32-0.02-0.59C141,15.02,141,14.67,141,14.48z"/>
	<path d="M147.99,18.68c0,0.04-0.14,0.06-0.42,0.06c-0.21,0-0.36,0-0.46-0.01c-0.06,0-0.13,0-0.19-0.01c-0.06,0-0.12,0-0.16,0.01
		c0-0.01,0-0.15,0-0.41c0-0.27-0.23-0.43-0.7-0.49c-0.1-0.02-0.26-0.02-0.47-0.02c-0.22,0-0.43,0.02-0.61,0.05
		c-0.18,0.03-0.31,0.08-0.4,0.13c-0.1,0.08-0.18,0.2-0.24,0.35c-0.06,0.15-0.08,0.3-0.08,0.44c0,0.11,0.02,0.19,0.05,0.23
		c0.09,0.18,0.2,0.31,0.35,0.38c0.08,0.06,0.28,0.12,0.59,0.2c0.31,0.08,0.58,0.12,0.8,0.13c0.33,0.01,0.62,0.06,0.87,0.15
		c0.25,0.09,0.45,0.22,0.59,0.38c0.14,0.18,0.25,0.35,0.32,0.52c0.07,0.17,0.1,0.36,0.1,0.56c0,0.25-0.06,0.55-0.18,0.9
		c-0.18,0.38-0.46,0.65-0.84,0.83c-0.38,0.18-0.82,0.26-1.31,0.25c-0.54,0.02-1.01-0.05-1.42-0.21c-0.41-0.16-0.72-0.39-0.95-0.7
		s-0.34-0.68-0.34-1.1v-0.06c0.14-0.02,0.36-0.02,0.64-0.02c0.31,0,0.48,0.01,0.5,0.04c0.02,0.02,0.05,0.11,0.1,0.27
		s0.15,0.33,0.28,0.5c0.14,0.17,0.37,0.26,0.7,0.29c0.26,0.02,0.41,0.02,0.46,0.02c0.13,0,0.23-0.01,0.32-0.04s0.19-0.07,0.33-0.13
		c0.41-0.18,0.61-0.45,0.6-0.8c0.01-0.23-0.05-0.41-0.19-0.54c-0.13-0.13-0.3-0.21-0.5-0.26s-0.47-0.09-0.82-0.13
		c-0.25-0.02-0.45-0.05-0.6-0.07c-0.15-0.02-0.29-0.06-0.41-0.12c-0.42-0.14-0.73-0.35-0.95-0.64s-0.33-0.61-0.33-0.95
		c0-0.38,0.11-0.72,0.33-1.03s0.52-0.51,0.91-0.61c0.33-0.09,0.75-0.13,1.26-0.13c0.12,0,0.3,0.01,0.54,0.02
		c0.34,0.02,0.66,0.08,0.96,0.18c0.28,0.12,0.51,0.33,0.68,0.62C147.9,18,147.99,18.32,147.99,18.68z"/>
	<path d="M152.09,25.42v0.13c0,0.02-0.05,0.03-0.16,0.04c-0.1,0.01-0.22,0.02-0.35,0.02c-0.18,0-0.36-0.01-0.52-0.04v-0.79
		c0-0.75-0.02-1.86-0.05-3.31c-0.01-0.35-0.02-0.78-0.02-1.29c-0.01-0.51-0.01-1.08-0.01-1.72c0-0.59,0-1.03,0.01-1.32l0.78-0.01
		c0.16,0,0.28,0,0.35,0.01c0.01,0.01,0.01,0.04,0.02,0.1c0,0.06,0.01,0.12,0.01,0.19c0,0.03,0,0.07,0.01,0.11s0,0.1-0.01,0.17
		c0.01,0.04,0.02,0.06,0.04,0.05c0.02,0,0.05-0.03,0.08-0.09c0.14-0.18,0.34-0.32,0.59-0.4s0.5-0.12,0.76-0.12
		c0.13,0,0.22,0,0.26,0.01c0.55,0.04,0.97,0.21,1.27,0.52c0.29,0.3,0.49,0.69,0.58,1.15c0.1,0.46,0.15,1.04,0.17,1.72
		c0,0.61-0.08,1.14-0.23,1.58c-0.16,0.45-0.4,0.73-0.74,0.85c-0.2,0.08-0.44,0.13-0.72,0.16c-0.09,0.01-0.23,0.01-0.42,0.01
		c-0.4,0-0.77-0.03-1.12-0.1s-0.52-0.14-0.54-0.24l0.02,1.46c0,0.18-0.01,0.39-0.02,0.65L152.09,25.42z M153.18,22.22
		c0.38,0,0.66-0.02,0.86-0.05s0.36-0.12,0.5-0.25s0.25-0.35,0.34-0.64c0.06-0.31,0.1-0.6,0.1-0.88c0-0.64-0.11-1.19-0.34-1.66
		c-0.23-0.46-0.67-0.67-1.31-0.62c-0.38,0.03-0.67,0.14-0.85,0.32c-0.18,0.18-0.29,0.42-0.34,0.71c-0.05,0.3-0.07,0.71-0.07,1.25
		c0,0.57,0.02,0.97,0.07,1.22c0.05,0.24,0.15,0.41,0.29,0.49C152.58,22.18,152.83,22.22,153.18,22.22z"/>
	<path d="M156.88,14.4l1.09,0.04c0,0.33-0.01,1.14-0.02,2.44c-0.02,1.6-0.02,2.86-0.02,3.77c0,1.01,0.01,1.81,0.04,2.41
		c-0.05,0.06-0.18,0.08-0.4,0.08l-0.37-0.01c-0.07-0.01-0.16-0.01-0.26-0.01c-0.06,0-0.1,0-0.12,0.01c0.05-0.65,0.07-1.3,0.07-1.96
		c0-0.5-0.02-1.24-0.05-2.23c-0.03-0.99-0.05-1.74-0.05-2.24C156.78,15.84,156.82,15.08,156.88,14.4z"/>
	<path d="M162.87,17.1c0.18-0.01,0.42,0,0.71,0.02l0.31,0.02c0.02,0.13,0.02,0.22,0.02,0.29v0.12c-0.01,0.18-0.01,0.46-0.01,0.83
		c0,0.3,0.01,0.75,0.02,1.34l0.01,1.34c0,0.58-0.02,1.1-0.05,1.57c0,0.02,0,0.08,0,0.16c0,0.08-0.01,0.15-0.02,0.22
		c-0.02,0.06-0.06,0.1-0.13,0.12h-0.2l-0.38-0.01c-0.06,0-0.12,0-0.17,0.01c-0.05,0.01-0.09,0.01-0.13,0.01
		c-0.08-0.02-0.12-0.11-0.12-0.26c-0.01-0.06-0.01-0.14,0.01-0.22c0.01-0.08,0.02-0.15,0.02-0.2c-0.19,0.26-0.5,0.44-0.91,0.54
		c-0.42,0.1-0.82,0.14-1.22,0.14c-0.38,0-0.71-0.17-0.98-0.51c-0.27-0.34-0.47-0.76-0.59-1.25c-0.13-0.5-0.19-0.98-0.19-1.45
		c0-0.52,0.09-0.99,0.26-1.4c0.18-0.42,0.42-0.75,0.73-0.99s0.65-0.37,1.03-0.38l0.38-0.01c0.36,0,0.66,0.04,0.89,0.13
		c0.24,0.08,0.41,0.24,0.52,0.46c0-0.07,0.01-0.16,0.02-0.28c0.02-0.16,0.02-0.27,0.02-0.34C162.71,17.11,162.76,17.1,162.87,17.1z
		 M161.52,18.18c-0.42-0.01-0.77,0.1-1.05,0.32c-0.28,0.22-0.46,0.48-0.52,0.79c-0.06,0.23-0.1,0.54-0.1,0.94
		c0.04,1.29,0.56,1.9,1.56,1.85c0.41,0,0.7-0.07,0.89-0.22c0.18-0.14,0.3-0.35,0.34-0.61c0.04-0.26,0.07-0.66,0.07-1.19
		c0-0.58-0.02-0.98-0.07-1.22c-0.05-0.24-0.15-0.4-0.31-0.49S161.91,18.2,161.52,18.18z"/>
	<path d="M165.9,17.16c0.02,0.09,0.02,0.2,0.02,0.34v0.3c0.27-0.16,0.59-0.3,0.96-0.43s0.74-0.19,1.1-0.19
		c0.44,0.02,0.8,0.14,1.08,0.37c0.19,0.17,0.29,0.85,0.29,2.05c0,0.3-0.01,0.78-0.02,1.42c-0.02,0.61-0.02,1.05-0.02,1.32
		c0,0.35,0,0.6,0.01,0.76c-0.15,0.02-0.37,0.04-0.66,0.04h-0.4c-0.02-0.13-0.02-0.35-0.02-0.67v-0.52l0.01-0.77
		c0.02-0.52,0.02-0.89,0.01-1.12c0-0.05-0.01-0.21-0.03-0.49c-0.02-0.28-0.07-0.53-0.14-0.74c-0.02-0.28-0.22-0.41-0.59-0.38
		c-0.55,0.01-0.96,0.08-1.22,0.23s-0.41,0.4-0.44,0.78c-0.01,0.1-0.01,0.3-0.01,0.59c0,0.45,0.01,0.93,0.02,1.44
		c0.02,0.3,0.02,0.53,0.02,0.67c0,0.3-0.01,0.6-0.04,0.91v0.05c-0.15,0.03-0.3,0.05-0.45,0.04c-0.15,0-0.25-0.01-0.32-0.01
		c-0.13,0-0.23,0-0.3,0.01l-0.01-2.06c-0.02-0.94-0.02-1.65-0.02-2.12c0-0.38,0.01-0.99,0.02-1.82c0.1,0.01,0.21,0.01,0.34,0.01
		s0.23,0,0.31-0.01c0.05,0,0.1,0,0.17-0.01c0.06-0.01,0.13-0.01,0.19-0.01C165.86,17.12,165.9,17.14,165.9,17.16z"/>
	<path d="M172.22,14.9v1.84l0.01,0.67c0.52-0.02,1.16-0.04,1.93-0.08c0.05,0.06,0.07,0.18,0.07,0.36l-0.01,0.28
		c-0.02,0.18-0.02,0.3-0.01,0.38c-0.87,0-1.52,0-1.96-0.01v1.84v0.41c0,0.36,0.01,0.62,0.02,0.77s0.05,0.28,0.1,0.4
		c0.13,0.16,0.39,0.26,0.77,0.3c0.39,0.04,0.74,0.05,1.06,0.04c0.04,0.32,0.06,0.52,0.06,0.61c0,0.14-0.02,0.29-0.06,0.43
		c-0.17,0.01-0.43,0.01-0.79,0.01c-0.62,0-1.11-0.08-1.46-0.23c-0.35-0.15-0.58-0.46-0.67-0.91c-0.09-0.78-0.13-1.79-0.13-3.04
		v-0.58c-0.05,0.01-0.17,0.01-0.36,0.01l-0.91-0.01l0.04-0.98c0.18,0.02,0.6,0.02,1.26,0.02l-0.01-1.26V15.6
		c0-0.34,0.01-0.57,0.02-0.71c0.11-0.01,0.28,0,0.52,0.01l0.32,0.01C172.11,14.92,172.18,14.91,172.22,14.9z"/>
	<path d="M19.81,31.09v1.07c0.22-0.18,0.41-0.32,0.57-0.41c0.16-0.09,0.41-0.15,0.73-0.17c0.19-0.02,0.37-0.04,0.54-0.04
		c0.58,0,1.04,0.14,1.37,0.42c0.1,0.09,0.18,0.3,0.22,0.62s0.06,0.76,0.06,1.3c0,0.3-0.01,0.78-0.02,1.44
		c-0.02,0.64-0.02,1.1-0.02,1.37c0,0.22,0.01,0.5,0.02,0.82c-0.32,0.05-0.66,0.06-1.03,0.05c-0.02-0.24-0.02-0.45-0.02-0.62V36.2
		v-2.35c-0.02-0.51-0.14-0.84-0.36-1c-0.05-0.03-0.14-0.06-0.29-0.1c-0.17-0.05-0.34-0.07-0.52-0.07c-0.31,0-0.58,0.08-0.8,0.23
		c-0.22,0.16-0.36,0.4-0.43,0.73c-0.06,0.3-0.08,0.67-0.08,1.09l0.01,0.41c0.02,0.53,0.02,0.96,0.02,1.31c0,0.43-0.01,0.76-0.02,1
		v0.05c-0.16,0.04-0.29,0.06-0.38,0.06L19,37.55c-0.11,0-0.2,0-0.28,0.01c0-0.92,0-1.68-0.01-2.28l-0.01-3.67
		c0-0.9,0.01-1.82,0.02-2.76c0.25,0.02,0.45,0.03,0.6,0.02c0.04,0,0.09,0,0.15-0.01c0.06-0.01,0.12-0.01,0.19-0.01
		c0.08,0,0.12,0.01,0.12,0.04c0.02,0.07,0.02,0.56,0.02,1.46V31.09z"/>
	<path d="M27.92,31.5c0.18-0.01,0.42,0,0.71,0.02l0.31,0.02c0.02,0.13,0.02,0.22,0.02,0.29v0.12c-0.01,0.18-0.01,0.46-0.01,0.83
		c0,0.3,0.01,0.75,0.02,1.34l0.01,1.34c0,0.58-0.02,1.1-0.05,1.57c0,0.02,0,0.08,0,0.16c0,0.08-0.01,0.15-0.02,0.22
		c-0.02,0.06-0.06,0.1-0.13,0.12h-0.2l-0.38-0.01c-0.06,0-0.12,0-0.17,0.01c-0.05,0.01-0.09,0.01-0.13,0.01
		c-0.08-0.02-0.12-0.11-0.12-0.26c-0.01-0.06-0.01-0.14,0.01-0.22c0.01-0.08,0.02-0.15,0.02-0.2c-0.19,0.26-0.5,0.44-0.91,0.54
		c-0.42,0.1-0.82,0.14-1.22,0.14c-0.38,0-0.71-0.17-0.98-0.51c-0.27-0.34-0.47-0.76-0.59-1.25c-0.13-0.5-0.19-0.98-0.19-1.45
		c0-0.52,0.09-0.99,0.26-1.4c0.18-0.42,0.42-0.75,0.73-0.99c0.31-0.24,0.65-0.37,1.03-0.38l0.38-0.01c0.36,0,0.66,0.04,0.89,0.13
		s0.41,0.24,0.52,0.46c0-0.07,0.01-0.16,0.02-0.28c0.02-0.16,0.02-0.27,0.02-0.34C27.76,31.51,27.81,31.5,27.92,31.5z M26.57,32.58
		c-0.42-0.01-0.77,0.1-1.05,0.32c-0.28,0.22-0.46,0.48-0.52,0.79c-0.06,0.23-0.1,0.54-0.1,0.94c0.04,1.29,0.56,1.9,1.56,1.85
		c0.41,0,0.7-0.07,0.89-0.22s0.3-0.35,0.34-0.61c0.04-0.26,0.07-0.66,0.07-1.19c0-0.58-0.02-0.98-0.07-1.22
		c-0.05-0.24-0.15-0.4-0.31-0.49C27.23,32.66,26.96,32.6,26.57,32.58z"/>
	<path d="M34.59,33.08c0,0.04-0.14,0.06-0.42,0.06c-0.21,0-0.36,0-0.46-0.01c-0.06,0-0.13,0-0.19-0.01c-0.06,0-0.12,0-0.16,0.01
		c0-0.01,0-0.15,0-0.41c0-0.27-0.23-0.43-0.7-0.49c-0.1-0.02-0.26-0.02-0.47-0.02c-0.22,0-0.43,0.02-0.61,0.05
		c-0.18,0.03-0.31,0.08-0.4,0.13c-0.1,0.08-0.18,0.2-0.24,0.35c-0.06,0.15-0.08,0.3-0.08,0.44c0,0.11,0.02,0.19,0.05,0.23
		c0.09,0.18,0.2,0.31,0.35,0.38c0.08,0.06,0.28,0.12,0.59,0.2s0.58,0.12,0.8,0.13c0.33,0.01,0.62,0.06,0.87,0.15
		c0.25,0.09,0.45,0.22,0.59,0.38c0.14,0.18,0.25,0.35,0.32,0.52c0.07,0.17,0.1,0.36,0.1,0.56c0,0.25-0.06,0.55-0.18,0.9
		c-0.18,0.38-0.46,0.65-0.84,0.83c-0.38,0.18-0.82,0.26-1.31,0.25c-0.54,0.02-1.01-0.05-1.42-0.21c-0.41-0.16-0.72-0.39-0.95-0.7
		c-0.22-0.31-0.34-0.68-0.34-1.1v-0.06c0.14-0.02,0.36-0.02,0.64-0.02c0.31,0,0.48,0.01,0.5,0.04c0.02,0.02,0.05,0.11,0.1,0.27
		c0.05,0.16,0.15,0.33,0.28,0.5c0.14,0.17,0.37,0.26,0.7,0.29c0.26,0.02,0.41,0.02,0.46,0.02c0.13,0,0.23-0.01,0.32-0.04
		s0.19-0.07,0.33-0.13c0.41-0.18,0.61-0.45,0.6-0.8c0.01-0.23-0.05-0.41-0.19-0.54c-0.13-0.13-0.3-0.21-0.5-0.26
		c-0.2-0.04-0.47-0.09-0.82-0.13c-0.25-0.02-0.45-0.05-0.6-0.07c-0.15-0.02-0.29-0.06-0.41-0.12c-0.42-0.14-0.73-0.35-0.95-0.64
		c-0.22-0.29-0.33-0.61-0.33-0.95c0-0.38,0.11-0.72,0.33-1.03c0.22-0.31,0.52-0.51,0.91-0.61c0.33-0.09,0.75-0.13,1.26-0.13
		c0.12,0,0.3,0.01,0.54,0.02c0.34,0.02,0.66,0.08,0.96,0.18c0.28,0.12,0.51,0.33,0.68,0.62C34.5,32.4,34.59,32.72,34.59,33.08z"/>
	<path d="M38.74,29.18c0,0.07,0,0.13,0.01,0.17s0.01,0.08,0.01,0.1c0.01,0.06,0.01,0.16,0.01,0.32l0.02,0.61l-0.01,1.73
		c0.01-0.06,0.06-0.13,0.16-0.23s0.23-0.19,0.4-0.26s0.36-0.12,0.56-0.13c0.7-0.02,1.24,0.03,1.62,0.17
		c0.34,0.12,0.58,0.4,0.74,0.85c0.16,0.45,0.23,0.98,0.23,1.58c-0.02,0.7-0.08,1.27-0.17,1.71s-0.28,0.82-0.56,1.14
		s-0.72,0.49-1.28,0.53c-0.13,0.02-0.23,0.02-0.31,0.02c-0.18,0-0.36-0.03-0.52-0.08c-0.13-0.04-0.26-0.12-0.38-0.24
		c-0.26-0.14-0.43-0.33-0.53-0.55c0.02,0.11,0.02,0.25,0.02,0.42l-0.01,0.38c0,0.05,0,0.08-0.01,0.08
		c-0.05,0.01-0.13,0.01-0.25,0.01c-0.18,0-0.31,0-0.41-0.01l-0.48-0.01c-0.01-0.29-0.01-0.73-0.01-1.32c0-0.64,0-1.21,0.01-1.72
		c0.01-0.51,0.02-0.94,0.02-1.29c0.03-1.46,0.05-2.56,0.05-3.31v-0.79c0.14-0.02,0.29-0.04,0.47-0.04c0.14,0,0.27,0.01,0.38,0.02
		c0.11,0.01,0.18,0.02,0.22,0.03V29.18z M41.53,34.6c0-0.26-0.02-0.46-0.05-0.6c-0.03-0.33-0.08-0.59-0.14-0.79
		c-0.06-0.2-0.21-0.36-0.43-0.5c-0.22-0.14-0.56-0.21-1.02-0.21c-0.45,0-0.75,0.16-0.91,0.47c-0.16,0.32-0.23,0.81-0.23,1.48
		c0,0.57,0.1,1.05,0.31,1.46c0.2,0.4,0.53,0.61,0.98,0.61c0.5,0,0.87-0.16,1.12-0.49C41.4,35.71,41.53,35.23,41.53,34.6z"/>
	<path d="M44.07,34.49v0.22l-0.01,0.35c0,0.99,0.49,1.49,1.46,1.49c0.39,0,0.68-0.09,0.87-0.27c0.19-0.18,0.28-0.43,0.28-0.74
		c0-0.05-0.01-0.14-0.02-0.26c0.17-0.02,0.32-0.04,0.47-0.04c0.13,0,0.22,0,0.29,0.01c0.05,0,0.11,0,0.17,0.01
		c0.07,0,0.15,0,0.23-0.01c0.01,0.46-0.01,0.82-0.05,1.09s-0.14,0.53-0.29,0.78c-0.14,0.22-0.39,0.37-0.75,0.46
		c-0.36,0.09-0.75,0.14-1.17,0.14c-0.19,0-0.37-0.01-0.53-0.02s-0.27-0.03-0.31-0.05c-0.62-0.1-1.08-0.5-1.36-1.18
		c-0.28-0.68-0.4-1.47-0.36-2.35c0.01-0.06,0.02-0.2,0.04-0.4c0.02-0.2,0.04-0.41,0.07-0.63c0.03-0.22,0.08-0.43,0.16-0.64
		c0.15-0.35,0.43-0.62,0.83-0.82c0.4-0.19,0.84-0.29,1.33-0.29c0.26,0,0.52,0.03,0.8,0.1c1.09,0.18,1.63,1,1.63,2.46
		c0,0.12-0.01,0.29-0.02,0.52c-0.15,0.05-0.6,0.09-1.34,0.12c-0.09,0.01-0.28,0.01-0.58,0.01c-0.63,0-1.1-0.01-1.4-0.02
		C44.31,34.52,44.17,34.51,44.07,34.49z M46.98,33.59c-0.01-0.25-0.07-0.49-0.19-0.73c-0.12-0.24-0.28-0.43-0.5-0.56
		c-0.12-0.06-0.22-0.09-0.31-0.11c-0.09-0.02-0.2-0.02-0.34-0.02c-0.52,0-0.89,0.11-1.11,0.32s-0.36,0.52-0.41,0.92
		c-0.02,0.1-0.02,0.16-0.02,0.19c0,0.1,0.05,0.16,0.14,0.19c0.09,0.03,0.29,0.05,0.59,0.05c0.3,0,0.55,0,0.76-0.01
		c0.77,0,1.2,0,1.3-0.01c0.04-0.01,0.07-0.02,0.08-0.03c0.01-0.01,0.02-0.03,0.02-0.07V33.59z"/>
	<path d="M48.81,28.8l1.09,0.04c0,0.33-0.01,1.14-0.02,2.44c-0.02,1.6-0.02,2.86-0.02,3.77c0,1.01,0.01,1.81,0.04,2.41
		c-0.05,0.06-0.18,0.08-0.4,0.08l-0.37-0.01c-0.07-0.01-0.16-0.01-0.26-0.01c-0.06,0-0.1,0-0.12,0.01c0.05-0.65,0.07-1.3,0.07-1.96
		c0-0.5-0.02-1.24-0.05-2.23c-0.03-0.99-0.05-1.74-0.05-2.24C48.71,30.24,48.74,29.48,48.81,28.8z"/>
	<path d="M51.28,28.8l1.09,0.04c0,0.33-0.01,1.14-0.02,2.44c-0.02,1.6-0.02,2.86-0.02,3.77c0,1.01,0.01,1.81,0.04,2.41
		c-0.05,0.06-0.18,0.08-0.4,0.08l-0.37-0.01c-0.07-0.01-0.16-0.01-0.26-0.01c-0.06,0-0.1,0-0.12,0.01c0.05-0.65,0.07-1.3,0.07-1.96
		c0-0.5-0.02-1.24-0.05-2.23c-0.03-0.99-0.05-1.74-0.05-2.24C51.19,30.24,51.22,29.48,51.28,28.8z"/>
	<path d="M58.83,34.76l-5.38-0.08l0.02-0.82l0.01-0.44h5.32c0.01,0.14,0.01,0.27,0.01,0.38c0,0.11-0.01,0.21-0.01,0.29
		c0,0.22,0.01,0.44,0.04,0.67H58.83z"/>
	<path d="M64.48,33.08c0,0.04-0.14,0.06-0.42,0.06c-0.21,0-0.36,0-0.46-0.01c-0.06,0-0.13,0-0.19-0.01c-0.06,0-0.12,0-0.16,0.01
		c0-0.01,0-0.15,0-0.41c0-0.27-0.23-0.43-0.7-0.49c-0.1-0.02-0.26-0.02-0.47-0.02c-0.22,0-0.43,0.02-0.61,0.05
		c-0.18,0.03-0.31,0.08-0.4,0.13c-0.1,0.08-0.18,0.2-0.24,0.35c-0.06,0.15-0.08,0.3-0.08,0.44c0,0.11,0.02,0.19,0.05,0.23
		c0.09,0.18,0.2,0.31,0.35,0.38c0.08,0.06,0.28,0.12,0.59,0.2s0.58,0.12,0.8,0.13c0.33,0.01,0.62,0.06,0.87,0.15
		c0.25,0.09,0.45,0.22,0.59,0.38c0.14,0.18,0.25,0.35,0.32,0.52c0.07,0.17,0.1,0.36,0.1,0.56c0,0.25-0.06,0.55-0.18,0.9
		c-0.18,0.38-0.46,0.65-0.84,0.83c-0.38,0.18-0.82,0.26-1.31,0.25c-0.54,0.02-1.01-0.05-1.42-0.21c-0.41-0.16-0.72-0.39-0.95-0.7
		c-0.22-0.31-0.34-0.68-0.34-1.1v-0.06c0.14-0.02,0.36-0.02,0.64-0.02c0.31,0,0.48,0.01,0.5,0.04c0.02,0.02,0.05,0.11,0.1,0.27
		c0.05,0.16,0.15,0.33,0.28,0.5c0.14,0.17,0.37,0.26,0.7,0.29c0.26,0.02,0.41,0.02,0.46,0.02c0.13,0,0.23-0.01,0.32-0.04
		s0.19-0.07,0.33-0.13c0.41-0.18,0.61-0.45,0.6-0.8c0.01-0.23-0.05-0.41-0.19-0.54c-0.13-0.13-0.3-0.21-0.5-0.26
		s-0.47-0.09-0.82-0.13c-0.25-0.02-0.45-0.05-0.6-0.07c-0.15-0.02-0.29-0.06-0.41-0.12c-0.42-0.14-0.73-0.35-0.95-0.64
		c-0.22-0.29-0.33-0.61-0.33-0.95c0-0.38,0.11-0.72,0.33-1.03c0.22-0.31,0.52-0.51,0.91-0.61c0.33-0.09,0.75-0.13,1.26-0.13
		c0.12,0,0.3,0.01,0.54,0.02c0.34,0.02,0.66,0.08,0.96,0.18c0.28,0.12,0.51,0.33,0.68,0.62C64.39,32.4,64.48,32.72,64.48,33.08z"/>
	<path d="M66.18,31.09v1.07c0.22-0.18,0.41-0.32,0.57-0.41c0.16-0.09,0.41-0.15,0.73-0.17c0.19-0.02,0.37-0.04,0.54-0.04
		c0.58,0,1.04,0.14,1.37,0.42c0.1,0.09,0.18,0.3,0.22,0.62s0.06,0.76,0.06,1.3c0,0.3-0.01,0.78-0.02,1.44
		c-0.02,0.64-0.02,1.1-0.02,1.37c0,0.22,0.01,0.5,0.02,0.82c-0.32,0.05-0.66,0.06-1.03,0.05c-0.02-0.24-0.02-0.45-0.02-0.62V36.2
		v-2.35c-0.02-0.51-0.14-0.84-0.36-1c-0.05-0.03-0.14-0.06-0.29-0.1c-0.17-0.05-0.34-0.07-0.52-0.07c-0.31,0-0.58,0.08-0.8,0.23
		c-0.22,0.16-0.36,0.4-0.43,0.73c-0.06,0.3-0.08,0.67-0.08,1.09l0.01,0.41c0.02,0.53,0.02,0.96,0.02,1.31c0,0.43-0.01,0.76-0.02,1
		v0.05c-0.16,0.04-0.29,0.06-0.38,0.06l-0.36-0.01c-0.11,0-0.2,0-0.28,0.01c0-0.92,0-1.68-0.01-2.28l-0.01-3.67
		c0-0.9,0.01-1.82,0.02-2.76c0.25,0.02,0.45,0.03,0.6,0.02c0.04,0,0.09,0,0.15-0.01c0.06-0.01,0.12-0.01,0.19-0.01
		c0.08,0,0.12,0.01,0.12,0.04c0.02,0.07,0.02,0.56,0.02,1.46V31.09z"/>
	<path d="M74.3,31.5c0.18-0.01,0.42,0,0.71,0.02l0.31,0.02c0.02,0.13,0.02,0.22,0.02,0.29v0.12c-0.01,0.18-0.01,0.46-0.01,0.83
		c0,0.3,0.01,0.75,0.02,1.34l0.01,1.34c0,0.58-0.02,1.1-0.05,1.57c0,0.02,0,0.08,0,0.16c0,0.08-0.01,0.15-0.02,0.22
		c-0.02,0.06-0.06,0.1-0.13,0.12h-0.2l-0.38-0.01c-0.06,0-0.12,0-0.17,0.01c-0.05,0.01-0.09,0.01-0.13,0.01
		c-0.08-0.02-0.12-0.11-0.12-0.26c-0.01-0.06-0.01-0.14,0.01-0.22c0.01-0.08,0.02-0.15,0.02-0.2c-0.19,0.26-0.5,0.44-0.91,0.54
		c-0.42,0.1-0.82,0.14-1.22,0.14c-0.38,0-0.71-0.17-0.98-0.51c-0.27-0.34-0.47-0.76-0.59-1.25c-0.13-0.5-0.19-0.98-0.19-1.45
		c0-0.52,0.09-0.99,0.26-1.4c0.18-0.42,0.42-0.75,0.73-0.99s0.65-0.37,1.03-0.38l0.38-0.01c0.36,0,0.66,0.04,0.89,0.13
		c0.24,0.08,0.41,0.24,0.52,0.46c0-0.07,0.01-0.16,0.02-0.28c0.02-0.16,0.02-0.27,0.02-0.34C74.14,31.51,74.19,31.5,74.3,31.5z
		 M72.95,32.58c-0.42-0.01-0.77,0.1-1.05,0.32c-0.28,0.22-0.46,0.48-0.52,0.79c-0.06,0.23-0.1,0.54-0.1,0.94
		c0.04,1.29,0.56,1.9,1.56,1.85c0.41,0,0.7-0.07,0.89-0.22c0.18-0.14,0.3-0.35,0.34-0.61c0.04-0.26,0.07-0.66,0.07-1.19
		c0-0.58-0.02-0.98-0.07-1.22c-0.05-0.24-0.15-0.4-0.31-0.49S73.34,32.6,72.95,32.58z"/>
	<path d="M77.27,39.82v0.13c0,0.02-0.05,0.03-0.16,0.04c-0.1,0.01-0.22,0.02-0.35,0.02c-0.18,0-0.36-0.01-0.52-0.04v-0.79
		c0-0.75-0.02-1.86-0.05-3.31c-0.01-0.35-0.02-0.78-0.02-1.29c-0.01-0.51-0.01-1.08-0.01-1.72c0-0.59,0-1.03,0.01-1.32l0.78-0.01
		c0.16,0,0.28,0,0.35,0.01c0.01,0.01,0.01,0.04,0.02,0.1c0,0.06,0.01,0.12,0.01,0.19c0,0.03,0,0.07,0.01,0.11s0,0.1-0.01,0.17
		c0.01,0.04,0.02,0.06,0.04,0.05c0.02,0,0.05-0.03,0.08-0.09c0.14-0.18,0.34-0.32,0.59-0.4s0.5-0.12,0.76-0.12
		c0.13,0,0.22,0,0.26,0.01c0.55,0.04,0.97,0.21,1.27,0.52c0.29,0.3,0.49,0.69,0.58,1.15c0.1,0.46,0.15,1.04,0.17,1.72
		c0,0.61-0.08,1.14-0.23,1.58c-0.16,0.45-0.4,0.73-0.74,0.85c-0.2,0.08-0.44,0.13-0.72,0.16c-0.09,0.01-0.23,0.01-0.42,0.01
		c-0.4,0-0.77-0.03-1.12-0.1s-0.52-0.14-0.54-0.24l0.02,1.46c0,0.18-0.01,0.39-0.02,0.65L77.27,39.82z M78.36,36.62
		c0.38,0,0.66-0.02,0.86-0.05s0.36-0.12,0.5-0.25s0.25-0.35,0.34-0.64c0.06-0.31,0.1-0.6,0.1-0.88c0-0.64-0.11-1.19-0.34-1.66
		c-0.23-0.46-0.67-0.67-1.31-0.62c-0.38,0.03-0.67,0.14-0.85,0.32c-0.18,0.18-0.29,0.42-0.34,0.71c-0.05,0.3-0.07,0.71-0.07,1.25
		c0,0.57,0.02,0.97,0.07,1.22c0.05,0.24,0.15,0.41,0.29,0.49C77.76,36.58,78.01,36.62,78.36,36.62z"/>
	<path d="M82.65,34.49v0.22l-0.01,0.35c0,0.99,0.49,1.49,1.46,1.49c0.39,0,0.68-0.09,0.87-0.27c0.19-0.18,0.28-0.43,0.28-0.74
		c0-0.05-0.01-0.14-0.02-0.26c0.17-0.02,0.32-0.04,0.47-0.04c0.13,0,0.22,0,0.29,0.01c0.05,0,0.11,0,0.17,0.01
		c0.07,0,0.15,0,0.23-0.01c0.01,0.46-0.01,0.82-0.05,1.09s-0.14,0.53-0.29,0.78c-0.14,0.22-0.39,0.37-0.75,0.46
		c-0.36,0.09-0.75,0.14-1.17,0.14c-0.19,0-0.37-0.01-0.53-0.02c-0.16-0.02-0.27-0.03-0.31-0.05c-0.62-0.1-1.08-0.5-1.36-1.18
		c-0.28-0.68-0.4-1.47-0.36-2.35c0.01-0.06,0.02-0.2,0.04-0.4c0.02-0.2,0.04-0.41,0.07-0.63c0.03-0.22,0.08-0.43,0.16-0.64
		c0.15-0.35,0.43-0.62,0.83-0.82c0.4-0.19,0.84-0.29,1.33-0.29c0.26,0,0.52,0.03,0.8,0.1c1.09,0.18,1.63,1,1.63,2.46
		c0,0.12-0.01,0.29-0.02,0.52c-0.15,0.05-0.6,0.09-1.34,0.12c-0.09,0.01-0.28,0.01-0.58,0.01c-0.63,0-1.1-0.01-1.4-0.02
		C82.89,34.52,82.75,34.51,82.65,34.49z M85.57,33.59c-0.01-0.25-0.07-0.49-0.19-0.73c-0.12-0.24-0.28-0.43-0.5-0.56
		c-0.12-0.06-0.22-0.09-0.31-0.11s-0.2-0.02-0.34-0.02c-0.52,0-0.89,0.11-1.11,0.32s-0.36,0.52-0.41,0.92
		c-0.02,0.1-0.02,0.16-0.02,0.19c0,0.1,0.05,0.16,0.14,0.19c0.09,0.03,0.29,0.05,0.59,0.05c0.3,0,0.55,0,0.76-0.01
		c0.77,0,1.2,0,1.3-0.01c0.04-0.01,0.07-0.02,0.08-0.03c0.01-0.01,0.02-0.03,0.02-0.07V33.59z"/>
	<path d="M90.69,29.24v-0.13c0.02-0.04,0.21-0.06,0.58-0.06c0.21,0,0.36,0.01,0.47,0.02v0.79c0,0.76,0.02,1.87,0.05,3.32
		c0.01,0.36,0.02,0.79,0.02,1.29c0.01,0.5,0.01,1.07,0.01,1.71c0,0.59,0,1.03-0.01,1.32c-0.26,0.02-0.47,0.02-0.64,0.02
		c-0.22,0-0.38-0.01-0.48-0.02c-0.01-0.02-0.01-0.1-0.01-0.25c0-0.21-0.02-0.37-0.06-0.48c-0.06,0.13-0.15,0.26-0.28,0.38
		s-0.27,0.2-0.4,0.23c-0.22,0.07-0.46,0.11-0.72,0.11c-0.13,0-0.22,0-0.29-0.01c-0.57-0.04-1-0.22-1.28-0.53s-0.48-0.7-0.57-1.16
		s-0.15-1.02-0.16-1.69c0-0.67,0.09-1.23,0.27-1.66c0.18-0.44,0.49-0.71,0.94-0.83c0.3-0.08,0.63-0.12,1.01-0.12
		c0.3,0,0.54,0.02,0.71,0.06c0.16,0.02,0.3,0.08,0.43,0.16s0.23,0.17,0.3,0.26c0.07,0.09,0.11,0.16,0.12,0.2l-0.01-1.02
		c0-0.21,0-0.39-0.01-0.56c0-0.16,0-0.29,0.01-0.39c0.01-0.04,0.01-0.09,0.01-0.15c0-0.06-0.01-0.11-0.01-0.16v-0.25
		C90.68,29.46,90.68,29.32,90.69,29.24z M89.53,32.39l-0.23-0.01c-0.43,0-0.76,0.11-1,0.32c-0.23,0.21-0.36,0.54-0.4,0.99
		c-0.02,0.18-0.04,0.44-0.04,0.79c0.02,0.53,0.08,0.94,0.2,1.23c0.12,0.29,0.28,0.5,0.48,0.61c0.2,0.12,0.47,0.17,0.81,0.17
		c0.38,0,0.67-0.09,0.86-0.27c0.19-0.18,0.32-0.42,0.37-0.71c0.06-0.3,0.08-0.68,0.08-1.16c-0.01-0.46-0.03-0.81-0.08-1.07
		c-0.04-0.26-0.15-0.46-0.31-0.62C90.12,32.49,89.87,32.4,89.53,32.39z"/>
	<path d="M94.54,31.52c0.14,0.01,0.34,0.01,0.61,0.01c0.26,0,0.46,0.01,0.59,0.02l0.18,1.1c0.21,1.38,0.44,2.6,0.68,3.67
		c0.39-1.11,0.69-2.03,0.91-2.75c0.21-0.72,0.39-1.41,0.52-2.06c0.07,0.01,0.26,0,0.56-0.01c0.28-0.02,0.49-0.01,0.64,0.02l0.07,0.4
		c0.14,0.69,0.28,1.34,0.43,1.95c0.15,0.61,0.38,1.4,0.69,2.37c0.19-0.74,0.39-1.65,0.6-2.74c0.03-0.14,0.1-0.43,0.19-0.89
		c0.1-0.46,0.18-0.82,0.25-1.07c0.29-0.02,0.52-0.02,0.71-0.02c0.18,0,0.32,0,0.42,0.01c-0.19,0.66-0.35,1.25-0.49,1.78
		c-0.13,0.53-0.25,1.03-0.35,1.49c-0.03,0.13-0.11,0.45-0.22,0.97s-0.26,1.1-0.44,1.76c-0.18,0.04-0.35,0.05-0.5,0.04l-0.85-0.01
		c-0.36-1.42-0.75-2.81-1.18-4.18c-0.31,1.01-0.5,1.62-0.56,1.85c-0.28,0.98-0.52,1.76-0.71,2.32c-0.11,0.02-0.31,0.02-0.59,0.02
		l-0.91-0.01C95.42,35.49,95,33.48,94.54,31.52z"/>
	<path d="M104.12,31.09v1.07c0.22-0.18,0.41-0.32,0.57-0.41c0.16-0.09,0.41-0.15,0.73-0.17c0.19-0.02,0.37-0.04,0.54-0.04
		c0.58,0,1.04,0.14,1.37,0.42c0.1,0.09,0.18,0.3,0.22,0.62s0.06,0.76,0.06,1.3c0,0.3-0.01,0.78-0.02,1.44
		c-0.02,0.64-0.02,1.1-0.02,1.37c0,0.22,0.01,0.5,0.02,0.82c-0.32,0.05-0.66,0.06-1.03,0.05c-0.02-0.24-0.02-0.45-0.02-0.62V36.2
		v-2.35c-0.02-0.51-0.14-0.84-0.36-1c-0.05-0.03-0.14-0.06-0.29-0.1c-0.17-0.05-0.34-0.07-0.52-0.07c-0.31,0-0.58,0.08-0.8,0.23
		c-0.22,0.16-0.36,0.4-0.43,0.73c-0.06,0.3-0.08,0.67-0.08,1.09l0.01,0.41c0.02,0.53,0.02,0.96,0.02,1.31c0,0.43-0.01,0.76-0.02,1
		v0.05c-0.16,0.04-0.29,0.06-0.38,0.06l-0.36-0.01c-0.11,0-0.2,0-0.28,0.01c0-0.92,0-1.68-0.01-2.28l-0.01-3.67
		c0-0.9,0.01-1.82,0.02-2.76c0.25,0.02,0.45,0.03,0.6,0.02c0.04,0,0.09,0,0.15-0.01c0.06-0.01,0.12-0.01,0.19-0.01
		c0.08,0,0.12,0.01,0.12,0.04c0.02,0.07,0.02,0.56,0.02,1.46V31.09z"/>
	<path d="M108.74,31.46c0.06-0.01,0.17-0.01,0.34,0c0.24,0.02,0.5,0.02,0.79,0.02v0.04c0,0.36-0.01,0.92-0.02,1.67
		c-0.02,0.77-0.04,1.54-0.04,2.33c0,0.74,0.02,1.39,0.05,1.97c-0.11,0.02-0.28,0.04-0.5,0.04c-0.22,0-0.36,0-0.41,0
		c-0.14,0-0.23,0-0.26,0.01c0.01-0.23,0.01-0.58,0.01-1.06V35.4v-1.01c-0.02-0.56-0.02-0.99-0.02-1.3c0-0.55,0.02-1.09,0.07-1.62
		V31.46z M108.69,28.88c0.5,0.02,0.87,0.02,1.13,0.02l0.04,1.58c-0.08,0.04-0.22,0.06-0.43,0.06c-0.13,0-0.22,0-0.29-0.01
		c-0.05,0-0.1,0-0.17-0.01c-0.06,0-0.14,0-0.23,0.01c0-0.12-0.01-0.32-0.02-0.59C108.69,29.42,108.68,29.07,108.69,28.88z"/>
	<path d="M112.95,29.3v1.84l0.01,0.67c0.52-0.02,1.16-0.04,1.93-0.08c0.05,0.06,0.07,0.18,0.07,0.36l-0.01,0.28
		c-0.02,0.18-0.02,0.3-0.01,0.38c-0.87,0-1.52,0-1.96-0.01v1.84v0.41c0,0.36,0.01,0.62,0.02,0.77s0.05,0.28,0.1,0.4
		c0.13,0.16,0.39,0.26,0.77,0.3c0.39,0.04,0.74,0.05,1.06,0.04C114.98,36.8,115,37,115,37.09c0,0.14-0.02,0.29-0.06,0.43
		c-0.17,0.01-0.43,0.01-0.79,0.01c-0.62,0-1.11-0.08-1.46-0.23c-0.35-0.15-0.58-0.46-0.67-0.91c-0.09-0.78-0.13-1.79-0.13-3.04
		v-0.58c-0.05,0.01-0.17,0.01-0.36,0.01l-0.91-0.01l0.04-0.98c0.18,0.02,0.6,0.02,1.26,0.02l-0.01-1.26V30
		c0-0.34,0.01-0.57,0.02-0.71c0.11-0.01,0.28,0,0.52,0.01l0.32,0.01C112.84,29.32,112.91,29.31,112.95,29.3z"/>
	<path d="M116.43,34.49v0.22l-0.01,0.35c0,0.99,0.49,1.49,1.46,1.49c0.39,0,0.68-0.09,0.87-0.27c0.19-0.18,0.28-0.43,0.28-0.74
		c0-0.05-0.01-0.14-0.02-0.26c0.17-0.02,0.32-0.04,0.47-0.04c0.13,0,0.22,0,0.29,0.01c0.05,0,0.11,0,0.17,0.01
		c0.07,0,0.15,0,0.23-0.01c0.01,0.46-0.01,0.82-0.05,1.09s-0.14,0.53-0.29,0.78c-0.14,0.22-0.39,0.37-0.75,0.46
		c-0.36,0.09-0.75,0.14-1.17,0.14c-0.19,0-0.37-0.01-0.53-0.02c-0.16-0.02-0.27-0.03-0.31-0.05c-0.62-0.1-1.08-0.5-1.36-1.18
		c-0.28-0.68-0.4-1.47-0.36-2.35c0.01-0.06,0.02-0.2,0.04-0.4c0.02-0.2,0.04-0.41,0.07-0.63c0.03-0.22,0.08-0.43,0.16-0.64
		c0.15-0.35,0.43-0.62,0.83-0.82c0.4-0.19,0.84-0.29,1.33-0.29c0.26,0,0.52,0.03,0.8,0.1c1.09,0.18,1.63,1,1.63,2.46
		c0,0.12-0.01,0.29-0.02,0.52c-0.15,0.05-0.6,0.09-1.34,0.12c-0.09,0.01-0.28,0.01-0.58,0.01c-0.63,0-1.1-0.01-1.4-0.02
		C116.67,34.52,116.52,34.51,116.43,34.49z M119.34,33.59c-0.01-0.25-0.07-0.49-0.19-0.73c-0.12-0.24-0.28-0.43-0.5-0.56
		c-0.12-0.06-0.22-0.09-0.31-0.11s-0.2-0.02-0.34-0.02c-0.52,0-0.89,0.11-1.11,0.32s-0.36,0.52-0.41,0.92
		c-0.02,0.1-0.02,0.16-0.02,0.19c0,0.1,0.05,0.16,0.14,0.19c0.09,0.03,0.29,0.05,0.59,0.05c0.3,0,0.55,0,0.76-0.01
		c0.77,0,1.2,0,1.3-0.01c0.04-0.01,0.07-0.02,0.08-0.03c0.01-0.01,0.02-0.03,0.02-0.07V33.59z"/>
	<path d="M124.4,29.18c0,0.07,0,0.13,0.01,0.17c0,0.04,0.01,0.08,0.01,0.1c0.01,0.06,0.01,0.16,0.01,0.32l0.02,0.61l-0.01,1.73
		c0.01-0.06,0.06-0.13,0.16-0.23c0.1-0.1,0.23-0.19,0.4-0.26s0.36-0.12,0.56-0.13c0.7-0.02,1.24,0.03,1.62,0.17
		c0.34,0.12,0.58,0.4,0.74,0.85s0.23,0.98,0.23,1.58c-0.02,0.7-0.08,1.27-0.17,1.71c-0.09,0.44-0.28,0.82-0.56,1.14
		s-0.72,0.49-1.28,0.53c-0.13,0.02-0.23,0.02-0.31,0.02c-0.18,0-0.36-0.03-0.52-0.08c-0.13-0.04-0.26-0.12-0.38-0.24
		c-0.26-0.14-0.43-0.33-0.53-0.55c0.02,0.11,0.02,0.25,0.02,0.42l-0.01,0.38c0,0.05,0,0.08-0.01,0.08
		c-0.05,0.01-0.13,0.01-0.25,0.01c-0.18,0-0.31,0-0.41-0.01l-0.48-0.01c-0.01-0.29-0.01-0.73-0.01-1.32c0-0.64,0-1.21,0.01-1.72
		c0.01-0.51,0.02-0.94,0.02-1.29c0.03-1.46,0.05-2.56,0.05-3.31v-0.79c0.14-0.02,0.29-0.04,0.47-0.04c0.14,0,0.27,0.01,0.38,0.02
		c0.11,0.01,0.18,0.02,0.22,0.03V29.18z M127.18,34.6c0-0.26-0.02-0.46-0.05-0.6c-0.03-0.33-0.08-0.59-0.14-0.79
		c-0.06-0.2-0.21-0.36-0.43-0.5c-0.22-0.14-0.56-0.21-1.02-0.21c-0.45,0-0.75,0.16-0.91,0.47c-0.16,0.32-0.23,0.81-0.23,1.48
		c0,0.57,0.1,1.05,0.31,1.46c0.2,0.4,0.53,0.61,0.98,0.61c0.5,0,0.87-0.16,1.12-0.49C127.05,35.71,127.18,35.23,127.18,34.6z"/>
	<path d="M129.14,28.8l1.09,0.04c0,0.33-0.01,1.14-0.02,2.44c-0.02,1.6-0.02,2.86-0.02,3.77c0,1.01,0.01,1.81,0.04,2.41
		c-0.05,0.06-0.18,0.08-0.4,0.08l-0.37-0.01c-0.07-0.01-0.16-0.01-0.26-0.01c-0.06,0-0.1,0-0.12,0.01c0.05-0.65,0.07-1.3,0.07-1.96
		c0-0.5-0.02-1.24-0.05-2.23c-0.03-0.99-0.05-1.74-0.05-2.24C129.04,30.24,129.07,29.48,129.14,28.8z"/>
	<path d="M131.16,33.62c0-0.3,0.01-0.55,0.04-0.77s0.1-0.48,0.21-0.8c0.1-0.23,0.33-0.41,0.67-0.52c0.34-0.12,0.72-0.17,1.13-0.17
		c0.06,0.01,0.14,0.01,0.24,0.01l0.48-0.01c0.67,0,1.19,0.18,1.55,0.53c0.14,0.1,0.25,0.28,0.33,0.54c0.08,0.26,0.12,0.62,0.14,1.06
		c0.02,0.44,0.02,0.7,0.02,0.77c-0.03,0.8-0.07,1.44-0.11,1.91s-0.13,0.78-0.27,0.91c-0.15,0.22-0.36,0.36-0.63,0.44
		s-0.59,0.12-0.95,0.12c-0.14,0-0.36-0.01-0.65-0.02l-0.55-0.01c-0.47-0.08-0.83-0.25-1.06-0.52c-0.24-0.26-0.39-0.57-0.46-0.92
		c-0.07-0.35-0.1-0.78-0.1-1.27v-0.62C131.19,33.98,131.18,33.76,131.16,33.62z M133.61,32.48c-0.54,0-0.94,0.14-1.18,0.42
		c-0.1,0.13-0.17,0.29-0.2,0.49c-0.03,0.2-0.04,0.45-0.03,0.76c-0.01,0.12-0.01,0.28,0.01,0.48c0.01,0.2,0.02,0.36,0.02,0.47
		l0.02,0.5c0.02,0.32,0.11,0.55,0.27,0.68c0.16,0.13,0.35,0.22,0.59,0.27c0.16,0.02,0.32,0.04,0.49,0.04c0.31,0,0.58-0.06,0.82-0.17
		c0.23-0.11,0.38-0.3,0.44-0.55c0.03-0.21,0.05-0.37,0.05-0.49c0.04-0.56,0.06-0.94,0.06-1.14c0-0.53-0.1-0.95-0.29-1.27
		C134.5,32.64,134.14,32.48,133.61,32.48z"/>
	<path d="M136.54,33.62c0-0.3,0.01-0.55,0.04-0.77s0.1-0.48,0.21-0.8c0.1-0.23,0.33-0.41,0.67-0.52c0.34-0.12,0.72-0.17,1.13-0.17
		c0.06,0.01,0.14,0.01,0.24,0.01l0.48-0.01c0.67,0,1.19,0.18,1.55,0.53c0.14,0.1,0.25,0.28,0.33,0.54c0.08,0.26,0.12,0.62,0.14,1.06
		c0.02,0.44,0.02,0.7,0.02,0.77c-0.03,0.8-0.07,1.44-0.11,1.91s-0.13,0.78-0.27,0.91c-0.15,0.22-0.36,0.36-0.63,0.44
		s-0.59,0.12-0.95,0.12c-0.14,0-0.36-0.01-0.65-0.02l-0.55-0.01c-0.47-0.08-0.83-0.25-1.06-0.52c-0.24-0.26-0.39-0.57-0.46-0.92
		c-0.07-0.35-0.1-0.78-0.1-1.27v-0.62C136.56,33.98,136.56,33.76,136.54,33.62z M138.99,32.48c-0.54,0-0.94,0.14-1.18,0.42
		c-0.1,0.13-0.17,0.29-0.2,0.49c-0.03,0.2-0.04,0.45-0.03,0.76c-0.01,0.12-0.01,0.28,0.01,0.48c0.01,0.2,0.02,0.36,0.02,0.47
		l0.02,0.5c0.02,0.32,0.11,0.55,0.27,0.68c0.16,0.13,0.35,0.22,0.59,0.27c0.16,0.02,0.32,0.04,0.49,0.04c0.31,0,0.58-0.06,0.82-0.17
		c0.23-0.11,0.38-0.3,0.44-0.55c0.03-0.21,0.05-0.37,0.05-0.49c0.04-0.56,0.06-0.94,0.06-1.14c0-0.53-0.1-0.95-0.29-1.27
		C139.88,32.64,139.52,32.48,138.99,32.48z"/>
	<path d="M143.15,31.57c0.02,0.09,0.02,0.2,0.02,0.34v0.3c0.3-0.3,0.65-0.48,1.06-0.54c0.28-0.06,0.52-0.08,0.71-0.08
		c0.34,0,0.63,0.07,0.85,0.2c0.18,0.08,0.29,0.19,0.35,0.34c0.06-0.03,0.14-0.09,0.25-0.17c0.11-0.08,0.26-0.16,0.44-0.24
		c0.19-0.08,0.45-0.12,0.79-0.13c0.4-0.02,0.71,0,0.94,0.05c0.23,0.05,0.43,0.16,0.62,0.32c0.1,0.09,0.18,0.3,0.22,0.62
		s0.06,0.76,0.06,1.3c0,0.3-0.01,0.78-0.02,1.44c-0.02,0.64-0.02,1.1-0.02,1.37c0,0.22,0.01,0.5,0.02,0.82
		c-0.29,0.05-0.63,0.06-1.02,0.05c-0.02-0.22-0.02-0.61-0.02-1.19c0.02-0.62,0.02-1.1,0.02-1.44v-0.5
		c-0.01-0.06-0.02-0.18-0.02-0.35s-0.02-0.35-0.05-0.55c-0.02-0.2-0.07-0.35-0.14-0.46c-0.05-0.16-0.2-0.25-0.47-0.28
		c-0.08-0.02-0.2-0.02-0.35-0.02c-0.23,0-0.43,0.04-0.6,0.11s-0.29,0.19-0.36,0.35c-0.02,0.18-0.02,0.32-0.02,0.42l0.01,0.34v0.44
		c0,0.27-0.01,0.69-0.02,1.25l-0.01,1.2c0,0.3,0,0.51,0.01,0.64c-0.17,0.02-0.4,0.04-0.68,0.04h-0.37
		c-0.02-0.16-0.02-0.44-0.02-0.85v-0.64l0.01-0.89c0-0.55-0.02-1.04-0.05-1.46c0-0.34-0.06-0.57-0.17-0.69s-0.32-0.19-0.62-0.19
		c-0.85,0-1.3,0.48-1.37,1.43c-0.01,0.12-0.01,0.3-0.01,0.53c0,0.26,0.01,0.62,0.02,1.08l0.01,0.59c0,0.33-0.01,0.67-0.04,1.02v0.05
		c-0.12,0.02-0.23,0.04-0.34,0.04l-0.4-0.01c-0.12,0-0.22,0-0.29,0.01l-0.01-2.06c-0.02-0.94-0.02-1.65-0.02-2.12
		c0-0.38,0.01-0.99,0.02-1.82c0.21,0.02,0.33,0.02,0.37,0.02l0.26-0.01c0.04,0,0.09,0,0.16-0.01c0.06-0.01,0.13-0.01,0.19-0.01
		C143.12,31.54,143.15,31.55,143.15,31.57z"/>
	<path d="M155.04,33.08c0,0.04-0.14,0.06-0.42,0.06c-0.21,0-0.36,0-0.46-0.01c-0.06,0-0.13,0-0.19-0.01c-0.06,0-0.12,0-0.16,0.01
		c0-0.01,0-0.15,0-0.41c0-0.27-0.23-0.43-0.7-0.49c-0.1-0.02-0.26-0.02-0.47-0.02c-0.22,0-0.43,0.02-0.61,0.05
		c-0.18,0.03-0.31,0.08-0.4,0.13c-0.1,0.08-0.18,0.2-0.24,0.35c-0.06,0.15-0.08,0.3-0.08,0.44c0,0.11,0.02,0.19,0.05,0.23
		c0.09,0.18,0.2,0.31,0.35,0.38c0.08,0.06,0.28,0.12,0.59,0.2c0.31,0.08,0.58,0.12,0.8,0.13c0.33,0.01,0.62,0.06,0.87,0.15
		c0.25,0.09,0.45,0.22,0.59,0.38c0.14,0.18,0.25,0.35,0.32,0.52c0.07,0.17,0.1,0.36,0.1,0.56c0,0.25-0.06,0.55-0.18,0.9
		c-0.18,0.38-0.46,0.65-0.84,0.83c-0.38,0.18-0.82,0.26-1.31,0.25c-0.54,0.02-1.01-0.05-1.42-0.21c-0.41-0.16-0.72-0.39-0.95-0.7
		s-0.34-0.68-0.34-1.1v-0.06c0.14-0.02,0.36-0.02,0.64-0.02c0.31,0,0.48,0.01,0.5,0.04c0.02,0.02,0.05,0.11,0.1,0.27
		s0.15,0.33,0.28,0.5c0.14,0.17,0.37,0.26,0.7,0.29c0.26,0.02,0.41,0.02,0.46,0.02c0.13,0,0.23-0.01,0.32-0.04s0.19-0.07,0.33-0.13
		c0.41-0.18,0.61-0.45,0.6-0.8c0.01-0.23-0.05-0.41-0.19-0.54c-0.13-0.13-0.3-0.21-0.5-0.26s-0.47-0.09-0.82-0.13
		c-0.25-0.02-0.45-0.05-0.6-0.07c-0.15-0.02-0.29-0.06-0.41-0.12c-0.42-0.14-0.73-0.35-0.95-0.64s-0.33-0.61-0.33-0.95
		c0-0.38,0.11-0.72,0.33-1.03s0.52-0.51,0.91-0.61c0.33-0.09,0.75-0.13,1.26-0.13c0.12,0,0.3,0.01,0.54,0.02
		c0.34,0.02,0.66,0.08,0.96,0.18c0.28,0.12,0.51,0.33,0.68,0.62C154.96,32.4,155.04,32.72,155.04,33.08z"/>
	<path d="M156.83,37.52l-0.91-0.01h-0.04c-0.02-0.14-0.04-0.33-0.04-0.55l0.01-0.59c0.01-0.07,0.01-0.16,0.01-0.25
		c0.14-0.06,0.34-0.08,0.58-0.08c0.22,0,0.38,0.02,0.48,0.06c0,0.04-0.01,0.26-0.04,0.65c-0.02,0.39-0.04,0.64-0.04,0.76v0.02
		H156.83z"/>
</g>
</svg>
