<!-- Generator: Adobe Illustrator 23.1.1, SVG Export Plug-In  -->
<svg version="1.1" xmlns="http://www.w3.org/2000/svg" xmlns:xlink="http://www.w3.org/1999/xlink" x="0px" y="0px" width="22.37px"
	 height="10.11px" viewBox="0 0 22.37 10.11" style="enable-background:new 0 0 22.37 10.11;" xml:space="preserve">
<defs>
</defs>
<g>
	<path d="M0,0.03c0.55,0,0.96,0,1.23-0.01L2.53,0C3.9,0,5.02,0.05,5.91,0.15c0.01,0.08,0.01,0.23,0.01,0.43
		c0,0.32-0.02,0.65-0.07,1.01c-0.21-0.04-0.5-0.05-0.87-0.04c-0.3,0.02-0.6,0.03-0.9,0.03H3.72c0.02,0.06,0.02,0.11,0,0.17
		C3.71,1.81,3.71,2.44,3.71,3.64c0,0.29,0,0.53,0.01,0.71c0.03,2.46,0.06,4.27,0.08,5.42V9.8C3.64,9.83,3.38,9.84,3.04,9.84
		c-0.36,0-0.64,0.02-0.83,0.06C2.2,9.86,2.2,9.8,2.21,9.71s0.01-0.19,0.01-0.3V8.55c0.01-0.19,0.01-0.52,0.01-1.01
		c0-0.55,0-0.99-0.01-1.33c-0.02-1.33-0.05-2.84-0.1-4.51V1.65C1.92,1.6,1.4,1.56,0.56,1.54c-0.3,0-0.46,0-0.49-0.01
		C0.04,1.47,0.02,1.29,0.01,0.99C0,0.7,0,0.37,0,0.03z"/>
	<path d="M7.22,2.93c0,0.11,0,0.2,0.01,0.26S7.24,3.32,7.24,3.4C7.3,3.36,7.39,3.32,7.51,3.28C7.63,3.23,7.76,3.18,7.9,3.14
		c0.21-0.07,0.47-0.13,0.78-0.16c0.3-0.03,0.58-0.05,0.82-0.05c0.22,0,0.34,0.01,0.34,0.03L9.81,4.12c0,0.19,0,0.33,0.01,0.42
		c-0.14-0.06-0.3-0.11-0.48-0.15C9.15,4.33,8.92,4.31,8.68,4.31c-0.25,0-0.54,0.04-0.85,0.11C7.56,4.49,7.39,4.59,7.29,4.72
		C7.2,4.85,7.16,5.1,7.17,5.46c0.04,1.28,0.06,2.73,0.06,4.35v0.06C7.07,9.91,6.9,9.93,6.73,9.93c-0.07,0-0.17,0-0.32-0.01
		s-0.29,0-0.44,0.01L5.96,7.52c-0.02-1.1-0.03-1.93-0.03-2.48c0-0.45,0.01-1.16,0.03-2.13c0.09,0.01,0.19,0.01,0.3,0.01
		c0.11,0,0.2-0.01,0.29-0.01C6.66,2.9,6.81,2.9,7,2.9C7.15,2.9,7.22,2.91,7.22,2.93z"/>
	<path d="M11.73,6.34v0.25L11.72,7c0,1.16,0.57,1.74,1.71,1.74c0.46,0,0.79-0.1,1.01-0.31c0.22-0.21,0.33-0.5,0.33-0.86
		c0-0.06-0.01-0.16-0.03-0.31c0.2-0.03,0.38-0.04,0.55-0.04c0.15,0,0.26,0,0.34,0.01c0.06,0,0.12,0,0.2,0.01
		c0.08,0,0.17,0,0.27-0.01c0.01,0.53-0.01,0.96-0.06,1.27C16,8.82,15.89,9.12,15.71,9.41c-0.17,0.25-0.46,0.43-0.88,0.54
		c-0.42,0.11-0.87,0.16-1.36,0.16c-0.22,0-0.43-0.01-0.62-0.03c-0.19-0.02-0.31-0.04-0.36-0.06c-0.73-0.12-1.25-0.58-1.58-1.38
		s-0.47-1.71-0.42-2.74c0.01-0.08,0.02-0.23,0.04-0.47c0.02-0.24,0.04-0.48,0.08-0.73c0.03-0.25,0.1-0.5,0.19-0.74
		c0.18-0.41,0.5-0.73,0.97-0.95c0.47-0.22,0.98-0.34,1.55-0.34c0.3,0,0.61,0.04,0.94,0.11c1.27,0.21,1.9,1.17,1.9,2.87
		c0,0.14-0.01,0.34-0.03,0.6c-0.18,0.06-0.7,0.1-1.57,0.14c-0.1,0.01-0.33,0.01-0.67,0.01c-0.74,0-1.28-0.01-1.64-0.03
		C12.02,6.38,11.84,6.37,11.73,6.34z M15.13,5.29C15.12,5,15.05,4.72,14.92,4.44c-0.13-0.28-0.33-0.5-0.58-0.66
		c-0.14-0.07-0.26-0.11-0.36-0.13c-0.1-0.02-0.23-0.03-0.39-0.03c-0.61,0-1.04,0.13-1.29,0.38s-0.42,0.61-0.48,1.08
		c-0.02,0.11-0.03,0.19-0.03,0.22c0,0.11,0.05,0.19,0.16,0.22c0.11,0.04,0.34,0.06,0.69,0.06c0.35,0,0.64,0,0.88-0.01
		c0.9,0,1.4,0,1.51-0.01c0.05-0.01,0.08-0.02,0.09-0.04c0.01-0.01,0.02-0.04,0.02-0.08V5.29z"/>
	<path d="M17.95,6.34v0.25L17.93,7c0,1.16,0.57,1.74,1.71,1.74c0.46,0,0.79-0.1,1.01-0.31c0.22-0.21,0.33-0.5,0.33-0.86
		c0-0.06-0.01-0.16-0.03-0.31c0.2-0.03,0.38-0.04,0.55-0.04c0.15,0,0.26,0,0.34,0.01c0.06,0,0.12,0,0.2,0.01
		c0.08,0,0.17,0,0.27-0.01c0.01,0.53-0.01,0.96-0.06,1.27c-0.05,0.32-0.16,0.62-0.34,0.91c-0.17,0.25-0.46,0.43-0.88,0.54
		c-0.42,0.11-0.87,0.16-1.36,0.16c-0.22,0-0.43-0.01-0.62-0.03c-0.19-0.02-0.31-0.04-0.36-0.06c-0.73-0.12-1.25-0.58-1.58-1.38
		s-0.47-1.71-0.42-2.74c0.01-0.08,0.02-0.23,0.04-0.47c0.02-0.24,0.04-0.48,0.08-0.73c0.03-0.25,0.1-0.5,0.19-0.74
		c0.18-0.41,0.5-0.73,0.97-0.95c0.47-0.22,0.98-0.34,1.55-0.34c0.3,0,0.61,0.04,0.94,0.11c1.27,0.21,1.9,1.17,1.9,2.87
		c0,0.14-0.01,0.34-0.03,0.6c-0.18,0.06-0.7,0.1-1.57,0.14c-0.1,0.01-0.33,0.01-0.67,0.01c-0.74,0-1.28-0.01-1.64-0.03
		C18.23,6.38,18.06,6.37,17.95,6.34z M21.35,5.29C21.34,5,21.27,4.72,21.13,4.44C21,4.16,20.8,3.94,20.55,3.78
		c-0.14-0.07-0.26-0.11-0.36-0.13c-0.1-0.02-0.23-0.03-0.39-0.03c-0.61,0-1.04,0.13-1.29,0.38s-0.42,0.61-0.48,1.08
		C18,5.19,17.99,5.27,17.99,5.31c0,0.11,0.05,0.19,0.16,0.22c0.11,0.04,0.34,0.06,0.69,0.06c0.35,0,0.64,0,0.88-0.01
		c0.9,0,1.4,0,1.51-0.01c0.05-0.01,0.08-0.02,0.09-0.04c0.01-0.01,0.02-0.04,0.02-0.08V5.29z"/>
</g>
</svg>
