<!-- Generator: Adobe Illustrator 23.1.1, SVG Export Plug-In  -->
<svg version="1.1" xmlns="http://www.w3.org/2000/svg" xmlns:xlink="http://www.w3.org/1999/xlink" x="0px" y="0px" width="10.32px"
	 height="7.34px" viewBox="0 0 10.32 7.34" style="enable-background:new 0 0 10.32 7.34;" xml:space="preserve">
<defs>
</defs>
<g>
	<path d="M0,2.65C0,2.3,0.02,2,0.05,1.75C0.08,1.5,0.16,1.19,0.29,0.81C0.42,0.54,0.67,0.34,1.07,0.2C1.47,0.07,1.91,0,2.39,0
		c0.06,0.01,0.16,0.01,0.28,0.01L3.23,0c0.78,0,1.39,0.21,1.81,0.62c0.17,0.11,0.3,0.32,0.38,0.63c0.09,0.31,0.14,0.72,0.16,1.24
		s0.03,0.82,0.03,0.9C5.58,4.32,5.53,5.06,5.48,5.61C5.43,6.17,5.32,6.52,5.17,6.68C4.99,6.93,4.74,7.1,4.43,7.2
		C4.12,7.29,3.75,7.34,3.32,7.34c-0.17,0-0.42-0.01-0.76-0.03L1.92,7.29C1.37,7.2,0.95,7,0.68,6.69S0.23,6.03,0.15,5.61
		C0.07,5.2,0.03,4.71,0.03,4.13V3.4C0.03,3.06,0.02,2.8,0,2.65z M2.86,1.32c-0.63,0-1.09,0.16-1.37,0.49
		c-0.12,0.15-0.2,0.34-0.23,0.57C1.22,2.6,1.21,2.9,1.22,3.26C1.21,3.4,1.21,3.59,1.22,3.82c0.01,0.23,0.02,0.42,0.02,0.55
		l0.03,0.59C1.3,5.33,1.41,5.59,1.59,5.75C1.77,5.9,2,6.01,2.28,6.06C2.47,6.09,2.66,6.1,2.86,6.1c0.36,0,0.68-0.07,0.95-0.2
		c0.27-0.13,0.44-0.34,0.52-0.64c0.04-0.24,0.06-0.43,0.06-0.57c0.05-0.65,0.07-1.1,0.07-1.33c0-0.62-0.11-1.11-0.34-1.48
		C3.89,1.5,3.47,1.32,2.86,1.32z"/>
	<path d="M7.71,0.24c0,0.11,0,0.2,0.01,0.26s0.01,0.13,0.01,0.22C7.79,0.68,7.88,0.63,8,0.59C8.12,0.54,8.25,0.5,8.39,0.45
		C8.6,0.37,8.86,0.32,9.16,0.29c0.3-0.03,0.58-0.05,0.82-0.05c0.22,0,0.34,0.01,0.34,0.03L10.3,1.43c0,0.19,0,0.33,0.01,0.42
		c-0.14-0.06-0.3-0.11-0.48-0.15C9.64,1.65,9.41,1.62,9.17,1.62c-0.25,0-0.54,0.04-0.85,0.11C8.05,1.8,7.88,1.9,7.78,2.03
		C7.69,2.16,7.65,2.41,7.66,2.77C7.69,4.05,7.71,5.5,7.71,7.13v0.06C7.55,7.22,7.39,7.24,7.22,7.24c-0.07,0-0.17,0-0.32-0.01
		s-0.29,0-0.44,0.01L6.45,4.83C6.43,3.73,6.43,2.9,6.43,2.35c0-0.45,0.01-1.16,0.03-2.13c0.09,0.01,0.19,0.01,0.3,0.01
		c0.11,0,0.2-0.01,0.29-0.01C7.15,0.21,7.3,0.21,7.49,0.21C7.64,0.21,7.71,0.22,7.71,0.24z"/>
</g>
</svg>
