<!-- Generator: Adobe Illustrator 23.1.1, SVG Export Plug-In  -->
<svg version="1.1" xmlns="http://www.w3.org/2000/svg" xmlns:xlink="http://www.w3.org/1999/xlink" x="0px" y="0px" width="124px"
	 height="104px" viewBox="0 0 124 104" style="enable-background:new 0 0 124 104;" xml:space="preserve">
<style type="text/css">
	.st0{fill:#94BB51;}
	.st1{fill:#239E59;}
</style>
<defs>
</defs>
<path class="st0" d="M95,53c0,0,17-10,7-35c0,0-18,11-11,31L95,53z"/>
<path class="st0" d="M110,76c0,0-23-5-32,15c0,0,25,6,35-9L110,76z"/>
<path class="st0" d="M67,36c0,0,16-10-2-36c0,0-16,14-1,36H67z"/>
<path class="st0" d="M76,42c0,0-19-3-28,20c0,0,32,0,31-16L76,42z"/>
<path class="st0" d="M39,30c0,0-8-19-39,1C0,31,33,49,39,30z"/>
<path class="st1" d="M119,104h5c0,0-9-75-101-75C23,29,109,32,119,104z"/>
<path class="st1" d="M94.22,53.74c-0.82-3.55-0.59-7.27,0.17-10.83c0.76-3.56,2.04-6.99,3.31-10.4"/>
<path class="st1" d="M80.41,44.58c-7.52,1.14-14.67,4.65-20.17,9.9"/>
<path class="st1" d="M113.69,79.29c-8.76-0.11-17.53,2.21-25.1,6.63"/>
<path class="st1" d="M66.2,36.48c-2.88-6.72-3.64-14.32-2.16-21.47"/>
</svg>
