<!-- Generator: Adobe Illustrator 23.1.1, SVG Export Plug-In  -->
<svg version="1.1" xmlns="http://www.w3.org/2000/svg" xmlns:xlink="http://www.w3.org/1999/xlink" x="0px" y="0px"
	 width="224.56px" height="411.21px" viewBox="0 0 224.56 411.21" style="enable-background:new 0 0 224.56 411.21;"
	 xml:space="preserve">
<style type="text/css">
	.st0{fill:#A7B93B;}
	.st1{fill:none;stroke:#000000;stroke-width:2;stroke-miterlimit:10;}
</style>
<defs>
</defs>
<path class="st0" d="M114.65,348.23c0.45-0.14,0.43,0.19,0.7,0.24c0.3,0.06,0.58,0,0.87,0.05c0.63,0.11,1.27,0.43,1.89,0.58
	c1.27,0.31,2.64,0.58,3.93,0.7c1.4,0.13,2.83,0.81,4.35,0.92c0.99,0.07,1.85-0.64,2.6-1.24c-0.39,0.09-0.48-0.25-0.81-0.32
	c-0.35-0.08-0.86,0.25-0.94-0.23c0.46-0.1,0.81-0.3,1.22-0.4c0.49-0.12,1.09,0.08,1.6,0.02c0.5-0.06,0.74-0.28,1.24-0.33
	c0.26-0.03,0.51,0.04,0.77-0.02c0.21-0.05,0.24-0.25,0.48-0.3c0.21-0.05,0.45,0.05,0.65,0.02c0.39-0.05,0.4-0.18,0.69-0.25
	c0.46-0.12,0.92-0.11,1.36-0.34c1.48-0.78-0.95-0.47-1.31-0.99c0.43,0.09,1.13-0.46,1.52-0.62c0.32-0.13,0.83-0.21,1.13-0.38
	c0.18-0.11,0.25-0.4,0.43-0.5c0.39-0.22,1.05-0.27,1.5-0.45c0.55-0.22,1.08-0.41,1.58-0.7c0.68-0.4,2.2-1.14,2.5-1.92
	c0.45-1.19-2.34-1.03-2.68-0.41c0.34-0.57,1.51-0.86,2.07-1.12c0.76-0.36,1.49-0.9,2.21-1.34c0.72-0.44,1.47-0.78,2.2-1.26
	c0.37-0.25,0.79-0.56,1.03-0.94c0.19-0.32,0.13-0.8,0.4-1.03c-0.37-0.51-2.85-0.57-3.21-0.05c0.34-0.32,1-0.36,1.46-0.5
	c0.64-0.2,1.3-0.41,1.9-0.71c0.92-0.45,1.78-1.08,2.7-1.53c1-0.49,1.87-0.97,2.82-1.61c0.6-0.41,2.19-0.98,2.3-1.82
	c-0.52-0.15-1.12-0.06-1.67-0.06c-0.91,0-2.43,0.31-3.26-0.06c0.46-0.46,1.27-0.59,1.82-0.88c0.53-0.28,1.04-0.35,1.57-0.63
	c1.04-0.55,2.32-0.84,3.46-1.34c0.59-0.26,1.14-0.32,1.72-0.58c0.69-0.31,1.31-0.68,1.98-0.98c0.9-0.41,2.6-1.34,2.87-2.37
	c-0.84-0.29-1.89,0.2-2.7-0.13c1.53-1.22,3.32-1.82,5-2.68c0.71-0.36,1.28-0.8,1.88-1.27c0.38-0.29,0.82-0.45,1.19-0.77
	c0.33-0.29,0.66-1,1.15-0.87c-0.44-0.74-1.07,0.03-1.67,0c0.5,0.06,0.78-0.47,1.15-0.72c0.47-0.33,0.83-0.64,1.27-1.03
	c0.35-0.31,0.87-0.53,1.19-0.85c0.2-0.21,1.02-1.54,0.98-1.78c-0.48-0.15-0.99,0.08-1.45-0.11c1.38-1.09,2.64-2.25,4-3.33
	c0.54-0.43,1.02-0.87,1.48-1.4c0.52-0.6,0.61-1.33,0.9-2.07c-0.67-0.33-1.81,0.43-2.29,0.91c1.8,0.27,2.02-1.82,2.62-2.93
	c0.46-0.85,1.17-1.44,1.74-2.12c0.3-0.36,1.42-1.22,1.14-1.76c-0.46,0.13-1.21,0.41-1.57,0.69c0.66-0.47,1.17-1.38,1.69-2
	c0.59-0.7,1.29-1.18,1.96-1.8c1.19-1.1,2.28-1.99,2.86-3.56c-1.08-0.54-2.27,0.84-3.05,1.36c-0.36,0.24-1.16,0.54-1.19,1.06
	c0.59,0.31,0.58-0.34,0.75-0.73c0.33-0.77,0.95-1.54,1.42-2.23c0.52-0.76,1.29-1.9,2.03-2.46c0.42-0.32,0.73-0.62,1.13-0.98
	c0.52-0.46,1.2-0.64,1.73-1.1c0.52-0.46,1.37-1.08,1.01-1.85c-0.32,0.24-0.59,0.22-1.01,0.34c-0.65,0.18-1.09,0.67-1.66,0.86
	c0.2-0.45,0.67-0.53,1.03-0.8c0.52-0.41,0.92-0.94,1.4-1.39c0.39-0.36,0.9-0.55,1.26-0.9c0.26-0.25,0.41-0.67,0.61-0.97
	c0.31-0.46,0.62-0.85,0.86-1.32c0.32-0.64,0.57-1.48,1-2.01c-0.85,0.59-1.81,1.01-2.73,1.51c0.48-0.38,0.79-1.14,1.19-1.63
	c0.48-0.6,0.99-1.26,1.42-1.9c0.28-0.41,0.51-0.87,0.85-1.26c0.33-0.38,1.26-0.96,1.16-1.54c-0.62-0.08-1.46,0.74-1.9,1.1
	c0.3-0.17,0.38-0.54,0.5-0.84c0.39-0.95,0.96-1.42,1.58-2.23c0.75-0.97,1.39-2.12,2.08-3.13c0.27-0.4,0.44-0.93,0.8-1.25
	c-0.6,0.02-1.19,0.72-1.74,0.62c-0.23-0.46,0.27-0.72,0.5-1.04c0.74-1.02,1.18-2.24,1.96-3.26c0.91-1.18,1.89-2.27,2.69-3.53
	c0.49-0.78,0.99-1.81,1.76-2.37c-0.39,0.3-0.87,0.36-1.3,0.57c-0.39,0.19-0.83,0.79-1.21,0.83c0.2-0.71,0.6-1.47,0.9-2.14
	c0.45-1.02,0.57-2.12,0.94-3.17c0.54-1.54,1.68-3.28,1.6-4.94c-0.27,1.03-1.39,1-1.94,1.69c-0.05-1.45,1.05-2.72,1.67-3.98
	c0.5-1,0.98-2,1.49-2.99c0.42-0.81,0.91-1.47,1.18-2.36c0.18-0.58,0.35-1.05,0.39-1.64c0.04-0.54,0.41-1.26,0.29-1.73
	c-0.91,0.67-1.82,1.28-2.78,1.88c0.04,0.17,0.13,0.32,0.29,0.42c0.19-0.24,0.45-0.42,0.59-0.68c0.21-0.39,0.27-0.9,0.43-1.32
	c0.32-0.84,0.92-1.59,1.34-2.43c0.47-0.94,0.85-1.83,1.1-2.83c0.14-0.56,0.26-1.08,0.31-1.67c0.04-0.41,0.44-0.93,0.27-1.28
	c-0.4-0.06-1.76,0.45-1.8,0.86c1.23-0.18,2.02-2.62,2.47-3.56c0.21-0.44,0.38-0.86,0.54-1.32c0.1-0.28,0.73-1.36,0.71-1.57
	c-0.13-1.37-2.03,0.96-2.67,0.81c0.46-0.27,0.56-0.7,0.76-1.17c0.47-1.08,1.03-2.12,1.38-3.24c0.2-0.64,1.23-2.13,1.12-2.74
	c-0.55-0.25-0.97,0.58-1.53,0.64c0.07-2.28,2.21-4.06,2.48-6.29c-0.44-0.2-0.83-0.04-1.12,0.29c0.82-2.19,1.92-4.43,2.69-6.57
	c-0.73,0.08-1.72,0.56-2.39,0.91c1.16,0.1,1.83-0.74,2.11-1.72c0.08-0.27,0-0.67,0.06-0.96c0.08-0.37,0.21-0.69,0.24-1.1
	c0.04-0.46,0.53-1.66,0.26-2.1c-0.35,0.11-0.57,0.37-0.86,0.57c1.56-1.37,3.72-3.6,4.24-5.62c0.17-0.67,0.13-1.32,0.41-1.94
	c-0.83-0.05-1.91,0.91-2.52,1.4c0.37-0.2,0.26-0.43,0.34-0.76c0.27-1.13,0.34-2.22,0.33-3.38c-0.01-0.42-0.05-0.85,0.02-1.26
	c0.09-0.59,0.53-1.1,0.56-1.67c-0.57,0.12-1.33,1.19-1.77,1.63c-0.8,0.8-1.6,1.6-2.41,2.4c-0.66,0.19-0.93,0.47-0.81,0.86
	c0.39-0.46,0.28-0.94,0.32-1.47c0.04-0.48,0.17-0.87,0.25-1.33c0.16-0.98,0.38-1.69,0.73-2.62c0.6-1.65,1.38-3.17,2.07-4.82
	c-0.76-0.09-1.29,1.24-2.09,1.23c-0.01-0.34,0.2-1.14,0.28-1.48c0.12-0.52,0.37-0.83,0.64-1.31c0.82-1.43,0.37-2.79,0.83-4.29
	c-0.49,0.26-1.62,1.42-1.43,2.07c1.05-0.38,0.49-2.7,0.58-3.61c0.13-1.32,1.4-2.79,0.9-4.18c-0.3,0.46-0.68,0.99-0.89,1.49
	c-0.79,0.08-0.38-1.22-1.23-1.29c-0.03-0.43,0.27-0.9,0.29-1.38c0.02-0.71-0.11-1.49-0.01-2.19c0.05-0.36,0.52-1.1,0.29-1.39
	c-0.33-0.41-1.15,0.46-1.41,0.63c0.45-0.51,0.69-1.74,0.79-2.4c0.12-0.82,0.52-1.82,0.28-2.64c-0.22,0.03-0.68,0.45-0.88,0.6
	c-0.32,0.23-0.71,0.31-0.64,0.84c0.05-1.42,0.35-2.62,0.63-3.98c0.31-1.49,1.31-2.8,0.9-4.38c-0.6-0.03-1.71,1.08-2.02,1.59
	c0.36-0.36,0.13-1.03,0.21-1.49c0.06-0.37,0.26-0.71,0.3-1.09c0.04-0.3-0.1-0.65-0.03-0.94c0.2-0.89,0.8-1.68,0.97-2.66
	c0.09-0.54,0.14-1.06,0.31-1.58c0.08-0.26,0.61-1.08,0.27-1.36c-0.43-0.36-2.71,0.94-2.73,1.49c0.52-0.04,0.26-1.98,0.26-2.47
	c0-0.75-0.02-1.22-0.31-1.87c-0.17-0.36-0.26-1.58-0.87-1.54c-0.01,0-0.82,0.63-0.87,0.66c-0.24,0.17-0.44,0.49-0.71,0.52
	c-0.29-0.94-0.06-2.33-0.06-3.29c0-0.84-0.06-1.7,0.02-2.54c-0.81,0.65-1.23,1.75-1.79,2.64c0.51-0.73,0.34-2.26,0.55-3.1
	c0.2-0.78,0.27-1.35,0.28-2.17c0-0.72-0.21-1.21-0.33-1.89c-0.05-0.31,0.07-0.64,0.03-0.94c-0.05-0.46-0.29-1.02-0.4-1.49
	c-0.35,0.52-0.8,0.91-1.2,1.38c0.05-0.91,0.02-1.83,0.02-2.74c0-0.85,0.19-1.93-0.05-2.72c-0.6,0.34-0.71,1.09-1.05,1.64
	c-0.28,0.45-0.61,0.79-0.8,1.31c0.05-1.01,0.02-2.04,0.02-3.05c0-0.46,0.07-0.96,0.01-1.41c-0.08-0.57-0.32-0.97-0.33-1.57
	c-0.01-0.46,0.06-0.91-0.07-1.34c-0.05-0.18-0.21-0.3-0.26-0.53c-0.05-0.26,0.07-0.54,0.03-0.8c-0.1-0.57-0.26-1-0.32-1.58
	c-0.05-0.46-0.36-0.75-0.38-1.21c-0.53-0.05-1.08,0.61-1.48,0.88c-0.43,0.29-0.91,0.51-1.26,0.9c-0.33,0.37-0.25,0.56-0.66,0.69
	c0.24-0.47-0.32-1.31-0.32-1.89c0-0.59-0.21-0.75-0.33-1.24c-0.12-0.5,0.15-1.1,0.03-1.6c-0.13-0.55-0.34-0.74-0.33-1.4
	c0.01-1.12,0.59-5.14-0.86-5.47c-0.21,0.36-0.94,1.76-1.28,1.83c-0.22-0.75-0.06-1.72-0.06-2.51c0-0.83-0.05-1.41-0.25-2.18
	c-0.08-0.3-0.06-0.58-0.14-0.87c-0.15-0.07-0.24-0.2-0.26-0.37c0.01-0.22,0.02-0.44,0.03-0.66c-0.12-0.54-0.67-0.92-0.72-1.51
	c-0.29,0.03-0.75,0.56-0.98,0.77c-0.37,0.34-0.94,1.31-1.39,1.49c-0.6,0.23-0.51-0.26-0.74-0.84c-0.25-0.63-0.53-1.28-0.84-1.85
	c-0.2-0.38-0.31-0.77-0.46-1.17c-0.19-0.49-0.46-1.09-0.57-1.56c-0.12-0.53-0.07-0.77-0.3-1.26c-0.22-0.48-0.21-1.09-0.62-1.46
	c-0.59,0.68-1.65,0.87-2.22,1.65c0.03-0.67,0.24-1.15,0.35-1.78c0.09-0.53-0.02-1.19-0.02-1.73c0-1.14,0.15-2.44-0.07-3.55
	c-0.04-0.19-0.26-1.1-0.56-1.2c-0.32-0.11-0.67,0.29-0.94,0.56c-0.26,0.26-2.72,2.44-1.66,2.74c0.16-0.87,0.59-1.5,0.32-2.42
	c-0.15-0.52-0.64-1.14-0.87-1.66c-0.17-0.38-0.27-0.48-0.32-0.92c-0.04-0.31,0.08-0.65,0.02-0.95c-0.08-0.4-0.21-0.9-0.32-1.27
	c-0.1-0.33-0.37-0.5-0.39-0.89c-0.82,0.22-1.25,1.16-1.83,1.73c0.05-0.91,0.01-1.82,0.01-2.73c0-0.76,0.18-2.14-0.31-2.85
	c-0.57-0.83-1.76,1.35-2.46,1.59c-0.35-0.77,0.13-1.84-0.09-2.64c-0.15-0.55-0.56-1.08-0.67-1.72c-0.4,0.02-0.59,0.96-0.87,1.25
	c-0.3,0.31-0.7,0.45-0.97,0.82c0.22-1.01-0.63-2.16-0.87-3.07c-0.16-0.6-0.21-1.12-0.36-1.7c-0.09-0.36-0.51-1.36-0.94-1.44
	c-0.6-0.12-1.31,0.77-1.34,1.26c-0.54,0-0.9-2.04-1.18-2.49c-0.5-0.82-1.13-1.5-1.55-2.36c-0.18-0.36-0.44-0.7-0.59-1.08
	c-0.15-0.37-0.15-1.13-0.41-1.41c-0.42-0.44-0.59,0.02-0.82,0.44c-0.38,0.68-1.56,1.74-1.31,2.54c0.6-0.12,0.27-2.36,0.27-2.86
	c0-0.97-0.14-1.58-0.35-2.49c-0.16-0.68-0.52-1.26-0.83-1.89c-0.24-0.5-0.72-0.99-0.78-1.54c-0.33,0.08-0.71,0.66-0.87,0.95
	c-0.34,0.61-0.69,1.41-0.95,2.07c-0.3-0.63-0.19-1.14-0.36-1.79c-0.17-0.67-0.6-1.61-0.96-2.22c-0.52-0.89-1.06-1.86-1.66-2.67
	c-0.5-0.68-0.68-1.48-1.06-2.24c-0.31-0.61-0.38-1.8-1.22-1.97c-0.48,0.75-0.63,1.45-1.02,2.17c-0.13-0.86-1.08-2.07-1.54-2.71
	c-0.46-0.64-0.68-1.48-0.98-2.17c-0.39-0.9-1.21-3.38-2.45-3.58c-0.01,0.49-0.17,0.83-0.36,1.28c-0.24,0.57-0.34,1.32-0.7,1.82
	c-0.8,0.01-0.89-0.95-1.03-1.52c-0.29-1.18-0.62-2.38-1.04-3.52c-0.08-0.22-0.27-1.07-0.45-1.18c-0.51-0.33-0.72,0.49-1.13,0.55
	c-0.09-0.73-0.36-1.52-0.76-2.17c-0.33-0.53-0.82-1.67-1.42-1.85c-0.54,0.72-0.52,1.68-1.11,2.39c-0.34-0.31-0.18-0.76-0.29-1.16
	c-0.13-0.46-0.54-0.85-0.73-1.26c-0.26-0.55-0.87-2.27-1.67-2.17c-0.05,0.46-0.31,0.86-0.68,1.12c-0.85-0.44-0.72-1.98-1-2.73
	c-0.09-0.23-0.39-0.41-0.52-0.64c-0.09-0.16-0.04-0.39-0.13-0.55c-0.14-0.26-0.54-0.95-0.8-1c-0.36,0.71-0.69,1.47-1.04,2.19
	c-0.28,0.58-0.29,1.22-0.61,1.78c-0.75-0.85-1.3-1.82-1.67-2.89c-0.12-0.37-0.38-0.84-0.46-1.16c-0.12-0.48,0.03-0.99-0.13-1.47
	c-0.56,0.03-0.53,0.82-1.14,0.56c0.09,0.04-0.41-0.98-0.37-0.9c-0.15-0.27-0.34-0.54-0.51-0.81c-0.45-0.74-0.97-1.38-1.39-2.15
	c-0.4-0.73-0.51-0.94-0.68-1.73c-0.78,0.02-0.65,1.11-1.13,1.21c-0.23-1.39-0.56-2.89-1.05-4.22c-0.25-0.69-0.15-1.3-0.35-1.97
	c-0.13-0.46-0.56-0.83-0.87-1.2c-0.34,0.27-0.59,0.97-0.87,1.34c-0.09-0.59-0.61-1.44-0.89-1.94c-0.4-0.71-1.05-1.47-1.13-2.32
	c-0.39,0.09-0.41,0.57-0.63,0.89c-0.92,0.07-1.45-2.29-1.74-2.88c-0.26-0.52-0.31-0.88-0.46-1.43c-0.08-0.27-0.29-1.02-0.56-1.2
	c-0.31,0.32-0.57,0.68-0.63,1.13c-0.15-0.78,0.38-2.25,0.08-2.91c-0.24-0.52-0.33-1.65-0.93-1.76c-0.15,0.26-0.38,0.35-0.66,0.24
	c-0.18-0.51,0-1.05-0.11-1.58c-0.18-0.86-0.46-1.68-0.62-2.55c-0.12-0.7-0.21-2.27-1.14-1.54c-0.66-0.93-0.88-2.08-1.26-3.13
	c-0.31-0.85-0.43-1.43-0.38-2.41c-0.22,0.36-0.28,0.75-0.41,1.14c-0.46-0.11-0.16-0.71-0.22-1.09c-0.04-0.21-0.23-0.39-0.26-0.53
	c-0.05-0.23,0-0.51-0.06-0.72c-0.11-0.4-0.29-0.65-0.33-1.08c-0.05-0.44,0.13-0.83-0.31-1.14c-0.32,0.29-0.44,0.76-0.63,1.13
	c-0.23,0.47-0.53,0.82-0.79,1.25c-0.27,0.44-0.42,1.12-0.93,1.41c-0.74,0.42-0.93-0.13-1.36-0.67c-0.41,1.03,0.09,2.52-0.13,3.61
	c-0.04,0.2-0.24,0.83-0.39,1.02c-0.37,0.5-0.87,0.2-1.38,0.32c-0.19,0.61-0.13,1.52,0.02,2.13c0.11,0.43,0.41,0.83,0.26,1.32
	c-0.31,1-1.17,0.48-1.85,0.33c-0.18,0.7,0.05,1.46-0.04,2.18c-0.04,0.33-0.2,0.46-0.25,0.69c-0.08,0.39-0.02,0.77-0.13,1.16
	c-0.39-0.17-1-0.6-1.46-0.57c-0.18,0.56,0.01,1.21-0.12,1.79c-0.06,0.26-0.21,0.34-0.25,0.69c-0.04,0.32,0,0.56-0.06,0.88
	c-0.03,0.14-0.2,0.53-0.24,0.7c-0.08,0.31,0.05,0.44-0.22,0.72c-0.31,0.31-1.08,0.4-1.37,0.02c0.14,0.58-0.2,0.66-0.31,1.12
	c-0.06,0.25,0.05,0.52-0.01,0.78c-0.05,0.21-0.25,0.24-0.3,0.48c-0.11,0.46,0.12,0.86-0.13,1.29c-0.17,0.29-0.6,0.56-0.81,0.82
	c0.05-0.26,0.05-0.56-0.05-0.8c-0.67,0.11-0.91,1.24-1.16,1.74c-0.15,0.31-0.23,0.61-0.35,0.9c-0.1,0.23-0.36,0.72-0.31,0.98
	c-0.46-0.59-1.23-1.65-1.84-1.99c-0.19,0.64,0.02,1.38-0.12,2.04c-0.15,0.07-0.24,0.2-0.26,0.37c0.01,0.22,0.02,0.44,0.03,0.66
	c-0.07,0.28-0.26,0.47-0.34,0.76c-0.17,0.62-0.15,1.05-0.62,1.58c-0.71,0.8-0.49-0.03-1.18-0.13c-0.37,0.56-0.53,1.25-0.93,1.78
	c-0.45-0.8-1.23-2.5-2.25-2.66c-0.1,0.37-0.03,0.75-0.1,1.14c-0.1,0.51-0.37,1.03-0.5,1.54c-0.11,0.46-0.24,0.87-0.39,1.32
	c-0.06,0.17-0.25,0.65-0.28,0.81c-0.13,0.7,0.32,1.54-0.49,1.72c-1.03,0.23-0.81-0.82-1.35-0.93c-0.04,0.38-0.42,1.26-0.77,1.48
	c-0.68,0.42-1.23-0.4-1.75-0.52c-0.08,0.89-0.87,1.91-1.36,2.6c-0.34,0.47-1.9,2.07-1.93,0.54c-0.38,0.09-0.45,0.86-0.62,1.23
	c-0.31,0.66-0.72,0.8-1.45,0.58c-0.05-0.53-0.61-2.04-1.23-2.11c-0.16,1.03-1.09,2-1.48,2.94c-0.16,0.39-0.39,1.24-0.7,1.51
	c-0.55,0.48-0.7-0.12-1.29-0.15c-0.04-0.19-0.09-0.38-0.12-0.57c-0.5-0.03-0.49,0.8-0.61,1.14c-0.36,1.01-0.79,1.9-1.31,2.85
	c-0.35,0.63-0.65,1.36-1.16,1.87c0.05-0.59-1.16-2.43-1.82-2.38c-0.13,0.8-0.56,1.49-0.93,2.19c-0.25,0.47-0.3,1.08-0.7,1.44
	c-0.39-1.12-1.36-2.19-2.18-2.99c-0.46,0.75-0.88,1.76-1.2,2.55c-0.39,0.96-0.82,1.82-1.27,2.77c-0.33,0.7-0.63,1.37-1.01,2.04
	c-0.38,0.66-1.24,1.52-1.33,2.32c-0.81-0.1-1.86-2.02-2.13-2.68c-0.51,0.39-0.34,1.54-0.47,2.09c-0.17,0.7-0.56,1.34-0.79,2.03
	c-0.25,0.78-0.51,1.42-0.87,2.13c-0.23,0.47-0.07,0.56-0.63,0.49c-0.13-0.02-0.92-0.32-1.03-0.43c-0.19,0.14-0.24,0.28-0.32,0.48
	c-0.15,0.41-0.2,0.81-0.42,1.26c-0.23,0.47-0.34,0.97-0.63,1.41c-0.17,0.25-0.42,0.47-0.46,0.73c0.15,0.07,0.31,0.09,0.48,0.08
	c-0.6,0.09-1.2-0.77-1.71-0.92c-0.38,1.59-1.69,2.79-2.03,4.34c-0.66-0.19-1.43-1.5-1.79-2.08c-1.18,1.42-2.34,3.4-3.15,5.06
	c-0.18,0.38-0.23,0.77-0.39,1.14c-0.14,0.3-0.44,0.52-0.57,0.84c-0.09-0.32-0.54-1.22-0.93-1.35c-0.95-0.29-0.63,2.51-0.63,2.92
	c0.01,0.63,0.24,1.47-0.64,1.37c-0.23-0.02-0.4-0.25-0.61-0.35c-0.26-0.12-0.62-0.15-0.89-0.27c-0.18,0.55-0.02,1.19-0.13,1.78
	c-0.07,0.38-0.22,0.74-0.26,1.12c-0.03,0.32,0.12,0.73,0.03,1.03c-0.3,1.04-1.08-0.08-1.85,0.14c-0.19,0.84-0.16,1.73-0.37,2.56
	c-0.1,0.4-0.32,0.74-0.37,1.17c-0.56,0.06-0.74-0.43-1.12-0.68c-0.3-0.21-0.65-0.36-0.95-0.53c-0.49,0.83-0.67,2.15-0.75,3.1
	c-0.49,0.03-1.05-0.89-1.47-0.57c-0.22,0.17-0.06,0.81-0.05,1.05c0.02,0.66-0.03,1.24-0.16,1.89c-0.09,0.43-0.01,1.47-0.53,1.7
	c-0.34,0.15-1.16-0.4-1.44-0.55c-0.25,0.68-0.09,1.64-0.22,2.34c-0.12,0.63-0.05,1.37-0.2,2c-0.81-0.09-1.2-0.7-1.79-1.17
	c-0.41,1.37,0.22,2.99-0.03,4.39c-0.17,0.91-0.55,0.81-1.28,0.9c-0.4,0.05-0.43-0.08-0.64,0.29c-0.1,0.17-0.2,1.1-0.23,1.27
	c-0.09,0.47-0.02,0.95-0.1,1.42c-0.06,0.37-0.29,0.68-0.34,1.07c-0.28,0.03-0.56,0.06-0.84,0.09c-0.23,0.91-0.08,2.01-0.2,2.95
	c-0.12,0.91,0.05,2.09-0.22,2.96c-0.54-0.27-1.65-1.14-2.15-0.76c-0.53,0.4-0.31,1.65-0.31,2.18c0.01,0.72,0.01,0.92,0.85,0.8
	c-0.67,0-1.39-0.07-2.05,0c-0.24,1.22-0.13,2.63-0.75,3.76c-0.62-0.19-1.1-0.43-1.78-0.28c-0.26,0.83-0.09,1.9-0.2,2.78
	c-0.1,0.85-0.18,1.68-0.16,2.54c-0.41-0.01-0.48,0.04-0.87-0.07c-0.52-0.14-0.47-0.52-0.7,0.23c-0.25,0.78-0.31,1.84-0.32,2.66
	c-0.01,0.58,0.14,1.31-0.05,1.87c-0.52-0.24-1.14-0.8-1.78-0.58c-0.27,0.85-0.07,2.26-0.06,3.11c0.03,1.98,0.53,4.02,0.27,5.98
	c-0.4-0.08-2.1-2.33-2.72-1.84c-0.29,0.22-0.06,1.4-0.05,1.75c0,0.65,0.21,1.88-0.05,2.51c-0.63-0.17-1.09-0.64-1.78-0.8
	c-0.26,0.59,0.25,1.55,0.28,2.15c0.04,0.8,0.21,2.07-0.06,2.83c-0.37-0.05-0.95-0.23-1.23-0.49c0.11,1.04,0.32,2.19,0.35,3.22
	c0.03,0.69-0.01,1.5,0.49,2.04c-0.95-0.4-1.52-1.52-2.33-1.9c-0.12,0.32-0.02,0.58-0.05,0.9c-0.05,0.53-0.31,1-0.35,1.54
	c-0.04,0.58-0.1,1.37,0,1.94c0.06,0.34,0.29,0.6,0.35,0.94c0.05,0.31-0.1,0.65-0.03,0.96c0.05,0.22,0.27,0.28,0.3,0.48
	c0.06,0.35-0.02,0.67,0.08,1.02c0.09,0.02,0.17,0.04,0.26,0.05c-0.67-0.01-1.31,0.18-1.19,0.94c0.04,0.26,0.23,0.5,0.26,0.79
	c0.03,0.26-0.07,0.53-0.03,0.79c0.17,0.97,0.64,2.08,0.27,3.11c-0.14-0.01-1.09-0.67-1.22-0.79c0.13,1.36,0,2.76,0.02,4.13
	c0.01,0.69,0.12,1.36-0.81,1.09c-0.38-0.44-0.81-0.83-1.29-1.16c-0.34-0.25-0.68-0.51-1.03-0.76c-0.29-0.21-0.85-0.78-1.21-0.86
	c-0.2,0.64-0.06,1.49-0.06,2.17c0,0.29,0.04,0.63,0.01,0.92c-0.06,0.75-0.46,1.39-0.59,2.14c-0.21,1.21-0.25,3.05,0.23,4.1
	c-0.37,0.11-0.74,0.08-1.13,0.04c0.43,0.12,0.34,0.34,0.53,0.66c0.18,0.3,0.45,0.6,0.64,0.92c0.32,0.57,0.39,1.44,0.8,1.91
	c-0.53,0.34-0.45,0.48-0.36,1.01c0.09,0.47,0.83,4.75,1.01,4.69c-0.41-0.1-0.88,0.11-1.18-0.25c0.12,1.12,0.64,2.02,1.07,3.03
	c0.18,0.41,0.87,1.41,0.82,1.84c-0.5,0.22-0.8-0.06-1.18-0.24c-0.08,0.75,0.58,2.33,0.89,2.99c0.33,0.71,1.07,1.51,0.95,2.33
	c-0.2-0.05-0.08-0.11-0.27-0.2c-0.44,0.94,0.57,2.22,0.83,3.02c0.23,0.7,0.32,1.41,0.47,2.12c0.1,0.46,0.34,0.84,0.18,1.31
	c-0.92,0.34-0.85-0.46-1.48-0.84c-0.38,1.04,0.22,2.43,0.66,3.39c0.22,0.48,0.13,0.77,0.21,1.25c0.12,0.66,0.53,1.24,0.62,1.91
	c0.11,0.79,0.36,1.27,0.69,1.99c0.57,1.21-0.36,0.61-1.26,0.87c0.09,0.44,0.28,0.88,0.43,1.31c0.37,1.03,0.5,2.01,0.72,3.07
	c0.23,1.15,0.59,2.28,0.88,3.42c0.34,1.3,0.66,3.03,1.31,4.18c0.22,0.39,0.96,1.01,1,1.42c-0.48,0.14-1.07,0.17-1.41-0.23
	c0.48,1.42,1.43,2.78,1.7,4.22c0.11,0.57,0.1,2.82,0.9,3c-0.45-0.04-1-0.1-1.44,0.03c0.38,1.84,0.73,3.53,1.44,5.25
	c-0.55,0.21-1.18-0.06-1.75,0.09c0.06,2,1.64,4.15,2.45,5.87c-0.39,0.08-0.93-0.04-1.1,0.44c-0.07,0.2,0.29,0.7,0.37,0.86
	c0.52,1.07,0.98,2.05,1.43,3.17c0.57,1.41,1.1,2.84,1.83,4.18c-0.17-0.31,0.87,1.11,0.66,1.33c-0.35,0.35-1.1,0.04-1.56,0.19
	c0.01,0.82,0.95,2.05,1.23,2.79c0.2,0.54,0.35,1.1,0.62,1.61c0.18,0.35,0.62,0.76,0.6,1.17c-0.5,0.14-1.02-0.07-1.51,0.11
	c0.14,0.49,0.65,0.89,0.91,1.33c0.32,0.55,0.57,1.11,0.91,1.63c0.22,0.33,0.41,0.75,0.66,1.06c0.27,0.34,0.78,0.74,0.9,1.18
	c-0.44,0.38-0.95,0.76-0.84,1.4c0.14,0.22,0.28,0.45,0.42,0.67c0.96,1.35,1.87,2.72,2.74,4.13c1.74,2.79,3.35,5.65,5.17,8.39
	c-0.64-0.11-1.02,0.26-1.69,0.3c1.09,1.52,2.05,3.28,3.25,4.69c-0.31,0.16-1.02,0.19-1.14,0.48c-0.18,0.4,0.49,1.23,0.67,1.51
	c0.59,0.91,1.11,1.93,1.79,2.77c0.21,0.25,0.59,0.52,0.65,0.83c-0.88,0.17-1.93,0.28-1.16,1.22c0.76,0.92,1.5,1.87,2.3,2.76
	c0.59,0.64,1.72,1.46,2,2.31c-0.49,0.19-1.02-0.04-1.51,0.13c0.1,0.25,0.42,0.49,0.62,0.73c0.54,0.63,1.09,1.26,1.67,1.88
	c0.62,0.66,1.24,1.33,1.86,1.99c0.28,0.23,0.56,0.46,0.83,0.7c0.12,0.29,0.02,0.58-0.05,0.86c-0.08,0.35-0.29,0.19-0.26,0.69
	c0.01,0.34,0.22,0.6,0.41,0.87c0.83,1.17,1.92,2.21,2.95,3.21c0.66,0.64,1.72,1.34,2.21,2.16c-0.18,0.39-0.6,0.19-0.78,0.43
	c-0.51,0.67,0.52,1.47,0.85,1.82c1.23,1.29,2.55,2.54,3.82,3.79c0.7,0.69,0.89,0.66,0.69,1.32c-0.23,0.78-0.7,0.89,0.11,1.47
	c0.97,0.69,1.89,1.41,2.83,2.15c-0.22,0.59-0.63,0.16-0.97,0.41c-0.53,0.4-0.06,0.77,0.24,1.07c1.19,1.16,2.27,2.54,3.5,3.64
	c0.45,0.4,1.22,0.56,1.48,1.13c-0.38-0.48-0.82,0.15-1.26,0.2c0.39,1.11,1.38,2.16,2.23,2.99c0.63,0.61,1,1.45,1.69,1.97
	c-0.28-0.06-0.53,0.07-0.69,0.3c0.2,0.19,0.09,0.34,0.21,0.58c0.35,0.72,0.95,1.37,1.4,2.02c1.45,2.12,2.8,4.34,4.52,6.26
	c0.64,0.68,1.28,1.35,1.92,2.03c0.6,0.34,1.03,0.8,1.3,1.39c-0.41,0.03-0.84-0.01-1.25-0.07c1.62,0.89,3.26,2.42,4.42,3.81
	c0.57,0.68,1.03,1.4,1.78,1.88c0.2,0.13,0.38,0.14,0.55,0.34c-0.26-0.05-0.55-0.06-0.8,0.03c0.01,0.44,0.27,0.77,0.51,1.11
	c0.68,0.95,2.02,2.1,2.99,2.85c0.5,0.39,1.38,0.6,1.96,0.72c0.35,0.07,0.69-0.05,1.04,0.06c0.19,0.06,0.49,0.33,0.7,0.4
	c0.58,0.22,1.08,0.42,1.65,0.7c1.2,0.6,2.46,1.12,3.68,1.65c0.35,0.15,0.76,0.22,1.12,0.35c0.37,0.14,0.73,0.42,1.1,0.53
	c0.33,0.1,0.63,0.1,0.93,0.21c0.51,0.19,1.03,0.49,1.59,0.65c0.72,0.21,1.37,0.26,2.04,0.45c0.59,0.17,1.22,0.4,1.79,0.57
	c0.31,0.09,0.59,0.09,0.87,0.21c0.34,0.14,0.53,0.4,0.93,0.49c1.28,0.29,2.75,0.06,3.96,0.58c0.24,0.1,0.5,0.31,0.75,0.37
	c0.36,0.08,0.75-0.07,1.12,0.01c0.79,0.17,1.56,0.48,2.36,0.62c0.38,0.07,0.85-0.03,1.24-0.02c0.49,0.01,0.83,0.15,1.28,0.25
	c0.89,0.2,1.9,0.07,2.82,0.07c1.68,0,3.39,0.21,4.96-0.39c0.31-0.12,0.59-0.2,0.94-0.31c0.12-0.04,0.2-0.22,0.37-0.26
	c0.25-0.06,0.52,0.05,0.78-0.01C111.55,349.02,114.1,348.4,114.65,348.23z"/>
<path class="st1" d="M118.68,349.18c0.45-0.14,0.43,0.19,0.7,0.24c0.3,0.06,0.58,0,0.87,0.05c0.63,0.11,1.27,0.43,1.89,0.58
	c1.27,0.31,2.64,0.58,3.93,0.7c1.4,0.13,2.83,0.81,4.35,0.92c0.99,0.07,1.85-0.64,2.6-1.24c-0.39,0.09-0.48-0.25-0.81-0.32
	c-0.35-0.08-0.86,0.25-0.94-0.23c0.46-0.1,0.81-0.3,1.22-0.4c0.49-0.12,1.09,0.08,1.6,0.02c0.5-0.06,0.74-0.28,1.24-0.33
	c0.26-0.03,0.51,0.04,0.77-0.02c0.21-0.05,0.24-0.25,0.48-0.3c0.21-0.05,0.45,0.05,0.65,0.02c0.39-0.05,0.4-0.18,0.69-0.25
	c0.46-0.12,0.92-0.11,1.36-0.34c1.48-0.78-0.95-0.47-1.31-0.99c0.43,0.09,1.13-0.46,1.52-0.62c0.32-0.13,0.83-0.21,1.13-0.38
	c0.18-0.11,0.25-0.4,0.43-0.5c0.39-0.22,1.05-0.27,1.5-0.45c0.55-0.22,1.08-0.41,1.58-0.7c0.68-0.4,2.2-1.14,2.5-1.92
	c0.45-1.19-2.34-1.03-2.68-0.41c0.34-0.57,1.51-0.86,2.07-1.12c0.76-0.36,1.49-0.9,2.21-1.34c0.72-0.44,1.47-0.78,2.2-1.26
	c0.37-0.25,0.79-0.56,1.03-0.94c0.19-0.32,0.13-0.8,0.4-1.03c-0.37-0.51-2.85-0.57-3.21-0.05c0.34-0.32,1-0.36,1.46-0.5
	c0.64-0.2,1.3-0.41,1.9-0.71c0.92-0.45,1.78-1.08,2.7-1.53c1-0.49,1.87-0.97,2.82-1.61c0.6-0.41,2.19-0.98,2.3-1.82
	c-0.52-0.15-1.12-0.06-1.67-0.06c-0.91,0-2.43,0.31-3.26-0.06c0.46-0.46,1.27-0.59,1.82-0.88c0.53-0.28,1.04-0.35,1.57-0.63
	c1.04-0.55,2.32-0.84,3.46-1.34c0.59-0.26,1.14-0.32,1.72-0.58c0.69-0.31,1.31-0.68,1.98-0.98c0.9-0.41,2.6-1.34,2.87-2.37
	c-0.84-0.29-1.89,0.2-2.7-0.13c1.53-1.22,3.32-1.82,5-2.68c0.71-0.36,1.28-0.8,1.88-1.27c0.38-0.29,0.82-0.45,1.19-0.77
	c0.33-0.29,0.66-1,1.15-0.87c-0.44-0.74-1.07,0.03-1.67,0c0.5,0.06,0.78-0.47,1.15-0.72c0.47-0.33,0.83-0.64,1.27-1.03
	c0.35-0.31,0.87-0.53,1.19-0.85c0.2-0.21,1.02-1.54,0.98-1.78c-0.48-0.15-0.99,0.08-1.45-0.11c1.38-1.09,2.64-2.25,4-3.33
	c0.54-0.43,1.02-0.87,1.48-1.4c0.52-0.6,0.61-1.33,0.9-2.07c-0.67-0.33-1.81,0.43-2.29,0.91c1.8,0.27,2.02-1.82,2.62-2.93
	c0.46-0.85,1.17-1.44,1.74-2.12c0.3-0.36,1.42-1.22,1.14-1.76c-0.46,0.13-1.21,0.41-1.57,0.69c0.66-0.47,1.17-1.38,1.69-2
	c0.59-0.7,1.29-1.18,1.96-1.8c1.19-1.1,2.28-1.99,2.86-3.56c-1.08-0.54-2.27,0.84-3.05,1.36c-0.36,0.24-1.16,0.54-1.19,1.06
	c0.59,0.31,0.58-0.34,0.75-0.73c0.33-0.77,0.95-1.54,1.42-2.23c0.52-0.76,1.29-1.9,2.03-2.46c0.42-0.32,0.73-0.62,1.13-0.98
	c0.52-0.46,1.2-0.64,1.73-1.1c0.52-0.46,1.37-1.08,1.01-1.85c-0.32,0.24-0.59,0.22-1.01,0.34c-0.65,0.18-1.09,0.67-1.66,0.86
	c0.2-0.45,0.67-0.53,1.03-0.8c0.52-0.41,0.92-0.94,1.4-1.39c0.39-0.36,0.9-0.55,1.26-0.9c0.26-0.25,0.41-0.67,0.61-0.97
	c0.31-0.46,0.62-0.85,0.86-1.32c0.32-0.64,0.57-1.48,1-2.01c-0.85,0.59-1.81,1.01-2.73,1.51c0.48-0.38,0.79-1.14,1.19-1.63
	c0.48-0.6,0.99-1.26,1.42-1.9c0.28-0.41,0.51-0.87,0.85-1.26c0.33-0.38,1.26-0.96,1.16-1.54c-0.62-0.08-1.46,0.74-1.9,1.1
	c0.3-0.17,0.38-0.54,0.5-0.84c0.39-0.95,0.96-1.42,1.58-2.23c0.75-0.97,1.39-2.12,2.08-3.13c0.27-0.4,0.44-0.93,0.8-1.25
	c-0.6,0.02-1.19,0.72-1.74,0.62c-0.23-0.46,0.27-0.72,0.5-1.04c0.74-1.02,1.18-2.24,1.96-3.26c0.91-1.18,1.89-2.27,2.69-3.53
	c0.49-0.78,0.99-1.81,1.76-2.37c-0.39,0.3-0.87,0.36-1.3,0.57c-0.39,0.19-0.83,0.79-1.21,0.83c0.2-0.71,0.6-1.47,0.9-2.14
	c0.45-1.02,0.57-2.12,0.94-3.17c0.54-1.54,1.68-3.28,1.6-4.94c-0.27,1.03-1.39,1-1.94,1.69c-0.05-1.45,1.05-2.72,1.67-3.98
	c0.5-1,0.98-2,1.49-2.99c0.42-0.81,0.91-1.47,1.18-2.36c0.18-0.58,0.35-1.05,0.39-1.64c0.04-0.54,0.41-1.26,0.29-1.73
	c-0.91,0.67-1.82,1.28-2.78,1.88c0.04,0.17,0.13,0.32,0.29,0.42c0.19-0.24,0.45-0.42,0.59-0.68c0.21-0.39,0.27-0.9,0.43-1.32
	c0.32-0.84,0.92-1.59,1.34-2.43c0.47-0.94,0.85-1.83,1.1-2.83c0.14-0.56,0.26-1.08,0.31-1.67c0.04-0.41,0.44-0.93,0.27-1.28
	c-0.4-0.06-1.76,0.45-1.8,0.86c1.23-0.18,2.02-2.62,2.47-3.56c0.21-0.44,0.38-0.86,0.54-1.32c0.1-0.28,0.73-1.36,0.71-1.57
	c-0.13-1.37-2.03,0.96-2.67,0.81c0.46-0.27,0.56-0.7,0.76-1.17c0.47-1.08,1.03-2.12,1.38-3.24c0.2-0.64,1.23-2.13,1.12-2.74
	c-0.55-0.25-0.97,0.58-1.53,0.64c0.07-2.28,2.21-4.06,2.48-6.29c-0.44-0.2-0.83-0.04-1.12,0.29c0.82-2.19,1.92-4.43,2.69-6.57
	c-0.73,0.08-1.72,0.56-2.39,0.91c1.16,0.1,1.83-0.74,2.11-1.72c0.08-0.27,0-0.67,0.06-0.96c0.08-0.37,0.21-0.69,0.24-1.1
	c0.04-0.46,0.53-1.66,0.26-2.1c-0.35,0.11-0.57,0.37-0.86,0.57c1.56-1.37,3.72-3.6,4.24-5.62c0.17-0.67,0.13-1.32,0.41-1.94
	c-0.83-0.05-1.91,0.91-2.52,1.4c0.37-0.2,0.26-0.43,0.34-0.76c0.27-1.13,0.34-2.22,0.33-3.38c-0.01-0.42-0.05-0.85,0.02-1.26
	c0.09-0.59,0.53-1.1,0.56-1.67c-0.57,0.12-1.33,1.19-1.77,1.63c-0.8,0.8-1.6,1.6-2.41,2.4c-0.66,0.19-0.93,0.47-0.81,0.86
	c0.39-0.46,0.28-0.94,0.32-1.47c0.04-0.48,0.17-0.87,0.25-1.33c0.16-0.98,0.38-1.69,0.73-2.62c0.6-1.65,1.38-3.17,2.07-4.82
	c-0.76-0.09-1.29,1.24-2.09,1.23c-0.01-0.34,0.2-1.14,0.28-1.48c0.12-0.52,0.37-0.83,0.64-1.31c0.82-1.43,0.37-2.79,0.83-4.29
	c-0.49,0.26-1.62,1.42-1.43,2.07c1.05-0.38,0.49-2.7,0.58-3.61c0.13-1.32,1.4-2.79,0.9-4.18c-0.3,0.46-0.68,0.99-0.89,1.49
	c-0.79,0.08-0.38-1.22-1.23-1.29c-0.03-0.43,0.27-0.9,0.29-1.38c0.02-0.71-0.11-1.49-0.01-2.19c0.05-0.36,0.52-1.1,0.29-1.39
	c-0.33-0.41-1.15,0.46-1.41,0.63c0.45-0.51,0.69-1.74,0.79-2.4c0.12-0.82,0.52-1.82,0.28-2.64c-0.22,0.03-0.68,0.45-0.88,0.6
	c-0.32,0.23-0.71,0.31-0.64,0.84c0.05-1.42,0.35-2.62,0.63-3.98c0.31-1.49,1.31-2.8,0.9-4.38c-0.6-0.03-1.71,1.08-2.02,1.59
	c0.36-0.36,0.13-1.03,0.21-1.49c0.06-0.37,0.26-0.71,0.3-1.09c0.04-0.3-0.1-0.65-0.03-0.94c0.2-0.89,0.8-1.68,0.97-2.66
	c0.09-0.54,0.14-1.06,0.31-1.58c0.08-0.26,0.61-1.08,0.27-1.36c-0.43-0.36-2.71,0.94-2.73,1.49c0.52-0.04,0.26-1.98,0.26-2.47
	c0-0.75-0.02-1.22-0.31-1.87c-0.17-0.36-0.26-1.58-0.87-1.54c-0.01,0-0.82,0.63-0.87,0.66c-0.24,0.17-0.44,0.49-0.71,0.52
	c-0.29-0.94-0.06-2.33-0.06-3.29c0-0.84-0.06-1.7,0.02-2.54c-0.81,0.65-1.23,1.75-1.79,2.64c0.51-0.73,0.34-2.26,0.55-3.1
	c0.2-0.78,0.27-1.35,0.28-2.17c0-0.72-0.21-1.21-0.33-1.89c-0.05-0.31,0.07-0.64,0.03-0.94c-0.05-0.46-0.29-1.02-0.4-1.49
	c-0.35,0.52-0.8,0.91-1.2,1.38c0.05-0.91,0.02-1.83,0.02-2.74c0-0.85,0.19-1.93-0.05-2.72c-0.6,0.34-0.71,1.09-1.05,1.64
	c-0.28,0.45-0.61,0.79-0.8,1.31c0.05-1.01,0.02-2.04,0.02-3.05c0-0.46,0.07-0.96,0.01-1.41c-0.08-0.57-0.32-0.97-0.33-1.57
	c-0.01-0.46,0.06-0.91-0.07-1.34c-0.05-0.18-0.21-0.3-0.26-0.53c-0.05-0.26,0.07-0.54,0.03-0.8c-0.1-0.57-0.26-1-0.32-1.58
	c-0.05-0.46-0.36-0.75-0.38-1.21c-0.53-0.05-1.08,0.61-1.48,0.88c-0.43,0.29-0.91,0.51-1.26,0.9c-0.33,0.37-0.25,0.56-0.66,0.69
	c0.24-0.47-0.32-1.31-0.32-1.89c0-0.59-0.21-0.75-0.33-1.24c-0.12-0.5,0.15-1.1,0.03-1.6c-0.13-0.55-0.34-0.74-0.33-1.4
	c0.01-1.12,0.59-5.14-0.86-5.47c-0.21,0.36-0.94,1.76-1.28,1.83c-0.22-0.75-0.06-1.72-0.06-2.51c0-0.83-0.05-1.41-0.25-2.18
	c-0.08-0.3-0.06-0.58-0.14-0.87c-0.15-0.07-0.24-0.2-0.26-0.37c0.01-0.22,0.02-0.44,0.03-0.66c-0.12-0.54-0.67-0.92-0.72-1.51
	c-0.29,0.03-0.75,0.56-0.98,0.77c-0.37,0.34-0.94,1.31-1.39,1.49c-0.6,0.23-0.51-0.26-0.74-0.84c-0.25-0.63-0.53-1.28-0.84-1.85
	c-0.2-0.38-0.31-0.77-0.46-1.17c-0.19-0.49-0.46-1.09-0.57-1.56c-0.12-0.53-0.07-0.77-0.3-1.26c-0.22-0.48-0.21-1.09-0.62-1.46
	c-0.59,0.68-1.65,0.87-2.22,1.65c0.03-0.67,0.24-1.15,0.35-1.78c0.09-0.53-0.02-1.19-0.02-1.73c0-1.14,0.15-2.44-0.07-3.55
	c-0.04-0.19-0.26-1.1-0.56-1.2c-0.32-0.11-0.67,0.29-0.94,0.56c-0.26,0.26-2.72,2.44-1.66,2.74c0.16-0.87,0.59-1.5,0.32-2.42
	c-0.15-0.52-0.64-1.14-0.87-1.66c-0.17-0.38-0.27-0.48-0.32-0.92c-0.04-0.31,0.08-0.65,0.02-0.95c-0.08-0.4-0.21-0.9-0.32-1.27
	c-0.1-0.33-0.37-0.5-0.39-0.89c-0.82,0.22-1.25,1.16-1.83,1.73c0.05-0.91,0.01-1.82,0.01-2.73c0-0.76,0.18-2.14-0.31-2.85
	c-0.57-0.83-1.76,1.35-2.46,1.59c-0.35-0.77,0.13-1.84-0.09-2.64c-0.15-0.55-0.56-1.08-0.67-1.72c-0.4,0.02-0.59,0.96-0.87,1.25
	c-0.3,0.31-0.7,0.45-0.97,0.82c0.22-1.01-0.63-2.16-0.87-3.07c-0.16-0.6-0.21-1.12-0.36-1.7c-0.09-0.36-0.51-1.36-0.94-1.44
	c-0.6-0.12-1.31,0.77-1.34,1.26c-0.54,0-0.9-2.04-1.18-2.49c-0.5-0.82-1.13-1.5-1.55-2.36c-0.18-0.36-0.44-0.7-0.59-1.08
	c-0.15-0.37-0.15-1.13-0.41-1.41c-0.42-0.44-0.59,0.02-0.82,0.44c-0.38,0.68-1.56,1.74-1.31,2.54c0.6-0.12,0.27-2.36,0.27-2.86
	c0-0.97-0.14-1.58-0.35-2.49c-0.16-0.68-0.52-1.26-0.83-1.89c-0.24-0.5-0.72-0.99-0.78-1.54c-0.33,0.08-0.71,0.66-0.87,0.95
	c-0.34,0.61-0.69,1.41-0.95,2.07c-0.3-0.63-0.2-1.14-0.36-1.79c-0.17-0.67-0.6-1.61-0.96-2.22c-0.52-0.89-1.06-1.86-1.66-2.67
	c-0.5-0.68-0.68-1.48-1.06-2.24c-0.31-0.61-0.38-1.8-1.22-1.97c-0.48,0.75-0.63,1.45-1.02,2.17c-0.13-0.86-1.08-2.07-1.54-2.71
	c-0.46-0.64-0.68-1.48-0.98-2.17c-0.39-0.9-1.21-3.38-2.45-3.58c-0.01,0.49-0.17,0.83-0.36,1.28c-0.24,0.57-0.34,1.32-0.7,1.82
	c-0.8,0.01-0.89-0.95-1.03-1.52c-0.29-1.18-0.62-2.38-1.04-3.52c-0.08-0.22-0.27-1.07-0.45-1.18c-0.51-0.33-0.72,0.49-1.13,0.55
	c-0.09-0.73-0.36-1.52-0.76-2.17c-0.33-0.53-0.82-1.67-1.42-1.85c-0.54,0.72-0.52,1.68-1.11,2.39c-0.34-0.31-0.18-0.76-0.29-1.16
	c-0.13-0.46-0.54-0.85-0.73-1.26c-0.26-0.55-0.87-2.27-1.67-2.17c-0.05,0.46-0.31,0.86-0.68,1.12c-0.85-0.44-0.72-1.98-1-2.73
	c-0.09-0.23-0.39-0.41-0.52-0.64c-0.09-0.16-0.04-0.39-0.13-0.55c-0.14-0.26-0.54-0.95-0.8-1c-0.36,0.71-0.69,1.47-1.04,2.19
	c-0.28,0.58-0.29,1.22-0.61,1.78c-0.75-0.85-1.3-1.82-1.67-2.89c-0.12-0.37-0.38-0.84-0.46-1.16c-0.12-0.48,0.03-0.99-0.13-1.47
	c-0.56,0.03-0.53,0.82-1.14,0.56c0.09,0.04-0.41-0.98-0.37-0.9c-0.15-0.27-0.34-0.54-0.51-0.81c-0.45-0.74-0.97-1.38-1.39-2.15
	c-0.4-0.73-0.51-0.94-0.68-1.73c-0.78,0.02-0.65,1.11-1.13,1.21c-0.23-1.39-0.56-2.89-1.05-4.22c-0.25-0.69-0.15-1.3-0.35-1.97
	c-0.13-0.46-0.56-0.83-0.87-1.2c-0.34,0.27-0.59,0.97-0.87,1.34c-0.09-0.59-0.61-1.44-0.89-1.94c-0.4-0.71-1.05-1.47-1.13-2.32
	c-0.39,0.09-0.41,0.57-0.63,0.89c-0.92,0.07-1.45-2.29-1.74-2.88c-0.26-0.52-0.31-0.88-0.46-1.43c-0.08-0.27-0.29-1.02-0.56-1.2
	c-0.31,0.32-0.57,0.68-0.63,1.13c-0.15-0.78,0.38-2.25,0.08-2.91c-0.24-0.52-0.33-1.65-0.93-1.76c-0.15,0.26-0.38,0.35-0.66,0.24
	c-0.18-0.51,0-1.05-0.11-1.58c-0.18-0.86-0.46-1.68-0.62-2.55c-0.12-0.7-0.21-2.27-1.14-1.54c-0.66-0.93-0.88-2.08-1.26-3.13
	c-0.31-0.85-0.43-1.43-0.38-2.41c-0.22,0.36-0.28,0.75-0.41,1.14c-0.46-0.11-0.16-0.71-0.22-1.09c-0.04-0.21-0.23-0.39-0.26-0.53
	c-0.05-0.23,0-0.51-0.06-0.72c-0.11-0.4-0.29-0.65-0.33-1.08c-0.05-0.44,0.13-0.83-0.31-1.14c-0.32,0.29-0.44,0.76-0.63,1.13
	c-0.23,0.47-0.53,0.82-0.79,1.25c-0.27,0.44-0.42,1.12-0.93,1.41c-0.74,0.42-0.93-0.13-1.36-0.67c-0.41,1.03,0.09,2.52-0.13,3.61
	c-0.04,0.2-0.24,0.83-0.39,1.02c-0.37,0.5-0.87,0.2-1.38,0.32c-0.19,0.61-0.13,1.52,0.02,2.13c0.11,0.43,0.41,0.83,0.26,1.32
	c-0.31,1-1.17,0.48-1.85,0.33c-0.18,0.7,0.05,1.46-0.04,2.18c-0.04,0.33-0.2,0.46-0.25,0.69c-0.08,0.39-0.02,0.77-0.13,1.16
	c-0.39-0.17-1-0.6-1.46-0.57c-0.18,0.56,0.01,1.21-0.12,1.79c-0.06,0.26-0.21,0.34-0.25,0.69c-0.04,0.32,0,0.56-0.06,0.88
	c-0.03,0.14-0.2,0.53-0.24,0.7c-0.08,0.31,0.05,0.44-0.22,0.72c-0.31,0.31-1.08,0.4-1.37,0.02c0.14,0.58-0.2,0.66-0.31,1.12
	c-0.06,0.25,0.05,0.52-0.01,0.78c-0.05,0.21-0.25,0.24-0.3,0.48c-0.11,0.46,0.12,0.86-0.13,1.29c-0.17,0.29-0.6,0.56-0.81,0.82
	c0.05-0.26,0.05-0.56-0.05-0.8c-0.67,0.11-0.91,1.24-1.16,1.74c-0.15,0.31-0.23,0.61-0.35,0.9c-0.1,0.23-0.36,0.72-0.31,0.98
	c-0.46-0.59-1.23-1.65-1.84-1.99c-0.19,0.64,0.02,1.38-0.12,2.04c-0.15,0.07-0.24,0.2-0.26,0.37c0.01,0.22,0.02,0.44,0.03,0.66
	c-0.07,0.28-0.26,0.47-0.34,0.76c-0.17,0.62-0.15,1.05-0.62,1.58c-0.71,0.8-0.49-0.03-1.18-0.13c-0.37,0.56-0.53,1.25-0.93,1.78
	c-0.45-0.8-1.23-2.5-2.25-2.66c-0.1,0.37-0.03,0.75-0.1,1.14c-0.1,0.51-0.37,1.03-0.5,1.54c-0.11,0.46-0.24,0.87-0.39,1.32
	c-0.06,0.17-0.25,0.65-0.28,0.81c-0.13,0.7,0.32,1.54-0.49,1.72c-1.03,0.23-0.81-0.82-1.35-0.93c-0.04,0.38-0.42,1.26-0.77,1.48
	c-0.68,0.42-1.23-0.4-1.75-0.52c-0.08,0.89-0.87,1.91-1.36,2.6c-0.34,0.47-1.9,2.07-1.93,0.54c-0.38,0.09-0.45,0.86-0.62,1.23
	c-0.31,0.66-0.72,0.8-1.45,0.58c-0.05-0.53-0.61-2.04-1.23-2.11c-0.16,1.03-1.09,2-1.48,2.94c-0.16,0.39-0.39,1.24-0.7,1.51
	c-0.55,0.48-0.7-0.12-1.29-0.15c-0.04-0.19-0.09-0.38-0.12-0.57c-0.5-0.03-0.49,0.8-0.61,1.14c-0.36,1.01-0.79,1.9-1.31,2.85
	c-0.35,0.63-0.65,1.36-1.16,1.87c0.05-0.59-1.16-2.43-1.82-2.38c-0.13,0.8-0.56,1.49-0.93,2.19c-0.25,0.47-0.3,1.08-0.7,1.44
	c-0.39-1.12-1.36-2.19-2.18-2.99c-0.46,0.75-0.88,1.76-1.2,2.55c-0.39,0.96-0.82,1.82-1.27,2.77c-0.33,0.7-0.63,1.37-1.01,2.04
	c-0.38,0.66-1.24,1.52-1.33,2.32c-0.81-0.1-1.86-2.02-2.13-2.68c-0.51,0.39-0.34,1.54-0.47,2.09c-0.17,0.7-0.56,1.34-0.79,2.03
	c-0.25,0.78-0.51,1.42-0.87,2.13c-0.23,0.47-0.07,0.56-0.63,0.49c-0.13-0.02-0.92-0.32-1.03-0.43c-0.19,0.14-0.24,0.28-0.32,0.48
	c-0.15,0.41-0.2,0.81-0.42,1.26c-0.23,0.47-0.34,0.97-0.63,1.41c-0.17,0.25-0.42,0.47-0.46,0.73c0.15,0.07,0.31,0.09,0.48,0.08
	c-0.6,0.09-1.2-0.77-1.71-0.92c-0.38,1.59-1.69,2.79-2.03,4.34c-0.66-0.19-1.43-1.5-1.79-2.08c-1.18,1.42-2.34,3.4-3.15,5.06
	c-0.18,0.38-0.23,0.77-0.39,1.14c-0.14,0.3-0.44,0.52-0.57,0.84c-0.09-0.32-0.54-1.22-0.93-1.35c-0.95-0.29-0.63,2.51-0.63,2.92
	c0.01,0.63,0.24,1.47-0.64,1.37c-0.23-0.02-0.4-0.25-0.61-0.35c-0.26-0.12-0.62-0.15-0.89-0.27c-0.18,0.55-0.02,1.19-0.13,1.78
	c-0.07,0.38-0.22,0.74-0.26,1.12c-0.03,0.32,0.12,0.73,0.03,1.03c-0.3,1.04-1.08-0.08-1.85,0.14c-0.19,0.84-0.16,1.73-0.37,2.56
	c-0.1,0.4-0.32,0.74-0.37,1.17c-0.56,0.06-0.74-0.43-1.12-0.68c-0.3-0.21-0.65-0.36-0.95-0.53c-0.49,0.83-0.67,2.15-0.75,3.1
	c-0.49,0.03-1.05-0.89-1.47-0.57c-0.22,0.17-0.06,0.81-0.05,1.05c0.02,0.66-0.03,1.24-0.16,1.89c-0.09,0.43-0.01,1.47-0.53,1.7
	c-0.34,0.15-1.16-0.4-1.44-0.55c-0.25,0.68-0.09,1.64-0.22,2.34c-0.12,0.63-0.05,1.37-0.2,2c-0.81-0.09-1.2-0.7-1.79-1.17
	c-0.41,1.37,0.22,2.99-0.03,4.39c-0.17,0.91-0.55,0.81-1.28,0.9c-0.4,0.05-0.43-0.08-0.64,0.29c-0.1,0.17-0.2,1.1-0.23,1.27
	c-0.09,0.47-0.02,0.95-0.1,1.42c-0.06,0.37-0.29,0.68-0.34,1.07c-0.28,0.03-0.56,0.06-0.84,0.09c-0.23,0.91-0.08,2.01-0.2,2.95
	c-0.12,0.91,0.05,2.09-0.22,2.96c-0.54-0.27-1.65-1.14-2.15-0.76c-0.53,0.4-0.31,1.65-0.31,2.18c0.01,0.72,0.01,0.92,0.85,0.8
	c-0.67,0-1.39-0.07-2.05,0c-0.24,1.22-0.13,2.63-0.75,3.76c-0.62-0.19-1.1-0.43-1.78-0.28c-0.26,0.83-0.09,1.9-0.2,2.78
	c-0.1,0.85-0.18,1.68-0.16,2.54c-0.41-0.01-0.48,0.04-0.87-0.07c-0.52-0.14-0.47-0.52-0.7,0.23c-0.25,0.78-0.31,1.84-0.32,2.66
	c-0.01,0.58,0.14,1.31-0.05,1.87c-0.52-0.24-1.14-0.8-1.78-0.58c-0.27,0.85-0.07,2.26-0.06,3.11c0.03,1.98,0.53,4.02,0.27,5.98
	c-0.4-0.08-2.1-2.33-2.72-1.84c-0.29,0.22-0.06,1.4-0.05,1.75c0,0.65,0.21,1.88-0.05,2.51c-0.63-0.17-1.09-0.64-1.78-0.8
	c-0.26,0.59,0.25,1.55,0.28,2.15c0.04,0.8,0.21,2.07-0.06,2.83c-0.37-0.05-0.95-0.23-1.23-0.49c0.11,1.04,0.32,2.19,0.35,3.22
	c0.03,0.69-0.01,1.5,0.49,2.04c-0.95-0.4-1.52-1.52-2.33-1.9c-0.12,0.32-0.02,0.58-0.05,0.9c-0.05,0.53-0.31,1-0.35,1.54
	c-0.04,0.58-0.1,1.37,0,1.94c0.06,0.34,0.29,0.6,0.35,0.94c0.05,0.31-0.1,0.65-0.03,0.96c0.05,0.22,0.27,0.28,0.3,0.48
	c0.06,0.35-0.02,0.67,0.08,1.02c0.09,0.02,0.17,0.04,0.26,0.05c-0.67-0.01-1.31,0.18-1.19,0.94c0.04,0.26,0.23,0.5,0.26,0.79
	c0.03,0.26-0.07,0.53-0.03,0.79c0.17,0.97,0.64,2.08,0.27,3.11c-0.14-0.01-1.09-0.67-1.22-0.79c0.13,1.36,0,2.76,0.02,4.13
	c0.01,0.69,0.12,1.36-0.81,1.09c-0.38-0.44-0.81-0.83-1.29-1.16c-0.34-0.25-0.68-0.51-1.03-0.76c-0.29-0.21-0.85-0.78-1.21-0.86
	c-0.2,0.64-0.06,1.49-0.06,2.17c0,0.29,0.04,0.63,0.01,0.92c-0.06,0.75-0.46,1.39-0.59,2.14c-0.21,1.21-0.25,3.05,0.23,4.1
	c-0.37,0.11-0.74,0.08-1.13,0.04c0.43,0.12,0.34,0.34,0.53,0.66c0.18,0.3,0.45,0.6,0.64,0.92c0.32,0.57,0.39,1.44,0.8,1.91
	c-0.53,0.34-0.45,0.48-0.36,1.01c0.09,0.47,0.83,4.75,1.01,4.69c-0.41-0.1-0.88,0.11-1.18-0.25c0.12,1.12,0.64,2.02,1.07,3.03
	c0.18,0.41,0.87,1.41,0.82,1.84c-0.5,0.22-0.8-0.06-1.18-0.24c-0.08,0.75,0.58,2.33,0.89,2.99c0.33,0.71,1.07,1.51,0.95,2.33
	c-0.2-0.05-0.08-0.11-0.27-0.2c-0.44,0.94,0.57,2.22,0.83,3.02c0.23,0.7,0.32,1.41,0.47,2.12c0.1,0.46,0.34,0.84,0.18,1.31
	c-0.92,0.34-0.85-0.46-1.48-0.84c-0.38,1.04,0.22,2.43,0.66,3.39c0.22,0.48,0.13,0.77,0.21,1.25c0.12,0.66,0.53,1.24,0.62,1.91
	c0.11,0.79,0.36,1.27,0.69,1.99c0.57,1.21-0.36,0.61-1.26,0.87c0.09,0.44,0.28,0.88,0.43,1.31c0.37,1.03,0.5,2.01,0.72,3.07
	c0.23,1.15,0.59,2.28,0.88,3.42c0.34,1.3,0.66,3.03,1.31,4.18c0.22,0.39,0.96,1.01,1,1.42c-0.48,0.14-1.07,0.17-1.41-0.23
	c0.48,1.42,1.43,2.78,1.7,4.22c0.11,0.57,0.1,2.82,0.9,3c-0.45-0.04-1-0.1-1.44,0.03c0.38,1.84,0.73,3.53,1.44,5.25
	c-0.55,0.21-1.18-0.06-1.75,0.09c0.06,2,1.64,4.15,2.45,5.87c-0.39,0.08-0.93-0.04-1.1,0.44c-0.07,0.2,0.29,0.7,0.37,0.86
	c0.52,1.07,0.98,2.05,1.43,3.17c0.57,1.41,1.1,2.84,1.83,4.18c-0.17-0.31,0.87,1.11,0.66,1.33c-0.35,0.35-1.1,0.04-1.56,0.19
	c0.01,0.82,0.95,2.05,1.23,2.79c0.2,0.54,0.35,1.1,0.62,1.61c0.18,0.35,0.62,0.76,0.6,1.17c-0.5,0.14-1.02-0.07-1.51,0.11
	c0.14,0.49,0.65,0.89,0.91,1.33c0.32,0.55,0.57,1.11,0.91,1.63c0.22,0.33,0.41,0.75,0.66,1.06c0.27,0.34,0.78,0.74,0.9,1.18
	c-0.44,0.38-0.95,0.76-0.84,1.4c0.14,0.22,0.28,0.45,0.42,0.67c0.96,1.35,1.87,2.72,2.74,4.13c1.74,2.79,3.35,5.65,5.17,8.39
	c-0.64-0.11-1.02,0.26-1.69,0.3c1.09,1.52,2.05,3.28,3.25,4.69c-0.31,0.16-1.02,0.19-1.14,0.48c-0.18,0.4,0.49,1.23,0.67,1.51
	c0.59,0.91,1.11,1.93,1.79,2.77c0.21,0.25,0.59,0.52,0.65,0.83c-0.88,0.17-1.93,0.28-1.16,1.22c0.76,0.92,1.5,1.87,2.3,2.76
	c0.59,0.64,1.72,1.46,2,2.31c-0.49,0.19-1.02-0.04-1.51,0.13c0.1,0.25,0.42,0.49,0.62,0.73c0.54,0.63,1.09,1.26,1.67,1.88
	c0.62,0.66,1.24,1.33,1.86,1.99c0.28,0.23,0.56,0.46,0.83,0.7c0.12,0.29,0.02,0.58-0.05,0.86c-0.08,0.35-0.29,0.19-0.26,0.69
	c0.01,0.34,0.22,0.6,0.41,0.87c0.83,1.17,1.92,2.21,2.95,3.21c0.66,0.64,1.72,1.34,2.21,2.16c-0.18,0.39-0.6,0.19-0.78,0.43
	c-0.51,0.67,0.52,1.47,0.85,1.82c1.23,1.29,2.55,2.54,3.82,3.79c0.7,0.69,0.89,0.66,0.69,1.32c-0.23,0.78-0.7,0.89,0.11,1.47
	c0.97,0.69,1.89,1.41,2.83,2.15c-0.22,0.59-0.63,0.16-0.97,0.41c-0.53,0.4-0.06,0.77,0.24,1.07c1.19,1.16,2.27,2.54,3.5,3.64
	c0.45,0.4,1.22,0.56,1.48,1.13c-0.38-0.48-0.82,0.15-1.26,0.2c0.39,1.11,1.38,2.16,2.23,2.99c0.63,0.61,1,1.45,1.69,1.97
	c-0.28-0.06-0.53,0.07-0.69,0.3c0.2,0.19,0.09,0.34,0.21,0.58c0.35,0.72,0.95,1.37,1.4,2.02c1.45,2.12,2.8,4.34,4.52,6.26
	c0.64,0.68,1.28,1.35,1.92,2.03c0.6,0.34,1.03,0.8,1.3,1.39c-0.41,0.03-0.84-0.01-1.25-0.07c1.62,0.89,3.26,2.42,4.42,3.81
	c0.57,0.68,1.03,1.4,1.78,1.88c0.2,0.13,0.38,0.14,0.55,0.34c-0.26-0.05-0.55-0.06-0.8,0.03c0.01,0.44,0.27,0.77,0.51,1.11
	c0.68,0.95,2.02,2.1,2.99,2.85c0.5,0.39,1.38,0.6,1.96,0.72c0.35,0.07,0.69-0.05,1.04,0.06c0.19,0.06,0.49,0.33,0.7,0.4
	c0.58,0.22,1.08,0.42,1.65,0.7c1.2,0.6,2.46,1.12,3.68,1.65c0.35,0.15,0.76,0.22,1.12,0.35c0.37,0.14,0.73,0.42,1.1,0.53
	c0.33,0.1,0.63,0.1,0.93,0.21c0.51,0.19,1.03,0.49,1.59,0.65c0.72,0.21,1.37,0.26,2.04,0.45c0.59,0.17,1.22,0.4,1.79,0.57
	c0.31,0.09,0.59,0.09,0.87,0.21c0.34,0.14,0.53,0.4,0.93,0.49c1.28,0.29,2.75,0.06,3.96,0.58c0.24,0.1,0.5,0.31,0.75,0.37
	c0.36,0.08,0.75-0.07,1.12,0.01c0.79,0.17,1.56,0.48,2.36,0.62c0.38,0.07,0.85-0.03,1.24-0.02c0.49,0.01,0.83,0.15,1.28,0.25
	c0.89,0.2,1.9,0.07,2.82,0.07c1.68,0,3.39,0.21,4.96-0.39c0.31-0.12,0.59-0.2,0.94-0.31c0.12-0.04,0.2-0.22,0.37-0.26
	c0.25-0.06,0.52,0.05,0.78-0.01C115.58,349.97,118.13,349.35,118.68,349.18z"/>
<path d="M107.63,403.63c0,0,3.49,14.96,4.42,2.84c0.49-6.38,2.45-23.4,1.47-59.56c-0.98-36.16-3.93-332.55,0.49-338.22
	c0,0-7.59,265.71-4.01,319.71c0.65,9.84,0.78,19.74,0.46,29.62C109.86,376.55,108.84,401.02,107.63,403.63z"/>
<g>
	<g>
		<path d="M112.96,301.31c8.64-2.54,17.34-4.97,25.93-7.62c8.58-2.67,17.04-5.78,24.89-10.11c7.85-4.29,14.91-10.18,19.92-17.64
			c4.98-7.51,7.7-16.24,10.37-24.82c-2.51,8.62-5.06,17.4-9.95,25.09c-4.92,7.63-11.98,13.75-19.84,18.24
			c-7.86,4.54-16.36,7.83-24.93,10.67c-8.59,2.82-17.21,5.4-25.81,8.11L112.96,301.31z"/>
	</g>
	<g>
		<path d="M111.78,272.36l14.91-5.83c4.97-1.96,9.96-3.85,14.85-5.92c4.89-2.07,9.7-4.34,14.21-7.11c4.51-2.76,8.69-6.06,12.53-9.72
			c7.71-7.32,14.16-15.88,20.63-24.35c3.2-4.25,6.29-8.63,8.58-13.44c2.29-4.77,3.68-10.14,3-15.47c0.76,5.32-0.55,10.74-2.77,15.58
			c-2.23,4.87-5.26,9.32-8.4,13.63c-6.34,8.57-12.66,17.25-20.34,24.77c-3.83,3.75-8.02,7.18-12.57,10.06
			c-4.55,2.89-9.38,5.26-14.28,7.42c-4.9,2.16-9.86,4.13-14.8,6.17l-14.81,6.07L111.78,272.36z"/>
	</g>
	<g>
		<path d="M110.78,224.03c15.87-6.75,31.79-13.53,46.31-22.82c7.24-4.64,14.11-9.91,20.26-15.94c6.15-6.03,11.58-12.84,15.78-20.39
			c-4.06,7.63-9.37,14.57-15.43,20.74c-6.06,6.18-12.87,11.62-20.07,16.42c-14.44,9.63-30.32,16.76-46.06,23.82L110.78,224.03z"/>
	</g>
	<g>
		<path d="M110.6,176.02c8.63-3.44,17.16-7.14,25.3-11.6c8.12-4.45,15.86-9.68,22.61-16.04c6.73-6.35,12.37-13.92,16.26-22.35
			c3.88-8.41,5.91-17.8,5.06-27.11c1.02,9.29-0.84,18.77-4.6,27.31c-3.76,8.57-9.32,16.32-16.02,22.87
			c-6.71,6.55-14.45,11.99-22.57,16.62c-8.14,4.64-16.67,8.53-25.27,12.14L110.6,176.02z"/>
	</g>
	<g>
		<path d="M110.93,123.29c5.2-1.26,10.03-3.83,14.5-6.91c4.49-3.08,8.67-6.64,12.96-10.08c2.15-1.72,4.32-3.42,6.58-5
			c2.25-1.6,4.6-3.03,6.8-4.64c2.2-1.61,4.29-3.42,5.86-5.66c1.57-2.22,2.66-4.86,2.65-7.63c0.1,2.76-0.92,5.47-2.44,7.77
			c-1.52,2.32-3.59,4.22-5.76,5.92c-2.18,1.7-4.48,3.2-6.66,4.85c-2.19,1.64-4.3,3.39-6.38,5.17c-4.17,3.56-8.26,7.26-12.73,10.53
			c-4.46,3.27-9.39,6.12-14.87,7.62L110.93,123.29z"/>
	</g>
	<g>
		<path d="M111.56,87.88c4.09-1.31,8.12-2.88,12.02-4.7c3.88-1.82,7.6-4.02,10.58-7.09c2.96-3.12,5.87-6.38,8.75-9.61
			c2.87-3.25,5.67-6.56,8.32-10.01c-2.51,3.54-5.19,6.97-7.94,10.33c-2.77,3.36-5.51,6.69-8.41,9.98c-2.96,3.3-6.76,5.74-10.64,7.75
			c-3.89,2-7.91,3.75-12.03,5.25L111.56,87.88z"/>
	</g>
	<g>
		<path d="M112.18,59.53c4.07-1.67,8.01-3.68,11.54-6.32c3.53-2.63,6.58-5.95,8.83-9.8c-1.96,4.01-4.79,7.62-8.2,10.58
			c-3.41,2.98-7.31,5.35-11.34,7.36L112.18,59.53z"/>
	</g>
	<g>
		<path d="M110.34,326.95l-17.9-9.11c-5.94-3.07-12.02-5.94-17.71-9.59c-5.7-3.61-10.73-8.28-14.76-13.66
			c-4.07-5.36-7.28-11.3-9.92-17.45c2.8,6.08,6.15,11.93,10.32,17.14c4.14,5.24,9.19,9.7,14.9,13.12
			c5.69,3.45,11.81,6.17,17.84,9.09l18.12,8.66L110.34,326.95z"/>
	</g>
	<g>
		<path d="M109.43,298.26l-24.79-11.49l-12.4-5.75c-4.11-1.94-8.32-3.74-12.3-6.04c-1.99-1.15-3.91-2.44-5.69-3.91
			c-1.78-1.47-3.42-3.07-4.98-4.74c-3.12-3.35-5.97-6.93-8.57-10.69c-5.16-7.54-9.21-15.82-11.95-24.5
			c2.9,8.63,7.09,16.82,12.36,24.22c2.65,3.69,5.55,7.2,8.7,10.46c1.58,1.63,3.23,3.18,4.99,4.58c1.76,1.4,3.66,2.62,5.63,3.72
			c3.95,2.19,8.17,3.9,12.33,5.77l12.5,5.52l25,11.04L109.43,298.26z"/>
	</g>
	<g>
		<path d="M110.76,265.09c-4.51-3.09-9.14-5.99-13.89-8.7c-4.74-2.72-9.63-5.17-14.56-7.59c-4.92-2.44-9.88-4.88-14.55-7.83
			c-4.73-2.86-9.16-6.19-13.32-9.81c-2.12-1.77-4.06-3.73-6.04-5.65l-2.83-3.01c-0.96-0.99-1.8-2.08-2.71-3.12
			c-3.52-4.23-6.8-8.68-9.6-13.42c-2.81-4.73-5.34-9.63-7.39-14.74c-2.04-5.11-3.69-10.36-4.94-15.71
			c1.33,5.33,3.06,10.55,5.17,15.61c2.12,5.06,4.71,9.91,7.58,14.57c2.85,4.68,6.19,9.05,9.74,13.2c0.92,1.02,1.77,2.09,2.73,3.06
			l2.85,2.95c1.99,1.87,3.95,3.79,6.07,5.51c4.17,3.53,8.61,6.74,13.32,9.5c4.66,2.85,9.61,5.18,14.56,7.55
			c4.96,2.34,9.94,4.74,14.76,7.41c4.83,2.66,9.55,5.52,14.15,8.57L110.76,265.09z"/>
	</g>
	<g>
		<path d="M109.65,217.04c-2.44-4.28-6.15-7.75-10.26-10.62c-4.11-2.89-8.62-5.26-13.1-7.7c-9.02-4.84-17.65-10.41-25.76-16.64
			c-2.03-1.56-4.02-3.16-5.99-4.8c-1.96-1.64-3.91-3.3-5.75-5.1c-1.84-1.79-3.55-3.73-5-5.87c-1.44-2.13-2.62-4.43-3.63-6.78
			c-4.01-9.43-5.86-19.72-5.49-29.92c-0.21,10.2,1.82,20.43,5.94,29.72c1.04,2.32,2.24,4.56,3.69,6.63c1.45,2.07,3.16,3.94,5,5.68
			c1.84,1.74,3.8,3.36,5.78,4.96c1.98,1.6,3.99,3.16,6.03,4.67c8.17,6.06,16.83,11.44,25.87,16.11c4.51,2.35,9.1,4.67,13.39,7.58
			c4.27,2.89,8.27,6.48,10.99,11.05L109.65,217.04z"/>
	</g>
	<g>
		<path d="M110.31,159.49c-0.94-1.66-2.28-3.15-3.77-4.5c-1.49-1.35-3.12-2.56-4.82-3.66c-1.69-1.1-3.54-2.08-5.31-3.19
			c-1.78-1.08-3.53-2.22-5.26-3.36c-6.92-4.63-13.46-9.75-19.92-14.95l-4.83-3.91c-1.61-1.31-3.22-2.64-4.72-4.09
			c-1.51-1.44-2.91-3.02-4.07-4.77c-1.17-1.75-2.01-3.7-2.65-5.68c-1.27-3.97-1.96-8.07-3.53-11.9c-1.51-3.85-3.53-7.5-6.01-10.82
			c2.54,3.27,4.65,6.89,6.24,10.72c1.66,3.82,2.44,7.95,3.77,11.84c0.67,1.94,1.53,3.81,2.7,5.49c1.16,1.68,2.56,3.19,4.07,4.58
			c1.51,1.39,3.12,2.68,4.75,3.95l4.91,3.81c6.55,5.06,13.17,10.03,20.12,14.48c1.74,1.1,3.49,2.19,5.27,3.22
			c1.76,1.06,3.6,1.98,5.41,3.11c1.79,1.12,3.52,2.35,5.13,3.75c1.6,1.41,3.11,2.99,4.25,4.92L110.31,159.49z"/>
	</g>
	<g>
		<path d="M111.1,114.4c-3.1-0.74-6.02-2.07-8.66-3.76c-2.63-1.72-4.99-3.76-7.19-5.93c-4.37-4.39-8.1-9.24-12.02-13.91l-5.83-7.08
			c-1.91-2.39-3.77-4.85-5.28-7.54c-3.09-5.33-4.28-11.72-3.29-17.75c-0.82,6.06,0.55,12.34,3.73,17.5
			c1.55,2.61,3.46,4.99,5.42,7.31L84,90.15c4.05,4.57,7.92,9.32,12.3,13.48c2.2,2.06,4.54,3.96,7.08,5.52
			c2.54,1.54,5.29,2.69,8.16,3.29L111.1,114.4z"/>
	</g>
	<g>
		<path d="M111.2,81.02c-1.36-1.35-2.91-2.48-4.62-3.39c-1.7-0.93-3.57-1.65-5.42-2.51c-1.85-0.87-3.65-1.94-5.23-3.28
			c-1.57-1.38-2.91-2.81-4.34-4.25c-2.81-2.88-5.49-5.93-7.7-9.31c-2.2-3.38-3.8-7.19-4.3-11.18c0.65,3.97,2.39,7.67,4.68,10.93
			c2.3,3.26,5.07,6.16,7.96,8.91l2.19,2.05c0.74,0.69,1.47,1.35,2.23,1.94c1.54,1.19,3.26,2.11,5.08,2.86
			c1.82,0.76,3.74,1.39,5.61,2.3c1.87,0.89,3.66,2.06,5.21,3.48L111.2,81.02z"/>
	</g>
	<g>
		<path d="M111.78,63.96c-9.84-3.51-17.43-12.03-19.85-21.83c3.06,9.62,11.09,17.28,20.46,19.93L111.78,63.96z"/>
	</g>
</g>
</svg>
