<!-- Generator: Adobe Illustrator 23.1.1, SVG Export Plug-In  -->
<svg version="1.1" xmlns="http://www.w3.org/2000/svg" xmlns:xlink="http://www.w3.org/1999/xlink" x="0px" y="0px"
	 width="744.27px" height="737.65px" viewBox="0 0 744.27 737.65" style="enable-background:new 0 0 744.27 737.65;"
	 xml:space="preserve">
<style type="text/css">
	.st0{fill:#FFFFFF;}
</style>
<defs>
</defs>
<g>
	<ellipse class="st0" cx="372.92" cy="369.23" rx="371" ry="365.5"/>
	<path d="M744.27,369.23c0.02,24.13-2.38,48.26-7.09,71.93c-4.65,23.69-11.78,46.88-21,69.21c-9.26,22.32-20.74,43.73-34.21,63.85
		c-13.47,20.11-29,38.87-46.18,55.97c-17.19,17.09-36.04,32.57-56.31,45.95l-7.67,4.91c-2.56,1.63-5.09,3.32-7.75,4.78l-7.9,4.54
		c-2.64,1.51-5.25,3.07-7.98,4.39l-8.12,4.12l-4.06,2.06c-1.34,0.71-2.76,1.27-4.14,1.91l-8.32,3.73l-4.16,1.86
		c-1.38,0.64-2.82,1.13-4.23,1.7c-44.99,18.44-93.67,27.66-142.24,27.49c-48.58-0.31-97.04-9.99-141.82-28.54
		c-22.39-9.26-43.86-20.69-64.01-34.08c-20.18-13.35-39.05-28.65-56.3-45.59c-34.55-33.83-62.42-74.46-81.4-118.95l-3.4-8.41
		l-1.7-4.2c-0.57-1.4-1.15-2.8-1.61-4.24l-2.97-8.57l-1.49-4.29l-0.74-2.14c-0.24-0.72-0.43-1.45-0.65-2.17l-2.56-8.7l-1.28-4.35
		l-0.64-2.18c-0.21-0.73-0.36-1.47-0.55-2.2l-2.12-8.82l-1.06-4.41c-0.36-1.47-0.72-2.94-0.97-4.43c-4.94-23.7-7.48-47.9-7.65-72.13
		c-0.29-48.46,9.08-97.07,27.89-141.89c9.35-22.42,21.03-43.87,34.68-63.99c13.65-20.12,29.37-38.83,46.71-55.87
		c34.69-34.09,76.1-61.33,121.18-79.71C275.53,9.33,324.25,0.03,372.92,0c48.67,0.16,97.36,9.5,142.35,28.04
		c45.03,18.4,86.25,45.9,120.59,80.16c17.18,17.12,32.69,35.89,46.16,56.01c13.46,20.12,24.94,41.54,34.21,63.87
		C734.78,272.72,744.33,320.97,744.27,369.23z M743.57,369.23c-0.08-24.08-2.49-48.16-7.36-71.73
		c-4.91-23.56-12.14-46.64-21.73-68.69c-19.06-44.16-47.23-84.2-81.83-117.33c-17.29-16.58-36.21-31.41-56.3-44.38l-7.62-4.73
		c-2.54-1.57-5.05-3.21-7.69-4.61l-7.83-4.36c-2.61-1.45-5.2-2.95-7.9-4.22l-8.02-4l-4.01-2c-1.32-0.69-2.72-1.23-4.08-1.85
		l-8.2-3.61l-4.1-1.8c-1.36-0.62-2.78-1.09-4.16-1.64c-22.18-8.85-45.18-15.62-68.63-20.12c-23.44-4.5-47.32-6.72-71.19-6.7
		c-23.87,0.07-47.73,2.3-71.16,6.85c-23.43,4.53-46.41,11.34-68.55,20.23c-44.29,17.8-85.07,44.33-119.32,77.65
		c-17.13,16.65-32.63,34.98-46.2,54.66c-13.57,19.68-25.16,40.72-34.62,62.68c-9.44,21.97-16.69,44.9-21.6,68.33
		c-4.91,23.44-7.45,47.38-7.63,71.36c-0.23,47.95,9.03,96.04,27.74,140.32c9.28,22.16,20.9,43.34,34.43,63.2
		c13.54,19.86,29.17,38.28,46.37,55.06c17.23,16.75,36.13,31.77,56.29,44.81c20.18,13,41.62,24.03,63.9,32.88
		c22.28,8.85,45.41,15.53,68.95,19.92c23.54,4.41,47.48,6.48,71.41,6.41c23.93-0.11,47.81-2.53,71.28-7.06
		c23.46-4.57,46.47-11.41,68.65-20.31c1.39-0.56,2.81-1.03,4.16-1.65l4.1-1.81l8.2-3.63c1.36-0.62,2.75-1.16,4.08-1.86l4.01-2.01
		l8.01-4.02c2.7-1.28,5.29-2.78,7.9-4.23l7.83-4.37c2.64-1.4,5.14-3.05,7.69-4.62l7.61-4.75c20.07-13.01,38.99-27.85,56.28-44.44
		c34.58-33.16,62.75-73.21,81.81-117.38c9.59-22.05,16.81-45.14,21.71-68.7C741.11,417.39,743.5,393.31,743.57,369.23z"/>
</g>
</svg>
