<!-- Generator: Adobe Illustrator 23.1.1, SVG Export Plug-In  -->
<svg version="1.1" xmlns="http://www.w3.org/2000/svg" xmlns:xlink="http://www.w3.org/1999/xlink" x="0px" y="0px"
	 width="167.66px" height="11.2px" viewBox="0 0 167.66 11.2" style="enable-background:new 0 0 167.66 11.2;" xml:space="preserve"
	>
<defs>
</defs>
<g>
	<path d="M3.31,0.26C4.1,3.74,4.73,6.56,5.2,8.71v0.01C5.03,8.76,4.86,8.77,4.68,8.77c-0.09,0-0.18-0.01-0.28-0.02
		C4.28,8.73,4.18,8.72,4.13,8.7H4.12C4.06,8.54,3.98,8.26,3.89,7.87C3.77,7.4,3.66,7.01,3.56,6.71C3.2,6.69,2.71,6.68,2.11,6.68
		h-0.5c0,0.01-0.03,0.17-0.08,0.49c-0.07,0.44-0.14,0.8-0.2,1.09C1.26,8.55,1.18,8.7,1.1,8.71C1.09,8.72,1.05,8.72,0.98,8.72
		c-0.06,0-0.16,0-0.32-0.01c-0.16-0.01-0.33-0.01-0.53,0H0V8.7c0.02-0.05,0.06-0.26,0.11-0.64c0.2-1.26,0.43-2.55,0.7-3.85
		c0.27-1.3,0.63-2.6,1.07-3.89C1.93,0.32,2,0.31,2.08,0.31h0.26C2.65,0.31,2.98,0.3,3.31,0.26z M2.22,5.75c0.51,0,0.97,0,1.37-0.01
		c-0.45-2.52-0.72-3.82-0.8-3.91C2.71,1.8,2.65,1.79,2.6,1.79c-0.1,0-0.18,0.08-0.24,0.23C2.3,2.18,2.21,2.53,2.1,3.07
		C1.99,3.62,1.86,4.3,1.7,5.14L1.6,5.74h0.24C2,5.74,2.12,5.74,2.22,5.75z"/>
	<path d="M6.68,2.76c0,0.1,0,0.17,0.01,0.22c0,0.05,0.01,0.11,0.01,0.19C6.75,3.14,6.83,3.1,6.93,3.06s0.21-0.08,0.33-0.12
		C7.44,2.88,7.67,2.83,7.93,2.8c0.26-0.03,0.49-0.04,0.7-0.04c0.19,0,0.29,0.01,0.29,0.02l-0.01,1c0,0.16,0,0.28,0.01,0.36
		C8.8,4.09,8.66,4.05,8.51,4.01C8.33,3.97,8.14,3.95,7.93,3.95c-0.22,0-0.46,0.03-0.73,0.1C6.98,4.1,6.82,4.18,6.74,4.3
		C6.66,4.41,6.63,4.62,6.64,4.93c0.03,1.1,0.05,2.34,0.05,3.73v0.05C6.55,8.74,6.41,8.76,6.26,8.76c-0.06,0-0.15,0-0.27-0.01
		c-0.12,0-0.25,0-0.38,0.01L5.6,6.7C5.59,5.75,5.58,5.04,5.58,4.57c0-0.38,0.01-0.99,0.02-1.82c0.08,0.01,0.17,0.01,0.26,0.01
		c0.09,0,0.17-0.01,0.25-0.01c0.1-0.01,0.22-0.01,0.38-0.01C6.62,2.74,6.68,2.74,6.68,2.76z"/>
	<path d="M10.55,5.69V5.9l-0.01,0.35c0,0.99,0.49,1.49,1.46,1.49c0.39,0,0.68-0.09,0.87-0.27c0.19-0.18,0.28-0.43,0.28-0.74
		c0-0.05-0.01-0.14-0.02-0.26c0.17-0.02,0.32-0.04,0.47-0.04c0.13,0,0.22,0,0.29,0.01c0.05,0,0.11,0,0.17,0.01
		c0.07,0,0.15,0,0.23-0.01c0.01,0.46-0.01,0.82-0.05,1.09s-0.14,0.53-0.29,0.78c-0.14,0.22-0.39,0.37-0.75,0.46
		c-0.36,0.09-0.75,0.14-1.17,0.14c-0.19,0-0.37-0.01-0.53-0.02s-0.27-0.03-0.31-0.05c-0.62-0.1-1.08-0.5-1.36-1.18
		C9.56,6.98,9.44,6.2,9.48,5.32c0.01-0.06,0.02-0.2,0.04-0.4c0.02-0.2,0.04-0.41,0.07-0.63c0.03-0.22,0.08-0.43,0.16-0.64
		c0.15-0.35,0.43-0.62,0.83-0.82c0.4-0.19,0.84-0.29,1.33-0.29c0.26,0,0.52,0.03,0.8,0.1c1.09,0.18,1.63,1,1.63,2.46
		c0,0.12-0.01,0.29-0.02,0.52c-0.15,0.05-0.6,0.09-1.34,0.12c-0.09,0.01-0.28,0.01-0.58,0.01c-0.63,0-1.1-0.01-1.4-0.02
		C10.79,5.72,10.64,5.71,10.55,5.69z M13.46,4.79c-0.01-0.25-0.07-0.49-0.19-0.73c-0.12-0.24-0.28-0.43-0.5-0.56
		c-0.12-0.06-0.22-0.09-0.31-0.11c-0.09-0.02-0.2-0.02-0.34-0.02c-0.52,0-0.89,0.11-1.11,0.32s-0.36,0.52-0.41,0.92
		c-0.02,0.1-0.02,0.16-0.02,0.19c0,0.1,0.05,0.16,0.14,0.19c0.09,0.03,0.29,0.05,0.59,0.05c0.3,0,0.55,0,0.76-0.01
		c0.77,0,1.2,0,1.3-0.01c0.04-0.01,0.07-0.02,0.08-0.03c0.01-0.01,0.02-0.03,0.02-0.07V4.79z"/>
	<path d="M19.27,0.5v1.84l0.01,0.67C19.8,3,20.45,2.97,21.22,2.93c0.05,0.06,0.07,0.18,0.07,0.36l-0.01,0.28
		c-0.02,0.18-0.02,0.3-0.01,0.38c-0.87,0-1.52,0-1.96-0.01v1.84v0.41c0,0.36,0.01,0.62,0.02,0.77s0.05,0.28,0.1,0.4
		c0.13,0.16,0.39,0.26,0.77,0.3c0.39,0.04,0.74,0.05,1.06,0.04C21.3,8,21.32,8.2,21.32,8.29c0,0.14-0.02,0.29-0.06,0.43
		c-0.17,0.01-0.43,0.01-0.79,0.01c-0.62,0-1.11-0.08-1.46-0.23c-0.35-0.15-0.58-0.46-0.67-0.91c-0.09-0.78-0.13-1.79-0.13-3.04V3.98
		C18.16,3.99,18.04,4,17.84,4l-0.91-0.01L16.97,3c0.18,0.02,0.6,0.02,1.26,0.02l-0.01-1.26V1.2c0-0.34,0.01-0.57,0.02-0.71
		c0.11-0.01,0.28,0,0.52,0.01l0.32,0.01C19.17,0.52,19.23,0.51,19.27,0.5z"/>
	<path d="M22.94,2.29v1.07c0.22-0.18,0.41-0.32,0.57-0.41c0.16-0.09,0.41-0.15,0.73-0.17c0.19-0.02,0.37-0.04,0.54-0.04
		c0.58,0,1.04,0.14,1.37,0.42c0.1,0.09,0.18,0.3,0.22,0.62s0.06,0.76,0.06,1.3c0,0.3-0.01,0.78-0.02,1.44
		c-0.02,0.64-0.02,1.1-0.02,1.37c0,0.22,0.01,0.5,0.02,0.82c-0.32,0.05-0.66,0.06-1.03,0.05c-0.02-0.24-0.02-0.45-0.02-0.62V7.4
		V5.05c-0.02-0.51-0.14-0.84-0.36-1c-0.05-0.03-0.14-0.06-0.29-0.1c-0.17-0.05-0.34-0.07-0.52-0.07c-0.31,0-0.58,0.08-0.8,0.23
		c-0.22,0.16-0.36,0.4-0.43,0.73c-0.06,0.3-0.08,0.67-0.08,1.09l0.01,0.41c0.02,0.53,0.02,0.96,0.02,1.31c0,0.43-0.01,0.76-0.02,1
		V8.7c-0.16,0.04-0.29,0.06-0.38,0.06l-0.36-0.01c-0.11,0-0.2,0-0.28,0.01c0-0.92,0-1.68-0.01-2.28l-0.01-3.67
		c0-0.9,0.01-1.82,0.02-2.76c0.25,0.02,0.45,0.03,0.6,0.02c0.04,0,0.09,0,0.15-0.01c0.06-0.01,0.12-0.01,0.19-0.01
		c0.08,0,0.12,0.01,0.12,0.04c0.02,0.07,0.02,0.56,0.02,1.46V2.29z"/>
	<path d="M28.13,5.69V5.9l-0.01,0.35c0,0.99,0.49,1.49,1.46,1.49c0.39,0,0.68-0.09,0.87-0.27c0.19-0.18,0.28-0.43,0.28-0.74
		c0-0.05-0.01-0.14-0.02-0.26c0.17-0.02,0.32-0.04,0.47-0.04c0.13,0,0.22,0,0.29,0.01c0.05,0,0.11,0,0.17,0.01
		c0.07,0,0.15,0,0.23-0.01c0.01,0.46-0.01,0.82-0.05,1.09s-0.14,0.53-0.29,0.78c-0.14,0.22-0.39,0.37-0.75,0.46
		c-0.36,0.09-0.75,0.14-1.17,0.14c-0.19,0-0.37-0.01-0.53-0.02s-0.27-0.03-0.31-0.05c-0.62-0.1-1.08-0.5-1.36-1.18
		c-0.28-0.68-0.4-1.47-0.36-2.35c0.01-0.06,0.02-0.2,0.04-0.4c0.02-0.2,0.04-0.41,0.07-0.63c0.03-0.22,0.08-0.43,0.16-0.64
		c0.15-0.35,0.43-0.62,0.83-0.82c0.4-0.19,0.84-0.29,1.33-0.29c0.26,0,0.52,0.03,0.8,0.1c1.09,0.18,1.63,1,1.63,2.46
		c0,0.12-0.01,0.29-0.02,0.52c-0.15,0.05-0.6,0.09-1.34,0.12c-0.09,0.01-0.28,0.01-0.58,0.01c-0.63,0-1.1-0.01-1.4-0.02
		C28.37,5.72,28.22,5.71,28.13,5.69z M31.04,4.79c-0.01-0.25-0.07-0.49-0.19-0.73c-0.12-0.24-0.28-0.43-0.5-0.56
		c-0.12-0.06-0.22-0.09-0.31-0.11c-0.09-0.02-0.2-0.02-0.34-0.02c-0.52,0-0.89,0.11-1.11,0.32s-0.36,0.52-0.41,0.92
		c-0.02,0.1-0.02,0.16-0.02,0.19c0,0.1,0.05,0.16,0.14,0.19c0.09,0.03,0.29,0.05,0.59,0.05c0.3,0,0.55,0,0.76-0.01
		c0.77,0,1.2,0,1.3-0.01c0.04-0.01,0.07-0.02,0.08-0.03c0.01-0.01,0.02-0.03,0.02-0.07V4.79z"/>
	<path d="M33.66,2.76c0,0.1,0,0.17,0.01,0.22c0,0.05,0.01,0.11,0.01,0.19c0.06-0.03,0.13-0.07,0.23-0.11s0.21-0.08,0.33-0.12
		c0.18-0.06,0.41-0.11,0.67-0.14c0.26-0.03,0.49-0.04,0.7-0.04c0.19,0,0.29,0.01,0.29,0.02l-0.01,1c0,0.16,0,0.28,0.01,0.36
		c-0.12-0.05-0.26-0.09-0.41-0.13c-0.18-0.04-0.37-0.06-0.58-0.06c-0.22,0-0.46,0.03-0.73,0.1C33.95,4.1,33.8,4.18,33.72,4.3
		c-0.08,0.11-0.12,0.32-0.11,0.64c0.03,1.1,0.05,2.34,0.05,3.73v0.05c-0.14,0.03-0.28,0.05-0.42,0.05c-0.06,0-0.15,0-0.27-0.01
		c-0.12,0-0.25,0-0.38,0.01L32.58,6.7c-0.02-0.94-0.02-1.65-0.02-2.12c0-0.38,0.01-0.99,0.02-1.82c0.08,0.01,0.17,0.01,0.26,0.01
		c0.09,0,0.17-0.01,0.25-0.01c0.1-0.01,0.22-0.01,0.38-0.01C33.6,2.74,33.66,2.74,33.66,2.76z"/>
	<path d="M37.52,5.69V5.9l-0.01,0.35c0,0.99,0.49,1.49,1.46,1.49c0.39,0,0.68-0.09,0.87-0.27c0.19-0.18,0.28-0.43,0.28-0.74
		c0-0.05-0.01-0.14-0.02-0.26c0.17-0.02,0.32-0.04,0.47-0.04c0.13,0,0.22,0,0.29,0.01c0.05,0,0.11,0,0.17,0.01
		c0.07,0,0.15,0,0.23-0.01c0.01,0.46-0.01,0.82-0.05,1.09s-0.14,0.53-0.29,0.78c-0.14,0.22-0.39,0.37-0.75,0.46
		c-0.36,0.09-0.75,0.14-1.17,0.14c-0.19,0-0.37-0.01-0.53-0.02c-0.16-0.02-0.27-0.03-0.31-0.05c-0.62-0.1-1.08-0.5-1.36-1.18
		c-0.28-0.68-0.4-1.47-0.36-2.35c0.01-0.06,0.02-0.2,0.04-0.4c0.02-0.2,0.04-0.41,0.07-0.63c0.03-0.22,0.08-0.43,0.16-0.64
		c0.15-0.35,0.43-0.62,0.83-0.82c0.4-0.19,0.84-0.29,1.33-0.29c0.26,0,0.52,0.03,0.8,0.1c1.09,0.18,1.63,1,1.63,2.46
		c0,0.12-0.01,0.29-0.02,0.52c-0.15,0.05-0.6,0.09-1.34,0.12c-0.09,0.01-0.28,0.01-0.58,0.01c-0.63,0-1.1-0.01-1.4-0.02
		C37.77,5.72,37.62,5.71,37.52,5.69z M40.44,4.79c-0.01-0.25-0.07-0.49-0.19-0.73c-0.12-0.24-0.28-0.43-0.5-0.56
		c-0.12-0.06-0.22-0.09-0.31-0.11s-0.2-0.02-0.34-0.02c-0.52,0-0.89,0.11-1.11,0.32s-0.36,0.52-0.41,0.92
		c-0.02,0.1-0.02,0.16-0.02,0.19c0,0.1,0.05,0.16,0.14,0.19c0.09,0.03,0.29,0.05,0.59,0.05c0.3,0,0.55,0,0.76-0.01
		c0.77,0,1.2,0,1.3-0.01c0.04-0.01,0.07-0.02,0.08-0.03c0.01-0.01,0.02-0.03,0.02-0.07V4.79z"/>
	<path d="M48.55,4.84l0.07-0.01c0.13-0.01,0.27-0.01,0.42,0.01c0.15,0.01,0.26,0.02,0.31,0.02l-0.07,1.22
		c-0.1,0.02-0.2,0.04-0.32,0.04c-0.04,0-0.09,0-0.16-0.01c-0.07,0-0.15,0-0.25,0.01l-0.02,0.22c-0.03,0.66-0.05,1.03-0.05,1.09
		c-0.02,0.23-0.03,0.47-0.04,0.72s-0.02,0.43-0.04,0.54c-0.03,0.04-0.14,0.06-0.31,0.07s-0.5,0.01-0.96,0.01l-0.01-0.12
		c0-0.06,0.02-0.32,0.05-0.77l0.07-1.26l0.02-0.59C47.19,6.01,47.06,6,46.9,6h-0.46c-0.58,0-0.99,0-1.22,0.01
		c-0.68,0-1.03-0.01-1.04-0.04c-0.04-0.22-0.06-0.48-0.06-0.76c0-0.18,0-0.32,0.01-0.42c0.34-0.45,0.68-0.94,1.04-1.48
		c0.36-0.54,0.58-0.87,0.67-1c0.37-0.57,0.82-1.24,1.36-2.03c0.13-0.01,0.34-0.02,0.65-0.02c0.3-0.01,0.54-0.01,0.71,0h0.07h0.02
		c0,0.05-0.01,0.46-0.04,1.23c-0.03,0.77-0.05,1.54-0.05,2.3v0.73C48.54,4.7,48.54,4.8,48.55,4.84z M47.47,4.84
		c0.03-1.42,0.06-2.49,0.08-3.2c-0.01-0.03-0.05,0.01-0.14,0.11s-0.2,0.27-0.34,0.47c-0.47,0.69-0.88,1.27-1.24,1.75
		c-0.37,0.53-0.56,0.82-0.59,0.86c-0.02,0.01,0.1,0.01,0.35,0.01l0.43,0.01h0.82l0.31-0.01C47.34,4.85,47.44,4.84,47.47,4.84z"/>
	<path d="M57.17,4.28c0,0.04-0.14,0.06-0.42,0.06c-0.21,0-0.36,0-0.46-0.01c-0.06,0-0.13,0-0.19-0.01c-0.06,0-0.12,0-0.16,0.01
		c0-0.01,0-0.15,0-0.41c0-0.27-0.23-0.43-0.7-0.49c-0.1-0.02-0.26-0.02-0.47-0.02c-0.22,0-0.43,0.02-0.61,0.05
		c-0.18,0.03-0.31,0.08-0.4,0.13c-0.1,0.08-0.18,0.2-0.24,0.35c-0.06,0.15-0.08,0.3-0.08,0.44c0,0.11,0.02,0.19,0.05,0.23
		c0.09,0.18,0.2,0.31,0.35,0.38c0.08,0.06,0.28,0.12,0.59,0.2c0.31,0.08,0.58,0.12,0.8,0.13c0.33,0.01,0.62,0.06,0.87,0.15
		c0.25,0.09,0.45,0.22,0.59,0.38c0.14,0.18,0.25,0.35,0.32,0.52c0.07,0.17,0.1,0.36,0.1,0.56c0,0.25-0.06,0.55-0.18,0.9
		c-0.18,0.38-0.46,0.65-0.84,0.83c-0.38,0.18-0.82,0.26-1.31,0.25c-0.54,0.02-1.01-0.05-1.42-0.21c-0.41-0.16-0.72-0.39-0.95-0.7
		s-0.34-0.68-0.34-1.1V6.84c0.14-0.02,0.36-0.02,0.64-0.02c0.31,0,0.48,0.01,0.5,0.04c0.02,0.02,0.05,0.11,0.1,0.27
		s0.15,0.33,0.28,0.5c0.14,0.17,0.37,0.26,0.7,0.29c0.26,0.02,0.41,0.02,0.46,0.02c0.13,0,0.23-0.01,0.32-0.04s0.19-0.07,0.33-0.13
		c0.41-0.18,0.61-0.45,0.6-0.8c0.01-0.23-0.05-0.41-0.19-0.54c-0.13-0.13-0.3-0.21-0.5-0.26s-0.47-0.09-0.82-0.13
		c-0.25-0.02-0.45-0.05-0.6-0.07c-0.15-0.02-0.29-0.06-0.41-0.12c-0.42-0.14-0.73-0.35-0.95-0.64s-0.33-0.61-0.33-0.95
		c0-0.38,0.11-0.72,0.33-1.03s0.52-0.51,0.91-0.61c0.33-0.09,0.75-0.13,1.26-0.13c0.12,0,0.3,0.01,0.54,0.02
		c0.34,0.02,0.66,0.08,0.96,0.18c0.28,0.12,0.51,0.33,0.68,0.62C57.08,3.6,57.17,3.92,57.17,4.28z"/>
	<path d="M58.88,2.77c0.02,0.09,0.02,0.2,0.02,0.34v0.3c0.3-0.3,0.65-0.48,1.06-0.54c0.28-0.06,0.52-0.08,0.71-0.08
		c0.34,0,0.63,0.07,0.85,0.2c0.18,0.08,0.29,0.19,0.35,0.34c0.06-0.03,0.14-0.09,0.25-0.17c0.11-0.08,0.26-0.16,0.44-0.24
		c0.19-0.08,0.45-0.12,0.79-0.13c0.4-0.02,0.71,0,0.94,0.05c0.23,0.05,0.43,0.16,0.62,0.32c0.1,0.09,0.18,0.3,0.22,0.62
		s0.06,0.76,0.06,1.3c0,0.3-0.01,0.78-0.02,1.44c-0.02,0.64-0.02,1.1-0.02,1.37c0,0.22,0.01,0.5,0.02,0.82
		c-0.29,0.05-0.63,0.06-1.02,0.05c-0.02-0.22-0.02-0.61-0.02-1.19c0.02-0.62,0.02-1.1,0.02-1.44v-0.5
		c-0.01-0.06-0.02-0.18-0.02-0.35s-0.02-0.35-0.05-0.55c-0.02-0.2-0.07-0.35-0.14-0.46c-0.05-0.16-0.2-0.25-0.47-0.28
		c-0.08-0.02-0.2-0.02-0.35-0.02c-0.23,0-0.43,0.04-0.6,0.11s-0.29,0.19-0.36,0.35c-0.02,0.18-0.02,0.32-0.02,0.42l0.01,0.34v0.44
		c0,0.27-0.01,0.69-0.02,1.25l-0.01,1.2c0,0.3,0,0.51,0.01,0.64c-0.17,0.02-0.4,0.04-0.68,0.04h-0.37
		c-0.02-0.16-0.02-0.44-0.02-0.85V7.26l0.01-0.89c0-0.55-0.02-1.04-0.05-1.46c0-0.34-0.06-0.57-0.17-0.69s-0.32-0.19-0.62-0.19
		c-0.85,0-1.3,0.48-1.37,1.43c-0.01,0.12-0.01,0.3-0.01,0.53c0,0.26,0.01,0.62,0.02,1.08l0.01,0.59c0,0.33-0.01,0.67-0.04,1.02v0.05
		c-0.12,0.02-0.23,0.04-0.34,0.04l-0.4-0.01c-0.12,0-0.22,0-0.29,0.01L57.79,6.7c-0.02-0.94-0.02-1.65-0.02-2.12
		c0-0.38,0.01-0.99,0.02-1.82c0.21,0.02,0.33,0.02,0.37,0.02l0.26-0.01c0.04,0,0.09,0,0.16-0.01c0.06-0.01,0.13-0.01,0.19-0.01
		C58.85,2.74,58.88,2.75,58.88,2.77z"/>
	<path d="M69.82,2.7c0.18-0.01,0.42,0,0.71,0.02l0.31,0.02c0.02,0.13,0.02,0.22,0.02,0.29v0.12c-0.01,0.18-0.01,0.46-0.01,0.83
		c0,0.3,0.01,0.75,0.02,1.34l0.01,1.34c0,0.58-0.02,1.1-0.05,1.57c0,0.02,0,0.08,0,0.16c0,0.08-0.01,0.15-0.02,0.22
		c-0.02,0.06-0.06,0.1-0.13,0.12h-0.2l-0.38-0.01c-0.06,0-0.12,0-0.17,0.01c-0.05,0.01-0.09,0.01-0.13,0.01
		c-0.08-0.02-0.12-0.11-0.12-0.26c-0.01-0.06-0.01-0.14,0.01-0.22c0.01-0.08,0.02-0.15,0.02-0.2c-0.19,0.26-0.5,0.44-0.91,0.54
		c-0.42,0.1-0.82,0.14-1.22,0.14c-0.38,0-0.71-0.17-0.98-0.51c-0.27-0.34-0.47-0.76-0.59-1.25C65.86,6.49,65.8,6,65.8,5.53
		c0-0.52,0.09-0.99,0.26-1.4c0.18-0.42,0.42-0.75,0.73-0.99s0.65-0.37,1.03-0.38l0.38-0.01c0.36,0,0.66,0.04,0.89,0.13
		c0.24,0.08,0.41,0.24,0.52,0.46c0-0.07,0.01-0.16,0.02-0.28c0.02-0.16,0.02-0.27,0.02-0.34C69.66,2.71,69.71,2.7,69.82,2.7z
		 M68.47,3.78c-0.42-0.01-0.77,0.1-1.05,0.32c-0.28,0.22-0.46,0.48-0.52,0.79c-0.06,0.23-0.1,0.54-0.1,0.94
		c0.04,1.29,0.56,1.9,1.56,1.85c0.41,0,0.7-0.07,0.89-0.22c0.18-0.14,0.3-0.35,0.34-0.61c0.04-0.26,0.07-0.66,0.07-1.19
		c0-0.58-0.02-0.98-0.07-1.22c-0.05-0.24-0.15-0.4-0.31-0.49S68.86,3.8,68.47,3.78z"/>
	<path d="M72.01,0l1.09,0.04c0,0.33-0.01,1.14-0.02,2.44c-0.02,1.6-0.02,2.86-0.02,3.77c0,1.01,0.01,1.81,0.04,2.41
		c-0.05,0.06-0.18,0.08-0.4,0.08l-0.37-0.01c-0.07-0.01-0.16-0.01-0.26-0.01c-0.06,0-0.1,0-0.12,0.01c0.05-0.65,0.07-1.3,0.07-1.96
		c0-0.5-0.02-1.24-0.05-2.23c-0.03-0.99-0.05-1.74-0.05-2.24C71.92,1.44,71.95,0.68,72.01,0z"/>
	<path d="M74.48,0l1.09,0.04c0,0.33-0.01,1.14-0.02,2.44c-0.02,1.6-0.02,2.86-0.02,3.77c0,1.01,0.01,1.81,0.04,2.41
		c-0.05,0.06-0.18,0.08-0.4,0.08L74.8,8.72c-0.07-0.01-0.16-0.01-0.26-0.01c-0.06,0-0.1,0-0.12,0.01c0.05-0.65,0.07-1.3,0.07-1.96
		c0-0.5-0.02-1.24-0.05-2.23c-0.03-0.99-0.05-1.74-0.05-2.24C74.39,1.44,74.42,0.68,74.48,0z"/>
	<path d="M79.36,0l1.09,0.04c0,0.33-0.01,1.14-0.02,2.44c-0.02,1.6-0.02,2.86-0.02,3.77c0,1.01,0.01,1.81,0.04,2.41
		c-0.05,0.06-0.18,0.08-0.4,0.08l-0.37-0.01c-0.07-0.01-0.16-0.01-0.26-0.01c-0.06,0-0.1,0-0.12,0.01c0.05-0.65,0.07-1.3,0.07-1.96
		c0-0.5-0.02-1.24-0.05-2.23c-0.03-0.99-0.05-1.74-0.05-2.24C79.26,1.44,79.29,0.68,79.36,0z"/>
	<path d="M82.42,5.69V5.9L82.4,6.25c0,0.99,0.49,1.49,1.46,1.49c0.39,0,0.68-0.09,0.87-0.27c0.19-0.18,0.28-0.43,0.28-0.74
		c0-0.05-0.01-0.14-0.02-0.26c0.17-0.02,0.32-0.04,0.47-0.04c0.13,0,0.22,0,0.29,0.01c0.05,0,0.11,0,0.17,0.01
		c0.07,0,0.15,0,0.23-0.01c0.01,0.46-0.01,0.82-0.05,1.09s-0.14,0.53-0.29,0.78c-0.14,0.22-0.39,0.37-0.75,0.46
		c-0.36,0.09-0.75,0.14-1.17,0.14c-0.19,0-0.37-0.01-0.53-0.02c-0.16-0.02-0.27-0.03-0.31-0.05c-0.62-0.1-1.08-0.5-1.36-1.18
		c-0.28-0.68-0.4-1.47-0.36-2.35c0.01-0.06,0.02-0.2,0.04-0.4c0.02-0.2,0.04-0.41,0.07-0.63c0.03-0.22,0.08-0.43,0.16-0.64
		c0.15-0.35,0.43-0.62,0.83-0.82c0.4-0.19,0.84-0.29,1.33-0.29c0.26,0,0.52,0.03,0.8,0.1c1.09,0.18,1.63,1,1.63,2.46
		c0,0.12-0.01,0.29-0.02,0.52c-0.15,0.05-0.6,0.09-1.34,0.12c-0.09,0.01-0.28,0.01-0.58,0.01c-0.63,0-1.1-0.01-1.4-0.02
		C82.66,5.72,82.51,5.71,82.42,5.69z M85.33,4.79c-0.01-0.25-0.07-0.49-0.19-0.73c-0.12-0.24-0.28-0.43-0.5-0.56
		c-0.12-0.06-0.22-0.09-0.31-0.11S84.14,3.36,84,3.36c-0.52,0-0.89,0.11-1.11,0.32s-0.36,0.52-0.41,0.92
		c-0.02,0.1-0.02,0.16-0.02,0.19c0,0.1,0.05,0.16,0.14,0.19c0.09,0.03,0.29,0.05,0.59,0.05c0.3,0,0.55,0,0.76-0.01
		c0.77,0,1.2,0,1.3-0.01C85.28,5.01,85.3,5,85.31,4.99c0.01-0.01,0.02-0.03,0.02-0.07V4.79z"/>
	<path d="M90.67,2.7c0.18-0.01,0.42,0,0.71,0.02l0.31,0.02c0.02,0.13,0.02,0.22,0.02,0.29v0.12c-0.01,0.18-0.01,0.46-0.01,0.83
		c0,0.3,0.01,0.75,0.02,1.34l0.01,1.34c0,0.58-0.02,1.1-0.05,1.57c0,0.02,0,0.08,0,0.16c0,0.08-0.01,0.15-0.02,0.22
		c-0.02,0.06-0.06,0.1-0.13,0.12h-0.2l-0.38-0.01c-0.06,0-0.12,0-0.17,0.01c-0.05,0.01-0.09,0.01-0.13,0.01
		c-0.08-0.02-0.12-0.11-0.12-0.26c-0.01-0.06-0.01-0.14,0.01-0.22c0.01-0.08,0.02-0.15,0.02-0.2c-0.19,0.26-0.5,0.44-0.91,0.54
		c-0.42,0.1-0.82,0.14-1.22,0.14c-0.38,0-0.71-0.17-0.98-0.51c-0.27-0.34-0.47-0.76-0.59-1.25c-0.13-0.5-0.19-0.98-0.19-1.45
		c0-0.52,0.09-0.99,0.26-1.4c0.18-0.42,0.42-0.75,0.73-0.99s0.65-0.37,1.03-0.38l0.38-0.01c0.36,0,0.66,0.04,0.89,0.13
		c0.24,0.08,0.41,0.24,0.52,0.46c0-0.07,0.01-0.16,0.02-0.28c0.02-0.16,0.02-0.27,0.02-0.34C90.52,2.71,90.57,2.7,90.67,2.7z
		 M89.33,3.78c-0.42-0.01-0.77,0.1-1.05,0.32c-0.28,0.22-0.46,0.48-0.52,0.79c-0.06,0.23-0.1,0.54-0.1,0.94
		c0.04,1.29,0.56,1.9,1.56,1.85c0.41,0,0.7-0.07,0.89-0.22c0.18-0.14,0.3-0.35,0.34-0.61c0.04-0.26,0.07-0.66,0.07-1.19
		c0-0.58-0.02-0.98-0.07-1.22c-0.05-0.24-0.15-0.4-0.31-0.49S89.71,3.8,89.33,3.78z"/>
	<path d="M92.27,2.72c0.12,0.02,0.29,0.02,0.5,0.02c0.07,0,0.16,0,0.26-0.01c0.1,0,0.21,0,0.33,0.01c0.13,0.45,0.36,1.3,0.71,2.56
		c0.17,0.63,0.29,1.09,0.37,1.37c0.08,0.28,0.18,0.55,0.29,0.82c0.07-0.18,0.16-0.44,0.26-0.8c0.1-0.36,0.17-0.6,0.2-0.71
		c0.39-1.34,0.73-2.4,1.01-3.2c0.07,0,0.19-0.01,0.35-0.02c0.29-0.02,0.53-0.02,0.72-0.01c-0.16,0.42-0.31,0.86-0.44,1.31
		c-0.14,0.45-0.26,0.9-0.38,1.34c-0.38,1.33-0.73,2.44-1.03,3.32c-0.13,0.02-0.33,0.04-0.61,0.04l-0.86-0.01
		c-0.35-1.12-0.61-1.97-0.77-2.55c-0.16-0.58-0.33-1.22-0.5-1.91L92.27,2.72z"/>
	<path d="M98.45,5.69V5.9l-0.01,0.35c0,0.99,0.49,1.49,1.46,1.49c0.39,0,0.68-0.09,0.87-0.27c0.19-0.18,0.28-0.43,0.28-0.74
		c0-0.05-0.01-0.14-0.02-0.26c0.17-0.02,0.32-0.04,0.47-0.04c0.13,0,0.22,0,0.29,0.01c0.05,0,0.11,0,0.17,0.01
		c0.07,0,0.15,0,0.23-0.01c0.01,0.46-0.01,0.82-0.05,1.09s-0.14,0.53-0.29,0.78c-0.14,0.22-0.39,0.37-0.75,0.46
		c-0.36,0.09-0.75,0.14-1.17,0.14c-0.19,0-0.37-0.01-0.53-0.02c-0.16-0.02-0.27-0.03-0.31-0.05c-0.62-0.1-1.08-0.5-1.36-1.18
		c-0.28-0.68-0.4-1.47-0.36-2.35c0.01-0.06,0.02-0.2,0.04-0.4c0.02-0.2,0.04-0.41,0.07-0.63c0.03-0.22,0.08-0.43,0.16-0.64
		c0.15-0.35,0.43-0.62,0.83-0.82c0.4-0.19,0.84-0.29,1.33-0.29c0.26,0,0.52,0.03,0.8,0.1c1.09,0.18,1.63,1,1.63,2.46
		c0,0.12-0.01,0.29-0.02,0.52c-0.15,0.05-0.6,0.09-1.34,0.12c-0.09,0.01-0.28,0.01-0.58,0.01c-0.63,0-1.1-0.01-1.4-0.02
		C98.69,5.72,98.54,5.71,98.45,5.69z M101.36,4.79c-0.01-0.25-0.07-0.49-0.19-0.73c-0.12-0.24-0.28-0.43-0.5-0.56
		c-0.12-0.06-0.22-0.09-0.31-0.11s-0.2-0.02-0.34-0.02c-0.52,0-0.89,0.11-1.11,0.32s-0.36,0.52-0.41,0.92
		c-0.02,0.1-0.02,0.16-0.02,0.19c0,0.1,0.05,0.16,0.14,0.19c0.09,0.03,0.29,0.05,0.59,0.05c0.3,0,0.55,0,0.76-0.01
		c0.77,0,1.2,0,1.3-0.01c0.04-0.01,0.07-0.02,0.08-0.03c0.01-0.01,0.02-0.03,0.02-0.07V4.79z"/>
	<path d="M107.66,4.28c0,0.04-0.14,0.06-0.42,0.06c-0.21,0-0.36,0-0.46-0.01c-0.06,0-0.13,0-0.19-0.01c-0.06,0-0.12,0-0.16,0.01
		c0-0.01,0-0.15,0-0.41c0-0.27-0.23-0.43-0.7-0.49c-0.1-0.02-0.26-0.02-0.47-0.02c-0.22,0-0.43,0.02-0.61,0.05
		c-0.18,0.03-0.31,0.08-0.4,0.13c-0.1,0.08-0.18,0.2-0.24,0.35c-0.06,0.15-0.08,0.3-0.08,0.44c0,0.11,0.02,0.19,0.05,0.23
		c0.09,0.18,0.2,0.31,0.35,0.38c0.08,0.06,0.28,0.12,0.59,0.2c0.31,0.08,0.58,0.12,0.8,0.13c0.33,0.01,0.62,0.06,0.87,0.15
		c0.25,0.09,0.45,0.22,0.59,0.38c0.14,0.18,0.25,0.35,0.32,0.52c0.07,0.17,0.1,0.36,0.1,0.56c0,0.25-0.06,0.55-0.18,0.9
		c-0.18,0.38-0.46,0.65-0.84,0.83c-0.38,0.18-0.82,0.26-1.31,0.25c-0.54,0.02-1.01-0.05-1.42-0.21c-0.41-0.16-0.72-0.39-0.95-0.7
		s-0.34-0.68-0.34-1.1V6.84c0.14-0.02,0.36-0.02,0.64-0.02c0.31,0,0.48,0.01,0.5,0.04c0.02,0.02,0.05,0.11,0.1,0.27
		s0.15,0.33,0.28,0.5c0.14,0.17,0.37,0.26,0.7,0.29c0.26,0.02,0.41,0.02,0.46,0.02c0.13,0,0.23-0.01,0.32-0.04s0.19-0.07,0.33-0.13
		c0.41-0.18,0.61-0.45,0.6-0.8c0.01-0.23-0.05-0.41-0.19-0.54c-0.13-0.13-0.3-0.21-0.5-0.26s-0.47-0.09-0.82-0.13
		c-0.25-0.02-0.45-0.05-0.6-0.07c-0.15-0.02-0.29-0.06-0.41-0.12c-0.42-0.14-0.73-0.35-0.95-0.64s-0.33-0.61-0.33-0.95
		c0-0.38,0.11-0.72,0.33-1.03s0.52-0.51,0.91-0.61c0.33-0.09,0.75-0.13,1.26-0.13c0.12,0,0.3,0.01,0.54,0.02
		c0.34,0.02,0.66,0.08,0.96,0.18c0.28,0.12,0.51,0.33,0.68,0.62C107.58,3.6,107.66,3.92,107.66,4.28z"/>
	<path d="M110.54,4.82c0-0.3,0.01-0.55,0.04-0.77s0.1-0.48,0.21-0.8c0.1-0.23,0.33-0.41,0.67-0.52c0.34-0.12,0.72-0.17,1.13-0.17
		c0.06,0.01,0.14,0.01,0.24,0.01l0.48-0.01c0.67,0,1.19,0.18,1.55,0.53c0.14,0.1,0.25,0.28,0.33,0.54c0.08,0.26,0.12,0.62,0.14,1.06
		c0.02,0.44,0.02,0.7,0.02,0.77c-0.03,0.8-0.07,1.44-0.11,1.91s-0.13,0.78-0.27,0.91c-0.15,0.22-0.36,0.36-0.63,0.44
		s-0.59,0.12-0.95,0.12c-0.14,0-0.36-0.01-0.65-0.02l-0.55-0.01c-0.47-0.08-0.83-0.25-1.06-0.52c-0.24-0.26-0.39-0.57-0.46-0.92
		c-0.07-0.35-0.1-0.78-0.1-1.27V5.47C110.57,5.18,110.56,4.96,110.54,4.82z M112.99,3.68c-0.54,0-0.94,0.14-1.18,0.42
		c-0.1,0.13-0.17,0.29-0.2,0.49c-0.03,0.2-0.04,0.45-0.03,0.76c-0.01,0.12-0.01,0.28,0.01,0.48c0.01,0.2,0.02,0.36,0.02,0.47
		l0.02,0.5c0.02,0.32,0.11,0.55,0.27,0.68c0.16,0.13,0.35,0.22,0.59,0.27c0.16,0.02,0.32,0.04,0.49,0.04c0.31,0,0.58-0.06,0.82-0.17
		c0.23-0.11,0.38-0.3,0.44-0.55c0.03-0.21,0.05-0.37,0.05-0.49c0.04-0.56,0.06-0.94,0.06-1.14c0-0.53-0.1-0.95-0.29-1.27
		C113.88,3.84,113.52,3.68,112.99,3.68z"/>
	<path d="M117.16,2.76c0,0.1,0,0.17,0.01,0.22c0,0.05,0.01,0.11,0.01,0.19c0.06-0.03,0.13-0.07,0.23-0.11
		c0.1-0.04,0.21-0.08,0.33-0.12c0.18-0.06,0.41-0.11,0.67-0.14s0.49-0.04,0.7-0.04c0.19,0,0.29,0.01,0.29,0.02l-0.01,1
		c0,0.16,0,0.28,0.01,0.36c-0.12-0.05-0.26-0.09-0.41-0.13c-0.18-0.04-0.37-0.06-0.58-0.06c-0.22,0-0.46,0.03-0.73,0.1
		c-0.22,0.06-0.38,0.14-0.46,0.25c-0.08,0.11-0.12,0.32-0.11,0.64c0.03,1.1,0.05,2.34,0.05,3.73v0.05
		c-0.14,0.03-0.28,0.05-0.42,0.05c-0.06,0-0.15,0-0.27-0.01c-0.12,0-0.25,0-0.38,0.01l-0.01-2.06c-0.02-0.94-0.02-1.65-0.02-2.12
		c0-0.38,0.01-0.99,0.02-1.82c0.08,0.01,0.17,0.01,0.26,0.01c0.09,0,0.17-0.01,0.25-0.01c0.1-0.01,0.22-0.01,0.38-0.01
		C117.09,2.74,117.16,2.74,117.16,2.76z"/>
	<path d="M125.34,7.67v0.92c-0.02,0.07-0.19,0.11-0.5,0.11c-0.32,0-0.59-0.02-0.8-0.05V7.48c0-0.58,0.02-1.26,0.06-2.02
		c0.04-1.5,0.06-2.52,0.07-3.05V2.05c0-0.09,0-0.16-0.01-0.22c-0.05-0.01-0.16,0.17-0.35,0.53c-0.14,0.29-0.27,0.52-0.39,0.68
		c-0.12,0.17-0.22,0.25-0.31,0.25c-0.07,0-0.26-0.04-0.56-0.13c-0.3-0.09-0.46-0.16-0.46-0.2c0.15-0.33,0.35-0.7,0.58-1.11
		c0.24-0.41,0.45-0.77,0.64-1.07c0.19-0.3,0.32-0.5,0.4-0.59l0.74-0.01c0.18,0,0.5,0.01,0.96,0.02c0.02,0.3,0.04,0.75,0.04,1.34
		v0.67v0.61c0,0.54-0.02,1.34-0.05,2.41C125.36,6.14,125.34,6.95,125.34,7.67z"/>
	<path d="M129.94,0.38c0,0.07,0,0.13,0.01,0.17c0,0.04,0.01,0.08,0.01,0.1c0.01,0.06,0.01,0.16,0.01,0.32l0.02,0.61l-0.01,1.73
		c0.01-0.06,0.06-0.13,0.16-0.23c0.1-0.1,0.23-0.19,0.4-0.26s0.36-0.12,0.56-0.13c0.7-0.02,1.24,0.03,1.62,0.17
		c0.34,0.12,0.58,0.4,0.74,0.85s0.23,0.98,0.23,1.58c-0.02,0.7-0.08,1.27-0.17,1.71c-0.09,0.44-0.28,0.82-0.56,1.14
		s-0.72,0.49-1.28,0.53c-0.13,0.02-0.23,0.02-0.31,0.02c-0.18,0-0.36-0.03-0.52-0.08c-0.13-0.04-0.26-0.12-0.38-0.24
		c-0.26-0.14-0.43-0.33-0.53-0.55c0.02,0.11,0.02,0.25,0.02,0.42l-0.01,0.38c0,0.05,0,0.08-0.01,0.08
		c-0.05,0.01-0.13,0.01-0.25,0.01c-0.18,0-0.31,0-0.41-0.01l-0.48-0.01c-0.01-0.29-0.01-0.73-0.01-1.32c0-0.64,0-1.21,0.01-1.72
		c0.01-0.51,0.02-0.94,0.02-1.29c0.03-1.46,0.05-2.56,0.05-3.31V0.28c0.14-0.02,0.29-0.04,0.47-0.04c0.14,0,0.27,0.01,0.38,0.02
		c0.11,0.01,0.18,0.02,0.22,0.03V0.38z M132.72,5.8c0-0.26-0.02-0.46-0.05-0.6c-0.03-0.33-0.08-0.59-0.14-0.79
		c-0.06-0.2-0.21-0.36-0.43-0.5c-0.22-0.14-0.56-0.21-1.02-0.21c-0.45,0-0.75,0.16-0.91,0.47c-0.16,0.32-0.23,0.81-0.23,1.48
		c0,0.57,0.1,1.05,0.31,1.46c0.2,0.4,0.53,0.61,0.98,0.61c0.5,0,0.87-0.16,1.12-0.49C132.6,6.91,132.72,6.43,132.72,5.8z"/>
	<path d="M134.7,2.66c0.06-0.01,0.17-0.01,0.34,0c0.24,0.02,0.5,0.02,0.79,0.02v0.04c0,0.36-0.01,0.92-0.02,1.67
		c-0.02,0.77-0.04,1.54-0.04,2.33c0,0.74,0.02,1.39,0.05,1.97c-0.11,0.02-0.28,0.04-0.5,0.04c-0.22,0-0.36,0-0.41,0
		c-0.14,0-0.23,0-0.26,0.01c0.01-0.23,0.01-0.58,0.01-1.06V6.6V5.59c-0.02-0.56-0.02-0.99-0.02-1.3c0-0.55,0.02-1.09,0.07-1.62V2.66
		z M134.65,0.08c0.5,0.02,0.87,0.02,1.13,0.02l0.04,1.58c-0.08,0.04-0.22,0.06-0.43,0.06c-0.13,0-0.22,0-0.29-0.01
		c-0.05,0-0.1,0-0.17-0.01c-0.06,0-0.14,0-0.23,0.01c0-0.12-0.01-0.32-0.02-0.59C134.65,0.62,134.65,0.27,134.65,0.08z"/>
	<path d="M141.46,10.28c-0.15,0.34-0.34,0.57-0.58,0.68c-0.23,0.11-0.5,0.18-0.8,0.2c-0.35,0.02-0.57,0.02-0.66,0.02
		c-0.15,0-0.35-0.01-0.59-0.02c-0.53-0.04-0.97-0.22-1.33-0.53c-0.36-0.31-0.54-0.7-0.54-1.18c0-0.1,0-0.18,0.01-0.24
		c0.04-0.02,0.15-0.03,0.32-0.04c0.18-0.01,0.34-0.02,0.5-0.02c0.14,0,0.21,0.01,0.23,0.02c0.01,0.02,0.01,0.08,0.01,0.18
		c0,0.21,0.05,0.39,0.14,0.55c0.1,0.16,0.3,0.26,0.61,0.31c0.16,0.01,0.37,0.01,0.62,0.01c0.34,0,0.58-0.02,0.74-0.05
		c0.16-0.04,0.26-0.1,0.3-0.19c0.04-0.09,0.06-0.23,0.04-0.41V9.14v-0.4c0-0.04,0-0.08,0.01-0.13s0.01-0.12,0.02-0.2
		c-0.14,0.16-0.29,0.26-0.47,0.29s-0.51,0.05-1,0.05h-0.46c-0.8,0-1.32-0.25-1.56-0.76c-0.2-0.38-0.31-0.84-0.34-1.4
		c0-0.74,0.03-1.36,0.09-1.85c0.06-0.49,0.24-0.93,0.53-1.33s0.75-0.61,1.39-0.65c0.42-0.01,0.74,0.01,0.97,0.04
		c0.23,0.04,0.4,0.1,0.51,0.19c0.11,0.09,0.2,0.21,0.28,0.37c0.02-0.11,0.04-0.22,0.04-0.31c0-0.05,0-0.1-0.01-0.15
		c0-0.05,0-0.1,0.01-0.15c0.21-0.02,0.36-0.02,0.47-0.02l0.62,0.01c0.03,0.93,0.05,2.02,0.05,3.26c0,1.24-0.02,2.32-0.06,3.24
		c0,0.08,0,0.19-0.01,0.32c0,0.14-0.01,0.27-0.02,0.39C141.52,10.08,141.5,10.19,141.46,10.28z M137.63,5.87v0.14
		c-0.02,0.43,0.05,0.84,0.22,1.21s0.48,0.58,0.94,0.6c0.12,0.01,0.28,0.01,0.49,0.01c0.43,0,0.74-0.08,0.93-0.23
		c0.19-0.15,0.29-0.45,0.32-0.89c0-0.57,0-1.02-0.01-1.37c0-0.81-0.18-1.31-0.54-1.5c-0.17-0.1-0.4-0.14-0.7-0.14
		c-0.16,0-0.32,0.01-0.47,0.04c-0.45,0.08-0.76,0.31-0.92,0.68C137.71,4.79,137.63,5.28,137.63,5.87z"/>
	<path d="M145.17,0l1.09,0.04c0,0.33-0.01,1.14-0.02,2.44c-0.02,1.6-0.02,2.86-0.02,3.77c0,1.01,0.01,1.81,0.04,2.41
		c-0.05,0.06-0.18,0.08-0.4,0.08l-0.37-0.01c-0.07-0.01-0.16-0.01-0.26-0.01c-0.06,0-0.1,0-0.12,0.01c0.05-0.65,0.07-1.3,0.07-1.96
		c0-0.5-0.02-1.24-0.05-2.23c-0.03-0.99-0.05-1.74-0.05-2.24C145.07,1.44,145.1,0.68,145.17,0z"/>
	<path d="M148.22,5.69V5.9l-0.01,0.35c0,0.99,0.49,1.49,1.46,1.49c0.39,0,0.68-0.09,0.87-0.27c0.19-0.18,0.28-0.43,0.28-0.74
		c0-0.05-0.01-0.14-0.02-0.26c0.17-0.02,0.32-0.04,0.47-0.04c0.13,0,0.22,0,0.29,0.01c0.05,0,0.11,0,0.17,0.01
		c0.07,0,0.15,0,0.23-0.01c0.01,0.46-0.01,0.82-0.05,1.09s-0.14,0.53-0.29,0.78c-0.14,0.22-0.39,0.37-0.75,0.46
		c-0.36,0.09-0.75,0.14-1.17,0.14c-0.19,0-0.37-0.01-0.53-0.02c-0.16-0.02-0.27-0.03-0.31-0.05c-0.62-0.1-1.08-0.5-1.36-1.18
		c-0.28-0.68-0.4-1.47-0.36-2.35c0.01-0.06,0.02-0.2,0.04-0.4c0.02-0.2,0.04-0.41,0.07-0.63c0.03-0.22,0.08-0.43,0.16-0.64
		c0.15-0.35,0.43-0.62,0.83-0.82c0.4-0.19,0.84-0.29,1.33-0.29c0.26,0,0.52,0.03,0.8,0.1c1.09,0.18,1.63,1,1.63,2.46
		c0,0.12-0.01,0.29-0.02,0.52c-0.15,0.05-0.6,0.09-1.34,0.12c-0.09,0.01-0.28,0.01-0.58,0.01c-0.63,0-1.1-0.01-1.4-0.02
		C148.47,5.72,148.32,5.71,148.22,5.69z M151.14,4.79c-0.01-0.25-0.07-0.49-0.19-0.73c-0.12-0.24-0.28-0.43-0.5-0.56
		c-0.12-0.06-0.22-0.09-0.31-0.11s-0.2-0.02-0.34-0.02c-0.52,0-0.89,0.11-1.11,0.32s-0.36,0.52-0.41,0.92
		c-0.02,0.1-0.02,0.16-0.02,0.19c0,0.1,0.05,0.16,0.14,0.19c0.09,0.03,0.29,0.05,0.59,0.05c0.3,0,0.55,0,0.76-0.01
		c0.77,0,1.2,0,1.3-0.01c0.04-0.01,0.07-0.02,0.08-0.03c0.01-0.01,0.02-0.03,0.02-0.07V4.79z"/>
	<path d="M156.48,2.7c0.18-0.01,0.42,0,0.71,0.02l0.31,0.02c0.02,0.13,0.02,0.22,0.02,0.29v0.12c-0.01,0.18-0.01,0.46-0.01,0.83
		c0,0.3,0.01,0.75,0.02,1.34l0.01,1.34c0,0.58-0.02,1.1-0.05,1.57c0,0.02,0,0.08,0,0.16c0,0.08-0.01,0.15-0.02,0.22
		c-0.02,0.06-0.06,0.1-0.13,0.12h-0.2l-0.38-0.01c-0.06,0-0.12,0-0.17,0.01c-0.05,0.01-0.09,0.01-0.13,0.01
		c-0.08-0.02-0.12-0.11-0.12-0.26c-0.01-0.06-0.01-0.14,0.01-0.22c0.01-0.08,0.02-0.15,0.02-0.2c-0.19,0.26-0.5,0.44-0.91,0.54
		c-0.42,0.1-0.82,0.14-1.22,0.14c-0.38,0-0.71-0.17-0.98-0.51c-0.27-0.34-0.47-0.76-0.59-1.25c-0.13-0.5-0.19-0.98-0.19-1.45
		c0-0.52,0.09-0.99,0.26-1.4c0.18-0.42,0.42-0.75,0.73-0.99s0.65-0.37,1.03-0.38l0.38-0.01c0.36,0,0.66,0.04,0.89,0.13
		c0.24,0.08,0.41,0.24,0.52,0.46c0-0.07,0.01-0.16,0.02-0.28c0.02-0.16,0.02-0.27,0.02-0.34C156.32,2.71,156.38,2.7,156.48,2.7z
		 M155.14,3.78c-0.42-0.01-0.77,0.1-1.05,0.32c-0.28,0.22-0.46,0.48-0.52,0.79c-0.06,0.23-0.1,0.54-0.1,0.94
		c0.04,1.29,0.56,1.9,1.56,1.85c0.41,0,0.7-0.07,0.89-0.22c0.18-0.14,0.3-0.35,0.34-0.61c0.04-0.26,0.07-0.66,0.07-1.19
		c0-0.58-0.02-0.98-0.07-1.22c-0.05-0.24-0.15-0.4-0.31-0.49S155.52,3.8,155.14,3.78z"/>
	<path d="M160.26,4.25v4.44c-0.12-0.01-0.26,0-0.42,0.01l-0.29,0.01c-0.13,0-0.23-0.01-0.31-0.02c-0.03-0.19-0.05-0.89-0.05-2.09
		l0.01-1.45c0.01-0.24,0.01-0.54,0.01-0.9c-0.09,0.01-0.26,0.01-0.53,0.01c-0.07-0.01-0.18-0.01-0.31-0.01c-0.12,0-0.21,0-0.26,0.01
		l-0.04-1.03c0.59,0,0.96,0,1.12,0.01l-0.01-0.48c0-0.6,0.09-1.1,0.28-1.51c0.19-0.41,0.55-0.65,1.09-0.72
		c0.44-0.04,0.91-0.06,1.42-0.06h0.47c0.05,0.15,0.07,0.31,0.07,0.48c0,0.09-0.02,0.29-0.06,0.61c-0.14-0.01-0.58,0-1.34,0.04
		c-0.26,0.02-0.43,0.04-0.53,0.07c-0.1,0.03-0.17,0.1-0.22,0.22c-0.05,0.12-0.07,0.33-0.07,0.64c0,0.1,0.01,0.36,0.02,0.76
		c0.47-0.01,1.18-0.01,2.11-0.01c-0.01,0.03-0.02,0.16-0.04,0.4c0,0.24-0.01,0.45-0.02,0.64l-1.38-0.04L160.26,4.25z"/>
	<path d="M164.7,6.3l0.02-0.38c0.06-0.34,0.14-0.63,0.26-0.89c0.12-0.26,0.31-0.55,0.56-0.87c0.24-0.28,0.43-0.53,0.57-0.76
		c0.14-0.22,0.23-0.46,0.28-0.7c0.02-0.1,0.02-0.17,0.02-0.22c0-0.33-0.13-0.59-0.38-0.79c-0.26-0.2-0.6-0.28-1.03-0.25
		c-0.34-0.01-0.59,0.08-0.75,0.27s-0.31,0.45-0.44,0.79c-0.05,0.13-0.08,0.22-0.11,0.26l-0.24,0.01c-0.11,0-0.28-0.01-0.5-0.02
		l-0.29-0.01V2.74c0.02-0.41,0.14-0.8,0.34-1.18s0.48-0.69,0.83-0.93c0.35-0.24,0.75-0.37,1.19-0.39c0.06-0.01,0.14-0.01,0.24-0.01
		c0.43,0,0.83,0.09,1.19,0.28c0.36,0.18,0.65,0.44,0.86,0.76c0.22,0.32,0.32,0.68,0.32,1.08c0,0.39-0.07,0.72-0.22,0.98
		c-0.15,0.26-0.37,0.56-0.67,0.89c-0.19,0.21-0.33,0.37-0.41,0.48c-0.18,0.24-0.31,0.47-0.41,0.68c-0.1,0.22-0.16,0.46-0.2,0.73
		c-0.01,0.06-0.02,0.11-0.02,0.17s-0.01,0.12-0.01,0.19c0,0.05,0,0.08,0.01,0.1v0.01c-0.1,0.02-0.24,0.02-0.44,0.02
		c-0.06,0-0.14,0-0.23-0.01c-0.09,0-0.2,0-0.32,0.01h-0.01c-0.02-0.03-0.02-0.09-0.02-0.18V6.3z M165.6,8.72h-0.86h-0.04
		c-0.02-0.14-0.04-0.33-0.04-0.55l0.01-0.59c0.01-0.07,0.01-0.16,0.01-0.25c0.14-0.06,0.32-0.08,0.56-0.08
		c0.17,0,0.32,0.02,0.44,0.05c0,0.04-0.01,0.26-0.04,0.65s-0.04,0.64-0.04,0.76v0.02H165.6z"/>
</g>
</svg>
