<!-- Generator: Adobe Illustrator 23.1.1, SVG Export Plug-In  -->
<svg version="1.1" xmlns="http://www.w3.org/2000/svg" xmlns:xlink="http://www.w3.org/1999/xlink" x="0px" y="0px"
	 width="213.57px" height="25.6px" viewBox="0 0 213.57 25.6" style="enable-background:new 0 0 213.57 25.6;" xml:space="preserve"
	>
<defs>
</defs>
<g>
	<path d="M3.31,0.26C4.1,3.74,4.73,6.56,5.2,8.71v0.01C5.03,8.76,4.86,8.77,4.68,8.77c-0.09,0-0.18-0.01-0.28-0.02
		C4.28,8.73,4.18,8.72,4.13,8.7H4.12C4.06,8.54,3.98,8.26,3.89,7.87C3.77,7.4,3.66,7.01,3.56,6.71C3.2,6.69,2.71,6.68,2.11,6.68
		h-0.5c0,0.01-0.03,0.17-0.08,0.49c-0.07,0.44-0.14,0.8-0.2,1.09C1.26,8.55,1.18,8.7,1.1,8.71C1.09,8.72,1.05,8.72,0.98,8.72
		c-0.06,0-0.16,0-0.32-0.01c-0.16-0.01-0.33-0.01-0.53,0H0V8.7c0.02-0.05,0.06-0.26,0.11-0.64c0.2-1.26,0.43-2.55,0.7-3.85
		s0.63-2.6,1.07-3.89C1.93,0.32,2,0.31,2.08,0.31h0.26C2.65,0.31,2.98,0.3,3.31,0.26z M2.22,5.75c0.51,0,0.97,0,1.37-0.01
		c-0.45-2.52-0.72-3.82-0.8-3.91C2.71,1.8,2.65,1.79,2.6,1.79c-0.1,0-0.18,0.08-0.24,0.23C2.3,2.18,2.21,2.53,2.1,3.07
		C1.99,3.62,1.86,4.3,1.7,5.14L1.6,5.74h0.24C2,5.74,2.12,5.74,2.22,5.75z"/>
	<path d="M6.68,2.76c0,0.1,0,0.17,0.01,0.22c0,0.05,0.01,0.11,0.01,0.19C6.75,3.14,6.83,3.1,6.93,3.06s0.21-0.08,0.33-0.12
		C7.44,2.88,7.67,2.83,7.93,2.8c0.26-0.03,0.49-0.04,0.7-0.04c0.19,0,0.29,0.01,0.29,0.02l-0.01,1c0,0.16,0,0.28,0.01,0.36
		C8.8,4.09,8.66,4.05,8.51,4.01C8.33,3.97,8.14,3.95,7.93,3.95c-0.22,0-0.46,0.03-0.73,0.1C6.98,4.1,6.82,4.18,6.74,4.3
		S6.63,4.62,6.64,4.93c0.03,1.1,0.05,2.34,0.05,3.73v0.05C6.55,8.74,6.41,8.76,6.26,8.76c-0.06,0-0.15,0-0.27-0.01
		c-0.12,0-0.25,0-0.38,0.01L5.6,6.7C5.59,5.75,5.58,5.04,5.58,4.57c0-0.38,0.01-0.99,0.02-1.82c0.08,0.01,0.17,0.01,0.26,0.01
		c0.09,0,0.17-0.01,0.25-0.01c0.1-0.01,0.22-0.01,0.38-0.01C6.62,2.74,6.68,2.74,6.68,2.76z"/>
	<path d="M10.55,5.69V5.9l-0.01,0.35c0,0.99,0.49,1.49,1.46,1.49c0.39,0,0.68-0.09,0.87-0.27s0.28-0.43,0.28-0.74
		c0-0.05-0.01-0.14-0.02-0.26c0.17-0.02,0.32-0.04,0.47-0.04c0.13,0,0.22,0,0.29,0.01c0.05,0,0.11,0,0.17,0.01
		c0.07,0,0.15,0,0.23-0.01c0.01,0.46-0.01,0.82-0.05,1.09c-0.04,0.27-0.14,0.53-0.29,0.78c-0.14,0.22-0.39,0.37-0.75,0.46
		s-0.75,0.14-1.17,0.14c-0.19,0-0.37-0.01-0.53-0.02s-0.27-0.03-0.31-0.05c-0.62-0.1-1.08-0.5-1.36-1.18
		C9.56,6.98,9.44,6.2,9.48,5.32c0.01-0.06,0.02-0.2,0.04-0.4c0.02-0.2,0.04-0.41,0.07-0.63c0.03-0.22,0.08-0.43,0.16-0.64
		c0.15-0.35,0.43-0.62,0.83-0.82c0.4-0.19,0.84-0.29,1.33-0.29c0.26,0,0.52,0.03,0.8,0.1c1.09,0.18,1.63,1,1.63,2.46
		c0,0.12-0.01,0.29-0.02,0.52c-0.15,0.05-0.6,0.09-1.34,0.12c-0.09,0.01-0.28,0.01-0.58,0.01c-0.63,0-1.1-0.01-1.4-0.02
		C10.79,5.72,10.64,5.71,10.55,5.69z M13.46,4.79c-0.01-0.25-0.07-0.49-0.19-0.73c-0.12-0.24-0.28-0.43-0.5-0.56
		c-0.12-0.06-0.22-0.09-0.31-0.11c-0.09-0.02-0.2-0.02-0.34-0.02c-0.52,0-0.89,0.11-1.11,0.32s-0.36,0.52-0.41,0.92
		c-0.02,0.1-0.02,0.16-0.02,0.19c0,0.1,0.05,0.16,0.14,0.19c0.09,0.03,0.29,0.05,0.59,0.05c0.3,0,0.55,0,0.76-0.01
		c0.77,0,1.2,0,1.3-0.01c0.04-0.01,0.07-0.02,0.08-0.03c0.01-0.01,0.02-0.03,0.02-0.07V4.79z"/>
	<path d="M19.27,0.5v1.84l0.01,0.67C19.8,3,20.45,2.97,21.22,2.93c0.05,0.06,0.07,0.18,0.07,0.36l-0.01,0.28
		c-0.02,0.18-0.02,0.3-0.01,0.38c-0.87,0-1.52,0-1.96-0.01v1.84v0.41c0,0.36,0.01,0.62,0.02,0.77c0.02,0.15,0.05,0.28,0.1,0.4
		c0.13,0.16,0.39,0.26,0.77,0.3c0.39,0.04,0.74,0.05,1.06,0.04C21.3,8,21.32,8.2,21.32,8.29c0,0.14-0.02,0.29-0.06,0.43
		c-0.17,0.01-0.43,0.01-0.79,0.01c-0.62,0-1.11-0.08-1.46-0.23c-0.35-0.15-0.58-0.46-0.67-0.91c-0.09-0.78-0.13-1.79-0.13-3.04V3.98
		C18.16,3.99,18.04,4,17.84,4l-0.91-0.01L16.97,3c0.18,0.02,0.6,0.02,1.26,0.02l-0.01-1.26V1.2c0-0.34,0.01-0.57,0.02-0.71
		c0.11-0.01,0.28,0,0.52,0.01l0.32,0.01C19.17,0.52,19.23,0.51,19.27,0.5z"/>
	<path d="M22.94,2.29v1.07c0.22-0.18,0.41-0.32,0.57-0.41c0.16-0.09,0.41-0.15,0.73-0.17c0.19-0.02,0.37-0.04,0.54-0.04
		c0.58,0,1.04,0.14,1.37,0.42c0.1,0.09,0.18,0.3,0.22,0.62c0.04,0.33,0.06,0.76,0.06,1.3c0,0.3-0.01,0.78-0.02,1.44
		c-0.02,0.64-0.02,1.1-0.02,1.37c0,0.22,0.01,0.5,0.02,0.82c-0.32,0.05-0.66,0.06-1.03,0.05c-0.02-0.24-0.02-0.45-0.02-0.62V7.4
		V5.05c-0.02-0.51-0.14-0.84-0.36-1c-0.05-0.03-0.14-0.06-0.29-0.1c-0.17-0.05-0.34-0.07-0.52-0.07c-0.31,0-0.58,0.08-0.8,0.23
		c-0.22,0.16-0.36,0.4-0.43,0.73c-0.06,0.3-0.08,0.67-0.08,1.09l0.01,0.41c0.02,0.53,0.02,0.96,0.02,1.31c0,0.43-0.01,0.76-0.02,1
		V8.7c-0.16,0.04-0.29,0.06-0.38,0.06l-0.36-0.01c-0.11,0-0.2,0-0.28,0.01c0-0.92,0-1.68-0.01-2.28l-0.01-3.67
		c0-0.9,0.01-1.82,0.02-2.76c0.25,0.02,0.45,0.03,0.6,0.02c0.04,0,0.09,0,0.15-0.01s0.12-0.01,0.19-0.01c0.08,0,0.12,0.01,0.12,0.04
		c0.02,0.07,0.02,0.56,0.02,1.46V2.29z"/>
	<path d="M28.13,5.69V5.9l-0.01,0.35c0,0.99,0.49,1.49,1.46,1.49c0.39,0,0.68-0.09,0.87-0.27s0.28-0.43,0.28-0.74
		c0-0.05-0.01-0.14-0.02-0.26c0.17-0.02,0.32-0.04,0.47-0.04c0.13,0,0.22,0,0.29,0.01c0.05,0,0.11,0,0.17,0.01
		c0.07,0,0.15,0,0.23-0.01c0.01,0.46-0.01,0.82-0.05,1.09c-0.04,0.27-0.14,0.53-0.29,0.78c-0.14,0.22-0.39,0.37-0.75,0.46
		s-0.75,0.14-1.17,0.14c-0.19,0-0.37-0.01-0.53-0.02s-0.27-0.03-0.31-0.05c-0.62-0.1-1.08-0.5-1.36-1.18
		c-0.28-0.68-0.4-1.47-0.36-2.35c0.01-0.06,0.02-0.2,0.04-0.4c0.02-0.2,0.04-0.41,0.07-0.63c0.03-0.22,0.08-0.43,0.16-0.64
		c0.15-0.35,0.43-0.62,0.83-0.82c0.4-0.19,0.84-0.29,1.33-0.29c0.26,0,0.52,0.03,0.8,0.1c1.09,0.18,1.63,1,1.63,2.46
		c0,0.12-0.01,0.29-0.02,0.52c-0.15,0.05-0.6,0.09-1.34,0.12c-0.09,0.01-0.28,0.01-0.58,0.01c-0.63,0-1.1-0.01-1.4-0.02
		C28.37,5.72,28.22,5.71,28.13,5.69z M31.04,4.79c-0.01-0.25-0.07-0.49-0.19-0.73c-0.12-0.24-0.28-0.43-0.5-0.56
		c-0.12-0.06-0.22-0.09-0.31-0.11c-0.09-0.02-0.2-0.02-0.34-0.02c-0.52,0-0.89,0.11-1.11,0.32s-0.36,0.52-0.41,0.92
		c-0.02,0.1-0.02,0.16-0.02,0.19c0,0.1,0.05,0.16,0.14,0.19c0.09,0.03,0.29,0.05,0.59,0.05c0.3,0,0.55,0,0.76-0.01
		c0.77,0,1.2,0,1.3-0.01c0.04-0.01,0.07-0.02,0.08-0.03c0.01-0.01,0.02-0.03,0.02-0.07V4.79z"/>
	<path d="M35.27,0l1.09,0.04c0,0.33-0.01,1.14-0.02,2.44c-0.02,1.6-0.02,2.86-0.02,3.77c0,1.01,0.01,1.81,0.04,2.41
		c-0.05,0.06-0.18,0.08-0.4,0.08l-0.37-0.01c-0.07-0.01-0.16-0.01-0.26-0.01c-0.06,0-0.1,0-0.12,0.01c0.05-0.65,0.07-1.3,0.07-1.96
		c0-0.5-0.02-1.24-0.05-2.23c-0.03-0.99-0.05-1.74-0.05-2.24C35.17,1.44,35.2,0.68,35.27,0z"/>
	<path d="M38.33,5.69V5.9l-0.01,0.35c0,0.99,0.49,1.49,1.46,1.49c0.39,0,0.68-0.09,0.87-0.27s0.28-0.43,0.28-0.74
		c0-0.05-0.01-0.14-0.02-0.26c0.17-0.02,0.32-0.04,0.47-0.04c0.13,0,0.22,0,0.29,0.01c0.05,0,0.11,0,0.17,0.01
		c0.07,0,0.15,0,0.23-0.01c0.01,0.46-0.01,0.82-0.05,1.09c-0.04,0.27-0.14,0.53-0.29,0.78c-0.14,0.22-0.39,0.37-0.75,0.46
		s-0.75,0.14-1.17,0.14c-0.19,0-0.37-0.01-0.53-0.02s-0.27-0.03-0.31-0.05c-0.62-0.1-1.08-0.5-1.36-1.18
		c-0.28-0.68-0.4-1.47-0.36-2.35c0.01-0.06,0.02-0.2,0.04-0.4c0.02-0.2,0.04-0.41,0.07-0.63c0.03-0.22,0.08-0.43,0.16-0.64
		c0.15-0.35,0.43-0.62,0.83-0.82c0.4-0.19,0.84-0.29,1.33-0.29c0.26,0,0.52,0.03,0.8,0.1c1.09,0.18,1.63,1,1.63,2.46
		c0,0.12-0.01,0.29-0.02,0.52c-0.15,0.05-0.6,0.09-1.34,0.12c-0.09,0.01-0.28,0.01-0.58,0.01c-0.63,0-1.1-0.01-1.4-0.02
		C38.57,5.72,38.42,5.71,38.33,5.69z M41.24,4.79c-0.01-0.25-0.07-0.49-0.19-0.73c-0.12-0.24-0.28-0.43-0.5-0.56
		c-0.12-0.06-0.22-0.09-0.31-0.11c-0.09-0.02-0.2-0.02-0.34-0.02c-0.52,0-0.89,0.11-1.11,0.32s-0.36,0.52-0.41,0.92
		c-0.02,0.1-0.02,0.16-0.02,0.19c0,0.1,0.05,0.16,0.14,0.19c0.09,0.03,0.29,0.05,0.59,0.05c0.3,0,0.55,0,0.76-0.01
		c0.77,0,1.2,0,1.3-0.01c0.04-0.01,0.07-0.02,0.08-0.03c0.01-0.01,0.02-0.03,0.02-0.07V4.79z"/>
	<path d="M46.58,2.7c0.18-0.01,0.42,0,0.71,0.02l0.31,0.02c0.02,0.13,0.02,0.22,0.02,0.29v0.12c-0.01,0.18-0.01,0.46-0.01,0.83
		c0,0.3,0.01,0.75,0.02,1.34l0.01,1.34c0,0.58-0.02,1.1-0.05,1.57c0,0.02,0,0.08,0,0.16s-0.01,0.15-0.02,0.22
		c-0.02,0.06-0.06,0.1-0.13,0.12h-0.2l-0.38-0.01c-0.06,0-0.12,0-0.17,0.01s-0.09,0.01-0.13,0.01c-0.08-0.02-0.12-0.11-0.12-0.26
		c-0.01-0.06-0.01-0.14,0.01-0.22c0.01-0.08,0.02-0.15,0.02-0.2c-0.19,0.26-0.5,0.44-0.91,0.54s-0.82,0.14-1.22,0.14
		c-0.38,0-0.71-0.17-0.98-0.51c-0.27-0.34-0.47-0.76-0.59-1.25S42.56,6,42.56,5.53c0-0.52,0.09-0.99,0.26-1.4
		c0.18-0.42,0.42-0.75,0.73-0.99c0.31-0.24,0.65-0.37,1.03-0.38l0.38-0.01c0.36,0,0.66,0.04,0.89,0.13s0.41,0.24,0.52,0.46
		c0-0.07,0.01-0.16,0.02-0.28c0.02-0.16,0.02-0.27,0.02-0.34C46.43,2.71,46.48,2.7,46.58,2.7z M45.24,3.78
		c-0.42-0.01-0.77,0.1-1.05,0.32c-0.28,0.22-0.46,0.48-0.52,0.79c-0.06,0.23-0.1,0.54-0.1,0.94c0.04,1.29,0.56,1.9,1.56,1.85
		c0.41,0,0.7-0.07,0.89-0.22c0.18-0.14,0.3-0.35,0.34-0.61c0.04-0.26,0.07-0.66,0.07-1.19c0-0.58-0.02-0.98-0.07-1.22
		c-0.05-0.24-0.15-0.4-0.31-0.49C45.89,3.86,45.62,3.8,45.24,3.78z"/>
	<path d="M48.18,2.72c0.12,0.02,0.29,0.02,0.5,0.02c0.07,0,0.16,0,0.26-0.01c0.1,0,0.21,0,0.33,0.01c0.13,0.45,0.36,1.3,0.71,2.56
		c0.17,0.63,0.29,1.09,0.37,1.37c0.08,0.28,0.18,0.55,0.29,0.82c0.07-0.18,0.16-0.44,0.26-0.8s0.17-0.6,0.2-0.71
		c0.39-1.34,0.73-2.4,1.01-3.2c0.07,0,0.19-0.01,0.35-0.02c0.29-0.02,0.53-0.02,0.72-0.01c-0.16,0.42-0.31,0.86-0.44,1.31
		s-0.26,0.9-0.38,1.34c-0.38,1.33-0.73,2.44-1.03,3.32c-0.13,0.02-0.33,0.04-0.61,0.04l-0.86-0.01c-0.35-1.12-0.61-1.97-0.77-2.55
		s-0.33-1.22-0.5-1.91L48.18,2.72z"/>
	<path d="M54.36,5.69V5.9l-0.01,0.35c0,0.99,0.49,1.49,1.46,1.49c0.39,0,0.68-0.09,0.87-0.27s0.28-0.43,0.28-0.74
		c0-0.05-0.01-0.14-0.02-0.26c0.17-0.02,0.32-0.04,0.47-0.04c0.13,0,0.22,0,0.29,0.01c0.05,0,0.11,0,0.17,0.01
		c0.07,0,0.15,0,0.23-0.01c0.01,0.46-0.01,0.82-0.05,1.09c-0.04,0.27-0.14,0.53-0.29,0.78c-0.14,0.22-0.39,0.37-0.75,0.46
		s-0.75,0.14-1.17,0.14c-0.19,0-0.37-0.01-0.53-0.02s-0.27-0.03-0.31-0.05c-0.62-0.1-1.08-0.5-1.36-1.18
		c-0.28-0.68-0.4-1.47-0.36-2.35c0.01-0.06,0.02-0.2,0.04-0.4c0.02-0.2,0.04-0.41,0.07-0.63c0.03-0.22,0.08-0.43,0.16-0.64
		c0.15-0.35,0.43-0.62,0.83-0.82c0.4-0.19,0.84-0.29,1.33-0.29c0.26,0,0.52,0.03,0.8,0.1c1.09,0.18,1.63,1,1.63,2.46
		c0,0.12-0.01,0.29-0.02,0.52c-0.15,0.05-0.6,0.09-1.34,0.12c-0.09,0.01-0.28,0.01-0.58,0.01c-0.63,0-1.1-0.01-1.4-0.02
		C54.6,5.72,54.45,5.71,54.36,5.69z M57.27,4.79c-0.01-0.25-0.07-0.49-0.19-0.73c-0.12-0.24-0.28-0.43-0.5-0.56
		c-0.12-0.06-0.22-0.09-0.31-0.11c-0.09-0.02-0.2-0.02-0.34-0.02c-0.52,0-0.89,0.11-1.11,0.32s-0.36,0.52-0.41,0.92
		c-0.02,0.1-0.02,0.16-0.02,0.19c0,0.1,0.05,0.16,0.14,0.19c0.09,0.03,0.29,0.05,0.59,0.05c0.3,0,0.55,0,0.76-0.01
		c0.77,0,1.2,0,1.3-0.01c0.04-0.01,0.07-0.02,0.08-0.03c0.01-0.01,0.02-0.03,0.02-0.07V4.79z"/>
	<path d="M63.57,4.28c0,0.04-0.14,0.06-0.42,0.06c-0.21,0-0.36,0-0.46-0.01c-0.06,0-0.13,0-0.19-0.01c-0.06,0-0.12,0-0.16,0.01
		c0-0.01,0-0.15,0-0.41c0-0.27-0.23-0.43-0.7-0.49c-0.1-0.02-0.26-0.02-0.47-0.02c-0.22,0-0.43,0.02-0.61,0.05
		c-0.18,0.03-0.31,0.08-0.4,0.13c-0.1,0.08-0.18,0.2-0.24,0.35c-0.06,0.15-0.08,0.3-0.08,0.44c0,0.11,0.02,0.19,0.05,0.23
		c0.09,0.18,0.2,0.31,0.35,0.38c0.08,0.06,0.28,0.12,0.59,0.2c0.31,0.08,0.58,0.12,0.8,0.13c0.33,0.01,0.62,0.06,0.87,0.15
		s0.45,0.22,0.59,0.38c0.14,0.18,0.25,0.35,0.32,0.52c0.07,0.17,0.1,0.36,0.1,0.56c0,0.25-0.06,0.55-0.18,0.9
		c-0.18,0.38-0.46,0.65-0.84,0.83c-0.38,0.18-0.82,0.26-1.31,0.25c-0.54,0.02-1.01-0.05-1.42-0.21c-0.41-0.16-0.72-0.39-0.95-0.7
		c-0.22-0.31-0.34-0.68-0.34-1.1V6.84c0.14-0.02,0.36-0.02,0.64-0.02c0.31,0,0.48,0.01,0.5,0.04c0.02,0.02,0.05,0.11,0.1,0.27
		c0.05,0.16,0.15,0.33,0.28,0.5c0.14,0.17,0.37,0.26,0.7,0.29c0.26,0.02,0.41,0.02,0.46,0.02c0.13,0,0.23-0.01,0.32-0.04
		c0.08-0.02,0.19-0.07,0.33-0.13c0.41-0.18,0.61-0.45,0.6-0.8c0.01-0.23-0.05-0.41-0.19-0.54c-0.13-0.13-0.3-0.21-0.5-0.26
		c-0.2-0.04-0.47-0.09-0.82-0.13c-0.25-0.02-0.45-0.05-0.6-0.07c-0.15-0.02-0.29-0.06-0.41-0.12c-0.42-0.14-0.73-0.35-0.95-0.64
		c-0.22-0.29-0.33-0.61-0.33-0.95c0-0.38,0.11-0.72,0.33-1.03c0.22-0.31,0.52-0.51,0.91-0.61c0.33-0.09,0.75-0.13,1.26-0.13
		c0.12,0,0.3,0.01,0.54,0.02c0.34,0.02,0.66,0.08,0.96,0.18c0.28,0.12,0.51,0.33,0.68,0.62C63.49,3.6,63.57,3.92,63.57,4.28z"/>
	<path d="M71.69,8.66l-3.24,0.06l-1.37,0.01h-0.54c-0.01-0.01-0.01-0.02-0.01-0.04l0.01-0.36c0.01-0.47,0.04-0.86,0.11-1.16
		s0.22-0.61,0.48-0.93c0.26-0.28,0.54-0.53,0.85-0.75c0.31-0.22,0.73-0.49,1.25-0.82c0.09-0.06,0.18-0.11,0.29-0.17
		c0.1-0.06,0.21-0.13,0.32-0.21c0.48-0.25,0.73-0.57,0.76-0.96l0.01-0.28c0-0.62-0.11-1.05-0.33-1.27
		c-0.22-0.22-0.52-0.33-0.89-0.33c-0.02,0-0.2,0.01-0.54,0.04c-0.34,0.04-0.6,0.22-0.76,0.55c-0.16,0.32-0.25,0.68-0.25,1.07
		l0.01,0.43v0.08l-0.01,0.02c-0.29,0.05-0.55,0.07-0.79,0.07c-0.09,0-0.23-0.01-0.42-0.02l-0.01-0.02
		c-0.05-0.26-0.07-0.52-0.07-0.78c0-0.82,0.22-1.48,0.67-1.99c0.18-0.24,0.47-0.42,0.85-0.54c0.38-0.12,0.8-0.18,1.25-0.18
		c0.52,0,0.96,0.07,1.33,0.22c0.48,0.25,0.81,0.64,0.98,1.17c0.17,0.53,0.25,1.17,0.22,1.91c-0.03,0.34-0.13,0.63-0.29,0.87
		c-0.16,0.24-0.36,0.43-0.59,0.59c-0.23,0.16-0.53,0.33-0.91,0.53c-0.32,0.17-0.58,0.31-0.78,0.44s-0.38,0.27-0.55,0.44
		c-0.21,0.22-0.38,0.42-0.53,0.6s-0.22,0.32-0.22,0.43c0,0.06,0.02,0.1,0.07,0.12c0.59,0.02,1.1,0.02,1.54,0.02
		c0.41,0,0.95-0.02,1.62-0.05l0.38-0.01c0.05,0.14,0.07,0.31,0.07,0.49l-0.01,0.4c0,0.1,0,0.16,0,0.16S71.66,8.57,71.69,8.66z"/>
	<path d="M75.3,2.66c0.06-0.01,0.17-0.01,0.34,0c0.24,0.02,0.5,0.02,0.79,0.02v0.04c0,0.36-0.01,0.92-0.02,1.67
		c-0.02,0.77-0.04,1.54-0.04,2.33c0,0.74,0.02,1.39,0.05,1.97c-0.11,0.02-0.28,0.04-0.5,0.04c-0.22,0-0.36,0-0.41,0
		c-0.14,0-0.23,0-0.26,0.01c0.01-0.23,0.01-0.58,0.01-1.06V6.6V5.59c-0.02-0.56-0.02-0.99-0.02-1.3c0-0.55,0.02-1.09,0.07-1.62V2.66
		z M75.25,0.08c0.5,0.02,0.87,0.02,1.13,0.02l0.04,1.58c-0.08,0.04-0.22,0.06-0.43,0.06c-0.13,0-0.22,0-0.29-0.01
		c-0.05,0-0.1,0-0.17-0.01s-0.14,0-0.23,0.01c0-0.12-0.01-0.32-0.02-0.59C75.25,0.62,75.24,0.27,75.25,0.08z"/>
	<path d="M78.6,2.76c0.02,0.09,0.02,0.2,0.02,0.34v0.3c0.27-0.16,0.59-0.3,0.96-0.43c0.37-0.12,0.74-0.19,1.1-0.19
		c0.44,0.02,0.8,0.14,1.08,0.37c0.19,0.17,0.29,0.85,0.29,2.05c0,0.3-0.01,0.78-0.02,1.42c-0.02,0.61-0.02,1.05-0.02,1.32
		c0,0.35,0,0.6,0.01,0.76c-0.15,0.02-0.37,0.04-0.66,0.04h-0.4c-0.02-0.13-0.02-0.35-0.02-0.67V7.55l0.01-0.77
		c0.02-0.52,0.02-0.89,0.01-1.12c0-0.05-0.01-0.21-0.03-0.49s-0.07-0.53-0.14-0.74c-0.02-0.28-0.22-0.41-0.59-0.38
		c-0.55,0.01-0.96,0.08-1.22,0.23c-0.26,0.14-0.41,0.4-0.44,0.78c-0.01,0.1-0.01,0.3-0.01,0.59c0,0.45,0.01,0.93,0.02,1.44
		c0.02,0.3,0.02,0.53,0.02,0.67c0,0.3-0.01,0.6-0.04,0.91v0.05c-0.15,0.03-0.3,0.05-0.45,0.04c-0.15,0-0.25-0.01-0.32-0.01
		c-0.13,0-0.23,0-0.3,0.01L77.47,6.7c-0.02-0.94-0.02-1.65-0.02-2.12c0-0.38,0.01-0.99,0.02-1.82c0.1,0.01,0.21,0.01,0.34,0.01
		s0.23,0,0.31-0.01c0.05,0,0.1,0,0.17-0.01c0.06-0.01,0.13-0.01,0.19-0.01C78.56,2.72,78.6,2.74,78.6,2.76z"/>
	<path d="M86.46,6.37c0.1,0.02,0.18,0.02,0.26,0.02l0.42-0.01c0.13,0,0.24,0.01,0.34,0.04C87.44,6.97,87.4,7.4,87.35,7.7
		c-0.04,0.3-0.11,0.5-0.21,0.6c-0.15,0.22-0.36,0.36-0.63,0.44c-0.27,0.08-0.59,0.12-0.95,0.12c-0.14,0-0.36-0.01-0.65-0.02
		l-0.55-0.01c-0.47-0.08-0.82-0.26-1.06-0.53c-0.23-0.28-0.38-0.6-0.45-0.98s-0.11-0.87-0.14-1.49c0-0.45,0-0.78-0.01-0.98
		c0-0.47,0.09-1,0.26-1.57c0.1-0.23,0.33-0.41,0.67-0.52c0.34-0.12,0.72-0.17,1.13-0.17c0.06,0.01,0.16,0.01,0.28,0.01
		c0.07,0,0.16,0,0.27-0.01c0.11,0,0.24,0,0.39,0.01c0.6,0.06,1.04,0.22,1.33,0.5c0.18,0.13,0.3,0.33,0.35,0.61
		c0.05,0.28,0.09,0.7,0.1,1.26l0.01,0.29c-0.12,0.02-0.24,0.04-0.36,0.04c-0.21,0-0.42-0.02-0.64-0.06
		C86.5,4.66,86.4,4.28,86.2,4.07c-0.2-0.21-0.51-0.31-0.93-0.31c-0.09,0-0.24,0.01-0.47,0.02c-0.21,0.01-0.37,0.03-0.49,0.06
		c-0.12,0.03-0.22,0.11-0.31,0.23s-0.15,0.3-0.19,0.55c-0.02,0.17-0.04,0.47-0.04,0.9v0.96c-0.02,0.26,0.05,0.54,0.19,0.82
		s0.43,0.45,0.86,0.49c0.08,0.01,0.19,0.01,0.32,0.01c0.38,0,0.66-0.07,0.84-0.22c0.18-0.14,0.3-0.31,0.35-0.5
		C86.41,6.9,86.44,6.66,86.46,6.37z"/>
	<path d="M89.24,2.29v1.07c0.22-0.18,0.41-0.32,0.57-0.41c0.16-0.09,0.41-0.15,0.73-0.17c0.19-0.02,0.37-0.04,0.54-0.04
		c0.58,0,1.04,0.14,1.37,0.42c0.1,0.09,0.18,0.3,0.22,0.62c0.04,0.33,0.06,0.76,0.06,1.3c0,0.3-0.01,0.78-0.02,1.44
		c-0.02,0.64-0.02,1.1-0.02,1.37c0,0.22,0.01,0.5,0.02,0.82c-0.32,0.05-0.66,0.06-1.03,0.05c-0.02-0.24-0.02-0.45-0.02-0.62V7.4
		V5.05c-0.02-0.51-0.14-0.84-0.36-1c-0.05-0.03-0.14-0.06-0.29-0.1c-0.17-0.05-0.34-0.07-0.52-0.07c-0.31,0-0.58,0.08-0.8,0.23
		c-0.22,0.16-0.36,0.4-0.43,0.73c-0.06,0.3-0.08,0.67-0.08,1.09l0.01,0.41c0.02,0.53,0.02,0.96,0.02,1.31c0,0.43-0.01,0.76-0.02,1
		V8.7c-0.16,0.04-0.29,0.06-0.38,0.06l-0.36-0.01c-0.11,0-0.2,0-0.28,0.01c0-0.92,0-1.68-0.01-2.28l-0.01-3.67
		c0-0.9,0.01-1.82,0.02-2.76c0.25,0.02,0.45,0.03,0.6,0.02c0.04,0,0.09,0,0.15-0.01s0.12-0.01,0.19-0.01c0.08,0,0.12,0.01,0.12,0.04
		c0.02,0.07,0.02,0.56,0.02,1.46V2.29z"/>
	<path d="M94.43,5.69V5.9l-0.01,0.35c0,0.99,0.49,1.49,1.46,1.49c0.39,0,0.68-0.09,0.87-0.27s0.28-0.43,0.28-0.74
		c0-0.05-0.01-0.14-0.02-0.26c0.17-0.02,0.32-0.04,0.47-0.04c0.13,0,0.22,0,0.29,0.01c0.05,0,0.11,0,0.17,0.01
		c0.07,0,0.15,0,0.23-0.01c0.01,0.46-0.01,0.82-0.05,1.09c-0.04,0.27-0.14,0.53-0.29,0.78c-0.14,0.22-0.39,0.37-0.75,0.46
		s-0.75,0.14-1.17,0.14c-0.19,0-0.37-0.01-0.53-0.02s-0.27-0.03-0.31-0.05c-0.62-0.1-1.08-0.5-1.36-1.18
		c-0.28-0.68-0.4-1.47-0.36-2.35c0.01-0.06,0.02-0.2,0.04-0.4c0.02-0.2,0.04-0.41,0.07-0.63c0.03-0.22,0.08-0.43,0.16-0.64
		c0.15-0.35,0.43-0.62,0.83-0.82c0.4-0.19,0.84-0.29,1.33-0.29c0.26,0,0.52,0.03,0.8,0.1c1.09,0.18,1.63,1,1.63,2.46
		c0,0.12-0.01,0.29-0.02,0.52c-0.15,0.05-0.6,0.09-1.34,0.12c-0.09,0.01-0.28,0.01-0.58,0.01c-0.63,0-1.1-0.01-1.4-0.02
		C94.67,5.72,94.52,5.71,94.43,5.69z M97.34,4.79c-0.01-0.25-0.07-0.49-0.19-0.73c-0.12-0.24-0.28-0.43-0.5-0.56
		c-0.12-0.06-0.22-0.09-0.31-0.11c-0.09-0.02-0.2-0.02-0.34-0.02c-0.52,0-0.89,0.11-1.11,0.32s-0.36,0.52-0.41,0.92
		c-0.02,0.1-0.02,0.16-0.02,0.19c0,0.1,0.05,0.16,0.14,0.19c0.09,0.03,0.29,0.05,0.59,0.05c0.3,0,0.55,0,0.76-0.01
		c0.77,0,1.2,0,1.3-0.01c0.04-0.01,0.07-0.02,0.08-0.03c0.01-0.01,0.02-0.03,0.02-0.07V4.79z"/>
	<path d="M103.64,4.28c0,0.04-0.14,0.06-0.42,0.06c-0.21,0-0.36,0-0.46-0.01c-0.06,0-0.13,0-0.19-0.01c-0.06,0-0.12,0-0.16,0.01
		c0-0.01,0-0.15,0-0.41c0-0.27-0.23-0.43-0.7-0.49c-0.1-0.02-0.26-0.02-0.47-0.02c-0.22,0-0.43,0.02-0.61,0.05
		c-0.18,0.03-0.31,0.08-0.4,0.13c-0.1,0.08-0.18,0.2-0.24,0.35c-0.06,0.15-0.08,0.3-0.08,0.44c0,0.11,0.02,0.19,0.05,0.23
		c0.09,0.18,0.2,0.31,0.35,0.38c0.08,0.06,0.28,0.12,0.59,0.2c0.31,0.08,0.58,0.12,0.8,0.13c0.33,0.01,0.62,0.06,0.87,0.15
		s0.45,0.22,0.59,0.38c0.14,0.18,0.25,0.35,0.32,0.52c0.07,0.17,0.1,0.36,0.1,0.56c0,0.25-0.06,0.55-0.18,0.9
		c-0.18,0.38-0.46,0.65-0.84,0.83c-0.38,0.18-0.82,0.26-1.31,0.25c-0.54,0.02-1.01-0.05-1.42-0.21C99.44,8.55,99.12,8.32,98.9,8
		c-0.22-0.31-0.34-0.68-0.34-1.1V6.84c0.14-0.02,0.36-0.02,0.64-0.02c0.31,0,0.48,0.01,0.5,0.04c0.02,0.02,0.05,0.11,0.1,0.27
		c0.05,0.16,0.15,0.33,0.28,0.5c0.14,0.17,0.37,0.26,0.7,0.29c0.26,0.02,0.41,0.02,0.46,0.02c0.13,0,0.23-0.01,0.32-0.04
		c0.08-0.02,0.19-0.07,0.33-0.13c0.41-0.18,0.61-0.45,0.6-0.8c0.01-0.23-0.05-0.41-0.19-0.54c-0.13-0.13-0.3-0.21-0.5-0.26
		c-0.2-0.04-0.47-0.09-0.82-0.13c-0.25-0.02-0.45-0.05-0.6-0.07c-0.15-0.02-0.29-0.06-0.41-0.12c-0.42-0.14-0.73-0.35-0.95-0.64
		c-0.22-0.29-0.33-0.61-0.33-0.95c0-0.38,0.11-0.72,0.33-1.03c0.22-0.31,0.52-0.51,0.91-0.61c0.33-0.09,0.75-0.13,1.26-0.13
		c0.12,0,0.3,0.01,0.54,0.02c0.34,0.02,0.66,0.08,0.96,0.18c0.28,0.12,0.51,0.33,0.68,0.62C103.55,3.6,103.64,3.92,103.64,4.28z"/>
	<path d="M106.96,0l1.09,0.04c0,0.33-0.01,1.14-0.02,2.44c-0.02,1.6-0.02,2.86-0.02,3.77c0,1.01,0.01,1.81,0.04,2.41
		c-0.05,0.06-0.18,0.08-0.4,0.08l-0.37-0.01c-0.07-0.01-0.16-0.01-0.26-0.01c-0.06,0-0.1,0-0.12,0.01c0.05-0.65,0.07-1.3,0.07-1.96
		c0-0.5-0.02-1.24-0.05-2.23c-0.03-0.99-0.05-1.74-0.05-2.24C106.87,1.44,106.9,0.68,106.96,0z"/>
	<path d="M108.99,4.82c0-0.3,0.01-0.55,0.04-0.77c0.03-0.22,0.1-0.48,0.21-0.8c0.1-0.23,0.33-0.41,0.67-0.52
		c0.34-0.12,0.72-0.17,1.13-0.17c0.06,0.01,0.14,0.01,0.24,0.01l0.48-0.01c0.67,0,1.19,0.18,1.55,0.53c0.14,0.1,0.25,0.28,0.33,0.54
		c0.08,0.26,0.12,0.62,0.14,1.06c0.02,0.44,0.02,0.7,0.02,0.77c-0.03,0.8-0.07,1.44-0.11,1.91c-0.04,0.47-0.13,0.78-0.27,0.91
		c-0.15,0.22-0.36,0.36-0.63,0.44s-0.59,0.12-0.95,0.12c-0.14,0-0.36-0.01-0.65-0.02l-0.55-0.01c-0.47-0.08-0.83-0.25-1.06-0.52
		c-0.24-0.26-0.39-0.57-0.46-0.92c-0.07-0.35-0.1-0.78-0.1-1.27V5.47C109.02,5.18,109.01,4.96,108.99,4.82z M111.44,3.68
		c-0.54,0-0.94,0.14-1.18,0.42c-0.1,0.13-0.17,0.29-0.2,0.49c-0.03,0.2-0.04,0.45-0.03,0.76c-0.01,0.12-0.01,0.28,0.01,0.48
		c0.01,0.2,0.02,0.36,0.02,0.47l0.02,0.5c0.02,0.32,0.11,0.55,0.27,0.68c0.16,0.13,0.35,0.22,0.59,0.27
		c0.16,0.02,0.32,0.04,0.49,0.04c0.31,0,0.58-0.06,0.82-0.17c0.23-0.11,0.38-0.3,0.44-0.55c0.03-0.21,0.05-0.37,0.05-0.49
		c0.04-0.56,0.06-0.94,0.06-1.14c0-0.53-0.1-0.95-0.29-1.27C112.33,3.84,111.97,3.68,111.44,3.68z"/>
	<path d="M115.65,2.76c0.02,0.09,0.02,0.2,0.02,0.34v0.3c0.27-0.16,0.59-0.3,0.96-0.43c0.37-0.12,0.74-0.19,1.1-0.19
		c0.44,0.02,0.8,0.14,1.08,0.37c0.19,0.17,0.29,0.85,0.29,2.05c0,0.3-0.01,0.78-0.02,1.42c-0.02,0.61-0.02,1.05-0.02,1.32
		c0,0.35,0,0.6,0.01,0.76c-0.15,0.02-0.37,0.04-0.66,0.04h-0.4c-0.02-0.13-0.02-0.35-0.02-0.67V7.55L118,6.78
		c0.02-0.52,0.02-0.89,0.01-1.12c0-0.05-0.01-0.21-0.03-0.49s-0.07-0.53-0.14-0.74c-0.02-0.28-0.22-0.41-0.59-0.38
		c-0.55,0.01-0.96,0.08-1.22,0.23c-0.26,0.14-0.41,0.4-0.44,0.78c-0.01,0.1-0.01,0.3-0.01,0.59c0,0.45,0.01,0.93,0.02,1.44
		c0.02,0.3,0.02,0.53,0.02,0.67c0,0.3-0.01,0.6-0.04,0.91v0.05c-0.15,0.03-0.3,0.05-0.45,0.04c-0.15,0-0.25-0.01-0.32-0.01
		c-0.13,0-0.23,0-0.3,0.01l-0.01-2.06c-0.02-0.94-0.02-1.65-0.02-2.12c0-0.38,0.01-0.99,0.02-1.82c0.1,0.01,0.21,0.01,0.34,0.01
		s0.23,0,0.31-0.01c0.05,0,0.1,0,0.17-0.01c0.06-0.01,0.13-0.01,0.19-0.01C115.61,2.72,115.65,2.74,115.65,2.76z"/>
	<path d="M124.51,10.28c-0.15,0.34-0.34,0.57-0.58,0.68c-0.23,0.11-0.5,0.18-0.8,0.2c-0.35,0.02-0.57,0.02-0.66,0.02
		c-0.15,0-0.35-0.01-0.59-0.02c-0.53-0.04-0.97-0.22-1.33-0.53c-0.36-0.31-0.54-0.7-0.54-1.18c0-0.1,0-0.18,0.01-0.24
		c0.04-0.02,0.15-0.03,0.32-0.04c0.18-0.01,0.34-0.02,0.5-0.02c0.14,0,0.21,0.01,0.23,0.02c0.01,0.02,0.01,0.08,0.01,0.18
		c0,0.21,0.05,0.39,0.14,0.55s0.3,0.26,0.61,0.31c0.16,0.01,0.37,0.01,0.62,0.01c0.34,0,0.58-0.02,0.74-0.05
		c0.16-0.04,0.26-0.1,0.3-0.19c0.04-0.09,0.06-0.23,0.04-0.41V9.14v-0.4c0-0.04,0-0.08,0.01-0.13c0-0.05,0.01-0.12,0.02-0.2
		c-0.14,0.16-0.29,0.26-0.47,0.29c-0.18,0.03-0.51,0.05-1,0.05h-0.46c-0.8,0-1.32-0.25-1.56-0.76c-0.2-0.38-0.31-0.84-0.34-1.4
		c0-0.74,0.03-1.36,0.09-1.85c0.06-0.49,0.24-0.93,0.53-1.33c0.29-0.4,0.75-0.61,1.39-0.65c0.42-0.01,0.74,0.01,0.97,0.04
		s0.4,0.1,0.51,0.19c0.11,0.09,0.2,0.21,0.28,0.37c0.02-0.11,0.04-0.22,0.04-0.31c0-0.05,0-0.1-0.01-0.15c0-0.05,0-0.1,0.01-0.15
		c0.21-0.02,0.36-0.02,0.47-0.02l0.62,0.01c0.03,0.93,0.05,2.02,0.05,3.26c0,1.24-0.02,2.32-0.06,3.24c0,0.08,0,0.19-0.01,0.32
		s-0.01,0.27-0.02,0.39C124.57,10.08,124.55,10.19,124.51,10.28z M120.68,5.87v0.14c-0.02,0.43,0.05,0.84,0.22,1.21
		s0.48,0.58,0.94,0.6c0.12,0.01,0.28,0.01,0.49,0.01c0.43,0,0.74-0.08,0.93-0.23c0.19-0.15,0.29-0.45,0.32-0.89
		c0-0.57,0-1.02-0.01-1.37c0-0.81-0.18-1.31-0.54-1.5c-0.17-0.1-0.4-0.14-0.7-0.14c-0.16,0-0.32,0.01-0.47,0.04
		c-0.45,0.08-0.76,0.31-0.92,0.68S120.68,5.28,120.68,5.87z"/>
	<path d="M128.24,2.66c0.06-0.01,0.17-0.01,0.34,0c0.24,0.02,0.5,0.02,0.79,0.02v0.04c0,0.36-0.01,0.92-0.02,1.67
		c-0.02,0.77-0.04,1.54-0.04,2.33c0,0.74,0.02,1.39,0.05,1.97c-0.11,0.02-0.28,0.04-0.5,0.04c-0.22,0-0.36,0-0.41,0
		c-0.14,0-0.23,0-0.26,0.01c0.01-0.23,0.01-0.58,0.01-1.06V6.6V5.59c-0.02-0.56-0.02-0.99-0.02-1.3c0-0.55,0.02-1.09,0.07-1.62V2.66
		z M128.19,0.08c0.5,0.02,0.87,0.02,1.13,0.02l0.04,1.58c-0.08,0.04-0.22,0.06-0.43,0.06c-0.13,0-0.22,0-0.29-0.01
		c-0.05,0-0.1,0-0.17-0.01s-0.14,0-0.23,0.01c0-0.12-0.01-0.32-0.02-0.59C128.19,0.62,128.18,0.27,128.19,0.08z"/>
	<path d="M131.54,2.76c0.02,0.09,0.02,0.2,0.02,0.34v0.3c0.27-0.16,0.59-0.3,0.96-0.43c0.37-0.12,0.74-0.19,1.1-0.19
		c0.44,0.02,0.8,0.14,1.08,0.37C134.9,3.32,135,4.01,135,5.21c0,0.3-0.01,0.78-0.02,1.42c-0.02,0.61-0.02,1.05-0.02,1.32
		c0,0.35,0,0.6,0.01,0.76c-0.15,0.02-0.37,0.04-0.66,0.04h-0.4c-0.02-0.13-0.02-0.35-0.02-0.67V7.55l0.01-0.77
		c0.02-0.52,0.02-0.89,0.01-1.12c0-0.05-0.01-0.21-0.03-0.49s-0.07-0.53-0.14-0.74c-0.02-0.28-0.22-0.41-0.59-0.38
		c-0.55,0.01-0.96,0.08-1.22,0.23c-0.26,0.14-0.41,0.4-0.44,0.78c-0.01,0.1-0.01,0.3-0.01,0.59c0,0.45,0.01,0.93,0.02,1.44
		c0.02,0.3,0.02,0.53,0.02,0.67c0,0.3-0.01,0.6-0.04,0.91v0.05c-0.15,0.03-0.3,0.05-0.45,0.04c-0.15,0-0.25-0.01-0.32-0.01
		c-0.13,0-0.23,0-0.3,0.01l-0.01-2.06c-0.02-0.94-0.02-1.65-0.02-2.12c0-0.38,0.01-0.99,0.02-1.82c0.1,0.01,0.21,0.01,0.34,0.01
		s0.23,0,0.31-0.01c0.05,0,0.1,0,0.17-0.01c0.06-0.01,0.13-0.01,0.19-0.01C131.5,2.72,131.54,2.74,131.54,2.76z"/>
	<path d="M142.8,10.28c-0.15,0.34-0.34,0.57-0.58,0.68c-0.23,0.11-0.5,0.18-0.8,0.2c-0.35,0.02-0.57,0.02-0.66,0.02
		c-0.15,0-0.35-0.01-0.59-0.02c-0.53-0.04-0.97-0.22-1.33-0.53c-0.36-0.31-0.54-0.7-0.54-1.18c0-0.1,0-0.18,0.01-0.24
		c0.04-0.02,0.15-0.03,0.32-0.04c0.18-0.01,0.34-0.02,0.5-0.02c0.14,0,0.21,0.01,0.23,0.02c0.01,0.02,0.01,0.08,0.01,0.18
		c0,0.21,0.05,0.39,0.14,0.55s0.3,0.26,0.61,0.31c0.16,0.01,0.37,0.01,0.62,0.01c0.34,0,0.58-0.02,0.74-0.05
		c0.16-0.04,0.26-0.1,0.3-0.19c0.04-0.09,0.06-0.23,0.04-0.41V9.14v-0.4c0-0.04,0-0.08,0.01-0.13c0-0.05,0.01-0.12,0.02-0.2
		c-0.14,0.16-0.29,0.26-0.47,0.29c-0.18,0.03-0.51,0.05-1,0.05h-0.46c-0.8,0-1.32-0.25-1.56-0.76c-0.2-0.38-0.31-0.84-0.34-1.4
		c0-0.74,0.03-1.36,0.09-1.85c0.06-0.49,0.24-0.93,0.53-1.33c0.29-0.4,0.75-0.61,1.39-0.65c0.42-0.01,0.74,0.01,0.97,0.04
		s0.4,0.1,0.51,0.19c0.11,0.09,0.2,0.21,0.28,0.37c0.02-0.11,0.04-0.22,0.04-0.31c0-0.05,0-0.1-0.01-0.15c0-0.05,0-0.1,0.01-0.15
		c0.21-0.02,0.36-0.02,0.47-0.02l0.62,0.01c0.03,0.93,0.05,2.02,0.05,3.26c0,1.24-0.02,2.32-0.06,3.24c0,0.08,0,0.19-0.01,0.32
		s-0.01,0.27-0.02,0.39C142.86,10.08,142.84,10.19,142.8,10.28z M138.97,5.87v0.14c-0.02,0.43,0.05,0.84,0.22,1.21
		s0.48,0.58,0.94,0.6c0.12,0.01,0.28,0.01,0.49,0.01c0.43,0,0.74-0.08,0.93-0.23c0.19-0.15,0.29-0.45,0.32-0.89
		c0-0.57,0-1.02-0.01-1.37c0-0.81-0.18-1.31-0.54-1.5c-0.17-0.1-0.4-0.14-0.7-0.14c-0.16,0-0.32,0.01-0.47,0.04
		c-0.45,0.08-0.76,0.31-0.92,0.68S138.97,5.28,138.97,5.87z"/>
	<path d="M144.9,2.76c0,0.1,0,0.17,0.01,0.22c0,0.05,0.01,0.11,0.01,0.19c0.06-0.03,0.13-0.07,0.23-0.11s0.21-0.08,0.33-0.12
		c0.18-0.06,0.41-0.11,0.67-0.14c0.26-0.03,0.49-0.04,0.7-0.04c0.19,0,0.29,0.01,0.29,0.02l-0.01,1c0,0.16,0,0.28,0.01,0.36
		c-0.12-0.05-0.26-0.09-0.41-0.13c-0.18-0.04-0.37-0.06-0.58-0.06c-0.22,0-0.46,0.03-0.73,0.1c-0.22,0.06-0.38,0.14-0.46,0.25
		s-0.12,0.32-0.11,0.64c0.03,1.1,0.05,2.34,0.05,3.73v0.05c-0.14,0.03-0.28,0.05-0.42,0.05c-0.06,0-0.15,0-0.27-0.01
		c-0.12,0-0.25,0-0.38,0.01l-0.01-2.06c-0.02-0.94-0.02-1.65-0.02-2.12c0-0.38,0.01-0.99,0.02-1.82c0.08,0.01,0.17,0.01,0.26,0.01
		c0.09,0,0.17-0.01,0.25-0.01c0.1-0.01,0.22-0.01,0.38-0.01C144.83,2.74,144.9,2.74,144.9,2.76z"/>
	<path d="M147.73,4.82c0-0.3,0.01-0.55,0.04-0.77c0.03-0.22,0.1-0.48,0.21-0.8c0.1-0.23,0.33-0.41,0.67-0.52
		c0.34-0.12,0.72-0.17,1.13-0.17c0.06,0.01,0.14,0.01,0.24,0.01l0.48-0.01c0.67,0,1.19,0.18,1.55,0.53c0.14,0.1,0.25,0.28,0.33,0.54
		c0.08,0.26,0.12,0.62,0.14,1.06c0.02,0.44,0.02,0.7,0.02,0.77c-0.03,0.8-0.07,1.44-0.11,1.91c-0.04,0.47-0.13,0.78-0.27,0.91
		c-0.15,0.22-0.36,0.36-0.63,0.44s-0.59,0.12-0.95,0.12c-0.14,0-0.36-0.01-0.65-0.02l-0.55-0.01c-0.47-0.08-0.83-0.25-1.06-0.52
		c-0.24-0.26-0.39-0.57-0.46-0.92c-0.07-0.35-0.1-0.78-0.1-1.27V5.47C147.75,5.18,147.74,4.96,147.73,4.82z M150.18,3.68
		c-0.54,0-0.94,0.14-1.18,0.42c-0.1,0.13-0.17,0.29-0.2,0.49c-0.03,0.2-0.04,0.45-0.03,0.76c-0.01,0.12-0.01,0.28,0.01,0.48
		c0.01,0.2,0.02,0.36,0.02,0.47l0.02,0.5c0.02,0.32,0.11,0.55,0.27,0.68c0.16,0.13,0.35,0.22,0.59,0.27
		c0.16,0.02,0.32,0.04,0.49,0.04c0.31,0,0.58-0.06,0.82-0.17c0.23-0.11,0.38-0.3,0.44-0.55c0.03-0.21,0.05-0.37,0.05-0.49
		c0.04-0.56,0.06-0.94,0.06-1.14c0-0.53-0.1-0.95-0.29-1.27C151.06,3.84,150.7,3.68,150.18,3.68z"/>
	<path d="M156.73,8.72c-0.01-0.15-0.01-0.28-0.01-0.38s0-0.19-0.01-0.26c-0.02,0.01-0.08,0.05-0.19,0.13
		c-0.11,0.08-0.29,0.15-0.54,0.2c-0.46,0.17-0.92,0.25-1.36,0.25c-0.5,0-0.87-0.12-1.12-0.36c-0.14-0.12-0.22-0.32-0.25-0.61
		c-0.03-0.28-0.05-0.74-0.06-1.36V5.98c0-0.25,0.01-0.61,0.02-1.09c0.02-0.48,0.04-0.94,0.04-1.37c0-0.21-0.01-0.46-0.02-0.77
		c0.14-0.02,0.34-0.02,0.59-0.02h0.4c0.02,0.24,0.04,0.52,0.04,0.85l-0.01,0.97c0,0.32,0,0.55,0.01,0.7l0.01,0.34
		c0,0.29,0.01,0.62,0.04,1.01c0.02,0.26,0.07,0.46,0.16,0.6c0.09,0.14,0.23,0.23,0.41,0.28c0.16,0.02,0.31,0.04,0.44,0.04
		c0.47,0,0.83-0.13,1.09-0.38c0.25-0.26,0.38-0.6,0.39-1.04c0.01-0.29,0-0.81-0.04-1.57c-0.02-0.38-0.02-0.64-0.02-0.76
		c0-0.22,0.01-0.52,0.02-0.92V2.77c0.13-0.03,0.25-0.05,0.37-0.06c0.12-0.01,0.19-0.01,0.21-0.01c0.17,0,0.31,0,0.43-0.01l0.01,2.06
		c0.02,0.94,0.02,1.65,0.02,2.12c0,0.38-0.01,0.99-0.02,1.82c-0.18,0-0.37,0.01-0.59,0.04c-0.04,0-0.09,0-0.15,0.01
		c-0.06,0.01-0.12,0.01-0.19,0.01C156.77,8.76,156.73,8.75,156.73,8.72z"/>
	<path d="M159.73,11.02v0.13c0,0.02-0.05,0.03-0.16,0.04s-0.22,0.02-0.35,0.02c-0.18,0-0.36-0.01-0.52-0.04v-0.79
		c0-0.75-0.02-1.86-0.05-3.31c-0.01-0.35-0.02-0.78-0.02-1.29c-0.01-0.51-0.01-1.08-0.01-1.72c0-0.59,0-1.03,0.01-1.32l0.78-0.01
		c0.16,0,0.28,0,0.35,0.01c0.01,0.01,0.01,0.04,0.02,0.1c0,0.06,0.01,0.12,0.01,0.19c0,0.03,0,0.07,0.01,0.11
		c0,0.04,0,0.1-0.01,0.17c0.01,0.04,0.02,0.06,0.04,0.05s0.05-0.03,0.08-0.09c0.14-0.18,0.34-0.32,0.59-0.4
		c0.25-0.08,0.5-0.12,0.76-0.12c0.13,0,0.22,0,0.26,0.01c0.55,0.04,0.97,0.21,1.27,0.52c0.29,0.3,0.49,0.69,0.58,1.15
		s0.15,1.04,0.17,1.72c0,0.61-0.08,1.14-0.23,1.58c-0.16,0.45-0.4,0.73-0.74,0.85c-0.2,0.08-0.44,0.13-0.72,0.16
		c-0.09,0.01-0.23,0.01-0.42,0.01c-0.4,0-0.77-0.03-1.12-0.1c-0.34-0.06-0.52-0.14-0.54-0.24l0.02,1.46c0,0.18-0.01,0.39-0.02,0.65
		L159.73,11.02z M160.82,7.82c0.38,0,0.66-0.02,0.86-0.05s0.36-0.12,0.5-0.25c0.14-0.13,0.25-0.35,0.34-0.64
		c0.06-0.31,0.1-0.6,0.1-0.88c0-0.64-0.11-1.19-0.34-1.66s-0.67-0.67-1.31-0.62c-0.38,0.03-0.67,0.14-0.85,0.32
		c-0.18,0.18-0.29,0.42-0.34,0.71S159.7,5.46,159.7,6c0,0.57,0.02,0.97,0.07,1.22s0.15,0.41,0.29,0.49S160.47,7.82,160.82,7.82z"/>
	<path d="M168.99,4.28c0,0.04-0.14,0.06-0.42,0.06c-0.21,0-0.36,0-0.46-0.01c-0.06,0-0.13,0-0.19-0.01c-0.06,0-0.12,0-0.16,0.01
		c0-0.01,0-0.15,0-0.41c0-0.27-0.23-0.43-0.7-0.49c-0.1-0.02-0.26-0.02-0.47-0.02c-0.22,0-0.43,0.02-0.61,0.05
		c-0.18,0.03-0.31,0.08-0.4,0.13c-0.1,0.08-0.18,0.2-0.24,0.35c-0.06,0.15-0.08,0.3-0.08,0.44c0,0.11,0.02,0.19,0.05,0.23
		c0.09,0.18,0.2,0.31,0.35,0.38c0.08,0.06,0.28,0.12,0.59,0.2c0.31,0.08,0.58,0.12,0.8,0.13c0.33,0.01,0.62,0.06,0.87,0.15
		s0.45,0.22,0.59,0.38c0.14,0.18,0.25,0.35,0.32,0.52c0.07,0.17,0.1,0.36,0.1,0.56c0,0.25-0.06,0.55-0.18,0.9
		c-0.18,0.38-0.46,0.65-0.84,0.83c-0.38,0.18-0.82,0.26-1.31,0.25c-0.54,0.02-1.01-0.05-1.42-0.21c-0.41-0.16-0.72-0.39-0.95-0.7
		c-0.22-0.31-0.34-0.68-0.34-1.1V6.84c0.14-0.02,0.36-0.02,0.64-0.02c0.31,0,0.48,0.01,0.5,0.04c0.02,0.02,0.05,0.11,0.1,0.27
		c0.05,0.16,0.15,0.33,0.28,0.5c0.14,0.17,0.37,0.26,0.7,0.29c0.26,0.02,0.41,0.02,0.46,0.02c0.13,0,0.23-0.01,0.32-0.04
		c0.08-0.02,0.19-0.07,0.33-0.13c0.41-0.18,0.61-0.45,0.6-0.8c0.01-0.23-0.05-0.41-0.19-0.54c-0.13-0.13-0.3-0.21-0.5-0.26
		c-0.2-0.04-0.47-0.09-0.82-0.13c-0.25-0.02-0.45-0.05-0.6-0.07c-0.15-0.02-0.29-0.06-0.41-0.12c-0.42-0.14-0.73-0.35-0.95-0.64
		c-0.22-0.29-0.33-0.61-0.33-0.95c0-0.38,0.11-0.72,0.33-1.03c0.22-0.31,0.52-0.51,0.91-0.61c0.33-0.09,0.75-0.13,1.26-0.13
		c0.12,0,0.3,0.01,0.54,0.02c0.34,0.02,0.66,0.08,0.96,0.18c0.28,0.12,0.51,0.33,0.68,0.62C168.9,3.6,168.99,3.92,168.99,4.28z"/>
	<path d="M171.87,4.82c0-0.3,0.01-0.55,0.04-0.77c0.03-0.22,0.1-0.48,0.21-0.8c0.1-0.23,0.33-0.41,0.67-0.52
		c0.34-0.12,0.72-0.17,1.13-0.17c0.06,0.01,0.14,0.01,0.24,0.01l0.48-0.01c0.67,0,1.19,0.18,1.55,0.53c0.14,0.1,0.25,0.28,0.33,0.54
		c0.08,0.26,0.12,0.62,0.14,1.06c0.02,0.44,0.02,0.7,0.02,0.77c-0.03,0.8-0.07,1.44-0.11,1.91c-0.04,0.47-0.13,0.78-0.27,0.91
		c-0.15,0.22-0.36,0.36-0.63,0.44s-0.59,0.12-0.95,0.12c-0.14,0-0.36-0.01-0.65-0.02l-0.55-0.01c-0.47-0.08-0.83-0.25-1.06-0.52
		c-0.24-0.26-0.39-0.57-0.46-0.92c-0.07-0.35-0.1-0.78-0.1-1.27V5.47C171.9,5.18,171.89,4.96,171.87,4.82z M174.32,3.68
		c-0.54,0-0.94,0.14-1.18,0.42c-0.1,0.13-0.17,0.29-0.2,0.49c-0.03,0.2-0.04,0.45-0.03,0.76c-0.01,0.12-0.01,0.28,0.01,0.48
		c0.01,0.2,0.02,0.36,0.02,0.47l0.02,0.5c0.02,0.32,0.11,0.55,0.27,0.68c0.16,0.13,0.35,0.22,0.59,0.27
		c0.16,0.02,0.32,0.04,0.49,0.04c0.31,0,0.58-0.06,0.82-0.17c0.23-0.11,0.38-0.3,0.44-0.55c0.03-0.21,0.05-0.37,0.05-0.49
		c0.04-0.56,0.06-0.94,0.06-1.14c0-0.53-0.1-0.95-0.29-1.27C175.21,3.84,174.85,3.68,174.32,3.68z"/>
	<path d="M179.28,4.25v4.44c-0.12-0.01-0.26,0-0.42,0.01l-0.29,0.01c-0.13,0-0.23-0.01-0.31-0.02c-0.03-0.19-0.05-0.89-0.05-2.09
		l0.01-1.45c0.01-0.24,0.01-0.54,0.01-0.9c-0.09,0.01-0.26,0.01-0.53,0.01c-0.07-0.01-0.18-0.01-0.31-0.01c-0.12,0-0.21,0-0.26,0.01
		l-0.04-1.03c0.59,0,0.96,0,1.12,0.01l-0.01-0.48c0-0.6,0.09-1.1,0.28-1.51c0.19-0.41,0.55-0.65,1.09-0.72
		c0.44-0.04,0.91-0.06,1.42-0.06h0.47c0.05,0.15,0.07,0.31,0.07,0.48c0,0.09-0.02,0.29-0.06,0.61c-0.14-0.01-0.58,0-1.34,0.04
		c-0.26,0.02-0.43,0.04-0.53,0.07c-0.1,0.03-0.17,0.1-0.22,0.22c-0.05,0.12-0.07,0.33-0.07,0.64c0,0.1,0.01,0.36,0.02,0.76
		c0.47-0.01,1.18-0.01,2.11-0.01c-0.01,0.03-0.02,0.16-0.04,0.4c0,0.24-0.01,0.45-0.02,0.64L180,4.26L179.28,4.25z"/>
	<path d="M185.92,4.25v4.44c-0.12-0.01-0.26,0-0.42,0.01l-0.29,0.01c-0.13,0-0.23-0.01-0.31-0.02c-0.03-0.19-0.05-0.89-0.05-2.09
		l0.01-1.45c0.01-0.24,0.01-0.54,0.01-0.9c-0.09,0.01-0.26,0.01-0.53,0.01c-0.07-0.01-0.18-0.01-0.31-0.01c-0.12,0-0.21,0-0.26,0.01
		l-0.04-1.03c0.59,0,0.96,0,1.12,0.01l-0.01-0.48c0-0.6,0.09-1.1,0.28-1.51c0.19-0.41,0.55-0.65,1.09-0.72
		c0.44-0.04,0.91-0.06,1.42-0.06h0.47c0.05,0.15,0.07,0.31,0.07,0.48c0,0.09-0.02,0.29-0.06,0.61c-0.14-0.01-0.58,0-1.34,0.04
		c-0.26,0.02-0.43,0.04-0.53,0.07c-0.1,0.03-0.17,0.1-0.22,0.22c-0.05,0.12-0.07,0.33-0.07,0.64c0,0.1,0.01,0.36,0.02,0.76
		c0.47-0.01,1.18-0.01,2.11-0.01c-0.01,0.03-0.02,0.16-0.04,0.4c0,0.24-0.01,0.45-0.02,0.64l-1.38-0.04L185.92,4.25z"/>
	<path d="M188.44,4.82c0-0.3,0.01-0.55,0.04-0.77c0.03-0.22,0.1-0.48,0.21-0.8c0.1-0.23,0.33-0.41,0.67-0.52
		c0.34-0.12,0.72-0.17,1.13-0.17c0.06,0.01,0.14,0.01,0.24,0.01l0.48-0.01c0.67,0,1.19,0.18,1.55,0.53c0.14,0.1,0.25,0.28,0.33,0.54
		c0.08,0.26,0.12,0.62,0.14,1.06c0.02,0.44,0.02,0.7,0.02,0.77c-0.03,0.8-0.07,1.44-0.11,1.91c-0.04,0.47-0.13,0.78-0.27,0.91
		c-0.15,0.22-0.36,0.36-0.63,0.44s-0.59,0.12-0.95,0.12c-0.14,0-0.36-0.01-0.65-0.02l-0.55-0.01c-0.47-0.08-0.83-0.25-1.06-0.52
		c-0.24-0.26-0.39-0.57-0.46-0.92c-0.07-0.35-0.1-0.78-0.1-1.27V5.47C188.47,5.18,188.46,4.96,188.44,4.82z M190.89,3.68
		c-0.54,0-0.94,0.14-1.18,0.42c-0.1,0.13-0.17,0.29-0.2,0.49c-0.03,0.2-0.04,0.45-0.03,0.76c-0.01,0.12-0.01,0.28,0.01,0.48
		c0.01,0.2,0.02,0.36,0.02,0.47l0.02,0.5c0.02,0.32,0.11,0.55,0.27,0.68c0.16,0.13,0.35,0.22,0.59,0.27
		c0.16,0.02,0.32,0.04,0.49,0.04c0.31,0,0.58-0.06,0.82-0.17c0.23-0.11,0.38-0.3,0.44-0.55c0.03-0.21,0.05-0.37,0.05-0.49
		c0.04-0.56,0.06-0.94,0.06-1.14c0-0.53-0.1-0.95-0.29-1.27C191.78,3.84,191.42,3.68,190.89,3.68z"/>
	<path d="M197.44,8.72c-0.01-0.15-0.01-0.28-0.01-0.38s0-0.19-0.01-0.26c-0.02,0.01-0.08,0.05-0.19,0.13
		c-0.11,0.08-0.29,0.15-0.54,0.2c-0.46,0.17-0.92,0.25-1.36,0.25c-0.5,0-0.87-0.12-1.12-0.36c-0.14-0.12-0.22-0.32-0.25-0.61
		c-0.03-0.28-0.05-0.74-0.06-1.36V5.98c0-0.25,0.01-0.61,0.02-1.09c0.02-0.48,0.04-0.94,0.04-1.37c0-0.21-0.01-0.46-0.02-0.77
		c0.14-0.02,0.34-0.02,0.59-0.02h0.4c0.02,0.24,0.04,0.52,0.04,0.85l-0.01,0.97c0,0.32,0,0.55,0.01,0.7l0.01,0.34
		c0,0.29,0.01,0.62,0.04,1.01c0.02,0.26,0.07,0.46,0.16,0.6c0.09,0.14,0.23,0.23,0.41,0.28c0.16,0.02,0.31,0.04,0.44,0.04
		c0.47,0,0.83-0.13,1.09-0.38c0.25-0.26,0.38-0.6,0.39-1.04c0.01-0.29,0-0.81-0.04-1.57c-0.02-0.38-0.02-0.64-0.02-0.76
		c0-0.22,0.01-0.52,0.02-0.92V2.77c0.13-0.03,0.25-0.05,0.37-0.06c0.12-0.01,0.19-0.01,0.21-0.01c0.17,0,0.31,0,0.43-0.01l0.01,2.06
		c0.02,0.94,0.02,1.65,0.02,2.12c0,0.38-0.01,0.99-0.02,1.82c-0.18,0-0.37,0.01-0.59,0.04c-0.04,0-0.09,0-0.15,0.01
		c-0.06,0.01-0.12,0.01-0.19,0.01C197.48,8.76,197.44,8.75,197.44,8.72z"/>
	<path d="M200.46,2.76c0,0.1,0,0.17,0.01,0.22c0,0.05,0.01,0.11,0.01,0.19c0.06-0.03,0.13-0.07,0.23-0.11s0.21-0.08,0.33-0.12
		c0.18-0.06,0.41-0.11,0.67-0.14c0.26-0.03,0.49-0.04,0.7-0.04c0.19,0,0.29,0.01,0.29,0.02l-0.01,1c0,0.16,0,0.28,0.01,0.36
		c-0.12-0.05-0.26-0.09-0.41-0.13c-0.18-0.04-0.37-0.06-0.58-0.06c-0.22,0-0.46,0.03-0.73,0.1c-0.22,0.06-0.38,0.14-0.46,0.25
		s-0.12,0.32-0.11,0.64c0.03,1.1,0.05,2.34,0.05,3.73v0.05c-0.14,0.03-0.28,0.05-0.42,0.05c-0.06,0-0.15,0-0.27-0.01
		c-0.12,0-0.25,0-0.38,0.01l-0.01-2.06c-0.02-0.94-0.02-1.65-0.02-2.12c0-0.38,0.01-0.99,0.02-1.82c0.08,0.01,0.17,0.01,0.26,0.01
		c0.09,0,0.17-0.01,0.25-0.01c0.1-0.01,0.22-0.01,0.38-0.01C200.39,2.74,200.46,2.74,200.46,2.76z"/>
	<path d="M208.21,4.28c0,0.04-0.14,0.06-0.42,0.06c-0.21,0-0.36,0-0.46-0.01c-0.06,0-0.13,0-0.19-0.01c-0.06,0-0.12,0-0.16,0.01
		c0-0.01,0-0.15,0-0.41c0-0.27-0.23-0.43-0.7-0.49c-0.1-0.02-0.26-0.02-0.47-0.02c-0.22,0-0.43,0.02-0.61,0.05
		c-0.18,0.03-0.31,0.08-0.4,0.13c-0.1,0.08-0.18,0.2-0.24,0.35c-0.06,0.15-0.08,0.3-0.08,0.44c0,0.11,0.02,0.19,0.05,0.23
		c0.09,0.18,0.2,0.31,0.35,0.38c0.08,0.06,0.28,0.12,0.59,0.2c0.31,0.08,0.58,0.12,0.8,0.13c0.33,0.01,0.62,0.06,0.87,0.15
		s0.45,0.22,0.59,0.38c0.14,0.18,0.25,0.35,0.32,0.52c0.07,0.17,0.1,0.36,0.1,0.56c0,0.25-0.06,0.55-0.18,0.9
		c-0.18,0.38-0.46,0.65-0.84,0.83c-0.38,0.18-0.82,0.26-1.31,0.25c-0.54,0.02-1.01-0.05-1.42-0.21c-0.41-0.16-0.72-0.39-0.95-0.7
		c-0.22-0.31-0.34-0.68-0.34-1.1V6.84c0.14-0.02,0.36-0.02,0.64-0.02c0.31,0,0.48,0.01,0.5,0.04c0.02,0.02,0.05,0.11,0.1,0.27
		c0.05,0.16,0.15,0.33,0.28,0.5c0.14,0.17,0.37,0.26,0.7,0.29c0.26,0.02,0.41,0.02,0.46,0.02c0.13,0,0.23-0.01,0.32-0.04
		c0.08-0.02,0.19-0.07,0.33-0.13c0.41-0.18,0.61-0.45,0.6-0.8c0.01-0.23-0.05-0.41-0.19-0.54c-0.13-0.13-0.3-0.21-0.5-0.26
		c-0.2-0.04-0.47-0.09-0.82-0.13c-0.25-0.02-0.45-0.05-0.6-0.07c-0.15-0.02-0.29-0.06-0.41-0.12c-0.42-0.14-0.73-0.35-0.95-0.64
		c-0.22-0.29-0.33-0.61-0.33-0.95c0-0.38,0.11-0.72,0.33-1.03c0.22-0.31,0.52-0.51,0.91-0.61c0.33-0.09,0.75-0.13,1.26-0.13
		c0.12,0,0.3,0.01,0.54,0.02c0.34,0.02,0.66,0.08,0.96,0.18c0.28,0.12,0.51,0.33,0.68,0.62C208.12,3.6,208.21,3.92,208.21,4.28z"/>
	<path d="M210.61,6.3l0.02-0.38c0.06-0.34,0.14-0.63,0.26-0.89s0.31-0.55,0.56-0.87c0.24-0.28,0.43-0.53,0.57-0.76
		c0.14-0.22,0.23-0.46,0.28-0.7c0.02-0.1,0.02-0.17,0.02-0.22c0-0.33-0.13-0.59-0.38-0.79c-0.26-0.2-0.6-0.28-1.03-0.25
		c-0.34-0.01-0.59,0.08-0.75,0.27c-0.16,0.19-0.31,0.45-0.44,0.79c-0.05,0.13-0.08,0.22-0.11,0.26l-0.24,0.01
		c-0.11,0-0.28-0.01-0.5-0.02l-0.29-0.01V2.74c0.02-0.41,0.14-0.8,0.34-1.18c0.2-0.38,0.48-0.69,0.83-0.93
		c0.35-0.24,0.75-0.37,1.19-0.39c0.06-0.01,0.14-0.01,0.24-0.01c0.43,0,0.83,0.09,1.19,0.28c0.36,0.18,0.65,0.44,0.86,0.76
		c0.22,0.32,0.32,0.68,0.32,1.08c0,0.39-0.07,0.72-0.22,0.98c-0.15,0.26-0.37,0.56-0.67,0.89c-0.19,0.21-0.33,0.37-0.41,0.48
		c-0.18,0.24-0.31,0.47-0.41,0.68c-0.1,0.22-0.16,0.46-0.2,0.73c-0.01,0.06-0.02,0.11-0.02,0.17c-0.01,0.06-0.01,0.12-0.01,0.19
		c0,0.05,0,0.08,0.01,0.1v0.01c-0.1,0.02-0.24,0.02-0.44,0.02c-0.06,0-0.14,0-0.23-0.01c-0.09,0-0.2,0-0.32,0.01h-0.01
		c-0.02-0.03-0.02-0.09-0.02-0.18V6.3z M211.51,8.72h-0.86h-0.04c-0.02-0.14-0.04-0.33-0.04-0.55l0.01-0.59
		c0.01-0.07,0.01-0.16,0.01-0.25c0.14-0.06,0.32-0.08,0.56-0.08c0.17,0,0.32,0.02,0.44,0.05c0,0.04-0.01,0.26-0.04,0.65
		c-0.02,0.39-0.04,0.64-0.04,0.76v0.02H211.51z"/>
	<path d="M57.08,15.07c0.48-0.23,1.02-0.35,1.63-0.35c0.54,0,1.03,0.11,1.46,0.32c0.43,0.21,0.72,0.54,0.87,0.98
		c0.15,0.34,0.23,0.79,0.23,1.37c0,0.26,0,0.44-0.01,0.56c-0.02,0.28-0.02,0.69-0.02,1.24c0,0.14,0,0.31-0.01,0.51
		c0,0.2-0.01,0.44-0.03,0.71l-0.04,0.4c-0.06,0.68-0.21,1.22-0.46,1.62c-0.21,0.29-0.52,0.5-0.93,0.65
		c-0.41,0.14-0.85,0.22-1.3,0.22c-0.17,0-0.29,0-0.37-0.01c-0.61-0.05-1.07-0.23-1.38-0.56c-0.31-0.32-0.48-0.86-0.49-1.61
		l-0.04-0.76c-0.01-0.16-0.02-0.44-0.04-0.83c-0.02-0.4-0.02-0.76-0.02-1.09c0-0.37,0.01-0.73,0.04-1.09
		c0.01-0.48,0.08-0.93,0.22-1.36S56.75,15.26,57.08,15.07z M60.22,18.96L60.21,18c-0.03-0.54-0.06-0.91-0.08-1.11
		c-0.02-0.2-0.14-0.43-0.36-0.7c-0.22-0.27-0.57-0.41-1.07-0.41c-0.61,0-1.03,0.27-1.28,0.8s-0.37,1.35-0.37,2.45
		c0,0.67,0.01,1.19,0.04,1.57c0.03,0.37,0.09,0.67,0.17,0.9c0.09,0.23,0.22,0.41,0.41,0.53c0.19,0.14,0.47,0.2,0.83,0.2
		c0.57,0,0.98-0.12,1.24-0.35c0.26-0.23,0.4-0.57,0.42-1.02c0-0.24,0.01-0.52,0.02-0.85c0.02-0.33,0.03-0.54,0.04-0.64V18.96z"/>
	<path d="M63.11,17.16c0,0.1,0,0.17,0.01,0.22c0,0.05,0.01,0.11,0.01,0.19c0.06-0.03,0.13-0.07,0.23-0.11s0.21-0.08,0.33-0.12
		c0.18-0.06,0.41-0.11,0.67-0.14c0.26-0.03,0.49-0.04,0.7-0.04c0.19,0,0.29,0.01,0.29,0.02l-0.01,1c0,0.16,0,0.28,0.01,0.36
		c-0.12-0.05-0.26-0.09-0.41-0.13c-0.18-0.04-0.37-0.06-0.58-0.06c-0.22,0-0.46,0.03-0.73,0.1c-0.22,0.06-0.38,0.14-0.46,0.25
		s-0.12,0.32-0.11,0.64c0.03,1.1,0.05,2.34,0.05,3.73v0.05c-0.14,0.03-0.28,0.05-0.42,0.05c-0.06,0-0.15,0-0.27-0.01
		c-0.12,0-0.25,0-0.38,0.01l-0.01-2.06c-0.02-0.94-0.02-1.65-0.02-2.12c0-0.38,0.01-0.99,0.02-1.82c0.08,0.01,0.17,0.01,0.26,0.01
		c0.09,0,0.17-0.01,0.25-0.01c0.1-0.01,0.22-0.01,0.38-0.01C63.05,17.14,63.11,17.14,63.11,17.16z"/>
	<path d="M72.15,17.1c0.18-0.01,0.42,0,0.71,0.02l0.31,0.02c0.02,0.13,0.02,0.22,0.02,0.29v0.12c-0.01,0.18-0.01,0.46-0.01,0.83
		c0,0.3,0.01,0.75,0.02,1.34l0.01,1.34c0,0.58-0.02,1.1-0.05,1.57c0,0.02,0,0.08,0,0.16s-0.01,0.15-0.02,0.22
		c-0.02,0.06-0.06,0.1-0.13,0.12h-0.2l-0.38-0.01c-0.06,0-0.12,0-0.17,0.01s-0.09,0.01-0.13,0.01c-0.08-0.02-0.12-0.11-0.12-0.26
		C72,22.82,72,22.75,72.01,22.67c0.01-0.08,0.02-0.15,0.02-0.2c-0.19,0.26-0.5,0.44-0.91,0.54s-0.82,0.14-1.22,0.14
		c-0.38,0-0.71-0.17-0.98-0.51c-0.27-0.34-0.47-0.76-0.59-1.25s-0.19-0.98-0.19-1.45c0-0.52,0.09-0.99,0.26-1.4
		c0.18-0.42,0.42-0.75,0.73-0.99c0.31-0.24,0.65-0.37,1.03-0.38l0.38-0.01c0.36,0,0.66,0.04,0.89,0.13s0.41,0.24,0.52,0.46
		c0-0.07,0.01-0.16,0.02-0.28c0.02-0.16,0.02-0.27,0.02-0.34C71.99,17.11,72.05,17.1,72.15,17.1z M70.81,18.18
		c-0.42-0.01-0.77,0.1-1.05,0.32c-0.28,0.22-0.46,0.48-0.52,0.79c-0.06,0.23-0.1,0.54-0.1,0.94c0.04,1.29,0.56,1.9,1.56,1.85
		c0.41,0,0.7-0.07,0.89-0.22c0.18-0.14,0.3-0.35,0.34-0.61c0.04-0.26,0.07-0.66,0.07-1.19c0-0.58-0.02-0.98-0.07-1.22
		c-0.05-0.24-0.15-0.4-0.31-0.49C71.46,18.26,71.19,18.2,70.81,18.18z"/>
	<path d="M81.22,18.68c0,0.04-0.14,0.06-0.42,0.06c-0.21,0-0.36,0-0.46-0.01c-0.06,0-0.13,0-0.19-0.01c-0.06,0-0.12,0-0.16,0.01
		c0-0.01,0-0.15,0-0.41c0-0.27-0.23-0.43-0.7-0.49c-0.1-0.02-0.26-0.02-0.47-0.02c-0.22,0-0.43,0.02-0.61,0.05
		c-0.18,0.03-0.31,0.08-0.4,0.13c-0.1,0.08-0.18,0.2-0.24,0.35c-0.06,0.15-0.08,0.3-0.08,0.44c0,0.11,0.02,0.19,0.05,0.23
		c0.09,0.18,0.2,0.31,0.35,0.38c0.08,0.06,0.28,0.12,0.59,0.2c0.31,0.08,0.58,0.12,0.8,0.13c0.33,0.01,0.62,0.06,0.87,0.15
		s0.45,0.22,0.59,0.38c0.14,0.18,0.25,0.35,0.32,0.52c0.07,0.17,0.1,0.36,0.1,0.56c0,0.25-0.06,0.55-0.18,0.9
		c-0.18,0.38-0.46,0.65-0.84,0.83c-0.38,0.18-0.82,0.26-1.31,0.25c-0.54,0.02-1.01-0.05-1.42-0.21c-0.41-0.16-0.72-0.39-0.95-0.7
		c-0.22-0.31-0.34-0.68-0.34-1.1v-0.06c0.14-0.02,0.36-0.02,0.64-0.02c0.31,0,0.48,0.01,0.5,0.04c0.02,0.02,0.05,0.11,0.1,0.27
		c0.05,0.16,0.15,0.33,0.28,0.5c0.14,0.17,0.37,0.26,0.7,0.29c0.26,0.02,0.41,0.02,0.46,0.02c0.13,0,0.23-0.01,0.32-0.04
		c0.08-0.02,0.19-0.07,0.33-0.13c0.41-0.18,0.61-0.45,0.6-0.8c0.01-0.23-0.05-0.41-0.19-0.54c-0.13-0.13-0.3-0.21-0.5-0.26
		c-0.2-0.04-0.47-0.09-0.82-0.13c-0.25-0.02-0.45-0.05-0.6-0.07c-0.15-0.02-0.29-0.06-0.41-0.12c-0.42-0.14-0.73-0.35-0.95-0.64
		c-0.22-0.29-0.33-0.61-0.33-0.95c0-0.38,0.11-0.72,0.33-1.03c0.22-0.31,0.52-0.51,0.91-0.61c0.33-0.09,0.75-0.13,1.26-0.13
		c0.12,0,0.3,0.01,0.54,0.02c0.34,0.02,0.66,0.08,0.96,0.18c0.28,0.12,0.51,0.33,0.68,0.62C81.13,18,81.22,18.32,81.22,18.68z"/>
	<path d="M82.17,17.06c0.06-0.01,0.17-0.01,0.34,0c0.24,0.02,0.5,0.02,0.79,0.02v0.04c0,0.36-0.01,0.92-0.02,1.67
		c-0.02,0.77-0.04,1.54-0.04,2.33c0,0.74,0.02,1.39,0.05,1.97c-0.11,0.02-0.28,0.04-0.5,0.04c-0.22,0-0.36,0-0.41,0
		c-0.14,0-0.23,0-0.26,0.01c0.01-0.23,0.01-0.58,0.01-1.06V21v-1.01C82.1,19.43,82.1,19,82.1,18.7c0-0.55,0.02-1.09,0.07-1.62V17.06
		z M82.12,14.48c0.5,0.02,0.87,0.02,1.13,0.02l0.04,1.58c-0.08,0.04-0.22,0.06-0.43,0.06c-0.13,0-0.22,0-0.29-0.01
		c-0.05,0-0.1,0-0.17-0.01s-0.14,0-0.23,0.01c0-0.12-0.01-0.32-0.02-0.59C82.12,15.02,82.11,14.67,82.12,14.48z"/>
	<path d="M85.47,17.16c0.02,0.09,0.02,0.2,0.02,0.34v0.3c0.27-0.16,0.59-0.3,0.96-0.43c0.37-0.12,0.74-0.19,1.1-0.19
		c0.44,0.02,0.8,0.14,1.08,0.37c0.19,0.17,0.29,0.85,0.29,2.05c0,0.3-0.01,0.78-0.02,1.42c-0.02,0.61-0.02,1.05-0.02,1.32
		c0,0.35,0,0.6,0.01,0.76c-0.15,0.02-0.37,0.04-0.66,0.04h-0.4c-0.02-0.13-0.02-0.35-0.02-0.67v-0.52l0.01-0.77
		c0.02-0.52,0.02-0.89,0.01-1.12c0-0.05-0.01-0.21-0.03-0.49s-0.07-0.53-0.14-0.74c-0.02-0.28-0.22-0.41-0.59-0.38
		c-0.55,0.01-0.96,0.08-1.22,0.23c-0.26,0.14-0.41,0.4-0.44,0.78c-0.01,0.1-0.01,0.3-0.01,0.59c0,0.45,0.01,0.93,0.02,1.44
		c0.02,0.3,0.02,0.53,0.02,0.67c0,0.3-0.01,0.6-0.04,0.91v0.05c-0.15,0.03-0.3,0.05-0.45,0.04c-0.15,0-0.25-0.01-0.32-0.01
		c-0.13,0-0.23,0-0.3,0.01l-0.01-2.06c-0.02-0.94-0.02-1.65-0.02-2.12c0-0.38,0.01-0.99,0.02-1.82c0.1,0.01,0.21,0.01,0.34,0.01
		s0.23,0,0.31-0.01c0.05,0,0.1,0,0.17-0.01c0.06-0.01,0.13-0.01,0.19-0.01C85.43,17.12,85.47,17.14,85.47,17.16z"/>
	<path d="M94.32,24.68c-0.15,0.34-0.34,0.57-0.58,0.68c-0.23,0.11-0.5,0.18-0.8,0.2c-0.35,0.02-0.57,0.02-0.66,0.02
		c-0.15,0-0.35-0.01-0.59-0.02c-0.53-0.04-0.97-0.22-1.33-0.53c-0.36-0.31-0.54-0.7-0.54-1.18c0-0.1,0-0.18,0.01-0.24
		c0.04-0.02,0.15-0.03,0.32-0.04c0.18-0.01,0.34-0.02,0.5-0.02c0.14,0,0.21,0.01,0.23,0.02c0.01,0.02,0.01,0.08,0.01,0.18
		c0,0.21,0.05,0.39,0.14,0.55s0.3,0.26,0.61,0.31c0.16,0.01,0.37,0.01,0.62,0.01c0.34,0,0.58-0.02,0.74-0.05
		c0.16-0.04,0.26-0.1,0.3-0.19c0.04-0.09,0.06-0.23,0.04-0.41v-0.44v-0.4c0-0.04,0-0.08,0.01-0.13c0-0.05,0.01-0.12,0.02-0.2
		c-0.14,0.16-0.29,0.26-0.47,0.29c-0.18,0.03-0.51,0.05-1,0.05h-0.46c-0.8,0-1.32-0.25-1.56-0.76c-0.2-0.38-0.31-0.84-0.34-1.4
		c0-0.74,0.03-1.36,0.09-1.85c0.06-0.49,0.24-0.93,0.53-1.33c0.29-0.4,0.75-0.61,1.39-0.65c0.42-0.01,0.74,0.01,0.97,0.04
		s0.4,0.1,0.51,0.19c0.11,0.09,0.2,0.21,0.28,0.37c0.02-0.11,0.04-0.22,0.04-0.31c0-0.05,0-0.1-0.01-0.15c0-0.05,0-0.1,0.01-0.15
		c0.21-0.02,0.36-0.02,0.47-0.02l0.62,0.01c0.03,0.93,0.05,2.02,0.05,3.26c0,1.24-0.02,2.32-0.06,3.24c0,0.08,0,0.19-0.01,0.32
		s-0.01,0.27-0.02,0.39C94.39,24.48,94.36,24.59,94.32,24.68z M90.5,20.27v0.14c-0.02,0.43,0.05,0.84,0.22,1.21s0.48,0.58,0.94,0.6
		c0.12,0.01,0.28,0.01,0.49,0.01c0.43,0,0.74-0.08,0.93-0.23c0.19-0.15,0.29-0.45,0.32-0.89c0-0.57,0-1.02-0.01-1.37
		c0-0.81-0.18-1.31-0.54-1.5c-0.17-0.1-0.4-0.14-0.7-0.14c-0.16,0-0.32,0.01-0.47,0.04c-0.45,0.08-0.76,0.31-0.92,0.68
		S90.5,19.68,90.5,20.27z"/>
	<path d="M95.63,14.4l1.09,0.04c0,0.33-0.01,1.14-0.02,2.44c-0.02,1.6-0.02,2.86-0.02,3.77c0,1.01,0.01,1.81,0.04,2.41
		c-0.05,0.06-0.18,0.08-0.4,0.08l-0.37-0.01c-0.07-0.01-0.16-0.01-0.26-0.01c-0.06,0-0.1,0-0.12,0.01c0.05-0.65,0.07-1.3,0.07-1.96
		c0-0.5-0.02-1.24-0.05-2.23c-0.03-0.99-0.05-1.74-0.05-2.24C95.54,15.84,95.57,15.08,95.63,14.4z"/>
	<path d="M98.69,20.09v0.22l-0.01,0.35c0,0.99,0.49,1.49,1.46,1.49c0.39,0,0.68-0.09,0.87-0.27s0.28-0.43,0.28-0.74
		c0-0.05-0.01-0.14-0.02-0.26c0.17-0.02,0.32-0.04,0.47-0.04c0.13,0,0.22,0,0.29,0.01c0.05,0,0.11,0,0.17,0.01
		c0.07,0,0.15,0,0.23-0.01c0.01,0.46-0.01,0.82-0.05,1.09c-0.04,0.27-0.14,0.53-0.29,0.78c-0.14,0.22-0.39,0.37-0.75,0.46
		s-0.75,0.14-1.17,0.14c-0.19,0-0.37-0.01-0.53-0.02s-0.27-0.03-0.31-0.05c-0.62-0.1-1.08-0.5-1.36-1.18
		c-0.28-0.68-0.4-1.47-0.36-2.35c0.01-0.06,0.02-0.2,0.04-0.4c0.02-0.2,0.04-0.41,0.07-0.63c0.03-0.22,0.08-0.43,0.16-0.64
		c0.15-0.35,0.43-0.62,0.83-0.82c0.4-0.19,0.84-0.29,1.33-0.29c0.26,0,0.52,0.03,0.8,0.1c1.09,0.18,1.63,1,1.63,2.46
		c0,0.12-0.01,0.29-0.02,0.52c-0.15,0.05-0.6,0.09-1.34,0.12c-0.09,0.01-0.28,0.01-0.58,0.01c-0.63,0-1.1-0.01-1.4-0.02
		C98.94,20.12,98.79,20.11,98.69,20.09z M101.61,19.19c-0.01-0.25-0.07-0.49-0.19-0.73c-0.12-0.24-0.28-0.43-0.5-0.56
		c-0.12-0.06-0.22-0.09-0.31-0.11c-0.09-0.02-0.2-0.02-0.34-0.02c-0.52,0-0.89,0.11-1.11,0.32s-0.36,0.52-0.41,0.92
		c-0.02,0.1-0.02,0.16-0.02,0.19c0,0.1,0.05,0.16,0.14,0.19c0.09,0.03,0.29,0.05,0.59,0.05c0.3,0,0.55,0,0.76-0.01
		c0.77,0,1.2,0,1.3-0.01c0.04-0.01,0.07-0.02,0.08-0.03c0.01-0.01,0.02-0.03,0.02-0.07V19.19z"/>
	<path d="M109.61,18.88c0.39,0.12,0.68,0.31,0.87,0.58c0.19,0.27,0.31,0.63,0.38,1.09c0,0.06,0,0.11,0.01,0.14
		c0.01,0.06,0.01,0.15,0.01,0.26c0,0.73-0.28,1.28-0.83,1.65c-0.55,0.37-1.24,0.56-2.05,0.56c-0.24,0-0.42-0.01-0.54-0.02
		c-0.75-0.13-1.27-0.56-1.55-1.3c-0.28-0.74-0.43-1.67-0.43-2.81c0-0.43,0.02-1.02,0.07-1.78c0.02-0.19,0.02-0.33,0.02-0.41
		c0.01-0.15,0.02-0.3,0.04-0.43s0.05-0.24,0.09-0.31c0.21-0.46,0.59-0.83,1.15-1.09c0.56-0.26,1.15-0.39,1.76-0.39
		c0.41,0,0.77,0.1,1.08,0.29c0.31,0.2,0.55,0.46,0.73,0.78s0.26,0.67,0.26,1.04c0,0.18-0.02,0.37-0.07,0.56
		c-0.14,0.03-0.35,0.05-0.65,0.05h-0.43l-0.02-0.01c0-0.05,0-0.15-0.01-0.3c0-0.15-0.03-0.32-0.07-0.52
		c-0.04-0.19-0.15-0.36-0.31-0.5c-0.07-0.06-0.19-0.1-0.35-0.12c-0.16-0.02-0.36-0.02-0.61-0.02c-0.55,0.04-0.92,0.24-1.1,0.59
		c-0.18,0.36-0.27,0.79-0.27,1.29l0.01,0.47c-0.01,0.26,0,0.56,0.01,0.9c0.01,0.14,0.01,0.32,0.01,0.55v0.01
		c0.15-0.26,0.43-0.47,0.83-0.64s0.82-0.26,1.27-0.26C109.19,18.79,109.41,18.82,109.61,18.88z M109.86,20.68v-0.06
		c0-0.26-0.11-0.47-0.33-0.64c-0.22-0.17-0.46-0.26-0.73-0.26c-0.4,0-0.75,0.11-1.04,0.32s-0.45,0.5-0.49,0.86
		c-0.02,0.18,0.01,0.36,0.11,0.54s0.23,0.32,0.41,0.42c0.18,0.1,0.38,0.15,0.61,0.14c0.52-0.02,0.89-0.16,1.12-0.41
		C109.75,21.34,109.86,21.04,109.86,20.68z"/>
	<path d="M114.29,17.06c0.06-0.01,0.17-0.01,0.34,0c0.24,0.02,0.5,0.02,0.79,0.02v0.04c0,0.36-0.01,0.92-0.02,1.67
		c-0.02,0.77-0.04,1.54-0.04,2.33c0,0.74,0.02,1.39,0.05,1.97c-0.11,0.02-0.28,0.04-0.5,0.04c-0.22,0-0.36,0-0.41,0
		c-0.14,0-0.23,0-0.26,0.01c0.01-0.23,0.01-0.58,0.01-1.06V21v-1.01c-0.02-0.56-0.02-0.99-0.02-1.3c0-0.55,0.02-1.09,0.07-1.62
		V17.06z M114.24,14.48c0.5,0.02,0.87,0.02,1.13,0.02l0.04,1.58c-0.08,0.04-0.22,0.06-0.43,0.06c-0.13,0-0.22,0-0.29-0.01
		c-0.05,0-0.1,0-0.17-0.01s-0.14,0-0.23,0.01c0-0.12-0.01-0.32-0.02-0.59C114.24,15.02,114.24,14.67,114.24,14.48z"/>
	<path d="M117.59,17.16c0.02,0.09,0.02,0.2,0.02,0.34v0.3c0.27-0.16,0.59-0.3,0.96-0.43c0.37-0.12,0.74-0.19,1.1-0.19
		c0.44,0.02,0.8,0.14,1.08,0.37c0.19,0.17,0.29,0.85,0.29,2.05c0,0.3-0.01,0.78-0.02,1.42c-0.02,0.61-0.02,1.05-0.02,1.32
		c0,0.35,0,0.6,0.01,0.76c-0.15,0.02-0.37,0.04-0.66,0.04h-0.4c-0.02-0.13-0.02-0.35-0.02-0.67v-0.52l0.01-0.77
		c0.02-0.52,0.02-0.89,0.01-1.12c0-0.05-0.01-0.21-0.03-0.49s-0.07-0.53-0.14-0.74c-0.02-0.28-0.22-0.41-0.59-0.38
		c-0.55,0.01-0.96,0.08-1.22,0.23c-0.26,0.14-0.41,0.4-0.44,0.78c-0.01,0.1-0.01,0.3-0.01,0.59c0,0.45,0.01,0.93,0.02,1.44
		c0.02,0.3,0.02,0.53,0.02,0.67c0,0.3-0.01,0.6-0.04,0.91v0.05c-0.15,0.03-0.3,0.05-0.45,0.04c-0.15,0-0.25-0.01-0.32-0.01
		c-0.13,0-0.23,0-0.3,0.01l-0.01-2.06c-0.02-0.94-0.02-1.65-0.02-2.12c0-0.38,0.01-0.99,0.02-1.82c0.1,0.01,0.21,0.01,0.34,0.01
		s0.23,0,0.31-0.01c0.05,0,0.1,0,0.17-0.01c0.06-0.01,0.13-0.01,0.19-0.01C117.55,17.12,117.59,17.14,117.59,17.16z"/>
	<path d="M125.45,20.77c0.1,0.02,0.18,0.02,0.26,0.02l0.42-0.01c0.13,0,0.24,0.01,0.34,0.04c-0.04,0.55-0.08,0.98-0.13,1.28
		c-0.04,0.3-0.11,0.5-0.21,0.6c-0.15,0.22-0.36,0.36-0.63,0.44c-0.27,0.08-0.59,0.12-0.95,0.12c-0.14,0-0.36-0.01-0.65-0.02
		l-0.55-0.01c-0.47-0.08-0.82-0.26-1.06-0.53c-0.23-0.28-0.38-0.6-0.45-0.98s-0.11-0.87-0.14-1.49c0-0.45,0-0.78-0.01-0.98
		c0-0.47,0.09-1,0.26-1.57c0.1-0.23,0.33-0.41,0.67-0.52c0.34-0.12,0.72-0.17,1.13-0.17c0.06,0.01,0.16,0.01,0.28,0.01
		c0.07,0,0.16,0,0.27-0.01c0.11,0,0.24,0,0.39,0.01c0.6,0.06,1.04,0.22,1.33,0.5c0.18,0.13,0.3,0.33,0.35,0.61
		c0.05,0.28,0.09,0.7,0.1,1.26l0.01,0.29c-0.12,0.02-0.24,0.04-0.36,0.04c-0.21,0-0.42-0.02-0.64-0.06
		c-0.01-0.57-0.11-0.96-0.31-1.16c-0.2-0.21-0.51-0.31-0.93-0.31c-0.09,0-0.24,0.01-0.47,0.02c-0.21,0.01-0.37,0.03-0.49,0.06
		c-0.12,0.03-0.22,0.11-0.31,0.23s-0.15,0.3-0.19,0.55c-0.02,0.17-0.04,0.47-0.04,0.9v0.96c-0.02,0.26,0.05,0.54,0.19,0.82
		s0.43,0.45,0.86,0.49c0.08,0.01,0.19,0.01,0.32,0.01c0.38,0,0.66-0.07,0.84-0.22c0.18-0.14,0.3-0.31,0.35-0.5
		C125.4,21.3,125.44,21.06,125.45,20.77z"/>
	<path d="M128.24,16.69v1.07c0.22-0.18,0.41-0.32,0.57-0.41c0.16-0.09,0.41-0.15,0.73-0.17c0.19-0.02,0.37-0.04,0.54-0.04
		c0.58,0,1.04,0.14,1.37,0.42c0.1,0.09,0.18,0.3,0.22,0.62c0.04,0.33,0.06,0.76,0.06,1.3c0,0.3-0.01,0.78-0.02,1.44
		c-0.02,0.64-0.02,1.1-0.02,1.37c0,0.22,0.01,0.5,0.02,0.82c-0.32,0.05-0.66,0.06-1.03,0.05c-0.02-0.24-0.02-0.45-0.02-0.62V21.8
		v-2.35c-0.02-0.51-0.14-0.84-0.36-1c-0.05-0.03-0.14-0.06-0.29-0.1c-0.17-0.05-0.34-0.07-0.52-0.07c-0.31,0-0.58,0.08-0.8,0.23
		c-0.22,0.16-0.36,0.4-0.43,0.73c-0.06,0.3-0.08,0.67-0.08,1.09l0.01,0.41c0.02,0.53,0.02,0.96,0.02,1.31c0,0.43-0.01,0.76-0.02,1
		v0.05c-0.16,0.04-0.29,0.06-0.38,0.06l-0.36-0.01c-0.11,0-0.2,0-0.28,0.01c0-0.92,0-1.68-0.01-2.28l-0.01-3.67
		c0-0.9,0.01-1.82,0.02-2.76c0.25,0.02,0.45,0.03,0.6,0.02c0.04,0,0.09,0,0.15-0.01s0.12-0.01,0.19-0.01c0.08,0,0.12,0.01,0.12,0.04
		c0.02,0.07,0.02,0.56,0.02,1.46V16.69z"/>
	<path d="M135.23,14.4l1.09,0.04c0,0.33-0.01,1.14-0.02,2.44c-0.02,1.6-0.02,2.86-0.02,3.77c0,1.01,0.01,1.81,0.04,2.41
		c-0.05,0.06-0.18,0.08-0.4,0.08l-0.37-0.01c-0.07-0.01-0.16-0.01-0.26-0.01c-0.06,0-0.1,0-0.12,0.01c0.05-0.65,0.07-1.3,0.07-1.96
		c0-0.5-0.02-1.24-0.05-2.23c-0.03-0.99-0.05-1.74-0.05-2.24C135.14,15.84,135.17,15.08,135.23,14.4z"/>
	<path d="M138.29,20.09v0.22l-0.01,0.35c0,0.99,0.49,1.49,1.46,1.49c0.39,0,0.68-0.09,0.87-0.27s0.28-0.43,0.28-0.74
		c0-0.05-0.01-0.14-0.02-0.26c0.17-0.02,0.32-0.04,0.47-0.04c0.13,0,0.22,0,0.29,0.01c0.05,0,0.11,0,0.17,0.01
		c0.07,0,0.15,0,0.23-0.01c0.01,0.46-0.01,0.82-0.05,1.09c-0.04,0.27-0.14,0.53-0.29,0.78c-0.14,0.22-0.39,0.37-0.75,0.46
		s-0.75,0.14-1.17,0.14c-0.19,0-0.37-0.01-0.53-0.02s-0.27-0.03-0.31-0.05c-0.62-0.1-1.08-0.5-1.36-1.18
		c-0.28-0.68-0.4-1.47-0.36-2.35c0.01-0.06,0.02-0.2,0.04-0.4c0.02-0.2,0.04-0.41,0.07-0.63c0.03-0.22,0.08-0.43,0.16-0.64
		c0.15-0.35,0.43-0.62,0.83-0.82c0.4-0.19,0.84-0.29,1.33-0.29c0.26,0,0.52,0.03,0.8,0.1c1.09,0.18,1.63,1,1.63,2.46
		c0,0.12-0.01,0.29-0.02,0.52c-0.15,0.05-0.6,0.09-1.34,0.12c-0.09,0.01-0.28,0.01-0.58,0.01c-0.63,0-1.1-0.01-1.4-0.02
		C138.54,20.12,138.39,20.11,138.29,20.09z M141.21,19.19c-0.01-0.25-0.07-0.49-0.19-0.73c-0.12-0.24-0.28-0.43-0.5-0.56
		c-0.12-0.06-0.22-0.09-0.31-0.11c-0.09-0.02-0.2-0.02-0.34-0.02c-0.52,0-0.89,0.11-1.11,0.32s-0.36,0.52-0.41,0.92
		c-0.02,0.1-0.02,0.16-0.02,0.19c0,0.1,0.05,0.16,0.14,0.19c0.09,0.03,0.29,0.05,0.59,0.05c0.3,0,0.55,0,0.76-0.01
		c0.77,0,1.2,0,1.3-0.01c0.04-0.01,0.07-0.02,0.08-0.03c0.01-0.01,0.02-0.03,0.02-0.07V19.19z"/>
	<path d="M146.55,17.1c0.18-0.01,0.42,0,0.71,0.02l0.31,0.02c0.02,0.13,0.02,0.22,0.02,0.29v0.12c-0.01,0.18-0.01,0.46-0.01,0.83
		c0,0.3,0.01,0.75,0.02,1.34l0.01,1.34c0,0.58-0.02,1.1-0.05,1.57c0,0.02,0,0.08,0,0.16s-0.01,0.15-0.02,0.22
		c-0.02,0.06-0.06,0.1-0.13,0.12h-0.2l-0.38-0.01c-0.06,0-0.12,0-0.17,0.01s-0.09,0.01-0.13,0.01c-0.08-0.02-0.12-0.11-0.12-0.26
		c-0.01-0.06-0.01-0.14,0.01-0.22c0.01-0.08,0.02-0.15,0.02-0.2c-0.19,0.26-0.5,0.44-0.91,0.54s-0.82,0.14-1.22,0.14
		c-0.38,0-0.71-0.17-0.98-0.51c-0.27-0.34-0.47-0.76-0.59-1.25s-0.19-0.98-0.19-1.45c0-0.52,0.09-0.99,0.26-1.4
		c0.18-0.42,0.42-0.75,0.73-0.99c0.31-0.24,0.65-0.37,1.03-0.38l0.38-0.01c0.36,0,0.66,0.04,0.89,0.13s0.41,0.24,0.52,0.46
		c0-0.07,0.01-0.16,0.02-0.28c0.02-0.16,0.02-0.27,0.02-0.34C146.39,17.11,146.44,17.1,146.55,17.1z M145.2,18.18
		c-0.42-0.01-0.77,0.1-1.05,0.32c-0.28,0.22-0.46,0.48-0.52,0.79c-0.06,0.23-0.1,0.54-0.1,0.94c0.04,1.29,0.56,1.9,1.56,1.85
		c0.41,0,0.7-0.07,0.89-0.22c0.18-0.14,0.3-0.35,0.34-0.61c0.04-0.26,0.07-0.66,0.07-1.19c0-0.58-0.02-0.98-0.07-1.22
		c-0.05-0.24-0.15-0.4-0.31-0.49C145.86,18.26,145.59,18.2,145.2,18.18z"/>
	<path d="M150.33,18.65v4.44c-0.12-0.01-0.26,0-0.42,0.01l-0.29,0.01c-0.13,0-0.23-0.01-0.31-0.02c-0.03-0.19-0.05-0.89-0.05-2.09
		l0.01-1.45c0.01-0.24,0.01-0.54,0.01-0.9c-0.09,0.01-0.26,0.01-0.53,0.01c-0.07-0.01-0.18-0.01-0.31-0.01c-0.12,0-0.21,0-0.26,0.01
		l-0.04-1.03c0.59,0,0.96,0,1.12,0.01l-0.01-0.48c0-0.6,0.09-1.1,0.28-1.51c0.19-0.41,0.55-0.65,1.09-0.72
		c0.44-0.04,0.91-0.06,1.42-0.06h0.47c0.05,0.15,0.07,0.31,0.07,0.48c0,0.09-0.02,0.29-0.06,0.61c-0.14-0.01-0.58,0-1.34,0.04
		c-0.26,0.02-0.43,0.04-0.53,0.07c-0.1,0.03-0.17,0.1-0.22,0.22c-0.05,0.12-0.07,0.33-0.07,0.64c0,0.1,0.01,0.36,0.02,0.76
		c0.47-0.01,1.18-0.01,2.11-0.01c-0.01,0.03-0.02,0.16-0.04,0.4c0,0.24-0.01,0.45-0.02,0.64l-1.38-0.04L150.33,18.65z"/>
	<path d="M154.77,20.7l0.02-0.38c0.06-0.34,0.14-0.63,0.26-0.89s0.31-0.55,0.56-0.87c0.24-0.28,0.43-0.53,0.57-0.76
		c0.14-0.22,0.23-0.46,0.28-0.7c0.02-0.1,0.02-0.17,0.02-0.22c0-0.33-0.13-0.59-0.38-0.79c-0.26-0.2-0.6-0.28-1.03-0.25
		c-0.34-0.01-0.59,0.08-0.75,0.27c-0.16,0.19-0.31,0.45-0.44,0.79c-0.05,0.13-0.08,0.22-0.11,0.26l-0.24,0.01
		c-0.11,0-0.28-0.01-0.5-0.02l-0.29-0.01v-0.01c0.02-0.41,0.14-0.8,0.34-1.18c0.2-0.38,0.48-0.69,0.83-0.93
		c0.35-0.24,0.75-0.37,1.19-0.39c0.06-0.01,0.14-0.01,0.24-0.01c0.43,0,0.83,0.09,1.19,0.28c0.36,0.18,0.65,0.44,0.86,0.76
		c0.22,0.32,0.32,0.68,0.32,1.08c0,0.39-0.07,0.72-0.22,0.98c-0.15,0.26-0.37,0.56-0.67,0.89c-0.19,0.21-0.33,0.37-0.41,0.48
		c-0.18,0.24-0.31,0.47-0.41,0.68c-0.1,0.22-0.16,0.46-0.2,0.73c-0.01,0.06-0.02,0.11-0.02,0.17c-0.01,0.06-0.01,0.12-0.01,0.19
		c0,0.05,0,0.08,0.01,0.1v0.01c-0.1,0.02-0.24,0.02-0.44,0.02c-0.06,0-0.14,0-0.23-0.01c-0.09,0-0.2,0-0.32,0.01h-0.01
		c-0.02-0.03-0.02-0.09-0.02-0.18V20.7z M155.67,23.12h-0.86h-0.04c-0.02-0.14-0.04-0.33-0.04-0.55l0.01-0.59
		c0.01-0.07,0.01-0.16,0.01-0.25c0.14-0.06,0.32-0.08,0.56-0.08c0.17,0,0.32,0.02,0.44,0.05c0,0.04-0.01,0.26-0.04,0.65
		c-0.02,0.39-0.04,0.64-0.04,0.76v0.02H155.67z"/>
</g>
</svg>
