<!-- Generator: Adobe Illustrator 23.1.1, SVG Export Plug-In  -->
<svg version="1.1" xmlns="http://www.w3.org/2000/svg" xmlns:xlink="http://www.w3.org/1999/xlink" x="0px" y="0px"
	 width="442.42px" height="64.13px" viewBox="0 0 442.42 64.13" style="enable-background:new 0 0 442.42 64.13;"
	 xml:space="preserve">
<defs>
</defs>
<g>
	<path d="M0,0.76c1.3,0,2.27-0.01,2.9-0.03l3.07-0.03c3.21,0,5.86,0.12,7.95,0.36c0.02,0.2,0.03,0.54,0.03,1.02
		c0,0.75-0.06,1.54-0.17,2.38c-0.48-0.09-1.17-0.12-2.05-0.1c-0.7,0.04-1.41,0.07-2.11,0.07H8.78c0.04,0.13,0.04,0.26,0,0.4
		C8.76,4.95,8.75,6.44,8.75,9.27c0,0.68,0.01,1.24,0.03,1.68c0.07,5.81,0.13,10.07,0.2,12.77v0.07c-0.4,0.07-1,0.1-1.81,0.1
		c-0.86,0-1.51,0.04-1.95,0.13c-0.02-0.09-0.03-0.24-0.02-0.45s0.02-0.45,0.02-0.71v-2.01c0.02-0.44,0.03-1.23,0.03-2.38
		c0-1.3-0.01-2.34-0.03-3.14C5.17,12.2,5.09,8.66,4.98,4.72V4.59C4.52,4.46,3.3,4.37,1.32,4.32c-0.71,0-1.09-0.01-1.16-0.03
		C0.1,4.16,0.05,3.74,0.03,3.04C0.01,2.33,0,1.57,0,0.76z"/>
	<path d="M17.03,7.59c0,0.26,0,0.47,0.02,0.61c0.01,0.14,0.02,0.31,0.02,0.51c0.15-0.09,0.37-0.19,0.64-0.3
		c0.28-0.11,0.58-0.22,0.91-0.33c0.51-0.18,1.12-0.3,1.83-0.38s1.36-0.12,1.93-0.12c0.53,0,0.79,0.02,0.79,0.07l-0.03,2.74
		c0,0.44,0.01,0.77,0.03,0.99c-0.33-0.13-0.7-0.25-1.12-0.36c-0.48-0.11-1.01-0.17-1.58-0.17c-0.59,0-1.27,0.09-2.01,0.26
		c-0.62,0.15-1.04,0.39-1.25,0.69c-0.22,0.31-0.32,0.89-0.3,1.75c0.09,3.01,0.13,6.43,0.13,10.26v0.13
		c-0.38,0.09-0.76,0.13-1.16,0.13c-0.15,0-0.4,0-0.74-0.02c-0.34-0.01-0.69,0-1.04,0.02l-0.03-5.68c-0.04-2.6-0.07-4.54-0.07-5.84
		c0-1.06,0.02-2.73,0.07-5.02c0.22,0.02,0.46,0.03,0.71,0.02c0.25-0.01,0.48-0.02,0.68-0.02c0.26-0.02,0.62-0.03,1.06-0.03
		C16.85,7.52,17.03,7.55,17.03,7.59z"/>
	<path d="M27.65,15.64v0.59l-0.03,0.96c0,2.73,1.34,4.09,4.03,4.09c1.08,0,1.88-0.25,2.39-0.74c0.52-0.5,0.78-1.17,0.78-2.03
		c0-0.13-0.02-0.37-0.07-0.73c0.46-0.07,0.89-0.1,1.29-0.1c0.35,0,0.62,0.01,0.79,0.03c0.13,0,0.29,0,0.48,0.02
		c0.19,0.01,0.4,0.01,0.64-0.02c0.02,1.25-0.02,2.25-0.13,3s-0.37,1.46-0.79,2.14c-0.4,0.59-1.08,1.02-2.06,1.27
		c-0.98,0.25-2.05,0.38-3.22,0.38c-0.53,0-1.02-0.02-1.47-0.07c-0.45-0.04-0.73-0.09-0.84-0.13c-1.72-0.29-2.96-1.37-3.73-3.25
		c-0.77-1.88-1.1-4.03-0.99-6.45c0.02-0.18,0.05-0.54,0.1-1.11c0.04-0.56,0.1-1.14,0.18-1.73s0.23-1.18,0.45-1.75
		c0.42-0.97,1.18-1.72,2.28-2.24C28.82,7.26,30.04,7,31.38,7c0.7,0,1.44,0.09,2.21,0.26c2.99,0.51,4.49,2.76,4.49,6.77
		c0,0.33-0.02,0.8-0.07,1.42c-0.42,0.13-1.65,0.24-3.7,0.33c-0.24,0.02-0.77,0.03-1.58,0.03c-1.74,0-3.03-0.02-3.86-0.07
		C28.32,15.74,27.92,15.71,27.65,15.64z M35.67,13.17c-0.02-0.68-0.19-1.35-0.51-2.01c-0.32-0.66-0.78-1.18-1.37-1.55
		c-0.33-0.15-0.62-0.25-0.86-0.3c-0.24-0.04-0.55-0.07-0.92-0.07c-1.43,0-2.45,0.3-3.05,0.89c-0.61,0.59-0.99,1.44-1.14,2.54
		c-0.04,0.26-0.07,0.44-0.07,0.53c0,0.26,0.13,0.44,0.38,0.53s0.8,0.13,1.63,0.13c0.81,0,1.51-0.01,2.08-0.03
		c2.11,0,3.3-0.01,3.56-0.03c0.11-0.02,0.18-0.05,0.21-0.08s0.05-0.09,0.05-0.18V13.17z"/>
	<path d="M42.3,15.64v0.59l-0.03,0.96c0,2.73,1.34,4.09,4.03,4.09c1.08,0,1.88-0.25,2.39-0.74c0.52-0.5,0.78-1.17,0.78-2.03
		c0-0.13-0.02-0.37-0.07-0.73c0.46-0.07,0.89-0.1,1.29-0.1c0.35,0,0.62,0.01,0.79,0.03c0.13,0,0.29,0,0.48,0.02
		c0.19,0.01,0.4,0.01,0.64-0.02c0.02,1.25-0.02,2.25-0.13,3s-0.37,1.46-0.79,2.14c-0.4,0.59-1.08,1.02-2.06,1.27
		c-0.98,0.25-2.05,0.38-3.22,0.38c-0.53,0-1.02-0.02-1.47-0.07c-0.45-0.04-0.73-0.09-0.84-0.13c-1.72-0.29-2.96-1.37-3.73-3.25
		c-0.77-1.88-1.1-4.03-0.99-6.45c0.02-0.18,0.05-0.54,0.1-1.11c0.04-0.56,0.1-1.14,0.18-1.73s0.23-1.18,0.45-1.75
		c0.42-0.97,1.18-1.72,2.28-2.24C43.47,7.26,44.69,7,46.03,7c0.7,0,1.44,0.09,2.21,0.26c2.99,0.51,4.49,2.76,4.49,6.77
		c0,0.33-0.02,0.8-0.07,1.42c-0.42,0.13-1.65,0.24-3.7,0.33c-0.24,0.02-0.77,0.03-1.58,0.03c-1.74,0-3.03-0.02-3.86-0.07
		C42.98,15.74,42.57,15.71,42.3,15.64z M50.32,13.17c-0.02-0.68-0.19-1.35-0.51-2.01c-0.32-0.66-0.78-1.18-1.37-1.55
		c-0.33-0.15-0.62-0.25-0.86-0.3c-0.24-0.04-0.55-0.07-0.92-0.07c-1.43,0-2.45,0.3-3.05,0.89c-0.61,0.59-0.99,1.44-1.14,2.54
		c-0.04,0.26-0.07,0.44-0.07,0.53c0,0.26,0.13,0.44,0.38,0.53s0.8,0.13,1.63,0.13c0.81,0,1.51-0.01,2.08-0.03
		c2.11,0,3.3-0.01,3.56-0.03c0.11-0.02,0.18-0.05,0.21-0.08s0.05-0.09,0.05-0.18V13.17z"/>
	<path d="M67.65,11.78c0,0.11-0.39,0.17-1.16,0.17c-0.57,0-0.99-0.01-1.25-0.03c-0.18,0-0.35,0-0.53-0.02
		c-0.18-0.01-0.32,0-0.43,0.02c0-0.02,0-0.4,0-1.14c0-0.74-0.64-1.18-1.91-1.34c-0.29-0.04-0.71-0.07-1.29-0.07
		c-0.62,0-1.17,0.04-1.67,0.13c-0.5,0.09-0.86,0.21-1.11,0.36c-0.29,0.22-0.51,0.54-0.66,0.96c-0.15,0.42-0.23,0.83-0.23,1.22
		c0,0.31,0.04,0.52,0.13,0.63c0.24,0.51,0.56,0.86,0.96,1.06c0.22,0.15,0.76,0.34,1.62,0.56c0.86,0.22,1.59,0.34,2.21,0.36
		c0.9,0.02,1.7,0.16,2.39,0.41c0.69,0.25,1.24,0.6,1.63,1.04c0.4,0.48,0.69,0.96,0.87,1.44c0.19,0.47,0.28,0.98,0.28,1.53
		c0,0.68-0.17,1.51-0.5,2.47c-0.48,1.04-1.25,1.79-2.31,2.28c-1.06,0.48-2.25,0.71-3.6,0.69c-1.47,0.04-2.77-0.15-3.89-0.58
		c-1.12-0.43-1.99-1.07-2.61-1.93c-0.62-0.86-0.92-1.87-0.92-3.04v-0.17c0.4-0.04,0.98-0.07,1.75-0.07c0.86,0,1.32,0.03,1.39,0.1
		c0.04,0.04,0.14,0.29,0.28,0.74c0.14,0.45,0.4,0.91,0.78,1.37s1.01,0.73,1.91,0.79c0.7,0.04,1.12,0.07,1.25,0.07
		c0.35,0,0.64-0.03,0.88-0.1c0.23-0.07,0.53-0.19,0.91-0.36c1.12-0.51,1.67-1.24,1.65-2.21c0.02-0.64-0.15-1.13-0.51-1.49
		c-0.36-0.35-0.82-0.59-1.37-0.71c-0.55-0.12-1.3-0.24-2.24-0.35c-0.68-0.07-1.23-0.13-1.65-0.2c-0.42-0.07-0.79-0.18-1.12-0.33
		c-1.14-0.37-2.02-0.96-2.62-1.77c-0.61-0.8-0.91-1.68-0.91-2.62c0-1.03,0.3-1.97,0.91-2.82c0.6-0.85,1.44-1.4,2.49-1.67
		c0.9-0.24,2.06-0.36,3.46-0.36c0.33,0,0.83,0.02,1.49,0.07c0.95,0.07,1.83,0.23,2.64,0.5c0.77,0.33,1.4,0.9,1.88,1.7
		C67.41,9.9,67.65,10.79,67.65,11.78z"/>
	<path d="M86.46,7.42c0.51-0.02,1.16,0,1.95,0.07l0.86,0.07c0.04,0.35,0.07,0.62,0.07,0.79v0.33c-0.02,0.51-0.03,1.26-0.03,2.28
		c0,0.84,0.02,2.07,0.07,3.7l0.03,3.7c0,1.58-0.04,3.02-0.13,4.32c0,0.07,0,0.21,0,0.43s-0.02,0.42-0.07,0.59s-0.17,0.29-0.36,0.33
		h-0.56l-1.06-0.03c-0.18,0-0.33,0.01-0.46,0.03c-0.13,0.02-0.25,0.03-0.36,0.03c-0.22-0.07-0.33-0.31-0.33-0.73
		c-0.02-0.18-0.02-0.37,0.02-0.59s0.05-0.41,0.05-0.56c-0.53,0.73-1.36,1.22-2.51,1.49s-2.27,0.4-3.37,0.4
		c-1.06,0-1.95-0.47-2.69-1.4c-0.74-0.93-1.28-2.08-1.63-3.45c-0.35-1.36-0.53-2.69-0.53-3.99c0-1.43,0.24-2.72,0.73-3.86
		c0.48-1.14,1.15-2.05,2-2.72c0.85-0.67,1.79-1.02,2.82-1.04L82,7.56c0.99,0,1.81,0.12,2.46,0.35c0.65,0.23,1.13,0.66,1.44,1.27
		c0-0.2,0.02-0.45,0.07-0.76c0.04-0.44,0.07-0.75,0.07-0.92C86.03,7.45,86.17,7.42,86.46,7.42z M82.76,10.4
		c-1.14-0.02-2.11,0.27-2.89,0.87c-0.78,0.61-1.26,1.33-1.44,2.16c-0.18,0.64-0.26,1.5-0.26,2.57c0.11,3.54,1.54,5.24,4.29,5.08
		c1.12,0,1.94-0.2,2.44-0.59c0.51-0.4,0.82-0.96,0.94-1.68c0.12-0.73,0.18-1.82,0.18-3.27c0-1.58-0.07-2.7-0.2-3.35
		c-0.13-0.65-0.41-1.09-0.84-1.34C84.56,10.62,83.82,10.46,82.76,10.4z"/>
	<path d="M94.67,7.59c0,0.26,0,0.47,0.02,0.61c0.01,0.14,0.02,0.31,0.02,0.51c0.15-0.09,0.37-0.19,0.64-0.3
		c0.28-0.11,0.58-0.22,0.91-0.33c0.51-0.18,1.12-0.3,1.83-0.38s1.36-0.12,1.93-0.12c0.53,0,0.79,0.02,0.79,0.07l-0.03,2.74
		c0,0.44,0.01,0.77,0.03,0.99c-0.33-0.13-0.7-0.25-1.12-0.36c-0.48-0.11-1.01-0.17-1.58-0.17c-0.59,0-1.27,0.09-2.01,0.26
		c-0.62,0.15-1.04,0.39-1.25,0.69c-0.22,0.31-0.32,0.89-0.3,1.75c0.09,3.01,0.13,6.43,0.13,10.26v0.13
		c-0.38,0.09-0.76,0.13-1.16,0.13c-0.15,0-0.4,0-0.74-0.02c-0.34-0.01-0.69,0-1.04,0.02l-0.03-5.68c-0.04-2.6-0.07-4.54-0.07-5.84
		c0-1.06,0.02-2.73,0.07-5.02c0.22,0.02,0.46,0.03,0.71,0.02c0.25-0.01,0.48-0.02,0.68-0.02c0.26-0.02,0.62-0.03,1.06-0.03
		C94.5,7.52,94.67,7.55,94.67,7.59z"/>
	<path d="M105.3,15.64v0.59l-0.03,0.96c0,2.73,1.34,4.09,4.03,4.09c1.08,0,1.88-0.25,2.39-0.74c0.52-0.5,0.78-1.17,0.78-2.03
		c0-0.13-0.02-0.37-0.07-0.73c0.46-0.07,0.89-0.1,1.29-0.1c0.35,0,0.62,0.01,0.79,0.03c0.13,0,0.29,0,0.48,0.02
		c0.19,0.01,0.4,0.01,0.64-0.02c0.02,1.25-0.02,2.25-0.13,3s-0.37,1.46-0.79,2.14c-0.4,0.59-1.08,1.02-2.06,1.27
		c-0.98,0.25-2.05,0.38-3.22,0.38c-0.53,0-1.02-0.02-1.47-0.07c-0.45-0.04-0.73-0.09-0.84-0.13c-1.72-0.29-2.96-1.37-3.73-3.25
		c-0.77-1.88-1.1-4.03-0.99-6.45c0.02-0.18,0.05-0.54,0.1-1.11c0.04-0.56,0.1-1.14,0.18-1.73s0.23-1.18,0.45-1.75
		c0.42-0.97,1.18-1.72,2.28-2.24c1.1-0.53,2.32-0.79,3.66-0.79c0.7,0,1.44,0.09,2.21,0.26c2.99,0.51,4.49,2.76,4.49,6.77
		c0,0.33-0.02,0.8-0.07,1.42c-0.42,0.13-1.65,0.24-3.7,0.33c-0.24,0.02-0.77,0.03-1.58,0.03c-1.74,0-3.03-0.02-3.86-0.07
		C105.97,15.74,105.56,15.71,105.3,15.64z M113.32,13.17c-0.02-0.68-0.19-1.35-0.51-2.01c-0.32-0.66-0.78-1.18-1.37-1.55
		c-0.33-0.15-0.62-0.25-0.86-0.3c-0.24-0.04-0.55-0.07-0.92-0.07c-1.43,0-2.45,0.3-3.05,0.89c-0.61,0.59-0.99,1.44-1.14,2.54
		c-0.04,0.26-0.07,0.44-0.07,0.53c0,0.26,0.13,0.44,0.38,0.53s0.8,0.13,1.63,0.13c0.81,0,1.51-0.01,2.08-0.03
		c2.11,0,3.3-0.01,3.56-0.03c0.11-0.02,0.18-0.05,0.21-0.08s0.05-0.09,0.05-0.18V13.17z"/>
	<path d="M123.71,13.27c0-0.81,0.04-1.52,0.12-2.11s0.27-1.33,0.58-2.21c0.29-0.64,0.9-1.12,1.83-1.44
		c0.93-0.32,1.97-0.48,3.12-0.48c0.15,0.02,0.37,0.03,0.66,0.03l1.32-0.03c1.85,0,3.27,0.48,4.26,1.45c0.4,0.26,0.7,0.76,0.91,1.48
		c0.21,0.73,0.34,1.7,0.38,2.92s0.07,1.93,0.07,2.13c-0.09,2.2-0.19,3.95-0.31,5.25c-0.12,1.3-0.37,2.13-0.74,2.51
		c-0.42,0.59-1,1-1.73,1.22s-1.61,0.33-2.62,0.33c-0.4,0-0.99-0.02-1.78-0.07l-1.52-0.03c-1.3-0.22-2.27-0.69-2.92-1.42
		c-0.65-0.73-1.07-1.57-1.25-2.54c-0.19-0.97-0.28-2.13-0.28-3.5v-1.72C123.78,14.23,123.76,13.64,123.71,13.27z M130.45,10.13
		c-1.5,0-2.57,0.39-3.23,1.16c-0.29,0.35-0.47,0.8-0.54,1.34s-0.1,1.24-0.08,2.09c-0.02,0.33-0.02,0.77,0.02,1.32
		c0.03,0.55,0.05,0.98,0.05,1.29l0.07,1.39c0.07,0.88,0.31,1.5,0.74,1.87c0.43,0.36,0.97,0.61,1.63,0.74
		c0.44,0.07,0.89,0.1,1.35,0.1c0.86,0,1.61-0.15,2.24-0.46c0.64-0.31,1.04-0.81,1.22-1.52c0.09-0.57,0.13-1.02,0.13-1.35
		c0.11-1.54,0.17-2.58,0.17-3.13c0-1.45-0.26-2.62-0.79-3.5S131.9,10.13,130.45,10.13z"/>
	<path d="M137.64,7.49c0.33,0.04,0.79,0.07,1.39,0.07c0.2,0,0.43-0.01,0.71-0.02c0.27-0.01,0.58-0.01,0.91,0.02
		c0.35,1.23,1,3.58,1.95,7.03c0.46,1.74,0.8,2.99,1.02,3.76c0.22,0.77,0.48,1.52,0.79,2.24c0.2-0.48,0.44-1.22,0.73-2.21
		c0.29-0.99,0.47-1.64,0.56-1.95c1.08-3.67,2-6.61,2.77-8.81c0.2,0,0.52-0.02,0.96-0.07c0.79-0.04,1.45-0.05,1.98-0.03
		c-0.44,1.17-0.85,2.37-1.22,3.61c-0.38,1.24-0.73,2.47-1.06,3.68c-1.06,3.65-2,6.7-2.84,9.14c-0.35,0.07-0.91,0.1-1.68,0.1
		l-2.38-0.03c-0.97-3.08-1.68-5.42-2.13-7.01c-0.45-1.59-0.91-3.35-1.37-5.26L137.64,7.49z"/>
	<path d="M154.63,15.64v0.59l-0.03,0.96c0,2.73,1.34,4.09,4.03,4.09c1.08,0,1.88-0.25,2.39-0.74c0.52-0.5,0.78-1.17,0.78-2.03
		c0-0.13-0.02-0.37-0.07-0.73c0.46-0.07,0.89-0.1,1.29-0.1c0.35,0,0.62,0.01,0.79,0.03c0.13,0,0.29,0,0.48,0.02
		c0.19,0.01,0.4,0.01,0.64-0.02c0.02,1.25-0.02,2.25-0.13,3s-0.37,1.46-0.79,2.14c-0.4,0.59-1.08,1.02-2.06,1.27
		c-0.98,0.25-2.05,0.38-3.22,0.38c-0.53,0-1.02-0.02-1.47-0.07c-0.45-0.04-0.73-0.09-0.84-0.13c-1.72-0.29-2.96-1.37-3.73-3.25
		c-0.77-1.88-1.1-4.03-0.99-6.45c0.02-0.18,0.05-0.54,0.1-1.11c0.04-0.56,0.1-1.14,0.18-1.73s0.23-1.18,0.45-1.75
		c0.42-0.97,1.18-1.72,2.28-2.24c1.1-0.53,2.32-0.79,3.66-0.79c0.7,0,1.44,0.09,2.21,0.26c2.99,0.51,4.49,2.76,4.49,6.77
		c0,0.33-0.02,0.8-0.07,1.42c-0.42,0.13-1.65,0.24-3.7,0.33c-0.24,0.02-0.77,0.03-1.58,0.03c-1.74,0-3.03-0.02-3.86-0.07
		C155.31,15.74,154.9,15.71,154.63,15.64z M162.65,13.17c-0.02-0.68-0.19-1.35-0.51-2.01c-0.32-0.66-0.78-1.18-1.37-1.55
		c-0.33-0.15-0.62-0.25-0.86-0.3c-0.24-0.04-0.55-0.07-0.92-0.07c-1.43,0-2.45,0.3-3.05,0.89c-0.61,0.59-0.99,1.44-1.14,2.54
		c-0.04,0.26-0.07,0.44-0.07,0.53c0,0.26,0.13,0.44,0.38,0.53s0.8,0.13,1.63,0.13c0.81,0,1.51-0.01,2.08-0.03
		c2.11,0,3.3-0.01,3.56-0.03c0.11-0.02,0.18-0.05,0.21-0.08s0.05-0.09,0.05-0.18V13.17z"/>
	<path d="M169.85,7.59c0,0.26,0,0.47,0.02,0.61c0.01,0.14,0.02,0.31,0.02,0.51c0.15-0.09,0.37-0.19,0.64-0.3
		c0.28-0.11,0.58-0.22,0.91-0.33c0.51-0.18,1.12-0.3,1.83-0.38s1.36-0.12,1.93-0.12c0.53,0,0.79,0.02,0.79,0.07l-0.03,2.74
		c0,0.44,0.01,0.77,0.03,0.99c-0.33-0.13-0.7-0.25-1.12-0.36c-0.48-0.11-1.01-0.17-1.58-0.17c-0.59,0-1.27,0.09-2.01,0.26
		c-0.62,0.15-1.04,0.39-1.25,0.69c-0.22,0.31-0.32,0.89-0.3,1.75c0.09,3.01,0.13,6.43,0.13,10.26v0.13
		c-0.38,0.09-0.76,0.13-1.16,0.13c-0.15,0-0.4,0-0.74-0.02c-0.34-0.01-0.69,0-1.04,0.02l-0.03-5.68c-0.04-2.6-0.07-4.54-0.07-5.84
		c0-1.06,0.02-2.73,0.07-5.02c0.22,0.02,0.46,0.03,0.71,0.02c0.25-0.01,0.48-0.02,0.68-0.02c0.26-0.02,0.62-0.03,1.06-0.03
		C169.67,7.52,169.85,7.55,169.85,7.59z"/>
	<path d="M198.19,23.83l-8.91,0.17l-3.76,0.03h-1.48c-0.02-0.02-0.03-0.05-0.03-0.1l0.03-0.99c0.02-1.3,0.12-2.36,0.3-3.18
		c0.18-0.83,0.62-1.68,1.32-2.56c0.7-0.77,1.49-1.46,2.34-2.06c0.86-0.6,2-1.36,3.43-2.26c0.24-0.15,0.51-0.31,0.79-0.48
		c0.29-0.17,0.58-0.36,0.89-0.58c1.32-0.68,2.01-1.56,2.08-2.64l0.03-0.76c0-1.72-0.3-2.88-0.91-3.48c-0.61-0.6-1.42-0.91-2.46-0.91
		c-0.07,0-0.56,0.03-1.48,0.1c-0.95,0.11-1.65,0.61-2.1,1.5c-0.45,0.89-0.68,1.88-0.68,2.95l0.03,1.19V10l-0.03,0.07
		c-0.79,0.13-1.52,0.2-2.18,0.2c-0.24,0-0.63-0.02-1.16-0.07l-0.03-0.07c-0.13-0.73-0.2-1.44-0.2-2.14c0-2.24,0.62-4.07,1.85-5.48
		c0.51-0.66,1.29-1.15,2.34-1.48s2.2-0.5,3.43-0.5c1.43,0,2.65,0.2,3.66,0.59c1.32,0.68,2.22,1.75,2.69,3.22
		c0.47,1.46,0.68,3.22,0.61,5.26c-0.09,0.95-0.36,1.74-0.81,2.39c-0.45,0.65-0.99,1.19-1.62,1.62c-0.63,0.43-1.46,0.92-2.49,1.47
		c-0.88,0.46-1.6,0.86-2.15,1.21s-1.06,0.74-1.52,1.2c-0.57,0.62-1.06,1.17-1.45,1.65c-0.4,0.48-0.59,0.88-0.59,1.19
		c0,0.15,0.07,0.26,0.2,0.33c1.63,0.04,3.04,0.07,4.22,0.07c1.12,0,2.61-0.04,4.46-0.13l1.06-0.03c0.13,0.4,0.2,0.85,0.2,1.35
		L198.09,23c0,0.29,0,0.43,0,0.43S198.13,23.56,198.19,23.83z"/>
	<path d="M200.5,13.6l-0.03-0.86c-0.04-0.84-0.07-1.46-0.07-1.88c0-1.43,0.13-2.74,0.38-3.93c0.25-1.19,0.71-2.3,1.37-3.33
		c0.53-0.92,1.33-1.66,2.39-2.21c1.07-0.55,2.19-0.82,3.38-0.82c1.76,0,3.21,0.52,4.36,1.55c1.14,1.03,1.98,2.33,2.51,3.89
		c0.53,1.56,0.79,3.14,0.79,4.72c0,0.44-0.01,0.76-0.03,0.96l0.03,0.89c0,1.8-0.27,3.58-0.81,5.31c-0.54,1.74-1.38,3.18-2.52,4.32
		c-1.14,1.14-2.57,1.72-4.29,1.72c-1.12,0-2.05-0.14-2.77-0.43c-1.39-0.51-2.42-1.26-3.09-2.28c-0.67-1.01-1.09-2.09-1.27-3.25
		S200.55,15.36,200.5,13.6z M203.67,12.97c0.02,2.05,0.27,3.81,0.74,5.28c0.47,1.47,1.5,2.24,3.08,2.31c0.55,0.04,1.02,0,1.42-0.13
		c1.03-0.35,1.82-1.04,2.36-2.06c0.54-1.02,0.8-2.02,0.78-2.99c-0.02-0.97-0.03-1.48-0.03-1.55c0-0.42,0.01-0.74,0.03-0.96
		l0.03-1.22c0-0.29-0.02-0.87-0.07-1.75c-0.04-1.45-0.37-2.77-0.97-3.96c-0.61-1.19-1.56-1.87-2.85-2.05
		c-1.78,0-2.95,0.52-3.51,1.57s-0.84,2.04-0.84,2.99c-0.04,0.31-0.09,0.74-0.13,1.29C203.66,11.28,203.65,12.35,203.67,12.97z"/>
	<path d="M228.95,11.68v12.21c-0.33-0.02-0.71-0.01-1.16,0.03L227,23.96c-0.35,0-0.64-0.02-0.86-0.07
		c-0.09-0.53-0.13-2.44-0.13-5.74l0.03-3.99c0.02-0.66,0.03-1.49,0.03-2.47c-0.24,0.02-0.73,0.03-1.45,0.03
		c-0.2-0.02-0.48-0.03-0.86-0.03c-0.33,0-0.57,0.01-0.73,0.03l-0.1-2.84c1.63,0,2.65,0.01,3.07,0.03l-0.03-1.32
		c0-1.65,0.26-3.04,0.78-4.16c0.52-1.12,1.51-1.78,2.99-1.98c1.21-0.11,2.51-0.17,3.89-0.17h1.29c0.13,0.42,0.2,0.86,0.2,1.32
		c0,0.24-0.06,0.8-0.17,1.68c-0.37-0.02-1.61,0.01-3.7,0.1c-0.7,0.04-1.19,0.1-1.45,0.18c-0.26,0.08-0.46,0.28-0.59,0.61
		c-0.13,0.33-0.2,0.91-0.2,1.75c0,0.29,0.02,0.98,0.07,2.08c1.3-0.02,3.23-0.03,5.81-0.03c-0.02,0.09-0.05,0.45-0.1,1.09
		c0,0.66-0.02,1.24-0.07,1.75l-3.79-0.1L228.95,11.68z"/>
	<path d="M238.72,15.64v0.59l-0.03,0.96c0,2.73,1.34,4.09,4.03,4.09c1.08,0,1.88-0.25,2.39-0.74c0.52-0.5,0.78-1.17,0.78-2.03
		c0-0.13-0.02-0.37-0.07-0.73c0.46-0.07,0.89-0.1,1.29-0.1c0.35,0,0.62,0.01,0.79,0.03c0.13,0,0.29,0,0.48,0.02
		c0.19,0.01,0.4,0.01,0.64-0.02c0.02,1.25-0.02,2.25-0.13,3s-0.37,1.46-0.79,2.14c-0.4,0.59-1.08,1.02-2.06,1.27
		c-0.98,0.25-2.05,0.38-3.22,0.38c-0.53,0-1.02-0.02-1.47-0.07c-0.45-0.04-0.73-0.09-0.84-0.13c-1.72-0.29-2.96-1.37-3.73-3.25
		c-0.77-1.88-1.1-4.03-0.99-6.45c0.02-0.18,0.05-0.54,0.1-1.11c0.04-0.56,0.1-1.14,0.18-1.73s0.23-1.18,0.45-1.75
		c0.42-0.97,1.18-1.72,2.28-2.24c1.1-0.53,2.32-0.79,3.66-0.79c0.7,0,1.44,0.09,2.21,0.26c2.99,0.51,4.49,2.76,4.49,6.77
		c0,0.33-0.02,0.8-0.07,1.42c-0.42,0.13-1.65,0.24-3.7,0.33c-0.24,0.02-0.77,0.03-1.58,0.03c-1.74,0-3.03-0.02-3.86-0.07
		C239.39,15.74,238.98,15.71,238.72,15.64z M246.74,13.17c-0.02-0.68-0.19-1.35-0.51-2.01c-0.32-0.66-0.78-1.18-1.37-1.55
		c-0.33-0.15-0.62-0.25-0.86-0.3c-0.24-0.04-0.55-0.07-0.92-0.07c-1.43,0-2.45,0.3-3.05,0.89c-0.61,0.59-0.99,1.44-1.14,2.54
		c-0.04,0.26-0.07,0.44-0.07,0.53c0,0.26,0.13,0.44,0.38,0.53s0.8,0.13,1.63,0.13c0.81,0,1.51-0.01,2.08-0.03
		c2.11,0,3.3-0.01,3.56-0.03c0.11-0.02,0.18-0.05,0.21-0.08s0.05-0.09,0.05-0.18V13.17z"/>
	<path d="M253.37,15.64v0.59l-0.03,0.96c0,2.73,1.34,4.09,4.03,4.09c1.08,0,1.88-0.25,2.39-0.74c0.52-0.5,0.78-1.17,0.78-2.03
		c0-0.13-0.02-0.37-0.07-0.73c0.46-0.07,0.89-0.1,1.29-0.1c0.35,0,0.62,0.01,0.79,0.03c0.13,0,0.29,0,0.48,0.02
		c0.19,0.01,0.4,0.01,0.64-0.02c0.02,1.25-0.02,2.25-0.13,3s-0.37,1.46-0.79,2.14c-0.4,0.59-1.08,1.02-2.06,1.27
		c-0.98,0.25-2.05,0.38-3.22,0.38c-0.53,0-1.02-0.02-1.47-0.07c-0.45-0.04-0.73-0.09-0.84-0.13c-1.72-0.29-2.96-1.37-3.73-3.25
		c-0.77-1.88-1.1-4.03-0.99-6.45c0.02-0.18,0.05-0.54,0.1-1.11c0.04-0.56,0.1-1.14,0.18-1.73s0.23-1.18,0.45-1.75
		c0.42-0.97,1.18-1.72,2.28-2.24c1.1-0.53,2.32-0.79,3.66-0.79c0.7,0,1.44,0.09,2.21,0.26c2.99,0.51,4.49,2.76,4.49,6.77
		c0,0.33-0.02,0.8-0.07,1.42c-0.42,0.13-1.65,0.24-3.7,0.33c-0.24,0.02-0.77,0.03-1.58,0.03c-1.74,0-3.03-0.02-3.86-0.07
		C254.04,15.74,253.63,15.71,253.37,15.64z M261.39,13.17c-0.02-0.68-0.19-1.35-0.51-2.01c-0.32-0.66-0.78-1.18-1.37-1.55
		c-0.33-0.15-0.62-0.25-0.86-0.3c-0.24-0.04-0.55-0.07-0.92-0.07c-1.43,0-2.45,0.3-3.05,0.89c-0.61,0.59-0.99,1.44-1.14,2.54
		c-0.04,0.26-0.07,0.44-0.07,0.53c0,0.26,0.13,0.44,0.38,0.53s0.8,0.13,1.63,0.13c0.81,0,1.51-0.01,2.08-0.03
		c2.11,0,3.3-0.01,3.56-0.03c0.11-0.02,0.18-0.05,0.21-0.08s0.05-0.09,0.05-0.18V13.17z"/>
	<path d="M271.09,1.39v5.05l0.03,1.85c1.43-0.04,3.2-0.12,5.31-0.23c0.13,0.18,0.2,0.51,0.2,0.99L276.6,9.8
		c-0.04,0.48-0.05,0.84-0.03,1.06c-2.4,0-4.19-0.01-5.38-0.03v5.05V17c0,0.99,0.02,1.69,0.07,2.11c0.04,0.42,0.13,0.78,0.26,1.09
		c0.35,0.44,1.06,0.71,2.13,0.83c1.07,0.11,2.04,0.14,2.92,0.1c0.11,0.88,0.17,1.44,0.17,1.68c0,0.4-0.05,0.79-0.17,1.19
		c-0.46,0.02-1.19,0.03-2.18,0.03c-1.72,0-3.06-0.21-4.03-0.63c-0.97-0.42-1.58-1.25-1.85-2.51c-0.24-2.13-0.36-4.92-0.36-8.35
		v-1.58c-0.13,0.02-0.46,0.03-0.99,0.03l-2.51-0.03l0.1-2.71c0.48,0.04,1.64,0.07,3.46,0.07l-0.03-3.46V3.3
		c0-0.92,0.02-1.57,0.07-1.95c0.31-0.02,0.78-0.01,1.42,0.03l0.89,0.03C270.8,1.42,270.98,1.41,271.09,1.39z"/>
	<path d="M290,1.39v5.05l0.03,1.85c1.43-0.04,3.2-0.12,5.31-0.23c0.13,0.18,0.2,0.51,0.2,0.99l-0.03,0.76
		c-0.04,0.48-0.05,0.84-0.03,1.06c-2.4,0-4.19-0.01-5.38-0.03v5.05V17c0,0.99,0.02,1.69,0.07,2.11c0.04,0.42,0.13,0.78,0.26,1.09
		c0.35,0.44,1.06,0.71,2.13,0.83c1.07,0.11,2.04,0.14,2.92,0.1c0.11,0.88,0.17,1.44,0.17,1.68c0,0.4-0.05,0.79-0.17,1.19
		c-0.46,0.02-1.19,0.03-2.18,0.03c-1.72,0-3.06-0.21-4.03-0.63c-0.97-0.42-1.58-1.25-1.85-2.51c-0.24-2.13-0.36-4.92-0.36-8.35
		v-1.58c-0.13,0.02-0.46,0.03-0.99,0.03l-2.51-0.03l0.1-2.71c0.48,0.04,1.64,0.07,3.46,0.07l-0.03-3.46V3.3
		c0-0.92,0.02-1.57,0.07-1.95c0.31-0.02,0.78-0.01,1.42,0.03l0.89,0.03C289.71,1.42,289.89,1.41,290,1.39z"/>
	<path d="M307.49,7.42c0.51-0.02,1.16,0,1.95,0.07l0.86,0.07c0.04,0.35,0.07,0.62,0.07,0.79v0.33c-0.02,0.51-0.03,1.26-0.03,2.28
		c0,0.84,0.02,2.07,0.07,3.7l0.03,3.7c0,1.58-0.04,3.02-0.13,4.32c0,0.07,0,0.21,0,0.43s-0.02,0.42-0.07,0.59s-0.17,0.29-0.36,0.33
		h-0.56l-1.06-0.03c-0.18,0-0.33,0.01-0.46,0.03c-0.13,0.02-0.25,0.03-0.36,0.03c-0.22-0.07-0.33-0.31-0.33-0.73
		c-0.02-0.18-0.02-0.37,0.02-0.59s0.05-0.41,0.05-0.56c-0.53,0.73-1.36,1.22-2.51,1.49s-2.27,0.4-3.37,0.4
		c-1.06,0-1.95-0.47-2.69-1.4c-0.74-0.93-1.28-2.08-1.63-3.45c-0.35-1.36-0.53-2.69-0.53-3.99c0-1.43,0.24-2.72,0.73-3.86
		c0.48-1.14,1.15-2.05,2-2.72c0.85-0.67,1.79-1.02,2.82-1.04l1.06-0.03c0.99,0,1.81,0.12,2.46,0.35c0.65,0.23,1.13,0.66,1.44,1.27
		c0-0.2,0.02-0.45,0.07-0.76c0.04-0.44,0.07-0.75,0.07-0.92C307.06,7.45,307.2,7.42,307.49,7.42z M303.79,10.4
		c-1.14-0.02-2.11,0.27-2.89,0.87c-0.78,0.61-1.26,1.33-1.44,2.16c-0.18,0.64-0.26,1.5-0.26,2.57c0.11,3.54,1.54,5.24,4.29,5.08
		c1.12,0,1.94-0.2,2.44-0.59c0.51-0.4,0.82-0.96,0.94-1.68c0.12-0.73,0.18-1.82,0.18-3.27c0-1.58-0.07-2.7-0.2-3.35
		c-0.13-0.65-0.41-1.09-0.84-1.34C305.59,10.62,304.85,10.46,303.79,10.4z"/>
	<path d="M313.53,0l3,0.1c0,0.9-0.02,3.13-0.07,6.7c-0.04,4.4-0.07,7.85-0.07,10.36c0,2.77,0.03,4.98,0.1,6.63
		c-0.13,0.15-0.5,0.23-1.09,0.23l-1.02-0.03c-0.2-0.02-0.44-0.03-0.73-0.03c-0.18,0-0.29,0.01-0.33,0.03
		c0.13-1.78,0.2-3.58,0.2-5.38c0-1.36-0.04-3.41-0.13-6.14c-0.09-2.73-0.13-4.79-0.13-6.17C313.26,3.97,313.35,1.87,313.53,0z"/>
	<path d="M320.32,0l3,0.1c0,0.9-0.02,3.13-0.07,6.7c-0.04,4.4-0.07,7.85-0.07,10.36c0,2.77,0.03,4.98,0.1,6.63
		c-0.13,0.15-0.5,0.23-1.09,0.23l-1.02-0.03c-0.2-0.02-0.44-0.03-0.73-0.03c-0.18,0-0.29,0.01-0.33,0.03
		c0.13-1.78,0.2-3.58,0.2-5.38c0-1.36-0.04-3.41-0.13-6.14c-0.09-2.73-0.13-4.79-0.13-6.17C320.06,3.97,320.15,1.87,320.32,0z"/>
	<path d="M343.39,7.42c0.51-0.02,1.16,0,1.95,0.07l0.86,0.07c0.04,0.35,0.07,0.62,0.07,0.79v0.33c-0.02,0.51-0.03,1.26-0.03,2.28
		c0,0.84,0.02,2.07,0.07,3.7l0.03,3.7c0,1.58-0.04,3.02-0.13,4.32c0,0.07,0,0.21,0,0.43s-0.02,0.42-0.07,0.59s-0.17,0.29-0.36,0.33
		h-0.56l-1.06-0.03c-0.18,0-0.33,0.01-0.46,0.03c-0.13,0.02-0.25,0.03-0.36,0.03c-0.22-0.07-0.33-0.31-0.33-0.73
		c-0.02-0.18-0.02-0.37,0.02-0.59s0.05-0.41,0.05-0.56c-0.53,0.73-1.36,1.22-2.51,1.49s-2.27,0.4-3.37,0.4
		c-1.06,0-1.95-0.47-2.69-1.4c-0.74-0.93-1.28-2.08-1.63-3.45c-0.35-1.36-0.53-2.69-0.53-3.99c0-1.43,0.24-2.72,0.73-3.86
		c0.48-1.14,1.15-2.05,2-2.72c0.85-0.67,1.79-1.02,2.82-1.04l1.06-0.03c0.99,0,1.81,0.12,2.46,0.35c0.65,0.23,1.13,0.66,1.44,1.27
		c0-0.2,0.02-0.45,0.07-0.76c0.04-0.44,0.07-0.75,0.07-0.92C342.96,7.45,343.1,7.42,343.39,7.42z M339.69,10.4
		c-1.14-0.02-2.11,0.27-2.89,0.87c-0.78,0.61-1.26,1.33-1.44,2.16c-0.18,0.64-0.26,1.5-0.26,2.57c0.11,3.54,1.54,5.24,4.29,5.08
		c1.12,0,1.94-0.2,2.44-0.59c0.51-0.4,0.82-0.96,0.94-1.68c0.12-0.73,0.18-1.82,0.18-3.27c0-1.58-0.07-2.7-0.2-3.35
		c-0.13-0.65-0.41-1.09-0.84-1.34C341.49,10.62,340.75,10.46,339.69,10.4z"/>
	<path d="M351.74,7.59c0.04,0.24,0.07,0.55,0.07,0.92v0.82c0.75-0.44,1.63-0.83,2.64-1.17c1.01-0.34,2.02-0.51,3.04-0.51
		c1.21,0.04,2.2,0.38,2.97,1.02c0.53,0.46,0.79,2.34,0.79,5.64c0,0.84-0.02,2.13-0.07,3.89c-0.04,1.67-0.07,2.88-0.07,3.63
		c0,0.97,0.01,1.66,0.03,2.08c-0.42,0.07-1.02,0.1-1.81,0.1h-1.09c-0.04-0.35-0.07-0.97-0.07-1.85v-1.42l0.03-2.11
		c0.04-1.43,0.05-2.45,0.03-3.07c0-0.13-0.03-0.58-0.08-1.35c-0.05-0.77-0.18-1.45-0.38-2.05c-0.07-0.77-0.61-1.12-1.62-1.06
		c-1.52,0.02-2.63,0.23-3.35,0.63c-0.71,0.4-1.12,1.11-1.2,2.15c-0.02,0.29-0.03,0.82-0.03,1.62c0,1.23,0.02,2.55,0.07,3.96
		c0.04,0.84,0.07,1.45,0.07,1.85c0,0.81-0.03,1.65-0.1,2.51v0.13c-0.42,0.09-0.83,0.13-1.24,0.12c-0.41-0.01-0.7-0.02-0.87-0.02
		c-0.35,0-0.63,0.01-0.83,0.03l-0.03-5.68c-0.04-2.6-0.07-4.54-0.07-5.84c0-1.06,0.02-2.73,0.07-5.02c0.26,0.02,0.57,0.03,0.92,0.03
		c0.35,0,0.64-0.01,0.86-0.03c0.13,0,0.29-0.01,0.46-0.03s0.35-0.03,0.53-0.03C351.63,7.49,351.74,7.52,351.74,7.59z"/>
	<path d="M373.35,1.22V0.86c0.04-0.11,0.57-0.17,1.58-0.17c0.57,0,1,0.02,1.29,0.07v2.18c0,2.09,0.04,5.14,0.13,9.14
		c0.02,0.99,0.04,2.17,0.07,3.55c0.02,1.38,0.03,2.94,0.03,4.7c0,1.63-0.01,2.84-0.03,3.63c-0.7,0.04-1.29,0.07-1.75,0.07
		c-0.59,0-1.03-0.02-1.32-0.07c-0.02-0.04-0.03-0.27-0.03-0.69c0-0.57-0.05-1.01-0.17-1.32c-0.15,0.35-0.41,0.7-0.78,1.06
		c-0.36,0.35-0.73,0.56-1.11,0.63c-0.59,0.2-1.25,0.3-1.98,0.3c-0.35,0-0.62-0.01-0.79-0.03c-1.56-0.11-2.74-0.6-3.53-1.47
		s-1.31-1.94-1.57-3.2c-0.25-1.26-0.4-2.81-0.45-4.64c0-1.85,0.25-3.37,0.74-4.57s1.36-1.96,2.59-2.29
		c0.81-0.22,1.74-0.33,2.77-0.33c0.84,0,1.49,0.05,1.95,0.17c0.44,0.07,0.84,0.21,1.19,0.45c0.35,0.23,0.63,0.47,0.83,0.73
		s0.31,0.43,0.33,0.54l-0.03-2.81c0-0.57,0-1.08-0.02-1.53c-0.01-0.45,0-0.81,0.02-1.07c0.02-0.11,0.03-0.25,0.02-0.41
		c-0.01-0.16-0.02-0.31-0.02-0.45V2.31C373.32,1.8,373.33,1.44,373.35,1.22z M370.15,9.87l-0.63-0.03c-1.19,0-2.1,0.29-2.74,0.88
		c-0.64,0.58-1,1.49-1.09,2.72c-0.07,0.48-0.1,1.21-0.1,2.18c0.04,1.45,0.23,2.58,0.54,3.38c0.32,0.8,0.76,1.36,1.32,1.68
		c0.56,0.32,1.3,0.48,2.23,0.48c1.06,0,1.85-0.25,2.38-0.74c0.53-0.5,0.87-1.15,1.02-1.96c0.15-0.81,0.23-1.88,0.23-3.2
		c-0.02-1.25-0.09-2.23-0.21-2.94c-0.12-0.7-0.41-1.28-0.86-1.72C371.8,10.15,371.1,9.91,370.15,9.87z"/>
	<path d="M388.3,6.3v2.94c0.59-0.51,1.12-0.89,1.57-1.14c0.45-0.25,1.12-0.41,2-0.48c0.53-0.07,1.02-0.1,1.49-0.1
		c1.61,0,2.86,0.38,3.76,1.16c0.29,0.24,0.48,0.81,0.59,1.72c0.11,0.9,0.16,2.09,0.16,3.56c0,0.84-0.02,2.16-0.07,3.96
		c-0.04,1.76-0.07,3.01-0.07,3.76c0,0.62,0.02,1.36,0.07,2.24c-0.88,0.13-1.83,0.18-2.84,0.13c-0.04-0.66-0.07-1.23-0.07-1.72v-1.98
		v-6.47c-0.04-1.41-0.37-2.32-0.99-2.74c-0.13-0.09-0.4-0.18-0.79-0.26c-0.46-0.13-0.93-0.2-1.42-0.2c-0.86,0-1.59,0.21-2.19,0.64
		c-0.61,0.43-1,1.09-1.17,2c-0.15,0.84-0.23,1.84-0.23,3l0.03,1.12c0.04,1.45,0.07,2.65,0.07,3.6c0,1.19-0.02,2.1-0.07,2.74v0.13
		c-0.44,0.11-0.79,0.17-1.06,0.17l-0.99-0.03c-0.31,0-0.56,0.01-0.76,0.03c0-2.53-0.01-4.62-0.03-6.27l-0.03-10.1
		c0-2.46,0.02-4.99,0.07-7.59c0.68,0.07,1.23,0.09,1.65,0.07c0.11,0,0.25-0.01,0.41-0.03c0.16-0.02,0.33-0.03,0.51-0.03
		c0.22,0,0.33,0.03,0.33,0.1c0.04,0.2,0.07,1.54,0.07,4.03V6.3z"/>
	<path d="M410.61,7.42c0.51-0.02,1.16,0,1.95,0.07l0.86,0.07c0.04,0.35,0.07,0.62,0.07,0.79v0.33c-0.02,0.51-0.03,1.26-0.03,2.28
		c0,0.84,0.02,2.07,0.07,3.7l0.03,3.7c0,1.58-0.04,3.02-0.13,4.32c0,0.07,0,0.21,0,0.43s-0.02,0.42-0.07,0.59s-0.17,0.29-0.36,0.33
		h-0.56l-1.06-0.03c-0.18,0-0.33,0.01-0.46,0.03c-0.13,0.02-0.25,0.03-0.36,0.03c-0.22-0.07-0.33-0.31-0.33-0.73
		c-0.02-0.18-0.02-0.37,0.02-0.59s0.05-0.41,0.05-0.56c-0.53,0.73-1.36,1.22-2.51,1.49s-2.27,0.4-3.37,0.4
		c-1.06,0-1.95-0.47-2.69-1.4c-0.74-0.93-1.28-2.08-1.63-3.45c-0.35-1.36-0.53-2.69-0.53-3.99c0-1.43,0.24-2.72,0.73-3.86
		c0.48-1.14,1.15-2.05,2-2.72c0.85-0.67,1.79-1.02,2.82-1.04l1.06-0.03c0.99,0,1.81,0.12,2.46,0.35c0.65,0.23,1.13,0.66,1.44,1.27
		c0-0.2,0.02-0.45,0.07-0.76c0.04-0.44,0.07-0.75,0.07-0.92C410.18,7.45,410.32,7.42,410.61,7.42z M406.92,10.4
		c-1.14-0.02-2.11,0.27-2.89,0.87c-0.78,0.61-1.26,1.33-1.44,2.16c-0.18,0.64-0.26,1.5-0.26,2.57c0.11,3.54,1.54,5.24,4.29,5.08
		c1.12,0,1.94-0.2,2.44-0.59c0.51-0.4,0.82-0.96,0.94-1.68c0.12-0.73,0.18-1.82,0.18-3.27c0-1.58-0.07-2.7-0.2-3.35
		c-0.13-0.65-0.41-1.09-0.84-1.34C408.71,10.62,407.97,10.46,406.92,10.4z"/>
	<path d="M415,7.49c0.33,0.04,0.79,0.07,1.39,0.07c0.2,0,0.43-0.01,0.71-0.02c0.27-0.01,0.58-0.01,0.91,0.02
		c0.35,1.23,1,3.58,1.95,7.03c0.46,1.74,0.8,2.99,1.02,3.76c0.22,0.77,0.48,1.52,0.79,2.24c0.2-0.48,0.44-1.22,0.73-2.21
		c0.29-0.99,0.47-1.64,0.56-1.95c1.08-3.67,2-6.61,2.77-8.81c0.2,0,0.52-0.02,0.96-0.07c0.79-0.04,1.45-0.05,1.98-0.03
		c-0.44,1.17-0.85,2.37-1.22,3.61c-0.38,1.24-0.73,2.47-1.06,3.68c-1.06,3.65-2,6.7-2.84,9.14c-0.35,0.07-0.91,0.1-1.68,0.1
		l-2.38-0.03c-0.97-3.08-1.68-5.42-2.13-7.01c-0.45-1.59-0.91-3.35-1.37-5.26L415,7.49z"/>
	<path d="M431.99,15.64v0.59l-0.03,0.96c0,2.73,1.34,4.09,4.03,4.09c1.08,0,1.88-0.25,2.39-0.74c0.52-0.5,0.78-1.17,0.78-2.03
		c0-0.13-0.02-0.37-0.07-0.73c0.46-0.07,0.89-0.1,1.29-0.1c0.35,0,0.62,0.01,0.79,0.03c0.13,0,0.29,0,0.48,0.02
		c0.19,0.01,0.4,0.01,0.64-0.02c0.02,1.25-0.02,2.25-0.13,3s-0.37,1.46-0.79,2.14c-0.4,0.59-1.08,1.02-2.06,1.27
		c-0.98,0.25-2.05,0.38-3.22,0.38c-0.53,0-1.02-0.02-1.47-0.07c-0.45-0.04-0.73-0.09-0.84-0.13c-1.72-0.29-2.96-1.37-3.73-3.25
		c-0.77-1.88-1.1-4.03-0.99-6.45c0.02-0.18,0.05-0.54,0.1-1.11c0.04-0.56,0.1-1.14,0.18-1.73s0.23-1.18,0.45-1.75
		c0.42-0.97,1.18-1.72,2.28-2.24c1.1-0.53,2.32-0.79,3.66-0.79c0.7,0,1.44,0.09,2.21,0.26c2.99,0.51,4.49,2.76,4.49,6.77
		c0,0.33-0.02,0.8-0.07,1.42c-0.42,0.13-1.65,0.24-3.7,0.33c-0.24,0.02-0.77,0.03-1.58,0.03c-1.74,0-3.03-0.02-3.86-0.07
		C432.67,15.74,432.26,15.71,431.99,15.64z M440.01,13.17c-0.02-0.68-0.19-1.35-0.51-2.01c-0.32-0.66-0.78-1.18-1.37-1.55
		c-0.33-0.15-0.62-0.25-0.86-0.3c-0.24-0.04-0.55-0.07-0.92-0.07c-1.43,0-2.45,0.3-3.05,0.89c-0.61,0.59-0.99,1.44-1.14,2.54
		c-0.04,0.26-0.07,0.44-0.07,0.53c0,0.26,0.13,0.44,0.38,0.53s0.8,0.13,1.63,0.13c0.81,0,1.51-0.01,2.08-0.03
		c2.11,0,3.3-0.01,3.56-0.03c0.11-0.02,0.18-0.05,0.21-0.08s0.05-0.09,0.05-0.18V13.17z"/>
	<path d="M30.15,40.99v5.05l0.03,1.85c1.43-0.04,3.2-0.12,5.31-0.23c0.13,0.18,0.2,0.51,0.2,0.99l-0.03,0.76
		c-0.04,0.48-0.05,0.84-0.03,1.06c-2.4,0-4.19-0.01-5.38-0.03v5.05v1.12c0,0.99,0.02,1.69,0.07,2.11c0.04,0.42,0.13,0.78,0.26,1.09
		c0.35,0.44,1.06,0.71,2.13,0.83c1.07,0.11,2.04,0.14,2.92,0.1c0.11,0.88,0.17,1.44,0.17,1.68c0,0.4-0.05,0.79-0.17,1.19
		c-0.46,0.02-1.19,0.03-2.18,0.03c-1.72,0-3.06-0.21-4.03-0.63c-0.97-0.42-1.58-1.25-1.85-2.51c-0.24-2.13-0.36-4.92-0.36-8.35
		v-1.58c-0.13,0.02-0.46,0.03-0.99,0.03l-2.51-0.03l0.1-2.71c0.48,0.04,1.64,0.07,3.46,0.07l-0.03-3.46V42.9
		c0-0.92,0.02-1.57,0.07-1.95c0.31-0.02,0.78-0.01,1.42,0.03l0.89,0.03C29.86,41.02,30.04,41.01,30.15,40.99z"/>
	<path d="M40.28,47.19c0,0.26,0,0.47,0.02,0.61c0.01,0.14,0.02,0.31,0.02,0.51c0.15-0.09,0.37-0.19,0.64-0.3
		c0.28-0.11,0.58-0.22,0.91-0.33c0.51-0.18,1.12-0.3,1.83-0.38s1.36-0.12,1.93-0.12c0.53,0,0.79,0.02,0.79,0.07L46.38,50
		c0,0.44,0.01,0.77,0.03,0.99c-0.33-0.13-0.7-0.25-1.12-0.36c-0.48-0.11-1.01-0.17-1.58-0.17c-0.59,0-1.27,0.09-2.01,0.26
		c-0.62,0.15-1.04,0.39-1.25,0.69c-0.22,0.31-0.32,0.89-0.3,1.75c0.09,3.01,0.13,6.43,0.13,10.26v0.13
		c-0.38,0.09-0.76,0.13-1.16,0.13c-0.15,0-0.4,0-0.74-0.02c-0.34-0.01-0.69,0-1.04,0.02l-0.03-5.68c-0.04-2.6-0.07-4.54-0.07-5.84
		c0-1.06,0.02-2.73,0.07-5.02c0.22,0.02,0.46,0.03,0.71,0.02c0.25-0.01,0.48-0.02,0.68-0.02c0.26-0.02,0.62-0.03,1.06-0.03
		C40.1,47.12,40.28,47.15,40.28,47.19z"/>
	<path d="M58.03,63.59C58.01,63.17,58,62.83,58,62.55s-0.01-0.51-0.03-0.71c-0.04,0.02-0.22,0.14-0.53,0.36
		c-0.31,0.22-0.8,0.41-1.49,0.56c-1.28,0.46-2.52,0.69-3.73,0.69c-1.36,0-2.39-0.33-3.07-0.99c-0.37-0.33-0.61-0.89-0.69-1.67
		c-0.09-0.78-0.14-2.03-0.17-3.75v-1.02c0-0.68,0.02-1.68,0.07-3c0.07-1.32,0.1-2.57,0.1-3.76c0-0.57-0.02-1.28-0.07-2.11
		c0.4-0.04,0.93-0.07,1.62-0.07h1.09c0.07,0.66,0.1,1.44,0.1,2.34l-0.03,2.67c0,0.88,0.01,1.52,0.03,1.91l0.03,0.92
		c0,0.79,0.03,1.72,0.1,2.77c0.04,0.73,0.19,1.28,0.45,1.65c0.25,0.37,0.63,0.63,1.14,0.76c0.44,0.07,0.85,0.1,1.22,0.1
		c1.3,0,2.29-0.35,2.99-1.06s1.05-1.66,1.07-2.87c0.02-0.79-0.01-2.23-0.1-4.32c-0.04-1.06-0.07-1.75-0.07-2.08
		c0-0.59,0.02-1.44,0.07-2.54v-0.13c0.35-0.09,0.69-0.14,1.01-0.17c0.32-0.02,0.51-0.03,0.58-0.03c0.46,0,0.86-0.01,1.19-0.03
		l0.03,5.68c0.04,2.6,0.07,4.54,0.07,5.84c0,1.06-0.02,2.73-0.07,5.02c-0.48,0-1.02,0.03-1.62,0.1c-0.11,0-0.25,0.01-0.41,0.03
		c-0.17,0.02-0.34,0.03-0.51,0.03C58.14,63.69,58.03,63.66,58.03,63.59z"/>
	<path d="M66.44,47.19c0.04,0.24,0.07,0.55,0.07,0.92v0.82c0.75-0.44,1.63-0.83,2.64-1.17c1.01-0.34,2.02-0.51,3.04-0.51
		c1.21,0.04,2.2,0.38,2.97,1.02c0.53,0.46,0.79,2.34,0.79,5.64c0,0.84-0.02,2.13-0.07,3.89c-0.04,1.67-0.07,2.88-0.07,3.63
		c0,0.97,0.01,1.66,0.03,2.08c-0.42,0.07-1.02,0.1-1.81,0.1h-1.09c-0.04-0.35-0.07-0.97-0.07-1.85v-1.42l0.03-2.11
		c0.04-1.43,0.05-2.45,0.03-3.07c0-0.13-0.03-0.58-0.08-1.35c-0.05-0.77-0.18-1.45-0.38-2.05c-0.07-0.77-0.61-1.12-1.62-1.06
		c-1.52,0.02-2.63,0.23-3.35,0.63c-0.71,0.4-1.12,1.11-1.2,2.15c-0.02,0.29-0.03,0.82-0.03,1.62c0,1.23,0.02,2.55,0.07,3.96
		c0.04,0.84,0.07,1.45,0.07,1.85c0,0.81-0.03,1.65-0.1,2.51v0.13c-0.42,0.09-0.83,0.13-1.24,0.12c-0.41-0.01-0.7-0.02-0.87-0.02
		c-0.35,0-0.63,0.01-0.83,0.03l-0.03-5.68c-0.04-2.6-0.07-4.54-0.07-5.84c0-1.06,0.02-2.73,0.07-5.02c0.26,0.02,0.57,0.03,0.92,0.03
		c0.35,0,0.64-0.01,0.86-0.03c0.13,0,0.29-0.01,0.46-0.03s0.35-0.03,0.53-0.03C66.33,47.09,66.44,47.12,66.44,47.19z"/>
	<path d="M81.13,45.64c0,1.17-0.01,2.15-0.03,2.94l-0.03,2.38c0,0.44,0.02,0.88,0.07,1.32c1.12-0.84,2.02-1.56,2.71-2.16
		c0.68-0.6,1.5-1.35,2.44-2.23c0.62-0.62,1.09-1.07,1.42-1.35c0.37,0.09,0.87,0.13,1.49,0.13c0.46,0,0.8-0.01,1.02-0.03
		c0.15,0,0.32,0,0.51-0.02c0.19-0.01,0.38,0,0.58,0.02c-1.3,1.12-2.59,2.32-3.86,3.6c-1.34,1.34-2.73,2.62-4.16,3.83
		c1.63,1.69,2.89,3.05,3.79,4.08c0.9,1.02,1.9,2.23,3,3.61l1.52,1.85c-0.18,0-0.55,0.02-1.12,0.07c-0.62,0.04-1.11,0.07-1.49,0.07
		c-0.26,0-0.59-0.02-0.99-0.07c-0.35-0.4-0.81-0.97-1.39-1.72c-0.73-0.92-1.46-1.8-2.21-2.64s-1.84-1.89-3.27-3.17
		c0,0.62,0.01,1.14,0.03,1.58l0.03,2.51l-0.03,3.33c-0.22-0.02-0.61-0.01-1.16,0.03l-1.09,0.03c-0.33,0-0.56-0.01-0.69-0.03
		c-0.09-2.31-0.13-4.87-0.13-7.69c0-1.67,0.02-4.18,0.07-7.52c0.04-3.39,0.07-5.92,0.07-7.59v-1.16c0.44,0,0.78-0.01,1.02-0.03
		l1.19-0.03c0.33,0,0.56,0.01,0.69,0.03V45.64z"/>
	<path d="M105.15,51.38c0,0.11-0.39,0.17-1.16,0.17c-0.57,0-0.99-0.01-1.25-0.03c-0.18,0-0.35,0-0.53-0.02
		c-0.18-0.01-0.32,0-0.43,0.02c0-0.02,0-0.4,0-1.14c0-0.74-0.64-1.18-1.91-1.34c-0.29-0.04-0.71-0.07-1.29-0.07
		c-0.62,0-1.17,0.04-1.67,0.13c-0.5,0.09-0.86,0.21-1.11,0.36c-0.29,0.22-0.51,0.54-0.66,0.96c-0.15,0.42-0.23,0.83-0.23,1.22
		c0,0.31,0.04,0.52,0.13,0.63c0.24,0.51,0.56,0.86,0.96,1.06c0.22,0.15,0.76,0.34,1.62,0.56c0.86,0.22,1.59,0.34,2.21,0.36
		c0.9,0.02,1.7,0.16,2.39,0.41c0.69,0.25,1.24,0.6,1.63,1.04c0.4,0.48,0.69,0.96,0.87,1.44c0.19,0.47,0.28,0.98,0.28,1.53
		c0,0.68-0.17,1.51-0.5,2.47c-0.48,1.04-1.25,1.79-2.31,2.28c-1.06,0.48-2.25,0.71-3.6,0.69c-1.47,0.04-2.77-0.15-3.89-0.58
		c-1.12-0.43-1.99-1.07-2.61-1.93c-0.62-0.86-0.92-1.87-0.92-3.04v-0.17c0.4-0.04,0.98-0.07,1.75-0.07c0.86,0,1.32,0.03,1.39,0.1
		c0.04,0.04,0.14,0.29,0.28,0.74c0.14,0.45,0.4,0.91,0.78,1.37s1.01,0.73,1.91,0.79c0.7,0.04,1.12,0.07,1.25,0.07
		c0.35,0,0.64-0.03,0.88-0.1c0.23-0.07,0.53-0.19,0.91-0.36c1.12-0.51,1.67-1.24,1.65-2.21c0.02-0.64-0.15-1.13-0.51-1.49
		c-0.36-0.35-0.82-0.59-1.37-0.71c-0.55-0.12-1.3-0.24-2.24-0.35c-0.68-0.07-1.23-0.13-1.65-0.2c-0.42-0.07-0.79-0.18-1.12-0.33
		c-1.14-0.37-2.02-0.96-2.62-1.77c-0.61-0.8-0.91-1.68-0.91-2.62c0-1.03,0.3-1.97,0.91-2.82c0.6-0.85,1.44-1.4,2.49-1.67
		c0.9-0.24,2.06-0.36,3.46-0.36c0.33,0,0.83,0.02,1.49,0.07c0.95,0.07,1.83,0.23,2.64,0.5c0.77,0.33,1.4,0.9,1.88,1.7
		C104.91,49.5,105.15,50.39,105.15,51.38z"/>
	<path d="M116.47,47.22c0.04,0.24,0.07,0.55,0.07,0.92v0.83c0.81-0.81,1.78-1.31,2.9-1.48c0.77-0.15,1.42-0.23,1.95-0.23
		c0.95,0,1.73,0.19,2.34,0.56c0.48,0.22,0.8,0.53,0.96,0.92c0.15-0.09,0.38-0.25,0.68-0.48c0.3-0.23,0.7-0.45,1.22-0.66
		c0.52-0.21,1.24-0.32,2.16-0.35c1.1-0.04,1.96,0.01,2.59,0.15c0.63,0.14,1.19,0.43,1.7,0.88c0.29,0.24,0.48,0.81,0.59,1.72
		s0.17,2.09,0.17,3.56c0,0.84-0.02,2.16-0.07,3.96c-0.04,1.76-0.07,3.01-0.07,3.76c0,0.62,0.02,1.36,0.07,2.24
		c-0.79,0.13-1.73,0.18-2.81,0.13c-0.04-0.59-0.07-1.68-0.07-3.27c0.04-1.72,0.07-3.04,0.07-3.96v-1.39
		c-0.02-0.18-0.04-0.5-0.07-0.96c-0.02-0.46-0.07-0.97-0.13-1.52c-0.07-0.55-0.2-0.97-0.4-1.25c-0.13-0.44-0.56-0.69-1.29-0.76
		c-0.22-0.04-0.54-0.07-0.96-0.07c-0.64,0-1.19,0.1-1.65,0.31s-0.79,0.53-0.99,0.97c-0.04,0.48-0.07,0.87-0.07,1.16l0.03,0.92v1.22
		c0,0.75-0.02,1.89-0.07,3.43l-0.03,3.3c0,0.81,0.01,1.4,0.03,1.75c-0.46,0.07-1.09,0.1-1.88,0.1h-1.02
		c-0.04-0.44-0.07-1.22-0.07-2.34v-1.75l0.03-2.44c0-1.52-0.04-2.86-0.13-4.03c0-0.92-0.15-1.56-0.46-1.9
		c-0.31-0.34-0.88-0.51-1.72-0.51c-2.33,0-3.59,1.31-3.76,3.93c-0.02,0.33-0.03,0.81-0.03,1.45c0,0.71,0.02,1.69,0.07,2.97
		l0.03,1.62c0,0.9-0.03,1.84-0.1,2.8v0.13c-0.33,0.07-0.64,0.1-0.92,0.1l-1.09-0.03c-0.33,0-0.59,0.01-0.79,0.03l-0.03-5.68
		c-0.04-2.6-0.07-4.54-0.07-5.84c0-1.06,0.02-2.73,0.07-5.02c0.57,0.04,0.91,0.07,1.02,0.07l0.73-0.03c0.11,0,0.25-0.01,0.43-0.03
		c0.18-0.02,0.35-0.03,0.53-0.03C116.37,47.12,116.47,47.16,116.47,47.22z"/>
	<path d="M135.64,52.87c0-0.81,0.04-1.52,0.12-2.11s0.27-1.33,0.58-2.21c0.29-0.64,0.9-1.12,1.83-1.44
		c0.93-0.32,1.97-0.48,3.12-0.48c0.15,0.02,0.37,0.03,0.66,0.03l1.32-0.03c1.85,0,3.27,0.48,4.26,1.45c0.4,0.26,0.7,0.76,0.91,1.48
		c0.21,0.73,0.34,1.7,0.38,2.92s0.07,1.93,0.07,2.13c-0.09,2.2-0.19,3.95-0.31,5.25c-0.12,1.3-0.37,2.13-0.74,2.51
		c-0.42,0.59-1,1-1.73,1.22s-1.61,0.33-2.62,0.33c-0.4,0-0.99-0.02-1.78-0.07l-1.52-0.03c-1.3-0.22-2.27-0.69-2.92-1.42
		c-0.65-0.73-1.07-1.57-1.25-2.54c-0.19-0.97-0.28-2.13-0.28-3.5v-1.72C135.71,53.83,135.69,53.24,135.64,52.87z M142.38,49.73
		c-1.5,0-2.57,0.39-3.23,1.16c-0.29,0.35-0.47,0.8-0.54,1.34s-0.1,1.24-0.08,2.09c-0.02,0.33-0.02,0.77,0.02,1.32
		c0.03,0.55,0.05,0.98,0.05,1.29l0.07,1.39c0.07,0.88,0.31,1.5,0.74,1.87c0.43,0.36,0.97,0.61,1.63,0.74
		c0.44,0.07,0.89,0.1,1.35,0.1c0.86,0,1.61-0.15,2.24-0.46c0.64-0.31,1.04-0.81,1.22-1.52c0.09-0.57,0.13-1.02,0.13-1.35
		c0.11-1.54,0.17-2.58,0.17-3.13c0-1.45-0.26-2.62-0.79-3.5S143.83,49.73,142.38,49.73z"/>
	<path d="M153.83,47.19c0,0.26,0,0.47,0.02,0.61c0.01,0.14,0.02,0.31,0.02,0.51c0.15-0.09,0.37-0.19,0.64-0.3
		c0.28-0.11,0.58-0.22,0.91-0.33c0.51-0.18,1.12-0.3,1.83-0.38s1.36-0.12,1.93-0.12c0.53,0,0.79,0.02,0.79,0.07L159.93,50
		c0,0.44,0.01,0.77,0.03,0.99c-0.33-0.13-0.7-0.25-1.12-0.36c-0.48-0.11-1.01-0.17-1.58-0.17c-0.59,0-1.27,0.09-2.01,0.26
		c-0.62,0.15-1.04,0.39-1.25,0.69c-0.22,0.31-0.32,0.89-0.3,1.75c0.09,3.01,0.13,6.43,0.13,10.26v0.13
		c-0.38,0.09-0.76,0.13-1.16,0.13c-0.15,0-0.4,0-0.74-0.02c-0.34-0.01-0.69,0-1.04,0.02l-0.03-5.68c-0.04-2.6-0.07-4.54-0.07-5.84
		c0-1.06,0.02-2.73,0.07-5.02c0.22,0.02,0.46,0.03,0.71,0.02c0.25-0.01,0.48-0.02,0.68-0.02c0.26-0.02,0.62-0.03,1.06-0.03
		C153.65,47.12,153.83,47.15,153.83,47.19z"/>
	<path d="M164.45,55.24v0.59l-0.03,0.96c0,2.73,1.34,4.09,4.03,4.09c1.08,0,1.88-0.25,2.39-0.74c0.52-0.5,0.78-1.17,0.78-2.03
		c0-0.13-0.02-0.37-0.07-0.73c0.46-0.07,0.89-0.1,1.29-0.1c0.35,0,0.62,0.01,0.79,0.03c0.13,0,0.29,0,0.48,0.02
		c0.19,0.01,0.4,0.01,0.64-0.02c0.02,1.25-0.02,2.25-0.13,3s-0.37,1.46-0.79,2.14c-0.4,0.59-1.08,1.02-2.06,1.27
		c-0.98,0.25-2.05,0.38-3.22,0.38c-0.53,0-1.02-0.02-1.47-0.07c-0.45-0.04-0.73-0.09-0.84-0.13c-1.72-0.29-2.96-1.37-3.73-3.25
		c-0.77-1.88-1.1-4.03-0.99-6.45c0.02-0.18,0.05-0.54,0.1-1.11c0.04-0.56,0.1-1.14,0.18-1.73s0.23-1.18,0.45-1.75
		c0.42-0.97,1.18-1.72,2.28-2.24c1.1-0.53,2.32-0.79,3.66-0.79c0.7,0,1.44,0.09,2.21,0.26c2.99,0.51,4.49,2.76,4.49,6.77
		c0,0.33-0.02,0.8-0.07,1.42c-0.42,0.13-1.65,0.24-3.7,0.33c-0.24,0.02-0.77,0.03-1.58,0.03c-1.74,0-3.03-0.02-3.86-0.07
		C165.12,55.34,164.71,55.31,164.45,55.24z M172.47,52.77c-0.02-0.68-0.19-1.35-0.51-2.01c-0.32-0.66-0.78-1.18-1.37-1.55
		c-0.33-0.15-0.62-0.25-0.86-0.3c-0.24-0.04-0.55-0.07-0.92-0.07c-1.43,0-2.45,0.3-3.05,0.89c-0.61,0.59-0.99,1.44-1.14,2.54
		c-0.04,0.26-0.07,0.44-0.07,0.53c0,0.26,0.13,0.44,0.38,0.53s0.8,0.13,1.63,0.13c0.81,0,1.51-0.01,2.08-0.03
		c2.11,0,3.3-0.01,3.56-0.03c0.11-0.02,0.18-0.05,0.21-0.08s0.05-0.09,0.05-0.18V52.77z"/>
	<path d="M188.44,40.99v5.05l0.03,1.85c1.43-0.04,3.2-0.12,5.31-0.23c0.13,0.18,0.2,0.51,0.2,0.99l-0.03,0.76
		c-0.04,0.48-0.05,0.84-0.03,1.06c-2.4,0-4.19-0.01-5.38-0.03v5.05v1.12c0,0.99,0.02,1.69,0.07,2.11c0.04,0.42,0.13,0.78,0.26,1.09
		c0.35,0.44,1.06,0.71,2.13,0.83c1.07,0.11,2.04,0.14,2.92,0.1c0.11,0.88,0.17,1.44,0.17,1.68c0,0.4-0.05,0.79-0.17,1.19
		c-0.46,0.02-1.19,0.03-2.18,0.03c-1.72,0-3.06-0.21-4.03-0.63c-0.97-0.42-1.58-1.25-1.85-2.51c-0.24-2.13-0.36-4.92-0.36-8.35
		v-1.58c-0.13,0.02-0.46,0.03-0.99,0.03l-2.51-0.03l0.1-2.71c0.48,0.04,1.64,0.07,3.46,0.07l-0.03-3.46V42.9
		c0-0.92,0.02-1.57,0.07-1.95c0.31-0.02,0.78-0.01,1.42,0.03l0.89,0.03C188.16,41.02,188.33,41.01,188.44,40.99z"/>
	<path d="M198.54,45.9v2.94c0.59-0.51,1.12-0.89,1.57-1.14c0.45-0.25,1.12-0.41,2-0.48c0.53-0.07,1.02-0.1,1.49-0.1
		c1.61,0,2.86,0.38,3.76,1.16c0.29,0.24,0.48,0.81,0.59,1.72c0.11,0.9,0.16,2.09,0.16,3.56c0,0.84-0.02,2.16-0.07,3.96
		c-0.04,1.76-0.07,3.01-0.07,3.76c0,0.62,0.02,1.36,0.07,2.24c-0.88,0.13-1.83,0.18-2.84,0.13c-0.04-0.66-0.07-1.23-0.07-1.72v-1.98
		v-6.47c-0.04-1.41-0.37-2.32-0.99-2.74c-0.13-0.09-0.4-0.18-0.79-0.26c-0.46-0.13-0.93-0.2-1.42-0.2c-0.86,0-1.59,0.21-2.19,0.64
		c-0.61,0.43-1,1.09-1.17,2c-0.15,0.84-0.23,1.84-0.23,3l0.03,1.12c0.04,1.45,0.07,2.65,0.07,3.6c0,1.19-0.02,2.1-0.07,2.74v0.13
		c-0.44,0.11-0.79,0.17-1.06,0.17l-0.99-0.03c-0.31,0-0.56,0.01-0.76,0.03c0-2.53-0.01-4.62-0.03-6.27l-0.03-10.1
		c0-2.46,0.02-4.99,0.07-7.59c0.68,0.07,1.23,0.09,1.65,0.07c0.11,0,0.25-0.01,0.41-0.03c0.16-0.02,0.33-0.03,0.51-0.03
		c0.22,0,0.33,0.03,0.33,0.1c0.04,0.2,0.07,1.54,0.07,4.03V45.9z"/>
	<path d="M220.85,47.02c0.51-0.02,1.16,0,1.95,0.07l0.86,0.07c0.04,0.35,0.07,0.62,0.07,0.79v0.33c-0.02,0.51-0.03,1.26-0.03,2.28
		c0,0.84,0.02,2.07,0.07,3.7l0.03,3.7c0,1.58-0.04,3.02-0.13,4.32c0,0.07,0,0.21,0,0.43s-0.02,0.42-0.07,0.59s-0.17,0.29-0.36,0.33
		h-0.56l-1.06-0.03c-0.18,0-0.33,0.01-0.46,0.03c-0.13,0.02-0.25,0.03-0.36,0.03c-0.22-0.07-0.33-0.31-0.33-0.73
		c-0.02-0.18-0.02-0.37,0.02-0.59s0.05-0.41,0.05-0.56c-0.53,0.73-1.36,1.22-2.51,1.49s-2.27,0.4-3.37,0.4
		c-1.06,0-1.95-0.47-2.69-1.4c-0.74-0.93-1.28-2.08-1.63-3.45c-0.35-1.36-0.53-2.69-0.53-3.99c0-1.43,0.24-2.72,0.73-3.86
		c0.48-1.14,1.15-2.05,2-2.72c0.85-0.67,1.79-1.02,2.82-1.04l1.06-0.03c0.99,0,1.81,0.12,2.46,0.35c0.65,0.23,1.13,0.66,1.44,1.27
		c0-0.2,0.02-0.45,0.07-0.76c0.04-0.44,0.07-0.75,0.07-0.92C220.42,47.05,220.56,47.02,220.85,47.02z M217.15,50
		c-1.14-0.02-2.11,0.27-2.89,0.87c-0.78,0.61-1.26,1.33-1.44,2.16c-0.18,0.64-0.26,1.5-0.26,2.57c0.11,3.54,1.54,5.24,4.29,5.08
		c1.12,0,1.94-0.2,2.44-0.59c0.51-0.4,0.82-0.96,0.94-1.68c0.12-0.73,0.18-1.82,0.18-3.27c0-1.58-0.07-2.7-0.2-3.35
		c-0.13-0.65-0.41-1.09-0.84-1.34C218.95,50.21,218.21,50.06,217.15,50z"/>
	<path d="M229.2,47.19c0.04,0.24,0.07,0.55,0.07,0.92v0.82c0.75-0.44,1.63-0.83,2.64-1.17c1.01-0.34,2.02-0.51,3.04-0.51
		c1.21,0.04,2.2,0.38,2.97,1.02c0.53,0.46,0.79,2.34,0.79,5.64c0,0.84-0.02,2.13-0.07,3.89c-0.04,1.67-0.07,2.88-0.07,3.63
		c0,0.97,0.01,1.66,0.03,2.08c-0.42,0.07-1.02,0.1-1.81,0.1h-1.09c-0.04-0.35-0.07-0.97-0.07-1.85v-1.42l0.03-2.11
		c0.04-1.43,0.05-2.45,0.03-3.07c0-0.13-0.03-0.58-0.08-1.35c-0.05-0.77-0.18-1.45-0.38-2.05c-0.07-0.77-0.61-1.12-1.62-1.06
		c-1.52,0.02-2.63,0.23-3.35,0.63c-0.71,0.4-1.12,1.11-1.2,2.15c-0.02,0.29-0.03,0.82-0.03,1.62c0,1.23,0.02,2.55,0.07,3.96
		c0.04,0.84,0.07,1.45,0.07,1.85c0,0.81-0.03,1.65-0.1,2.51v0.13c-0.42,0.09-0.83,0.13-1.24,0.12c-0.41-0.01-0.7-0.02-0.87-0.02
		c-0.35,0-0.63,0.01-0.83,0.03l-0.03-5.68c-0.04-2.6-0.07-4.54-0.07-5.84c0-1.06,0.02-2.73,0.07-5.02c0.26,0.02,0.57,0.03,0.92,0.03
		c0.35,0,0.64-0.01,0.86-0.03c0.13,0,0.29-0.01,0.46-0.03s0.35-0.03,0.53-0.03C229.09,47.09,229.2,47.12,229.2,47.19z"/>
	<path d="M261.5,63.43l-8.91,0.17l-3.76,0.03h-1.48c-0.02-0.02-0.03-0.05-0.03-0.1l0.03-0.99c0.02-1.3,0.12-2.36,0.3-3.18
		c0.18-0.83,0.62-1.68,1.32-2.56c0.7-0.77,1.49-1.46,2.34-2.06c0.86-0.6,2-1.36,3.43-2.26c0.24-0.15,0.51-0.31,0.79-0.48
		c0.29-0.17,0.58-0.36,0.89-0.58c1.32-0.68,2.01-1.56,2.08-2.64l0.03-0.76c0-1.72-0.3-2.88-0.91-3.48c-0.61-0.6-1.42-0.91-2.46-0.91
		c-0.07,0-0.56,0.03-1.48,0.1c-0.95,0.11-1.65,0.61-2.1,1.5c-0.45,0.89-0.68,1.88-0.68,2.95l0.03,1.19v0.23l-0.03,0.07
		c-0.79,0.13-1.52,0.2-2.18,0.2c-0.24,0-0.63-0.02-1.16-0.07l-0.03-0.07c-0.13-0.73-0.2-1.44-0.2-2.14c0-2.24,0.62-4.07,1.85-5.48
		c0.51-0.66,1.29-1.15,2.34-1.48s2.2-0.5,3.43-0.5c1.43,0,2.65,0.2,3.66,0.59c1.32,0.68,2.22,1.75,2.69,3.22
		c0.47,1.46,0.68,3.22,0.61,5.26c-0.09,0.95-0.36,1.74-0.81,2.39c-0.45,0.65-0.99,1.19-1.62,1.62c-0.63,0.43-1.46,0.92-2.49,1.47
		c-0.88,0.46-1.6,0.86-2.15,1.21s-1.06,0.74-1.52,1.2c-0.57,0.62-1.06,1.17-1.45,1.65c-0.4,0.48-0.59,0.88-0.59,1.19
		c0,0.15,0.07,0.26,0.2,0.33c1.63,0.04,3.04,0.07,4.22,0.07c1.12,0,2.61-0.04,4.46-0.13l1.06-0.03c0.13,0.4,0.2,0.85,0.2,1.35
		l-0.03,1.09c0,0.29,0,0.43,0,0.43S261.44,63.16,261.5,63.43z"/>
	<path d="M271.43,46.93c0.15-0.02,0.46-0.02,0.92,0c0.66,0.04,1.39,0.07,2.18,0.07v0.1c0,0.99-0.02,2.52-0.07,4.59
		c-0.07,2.11-0.1,4.25-0.1,6.4c0,2.02,0.04,3.83,0.13,5.41c-0.31,0.07-0.77,0.1-1.39,0.1s-0.99,0-1.12,0c-0.4,0-0.64,0.01-0.73,0.03
		c0.02-0.64,0.03-1.61,0.03-2.9v-2.97v-2.77c-0.04-1.54-0.07-2.73-0.07-3.56c0-1.52,0.07-3,0.2-4.46V46.93z M271.3,39.83
		c1.36,0.04,2.4,0.07,3.1,0.07l0.1,4.36c-0.22,0.11-0.62,0.17-1.19,0.17c-0.35,0-0.62-0.01-0.79-0.03c-0.13,0-0.29,0-0.46-0.02
		c-0.18-0.01-0.38,0-0.63,0.02c0-0.33-0.02-0.87-0.07-1.62C271.3,41.32,271.28,40.34,271.3,39.83z"/>
	<path d="M280.51,47.19c0.04,0.24,0.07,0.55,0.07,0.92v0.82c0.75-0.44,1.63-0.83,2.64-1.17c1.01-0.34,2.02-0.51,3.04-0.51
		c1.21,0.04,2.2,0.38,2.97,1.02c0.53,0.46,0.79,2.34,0.79,5.64c0,0.84-0.02,2.13-0.07,3.89c-0.04,1.67-0.07,2.88-0.07,3.63
		c0,0.97,0.01,1.66,0.03,2.08c-0.42,0.07-1.02,0.1-1.81,0.1h-1.09c-0.04-0.35-0.07-0.97-0.07-1.85v-1.42l0.03-2.11
		c0.04-1.43,0.05-2.45,0.03-3.07c0-0.13-0.03-0.58-0.08-1.35c-0.05-0.77-0.18-1.45-0.38-2.05c-0.07-0.77-0.61-1.12-1.62-1.06
		c-1.52,0.02-2.63,0.23-3.35,0.63c-0.71,0.4-1.12,1.11-1.2,2.15c-0.02,0.29-0.03,0.82-0.03,1.62c0,1.23,0.02,2.55,0.07,3.96
		c0.04,0.84,0.07,1.45,0.07,1.85c0,0.81-0.03,1.65-0.1,2.51v0.13c-0.42,0.09-0.83,0.13-1.24,0.12c-0.41-0.01-0.7-0.02-0.87-0.02
		c-0.35,0-0.63,0.01-0.83,0.03l-0.03-5.68c-0.04-2.6-0.07-4.54-0.07-5.84c0-1.06,0.02-2.73,0.07-5.02c0.26,0.02,0.57,0.03,0.92,0.03
		c0.35,0,0.64-0.01,0.86-0.03c0.13,0,0.29-0.01,0.46-0.03s0.35-0.03,0.53-0.03C280.4,47.09,280.51,47.12,280.51,47.19z"/>
	<path d="M302.12,57.12c0.26,0.04,0.51,0.07,0.73,0.07l1.15-0.03c0.35,0,0.66,0.03,0.92,0.1c-0.11,1.52-0.23,2.7-0.35,3.53
		c-0.12,0.84-0.31,1.39-0.58,1.65c-0.42,0.59-1,1-1.73,1.22s-1.61,0.33-2.62,0.33c-0.4,0-0.99-0.02-1.78-0.07l-1.52-0.03
		c-1.3-0.22-2.27-0.71-2.9-1.47c-0.64-0.76-1.05-1.65-1.24-2.69c-0.19-1.03-0.31-2.4-0.38-4.09c0-1.23-0.01-2.13-0.03-2.71
		c0-1.3,0.24-2.74,0.73-4.32c0.29-0.64,0.9-1.12,1.83-1.44c0.93-0.32,1.97-0.48,3.12-0.48c0.18,0.02,0.43,0.03,0.76,0.03
		c0.2,0,0.45,0,0.74-0.02c0.3-0.01,0.65,0,1.07,0.02c1.65,0.15,2.87,0.62,3.66,1.39c0.51,0.35,0.83,0.91,0.97,1.68
		c0.14,0.77,0.24,1.92,0.28,3.46l0.03,0.79c-0.33,0.07-0.66,0.1-0.99,0.1c-0.57,0-1.15-0.05-1.75-0.16c-0.02-1.56-0.3-2.63-0.84-3.2
		c-0.54-0.57-1.39-0.86-2.56-0.86c-0.24,0-0.67,0.02-1.29,0.07c-0.57,0.02-1.02,0.08-1.34,0.17s-0.6,0.3-0.84,0.63
		c-0.24,0.33-0.42,0.84-0.53,1.52c-0.07,0.46-0.1,1.29-0.1,2.48v2.64c-0.04,0.73,0.13,1.48,0.53,2.26c0.4,0.78,1.19,1.23,2.38,1.34
		c0.22,0.02,0.52,0.03,0.89,0.03c1.03,0,1.8-0.2,2.31-0.59c0.51-0.4,0.83-0.85,0.97-1.37C301.99,58.57,302.08,57.92,302.12,57.12z"
		/>
	<path d="M309.78,45.9v2.94c0.59-0.51,1.12-0.89,1.57-1.14c0.45-0.25,1.12-0.41,2-0.48c0.53-0.07,1.02-0.1,1.49-0.1
		c1.61,0,2.86,0.38,3.76,1.16c0.29,0.24,0.48,0.81,0.59,1.72c0.11,0.9,0.16,2.09,0.16,3.56c0,0.84-0.02,2.16-0.07,3.96
		c-0.04,1.76-0.07,3.01-0.07,3.76c0,0.62,0.02,1.36,0.07,2.24c-0.88,0.13-1.83,0.18-2.84,0.13c-0.04-0.66-0.07-1.23-0.07-1.72v-1.98
		v-6.47c-0.04-1.41-0.37-2.32-0.99-2.74c-0.13-0.09-0.4-0.18-0.79-0.26c-0.46-0.13-0.93-0.2-1.42-0.2c-0.86,0-1.59,0.21-2.19,0.64
		c-0.61,0.43-1,1.09-1.17,2c-0.15,0.84-0.23,1.84-0.23,3l0.03,1.12c0.04,1.45,0.07,2.65,0.07,3.6c0,1.19-0.02,2.1-0.07,2.74v0.13
		c-0.44,0.11-0.79,0.17-1.06,0.17l-0.99-0.03c-0.31,0-0.56,0.01-0.76,0.03c0-2.53-0.01-4.62-0.03-6.27l-0.03-10.1
		c0-2.46,0.02-4.99,0.07-7.59c0.68,0.07,1.23,0.09,1.65,0.07c0.11,0,0.25-0.01,0.41-0.03c0.16-0.02,0.33-0.03,0.51-0.03
		c0.22,0,0.33,0.03,0.33,0.1c0.04,0.2,0.07,1.54,0.07,4.03V45.9z"/>
	<path d="M324.04,55.24v0.59L324,56.79c0,2.73,1.34,4.09,4.03,4.09c1.08,0,1.88-0.25,2.39-0.74c0.52-0.5,0.78-1.17,0.78-2.03
		c0-0.13-0.02-0.37-0.07-0.73c0.46-0.07,0.89-0.1,1.29-0.1c0.35,0,0.62,0.01,0.79,0.03c0.13,0,0.29,0,0.48,0.02
		c0.19,0.01,0.4,0.01,0.64-0.02c0.02,1.25-0.02,2.25-0.13,3s-0.37,1.46-0.79,2.14c-0.4,0.59-1.08,1.02-2.06,1.27
		c-0.98,0.25-2.05,0.38-3.22,0.38c-0.53,0-1.02-0.02-1.47-0.07c-0.45-0.04-0.73-0.09-0.84-0.13c-1.72-0.29-2.96-1.37-3.73-3.25
		c-0.77-1.88-1.1-4.03-0.99-6.45c0.02-0.18,0.05-0.54,0.1-1.11c0.04-0.56,0.1-1.14,0.18-1.73s0.23-1.18,0.45-1.75
		c0.42-0.97,1.18-1.72,2.28-2.24c1.1-0.53,2.32-0.79,3.66-0.79c0.7,0,1.44,0.09,2.21,0.26c2.99,0.51,4.49,2.76,4.49,6.77
		c0,0.33-0.02,0.8-0.07,1.42c-0.42,0.13-1.65,0.24-3.7,0.33c-0.24,0.02-0.77,0.03-1.58,0.03c-1.74,0-3.03-0.02-3.86-0.07
		C324.71,55.34,324.3,55.31,324.04,55.24z M332.05,52.77c-0.02-0.68-0.19-1.35-0.51-2.01c-0.32-0.66-0.78-1.18-1.37-1.55
		c-0.33-0.15-0.62-0.25-0.86-0.3c-0.24-0.04-0.55-0.07-0.92-0.07c-1.43,0-2.45,0.3-3.05,0.89c-0.61,0.59-0.99,1.44-1.14,2.54
		c-0.04,0.26-0.07,0.44-0.07,0.53c0,0.26,0.13,0.44,0.38,0.53s0.8,0.13,1.63,0.13c0.81,0,1.51-0.01,2.08-0.03
		c2.11,0,3.3-0.01,3.56-0.03c0.11-0.02,0.18-0.05,0.21-0.08s0.05-0.09,0.05-0.18V52.77z"/>
	<path d="M349.38,51.38c0,0.11-0.39,0.17-1.16,0.17c-0.57,0-0.99-0.01-1.25-0.03c-0.18,0-0.35,0-0.53-0.02
		c-0.18-0.01-0.32,0-0.43,0.02c0-0.02,0-0.4,0-1.14c0-0.74-0.64-1.18-1.91-1.34c-0.29-0.04-0.71-0.07-1.29-0.07
		c-0.62,0-1.17,0.04-1.67,0.13c-0.5,0.09-0.86,0.21-1.11,0.36c-0.29,0.22-0.51,0.54-0.66,0.96c-0.15,0.42-0.23,0.83-0.23,1.22
		c0,0.31,0.04,0.52,0.13,0.63c0.24,0.51,0.56,0.86,0.96,1.06c0.22,0.15,0.76,0.34,1.62,0.56c0.86,0.22,1.59,0.34,2.21,0.36
		c0.9,0.02,1.7,0.16,2.39,0.41c0.69,0.25,1.24,0.6,1.63,1.04c0.4,0.48,0.69,0.96,0.87,1.44c0.19,0.47,0.28,0.98,0.28,1.53
		c0,0.68-0.17,1.51-0.5,2.47c-0.48,1.04-1.25,1.79-2.31,2.28c-1.06,0.48-2.25,0.71-3.6,0.69c-1.47,0.04-2.77-0.15-3.89-0.58
		c-1.12-0.43-1.99-1.07-2.61-1.93c-0.62-0.86-0.92-1.87-0.92-3.04v-0.17c0.4-0.04,0.98-0.07,1.75-0.07c0.86,0,1.32,0.03,1.39,0.1
		c0.04,0.04,0.14,0.29,0.28,0.74c0.14,0.45,0.4,0.91,0.78,1.37s1.01,0.73,1.91,0.79c0.7,0.04,1.12,0.07,1.25,0.07
		c0.35,0,0.64-0.03,0.88-0.1c0.23-0.07,0.53-0.19,0.91-0.36c1.12-0.51,1.67-1.24,1.65-2.21c0.02-0.64-0.15-1.13-0.51-1.49
		c-0.36-0.35-0.82-0.59-1.37-0.71c-0.55-0.12-1.3-0.24-2.24-0.35c-0.68-0.07-1.23-0.13-1.65-0.2c-0.42-0.07-0.79-0.18-1.12-0.33
		c-1.14-0.37-2.02-0.96-2.62-1.77c-0.61-0.8-0.91-1.68-0.91-2.62c0-1.03,0.3-1.97,0.91-2.82c0.6-0.85,1.44-1.4,2.49-1.67
		c0.9-0.24,2.06-0.36,3.46-0.36c0.33,0,0.83,0.02,1.49,0.07c0.95,0.07,1.83,0.23,2.64,0.5c0.77,0.33,1.4,0.9,1.88,1.7
		C349.14,49.5,349.38,50.39,349.38,51.38z"/>
	<path d="M362.88,40.99v5.05l0.03,1.85c1.43-0.04,3.2-0.12,5.31-0.23c0.13,0.18,0.2,0.51,0.2,0.99l-0.03,0.76
		c-0.04,0.48-0.05,0.84-0.03,1.06c-2.4,0-4.19-0.01-5.38-0.03v5.05v1.12c0,0.99,0.02,1.69,0.07,2.11c0.04,0.42,0.13,0.78,0.26,1.09
		c0.35,0.44,1.06,0.71,2.13,0.83c1.07,0.11,2.04,0.14,2.92,0.1c0.11,0.88,0.17,1.44,0.17,1.68c0,0.4-0.05,0.79-0.17,1.19
		c-0.46,0.02-1.19,0.03-2.18,0.03c-1.72,0-3.06-0.21-4.03-0.63c-0.97-0.42-1.58-1.25-1.85-2.51c-0.24-2.13-0.36-4.92-0.36-8.35
		v-1.58c-0.13,0.02-0.46,0.03-0.99,0.03l-2.51-0.03l0.1-2.71c0.48,0.04,1.64,0.07,3.46,0.07l-0.03-3.46V42.9
		c0-0.92,0.02-1.57,0.07-1.95c0.31-0.02,0.78-0.01,1.42,0.03l0.89,0.03C362.59,41.02,362.76,41.01,362.88,40.99z"/>
	<path d="M372.97,45.9v2.94c0.59-0.51,1.12-0.89,1.57-1.14c0.45-0.25,1.12-0.41,2-0.48c0.53-0.07,1.02-0.1,1.49-0.1
		c1.61,0,2.86,0.38,3.76,1.16c0.29,0.24,0.48,0.81,0.59,1.72c0.11,0.9,0.16,2.09,0.16,3.56c0,0.84-0.02,2.16-0.07,3.96
		c-0.04,1.76-0.07,3.01-0.07,3.76c0,0.62,0.02,1.36,0.07,2.24c-0.88,0.13-1.83,0.18-2.84,0.13c-0.04-0.66-0.07-1.23-0.07-1.72v-1.98
		v-6.47c-0.04-1.41-0.37-2.32-0.99-2.74c-0.13-0.09-0.4-0.18-0.79-0.26c-0.46-0.13-0.93-0.2-1.42-0.2c-0.86,0-1.59,0.21-2.19,0.64
		c-0.61,0.43-1,1.09-1.17,2c-0.15,0.84-0.23,1.84-0.23,3l0.03,1.12c0.04,1.45,0.07,2.65,0.07,3.6c0,1.19-0.02,2.1-0.07,2.74v0.13
		c-0.44,0.11-0.79,0.17-1.06,0.17l-0.99-0.03c-0.31,0-0.56,0.01-0.76,0.03c0-2.53-0.01-4.62-0.03-6.27l-0.03-10.1
		c0-2.46,0.02-4.99,0.07-7.59c0.68,0.07,1.23,0.09,1.65,0.07c0.11,0,0.25-0.01,0.41-0.03c0.16-0.02,0.33-0.03,0.51-0.03
		c0.22,0,0.33,0.03,0.33,0.1c0.04,0.2,0.07,1.54,0.07,4.03V45.9z"/>
	<path d="M385.68,46.93c0.15-0.02,0.46-0.02,0.92,0c0.66,0.04,1.39,0.07,2.18,0.07v0.1c0,0.99-0.02,2.52-0.07,4.59
		c-0.07,2.11-0.1,4.25-0.1,6.4c0,2.02,0.04,3.83,0.13,5.41c-0.31,0.07-0.77,0.1-1.39,0.1s-0.99,0-1.12,0c-0.4,0-0.64,0.01-0.73,0.03
		c0.02-0.64,0.03-1.61,0.03-2.9v-2.97v-2.77c-0.04-1.54-0.07-2.73-0.07-3.56c0-1.52,0.07-3,0.2-4.46V46.93z M385.55,39.83
		c1.36,0.04,2.4,0.07,3.1,0.07l0.1,4.36c-0.22,0.11-0.62,0.17-1.19,0.17c-0.35,0-0.62-0.01-0.79-0.03c-0.13,0-0.29,0-0.46-0.02
		c-0.18-0.01-0.38,0-0.63,0.02c0-0.33-0.02-0.87-0.07-1.62C385.55,41.32,385.52,40.34,385.55,39.83z"/>
	<path d="M401.52,57.12c0.26,0.04,0.51,0.07,0.73,0.07l1.15-0.03c0.35,0,0.66,0.03,0.92,0.1c-0.11,1.52-0.23,2.7-0.35,3.53
		c-0.12,0.84-0.31,1.39-0.58,1.65c-0.42,0.59-1,1-1.73,1.22s-1.61,0.33-2.62,0.33c-0.4,0-0.99-0.02-1.78-0.07l-1.52-0.03
		c-1.3-0.22-2.27-0.71-2.9-1.47c-0.64-0.76-1.05-1.65-1.24-2.69c-0.19-1.03-0.31-2.4-0.38-4.09c0-1.23-0.01-2.13-0.03-2.71
		c0-1.3,0.24-2.74,0.73-4.32c0.29-0.64,0.9-1.12,1.83-1.44c0.93-0.32,1.97-0.48,3.12-0.48c0.18,0.02,0.43,0.03,0.76,0.03
		c0.2,0,0.45,0,0.74-0.02c0.3-0.01,0.65,0,1.07,0.02c1.65,0.15,2.87,0.62,3.66,1.39c0.51,0.35,0.83,0.91,0.97,1.68
		c0.14,0.77,0.24,1.92,0.28,3.46l0.03,0.79c-0.33,0.07-0.66,0.1-0.99,0.1c-0.57,0-1.15-0.05-1.75-0.16c-0.02-1.56-0.3-2.63-0.84-3.2
		c-0.54-0.57-1.39-0.86-2.56-0.86c-0.24,0-0.67,0.02-1.29,0.07c-0.57,0.02-1.02,0.08-1.34,0.17s-0.6,0.3-0.84,0.63
		c-0.24,0.33-0.42,0.84-0.53,1.52c-0.07,0.46-0.1,1.29-0.1,2.48v2.64c-0.04,0.73,0.13,1.48,0.53,2.26c0.4,0.78,1.19,1.23,2.38,1.34
		c0.22,0.02,0.52,0.03,0.89,0.03c1.03,0,1.8-0.2,2.31-0.59c0.51-0.4,0.83-0.85,0.97-1.37C401.38,58.57,401.47,57.92,401.52,57.12z"
		/>
	<path d="M409.17,45.64c0,1.17-0.01,2.15-0.03,2.94l-0.03,2.38c0,0.44,0.02,0.88,0.07,1.32c1.12-0.84,2.02-1.56,2.71-2.16
		c0.68-0.6,1.5-1.35,2.44-2.23c0.62-0.62,1.09-1.07,1.42-1.35c0.37,0.09,0.87,0.13,1.49,0.13c0.46,0,0.8-0.01,1.02-0.03
		c0.15,0,0.32,0,0.51-0.02c0.19-0.01,0.38,0,0.58,0.02c-1.3,1.12-2.59,2.32-3.86,3.6c-1.34,1.34-2.73,2.62-4.16,3.83
		c1.63,1.69,2.89,3.05,3.79,4.08c0.9,1.02,1.9,2.23,3,3.61l1.52,1.85c-0.18,0-0.55,0.02-1.12,0.07c-0.62,0.04-1.11,0.07-1.49,0.07
		c-0.26,0-0.59-0.02-0.99-0.07c-0.35-0.4-0.81-0.97-1.39-1.72c-0.73-0.92-1.46-1.8-2.21-2.64s-1.84-1.89-3.27-3.17
		c0,0.62,0.01,1.14,0.03,1.58l0.03,2.51l-0.03,3.33c-0.22-0.02-0.61-0.01-1.16,0.03l-1.09,0.03c-0.33,0-0.56-0.01-0.69-0.03
		c-0.09-2.31-0.13-4.87-0.13-7.69c0-1.67,0.02-4.18,0.07-7.52c0.04-3.39,0.07-5.92,0.07-7.59v-1.16c0.44,0,0.78-0.01,1.02-0.03
		l1.19-0.03c0.33,0,0.56,0.01,0.69,0.03V45.64z"/>
</g>
</svg>
