<!-- Generator: Adobe Illustrator 23.1.1, SVG Export Plug-In  -->
<svg version="1.1" xmlns="http://www.w3.org/2000/svg" xmlns:xlink="http://www.w3.org/1999/xlink" x="0px" y="0px" width="187px"
	 height="187px" viewBox="0 0 187 187" style="enable-background:new 0 0 187 187;" xml:space="preserve">
<style type="text/css">
	.st0{fill:#FBEB02;}
	.st1{fill:url(#SVGID_1_);}
	.st2{fill:#FFFFFF;}
	.st3{fill:none;stroke:#000000;stroke-miterlimit:10;}
	.st4{fill:url(#SVGID_2_);}
</style>
<defs>
</defs>
<circle class="st0" cx="93.5" cy="93.5" r="93.5"/>
<linearGradient id="SVGID_1_" gradientUnits="userSpaceOnUse" x1="28.0451" y1="59.1323" x2="175.9329" y2="136.7822">
	<stop  offset="0" style="stop-color:#FFF823"/>
	<stop  offset="1" style="stop-color:#F8D700"/>
</linearGradient>
<circle class="st1" cx="93.5" cy="93.5" r="83.5"/>
<g>
	<g>
		<path class="st2" d="M49.82,63.73c2.97,0,5.18-0.02,6.64-0.07l7.01-0.08c7.34,0,13.4,0.28,18.17,0.83
			c0.05,0.45,0.08,1.23,0.08,2.34c0,1.71-0.13,3.52-0.38,5.43c-1.11-0.2-2.66-0.27-4.67-0.23c-1.61,0.1-3.22,0.15-4.83,0.15h-1.96
			c0.1,0.3,0.1,0.6,0,0.91c-0.05,0.3-0.08,3.7-0.08,10.18c0,1.56,0.02,2.84,0.08,3.84c0.15,13.27,0.3,23,0.45,29.18v0.15
			c-0.9,0.15-2.29,0.23-4.15,0.23c-1.96,0-3.45,0.1-4.45,0.3c-0.05-0.2-0.06-0.54-0.04-1.02s0.04-1.02,0.04-1.62v-4.6
			c0.05-1.01,0.08-2.82,0.08-5.43c0-2.97-0.03-5.35-0.08-7.17c-0.1-7.19-0.28-15.28-0.53-24.28v-0.3c-1.06-0.3-3.85-0.5-8.37-0.6
			c-1.61,0-2.49-0.02-2.64-0.08c-0.15-0.3-0.25-1.26-0.3-2.87C49.85,67.33,49.82,65.59,49.82,63.73z"/>
		<path class="st2" d="M88.13,63.43c0.35-0.05,0.78-0.08,1.28-0.08c0.4,0,1.1,0.05,2.11,0.15c2.41,0.15,4.12,0.25,5.13,0.3v0.3
			c0,3.27-0.05,8.27-0.15,15.01c-0.15,6.69-0.23,13.45-0.23,20.28c0,6.38,0.1,12.11,0.3,17.19c-0.4,0.3-1.41,0.45-3.02,0.45
			l-4.15-0.07c-0.65,0-1.28,0.05-1.89,0.15c0.2-3.82,0.3-8.37,0.3-13.65c0-3.22-0.02-5.66-0.08-7.31l-0.23-12.89l-0.08-6.71
			c0-4.42,0.23-8.75,0.68-12.97V63.43z"/>
		<path class="st2" d="M138.57,79.8v0.98c-0.35,5.33-2.43,9.39-6.22,12.18c-3.8,2.79-9.08,4.18-15.87,4.18
			c-1.41,0-2.46-0.02-3.17-0.08c0.05,0.45,0.08,1.13,0.08,2.04v3.02c0,1.91,0.08,6.53,0.23,13.87v0.08l-0.23,0.08
			c-1.21,0.3-2.69,0.45-4.45,0.45c-1.21,0-2.39-0.08-3.54-0.23c-0.15-3.37-0.23-9-0.23-16.89V84.55c0-7.79-0.1-14.5-0.3-20.13
			c3.42-0.96,7.09-1.43,11.01-1.43c6.13,0,11.37,1.34,15.72,4.03C135.95,69.7,138.27,73.96,138.57,79.8z M131.19,77.99
			c-0.71-2.51-1.76-4.22-3.17-5.13c-1.41-0.95-2.81-1.63-4.22-2.04s-3.22-0.6-5.43-0.6c-2.87,0-4.98,0.18-6.33,0.53
			c0.05,0.55,0.07,1.28,0.07,2.19v3.7v4.07c0.1,4.88,0.25,8.04,0.45,9.5c3.07,0,5.89-0.15,8.48-0.45c2.59-0.3,5-1.12,7.24-2.45
			c2.24-1.33,3.35-3.38,3.35-6.15C131.64,80.15,131.49,79.09,131.19,77.99z"/>
	</g>
	<g>
		<path class="st3" d="M52.77,64.34c2.95,0,5.15-0.02,6.6-0.07l6.97-0.07c7.3,0,13.32,0.27,18.07,0.8c0.05,0.43,0.08,1.19,0.08,2.25
			c0,1.65-0.13,3.39-0.37,5.24c-1.1-0.19-2.65-0.26-4.65-0.22c-1.6,0.1-3.2,0.14-4.8,0.14h-1.95c0.1,0.29,0.1,0.58,0,0.87
			c-0.05,0.29-0.08,3.56-0.08,9.82c0,1.5,0.02,2.74,0.08,3.71c0.15,12.8,0.3,22.18,0.45,28.15v0.14c-0.9,0.15-2.27,0.22-4.12,0.22
			c-1.95,0-3.43,0.1-4.42,0.29c-0.05-0.19-0.06-0.52-0.04-0.98c0.02-0.46,0.04-0.98,0.04-1.56v-4.44c0.05-0.97,0.08-2.72,0.08-5.24
			c0-2.86-0.03-5.16-0.08-6.91c-0.1-6.93-0.28-14.74-0.52-23.42v-0.29c-1.05-0.29-3.82-0.48-8.32-0.58c-1.6,0-2.48-0.02-2.62-0.07
			c-0.15-0.29-0.25-1.21-0.3-2.76C52.8,67.8,52.77,66.13,52.77,64.34z"/>
		<path class="st3" d="M90.85,64.04c0.35-0.05,0.77-0.07,1.28-0.07c0.4,0,1.1,0.05,2.1,0.15c2.4,0.15,4.1,0.24,5.1,0.29v0.29
			c0,3.15-0.05,7.98-0.15,14.47c-0.15,6.45-0.22,12.97-0.22,19.56c0,6.16,0.1,11.68,0.3,16.58c-0.4,0.29-1.4,0.43-3,0.43l-4.12-0.07
			c-0.65,0-1.28,0.05-1.87,0.14c0.2-3.68,0.3-8.07,0.3-13.16c0-3.1-0.02-5.46-0.08-7.05l-0.22-12.43l-0.08-6.47
			c0-4.27,0.23-8.44,0.67-12.51V64.04z"/>
		<path class="st3" d="M141,79.83v0.94c-0.35,5.14-2.41,9.06-6.18,11.75c-3.77,2.69-9.03,4.04-15.78,4.04
			c-1.4,0-2.45-0.02-3.15-0.07c0.05,0.44,0.08,1.09,0.08,1.96v2.91c0,1.84,0.08,6.3,0.22,13.38v0.07l-0.22,0.07
			c-1.2,0.29-2.68,0.44-4.42,0.44c-1.2,0-2.37-0.07-3.52-0.22c-0.15-3.25-0.23-8.68-0.23-16.29v-14.4c0-7.52-0.1-13.99-0.3-19.42
			c3.4-0.92,7.05-1.38,10.94-1.38c6.1,0,11.31,1.3,15.63,3.89C138.39,70.09,140.7,74.2,141,79.83z M133.66,78.08
			c-0.7-2.42-1.75-4.07-3.15-4.95c-1.4-0.92-2.8-1.58-4.2-1.96c-1.4-0.39-3.2-0.58-5.4-0.58c-2.85,0-4.95,0.17-6.3,0.51
			c0.05,0.53,0.07,1.24,0.07,2.11v3.56v3.93c0.1,4.7,0.25,7.76,0.45,9.16c3.05,0,5.86-0.14,8.43-0.43c2.57-0.29,4.97-1.08,7.2-2.37
			c2.22-1.28,3.33-3.26,3.33-5.93C134.1,80.17,133.95,79.15,133.66,78.08z"/>
	</g>
</g>
</svg>
