<!-- Generator: Adobe Illustrator 23.1.1, SVG Export Plug-In  -->
<svg version="1.1" xmlns="http://www.w3.org/2000/svg" xmlns:xlink="http://www.w3.org/1999/xlink" x="0px" y="0px"
	 width="113.49px" height="78.81px" viewBox="0 0 113.49 78.81" style="enable-background:new 0 0 113.49 78.81;"
	 xml:space="preserve">
<style type="text/css">
	.st0{fill:none;stroke:#000000;stroke-miterlimit:10;}
</style>
<defs>
</defs>
<path class="st0" d="M85.75,47.96c6.64-9.45,7.11-18.8,9.21-29.42c-9.87,3.19-18.72,12.92-25.38,20.74c-1.8,2.11-3.38,4.31-4.84,6.7
	c0.1-3.01-0.99-5.29-1.27-8.06C63,33.38,62.9,32,62.44,28.9c-0.95-6.46-2.44-13.01-1.7-19.73c0.29-2.61,1.36-5.56,2.63-7.91
	c-11.94,6.6-15.16,25.72-16.24,37.86c-0.32,3.56,0.42,6.24,1.34,9.26c-1.81-4.65-8.86-8.29-13.98-11.92
	c-5.91-4.2-10.39-9.28-16.41-13.18c-2.27-1.47-5.82-4.23-8.47-4.4c-0.09,2.36,1.89,5.37,2.86,7.62c1.27,2.96,2.34,6.06,3.66,9.03
	c2.53,5.7,4.86,10.87,8.35,15.83c-3.91-1.86-7.57-3.94-11.47-6c-4.41-2.33-8.29-6.13-12.37-7.9c0.65,4.18,3.96,9.19,6.26,12.79
	c3.14,4.91,7.2,7.95,12.61,10.3c10.32,4.48,20.73,8.75,31.23,13.06c3.92,1.61,8.68,3.42,10.03,4.41c2.72-7.17,15.81-8.97,21.3-13.23
	c6.51-5.05,12.49-10.83,19.35-15.31c3.15-2.06,6.97-3.92,10.43-5.04C103.47,41.8,93.1,44.43,85.75,47.96z"/>
</svg>
