<!-- Generator: Adobe Illustrator 23.1.1, SVG Export Plug-In  -->
<svg version="1.1" xmlns="http://www.w3.org/2000/svg" xmlns:xlink="http://www.w3.org/1999/xlink" x="0px" y="0px"
	 width="162.65px" height="104.62px" viewBox="0 0 162.65 104.62" style="enable-background:new 0 0 162.65 104.62;"
	 xml:space="preserve">
<style type="text/css">
	.st0{fill:none;stroke:#000000;stroke-width:0.5;stroke-miterlimit:10;}
</style>
<defs>
</defs>
<g>
	<path class="st0" d="M95.89,53.11c2.5-1.71,15.68-12.04,6.6-34.74c0,0-18,11-11,31l0.64,0.64c-6.81-5.31-15.03-10.04-24.95-13.64
		h0.31c0,0,16-10-2-36c0,0-15.4,13.5-1.76,34.82c-7.23-2.33-15.3-4.07-24.33-5.01c-0.95-1.94-9.77-17.61-38.91,1.19
		c0,0,31.81,17.34,38.63-0.04c9.29,1.73,21.62,4.96,33.86,10.95c-5.92,0.34-17.89,3.21-24.5,20.09c0,0,32,0,31-16l-0.4-0.53
		l0.3-0.14c11.94,6.9,23.26,16.72,30.97,30.65c-1.78-0.35-23.24-4.14-31.87,15.03c0,0,24.86,5.96,34.91-8.88
		c2.84,6.48,4.96,13.73,6.09,21.88h5C124.49,104.37,120.97,75.09,95.89,53.11z M78.74,45.37l-0.07-0.09
		c0.04,0.02,0.09,0.05,0.13,0.08C78.78,45.36,78.76,45.36,78.74,45.37z"/>
	<path class="st0" d="M126.49,104.37h6c4-31,28-32,28-32C134.49,67.37,126.49,104.37,126.49,104.37z"/>
</g>
</svg>
