<!-- Generator: Adobe Illustrator 23.1.1, SVG Export Plug-In  -->
<svg version="1.1" xmlns="http://www.w3.org/2000/svg" xmlns:xlink="http://www.w3.org/1999/xlink" x="0px" y="0px"
	 width="197.58px" height="23.32px" viewBox="0 0 197.58 23.32" style="enable-background:new 0 0 197.58 23.32;"
	 xml:space="preserve">
<defs>
</defs>
<g>
	<path d="M4.94,0.28c0.47,0,0.82,0,1.06-0.01l1.12-0.01c1.17,0,2.13,0.04,2.89,0.13c0.01,0.07,0.01,0.2,0.01,0.37
		c0,0.27-0.02,0.56-0.06,0.86C9.78,1.59,9.53,1.58,9.21,1.58C8.95,1.6,8.7,1.61,8.44,1.61H8.13c0.02,0.05,0.02,0.1,0,0.14
		C8.12,1.8,8.12,2.34,8.12,3.37c0,0.25,0,0.45,0.01,0.61C8.15,6.1,8.18,7.64,8.2,8.63v0.02C8.06,8.68,7.84,8.69,7.54,8.69
		c-0.31,0-0.55,0.02-0.71,0.05C6.83,8.7,6.82,8.65,6.83,8.57c0-0.08,0.01-0.16,0.01-0.26V7.58c0.01-0.16,0.01-0.45,0.01-0.86
		c0-0.47,0-0.85-0.01-1.14C6.82,4.44,6.79,3.15,6.75,1.72V1.67c-0.17-0.05-0.61-0.08-1.33-0.1c-0.26,0-0.4,0-0.42-0.01
		C4.97,1.51,4.96,1.36,4.95,1.1C4.94,0.85,4.94,0.57,4.94,0.28z"/>
	<path d="M11.65,2.29v1.07c0.22-0.18,0.41-0.32,0.57-0.41c0.16-0.09,0.41-0.15,0.73-0.17c0.19-0.02,0.37-0.04,0.54-0.04
		c0.58,0,1.04,0.14,1.37,0.42c0.1,0.09,0.18,0.3,0.22,0.62s0.06,0.76,0.06,1.3c0,0.3-0.01,0.78-0.02,1.44
		c-0.02,0.64-0.02,1.1-0.02,1.37c0,0.22,0.01,0.5,0.02,0.82c-0.32,0.05-0.66,0.06-1.03,0.05c-0.02-0.24-0.02-0.45-0.02-0.62V7.4
		V5.05c-0.02-0.51-0.14-0.84-0.36-1c-0.05-0.03-0.14-0.06-0.29-0.1c-0.17-0.05-0.34-0.07-0.52-0.07c-0.31,0-0.58,0.08-0.8,0.23
		c-0.22,0.16-0.36,0.4-0.43,0.73c-0.06,0.3-0.08,0.67-0.08,1.09l0.01,0.41c0.02,0.53,0.02,0.96,0.02,1.31c0,0.43-0.01,0.76-0.02,1
		V8.7c-0.16,0.04-0.29,0.06-0.38,0.06l-0.36-0.01c-0.11,0-0.2,0-0.28,0.01c0-0.92,0-1.68-0.01-2.28l-0.01-3.67
		c0-0.9,0.01-1.82,0.02-2.76c0.25,0.02,0.45,0.03,0.6,0.02c0.04,0,0.09,0,0.15-0.01c0.06-0.01,0.12-0.01,0.19-0.01
		c0.08,0,0.12,0.01,0.12,0.04c0.02,0.07,0.02,0.56,0.02,1.46V2.29z"/>
	<path d="M16.27,2.66c0.06-0.01,0.17-0.01,0.34,0c0.24,0.02,0.5,0.02,0.79,0.02v0.04c0,0.36-0.01,0.92-0.02,1.67
		c-0.02,0.77-0.04,1.54-0.04,2.33c0,0.74,0.02,1.39,0.05,1.97c-0.11,0.02-0.28,0.04-0.5,0.04c-0.22,0-0.36,0-0.41,0
		c-0.14,0-0.23,0-0.26,0.01c0.01-0.23,0.01-0.58,0.01-1.06V6.6V5.59c-0.02-0.56-0.02-0.99-0.02-1.3c0-0.55,0.02-1.09,0.07-1.62V2.66
		z M16.22,0.08c0.5,0.02,0.87,0.02,1.13,0.02l0.04,1.58c-0.08,0.04-0.22,0.06-0.43,0.06c-0.13,0-0.22,0-0.29-0.01
		c-0.05,0-0.1,0-0.17-0.01c-0.06,0-0.14,0-0.23,0.01c0-0.12-0.01-0.32-0.02-0.59C16.22,0.62,16.21,0.27,16.22,0.08z"/>
	<path d="M23.2,4.28c0,0.04-0.14,0.06-0.42,0.06c-0.21,0-0.36,0-0.46-0.01c-0.06,0-0.13,0-0.19-0.01c-0.06,0-0.12,0-0.16,0.01
		c0-0.01,0-0.15,0-0.41c0-0.27-0.23-0.43-0.7-0.49c-0.1-0.02-0.26-0.02-0.47-0.02c-0.22,0-0.43,0.02-0.61,0.05
		c-0.18,0.03-0.31,0.08-0.4,0.13c-0.1,0.08-0.18,0.2-0.24,0.35c-0.06,0.15-0.08,0.3-0.08,0.44c0,0.11,0.02,0.19,0.05,0.23
		c0.09,0.18,0.2,0.31,0.35,0.38c0.08,0.06,0.28,0.12,0.59,0.2s0.58,0.12,0.8,0.13c0.33,0.01,0.62,0.06,0.87,0.15
		c0.25,0.09,0.45,0.22,0.59,0.38c0.14,0.18,0.25,0.35,0.32,0.52c0.07,0.17,0.1,0.36,0.1,0.56c0,0.25-0.06,0.55-0.18,0.9
		c-0.18,0.38-0.46,0.65-0.84,0.83c-0.38,0.18-0.82,0.26-1.31,0.25c-0.54,0.02-1.01-0.05-1.42-0.21C19,8.55,18.69,8.32,18.46,8
		c-0.22-0.31-0.34-0.68-0.34-1.1V6.84c0.14-0.02,0.36-0.02,0.64-0.02c0.31,0,0.48,0.01,0.5,0.04c0.02,0.02,0.05,0.11,0.1,0.27
		c0.05,0.16,0.15,0.33,0.28,0.5c0.14,0.17,0.37,0.26,0.7,0.29c0.26,0.02,0.41,0.02,0.46,0.02c0.13,0,0.23-0.01,0.32-0.04
		s0.19-0.07,0.33-0.13c0.41-0.18,0.61-0.45,0.6-0.8c0.01-0.23-0.05-0.41-0.19-0.54c-0.13-0.13-0.3-0.21-0.5-0.26
		c-0.2-0.04-0.47-0.09-0.82-0.13c-0.25-0.02-0.45-0.05-0.6-0.07c-0.15-0.02-0.29-0.06-0.41-0.12c-0.42-0.14-0.73-0.35-0.95-0.64
		c-0.22-0.29-0.33-0.61-0.33-0.95c0-0.38,0.11-0.72,0.33-1.03c0.22-0.31,0.52-0.51,0.91-0.61c0.33-0.09,0.75-0.13,1.26-0.13
		c0.12,0,0.3,0.01,0.54,0.02c0.34,0.02,0.66,0.08,0.96,0.18c0.28,0.12,0.51,0.33,0.68,0.62C23.11,3.6,23.2,3.92,23.2,4.28z"/>
	<path d="M27.31,11.02v0.13c0,0.02-0.05,0.03-0.16,0.04c-0.1,0.01-0.22,0.02-0.35,0.02c-0.18,0-0.36-0.01-0.52-0.04v-0.79
		c0-0.75-0.02-1.86-0.05-3.31c-0.01-0.35-0.02-0.78-0.02-1.29C26.21,5.27,26.2,4.7,26.2,4.06c0-0.59,0-1.03,0.01-1.32l0.78-0.01
		c0.16,0,0.28,0,0.35,0.01c0.01,0.01,0.01,0.04,0.02,0.1c0,0.06,0.01,0.12,0.01,0.19c0,0.03,0,0.07,0.01,0.11
		c0,0.04,0,0.1-0.01,0.17c0.01,0.04,0.02,0.06,0.04,0.05c0.02,0,0.05-0.03,0.08-0.09c0.14-0.18,0.34-0.32,0.59-0.4
		s0.5-0.12,0.76-0.12c0.13,0,0.22,0,0.26,0.01c0.55,0.04,0.97,0.21,1.27,0.52c0.29,0.3,0.49,0.69,0.58,1.15s0.15,1.04,0.17,1.72
		c0,0.61-0.08,1.14-0.23,1.58c-0.16,0.45-0.4,0.73-0.74,0.85c-0.2,0.08-0.44,0.13-0.72,0.16C29.33,8.74,29.19,8.75,29,8.75
		c-0.4,0-0.77-0.03-1.12-0.1s-0.52-0.14-0.54-0.24l0.02,1.46c0,0.18-0.01,0.39-0.02,0.65L27.31,11.02z M28.4,7.82
		c0.38,0,0.66-0.02,0.86-0.05s0.36-0.12,0.5-0.25c0.14-0.13,0.25-0.35,0.34-0.64c0.06-0.31,0.1-0.6,0.1-0.88
		c0-0.64-0.11-1.19-0.34-1.66s-0.67-0.67-1.31-0.62c-0.38,0.03-0.67,0.14-0.85,0.32c-0.18,0.18-0.29,0.42-0.34,0.71
		c-0.05,0.3-0.07,0.71-0.07,1.25c0,0.57,0.02,0.97,0.07,1.22s0.15,0.41,0.29,0.49S28.05,7.82,28.4,7.82z"/>
	<path d="M32.09,0l1.09,0.04c0,0.33-0.01,1.14-0.02,2.44c-0.02,1.6-0.02,2.86-0.02,3.77c0,1.01,0.01,1.81,0.04,2.41
		c-0.05,0.06-0.18,0.08-0.4,0.08l-0.37-0.01c-0.07-0.01-0.16-0.01-0.26-0.01c-0.06,0-0.1,0-0.12,0.01c0.05-0.65,0.07-1.3,0.07-1.96
		c0-0.5-0.02-1.24-0.05-2.23C32.01,3.54,32,2.8,32,2.29C32,1.44,32.03,0.68,32.09,0z"/>
	<path d="M38.08,2.7c0.18-0.01,0.42,0,0.71,0.02l0.31,0.02c0.02,0.13,0.02,0.22,0.02,0.29v0.12c-0.01,0.18-0.01,0.46-0.01,0.83
		c0,0.3,0.01,0.75,0.02,1.34l0.01,1.34c0,0.58-0.02,1.1-0.05,1.57c0,0.02,0,0.08,0,0.16c0,0.08-0.01,0.15-0.02,0.22
		c-0.02,0.06-0.06,0.1-0.13,0.12h-0.2l-0.38-0.01c-0.06,0-0.12,0-0.17,0.01c-0.05,0.01-0.09,0.01-0.13,0.01
		c-0.08-0.02-0.12-0.11-0.12-0.26c-0.01-0.06-0.01-0.14,0.01-0.22c0.01-0.08,0.02-0.15,0.02-0.2c-0.19,0.26-0.5,0.44-0.91,0.54
		c-0.42,0.1-0.82,0.14-1.22,0.14c-0.38,0-0.71-0.17-0.98-0.51c-0.27-0.34-0.47-0.76-0.59-1.25c-0.13-0.5-0.19-0.98-0.19-1.45
		c0-0.52,0.09-0.99,0.26-1.4c0.18-0.42,0.42-0.75,0.73-0.99c0.31-0.24,0.65-0.37,1.03-0.38l0.38-0.01c0.36,0,0.66,0.04,0.89,0.13
		s0.41,0.24,0.52,0.46c0-0.07,0.01-0.16,0.02-0.28c0.02-0.16,0.02-0.27,0.02-0.34C37.93,2.71,37.98,2.7,38.08,2.7z M36.74,3.78
		c-0.42-0.01-0.77,0.1-1.05,0.32c-0.28,0.22-0.46,0.48-0.52,0.79c-0.06,0.23-0.1,0.54-0.1,0.94c0.04,1.29,0.56,1.9,1.56,1.85
		c0.41,0,0.7-0.07,0.89-0.22s0.3-0.35,0.34-0.61c0.04-0.26,0.07-0.66,0.07-1.19c0-0.58-0.02-0.98-0.07-1.22
		c-0.05-0.24-0.15-0.4-0.31-0.49C37.39,3.86,37.12,3.8,36.74,3.78z"/>
	<path d="M41.12,2.76c0.02,0.09,0.02,0.2,0.02,0.34v0.3c0.27-0.16,0.59-0.3,0.96-0.43c0.37-0.12,0.74-0.19,1.1-0.19
		c0.44,0.02,0.8,0.14,1.08,0.37c0.19,0.17,0.29,0.85,0.29,2.05c0,0.3-0.01,0.78-0.02,1.42c-0.02,0.61-0.02,1.05-0.02,1.32
		c0,0.35,0,0.6,0.01,0.76c-0.15,0.02-0.37,0.04-0.66,0.04h-0.4c-0.02-0.13-0.02-0.35-0.02-0.67V7.55l0.01-0.77
		c0.02-0.52,0.02-0.89,0.01-1.12c0-0.05-0.01-0.21-0.03-0.49c-0.02-0.28-0.07-0.53-0.14-0.74c-0.02-0.28-0.22-0.41-0.59-0.38
		c-0.55,0.01-0.96,0.08-1.22,0.23s-0.41,0.4-0.44,0.78c-0.01,0.1-0.01,0.3-0.01,0.59c0,0.45,0.01,0.93,0.02,1.44
		c0.02,0.3,0.02,0.53,0.02,0.67c0,0.3-0.01,0.6-0.04,0.91v0.05c-0.15,0.03-0.3,0.05-0.45,0.04c-0.15,0-0.25-0.01-0.32-0.01
		c-0.13,0-0.23,0-0.3,0.01L39.99,6.7c-0.02-0.94-0.02-1.65-0.02-2.12c0-0.38,0.01-0.99,0.02-1.82c0.1,0.01,0.21,0.01,0.34,0.01
		s0.23,0,0.31-0.01c0.05,0,0.1,0,0.17-0.01c0.06-0.01,0.13-0.01,0.19-0.01C41.08,2.72,41.12,2.74,41.12,2.76z"/>
	<path d="M47.43,0.5v1.84l0.01,0.67c0.52-0.02,1.16-0.04,1.93-0.08c0.05,0.06,0.07,0.18,0.07,0.36l-0.01,0.28
		c-0.02,0.18-0.02,0.3-0.01,0.38c-0.87,0-1.52,0-1.96-0.01v1.84v0.41c0,0.36,0.01,0.62,0.02,0.77s0.05,0.28,0.1,0.4
		c0.13,0.16,0.39,0.26,0.77,0.3c0.39,0.04,0.74,0.05,1.06,0.04C49.46,8,49.48,8.2,49.48,8.29c0,0.14-0.02,0.29-0.06,0.43
		c-0.17,0.01-0.43,0.01-0.79,0.01c-0.62,0-1.11-0.08-1.46-0.23c-0.35-0.15-0.58-0.46-0.67-0.91c-0.09-0.78-0.13-1.79-0.13-3.04V3.98
		C46.31,3.99,46.19,4,46,4l-0.91-0.01L45.13,3c0.18,0.02,0.6,0.02,1.26,0.02l-0.01-1.26V1.2c0-0.34,0.01-0.57,0.02-0.71
		c0.11-0.01,0.28,0,0.52,0.01l0.32,0.01C47.33,0.52,47.39,0.51,47.43,0.5z"/>
	<path d="M53.5,2.29v1.07c0.22-0.18,0.41-0.32,0.57-0.41c0.16-0.09,0.41-0.15,0.73-0.17c0.19-0.02,0.37-0.04,0.54-0.04
		c0.58,0,1.04,0.14,1.37,0.42c0.1,0.09,0.18,0.3,0.22,0.62s0.06,0.76,0.06,1.3c0,0.3-0.01,0.78-0.02,1.44
		c-0.02,0.64-0.02,1.1-0.02,1.37c0,0.22,0.01,0.5,0.02,0.82c-0.32,0.05-0.66,0.06-1.03,0.05C55.91,8.51,55.9,8.3,55.9,8.12V7.4V5.05
		c-0.02-0.51-0.14-0.84-0.36-1c-0.05-0.03-0.14-0.06-0.29-0.1c-0.17-0.05-0.34-0.07-0.52-0.07c-0.31,0-0.58,0.08-0.8,0.23
		c-0.22,0.16-0.36,0.4-0.43,0.73c-0.06,0.3-0.08,0.67-0.08,1.09l0.01,0.41c0.02,0.53,0.02,0.96,0.02,1.31c0,0.43-0.01,0.76-0.02,1
		V8.7c-0.16,0.04-0.29,0.06-0.38,0.06L52.7,8.75c-0.11,0-0.2,0-0.28,0.01c0-0.92,0-1.68-0.01-2.28L52.4,2.81
		c0-0.9,0.01-1.82,0.02-2.76c0.25,0.02,0.45,0.03,0.6,0.02c0.04,0,0.09,0,0.15-0.01c0.06-0.01,0.12-0.01,0.19-0.01
		c0.08,0,0.12,0.01,0.12,0.04c0.02,0.07,0.02,0.56,0.02,1.46V2.29z"/>
	<path d="M61.61,2.7c0.18-0.01,0.42,0,0.71,0.02l0.31,0.02c0.02,0.13,0.02,0.22,0.02,0.29v0.12c-0.01,0.18-0.01,0.46-0.01,0.83
		c0,0.3,0.01,0.75,0.02,1.34l0.01,1.34c0,0.58-0.02,1.1-0.05,1.57c0,0.02,0,0.08,0,0.16c0,0.08-0.01,0.15-0.02,0.22
		c-0.02,0.06-0.06,0.1-0.13,0.12h-0.2l-0.38-0.01c-0.06,0-0.12,0-0.17,0.01c-0.05,0.01-0.09,0.01-0.13,0.01
		c-0.08-0.02-0.12-0.11-0.12-0.26c-0.01-0.06-0.01-0.14,0.01-0.22c0.01-0.08,0.02-0.15,0.02-0.2C61.3,8.33,61,8.51,60.58,8.6
		c-0.42,0.1-0.82,0.14-1.22,0.14c-0.38,0-0.71-0.17-0.98-0.51c-0.27-0.34-0.47-0.76-0.59-1.25c-0.13-0.5-0.19-0.98-0.19-1.45
		c0-0.52,0.09-0.99,0.26-1.4c0.18-0.42,0.42-0.75,0.73-0.99c0.31-0.24,0.65-0.37,1.03-0.38l0.38-0.01c0.36,0,0.66,0.04,0.89,0.13
		s0.41,0.24,0.52,0.46c0-0.07,0.01-0.16,0.02-0.28c0.02-0.16,0.02-0.27,0.02-0.34C61.46,2.71,61.51,2.7,61.61,2.7z M60.27,3.78
		c-0.42-0.01-0.77,0.1-1.05,0.32c-0.28,0.22-0.46,0.48-0.52,0.79c-0.06,0.23-0.1,0.54-0.1,0.94c0.04,1.29,0.56,1.9,1.56,1.85
		c0.41,0,0.7-0.07,0.89-0.22s0.3-0.35,0.34-0.61c0.04-0.26,0.07-0.66,0.07-1.19c0-0.58-0.02-0.98-0.07-1.22
		c-0.05-0.24-0.15-0.4-0.31-0.49C60.92,3.86,60.65,3.8,60.27,3.78z"/>
	<path d="M68.29,4.28c0,0.04-0.14,0.06-0.42,0.06c-0.21,0-0.36,0-0.46-0.01c-0.06,0-0.13,0-0.19-0.01c-0.06,0-0.12,0-0.16,0.01
		c0-0.01,0-0.15,0-0.41c0-0.27-0.23-0.43-0.7-0.49c-0.1-0.02-0.26-0.02-0.47-0.02c-0.22,0-0.43,0.02-0.61,0.05
		c-0.18,0.03-0.31,0.08-0.4,0.13c-0.1,0.08-0.18,0.2-0.24,0.35c-0.06,0.15-0.08,0.3-0.08,0.44c0,0.11,0.02,0.19,0.05,0.23
		c0.09,0.18,0.2,0.31,0.35,0.38c0.08,0.06,0.28,0.12,0.59,0.2c0.31,0.08,0.58,0.12,0.8,0.13c0.33,0.01,0.62,0.06,0.87,0.15
		c0.25,0.09,0.45,0.22,0.59,0.38c0.14,0.18,0.25,0.35,0.32,0.52c0.07,0.17,0.1,0.36,0.1,0.56c0,0.25-0.06,0.55-0.18,0.9
		c-0.18,0.38-0.46,0.65-0.84,0.83c-0.38,0.18-0.82,0.26-1.31,0.25c-0.54,0.02-1.01-0.05-1.42-0.21c-0.41-0.16-0.72-0.39-0.95-0.7
		s-0.34-0.68-0.34-1.1V6.84c0.14-0.02,0.36-0.02,0.64-0.02c0.31,0,0.48,0.01,0.5,0.04c0.02,0.02,0.05,0.11,0.1,0.27
		s0.15,0.33,0.28,0.5c0.14,0.17,0.37,0.26,0.7,0.29c0.26,0.02,0.41,0.02,0.46,0.02c0.13,0,0.23-0.01,0.32-0.04s0.19-0.07,0.33-0.13
		c0.41-0.18,0.61-0.45,0.6-0.8c0.01-0.23-0.05-0.41-0.19-0.54c-0.13-0.13-0.3-0.21-0.5-0.26s-0.47-0.09-0.82-0.13
		c-0.25-0.02-0.45-0.05-0.6-0.07c-0.15-0.02-0.29-0.06-0.41-0.12c-0.42-0.14-0.73-0.35-0.95-0.64s-0.33-0.61-0.33-0.95
		c0-0.38,0.11-0.72,0.33-1.03s0.52-0.51,0.91-0.61c0.33-0.09,0.75-0.13,1.26-0.13c0.12,0,0.3,0.01,0.54,0.02
		c0.34,0.02,0.66,0.08,0.96,0.18c0.28,0.12,0.51,0.33,0.68,0.62C68.2,3.6,68.29,3.92,68.29,4.28z"/>
	<path d="M76.09,4.28c0,0.04-0.14,0.06-0.42,0.06c-0.21,0-0.36,0-0.46-0.01c-0.06,0-0.13,0-0.19-0.01c-0.06,0-0.12,0-0.16,0.01
		c0-0.01,0-0.15,0-0.41c0-0.27-0.23-0.43-0.7-0.49c-0.1-0.02-0.26-0.02-0.47-0.02c-0.22,0-0.43,0.02-0.61,0.05
		c-0.18,0.03-0.31,0.08-0.4,0.13c-0.1,0.08-0.18,0.2-0.24,0.35c-0.06,0.15-0.08,0.3-0.08,0.44c0,0.11,0.02,0.19,0.05,0.23
		c0.09,0.18,0.2,0.31,0.35,0.38c0.08,0.06,0.28,0.12,0.59,0.2c0.31,0.08,0.58,0.12,0.8,0.13c0.33,0.01,0.62,0.06,0.87,0.15
		c0.25,0.09,0.45,0.22,0.59,0.38c0.14,0.18,0.25,0.35,0.32,0.52c0.07,0.17,0.1,0.36,0.1,0.56c0,0.25-0.06,0.55-0.18,0.9
		c-0.18,0.38-0.46,0.65-0.84,0.83c-0.38,0.18-0.82,0.26-1.31,0.25c-0.54,0.02-1.01-0.05-1.42-0.21c-0.41-0.16-0.72-0.39-0.95-0.7
		s-0.34-0.68-0.34-1.1V6.84c0.14-0.02,0.36-0.02,0.64-0.02c0.31,0,0.48,0.01,0.5,0.04c0.02,0.02,0.05,0.11,0.1,0.27
		s0.15,0.33,0.28,0.5c0.14,0.17,0.37,0.26,0.7,0.29c0.26,0.02,0.41,0.02,0.46,0.02c0.13,0,0.23-0.01,0.32-0.04s0.19-0.07,0.33-0.13
		c0.41-0.18,0.61-0.45,0.6-0.8c0.01-0.23-0.05-0.41-0.19-0.54c-0.13-0.13-0.3-0.21-0.5-0.26s-0.47-0.09-0.82-0.13
		c-0.25-0.02-0.45-0.05-0.6-0.07c-0.15-0.02-0.29-0.06-0.41-0.12c-0.42-0.14-0.73-0.35-0.95-0.64s-0.33-0.61-0.33-0.95
		c0-0.38,0.11-0.72,0.33-1.03S72,2.71,72.38,2.62c0.33-0.09,0.75-0.13,1.26-0.13c0.12,0,0.3,0.01,0.54,0.02
		c0.34,0.02,0.66,0.08,0.96,0.18c0.28,0.12,0.51,0.33,0.68,0.62C76,3.6,76.09,3.92,76.09,4.28z"/>
	<path d="M78.76,0.5v1.84l0.01,0.67c0.52-0.02,1.16-0.04,1.93-0.08c0.05,0.06,0.07,0.18,0.07,0.36l-0.01,0.28
		c-0.02,0.18-0.02,0.3-0.01,0.38c-0.87,0-1.52,0-1.96-0.01v1.84v0.41c0,0.36,0.01,0.62,0.02,0.77s0.05,0.28,0.1,0.4
		c0.13,0.16,0.39,0.26,0.77,0.3c0.39,0.04,0.74,0.05,1.06,0.04C80.79,8,80.82,8.2,80.82,8.29c0,0.14-0.02,0.29-0.06,0.43
		c-0.17,0.01-0.43,0.01-0.79,0.01c-0.62,0-1.11-0.08-1.46-0.23c-0.35-0.15-0.58-0.46-0.67-0.91c-0.09-0.78-0.13-1.79-0.13-3.04V3.98
		C77.65,3.99,77.53,4,77.33,4l-0.91-0.01L76.46,3c0.18,0.02,0.6,0.02,1.26,0.02l-0.01-1.26V1.2c0-0.34,0.01-0.57,0.02-0.71
		c0.11-0.01,0.28,0,0.52,0.01l0.32,0.01C78.66,0.52,78.72,0.51,78.76,0.5z"/>
	<path d="M82.45,2.76c0,0.1,0,0.17,0.01,0.22c0,0.05,0.01,0.11,0.01,0.19c0.06-0.03,0.13-0.07,0.23-0.11
		c0.1-0.04,0.21-0.08,0.33-0.12c0.18-0.06,0.41-0.11,0.67-0.14s0.49-0.04,0.7-0.04c0.19,0,0.29,0.01,0.29,0.02l-0.01,1
		c0,0.16,0,0.28,0.01,0.36c-0.12-0.05-0.26-0.09-0.41-0.13c-0.18-0.04-0.37-0.06-0.58-0.06c-0.22,0-0.46,0.03-0.73,0.1
		c-0.22,0.06-0.38,0.14-0.46,0.25c-0.08,0.11-0.12,0.32-0.11,0.64c0.03,1.1,0.05,2.34,0.05,3.73v0.05
		c-0.14,0.03-0.28,0.05-0.42,0.05c-0.06,0-0.15,0-0.27-0.01c-0.12,0-0.25,0-0.38,0.01L81.37,6.7c-0.02-0.94-0.02-1.65-0.02-2.12
		c0-0.38,0.01-0.99,0.02-1.82c0.08,0.01,0.17,0.01,0.26,0.01c0.09,0,0.17-0.01,0.25-0.01c0.1-0.01,0.22-0.01,0.38-0.01
		C82.38,2.74,82.45,2.74,82.45,2.76z"/>
	<path d="M89.24,2.7c0.18-0.01,0.42,0,0.71,0.02l0.31,0.02c0.02,0.13,0.02,0.22,0.02,0.29v0.12c-0.01,0.18-0.01,0.46-0.01,0.83
		c0,0.3,0.01,0.75,0.02,1.34l0.01,1.34c0,0.58-0.02,1.1-0.05,1.57c0,0.02,0,0.08,0,0.16c0,0.08-0.01,0.15-0.02,0.22
		c-0.02,0.06-0.06,0.1-0.13,0.12h-0.2l-0.38-0.01c-0.06,0-0.12,0-0.17,0.01c-0.05,0.01-0.09,0.01-0.13,0.01
		c-0.08-0.02-0.12-0.11-0.12-0.26c-0.01-0.06-0.01-0.14,0.01-0.22c0.01-0.08,0.02-0.15,0.02-0.2c-0.19,0.26-0.5,0.44-0.91,0.54
		c-0.42,0.1-0.82,0.14-1.22,0.14c-0.38,0-0.71-0.17-0.98-0.51c-0.27-0.34-0.47-0.76-0.59-1.25c-0.13-0.5-0.19-0.98-0.19-1.45
		c0-0.52,0.09-0.99,0.26-1.4c0.18-0.42,0.42-0.75,0.73-0.99s0.65-0.37,1.03-0.38l0.38-0.01c0.36,0,0.66,0.04,0.89,0.13
		c0.24,0.08,0.41,0.24,0.52,0.46c0-0.07,0.01-0.16,0.02-0.28c0.02-0.16,0.02-0.27,0.02-0.34C89.08,2.71,89.13,2.7,89.24,2.7z
		 M87.9,3.78c-0.42-0.01-0.77,0.1-1.05,0.32c-0.28,0.22-0.46,0.48-0.52,0.79c-0.06,0.23-0.1,0.54-0.1,0.94
		c0.04,1.29,0.56,1.9,1.56,1.85c0.41,0,0.7-0.07,0.89-0.22c0.18-0.14,0.3-0.35,0.34-0.61c0.04-0.26,0.07-0.66,0.07-1.19
		c0-0.58-0.02-0.98-0.07-1.22c-0.05-0.24-0.15-0.4-0.31-0.49S88.28,3.8,87.9,3.78z"/>
	<path d="M91.46,2.66c0.06-0.01,0.17-0.01,0.34,0c0.24,0.02,0.5,0.02,0.79,0.02v0.04c0,0.36-0.01,0.92-0.02,1.67
		c-0.02,0.77-0.04,1.54-0.04,2.33c0,0.74,0.02,1.39,0.05,1.97c-0.11,0.02-0.28,0.04-0.5,0.04c-0.22,0-0.36,0-0.41,0
		c-0.14,0-0.23,0-0.26,0.01c0.01-0.23,0.01-0.58,0.01-1.06V6.6V5.59c-0.02-0.56-0.02-0.99-0.02-1.3c0-0.55,0.02-1.09,0.07-1.62V2.66
		z M91.41,0.08c0.5,0.02,0.87,0.02,1.13,0.02l0.04,1.58c-0.08,0.04-0.22,0.06-0.43,0.06c-0.13,0-0.22,0-0.29-0.01
		c-0.05,0-0.1,0-0.17-0.01c-0.06,0-0.14,0-0.23,0.01c0-0.12-0.01-0.32-0.02-0.59C91.41,0.62,91.4,0.27,91.41,0.08z"/>
	<path d="M98.21,10.28c-0.15,0.34-0.34,0.57-0.58,0.68c-0.23,0.11-0.5,0.18-0.8,0.2c-0.35,0.02-0.57,0.02-0.66,0.02
		c-0.15,0-0.35-0.01-0.59-0.02c-0.53-0.04-0.97-0.22-1.33-0.53c-0.36-0.31-0.54-0.7-0.54-1.18c0-0.1,0-0.18,0.01-0.24
		c0.04-0.02,0.15-0.03,0.32-0.04c0.18-0.01,0.34-0.02,0.5-0.02c0.14,0,0.21,0.01,0.23,0.02c0.01,0.02,0.01,0.08,0.01,0.18
		c0,0.21,0.05,0.39,0.14,0.55c0.1,0.16,0.3,0.26,0.61,0.31c0.16,0.01,0.37,0.01,0.62,0.01c0.34,0,0.58-0.02,0.74-0.05
		c0.16-0.04,0.26-0.1,0.3-0.19c0.04-0.09,0.06-0.23,0.04-0.41V9.14v-0.4c0-0.04,0-0.08,0.01-0.13s0.01-0.12,0.02-0.2
		c-0.14,0.16-0.29,0.26-0.47,0.29s-0.51,0.05-1,0.05h-0.46c-0.8,0-1.32-0.25-1.56-0.76c-0.2-0.38-0.31-0.84-0.34-1.4
		c0-0.74,0.03-1.36,0.09-1.85c0.06-0.49,0.24-0.93,0.53-1.33s0.75-0.61,1.39-0.65c0.42-0.01,0.74,0.01,0.97,0.04
		c0.23,0.04,0.4,0.1,0.51,0.19c0.11,0.09,0.2,0.21,0.28,0.37c0.02-0.11,0.04-0.22,0.04-0.31c0-0.05,0-0.1-0.01-0.15
		c0-0.05,0-0.1,0.01-0.15c0.21-0.02,0.36-0.02,0.47-0.02l0.62,0.01c0.03,0.93,0.05,2.02,0.05,3.26c0,1.24-0.02,2.32-0.06,3.24
		c0,0.08,0,0.19-0.01,0.32c0,0.14-0.01,0.27-0.02,0.39C98.28,10.08,98.25,10.19,98.21,10.28z M94.39,5.87v0.14
		c-0.02,0.43,0.05,0.84,0.22,1.21s0.48,0.58,0.94,0.6c0.12,0.01,0.28,0.01,0.49,0.01c0.43,0,0.74-0.08,0.93-0.23
		c0.19-0.15,0.29-0.45,0.32-0.89c0-0.57,0-1.02-0.01-1.37c0-0.81-0.18-1.31-0.54-1.5c-0.17-0.1-0.4-0.14-0.7-0.14
		c-0.16,0-0.32,0.01-0.47,0.04c-0.45,0.08-0.76,0.31-0.92,0.68C94.47,4.79,94.39,5.28,94.39,5.87z"/>
	<path d="M100.3,2.29v1.07c0.22-0.18,0.41-0.32,0.57-0.41c0.16-0.09,0.41-0.15,0.73-0.17c0.19-0.02,0.37-0.04,0.54-0.04
		c0.58,0,1.04,0.14,1.37,0.42c0.1,0.09,0.18,0.3,0.22,0.62s0.06,0.76,0.06,1.3c0,0.3-0.01,0.78-0.02,1.44
		c-0.02,0.64-0.02,1.1-0.02,1.37c0,0.22,0.01,0.5,0.02,0.82c-0.32,0.05-0.66,0.06-1.03,0.05c-0.02-0.24-0.02-0.45-0.02-0.62V7.4
		V5.05c-0.02-0.51-0.14-0.84-0.36-1c-0.05-0.03-0.14-0.06-0.29-0.1c-0.17-0.05-0.34-0.07-0.52-0.07c-0.31,0-0.58,0.08-0.8,0.23
		c-0.22,0.16-0.36,0.4-0.43,0.73c-0.06,0.3-0.08,0.67-0.08,1.09l0.01,0.41c0.02,0.53,0.02,0.96,0.02,1.31c0,0.43-0.01,0.76-0.02,1
		V8.7c-0.16,0.04-0.29,0.06-0.38,0.06L99.5,8.75c-0.11,0-0.2,0-0.28,0.01c0-0.92,0-1.68-0.01-2.28L99.2,2.81
		c0-0.9,0.01-1.82,0.02-2.76c0.25,0.02,0.45,0.03,0.6,0.02c0.04,0,0.09,0,0.15-0.01c0.06-0.01,0.12-0.01,0.19-0.01
		c0.08,0,0.12,0.01,0.12,0.04c0.02,0.07,0.02,0.56,0.02,1.46V2.29z"/>
	<path d="M106.65,0.5v1.84l0.01,0.67c0.52-0.02,1.16-0.04,1.93-0.08c0.05,0.06,0.07,0.18,0.07,0.36l-0.01,0.28
		c-0.02,0.18-0.02,0.3-0.01,0.38c-0.87,0-1.52,0-1.96-0.01v1.84v0.41c0,0.36,0.01,0.62,0.02,0.77s0.05,0.28,0.1,0.4
		c0.13,0.16,0.39,0.26,0.77,0.3c0.39,0.04,0.74,0.05,1.06,0.04c0.04,0.32,0.06,0.52,0.06,0.61c0,0.14-0.02,0.29-0.06,0.43
		c-0.17,0.01-0.43,0.01-0.79,0.01c-0.62,0-1.11-0.08-1.46-0.23c-0.35-0.15-0.58-0.46-0.67-0.91c-0.09-0.78-0.13-1.79-0.13-3.04V3.98
		C105.53,3.99,105.41,4,105.22,4l-0.91-0.01L104.35,3c0.18,0.02,0.6,0.02,1.26,0.02l-0.01-1.26V1.2c0-0.34,0.01-0.57,0.02-0.71
		c0.11-0.01,0.28,0,0.52,0.01l0.32,0.01C106.55,0.52,106.61,0.51,106.65,0.5z"/>
	<path d="M110.44,8.98l-0.1,0.48l-0.1,0.47c-0.02-0.01-0.12-0.01-0.29-0.01c-0.06-0.01-0.18-0.01-0.35-0.01
		c-0.02-0.02,0.01-0.17,0.08-0.47c0.09-0.34,0.14-0.57,0.16-0.7l-0.4-0.05c-0.02,0-0.03,0-0.04-0.01c0-0.22,0.02-0.68,0.05-1.38
		V7.28h0.01c0.11-0.02,0.23-0.04,0.35-0.04c0.08,0,0.22,0.01,0.41,0.02c0.14,0.02,0.25,0.02,0.32,0.02h0.01l-0.05,1.38h-0.02
		l-0.01,0.04c0,0.05-0.01,0.09-0.02,0.14S110.45,8.94,110.44,8.98z"/>
	<path d="M114.2,0l1.09,0.04c0,0.33-0.01,1.14-0.02,2.44c-0.02,1.6-0.02,2.86-0.02,3.77c0,1.01,0.01,1.81,0.04,2.41
		c-0.05,0.06-0.18,0.08-0.4,0.08l-0.37-0.01c-0.07-0.01-0.16-0.01-0.26-0.01c-0.06,0-0.1,0-0.12,0.01c0.05-0.65,0.07-1.3,0.07-1.96
		c0-0.5-0.02-1.24-0.05-2.23c-0.03-0.99-0.05-1.74-0.05-2.24C114.1,1.44,114.13,0.68,114.2,0z"/>
	<path d="M116.23,4.82c0-0.3,0.01-0.55,0.04-0.77s0.1-0.48,0.21-0.8c0.1-0.23,0.33-0.41,0.67-0.52c0.34-0.12,0.72-0.17,1.13-0.17
		c0.06,0.01,0.14,0.01,0.24,0.01L119,2.56c0.67,0,1.19,0.18,1.55,0.53c0.14,0.1,0.25,0.28,0.33,0.54c0.08,0.26,0.12,0.62,0.14,1.06
		c0.02,0.44,0.02,0.7,0.02,0.77c-0.03,0.8-0.07,1.44-0.11,1.91s-0.13,0.78-0.27,0.91c-0.15,0.22-0.36,0.36-0.63,0.44
		s-0.59,0.12-0.95,0.12c-0.14,0-0.36-0.01-0.65-0.02l-0.55-0.01c-0.47-0.08-0.83-0.25-1.06-0.52c-0.24-0.26-0.39-0.57-0.46-0.92
		c-0.07-0.35-0.1-0.78-0.1-1.27V5.47C116.25,5.18,116.24,4.96,116.23,4.82z M118.67,3.68c-0.54,0-0.94,0.14-1.18,0.42
		c-0.1,0.13-0.17,0.29-0.2,0.49c-0.03,0.2-0.04,0.45-0.03,0.76c-0.01,0.12-0.01,0.28,0.01,0.48c0.01,0.2,0.02,0.36,0.02,0.47
		l0.02,0.5c0.02,0.32,0.11,0.55,0.27,0.68c0.16,0.13,0.35,0.22,0.59,0.27c0.16,0.02,0.32,0.04,0.49,0.04c0.31,0,0.58-0.06,0.82-0.17
		c0.23-0.11,0.38-0.3,0.44-0.55c0.03-0.21,0.05-0.37,0.05-0.49c0.04-0.56,0.06-0.94,0.06-1.14c0-0.53-0.1-0.95-0.29-1.27
		C119.56,3.84,119.2,3.68,118.67,3.68z"/>
	<path d="M122.89,2.76c0.02,0.09,0.02,0.2,0.02,0.34v0.3c0.27-0.16,0.59-0.3,0.96-0.43s0.74-0.19,1.1-0.19
		c0.44,0.02,0.8,0.14,1.08,0.37c0.19,0.17,0.29,0.85,0.29,2.05c0,0.3-0.01,0.78-0.02,1.42c-0.02,0.61-0.02,1.05-0.02,1.32
		c0,0.35,0,0.6,0.01,0.76c-0.15,0.02-0.37,0.04-0.66,0.04h-0.4c-0.02-0.13-0.02-0.35-0.02-0.67V7.55l0.01-0.77
		c0.02-0.52,0.02-0.89,0.01-1.12c0-0.05-0.01-0.21-0.03-0.49c-0.02-0.28-0.07-0.53-0.14-0.74c-0.02-0.28-0.22-0.41-0.59-0.38
		c-0.55,0.01-0.96,0.08-1.22,0.23s-0.41,0.4-0.44,0.78c-0.01,0.1-0.01,0.3-0.01,0.59c0,0.45,0.01,0.93,0.02,1.44
		c0.02,0.3,0.02,0.53,0.02,0.67c0,0.3-0.01,0.6-0.04,0.91v0.05c-0.15,0.03-0.3,0.05-0.45,0.04c-0.15,0-0.25-0.01-0.32-0.01
		c-0.13,0-0.23,0-0.3,0.01l-0.01-2.06c-0.02-0.94-0.02-1.65-0.02-2.12c0-0.38,0.01-0.99,0.02-1.82c0.1,0.01,0.21,0.01,0.34,0.01
		s0.23,0,0.31-0.01c0.05,0,0.1,0,0.17-0.01c0.06-0.01,0.13-0.01,0.19-0.01C122.85,2.72,122.89,2.74,122.89,2.76z"/>
	<path d="M131.74,10.28c-0.15,0.34-0.34,0.57-0.58,0.68c-0.23,0.11-0.5,0.18-0.8,0.2c-0.35,0.02-0.57,0.02-0.66,0.02
		c-0.15,0-0.35-0.01-0.59-0.02c-0.53-0.04-0.97-0.22-1.33-0.53c-0.36-0.31-0.54-0.7-0.54-1.18c0-0.1,0-0.18,0.01-0.24
		c0.04-0.02,0.15-0.03,0.32-0.04c0.18-0.01,0.34-0.02,0.5-0.02c0.14,0,0.21,0.01,0.23,0.02c0.01,0.02,0.01,0.08,0.01,0.18
		c0,0.21,0.05,0.39,0.14,0.55c0.1,0.16,0.3,0.26,0.61,0.31c0.16,0.01,0.37,0.01,0.62,0.01c0.34,0,0.58-0.02,0.74-0.05
		c0.16-0.04,0.26-0.1,0.3-0.19c0.04-0.09,0.06-0.23,0.04-0.41V9.14v-0.4c0-0.04,0-0.08,0.01-0.13s0.01-0.12,0.02-0.2
		c-0.14,0.16-0.29,0.26-0.47,0.29s-0.51,0.05-1,0.05h-0.46c-0.8,0-1.32-0.25-1.56-0.76c-0.2-0.38-0.31-0.84-0.34-1.4
		c0-0.74,0.03-1.36,0.09-1.85c0.06-0.49,0.24-0.93,0.53-1.33s0.75-0.61,1.39-0.65c0.42-0.01,0.74,0.01,0.97,0.04
		c0.23,0.04,0.4,0.1,0.51,0.19c0.11,0.09,0.2,0.21,0.28,0.37c0.02-0.11,0.04-0.22,0.04-0.31c0-0.05,0-0.1-0.01-0.15
		c0-0.05,0-0.1,0.01-0.15c0.21-0.02,0.36-0.02,0.47-0.02l0.62,0.01c0.03,0.93,0.05,2.02,0.05,3.26c0,1.24-0.02,2.32-0.06,3.24
		c0,0.08,0,0.19-0.01,0.32c0,0.14-0.01,0.27-0.02,0.39C131.81,10.08,131.78,10.19,131.74,10.28z M127.91,5.87v0.14
		c-0.02,0.43,0.05,0.84,0.22,1.21s0.48,0.58,0.94,0.6c0.12,0.01,0.28,0.01,0.49,0.01c0.43,0,0.74-0.08,0.93-0.23
		c0.19-0.15,0.29-0.45,0.32-0.89c0-0.57,0-1.02-0.01-1.37c0-0.81-0.18-1.31-0.54-1.5c-0.17-0.1-0.4-0.14-0.7-0.14
		c-0.16,0-0.32,0.01-0.47,0.04c-0.45,0.08-0.76,0.31-0.92,0.68C128,4.79,127.91,5.28,127.91,5.87z"/>
	<path d="M139.93,4.28c0,0.04-0.14,0.06-0.42,0.06c-0.21,0-0.36,0-0.46-0.01c-0.06,0-0.13,0-0.19-0.01c-0.06,0-0.12,0-0.16,0.01
		c0-0.01,0-0.15,0-0.41c0-0.27-0.23-0.43-0.7-0.49c-0.1-0.02-0.26-0.02-0.47-0.02c-0.22,0-0.43,0.02-0.61,0.05
		c-0.18,0.03-0.31,0.08-0.4,0.13c-0.1,0.08-0.18,0.2-0.24,0.35c-0.06,0.15-0.08,0.3-0.08,0.44c0,0.11,0.02,0.19,0.05,0.23
		c0.09,0.18,0.2,0.31,0.35,0.38c0.08,0.06,0.28,0.12,0.59,0.2c0.31,0.08,0.58,0.12,0.8,0.13c0.33,0.01,0.62,0.06,0.87,0.15
		c0.25,0.09,0.45,0.22,0.59,0.38c0.14,0.18,0.25,0.35,0.32,0.52c0.07,0.17,0.1,0.36,0.1,0.56c0,0.25-0.06,0.55-0.18,0.9
		c-0.18,0.38-0.46,0.65-0.84,0.83c-0.38,0.18-0.82,0.26-1.31,0.25c-0.54,0.02-1.01-0.05-1.42-0.21c-0.41-0.16-0.72-0.39-0.95-0.7
		s-0.34-0.68-0.34-1.1V6.84c0.14-0.02,0.36-0.02,0.64-0.02c0.31,0,0.48,0.01,0.5,0.04c0.02,0.02,0.05,0.11,0.1,0.27
		s0.15,0.33,0.28,0.5c0.14,0.17,0.37,0.26,0.7,0.29c0.26,0.02,0.41,0.02,0.46,0.02c0.13,0,0.23-0.01,0.32-0.04s0.19-0.07,0.33-0.13
		c0.41-0.18,0.61-0.45,0.6-0.8c0.01-0.23-0.05-0.41-0.19-0.54c-0.13-0.13-0.3-0.21-0.5-0.26s-0.47-0.09-0.82-0.13
		c-0.25-0.02-0.45-0.05-0.6-0.07c-0.15-0.02-0.29-0.06-0.41-0.12c-0.42-0.14-0.73-0.35-0.95-0.64s-0.33-0.61-0.33-0.95
		c0-0.38,0.11-0.72,0.33-1.03s0.52-0.51,0.91-0.61c0.33-0.09,0.75-0.13,1.26-0.13c0.12,0,0.3,0.01,0.54,0.02
		c0.34,0.02,0.66,0.08,0.96,0.18c0.28,0.12,0.51,0.33,0.68,0.62C139.84,3.6,139.93,3.92,139.93,4.28z"/>
	<path d="M142.6,0.5v1.84l0.01,0.67c0.52-0.02,1.16-0.04,1.93-0.08c0.05,0.06,0.07,0.18,0.07,0.36l-0.01,0.28
		c-0.02,0.18-0.02,0.3-0.01,0.38c-0.87,0-1.52,0-1.96-0.01v1.84v0.41c0,0.36,0.01,0.62,0.02,0.77s0.05,0.28,0.1,0.4
		c0.13,0.16,0.39,0.26,0.77,0.3c0.39,0.04,0.74,0.05,1.06,0.04c0.04,0.32,0.06,0.52,0.06,0.61c0,0.14-0.02,0.29-0.06,0.43
		c-0.17,0.01-0.43,0.01-0.79,0.01c-0.62,0-1.11-0.08-1.46-0.23c-0.35-0.15-0.58-0.46-0.67-0.91c-0.09-0.78-0.13-1.79-0.13-3.04V3.98
		C141.49,3.99,141.37,4,141.17,4l-0.91-0.01L140.3,3c0.18,0.02,0.6,0.02,1.26,0.02l-0.01-1.26V1.2c0-0.34,0.01-0.57,0.02-0.71
		c0.11-0.01,0.28,0,0.52,0.01l0.32,0.01C142.5,0.52,142.56,0.51,142.6,0.5z"/>
	<path d="M146.08,5.69V5.9l-0.01,0.35c0,0.99,0.49,1.49,1.46,1.49c0.39,0,0.68-0.09,0.87-0.27c0.19-0.18,0.28-0.43,0.28-0.74
		c0-0.05-0.01-0.14-0.02-0.26c0.17-0.02,0.32-0.04,0.47-0.04c0.13,0,0.22,0,0.29,0.01c0.05,0,0.11,0,0.17,0.01
		c0.07,0,0.15,0,0.23-0.01c0.01,0.46-0.01,0.82-0.05,1.09s-0.14,0.53-0.29,0.78c-0.14,0.22-0.39,0.37-0.75,0.46
		c-0.36,0.09-0.75,0.14-1.17,0.14c-0.19,0-0.37-0.01-0.53-0.02c-0.16-0.02-0.27-0.03-0.31-0.05c-0.62-0.1-1.08-0.5-1.36-1.18
		c-0.28-0.68-0.4-1.47-0.36-2.35c0.01-0.06,0.02-0.2,0.04-0.4c0.02-0.2,0.04-0.41,0.07-0.63c0.03-0.22,0.08-0.43,0.16-0.64
		c0.15-0.35,0.43-0.62,0.83-0.82c0.4-0.19,0.84-0.29,1.33-0.29c0.26,0,0.52,0.03,0.8,0.1c1.09,0.18,1.63,1,1.63,2.46
		c0,0.12-0.01,0.29-0.02,0.52c-0.15,0.05-0.6,0.09-1.34,0.12c-0.09,0.01-0.28,0.01-0.58,0.01c-0.63,0-1.1-0.01-1.4-0.02
		C146.33,5.72,146.18,5.71,146.08,5.69z M149,4.79c-0.01-0.25-0.07-0.49-0.19-0.73c-0.12-0.24-0.28-0.43-0.5-0.56
		c-0.12-0.06-0.22-0.09-0.31-0.11s-0.2-0.02-0.34-0.02c-0.52,0-0.89,0.11-1.11,0.32s-0.36,0.52-0.41,0.92
		c-0.02,0.1-0.02,0.16-0.02,0.19c0,0.1,0.05,0.16,0.14,0.19c0.09,0.03,0.29,0.05,0.59,0.05c0.3,0,0.55,0,0.76-0.01
		c0.77,0,1.2,0,1.3-0.01c0.04-0.01,0.07-0.02,0.08-0.03c0.01-0.01,0.02-0.03,0.02-0.07V4.79z"/>
	<path d="M151.61,2.77c0.02,0.09,0.02,0.2,0.02,0.34v0.3c0.3-0.3,0.65-0.48,1.06-0.54c0.28-0.06,0.52-0.08,0.71-0.08
		c0.34,0,0.63,0.07,0.85,0.2c0.18,0.08,0.29,0.19,0.35,0.34c0.06-0.03,0.14-0.09,0.25-0.17c0.11-0.08,0.26-0.16,0.44-0.24
		c0.19-0.08,0.45-0.12,0.79-0.13c0.4-0.02,0.71,0,0.94,0.05c0.23,0.05,0.43,0.16,0.62,0.32c0.1,0.09,0.18,0.3,0.22,0.62
		s0.06,0.76,0.06,1.3c0,0.3-0.01,0.78-0.02,1.44c-0.02,0.64-0.02,1.1-0.02,1.37c0,0.22,0.01,0.5,0.02,0.82
		c-0.29,0.05-0.63,0.06-1.02,0.05c-0.02-0.22-0.02-0.61-0.02-1.19c0.02-0.62,0.02-1.1,0.02-1.44v-0.5
		c-0.01-0.06-0.02-0.18-0.02-0.35s-0.02-0.35-0.05-0.55c-0.02-0.2-0.07-0.35-0.14-0.46c-0.05-0.16-0.2-0.25-0.47-0.28
		c-0.08-0.02-0.2-0.02-0.35-0.02c-0.23,0-0.43,0.04-0.6,0.11s-0.29,0.19-0.36,0.35c-0.02,0.18-0.02,0.32-0.02,0.42l0.01,0.34v0.44
		c0,0.27-0.01,0.69-0.02,1.25l-0.01,1.2c0,0.3,0,0.51,0.01,0.64c-0.17,0.02-0.4,0.04-0.68,0.04h-0.37
		c-0.02-0.16-0.02-0.44-0.02-0.85V7.26l0.01-0.89c0-0.55-0.02-1.04-0.05-1.46c0-0.34-0.06-0.57-0.17-0.69s-0.32-0.19-0.62-0.19
		c-0.85,0-1.3,0.48-1.37,1.43c-0.01,0.12-0.01,0.3-0.01,0.53c0,0.26,0.01,0.62,0.02,1.08l0.01,0.59c0,0.33-0.01,0.67-0.04,1.02v0.05
		c-0.12,0.02-0.23,0.04-0.34,0.04l-0.4-0.01c-0.12,0-0.22,0-0.29,0.01l-0.01-2.06c-0.02-0.94-0.02-1.65-0.02-2.12
		c0-0.38,0.01-0.99,0.02-1.82c0.21,0.02,0.33,0.02,0.37,0.02l0.26-0.01c0.04,0,0.09,0,0.16-0.01c0.06-0.01,0.13-0.01,0.19-0.01
		C151.58,2.74,151.61,2.75,151.61,2.77z"/>
	<path d="M163.51,4.28c0,0.04-0.14,0.06-0.42,0.06c-0.21,0-0.36,0-0.46-0.01c-0.06,0-0.13,0-0.19-0.01c-0.06,0-0.12,0-0.16,0.01
		c0-0.01,0-0.15,0-0.41c0-0.27-0.23-0.43-0.7-0.49c-0.1-0.02-0.26-0.02-0.47-0.02c-0.22,0-0.43,0.02-0.61,0.05
		c-0.18,0.03-0.31,0.08-0.4,0.13c-0.1,0.08-0.18,0.2-0.24,0.35c-0.06,0.15-0.08,0.3-0.08,0.44c0,0.11,0.02,0.19,0.05,0.23
		c0.09,0.18,0.2,0.31,0.35,0.38c0.08,0.06,0.28,0.12,0.59,0.2c0.31,0.08,0.58,0.12,0.8,0.13c0.33,0.01,0.62,0.06,0.87,0.15
		c0.25,0.09,0.45,0.22,0.59,0.38c0.14,0.18,0.25,0.35,0.32,0.52c0.07,0.17,0.1,0.36,0.1,0.56c0,0.25-0.06,0.55-0.18,0.9
		c-0.18,0.38-0.46,0.65-0.84,0.83c-0.38,0.18-0.82,0.26-1.31,0.25c-0.54,0.02-1.01-0.05-1.42-0.21c-0.41-0.16-0.72-0.39-0.95-0.7
		s-0.34-0.68-0.34-1.1V6.84c0.14-0.02,0.36-0.02,0.64-0.02c0.31,0,0.48,0.01,0.5,0.04c0.02,0.02,0.05,0.11,0.1,0.27
		s0.15,0.33,0.28,0.5c0.14,0.17,0.37,0.26,0.7,0.29c0.26,0.02,0.41,0.02,0.46,0.02c0.13,0,0.23-0.01,0.32-0.04s0.19-0.07,0.33-0.13
		c0.41-0.18,0.61-0.45,0.6-0.8c0.01-0.23-0.05-0.41-0.19-0.54c-0.13-0.13-0.3-0.21-0.5-0.26s-0.47-0.09-0.82-0.13
		c-0.25-0.02-0.45-0.05-0.6-0.07c-0.15-0.02-0.29-0.06-0.41-0.12c-0.42-0.14-0.73-0.35-0.95-0.64s-0.33-0.61-0.33-0.95
		c0-0.38,0.11-0.72,0.33-1.03s0.52-0.51,0.91-0.61c0.33-0.09,0.75-0.13,1.26-0.13c0.12,0,0.3,0.01,0.54,0.02
		c0.34,0.02,0.66,0.08,0.96,0.18c0.28,0.12,0.51,0.33,0.68,0.62C163.42,3.6,163.51,3.92,163.51,4.28z"/>
	<path d="M170.35,2.7c0.18-0.01,0.42,0,0.71,0.02l0.31,0.02c0.02,0.13,0.02,0.22,0.02,0.29v0.12c-0.01,0.18-0.01,0.46-0.01,0.83
		c0,0.3,0.01,0.75,0.02,1.34l0.01,1.34c0,0.58-0.02,1.1-0.05,1.57c0,0.02,0,0.08,0,0.16c0,0.08-0.01,0.15-0.02,0.22
		c-0.02,0.06-0.06,0.1-0.13,0.12h-0.2l-0.38-0.01c-0.06,0-0.12,0-0.17,0.01c-0.05,0.01-0.09,0.01-0.13,0.01
		c-0.08-0.02-0.12-0.11-0.12-0.26c-0.01-0.06-0.01-0.14,0.01-0.22c0.01-0.08,0.02-0.15,0.02-0.2c-0.19,0.26-0.5,0.44-0.91,0.54
		c-0.42,0.1-0.82,0.14-1.22,0.14c-0.38,0-0.71-0.17-0.98-0.51c-0.27-0.34-0.47-0.76-0.59-1.25c-0.13-0.5-0.19-0.98-0.19-1.45
		c0-0.52,0.09-0.99,0.26-1.4c0.18-0.42,0.42-0.75,0.73-0.99s0.65-0.37,1.03-0.38l0.38-0.01c0.36,0,0.66,0.04,0.89,0.13
		c0.24,0.08,0.41,0.24,0.52,0.46c0-0.07,0.01-0.16,0.02-0.28c0.02-0.16,0.02-0.27,0.02-0.34C170.19,2.71,170.24,2.7,170.35,2.7z
		 M169,3.78c-0.42-0.01-0.77,0.1-1.05,0.32c-0.28,0.22-0.46,0.48-0.52,0.79c-0.06,0.23-0.1,0.54-0.1,0.94
		c0.04,1.29,0.56,1.9,1.56,1.85c0.41,0,0.7-0.07,0.89-0.22c0.18-0.14,0.3-0.35,0.34-0.61c0.04-0.26,0.07-0.66,0.07-1.19
		c0-0.58-0.02-0.98-0.07-1.22c-0.05-0.24-0.15-0.4-0.31-0.49S169.39,3.8,169,3.78z"/>
	<path d="M173.38,2.76c0.02,0.09,0.02,0.2,0.02,0.34v0.3c0.27-0.16,0.59-0.3,0.96-0.43s0.74-0.19,1.1-0.19
		c0.44,0.02,0.8,0.14,1.08,0.37c0.19,0.17,0.29,0.85,0.29,2.05c0,0.3-0.01,0.78-0.02,1.42c-0.02,0.61-0.02,1.05-0.02,1.32
		c0,0.35,0,0.6,0.01,0.76c-0.15,0.02-0.37,0.04-0.66,0.04h-0.4c-0.02-0.13-0.02-0.35-0.02-0.67V7.55l0.01-0.77
		c0.02-0.52,0.02-0.89,0.01-1.12c0-0.05-0.01-0.21-0.03-0.49c-0.02-0.28-0.07-0.53-0.14-0.74c-0.02-0.28-0.22-0.41-0.59-0.38
		c-0.55,0.01-0.96,0.08-1.22,0.23s-0.41,0.4-0.44,0.78c-0.01,0.1-0.01,0.3-0.01,0.59c0,0.45,0.01,0.93,0.02,1.44
		c0.02,0.3,0.02,0.53,0.02,0.67c0,0.3-0.01,0.6-0.04,0.91v0.05c-0.15,0.03-0.3,0.05-0.45,0.04c-0.15,0-0.25-0.01-0.32-0.01
		c-0.13,0-0.23,0-0.3,0.01l-0.01-2.06c-0.02-0.94-0.02-1.65-0.02-2.12c0-0.38,0.01-0.99,0.02-1.82c0.1,0.01,0.21,0.01,0.34,0.01
		s0.23,0,0.31-0.01c0.05,0,0.1,0,0.17-0.01c0.06-0.01,0.13-0.01,0.19-0.01C173.34,2.72,173.38,2.74,173.38,2.76z"/>
	<path d="M181.24,0.44V0.31c0.02-0.04,0.21-0.06,0.58-0.06c0.21,0,0.36,0.01,0.47,0.02v0.79c0,0.76,0.02,1.87,0.05,3.32
		c0.01,0.36,0.02,0.79,0.02,1.29c0.01,0.5,0.01,1.07,0.01,1.71c0,0.59,0,1.03-0.01,1.32c-0.26,0.02-0.47,0.02-0.64,0.02
		c-0.22,0-0.38-0.01-0.48-0.02c-0.01-0.02-0.01-0.1-0.01-0.25c0-0.21-0.02-0.37-0.06-0.48c-0.06,0.13-0.15,0.26-0.28,0.38
		s-0.27,0.2-0.4,0.23c-0.22,0.07-0.46,0.11-0.72,0.11c-0.13,0-0.22,0-0.29-0.01c-0.57-0.04-1-0.22-1.28-0.53s-0.48-0.7-0.57-1.16
		s-0.15-1.02-0.16-1.69c0-0.67,0.09-1.23,0.27-1.66c0.18-0.44,0.49-0.71,0.94-0.83c0.3-0.08,0.63-0.12,1.01-0.12
		c0.3,0,0.54,0.02,0.71,0.06c0.16,0.02,0.3,0.08,0.43,0.16s0.23,0.17,0.3,0.26c0.07,0.09,0.11,0.16,0.12,0.2l-0.01-1.02
		c0-0.21,0-0.39-0.01-0.56c0-0.16,0-0.29,0.01-0.39c0.01-0.04,0.01-0.09,0.01-0.15c0-0.06-0.01-0.11-0.01-0.16V0.84
		C181.23,0.66,181.24,0.52,181.24,0.44z M180.08,3.59l-0.23-0.01c-0.43,0-0.76,0.11-1,0.32c-0.23,0.21-0.36,0.54-0.4,0.99
		c-0.02,0.18-0.04,0.44-0.04,0.79c0.02,0.53,0.08,0.94,0.2,1.23c0.12,0.29,0.28,0.5,0.48,0.61c0.2,0.12,0.47,0.17,0.81,0.17
		c0.38,0,0.67-0.09,0.86-0.27c0.19-0.18,0.32-0.42,0.37-0.71c0.06-0.3,0.08-0.68,0.08-1.16c-0.01-0.46-0.03-0.81-0.08-1.07
		c-0.04-0.26-0.15-0.46-0.31-0.62C180.68,3.69,180.42,3.6,180.08,3.59z"/>
	<path d="M185.92,2.66c0.06-0.01,0.17-0.01,0.34,0c0.24,0.02,0.5,0.02,0.79,0.02v0.04c0,0.36-0.01,0.92-0.02,1.67
		c-0.02,0.77-0.04,1.54-0.04,2.33c0,0.74,0.02,1.39,0.05,1.97c-0.11,0.02-0.28,0.04-0.5,0.04c-0.22,0-0.36,0-0.41,0
		c-0.14,0-0.23,0-0.26,0.01c0.01-0.23,0.01-0.58,0.01-1.06V6.6V5.59c-0.02-0.56-0.02-0.99-0.02-1.3c0-0.55,0.02-1.09,0.07-1.62V2.66
		z M185.88,0.08c0.5,0.02,0.87,0.02,1.13,0.02l0.04,1.58c-0.08,0.04-0.22,0.06-0.43,0.06c-0.13,0-0.22,0-0.29-0.01
		c-0.05,0-0.1,0-0.17-0.01c-0.06,0-0.14,0-0.23,0.01c0-0.12-0.01-0.32-0.02-0.59C185.88,0.62,185.87,0.27,185.88,0.08z"/>
	<path d="M192.86,4.28c0,0.04-0.14,0.06-0.42,0.06c-0.21,0-0.36,0-0.46-0.01c-0.06,0-0.13,0-0.19-0.01c-0.06,0-0.12,0-0.16,0.01
		c0-0.01,0-0.15,0-0.41c0-0.27-0.23-0.43-0.7-0.49c-0.1-0.02-0.26-0.02-0.47-0.02c-0.22,0-0.43,0.02-0.61,0.05
		c-0.18,0.03-0.31,0.08-0.4,0.13c-0.1,0.08-0.18,0.2-0.24,0.35c-0.06,0.15-0.08,0.3-0.08,0.44c0,0.11,0.02,0.19,0.05,0.23
		c0.09,0.18,0.2,0.31,0.35,0.38c0.08,0.06,0.28,0.12,0.59,0.2c0.31,0.08,0.58,0.12,0.8,0.13c0.33,0.01,0.62,0.06,0.87,0.15
		c0.25,0.09,0.45,0.22,0.59,0.38c0.14,0.18,0.25,0.35,0.32,0.52c0.07,0.17,0.1,0.36,0.1,0.56c0,0.25-0.06,0.55-0.18,0.9
		c-0.18,0.38-0.46,0.65-0.84,0.83c-0.38,0.18-0.82,0.26-1.31,0.25c-0.54,0.02-1.01-0.05-1.42-0.21c-0.41-0.16-0.72-0.39-0.95-0.7
		s-0.34-0.68-0.34-1.1V6.84c0.14-0.02,0.36-0.02,0.64-0.02c0.31,0,0.48,0.01,0.5,0.04c0.02,0.02,0.05,0.11,0.1,0.27
		s0.15,0.33,0.28,0.5c0.14,0.17,0.37,0.26,0.7,0.29c0.26,0.02,0.41,0.02,0.46,0.02c0.13,0,0.23-0.01,0.32-0.04s0.19-0.07,0.33-0.13
		c0.41-0.18,0.61-0.45,0.6-0.8c0.01-0.23-0.05-0.41-0.19-0.54c-0.13-0.13-0.3-0.21-0.5-0.26s-0.47-0.09-0.82-0.13
		c-0.25-0.02-0.45-0.05-0.6-0.07c-0.15-0.02-0.29-0.06-0.41-0.12c-0.42-0.14-0.73-0.35-0.95-0.64s-0.33-0.61-0.33-0.95
		c0-0.38,0.11-0.72,0.33-1.03s0.52-0.51,0.91-0.61c0.33-0.09,0.75-0.13,1.26-0.13c0.12,0,0.3,0.01,0.54,0.02
		c0.34,0.02,0.66,0.08,0.96,0.18c0.28,0.12,0.51,0.33,0.68,0.62C192.77,3.6,192.86,3.92,192.86,4.28z"/>
	<path d="M0,19.22c0-0.3,0.01-0.55,0.04-0.77c0.03-0.22,0.1-0.48,0.21-0.8c0.1-0.23,0.33-0.41,0.67-0.52
		c0.34-0.12,0.72-0.17,1.13-0.17c0.06,0.01,0.14,0.01,0.24,0.01l0.48-0.01c0.67,0,1.19,0.18,1.55,0.53c0.14,0.1,0.25,0.28,0.33,0.54
		c0.08,0.26,0.12,0.62,0.14,1.06c0.02,0.44,0.02,0.7,0.02,0.77c-0.03,0.8-0.07,1.44-0.11,1.91s-0.13,0.78-0.27,0.91
		c-0.15,0.22-0.36,0.36-0.63,0.44s-0.59,0.12-0.95,0.12c-0.14,0-0.36-0.01-0.65-0.02l-0.55-0.01c-0.47-0.08-0.83-0.25-1.06-0.52
		c-0.24-0.26-0.39-0.57-0.46-0.92c-0.07-0.35-0.1-0.78-0.1-1.27v-0.62C0.02,19.58,0.02,19.36,0,19.22z M2.45,18.08
		c-0.54,0-0.94,0.14-1.18,0.42c-0.1,0.13-0.17,0.29-0.2,0.49c-0.03,0.2-0.04,0.45-0.03,0.76c-0.01,0.12-0.01,0.28,0.01,0.48
		c0.01,0.2,0.02,0.36,0.02,0.47l0.02,0.5c0.02,0.32,0.11,0.55,0.27,0.68c0.16,0.13,0.35,0.22,0.59,0.27
		c0.16,0.02,0.32,0.04,0.49,0.04c0.31,0,0.58-0.06,0.82-0.17c0.23-0.11,0.38-0.3,0.44-0.55c0.03-0.21,0.05-0.37,0.05-0.49
		c0.04-0.56,0.06-0.94,0.06-1.14c0-0.53-0.1-0.95-0.29-1.27C3.34,18.24,2.98,18.08,2.45,18.08z"/>
	<path d="M7.4,18.65v4.44c-0.12-0.01-0.26,0-0.42,0.01L6.7,23.11c-0.13,0-0.23-0.01-0.31-0.02C6.35,22.9,6.34,22.2,6.34,21
		l0.01-1.45c0.01-0.24,0.01-0.54,0.01-0.9c-0.09,0.01-0.26,0.01-0.53,0.01c-0.07-0.01-0.18-0.01-0.31-0.01c-0.12,0-0.21,0-0.26,0.01
		l-0.04-1.03c0.59,0,0.96,0,1.12,0.01l-0.01-0.48c0-0.6,0.09-1.1,0.28-1.51c0.19-0.41,0.55-0.65,1.09-0.72
		c0.44-0.04,0.91-0.06,1.42-0.06h0.47c0.05,0.15,0.07,0.31,0.07,0.48c0,0.09-0.02,0.29-0.06,0.61C9.45,15.95,9,15.96,8.24,16
		c-0.26,0.02-0.43,0.04-0.53,0.07c-0.1,0.03-0.17,0.1-0.22,0.22c-0.05,0.12-0.07,0.33-0.07,0.64c0,0.1,0.01,0.36,0.02,0.76
		c0.47-0.01,1.18-0.01,2.11-0.01c-0.01,0.03-0.02,0.16-0.04,0.4c0,0.24-0.01,0.45-0.02,0.64l-1.38-0.04L7.4,18.65z"/>
	<path d="M12.12,14.9v1.84l0.01,0.67c0.52-0.02,1.16-0.04,1.93-0.08c0.05,0.06,0.07,0.18,0.07,0.36l-0.01,0.28
		c-0.02,0.18-0.02,0.3-0.01,0.38c-0.87,0-1.52,0-1.96-0.01v1.84v0.41c0,0.36,0.01,0.62,0.02,0.77s0.05,0.28,0.1,0.4
		c0.13,0.16,0.39,0.26,0.77,0.3c0.39,0.04,0.74,0.05,1.06,0.04c0.04,0.32,0.06,0.52,0.06,0.61c0,0.14-0.02,0.29-0.06,0.43
		c-0.17,0.01-0.43,0.01-0.79,0.01c-0.62,0-1.11-0.08-1.46-0.23c-0.35-0.15-0.58-0.46-0.67-0.91c-0.09-0.78-0.13-1.79-0.13-3.04
		v-0.58c-0.05,0.01-0.17,0.01-0.36,0.01l-0.91-0.01l0.04-0.98c0.18,0.02,0.6,0.02,1.26,0.02l-0.01-1.26V15.6
		c0-0.34,0.01-0.57,0.02-0.71c0.11-0.01,0.28,0,0.52,0.01l0.32,0.01C12.02,14.92,12.08,14.91,12.12,14.9z"/>
	<path d="M15.6,20.09v0.22l-0.01,0.35c0,0.99,0.49,1.49,1.46,1.49c0.39,0,0.68-0.09,0.87-0.27c0.19-0.18,0.28-0.43,0.28-0.74
		c0-0.05-0.01-0.14-0.02-0.26c0.17-0.02,0.32-0.04,0.47-0.04c0.13,0,0.22,0,0.29,0.01c0.05,0,0.11,0,0.17,0.01
		c0.07,0,0.15,0,0.23-0.01c0.01,0.46-0.01,0.82-0.05,1.09s-0.14,0.53-0.29,0.78c-0.14,0.22-0.39,0.37-0.75,0.46
		c-0.36,0.09-0.75,0.14-1.17,0.14c-0.19,0-0.37-0.01-0.53-0.02s-0.27-0.03-0.31-0.05c-0.62-0.1-1.08-0.5-1.36-1.18
		c-0.28-0.68-0.4-1.47-0.36-2.35c0.01-0.06,0.02-0.2,0.04-0.4c0.02-0.2,0.04-0.41,0.07-0.63c0.03-0.22,0.08-0.43,0.16-0.64
		c0.15-0.35,0.43-0.62,0.83-0.82c0.4-0.19,0.84-0.29,1.33-0.29c0.26,0,0.52,0.03,0.8,0.1c1.09,0.18,1.63,1,1.63,2.46
		c0,0.12-0.01,0.29-0.02,0.52c-0.15,0.05-0.6,0.09-1.34,0.12c-0.09,0.01-0.28,0.01-0.58,0.01c-0.63,0-1.1-0.01-1.4-0.02
		C15.84,20.12,15.7,20.11,15.6,20.09z M18.52,19.19c-0.01-0.25-0.07-0.49-0.19-0.73c-0.12-0.24-0.28-0.43-0.5-0.56
		c-0.12-0.06-0.22-0.09-0.31-0.11c-0.09-0.02-0.2-0.02-0.34-0.02c-0.52,0-0.89,0.11-1.11,0.32s-0.36,0.52-0.41,0.92
		c-0.02,0.1-0.02,0.16-0.02,0.19c0,0.1,0.05,0.16,0.14,0.19c0.09,0.03,0.29,0.05,0.59,0.05c0.3,0,0.55,0,0.76-0.01
		c0.77,0,1.2,0,1.3-0.01c0.04-0.01,0.07-0.02,0.08-0.03c0.01-0.01,0.02-0.03,0.02-0.07V19.19z"/>
	<path d="M21.18,17.16c0.02,0.09,0.02,0.2,0.02,0.34v0.3c0.27-0.16,0.59-0.3,0.96-0.43c0.37-0.12,0.74-0.19,1.1-0.19
		c0.44,0.02,0.8,0.14,1.08,0.37c0.19,0.17,0.29,0.85,0.29,2.05c0,0.3-0.01,0.78-0.02,1.42c-0.02,0.61-0.02,1.05-0.02,1.32
		c0,0.35,0,0.6,0.01,0.76c-0.15,0.02-0.37,0.04-0.66,0.04h-0.4c-0.02-0.13-0.02-0.35-0.02-0.67v-0.52l0.01-0.77
		c0.02-0.52,0.02-0.89,0.01-1.12c0-0.05-0.01-0.21-0.03-0.49c-0.02-0.28-0.07-0.53-0.14-0.74c-0.02-0.28-0.22-0.41-0.59-0.38
		c-0.55,0.01-0.96,0.08-1.22,0.23s-0.41,0.4-0.44,0.78c-0.01,0.1-0.01,0.3-0.01,0.59c0,0.45,0.01,0.93,0.02,1.44
		c0.02,0.3,0.02,0.53,0.02,0.67c0,0.3-0.01,0.6-0.04,0.91v0.05c-0.15,0.03-0.3,0.05-0.45,0.04c-0.15,0-0.25-0.01-0.32-0.01
		c-0.13,0-0.23,0-0.3,0.01l-0.01-2.06c-0.02-0.94-0.02-1.65-0.02-2.12c0-0.38,0.01-0.99,0.02-1.82c0.1,0.01,0.21,0.01,0.34,0.01
		s0.23,0,0.31-0.01c0.05,0,0.1,0,0.17-0.01c0.06-0.01,0.13-0.01,0.19-0.01C21.14,17.12,21.18,17.14,21.18,17.16z"/>
	<path d="M31.44,20.77c0.1,0.02,0.18,0.02,0.26,0.02l0.42-0.01c0.13,0,0.24,0.01,0.34,0.04c-0.04,0.55-0.08,0.98-0.13,1.28
		c-0.04,0.3-0.11,0.5-0.21,0.6c-0.15,0.22-0.36,0.36-0.63,0.44c-0.27,0.08-0.59,0.12-0.95,0.12c-0.14,0-0.36-0.01-0.65-0.02
		l-0.55-0.01c-0.47-0.08-0.82-0.26-1.06-0.53c-0.23-0.28-0.38-0.6-0.45-0.98s-0.11-0.87-0.14-1.49c0-0.45,0-0.78-0.01-0.98
		c0-0.47,0.09-1,0.26-1.57c0.1-0.23,0.33-0.41,0.67-0.52c0.34-0.12,0.72-0.17,1.13-0.17c0.06,0.01,0.16,0.01,0.28,0.01
		c0.07,0,0.16,0,0.27-0.01c0.11,0,0.24,0,0.39,0.01c0.6,0.06,1.04,0.22,1.33,0.5c0.18,0.13,0.3,0.33,0.35,0.61
		c0.05,0.28,0.09,0.7,0.1,1.26l0.01,0.29c-0.12,0.02-0.24,0.04-0.36,0.04c-0.21,0-0.42-0.02-0.64-0.06
		c-0.01-0.57-0.11-0.96-0.31-1.16c-0.2-0.21-0.51-0.31-0.93-0.31c-0.09,0-0.24,0.01-0.47,0.02c-0.21,0.01-0.37,0.03-0.49,0.06
		c-0.12,0.03-0.22,0.11-0.31,0.23c-0.09,0.12-0.15,0.3-0.19,0.55c-0.02,0.17-0.04,0.47-0.04,0.9v0.96
		c-0.02,0.26,0.05,0.54,0.19,0.82s0.43,0.45,0.86,0.49c0.08,0.01,0.19,0.01,0.32,0.01c0.38,0,0.66-0.07,0.84-0.22
		c0.18-0.14,0.3-0.31,0.35-0.5C31.39,21.3,31.42,21.06,31.44,20.77z"/>
	<path d="M33,19.22c0-0.3,0.01-0.55,0.04-0.77c0.03-0.22,0.1-0.48,0.21-0.8c0.1-0.23,0.33-0.41,0.67-0.52
		c0.34-0.12,0.72-0.17,1.13-0.17c0.06,0.01,0.14,0.01,0.24,0.01l0.48-0.01c0.67,0,1.19,0.18,1.55,0.53c0.14,0.1,0.25,0.28,0.33,0.54
		c0.08,0.26,0.12,0.62,0.14,1.06c0.02,0.44,0.02,0.7,0.02,0.77c-0.03,0.8-0.07,1.44-0.11,1.91s-0.13,0.78-0.27,0.91
		c-0.15,0.22-0.36,0.36-0.63,0.44s-0.59,0.12-0.95,0.12c-0.14,0-0.36-0.01-0.65-0.02l-0.55-0.01c-0.47-0.08-0.83-0.25-1.06-0.52
		c-0.24-0.26-0.39-0.57-0.46-0.92c-0.07-0.35-0.1-0.78-0.1-1.27v-0.62C33.02,19.58,33.01,19.36,33,19.22z M35.45,18.08
		c-0.54,0-0.94,0.14-1.18,0.42c-0.1,0.13-0.17,0.29-0.2,0.49c-0.03,0.2-0.04,0.45-0.03,0.76c-0.01,0.12-0.01,0.28,0.01,0.48
		c0.01,0.2,0.02,0.36,0.02,0.47l0.02,0.5c0.02,0.32,0.11,0.55,0.27,0.68c0.16,0.13,0.35,0.22,0.59,0.27
		c0.16,0.02,0.32,0.04,0.49,0.04c0.31,0,0.58-0.06,0.82-0.17c0.23-0.11,0.38-0.3,0.44-0.55c0.03-0.21,0.05-0.37,0.05-0.49
		c0.04-0.56,0.06-0.94,0.06-1.14c0-0.53-0.1-0.95-0.29-1.27C36.33,18.24,35.98,18.08,35.45,18.08z"/>
	<path d="M38.06,17.12c0.12,0.02,0.29,0.02,0.5,0.02c0.07,0,0.16,0,0.26-0.01s0.21,0,0.33,0.01c0.13,0.45,0.36,1.3,0.71,2.56
		c0.17,0.63,0.29,1.09,0.37,1.37c0.08,0.28,0.18,0.55,0.29,0.82c0.07-0.18,0.16-0.44,0.26-0.8s0.17-0.6,0.2-0.71
		c0.39-1.34,0.73-2.4,1.01-3.2c0.07,0,0.19-0.01,0.35-0.02c0.29-0.02,0.53-0.02,0.72-0.01c-0.16,0.42-0.31,0.86-0.44,1.31
		c-0.14,0.45-0.26,0.9-0.38,1.34c-0.38,1.33-0.73,2.44-1.03,3.32c-0.13,0.02-0.33,0.04-0.61,0.04l-0.86-0.01
		c-0.35-1.12-0.61-1.97-0.77-2.55s-0.33-1.22-0.5-1.91L38.06,17.12z"/>
	<path d="M44.24,20.09v0.22l-0.01,0.35c0,0.99,0.49,1.49,1.46,1.49c0.39,0,0.68-0.09,0.87-0.27c0.19-0.18,0.28-0.43,0.28-0.74
		c0-0.05-0.01-0.14-0.02-0.26c0.17-0.02,0.32-0.04,0.47-0.04c0.13,0,0.22,0,0.29,0.01c0.05,0,0.11,0,0.17,0.01
		c0.07,0,0.15,0,0.23-0.01c0.01,0.46-0.01,0.82-0.05,1.09s-0.14,0.53-0.29,0.78c-0.14,0.22-0.39,0.37-0.75,0.46
		c-0.36,0.09-0.75,0.14-1.17,0.14c-0.19,0-0.37-0.01-0.53-0.02s-0.27-0.03-0.31-0.05c-0.62-0.1-1.08-0.5-1.36-1.18
		c-0.28-0.68-0.4-1.47-0.36-2.35c0.01-0.06,0.02-0.2,0.04-0.4c0.02-0.2,0.04-0.41,0.07-0.63c0.03-0.22,0.08-0.43,0.16-0.64
		c0.15-0.35,0.43-0.62,0.83-0.82c0.4-0.19,0.84-0.29,1.33-0.29c0.26,0,0.52,0.03,0.8,0.1c1.09,0.18,1.63,1,1.63,2.46
		c0,0.12-0.01,0.29-0.02,0.52c-0.15,0.05-0.6,0.09-1.34,0.12c-0.09,0.01-0.28,0.01-0.58,0.01c-0.63,0-1.1-0.01-1.4-0.02
		C44.49,20.12,44.34,20.11,44.24,20.09z M47.16,19.19c-0.01-0.25-0.07-0.49-0.19-0.73c-0.12-0.24-0.28-0.43-0.5-0.56
		c-0.12-0.06-0.22-0.09-0.31-0.11c-0.09-0.02-0.2-0.02-0.34-0.02c-0.52,0-0.89,0.11-1.11,0.32s-0.36,0.52-0.41,0.92
		c-0.02,0.1-0.02,0.16-0.02,0.19c0,0.1,0.05,0.16,0.14,0.19c0.09,0.03,0.29,0.05,0.59,0.05c0.3,0,0.55,0,0.76-0.01
		c0.77,0,1.2,0,1.3-0.01c0.04-0.01,0.07-0.02,0.08-0.03c0.01-0.01,0.02-0.03,0.02-0.07V19.19z"/>
	<path d="M49.77,17.16c0,0.1,0,0.17,0.01,0.22c0,0.05,0.01,0.11,0.01,0.19c0.06-0.03,0.13-0.07,0.23-0.11s0.21-0.08,0.33-0.12
		c0.18-0.06,0.41-0.11,0.67-0.14c0.26-0.03,0.49-0.04,0.7-0.04c0.19,0,0.29,0.01,0.29,0.02l-0.01,1c0,0.16,0,0.28,0.01,0.36
		c-0.12-0.05-0.26-0.09-0.41-0.13c-0.18-0.04-0.37-0.06-0.58-0.06c-0.22,0-0.46,0.03-0.73,0.1c-0.22,0.06-0.38,0.14-0.46,0.25
		c-0.08,0.11-0.12,0.32-0.11,0.64c0.03,1.1,0.05,2.34,0.05,3.73v0.05c-0.14,0.03-0.28,0.05-0.42,0.05c-0.06,0-0.15,0-0.27-0.01
		c-0.12,0-0.25,0-0.38,0.01l-0.01-2.06c-0.02-0.94-0.02-1.65-0.02-2.12c0-0.38,0.01-0.99,0.02-1.82c0.08,0.01,0.17,0.01,0.26,0.01
		c0.09,0,0.17-0.01,0.25-0.01c0.1-0.01,0.22-0.01,0.38-0.01C49.71,17.14,49.77,17.14,49.77,17.16z"/>
	<path d="M53.64,20.09v0.22l-0.01,0.35c0,0.99,0.49,1.49,1.46,1.49c0.39,0,0.68-0.09,0.87-0.27c0.19-0.18,0.28-0.43,0.28-0.74
		c0-0.05-0.01-0.14-0.02-0.26c0.17-0.02,0.32-0.04,0.47-0.04c0.13,0,0.22,0,0.29,0.01c0.05,0,0.11,0,0.17,0.01
		c0.07,0,0.15,0,0.23-0.01c0.01,0.46-0.01,0.82-0.05,1.09s-0.14,0.53-0.29,0.78c-0.14,0.22-0.39,0.37-0.75,0.46
		c-0.36,0.09-0.75,0.14-1.17,0.14c-0.19,0-0.37-0.01-0.53-0.02s-0.27-0.03-0.31-0.05c-0.62-0.1-1.08-0.5-1.36-1.18
		c-0.28-0.68-0.4-1.47-0.36-2.35c0.01-0.06,0.02-0.2,0.04-0.4c0.02-0.2,0.04-0.41,0.07-0.63c0.03-0.22,0.08-0.43,0.16-0.64
		c0.15-0.35,0.43-0.62,0.83-0.82c0.4-0.19,0.84-0.29,1.33-0.29c0.26,0,0.52,0.03,0.8,0.1c1.09,0.18,1.63,1,1.63,2.46
		c0,0.12-0.01,0.29-0.02,0.52c-0.15,0.05-0.6,0.09-1.34,0.12c-0.09,0.01-0.28,0.01-0.58,0.01c-0.63,0-1.1-0.01-1.4-0.02
		C53.88,20.12,53.73,20.11,53.64,20.09z M56.55,19.19c-0.01-0.25-0.07-0.49-0.19-0.73c-0.12-0.24-0.28-0.43-0.5-0.56
		c-0.12-0.06-0.22-0.09-0.31-0.11c-0.09-0.02-0.2-0.02-0.34-0.02c-0.52,0-0.89,0.11-1.11,0.32s-0.36,0.52-0.41,0.92
		c-0.02,0.1-0.02,0.16-0.02,0.19c0,0.1,0.05,0.16,0.14,0.19c0.09,0.03,0.29,0.05,0.59,0.05c0.3,0,0.55,0,0.76-0.01
		c0.77,0,1.2,0,1.3-0.01c0.04-0.01,0.07-0.02,0.08-0.03c0.01-0.01,0.02-0.03,0.02-0.07V19.19z"/>
	<path d="M61.68,14.84v-0.13c0.02-0.04,0.21-0.06,0.58-0.06c0.21,0,0.36,0.01,0.47,0.02v0.79c0,0.76,0.02,1.87,0.05,3.32
		c0.01,0.36,0.02,0.79,0.02,1.29c0.01,0.5,0.01,1.07,0.01,1.71c0,0.59,0,1.03-0.01,1.32c-0.26,0.02-0.47,0.02-0.64,0.02
		c-0.22,0-0.38-0.01-0.48-0.02c-0.01-0.02-0.01-0.1-0.01-0.25c0-0.21-0.02-0.37-0.06-0.48c-0.06,0.13-0.15,0.26-0.28,0.38
		c-0.13,0.13-0.27,0.2-0.4,0.23c-0.22,0.07-0.46,0.11-0.72,0.11c-0.13,0-0.22,0-0.29-0.01c-0.57-0.04-1-0.22-1.28-0.53
		s-0.48-0.7-0.57-1.16c-0.09-0.46-0.15-1.02-0.16-1.69c0-0.67,0.09-1.23,0.27-1.66s0.49-0.71,0.94-0.83
		c0.3-0.08,0.63-0.12,1.01-0.12c0.3,0,0.54,0.02,0.71,0.06c0.16,0.02,0.3,0.08,0.43,0.16s0.23,0.17,0.3,0.26
		c0.07,0.09,0.11,0.16,0.12,0.2l-0.01-1.02c0-0.21,0-0.39-0.01-0.56c0-0.16,0-0.29,0.01-0.39c0.01-0.04,0.01-0.09,0.01-0.15
		c0-0.06-0.01-0.11-0.01-0.16v-0.25C61.67,15.06,61.67,14.92,61.68,14.84z M60.51,17.99l-0.23-0.01c-0.43,0-0.76,0.11-1,0.32
		s-0.36,0.54-0.4,0.99c-0.02,0.18-0.04,0.44-0.04,0.79c0.02,0.53,0.08,0.94,0.2,1.23c0.12,0.29,0.28,0.5,0.48,0.61
		c0.2,0.12,0.47,0.17,0.81,0.17c0.38,0,0.67-0.09,0.86-0.27c0.19-0.18,0.32-0.42,0.37-0.71c0.05-0.3,0.08-0.68,0.08-1.16
		c-0.01-0.46-0.03-0.81-0.08-1.07c-0.04-0.26-0.15-0.46-0.31-0.62C61.11,18.09,60.86,18,60.51,17.99z"/>
	<path d="M66.36,17.06c0.06-0.01,0.17-0.01,0.34,0c0.24,0.02,0.5,0.02,0.79,0.02v0.04c0,0.36-0.01,0.92-0.02,1.67
		c-0.02,0.77-0.04,1.54-0.04,2.33c0,0.74,0.02,1.39,0.05,1.97c-0.11,0.02-0.28,0.04-0.5,0.04c-0.22,0-0.36,0-0.41,0
		c-0.14,0-0.23,0-0.26,0.01c0.01-0.23,0.01-0.58,0.01-1.06V21v-1.01c-0.02-0.56-0.02-0.99-0.02-1.3c0-0.55,0.02-1.09,0.07-1.62
		V17.06z M66.31,14.48c0.5,0.02,0.87,0.02,1.13,0.02l0.04,1.58c-0.08,0.04-0.22,0.06-0.43,0.06c-0.13,0-0.22,0-0.29-0.01
		c-0.05,0-0.1,0-0.17-0.01c-0.06,0-0.14,0-0.23,0.01c0-0.12-0.01-0.32-0.02-0.59C66.31,15.02,66.3,14.67,66.31,14.48z"/>
	<path d="M69.66,17.16c0.02,0.09,0.02,0.2,0.02,0.34v0.3c0.27-0.16,0.59-0.3,0.96-0.43s0.74-0.19,1.1-0.19
		c0.44,0.02,0.8,0.14,1.08,0.37c0.19,0.17,0.29,0.85,0.29,2.05c0,0.3-0.01,0.78-0.02,1.42c-0.02,0.61-0.02,1.05-0.02,1.32
		c0,0.35,0,0.6,0.01,0.76c-0.15,0.02-0.37,0.04-0.66,0.04h-0.4C72.01,23.01,72,22.78,72,22.46v-0.52l0.01-0.77
		c0.02-0.52,0.02-0.89,0.01-1.12c0-0.05-0.01-0.21-0.03-0.49c-0.02-0.28-0.07-0.53-0.14-0.74c-0.02-0.28-0.22-0.41-0.59-0.38
		c-0.55,0.01-0.96,0.08-1.22,0.23s-0.41,0.4-0.44,0.78c-0.01,0.1-0.01,0.3-0.01,0.59c0,0.45,0.01,0.93,0.02,1.44
		c0.02,0.3,0.02,0.53,0.02,0.67c0,0.3-0.01,0.6-0.04,0.91v0.05c-0.15,0.03-0.3,0.05-0.45,0.04c-0.15,0-0.25-0.01-0.32-0.01
		c-0.13,0-0.23,0-0.3,0.01l-0.01-2.06c-0.02-0.94-0.02-1.65-0.02-2.12c0-0.38,0.01-0.99,0.02-1.82c0.1,0.01,0.21,0.01,0.34,0.01
		s0.23,0,0.31-0.01c0.05,0,0.1,0,0.17-0.01c0.06-0.01,0.13-0.01,0.19-0.01C69.62,17.12,69.66,17.14,69.66,17.16z"/>
	<path d="M76.62,14.4l1.09,0.04c0,0.33-0.01,1.14-0.02,2.44c-0.02,1.6-0.02,2.86-0.02,3.77c0,1.01,0.01,1.81,0.04,2.41
		c-0.05,0.06-0.18,0.08-0.4,0.08l-0.37-0.01c-0.07-0.01-0.16-0.01-0.26-0.01c-0.06,0-0.1,0-0.12,0.01c0.05-0.65,0.07-1.3,0.07-1.96
		c0-0.5-0.02-1.24-0.05-2.23c-0.03-0.99-0.05-1.74-0.05-2.24C76.52,15.84,76.55,15.08,76.62,14.4z"/>
	<path d="M78.65,19.22c0-0.3,0.01-0.55,0.04-0.77s0.1-0.48,0.21-0.8c0.1-0.23,0.33-0.41,0.67-0.52c0.34-0.12,0.72-0.17,1.13-0.17
		c0.06,0.01,0.14,0.01,0.24,0.01l0.48-0.01c0.67,0,1.19,0.18,1.55,0.53c0.14,0.1,0.25,0.28,0.33,0.54c0.08,0.26,0.12,0.62,0.14,1.06
		c0.02,0.44,0.02,0.7,0.02,0.77c-0.03,0.8-0.07,1.44-0.11,1.91s-0.13,0.78-0.27,0.91c-0.15,0.22-0.36,0.36-0.63,0.44
		s-0.59,0.12-0.95,0.12c-0.14,0-0.36-0.01-0.65-0.02l-0.55-0.01c-0.47-0.08-0.83-0.25-1.06-0.52c-0.24-0.26-0.39-0.57-0.46-0.92
		c-0.07-0.35-0.1-0.78-0.1-1.27v-0.62C78.67,19.58,78.66,19.36,78.65,19.22z M81.09,18.08c-0.54,0-0.94,0.14-1.18,0.42
		c-0.1,0.13-0.17,0.29-0.2,0.49c-0.03,0.2-0.04,0.45-0.03,0.76c-0.01,0.12-0.01,0.28,0.01,0.48c0.01,0.2,0.02,0.36,0.02,0.47
		l0.02,0.5c0.02,0.32,0.11,0.55,0.27,0.68c0.16,0.13,0.35,0.22,0.59,0.27c0.16,0.02,0.32,0.04,0.49,0.04c0.31,0,0.58-0.06,0.82-0.17
		c0.23-0.11,0.38-0.3,0.44-0.55c0.03-0.21,0.05-0.37,0.05-0.49c0.04-0.56,0.06-0.94,0.06-1.14c0-0.53-0.1-0.95-0.29-1.27
		C81.98,18.24,81.62,18.08,81.09,18.08z"/>
	<path d="M86.16,14.9v1.84l0.01,0.67c0.52-0.02,1.16-0.04,1.93-0.08c0.05,0.06,0.07,0.18,0.07,0.36l-0.01,0.28
		c-0.02,0.18-0.02,0.3-0.01,0.38c-0.87,0-1.52,0-1.96-0.01v1.84v0.41c0,0.36,0.01,0.62,0.02,0.77s0.05,0.28,0.1,0.4
		c0.13,0.16,0.39,0.26,0.77,0.3c0.39,0.04,0.74,0.05,1.06,0.04c0.04,0.32,0.06,0.52,0.06,0.61c0,0.14-0.02,0.29-0.06,0.43
		c-0.17,0.01-0.43,0.01-0.79,0.01c-0.62,0-1.11-0.08-1.46-0.23c-0.35-0.15-0.58-0.46-0.67-0.91c-0.09-0.78-0.13-1.79-0.13-3.04
		v-0.58c-0.05,0.01-0.17,0.01-0.36,0.01l-0.91-0.01l0.04-0.98c0.18,0.02,0.6,0.02,1.26,0.02l-0.01-1.26V15.6
		c0-0.34,0.01-0.57,0.02-0.71c0.11-0.01,0.28,0,0.52,0.01l0.32,0.01C86.05,14.92,86.12,14.91,86.16,14.9z"/>
	<path d="M93.53,18.68c0,0.04-0.14,0.06-0.42,0.06c-0.21,0-0.36,0-0.46-0.01c-0.06,0-0.13,0-0.19-0.01c-0.06,0-0.12,0-0.16,0.01
		c0-0.01,0-0.15,0-0.41c0-0.27-0.23-0.43-0.7-0.49c-0.1-0.02-0.26-0.02-0.47-0.02c-0.22,0-0.43,0.02-0.61,0.05
		c-0.18,0.03-0.31,0.08-0.4,0.13c-0.1,0.08-0.18,0.2-0.24,0.35c-0.06,0.15-0.08,0.3-0.08,0.44c0,0.11,0.02,0.19,0.05,0.23
		c0.09,0.18,0.2,0.31,0.35,0.38c0.08,0.06,0.28,0.12,0.59,0.2c0.31,0.08,0.58,0.12,0.8,0.13c0.33,0.01,0.62,0.06,0.87,0.15
		c0.25,0.09,0.45,0.22,0.59,0.38c0.14,0.18,0.25,0.35,0.32,0.52c0.07,0.17,0.1,0.36,0.1,0.56c0,0.25-0.06,0.55-0.18,0.9
		c-0.18,0.38-0.46,0.65-0.84,0.83c-0.38,0.18-0.82,0.26-1.31,0.25c-0.54,0.02-1.01-0.05-1.42-0.21c-0.41-0.16-0.72-0.39-0.95-0.7
		s-0.34-0.68-0.34-1.1v-0.06c0.14-0.02,0.36-0.02,0.64-0.02c0.31,0,0.48,0.01,0.5,0.04c0.02,0.02,0.05,0.11,0.1,0.27
		s0.15,0.33,0.28,0.5c0.14,0.17,0.37,0.26,0.7,0.29c0.26,0.02,0.41,0.02,0.46,0.02c0.13,0,0.23-0.01,0.32-0.04s0.19-0.07,0.33-0.13
		c0.41-0.18,0.61-0.45,0.6-0.8c0.01-0.23-0.05-0.41-0.19-0.54c-0.13-0.13-0.3-0.21-0.5-0.26s-0.47-0.09-0.82-0.13
		c-0.25-0.02-0.45-0.05-0.6-0.07c-0.15-0.02-0.29-0.06-0.41-0.12c-0.42-0.14-0.73-0.35-0.95-0.64s-0.33-0.61-0.33-0.95
		c0-0.38,0.11-0.72,0.33-1.03s0.52-0.51,0.91-0.61c0.33-0.09,0.75-0.13,1.26-0.13c0.12,0,0.3,0.01,0.54,0.02
		c0.34,0.02,0.66,0.08,0.96,0.18c0.28,0.12,0.51,0.33,0.68,0.62C93.44,18,93.53,18.32,93.53,18.68z"/>
	<path d="M96.41,19.22c0-0.3,0.01-0.55,0.04-0.77s0.1-0.48,0.21-0.8c0.1-0.23,0.33-0.41,0.67-0.52c0.34-0.12,0.72-0.17,1.13-0.17
		c0.06,0.01,0.14,0.01,0.24,0.01l0.48-0.01c0.67,0,1.19,0.18,1.55,0.53c0.14,0.1,0.25,0.28,0.33,0.54c0.08,0.26,0.12,0.62,0.14,1.06
		c0.02,0.44,0.02,0.7,0.02,0.77c-0.03,0.8-0.07,1.44-0.11,1.91s-0.13,0.78-0.27,0.91c-0.15,0.22-0.36,0.36-0.63,0.44
		s-0.59,0.12-0.95,0.12c-0.14,0-0.36-0.01-0.65-0.02l-0.55-0.01c-0.47-0.08-0.83-0.25-1.06-0.52c-0.24-0.26-0.39-0.57-0.46-0.92
		c-0.07-0.35-0.1-0.78-0.1-1.27v-0.62C96.43,19.58,96.42,19.36,96.41,19.22z M98.86,18.08c-0.54,0-0.94,0.14-1.18,0.42
		c-0.1,0.13-0.17,0.29-0.2,0.49c-0.03,0.2-0.04,0.45-0.03,0.76c-0.01,0.12-0.01,0.28,0.01,0.48c0.01,0.2,0.02,0.36,0.02,0.47
		l0.02,0.5c0.02,0.32,0.11,0.55,0.27,0.68c0.16,0.13,0.35,0.22,0.59,0.27c0.16,0.02,0.32,0.04,0.49,0.04c0.31,0,0.58-0.06,0.82-0.17
		c0.23-0.11,0.38-0.3,0.44-0.55c0.03-0.21,0.05-0.37,0.05-0.49c0.04-0.56,0.06-0.94,0.06-1.14c0-0.53-0.1-0.95-0.29-1.27
		C99.74,18.24,99.38,18.08,98.86,18.08z"/>
	<path d="M103.81,18.65v4.44c-0.12-0.01-0.26,0-0.42,0.01l-0.29,0.01c-0.13,0-0.23-0.01-0.31-0.02c-0.03-0.19-0.05-0.89-0.05-2.09
		l0.01-1.45c0.01-0.24,0.01-0.54,0.01-0.9c-0.09,0.01-0.26,0.01-0.53,0.01c-0.07-0.01-0.18-0.01-0.31-0.01c-0.12,0-0.21,0-0.26,0.01
		l-0.04-1.03c0.59,0,0.96,0,1.12,0.01l-0.01-0.48c0-0.6,0.09-1.1,0.28-1.51c0.19-0.41,0.55-0.65,1.09-0.72
		c0.44-0.04,0.91-0.06,1.42-0.06h0.47c0.05,0.15,0.07,0.31,0.07,0.48c0,0.09-0.02,0.29-0.06,0.61c-0.14-0.01-0.58,0-1.34,0.04
		c-0.26,0.02-0.43,0.04-0.53,0.07c-0.1,0.03-0.17,0.1-0.22,0.22c-0.05,0.12-0.07,0.33-0.07,0.64c0,0.1,0.01,0.36,0.02,0.76
		c0.47-0.01,1.18-0.01,2.11-0.01c-0.01,0.03-0.02,0.16-0.04,0.4c0,0.24-0.01,0.45-0.02,0.64l-1.38-0.04L103.81,18.65z"/>
	<path d="M109.02,14.4l1.09,0.04c0,0.33-0.01,1.14-0.02,2.44c-0.02,1.6-0.02,2.86-0.02,3.77c0,1.01,0.01,1.81,0.04,2.41
		c-0.05,0.06-0.18,0.08-0.4,0.08l-0.37-0.01c-0.07-0.01-0.16-0.01-0.26-0.01c-0.06,0-0.1,0-0.12,0.01c0.05-0.65,0.07-1.3,0.07-1.96
		c0-0.5-0.02-1.24-0.05-2.23c-0.03-0.99-0.05-1.74-0.05-2.24C108.92,15.84,108.96,15.08,109.02,14.4z"/>
	<path d="M111.51,17.06c0.06-0.01,0.17-0.01,0.34,0c0.24,0.02,0.5,0.02,0.79,0.02v0.04c0,0.36-0.01,0.92-0.02,1.67
		c-0.02,0.77-0.04,1.54-0.04,2.33c0,0.74,0.02,1.39,0.05,1.97c-0.11,0.02-0.28,0.04-0.5,0.04c-0.22,0-0.36,0-0.41,0
		c-0.14,0-0.23,0-0.26,0.01c0.01-0.23,0.01-0.58,0.01-1.06V21v-1.01c-0.02-0.56-0.02-0.99-0.02-1.3c0-0.55,0.02-1.09,0.07-1.62
		V17.06z M111.47,14.48c0.5,0.02,0.87,0.02,1.13,0.02l0.04,1.58c-0.08,0.04-0.22,0.06-0.43,0.06c-0.13,0-0.22,0-0.29-0.01
		c-0.05,0-0.1,0-0.17-0.01c-0.06,0-0.14,0-0.23,0.01c0-0.12-0.01-0.32-0.02-0.59C111.47,15.02,111.46,14.67,111.47,14.48z"/>
	<path d="M115.73,14.9v1.84l0.01,0.67c0.52-0.02,1.16-0.04,1.93-0.08c0.05,0.06,0.07,0.18,0.07,0.36l-0.01,0.28
		c-0.02,0.18-0.02,0.3-0.01,0.38c-0.87,0-1.52,0-1.96-0.01v1.84v0.41c0,0.36,0.01,0.62,0.02,0.77s0.05,0.28,0.1,0.4
		c0.13,0.16,0.39,0.26,0.77,0.3c0.39,0.04,0.74,0.05,1.06,0.04c0.04,0.32,0.06,0.52,0.06,0.61c0,0.14-0.02,0.29-0.06,0.43
		c-0.17,0.01-0.43,0.01-0.79,0.01c-0.62,0-1.11-0.08-1.46-0.23c-0.35-0.15-0.58-0.46-0.67-0.91c-0.09-0.78-0.13-1.79-0.13-3.04
		v-0.58c-0.05,0.01-0.17,0.01-0.36,0.01l-0.91-0.01l0.04-0.98c0.18,0.02,0.6,0.02,1.26,0.02l-0.01-1.26V15.6
		c0-0.34,0.01-0.57,0.02-0.71c0.11-0.01,0.28,0,0.52,0.01l0.32,0.01C115.62,14.92,115.69,14.91,115.73,14.9z"/>
	<path d="M120.37,14.9v1.84l0.01,0.67c0.52-0.02,1.16-0.04,1.93-0.08c0.05,0.06,0.07,0.18,0.07,0.36l-0.01,0.28
		c-0.02,0.18-0.02,0.3-0.01,0.38c-0.87,0-1.52,0-1.96-0.01v1.84v0.41c0,0.36,0.01,0.62,0.02,0.77s0.05,0.28,0.1,0.4
		c0.13,0.16,0.39,0.26,0.77,0.3c0.39,0.04,0.74,0.05,1.06,0.04c0.04,0.32,0.06,0.52,0.06,0.61c0,0.14-0.02,0.29-0.06,0.43
		c-0.17,0.01-0.43,0.01-0.79,0.01c-0.62,0-1.11-0.08-1.46-0.23c-0.35-0.15-0.58-0.46-0.67-0.91c-0.09-0.78-0.13-1.79-0.13-3.04
		v-0.58c-0.05,0.01-0.17,0.01-0.36,0.01l-0.91-0.01l0.04-0.98c0.18,0.02,0.6,0.02,1.26,0.02l-0.01-1.26V15.6
		c0-0.34,0.01-0.57,0.02-0.71c0.11-0.01,0.28,0,0.52,0.01l0.32,0.01C120.27,14.92,120.33,14.91,120.37,14.9z"/>
	<path d="M123.26,14.4l1.09,0.04c0,0.33-0.01,1.14-0.02,2.44c-0.02,1.6-0.02,2.86-0.02,3.77c0,1.01,0.01,1.81,0.04,2.41
		c-0.05,0.06-0.18,0.08-0.4,0.08l-0.37-0.01c-0.07-0.01-0.16-0.01-0.26-0.01c-0.06,0-0.1,0-0.12,0.01c0.05-0.65,0.07-1.3,0.07-1.96
		c0-0.5-0.02-1.24-0.05-2.23c-0.03-0.99-0.05-1.74-0.05-2.24C123.17,15.84,123.2,15.08,123.26,14.4z"/>
	<path d="M126.32,20.09v0.22l-0.01,0.35c0,0.99,0.49,1.49,1.46,1.49c0.39,0,0.68-0.09,0.87-0.27c0.19-0.18,0.28-0.43,0.28-0.74
		c0-0.05-0.01-0.14-0.02-0.26c0.17-0.02,0.32-0.04,0.47-0.04c0.13,0,0.22,0,0.29,0.01c0.05,0,0.11,0,0.17,0.01
		c0.07,0,0.15,0,0.23-0.01c0.01,0.46-0.01,0.82-0.05,1.09s-0.14,0.53-0.29,0.78c-0.14,0.22-0.39,0.37-0.75,0.46
		c-0.36,0.09-0.75,0.14-1.17,0.14c-0.19,0-0.37-0.01-0.53-0.02c-0.16-0.02-0.27-0.03-0.31-0.05c-0.62-0.1-1.08-0.5-1.36-1.18
		c-0.28-0.68-0.4-1.47-0.36-2.35c0.01-0.06,0.02-0.2,0.04-0.4c0.02-0.2,0.04-0.41,0.07-0.63c0.03-0.22,0.08-0.43,0.16-0.64
		c0.15-0.35,0.43-0.62,0.83-0.82c0.4-0.19,0.84-0.29,1.33-0.29c0.26,0,0.52,0.03,0.8,0.1c1.09,0.18,1.63,1,1.63,2.46
		c0,0.12-0.01,0.29-0.02,0.52c-0.15,0.05-0.6,0.09-1.34,0.12c-0.09,0.01-0.28,0.01-0.58,0.01c-0.63,0-1.1-0.01-1.4-0.02
		C126.56,20.12,126.42,20.11,126.32,20.09z M129.24,19.19c-0.01-0.25-0.07-0.49-0.19-0.73c-0.12-0.24-0.28-0.43-0.5-0.56
		c-0.12-0.06-0.22-0.09-0.31-0.11s-0.2-0.02-0.34-0.02c-0.52,0-0.89,0.11-1.11,0.32s-0.36,0.52-0.41,0.92
		c-0.02,0.1-0.02,0.16-0.02,0.19c0,0.1,0.05,0.16,0.14,0.19c0.09,0.03,0.29,0.05,0.59,0.05c0.3,0,0.55,0,0.76-0.01
		c0.77,0,1.2,0,1.3-0.01c0.04-0.01,0.07-0.02,0.08-0.03c0.01-0.01,0.02-0.03,0.02-0.07V19.19z"/>
	<path d="M132.66,17.12c0.14,0.01,0.34,0.01,0.61,0.01c0.26,0,0.46,0.01,0.59,0.02l0.18,1.1c0.21,1.38,0.44,2.6,0.68,3.67
		c0.39-1.11,0.69-2.03,0.91-2.75c0.21-0.72,0.39-1.41,0.52-2.06c0.07,0.01,0.26,0,0.56-0.01c0.28-0.02,0.49-0.01,0.64,0.02l0.07,0.4
		c0.14,0.69,0.28,1.34,0.43,1.95c0.15,0.61,0.38,1.4,0.69,2.37c0.19-0.74,0.39-1.65,0.6-2.74c0.03-0.14,0.1-0.43,0.19-0.89
		c0.1-0.46,0.18-0.82,0.25-1.07c0.29-0.02,0.52-0.02,0.71-0.02c0.18,0,0.32,0,0.42,0.01c-0.19,0.66-0.35,1.25-0.49,1.78
		c-0.13,0.53-0.25,1.03-0.35,1.49c-0.03,0.13-0.11,0.45-0.22,0.97s-0.26,1.1-0.44,1.76c-0.18,0.04-0.35,0.05-0.5,0.04l-0.85-0.01
		c-0.36-1.42-0.75-2.81-1.18-4.18c-0.31,1.01-0.5,1.62-0.56,1.85c-0.28,0.98-0.52,1.76-0.71,2.32c-0.11,0.02-0.31,0.02-0.59,0.02
		l-0.91-0.01C133.54,21.09,133.12,19.08,132.66,17.12z"/>
	<path d="M142.23,16.69v1.07c0.22-0.18,0.41-0.32,0.57-0.41c0.16-0.09,0.41-0.15,0.73-0.17c0.19-0.02,0.37-0.04,0.54-0.04
		c0.58,0,1.04,0.14,1.37,0.42c0.1,0.09,0.18,0.3,0.22,0.62s0.06,0.76,0.06,1.3c0,0.3-0.01,0.78-0.02,1.44
		c-0.02,0.64-0.02,1.1-0.02,1.37c0,0.22,0.01,0.5,0.02,0.82c-0.32,0.05-0.66,0.06-1.03,0.05c-0.02-0.24-0.02-0.45-0.02-0.62V21.8
		v-2.35c-0.02-0.51-0.14-0.84-0.36-1c-0.05-0.03-0.14-0.06-0.29-0.1c-0.17-0.05-0.34-0.07-0.52-0.07c-0.31,0-0.58,0.08-0.8,0.23
		c-0.22,0.16-0.36,0.4-0.43,0.73c-0.06,0.3-0.08,0.67-0.08,1.09l0.01,0.41c0.02,0.53,0.02,0.96,0.02,1.31c0,0.43-0.01,0.76-0.02,1
		v0.05c-0.16,0.04-0.29,0.06-0.38,0.06l-0.36-0.01c-0.11,0-0.2,0-0.28,0.01c0-0.92,0-1.68-0.01-2.28l-0.01-3.67
		c0-0.9,0.01-1.82,0.02-2.76c0.25,0.02,0.45,0.03,0.6,0.02c0.04,0,0.09,0,0.15-0.01c0.06-0.01,0.12-0.01,0.19-0.01
		c0.08,0,0.12,0.01,0.12,0.04c0.02,0.07,0.02,0.56,0.02,1.46V16.69z"/>
	<path d="M146.85,17.06c0.06-0.01,0.17-0.01,0.34,0c0.24,0.02,0.5,0.02,0.79,0.02v0.04c0,0.36-0.01,0.92-0.02,1.67
		c-0.02,0.77-0.04,1.54-0.04,2.33c0,0.74,0.02,1.39,0.05,1.97c-0.11,0.02-0.28,0.04-0.5,0.04c-0.22,0-0.36,0-0.41,0
		c-0.14,0-0.23,0-0.26,0.01c0.01-0.23,0.01-0.58,0.01-1.06V21v-1.01c-0.02-0.56-0.02-0.99-0.02-1.3c0-0.55,0.02-1.09,0.07-1.62
		V17.06z M146.81,14.48c0.5,0.02,0.87,0.02,1.13,0.02l0.04,1.58c-0.08,0.04-0.22,0.06-0.43,0.06c-0.13,0-0.22,0-0.29-0.01
		c-0.05,0-0.1,0-0.17-0.01c-0.06,0-0.14,0-0.23,0.01c0-0.12-0.01-0.32-0.02-0.59C146.81,15.02,146.8,14.67,146.81,14.48z"/>
	<path d="M151.07,14.9v1.84l0.01,0.67c0.52-0.02,1.16-0.04,1.93-0.08c0.05,0.06,0.07,0.18,0.07,0.36l-0.01,0.28
		c-0.02,0.18-0.02,0.3-0.01,0.38c-0.87,0-1.52,0-1.96-0.01v1.84v0.41c0,0.36,0.01,0.62,0.02,0.77s0.05,0.28,0.1,0.4
		c0.13,0.16,0.39,0.26,0.77,0.3c0.39,0.04,0.74,0.05,1.06,0.04c0.04,0.32,0.06,0.52,0.06,0.61c0,0.14-0.02,0.29-0.06,0.43
		c-0.17,0.01-0.43,0.01-0.79,0.01c-0.62,0-1.11-0.08-1.46-0.23c-0.35-0.15-0.58-0.46-0.67-0.91c-0.09-0.78-0.13-1.79-0.13-3.04
		v-0.58c-0.05,0.01-0.17,0.01-0.36,0.01l-0.91-0.01l0.04-0.98c0.18,0.02,0.6,0.02,1.26,0.02l-0.01-1.26V15.6
		c0-0.34,0.01-0.57,0.02-0.71c0.11-0.01,0.28,0,0.52,0.01l0.32,0.01C150.96,14.92,151.03,14.91,151.07,14.9z"/>
	<path d="M154.54,20.09v0.22l-0.01,0.35c0,0.99,0.49,1.49,1.46,1.49c0.39,0,0.68-0.09,0.87-0.27c0.19-0.18,0.28-0.43,0.28-0.74
		c0-0.05-0.01-0.14-0.02-0.26c0.17-0.02,0.32-0.04,0.47-0.04c0.13,0,0.22,0,0.29,0.01c0.05,0,0.11,0,0.17,0.01
		c0.07,0,0.15,0,0.23-0.01c0.01,0.46-0.01,0.82-0.05,1.09s-0.14,0.53-0.29,0.78c-0.14,0.22-0.39,0.37-0.75,0.46
		c-0.36,0.09-0.75,0.14-1.17,0.14c-0.19,0-0.37-0.01-0.53-0.02c-0.16-0.02-0.27-0.03-0.31-0.05c-0.62-0.1-1.08-0.5-1.36-1.18
		c-0.28-0.68-0.4-1.47-0.36-2.35c0.01-0.06,0.02-0.2,0.04-0.4c0.02-0.2,0.04-0.41,0.07-0.63c0.03-0.22,0.08-0.43,0.16-0.64
		c0.15-0.35,0.43-0.62,0.83-0.82c0.4-0.19,0.84-0.29,1.33-0.29c0.26,0,0.52,0.03,0.8,0.1c1.09,0.18,1.63,1,1.63,2.46
		c0,0.12-0.01,0.29-0.02,0.52c-0.15,0.05-0.6,0.09-1.34,0.12c-0.09,0.01-0.28,0.01-0.58,0.01c-0.63,0-1.1-0.01-1.4-0.02
		C154.79,20.12,154.64,20.11,154.54,20.09z M157.46,19.19c-0.01-0.25-0.07-0.49-0.19-0.73c-0.12-0.24-0.28-0.43-0.5-0.56
		c-0.12-0.06-0.22-0.09-0.31-0.11s-0.2-0.02-0.34-0.02c-0.52,0-0.89,0.11-1.11,0.32s-0.36,0.52-0.41,0.92
		c-0.02,0.1-0.02,0.16-0.02,0.19c0,0.1,0.05,0.16,0.14,0.19c0.09,0.03,0.29,0.05,0.59,0.05c0.3,0,0.55,0,0.76-0.01
		c0.77,0,1.2,0,1.3-0.01c0.04-0.01,0.07-0.02,0.08-0.03c0.01-0.01,0.02-0.03,0.02-0.07V19.19z"/>
	<path d="M163.13,18.65v4.44c-0.12-0.01-0.26,0-0.42,0.01l-0.29,0.01c-0.13,0-0.23-0.01-0.31-0.02c-0.03-0.19-0.05-0.89-0.05-2.09
		l0.01-1.45c0.01-0.24,0.01-0.54,0.01-0.9c-0.09,0.01-0.26,0.01-0.53,0.01c-0.07-0.01-0.18-0.01-0.31-0.01c-0.12,0-0.21,0-0.26,0.01
		l-0.04-1.03c0.59,0,0.96,0,1.12,0.01l-0.01-0.48c0-0.6,0.09-1.1,0.28-1.51c0.19-0.41,0.55-0.65,1.09-0.72
		c0.44-0.04,0.91-0.06,1.42-0.06h0.47c0.05,0.15,0.07,0.31,0.07,0.48c0,0.09-0.02,0.29-0.06,0.61c-0.14-0.01-0.58,0-1.34,0.04
		c-0.26,0.02-0.43,0.04-0.53,0.07c-0.1,0.03-0.17,0.1-0.22,0.22c-0.05,0.12-0.07,0.33-0.07,0.64c0,0.1,0.01,0.36,0.02,0.76
		c0.47-0.01,1.18-0.01,2.11-0.01c-0.01,0.03-0.02,0.16-0.04,0.4c0,0.24-0.01,0.45-0.02,0.64l-1.38-0.04L163.13,18.65z"/>
	<path d="M166.09,14.4l1.09,0.04c0,0.33-0.01,1.14-0.02,2.44c-0.02,1.6-0.02,2.86-0.02,3.77c0,1.01,0.01,1.81,0.04,2.41
		c-0.05,0.06-0.18,0.08-0.4,0.08l-0.37-0.01c-0.07-0.01-0.16-0.01-0.26-0.01c-0.06,0-0.1,0-0.12,0.01c0.05-0.65,0.07-1.3,0.07-1.96
		c0-0.5-0.02-1.24-0.05-2.23c-0.03-0.99-0.05-1.74-0.05-2.24C165.99,15.84,166.03,15.08,166.09,14.4z"/>
	<path d="M168.12,19.22c0-0.3,0.01-0.55,0.04-0.77s0.1-0.48,0.21-0.8c0.1-0.23,0.33-0.41,0.67-0.52c0.34-0.12,0.72-0.17,1.13-0.17
		c0.06,0.01,0.14,0.01,0.24,0.01l0.48-0.01c0.67,0,1.19,0.18,1.55,0.53c0.14,0.1,0.25,0.28,0.33,0.54c0.08,0.26,0.12,0.62,0.14,1.06
		c0.02,0.44,0.02,0.7,0.02,0.77c-0.03,0.8-0.07,1.44-0.11,1.91s-0.13,0.78-0.27,0.91c-0.15,0.22-0.36,0.36-0.63,0.44
		s-0.59,0.12-0.95,0.12c-0.14,0-0.36-0.01-0.65-0.02l-0.55-0.01c-0.47-0.08-0.83-0.25-1.06-0.52c-0.24-0.26-0.39-0.57-0.46-0.92
		c-0.07-0.35-0.1-0.78-0.1-1.27v-0.62C168.14,19.58,168.13,19.36,168.12,19.22z M170.57,18.08c-0.54,0-0.94,0.14-1.18,0.42
		c-0.1,0.13-0.17,0.29-0.2,0.49c-0.03,0.2-0.04,0.45-0.03,0.76c-0.01,0.12-0.01,0.28,0.01,0.48c0.01,0.2,0.02,0.36,0.02,0.47
		l0.02,0.5c0.02,0.32,0.11,0.55,0.27,0.68c0.16,0.13,0.35,0.22,0.59,0.27c0.16,0.02,0.32,0.04,0.49,0.04c0.31,0,0.58-0.06,0.82-0.17
		c0.23-0.11,0.38-0.3,0.44-0.55c0.03-0.21,0.05-0.37,0.05-0.49c0.04-0.56,0.06-0.94,0.06-1.14c0-0.53-0.1-0.95-0.29-1.27
		C171.45,18.24,171.09,18.08,170.57,18.08z"/>
	<path d="M173.18,17.12c0.14,0.01,0.34,0.01,0.61,0.01c0.26,0,0.46,0.01,0.59,0.02l0.18,1.1c0.21,1.38,0.44,2.6,0.68,3.67
		c0.39-1.11,0.69-2.03,0.91-2.75c0.21-0.72,0.39-1.41,0.52-2.06c0.07,0.01,0.26,0,0.56-0.01c0.28-0.02,0.49-0.01,0.64,0.02l0.07,0.4
		c0.14,0.69,0.28,1.34,0.43,1.95c0.15,0.61,0.38,1.4,0.69,2.37c0.19-0.74,0.39-1.65,0.6-2.74c0.03-0.14,0.1-0.43,0.19-0.89
		c0.1-0.46,0.18-0.82,0.25-1.07c0.29-0.02,0.52-0.02,0.71-0.02c0.18,0,0.32,0,0.42,0.01c-0.19,0.66-0.35,1.25-0.49,1.78
		c-0.13,0.53-0.25,1.03-0.35,1.49c-0.03,0.13-0.11,0.45-0.22,0.97s-0.26,1.1-0.44,1.76c-0.18,0.04-0.35,0.05-0.5,0.04l-0.85-0.01
		c-0.36-1.42-0.75-2.81-1.18-4.18c-0.31,1.01-0.5,1.62-0.56,1.85c-0.28,0.98-0.52,1.76-0.71,2.32c-0.11,0.02-0.31,0.02-0.59,0.02
		l-0.91-0.01C174.06,21.09,173.64,19.08,173.18,17.12z"/>
	<path d="M182.41,20.09v0.22l-0.01,0.35c0,0.99,0.49,1.49,1.46,1.49c0.39,0,0.68-0.09,0.87-0.27c0.19-0.18,0.28-0.43,0.28-0.74
		c0-0.05-0.01-0.14-0.02-0.26c0.17-0.02,0.32-0.04,0.47-0.04c0.13,0,0.22,0,0.29,0.01c0.05,0,0.11,0,0.17,0.01
		c0.07,0,0.15,0,0.23-0.01c0.01,0.46-0.01,0.82-0.05,1.09s-0.14,0.53-0.29,0.78c-0.14,0.22-0.39,0.37-0.75,0.46
		c-0.36,0.09-0.75,0.14-1.17,0.14c-0.19,0-0.37-0.01-0.53-0.02c-0.16-0.02-0.27-0.03-0.31-0.05c-0.62-0.1-1.08-0.5-1.36-1.18
		c-0.28-0.68-0.4-1.47-0.36-2.35c0.01-0.06,0.02-0.2,0.04-0.4c0.02-0.2,0.04-0.41,0.07-0.63c0.03-0.22,0.08-0.43,0.16-0.64
		c0.15-0.35,0.43-0.62,0.83-0.82c0.4-0.19,0.84-0.29,1.33-0.29c0.26,0,0.52,0.03,0.8,0.1c1.09,0.18,1.63,1,1.63,2.46
		c0,0.12-0.01,0.29-0.02,0.52c-0.15,0.05-0.6,0.09-1.34,0.12c-0.09,0.01-0.28,0.01-0.58,0.01c-0.63,0-1.1-0.01-1.4-0.02
		C182.65,20.12,182.51,20.11,182.41,20.09z M185.33,19.19c-0.01-0.25-0.07-0.49-0.19-0.73c-0.12-0.24-0.28-0.43-0.5-0.56
		c-0.12-0.06-0.22-0.09-0.31-0.11s-0.2-0.02-0.34-0.02c-0.52,0-0.89,0.11-1.11,0.32s-0.36,0.52-0.41,0.92
		c-0.02,0.1-0.02,0.16-0.02,0.19c0,0.1,0.05,0.16,0.14,0.19c0.09,0.03,0.29,0.05,0.59,0.05c0.3,0,0.55,0,0.76-0.01
		c0.77,0,1.2,0,1.3-0.01c0.04-0.01,0.07-0.02,0.08-0.03c0.01-0.01,0.02-0.03,0.02-0.07V19.19z"/>
	<path d="M187.94,17.16c0,0.1,0,0.17,0.01,0.22c0,0.05,0.01,0.11,0.01,0.19c0.06-0.03,0.13-0.07,0.23-0.11
		c0.1-0.04,0.21-0.08,0.33-0.12c0.18-0.06,0.41-0.11,0.67-0.14s0.49-0.04,0.7-0.04c0.19,0,0.29,0.01,0.29,0.02l-0.01,1
		c0,0.16,0,0.28,0.01,0.36c-0.12-0.05-0.26-0.09-0.41-0.13c-0.18-0.04-0.37-0.06-0.58-0.06c-0.22,0-0.46,0.03-0.73,0.1
		c-0.22,0.06-0.38,0.14-0.46,0.25c-0.08,0.11-0.12,0.32-0.11,0.64c0.03,1.1,0.05,2.34,0.05,3.73v0.05
		c-0.14,0.03-0.28,0.05-0.42,0.05c-0.06,0-0.15,0-0.27-0.01c-0.12,0-0.25,0-0.38,0.01l-0.01-2.06c-0.02-0.94-0.02-1.65-0.02-2.12
		c0-0.38,0.01-0.99,0.02-1.82c0.08,0.01,0.17,0.01,0.26,0.01c0.09,0,0.17-0.01,0.25-0.01c0.1-0.01,0.22-0.01,0.38-0.01
		C187.88,17.14,187.94,17.14,187.94,17.16z"/>
	<path d="M195.69,18.68c0,0.04-0.14,0.06-0.42,0.06c-0.21,0-0.36,0-0.46-0.01c-0.06,0-0.13,0-0.19-0.01c-0.06,0-0.12,0-0.16,0.01
		c0-0.01,0-0.15,0-0.41c0-0.27-0.23-0.43-0.7-0.49c-0.1-0.02-0.26-0.02-0.47-0.02c-0.22,0-0.43,0.02-0.61,0.05
		c-0.18,0.03-0.31,0.08-0.4,0.13c-0.1,0.08-0.18,0.2-0.24,0.35c-0.06,0.15-0.08,0.3-0.08,0.44c0,0.11,0.02,0.19,0.05,0.23
		c0.09,0.18,0.2,0.31,0.35,0.38c0.08,0.06,0.28,0.12,0.59,0.2c0.31,0.08,0.58,0.12,0.8,0.13c0.33,0.01,0.62,0.06,0.87,0.15
		c0.25,0.09,0.45,0.22,0.59,0.38c0.14,0.18,0.25,0.35,0.32,0.52c0.07,0.17,0.1,0.36,0.1,0.56c0,0.25-0.06,0.55-0.18,0.9
		c-0.18,0.38-0.46,0.65-0.84,0.83c-0.38,0.18-0.82,0.26-1.31,0.25c-0.54,0.02-1.01-0.05-1.42-0.21c-0.41-0.16-0.72-0.39-0.95-0.7
		s-0.34-0.68-0.34-1.1v-0.06c0.14-0.02,0.36-0.02,0.64-0.02c0.31,0,0.48,0.01,0.5,0.04c0.02,0.02,0.05,0.11,0.1,0.27
		s0.15,0.33,0.28,0.5c0.14,0.17,0.37,0.26,0.7,0.29c0.26,0.02,0.41,0.02,0.46,0.02c0.13,0,0.23-0.01,0.32-0.04s0.19-0.07,0.33-0.13
		c0.41-0.18,0.61-0.45,0.6-0.8c0.01-0.23-0.05-0.41-0.19-0.54c-0.13-0.13-0.3-0.21-0.5-0.26s-0.47-0.09-0.82-0.13
		c-0.25-0.02-0.45-0.05-0.6-0.07c-0.15-0.02-0.29-0.06-0.41-0.12c-0.42-0.14-0.73-0.35-0.95-0.64s-0.33-0.61-0.33-0.95
		c0-0.38,0.11-0.72,0.33-1.03s0.52-0.51,0.91-0.61c0.33-0.09,0.75-0.13,1.26-0.13c0.12,0,0.3,0.01,0.54,0.02
		c0.34,0.02,0.66,0.08,0.96,0.18c0.28,0.12,0.51,0.33,0.68,0.62C195.61,18,195.69,18.32,195.69,18.68z"/>
	<path d="M197.48,23.12l-0.91-0.01h-0.04c-0.02-0.14-0.04-0.33-0.04-0.55l0.01-0.59c0.01-0.07,0.01-0.16,0.01-0.25
		c0.14-0.06,0.34-0.08,0.58-0.08c0.22,0,0.38,0.02,0.48,0.06c0,0.04-0.01,0.26-0.04,0.65c-0.02,0.39-0.04,0.64-0.04,0.76v0.02
		H197.48z"/>
</g>
</svg>
