<!-- Generator: Adobe Illustrator 23.1.1, SVG Export Plug-In  -->
<svg version="1.1" xmlns="http://www.w3.org/2000/svg" xmlns:xlink="http://www.w3.org/1999/xlink" x="0px" y="0px" width="82.65px"
	 height="8.92px" viewBox="0 0 82.65 8.92" style="enable-background:new 0 0 82.65 8.92;" xml:space="preserve">
<defs>
</defs>
<g>
	<path d="M3.76,5.24L3.73,5.26C3.56,5.27,3.24,5.29,2.78,5.3C2.47,5.32,2,5.34,1.38,5.36H1.37L1.33,7.43
		c-0.01,0.3-0.01,0.72-0.01,1.28L0.65,8.76c-0.07,0-0.19-0.01-0.37-0.02C0.11,8.73,0.02,8.72,0.01,8.71L0,8.7
		c0-1.61,0-2.78,0.01-3.53l0.01-4.6V0.56c0.29-0.05,0.74-0.09,1.36-0.14s1.23-0.07,1.83-0.07c0.97,0,1.69,0.06,2.17,0.18v0.54
		c0,0.27,0,0.46-0.01,0.55l-0.9-0.01c-0.41,0-0.83,0.01-1.27,0.04C2.84,1.67,2.23,1.71,1.36,1.76C1.32,2.38,1.3,2.9,1.3,3.31
		c0,0.15,0.01,0.31,0.03,0.47S1.37,4.02,1.4,4.02c0.57,0.01,1.16,0.01,1.78,0.01c0.27,0,0.46,0,0.56-0.01
		c0.02,0.06,0.04,0.16,0.04,0.31L3.77,4.78C3.75,5.02,3.75,5.18,3.76,5.24z"/>
	<path d="M4.79,4.82c0-0.3,0.01-0.55,0.04-0.77c0.03-0.22,0.1-0.48,0.21-0.8c0.1-0.23,0.33-0.41,0.67-0.52
		c0.34-0.12,0.72-0.17,1.13-0.17C6.9,2.56,6.98,2.57,7.08,2.57l0.48-0.01c0.67,0,1.19,0.18,1.55,0.53c0.14,0.1,0.25,0.28,0.33,0.54
		c0.08,0.26,0.12,0.62,0.14,1.06C9.59,5.13,9.6,5.39,9.6,5.46C9.57,6.26,9.53,6.9,9.49,7.37S9.35,8.14,9.22,8.28
		C9.06,8.5,8.85,8.64,8.59,8.72S8,8.84,7.63,8.84c-0.14,0-0.36-0.01-0.65-0.02L6.43,8.81C5.96,8.73,5.61,8.56,5.37,8.29
		C5.13,8.03,4.98,7.72,4.91,7.37c-0.07-0.35-0.1-0.78-0.1-1.27V5.47C4.81,5.18,4.8,4.96,4.79,4.82z M7.24,3.68
		c-0.54,0-0.94,0.14-1.18,0.42c-0.1,0.13-0.17,0.29-0.2,0.49c-0.03,0.2-0.04,0.45-0.03,0.76C5.82,5.47,5.83,5.63,5.84,5.83
		c0.01,0.2,0.02,0.36,0.02,0.47l0.02,0.5C5.9,7.12,5.99,7.35,6.15,7.48C6.31,7.61,6.5,7.7,6.74,7.75C6.9,7.78,7.07,7.79,7.24,7.79
		c0.31,0,0.58-0.06,0.82-0.17c0.23-0.11,0.38-0.3,0.44-0.55C8.53,6.86,8.54,6.7,8.54,6.58C8.58,6.02,8.6,5.64,8.6,5.44
		c0-0.53-0.1-0.95-0.29-1.27C8.12,3.84,7.76,3.68,7.24,3.68z"/>
	<path d="M13.79,8.72c-0.01-0.15-0.01-0.28-0.01-0.38s0-0.19-0.01-0.26c-0.02,0.01-0.08,0.05-0.19,0.13
		c-0.11,0.08-0.29,0.15-0.54,0.2c-0.46,0.17-0.92,0.25-1.36,0.25c-0.5,0-0.87-0.12-1.12-0.36c-0.14-0.12-0.22-0.32-0.25-0.61
		c-0.03-0.28-0.05-0.74-0.06-1.36V5.98c0-0.25,0.01-0.61,0.02-1.09c0.02-0.48,0.04-0.94,0.04-1.37c0-0.21-0.01-0.46-0.02-0.77
		c0.14-0.02,0.34-0.02,0.59-0.02h0.4c0.02,0.24,0.04,0.52,0.04,0.85l-0.01,0.97c0,0.32,0,0.55,0.01,0.7l0.01,0.34
		c0,0.29,0.01,0.62,0.04,1.01c0.02,0.26,0.07,0.46,0.16,0.6c0.09,0.14,0.23,0.23,0.41,0.28c0.16,0.02,0.31,0.04,0.44,0.04
		c0.47,0,0.83-0.13,1.09-0.38s0.38-0.6,0.39-1.04c0.01-0.29,0-0.81-0.04-1.57c-0.02-0.38-0.02-0.64-0.02-0.76
		c0-0.22,0.01-0.52,0.02-0.92V2.77c0.13-0.03,0.25-0.05,0.37-0.06c0.12-0.01,0.19-0.01,0.21-0.01c0.17,0,0.31,0,0.43-0.01l0.01,2.06
		c0.02,0.94,0.02,1.65,0.02,2.12c0,0.38-0.01,0.99-0.02,1.82c-0.18,0-0.37,0.01-0.59,0.04c-0.04,0-0.09,0-0.15,0.01
		c-0.06,0.01-0.12,0.01-0.19,0.01C13.83,8.76,13.79,8.75,13.79,8.72z"/>
	<path d="M16.8,2.76c0,0.1,0,0.17,0.01,0.22c0,0.05,0.01,0.11,0.01,0.19c0.06-0.03,0.13-0.07,0.23-0.11s0.21-0.08,0.33-0.12
		c0.18-0.06,0.41-0.11,0.67-0.14c0.26-0.03,0.49-0.04,0.7-0.04c0.19,0,0.29,0.01,0.29,0.02l-0.01,1c0,0.16,0,0.28,0.01,0.36
		c-0.12-0.05-0.26-0.09-0.41-0.13c-0.18-0.04-0.37-0.06-0.58-0.06c-0.22,0-0.46,0.03-0.73,0.1c-0.22,0.06-0.38,0.14-0.46,0.25
		c-0.08,0.11-0.12,0.32-0.11,0.64c0.03,1.1,0.05,2.34,0.05,3.73v0.05c-0.14,0.03-0.28,0.05-0.42,0.05c-0.06,0-0.15,0-0.27-0.01
		c-0.12,0-0.25,0-0.38,0.01L15.72,6.7C15.7,5.75,15.7,5.04,15.7,4.57c0-0.38,0.01-0.99,0.02-1.82c0.08,0.01,0.17,0.01,0.26,0.01
		c0.09,0,0.17-0.01,0.25-0.01c0.1-0.01,0.22-0.01,0.38-0.01C16.74,2.74,16.8,2.74,16.8,2.76z"/>
	<path d="M26.8,4.28c0,0.04-0.14,0.06-0.42,0.06c-0.21,0-0.36,0-0.46-0.01c-0.06,0-0.13,0-0.19-0.01c-0.06,0-0.12,0-0.16,0.01
		c0-0.01,0-0.15,0-0.41c0-0.27-0.23-0.43-0.7-0.49c-0.1-0.02-0.26-0.02-0.47-0.02c-0.22,0-0.43,0.02-0.61,0.05
		c-0.18,0.03-0.31,0.08-0.4,0.13c-0.1,0.08-0.18,0.2-0.24,0.35c-0.06,0.15-0.08,0.3-0.08,0.44c0,0.11,0.02,0.19,0.05,0.23
		c0.09,0.18,0.2,0.31,0.35,0.38c0.08,0.06,0.28,0.12,0.59,0.2s0.58,0.12,0.8,0.13c0.33,0.01,0.62,0.06,0.87,0.15
		c0.25,0.09,0.45,0.22,0.59,0.38c0.14,0.18,0.25,0.35,0.32,0.52c0.07,0.17,0.1,0.36,0.1,0.56c0,0.25-0.06,0.55-0.18,0.9
		c-0.18,0.38-0.46,0.65-0.84,0.83c-0.38,0.18-0.82,0.26-1.31,0.25C23.88,8.93,23.41,8.86,23,8.71C22.6,8.55,22.28,8.32,22.06,8
		c-0.22-0.31-0.34-0.68-0.34-1.1V6.84c0.14-0.02,0.36-0.02,0.64-0.02c0.31,0,0.48,0.01,0.5,0.04c0.02,0.02,0.05,0.11,0.1,0.27
		c0.05,0.16,0.15,0.33,0.28,0.5c0.14,0.17,0.37,0.26,0.7,0.29c0.26,0.02,0.41,0.02,0.46,0.02c0.13,0,0.23-0.01,0.32-0.04
		s0.19-0.07,0.33-0.13c0.41-0.18,0.61-0.45,0.6-0.8c0.01-0.23-0.05-0.41-0.19-0.54c-0.13-0.13-0.3-0.21-0.5-0.26
		c-0.2-0.04-0.47-0.09-0.82-0.13c-0.25-0.02-0.45-0.05-0.6-0.07c-0.15-0.02-0.29-0.06-0.41-0.12c-0.42-0.14-0.73-0.35-0.95-0.64
		c-0.22-0.29-0.33-0.61-0.33-0.95c0-0.38,0.11-0.72,0.33-1.03c0.22-0.31,0.52-0.51,0.91-0.61c0.33-0.09,0.75-0.13,1.26-0.13
		c0.12,0,0.3,0.01,0.54,0.02c0.34,0.02,0.66,0.08,0.96,0.18c0.28,0.12,0.51,0.33,0.68,0.62C26.71,3.6,26.8,3.92,26.8,4.28z"/>
	<path d="M28.51,2.77c0.02,0.09,0.02,0.2,0.02,0.34v0.3c0.3-0.3,0.65-0.48,1.06-0.54c0.28-0.06,0.52-0.08,0.71-0.08
		c0.34,0,0.63,0.07,0.85,0.2c0.18,0.08,0.29,0.19,0.35,0.34c0.06-0.03,0.14-0.09,0.25-0.17c0.11-0.08,0.26-0.16,0.44-0.24
		c0.19-0.08,0.45-0.12,0.79-0.13c0.4-0.02,0.71,0,0.94,0.05c0.23,0.05,0.43,0.16,0.62,0.32c0.1,0.09,0.18,0.3,0.22,0.62
		c0.04,0.33,0.06,0.76,0.06,1.3c0,0.3-0.01,0.78-0.02,1.44c-0.02,0.64-0.02,1.1-0.02,1.37c0,0.22,0.01,0.5,0.02,0.82
		c-0.29,0.05-0.63,0.06-1.02,0.05c-0.02-0.22-0.02-0.61-0.02-1.19c0.02-0.62,0.02-1.1,0.02-1.44v-0.5
		c-0.01-0.06-0.02-0.18-0.02-0.35s-0.02-0.35-0.05-0.55c-0.02-0.2-0.07-0.35-0.14-0.46c-0.05-0.16-0.2-0.25-0.47-0.28
		c-0.08-0.02-0.2-0.02-0.35-0.02c-0.23,0-0.43,0.04-0.6,0.11s-0.29,0.19-0.36,0.35c-0.02,0.18-0.02,0.32-0.02,0.42l0.01,0.34v0.44
		c0,0.27-0.01,0.69-0.02,1.25l-0.01,1.2c0,0.3,0,0.51,0.01,0.64c-0.17,0.02-0.4,0.04-0.68,0.04h-0.37
		c-0.02-0.16-0.02-0.44-0.02-0.85V7.26l0.01-0.89c0-0.55-0.02-1.04-0.05-1.46c0-0.34-0.06-0.57-0.17-0.69
		c-0.11-0.12-0.32-0.19-0.62-0.19c-0.85,0-1.3,0.48-1.37,1.43c-0.01,0.12-0.01,0.3-0.01,0.53c0,0.26,0.01,0.62,0.02,1.08l0.01,0.59
		c0,0.33-0.01,0.67-0.04,1.02v0.05c-0.12,0.02-0.23,0.04-0.34,0.04l-0.4-0.01c-0.12,0-0.22,0-0.29,0.01L27.42,6.7
		C27.4,5.75,27.4,5.04,27.4,4.57c0-0.38,0.01-0.99,0.02-1.82c0.21,0.02,0.33,0.02,0.37,0.02l0.26-0.01c0.04,0,0.09,0,0.16-0.01
		c0.06-0.01,0.13-0.01,0.19-0.01C28.48,2.74,28.51,2.75,28.51,2.77z"/>
	<path d="M39.44,2.7c0.18-0.01,0.42,0,0.71,0.02l0.31,0.02c0.02,0.13,0.02,0.22,0.02,0.29v0.12c-0.01,0.18-0.01,0.46-0.01,0.83
		c0,0.3,0.01,0.75,0.02,1.34l0.01,1.34c0,0.58-0.02,1.1-0.05,1.57c0,0.02,0,0.08,0,0.16c0,0.08-0.01,0.15-0.02,0.22
		c-0.02,0.06-0.06,0.1-0.13,0.12h-0.2l-0.38-0.01c-0.06,0-0.12,0-0.17,0.01c-0.05,0.01-0.09,0.01-0.13,0.01
		c-0.08-0.02-0.12-0.11-0.12-0.26c-0.01-0.06-0.01-0.14,0.01-0.22c0.01-0.08,0.02-0.15,0.02-0.2c-0.19,0.26-0.5,0.44-0.91,0.54
		C38,8.7,37.59,8.75,37.19,8.75c-0.38,0-0.71-0.17-0.98-0.51c-0.27-0.34-0.47-0.76-0.59-1.25c-0.13-0.5-0.19-0.98-0.19-1.45
		c0-0.52,0.09-0.99,0.26-1.4c0.18-0.42,0.42-0.75,0.73-0.99c0.31-0.24,0.65-0.37,1.03-0.38l0.38-0.01c0.36,0,0.66,0.04,0.89,0.13
		s0.41,0.24,0.52,0.46c0-0.07,0.01-0.16,0.02-0.28c0.02-0.16,0.02-0.27,0.02-0.34C39.29,2.71,39.34,2.7,39.44,2.7z M38.1,3.78
		c-0.42-0.01-0.77,0.1-1.05,0.32c-0.28,0.22-0.46,0.48-0.52,0.79c-0.06,0.23-0.1,0.54-0.1,0.94c0.04,1.29,0.56,1.9,1.56,1.85
		c0.41,0,0.7-0.07,0.89-0.22s0.3-0.35,0.34-0.61c0.04-0.26,0.07-0.66,0.07-1.19c0-0.58-0.02-0.98-0.07-1.22
		c-0.05-0.24-0.15-0.4-0.31-0.49C38.75,3.86,38.48,3.8,38.1,3.78z"/>
	<path d="M41.64,0l1.09,0.04c0,0.33-0.01,1.14-0.02,2.44c-0.02,1.6-0.02,2.86-0.02,3.77c0,1.01,0.01,1.81,0.04,2.41
		c-0.05,0.06-0.18,0.08-0.4,0.08l-0.37-0.01c-0.07-0.01-0.16-0.01-0.26-0.01c-0.06,0-0.1,0-0.12,0.01c0.05-0.65,0.07-1.3,0.07-1.96
		c0-0.5-0.02-1.24-0.05-2.23c-0.03-0.99-0.05-1.74-0.05-2.24C41.54,1.44,41.58,0.68,41.64,0z"/>
	<path d="M44.11,0l1.09,0.04c0,0.33-0.01,1.14-0.02,2.44c-0.02,1.6-0.02,2.86-0.02,3.77c0,1.01,0.01,1.81,0.04,2.41
		c-0.05,0.06-0.18,0.08-0.4,0.08l-0.37-0.01c-0.07-0.01-0.16-0.01-0.26-0.01c-0.06,0-0.1,0-0.12,0.01c0.05-0.65,0.07-1.3,0.07-1.96
		c0-0.5-0.02-1.24-0.05-2.23c-0.03-0.99-0.05-1.74-0.05-2.24C44.02,1.44,44.05,0.68,44.11,0z"/>
	<path d="M48.98,0l1.09,0.04c0,0.33-0.01,1.14-0.02,2.44c-0.02,1.6-0.02,2.86-0.02,3.77c0,1.01,0.01,1.81,0.04,2.41
		c-0.05,0.06-0.18,0.08-0.4,0.08l-0.37-0.01c-0.07-0.01-0.16-0.01-0.26-0.01c-0.06,0-0.1,0-0.12,0.01c0.05-0.65,0.07-1.3,0.07-1.96
		c0-0.5-0.02-1.24-0.05-2.23c-0.03-0.99-0.05-1.74-0.05-2.24C48.89,1.44,48.92,0.68,48.98,0z"/>
	<path d="M52.04,5.69V5.9l-0.01,0.35c0,0.99,0.49,1.49,1.46,1.49c0.39,0,0.68-0.09,0.87-0.27c0.19-0.18,0.28-0.43,0.28-0.74
		c0-0.05-0.01-0.14-0.02-0.26c0.17-0.02,0.32-0.04,0.47-0.04c0.13,0,0.22,0,0.29,0.01c0.05,0,0.11,0,0.17,0.01
		c0.07,0,0.15,0,0.23-0.01c0.01,0.46-0.01,0.82-0.05,1.09s-0.14,0.53-0.29,0.78c-0.14,0.22-0.39,0.37-0.75,0.46
		c-0.36,0.09-0.75,0.14-1.17,0.14c-0.19,0-0.37-0.01-0.53-0.02s-0.27-0.03-0.31-0.05c-0.62-0.1-1.08-0.5-1.36-1.18
		c-0.28-0.68-0.4-1.47-0.36-2.35c0.01-0.06,0.02-0.2,0.04-0.4c0.02-0.2,0.04-0.41,0.07-0.63c0.03-0.22,0.08-0.43,0.16-0.64
		c0.15-0.35,0.43-0.62,0.83-0.82c0.4-0.19,0.84-0.29,1.33-0.29c0.26,0,0.52,0.03,0.8,0.1c1.09,0.18,1.63,1,1.63,2.46
		c0,0.12-0.01,0.29-0.02,0.52c-0.15,0.05-0.6,0.09-1.34,0.12c-0.09,0.01-0.28,0.01-0.58,0.01c-0.63,0-1.1-0.01-1.4-0.02
		C52.29,5.72,52.14,5.71,52.04,5.69z M54.96,4.79c-0.01-0.25-0.07-0.49-0.19-0.73c-0.12-0.24-0.28-0.43-0.5-0.56
		c-0.12-0.06-0.22-0.09-0.31-0.11c-0.09-0.02-0.2-0.02-0.34-0.02c-0.52,0-0.89,0.11-1.11,0.32s-0.36,0.52-0.41,0.92
		c-0.02,0.1-0.02,0.16-0.02,0.19c0,0.1,0.05,0.16,0.14,0.19c0.09,0.03,0.29,0.05,0.59,0.05c0.3,0,0.55,0,0.76-0.01
		c0.77,0,1.2,0,1.3-0.01C54.9,5.01,54.93,5,54.94,4.99c0.01-0.01,0.02-0.03,0.02-0.07V4.79z"/>
	<path d="M60.3,2.7c0.18-0.01,0.42,0,0.71,0.02l0.31,0.02c0.02,0.13,0.02,0.22,0.02,0.29v0.12c-0.01,0.18-0.01,0.46-0.01,0.83
		c0,0.3,0.01,0.75,0.02,1.34l0.01,1.34c0,0.58-0.02,1.1-0.05,1.57c0,0.02,0,0.08,0,0.16c0,0.08-0.01,0.15-0.02,0.22
		c-0.02,0.06-0.06,0.1-0.13,0.12h-0.2l-0.38-0.01c-0.06,0-0.12,0-0.17,0.01c-0.05,0.01-0.09,0.01-0.13,0.01
		c-0.08-0.02-0.12-0.11-0.12-0.26c-0.01-0.06-0.01-0.14,0.01-0.22c0.01-0.08,0.02-0.15,0.02-0.2c-0.19,0.26-0.5,0.44-0.91,0.54
		c-0.42,0.1-0.82,0.14-1.22,0.14c-0.38,0-0.71-0.17-0.98-0.51C56.8,7.9,56.6,7.48,56.47,6.98c-0.13-0.5-0.19-0.98-0.19-1.45
		c0-0.52,0.09-0.99,0.26-1.4c0.18-0.42,0.42-0.75,0.73-0.99c0.31-0.24,0.65-0.37,1.03-0.38l0.38-0.01c0.36,0,0.66,0.04,0.89,0.13
		s0.41,0.24,0.52,0.46c0-0.07,0.01-0.16,0.02-0.28c0.02-0.16,0.02-0.27,0.02-0.34C60.14,2.71,60.19,2.7,60.3,2.7z M58.95,3.78
		c-0.42-0.01-0.77,0.1-1.05,0.32c-0.28,0.22-0.46,0.48-0.52,0.79c-0.06,0.23-0.1,0.54-0.1,0.94c0.04,1.29,0.56,1.9,1.56,1.85
		c0.41,0,0.7-0.07,0.89-0.22s0.3-0.35,0.34-0.61c0.04-0.26,0.07-0.66,0.07-1.19c0-0.58-0.02-0.98-0.07-1.22
		c-0.05-0.24-0.15-0.4-0.31-0.49C59.61,3.86,59.34,3.8,58.95,3.78z"/>
	<path d="M61.89,2.72c0.12,0.02,0.29,0.02,0.5,0.02c0.07,0,0.16,0,0.26-0.01s0.21,0,0.33,0.01c0.13,0.45,0.36,1.3,0.71,2.56
		c0.17,0.63,0.29,1.09,0.37,1.37c0.08,0.28,0.18,0.55,0.29,0.82c0.07-0.18,0.16-0.44,0.26-0.8s0.17-0.6,0.2-0.71
		c0.39-1.34,0.73-2.4,1.01-3.2c0.07,0,0.19-0.01,0.35-0.02c0.29-0.02,0.53-0.02,0.72-0.01c-0.16,0.42-0.31,0.86-0.44,1.31
		c-0.14,0.45-0.26,0.9-0.38,1.34c-0.38,1.33-0.73,2.44-1.03,3.32c-0.13,0.02-0.33,0.04-0.61,0.04l-0.86-0.01
		c-0.35-1.12-0.61-1.97-0.77-2.55s-0.33-1.22-0.5-1.91L61.89,2.72z"/>
	<path d="M68.07,5.69V5.9l-0.01,0.35c0,0.99,0.49,1.49,1.46,1.49c0.39,0,0.68-0.09,0.87-0.27c0.19-0.18,0.28-0.43,0.28-0.74
		c0-0.05-0.01-0.14-0.02-0.26c0.17-0.02,0.32-0.04,0.47-0.04c0.13,0,0.22,0,0.29,0.01c0.05,0,0.11,0,0.17,0.01
		c0.07,0,0.15,0,0.23-0.01c0.01,0.46-0.01,0.82-0.05,1.09s-0.14,0.53-0.29,0.78c-0.14,0.22-0.39,0.37-0.75,0.46
		c-0.36,0.09-0.75,0.14-1.17,0.14c-0.19,0-0.37-0.01-0.53-0.02s-0.27-0.03-0.31-0.05c-0.62-0.1-1.08-0.5-1.36-1.18
		c-0.28-0.68-0.4-1.47-0.36-2.35c0.01-0.06,0.02-0.2,0.04-0.4c0.02-0.2,0.04-0.41,0.07-0.63c0.03-0.22,0.08-0.43,0.16-0.64
		c0.15-0.35,0.43-0.62,0.83-0.82c0.4-0.19,0.84-0.29,1.33-0.29c0.26,0,0.52,0.03,0.8,0.1c1.09,0.18,1.63,1,1.63,2.46
		c0,0.12-0.01,0.29-0.02,0.52c-0.15,0.05-0.6,0.09-1.34,0.12c-0.09,0.01-0.28,0.01-0.58,0.01c-0.63,0-1.1-0.01-1.4-0.02
		C68.32,5.72,68.17,5.71,68.07,5.69z M70.99,4.79c-0.01-0.25-0.07-0.49-0.19-0.73c-0.12-0.24-0.28-0.43-0.5-0.56
		c-0.12-0.06-0.22-0.09-0.31-0.11c-0.09-0.02-0.2-0.02-0.34-0.02c-0.52,0-0.89,0.11-1.11,0.32s-0.36,0.52-0.41,0.92
		c-0.02,0.1-0.02,0.16-0.02,0.19c0,0.1,0.05,0.16,0.14,0.19c0.09,0.03,0.29,0.05,0.59,0.05c0.3,0,0.55,0,0.76-0.01
		c0.77,0,1.2,0,1.3-0.01c0.04-0.01,0.07-0.02,0.08-0.03c0.01-0.01,0.02-0.03,0.02-0.07V4.79z"/>
	<path d="M77.29,4.28c0,0.04-0.14,0.06-0.42,0.06c-0.21,0-0.36,0-0.46-0.01c-0.06,0-0.13,0-0.19-0.01c-0.06,0-0.12,0-0.16,0.01
		c0-0.01,0-0.15,0-0.41c0-0.27-0.23-0.43-0.7-0.49c-0.1-0.02-0.26-0.02-0.47-0.02c-0.22,0-0.43,0.02-0.61,0.05
		c-0.18,0.03-0.31,0.08-0.4,0.13c-0.1,0.08-0.18,0.2-0.24,0.35c-0.06,0.15-0.08,0.3-0.08,0.44c0,0.11,0.02,0.19,0.05,0.23
		c0.09,0.18,0.2,0.31,0.35,0.38c0.08,0.06,0.28,0.12,0.59,0.2s0.58,0.12,0.8,0.13c0.33,0.01,0.62,0.06,0.87,0.15
		c0.25,0.09,0.45,0.22,0.59,0.38c0.14,0.18,0.25,0.35,0.32,0.52c0.07,0.17,0.1,0.36,0.1,0.56c0,0.25-0.06,0.55-0.18,0.9
		c-0.18,0.38-0.46,0.65-0.84,0.83c-0.38,0.18-0.82,0.26-1.31,0.25c-0.54,0.02-1.01-0.05-1.42-0.21c-0.41-0.16-0.72-0.39-0.95-0.7
		c-0.22-0.31-0.34-0.68-0.34-1.1V6.84c0.14-0.02,0.36-0.02,0.64-0.02c0.31,0,0.48,0.01,0.5,0.04c0.02,0.02,0.05,0.11,0.1,0.27
		c0.05,0.16,0.15,0.33,0.28,0.5c0.14,0.17,0.37,0.26,0.7,0.29c0.26,0.02,0.41,0.02,0.46,0.02c0.13,0,0.23-0.01,0.32-0.04
		s0.19-0.07,0.33-0.13c0.41-0.18,0.61-0.45,0.6-0.8c0.01-0.23-0.05-0.41-0.19-0.54c-0.13-0.13-0.3-0.21-0.5-0.26
		c-0.2-0.04-0.47-0.09-0.82-0.13c-0.25-0.02-0.45-0.05-0.6-0.07c-0.15-0.02-0.29-0.06-0.41-0.12c-0.42-0.14-0.73-0.35-0.95-0.64
		c-0.22-0.29-0.33-0.61-0.33-0.95c0-0.38,0.11-0.72,0.33-1.03c0.22-0.31,0.52-0.51,0.91-0.61c0.33-0.09,0.75-0.13,1.26-0.13
		c0.12,0,0.3,0.01,0.54,0.02c0.34,0.02,0.66,0.08,0.96,0.18c0.28,0.12,0.51,0.33,0.68,0.62C77.2,3.6,77.29,3.92,77.29,4.28z"/>
	<path d="M79.69,6.3l0.02-0.38c0.06-0.34,0.14-0.63,0.26-0.89c0.12-0.26,0.31-0.55,0.56-0.87c0.24-0.28,0.43-0.53,0.57-0.76
		c0.14-0.22,0.23-0.46,0.28-0.7c0.02-0.1,0.02-0.17,0.02-0.22c0-0.33-0.13-0.59-0.38-0.79c-0.26-0.2-0.6-0.28-1.03-0.25
		c-0.34-0.01-0.59,0.08-0.75,0.27s-0.31,0.45-0.44,0.79c-0.05,0.13-0.08,0.22-0.11,0.26l-0.24,0.01c-0.11,0-0.28-0.01-0.5-0.02
		l-0.29-0.01V2.74c0.02-0.41,0.14-0.8,0.34-1.18c0.2-0.38,0.48-0.69,0.83-0.93c0.35-0.24,0.75-0.37,1.19-0.39
		c0.06-0.01,0.14-0.01,0.24-0.01c0.43,0,0.83,0.09,1.19,0.28c0.36,0.18,0.65,0.44,0.86,0.76c0.22,0.32,0.32,0.68,0.32,1.08
		c0,0.39-0.07,0.72-0.22,0.98c-0.15,0.26-0.37,0.56-0.67,0.89c-0.19,0.21-0.33,0.37-0.41,0.48c-0.18,0.24-0.31,0.47-0.41,0.68
		c-0.1,0.22-0.16,0.46-0.2,0.73c-0.01,0.06-0.02,0.11-0.02,0.17c-0.01,0.06-0.01,0.12-0.01,0.19c0,0.05,0,0.08,0.01,0.1v0.01
		c-0.1,0.02-0.24,0.02-0.44,0.02c-0.06,0-0.14,0-0.23-0.01c-0.09,0-0.2,0-0.32,0.01h-0.01c-0.02-0.03-0.02-0.09-0.02-0.18V6.3z
		 M80.59,8.72h-0.86h-0.04c-0.02-0.14-0.04-0.33-0.04-0.55l0.01-0.59c0.01-0.07,0.01-0.16,0.01-0.25c0.14-0.06,0.32-0.08,0.56-0.08
		c0.17,0,0.32,0.02,0.44,0.05c0,0.04-0.01,0.26-0.04,0.65s-0.04,0.64-0.04,0.76v0.02H80.59z"/>
</g>
</svg>
