<!-- Generator: Adobe Illustrator 23.1.1, SVG Export Plug-In  -->
<svg version="1.1" xmlns="http://www.w3.org/2000/svg" xmlns:xlink="http://www.w3.org/1999/xlink" x="0px" y="0px" width="164.6px"
	 height="12.78px" viewBox="0 0 164.6 12.78" style="enable-background:new 0 0 164.6 12.78;" xml:space="preserve">
<defs>
</defs>
<g>
	<path d="M0.11,1.8c0.06-0.01,0.12-0.01,0.2-0.01c0.06,0,0.18,0.01,0.34,0.02C1.03,1.83,1.3,1.85,1.46,1.86v0.05
		c0,0.52-0.01,1.32-0.02,2.39C1.42,5.36,1.4,6.44,1.4,7.52c0,1.02,0.02,1.93,0.05,2.74c-0.06,0.05-0.22,0.07-0.48,0.07l-0.66-0.01
		c-0.1,0-0.2,0.01-0.3,0.02c0.03-0.61,0.05-1.33,0.05-2.17c0-0.51,0-0.9-0.01-1.16L0.01,4.96L0,3.89c0-0.7,0.04-1.39,0.11-2.06V1.8z
		"/>
	<path d="M7.54,5.85c0,0.04-0.14,0.06-0.42,0.06c-0.21,0-0.36,0-0.46-0.01c-0.06,0-0.13,0-0.19-0.01c-0.06,0-0.12,0-0.16,0.01
		c0-0.01,0-0.15,0-0.41c0-0.27-0.23-0.43-0.7-0.49c-0.1-0.02-0.26-0.02-0.47-0.02C4.92,4.98,4.72,5,4.54,5.03
		C4.36,5.06,4.23,5.1,4.14,5.16c-0.1,0.08-0.18,0.2-0.24,0.35c-0.06,0.15-0.08,0.3-0.08,0.44c0,0.11,0.02,0.19,0.05,0.23
		c0.09,0.18,0.2,0.31,0.35,0.38c0.08,0.06,0.28,0.12,0.59,0.2C5.11,6.85,5.38,6.89,5.6,6.9c0.33,0.01,0.62,0.06,0.87,0.15
		c0.25,0.09,0.45,0.22,0.59,0.38C7.21,7.6,7.32,7.78,7.39,7.95c0.07,0.17,0.1,0.36,0.1,0.56c0,0.25-0.06,0.55-0.18,0.9
		c-0.18,0.38-0.46,0.65-0.84,0.83c-0.38,0.18-0.82,0.26-1.31,0.25c-0.54,0.02-1.01-0.05-1.42-0.21c-0.41-0.16-0.72-0.39-0.95-0.7
		S2.46,8.9,2.46,8.47V8.41C2.6,8.4,2.82,8.39,3.1,8.39c0.31,0,0.48,0.01,0.5,0.04c0.02,0.02,0.05,0.11,0.1,0.27s0.15,0.33,0.28,0.5
		c0.14,0.17,0.37,0.26,0.7,0.29C4.94,9.5,5.09,9.5,5.14,9.5c0.13,0,0.23-0.01,0.32-0.04S5.65,9.4,5.78,9.33
		c0.41-0.18,0.61-0.45,0.6-0.8C6.39,8.3,6.33,8.12,6.2,7.99C6.07,7.86,5.9,7.78,5.7,7.73S5.23,7.65,4.88,7.61
		c-0.25-0.02-0.45-0.05-0.6-0.07C4.13,7.51,4,7.47,3.88,7.42C3.46,7.28,3.14,7.06,2.92,6.77S2.59,6.16,2.59,5.82
		c0-0.38,0.11-0.72,0.33-1.03s0.52-0.51,0.91-0.61C4.16,4.1,4.58,4.05,5.09,4.05c0.12,0,0.3,0.01,0.54,0.02
		C5.97,4.1,6.29,4.16,6.59,4.26C6.87,4.38,7.1,4.58,7.27,4.88C7.45,5.17,7.54,5.5,7.54,5.85z"/>
	<path d="M9.95,4.29c0.14,0.01,0.34,0.01,0.62,0.01c0.27,0,0.46,0.01,0.58,0.02l0.43,1.64c0.3,1.13,0.52,1.98,0.68,2.55
		c0.16,0.57,0.29,0.95,0.4,1.15c0.12-0.14,0.26-0.54,0.42-1.18s0.35-1.49,0.58-2.54c0.02-0.1,0.08-0.36,0.17-0.8s0.16-0.71,0.2-0.82
		l0.47-0.01c0.29-0.02,0.52-0.02,0.71-0.01c-0.08,0.29-0.22,0.87-0.43,1.75l-0.22,0.9c-0.03,0.1-0.1,0.44-0.22,1
		c-0.21,0.97-0.43,1.75-0.65,2.33c-0.23,0.59-0.61,1.09-1.16,1.51s-1.3,0.63-2.28,0.63c-0.18,0-0.31,0-0.41-0.01
		c-0.06-0.17-0.1-0.38-0.1-0.62c0-0.18,0.02-0.34,0.05-0.46c0.26,0.02,0.44,0.02,0.55,0.02c0.91,0,1.37-0.24,1.37-0.71
		c0-0.04-0.01-0.1-0.02-0.18l-0.85-3.01C10.56,6.5,10.26,5.45,9.95,4.29z"/>
	<path d="M15.45,6.4c0-0.3,0.01-0.55,0.04-0.77s0.1-0.48,0.21-0.8c0.1-0.23,0.33-0.41,0.67-0.52c0.34-0.12,0.72-0.17,1.13-0.17
		c0.06,0.01,0.14,0.01,0.24,0.01l0.48-0.01c0.67,0,1.19,0.18,1.55,0.53c0.14,0.1,0.25,0.28,0.33,0.54c0.08,0.26,0.12,0.62,0.14,1.06
		c0.02,0.44,0.02,0.7,0.02,0.77c-0.03,0.8-0.07,1.44-0.11,1.91s-0.13,0.78-0.27,0.91c-0.15,0.22-0.36,0.36-0.63,0.44
		s-0.59,0.12-0.95,0.12c-0.14,0-0.36-0.01-0.65-0.02l-0.55-0.01c-0.47-0.08-0.83-0.25-1.06-0.52c-0.24-0.26-0.39-0.57-0.46-0.92
		c-0.07-0.35-0.1-0.78-0.1-1.27V7.04C15.47,6.75,15.46,6.53,15.45,6.4z M17.89,5.25c-0.54,0-0.94,0.14-1.18,0.42
		c-0.1,0.13-0.17,0.29-0.2,0.49c-0.03,0.2-0.04,0.45-0.03,0.76C16.48,7.04,16.48,7.2,16.5,7.4c0.01,0.2,0.02,0.36,0.02,0.47
		l0.02,0.5c0.02,0.32,0.11,0.55,0.27,0.68c0.16,0.13,0.35,0.22,0.59,0.27c0.16,0.02,0.32,0.04,0.49,0.04c0.31,0,0.58-0.06,0.82-0.17
		c0.23-0.11,0.38-0.3,0.44-0.55c0.03-0.21,0.05-0.37,0.05-0.49c0.04-0.56,0.06-0.94,0.06-1.14c0-0.53-0.1-0.95-0.29-1.27
		C18.78,5.42,18.42,5.25,17.89,5.25z"/>
	<path d="M24.45,10.29c-0.01-0.15-0.01-0.28-0.01-0.38s0-0.19-0.01-0.26c-0.02,0.01-0.08,0.05-0.19,0.13
		c-0.11,0.08-0.29,0.15-0.54,0.2c-0.46,0.17-0.92,0.25-1.36,0.25c-0.5,0-0.87-0.12-1.12-0.36C21.08,9.77,21,9.56,20.96,9.28
		C20.93,9,20.91,8.54,20.91,7.92V7.55c0-0.25,0.01-0.61,0.02-1.09c0.02-0.48,0.04-0.94,0.04-1.37c0-0.21-0.01-0.46-0.02-0.77
		c0.14-0.02,0.34-0.02,0.59-0.02h0.4c0.02,0.24,0.04,0.52,0.04,0.85l-0.01,0.97c0,0.32,0,0.55,0.01,0.7l0.01,0.34
		c0,0.29,0.01,0.62,0.04,1.01c0.02,0.26,0.07,0.46,0.16,0.6c0.09,0.14,0.23,0.23,0.41,0.28c0.16,0.02,0.31,0.04,0.44,0.04
		c0.47,0,0.83-0.13,1.09-0.38s0.38-0.6,0.39-1.04c0.01-0.29,0-0.81-0.04-1.57c-0.02-0.38-0.02-0.64-0.02-0.76
		c0-0.22,0.01-0.52,0.02-0.92V4.34c0.13-0.03,0.25-0.05,0.37-0.06c0.12-0.01,0.19-0.01,0.21-0.01c0.17,0,0.31,0,0.43-0.01l0.01,2.06
		c0.02,0.94,0.02,1.65,0.02,2.12c0,0.38-0.01,0.99-0.02,1.82c-0.18,0-0.37,0.01-0.59,0.04c-0.04,0-0.09,0-0.15,0.01
		c-0.06,0.01-0.12,0.01-0.19,0.01C24.49,10.33,24.45,10.32,24.45,10.29z"/>
	<path d="M27.46,4.33c0,0.1,0,0.17,0.01,0.22c0,0.05,0.01,0.11,0.01,0.19c0.06-0.03,0.13-0.07,0.23-0.11
		c0.1-0.04,0.21-0.08,0.33-0.12c0.18-0.06,0.41-0.11,0.67-0.14s0.49-0.04,0.7-0.04c0.19,0,0.29,0.01,0.29,0.02l-0.01,1
		c0,0.16,0,0.28,0.01,0.36c-0.12-0.05-0.26-0.09-0.41-0.13c-0.18-0.04-0.37-0.06-0.58-0.06c-0.22,0-0.46,0.03-0.73,0.1
		c-0.22,0.06-0.38,0.14-0.46,0.25c-0.08,0.11-0.12,0.32-0.11,0.64c0.03,1.1,0.05,2.34,0.05,3.73v0.05
		c-0.14,0.03-0.28,0.05-0.42,0.05c-0.06,0-0.15,0-0.27-0.01c-0.12,0-0.25,0-0.38,0.01l-0.01-2.06c-0.02-0.94-0.02-1.65-0.02-2.12
		c0-0.38,0.01-0.99,0.02-1.82c0.08,0.01,0.17,0.01,0.26,0.01c0.09,0,0.17-0.01,0.25-0.01c0.1-0.01,0.22-0.01,0.38-0.01
		C27.39,4.31,27.46,4.31,27.46,4.33z"/>
	<path d="M33.76,12.59v0.13c0,0.02-0.05,0.03-0.16,0.04c-0.1,0.01-0.22,0.02-0.35,0.02c-0.18,0-0.36-0.01-0.52-0.04v-0.79
		c0-0.75-0.02-1.86-0.05-3.31c-0.01-0.35-0.02-0.78-0.02-1.29c-0.01-0.51-0.01-1.08-0.01-1.72c0-0.59,0-1.03,0.01-1.32l0.78-0.01
		c0.16,0,0.28,0,0.35,0.01c0.01,0.01,0.01,0.04,0.02,0.1c0,0.06,0.01,0.12,0.01,0.19c0,0.03,0,0.07,0.01,0.11s0,0.1-0.01,0.17
		c0.01,0.04,0.02,0.06,0.04,0.05c0.02,0,0.05-0.03,0.08-0.09c0.14-0.18,0.34-0.32,0.59-0.4s0.5-0.12,0.76-0.12
		c0.13,0,0.22,0,0.26,0.01c0.55,0.04,0.97,0.21,1.27,0.52C37.1,5.15,37.3,5.54,37.39,6c0.1,0.46,0.15,1.04,0.17,1.72
		c0,0.61-0.08,1.14-0.23,1.58c-0.16,0.45-0.4,0.73-0.74,0.85c-0.2,0.08-0.44,0.13-0.72,0.16c-0.09,0.01-0.23,0.01-0.42,0.01
		c-0.4,0-0.77-0.03-1.12-0.1s-0.52-0.14-0.54-0.24l0.02,1.46c0,0.18-0.01,0.39-0.02,0.65L33.76,12.59z M34.85,9.4
		c0.38,0,0.66-0.02,0.86-0.05s0.36-0.12,0.5-0.25s0.25-0.35,0.34-0.64c0.06-0.31,0.1-0.6,0.1-0.88c0-0.64-0.11-1.19-0.34-1.66
		c-0.23-0.46-0.67-0.67-1.31-0.62c-0.38,0.03-0.67,0.14-0.85,0.32c-0.18,0.18-0.29,0.42-0.34,0.71c-0.05,0.3-0.07,0.71-0.07,1.25
		c0,0.57,0.02,0.97,0.07,1.22c0.05,0.24,0.15,0.41,0.29,0.49C34.25,9.35,34.5,9.4,34.85,9.4z"/>
	<path d="M38.55,1.57l1.09,0.04c0,0.33-0.01,1.14-0.02,2.44c-0.02,1.6-0.02,2.86-0.02,3.77c0,1.01,0.01,1.81,0.04,2.41
		c-0.05,0.06-0.18,0.08-0.4,0.08l-0.37-0.01c-0.07-0.01-0.16-0.01-0.26-0.01c-0.06,0-0.1,0-0.12,0.01c0.05-0.65,0.07-1.3,0.07-1.96
		c0-0.5-0.02-1.24-0.05-2.23c-0.03-0.99-0.05-1.74-0.05-2.24C38.45,3.02,38.48,2.25,38.55,1.57z"/>
	<path d="M44.53,4.27c0.18-0.01,0.42,0,0.71,0.02l0.31,0.02c0.02,0.13,0.02,0.22,0.02,0.29v0.12c-0.01,0.18-0.01,0.46-0.01,0.83
		c0,0.3,0.01,0.75,0.02,1.34l0.01,1.34c0,0.58-0.02,1.1-0.05,1.57c0,0.02,0,0.08,0,0.16c0,0.08-0.01,0.15-0.02,0.22
		c-0.02,0.06-0.06,0.1-0.13,0.12h-0.2l-0.38-0.01c-0.06,0-0.12,0-0.17,0.01c-0.05,0.01-0.09,0.01-0.13,0.01
		c-0.08-0.02-0.12-0.11-0.12-0.26c-0.01-0.06-0.01-0.14,0.01-0.22c0.01-0.08,0.02-0.15,0.02-0.2c-0.19,0.26-0.5,0.44-0.91,0.54
		c-0.42,0.1-0.82,0.14-1.22,0.14c-0.38,0-0.71-0.17-0.98-0.51c-0.27-0.34-0.47-0.76-0.59-1.25c-0.13-0.5-0.19-0.98-0.19-1.45
		c0-0.52,0.09-0.99,0.26-1.4c0.18-0.42,0.42-0.75,0.73-0.99s0.65-0.37,1.03-0.38l0.38-0.01c0.36,0,0.66,0.04,0.89,0.13
		c0.24,0.08,0.41,0.24,0.52,0.46c0-0.07,0.01-0.16,0.02-0.28c0.02-0.16,0.02-0.27,0.02-0.34C44.38,4.28,44.43,4.27,44.53,4.27z
		 M43.19,5.35c-0.42-0.01-0.77,0.1-1.05,0.32c-0.28,0.22-0.46,0.48-0.52,0.79c-0.06,0.23-0.1,0.54-0.1,0.94
		c0.04,1.29,0.56,1.9,1.56,1.85c0.41,0,0.7-0.07,0.89-0.22c0.18-0.14,0.3-0.35,0.34-0.61c0.04-0.26,0.07-0.66,0.07-1.19
		c0-0.58-0.02-0.98-0.07-1.22c-0.05-0.24-0.15-0.4-0.31-0.49S43.57,5.37,43.19,5.35z"/>
	<path d="M47.57,4.33c0.02,0.09,0.02,0.2,0.02,0.34v0.3c0.27-0.16,0.59-0.3,0.96-0.43s0.74-0.19,1.1-0.19
		c0.44,0.02,0.8,0.14,1.08,0.37c0.19,0.17,0.29,0.85,0.29,2.05c0,0.3-0.01,0.78-0.02,1.42c-0.02,0.61-0.02,1.05-0.02,1.32
		c0,0.35,0,0.6,0.01,0.76c-0.15,0.02-0.37,0.04-0.66,0.04h-0.4c-0.02-0.13-0.02-0.35-0.02-0.67V9.12l0.01-0.77
		c0.02-0.52,0.02-0.89,0.01-1.12c0-0.05-0.01-0.21-0.03-0.49C49.88,6.46,49.84,6.21,49.76,6c-0.02-0.28-0.22-0.41-0.59-0.38
		c-0.55,0.01-0.96,0.08-1.22,0.23s-0.41,0.4-0.44,0.78c-0.01,0.1-0.01,0.3-0.01,0.59c0,0.45,0.01,0.93,0.02,1.44
		c0.02,0.3,0.02,0.53,0.02,0.67c0,0.3-0.01,0.6-0.04,0.91v0.05c-0.15,0.03-0.3,0.05-0.45,0.04c-0.15,0-0.25-0.01-0.32-0.01
		c-0.13,0-0.23,0-0.3,0.01l-0.01-2.06c-0.02-0.94-0.02-1.65-0.02-2.12c0-0.38,0.01-0.99,0.02-1.82c0.1,0.01,0.21,0.01,0.34,0.01
		s0.23,0,0.31-0.01c0.05,0,0.1,0,0.17-0.01c0.06-0.01,0.13-0.01,0.19-0.01C47.53,4.29,47.57,4.31,47.57,4.33z"/>
	<path d="M53.88,2.07v1.84l0.01,0.67c0.52-0.02,1.16-0.04,1.93-0.08c0.05,0.06,0.07,0.18,0.07,0.36l-0.01,0.28
		c-0.02,0.18-0.02,0.3-0.01,0.38c-0.87,0-1.52,0-1.96-0.01v1.84v0.41c0,0.36,0.01,0.62,0.02,0.77s0.05,0.28,0.1,0.4
		c0.13,0.16,0.39,0.26,0.77,0.3c0.39,0.04,0.74,0.05,1.06,0.04c0.04,0.32,0.06,0.52,0.06,0.61c0,0.14-0.02,0.29-0.06,0.43
		c-0.17,0.01-0.43,0.01-0.79,0.01c-0.62,0-1.11-0.08-1.46-0.23c-0.35-0.15-0.58-0.46-0.67-0.91c-0.09-0.78-0.13-1.79-0.13-3.04V5.55
		c-0.05,0.01-0.17,0.01-0.36,0.01l-0.91-0.01l0.04-0.98c0.18,0.02,0.6,0.02,1.26,0.02l-0.01-1.26V2.77c0-0.34,0.01-0.57,0.02-0.71
		c0.11-0.01,0.28,0,0.52,0.01l0.32,0.01C53.78,2.09,53.84,2.08,53.88,2.07z"/>
	<path d="M60.61,5.82v4.44c-0.12-0.01-0.26,0-0.42,0.01l-0.29,0.01c-0.13,0-0.23-0.01-0.31-0.02c-0.03-0.19-0.05-0.89-0.05-2.09
		l0.01-1.45c0.01-0.24,0.01-0.54,0.01-0.9c-0.09,0.01-0.26,0.01-0.53,0.01c-0.07-0.01-0.18-0.01-0.31-0.01c-0.12,0-0.21,0-0.26,0.01
		L58.43,4.8c0.59,0,0.96,0,1.12,0.01l-0.01-0.48c0-0.6,0.09-1.1,0.28-1.51C60,2.41,60.37,2.17,60.9,2.1
		c0.44-0.04,0.91-0.06,1.42-0.06h0.47c0.05,0.15,0.07,0.31,0.07,0.48c0,0.09-0.02,0.29-0.06,0.61c-0.14-0.01-0.58,0-1.34,0.04
		c-0.26,0.02-0.43,0.04-0.53,0.07c-0.1,0.03-0.17,0.1-0.22,0.22c-0.05,0.12-0.07,0.33-0.07,0.64c0,0.1,0.01,0.36,0.02,0.76
		c0.47-0.01,1.18-0.01,2.11-0.01c-0.01,0.03-0.02,0.16-0.04,0.4c0,0.24-0.01,0.45-0.02,0.64l-1.38-0.04L60.61,5.82z"/>
	<path d="M64.37,4.33c0,0.1,0,0.17,0.01,0.22c0,0.05,0.01,0.11,0.01,0.19c0.06-0.03,0.13-0.07,0.23-0.11
		c0.1-0.04,0.21-0.08,0.33-0.12c0.18-0.06,0.41-0.11,0.67-0.14s0.49-0.04,0.7-0.04c0.19,0,0.29,0.01,0.29,0.02l-0.01,1
		c0,0.16,0,0.28,0.01,0.36c-0.12-0.05-0.26-0.09-0.41-0.13c-0.18-0.04-0.37-0.06-0.58-0.06c-0.22,0-0.46,0.03-0.73,0.1
		c-0.22,0.06-0.38,0.14-0.46,0.25c-0.08,0.11-0.12,0.32-0.11,0.64c0.03,1.1,0.05,2.34,0.05,3.73v0.05
		c-0.14,0.03-0.28,0.05-0.42,0.05c-0.06,0-0.15,0-0.27-0.01c-0.12,0-0.25,0-0.38,0.01l-0.01-2.06c-0.02-0.94-0.02-1.65-0.02-2.12
		c0-0.38,0.01-0.99,0.02-1.82c0.08,0.01,0.17,0.01,0.26,0.01c0.09,0,0.17-0.01,0.25-0.01c0.1-0.01,0.22-0.01,0.38-0.01
		C64.31,4.31,64.37,4.31,64.37,4.33z"/>
	<path d="M67.2,6.4c0-0.3,0.01-0.55,0.04-0.77s0.1-0.48,0.21-0.8c0.1-0.23,0.33-0.41,0.67-0.52c0.34-0.12,0.72-0.17,1.13-0.17
		c0.06,0.01,0.14,0.01,0.24,0.01l0.48-0.01c0.67,0,1.19,0.18,1.55,0.53c0.14,0.1,0.25,0.28,0.33,0.54c0.08,0.26,0.12,0.62,0.14,1.06
		c0.02,0.44,0.02,0.7,0.02,0.77c-0.03,0.8-0.07,1.44-0.11,1.91s-0.13,0.78-0.27,0.91c-0.15,0.22-0.36,0.36-0.63,0.44
		s-0.59,0.12-0.95,0.12c-0.14,0-0.36-0.01-0.65-0.02l-0.55-0.01c-0.47-0.08-0.83-0.25-1.06-0.52c-0.24-0.26-0.39-0.57-0.46-0.92
		c-0.07-0.35-0.1-0.78-0.1-1.27V7.04C67.23,6.75,67.22,6.53,67.2,6.4z M69.65,5.25c-0.54,0-0.94,0.14-1.18,0.42
		c-0.1,0.13-0.17,0.29-0.2,0.49c-0.03,0.2-0.04,0.45-0.03,0.76c-0.01,0.12-0.01,0.28,0.01,0.48c0.01,0.2,0.02,0.36,0.02,0.47
		l0.02,0.5c0.02,0.32,0.11,0.55,0.27,0.68c0.16,0.13,0.35,0.22,0.59,0.27c0.16,0.02,0.32,0.04,0.49,0.04c0.31,0,0.58-0.06,0.82-0.17
		c0.23-0.11,0.38-0.3,0.44-0.55c0.03-0.21,0.05-0.37,0.05-0.49c0.04-0.56,0.06-0.94,0.06-1.14c0-0.53-0.1-0.95-0.29-1.27
		C70.54,5.42,70.18,5.25,69.65,5.25z"/>
	<path d="M73.81,4.34c0.02,0.09,0.02,0.2,0.02,0.34v0.3c0.3-0.3,0.65-0.48,1.06-0.54c0.28-0.06,0.52-0.08,0.71-0.08
		c0.34,0,0.63,0.07,0.85,0.2c0.18,0.08,0.29,0.19,0.35,0.34c0.06-0.03,0.14-0.09,0.25-0.17c0.11-0.08,0.26-0.16,0.44-0.24
		c0.19-0.08,0.45-0.12,0.79-0.13c0.4-0.02,0.71,0,0.94,0.05c0.23,0.05,0.43,0.16,0.62,0.32c0.1,0.09,0.18,0.3,0.22,0.62
		s0.06,0.76,0.06,1.3c0,0.3-0.01,0.78-0.02,1.44c-0.02,0.64-0.02,1.1-0.02,1.37c0,0.22,0.01,0.5,0.02,0.82
		c-0.29,0.05-0.63,0.06-1.02,0.05c-0.02-0.22-0.02-0.61-0.02-1.19c0.02-0.62,0.02-1.1,0.02-1.44v-0.5
		c-0.01-0.06-0.02-0.18-0.02-0.35S79.02,6.49,79,6.29c-0.02-0.2-0.07-0.35-0.14-0.46c-0.05-0.16-0.2-0.25-0.47-0.28
		c-0.08-0.02-0.2-0.02-0.35-0.02c-0.23,0-0.43,0.04-0.6,0.11S77.15,5.84,77.08,6c-0.02,0.18-0.02,0.32-0.02,0.42l0.01,0.34V7.2
		c0,0.27-0.01,0.69-0.02,1.25l-0.01,1.2c0,0.3,0,0.51,0.01,0.64c-0.17,0.02-0.4,0.04-0.68,0.04h-0.37
		c-0.02-0.16-0.02-0.44-0.02-0.85V8.83l0.01-0.89c0-0.55-0.02-1.04-0.05-1.46c0-0.34-0.06-0.57-0.17-0.69S75.44,5.6,75.13,5.6
		c-0.85,0-1.3,0.48-1.37,1.43c-0.01,0.12-0.01,0.3-0.01,0.53c0,0.26,0.01,0.62,0.02,1.08l0.01,0.59c0,0.33-0.01,0.67-0.04,1.02v0.05
		c-0.12,0.02-0.23,0.04-0.34,0.04l-0.4-0.01c-0.12,0-0.22,0-0.29,0.01l-0.01-2.06c-0.02-0.94-0.02-1.65-0.02-2.12
		c0-0.38,0.01-0.99,0.02-1.82c0.21,0.02,0.33,0.02,0.37,0.02l0.26-0.01c0.04,0,0.09,0,0.16-0.01c0.06-0.01,0.13-0.01,0.19-0.01
		C73.78,4.31,73.81,4.32,73.81,4.34z"/>
	<path d="M87.15,4.27c0.18-0.01,0.42,0,0.71,0.02l0.31,0.02c0.02,0.13,0.02,0.22,0.02,0.29v0.12c-0.01,0.18-0.01,0.46-0.01,0.83
		c0,0.3,0.01,0.75,0.02,1.34l0.01,1.34c0,0.58-0.02,1.1-0.05,1.57c0,0.02,0,0.08,0,0.16c0,0.08-0.01,0.15-0.02,0.22
		c-0.02,0.06-0.06,0.1-0.13,0.12h-0.2l-0.38-0.01c-0.06,0-0.12,0-0.17,0.01c-0.05,0.01-0.09,0.01-0.13,0.01
		C87.04,10.29,87,10.21,87,10.05C86.99,9.99,87,9.92,87.01,9.84c0.01-0.08,0.02-0.15,0.02-0.2c-0.19,0.26-0.5,0.44-0.91,0.54
		c-0.42,0.1-0.82,0.14-1.22,0.14c-0.38,0-0.71-0.17-0.98-0.51c-0.27-0.34-0.47-0.76-0.59-1.25c-0.13-0.5-0.19-0.98-0.19-1.45
		c0-0.52,0.09-0.99,0.26-1.4c0.18-0.42,0.42-0.75,0.73-0.99s0.65-0.37,1.03-0.38l0.38-0.01c0.36,0,0.66,0.04,0.89,0.13
		c0.24,0.08,0.41,0.24,0.52,0.46c0-0.07,0.01-0.16,0.02-0.28c0.02-0.16,0.02-0.27,0.02-0.34C86.99,4.28,87.04,4.27,87.15,4.27z
		 M85.8,5.35c-0.42-0.01-0.77,0.1-1.05,0.32c-0.28,0.22-0.46,0.48-0.52,0.79c-0.06,0.23-0.1,0.54-0.1,0.94
		c0.04,1.29,0.56,1.9,1.56,1.85c0.41,0,0.7-0.07,0.89-0.22c0.18-0.14,0.3-0.35,0.34-0.61c0.04-0.26,0.07-0.66,0.07-1.19
		c0-0.58-0.02-0.98-0.07-1.22c-0.05-0.24-0.15-0.4-0.31-0.49S86.19,5.37,85.8,5.35z"/>
	<path d="M94.12,0.02v2.29l0.01,0.84c0.65-0.02,1.46-0.05,2.42-0.1c0.06,0.08,0.09,0.23,0.09,0.45l-0.01,0.34
		c-0.02,0.22-0.03,0.38-0.02,0.48c-1.09,0-1.9,0-2.44-0.01V6.6v0.51c0,0.45,0.01,0.77,0.03,0.96c0.02,0.19,0.06,0.36,0.12,0.5
		c0.16,0.2,0.48,0.33,0.97,0.38c0.48,0.05,0.93,0.07,1.33,0.04c0.05,0.4,0.08,0.66,0.08,0.77c0,0.18-0.03,0.36-0.08,0.54
		c-0.21,0.01-0.54,0.02-0.99,0.02c-0.78,0-1.39-0.1-1.83-0.29c-0.44-0.19-0.72-0.57-0.84-1.14c-0.11-0.97-0.17-2.23-0.17-3.79V4.37
		c-0.06,0.01-0.21,0.01-0.45,0.01l-1.14-0.01l0.04-1.23c0.22,0.02,0.75,0.03,1.58,0.03L92.8,1.59v-0.7c0-0.42,0.01-0.71,0.03-0.89
		c0.14-0.01,0.35,0,0.64,0.02l0.41,0.02C93.99,0.04,94.07,0.03,94.12,0.02z"/>
	<path d="M98.72,2.84c0,0.12,0,0.21,0.01,0.28c0,0.07,0.01,0.14,0.01,0.23c0.07-0.04,0.17-0.08,0.29-0.14
		c0.12-0.05,0.26-0.1,0.41-0.15c0.23-0.08,0.51-0.14,0.83-0.17c0.33-0.04,0.62-0.05,0.88-0.05c0.24,0,0.36,0.01,0.36,0.03
		l-0.02,1.24c0,0.2,0,0.35,0.02,0.45c-0.15-0.06-0.32-0.11-0.51-0.17c-0.22-0.05-0.46-0.08-0.72-0.08c-0.27,0-0.58,0.04-0.92,0.12
		c-0.28,0.07-0.47,0.18-0.57,0.31c-0.1,0.14-0.15,0.41-0.14,0.79c0.04,1.37,0.06,2.93,0.06,4.67v0.06
		c-0.17,0.04-0.35,0.06-0.53,0.06c-0.07,0-0.18,0-0.34-0.01c-0.16-0.01-0.31,0-0.47,0.01l-0.02-2.58c-0.02-1.18-0.03-2.06-0.03-2.65
		c0-0.48,0.01-1.24,0.03-2.28c0.1,0.01,0.21,0.01,0.32,0.01c0.11,0,0.22-0.01,0.31-0.01c0.12-0.01,0.28-0.01,0.48-0.01
		C98.64,2.81,98.72,2.82,98.72,2.84z"/>
	<path d="M103.55,6.5v0.27l-0.02,0.44c0,1.24,0.61,1.86,1.83,1.86c0.49,0,0.85-0.11,1.09-0.34c0.23-0.23,0.35-0.53,0.35-0.92
		c0-0.06-0.01-0.17-0.03-0.33c0.21-0.03,0.41-0.05,0.58-0.05c0.16,0,0.28,0.01,0.36,0.02c0.06,0,0.13,0,0.22,0.01
		c0.08,0,0.18,0,0.29-0.01c0.01,0.57-0.01,1.03-0.06,1.37c-0.05,0.34-0.17,0.67-0.36,0.98c-0.18,0.27-0.49,0.46-0.94,0.58
		c-0.45,0.11-0.93,0.17-1.46,0.17c-0.24,0-0.46-0.01-0.67-0.03c-0.21-0.02-0.33-0.04-0.38-0.06c-0.78-0.13-1.34-0.62-1.7-1.48
		c-0.35-0.85-0.5-1.83-0.45-2.93c0.01-0.08,0.02-0.25,0.04-0.5c0.02-0.25,0.05-0.52,0.08-0.79s0.1-0.54,0.2-0.8
		c0.19-0.44,0.54-0.78,1.04-1.02c0.5-0.24,1.06-0.36,1.67-0.36c0.32,0,0.66,0.04,1,0.12c1.36,0.23,2.04,1.25,2.04,3.08
		c0,0.15-0.01,0.36-0.03,0.65c-0.19,0.06-0.75,0.11-1.68,0.15c-0.11,0.01-0.35,0.01-0.72,0.01c-0.79,0-1.38-0.01-1.75-0.03
		C103.86,6.54,103.67,6.53,103.55,6.5z M107.2,5.37c-0.01-0.31-0.09-0.62-0.23-0.92c-0.15-0.3-0.35-0.53-0.62-0.71
		c-0.15-0.07-0.28-0.11-0.39-0.13s-0.25-0.03-0.42-0.03c-0.65,0-1.11,0.14-1.39,0.41c-0.27,0.27-0.45,0.65-0.52,1.15
		c-0.02,0.12-0.03,0.2-0.03,0.24c0,0.12,0.06,0.2,0.17,0.24s0.36,0.06,0.74,0.06c0.37,0,0.68,0,0.94-0.02c0.96,0,1.5,0,1.62-0.01
		c0.05-0.01,0.08-0.02,0.1-0.04c0.01-0.02,0.02-0.04,0.02-0.08V5.37z"/>
	<path d="M110.21,6.5v0.27l-0.02,0.44c0,1.24,0.61,1.86,1.83,1.86c0.49,0,0.85-0.11,1.09-0.34c0.23-0.23,0.35-0.53,0.35-0.92
		c0-0.06-0.01-0.17-0.03-0.33c0.21-0.03,0.41-0.05,0.58-0.05c0.16,0,0.28,0.01,0.36,0.02c0.06,0,0.13,0,0.22,0.01
		c0.08,0,0.18,0,0.29-0.01c0.01,0.57-0.01,1.03-0.06,1.37c-0.05,0.34-0.17,0.67-0.36,0.98c-0.18,0.27-0.49,0.46-0.94,0.58
		c-0.45,0.11-0.93,0.17-1.46,0.17c-0.24,0-0.46-0.01-0.67-0.03c-0.21-0.02-0.33-0.04-0.38-0.06c-0.78-0.13-1.34-0.62-1.7-1.48
		c-0.35-0.85-0.5-1.83-0.45-2.93c0.01-0.08,0.02-0.25,0.04-0.5c0.02-0.25,0.05-0.52,0.08-0.79s0.1-0.54,0.2-0.8
		c0.19-0.44,0.54-0.78,1.04-1.02c0.5-0.24,1.06-0.36,1.67-0.36c0.32,0,0.66,0.04,1,0.12c1.36,0.23,2.04,1.25,2.04,3.08
		c0,0.15-0.01,0.36-0.03,0.65c-0.19,0.06-0.75,0.11-1.68,0.15c-0.11,0.01-0.35,0.01-0.72,0.01c-0.79,0-1.38-0.01-1.75-0.03
		C110.52,6.54,110.33,6.53,110.21,6.5z M113.86,5.37c-0.01-0.31-0.09-0.62-0.23-0.92c-0.15-0.3-0.35-0.53-0.62-0.71
		c-0.15-0.07-0.28-0.11-0.39-0.13s-0.25-0.03-0.42-0.03c-0.65,0-1.11,0.14-1.39,0.41c-0.27,0.27-0.45,0.65-0.52,1.15
		c-0.02,0.12-0.03,0.2-0.03,0.24c0,0.12,0.06,0.2,0.17,0.24s0.36,0.06,0.74,0.06c0.37,0,0.68,0,0.94-0.02c0.96,0,1.5,0,1.62-0.01
		c0.05-0.01,0.08-0.02,0.1-0.04c0.01-0.02,0.02-0.04,0.02-0.08V5.37z"/>
	<path d="M117.91,6.4c0-0.3,0.01-0.55,0.04-0.77s0.1-0.48,0.21-0.8c0.1-0.23,0.33-0.41,0.67-0.52c0.34-0.12,0.72-0.17,1.13-0.17
		c0.06,0.01,0.14,0.01,0.24,0.01l0.48-0.01c0.67,0,1.19,0.18,1.55,0.53c0.14,0.1,0.25,0.28,0.33,0.54c0.08,0.26,0.12,0.62,0.14,1.06
		c0.02,0.44,0.02,0.7,0.02,0.77c-0.03,0.8-0.07,1.44-0.11,1.91s-0.13,0.78-0.27,0.91c-0.15,0.22-0.36,0.36-0.63,0.44
		s-0.59,0.12-0.95,0.12c-0.14,0-0.36-0.01-0.65-0.02l-0.55-0.01c-0.47-0.08-0.83-0.25-1.06-0.52c-0.24-0.26-0.39-0.57-0.46-0.92
		c-0.07-0.35-0.1-0.78-0.1-1.27V7.04C117.93,6.75,117.92,6.53,117.91,6.4z M120.36,5.25c-0.54,0-0.94,0.14-1.18,0.42
		c-0.1,0.13-0.17,0.29-0.2,0.49c-0.03,0.2-0.04,0.45-0.03,0.76c-0.01,0.12-0.01,0.28,0.01,0.48c0.01,0.2,0.02,0.36,0.02,0.47
		l0.02,0.5c0.02,0.32,0.11,0.55,0.27,0.68c0.16,0.13,0.35,0.22,0.59,0.27c0.16,0.02,0.32,0.04,0.49,0.04c0.31,0,0.58-0.06,0.82-0.17
		c0.23-0.11,0.38-0.3,0.44-0.55c0.03-0.21,0.05-0.37,0.05-0.49c0.04-0.56,0.06-0.94,0.06-1.14c0-0.53-0.1-0.95-0.29-1.27
		C121.25,5.42,120.88,5.25,120.36,5.25z"/>
	<path d="M124.52,4.33c0,0.1,0,0.17,0.01,0.22c0,0.05,0.01,0.11,0.01,0.19c0.06-0.03,0.13-0.07,0.23-0.11
		c0.1-0.04,0.21-0.08,0.33-0.12c0.18-0.06,0.41-0.11,0.67-0.14s0.49-0.04,0.7-0.04c0.19,0,0.29,0.01,0.29,0.02l-0.01,1
		c0,0.16,0,0.28,0.01,0.36c-0.12-0.05-0.26-0.09-0.41-0.13c-0.18-0.04-0.37-0.06-0.58-0.06c-0.22,0-0.46,0.03-0.73,0.1
		c-0.22,0.06-0.38,0.14-0.46,0.25c-0.08,0.11-0.12,0.32-0.11,0.64c0.03,1.1,0.05,2.34,0.05,3.73v0.05
		c-0.14,0.03-0.28,0.05-0.42,0.05c-0.06,0-0.15,0-0.27-0.01c-0.12,0-0.25,0-0.38,0.01l-0.01-2.06c-0.02-0.94-0.02-1.65-0.02-2.12
		c0-0.38,0.01-0.99,0.02-1.82c0.08,0.01,0.17,0.01,0.26,0.01c0.09,0,0.17-0.01,0.25-0.01c0.1-0.01,0.22-0.01,0.38-0.01
		C124.46,4.31,124.52,4.31,124.52,4.33z"/>
	<path d="M135.39,5.11c0,0.05-0.16,0.07-0.49,0.07c-0.24,0-0.42,0-0.53-0.01c-0.07,0-0.15,0-0.22-0.01c-0.08,0-0.14,0-0.18,0.01
		c0-0.01,0-0.17,0-0.48c0-0.31-0.27-0.5-0.81-0.57c-0.12-0.02-0.3-0.03-0.55-0.03c-0.26,0-0.5,0.02-0.71,0.06
		c-0.21,0.04-0.37,0.09-0.47,0.15c-0.12,0.09-0.21,0.23-0.28,0.41s-0.1,0.35-0.1,0.52c0,0.13,0.02,0.22,0.06,0.27
		c0.1,0.21,0.24,0.36,0.41,0.45c0.09,0.07,0.32,0.15,0.69,0.24c0.36,0.09,0.68,0.15,0.94,0.15c0.38,0.01,0.72,0.07,1.01,0.17
		c0.29,0.11,0.53,0.25,0.69,0.44c0.17,0.21,0.29,0.41,0.37,0.61c0.08,0.2,0.12,0.42,0.12,0.65c0,0.29-0.07,0.64-0.21,1.05
		c-0.21,0.44-0.53,0.76-0.98,0.97c-0.45,0.21-0.96,0.3-1.53,0.29c-0.62,0.02-1.18-0.06-1.65-0.25c-0.48-0.18-0.84-0.46-1.11-0.82
		c-0.26-0.36-0.39-0.79-0.39-1.29V8.1c0.17-0.02,0.42-0.03,0.74-0.03c0.36,0,0.56,0.01,0.59,0.04c0.02,0.02,0.06,0.12,0.12,0.31
		c0.06,0.19,0.17,0.39,0.33,0.58c0.16,0.2,0.43,0.31,0.81,0.34c0.3,0.02,0.48,0.03,0.53,0.03c0.15,0,0.27-0.01,0.37-0.04
		c0.1-0.03,0.23-0.08,0.38-0.15c0.48-0.21,0.71-0.53,0.7-0.94c0.01-0.27-0.06-0.48-0.22-0.63c-0.15-0.15-0.35-0.25-0.58-0.3
		s-0.55-0.1-0.95-0.15c-0.29-0.03-0.52-0.06-0.7-0.08c-0.18-0.03-0.34-0.07-0.48-0.14c-0.49-0.16-0.86-0.41-1.11-0.75
		c-0.26-0.34-0.39-0.71-0.39-1.11c0-0.44,0.13-0.84,0.39-1.2c0.26-0.36,0.61-0.6,1.06-0.71c0.38-0.1,0.87-0.15,1.47-0.15
		c0.14,0,0.35,0.01,0.63,0.03c0.4,0.03,0.78,0.1,1.12,0.21c0.33,0.14,0.59,0.38,0.8,0.72C135.28,4.31,135.39,4.69,135.39,5.11z"/>
	<path d="M137.37,2.79v1.25c0.25-0.21,0.47-0.38,0.67-0.48c0.19-0.11,0.47-0.17,0.85-0.2c0.22-0.03,0.43-0.04,0.63-0.04
		c0.68,0,1.21,0.16,1.6,0.49c0.12,0.1,0.21,0.35,0.25,0.73c0.05,0.38,0.07,0.89,0.07,1.51c0,0.35-0.01,0.91-0.03,1.68
		c-0.02,0.75-0.03,1.28-0.03,1.6c0,0.26,0.01,0.58,0.03,0.95c-0.37,0.06-0.77,0.07-1.2,0.06c-0.02-0.28-0.03-0.52-0.03-0.73V8.75
		V6.01c-0.02-0.6-0.16-0.98-0.42-1.16c-0.06-0.04-0.17-0.07-0.34-0.11c-0.2-0.06-0.4-0.08-0.6-0.08c-0.36,0-0.67,0.09-0.93,0.27
		c-0.26,0.18-0.42,0.46-0.5,0.85c-0.07,0.35-0.1,0.78-0.1,1.27l0.01,0.48c0.02,0.62,0.03,1.12,0.03,1.53c0,0.5-0.01,0.89-0.03,1.16
		v0.06c-0.19,0.05-0.34,0.07-0.45,0.07l-0.42-0.01c-0.13,0-0.24,0-0.32,0.01c0-1.07,0-1.96-0.01-2.66l-0.01-4.28
		c0-1.05,0.01-2.12,0.03-3.22c0.29,0.03,0.52,0.04,0.7,0.03c0.05,0,0.1,0,0.17-0.01s0.14-0.01,0.22-0.01c0.09,0,0.14,0.01,0.14,0.04
		c0.02,0.08,0.03,0.65,0.03,1.71V2.79z"/>
	<path d="M143.66,3.34c0,0.11,0,0.2,0.01,0.26c0,0.06,0.01,0.13,0.01,0.22c0.07-0.04,0.16-0.08,0.27-0.13
		c0.12-0.05,0.24-0.09,0.38-0.14c0.21-0.07,0.47-0.13,0.78-0.16c0.3-0.03,0.58-0.05,0.82-0.05c0.22,0,0.34,0.01,0.34,0.03
		l-0.01,1.16c0,0.19,0,0.33,0.01,0.42c-0.14-0.06-0.3-0.11-0.48-0.15c-0.21-0.05-0.43-0.07-0.67-0.07c-0.25,0-0.54,0.04-0.85,0.11
		C144,4.9,143.82,5,143.73,5.13c-0.09,0.13-0.13,0.38-0.13,0.74c0.04,1.28,0.06,2.73,0.06,4.35v0.06c-0.16,0.04-0.32,0.06-0.49,0.06
		c-0.07,0-0.17,0-0.32-0.01c-0.14,0-0.29,0-0.44,0.01l-0.01-2.41c-0.02-1.1-0.03-1.93-0.03-2.48c0-0.45,0.01-1.16,0.03-2.13
		c0.09,0.01,0.19,0.01,0.3,0.01c0.11,0,0.2-0.01,0.29-0.01c0.11-0.01,0.26-0.01,0.45-0.01C143.58,3.31,143.66,3.32,143.66,3.34z"/>
	<path d="M151.19,10.29c-0.01-0.18-0.01-0.32-0.01-0.44s0-0.22-0.01-0.3c-0.02,0.01-0.09,0.06-0.22,0.15
		c-0.13,0.09-0.34,0.17-0.63,0.24c-0.54,0.2-1.07,0.29-1.58,0.29c-0.58,0-1.01-0.14-1.3-0.42c-0.16-0.14-0.26-0.38-0.29-0.71
		c-0.04-0.33-0.06-0.86-0.07-1.59V7.09c0-0.29,0.01-0.71,0.03-1.27c0.03-0.56,0.04-1.09,0.04-1.6c0-0.24-0.01-0.54-0.03-0.9
		c0.17-0.02,0.4-0.03,0.69-0.03h0.46c0.03,0.28,0.04,0.61,0.04,0.99l-0.01,1.13c0,0.37,0,0.64,0.01,0.81l0.01,0.39
		c0,0.34,0.01,0.73,0.04,1.18c0.02,0.31,0.08,0.54,0.19,0.7s0.27,0.27,0.48,0.32c0.19,0.03,0.36,0.04,0.52,0.04
		c0.55,0,0.97-0.15,1.27-0.45s0.45-0.7,0.46-1.22c0.01-0.34,0-0.95-0.04-1.83c-0.02-0.45-0.03-0.74-0.03-0.88
		c0-0.25,0.01-0.61,0.03-1.08V3.35c0.15-0.04,0.29-0.06,0.43-0.07c0.14-0.01,0.22-0.01,0.25-0.01c0.2,0,0.36,0,0.5-0.01l0.01,2.41
		c0.02,1.1,0.03,1.93,0.03,2.48c0,0.45-0.01,1.16-0.03,2.13c-0.21,0-0.43,0.01-0.69,0.04c-0.05,0-0.1,0-0.17,0.01
		s-0.14,0.01-0.22,0.01C151.24,10.34,151.19,10.32,151.19,10.29z"/>
	<path d="M154.75,0.56c0,0.08,0,0.15,0.01,0.2s0.01,0.09,0.01,0.12c0.01,0.07,0.01,0.19,0.01,0.38l0.03,0.71L154.79,4
		c0.01-0.07,0.07-0.16,0.19-0.27c0.12-0.12,0.27-0.22,0.47-0.31c0.2-0.09,0.42-0.14,0.66-0.15c0.82-0.03,1.45,0.04,1.89,0.2
		c0.39,0.14,0.68,0.47,0.86,0.99c0.18,0.52,0.27,1.14,0.27,1.85c-0.03,0.81-0.09,1.48-0.2,2s-0.32,0.96-0.66,1.33
		s-0.83,0.58-1.5,0.62c-0.15,0.02-0.27,0.03-0.36,0.03c-0.21,0-0.42-0.03-0.6-0.1c-0.15-0.05-0.3-0.14-0.45-0.28
		c-0.3-0.17-0.5-0.38-0.62-0.64c0.02,0.13,0.03,0.29,0.03,0.49l-0.01,0.45c0,0.06,0,0.09-0.01,0.1c-0.06,0.01-0.15,0.01-0.29,0.01
		c-0.21,0-0.36,0-0.48-0.01l-0.56-0.01c-0.01-0.34-0.01-0.85-0.01-1.54c0-0.75,0-1.42,0.01-2.01c0.01-0.59,0.02-1.09,0.03-1.5
		c0.04-1.7,0.06-2.99,0.06-3.86V0.44c0.16-0.03,0.34-0.04,0.55-0.04c0.17,0,0.32,0.01,0.45,0.02c0.13,0.01,0.21,0.03,0.25,0.04V0.56
		z M158,6.88c0-0.31-0.02-0.54-0.06-0.7c-0.04-0.38-0.09-0.69-0.17-0.92c-0.07-0.23-0.24-0.42-0.5-0.59
		c-0.26-0.16-0.66-0.25-1.19-0.25c-0.52,0-0.88,0.18-1.06,0.55c-0.18,0.37-0.27,0.94-0.27,1.73c0,0.66,0.12,1.23,0.36,1.7
		c0.24,0.47,0.62,0.71,1.14,0.71c0.58,0,1.01-0.19,1.31-0.57S158,7.62,158,6.88z"/>
	<path d="M161.63,7.87l0.02-0.38c0.06-0.34,0.14-0.63,0.26-0.89c0.12-0.26,0.31-0.55,0.56-0.87c0.24-0.28,0.43-0.53,0.57-0.76
		c0.14-0.22,0.23-0.46,0.28-0.7c0.02-0.1,0.02-0.17,0.02-0.22c0-0.33-0.13-0.59-0.38-0.79c-0.26-0.2-0.6-0.28-1.03-0.25
		c-0.34-0.01-0.59,0.08-0.75,0.27s-0.31,0.45-0.44,0.79c-0.05,0.13-0.08,0.22-0.11,0.26l-0.24,0.01c-0.11,0-0.28-0.01-0.5-0.02
		l-0.29-0.01V4.31c0.02-0.41,0.14-0.8,0.34-1.18s0.48-0.69,0.83-0.93c0.35-0.24,0.75-0.37,1.19-0.39c0.06-0.01,0.14-0.01,0.24-0.01
		c0.43,0,0.83,0.09,1.19,0.28c0.36,0.18,0.65,0.44,0.86,0.76c0.22,0.32,0.32,0.68,0.32,1.08c0,0.39-0.07,0.72-0.22,0.98
		c-0.15,0.26-0.37,0.56-0.67,0.89c-0.19,0.21-0.33,0.37-0.41,0.48c-0.18,0.24-0.31,0.47-0.41,0.68c-0.1,0.22-0.16,0.46-0.2,0.73
		c-0.01,0.06-0.02,0.11-0.02,0.17s-0.01,0.12-0.01,0.19c0,0.05,0,0.08,0.01,0.1v0.01c-0.1,0.02-0.24,0.02-0.44,0.02
		c-0.06,0-0.14,0-0.23-0.01c-0.09,0-0.2,0-0.32,0.01h-0.01c-0.02-0.03-0.02-0.09-0.02-0.18V7.87z M162.53,10.29h-0.86h-0.04
		c-0.02-0.14-0.04-0.33-0.04-0.55l0.01-0.59c0.01-0.07,0.01-0.16,0.01-0.25c0.14-0.06,0.32-0.08,0.56-0.08
		c0.17,0,0.32,0.02,0.44,0.05c0,0.04-0.01,0.26-0.04,0.65s-0.04,0.64-0.04,0.76v0.02H162.53z"/>
</g>
</svg>
