<!-- Generator: Adobe Illustrator 23.1.1, SVG Export Plug-In  -->
<svg version="1.1" xmlns="http://www.w3.org/2000/svg" xmlns:xlink="http://www.w3.org/1999/xlink" x="0px" y="0px"
	 width="734.72px" height="289.19px" viewBox="0 0 734.72 289.19" style="enable-background:new 0 0 734.72 289.19;"
	 xml:space="preserve">
<style type="text/css">
	.st0{fill:#FFFFFF;}
	.st1{fill:none;stroke:#000000;stroke-width:3;stroke-miterlimit:10;}
</style>
<defs>
</defs>
<g>
	<path class="st0" d="M708.45,64.19H434.39l-33.81-29.26L365.35,4.45c-1.93-1.67-6.77-1.67-8.71,0l-35.23,30.49l-33.81,29.26H14.05
		C6.32,64.19,0,70.52,0,78.24v196.9c0,7.73,6.32,14.05,14.05,14.05h694.4c7.73,0,14.05-6.32,14.05-14.05V78.24
		C722.5,70.52,716.18,64.19,708.45,64.19z"/>
	<path class="st1" d="M719.17,62.5H445.11L411.3,33.24L376.07,2.76c-1.93-1.67-6.77-1.67-8.71,0l-35.23,30.49L298.32,62.5H24.77
		c-7.73,0-14.05,6.32-14.05,14.05v196.9c0,7.73,6.32,14.05,14.05,14.05h694.4c7.73,0,14.05-6.32,14.05-14.05V76.55
		C733.22,68.82,726.89,62.5,719.17,62.5z"/>
</g>
</svg>
