<!-- Generator: Adobe Illustrator 23.1.1, SVG Export Plug-In  -->
<svg version="1.1" xmlns="http://www.w3.org/2000/svg" xmlns:xlink="http://www.w3.org/1999/xlink" x="0px" y="0px"
	 width="229.55px" height="92.96px" viewBox="0 0 229.55 92.96" style="enable-background:new 0 0 229.55 92.96;"
	 xml:space="preserve">
<defs>
</defs>
<g>
	<path d="M16.93,1.17v0.04c-0.75,2.42-1.64,4.83-2.67,7.23c-1.03,2.41-2.29,5.21-3.8,8.4c-1.25,2.68-2.24,4.82-2.96,6.42
		c-0.73,1.6-1.4,3.24-2.03,4.93c-0.08-0.03-0.22-0.04-0.43-0.04c-0.23,0-0.43,0.01-0.58,0.04c-0.44,0-0.78,0.01-1.01,0.04
		c-0.16,0-0.35,0.01-0.58,0.02c-0.23,0.01-0.48,0.01-0.74-0.02H1.64H1.56c0.86-2.31,2.38-6.2,4.56-11.66l0.35-0.9
		c-0.34-0.83-0.86-1.87-1.56-3.12c-0.23-0.6-0.55-1.31-0.96-2.15c-0.4-0.83-0.68-1.39-0.84-1.68c-0.81-1.61-1.46-3-1.95-4.17
		C0.68,3.39,0.29,2.28,0,1.21c0.34,0,0.82-0.03,1.44-0.08c0.36-0.05,0.64-0.08,0.82-0.08c0.49,0,0.9,0.07,1.21,0.19
		c0.75,1.98,1.61,3.97,2.57,5.97c0.96,2,1.86,3.68,2.69,5.03c1.07-2.24,2.29-5.17,3.67-8.81l0.82-2.15c0.6-0.1,1.39-0.16,2.38-0.16
		C15.96,1.1,16.41,1.12,16.93,1.17z"/>
	<path d="M14.78,15.52c0-0.96,0.05-1.79,0.14-2.5c0.09-0.7,0.32-1.57,0.68-2.61c0.34-0.75,1.06-1.32,2.17-1.7
		c1.1-0.38,2.33-0.57,3.69-0.57c0.18,0.03,0.44,0.04,0.78,0.04l1.56-0.04c2.18,0,3.86,0.57,5.03,1.72c0.47,0.31,0.83,0.9,1.07,1.75
		c0.25,0.86,0.4,2.01,0.45,3.45c0.05,1.44,0.08,2.28,0.08,2.52c-0.1,2.6-0.23,4.67-0.37,6.2c-0.14,1.53-0.44,2.52-0.88,2.96
		c-0.49,0.7-1.18,1.18-2.05,1.44s-1.9,0.39-3.1,0.39c-0.47,0-1.17-0.03-2.11-0.08l-1.79-0.04c-1.54-0.26-2.69-0.82-3.45-1.68
		c-0.77-0.86-1.26-1.86-1.48-3c-0.22-1.14-0.33-2.52-0.33-4.13v-2.03C14.86,16.67,14.83,15.96,14.78,15.52z M22.74,11.82
		c-1.77,0-3.04,0.46-3.82,1.36c-0.34,0.42-0.55,0.94-0.64,1.58c-0.09,0.64-0.12,1.46-0.1,2.48c-0.03,0.39-0.02,0.91,0.02,1.56
		s0.06,1.16,0.06,1.52l0.08,1.64c0.08,1.04,0.37,1.77,0.88,2.2c0.51,0.43,1.15,0.72,1.93,0.88c0.52,0.08,1.05,0.12,1.6,0.12
		c1.01,0,1.9-0.18,2.65-0.55c0.75-0.36,1.23-0.96,1.44-1.79c0.1-0.68,0.16-1.21,0.16-1.6c0.13-1.82,0.2-3.05,0.2-3.71
		c0-1.72-0.31-3.09-0.94-4.13C25.62,12.34,24.45,11.82,22.74,11.82z"/>
	<path d="M44.03,28.2c-0.03-0.49-0.04-0.9-0.04-1.23c0-0.32-0.01-0.6-0.04-0.84c-0.05,0.03-0.26,0.17-0.62,0.43
		c-0.36,0.26-0.95,0.48-1.75,0.66c-1.51,0.55-2.98,0.82-4.41,0.82c-1.61,0-2.82-0.39-3.63-1.17c-0.44-0.39-0.71-1.05-0.82-1.97
		c-0.1-0.92-0.17-2.4-0.2-4.43v-1.21c0-0.81,0.03-1.99,0.08-3.55c0.08-1.56,0.12-3.04,0.12-4.45c0-0.68-0.03-1.51-0.08-2.5
		c0.47-0.05,1.1-0.08,1.91-0.08h1.29c0.08,0.78,0.12,1.7,0.12,2.77l-0.04,3.16c0,1.04,0.01,1.79,0.04,2.26L36,17.98
		c0,0.94,0.04,2.03,0.12,3.28c0.05,0.86,0.23,1.51,0.53,1.95c0.3,0.44,0.75,0.74,1.35,0.9c0.52,0.08,1,0.12,1.44,0.12
		c1.53,0,2.71-0.42,3.53-1.25c0.82-0.83,1.24-1.96,1.27-3.39c0.03-0.94-0.01-2.64-0.12-5.11c-0.05-1.25-0.08-2.07-0.08-2.46
		c0-0.7,0.03-1.7,0.08-3V8.85c0.42-0.1,0.81-0.17,1.19-0.19c0.38-0.03,0.6-0.04,0.68-0.04c0.55,0,1.01-0.01,1.4-0.04l0.04,6.71
		c0.05,3.07,0.08,5.37,0.08,6.9c0,1.25-0.03,3.22-0.08,5.93c-0.57,0-1.21,0.04-1.91,0.12c-0.13,0-0.29,0.01-0.49,0.04
		c-0.2,0.03-0.4,0.04-0.61,0.04C44.16,28.31,44.03,28.27,44.03,28.2z"/>
	<path d="M61.62,8.85c0.05,0.29,0.08,0.65,0.08,1.09v0.98c0.96-0.96,2.11-1.55,3.43-1.76c0.91-0.18,1.68-0.27,2.3-0.27
		c1.12,0,2.04,0.22,2.77,0.66c0.57,0.26,0.95,0.62,1.13,1.09c0.18-0.1,0.45-0.29,0.8-0.57c0.35-0.27,0.83-0.53,1.44-0.78
		c0.61-0.25,1.46-0.38,2.55-0.41c1.3-0.05,2.32,0.01,3.06,0.18c0.74,0.17,1.41,0.51,2.01,1.03c0.34,0.29,0.57,0.96,0.7,2.03
		c0.13,1.07,0.19,2.47,0.19,4.21c0,0.99-0.03,2.55-0.08,4.68c-0.05,2.08-0.08,3.56-0.08,4.45c0,0.73,0.03,1.61,0.08,2.65
		c-0.94,0.16-2.04,0.21-3.31,0.16c-0.05-0.7-0.08-1.99-0.08-3.86c0.05-2.03,0.08-3.59,0.08-4.68V18.1
		c-0.03-0.21-0.05-0.58-0.08-1.13c-0.03-0.55-0.08-1.14-0.16-1.79s-0.23-1.14-0.47-1.48c-0.16-0.52-0.66-0.82-1.52-0.9
		c-0.26-0.05-0.64-0.08-1.13-0.08c-0.75,0-1.4,0.12-1.95,0.37c-0.55,0.25-0.94,0.63-1.17,1.15c-0.05,0.57-0.08,1.03-0.08,1.36
		l0.04,1.09v1.44c0,0.88-0.03,2.24-0.08,4.06l-0.04,3.9c0,0.96,0.01,1.65,0.04,2.07c-0.55,0.08-1.29,0.12-2.22,0.12h-1.21
		c-0.05-0.52-0.08-1.44-0.08-2.77v-2.07l0.04-2.89c0-1.79-0.05-3.38-0.16-4.76c0-1.09-0.18-1.84-0.55-2.24
		c-0.37-0.4-1.04-0.6-2.03-0.6c-2.76,0-4.24,1.55-4.45,4.64c-0.03,0.39-0.04,0.96-0.04,1.72c0,0.83,0.03,2,0.08,3.51l0.04,1.91
		c0,1.07-0.04,2.17-0.12,3.32v0.16c-0.39,0.08-0.75,0.12-1.09,0.12l-1.29-0.04c-0.39,0-0.7,0.01-0.94,0.04l-0.04-6.71
		c-0.05-3.07-0.08-5.37-0.08-6.9c0-1.25,0.03-3.22,0.08-5.93c0.68,0.05,1.08,0.08,1.21,0.08l0.86-0.04c0.13,0,0.3-0.01,0.51-0.04
		s0.42-0.04,0.62-0.04C61.5,8.74,61.62,8.77,61.62,8.85z"/>
	<path d="M85.8,8.5c0.18-0.03,0.55-0.03,1.09,0c0.78,0.05,1.64,0.08,2.57,0.08V8.7c0,1.17-0.03,2.98-0.08,5.42
		c-0.08,2.5-0.12,5.02-0.12,7.57c0,2.39,0.05,4.52,0.16,6.4c-0.36,0.08-0.91,0.12-1.64,0.12c-0.73,0-1.17,0-1.33,0
		c-0.47,0-0.75,0.01-0.86,0.04c0.03-0.75,0.04-1.9,0.04-3.43v-3.51v-3.28c-0.05-1.82-0.08-3.22-0.08-4.21
		c0-1.79,0.08-3.55,0.23-5.26V8.5z M85.64,0.12c1.61,0.05,2.83,0.08,3.67,0.08l0.12,5.15c-0.26,0.13-0.73,0.19-1.4,0.19
		c-0.42,0-0.73-0.01-0.94-0.04c-0.16,0-0.34-0.01-0.55-0.02c-0.21-0.01-0.46-0.01-0.74,0.02c0-0.39-0.03-1.03-0.08-1.91
		C85.64,1.87,85.62,0.72,85.64,0.12z"/>
	<path d="M107.75,33.27c-0.49,1.12-1.12,1.86-1.87,2.22c-0.75,0.36-1.62,0.58-2.61,0.66c-1.14,0.05-1.86,0.08-2.15,0.08
		c-0.49,0-1.13-0.03-1.91-0.08c-1.72-0.13-3.16-0.7-4.33-1.72c-1.17-1.01-1.75-2.29-1.75-3.82c0-0.34,0.01-0.6,0.04-0.78
		c0.13-0.05,0.48-0.1,1.05-0.14s1.12-0.06,1.64-0.06c0.44,0,0.69,0.03,0.74,0.08c0.03,0.05,0.04,0.25,0.04,0.58
		c0,0.68,0.16,1.27,0.47,1.79c0.31,0.52,0.97,0.86,1.99,1.01c0.52,0.03,1.2,0.04,2.03,0.04c1.09,0,1.89-0.06,2.4-0.18
		c0.51-0.12,0.83-0.33,0.98-0.62c0.14-0.3,0.19-0.75,0.14-1.35v-1.44v-1.29c0-0.13,0.01-0.27,0.02-0.43
		c0.01-0.16,0.03-0.38,0.06-0.66c-0.44,0.52-0.96,0.83-1.54,0.94s-1.67,0.16-3.26,0.16h-1.48c-2.6,0-4.29-0.82-5.07-2.46
		c-0.65-1.22-1.01-2.74-1.09-4.56c0-2.42,0.1-4.42,0.29-6.01c0.2-1.59,0.77-3.02,1.72-4.31c0.95-1.29,2.45-2,4.5-2.13
		c1.35-0.03,2.4,0.02,3.14,0.14c0.74,0.12,1.29,0.32,1.66,0.6c0.36,0.29,0.66,0.69,0.9,1.21c0.08-0.36,0.12-0.7,0.12-1.01
		c0-0.16-0.01-0.32-0.02-0.49c-0.01-0.17-0.01-0.33,0.02-0.49c0.68-0.05,1.18-0.08,1.52-0.08l2.03,0.04
		c0.1,3.02,0.16,6.55,0.16,10.61c0,4.03-0.06,7.54-0.19,10.53c0,0.26-0.01,0.61-0.02,1.05c-0.01,0.44-0.04,0.86-0.08,1.27
		C107.97,32.6,107.88,32.95,107.75,33.27z M95.31,18.91v0.47c-0.08,1.4,0.16,2.72,0.7,3.94c0.55,1.22,1.56,1.87,3.04,1.95
		c0.39,0.03,0.92,0.04,1.6,0.04c1.4,0,2.41-0.25,3.02-0.74c0.61-0.49,0.96-1.46,1.03-2.89c0-1.85-0.01-3.33-0.04-4.45
		c0-2.63-0.58-4.25-1.75-4.88c-0.55-0.31-1.3-0.47-2.26-0.47c-0.52,0-1.03,0.04-1.52,0.12c-1.46,0.26-2.46,0.99-3,2.2
		S95.31,16.99,95.31,18.91z"/>
	<path d="M114.54,7.29v3.47c0.7-0.6,1.32-1.05,1.85-1.35c0.53-0.3,1.32-0.49,2.36-0.57c0.62-0.08,1.21-0.12,1.75-0.12
		c1.9,0,3.38,0.46,4.45,1.36c0.34,0.29,0.57,0.96,0.7,2.03c0.13,1.07,0.19,2.47,0.19,4.21c0,0.99-0.03,2.55-0.08,4.68
		c-0.05,2.08-0.08,3.56-0.08,4.45c0,0.73,0.03,1.61,0.08,2.65c-1.04,0.16-2.16,0.21-3.35,0.16c-0.05-0.78-0.08-1.46-0.08-2.03v-2.34
		v-7.64c-0.05-1.66-0.44-2.74-1.17-3.24c-0.16-0.1-0.47-0.21-0.94-0.31c-0.55-0.16-1.11-0.23-1.68-0.23c-1.01,0-1.88,0.25-2.59,0.76
		c-0.72,0.51-1.18,1.29-1.38,2.36c-0.18,0.99-0.27,2.17-0.27,3.55l0.04,1.33c0.05,1.72,0.08,3.13,0.08,4.25
		c0,1.4-0.03,2.48-0.08,3.24v0.16c-0.52,0.13-0.94,0.2-1.25,0.2l-1.17-0.04c-0.36,0-0.66,0.01-0.9,0.04c0-2.99-0.01-5.46-0.04-7.41
		l-0.04-11.93c0-2.91,0.03-5.9,0.08-8.97c0.81,0.08,1.46,0.1,1.95,0.08c0.13,0,0.29-0.01,0.49-0.04c0.19-0.03,0.4-0.04,0.6-0.04
		c0.26,0,0.39,0.04,0.39,0.12c0.05,0.23,0.08,1.82,0.08,4.76V7.29z"/>
	<path d="M139.81,7.29v3.47c0.7-0.6,1.32-1.05,1.85-1.35c0.53-0.3,1.32-0.49,2.36-0.57c0.62-0.08,1.21-0.12,1.75-0.12
		c1.9,0,3.38,0.46,4.45,1.36c0.34,0.29,0.57,0.96,0.7,2.03c0.13,1.07,0.19,2.47,0.19,4.21c0,0.99-0.03,2.55-0.08,4.68
		c-0.05,2.08-0.08,3.56-0.08,4.45c0,0.73,0.03,1.61,0.08,2.65c-1.04,0.16-2.16,0.21-3.35,0.16c-0.05-0.78-0.08-1.46-0.08-2.03v-2.34
		v-7.64c-0.05-1.66-0.44-2.74-1.17-3.24c-0.16-0.1-0.47-0.21-0.94-0.31c-0.55-0.16-1.11-0.23-1.68-0.23c-1.01,0-1.88,0.25-2.59,0.76
		c-0.72,0.51-1.18,1.29-1.38,2.36c-0.18,0.99-0.27,2.17-0.27,3.55l0.04,1.33c0.05,1.72,0.08,3.13,0.08,4.25
		c0,1.4-0.03,2.48-0.08,3.24v0.16c-0.52,0.13-0.94,0.2-1.25,0.2l-1.17-0.04c-0.36,0-0.66,0.01-0.9,0.04c0-2.99-0.01-5.46-0.04-7.41
		l-0.04-11.93c0-2.91,0.03-5.9,0.08-8.97c0.81,0.08,1.46,0.1,1.95,0.08c0.13,0,0.29-0.01,0.49-0.04c0.19-0.03,0.4-0.04,0.6-0.04
		c0.26,0,0.39,0.04,0.39,0.12c0.05,0.23,0.08,1.82,0.08,4.76V7.29z"/>
	<path d="M166.18,8.62c0.6-0.03,1.37,0,2.3,0.08l1.01,0.08c0.05,0.42,0.08,0.73,0.08,0.94v0.39c-0.03,0.6-0.04,1.5-0.04,2.69
		c0,0.99,0.03,2.44,0.08,4.37l0.04,4.37c0,1.87-0.05,3.58-0.16,5.11c0,0.08,0,0.25,0,0.51c0,0.26-0.03,0.49-0.08,0.7
		c-0.05,0.21-0.2,0.34-0.43,0.39h-0.66l-1.25-0.04c-0.21,0-0.39,0.01-0.55,0.04c-0.16,0.03-0.3,0.04-0.43,0.04
		c-0.26-0.08-0.39-0.36-0.39-0.86c-0.03-0.21-0.02-0.44,0.02-0.7c0.04-0.26,0.06-0.48,0.06-0.66c-0.62,0.86-1.61,1.44-2.96,1.75
		c-1.35,0.31-2.68,0.47-3.98,0.47c-1.25,0-2.31-0.55-3.18-1.66c-0.87-1.1-1.52-2.46-1.93-4.08c-0.42-1.61-0.62-3.18-0.62-4.72
		c0-1.69,0.29-3.21,0.86-4.56c0.57-1.35,1.36-2.42,2.36-3.22c1-0.79,2.11-1.2,3.33-1.23l1.25-0.04c1.17,0,2.14,0.14,2.91,0.41
		c0.77,0.27,1.33,0.77,1.7,1.5c0-0.23,0.03-0.53,0.08-0.9c0.05-0.52,0.08-0.88,0.08-1.09C165.67,8.65,165.84,8.62,166.18,8.62z
		 M161.81,12.13c-1.35-0.03-2.49,0.32-3.41,1.03c-0.92,0.72-1.49,1.57-1.7,2.55c-0.21,0.75-0.31,1.77-0.31,3.04
		c0.13,4.19,1.82,6.19,5.07,6.01c1.33,0,2.29-0.23,2.89-0.7c0.6-0.47,0.97-1.13,1.11-1.99c0.14-0.86,0.21-2.15,0.21-3.86
		c0-1.87-0.08-3.19-0.23-3.96c-0.16-0.77-0.49-1.29-1-1.58C163.93,12.39,163.06,12.21,161.81,12.13z"/>
	<path d="M171.36,8.7c0.39,0.05,0.94,0.08,1.64,0.08c0.23,0,0.51-0.01,0.84-0.02c0.33-0.01,0.68-0.01,1.07,0.02
		c0.42,1.46,1.18,4.23,2.3,8.31c0.55,2.05,0.95,3.54,1.21,4.45c0.26,0.91,0.57,1.79,0.94,2.65c0.23-0.57,0.52-1.44,0.86-2.61
		c0.34-1.17,0.56-1.94,0.66-2.3c1.27-4.34,2.37-7.81,3.28-10.41c0.23,0,0.61-0.03,1.13-0.08c0.94-0.05,1.72-0.06,2.34-0.04
		c-0.52,1.38-1,2.8-1.44,4.27c-0.44,1.47-0.86,2.92-1.25,4.35c-1.25,4.32-2.37,7.92-3.35,10.8c-0.42,0.08-1.08,0.12-1.99,0.12
		l-2.81-0.04c-1.14-3.64-1.98-6.4-2.51-8.29c-0.53-1.88-1.07-3.96-1.62-6.22L171.36,8.7z"/>
	<path d="M191.45,18.33v0.7l-0.04,1.13c0,3.22,1.59,4.84,4.76,4.84c1.27,0,2.22-0.29,2.83-0.88c0.61-0.58,0.92-1.38,0.92-2.4
		c0-0.16-0.03-0.44-0.08-0.86c0.55-0.08,1.05-0.12,1.52-0.12c0.42,0,0.73,0.01,0.94,0.04c0.16,0,0.34,0.01,0.57,0.02
		c0.22,0.01,0.47,0.01,0.76-0.02c0.03,1.48-0.03,2.67-0.16,3.55c-0.13,0.88-0.44,1.73-0.94,2.53c-0.47,0.7-1.28,1.2-2.44,1.5
		c-1.16,0.3-2.42,0.45-3.8,0.45c-0.62,0-1.2-0.03-1.74-0.08c-0.53-0.05-0.87-0.1-0.99-0.16c-2.03-0.34-3.5-1.62-4.41-3.84
		c-0.91-2.22-1.3-4.76-1.17-7.62c0.03-0.21,0.06-0.64,0.12-1.31c0.05-0.66,0.12-1.35,0.21-2.05c0.09-0.7,0.27-1.39,0.53-2.07
		c0.49-1.14,1.39-2.03,2.69-2.65c1.3-0.62,2.74-0.94,4.33-0.94c0.83,0,1.7,0.1,2.61,0.31c3.54,0.6,5.3,3.26,5.3,8
		c0,0.39-0.03,0.95-0.08,1.68c-0.49,0.16-1.95,0.29-4.37,0.39c-0.29,0.03-0.91,0.04-1.87,0.04c-2.05,0-3.58-0.03-4.56-0.08
		C192.24,18.45,191.76,18.41,191.45,18.33z M200.92,15.4c-0.03-0.81-0.23-1.6-0.6-2.38c-0.38-0.78-0.92-1.39-1.62-1.83
		c-0.39-0.18-0.73-0.3-1.01-0.35c-0.29-0.05-0.65-0.08-1.09-0.08c-1.69,0-2.89,0.35-3.61,1.05c-0.71,0.7-1.16,1.7-1.34,3
		c-0.05,0.31-0.08,0.52-0.08,0.62c0,0.31,0.15,0.52,0.45,0.62c0.3,0.1,0.94,0.16,1.93,0.16c0.96,0,1.78-0.01,2.46-0.04
		c2.5,0,3.9-0.01,4.21-0.04c0.13-0.03,0.21-0.06,0.25-0.1c0.04-0.04,0.06-0.11,0.06-0.21V15.4z"/>
	<path d="M226.08,8.62c0.6-0.03,1.37,0,2.3,0.08l1.01,0.08c0.05,0.42,0.08,0.73,0.08,0.94v0.39c-0.03,0.6-0.04,1.5-0.04,2.69
		c0,0.99,0.03,2.44,0.08,4.37l0.04,4.37c0,1.87-0.05,3.58-0.16,5.11c0,0.08,0,0.25,0,0.51c0,0.26-0.03,0.49-0.08,0.7
		c-0.05,0.21-0.2,0.34-0.43,0.39h-0.66l-1.25-0.04c-0.21,0-0.39,0.01-0.55,0.04c-0.16,0.03-0.3,0.04-0.43,0.04
		c-0.26-0.08-0.39-0.36-0.39-0.86c-0.03-0.21-0.02-0.44,0.02-0.7c0.04-0.26,0.06-0.48,0.06-0.66c-0.62,0.86-1.61,1.44-2.96,1.75
		c-1.35,0.31-2.68,0.47-3.98,0.47c-1.25,0-2.31-0.55-3.18-1.66c-0.87-1.1-1.52-2.46-1.93-4.08c-0.42-1.61-0.62-3.18-0.62-4.72
		c0-1.69,0.29-3.21,0.86-4.56c0.57-1.35,1.36-2.42,2.36-3.22c1-0.79,2.11-1.2,3.33-1.23l1.25-0.04c1.17,0,2.14,0.14,2.91,0.41
		c0.77,0.27,1.33,0.77,1.7,1.5c0-0.23,0.03-0.53,0.08-0.9c0.05-0.52,0.08-0.88,0.08-1.09C225.57,8.65,225.74,8.62,226.08,8.62z
		 M221.71,12.13c-1.35-0.03-2.49,0.32-3.41,1.03c-0.92,0.72-1.49,1.57-1.7,2.55c-0.21,0.75-0.31,1.77-0.31,3.04
		c0.13,4.19,1.82,6.19,5.07,6.01c1.33,0,2.29-0.23,2.89-0.7c0.6-0.47,0.97-1.13,1.11-1.99c0.14-0.86,0.21-2.15,0.21-3.86
		c0-1.87-0.08-3.19-0.23-3.96c-0.16-0.77-0.49-1.29-1-1.58C223.84,12.39,222.96,12.21,221.71,12.13z"/>
	<path d="M5.58,69.56c-0.06,1.63-0.09,2.76-0.09,3.38c0,2.04,0.2,3.62,0.61,4.75c0.41,1.13,1.21,1.93,2.4,2.4
		c0.85,0.19,1.61,0.28,2.3,0.28c2.16,0,3.76-0.78,4.79-2.35c1.03-1.57,1.53-3.82,1.5-6.77c0.34,0.03,0.67,0.04,0.96,0.02
		c0.3-0.02,0.56-0.02,0.78-0.02c0.28-0.03,0.67-0.05,1.18-0.05c0.59,0,1.02,0.03,1.27,0.09c0.28,1.07,0.42,2.11,0.42,3.15
		c0,1.88-0.41,3.63-1.22,5.24c-0.82,1.61-1.97,2.91-3.46,3.88c-1.49,0.97-3.17,1.49-5.05,1.55c-0.6,0.09-1.21,0.14-1.83,0.14
		c-2.26,0-4.24-0.53-5.95-1.6s-2.67-2.66-2.89-4.79c-0.16-3.13-0.24-6.49-0.24-10.06c0-1.66,0.02-2.96,0.05-3.9l0.05-5.69
		c0-1.94,0.49-3.67,1.48-5.19c0.99-1.52,2.33-2.51,4.02-2.98c1.22-0.41,2.47-0.61,3.76-0.61c2.07,0,3.96,0.52,5.69,1.57
		c1.72,1.05,3.09,2.48,4.11,4.28c1.02,1.8,1.53,3.77,1.53,5.9c0,0.88-0.09,1.77-0.28,2.68c-0.94,0.16-1.69,0.24-2.26,0.24
		c-0.63,0-1.38-0.09-2.26-0.28v-1.5c0-1.69-0.17-3.06-0.52-4.09c-0.35-1.03-1.13-1.86-2.35-2.49c-0.85-0.59-2.11-0.89-3.81-0.89
		c-0.5,0-0.89,0.02-1.17,0.05c-1.25,0.06-2.16,0.97-2.73,2.73c-0.56,1.76-0.81,4.61-0.75,8.55L5.58,69.56z"/>
	<path d="M28.46,59.4v4.18c0.85-0.72,1.59-1.26,2.23-1.62c0.64-0.36,1.59-0.59,2.84-0.68c0.75-0.09,1.46-0.14,2.12-0.14
		c2.29,0,4.07,0.55,5.36,1.65c0.41,0.35,0.69,1.16,0.85,2.44c0.16,1.29,0.23,2.98,0.23,5.08c0,1.19-0.03,3.07-0.09,5.64
		c-0.06,2.51-0.09,4.29-0.09,5.36c0,0.88,0.03,1.94,0.09,3.2c-1.25,0.19-2.6,0.25-4.04,0.19c-0.06-0.94-0.09-1.75-0.09-2.44v-2.82
		v-9.21c-0.06-2-0.53-3.31-1.41-3.9c-0.19-0.12-0.56-0.25-1.13-0.38c-0.66-0.19-1.33-0.28-2.02-0.28c-1.22,0-2.26,0.31-3.12,0.92
		c-0.86,0.61-1.42,1.56-1.67,2.84c-0.22,1.19-0.33,2.62-0.33,4.28l0.05,1.6c0.06,2.07,0.09,3.78,0.09,5.12
		c0,1.69-0.03,2.99-0.09,3.9v0.19c-0.63,0.16-1.13,0.24-1.5,0.24l-1.41-0.05c-0.44,0-0.8,0.02-1.08,0.05c0-3.6-0.02-6.58-0.05-8.93
		l-0.05-14.38c0-3.51,0.03-7.11,0.09-10.81c0.97,0.09,1.75,0.13,2.35,0.09c0.16,0,0.35-0.02,0.59-0.05
		c0.23-0.03,0.48-0.05,0.73-0.05c0.31,0,0.47,0.05,0.47,0.14c0.06,0.28,0.09,2.19,0.09,5.73V59.4z"/>
	<path d="M44.73,69.32c0-1.16,0.05-2.16,0.17-3.01c0.11-0.85,0.38-1.9,0.82-3.15c0.41-0.91,1.28-1.59,2.61-2.04
		c1.33-0.45,2.81-0.68,4.44-0.68c0.22,0.03,0.53,0.05,0.94,0.05l1.88-0.05c2.63,0,4.65,0.69,6.06,2.07
		c0.56,0.38,0.99,1.08,1.29,2.11c0.3,1.03,0.48,2.42,0.54,4.16c0.06,1.74,0.09,2.75,0.09,3.03c-0.12,3.13-0.27,5.62-0.45,7.47
		c-0.17,1.85-0.52,3.04-1.06,3.57c-0.6,0.85-1.42,1.43-2.47,1.74c-1.05,0.31-2.3,0.47-3.74,0.47c-0.56,0-1.41-0.03-2.54-0.09
		l-2.16-0.05c-1.85-0.31-3.24-0.99-4.16-2.02c-0.92-1.03-1.52-2.24-1.79-3.62c-0.27-1.38-0.4-3.04-0.4-4.98v-2.44
		C44.82,70.7,44.79,69.85,44.73,69.32z M54.31,64.86c-2.13,0-3.67,0.55-4.61,1.65c-0.41,0.5-0.67,1.14-0.78,1.9
		c-0.11,0.77-0.15,1.76-0.12,2.98c-0.03,0.47-0.02,1.1,0.02,1.88c0.05,0.78,0.07,1.39,0.07,1.83L49,77.08
		c0.09,1.25,0.45,2.14,1.06,2.66c0.61,0.52,1.39,0.87,2.33,1.06c0.63,0.09,1.27,0.14,1.93,0.14c1.22,0,2.29-0.22,3.2-0.66
		c0.91-0.44,1.49-1.16,1.74-2.16c0.12-0.81,0.19-1.46,0.19-1.93c0.16-2.19,0.24-3.68,0.24-4.46c0-2.07-0.38-3.73-1.13-4.98
		C57.79,65.48,56.38,64.86,54.31,64.86z"/>
	<path d="M70.58,59.03c0,1.66-0.02,3.05-0.05,4.18l-0.05,3.38c0,0.63,0.03,1.25,0.09,1.88c1.6-1.19,2.88-2.22,3.85-3.08
		c0.97-0.86,2.13-1.92,3.48-3.17c0.88-0.88,1.55-1.52,2.02-1.93c0.53,0.13,1.24,0.19,2.11,0.19c0.66,0,1.14-0.02,1.46-0.05
		c0.22,0,0.46-0.01,0.73-0.02c0.27-0.02,0.54-0.01,0.82,0.02c-1.85,1.6-3.68,3.31-5.5,5.12c-1.91,1.91-3.89,3.73-5.92,5.45
		c2.32,2.41,4.12,4.35,5.41,5.8c1.28,1.46,2.71,3.17,4.28,5.15l2.16,2.63c-0.25,0-0.78,0.03-1.6,0.09
		c-0.88,0.06-1.58,0.09-2.11,0.09c-0.38,0-0.85-0.03-1.41-0.09c-0.5-0.56-1.16-1.38-1.97-2.44c-1.03-1.32-2.08-2.57-3.15-3.76
		c-1.07-1.19-2.62-2.69-4.65-4.51c0,0.88,0.02,1.63,0.05,2.26l0.05,3.57l-0.05,4.75c-0.31-0.03-0.86-0.02-1.64,0.05l-1.55,0.05
		c-0.47,0-0.8-0.02-0.99-0.05c-0.13-3.29-0.19-6.94-0.19-10.95c0-2.38,0.03-5.95,0.09-10.72c0.06-4.82,0.09-8.43,0.09-10.81v-1.65
		c0.63,0,1.11-0.02,1.46-0.05l1.69-0.05c0.47,0,0.8,0.02,0.99,0.05V59.03z"/>
	<path d="M89.05,72.71v0.85L89,74.91c0,3.89,1.91,5.83,5.73,5.83c1.53,0,2.67-0.35,3.41-1.06c0.74-0.71,1.1-1.67,1.1-2.89
		c0-0.19-0.03-0.53-0.09-1.03c0.66-0.09,1.27-0.14,1.83-0.14c0.5,0,0.88,0.02,1.13,0.05c0.19,0,0.42,0.01,0.68,0.02
		c0.27,0.02,0.57,0.01,0.92-0.02c0.03,1.79-0.03,3.21-0.19,4.28c-0.16,1.07-0.53,2.08-1.13,3.05c-0.56,0.85-1.54,1.45-2.94,1.81
		s-2.92,0.54-4.58,0.54c-0.75,0-1.45-0.03-2.09-0.09c-0.64-0.06-1.04-0.13-1.2-0.19c-2.44-0.41-4.21-1.95-5.31-4.63
		c-1.1-2.68-1.57-5.74-1.41-9.19c0.03-0.25,0.08-0.78,0.14-1.57c0.06-0.8,0.15-1.62,0.26-2.47c0.11-0.85,0.32-1.68,0.63-2.49
		c0.59-1.38,1.68-2.44,3.24-3.2s3.31-1.13,5.22-1.13c1,0,2.05,0.13,3.15,0.38c4.26,0.72,6.39,3.93,6.39,9.64
		c0,0.47-0.03,1.14-0.09,2.02c-0.6,0.19-2.35,0.35-5.26,0.47c-0.35,0.03-1.1,0.05-2.26,0.05c-2.48,0-4.31-0.03-5.5-0.09
		C90,72.85,89.42,72.8,89.05,72.71z M100.47,69.18c-0.03-0.97-0.27-1.93-0.73-2.87c-0.45-0.94-1.1-1.68-1.95-2.21
		c-0.47-0.22-0.88-0.36-1.22-0.42c-0.35-0.06-0.78-0.09-1.32-0.09c-2.04,0-3.49,0.42-4.35,1.27c-0.86,0.85-1.4,2.05-1.62,3.62
		c-0.06,0.38-0.09,0.63-0.09,0.75c0,0.38,0.18,0.63,0.54,0.75c0.36,0.13,1.14,0.19,2.33,0.19c1.16,0,2.15-0.02,2.96-0.05
		c3.01,0,4.7-0.02,5.08-0.05c0.16-0.03,0.26-0.07,0.31-0.12c0.05-0.05,0.07-0.13,0.07-0.26V69.18z"/>
	<path d="M120.54,75.38c0.38,0.06,0.72,0.09,1.03,0.09l1.64-0.05c0.5,0,0.94,0.05,1.32,0.14c-0.16,2.16-0.32,3.84-0.49,5.03
		c-0.17,1.19-0.45,1.97-0.82,2.35c-0.6,0.85-1.42,1.43-2.47,1.74c-1.05,0.31-2.3,0.47-3.74,0.47c-0.56,0-1.41-0.03-2.54-0.09
		l-2.16-0.05c-1.85-0.31-3.23-1.01-4.14-2.09s-1.5-2.36-1.76-3.83c-0.27-1.47-0.45-3.42-0.54-5.83c0-1.75-0.02-3.04-0.05-3.85
		c0-1.85,0.34-3.9,1.03-6.16c0.41-0.91,1.28-1.59,2.61-2.04c1.33-0.45,2.81-0.68,4.44-0.68c0.25,0.03,0.61,0.05,1.08,0.05
		c0.28,0,0.63-0.01,1.06-0.02c0.42-0.02,0.93-0.01,1.53,0.02c2.35,0.22,4.09,0.88,5.22,1.97c0.72,0.5,1.18,1.3,1.39,2.4
		c0.2,1.1,0.34,2.74,0.4,4.94l0.05,1.13c-0.47,0.09-0.94,0.14-1.41,0.14c-0.81,0-1.64-0.08-2.49-0.23c-0.03-2.22-0.43-3.74-1.2-4.56
		c-0.77-0.81-1.98-1.22-3.64-1.22c-0.34,0-0.96,0.03-1.83,0.09c-0.81,0.03-1.45,0.11-1.9,0.23c-0.45,0.13-0.85,0.42-1.2,0.89
		c-0.35,0.47-0.6,1.19-0.75,2.16c-0.09,0.66-0.14,1.83-0.14,3.53v3.76c-0.06,1.03,0.19,2.11,0.75,3.22c0.56,1.11,1.69,1.75,3.38,1.9
		c0.31,0.03,0.74,0.05,1.27,0.05c1.47,0,2.57-0.28,3.29-0.85s1.18-1.21,1.39-1.95C120.34,77.45,120.47,76.51,120.54,75.38z"/>
	<path d="M131.44,59.4v4.18c0.85-0.72,1.59-1.26,2.23-1.62c0.64-0.36,1.59-0.59,2.84-0.68c0.75-0.09,1.46-0.14,2.12-0.14
		c2.29,0,4.07,0.55,5.36,1.65c0.41,0.35,0.69,1.16,0.85,2.44c0.16,1.29,0.23,2.98,0.23,5.08c0,1.19-0.03,3.07-0.09,5.64
		c-0.06,2.51-0.09,4.29-0.09,5.36c0,0.88,0.03,1.94,0.09,3.2c-1.25,0.19-2.6,0.25-4.04,0.19c-0.06-0.94-0.09-1.75-0.09-2.44v-2.82
		v-9.21c-0.06-2-0.53-3.31-1.41-3.9c-0.19-0.12-0.56-0.25-1.13-0.38c-0.66-0.19-1.33-0.28-2.02-0.28c-1.22,0-2.26,0.31-3.12,0.92
		c-0.86,0.61-1.42,1.56-1.67,2.84c-0.22,1.19-0.33,2.62-0.33,4.28l0.05,1.6c0.06,2.07,0.09,3.78,0.09,5.12
		c0,1.69-0.03,2.99-0.09,3.9v0.19c-0.63,0.16-1.13,0.24-1.5,0.24l-1.41-0.05c-0.44,0-0.8,0.02-1.08,0.05c0-3.6-0.02-6.58-0.05-8.93
		l-0.05-14.38c0-3.51,0.03-7.11,0.09-10.81c0.97,0.09,1.75,0.13,2.35,0.09c0.16,0,0.35-0.02,0.59-0.05
		c0.23-0.03,0.48-0.05,0.73-0.05c0.31,0,0.47,0.05,0.47,0.14c0.06,0.28,0.09,2.19,0.09,5.73V59.4z"/>
	<path d="M151.74,72.71v0.85l-0.05,1.36c0,3.89,1.91,5.83,5.73,5.83c1.53,0,2.67-0.35,3.41-1.06c0.74-0.71,1.1-1.67,1.1-2.89
		c0-0.19-0.03-0.53-0.09-1.03c0.66-0.09,1.27-0.14,1.83-0.14c0.5,0,0.88,0.02,1.13,0.05c0.19,0,0.42,0.01,0.68,0.02
		c0.27,0.02,0.57,0.01,0.92-0.02c0.03,1.79-0.03,3.21-0.19,4.28c-0.16,1.07-0.53,2.08-1.13,3.05c-0.56,0.85-1.54,1.45-2.94,1.81
		s-2.92,0.54-4.58,0.54c-0.75,0-1.45-0.03-2.09-0.09c-0.64-0.06-1.04-0.13-1.2-0.19c-2.44-0.41-4.21-1.95-5.31-4.63
		c-1.1-2.68-1.57-5.74-1.41-9.19c0.03-0.25,0.08-0.78,0.14-1.57c0.06-0.8,0.15-1.62,0.26-2.47c0.11-0.85,0.32-1.68,0.63-2.49
		c0.59-1.38,1.68-2.44,3.24-3.2s3.31-1.13,5.22-1.13c1,0,2.05,0.13,3.15,0.38c4.26,0.72,6.39,3.93,6.39,9.64
		c0,0.47-0.03,1.14-0.09,2.02c-0.6,0.19-2.35,0.35-5.26,0.47c-0.35,0.03-1.1,0.05-2.26,0.05c-2.48,0-4.31-0.03-5.5-0.09
		C152.7,72.85,152.12,72.8,151.74,72.71z M163.16,69.18c-0.03-0.97-0.27-1.93-0.73-2.87c-0.45-0.94-1.1-1.68-1.95-2.21
		c-0.47-0.22-0.88-0.36-1.22-0.42c-0.35-0.06-0.78-0.09-1.32-0.09c-2.04,0-3.49,0.42-4.35,1.27c-0.86,0.85-1.4,2.05-1.62,3.62
		c-0.06,0.38-0.09,0.63-0.09,0.75c0,0.38,0.18,0.63,0.54,0.75c0.36,0.13,1.14,0.19,2.33,0.19c1.16,0,2.15-0.02,2.96-0.05
		c3.01,0,4.7-0.02,5.08-0.05c0.16-0.03,0.26-0.07,0.31-0.12c0.05-0.05,0.07-0.13,0.07-0.26V69.18z"/>
	<path d="M173.41,61.24c0,0.38,0.01,0.67,0.02,0.87c0.02,0.2,0.02,0.45,0.02,0.73c0.22-0.12,0.52-0.27,0.92-0.42
		c0.39-0.16,0.82-0.31,1.29-0.47c0.72-0.25,1.59-0.43,2.61-0.54c1.02-0.11,1.93-0.16,2.75-0.16c0.75,0,1.13,0.03,1.13,0.09
		l-0.05,3.9c0,0.63,0.02,1.1,0.05,1.41c-0.47-0.19-1-0.36-1.6-0.52c-0.69-0.16-1.44-0.23-2.26-0.23c-0.85,0-1.8,0.13-2.87,0.38
		c-0.88,0.22-1.47,0.55-1.79,0.99c-0.31,0.44-0.46,1.27-0.42,2.49c0.12,4.29,0.19,9.17,0.19,14.62v0.19
		c-0.53,0.12-1.08,0.19-1.64,0.19c-0.22,0-0.57-0.01-1.06-0.02c-0.49-0.02-0.98-0.01-1.48,0.02l-0.05-8.08
		c-0.06-3.7-0.09-6.47-0.09-8.32c0-1.5,0.03-3.88,0.09-7.14c0.31,0.03,0.65,0.04,1.01,0.02c0.36-0.02,0.68-0.02,0.96-0.02
		c0.38-0.03,0.88-0.05,1.5-0.05C173.16,61.14,173.41,61.18,173.41,61.24z"/>
	<path d="M189.34,61.24c0,0.38,0.01,0.67,0.02,0.87c0.02,0.2,0.02,0.45,0.02,0.73c0.22-0.12,0.52-0.27,0.92-0.42
		c0.39-0.16,0.82-0.31,1.29-0.47c0.72-0.25,1.59-0.43,2.61-0.54c1.02-0.11,1.93-0.16,2.75-0.16c0.75,0,1.13,0.03,1.13,0.09
		l-0.05,3.9c0,0.63,0.02,1.1,0.05,1.41c-0.47-0.19-1-0.36-1.6-0.52c-0.69-0.16-1.44-0.23-2.26-0.23c-0.85,0-1.8,0.13-2.87,0.38
		c-0.88,0.22-1.47,0.55-1.79,0.99c-0.31,0.44-0.46,1.27-0.42,2.49c0.12,4.29,0.19,9.17,0.19,14.62v0.19
		c-0.53,0.12-1.08,0.19-1.64,0.19c-0.22,0-0.57-0.01-1.06-0.02c-0.49-0.02-0.98-0.01-1.48,0.02l-0.05-8.08
		c-0.06-3.7-0.09-6.47-0.09-8.32c0-1.5,0.03-3.88,0.09-7.14c0.31,0.03,0.65,0.04,1.01,0.02c0.36-0.02,0.68-0.02,0.96-0.02
		c0.38-0.03,0.88-0.05,1.5-0.05C189.09,61.14,189.34,61.18,189.34,61.24z"/>
	<path d="M199.45,61.1c0.53,0.03,1.35,0.05,2.44,0.05c1.06,0,1.82,0.03,2.26,0.09l1.69,6.44c1.16,4.42,2.05,7.75,2.68,9.99
		c0.63,2.24,1.14,3.74,1.55,4.49c0.47-0.56,1.02-2.1,1.65-4.61c0.63-2.51,1.38-5.83,2.26-9.96c0.09-0.38,0.32-1.43,0.68-3.15
		c0.36-1.72,0.62-2.79,0.78-3.2l1.83-0.05c1.13-0.06,2.05-0.08,2.77-0.05c-0.31,1.13-0.88,3.42-1.69,6.86l-0.85,3.52
		c-0.13,0.41-0.41,1.71-0.85,3.9c-0.81,3.79-1.67,6.84-2.56,9.14c-0.89,2.3-2.41,4.28-4.54,5.92c-2.13,1.65-5.11,2.47-8.93,2.47
		c-0.69,0-1.22-0.02-1.6-0.05c-0.25-0.66-0.38-1.47-0.38-2.44c0-0.72,0.06-1.32,0.19-1.79c1,0.06,1.72,0.09,2.16,0.09
		c3.57,0,5.36-0.92,5.36-2.77c0-0.16-0.03-0.39-0.09-0.71l-3.34-11.8C201.83,69.74,200.67,65.61,199.45,61.1z"/>
	<path d="M223.7,51.6h0.14c0.22-0.03,0.59-0.08,1.13-0.14c0.53-0.06,1-0.09,1.41-0.09c0.47,0,0.94,0.05,1.41,0.14
		c-0.12,6.02-0.19,10.7-0.19,14.05c0,3.29,0.08,6.89,0.23,10.81c-0.72,0.09-1.54,0.16-2.44,0.19c-0.91,0.03-1.5,0.05-1.79,0.05
		h-0.05l0.05-3.2l-0.05-6.49c-0.06-2.82-0.09-4.97-0.09-6.44C223.46,57.07,223.54,54.11,223.7,51.6z M226.09,84.55h-2.49
		c-0.09,0-0.14-0.24-0.14-0.71c0-0.69,0.05-1.46,0.14-2.3c0.03-0.38,0.06-0.78,0.09-1.2s0.05-0.85,0.05-1.29V79
		c0.34-0.16,0.83-0.24,1.46-0.24l1.27,0.05c0.56,0.06,1,0.09,1.32,0.09l-0.05,1.6c-0.06,1.82-0.09,3.17-0.09,4.04h-0.33h-1.17
		H226.09z"/>
</g>
</svg>
