<!-- Generator: Adobe Illustrator 23.1.1, SVG Export Plug-In  -->
<svg version="1.1" xmlns="http://www.w3.org/2000/svg" xmlns:xlink="http://www.w3.org/1999/xlink" x="0px" y="0px" width="57.87px"
	 height="11.2px" viewBox="0 0 57.87 11.2" style="enable-background:new 0 0 57.87 11.2;" xml:space="preserve">
<defs>
</defs>
<g>
	<path d="M0.95,0.67c0.48-0.23,1.02-0.35,1.63-0.35c0.54,0,1.03,0.11,1.46,0.32c0.43,0.21,0.72,0.54,0.87,0.98
		c0.15,0.34,0.23,0.79,0.23,1.37c0,0.26,0,0.44-0.01,0.56C5.11,3.83,5.1,4.24,5.1,4.79c0,0.14,0,0.31-0.01,0.51
		c0,0.2-0.01,0.44-0.03,0.71l-0.04,0.4C4.97,7.09,4.82,7.63,4.57,8.03c-0.21,0.29-0.52,0.5-0.93,0.65S2.8,8.89,2.34,8.89
		c-0.17,0-0.29,0-0.37-0.01C1.36,8.83,0.9,8.65,0.59,8.32C0.28,8,0.11,7.46,0.1,6.71L0.06,5.95C0.05,5.79,0.04,5.51,0.02,5.12
		S0,4.36,0,4.03C0,3.66,0.01,3.3,0.04,2.94c0.01-0.48,0.08-0.93,0.22-1.36C0.39,1.16,0.62,0.86,0.95,0.67z M4.09,4.56L4.08,3.6
		C4.05,3.06,4.02,2.69,4,2.49c-0.02-0.2-0.14-0.43-0.36-0.7C3.42,1.52,3.06,1.38,2.57,1.38c-0.61,0-1.03,0.27-1.28,0.8
		C1.05,2.72,0.92,3.54,0.92,4.63c0,0.67,0.01,1.19,0.04,1.57c0.03,0.37,0.09,0.67,0.17,0.9C1.23,7.33,1.36,7.5,1.55,7.63
		c0.19,0.14,0.47,0.2,0.83,0.2c0.57,0,0.98-0.12,1.24-0.35c0.26-0.23,0.4-0.57,0.42-1.02c0-0.24,0.01-0.52,0.02-0.85
		c0.02-0.33,0.03-0.54,0.04-0.64V4.56z"/>
	<path d="M7.03,2.76c0.02,0.09,0.02,0.2,0.02,0.34v0.3c0.27-0.16,0.59-0.3,0.96-0.43c0.37-0.12,0.74-0.19,1.1-0.19
		c0.44,0.02,0.8,0.14,1.08,0.37c0.19,0.17,0.29,0.85,0.29,2.05c0,0.3-0.01,0.78-0.02,1.42c-0.02,0.61-0.02,1.05-0.02,1.32
		c0,0.35,0,0.6,0.01,0.76c-0.15,0.02-0.37,0.04-0.66,0.04H9.4C9.38,8.61,9.37,8.38,9.37,8.06V7.55l0.01-0.77
		C9.4,6.26,9.4,5.89,9.4,5.66c0-0.05-0.01-0.21-0.03-0.49C9.35,4.89,9.3,4.64,9.23,4.43C9.2,4.15,9.01,4.02,8.64,4.04
		C8.09,4.05,7.68,4.13,7.42,4.27s-0.41,0.4-0.44,0.78c-0.01,0.1-0.01,0.3-0.01,0.59c0,0.45,0.01,0.93,0.02,1.44
		c0.02,0.3,0.02,0.53,0.02,0.67c0,0.3-0.01,0.6-0.04,0.91v0.05c-0.15,0.03-0.3,0.05-0.45,0.04c-0.15,0-0.25-0.01-0.32-0.01
		c-0.13,0-0.23,0-0.3,0.01L5.9,6.7C5.89,5.75,5.88,5.04,5.88,4.57c0-0.38,0.01-0.99,0.02-1.82C6,2.76,6.11,2.76,6.24,2.76
		s0.23,0,0.31-0.01c0.05,0,0.1,0,0.17-0.01c0.06-0.01,0.13-0.01,0.19-0.01C6.99,2.72,7.03,2.74,7.03,2.76z"/>
	<path d="M12.18,5.69V5.9l-0.01,0.35c0,0.99,0.49,1.49,1.46,1.49c0.39,0,0.68-0.09,0.87-0.27c0.19-0.18,0.28-0.43,0.28-0.74
		c0-0.05-0.01-0.14-0.02-0.26c0.17-0.02,0.32-0.04,0.47-0.04c0.13,0,0.22,0,0.29,0.01c0.05,0,0.11,0,0.17,0.01
		c0.07,0,0.15,0,0.23-0.01c0.01,0.46-0.01,0.82-0.05,1.09s-0.14,0.53-0.29,0.78c-0.14,0.22-0.39,0.37-0.75,0.46
		c-0.36,0.09-0.75,0.14-1.17,0.14c-0.19,0-0.37-0.01-0.53-0.02s-0.27-0.03-0.31-0.05c-0.62-0.1-1.08-0.5-1.36-1.18
		c-0.28-0.68-0.4-1.47-0.36-2.35c0.01-0.06,0.02-0.2,0.04-0.4c0.02-0.2,0.04-0.41,0.07-0.63c0.03-0.22,0.08-0.43,0.16-0.64
		c0.15-0.35,0.43-0.62,0.83-0.82c0.4-0.19,0.84-0.29,1.33-0.29c0.26,0,0.52,0.03,0.8,0.1c1.09,0.18,1.63,1,1.63,2.46
		c0,0.12-0.01,0.29-0.02,0.52c-0.15,0.05-0.6,0.09-1.34,0.12c-0.09,0.01-0.28,0.01-0.58,0.01c-0.63,0-1.1-0.01-1.4-0.02
		C12.42,5.72,12.28,5.71,12.18,5.69z M15.1,4.79c-0.01-0.25-0.07-0.49-0.19-0.73c-0.12-0.24-0.28-0.43-0.5-0.56
		c-0.12-0.06-0.22-0.09-0.31-0.11c-0.09-0.02-0.2-0.02-0.34-0.02c-0.52,0-0.89,0.11-1.11,0.32s-0.36,0.52-0.41,0.92
		c-0.02,0.1-0.02,0.16-0.02,0.19c0,0.1,0.05,0.16,0.14,0.19c0.09,0.03,0.29,0.05,0.59,0.05c0.3,0,0.55,0,0.76-0.01
		c0.77,0,1.2,0,1.3-0.01c0.04-0.01,0.07-0.02,0.08-0.03c0.01-0.01,0.02-0.03,0.02-0.07V4.79z"/>
	<path d="M20.15,0.38c0,0.07,0,0.13,0.01,0.17s0.01,0.08,0.01,0.1c0.01,0.06,0.01,0.16,0.01,0.32L20.2,1.6l-0.01,1.73
		c0.01-0.06,0.06-0.13,0.16-0.23s0.23-0.19,0.4-0.26s0.36-0.12,0.56-0.13c0.7-0.02,1.24,0.03,1.62,0.17
		c0.34,0.12,0.58,0.4,0.74,0.85C23.83,4.17,23.9,4.7,23.9,5.3c-0.02,0.7-0.08,1.27-0.17,1.71s-0.28,0.82-0.56,1.14
		s-0.72,0.49-1.28,0.53c-0.13,0.02-0.23,0.02-0.31,0.02c-0.18,0-0.36-0.03-0.52-0.08c-0.13-0.04-0.26-0.12-0.38-0.24
		c-0.26-0.14-0.43-0.33-0.53-0.55c0.02,0.11,0.02,0.25,0.02,0.42l-0.01,0.38c0,0.05,0,0.08-0.01,0.08
		c-0.05,0.01-0.13,0.01-0.25,0.01c-0.18,0-0.31,0-0.41-0.01l-0.48-0.01C19,8.42,19,7.98,19,7.39c0-0.64,0-1.21,0.01-1.72
		c0.01-0.51,0.02-0.94,0.02-1.29c0.03-1.46,0.05-2.56,0.05-3.31V0.28c0.14-0.02,0.29-0.04,0.47-0.04c0.14,0,0.27,0.01,0.38,0.02
		c0.11,0.01,0.18,0.02,0.22,0.03V0.38z M22.93,5.8c0-0.26-0.02-0.46-0.05-0.6c-0.03-0.33-0.08-0.59-0.14-0.79
		c-0.06-0.2-0.21-0.36-0.43-0.5c-0.22-0.14-0.56-0.21-1.02-0.21c-0.45,0-0.75,0.16-0.91,0.47c-0.16,0.32-0.23,0.81-0.23,1.48
		c0,0.57,0.1,1.05,0.31,1.46c0.2,0.4,0.53,0.61,0.98,0.61c0.5,0,0.87-0.16,1.12-0.49C22.81,6.91,22.93,6.43,22.93,5.8z"/>
	<path d="M24.91,2.66c0.06-0.01,0.17-0.01,0.34,0c0.24,0.02,0.5,0.02,0.79,0.02v0.04c0,0.36-0.01,0.92-0.02,1.67
		c-0.02,0.77-0.04,1.54-0.04,2.33c0,0.74,0.02,1.39,0.05,1.97c-0.11,0.02-0.28,0.04-0.5,0.04c-0.22,0-0.36,0-0.41,0
		c-0.14,0-0.23,0-0.26,0.01c0.01-0.23,0.01-0.58,0.01-1.06V6.6V5.59c-0.02-0.56-0.02-0.99-0.02-1.3c0-0.55,0.02-1.09,0.07-1.62V2.66
		z M24.86,0.08c0.5,0.02,0.87,0.02,1.13,0.02l0.04,1.58c-0.08,0.04-0.22,0.06-0.43,0.06c-0.13,0-0.22,0-0.29-0.01
		c-0.05,0-0.1,0-0.17-0.01c-0.06,0-0.14,0-0.23,0.01c0-0.12-0.01-0.32-0.02-0.59C24.86,0.62,24.85,0.27,24.86,0.08z"/>
	<path d="M31.67,10.28c-0.15,0.34-0.34,0.57-0.58,0.68c-0.23,0.11-0.5,0.18-0.8,0.2c-0.35,0.02-0.57,0.02-0.66,0.02
		c-0.15,0-0.35-0.01-0.59-0.02c-0.53-0.04-0.97-0.22-1.33-0.53c-0.36-0.31-0.54-0.7-0.54-1.18c0-0.1,0-0.18,0.01-0.24
		c0.04-0.02,0.15-0.03,0.32-0.04c0.18-0.01,0.34-0.02,0.5-0.02c0.14,0,0.21,0.01,0.23,0.02c0.01,0.02,0.01,0.08,0.01,0.18
		c0,0.21,0.05,0.39,0.14,0.55c0.1,0.16,0.3,0.26,0.61,0.31c0.16,0.01,0.37,0.01,0.62,0.01c0.34,0,0.58-0.02,0.74-0.05
		c0.16-0.04,0.26-0.1,0.3-0.19c0.04-0.09,0.06-0.23,0.04-0.41V9.14v-0.4c0-0.04,0-0.08,0.01-0.13c0-0.05,0.01-0.12,0.02-0.2
		c-0.14,0.16-0.29,0.26-0.47,0.29c-0.18,0.03-0.51,0.05-1,0.05H28.8c-0.8,0-1.32-0.25-1.56-0.76c-0.2-0.38-0.31-0.84-0.34-1.4
		c0-0.74,0.03-1.36,0.09-1.85s0.24-0.93,0.53-1.33s0.75-0.61,1.39-0.65c0.42-0.01,0.74,0.01,0.97,0.04c0.23,0.04,0.4,0.1,0.51,0.19
		c0.11,0.09,0.2,0.21,0.28,0.37c0.02-0.11,0.04-0.22,0.04-0.31c0-0.05,0-0.1-0.01-0.15c0-0.05,0-0.1,0.01-0.15
		c0.21-0.02,0.36-0.02,0.47-0.02l0.62,0.01c0.03,0.93,0.05,2.02,0.05,3.26c0,1.24-0.02,2.32-0.06,3.24c0,0.08,0,0.19-0.01,0.32
		c0,0.14-0.01,0.27-0.02,0.39C31.73,10.08,31.71,10.19,31.67,10.28z M27.84,5.87v0.14c-0.02,0.43,0.05,0.84,0.22,1.21
		s0.48,0.58,0.94,0.6c0.12,0.01,0.28,0.01,0.49,0.01c0.43,0,0.74-0.08,0.93-0.23c0.19-0.15,0.29-0.45,0.32-0.89
		c0-0.57,0-1.02-0.01-1.37c0-0.81-0.18-1.31-0.54-1.5c-0.17-0.1-0.4-0.14-0.7-0.14c-0.16,0-0.32,0.01-0.47,0.04
		c-0.45,0.08-0.76,0.31-0.92,0.68C27.92,4.79,27.84,5.28,27.84,5.87z"/>
	<path d="M35.38,0l1.09,0.04c0,0.33-0.01,1.14-0.02,2.44c-0.02,1.6-0.02,2.86-0.02,3.77c0,1.01,0.01,1.81,0.04,2.41
		c-0.05,0.06-0.18,0.08-0.4,0.08l-0.37-0.01c-0.07-0.01-0.16-0.01-0.26-0.01c-0.06,0-0.1,0-0.12,0.01c0.05-0.65,0.07-1.3,0.07-1.96
		c0-0.5-0.02-1.24-0.05-2.23c-0.03-0.99-0.05-1.74-0.05-2.24C35.28,1.44,35.31,0.68,35.38,0z"/>
	<path d="M38.43,5.69V5.9l-0.01,0.35c0,0.99,0.49,1.49,1.46,1.49c0.39,0,0.68-0.09,0.87-0.27c0.19-0.18,0.28-0.43,0.28-0.74
		c0-0.05-0.01-0.14-0.02-0.26c0.17-0.02,0.32-0.04,0.47-0.04c0.13,0,0.22,0,0.29,0.01c0.05,0,0.11,0,0.17,0.01
		c0.07,0,0.15,0,0.23-0.01c0.01,0.46-0.01,0.82-0.05,1.09s-0.14,0.53-0.29,0.78c-0.14,0.22-0.39,0.37-0.75,0.46
		c-0.36,0.09-0.75,0.14-1.17,0.14c-0.19,0-0.37-0.01-0.53-0.02s-0.27-0.03-0.31-0.05c-0.62-0.1-1.08-0.5-1.36-1.18
		c-0.28-0.68-0.4-1.47-0.36-2.35c0.01-0.06,0.02-0.2,0.04-0.4c0.02-0.2,0.04-0.41,0.07-0.63c0.03-0.22,0.08-0.43,0.16-0.64
		c0.15-0.35,0.43-0.62,0.83-0.82c0.4-0.19,0.84-0.29,1.33-0.29c0.26,0,0.52,0.03,0.8,0.1c1.09,0.18,1.63,1,1.63,2.46
		c0,0.12-0.01,0.29-0.02,0.52c-0.15,0.05-0.6,0.09-1.34,0.12c-0.09,0.01-0.28,0.01-0.58,0.01c-0.63,0-1.1-0.01-1.4-0.02
		C38.68,5.72,38.53,5.71,38.43,5.69z M41.35,4.79c-0.01-0.25-0.07-0.49-0.19-0.73c-0.12-0.24-0.28-0.43-0.5-0.56
		c-0.12-0.06-0.22-0.09-0.31-0.11c-0.09-0.02-0.2-0.02-0.34-0.02c-0.52,0-0.89,0.11-1.11,0.32s-0.36,0.52-0.41,0.92
		c-0.02,0.1-0.02,0.16-0.02,0.19c0,0.1,0.05,0.16,0.14,0.19c0.09,0.03,0.29,0.05,0.59,0.05c0.3,0,0.55,0,0.76-0.01
		c0.77,0,1.2,0,1.3-0.01c0.04-0.01,0.07-0.02,0.08-0.03c0.01-0.01,0.02-0.03,0.02-0.07V4.79z"/>
	<path d="M46.69,2.7c0.18-0.01,0.42,0,0.71,0.02l0.31,0.02c0.02,0.13,0.02,0.22,0.02,0.29v0.12c-0.01,0.18-0.01,0.46-0.01,0.83
		c0,0.3,0.01,0.75,0.02,1.34l0.01,1.34c0,0.58-0.02,1.1-0.05,1.57c0,0.02,0,0.08,0,0.16c0,0.08-0.01,0.15-0.02,0.22
		c-0.02,0.06-0.06,0.1-0.13,0.12h-0.2l-0.38-0.01c-0.06,0-0.12,0-0.17,0.01c-0.05,0.01-0.09,0.01-0.13,0.01
		c-0.08-0.02-0.12-0.11-0.12-0.26c-0.01-0.06-0.01-0.14,0.01-0.22c0.01-0.08,0.02-0.15,0.02-0.2c-0.19,0.26-0.5,0.44-0.91,0.54
		c-0.42,0.1-0.82,0.14-1.22,0.14c-0.38,0-0.71-0.17-0.98-0.51c-0.27-0.34-0.47-0.76-0.59-1.25c-0.13-0.5-0.19-0.98-0.19-1.45
		c0-0.52,0.09-0.99,0.26-1.4c0.18-0.42,0.42-0.75,0.73-0.99c0.31-0.24,0.65-0.37,1.03-0.38l0.38-0.01c0.36,0,0.66,0.04,0.89,0.13
		s0.41,0.24,0.52,0.46c0-0.07,0.01-0.16,0.02-0.28c0.02-0.16,0.02-0.27,0.02-0.34C46.53,2.71,46.59,2.7,46.69,2.7z M45.35,3.78
		c-0.42-0.01-0.77,0.1-1.05,0.32c-0.28,0.22-0.46,0.48-0.52,0.79c-0.06,0.23-0.1,0.54-0.1,0.94c0.04,1.29,0.56,1.9,1.56,1.85
		c0.41,0,0.7-0.07,0.89-0.22s0.3-0.35,0.34-0.61c0.04-0.26,0.07-0.66,0.07-1.19c0-0.58-0.02-0.98-0.07-1.22
		c-0.05-0.24-0.15-0.4-0.31-0.49C46,3.86,45.73,3.8,45.35,3.78z"/>
	<path d="M50.47,4.25v4.44c-0.12-0.01-0.26,0-0.42,0.01l-0.29,0.01c-0.13,0-0.23-0.01-0.31-0.02C49.42,8.5,49.4,7.8,49.4,6.6
		l0.01-1.45c0.01-0.24,0.01-0.54,0.01-0.9c-0.09,0.01-0.26,0.01-0.53,0.01c-0.07-0.01-0.18-0.01-0.31-0.01c-0.12,0-0.21,0-0.26,0.01
		l-0.04-1.03c0.59,0,0.96,0,1.12,0.01l-0.01-0.48c0-0.6,0.09-1.1,0.28-1.51c0.19-0.41,0.55-0.65,1.09-0.72
		c0.44-0.04,0.91-0.06,1.42-0.06h0.47c0.05,0.15,0.07,0.31,0.07,0.48c0,0.09-0.02,0.29-0.06,0.61c-0.14-0.01-0.58,0-1.34,0.04
		c-0.26,0.02-0.43,0.04-0.53,0.07c-0.1,0.03-0.17,0.1-0.22,0.22C50.52,2,50.49,2.22,50.49,2.52c0,0.1,0.01,0.36,0.02,0.76
		c0.47-0.01,1.18-0.01,2.11-0.01c-0.01,0.03-0.02,0.16-0.04,0.4c0,0.24-0.01,0.45-0.02,0.64l-1.38-0.04L50.47,4.25z"/>
	<path d="M54.91,6.3l0.02-0.38c0.06-0.34,0.14-0.63,0.26-0.89c0.12-0.26,0.31-0.55,0.56-0.87C56,3.87,56.19,3.62,56.33,3.4
		c0.14-0.22,0.23-0.46,0.28-0.7c0.02-0.1,0.02-0.17,0.02-0.22c0-0.33-0.13-0.59-0.38-0.79c-0.26-0.2-0.6-0.28-1.03-0.25
		c-0.34-0.01-0.59,0.08-0.75,0.27s-0.31,0.45-0.44,0.79c-0.05,0.13-0.08,0.22-0.11,0.26l-0.24,0.01c-0.11,0-0.28-0.01-0.5-0.02
		l-0.29-0.01V2.74c0.02-0.41,0.14-0.8,0.34-1.18c0.2-0.38,0.48-0.69,0.83-0.93c0.35-0.24,0.75-0.37,1.19-0.39
		c0.06-0.01,0.14-0.01,0.24-0.01c0.43,0,0.83,0.09,1.19,0.28c0.36,0.18,0.65,0.44,0.86,0.76c0.22,0.32,0.32,0.68,0.32,1.08
		c0,0.39-0.07,0.72-0.22,0.98c-0.15,0.26-0.37,0.56-0.67,0.89c-0.19,0.21-0.33,0.37-0.41,0.48c-0.18,0.24-0.31,0.47-0.41,0.68
		c-0.1,0.22-0.16,0.46-0.2,0.73c-0.01,0.06-0.02,0.11-0.02,0.17c-0.01,0.06-0.01,0.12-0.01,0.19c0,0.05,0,0.08,0.01,0.1v0.01
		C55.85,6.59,55.7,6.6,55.5,6.6c-0.06,0-0.14,0-0.23-0.01c-0.09,0-0.2,0-0.32,0.01h-0.01c-0.02-0.03-0.02-0.09-0.02-0.18V6.3z
		 M55.81,8.72h-0.86h-0.04c-0.02-0.14-0.04-0.33-0.04-0.55l0.01-0.59c0.01-0.07,0.01-0.16,0.01-0.25c0.14-0.06,0.32-0.08,0.56-0.08
		c0.17,0,0.32,0.02,0.44,0.05c0,0.04-0.01,0.26-0.04,0.65s-0.04,0.64-0.04,0.76v0.02H55.81z"/>
</g>
</svg>
