<!-- Generator: Adobe Illustrator 23.1.1, SVG Export Plug-In  -->
<svg version="1.1" xmlns="http://www.w3.org/2000/svg" xmlns:xlink="http://www.w3.org/1999/xlink" x="0px" y="0px" width="69.12px"
	 height="8.92px" viewBox="0 0 69.12 8.92" style="enable-background:new 0 0 69.12 8.92;" xml:space="preserve">
<defs>
</defs>
<g>
	<path d="M5.41,3.04H5.4C5.16,3.08,4.94,3.1,4.73,3.1c-0.22,0-0.4-0.02-0.54-0.06C4.2,2.96,4.21,2.86,4.21,2.72
		c0-0.26-0.06-0.49-0.19-0.67s-0.3-0.31-0.53-0.39C3.33,1.61,3.16,1.58,2.96,1.58c-0.28,0-0.55,0.06-0.8,0.19S1.7,2.06,1.56,2.28
		C1.42,2.5,1.36,2.74,1.38,3c0.1,0.61,0.52,0.92,1.26,0.95c0.92,0.03,1.61,0.24,2.08,0.64c0.46,0.39,0.7,0.89,0.7,1.5
		c0,0.58-0.11,1.07-0.33,1.48C4.86,7.97,4.56,8.27,4.19,8.48S3.4,8.78,2.94,8.78S2.04,8.7,1.61,8.54S0.82,8.13,0.53,7.81
		c-0.29-0.32-0.45-0.7-0.49-1.14V6.66C0.01,6.56,0,6.46,0,6.34V6.25c0.18-0.02,0.31-0.02,0.41-0.02l0.44,0.01
		c0.09,0.01,0.21,0.01,0.37,0.01C1.22,6.57,1.31,6.84,1.52,7.07c0.2,0.22,0.51,0.39,0.93,0.49c0.12,0.03,0.24,0.05,0.37,0.05
		c0.26,0,0.5-0.06,0.72-0.19c0.22-0.13,0.38-0.3,0.49-0.53s0.16-0.47,0.13-0.74c-0.03-0.3-0.13-0.53-0.31-0.68
		c-0.17-0.15-0.37-0.25-0.6-0.3C3.03,5.11,2.72,5.07,2.32,5.04L1.86,5C1.45,4.94,1.1,4.78,0.82,4.53S0.33,3.98,0.23,3.65
		C0.16,3.41,0.12,3.17,0.12,2.94c0-0.26,0.04-0.5,0.11-0.72c0.11-0.38,0.3-0.71,0.56-1.01c0.26-0.3,0.57-0.53,0.93-0.68
		C2.03,0.4,2.39,0.34,2.81,0.34c0.57,0,1.09,0.11,1.57,0.32c0.34,0.17,0.6,0.41,0.8,0.71c0.2,0.31,0.29,0.67,0.29,1.1
		C5.47,2.62,5.45,2.81,5.41,3.04z"/>
	<path d="M5.96,4.82c0-0.3,0.01-0.55,0.04-0.77s0.1-0.48,0.21-0.8c0.1-0.23,0.33-0.41,0.67-0.52C7.22,2.61,7.6,2.56,8.02,2.56
		c0.06,0.01,0.14,0.01,0.24,0.01l0.48-0.01c0.67,0,1.19,0.18,1.55,0.53c0.14,0.1,0.25,0.28,0.33,0.54c0.08,0.26,0.12,0.62,0.14,1.06
		c0.02,0.44,0.02,0.7,0.02,0.77c-0.03,0.8-0.07,1.44-0.11,1.91s-0.13,0.78-0.27,0.91c-0.15,0.22-0.36,0.36-0.63,0.44
		S9.18,8.84,8.81,8.84c-0.14,0-0.36-0.01-0.65-0.02L7.61,8.81C7.14,8.73,6.78,8.56,6.55,8.29C6.31,8.03,6.16,7.72,6.09,7.37
		c-0.07-0.35-0.1-0.78-0.1-1.27V5.47C5.99,5.18,5.98,4.96,5.96,4.82z M8.41,3.68c-0.54,0-0.94,0.14-1.18,0.42
		c-0.1,0.13-0.17,0.29-0.2,0.49C7.01,4.79,7,5.04,7.01,5.35C7,5.47,7,5.63,7.01,5.83c0.01,0.2,0.02,0.36,0.02,0.47l0.02,0.5
		c0.02,0.32,0.11,0.55,0.27,0.68C7.48,7.61,7.68,7.7,7.92,7.75c0.16,0.02,0.32,0.04,0.49,0.04c0.31,0,0.58-0.06,0.82-0.17
		c0.23-0.11,0.38-0.3,0.44-0.55C9.7,6.86,9.72,6.7,9.72,6.58c0.04-0.56,0.06-0.94,0.06-1.14c0-0.53-0.1-0.95-0.29-1.27
		C9.3,3.84,8.94,3.68,8.41,3.68z"/>
	<path d="M11.78,0l1.09,0.04c0,0.33-0.01,1.14-0.02,2.44c-0.02,1.6-0.02,2.86-0.02,3.77c0,1.01,0.01,1.81,0.04,2.41
		c-0.05,0.06-0.18,0.08-0.4,0.08L12.1,8.72c-0.07-0.01-0.16-0.01-0.26-0.01c-0.06,0-0.1,0-0.12,0.01c0.05-0.65,0.07-1.3,0.07-1.96
		c0-0.5-0.02-1.24-0.05-2.23c-0.03-0.99-0.05-1.74-0.05-2.24C11.69,1.44,11.72,0.68,11.78,0z"/>
	<path d="M13.81,4.82c0-0.3,0.01-0.55,0.04-0.77s0.1-0.48,0.21-0.8c0.1-0.23,0.33-0.41,0.67-0.52c0.34-0.12,0.72-0.17,1.13-0.17
		C15.92,2.56,16,2.57,16.1,2.57l0.48-0.01c0.67,0,1.19,0.18,1.55,0.53c0.14,0.1,0.25,0.28,0.33,0.54c0.08,0.26,0.12,0.62,0.14,1.06
		c0.02,0.44,0.02,0.7,0.02,0.77c-0.03,0.8-0.07,1.44-0.11,1.91s-0.13,0.78-0.27,0.91c-0.15,0.22-0.36,0.36-0.63,0.44
		s-0.59,0.12-0.95,0.12c-0.14,0-0.36-0.01-0.65-0.02l-0.55-0.01c-0.47-0.08-0.83-0.25-1.06-0.52C14.16,8.03,14,7.72,13.94,7.37
		c-0.07-0.35-0.1-0.78-0.1-1.27V5.47C13.83,5.18,13.83,4.96,13.81,4.82z M16.26,3.68c-0.54,0-0.94,0.14-1.18,0.42
		c-0.1,0.13-0.17,0.29-0.2,0.49c-0.03,0.2-0.04,0.45-0.03,0.76c-0.01,0.12-0.01,0.28,0.01,0.48c0.01,0.2,0.02,0.36,0.02,0.47
		l0.02,0.5c0.02,0.32,0.11,0.55,0.27,0.68c0.16,0.13,0.35,0.22,0.59,0.27c0.16,0.02,0.32,0.04,0.49,0.04c0.31,0,0.58-0.06,0.82-0.17
		c0.23-0.11,0.38-0.3,0.44-0.55c0.03-0.21,0.05-0.37,0.05-0.49c0.04-0.56,0.06-0.94,0.06-1.14c0-0.53-0.1-0.95-0.29-1.27
		C17.15,3.84,16.79,3.68,16.26,3.68z"/>
	<path d="M20.42,2.77c0.02,0.09,0.02,0.2,0.02,0.34v0.3c0.3-0.3,0.65-0.48,1.06-0.54c0.28-0.06,0.52-0.08,0.71-0.08
		c0.34,0,0.63,0.07,0.85,0.2c0.18,0.08,0.29,0.19,0.35,0.34c0.06-0.03,0.14-0.09,0.25-0.17c0.11-0.08,0.26-0.16,0.44-0.24
		c0.19-0.08,0.45-0.12,0.79-0.13c0.4-0.02,0.71,0,0.94,0.05c0.23,0.05,0.43,0.16,0.62,0.32c0.1,0.09,0.18,0.3,0.22,0.62
		s0.06,0.76,0.06,1.3c0,0.3-0.01,0.78-0.02,1.44c-0.02,0.64-0.02,1.1-0.02,1.37c0,0.22,0.01,0.5,0.02,0.82
		c-0.29,0.05-0.63,0.06-1.02,0.05c-0.02-0.22-0.02-0.61-0.02-1.19c0.02-0.62,0.02-1.1,0.02-1.44v-0.5
		c-0.01-0.06-0.02-0.18-0.02-0.35s-0.02-0.35-0.05-0.55c-0.02-0.2-0.07-0.35-0.14-0.46C25.42,4.1,25.26,4.01,25,3.98
		c-0.08-0.02-0.2-0.02-0.35-0.02c-0.23,0-0.43,0.04-0.6,0.11s-0.29,0.19-0.36,0.35c-0.02,0.18-0.02,0.32-0.02,0.42l0.01,0.34v0.44
		c0,0.27-0.01,0.69-0.02,1.25l-0.01,1.2c0,0.3,0,0.51,0.01,0.64c-0.17,0.02-0.4,0.04-0.68,0.04H22.6c-0.02-0.16-0.02-0.44-0.02-0.85
		V7.26l0.01-0.89c0-0.55-0.02-1.04-0.05-1.46c0-0.34-0.06-0.57-0.17-0.69s-0.32-0.19-0.62-0.19c-0.85,0-1.3,0.48-1.37,1.43
		c-0.01,0.12-0.01,0.3-0.01,0.53c0,0.26,0.01,0.62,0.02,1.08l0.01,0.59c0,0.33-0.01,0.67-0.04,1.02v0.05
		c-0.12,0.02-0.23,0.04-0.34,0.04l-0.4-0.01c-0.12,0-0.22,0-0.29,0.01L19.33,6.7c-0.02-0.94-0.02-1.65-0.02-2.12
		c0-0.38,0.01-0.99,0.02-1.82c0.21,0.02,0.33,0.02,0.37,0.02l0.26-0.01c0.04,0,0.09,0,0.16-0.01c0.06-0.01,0.13-0.01,0.19-0.01
		C20.39,2.74,20.42,2.75,20.42,2.77z"/>
	<path d="M27.4,4.82c0-0.3,0.01-0.55,0.04-0.77s0.1-0.48,0.21-0.8c0.1-0.23,0.33-0.41,0.67-0.52c0.34-0.12,0.72-0.17,1.13-0.17
		c0.06,0.01,0.14,0.01,0.24,0.01l0.48-0.01c0.67,0,1.19,0.18,1.55,0.53c0.14,0.1,0.25,0.28,0.33,0.54c0.08,0.26,0.12,0.62,0.14,1.06
		c0.02,0.44,0.02,0.7,0.02,0.77c-0.03,0.8-0.07,1.44-0.11,1.91s-0.13,0.78-0.27,0.91c-0.15,0.22-0.36,0.36-0.63,0.44
		s-0.59,0.12-0.95,0.12c-0.14,0-0.36-0.01-0.65-0.02l-0.55-0.01c-0.47-0.08-0.83-0.25-1.06-0.52c-0.24-0.26-0.39-0.57-0.46-0.92
		c-0.07-0.35-0.1-0.78-0.1-1.27V5.47C27.42,5.18,27.41,4.96,27.4,4.82z M29.84,3.68c-0.54,0-0.94,0.14-1.18,0.42
		c-0.1,0.13-0.17,0.29-0.2,0.49c-0.03,0.2-0.04,0.45-0.03,0.76c-0.01,0.12-0.01,0.28,0.01,0.48c0.01,0.2,0.02,0.36,0.02,0.47
		l0.02,0.5c0.02,0.32,0.11,0.55,0.27,0.68c0.16,0.13,0.35,0.22,0.59,0.27c0.16,0.02,0.32,0.04,0.49,0.04c0.31,0,0.58-0.06,0.82-0.17
		c0.23-0.11,0.38-0.3,0.44-0.55c0.03-0.21,0.05-0.37,0.05-0.49c0.04-0.56,0.06-0.94,0.06-1.14c0-0.53-0.1-0.95-0.29-1.27
		C30.73,3.84,30.37,3.68,29.84,3.68z"/>
	<path d="M34.06,2.76c0.02,0.09,0.02,0.2,0.02,0.34v0.3c0.27-0.16,0.59-0.3,0.96-0.43s0.74-0.19,1.1-0.19
		c0.44,0.02,0.8,0.14,1.08,0.37c0.19,0.17,0.29,0.85,0.29,2.05c0,0.3-0.01,0.78-0.02,1.42c-0.02,0.61-0.02,1.05-0.02,1.32
		c0,0.35,0,0.6,0.01,0.76c-0.15,0.02-0.37,0.04-0.66,0.04h-0.4C36.4,8.61,36.4,8.38,36.4,8.06V7.55l0.01-0.77
		c0.02-0.52,0.02-0.89,0.01-1.12c0-0.05-0.01-0.21-0.03-0.49c-0.02-0.28-0.07-0.53-0.14-0.74c-0.02-0.28-0.22-0.41-0.59-0.38
		c-0.55,0.01-0.96,0.08-1.22,0.23s-0.41,0.4-0.44,0.78C34,5.16,34,5.35,34,5.64c0,0.45,0.01,0.93,0.02,1.44
		c0.02,0.3,0.02,0.53,0.02,0.67c0,0.3-0.01,0.6-0.04,0.91v0.05c-0.15,0.03-0.3,0.05-0.45,0.04c-0.15,0-0.25-0.01-0.32-0.01
		c-0.13,0-0.23,0-0.3,0.01L32.93,6.7c-0.02-0.94-0.02-1.65-0.02-2.12c0-0.38,0.01-0.99,0.02-1.82c0.1,0.01,0.21,0.01,0.34,0.01
		s0.23,0,0.31-0.01c0.05,0,0.1,0,0.17-0.01c0.06-0.01,0.13-0.01,0.19-0.01C34.02,2.72,34.06,2.74,34.06,2.76z"/>
	<path d="M39.24,3.19h-0.13c-0.05,0-0.13,0.01-0.24,0.02c-0.11,0.01-0.24,0.02-0.4,0.02c-0.11,0-0.18-0.01-0.19-0.02
		c0.22-0.86,0.48-1.85,0.8-2.95c0.01-0.03,0.02-0.05,0.04-0.05c0.02,0,0.08,0,0.18,0.01c0.1,0.01,0.26,0.02,0.46,0.02
		c0.15,0,0.24,0.01,0.28,0.02l-0.24,0.92c-0.2,0.82-0.37,1.44-0.5,1.86L39.24,3.19z"/>
	<path d="M45.3,4.28c0,0.04-0.14,0.06-0.42,0.06c-0.21,0-0.36,0-0.46-0.01c-0.06,0-0.13,0-0.19-0.01c-0.06,0-0.12,0-0.16,0.01
		c0-0.01,0-0.15,0-0.41c0-0.27-0.23-0.43-0.7-0.49c-0.1-0.02-0.26-0.02-0.47-0.02c-0.22,0-0.43,0.02-0.61,0.05
		c-0.18,0.03-0.31,0.08-0.4,0.13c-0.1,0.08-0.18,0.2-0.24,0.35c-0.06,0.15-0.08,0.3-0.08,0.44c0,0.11,0.02,0.19,0.05,0.23
		c0.09,0.18,0.2,0.31,0.35,0.38c0.08,0.06,0.28,0.12,0.59,0.2c0.31,0.08,0.58,0.12,0.8,0.13c0.33,0.01,0.62,0.06,0.87,0.15
		c0.25,0.09,0.45,0.22,0.59,0.38c0.14,0.18,0.25,0.35,0.32,0.52c0.07,0.17,0.1,0.36,0.1,0.56c0,0.25-0.06,0.55-0.18,0.9
		c-0.18,0.38-0.46,0.65-0.84,0.83c-0.38,0.18-0.82,0.26-1.31,0.25c-0.54,0.02-1.01-0.05-1.42-0.21C41.1,8.55,40.78,8.32,40.56,8
		s-0.34-0.68-0.34-1.1V6.84c0.14-0.02,0.36-0.02,0.64-0.02c0.31,0,0.48,0.01,0.5,0.04c0.02,0.02,0.05,0.11,0.1,0.27
		s0.15,0.33,0.28,0.5c0.14,0.17,0.37,0.26,0.7,0.29c0.26,0.02,0.41,0.02,0.46,0.02c0.13,0,0.23-0.01,0.32-0.04s0.19-0.07,0.33-0.13
		c0.41-0.18,0.61-0.45,0.6-0.8c0.01-0.23-0.05-0.41-0.19-0.54c-0.13-0.13-0.3-0.21-0.5-0.26s-0.47-0.09-0.82-0.13
		c-0.25-0.02-0.45-0.05-0.6-0.07c-0.15-0.02-0.29-0.06-0.41-0.12c-0.42-0.14-0.73-0.35-0.95-0.64s-0.33-0.61-0.33-0.95
		c0-0.38,0.11-0.72,0.33-1.03s0.52-0.51,0.91-0.61c0.33-0.09,0.75-0.13,1.26-0.13c0.12,0,0.3,0.01,0.54,0.02
		c0.34,0.02,0.66,0.08,0.96,0.18c0.28,0.12,0.51,0.33,0.68,0.62C45.21,3.6,45.3,3.92,45.3,4.28z"/>
	<path d="M53.45,3.04h-0.01C53.2,3.08,52.97,3.1,52.76,3.1c-0.22,0-0.4-0.02-0.54-0.06c0.02-0.07,0.02-0.18,0.02-0.31
		c0-0.26-0.06-0.49-0.19-0.67s-0.3-0.31-0.53-0.39C51.37,1.61,51.19,1.58,51,1.58c-0.28,0-0.55,0.06-0.8,0.19s-0.46,0.29-0.6,0.51
		C49.45,2.5,49.39,2.74,49.42,3c0.1,0.61,0.52,0.92,1.26,0.95c0.92,0.03,1.61,0.24,2.08,0.64c0.46,0.39,0.7,0.89,0.7,1.5
		c0,0.58-0.11,1.07-0.33,1.48c-0.22,0.41-0.52,0.71-0.89,0.92s-0.79,0.31-1.25,0.31s-0.9-0.08-1.33-0.25s-0.79-0.41-1.08-0.73
		c-0.29-0.32-0.45-0.7-0.49-1.14V6.66c-0.02-0.1-0.04-0.2-0.04-0.32V6.25c0.18-0.02,0.31-0.02,0.41-0.02l0.44,0.01
		c0.09,0.01,0.21,0.01,0.37,0.01c-0.01,0.32,0.09,0.59,0.29,0.82c0.2,0.22,0.51,0.39,0.93,0.49c0.12,0.03,0.24,0.05,0.37,0.05
		c0.26,0,0.5-0.06,0.72-0.19c0.22-0.13,0.38-0.3,0.49-0.53s0.16-0.47,0.13-0.74c-0.03-0.3-0.13-0.53-0.31-0.68
		c-0.17-0.15-0.37-0.25-0.6-0.3c-0.23-0.05-0.54-0.09-0.94-0.12L49.9,5c-0.41-0.06-0.76-0.22-1.04-0.47s-0.48-0.55-0.59-0.88
		c-0.07-0.24-0.11-0.48-0.11-0.71c0-0.26,0.04-0.5,0.11-0.72c0.11-0.38,0.3-0.71,0.56-1.01c0.26-0.3,0.57-0.53,0.93-0.68
		c0.31-0.13,0.68-0.19,1.09-0.19c0.57,0,1.09,0.11,1.57,0.32c0.34,0.17,0.6,0.41,0.8,0.71c0.2,0.31,0.29,0.67,0.29,1.1
		C53.51,2.62,53.49,2.81,53.45,3.04z"/>
	<path d="M55.03,5.69V5.9l-0.01,0.35c0,0.99,0.49,1.49,1.46,1.49c0.39,0,0.68-0.09,0.87-0.27c0.19-0.18,0.28-0.43,0.28-0.74
		c0-0.05-0.01-0.14-0.02-0.26c0.17-0.02,0.32-0.04,0.47-0.04c0.13,0,0.22,0,0.29,0.01c0.05,0,0.11,0,0.17,0.01
		c0.07,0,0.15,0,0.23-0.01c0.01,0.46-0.01,0.82-0.05,1.09s-0.14,0.53-0.29,0.78c-0.14,0.22-0.39,0.37-0.75,0.46
		c-0.36,0.09-0.75,0.14-1.17,0.14c-0.19,0-0.37-0.01-0.53-0.02c-0.16-0.02-0.27-0.03-0.31-0.05c-0.62-0.1-1.08-0.5-1.36-1.18
		c-0.28-0.68-0.4-1.47-0.36-2.35c0.01-0.06,0.02-0.2,0.04-0.4c0.02-0.2,0.04-0.41,0.07-0.63c0.03-0.22,0.08-0.43,0.16-0.64
		c0.15-0.35,0.43-0.62,0.83-0.82c0.4-0.19,0.84-0.29,1.33-0.29c0.26,0,0.52,0.03,0.8,0.1c1.09,0.18,1.63,1,1.63,2.46
		c0,0.12-0.01,0.29-0.02,0.52c-0.15,0.05-0.6,0.09-1.34,0.12c-0.09,0.01-0.28,0.01-0.58,0.01c-0.63,0-1.1-0.01-1.4-0.02
		C55.28,5.72,55.13,5.71,55.03,5.69z M57.95,4.79c-0.01-0.25-0.07-0.49-0.19-0.73c-0.12-0.24-0.28-0.43-0.5-0.56
		c-0.12-0.06-0.22-0.09-0.31-0.11s-0.2-0.02-0.34-0.02c-0.52,0-0.89,0.11-1.11,0.32s-0.36,0.52-0.41,0.92
		c-0.02,0.1-0.02,0.16-0.02,0.19c0,0.1,0.05,0.16,0.14,0.19c0.09,0.03,0.29,0.05,0.59,0.05c0.3,0,0.55,0,0.76-0.01
		c0.77,0,1.2,0,1.3-0.01c0.04-0.01,0.07-0.02,0.08-0.03c0.01-0.01,0.02-0.03,0.02-0.07V4.79z"/>
	<path d="M63.29,2.7c0.18-0.01,0.42,0,0.71,0.02l0.31,0.02c0.02,0.13,0.02,0.22,0.02,0.29v0.12c-0.01,0.18-0.01,0.46-0.01,0.83
		c0,0.3,0.01,0.75,0.02,1.34l0.01,1.34c0,0.58-0.02,1.1-0.05,1.57c0,0.02,0,0.08,0,0.16c0,0.08-0.01,0.15-0.02,0.22
		c-0.02,0.06-0.06,0.1-0.13,0.12h-0.2l-0.38-0.01c-0.06,0-0.12,0-0.17,0.01c-0.05,0.01-0.09,0.01-0.13,0.01
		c-0.08-0.02-0.12-0.11-0.12-0.26c-0.01-0.06-0.01-0.14,0.01-0.22c0.01-0.08,0.02-0.15,0.02-0.2c-0.19,0.26-0.5,0.44-0.91,0.54
		c-0.42,0.1-0.82,0.14-1.22,0.14c-0.38,0-0.71-0.17-0.98-0.51c-0.27-0.34-0.47-0.76-0.59-1.25c-0.13-0.5-0.19-0.98-0.19-1.45
		c0-0.52,0.09-0.99,0.26-1.4c0.18-0.42,0.42-0.75,0.73-0.99s0.65-0.37,1.03-0.38l0.38-0.01c0.36,0,0.66,0.04,0.89,0.13
		c0.24,0.08,0.41,0.24,0.52,0.46c0-0.07,0.01-0.16,0.02-0.28c0.02-0.16,0.02-0.27,0.02-0.34C63.13,2.71,63.18,2.7,63.29,2.7z
		 M61.94,3.78c-0.42-0.01-0.77,0.1-1.05,0.32c-0.28,0.22-0.46,0.48-0.52,0.79c-0.06,0.23-0.1,0.54-0.1,0.94
		c0.04,1.29,0.56,1.9,1.56,1.85c0.41,0,0.7-0.07,0.89-0.22c0.18-0.14,0.3-0.35,0.34-0.61c0.04-0.26,0.07-0.66,0.07-1.19
		c0-0.58-0.02-0.98-0.07-1.22c-0.05-0.24-0.15-0.4-0.31-0.49S62.33,3.8,61.94,3.78z"/>
	<path d="M65.48,0l1.09,0.04c0,0.33-0.01,1.14-0.02,2.44c-0.02,1.6-0.02,2.86-0.02,3.77c0,1.01,0.01,1.81,0.04,2.41
		c-0.05,0.06-0.18,0.08-0.4,0.08L65.8,8.72c-0.07-0.01-0.16-0.01-0.26-0.01c-0.06,0-0.1,0-0.12,0.01c0.05-0.65,0.07-1.3,0.07-1.96
		c0-0.5-0.02-1.24-0.05-2.23c-0.03-0.99-0.05-1.74-0.05-2.24C65.39,1.44,65.42,0.68,65.48,0z"/>
	<path d="M68.06,0.3h0.04c0.06-0.01,0.15-0.02,0.29-0.04s0.26-0.02,0.36-0.02c0.12,0,0.24,0.01,0.36,0.04
		c-0.03,1.54-0.05,2.73-0.05,3.59c0,0.84,0.02,1.76,0.06,2.76c-0.18,0.02-0.39,0.04-0.62,0.05c-0.23,0.01-0.38,0.01-0.46,0.01h-0.01
		l0.01-0.82l-0.01-1.66C68.01,3.49,68,2.94,68,2.57C68,1.7,68.02,0.94,68.06,0.3z M68.68,8.71h-0.64C68.02,8.71,68,8.65,68,8.53
		c0-0.18,0.01-0.37,0.04-0.59c0.01-0.1,0.02-0.2,0.02-0.31s0.01-0.22,0.01-0.33V7.3c0.09-0.04,0.21-0.06,0.37-0.06l0.32,0.01
		c0.14,0.02,0.26,0.02,0.34,0.02L69.1,7.68c-0.02,0.46-0.02,0.81-0.02,1.03h-0.08h-0.3H68.68z"/>
</g>
</svg>
