<!-- Generator: Adobe Illustrator 23.1.1, SVG Export Plug-In  -->
<svg version="1.1" xmlns="http://www.w3.org/2000/svg" xmlns:xlink="http://www.w3.org/1999/xlink" x="0px" y="0px"
	 width="521.72px" height="70.42px" viewBox="0 0 521.72 70.42" style="enable-background:new 0 0 521.72 70.42;"
	 xml:space="preserve">
<defs>
</defs>
<g>
	<path d="M3.17,13.46C3.12,14.61,3.1,15.4,3.1,15.84c0,1.43,0.14,2.54,0.43,3.33c0.29,0.79,0.85,1.35,1.68,1.68
		c0.59,0.13,1.13,0.2,1.62,0.2c1.52,0,2.64-0.55,3.37-1.65c0.73-1.1,1.08-2.68,1.06-4.75c0.24,0.02,0.47,0.03,0.68,0.02
		c0.21-0.01,0.39-0.02,0.54-0.02c0.2-0.02,0.47-0.03,0.82-0.03c0.42,0,0.71,0.02,0.89,0.07c0.2,0.75,0.3,1.48,0.3,2.21
		c0,1.32-0.29,2.55-0.86,3.68c-0.57,1.13-1.38,2.04-2.43,2.72c-1.05,0.68-2.23,1.04-3.55,1.09c-0.42,0.07-0.85,0.1-1.29,0.1
		c-1.58,0-2.98-0.37-4.17-1.12C1,22.62,0.32,21.49,0.17,20C0.05,17.8,0,15.44,0,12.94c0-1.17,0.01-2.08,0.03-2.74L0.07,6.2
		c0-1.36,0.35-2.58,1.04-3.65c0.69-1.07,1.63-1.77,2.82-2.1c0.86-0.29,1.74-0.43,2.64-0.43c1.45,0,2.78,0.37,3.99,1.11
		c1.21,0.74,2.17,1.74,2.89,3c0.71,1.27,1.07,2.65,1.07,4.14c0,0.62-0.07,1.24-0.2,1.88c-0.66,0.11-1.19,0.17-1.58,0.17
		c-0.44,0-0.97-0.07-1.58-0.2V9.07c0-1.19-0.12-2.15-0.36-2.87C10.55,5.48,10,4.9,9.14,4.46C8.55,4.04,7.66,3.83,6.47,3.83
		c-0.35,0-0.63,0.01-0.83,0.03C4.76,3.91,4.12,4.54,3.73,5.77c-0.4,1.23-0.57,3.23-0.53,6.01L3.17,13.46z"/>
	<path d="M19.24,6.34v2.94c0.59-0.51,1.12-0.89,1.57-1.14c0.45-0.25,1.12-0.41,2-0.48c0.53-0.07,1.02-0.1,1.48-0.1
		c1.61,0,2.86,0.38,3.76,1.15c0.29,0.24,0.48,0.81,0.59,1.72c0.11,0.9,0.17,2.09,0.17,3.56c0,0.84-0.02,2.16-0.07,3.96
		c-0.04,1.76-0.07,3.01-0.07,3.76c0,0.62,0.02,1.36,0.07,2.24c-0.88,0.13-1.83,0.18-2.84,0.13c-0.04-0.66-0.07-1.23-0.07-1.72v-1.98
		v-6.47c-0.04-1.41-0.37-2.32-0.99-2.74c-0.13-0.09-0.4-0.18-0.79-0.26c-0.46-0.13-0.94-0.2-1.42-0.2c-0.86,0-1.59,0.21-2.19,0.64
		c-0.6,0.43-1,1.09-1.17,2c-0.15,0.84-0.23,1.84-0.23,3l0.03,1.12c0.04,1.45,0.07,2.65,0.07,3.6c0,1.19-0.02,2.1-0.07,2.74v0.13
		c-0.44,0.11-0.79,0.17-1.06,0.17l-0.99-0.03c-0.31,0-0.56,0.01-0.76,0.03c0-2.53-0.01-4.62-0.03-6.27L16.2,7.75
		c0-2.46,0.02-4.99,0.07-7.59c0.68,0.07,1.23,0.09,1.65,0.07c0.11,0,0.25-0.01,0.41-0.03c0.17-0.02,0.33-0.03,0.51-0.03
		c0.22,0,0.33,0.03,0.33,0.1c0.04,0.2,0.07,1.54,0.07,4.03V6.34z"/>
	<path d="M33.49,15.67v0.59l-0.03,0.96c0,2.73,1.34,4.09,4.03,4.09c1.08,0,1.88-0.25,2.39-0.74c0.52-0.49,0.78-1.17,0.78-2.03
		c0-0.13-0.02-0.37-0.07-0.73c0.46-0.07,0.89-0.1,1.29-0.1c0.35,0,0.62,0.01,0.79,0.03c0.13,0,0.29,0.01,0.48,0.02
		c0.19,0.01,0.4,0.01,0.64-0.02c0.02,1.25-0.02,2.26-0.13,3c-0.11,0.75-0.37,1.46-0.79,2.15c-0.4,0.59-1.08,1.02-2.06,1.27
		c-0.98,0.25-2.05,0.38-3.22,0.38c-0.53,0-1.02-0.02-1.47-0.07c-0.45-0.04-0.73-0.09-0.84-0.13c-1.72-0.29-2.96-1.37-3.73-3.25
		c-0.77-1.88-1.1-4.03-0.99-6.45c0.02-0.18,0.05-0.54,0.1-1.11c0.04-0.56,0.1-1.14,0.18-1.73c0.08-0.59,0.23-1.18,0.45-1.75
		c0.42-0.97,1.18-1.72,2.28-2.24c1.1-0.53,2.32-0.79,3.66-0.79c0.7,0,1.44,0.09,2.21,0.26c2.99,0.51,4.49,2.76,4.49,6.77
		c0,0.33-0.02,0.8-0.07,1.42c-0.42,0.13-1.65,0.24-3.7,0.33c-0.24,0.02-0.77,0.03-1.58,0.03c-1.74,0-3.02-0.02-3.86-0.07
		C34.17,15.77,33.76,15.74,33.49,15.67z M41.51,13.2c-0.02-0.68-0.19-1.35-0.51-2.01c-0.32-0.66-0.78-1.18-1.37-1.55
		c-0.33-0.15-0.62-0.25-0.86-0.3c-0.24-0.04-0.55-0.07-0.92-0.07c-1.43,0-2.45,0.3-3.05,0.89c-0.61,0.59-0.98,1.44-1.14,2.54
		c-0.04,0.26-0.07,0.44-0.07,0.53c0,0.26,0.13,0.44,0.38,0.53c0.25,0.09,0.8,0.13,1.63,0.13c0.81,0,1.51-0.01,2.08-0.03
		c2.11,0,3.3-0.01,3.56-0.03c0.11-0.02,0.18-0.05,0.21-0.08c0.03-0.03,0.05-0.09,0.05-0.18V13.2z"/>
	<path d="M55.6,17.56c0.26,0.04,0.51,0.07,0.73,0.07l1.16-0.03c0.35,0,0.66,0.03,0.92,0.1c-0.11,1.52-0.23,2.7-0.35,3.53
		c-0.12,0.84-0.31,1.39-0.58,1.65c-0.42,0.59-1,1-1.73,1.22c-0.74,0.22-1.61,0.33-2.62,0.33c-0.4,0-0.99-0.02-1.78-0.07l-1.52-0.03
		c-1.3-0.22-2.27-0.71-2.9-1.47c-0.64-0.76-1.05-1.66-1.24-2.69s-0.31-2.4-0.38-4.09c0-1.23-0.01-2.13-0.03-2.71
		c0-1.3,0.24-2.74,0.73-4.32c0.29-0.64,0.9-1.12,1.83-1.44c0.94-0.32,1.97-0.48,3.12-0.48c0.18,0.02,0.43,0.03,0.76,0.03
		c0.2,0,0.45-0.01,0.74-0.02c0.3-0.01,0.65-0.01,1.07,0.02c1.65,0.15,2.87,0.62,3.66,1.39c0.51,0.35,0.83,0.91,0.97,1.68
		c0.14,0.77,0.24,1.93,0.28,3.46l0.03,0.79c-0.33,0.07-0.66,0.1-0.99,0.1c-0.57,0-1.16-0.05-1.75-0.17c-0.02-1.56-0.3-2.63-0.84-3.2
		c-0.54-0.57-1.39-0.86-2.56-0.86c-0.24,0-0.67,0.02-1.29,0.07c-0.57,0.02-1.02,0.08-1.34,0.17c-0.32,0.09-0.6,0.3-0.84,0.63
		c-0.24,0.33-0.42,0.84-0.53,1.52c-0.07,0.46-0.1,1.29-0.1,2.48v2.64c-0.04,0.73,0.13,1.48,0.53,2.26c0.4,0.78,1.19,1.23,2.38,1.34
		c0.22,0.02,0.52,0.03,0.89,0.03c1.03,0,1.8-0.2,2.31-0.59c0.51-0.4,0.83-0.85,0.97-1.37C55.47,19,55.56,18.35,55.6,17.56z"/>
	<path d="M63.26,6.07c0,1.17-0.01,2.15-0.03,2.94l-0.03,2.38c0,0.44,0.02,0.88,0.07,1.32c1.12-0.84,2.02-1.56,2.71-2.16
		c0.68-0.6,1.5-1.35,2.44-2.23c0.62-0.62,1.09-1.07,1.42-1.35c0.37,0.09,0.87,0.13,1.48,0.13c0.46,0,0.8-0.01,1.02-0.03
		c0.15,0,0.32-0.01,0.51-0.02c0.19-0.01,0.38-0.01,0.58,0.02c-1.3,1.12-2.58,2.32-3.86,3.6c-1.34,1.34-2.73,2.62-4.16,3.83
		c1.63,1.69,2.89,3.05,3.79,4.08c0.9,1.02,1.9,2.23,3,3.61l1.52,1.85c-0.18,0-0.55,0.02-1.12,0.07c-0.62,0.04-1.11,0.07-1.48,0.07
		c-0.26,0-0.59-0.02-0.99-0.07c-0.35-0.4-0.81-0.97-1.39-1.72c-0.73-0.92-1.46-1.8-2.21-2.64c-0.75-0.84-1.84-1.89-3.27-3.17
		c0,0.62,0.01,1.14,0.03,1.58l0.03,2.51l-0.03,3.33c-0.22-0.02-0.61-0.01-1.15,0.03l-1.09,0.03c-0.33,0-0.56-0.01-0.69-0.03
		c-0.09-2.31-0.13-4.87-0.13-7.69c0-1.67,0.02-4.18,0.07-7.52c0.04-3.39,0.07-5.92,0.07-7.59V0.07c0.44,0,0.78-0.01,1.02-0.03
		L62.57,0c0.33,0,0.56,0.01,0.69,0.03V6.07z"/>
	<path d="M86.43,1.42v5.05l0.03,1.85c1.43-0.04,3.2-0.12,5.31-0.23c0.13,0.18,0.2,0.51,0.2,0.99l-0.03,0.76
		c-0.04,0.48-0.06,0.84-0.03,1.06c-2.4,0-4.19-0.01-5.38-0.03v5.05v1.12c0,0.99,0.02,1.69,0.07,2.11c0.04,0.42,0.13,0.78,0.26,1.09
		c0.35,0.44,1.06,0.72,2.13,0.82c1.07,0.11,2.04,0.14,2.92,0.1c0.11,0.88,0.17,1.44,0.17,1.68c0,0.4-0.06,0.79-0.17,1.19
		c-0.46,0.02-1.19,0.03-2.18,0.03c-1.72,0-3.06-0.21-4.03-0.63c-0.97-0.42-1.58-1.25-1.85-2.51c-0.24-2.13-0.36-4.92-0.36-8.35
		v-1.58c-0.13,0.02-0.46,0.03-0.99,0.03l-2.51-0.03l0.1-2.71c0.48,0.04,1.64,0.07,3.46,0.07l-0.03-3.47V3.33
		c0-0.92,0.02-1.57,0.07-1.95c0.31-0.02,0.78-0.01,1.42,0.03l0.89,0.03C86.14,1.45,86.31,1.44,86.43,1.42z"/>
	<path d="M96.52,6.34v2.94c0.59-0.51,1.12-0.89,1.57-1.14c0.45-0.25,1.12-0.41,2-0.48c0.53-0.07,1.02-0.1,1.48-0.1
		c1.61,0,2.86,0.38,3.76,1.15c0.29,0.24,0.48,0.81,0.59,1.72c0.11,0.9,0.17,2.09,0.17,3.56c0,0.84-0.02,2.16-0.07,3.96
		c-0.04,1.76-0.07,3.01-0.07,3.76c0,0.62,0.02,1.36,0.07,2.24c-0.88,0.13-1.83,0.18-2.84,0.13c-0.04-0.66-0.07-1.23-0.07-1.72v-1.98
		v-6.47c-0.04-1.41-0.37-2.32-0.99-2.74c-0.13-0.09-0.4-0.18-0.79-0.26c-0.46-0.13-0.94-0.2-1.42-0.2c-0.86,0-1.59,0.21-2.19,0.64
		c-0.6,0.43-1,1.09-1.17,2c-0.15,0.84-0.23,1.84-0.23,3l0.03,1.12c0.04,1.45,0.07,2.65,0.07,3.6c0,1.19-0.02,2.1-0.07,2.74v0.13
		c-0.44,0.11-0.79,0.17-1.06,0.17l-0.99-0.03c-0.31,0-0.56,0.01-0.76,0.03c0-2.53-0.01-4.62-0.03-6.27l-0.03-10.1
		c0-2.46,0.02-4.99,0.07-7.59c0.68,0.07,1.23,0.09,1.65,0.07c0.11,0,0.25-0.01,0.41-0.03c0.17-0.02,0.33-0.03,0.51-0.03
		c0.22,0,0.33,0.03,0.33,0.1c0.04,0.2,0.07,1.54,0.07,4.03V6.34z"/>
	<path d="M110.78,15.67v0.59l-0.03,0.96c0,2.73,1.34,4.09,4.03,4.09c1.08,0,1.88-0.25,2.39-0.74c0.52-0.49,0.78-1.17,0.78-2.03
		c0-0.13-0.02-0.37-0.07-0.73c0.46-0.07,0.89-0.1,1.29-0.1c0.35,0,0.62,0.01,0.79,0.03c0.13,0,0.29,0.01,0.48,0.02
		c0.19,0.01,0.4,0.01,0.64-0.02c0.02,1.25-0.02,2.26-0.13,3c-0.11,0.75-0.37,1.46-0.79,2.15c-0.4,0.59-1.08,1.02-2.06,1.27
		c-0.98,0.25-2.05,0.38-3.22,0.38c-0.53,0-1.02-0.02-1.47-0.07c-0.45-0.04-0.73-0.09-0.84-0.13c-1.72-0.29-2.96-1.37-3.73-3.25
		c-0.77-1.88-1.1-4.03-0.99-6.45c0.02-0.18,0.05-0.54,0.1-1.11c0.04-0.56,0.1-1.14,0.18-1.73c0.08-0.59,0.23-1.18,0.45-1.75
		c0.42-0.97,1.18-1.72,2.28-2.24c1.1-0.53,2.32-0.79,3.66-0.79c0.7,0,1.44,0.09,2.21,0.26c2.99,0.51,4.49,2.76,4.49,6.77
		c0,0.33-0.02,0.8-0.07,1.42c-0.42,0.13-1.65,0.24-3.7,0.33c-0.24,0.02-0.77,0.03-1.58,0.03c-1.74,0-3.02-0.02-3.86-0.07
		C111.45,15.77,111.04,15.74,110.78,15.67z M118.8,13.2c-0.02-0.68-0.19-1.35-0.51-2.01c-0.32-0.66-0.78-1.18-1.37-1.55
		c-0.33-0.15-0.62-0.25-0.86-0.3c-0.24-0.04-0.55-0.07-0.92-0.07c-1.43,0-2.45,0.3-3.05,0.89c-0.61,0.59-0.98,1.44-1.14,2.54
		c-0.04,0.26-0.07,0.44-0.07,0.53c0,0.26,0.13,0.44,0.38,0.53c0.25,0.09,0.8,0.13,1.63,0.13c0.81,0,1.51-0.01,2.08-0.03
		c2.11,0,3.3-0.01,3.56-0.03c0.11-0.02,0.18-0.05,0.21-0.08c0.03-0.03,0.05-0.09,0.05-0.18V13.2z"/>
	<path d="M132.03,15.67v0.59L132,17.23c0,2.73,1.34,4.09,4.03,4.09c1.08,0,1.88-0.25,2.39-0.74c0.52-0.49,0.78-1.17,0.78-2.03
		c0-0.13-0.02-0.37-0.07-0.73c0.46-0.07,0.89-0.1,1.29-0.1c0.35,0,0.62,0.01,0.79,0.03c0.13,0,0.29,0.01,0.48,0.02
		c0.19,0.01,0.4,0.01,0.64-0.02c0.02,1.25-0.02,2.26-0.13,3c-0.11,0.75-0.37,1.46-0.79,2.15c-0.4,0.59-1.08,1.02-2.06,1.27
		c-0.98,0.25-2.05,0.38-3.22,0.38c-0.53,0-1.02-0.02-1.47-0.07c-0.45-0.04-0.73-0.09-0.84-0.13c-1.72-0.29-2.96-1.37-3.73-3.25
		c-0.77-1.88-1.1-4.03-0.99-6.45c0.02-0.18,0.05-0.54,0.1-1.11c0.04-0.56,0.1-1.14,0.18-1.73c0.08-0.59,0.23-1.18,0.45-1.75
		c0.42-0.97,1.18-1.72,2.28-2.24c1.1-0.53,2.32-0.79,3.66-0.79c0.7,0,1.44,0.09,2.21,0.26c2.99,0.51,4.49,2.76,4.49,6.77
		c0,0.33-0.02,0.8-0.07,1.42c-0.42,0.13-1.65,0.24-3.7,0.33c-0.24,0.02-0.77,0.03-1.58,0.03c-1.74,0-3.02-0.02-3.86-0.07
		C132.7,15.77,132.29,15.74,132.03,15.67z M140.05,13.2c-0.02-0.68-0.19-1.35-0.51-2.01c-0.32-0.66-0.78-1.18-1.37-1.55
		c-0.33-0.15-0.62-0.25-0.86-0.3c-0.24-0.04-0.55-0.07-0.92-0.07c-1.43,0-2.45,0.3-3.05,0.89c-0.61,0.59-0.98,1.44-1.14,2.54
		c-0.04,0.26-0.07,0.44-0.07,0.53c0,0.26,0.13,0.44,0.38,0.53c0.25,0.09,0.8,0.13,1.63,0.13c0.81,0,1.51-0.01,2.08-0.03
		c2.11,0,3.3-0.01,3.56-0.03c0.11-0.02,0.18-0.05,0.21-0.08c0.03-0.03,0.05-0.09,0.05-0.18V13.2z"/>
	<path d="M154.14,1.25V0.89c0.04-0.11,0.57-0.17,1.58-0.17c0.57,0,1,0.02,1.29,0.07v2.18c0,2.09,0.04,5.14,0.13,9.14
		c0.02,0.99,0.04,2.17,0.07,3.55c0.02,1.38,0.03,2.94,0.03,4.7c0,1.63-0.01,2.84-0.03,3.63c-0.7,0.04-1.29,0.07-1.75,0.07
		c-0.59,0-1.03-0.02-1.32-0.07c-0.02-0.04-0.03-0.27-0.03-0.69c0-0.57-0.06-1.01-0.17-1.32c-0.15,0.35-0.41,0.7-0.78,1.06
		c-0.36,0.35-0.73,0.56-1.11,0.63c-0.59,0.2-1.25,0.3-1.98,0.3c-0.35,0-0.62-0.01-0.79-0.03c-1.56-0.11-2.74-0.6-3.53-1.47
		s-1.31-1.94-1.57-3.2c-0.25-1.26-0.4-2.81-0.45-4.64c0-1.85,0.25-3.37,0.74-4.57c0.5-1.2,1.36-1.96,2.59-2.29
		c0.81-0.22,1.74-0.33,2.77-0.33c0.84,0,1.49,0.06,1.95,0.17c0.44,0.07,0.84,0.21,1.19,0.45c0.35,0.23,0.63,0.47,0.82,0.73
		c0.2,0.25,0.31,0.44,0.33,0.54l-0.03-2.81c0-0.57-0.01-1.08-0.02-1.53c-0.01-0.45-0.01-0.81,0.02-1.07
		c0.02-0.11,0.03-0.25,0.02-0.41s-0.02-0.31-0.02-0.45V2.34C154.11,1.84,154.12,1.47,154.14,1.25z M150.94,9.9l-0.63-0.03
		c-1.19,0-2.1,0.29-2.74,0.87c-0.64,0.58-1,1.49-1.09,2.72c-0.07,0.48-0.1,1.21-0.1,2.18c0.04,1.45,0.23,2.58,0.54,3.38
		c0.32,0.8,0.76,1.36,1.32,1.68c0.56,0.32,1.3,0.48,2.23,0.48c1.06,0,1.85-0.25,2.38-0.74c0.53-0.5,0.87-1.15,1.02-1.96
		c0.15-0.81,0.23-1.88,0.23-3.2c-0.02-1.25-0.09-2.23-0.21-2.94c-0.12-0.7-0.41-1.28-0.86-1.72C152.58,10.19,151.88,9.94,150.94,9.9
		z"/>
	<path d="M172.16,28.31c-0.42,0.95-0.95,1.57-1.58,1.88c-0.64,0.31-1.38,0.5-2.21,0.56c-0.97,0.04-1.57,0.07-1.82,0.07
		c-0.42,0-0.96-0.02-1.62-0.07c-1.45-0.11-2.67-0.59-3.66-1.45c-0.99-0.86-1.48-1.94-1.48-3.23c0-0.29,0.01-0.51,0.03-0.66
		c0.11-0.04,0.41-0.08,0.89-0.12c0.48-0.03,0.95-0.05,1.39-0.05c0.37,0,0.58,0.02,0.63,0.07c0.02,0.04,0.03,0.21,0.03,0.5
		c0,0.57,0.13,1.08,0.4,1.52c0.26,0.44,0.83,0.73,1.68,0.86c0.44,0.02,1.01,0.03,1.72,0.03c0.92,0,1.6-0.05,2.03-0.15
		c0.43-0.1,0.7-0.28,0.82-0.53c0.12-0.25,0.16-0.63,0.12-1.14v-1.22v-1.09c0-0.11,0.01-0.23,0.02-0.36
		c0.01-0.13,0.03-0.32,0.05-0.56c-0.37,0.44-0.81,0.7-1.3,0.79c-0.5,0.09-1.41,0.13-2.76,0.13h-1.25c-2.2,0-3.63-0.69-4.29-2.08
		c-0.55-1.03-0.86-2.32-0.92-3.86c0-2.05,0.08-3.74,0.25-5.08c0.17-1.34,0.65-2.56,1.45-3.65s2.07-1.69,3.81-1.8
		c1.14-0.02,2.03,0.02,2.66,0.12c0.63,0.1,1.09,0.27,1.4,0.51c0.31,0.24,0.56,0.58,0.76,1.02c0.07-0.31,0.1-0.59,0.1-0.86
		c0-0.13-0.01-0.27-0.02-0.41c-0.01-0.14-0.01-0.28,0.02-0.41c0.57-0.04,1-0.07,1.29-0.07l1.72,0.03c0.09,2.55,0.13,5.54,0.13,8.98
		c0,3.41-0.06,6.38-0.17,8.91c0,0.22-0.01,0.52-0.02,0.89c-0.01,0.37-0.03,0.73-0.07,1.07C172.34,27.75,172.27,28.05,172.16,28.31z
		 M161.63,16.17v0.4c-0.07,1.19,0.13,2.3,0.59,3.33c0.46,1.03,1.32,1.58,2.57,1.65c0.33,0.02,0.78,0.03,1.35,0.03
		c1.19,0,2.04-0.21,2.56-0.63c0.52-0.42,0.81-1.23,0.87-2.44c0-1.56-0.01-2.82-0.03-3.76c0-2.22-0.5-3.6-1.49-4.12
		c-0.46-0.26-1.1-0.4-1.91-0.4c-0.44,0-0.87,0.03-1.29,0.1c-1.23,0.22-2.08,0.84-2.54,1.86C161.86,13.22,161.63,14.54,161.63,16.17z
		"/>
	<path d="M177.37,15.67v0.59l-0.03,0.96c0,2.73,1.34,4.09,4.03,4.09c1.08,0,1.88-0.25,2.39-0.74c0.52-0.49,0.78-1.17,0.78-2.03
		c0-0.13-0.02-0.37-0.07-0.73c0.46-0.07,0.89-0.1,1.29-0.1c0.35,0,0.62,0.01,0.79,0.03c0.13,0,0.29,0.01,0.48,0.02
		c0.19,0.01,0.4,0.01,0.64-0.02c0.02,1.25-0.02,2.26-0.13,3c-0.11,0.75-0.37,1.46-0.79,2.15c-0.4,0.59-1.08,1.02-2.06,1.27
		c-0.98,0.25-2.05,0.38-3.22,0.38c-0.53,0-1.02-0.02-1.47-0.07c-0.45-0.04-0.73-0.09-0.84-0.13c-1.72-0.29-2.96-1.37-3.73-3.25
		c-0.77-1.88-1.1-4.03-0.99-6.45c0.02-0.18,0.05-0.54,0.1-1.11c0.04-0.56,0.1-1.14,0.18-1.73c0.08-0.59,0.23-1.18,0.45-1.75
		c0.42-0.97,1.18-1.72,2.28-2.24c1.1-0.53,2.32-0.79,3.66-0.79c0.7,0,1.44,0.09,2.21,0.26c2.99,0.51,4.49,2.76,4.49,6.77
		c0,0.33-0.02,0.8-0.07,1.42c-0.42,0.13-1.65,0.24-3.7,0.33c-0.24,0.02-0.77,0.03-1.58,0.03c-1.74,0-3.02-0.02-3.86-0.07
		C178.04,15.77,177.64,15.74,177.37,15.67z M185.39,13.2c-0.02-0.68-0.19-1.35-0.51-2.01c-0.32-0.66-0.78-1.18-1.37-1.55
		c-0.33-0.15-0.62-0.25-0.86-0.3c-0.24-0.04-0.55-0.07-0.92-0.07c-1.43,0-2.45,0.3-3.05,0.89c-0.61,0.59-0.98,1.44-1.14,2.54
		c-0.04,0.26-0.07,0.44-0.07,0.53c0,0.26,0.13,0.44,0.38,0.53c0.25,0.09,0.8,0.13,1.63,0.13c0.81,0,1.51-0.01,2.08-0.03
		c2.11,0,3.3-0.01,3.56-0.03c0.11-0.02,0.18-0.05,0.21-0.08c0.03-0.03,0.05-0.09,0.05-0.18V13.2z"/>
	<path d="M202.71,11.81c0,0.11-0.38,0.17-1.15,0.17c-0.57,0-0.99-0.01-1.25-0.03c-0.18,0-0.35,0-0.53-0.02
		c-0.18-0.01-0.32,0-0.43,0.02c0-0.02,0-0.4,0-1.14c0-0.74-0.64-1.18-1.91-1.34c-0.29-0.04-0.72-0.07-1.29-0.07
		c-0.62,0-1.17,0.04-1.67,0.13s-0.86,0.21-1.11,0.36c-0.29,0.22-0.51,0.54-0.66,0.96c-0.15,0.42-0.23,0.83-0.23,1.22
		c0,0.31,0.04,0.52,0.13,0.63c0.24,0.51,0.56,0.86,0.96,1.06c0.22,0.15,0.76,0.34,1.62,0.56c0.86,0.22,1.6,0.34,2.21,0.36
		c0.9,0.02,1.7,0.16,2.39,0.41c0.69,0.25,1.24,0.6,1.63,1.04c0.4,0.48,0.69,0.96,0.87,1.44c0.19,0.47,0.28,0.98,0.28,1.53
		c0,0.68-0.17,1.51-0.5,2.48c-0.48,1.03-1.25,1.79-2.31,2.28c-1.06,0.48-2.25,0.71-3.6,0.69c-1.47,0.04-2.77-0.15-3.89-0.58
		c-1.12-0.43-1.99-1.07-2.61-1.93c-0.62-0.86-0.92-1.87-0.92-3.04v-0.17c0.4-0.04,0.98-0.07,1.75-0.07c0.86,0,1.32,0.03,1.39,0.1
		c0.04,0.04,0.14,0.29,0.28,0.74c0.14,0.45,0.4,0.91,0.78,1.37c0.37,0.46,1.01,0.73,1.91,0.79c0.7,0.04,1.12,0.07,1.25,0.07
		c0.35,0,0.64-0.03,0.87-0.1s0.53-0.19,0.91-0.36c1.12-0.51,1.67-1.24,1.65-2.21c0.02-0.64-0.15-1.13-0.51-1.48
		c-0.36-0.35-0.82-0.59-1.37-0.71c-0.55-0.12-1.3-0.24-2.24-0.35c-0.68-0.07-1.23-0.13-1.65-0.2s-0.79-0.18-1.12-0.33
		c-1.14-0.37-2.02-0.96-2.62-1.77c-0.6-0.8-0.91-1.68-0.91-2.62c0-1.03,0.3-1.97,0.91-2.82c0.6-0.85,1.44-1.4,2.49-1.67
		c0.9-0.24,2.06-0.36,3.46-0.36c0.33,0,0.83,0.02,1.49,0.07c0.95,0.07,1.83,0.23,2.64,0.5c0.77,0.33,1.4,0.9,1.88,1.7
		C202.47,9.93,202.71,10.82,202.71,11.81z"/>
	<path d="M210.64,13.3c0-0.81,0.04-1.52,0.12-2.11c0.08-0.59,0.27-1.33,0.58-2.21c0.29-0.64,0.9-1.12,1.83-1.44s1.97-0.48,3.12-0.48
		c0.15,0.02,0.37,0.03,0.66,0.03l1.32-0.03c1.85,0,3.27,0.48,4.26,1.45c0.4,0.26,0.7,0.76,0.91,1.48c0.21,0.73,0.33,1.7,0.38,2.92
		c0.04,1.22,0.07,1.93,0.07,2.13c-0.09,2.2-0.19,3.95-0.31,5.25c-0.12,1.3-0.37,2.13-0.74,2.51c-0.42,0.59-1,1-1.73,1.22
		c-0.74,0.22-1.61,0.33-2.62,0.33c-0.4,0-0.99-0.02-1.78-0.07l-1.52-0.03c-1.3-0.22-2.27-0.69-2.92-1.42
		c-0.65-0.73-1.07-1.57-1.25-2.54c-0.19-0.97-0.28-2.13-0.28-3.5v-1.72C210.7,14.27,210.68,13.67,210.64,13.3z M217.37,10.16
		c-1.5,0-2.57,0.39-3.23,1.15c-0.29,0.35-0.47,0.8-0.54,1.34c-0.08,0.54-0.1,1.24-0.08,2.1c-0.02,0.33-0.02,0.77,0.02,1.32
		c0.03,0.55,0.05,0.98,0.05,1.29l0.07,1.39c0.07,0.88,0.31,1.5,0.74,1.86c0.43,0.36,0.97,0.61,1.63,0.74
		c0.44,0.07,0.89,0.1,1.35,0.1c0.86,0,1.61-0.15,2.24-0.46c0.64-0.31,1.04-0.81,1.22-1.52c0.09-0.57,0.13-1.02,0.13-1.35
		c0.11-1.54,0.17-2.58,0.17-3.13c0-1.45-0.26-2.62-0.79-3.5C219.81,10.6,218.82,10.16,217.37,10.16z"/>
	<path d="M231,11.71v12.21c-0.33-0.02-0.72-0.01-1.16,0.03l-0.79,0.03c-0.35,0-0.64-0.02-0.86-0.07c-0.09-0.53-0.13-2.44-0.13-5.74
		l0.03-3.99c0.02-0.66,0.03-1.48,0.03-2.48c-0.24,0.02-0.73,0.03-1.45,0.03c-0.2-0.02-0.48-0.03-0.86-0.03
		c-0.33,0-0.57,0.01-0.73,0.03l-0.1-2.84c1.63,0,2.65,0.01,3.07,0.03l-0.03-1.32c0-1.65,0.26-3.04,0.78-4.16
		c0.52-1.12,1.51-1.78,2.99-1.98c1.21-0.11,2.51-0.17,3.89-0.17h1.29c0.13,0.42,0.2,0.86,0.2,1.32c0,0.24-0.06,0.8-0.17,1.68
		c-0.37-0.02-1.61,0.01-3.7,0.1c-0.7,0.04-1.19,0.1-1.45,0.18s-0.46,0.28-0.59,0.61c-0.13,0.33-0.2,0.91-0.2,1.75
		c0,0.29,0.02,0.98,0.07,2.08c1.3-0.02,3.23-0.03,5.81-0.03c-0.02,0.09-0.06,0.45-0.1,1.09c0,0.66-0.02,1.24-0.07,1.75l-3.79-0.1
		L231,11.71z"/>
	<path d="M249.67,1.42v5.05l0.03,1.85c1.43-0.04,3.2-0.12,5.31-0.23c0.13,0.18,0.2,0.51,0.2,0.99l-0.03,0.76
		c-0.04,0.48-0.06,0.84-0.03,1.06c-2.4,0-4.19-0.01-5.38-0.03v5.05v1.12c0,0.99,0.02,1.69,0.07,2.11c0.04,0.42,0.13,0.78,0.26,1.09
		c0.35,0.44,1.06,0.72,2.13,0.82c1.07,0.11,2.04,0.14,2.92,0.1c0.11,0.88,0.17,1.44,0.17,1.68c0,0.4-0.06,0.79-0.17,1.19
		c-0.46,0.02-1.19,0.03-2.18,0.03c-1.72,0-3.06-0.21-4.03-0.63c-0.97-0.42-1.58-1.25-1.85-2.51c-0.24-2.13-0.36-4.92-0.36-8.35
		v-1.58c-0.13,0.02-0.46,0.03-0.99,0.03l-2.51-0.03l0.1-2.71c0.48,0.04,1.64,0.07,3.46,0.07l-0.03-3.47V3.33
		c0-0.92,0.02-1.57,0.07-1.95c0.31-0.02,0.78-0.01,1.42,0.03l0.89,0.03C249.39,1.45,249.56,1.44,249.67,1.42z"/>
	<path d="M259.77,6.34v2.94c0.59-0.51,1.12-0.89,1.57-1.14c0.45-0.25,1.12-0.41,2-0.48c0.53-0.07,1.02-0.1,1.48-0.1
		c1.61,0,2.86,0.38,3.76,1.15c0.29,0.24,0.48,0.81,0.59,1.72c0.11,0.9,0.17,2.09,0.17,3.56c0,0.84-0.02,2.16-0.07,3.96
		c-0.04,1.76-0.07,3.01-0.07,3.76c0,0.62,0.02,1.36,0.07,2.24c-0.88,0.13-1.83,0.18-2.84,0.13c-0.04-0.66-0.07-1.23-0.07-1.72v-1.98
		v-6.47c-0.04-1.41-0.37-2.32-0.99-2.74c-0.13-0.09-0.4-0.18-0.79-0.26c-0.46-0.13-0.94-0.2-1.42-0.2c-0.86,0-1.59,0.21-2.19,0.64
		c-0.6,0.43-1,1.09-1.17,2c-0.15,0.84-0.23,1.84-0.23,3l0.03,1.12c0.04,1.45,0.07,2.65,0.07,3.6c0,1.19-0.02,2.1-0.07,2.74v0.13
		c-0.44,0.11-0.79,0.17-1.06,0.17l-0.99-0.03c-0.31,0-0.56,0.01-0.76,0.03c0-2.53-0.01-4.62-0.03-6.27l-0.03-10.1
		c0-2.46,0.02-4.99,0.07-7.59c0.68,0.07,1.23,0.09,1.65,0.07c0.11,0,0.25-0.01,0.41-0.03c0.17-0.02,0.33-0.03,0.51-0.03
		c0.22,0,0.33,0.03,0.33,0.1c0.04,0.2,0.07,1.54,0.07,4.03V6.34z"/>
	<path d="M274.03,15.67v0.59L274,17.23c0,2.73,1.34,4.09,4.03,4.09c1.08,0,1.88-0.25,2.39-0.74c0.52-0.49,0.78-1.17,0.78-2.03
		c0-0.13-0.02-0.37-0.07-0.73c0.46-0.07,0.89-0.1,1.29-0.1c0.35,0,0.62,0.01,0.79,0.03c0.13,0,0.29,0.01,0.48,0.02
		c0.19,0.01,0.4,0.01,0.64-0.02c0.02,1.25-0.02,2.26-0.13,3c-0.11,0.75-0.37,1.46-0.79,2.15c-0.4,0.59-1.08,1.02-2.06,1.27
		c-0.98,0.25-2.05,0.38-3.22,0.38c-0.53,0-1.02-0.02-1.47-0.07c-0.45-0.04-0.73-0.09-0.84-0.13c-1.72-0.29-2.96-1.37-3.73-3.25
		c-0.77-1.88-1.1-4.03-0.99-6.45c0.02-0.18,0.05-0.54,0.1-1.11c0.04-0.56,0.1-1.14,0.18-1.73c0.08-0.59,0.23-1.18,0.45-1.75
		c0.42-0.97,1.18-1.72,2.28-2.24c1.1-0.53,2.32-0.79,3.66-0.79c0.7,0,1.44,0.09,2.21,0.26c2.99,0.51,4.49,2.76,4.49,6.77
		c0,0.33-0.02,0.8-0.07,1.42c-0.42,0.13-1.65,0.24-3.7,0.33c-0.24,0.02-0.77,0.03-1.58,0.03c-1.74,0-3.02-0.02-3.86-0.07
		C274.7,15.77,274.29,15.74,274.03,15.67z M282.05,13.2c-0.02-0.68-0.19-1.35-0.51-2.01c-0.32-0.66-0.78-1.18-1.37-1.55
		c-0.33-0.15-0.62-0.25-0.86-0.3c-0.24-0.04-0.55-0.07-0.92-0.07c-1.43,0-2.45,0.3-3.05,0.89c-0.61,0.59-0.98,1.44-1.14,2.54
		c-0.04,0.26-0.07,0.44-0.07,0.53c0,0.26,0.13,0.44,0.38,0.53c0.25,0.09,0.8,0.13,1.63,0.13c0.81,0,1.51-0.01,2.08-0.03
		c2.11,0,3.3-0.01,3.56-0.03c0.11-0.02,0.18-0.05,0.21-0.08c0.03-0.03,0.05-0.09,0.05-0.18V13.2z"/>
	<path d="M293.66,0.03l3,0.1c0,0.9-0.02,3.14-0.07,6.7c-0.04,4.4-0.07,7.85-0.07,10.36c0,2.77,0.03,4.98,0.1,6.63
		c-0.13,0.15-0.5,0.23-1.09,0.23l-1.02-0.03c-0.2-0.02-0.44-0.03-0.73-0.03c-0.18,0-0.29,0.01-0.33,0.03
		c0.13-1.78,0.2-3.57,0.2-5.38c0-1.36-0.04-3.41-0.13-6.14c-0.09-2.73-0.13-4.78-0.13-6.17C293.4,4,293.49,1.9,293.66,0.03z"/>
	<path d="M302.08,15.67v0.59l-0.03,0.96c0,2.73,1.34,4.09,4.03,4.09c1.08,0,1.88-0.25,2.39-0.74c0.52-0.49,0.78-1.17,0.78-2.03
		c0-0.13-0.02-0.37-0.07-0.73c0.46-0.07,0.89-0.1,1.29-0.1c0.35,0,0.62,0.01,0.79,0.03c0.13,0,0.29,0.01,0.48,0.02
		c0.19,0.01,0.4,0.01,0.64-0.02c0.02,1.25-0.02,2.26-0.13,3c-0.11,0.75-0.37,1.46-0.79,2.15c-0.4,0.59-1.08,1.02-2.06,1.27
		c-0.98,0.25-2.05,0.38-3.22,0.38c-0.53,0-1.02-0.02-1.47-0.07c-0.45-0.04-0.73-0.09-0.84-0.13c-1.72-0.29-2.96-1.37-3.73-3.25
		c-0.77-1.88-1.1-4.03-0.99-6.45c0.02-0.18,0.05-0.54,0.1-1.11c0.04-0.56,0.1-1.14,0.18-1.73c0.08-0.59,0.23-1.18,0.45-1.75
		c0.42-0.97,1.18-1.72,2.28-2.24c1.1-0.53,2.32-0.79,3.66-0.79c0.7,0,1.44,0.09,2.21,0.26c2.99,0.51,4.49,2.76,4.49,6.77
		c0,0.33-0.02,0.8-0.07,1.42c-0.42,0.13-1.65,0.24-3.7,0.33c-0.24,0.02-0.77,0.03-1.58,0.03c-1.74,0-3.02-0.02-3.86-0.07
		C302.75,15.77,302.34,15.74,302.08,15.67z M310.1,13.2c-0.02-0.68-0.19-1.35-0.51-2.01c-0.32-0.66-0.78-1.18-1.37-1.55
		c-0.33-0.15-0.62-0.25-0.86-0.3c-0.24-0.04-0.55-0.07-0.92-0.07c-1.43,0-2.45,0.3-3.05,0.89c-0.61,0.59-0.98,1.44-1.14,2.54
		c-0.04,0.26-0.07,0.44-0.07,0.53c0,0.26,0.13,0.44,0.38,0.53c0.25,0.09,0.8,0.13,1.63,0.13c0.81,0,1.51-0.01,2.08-0.03
		c2.11,0,3.3-0.01,3.56-0.03c0.11-0.02,0.18-0.05,0.21-0.08c0.03-0.03,0.05-0.09,0.05-0.18V13.2z"/>
	<path d="M324.78,7.46c0.51-0.02,1.15,0,1.95,0.07l0.86,0.07c0.04,0.35,0.07,0.62,0.07,0.79v0.33c-0.02,0.51-0.03,1.27-0.03,2.28
		c0,0.84,0.02,2.07,0.07,3.7l0.03,3.7c0,1.58-0.04,3.03-0.13,4.32c0,0.07,0,0.21,0,0.43c0,0.22-0.02,0.42-0.07,0.59
		c-0.04,0.18-0.17,0.29-0.36,0.33h-0.56l-1.06-0.03c-0.18,0-0.33,0.01-0.46,0.03c-0.13,0.02-0.25,0.03-0.36,0.03
		c-0.22-0.07-0.33-0.31-0.33-0.73c-0.02-0.18-0.02-0.37,0.02-0.59c0.03-0.22,0.05-0.41,0.05-0.56c-0.53,0.73-1.36,1.22-2.51,1.48
		c-1.14,0.26-2.27,0.4-3.37,0.4c-1.06,0-1.95-0.47-2.69-1.4c-0.74-0.94-1.28-2.08-1.63-3.45c-0.35-1.36-0.53-2.69-0.53-3.99
		c0-1.43,0.24-2.72,0.73-3.86c0.48-1.14,1.15-2.05,2-2.72c0.85-0.67,1.79-1.02,2.82-1.04l1.06-0.03c0.99,0,1.81,0.12,2.46,0.35
		c0.65,0.23,1.13,0.65,1.44,1.27c0-0.2,0.02-0.45,0.07-0.76c0.04-0.44,0.07-0.75,0.07-0.92C324.35,7.48,324.5,7.46,324.78,7.46z
		 M321.09,10.43c-1.14-0.02-2.11,0.27-2.89,0.87c-0.78,0.61-1.26,1.33-1.44,2.16c-0.18,0.64-0.26,1.5-0.26,2.57
		c0.11,3.54,1.54,5.24,4.29,5.08c1.12,0,1.94-0.2,2.44-0.59c0.51-0.4,0.82-0.96,0.94-1.68s0.18-1.81,0.18-3.27
		c0-1.58-0.07-2.7-0.2-3.35c-0.13-0.65-0.41-1.09-0.84-1.34C322.88,10.65,322.14,10.49,321.09,10.43z"/>
	<path d="M335.18,11.71v12.21c-0.33-0.02-0.72-0.01-1.16,0.03l-0.79,0.03c-0.35,0-0.64-0.02-0.86-0.07
		c-0.09-0.53-0.13-2.44-0.13-5.74l0.03-3.99c0.02-0.66,0.03-1.48,0.03-2.48c-0.24,0.02-0.73,0.03-1.45,0.03
		c-0.2-0.02-0.48-0.03-0.86-0.03c-0.33,0-0.57,0.01-0.73,0.03l-0.1-2.84c1.63,0,2.65,0.01,3.07,0.03l-0.03-1.32
		c0-1.65,0.26-3.04,0.78-4.16c0.52-1.12,1.51-1.78,2.99-1.98c1.21-0.11,2.51-0.17,3.89-0.17h1.29c0.13,0.42,0.2,0.86,0.2,1.32
		c0,0.24-0.06,0.8-0.17,1.68c-0.37-0.02-1.61,0.01-3.7,0.1c-0.7,0.04-1.19,0.1-1.45,0.18s-0.46,0.28-0.59,0.61
		c-0.13,0.33-0.2,0.91-0.2,1.75c0,0.29,0.02,0.98,0.07,2.08c1.3-0.02,3.23-0.03,5.81-0.03c-0.02,0.09-0.06,0.45-0.1,1.09
		c0,0.66-0.02,1.24-0.07,1.75l-3.79-0.1L335.18,11.71z"/>
	<path d="M344.35,24.02l-2.51-0.03h-0.1c-0.07-0.4-0.1-0.9-0.1-1.52l0.03-1.62c0.02-0.2,0.03-0.43,0.03-0.69
		c0.4-0.15,0.92-0.23,1.58-0.23c0.62,0,1.06,0.06,1.32,0.17c0,0.11-0.03,0.7-0.1,1.78c-0.07,1.08-0.1,1.77-0.1,2.08v0.07H344.35z"/>
	<path d="M361.51,0.76c2.18,9.57,3.9,17.31,5.18,23.23v0.03c-0.46,0.09-0.94,0.13-1.42,0.13c-0.24,0-0.5-0.02-0.76-0.07
		c-0.35-0.04-0.61-0.09-0.76-0.13h-0.03c-0.15-0.44-0.36-1.2-0.63-2.28c-0.33-1.3-0.63-2.36-0.89-3.2
		c-1.01-0.04-2.34-0.07-3.99-0.07h-1.39c0,0.02-0.08,0.47-0.23,1.35c-0.2,1.21-0.39,2.21-0.56,2.99c-0.18,0.78-0.37,1.19-0.59,1.24
		c-0.04,0.02-0.15,0.03-0.33,0.03c-0.15,0-0.45-0.01-0.87-0.03c-0.43-0.02-0.92-0.02-1.47,0h-0.36v-0.03
		c0.07-0.13,0.17-0.71,0.3-1.75c0.55-3.48,1.19-7,1.93-10.58c0.74-3.57,1.72-7.14,2.95-10.71c0.13-0.02,0.31-0.03,0.53-0.03h0.73
		C359.7,0.89,360.59,0.85,361.51,0.76z M358.51,15.84c1.41,0,2.66-0.01,3.76-0.03c-1.23-6.93-1.97-10.52-2.21-10.76
		c-0.2-0.07-0.36-0.1-0.5-0.1c-0.26,0-0.48,0.21-0.66,0.64c-0.18,0.43-0.42,1.39-0.73,2.89c-0.31,1.5-0.67,3.39-1.09,5.68l-0.3,1.65
		h0.66C357.89,15.81,358.24,15.82,358.51,15.84z"/>
	<path d="M370.78,7.62c0,0.26,0.01,0.47,0.02,0.61c0.01,0.14,0.02,0.31,0.02,0.51c0.15-0.09,0.37-0.19,0.64-0.3
		c0.27-0.11,0.58-0.22,0.91-0.33c0.51-0.18,1.12-0.3,1.83-0.38c0.71-0.08,1.36-0.12,1.93-0.12c0.53,0,0.79,0.02,0.79,0.07
		l-0.03,2.74c0,0.44,0.01,0.77,0.03,0.99c-0.33-0.13-0.7-0.25-1.12-0.36c-0.48-0.11-1.01-0.16-1.58-0.16
		c-0.59,0-1.27,0.09-2.01,0.26c-0.62,0.15-1.03,0.39-1.25,0.69c-0.22,0.31-0.32,0.89-0.3,1.75c0.09,3.01,0.13,6.44,0.13,10.26v0.13
		c-0.37,0.09-0.76,0.13-1.15,0.13c-0.15,0-0.4-0.01-0.74-0.02c-0.34-0.01-0.69-0.01-1.04,0.02l-0.03-5.68
		c-0.04-2.6-0.07-4.54-0.07-5.84c0-1.06,0.02-2.73,0.07-5.02c0.22,0.02,0.46,0.03,0.71,0.02c0.25-0.01,0.48-0.02,0.68-0.02
		c0.26-0.02,0.62-0.03,1.06-0.03C370.61,7.56,370.78,7.58,370.78,7.62z"/>
	<path d="M381.41,15.67v0.59l-0.03,0.96c0,2.73,1.34,4.09,4.03,4.09c1.08,0,1.88-0.25,2.39-0.74c0.52-0.49,0.78-1.17,0.78-2.03
		c0-0.13-0.02-0.37-0.07-0.73c0.46-0.07,0.89-0.1,1.29-0.1c0.35,0,0.62,0.01,0.79,0.03c0.13,0,0.29,0.01,0.48,0.02
		c0.19,0.01,0.4,0.01,0.64-0.02c0.02,1.25-0.02,2.26-0.13,3c-0.11,0.75-0.37,1.46-0.79,2.15c-0.4,0.59-1.08,1.02-2.06,1.27
		c-0.98,0.25-2.05,0.38-3.22,0.38c-0.53,0-1.02-0.02-1.47-0.07c-0.45-0.04-0.73-0.09-0.84-0.13c-1.72-0.29-2.96-1.37-3.73-3.25
		c-0.77-1.88-1.1-4.03-0.99-6.45c0.02-0.18,0.05-0.54,0.1-1.11c0.04-0.56,0.1-1.14,0.18-1.73c0.08-0.59,0.23-1.18,0.45-1.75
		c0.42-0.97,1.18-1.72,2.28-2.24c1.1-0.53,2.32-0.79,3.66-0.79c0.7,0,1.44,0.09,2.21,0.26c2.99,0.51,4.49,2.76,4.49,6.77
		c0,0.33-0.02,0.8-0.07,1.42c-0.42,0.13-1.65,0.24-3.7,0.33c-0.24,0.02-0.77,0.03-1.58,0.03c-1.74,0-3.02-0.02-3.86-0.07
		C382.08,15.77,381.67,15.74,381.41,15.67z M389.43,13.2c-0.02-0.68-0.19-1.35-0.51-2.01c-0.32-0.66-0.78-1.18-1.37-1.55
		c-0.33-0.15-0.62-0.25-0.86-0.3c-0.24-0.04-0.55-0.07-0.92-0.07c-1.43,0-2.45,0.3-3.05,0.89c-0.61,0.59-0.98,1.44-1.14,2.54
		c-0.04,0.26-0.07,0.44-0.07,0.53c0,0.26,0.13,0.44,0.38,0.53c0.25,0.09,0.8,0.13,1.63,0.13c0.81,0,1.51-0.01,2.08-0.03
		c2.11,0,3.3-0.01,3.56-0.03c0.11-0.02,0.18-0.05,0.21-0.08c0.03-0.03,0.05-0.09,0.05-0.18V13.2z"/>
	<path d="M405.4,1.42v5.05l0.03,1.85c1.43-0.04,3.2-0.12,5.31-0.23c0.13,0.18,0.2,0.51,0.2,0.99l-0.03,0.76
		c-0.04,0.48-0.06,0.84-0.03,1.06c-2.4,0-4.19-0.01-5.38-0.03v5.05v1.12c0,0.99,0.02,1.69,0.07,2.11c0.04,0.42,0.13,0.78,0.26,1.09
		c0.35,0.44,1.06,0.72,2.13,0.82c1.07,0.11,2.04,0.14,2.92,0.1c0.11,0.88,0.17,1.44,0.17,1.68c0,0.4-0.06,0.79-0.17,1.19
		c-0.46,0.02-1.19,0.03-2.18,0.03c-1.72,0-3.06-0.21-4.03-0.63c-0.97-0.42-1.58-1.25-1.85-2.51c-0.24-2.13-0.36-4.92-0.36-8.35
		v-1.58c-0.13,0.02-0.46,0.03-0.99,0.03l-2.51-0.03l0.1-2.71c0.48,0.04,1.64,0.07,3.46,0.07l-0.03-3.47V3.33
		c0-0.92,0.02-1.57,0.07-1.95c0.31-0.02,0.78-0.01,1.42,0.03l0.89,0.03C405.11,1.45,405.29,1.44,405.4,1.42z"/>
	<path d="M415.5,6.34v2.94c0.59-0.51,1.12-0.89,1.57-1.14c0.45-0.25,1.12-0.41,2-0.48c0.53-0.07,1.02-0.1,1.48-0.1
		c1.61,0,2.86,0.38,3.76,1.15c0.29,0.24,0.48,0.81,0.59,1.72c0.11,0.9,0.17,2.09,0.17,3.56c0,0.84-0.02,2.16-0.07,3.96
		c-0.04,1.76-0.07,3.01-0.07,3.76c0,0.62,0.02,1.36,0.07,2.24c-0.88,0.13-1.83,0.18-2.84,0.13c-0.04-0.66-0.07-1.23-0.07-1.72v-1.98
		v-6.47c-0.04-1.41-0.37-2.32-0.99-2.74c-0.13-0.09-0.4-0.18-0.79-0.26c-0.46-0.13-0.94-0.2-1.42-0.2c-0.86,0-1.59,0.21-2.19,0.64
		c-0.6,0.43-1,1.09-1.17,2c-0.15,0.84-0.23,1.84-0.23,3l0.03,1.12c0.04,1.45,0.07,2.65,0.07,3.6c0,1.19-0.02,2.1-0.07,2.74v0.13
		c-0.44,0.11-0.79,0.17-1.06,0.17l-0.99-0.03c-0.31,0-0.56,0.01-0.76,0.03c0-2.53-0.01-4.62-0.03-6.27l-0.03-10.1
		c0-2.46,0.02-4.99,0.07-7.59c0.68,0.07,1.23,0.09,1.65,0.07c0.11,0,0.25-0.01,0.41-0.03c0.17-0.02,0.33-0.03,0.51-0.03
		c0.22,0,0.33,0.03,0.33,0.1c0.04,0.2,0.07,1.54,0.07,4.03V6.34z"/>
	<path d="M429.75,15.67v0.59l-0.03,0.96c0,2.73,1.34,4.09,4.03,4.09c1.08,0,1.88-0.25,2.39-0.74c0.52-0.49,0.78-1.17,0.78-2.03
		c0-0.13-0.02-0.37-0.07-0.73c0.46-0.07,0.89-0.1,1.29-0.1c0.35,0,0.62,0.01,0.79,0.03c0.13,0,0.29,0.01,0.48,0.02
		c0.19,0.01,0.4,0.01,0.64-0.02c0.02,1.25-0.02,2.26-0.13,3c-0.11,0.75-0.37,1.46-0.79,2.15c-0.4,0.59-1.08,1.02-2.06,1.27
		c-0.98,0.25-2.05,0.38-3.22,0.38c-0.53,0-1.02-0.02-1.47-0.07c-0.45-0.04-0.73-0.09-0.84-0.13c-1.72-0.29-2.96-1.37-3.73-3.25
		c-0.77-1.88-1.1-4.03-0.99-6.45c0.02-0.18,0.05-0.54,0.1-1.11c0.04-0.56,0.1-1.14,0.18-1.73c0.08-0.59,0.23-1.18,0.45-1.75
		c0.42-0.97,1.18-1.72,2.28-2.24c1.1-0.53,2.32-0.79,3.66-0.79c0.7,0,1.44,0.09,2.21,0.26c2.99,0.51,4.49,2.76,4.49,6.77
		c0,0.33-0.02,0.8-0.07,1.42c-0.42,0.13-1.65,0.24-3.7,0.33c-0.24,0.02-0.77,0.03-1.58,0.03c-1.74,0-3.02-0.02-3.86-0.07
		C430.43,15.77,430.02,15.74,429.75,15.67z M437.77,13.2c-0.02-0.68-0.19-1.35-0.51-2.01c-0.32-0.66-0.78-1.18-1.37-1.55
		c-0.33-0.15-0.62-0.25-0.86-0.3c-0.24-0.04-0.55-0.07-0.92-0.07c-1.43,0-2.45,0.3-3.05,0.89c-0.61,0.59-0.98,1.44-1.14,2.54
		c-0.04,0.26-0.07,0.44-0.07,0.53c0,0.26,0.13,0.44,0.38,0.53c0.25,0.09,0.8,0.13,1.63,0.13c0.81,0,1.51-0.01,2.08-0.03
		c2.11,0,3.3-0.01,3.56-0.03c0.11-0.02,0.18-0.05,0.21-0.08c0.03-0.03,0.05-0.09,0.05-0.18V13.2z"/>
	<path d="M444.97,7.62c0,0.26,0.01,0.47,0.02,0.61c0.01,0.14,0.02,0.31,0.02,0.51c0.15-0.09,0.37-0.19,0.64-0.3
		c0.27-0.11,0.58-0.22,0.91-0.33c0.51-0.18,1.12-0.3,1.83-0.38c0.71-0.08,1.36-0.12,1.93-0.12c0.53,0,0.79,0.02,0.79,0.07
		l-0.03,2.74c0,0.44,0.01,0.77,0.03,0.99c-0.33-0.13-0.7-0.25-1.12-0.36c-0.48-0.11-1.01-0.16-1.58-0.16
		c-0.59,0-1.27,0.09-2.01,0.26c-0.62,0.15-1.03,0.39-1.25,0.69c-0.22,0.31-0.32,0.89-0.3,1.75c0.09,3.01,0.13,6.44,0.13,10.26v0.13
		c-0.37,0.09-0.76,0.13-1.15,0.13c-0.15,0-0.4-0.01-0.74-0.02c-0.34-0.01-0.69-0.01-1.04,0.02L442,18.45
		c-0.04-2.6-0.07-4.54-0.07-5.84c0-1.06,0.02-2.73,0.07-5.02c0.22,0.02,0.46,0.03,0.71,0.02c0.25-0.01,0.48-0.02,0.68-0.02
		c0.26-0.02,0.62-0.03,1.06-0.03C444.79,7.56,444.97,7.58,444.97,7.62z"/>
	<path d="M455.59,15.67v0.59l-0.03,0.96c0,2.73,1.34,4.09,4.03,4.09c1.08,0,1.88-0.25,2.39-0.74c0.52-0.49,0.78-1.17,0.78-2.03
		c0-0.13-0.02-0.37-0.07-0.73c0.46-0.07,0.89-0.1,1.29-0.1c0.35,0,0.62,0.01,0.79,0.03c0.13,0,0.29,0.01,0.48,0.02
		c0.19,0.01,0.4,0.01,0.64-0.02c0.02,1.25-0.02,2.26-0.13,3c-0.11,0.75-0.37,1.46-0.79,2.15c-0.4,0.59-1.08,1.02-2.06,1.27
		c-0.98,0.25-2.05,0.38-3.22,0.38c-0.53,0-1.02-0.02-1.47-0.07c-0.45-0.04-0.73-0.09-0.84-0.13c-1.72-0.29-2.96-1.37-3.73-3.25
		c-0.77-1.88-1.1-4.03-0.99-6.45c0.02-0.18,0.05-0.54,0.1-1.11c0.04-0.56,0.1-1.14,0.18-1.73c0.08-0.59,0.23-1.18,0.45-1.75
		c0.42-0.97,1.18-1.72,2.28-2.24c1.1-0.53,2.32-0.79,3.66-0.79c0.7,0,1.44,0.09,2.21,0.26c2.99,0.51,4.49,2.76,4.49,6.77
		c0,0.33-0.02,0.8-0.07,1.42c-0.42,0.13-1.65,0.24-3.7,0.33c-0.24,0.02-0.77,0.03-1.58,0.03c-1.74,0-3.02-0.02-3.86-0.07
		C456.26,15.77,455.86,15.74,455.59,15.67z M463.61,13.2c-0.02-0.68-0.19-1.35-0.51-2.01c-0.32-0.66-0.78-1.18-1.37-1.55
		c-0.33-0.15-0.62-0.25-0.86-0.3c-0.24-0.04-0.55-0.07-0.92-0.07c-1.43,0-2.45,0.3-3.05,0.89c-0.61,0.59-0.98,1.44-1.14,2.54
		c-0.04,0.26-0.07,0.44-0.07,0.53c0,0.26,0.13,0.44,0.38,0.53c0.25,0.09,0.8,0.13,1.63,0.13c0.81,0,1.51-0.01,2.08-0.03
		c2.11,0,3.3-0.01,3.56-0.03c0.11-0.02,0.18-0.05,0.21-0.08c0.03-0.03,0.05-0.09,0.05-0.18V13.2z"/>
	<path d="M475.23,0.03l3,0.1c0,0.9-0.02,3.14-0.07,6.7c-0.04,4.4-0.07,7.85-0.07,10.36c0,2.77,0.03,4.98,0.1,6.63
		c-0.13,0.15-0.5,0.23-1.09,0.23l-1.02-0.03c-0.2-0.02-0.44-0.03-0.73-0.03c-0.18,0-0.29,0.01-0.33,0.03
		c0.13-1.78,0.2-3.57,0.2-5.38c0-1.36-0.04-3.41-0.13-6.14c-0.09-2.73-0.13-4.78-0.13-6.17C474.96,4,475.05,1.9,475.23,0.03z"/>
	<path d="M480.8,13.3c0-0.81,0.04-1.52,0.12-2.11c0.08-0.59,0.27-1.33,0.58-2.21c0.29-0.64,0.9-1.12,1.83-1.44s1.97-0.48,3.12-0.48
		c0.15,0.02,0.37,0.03,0.66,0.03l1.32-0.03c1.85,0,3.27,0.48,4.26,1.45c0.4,0.26,0.7,0.76,0.91,1.48c0.21,0.73,0.33,1.7,0.38,2.92
		c0.04,1.22,0.07,1.93,0.07,2.13c-0.09,2.2-0.19,3.95-0.31,5.25c-0.12,1.3-0.37,2.13-0.74,2.51c-0.42,0.59-1,1-1.73,1.22
		c-0.74,0.22-1.61,0.33-2.62,0.33c-0.4,0-0.99-0.02-1.78-0.07l-1.52-0.03c-1.3-0.22-2.27-0.69-2.92-1.42
		c-0.65-0.73-1.07-1.57-1.25-2.54c-0.19-0.97-0.28-2.13-0.28-3.5v-1.72C480.87,14.27,480.85,13.67,480.8,13.3z M487.54,10.16
		c-1.5,0-2.57,0.39-3.23,1.15c-0.29,0.35-0.47,0.8-0.54,1.34c-0.08,0.54-0.1,1.24-0.08,2.1c-0.02,0.33-0.02,0.77,0.02,1.32
		c0.03,0.55,0.05,0.98,0.05,1.29l0.07,1.39c0.07,0.88,0.31,1.5,0.74,1.86c0.43,0.36,0.97,0.61,1.63,0.74
		c0.44,0.07,0.89,0.1,1.35,0.1c0.86,0,1.61-0.15,2.24-0.46c0.64-0.31,1.04-0.81,1.22-1.52c0.09-0.57,0.13-1.02,0.13-1.35
		c0.11-1.54,0.17-2.58,0.17-3.13c0-1.45-0.26-2.62-0.79-3.5C489.98,10.6,488.99,10.16,487.54,10.16z"/>
	<path d="M501.46,1.42v5.05l0.03,1.85c1.43-0.04,3.2-0.12,5.31-0.23c0.13,0.18,0.2,0.51,0.2,0.99l-0.03,0.76
		c-0.04,0.48-0.06,0.84-0.03,1.06c-2.4,0-4.19-0.01-5.38-0.03v5.05v1.12c0,0.99,0.02,1.69,0.07,2.11c0.04,0.42,0.13,0.78,0.26,1.09
		c0.35,0.44,1.06,0.72,2.13,0.82c1.07,0.11,2.04,0.14,2.92,0.1c0.11,0.88,0.17,1.44,0.17,1.68c0,0.4-0.06,0.79-0.17,1.19
		c-0.46,0.02-1.19,0.03-2.18,0.03c-1.72,0-3.06-0.21-4.03-0.63c-0.97-0.42-1.58-1.25-1.85-2.51c-0.24-2.13-0.36-4.92-0.36-8.35
		v-1.58c-0.13,0.02-0.46,0.03-0.99,0.03l-2.51-0.03l0.1-2.71c0.48,0.04,1.64,0.07,3.46,0.07l-0.03-3.47V3.33
		c0-0.92,0.02-1.57,0.07-1.95c0.31-0.02,0.78-0.01,1.42,0.03l0.89,0.03C501.18,1.45,501.35,1.44,501.46,1.42z"/>
	<path d="M521.72,11.81c0,0.11-0.38,0.17-1.15,0.17c-0.57,0-0.99-0.01-1.25-0.03c-0.18,0-0.35,0-0.53-0.02
		c-0.18-0.01-0.32,0-0.43,0.02c0-0.02,0-0.4,0-1.14c0-0.74-0.64-1.18-1.91-1.34c-0.29-0.04-0.72-0.07-1.29-0.07
		c-0.62,0-1.17,0.04-1.67,0.13s-0.86,0.21-1.11,0.36c-0.29,0.22-0.51,0.54-0.66,0.96c-0.15,0.42-0.23,0.83-0.23,1.22
		c0,0.31,0.04,0.52,0.13,0.63c0.24,0.51,0.56,0.86,0.96,1.06c0.22,0.15,0.76,0.34,1.62,0.56c0.86,0.22,1.6,0.34,2.21,0.36
		c0.9,0.02,1.7,0.16,2.39,0.41c0.69,0.25,1.24,0.6,1.63,1.04c0.4,0.48,0.69,0.96,0.87,1.44c0.19,0.47,0.28,0.98,0.28,1.53
		c0,0.68-0.17,1.51-0.5,2.48c-0.48,1.03-1.25,1.79-2.31,2.28c-1.06,0.48-2.25,0.71-3.6,0.69c-1.47,0.04-2.77-0.15-3.89-0.58
		c-1.12-0.43-1.99-1.07-2.61-1.93c-0.62-0.86-0.92-1.87-0.92-3.04v-0.17c0.4-0.04,0.98-0.07,1.75-0.07c0.86,0,1.32,0.03,1.39,0.1
		c0.04,0.04,0.14,0.29,0.28,0.74c0.14,0.45,0.4,0.91,0.78,1.37c0.37,0.46,1.01,0.73,1.91,0.79c0.7,0.04,1.12,0.07,1.25,0.07
		c0.35,0,0.64-0.03,0.87-0.1s0.53-0.19,0.91-0.36c1.12-0.51,1.67-1.24,1.65-2.21c0.02-0.64-0.15-1.13-0.51-1.48
		c-0.36-0.35-0.82-0.59-1.37-0.71c-0.55-0.12-1.3-0.24-2.24-0.35c-0.68-0.07-1.23-0.13-1.65-0.2s-0.79-0.18-1.12-0.33
		c-1.14-0.37-2.02-0.96-2.62-1.77c-0.6-0.8-0.91-1.68-0.91-2.62c0-1.03,0.3-1.97,0.91-2.82c0.6-0.85,1.44-1.4,2.49-1.67
		c0.9-0.24,2.06-0.36,3.46-0.36c0.33,0,0.83,0.02,1.49,0.07c0.95,0.07,1.83,0.23,2.64,0.5c0.77,0.33,1.4,0.9,1.88,1.7
		C521.48,9.93,521.72,10.82,521.72,11.81z"/>
	<path d="M59.5,52.9c0-0.81,0.04-1.52,0.12-2.11c0.08-0.59,0.27-1.33,0.58-2.21c0.29-0.64,0.9-1.12,1.83-1.44s1.97-0.48,3.12-0.48
		c0.15,0.02,0.37,0.03,0.66,0.03l1.32-0.03c1.85,0,3.27,0.48,4.26,1.45c0.4,0.26,0.7,0.76,0.91,1.48c0.21,0.73,0.33,1.7,0.38,2.92
		c0.04,1.22,0.07,1.93,0.07,2.13c-0.09,2.2-0.19,3.95-0.31,5.25c-0.12,1.3-0.37,2.13-0.74,2.51c-0.42,0.59-1,1-1.73,1.22
		c-0.74,0.22-1.61,0.33-2.62,0.33c-0.4,0-0.99-0.02-1.78-0.07l-1.52-0.03c-1.3-0.22-2.27-0.69-2.92-1.42
		c-0.65-0.73-1.07-1.57-1.25-2.54c-0.19-0.97-0.28-2.13-0.28-3.5v-1.72C59.56,53.87,59.54,53.27,59.5,52.9z M66.23,49.76
		c-1.5,0-2.57,0.39-3.23,1.15c-0.29,0.35-0.47,0.8-0.54,1.34c-0.08,0.54-0.1,1.24-0.08,2.1c-0.02,0.33-0.02,0.77,0.02,1.32
		c0.03,0.55,0.05,0.98,0.05,1.29l0.07,1.39c0.07,0.88,0.31,1.5,0.74,1.86c0.43,0.36,0.97,0.61,1.63,0.74
		c0.44,0.07,0.89,0.1,1.35,0.1c0.86,0,1.61-0.15,2.24-0.46c0.64-0.31,1.04-0.81,1.22-1.52c0.09-0.57,0.13-1.02,0.13-1.35
		c0.11-1.54,0.17-2.58,0.17-3.13c0-1.45-0.26-2.62-0.79-3.5C68.67,50.2,67.68,49.76,66.23,49.76z"/>
	<path d="M79.86,51.31v12.21c-0.33-0.02-0.72-0.01-1.16,0.03l-0.79,0.03c-0.35,0-0.64-0.02-0.86-0.07
		c-0.09-0.53-0.13-2.44-0.13-5.74l0.03-3.99c0.02-0.66,0.03-1.48,0.03-2.48c-0.24,0.02-0.73,0.03-1.45,0.03
		c-0.2-0.02-0.48-0.03-0.86-0.03c-0.33,0-0.57,0.01-0.73,0.03l-0.1-2.84c1.63,0,2.65,0.01,3.07,0.03l-0.03-1.32
		c0-1.65,0.26-3.04,0.78-4.16c0.52-1.12,1.51-1.78,2.99-1.98c1.21-0.11,2.51-0.17,3.89-0.17h1.29c0.13,0.42,0.2,0.86,0.2,1.32
		c0,0.24-0.06,0.8-0.17,1.68c-0.37-0.02-1.61,0.01-3.7,0.1c-0.7,0.04-1.19,0.1-1.45,0.18s-0.46,0.28-0.59,0.61
		c-0.13,0.33-0.2,0.91-0.2,1.75c0,0.29,0.02,0.98,0.07,2.08c1.3-0.02,3.23-0.03,5.81-0.03c-0.02,0.09-0.06,0.45-0.1,1.09
		c0,0.66-0.02,1.24-0.07,1.75l-3.79-0.1L79.86,51.31z"/>
	<path d="M94.18,39.63l3,0.1c0,0.9-0.02,3.14-0.07,6.7c-0.04,4.4-0.07,7.85-0.07,10.36c0,2.77,0.03,4.98,0.1,6.63
		c-0.13,0.15-0.5,0.23-1.09,0.23l-1.02-0.03c-0.2-0.02-0.44-0.03-0.73-0.03c-0.18,0-0.29,0.01-0.33,0.03
		c0.13-1.78,0.2-3.57,0.2-5.38c0-1.36-0.04-3.41-0.13-6.14c-0.09-2.73-0.13-4.78-0.13-6.17C93.92,43.6,94,41.5,94.18,39.63z"/>
	<path d="M101.05,46.96c0.15-0.02,0.46-0.02,0.92,0c0.66,0.04,1.39,0.07,2.18,0.07v0.1c0,0.99-0.02,2.52-0.07,4.59
		c-0.07,2.11-0.1,4.25-0.1,6.4c0,2.02,0.04,3.83,0.13,5.41c-0.31,0.07-0.77,0.1-1.39,0.1c-0.62,0-0.99,0-1.12,0
		c-0.4,0-0.64,0.01-0.73,0.03c0.02-0.64,0.03-1.61,0.03-2.9v-2.97v-2.77c-0.04-1.54-0.07-2.73-0.07-3.56c0-1.52,0.07-3,0.2-4.46
		V46.96z M100.91,39.86c1.36,0.04,2.4,0.07,3.1,0.07l0.1,4.36c-0.22,0.11-0.62,0.17-1.19,0.17c-0.35,0-0.62-0.01-0.79-0.03
		c-0.13,0-0.29,0-0.46-0.02c-0.18-0.01-0.39,0-0.63,0.02c0-0.33-0.02-0.87-0.07-1.62C100.91,41.35,100.89,40.37,100.91,39.86z"/>
	<path d="M112.63,41.02v5.05l0.03,1.85c1.43-0.04,3.2-0.12,5.31-0.23c0.13,0.18,0.2,0.51,0.2,0.99l-0.03,0.76
		c-0.04,0.48-0.06,0.84-0.03,1.06c-2.4,0-4.19-0.01-5.38-0.03v5.05v1.12c0,0.99,0.02,1.69,0.07,2.11c0.04,0.42,0.13,0.78,0.26,1.09
		c0.35,0.44,1.06,0.72,2.13,0.82c1.07,0.11,2.04,0.14,2.92,0.1c0.11,0.88,0.17,1.44,0.17,1.68c0,0.4-0.06,0.79-0.17,1.19
		c-0.46,0.02-1.19,0.03-2.18,0.03c-1.72,0-3.06-0.21-4.03-0.63c-0.97-0.42-1.58-1.25-1.85-2.51c-0.24-2.13-0.36-4.92-0.36-8.35
		v-1.58c-0.13,0.02-0.46,0.03-0.99,0.03l-2.51-0.03l0.1-2.71c0.48,0.04,1.64,0.07,3.46,0.07l-0.03-3.47v-1.55
		c0-0.92,0.02-1.57,0.07-1.95c0.31-0.02,0.78-0.01,1.42,0.03l0.89,0.03C112.34,41.05,112.52,41.04,112.63,41.02z"/>
	<path d="M125.4,41.02v5.05l0.03,1.85c1.43-0.04,3.2-0.12,5.31-0.23c0.13,0.18,0.2,0.51,0.2,0.99l-0.03,0.76
		c-0.04,0.48-0.06,0.84-0.03,1.06c-2.4,0-4.19-0.01-5.38-0.03v5.05v1.12c0,0.99,0.02,1.69,0.07,2.11c0.04,0.42,0.13,0.78,0.26,1.09
		c0.35,0.44,1.06,0.72,2.13,0.82c1.07,0.11,2.04,0.14,2.92,0.1c0.11,0.88,0.17,1.44,0.17,1.68c0,0.4-0.06,0.79-0.17,1.19
		c-0.46,0.02-1.19,0.03-2.18,0.03c-1.72,0-3.06-0.21-4.03-0.63c-0.97-0.42-1.58-1.25-1.85-2.51c-0.24-2.13-0.36-4.92-0.36-8.35
		v-1.58c-0.13,0.02-0.46,0.03-0.99,0.03l-2.51-0.03l0.1-2.71c0.48,0.04,1.64,0.07,3.46,0.07l-0.03-3.47v-1.55
		c0-0.92,0.02-1.57,0.07-1.95c0.31-0.02,0.78-0.01,1.42,0.03l0.89,0.03C125.11,41.05,125.29,41.04,125.4,41.02z"/>
	<path d="M133.35,39.63l3,0.1c0,0.9-0.02,3.14-0.07,6.7c-0.04,4.4-0.07,7.85-0.07,10.36c0,2.77,0.03,4.98,0.1,6.63
		c-0.13,0.15-0.5,0.23-1.09,0.23l-1.02-0.03c-0.2-0.02-0.44-0.03-0.73-0.03c-0.18,0-0.29,0.01-0.33,0.03
		c0.13-1.78,0.2-3.57,0.2-5.38c0-1.36-0.04-3.41-0.13-6.14c-0.09-2.73-0.13-4.78-0.13-6.17C133.09,43.6,133.18,41.5,133.35,39.63z"
		/>
	<path d="M141.77,55.27v0.59l-0.03,0.96c0,2.73,1.34,4.09,4.03,4.09c1.08,0,1.88-0.25,2.39-0.74c0.52-0.49,0.78-1.17,0.78-2.03
		c0-0.13-0.02-0.37-0.07-0.73c0.46-0.07,0.89-0.1,1.29-0.1c0.35,0,0.62,0.01,0.79,0.03c0.13,0,0.29,0.01,0.48,0.02
		c0.19,0.01,0.4,0.01,0.64-0.02c0.02,1.25-0.02,2.26-0.13,3c-0.11,0.75-0.37,1.46-0.79,2.15c-0.4,0.59-1.08,1.02-2.06,1.27
		c-0.98,0.25-2.05,0.38-3.22,0.38c-0.53,0-1.02-0.02-1.47-0.07c-0.45-0.04-0.73-0.09-0.84-0.13c-1.72-0.29-2.96-1.37-3.73-3.25
		c-0.77-1.88-1.1-4.03-0.99-6.45c0.02-0.18,0.05-0.54,0.1-1.11c0.04-0.56,0.1-1.14,0.18-1.73c0.08-0.59,0.23-1.18,0.45-1.75
		c0.42-0.97,1.18-1.72,2.28-2.24c1.1-0.53,2.32-0.79,3.66-0.79c0.7,0,1.44,0.09,2.21,0.26c2.99,0.51,4.49,2.76,4.49,6.77
		c0,0.33-0.02,0.8-0.07,1.42c-0.42,0.13-1.65,0.24-3.7,0.33c-0.24,0.02-0.77,0.03-1.58,0.03c-1.74,0-3.02-0.02-3.86-0.07
		C142.44,55.37,142.03,55.34,141.77,55.27z M149.79,52.8c-0.02-0.68-0.19-1.35-0.51-2.01c-0.32-0.66-0.78-1.18-1.37-1.55
		c-0.33-0.15-0.62-0.25-0.86-0.3c-0.24-0.04-0.55-0.07-0.92-0.07c-1.43,0-2.45,0.3-3.05,0.89c-0.61,0.59-0.98,1.44-1.14,2.54
		c-0.04,0.26-0.07,0.44-0.07,0.53c0,0.26,0.13,0.44,0.38,0.53c0.25,0.09,0.8,0.13,1.63,0.13c0.81,0,1.51-0.01,2.08-0.03
		c2.11,0,3.3-0.01,3.56-0.03c0.11-0.02,0.18-0.05,0.21-0.08c0.03-0.03,0.05-0.09,0.05-0.18V52.8z"/>
	<path d="M165.76,41.02v5.05l0.03,1.85c1.43-0.04,3.2-0.12,5.31-0.23c0.13,0.18,0.2,0.51,0.2,0.99l-0.03,0.76
		c-0.04,0.48-0.06,0.84-0.03,1.06c-2.4,0-4.19-0.01-5.38-0.03v5.05v1.12c0,0.99,0.02,1.69,0.07,2.11c0.04,0.42,0.13,0.78,0.26,1.09
		c0.35,0.44,1.06,0.72,2.13,0.82c1.07,0.11,2.04,0.14,2.92,0.1c0.11,0.88,0.17,1.44,0.17,1.68c0,0.4-0.06,0.79-0.17,1.19
		c-0.46,0.02-1.19,0.03-2.18,0.03c-1.72,0-3.06-0.21-4.03-0.63c-0.97-0.42-1.58-1.25-1.85-2.51c-0.24-2.13-0.36-4.92-0.36-8.35
		v-1.58c-0.13,0.02-0.46,0.03-0.99,0.03l-2.51-0.03l0.1-2.71c0.48,0.04,1.64,0.07,3.46,0.07l-0.03-3.47v-1.55
		c0-0.92,0.02-1.57,0.07-1.95c0.31-0.02,0.78-0.01,1.42,0.03l0.89,0.03C165.47,41.05,165.65,41.04,165.76,41.02z"/>
	<path d="M175.33,55.27v0.59l-0.03,0.96c0,2.73,1.34,4.09,4.03,4.09c1.08,0,1.88-0.25,2.39-0.74c0.52-0.49,0.78-1.17,0.78-2.03
		c0-0.13-0.02-0.37-0.07-0.73c0.46-0.07,0.89-0.1,1.29-0.1c0.35,0,0.62,0.01,0.79,0.03c0.13,0,0.29,0.01,0.48,0.02
		c0.19,0.01,0.4,0.01,0.64-0.02c0.02,1.25-0.02,2.26-0.13,3c-0.11,0.75-0.37,1.46-0.79,2.15c-0.4,0.59-1.08,1.02-2.06,1.27
		c-0.98,0.25-2.05,0.38-3.22,0.38c-0.53,0-1.02-0.02-1.47-0.07c-0.45-0.04-0.73-0.09-0.84-0.13c-1.72-0.29-2.96-1.37-3.73-3.25
		c-0.77-1.88-1.1-4.03-0.99-6.45c0.02-0.18,0.05-0.54,0.1-1.11c0.04-0.56,0.1-1.14,0.18-1.73c0.08-0.59,0.23-1.18,0.45-1.75
		c0.42-0.97,1.18-1.72,2.28-2.24c1.1-0.53,2.32-0.79,3.66-0.79c0.7,0,1.44,0.09,2.21,0.26c2.99,0.51,4.49,2.76,4.49,6.77
		c0,0.33-0.02,0.8-0.07,1.42c-0.42,0.13-1.65,0.24-3.7,0.33c-0.24,0.02-0.77,0.03-1.58,0.03c-1.74,0-3.02-0.02-3.86-0.07
		C176,55.37,175.59,55.34,175.33,55.27z M183.35,52.8c-0.02-0.68-0.19-1.35-0.51-2.01c-0.32-0.66-0.78-1.18-1.37-1.55
		c-0.33-0.15-0.62-0.25-0.86-0.3c-0.24-0.04-0.55-0.07-0.92-0.07c-1.43,0-2.45,0.3-3.05,0.89c-0.61,0.59-0.98,1.44-1.14,2.54
		c-0.04,0.26-0.07,0.44-0.07,0.53c0,0.26,0.13,0.44,0.38,0.53c0.25,0.09,0.8,0.13,1.63,0.13c0.81,0,1.51-0.01,2.08-0.03
		c2.11,0,3.3-0.01,3.56-0.03c0.11-0.02,0.18-0.05,0.21-0.08c0.03-0.03,0.05-0.09,0.05-0.18V52.8z"/>
	<path d="M189.98,55.27v0.59l-0.03,0.96c0,2.73,1.34,4.09,4.03,4.09c1.08,0,1.88-0.25,2.39-0.74c0.52-0.49,0.78-1.17,0.78-2.03
		c0-0.13-0.02-0.37-0.07-0.73c0.46-0.07,0.89-0.1,1.29-0.1c0.35,0,0.62,0.01,0.79,0.03c0.13,0,0.29,0.01,0.48,0.02
		c0.19,0.01,0.4,0.01,0.64-0.02c0.02,1.25-0.02,2.26-0.13,3c-0.11,0.75-0.37,1.46-0.79,2.15c-0.4,0.59-1.08,1.02-2.06,1.27
		c-0.98,0.25-2.05,0.38-3.22,0.38c-0.53,0-1.02-0.02-1.47-0.07c-0.45-0.04-0.73-0.09-0.84-0.13c-1.72-0.29-2.96-1.37-3.73-3.25
		c-0.77-1.88-1.1-4.03-0.99-6.45c0.02-0.18,0.05-0.54,0.1-1.11c0.04-0.56,0.1-1.14,0.18-1.73c0.08-0.59,0.23-1.18,0.45-1.75
		c0.42-0.97,1.18-1.72,2.28-2.24c1.1-0.53,2.32-0.79,3.66-0.79c0.7,0,1.44,0.09,2.21,0.26c2.99,0.51,4.49,2.76,4.49,6.77
		c0,0.33-0.02,0.8-0.07,1.42c-0.42,0.13-1.65,0.24-3.7,0.33c-0.24,0.02-0.77,0.03-1.58,0.03c-1.74,0-3.02-0.02-3.86-0.07
		C190.65,55.37,190.24,55.34,189.98,55.27z M198,52.8c-0.02-0.68-0.19-1.35-0.51-2.01c-0.32-0.66-0.78-1.18-1.37-1.55
		c-0.33-0.15-0.62-0.25-0.86-0.3c-0.24-0.04-0.55-0.07-0.92-0.07c-1.43,0-2.45,0.3-3.05,0.89c-0.61,0.59-0.98,1.44-1.14,2.54
		c-0.04,0.26-0.07,0.44-0.07,0.53c0,0.26,0.13,0.44,0.38,0.53c0.25,0.09,0.8,0.13,1.63,0.13c0.81,0,1.51-0.01,2.08-0.03
		c2.11,0,3.3-0.01,3.56-0.03c0.11-0.02,0.18-0.05,0.21-0.08c0.03-0.03,0.05-0.09,0.05-0.18V52.8z"/>
	<path d="M207.7,41.02v5.05l0.03,1.85c1.43-0.04,3.2-0.12,5.31-0.23c0.13,0.18,0.2,0.51,0.2,0.99l-0.03,0.76
		c-0.04,0.48-0.06,0.84-0.03,1.06c-2.4,0-4.19-0.01-5.38-0.03v5.05v1.12c0,0.99,0.02,1.69,0.07,2.11c0.04,0.42,0.13,0.78,0.26,1.09
		c0.35,0.44,1.06,0.72,2.13,0.82c1.07,0.11,2.04,0.14,2.92,0.1c0.11,0.88,0.17,1.44,0.17,1.68c0,0.4-0.06,0.79-0.17,1.19
		c-0.46,0.02-1.19,0.03-2.18,0.03c-1.72,0-3.06-0.21-4.03-0.63c-0.97-0.42-1.58-1.25-1.85-2.51c-0.24-2.13-0.36-4.92-0.36-8.35
		v-1.58c-0.13,0.02-0.46,0.03-0.99,0.03l-2.51-0.03l0.1-2.71c0.48,0.04,1.64,0.07,3.46,0.07l-0.03-3.47v-1.55
		c0-0.92,0.02-1.57,0.07-1.95c0.31-0.02,0.78-0.01,1.42,0.03l0.89,0.03C207.41,41.05,207.59,41.04,207.7,41.02z"/>
	<path d="M217.8,45.94v2.94c0.59-0.51,1.12-0.89,1.57-1.14c0.45-0.25,1.12-0.41,2-0.48c0.53-0.07,1.02-0.1,1.48-0.1
		c1.61,0,2.86,0.38,3.76,1.15c0.29,0.24,0.48,0.81,0.59,1.72c0.11,0.9,0.17,2.09,0.17,3.56c0,0.84-0.02,2.16-0.07,3.96
		c-0.04,1.76-0.07,3.01-0.07,3.76c0,0.62,0.02,1.36,0.07,2.24c-0.88,0.13-1.83,0.18-2.84,0.13c-0.04-0.66-0.07-1.23-0.07-1.72v-1.98
		v-6.47c-0.04-1.41-0.37-2.32-0.99-2.74c-0.13-0.09-0.4-0.18-0.79-0.26c-0.46-0.13-0.94-0.2-1.42-0.2c-0.86,0-1.59,0.21-2.19,0.64
		c-0.6,0.43-1,1.09-1.17,2c-0.15,0.84-0.23,1.84-0.23,3l0.03,1.12c0.04,1.45,0.07,2.65,0.07,3.6c0,1.19-0.02,2.1-0.07,2.74v0.13
		c-0.44,0.11-0.79,0.17-1.06,0.17l-0.99-0.03c-0.31,0-0.56,0.01-0.76,0.03c0-2.53-0.01-4.62-0.03-6.27l-0.03-10.1
		c0-2.46,0.02-4.99,0.07-7.59c0.68,0.07,1.23,0.09,1.65,0.07c0.11,0,0.25-0.01,0.41-0.03c0.17-0.02,0.33-0.03,0.51-0.03
		c0.22,0,0.33,0.03,0.33,0.1c0.04,0.2,0.07,1.54,0.07,4.03V45.94z"/>
	<path d="M235.82,52.9c0-0.81,0.04-1.52,0.12-2.11c0.08-0.59,0.27-1.33,0.58-2.21c0.29-0.64,0.9-1.12,1.83-1.44s1.97-0.48,3.12-0.48
		c0.15,0.02,0.37,0.03,0.66,0.03l1.32-0.03c1.85,0,3.27,0.48,4.26,1.45c0.4,0.26,0.7,0.76,0.91,1.48c0.21,0.73,0.33,1.7,0.38,2.92
		c0.04,1.22,0.07,1.93,0.07,2.13c-0.09,2.2-0.19,3.95-0.31,5.25c-0.12,1.3-0.37,2.13-0.74,2.51c-0.42,0.59-1,1-1.73,1.22
		c-0.74,0.22-1.61,0.33-2.62,0.33c-0.4,0-0.99-0.02-1.78-0.07l-1.52-0.03c-1.3-0.22-2.27-0.69-2.92-1.42
		c-0.65-0.73-1.07-1.57-1.25-2.54c-0.19-0.97-0.28-2.13-0.28-3.5v-1.72C235.88,53.87,235.86,53.27,235.82,52.9z M242.55,49.76
		c-1.5,0-2.57,0.39-3.23,1.15c-0.29,0.35-0.47,0.8-0.54,1.34c-0.08,0.54-0.1,1.24-0.08,2.1c-0.02,0.33-0.02,0.77,0.02,1.32
		c0.03,0.55,0.05,0.98,0.05,1.29l0.07,1.39c0.07,0.88,0.31,1.5,0.74,1.86c0.43,0.36,0.97,0.61,1.63,0.74
		c0.44,0.07,0.89,0.1,1.35,0.1c0.86,0,1.61-0.15,2.24-0.46c0.64-0.31,1.04-0.81,1.22-1.52c0.09-0.57,0.13-1.02,0.13-1.35
		c0.11-1.54,0.17-2.58,0.17-3.13c0-1.45-0.26-2.62-0.79-3.5C244.99,50.2,244,49.76,242.55,49.76z"/>
	<path d="M254,47.22c0,0.26,0.01,0.47,0.02,0.61c0.01,0.14,0.02,0.31,0.02,0.51c0.15-0.09,0.37-0.19,0.64-0.3
		c0.27-0.11,0.58-0.22,0.91-0.33c0.51-0.18,1.12-0.3,1.83-0.38c0.71-0.08,1.36-0.12,1.93-0.12c0.53,0,0.79,0.02,0.79,0.07
		l-0.03,2.74c0,0.44,0.01,0.77,0.03,0.99c-0.33-0.13-0.7-0.25-1.12-0.36c-0.48-0.11-1.01-0.16-1.58-0.16
		c-0.59,0-1.27,0.09-2.01,0.26c-0.62,0.15-1.03,0.39-1.25,0.69c-0.22,0.31-0.32,0.89-0.3,1.75c0.09,3.01,0.13,6.44,0.13,10.26v0.13
		c-0.37,0.09-0.76,0.13-1.15,0.13c-0.15,0-0.4-0.01-0.74-0.02c-0.34-0.01-0.69-0.01-1.04,0.02l-0.03-5.68
		c-0.04-2.6-0.07-4.54-0.07-5.84c0-1.06,0.02-2.73,0.07-5.02c0.22,0.02,0.46,0.03,0.71,0.02c0.25-0.01,0.48-0.02,0.68-0.02
		c0.26-0.02,0.62-0.03,1.06-0.03C253.82,47.16,254,47.18,254,47.22z"/>
	<path d="M278.85,47.06c0.51-0.02,1.15,0,1.95,0.07l0.86,0.07c0.04,0.35,0.07,0.62,0.07,0.79v0.33c-0.02,0.51-0.03,1.27-0.03,2.28
		c0,0.84,0.02,2.07,0.07,3.7l0.03,3.7c0,1.58-0.04,3.03-0.13,4.32c0,0.07,0,0.21,0,0.43c0,0.22-0.02,0.42-0.07,0.59
		c-0.04,0.18-0.17,0.29-0.36,0.33h-0.56l-1.06-0.03c-0.18,0-0.33,0.01-0.46,0.03c-0.13,0.02-0.25,0.03-0.36,0.03
		c-0.22-0.07-0.33-0.31-0.33-0.73c-0.02-0.18-0.02-0.37,0.02-0.59c0.03-0.22,0.05-0.41,0.05-0.56c-0.53,0.73-1.36,1.22-2.51,1.48
		c-1.14,0.26-2.27,0.4-3.37,0.4c-1.06,0-1.95-0.47-2.69-1.4c-0.74-0.94-1.28-2.08-1.63-3.45c-0.35-1.36-0.53-2.69-0.53-3.99
		c0-1.43,0.24-2.72,0.73-3.86c0.48-1.14,1.15-2.05,2-2.72c0.85-0.67,1.79-1.02,2.82-1.04l1.06-0.03c0.99,0,1.81,0.12,2.46,0.35
		c0.65,0.23,1.13,0.65,1.44,1.27c0-0.2,0.02-0.45,0.07-0.76c0.04-0.44,0.07-0.75,0.07-0.92C278.42,47.08,278.56,47.06,278.85,47.06z
		 M275.15,50.03c-1.14-0.02-2.11,0.27-2.89,0.87c-0.78,0.61-1.26,1.33-1.44,2.16c-0.18,0.64-0.26,1.5-0.26,2.57
		c0.11,3.54,1.54,5.24,4.29,5.08c1.12,0,1.94-0.2,2.44-0.59c0.51-0.4,0.82-0.96,0.94-1.68s0.18-1.81,0.18-3.27
		c0-1.58-0.07-2.7-0.2-3.35c-0.13-0.65-0.41-1.09-0.84-1.34C276.95,50.25,276.21,50.09,275.15,50.03z"/>
	<path d="M295.45,51.31v12.21c-0.33-0.02-0.72-0.01-1.16,0.03l-0.79,0.03c-0.35,0-0.64-0.02-0.86-0.07
		c-0.09-0.53-0.13-2.44-0.13-5.74l0.03-3.99c0.02-0.66,0.03-1.48,0.03-2.48c-0.24,0.02-0.73,0.03-1.45,0.03
		c-0.2-0.02-0.48-0.03-0.86-0.03c-0.33,0-0.57,0.01-0.73,0.03l-0.1-2.84c1.63,0,2.65,0.01,3.07,0.03l-0.03-1.32
		c0-1.65,0.26-3.04,0.78-4.16c0.52-1.12,1.51-1.78,2.99-1.98c1.21-0.11,2.51-0.17,3.89-0.17h1.29c0.13,0.42,0.2,0.86,0.2,1.32
		c0,0.24-0.06,0.8-0.17,1.68c-0.37-0.02-1.61,0.01-3.7,0.1c-0.7,0.04-1.19,0.1-1.45,0.18s-0.46,0.28-0.59,0.61
		c-0.13,0.33-0.2,0.91-0.2,1.75c0,0.29,0.02,0.98,0.07,2.08c1.3-0.02,3.23-0.03,5.81-0.03c-0.02,0.09-0.06,0.45-0.1,1.09
		c0,0.66-0.02,1.24-0.07,1.75l-3.79-0.1L295.45,51.31z"/>
	<path d="M305.21,55.27v0.59l-0.03,0.96c0,2.73,1.34,4.09,4.03,4.09c1.08,0,1.88-0.25,2.39-0.74c0.52-0.49,0.78-1.17,0.78-2.03
		c0-0.13-0.02-0.37-0.07-0.73c0.46-0.07,0.89-0.1,1.29-0.1c0.35,0,0.62,0.01,0.79,0.03c0.13,0,0.29,0.01,0.48,0.02
		c0.19,0.01,0.4,0.01,0.64-0.02c0.02,1.25-0.02,2.26-0.13,3c-0.11,0.75-0.37,1.46-0.79,2.15c-0.4,0.59-1.08,1.02-2.06,1.27
		c-0.98,0.25-2.05,0.38-3.22,0.38c-0.53,0-1.02-0.02-1.47-0.07c-0.45-0.04-0.73-0.09-0.84-0.13c-1.72-0.29-2.96-1.37-3.73-3.25
		c-0.77-1.88-1.1-4.03-0.99-6.45c0.02-0.18,0.05-0.54,0.1-1.11c0.04-0.56,0.1-1.14,0.18-1.73c0.08-0.59,0.23-1.18,0.45-1.75
		c0.42-0.97,1.18-1.72,2.28-2.24c1.1-0.53,2.32-0.79,3.66-0.79c0.7,0,1.44,0.09,2.21,0.26c2.99,0.51,4.49,2.76,4.49,6.77
		c0,0.33-0.02,0.8-0.07,1.42c-0.42,0.13-1.65,0.24-3.7,0.33c-0.24,0.02-0.77,0.03-1.58,0.03c-1.74,0-3.02-0.02-3.86-0.07
		C305.88,55.37,305.48,55.34,305.21,55.27z M313.23,52.8c-0.02-0.68-0.19-1.35-0.51-2.01c-0.32-0.66-0.78-1.18-1.37-1.55
		c-0.33-0.15-0.62-0.25-0.86-0.3c-0.24-0.04-0.55-0.07-0.92-0.07c-1.43,0-2.45,0.3-3.05,0.89c-0.61,0.59-0.98,1.44-1.14,2.54
		c-0.04,0.26-0.07,0.44-0.07,0.53c0,0.26,0.13,0.44,0.38,0.53c0.25,0.09,0.8,0.13,1.63,0.13c0.81,0,1.51-0.01,2.08-0.03
		c2.11,0,3.3-0.01,3.56-0.03c0.11-0.02,0.18-0.05,0.21-0.08c0.03-0.03,0.05-0.09,0.05-0.18V52.8z"/>
	<path d="M316.17,47.12c0.37,0.02,0.94,0.03,1.68,0.03c0.73,0,1.27,0.02,1.62,0.07l0.5,3.04c0.57,3.78,1.2,7.15,1.88,10.1
		c1.08-3.06,1.91-5.58,2.49-7.56s1.06-3.87,1.44-5.68c0.2,0.02,0.71,0.01,1.55-0.03c0.77-0.04,1.35-0.02,1.75,0.07l0.2,1.09
		c0.37,1.89,0.76,3.68,1.17,5.36c0.41,1.68,1.04,3.86,1.9,6.52c0.53-2.02,1.08-4.53,1.65-7.52c0.09-0.37,0.26-1.19,0.53-2.46
		c0.26-1.26,0.5-2.25,0.69-2.95c0.79-0.04,1.44-0.07,1.95-0.07c0.48,0,0.87,0.01,1.15,0.03c-0.53,1.8-0.97,3.44-1.34,4.9
		c-0.36,1.46-0.69,2.83-0.97,4.11c-0.09,0.35-0.29,1.24-0.61,2.66c-0.32,1.42-0.72,3.03-1.2,4.83c-0.51,0.11-0.97,0.14-1.39,0.1
		l-2.34-0.03c-0.99-3.89-2.07-7.72-3.23-11.48c-0.86,2.77-1.38,4.47-1.55,5.08c-0.77,2.71-1.42,4.83-1.95,6.37
		c-0.31,0.04-0.85,0.07-1.62,0.07l-2.51-0.03C318.59,58.03,317.45,52.49,316.17,47.12z"/>
	<path d="M348.64,40.69c0,0.2,0,0.36,0.02,0.48c0.01,0.12,0.02,0.21,0.02,0.28c0.02,0.15,0.03,0.45,0.03,0.89l0.07,1.68l-0.03,4.75
		c0.02-0.15,0.17-0.37,0.45-0.64c0.27-0.27,0.64-0.52,1.11-0.73c0.46-0.21,0.98-0.32,1.55-0.35c1.94-0.07,3.42,0.09,4.45,0.46
		c0.92,0.33,1.6,1.11,2.03,2.34c0.43,1.23,0.64,2.68,0.64,4.36c-0.07,1.91-0.22,3.48-0.46,4.7c-0.24,1.22-0.76,2.27-1.55,3.14
		s-1.97,1.36-3.53,1.47c-0.35,0.04-0.64,0.07-0.86,0.07c-0.51,0-0.98-0.08-1.42-0.23c-0.35-0.11-0.7-0.33-1.06-0.66
		c-0.7-0.4-1.19-0.9-1.45-1.52c0.04,0.31,0.07,0.69,0.07,1.15l-0.03,1.06c0,0.13-0.01,0.21-0.03,0.23
		c-0.13,0.02-0.36,0.03-0.69,0.03c-0.48,0-0.86-0.01-1.12-0.03l-1.32-0.03c-0.02-0.79-0.03-2-0.03-3.63c0-1.76,0.01-3.34,0.03-4.74
		c0.02-1.4,0.04-2.58,0.07-3.55c0.09-4,0.13-7.04,0.13-9.11v-2.18c0.37-0.07,0.8-0.1,1.29-0.1c0.4,0,0.75,0.02,1.06,0.05
		c0.31,0.03,0.51,0.06,0.59,0.08V40.69z M356.3,55.57c0-0.73-0.04-1.28-0.13-1.65c-0.09-0.9-0.22-1.62-0.4-2.16
		c-0.18-0.54-0.57-1-1.19-1.39c-0.62-0.38-1.55-0.58-2.81-0.58c-1.23,0-2.06,0.44-2.49,1.3c-0.43,0.87-0.64,2.23-0.64,4.08
		c0,1.56,0.28,2.9,0.84,4.01c0.56,1.11,1.46,1.67,2.69,1.67c1.36,0,2.39-0.45,3.09-1.34C355.95,58.62,356.3,57.31,356.3,55.57z"/>
	<path d="M361.74,46.96c0.15-0.02,0.46-0.02,0.92,0c0.66,0.04,1.39,0.07,2.18,0.07v0.1c0,0.99-0.02,2.52-0.07,4.59
		c-0.07,2.11-0.1,4.25-0.1,6.4c0,2.02,0.04,3.83,0.13,5.41c-0.31,0.07-0.77,0.1-1.39,0.1c-0.62,0-0.99,0-1.12,0
		c-0.4,0-0.64,0.01-0.73,0.03c0.02-0.64,0.03-1.61,0.03-2.9v-2.97v-2.77c-0.04-1.54-0.07-2.73-0.07-3.56c0-1.52,0.07-3,0.2-4.46
		V46.96z M361.61,39.86c1.36,0.04,2.4,0.07,3.1,0.07l0.1,4.36c-0.22,0.11-0.62,0.17-1.19,0.17c-0.35,0-0.62-0.01-0.79-0.03
		c-0.13,0-0.29,0-0.46-0.02c-0.18-0.01-0.39,0-0.63,0.02c0-0.33-0.02-0.87-0.07-1.62C361.61,41.35,361.59,40.37,361.61,39.86z"/>
	<path d="M380.32,67.91c-0.42,0.95-0.95,1.57-1.58,1.88c-0.64,0.31-1.38,0.5-2.21,0.56c-0.97,0.04-1.57,0.07-1.82,0.07
		c-0.42,0-0.96-0.02-1.62-0.07c-1.45-0.11-2.67-0.59-3.66-1.45c-0.99-0.86-1.48-1.94-1.48-3.23c0-0.29,0.01-0.51,0.03-0.66
		c0.11-0.04,0.41-0.08,0.89-0.12c0.48-0.03,0.95-0.05,1.39-0.05c0.37,0,0.58,0.02,0.63,0.07c0.02,0.04,0.03,0.21,0.03,0.5
		c0,0.57,0.13,1.08,0.4,1.52c0.26,0.44,0.83,0.73,1.68,0.86c0.44,0.02,1.01,0.03,1.72,0.03c0.92,0,1.6-0.05,2.03-0.15
		c0.43-0.1,0.7-0.28,0.82-0.53c0.12-0.25,0.16-0.63,0.12-1.14v-1.22v-1.09c0-0.11,0.01-0.23,0.02-0.36
		c0.01-0.13,0.03-0.32,0.05-0.56c-0.37,0.44-0.81,0.7-1.3,0.79c-0.5,0.09-1.41,0.13-2.76,0.13h-1.25c-2.2,0-3.63-0.69-4.29-2.08
		c-0.55-1.03-0.86-2.32-0.92-3.86c0-2.05,0.08-3.74,0.25-5.08c0.17-1.34,0.65-2.56,1.45-3.65s2.07-1.69,3.81-1.8
		c1.14-0.02,2.03,0.02,2.66,0.12c0.63,0.1,1.09,0.27,1.4,0.51c0.31,0.24,0.56,0.58,0.76,1.02c0.07-0.31,0.1-0.59,0.1-0.86
		c0-0.13-0.01-0.27-0.02-0.41c-0.01-0.14-0.01-0.28,0.02-0.41c0.57-0.04,1-0.07,1.29-0.07l1.72,0.03c0.09,2.55,0.13,5.54,0.13,8.98
		c0,3.41-0.06,6.38-0.17,8.91c0,0.22-0.01,0.52-0.02,0.89c-0.01,0.37-0.03,0.73-0.07,1.07C380.5,67.35,380.43,67.65,380.32,67.91z
		 M369.79,55.77v0.4c-0.07,1.19,0.13,2.3,0.59,3.33c0.46,1.03,1.32,1.58,2.57,1.65c0.33,0.02,0.78,0.03,1.35,0.03
		c1.19,0,2.04-0.21,2.56-0.63c0.52-0.42,0.81-1.23,0.87-2.44c0-1.56-0.01-2.82-0.03-3.76c0-2.22-0.5-3.6-1.49-4.12
		c-0.46-0.26-1.1-0.4-1.91-0.4c-0.44,0-0.87,0.03-1.29,0.1c-1.23,0.22-2.08,0.84-2.54,1.86C370.03,52.82,369.79,54.14,369.79,55.77z
		"/>
	<path d="M389.3,52.9c0-0.81,0.04-1.52,0.12-2.11c0.08-0.59,0.27-1.33,0.58-2.21c0.29-0.64,0.9-1.12,1.83-1.44s1.97-0.48,3.12-0.48
		c0.15,0.02,0.37,0.03,0.66,0.03l1.32-0.03c1.85,0,3.27,0.48,4.26,1.45c0.4,0.26,0.7,0.76,0.91,1.48c0.21,0.73,0.33,1.7,0.38,2.92
		c0.04,1.22,0.07,1.93,0.07,2.13c-0.09,2.2-0.19,3.95-0.31,5.25c-0.12,1.3-0.37,2.13-0.74,2.51c-0.42,0.59-1,1-1.73,1.22
		c-0.74,0.22-1.61,0.33-2.62,0.33c-0.4,0-0.99-0.02-1.78-0.07l-1.52-0.03c-1.3-0.22-2.27-0.69-2.92-1.42
		c-0.65-0.73-1.07-1.57-1.25-2.54c-0.19-0.97-0.28-2.13-0.28-3.5v-1.72C389.36,53.87,389.34,53.27,389.3,52.9z M396.03,49.76
		c-1.5,0-2.57,0.39-3.23,1.15c-0.29,0.35-0.47,0.8-0.54,1.34c-0.08,0.54-0.1,1.24-0.08,2.1c-0.02,0.33-0.02,0.77,0.02,1.32
		c0.03,0.55,0.05,0.98,0.05,1.29l0.07,1.39c0.07,0.88,0.31,1.5,0.74,1.86c0.43,0.36,0.97,0.61,1.63,0.74
		c0.44,0.07,0.89,0.1,1.35,0.1c0.86,0,1.61-0.15,2.24-0.46c0.64-0.31,1.04-0.81,1.22-1.52c0.09-0.57,0.13-1.02,0.13-1.35
		c0.11-1.54,0.17-2.58,0.17-3.13c0-1.45-0.26-2.62-0.79-3.5C398.47,50.2,397.48,49.76,396.03,49.76z"/>
	<path d="M407.61,47.22c0.04,0.24,0.07,0.55,0.07,0.92v0.83c0.75-0.44,1.63-0.83,2.64-1.17c1.01-0.34,2.02-0.51,3.04-0.51
		c1.21,0.04,2.2,0.39,2.97,1.02c0.53,0.46,0.79,2.34,0.79,5.64c0,0.84-0.02,2.13-0.07,3.89c-0.04,1.67-0.07,2.88-0.07,3.63
		c0,0.97,0.01,1.66,0.03,2.08c-0.42,0.07-1.02,0.1-1.81,0.1h-1.09c-0.04-0.35-0.07-0.97-0.07-1.85v-1.42l0.03-2.11
		c0.04-1.43,0.05-2.45,0.03-3.07c0-0.13-0.03-0.58-0.08-1.35c-0.06-0.77-0.18-1.45-0.38-2.05c-0.07-0.77-0.6-1.12-1.62-1.06
		c-1.52,0.02-2.63,0.23-3.35,0.63c-0.72,0.4-1.12,1.11-1.2,2.15c-0.02,0.29-0.03,0.83-0.03,1.62c0,1.23,0.02,2.55,0.07,3.96
		c0.04,0.84,0.07,1.45,0.07,1.85c0,0.81-0.03,1.65-0.1,2.51v0.13c-0.42,0.09-0.83,0.13-1.24,0.12c-0.41-0.01-0.7-0.02-0.87-0.02
		c-0.35,0-0.63,0.01-0.83,0.03l-0.03-5.68c-0.04-2.6-0.07-4.54-0.07-5.84c0-1.06,0.02-2.73,0.07-5.02c0.26,0.02,0.57,0.03,0.92,0.03
		c0.35,0,0.64-0.01,0.86-0.03c0.13,0,0.29-0.01,0.46-0.03c0.18-0.02,0.35-0.03,0.53-0.03C407.5,47.12,407.61,47.16,407.61,47.22z"/>
	<path d="M421.77,55.27v0.59l-0.03,0.96c0,2.73,1.34,4.09,4.03,4.09c1.08,0,1.88-0.25,2.39-0.74c0.52-0.49,0.78-1.17,0.78-2.03
		c0-0.13-0.02-0.37-0.07-0.73c0.46-0.07,0.89-0.1,1.29-0.1c0.35,0,0.62,0.01,0.79,0.03c0.13,0,0.29,0.01,0.48,0.02
		c0.19,0.01,0.4,0.01,0.64-0.02c0.02,1.25-0.02,2.26-0.13,3c-0.11,0.75-0.37,1.46-0.79,2.15c-0.4,0.59-1.08,1.02-2.06,1.27
		c-0.98,0.25-2.05,0.38-3.22,0.38c-0.53,0-1.02-0.02-1.47-0.07c-0.45-0.04-0.73-0.09-0.84-0.13c-1.72-0.29-2.96-1.37-3.73-3.25
		c-0.77-1.88-1.1-4.03-0.99-6.45c0.02-0.18,0.05-0.54,0.1-1.11c0.04-0.56,0.1-1.14,0.18-1.73c0.08-0.59,0.23-1.18,0.45-1.75
		c0.42-0.97,1.18-1.72,2.28-2.24c1.1-0.53,2.32-0.79,3.66-0.79c0.7,0,1.44,0.09,2.21,0.26c2.99,0.51,4.49,2.76,4.49,6.77
		c0,0.33-0.02,0.8-0.07,1.42c-0.42,0.13-1.65,0.24-3.7,0.33c-0.24,0.02-0.77,0.03-1.58,0.03c-1.74,0-3.02-0.02-3.86-0.07
		C422.44,55.37,422.03,55.34,421.77,55.27z M429.79,52.8c-0.02-0.68-0.19-1.35-0.51-2.01c-0.32-0.66-0.78-1.18-1.37-1.55
		c-0.33-0.15-0.62-0.25-0.86-0.3c-0.24-0.04-0.55-0.07-0.92-0.07c-1.43,0-2.45,0.3-3.05,0.89c-0.61,0.59-0.98,1.44-1.14,2.54
		c-0.04,0.26-0.07,0.44-0.07,0.53c0,0.26,0.13,0.44,0.38,0.53c0.25,0.09,0.8,0.13,1.63,0.13c0.81,0,1.51-0.01,2.08-0.03
		c2.11,0,3.3-0.01,3.56-0.03c0.11-0.02,0.18-0.05,0.21-0.08c0.03-0.03,0.05-0.09,0.05-0.18V52.8z"/>
	<path d="M447.11,51.41c0,0.11-0.38,0.17-1.15,0.17c-0.57,0-0.99-0.01-1.25-0.03c-0.18,0-0.35,0-0.53-0.02
		c-0.18-0.01-0.32,0-0.43,0.02c0-0.02,0-0.4,0-1.14c0-0.74-0.64-1.18-1.91-1.34c-0.29-0.04-0.72-0.07-1.29-0.07
		c-0.62,0-1.17,0.04-1.67,0.13s-0.86,0.21-1.11,0.36c-0.29,0.22-0.51,0.54-0.66,0.96c-0.15,0.42-0.23,0.83-0.23,1.22
		c0,0.31,0.04,0.52,0.13,0.63c0.24,0.51,0.56,0.86,0.96,1.06c0.22,0.15,0.76,0.34,1.62,0.56c0.86,0.22,1.6,0.34,2.21,0.36
		c0.9,0.02,1.7,0.16,2.39,0.41c0.69,0.25,1.24,0.6,1.63,1.04c0.4,0.48,0.69,0.96,0.87,1.44c0.19,0.47,0.28,0.98,0.28,1.53
		c0,0.68-0.17,1.51-0.5,2.48c-0.48,1.03-1.25,1.79-2.31,2.28c-1.06,0.48-2.25,0.71-3.6,0.69c-1.47,0.04-2.77-0.15-3.89-0.58
		c-1.12-0.43-1.99-1.07-2.61-1.93c-0.62-0.86-0.92-1.87-0.92-3.04v-0.17c0.4-0.04,0.98-0.07,1.75-0.07c0.86,0,1.32,0.03,1.39,0.1
		c0.04,0.04,0.14,0.29,0.28,0.74c0.14,0.45,0.4,0.91,0.78,1.37c0.37,0.46,1.01,0.73,1.91,0.79c0.7,0.04,1.12,0.07,1.25,0.07
		c0.35,0,0.64-0.03,0.87-0.1s0.53-0.19,0.91-0.36c1.12-0.51,1.67-1.24,1.65-2.21c0.02-0.64-0.15-1.13-0.51-1.48
		c-0.36-0.35-0.82-0.59-1.37-0.71c-0.55-0.12-1.3-0.24-2.24-0.35c-0.68-0.07-1.23-0.13-1.65-0.2s-0.79-0.18-1.12-0.33
		c-1.14-0.37-2.02-0.96-2.62-1.77c-0.6-0.8-0.91-1.68-0.91-2.62c0-1.03,0.3-1.97,0.91-2.82c0.6-0.85,1.44-1.4,2.49-1.67
		c0.9-0.24,2.06-0.36,3.46-0.36c0.33,0,0.83,0.02,1.49,0.07c0.95,0.07,1.83,0.23,2.64,0.5c0.77,0.33,1.4,0.9,1.88,1.7
		C446.87,49.53,447.11,50.42,447.11,51.41z"/>
	<path d="M453.71,56.96l0.07-1.06c0.15-0.92,0.4-1.74,0.73-2.46c0.33-0.71,0.85-1.51,1.55-2.39c0.66-0.77,1.18-1.46,1.57-2.08
		c0.38-0.62,0.64-1.25,0.78-1.91c0.04-0.26,0.07-0.46,0.07-0.59c0-0.9-0.35-1.62-1.06-2.16c-0.7-0.54-1.65-0.76-2.84-0.68
		c-0.92-0.02-1.61,0.23-2.06,0.74c-0.45,0.52-0.85,1.24-1.2,2.16c-0.13,0.35-0.23,0.59-0.3,0.73l-0.66,0.03
		c-0.31,0-0.77-0.02-1.39-0.07l-0.79-0.03v-0.03c0.07-1.12,0.38-2.2,0.94-3.23c0.56-1.03,1.33-1.89,2.29-2.56
		c0.97-0.67,2.06-1.03,3.27-1.07c0.15-0.02,0.37-0.03,0.66-0.03c1.19,0,2.28,0.25,3.27,0.76c0.99,0.51,1.78,1.2,2.38,2.08
		c0.59,0.88,0.89,1.87,0.89,2.97c0,1.08-0.2,1.98-0.61,2.71s-1.02,1.54-1.83,2.44c-0.53,0.57-0.9,1.01-1.12,1.32
		c-0.48,0.66-0.86,1.29-1.12,1.88c-0.26,0.59-0.45,1.27-0.56,2.01c-0.02,0.15-0.04,0.31-0.07,0.48c-0.02,0.17-0.03,0.34-0.03,0.51
		c0,0.13,0.01,0.22,0.03,0.26v0.03c-0.26,0.04-0.67,0.07-1.22,0.07c-0.18,0-0.39-0.01-0.64-0.02c-0.25-0.01-0.54-0.01-0.87,0.02
		h-0.03c-0.04-0.09-0.07-0.25-0.07-0.5V56.96z M456.19,63.62h-2.38h-0.1c-0.07-0.4-0.1-0.9-0.1-1.52l0.03-1.62
		c0.02-0.2,0.03-0.43,0.03-0.69c0.37-0.15,0.89-0.23,1.55-0.23c0.46,0,0.87,0.04,1.22,0.13c0,0.11-0.03,0.7-0.1,1.78
		c-0.07,1.08-0.1,1.77-0.1,2.08v0.07H456.19z"/>
</g>
</svg>
