<!-- Generator: Adobe Illustrator 23.1.1, SVG Export Plug-In  -->
<svg version="1.1" xmlns="http://www.w3.org/2000/svg" xmlns:xlink="http://www.w3.org/1999/xlink" x="0px" y="0px"
	 width="235.48px" height="160.44px" viewBox="0 0 235.48 160.44" style="enable-background:new 0 0 235.48 160.44;"
	 xml:space="preserve">
<style type="text/css">
	.st0{fill:#798B51;}
	.st1{fill:none;stroke:#000000;stroke-miterlimit:10;}
</style>
<defs>
</defs>
<path class="st0" d="M9.09,142.5c0,0,13-2,9-21c0,0,1.5-37.5,11.5-45.5l2,2c0,0,2-17,7-20v5c0,0,8-17,12-18l-1,5c0,0,9-12,16-14
	c0,0,1,8,2,9s16-14,32-17v6c0,0,6-7,10-7l-2,4c0,0,22-17,43-18l1,5c0,0,18-7,32-7v5c0,0,12-6,21-5v3c0,0,20-9,26-14l-27,40h5
	c0,0-16,24-21,25c0,0,8,2,11,2c0,0-28,32-48,36l9,8c0,0-10,13-16,12l5,3c0,0-21,7-31,6l7,6c0,0-18,11-27,10l6,5h-26
	C77.59,153,36.59,163,9.09,142.5z"/>
<path class="st1" d="M11.59,147c0,0,13-2,9-21c0,0,1.5-37.5,11.5-45.5l2,2c0,0,2-17,7-20v5c0,0,8-17,12-18l-1,5c0,0,9-12,16-14
	c0,0,1,8,2,9s16-14,32-17v6c0,0,6-7,10-7l-2,4c0,0,22-17,43-18l1,5c0,0,18-7,32-7v5c0,0,12-6,21-5v3c0,0,20-9,26-14l-27,40h5
	c0,0-16,24-21,25c0,0,8,2,11,2c0,0-28,32-48,36l9,8c0,0-10,13-16,12l5,3c0,0-21,7-31,6l7,6c0,0-18,11-27,10l6,5h-26
	C80.09,157.5,39.09,167.5,11.59,147z"/>
<g>
	<g>
		<path d="M38.14,78.53c-2.08,3.78-3.5,7.91-4.3,12.12c-0.36,2.12-0.56,4.26-0.53,6.39c0.1,2.13,0.29,4.27,0.91,6.31l0.86,3.14
			c0.15,0.53,0.21,1.08,0.32,1.61c0.09,0.54,0.22,1.08,0.25,1.63c0.29,2.19,0.2,4.4-0.04,6.58c-0.29,2.18-0.82,4.32-1.56,6.37
			c-0.75,2.05-1.68,4.04-2.91,5.83l-0.08-0.05c0.97-1.92,1.74-3.94,2.33-6c0.59-2.06,1.05-4.15,1.23-6.27
			c0.09-0.53,0.08-1.06,0.13-1.59c0.04-0.53,0.07-1.06,0.05-1.59c-0.01-0.53,0.01-1.06-0.01-1.59l-0.12-1.59
			c-0.02-0.53-0.12-1.05-0.2-1.58c-0.09-0.52-0.13-1.06-0.27-1.57l-0.76-3.14c-0.59-2.12-0.74-4.33-0.79-6.51
			c0.02-2.19,0.27-4.36,0.69-6.5c0.94-4.25,2.49-8.35,4.7-12.08L38.14,78.53z"/>
	</g>
	<g>
		<path d="M67.63,45.03c-3.81,5.39-7.1,11.15-9.94,17.1c-2.86,5.94-5.15,12.17-6.5,18.59c-0.15,0.81-0.36,1.6-0.47,2.42l-0.31,2.44
			l-0.16,1.22c-0.03,0.41-0.04,0.82-0.06,1.22l-0.1,2.45c-0.05,1.64-0.01,3.31-0.05,4.96c-0.06,1.66-0.1,3.31-0.21,4.97
			c-0.23,3.31-0.52,6.61-1.06,9.89c-0.56,3.26-1.19,6.56-2.56,9.6l-0.09-0.04c0.59-1.53,0.92-3.16,1.23-4.77
			c0.3-1.62,0.54-3.25,0.73-4.88c0.39-3.27,0.63-6.56,0.75-9.85c0.18-3.29,0.17-6.58,0.27-9.89l0.15-2.5
			c0.03-0.42,0.04-0.83,0.08-1.25l0.18-1.24L49.9,83c0.13-0.82,0.35-1.63,0.52-2.44c1.46-6.49,3.87-12.72,6.83-18.65
			c2.97-5.92,6.38-11.62,10.3-16.94L67.63,45.03z"/>
	</g>
	<g>
		<path d="M26.61,133.95c4.15,1.41,8.33,2.71,12.54,3.94c4.2,1.25,8.42,2.41,12.67,3.45c4.25,1.04,8.53,1.93,12.82,2.76
			c4.28,0.84,8.59,1.54,12.96,1.86v0.1c-4.4,0.26-8.8-0.3-13.14-0.97c-4.35-0.7-8.6-1.82-12.84-2.96
			c-8.48-2.28-16.82-5.02-25.04-8.07L26.61,133.95z"/>
	</g>
	<g>
		<path d="M34.09,128.45c6.85-0.34,13.73-0.36,20.59,0.21c3.42,0.29,6.85,0.83,10.18,1.67c3.31,0.73,6.73,1.05,10.14,1.33
			c6.83,0.54,13.68,0.72,20.53,0.99l20.56,0.79v0.1c-6.86,0.27-13.73,0.23-20.59,0.11c-6.86-0.15-13.72-0.55-20.57-1.2
			c-3.42-0.33-6.85-0.7-10.23-1.5c-3.31-0.88-6.67-1.47-10.08-1.81c-6.81-0.7-13.68-0.82-20.53-0.61L34.09,128.45z"/>
	</g>
	<g>
		<path d="M59.49,111.33c4.06,2.06,8.42,3.46,12.87,4.16c2.23,0.34,4.48,0.45,6.73,0.56c2.25,0.13,4.5,0.06,6.79,0.01l0.01,0.1
			c-2.22,0.62-4.52,0.84-6.82,0.89c-2.31,0.03-4.6-0.31-6.85-0.77c-4.51-0.9-8.85-2.54-12.78-4.86L59.49,111.33z"/>
	</g>
	<g>
		<path d="M61.21,109.59c0.94-5.66,1.9-11.32,3.01-16.96c1.14-5.63,2.42-11.24,3.98-16.77c1.58-5.53,3.35-11.03,5.72-16.29
			c1.21-2.6,2.4-5.27,4.11-7.63c0.86-1.18,1.82-2.29,2.94-3.22c1.14-0.91,2.43-1.64,3.81-2.06l0.03,0.09
			c-2.68,1.06-4.7,3.21-6.22,5.58c-1.54,2.37-2.66,5.01-3.77,7.64c-2.23,5.26-4.19,10.64-5.87,16.11
			c-3.29,10.97-5.52,22.25-7.66,33.52L61.21,109.59z"/>
	</g>
	<g>
		<path d="M102.19,41.96c-5.78,8.69-11.16,17.68-15.31,27.23c-2.06,4.78-3.75,9.7-5.14,14.7c-1.41,5-2.34,10.12-2.88,15.32l-0.1,0
			c-0.04-5.24,0.76-10.47,2.01-15.57c1.28-5.1,3.2-10.01,5.37-14.77c4.35-9.55,9.94-18.44,15.96-26.96L102.19,41.96z"/>
	</g>
	<g>
		<path d="M78.6,99.11c5.45,3.09,11.31,5.4,17.33,7.06c6.02,1.68,12.21,2.71,18.42,3.25c6.22,0.54,12.48,0.54,18.72,0.43
			c6.25-0.09,12.5-0.48,18.76-0.75l0.01,0.1c-6.21,0.85-12.47,1.39-18.74,1.65c-6.28,0.24-12.58,0.02-18.83-0.63
			c-6.25-0.65-12.46-1.79-18.49-3.57c-6.02-1.8-11.85-4.24-17.24-7.45L78.6,99.11z"/>
	</g>
	<g>
		<path d="M105.6,83.18c0.02-4.44,0.3-8.89,0.84-13.31c0.55-4.42,1.4-8.8,2.48-13.12c1.07-4.32,2.37-8.61,4.08-12.73
			c0.42-1.03,0.88-2.05,1.34-3.06c0.46-1.02,0.92-2.03,1.45-3.02c1.04-1.98,2.23-3.9,3.76-5.54l0.08,0.06
			c-2.56,3.63-4.09,7.81-5.7,11.92c-1.57,4.13-3.06,8.29-4.23,12.56c-1.17,4.27-2.11,8.6-2.76,12.99c-0.67,4.38-1.08,8.8-1.23,13.24
			L105.6,83.18z"/>
	</g>
	<g>
		<path d="M105.17,83.36c10.5,2.82,21.33,4.32,32.16,4.5c5.42,0.08,10.83-0.23,16.23-0.7c5.4-0.44,10.76-1.24,16.12-2.17l0.02,0.1
			c-5.24,1.49-10.63,2.44-16.05,3.07c-5.43,0.6-10.9,0.69-16.35,0.5c-10.9-0.36-21.74-2.11-32.17-5.21L105.17,83.36z"/>
	</g>
	<g>
		<path d="M128.3,70.42c2.09-9.21,4.19-18.42,6.35-27.62c1.1-4.59,2.35-9.25,4.71-13.45c2.34-4.14,5.71-7.92,10.07-9.89l0.05,0.09
			c-4.04,2.46-7.1,6.16-9.24,10.28c-2.17,4.12-3.6,8.61-4.81,13.16l-7.03,27.45L128.3,70.42z"/>
	</g>
	<g>
		<path d="M129.53,69.69c4.47,2.11,9.46,2.46,14.33,2.76c4.9,0.31,9.8,0.63,14.7,0.72c4.9,0.09,9.79-0.07,14.66-0.49
			c4.87-0.36,9.69-1.25,14.44-2.48l0.03,0.09c-4.59,1.78-9.47,2.83-14.37,3.38c-4.91,0.56-9.86,0.5-14.78,0.29
			c-4.92-0.2-9.82-0.61-14.71-1.02c-4.86-0.43-9.91-0.92-14.34-3.17L129.53,69.69z"/>
	</g>
	<g>
		<path d="M153.13,56.55c-0.96-3.17-0.56-6.54-0.21-9.76c0.42-3.25,1.1-6.47,2.07-9.61c0.96-3.14,2.12-6.24,3.7-9.12
			c1.6-2.87,3.43-5.62,5.63-8.06l0.08,0.06c-1.73,2.77-3.4,5.55-4.82,8.46c-1.44,2.89-2.77,5.84-3.83,8.91
			c-1.06,3.06-1.82,6.23-2.34,9.43c-0.48,3.19-1.01,6.49-0.19,9.66L153.13,56.55z"/>
	</g>
	<g>
		<path d="M154.29,55.95c5.76,1.67,11.73,2.52,17.69,2.57c2.98,0.01,5.95-0.24,8.91-0.52c2.97-0.26,5.91-0.74,8.87-1.23l0.03,0.1
			c-2.83,1.05-5.8,1.69-8.78,2.13c-3,0.42-6.03,0.45-9.05,0.32c-6.03-0.23-12.02-1.33-17.7-3.27L154.29,55.95z"/>
	</g>
	<g>
		<path d="M168.33,48.61c-0.17-1.4-0.19-2.82-0.02-4.23c0.17-1.41,0.57-2.79,1.05-4.12c0.48-1.33,1.03-2.62,1.49-3.94
			c0.47-1.32,0.89-2.66,1.34-3.99c0.89-2.66,1.81-5.4,3.46-7.79c1.63-2.34,3.88-4.45,6.64-5.25l0.04,0.09
			c-2.49,1.32-4.41,3.37-5.84,5.7c-1.45,2.32-2.55,4.88-3.54,7.51c-0.49,1.31-0.96,2.64-1.48,3.95c-0.51,1.32-1.11,2.6-1.63,3.89
			c-0.53,1.29-0.99,2.61-1.22,3.98c-0.24,1.37-0.29,2.78-0.18,4.18L168.33,48.61z"/>
	</g>
	<g>
		<path d="M173,45.35c4.36,0.04,8.72-0.19,13.03-0.71c2.16-0.27,4.29-0.67,6.44-0.97c2.16-0.28,4.29-0.65,6.48-0.89l0.02,0.1
			c-2.05,0.8-4.19,1.32-6.33,1.78c-2.15,0.43-4.35,0.62-6.53,0.78c-4.37,0.34-8.76,0.35-13.12,0.01L173,45.35z"/>
	</g>
	<g>
		<path d="M186.22,38.11c-0.56-1.4-0.59-2.97-0.33-4.46c0.28-1.49,0.8-2.91,1.36-4.3c0.57-1.38,1.07-2.78,1.84-4.08
			c0.77-1.29,1.69-2.54,2.88-3.48l0.07,0.07c-0.77,1.29-1.45,2.56-2.08,3.88c-0.63,1.31-1.33,2.61-1.99,3.94
			c-0.65,1.32-1.24,2.67-1.6,4.08c-0.38,1.4-0.49,2.9-0.06,4.32L186.22,38.11z"/>
	</g>
	<g>
		<path d="M195.73,31.97c1.92,0,3.83-0.19,5.69-0.55c0.93-0.18,1.83-0.5,2.76-0.66c0.93-0.17,1.86-0.36,2.85-0.45l0.04,0.09
			c-0.8,0.6-1.71,1.01-2.64,1.32c-0.93,0.32-1.92,0.39-2.89,0.49c-1.94,0.2-3.9,0.15-5.81-0.14L195.73,31.97z"/>
	</g>
</g>
<g>
	<path d="M0.09,148.64c2.57,0.13,5.16-0.34,7.58-1.29c2.43-0.95,4.71-2.33,6.87-3.9c4.32-3.15,8.16-7.01,12.28-10.62
		c4.12-3.66,8.67-6.76,13.22-9.76l13.67-8.94c9.12-5.94,18.29-11.82,27.6-17.49c9.32-5.64,18.75-11.1,28.25-16.42
		c19.01-10.62,38.27-20.78,57.26-31.43c19-10.62,37.69-21.83,55.51-34.33c-17.73,12.64-36.34,24-55.27,34.77
		c-18.91,10.8-38.09,21.1-57.01,31.86c-9.46,5.38-18.83,10.91-28.09,16.61c-9.24,5.73-18.36,11.67-27.43,17.68l-13.59,9.04
		c-4.52,3.02-8.96,6.1-12.96,9.71c-4.04,3.59-7.88,7.5-12.33,10.82c-2.23,1.65-4.63,3.14-7.27,4.19c-2.63,1.06-5.51,1.61-8.39,1.49
		L0.09,148.64z"/>
</g>
</svg>
