<!-- Generator: Adobe Illustrator 23.1.1, SVG Export Plug-In  -->
<svg version="1.1" xmlns="http://www.w3.org/2000/svg" xmlns:xlink="http://www.w3.org/1999/xlink" x="0px" y="0px"
	 width="418.97px" height="193.12px" viewBox="0 0 418.97 193.12" style="enable-background:new 0 0 418.97 193.12;"
	 xml:space="preserve">
<style type="text/css">
	.st0{fill:#4A8754;}
	.st1{fill:#477D4B;}
	.st2{fill:none;stroke:#000000;stroke-width:2;stroke-miterlimit:10;}
	.st3{fill:#3F7643;}
	.st4{fill:#386A40;}
</style>
<defs>
</defs>
<path class="st0" d="M399.08,138.08c4.46,3.11,11.75-0.13,12.42-5.53c0.67-5.4-5.6-10.33-10.69-8.4c5.36-0.17,9.16-7.11,6.4-11.71
	c-1.95-3.25-6.09-4.65-9.86-4.38c-3.78,0.26-7.31,1.89-10.74,3.5c4-8.28-2.24-19.63-11.38-20.67c4.33-3.64,4.09-11.38-0.46-14.75
	c-4.54-3.37-12.02-1.34-14.24,3.86c0.67-3.92,0.88-8.89-2.58-10.85c-2.64-1.49-6.16-0.14-8.08,2.22c-1.91,2.36-2.61,5.45-3.25,8.42
	c-4.74-12.83-22.36-18.8-33.92-11.49c-7.78-10.61-18.06-22.41-31.14-21.07c3.87-1.82,5.29-7.42,2.77-10.87
	c-2.52-3.45-8.3-3.77-11.2-0.63c2.3-2.57,4.76-6.03,3.33-9.17c-1.28-2.81-5.21-3.51-8.05-2.28c-2.83,1.24-4.81,3.82-6.66,6.29
	c0.47-5.8,0.88-11.98-1.87-17.12c-2.75-5.14-9.93-8.33-14.6-4.86c-1.87,1.39-3.01,3.55-4.73,5.14c-1.71,1.58-4.6,2.44-6.29,0.82
	c-1.2-1.15-1.24-3.01-1.73-4.6c-1.84-6.04-10.3-7.57-15.94-4.71c-5.64,2.86-9.24,8.45-13.2,13.37c-1,1.24-2.15,2.53-3.72,2.84
	c-2.16,0.43-4.14-1.11-6.02-2.27c-10.64-6.61-26.87-0.04-29.92,12.1c-5.31-3.16-5-12.79-11.02-14.18c-3.58-0.82-7.01,2.23-8.4,5.62
	c-1.39,3.4-1.45,7.18-2.45,10.71c-0.34,1.2-0.87,2.46-1.95,3.07c-2.74,1.56-5.46-2.04-8.38-3.25c-3.83-1.58-8.28,1.53-9.69,5.43
	c-1.4,3.9-0.62,8.2,0.18,12.26c0.81,4.12,1.62,8.25,2.43,12.37c-5.88,0.19-11.73,1.5-17.12,3.86c-1.29,0.57-0.89,1.86-0.56,3.23
	c4.88,20.72,7.89,41.89,8.97,63.15c0.1,2.04,0.29,4.3,1.79,5.68c43.54,0.15,85.66,1.15,129.19,1.3c10.6,0.04,21.2,0.07,31.81,0.11
	C318.95,140.8,358.66,137.94,399.08,138.08"/>
<path class="st1" d="M398.39,138.9c2.4-4.48,0.67-10.7-3.7-13.29c-4.37-2.59-10.66-1.12-13.44,3.14c-0.71-5.55-6.98-8.99-12.56-8.61
	c-5.59,0.38-10.56,3.5-15.26,6.54c-1.25-5.38-6.11-9.74-11.6-10.39c-1.84-0.22-3.84-0.1-5.38-1.13c-2.19-1.46-2.47-4.49-3.18-7.02
	c-0.71-2.54-3.08-5.3-5.5-4.27c0.79-5.04-2.02-10.43-6.6-12.67c-4.58-2.25-10.56-1.17-14.06,2.53c-3.37-5.28-9.45-11.3-14.81-8.05
	c-1.25,0.76-2.24,1.97-3.62,2.44c-3.44,1.17-6.3-2.62-9.24-4.75c-4.81-3.49-12.36-2.28-15.83,2.54c1.46-4.36,0.56-9.44-2.32-13.03
	c-1.29-1.61-3.01-3.06-3.38-5.08c-0.25-1.38,0.18-2.82-0.09-4.2c-0.44-2.2-2.5-3.63-4.39-4.83c-3.1-1.97-6.21-3.94-9.31-5.91
	c-2.83-1.79-6.15-3.67-9.35-2.66c0.64-7.78-10.41-13.43-16.35-8.36c-0.1-5.5-8.39-7.38-12.66-3.92c-4.27,3.46-5.35,9.43-6.14,14.88
	c-4.21-5.3-10.68-11.2-16.79-8.28c-5.03,2.41-7.08,10.05-12.65,10.29c-1.49,0.06-2.94-0.48-4.4-0.79
	c-5.67-1.23-11.96,1.16-15.38,5.85c-3.42,4.69-3.77,11.41-0.86,16.43c0.91,1.57,2.04,3.76,0.66,4.94c-0.57,0.49-1.38,0.56-2.13,0.6
	c-5.45,0.33-10.89,0.66-16.34,0.99c4.91,8.38,6.35,18.6,7.06,28.29c0.65,8.92-0.55,18.12,2.2,26.63
	C226.14,142.75,313.13,140.69,398.39,138.9"/>
<path class="st2" d="M405.5,135.22c4.46,3.11,11.75-0.13,12.42-5.53c0.67-5.4-5.6-10.33-10.69-8.4c5.36-0.17,9.16-7.11,6.4-11.72
	c-1.95-3.25-6.09-4.64-9.86-4.38c-3.78,0.27-7.31,1.89-10.74,3.5c4-8.28-2.24-19.63-11.38-20.67c4.33-3.64,4.09-11.38-0.46-14.75
	c-4.54-3.37-12.02-1.34-14.24,3.86c0.67-3.92,0.88-8.89-2.58-10.85c-2.64-1.49-6.16-0.14-8.08,2.22c-1.91,2.36-2.61,5.45-3.25,8.42
	c-4.74-12.83-22.36-18.8-33.92-11.49c-7.78-10.61-18.05-22.41-31.14-21.07c3.87-1.82,5.29-7.42,2.77-10.87
	c-2.53-3.44-8.3-3.77-11.2-0.63c2.3-2.57,4.76-6.03,3.33-9.17c-1.28-2.81-5.21-3.51-8.05-2.28c-2.83,1.24-4.81,3.82-6.66,6.29
	c0.47-5.8,0.88-11.98-1.87-17.12c-2.75-5.14-9.93-8.33-14.6-4.86c-1.87,1.39-3.01,3.55-4.73,5.14c-1.71,1.58-4.6,2.44-6.29,0.82
	c-1.2-1.15-1.24-3.01-1.73-4.6c-1.84-6.05-10.3-7.57-15.94-4.71c-5.63,2.86-9.24,8.45-13.2,13.37c-1,1.24-2.15,2.53-3.72,2.84
	c-2.16,0.43-4.14-1.11-6.02-2.27c-10.64-6.61-26.87-0.04-29.92,12.11c-5.31-3.16-5-12.79-11.02-14.18c-3.58-0.82-7.01,2.23-8.4,5.62
	c-1.39,3.4-1.45,7.18-2.45,10.71c-0.34,1.2-0.87,2.46-1.95,3.07c-2.74,1.57-5.46-2.04-8.38-3.25c-3.83-1.58-8.28,1.53-9.69,5.43
	c-1.4,3.9-0.62,8.2,0.18,12.26c0.81,4.12,1.62,8.25,2.43,12.37c-5.88,0.19-11.73,1.5-17.12,3.86c-1.29,0.57-0.89,1.86-0.57,3.23
	c4.88,20.72,7.89,41.89,8.97,63.15c0.1,2.04,0.29,4.3,1.79,5.68c43.54,0.15,85.66,1.15,129.19,1.3c10.6,0.04,21.2,0.07,31.81,0.11
	C325.37,137.95,365.07,135.08,405.5,135.22z"/>
<path class="st3" d="M190.44,44.86c4.76,0.18,9.8,0.45,13.74,3.11c3.95,2.66,6.06,8.64,3.03,12.31c2.34,6.88,9.47,11.93,16.86,11.31
	c3.15-0.27,6.32,0.54,8.9,2.37c4.65,3.3,2.19,6.23,2.19,9.31c0,1.99,1.23,3.79,2.91,4.82c2.38,1.46,3.7,4.16,3.11,6.89l-0.39,1.82
	c9.02,1.39,17.76,4.61,25.52,9.41c7.09,4.38,13.32,10.02,20.29,14.57c1.27,0.83,2.61,1.66,3.5,2.9c1,1.4,1.32,3.15,1.89,4.77
	c2.1,6.02,8.14,10.44,14.52,10.61c-96.65,0.37-194.95-1.07-291.52,2.74c-3.43,0.14-7.01,0.13-10.1-1.37
	c-3.09-1.5-5.51-4.93-4.74-8.28c0.77-3.35,5.66-5.24,7.91-2.65c-2.85-7.05,2.46-16.09,10-17.04c-2.99-4.71-3.3-11.42,0.42-15.58
	c3.72-4.16,11.65-3.96,14.21,0.99c3.95-7.41,9.58-13.91,16.34-18.89c2.45-1.81,5.23-3.47,8.27-3.52c3.05-0.05,6.32,2.09,6.48,5.14
	c7.46-5.14,17.45-6.37,25.93-3.2c-2.77-7.39,2.08-16.65,9.74-18.59c-1.51-4.92,2.18-8.47,6.59-11.11c3.31-1.98,8.84-0.82,6.23,3.96
	c0.57-2.27,0.15-4.71,0.8-7.04c0.62-2.25,1.99-4.41,4.08-5.46c3.63-1.82,8.28,0.13,11.93-1.64c1.38-0.67,2.47-1.81,3.71-2.7
	c3.02-2.16,7.06-2.81,10.6-1.7c0.53,0.16,1.06,0.37,1.61,0.35c0.63-0.03,1.2-0.34,1.75-0.63c3.6-1.88,7.55-3.06,11.58-3.48
	c2.3-0.24,5.15,0.09,6.06,2.22c5.53-2.5,11.94-0.4,17.63,1.71c0.85,0.32,1.73,0.65,2.38,1.29c0.87,0.86,0.8,1.75,1.74,2.51
	c1.06,0.86,2.74,0.93,3.84,1.87c0.84,0.73,1.48,1.39,1.62,2.54C191.67,42.03,191.07,44.89,190.44,44.86"/>
<path class="st2" d="M197.02,42.29c4.76,0.18,9.8,0.45,13.74,3.11c3.95,2.66,6.06,8.64,3.03,12.31c2.34,6.88,9.47,11.93,16.86,11.31
	c3.14-0.27,6.32,0.54,8.9,2.37c4.65,3.3,2.19,6.23,2.19,9.31c0,1.98,1.23,3.79,2.91,4.82c2.38,1.46,3.7,4.16,3.11,6.89l-0.39,1.82
	c9.02,1.39,17.76,4.61,25.52,9.41c7.09,4.38,13.32,10.02,20.29,14.57c1.27,0.83,2.61,1.66,3.5,2.9c1,1.4,1.32,3.15,1.89,4.77
	c2.1,6.02,8.14,10.44,14.52,10.61c-96.65,0.37-194.95-1.07-291.52,2.74c-3.43,0.14-7.01,0.13-10.1-1.37
	c-3.09-1.5-5.51-4.93-4.74-8.28c0.77-3.35,5.66-5.24,7.91-2.65c-2.85-7.05,2.46-16.09,10-17.04c-2.99-4.71-3.3-11.42,0.42-15.58
	c3.72-4.16,11.65-3.96,14.21,1c3.95-7.41,9.58-13.91,16.34-18.89c2.45-1.81,5.23-3.48,8.28-3.52c3.05-0.05,6.31,2.09,6.48,5.14
	c7.46-5.14,17.45-6.37,25.93-3.2c-2.77-7.39,2.08-16.66,9.74-18.59c-1.51-4.92,2.18-8.47,6.59-11.11c3.31-1.98,8.84-0.82,6.23,3.96
	c0.57-2.27,0.15-4.71,0.8-7.03c0.62-2.26,1.99-4.41,4.08-5.46c3.63-1.82,8.28,0.12,11.93-1.65c1.38-0.67,2.47-1.8,3.71-2.7
	c3.02-2.16,7.06-2.81,10.6-1.7c0.53,0.16,1.06,0.37,1.61,0.35c0.63-0.02,1.2-0.34,1.75-0.63c3.6-1.88,7.55-3.06,11.58-3.48
	c2.3-0.24,5.15,0.1,6.06,2.22c5.53-2.5,11.94-0.4,17.63,1.71c0.85,0.32,1.73,0.65,2.38,1.29c0.87,0.86,0.8,1.75,1.73,2.51
	c1.06,0.86,2.74,0.93,3.84,1.88c0.84,0.72,1.48,1.39,1.62,2.54C198.25,39.45,197.66,42.31,197.02,42.29z"/>
<path class="st4" d="M319.69,131.68c1.96-1.89,1.15-5.42-0.91-7.2c-2.07-1.77-4.91-2.26-7.61-2.64c-4.18-0.6-7.92-1.72-11.96-0.49
	c0.92-2.18-0.69-4.75-2.84-5.74c-2.15-0.99-4.62-0.81-6.98-0.61c1.38,0.19,2.45-1.45,2.2-2.82s-1.38-2.4-2.54-3.18
	c-2.61-1.76-5.7-2.8-8.85-2.97c1.97-1.98,3.57-4.45,4.01-7.21c0.44-2.76-0.43-5.82-2.62-7.56c-2.13-1.69-5.04-1.9-7.76-1.88
	c-5.55,0.05-9.43,0.95-14.8,2.36c1.01-2.48,2.03-5.13,1.6-7.77c-0.43-2.65-2.89-5.16-5.52-4.62l5.98,0.12
	c-3.14-9.12-12.85-15.52-22.48-14.8c2.82-1.12,5.64-2.24,8.46-3.36c-4.21-3.76-10.58-4.91-15.84-2.85c3.03-1.62,5.31-4.6,6.07-7.95
	c-7.57,0.98-14.66,5.24-19.07,11.47c-3.85-7.86-15.27-10.72-22.37-5.62c-1.45,1.04-2.76,2.36-4.46,2.9c-2.17,0.68-4.5-0.05-6.7-0.6
	c-4.68-1.17-9.68-1.5-14.27-0.02c-4.59,1.48-8.68,4.98-10.04,9.6c-1.21-2.65-1.38-5.7-2.79-8.24c-1.41-2.54-5.01-4.33-7.21-2.44
	c-0.9,0.77-1.32,1.95-1.64,3.09c-1.41,5.04-1.56,10.43-0.43,15.55c-4.52-0.4-8.85,2.67-10.96,6.69s-2.32,8.78-1.75,13.28
	c-8.44-6.28-21.28-5.72-29.14,1.27c0.06-2.21,0.07-4.6-1.22-6.4c-1.29-1.8-4.42-2.37-5.61-0.5c-0.53,0.82-0.54,1.86-0.52,2.83
	c0.06,2.8,0.24,5.6,0.56,8.38c-9.66-2.29-20.52,4.58-22.59,14.29c-2.11-2.19-4.32-4.45-7.16-5.55c-2.84-1.1-6.51-0.69-8.32,1.76
	c-2.37,3.22-0.49,7.67,0.81,11.45c4.06,11.8-13.49,11.93-1.8,25.4c7.77,8.95,16.78,18.56,28.59,19.51c3.69,0.3,7.42-0.3,11.09,0.19
	c4.92,0.66,9.34,3.23,13.87,5.27c15.25,6.88,32.39,7.97,49.09,8.96c5.79,0.34,11.61,0.69,17.36-0.04c4.26-0.54,8.44-1.66,12.72-1.9
	c15.13-0.87,29.25,9.16,44.39,8.54c16.38-0.68,30.73-13.7,47.1-12.76c7.8,0.45,15.18,4.09,22.99,4.33
	c7.81,0.23,16.94-5.32,15.89-13.06c4.42,2.59,10.13-0.19,13.66-3.91c4.51-4.76,7.34-11.48,6.14-17.93
	C342.54,140.97,325.22,126.31,319.69,131.68z"/>
<path class="st2" d="M327.39,134.15c1.96-1.89,1.15-5.42-0.91-7.2c-2.07-1.77-4.91-2.26-7.61-2.64c-4.18-0.6-7.92-1.72-11.96-0.49
	c0.92-2.18-0.69-4.75-2.84-5.74c-2.15-0.99-4.62-0.81-6.98-0.61c1.38,0.19,2.45-1.45,2.2-2.82s-1.38-2.4-2.54-3.18
	c-2.61-1.76-5.7-2.8-8.85-2.97c1.97-1.98,3.57-4.45,4.01-7.21c0.44-2.76-0.43-5.82-2.62-7.56c-2.13-1.69-5.04-1.9-7.76-1.88
	c-5.55,0.05-9.43,0.95-14.8,2.36c1.01-2.48,2.03-5.13,1.6-7.77c-0.43-2.65-2.89-5.16-5.52-4.62l5.98,0.12
	c-3.14-9.12-12.85-15.52-22.48-14.8c2.82-1.12,5.64-2.24,8.46-3.36c-4.21-3.76-10.58-4.91-15.84-2.85c3.03-1.62,5.31-4.6,6.07-7.95
	c-7.57,0.98-14.66,5.24-19.07,11.47c-3.85-7.86-15.27-10.72-22.37-5.62c-1.45,1.04-2.76,2.36-4.46,2.9c-2.17,0.68-4.5-0.05-6.7-0.6
	c-4.68-1.17-9.68-1.5-14.27-0.02c-4.59,1.48-8.68,4.98-10.04,9.6c-1.21-2.65-1.38-5.7-2.79-8.24c-1.41-2.54-5.01-4.33-7.21-2.44
	c-0.9,0.77-1.32,1.95-1.64,3.09c-1.41,5.04-1.56,10.43-0.43,15.55c-4.52-0.4-8.85,2.67-10.96,6.69s-2.32,8.78-1.75,13.28
	c-8.44-6.28-21.28-5.72-29.14,1.27c0.06-2.21,0.07-4.6-1.22-6.4c-1.29-1.8-4.42-2.37-5.61-0.5c-0.53,0.82-0.54,1.86-0.52,2.83
	c0.06,2.8,0.24,5.6,0.56,8.38c-9.66-2.29-20.52,4.58-22.59,14.29c-2.11-2.19-4.32-4.45-7.16-5.55c-2.84-1.1-6.51-0.69-8.32,1.76
	c-2.37,3.22-0.49,7.67,0.81,11.45c4.06,11.8-13.49,11.93-1.8,25.4c7.77,8.95,16.78,18.56,28.59,19.51c3.69,0.3,7.42-0.3,11.09,0.19
	c4.92,0.66,9.34,3.23,13.87,5.27c15.25,6.88,32.39,7.97,49.09,8.96c5.79,0.34,11.61,0.69,17.36-0.04c4.26-0.54,8.44-1.66,12.72-1.9
	c15.13-0.87,29.25,9.16,44.39,8.54c16.38-0.68,30.73-13.7,47.1-12.76c7.8,0.45,15.18,4.09,22.99,4.33
	c7.81,0.23,16.94-5.32,15.89-13.06c4.42,2.59,10.13-0.19,13.66-3.91c4.51-4.76,7.34-11.48,6.14-17.93
	C350.24,143.44,332.92,128.78,327.39,134.15z"/>
</svg>
