<!-- Generator: Adobe Illustrator 23.1.1, SVG Export Plug-In  -->
<svg version="1.1" xmlns="http://www.w3.org/2000/svg" xmlns:xlink="http://www.w3.org/1999/xlink" x="0px" y="0px" width="75.28px"
	 height="11.15px" viewBox="0 0 75.28 11.15" style="enable-background:new 0 0 75.28 11.15;" xml:space="preserve">
<defs>
</defs>
<g>
	<path d="M5.21,0.36v0.01C4.98,1.12,4.7,1.86,4.39,2.6C4.07,3.34,3.68,4.2,3.22,5.18C2.83,6.01,2.53,6.67,2.3,7.16
		c-0.22,0.49-0.43,1-0.62,1.52C1.66,8.67,1.61,8.66,1.55,8.66c-0.07,0-0.13,0-0.18,0.01c-0.14,0-0.24,0-0.31,0.01
		c-0.05,0-0.11,0-0.18,0.01c-0.07,0-0.15,0-0.23-0.01H0.5H0.48c0.26-0.71,0.73-1.91,1.4-3.59l0.11-0.28
		c-0.1-0.26-0.26-0.58-0.48-0.96C1.44,3.68,1.34,3.46,1.22,3.2C1.09,2.95,1.01,2.78,0.96,2.69c-0.25-0.5-0.45-0.92-0.6-1.28
		C0.21,1.04,0.09,0.7,0,0.37c0.1,0,0.25-0.01,0.44-0.02c0.11-0.02,0.2-0.02,0.25-0.02c0.15,0,0.28,0.02,0.37,0.06
		C1.3,0.99,1.56,1.6,1.86,2.22c0.3,0.62,0.57,1.13,0.83,1.55c0.33-0.69,0.7-1.59,1.13-2.71L4.07,0.4C4.25,0.36,4.5,0.35,4.8,0.35
		C4.91,0.34,5.05,0.34,5.21,0.36z"/>
	<path d="M4.55,4.78c0-0.3,0.01-0.55,0.04-0.77s0.1-0.48,0.21-0.8C4.9,2.97,5.13,2.8,5.47,2.68C5.81,2.57,6.18,2.51,6.6,2.51
		c0.06,0.01,0.14,0.01,0.24,0.01l0.48-0.01c0.67,0,1.19,0.18,1.55,0.53c0.14,0.1,0.25,0.28,0.33,0.54c0.08,0.26,0.12,0.62,0.14,1.06
		c0.02,0.44,0.02,0.7,0.02,0.77c-0.03,0.8-0.07,1.44-0.11,1.91S9.11,8.1,8.98,8.23C8.82,8.45,8.61,8.6,8.35,8.68S7.76,8.8,7.39,8.8
		c-0.14,0-0.36-0.01-0.65-0.02L6.19,8.76C5.72,8.68,5.37,8.51,5.13,8.24C4.89,7.98,4.74,7.67,4.67,7.32
		c-0.07-0.35-0.1-0.78-0.1-1.27V5.42C4.57,5.13,4.56,4.91,4.55,4.78z M7,3.64c-0.54,0-0.94,0.14-1.18,0.42
		c-0.1,0.13-0.17,0.29-0.2,0.49C5.59,4.74,5.58,4.99,5.59,5.3C5.58,5.42,5.59,5.58,5.6,5.78c0.01,0.2,0.02,0.36,0.02,0.47l0.02,0.5
		C5.66,7.08,5.75,7.3,5.91,7.43C6.07,7.57,6.26,7.66,6.5,7.7C6.66,7.73,6.83,7.74,7,7.74c0.31,0,0.58-0.06,0.82-0.17
		c0.23-0.11,0.38-0.3,0.44-0.55C8.29,6.81,8.3,6.65,8.3,6.53c0.04-0.56,0.06-0.94,0.06-1.14c0-0.53-0.1-0.95-0.29-1.27
		C7.88,3.8,7.52,3.64,7,3.64z"/>
	<path d="M13.55,8.68c-0.01-0.15-0.01-0.28-0.01-0.38s0-0.19-0.01-0.26c-0.02,0.01-0.08,0.05-0.19,0.13
		c-0.11,0.08-0.29,0.15-0.54,0.2c-0.46,0.17-0.92,0.25-1.36,0.25c-0.5,0-0.87-0.12-1.12-0.36c-0.14-0.12-0.22-0.32-0.25-0.61
		c-0.03-0.28-0.05-0.74-0.06-1.36V5.93c0-0.25,0.01-0.61,0.02-1.09c0.02-0.48,0.04-0.94,0.04-1.37c0-0.21-0.01-0.46-0.02-0.77
		c0.14-0.02,0.34-0.02,0.59-0.02h0.4c0.02,0.24,0.04,0.52,0.04,0.85L11.05,4.5c0,0.32,0,0.55,0.01,0.7l0.01,0.34
		c0,0.29,0.01,0.62,0.04,1.01c0.02,0.26,0.07,0.46,0.16,0.6c0.09,0.14,0.23,0.23,0.41,0.28c0.16,0.02,0.31,0.04,0.44,0.04
		c0.47,0,0.83-0.13,1.09-0.38s0.38-0.6,0.39-1.04c0.01-0.29,0-0.81-0.04-1.57c-0.02-0.38-0.02-0.64-0.02-0.76
		c0-0.22,0.01-0.52,0.02-0.92V2.72c0.13-0.03,0.25-0.05,0.37-0.06c0.12-0.01,0.19-0.01,0.21-0.01c0.17,0,0.31,0,0.43-0.01l0.01,2.06
		c0.02,0.94,0.02,1.65,0.02,2.12c0,0.38-0.01,0.99-0.02,1.82c-0.18,0-0.37,0.01-0.59,0.04c-0.04,0-0.09,0-0.15,0.01
		c-0.06,0.01-0.12,0.01-0.19,0.01C13.59,8.71,13.55,8.7,13.55,8.68z"/>
	<path d="M18.96,2.72c0.02,0.09,0.02,0.2,0.02,0.34v0.3c0.3-0.3,0.65-0.48,1.06-0.54c0.28-0.06,0.52-0.08,0.71-0.08
		c0.34,0,0.63,0.07,0.85,0.2c0.18,0.08,0.29,0.19,0.35,0.34C22,3.24,22.09,3.19,22.19,3.1c0.11-0.08,0.26-0.16,0.44-0.24
		c0.19-0.08,0.45-0.12,0.79-0.13c0.4-0.02,0.71,0,0.94,0.05c0.23,0.05,0.43,0.16,0.62,0.32c0.1,0.09,0.18,0.3,0.22,0.62
		s0.06,0.76,0.06,1.3c0,0.3-0.01,0.78-0.02,1.44c-0.02,0.64-0.02,1.1-0.02,1.37c0,0.22,0.01,0.5,0.02,0.82
		c-0.29,0.05-0.63,0.06-1.02,0.05c-0.02-0.22-0.02-0.61-0.02-1.19c0.02-0.62,0.02-1.1,0.02-1.44v-0.5
		c-0.01-0.06-0.02-0.18-0.02-0.35s-0.02-0.35-0.05-0.55c-0.02-0.2-0.07-0.35-0.14-0.46c-0.05-0.16-0.2-0.25-0.47-0.28
		c-0.08-0.02-0.2-0.02-0.35-0.02c-0.23,0-0.43,0.04-0.6,0.11s-0.29,0.19-0.36,0.35C22.21,4.56,22.2,4.7,22.2,4.8l0.01,0.34v0.44
		c0,0.27-0.01,0.69-0.02,1.25l-0.01,1.2c0,0.3,0,0.51,0.01,0.64c-0.17,0.02-0.4,0.04-0.68,0.04h-0.37
		c-0.02-0.16-0.02-0.44-0.02-0.85V7.21l0.01-0.89c0-0.55-0.02-1.04-0.05-1.46c0-0.34-0.06-0.57-0.17-0.69s-0.32-0.19-0.62-0.19
		c-0.85,0-1.3,0.48-1.37,1.43c-0.01,0.12-0.01,0.3-0.01,0.53c0,0.26,0.01,0.62,0.02,1.08l0.01,0.59c0,0.33-0.01,0.67-0.04,1.02v0.05
		c-0.12,0.02-0.23,0.04-0.34,0.04l-0.4-0.01c-0.12,0-0.22,0-0.29,0.01l-0.01-2.06C17.85,5.7,17.84,5,17.84,4.52
		c0-0.38,0.01-0.99,0.02-1.82c0.21,0.02,0.33,0.02,0.37,0.02l0.26-0.01c0.04,0,0.09,0,0.16-0.01c0.06-0.01,0.13-0.01,0.19-0.01
		C18.92,2.69,18.96,2.7,18.96,2.72z"/>
	<path d="M26.4,2.62c0.06-0.01,0.17-0.01,0.34,0c0.24,0.02,0.5,0.02,0.79,0.02v0.04c0,0.36-0.01,0.92-0.02,1.67
		c-0.02,0.77-0.04,1.54-0.04,2.33c0,0.74,0.02,1.39,0.05,1.97c-0.11,0.02-0.28,0.04-0.5,0.04c-0.22,0-0.36,0-0.41,0
		c-0.14,0-0.23,0-0.26,0.01c0.01-0.23,0.01-0.58,0.01-1.06V6.55V5.54c-0.02-0.56-0.02-0.99-0.02-1.3c0-0.55,0.02-1.09,0.07-1.62
		V2.62z M26.35,0.04c0.5,0.02,0.87,0.02,1.13,0.02l0.04,1.58c-0.08,0.04-0.22,0.06-0.43,0.06c-0.13,0-0.22,0-0.29-0.01
		c-0.05,0-0.1,0-0.17-0.01c-0.06,0-0.14,0-0.23,0.01c0-0.12-0.01-0.32-0.02-0.59C26.35,0.58,26.34,0.22,26.35,0.04z"/>
	<path d="M33.16,10.24c-0.15,0.34-0.34,0.57-0.58,0.68c-0.23,0.11-0.5,0.18-0.8,0.2c-0.35,0.02-0.57,0.02-0.66,0.02
		c-0.15,0-0.35-0.01-0.59-0.02c-0.53-0.04-0.97-0.22-1.33-0.53c-0.36-0.31-0.54-0.7-0.54-1.18c0-0.1,0-0.18,0.01-0.24
		c0.04-0.02,0.15-0.03,0.32-0.04c0.18-0.01,0.34-0.02,0.5-0.02c0.14,0,0.21,0.01,0.23,0.02c0.01,0.02,0.01,0.08,0.01,0.18
		c0,0.21,0.05,0.39,0.14,0.55c0.1,0.16,0.3,0.26,0.61,0.31c0.16,0.01,0.37,0.01,0.62,0.01c0.34,0,0.58-0.02,0.74-0.05
		c0.16-0.04,0.26-0.1,0.3-0.19c0.04-0.09,0.06-0.23,0.04-0.41V9.1V8.7c0-0.04,0-0.08,0.01-0.13s0.01-0.12,0.02-0.2
		c-0.14,0.16-0.29,0.26-0.47,0.29s-0.51,0.05-1,0.05h-0.46c-0.8,0-1.32-0.25-1.56-0.76c-0.2-0.38-0.31-0.84-0.34-1.4
		c0-0.74,0.03-1.36,0.09-1.85c0.06-0.49,0.24-0.93,0.53-1.33s0.75-0.61,1.39-0.65c0.42-0.01,0.74,0.01,0.97,0.04
		c0.23,0.04,0.4,0.1,0.51,0.19c0.11,0.09,0.2,0.21,0.28,0.37C32.17,3.2,32.18,3.1,32.18,3c0-0.05,0-0.1-0.01-0.15
		c0-0.05,0-0.1,0.01-0.15c0.21-0.02,0.36-0.02,0.47-0.02l0.62,0.01c0.03,0.93,0.05,2.02,0.05,3.26c0,1.24-0.02,2.32-0.06,3.24
		c0,0.08,0,0.19-0.01,0.32c0,0.14-0.01,0.27-0.02,0.39C33.22,10.03,33.2,10.14,33.16,10.24z M29.33,5.82v0.14
		C29.3,6.4,29.38,6.8,29.54,7.18s0.48,0.58,0.94,0.6c0.12,0.01,0.28,0.01,0.49,0.01c0.43,0,0.74-0.08,0.93-0.23
		c0.19-0.15,0.29-0.45,0.32-0.89c0-0.57,0-1.02-0.01-1.37c0-0.81-0.18-1.31-0.54-1.5c-0.17-0.1-0.4-0.14-0.7-0.14
		c-0.16,0-0.32,0.01-0.47,0.04C30.06,3.78,29.75,4,29.58,4.37C29.41,4.75,29.33,5.23,29.33,5.82z"/>
	<path d="M35.24,2.24v1.07c0.22-0.18,0.41-0.32,0.57-0.41c0.16-0.09,0.41-0.15,0.73-0.17c0.19-0.02,0.37-0.04,0.54-0.04
		c0.58,0,1.04,0.14,1.37,0.42c0.1,0.09,0.18,0.3,0.22,0.62s0.06,0.76,0.06,1.3c0,0.3-0.01,0.78-0.02,1.44
		c-0.02,0.64-0.02,1.1-0.02,1.37c0,0.22,0.01,0.5,0.02,0.82c-0.32,0.05-0.66,0.06-1.03,0.05c-0.02-0.24-0.02-0.45-0.02-0.62V7.36V5
		c-0.02-0.51-0.14-0.84-0.36-1c-0.05-0.03-0.14-0.06-0.29-0.1c-0.17-0.05-0.34-0.07-0.52-0.07c-0.31,0-0.58,0.08-0.8,0.23
		c-0.22,0.16-0.36,0.4-0.43,0.73c-0.06,0.3-0.08,0.67-0.08,1.09l0.01,0.41c0.02,0.53,0.02,0.96,0.02,1.31c0,0.43-0.01,0.76-0.02,1
		v0.05c-0.16,0.04-0.29,0.06-0.38,0.06L34.44,8.7c-0.11,0-0.2,0-0.28,0.01c0-0.92,0-1.68-0.01-2.28l-0.01-3.67
		c0-0.9,0.01-1.82,0.02-2.76c0.25,0.02,0.45,0.03,0.6,0.02c0.04,0,0.09,0,0.15-0.01C34.97,0,35.04,0,35.1,0
		c0.08,0,0.12,0.01,0.12,0.04c0.02,0.07,0.02,0.56,0.02,1.46V2.24z"/>
	<path d="M41.59,0.46v1.84l0.01,0.67c0.52-0.02,1.16-0.04,1.93-0.08c0.05,0.06,0.07,0.18,0.07,0.36L43.6,3.52
		c-0.02,0.18-0.02,0.3-0.01,0.38c-0.87,0-1.52,0-1.96-0.01v1.84v0.41c0,0.36,0.01,0.62,0.02,0.77s0.05,0.28,0.1,0.4
		c0.13,0.16,0.39,0.26,0.77,0.3c0.39,0.04,0.74,0.05,1.06,0.04c0.04,0.32,0.06,0.52,0.06,0.61c0,0.14-0.02,0.29-0.06,0.43
		c-0.17,0.01-0.43,0.01-0.79,0.01c-0.62,0-1.11-0.08-1.46-0.23C40.98,8.31,40.75,8,40.66,7.55c-0.09-0.78-0.13-1.79-0.13-3.04V3.94
		c-0.05,0.01-0.17,0.01-0.36,0.01l-0.91-0.01l0.04-0.98c0.18,0.02,0.6,0.02,1.26,0.02l-0.01-1.26V1.15c0-0.34,0.01-0.57,0.02-0.71
		c0.11-0.01,0.28,0,0.52,0.01l0.32,0.01C41.49,0.47,41.55,0.46,41.59,0.46z"/>
	<path d="M47.66,2.24v1.07c0.22-0.18,0.41-0.32,0.57-0.41c0.16-0.09,0.41-0.15,0.73-0.17c0.19-0.02,0.37-0.04,0.54-0.04
		c0.58,0,1.04,0.14,1.37,0.42c0.1,0.09,0.18,0.3,0.22,0.62s0.06,0.76,0.06,1.3c0,0.3-0.01,0.78-0.02,1.44
		c-0.02,0.64-0.02,1.1-0.02,1.37c0,0.22,0.01,0.5,0.02,0.82C50.8,8.7,50.46,8.72,50.09,8.7c-0.02-0.24-0.02-0.45-0.02-0.62V7.36V5
		c-0.02-0.51-0.14-0.84-0.36-1c-0.05-0.03-0.14-0.06-0.29-0.1c-0.17-0.05-0.34-0.07-0.52-0.07c-0.31,0-0.58,0.08-0.8,0.23
		c-0.22,0.16-0.36,0.4-0.43,0.73c-0.06,0.3-0.08,0.67-0.08,1.09L47.6,6.3c0.02,0.53,0.02,0.96,0.02,1.31c0,0.43-0.01,0.76-0.02,1
		v0.05c-0.16,0.04-0.29,0.06-0.38,0.06L46.86,8.7c-0.11,0-0.2,0-0.28,0.01c0-0.92,0-1.68-0.01-2.28l-0.01-3.67
		c0-0.9,0.01-1.82,0.02-2.76c0.25,0.02,0.45,0.03,0.6,0.02c0.04,0,0.09,0,0.15-0.01C47.39,0,47.46,0,47.52,0
		c0.08,0,0.12,0.01,0.12,0.04c0.02,0.07,0.02,0.56,0.02,1.46V2.24z"/>
	<path d="M55.78,2.65c0.18-0.01,0.42,0,0.71,0.02l0.31,0.02c0.02,0.13,0.02,0.22,0.02,0.29v0.12c-0.01,0.18-0.01,0.46-0.01,0.83
		c0,0.3,0.01,0.75,0.02,1.34l0.01,1.34c0,0.58-0.02,1.1-0.05,1.57c0,0.02,0,0.08,0,0.16c0,0.08-0.01,0.15-0.02,0.22
		c-0.02,0.06-0.06,0.1-0.13,0.12h-0.2l-0.38-0.01c-0.06,0-0.12,0-0.17,0.01C55.83,8.7,55.79,8.7,55.75,8.7
		c-0.08-0.02-0.12-0.11-0.12-0.26c-0.01-0.06-0.01-0.14,0.01-0.22c0.01-0.08,0.02-0.15,0.02-0.2c-0.19,0.26-0.5,0.44-0.91,0.54
		c-0.42,0.1-0.82,0.14-1.22,0.14c-0.38,0-0.71-0.17-0.98-0.51c-0.27-0.34-0.47-0.76-0.59-1.25c-0.13-0.5-0.19-0.98-0.19-1.45
		c0-0.52,0.09-0.99,0.26-1.4c0.18-0.42,0.42-0.75,0.73-0.99s0.65-0.37,1.03-0.38l0.38-0.01c0.36,0,0.66,0.04,0.89,0.13
		c0.24,0.08,0.41,0.24,0.52,0.46c0-0.07,0.01-0.16,0.02-0.28c0.02-0.16,0.02-0.27,0.02-0.34C55.62,2.66,55.67,2.65,55.78,2.65z
		 M54.43,3.73c-0.42-0.01-0.77,0.1-1.05,0.32c-0.28,0.22-0.46,0.48-0.52,0.79c-0.06,0.23-0.1,0.54-0.1,0.94
		c0.04,1.29,0.56,1.9,1.56,1.85c0.41,0,0.7-0.07,0.89-0.22c0.18-0.14,0.3-0.35,0.34-0.61c0.04-0.26,0.07-0.66,0.07-1.19
		c0-0.58-0.02-0.98-0.07-1.22c-0.05-0.24-0.15-0.4-0.31-0.49S54.82,3.76,54.43,3.73z"/>
	<path d="M57.37,2.68c0.12,0.02,0.29,0.02,0.5,0.02c0.07,0,0.16,0,0.26-0.01c0.1,0,0.21,0,0.33,0.01c0.13,0.45,0.36,1.3,0.71,2.56
		c0.17,0.63,0.29,1.09,0.37,1.37c0.08,0.28,0.18,0.55,0.29,0.82C59.9,7.26,59.99,7,60.1,6.64c0.1-0.36,0.17-0.6,0.2-0.71
		c0.39-1.34,0.73-2.4,1.01-3.2c0.07,0,0.19-0.01,0.35-0.02c0.29-0.02,0.53-0.02,0.72-0.01C62.21,3.11,62.07,3.55,61.93,4
		c-0.14,0.45-0.26,0.9-0.38,1.34c-0.38,1.33-0.73,2.44-1.03,3.32C60.39,8.69,60.18,8.7,59.9,8.7l-0.86-0.01
		c-0.35-1.12-0.61-1.97-0.77-2.55c-0.16-0.58-0.33-1.22-0.5-1.91L57.37,2.68z"/>
	<path d="M63.55,5.64v0.22L63.54,6.2c0,0.99,0.49,1.49,1.46,1.49c0.39,0,0.68-0.09,0.87-0.27c0.19-0.18,0.28-0.43,0.28-0.74
		c0-0.05-0.01-0.14-0.02-0.26c0.17-0.02,0.32-0.04,0.47-0.04c0.13,0,0.22,0,0.29,0.01c0.05,0,0.11,0,0.17,0.01
		c0.07,0,0.15,0,0.23-0.01c0.01,0.46-0.01,0.82-0.05,1.09s-0.14,0.53-0.29,0.78c-0.14,0.22-0.39,0.37-0.75,0.46
		c-0.36,0.09-0.75,0.14-1.17,0.14c-0.19,0-0.37-0.01-0.53-0.02c-0.16-0.02-0.27-0.03-0.31-0.05c-0.62-0.1-1.08-0.5-1.36-1.18
		c-0.28-0.68-0.4-1.47-0.36-2.35c0.01-0.06,0.02-0.2,0.04-0.4c0.02-0.2,0.04-0.41,0.07-0.63c0.03-0.22,0.08-0.43,0.16-0.64
		c0.15-0.35,0.43-0.62,0.83-0.82c0.4-0.19,0.84-0.29,1.33-0.29c0.26,0,0.52,0.03,0.8,0.1c1.09,0.18,1.63,1,1.63,2.46
		c0,0.12-0.01,0.29-0.02,0.52c-0.15,0.05-0.6,0.09-1.34,0.12C65.89,5.7,65.69,5.7,65.4,5.7c-0.63,0-1.1-0.01-1.4-0.02
		C63.79,5.68,63.65,5.66,63.55,5.64z M66.47,4.74c-0.01-0.25-0.07-0.49-0.19-0.73c-0.12-0.24-0.28-0.43-0.5-0.56
		c-0.12-0.06-0.22-0.09-0.31-0.11s-0.2-0.02-0.34-0.02c-0.52,0-0.89,0.11-1.11,0.32s-0.36,0.52-0.41,0.92
		c-0.02,0.1-0.02,0.16-0.02,0.19c0,0.1,0.05,0.16,0.14,0.19c0.09,0.03,0.29,0.05,0.59,0.05c0.3,0,0.55,0,0.76-0.01
		c0.77,0,1.2,0,1.3-0.01c0.04-0.01,0.07-0.02,0.08-0.03c0.01-0.01,0.02-0.03,0.02-0.07V4.74z"/>
	<path d="M74.21,2.65c0.18-0.01,0.42,0,0.71,0.02l0.31,0.02c0.02,0.13,0.02,0.22,0.02,0.29v0.12c-0.01,0.18-0.01,0.46-0.01,0.83
		c0,0.3,0.01,0.75,0.02,1.34l0.01,1.34c0,0.58-0.02,1.1-0.05,1.57c0,0.02,0,0.08,0,0.16c0,0.08-0.01,0.15-0.02,0.22
		c-0.02,0.06-0.06,0.1-0.13,0.12h-0.2l-0.38-0.01c-0.06,0-0.12,0-0.17,0.01C74.27,8.7,74.22,8.7,74.18,8.7
		c-0.08-0.02-0.12-0.11-0.12-0.26c-0.01-0.06-0.01-0.14,0.01-0.22c0.01-0.08,0.02-0.15,0.02-0.2c-0.19,0.26-0.5,0.44-0.91,0.54
		c-0.42,0.1-0.82,0.14-1.22,0.14c-0.38,0-0.71-0.17-0.98-0.51c-0.27-0.34-0.47-0.76-0.59-1.25c-0.13-0.5-0.19-0.98-0.19-1.45
		c0-0.52,0.09-0.99,0.26-1.4c0.18-0.42,0.42-0.75,0.73-0.99s0.65-0.37,1.03-0.38l0.38-0.01c0.36,0,0.66,0.04,0.89,0.13
		c0.24,0.08,0.41,0.24,0.52,0.46c0-0.07,0.01-0.16,0.02-0.28c0.02-0.16,0.02-0.27,0.02-0.34C74.05,2.66,74.1,2.65,74.21,2.65z
		 M72.86,3.73c-0.42-0.01-0.77,0.1-1.05,0.32c-0.28,0.22-0.46,0.48-0.52,0.79c-0.06,0.23-0.1,0.54-0.1,0.94
		c0.04,1.29,0.56,1.9,1.56,1.85c0.41,0,0.7-0.07,0.89-0.22c0.18-0.14,0.3-0.35,0.34-0.61c0.04-0.26,0.07-0.66,0.07-1.19
		c0-0.58-0.02-0.98-0.07-1.22c-0.05-0.24-0.15-0.4-0.31-0.49S73.25,3.76,72.86,3.73z"/>
</g>
</svg>
