<!-- Generator: Adobe Illustrator 23.1.1, SVG Export Plug-In  -->
<svg version="1.1" xmlns="http://www.w3.org/2000/svg" xmlns:xlink="http://www.w3.org/1999/xlink" x="0px" y="0px" width="506.9px"
	 height="575.09px" viewBox="0 0 506.9 575.09" style="enable-background:new 0 0 506.9 575.09;" xml:space="preserve">
<style type="text/css">
	.st0{fill:#4A8754;}
	.st1{clip-path:url(#SVGID_2_);fill:url(#SVGID_3_);}
	.st2{fill:none;stroke:#000000;stroke-width:2;stroke-miterlimit:10;}
	.st3{fill:#739A33;}
	.st4{fill:#513128;}
	.st5{fill:url(#SVGID_4_);}
	.st6{fill:#593A33;}
	.st7{clip-path:url(#SVGID_6_);fill:url(#SVGID_7_);}
	.st8{fill:url(#SVGID_8_);}
</style>
<defs>
</defs>
<g>
	<g>
		<path class="st0" d="M30.67,308.35C9.85,295.23,0.34,268.28,3.73,243.91c3.39-24.38,17.91-46.11,36.01-62.79
			c18.1-16.68,39.72-28.96,61.14-41.09c-15.78-10.05-13.75-34.35-4.31-50.51c22.92-39.21,79.89-53.55,118.63-29.85
			c19.9-27.16,49.39-47.14,81.99-55.56c44.85-11.59,86.59,13.03,123.15,41.46c15.88,12.34,30.82,25.88,44.68,40.45
			c8.89,9.35,17.43,19.27,23.13,30.85c9.39,19.08,10.25,42.16,2.31,61.89c-5.9,14.65-16.59,28.84-14.1,44.43
			c1.99,12.46,12.01,21.99,16.94,33.6c7.34,17.28,2.72,37.24-4.2,54.69c-9.62,24.24-23.86,47.1-43.94,63.75
			c-20.07,16.66-46.38,26.64-72.32,23.99c-28.94-2.96-57.74-20.91-85.29-11.58c-18.29,6.19-30.87,23.12-48.1,31.83
			c-12.42,6.28-26.59,7.97-40.41,9.55l-36.3,4.17c-20.67,2.37-41.62,4.74-62.22,1.79s-41.15-11.87-53.89-28.33
			C25.6,379.49,29.38,342.68,30.67,308.35"/>
	</g>
	<g>
		<defs>
			<path id="SVGID_1_" d="M280,26.01c-30.75,7.82-58.56,26.37-77.33,51.58c-36.55-21.99-90.28-8.69-111.9,27.72
				c-8.9,15-10.82,37.56,4.06,46.89c-20.2,11.26-40.6,22.66-57.67,38.14C20.1,205.83,6.4,226,3.2,248.63
				c-3.2,22.63,5.77,47.64,25.41,59.83c-1.22,31.87-4.79,66.04,15.05,91.26c12.01,15.27,31.4,23.56,50.83,26.3
				c19.43,2.74,39.18,0.54,58.68-1.66c11.41-1.29,22.83-2.58,34.24-3.87c13.04-1.47,26.4-3.04,38.12-8.87
				c16.25-8.09,28.11-23.81,45.37-29.55c25.99-8.66,53.15,8.01,80.45,10.75c24.47,2.46,49.29-6.81,68.22-22.27
				c18.93-15.46,32.36-36.68,41.44-59.19c6.53-16.19,10.88-34.73,3.97-50.77c-4.65-10.78-14.1-19.62-15.98-31.19
				c-2.35-14.47,7.74-27.65,13.3-41.25c7.49-18.31,6.68-39.74-2.18-57.45c-5.37-10.75-13.43-19.96-21.81-28.64
				c-13.07-13.53-27.17-26.09-42.14-37.55c-28.51-21.82-60.34-41.21-94.42-41.21C294.59,23.29,287.34,24.15,280,26.01"/>
		</defs>
		<clipPath id="SVGID_2_">
			<use xlink:href="#SVGID_1_"  style="overflow:visible;"/>
		</clipPath>
		
			<linearGradient id="SVGID_3_" gradientUnits="userSpaceOnUse" x1="366.1754" y1="1271.2563" x2="367.1754" y2="1271.2563" gradientTransform="matrix(465.9114 0 0 -465.9114 -170602.6875 592518.8125)">
			<stop  offset="0" style="stop-color:#386A40"/>
			<stop  offset="1" style="stop-color:#4A8754"/>
		</linearGradient>
		<rect y="23.29" class="st1" width="471.88" height="405.47"/>
	</g>
	<path class="st2" d="M39.54,308.17c-20.82-13.13-30.33-40.07-26.94-64.44c3.39-24.38,17.91-46.11,36.01-62.79
		c18.1-16.68,39.72-28.96,61.14-41.09c-15.78-10.05-13.75-34.35-4.31-50.51c22.92-39.21,79.89-53.55,118.63-29.86
		c19.9-27.16,49.39-47.14,81.99-55.56c44.84-11.59,86.59,13.03,123.15,41.46c15.88,12.34,30.82,25.88,44.68,40.45
		c8.89,9.35,17.43,19.27,23.13,30.85c9.39,19.08,10.25,42.16,2.31,61.89c-5.9,14.65-16.59,28.84-14.1,44.43
		c1.99,12.46,12.01,21.99,16.94,33.6c7.34,17.28,2.72,37.24-4.2,54.69c-9.62,24.24-23.86,47.1-43.94,63.75
		c-20.07,16.66-46.38,26.64-72.32,23.99c-28.94-2.96-57.74-20.91-85.29-11.58c-18.29,6.19-30.87,23.12-48.1,31.83
		c-12.42,6.28-26.58,7.97-40.41,9.55c-12.1,1.39-24.2,2.78-36.3,4.17c-20.67,2.37-41.62,4.74-62.21,1.79s-41.15-11.87-53.89-28.33
		C34.47,379.3,38.25,342.49,39.54,308.17z"/>
	<path class="st3" d="M67.71,341.85c2.55,0.9,5.28,1.77,7.92,1.17"/>
	<path class="st4" d="M213.68,449.37c2.8-13.85,5.21-28.85-0.84-41.62c-4.9-10.35-14.58-17.49-23.87-24.18
		c-15.59-11.23-32.05-22.81-51.11-25.27c-14.36-1.85-29.29,1.65-43.24-2.23c-10.46-2.91-19.89-13.13-20.38-23.02
		c-0.16-3.29,4.26-4.52,5.96-1.71c7.24,11.98,23.27,18.2,37.9,19.18c17.52,1.17,35.41-2.55,52.55,1.28
		c16.69,3.72,30.94,14.21,44.64,24.43c4.84-12.46-2.74-26.65-13.06-35.14c-10.32-8.49-23.16-13.3-34.17-20.88
		c-10.95-7.54-20.58-19.59-19.16-32.79c0.04-0.4,0.38-0.7,0.78-0.72c5.02-0.27,3.06,4.54,6.38,5.51c1.53,0.45,2.9,1.39,3.77,2.72
		c5.77,8.77,20.45,8.54,31.46,12.09c12.94,4.18,27.27,7.48,35.96,17.94c5.42,6.54,7.9,15.13,13.39,21.61
		c9.67,11.42,26.33,13.81,41.28,13.01c22.14-1.19,43.97-7.69,63.16-18.8c9.87-5.72,19.89-14.07,20.82-25.45
		c2-24.59-38.57-39.91-30.56-63.83c5.59-0.36,6.14-0.4,11.74-0.76l25,48.64c6.4-1.9,8.97-9.66,8.99-16.34
		c0.03-6.67-1.44-13.61,0.92-19.85c1.88-4.97,7.76-8.76,12.46-7.73c1.96,0.43,3.28,2.3,3.09,4.29
		c-4.99,52.61-40.63,101.28-89.39,121.74c-15.96,6.7-34.21,11.34-44.59,25.19c-9.66,12.88-9.85,30.41-8.28,46.44
		c3.56,36.25,14.05,71.82,30.78,104.18c1.98,3.82,2.21,8.38,0.39,12.28c-2.75,5.89-8.04,5.7-12.83,5.39
		c-26.34-1.69-52.68-3.39-79.02-5.08c-4.52-0.29-8.85-2.19-11.93-5.51c-7.15-7.7,3.1-10.12,4.5-16.63
		c3.32-15.45,7.33-18.7,10.08-28.85C203.47,495.91,208.96,472.71,213.68,449.37"/>
	<g>
		<linearGradient id="SVGID_4_" gradientUnits="userSpaceOnUse" x1="319.2206" y1="249.4882" x2="435.0542" y2="249.4882">
			<stop  offset="0" style="stop-color:#386A40"/>
			<stop  offset="1" style="stop-color:#4A8754"/>
		</linearGradient>
		<path class="st5" d="M323.61,245.08c1.53,2.29,3.57,4.98,2.32,7.42c-0.67,1.31-2.2,2.17-2.58,3.58c-0.55,2.04,1.5,3.79,3.32,4.99
			l5.88,3.89c2.52,1.66,5.37,3.41,8.4,2.95c2.62-0.39,4.75-2.38,7.38-2.73c3.47-0.46,6.88,2.04,10.3,1.34
			c1.39-0.28,2.65-1.08,4.06-1.14c1.74-0.08,3.29,0.96,4.72,1.89c7.47,4.86,16.61,8.27,25.51,6.66c5.43-0.98,10.47-3.78,16-4.02
			c2.97-0.13,6.33,0.38,8.57-1.48c0.9-0.75,1.46-1.79,2.29-2.6c2.43-2.39,6.38-2.35,9.76-3.23c3.38-0.88,6.84-4.3,5.02-7.13
			c-1.37-2.13-4.59-2.08-7.18-1.67c-9.33,1.49-18.88,4.46-28.05,2.22c-4.89-1.19-9.25-3.8-13.9-5.68
			c-6.54-2.65-13.66-3.87-20.77-4.11c-7.96-0.27-17.05,0.26-22.57-5.18c-3.14-3.1-4.36-7.54-7.19-10.89
			c-2.76-3.27-10.73-8.04-14.18-3.93C317.05,230.57,320.99,241.17,323.61,245.08"/>
		<path d="M320.47,226.62c0.12,0.91-0.21,1.73-0.42,2.58c-0.4,1.7,0.23,3.45-0.09,5.03c-0.3,1.59,0,3.23,0.61,4.74
			c0.64,1.52,1.57,2.94,2.58,4.31c1.03,1.37,2.18,2.66,3.35,3.98c0.57,0.65,1.26,1.38,1.65,2.4c0.44,1.04,0.19,2.36-0.39,3.21
			c-0.56,0.89-1.26,1.53-1.89,2.13c-0.62,0.6-1.22,1.18-1.51,1.77c-0.28,0.58-0.32,1.13-0.03,1.71c0.3,0.59,0.87,1.16,1.52,1.73
			c2.63,2.34,5.25,4.68,8.37,6.26c1.56,0.78,3.23,1.34,4.97,1.56c1.74,0.19,3.54,0.09,5.19-0.49c0.82-0.29,1.59-0.69,2.28-1.2
			c0.7-0.49,1.28-1.16,2.04-1.71c0.74-0.57,1.73-0.92,2.69-0.96c0.97-0.05,1.91,0.12,2.8,0.35c1.79,0.45,3.45,1.2,5.15,1.09
			c0.84-0.03,1.69-0.21,2.37-0.57c0.33-0.19,0.63-0.42,0.83-0.69c0.19-0.28,0.3-0.59,0.34-0.93l1.21,0.05
			c0.06,1.04,0.66,1.85,1.63,2.39c0.97,0.54,2.15,0.86,3.34,1.18c1.2,0.32,2.43,0.6,3.68,1.01c1.22,0.39,2.55,0.99,3.58,1.83
			c1.04,0.8,1.89,1.67,2.82,2.28c0.92,0.59,1.97,1.01,3.07,1.18c2.21,0.39,4.59-0.13,6.32-1.39l1.08-0.78l0.57,1.17
			c0.71,1.46,2.7,2.05,4.7,1.85c0.99-0.09,2-0.33,2.92-0.71c0.9-0.39,1.88-0.93,2.82-1.48c1.91-1.1,3.92-2.39,6.4-2.93
			c2.58-0.53,4.93,0.17,7,0.23c1.04,0.04,1.99-0.1,2.72-0.57c0.73-0.44,1.19-1.29,1.75-2.27c0.52-0.99,1.43-2.03,2.5-2.62
			c1.06-0.64,2.23-0.97,3.35-1.23c2.27-0.53,4.52-0.59,6.45-1.56c0.97-0.46,1.87-1.09,2.52-1.9c0.31-0.41,0.57-0.87,0.71-1.36
			c0.12-0.5,0.12-1.02,0-1.53l0.2-0.06c0.18,0.52,0.25,1.09,0.17,1.66c-0.09,0.56-0.34,1.09-0.65,1.57
			c-0.65,0.95-1.56,1.7-2.56,2.28c-0.98,0.59-2.15,1-3.26,1.24c-1.11,0.27-2.21,0.49-3.26,0.79c-1.05,0.3-2.06,0.67-2.88,1.23
			c-0.86,0.55-1.38,1.27-1.86,2.2c-0.48,0.9-1,2.1-2.17,2.9c-0.56,0.38-1.21,0.65-1.85,0.8c-0.64,0.14-1.28,0.18-1.89,0.19
			c-2.43-0.03-4.61-0.54-6.5-0.05c-1.95,0.46-3.78,1.61-5.7,2.77c-0.98,0.58-1.93,1.17-3.09,1.66c-1.15,0.48-2.37,0.77-3.62,0.88
			c-1.25,0.11-2.56,0.02-3.84-0.44c-1.28-0.42-2.45-1.44-3.04-2.66l1.65,0.39c-2.32,1.61-5.28,2.16-8.01,1.63
			c-1.37-0.24-2.69-0.79-3.84-1.57c-1.12-0.79-1.99-1.69-2.88-2.43c-1.67-1.46-4.09-2-6.52-2.74c-1.22-0.37-2.47-0.78-3.64-1.51
			c-0.57-0.39-1.15-0.84-1.51-1.48c-0.42-0.61-0.53-1.34-0.57-2.02l1.22,0.05c-0.09,0.52-0.3,1.03-0.64,1.45
			c-0.35,0.41-0.78,0.72-1.24,0.95c-0.93,0.44-1.91,0.58-2.87,0.58c-0.95,0.01-1.94-0.2-2.8-0.49c-0.87-0.29-1.71-0.58-2.56-0.82
			c-0.85-0.23-1.71-0.4-2.56-0.37c-0.84,0.03-1.65,0.29-2.33,0.79c-0.69,0.49-1.3,1.13-2.05,1.68c-0.74,0.56-1.56,1-2.44,1.32
			c-3.54,1.25-7.53,0.78-10.9-0.7c-3.41-1.49-6.26-3.78-9.03-5.99c-0.7-0.58-1.45-1.23-1.98-2.18c-0.57-0.95-0.56-2.29-0.04-3.25
			c0.5-0.97,1.22-1.62,1.85-2.25c0.64-0.62,1.26-1.19,1.63-1.78c0.38-0.59,0.49-1.14,0.27-1.73c-0.21-0.61-0.73-1.23-1.31-1.89
			c-1.14-1.34-2.28-2.72-3.31-4.18c-1.03-1.46-1.94-3.04-2.55-4.75c-0.58-1.71-0.83-3.61-0.38-5.4c0.46-1.79-0.04-3.38,0.49-5
			c0.27-0.8,0.66-1.54,0.62-2.35"/>
	</g>
	<g>
		<path class="st6" d="M205.82,560.23l9.54-41.55c1.66-6.91,3.37-13.81,4.76-20.78c0.69-3.49,1.32-6.98,1.89-10.49
			c0.62-3.5,1.08-7.02,1.58-10.54c0.96-7.04,1.82-14.09,2.72-21.13c0.84-7.05,1.63-14.11,2.38-21.17l0.59-5.29l0.55-5.3
			c0.4-3.53,0.77-7.05,0.92-10.57c0.07-1.76,0.09-3.51,0.04-5.27c-0.07-1.75-0.24-3.5-0.52-5.23c-0.32-1.72-0.74-3.42-1.33-5.08
			c-0.62-1.64-1.41-3.22-2.36-4.72l0.16-0.12c1.1,1.41,2.03,2.96,2.79,4.59c0.73,1.65,1.31,3.36,1.72,5.12
			c0.79,3.52,1.09,7.14,1.06,10.73c-0.03,3.59-0.29,7.16-0.57,10.7c-0.25,3.55-0.59,7.09-0.94,10.64
			c-1.48,14.16-3.49,28.27-6.14,42.25l-3.91,20.98c-0.61,3.5-1.25,7-1.83,10.51c-0.64,3.5-1.25,7.01-1.95,10.5
			c-2.89,13.94-6.54,27.72-10.98,41.24L205.82,560.23z"/>
	</g>
	<g>
		<path class="st6" d="M270.17,564.65c-4.32-3.5-8.52-7.22-12.22-11.44c-3.67-4.22-6.93-8.93-8.99-14.23
			c-2.08-5.3-2.98-10.92-3.57-16.47c-0.31-2.78-0.49-5.56-0.69-8.34l-0.61-8.32l-1.03-16.66l-0.5-8.33l-0.58-8.33
			c-0.73-11.09-2.02-22.22-1.03-33.4c0.95-11.18,4.66-22.14,10.63-31.69c3-4.77,6.53-9.21,10.52-13.2
			c3.98-3.99,8.5-7.47,13.33-10.37c9.64-5.86,20.18-9.7,30.23-14.35c5.02-2.33,9.99-4.8,14.58-7.88c4.59-3.06,8.86-6.67,12.3-11.05
			l0.16,0.12c-3.24,4.55-7.33,8.49-11.88,11.76c-4.56,3.27-9.47,6.01-14.48,8.46c-5.02,2.46-10.12,4.7-15.14,7.06
			c-5.01,2.37-10,4.76-14.69,7.64c-4.72,2.83-9.01,6.27-12.94,10.09c-3.92,3.83-7.41,8.11-10.39,12.72
			c-5.92,9.26-9.81,19.83-11.13,30.8c-0.63,5.49-0.76,11.05-0.52,16.6c0.22,5.55,0.66,11.1,1.15,16.64l0.71,8.32l0.79,8.31
			l1.57,16.62l1.39,16.61c0.51,5.5,1.33,10.98,3.26,16.1c1.92,5.11,4.86,9.84,8.36,14.1c3.49,4.28,7.47,8.18,11.55,11.96
			L270.17,564.65z"/>
	</g>
</g>
</svg>
