<!-- Generator: Adobe Illustrator 23.1.1, SVG Export Plug-In  -->
<svg version="1.1" xmlns="http://www.w3.org/2000/svg" xmlns:xlink="http://www.w3.org/1999/xlink" x="0px" y="0px"
	 width="115.55px" height="166.18px" viewBox="0 0 115.55 166.18" style="enable-background:new 0 0 115.55 166.18;"
	 xml:space="preserve">
<style type="text/css">
	.st0{fill:#6D9C56;}
	.st1{fill:none;stroke:#000000;stroke-miterlimit:10;}
	.st2{fill:#E1EECA;}
	.st3{opacity:0.69;fill:#E1EECA;}
	.st4{fill:#567A43;}
</style>
<defs>
</defs>
<path class="st0" d="M0,163.38c1.83-4.26,2.4-9.52,5.32-13.19c3.83-4.83,9.87-5.53,15.51-6.31c17.3-2.37,32.08-8.9,45.46-20.15
	c11.09-9.31,12.58-22.95,21.16-33.98c4.05-5.21,10.25-8,14.44-12.83c5.56-6.42,7.05-16.13,9.14-24.1
	c4.74-18.1,1.66-35.26-2.48-52.58c-5.04,1.38-10.78,8.29-14.1,12.37c-4.14,5.08-7.23,11.21-11.97,15.53
	c-10.12,9.23-24.09,12.38-35.03,20.4c-14.02,10.28-25.41,23.3-32.81,39.03C10,97.37,4.1,108.74,3.09,119.46
	C1.81,133.2,0,146.5,0,163.38z"/>
<path class="st1" d="M1.63,163.75c1.83-4.26,2.4-9.52,5.32-13.19c3.83-4.83,9.87-5.53,15.51-6.31c17.3-2.37,32.08-8.9,45.46-20.15
	C79,114.79,80.5,101.15,89.07,90.12c4.05-5.21,10.25-8,14.44-12.83c5.56-6.42,7.05-16.13,9.14-24.1c4.74-18.1,1.66-35.26-2.48-52.58
	C105.13,2,99.39,8.91,96.07,12.99c-4.14,5.08-7.23,11.21-11.97,15.53C73.97,37.74,60,40.89,49.06,48.91
	c-14.02,10.28-25.41,23.3-32.81,39.03c-4.62,9.81-10.52,21.17-11.53,31.89C3.43,133.57,1.63,146.88,1.63,163.75z"/>
<path class="st2" d="M8.54,141.32c1.67-2.12,2.59-5.5,4.06-7.99c3.15-5.33,7.88-9.49,12.42-13.62c8.93-8.12,18.63-15.04,28.59-21.82
	c10.67-7.26,22.2-13.5,32.14-21.82c7.89-6.61,12.22-14.3,15.3-23.78c2.18-6.71,6.4-13.07,7.57-19.93
	c-0.06,8.38-2.65,16.61-4.53,24.84c-2.33,10.17-10.56,18.36-16.43,26.7c-5.42,7.71-11.3,14.87-16.6,22.76
	c-3.71,5.53-9.49,9.84-15.5,12.56c-7.22,3.27-14.82,4.53-22.25,6.94c-5.86,1.89-10.68,4.55-15.32,8.39
	C14.87,137.13,10.36,138.19,8.54,141.32z"/>
<path class="st3" d="M18.84,113.38c0-16.74,8.91-38.34,22.96-49.14C55.68,53.57,73.1,48.87,86.7,37.9c3.97-3.2,5.93-7.9,9.25-11.52
	c-2.64,5.32-5.05,10.4-9.53,14.85c-6.78,6.73-15.77,12.45-23.76,17.64c-9.36,6.08-19.39,12.11-25.61,21.82
	c-4.14,6.47-7.5,13.64-10.82,20.66C23.53,107.05,23.54,112.31,18.84,113.38z"/>
<path class="st4" d="M11.2,123.03c6.59-0.27,14.57-8.11,19.29-12.28c7.51-6.63,14.88-13.67,22.34-20.37
	c16.91-15.19,39.81-27.42,45.54-50.96c1.56-6.4,4.86-12.94,5.62-19.38c-0.68,8.68-4.01,17.6-6.5,25.85
	c-3.19,10.6-7.15,21.02-16.13,27.92c-8.8,6.77-17.2,13.84-26.56,19.61c-8.98,5.53-16.25,13.08-24.64,19.45
	c-3.58,2.71-6.92,5.44-10.43,8.16C18.28,122.14,8.74,129.23,11.2,123.03z"/>
</svg>
