<!-- Generator: Adobe Illustrator 23.1.1, SVG Export Plug-In  -->
<svg version="1.1" xmlns="http://www.w3.org/2000/svg" xmlns:xlink="http://www.w3.org/1999/xlink" x="0px" y="0px"
	 width="157.34px" height="24.52px" viewBox="0 0 157.34 24.52" style="enable-background:new 0 0 157.34 24.52;"
	 xml:space="preserve">
<defs>
</defs>
<g>
	<path d="M13.89,20.79c0,0.2-0.02,0.47-0.05,0.81c-0.03,0.34-0.04,0.63-0.02,0.88c0,0.53-0.03,0.9-0.08,1.11
		c-0.06,0.21-0.13,0.33-0.21,0.36c-0.09,0.03-0.25,0.05-0.5,0.05c-0.2-0.02-0.41-0.03-0.64-0.02c-0.23,0.01-0.47,0.02-0.71,0.02
		c-1.98,0.07-3.91,0.1-5.78,0.1l-4.52-0.03C1.1,24.04,0.64,24.02,0,24.02v-0.59c0.18-4.14,0.26-7.79,0.26-10.96
		c0-2-0.03-4.22-0.1-6.67c0-0.84-0.02-2.51-0.07-5.02c0.29-0.11,0.75-0.17,1.39-0.17c0.95,0,1.68,0.11,2.21,0.33
		C3.65,2.67,3.63,3.97,3.63,4.85c0,1.06,0.02,2.66,0.07,4.82l0.03,4.79v2.08c0,1.69-0.02,3.06-0.07,4.09v0.03
		c0.26-0.02,0.71-0.04,1.35-0.07c0.64-0.02,1.26-0.03,1.88-0.03c0.68,0,1.86,0.04,3.53,0.13c1.5,0.09,2.45,0.13,2.87,0.13
		C13.61,20.82,13.8,20.81,13.89,20.79z"/>
	<path d="M16.1,7.33c0.15-0.02,0.46-0.02,0.92,0c0.66,0.04,1.39,0.07,2.18,0.07v0.1c0,0.99-0.02,2.52-0.07,4.59
		c-0.07,2.11-0.1,4.25-0.1,6.4c0,2.02,0.04,3.83,0.13,5.41c-0.31,0.07-0.77,0.1-1.39,0.1s-0.99,0-1.12,0c-0.4,0-0.64,0.01-0.73,0.03
		c0.02-0.64,0.03-1.61,0.03-2.9v-2.97v-2.77c-0.04-1.54-0.07-2.73-0.07-3.56c0-1.52,0.07-3,0.2-4.46V7.33z M15.97,0.23
		c1.36,0.04,2.4,0.07,3.1,0.07l0.1,4.36c-0.22,0.11-0.62,0.17-1.19,0.17c-0.35,0-0.62-0.01-0.79-0.03c-0.13,0-0.29,0-0.46-0.02
		c-0.18-0.01-0.38,0-0.63,0.02c0-0.33-0.02-0.87-0.07-1.62C15.97,1.72,15.95,0.74,15.97,0.23z"/>
	<path d="M27.69,1.39v5.05l0.03,1.85c1.43-0.04,3.2-0.12,5.31-0.23c0.13,0.18,0.2,0.51,0.2,0.99L33.2,9.8
		c-0.04,0.48-0.05,0.84-0.03,1.06c-2.4,0-4.19-0.01-5.38-0.03v5.05V17c0,0.99,0.02,1.69,0.07,2.11c0.04,0.42,0.13,0.78,0.26,1.09
		c0.35,0.44,1.06,0.71,2.13,0.83c1.07,0.11,2.04,0.14,2.92,0.1c0.11,0.88,0.17,1.44,0.17,1.68c0,0.4-0.05,0.79-0.17,1.19
		c-0.46,0.02-1.19,0.03-2.18,0.03c-1.72,0-3.06-0.21-4.03-0.63c-0.97-0.42-1.58-1.25-1.85-2.51c-0.24-2.13-0.36-4.92-0.36-8.35
		v-1.58c-0.13,0.02-0.46,0.03-0.99,0.03l-2.51-0.03l0.1-2.71c0.48,0.04,1.64,0.07,3.46,0.07l-0.03-3.46V3.3
		c0-0.92,0.02-1.57,0.07-1.95c0.31-0.02,0.78-0.01,1.42,0.03l0.89,0.03C27.4,1.42,27.58,1.41,27.69,1.39z"/>
	<path d="M40.46,1.39v5.05l0.03,1.85c1.43-0.04,3.2-0.12,5.31-0.23C45.93,8.23,46,8.56,46,9.04L45.97,9.8
		c-0.04,0.48-0.05,0.84-0.03,1.06c-2.4,0-4.19-0.01-5.38-0.03v5.05V17c0,0.99,0.02,1.69,0.07,2.11c0.04,0.42,0.13,0.78,0.26,1.09
		c0.35,0.44,1.06,0.71,2.13,0.83c1.07,0.11,2.04,0.14,2.92,0.1c0.11,0.88,0.17,1.44,0.17,1.68c0,0.4-0.05,0.79-0.17,1.19
		c-0.46,0.02-1.19,0.03-2.18,0.03c-1.72,0-3.06-0.21-4.03-0.63c-0.97-0.42-1.58-1.25-1.85-2.51c-0.24-2.13-0.36-4.92-0.36-8.35
		v-1.58c-0.13,0.02-0.46,0.03-0.99,0.03l-2.51-0.03l0.1-2.71c0.48,0.04,1.64,0.07,3.46,0.07l-0.03-3.46V3.3
		c0-0.92,0.02-1.57,0.07-1.95c0.31-0.02,0.78-0.01,1.42,0.03l0.89,0.03C40.17,1.42,40.35,1.41,40.46,1.39z"/>
	<path d="M48.41,0l3,0.1c0,0.9-0.02,3.13-0.07,6.7c-0.04,4.4-0.07,7.85-0.07,10.36c0,2.77,0.03,4.98,0.1,6.63
		c-0.13,0.15-0.5,0.23-1.09,0.23l-1.02-0.03c-0.2-0.02-0.44-0.03-0.73-0.03c-0.18,0-0.29,0.01-0.33,0.03
		c0.13-1.78,0.2-3.58,0.2-5.38c0-1.36-0.04-3.41-0.13-6.14c-0.09-2.73-0.13-4.79-0.13-6.17C48.14,3.97,48.23,1.87,48.41,0z"/>
	<path d="M56.82,15.64v0.59l-0.03,0.96c0,2.73,1.34,4.09,4.03,4.09c1.08,0,1.88-0.25,2.39-0.74c0.52-0.5,0.78-1.17,0.78-2.03
		c0-0.13-0.02-0.37-0.07-0.73c0.46-0.07,0.89-0.1,1.29-0.1c0.35,0,0.62,0.01,0.79,0.03c0.13,0,0.29,0,0.48,0.02
		c0.19,0.01,0.4,0.01,0.64-0.02c0.02,1.25-0.02,2.25-0.13,3s-0.37,1.46-0.79,2.14c-0.4,0.59-1.08,1.02-2.06,1.27
		c-0.98,0.25-2.05,0.38-3.22,0.38c-0.53,0-1.02-0.02-1.47-0.07c-0.45-0.04-0.73-0.09-0.84-0.13c-1.72-0.29-2.96-1.37-3.73-3.25
		c-0.77-1.88-1.1-4.03-0.99-6.45c0.02-0.18,0.05-0.54,0.1-1.11c0.04-0.56,0.1-1.14,0.18-1.73s0.23-1.18,0.45-1.75
		c0.42-0.97,1.18-1.72,2.28-2.24C57.99,7.26,59.21,7,60.55,7c0.7,0,1.44,0.09,2.21,0.26c2.99,0.51,4.49,2.76,4.49,6.77
		c0,0.33-0.02,0.8-0.07,1.42c-0.42,0.13-1.65,0.24-3.7,0.33c-0.24,0.02-0.77,0.03-1.58,0.03c-1.74,0-3.03-0.02-3.86-0.07
		C57.49,15.74,57.09,15.71,56.82,15.64z M64.84,13.17c-0.02-0.68-0.19-1.35-0.51-2.01c-0.32-0.66-0.78-1.18-1.37-1.55
		c-0.33-0.15-0.62-0.25-0.86-0.3c-0.24-0.04-0.55-0.07-0.92-0.07c-1.43,0-2.45,0.3-3.05,0.89c-0.61,0.59-0.99,1.44-1.14,2.54
		c-0.04,0.26-0.07,0.44-0.07,0.53c0,0.26,0.13,0.44,0.38,0.53s0.8,0.13,1.63,0.13c0.81,0,1.51-0.01,2.08-0.03
		c2.11,0,3.3-0.01,3.56-0.03c0.11-0.02,0.18-0.05,0.21-0.08s0.05-0.09,0.05-0.18V13.17z"/>
	<path d="M80.81,1.39v5.05l0.03,1.85c1.43-0.04,3.2-0.12,5.31-0.23c0.13,0.18,0.2,0.51,0.2,0.99L86.32,9.8
		c-0.04,0.48-0.05,0.84-0.03,1.06c-2.4,0-4.19-0.01-5.38-0.03v5.05V17c0,0.99,0.02,1.69,0.07,2.11c0.04,0.42,0.13,0.78,0.26,1.09
		c0.35,0.44,1.06,0.71,2.13,0.83c1.07,0.11,2.04,0.14,2.92,0.1c0.11,0.88,0.17,1.44,0.17,1.68c0,0.4-0.05,0.79-0.17,1.19
		c-0.46,0.02-1.19,0.03-2.18,0.03c-1.72,0-3.06-0.21-4.03-0.63c-0.97-0.42-1.58-1.25-1.85-2.51c-0.24-2.13-0.36-4.92-0.36-8.35
		v-1.58c-0.13,0.02-0.46,0.03-0.99,0.03l-2.51-0.03l0.1-2.71c0.48,0.04,1.64,0.07,3.46,0.07l-0.03-3.46V3.3
		c0-0.92,0.02-1.57,0.07-1.95c0.31-0.02,0.78-0.01,1.42,0.03l0.89,0.03C80.53,1.42,80.7,1.41,80.81,1.39z"/>
	<path d="M90.38,15.64v0.59l-0.03,0.96c0,2.73,1.34,4.09,4.03,4.09c1.08,0,1.88-0.25,2.39-0.74c0.52-0.5,0.78-1.17,0.78-2.03
		c0-0.13-0.02-0.37-0.07-0.73c0.46-0.07,0.89-0.1,1.29-0.1c0.35,0,0.62,0.01,0.79,0.03c0.13,0,0.29,0,0.48,0.02
		c0.19,0.01,0.4,0.01,0.64-0.02c0.02,1.25-0.02,2.25-0.13,3s-0.37,1.46-0.79,2.14c-0.4,0.59-1.08,1.02-2.06,1.27
		c-0.98,0.25-2.05,0.38-3.22,0.38c-0.53,0-1.02-0.02-1.47-0.07c-0.45-0.04-0.73-0.09-0.84-0.13c-1.72-0.29-2.96-1.37-3.73-3.25
		c-0.77-1.88-1.1-4.03-0.99-6.45c0.02-0.18,0.05-0.54,0.1-1.11c0.04-0.56,0.1-1.14,0.18-1.73s0.23-1.18,0.45-1.75
		c0.42-0.97,1.18-1.72,2.28-2.24C91.55,7.26,92.77,7,94.11,7c0.7,0,1.44,0.09,2.21,0.26c2.99,0.51,4.49,2.76,4.49,6.77
		c0,0.33-0.02,0.8-0.07,1.42c-0.42,0.13-1.65,0.24-3.7,0.33c-0.24,0.02-0.77,0.03-1.58,0.03c-1.74,0-3.03-0.02-3.86-0.07
		C91.05,15.74,90.65,15.71,90.38,15.64z M98.4,13.17c-0.02-0.68-0.19-1.35-0.51-2.01c-0.32-0.66-0.78-1.18-1.37-1.55
		c-0.33-0.15-0.62-0.25-0.86-0.3c-0.24-0.04-0.55-0.07-0.92-0.07c-1.43,0-2.45,0.3-3.05,0.89c-0.61,0.59-0.99,1.44-1.14,2.54
		c-0.04,0.26-0.07,0.44-0.07,0.53c0,0.26,0.13,0.44,0.38,0.53s0.8,0.13,1.63,0.13c0.81,0,1.51-0.01,2.08-0.03
		c2.11,0,3.3-0.01,3.56-0.03c0.11-0.02,0.18-0.05,0.21-0.08s0.05-0.09,0.05-0.18V13.17z"/>
	<path d="M105.03,15.64v0.59L105,17.19c0,2.73,1.34,4.09,4.03,4.09c1.08,0,1.88-0.25,2.39-0.74c0.52-0.5,0.78-1.17,0.78-2.03
		c0-0.13-0.02-0.37-0.07-0.73c0.46-0.07,0.89-0.1,1.29-0.1c0.35,0,0.62,0.01,0.79,0.03c0.13,0,0.29,0,0.48,0.02
		c0.19,0.01,0.4,0.01,0.64-0.02c0.02,1.25-0.02,2.25-0.13,3s-0.37,1.46-0.79,2.14c-0.4,0.59-1.08,1.02-2.06,1.27
		c-0.98,0.25-2.05,0.38-3.22,0.38c-0.53,0-1.02-0.02-1.47-0.07c-0.45-0.04-0.73-0.09-0.84-0.13c-1.72-0.29-2.96-1.37-3.73-3.25
		c-0.77-1.88-1.1-4.03-0.99-6.45c0.02-0.18,0.05-0.54,0.1-1.11c0.04-0.56,0.1-1.14,0.18-1.73s0.23-1.18,0.45-1.75
		c0.42-0.97,1.18-1.72,2.28-2.24c1.1-0.53,2.32-0.79,3.66-0.79c0.7,0,1.44,0.09,2.21,0.26c2.99,0.51,4.49,2.76,4.49,6.77
		c0,0.33-0.02,0.8-0.07,1.42c-0.42,0.13-1.65,0.24-3.7,0.33c-0.24,0.02-0.77,0.03-1.58,0.03c-1.74,0-3.03-0.02-3.86-0.07
		C105.71,15.74,105.3,15.71,105.03,15.64z M113.05,13.17c-0.02-0.68-0.19-1.35-0.51-2.01c-0.32-0.66-0.78-1.18-1.37-1.55
		c-0.33-0.15-0.62-0.25-0.86-0.3c-0.24-0.04-0.55-0.07-0.92-0.07c-1.43,0-2.45,0.3-3.05,0.89c-0.61,0.59-0.99,1.44-1.14,2.54
		c-0.04,0.26-0.07,0.44-0.07,0.53c0,0.26,0.13,0.44,0.38,0.53s0.8,0.13,1.63,0.13c0.81,0,1.51-0.01,2.08-0.03
		c2.11,0,3.3-0.01,3.56-0.03c0.11-0.02,0.18-0.05,0.21-0.08s0.05-0.09,0.05-0.18V13.17z"/>
	<path d="M122.75,1.39v5.05l0.03,1.85c1.43-0.04,3.2-0.12,5.31-0.23c0.13,0.18,0.2,0.51,0.2,0.99l-0.03,0.76
		c-0.04,0.48-0.05,0.84-0.03,1.06c-2.4,0-4.19-0.01-5.38-0.03v5.05V17c0,0.99,0.02,1.69,0.07,2.11c0.04,0.42,0.13,0.78,0.26,1.09
		c0.35,0.44,1.06,0.71,2.13,0.83c1.07,0.11,2.04,0.14,2.92,0.1c0.11,0.88,0.17,1.44,0.17,1.68c0,0.4-0.05,0.79-0.17,1.19
		c-0.46,0.02-1.19,0.03-2.18,0.03c-1.72,0-3.06-0.21-4.03-0.63c-0.97-0.42-1.58-1.25-1.85-2.51c-0.24-2.13-0.36-4.92-0.36-8.35
		v-1.58c-0.13,0.02-0.46,0.03-0.99,0.03l-2.51-0.03l0.1-2.71c0.48,0.04,1.64,0.07,3.46,0.07l-0.03-3.46V3.3
		c0-0.92,0.02-1.57,0.07-1.95c0.31-0.02,0.78-0.01,1.42,0.03l0.89,0.03C122.47,1.42,122.64,1.41,122.75,1.39z"/>
	<path d="M132.85,6.3v2.94c0.59-0.51,1.12-0.89,1.57-1.14c0.45-0.25,1.12-0.41,2-0.48c0.53-0.07,1.02-0.1,1.49-0.1
		c1.61,0,2.86,0.38,3.76,1.16c0.29,0.24,0.48,0.81,0.59,1.72c0.11,0.9,0.16,2.09,0.16,3.56c0,0.84-0.02,2.16-0.07,3.96
		c-0.04,1.76-0.07,3.01-0.07,3.76c0,0.62,0.02,1.36,0.07,2.24c-0.88,0.13-1.83,0.18-2.84,0.13c-0.04-0.66-0.07-1.23-0.07-1.72v-1.98
		v-6.47c-0.04-1.41-0.37-2.32-0.99-2.74c-0.13-0.09-0.4-0.18-0.79-0.26c-0.46-0.13-0.93-0.2-1.42-0.2c-0.86,0-1.59,0.21-2.19,0.64
		c-0.61,0.43-1,1.09-1.17,2c-0.15,0.84-0.23,1.84-0.23,3l0.03,1.12c0.04,1.45,0.07,2.65,0.07,3.6c0,1.19-0.02,2.1-0.07,2.74v0.13
		c-0.44,0.11-0.79,0.17-1.06,0.17l-0.99-0.03c-0.31,0-0.56,0.01-0.76,0.03c0-2.53-0.01-4.62-0.03-6.27l-0.03-10.1
		c0-2.46,0.02-4.99,0.07-7.59c0.68,0.07,1.23,0.09,1.65,0.07c0.11,0,0.25-0.01,0.41-0.03c0.16-0.02,0.33-0.03,0.51-0.03
		c0.22,0,0.33,0.03,0.33,0.1c0.04,0.2,0.07,1.54,0.07,4.03V6.3z"/>
	<path d="M149.19,17.33l0.07-1.06c0.15-0.92,0.4-1.74,0.73-2.46c0.33-0.71,0.85-1.51,1.55-2.39c0.66-0.77,1.18-1.46,1.57-2.08
		c0.38-0.62,0.64-1.25,0.78-1.91c0.04-0.26,0.07-0.46,0.07-0.59c0-0.9-0.35-1.62-1.06-2.16s-1.65-0.76-2.84-0.68
		c-0.92-0.02-1.61,0.23-2.06,0.74c-0.45,0.52-0.85,1.24-1.2,2.16c-0.13,0.35-0.23,0.59-0.3,0.73l-0.66,0.03
		c-0.31,0-0.77-0.02-1.39-0.07l-0.79-0.03V7.52c0.07-1.12,0.38-2.2,0.94-3.23c0.56-1.03,1.33-1.89,2.29-2.56
		c0.97-0.67,2.06-1.03,3.27-1.07c0.15-0.02,0.37-0.03,0.66-0.03c1.19,0,2.28,0.25,3.27,0.76c0.99,0.51,1.78,1.2,2.38,2.08
		c0.59,0.88,0.89,1.87,0.89,2.97c0,1.08-0.2,1.98-0.61,2.71c-0.41,0.73-1.02,1.54-1.83,2.44c-0.53,0.57-0.9,1.01-1.12,1.32
		c-0.48,0.66-0.86,1.29-1.12,1.88s-0.45,1.27-0.56,2.01c-0.02,0.15-0.04,0.31-0.07,0.48c-0.02,0.17-0.03,0.34-0.03,0.51
		c0,0.13,0.01,0.22,0.03,0.26v0.03c-0.26,0.04-0.67,0.07-1.22,0.07c-0.18,0-0.39,0-0.64-0.02c-0.25-0.01-0.54,0-0.88,0.02h-0.03
		c-0.04-0.09-0.07-0.25-0.07-0.5V17.33z M151.66,23.99h-2.38h-0.1c-0.07-0.4-0.1-0.9-0.1-1.52l0.03-1.62
		c0.02-0.2,0.03-0.43,0.03-0.69c0.37-0.15,0.89-0.23,1.55-0.23c0.46,0,0.87,0.04,1.22,0.13c0,0.11-0.03,0.7-0.1,1.78
		c-0.07,1.08-0.1,1.77-0.1,2.08v0.07H151.66z"/>
</g>
</svg>
