<!-- Generator: Adobe Illustrator 23.1.1, SVG Export Plug-In  -->
<svg version="1.1" xmlns="http://www.w3.org/2000/svg" xmlns:xlink="http://www.w3.org/1999/xlink" x="0px" y="0px"
	 width="525.83px" height="431.34px" viewBox="0 0 525.83 431.34" style="enable-background:new 0 0 525.83 431.34;"
	 xml:space="preserve">
<style type="text/css">
	.st0{fill:#59272A;}
	.st1{fill:#798B51;}
	.st2{fill:none;stroke:#000000;stroke-miterlimit:10;}
	.st3{fill:none;stroke:#0F0F0F;stroke-miterlimit:10;}
</style>
<defs>
</defs>
<path class="st0" d="M269.03,430.12c1.28,0.49,2.69,0.64,4.05,0.44c0.35-8.62,0.57-17.25,0.79-25.88c0.08-3.01,0.15-6.02,0.21-9.03
	c0.45-24.7-0.51-49.43-2.9-74.03c-0.33-3.45-0.7-6.89-1.09-10.34c-0.21-1.86-0.25-4.41-1.51-5.85c-0.66,7.73-0.06,15.86-0.08,23.65
	c-0.02,8.19-0.02,16.38-0.01,24.57c0.02,16.47,0.11,32.94,0.25,49.42c0.04,4.51,0.09,9.02,0.14,13.53
	C268.88,417.89,268.31,429.85,269.03,430.12z"/>
<path class="st1" d="M262.11,249.02c0,0,0.22-9,20.33-13.52c20.11-4.52,72.18-48.28,76.73-71.18l-6-3.62c0,0,13.11-21.71,11.3-29.76
	l-5-0.12c0,0,8.29-11.8,8.48-19.8l-4-0.1c0,0,7.36-14.83,4.58-23.9c0,0-4.19,7.9-14.28,11.66c-10.09,3.76-31.14,5.25-37.66,27.1
	c0,0,4.86-35.89,8.96-39.8l-7-0.17c0,0,11.26-10.73,0.65-26.99c0,0-1.88-5.05,0.17-7c0,0-16.09,3.61-15.26,10.64
	c0,0-4.47-22.11-13.32-28.33l-5.14,5.88c0,0-6.71-12.16-11.64-15.28l-4.12,4.9c0,0-3.45-23.09-15.3-29.38c0,0,2.33,28.06,1.28,30.04
	l-3.93-3.1c0,0-1.26,10.97-2.31,12.95l-5.97-1.14l-12.5,20.71l0.78,9.02c0,0-10.85-6.26-14.73-11.36l-4.29,11.9l-3.97-1.1
	c0,0-0.36,15,2.59,17.07l-6-0.14c0,0,6.87,47.18,21.38,67.53c0,0-20.13-36.49-42.95-44.04l-23.68-13.57l-0.1,4
	c0,0-21.63-15.52-23.51-20.57l8.35,27.21l-5.02,0.88c0,0,6.54,19.16,8.49,21.21l-4.12,4.9c0,0,13.03,31.05,18.54,35.32l-4.48,4.03
	c0,0,8.66,14.21,16.51,20.4l-0.12,5c0,0,24.46,22.59,50.29,30.22C250.94,235.24,262.11,249.02,262.11,249.02z"/>
<g>
	<path class="st1" d="M279.46,288.38c0,0,13.15,0.16,12.32-19.24c0,0,7.63-36.75,18.8-43l1.65,2.3c0,0,4.76-16.44,10.18-18.58
		l-0.82,4.93c0,0,10.68-15.46,14.79-15.79l-1.81,4.77c0,0,10.85-10.36,18.08-11.19c0,0-0.33,8.06,0.5,9.21
		c0.82,1.15,18.08-11.19,34.35-11.52l-0.98,5.92c0,0,7.07-5.92,11.01-5.27l-2.63,3.62c0,0,24.49-13.16,45.37-10.71l0.17,5.1
		c0,0,18.9-3.95,32.71-1.66l-0.82,4.93c0,0,12.82-3.95,21.54-1.49l-0.49,2.96c0,0,21.2-5.6,27.94-9.55l-33.19,35.03l4.93,0.82
		c0,0-19.72,21.05-24.81,21.22c0,0,7.56,3.28,10.52,3.78c0,0-32.87,26.98-53.25,27.64l7.57,9.37c0,0-12,11.18-17.75,9.21l4.44,3.78
		c0,0-21.86,3.46-31.56,0.84l5.92,7.07c0,0-19.56,7.9-28.27,5.44l5.1,5.92l-25.65-4.26C345.31,309.97,303.22,313.11,279.46,288.38z"
		/>
	<path class="st2" d="M281.19,293.23c0,0,13.15,0.16,12.32-19.24c0,0,7.63-36.75,18.8-43l1.65,2.3c0,0,4.76-16.44,10.18-18.58
		l-0.82,4.93c0,0,10.68-15.46,14.79-15.79l-1.81,4.77c0,0,10.85-10.36,18.08-11.19c0,0-0.33,8.06,0.5,9.21
		c0.82,1.15,18.08-11.19,34.35-11.52l-0.98,5.92c0,0,7.07-5.92,11.01-5.27l-2.63,3.62c0,0,24.49-13.16,45.37-10.71l0.17,5.1
		c0,0,18.9-3.95,32.71-1.66l-0.82,4.93c0,0,12.82-3.95,21.54-1.49l-0.49,2.96c0,0,21.2-5.6,27.94-9.55L489.86,224l4.93,0.82
		c0,0-19.72,21.05-24.81,21.22c0,0,7.56,3.28,10.52,3.78c0,0-32.87,26.98-53.25,27.64l7.57,9.37c0,0-12,11.18-17.75,9.21l4.44,3.78
		c0,0-21.86,3.46-31.56,0.84l5.92,7.07c0,0-19.56,7.9-28.27,5.44l5.1,5.92l-25.65-4.26C347.04,314.81,304.95,317.96,281.19,293.23z"
		/>
	<g>
		<g>
			<path d="M318.59,230.03c-2.67,3.39-4.75,7.23-6.23,11.26c-0.71,2.03-1.25,4.11-1.57,6.22c-0.25,2.12-0.41,4.26-0.14,6.38
				l0.33,3.24c0.07,0.55,0.03,1.1,0.06,1.65c0,0.55,0.04,1.1-0.02,1.65c-0.07,2.2-0.52,4.37-1.12,6.48
				c-0.64,2.1-1.52,4.12-2.58,6.03c-1.07,1.9-2.32,3.71-3.83,5.28l-0.07-0.07c1.28-1.74,2.36-3.6,3.28-5.53
				c0.91-1.93,1.72-3.92,2.24-5.98c0.17-0.5,0.26-1.03,0.39-1.55c0.13-0.52,0.24-1.03,0.31-1.56c0.08-0.52,0.19-1.05,0.25-1.57
				l0.14-1.59c0.07-0.53,0.05-1.06,0.07-1.59c-0.01-0.53,0.04-1.06-0.01-1.59l-0.23-3.22c-0.23-2.19-0.02-4.39,0.29-6.55
				c0.38-2.15,0.98-4.26,1.75-6.29c1.62-4.04,3.83-7.83,6.62-11.15L318.59,230.03z"/>
		</g>
		<g>
			<path d="M353.18,201.82c-4.64,4.7-8.83,9.84-12.6,15.24c-3.79,5.39-7.08,11.16-9.46,17.28c-0.28,0.77-0.62,1.52-0.86,2.31
				l-0.71,2.35l-0.35,1.18c-0.1,0.4-0.17,0.8-0.26,1.2l-0.5,2.4c-0.32,1.61-0.55,3.26-0.87,4.89c-0.33,1.62-0.64,3.25-1.02,4.87
				c-0.77,3.23-1.6,6.44-2.66,9.58c-1.09,3.13-2.25,6.27-4.1,9.05l-0.08-0.06c0.83-1.42,1.43-2.96,1.99-4.51
				c0.57-1.55,1.07-3.11,1.52-4.7c0.92-3.16,1.69-6.36,2.35-9.59c0.72-3.22,1.25-6.46,1.89-9.71l0.55-2.44
				c0.1-0.41,0.18-0.82,0.29-1.22l0.38-1.19l0.76-2.38c0.26-0.79,0.61-1.55,0.91-2.32c2.5-6.17,5.9-11.92,9.79-17.27
				c3.9-5.35,8.2-10.41,12.94-15.02L353.18,201.82z"/>
		</g>
		<g>
			<path d="M298.14,282.82c3.86,2.07,7.78,4.04,11.72,5.94c3.94,1.92,7.91,3.76,11.93,5.48c4.02,1.72,8.1,3.31,12.19,4.82
				c4.09,1.53,8.22,2.93,12.48,3.96l-0.02,0.1c-4.38-0.47-8.63-1.74-12.8-3.11c-4.17-1.4-8.19-3.2-12.18-5.03
				c-7.99-3.64-15.77-7.71-23.38-12.06L298.14,282.82z"/>
		</g>
		<g>
			<path d="M306.42,278.62c6.82,0.79,13.61,1.9,20.27,3.59c3.33,0.84,6.62,1.95,9.77,3.32c3.14,1.27,6.47,2.14,9.79,2.98
				c6.64,1.65,13.38,2.95,20.09,4.35l20.15,4.15l-0.02,0.1c-6.81-0.86-13.58-2.03-20.33-3.27c-6.75-1.27-13.45-2.79-20.09-4.55
				c-3.32-0.89-6.64-1.81-9.84-3.15c-3.12-1.41-6.34-2.54-9.64-3.43c-6.6-1.81-13.36-3.05-20.16-3.97L306.42,278.62z"/>
		</g>
		<g>
			<path d="M334.28,265.89c3.66,2.7,7.74,4.79,12.02,6.22c2.15,0.71,4.35,1.18,6.54,1.65c2.2,0.5,4.43,0.8,6.7,1.12l0,0.1
				c-2.29,0.25-4.6,0.09-6.88-0.24c-2.28-0.35-4.49-1.06-6.63-1.88c-4.3-1.62-8.32-3.96-11.81-6.89L334.28,265.89z"/>
		</g>
		<g>
			<path d="M336.26,264.46c1.86-5.43,3.73-10.86,5.75-16.23c2.05-5.37,4.23-10.69,6.68-15.89c2.46-5.19,5.11-10.33,8.31-15.13
				c1.62-2.37,3.23-4.8,5.31-6.86c1.04-1.02,2.17-1.96,3.43-2.7c1.27-0.71,2.67-1.22,4.1-1.4l0.02,0.1
				c-2.82,0.61-5.16,2.4-7.05,4.48c-1.91,2.09-3.45,4.5-4.97,6.92c-3.06,4.82-5.88,9.81-8.43,14.93
				c-5.05,10.29-9.09,21.05-13.06,31.81L336.26,264.46z"/>
		</g>
		<g>
			<path d="M387.78,204.46c-7.12,7.62-13.9,15.61-19.57,24.35c-2.82,4.38-5.29,8.96-7.48,13.66c-2.21,4.7-3.97,9.6-5.35,14.64
				l-0.1-0.02c0.82-5.17,2.46-10.21,4.53-15.03c2.1-4.82,4.79-9.35,7.72-13.69c5.85-8.7,12.83-16.56,20.16-23.98L387.78,204.46z"/>
		</g>
		<g>
			<path d="M355.14,256.96c4.87,3.94,10.27,7.18,15.94,9.8c5.66,2.64,11.6,4.67,17.64,6.23c6.05,1.55,12.22,2.58,18.4,3.49
				c6.18,0.94,12.41,1.58,18.63,2.33l-0.01,0.1c-6.27-0.18-12.53-0.68-18.76-1.44c-6.23-0.79-12.41-2.04-18.47-3.71
				c-6.06-1.66-12-3.81-17.65-6.55c-5.64-2.76-11-6.13-15.79-10.18L355.14,256.96z"/>
		</g>
		<g>
			<path d="M384.38,245.68c0.75-4.38,1.75-8.72,3.01-12.99c1.27-4.27,2.82-8.45,4.59-12.54c1.77-4.09,3.75-8.1,6.11-11.89
				c0.59-0.95,1.2-1.88,1.83-2.8c0.62-0.93,1.24-1.85,1.93-2.74c1.35-1.78,2.84-3.48,4.61-4.85l0.07,0.08
				c-3.12,3.16-5.32,7.03-7.58,10.83c-2.23,3.82-4.38,7.68-6.24,11.7c-1.85,4.02-3.49,8.14-4.85,12.36
				c-1.38,4.21-2.51,8.51-3.39,12.86L384.38,245.68z"/>
		</g>
		<g>
			<path d="M383.93,245.79c9.89,4.5,20.33,7.76,30.99,9.71c5.33,0.97,10.72,1.55,16.12,1.97c5.4,0.45,10.82,0.54,16.26,0.5l0.01,0.1
				c-5.41,0.61-10.88,0.67-16.33,0.4c-5.45-0.29-10.86-1.1-16.21-2.19c-10.69-2.15-21.1-5.64-30.88-10.41L383.93,245.79z"/>
		</g>
		<g>
			<path d="M408.86,236.81c3.57-8.75,7.15-17.49,10.79-26.21c1.84-4.34,3.83-8.74,6.85-12.49c2.99-3.7,6.93-6.88,11.56-8.11
				l0.03,0.09c-4.39,1.76-8.02,4.91-10.8,8.63c-2.82,3.71-4.97,7.91-6.9,12.2l-11.44,25.93L408.86,236.81z"/>
		</g>
		<g>
			<path d="M410.2,236.3c4.06,2.82,8.93,3.97,13.69,5.07c4.78,1.11,9.57,2.22,14.38,3.12c4.82,0.9,9.67,1.54,14.54,1.92
				c4.87,0.44,9.76,0.35,14.65-0.08l0.02,0.1c-4.82,1-9.81,1.24-14.73,0.98c-4.94-0.25-9.81-1.13-14.63-2.13
				c-4.82-1-9.59-2.21-14.35-3.42c-4.73-1.22-9.62-2.53-13.63-5.48L410.2,236.3z"/>
		</g>
		<g>
			<path d="M435.64,227.2c-0.42-3.29,0.52-6.54,1.39-9.66c0.95-3.13,2.15-6.2,3.62-9.14c1.47-2.93,3.11-5.81,5.15-8.39
				c2.05-2.57,4.31-4.99,6.87-7.03l0.07,0.07c-2.17,2.45-4.27,4.92-6.14,7.55c-1.89,2.62-3.69,5.31-5.24,8.16
				c-1.54,2.85-2.82,5.84-3.85,8.92c-0.99,3.07-2.06,6.24-1.77,9.5L435.64,227.2z"/>
		</g>
		<g>
			<path d="M436.87,226.81c5.41,2.59,11.15,4.41,17.03,5.43c2.94,0.5,5.91,0.74,8.88,0.95c2.97,0.23,5.95,0.24,8.96,0.24l0.01,0.1
				c-2.96,0.57-5.99,0.71-9.01,0.66c-3.02-0.08-6.03-0.55-8.98-1.16c-5.91-1.21-11.64-3.28-16.92-6.13L436.87,226.81z"/>
		</g>
		<g>
			<path d="M451.93,221.86c0.06-1.41,0.27-2.82,0.68-4.18c0.4-1.36,1.02-2.66,1.71-3.89c0.7-1.23,1.45-2.42,2.11-3.64
				c0.68-1.22,1.32-2.47,1.97-3.72c1.31-2.48,2.67-5.04,4.69-7.12c1.99-2.04,4.55-3.75,7.41-4.09l0.02,0.1
				c-2.67,0.89-4.9,2.6-6.7,4.67c-1.82,2.05-3.32,4.4-4.72,6.82c-0.7,1.21-1.38,2.45-2.11,3.66c-0.72,1.22-1.52,2.38-2.25,3.57
				c-0.74,1.19-1.4,2.41-1.86,3.73c-0.46,1.31-0.74,2.69-0.86,4.09L451.93,221.86z"/>
		</g>
		<g>
			<path d="M457.07,219.42c4.3,0.76,8.63,1.24,12.97,1.44c2.17,0.09,4.34,0.04,6.51,0.1c2.17,0.08,4.34,0.07,6.54,0.19l0.01,0.1
				c-2.16,0.45-4.35,0.61-6.54,0.71c-2.19,0.08-4.39-0.1-6.57-0.3c-4.37-0.38-8.7-1.09-12.94-2.14L457.07,219.42z"/>
		</g>
		<g>
			<path d="M471.3,214.44c-0.33-1.47-0.1-3.03,0.4-4.45c0.52-1.42,1.26-2.74,2.04-4.01c0.78-1.26,1.52-2.57,2.49-3.73
				c0.97-1.15,2.08-2.23,3.41-2.96l0.06,0.08c-0.97,1.14-1.85,2.29-2.69,3.49c-0.83,1.19-1.75,2.36-2.61,3.56
				c-0.85,1.2-1.66,2.43-2.25,3.76c-0.6,1.32-0.96,2.78-0.77,4.25L471.3,214.44z"/>
		</g>
		<g>
			<path d="M481.69,209.94c1.9,0.31,3.81,0.44,5.7,0.39c0.95-0.03,1.88-0.19,2.83-0.2c0.95-0.02,1.89-0.05,2.89,0.03l0.02,0.1
				c-0.89,0.46-1.85,0.71-2.82,0.87c-0.97,0.16-1.96,0.07-2.93,0.01c-1.95-0.12-3.88-0.49-5.71-1.09L481.69,209.94z"/>
		</g>
	</g>
	<g>
		<path d="M269.57,292.96c2.52,0.55,5.14,0.51,7.69-0.03c2.56-0.53,5.03-1.53,7.41-2.72c4.78-2.4,9.2-5.57,13.86-8.46
			c4.66-2.94,9.66-5.25,14.64-7.46l14.95-6.58c9.97-4.37,19.99-8.66,30.09-12.73c10.12-4.04,20.31-7.88,30.56-11.56
			c20.5-7.36,41.16-14.22,61.63-21.61c20.48-7.36,40.75-15.35,60.39-24.77c-19.56,9.56-39.79,17.72-60.22,25.24
			c-20.42,7.55-41.04,14.57-61.46,22.08c-10.21,3.76-20.36,7.68-30.43,11.78c-10.06,4.14-20.02,8.5-29.96,12.94l-14.89,6.69
			c-4.95,2.24-9.84,4.55-14.38,7.46c-4.57,2.88-9,6.11-13.94,8.65c-2.47,1.26-5.08,2.34-7.85,2.94c-2.77,0.61-5.7,0.69-8.52,0.09
			L269.57,292.96z"/>
	</g>
</g>
<path class="st2" d="M263.76,249.62c0,0,0.22-9,20.33-13.52c20.11-4.52,72.18-48.28,76.73-71.18l-6-3.62c0,0,13.11-21.71,11.3-29.76
	l-5-0.12c0,0,8.29-11.8,8.48-19.8l-4-0.1c0,0,7.36-14.83,4.58-23.9c0,0-4.19,7.9-14.28,11.66c-10.09,3.76-31.14,5.25-37.66,27.1
	c0,0,4.86-35.89,8.96-39.8l-7-0.17c0,0,11.26-10.73,0.65-26.99c0,0-1.88-5.05,0.17-7c0,0-16.09,3.61-15.26,10.64
	c0,0-4.47-22.11-13.32-28.33l-5.14,5.88c0,0-6.71-12.16-11.64-15.28l-4.12,4.9c0,0-3.45-23.09-15.3-29.38c0,0,2.33,28.06,1.28,30.04
	l-3.93-3.1c0,0-1.26,10.97-2.31,12.95l-5.97-1.14l-12.5,20.71l0.78,9.02c0,0-10.85-6.26-14.73-11.36l-4.29,11.9l-3.97-1.1
	c0,0-0.36,15,2.59,17.07l-6-0.14c0,0,6.87,47.18,21.38,67.53c0,0-20.13-36.49-42.95-44.04l-23.68-13.57l-0.1,4
	c0,0-21.63-15.52-23.51-20.57l8.35,27.21l-5.02,0.88c0,0,6.54,19.16,8.49,21.21l-4.12,4.9c0,0,13.03,31.05,18.54,35.32l-4.48,4.03
	c0,0,8.66,14.21,16.51,20.4l-0.12,5c0,0,24.46,22.59,50.29,30.22C252.59,235.85,263.76,249.62,263.76,249.62z"/>
<g>
	<g>
		<path d="M263.35,237.78c2.08-2.45,4.92-4.13,7.84-5.43c2.94-1.28,6.02-2.21,9.01-3.26c6-2.08,11.73-4.89,16.97-8.45
			c2.64-1.75,5.16-3.68,7.55-5.77c2.38-2.09,4.6-4.38,6.95-6.55c2.34-2.18,4.77-4.3,7.5-6.01c1.36-0.85,2.82-1.55,4.32-2.12
			c1.51-0.55,3.09-0.87,4.68-1.01c-1.58,0.25-3.12,0.65-4.59,1.26c-1.45,0.63-2.85,1.38-4.15,2.28c-2.63,1.77-4.97,3.92-7.23,6.16
			c-2.25,2.24-4.49,4.52-6.88,6.67c-2.4,2.14-4.93,4.11-7.59,5.91c-5.36,3.53-11.17,6.4-17.29,8.34c-3.05,0.97-6.12,1.81-9.07,2.99
			C268.43,233.94,265.59,235.5,263.35,237.78z"/>
	</g>
	<g>
		<path d="M265.46,234.38c3.42-5.86,7.2-11.52,11.17-17.03c4-5.49,8.21-10.83,12.48-16.11c8.54-10.56,17.43-20.83,25.54-31.69
			c8.19-10.8,15.52-22.23,22.97-33.59c3.73-5.67,7.47-11.34,11.34-16.93c3.89-5.57,7.91-11.05,12.15-16.35
			c-4.11,5.4-7.99,10.97-11.75,16.63c-3.78,5.63-7.44,11.35-11.09,17.07c-7.31,11.44-14.66,22.88-22.81,33.77
			c-8.21,10.85-17.09,21.14-25.75,31.58c-4.34,5.22-8.6,10.5-12.68,15.92C272.92,223.04,269.02,228.6,265.46,234.38z"/>
	</g>
	<g>
		<path d="M298.53,189.52c4.74-0.79,9.47-1.6,14.15-2.62c4.68-1.02,9.33-2.17,13.87-3.67c4.56-1.43,9.01-3.2,13.31-5.29l3.19-1.64
			l3.11-1.79l3.04-1.92l2.95-2.07c-0.92,0.77-1.85,1.53-2.79,2.28l-2.93,2.11l-3.06,1.93l-3.15,1.77
			c-4.27,2.26-8.77,4.05-13.35,5.56c-4.61,1.44-9.29,2.61-14.03,3.47C308.09,188.51,303.32,189.14,298.53,189.52z"/>
	</g>
	<g>
		<path d="M315.76,168.67c3.15-0.54,6.31-0.97,9.44-1.53c3.13-0.57,6.24-1.2,9.27-2.11c3.03-0.88,5.98-2.05,8.77-3.52
			c1.4-0.73,2.75-1.56,4.03-2.49c1.3-0.9,2.51-1.94,3.67-3.04c-0.99,1.26-2.15,2.38-3.37,3.43c-1.24,1.02-2.57,1.95-3.95,2.78
			c-2.77,1.66-5.78,2.88-8.87,3.81c-3.09,0.9-6.26,1.51-9.43,1.9C322.14,168.3,318.95,168.54,315.76,168.67z"/>
	</g>
	<g>
		<path d="M324.48,154.84c1.55-0.47,3.12-0.88,4.65-1.39c1.55-0.47,3.08-0.96,4.6-1.5c3.04-1.07,6.06-2.21,9.02-3.49
			c2.97-1.25,5.87-2.65,8.75-4.11c1.43-0.73,2.83-1.52,4.08-2.51c1.27-0.96,2.37-2.17,3.07-3.64c-0.5,1.56-1.56,2.9-2.76,4.01
			c-1.23,1.1-2.62,1.98-4.03,2.81c-2.82,1.63-5.74,3.07-8.73,4.36c-3,1.27-6.05,2.4-9.18,3.3
			C330.85,153.6,327.68,154.34,324.48,154.84z"/>
	</g>
	<g>
		<path d="M338.81,134.96c3.32-1.24,6.57-2.5,9.73-3.99c3.18-1.46,6.23-3.14,9.32-4.88c-2.63,2.38-5.69,4.28-8.9,5.79
			C345.74,133.36,342.32,134.48,338.81,134.96z"/>
	</g>
	<g>
		<path d="M350.76,115.95c1.38-0.9,2.86-1.5,4.36-2.04c1.51-0.51,3.05-0.95,4.69-1.1c-1.38,0.9-2.85,1.51-4.36,2.04
			C353.94,115.36,352.4,115.8,350.76,115.95z"/>
	</g>
	<g>
		<path d="M264.03,186.95c0.56-1.23,1.13-2.46,1.72-3.69l2.11-3.49c0.81-1.09,1.62-2.19,2.45-3.26l2.68-3.07
			c3.72-3.98,7.9-7.46,12.02-10.97c4.17-3.45,8.3-6.92,12.07-10.77c3.76-3.83,7.11-8.14,9.4-13.06c-0.55,1.23-1.1,2.47-1.68,3.71
			l-2.08,3.51c-0.81,1.09-1.6,2.2-2.43,3.28c-0.89,1.03-1.76,2.07-2.66,3.09c-3.7,4-7.87,7.5-11.99,11
			c-4.17,3.44-8.31,6.91-12.1,10.74C269.76,177.78,266.38,182.06,264.03,186.95z"/>
	</g>
	<g>
		<path d="M264.95,156.52c1.81-3.88,4.12-7.51,6.63-10.98c2.53-3.46,5.29-6.74,8.08-9.98c2.77-3.25,5.63-6.43,8.32-9.74
			c2.7-3.3,5.21-6.73,7.49-10.33c4.64-7.14,8.47-14.79,12.31-22.42c1.93-3.81,3.88-7.61,5.41-11.58c1.56-3.95,2.64-8.13,2.71-12.42
			c0.16,4.29-0.83,8.55-2.25,12.59c-1.45,4.04-3.34,7.9-5.18,11.75c-3.7,7.7-7.55,15.37-12.16,22.62
			c-4.61,7.27-10.37,13.69-16.07,20.03c-2.85,3.18-5.67,6.39-8.27,9.77C269.34,149.2,266.96,152.75,264.95,156.52z"/>
	</g>
	<g>
		<path d="M265.25,118.25c3.31-3.93,6.58-7.88,9.73-11.92c3.15-4.04,6.25-8.13,9.17-12.33c2.98-4.16,5.85-8.42,8.55-12.76
			c1.34-2.18,2.56-4.42,3.52-6.78c1-2.35,1.67-4.83,1.97-7.38c-0.07,2.57-0.65,5.12-1.51,7.56c-0.88,2.43-2.05,4.75-3.32,7
			c-1.26,2.26-2.68,4.4-4.08,6.56c-1.4,2.16-2.85,4.28-4.32,6.39c-3.01,4.17-6.1,8.28-9.39,12.24c-1.65,1.97-3.33,3.92-5.04,5.84
			C268.8,114.54,267.06,116.43,265.25,118.25z"/>
	</g>
	<g>
		<path d="M264.58,96.51c0.69-2.19,1.65-4.29,2.71-6.33c1.09-2.03,2.32-3.97,3.61-5.88c2.59-3.8,5.49-7.36,8.15-11.06
			c2.72-3.65,5.19-7.5,7.07-11.63c1.88-4.12,3.09-8.6,3.02-13.19c0.25,2.28,0.09,4.6-0.3,6.88c-0.43,2.27-1.13,4.48-2.01,6.62
			c-1.78,4.28-4.29,8.19-6.97,11.91c-2.75,3.68-5.63,7.24-8.33,10.91C268.84,88.42,266.37,92.28,264.58,96.51z"/>
	</g>
	<g>
		<path d="M264.98,69.83c1.1-0.24,2.12-0.69,2.99-1.34c0.89-0.62,1.67-1.4,2.3-2.27c1.27-1.75,2.09-3.8,2.78-5.9
			c0.7-2.1,1.34-4.24,1.98-6.37l1.86-6.44c-0.1,1.12-0.29,2.22-0.46,3.33c-0.2,1.1-0.42,2.2-0.66,3.3
			c-0.48,2.19-1.09,4.35-1.78,6.49c-0.72,2.13-1.61,4.29-3.13,6.06c-0.75,0.88-1.64,1.64-2.64,2.21
			C267.22,69.44,266.11,69.82,264.98,69.83z"/>
	</g>
	<g>
		<path d="M264.32,48.25c1.04-1.62,2.27-3.03,3.29-4.54c1.05-1.51,1.89-3.08,2.4-4.93c0.15,0.96,0.02,1.95-0.27,2.89
			c-0.29,0.94-0.76,1.81-1.3,2.61C267.32,45.87,265.92,47.19,264.32,48.25z"/>
	</g>
	<g>
		<path d="M264.25,45.71c-0.97-2.02-2.11-3.83-3.57-5.4c-1.44-1.59-3.14-2.89-5.07-4.02c2.22,0.39,4.26,1.68,5.81,3.35
			C262.95,41.32,264.05,43.46,264.25,45.71z"/>
	</g>
	<g>
		<path d="M265.25,65.49c-2.25-3.41-4.23-6.94-6.44-10.32c-2.18-3.4-4.56-6.63-7.31-9.65c3.29,2.44,5.92,5.69,8.15,9.11
			C261.86,58.08,263.7,61.72,265.25,65.49z"/>
	</g>
	<g>
		<path d="M264.86,87.68c-1.23-2.93-2.83-5.66-4.67-8.21c-1.85-2.55-3.87-4.97-5.94-7.37c-2.05-2.41-4.16-4.79-6.1-7.32l-1.42-1.92
			l-1.35-1.97l-1.23-2.05c-0.38-0.7-0.74-1.41-1.1-2.12c0.45,0.66,0.89,1.31,1.33,1.97l1.41,1.91l1.46,1.87l1.52,1.82l6.26,7.15
			c2.06,2.42,4.09,4.89,5.81,7.59l1.24,2.05l1.12,2.12l0.93,2.2C264.38,86.16,264.62,86.92,264.86,87.68z"/>
	</g>
	<g>
		<path d="M264.32,113.3c-2.05-3.44-4.85-6.28-7.78-8.95c-2.93-2.67-6-5.25-8.75-8.21c-2.68-3-5.06-6.28-6.97-9.81
			c-0.95-1.77-1.81-3.59-2.55-5.45c-0.71-1.87-1.35-3.77-1.82-5.71c0.68,1.88,1.41,3.73,2.27,5.52c0.83,1.8,1.75,3.56,2.77,5.26
			c2.02,3.4,4.35,6.62,7.04,9.52c2.63,2.95,5.69,5.51,8.53,8.33c1.42,1.41,2.81,2.87,4.06,4.43
			C262.36,109.81,263.49,111.48,264.32,113.3z"/>
	</g>
	<g>
		<path d="M264.85,153.01c-2.92-6.48-7.16-12.21-11.72-17.6c-4.57-5.4-9.45-10.55-13.94-16.07c-4.43-5.57-8.38-11.53-11.67-17.84
			c-1.64-3.16-3.13-6.39-4.47-9.68c-1.3-3.3-2.49-6.66-3.45-10.07c1.18,3.35,2.45,6.65,3.9,9.88c1.42,3.24,2.99,6.41,4.7,9.5
			c3.41,6.19,7.32,12.1,11.78,17.57c4.39,5.53,9.28,10.68,13.75,16.21c2.23,2.77,4.37,5.61,6.29,8.61
			C261.9,146.55,263.59,149.69,264.85,153.01z"/>
	</g>
	<g>
		<path d="M264.9,180.1c-0.61-2.96-2.24-5.57-4.21-7.79c-1.95-2.26-4.22-4.23-6.44-6.26c-4.43-4.09-8.57-8.49-12.42-13.14
			c-3.8-4.68-7.33-9.59-10.46-14.75c-3.15-5.14-5.9-10.52-8.25-16.06c1.39,2.67,2.73,5.35,4.26,7.94c1.46,2.62,3.02,5.19,4.65,7.7
			c1.63,2.52,3.32,4.99,5.07,7.43c1.78,2.41,3.59,4.8,5.52,7.09c3.75,4.67,7.88,9.03,12.17,13.22c2.15,2.09,4.38,4.14,6.29,6.51
			C262.93,174.35,264.51,177.09,264.9,180.1z"/>
	</g>
	<g>
		<path d="M263.62,202.03c-0.99-3.57-2.77-6.87-5.03-9.77c-2.24-2.92-4.9-5.49-7.75-7.81c-5.71-4.65-12.12-8.42-17.92-13.11
			c-5.79-4.74-10.54-10.53-15.18-16.28l-6.96-8.65l-6.88-8.72l7.26,8.41l7.18,8.47c4.77,5.65,9.47,11.39,15.22,15.99
			c5.66,4.69,12.09,8.46,17.77,13.29c2.83,2.42,5.46,5.09,7.65,8.11C261.14,195,262.86,198.39,263.62,202.03z"/>
	</g>
	<g>
		<path d="M262.71,241.26c-9.26-10.25-18.58-20.44-27.68-30.84l-27.29-31.19c-8.99-10.49-18.31-20.69-26.63-31.76
			c-2.07-2.77-4.08-5.59-5.97-8.49c-1.91-2.89-3.63-5.89-5.42-8.83c-3.5-5.95-8.15-11.12-12.81-16.2
			c4.78,4.97,9.56,10.03,13.22,15.94c1.85,2.93,3.6,5.9,5.54,8.75c1.92,2.86,3.96,5.64,6.05,8.38
			c8.41,10.93,17.73,21.15,26.78,31.58L262.71,241.26z"/>
	</g>
	<g>
		<path d="M254.33,231.04c-2.73,0.63-5.59,0.51-8.36,0.1c-2.77-0.45-5.48-1.21-8.15-1.98c-5.36-1.55-10.66-3.33-15.91-5.21
			c-5.23-1.95-10.42-4.02-15.52-6.29c-5.1-2.27-10.12-4.71-15.03-7.36c2.55,1.13,5.08,2.3,7.65,3.39c2.55,1.13,5.11,2.22,7.69,3.27
			c5.15,2.12,10.32,4.19,15.56,6.06c5.21,1.96,10.49,3.71,15.79,5.42c2.65,0.86,5.3,1.69,8.02,2.23
			C248.77,231.23,251.56,231.44,254.33,231.04z"/>
	</g>
	<g>
		<path d="M235.97,209.89c-2.95-0.28-5.89-0.7-8.82-1.17c-2.92-0.51-5.83-1.13-8.72-1.81c-5.77-1.4-11.44-3.21-16.99-5.34
			c-2.77-1.09-5.5-2.26-8.18-3.53c-2.69-1.26-5.36-2.58-7.92-4.11c-2.56-1.52-5.05-3.17-7.35-5.05c-2.3-1.89-4.43-3.99-6.25-6.33
			c1.99,2.19,4.17,4.2,6.55,5.95c2.34,1.79,4.86,3.35,7.43,4.77c5.17,2.83,10.58,5.25,16.08,7.37c5.48,2.19,11.12,3.98,16.82,5.53
			C224.33,207.72,230.13,208.92,235.97,209.89z"/>
	</g>
	<g>
		<path d="M206.76,177.88c-3.83,0.11-7.68-0.17-11.49-0.73c-3.81-0.56-7.56-1.48-11.24-2.6c-3.66-1.2-7.25-2.62-10.69-4.35
			l-2.55-1.35l-2.5-1.44l-2.42-1.56c-0.79-0.55-1.57-1.1-2.35-1.66c0.84,0.47,1.66,0.95,2.49,1.44l2.52,1.36l2.55,1.31l2.59,1.22
			c3.47,1.57,7.02,2.98,10.66,4.09c3.62,1.19,7.33,2.08,11.07,2.8C199.15,177.12,202.94,177.58,206.76,177.88z"/>
	</g>
	<g>
		<path d="M190.04,158.2c-3.08-0.84-6.12-1.78-9.15-2.74c-3.04-0.95-6.06-1.97-9.07-2.99c-3-1.05-6.02-2.13-8.89-3.58
			c-1.43-0.73-2.83-1.53-4.15-2.44c-1.3-0.94-2.54-1.97-3.6-3.17c1.22,1.03,2.5,1.96,3.87,2.75c1.35,0.82,2.76,1.53,4.21,2.16
			c2.89,1.26,5.89,2.3,8.9,3.33c3,1.04,6.01,2.09,8.99,3.21C184.11,155.85,187.09,156.97,190.04,158.2z"/>
	</g>
	<g>
		<path d="M169.2,129.93c-3.27,0.25-6.58-0.33-9.68-1.45c-3.09-1.14-5.99-2.84-8.33-5.14c2.81,1.66,5.66,3.11,8.67,4.2
			C162.86,128.65,165.98,129.38,169.2,129.93z"/>
	</g>
</g>
<path class="st3" d="M268.25,425.84v5h5l1-53c0,0-1-42-3-57s-12.5-102.31-8-114c5-13,2-157,1-161c0,0,1.78,146.85-0.5,155.5
	c-2.5,9.5-1.5,29.5-1.5,29.5s7.5,86.5,6.5,99.5S268.25,425.84,268.25,425.84z"/>
<g>
	<path class="st1" d="M259.62,289.64c0,0-12.95,2.29-15.29-16.98c0,0-13.5-35.02-25.54-39.37l-1.25,2.54c0,0-7.37-15.45-13.07-16.68
		l1.61,4.73c0,0-13.05-13.52-17.16-13.17l2.56,4.41c0,0-12.39-8.46-19.66-8.1c0,0,1.63,7.9,1.01,9.16
		c-0.62,1.27-19.66-8.1-35.77-5.79l1.93,5.68c0,0-7.94-4.69-11.72-3.41l3.18,3.14c0,0-26.3-9.01-46.51-3.19l0.66,5.06
		c0,0-19.3-0.83-32.55,3.68l1.61,4.73c0,0-13.29-1.81-21.49,2.03l0.97,2.84c0,0-21.83-2.08-29.12-4.88l38.45,29.17l-4.73,1.61
		c0,0,22.88,17.57,27.93,16.9c0,0-6.93,4.47-9.77,5.44c0,0,36.82,21.27,57.04,18.62l-5.94,10.47c0,0,13.65,9.09,19.01,6.21
		l-3.77,4.45c0,0,22.14-0.14,31.28-4.31l-4.69,7.94c0,0,20.58,4.62,28.78,0.77l-4.07,6.67l24.61-8.38
		C198.15,321.64,240.19,317.9,259.62,289.64z"/>
	<path class="st2" d="M258.7,294.7c0,0-12.95,2.29-15.29-16.98c0,0-13.5-35.02-25.54-39.37l-1.25,2.54c0,0-7.37-15.45-13.07-16.68
		l1.61,4.73c0,0-13.05-13.52-17.16-13.17l2.56,4.41c0,0-12.39-8.46-19.66-8.1c0,0,1.63,7.9,1.01,9.16
		c-0.62,1.27-19.66-8.1-35.77-5.79l1.93,5.68c0,0-7.94-4.69-11.72-3.41l3.18,3.14c0,0-26.3-9.01-46.51-3.19l0.66,5.06
		c0,0-19.3-0.83-32.55,3.68l1.61,4.73c0,0-13.29-1.81-21.49,2.03l0.97,2.84c0,0-21.83-2.08-29.12-4.88l38.45,29.17l-4.73,1.61
		c0,0,22.88,17.57,27.93,16.9c0,0-6.93,4.47-9.77,5.44c0,0,36.82,21.27,57.04,18.62l-5.94,10.47c0,0,13.65,9.09,19.01,6.21
		l-3.77,4.45c0,0,22.14-0.14,31.28-4.31l-4.69,7.94c0,0,20.58,4.62,28.78,0.77l-4.07,6.67l24.61-8.38
		C197.24,326.71,239.27,322.97,258.7,294.7z"/>
	<g>
		<g>
			<path d="M211.58,238.35c3.29,2.82,6.09,6.2,8.34,9.92c1.08,1.89,2.02,3.86,2.75,5.93c0.66,2.08,1.23,4.22,1.35,6.41l0.29,3.21
				c0.04,0.53,0.17,1.05,0.25,1.57c0.1,0.52,0.17,1.05,0.32,1.56l0.4,1.54c0.15,0.51,0.34,1,0.51,1.51c0.15,0.51,0.35,1,0.56,1.49
				c0.21,0.49,0.38,0.99,0.63,1.46c0.85,1.95,1.97,3.78,3.18,5.54c1.22,1.75,2.6,3.42,4.14,4.93l-0.06,0.08
				c-1.74-1.3-3.27-2.88-4.64-4.59c-1.36-1.71-2.56-3.56-3.53-5.53c-0.93-1.98-1.73-4.05-2.16-6.21c-0.15-0.53-0.2-1.08-0.29-1.62
				c-0.07-0.55-0.19-1.08-0.21-1.63l-0.2-3.25c-0.07-2.13-0.58-4.22-1.17-6.27c-0.66-2.03-1.54-4-2.56-5.88
				c-2.11-3.73-4.79-7.19-7.97-10.09L211.58,238.35z"/>
		</g>
		<g>
			<path d="M172.86,216.14c5.43,3.78,10.49,8.07,15.21,12.72c4.71,4.65,9,9.78,12.47,15.45c0.42,0.72,0.89,1.41,1.28,2.14l1.14,2.22
				l0.57,1.11c0.17,0.38,0.32,0.77,0.48,1.16l0.94,2.32c1.16,3.1,2.21,6.22,3.44,9.27c1.17,3.08,2.46,6.11,3.88,9.08
				c0.71,1.49,1.46,2.95,2.27,4.39c0.81,1.43,1.65,2.86,2.7,4.12l-0.07,0.07c-2.28-2.44-3.93-5.36-5.52-8.26
				c-1.56-2.93-2.91-5.97-4.19-9.02c-0.63-1.53-1.21-3.09-1.8-4.64c-0.57-1.55-1.07-3.14-1.65-4.68l-0.88-2.29
				c-0.15-0.38-0.28-0.77-0.45-1.14l-0.54-1.1l-1.08-2.21c-0.37-0.73-0.82-1.42-1.22-2.14c-3.34-5.65-7.52-10.81-12.14-15.51
				c-4.6-4.72-9.57-9.11-14.91-12.99L172.86,216.14z"/>
		</g>
		<g>
			<path d="M240.35,287.27c-6.8,5.54-13.81,10.81-21.1,15.7c-3.64,2.45-7.31,4.88-11.2,6.94c-3.89,2.03-7.88,3.98-12.13,5.15
				l-0.03-0.09c4.04-1.71,7.89-3.75,11.68-5.93c3.79-2.16,7.56-4.38,11.24-6.74c3.69-2.35,7.31-4.81,10.88-7.35
				c3.58-2.52,7.13-5.09,10.6-7.77L240.35,287.27z"/>
		</g>
		<g>
			<path d="M231.46,284.48c-6.55,2.01-13.02,4.34-19.24,7.19c-3.12,1.42-6.11,3.05-8.96,4.96c-2.94,1.85-6.07,3.3-9.2,4.71
				c-6.27,2.82-12.64,5.41-19.09,7.76c-6.46,2.32-12.95,4.57-19.53,6.53l-0.03-0.09l19.21-7.37c6.39-2.47,12.83-4.84,19.11-7.55
				c3.13-1.36,6.27-2.77,9.17-4.53c2.89-1.87,5.96-3.49,9.1-4.86c6.31-2.75,12.82-4.95,19.42-6.83L231.46,284.48z"/>
		</g>
		<g>
			<path d="M201.94,276.43c-2.97,3.46-6.55,6.42-10.53,8.72c-1.98,1.16-4.05,2.22-6.24,2.94c-2.2,0.69-4.45,1.23-6.75,1.35
				l-0.02-0.1c2.18-0.69,4.34-1.35,6.43-2.2c2.09-0.82,4.19-1.65,6.19-2.69c3.99-2.1,7.67-4.83,10.85-8.09L201.94,276.43z"/>
		</g>
		<g>
			<path d="M199.6,275.32c-5.66-9.98-11.4-19.94-18.05-29.27c-3.35-4.64-6.94-9.1-10.75-13.36c-1.9-2.14-3.81-4.27-6.03-6.02
				c-2.2-1.75-4.8-3.13-7.68-3.28l0-0.1c1.44-0.05,2.9,0.22,4.27,0.72c1.37,0.52,2.64,1.27,3.83,2.1c2.39,1.69,4.37,3.83,6.35,5.9
				c3.94,4.22,7.39,8.85,10.66,13.58c3.27,4.74,6.28,9.64,9.17,14.6c2.87,4.98,5.6,10.03,8.31,15.08L199.6,275.32z"/>
		</g>
		<g>
			<path d="M139.16,224.37c8.44,6.14,16.6,12.75,23.79,20.39c3.59,3.81,6.99,7.84,9.85,12.26c2.83,4.42,5.26,9.12,6.92,14.09
				l-0.09,0.04c-2.18-4.75-4.71-9.3-7.66-13.58c-2.92-4.29-6.11-8.41-9.6-12.27c-7.01-7.7-15-14.49-23.27-20.85L139.16,224.37z"/>
		</g>
		<g>
			<path d="M179.92,271.01c-4.07,4.77-8.8,8.97-13.92,12.61c-5.13,3.63-10.64,6.71-16.35,9.33c-5.71,2.63-11.6,4.87-17.62,6.66
				c-6.03,1.77-12.12,3.27-18.28,4.47l-0.02-0.1c6.02-1.76,12.06-3.4,18-5.33c5.95-1.91,11.87-3.92,17.59-6.44
				c5.71-2.52,11.23-5.49,16.39-9.01c5.17-3.51,9.97-7.58,14.13-12.26L179.92,271.01z"/>
		</g>
		<g>
			<path d="M149.06,264.6c-1.57-4.15-3.39-8.21-5.43-12.14c-2.02-3.94-4.31-7.74-6.79-11.41c-2.48-3.66-5.24-7.13-8.06-10.53
				c-2.85-3.38-5.64-6.84-9.24-9.45l0.05-0.08c1.97,1.06,3.72,2.5,5.34,4.04c0.82,0.76,1.59,1.57,2.35,2.39
				c0.77,0.81,1.52,1.63,2.26,2.47c2.95,3.35,5.55,6.99,7.96,10.74c2.41,3.75,4.63,7.62,6.57,11.62c1.93,4.01,3.63,8.13,5.08,12.33
				L149.06,264.6z"/>
		</g>
		<g>
			<path d="M149.67,264.68c-8.87,6.29-18.58,11.44-28.78,15.29c-5.09,1.94-10.3,3.62-15.64,4.79c-5.33,1.15-10.74,1.99-16.18,2.26
				l-0.01-0.1c5.37-0.84,10.71-1.82,15.96-3.14c5.26-1.29,10.48-2.74,15.59-4.57c10.2-3.67,19.97-8.57,29-14.62L149.67,264.68z"/>
		</g>
		<g>
			<path d="M123.47,259.85l-15.5-23.72c-2.61-3.92-5.41-7.71-8.79-10.91c-3.35-3.21-7.44-5.73-12.06-6.76l0.02-0.1
				c4.77,0.46,9.17,2.95,12.72,6.12c3.59,3.22,6.26,7.23,8.79,11.21c5.01,8.02,9.96,16.06,14.91,24.11L123.47,259.85z"/>
		</g>
		<g>
			<path d="M122.22,259.57c-3.47,3.56-8.09,5.64-12.56,7.62c-4.5,1.97-9.01,3.94-13.6,5.71c-4.59,1.78-9.25,3.43-14.09,4.48
				c-4.82,1.06-9.78,1.63-14.7,1.43l0-0.1c4.9-0.37,9.74-1.08,14.47-2.3c4.74-1.17,9.42-2.59,14.03-4.26
				c4.61-1.67,9.15-3.55,13.68-5.42c4.51-1.85,9.13-3.79,12.68-7.23L122.22,259.57z"/>
		</g>
		<g>
			<path d="M95.47,254.67c-0.25-3.27-1.81-6.22-3.29-9.09c-1.52-2.87-3.27-5.62-5.25-8.18c-1.99-2.56-4.2-4.93-6.49-7.2
				c-2.28-2.3-4.75-4.39-7.29-6.45l0.06-0.08c2.86,1.6,5.48,3.61,7.92,5.81c2.43,2.22,4.52,4.79,6.45,7.45
				c1.93,2.66,3.61,5.49,5.06,8.43c1.37,2.94,2.83,6,2.94,9.31L95.47,254.67z"/>
		</g>
		<g>
			<path d="M94.35,254.56c-4.75,3.67-10.06,6.64-15.7,8.8c-2.81,1.09-5.7,2.04-8.67,2.61c-2.97,0.54-5.99,0.9-9,0.81l-0.01-0.1
				c2.97-0.49,5.91-0.98,8.8-1.69c2.89-0.69,5.78-1.41,8.6-2.38c5.63-1.97,11-4.7,15.92-8.13L94.35,254.56z"/>
		</g>
		<g>
			<path d="M78.53,252.06c-0.35-1.36-0.85-2.67-1.52-3.9c-0.66-1.23-1.52-2.33-2.44-3.38c-0.91-1.06-1.89-2.08-2.8-3.16
				c-0.91-1.08-1.79-2.18-2.68-3.26c-1.78-2.17-3.64-4.24-5.77-5.97c-2.11-1.75-4.59-3.07-7.37-3.52l0.01-0.1
				c2.88-0.13,5.68,1.14,7.98,2.83c2.33,1.73,4.09,4.02,5.78,6.26c0.85,1.12,1.69,2.25,2.55,3.35c0.86,1.1,1.79,2.15,2.68,3.25
				c0.88,1.1,1.7,2.28,2.32,3.56c0.62,1.28,1.06,2.63,1.35,4.01L78.53,252.06z"/>
		</g>
		<g>
			<path d="M73.19,250.56c-4.02,1.72-8.17,3.13-12.42,4.21c-2.12,0.55-4.26,1.08-6.43,1.37c-2.18,0.26-4.37,0.45-6.57,0.36
				l-0.01-0.1c2.15-0.48,4.29-0.81,6.42-1.25c2.13-0.41,4.28-0.72,6.41-1.16c4.25-0.9,8.45-2.08,12.57-3.53L73.19,250.56z"/>
		</g>
		<g>
			<path d="M58.21,247.87c-0.05-1.48-0.64-2.87-1.45-4.07c-0.8-1.22-1.79-2.3-2.83-3.34c-1.05-1.04-2.14-2.04-3.16-3.09
				c-1.02-1.05-2.07-2.04-3.22-3.01l0.05-0.09c1.43,0.5,2.71,1.39,3.85,2.36c1.15,0.99,2.08,2.15,3.06,3.27
				c0.98,1.13,1.93,2.31,2.67,3.63c0.73,1.32,1.21,2.82,1.12,4.33L58.21,247.87z"/>
		</g>
		<g>
			<path d="M47.36,245.21c-1.72,0.89-3.56,1.56-5.46,2c-0.95,0.22-1.91,0.47-2.9,0.47c-0.98,0-1.97-0.09-2.92-0.4l0-0.1
				c0.97-0.24,1.91-0.36,2.84-0.5c0.93-0.14,1.88-0.13,2.82-0.26c1.88-0.25,3.74-0.69,5.57-1.31L47.36,245.21z"/>
		</g>
	</g>
	<g>
		<path d="M270.85,294.41c-2.68,1.05-5.59,1.45-8.42,1.29c-2.84-0.14-5.59-0.78-8.23-1.62c-5.29-1.7-10.18-4.17-15.16-6.27
			c-4.95-2.13-10.15-3.62-15.4-5.02l-15.78-4.18c-10.52-2.77-21.07-5.46-31.66-7.9c-10.6-2.41-21.26-4.63-31.94-6.68
			c-21.38-4.09-42.86-7.67-64.24-11.8c-21.38-4.1-42.66-8.86-63.52-15.11c20.91,6.09,42.21,10.69,63.61,14.62
			c21.4,3.97,42.91,7.38,64.33,11.31c10.71,1.97,21.39,4.11,32.03,6.44c10.63,2.37,21.21,4.98,31.76,7.67l15.82,4.06
			c5.27,1.37,10.58,2.83,15.66,4.98c5.06,2.09,9.94,4.5,15.05,6.1c2.55,0.79,5.15,1.37,7.76,1.48c2.6,0.12,5.2-0.27,7.6-1.22
			L270.85,294.41z"/>
	</g>
</g>
</svg>
