<!-- Generator: Adobe Illustrator 23.1.1, SVG Export Plug-In  -->
<svg version="1.1" xmlns="http://www.w3.org/2000/svg" xmlns:xlink="http://www.w3.org/1999/xlink" x="0px" y="0px"
	 width="111.22px" height="76.77px" viewBox="0 0 111.22 76.77" style="enable-background:new 0 0 111.22 76.77;"
	 xml:space="preserve">
<style type="text/css">
	.st0{fill:#94BB51;}
	.st1{fill:#239E59;}
</style>
<defs>
</defs>
<path class="st0" d="M60.13,76.77c2.72-7.17,15.81-8.97,21.3-13.23c6.51-5.05,12.49-10.83,19.35-15.31
	c3.15-2.06,6.97-3.92,10.43-5.04c-8.38-2.65-18.75-0.02-26.1,3.51c6.64-9.45,7.11-18.8,9.21-29.42
	C84.46,20.47,75.6,30.2,68.94,38.02c-1.8,2.11-3.38,4.31-4.84,6.7c0.1-3.01-0.99-5.29-1.27-8.06c-0.46-4.55-0.56-5.93-1.02-9.02
	c-0.95-6.46-2.44-13.01-1.7-19.73C60.4,5.31,61.47,2.35,62.74,0C50.8,6.6,47.58,25.72,46.5,37.86c-0.35,3.99,0.61,6.86,1.67,10.36
	c-1.03-5.18-8.8-9.1-14.31-13.02c-5.91-4.2-10.39-9.28-16.41-13.18c-2.27-1.47-5.82-4.23-8.47-4.4c-0.09,2.36,1.89,5.37,2.86,7.62
	c1.27,2.96,2.34,6.06,3.66,9.03c2.53,5.7,4.86,10.87,8.35,15.83c-3.91-1.86-7.57-3.94-11.47-6C7.96,41.79,4.07,37.98,0,36.22
	c0.65,4.18,3.96,9.19,6.26,12.79c3.14,4.91,7.2,7.95,12.61,10.3c10.32,4.48,20.73,8.75,31.23,13.06
	C54.01,73.97,58.78,75.78,60.13,76.77z"/>
<path class="st1" d="M93.11,47.77c2.34-1.16,4.94-2.31,7.48-1.7c-6.42,3.5-12.83,7.04-19.22,10.6c-4.2,2.34-8.1,4.92-12.03,7.67
	C75.31,56.89,84.71,51.92,93.11,47.77z"/>
<path class="st1" d="M87.53,26.6c-3.65,1.6-6.09,5.04-8.35,8.33c-5.95,8.68-11.28,17.27-13.81,27.58
	C70.69,49.43,81.11,39.11,87.53,26.6z"/>
<path class="st1" d="M56.05,28.31c0.19-4.46,0.82-8.91,0.53-13.37c-3.41,4.85-4.49,11.05-4.07,16.96s2.22,11.64,4.16,17.24
	c0.95,2.75,1.92,5.85,3.8,8.11c0.54-1.62-1.04-4.26-1.54-5.94c-0.74-2.48-1.35-5-1.81-7.55C56.19,38.68,55.83,33.48,56.05,28.31z"/>
<path class="st1" d="M47.1,52.31c-8.71-8.26-17.91-16.39-29.01-20.96c3.9,6.09,9.66,10.59,15.57,14.61
	c5.89,4.01,11.76,8.68,17.79,12.36C51.85,56.27,48.48,53.62,47.1,52.31z"/>
<path class="st1" d="M51.21,67.2c-8.58-6.96-18.5-12.25-29.07-15.48c-2.21-0.68-4.61-1.26-6.81-0.54c6.76,3.86,14.39,5.87,21.6,8.79
	c6.75,2.73,12.32,6.38,17.15,11.82C55.57,70.43,52.25,68.04,51.21,67.2z"/>
</svg>
