<svg width="110" height="46" viewBox="0 0 110 46" fill="none" xmlns="http://www.w3.org/2000/svg">
<path d="M8.5904 1.153C7.7394 1.153 7.2794 1.797 7.2564 2.579V15.574C7.2794 16.356 7.7394 17 8.5904 17H16.1114C16.8474 17 17.4914 16.287 17.4914 15.528C17.4914 14.723 16.8704 14.056 16.1114 14.056H10.6144V10.652H15.1914C15.9274 10.652 16.5714 9.962 16.5714 9.203C16.5714 8.398 15.9504 7.754 15.1914 7.754H10.6144V4.12H15.9044C16.6404 4.12 17.2844 3.407 17.2844 2.648C17.2844 1.82 16.6634 1.153 15.9044 1.153H8.5904ZM25.6262 6.052C24.5222 6.052 23.3952 6.742 22.7972 8.743V7.57C22.7972 6.765 22.0612 6.144 21.1872 6.144C20.3362 6.144 19.6002 6.788 19.5772 7.57V15.689C19.6002 16.471 20.3362 17.115 21.1872 17.115C22.0612 17.115 22.7972 16.494 22.7972 15.689V13.044C22.8432 10.353 23.4412 8.973 25.2352 8.973C25.4422 8.973 25.7872 8.996 26.0172 8.996C26.7302 8.996 27.4892 8.628 27.6042 7.823C27.8112 6.305 26.6842 6.052 25.6262 6.052ZM33.9596 17.207C37.0876 17.207 39.6176 14.976 39.6176 11.595C39.6176 8.214 37.0876 6.052 33.9596 6.052C30.8316 6.052 28.3246 8.214 28.3246 11.595C28.3246 14.976 30.8316 17.207 33.9596 17.207ZM33.9596 14.102C32.6486 14.102 31.5446 13.067 31.5446 11.595C31.5446 10.146 32.6486 9.157 33.9596 9.157C35.2936 9.157 36.3976 10.146 36.3976 11.595C36.3976 13.067 35.2936 14.102 33.9596 14.102ZM41.3305 14.93C41.8825 16.517 43.9065 17.23 45.6315 17.23C47.8855 17.23 50.2775 16.149 50.2775 13.872C50.2775 13.182 49.9555 11.503 47.3565 10.652L45.7235 10.1C45.0795 9.893 44.8035 9.686 44.8035 9.341C44.8035 8.927 45.2865 8.697 45.9765 8.697C46.3905 8.697 46.8045 8.835 47.2645 9.18C47.9315 9.686 48.5985 9.847 49.3115 9.433C49.7945 9.157 49.9785 8.49 49.5875 7.8C48.8515 6.512 47.2645 6.029 45.7235 6.029C43.4695 6.029 41.5605 7.501 41.5605 9.088C41.5605 10.077 41.5375 11.595 44.7575 12.676L45.9765 13.113C46.7585 13.366 47.0345 13.527 47.0345 13.987C47.0345 14.539 46.3675 14.654 45.6545 14.654C44.8955 14.654 44.2055 14.332 43.6305 13.711C43.2855 13.297 42.6185 12.998 41.9055 13.32C41.3765 13.55 41.1005 14.263 41.3305 14.93ZM52.0016 2.28C52.0016 3.338 52.9216 4.166 54.0026 4.166C55.0836 4.166 55.9576 3.338 55.9576 2.28C55.9576 1.222 55.0836 0.417 54.0026 0.417C52.9216 0.417 52.0016 1.222 52.0016 2.28ZM55.6126 7.57C55.6126 6.765 54.8766 6.144 54.0026 6.144C53.1516 6.144 52.4156 6.788 52.3926 7.57V15.689C52.4156 16.471 53.1516 17.115 54.0026 17.115C54.8766 17.115 55.6126 16.494 55.6126 15.689V7.57ZM63.4283 17.207C66.5563 17.207 69.0863 14.976 69.0863 11.595C69.0863 8.214 66.5563 6.052 63.4283 6.052C60.3003 6.052 57.7933 8.214 57.7933 11.595C57.7933 14.976 60.3003 17.207 63.4283 17.207ZM63.4283 14.102C62.1173 14.102 61.0133 13.067 61.0133 11.595C61.0133 10.146 62.1173 9.157 63.4283 9.157C64.7623 9.157 65.8663 10.146 65.8663 11.595C65.8663 13.067 64.7623 14.102 63.4283 14.102ZM74.5023 7.57C74.5023 6.765 73.7663 6.144 72.8923 6.144C72.0413 6.144 71.3053 6.788 71.2823 7.57V15.689C71.3053 16.471 72.0413 17.115 72.8923 17.115C73.7663 17.115 74.5023 16.494 74.5023 15.689V11.319C74.5023 9.686 75.3533 9.134 76.4803 9.134C77.5613 9.134 78.3433 9.847 78.3433 11.273V15.689C78.3663 16.471 79.1023 17.115 79.9533 17.115C80.8273 17.115 81.5633 16.494 81.5633 15.689V10.583C81.5633 7.524 80.0223 6.029 77.6073 6.029C76.3423 6.029 75.0773 6.742 74.5023 7.823V7.57ZM98.2086 10.008V11.273C98.2086 13.504 96.3686 14.102 95.4946 14.102C94.1376 14.102 93.3326 13.481 93.1026 12.354C92.9646 11.687 93.2866 10.008 95.4946 10.008H98.2086ZM98.2086 1.889C97.3116 1.245 96.1616 0.899999 94.8506 0.968999C92.1366 1.107 90.2276 3.154 90.2276 5.408C90.2276 7.018 91.1016 8.191 92.2286 8.559C90.5036 9.18 89.6066 10.606 89.6066 12.607C89.6066 15.321 91.9526 17.207 95.0116 17.207C96.3456 17.207 98.2546 16.54 98.8526 15.252C99.4966 16.471 100.831 17.207 102.349 17.207C103.246 17.207 103.798 16.632 103.798 15.919C103.798 15.137 103.223 14.677 102.51 14.608C101.429 14.493 101.176 13.849 101.176 12.354V10.008H101.935C102.579 9.985 103.131 9.387 103.131 8.72C103.131 8.007 102.602 7.432 101.935 7.432H101.176V6.489C101.153 5.753 100.463 5.109 99.7036 5.109C98.8756 5.109 98.2086 5.73 98.2086 6.489V7.432H95.5866C93.7466 7.432 93.7466 5.707 93.7466 5.638C93.7466 4.948 94.2756 3.936 95.4486 3.936C95.7706 3.936 96.0006 4.028 96.2306 4.12C96.9666 4.396 98.1626 4.58 98.6456 3.66C98.8986 3.177 98.8526 2.349 98.2086 1.889ZM4.21357 27.12H7.06557C9.59557 27.12 10.8606 29.489 10.8606 32.111C10.8606 34.71 9.59557 37.056 7.06557 37.056H4.21357V27.12ZM7.06557 40C11.6196 40 14.2186 36.596 14.2186 32.111C14.2186 27.603 11.6196 24.153 7.06557 24.153H2.18957C1.33857 24.153 0.878574 24.797 0.855574 25.579V38.574C0.855574 39.333 1.33857 40 2.18957 40H7.06557ZM19.2141 33.675C19.4901 32.318 20.4101 31.72 21.6061 31.72C22.8021 31.72 23.6991 32.364 23.8601 33.675H19.2141ZM25.7001 37.102C25.2401 36.573 24.4121 36.435 23.6761 36.941C23.0091 37.401 22.4571 37.447 21.8131 37.447C20.6861 37.447 19.3291 36.918 19.1681 35.676H26.0911C26.5971 35.676 27.0801 35.262 27.0801 34.687C27.0801 31.306 24.6421 29.052 21.5831 29.052C18.5011 29.052 15.9711 31.214 15.9711 34.595C15.9711 37.976 18.5011 40.207 21.5831 40.207C22.8481 40.207 24.2051 39.954 25.2861 39.241C26.0681 38.781 26.2981 37.792 25.7001 37.102ZM32.2768 30.777V30.57C32.2538 29.788 31.5178 29.144 30.6668 29.144C29.7928 29.144 29.0568 29.765 29.0568 30.57V43.818C29.0568 44.623 29.7928 45.244 30.6668 45.244C31.5178 45.244 32.2538 44.6 32.2768 43.818V38.482C32.9668 39.609 34.2778 40.207 35.4968 40.207C38.2338 40.207 40.7178 38.183 40.7178 34.618C40.7178 31.053 38.2338 29.052 35.4968 29.052C34.8068 29.052 33.1968 29.351 32.2768 30.777ZM37.4058 34.641C37.4058 36.067 36.4858 37.355 34.8758 37.355C33.4268 37.355 32.2538 36.067 32.2538 34.641C32.2538 33.215 33.4268 31.927 34.8758 31.927C36.4858 31.927 37.4058 33.215 37.4058 34.641ZM48.0426 40.207C51.1706 40.207 53.7006 37.976 53.7006 34.595C53.7006 31.214 51.1706 29.052 48.0426 29.052C44.9146 29.052 42.4076 31.214 42.4076 34.595C42.4076 37.976 44.9146 40.207 48.0426 40.207ZM48.0426 37.102C46.7316 37.102 45.6276 36.067 45.6276 34.595C45.6276 33.146 46.7316 32.157 48.0426 32.157C49.3766 32.157 50.4806 33.146 50.4806 34.595C50.4806 36.067 49.3766 37.102 48.0426 37.102ZM55.4136 37.93C55.9656 39.517 57.9896 40.23 59.7146 40.23C61.9686 40.23 64.3606 39.149 64.3606 36.872C64.3606 36.182 64.0386 34.503 61.4396 33.652L59.8066 33.1C59.1626 32.893 58.8866 32.686 58.8866 32.341C58.8866 31.927 59.3696 31.697 60.0596 31.697C60.4736 31.697 60.8876 31.835 61.3476 32.18C62.0146 32.686 62.6816 32.847 63.3946 32.433C63.8776 32.157 64.0616 31.49 63.6706 30.8C62.9346 29.512 61.3476 29.029 59.8066 29.029C57.5526 29.029 55.6436 30.501 55.6436 32.088C55.6436 33.077 55.6206 34.595 58.8406 35.676L60.0596 36.113C60.8416 36.366 61.1176 36.527 61.1176 36.987C61.1176 37.539 60.4506 37.654 59.7376 37.654C58.9786 37.654 58.2886 37.332 57.7136 36.711C57.3686 36.297 56.7016 35.998 55.9886 36.32C55.4596 36.55 55.1836 37.263 55.4136 37.93ZM66.0847 25.28C66.0847 26.338 67.0047 27.166 68.0857 27.166C69.1667 27.166 70.0407 26.338 70.0407 25.28C70.0407 24.222 69.1667 23.417 68.0857 23.417C67.0047 23.417 66.0847 24.222 66.0847 25.28ZM69.6957 30.57C69.6957 29.765 68.9597 29.144 68.0857 29.144C67.2347 29.144 66.4987 29.788 66.4757 30.57V38.689C66.4987 39.471 67.2347 40.115 68.0857 40.115C68.9597 40.115 69.6957 39.494 69.6957 38.689V30.57ZM72.4743 29.259C71.8303 29.259 71.3243 29.834 71.3243 30.524C71.3243 31.191 71.8303 31.766 72.4743 31.789H73.3483V38.689C73.3713 39.471 74.1073 40.115 74.9583 40.115C75.8323 40.115 76.5683 39.494 76.5683 38.689V31.789H77.7873C78.4313 31.766 78.9373 31.191 78.9373 30.524C78.9373 29.834 78.4313 29.259 77.7873 29.259H76.5683V26.453C76.5683 25.648 75.8323 25.027 74.9583 25.027C74.1073 25.027 73.3713 25.671 73.3483 26.453V29.259H72.4743ZM80.1227 25.28C80.1227 26.338 81.0427 27.166 82.1237 27.166C83.2047 27.166 84.0787 26.338 84.0787 25.28C84.0787 24.222 83.2047 23.417 82.1237 23.417C81.0427 23.417 80.1227 24.222 80.1227 25.28ZM83.7337 30.57C83.7337 29.765 82.9977 29.144 82.1237 29.144C81.2727 29.144 80.5367 29.788 80.5137 30.57V38.689C80.5367 39.471 81.2727 40.115 82.1237 40.115C82.9977 40.115 83.7337 39.494 83.7337 38.689V30.57ZM91.5494 40.207C94.6774 40.207 97.2074 37.976 97.2074 34.595C97.2074 31.214 94.6774 29.052 91.5494 29.052C88.4214 29.052 85.9144 31.214 85.9144 34.595C85.9144 37.976 88.4214 40.207 91.5494 40.207ZM91.5494 37.102C90.2384 37.102 89.1344 36.067 89.1344 34.595C89.1344 33.146 90.2384 32.157 91.5494 32.157C92.8834 32.157 93.9874 33.146 93.9874 34.595C93.9874 36.067 92.8834 37.102 91.5494 37.102ZM102.623 30.57C102.623 29.765 101.887 29.144 101.013 29.144C100.162 29.144 99.4264 29.788 99.4034 30.57V38.689C99.4264 39.471 100.162 40.115 101.013 40.115C101.887 40.115 102.623 39.494 102.623 38.689V34.319C102.623 32.686 103.474 32.134 104.601 32.134C105.682 32.134 106.464 32.847 106.464 34.273V38.689C106.487 39.471 107.223 40.115 108.074 40.115C108.948 40.115 109.684 39.494 109.684 38.689V33.583C109.684 30.524 108.143 29.029 105.728 29.029C104.463 29.029 103.198 29.742 102.623 30.823V30.57Z" fill="black"/>
</svg>
