<svg width="116" height="97" viewBox="0 0 116 97" fill="none" xmlns="http://www.w3.org/2000/svg">
<path d="M62.5618 29.8952C63.6681 31.9684 65.6927 32.8548 65.4223 35.1891C65.2652 36.5459 64.5292 37.1263 63.8848 38.3306C63.0875 39.8208 62.1325 40.4245 61.6745 42.0513C61.1445 43.9332 62.2259 45.1427 61.8213 47.0555C61.5004 48.5726 61.1897 49.4566 60.2882 50.7183C57.9299 54.0187 54.4122 53.1628 50.4624 54.0866C47.0809 54.8775 45.1103 54.9527 41.6616 55.3606C37.9086 55.8045 35.8021 56.1925 32.0231 56.2246C28.2441 56.2568 26.0612 56.341 22.3713 55.5246C19.1509 54.8121 16.8963 54.853 14.4218 52.6723C13.291 51.6758 12.6213 51.0411 11.9978 49.6688C11.1451 47.792 11.9544 46.4348 11.5881 44.4062C11.039 41.3647 9.66071 39.9437 9.02177 36.9199C8.40512 34.0015 7.96102 32.273 8.33144 29.3133C8.56208 27.4705 8.84408 26.4351 9.54371 24.7147C12.2211 18.1308 17.2468 16.1687 23.7859 13.3836L23.7995 13.3778C25.5682 12.6245 26.5828 12.1923 28.4648 11.7796C34.3439 10.4905 37.963 12.2568 43.7089 14.0485C49.6637 15.9053 53.8993 16.4774 58.0036 21.1744C60.5322 24.0681 60.7527 26.5049 62.5618 29.8952Z" fill="#DAB4A3"/>
<path d="M22.0451 18.4829C21.0494 14.9341 28.6092 11.7011 28.6092 11.7011C28.6092 11.7011 19.0002 14.7752 14.8622 17.867C12.7619 19.4363 12.9181 19.3568 11.3996 21.4941C7.46165 27.0371 7.73269 31.464 9.24657 38.0928C9.74831 40.2898 11.4102 42.0972 11.7325 44.3277C11.9858 46.081 11.2478 47.1562 11.7189 48.8639C12.5238 51.7819 14.2916 53.1765 17.0838 54.3452C18.9152 55.1117 22.6959 55.928 26.4325 56.1949C28.7481 56.3602 32.3769 56.2486 32.3769 56.2486L25.6374 48.5371C23.0055 45.5255 20.1966 44.6084 18.898 40.8255C17.6402 37.1614 15.4158 29.6395 19.1929 30.5002C23.1632 31.405 28.3052 31.1518 28.3052 31.1518C28.3052 31.1518 24.2954 29.8158 22.6462 27.863C21.7988 26.8597 21.0236 26.2689 20.953 24.9576C20.8013 22.1396 25.2843 26.0819 28.105 25.9917C32.0996 25.864 37.9352 23.1447 37.9352 23.1447C37.9352 23.1447 32.01 23.1411 28.9072 22.2308C25.8045 21.3205 22.8699 21.4229 22.0451 18.4829Z" fill="black" fill-opacity="0.1"/>
<path fill-rule="evenodd" clip-rule="evenodd" d="M47.3011 15.0939C46.1756 14.8279 44.952 14.5387 43.5522 14.1023C42.685 13.8318 41.8662 13.562 41.0808 13.3031C36.6889 11.8557 33.3403 10.7521 28.3978 11.8139C26.8963 12.5176 21.3379 15.355 22.2004 18.4294C22.8463 20.7314 24.7856 21.1682 27.0864 21.6863C27.724 21.8299 28.3893 21.9798 29.0626 22.1773C32.1654 23.0876 38.0906 23.0912 38.0906 23.0912C38.0906 23.0912 32.255 25.8105 28.2603 25.9382C27.0968 25.9754 25.6504 25.3264 24.3631 24.7488C22.5298 23.9262 21.0193 23.2485 21.1084 24.904C21.1662 25.9782 21.6969 26.5689 22.3526 27.2989C22.4974 27.4601 22.6483 27.628 22.8016 27.8095C24.4508 29.7623 28.4606 31.0983 28.4606 31.0983C28.4606 31.0983 23.3186 31.3514 19.3483 30.4467C17.6326 30.0557 17.1552 31.3942 17.263 33.3152C23.9011 32.4326 32.6898 31.1474 38.323 29.8681C48.3749 27.5852 58.3802 21.7723 58.3802 21.7723C58.3812 21.772 57.847 21.2282 57.847 21.2282C53.5853 16.579 50.9635 15.9594 47.3011 15.0939ZM8.68088 34.393C8.3502 34.4318 8.17231 34.4522 8.17231 34.4522C7.71371 32.2819 7.73371 32.1641 7.92645 31.029C7.99287 30.6378 8.07982 30.1257 8.17477 29.3671C8.40541 27.5242 8.6874 26.4889 9.38703 24.7685C11.9815 18.3886 16.781 16.3485 23.0258 13.694C23.2255 13.6091 23.4266 13.5236 23.6292 13.4374L23.6428 13.4315C25.3064 12.723 26.3029 12.2986 27.9815 11.9072C25.6069 12.7106 18.4405 15.256 15.0176 17.8135C13.1095 19.2392 13.0638 19.304 11.9327 20.9066C11.8189 21.068 11.6939 21.245 11.555 21.4405C8.38383 25.9043 7.94211 29.6442 8.68088 34.393Z" fill="white" fill-opacity="0.48"/>
<path d="M40.5596 29.2748C49.0934 27.0187 58.5358 21.7181 58.5358 21.7181L60.6522 25.3499C60.6522 25.3499 48.9753 31.0117 41.2724 33.3877C38.3747 34.2815 36.7704 34.9203 33.7816 35.4327C23.7883 37.146 8.19953 31.479 8.19953 31.479C8.2397 30.0709 8.2843 29.1841 8.53391 27.8785C8.53391 27.8785 20.3297 32.0653 28.6351 31.0967C31.5943 30.7516 37.6793 30.0362 40.5596 29.2748Z" fill="#885D52"/>
<path d="M43.135 37.806C51.6688 35.5499 62.4614 29.6122 62.4614 29.6122L64.7828 32.8251C64.7828 32.8251 51.5507 39.5429 43.8478 41.9189C40.9501 42.8127 39.3458 43.4515 36.357 43.9639C26.3637 45.6772 10.258 40.536 10.258 40.536C9.77681 39.1323 9.14409 38.3034 9.02829 36.9488C9.02829 36.9488 22.9051 40.5965 31.2105 39.6279C34.1697 39.2828 40.2547 38.5674 43.135 37.806Z" fill="#885D52"/>
<path d="M43.8387 46.9754C52.3725 44.7193 63.067 39.5124 63.067 39.5124C63.067 39.5124 61.9302 41.0113 61.6811 42.0791C61.5099 42.813 61.5919 43.8526 61.5919 43.8526C61.5919 43.8526 52.2545 48.7124 44.5515 51.0884C41.6539 51.9822 40.0495 52.621 37.0608 53.1334C27.0674 54.8467 11.7906 49.0727 11.7906 49.0727C11.5188 47.7715 11.4609 47.0942 11.6571 45.6326C11.6571 45.6326 23.6088 49.7659 31.9142 48.7974C34.8734 48.4523 40.9584 47.7369 43.8387 46.9754Z" fill="#885D52"/>
<path d="M60.52 28.235C61.6263 30.3083 63.651 31.1947 63.3806 33.529C63.2234 34.8858 62.4875 35.4661 61.8431 36.6704C61.0457 38.1606 60.0908 38.7643 59.6327 40.3911C59.1028 42.2731 60.1841 43.4826 59.7795 45.3953C59.4586 46.9124 59.148 47.7965 58.2465 49.0581C55.8882 52.3586 52.3705 51.5026 48.4207 52.4265C45.0392 53.2173 43.0686 53.2926 39.6199 53.7005C35.8669 54.1444 33.7604 54.5324 29.9813 54.5645C26.2023 54.5966 24.0195 54.6809 20.3295 53.8644C17.1092 53.1519 14.8545 53.1928 12.38 51.0122C11.2492 50.0156 10.5796 49.3809 9.95607 48.0087C9.10335 46.1319 9.91261 44.7746 9.54636 42.746C8.99726 39.7046 7.61896 38.2835 6.98002 35.2597C6.36337 32.3414 5.91927 30.6128 6.28969 27.6532C6.52034 25.8103 6.80233 24.775 7.50196 23.0545C10.1794 16.4707 15.205 14.5085 21.7441 11.7234L21.7578 11.7176C23.5265 10.9643 24.5411 10.5321 26.4231 10.1195C32.3021 8.83033 35.9213 10.5966 41.6672 12.3883C47.622 14.2452 51.8576 14.8172 55.9619 19.5143C58.4905 22.408 58.7109 24.8447 60.52 28.235Z" stroke="black"/>
<path d="M31.7389 65.8376C31.1589 69.4335 28.6358 71.7509 30.2055 75.0376C31.118 76.948 32.4887 77.429 34.0389 78.871C35.957 80.6551 37.6606 81.0603 39.15 83.2154C40.8729 85.7084 39.8953 88.0253 41.45 90.6265C42.683 92.6896 43.5829 93.8297 45.5389 95.2265C50.6556 98.8804 55.3831 95.8573 61.6388 95.2265C66.9944 94.6865 69.9216 93.8063 75.1832 92.6709C80.9092 91.4354 84.1928 90.9455 89.7499 89.0932C95.307 87.2408 98.5499 86.2671 103.55 83.2154C107.914 80.552 111.24 79.4788 113.772 75.0376C114.929 73.0081 115.592 71.7409 115.817 69.4154C116.123 66.235 114.255 64.6517 113.772 61.4932C113.048 56.7577 114.355 53.9814 113.772 49.2266C113.209 44.6377 112.992 41.88 110.961 37.7266C109.697 35.1405 108.763 33.7641 106.872 31.5933C99.6371 23.2855 91.282 22.9346 80.2943 22.1377L80.2714 22.1361C77.2994 21.9205 75.5945 21.7969 72.6277 22.1377C63.3596 23.2025 58.9409 27.6115 51.4166 33.1266C43.6187 38.8422 37.6959 41.8099 34.0389 50.7599C31.7859 56.2737 32.6874 59.9573 31.7389 65.8376Z" fill="#E6CCC1"/>
<path d="M85.4096 28.7375C85.0857 23.0336 72.3763 22.0931 72.3763 22.0931C72.3763 22.0931 88.0105 21.7707 95.6318 24.2241C99.5001 25.4694 99.2312 25.4312 102.532 27.8018C111.092 33.9499 112.92 40.5769 114.032 51.0573C114.4 54.5308 112.872 58.0163 113.521 61.4486C114.031 64.1467 115.653 65.3522 115.821 68.093C116.107 72.7759 114.216 75.7094 110.71 78.8264C108.41 80.8708 103.276 83.968 97.9318 86.2374C94.6197 87.6438 89.2429 89.3041 89.2429 89.3041L95.2485 74.6096C97.5938 68.8711 101.251 66.1145 101.254 59.9152C101.257 53.9106 100.737 41.7635 95.6318 44.9241C90.2652 48.2463 82.5985 50.4597 82.5985 50.4597C82.5985 50.4597 87.8063 46.4854 89.2429 42.793C89.9811 40.896 90.8208 39.6402 90.2652 37.6819C89.0712 33.4739 84.4795 41.5075 80.2985 42.793C74.3772 44.6137 64.4541 43.5597 64.4541 43.5597C64.4541 43.5597 73.14 40.5761 77.2319 37.6819C81.3237 34.7877 85.678 33.4628 85.4096 28.7375Z" fill="black" fill-opacity="0.06"/>
<path fill-rule="evenodd" clip-rule="evenodd" d="M46.6752 36.4648C48.1917 35.5092 49.8405 34.4701 51.6735 33.1266C52.8091 32.2942 53.874 31.487 54.8955 30.7127C60.609 26.3818 64.9648 23.0801 72.7489 22.1536C75.3123 22.432 84.8749 23.8 85.1553 28.7379C85.3655 32.4378 82.7414 34.053 79.6284 35.9691C78.7657 36.5001 77.8655 37.0543 76.9776 37.6823C72.8857 40.5765 64.1998 43.5601 64.1998 43.5601C64.1998 43.5601 74.1229 44.614 80.0442 42.7934C81.7689 42.2631 83.5635 40.5845 85.1606 39.0907C87.4353 36.9631 89.3094 35.2101 90.0109 37.6823C90.466 39.2864 89.9848 40.4192 89.3902 41.8191C89.2589 42.1282 89.1221 42.4503 88.9886 42.7934C87.552 46.4857 82.3442 50.46 82.3442 50.46C82.3442 50.46 90.0109 48.2467 95.3775 44.9244C97.6969 43.4886 99.0698 45.212 99.8772 48.0834C89.7004 50.1258 76.168 52.659 67.2651 53.6146C51.3792 55.3197 33.7874 51.8257 33.7874 51.8257C33.7858 51.8257 34.2957 50.7599 34.2957 50.7599C38.2075 41.8009 41.7402 39.5747 46.6752 36.4648ZM113.002 45.3501C113.506 45.2408 113.777 45.1813 113.777 45.1813C113.359 41.7686 113.27 41.606 112.417 40.0385C112.123 39.4983 111.738 38.7912 111.218 37.7266C109.953 35.1405 109.019 33.7641 107.129 31.5933C100.118 23.5429 92.0555 22.964 81.5648 22.2107C81.2295 22.1867 80.8916 22.1624 80.5512 22.1377L80.5283 22.1361C77.7374 21.9336 76.0639 21.8123 73.4135 22.0805C77.3122 22.0652 89.0802 22.1972 95.3775 24.2245C98.8919 25.3558 98.9914 25.4278 101.455 27.2092C101.703 27.3886 101.976 27.5853 102.278 27.8022C109.171 32.7534 111.699 38.0152 113.002 45.3501Z" fill="white" fill-opacity="0.44"/>
<path d="M63.6877 53.87C50.0411 54.8514 33.5322 51.8256 33.5322 51.8256L32.2544 58.2144C32.2544 58.2144 52.2213 60.6468 64.7099 60.2589C69.4078 60.1129 72.0812 60.2431 76.721 59.4922C92.2347 56.9814 112.243 40.8367 112.243 40.8367C111.476 38.7922 110.965 37.5145 109.943 35.7256C109.943 35.7256 94.7522 47.7933 82.0876 50.5478C77.5753 51.5292 68.2936 53.5388 63.6877 53.87Z" fill="#996B5F"/>
<path d="M64.1985 67.6685C50.552 68.6499 31.743 65.3685 31.743 65.3685L29.9541 71.2463C29.9541 71.2463 52.7321 74.4453 65.2207 74.0574C69.9186 73.9115 72.592 74.0417 77.2318 73.2907C92.7456 70.7799 113.776 55.1463 113.776 55.1463C113.776 52.8463 114.287 51.313 113.776 49.2686C113.776 49.2686 95.263 61.5918 82.5984 64.3463C78.0861 65.3277 68.8044 67.3373 64.1985 67.6685Z" fill="#996B5F"/>
<path d="M67.7764 81.4686C54.1299 82.45 35.832 80.1909 35.832 80.1909C35.832 80.1909 38.2523 81.817 39.1542 83.2575C39.7742 84.2476 40.1765 85.8131 40.1765 85.8131C40.1765 85.8131 56.3101 88.2454 68.7986 87.8575C73.4965 87.7116 76.1699 87.8418 80.8097 87.0908C96.3235 84.58 115.821 68.4353 115.821 68.4353C115.565 66.3909 115.31 65.3687 114.287 63.3242C114.287 63.3242 98.8409 75.3919 86.1764 78.1464C81.664 79.1278 72.3824 81.1374 67.7764 81.4686Z" fill="#996B5F"/>
<path d="M29.6947 64.8152C29.1147 68.4111 26.5916 70.7284 28.1614 74.0152C29.0738 75.9255 30.4445 76.4066 31.9947 77.8485C33.9128 79.6327 35.6164 80.0379 37.1058 82.1929C38.8287 84.6859 37.8511 87.0028 39.4058 89.604C40.6389 91.6671 41.5387 92.8072 43.4947 94.204C48.6114 97.8579 53.3389 94.8348 59.5946 94.204C64.9502 93.664 67.8774 92.7838 73.1391 91.6485C78.865 90.413 82.1486 89.9231 87.7057 88.0707C93.2628 86.2183 96.5057 85.2447 101.506 82.1929C105.869 79.5295 109.196 78.4563 111.728 74.0152C112.885 71.9856 113.548 70.7184 113.772 68.393C114.079 65.2126 112.211 63.6293 111.728 60.4707C111.004 55.7353 112.311 52.9589 111.728 48.2041C111.165 43.6152 110.948 40.8575 108.917 36.7041C107.652 34.118 106.718 32.7417 104.828 30.5708C97.5929 22.263 89.2378 21.9121 78.2502 21.1153L78.2272 21.1136C75.2552 20.898 73.5503 20.7744 70.5835 21.1153C61.3154 22.1801 56.8967 26.589 49.3724 32.1041C41.5745 37.8198 35.6517 40.7875 31.9947 49.7374C29.7417 55.2512 30.6432 58.9348 29.6947 64.8152Z" stroke="black"/>
</svg>
