<svg width="298" height="210" viewBox="0 0 298 210" fill="none" xmlns="http://www.w3.org/2000/svg">
<path d="M165.782 58.1813C162.956 78.8852 156.02 92.7421 147.16 100.192C142.098 104.449 137.718 104.802 131.18 105.807C105.917 109.687 90.3256 112.035 63.2375 111.67C43.112 97.987 36.5559 96.6674 15.9134 83.5504C9.75921 79.6397 13.7993 72.351 11.8189 65.3335C9.60471 57.4876 2.57887 53.4219 4.94794 45.6214C7.6126 36.8477 17.9246 39.2165 24.9493 33.3231C31.3562 27.9481 32.6112 22.4157 39.3728 17.4943C52.4006 8.01192 63.4288 7.68125 79.538 8.04908C86.6199 8.21078 90.6919 8.56136 97.5158 10.4623C110.72 14.1404 116.212 20.9145 127.591 28.555C143.262 39.0771 166.748 51.1001 165.782 58.1813Z" fill="#8A8883"/>
<path d="M5.54228 45.6773C8.20694 36.9036 18.5189 39.2725 25.5437 33.3791C25.5437 33.3791 37.5428 31.8474 42.5189 36.3818C59.4784 51.8357 88.1972 64.0361 88.1972 64.0361C88.1972 64.0361 79.0644 71.2018 74.7287 77.1136C66.3481 88.5408 63.8318 111.726 63.8318 111.726C43.7063 98.043 37.1502 96.7234 16.5078 83.6063C10.3535 79.6957 14.3936 72.407 12.4132 65.3894C10.1991 57.5436 3.1732 53.4778 5.54228 45.6773Z" fill="#615C4E"/>
<path d="M4.94985 44.6235C7.61451 35.8498 17.9265 38.2187 24.9512 32.3253C24.9512 32.3253 36.9504 30.7936 41.9265 35.328C58.886 50.7819 71.6617 57.684 71.6617 57.684C71.6617 57.684 24.6137 35.5072 16.4972 47.2534C14.9891 53.6792 65.3407 85.0856 63.3148 87.848C60.8146 91.2571 26.973 68.5776 26.7794 71.6795C26.324 78.975 63.2394 110.672 63.2394 110.672C43.1139 96.9892 36.5578 95.6696 15.9154 82.5525C9.76112 78.6419 13.8012 71.3532 11.8208 64.3356C9.60664 56.4898 2.58078 52.424 4.94985 44.6235Z" fill="#43403C"/>
<path d="M147.265 100.191C156.124 92.7411 163.035 78.3435 165.861 57.6396C165.861 57.6396 130.709 62.7582 113.66 64.3956C96.4523 65.1953 86.8032 61.8557 76.3126 62.3414C59.0746 87.5098 63.3416 111.669 63.3416 111.669C90.4297 112.034 106.021 109.686 131.284 105.806C137.822 104.801 142.202 104.448 147.265 100.191Z" fill="#6F685C"/>
<path d="M163.412 54.6677C160.586 75.3715 153.65 89.2284 144.791 96.678C139.728 100.935 135.349 101.289 128.81 102.293C103.547 106.173 87.9562 108.522 60.8681 108.156C40.7426 94.4734 34.1865 93.1538 13.5441 80.0367C7.38982 76.1261 11.4299 68.8374 9.44951 61.8198C7.23533 53.974 0.209488 49.9082 2.57855 42.1077C5.24322 33.334 15.5552 35.7029 22.5799 29.8095C28.9868 24.4344 30.2418 18.9021 37.0034 13.9806C50.0312 4.49825 61.0594 4.16758 77.1686 4.53541C84.2505 4.69711 88.3225 5.04769 95.1464 6.94859C108.35 10.6267 113.842 17.4008 125.222 25.0414C140.893 35.5634 164.379 47.5865 163.412 54.6677Z" stroke="black"/>
<path d="M66.583 70.858C66.9309 71.2869 66.8652 71.9167 66.4363 72.2646C66.0073 72.6125 65.3776 72.5468 65.0297 72.1178L66.583 70.858ZM48.1434 59.7178C47.6147 59.5583 47.3153 59.0004 47.4747 58.4717C47.6342 57.9429 48.1921 57.6435 48.7208 57.803L48.1434 59.7178ZM65.8063 71.4879C65.0297 72.1178 65.0298 72.118 65.0298 72.1181C65.0298 72.118 65.0299 72.1181 65.0298 72.118C65.0298 72.118 65.0296 72.1177 65.0293 72.1173C65.0286 72.1166 65.0275 72.1152 65.0259 72.1133C65.0228 72.1094 65.0177 72.1031 65.0107 72.0946C64.9966 72.0776 64.975 72.0514 64.946 72.0166C64.888 71.9471 64.8003 71.8431 64.6848 71.7089C64.4536 71.4404 64.1109 71.051 63.6699 70.5738C62.7872 69.6188 61.5136 68.3154 59.9544 66.9263C56.817 64.1313 52.6036 61.0627 48.1434 59.7178L48.7208 57.803C53.595 59.2727 58.0687 62.5679 61.2848 65.433C62.9023 66.874 64.2222 68.2248 65.1386 69.2163C65.5972 69.7124 65.9555 70.1195 66.2005 70.4041C66.323 70.5464 66.4172 70.6582 66.4815 70.7352C66.5137 70.7737 66.5383 70.8035 66.5553 70.8242C66.5638 70.8345 66.5704 70.8425 66.575 70.8482C66.5773 70.851 66.5791 70.8533 66.5805 70.8549C66.5811 70.8557 66.5817 70.8564 66.5821 70.8569C66.5823 70.8572 66.5825 70.8574 66.5826 70.8576C66.5828 70.8578 66.583 70.858 65.8063 71.4879Z" fill="#262112"/>
<path d="M40.745 85.175C40.3874 84.7541 40.4388 84.123 40.8597 83.7655C41.2807 83.4079 41.9117 83.4593 42.2693 83.8802L40.745 85.175ZM56.3295 93.718C56.8605 93.8698 57.168 94.4233 57.0163 94.9543C56.8645 95.4853 56.3111 95.7928 55.78 95.6411L56.3295 93.718ZM41.5071 84.5276C42.2693 83.8802 42.2692 83.8801 42.2691 83.88C42.2691 83.88 42.269 83.8799 42.269 83.8799C42.2691 83.88 42.2692 83.8801 42.2694 83.8804C42.2699 83.8809 42.2707 83.8819 42.272 83.8834C42.2745 83.8863 42.2786 83.8911 42.2843 83.8977C42.2957 83.911 42.3135 83.9315 42.3375 83.9589C42.3854 84.0138 42.458 84.096 42.554 84.2024C42.746 84.4153 43.0311 84.7246 43.3984 85.1038C44.1336 85.8629 45.1949 86.8992 46.4947 88.0032C49.1121 90.2264 52.6198 92.6581 56.3295 93.718L55.78 95.6411C51.6668 94.4658 47.9007 91.8215 45.2 89.5275C43.8407 88.373 42.7319 87.2904 41.9618 86.4953C41.5764 86.0974 41.2751 85.7707 41.0687 85.5419C40.9656 85.4275 40.8861 85.3375 40.8317 85.2752C40.8045 85.2441 40.7835 85.2199 40.769 85.2031C40.7618 85.1947 40.7561 85.1881 40.7521 85.1834C40.7501 85.181 40.7485 85.1792 40.7473 85.1778C40.7467 85.1771 40.7462 85.1765 40.7458 85.176C40.7456 85.1758 40.7454 85.1756 40.7453 85.1754C40.7451 85.1752 40.745 85.175 41.5071 84.5276Z" fill="#262112"/>
<path d="M159.565 73.6279C156.504 73.7701 149.64 74.4138 146.675 75.8509C142.969 77.6472 137.667 80.059 133.91 80.7749C130.154 81.4908 120.305 79.2414 117.113 80.4724" stroke="#B0A799" stroke-width="2" stroke-linecap="round"/>
<path d="M142.241 85.2646C140.226 85.3583 135.709 85.8015 133.761 86.8256C131.326 88.1057 127.842 89.8236 125.371 90.3274C122.9 90.8312 116.409 89.1877 114.312 90.0631" stroke="#B0A799" stroke-width="2" stroke-linecap="round"/>
<path d="M110.254 72.6709C103.231 72.9971 88.5521 74.0039 86.0193 75.4208" stroke="#B0A799" stroke-width="2" stroke-linecap="round"/>
<path d="M100.68 99.6475C93.6568 99.9737 78.9478 100.332 76.2945 99.1561" stroke="#B0A799" stroke-width="2" stroke-linecap="round"/>
<path d="M135.109 48.299C133.078 47.3106 128.048 45.487 124.179 46.0998C119.342 46.8659 112.394 48.8128 106.992 49.0637C102.67 49.2645 95.7607 48.1418 92.846 47.5554" stroke="#484641" stroke-width="2" stroke-linecap="round"/>
<path d="M98.6766 33.2073C94.9118 33.7431 86.6209 34.7419 83.5756 34.4502C80.5303 34.1586 72.809 31.8825 69.3291 30.7809" stroke="#484641" stroke-width="2" stroke-linecap="round"/>
<path d="M81.176 17.7822C79.5218 17.1372 75.8995 16.0783 74.6431 17.0029C73.0727 18.1586 72.0173 18.749 70.3966 18.8243C68.776 18.8996 62.683 15.9343 62.1679 16.4996" stroke="#484641" stroke-width="2" stroke-linecap="round"/>
<path d="M72.6942 140.149C77.9797 168.855 88.5558 187.741 101.401 197.562C108.741 203.174 114.876 203.383 124.064 204.361C159.567 208.138 181.474 210.404 219.249 208.138C246.445 187.741 255.507 185.475 283.461 165.833C291.795 159.978 285.685 150.069 287.993 140.149C290.575 129.057 300.115 122.928 296.303 112.197C292.016 100.127 277.781 104.101 267.597 96.3332C258.308 89.2483 256.198 81.61 246.445 75.181C227.651 62.794 212.241 63.0474 189.787 64.6049C179.915 65.2896 174.256 66.0427 164.857 69.1375C146.671 75.1258 139.447 84.9341 124.064 96.3332C102.879 112.031 70.8865 130.33 72.6942 140.149Z" fill="#AC6D67"/>
<path d="M295.478 112.318C291.191 100.249 276.955 104.222 266.771 96.4543C266.771 96.4543 249.928 95.0949 243.279 101.745C220.616 124.408 181.333 143.294 181.333 143.294C181.333 143.294 194.541 152.7 200.974 160.669C213.409 176.07 218.423 208.259 218.423 208.259C245.619 187.862 254.681 185.596 282.635 165.954C290.969 160.099 284.859 150.19 287.168 140.27C289.749 129.178 299.289 123.05 295.478 112.318Z" fill="#8A4742"/>
<path d="M296.238 110.805C291.951 98.7349 277.715 102.709 267.531 94.9407C267.531 94.9407 250.689 93.5812 244.039 100.231C221.376 122.894 203.997 133.353 203.997 133.353C203.997 133.353 268.209 99.3588 280.296 115.223C282.817 124.092 214.593 171.179 217.599 174.902C221.309 179.497 267.06 145.657 267.531 149.973C268.64 160.123 219.184 206.745 219.184 206.745C246.379 186.348 255.442 184.082 283.396 164.441C291.73 158.585 285.62 148.676 287.928 138.756C290.509 127.665 300.049 121.536 296.238 110.805Z" fill="#62231F"/>
<path d="M101.256 197.566C88.4114 187.745 77.8353 168.103 72.5498 139.396C72.5498 139.396 121.931 144.26 145.827 145.44C169.89 145.44 183.138 140.155 197.808 140.153C223.492 174.155 219.104 208.142 219.104 208.142C181.33 210.408 159.422 208.142 123.919 204.365C114.731 203.387 108.597 203.178 101.256 197.566Z" fill="#CA9E9A"/>
<path d="M68.0912 137.885C73.3767 166.591 83.9528 185.477 96.7978 195.298C104.138 200.91 110.273 201.119 119.461 202.097C154.964 205.874 176.871 208.14 214.646 205.874C241.842 185.477 250.904 183.211 278.858 163.57C287.192 157.714 281.082 147.805 283.39 137.885C285.971 126.793 295.512 120.665 291.7 109.934C287.413 97.8638 273.178 101.838 262.994 94.0695C253.705 86.9846 251.595 79.3463 241.842 72.9173C223.048 60.5303 207.638 60.7838 185.184 62.3412C175.312 63.0259 169.653 63.7791 160.254 66.8738C142.068 72.8621 134.844 82.6705 119.461 94.0695C98.2759 109.768 66.2835 128.067 68.0912 137.885Z" stroke="black"/>
<path d="M212.256 151.646C211.928 152.091 212.023 152.717 212.468 153.044C212.912 153.372 213.538 153.277 213.866 152.833L212.256 151.646ZM236.812 134.297C237.333 134.113 237.606 133.541 237.423 133.021C237.239 132.5 236.668 132.227 236.147 132.411L236.812 134.297ZM213.061 152.239C213.866 152.833 213.866 152.833 213.866 152.833C213.866 152.833 213.866 152.833 213.866 152.833C213.866 152.832 213.867 152.832 213.867 152.831C213.868 152.83 213.87 152.828 213.872 152.825C213.876 152.819 213.883 152.81 213.893 152.797C213.912 152.771 213.941 152.733 213.98 152.682C214.057 152.579 214.174 152.427 214.328 152.23C214.636 151.837 215.091 151.268 215.679 150.57C216.855 149.172 218.557 147.261 220.654 145.211C224.865 141.093 230.595 136.491 236.812 134.297L236.147 132.411C229.522 134.749 223.542 139.589 219.255 143.781C217.103 145.886 215.357 147.847 214.149 149.282C213.545 150 213.074 150.588 212.753 150.997C212.593 151.202 212.47 151.363 212.386 151.473C212.345 151.528 212.313 151.57 212.291 151.599C212.28 151.614 212.272 151.625 212.266 151.633C212.263 151.637 212.261 151.64 212.259 151.642C212.258 151.643 212.257 151.644 212.257 151.645C212.257 151.645 212.256 151.646 212.256 151.646C212.256 151.646 212.256 151.646 213.061 152.239Z" fill="#60211D"/>
<path d="M248.603 169.47C248.941 169.033 248.86 168.405 248.423 168.068C247.986 167.73 247.358 167.811 247.02 168.248L248.603 169.47ZM227.851 183.02C227.328 183.196 227.046 183.763 227.223 184.287C227.399 184.81 227.966 185.092 228.489 184.916L227.851 183.02ZM247.812 168.859C247.02 168.248 247.02 168.248 247.021 168.248C247.021 168.248 247.021 168.248 247.021 168.248C247.02 168.248 247.02 168.248 247.02 168.248C247.019 168.249 247.018 168.251 247.016 168.253C247.012 168.258 247.007 168.265 246.999 168.275C246.983 168.295 246.959 168.326 246.927 168.366C246.862 168.448 246.765 168.569 246.637 168.725C246.38 169.038 245.999 169.491 245.508 170.048C244.524 171.163 243.102 172.687 241.348 174.322C237.824 177.609 233.038 181.274 227.851 183.02L228.489 184.916C234.074 183.036 239.108 179.146 242.712 175.785C244.523 174.096 245.991 172.523 247.007 171.372C247.516 170.795 247.912 170.323 248.182 169.994C248.318 169.829 248.421 169.7 248.492 169.611C248.527 169.567 248.555 169.533 248.573 169.509C248.582 169.497 248.59 169.488 248.595 169.481C248.597 169.478 248.599 169.476 248.6 169.474C248.601 169.473 248.602 169.472 248.602 169.472C248.602 169.471 248.603 169.471 248.603 169.471C248.603 169.471 248.603 169.47 247.812 168.859Z" fill="#60211D"/>
<path d="M82.3699 161.302C86.6507 161.302 96.2699 161.755 100.5 163.568C105.788 165.834 113.343 168.856 118.631 169.612C123.919 170.367 137.517 166.59 142.049 168.101" stroke="#8F4944" stroke-width="2" stroke-linecap="round"/>
<path d="M107.3 176.413C110.118 176.413 116.449 176.739 119.234 178.042C122.715 179.67 127.687 181.841 131.168 182.384C134.649 182.927 143.599 180.213 146.582 181.298" stroke="#8F4944" stroke-width="2" stroke-linecap="round"/>
<path d="M151.115 156.771C160.935 156.771 181.483 157.225 185.109 159.038" stroke="#8F4944" stroke-width="2" stroke-linecap="round"/>
<path d="M166.225 193.788C176.045 193.788 196.593 193.335 200.219 191.522" stroke="#8F4944" stroke-width="2" stroke-linecap="round"/>
<path d="M114.854 124.367C117.624 122.856 124.524 119.986 129.963 120.59C136.762 121.346 146.583 123.612 154.137 123.612C160.181 123.612 169.75 121.597 173.779 120.59" stroke="#E59997" stroke-width="2" stroke-linecap="round"/>
<path d="M164.713 100.955C170.001 101.459 181.635 102.315 185.865 101.71C190.096 101.106 200.722 97.4297 205.506 95.667" stroke="#E59997" stroke-width="2" stroke-linecap="round"/>
<path d="M188.132 78.2913C190.398 77.284 195.384 75.5717 197.197 76.7804C199.463 78.2913 200.974 79.0467 203.24 79.0467C205.507 79.0467 213.816 74.5141 214.572 75.2695" stroke="#E59997" stroke-width="2" stroke-linecap="round"/>
</svg>
