<svg width="49" height="17" viewBox="0 0 49 17" fill="none" xmlns="http://www.w3.org/2000/svg">
<path d="M12.5444 1.602C12.5444 0.750999 11.7854 0.0379999 10.8654 0.0379999C9.99136 0.0379999 9.20936 0.773999 9.18636 1.602V6.616H3.55136V1.602C3.55136 0.750999 2.79236 0.0379999 1.87236 0.0379999C0.998363 0.0379999 0.216363 0.773999 0.193363 1.602V14.551C0.193363 15.379 0.998363 16.115 1.87236 16.115C2.79236 16.115 3.55136 15.402 3.55136 14.551V9.629H9.18636V14.551C9.18636 15.379 9.99136 16.115 10.8654 16.115C11.7854 16.115 12.5444 15.402 12.5444 14.551V1.602ZM18.1711 9.675C18.4471 8.318 19.3671 7.72 20.5631 7.72C21.7591 7.72 22.6561 8.364 22.8171 9.675H18.1711ZM24.6571 13.102C24.1971 12.573 23.3691 12.435 22.6331 12.941C21.9661 13.401 21.4141 13.447 20.7701 13.447C19.6431 13.447 18.2861 12.918 18.1251 11.676H25.0481C25.5541 11.676 26.0371 11.262 26.0371 10.687C26.0371 7.306 23.5991 5.052 20.5401 5.052C17.4581 5.052 14.9281 7.214 14.9281 10.595C14.9281 13.976 17.4581 16.207 20.5401 16.207C21.8051 16.207 23.1621 15.954 24.2431 15.241C25.0251 14.781 25.2551 13.792 24.6571 13.102ZM35.9028 6.777C34.9828 5.351 33.3728 5.052 32.6828 5.052C29.9458 5.052 27.4618 7.053 27.4618 10.618C27.4618 14.183 29.9458 16.207 32.6828 16.207C33.9018 16.207 35.2128 15.609 35.9028 14.482V14.689C35.9258 15.471 36.6618 16.115 37.5128 16.115C38.3868 16.115 39.1228 15.494 39.1228 14.689V6.57C39.1228 5.765 38.3868 5.144 37.5128 5.144C36.6618 5.144 35.9258 5.788 35.9028 6.57V6.777ZM30.7738 10.641C30.7738 9.215 31.6938 7.927 33.3038 7.927C34.7528 7.927 35.9258 9.215 35.9258 10.641C35.9258 12.067 34.7528 13.355 33.3038 13.355C31.6938 13.355 30.7738 12.067 30.7738 10.641ZM41.8952 5.259C41.2512 5.259 40.7452 5.834 40.7452 6.524C40.7452 7.191 41.2512 7.766 41.8952 7.789H42.7692V14.689C42.7922 15.471 43.5282 16.115 44.3792 16.115C45.2532 16.115 45.9892 15.494 45.9892 14.689V7.789H47.2082C47.8522 7.766 48.3582 7.191 48.3582 6.524C48.3582 5.834 47.8522 5.259 47.2082 5.259H45.9892V2.453C45.9892 1.648 45.2532 1.027 44.3792 1.027C43.5282 1.027 42.7922 1.671 42.7692 2.453V5.259H41.8952Z" fill="black"/>
</svg>
