<svg width="91" height="41" viewBox="0 0 91 41" fill="none" xmlns="http://www.w3.org/2000/svg">
<path d="M23.3642 2.602C23.3642 1.751 22.6052 1.038 21.6852 1.038C20.8112 1.038 20.0292 1.774 20.0062 2.602V7.616H14.3712V2.602C14.3712 1.751 13.6122 1.038 12.6922 1.038C11.8182 1.038 11.0362 1.774 11.0132 2.602V15.551C11.0132 16.379 11.8182 17.115 12.6922 17.115C13.6122 17.115 14.3712 16.402 14.3712 15.551V10.629H20.0062V15.551C20.0062 16.379 20.8112 17.115 21.6852 17.115C22.6052 17.115 23.3642 16.402 23.3642 15.551V2.602ZM28.9909 10.675C29.2669 9.318 30.1869 8.72 31.3829 8.72C32.5789 8.72 33.4759 9.364 33.6369 10.675H28.9909ZM35.4769 14.102C35.0169 13.573 34.1889 13.435 33.4529 13.941C32.7859 14.401 32.2339 14.447 31.5899 14.447C30.4629 14.447 29.1059 13.918 28.9449 12.676H35.8679C36.3739 12.676 36.8569 12.262 36.8569 11.687C36.8569 8.306 34.4189 6.052 31.3599 6.052C28.2779 6.052 25.7479 8.214 25.7479 11.595C25.7479 14.976 28.2779 17.207 31.3599 17.207C32.6249 17.207 33.9819 16.954 35.0629 16.241C35.8449 15.781 36.0749 14.792 35.4769 14.102ZM46.7227 7.777C45.8027 6.351 44.1927 6.052 43.5027 6.052C40.7657 6.052 38.2817 8.053 38.2817 11.618C38.2817 15.183 40.7657 17.207 43.5027 17.207C44.7217 17.207 46.0327 16.609 46.7227 15.482V15.689C46.7457 16.471 47.4817 17.115 48.3327 17.115C49.2067 17.115 49.9427 16.494 49.9427 15.689V7.57C49.9427 6.765 49.2067 6.144 48.3327 6.144C47.4817 6.144 46.7457 6.788 46.7227 7.57V7.777ZM41.5937 11.641C41.5937 10.215 42.5137 8.927 44.1237 8.927C45.5727 8.927 46.7457 10.215 46.7457 11.641C46.7457 13.067 45.5727 14.355 44.1237 14.355C42.5137 14.355 41.5937 13.067 41.5937 11.641ZM52.7151 6.259C52.0711 6.259 51.5651 6.834 51.5651 7.524C51.5651 8.191 52.0711 8.766 52.7151 8.789H53.5891V15.689C53.6121 16.471 54.3481 17.115 55.1991 17.115C56.0731 17.115 56.8091 16.494 56.8091 15.689V8.789H58.0281C58.6721 8.766 59.1781 8.191 59.1781 7.524C59.1781 6.834 58.6721 6.259 58.0281 6.259H56.8091V3.453C56.8091 2.648 56.0731 2.027 55.1991 2.027C54.3481 2.027 53.6121 2.671 53.5891 3.453V6.259H52.7151ZM74.4289 10.008V11.273C74.4289 13.504 72.5889 14.102 71.7149 14.102C70.3579 14.102 69.5529 13.481 69.3229 12.354C69.1849 11.687 69.5069 10.008 71.7149 10.008H74.4289ZM74.4289 1.889C73.5319 1.245 72.3819 0.899999 71.0709 0.968999C68.3569 1.107 66.4479 3.154 66.4479 5.408C66.4479 7.018 67.3219 8.191 68.4489 8.559C66.7239 9.18 65.8269 10.606 65.8269 12.607C65.8269 15.321 68.1729 17.207 71.2319 17.207C72.5659 17.207 74.4749 16.54 75.0729 15.252C75.7169 16.471 77.0509 17.207 78.5689 17.207C79.4659 17.207 80.0179 16.632 80.0179 15.919C80.0179 15.137 79.4429 14.677 78.7299 14.608C77.6489 14.493 77.3959 13.849 77.3959 12.354V10.008H78.1549C78.7989 9.985 79.3509 9.387 79.3509 8.72C79.3509 8.007 78.8219 7.432 78.1549 7.432H77.3959V6.489C77.3729 5.753 76.6829 5.109 75.9239 5.109C75.0959 5.109 74.4289 5.73 74.4289 6.489V7.432H71.8069C69.9669 7.432 69.9669 5.707 69.9669 5.638C69.9669 4.948 70.4959 3.936 71.6689 3.936C71.9909 3.936 72.2209 4.028 72.4509 4.12C73.1869 4.396 74.3829 4.58 74.8659 3.66C75.1189 3.177 75.0729 2.349 74.4289 1.889ZM7.41261 27.12C8.67761 27.12 9.32161 28.362 9.32161 29.351C9.32161 30.386 8.63161 31.582 7.32061 31.582H4.35361V27.12H7.41261ZM0.99561 38.551C0.99561 39.379 1.80061 40.115 2.67461 40.115C3.59461 40.115 4.35361 39.402 4.35361 38.551V34.526H7.48161C11.0926 34.526 12.7026 31.973 12.7026 29.351C12.7026 26.752 11.0926 24.153 7.48161 24.153H2.60561C1.59361 24.153 1.01861 24.935 0.99561 25.878V38.551ZM20.5339 29.052C19.4299 29.052 18.3029 29.742 17.7049 31.743V30.57C17.7049 29.765 16.9689 29.144 16.0949 29.144C15.2439 29.144 14.5079 29.788 14.4849 30.57V38.689C14.5079 39.471 15.2439 40.115 16.0949 40.115C16.9689 40.115 17.7049 39.494 17.7049 38.689V36.044C17.7509 33.353 18.3489 31.973 20.1429 31.973C20.3499 31.973 20.6949 31.996 20.9249 31.996C21.6379 31.996 22.3969 31.628 22.5119 30.823C22.7189 29.305 21.5919 29.052 20.5339 29.052ZM26.4753 33.675C26.7513 32.318 27.6713 31.72 28.8673 31.72C30.0633 31.72 30.9603 32.364 31.1213 33.675H26.4753ZM32.9613 37.102C32.5013 36.573 31.6733 36.435 30.9373 36.941C30.2703 37.401 29.7183 37.447 29.0743 37.447C27.9473 37.447 26.5903 36.918 26.4293 35.676H33.3523C33.8583 35.676 34.3413 35.262 34.3413 34.687C34.3413 31.306 31.9033 29.052 28.8443 29.052C25.7623 29.052 23.2323 31.214 23.2323 34.595C23.2323 37.976 25.7623 40.207 28.8443 40.207C30.1093 40.207 31.4663 39.954 32.5473 39.241C33.3293 38.781 33.5593 37.792 32.9613 37.102ZM35.789 37.93C36.341 39.517 38.365 40.23 40.09 40.23C42.344 40.23 44.736 39.149 44.736 36.872C44.736 36.182 44.414 34.503 41.815 33.652L40.182 33.1C39.538 32.893 39.262 32.686 39.262 32.341C39.262 31.927 39.745 31.697 40.435 31.697C40.849 31.697 41.263 31.835 41.723 32.18C42.39 32.686 43.057 32.847 43.77 32.433C44.253 32.157 44.437 31.49 44.046 30.8C43.31 29.512 41.723 29.029 40.182 29.029C37.928 29.029 36.019 30.501 36.019 32.088C36.019 33.077 35.996 34.595 39.216 35.676L40.435 36.113C41.217 36.366 41.493 36.527 41.493 36.987C41.493 37.539 40.826 37.654 40.113 37.654C39.354 37.654 38.664 37.332 38.089 36.711C37.744 36.297 37.077 35.998 36.364 36.32C35.835 36.55 35.559 37.263 35.789 37.93ZM46.3681 37.93C46.9201 39.517 48.9441 40.23 50.6691 40.23C52.9231 40.23 55.3151 39.149 55.3151 36.872C55.3151 36.182 54.9931 34.503 52.3941 33.652L50.7611 33.1C50.1171 32.893 49.8411 32.686 49.8411 32.341C49.8411 31.927 50.3241 31.697 51.0141 31.697C51.4281 31.697 51.8421 31.835 52.3021 32.18C52.9691 32.686 53.6361 32.847 54.3491 32.433C54.8321 32.157 55.0161 31.49 54.6251 30.8C53.8891 29.512 52.3021 29.029 50.7611 29.029C48.5071 29.029 46.5981 30.501 46.5981 32.088C46.5981 33.077 46.5751 34.595 49.7951 35.676L51.0141 36.113C51.7961 36.366 52.0721 36.527 52.0721 36.987C52.0721 37.539 51.4051 37.654 50.6921 37.654C49.9331 37.654 49.2431 37.332 48.6681 36.711C48.3231 36.297 47.6561 35.998 46.9431 36.32C46.4141 36.55 46.1381 37.263 46.3681 37.93ZM64.4222 38.689C64.4222 39.494 65.1582 40.115 66.0322 40.115C66.8832 40.115 67.6192 39.471 67.6422 38.689V30.57C67.6192 29.788 66.8832 29.144 66.0322 29.144C65.1582 29.144 64.4222 29.765 64.4222 30.57V34.94C64.4222 36.573 63.5712 37.102 62.4442 37.102C61.1102 37.102 60.5812 36.412 60.5812 34.986V30.57C60.5582 29.788 59.8222 29.144 58.9712 29.144C58.0972 29.144 57.3612 29.765 57.3612 30.57V35.952C57.3612 39.011 58.9022 40.207 61.3172 40.207C62.5822 40.207 63.8472 39.517 64.4222 38.436V38.689ZM76.3943 29.052C75.2903 29.052 74.1633 29.742 73.5653 31.743V30.57C73.5653 29.765 72.8293 29.144 71.9553 29.144C71.1043 29.144 70.3683 29.788 70.3453 30.57V38.689C70.3683 39.471 71.1043 40.115 71.9553 40.115C72.8293 40.115 73.5653 39.494 73.5653 38.689V36.044C73.6113 33.353 74.2093 31.973 76.0033 31.973C76.2103 31.973 76.5553 31.996 76.7853 31.996C77.4983 31.996 78.2573 31.628 78.3723 30.823C78.5793 29.305 77.4523 29.052 76.3943 29.052ZM82.3356 33.675C82.6116 32.318 83.5316 31.72 84.7276 31.72C85.9236 31.72 86.8206 32.364 86.9816 33.675H82.3356ZM88.8216 37.102C88.3616 36.573 87.5336 36.435 86.7976 36.941C86.1306 37.401 85.5786 37.447 84.9346 37.447C83.8076 37.447 82.4506 36.918 82.2896 35.676H89.2126C89.7186 35.676 90.2016 35.262 90.2016 34.687C90.2016 31.306 87.7636 29.052 84.7046 29.052C81.6226 29.052 79.0926 31.214 79.0926 34.595C79.0926 37.976 81.6226 40.207 84.7046 40.207C85.9696 40.207 87.3266 39.954 88.4076 39.241C89.1896 38.781 89.4196 37.792 88.8216 37.102Z" fill="black"/>
</svg>
