<svg width="356" height="65" viewBox="0 0 356 65" fill="none" xmlns="http://www.w3.org/2000/svg">
<path d="M3.724 14V0.909H1.767V14H3.724ZM13.5911 6.419C12.9831 5.431 11.7481 4.899 10.5131 4.899C8.11909 4.899 6.12409 6.723 6.12409 9.554C6.12409 12.366 8.11909 14.228 10.5321 14.228C11.7101 14.228 12.9831 13.677 13.5911 12.708V12.936C13.5911 15.748 12.4321 16.812 10.5701 16.812C9.60109 16.812 8.57509 16.261 8.08109 15.311L6.50409 16.09C7.34009 17.667 8.89809 18.541 10.5701 18.541C13.5531 18.541 15.4531 16.907 15.4531 12.784V5.127H13.5911V6.419ZM10.7411 12.48C9.22109 12.48 7.98609 11.188 7.98609 9.535C7.98609 7.863 9.22109 6.647 10.7411 6.647C12.1091 6.647 13.5721 7.749 13.5721 9.535C13.5721 11.321 12.2421 12.48 10.7411 12.48ZM22.9847 4.899C22.0347 4.899 20.6097 5.393 20.0967 6.495V5.127H18.2347V14H20.0967V9.231C20.0967 7.388 21.5027 6.723 22.6617 6.723C23.8017 6.723 24.6757 7.597 24.6757 9.041V14H26.5377V8.927C26.5567 6.4 25.2267 4.899 22.9847 4.899ZM37.6745 9.516C37.6745 6.723 35.7555 4.899 33.2285 4.899C30.7015 4.899 28.6495 6.723 28.6495 9.535C28.6495 12.347 30.6635 14.228 33.2285 14.228C34.9195 14.228 36.5155 13.43 37.2945 11.948L35.8125 11.207C35.3185 12.024 34.3495 12.499 33.3045 12.499C31.8795 12.499 30.8155 11.758 30.5685 10.314H37.6365C37.6555 10.029 37.6745 9.763 37.6745 9.516ZM30.5875 8.813C30.8535 7.331 31.8795 6.628 33.2475 6.628C34.6155 6.628 35.6225 7.426 35.8125 8.813H30.5875ZM43.9359 14.228C46.4629 14.228 48.6099 12.366 48.6099 9.554C48.6099 6.742 46.4629 4.899 43.9359 4.899C41.4089 4.899 39.2809 6.742 39.2809 9.554C39.2809 12.366 41.4089 14.228 43.9359 14.228ZM43.9359 12.48C42.4159 12.48 41.1429 11.283 41.1429 9.554C41.1429 7.844 42.4159 6.647 43.9359 6.647C45.4559 6.647 46.7479 7.844 46.7479 9.554C46.7479 11.283 45.4559 12.48 43.9359 12.48ZM57.1437 9.953C57.1437 11.796 55.7377 12.48 54.5787 12.48C53.4387 12.48 52.5647 11.606 52.5647 10.143V5.127H50.7027V10.2C50.6837 12.727 52.0327 14.228 54.2747 14.228C55.2057 14.228 56.6307 13.734 57.1437 12.651V14H59.0057V5.127H57.1437V9.953ZM64.5185 14.228C66.3425 14.228 68.0145 13.202 68.0145 11.511C68.0145 10.561 67.5965 9.383 65.6965 8.908L64.3475 8.585C63.7965 8.452 63.2835 8.148 63.2835 7.597C63.2835 6.989 63.8155 6.476 64.5945 6.476C65.2595 6.476 65.9245 6.913 65.9245 7.559H67.7105C67.7105 5.697 66.0765 4.899 64.5565 4.899C62.7135 4.899 61.4025 6.096 61.4025 7.54C61.4025 8.851 62.1625 9.706 63.8155 10.143L65.0125 10.428C65.6775 10.58 66.1525 10.884 66.1525 11.473C66.1525 12.138 65.5255 12.651 64.4995 12.651C63.4925 12.651 62.8655 12.043 62.8655 11.34H61.1365C61.1745 13.202 62.8655 14.228 64.5185 14.228ZM79.2892 4.899C78.1492 4.899 77.2562 5.564 76.8002 7.122V5.127H74.9192V14H76.8002V10.808C76.8002 8.414 77.5602 6.685 79.1752 6.685C79.5362 6.685 79.9922 6.761 80.4862 6.989L80.8092 5.222C80.5242 5.051 79.8972 4.899 79.2892 4.899ZM86.1849 14.228C88.7119 14.228 90.8589 12.366 90.8589 9.554C90.8589 6.742 88.7119 4.899 86.1849 4.899C83.6579 4.899 81.5299 6.742 81.5299 9.554C81.5299 12.366 83.6579 14.228 86.1849 14.228ZM86.1849 12.48C84.6649 12.48 83.3919 11.283 83.3919 9.554C83.3919 7.844 84.6649 6.647 86.1849 6.647C87.7049 6.647 88.9969 7.844 88.9969 9.554C88.9969 11.283 87.7049 12.48 86.1849 12.48ZM97.2647 14.228C98.7087 14.228 99.9437 13.639 100.723 12.708L99.4877 11.549C98.9747 12.119 98.1957 12.48 97.3027 12.48C95.6497 12.48 94.3387 11.245 94.3387 9.554C94.3387 7.863 95.6497 6.647 97.3027 6.647C98.1957 6.647 98.9747 7.008 99.4877 7.578L100.723 6.419C99.9437 5.488 98.7087 4.899 97.2647 4.899C94.6997 4.899 92.4767 6.742 92.4767 9.554C92.4767 12.366 94.6997 14.228 97.2647 14.228ZM106.286 8.965L110.029 5.127H107.502L104.595 8.148V0.301H102.733V14H104.595V9.782L108.471 14H110.903L106.286 8.965ZM111.893 17.059C113.413 15.824 114.344 13.753 114.135 11.568H112.121C112.368 13.829 111.722 15.159 110.677 16.641L111.893 17.059ZM125.688 14.228C128.215 14.228 130.362 12.366 130.362 9.554C130.362 6.742 128.215 4.899 125.688 4.899C123.161 4.899 121.033 6.742 121.033 9.554C121.033 12.366 123.161 14.228 125.688 14.228ZM125.688 12.48C124.168 12.48 122.895 11.283 122.895 9.554C122.895 7.844 124.168 6.647 125.688 6.647C127.208 6.647 128.5 7.844 128.5 9.554C128.5 11.283 127.208 12.48 125.688 12.48ZM136.939 4.899C135.799 4.899 134.906 5.564 134.45 7.122V5.127H132.569V14H134.45V10.808C134.45 8.414 135.21 6.685 136.825 6.685C137.186 6.685 137.642 6.761 138.136 6.989L138.459 5.222C138.174 5.051 137.547 4.899 136.939 4.899ZM154.841 4.899C153.948 4.899 152.561 5.222 151.801 6.761C151.269 5.583 150.186 4.899 148.894 4.899C147.678 4.899 146.481 5.545 146.12 6.59V5.127H144.258V14H146.12V9.231C146.12 7.426 147.298 6.685 148.457 6.685C149.559 6.685 150.319 7.578 150.319 9.022V14H152.2V9.573C152.2 7.711 152.96 6.666 154.423 6.685C155.62 6.685 156.38 7.578 156.38 9.022V14H158.261V8.927C158.261 6.4 157.064 4.899 154.841 4.899ZM167.817 6.457C167.247 5.45 166.031 4.899 164.739 4.899C162.231 4.899 160.35 6.913 160.35 9.554C160.35 12.29 162.345 14.228 164.663 14.228C166.031 14.228 167.247 13.525 167.817 12.499V14H169.679V5.127H167.817V6.457ZM164.986 12.48C163.428 12.48 162.231 11.15 162.231 9.554C162.231 7.977 163.428 6.647 164.948 6.647C166.373 6.647 167.798 7.844 167.798 9.554C167.798 11.226 166.468 12.48 164.986 12.48ZM179.396 6.419C178.788 5.431 177.553 4.899 176.318 4.899C173.924 4.899 171.929 6.723 171.929 9.554C171.929 12.366 173.924 14.228 176.337 14.228C177.515 14.228 178.788 13.677 179.396 12.708V12.936C179.396 15.748 178.237 16.812 176.375 16.812C175.406 16.812 174.38 16.261 173.886 15.311L172.309 16.09C173.145 17.667 174.703 18.541 176.375 18.541C179.358 18.541 181.258 16.907 181.258 12.784V5.127H179.396V6.419ZM176.546 12.48C175.026 12.48 173.791 11.188 173.791 9.535C173.791 7.863 175.026 6.647 176.546 6.647C177.914 6.647 179.377 7.749 179.377 9.535C179.377 11.321 178.047 12.48 176.546 12.48ZM194.622 4.899C193.729 4.899 192.342 5.222 191.582 6.761C191.05 5.583 189.967 4.899 188.675 4.899C187.459 4.899 186.262 5.545 185.901 6.59V5.127H184.039V14H185.901V9.231C185.901 7.426 187.079 6.685 188.238 6.685C189.34 6.685 190.1 7.578 190.1 9.022V14H191.981V9.573C191.981 7.711 192.741 6.666 194.204 6.685C195.401 6.685 196.161 7.578 196.161 9.022V14H198.042V8.927C198.042 6.4 196.845 4.899 194.622 4.899ZM207.598 6.457C207.028 5.45 205.812 4.899 204.52 4.899C202.012 4.899 200.131 6.913 200.131 9.554C200.131 12.29 202.126 14.228 204.444 14.228C205.812 14.228 207.028 13.525 207.598 12.499V14H209.46V5.127H207.598V6.457ZM204.767 12.48C203.209 12.48 202.012 11.15 202.012 9.554C202.012 7.977 203.209 6.647 204.729 6.647C206.154 6.647 207.579 7.844 207.579 9.554C207.579 11.226 206.249 12.48 204.767 12.48ZM214.864 5.127V1.802H213.002V5.127H211.406V6.685H213.002V14H214.864V6.685H216.764V5.127H214.864ZM219.464 3.094C220.167 3.094 220.737 2.581 220.737 1.897C220.737 1.213 220.167 0.699999 219.464 0.699999C218.78 0.699999 218.191 1.213 218.191 1.897C218.191 2.581 218.78 3.094 219.464 3.094ZM220.395 14V5.127H218.533V14H220.395ZM227.389 14.228C228.833 14.228 230.068 13.639 230.847 12.708L229.612 11.549C229.099 12.119 228.32 12.48 227.427 12.48C225.774 12.48 224.463 11.245 224.463 9.554C224.463 7.863 225.774 6.647 227.427 6.647C228.32 6.647 229.099 7.008 229.612 7.578L230.847 6.419C230.068 5.488 228.833 4.899 227.389 4.899C224.824 4.899 222.601 6.742 222.601 9.554C222.601 12.366 224.824 14.228 227.389 14.228ZM241.958 4.899C240.818 4.899 239.925 5.564 239.469 7.122V5.127H237.588V14H239.469V10.808C239.469 8.414 240.229 6.685 241.844 6.685C242.205 6.685 242.661 6.761 243.155 6.989L243.478 5.222C243.193 5.051 242.566 4.899 241.958 4.899ZM248.854 14.228C251.381 14.228 253.528 12.366 253.528 9.554C253.528 6.742 251.381 4.899 248.854 4.899C246.327 4.899 244.199 6.742 244.199 9.554C244.199 12.366 246.327 14.228 248.854 14.228ZM248.854 12.48C247.334 12.48 246.061 11.283 246.061 9.554C246.061 7.844 247.334 6.647 248.854 6.647C250.374 6.647 251.666 7.844 251.666 9.554C251.666 11.283 250.374 12.48 248.854 12.48ZM259.934 14.228C261.378 14.228 262.613 13.639 263.392 12.708L262.157 11.549C261.644 12.119 260.865 12.48 259.972 12.48C258.319 12.48 257.008 11.245 257.008 9.554C257.008 7.863 258.319 6.647 259.972 6.647C260.865 6.647 261.644 7.008 262.157 7.578L263.392 6.419C262.613 5.488 261.378 4.899 259.934 4.899C257.369 4.899 255.146 6.742 255.146 9.554C255.146 12.366 257.369 14.228 259.934 14.228ZM268.955 8.965L272.698 5.127H270.171L267.264 8.148V0.301H265.402V14H267.264V9.782L271.14 14H273.572L268.955 8.965ZM274.562 17.059C276.082 15.824 277.013 13.753 276.804 11.568H274.79C275.037 13.829 274.391 15.159 273.346 16.641L274.562 17.059ZM285.203 3.094C285.906 3.094 286.476 2.581 286.476 1.897C286.476 1.213 285.906 0.699999 285.203 0.699999C284.519 0.699999 283.93 1.213 283.93 1.897C283.93 2.581 284.519 3.094 285.203 3.094ZM286.134 14V5.127H284.272V14H286.134ZM291.665 14.228C293.489 14.228 295.161 13.202 295.161 11.511C295.161 10.561 294.743 9.383 292.843 8.908L291.494 8.585C290.943 8.452 290.43 8.148 290.43 7.597C290.43 6.989 290.962 6.476 291.741 6.476C292.406 6.476 293.071 6.913 293.071 7.559H294.857C294.857 5.697 293.223 4.899 291.703 4.899C289.86 4.899 288.549 6.096 288.549 7.54C288.549 8.851 289.309 9.706 290.962 10.143L292.159 10.428C292.824 10.58 293.299 10.884 293.299 11.473C293.299 12.138 292.672 12.651 291.646 12.651C290.639 12.651 290.012 12.043 290.012 11.34H288.283C288.321 13.202 290.012 14.228 291.665 14.228ZM306.151 14.228C308.678 14.228 310.825 12.366 310.825 9.554C310.825 6.742 308.678 4.899 306.151 4.899C303.624 4.899 301.496 6.742 301.496 9.554C301.496 12.366 303.624 14.228 306.151 14.228ZM306.151 12.48C304.631 12.48 303.358 11.283 303.358 9.554C303.358 7.844 304.631 6.647 306.151 6.647C307.671 6.647 308.963 7.844 308.963 9.554C308.963 11.283 307.671 12.48 306.151 12.48ZM317.782 4.899C316.832 4.899 315.407 5.393 314.894 6.495V5.127H313.032V14H314.894V9.231C314.894 7.388 316.3 6.723 317.459 6.723C318.599 6.723 319.473 7.597 319.473 9.041V14H321.335V8.927C321.354 6.4 320.024 4.899 317.782 4.899ZM332.471 9.516C332.471 6.723 330.552 4.899 328.025 4.899C325.498 4.899 323.446 6.723 323.446 9.535C323.446 12.347 325.46 14.228 328.025 14.228C329.716 14.228 331.312 13.43 332.091 11.948L330.609 11.207C330.115 12.024 329.146 12.499 328.101 12.499C326.676 12.499 325.612 11.758 325.365 10.314H332.433C332.452 10.029 332.471 9.763 332.471 9.516ZM325.384 8.813C325.65 7.331 326.676 6.628 328.044 6.628C329.412 6.628 330.419 7.426 330.609 8.813H325.384ZM343.464 14.228C345.991 14.228 348.138 12.366 348.138 9.554C348.138 6.742 345.991 4.899 343.464 4.899C340.937 4.899 338.809 6.742 338.809 9.554C338.809 12.366 340.937 14.228 343.464 14.228ZM343.464 12.48C341.944 12.48 340.671 11.283 340.671 9.554C340.671 7.844 341.944 6.647 343.464 6.647C344.984 6.647 346.276 7.844 346.276 9.554C346.276 11.283 344.984 12.48 343.464 12.48ZM355.403 2.049V0.301H354.415C352.002 0.301 350.957 1.878 350.957 4.291V5.127H349.247V6.685H350.957V14H352.819V6.685H354.852V5.127H352.819V4.082C352.8 2.961 353.218 2.049 354.757 2.049H355.403ZM3.99 28.127V24.802H2.128V28.127H0.532V29.685H2.128V37H3.99V29.685H5.89V28.127H3.99ZM12.4085 27.899C11.4585 27.899 10.0335 28.393 9.52048 29.476V23.301H7.65848V37H9.52048V32.231C9.52048 30.407 10.9265 29.723 12.0855 29.723C13.2255 29.723 14.0995 30.597 14.0995 32.041V37H15.9615V31.927C15.9805 29.4 14.6505 27.899 12.4085 27.899ZM27.0983 32.516C27.0983 29.723 25.1793 27.899 22.6523 27.899C20.1253 27.899 18.0733 29.723 18.0733 32.535C18.0733 35.347 20.0873 37.228 22.6523 37.228C24.3433 37.228 25.9393 36.43 26.7183 34.948L25.2363 34.207C24.7423 35.024 23.7733 35.499 22.7283 35.499C21.3033 35.499 20.2393 34.758 19.9923 33.314H27.0603C27.0793 33.029 27.0983 32.763 27.0983 32.516ZM20.0113 31.813C20.2773 30.331 21.3033 29.628 22.6713 29.628C24.0393 29.628 25.0463 30.426 25.2363 31.813H20.0113ZM36.6091 28.127V24.802H34.7471V28.127H33.1511V29.685H34.7471V37H36.6091V29.685H38.5091V28.127H36.6091ZM45.0276 27.899C44.0776 27.899 42.6526 28.393 42.1396 29.476V23.301H40.2776V37H42.1396V32.231C42.1396 30.407 43.5456 29.723 44.7046 29.723C45.8446 29.723 46.7186 30.597 46.7186 32.041V37H48.5806V31.927C48.5996 29.4 47.2696 27.899 45.0276 27.899ZM55.6134 27.899C54.4734 27.899 53.5804 28.564 53.1244 30.122V28.127H51.2434V37H53.1244V33.808C53.1244 31.414 53.8844 29.685 55.4994 29.685C55.8604 29.685 56.3164 29.761 56.8104 29.989L57.1334 28.222C56.8484 28.051 56.2214 27.899 55.6134 27.899ZM66.8981 32.516C66.8981 29.723 64.9791 27.899 62.4521 27.899C59.9251 27.899 57.8731 29.723 57.8731 32.535C57.8731 35.347 59.8871 37.228 62.4521 37.228C64.1431 37.228 65.7391 36.43 66.5181 34.948L65.0361 34.207C64.5421 35.024 63.5731 35.499 62.5281 35.499C61.1031 35.499 60.0391 34.758 59.7921 33.314H66.8601C66.8791 33.029 66.8981 32.763 66.8981 32.516ZM59.8111 31.813C60.0771 30.331 61.1031 29.628 62.4711 29.628C63.8391 29.628 64.8461 30.426 65.0361 31.813H59.8111ZM77.5485 32.516C77.5485 29.723 75.6295 27.899 73.1025 27.899C70.5755 27.899 68.5235 29.723 68.5235 32.535C68.5235 35.347 70.5375 37.228 73.1025 37.228C74.7935 37.228 76.3895 36.43 77.1685 34.948L75.6865 34.207C75.1925 35.024 74.2235 35.499 73.1785 35.499C71.7535 35.499 70.6895 34.758 70.4425 33.314H77.5105C77.5295 33.029 77.5485 32.763 77.5485 32.516ZM70.4615 31.813C70.7275 30.331 71.7535 29.628 73.1215 29.628C74.4895 29.628 75.4965 30.426 75.6865 31.813H70.4615ZM95.0393 27.899C94.1463 27.899 92.7593 28.222 91.9993 29.761C91.4673 28.583 90.3843 27.899 89.0923 27.899C87.8763 27.899 86.6793 28.545 86.3183 29.59V28.127H84.4563V37H86.3183V32.231C86.3183 30.426 87.4963 29.685 88.6553 29.685C89.7573 29.685 90.5173 30.578 90.5173 32.022V37H92.3983V32.573C92.3983 30.711 93.1583 29.666 94.6213 29.685C95.8183 29.685 96.5783 30.578 96.5783 32.022V37H98.4593V31.927C98.4593 29.4 97.2623 27.899 95.0393 27.899ZM108.015 29.457C107.445 28.45 106.229 27.899 104.937 27.899C102.429 27.899 100.548 29.913 100.548 32.554C100.548 35.29 102.543 37.228 104.861 37.228C106.229 37.228 107.445 36.525 108.015 35.499V37H109.877V28.127H108.015V29.457ZM105.184 35.48C103.626 35.48 102.429 34.15 102.429 32.554C102.429 30.977 103.626 29.647 105.146 29.647C106.571 29.647 107.996 30.844 107.996 32.554C107.996 34.226 106.666 35.48 105.184 35.48ZM113.609 26.094C114.312 26.094 114.882 25.581 114.882 24.897C114.882 24.213 114.312 23.7 113.609 23.7C112.925 23.7 112.336 24.213 112.336 24.897C112.336 25.581 112.925 26.094 113.609 26.094ZM114.54 37V28.127H112.678V37H114.54ZM122.085 27.899C121.135 27.899 119.71 28.393 119.197 29.495V28.127H117.335V37H119.197V32.231C119.197 30.388 120.603 29.723 121.762 29.723C122.902 29.723 123.776 30.597 123.776 32.041V37H125.638V31.927C125.657 29.4 124.327 27.899 122.085 27.899ZM137.403 27.899C136.263 27.899 135.37 28.564 134.914 30.122V28.127H133.033V37H134.914V33.808C134.914 31.414 135.674 29.685 137.289 29.685C137.65 29.685 138.106 29.761 138.6 29.989L138.923 28.222C138.638 28.051 138.011 27.899 137.403 27.899ZM144.298 37.228C146.825 37.228 148.972 35.366 148.972 32.554C148.972 29.742 146.825 27.899 144.298 27.899C141.771 27.899 139.643 29.742 139.643 32.554C139.643 35.366 141.771 37.228 144.298 37.228ZM144.298 35.48C142.778 35.48 141.505 34.283 141.505 32.554C141.505 30.844 142.778 29.647 144.298 29.647C145.818 29.647 147.11 30.844 147.11 32.554C147.11 34.283 145.818 35.48 144.298 35.48ZM155.378 37.228C156.822 37.228 158.057 36.639 158.836 35.708L157.601 34.549C157.088 35.119 156.309 35.48 155.416 35.48C153.763 35.48 152.452 34.245 152.452 32.554C152.452 30.863 153.763 29.647 155.416 29.647C156.309 29.647 157.088 30.008 157.601 30.578L158.836 29.419C158.057 28.488 156.822 27.899 155.378 27.899C152.813 27.899 150.59 29.742 150.59 32.554C150.59 35.366 152.813 37.228 155.378 37.228ZM164.399 31.965L168.142 28.127H165.615L162.708 31.148V23.301H160.846V37H162.708V32.782L166.584 37H169.016L164.399 31.965ZM177.217 28.127V24.802H175.355V28.127H173.759V29.685H175.355V37H177.217V29.685H179.117V28.127H177.217ZM184.324 34.302L181.778 28.127H179.764L183.317 36.601L181.398 41.313H183.374L188.884 28.127H186.87L184.324 34.302ZM195.399 27.899C194.202 27.899 192.91 28.45 192.321 29.457V28.127H190.459V41.313H192.321V35.689C192.91 36.696 194.145 37.228 195.399 37.228C197.812 37.228 199.807 35.404 199.807 32.573C199.807 29.761 197.793 27.899 195.399 27.899ZM195.171 35.48C193.803 35.48 192.34 34.378 192.34 32.592C192.34 30.806 193.689 29.647 195.171 29.647C196.71 29.647 197.926 30.92 197.926 32.592C197.926 34.264 196.71 35.48 195.171 35.48ZM210.493 32.516C210.493 29.723 208.574 27.899 206.047 27.899C203.52 27.899 201.468 29.723 201.468 32.535C201.468 35.347 203.482 37.228 206.047 37.228C207.738 37.228 209.334 36.43 210.113 34.948L208.631 34.207C208.137 35.024 207.168 35.499 206.123 35.499C204.698 35.499 203.634 34.758 203.387 33.314H210.455C210.474 33.029 210.493 32.763 210.493 32.516ZM203.406 31.813C203.672 30.331 204.698 29.628 206.066 29.628C207.434 29.628 208.441 30.426 208.631 31.813H203.406ZM215.405 37.228C217.229 37.228 218.901 36.202 218.901 34.511C218.901 33.561 218.483 32.383 216.583 31.908L215.234 31.585C214.683 31.452 214.17 31.148 214.17 30.597C214.17 29.989 214.702 29.476 215.481 29.476C216.146 29.476 216.811 29.913 216.811 30.559H218.597C218.597 28.697 216.963 27.899 215.443 27.899C213.6 27.899 212.289 29.096 212.289 30.54C212.289 31.851 213.049 32.706 214.702 33.143L215.899 33.428C216.564 33.58 217.039 33.884 217.039 34.473C217.039 35.138 216.412 35.651 215.386 35.651C214.379 35.651 213.752 35.043 213.752 34.34H212.023C212.061 36.202 213.752 37.228 215.405 37.228ZM220.847 40.059C222.367 38.824 223.298 36.753 223.089 34.568H221.075C221.322 36.829 220.676 38.159 219.63 39.641L220.847 40.059ZM233.159 28.127V24.802H231.297V28.127H229.701V29.685H231.297V37H233.159V29.685H235.059V28.127H233.159ZM241.577 27.899C240.627 27.899 239.202 28.393 238.689 29.476V23.301H236.827V37H238.689V32.231C238.689 30.407 240.095 29.723 241.254 29.723C242.394 29.723 243.268 30.597 243.268 32.041V37H245.13V31.927C245.149 29.4 243.819 27.899 241.577 27.899ZM256.267 32.516C256.267 29.723 254.348 27.899 251.821 27.899C249.294 27.899 247.242 29.723 247.242 32.535C247.242 35.347 249.256 37.228 251.821 37.228C253.512 37.228 255.108 36.43 255.887 34.948L254.405 34.207C253.911 35.024 252.942 35.499 251.897 35.499C250.472 35.499 249.408 34.758 249.161 33.314H256.229C256.248 33.029 256.267 32.763 256.267 32.516ZM249.18 31.813C249.446 30.331 250.472 29.628 251.84 29.628C253.208 29.628 254.215 30.426 254.405 31.813H249.18ZM267.26 37.228C269.787 37.228 271.934 35.366 271.934 32.554C271.934 29.742 269.787 27.899 267.26 27.899C264.733 27.899 262.605 29.742 262.605 32.554C262.605 35.366 264.733 37.228 267.26 37.228ZM267.26 35.48C265.74 35.48 264.467 34.283 264.467 32.554C264.467 30.844 265.74 29.647 267.26 29.647C268.78 29.647 270.072 30.844 270.072 32.554C270.072 34.283 268.78 35.48 267.26 35.48ZM276.577 28.127V24.802H274.715V28.127H273.119V29.685H274.715V37H276.577V29.685H278.477V28.127H276.577ZM284.995 27.899C284.045 27.899 282.62 28.393 282.107 29.476V23.301H280.245V37H282.107V32.231C282.107 30.407 283.513 29.723 284.672 29.723C285.812 29.723 286.686 30.597 286.686 32.041V37H288.548V31.927C288.567 29.4 287.237 27.899 284.995 27.899ZM299.685 32.516C299.685 29.723 297.766 27.899 295.239 27.899C292.712 27.899 290.66 29.723 290.66 32.535C290.66 35.347 292.674 37.228 295.239 37.228C296.93 37.228 298.526 36.43 299.305 34.948L297.823 34.207C297.329 35.024 296.36 35.499 295.315 35.499C293.89 35.499 292.826 34.758 292.579 33.314H299.647C299.666 33.029 299.685 32.763 299.685 32.516ZM292.598 31.813C292.864 30.331 293.89 29.628 295.258 29.628C296.626 29.628 297.633 30.426 297.823 31.813H292.598ZM306.232 27.899C305.092 27.899 304.199 28.564 303.743 30.122V28.127H301.862V37H303.743V33.808C303.743 31.414 304.503 29.685 306.118 29.685C306.479 29.685 306.935 29.761 307.429 29.989L307.752 28.222C307.467 28.051 306.84 27.899 306.232 27.899ZM311.945 37.228C313.769 37.228 315.441 36.202 315.441 34.511C315.441 33.561 315.023 32.383 313.123 31.908L311.774 31.585C311.223 31.452 310.71 31.148 310.71 30.597C310.71 29.989 311.242 29.476 312.021 29.476C312.686 29.476 313.351 29.913 313.351 30.559H315.137C315.137 28.697 313.503 27.899 311.983 27.899C310.14 27.899 308.829 29.096 308.829 30.54C308.829 31.851 309.589 32.706 311.242 33.143L312.439 33.428C313.104 33.58 313.579 33.884 313.579 34.473C313.579 35.138 312.952 35.651 311.926 35.651C310.919 35.651 310.292 35.043 310.292 34.34H308.563C308.601 36.202 310.292 37.228 311.945 37.228ZM6.327 50.899C5.073 50.899 3.838 51.431 3.249 52.438V46.301H1.387V60H3.249V58.67C3.838 59.677 5.13 60.228 6.327 60.228C8.721 60.228 10.735 58.366 10.735 55.554C10.735 52.723 8.74 50.899 6.327 50.899ZM6.099 58.48C4.617 58.48 3.268 57.321 3.268 55.535C3.268 53.749 4.731 52.647 6.099 52.647C7.638 52.647 8.854 53.863 8.854 55.535C8.854 57.188 7.638 58.48 6.099 58.48ZM21.4206 55.516C21.4206 52.723 19.5016 50.899 16.9746 50.899C14.4476 50.899 12.3956 52.723 12.3956 55.535C12.3956 58.347 14.4096 60.228 16.9746 60.228C18.6656 60.228 20.2616 59.43 21.0406 57.948L19.5586 57.207C19.0646 58.024 18.0956 58.499 17.0506 58.499C15.6256 58.499 14.5616 57.758 14.3146 56.314H21.3826C21.4016 56.029 21.4206 55.763 21.4206 55.516ZM14.3336 54.813C14.5996 53.331 15.6256 52.628 16.9936 52.628C18.3616 52.628 19.3686 53.426 19.5586 54.813H14.3336ZM24.528 49.094C25.231 49.094 25.801 48.581 25.801 47.897C25.801 47.213 25.231 46.7 24.528 46.7C23.844 46.7 23.255 47.213 23.255 47.897C23.255 48.581 23.844 49.094 24.528 49.094ZM25.459 60V51.127H23.597V60H25.459ZM33.0042 50.899C32.0542 50.899 30.6292 51.393 30.1162 52.495V51.127H28.2542V60H30.1162V55.231C30.1162 53.388 31.5222 52.723 32.6812 52.723C33.8212 52.723 34.6952 53.597 34.6952 55.041V60H36.5572V54.927C36.5762 52.4 35.2462 50.899 33.0042 50.899ZM46.136 52.419C45.528 51.431 44.293 50.899 43.058 50.899C40.664 50.899 38.669 52.723 38.669 55.554C38.669 58.366 40.664 60.228 43.077 60.228C44.255 60.228 45.528 59.677 46.136 58.708V58.936C46.136 61.748 44.977 62.812 43.115 62.812C42.146 62.812 41.12 62.261 40.626 61.311L39.049 62.09C39.885 63.667 41.443 64.541 43.115 64.541C46.098 64.541 47.998 62.907 47.998 58.784V51.127H46.136V52.419ZM43.286 58.48C41.766 58.48 40.531 57.188 40.531 55.535C40.531 53.863 41.766 52.647 43.286 52.647C44.654 52.647 46.117 53.749 46.117 55.535C46.117 57.321 44.787 58.48 43.286 58.48ZM58.247 60.228C60.071 60.228 61.743 59.202 61.743 57.511C61.743 56.561 61.325 55.383 59.425 54.908L58.076 54.585C57.525 54.452 57.012 54.148 57.012 53.597C57.012 52.989 57.544 52.476 58.323 52.476C58.988 52.476 59.653 52.913 59.653 53.559H61.439C61.439 51.697 59.805 50.899 58.285 50.899C56.442 50.899 55.131 52.096 55.131 53.54C55.131 54.851 55.891 55.706 57.544 56.143L58.741 56.428C59.406 56.58 59.881 56.884 59.881 57.473C59.881 58.138 59.254 58.651 58.228 58.651C57.221 58.651 56.594 58.043 56.594 57.34H54.865C54.903 59.202 56.594 60.228 58.247 60.228ZM72.3903 55.516C72.3903 52.723 70.4713 50.899 67.9443 50.899C65.4173 50.899 63.3653 52.723 63.3653 55.535C63.3653 58.347 65.3793 60.228 67.9443 60.228C69.6353 60.228 71.2313 59.43 72.0103 57.948L70.5283 57.207C70.0343 58.024 69.0653 58.499 68.0203 58.499C66.5953 58.499 65.5313 57.758 65.2843 56.314H72.3523C72.3713 56.029 72.3903 55.763 72.3903 55.516ZM65.3033 54.813C65.5693 53.331 66.5953 52.628 67.9633 52.628C69.3313 52.628 70.3383 53.426 70.5283 54.813H65.3033ZM81.4827 52.438C80.8937 51.431 79.6587 50.899 78.4047 50.899C76.0107 50.899 74.0157 52.723 74.0157 55.554C74.0157 58.366 76.0107 60.228 78.4237 60.228C79.6207 60.228 80.8937 59.677 81.4827 58.67V60H83.3447V46.301H81.4827V52.438ZM78.6327 58.48C77.1127 58.48 75.8777 57.188 75.8777 55.535C75.8777 53.863 77.1127 52.647 78.6327 52.647C80.0007 52.647 81.4637 53.749 81.4637 55.535C81.4637 57.321 80.1337 58.48 78.6327 58.48ZM87.0573 49.094C87.7603 49.094 88.3303 48.581 88.3303 47.897C88.3303 47.213 87.7603 46.7 87.0573 46.7C86.3733 46.7 85.7843 47.213 85.7843 47.897C85.7843 48.581 86.3733 49.094 87.0573 49.094ZM87.9883 60V51.127H86.1263V60H87.9883ZM101.366 50.899C100.473 50.899 99.0865 51.222 98.3265 52.761C97.7945 51.583 96.7115 50.899 95.4195 50.899C94.2035 50.899 93.0065 51.545 92.6455 52.59V51.127H90.7835V60H92.6455V55.231C92.6455 53.426 93.8235 52.685 94.9825 52.685C96.0845 52.685 96.8445 53.578 96.8445 55.022V60H98.7255V55.573C98.7255 53.711 99.4855 52.666 100.948 52.685C102.145 52.685 102.905 53.578 102.905 55.022V60H104.786V54.927C104.786 52.4 103.589 50.899 101.366 50.899ZM115.92 55.516C115.92 52.723 114.001 50.899 111.474 50.899C108.947 50.899 106.895 52.723 106.895 55.535C106.895 58.347 108.909 60.228 111.474 60.228C113.165 60.228 114.761 59.43 115.54 57.948L114.058 57.207C113.564 58.024 112.595 58.499 111.55 58.499C110.125 58.499 109.061 57.758 108.814 56.314H115.882C115.901 56.029 115.92 55.763 115.92 55.516ZM108.833 54.813C109.099 53.331 110.125 52.628 111.493 52.628C112.861 52.628 113.868 53.426 114.058 54.813H108.833ZM122.846 50.899C121.896 50.899 120.471 51.393 119.958 52.495V51.127H118.096V60H119.958V55.231C119.958 53.388 121.364 52.723 122.523 52.723C123.663 52.723 124.537 53.597 124.537 55.041V60H126.399V54.927C126.418 52.4 125.088 50.899 122.846 50.899ZM131.553 51.127V47.802H129.691V51.127H128.095V52.685H129.691V60H131.553V52.685H133.453V51.127H131.553ZM141.933 52.457C141.363 51.45 140.147 50.899 138.855 50.899C136.347 50.899 134.466 52.913 134.466 55.554C134.466 58.29 136.461 60.228 138.779 60.228C140.147 60.228 141.363 59.525 141.933 58.499V60H143.795V51.127H141.933V52.457ZM139.102 58.48C137.544 58.48 136.347 57.15 136.347 55.554C136.347 53.977 137.544 52.647 139.064 52.647C140.489 52.647 141.914 53.844 141.914 55.554C141.914 57.226 140.584 58.48 139.102 58.48ZM150.966 50.899C149.826 50.899 148.933 51.564 148.477 53.122V51.127H146.596V60H148.477V56.808C148.477 54.414 149.237 52.685 150.852 52.685C151.213 52.685 151.669 52.761 152.163 52.989L152.486 51.222C152.201 51.051 151.574 50.899 150.966 50.899ZM157.494 57.302L154.948 51.127H152.934L156.487 59.601L154.568 64.313H156.544L162.054 51.127H160.04L157.494 57.302ZM175.221 52.457C174.651 51.45 173.435 50.899 172.143 50.899C169.635 50.899 167.754 52.913 167.754 55.554C167.754 58.29 169.749 60.228 172.067 60.228C173.435 60.228 174.651 59.525 175.221 58.499V60H177.083V51.127H175.221V52.457ZM172.39 58.48C170.832 58.48 169.635 57.15 169.635 55.554C169.635 53.977 170.832 52.647 172.352 52.647C173.777 52.647 175.202 53.844 175.202 55.554C175.202 57.226 173.872 58.48 172.39 58.48ZM184.633 50.899C183.683 50.899 182.258 51.393 181.745 52.495V51.127H179.883V60H181.745V55.231C181.745 53.388 183.151 52.723 184.31 52.723C185.45 52.723 186.324 53.597 186.324 55.041V60H188.186V54.927C188.205 52.4 186.875 50.899 184.633 50.899ZM197.765 52.438C197.176 51.431 195.941 50.899 194.687 50.899C192.293 50.899 190.298 52.723 190.298 55.554C190.298 58.366 192.293 60.228 194.706 60.228C195.903 60.228 197.176 59.677 197.765 58.67V60H199.627V46.301H197.765V52.438ZM194.915 58.48C193.395 58.48 192.16 57.188 192.16 55.535C192.16 53.863 193.395 52.647 194.915 52.647C196.283 52.647 197.746 53.749 197.746 55.535C197.746 57.321 196.416 58.48 194.915 58.48ZM217.723 50.899C216.83 50.899 215.443 51.222 214.683 52.761C214.151 51.583 213.068 50.899 211.776 50.899C210.56 50.899 209.363 51.545 209.002 52.59V51.127H207.14V60H209.002V55.231C209.002 53.426 210.18 52.685 211.339 52.685C212.441 52.685 213.201 53.578 213.201 55.022V60H215.082V55.573C215.082 53.711 215.842 52.666 217.305 52.685C218.502 52.685 219.262 53.578 219.262 55.022V60H221.143V54.927C221.143 52.4 219.946 50.899 217.723 50.899ZM232.276 55.516C232.276 52.723 230.357 50.899 227.83 50.899C225.303 50.899 223.251 52.723 223.251 55.535C223.251 58.347 225.265 60.228 227.83 60.228C229.521 60.228 231.117 59.43 231.896 57.948L230.414 57.207C229.92 58.024 228.951 58.499 227.906 58.499C226.481 58.499 225.417 57.758 225.17 56.314H232.238C232.257 56.029 232.276 55.763 232.276 55.516ZM225.189 54.813C225.455 53.331 226.481 52.628 227.849 52.628C229.217 52.628 230.224 53.426 230.414 54.813H225.189ZM236.926 51.127V47.802H235.064V51.127H233.468V52.685H235.064V60H236.926V52.685H238.826V51.127H236.926ZM247.305 52.457C246.735 51.45 245.519 50.899 244.227 50.899C241.719 50.899 239.838 52.913 239.838 55.554C239.838 58.29 241.833 60.228 244.151 60.228C245.519 60.228 246.735 59.525 247.305 58.499V60H249.167V51.127H247.305V52.457ZM244.474 58.48C242.916 58.48 241.719 57.15 241.719 55.554C241.719 53.977 242.916 52.647 244.436 52.647C245.861 52.647 247.286 53.844 247.286 55.554C247.286 57.226 245.956 58.48 244.474 58.48ZM262.551 50.899C261.658 50.899 260.271 51.222 259.511 52.761C258.979 51.583 257.896 50.899 256.604 50.899C255.388 50.899 254.191 51.545 253.83 52.59V51.127H251.968V60H253.83V55.231C253.83 53.426 255.008 52.685 256.167 52.685C257.269 52.685 258.029 53.578 258.029 55.022V60H259.91V55.573C259.91 53.711 260.67 52.666 262.133 52.685C263.33 52.685 264.09 53.578 264.09 55.022V60H265.971V54.927C265.971 52.4 264.774 50.899 262.551 50.899ZM272.715 60.228C275.242 60.228 277.389 58.366 277.389 55.554C277.389 52.742 275.242 50.899 272.715 50.899C270.188 50.899 268.06 52.742 268.06 55.554C268.06 58.366 270.188 60.228 272.715 60.228ZM272.715 58.48C271.195 58.48 269.922 57.283 269.922 55.554C269.922 53.844 271.195 52.647 272.715 52.647C274.235 52.647 275.527 53.844 275.527 55.554C275.527 57.283 274.235 58.48 272.715 58.48ZM283.966 50.899C282.826 50.899 281.933 51.564 281.477 53.122V51.127H279.596V60H281.477V56.808C281.477 54.414 282.237 52.685 283.852 52.685C284.213 52.685 284.669 52.761 285.163 52.989L285.486 51.222C285.201 51.051 284.574 50.899 283.966 50.899ZM291.995 50.899C290.798 50.899 289.506 51.45 288.917 52.457V51.127H287.055V64.313H288.917V58.689C289.506 59.696 290.741 60.228 291.995 60.228C294.408 60.228 296.403 58.404 296.403 55.573C296.403 52.761 294.389 50.899 291.995 50.899ZM291.767 58.48C290.399 58.48 288.936 57.378 288.936 55.592C288.936 53.806 290.285 52.647 291.767 52.647C293.306 52.647 294.522 53.92 294.522 55.592C294.522 57.264 293.306 58.48 291.767 58.48ZM303.365 50.899C302.415 50.899 300.99 51.393 300.477 52.476V46.301H298.615V60H300.477V55.231C300.477 53.407 301.883 52.723 303.042 52.723C304.182 52.723 305.056 53.597 305.056 55.041V60H306.918V54.927C306.937 52.4 305.607 50.899 303.365 50.899ZM310.511 49.094C311.214 49.094 311.784 48.581 311.784 47.897C311.784 47.213 311.214 46.7 310.511 46.7C309.827 46.7 309.238 47.213 309.238 47.897C309.238 48.581 309.827 49.094 310.511 49.094ZM311.442 60V51.127H309.58V60H311.442ZM318.437 60.228C319.881 60.228 321.116 59.639 321.895 58.708L320.66 57.549C320.147 58.119 319.368 58.48 318.475 58.48C316.822 58.48 315.511 57.245 315.511 55.554C315.511 53.863 316.822 52.647 318.475 52.647C319.368 52.647 320.147 53.008 320.66 53.578L321.895 52.419C321.116 51.488 319.881 50.899 318.437 50.899C315.872 50.899 313.649 52.742 313.649 55.554C313.649 58.366 315.872 60.228 318.437 60.228ZM324.874 60.19C325.596 60.19 326.204 59.658 326.204 58.936C326.204 58.214 325.596 57.682 324.874 57.682C324.171 57.682 323.563 58.214 323.563 58.936C323.563 59.658 324.171 60.19 324.874 60.19Z" fill="black"/>
</svg>
