<svg width="177" height="30" viewBox="0 0 177 30" fill="none" xmlns="http://www.w3.org/2000/svg">
<path d="M4.12566 2.8C4.12566 1.93 3.40566 1.18 2.47566 1.18C1.63566 1.18 0.945664 1.93 0.945664 2.8V20.53C0.945664 21.4 1.63566 22.15 2.47566 22.15C3.40566 22.15 4.12566 21.4 4.12566 20.53V2.8ZM19.5595 15.01C19.5595 17.74 17.3395 19.33 15.2395 19.33C12.8995 19.33 10.9795 17.65 10.9795 15.01C10.9795 12.46 12.8995 10.69 15.2395 10.69C17.5495 10.69 19.5595 12.22 19.5595 15.01ZM11.5495 24.7C11.0095 24.1 10.1695 23.95 9.50949 24.4C8.87949 24.85 8.78949 25.78 9.26949 26.41C10.6795 28.15 12.6895 29.11 14.9395 29.11C19.6495 29.11 22.6495 26.5 22.6795 20.05L22.7095 9.4C22.7095 8.56 22.0195 7.84 21.1195 7.84C20.2795 7.84 19.6195 8.56 19.6195 9.4V10.06C18.7495 8.53 16.7695 7.69 14.8795 7.69C11.0995 7.69 7.79949 10.57 7.79949 15.04C7.79949 19.48 11.0995 22.3 14.8795 22.3C16.7695 22.3 18.8695 21.4 19.6195 19.69C19.6195 19.93 19.6195 20.47 19.6195 20.71C19.6195 24.64 17.7895 26.23 14.9395 26.23C13.7095 26.23 12.3895 25.63 11.5495 24.7ZM26.8893 20.59C26.8893 21.43 27.5493 22.15 28.3893 22.15C29.2893 22.15 29.9793 21.43 29.9793 20.59V14.47C29.9793 11.71 31.7493 10.72 33.5793 10.72C35.3793 10.72 36.5193 11.98 36.5193 14.2V20.59C36.5193 21.43 37.1793 22.15 38.0193 22.15C38.9193 22.15 39.6093 21.43 39.6093 20.59V13.84C39.6093 9.88 37.6593 7.69 34.2693 7.69C32.7093 7.69 30.7893 8.47 29.9793 10.09V9.4C29.9793 8.56 29.3193 7.84 28.4793 7.84C27.5793 7.84 26.8893 8.56 26.8893 9.4V20.59ZM45.8979 13.84C46.1979 11.68 47.8779 10.39 50.0379 10.39C52.1379 10.39 53.7279 11.65 54.0279 13.84H45.8979ZM57.0579 14.68C56.9379 10.39 53.9379 7.69 50.0379 7.69C46.0479 7.69 42.8379 10.51 42.8379 14.95C42.8379 19.39 46.0479 22.3 50.0379 22.3C52.1079 22.3 54.1479 21.55 55.5579 20.08C56.0979 19.51 56.0679 18.58 55.4979 18.13C54.8679 17.62 54.0279 17.83 53.5179 18.25C52.4979 19.09 51.6579 19.6 50.1879 19.6C47.9379 19.6 46.1979 18.25 45.8979 16.09H55.6479C56.3979 16.09 57.0579 15.49 57.0579 14.68ZM66.622 19.3C64.312 19.3 62.392 17.59 62.392 14.95C62.392 12.37 64.312 10.69 66.622 10.69C68.962 10.69 70.912 12.37 70.912 14.95C70.912 17.59 68.962 19.3 66.622 19.3ZM66.622 22.3C70.612 22.3 73.972 19.39 73.972 14.95C73.972 10.51 70.612 7.69 66.622 7.69C62.662 7.69 59.332 10.51 59.332 14.95C59.332 19.39 62.662 22.3 66.622 22.3ZM89.9386 9.4C89.9386 8.56 89.2786 7.84 88.4386 7.84C87.5386 7.84 86.8486 8.56 86.8486 9.4V15.52C86.8486 18.28 85.0786 19.27 83.2486 19.27C81.4486 19.27 80.3086 18.01 80.3086 15.79V9.4C80.3086 8.56 79.6486 7.84 78.8086 7.84C77.9086 7.84 77.2186 8.56 77.2186 9.4V16.15C77.2186 20.11 79.1686 22.3 82.5586 22.3C84.1186 22.3 86.0386 21.52 86.8486 19.9V20.59C86.8486 21.43 87.5086 22.15 88.3486 22.15C89.2486 22.15 89.9386 21.43 89.9386 20.59V9.4ZM93.4071 19.12C94.1571 21.16 96.3471 22.3 98.5071 22.3C101.717 22.3 104.087 20.77 104.087 18.07C104.087 16.66 103.457 14.68 100.427 13.93L98.2671 13.39C97.5171 13.18 96.6771 12.91 96.4971 12.37C96.3471 11.95 96.3771 11.56 96.6171 11.17C96.9171 10.69 97.7871 10.42 98.5671 10.42C99.2871 10.42 100.187 10.69 100.967 11.38C101.627 11.95 102.257 11.98 102.767 11.56C103.247 11.2 103.457 10.48 103.037 9.76C102.107 8.29 100.397 7.69 98.5371 7.69C95.9571 7.69 93.7071 9.31 93.5271 11.38C93.3471 13.63 94.4271 15.25 97.3971 16.06L99.2871 16.51C100.307 16.75 101.177 17.14 101.177 18.04C101.177 19.09 100.157 19.72 98.7471 19.72C97.3671 19.72 96.2871 19.12 95.7171 18.04C95.4771 17.53 94.9071 17.14 94.1571 17.44C93.4971 17.68 93.1671 18.37 93.4071 19.12ZM123.386 4.27C125.606 4.27 126.506 6.16 126.506 7.9C126.506 9.67 125.576 11.5 123.266 11.5H118.646V4.27H123.386ZM124.466 14.29C128.276 13.87 129.806 10.93 129.806 7.9C129.806 4.6 127.946 1.33 123.506 1.33H117.146C116.186 1.33 115.466 1.99 115.466 3.07V20.53C115.466 21.4 116.156 22.15 116.996 22.15C117.926 22.15 118.646 21.4 118.646 20.53V14.41H120.986L125.696 21.49C126.206 22.21 127.196 22.33 127.886 21.91C128.666 21.43 128.726 20.26 128.246 19.6L124.466 14.29ZM139.161 19.3C136.851 19.3 134.931 17.59 134.931 14.95C134.931 12.37 136.851 10.69 139.161 10.69C141.501 10.69 143.451 12.37 143.451 14.95C143.451 17.59 141.501 19.3 139.161 19.3ZM139.161 22.3C143.151 22.3 146.511 19.39 146.511 14.95C146.511 10.51 143.151 7.69 139.161 7.69C135.201 7.69 131.871 10.51 131.871 14.95C131.871 19.39 135.201 22.3 139.161 22.3ZM149.098 15.01C149.098 19.45 152.548 22.3 156.568 22.3C158.188 22.3 159.658 21.85 160.858 21.01C161.518 20.56 161.668 19.69 161.218 18.94C160.798 18.25 159.748 18.22 159.088 18.61C158.368 19.03 157.468 19.3 156.568 19.3C154.228 19.3 152.158 17.62 152.158 15.01C152.158 12.4 154.228 10.69 156.568 10.69C157.468 10.69 158.368 10.96 159.088 11.38C159.748 11.77 160.798 11.74 161.218 11.05C161.668 10.3 161.518 9.43 160.858 8.98C159.658 8.14 158.188 7.69 156.568 7.69C152.548 7.69 149.098 10.57 149.098 15.01ZM170.462 14.08L174.062 10.42C174.632 9.85 174.692 8.89 174.122 8.26C173.552 7.72 172.622 7.69 172.022 8.26L167.852 12.58V1.78C167.852 0.939999 167.162 0.22 166.262 0.22C165.422 0.22 164.762 0.939999 164.762 1.78V20.59C164.762 21.43 165.422 22.15 166.262 22.15C167.162 22.15 167.852 21.43 167.852 20.59V15.49L173.522 21.7C174.032 22.27 174.992 22.33 175.622 21.76C176.192 21.22 176.192 20.29 175.652 19.69L170.462 14.08Z" fill="black"/>
</svg>
