<svg width="254" height="29" viewBox="0 0 254 29" fill="none" xmlns="http://www.w3.org/2000/svg">
<path d="M12.4394 19.9C13.4294 19.9 13.9994 19.21 14.2994 18.58L19.8494 7.24L21.4394 20.68C21.5594 21.55 22.1594 22.15 23.2394 22.15C24.1994 22.15 24.6794 21.25 24.5894 20.38L22.4294 2.68C22.3394 1.87 21.7394 1.18 20.9294 1.18H20.7194C20.0594 1.18 19.4294 1.45 19.0694 2.2L12.4394 16.06L5.80941 2.2C5.44941 1.45 4.81941 1.18 4.15941 1.18H3.94941C3.13941 1.18 2.53941 1.87 2.44941 2.68L0.289414 20.38C0.199414 21.25 0.679414 22.15 1.63941 22.15C2.71941 22.15 3.31941 21.55 3.43941 20.68L5.02941 7.24L10.5794 18.58C10.8794 19.21 11.4494 19.9 12.4394 19.9ZM30.6107 13.84C30.9107 11.68 32.5907 10.39 34.7507 10.39C36.8507 10.39 38.4407 11.65 38.7407 13.84H30.6107ZM41.7707 14.68C41.6507 10.39 38.6507 7.69 34.7507 7.69C30.7607 7.69 27.5507 10.51 27.5507 14.95C27.5507 19.39 30.7607 22.3 34.7507 22.3C36.8207 22.3 38.8607 21.55 40.2707 20.08C40.8107 19.51 40.7807 18.58 40.2107 18.13C39.5807 17.62 38.7407 17.83 38.2307 18.25C37.2107 19.09 36.3707 19.6 34.9007 19.6C32.6507 19.6 30.9107 18.25 30.6107 16.09H40.3607C41.1107 16.09 41.7707 15.49 41.7707 14.68ZM45.9349 20.59C45.9349 21.43 46.5949 22.15 47.4349 22.15C48.3349 22.15 49.0249 21.43 49.0249 20.59V10.54H50.8549C51.5449 10.54 52.1449 10 52.1449 9.31C52.1449 8.56 51.5449 7.99 50.8549 7.99H49.0249V4.09C49.0249 3.25 48.3349 2.53 47.4349 2.53C46.5949 2.53 45.9349 3.25 45.9349 4.09V7.99H44.5549C43.8649 7.99 43.2649 8.56 43.2649 9.31C43.2649 10 43.8649 10.54 44.5549 10.54H45.9349V20.59ZM65.445 20.59C65.445 21.43 66.105 22.15 66.945 22.15C67.845 22.15 68.535 21.43 68.535 20.59V9.4C68.535 8.56 67.845 7.84 66.945 7.84C66.105 7.84 65.445 8.56 65.445 9.4V9.97C64.485 8.38 62.415 7.69 60.735 7.69C56.955 7.69 53.625 10.51 53.625 14.98C53.625 19.45 56.955 22.3 60.735 22.3C62.475 22.3 64.515 21.52 65.445 19.99V20.59ZM56.805 14.95C56.805 12.37 58.755 10.69 61.095 10.69C63.195 10.69 65.415 12.19 65.415 14.95C65.415 17.71 63.375 19.3 61.095 19.3C58.755 19.3 56.805 17.53 56.805 14.95ZM75.7762 9.4C75.7762 8.56 75.1162 7.84 74.2762 7.84C73.3762 7.84 72.6862 8.56 72.6862 9.4V20.59C72.6862 21.43 73.3462 22.15 74.1862 22.15C75.0862 22.15 75.7762 21.43 75.7762 20.59V14.47C75.7762 11.74 77.5162 10.72 79.3162 10.72C80.9662 10.72 82.1662 11.98 82.1662 14.14V20.59C82.1662 21.43 82.8262 22.15 83.6662 22.15C84.5662 22.15 85.2562 21.43 85.2562 20.59V14.47C85.2562 12.22 86.6062 10.72 88.6462 10.72C90.4462 10.72 91.6162 12.01 91.6162 14.2V20.59C91.6162 21.43 92.2762 22.15 93.1162 22.15C94.0162 22.15 94.7062 21.43 94.7062 20.59V13.93C94.7062 9.94 92.7562 7.69 89.3062 7.69C88.0162 7.69 85.9162 8.05 84.5962 10.48C83.8162 8.71 82.4062 7.69 80.1862 7.69C79.0762 7.69 76.7062 8.14 75.7762 10.09V9.4ZM105.241 19.3C102.931 19.3 101.011 17.59 101.011 14.95C101.011 12.37 102.931 10.69 105.241 10.69C107.581 10.69 109.531 12.37 109.531 14.95C109.531 17.59 107.581 19.3 105.241 19.3ZM105.241 22.3C109.231 22.3 112.591 19.39 112.591 14.95C112.591 10.51 109.231 7.69 105.241 7.69C101.281 7.69 97.9511 10.51 97.9511 14.95C97.9511 19.39 101.281 22.3 105.241 22.3ZM122.798 10.6C123.698 10.6 125.048 10.93 125.318 9.58C125.498 8.77 124.988 7.99 124.208 7.81C123.788 7.72 123.338 7.69 122.888 7.69C121.148 7.69 119.768 8.71 119.048 11.2V9.4C119.048 8.56 118.358 7.84 117.458 7.84C116.618 7.84 115.958 8.56 115.958 9.4V20.59C115.958 21.43 116.618 22.15 117.458 22.15C118.358 22.15 119.048 21.43 119.048 20.59V16.96C119.048 13.24 120.158 10.6 122.798 10.6ZM130.826 9.4C130.826 8.56 130.136 7.84 129.236 7.84C128.396 7.84 127.736 8.56 127.736 9.4V27.4C127.736 28.24 128.396 28.96 129.236 28.96C130.136 28.96 130.826 28.24 130.826 27.4V19.99C131.696 21.55 133.616 22.3 135.506 22.3C139.286 22.3 142.466 19.48 142.466 15.01C142.466 10.6 139.286 7.69 135.506 7.69C133.616 7.69 131.696 8.56 130.826 10.06V9.4ZM130.856 15.07C130.856 12.34 132.836 10.69 135.116 10.69C137.456 10.69 139.316 12.46 139.316 15.07C139.316 17.65 137.456 19.33 135.116 19.33C132.986 19.33 130.856 17.83 130.856 15.07ZM149.02 1.78C149.02 0.939999 148.36 0.22 147.52 0.22C146.62 0.22 145.93 0.939999 145.93 1.78V20.59C145.93 21.43 146.59 22.15 147.43 22.15C148.33 22.15 149.02 21.43 149.02 20.59V14.47C149.02 11.71 151.15 10.72 152.92 10.72C154.66 10.72 156.04 12.01 156.04 14.2V20.59C156.04 21.43 156.7 22.15 157.54 22.15C158.44 22.15 159.13 21.43 159.13 20.59V14.02C159.13 10.03 157.03 7.69 153.46 7.69C151.99 7.69 149.8 8.41 149.02 10.12V1.78ZM162.615 2.32C162.615 3.43 163.575 4.27 164.685 4.27C165.825 4.27 166.725 3.43 166.725 2.32C166.725 1.21 165.825 0.37 164.685 0.37C163.575 0.37 162.615 1.21 162.615 2.32ZM166.245 20.59C166.245 21.43 165.555 22.15 164.655 22.15C163.815 22.15 163.155 21.43 163.155 20.59V9.4C163.155 8.56 163.815 7.84 164.655 7.84C165.555 7.84 166.245 8.56 166.245 9.4V20.59ZM169.611 15.01C169.611 19.45 173.061 22.3 177.081 22.3C178.701 22.3 180.171 21.85 181.371 21.01C182.031 20.56 182.181 19.69 181.731 18.94C181.311 18.25 180.261 18.22 179.601 18.61C178.881 19.03 177.981 19.3 177.081 19.3C174.741 19.3 172.671 17.62 172.671 15.01C172.671 12.4 174.741 10.69 177.081 10.69C177.981 10.69 178.881 10.96 179.601 11.38C180.261 11.77 181.311 11.74 181.731 11.05C182.181 10.3 182.031 9.43 181.371 8.98C180.171 8.14 178.701 7.69 177.081 7.69C173.061 7.69 169.611 10.57 169.611 15.01ZM201.293 4.27C203.513 4.27 204.413 6.16 204.413 7.9C204.413 9.67 203.483 11.5 201.173 11.5H196.553V4.27H201.293ZM202.373 14.29C206.183 13.87 207.713 10.93 207.713 7.9C207.713 4.6 205.853 1.33 201.413 1.33H195.053C194.093 1.33 193.373 1.99 193.373 3.07V20.53C193.373 21.4 194.063 22.15 194.903 22.15C195.833 22.15 196.553 21.4 196.553 20.53V14.41H198.893L203.603 21.49C204.113 22.21 205.103 22.33 205.793 21.91C206.573 21.43 206.633 20.26 206.153 19.6L202.373 14.29ZM217.067 19.3C214.757 19.3 212.837 17.59 212.837 14.95C212.837 12.37 214.757 10.69 217.067 10.69C219.407 10.69 221.357 12.37 221.357 14.95C221.357 17.59 219.407 19.3 217.067 19.3ZM217.067 22.3C221.057 22.3 224.417 19.39 224.417 14.95C224.417 10.51 221.057 7.69 217.067 7.69C213.107 7.69 209.777 10.51 209.777 14.95C209.777 19.39 213.107 22.3 217.067 22.3ZM227.004 15.01C227.004 19.45 230.454 22.3 234.474 22.3C236.094 22.3 237.564 21.85 238.764 21.01C239.424 20.56 239.574 19.69 239.124 18.94C238.704 18.25 237.654 18.22 236.994 18.61C236.274 19.03 235.374 19.3 234.474 19.3C232.134 19.3 230.064 17.62 230.064 15.01C230.064 12.4 232.134 10.69 234.474 10.69C235.374 10.69 236.274 10.96 236.994 11.38C237.654 11.77 238.704 11.74 239.124 11.05C239.574 10.3 239.424 9.43 238.764 8.98C237.564 8.14 236.094 7.69 234.474 7.69C230.454 7.69 227.004 10.57 227.004 15.01ZM248.368 14.08L251.968 10.42C252.538 9.85 252.598 8.89 252.028 8.26C251.458 7.72 250.528 7.69 249.928 8.26L245.758 12.58V1.78C245.758 0.939999 245.068 0.22 244.168 0.22C243.328 0.22 242.668 0.939999 242.668 1.78V20.59C242.668 21.43 243.328 22.15 244.168 22.15C245.068 22.15 245.758 21.43 245.758 20.59V15.49L251.428 21.7C251.938 22.27 252.898 22.33 253.528 21.76C254.098 21.22 254.098 20.29 253.558 19.69L248.368 14.08Z" fill="black"/>
</svg>
