<svg width="327" height="88" viewBox="0 0 327 88" fill="none" xmlns="http://www.w3.org/2000/svg">
<path d="M15.124 0.909H13.376L8.873 10.333L4.37 0.909H2.622L1.026 14H2.964L4.123 4.5L8.056 12.556H9.728L13.623 4.5L14.782 14H16.72L15.124 0.909ZM27.488 9.516C27.488 6.723 25.569 4.899 23.042 4.899C20.515 4.899 18.463 6.723 18.463 9.535C18.463 12.347 20.477 14.228 23.042 14.228C24.733 14.228 26.329 13.43 27.108 11.948L25.626 11.207C25.132 12.024 24.163 12.499 23.118 12.499C21.693 12.499 20.629 11.758 20.382 10.314H27.45C27.469 10.029 27.488 9.763 27.488 9.516ZM20.401 8.813C20.667 7.331 21.693 6.628 23.061 6.628C24.429 6.628 25.436 7.426 25.626 8.813H20.401ZM32.1375 5.127V1.802H30.2755V5.127H28.6795V6.685H30.2755V14H32.1375V6.685H34.0375V5.127H32.1375ZM42.5174 6.457C41.9474 5.45 40.7314 4.899 39.4394 4.899C36.9314 4.899 35.0504 6.913 35.0504 9.554C35.0504 12.29 37.0454 14.228 39.3634 14.228C40.7314 14.228 41.9474 13.525 42.5174 12.499V14H44.3794V5.127H42.5174V6.457ZM39.6864 12.48C38.1284 12.48 36.9314 11.15 36.9314 9.554C36.9314 7.977 38.1284 6.647 39.6484 6.647C41.0734 6.647 42.4984 7.844 42.4984 9.554C42.4984 11.226 41.1684 12.48 39.6864 12.48ZM57.763 4.899C56.87 4.899 55.483 5.222 54.723 6.761C54.191 5.583 53.108 4.899 51.816 4.899C50.6 4.899 49.403 5.545 49.042 6.59V5.127H47.18V14H49.042V9.231C49.042 7.426 50.22 6.685 51.379 6.685C52.481 6.685 53.241 7.578 53.241 9.022V14H55.122V9.573C55.122 7.711 55.882 6.666 57.345 6.685C58.542 6.685 59.302 7.578 59.302 9.022V14H61.183V8.927C61.183 6.4 59.986 4.899 57.763 4.899ZM67.9271 14.228C70.4541 14.228 72.6011 12.366 72.6011 9.554C72.6011 6.742 70.4541 4.899 67.9271 4.899C65.4001 4.899 63.2721 6.742 63.2721 9.554C63.2721 12.366 65.4001 14.228 67.9271 14.228ZM67.9271 12.48C66.4071 12.48 65.1341 11.283 65.1341 9.554C65.1341 7.844 66.4071 6.647 67.9271 6.647C69.4471 6.647 70.7391 7.844 70.7391 9.554C70.7391 11.283 69.4471 12.48 67.9271 12.48ZM79.1779 4.899C78.0379 4.899 77.1449 5.564 76.6889 7.122V5.127H74.8079V14H76.6889V10.808C76.6889 8.414 77.4489 6.685 79.0639 6.685C79.4249 6.685 79.8809 6.761 80.3749 6.989L80.6979 5.222C80.4129 5.051 79.7859 4.899 79.1779 4.899ZM87.2069 4.899C86.0099 4.899 84.7179 5.45 84.1289 6.457V5.127H82.2669V18.313H84.1289V12.689C84.7179 13.696 85.9529 14.228 87.2069 14.228C89.6199 14.228 91.6149 12.404 91.6149 9.573C91.6149 6.761 89.6009 4.899 87.2069 4.899ZM86.9789 12.48C85.6109 12.48 84.1479 11.378 84.1479 9.592C84.1479 7.806 85.4969 6.647 86.9789 6.647C88.5179 6.647 89.7339 7.92 89.7339 9.592C89.7339 11.264 88.5179 12.48 86.9789 12.48ZM98.5765 4.899C97.6265 4.899 96.2015 5.393 95.6885 6.476V0.301H93.8265V14H95.6885V9.231C95.6885 7.407 97.0945 6.723 98.2535 6.723C99.3935 6.723 100.267 7.597 100.267 9.041V14H102.129V8.927C102.148 6.4 100.818 4.899 98.5765 4.899ZM105.723 3.094C106.426 3.094 106.996 2.581 106.996 1.897C106.996 1.213 106.426 0.699999 105.723 0.699999C105.039 0.699999 104.45 1.213 104.45 1.897C104.45 2.581 105.039 3.094 105.723 3.094ZM106.654 14V5.127H104.792V14H106.654ZM113.648 14.228C115.093 14.228 116.328 13.639 117.107 12.708L115.872 11.549C115.359 12.119 114.58 12.48 113.687 12.48C112.034 12.48 110.723 11.245 110.723 9.554C110.723 7.863 112.034 6.647 113.687 6.647C114.58 6.647 115.359 7.008 115.872 7.578L117.107 6.419C116.328 5.488 115.093 4.899 113.648 4.899C111.084 4.899 108.861 6.742 108.861 9.554C108.861 12.366 111.084 14.228 113.648 14.228ZM128.218 4.899C127.078 4.899 126.185 5.564 125.729 7.122V5.127H123.848V14H125.729V10.808C125.729 8.414 126.489 6.685 128.104 6.685C128.465 6.685 128.921 6.761 129.415 6.989L129.738 5.222C129.453 5.051 128.826 4.899 128.218 4.899ZM135.114 14.228C137.641 14.228 139.788 12.366 139.788 9.554C139.788 6.742 137.641 4.899 135.114 4.899C132.587 4.899 130.459 6.742 130.459 9.554C130.459 12.366 132.587 14.228 135.114 14.228ZM135.114 12.48C133.594 12.48 132.321 11.283 132.321 9.554C132.321 7.844 133.594 6.647 135.114 6.647C136.634 6.647 137.926 7.844 137.926 9.554C137.926 11.283 136.634 12.48 135.114 12.48ZM146.193 14.228C147.637 14.228 148.872 13.639 149.651 12.708L148.416 11.549C147.903 12.119 147.124 12.48 146.231 12.48C144.578 12.48 143.267 11.245 143.267 9.554C143.267 7.863 144.578 6.647 146.231 6.647C147.124 6.647 147.903 7.008 148.416 7.578L149.651 6.419C148.872 5.488 147.637 4.899 146.193 4.899C143.628 4.899 141.405 6.742 141.405 9.554C141.405 12.366 143.628 14.228 146.193 14.228ZM155.214 8.965L158.957 5.127H156.43L153.523 8.148V0.301H151.661V14H153.523V9.782L157.399 14H159.831L155.214 8.965ZM163.601 14.228C165.425 14.228 167.097 13.202 167.097 11.511C167.097 10.561 166.679 9.383 164.779 8.908L163.43 8.585C162.879 8.452 162.366 8.148 162.366 7.597C162.366 6.989 162.898 6.476 163.677 6.476C164.342 6.476 165.007 6.913 165.007 7.559H166.793C166.793 5.697 165.159 4.899 163.639 4.899C161.796 4.899 160.485 6.096 160.485 7.54C160.485 8.851 161.245 9.706 162.898 10.143L164.095 10.428C164.76 10.58 165.235 10.884 165.235 11.473C165.235 12.138 164.608 12.651 163.582 12.651C162.575 12.651 161.948 12.043 161.948 11.34H160.219C160.257 13.202 161.948 14.228 163.601 14.228ZM180.898 6.457C180.328 5.45 179.112 4.899 177.82 4.899C175.312 4.899 173.431 6.913 173.431 9.554C173.431 12.29 175.426 14.228 177.744 14.228C179.112 14.228 180.328 13.525 180.898 12.499V14H182.76V5.127H180.898V6.457ZM178.067 12.48C176.509 12.48 175.312 11.15 175.312 9.554C175.312 7.977 176.509 6.647 178.029 6.647C179.454 6.647 180.879 7.844 180.879 9.554C180.879 11.226 179.549 12.48 178.067 12.48ZM189.931 4.899C188.791 4.899 187.898 5.564 187.442 7.122V5.127H185.561V14H187.442V10.808C187.442 8.414 188.202 6.685 189.817 6.685C190.178 6.685 190.634 6.761 191.128 6.989L191.451 5.222C191.166 5.051 190.539 4.899 189.931 4.899ZM193.951 3.094C194.654 3.094 195.224 2.581 195.224 1.897C195.224 1.213 194.654 0.699999 193.951 0.699999C193.267 0.699999 192.678 1.213 192.678 1.897C192.678 2.581 193.267 3.094 193.951 3.094ZM194.882 14V5.127H193.02V14H194.882ZM200.413 14.228C202.237 14.228 203.909 13.202 203.909 11.511C203.909 10.561 203.491 9.383 201.591 8.908L200.242 8.585C199.691 8.452 199.178 8.148 199.178 7.597C199.178 6.989 199.71 6.476 200.489 6.476C201.154 6.476 201.819 6.913 201.819 7.559H203.605C203.605 5.697 201.971 4.899 200.451 4.899C198.608 4.899 197.297 6.096 197.297 7.54C197.297 8.851 198.057 9.706 199.71 10.143L200.907 10.428C201.572 10.58 202.047 10.884 202.047 11.473C202.047 12.138 201.42 12.651 200.394 12.651C199.387 12.651 198.76 12.043 198.76 11.34H197.031C197.069 13.202 198.76 14.228 200.413 14.228ZM214.556 9.516C214.556 6.723 212.637 4.899 210.11 4.899C207.583 4.899 205.531 6.723 205.531 9.535C205.531 12.347 207.545 14.228 210.11 14.228C211.801 14.228 213.397 13.43 214.176 11.948L212.694 11.207C212.2 12.024 211.231 12.499 210.186 12.499C208.761 12.499 207.697 11.758 207.45 10.314H214.518C214.537 10.029 214.556 9.763 214.556 9.516ZM207.469 8.813C207.735 7.331 208.761 6.628 210.129 6.628C211.497 6.628 212.504 7.426 212.694 8.813H207.469ZM226.689 2.049V0.301H225.701C223.288 0.301 222.243 1.878 222.243 4.291V5.127H220.533V6.685H222.243V14H224.105V6.685H226.138V5.127H224.105V4.082C224.086 2.961 224.504 2.049 226.043 2.049H226.689ZM232.254 4.899C231.114 4.899 230.221 5.564 229.765 7.122V5.127H227.884V14H229.765V10.808C229.765 8.414 230.525 6.685 232.14 6.685C232.501 6.685 232.957 6.761 233.451 6.989L233.774 5.222C233.489 5.051 232.862 4.899 232.254 4.899ZM239.15 14.228C241.677 14.228 243.824 12.366 243.824 9.554C243.824 6.742 241.677 4.899 239.15 4.899C236.623 4.899 234.495 6.742 234.495 9.554C234.495 12.366 236.623 14.228 239.15 14.228ZM239.15 12.48C237.63 12.48 236.357 11.283 236.357 9.554C236.357 7.844 237.63 6.647 239.15 6.647C240.67 6.647 241.962 7.844 241.962 9.554C241.962 11.283 240.67 12.48 239.15 12.48ZM256.614 4.899C255.721 4.899 254.334 5.222 253.574 6.761C253.042 5.583 251.959 4.899 250.667 4.899C249.451 4.899 248.254 5.545 247.893 6.59V5.127H246.031V14H247.893V9.231C247.893 7.426 249.071 6.685 250.23 6.685C251.332 6.685 252.092 7.578 252.092 9.022V14H253.973V9.573C253.973 7.711 254.733 6.666 256.196 6.685C257.393 6.685 258.153 7.578 258.153 9.022V14H260.034V8.927C260.034 6.4 258.837 4.899 256.614 4.899ZM270.027 5.127V1.802H268.165V5.127H266.569V6.685H268.165V14H270.027V6.685H271.927V5.127H270.027ZM278.446 4.899C277.496 4.899 276.071 5.393 275.558 6.476V0.301H273.696V14H275.558V9.231C275.558 7.407 276.964 6.723 278.123 6.723C279.263 6.723 280.137 7.597 280.137 9.041V14H281.999V8.927C282.018 6.4 280.688 4.899 278.446 4.899ZM293.135 9.516C293.135 6.723 291.216 4.899 288.689 4.899C286.162 4.899 284.11 6.723 284.11 9.535C284.11 12.347 286.124 14.228 288.689 14.228C290.38 14.228 291.976 13.43 292.755 11.948L291.273 11.207C290.779 12.024 289.81 12.499 288.765 12.499C287.34 12.499 286.276 11.758 286.029 10.314H293.097C293.116 10.029 293.135 9.763 293.135 9.516ZM286.048 8.813C286.314 7.331 287.34 6.628 288.708 6.628C290.076 6.628 291.083 7.426 291.273 8.813H286.048ZM3.99 28.127V24.802H2.128V28.127H0.532V29.685H2.128V37H3.99V29.685H5.89V28.127H3.99ZM12.0285 27.899C10.8885 27.899 9.99548 28.564 9.53948 30.122V28.127H7.65848V37H9.53948V33.808C9.53948 31.414 10.2995 29.685 11.9145 29.685C12.2755 29.685 12.7315 29.761 13.2255 29.989L13.5485 28.222C13.2635 28.051 12.6365 27.899 12.0285 27.899ZM21.7361 29.457C21.1661 28.45 19.9501 27.899 18.6581 27.899C16.1501 27.899 14.2691 29.913 14.2691 32.554C14.2691 35.29 16.2641 37.228 18.5821 37.228C19.9501 37.228 21.1661 36.525 21.7361 35.499V37H23.5981V28.127H21.7361V29.457ZM18.9051 35.48C17.3471 35.48 16.1501 34.15 16.1501 32.554C16.1501 30.977 17.3471 29.647 18.8671 29.647C20.2921 29.647 21.7171 30.844 21.7171 32.554C21.7171 34.226 20.3871 35.48 18.9051 35.48ZM31.1487 27.899C30.1987 27.899 28.7737 28.393 28.2607 29.495V28.127H26.3987V37H28.2607V32.231C28.2607 30.388 29.6667 29.723 30.8257 29.723C31.9657 29.723 32.8397 30.597 32.8397 32.041V37H34.7017V31.927C34.7207 29.4 33.3907 27.899 31.1487 27.899ZM40.1005 37.228C41.9245 37.228 43.5965 36.202 43.5965 34.511C43.5965 33.561 43.1785 32.383 41.2785 31.908L39.9295 31.585C39.3785 31.452 38.8655 31.148 38.8655 30.597C38.8655 29.989 39.3975 29.476 40.1765 29.476C40.8415 29.476 41.5065 29.913 41.5065 30.559H43.2925C43.2925 28.697 41.6585 27.899 40.1385 27.899C38.2955 27.899 36.9845 29.096 36.9845 30.54C36.9845 31.851 37.7445 32.706 39.3975 33.143L40.5945 33.428C41.2595 33.58 41.7345 33.884 41.7345 34.473C41.7345 35.138 41.1075 35.651 40.0815 35.651C39.0745 35.651 38.4475 35.043 38.4475 34.34H36.7185C36.7565 36.202 38.4475 37.228 40.1005 37.228ZM50.9763 25.049V23.301H49.9883C47.5753 23.301 46.5303 24.878 46.5303 27.291V28.127H44.8203V29.685H46.5303V37H48.3923V29.685H50.4253V28.127H48.3923V27.082C48.3733 25.961 48.7913 25.049 50.3303 25.049H50.9763ZM56.0706 37.228C58.5976 37.228 60.7446 35.366 60.7446 32.554C60.7446 29.742 58.5976 27.899 56.0706 27.899C53.5436 27.899 51.4156 29.742 51.4156 32.554C51.4156 35.366 53.5436 37.228 56.0706 37.228ZM56.0706 35.48C54.5506 35.48 53.2776 34.283 53.2776 32.554C53.2776 30.844 54.5506 29.647 56.0706 29.647C57.5906 29.647 58.8826 30.844 58.8826 32.554C58.8826 34.283 57.5906 35.48 56.0706 35.48ZM67.3215 27.899C66.1815 27.899 65.2885 28.564 64.8325 30.122V28.127H62.9515V37H64.8325V33.808C64.8325 31.414 65.5925 29.685 67.2075 29.685C67.5685 29.685 68.0245 29.761 68.5185 29.989L68.8415 28.222C68.5565 28.051 67.9295 27.899 67.3215 27.899ZM80.9934 27.899C80.1004 27.899 78.7134 28.222 77.9534 29.761C77.4214 28.583 76.3384 27.899 75.0464 27.899C73.8304 27.899 72.6334 28.545 72.2724 29.59V28.127H70.4104V37H72.2724V32.231C72.2724 30.426 73.4504 29.685 74.6094 29.685C75.7114 29.685 76.4714 30.578 76.4714 32.022V37H78.3524V32.573C78.3524 30.711 79.1124 29.666 80.5754 29.685C81.7724 29.685 82.5324 30.578 82.5324 32.022V37H84.4134V31.927C84.4134 29.4 83.2164 27.899 80.9934 27.899ZM93.9695 29.457C93.3995 28.45 92.1835 27.899 90.8915 27.899C88.3835 27.899 86.5025 29.913 86.5025 32.554C86.5025 35.29 88.4975 37.228 90.8155 37.228C92.1835 37.228 93.3995 36.525 93.9695 35.499V37H95.8315V28.127H93.9695V29.457ZM91.1385 35.48C89.5805 35.48 88.3835 34.15 88.3835 32.554C88.3835 30.977 89.5805 29.647 91.1005 29.647C92.5255 29.647 93.9505 30.844 93.9505 32.554C93.9505 34.226 92.6205 35.48 91.1385 35.48ZM101.235 28.127V24.802H99.3731V28.127H97.7771V29.685H99.3731V37H101.235V29.685H103.135V28.127H101.235ZM105.835 26.094C106.538 26.094 107.108 25.581 107.108 24.897C107.108 24.213 106.538 23.7 105.835 23.7C105.151 23.7 104.562 24.213 104.562 24.897C104.562 25.581 105.151 26.094 105.835 26.094ZM106.766 37V28.127H104.904V37H106.766ZM113.646 37.228C116.173 37.228 118.32 35.366 118.32 32.554C118.32 29.742 116.173 27.899 113.646 27.899C111.119 27.899 108.991 29.742 108.991 32.554C108.991 35.366 111.119 37.228 113.646 37.228ZM113.646 35.48C112.126 35.48 110.853 34.283 110.853 32.554C110.853 30.844 112.126 29.647 113.646 29.647C115.166 29.647 116.458 30.844 116.458 32.554C116.458 34.283 115.166 35.48 113.646 35.48ZM125.277 27.899C124.327 27.899 122.902 28.393 122.389 29.495V28.127H120.527V37H122.389V32.231C122.389 30.388 123.795 29.723 124.954 29.723C126.094 29.723 126.968 30.597 126.968 32.041V37H128.83V31.927C128.849 29.4 127.519 27.899 125.277 27.899ZM140.309 37.228C142.836 37.228 144.983 35.366 144.983 32.554C144.983 29.742 142.836 27.899 140.309 27.899C137.782 27.899 135.654 29.742 135.654 32.554C135.654 35.366 137.782 37.228 140.309 37.228ZM140.309 35.48C138.789 35.48 137.516 34.283 137.516 32.554C137.516 30.844 138.789 29.647 140.309 29.647C141.829 29.647 143.121 30.844 143.121 32.554C143.121 34.283 141.829 35.48 140.309 35.48ZM152.248 25.049V23.301H151.26C148.847 23.301 147.802 24.878 147.802 27.291V28.127H146.092V29.685H147.802V37H149.664V29.685H151.697V28.127H149.664V27.082C149.645 25.961 150.063 25.049 151.602 25.049H152.248ZM166.388 32.516C166.388 29.723 164.469 27.899 161.942 27.899C159.415 27.899 157.363 29.723 157.363 32.535C157.363 35.347 159.377 37.228 161.942 37.228C163.633 37.228 165.229 36.43 166.008 34.948L164.526 34.207C164.032 35.024 163.063 35.499 162.018 35.499C160.593 35.499 159.529 34.758 159.282 33.314H166.35C166.369 33.029 166.388 32.763 166.388 32.516ZM159.301 31.813C159.567 30.331 160.593 29.628 161.961 29.628C163.329 29.628 164.336 30.426 164.526 31.813H159.301ZM172.676 32.136L175.583 28.127H173.341L171.593 30.616L169.864 28.127H167.603L170.51 32.136L166.995 37H169.199L171.593 33.675L173.968 37H176.191L172.676 32.136ZM178.643 26.094C179.346 26.094 179.916 25.581 179.916 24.897C179.916 24.213 179.346 23.7 178.643 23.7C177.959 23.7 177.37 24.213 177.37 24.897C177.37 25.581 177.959 26.094 178.643 26.094ZM179.574 37V28.127H177.712V37H179.574ZM185.105 37.228C186.929 37.228 188.601 36.202 188.601 34.511C188.601 33.561 188.183 32.383 186.283 31.908L184.934 31.585C184.383 31.452 183.87 31.148 183.87 30.597C183.87 29.989 184.402 29.476 185.181 29.476C185.846 29.476 186.511 29.913 186.511 30.559H188.297C188.297 28.697 186.663 27.899 185.143 27.899C183.3 27.899 181.989 29.096 181.989 30.54C181.989 31.851 182.749 32.706 184.402 33.143L185.599 33.428C186.264 33.58 186.739 33.884 186.739 34.473C186.739 35.138 186.112 35.651 185.086 35.651C184.079 35.651 183.452 35.043 183.452 34.34H181.723C181.761 36.202 183.452 37.228 185.105 37.228ZM193.359 28.127V24.802H191.497V28.127H189.901V29.685H191.497V37H193.359V29.685H195.259V28.127H193.359ZM197.959 26.094C198.662 26.094 199.232 25.581 199.232 24.897C199.232 24.213 198.662 23.7 197.959 23.7C197.275 23.7 196.686 24.213 196.686 24.897C196.686 25.581 197.275 26.094 197.959 26.094ZM198.89 37V28.127H197.028V37H198.89ZM206.435 27.899C205.485 27.899 204.06 28.393 203.547 29.495V28.127H201.685V37H203.547V32.231C203.547 30.388 204.953 29.723 206.112 29.723C207.252 29.723 208.126 30.597 208.126 32.041V37H209.988V31.927C210.007 29.4 208.677 27.899 206.435 27.899ZM219.567 29.419C218.959 28.431 217.724 27.899 216.489 27.899C214.095 27.899 212.1 29.723 212.1 32.554C212.1 35.366 214.095 37.228 216.508 37.228C217.686 37.228 218.959 36.677 219.567 35.708V35.936C219.567 38.748 218.408 39.812 216.546 39.812C215.577 39.812 214.551 39.261 214.057 38.311L212.48 39.09C213.316 40.667 214.874 41.541 216.546 41.541C219.529 41.541 221.429 39.907 221.429 35.784V28.127H219.567V29.419ZM216.717 35.48C215.197 35.48 213.962 34.188 213.962 32.535C213.962 30.863 215.197 29.647 216.717 29.647C218.085 29.647 219.548 30.749 219.548 32.535C219.548 34.321 218.218 35.48 216.717 35.48ZM233.312 27.899C232.172 27.899 231.279 28.564 230.823 30.122V28.127H228.942V37H230.823V33.808C230.823 31.414 231.583 29.685 233.198 29.685C233.559 29.685 234.015 29.761 234.509 29.989L234.832 28.222C234.547 28.051 233.92 27.899 233.312 27.899ZM240.207 37.228C242.734 37.228 244.881 35.366 244.881 32.554C244.881 29.742 242.734 27.899 240.207 27.899C237.68 27.899 235.552 29.742 235.552 32.554C235.552 35.366 237.68 37.228 240.207 37.228ZM240.207 35.48C238.687 35.48 237.414 34.283 237.414 32.554C237.414 30.844 238.687 29.647 240.207 29.647C241.727 29.647 243.019 30.844 243.019 32.554C243.019 34.283 241.727 35.48 240.207 35.48ZM251.287 37.228C252.731 37.228 253.966 36.639 254.745 35.708L253.51 34.549C252.997 35.119 252.218 35.48 251.325 35.48C249.672 35.48 248.361 34.245 248.361 32.554C248.361 30.863 249.672 29.647 251.325 29.647C252.218 29.647 252.997 30.008 253.51 30.578L254.745 29.419C253.966 28.488 252.731 27.899 251.287 27.899C248.722 27.899 246.499 29.742 246.499 32.554C246.499 35.366 248.722 37.228 251.287 37.228ZM260.308 31.965L264.051 28.127H261.524L258.617 31.148V23.301H256.755V37H258.617V32.782L262.493 37H264.925L260.308 31.965ZM273.126 28.127V24.802H271.264V28.127H269.668V29.685H271.264V37H273.126V29.685H275.026V28.127H273.126ZM280.694 37.228C283.221 37.228 285.368 35.366 285.368 32.554C285.368 29.742 283.221 27.899 280.694 27.899C278.167 27.899 276.039 29.742 276.039 32.554C276.039 35.366 278.167 37.228 280.694 37.228ZM280.694 35.48C279.174 35.48 277.901 34.283 277.901 32.554C277.901 30.844 279.174 29.647 280.694 29.647C282.214 29.647 283.506 30.844 283.506 32.554C283.506 34.283 282.214 35.48 280.694 35.48ZM297.056 27.899C296.106 27.899 294.681 28.393 294.168 29.495V28.127H292.306V37H294.168V32.231C294.168 30.388 295.574 29.723 296.733 29.723C297.873 29.723 298.747 30.597 298.747 32.041V37H300.609V31.927C300.628 29.4 299.298 27.899 297.056 27.899ZM311.746 32.516C311.746 29.723 309.827 27.899 307.3 27.899C304.773 27.899 302.721 29.723 302.721 32.535C302.721 35.347 304.735 37.228 307.3 37.228C308.991 37.228 310.587 36.43 311.366 34.948L309.884 34.207C309.39 35.024 308.421 35.499 307.376 35.499C305.951 35.499 304.887 34.758 304.64 33.314H311.708C311.727 33.029 311.746 32.763 311.746 32.516ZM304.659 31.813C304.925 30.331 305.951 29.628 307.319 29.628C308.687 29.628 309.694 30.426 309.884 31.813H304.659ZM322.741 34.188L320.613 28.127H318.865L316.756 34.188L314.628 28.127H312.614L315.977 37H317.516L319.739 30.635L322.038 37H323.615L326.864 28.127H324.85L322.741 34.188ZM3.99 51.127V47.802H2.128V51.127H0.532V52.685H2.128V60H3.99V52.685H5.89V51.127H3.99ZM11.0975 57.302L8.55148 51.127H6.53748L10.0905 59.601L8.17148 64.313H10.1475L15.6575 51.127H13.6435L11.0975 57.302ZM22.1727 50.899C20.9757 50.899 19.6837 51.45 19.0947 52.457V51.127H17.2327V64.313H19.0947V58.689C19.6837 59.696 20.9187 60.228 22.1727 60.228C24.5857 60.228 26.5807 58.404 26.5807 55.573C26.5807 52.761 24.5667 50.899 22.1727 50.899ZM21.9447 58.48C20.5767 58.48 19.1137 57.378 19.1137 55.592C19.1137 53.806 20.4627 52.647 21.9447 52.647C23.4837 52.647 24.6997 53.92 24.6997 55.592C24.6997 57.264 23.4837 58.48 21.9447 58.48ZM37.2663 55.516C37.2663 52.723 35.3473 50.899 32.8203 50.899C30.2933 50.899 28.2413 52.723 28.2413 55.535C28.2413 58.347 30.2553 60.228 32.8203 60.228C34.5113 60.228 36.1073 59.43 36.8863 57.948L35.4043 57.207C34.9103 58.024 33.9413 58.499 32.8963 58.499C31.4713 58.499 30.4073 57.758 30.1603 56.314H37.2283C37.2473 56.029 37.2663 55.763 37.2663 55.516ZM30.1793 54.813C30.4453 53.331 31.4713 52.628 32.8393 52.628C34.2073 52.628 35.2143 53.426 35.4043 54.813H30.1793ZM42.1787 60.228C44.0027 60.228 45.6747 59.202 45.6747 57.511C45.6747 56.561 45.2567 55.383 43.3567 54.908L42.0077 54.585C41.4567 54.452 40.9437 54.148 40.9437 53.597C40.9437 52.989 41.4757 52.476 42.2547 52.476C42.9197 52.476 43.5847 52.913 43.5847 53.559H45.3707C45.3707 51.697 43.7367 50.899 42.2167 50.899C40.3737 50.899 39.0627 52.096 39.0627 53.54C39.0627 54.851 39.8227 55.706 41.4757 56.143L42.6727 56.428C43.3377 56.58 43.8127 56.884 43.8127 57.473C43.8127 58.138 43.1857 58.651 42.1597 58.651C41.1527 58.651 40.5257 58.043 40.5257 57.34H38.7967C38.8347 59.202 40.5257 60.228 42.1787 60.228ZM56.6644 60.228C59.1914 60.228 61.3384 58.366 61.3384 55.554C61.3384 52.742 59.1914 50.899 56.6644 50.899C54.1374 50.899 52.0094 52.742 52.0094 55.554C52.0094 58.366 54.1374 60.228 56.6644 60.228ZM56.6644 58.48C55.1444 58.48 53.8714 57.283 53.8714 55.554C53.8714 53.844 55.1444 52.647 56.6644 52.647C58.1844 52.647 59.4764 53.844 59.4764 55.554C59.4764 57.283 58.1844 58.48 56.6644 58.48ZM68.6032 48.049V46.301H67.6152C65.2022 46.301 64.1572 47.878 64.1572 50.291V51.127H62.4472V52.685H64.1572V60H66.0192V52.685H68.0522V51.127H66.0192V50.082C66.0002 48.961 66.4182 48.049 67.9572 48.049H68.6032ZM78.6398 50.899C77.4998 50.899 76.6068 51.564 76.1508 53.122V51.127H74.2698V60H76.1508V56.808C76.1508 54.414 76.9108 52.685 78.5258 52.685C78.8868 52.685 79.3428 52.761 79.8368 52.989L80.1598 51.222C79.8748 51.051 79.2478 50.899 78.6398 50.899ZM85.5355 60.228C88.0625 60.228 90.2095 58.366 90.2095 55.554C90.2095 52.742 88.0625 50.899 85.5355 50.899C83.0085 50.899 80.8805 52.742 80.8805 55.554C80.8805 58.366 83.0085 60.228 85.5355 60.228ZM85.5355 58.48C84.0155 58.48 82.7425 57.283 82.7425 55.554C82.7425 53.844 84.0155 52.647 85.5355 52.647C87.0555 52.647 88.3475 53.844 88.3475 55.554C88.3475 57.283 87.0555 58.48 85.5355 58.48ZM96.6153 60.228C98.0593 60.228 99.2943 59.639 100.073 58.708L98.8383 57.549C98.3253 58.119 97.5463 58.48 96.6533 58.48C95.0003 58.48 93.6893 57.245 93.6893 55.554C93.6893 53.863 95.0003 52.647 96.6533 52.647C97.5463 52.647 98.3253 53.008 98.8383 53.578L100.073 52.419C99.2943 51.488 98.0593 50.899 96.6153 50.899C94.0503 50.899 91.8273 52.742 91.8273 55.554C91.8273 58.366 94.0503 60.228 96.6153 60.228ZM105.636 54.965L109.379 51.127H106.852L103.945 54.148V46.301H102.083V60H103.945V55.782L107.821 60H110.253L105.636 54.965ZM111.244 63.059C112.764 61.824 113.695 59.753 113.486 57.568H111.472C111.719 59.829 111.073 61.159 110.028 62.641L111.244 63.059ZM121.884 49.094C122.587 49.094 123.157 48.581 123.157 47.897C123.157 47.213 122.587 46.7 121.884 46.7C121.2 46.7 120.611 47.213 120.611 47.897C120.611 48.581 121.2 49.094 121.884 49.094ZM122.815 60V51.127H120.953V60H122.815ZM130.361 50.899C129.411 50.899 127.986 51.393 127.473 52.495V51.127H125.611V60H127.473V55.231C127.473 53.388 128.879 52.723 130.038 52.723C131.178 52.723 132.052 53.597 132.052 55.041V60H133.914V54.927C133.933 52.4 132.603 50.899 130.361 50.899ZM148.205 52.457C147.635 51.45 146.419 50.899 145.127 50.899C142.619 50.899 140.738 52.913 140.738 55.554C140.738 58.29 142.733 60.228 145.051 60.228C146.419 60.228 147.635 59.525 148.205 58.499V60H150.067V51.127H148.205V52.457ZM145.374 58.48C143.816 58.48 142.619 57.15 142.619 55.554C142.619 53.977 143.816 52.647 145.336 52.647C146.761 52.647 148.186 53.844 148.186 55.554C148.186 57.226 146.856 58.48 145.374 58.48ZM162.539 50.899C161.342 50.899 160.05 51.45 159.461 52.457V51.127H157.599V64.313H159.461V58.689C160.05 59.696 161.285 60.228 162.539 60.228C164.952 60.228 166.947 58.404 166.947 55.573C166.947 52.761 164.933 50.899 162.539 50.899ZM162.311 58.48C160.943 58.48 159.48 57.378 159.48 55.592C159.48 53.806 160.829 52.647 162.311 52.647C163.85 52.647 165.066 53.92 165.066 55.592C165.066 57.264 163.85 58.48 162.311 58.48ZM173.528 50.899C172.388 50.899 171.495 51.564 171.039 53.122V51.127H169.158V60H171.039V56.808C171.039 54.414 171.799 52.685 173.414 52.685C173.775 52.685 174.231 52.761 174.725 52.989L175.048 51.222C174.763 51.051 174.136 50.899 173.528 50.899ZM180.424 60.228C182.951 60.228 185.098 58.366 185.098 55.554C185.098 52.742 182.951 50.899 180.424 50.899C177.897 50.899 175.769 52.742 175.769 55.554C175.769 58.366 177.897 60.228 180.424 60.228ZM180.424 58.48C178.904 58.48 177.631 57.283 177.631 55.554C177.631 53.844 178.904 52.647 180.424 52.647C181.944 52.647 183.236 53.844 183.236 55.554C183.236 57.283 181.944 58.48 180.424 58.48ZM191.504 60.228C192.948 60.228 194.183 59.639 194.962 58.708L193.727 57.549C193.214 58.119 192.435 58.48 191.542 58.48C189.889 58.48 188.578 57.245 188.578 55.554C188.578 53.863 189.889 52.647 191.542 52.647C192.435 52.647 193.214 53.008 193.727 53.578L194.962 52.419C194.183 51.488 192.948 50.899 191.504 50.899C188.939 50.899 186.716 52.742 186.716 55.554C186.716 58.366 188.939 60.228 191.504 60.228ZM205.242 55.516C205.242 52.723 203.323 50.899 200.796 50.899C198.269 50.899 196.217 52.723 196.217 55.535C196.217 58.347 198.231 60.228 200.796 60.228C202.487 60.228 204.083 59.43 204.862 57.948L203.38 57.207C202.886 58.024 201.917 58.499 200.872 58.499C199.447 58.499 198.383 57.758 198.136 56.314H205.204C205.223 56.029 205.242 55.763 205.242 55.516ZM198.155 54.813C198.421 53.331 199.447 52.628 200.815 52.628C202.183 52.628 203.19 53.426 203.38 54.813H198.155ZM210.154 60.228C211.978 60.228 213.65 59.202 213.65 57.511C213.65 56.561 213.232 55.383 211.332 54.908L209.983 54.585C209.432 54.452 208.919 54.148 208.919 53.597C208.919 52.989 209.451 52.476 210.23 52.476C210.895 52.476 211.56 52.913 211.56 53.559H213.346C213.346 51.697 211.712 50.899 210.192 50.899C208.349 50.899 207.038 52.096 207.038 53.54C207.038 54.851 207.798 55.706 209.451 56.143L210.648 56.428C211.313 56.58 211.788 56.884 211.788 57.473C211.788 58.138 211.161 58.651 210.135 58.651C209.128 58.651 208.501 58.043 208.501 57.34H206.772C206.81 59.202 208.501 60.228 210.154 60.228ZM218.56 60.228C220.384 60.228 222.056 59.202 222.056 57.511C222.056 56.561 221.638 55.383 219.738 54.908L218.389 54.585C217.838 54.452 217.325 54.148 217.325 53.597C217.325 52.989 217.857 52.476 218.636 52.476C219.301 52.476 219.966 52.913 219.966 53.559H221.752C221.752 51.697 220.118 50.899 218.598 50.899C216.755 50.899 215.444 52.096 215.444 53.54C215.444 54.851 216.204 55.706 217.857 56.143L219.054 56.428C219.719 56.58 220.194 56.884 220.194 57.473C220.194 58.138 219.567 58.651 218.541 58.651C217.534 58.651 216.907 58.043 216.907 57.34H215.178C215.216 59.202 216.907 60.228 218.56 60.228ZM233.159 60.228C234.603 60.228 235.838 59.639 236.617 58.708L235.382 57.549C234.869 58.119 234.09 58.48 233.197 58.48C231.544 58.48 230.233 57.245 230.233 55.554C230.233 53.863 231.544 52.647 233.197 52.647C234.09 52.647 234.869 53.008 235.382 53.578L236.617 52.419C235.838 51.488 234.603 50.899 233.159 50.899C230.594 50.899 228.371 52.742 228.371 55.554C228.371 58.366 230.594 60.228 233.159 60.228ZM245.32 52.457C244.75 51.45 243.534 50.899 242.242 50.899C239.734 50.899 237.853 52.913 237.853 55.554C237.853 58.29 239.848 60.228 242.166 60.228C243.534 60.228 244.75 59.525 245.32 58.499V60H247.182V51.127H245.32V52.457ZM242.489 58.48C240.931 58.48 239.734 57.15 239.734 55.554C239.734 53.977 240.931 52.647 242.451 52.647C243.876 52.647 245.301 53.844 245.301 55.554C245.301 57.226 243.971 58.48 242.489 58.48ZM251.845 60V46.301H249.983V60H251.845ZM256.502 60V46.301H254.64V60H256.502ZM267.771 55.516C267.771 52.723 265.852 50.899 263.325 50.899C260.798 50.899 258.746 52.723 258.746 55.535C258.746 58.347 260.76 60.228 263.325 60.228C265.016 60.228 266.612 59.43 267.391 57.948L265.909 57.207C265.415 58.024 264.446 58.499 263.401 58.499C261.976 58.499 260.912 57.758 260.665 56.314H267.733C267.752 56.029 267.771 55.763 267.771 55.516ZM260.684 54.813C260.95 53.331 261.976 52.628 263.344 52.628C264.712 52.628 265.719 53.426 265.909 54.813H260.684ZM276.864 52.438C276.275 51.431 275.04 50.899 273.786 50.899C271.392 50.899 269.397 52.723 269.397 55.554C269.397 58.366 271.392 60.228 273.805 60.228C275.002 60.228 276.275 59.677 276.864 58.67V60H278.726V46.301H276.864V52.438ZM274.014 58.48C272.494 58.48 271.259 57.188 271.259 55.535C271.259 53.863 272.494 52.647 274.014 52.647C275.382 52.647 276.845 53.749 276.845 55.535C276.845 57.321 275.515 58.48 274.014 58.48ZM11.97 73.899C11.077 73.899 9.69 74.222 8.93 75.761C8.398 74.583 7.315 73.899 6.023 73.899C4.807 73.899 3.61 74.545 3.249 75.59V74.127H1.387V83H3.249V78.231C3.249 76.426 4.427 75.685 5.586 75.685C6.688 75.685 7.448 76.578 7.448 78.022V83H9.329V78.573C9.329 76.711 10.089 75.666 11.552 75.685C12.749 75.685 13.509 76.578 13.509 78.022V83H15.39V77.927C15.39 75.4 14.193 73.899 11.97 73.899ZM26.5231 78.516C26.5231 75.723 24.6041 73.899 22.0771 73.899C19.5501 73.899 17.4981 75.723 17.4981 78.535C17.4981 81.347 19.5121 83.228 22.0771 83.228C23.7681 83.228 25.3641 82.43 26.1431 80.948L24.6611 80.207C24.1671 81.024 23.1981 81.499 22.1531 81.499C20.7281 81.499 19.6641 80.758 19.4171 79.314H26.4851C26.5041 79.029 26.5231 78.763 26.5231 78.516ZM19.4361 77.813C19.7021 76.331 20.7281 75.628 22.0961 75.628C23.4641 75.628 24.4711 76.426 24.6611 77.813H19.4361ZM31.1726 74.127V70.802H29.3106V74.127H27.7146V75.685H29.3106V83H31.1726V75.685H33.0726V74.127H31.1726ZM41.5526 75.457C40.9826 74.45 39.7666 73.899 38.4746 73.899C35.9666 73.899 34.0856 75.913 34.0856 78.554C34.0856 81.29 36.0806 83.228 38.3986 83.228C39.7666 83.228 40.9826 82.525 41.5526 81.499V83H43.4146V74.127H41.5526V75.457ZM38.7216 81.48C37.1636 81.48 35.9666 80.15 35.9666 78.554C35.9666 76.977 37.1636 75.647 38.6836 75.647C40.1086 75.647 41.5336 76.844 41.5336 78.554C41.5336 80.226 40.2036 81.48 38.7216 81.48ZM56.7981 73.899C55.9051 73.899 54.5181 74.222 53.7581 75.761C53.2261 74.583 52.1431 73.899 50.8511 73.899C49.6351 73.899 48.4381 74.545 48.0771 75.59V74.127H46.2151V83H48.0771V78.231C48.0771 76.426 49.2551 75.685 50.4141 75.685C51.5161 75.685 52.2761 76.578 52.2761 78.022V83H54.1571V78.573C54.1571 76.711 54.9171 75.666 56.3801 75.685C57.5771 75.685 58.3371 76.578 58.3371 78.022V83H60.2181V77.927C60.2181 75.4 59.0211 73.899 56.7981 73.899ZM66.9622 83.228C69.4892 83.228 71.6362 81.366 71.6362 78.554C71.6362 75.742 69.4892 73.899 66.9622 73.899C64.4352 73.899 62.3072 75.742 62.3072 78.554C62.3072 81.366 64.4352 83.228 66.9622 83.228ZM66.9622 81.48C65.4422 81.48 64.1692 80.283 64.1692 78.554C64.1692 76.844 65.4422 75.647 66.9622 75.647C68.4822 75.647 69.7742 76.844 69.7742 78.554C69.7742 80.283 68.4822 81.48 66.9622 81.48ZM78.2131 73.899C77.0731 73.899 76.1801 74.564 75.7241 76.122V74.127H73.8431V83H75.7241V79.808C75.7241 77.414 76.4841 75.685 78.0991 75.685C78.4601 75.685 78.9161 75.761 79.4101 75.989L79.7331 74.222C79.4481 74.051 78.8211 73.899 78.2131 73.899ZM86.242 73.899C85.045 73.899 83.753 74.45 83.164 75.457V74.127H81.302V87.313H83.164V81.689C83.753 82.696 84.988 83.228 86.242 83.228C88.655 83.228 90.65 81.404 90.65 78.573C90.65 75.761 88.636 73.899 86.242 73.899ZM86.014 81.48C84.646 81.48 83.183 80.378 83.183 78.592C83.183 76.806 84.532 75.647 86.014 75.647C87.553 75.647 88.769 76.92 88.769 78.592C88.769 80.264 87.553 81.48 86.014 81.48ZM97.6116 73.899C96.6616 73.899 95.2366 74.393 94.7236 75.476V69.301H92.8616V83H94.7236V78.231C94.7236 76.407 96.1296 75.723 97.2886 75.723C98.4286 75.723 99.3026 76.597 99.3026 78.041V83H101.165V77.927C101.184 75.4 99.8536 73.899 97.6116 73.899ZM104.758 72.094C105.461 72.094 106.031 71.581 106.031 70.897C106.031 70.213 105.461 69.7 104.758 69.7C104.074 69.7 103.485 70.213 103.485 70.897C103.485 71.581 104.074 72.094 104.758 72.094ZM105.689 83V74.127H103.827V83H105.689ZM111.221 83.228C113.045 83.228 114.717 82.202 114.717 80.511C114.717 79.561 114.299 78.383 112.399 77.908L111.05 77.585C110.499 77.452 109.986 77.148 109.986 76.597C109.986 75.989 110.518 75.476 111.297 75.476C111.962 75.476 112.627 75.913 112.627 76.559H114.413C114.413 74.697 112.779 73.899 111.259 73.899C109.416 73.899 108.105 75.096 108.105 76.54C108.105 77.851 108.865 78.706 110.518 79.143L111.715 79.428C112.38 79.58 112.855 79.884 112.855 80.473C112.855 81.138 112.228 81.651 111.202 81.651C110.195 81.651 109.568 81.043 109.568 80.34H107.839C107.877 82.202 109.568 83.228 111.221 83.228ZM127.473 73.899C126.58 73.899 125.193 74.222 124.433 75.761C123.901 74.583 122.818 73.899 121.526 73.899C120.31 73.899 119.113 74.545 118.752 75.59V74.127H116.89V83H118.752V78.231C118.752 76.426 119.93 75.685 121.089 75.685C122.191 75.685 122.951 76.578 122.951 78.022V83H124.832V78.573C124.832 76.711 125.592 75.666 127.055 75.685C128.252 75.685 129.012 76.578 129.012 78.022V83H130.893V77.927C130.893 75.4 129.696 73.899 127.473 73.899ZM134.521 83.19C135.243 83.19 135.851 82.658 135.851 81.936C135.851 81.214 135.243 80.682 134.521 80.682C133.818 80.682 133.21 81.214 133.21 81.936C133.21 82.658 133.818 83.19 134.521 83.19Z" fill="black"/>
</svg>
