<svg width="83" height="83" viewBox="0 0 83 83" fill="none" xmlns="http://www.w3.org/2000/svg">
<path d="M41.5 0C18.6162 0 0 18.6162 0 41.5C0 64.3838 18.6162 83 41.5 83C64.3838 83 83 64.3838 83 41.5C83 18.6162 64.3838 0 41.5 0ZM54.3201 43.9451L37.0284 61.2367C36.354 61.911 35.4687 62.25 34.5833 62.25C33.698 62.25 32.8126 61.911 32.1382 61.2367C30.786 59.8845 30.786 57.6988 32.1382 56.3466L46.985 41.5L32.1383 26.6534C30.7862 25.3012 30.7862 23.1155 32.1383 21.7633C33.4905 20.4112 35.6762 20.4112 37.0284 21.7633L54.3201 39.0551C55.6723 40.4072 55.6723 42.5928 54.3201 43.9451Z" fill="#2D4B1E"/>
</svg>
