<!-- Generator: Adobe Illustrator 23.1.1, SVG Export Plug-In  -->
<svg version="1.1" xmlns="http://www.w3.org/2000/svg" xmlns:xlink="http://www.w3.org/1999/xlink" x="0px" y="0px" width="82.31px"
	 height="125.07px" viewBox="0 0 82.31 125.07" style="enable-background:new 0 0 82.31 125.07;" xml:space="preserve">
<style type="text/css">
	.st0{fill:#C36C3D;}
</style>
<defs>
</defs>
<g>
	<path class="st0" d="M58.02,112.28L55.4,96.47c-0.4-2.41-2.53-4.15-4.98-4.05l-17.4,0.7c-2.23,0.09-4.11,1.69-4.56,3.88
		l-4.89,24.18c-0.49,2.42-2.71,4.08-5.17,3.87l-13.98-1.2c-2.97-0.25-5.01-3.1-4.29-5.99L27.6,6.63c1.03-4.17,4.94-6.97,9.22-6.6
		l20.56,1.78c2.16,0.19,3.93,1.78,4.34,3.91l20.49,106.07c0.61,3.15-1.96,6.02-5.16,5.75l-14.66-1.21
		C60.19,116.14,58.38,114.48,58.02,112.28z M38.27,48.04l-4.24,20.91c-0.62,3.07,1.79,5.92,4.92,5.81l7.53-0.27
		c2.91-0.1,5.07-2.73,4.61-5.61l-3.29-20.64C46.96,42.9,39.34,42.75,38.27,48.04z"/>
</g>
</svg>
