<!-- Generator: Adobe Illustrator 23.1.1, SVG Export Plug-In  -->
<svg version="1.1" xmlns="http://www.w3.org/2000/svg" xmlns:xlink="http://www.w3.org/1999/xlink" x="0px" y="0px"
	 width="203.58px" height="54.11px" viewBox="0 0 203.58 54.11" style="enable-background:new 0 0 203.58 54.11;"
	 xml:space="preserve">
<style type="text/css">
	.st0{fill:#FFFFFF;}
</style>
<defs>
</defs>
<g>
	<path class="st0" d="M0.56,41.46C0.23,41.42-0.02,41.13,0,40.79c0.46-8.72,0.7-16.51,0.7-23.37C0.7,10.82,0.68,6.34,0.65,4
		c0-0.25,0.14-0.48,0.37-0.59c3.99-1.82,8.14-2.74,12.44-2.74c3.29,0,6.04,1.05,8.26,3.14c2.22,2.09,3.33,5.04,3.33,8.85
		c0,4.27-2.93,8.38-8.78,12.33c-0.3,0.21-0.38,0.62-0.15,0.91c3.15,3.97,6.36,8.31,9.64,13.02c0.2,0.28,0.13,0.67-0.14,0.88
		l-4.35,3.22c-0.29,0.21-0.7,0.15-0.9-0.15c-2.26-3.35-5.99-8.47-11.19-15.37c-0.36-0.48-1.12-0.22-1.13,0.37
		c-0.1,4.82-0.25,9.38-0.44,13.69c-0.02,0.37-0.34,0.64-0.7,0.6L0.56,41.46z M15.31,17.4c1.94-1.92,2.91-3.67,2.91-5.24
		s-0.46-2.78-1.37-3.64c-0.92-0.86-2.12-1.29-3.61-1.29c-1.37,0-2.87,0.27-4.49,0.8C8.49,8.12,8.31,8.38,8.31,8.65
		c0,5.42-0.02,9.61-0.05,12.57c0,0.47,0.5,0.78,0.92,0.57C11.55,20.56,13.59,19.1,15.31,17.4z"/>
	<path class="st0" d="M27.24,30.3c0-3.47,0.71-6.87,2.13-10.19c0.75-1.68,1.8-3.05,3.16-4.12c1.36-1.06,2.88-1.6,4.56-1.6
		c1.68,0,3.13,0.38,4.34,1.15c1.21,0.77,2.14,1.78,2.77,3.05c1.23,2.5,1.85,5.23,1.85,8.18c0,4.07-0.83,7.68-2.49,10.84
		c-1.66,3.16-3.99,4.73-6.97,4.73C30.36,42.34,27.24,38.33,27.24,30.3z M33.79,30.81c0,4.22,0.93,6.33,2.8,6.33
		c0.82,0,1.51-1.18,2.07-3.56c0.56-2.37,0.84-4.64,0.84-6.8c0-4.78-0.78-7.17-2.35-7.17c-1.01,0-1.82,1.28-2.44,3.84
		C34.1,26,33.79,28.46,33.79,30.81z"/>
	<path class="st0" d="M60.13,26.61c-0.34-0.03-0.59-0.33-0.57-0.67c0.03-0.41,0.05-0.88,0.05-1.41c0-0.82-0.17-1.66-0.5-2.52
		c-0.34-0.86-0.77-1.29-1.29-1.29c-1.04,0-1.8,1.2-2.27,3.61c-0.47,2.41-0.7,4.62-0.7,6.64c0,3.4,0.69,5.1,2.07,5.1
		c1.06,0,2.53-1.75,4.42-5.24c0.18-0.34,0.62-0.44,0.93-0.22l3.16,2.26c0.24,0.17,0.33,0.48,0.22,0.75
		c-0.98,2.51-2.18,4.52-3.6,6.03c-1.51,1.6-3.33,2.41-5.46,2.41s-4.04-0.84-5.74-2.52c-1.7-1.68-2.55-4.24-2.55-7.67
		c0-3.66,0.6-7.3,1.79-10.92c0.67-1.98,1.67-3.6,3-4.87c1.32-1.27,3.01-1.9,5.07-1.9c2.05,0,3.76,1.05,5.12,3.14
		c1.36,2.09,2.04,4.41,2.04,6.94c0,0.88-0.11,1.66-0.33,2.35c-0.09,0.27-0.37,0.43-0.65,0.41L60.13,26.61z"/>
	<path class="st0" d="M70.41,41.39c-0.32-0.03-0.56-0.28-0.57-0.6c-0.14-3.87-0.2-9.44-0.2-16.7c0-7.42,0.27-15.25,0.8-23.49
		c0.02-0.35,0.33-0.62,0.68-0.59l5.3,0.41c0.34,0.03,0.6,0.33,0.58,0.67c-0.5,8.28-0.76,16.28-0.8,24c0,0.6,0.76,0.86,1.13,0.39
		c3.11-3.97,5.53-7.85,7.25-11.64c0.18-0.38,0.66-0.49,0.98-0.21l3.49,3.05c0.21,0.18,0.28,0.48,0.17,0.73
		c-1.6,3.64-3.68,7.25-6.25,10.82C82.8,28.46,82.81,28.78,83,29c2.62,3.09,4.75,6,6.37,8.71c0.15,0.25,0.1,0.58-0.11,0.78
		l-3.34,3.17c-0.28,0.27-0.74,0.22-0.95-0.11c-1.82-2.71-4.38-5.83-7.68-9.36c-0.39-0.42-1.1-0.14-1.09,0.44
		c0.02,3.19,0.08,6.06,0.19,8.61c0.02,0.38-0.31,0.68-0.69,0.65L70.41,41.39z"/>
	<path class="st0" d="M117.9,8.69c-1.64,0-3.08,2.03-4.31,6.08c-1.23,4.05-1.85,7.64-1.85,10.78c0,6.57,1.72,9.86,5.15,9.86
		c0.97,0,1.82-0.42,2.55-1.26c0.73-0.84,1.25-1.71,1.57-2.6c0.28-0.8,0.62-1.86,1-3.2c0.08-0.29,0.36-0.48,0.66-0.46l5.87,0.46
		c0.38,0.03,0.66,0.4,0.57,0.78c-0.97,4.24-2.36,7.51-4.18,9.81c-1.92,2.43-4.6,3.64-8.04,3.64c-4.03,0-7.14-1.52-9.32-4.56
		c-2.18-3.04-3.28-6.92-3.28-11.62c0-5.49,1.08-10.83,3.25-16.02c1.04-2.58,2.51-4.69,4.4-6.36c1.88-1.66,4.04-2.49,6.47-2.49
		c2.99,0,5.15,0.99,6.5,2.97c0.67,0.97,1.22,1.96,1.65,2.97c0.43,1.01,0.74,2.3,0.92,3.86c0.31,2.29,0.51,4.74,0.59,7.34
		c0.01,0.38-0.31,0.69-0.69,0.66l-5.94-0.55c-0.32-0.03-0.57-0.31-0.57-0.63c-0.04-4.48-0.48-7.31-1.34-8.49
		C119.11,9.01,118.57,8.69,117.9,8.69z"/>
	<path class="st0" d="M146.6,13.24l4.24,2.47c0.26,0.15,0.37,0.45,0.28,0.73c-3.01,9.43-6.1,21.81-9.25,37.16
		c-0.06,0.31-0.36,0.54-0.68,0.51l-4.89-0.44c-0.38-0.03-0.64-0.38-0.56-0.75c0.6-2.84,1.52-6.6,2.76-11.29
		c0.04-0.15,0.02-0.31-0.05-0.44c-3.43-6.66-5.63-15-6.6-25c-0.04-0.4,0.3-0.74,0.69-0.7l4.98,0.49c0.3,0.03,0.54,0.28,0.57,0.58
		c0.46,5.41,1.13,10.18,2.01,14.32c0.14,0.66,1.09,0.66,1.24-0.01c1.44-6.5,2.89-12.26,4.33-17.26
		C145.79,13.21,146.25,13.03,146.6,13.24z"/>
	<path class="st0" d="M164.51,26.61c-0.34-0.03-0.59-0.33-0.57-0.67c0.03-0.41,0.05-0.88,0.05-1.41c0-0.82-0.17-1.66-0.5-2.52
		c-0.34-0.86-0.77-1.29-1.29-1.29c-1.04,0-1.8,1.2-2.27,3.61c-0.47,2.41-0.7,4.62-0.7,6.64c0,3.4,0.69,5.1,2.07,5.1
		c1.06,0,2.53-1.75,4.42-5.24c0.18-0.34,0.62-0.44,0.93-0.22l3.16,2.26c0.24,0.17,0.33,0.48,0.22,0.75
		c-0.98,2.51-2.18,4.52-3.6,6.03c-1.51,1.6-3.33,2.41-5.46,2.41s-4.04-0.84-5.74-2.52c-1.7-1.68-2.55-4.24-2.55-7.67
		c0-3.66,0.6-7.3,1.79-10.92c0.67-1.98,1.67-3.6,3-4.87c1.32-1.27,3.01-1.9,5.07-1.9c2.05,0,3.76,1.05,5.12,3.14
		c1.36,2.09,2.04,4.41,2.04,6.94c0,0.88-0.11,1.66-0.33,2.35c-0.09,0.27-0.37,0.43-0.65,0.41L164.51,26.61z"/>
	<path class="st0" d="M181.07,0.41c0.34,0.03,0.6,0.33,0.58,0.67c-0.54,9.2-0.8,17.5-0.8,24.91c0,7.01,0.08,12.09,0.24,15.24
		c0.02,0.38-0.31,0.69-0.69,0.66l-5.33-0.5c-0.32-0.03-0.56-0.28-0.57-0.6c-0.14-3.85-0.2-9.18-0.2-16c0-6.98,0.27-15.05,0.8-24.19
		c0.02-0.35,0.33-0.63,0.68-0.6L181.07,0.41z"/>
	<path class="st0" d="M194.23,36.86c1.32,0,2.73-1.18,4.21-3.55c0.18-0.29,0.56-0.39,0.86-0.22l3.18,1.88
		c0.3,0.18,0.4,0.57,0.22,0.87c-0.59,1-1.17,1.86-1.72,2.58c-0.65,0.86-1.63,1.68-2.94,2.46c-1.31,0.78-2.76,1.18-4.37,1.18
		c-2.35,0-4.33-1-5.94-3c-1.61-2-2.41-4.69-2.41-8.09c0-3.88,0.69-7.5,2.07-10.86c0.75-1.75,1.82-3.18,3.22-4.28
		c1.4-1.1,2.84-1.65,4.31-1.65c1.47,0,2.66,0.23,3.56,0.7c0.9,0.47,1.62,0.99,2.16,1.57c0.54,0.58,1.02,1.43,1.43,2.55
		s0.7,2.04,0.87,2.74c0.17,0.71,0.31,1.74,0.42,3.08c0.13,1.6,0.21,3.06,0.22,4.39c0,0.29-0.19,0.54-0.47,0.61
		c-2.79,0.74-6.3,1.41-10.52,2.03c-0.33,0.05-0.58,0.35-0.55,0.69c0.13,1.22,0.37,2.21,0.73,2.98
		C193.18,36.41,193.67,36.86,194.23,36.86z M195.46,19.66c-0.82,0-1.56,0.82-2.21,2.46c-0.57,1.43-0.93,3.05-1.09,4.87
		c-0.04,0.42,0.36,0.76,0.77,0.67c1.43-0.3,2.71-0.6,3.85-0.88c0.28-0.07,0.48-0.33,0.47-0.63
		C197.21,21.83,196.61,19.66,195.46,19.66z"/>
</g>
</svg>
