<!-- Generator: Adobe Illustrator 23.1.1, SVG Export Plug-In  -->
<svg version="1.1" xmlns="http://www.w3.org/2000/svg" xmlns:xlink="http://www.w3.org/1999/xlink" x="0px" y="0px" width="31.81px"
	 height="135.05px" viewBox="0 0 31.81 135.05" style="enable-background:new 0 0 31.81 135.05;" xml:space="preserve">
<style type="text/css">
	.st0{fill:#2C491B;}
</style>
<defs>
</defs>
<g>
	<path class="st0" d="M31.17,69.52c0,0-0.18,10.25-0.18,10.25c-0.25,11.23-0.37,19.64-0.37,25.25c0,9.88,0.21,18.62,0.65,26.22
		c0.07,1.14-0.59,2.21-1.65,2.63c-0.56,0.22-1.23,0.39-2.01,0.52c-1.89,0.3-4.48,0.46-7.78,0.46c-3.78,0-6.4-0.06-7.87-0.18
		c-3.24-0.17-6.15-0.05-8.71,0.35c-1.71,0.27-3.23-1.08-3.12-2.82c0.45-7,0.67-14.05,0.67-21.14c0-5.12-0.12-12.69-0.37-22.69
		c-0.25-8.3-0.37-15.49-0.37-21.59c0-7.83-0.37-16.36,0.73-24.08c0.64-4.47,8.29-2.86,11.46-2.83c4.76,0.05,9.88,0.26,14.38,1.16
		c1.88,0.38,4.59,0.82,5.02,2.9c0.43,2.05-0.15,5.04-0.18,7.17C31.4,57.24,31.28,63.38,31.17,69.52z M30.99,9.68
		c0,1.22,0.12,3.42,0.37,6.59c0,0,0.31,10.03,0.31,10.03c0.14,4.44-7.96,2.75-10.53,2.75c-5.23,0-10.94,0.12-16-0.63
		c-2.63-0.39-3.69-0.97-3.95-3.69c-0.31-3.22-0.44-6.35-0.58-9.56C0.4,10.71-0.92,0.93,5.96,0.18C11.24-0.4,17.1,0.62,22.47,0.62
		c2.43,0,8.3-0.22,8.35,3.44C30.84,6.22,30.9,8.09,30.99,9.68z"/>
</g>
</svg>
