<svg width="242" height="29" viewBox="0 0 242 29" fill="none" xmlns="http://www.w3.org/2000/svg">
<path d="M1.03938 17.89C1.93938 20.38 4.54938 22.3 7.99938 22.3C11.9594 22.3 14.7494 19.99 15.0494 16.75C15.3794 13.78 13.6394 11.44 9.46938 10.33L6.82938 9.64C4.36938 9.01 4.06938 7.75 4.06938 6.94C4.06938 5.23 5.74938 4.09 7.63938 4.09C8.77938 4.09 10.1594 4.36 11.0894 5.95C11.5094 6.76 12.1394 7.18 13.0694 6.88C13.8494 6.64 14.2094 5.71 13.9094 4.93C12.9194 2.35 10.8494 1.09 7.69938 1.09C4.06938 1.09 0.889375 3.46 0.889375 7C0.889375 8.83 1.57938 11.35 6.01938 12.55L8.62938 13.21C10.5494 13.66 12.0194 14.65 11.8994 16.57C11.6894 18.07 10.4294 19.39 7.99938 19.39C5.77938 19.39 4.72938 18.25 4.06938 16.9C3.67938 15.94 2.86938 15.64 1.99938 15.88C1.18938 16.09 0.769375 17.08 1.03938 17.89ZM20.643 13.84C20.943 11.68 22.623 10.39 24.783 10.39C26.883 10.39 28.473 11.65 28.773 13.84H20.643ZM31.803 14.68C31.683 10.39 28.683 7.69 24.783 7.69C20.793 7.69 17.583 10.51 17.583 14.95C17.583 19.39 20.793 22.3 24.783 22.3C26.853 22.3 28.893 21.55 30.303 20.08C30.843 19.51 30.813 18.58 30.243 18.13C29.613 17.62 28.773 17.83 28.263 18.25C27.243 19.09 26.403 19.6 24.933 19.6C22.683 19.6 20.943 18.25 20.643 16.09H30.393C31.143 16.09 31.803 15.49 31.803 14.68ZM45.7771 14.95C45.7771 17.68 43.7671 19.3 41.4871 19.3C39.1471 19.3 37.2571 17.53 37.2571 14.95C37.2571 12.37 39.1471 10.69 41.4871 10.69C43.5871 10.69 45.7771 12.19 45.7771 14.95ZM45.8071 10C44.9371 8.47 43.0771 7.69 41.0971 7.69C37.2871 7.69 34.1071 10.51 34.1071 15.01C34.1071 19.42 37.3471 22.3 41.1271 22.3C43.0171 22.3 44.9371 21.46 45.8071 19.96V20.59C45.8071 21.43 46.4971 22.15 47.3971 22.15C48.2371 22.15 48.8971 21.43 48.8971 20.59V1.78C48.8971 0.939999 48.2371 0.22 47.3971 0.22C46.4971 0.22 45.8071 0.939999 45.8071 1.78V10ZM52.5691 2.32C52.5691 3.43 53.5291 4.27 54.6391 4.27C55.7791 4.27 56.6791 3.43 56.6791 2.32C56.6791 1.21 55.7791 0.37 54.6391 0.37C53.5291 0.37 52.5691 1.21 52.5691 2.32ZM56.1991 20.59C56.1991 21.43 55.5091 22.15 54.6091 22.15C53.7691 22.15 53.1091 21.43 53.1091 20.59V9.4C53.1091 8.56 53.7691 7.84 54.6091 7.84C55.5091 7.84 56.1991 8.56 56.1991 9.4V20.59ZM63.4354 9.4C63.4354 8.56 62.7754 7.84 61.9354 7.84C61.0354 7.84 60.3454 8.56 60.3454 9.4V20.59C60.3454 21.43 61.0054 22.15 61.8454 22.15C62.7454 22.15 63.4354 21.43 63.4354 20.59V14.47C63.4354 11.74 65.1754 10.72 66.9754 10.72C68.6254 10.72 69.8254 11.98 69.8254 14.14V20.59C69.8254 21.43 70.4854 22.15 71.3254 22.15C72.2254 22.15 72.9154 21.43 72.9154 20.59V14.47C72.9154 12.22 74.2654 10.72 76.3054 10.72C78.1054 10.72 79.2754 12.01 79.2754 14.2V20.59C79.2754 21.43 79.9354 22.15 80.7754 22.15C81.6754 22.15 82.3654 21.43 82.3654 20.59V13.93C82.3654 9.94 80.4154 7.69 76.9654 7.69C75.6754 7.69 73.5754 8.05 72.2554 10.48C71.4754 8.71 70.0654 7.69 67.8454 7.69C66.7354 7.69 64.3654 8.14 63.4354 10.09V9.4ZM88.6703 13.84C88.9703 11.68 90.6503 10.39 92.8103 10.39C94.9103 10.39 96.5003 11.65 96.8003 13.84H88.6703ZM99.8303 14.68C99.7103 10.39 96.7103 7.69 92.8103 7.69C88.8203 7.69 85.6103 10.51 85.6103 14.95C85.6103 19.39 88.8203 22.3 92.8103 22.3C94.8803 22.3 96.9203 21.55 98.3303 20.08C98.8703 19.51 98.8403 18.58 98.2703 18.13C97.6403 17.62 96.8003 17.83 96.2903 18.25C95.2703 19.09 94.4303 19.6 92.9603 19.6C90.7103 19.6 88.9703 18.25 88.6703 16.09H98.4203C99.1703 16.09 99.8303 15.49 99.8303 14.68ZM102.884 20.59C102.884 21.43 103.544 22.15 104.384 22.15C105.284 22.15 105.974 21.43 105.974 20.59V14.47C105.974 11.71 107.744 10.72 109.574 10.72C111.374 10.72 112.514 11.98 112.514 14.2V20.59C112.514 21.43 113.174 22.15 114.014 22.15C114.914 22.15 115.604 21.43 115.604 20.59V13.84C115.604 9.88 113.654 7.69 110.264 7.69C108.704 7.69 106.784 8.47 105.974 10.09V9.4C105.974 8.56 105.314 7.84 104.474 7.84C103.574 7.84 102.884 8.56 102.884 9.4V20.59ZM120.723 20.59C120.723 21.43 121.383 22.15 122.223 22.15C123.123 22.15 123.813 21.43 123.813 20.59V10.54H125.643C126.333 10.54 126.933 10 126.933 9.31C126.933 8.56 126.333 7.99 125.643 7.99H123.813V4.09C123.813 3.25 123.123 2.53 122.223 2.53C121.383 2.53 120.723 3.25 120.723 4.09V7.99H119.343C118.653 7.99 118.053 8.56 118.053 9.31C118.053 10 118.653 10.54 119.343 10.54H120.723V20.59ZM140.233 20.59C140.233 21.43 140.893 22.15 141.733 22.15C142.633 22.15 143.323 21.43 143.323 20.59V9.4C143.323 8.56 142.633 7.84 141.733 7.84C140.893 7.84 140.233 8.56 140.233 9.4V9.97C139.273 8.38 137.203 7.69 135.523 7.69C131.743 7.69 128.413 10.51 128.413 14.98C128.413 19.45 131.743 22.3 135.523 22.3C137.263 22.3 139.303 21.52 140.233 19.99V20.59ZM131.593 14.95C131.593 12.37 133.543 10.69 135.883 10.69C137.983 10.69 140.203 12.19 140.203 14.95C140.203 17.71 138.163 19.3 135.883 19.3C133.543 19.3 131.593 17.53 131.593 14.95ZM154.314 10.6C155.214 10.6 156.564 10.93 156.834 9.58C157.014 8.77 156.504 7.99 155.724 7.81C155.304 7.72 154.854 7.69 154.404 7.69C152.664 7.69 151.284 8.71 150.564 11.2V9.4C150.564 8.56 149.874 7.84 148.974 7.84C148.134 7.84 147.474 8.56 147.474 9.4V20.59C147.474 21.43 148.134 22.15 148.974 22.15C149.874 22.15 150.564 21.43 150.564 20.59V16.96C150.564 13.24 151.674 10.6 154.314 10.6ZM170.923 9.85C171.253 9.07 170.773 8.11 169.963 7.9C169.153 7.69 168.373 8.11 168.043 8.89L164.473 17.59L160.933 8.89C160.603 8.11 159.823 7.69 159.013 7.9C158.203 8.11 157.723 9.07 158.053 9.85L162.823 21.34L160.543 26.95C160.243 27.73 160.693 28.69 161.503 28.9C162.313 29.11 163.093 28.69 163.423 27.91L170.923 9.85ZM189.333 4.27C191.553 4.27 192.453 6.16 192.453 7.9C192.453 9.67 191.523 11.5 189.213 11.5H184.593V4.27H189.333ZM190.413 14.29C194.223 13.87 195.753 10.93 195.753 7.9C195.753 4.6 193.893 1.33 189.453 1.33H183.093C182.133 1.33 181.413 1.99 181.413 3.07V20.53C181.413 21.4 182.103 22.15 182.943 22.15C183.873 22.15 184.593 21.4 184.593 20.53V14.41H186.933L191.643 21.49C192.153 22.21 193.143 22.33 193.833 21.91C194.613 21.43 194.673 20.26 194.193 19.6L190.413 14.29ZM205.107 19.3C202.797 19.3 200.877 17.59 200.877 14.95C200.877 12.37 202.797 10.69 205.107 10.69C207.447 10.69 209.397 12.37 209.397 14.95C209.397 17.59 207.447 19.3 205.107 19.3ZM205.107 22.3C209.097 22.3 212.457 19.39 212.457 14.95C212.457 10.51 209.097 7.69 205.107 7.69C201.147 7.69 197.817 10.51 197.817 14.95C197.817 19.39 201.147 22.3 205.107 22.3ZM215.044 15.01C215.044 19.45 218.494 22.3 222.514 22.3C224.134 22.3 225.604 21.85 226.804 21.01C227.464 20.56 227.614 19.69 227.164 18.94C226.744 18.25 225.694 18.22 225.034 18.61C224.314 19.03 223.414 19.3 222.514 19.3C220.174 19.3 218.104 17.62 218.104 15.01C218.104 12.4 220.174 10.69 222.514 10.69C223.414 10.69 224.314 10.96 225.034 11.38C225.694 11.77 226.744 11.74 227.164 11.05C227.614 10.3 227.464 9.43 226.804 8.98C225.604 8.14 224.134 7.69 222.514 7.69C218.494 7.69 215.044 10.57 215.044 15.01ZM236.408 14.08L240.008 10.42C240.578 9.85 240.638 8.89 240.068 8.26C239.498 7.72 238.568 7.69 237.968 8.26L233.798 12.58V1.78C233.798 0.939999 233.108 0.22 232.208 0.22C231.368 0.22 230.708 0.939999 230.708 1.78V20.59C230.708 21.43 231.368 22.15 232.208 22.15C233.108 22.15 233.798 21.43 233.798 20.59V15.49L239.468 21.7C239.978 22.27 240.938 22.33 241.568 21.76C242.138 21.22 242.138 20.29 241.598 19.69L236.408 14.08Z" fill="black"/>
</svg>
