<svg width="361" height="84" viewBox="0 0 361 84" fill="none" xmlns="http://www.w3.org/2000/svg">
<path d="M5.605 14.228C8.246 14.228 10.032 12.461 10.032 10.276C10.032 8.357 8.645 7.236 6.441 6.647L4.788 6.191C3.135 5.754 3.002 4.899 3.002 4.481C3.002 3.284 4.104 2.467 5.339 2.467C6.688 2.467 7.657 3.322 7.657 4.557H9.595C9.595 2.163 7.752 0.680999 5.396 0.680999C3.078 0.680999 1.045 2.22 1.045 4.519C1.045 5.602 1.501 7.255 4.294 7.958L5.966 8.376C7.03 8.661 8.075 9.212 8.075 10.371C8.075 11.454 7.163 12.442 5.605 12.442C3.971 12.442 2.926 11.359 2.888 10.238H0.95C0.95 12.347 2.812 14.228 5.605 14.228ZM20.734 9.516C20.734 6.723 18.815 4.899 16.288 4.899C13.761 4.899 11.709 6.723 11.709 9.535C11.709 12.347 13.723 14.228 16.288 14.228C17.979 14.228 19.575 13.43 20.354 11.948L18.872 11.207C18.378 12.024 17.409 12.499 16.364 12.499C14.939 12.499 13.875 11.758 13.628 10.314H20.696C20.715 10.029 20.734 9.763 20.734 9.516ZM13.647 8.813C13.913 7.331 14.939 6.628 16.307 6.628C17.675 6.628 18.682 7.426 18.872 8.813H13.647ZM29.8264 6.438C29.2374 5.431 28.0024 4.899 26.7484 4.899C24.3544 4.899 22.3594 6.723 22.3594 9.554C22.3594 12.366 24.3544 14.228 26.7674 14.228C27.9644 14.228 29.2374 13.677 29.8264 12.67V14H31.6884V0.301H29.8264V6.438ZM26.9764 12.48C25.4564 12.48 24.2214 11.188 24.2214 9.535C24.2214 7.863 25.4564 6.647 26.9764 6.647C28.3444 6.647 29.8074 7.749 29.8074 9.535C29.8074 11.321 28.4774 12.48 26.9764 12.48ZM35.401 3.094C36.104 3.094 36.674 2.581 36.674 1.897C36.674 1.213 36.104 0.699999 35.401 0.699999C34.717 0.699999 34.128 1.213 34.128 1.897C34.128 2.581 34.717 3.094 35.401 3.094ZM36.332 14V5.127H34.47V14H36.332ZM49.7102 4.899C48.8172 4.899 47.4302 5.222 46.6702 6.761C46.1382 5.583 45.0552 4.899 43.7632 4.899C42.5472 4.899 41.3502 5.545 40.9892 6.59V5.127H39.1272V14H40.9892V9.231C40.9892 7.426 42.1672 6.685 43.3262 6.685C44.4282 6.685 45.1882 7.578 45.1882 9.022V14H47.0692V9.573C47.0692 7.711 47.8292 6.666 49.2922 6.685C50.4892 6.685 51.2492 7.578 51.2492 9.022V14H53.1302V8.927C53.1302 6.4 51.9332 4.899 49.7102 4.899ZM64.2633 9.516C64.2633 6.723 62.3443 4.899 59.8173 4.899C57.2903 4.899 55.2383 6.723 55.2383 9.535C55.2383 12.347 57.2523 14.228 59.8173 14.228C61.5083 14.228 63.1043 13.43 63.8833 11.948L62.4013 11.207C61.9073 12.024 60.9383 12.499 59.8933 12.499C58.4683 12.499 57.4043 11.758 57.1573 10.314H64.2253C64.2443 10.029 64.2633 9.763 64.2633 9.516ZM57.1763 8.813C57.4423 7.331 58.4683 6.628 59.8363 6.628C61.2043 6.628 62.2113 7.426 62.4013 8.813H57.1763ZM71.1897 4.899C70.2397 4.899 68.8147 5.393 68.3017 6.495V5.127H66.4397V14H68.3017V9.231C68.3017 7.388 69.7077 6.723 70.8667 6.723C72.0067 6.723 72.8807 7.597 72.8807 9.041V14H74.7427V8.927C74.7617 6.4 73.4317 4.899 71.1897 4.899ZM79.8972 5.127V1.802H78.0352V5.127H76.4392V6.685H78.0352V14H79.8972V6.685H81.7972V5.127H79.8972ZM90.2772 6.457C89.7072 5.45 88.4912 4.899 87.1992 4.899C84.6912 4.899 82.8102 6.913 82.8102 9.554C82.8102 12.29 84.8052 14.228 87.1232 14.228C88.4912 14.228 89.7072 13.525 90.2772 12.499V14H92.1392V5.127H90.2772V6.457ZM87.4462 12.48C85.8882 12.48 84.6912 11.15 84.6912 9.554C84.6912 7.977 85.8882 6.647 87.4082 6.647C88.8332 6.647 90.2582 7.844 90.2582 9.554C90.2582 11.226 88.9282 12.48 87.4462 12.48ZM99.3097 4.899C98.1697 4.899 97.2767 5.564 96.8207 7.122V5.127H94.9397V14H96.8207V10.808C96.8207 8.414 97.5807 6.685 99.1957 6.685C99.5567 6.685 100.013 6.761 100.507 6.989L100.83 5.222C100.545 5.051 99.9177 4.899 99.3097 4.899ZM105.838 11.302L103.292 5.127H101.278L104.831 13.601L102.912 18.313H104.888L110.398 5.127H108.384L105.838 11.302ZM121.037 4.899C119.897 4.899 119.004 5.564 118.548 7.122V5.127H116.667V14H118.548V10.808C118.548 8.414 119.308 6.685 120.923 6.685C121.284 6.685 121.74 6.761 122.234 6.989L122.557 5.222C122.272 5.051 121.645 4.899 121.037 4.899ZM127.933 14.228C130.46 14.228 132.607 12.366 132.607 9.554C132.607 6.742 130.46 4.899 127.933 4.899C125.406 4.899 123.278 6.742 123.278 9.554C123.278 12.366 125.406 14.228 127.933 14.228ZM127.933 12.48C126.413 12.48 125.14 11.283 125.14 9.554C125.14 7.844 126.413 6.647 127.933 6.647C129.453 6.647 130.745 7.844 130.745 9.554C130.745 11.283 129.453 12.48 127.933 12.48ZM139.013 14.228C140.457 14.228 141.692 13.639 142.471 12.708L141.236 11.549C140.723 12.119 139.944 12.48 139.051 12.48C137.398 12.48 136.087 11.245 136.087 9.554C136.087 7.863 137.398 6.647 139.051 6.647C139.944 6.647 140.723 7.008 141.236 7.578L142.471 6.419C141.692 5.488 140.457 4.899 139.013 4.899C136.448 4.899 134.225 6.742 134.225 9.554C134.225 12.366 136.448 14.228 139.013 14.228ZM148.034 8.965L151.777 5.127H149.25L146.343 8.148V0.301H144.481V14H146.343V9.782L150.219 14H152.651L148.034 8.965ZM156.42 14.228C158.244 14.228 159.916 13.202 159.916 11.511C159.916 10.561 159.498 9.383 157.598 8.908L156.249 8.585C155.698 8.452 155.185 8.148 155.185 7.597C155.185 6.989 155.717 6.476 156.496 6.476C157.161 6.476 157.826 6.913 157.826 7.559H159.612C159.612 5.697 157.978 4.899 156.458 4.899C154.615 4.899 153.304 6.096 153.304 7.54C153.304 8.851 154.064 9.706 155.717 10.143L156.914 10.428C157.579 10.58 158.054 10.884 158.054 11.473C158.054 12.138 157.427 12.651 156.401 12.651C155.394 12.651 154.767 12.043 154.767 11.34H153.038C153.076 13.202 154.767 14.228 156.42 14.228ZM173.718 6.457C173.148 5.45 171.932 4.899 170.64 4.899C168.132 4.899 166.251 6.913 166.251 9.554C166.251 12.29 168.246 14.228 170.564 14.228C171.932 14.228 173.148 13.525 173.718 12.499V14H175.58V5.127H173.718V6.457ZM170.887 12.48C169.329 12.48 168.132 11.15 168.132 9.554C168.132 7.977 169.329 6.647 170.849 6.647C172.274 6.647 173.699 7.844 173.699 9.554C173.699 11.226 172.369 12.48 170.887 12.48ZM182.75 4.899C181.61 4.899 180.717 5.564 180.261 7.122V5.127H178.38V14H180.261V10.808C180.261 8.414 181.021 6.685 182.636 6.685C182.997 6.685 183.453 6.761 183.947 6.989L184.27 5.222C183.985 5.051 183.358 4.899 182.75 4.899ZM194.035 9.516C194.035 6.723 192.116 4.899 189.589 4.899C187.062 4.899 185.01 6.723 185.01 9.535C185.01 12.347 187.024 14.228 189.589 14.228C191.28 14.228 192.876 13.43 193.655 11.948L192.173 11.207C191.679 12.024 190.71 12.499 189.665 12.499C188.24 12.499 187.176 11.758 186.929 10.314H193.997C194.016 10.029 194.035 9.763 194.035 9.516ZM186.948 8.813C187.214 7.331 188.24 6.628 189.608 6.628C190.976 6.628 191.983 7.426 192.173 8.813H186.948ZM206.168 2.049V0.301H205.18C202.767 0.301 201.722 1.878 201.722 4.291V5.127H200.012V6.685H201.722V14H203.584V6.685H205.617V5.127H203.584V4.082C203.565 2.961 203.983 2.049 205.522 2.049H206.168ZM211.262 14.228C213.789 14.228 215.936 12.366 215.936 9.554C215.936 6.742 213.789 4.899 211.262 4.899C208.735 4.899 206.607 6.742 206.607 9.554C206.607 12.366 208.735 14.228 211.262 14.228ZM211.262 12.48C209.742 12.48 208.469 11.283 208.469 9.554C208.469 7.844 209.742 6.647 211.262 6.647C212.782 6.647 214.074 7.844 214.074 9.554C214.074 11.283 212.782 12.48 211.262 12.48ZM222.513 4.899C221.373 4.899 220.48 5.564 220.024 7.122V5.127H218.143V14H220.024V10.808C220.024 8.414 220.784 6.685 222.399 6.685C222.76 6.685 223.216 6.761 223.71 6.989L224.033 5.222C223.748 5.051 223.121 4.899 222.513 4.899ZM236.185 4.899C235.292 4.899 233.905 5.222 233.145 6.761C232.613 5.583 231.53 4.899 230.238 4.899C229.022 4.899 227.825 5.545 227.464 6.59V5.127H225.602V14H227.464V9.231C227.464 7.426 228.642 6.685 229.801 6.685C230.903 6.685 231.663 7.578 231.663 9.022V14H233.544V9.573C233.544 7.711 234.304 6.666 235.767 6.685C236.964 6.685 237.724 7.578 237.724 9.022V14H239.605V8.927C239.605 6.4 238.408 4.899 236.185 4.899ZM250.738 9.516C250.738 6.723 248.819 4.899 246.292 4.899C243.765 4.899 241.713 6.723 241.713 9.535C241.713 12.347 243.727 14.228 246.292 14.228C247.983 14.228 249.579 13.43 250.358 11.948L248.876 11.207C248.382 12.024 247.413 12.499 246.368 12.499C244.943 12.499 243.879 11.758 243.632 10.314H250.7C250.719 10.029 250.738 9.763 250.738 9.516ZM243.651 8.813C243.917 7.331 244.943 6.628 246.311 6.628C247.679 6.628 248.686 7.426 248.876 8.813H243.651ZM259.83 6.438C259.241 5.431 258.006 4.899 256.752 4.899C254.358 4.899 252.363 6.723 252.363 9.554C252.363 12.366 254.358 14.228 256.771 14.228C257.968 14.228 259.241 13.677 259.83 12.67V14H261.692V0.301H259.83V6.438ZM256.98 12.48C255.46 12.48 254.225 11.188 254.225 9.535C254.225 7.863 255.46 6.647 256.98 6.647C258.348 6.647 259.811 7.749 259.811 9.535C259.811 11.321 258.481 12.48 256.98 12.48ZM274.145 4.899C272.891 4.899 271.656 5.431 271.067 6.438V0.301H269.205V14H271.067V12.67C271.656 13.677 272.948 14.228 274.145 14.228C276.539 14.228 278.553 12.366 278.553 9.554C278.553 6.723 276.558 4.899 274.145 4.899ZM273.917 12.48C272.435 12.48 271.086 11.321 271.086 9.535C271.086 7.749 272.549 6.647 273.917 6.647C275.456 6.647 276.672 7.863 276.672 9.535C276.672 11.188 275.456 12.48 273.917 12.48ZM283.981 11.302L281.435 5.127H279.421L282.974 13.601L281.055 18.313H283.031L288.541 5.127H286.527L283.981 11.302ZM5.586 37.228C7.03 37.228 8.265 36.639 9.044 35.708L7.809 34.549C7.296 35.119 6.517 35.48 5.624 35.48C3.971 35.48 2.66 34.245 2.66 32.554C2.66 30.863 3.971 29.647 5.624 29.647C6.517 29.647 7.296 30.008 7.809 30.578L9.044 29.419C8.265 28.488 7.03 27.899 5.586 27.899C3.021 27.899 0.798 29.742 0.798 32.554C0.798 35.366 3.021 37.228 5.586 37.228ZM14.9349 37.228C17.4619 37.228 19.6089 35.366 19.6089 32.554C19.6089 29.742 17.4619 27.899 14.9349 27.899C12.4079 27.899 10.2799 29.742 10.2799 32.554C10.2799 35.366 12.4079 37.228 14.9349 37.228ZM14.9349 35.48C13.4149 35.48 12.1419 34.283 12.1419 32.554C12.1419 30.844 13.4149 29.647 14.9349 29.647C16.4549 29.647 17.7469 30.844 17.7469 32.554C17.7469 34.283 16.4549 35.48 14.9349 35.48ZM32.3987 27.899C31.5057 27.899 30.1187 28.222 29.3587 29.761C28.8267 28.583 27.7437 27.899 26.4517 27.899C25.2357 27.899 24.0387 28.545 23.6777 29.59V28.127H21.8157V37H23.6777V32.231C23.6777 30.426 24.8557 29.685 26.0147 29.685C27.1167 29.685 27.8767 30.578 27.8767 32.022V37H29.7577V32.573C29.7577 30.711 30.5177 29.666 31.9807 29.685C33.1777 29.685 33.9377 30.578 33.9377 32.022V37H35.8187V31.927C35.8187 29.4 34.6217 27.899 32.3987 27.899ZM43.4178 27.899C42.2208 27.899 40.9288 28.45 40.3398 29.457V28.127H38.4778V41.313H40.3398V35.689C40.9288 36.696 42.1638 37.228 43.4178 37.228C45.8308 37.228 47.8258 35.404 47.8258 32.573C47.8258 29.761 45.8118 27.899 43.4178 27.899ZM43.1898 35.48C41.8218 35.48 40.3588 34.378 40.3588 32.592C40.3588 30.806 41.7078 29.647 43.1898 29.647C44.7288 29.647 45.9448 30.92 45.9448 32.592C45.9448 34.264 44.7288 35.48 43.1898 35.48ZM54.4074 27.899C53.2674 27.899 52.3744 28.564 51.9184 30.122V28.127H50.0374V37H51.9184V33.808C51.9184 31.414 52.6784 29.685 54.2934 29.685C54.6544 29.685 55.1104 29.761 55.6044 29.989L55.9274 28.222C55.6424 28.051 55.0154 27.899 54.4074 27.899ZM65.6921 32.516C65.6921 29.723 63.7731 27.899 61.2461 27.899C58.7191 27.899 56.6671 29.723 56.6671 32.535C56.6671 35.347 58.6811 37.228 61.2461 37.228C62.9371 37.228 64.5331 36.43 65.3121 34.948L63.8301 34.207C63.3361 35.024 62.3671 35.499 61.3221 35.499C59.8971 35.499 58.8331 34.758 58.5861 33.314H65.6541C65.6731 33.029 65.6921 32.763 65.6921 32.516ZM58.6051 31.813C58.8711 30.331 59.8971 29.628 61.2651 29.628C62.6331 29.628 63.6401 30.426 63.8301 31.813H58.6051ZM70.6044 37.228C72.4284 37.228 74.1004 36.202 74.1004 34.511C74.1004 33.561 73.6824 32.383 71.7824 31.908L70.4334 31.585C69.8824 31.452 69.3694 31.148 69.3694 30.597C69.3694 29.989 69.9014 29.476 70.6804 29.476C71.3454 29.476 72.0104 29.913 72.0104 30.559H73.7964C73.7964 28.697 72.1624 27.899 70.6424 27.899C68.7994 27.899 67.4884 29.096 67.4884 30.54C67.4884 31.851 68.2484 32.706 69.9014 33.143L71.0984 33.428C71.7634 33.58 72.2384 33.884 72.2384 34.473C72.2384 35.138 71.6114 35.651 70.5854 35.651C69.5784 35.651 68.9514 35.043 68.9514 34.34H67.2224C67.2604 36.202 68.9514 37.228 70.6044 37.228ZM79.0097 37.228C80.8337 37.228 82.5057 36.202 82.5057 34.511C82.5057 33.561 82.0877 32.383 80.1877 31.908L78.8387 31.585C78.2877 31.452 77.7747 31.148 77.7747 30.597C77.7747 29.989 78.3067 29.476 79.0857 29.476C79.7507 29.476 80.4157 29.913 80.4157 30.559H82.2017C82.2017 28.697 80.5677 27.899 79.0477 27.899C77.2047 27.899 75.8937 29.096 75.8937 30.54C75.8937 31.851 76.6537 32.706 78.3067 33.143L79.5037 33.428C80.1687 33.58 80.6437 33.884 80.6437 34.473C80.6437 35.138 80.0167 35.651 78.9907 35.651C77.9837 35.651 77.3567 35.043 77.3567 34.34H75.6277C75.6657 36.202 77.3567 37.228 79.0097 37.228ZM85.61 26.094C86.313 26.094 86.883 25.581 86.883 24.897C86.883 24.213 86.313 23.7 85.61 23.7C84.926 23.7 84.337 24.213 84.337 24.897C84.337 25.581 84.926 26.094 85.61 26.094ZM86.541 37V28.127H84.679V37H86.541ZM94.0862 27.899C93.1362 27.899 91.7112 28.393 91.1982 29.495V28.127H89.3362V37H91.1982V32.231C91.1982 30.388 92.6042 29.723 93.7632 29.723C94.9032 29.723 95.7772 30.597 95.7772 32.041V37H97.6392V31.927C97.6582 29.4 96.3282 27.899 94.0862 27.899ZM107.218 29.419C106.61 28.431 105.375 27.899 104.14 27.899C101.746 27.899 99.751 29.723 99.751 32.554C99.751 35.366 101.746 37.228 104.159 37.228C105.337 37.228 106.61 36.677 107.218 35.708V35.936C107.218 38.748 106.059 39.812 104.197 39.812C103.228 39.812 102.202 39.261 101.708 38.311L100.131 39.09C100.967 40.667 102.525 41.541 104.197 41.541C107.18 41.541 109.08 39.907 109.08 35.784V28.127H107.218V29.419ZM104.368 35.48C102.848 35.48 101.613 34.188 101.613 32.535C101.613 30.863 102.848 29.647 104.368 29.647C105.736 29.647 107.199 30.749 107.199 32.535C107.199 34.321 105.869 35.48 104.368 35.48ZM120.678 37.228C123.205 37.228 125.352 35.366 125.352 32.554C125.352 29.742 123.205 27.899 120.678 27.899C118.151 27.899 116.023 29.742 116.023 32.554C116.023 35.366 118.151 37.228 120.678 37.228ZM120.678 35.48C119.158 35.48 117.885 34.283 117.885 32.554C117.885 30.844 119.158 29.647 120.678 29.647C122.198 29.647 123.49 30.844 123.49 32.554C123.49 34.283 122.198 35.48 120.678 35.48ZM131.758 37.228C133.202 37.228 134.437 36.639 135.216 35.708L133.981 34.549C133.468 35.119 132.689 35.48 131.796 35.48C130.143 35.48 128.832 34.245 128.832 32.554C128.832 30.863 130.143 29.647 131.796 29.647C132.689 29.647 133.468 30.008 133.981 30.578L135.216 29.419C134.437 28.488 133.202 27.899 131.758 27.899C129.193 27.899 126.97 29.742 126.97 32.554C126.97 35.366 129.193 37.228 131.758 37.228ZM145.496 32.516C145.496 29.723 143.577 27.899 141.05 27.899C138.523 27.899 136.471 29.723 136.471 32.535C136.471 35.347 138.485 37.228 141.05 37.228C142.741 37.228 144.337 36.43 145.116 34.948L143.634 34.207C143.14 35.024 142.171 35.499 141.126 35.499C139.701 35.499 138.637 34.758 138.39 33.314H145.458C145.477 33.029 145.496 32.763 145.496 32.516ZM138.409 31.813C138.675 30.331 139.701 29.628 141.069 29.628C142.437 29.628 143.444 30.426 143.634 31.813H138.409ZM154.569 29.457C153.999 28.45 152.783 27.899 151.491 27.899C148.983 27.899 147.102 29.913 147.102 32.554C147.102 35.29 149.097 37.228 151.415 37.228C152.783 37.228 153.999 36.525 154.569 35.499V37H156.431V28.127H154.569V29.457ZM151.738 35.48C150.18 35.48 148.983 34.15 148.983 32.554C148.983 30.977 150.18 29.647 151.7 29.647C153.125 29.647 154.55 30.844 154.55 32.554C154.55 34.226 153.22 35.48 151.738 35.48ZM163.982 27.899C163.032 27.899 161.607 28.393 161.094 29.495V28.127H159.232V37H161.094V32.231C161.094 30.388 162.5 29.723 163.659 29.723C164.799 29.723 165.673 30.597 165.673 32.041V37H167.535V31.927C167.554 29.4 166.224 27.899 163.982 27.899ZM177.665 37.228C179.489 37.228 181.161 36.202 181.161 34.511C181.161 33.561 180.743 32.383 178.843 31.908L177.494 31.585C176.943 31.452 176.43 31.148 176.43 30.597C176.43 29.989 176.962 29.476 177.741 29.476C178.406 29.476 179.071 29.913 179.071 30.559H180.857C180.857 28.697 179.223 27.899 177.703 27.899C175.86 27.899 174.549 29.096 174.549 30.54C174.549 31.851 175.309 32.706 176.962 33.143L178.159 33.428C178.824 33.58 179.299 33.884 179.299 34.473C179.299 35.138 178.672 35.651 177.646 35.651C176.639 35.651 176.012 35.043 176.012 34.34H174.283C174.321 36.202 176.012 37.228 177.665 37.228ZM191.808 32.516C191.808 29.723 189.889 27.899 187.362 27.899C184.835 27.899 182.783 29.723 182.783 32.535C182.783 35.347 184.797 37.228 187.362 37.228C189.053 37.228 190.649 36.43 191.428 34.948L189.946 34.207C189.452 35.024 188.483 35.499 187.438 35.499C186.013 35.499 184.949 34.758 184.702 33.314H191.77C191.789 33.029 191.808 32.763 191.808 32.516ZM184.721 31.813C184.987 30.331 186.013 29.628 187.381 29.628C188.749 29.628 189.756 30.426 189.946 31.813H184.721ZM200.901 29.438C200.312 28.431 199.077 27.899 197.823 27.899C195.429 27.899 193.434 29.723 193.434 32.554C193.434 35.366 195.429 37.228 197.842 37.228C199.039 37.228 200.312 36.677 200.901 35.67V37H202.763V23.301H200.901V29.438ZM198.051 35.48C196.531 35.48 195.296 34.188 195.296 32.535C195.296 30.863 196.531 29.647 198.051 29.647C199.419 29.647 200.882 30.749 200.882 32.535C200.882 34.321 199.552 35.48 198.051 35.48ZM206.475 26.094C207.178 26.094 207.748 25.581 207.748 24.897C207.748 24.213 207.178 23.7 206.475 23.7C205.791 23.7 205.202 24.213 205.202 24.897C205.202 25.581 205.791 26.094 206.475 26.094ZM207.406 37V28.127H205.544V37H207.406ZM220.784 27.899C219.891 27.899 218.504 28.222 217.744 29.761C217.212 28.583 216.129 27.899 214.837 27.899C213.621 27.899 212.424 28.545 212.063 29.59V28.127H210.201V37H212.063V32.231C212.063 30.426 213.241 29.685 214.4 29.685C215.502 29.685 216.262 30.578 216.262 32.022V37H218.143V32.573C218.143 30.711 218.903 29.666 220.366 29.685C221.563 29.685 222.323 30.578 222.323 32.022V37H224.204V31.927C224.204 29.4 223.007 27.899 220.784 27.899ZM235.338 32.516C235.338 29.723 233.419 27.899 230.892 27.899C228.365 27.899 226.313 29.723 226.313 32.535C226.313 35.347 228.327 37.228 230.892 37.228C232.583 37.228 234.179 36.43 234.958 34.948L233.476 34.207C232.982 35.024 232.013 35.499 230.968 35.499C229.543 35.499 228.479 34.758 228.232 33.314H235.3C235.319 33.029 235.338 32.763 235.338 32.516ZM228.251 31.813C228.517 30.331 229.543 29.628 230.911 29.628C232.279 29.628 233.286 30.426 233.476 31.813H228.251ZM242.264 27.899C241.314 27.899 239.889 28.393 239.376 29.495V28.127H237.514V37H239.376V32.231C239.376 30.388 240.782 29.723 241.941 29.723C243.081 29.723 243.955 30.597 243.955 32.041V37H245.817V31.927C245.836 29.4 244.506 27.899 242.264 27.899ZM250.971 28.127V24.802H249.109V28.127H247.513V29.685H249.109V37H250.971V29.685H252.871V28.127H250.971ZM257.302 37.228C259.126 37.228 260.798 36.202 260.798 34.511C260.798 33.561 260.38 32.383 258.48 31.908L257.131 31.585C256.58 31.452 256.067 31.148 256.067 30.597C256.067 29.989 256.599 29.476 257.378 29.476C258.043 29.476 258.708 29.913 258.708 30.559H260.494C260.494 28.697 258.86 27.899 257.34 27.899C255.497 27.899 254.186 29.096 254.186 30.54C254.186 31.851 254.946 32.706 256.599 33.143L257.796 33.428C258.461 33.58 258.936 33.884 258.936 34.473C258.936 35.138 258.309 35.651 257.283 35.651C256.276 35.651 255.649 35.043 255.649 34.34H253.92C253.958 36.202 255.649 37.228 257.302 37.228ZM263.94 37.19C264.662 37.19 265.27 36.658 265.27 35.936C265.27 35.214 264.662 34.682 263.94 34.682C263.237 34.682 262.629 35.214 262.629 35.936C262.629 36.658 263.237 37.19 263.94 37.19ZM276.652 37.228C279.293 37.228 281.079 35.461 281.079 33.276C281.079 31.357 279.692 30.236 277.488 29.647L275.835 29.191C274.182 28.754 274.049 27.899 274.049 27.481C274.049 26.284 275.151 25.467 276.386 25.467C277.735 25.467 278.704 26.322 278.704 27.557H280.642C280.642 25.163 278.799 23.681 276.443 23.681C274.125 23.681 272.092 25.22 272.092 27.519C272.092 28.602 272.548 30.255 275.341 30.958L277.013 31.376C278.077 31.661 279.122 32.212 279.122 33.371C279.122 34.454 278.21 35.442 276.652 35.442C275.018 35.442 273.973 34.359 273.935 33.238H271.997C271.997 35.347 273.859 37.228 276.652 37.228ZM291.781 32.516C291.781 29.723 289.862 27.899 287.335 27.899C284.808 27.899 282.756 29.723 282.756 32.535C282.756 35.347 284.77 37.228 287.335 37.228C289.026 37.228 290.622 36.43 291.401 34.948L289.919 34.207C289.425 35.024 288.456 35.499 287.411 35.499C285.986 35.499 284.922 34.758 284.675 33.314H291.743C291.762 33.029 291.781 32.763 291.781 32.516ZM284.694 31.813C284.96 30.331 285.986 29.628 287.354 29.628C288.722 29.628 289.729 30.426 289.919 31.813H284.694ZM300.873 29.438C300.284 28.431 299.049 27.899 297.795 27.899C295.401 27.899 293.406 29.723 293.406 32.554C293.406 35.366 295.401 37.228 297.814 37.228C299.011 37.228 300.284 36.677 300.873 35.67V37H302.735V23.301H300.873V29.438ZM298.023 35.48C296.503 35.48 295.268 34.188 295.268 32.535C295.268 30.863 296.503 29.647 298.023 29.647C299.391 29.647 300.854 30.749 300.854 32.535C300.854 34.321 299.524 35.48 298.023 35.48ZM306.448 26.094C307.151 26.094 307.721 25.581 307.721 24.897C307.721 24.213 307.151 23.7 306.448 23.7C305.764 23.7 305.175 24.213 305.175 24.897C305.175 25.581 305.764 26.094 306.448 26.094ZM307.379 37V28.127H305.517V37H307.379ZM320.757 27.899C319.864 27.899 318.477 28.222 317.717 29.761C317.185 28.583 316.102 27.899 314.81 27.899C313.594 27.899 312.397 28.545 312.036 29.59V28.127H310.174V37H312.036V32.231C312.036 30.426 313.214 29.685 314.373 29.685C315.475 29.685 316.235 30.578 316.235 32.022V37H318.116V32.573C318.116 30.711 318.876 29.666 320.339 29.685C321.536 29.685 322.296 30.578 322.296 32.022V37H324.177V31.927C324.177 29.4 322.98 27.899 320.757 27.899ZM335.31 32.516C335.31 29.723 333.391 27.899 330.864 27.899C328.337 27.899 326.285 29.723 326.285 32.535C326.285 35.347 328.299 37.228 330.864 37.228C332.555 37.228 334.151 36.43 334.93 34.948L333.448 34.207C332.954 35.024 331.985 35.499 330.94 35.499C329.515 35.499 328.451 34.758 328.204 33.314H335.272C335.291 33.029 335.31 32.763 335.31 32.516ZM328.223 31.813C328.489 30.331 329.515 29.628 330.883 29.628C332.251 29.628 333.258 30.426 333.448 31.813H328.223ZM342.237 27.899C341.287 27.899 339.862 28.393 339.349 29.495V28.127H337.487V37H339.349V32.231C339.349 30.388 340.755 29.723 341.914 29.723C343.054 29.723 343.928 30.597 343.928 32.041V37H345.79V31.927C345.809 29.4 344.479 27.899 342.237 27.899ZM350.944 28.127V24.802H349.082V28.127H347.486V29.685H349.082V37H350.944V29.685H352.844V28.127H350.944ZM357.274 37.228C359.098 37.228 360.77 36.202 360.77 34.511C360.77 33.561 360.352 32.383 358.452 31.908L357.103 31.585C356.552 31.452 356.039 31.148 356.039 30.597C356.039 29.989 356.571 29.476 357.35 29.476C358.015 29.476 358.68 29.913 358.68 30.559H360.466C360.466 28.697 358.832 27.899 357.312 27.899C355.469 27.899 354.158 29.096 354.158 30.54C354.158 31.851 354.918 32.706 356.571 33.143L357.768 33.428C358.433 33.58 358.908 33.884 358.908 34.473C358.908 35.138 358.281 35.651 357.255 35.651C356.248 35.651 355.621 35.043 355.621 34.34H353.892C353.93 36.202 355.621 37.228 357.274 37.228ZM8.284 52.457C7.714 51.45 6.498 50.899 5.206 50.899C2.698 50.899 0.817 52.913 0.817 55.554C0.817 58.29 2.812 60.228 5.13 60.228C6.498 60.228 7.714 59.525 8.284 58.499V60H10.146V51.127H8.284V52.457ZM5.453 58.48C3.895 58.48 2.698 57.15 2.698 55.554C2.698 53.977 3.895 52.647 5.415 52.647C6.84 52.647 8.265 53.844 8.265 55.554C8.265 57.226 6.935 58.48 5.453 58.48ZM17.3166 50.899C16.1766 50.899 15.2836 51.564 14.8276 53.122V51.127H12.9466V60H14.8276V56.808C14.8276 54.414 15.5876 52.685 17.2026 52.685C17.5636 52.685 18.0196 52.761 18.5136 52.989L18.8366 51.222C18.5516 51.051 17.9246 50.899 17.3166 50.899ZM28.6012 55.516C28.6012 52.723 26.6822 50.899 24.1552 50.899C21.6282 50.899 19.5762 52.723 19.5762 55.535C19.5762 58.347 21.5902 60.228 24.1552 60.228C25.8462 60.228 27.4422 59.43 28.2212 57.948L26.7392 57.207C26.2452 58.024 25.2762 58.499 24.2312 58.499C22.8062 58.499 21.7422 57.758 21.4952 56.314H28.5632C28.5822 56.029 28.6012 55.763 28.6012 55.516ZM21.5142 54.813C21.7802 53.331 22.8062 52.628 24.1742 52.628C25.5422 52.628 26.5492 53.426 26.7392 54.813H21.5142ZM38.892 57.587L36.308 51.127H34.313L38.018 60H39.785L43.49 51.127H41.476L38.892 57.587ZM53.3532 55.516C53.3532 52.723 51.4342 50.899 48.9072 50.899C46.3802 50.899 44.3282 52.723 44.3282 55.535C44.3282 58.347 46.3422 60.228 48.9072 60.228C50.5982 60.228 52.1942 59.43 52.9732 57.948L51.4912 57.207C50.9972 58.024 50.0282 58.499 48.9832 58.499C47.5582 58.499 46.4942 57.758 46.2472 56.314H53.3152C53.3342 56.029 53.3532 55.763 53.3532 55.516ZM46.2662 54.813C46.5322 53.331 47.5582 52.628 48.9262 52.628C50.2942 52.628 51.3012 53.426 51.4912 54.813H46.2662ZM59.8996 50.899C58.7596 50.899 57.8666 51.564 57.4106 53.122V51.127H55.5296V60H57.4106V56.808C57.4106 54.414 58.1706 52.685 59.7856 52.685C60.1466 52.685 60.6026 52.761 61.0966 52.989L61.4196 51.222C61.1346 51.051 60.5076 50.899 59.8996 50.899ZM66.4276 57.302L63.8816 51.127H61.8676L65.4206 59.601L63.5016 64.313H65.4776L70.9876 51.127H68.9736L66.4276 57.302ZM79.9931 60.228C81.8171 60.228 83.4891 59.202 83.4891 57.511C83.4891 56.561 83.0711 55.383 81.1711 54.908L79.8221 54.585C79.2711 54.452 78.7581 54.148 78.7581 53.597C78.7581 52.989 79.2901 52.476 80.0691 52.476C80.7341 52.476 81.3991 52.913 81.3991 53.559H83.1851C83.1851 51.697 81.5511 50.899 80.0311 50.899C78.1881 50.899 76.8771 52.096 76.8771 53.54C76.8771 54.851 77.6371 55.706 79.2901 56.143L80.4871 56.428C81.1521 56.58 81.6271 56.884 81.6271 57.473C81.6271 58.138 81.0001 58.651 79.9741 58.651C78.9671 58.651 78.3401 58.043 78.3401 57.34H76.6111C76.6491 59.202 78.3401 60.228 79.9931 60.228ZM96.2454 50.899C95.3524 50.899 93.9654 51.222 93.2054 52.761C92.6734 51.583 91.5904 50.899 90.2984 50.899C89.0824 50.899 87.8854 51.545 87.5244 52.59V51.127H85.6624V60H87.5244V55.231C87.5244 53.426 88.7024 52.685 89.8614 52.685C90.9634 52.685 91.7234 53.578 91.7234 55.022V60H93.6044V55.573C93.6044 53.711 94.3644 52.666 95.8274 52.685C97.0244 52.685 97.7844 53.578 97.7844 55.022V60H99.6654V54.927C99.6654 52.4 98.4684 50.899 96.2454 50.899ZM109.222 52.457C108.652 51.45 107.436 50.899 106.144 50.899C103.636 50.899 101.755 52.913 101.755 55.554C101.755 58.29 103.75 60.228 106.068 60.228C107.436 60.228 108.652 59.525 109.222 58.499V60H111.084V51.127H109.222V52.457ZM106.391 58.48C104.833 58.48 103.636 57.15 103.636 55.554C103.636 53.977 104.833 52.647 106.353 52.647C107.778 52.647 109.203 53.844 109.203 55.554C109.203 57.226 107.873 58.48 106.391 58.48ZM115.746 60V46.301H113.884V60H115.746ZM120.403 60V46.301H118.541V60H120.403ZM132.3 50.899C131.16 50.899 130.267 51.564 129.811 53.122V51.127H127.93V60H129.811V56.808C129.811 54.414 130.571 52.685 132.186 52.685C132.547 52.685 133.003 52.761 133.497 52.989L133.82 51.222C133.535 51.051 132.908 50.899 132.3 50.899ZM139.196 60.228C141.723 60.228 143.87 58.366 143.87 55.554C143.87 52.742 141.723 50.899 139.196 50.899C136.669 50.899 134.541 52.742 134.541 55.554C134.541 58.366 136.669 60.228 139.196 60.228ZM139.196 58.48C137.676 58.48 136.403 57.283 136.403 55.554C136.403 53.844 137.676 52.647 139.196 52.647C140.716 52.647 142.008 53.844 142.008 55.554C142.008 57.283 140.716 58.48 139.196 58.48ZM150.275 60.228C151.719 60.228 152.954 59.639 153.733 58.708L152.498 57.549C151.985 58.119 151.206 58.48 150.313 58.48C148.66 58.48 147.349 57.245 147.349 55.554C147.349 53.863 148.66 52.647 150.313 52.647C151.206 52.647 151.985 53.008 152.498 53.578L153.733 52.419C152.954 51.488 151.719 50.899 150.275 50.899C147.71 50.899 145.487 52.742 145.487 55.554C145.487 58.366 147.71 60.228 150.275 60.228ZM159.296 54.965L163.039 51.127H160.512L157.605 54.148V46.301H155.743V60H157.605V55.782L161.481 60H163.913L159.296 54.965ZM167.683 60.228C169.507 60.228 171.179 59.202 171.179 57.511C171.179 56.561 170.761 55.383 168.861 54.908L167.512 54.585C166.961 54.452 166.448 54.148 166.448 53.597C166.448 52.989 166.98 52.476 167.759 52.476C168.424 52.476 169.089 52.913 169.089 53.559H170.875C170.875 51.697 169.241 50.899 167.721 50.899C165.878 50.899 164.567 52.096 164.567 53.54C164.567 54.851 165.327 55.706 166.98 56.143L168.177 56.428C168.842 56.58 169.317 56.884 169.317 57.473C169.317 58.138 168.69 58.651 167.664 58.651C166.657 58.651 166.03 58.043 166.03 57.34H164.301C164.339 59.202 166.03 60.228 167.683 60.228ZM180.686 51.127V47.802H178.824V51.127H177.228V52.685H178.824V60H180.686V52.685H182.586V51.127H180.686ZM189.105 50.899C188.155 50.899 186.73 51.393 186.217 52.476V46.301H184.355V60H186.217V55.231C186.217 53.407 187.623 52.723 188.782 52.723C189.922 52.723 190.796 53.597 190.796 55.041V60H192.658V54.927C192.677 52.4 191.347 50.899 189.105 50.899ZM202.218 52.457C201.648 51.45 200.432 50.899 199.14 50.899C196.632 50.899 194.751 52.913 194.751 55.554C194.751 58.29 196.746 60.228 199.064 60.228C200.432 60.228 201.648 59.525 202.218 58.499V60H204.08V51.127H202.218V52.457ZM199.387 58.48C197.829 58.48 196.632 57.15 196.632 55.554C196.632 53.977 197.829 52.647 199.349 52.647C200.774 52.647 202.199 53.844 202.199 55.554C202.199 57.226 200.869 58.48 199.387 58.48ZM209.483 51.127V47.802H207.621V51.127H206.025V52.685H207.621V60H209.483V52.685H211.383V51.127H209.483ZM222.633 50.899C221.683 50.899 220.258 51.393 219.745 52.476V46.301H217.883V60H219.745V55.231C219.745 53.407 221.151 52.723 222.31 52.723C223.45 52.723 224.324 53.597 224.324 55.041V60H226.186V54.927C226.205 52.4 224.875 50.899 222.633 50.899ZM235.746 52.457C235.176 51.45 233.96 50.899 232.668 50.899C230.16 50.899 228.279 52.913 228.279 55.554C228.279 58.29 230.274 60.228 232.592 60.228C233.96 60.228 235.176 59.525 235.746 58.499V60H237.608V51.127H235.746V52.457ZM232.915 58.48C231.357 58.48 230.16 57.15 230.16 55.554C230.16 53.977 231.357 52.647 232.877 52.647C234.302 52.647 235.727 53.844 235.727 55.554C235.727 57.226 234.397 58.48 232.915 58.48ZM243.828 57.587L241.244 51.127H239.249L242.954 60H244.721L248.426 51.127H246.412L243.828 57.587ZM258.29 55.516C258.29 52.723 256.371 50.899 253.844 50.899C251.317 50.899 249.265 52.723 249.265 55.535C249.265 58.347 251.279 60.228 253.844 60.228C255.535 60.228 257.131 59.43 257.91 57.948L256.428 57.207C255.934 58.024 254.965 58.499 253.92 58.499C252.495 58.499 251.431 57.758 251.184 56.314H258.252C258.271 56.029 258.29 55.763 258.29 55.516ZM251.203 54.813C251.469 53.331 252.495 52.628 253.863 52.628C255.231 52.628 256.238 53.426 256.428 54.813H251.203ZM270.138 50.899C268.884 50.899 267.649 51.431 267.06 52.438V46.301H265.198V60H267.06V58.67C267.649 59.677 268.941 60.228 270.138 60.228C272.532 60.228 274.546 58.366 274.546 55.554C274.546 52.723 272.551 50.899 270.138 50.899ZM269.91 58.48C268.428 58.48 267.079 57.321 267.079 55.535C267.079 53.749 268.542 52.647 269.91 52.647C271.449 52.647 272.665 53.863 272.665 55.535C272.665 57.188 271.449 58.48 269.91 58.48ZM285.231 55.516C285.231 52.723 283.312 50.899 280.785 50.899C278.258 50.899 276.206 52.723 276.206 55.535C276.206 58.347 278.22 60.228 280.785 60.228C282.476 60.228 284.072 59.43 284.851 57.948L283.369 57.207C282.875 58.024 281.906 58.499 280.861 58.499C279.436 58.499 278.372 57.758 278.125 56.314H285.193C285.212 56.029 285.231 55.763 285.231 55.516ZM278.144 54.813C278.41 53.331 279.436 52.628 280.804 52.628C282.172 52.628 283.179 53.426 283.369 54.813H278.144ZM295.882 55.516C295.882 52.723 293.963 50.899 291.436 50.899C288.909 50.899 286.857 52.723 286.857 55.535C286.857 58.347 288.871 60.228 291.436 60.228C293.127 60.228 294.723 59.43 295.502 57.948L294.02 57.207C293.526 58.024 292.557 58.499 291.512 58.499C290.087 58.499 289.023 57.758 288.776 56.314H295.844C295.863 56.029 295.882 55.763 295.882 55.516ZM288.795 54.813C289.061 53.331 290.087 52.628 291.455 52.628C292.823 52.628 293.83 53.426 294.02 54.813H288.795ZM302.808 50.899C301.858 50.899 300.433 51.393 299.92 52.495V51.127H298.058V60H299.92V55.231C299.92 53.388 301.326 52.723 302.485 52.723C303.625 52.723 304.499 53.597 304.499 55.041V60H306.361V54.927C306.38 52.4 305.05 50.899 302.808 50.899ZM6.327 73.899C5.073 73.899 3.838 74.431 3.249 75.438V69.301H1.387V83H3.249V81.67C3.838 82.677 5.13 83.228 6.327 83.228C8.721 83.228 10.735 81.366 10.735 78.554C10.735 75.723 8.74 73.899 6.327 73.899ZM6.099 81.48C4.617 81.48 3.268 80.321 3.268 78.535C3.268 76.749 4.731 75.647 6.099 75.647C7.638 75.647 8.854 76.863 8.854 78.535C8.854 80.188 7.638 81.48 6.099 81.48ZM17.3166 73.899C16.1766 73.899 15.2836 74.564 14.8276 76.122V74.127H12.9466V83H14.8276V79.808C14.8276 77.414 15.5876 75.685 17.2026 75.685C17.5636 75.685 18.0196 75.761 18.5136 75.989L18.8366 74.222C18.5516 74.051 17.9246 73.899 17.3166 73.899ZM24.2122 83.228C26.7392 83.228 28.8862 81.366 28.8862 78.554C28.8862 75.742 26.7392 73.899 24.2122 73.899C21.6852 73.899 19.5572 75.742 19.5572 78.554C19.5572 81.366 21.6852 83.228 24.2122 83.228ZM24.2122 81.48C22.6922 81.48 21.4192 80.283 21.4192 78.554C21.4192 76.844 22.6922 75.647 24.2122 75.647C25.7322 75.647 27.0242 76.844 27.0242 78.554C27.0242 80.283 25.7322 81.48 24.2122 81.48ZM34.6461 77.965L38.3891 74.127H35.8621L32.9551 77.148V69.301H31.0931V83H32.9551V78.782L36.8311 83H39.2631L34.6461 77.965ZM48.4362 78.516C48.4362 75.723 46.5172 73.899 43.9902 73.899C41.4632 73.899 39.4112 75.723 39.4112 78.535C39.4112 81.347 41.4252 83.228 43.9902 83.228C45.6812 83.228 47.2772 82.43 48.0562 80.948L46.5742 80.207C46.0802 81.024 45.1112 81.499 44.0662 81.499C42.6412 81.499 41.5772 80.758 41.3302 79.314H48.3982C48.4172 79.029 48.4362 78.763 48.4362 78.516ZM41.3492 77.813C41.6152 76.331 42.6412 75.628 44.0092 75.628C45.3772 75.628 46.3842 76.426 46.5742 77.813H41.3492ZM55.3626 73.899C54.4126 73.899 52.9876 74.393 52.4746 75.495V74.127H50.6126V83H52.4746V78.231C52.4746 76.388 53.8806 75.723 55.0396 75.723C56.1796 75.723 57.0536 76.597 57.0536 78.041V83H58.9156V77.927C58.9346 75.4 57.6046 73.899 55.3626 73.899ZM73.2259 75.438C72.6369 74.431 71.4019 73.899 70.1479 73.899C67.7539 73.899 65.7589 75.723 65.7589 78.554C65.7589 81.366 67.7539 83.228 70.1669 83.228C71.3639 83.228 72.6369 82.677 73.2259 81.67V83H75.0879V69.301H73.2259V75.438ZM70.3759 81.48C68.8559 81.48 67.6209 80.188 67.6209 78.535C67.6209 76.863 68.8559 75.647 70.3759 75.647C71.7439 75.647 73.2069 76.749 73.2069 78.535C73.2069 80.321 71.8769 81.48 70.3759 81.48ZM81.9544 83.228C84.4814 83.228 86.6284 81.366 86.6284 78.554C86.6284 75.742 84.4814 73.899 81.9544 73.899C79.4274 73.899 77.2994 75.742 77.2994 78.554C77.2994 81.366 79.4274 83.228 81.9544 83.228ZM81.9544 81.48C80.4344 81.48 79.1614 80.283 79.1614 78.554C79.1614 76.844 80.4344 75.647 81.9544 75.647C83.4744 75.647 84.7664 76.844 84.7664 78.554C84.7664 80.283 83.4744 81.48 81.9544 81.48ZM97.6358 80.188L95.5078 74.127H93.7598L91.6508 80.188L89.5228 74.127H87.5088L90.8718 83H92.4108L94.6338 76.635L96.9328 83H98.5098L101.759 74.127H99.7448L97.6358 80.188ZM108.151 73.899C107.201 73.899 105.776 74.393 105.263 75.495V74.127H103.401V83H105.263V78.231C105.263 76.388 106.669 75.723 107.828 75.723C108.968 75.723 109.842 76.597 109.842 78.041V83H111.704V77.927C111.723 75.4 110.393 73.899 108.151 73.899ZM123.183 83.228C125.71 83.228 127.857 81.366 127.857 78.554C127.857 75.742 125.71 73.899 123.183 73.899C120.656 73.899 118.528 75.742 118.528 78.554C118.528 81.366 120.656 83.228 123.183 83.228ZM123.183 81.48C121.663 81.48 120.39 80.283 120.39 78.554C120.39 76.844 121.663 75.647 123.183 75.647C124.703 75.647 125.995 76.844 125.995 78.554C125.995 80.283 124.703 81.48 123.183 81.48ZM133.261 80.587L130.677 74.127H128.682L132.387 83H134.154L137.859 74.127H135.845L133.261 80.587ZM147.722 78.516C147.722 75.723 145.803 73.899 143.276 73.899C140.749 73.899 138.697 75.723 138.697 78.535C138.697 81.347 140.711 83.228 143.276 83.228C144.967 83.228 146.563 82.43 147.342 80.948L145.86 80.207C145.366 81.024 144.397 81.499 143.352 81.499C141.927 81.499 140.863 80.758 140.616 79.314H147.684C147.703 79.029 147.722 78.763 147.722 78.516ZM140.635 77.813C140.901 76.331 141.927 75.628 143.295 75.628C144.663 75.628 145.67 76.426 145.86 77.813H140.635ZM154.269 73.899C153.129 73.899 152.236 74.564 151.78 76.122V74.127H149.899V83H151.78V79.808C151.78 77.414 152.54 75.685 154.155 75.685C154.516 75.685 154.972 75.761 155.466 75.989L155.789 74.222C155.504 74.051 154.877 73.899 154.269 73.899ZM164.191 74.127V70.802H162.329V74.127H160.733V75.685H162.329V83H164.191V75.685H166.091V74.127H164.191ZM168.791 72.094C169.494 72.094 170.064 71.581 170.064 70.897C170.064 70.213 169.494 69.7 168.791 69.7C168.107 69.7 167.518 70.213 167.518 70.897C167.518 71.581 168.107 72.094 168.791 72.094ZM169.722 83V74.127H167.86V83H169.722ZM183.1 73.899C182.207 73.899 180.82 74.222 180.06 75.761C179.528 74.583 178.445 73.899 177.153 73.899C175.937 73.899 174.74 74.545 174.379 75.59V74.127H172.517V83H174.379V78.231C174.379 76.426 175.557 75.685 176.716 75.685C177.818 75.685 178.578 76.578 178.578 78.022V83H180.459V78.573C180.459 76.711 181.219 75.666 182.682 75.685C183.879 75.685 184.639 76.578 184.639 78.022V83H186.52V77.927C186.52 75.4 185.323 73.899 183.1 73.899ZM197.653 78.516C197.653 75.723 195.734 73.899 193.207 73.899C190.68 73.899 188.628 75.723 188.628 78.535C188.628 81.347 190.642 83.228 193.207 83.228C194.898 83.228 196.494 82.43 197.273 80.948L195.791 80.207C195.297 81.024 194.328 81.499 193.283 81.499C191.858 81.499 190.794 80.758 190.547 79.314H197.615C197.634 79.029 197.653 78.763 197.653 78.516ZM190.566 77.813C190.832 76.331 191.858 75.628 193.226 75.628C194.594 75.628 195.601 76.426 195.791 77.813H190.566ZM200.798 83.19C201.52 83.19 202.128 82.658 202.128 81.936C202.128 81.214 201.52 80.682 200.798 80.682C200.095 80.682 199.487 81.214 199.487 81.936C199.487 82.658 200.095 83.19 200.798 83.19Z" fill="black"/>
</svg>
