<svg width="216" height="16" viewBox="0 0 216 16" fill="none" xmlns="http://www.w3.org/2000/svg">
<path d="M0.203984 12.26C0.803984 13.92 2.54398 15.2 4.84398 15.2C7.48398 15.2 9.34398 13.66 9.54398 11.5C9.76399 9.52 8.60398 7.96 5.82398 7.22L4.06398 6.76C2.42398 6.34 2.22398 5.5 2.22398 4.96C2.22398 3.82 3.34398 3.06 4.60398 3.06C5.36398 3.06 6.28398 3.24 6.90399 4.3C7.18398 4.84 7.60398 5.12 8.22398 4.92C8.74398 4.76 8.98399 4.14 8.78398 3.62C8.12398 1.9 6.74398 1.06 4.64398 1.06C2.22398 1.06 0.103984 2.64 0.103984 5C0.103984 6.22 0.563984 7.9 3.52398 8.7L5.26398 9.14C6.54398 9.44 7.52398 10.1 7.44398 11.38C7.30398 12.38 6.46398 13.26 4.84398 13.26C3.36398 13.26 2.66398 12.5 2.22398 11.6C1.96398 10.96 1.42398 10.76 0.843985 10.92C0.303984 11.06 0.0239844 11.72 0.203984 12.26ZM13.273 9.56C13.473 8.12 14.593 7.26 16.033 7.26C17.433 7.26 18.493 8.1 18.693 9.56H13.273ZM20.713 10.12C20.633 7.26 18.633 5.46 16.033 5.46C13.373 5.46 11.233 7.34 11.233 10.3C11.233 13.26 13.373 15.2 16.033 15.2C17.413 15.2 18.773 14.7 19.713 13.72C20.073 13.34 20.053 12.72 19.673 12.42C19.253 12.08 18.693 12.22 18.353 12.5C17.673 13.06 17.113 13.4 16.133 13.4C14.633 13.4 13.473 12.5 13.273 11.06H19.773C20.273 11.06 20.713 10.66 20.713 10.12ZM24.8491 1.52C24.8491 0.96 24.3891 0.48 23.7891 0.48C23.2291 0.48 22.7891 0.96 22.7891 1.52V14.06C22.7891 14.62 23.2291 15.1 23.7891 15.1C24.3891 15.1 24.8491 14.62 24.8491 14.06V1.52ZM29.1715 9.56C29.3715 8.12 30.4915 7.26 31.9315 7.26C33.3315 7.26 34.3915 8.1 34.5915 9.56H29.1715ZM36.6115 10.12C36.5315 7.26 34.5315 5.46 31.9315 5.46C29.2715 5.46 27.1315 7.34 27.1315 10.3C27.1315 13.26 29.2715 15.2 31.9315 15.2C33.3115 15.2 34.6715 14.7 35.6115 13.72C35.9715 13.34 35.9515 12.72 35.5715 12.42C35.1515 12.08 34.5915 12.22 34.2515 12.5C33.5715 13.06 33.0115 13.4 32.0315 13.4C30.5315 13.4 29.3715 12.5 29.1715 11.06H35.6715C36.1715 11.06 36.6115 10.66 36.6115 10.12ZM38.1276 10.34C38.1276 13.3 40.4276 15.2 43.1076 15.2C44.1876 15.2 45.1676 14.9 45.9676 14.34C46.4076 14.04 46.5076 13.46 46.2076 12.96C45.9276 12.5 45.2276 12.48 44.7876 12.74C44.3076 13.02 43.7076 13.2 43.1076 13.2C41.5476 13.2 40.1676 12.08 40.1676 10.34C40.1676 8.6 41.5476 7.46 43.1076 7.46C43.7076 7.46 44.3076 7.64 44.7876 7.92C45.2276 8.18 45.9276 8.16 46.2076 7.7C46.5076 7.2 46.4076 6.62 45.9676 6.32C45.1676 5.76 44.1876 5.46 43.1076 5.46C40.4276 5.46 38.1276 7.38 38.1276 10.34ZM49.2704 14.06C49.2704 14.62 49.7104 15.1 50.2704 15.1C50.8704 15.1 51.3304 14.62 51.3304 14.06V7.36H52.5504C53.0104 7.36 53.4104 7 53.4104 6.54C53.4104 6.04 53.0104 5.66 52.5504 5.66H51.3304V3.06C51.3304 2.5 50.8704 2.02 50.2704 2.02C49.7104 2.02 49.2704 2.5 49.2704 3.06V5.66H48.3504C47.8904 5.66 47.4904 6.04 47.4904 6.54C47.4904 7 47.8904 7.36 48.3504 7.36H49.2704V14.06ZM67.2185 14.06C67.2185 14.62 67.6585 15.1 68.2185 15.1C68.8185 15.1 69.2785 14.62 69.2785 14.06V6.6C69.2785 6.04 68.8185 5.56 68.2185 5.56C67.6585 5.56 67.2185 6.04 67.2185 6.6V6.98C66.5785 5.92 65.1985 5.46 64.0785 5.46C61.5585 5.46 59.3385 7.34 59.3385 10.32C59.3385 13.3 61.5585 15.2 64.0785 15.2C65.2385 15.2 66.5985 14.68 67.2185 13.66V14.06ZM61.4585 10.3C61.4585 8.58 62.7585 7.46 64.3185 7.46C65.7185 7.46 67.1985 8.46 67.1985 10.3C67.1985 12.14 65.8385 13.2 64.3185 13.2C62.7585 13.2 61.4585 12.02 61.4585 10.3ZM77.8641 14.06C77.8641 14.62 78.3041 15.1 78.8641 15.1C79.4641 15.1 79.9241 14.62 79.9241 14.06V7.36H81.1441C81.6041 7.36 82.0041 7 82.0041 6.54C82.0041 6.04 81.6041 5.66 81.1441 5.66H79.9241V3.06C79.9241 2.5 79.4641 2.02 78.8641 2.02C78.3041 2.02 77.8641 2.5 77.8641 3.06V5.66H76.9441C76.4841 5.66 76.0841 6.04 76.0841 6.54C76.0841 7 76.4841 7.36 76.9441 7.36H77.8641V14.06ZM88.2271 7.4C88.8271 7.4 89.7271 7.62 89.9071 6.72C90.0271 6.18 89.6871 5.66 89.1671 5.54C88.8871 5.48 88.5871 5.46 88.2871 5.46C87.1271 5.46 86.2071 6.14 85.7271 7.8V6.6C85.7271 6.04 85.2671 5.56 84.6671 5.56C84.1071 5.56 83.6671 6.04 83.6671 6.6V14.06C83.6671 14.62 84.1071 15.1 84.6671 15.1C85.2671 15.1 85.7271 14.62 85.7271 14.06V11.64C85.7271 9.16 86.4671 7.4 88.2271 7.4ZM98.5662 14.06C98.5662 14.62 99.0062 15.1 99.5662 15.1C100.166 15.1 100.626 14.62 100.626 14.06V6.6C100.626 6.04 100.166 5.56 99.5662 5.56C99.0062 5.56 98.5662 6.04 98.5662 6.6V6.98C97.9262 5.92 96.5462 5.46 95.4262 5.46C92.9062 5.46 90.6862 7.34 90.6862 10.32C90.6862 13.3 92.9062 15.2 95.4262 15.2C96.5862 15.2 97.9462 14.68 98.5662 13.66V14.06ZM92.8062 10.3C92.8062 8.58 94.1062 7.46 95.6662 7.46C97.0662 7.46 98.5462 8.46 98.5462 10.3C98.5462 12.14 97.1862 13.2 95.6662 13.2C94.1062 13.2 92.8062 12.02 92.8062 10.3ZM103.394 14.06C103.394 14.62 103.834 15.1 104.394 15.1C104.994 15.1 105.454 14.62 105.454 14.06V9.98C105.454 8.14 106.634 7.48 107.854 7.48C109.054 7.48 109.814 8.32 109.814 9.8V14.06C109.814 14.62 110.254 15.1 110.814 15.1C111.414 15.1 111.874 14.62 111.874 14.06V9.56C111.874 6.92 110.574 5.46 108.314 5.46C107.274 5.46 105.994 5.98 105.454 7.06V6.6C105.454 6.04 105.014 5.56 104.454 5.56C103.854 5.56 103.394 6.04 103.394 6.6V14.06ZM114.106 13.08C114.606 14.44 116.066 15.2 117.506 15.2C119.646 15.2 121.226 14.18 121.226 12.38C121.226 11.44 120.806 10.12 118.786 9.62L117.346 9.26C116.846 9.12 116.286 8.94 116.166 8.58C116.066 8.3 116.086 8.04 116.246 7.78C116.446 7.46 117.026 7.28 117.546 7.28C118.026 7.28 118.626 7.46 119.146 7.92C119.586 8.3 120.006 8.32 120.346 8.04C120.666 7.8 120.806 7.32 120.526 6.84C119.906 5.86 118.766 5.46 117.526 5.46C115.806 5.46 114.306 6.54 114.186 7.92C114.066 9.42 114.786 10.5 116.766 11.04L118.026 11.34C118.706 11.5 119.286 11.76 119.286 12.36C119.286 13.06 118.606 13.48 117.666 13.48C116.746 13.48 116.026 13.08 115.646 12.36C115.486 12.02 115.106 11.76 114.606 11.96C114.166 12.12 113.946 12.58 114.106 13.08ZM127.614 7.36C128.074 7.36 128.474 7 128.474 6.54C128.474 6.04 128.074 5.66 127.614 5.66H126.274V4.8C126.274 3.62 126.574 2.56 127.934 2.56H128.094C128.634 2.56 129.094 2.12 129.094 1.54C129.094 0.999999 128.634 0.58 128.094 0.58H127.934C125.374 0.58 124.214 2.24 124.214 4.8V5.66H123.174C122.714 5.66 122.314 6.04 122.314 6.54C122.314 7 122.714 7.36 123.174 7.36H124.214V14.06C124.214 14.62 124.674 15.1 125.274 15.1C125.834 15.1 126.274 14.62 126.274 14.06V7.36H127.614ZM134.277 13.2C132.737 13.2 131.457 12.06 131.457 10.3C131.457 8.58 132.737 7.46 134.277 7.46C135.837 7.46 137.137 8.58 137.137 10.3C137.137 12.06 135.837 13.2 134.277 13.2ZM134.277 15.2C136.937 15.2 139.177 13.26 139.177 10.3C139.177 7.34 136.937 5.46 134.277 5.46C131.637 5.46 129.417 7.34 129.417 10.3C129.417 13.26 131.637 15.2 134.277 15.2ZM145.981 7.4C146.581 7.4 147.481 7.62 147.661 6.72C147.781 6.18 147.441 5.66 146.921 5.54C146.641 5.48 146.341 5.46 146.041 5.46C144.881 5.46 143.961 6.14 143.481 7.8V6.6C143.481 6.04 143.021 5.56 142.421 5.56C141.861 5.56 141.421 6.04 141.421 6.6V14.06C141.421 14.62 141.861 15.1 142.421 15.1C143.021 15.1 143.481 14.62 143.481 14.06V11.64C143.481 9.16 144.221 7.4 145.981 7.4ZM151.294 6.6C151.294 6.04 150.854 5.56 150.294 5.56C149.694 5.56 149.234 6.04 149.234 6.6V14.06C149.234 14.62 149.674 15.1 150.234 15.1C150.834 15.1 151.294 14.62 151.294 14.06V9.98C151.294 8.16 152.454 7.48 153.654 7.48C154.754 7.48 155.554 8.32 155.554 9.76V14.06C155.554 14.62 155.994 15.1 156.554 15.1C157.154 15.1 157.614 14.62 157.614 14.06V9.98C157.614 8.48 158.514 7.48 159.874 7.48C161.074 7.48 161.854 8.34 161.854 9.8V14.06C161.854 14.62 162.294 15.1 162.854 15.1C163.454 15.1 163.914 14.62 163.914 14.06V9.62C163.914 6.96 162.614 5.46 160.314 5.46C159.454 5.46 158.054 5.7 157.174 7.32C156.654 6.14 155.714 5.46 154.234 5.46C153.494 5.46 151.914 5.76 151.294 7.06V6.6ZM173.957 14.06C173.957 14.62 174.397 15.1 174.957 15.1C175.557 15.1 176.017 14.62 176.017 14.06V6.6C176.017 6.04 175.557 5.56 174.957 5.56C174.397 5.56 173.957 6.04 173.957 6.6V6.98C173.317 5.92 171.937 5.46 170.817 5.46C168.297 5.46 166.077 7.34 166.077 10.32C166.077 13.3 168.297 15.2 170.817 15.2C171.977 15.2 173.337 14.68 173.957 13.66V14.06ZM168.197 10.3C168.197 8.58 169.497 7.46 171.057 7.46C172.457 7.46 173.937 8.46 173.937 10.3C173.937 12.14 172.577 13.2 171.057 13.2C169.497 13.2 168.197 12.02 168.197 10.3ZM179.524 14.06C179.524 14.62 179.964 15.1 180.524 15.1C181.124 15.1 181.584 14.62 181.584 14.06V7.36H182.804C183.264 7.36 183.664 7 183.664 6.54C183.664 6.04 183.264 5.66 182.804 5.66H181.584V3.06C181.584 2.5 181.124 2.02 180.524 2.02C179.964 2.02 179.524 2.5 179.524 3.06V5.66H178.604C178.144 5.66 177.744 6.04 177.744 6.54C177.744 7 178.144 7.36 178.604 7.36H179.524V14.06ZM184.967 1.88C184.967 2.62 185.607 3.18 186.347 3.18C187.107 3.18 187.707 2.62 187.707 1.88C187.707 1.14 187.107 0.58 186.347 0.58C185.607 0.58 184.967 1.14 184.967 1.88ZM187.387 14.06C187.387 14.62 186.927 15.1 186.327 15.1C185.767 15.1 185.327 14.62 185.327 14.06V6.6C185.327 6.04 185.767 5.56 186.327 5.56C186.927 5.56 187.387 6.04 187.387 6.6V14.06ZM194.491 13.2C192.951 13.2 191.671 12.06 191.671 10.3C191.671 8.58 192.951 7.46 194.491 7.46C196.051 7.46 197.351 8.58 197.351 10.3C197.351 12.06 196.051 13.2 194.491 13.2ZM194.491 15.2C197.151 15.2 199.391 13.26 199.391 10.3C199.391 7.34 197.151 5.46 194.491 5.46C191.851 5.46 189.631 7.34 189.631 10.3C189.631 13.26 191.851 15.2 194.491 15.2ZM201.636 14.06C201.636 14.62 202.076 15.1 202.636 15.1C203.236 15.1 203.696 14.62 203.696 14.06V9.98C203.696 8.14 204.876 7.48 206.096 7.48C207.296 7.48 208.056 8.32 208.056 9.8V14.06C208.056 14.62 208.496 15.1 209.056 15.1C209.656 15.1 210.116 14.62 210.116 14.06V9.56C210.116 6.92 208.816 5.46 206.556 5.46C205.516 5.46 204.236 5.98 203.696 7.06V6.6C203.696 6.04 203.256 5.56 202.696 5.56C202.096 5.56 201.636 6.04 201.636 6.6V14.06ZM212.748 13.86C212.748 14.64 213.388 15.2 214.168 15.2C214.928 15.2 215.568 14.64 215.568 13.86C215.568 13.08 214.928 12.5 214.168 12.5C213.388 12.5 212.748 13.08 212.748 13.86ZM212.748 6.82C212.748 7.6 213.388 8.18 214.168 8.18C214.928 8.18 215.568 7.6 215.568 6.82C215.568 6.02 214.928 5.46 214.168 5.46C213.388 5.46 212.748 6.02 212.748 6.82Z" fill="black"/>
</svg>
