<!-- Generator: Adobe Illustrator 23.1.1, SVG Export Plug-In  -->
<svg version="1.1" xmlns="http://www.w3.org/2000/svg" xmlns:xlink="http://www.w3.org/1999/xlink" x="0px" y="0px"
	 width="143.24px" height="14.44px" viewBox="0 0 143.24 14.44" style="enable-background:new 0 0 143.24 14.44;"
	 xml:space="preserve">
<style type="text/css">
	.st0{fill:url(#SVGID_1_);}
	.st1{fill:url(#SVGID_2_);}
	.st2{fill:url(#SVGID_3_);}
	.st3{fill:url(#SVGID_4_);}
	.st4{fill:url(#SVGID_5_);}
	.st5{fill:url(#SVGID_6_);}
	.st6{fill:url(#SVGID_7_);}
	.st7{fill:url(#SVGID_8_);}
	.st8{fill:url(#SVGID_9_);}
	.st9{fill:url(#SVGID_10_);}
	.st10{fill:url(#SVGID_11_);}
	.st11{fill:url(#SVGID_12_);}
	.st12{fill:url(#SVGID_13_);}
	.st13{fill:url(#SVGID_14_);}
	.st14{fill:url(#SVGID_15_);}
	.st15{fill:url(#SVGID_16_);}
	.st16{fill:url(#SVGID_17_);}
	.st17{fill:url(#SVGID_18_);}
	.st18{fill:url(#SVGID_19_);}
	.st19{fill:url(#SVGID_20_);}
</style>
<defs>
</defs>
<g>
	<linearGradient id="SVGID_1_" gradientUnits="userSpaceOnUse" x1="0" y1="7.2202" x2="11.3999" y2="7.2202">
		<stop  offset="0.2814" style="stop-color:#D7142C"/>
		<stop  offset="1" style="stop-color:#1E1E1E"/>
	</linearGradient>
	<path class="st0" d="M0,0.24h5.26c0.92,0,1.76,0.15,2.52,0.44c0.76,0.29,1.41,0.73,1.94,1.31s0.95,1.31,1.24,2.18
		c0.29,0.87,0.44,1.89,0.44,3.05c0,1.16-0.15,2.18-0.44,3.05c-0.29,0.87-0.71,1.6-1.24,2.18s-1.18,1.02-1.94,1.31
		c-0.76,0.29-1.6,0.44-2.52,0.44H0V0.24z M5.26,11.5c0.91,0,1.62-0.25,2.14-0.76S8.18,9.42,8.18,8.3V6.14
		c0-1.12-0.26-1.93-0.78-2.44S6.17,2.94,5.26,2.94H3.04v8.56H5.26z"/>
	<linearGradient id="SVGID_2_" gradientUnits="userSpaceOnUse" x1="15.3799" y1="7.2202" x2="22.02" y2="7.2202">
		<stop  offset="0.2814" style="stop-color:#D7142C"/>
		<stop  offset="1" style="stop-color:#1E1E1E"/>
	</linearGradient>
	<path class="st1" d="M15.38,14.2v-2.42h1.8V2.66h-1.8V0.24h6.64v2.42h-1.8v9.12h1.8v2.42H15.38z"/>
	<linearGradient id="SVGID_3_" gradientUnits="userSpaceOnUse" x1="26.5396" y1="7.2202" x2="39.8394" y2="7.2202">
		<stop  offset="0.2814" style="stop-color:#D7142C"/>
		<stop  offset="1" style="stop-color:#1E1E1E"/>
	</linearGradient>
	<path class="st2" d="M36.98,5.04h-0.06L35.9,7.08l-2.72,4.94L30.52,7.1l-1.06-2.2H29.4v9.3h-2.86V0.24h3.22l3.42,6.54h0.04
		l3.38-6.54h3.24V14.2h-2.86V5.04z"/>
	<linearGradient id="SVGID_4_" gradientUnits="userSpaceOnUse" x1="44.8994" y1="7.2202" x2="54.3994" y2="7.2202">
		<stop  offset="0.2814" style="stop-color:#D7142C"/>
		<stop  offset="1" style="stop-color:#1E1E1E"/>
	</linearGradient>
	<path class="st3" d="M44.9,14.2V0.24h9.5v2.7h-6.46v2.84h5.54v2.7h-5.54v3.02h6.46v2.7H44.9z"/>
	<linearGradient id="SVGID_5_" gradientUnits="userSpaceOnUse" x1="59.0195" y1="7.2202" x2="70.4194" y2="7.2202">
		<stop  offset="0.2814" style="stop-color:#D7142C"/>
		<stop  offset="1" style="stop-color:#1E1E1E"/>
	</linearGradient>
	<path class="st4" d="M63.28,7.6l-1.34-2.8h-0.06v9.4h-2.86V0.24h3.32l3.82,6.6l1.34,2.8h0.06v-9.4h2.86V14.2H67.1L63.28,7.6z"/>
	<linearGradient id="SVGID_6_" gradientUnits="userSpaceOnUse" x1="74.6992" y1="7.2202" x2="85.4395" y2="7.2202">
		<stop  offset="0.2814" style="stop-color:#D7142C"/>
		<stop  offset="1" style="stop-color:#1E1E1E"/>
	</linearGradient>
	<path class="st5" d="M80,14.44c-1.23,0-2.27-0.21-3.12-0.63c-0.85-0.42-1.58-0.96-2.18-1.63l2-2.02c0.95,1.06,2.11,1.59,3.5,1.59
		c0.75,0,1.3-0.15,1.66-0.46s0.54-0.71,0.54-1.21c0-0.38-0.11-0.7-0.32-0.96c-0.21-0.26-0.65-0.43-1.3-0.53L79.4,8.41
		c-1.48-0.19-2.56-0.63-3.25-1.34c-0.69-0.71-1.03-1.65-1.03-2.82c0-0.63,0.12-1.2,0.36-1.72c0.24-0.52,0.58-0.97,1.03-1.34
		s0.99-0.66,1.64-0.87C78.8,0.1,79.53,0,80.36,0c1.05,0,1.98,0.17,2.78,0.5c0.8,0.33,1.49,0.82,2.06,1.46l-2.02,2.04
		c-0.33-0.38-0.74-0.7-1.21-0.94S80.9,2.7,80.18,2.7c-0.68,0-1.19,0.12-1.52,0.36c-0.33,0.24-0.5,0.57-0.5,0.99
		c0,0.48,0.13,0.82,0.39,1.03c0.26,0.21,0.68,0.36,1.27,0.46l1.38,0.22c1.44,0.23,2.51,0.67,3.2,1.33c0.69,0.66,1.04,1.6,1.04,2.81
		c0,0.67-0.12,1.28-0.36,1.84c-0.24,0.56-0.59,1.04-1.05,1.44s-1.03,0.71-1.71,0.93C81.64,14.33,80.87,14.44,80,14.44z"/>
	<linearGradient id="SVGID_7_" gradientUnits="userSpaceOnUse" x1="89.3994" y1="7.2202" x2="96.0396" y2="7.2202">
		<stop  offset="0.2814" style="stop-color:#D7142C"/>
		<stop  offset="1" style="stop-color:#1E1E1E"/>
	</linearGradient>
	<path class="st6" d="M89.4,14.2v-2.42h1.8V2.66h-1.8V0.24h6.64v2.42h-1.8v9.12h1.8v2.42H89.4z"/>
	<linearGradient id="SVGID_8_" gradientUnits="userSpaceOnUse" x1="100.019" y1="7.2202" x2="112.2988" y2="7.2202">
		<stop  offset="0.2814" style="stop-color:#D7142C"/>
		<stop  offset="1" style="stop-color:#1E1E1E"/>
	</linearGradient>
	<path class="st7" d="M106.16,14.44c-0.92,0-1.76-0.15-2.52-0.46c-0.76-0.31-1.41-0.76-1.94-1.37c-0.53-0.61-0.95-1.36-1.24-2.26
		c-0.29-0.9-0.44-1.94-0.44-3.13c0-1.19,0.15-2.23,0.44-3.13c0.29-0.9,0.71-1.65,1.24-2.26c0.53-0.61,1.18-1.06,1.94-1.37
		c0.76-0.31,1.6-0.46,2.52-0.46s1.76,0.15,2.52,0.46c0.76,0.31,1.41,0.76,1.94,1.37c0.53,0.61,0.95,1.36,1.24,2.26
		c0.29,0.9,0.44,1.94,0.44,3.13c0,1.19-0.15,2.23-0.44,3.13c-0.29,0.9-0.71,1.65-1.24,2.26c-0.53,0.61-1.18,1.06-1.94,1.37
		C107.92,14.29,107.08,14.44,106.16,14.44z M106.16,11.74c0.92,0,1.64-0.3,2.15-0.9c0.51-0.6,0.77-1.46,0.77-2.58V6.18
		c0-1.12-0.26-1.98-0.77-2.58c-0.51-0.6-1.23-0.9-2.15-0.9s-1.64,0.3-2.15,0.9c-0.51,0.6-0.77,1.46-0.77,2.58v2.08
		c0,1.12,0.26,1.98,0.77,2.58C104.52,11.44,105.24,11.74,106.16,11.74z"/>
	<linearGradient id="SVGID_9_" gradientUnits="userSpaceOnUse" x1="116.8188" y1="7.2202" x2="128.2188" y2="7.2202">
		<stop  offset="0.2814" style="stop-color:#D7142C"/>
		<stop  offset="1" style="stop-color:#1E1E1E"/>
	</linearGradient>
	<path class="st8" d="M121.08,7.6l-1.34-2.8h-0.06v9.4h-2.86V0.24h3.32l3.82,6.6l1.34,2.8h0.06v-9.4h2.86V14.2h-3.32L121.08,7.6z"/>
	<linearGradient id="SVGID_10_" gradientUnits="userSpaceOnUse" x1="132.4985" y1="7.2202" x2="143.2388" y2="7.2202">
		<stop  offset="0.2814" style="stop-color:#D7142C"/>
		<stop  offset="1" style="stop-color:#1E1E1E"/>
	</linearGradient>
	<path class="st9" d="M137.8,14.44c-1.23,0-2.27-0.21-3.12-0.63c-0.85-0.42-1.58-0.96-2.18-1.63l2-2.02
		c0.95,1.06,2.11,1.59,3.5,1.59c0.75,0,1.3-0.15,1.66-0.46s0.54-0.71,0.54-1.21c0-0.38-0.11-0.7-0.32-0.96
		c-0.21-0.26-0.65-0.43-1.3-0.53l-1.38-0.18c-1.48-0.19-2.56-0.63-3.25-1.34c-0.69-0.71-1.03-1.65-1.03-2.82
		c0-0.63,0.12-1.2,0.36-1.72c0.24-0.52,0.58-0.97,1.03-1.34s0.99-0.66,1.64-0.87C136.6,0.1,137.33,0,138.16,0
		c1.05,0,1.98,0.17,2.78,0.5c0.8,0.33,1.49,0.82,2.06,1.46l-2.02,2.04c-0.33-0.38-0.74-0.7-1.21-0.94s-1.07-0.37-1.79-0.37
		c-0.68,0-1.19,0.12-1.52,0.36c-0.33,0.24-0.5,0.57-0.5,0.99c0,0.48,0.13,0.82,0.39,1.03c0.26,0.21,0.68,0.36,1.27,0.46L139,5.75
		c1.44,0.23,2.51,0.67,3.2,1.33c0.69,0.66,1.04,1.6,1.04,2.81c0,0.67-0.12,1.28-0.36,1.84c-0.24,0.56-0.59,1.04-1.05,1.44
		s-1.03,0.71-1.71,0.93C139.44,14.33,138.67,14.44,137.8,14.44z"/>
</g>
</svg>
