<!-- Generator: Adobe Illustrator 23.1.1, SVG Export Plug-In  -->
<svg version="1.1" xmlns="http://www.w3.org/2000/svg" xmlns:xlink="http://www.w3.org/1999/xlink" x="0px" y="0px" width="21.41px"
	 height="14.26px" viewBox="0 0 21.41 14.26" style="enable-background:new 0 0 21.41 14.26;" xml:space="preserve">
<defs>
</defs>
<g>
	<path d="M0.21,11.84v-0.32h3.5V0.93H3.66l-3.46,2.9L0,3.57l3.46-2.9h0.61v10.85h3.38v0.32H0.21z"/>
	<path d="M8.53,14.26L12.34,0h0.32L8.85,14.26H8.53z"/>
	<path d="M21.02,0.99h-5.17l-0.38,5.34l0.05,0.02c0.32-0.42,0.69-0.71,1.12-0.87c0.43-0.17,0.94-0.25,1.55-0.25
		c1.02,0,1.82,0.3,2.38,0.89c0.56,0.59,0.84,1.42,0.84,2.47c0,0.53-0.08,1.01-0.23,1.44c-0.15,0.43-0.38,0.79-0.66,1.08
		s-0.64,0.52-1.05,0.68c-0.41,0.16-0.87,0.24-1.38,0.24c-0.78,0-1.45-0.14-2.01-0.42s-1.03-0.71-1.4-1.3l0.29-0.18
		c0.34,0.54,0.77,0.94,1.27,1.19c0.51,0.25,1.12,0.38,1.85,0.38c0.47,0,0.89-0.07,1.25-0.22c0.36-0.14,0.67-0.34,0.92-0.6
		c0.25-0.26,0.44-0.56,0.58-0.91c0.13-0.35,0.2-0.74,0.2-1.15V8.38c0-0.84-0.24-1.53-0.72-2.05s-1.18-0.78-2.11-0.78
		c-0.34,0-0.64,0.02-0.9,0.06c-0.26,0.04-0.5,0.11-0.7,0.21c-0.21,0.1-0.4,0.21-0.57,0.35c-0.17,0.14-0.34,0.3-0.5,0.5l-0.37-0.05
		l0.42-5.95h5.46V0.99z"/>
</g>
</svg>
