<!-- Generator: Adobe Illustrator 23.1.1, SVG Export Plug-In  -->
<svg version="1.1" xmlns="http://www.w3.org/2000/svg" xmlns:xlink="http://www.w3.org/1999/xlink" x="0px" y="0px"
	 width="132.46px" height="14.44px" viewBox="0 0 132.46 14.44" style="enable-background:new 0 0 132.46 14.44;"
	 xml:space="preserve">
<style type="text/css">
	.st0{fill:#FFFFFF;}
</style>
<defs>
</defs>
<g>
	<path class="st0" d="M0,0.24h5.26c0.92,0,1.76,0.15,2.52,0.44c0.76,0.29,1.41,0.73,1.94,1.31s0.95,1.31,1.24,2.18
		c0.29,0.87,0.44,1.89,0.44,3.05c0,1.16-0.15,2.18-0.44,3.05s-0.71,1.6-1.24,2.18s-1.18,1.02-1.94,1.31
		c-0.76,0.29-1.6,0.44-2.52,0.44H0V0.24z M5.26,11.5c0.91,0,1.62-0.25,2.14-0.76c0.52-0.51,0.78-1.32,0.78-2.44V6.14
		c0-1.12-0.26-1.93-0.78-2.44C6.88,3.19,6.17,2.94,5.26,2.94H3.04v8.56H5.26z"/>
	<path class="st0" d="M15.92,14.2V0.24h9.5v2.7h-6.46v2.84h5.54v2.7h-5.54v3.02h6.46v2.7H15.92z"/>
	<path class="st0" d="M38.64,14.2l-1-3.32h-4.66l-1,3.32H28.9l4.6-13.96h3.76L41.8,14.2H38.64z M35.34,3h-0.1L33.7,8.3h3.2L35.34,3z
		"/>
	<path class="st0" d="M50.24,2.94V14.2H47.2V2.94h-3.78v-2.7h10.6v2.7H50.24z"/>
	<path class="st0" d="M66.44,8.48h-5.32v5.72h-3.04V0.24h3.04v5.54h5.32V0.24h3.04V14.2h-3.04V8.48z"/>
	<path class="st0" d="M76.74,14.2L73.58,0.24h3l1.32,6.7l0.74,3.88h0.06l0.88-3.88l1.54-6.7h3.32L86,6.94l0.86,3.88h0.06l0.74-3.88
		L89,0.24h2.88L88.64,14.2h-3.46l-1.76-7.56l-0.68-3.06h-0.06l-0.7,3.06l-1.76,7.56H76.74z"/>
	<path class="st0" d="M95.44,14.2v-2.42h1.8V2.66h-1.8V0.24h6.64v2.42h-1.8v9.12h1.8v2.42H95.44z"/>
	<path class="st0" d="M111.12,14.44c-1.23,0-2.27-0.21-3.12-0.63c-0.85-0.42-1.58-0.96-2.18-1.63l2-2.02
		c0.95,1.06,2.11,1.59,3.5,1.59c0.75,0,1.3-0.15,1.66-0.46s0.54-0.71,0.54-1.21c0-0.38-0.11-0.7-0.32-0.96
		c-0.21-0.26-0.65-0.43-1.3-0.53l-1.38-0.18c-1.48-0.19-2.56-0.63-3.25-1.34c-0.69-0.71-1.03-1.65-1.03-2.82
		c0-0.63,0.12-1.2,0.36-1.72s0.58-0.97,1.03-1.34c0.45-0.37,0.99-0.66,1.64-0.87S110.65,0,111.48,0c1.05,0,1.98,0.17,2.78,0.5
		s1.49,0.82,2.06,1.46l-2.02,2.04c-0.33-0.38-0.74-0.7-1.21-0.94c-0.47-0.24-1.07-0.37-1.79-0.37c-0.68,0-1.19,0.12-1.52,0.36
		s-0.5,0.57-0.5,0.99c0,0.48,0.13,0.82,0.39,1.03c0.26,0.21,0.68,0.36,1.27,0.46l1.38,0.22c1.44,0.23,2.51,0.67,3.2,1.33
		c0.69,0.66,1.04,1.6,1.04,2.81c0,0.67-0.12,1.28-0.36,1.84c-0.24,0.56-0.59,1.04-1.05,1.44s-1.03,0.71-1.71,0.93
		C112.76,14.33,111.99,14.44,111.12,14.44z"/>
	<path class="st0" d="M129.42,8.48h-5.32v5.72h-3.04V0.24h3.04v5.54h5.32V0.24h3.04V14.2h-3.04V8.48z"/>
</g>
</svg>
