<!-- Generator: Adobe Illustrator 23.1.1, SVG Export Plug-In  -->
<svg version="1.1" xmlns="http://www.w3.org/2000/svg" xmlns:xlink="http://www.w3.org/1999/xlink" x="0px" y="0px" width="47.12px"
	 height="11.74px" viewBox="0 0 47.12 11.74" style="enable-background:new 0 0 47.12 11.74;" xml:space="preserve">
<defs>
</defs>
<g>
	<path d="M3.74,11.74c-0.47,0-0.89-0.05-1.26-0.14c-0.37-0.09-0.7-0.22-1.01-0.38c-0.3-0.16-0.58-0.35-0.82-0.58
		C0.42,10.43,0.2,10.19,0,9.92l0.29-0.21c0.19,0.26,0.4,0.49,0.62,0.7s0.47,0.39,0.75,0.54c0.28,0.15,0.59,0.27,0.93,0.35
		c0.34,0.08,0.73,0.12,1.15,0.12c0.97,0,1.72-0.23,2.26-0.68c0.53-0.45,0.8-1.12,0.8-2.01c0-0.47-0.07-0.86-0.22-1.17
		S6.25,7.01,6.02,6.81c-0.23-0.2-0.51-0.35-0.82-0.46C4.88,6.25,4.55,6.16,4.22,6.1L3.1,5.89C2.54,5.78,2.07,5.63,1.71,5.45
		C1.35,5.26,1.06,5.04,0.84,4.78C0.62,4.53,0.47,4.25,0.38,3.95C0.3,3.65,0.26,3.34,0.26,3.01c0-0.95,0.31-1.66,0.93-2.12
		s1.45-0.7,2.48-0.7c0.83,0,1.51,0.14,2.04,0.42c0.53,0.28,0.95,0.65,1.26,1.1L6.67,1.92C6.35,1.45,5.95,1.1,5.46,0.86
		c-0.49-0.23-1.1-0.35-1.82-0.35c-0.95,0-1.69,0.21-2.22,0.62c-0.53,0.41-0.8,1.04-0.8,1.88c0,0.44,0.07,0.8,0.21,1.1
		C0.95,4.4,1.14,4.64,1.38,4.83C1.62,5.02,1.9,5.18,2.21,5.29C2.52,5.4,2.85,5.49,3.2,5.55l1.12,0.21C4.9,5.87,5.37,6.02,5.73,6.22
		S6.38,6.64,6.59,6.9c0.21,0.26,0.36,0.54,0.44,0.85c0.08,0.3,0.12,0.62,0.12,0.95c0,1.01-0.31,1.77-0.92,2.28
		S4.79,11.74,3.74,11.74z"/>
	<path d="M11.5,0.78c-0.14,0-0.23-0.03-0.29-0.1c-0.05-0.07-0.08-0.15-0.08-0.23V0.34c0-0.09,0.03-0.16,0.08-0.23
		C11.27,0.03,11.37,0,11.5,0s0.23,0.03,0.29,0.1c0.05,0.07,0.08,0.15,0.08,0.23v0.11c0,0.09-0.03,0.16-0.08,0.23
		S11.64,0.78,11.5,0.78z M11.34,3.46h0.34v8.1h-0.34V3.46z"/>
	<path d="M19.3,11.74c-1.07,0-1.9-0.35-2.5-1.06c-0.6-0.71-0.9-1.77-0.9-3.18c0-1.4,0.29-2.45,0.88-3.17
		c0.59-0.71,1.4-1.07,2.45-1.07c0.49,0,0.94,0.09,1.34,0.28S21.31,4,21.6,4.35c0.29,0.35,0.51,0.78,0.67,1.27
		c0.16,0.5,0.24,1.05,0.24,1.67v0.16h-6.24v0.43c0,1.1,0.26,1.97,0.78,2.6s1.27,0.95,2.24,0.95c1.37,0,2.3-0.66,2.8-1.98l0.29,0.11
		c-0.25,0.67-0.63,1.2-1.14,1.59C20.72,11.55,20.07,11.74,19.3,11.74z M19.23,3.57c-0.95,0-1.68,0.32-2.19,0.95
		c-0.51,0.63-0.77,1.5-0.77,2.6v0.03h5.87V7.09c0-0.53-0.07-1.02-0.21-1.45c-0.14-0.43-0.34-0.8-0.59-1.11
		c-0.26-0.31-0.56-0.55-0.92-0.71S19.67,3.57,19.23,3.57z"/>
	<path d="M26.74,11.55v-8.1h0.34v1.41h0.05c0.1-0.19,0.21-0.37,0.34-0.54c0.13-0.17,0.3-0.31,0.5-0.44s0.43-0.23,0.71-0.31
		c0.28-0.08,0.6-0.11,0.98-0.11h0.66v0.32h-0.7c-0.33,0-0.65,0.04-0.95,0.14c-0.3,0.09-0.57,0.23-0.81,0.41
		c-0.23,0.18-0.42,0.41-0.56,0.69c-0.14,0.28-0.21,0.6-0.21,0.97v5.57H26.74z"/>
	<path d="M33.78,11.55v-8.1h0.34v1.41h0.05c0.1-0.19,0.21-0.37,0.34-0.54c0.13-0.17,0.3-0.31,0.5-0.44s0.43-0.23,0.71-0.31
		c0.28-0.08,0.6-0.11,0.98-0.11h0.66v0.32h-0.7c-0.33,0-0.65,0.04-0.95,0.14c-0.3,0.09-0.57,0.23-0.81,0.41
		c-0.23,0.18-0.42,0.41-0.56,0.69c-0.14,0.28-0.21,0.6-0.21,0.97v5.57H33.78z"/>
	<path d="M45.89,11.55c-0.31,0-0.46-0.15-0.46-0.46v-0.77h-0.05c-0.2,0.38-0.51,0.72-0.92,1c-0.41,0.28-0.99,0.42-1.74,0.42
		c-0.83,0-1.47-0.19-1.93-0.58c-0.45-0.39-0.68-0.95-0.68-1.69c0-0.33,0.05-0.64,0.15-0.93c0.1-0.29,0.27-0.53,0.5-0.74
		c0.23-0.2,0.55-0.36,0.94-0.48c0.39-0.12,0.87-0.18,1.45-0.18h2.27V5.97c0-0.83-0.19-1.44-0.58-1.82
		c-0.39-0.38-0.96-0.58-1.72-0.58c-0.61,0-1.11,0.12-1.51,0.36c-0.4,0.24-0.71,0.63-0.94,1.16l-0.29-0.13
		c0.22-0.52,0.55-0.94,0.97-1.24s1.01-0.46,1.77-0.46c0.89,0,1.55,0.23,1.98,0.68c0.44,0.45,0.66,1.11,0.66,1.98v5.33h1.36v0.3
		H45.89z M42.72,11.44c0.36,0,0.71-0.05,1.03-0.14c0.33-0.1,0.61-0.24,0.86-0.42c0.25-0.19,0.44-0.42,0.59-0.7s0.22-0.61,0.22-0.98
		V7.44h-2.26c-0.95,0-1.63,0.17-2.06,0.5c-0.42,0.33-0.63,0.76-0.63,1.3v0.48c0,0.57,0.21,0.99,0.62,1.29S42.06,11.44,42.72,11.44z"
		/>
</g>
</svg>
