<!-- Generator: Adobe Illustrator 23.1.1, SVG Export Plug-In  -->
<svg version="1.1" xmlns="http://www.w3.org/2000/svg" xmlns:xlink="http://www.w3.org/1999/xlink" x="0px" y="0px" width="16.01px"
	 height="10.69px" viewBox="0 0 16.01 10.69" style="enable-background:new 0 0 16.01 10.69;" xml:space="preserve">
<defs>
</defs>
<g>
	<path d="M4.76,0.74H0.89L0.6,4.75l0.04,0.01c0.24-0.31,0.52-0.53,0.84-0.65C1.8,3.99,2.18,3.92,2.64,3.92
		c0.77,0,1.36,0.22,1.78,0.67s0.63,1.06,0.63,1.85c0,0.4-0.06,0.76-0.17,1.08S4.6,8.11,4.38,8.33S3.9,8.72,3.59,8.84
		C3.29,8.96,2.94,9.02,2.56,9.02c-0.58,0-1.09-0.1-1.51-0.31S0.28,8.18,0,7.74l0.22-0.13C0.47,8.02,0.79,8.31,1.17,8.5
		s0.84,0.28,1.39,0.28c0.35,0,0.66-0.05,0.94-0.16c0.27-0.11,0.5-0.26,0.69-0.45c0.19-0.19,0.33-0.42,0.43-0.68
		c0.1-0.26,0.15-0.55,0.15-0.86V6.29c0-0.63-0.18-1.14-0.54-1.54C3.86,4.36,3.34,4.16,2.64,4.16c-0.26,0-0.48,0.02-0.68,0.05
		C1.77,4.24,1.59,4.3,1.43,4.37c-0.16,0.07-0.3,0.16-0.43,0.26S0.76,4.86,0.64,5L0.36,4.97L0.67,0.5h4.09V0.74z"/>
	<path d="M6.35,10.69L9.2,0h0.24L6.59,10.69H6.35z"/>
	<path d="M15.72,0.74h-3.88l-0.29,4.01l0.04,0.01c0.24-0.31,0.52-0.53,0.84-0.65c0.32-0.12,0.71-0.19,1.16-0.19
		c0.77,0,1.36,0.22,1.78,0.67s0.63,1.06,0.63,1.85c0,0.4-0.06,0.76-0.17,1.08s-0.28,0.59-0.5,0.81s-0.48,0.39-0.79,0.51
		c-0.31,0.12-0.65,0.18-1.04,0.18c-0.58,0-1.09-0.1-1.51-0.31s-0.77-0.53-1.05-0.97l0.22-0.13c0.26,0.41,0.57,0.71,0.95,0.89
		s0.84,0.28,1.39,0.28c0.35,0,0.66-0.05,0.94-0.16c0.27-0.11,0.5-0.26,0.69-0.45c0.19-0.19,0.33-0.42,0.43-0.68
		c0.1-0.26,0.15-0.55,0.15-0.86V6.29c0-0.63-0.18-1.14-0.54-1.54c-0.36-0.39-0.89-0.59-1.58-0.59c-0.26,0-0.48,0.02-0.68,0.05
		c-0.2,0.03-0.37,0.08-0.53,0.16c-0.16,0.07-0.3,0.16-0.43,0.26S11.71,4.86,11.59,5l-0.28-0.04l0.31-4.46h4.09V0.74z"/>
</g>
</svg>
