<!-- Generator: Adobe Illustrator 23.1.1, SVG Export Plug-In  -->
<svg version="1.1" xmlns="http://www.w3.org/2000/svg" xmlns:xlink="http://www.w3.org/1999/xlink" x="0px" y="0px" width="100.9px"
	 height="8.66px" viewBox="0 0 100.9 8.66" style="enable-background:new 0 0 100.9 8.66;" xml:space="preserve">
<style type="text/css">
	.st0{fill:#FFFFFF;}
</style>
<defs>
</defs>
<g>
	<path class="st0" d="M3.37,8.66c-1.06,0-1.89-0.36-2.48-1.09C0.3,6.85,0,5.79,0,4.38c0-1.41,0.3-2.49,0.89-3.25
		C1.48,0.38,2.31,0,3.37,0c0.7,0,1.29,0.16,1.77,0.47s0.85,0.77,1.11,1.35L5.44,2.32C5.27,1.88,5.01,1.54,4.67,1.28
		c-0.34-0.26-0.78-0.39-1.3-0.39c-0.36,0-0.68,0.07-0.97,0.2C2.12,1.23,1.88,1.42,1.69,1.68c-0.2,0.25-0.35,0.55-0.45,0.9
		c-0.1,0.35-0.16,0.74-0.16,1.17v1.25c0,0.87,0.2,1.55,0.6,2.04s0.96,0.73,1.69,0.73c0.54,0,0.98-0.14,1.34-0.41
		c0.36-0.28,0.62-0.64,0.79-1.1l0.8,0.5C6.05,7.36,5.67,7.82,5.17,8.16C4.68,8.5,4.08,8.66,3.37,8.66z"/>
	<path class="st0" d="M12.04,8.66c-0.54,0-1.03-0.09-1.47-0.28c-0.44-0.19-0.81-0.46-1.12-0.83C9.14,7.19,8.9,6.74,8.74,6.2
		C8.57,5.66,8.48,5.04,8.48,4.33s0.08-1.32,0.25-1.86C8.9,1.94,9.14,1.48,9.45,1.12c0.31-0.37,0.68-0.65,1.12-0.83S11.49,0,12.04,0
		c0.54,0,1.02,0.09,1.46,0.28s0.81,0.47,1.12,0.83c0.31,0.37,0.55,0.82,0.71,1.36s0.25,1.16,0.25,1.86S15.5,5.66,15.34,6.2
		c-0.17,0.54-0.41,0.99-0.71,1.36c-0.31,0.36-0.68,0.64-1.12,0.83C13.06,8.57,12.57,8.66,12.04,8.66z M12.04,7.78
		c0.36,0,0.69-0.06,1-0.19c0.3-0.13,0.57-0.31,0.79-0.55c0.22-0.24,0.39-0.53,0.51-0.87c0.12-0.34,0.18-0.71,0.18-1.13v-1.4
		c0-0.42-0.06-0.79-0.18-1.13c-0.12-0.34-0.29-0.63-0.51-0.87c-0.22-0.24-0.48-0.43-0.79-0.55c-0.3-0.13-0.64-0.19-1-0.19
		s-0.69,0.06-1,0.19s-0.57,0.31-0.79,0.55C10.03,1.88,9.86,2.16,9.74,2.5C9.62,2.84,9.56,3.22,9.56,3.63v1.4
		c0,0.42,0.06,0.79,0.18,1.13c0.12,0.34,0.29,0.63,0.51,0.87c0.22,0.24,0.48,0.43,0.79,0.55S11.68,7.78,12.04,7.78z"/>
	<path class="st0" d="M20.62,3.41l-1.01-1.86h-0.04v6.97h-0.98V0.14h1.16l3.06,5.11l1.01,1.86h0.04V0.14h0.98v8.38h-1.16L20.62,3.41
		z"/>
	<path class="st0" d="M30.61,8.66c-0.68,0-1.26-0.13-1.74-0.39s-0.89-0.62-1.22-1.07l0.74-0.62c0.3,0.39,0.62,0.69,0.98,0.89
		c0.36,0.2,0.78,0.31,1.27,0.31c0.6,0,1.06-0.14,1.37-0.43c0.32-0.29,0.47-0.67,0.47-1.15c0-0.4-0.12-0.71-0.36-0.92
		c-0.24-0.22-0.64-0.39-1.19-0.52L30.26,4.6c-0.77-0.18-1.35-0.44-1.76-0.8c-0.4-0.36-0.61-0.86-0.61-1.51c0-0.37,0.07-0.7,0.2-0.98
		c0.14-0.29,0.33-0.53,0.57-0.72s0.54-0.34,0.88-0.44C29.89,0.05,30.26,0,30.67,0c0.63,0,1.17,0.12,1.63,0.35
		c0.45,0.23,0.83,0.57,1.15,1.02l-0.76,0.55c-0.23-0.32-0.51-0.57-0.84-0.76c-0.33-0.18-0.74-0.28-1.22-0.28
		c-0.54,0-0.96,0.11-1.27,0.34S28.9,1.8,28.9,2.26c0,0.4,0.13,0.7,0.39,0.91c0.26,0.2,0.65,0.37,1.18,0.49l0.68,0.16
		c0.82,0.18,1.42,0.46,1.79,0.84s0.55,0.88,0.55,1.5c0,0.38-0.07,0.73-0.2,1.04c-0.13,0.31-0.32,0.58-0.57,0.79
		c-0.25,0.22-0.55,0.38-0.91,0.5C31.46,8.6,31.06,8.66,30.61,8.66z"/>
	<path class="st0" d="M39.08,1.03v7.49h-1.01V1.03h-2.66V0.14h6.34v0.89H39.08z"/>
	<path class="st0" d="M45.32,8.52h-1.01V0.14h3.34c0.74,0,1.31,0.2,1.72,0.61c0.41,0.41,0.62,1,0.62,1.76
		c0,0.62-0.14,1.12-0.43,1.52c-0.28,0.4-0.7,0.66-1.25,0.79l1.92,3.7h-1.14l-1.81-3.6h-1.96V8.52z M47.65,4.06
		c0.4,0,0.71-0.1,0.93-0.31c0.22-0.21,0.33-0.5,0.33-0.89V2.23c0-0.38-0.11-0.68-0.33-0.89c-0.22-0.21-0.53-0.31-0.93-0.31h-2.33
		v3.02H47.65z"/>
	<path class="st0" d="M53.99,0.14v5.19c0,0.8,0.15,1.41,0.44,1.82s0.82,0.62,1.56,0.62c0.74,0,1.26-0.21,1.56-0.62S58,6.14,58,5.34
		V0.14H59v4.94c0,0.61-0.05,1.14-0.16,1.58c-0.11,0.45-0.28,0.82-0.52,1.12s-0.55,0.52-0.94,0.66c-0.39,0.14-0.86,0.22-1.42,0.22
		c-0.56,0-1.03-0.07-1.41-0.22c-0.38-0.14-0.69-0.36-0.92-0.66c-0.23-0.3-0.4-0.67-0.5-1.12c-0.1-0.45-0.15-0.98-0.15-1.58V0.14
		H53.99z"/>
	<path class="st0" d="M65.32,8.66c-1.06,0-1.89-0.36-2.48-1.09c-0.59-0.72-0.89-1.79-0.89-3.2c0-1.41,0.3-2.49,0.89-3.25
		C63.42,0.38,64.25,0,65.32,0c0.7,0,1.29,0.16,1.77,0.47s0.85,0.77,1.11,1.35l-0.82,0.49c-0.17-0.43-0.42-0.78-0.77-1.04
		c-0.34-0.26-0.78-0.39-1.3-0.39c-0.36,0-0.68,0.07-0.97,0.2c-0.28,0.14-0.52,0.33-0.72,0.58c-0.2,0.25-0.35,0.55-0.45,0.9
		c-0.1,0.35-0.16,0.74-0.16,1.17v1.25c0,0.87,0.2,1.55,0.6,2.04s0.96,0.73,1.69,0.73c0.54,0,0.98-0.14,1.34-0.41
		c0.36-0.28,0.62-0.64,0.79-1.1l0.8,0.5c-0.26,0.59-0.64,1.06-1.14,1.39C66.62,8.5,66.02,8.66,65.32,8.66z"/>
	<path class="st0" d="M73.82,1.03v7.49h-1.01V1.03h-2.66V0.14h6.34v0.89H73.82z"/>
	<path class="st0" d="M78.58,8.52V7.68h1.18v-6.7h-1.18V0.14h3.36v0.84h-1.18v6.7h1.18v0.84H78.58z"/>
	<path class="st0" d="M88.09,8.66c-0.54,0-1.03-0.09-1.47-0.28c-0.44-0.19-0.81-0.46-1.12-0.83c-0.31-0.36-0.55-0.82-0.71-1.36
		c-0.17-0.54-0.25-1.16-0.25-1.87s0.08-1.32,0.25-1.86c0.17-0.54,0.41-0.99,0.71-1.36c0.31-0.37,0.68-0.65,1.12-0.83
		S87.55,0,88.09,0c0.54,0,1.02,0.09,1.46,0.28s0.81,0.47,1.12,0.83c0.31,0.37,0.55,0.82,0.71,1.36s0.25,1.16,0.25,1.86
		s-0.08,1.33-0.25,1.87c-0.17,0.54-0.41,0.99-0.71,1.36C90.37,7.92,90,8.19,89.56,8.38C89.12,8.57,88.63,8.66,88.09,8.66z
		 M88.09,7.78c0.36,0,0.69-0.06,1-0.19c0.3-0.13,0.57-0.31,0.79-0.55c0.22-0.24,0.39-0.53,0.51-0.87c0.12-0.34,0.18-0.71,0.18-1.13
		v-1.4c0-0.42-0.06-0.79-0.18-1.13c-0.12-0.34-0.29-0.63-0.51-0.87c-0.22-0.24-0.48-0.43-0.79-0.55c-0.3-0.13-0.64-0.19-1-0.19
		s-0.69,0.06-1,0.19s-0.57,0.31-0.79,0.55c-0.22,0.24-0.39,0.53-0.51,0.87c-0.12,0.34-0.18,0.71-0.18,1.13v1.4
		c0,0.42,0.06,0.79,0.18,1.13c0.12,0.34,0.29,0.63,0.51,0.87c0.22,0.24,0.48,0.43,0.79,0.55S87.73,7.78,88.09,7.78z"/>
	<path class="st0" d="M96.67,3.41l-1.01-1.86h-0.04v6.97h-0.98V0.14h1.16l3.06,5.11l1.01,1.86h0.04V0.14h0.98v8.38h-1.16L96.67,3.41
		z"/>
</g>
</svg>
