<!-- Generator: Adobe Illustrator 23.1.1, SVG Export Plug-In  -->
<svg version="1.1" xmlns="http://www.w3.org/2000/svg" xmlns:xlink="http://www.w3.org/1999/xlink" x="0px" y="0px"
	 width="222.56px" height="53.44px" viewBox="0 0 222.56 53.44" style="enable-background:new 0 0 222.56 53.44;"
	 xml:space="preserve">
<defs>
</defs>
<g>
	<path d="M2.59,3.2c-0.15,0-0.25-0.03-0.31-0.1C2.22,3.04,2.19,2.97,2.19,2.9c0-0.04,0-0.1,0.02-0.16c0.01-0.06,0.02-0.11,0.03-0.14
		c0.05-0.21,0.13-0.44,0.24-0.68c0.11-0.24,0.24-0.47,0.39-0.7c0.16-0.23,0.32-0.45,0.5-0.66C3.56,0.34,3.75,0.16,3.95,0h0.34
		c-0.48,0.41-0.85,0.81-1.1,1.22S2.76,1.97,2.67,2.27c0.18,0,0.3,0.03,0.35,0.1C3.08,2.43,3.1,2.5,3.1,2.58
		c0,0.04-0.01,0.09-0.02,0.15s-0.02,0.1-0.03,0.14C3.04,2.95,2.99,3.03,2.93,3.1C2.86,3.17,2.75,3.2,2.59,3.2z M5.15,3.2
		C5,3.2,4.9,3.17,4.84,3.1C4.78,3.04,4.75,2.97,4.75,2.9c0-0.04,0.01-0.1,0.02-0.16C4.78,2.67,4.79,2.62,4.8,2.59
		c0.05-0.21,0.13-0.44,0.24-0.68c0.11-0.24,0.24-0.47,0.39-0.7c0.15-0.23,0.32-0.45,0.5-0.66C6.12,0.34,6.31,0.16,6.51,0h0.34
		C6.37,0.41,6,0.81,5.74,1.22S5.32,1.97,5.23,2.27c0.18,0,0.3,0.03,0.35,0.1C5.64,2.43,5.66,2.5,5.66,2.58c0,0.04,0,0.09-0.02,0.15
		s-0.02,0.1-0.03,0.14C5.59,2.95,5.55,3.03,5.49,3.1C5.42,3.17,5.31,3.2,5.15,3.2z"/>
	<path d="M14,0.99l-2.18,10.85h-0.35l2.18-10.85H9.66l0.06-0.32h8.32l-0.06,0.32H14z"/>
	<path d="M21.65,0h0.34l-1.07,5.42h0.05c0.32-0.61,0.71-1.07,1.16-1.39c0.45-0.32,1.02-0.48,1.69-0.48c0.68,0,1.21,0.18,1.57,0.55
		c0.36,0.37,0.54,0.89,0.54,1.56c0,0.16-0.01,0.33-0.03,0.52s-0.05,0.36-0.08,0.52l-0.96,4.83h1.36l-0.06,0.3H24.9
		c-0.25,0-0.37-0.1-0.37-0.3c0-0.05,0-0.1,0.01-0.13c0.01-0.03,0.01-0.08,0.02-0.13l0.91-4.56c0.03-0.18,0.06-0.37,0.08-0.56
		c0.02-0.19,0.03-0.34,0.03-0.45c0-1.24-0.61-1.86-1.82-1.86c-0.36,0-0.73,0.07-1.1,0.22c-0.37,0.14-0.71,0.4-1.03,0.78
		c-0.18,0.21-0.37,0.48-0.57,0.8c-0.2,0.32-0.34,0.72-0.44,1.2l-0.99,4.99H19.3L21.65,0z"/>
	<path d="M32.59,12.03c-0.91,0-1.6-0.26-2.09-0.77s-0.73-1.32-0.73-2.42c0-0.74,0.1-1.43,0.29-2.07c0.19-0.64,0.46-1.21,0.81-1.68
		s0.76-0.85,1.25-1.13s1.02-0.42,1.61-0.42c0.77,0,1.38,0.18,1.84,0.53c0.46,0.35,0.69,0.83,0.69,1.44c0,0.26-0.06,0.53-0.19,0.82
		c-0.13,0.29-0.4,0.57-0.82,0.82C34.82,7.41,34.2,7.62,33.4,7.8c-0.8,0.18-1.88,0.28-3.24,0.31c-0.01,0.08-0.02,0.2-0.03,0.35
		s-0.02,0.27-0.02,0.35c0,1.04,0.21,1.78,0.62,2.23c0.41,0.45,1.03,0.68,1.86,0.68c0.66,0,1.25-0.18,1.76-0.53
		c0.51-0.35,0.93-0.84,1.26-1.47l0.3,0.13c-0.41,0.76-0.89,1.31-1.46,1.66C33.88,11.86,33.26,12.03,32.59,12.03z M33.7,3.86
		c-0.45,0-0.86,0.09-1.25,0.27c-0.38,0.18-0.72,0.44-1.02,0.77s-0.54,0.72-0.74,1.17c-0.2,0.45-0.35,0.94-0.45,1.48l-0.05,0.27
		c1.2-0.02,2.17-0.1,2.91-0.24c0.75-0.14,1.33-0.32,1.74-0.53c0.42-0.21,0.7-0.46,0.84-0.72c0.14-0.27,0.22-0.54,0.22-0.8
		c0-0.49-0.17-0.89-0.52-1.2S34.47,3.86,33.7,3.86z"/>
	<path d="M41.65,12.03c-0.67,0-1.25-0.13-1.74-0.4s-0.9-0.66-1.24-1.17l0.29-0.19c0.61,0.97,1.5,1.46,2.69,1.46
		c0.75,0,1.35-0.18,1.8-0.54c0.45-0.36,0.68-0.88,0.68-1.55c0-0.26-0.04-0.47-0.11-0.65c-0.07-0.18-0.18-0.33-0.32-0.46
		c-0.14-0.13-0.31-0.24-0.51-0.32c-0.2-0.08-0.44-0.16-0.7-0.22l-0.8-0.21c-0.28-0.07-0.53-0.16-0.75-0.26
		c-0.22-0.1-0.42-0.23-0.58-0.38s-0.29-0.33-0.38-0.55s-0.14-0.48-0.14-0.79c0-0.37,0.07-0.7,0.22-0.98
		c0.14-0.28,0.34-0.51,0.58-0.7c0.24-0.19,0.52-0.33,0.85-0.42c0.33-0.1,0.67-0.14,1.03-0.14c0.35,0,0.66,0.04,0.93,0.1
		s0.5,0.16,0.71,0.28c0.21,0.12,0.39,0.25,0.54,0.41c0.15,0.16,0.29,0.31,0.41,0.47l-0.26,0.22c-0.22-0.32-0.51-0.6-0.86-0.83
		c-0.35-0.23-0.85-0.35-1.49-0.35c-0.7,0-1.27,0.17-1.69,0.5c-0.42,0.33-0.63,0.81-0.63,1.44c0,0.5,0.14,0.87,0.41,1.11
		c0.27,0.24,0.67,0.43,1.21,0.57l0.8,0.21c0.27,0.08,0.52,0.16,0.75,0.26c0.23,0.1,0.43,0.22,0.6,0.36c0.17,0.14,0.3,0.32,0.39,0.54
		c0.1,0.21,0.14,0.47,0.14,0.78c0,0.41-0.07,0.76-0.22,1.06c-0.14,0.3-0.34,0.55-0.6,0.75c-0.26,0.2-0.55,0.35-0.9,0.46
		C42.41,11.98,42.04,12.03,41.65,12.03z"/>
	<path d="M51.01,12.03c-0.91,0-1.6-0.26-2.09-0.77s-0.73-1.32-0.73-2.42c0-0.74,0.1-1.43,0.29-2.07c0.19-0.64,0.46-1.21,0.81-1.68
		s0.76-0.85,1.25-1.13s1.02-0.42,1.61-0.42c0.77,0,1.38,0.18,1.84,0.53c0.46,0.35,0.69,0.83,0.69,1.44c0,0.26-0.06,0.53-0.19,0.82
		c-0.13,0.29-0.4,0.57-0.82,0.82c-0.42,0.25-1.04,0.46-1.84,0.64c-0.8,0.18-1.88,0.28-3.24,0.31c-0.01,0.08-0.02,0.2-0.03,0.35
		s-0.02,0.27-0.02,0.35c0,1.04,0.21,1.78,0.62,2.23c0.41,0.45,1.03,0.68,1.86,0.68c0.66,0,1.25-0.18,1.76-0.53
		c0.51-0.35,0.93-0.84,1.26-1.47l0.3,0.13c-0.41,0.76-0.89,1.31-1.46,1.66C52.3,11.86,51.68,12.03,51.01,12.03z M52.11,3.86
		c-0.45,0-0.86,0.09-1.25,0.27c-0.38,0.18-0.72,0.44-1.02,0.77s-0.54,0.72-0.74,1.17c-0.2,0.45-0.35,0.94-0.45,1.48l-0.05,0.27
		c1.2-0.02,2.17-0.1,2.91-0.24c0.75-0.14,1.33-0.32,1.74-0.53c0.42-0.21,0.7-0.46,0.84-0.72c0.14-0.27,0.22-0.54,0.22-0.8
		c0-0.49-0.17-0.89-0.52-1.2S52.89,3.86,52.11,3.86z"/>
	<path d="M65.42,12.03c-0.67,0-1.25-0.13-1.74-0.4s-0.9-0.66-1.24-1.17l0.29-0.19c0.61,0.97,1.5,1.46,2.69,1.46
		c0.75,0,1.35-0.18,1.8-0.54c0.45-0.36,0.68-0.88,0.68-1.55c0-0.26-0.04-0.47-0.11-0.65c-0.07-0.18-0.18-0.33-0.32-0.46
		c-0.14-0.13-0.31-0.24-0.51-0.32c-0.2-0.08-0.44-0.16-0.7-0.22l-0.8-0.21c-0.28-0.07-0.53-0.16-0.75-0.26
		c-0.22-0.1-0.42-0.23-0.58-0.38s-0.29-0.33-0.38-0.55S63.6,6.1,63.6,5.79c0-0.37,0.07-0.7,0.22-0.98c0.14-0.28,0.34-0.51,0.58-0.7
		c0.24-0.19,0.52-0.33,0.85-0.42c0.33-0.1,0.67-0.14,1.03-0.14c0.35,0,0.66,0.04,0.93,0.1s0.5,0.16,0.71,0.28
		c0.21,0.12,0.39,0.25,0.54,0.41c0.15,0.16,0.29,0.31,0.41,0.47l-0.26,0.22c-0.22-0.32-0.51-0.6-0.86-0.83
		c-0.35-0.23-0.85-0.35-1.49-0.35c-0.7,0-1.27,0.17-1.69,0.5c-0.42,0.33-0.63,0.81-0.63,1.44c0,0.5,0.14,0.87,0.41,1.11
		c0.27,0.24,0.67,0.43,1.21,0.57l0.8,0.21c0.27,0.08,0.52,0.16,0.75,0.26c0.23,0.1,0.43,0.22,0.6,0.36c0.17,0.14,0.3,0.32,0.39,0.54
		c0.1,0.21,0.14,0.47,0.14,0.78c0,0.41-0.07,0.76-0.22,1.06c-0.14,0.3-0.34,0.55-0.6,0.75c-0.26,0.2-0.55,0.35-0.9,0.46
		C66.19,11.98,65.82,12.03,65.42,12.03z"/>
	<path d="M74.21,0h0.34l-1.66,8.3h0.06l1.79-1.5l3.5-3.06h0.43l-3.89,3.42l2.26,4.37h0.91l-0.06,0.3h-0.77
		c-0.12,0-0.21-0.03-0.27-0.08c-0.06-0.05-0.13-0.14-0.19-0.26l-2.13-4.14l-1.74,1.46l-0.61,3.02h-0.34L74.21,0z"/>
	<path d="M81.54,11.84c-0.25,0-0.37-0.1-0.37-0.3c0-0.05,0-0.1,0.01-0.13c0.01-0.03,0.01-0.08,0.02-0.13l1.52-7.54h0.34l-1.57,7.79
		h1.36l-0.06,0.3H81.54z M83.44,1.07c-0.12,0-0.2-0.03-0.25-0.08c-0.05-0.05-0.07-0.11-0.07-0.18c0-0.03,0-0.06,0.01-0.1
		c0.01-0.03,0.01-0.07,0.02-0.13c0.02-0.1,0.06-0.17,0.13-0.22c0.06-0.05,0.17-0.08,0.3-0.08c0.12,0,0.2,0.03,0.25,0.08
		c0.05,0.05,0.07,0.11,0.07,0.18c0,0.03,0,0.06-0.01,0.1c-0.01,0.03-0.01,0.08-0.02,0.13c-0.02,0.1-0.06,0.17-0.13,0.22
		C83.68,1.04,83.58,1.07,83.44,1.07z"/>
	<path d="M88.77,12.03c-0.67,0-1.25-0.13-1.74-0.4s-0.9-0.66-1.24-1.17l0.29-0.19c0.61,0.97,1.5,1.46,2.69,1.46
		c0.75,0,1.35-0.18,1.8-0.54c0.45-0.36,0.68-0.88,0.68-1.55c0-0.26-0.04-0.47-0.11-0.65c-0.07-0.18-0.18-0.33-0.32-0.46
		c-0.14-0.13-0.31-0.24-0.51-0.32c-0.2-0.08-0.44-0.16-0.7-0.22l-0.8-0.21c-0.28-0.07-0.53-0.16-0.75-0.26
		c-0.22-0.1-0.42-0.23-0.58-0.38s-0.29-0.33-0.38-0.55s-0.14-0.48-0.14-0.79c0-0.37,0.07-0.7,0.22-0.98
		c0.14-0.28,0.34-0.51,0.58-0.7c0.24-0.19,0.52-0.33,0.85-0.42c0.33-0.1,0.67-0.14,1.03-0.14c0.35,0,0.66,0.04,0.93,0.1
		s0.5,0.16,0.71,0.28c0.21,0.12,0.39,0.25,0.54,0.41c0.15,0.16,0.29,0.31,0.41,0.47l-0.26,0.22c-0.22-0.32-0.51-0.6-0.86-0.83
		c-0.35-0.23-0.85-0.35-1.49-0.35c-0.7,0-1.27,0.17-1.69,0.5c-0.42,0.33-0.63,0.81-0.63,1.44c0,0.5,0.14,0.87,0.41,1.11
		c0.27,0.24,0.67,0.43,1.21,0.57l0.8,0.21c0.27,0.08,0.52,0.16,0.75,0.26c0.23,0.1,0.43,0.22,0.6,0.36c0.17,0.14,0.3,0.32,0.39,0.54
		c0.1,0.21,0.14,0.47,0.14,0.78c0,0.41-0.07,0.76-0.22,1.06c-0.14,0.3-0.34,0.55-0.6,0.75c-0.26,0.2-0.55,0.35-0.9,0.46
		C89.53,11.98,89.16,12.03,88.77,12.03z"/>
	<path d="M106.3,11.84c-0.25,0-0.37-0.1-0.37-0.3c0-0.05,0-0.1,0.01-0.13c0-0.03,0.01-0.08,0.02-0.13l0.24-1.22h-0.05
		c-0.34,0.6-0.74,1.08-1.19,1.43c-0.45,0.36-1.02,0.54-1.7,0.54c-0.42,0-0.79-0.08-1.11-0.23s-0.6-0.37-0.82-0.63
		c-0.22-0.27-0.39-0.58-0.5-0.95s-0.17-0.77-0.17-1.19c0-0.74,0.09-1.43,0.26-2.1c0.18-0.66,0.43-1.24,0.77-1.74
		c0.34-0.5,0.75-0.9,1.25-1.19c0.5-0.29,1.06-0.44,1.7-0.44c0.68,0,1.23,0.16,1.65,0.46c0.42,0.31,0.7,0.71,0.85,1.22h0.05
		l0.29-1.49h0.34l-1.55,7.79h1.36l-0.06,0.3H106.3z M103.26,11.73c0.34,0,0.65-0.05,0.93-0.14s0.55-0.26,0.83-0.5
		c0.31-0.26,0.61-0.6,0.89-1.02c0.28-0.43,0.48-0.92,0.6-1.49l0.45-2.27c0.05-0.27,0.05-0.54-0.01-0.83s-0.18-0.55-0.36-0.79
		c-0.18-0.24-0.43-0.44-0.75-0.59c-0.32-0.15-0.72-0.23-1.2-0.23c-0.92,0-1.67,0.32-2.26,0.94c-0.59,0.63-0.98,1.47-1.18,2.53
		l-0.11,0.56c-0.03,0.18-0.06,0.36-0.07,0.54c-0.02,0.18-0.02,0.38-0.02,0.6c0,0.37,0.04,0.72,0.14,1.05s0.23,0.61,0.42,0.86
		c0.19,0.25,0.42,0.44,0.7,0.58C102.53,11.66,102.87,11.73,103.26,11.73z"/>
	<path d="M111.2,11.84l1.62-8.1h0.34l-0.37,1.84h0.05c0.14-0.27,0.29-0.52,0.46-0.74c0.17-0.23,0.36-0.42,0.58-0.58
		s0.47-0.29,0.75-0.38c0.28-0.09,0.61-0.14,0.98-0.14h0.48l-0.06,0.32h-0.46c-0.39,0-0.76,0.08-1.1,0.24
		c-0.34,0.16-0.65,0.38-0.91,0.66c-0.27,0.28-0.49,0.61-0.67,0.99s-0.31,0.78-0.4,1.21l-0.93,4.68H111.2z"/>
	<path d="M121.06,12.03c-0.91,0-1.6-0.26-2.09-0.77s-0.73-1.32-0.73-2.42c0-0.74,0.1-1.43,0.29-2.07c0.19-0.64,0.46-1.21,0.81-1.68
		s0.76-0.85,1.25-1.13s1.02-0.42,1.61-0.42c0.77,0,1.38,0.18,1.84,0.53c0.46,0.35,0.69,0.83,0.69,1.44c0,0.26-0.06,0.53-0.19,0.82
		c-0.13,0.29-0.4,0.57-0.82,0.82c-0.42,0.25-1.04,0.46-1.84,0.64c-0.8,0.18-1.88,0.28-3.24,0.31c-0.01,0.08-0.02,0.2-0.03,0.35
		s-0.02,0.27-0.02,0.35c0,1.04,0.21,1.78,0.62,2.23c0.41,0.45,1.03,0.68,1.86,0.68c0.66,0,1.25-0.18,1.76-0.53
		c0.51-0.35,0.93-0.84,1.26-1.47l0.3,0.13c-0.41,0.76-0.89,1.31-1.46,1.66C122.35,11.86,121.73,12.03,121.06,12.03z M122.16,3.86
		c-0.45,0-0.86,0.09-1.25,0.27c-0.38,0.18-0.72,0.44-1.02,0.77s-0.54,0.72-0.74,1.17c-0.2,0.45-0.35,0.94-0.45,1.48l-0.05,0.27
		c1.2-0.02,2.17-0.1,2.91-0.24c0.75-0.14,1.33-0.32,1.74-0.53c0.42-0.21,0.7-0.46,0.84-0.72c0.14-0.27,0.22-0.54,0.22-0.8
		c0-0.49-0.17-0.89-0.52-1.2S122.94,3.86,122.16,3.86z"/>
	<path d="M138.9,11.84c-0.25,0-0.37-0.1-0.37-0.3c0-0.05,0-0.1,0.01-0.13c0-0.03,0.01-0.08,0.02-0.13l0.24-1.22h-0.05
		c-0.34,0.6-0.74,1.08-1.19,1.43c-0.45,0.36-1.02,0.54-1.7,0.54c-0.42,0-0.79-0.08-1.11-0.23s-0.6-0.37-0.82-0.63
		c-0.22-0.27-0.39-0.58-0.5-0.95s-0.17-0.77-0.17-1.19c0-0.74,0.09-1.43,0.26-2.1c0.18-0.66,0.43-1.24,0.77-1.74
		c0.34-0.5,0.75-0.9,1.25-1.19c0.5-0.29,1.06-0.44,1.7-0.44c0.68,0,1.23,0.16,1.65,0.46c0.42,0.31,0.7,0.71,0.85,1.22h0.05
		l0.29-1.49h0.34l-1.55,7.79h1.36l-0.06,0.3H138.9z M135.86,11.73c0.34,0,0.65-0.05,0.93-0.14s0.55-0.26,0.83-0.5
		c0.31-0.26,0.61-0.6,0.89-1.02c0.28-0.43,0.48-0.92,0.6-1.49l0.45-2.27c0.05-0.27,0.05-0.54-0.01-0.83s-0.18-0.55-0.36-0.79
		c-0.18-0.24-0.43-0.44-0.75-0.59c-0.32-0.15-0.72-0.23-1.2-0.23c-0.92,0-1.67,0.32-2.26,0.94c-0.59,0.63-0.98,1.47-1.18,2.53
		l-0.11,0.56c-0.03,0.18-0.06,0.36-0.07,0.54c-0.02,0.18-0.02,0.38-0.02,0.6c0,0.37,0.04,0.72,0.14,1.05s0.23,0.61,0.42,0.86
		c0.19,0.25,0.42,0.44,0.7,0.58C135.12,11.66,135.46,11.73,135.86,11.73z"/>
	<path d="M146.08,0h0.34l-1.1,5.52h0.05c0.34-0.6,0.74-1.07,1.19-1.43c0.45-0.36,1.02-0.54,1.7-0.54c0.42,0,0.79,0.08,1.11,0.23
		c0.33,0.15,0.6,0.37,0.82,0.63c0.22,0.27,0.39,0.58,0.5,0.95s0.17,0.77,0.17,1.19c0,0.74-0.09,1.43-0.26,2.1
		c-0.18,0.66-0.43,1.24-0.77,1.74c-0.34,0.5-0.75,0.9-1.25,1.19s-1.06,0.44-1.7,0.44c-0.68,0-1.23-0.16-1.65-0.46
		c-0.42-0.31-0.7-0.71-0.85-1.22h-0.05l-0.29,1.49h-0.34L146.08,0z M146.88,11.73c0.92,0,1.67-0.31,2.25-0.94
		c0.58-0.63,0.98-1.47,1.19-2.53l0.11-0.56c0.03-0.18,0.06-0.36,0.07-0.54c0.02-0.18,0.02-0.38,0.02-0.6c0-0.37-0.05-0.72-0.14-1.05
		c-0.09-0.33-0.23-0.61-0.42-0.86c-0.19-0.25-0.42-0.44-0.7-0.58c-0.28-0.14-0.62-0.22-1.02-0.22c-0.34,0-0.65,0.05-0.93,0.14
		s-0.55,0.26-0.83,0.5c-0.31,0.26-0.61,0.6-0.89,1.02c-0.28,0.43-0.48,0.92-0.6,1.49l-0.45,2.27c-0.05,0.27-0.05,0.54,0.01,0.83
		c0.06,0.29,0.18,0.55,0.36,0.79c0.18,0.24,0.43,0.44,0.75,0.59C146,11.65,146.4,11.73,146.88,11.73z"/>
	<path d="M156.59,12.03c-0.67,0-1.25-0.13-1.74-0.4s-0.9-0.66-1.24-1.17l0.29-0.19c0.61,0.97,1.5,1.46,2.69,1.46
		c0.75,0,1.35-0.18,1.8-0.54c0.45-0.36,0.68-0.88,0.68-1.55c0-0.26-0.04-0.47-0.11-0.65c-0.07-0.18-0.18-0.33-0.32-0.46
		c-0.14-0.13-0.31-0.24-0.51-0.32c-0.2-0.08-0.44-0.16-0.7-0.22l-0.8-0.21c-0.28-0.07-0.53-0.16-0.75-0.26
		c-0.22-0.1-0.42-0.23-0.58-0.38s-0.29-0.33-0.38-0.55s-0.14-0.48-0.14-0.79c0-0.37,0.07-0.7,0.22-0.98
		c0.14-0.28,0.34-0.51,0.58-0.7c0.24-0.19,0.52-0.33,0.85-0.42c0.33-0.1,0.67-0.14,1.03-0.14c0.35,0,0.66,0.04,0.93,0.1
		s0.5,0.16,0.71,0.28c0.21,0.12,0.39,0.25,0.54,0.41c0.15,0.16,0.29,0.31,0.41,0.47l-0.26,0.22c-0.22-0.32-0.51-0.6-0.86-0.83
		c-0.35-0.23-0.85-0.35-1.49-0.35c-0.7,0-1.27,0.17-1.69,0.5c-0.42,0.33-0.63,0.81-0.63,1.44c0,0.5,0.14,0.87,0.41,1.11
		c0.27,0.24,0.67,0.43,1.21,0.57l0.8,0.21c0.27,0.08,0.52,0.16,0.75,0.26c0.23,0.1,0.43,0.22,0.6,0.36c0.17,0.14,0.3,0.32,0.39,0.54
		c0.1,0.21,0.14,0.47,0.14,0.78c0,0.41-0.07,0.76-0.22,1.06c-0.14,0.3-0.34,0.55-0.6,0.75c-0.26,0.2-0.55,0.35-0.9,0.46
		C157.35,11.98,156.99,12.03,156.59,12.03z"/>
	<path d="M165.76,12.03c-0.43,0-0.8-0.08-1.14-0.22s-0.61-0.36-0.83-0.62c-0.22-0.27-0.39-0.57-0.51-0.92s-0.18-0.72-0.18-1.13
		c0-0.75,0.08-1.46,0.26-2.14c0.17-0.68,0.42-1.27,0.76-1.78s0.75-0.92,1.25-1.22s1.07-0.45,1.74-0.45c0.43,0,0.8,0.08,1.14,0.22
		c0.33,0.15,0.61,0.36,0.83,0.62c0.22,0.27,0.39,0.58,0.51,0.93c0.12,0.35,0.18,0.73,0.18,1.12c0,0.75-0.08,1.46-0.26,2.14
		s-0.42,1.27-0.76,1.78c-0.34,0.51-0.75,0.92-1.25,1.22S166.42,12.03,165.76,12.03z M165.79,11.73c0.91,0,1.65-0.31,2.23-0.93
		c0.58-0.62,0.98-1.47,1.19-2.56l0.13-0.64c0.03-0.18,0.05-0.37,0.06-0.55s0.02-0.39,0.02-0.6c0-0.35-0.04-0.69-0.14-1
		s-0.23-0.59-0.42-0.82s-0.44-0.42-0.74-0.56c-0.3-0.14-0.65-0.21-1.06-0.21c-0.91,0-1.65,0.31-2.23,0.93
		c-0.58,0.62-0.98,1.47-1.19,2.56l-0.13,0.64c-0.03,0.18-0.05,0.37-0.06,0.55s-0.02,0.39-0.02,0.6c0,0.35,0.04,0.69,0.14,1
		s0.23,0.59,0.42,0.82c0.19,0.23,0.44,0.42,0.74,0.56C165.03,11.66,165.39,11.73,165.79,11.73z"/>
	<path d="M173.58,11.84c-0.25,0-0.37-0.1-0.37-0.3c0-0.05,0-0.1,0.01-0.13c0.01-0.03,0.01-0.08,0.02-0.13L175.5,0h0.34l-2.3,11.54
		h1.36l-0.06,0.3H173.58z"/>
	<path d="M180.29,3.74l-1.02,5.12c-0.03,0.18-0.06,0.37-0.08,0.56s-0.03,0.34-0.03,0.45c0,1.24,0.61,1.86,1.82,1.86
		c0.36,0,0.73-0.07,1.1-0.22c0.37-0.14,0.71-0.4,1.03-0.78c0.18-0.21,0.37-0.48,0.57-0.8c0.2-0.32,0.34-0.72,0.44-1.2l0.99-4.99
		h0.34l-1.55,7.79h1.36l-0.06,0.3h-1.25c-0.25,0-0.37-0.1-0.37-0.3c0-0.05,0-0.1,0.01-0.13c0-0.03,0.01-0.08,0.02-0.13l0.22-1.12
		h-0.05c-0.32,0.61-0.71,1.07-1.16,1.39c-0.45,0.32-1.02,0.48-1.69,0.48c-0.68,0-1.21-0.18-1.57-0.55
		c-0.36-0.37-0.54-0.89-0.54-1.56c0-0.16,0.01-0.33,0.03-0.52c0.02-0.19,0.05-0.36,0.08-0.52l1.02-5.14H180.29z"/>
	<path d="M189.58,11.84c-0.25,0-0.37-0.1-0.37-0.3c0-0.05,0-0.1,0.01-0.13c0-0.03,0.01-0.08,0.02-0.13l1.44-7.23h-1.52l0.06-0.3
		h1.15c0.15,0,0.26-0.03,0.32-0.09c0.06-0.06,0.11-0.16,0.13-0.31l0.38-1.9h0.34l-0.46,2.3h1.94l-0.06,0.3h-1.94l-1.49,7.49h1.81
		l-0.06,0.3H189.58z"/>
	<path d="M195.69,11.84c-0.25,0-0.37-0.1-0.37-0.3c0-0.05,0-0.1,0.01-0.13c0.01-0.03,0.01-0.08,0.02-0.13L197.61,0h0.34l-2.3,11.54
		h1.36l-0.06,0.3H195.69z"/>
	<path d="M203.53,12.03c-0.91,0-1.6-0.26-2.09-0.77s-0.73-1.32-0.73-2.42c0-0.74,0.1-1.43,0.29-2.07c0.19-0.64,0.46-1.21,0.81-1.68
		s0.76-0.85,1.25-1.13s1.02-0.42,1.61-0.42c0.77,0,1.38,0.18,1.84,0.53c0.46,0.35,0.69,0.83,0.69,1.44c0,0.26-0.06,0.53-0.19,0.82
		c-0.13,0.29-0.4,0.57-0.82,0.82c-0.42,0.25-1.04,0.46-1.84,0.64c-0.8,0.18-1.88,0.28-3.24,0.31c-0.01,0.08-0.02,0.2-0.03,0.35
		s-0.02,0.27-0.02,0.35c0,1.04,0.21,1.78,0.62,2.23c0.41,0.45,1.03,0.68,1.86,0.68c0.66,0,1.25-0.18,1.76-0.53
		c0.51-0.35,0.93-0.84,1.26-1.47l0.3,0.13c-0.41,0.76-0.89,1.31-1.46,1.66C204.83,11.86,204.21,12.03,203.53,12.03z M204.64,3.86
		c-0.45,0-0.86,0.09-1.25,0.27c-0.38,0.18-0.72,0.44-1.02,0.77s-0.54,0.72-0.74,1.17c-0.2,0.45-0.35,0.94-0.45,1.48l-0.05,0.27
		c1.2-0.02,2.17-0.1,2.91-0.24c0.75-0.14,1.33-0.32,1.74-0.53c0.42-0.21,0.7-0.46,0.84-0.72c0.14-0.27,0.22-0.54,0.22-0.8
		c0-0.49-0.17-0.89-0.52-1.2S205.42,3.86,204.64,3.86z"/>
	<path d="M216.59,3.74h0.37l-6.21,10.9c-0.08,0.15-0.17,0.25-0.26,0.31c-0.09,0.06-0.2,0.09-0.35,0.09h-1.2l0.06-0.3h1.34l1.6-2.85
		l-1.46-8.14h0.32l1.36,7.71h0.05L216.59,3.74z"/>
	<path d="M6.38,31.04c-0.25,0-0.37-0.1-0.37-0.3c0-0.05,0-0.1,0.01-0.13c0-0.03,0.01-0.08,0.02-0.13l0.24-1.22H6.24
		c-0.34,0.6-0.74,1.08-1.19,1.43c-0.45,0.36-1.02,0.54-1.7,0.54c-0.42,0-0.79-0.08-1.11-0.23s-0.6-0.37-0.82-0.63
		c-0.22-0.27-0.39-0.58-0.5-0.95s-0.17-0.77-0.17-1.19c0-0.74,0.09-1.43,0.26-2.1c0.18-0.66,0.43-1.24,0.77-1.74
		c0.34-0.5,0.75-0.9,1.25-1.19c0.5-0.29,1.06-0.44,1.7-0.44c0.68,0,1.23,0.16,1.65,0.46c0.42,0.31,0.7,0.71,0.85,1.22h0.05
		l0.29-1.49h0.34l-1.55,7.79H7.7l-0.06,0.3H6.38z M3.34,30.93c0.34,0,0.65-0.05,0.93-0.14s0.55-0.26,0.83-0.5
		c0.31-0.26,0.61-0.6,0.89-1.02c0.28-0.43,0.48-0.92,0.6-1.49l0.45-2.27c0.05-0.27,0.05-0.54-0.01-0.83s-0.18-0.55-0.36-0.79
		c-0.18-0.24-0.43-0.44-0.75-0.59c-0.32-0.15-0.72-0.23-1.2-0.23c-0.92,0-1.67,0.32-2.26,0.94c-0.59,0.63-0.98,1.47-1.18,2.53
		l-0.11,0.56c-0.03,0.18-0.06,0.36-0.07,0.54C1.08,27.8,1.07,28,1.07,28.22c0,0.37,0.04,0.72,0.14,1.05s0.23,0.61,0.42,0.86
		c0.19,0.25,0.42,0.44,0.7,0.58C2.61,30.86,2.95,30.93,3.34,30.93z"/>
	<path d="M11.28,31.04l1.62-8.1h0.34l-0.34,1.68h0.05c0.29-0.57,0.65-1.02,1.1-1.36c0.44-0.34,0.98-0.51,1.62-0.51
		c0.66,0,1.16,0.19,1.5,0.58c0.34,0.38,0.51,0.85,0.52,1.41h0.05c0.28-0.61,0.66-1.09,1.14-1.45c0.48-0.36,1.06-0.54,1.74-0.54
		c0.65,0,1.15,0.18,1.5,0.55c0.35,0.37,0.52,0.89,0.52,1.56c0,0.16-0.01,0.33-0.03,0.52s-0.05,0.36-0.08,0.52l-0.96,4.83h1.36
		l-0.06,0.3H21.6c-0.25,0-0.37-0.1-0.37-0.3c0-0.05,0-0.1,0.01-0.13c0.01-0.03,0.01-0.08,0.02-0.13l0.91-4.56
		c0.03-0.18,0.06-0.37,0.08-0.56c0.02-0.19,0.03-0.34,0.03-0.45c0-0.62-0.15-1.08-0.44-1.39c-0.29-0.31-0.72-0.46-1.29-0.46
		c-0.35,0-0.71,0.08-1.07,0.23c-0.36,0.15-0.69,0.41-0.99,0.76c-0.2,0.24-0.39,0.5-0.55,0.78c-0.17,0.29-0.29,0.66-0.38,1.1
		l-1.02,5.1h-0.34l1.02-5.12c0.03-0.18,0.06-0.37,0.08-0.56c0.02-0.19,0.03-0.34,0.03-0.45c0-1.24-0.58-1.86-1.73-1.86
		c-0.34,0-0.68,0.08-1.02,0.23c-0.34,0.15-0.67,0.41-0.98,0.76c-0.19,0.21-0.39,0.49-0.58,0.83c-0.2,0.34-0.34,0.73-0.42,1.17
		l-0.99,4.99H11.28z"/>
	<path d="M32.11,31.04c-0.25,0-0.37-0.1-0.37-0.3c0-0.05,0-0.1,0.01-0.13c0-0.03,0.01-0.08,0.02-0.13l0.24-1.22h-0.05
		c-0.34,0.6-0.74,1.08-1.19,1.43c-0.45,0.36-1.02,0.54-1.7,0.54c-0.42,0-0.79-0.08-1.11-0.23s-0.6-0.37-0.82-0.63
		c-0.22-0.27-0.39-0.58-0.5-0.95s-0.17-0.77-0.17-1.19c0-0.74,0.09-1.43,0.26-2.1c0.18-0.66,0.43-1.24,0.77-1.74
		c0.34-0.5,0.75-0.9,1.25-1.19c0.5-0.29,1.06-0.44,1.7-0.44c0.68,0,1.23,0.16,1.65,0.46c0.42,0.31,0.7,0.71,0.85,1.22h0.05
		l0.29-1.49h0.34l-1.55,7.79h1.36l-0.06,0.3H32.11z M29.07,30.93c0.34,0,0.65-0.05,0.93-0.14s0.55-0.26,0.83-0.5
		c0.31-0.26,0.61-0.6,0.89-1.02c0.28-0.43,0.48-0.92,0.6-1.49l0.45-2.27c0.05-0.27,0.05-0.54-0.01-0.83s-0.18-0.55-0.36-0.79
		c-0.18-0.24-0.43-0.44-0.75-0.59c-0.32-0.15-0.72-0.23-1.2-0.23c-0.92,0-1.67,0.32-2.26,0.94c-0.59,0.63-0.98,1.47-1.18,2.53
		l-0.11,0.56c-0.03,0.18-0.06,0.36-0.07,0.54c-0.02,0.18-0.02,0.38-0.02,0.6c0,0.37,0.04,0.72,0.14,1.05s0.23,0.61,0.42,0.86
		c0.19,0.25,0.42,0.44,0.7,0.58C28.34,30.86,28.68,30.93,29.07,30.93z"/>
	<path d="M36.18,31.04l0.06-0.32l6.38-7.47h-4.96l0.06-0.3h5.34l-0.06,0.32l-6.37,7.47h5.15l-0.06,0.3H36.18z"/>
	<path d="M45.95,31.04c-0.25,0-0.37-0.1-0.37-0.3c0-0.05,0-0.1,0.01-0.13c0.01-0.03,0.01-0.08,0.02-0.13l1.52-7.54h0.34l-1.57,7.79
		h1.36l-0.06,0.3H45.95z M47.86,20.27c-0.12,0-0.2-0.03-0.25-0.08c-0.05-0.05-0.07-0.11-0.07-0.18c0-0.03,0-0.06,0.01-0.1
		c0.01-0.03,0.01-0.07,0.02-0.13c0.02-0.1,0.06-0.17,0.13-0.22c0.06-0.05,0.17-0.08,0.3-0.08c0.12,0,0.2,0.03,0.25,0.08
		c0.05,0.05,0.07,0.11,0.07,0.18c0,0.03,0,0.06-0.01,0.1c-0.01,0.03-0.01,0.08-0.02,0.13c-0.02,0.1-0.06,0.17-0.13,0.22
		C48.1,20.25,48,20.27,47.86,20.27z"/>
	<path d="M50.85,31.04l1.62-8.1h0.34l-0.34,1.68h0.05c0.32-0.61,0.71-1.07,1.16-1.39c0.45-0.32,1.02-0.48,1.69-0.48
		c0.68,0,1.21,0.18,1.57,0.55c0.36,0.37,0.54,0.89,0.54,1.56c0,0.16-0.01,0.33-0.03,0.52c-0.02,0.19-0.05,0.36-0.08,0.52l-0.96,4.83
		h1.36l-0.06,0.3h-1.25c-0.25,0-0.37-0.1-0.37-0.3c0-0.05,0-0.1,0.01-0.13c0-0.03,0.01-0.08,0.02-0.13l0.91-4.56
		c0.03-0.18,0.06-0.37,0.08-0.56c0.02-0.19,0.03-0.34,0.03-0.45c0-1.24-0.61-1.86-1.82-1.86c-0.36,0-0.73,0.07-1.1,0.22
		c-0.37,0.14-0.71,0.4-1.03,0.78c-0.18,0.21-0.37,0.48-0.57,0.8c-0.2,0.32-0.34,0.72-0.44,1.2l-0.99,4.99H50.85z"/>
	<path d="M67.39,31.92c0,0.85-0.36,1.49-1.07,1.9c-0.71,0.41-1.73,0.62-3.04,0.62c-0.98,0-1.73-0.17-2.23-0.52
		c-0.51-0.35-0.76-0.81-0.76-1.4c0-0.51,0.16-0.94,0.47-1.28c0.31-0.34,0.73-0.6,1.26-0.78V30.4c-0.19-0.05-0.34-0.17-0.46-0.35
		c-0.11-0.18-0.17-0.38-0.17-0.59c0-0.39,0.16-0.71,0.47-0.95s0.68-0.42,1.1-0.54l0.02-0.06c-0.38-0.18-0.68-0.44-0.88-0.77
		c-0.2-0.33-0.3-0.69-0.3-1.09c0-0.51,0.08-0.97,0.23-1.38s0.37-0.75,0.64-1.03c0.27-0.28,0.59-0.5,0.97-0.66
		c0.37-0.16,0.78-0.23,1.22-0.23c0.36,0,0.69,0.06,0.98,0.17s0.53,0.26,0.74,0.44l0.16-0.9c0.02-0.15,0.07-0.25,0.14-0.31
		c0.08-0.06,0.19-0.09,0.35-0.09h1.49l-0.05,0.3h-1.62l-0.22,1.26c0.27,0.36,0.4,0.77,0.4,1.23c0,0.51-0.08,0.97-0.23,1.38
		s-0.37,0.75-0.64,1.03c-0.27,0.28-0.59,0.5-0.97,0.66c-0.37,0.16-0.78,0.23-1.22,0.23c-0.27,0-0.51-0.03-0.74-0.1
		c-0.62,0.16-1.06,0.35-1.32,0.58s-0.39,0.5-0.39,0.81c0,0.2,0.07,0.38,0.21,0.52c0.14,0.14,0.41,0.22,0.82,0.22h2.22
		c0.85,0,1.47,0.15,1.86,0.46S67.39,31.39,67.39,31.92z M67.04,31.94c0-0.46-0.16-0.81-0.48-1.06s-0.88-0.37-1.66-0.37h-2.37
		c-0.57,0.15-1.02,0.38-1.37,0.7s-0.52,0.74-0.52,1.27c0,0.29,0.06,0.54,0.18,0.74c0.12,0.21,0.3,0.38,0.52,0.51
		c0.22,0.13,0.49,0.23,0.79,0.3c0.3,0.06,0.64,0.1,1,0.1h0.51c0.49,0,0.94-0.04,1.36-0.13c0.42-0.09,0.77-0.22,1.07-0.4
		c0.3-0.18,0.53-0.41,0.7-0.68C66.95,32.65,67.04,32.32,67.04,31.94z M64.16,27.86c0.73,0,1.31-0.2,1.76-0.58
		c0.45-0.39,0.73-0.89,0.85-1.51c0.05-0.28,0.08-0.48,0.1-0.61s0.02-0.22,0.02-0.29c0-0.52-0.17-0.96-0.52-1.3
		c-0.35-0.34-0.85-0.51-1.51-0.51c-0.73,0-1.31,0.2-1.76,0.58c-0.45,0.39-0.73,0.89-0.85,1.51c-0.05,0.28-0.08,0.48-0.1,0.61
		s-0.02,0.22-0.02,0.29c0,0.52,0.17,0.96,0.52,1.3C62.99,27.69,63.5,27.86,64.16,27.86z"/>
	<path d="M71.6,31.12c-0.16,0-0.27-0.03-0.33-0.1c-0.06-0.06-0.09-0.13-0.09-0.21c0-0.04,0.01-0.09,0.02-0.15
		c0.01-0.06,0.02-0.1,0.03-0.14c0.02-0.09,0.06-0.16,0.13-0.23c0.06-0.07,0.18-0.1,0.34-0.1c0.15,0,0.25,0.03,0.31,0.1
		c0.06,0.06,0.09,0.13,0.09,0.21c0,0.04,0,0.09-0.02,0.15s-0.02,0.1-0.03,0.14c-0.02,0.08-0.06,0.16-0.12,0.23
		C71.87,31.08,71.76,31.12,71.6,31.12z"/>
	<path d="M87.17,20.19l-2.18,10.85h-0.35l2.18-10.85h-3.98l0.06-0.32h8.32l-0.06,0.32H87.17z"/>
	<path d="M94.81,19.2h0.34l-1.07,5.42h0.05c0.32-0.61,0.71-1.07,1.16-1.39c0.45-0.32,1.02-0.48,1.69-0.48
		c0.68,0,1.21,0.18,1.57,0.55c0.36,0.37,0.54,0.89,0.54,1.56c0,0.16-0.01,0.33-0.03,0.52s-0.05,0.36-0.08,0.52l-0.96,4.83h1.36
		l-0.06,0.3h-1.25c-0.25,0-0.37-0.1-0.37-0.3c0-0.05,0-0.1,0.01-0.13c0.01-0.03,0.01-0.08,0.02-0.13l0.91-4.56
		c0.03-0.18,0.06-0.37,0.08-0.56c0.02-0.19,0.03-0.34,0.03-0.45c0-1.24-0.61-1.86-1.82-1.86c-0.36,0-0.73,0.07-1.1,0.22
		c-0.37,0.14-0.71,0.4-1.03,0.78c-0.18,0.21-0.37,0.48-0.57,0.8c-0.2,0.32-0.34,0.72-0.44,1.2l-0.99,4.99h-0.34L94.81,19.2z"/>
	<path d="M105.76,31.23c-0.91,0-1.6-0.26-2.09-0.77s-0.73-1.32-0.73-2.42c0-0.74,0.1-1.43,0.29-2.07c0.19-0.64,0.46-1.21,0.81-1.68
		s0.76-0.85,1.25-1.13s1.02-0.42,1.61-0.42c0.77,0,1.38,0.18,1.84,0.53c0.46,0.35,0.69,0.83,0.69,1.44c0,0.26-0.06,0.53-0.19,0.82
		c-0.13,0.29-0.4,0.57-0.82,0.82c-0.42,0.25-1.04,0.46-1.84,0.64c-0.8,0.18-1.88,0.28-3.24,0.31c-0.01,0.08-0.02,0.2-0.03,0.35
		s-0.02,0.27-0.02,0.35c0,1.04,0.21,1.78,0.62,2.23c0.41,0.45,1.03,0.68,1.86,0.68c0.66,0,1.25-0.18,1.76-0.53
		c0.51-0.35,0.93-0.84,1.26-1.47l0.3,0.13c-0.41,0.76-0.89,1.31-1.46,1.66C107.05,31.06,106.43,31.23,105.76,31.23z M106.86,23.06
		c-0.45,0-0.86,0.09-1.25,0.27c-0.38,0.18-0.72,0.44-1.02,0.77s-0.54,0.72-0.74,1.17c-0.2,0.45-0.35,0.94-0.45,1.48l-0.05,0.27
		c1.2-0.02,2.17-0.1,2.91-0.24c0.75-0.14,1.33-0.32,1.74-0.53c0.42-0.21,0.7-0.46,0.84-0.72c0.14-0.27,0.22-0.54,0.22-0.8
		c0-0.49-0.17-0.89-0.52-1.2S107.64,23.06,106.86,23.06z"/>
	<path d="M118.81,22.94h0.37l-6.21,10.9c-0.08,0.15-0.17,0.25-0.26,0.31c-0.09,0.06-0.2,0.09-0.35,0.09h-1.2l0.06-0.3h1.34l1.6-2.85
		l-1.46-8.14h0.32l1.36,7.71h0.05L118.81,22.94z"/>
	<path d="M132.46,31.04c-0.25,0-0.37-0.1-0.37-0.3c0-0.05,0-0.1,0.01-0.13c0-0.03,0.01-0.08,0.02-0.13l0.24-1.22h-0.05
		c-0.34,0.6-0.74,1.08-1.19,1.43c-0.45,0.36-1.02,0.54-1.7,0.54c-0.42,0-0.79-0.08-1.11-0.23s-0.6-0.37-0.82-0.63
		c-0.22-0.27-0.39-0.58-0.5-0.95s-0.17-0.77-0.17-1.19c0-0.74,0.09-1.43,0.26-2.1c0.18-0.66,0.43-1.24,0.77-1.74
		c0.34-0.5,0.75-0.9,1.25-1.19c0.5-0.29,1.06-0.44,1.7-0.44c0.68,0,1.23,0.16,1.65,0.46c0.42,0.31,0.7,0.71,0.85,1.22h0.05
		l1.04-5.23h0.34l-2.3,11.54h1.36l-0.06,0.3H132.46z M129.42,30.93c0.34,0,0.65-0.05,0.93-0.14s0.55-0.26,0.83-0.5
		c0.31-0.26,0.61-0.6,0.89-1.02c0.28-0.43,0.48-0.92,0.6-1.49l0.45-2.27c0.05-0.27,0.05-0.54-0.01-0.83s-0.18-0.55-0.36-0.79
		c-0.18-0.24-0.43-0.44-0.75-0.59c-0.32-0.15-0.72-0.23-1.2-0.23c-0.92,0-1.67,0.32-2.26,0.94c-0.59,0.63-0.98,1.47-1.18,2.53
		l-0.11,0.56c-0.03,0.18-0.06,0.36-0.07,0.54c-0.02,0.18-0.02,0.38-0.02,0.6c0,0.37,0.04,0.72,0.14,1.05s0.23,0.61,0.42,0.86
		c0.19,0.25,0.42,0.44,0.7,0.58C128.69,30.86,129.03,30.93,129.42,30.93z"/>
	<path d="M140.11,31.23c-0.43,0-0.8-0.08-1.14-0.22s-0.61-0.36-0.83-0.62c-0.22-0.27-0.39-0.57-0.51-0.92s-0.18-0.72-0.18-1.13
		c0-0.75,0.08-1.46,0.26-2.14c0.17-0.68,0.42-1.27,0.76-1.78s0.75-0.92,1.25-1.22s1.07-0.45,1.74-0.45c0.43,0,0.8,0.08,1.14,0.22
		c0.33,0.15,0.61,0.36,0.83,0.62c0.22,0.27,0.39,0.58,0.51,0.93c0.12,0.35,0.18,0.73,0.18,1.12c0,0.75-0.08,1.46-0.26,2.14
		s-0.42,1.27-0.76,1.78c-0.34,0.51-0.75,0.92-1.25,1.22S140.77,31.23,140.11,31.23z M140.14,30.93c0.91,0,1.65-0.31,2.23-0.93
		c0.58-0.62,0.98-1.47,1.19-2.56l0.13-0.64c0.03-0.18,0.05-0.37,0.06-0.55s0.02-0.39,0.02-0.6c0-0.35-0.04-0.69-0.14-1
		s-0.23-0.59-0.42-0.82s-0.44-0.42-0.74-0.56c-0.3-0.14-0.65-0.21-1.06-0.21c-0.91,0-1.65,0.31-2.23,0.93
		c-0.58,0.62-0.98,1.47-1.19,2.56l-0.13,0.64c-0.03,0.18-0.05,0.37-0.06,0.55s-0.02,0.39-0.02,0.6c0,0.35,0.04,0.69,0.14,1
		s0.23,0.59,0.42,0.82c0.19,0.23,0.44,0.42,0.74,0.56C139.38,30.86,139.74,30.93,140.14,30.93z"/>
	<path d="M147.49,31.04l1.62-8.1h0.34l-0.34,1.68h0.05c0.29-0.57,0.65-1.02,1.1-1.36c0.44-0.34,0.98-0.51,1.62-0.51
		c0.66,0,1.16,0.19,1.5,0.58c0.34,0.38,0.51,0.85,0.52,1.41h0.05c0.28-0.61,0.66-1.09,1.14-1.45c0.48-0.36,1.06-0.54,1.74-0.54
		c0.65,0,1.15,0.18,1.5,0.55c0.35,0.37,0.52,0.89,0.52,1.56c0,0.16-0.01,0.33-0.03,0.52s-0.05,0.36-0.08,0.52l-0.96,4.83h1.36
		l-0.06,0.3h-1.25c-0.25,0-0.37-0.1-0.37-0.3c0-0.05,0-0.1,0.01-0.13c0.01-0.03,0.01-0.08,0.02-0.13l0.91-4.56
		c0.03-0.18,0.06-0.37,0.08-0.56c0.02-0.19,0.03-0.34,0.03-0.45c0-0.62-0.15-1.08-0.44-1.39c-0.29-0.31-0.72-0.46-1.29-0.46
		c-0.35,0-0.71,0.08-1.07,0.23c-0.36,0.15-0.69,0.41-0.99,0.76c-0.2,0.24-0.39,0.5-0.55,0.78c-0.17,0.29-0.29,0.66-0.38,1.1
		l-1.02,5.1h-0.34l1.02-5.12c0.03-0.18,0.06-0.37,0.08-0.56c0.02-0.19,0.03-0.34,0.03-0.45c0-1.24-0.58-1.86-1.73-1.86
		c-0.34,0-0.68,0.08-1.02,0.23c-0.34,0.15-0.67,0.41-0.98,0.76c-0.19,0.21-0.39,0.49-0.58,0.83c-0.2,0.34-0.34,0.73-0.42,1.17
		l-0.99,4.99H147.49z"/>
	<path d="M163.01,31.04c-0.25,0-0.37-0.1-0.37-0.3c0-0.05,0-0.1,0.01-0.13c0.01-0.03,0.01-0.08,0.02-0.13l1.52-7.54h0.34l-1.57,7.79
		h1.36l-0.06,0.3H163.01z M164.91,20.27c-0.12,0-0.2-0.03-0.25-0.08c-0.05-0.05-0.07-0.11-0.07-0.18c0-0.03,0-0.06,0.01-0.1
		c0.01-0.03,0.01-0.07,0.02-0.13c0.02-0.1,0.06-0.17,0.13-0.22c0.06-0.05,0.17-0.08,0.3-0.08c0.12,0,0.2,0.03,0.25,0.08
		c0.05,0.05,0.07,0.11,0.07,0.18c0,0.03,0,0.06-0.01,0.1c-0.01,0.03-0.01,0.08-0.02,0.13c-0.02,0.1-0.06,0.17-0.13,0.22
		C165.15,20.25,165.05,20.27,164.91,20.27z"/>
	<path d="M167.9,31.04l1.62-8.1h0.34l-0.34,1.68h0.05c0.32-0.61,0.71-1.07,1.16-1.39c0.45-0.32,1.02-0.48,1.69-0.48
		c0.68,0,1.21,0.18,1.57,0.55c0.36,0.37,0.54,0.89,0.54,1.56c0,0.16-0.01,0.33-0.03,0.52c-0.02,0.19-0.05,0.36-0.08,0.52l-0.96,4.83
		h1.36l-0.06,0.3h-1.25c-0.25,0-0.37-0.1-0.37-0.3c0-0.05,0-0.1,0.01-0.13c0-0.03,0.01-0.08,0.02-0.13l0.91-4.56
		c0.03-0.18,0.06-0.37,0.08-0.56c0.02-0.19,0.03-0.34,0.03-0.45c0-1.24-0.61-1.86-1.82-1.86c-0.36,0-0.73,0.07-1.1,0.22
		c-0.37,0.14-0.71,0.4-1.03,0.78c-0.18,0.21-0.37,0.48-0.57,0.8c-0.2,0.32-0.34,0.72-0.44,1.2l-0.99,4.99H167.9z"/>
	<path d="M184.01,31.04c-0.25,0-0.37-0.1-0.37-0.3c0-0.05,0-0.1,0.01-0.13c0-0.03,0.01-0.08,0.02-0.13l0.24-1.22h-0.05
		c-0.34,0.6-0.74,1.08-1.19,1.43c-0.45,0.36-1.02,0.54-1.7,0.54c-0.42,0-0.79-0.08-1.11-0.23s-0.6-0.37-0.82-0.63
		c-0.22-0.27-0.39-0.58-0.5-0.95s-0.17-0.77-0.17-1.19c0-0.74,0.09-1.43,0.26-2.1c0.18-0.66,0.43-1.24,0.77-1.74
		c0.34-0.5,0.75-0.9,1.25-1.19c0.5-0.29,1.06-0.44,1.7-0.44c0.68,0,1.23,0.16,1.65,0.46c0.42,0.31,0.7,0.71,0.85,1.22h0.05
		l0.29-1.49h0.34l-1.55,7.79h1.36l-0.06,0.3H184.01z M180.97,30.93c0.34,0,0.65-0.05,0.93-0.14s0.55-0.26,0.83-0.5
		c0.31-0.26,0.61-0.6,0.89-1.02c0.28-0.43,0.48-0.92,0.6-1.49l0.45-2.27c0.05-0.27,0.05-0.54-0.01-0.83s-0.18-0.55-0.36-0.79
		c-0.18-0.24-0.43-0.44-0.75-0.59c-0.32-0.15-0.72-0.23-1.2-0.23c-0.92,0-1.67,0.32-2.26,0.94c-0.59,0.63-0.98,1.47-1.18,2.53
		l-0.11,0.56c-0.03,0.18-0.06,0.36-0.07,0.54c-0.02,0.18-0.02,0.38-0.02,0.6c0,0.37,0.04,0.72,0.14,1.05s0.23,0.61,0.42,0.86
		c0.19,0.25,0.42,0.44,0.7,0.58C180.24,30.86,180.58,30.93,180.97,30.93z"/>
	<path d="M189.66,31.04c-0.25,0-0.37-0.1-0.37-0.3c0-0.05,0-0.1,0.01-0.13c0-0.03,0.01-0.08,0.02-0.13l1.44-7.23h-1.52l0.06-0.3
		h1.15c0.15,0,0.26-0.03,0.32-0.09c0.06-0.06,0.11-0.16,0.13-0.31l0.38-1.9h0.34l-0.46,2.3h1.94l-0.06,0.3h-1.94l-1.49,7.49h1.81
		l-0.06,0.3H189.66z"/>
	<path d="M198.22,31.23c-0.91,0-1.6-0.26-2.09-0.77s-0.73-1.32-0.73-2.42c0-0.74,0.1-1.43,0.29-2.07c0.19-0.64,0.46-1.21,0.81-1.68
		s0.76-0.85,1.25-1.13s1.02-0.42,1.61-0.42c0.77,0,1.38,0.18,1.84,0.53c0.46,0.35,0.69,0.83,0.69,1.44c0,0.26-0.06,0.53-0.19,0.82
		c-0.13,0.29-0.4,0.57-0.82,0.82c-0.42,0.25-1.04,0.46-1.84,0.64c-0.8,0.18-1.88,0.28-3.24,0.31c-0.01,0.08-0.02,0.2-0.03,0.35
		s-0.02,0.27-0.02,0.35c0,1.04,0.21,1.78,0.62,2.23c0.41,0.45,1.03,0.68,1.86,0.68c0.66,0,1.25-0.18,1.76-0.53
		c0.51-0.35,0.93-0.84,1.26-1.47l0.3,0.13c-0.41,0.76-0.89,1.31-1.46,1.66C199.51,31.06,198.89,31.23,198.22,31.23z M199.33,23.06
		c-0.45,0-0.86,0.09-1.25,0.27c-0.38,0.18-0.72,0.44-1.02,0.77s-0.54,0.72-0.74,1.17c-0.2,0.45-0.35,0.94-0.45,1.48l-0.05,0.27
		c1.2-0.02,2.17-0.1,2.91-0.24c0.75-0.14,1.33-0.32,1.74-0.53c0.42-0.21,0.7-0.46,0.84-0.72c0.14-0.27,0.22-0.54,0.22-0.8
		c0-0.49-0.17-0.89-0.52-1.2S200.1,23.06,199.33,23.06z"/>
	<path d="M210.75,31.04c-0.25,0-0.37-0.1-0.37-0.3c0-0.05,0-0.1,0.01-0.13c0.01-0.03,0.01-0.08,0.02-0.13l1.52-7.54h0.34l-1.57,7.79
		h1.36l-0.06,0.3H210.75z M212.65,20.27c-0.12,0-0.2-0.03-0.25-0.08c-0.05-0.05-0.07-0.11-0.07-0.18c0-0.03,0-0.06,0.01-0.1
		c0.01-0.03,0.01-0.07,0.02-0.13c0.02-0.1,0.06-0.17,0.13-0.22c0.06-0.05,0.17-0.08,0.3-0.08c0.12,0,0.2,0.03,0.25,0.08
		c0.05,0.05,0.07,0.11,0.07,0.18c0,0.03,0,0.06-0.01,0.1c-0.01,0.03-0.01,0.08-0.02,0.13c-0.02,0.1-0.06,0.17-0.13,0.22
		C212.89,20.25,212.79,20.27,212.65,20.27z"/>
	<path d="M215.64,31.04l1.62-8.1h0.34l-0.34,1.68h0.05c0.32-0.61,0.71-1.07,1.16-1.39c0.45-0.32,1.02-0.48,1.69-0.48
		c0.68,0,1.21,0.18,1.57,0.55c0.36,0.37,0.54,0.89,0.54,1.56c0,0.16-0.01,0.33-0.03,0.52c-0.02,0.19-0.05,0.36-0.08,0.52l-0.96,4.83
		h1.36l-0.06,0.3h-1.25c-0.25,0-0.37-0.1-0.37-0.3c0-0.05,0-0.1,0.01-0.13c0-0.03,0.01-0.08,0.02-0.13l0.91-4.56
		c0.03-0.18,0.06-0.37,0.08-0.56c0.02-0.19,0.03-0.34,0.03-0.45c0-1.24-0.61-1.86-1.82-1.86c-0.36,0-0.73,0.07-1.1,0.22
		c-0.37,0.14-0.71,0.4-1.03,0.78c-0.18,0.21-0.37,0.48-0.57,0.8c-0.2,0.32-0.34,0.72-0.44,1.2l-0.99,4.99H215.64z"/>
	<path d="M2.26,42.14h0.34l-0.35,1.78h0.05c0.34-0.6,0.74-1.07,1.19-1.43s1.02-0.54,1.7-0.54c0.42,0,0.79,0.08,1.11,0.23
		c0.33,0.15,0.6,0.37,0.82,0.63c0.22,0.27,0.39,0.58,0.5,0.95c0.11,0.37,0.17,0.77,0.17,1.19c0,0.74-0.09,1.43-0.26,2.1
		C7.35,47.72,7.1,48.3,6.76,48.8c-0.34,0.5-0.75,0.9-1.25,1.19s-1.06,0.44-1.7,0.44c-0.68,0-1.23-0.16-1.65-0.46
		c-0.42-0.31-0.7-0.71-0.85-1.22H1.26l-0.93,4.69H0L2.26,42.14z M3.81,50.13c0.92,0,1.67-0.31,2.25-0.94
		c0.58-0.63,0.98-1.47,1.19-2.53l0.11-0.56c0.03-0.18,0.06-0.36,0.07-0.54c0.02-0.18,0.02-0.38,0.02-0.6c0-0.37-0.04-0.72-0.14-1.05
		S7.09,43.3,6.9,43.06c-0.19-0.25-0.42-0.44-0.7-0.58c-0.28-0.14-0.62-0.22-1.02-0.22c-0.34,0-0.65,0.05-0.93,0.14
		c-0.28,0.1-0.56,0.26-0.83,0.5c-0.31,0.26-0.61,0.6-0.89,1.02c-0.28,0.43-0.48,0.92-0.6,1.49l-0.45,2.27
		c-0.05,0.27-0.05,0.54,0.01,0.83c0.06,0.29,0.18,0.55,0.36,0.79c0.18,0.24,0.43,0.44,0.75,0.59S3.33,50.13,3.81,50.13z"/>
	<path d="M13.94,50.43c-0.43,0-0.8-0.08-1.14-0.22s-0.61-0.36-0.83-0.62c-0.22-0.27-0.39-0.57-0.51-0.92s-0.18-0.72-0.18-1.13
		c0-0.75,0.08-1.46,0.26-2.14c0.17-0.68,0.42-1.27,0.76-1.78s0.75-0.92,1.25-1.22s1.07-0.45,1.74-0.45c0.43,0,0.8,0.08,1.14,0.22
		c0.33,0.15,0.61,0.36,0.83,0.62c0.22,0.27,0.39,0.58,0.51,0.93c0.12,0.35,0.18,0.73,0.18,1.12c0,0.75-0.08,1.46-0.26,2.14
		s-0.42,1.27-0.76,1.78c-0.34,0.51-0.75,0.92-1.25,1.22S14.6,50.43,13.94,50.43z M13.97,50.13c0.91,0,1.65-0.31,2.23-0.93
		c0.58-0.62,0.98-1.47,1.19-2.56L17.52,46c0.03-0.18,0.05-0.37,0.06-0.55s0.02-0.39,0.02-0.6c0-0.35-0.04-0.69-0.14-1
		s-0.23-0.59-0.42-0.82s-0.44-0.42-0.74-0.56c-0.3-0.14-0.65-0.21-1.06-0.21c-0.91,0-1.65,0.31-2.23,0.93
		c-0.58,0.62-0.98,1.47-1.19,2.56l-0.13,0.64c-0.03,0.18-0.05,0.37-0.06,0.55s-0.02,0.39-0.02,0.6c0,0.35,0.04,0.69,0.14,1
		s0.23,0.59,0.42,0.82c0.19,0.23,0.44,0.42,0.74,0.56C13.21,50.06,13.56,50.13,13.97,50.13z"/>
	<path d="M21.42,42.14h0.32l0.77,7.66h0.05l3.92-7.66h0.35l0.82,7.66h0.03l3.86-7.66h0.35l-4.1,8.1h-0.42l-0.78-7.55h-0.05
		l-3.87,7.55h-0.42L21.42,42.14z"/>
	<path d="M39.71,50.24c-0.25,0-0.37-0.1-0.37-0.3c0-0.05,0-0.1,0.01-0.13c0-0.03,0.01-0.08,0.02-0.13l0.24-1.22h-0.05
		c-0.34,0.6-0.74,1.08-1.19,1.43c-0.45,0.36-1.02,0.54-1.7,0.54c-0.42,0-0.79-0.08-1.11-0.23s-0.6-0.37-0.82-0.63
		c-0.22-0.27-0.39-0.58-0.5-0.95s-0.17-0.77-0.17-1.19c0-0.74,0.09-1.43,0.26-2.1c0.18-0.66,0.43-1.24,0.77-1.74
		c0.34-0.5,0.75-0.9,1.25-1.19c0.5-0.29,1.06-0.44,1.7-0.44c0.68,0,1.23,0.16,1.65,0.46c0.42,0.31,0.7,0.71,0.85,1.22h0.05
		l1.04-5.23h0.34l-2.3,11.54h1.36l-0.06,0.3H39.71z M36.67,50.13c0.34,0,0.65-0.05,0.93-0.14s0.55-0.26,0.83-0.5
		c0.31-0.26,0.61-0.6,0.89-1.02c0.28-0.43,0.48-0.92,0.6-1.49l0.45-2.27c0.05-0.27,0.05-0.54-0.01-0.83s-0.18-0.55-0.36-0.79
		c-0.18-0.24-0.43-0.44-0.75-0.59c-0.32-0.15-0.72-0.23-1.2-0.23c-0.92,0-1.67,0.32-2.26,0.94c-0.59,0.63-0.98,1.47-1.18,2.53
		l-0.11,0.56c-0.03,0.18-0.06,0.36-0.07,0.54c-0.02,0.18-0.02,0.38-0.02,0.6c0,0.37,0.04,0.72,0.14,1.05s0.23,0.61,0.42,0.86
		c0.19,0.25,0.42,0.44,0.7,0.58C35.94,50.06,36.28,50.13,36.67,50.13z"/>
	<path d="M47.55,50.43c-0.91,0-1.6-0.26-2.09-0.77s-0.73-1.32-0.73-2.42c0-0.74,0.1-1.43,0.29-2.07c0.19-0.64,0.46-1.21,0.81-1.68
		s0.76-0.85,1.25-1.13s1.02-0.42,1.61-0.42c0.77,0,1.38,0.18,1.84,0.53c0.46,0.35,0.69,0.83,0.69,1.44c0,0.26-0.06,0.53-0.19,0.82
		c-0.13,0.29-0.4,0.57-0.82,0.82c-0.42,0.25-1.04,0.46-1.84,0.64c-0.8,0.18-1.88,0.28-3.24,0.31c-0.01,0.08-0.02,0.2-0.03,0.35
		s-0.02,0.27-0.02,0.35c0,1.04,0.21,1.78,0.62,2.23c0.41,0.45,1.03,0.68,1.86,0.68c0.66,0,1.25-0.18,1.76-0.53
		c0.51-0.35,0.93-0.84,1.26-1.47l0.3,0.13c-0.41,0.76-0.89,1.31-1.46,1.66C48.84,50.26,48.22,50.43,47.55,50.43z M48.66,42.26
		c-0.45,0-0.86,0.09-1.25,0.27c-0.38,0.18-0.72,0.44-1.02,0.77s-0.54,0.72-0.74,1.17c-0.2,0.45-0.35,0.94-0.45,1.48l-0.05,0.27
		c1.2-0.02,2.17-0.1,2.91-0.24c0.75-0.14,1.33-0.32,1.74-0.53c0.42-0.21,0.7-0.46,0.84-0.72c0.14-0.27,0.22-0.54,0.22-0.8
		c0-0.49-0.17-0.89-0.52-1.2S49.43,42.26,48.66,42.26z"/>
	<path d="M54.27,50.24l1.62-8.1h0.34l-0.37,1.84h0.05c0.14-0.27,0.29-0.52,0.46-0.74c0.17-0.23,0.36-0.42,0.58-0.58
		s0.47-0.29,0.75-0.38c0.28-0.09,0.61-0.14,0.98-0.14h0.48l-0.06,0.32h-0.46c-0.39,0-0.76,0.08-1.1,0.24
		c-0.34,0.16-0.65,0.38-0.91,0.66c-0.27,0.28-0.49,0.61-0.67,0.99s-0.31,0.78-0.4,1.21l-0.93,4.68H54.27z"/>
	<path d="M72.38,50.24c-0.25,0-0.37-0.1-0.37-0.3c0-0.05,0-0.1,0.01-0.13c0-0.03,0.01-0.08,0.02-0.13l0.24-1.22h-0.05
		c-0.34,0.6-0.74,1.08-1.19,1.43c-0.45,0.36-1.02,0.54-1.7,0.54c-0.42,0-0.79-0.08-1.11-0.23s-0.6-0.37-0.82-0.63
		c-0.22-0.27-0.39-0.58-0.5-0.95s-0.17-0.77-0.17-1.19c0-0.74,0.09-1.43,0.26-2.1c0.18-0.66,0.43-1.24,0.77-1.74
		c0.34-0.5,0.75-0.9,1.25-1.19c0.5-0.29,1.06-0.44,1.7-0.44c0.68,0,1.23,0.16,1.65,0.46c0.42,0.31,0.7,0.71,0.85,1.22h0.05
		l0.29-1.49h0.34l-1.55,7.79h1.36l-0.06,0.3H72.38z M69.34,50.13c0.34,0,0.65-0.05,0.93-0.14s0.55-0.26,0.83-0.5
		c0.31-0.26,0.61-0.6,0.89-1.02c0.28-0.43,0.48-0.92,0.6-1.49l0.45-2.27c0.05-0.27,0.05-0.54-0.01-0.83s-0.18-0.55-0.36-0.79
		c-0.18-0.24-0.43-0.44-0.75-0.59c-0.32-0.15-0.72-0.23-1.2-0.23c-0.92,0-1.67,0.32-2.26,0.94c-0.59,0.63-0.98,1.47-1.18,2.53
		l-0.11,0.56c-0.03,0.18-0.06,0.36-0.07,0.54c-0.02,0.18-0.02,0.38-0.02,0.6c0,0.37,0.04,0.72,0.14,1.05s0.23,0.61,0.42,0.86
		c0.19,0.25,0.42,0.44,0.7,0.58C68.61,50.06,68.95,50.13,69.34,50.13z"/>
	<path d="M77.28,50.24l1.62-8.1h0.34l-0.34,1.68h0.05c0.32-0.61,0.71-1.07,1.16-1.39c0.45-0.32,1.02-0.48,1.69-0.48
		c0.68,0,1.21,0.18,1.57,0.55c0.36,0.37,0.54,0.89,0.54,1.56c0,0.16-0.01,0.33-0.03,0.52c-0.02,0.19-0.05,0.36-0.08,0.52l-0.96,4.83
		h1.36l-0.06,0.3h-1.25c-0.25,0-0.37-0.1-0.37-0.3c0-0.05,0-0.1,0.01-0.13c0-0.03,0.01-0.08,0.02-0.13l0.91-4.56
		c0.03-0.18,0.06-0.37,0.08-0.56c0.02-0.19,0.03-0.34,0.03-0.45c0-1.24-0.61-1.86-1.82-1.86c-0.36,0-0.73,0.07-1.1,0.22
		c-0.37,0.14-0.71,0.4-1.03,0.78c-0.18,0.21-0.37,0.48-0.57,0.8c-0.2,0.32-0.34,0.72-0.44,1.2l-0.99,4.99H77.28z"/>
	<path d="M93.39,50.24c-0.25,0-0.37-0.1-0.37-0.3c0-0.05,0-0.1,0.01-0.13c0-0.03,0.01-0.08,0.02-0.13l0.24-1.22h-0.05
		c-0.34,0.6-0.74,1.08-1.19,1.43c-0.45,0.36-1.02,0.54-1.7,0.54c-0.42,0-0.79-0.08-1.11-0.23s-0.6-0.37-0.82-0.63
		c-0.22-0.27-0.39-0.58-0.5-0.95s-0.17-0.77-0.17-1.19c0-0.74,0.09-1.43,0.26-2.1c0.18-0.66,0.43-1.24,0.77-1.74
		c0.34-0.5,0.75-0.9,1.25-1.19c0.5-0.29,1.06-0.44,1.7-0.44c0.68,0,1.23,0.16,1.65,0.46c0.42,0.31,0.7,0.71,0.85,1.22h0.05
		l1.04-5.23h0.34l-2.3,11.54h1.36l-0.06,0.3H93.39z M90.35,50.13c0.34,0,0.65-0.05,0.93-0.14s0.55-0.26,0.83-0.5
		c0.31-0.26,0.61-0.6,0.89-1.02c0.28-0.43,0.48-0.92,0.6-1.49l0.45-2.27c0.05-0.27,0.05-0.54-0.01-0.83s-0.18-0.55-0.36-0.79
		c-0.18-0.24-0.43-0.44-0.75-0.59c-0.32-0.15-0.72-0.23-1.2-0.23c-0.92,0-1.67,0.32-2.26,0.94c-0.59,0.63-0.98,1.47-1.18,2.53
		l-0.11,0.56c-0.03,0.18-0.06,0.36-0.07,0.54c-0.02,0.18-0.02,0.38-0.02,0.6c0,0.37,0.04,0.72,0.14,1.05s0.23,0.61,0.42,0.86
		c0.19,0.25,0.42,0.44,0.7,0.58C89.62,50.06,89.96,50.13,90.35,50.13z"/>
	<path d="M106.37,50.43c-0.44,0-0.82-0.08-1.14-0.24c-0.32-0.16-0.59-0.38-0.81-0.66s-0.38-0.62-0.49-1s-0.16-0.81-0.16-1.26
		c0-0.75,0.08-1.44,0.25-2.09c0.17-0.64,0.41-1.21,0.74-1.69c0.33-0.48,0.73-0.86,1.21-1.13c0.48-0.27,1.03-0.41,1.65-0.41
		c0.64,0,1.17,0.17,1.59,0.51c0.42,0.34,0.69,0.78,0.81,1.33l-0.3,0.08c-0.12-0.52-0.37-0.92-0.74-1.2
		c-0.38-0.28-0.84-0.42-1.38-0.42c-0.82,0-1.52,0.29-2.1,0.86c-0.58,0.58-0.96,1.37-1.14,2.37l-0.14,0.78
		c-0.03,0.19-0.06,0.35-0.07,0.49c-0.02,0.13-0.02,0.3-0.02,0.5c0,0.39,0.04,0.76,0.13,1.11s0.22,0.65,0.41,0.91
		c0.19,0.26,0.42,0.47,0.7,0.62c0.28,0.15,0.63,0.22,1.03,0.22c0.63,0,1.18-0.17,1.65-0.5s0.89-0.79,1.26-1.35l0.27,0.14
		c-0.39,0.61-0.85,1.1-1.36,1.46C107.68,50.25,107.07,50.43,106.37,50.43z"/>
	<path d="M113.34,50.24c-0.25,0-0.37-0.1-0.37-0.3c0-0.05,0-0.1,0.01-0.13c0.01-0.03,0.01-0.08,0.02-0.13l2.26-11.28h0.34
		l-2.3,11.54h1.36l-0.06,0.3H113.34z"/>
	<path d="M118.69,50.24c-0.25,0-0.37-0.1-0.37-0.3c0-0.05,0-0.1,0.01-0.13c0.01-0.03,0.01-0.08,0.02-0.13l1.52-7.54h0.34l-1.57,7.79
		H120l-0.06,0.3H118.69z M120.59,39.47c-0.12,0-0.2-0.03-0.25-0.08c-0.05-0.05-0.07-0.11-0.07-0.18c0-0.03,0-0.06,0.01-0.1
		c0.01-0.03,0.01-0.07,0.02-0.13c0.02-0.1,0.06-0.17,0.13-0.22c0.06-0.05,0.17-0.08,0.3-0.08c0.12,0,0.2,0.03,0.25,0.08
		c0.05,0.05,0.07,0.11,0.07,0.18c0,0.03,0,0.06-0.01,0.1c-0.01,0.03-0.01,0.08-0.02,0.13c-0.02,0.1-0.06,0.17-0.13,0.22
		C120.83,39.45,120.73,39.47,120.59,39.47z"/>
	<path d="M123.71,52.91c-0.04,0.21-0.1,0.35-0.18,0.42s-0.22,0.1-0.45,0.1h-1.34l0.06-0.3h1.52l2.11-10.69h-1.6l0.06-0.3h1.6
		l0.62-3.22c0.04-0.21,0.1-0.35,0.18-0.42c0.07-0.07,0.22-0.1,0.45-0.1h1.5l-0.06,0.3h-1.68l-0.67,3.44h1.66l-0.06,0.3h-1.66
		L123.71,52.91z"/>
	<path d="M129.71,52.91c-0.04,0.21-0.1,0.35-0.18,0.42s-0.22,0.1-0.45,0.1h-1.34l0.06-0.3h1.52l2.11-10.69h-1.6l0.06-0.3h1.6
		l0.62-3.22c0.04-0.21,0.1-0.35,0.18-0.42c0.07-0.07,0.22-0.1,0.45-0.1h1.5l-0.06,0.3h-1.68l-0.67,3.44h1.66l-0.06,0.3h-1.66
		L129.71,52.91z"/>
	<path d="M146.8,50.24c-0.25,0-0.37-0.1-0.37-0.3c0-0.05,0-0.1,0.01-0.13c0-0.03,0.01-0.08,0.02-0.13l0.24-1.22h-0.05
		c-0.34,0.6-0.74,1.08-1.19,1.43c-0.45,0.36-1.02,0.54-1.7,0.54c-0.42,0-0.79-0.08-1.11-0.23s-0.6-0.37-0.82-0.63
		c-0.22-0.27-0.39-0.58-0.5-0.95s-0.17-0.77-0.17-1.19c0-0.74,0.09-1.43,0.26-2.1c0.18-0.66,0.43-1.24,0.77-1.74
		c0.34-0.5,0.75-0.9,1.25-1.19c0.5-0.29,1.06-0.44,1.7-0.44c0.68,0,1.23,0.16,1.65,0.46c0.42,0.31,0.7,0.71,0.85,1.22h0.05
		l1.04-5.23h0.34l-2.3,11.54h1.36l-0.06,0.3H146.8z M143.76,50.13c0.34,0,0.65-0.05,0.93-0.14s0.55-0.26,0.83-0.5
		c0.31-0.26,0.61-0.6,0.89-1.02c0.28-0.43,0.48-0.92,0.6-1.49l0.45-2.27c0.05-0.27,0.05-0.54-0.01-0.83s-0.18-0.55-0.36-0.79
		c-0.18-0.24-0.43-0.44-0.75-0.59c-0.32-0.15-0.72-0.23-1.2-0.23c-0.92,0-1.67,0.32-2.26,0.94c-0.59,0.63-0.98,1.47-1.18,2.53
		l-0.11,0.56c-0.03,0.18-0.06,0.36-0.07,0.54c-0.02,0.18-0.02,0.38-0.02,0.6c0,0.37,0.04,0.72,0.14,1.05s0.23,0.61,0.42,0.86
		c0.19,0.25,0.42,0.44,0.7,0.58C143.02,50.06,143.36,50.13,143.76,50.13z"/>
	<path d="M151.69,50.24l1.62-8.1h0.34l-0.37,1.84h0.05c0.14-0.27,0.29-0.52,0.46-0.74c0.17-0.23,0.36-0.42,0.58-0.58
		s0.47-0.29,0.75-0.38c0.28-0.09,0.61-0.14,0.98-0.14h0.48l-0.06,0.32h-0.46c-0.39,0-0.76,0.08-1.1,0.24
		c-0.34,0.16-0.65,0.38-0.91,0.66c-0.27,0.28-0.49,0.61-0.67,0.99s-0.31,0.78-0.4,1.21l-0.93,4.68H151.69z"/>
	<path d="M161.36,50.43c-0.43,0-0.8-0.08-1.14-0.22s-0.61-0.36-0.83-0.62c-0.22-0.27-0.39-0.57-0.51-0.92s-0.18-0.72-0.18-1.13
		c0-0.75,0.08-1.46,0.26-2.14c0.17-0.68,0.42-1.27,0.76-1.78s0.75-0.92,1.25-1.22s1.07-0.45,1.74-0.45c0.43,0,0.8,0.08,1.14,0.22
		c0.33,0.15,0.61,0.36,0.83,0.62c0.22,0.27,0.39,0.58,0.51,0.93c0.12,0.35,0.18,0.73,0.18,1.12c0,0.75-0.08,1.46-0.26,2.14
		s-0.42,1.27-0.76,1.78c-0.34,0.51-0.75,0.92-1.25,1.22S162.02,50.43,161.36,50.43z M161.39,50.13c0.91,0,1.65-0.31,2.23-0.93
		c0.58-0.62,0.98-1.47,1.19-2.56l0.13-0.64c0.03-0.18,0.05-0.37,0.06-0.55s0.02-0.39,0.02-0.6c0-0.35-0.04-0.69-0.14-1
		s-0.23-0.59-0.42-0.82s-0.44-0.42-0.74-0.56c-0.3-0.14-0.65-0.21-1.06-0.21c-0.91,0-1.65,0.31-2.23,0.93
		c-0.58,0.62-0.98,1.47-1.19,2.56l-0.13,0.64c-0.03,0.18-0.05,0.37-0.06,0.55s-0.02,0.39-0.02,0.6c0,0.35,0.04,0.69,0.14,1
		s0.23,0.59,0.42,0.82c0.19,0.23,0.44,0.42,0.74,0.56C160.63,50.06,160.98,50.13,161.39,50.13z"/>
	<path d="M170.37,42.14h0.34l-0.35,1.78h0.05c0.34-0.6,0.74-1.07,1.19-1.43s1.02-0.54,1.7-0.54c0.42,0,0.79,0.08,1.11,0.23
		c0.33,0.15,0.6,0.37,0.82,0.63c0.22,0.27,0.39,0.58,0.5,0.95c0.11,0.37,0.17,0.77,0.17,1.19c0,0.74-0.09,1.43-0.26,2.1
		c-0.18,0.66-0.43,1.24-0.77,1.74c-0.34,0.5-0.75,0.9-1.25,1.19s-1.06,0.44-1.7,0.44c-0.68,0-1.23-0.16-1.65-0.46
		c-0.42-0.31-0.7-0.71-0.85-1.22h-0.05l-0.93,4.69h-0.34L170.37,42.14z M171.92,50.13c0.92,0,1.67-0.31,2.25-0.94
		c0.58-0.63,0.98-1.47,1.19-2.53l0.11-0.56c0.03-0.18,0.06-0.36,0.07-0.54c0.02-0.18,0.02-0.38,0.02-0.6c0-0.37-0.04-0.72-0.14-1.05
		s-0.23-0.61-0.42-0.86c-0.19-0.25-0.42-0.44-0.7-0.58c-0.28-0.14-0.62-0.22-1.02-0.22c-0.34,0-0.65,0.05-0.93,0.14
		c-0.28,0.1-0.56,0.26-0.83,0.5c-0.31,0.26-0.61,0.6-0.89,1.02c-0.28,0.43-0.48,0.92-0.6,1.49l-0.45,2.27
		c-0.05,0.27-0.05,0.54,0.01,0.83c0.06,0.29,0.18,0.55,0.36,0.79c0.18,0.24,0.43,0.44,0.75,0.59S171.44,50.13,171.92,50.13z"/>
	<path d="M181.63,50.43c-0.67,0-1.25-0.13-1.74-0.4s-0.9-0.66-1.24-1.17l0.29-0.19c0.61,0.97,1.5,1.46,2.69,1.46
		c0.75,0,1.35-0.18,1.8-0.54c0.45-0.36,0.68-0.88,0.68-1.55c0-0.26-0.04-0.47-0.11-0.65c-0.07-0.18-0.18-0.33-0.32-0.46
		c-0.14-0.13-0.31-0.24-0.51-0.32c-0.2-0.08-0.44-0.16-0.7-0.22l-0.8-0.21c-0.28-0.07-0.53-0.16-0.75-0.26
		c-0.22-0.1-0.42-0.23-0.58-0.38s-0.29-0.33-0.38-0.55s-0.14-0.48-0.14-0.79c0-0.37,0.07-0.7,0.22-0.98
		c0.14-0.28,0.34-0.51,0.58-0.7c0.24-0.19,0.52-0.33,0.85-0.42c0.33-0.1,0.67-0.14,1.03-0.14c0.35,0,0.66,0.04,0.93,0.1
		s0.5,0.16,0.71,0.28c0.21,0.12,0.39,0.25,0.54,0.41c0.15,0.16,0.29,0.31,0.41,0.47l-0.26,0.22c-0.22-0.32-0.51-0.6-0.86-0.83
		c-0.35-0.23-0.85-0.35-1.49-0.35c-0.7,0-1.27,0.17-1.69,0.5c-0.42,0.33-0.63,0.81-0.63,1.44c0,0.5,0.14,0.87,0.41,1.11
		c0.27,0.24,0.67,0.43,1.21,0.57l0.8,0.21c0.27,0.08,0.52,0.16,0.75,0.26c0.23,0.1,0.43,0.22,0.6,0.36c0.17,0.14,0.3,0.32,0.39,0.54
		c0.1,0.21,0.14,0.47,0.14,0.78c0,0.41-0.07,0.76-0.22,1.06c-0.14,0.3-0.34,0.55-0.6,0.75c-0.26,0.2-0.55,0.35-0.9,0.46
		C182.39,50.38,182.02,50.43,181.63,50.43z"/>
	<path d="M188.41,50.32c-0.16,0-0.27-0.03-0.33-0.1c-0.06-0.06-0.09-0.13-0.09-0.21c0-0.04,0.01-0.09,0.02-0.15
		c0.01-0.06,0.02-0.1,0.03-0.14c0.02-0.09,0.06-0.16,0.13-0.23c0.06-0.07,0.18-0.1,0.34-0.1c0.15,0,0.25,0.03,0.31,0.1
		c0.06,0.06,0.09,0.13,0.09,0.21c0,0.04,0,0.09-0.02,0.15s-0.02,0.1-0.03,0.14c-0.02,0.08-0.06,0.16-0.12,0.23
		C188.68,50.29,188.57,50.32,188.41,50.32z"/>
	<path d="M194.03,38.24c0.15,0,0.25,0.03,0.31,0.1c0.06,0.06,0.09,0.13,0.09,0.21c0,0.04,0,0.1-0.02,0.16
		c-0.01,0.06-0.02,0.11-0.03,0.14c-0.05,0.21-0.13,0.44-0.24,0.68s-0.24,0.47-0.39,0.7c-0.16,0.23-0.32,0.45-0.5,0.66
		c-0.18,0.21-0.37,0.39-0.58,0.55h-0.34c0.48-0.41,0.85-0.81,1.1-1.22c0.26-0.41,0.43-0.76,0.51-1.06c-0.18,0-0.3-0.03-0.35-0.1
		s-0.08-0.13-0.08-0.21c0-0.04,0.01-0.09,0.02-0.15c0.01-0.06,0.02-0.1,0.03-0.14c0.02-0.08,0.06-0.16,0.13-0.23
		C193.76,38.28,193.87,38.24,194.03,38.24z M196.59,38.24c0.15,0,0.25,0.03,0.31,0.1c0.06,0.06,0.09,0.13,0.09,0.21
		c0,0.04-0.01,0.1-0.02,0.16c-0.01,0.06-0.02,0.11-0.03,0.14c-0.05,0.21-0.13,0.44-0.24,0.68c-0.11,0.24-0.24,0.47-0.39,0.7
		c-0.15,0.23-0.32,0.45-0.5,0.66s-0.37,0.39-0.58,0.55h-0.34c0.48-0.41,0.85-0.81,1.1-1.22s0.43-0.76,0.51-1.06
		c-0.18,0-0.3-0.03-0.35-0.1c-0.05-0.06-0.08-0.13-0.08-0.21c0-0.04,0-0.09,0.02-0.15s0.02-0.1,0.03-0.14
		c0.02-0.08,0.06-0.16,0.13-0.23C196.32,38.28,196.43,38.24,196.59,38.24z"/>
</g>
</svg>
