<!-- Generator: Adobe Illustrator 23.1.1, SVG Export Plug-In  -->
<svg version="1.1" xmlns="http://www.w3.org/2000/svg" xmlns:xlink="http://www.w3.org/1999/xlink" x="0px" y="0px"
	 width="157.66px" height="37.45px" viewBox="0 0 157.66 37.45" style="enable-background:new 0 0 157.66 37.45;"
	 xml:space="preserve">
<defs>
</defs>
<g>
	<path d="M1.54,0.43v3.38h3.91V0.43H6.5v8.08H5.44V4.73H1.54v3.79H0.49V0.43H1.54z"/>
	<path d="M11.49,8.52l-0.08-0.73h-0.04c-0.32,0.46-0.95,0.86-1.77,0.86c-1.18,0-1.77-0.83-1.77-1.67c0-1.4,1.25-2.17,3.49-2.16V4.7
		c0-0.48-0.13-1.34-1.32-1.34c-0.54,0-1.1,0.17-1.51,0.43l-0.24-0.7c0.48-0.31,1.18-0.52,1.91-0.52c1.77,0,2.21,1.21,2.21,2.37v2.17
		c0,0.5,0.02,1,0.1,1.39H11.49z M11.34,5.55c-1.15-0.02-2.46,0.18-2.46,1.31c0,0.68,0.46,1.01,1,1.01c0.76,0,1.24-0.48,1.4-0.97
		c0.04-0.11,0.06-0.23,0.06-0.34V5.55z"/>
	<path d="M14.06,4.28c0-0.6-0.01-1.09-0.05-1.57h0.94l0.06,0.96h0.02c0.29-0.55,0.96-1.09,1.92-1.09c0.8,0,2.05,0.48,2.05,2.47v3.47
		h-1.06V5.17c0-0.94-0.35-1.72-1.34-1.72c-0.7,0-1.24,0.49-1.42,1.08c-0.05,0.13-0.07,0.31-0.07,0.49v3.49h-1.06V4.28z"/>
	<path d="M25.74,0v7.02c0,0.52,0.01,1.1,0.05,1.5h-0.95l-0.05-1.01h-0.02c-0.32,0.65-1.03,1.14-1.98,1.14
		c-1.4,0-2.48-1.19-2.48-2.95c-0.01-1.93,1.19-3.12,2.6-3.12c0.89,0,1.49,0.42,1.75,0.89h0.02V0H25.74z M24.68,5.07
		c0-0.13-0.01-0.31-0.05-0.44c-0.16-0.67-0.73-1.22-1.52-1.22c-1.09,0-1.74,0.96-1.74,2.24c0,1.17,0.58,2.15,1.72,2.15
		c0.71,0,1.35-0.47,1.55-1.26c0.04-0.14,0.05-0.29,0.05-0.46V5.07z"/>
	<path d="M27.35,7.44c0.31,0.2,0.86,0.42,1.39,0.42c0.77,0,1.13-0.38,1.13-0.86c0-0.5-0.3-0.78-1.08-1.07
		c-1.04-0.37-1.54-0.95-1.54-1.64c0-0.94,0.76-1.7,2-1.7c0.59,0,1.1,0.17,1.43,0.36l-0.26,0.77c-0.23-0.14-0.65-0.34-1.19-0.34
		c-0.62,0-0.97,0.36-0.97,0.79c0,0.48,0.35,0.7,1.1,0.98c1.01,0.38,1.52,0.89,1.52,1.75c0,1.02-0.79,1.74-2.17,1.74
		c-0.64,0-1.22-0.16-1.63-0.4L27.35,7.44z"/>
	<path d="M39.8,0v7.02c0,0.52,0.01,1.1,0.05,1.5H38.9l-0.05-1.01h-0.02c-0.32,0.65-1.03,1.14-1.98,1.14c-1.4,0-2.48-1.19-2.48-2.95
		c-0.01-1.93,1.19-3.12,2.6-3.12c0.89,0,1.49,0.42,1.75,0.89h0.02V0H39.8z M38.75,5.07c0-0.13-0.01-0.31-0.05-0.44
		c-0.16-0.67-0.73-1.22-1.52-1.22c-1.09,0-1.74,0.96-1.74,2.24c0,1.17,0.58,2.15,1.72,2.15c0.71,0,1.35-0.47,1.55-1.26
		c0.04-0.14,0.05-0.29,0.05-0.46V5.07z"/>
	<path d="M46.81,5.57c0,2.15-1.49,3.08-2.89,3.08c-1.57,0-2.78-1.15-2.78-2.99c0-1.94,1.27-3.08,2.88-3.08
		C45.68,2.58,46.81,3.79,46.81,5.57z M42.2,5.62c0,1.27,0.73,2.23,1.76,2.23c1.01,0,1.76-0.95,1.76-2.25c0-0.98-0.49-2.23-1.74-2.23
		C42.74,3.37,42.2,4.52,42.2,5.62z"/>
	<path d="M48.48,2.71l0.77,2.95c0.17,0.65,0.32,1.25,0.43,1.85h0.04c0.13-0.59,0.32-1.21,0.52-1.83l0.95-2.96h0.89l0.9,2.9
		c0.22,0.7,0.38,1.31,0.52,1.89h0.04c0.1-0.59,0.25-1.2,0.44-1.88l0.83-2.91h1.04l-1.87,5.8H53l-0.89-2.77
		c-0.2-0.65-0.37-1.22-0.52-1.91h-0.02c-0.14,0.7-0.32,1.3-0.53,1.92l-0.94,2.76h-0.96l-1.75-5.8H48.48z"/>
	<path d="M56.89,4.28c0-0.6-0.01-1.09-0.05-1.57h0.94l0.06,0.96h0.02c0.29-0.55,0.96-1.09,1.92-1.09c0.8,0,2.05,0.48,2.05,2.47v3.47
		h-1.06V5.17c0-0.94-0.35-1.72-1.34-1.72c-0.7,0-1.24,0.49-1.42,1.08c-0.05,0.13-0.07,0.31-0.07,0.49v3.49h-1.06V4.28z"/>
	<path d="M67.37,1.04v1.67h1.51v0.8h-1.51v3.13c0,0.72,0.2,1.13,0.79,1.13c0.28,0,0.48-0.04,0.61-0.07l0.05,0.79
		c-0.2,0.08-0.53,0.14-0.94,0.14c-0.49,0-0.89-0.16-1.14-0.44c-0.3-0.31-0.41-0.83-0.41-1.51V3.51h-0.9v-0.8h0.9V1.32L67.37,1.04z"
		/>
	<path d="M70.07,0h1.06v3.62h0.02c0.17-0.3,0.43-0.56,0.76-0.74c0.31-0.18,0.68-0.3,1.08-0.3c0.78,0,2.03,0.48,2.03,2.48v3.45h-1.06
		V5.18c0-0.94-0.35-1.73-1.34-1.73c-0.68,0-1.22,0.48-1.42,1.06c-0.06,0.14-0.07,0.3-0.07,0.5v3.5h-1.06V0z"/>
	<path d="M77.31,5.8c0.02,1.43,0.94,2.02,1.99,2.02c0.76,0,1.21-0.13,1.61-0.3l0.18,0.75c-0.37,0.17-1.01,0.36-1.93,0.36
		c-1.79,0-2.85-1.18-2.85-2.93s1.03-3.13,2.72-3.13c1.9,0,2.4,1.67,2.4,2.73c0,0.22-0.02,0.38-0.04,0.49H77.31z M80.41,5.05
		c0.01-0.67-0.28-1.71-1.46-1.71c-1.07,0-1.54,0.98-1.62,1.71H80.41z"/>
	<path d="M85.28,4.28c0-0.6-0.01-1.09-0.05-1.57h0.92l0.05,0.94h0.04c0.32-0.55,0.86-1.07,1.82-1.07c0.79,0,1.39,0.48,1.64,1.16
		h0.02c0.18-0.32,0.41-0.58,0.65-0.76c0.35-0.26,0.73-0.41,1.28-0.41c0.77,0,1.91,0.5,1.91,2.52v3.42h-1.03V5.23
		c0-1.12-0.41-1.79-1.26-1.79c-0.6,0-1.07,0.44-1.25,0.96c-0.05,0.14-0.08,0.33-0.08,0.53v3.59h-1.03V5.04
		c0-0.92-0.41-1.59-1.21-1.59c-0.66,0-1.14,0.53-1.31,1.06c-0.06,0.16-0.08,0.34-0.08,0.52v3.5h-1.03V4.28z"/>
	<path d="M100.54,5.57c0,2.15-1.49,3.08-2.89,3.08c-1.57,0-2.78-1.15-2.78-2.99c0-1.94,1.27-3.08,2.88-3.08
		C99.42,2.58,100.54,3.79,100.54,5.57z M95.94,5.62c0,1.27,0.73,2.23,1.76,2.23c1.01,0,1.76-0.95,1.76-2.25
		c0-0.98-0.49-2.23-1.74-2.23C96.48,3.37,95.94,4.52,95.94,5.62z"/>
	<path d="M101.73,7.44c0.31,0.2,0.86,0.42,1.39,0.42c0.77,0,1.13-0.38,1.13-0.86c0-0.5-0.3-0.78-1.08-1.07
		c-1.04-0.37-1.54-0.95-1.54-1.64c0-0.94,0.76-1.7,2-1.7c0.59,0,1.1,0.17,1.43,0.36l-0.26,0.77c-0.23-0.14-0.65-0.34-1.19-0.34
		c-0.62,0-0.97,0.36-0.97,0.79c0,0.48,0.35,0.7,1.1,0.98c1.01,0.38,1.52,0.89,1.52,1.75c0,1.02-0.79,1.74-2.17,1.74
		c-0.64,0-1.22-0.16-1.63-0.4L101.73,7.44z"/>
	<path d="M107.9,1.04v1.67h1.51v0.8h-1.51v3.13c0,0.72,0.2,1.13,0.79,1.13c0.28,0,0.48-0.04,0.61-0.07l0.05,0.79
		c-0.2,0.08-0.53,0.14-0.94,0.14c-0.49,0-0.89-0.16-1.14-0.44c-0.3-0.31-0.41-0.83-0.41-1.51V3.51h-0.9v-0.8h0.9V1.32L107.9,1.04z"
		/>
	<path d="M118.16,0v7.02c0,0.52,0.01,1.1,0.05,1.5h-0.95l-0.05-1.01h-0.02c-0.32,0.65-1.03,1.14-1.98,1.14
		c-1.4,0-2.48-1.19-2.48-2.95c-0.01-1.93,1.19-3.12,2.6-3.12c0.89,0,1.49,0.42,1.75,0.89h0.02V0H118.16z M117.1,5.07
		c0-0.13-0.01-0.31-0.05-0.44c-0.16-0.67-0.73-1.22-1.52-1.22c-1.09,0-1.74,0.96-1.74,2.24c0,1.17,0.58,2.15,1.72,2.15
		c0.71,0,1.35-0.47,1.55-1.26c0.04-0.14,0.05-0.29,0.05-0.46V5.07z"/>
	<path d="M124.77,6.93c0,0.6,0.01,1.13,0.05,1.58h-0.94l-0.06-0.95h-0.02c-0.28,0.47-0.89,1.08-1.92,1.08c-0.91,0-2-0.5-2-2.54V2.71
		h1.06v3.21c0,1.1,0.34,1.85,1.3,1.85c0.71,0,1.2-0.49,1.39-0.96c0.06-0.16,0.1-0.35,0.1-0.54V2.71h1.06V6.93z"/>
	<path d="M126.53,4.52c0-0.68-0.01-1.27-0.05-1.81h0.92l0.04,1.14h0.05c0.26-0.78,0.9-1.27,1.61-1.27c0.12,0,0.2,0.01,0.3,0.04v1
		c-0.11-0.02-0.22-0.04-0.36-0.04c-0.74,0-1.27,0.56-1.42,1.36c-0.02,0.14-0.05,0.31-0.05,0.49v3.09h-1.04V4.52z"/>
	<path d="M133.6,8.52l-0.08-0.73h-0.04c-0.32,0.46-0.95,0.86-1.77,0.86c-1.18,0-1.77-0.83-1.77-1.67c0-1.4,1.25-2.17,3.49-2.16V4.7
		c0-0.48-0.13-1.34-1.32-1.34c-0.54,0-1.1,0.17-1.51,0.43l-0.24-0.7c0.48-0.31,1.18-0.52,1.91-0.52c1.77,0,2.21,1.21,2.21,2.37v2.17
		c0,0.5,0.02,1,0.1,1.39H133.6z M133.45,5.55c-1.15-0.02-2.46,0.18-2.46,1.31c0,0.68,0.46,1.01,1,1.01c0.76,0,1.24-0.48,1.4-0.97
		c0.04-0.11,0.06-0.23,0.06-0.34V5.55z"/>
	<path d="M136.13,8.52c0.02-0.4,0.05-0.98,0.05-1.5V0h1.04v3.65h0.02c0.37-0.65,1.04-1.07,1.98-1.07c1.44,0,2.46,1.2,2.45,2.96
		c0,2.08-1.31,3.11-2.6,3.11c-0.84,0-1.51-0.32-1.94-1.09h-0.04l-0.05,0.96H136.13z M137.22,6.19c0,0.13,0.02,0.26,0.05,0.38
		c0.2,0.73,0.82,1.24,1.58,1.24c1.1,0,1.76-0.9,1.76-2.23c0-1.16-0.6-2.16-1.73-2.16c-0.72,0-1.39,0.49-1.61,1.3
		c-0.02,0.12-0.06,0.26-0.06,0.43V6.19z"/>
	<path d="M143,0h1.06v8.52H143V0z"/>
	<path d="M146.42,5.8c0.02,1.43,0.94,2.02,1.99,2.02c0.76,0,1.21-0.13,1.61-0.3l0.18,0.75c-0.37,0.17-1.01,0.36-1.93,0.36
		c-1.79,0-2.85-1.18-2.85-2.93s1.03-3.13,2.72-3.13c1.9,0,2.4,1.67,2.4,2.73c0,0.22-0.02,0.38-0.04,0.49H146.42z M149.52,5.05
		c0.01-0.67-0.28-1.71-1.46-1.71c-1.07,0-1.54,0.98-1.62,1.71H149.52z"/>
	<path d="M0.41,22.92c0.02-0.4,0.05-0.98,0.05-1.5V14.4H1.5v3.65h0.02c0.37-0.65,1.04-1.07,1.98-1.07c1.44,0,2.46,1.2,2.45,2.96
		c0,2.08-1.31,3.11-2.6,3.11c-0.84,0-1.51-0.32-1.94-1.09H1.37l-0.05,0.96H0.41z M1.5,20.59c0,0.13,0.02,0.26,0.05,0.38
		c0.2,0.73,0.82,1.24,1.58,1.24c1.1,0,1.76-0.9,1.76-2.23c0-1.16-0.6-2.16-1.73-2.16c-0.72,0-1.39,0.49-1.61,1.3
		c-0.02,0.12-0.06,0.26-0.06,0.43V20.59z"/>
	<path d="M10.5,22.92l-0.08-0.73h-0.04c-0.32,0.46-0.95,0.86-1.77,0.86c-1.18,0-1.77-0.83-1.77-1.67c0-1.4,1.25-2.17,3.49-2.16V19.1
		c0-0.48-0.13-1.34-1.32-1.34c-0.54,0-1.1,0.17-1.51,0.43l-0.24-0.7c0.48-0.31,1.18-0.52,1.91-0.52c1.77,0,2.21,1.21,2.21,2.37v2.17
		c0,0.5,0.02,1,0.1,1.39H10.5z M10.34,19.95c-1.15-0.02-2.46,0.18-2.46,1.31c0,0.68,0.46,1.01,1,1.01c0.76,0,1.24-0.48,1.4-0.97
		c0.04-0.11,0.06-0.23,0.06-0.34V19.95z"/>
	<path d="M12.92,21.84c0.31,0.2,0.86,0.42,1.39,0.42c0.77,0,1.13-0.38,1.13-0.86c0-0.5-0.3-0.78-1.08-1.07
		c-1.04-0.37-1.54-0.95-1.54-1.64c0-0.94,0.76-1.7,2-1.7c0.59,0,1.1,0.17,1.43,0.36l-0.26,0.77c-0.23-0.14-0.65-0.34-1.19-0.34
		c-0.62,0-0.97,0.36-0.97,0.79c0,0.48,0.35,0.7,1.1,0.98c1.01,0.38,1.52,0.89,1.52,1.75c0,1.02-0.79,1.74-2.17,1.74
		c-0.64,0-1.22-0.16-1.63-0.4L12.92,21.84z"/>
	<path d="M18.41,20.21c0.02,1.43,0.94,2.02,1.99,2.02c0.76,0,1.21-0.13,1.61-0.3l0.18,0.75c-0.37,0.17-1.01,0.36-1.93,0.36
		c-1.79,0-2.85-1.18-2.85-2.93s1.03-3.13,2.72-3.13c1.9,0,2.4,1.67,2.4,2.73c0,0.22-0.02,0.38-0.04,0.49H18.41z M21.5,19.45
		c0.01-0.67-0.28-1.71-1.46-1.71c-1.07,0-1.54,0.98-1.62,1.71H21.5z"/>
	<path d="M31.63,19.97c0,2.15-1.49,3.08-2.89,3.08c-1.57,0-2.78-1.15-2.78-2.99c0-1.94,1.27-3.08,2.88-3.08
		C30.5,16.98,31.63,18.19,31.63,19.97z M27.02,20.03c0,1.27,0.73,2.23,1.76,2.23c1.01,0,1.76-0.95,1.76-2.25
		c0-0.98-0.49-2.23-1.74-2.23C27.56,17.77,27.02,18.92,27.02,20.03z"/>
	<path d="M32.96,18.68c0-0.6-0.01-1.09-0.05-1.57h0.94l0.06,0.96h0.02c0.29-0.55,0.96-1.09,1.92-1.09c0.8,0,2.05,0.48,2.05,2.47
		v3.47h-1.06v-3.35c0-0.94-0.35-1.72-1.34-1.72c-0.7,0-1.24,0.49-1.42,1.08c-0.05,0.13-0.07,0.31-0.07,0.49v3.49h-1.06V18.68z"/>
	<path d="M43.44,15.44v1.67h1.51v0.8h-1.51v3.13c0,0.72,0.2,1.13,0.79,1.13c0.28,0,0.48-0.04,0.61-0.07l0.05,0.79
		c-0.2,0.08-0.53,0.14-0.94,0.14c-0.49,0-0.89-0.16-1.14-0.44c-0.3-0.31-0.41-0.83-0.41-1.51v-3.17h-0.9v-0.8h0.9v-1.39L43.44,15.44
		z"/>
	<path d="M46.14,14.4h1.06v3.62h0.02c0.17-0.3,0.43-0.56,0.76-0.74c0.31-0.18,0.68-0.3,1.08-0.3c0.78,0,2.03,0.48,2.03,2.48v3.45
		h-1.06v-3.33c0-0.94-0.35-1.73-1.34-1.73c-0.68,0-1.22,0.48-1.42,1.06c-0.06,0.14-0.07,0.3-0.07,0.5v3.5h-1.06V14.4z"/>
	<path d="M53.39,20.21c0.02,1.43,0.94,2.02,1.99,2.02c0.76,0,1.21-0.13,1.61-0.3l0.18,0.75c-0.37,0.17-1.01,0.36-1.93,0.36
		c-1.79,0-2.85-1.18-2.85-2.93s1.03-3.13,2.72-3.13c1.9,0,2.4,1.67,2.4,2.73c0,0.22-0.02,0.38-0.04,0.49H53.39z M56.48,19.45
		c0.01-0.67-0.28-1.71-1.46-1.71c-1.07,0-1.54,0.98-1.62,1.71H56.48z"/>
	<path d="M61.35,18.68c0-0.6-0.01-1.09-0.05-1.57h0.92l0.05,0.94h0.04c0.32-0.55,0.86-1.07,1.82-1.07c0.79,0,1.39,0.48,1.64,1.16
		h0.02c0.18-0.32,0.41-0.58,0.65-0.76c0.35-0.26,0.73-0.41,1.28-0.41c0.77,0,1.91,0.5,1.91,2.52v3.42h-1.03v-3.29
		c0-1.12-0.41-1.79-1.26-1.79c-0.6,0-1.07,0.44-1.25,0.96c-0.05,0.14-0.08,0.33-0.08,0.53v3.59h-1.03v-3.48
		c0-0.92-0.41-1.59-1.21-1.59c-0.66,0-1.14,0.53-1.31,1.06c-0.06,0.16-0.08,0.34-0.08,0.52v3.5h-1.03V18.68z"/>
	<path d="M74.58,22.92l-0.08-0.73h-0.04c-0.32,0.46-0.95,0.86-1.77,0.86c-1.18,0-1.77-0.83-1.77-1.67c0-1.4,1.25-2.17,3.49-2.16
		V19.1c0-0.48-0.13-1.34-1.32-1.34c-0.54,0-1.1,0.17-1.51,0.43l-0.24-0.7c0.48-0.31,1.18-0.52,1.91-0.52c1.77,0,2.21,1.21,2.21,2.37
		v2.17c0,0.5,0.02,1,0.1,1.39H74.58z M74.42,19.95c-1.15-0.02-2.46,0.18-2.46,1.31c0,0.68,0.46,1.01,1,1.01
		c0.76,0,1.24-0.48,1.4-0.97c0.04-0.11,0.06-0.23,0.06-0.34V19.95z"/>
	<path d="M77.15,18.92c0-0.68-0.01-1.27-0.05-1.81h0.92l0.04,1.14h0.05c0.26-0.78,0.9-1.27,1.61-1.27c0.12,0,0.2,0.01,0.3,0.04v1
		c-0.11-0.02-0.22-0.04-0.36-0.04c-0.74,0-1.27,0.56-1.42,1.36c-0.02,0.14-0.05,0.31-0.05,0.49v3.09h-1.04V18.92z"/>
	<path d="M82.16,19.77h0.02c0.14-0.2,0.35-0.46,0.52-0.66l1.7-2h1.27l-2.24,2.39l2.55,3.42H84.7l-2-2.78l-0.54,0.6v2.18h-1.04V14.4
		h1.04V19.77z"/>
	<path d="M87.33,20.21c0.02,1.43,0.94,2.02,1.99,2.02c0.76,0,1.21-0.13,1.61-0.3l0.18,0.75c-0.37,0.17-1.01,0.36-1.93,0.36
		c-1.79,0-2.85-1.18-2.85-2.93s1.03-3.13,2.72-3.13c1.9,0,2.4,1.67,2.4,2.73c0,0.22-0.02,0.38-0.04,0.49H87.33z M90.43,19.45
		c0.01-0.67-0.28-1.71-1.46-1.71c-1.07,0-1.54,0.98-1.62,1.71H90.43z"/>
	<path d="M94.03,15.44v1.67h1.51v0.8h-1.51v3.13c0,0.72,0.2,1.13,0.79,1.13c0.28,0,0.48-0.04,0.61-0.07l0.05,0.79
		c-0.2,0.08-0.53,0.14-0.94,0.14c-0.49,0-0.89-0.16-1.14-0.44C93.1,22.28,93,21.76,93,21.08v-3.17h-0.9v-0.8H93v-1.39L94.03,15.44z"
		/>
	<path d="M96.44,22.29c0-0.44,0.3-0.75,0.72-0.75s0.71,0.31,0.71,0.75c0,0.43-0.28,0.76-0.72,0.76
		C96.73,23.05,96.44,22.72,96.44,22.29z"/>
	<path d="M101.76,14.94c0.64-0.1,1.39-0.17,2.22-0.17c1.5,0,2.57,0.35,3.27,1.01c0.72,0.66,1.14,1.59,1.14,2.9
		c0,1.32-0.41,2.4-1.16,3.14c-0.76,0.76-2,1.16-3.57,1.16c-0.74,0-1.37-0.04-1.9-0.1V14.94z M102.8,22.09
		c0.26,0.05,0.65,0.06,1.06,0.06c2.23,0,3.44-1.25,3.44-3.43c0.01-1.91-1.07-3.12-3.27-3.12c-0.54,0-0.95,0.05-1.22,0.11V22.09z"/>
	<path d="M115.01,19.97c0,2.15-1.49,3.08-2.89,3.08c-1.57,0-2.78-1.15-2.78-2.99c0-1.94,1.27-3.08,2.88-3.08
		C113.89,16.98,115.01,18.19,115.01,19.97z M110.41,20.03c0,1.27,0.73,2.23,1.76,2.23c1.01,0,1.76-0.95,1.76-2.25
		c0-0.98-0.49-2.23-1.74-2.23C110.95,17.77,110.41,18.92,110.41,20.03z"/>
	<path d="M116.35,18.68c0-0.6-0.01-1.09-0.05-1.57h0.94l0.06,0.96h0.02c0.29-0.55,0.96-1.09,1.92-1.09c0.8,0,2.05,0.48,2.05,2.47
		v3.47h-1.06v-3.35c0-0.94-0.35-1.72-1.34-1.72c-0.7,0-1.24,0.49-1.42,1.08c-0.05,0.13-0.07,0.31-0.07,0.49v3.49h-1.06V18.68z"/>
	<path d="M124.23,15.44v1.67h1.51v0.8h-1.51v3.13c0,0.72,0.2,1.13,0.79,1.13c0.28,0,0.48-0.04,0.61-0.07l0.05,0.79
		c-0.2,0.08-0.53,0.14-0.94,0.14c-0.49,0-0.89-0.16-1.14-0.44c-0.3-0.31-0.41-0.83-0.41-1.51v-3.17h-0.9v-0.8h0.9v-1.39
		L124.23,15.44z"/>
	<path d="M129.9,17.11l0.77,2.95c0.17,0.65,0.32,1.25,0.43,1.85h0.04c0.13-0.59,0.32-1.21,0.52-1.83l0.95-2.96h0.89l0.9,2.9
		c0.22,0.7,0.38,1.31,0.52,1.89h0.04c0.1-0.59,0.25-1.2,0.44-1.88l0.83-2.91h1.04l-1.87,5.8h-0.96l-0.89-2.77
		c-0.2-0.65-0.37-1.22-0.52-1.91h-0.02c-0.14,0.7-0.32,1.3-0.53,1.92l-0.94,2.76h-0.96l-1.75-5.8H129.9z"/>
	<path d="M143.44,19.97c0,2.15-1.49,3.08-2.89,3.08c-1.57,0-2.78-1.15-2.78-2.99c0-1.94,1.27-3.08,2.88-3.08
		C142.31,16.98,143.44,18.19,143.44,19.97z M138.84,20.03c0,1.27,0.73,2.23,1.76,2.23c1.01,0,1.76-0.95,1.76-2.25
		c0-0.98-0.49-2.23-1.74-2.23C139.38,17.77,138.84,18.92,138.84,20.03z"/>
	<path d="M144.78,18.92c0-0.68-0.01-1.27-0.05-1.81h0.92l0.04,1.14h0.05c0.26-0.78,0.9-1.27,1.61-1.27c0.12,0,0.2,0.01,0.3,0.04v1
		c-0.11-0.02-0.22-0.04-0.36-0.04c-0.74,0-1.27,0.56-1.42,1.36c-0.02,0.14-0.05,0.31-0.05,0.49v3.09h-1.04V18.92z"/>
	<path d="M148.75,18.92c0-0.68-0.01-1.27-0.05-1.81h0.92l0.04,1.14h0.05c0.26-0.78,0.9-1.27,1.61-1.27c0.12,0,0.2,0.01,0.3,0.04v1
		c-0.11-0.02-0.22-0.04-0.36-0.04c-0.74,0-1.27,0.56-1.42,1.36c-0.02,0.14-0.05,0.31-0.05,0.49v3.09h-1.04V18.92z"/>
	<path d="M153.36,17.11l1.27,3.43c0.13,0.38,0.28,0.84,0.37,1.19h0.02c0.11-0.35,0.23-0.79,0.37-1.21l1.15-3.41h1.12l-1.58,4.14
		c-0.76,1.99-1.27,3.01-1.99,3.63c-0.52,0.46-1.03,0.64-1.29,0.68l-0.26-0.89c0.26-0.08,0.61-0.25,0.92-0.52
		c0.29-0.23,0.65-0.64,0.89-1.17c0.05-0.11,0.08-0.19,0.08-0.25c0-0.06-0.02-0.14-0.07-0.28l-2.15-5.35H153.36z"/>
	<path d="M3.67,37.32l-0.08-0.73H3.55c-0.32,0.46-0.95,0.86-1.77,0.86C0.6,37.45,0,36.62,0,35.78c0-1.4,1.25-2.17,3.49-2.16V33.5
		c0-0.48-0.13-1.34-1.32-1.34c-0.54,0-1.1,0.17-1.51,0.43l-0.24-0.7c0.48-0.31,1.18-0.52,1.91-0.52c1.77,0,2.21,1.21,2.21,2.37v2.17
		c0,0.5,0.02,1,0.1,1.39H3.67z M3.51,34.35c-1.15-0.02-2.46,0.18-2.46,1.31c0,0.68,0.46,1.01,1,1.01c0.76,0,1.24-0.48,1.4-0.97
		c0.04-0.11,0.06-0.23,0.06-0.34V34.35z"/>
	<path d="M6.19,37.32c0.02-0.4,0.05-0.98,0.05-1.5V28.8h1.04v3.65h0.02c0.37-0.65,1.04-1.07,1.98-1.07c1.44,0,2.46,1.2,2.45,2.96
		c0,2.08-1.31,3.11-2.6,3.11c-0.84,0-1.51-0.32-1.94-1.09H7.15L7.1,37.32H6.19z M7.28,34.99c0,0.13,0.02,0.26,0.05,0.38
		c0.2,0.73,0.82,1.24,1.58,1.24c1.1,0,1.76-0.9,1.76-2.23c0-1.16-0.6-2.16-1.73-2.16c-0.72,0-1.39,0.49-1.61,1.3
		c-0.02,0.12-0.06,0.26-0.06,0.43V34.99z"/>
	<path d="M18.32,34.37c0,2.15-1.49,3.08-2.89,3.08c-1.57,0-2.78-1.15-2.78-2.99c0-1.94,1.27-3.08,2.88-3.08
		C17.19,31.38,18.32,32.59,18.32,34.37z M13.71,34.43c0,1.27,0.73,2.23,1.76,2.23c1.01,0,1.76-0.95,1.76-2.25
		c0-0.98-0.49-2.23-1.74-2.23C14.25,32.17,13.71,33.32,13.71,34.43z"/>
	<path d="M24.51,35.73c0,0.6,0.01,1.13,0.05,1.58h-0.94l-0.06-0.95h-0.02c-0.28,0.47-0.89,1.08-1.92,1.08c-0.91,0-2-0.5-2-2.54
		v-3.39h1.06v3.21c0,1.1,0.34,1.85,1.3,1.85c0.71,0,1.2-0.49,1.39-0.96c0.06-0.16,0.1-0.35,0.1-0.54v-3.56h1.06V35.73z"/>
	<path d="M27.54,29.84v1.67h1.51v0.8h-1.51v3.13c0,0.72,0.2,1.13,0.79,1.13c0.28,0,0.48-0.04,0.61-0.07l0.05,0.79
		c-0.2,0.08-0.53,0.14-0.94,0.14c-0.49,0-0.89-0.16-1.14-0.44c-0.3-0.31-0.41-0.83-0.41-1.51v-3.17h-0.9v-0.8h0.9v-1.39L27.54,29.84
		z"/>
	<path d="M34.05,29.84v1.67h1.51v0.8h-1.51v3.13c0,0.72,0.2,1.13,0.79,1.13c0.28,0,0.48-0.04,0.61-0.07l0.05,0.79
		c-0.2,0.08-0.53,0.14-0.94,0.14c-0.49,0-0.89-0.16-1.14-0.44c-0.3-0.31-0.41-0.83-0.41-1.51v-3.17h-0.9v-0.8h0.9v-1.39L34.05,29.84
		z"/>
	<path d="M36.75,28.8h1.06v3.62h0.02c0.17-0.3,0.43-0.56,0.76-0.74c0.31-0.18,0.68-0.3,1.08-0.3c0.78,0,2.03,0.48,2.03,2.48v3.45
		h-1.06v-3.33c0-0.94-0.35-1.73-1.34-1.73c-0.68,0-1.22,0.48-1.42,1.06c-0.06,0.14-0.07,0.3-0.07,0.5v3.5h-1.06V28.8z"/>
	<path d="M48.67,34.37c0,2.15-1.49,3.08-2.89,3.08c-1.57,0-2.78-1.15-2.78-2.99c0-1.94,1.27-3.08,2.88-3.08
		C47.54,31.38,48.67,32.59,48.67,34.37z M44.06,34.43c0,1.27,0.73,2.23,1.76,2.23c1.01,0,1.76-0.95,1.76-2.25
		c0-0.98-0.49-2.23-1.74-2.23C44.6,32.17,44.06,33.32,44.06,34.43z"/>
	<path d="M49.86,36.24c0.31,0.2,0.86,0.42,1.39,0.42c0.77,0,1.13-0.38,1.13-0.86c0-0.5-0.3-0.78-1.08-1.07
		c-1.04-0.37-1.54-0.95-1.54-1.64c0-0.94,0.76-1.7,2-1.7c0.59,0,1.1,0.17,1.43,0.36l-0.26,0.77c-0.23-0.14-0.65-0.34-1.19-0.34
		c-0.62,0-0.97,0.36-0.97,0.79c0,0.48,0.35,0.7,1.1,0.98c1.01,0.38,1.52,0.89,1.52,1.75c0,1.02-0.79,1.74-2.17,1.74
		c-0.64,0-1.22-0.16-1.63-0.4L49.86,36.24z"/>
	<path d="M55.34,34.61c0.02,1.43,0.94,2.02,1.99,2.02c0.76,0,1.21-0.13,1.61-0.3l0.18,0.75c-0.37,0.17-1.01,0.36-1.93,0.36
		c-1.79,0-2.85-1.18-2.85-2.93s1.03-3.13,2.72-3.13c1.9,0,2.4,1.67,2.4,2.73c0,0.22-0.02,0.38-0.04,0.49H55.34z M58.44,33.85
		c0.01-0.67-0.28-1.71-1.46-1.71c-1.07,0-1.54,0.98-1.62,1.71H58.44z"/>
	<path d="M63.17,36.24c0.31,0.2,0.86,0.42,1.39,0.42c0.77,0,1.13-0.38,1.13-0.86c0-0.5-0.3-0.78-1.08-1.07
		c-1.04-0.37-1.54-0.95-1.54-1.64c0-0.94,0.76-1.7,2-1.7c0.59,0,1.1,0.17,1.43,0.36l-0.26,0.77c-0.23-0.14-0.65-0.34-1.19-0.34
		c-0.62,0-0.97,0.36-0.97,0.79c0,0.48,0.35,0.7,1.1,0.98c1.01,0.38,1.52,0.89,1.52,1.75c0,1.02-0.79,1.74-2.17,1.74
		c-0.64,0-1.22-0.16-1.63-0.4L63.17,36.24z"/>
	<path d="M68.06,33.08c0-0.6-0.01-1.09-0.05-1.57h0.94l0.06,0.96h0.02c0.29-0.55,0.96-1.09,1.92-1.09c0.8,0,2.05,0.48,2.05,2.47
		v3.47h-1.06v-3.35c0-0.94-0.35-1.72-1.34-1.72c-0.7,0-1.24,0.49-1.42,1.08c-0.05,0.13-0.07,0.31-0.07,0.49v3.49h-1.06V33.08z"/>
	<path d="M79.98,34.37c0,2.15-1.49,3.08-2.89,3.08c-1.57,0-2.78-1.15-2.78-2.99c0-1.94,1.27-3.08,2.88-3.08
		C78.85,31.38,79.98,32.59,79.98,34.37z M75.37,34.43c0,1.27,0.73,2.23,1.76,2.23c1.01,0,1.76-0.95,1.76-2.25
		c0-0.98-0.49-2.23-1.74-2.23C75.91,32.17,75.37,33.32,75.37,34.43z"/>
	<path d="M81.65,31.51l0.77,2.95c0.17,0.65,0.32,1.25,0.43,1.85h0.04c0.13-0.59,0.32-1.21,0.52-1.83l0.95-2.96h0.89l0.9,2.9
		c0.22,0.7,0.38,1.31,0.52,1.89h0.04c0.1-0.59,0.25-1.2,0.44-1.88l0.83-2.91H89l-1.87,5.8h-0.96l-0.89-2.77
		c-0.2-0.65-0.37-1.22-0.52-1.91h-0.02c-0.14,0.7-0.32,1.3-0.53,1.92l-0.94,2.76h-0.96l-1.75-5.8H81.65z"/>
	<path d="M92.46,36.24c0.31,0.2,0.86,0.42,1.39,0.42c0.77,0,1.13-0.38,1.13-0.86c0-0.5-0.3-0.78-1.08-1.07
		c-1.04-0.37-1.54-0.95-1.54-1.64c0-0.94,0.76-1.7,2-1.7c0.59,0,1.1,0.17,1.43,0.36l-0.26,0.77c-0.23-0.14-0.65-0.34-1.19-0.34
		c-0.62,0-0.97,0.36-0.97,0.79c0,0.48,0.35,0.7,1.1,0.98C95.48,34.33,96,34.83,96,35.7c0,1.02-0.79,1.74-2.17,1.74
		c-0.64,0-1.22-0.16-1.63-0.4L92.46,36.24z"/>
	<path d="M97.35,33.08c0-0.6-0.01-1.09-0.05-1.57h0.94l0.06,0.96h0.02c0.29-0.55,0.96-1.09,1.92-1.09c0.8,0,2.05,0.48,2.05,2.47
		v3.47h-1.06v-3.35c0-0.94-0.35-1.72-1.34-1.72c-0.7,0-1.24,0.49-1.42,1.08c-0.05,0.13-0.07,0.31-0.07,0.49v3.49h-1.06V33.08z"/>
	<path d="M107.23,37.32l-0.08-0.73h-0.04c-0.32,0.46-0.95,0.86-1.77,0.86c-1.18,0-1.77-0.83-1.77-1.67c0-1.4,1.25-2.17,3.49-2.16
		V33.5c0-0.48-0.13-1.34-1.32-1.34c-0.54,0-1.1,0.17-1.51,0.43l-0.24-0.7c0.48-0.31,1.18-0.52,1.91-0.52c1.77,0,2.21,1.21,2.21,2.37
		v2.17c0,0.5,0.02,1,0.1,1.39H107.23z M107.07,34.35c-1.15-0.02-2.46,0.18-2.46,1.31c0,0.68,0.46,1.01,1,1.01
		c0.76,0,1.24-0.48,1.4-0.97c0.04-0.11,0.06-0.23,0.06-0.34V34.35z"/>
	<path d="M110.84,34.17h0.02c0.14-0.2,0.35-0.46,0.52-0.66l1.7-2h1.27l-2.24,2.39l2.55,3.42h-1.28l-2-2.78l-0.54,0.6v2.18h-1.04
		V28.8h1.04V34.17z"/>
	<path d="M116.01,34.61c0.02,1.43,0.94,2.02,1.99,2.02c0.76,0,1.21-0.13,1.61-0.3l0.18,0.75c-0.37,0.17-1.01,0.36-1.93,0.36
		c-1.79,0-2.85-1.18-2.85-2.93s1.03-3.13,2.72-3.13c1.9,0,2.4,1.67,2.4,2.73c0,0.22-0.02,0.38-0.04,0.49H116.01z M119.11,33.85
		c0.01-0.67-0.28-1.71-1.46-1.71c-1.07,0-1.54,0.98-1.62,1.71H119.11z"/>
	<path d="M121.29,36.24c0.31,0.2,0.86,0.42,1.39,0.42c0.77,0,1.13-0.38,1.13-0.86c0-0.5-0.3-0.78-1.08-1.07
		c-1.04-0.37-1.54-0.95-1.54-1.64c0-0.94,0.76-1.7,2-1.7c0.59,0,1.1,0.17,1.43,0.36l-0.26,0.77c-0.23-0.14-0.65-0.34-1.19-0.34
		c-0.62,0-0.97,0.36-0.97,0.79c0,0.48,0.35,0.7,1.1,0.98c1.01,0.38,1.52,0.89,1.52,1.75c0,1.02-0.79,1.74-2.17,1.74
		c-0.64,0-1.22-0.16-1.63-0.4L121.29,36.24z"/>
	<path d="M125.81,36.69c0-0.44,0.3-0.75,0.72-0.75s0.71,0.31,0.71,0.75c0,0.43-0.28,0.76-0.72,0.76
		C126.09,37.45,125.81,37.12,125.81,36.69z"/>
</g>
</svg>
