<!-- Generator: Adobe Illustrator 23.1.1, SVG Export Plug-In  -->
<svg version="1.1" xmlns="http://www.w3.org/2000/svg" xmlns:xlink="http://www.w3.org/1999/xlink" x="0px" y="0px"
	 width="100.58px" height="8.66px" viewBox="0 0 100.58 8.66" style="enable-background:new 0 0 100.58 8.66;" xml:space="preserve"
	>
<defs>
</defs>
<g>
	<path d="M6.11,8.52H0.18V6.88l2.58-2.21c0.23-0.2,0.43-0.38,0.59-0.55C3.51,3.96,3.64,3.8,3.74,3.64c0.1-0.16,0.17-0.31,0.22-0.46
		s0.07-0.32,0.07-0.49V2.52c0-0.16-0.03-0.3-0.1-0.42C3.86,1.98,3.78,1.88,3.67,1.8S3.45,1.66,3.32,1.62
		c-0.13-0.04-0.27-0.06-0.4-0.06c-0.2,0-0.37,0.03-0.52,0.1C2.25,1.72,2.12,1.81,2.01,1.91C1.9,2.02,1.81,2.15,1.74,2.29
		C1.67,2.43,1.61,2.58,1.57,2.74L0,2.14c0.1-0.29,0.23-0.56,0.4-0.82s0.38-0.49,0.63-0.68c0.25-0.2,0.55-0.35,0.89-0.46
		C2.26,0.06,2.65,0,3.08,0C3.54,0,3.94,0.06,4.3,0.19s0.65,0.3,0.89,0.53s0.43,0.49,0.56,0.8s0.19,0.64,0.19,1S5.88,3.21,5.76,3.5
		C5.64,3.8,5.48,4.08,5.27,4.34C5.07,4.6,4.83,4.84,4.56,5.08C4.29,5.31,4,5.54,3.71,5.78L2.15,7.01h3.96V8.52z"/>
	<path d="M9.74,8.65c-0.36,0-0.63-0.09-0.8-0.27C8.77,8.2,8.69,7.97,8.69,7.69V7.45c0-0.28,0.09-0.51,0.26-0.69
		c0.17-0.18,0.44-0.27,0.8-0.27c0.36,0,0.63,0.09,0.8,0.27c0.17,0.18,0.26,0.41,0.26,0.69v0.24c0,0.28-0.09,0.51-0.26,0.69
		C10.37,8.56,10.1,8.65,9.74,8.65z"/>
	<path d="M19.4,8.52h-5.93V6.88l2.58-2.21c0.23-0.2,0.43-0.38,0.59-0.55c0.16-0.16,0.29-0.32,0.39-0.48
		c0.1-0.16,0.17-0.31,0.22-0.46s0.07-0.32,0.07-0.49V2.52c0-0.16-0.03-0.3-0.1-0.42c-0.06-0.12-0.15-0.22-0.25-0.3
		s-0.22-0.14-0.35-0.18c-0.13-0.04-0.27-0.06-0.4-0.06c-0.2,0-0.37,0.03-0.52,0.1c-0.15,0.06-0.28,0.15-0.38,0.26
		c-0.11,0.11-0.2,0.23-0.27,0.37c-0.07,0.14-0.13,0.29-0.17,0.45l-1.57-0.6c0.1-0.29,0.23-0.56,0.4-0.82s0.38-0.49,0.63-0.68
		c0.25-0.2,0.55-0.35,0.89-0.46C15.56,0.06,15.95,0,16.38,0c0.46,0,0.86,0.06,1.21,0.19s0.65,0.3,0.89,0.53s0.43,0.49,0.56,0.8
		s0.19,0.64,0.19,1s-0.06,0.69-0.18,0.98c-0.12,0.3-0.28,0.57-0.49,0.83c-0.2,0.26-0.44,0.51-0.71,0.74
		C17.58,5.31,17.3,5.54,17,5.78l-1.56,1.22h3.96V8.52z"/>
	<path d="M26.12,8.52V0.14h5.7v1.62h-3.88v1.7h3.32v1.62h-3.32V6.9h3.88v1.62H26.12z"/>
	<path d="M36.32,0.14v5.14c0,0.59,0.12,1.03,0.35,1.33s0.62,0.44,1.16,0.44S38.77,6.9,39,6.61c0.23-0.29,0.35-0.73,0.35-1.33V0.14
		h1.78v4.94c0,0.62-0.06,1.15-0.17,1.6c-0.12,0.45-0.31,0.82-0.57,1.12s-0.6,0.51-1.02,0.65c-0.42,0.14-0.92,0.21-1.52,0.21
		s-1.11-0.07-1.52-0.21c-0.42-0.14-0.76-0.36-1.02-0.65c-0.26-0.29-0.45-0.66-0.57-1.12c-0.12-0.45-0.17-0.99-0.17-1.6V0.14H36.32z"
		/>
	<path d="M45.93,8.52h-1.82V0.14h3.97c0.38,0,0.73,0.06,1.04,0.19s0.58,0.31,0.8,0.55c0.22,0.24,0.39,0.52,0.51,0.85
		s0.18,0.69,0.18,1.09c0,0.57-0.13,1.06-0.38,1.49s-0.63,0.73-1.15,0.92l1.64,3.29h-2.03l-1.46-3.07h-1.31V8.52z M47.85,3.91
		c0.27,0,0.49-0.07,0.64-0.21c0.16-0.14,0.23-0.35,0.23-0.62V2.56c0-0.27-0.08-0.48-0.23-0.62c-0.16-0.14-0.37-0.21-0.64-0.21h-1.92
		v2.18H47.85z"/>
	<path d="M56.63,8.66c-0.55,0-1.06-0.09-1.51-0.28c-0.46-0.18-0.84-0.46-1.16-0.82s-0.57-0.82-0.74-1.36
		c-0.18-0.54-0.26-1.17-0.26-1.88c0-0.71,0.09-1.34,0.26-1.88c0.18-0.54,0.42-0.99,0.74-1.36s0.71-0.64,1.16-0.82
		C55.57,0.09,56.07,0,56.63,0c0.55,0,1.06,0.09,1.51,0.28c0.46,0.18,0.84,0.46,1.16,0.82s0.57,0.82,0.74,1.36
		c0.18,0.54,0.26,1.17,0.26,1.88c0,0.71-0.09,1.34-0.26,1.88c-0.18,0.54-0.42,0.99-0.74,1.36s-0.71,0.64-1.16,0.82
		C57.68,8.57,57.18,8.66,56.63,8.66z M56.63,7.04c0.55,0,0.98-0.18,1.29-0.54c0.31-0.36,0.46-0.88,0.46-1.55V3.71
		c0-0.67-0.15-1.19-0.46-1.55c-0.31-0.36-0.74-0.54-1.29-0.54c-0.55,0-0.98,0.18-1.29,0.54c-0.31,0.36-0.46,0.88-0.46,1.55v1.25
		c0,0.67,0.15,1.19,0.46,1.55C55.64,6.86,56.07,7.04,56.63,7.04z"/>
	<path d="M67.04,8.52V0.14h5.7v1.62h-3.88v1.7h3.32v1.62h-3.32V6.9h3.88v1.62H67.04z"/>
	<path d="M75.51,0.14h3.16c0.55,0,1.06,0.09,1.51,0.26c0.46,0.18,0.84,0.44,1.16,0.79c0.32,0.35,0.57,0.78,0.74,1.31
		c0.18,0.52,0.26,1.13,0.26,1.83c0,0.7-0.09,1.31-0.26,1.83c-0.18,0.52-0.42,0.96-0.74,1.31c-0.32,0.35-0.71,0.61-1.16,0.79
		c-0.46,0.18-0.96,0.26-1.51,0.26h-3.16V0.14z M78.67,6.9c0.54,0,0.97-0.15,1.28-0.46c0.31-0.3,0.47-0.79,0.47-1.46v-1.3
		c0-0.67-0.16-1.16-0.47-1.46s-0.74-0.46-1.28-0.46h-1.33V6.9H78.67z"/>
	<path d="M90.38,7.19h-0.06c-0.06,0.42-0.28,0.78-0.65,1.06c-0.37,0.28-0.87,0.42-1.5,0.42c-0.48,0-0.93-0.09-1.34-0.28
		c-0.42-0.18-0.78-0.46-1.09-0.82c-0.31-0.36-0.56-0.81-0.73-1.34c-0.18-0.54-0.26-1.16-0.26-1.86c0-0.7,0.09-1.33,0.28-1.87
		c0.18-0.54,0.44-1,0.77-1.37c0.33-0.37,0.73-0.65,1.19-0.84C87.45,0.1,87.97,0,88.53,0c0.75,0,1.4,0.16,1.94,0.49
		s0.97,0.81,1.28,1.46L90.27,2.8c-0.13-0.33-0.33-0.61-0.6-0.83c-0.27-0.23-0.65-0.34-1.14-0.34c-0.57,0-1.02,0.16-1.36,0.49
		s-0.5,0.84-0.5,1.55V5c0,0.7,0.17,1.21,0.5,1.54s0.79,0.5,1.36,0.5c0.22,0,0.44-0.03,0.64-0.08c0.2-0.05,0.38-0.13,0.53-0.24
		c0.15-0.11,0.27-0.24,0.35-0.39C90.14,6.18,90.18,6,90.18,5.8V5.38h-1.56V3.85h3.3v4.67h-1.54V7.19z"/>
	<path d="M94.88,8.52V0.14h5.7v1.62h-3.88v1.7h3.32v1.62h-3.32V6.9h3.88v1.62H94.88z"/>
</g>
</svg>
