<!-- Generator: Adobe Illustrator 23.1.1, SVG Export Plug-In  -->
<svg version="1.1" xmlns="http://www.w3.org/2000/svg" xmlns:xlink="http://www.w3.org/1999/xlink" x="0px" y="0px"
	 width="209.52px" height="53.63px" viewBox="0 0 209.52 53.63" style="enable-background:new 0 0 209.52 53.63;"
	 xml:space="preserve">
<defs>
</defs>
<g>
	<path d="M0.64,11.84L2.88,0.67h0.35L1.06,11.52h5.2l-0.06,0.32H0.64z"/>
	<path d="M12.13,12.03c-0.43,0-0.8-0.08-1.14-0.22s-0.61-0.36-0.83-0.62c-0.22-0.27-0.39-0.57-0.51-0.92S9.47,9.54,9.47,9.14
		c0-0.75,0.08-1.46,0.26-2.14c0.17-0.68,0.42-1.27,0.76-1.78S11.24,4.3,11.74,4s1.07-0.45,1.74-0.45c0.43,0,0.8,0.08,1.14,0.22
		c0.33,0.15,0.61,0.36,0.83,0.62c0.22,0.27,0.39,0.58,0.51,0.93c0.12,0.35,0.18,0.73,0.18,1.12c0,0.75-0.08,1.46-0.26,2.14
		s-0.42,1.27-0.76,1.78c-0.34,0.51-0.75,0.92-1.25,1.22S12.79,12.03,12.13,12.03z M12.16,11.73c0.91,0,1.65-0.31,2.23-0.93
		c0.58-0.62,0.98-1.47,1.19-2.56l0.13-0.64c0.03-0.18,0.05-0.37,0.06-0.55s0.02-0.39,0.02-0.6c0-0.35-0.04-0.69-0.14-1
		s-0.23-0.59-0.42-0.82S14.79,4.2,14.5,4.06c-0.3-0.14-0.65-0.21-1.06-0.21c-0.91,0-1.65,0.31-2.23,0.93
		c-0.58,0.62-0.98,1.47-1.19,2.56L9.89,7.98C9.86,8.17,9.83,8.35,9.82,8.54s-0.02,0.39-0.02,0.6c0,0.35,0.04,0.69,0.14,1
		s0.23,0.59,0.42,0.82c0.19,0.23,0.44,0.42,0.74,0.56C11.4,11.66,11.75,11.73,12.16,11.73z"/>
	<path d="M20.91,11.84l-1.44-8.1h0.32l1.36,7.71h0.05l4.37-7.71h0.37l-4.61,8.1H20.91z"/>
	<path d="M30.9,12.03c-0.91,0-1.6-0.26-2.09-0.77s-0.73-1.32-0.73-2.42c0-0.74,0.1-1.43,0.29-2.07c0.19-0.64,0.46-1.21,0.81-1.68
		s0.76-0.85,1.25-1.13s1.02-0.42,1.61-0.42c0.77,0,1.38,0.18,1.84,0.53c0.46,0.35,0.69,0.83,0.69,1.44c0,0.26-0.06,0.53-0.19,0.82
		c-0.13,0.29-0.4,0.57-0.82,0.82c-0.42,0.25-1.04,0.46-1.84,0.64c-0.8,0.18-1.88,0.28-3.24,0.31c-0.01,0.08-0.02,0.2-0.03,0.35
		s-0.02,0.27-0.02,0.35c0,1.04,0.21,1.78,0.62,2.23c0.41,0.45,1.03,0.68,1.86,0.68c0.66,0,1.25-0.18,1.76-0.53
		c0.51-0.35,0.93-0.84,1.26-1.47l0.3,0.13c-0.41,0.76-0.89,1.31-1.46,1.66C32.19,11.86,31.57,12.03,30.9,12.03z M32,3.86
		c-0.45,0-0.86,0.09-1.25,0.27c-0.38,0.18-0.72,0.44-1.02,0.77s-0.54,0.72-0.74,1.17c-0.2,0.45-0.35,0.94-0.45,1.48L28.5,7.82
		c1.2-0.02,2.17-0.1,2.91-0.24c0.75-0.14,1.33-0.32,1.74-0.53c0.42-0.21,0.7-0.46,0.84-0.72c0.14-0.27,0.22-0.54,0.22-0.8
		c0-0.49-0.17-0.89-0.52-1.2S32.78,3.86,32,3.86z"/>
	<path d="M43.73,11.84c-0.25,0-0.37-0.1-0.37-0.3c0-0.05,0-0.1,0.01-0.13c0-0.03,0.01-0.08,0.02-0.13l1.44-7.23h-1.52l0.06-0.3h1.15
		c0.15,0,0.26-0.03,0.32-0.09c0.06-0.06,0.11-0.16,0.13-0.31l0.38-1.9h0.34l-0.46,2.3h1.94l-0.06,0.3h-1.94l-1.49,7.49h1.81
		l-0.06,0.3H43.73z"/>
	<path d="M51.76,0h0.34l-1.07,5.42h0.05c0.32-0.61,0.71-1.07,1.16-1.39c0.45-0.32,1.02-0.48,1.69-0.48c0.68,0,1.21,0.18,1.57,0.55
		c0.36,0.37,0.54,0.89,0.54,1.56c0,0.16-0.01,0.33-0.03,0.52s-0.05,0.36-0.08,0.52l-0.96,4.83h1.36l-0.06,0.3h-1.25
		c-0.25,0-0.37-0.1-0.37-0.3c0-0.05,0-0.1,0.01-0.13c0.01-0.03,0.01-0.08,0.02-0.13l0.91-4.56c0.03-0.18,0.06-0.37,0.08-0.56
		c0.02-0.19,0.03-0.34,0.03-0.45c0-1.24-0.61-1.86-1.82-1.86c-0.36,0-0.73,0.07-1.1,0.22c-0.37,0.14-0.71,0.4-1.03,0.78
		c-0.18,0.21-0.37,0.48-0.57,0.8c-0.2,0.32-0.34,0.72-0.44,1.2l-0.99,4.99h-0.34L51.76,0z"/>
	<path d="M62.7,12.03c-0.91,0-1.6-0.26-2.09-0.77s-0.73-1.32-0.73-2.42c0-0.74,0.1-1.43,0.29-2.07c0.19-0.64,0.46-1.21,0.81-1.68
		s0.76-0.85,1.25-1.13s1.02-0.42,1.61-0.42c0.77,0,1.38,0.18,1.84,0.53c0.46,0.35,0.69,0.83,0.69,1.44c0,0.26-0.06,0.53-0.19,0.82
		c-0.13,0.29-0.4,0.57-0.82,0.82c-0.42,0.25-1.04,0.46-1.84,0.64c-0.8,0.18-1.88,0.28-3.24,0.31c-0.01,0.08-0.02,0.2-0.03,0.35
		s-0.02,0.27-0.02,0.35c0,1.04,0.21,1.78,0.62,2.23c0.41,0.45,1.03,0.68,1.86,0.68c0.66,0,1.25-0.18,1.76-0.53
		c0.51-0.35,0.93-0.84,1.26-1.47l0.3,0.13c-0.41,0.76-0.89,1.31-1.46,1.66C64,11.86,63.38,12.03,62.7,12.03z M63.81,3.86
		c-0.45,0-0.86,0.09-1.25,0.27c-0.38,0.18-0.72,0.44-1.02,0.77S61,5.62,60.8,6.07c-0.2,0.45-0.35,0.94-0.45,1.48L60.3,7.82
		c1.2-0.02,2.17-0.1,2.91-0.24c0.75-0.14,1.33-0.32,1.74-0.53c0.42-0.21,0.7-0.46,0.84-0.72c0.14-0.27,0.22-0.54,0.22-0.8
		c0-0.49-0.17-0.89-0.52-1.2S64.59,3.86,63.81,3.86z"/>
	<path d="M75.18,3.74h0.32l0.77,7.66h0.05l3.92-7.66h0.35l0.82,7.66h0.03l3.86-7.66h0.35l-4.1,8.1h-0.42l-0.78-7.55H80.3l-3.87,7.55
		h-0.42L75.18,3.74z"/>
	<path d="M93.47,11.84c-0.25,0-0.37-0.1-0.37-0.3c0-0.05,0-0.1,0.01-0.13c0-0.03,0.01-0.08,0.02-0.13l0.24-1.22h-0.05
		c-0.34,0.6-0.74,1.08-1.19,1.43c-0.45,0.36-1.02,0.54-1.7,0.54c-0.42,0-0.79-0.08-1.11-0.23s-0.6-0.37-0.82-0.63
		c-0.22-0.27-0.39-0.58-0.5-0.95s-0.17-0.77-0.17-1.19c0-0.74,0.09-1.43,0.26-2.1c0.18-0.66,0.43-1.24,0.77-1.74
		c0.34-0.5,0.75-0.9,1.25-1.19c0.5-0.29,1.06-0.44,1.7-0.44c0.68,0,1.23,0.16,1.65,0.46c0.42,0.31,0.7,0.71,0.85,1.22h0.05
		l0.29-1.49h0.34l-1.55,7.79h1.36l-0.06,0.3H93.47z M90.43,11.73c0.34,0,0.65-0.05,0.93-0.14s0.55-0.26,0.83-0.5
		c0.31-0.26,0.61-0.6,0.89-1.02c0.28-0.43,0.48-0.92,0.6-1.49l0.45-2.27c0.05-0.27,0.05-0.54-0.01-0.83s-0.18-0.55-0.36-0.79
		c-0.18-0.24-0.43-0.44-0.75-0.59c-0.32-0.15-0.72-0.23-1.2-0.23c-0.92,0-1.67,0.32-2.26,0.94c-0.59,0.63-0.98,1.47-1.18,2.53
		l-0.11,0.56c-0.03,0.18-0.06,0.36-0.07,0.54c-0.02,0.18-0.02,0.38-0.02,0.6c0,0.37,0.04,0.72,0.14,1.05s0.23,0.61,0.42,0.86
		c0.19,0.25,0.42,0.44,0.7,0.58C89.7,11.66,90.04,11.73,90.43,11.73z"/>
	<path d="M104.71,3.74h0.37l-6.21,10.9c-0.08,0.15-0.17,0.25-0.26,0.31c-0.09,0.06-0.2,0.09-0.35,0.09h-1.2l0.06-0.3h1.34l1.6-2.85
		l-1.46-8.14h0.32l1.36,7.71h0.05L104.71,3.74z"/>
	<path d="M113.34,11.84c-0.25,0-0.37-0.1-0.37-0.3c0-0.05,0-0.1,0.01-0.13c0-0.03,0.01-0.08,0.02-0.13l1.44-7.23h-1.52l0.06-0.3
		h1.15c0.15,0,0.26-0.03,0.32-0.09c0.06-0.06,0.11-0.16,0.13-0.31l0.38-1.9h0.34l-0.46,2.3h1.94l-0.06,0.3h-1.94l-1.49,7.49h1.81
		l-0.06,0.3H113.34z"/>
	<path d="M121.38,0h0.34l-1.07,5.42h0.05c0.32-0.61,0.71-1.07,1.16-1.39c0.45-0.32,1.02-0.48,1.69-0.48c0.68,0,1.21,0.18,1.57,0.55
		c0.36,0.37,0.54,0.89,0.54,1.56c0,0.16-0.01,0.33-0.03,0.52s-0.05,0.36-0.08,0.52l-0.96,4.83h1.36l-0.06,0.3h-1.25
		c-0.25,0-0.37-0.1-0.37-0.3c0-0.05,0-0.1,0.01-0.13c0.01-0.03,0.01-0.08,0.02-0.13l0.91-4.56c0.03-0.18,0.06-0.37,0.08-0.56
		c0.02-0.19,0.03-0.34,0.03-0.45c0-1.24-0.61-1.86-1.82-1.86c-0.36,0-0.73,0.07-1.1,0.22c-0.37,0.14-0.71,0.4-1.03,0.78
		c-0.18,0.21-0.37,0.48-0.57,0.8c-0.2,0.32-0.34,0.72-0.44,1.2l-0.99,4.99h-0.34L121.38,0z"/>
	<path d="M132.32,12.03c-0.91,0-1.6-0.26-2.09-0.77s-0.73-1.32-0.73-2.42c0-0.74,0.1-1.43,0.29-2.07c0.19-0.64,0.46-1.21,0.81-1.68
		s0.76-0.85,1.25-1.13s1.02-0.42,1.61-0.42c0.77,0,1.38,0.18,1.84,0.53c0.46,0.35,0.69,0.83,0.69,1.44c0,0.26-0.06,0.53-0.19,0.82
		c-0.13,0.29-0.4,0.57-0.82,0.82c-0.42,0.25-1.04,0.46-1.84,0.64c-0.8,0.18-1.88,0.28-3.24,0.31c-0.01,0.08-0.02,0.2-0.03,0.35
		s-0.02,0.27-0.02,0.35c0,1.04,0.21,1.78,0.62,2.23c0.41,0.45,1.03,0.68,1.86,0.68c0.66,0,1.25-0.18,1.76-0.53
		c0.51-0.35,0.93-0.84,1.26-1.47l0.3,0.13c-0.41,0.76-0.89,1.31-1.46,1.66C133.61,11.86,132.99,12.03,132.32,12.03z M133.42,3.86
		c-0.45,0-0.86,0.09-1.25,0.27c-0.38,0.18-0.72,0.44-1.02,0.77s-0.54,0.72-0.74,1.17c-0.2,0.45-0.35,0.94-0.45,1.48l-0.05,0.27
		c1.2-0.02,2.17-0.1,2.91-0.24c0.75-0.14,1.33-0.32,1.74-0.53c0.42-0.21,0.7-0.46,0.84-0.72c0.14-0.27,0.22-0.54,0.22-0.8
		c0-0.49-0.17-0.89-0.52-1.2S134.2,3.86,133.42,3.86z"/>
	<path d="M145.38,3.74h0.37l-6.21,10.9c-0.08,0.15-0.17,0.25-0.26,0.31c-0.09,0.06-0.2,0.09-0.35,0.09h-1.2l0.06-0.3h1.34l1.6-2.85
		l-1.46-8.14h0.32l1.36,7.71h0.05L145.38,3.74z"/>
	<path d="M153.39,14.51c-0.04,0.21-0.1,0.35-0.18,0.42s-0.22,0.1-0.45,0.1h-1.34l0.06-0.3h1.52l2.11-10.69h-1.6l0.06-0.3h1.6
		l0.62-3.22c0.04-0.21,0.1-0.35,0.18-0.42c0.07-0.07,0.22-0.1,0.45-0.1h1.5l-0.06,0.3h-1.68l-0.67,3.44h1.66l-0.06,0.3h-1.66
		L153.39,14.51z"/>
	<path d="M159.81,11.84c-0.25,0-0.37-0.1-0.37-0.3c0-0.05,0-0.1,0.01-0.13c0.01-0.03,0.01-0.08,0.02-0.13L161.73,0h0.34l-2.3,11.54
		h1.36l-0.06,0.3H159.81z"/>
	<path d="M167.46,12.03c-0.43,0-0.8-0.08-1.14-0.22s-0.61-0.36-0.83-0.62c-0.22-0.27-0.39-0.57-0.51-0.92s-0.18-0.72-0.18-1.13
		c0-0.75,0.08-1.46,0.26-2.14c0.17-0.68,0.42-1.27,0.76-1.78s0.75-0.92,1.25-1.22s1.07-0.45,1.74-0.45c0.43,0,0.8,0.08,1.14,0.22
		c0.33,0.15,0.61,0.36,0.83,0.62c0.22,0.27,0.39,0.58,0.51,0.93c0.12,0.35,0.18,0.73,0.18,1.12c0,0.75-0.08,1.46-0.26,2.14
		s-0.42,1.27-0.76,1.78c-0.34,0.51-0.75,0.92-1.25,1.22S168.12,12.03,167.46,12.03z M167.49,11.73c0.91,0,1.65-0.31,2.23-0.93
		c0.58-0.62,0.98-1.47,1.19-2.56l0.13-0.64c0.03-0.18,0.05-0.37,0.06-0.55s0.02-0.39,0.02-0.6c0-0.35-0.04-0.69-0.14-1
		s-0.23-0.59-0.42-0.82s-0.44-0.42-0.74-0.56c-0.3-0.14-0.65-0.21-1.06-0.21c-0.91,0-1.65,0.31-2.23,0.93
		c-0.58,0.62-0.98,1.47-1.19,2.56l-0.13,0.64c-0.03,0.18-0.05,0.37-0.06,0.55s-0.02,0.39-0.02,0.6c0,0.35,0.04,0.69,0.14,1
		s0.23,0.59,0.42,0.82c0.19,0.23,0.44,0.42,0.74,0.56C166.73,11.66,167.08,11.73,167.49,11.73z"/>
	<path d="M180.59,11.84c-0.25,0-0.37-0.1-0.37-0.3c0-0.05,0-0.1,0.01-0.13c0-0.03,0.01-0.08,0.02-0.13l0.24-1.22h-0.05
		c-0.34,0.6-0.74,1.08-1.19,1.43c-0.45,0.36-1.02,0.54-1.7,0.54c-0.42,0-0.79-0.08-1.11-0.23s-0.6-0.37-0.82-0.63
		c-0.22-0.27-0.39-0.58-0.5-0.95s-0.17-0.77-0.17-1.19c0-0.74,0.09-1.43,0.26-2.1c0.18-0.66,0.43-1.24,0.77-1.74
		c0.34-0.5,0.75-0.9,1.25-1.19c0.5-0.29,1.06-0.44,1.7-0.44c0.68,0,1.23,0.16,1.65,0.46c0.42,0.31,0.7,0.71,0.85,1.22h0.05
		l0.29-1.49h0.34l-1.55,7.79h1.36l-0.06,0.3H180.59z M177.55,11.73c0.34,0,0.65-0.05,0.93-0.14s0.55-0.26,0.83-0.5
		c0.31-0.26,0.61-0.6,0.89-1.02c0.28-0.43,0.48-0.92,0.6-1.49l0.45-2.27c0.05-0.27,0.05-0.54-0.01-0.83s-0.18-0.55-0.36-0.79
		c-0.18-0.24-0.43-0.44-0.75-0.59c-0.32-0.15-0.72-0.23-1.2-0.23c-0.92,0-1.67,0.32-2.26,0.94c-0.59,0.63-0.98,1.47-1.18,2.53
		l-0.11,0.56c-0.03,0.18-0.06,0.36-0.07,0.54c-0.02,0.18-0.02,0.38-0.02,0.6c0,0.37,0.04,0.72,0.14,1.05s0.23,0.61,0.42,0.86
		c0.19,0.25,0.42,0.44,0.7,0.58C176.82,11.66,177.16,11.73,177.55,11.73z"/>
	<path d="M186.24,11.84c-0.25,0-0.37-0.1-0.37-0.3c0-0.05,0-0.1,0.01-0.13c0-0.03,0.01-0.08,0.02-0.13l1.44-7.23h-1.52l0.06-0.3
		h1.15c0.15,0,0.26-0.03,0.32-0.09c0.06-0.06,0.11-0.16,0.13-0.31l0.38-1.9h0.34l-0.46,2.3h1.94l-0.06,0.3h-1.94l-1.49,7.49H188
		l-0.06,0.3H186.24z"/>
	<path d="M197.71,11.84c-0.25,0-0.37-0.1-0.37-0.3c0-0.05,0-0.1,0.01-0.13c0.01-0.03,0.01-0.08,0.02-0.13l1.52-7.54h0.34l-1.57,7.79
		h1.36l-0.06,0.3H197.71z M199.61,1.07c-0.12,0-0.2-0.03-0.25-0.08c-0.05-0.05-0.07-0.11-0.07-0.18c0-0.03,0-0.06,0.01-0.1
		c0.01-0.03,0.01-0.07,0.02-0.13c0.02-0.1,0.06-0.17,0.13-0.22c0.06-0.05,0.17-0.08,0.3-0.08c0.12,0,0.2,0.03,0.25,0.08
		c0.05,0.05,0.07,0.11,0.07,0.18c0,0.03,0,0.06-0.01,0.1c-0.01,0.03-0.01,0.08-0.02,0.13c-0.02,0.1-0.06,0.17-0.13,0.22
		C199.85,1.04,199.75,1.07,199.61,1.07z"/>
	<path d="M202.61,11.84l1.62-8.1h0.34l-0.34,1.68h0.05c0.32-0.61,0.71-1.07,1.16-1.39c0.45-0.32,1.02-0.48,1.69-0.48
		c0.68,0,1.21,0.18,1.57,0.55c0.36,0.37,0.54,0.89,0.54,1.56c0,0.16-0.01,0.33-0.03,0.52c-0.02,0.19-0.05,0.36-0.08,0.52l-0.96,4.83
		h1.36l-0.06,0.3h-1.25c-0.25,0-0.37-0.1-0.37-0.3c0-0.05,0-0.1,0.01-0.13c0-0.03,0.01-0.08,0.02-0.13l0.91-4.56
		c0.03-0.18,0.06-0.37,0.08-0.56c0.02-0.19,0.03-0.34,0.03-0.45c0-1.24-0.61-1.86-1.82-1.86c-0.36,0-0.73,0.07-1.1,0.22
		c-0.37,0.14-0.71,0.4-1.03,0.78c-0.18,0.21-0.37,0.48-0.57,0.8c-0.2,0.32-0.34,0.72-0.44,1.2l-0.99,4.99H202.61z"/>
	<path d="M2.26,22.94h0.34l-0.35,1.78h0.05c0.34-0.6,0.74-1.07,1.19-1.43s1.02-0.54,1.7-0.54c0.42,0,0.79,0.08,1.11,0.23
		c0.33,0.15,0.6,0.37,0.82,0.63c0.22,0.27,0.39,0.58,0.5,0.95c0.11,0.37,0.17,0.77,0.17,1.19c0,0.74-0.09,1.43-0.26,2.1
		C7.35,28.52,7.1,29.1,6.76,29.6c-0.34,0.5-0.75,0.9-1.25,1.19s-1.06,0.44-1.7,0.44c-0.68,0-1.23-0.16-1.65-0.46
		c-0.42-0.31-0.7-0.71-0.85-1.22H1.26l-0.93,4.69H0L2.26,22.94z M3.81,30.93c0.92,0,1.67-0.31,2.25-0.94
		c0.58-0.63,0.98-1.47,1.19-2.53l0.11-0.56c0.03-0.18,0.06-0.36,0.07-0.54c0.02-0.18,0.02-0.38,0.02-0.6c0-0.37-0.04-0.72-0.14-1.05
		S7.09,24.1,6.9,23.86c-0.19-0.25-0.42-0.44-0.7-0.58c-0.28-0.14-0.62-0.22-1.02-0.22c-0.34,0-0.65,0.05-0.93,0.14
		c-0.28,0.1-0.56,0.26-0.83,0.5c-0.31,0.26-0.61,0.6-0.89,1.02c-0.28,0.43-0.48,0.92-0.6,1.49l-0.45,2.27
		c-0.05,0.27-0.05,0.54,0.01,0.83c0.06,0.29,0.18,0.55,0.36,0.79c0.18,0.24,0.43,0.44,0.75,0.59S3.33,30.93,3.81,30.93z"/>
	<path d="M13.94,31.23c-0.43,0-0.8-0.08-1.14-0.22s-0.61-0.36-0.83-0.62c-0.22-0.27-0.39-0.57-0.51-0.92s-0.18-0.72-0.18-1.13
		c0-0.75,0.08-1.46,0.26-2.14c0.17-0.68,0.42-1.27,0.76-1.78s0.75-0.92,1.25-1.22s1.07-0.45,1.74-0.45c0.43,0,0.8,0.08,1.14,0.22
		c0.33,0.15,0.61,0.36,0.83,0.62c0.22,0.27,0.39,0.58,0.51,0.93c0.12,0.35,0.18,0.73,0.18,1.12c0,0.75-0.08,1.46-0.26,2.14
		s-0.42,1.27-0.76,1.78c-0.34,0.51-0.75,0.92-1.25,1.22S14.6,31.23,13.94,31.23z M13.97,30.93c0.91,0,1.65-0.31,2.23-0.93
		c0.58-0.62,0.98-1.47,1.19-2.56l0.13-0.64c0.03-0.18,0.05-0.37,0.06-0.55s0.02-0.39,0.02-0.6c0-0.35-0.04-0.69-0.14-1
		s-0.23-0.59-0.42-0.82s-0.44-0.42-0.74-0.56c-0.3-0.14-0.65-0.21-1.06-0.21c-0.91,0-1.65,0.31-2.23,0.93
		c-0.58,0.62-0.98,1.47-1.19,2.56l-0.13,0.64c-0.03,0.18-0.05,0.37-0.06,0.55s-0.02,0.39-0.02,0.6c0,0.35,0.04,0.69,0.14,1
		s0.23,0.59,0.42,0.82c0.19,0.23,0.44,0.42,0.74,0.56C13.21,30.86,13.56,30.93,13.97,30.93z"/>
	<path d="M21.42,22.94h0.32l0.77,7.66h0.05l3.92-7.66h0.35l0.82,7.66h0.03l3.86-7.66h0.35l-4.1,8.1h-0.42l-0.78-7.55h-0.05
		l-3.87,7.55h-0.42L21.42,22.94z"/>
	<path d="M39.71,31.04c-0.25,0-0.37-0.1-0.37-0.3c0-0.05,0-0.1,0.01-0.13c0-0.03,0.01-0.08,0.02-0.13l0.24-1.22h-0.05
		c-0.34,0.6-0.74,1.08-1.19,1.43c-0.45,0.36-1.02,0.54-1.7,0.54c-0.42,0-0.79-0.08-1.11-0.23s-0.6-0.37-0.82-0.63
		c-0.22-0.27-0.39-0.58-0.5-0.95s-0.17-0.77-0.17-1.19c0-0.74,0.09-1.43,0.26-2.1c0.18-0.66,0.43-1.24,0.77-1.74
		c0.34-0.5,0.75-0.9,1.25-1.19c0.5-0.29,1.06-0.44,1.7-0.44c0.68,0,1.23,0.16,1.65,0.46c0.42,0.31,0.7,0.71,0.85,1.22h0.05
		l1.04-5.23h0.34l-2.3,11.54h1.36l-0.06,0.3H39.71z M36.67,30.93c0.34,0,0.65-0.05,0.93-0.14s0.55-0.26,0.83-0.5
		c0.31-0.26,0.61-0.6,0.89-1.02c0.28-0.43,0.48-0.92,0.6-1.49l0.45-2.27c0.05-0.27,0.05-0.54-0.01-0.83s-0.18-0.55-0.36-0.79
		c-0.18-0.24-0.43-0.44-0.75-0.59c-0.32-0.15-0.72-0.23-1.2-0.23c-0.92,0-1.67,0.32-2.26,0.94c-0.59,0.63-0.98,1.47-1.18,2.53
		l-0.11,0.56c-0.03,0.18-0.06,0.36-0.07,0.54c-0.02,0.18-0.02,0.38-0.02,0.6c0,0.37,0.04,0.72,0.14,1.05s0.23,0.61,0.42,0.86
		c0.19,0.25,0.42,0.44,0.7,0.58C35.94,30.86,36.28,30.93,36.67,30.93z"/>
	<path d="M47.55,31.23c-0.91,0-1.6-0.26-2.09-0.77s-0.73-1.32-0.73-2.42c0-0.74,0.1-1.43,0.29-2.07c0.19-0.64,0.46-1.21,0.81-1.68
		s0.76-0.85,1.25-1.13s1.02-0.42,1.61-0.42c0.77,0,1.38,0.18,1.84,0.53c0.46,0.35,0.69,0.83,0.69,1.44c0,0.26-0.06,0.53-0.19,0.82
		c-0.13,0.29-0.4,0.57-0.82,0.82c-0.42,0.25-1.04,0.46-1.84,0.64c-0.8,0.18-1.88,0.28-3.24,0.31c-0.01,0.08-0.02,0.2-0.03,0.35
		s-0.02,0.27-0.02,0.35c0,1.04,0.21,1.78,0.62,2.23c0.41,0.45,1.03,0.68,1.86,0.68c0.66,0,1.25-0.18,1.76-0.53
		c0.51-0.35,0.93-0.84,1.26-1.47l0.3,0.13c-0.41,0.76-0.89,1.31-1.46,1.66C48.84,31.06,48.22,31.23,47.55,31.23z M48.66,23.06
		c-0.45,0-0.86,0.09-1.25,0.27c-0.38,0.18-0.72,0.44-1.02,0.77s-0.54,0.72-0.74,1.17c-0.2,0.45-0.35,0.94-0.45,1.48l-0.05,0.27
		c1.2-0.02,2.17-0.1,2.91-0.24c0.75-0.14,1.33-0.32,1.74-0.53c0.42-0.21,0.7-0.46,0.84-0.72c0.14-0.27,0.22-0.54,0.22-0.8
		c0-0.49-0.17-0.89-0.52-1.2S49.43,23.06,48.66,23.06z"/>
	<path d="M54.27,31.04l1.62-8.1h0.34l-0.37,1.84h0.05c0.14-0.27,0.29-0.52,0.46-0.74c0.17-0.23,0.36-0.42,0.58-0.58
		s0.47-0.29,0.75-0.38c0.28-0.09,0.61-0.14,0.98-0.14h0.48l-0.06,0.32h-0.46c-0.39,0-0.76,0.08-1.1,0.24
		c-0.34,0.16-0.65,0.38-0.91,0.66c-0.27,0.28-0.49,0.61-0.67,0.99s-0.31,0.78-0.4,1.21l-0.93,4.68H54.27z"/>
	<path d="M68.99,19.2h0.34l-1.1,5.52h0.05c0.34-0.6,0.74-1.07,1.19-1.43c0.45-0.36,1.02-0.54,1.7-0.54c0.42,0,0.79,0.08,1.11,0.23
		c0.33,0.15,0.6,0.37,0.82,0.63c0.22,0.27,0.39,0.58,0.5,0.95s0.17,0.77,0.17,1.19c0,0.74-0.09,1.43-0.26,2.1
		c-0.18,0.66-0.43,1.24-0.77,1.74c-0.34,0.5-0.75,0.9-1.25,1.19s-1.06,0.44-1.7,0.44c-0.68,0-1.23-0.16-1.65-0.46
		c-0.42-0.31-0.7-0.71-0.85-1.22h-0.05l-0.29,1.49h-0.34L68.99,19.2z M69.79,30.93c0.92,0,1.67-0.31,2.25-0.94
		c0.58-0.63,0.98-1.47,1.19-2.53l0.11-0.56c0.03-0.18,0.06-0.36,0.07-0.54c0.02-0.18,0.02-0.38,0.02-0.6c0-0.37-0.05-0.72-0.14-1.05
		c-0.09-0.33-0.23-0.61-0.42-0.86c-0.19-0.25-0.42-0.44-0.7-0.58c-0.28-0.14-0.62-0.22-1.02-0.22c-0.34,0-0.65,0.05-0.93,0.14
		s-0.55,0.26-0.83,0.5c-0.31,0.26-0.61,0.6-0.89,1.02c-0.28,0.43-0.48,0.92-0.6,1.49l-0.45,2.27c-0.05,0.27-0.05,0.54,0.01,0.83
		c0.06,0.29,0.18,0.55,0.36,0.79c0.18,0.24,0.43,0.44,0.75,0.59C68.91,30.85,69.31,30.93,69.79,30.93z"/>
	<path d="M78.98,22.94l-1.02,5.12c-0.03,0.18-0.06,0.37-0.08,0.56s-0.03,0.34-0.03,0.45c0,1.24,0.61,1.86,1.82,1.86
		c0.36,0,0.73-0.07,1.1-0.22c0.37-0.14,0.71-0.4,1.03-0.78c0.18-0.21,0.37-0.48,0.57-0.8c0.2-0.32,0.34-0.72,0.44-1.2l0.99-4.99
		h0.34l-1.55,7.79h1.36l-0.06,0.3h-1.25c-0.25,0-0.37-0.1-0.37-0.3c0-0.05,0-0.1,0.01-0.13c0-0.03,0.01-0.08,0.02-0.13l0.22-1.12
		h-0.05c-0.32,0.61-0.71,1.07-1.16,1.39c-0.45,0.32-1.02,0.48-1.69,0.48c-0.68,0-1.21-0.18-1.57-0.55
		c-0.36-0.37-0.54-0.89-0.54-1.56c0-0.16,0.01-0.33,0.03-0.52c0.02-0.19,0.05-0.36,0.08-0.52l1.02-5.14H78.98z"/>
	<path d="M88.27,31.04c-0.25,0-0.37-0.1-0.37-0.3c0-0.05,0-0.1,0.01-0.13c0-0.03,0.01-0.08,0.02-0.13l1.44-7.23h-1.52l0.06-0.3h1.15
		c0.15,0,0.26-0.03,0.32-0.09c0.06-0.06,0.11-0.16,0.13-0.31l0.38-1.9h0.34l-0.46,2.3h1.94l-0.06,0.3h-1.94l-1.49,7.49h1.81
		l-0.06,0.3H88.27z"/>
	<path d="M101.63,31.23c-0.67,0-1.25-0.13-1.74-0.4s-0.9-0.66-1.24-1.17l0.29-0.19c0.61,0.97,1.5,1.46,2.69,1.46
		c0.75,0,1.35-0.18,1.8-0.54c0.45-0.36,0.68-0.88,0.68-1.55c0-0.26-0.04-0.47-0.11-0.65c-0.07-0.18-0.18-0.33-0.32-0.46
		c-0.14-0.13-0.31-0.24-0.51-0.32c-0.2-0.08-0.44-0.16-0.7-0.22l-0.8-0.21c-0.28-0.07-0.53-0.16-0.75-0.26
		c-0.22-0.1-0.42-0.23-0.58-0.38s-0.29-0.33-0.38-0.55s-0.14-0.48-0.14-0.79c0-0.37,0.07-0.7,0.22-0.98
		c0.14-0.28,0.34-0.51,0.58-0.7c0.24-0.19,0.52-0.33,0.85-0.42c0.33-0.1,0.67-0.14,1.03-0.14c0.35,0,0.66,0.04,0.93,0.1
		s0.5,0.16,0.71,0.28c0.21,0.12,0.39,0.25,0.54,0.41c0.15,0.16,0.29,0.31,0.41,0.47l-0.26,0.22c-0.22-0.32-0.51-0.6-0.86-0.83
		c-0.35-0.23-0.85-0.35-1.49-0.35c-0.7,0-1.27,0.17-1.69,0.5c-0.42,0.33-0.63,0.81-0.63,1.44c0,0.5,0.14,0.87,0.41,1.11
		c0.27,0.24,0.67,0.43,1.21,0.57l0.8,0.21c0.27,0.08,0.52,0.16,0.75,0.26c0.23,0.1,0.43,0.22,0.6,0.36c0.17,0.14,0.3,0.32,0.39,0.54
		c0.1,0.21,0.14,0.47,0.14,0.78c0,0.41-0.07,0.76-0.22,1.06c-0.14,0.3-0.34,0.55-0.6,0.75c-0.26,0.2-0.55,0.35-0.9,0.46
		C102.39,31.18,102.03,31.23,101.63,31.23z"/>
	<path d="M108.53,31.04c-0.25,0-0.37-0.1-0.37-0.3c0-0.05,0-0.1,0.01-0.13c0-0.03,0.01-0.08,0.02-0.13l1.44-7.23h-1.52l0.06-0.3
		h1.15c0.15,0,0.26-0.03,0.32-0.09c0.06-0.06,0.11-0.16,0.13-0.31l0.38-1.9h0.34l-0.46,2.3h1.94l-0.06,0.3h-1.94l-1.49,7.49h1.81
		l-0.06,0.3H108.53z"/>
	<path d="M114.64,31.04c-0.25,0-0.37-0.1-0.37-0.3c0-0.05,0-0.1,0.01-0.13c0.01-0.03,0.01-0.08,0.02-0.13l1.52-7.54h0.34l-1.57,7.79
		h1.36l-0.06,0.3H114.64z M116.54,20.27c-0.12,0-0.2-0.03-0.25-0.08c-0.05-0.05-0.07-0.11-0.07-0.18c0-0.03,0-0.06,0.01-0.1
		c0.01-0.03,0.01-0.07,0.02-0.13c0.02-0.1,0.06-0.17,0.13-0.22c0.06-0.05,0.17-0.08,0.3-0.08c0.12,0,0.2,0.03,0.25,0.08
		c0.05,0.05,0.07,0.11,0.07,0.18c0,0.03,0,0.06-0.01,0.1c-0.01,0.03-0.01,0.08-0.02,0.13c-0.02,0.1-0.06,0.17-0.13,0.22
		C116.78,20.25,116.68,20.27,116.54,20.27z"/>
	<path d="M119.98,31.04c-0.25,0-0.37-0.1-0.37-0.3c0-0.05,0-0.1,0.01-0.13c0.01-0.03,0.01-0.08,0.02-0.13l2.26-11.28h0.34
		l-2.3,11.54h1.36l-0.06,0.3H119.98z"/>
	<path d="M125.33,31.04c-0.25,0-0.37-0.1-0.37-0.3c0-0.05,0-0.1,0.01-0.13c0.01-0.03,0.01-0.08,0.02-0.13l2.26-11.28h0.34
		l-2.3,11.54h1.36l-0.06,0.3H125.33z"/>
	<path d="M137.95,19.2h0.34l-1.07,5.42h0.05c0.32-0.61,0.71-1.07,1.16-1.39c0.45-0.32,1.02-0.48,1.69-0.48
		c0.68,0,1.21,0.18,1.57,0.55c0.36,0.37,0.54,0.89,0.54,1.56c0,0.16-0.01,0.33-0.03,0.52s-0.05,0.36-0.08,0.52l-0.96,4.83h1.36
		l-0.06,0.3h-1.25c-0.25,0-0.37-0.1-0.37-0.3c0-0.05,0-0.1,0.01-0.13c0.01-0.03,0.01-0.08,0.02-0.13l0.91-4.56
		c0.03-0.18,0.06-0.37,0.08-0.56c0.02-0.19,0.03-0.34,0.03-0.45c0-1.24-0.61-1.86-1.82-1.86c-0.36,0-0.73,0.07-1.1,0.22
		c-0.37,0.14-0.71,0.4-1.03,0.78c-0.18,0.21-0.37,0.48-0.57,0.8c-0.2,0.32-0.34,0.72-0.44,1.2l-0.99,4.99h-0.34L137.95,19.2z"/>
	<path d="M148.7,31.23c-0.43,0-0.8-0.08-1.14-0.22s-0.61-0.36-0.83-0.62c-0.22-0.27-0.39-0.57-0.51-0.92s-0.18-0.72-0.18-1.13
		c0-0.75,0.08-1.46,0.26-2.14c0.17-0.68,0.42-1.27,0.76-1.78s0.75-0.92,1.25-1.22s1.07-0.45,1.74-0.45c0.43,0,0.8,0.08,1.14,0.22
		c0.33,0.15,0.61,0.36,0.83,0.62c0.22,0.27,0.39,0.58,0.51,0.93c0.12,0.35,0.18,0.73,0.18,1.12c0,0.75-0.08,1.46-0.26,2.14
		s-0.42,1.27-0.76,1.78c-0.34,0.51-0.75,0.92-1.25,1.22S149.36,31.23,148.7,31.23z M148.73,30.93c0.91,0,1.65-0.31,2.23-0.93
		c0.58-0.62,0.98-1.47,1.19-2.56l0.13-0.64c0.03-0.18,0.05-0.37,0.06-0.55s0.02-0.39,0.02-0.6c0-0.35-0.04-0.69-0.14-1
		s-0.23-0.59-0.42-0.82s-0.44-0.42-0.74-0.56c-0.3-0.14-0.65-0.21-1.06-0.21c-0.91,0-1.65,0.31-2.23,0.93
		c-0.58,0.62-0.98,1.47-1.19,2.56l-0.13,0.64c-0.03,0.18-0.05,0.37-0.06,0.55s-0.02,0.39-0.02,0.6c0,0.35,0.04,0.69,0.14,1
		s0.23,0.59,0.42,0.82c0.19,0.23,0.44,0.42,0.74,0.56C147.98,30.86,148.33,30.93,148.73,30.93z"/>
	<path d="M156.53,31.04c-0.25,0-0.37-0.1-0.37-0.3c0-0.05,0-0.1,0.01-0.13c0.01-0.03,0.01-0.08,0.02-0.13l2.26-11.28h0.34
		l-2.3,11.54h1.36l-0.06,0.3H156.53z"/>
	<path d="M167.18,31.04c-0.25,0-0.37-0.1-0.37-0.3c0-0.05,0-0.1,0.01-0.13c0-0.03,0.01-0.08,0.02-0.13l0.24-1.22h-0.05
		c-0.34,0.6-0.74,1.08-1.19,1.43c-0.45,0.36-1.02,0.54-1.7,0.54c-0.42,0-0.79-0.08-1.11-0.23s-0.6-0.37-0.82-0.63
		c-0.22-0.27-0.39-0.58-0.5-0.95s-0.17-0.77-0.17-1.19c0-0.74,0.09-1.43,0.26-2.1c0.18-0.66,0.43-1.24,0.77-1.74
		c0.34-0.5,0.75-0.9,1.25-1.19c0.5-0.29,1.06-0.44,1.7-0.44c0.68,0,1.23,0.16,1.65,0.46c0.42,0.31,0.7,0.71,0.85,1.22h0.05
		l1.04-5.23h0.34l-2.3,11.54h1.36l-0.06,0.3H167.18z M164.14,30.93c0.34,0,0.65-0.05,0.93-0.14s0.55-0.26,0.83-0.5
		c0.31-0.26,0.61-0.6,0.89-1.02c0.28-0.43,0.48-0.92,0.6-1.49l0.45-2.27c0.05-0.27,0.05-0.54-0.01-0.83s-0.18-0.55-0.36-0.79
		c-0.18-0.24-0.43-0.44-0.75-0.59c-0.32-0.15-0.72-0.23-1.2-0.23c-0.92,0-1.67,0.32-2.26,0.94c-0.59,0.63-0.98,1.47-1.18,2.53
		l-0.11,0.56c-0.03,0.18-0.06,0.36-0.07,0.54c-0.02,0.18-0.02,0.38-0.02,0.6c0,0.37,0.04,0.72,0.14,1.05s0.23,0.61,0.42,0.86
		c0.19,0.25,0.42,0.44,0.7,0.58C163.41,30.86,163.75,30.93,164.14,30.93z"/>
	<path d="M183.2,31.04c-0.25,0-0.37-0.1-0.37-0.3c0-0.05,0-0.1,0.01-0.13c0-0.03,0.01-0.08,0.02-0.13l0.24-1.22h-0.05
		c-0.34,0.6-0.74,1.08-1.19,1.43c-0.45,0.36-1.02,0.54-1.7,0.54c-0.42,0-0.79-0.08-1.11-0.23s-0.6-0.37-0.82-0.63
		c-0.22-0.27-0.39-0.58-0.5-0.95s-0.17-0.77-0.17-1.19c0-0.74,0.09-1.43,0.26-2.1c0.18-0.66,0.43-1.24,0.77-1.74
		c0.34-0.5,0.75-0.9,1.25-1.19c0.5-0.29,1.06-0.44,1.7-0.44c0.68,0,1.23,0.16,1.65,0.46c0.42,0.31,0.7,0.71,0.85,1.22h0.05
		l0.29-1.49h0.34l-1.55,7.79h1.36l-0.06,0.3H183.2z M180.16,30.93c0.34,0,0.65-0.05,0.93-0.14s0.55-0.26,0.83-0.5
		c0.31-0.26,0.61-0.6,0.89-1.02c0.28-0.43,0.48-0.92,0.6-1.49l0.45-2.27c0.05-0.27,0.05-0.54-0.01-0.83s-0.18-0.55-0.36-0.79
		c-0.18-0.24-0.43-0.44-0.75-0.59c-0.32-0.15-0.72-0.23-1.2-0.23c-0.92,0-1.67,0.32-2.26,0.94c-0.59,0.63-0.98,1.47-1.18,2.53
		l-0.11,0.56c-0.03,0.18-0.06,0.36-0.07,0.54c-0.02,0.18-0.02,0.38-0.02,0.6c0,0.37,0.04,0.72,0.14,1.05s0.23,0.61,0.42,0.86
		c0.19,0.25,0.42,0.44,0.7,0.58C179.42,30.86,179.76,30.93,180.16,30.93z"/>
	<path d="M188.09,31.04l1.62-8.1h0.34l-0.34,1.68h0.05c0.32-0.61,0.71-1.07,1.16-1.39c0.45-0.32,1.02-0.48,1.69-0.48
		c0.68,0,1.21,0.18,1.57,0.55c0.36,0.37,0.54,0.89,0.54,1.56c0,0.16-0.01,0.33-0.03,0.52c-0.02,0.19-0.05,0.36-0.08,0.52l-0.96,4.83
		h1.36l-0.06,0.3h-1.25c-0.25,0-0.37-0.1-0.37-0.3c0-0.05,0-0.1,0.01-0.13c0-0.03,0.01-0.08,0.02-0.13l0.91-4.56
		c0.03-0.18,0.06-0.37,0.08-0.56c0.02-0.19,0.03-0.34,0.03-0.45c0-1.24-0.61-1.86-1.82-1.86c-0.36,0-0.73,0.07-1.1,0.22
		c-0.37,0.14-0.71,0.4-1.03,0.78c-0.18,0.21-0.37,0.48-0.57,0.8c-0.2,0.32-0.34,0.72-0.44,1.2l-0.99,4.99H188.09z"/>
	<path d="M204.21,31.04c-0.25,0-0.37-0.1-0.37-0.3c0-0.05,0-0.1,0.01-0.13c0-0.03,0.01-0.08,0.02-0.13l0.24-1.22h-0.05
		c-0.34,0.6-0.74,1.08-1.19,1.43c-0.45,0.36-1.02,0.54-1.7,0.54c-0.42,0-0.79-0.08-1.11-0.23s-0.6-0.37-0.82-0.63
		c-0.22-0.27-0.39-0.58-0.5-0.95s-0.17-0.77-0.17-1.19c0-0.74,0.09-1.43,0.26-2.1c0.18-0.66,0.43-1.24,0.77-1.74
		c0.34-0.5,0.75-0.9,1.25-1.19c0.5-0.29,1.06-0.44,1.7-0.44c0.68,0,1.23,0.16,1.65,0.46c0.42,0.31,0.7,0.71,0.85,1.22h0.05
		l1.04-5.23h0.34l-2.3,11.54h1.36l-0.06,0.3H204.21z M201.17,30.93c0.34,0,0.65-0.05,0.93-0.14s0.55-0.26,0.83-0.5
		c0.31-0.26,0.61-0.6,0.89-1.02c0.28-0.43,0.48-0.92,0.6-1.49l0.45-2.27c0.05-0.27,0.05-0.54-0.01-0.83s-0.18-0.55-0.36-0.79
		c-0.18-0.24-0.43-0.44-0.75-0.59c-0.32-0.15-0.72-0.23-1.2-0.23c-0.92,0-1.67,0.32-2.26,0.94c-0.59,0.63-0.98,1.47-1.18,2.53
		l-0.11,0.56c-0.03,0.18-0.06,0.36-0.07,0.54c-0.02,0.18-0.02,0.38-0.02,0.6c0,0.37,0.04,0.72,0.14,1.05s0.23,0.61,0.42,0.86
		c0.19,0.25,0.42,0.44,0.7,0.58C200.43,30.86,200.77,30.93,201.17,30.93z"/>
	<path d="M3.57,50.43c-0.91,0-1.6-0.26-2.09-0.77s-0.73-1.32-0.73-2.42c0-0.74,0.1-1.43,0.29-2.07c0.19-0.64,0.46-1.21,0.81-1.68
		s0.76-0.85,1.25-1.13s1.02-0.42,1.61-0.42c0.77,0,1.38,0.18,1.84,0.53c0.46,0.35,0.69,0.83,0.69,1.44c0,0.26-0.06,0.53-0.19,0.82
		c-0.13,0.29-0.4,0.57-0.82,0.82c-0.42,0.25-1.04,0.46-1.84,0.64c-0.8,0.18-1.88,0.28-3.24,0.31c-0.01,0.08-0.02,0.2-0.03,0.35
		s-0.02,0.27-0.02,0.35c0,1.04,0.21,1.78,0.62,2.23c0.41,0.45,1.03,0.68,1.86,0.68c0.66,0,1.25-0.18,1.76-0.53
		c0.51-0.35,0.93-0.84,1.26-1.47l0.3,0.13C6.49,49.01,6,49.57,5.43,49.91C4.86,50.26,4.24,50.43,3.57,50.43z M4.67,42.26
		c-0.45,0-0.86,0.09-1.25,0.27c-0.38,0.18-0.72,0.44-1.02,0.77s-0.54,0.72-0.74,1.17c-0.2,0.45-0.35,0.94-0.45,1.48l-0.05,0.27
		c1.2-0.02,2.17-0.1,2.91-0.24c0.75-0.14,1.33-0.32,1.74-0.53c0.42-0.21,0.7-0.46,0.84-0.72c0.14-0.27,0.22-0.54,0.22-0.8
		c0-0.49-0.17-0.89-0.52-1.2S5.45,42.26,4.67,42.26z"/>
	<path d="M16.05,50.24c-0.25,0-0.37-0.1-0.37-0.3c0-0.05,0-0.1,0.01-0.13c0-0.03,0.01-0.08,0.02-0.13l0.24-1.22H15.9
		c-0.34,0.6-0.74,1.08-1.19,1.43c-0.45,0.36-1.02,0.54-1.7,0.54c-0.42,0-0.79-0.08-1.11-0.23s-0.6-0.37-0.82-0.63
		c-0.22-0.27-0.39-0.58-0.5-0.95s-0.17-0.77-0.17-1.19c0-0.74,0.09-1.43,0.26-2.1c0.18-0.66,0.43-1.24,0.77-1.74
		c0.34-0.5,0.75-0.9,1.25-1.19c0.5-0.29,1.06-0.44,1.7-0.44c0.68,0,1.23,0.16,1.65,0.46c0.42,0.31,0.7,0.71,0.85,1.22h0.05
		l1.04-5.23h0.34L16,49.94h1.36l-0.06,0.3H16.05z M13.01,50.13c0.34,0,0.65-0.05,0.93-0.14s0.55-0.26,0.83-0.5
		c0.31-0.26,0.61-0.6,0.89-1.02c0.28-0.43,0.48-0.92,0.6-1.49l0.45-2.27c0.05-0.27,0.05-0.54-0.01-0.83s-0.18-0.55-0.36-0.79
		c-0.18-0.24-0.43-0.44-0.75-0.59c-0.32-0.15-0.72-0.23-1.2-0.23c-0.92,0-1.67,0.32-2.26,0.94c-0.59,0.63-0.98,1.47-1.18,2.53
		l-0.11,0.56c-0.03,0.18-0.06,0.36-0.07,0.54c-0.02,0.18-0.02,0.38-0.02,0.6c0,0.37,0.04,0.72,0.14,1.05s0.23,0.61,0.42,0.86
		c0.19,0.25,0.42,0.44,0.7,0.58C12.28,50.06,12.61,50.13,13.01,50.13z"/>
	<path d="M27.14,51.12c0,0.85-0.36,1.49-1.07,1.9c-0.71,0.41-1.73,0.62-3.04,0.62c-0.98,0-1.73-0.17-2.23-0.52
		c-0.51-0.35-0.76-0.81-0.76-1.4c0-0.51,0.16-0.94,0.47-1.28c0.31-0.34,0.73-0.6,1.26-0.78V49.6c-0.19-0.05-0.34-0.17-0.46-0.35
		c-0.11-0.18-0.17-0.38-0.17-0.59c0-0.39,0.16-0.71,0.47-0.95s0.68-0.42,1.1-0.54l0.02-0.06c-0.38-0.18-0.68-0.44-0.88-0.77
		c-0.2-0.33-0.3-0.69-0.3-1.09c0-0.51,0.08-0.97,0.23-1.38s0.37-0.75,0.64-1.03c0.27-0.28,0.59-0.5,0.97-0.66
		c0.37-0.16,0.78-0.23,1.22-0.23c0.36,0,0.69,0.06,0.98,0.17s0.53,0.26,0.74,0.44l0.16-0.9c0.02-0.15,0.07-0.25,0.14-0.31
		c0.08-0.06,0.19-0.09,0.35-0.09h1.49l-0.05,0.3h-1.62l-0.22,1.26c0.27,0.36,0.4,0.77,0.4,1.23c0,0.51-0.08,0.97-0.23,1.38
		s-0.37,0.75-0.64,1.03c-0.27,0.28-0.59,0.5-0.97,0.66c-0.37,0.16-0.78,0.23-1.22,0.23c-0.27,0-0.51-0.03-0.74-0.1
		c-0.62,0.16-1.06,0.35-1.32,0.58s-0.39,0.5-0.39,0.81c0,0.2,0.07,0.38,0.21,0.52c0.14,0.14,0.41,0.22,0.82,0.22h2.22
		c0.85,0,1.47,0.15,1.86,0.46S27.14,50.59,27.14,51.12z M26.78,51.14c0-0.46-0.16-0.81-0.48-1.06s-0.88-0.37-1.66-0.37h-2.37
		c-0.57,0.15-1.02,0.38-1.37,0.7s-0.52,0.74-0.52,1.27c0,0.29,0.06,0.54,0.18,0.74c0.12,0.21,0.3,0.38,0.52,0.51
		c0.22,0.13,0.49,0.23,0.79,0.3c0.3,0.06,0.64,0.1,1,0.1h0.51c0.49,0,0.94-0.04,1.36-0.13c0.42-0.09,0.77-0.22,1.07-0.4
		c0.3-0.18,0.53-0.41,0.7-0.68C26.7,51.85,26.78,51.52,26.78,51.14z M23.9,47.06c0.73,0,1.31-0.2,1.76-0.58
		c0.45-0.39,0.73-0.89,0.85-1.51c0.05-0.28,0.08-0.48,0.1-0.61s0.02-0.22,0.02-0.29c0-0.52-0.17-0.96-0.52-1.3
		c-0.35-0.34-0.85-0.51-1.51-0.51c-0.73,0-1.31,0.2-1.76,0.58c-0.45,0.39-0.73,0.89-0.85,1.51c-0.05,0.28-0.08,0.48-0.1,0.61
		s-0.02,0.22-0.02,0.29c0,0.52,0.17,0.96,0.52,1.3C22.74,46.89,23.24,47.06,23.9,47.06z"/>
	<path d="M33.23,50.43c-0.91,0-1.6-0.26-2.09-0.77s-0.73-1.32-0.73-2.42c0-0.74,0.1-1.43,0.29-2.07c0.19-0.64,0.46-1.21,0.81-1.68
		s0.76-0.85,1.25-1.13s1.02-0.42,1.61-0.42c0.77,0,1.38,0.18,1.84,0.53c0.46,0.35,0.69,0.83,0.69,1.44c0,0.26-0.06,0.53-0.19,0.82
		c-0.13,0.29-0.4,0.57-0.82,0.82c-0.42,0.25-1.04,0.46-1.84,0.64c-0.8,0.18-1.88,0.28-3.24,0.31c-0.01,0.08-0.02,0.2-0.03,0.35
		s-0.02,0.27-0.02,0.35c0,1.04,0.21,1.78,0.62,2.23c0.41,0.45,1.03,0.68,1.86,0.68c0.66,0,1.25-0.18,1.76-0.53
		c0.51-0.35,0.93-0.84,1.26-1.47l0.3,0.13c-0.41,0.76-0.89,1.31-1.46,1.66C34.52,50.26,33.9,50.43,33.23,50.43z M34.34,42.26
		c-0.45,0-0.86,0.09-1.25,0.27c-0.38,0.18-0.72,0.44-1.02,0.77s-0.54,0.72-0.74,1.17c-0.2,0.45-0.35,0.94-0.45,1.48l-0.05,0.27
		c1.2-0.02,2.17-0.1,2.91-0.24c0.75-0.14,1.33-0.32,1.74-0.53c0.42-0.21,0.7-0.46,0.84-0.72c0.14-0.27,0.22-0.54,0.22-0.8
		c0-0.49-0.17-0.89-0.52-1.2S35.11,42.26,34.34,42.26z"/>
	<path d="M45.71,42.14h0.32l0.77,7.66h0.05l3.92-7.66h0.35l0.82,7.66h0.03l3.86-7.66h0.35l-4.1,8.1h-0.42l-0.78-7.55h-0.05
		l-3.87,7.55h-0.42L45.71,42.14z"/>
	<path d="M60.75,38.4h0.34l-1.07,5.42h0.05c0.32-0.61,0.71-1.07,1.16-1.39c0.45-0.32,1.02-0.48,1.69-0.48
		c0.68,0,1.21,0.18,1.57,0.55c0.36,0.37,0.54,0.89,0.54,1.56c0,0.16-0.01,0.33-0.03,0.52s-0.05,0.36-0.08,0.52l-0.96,4.83h1.36
		l-0.06,0.3H64c-0.25,0-0.37-0.1-0.37-0.3c0-0.05,0-0.1,0.01-0.13c0.01-0.03,0.01-0.08,0.02-0.13l0.91-4.56
		c0.03-0.18,0.06-0.37,0.08-0.56c0.02-0.19,0.03-0.34,0.03-0.45c0-1.24-0.61-1.86-1.82-1.86c-0.36,0-0.73,0.07-1.1,0.22
		c-0.37,0.14-0.71,0.4-1.03,0.78c-0.18,0.21-0.37,0.48-0.57,0.8c-0.2,0.32-0.34,0.72-0.44,1.2l-0.99,4.99H58.4L60.75,38.4z"/>
	<path d="M71.7,50.43c-0.91,0-1.6-0.26-2.09-0.77s-0.73-1.32-0.73-2.42c0-0.74,0.1-1.43,0.29-2.07c0.19-0.64,0.46-1.21,0.81-1.68
		s0.76-0.85,1.25-1.13s1.02-0.42,1.61-0.42c0.77,0,1.38,0.18,1.84,0.53c0.46,0.35,0.69,0.83,0.69,1.44c0,0.26-0.06,0.53-0.19,0.82
		c-0.13,0.29-0.4,0.57-0.82,0.82c-0.42,0.25-1.04,0.46-1.84,0.64c-0.8,0.18-1.88,0.28-3.24,0.31c-0.01,0.08-0.02,0.2-0.03,0.35
		s-0.02,0.27-0.02,0.35c0,1.04,0.21,1.78,0.62,2.23c0.41,0.45,1.03,0.68,1.86,0.68c0.66,0,1.25-0.18,1.76-0.53
		c0.51-0.35,0.93-0.84,1.26-1.47l0.3,0.13c-0.41,0.76-0.89,1.31-1.46,1.66C72.99,50.26,72.37,50.43,71.7,50.43z M72.8,42.26
		c-0.45,0-0.86,0.09-1.25,0.27c-0.38,0.18-0.72,0.44-1.02,0.77s-0.54,0.72-0.74,1.17c-0.2,0.45-0.35,0.94-0.45,1.48l-0.05,0.27
		c1.2-0.02,2.17-0.1,2.91-0.24c0.75-0.14,1.33-0.32,1.74-0.53c0.42-0.21,0.7-0.46,0.84-0.72c0.14-0.27,0.22-0.54,0.22-0.8
		c0-0.49-0.17-0.89-0.52-1.2S73.58,42.26,72.8,42.26z"/>
	<path d="M78.42,50.24l1.62-8.1h0.34l-0.34,1.68h0.05c0.32-0.61,0.71-1.07,1.16-1.39c0.45-0.32,1.02-0.48,1.69-0.48
		c0.68,0,1.21,0.18,1.57,0.55c0.36,0.37,0.54,0.89,0.54,1.56c0,0.16-0.01,0.33-0.03,0.52c-0.02,0.19-0.05,0.36-0.08,0.52l-0.96,4.83
		h1.36l-0.06,0.3h-1.25c-0.25,0-0.37-0.1-0.37-0.3c0-0.05,0-0.1,0.01-0.13c0-0.03,0.01-0.08,0.02-0.13l0.91-4.56
		c0.03-0.18,0.06-0.37,0.08-0.56c0.02-0.19,0.03-0.34,0.03-0.45c0-1.24-0.61-1.86-1.82-1.86c-0.36,0-0.73,0.07-1.1,0.22
		c-0.37,0.14-0.71,0.4-1.03,0.78c-0.18,0.21-0.37,0.48-0.57,0.8c-0.2,0.32-0.34,0.72-0.44,1.2l-0.99,4.99H78.42z"/>
	<path d="M94.13,50.24l1.62-8.1h0.34l-0.34,1.68h0.05c0.32-0.61,0.71-1.07,1.16-1.39c0.45-0.32,1.02-0.48,1.69-0.48
		c0.68,0,1.21,0.18,1.57,0.55c0.36,0.37,0.54,0.89,0.54,1.56c0,0.16-0.01,0.33-0.03,0.52c-0.02,0.19-0.05,0.36-0.08,0.52l-0.96,4.83
		h1.36l-0.06,0.3h-1.25c-0.25,0-0.37-0.1-0.37-0.3c0-0.05,0-0.1,0.01-0.13c0-0.03,0.01-0.08,0.02-0.13l0.91-4.56
		c0.03-0.18,0.06-0.37,0.08-0.56c0.02-0.19,0.03-0.34,0.03-0.45c0-1.24-0.61-1.86-1.82-1.86c-0.36,0-0.73,0.07-1.1,0.22
		c-0.37,0.14-0.71,0.4-1.03,0.78c-0.18,0.21-0.37,0.48-0.57,0.8c-0.2,0.32-0.34,0.72-0.44,1.2l-0.99,4.99H94.13z"/>
	<path d="M107.42,50.43c-0.91,0-1.6-0.26-2.09-0.77s-0.73-1.32-0.73-2.42c0-0.74,0.1-1.43,0.29-2.07c0.19-0.64,0.46-1.21,0.81-1.68
		s0.76-0.85,1.25-1.13s1.02-0.42,1.61-0.42c0.77,0,1.38,0.18,1.84,0.53c0.46,0.35,0.69,0.83,0.69,1.44c0,0.26-0.06,0.53-0.19,0.82
		c-0.13,0.29-0.4,0.57-0.82,0.82c-0.42,0.25-1.04,0.46-1.84,0.64c-0.8,0.18-1.88,0.28-3.24,0.31c-0.01,0.08-0.02,0.2-0.03,0.35
		s-0.02,0.27-0.02,0.35c0,1.04,0.21,1.78,0.62,2.23c0.41,0.45,1.03,0.68,1.86,0.68c0.66,0,1.25-0.18,1.76-0.53
		c0.51-0.35,0.93-0.84,1.26-1.47l0.3,0.13c-0.41,0.76-0.89,1.31-1.46,1.66C108.72,50.26,108.09,50.43,107.42,50.43z M108.53,42.26
		c-0.45,0-0.86,0.09-1.25,0.27c-0.38,0.18-0.72,0.44-1.02,0.77s-0.54,0.72-0.74,1.17c-0.2,0.45-0.35,0.94-0.45,1.48l-0.05,0.27
		c1.2-0.02,2.17-0.1,2.91-0.24c0.75-0.14,1.33-0.32,1.74-0.53c0.42-0.21,0.7-0.46,0.84-0.72c0.14-0.27,0.22-0.54,0.22-0.8
		c0-0.49-0.17-0.89-0.52-1.2S109.31,42.26,108.53,42.26z"/>
	<path d="M117.09,50.43c-0.91,0-1.6-0.26-2.09-0.77s-0.73-1.32-0.73-2.42c0-0.74,0.1-1.43,0.29-2.07c0.19-0.64,0.46-1.21,0.81-1.68
		s0.76-0.85,1.25-1.13s1.02-0.42,1.61-0.42c0.77,0,1.38,0.18,1.84,0.53c0.46,0.35,0.69,0.83,0.69,1.44c0,0.26-0.06,0.53-0.19,0.82
		c-0.13,0.29-0.4,0.57-0.82,0.82c-0.42,0.25-1.04,0.46-1.84,0.64c-0.8,0.18-1.88,0.28-3.24,0.31c-0.01,0.08-0.02,0.2-0.03,0.35
		s-0.02,0.27-0.02,0.35c0,1.04,0.21,1.78,0.62,2.23c0.41,0.45,1.03,0.68,1.86,0.68c0.66,0,1.25-0.18,1.76-0.53
		c0.51-0.35,0.93-0.84,1.26-1.47l0.3,0.13c-0.41,0.76-0.89,1.31-1.46,1.66C118.38,50.26,117.76,50.43,117.09,50.43z M118.19,42.26
		c-0.45,0-0.86,0.09-1.25,0.27c-0.38,0.18-0.72,0.44-1.02,0.77s-0.54,0.72-0.74,1.17c-0.2,0.45-0.35,0.94-0.45,1.48l-0.05,0.27
		c1.2-0.02,2.17-0.1,2.91-0.24c0.75-0.14,1.33-0.32,1.74-0.53c0.42-0.21,0.7-0.46,0.84-0.72c0.14-0.27,0.22-0.54,0.22-0.8
		c0-0.49-0.17-0.89-0.52-1.2S118.97,42.26,118.19,42.26z"/>
	<path d="M129.57,50.24c-0.25,0-0.37-0.1-0.37-0.3c0-0.05,0-0.1,0.01-0.13c0-0.03,0.01-0.08,0.02-0.13l0.24-1.22h-0.05
		c-0.34,0.6-0.74,1.08-1.19,1.43c-0.45,0.36-1.02,0.54-1.7,0.54c-0.42,0-0.79-0.08-1.11-0.23s-0.6-0.37-0.82-0.63
		c-0.22-0.27-0.39-0.58-0.5-0.95s-0.17-0.77-0.17-1.19c0-0.74,0.09-1.43,0.26-2.1c0.18-0.66,0.43-1.24,0.77-1.74
		c0.34-0.5,0.75-0.9,1.25-1.19c0.5-0.29,1.06-0.44,1.7-0.44c0.68,0,1.23,0.16,1.65,0.46c0.42,0.31,0.7,0.71,0.85,1.22h0.05
		l1.04-5.23h0.34l-2.3,11.54h1.36l-0.06,0.3H129.57z M126.53,50.13c0.34,0,0.65-0.05,0.93-0.14s0.55-0.26,0.83-0.5
		c0.31-0.26,0.61-0.6,0.89-1.02c0.28-0.43,0.48-0.92,0.6-1.49l0.45-2.27c0.05-0.27,0.05-0.54-0.01-0.83s-0.18-0.55-0.36-0.79
		c-0.18-0.24-0.43-0.44-0.75-0.59c-0.32-0.15-0.72-0.23-1.2-0.23c-0.92,0-1.67,0.32-2.26,0.94c-0.59,0.63-0.98,1.47-1.18,2.53
		l-0.11,0.56c-0.03,0.18-0.06,0.36-0.07,0.54c-0.02,0.18-0.02,0.38-0.02,0.6c0,0.37,0.04,0.72,0.14,1.05s0.23,0.61,0.42,0.86
		c0.19,0.25,0.42,0.44,0.7,0.58C125.79,50.06,126.13,50.13,126.53,50.13z"/>
	<path d="M137.41,50.43c-0.91,0-1.6-0.26-2.09-0.77s-0.73-1.32-0.73-2.42c0-0.74,0.1-1.43,0.29-2.07c0.19-0.64,0.46-1.21,0.81-1.68
		s0.76-0.85,1.25-1.13s1.02-0.42,1.61-0.42c0.77,0,1.38,0.18,1.84,0.53c0.46,0.35,0.69,0.83,0.69,1.44c0,0.26-0.06,0.53-0.19,0.82
		c-0.13,0.29-0.4,0.57-0.82,0.82c-0.42,0.25-1.04,0.46-1.84,0.64c-0.8,0.18-1.88,0.28-3.24,0.31c-0.01,0.08-0.02,0.2-0.03,0.35
		s-0.02,0.27-0.02,0.35c0,1.04,0.21,1.78,0.62,2.23c0.41,0.45,1.03,0.68,1.86,0.68c0.66,0,1.25-0.18,1.76-0.53
		c0.51-0.35,0.93-0.84,1.26-1.47l0.3,0.13c-0.41,0.76-0.89,1.31-1.46,1.66C138.7,50.26,138.08,50.43,137.41,50.43z M138.51,42.26
		c-0.45,0-0.86,0.09-1.25,0.27c-0.38,0.18-0.72,0.44-1.02,0.77s-0.54,0.72-0.74,1.17c-0.2,0.45-0.35,0.94-0.45,1.48l-0.05,0.27
		c1.2-0.02,2.17-0.1,2.91-0.24c0.75-0.14,1.33-0.32,1.74-0.53c0.42-0.21,0.7-0.46,0.84-0.72c0.14-0.27,0.22-0.54,0.22-0.8
		c0-0.49-0.17-0.89-0.52-1.2S139.29,42.26,138.51,42.26z"/>
	<path d="M149.89,50.24c-0.25,0-0.37-0.1-0.37-0.3c0-0.05,0-0.1,0.01-0.13c0-0.03,0.01-0.08,0.02-0.13l0.24-1.22h-0.05
		c-0.34,0.6-0.74,1.08-1.19,1.43c-0.45,0.36-1.02,0.54-1.7,0.54c-0.42,0-0.79-0.08-1.11-0.23s-0.6-0.37-0.82-0.63
		c-0.22-0.27-0.39-0.58-0.5-0.95s-0.17-0.77-0.17-1.19c0-0.74,0.09-1.43,0.26-2.1c0.18-0.66,0.43-1.24,0.77-1.74
		c0.34-0.5,0.75-0.9,1.25-1.19c0.5-0.29,1.06-0.44,1.7-0.44c0.68,0,1.23,0.16,1.65,0.46c0.42,0.31,0.7,0.71,0.85,1.22h0.05
		l1.04-5.23h0.34l-2.3,11.54h1.36l-0.06,0.3H149.89z M146.85,50.13c0.34,0,0.65-0.05,0.93-0.14s0.55-0.26,0.83-0.5
		c0.31-0.26,0.61-0.6,0.89-1.02c0.28-0.43,0.48-0.92,0.6-1.49l0.45-2.27c0.05-0.27,0.05-0.54-0.01-0.83s-0.18-0.55-0.36-0.79
		c-0.18-0.24-0.43-0.44-0.75-0.59c-0.32-0.15-0.72-0.23-1.2-0.23c-0.92,0-1.67,0.32-2.26,0.94c-0.59,0.63-0.98,1.47-1.18,2.53
		l-0.11,0.56c-0.03,0.18-0.06,0.36-0.07,0.54c-0.02,0.18-0.02,0.38-0.02,0.6c0,0.37,0.04,0.72,0.14,1.05s0.23,0.61,0.42,0.86
		c0.19,0.25,0.42,0.44,0.7,0.58C146.11,50.06,146.45,50.13,146.85,50.13z"/>
	<path d="M155.14,50.32c-0.16,0-0.27-0.03-0.33-0.1c-0.06-0.06-0.09-0.13-0.09-0.21c0-0.04,0-0.09,0.02-0.15s0.02-0.1,0.03-0.14
		c0.02-0.09,0.06-0.16,0.13-0.23c0.06-0.07,0.18-0.1,0.34-0.1c0.15,0,0.25,0.03,0.31,0.1c0.06,0.06,0.09,0.13,0.09,0.21
		c0,0.04-0.01,0.09-0.02,0.15s-0.02,0.1-0.03,0.14c-0.02,0.08-0.06,0.16-0.12,0.23C155.41,50.29,155.3,50.32,155.14,50.32z
		 M155.57,47.42l0.69-3.82l0.9-4.53h0.35l-0.9,4.53l-0.85,3.82H155.57z"/>
</g>
</svg>
