<!-- Generator: Adobe Illustrator 23.1.1, SVG Export Plug-In  -->
<svg version="1.1" xmlns="http://www.w3.org/2000/svg" xmlns:xlink="http://www.w3.org/1999/xlink" x="0px" y="0px" width="36.42px"
	 height="11.55px" viewBox="0 0 36.42 11.55" style="enable-background:new 0 0 36.42 11.55;" xml:space="preserve">
<defs>
</defs>
<g>
	<path d="M6.96,11.36H0l0.13-0.64l4.99-4.18c0.62-0.51,1.13-1.02,1.52-1.53c0.39-0.51,0.65-1,0.75-1.48
		c0.05-0.28,0.09-0.49,0.1-0.63s0.02-0.27,0.02-0.36c0-0.28-0.04-0.54-0.13-0.79S7.18,1.29,7,1.11C6.82,0.92,6.6,0.78,6.32,0.67
		C6.04,0.57,5.71,0.51,5.31,0.51c-0.74,0-1.35,0.17-1.86,0.52c-0.5,0.35-0.91,0.89-1.22,1.64l-0.5-0.19C2.42,0.83,3.62,0,5.36,0
		c0.46,0,0.86,0.06,1.21,0.19C6.91,0.32,7.2,0.5,7.43,0.73s0.4,0.5,0.51,0.81c0.11,0.31,0.17,0.65,0.17,1.01
		c0,0.43-0.05,0.82-0.16,1.19C7.85,4.1,7.68,4.46,7.46,4.81c-0.22,0.35-0.49,0.7-0.82,1.04C6.31,6.19,5.93,6.54,5.49,6.91
		l-4.74,3.94h6.3L6.96,11.36z"/>
	<path d="M15.1,0c0.98,0,1.71,0.32,2.18,0.95C17.76,1.59,18,2.51,18,3.73c0,0.54-0.04,1.12-0.12,1.72c-0.08,0.6-0.2,1.19-0.37,1.78
		c-0.17,0.58-0.38,1.13-0.64,1.66c-0.26,0.52-0.57,0.98-0.93,1.38s-0.77,0.71-1.24,0.94c-0.47,0.23-0.99,0.35-1.57,0.35
		c-0.98,0-1.71-0.32-2.18-0.95c-0.47-0.63-0.71-1.56-0.71-2.78c0-0.54,0.04-1.12,0.12-1.72s0.2-1.19,0.37-1.78
		c0.17-0.58,0.38-1.13,0.64-1.66c0.26-0.52,0.57-0.98,0.93-1.38c0.36-0.39,0.77-0.71,1.23-0.94C13.99,0.12,14.52,0,15.1,0z
		 M15.07,0.51c-0.97,0-1.79,0.4-2.45,1.19c-0.66,0.79-1.14,1.91-1.42,3.34l-0.22,1.12c-0.05,0.31-0.09,0.61-0.12,0.9
		c-0.03,0.29-0.04,0.56-0.04,0.82c0,0.99,0.18,1.77,0.54,2.33s0.96,0.84,1.82,0.84c0.97,0,1.79-0.4,2.45-1.19
		c0.66-0.79,1.14-1.91,1.42-3.34l0.22-1.12c0.05-0.31,0.09-0.61,0.12-0.9c0.03-0.29,0.04-0.56,0.04-0.82c0-0.99-0.18-1.77-0.54-2.33
		C16.53,0.79,15.93,0.51,15.07,0.51z"/>
	<path d="M26.16,11.36H19.2l0.13-0.64l4.99-4.18c0.62-0.51,1.13-1.02,1.52-1.53c0.39-0.51,0.65-1,0.75-1.48
		c0.05-0.28,0.09-0.49,0.1-0.63s0.02-0.27,0.02-0.36c0-0.28-0.04-0.54-0.13-0.79s-0.22-0.46-0.39-0.64
		c-0.18-0.18-0.4-0.33-0.68-0.43c-0.28-0.11-0.61-0.16-1.01-0.16c-0.74,0-1.35,0.17-1.86,0.52c-0.5,0.35-0.91,0.89-1.22,1.64
		l-0.5-0.19C21.62,0.83,22.82,0,24.56,0c0.46,0,0.86,0.06,1.21,0.19c0.35,0.13,0.63,0.31,0.86,0.54s0.4,0.5,0.51,0.81
		c0.11,0.31,0.17,0.65,0.17,1.01c0,0.43-0.05,0.82-0.16,1.19c-0.11,0.37-0.27,0.73-0.49,1.08c-0.22,0.35-0.49,0.7-0.82,1.04
		c-0.33,0.34-0.71,0.69-1.15,1.05l-4.74,3.94h6.3L26.16,11.36z"/>
	<path d="M29.02,11.36l0.1-0.51h3.42l2.03-10.22h-0.06l-3.82,2.83l-0.3-0.4l3.87-2.86h0.99l-2.13,10.66h3.3l-0.11,0.51H29.02z"/>
</g>
</svg>
