<!-- Generator: Adobe Illustrator 23.1.1, SVG Export Plug-In  -->
<svg version="1.1" xmlns="http://www.w3.org/2000/svg" xmlns:xlink="http://www.w3.org/1999/xlink" x="0px" y="0px" width="77.51px"
	 height="8.66px" viewBox="0 0 77.51 8.66" style="enable-background:new 0 0 77.51 8.66;" xml:space="preserve">
<style type="text/css">
	.st0{fill:url(#SVGID_1_);}
	.st1{fill:url(#SVGID_2_);}
	.st2{fill:url(#SVGID_3_);}
	.st3{fill:url(#SVGID_4_);}
	.st4{fill:url(#SVGID_5_);}
	.st5{fill:url(#SVGID_6_);}
	.st6{fill:url(#SVGID_7_);}
	.st7{fill:url(#SVGID_8_);}
	.st8{fill:url(#SVGID_9_);}
	.st9{fill:url(#SVGID_10_);}
	.st10{fill:url(#SVGID_11_);}
	.st11{fill:url(#SVGID_12_);}
	.st12{fill:url(#SVGID_13_);}
	.st13{fill:url(#SVGID_14_);}
	.st14{fill:url(#SVGID_15_);}
	.st15{fill:url(#SVGID_16_);}
	.st16{fill:url(#SVGID_17_);}
	.st17{fill:url(#SVGID_18_);}
	.st18{fill:url(#SVGID_19_);}
	.st19{fill:url(#SVGID_20_);}
</style>
<defs>
</defs>
<g>
	<linearGradient id="SVGID_1_" gradientUnits="userSpaceOnUse" x1="0" y1="4.332" x2="5.5562" y2="4.332">
		<stop  offset="0.2814" style="stop-color:#2CCDD5"/>
		<stop  offset="1" style="stop-color:#1E1E1E"/>
	</linearGradient>
	<path class="st0" d="M0,8.52V0.14h5.56v1.62H1.82v1.7H5v1.62H1.82v3.43H0z"/>
	<linearGradient id="SVGID_2_" gradientUnits="userSpaceOnUse" x1="6.9722" y1="4.4041" x2="13.5483" y2="4.4041">
		<stop  offset="0.2814" style="stop-color:#2CCDD5"/>
		<stop  offset="1" style="stop-color:#1E1E1E"/>
	</linearGradient>
	<path class="st1" d="M8.75,0.14v5.14c0,0.59,0.12,1.03,0.35,1.33s0.62,0.44,1.16,0.44s0.93-0.15,1.16-0.44
		c0.23-0.29,0.35-0.73,0.35-1.33V0.14h1.78v4.94c0,0.62-0.06,1.15-0.17,1.6c-0.12,0.45-0.31,0.82-0.57,1.12s-0.6,0.51-1.02,0.65
		c-0.42,0.14-0.92,0.21-1.52,0.21S9.15,8.59,8.74,8.45C8.32,8.31,7.98,8.1,7.72,7.81C7.45,7.51,7.26,7.14,7.15,6.69
		C7.03,6.24,6.97,5.7,6.97,5.09V0.14H8.75z"/>
	<linearGradient id="SVGID_3_" gradientUnits="userSpaceOnUse" x1="15.3477" y1="4.332" x2="20.3638" y2="4.332">
		<stop  offset="0.2814" style="stop-color:#2CCDD5"/>
		<stop  offset="1" style="stop-color:#1E1E1E"/>
	</linearGradient>
	<path class="st2" d="M15.35,8.52V0.14h1.82V6.9h3.19v1.62H15.35z"/>
	<linearGradient id="SVGID_4_" gradientUnits="userSpaceOnUse" x1="21.7075" y1="4.332" x2="26.7236" y2="4.332">
		<stop  offset="0.2814" style="stop-color:#2CCDD5"/>
		<stop  offset="1" style="stop-color:#1E1E1E"/>
	</linearGradient>
	<path class="st3" d="M21.71,8.52V0.14h1.82V6.9h3.19v1.62H21.71z"/>
	<linearGradient id="SVGID_5_" gradientUnits="userSpaceOnUse" x1="30.8994" y1="4.332" x2="37.5234" y2="4.332">
		<stop  offset="0.2814" style="stop-color:#2CCDD5"/>
		<stop  offset="1" style="stop-color:#1E1E1E"/>
	</linearGradient>
	<path class="st4" d="M32.72,8.52H30.9V0.14h3.97c0.38,0,0.73,0.06,1.04,0.19s0.58,0.31,0.8,0.55c0.22,0.24,0.39,0.52,0.51,0.85
		s0.18,0.69,0.18,1.09c0,0.57-0.13,1.06-0.38,1.49s-0.63,0.73-1.15,0.92l1.64,3.29H35.5l-1.46-3.07h-1.31V8.52z M34.64,3.91
		c0.27,0,0.49-0.07,0.64-0.21c0.16-0.14,0.23-0.35,0.23-0.62V2.56c0-0.27-0.08-0.48-0.23-0.62c-0.16-0.14-0.37-0.21-0.64-0.21h-1.92
		v2.18H34.64z"/>
	<linearGradient id="SVGID_6_" gradientUnits="userSpaceOnUse" x1="38.5435" y1="4.332" x2="45.9111" y2="4.332">
		<stop  offset="0.2814" style="stop-color:#2CCDD5"/>
		<stop  offset="1" style="stop-color:#1E1E1E"/>
	</linearGradient>
	<path class="st5" d="M42.23,8.66c-0.55,0-1.06-0.09-1.51-0.28c-0.46-0.18-0.84-0.46-1.16-0.82c-0.32-0.36-0.57-0.82-0.74-1.36
		c-0.18-0.54-0.26-1.17-0.26-1.88s0.09-1.34,0.26-1.88c0.18-0.54,0.42-0.99,0.74-1.36c0.32-0.36,0.71-0.64,1.16-0.82
		C41.17,0.09,41.68,0,42.23,0c0.55,0,1.06,0.09,1.51,0.28c0.46,0.18,0.84,0.46,1.16,0.82c0.32,0.36,0.57,0.82,0.74,1.36
		c0.18,0.54,0.26,1.17,0.26,1.88s-0.09,1.34-0.26,1.88c-0.18,0.54-0.42,0.99-0.74,1.36c-0.32,0.36-0.71,0.64-1.16,0.82
		C43.28,8.57,42.78,8.66,42.23,8.66z M42.23,7.04c0.55,0,0.98-0.18,1.29-0.54c0.31-0.36,0.46-0.88,0.46-1.55V3.71
		c0-0.67-0.15-1.19-0.46-1.55c-0.31-0.36-0.74-0.54-1.29-0.54c-0.55,0-0.98,0.18-1.29,0.54c-0.31,0.36-0.46,0.88-0.46,1.55v1.25
		c0,0.67,0.15,1.19,0.46,1.55C41.25,6.86,41.68,7.04,42.23,7.04z"/>
	<linearGradient id="SVGID_7_" gradientUnits="userSpaceOnUse" x1="47.1113" y1="4.332" x2="53.9751" y2="4.332">
		<stop  offset="0.2814" style="stop-color:#2CCDD5"/>
		<stop  offset="1" style="stop-color:#1E1E1E"/>
	</linearGradient>
	<path class="st6" d="M50.82,8.66c-0.57,0-1.08-0.09-1.54-0.27s-0.84-0.45-1.16-0.8c-0.32-0.36-0.57-0.8-0.74-1.33
		c-0.18-0.53-0.26-1.15-0.26-1.87c0-0.7,0.09-1.33,0.26-1.88c0.18-0.55,0.42-1.01,0.74-1.38c0.32-0.37,0.71-0.65,1.16-0.85
		S50.25,0,50.82,0c0.78,0,1.42,0.16,1.92,0.47s0.91,0.81,1.21,1.49l-1.57,0.82c-0.11-0.35-0.29-0.63-0.52-0.85
		c-0.24-0.21-0.58-0.32-1.04-0.32c-0.54,0-0.97,0.17-1.29,0.52C49.21,2.49,49.04,3,49.04,3.66V5c0,0.66,0.16,1.17,0.49,1.52
		c0.32,0.35,0.75,0.52,1.29,0.52c0.45,0,0.81-0.12,1.07-0.37s0.47-0.54,0.59-0.88l1.49,0.86c-0.31,0.64-0.72,1.13-1.23,1.48
		S51.6,8.66,50.82,8.66z"/>
	<linearGradient id="SVGID_8_" gradientUnits="userSpaceOnUse" x1="55.2471" y1="4.332" x2="62.5312" y2="4.332">
		<stop  offset="0.2814" style="stop-color:#2CCDD5"/>
		<stop  offset="1" style="stop-color:#1E1E1E"/>
	</linearGradient>
	<path class="st7" d="M58.16,4.87l-1.09,1.32v2.33h-1.82V0.14h1.82v3.98h0.07l1.19-1.62l1.88-2.36h2.06l-2.82,3.44l3.07,4.93h-2.15
		L58.16,4.87z"/>
	<linearGradient id="SVGID_9_" gradientUnits="userSpaceOnUse" x1="63.5991" y1="4.332" x2="69.2993" y2="4.332">
		<stop  offset="0.2814" style="stop-color:#2CCDD5"/>
		<stop  offset="1" style="stop-color:#1E1E1E"/>
	</linearGradient>
	<path class="st8" d="M63.6,8.52V0.14h5.7v1.62h-3.88v1.7h3.32v1.62h-3.32V6.9h3.88v1.62H63.6z"/>
	<linearGradient id="SVGID_10_" gradientUnits="userSpaceOnUse" x1="70.8828" y1="4.332" x2="77.5068" y2="4.332">
		<stop  offset="0.2814" style="stop-color:#2CCDD5"/>
		<stop  offset="1" style="stop-color:#1E1E1E"/>
	</linearGradient>
	<path class="st9" d="M72.71,8.52h-1.82V0.14h3.97c0.38,0,0.73,0.06,1.04,0.19s0.58,0.31,0.8,0.55c0.22,0.24,0.39,0.52,0.51,0.85
		s0.18,0.69,0.18,1.09c0,0.57-0.13,1.06-0.38,1.49s-0.63,0.73-1.15,0.92l1.64,3.29h-2.03l-1.46-3.07h-1.31V8.52z M74.63,3.91
		c0.27,0,0.49-0.07,0.64-0.21c0.16-0.14,0.23-0.35,0.23-0.62V2.56c0-0.27-0.08-0.48-0.23-0.62c-0.16-0.14-0.37-0.21-0.64-0.21h-1.92
		v2.18H74.63z"/>
</g>
</svg>
