<!-- Generator: Adobe Illustrator 23.1.1, SVG Export Plug-In  -->
<svg version="1.1" xmlns="http://www.w3.org/2000/svg" xmlns:xlink="http://www.w3.org/1999/xlink" x="0px" y="0px" width="13.64px"
	 height="8.66px" viewBox="0 0 13.64 8.66" style="enable-background:new 0 0 13.64 8.66;" xml:space="preserve">
<style type="text/css">
	.st0{fill:#FFFFFF;}
</style>
<defs>
</defs>
<g>
	<path class="st0" d="M3.23,8.66c-1.1,0-1.91-0.38-2.44-1.14C0.26,6.76,0,5.7,0,4.33S0.26,1.9,0.79,1.14C1.32,0.38,2.13,0,3.23,0
		c1.1,0,1.91,0.38,2.44,1.14C6.19,1.9,6.46,2.96,6.46,4.33S6.19,6.76,5.66,7.52C5.14,8.28,4.32,8.66,3.23,8.66z M3.23,7.14
		c0.48,0,0.81-0.18,1-0.53C4.41,6.26,4.5,5.76,4.5,5.12V3.54c0-0.64-0.09-1.14-0.28-1.49c-0.18-0.35-0.52-0.53-1-0.53
		c-0.48,0-0.81,0.18-1,0.53C2.05,2.4,1.96,2.9,1.96,3.54v1.58c0,0.64,0.09,1.14,0.28,1.49C2.42,6.96,2.75,7.14,3.23,7.14z"/>
	<path class="st0" d="M10.87,8.52V6.91H7.19V5.36l3.26-5.22h2.14v5.36h1.06v1.4h-1.06v1.61H10.87z M8.63,5.51h2.24V2h-0.12
		L8.63,5.51z"/>
</g>
</svg>
