<!-- Generator: Adobe Illustrator 23.1.1, SVG Export Plug-In  -->
<svg version="1.1" xmlns="http://www.w3.org/2000/svg" xmlns:xlink="http://www.w3.org/1999/xlink" x="0px" y="0px" width="14.98px"
	 height="8.66px" viewBox="0 0 14.98 8.66" style="enable-background:new 0 0 14.98 8.66;" xml:space="preserve">
<style type="text/css">
	.st0{fill:#FFFFFF;}
</style>
<defs>
</defs>
<g>
	<path class="st0" d="M3.23,8.66c-1.1,0-1.91-0.38-2.44-1.14S0,5.7,0,4.33C0,2.96,0.26,1.9,0.79,1.14S2.13,0,3.23,0
		c1.1,0,1.91,0.38,2.44,1.14C6.19,1.9,6.46,2.96,6.46,4.33c0,1.37-0.26,2.43-0.79,3.19C5.14,8.28,4.32,8.66,3.23,8.66z M3.23,7.14
		c0.48,0,0.81-0.18,1-0.53C4.41,6.26,4.5,5.76,4.5,5.12V3.54c0-0.64-0.09-1.14-0.28-1.49c-0.18-0.35-0.52-0.53-1-0.53
		s-0.81,0.18-1,0.53C2.05,2.4,1.96,2.9,1.96,3.54v1.58c0,0.64,0.09,1.14,0.28,1.49C2.42,6.96,2.75,7.14,3.23,7.14z"/>
	<path class="st0" d="M9.14,8.52V7.07h2.26V1.45h-0.11l-1.7,2.23l-1.15-0.9l2-2.64h2.76v6.92h1.78v1.45H9.14z"/>
</g>
</svg>
