<!-- Generator: Adobe Illustrator 23.1.1, SVG Export Plug-In  -->
<svg version="1.1" xmlns="http://www.w3.org/2000/svg" xmlns:xlink="http://www.w3.org/1999/xlink" x="0px" y="0px" width="80.48px"
	 height="11.55px" viewBox="0 0 80.48 11.55" style="enable-background:new 0 0 80.48 11.55;" xml:space="preserve">
<defs>
</defs>
<g>
	<path d="M0,11.36V0.19h6.66v1.18H1.34v3.74h4.85V6.3H1.34v5.06H0z"/>
	<path d="M10.29,11.36H8.94V0.19h4.45c0.98,0,1.75,0.27,2.3,0.82s0.82,1.33,0.82,2.35c0,0.82-0.19,1.5-0.57,2.02
		c-0.38,0.53-0.94,0.88-1.67,1.05l2.56,4.93h-1.52l-2.42-4.8h-2.61V11.36z M13.39,5.41c0.53,0,0.95-0.14,1.24-0.42
		c0.29-0.28,0.44-0.67,0.44-1.18V2.98c0-0.51-0.15-0.91-0.44-1.18s-0.71-0.42-1.24-0.42h-3.1v4.03H13.39z"/>
	<path d="M19.18,11.36V0.19H26v1.18h-5.47v3.74h5.15V6.3h-5.15v3.87H26v1.18H19.18z"/>
	<path d="M28.51,11.36V0.19h6.82v1.18h-5.47v3.74h5.15V6.3h-5.15v3.87h5.47v1.18H28.51z"/>
	<path d="M40.98,11.55c-0.91,0-1.68-0.17-2.32-0.52c-0.64-0.35-1.18-0.82-1.63-1.43l0.99-0.83c0.39,0.52,0.83,0.92,1.31,1.19
		s1.05,0.41,1.7,0.41c0.8,0,1.41-0.19,1.83-0.58c0.42-0.38,0.63-0.9,0.63-1.54c0-0.53-0.16-0.94-0.48-1.23
		c-0.32-0.29-0.85-0.52-1.58-0.69l-0.91-0.21c-1.02-0.23-1.81-0.59-2.34-1.06s-0.81-1.14-0.81-2.01c0-0.49,0.09-0.93,0.27-1.31
		c0.18-0.38,0.43-0.7,0.76-0.96c0.33-0.26,0.71-0.45,1.17-0.58c0.45-0.13,0.95-0.2,1.5-0.2c0.84,0,1.56,0.15,2.17,0.46
		c0.6,0.31,1.11,0.76,1.53,1.36l-1.01,0.74c-0.31-0.43-0.68-0.76-1.12-1.01c-0.44-0.25-0.98-0.37-1.63-0.37
		c-0.71,0-1.28,0.15-1.69,0.46c-0.41,0.3-0.62,0.76-0.62,1.37c0,0.53,0.17,0.94,0.52,1.21s0.87,0.49,1.58,0.65l0.91,0.21
		c1.1,0.25,1.89,0.62,2.38,1.12c0.49,0.5,0.74,1.17,0.74,2c0,0.51-0.09,0.98-0.26,1.39c-0.18,0.42-0.43,0.77-0.76,1.06
		c-0.33,0.29-0.73,0.51-1.21,0.67C42.11,11.47,41.57,11.55,40.98,11.55z"/>
	<path d="M50.69,1.38v9.98h-1.34V1.38h-3.55V0.19h8.45v1.18H50.69z"/>
	<path d="M58.72,11.36V6.94l-3.84-6.75h1.54l2.98,5.38h0.05l2.98-5.38h1.54l-3.89,6.7v4.46H58.72z"/>
	<path d="M65.65,11.36V0.19h1.34v9.98h4.75v1.18H65.65z"/>
	<path d="M73.66,11.36V0.19h6.82v1.18h-5.47v3.74h5.15V6.3h-5.15v3.87h5.47v1.18H73.66z"/>
</g>
</svg>
