<!-- Generator: Adobe Illustrator 23.1.1, SVG Export Plug-In  -->
<svg version="1.1" xmlns="http://www.w3.org/2000/svg" xmlns:xlink="http://www.w3.org/1999/xlink" x="0px" y="0px" width="16.45px"
	 height="10.69px" viewBox="0 0 16.45 10.69" style="enable-background:new 0 0 16.45 10.69;" xml:space="preserve">
<defs>
</defs>
<g>
	<path d="M4.38,8.88V6.96H0V6.71l4.32-6.2h0.3v6.22h1.42v0.24H4.62v1.92H4.38z M0.26,6.72h4.12V0.84H4.36L0.26,6.72z"/>
	<path d="M6.79,10.69L9.65,0h0.24L7.03,10.69H6.79z"/>
	<path d="M16.16,0.74h-3.88L12,4.75l0.04,0.01c0.24-0.31,0.52-0.53,0.84-0.65c0.32-0.12,0.71-0.19,1.16-0.19
		c0.77,0,1.36,0.22,1.78,0.67s0.63,1.06,0.63,1.85c0,0.4-0.06,0.76-0.17,1.08S16,8.11,15.78,8.33s-0.48,0.39-0.79,0.51
		c-0.31,0.12-0.65,0.18-1.04,0.18c-0.58,0-1.09-0.1-1.51-0.31s-0.77-0.53-1.05-0.97l0.22-0.13c0.26,0.41,0.57,0.71,0.95,0.89
		s0.84,0.28,1.39,0.28c0.35,0,0.66-0.05,0.94-0.16c0.27-0.11,0.5-0.26,0.69-0.45c0.19-0.19,0.33-0.42,0.43-0.68
		c0.1-0.26,0.15-0.55,0.15-0.86V6.29c0-0.63-0.18-1.14-0.54-1.54c-0.36-0.39-0.89-0.59-1.58-0.59c-0.26,0-0.48,0.02-0.68,0.05
		c-0.2,0.03-0.37,0.08-0.53,0.16c-0.16,0.07-0.3,0.16-0.43,0.26S12.16,4.86,12.04,5l-0.28-0.04l0.31-4.46h4.09V0.74z"/>
</g>
</svg>
