<!-- Generator: Adobe Illustrator 23.1.1, SVG Export Plug-In  -->
<svg version="1.1" xmlns="http://www.w3.org/2000/svg" xmlns:xlink="http://www.w3.org/1999/xlink" x="0px" y="0px" width="58.9px"
	 height="12.05px" viewBox="0 0 58.9 12.05" style="enable-background:new 0 0 58.9 12.05;" xml:space="preserve">
<style type="text/css">
	.st0{fill:none;stroke:#000000;stroke-width:0.5;}
</style>
<defs>
</defs>
<g>
	<path class="st0" d="M4.58,11.8c-0.98,0-1.81-0.17-2.5-0.5s-1.26-0.77-1.74-1.31l1.6-1.62c0.76,0.85,1.69,1.27,2.8,1.27
		c0.6,0,1.04-0.12,1.33-0.36S6.5,8.71,6.5,8.31C6.5,8,6.42,7.75,6.25,7.54C6.08,7.33,5.73,7.19,5.21,7.12L4.1,6.98
		C2.92,6.83,2.05,6.47,1.5,5.9C0.95,5.34,0.68,4.59,0.68,3.65c0-0.5,0.1-0.96,0.29-1.38S1.43,1.49,1.79,1.2
		C2.15,0.9,2.59,0.66,3.1,0.5c0.52-0.17,1.11-0.25,1.77-0.25c0.84,0,1.58,0.13,2.22,0.4c0.64,0.27,1.19,0.66,1.65,1.17L7.13,3.46
		C6.86,3.15,6.54,2.9,6.16,2.7C5.78,2.51,5.3,2.41,4.73,2.41c-0.54,0-0.95,0.1-1.22,0.29s-0.4,0.45-0.4,0.79
		c0,0.38,0.1,0.65,0.31,0.82S3.97,4.6,4.44,4.67l1.1,0.18C6.7,5.03,7.55,5.39,8.1,5.92c0.55,0.53,0.83,1.28,0.83,2.25
		c0,0.53-0.1,1.02-0.29,1.47c-0.19,0.45-0.47,0.83-0.84,1.15c-0.37,0.32-0.82,0.57-1.37,0.74S5.28,11.8,4.58,11.8z"/>
	<path class="st0" d="M10.52,11.61V9.67h1.44v-7.3h-1.44V0.44h5.31v1.94h-1.44v7.3h1.44v1.94H10.52z"/>
	<path class="st0" d="M17.86,11.61V0.44h7.6V2.6H20.3v2.27h4.43v2.16H20.3v2.42h5.17v2.16H17.86z"/>
	<path class="st0" d="M30.01,11.61h-2.43V0.44h5.3c0.51,0,0.98,0.09,1.39,0.26c0.42,0.17,0.77,0.41,1.06,0.73
		c0.29,0.31,0.52,0.69,0.68,1.13c0.16,0.44,0.24,0.92,0.24,1.46c0,0.76-0.17,1.42-0.5,1.98c-0.34,0.57-0.85,0.98-1.53,1.23
		l2.19,4.38h-2.7l-1.95-4.1h-1.74V11.61z M32.57,5.47c0.36,0,0.65-0.09,0.86-0.28s0.31-0.46,0.31-0.82v-0.7
		c0-0.36-0.1-0.64-0.31-0.82s-0.49-0.28-0.86-0.28h-2.56v2.91H32.57z"/>
	<path class="st0" d="M40.79,11.61h-2.43V0.44h5.3c0.51,0,0.98,0.09,1.39,0.26c0.42,0.17,0.77,0.41,1.06,0.73
		c0.29,0.31,0.52,0.69,0.68,1.13c0.16,0.44,0.24,0.92,0.24,1.46c0,0.76-0.17,1.42-0.5,1.98C46.19,6.56,45.68,6.97,45,7.23l2.19,4.38
		h-2.7l-1.95-4.1h-1.74V11.61z M43.35,5.47c0.36,0,0.65-0.09,0.86-0.28s0.31-0.46,0.31-0.82v-0.7c0-0.36-0.1-0.64-0.31-0.82
		s-0.49-0.28-0.86-0.28h-2.56v2.91H43.35z"/>
	<path class="st0" d="M56.02,11.61l-0.8-2.66H51.5l-0.8,2.66h-2.46l3.68-11.17h3.01l3.63,11.17H56.02z M53.38,2.65H53.3l-1.23,4.24
		h2.56L53.38,2.65z"/>
</g>
</svg>
