<!-- Generator: Adobe Illustrator 23.1.1, SVG Export Plug-In  -->
<svg version="1.1" xmlns="http://www.w3.org/2000/svg" xmlns:xlink="http://www.w3.org/1999/xlink" x="0px" y="0px" width="79.48px"
	 height="8.66px" viewBox="0 0 79.48 8.66" style="enable-background:new 0 0 79.48 8.66;" xml:space="preserve">
<style type="text/css">
	.st0{fill:#FFFFFF;}
</style>
<defs>
</defs>
<g>
	<path class="st0" d="M0,0.14h3.16c0.55,0,1.06,0.09,1.51,0.26c0.46,0.18,0.84,0.44,1.16,0.79C6.15,1.54,6.4,1.98,6.58,2.5
		c0.18,0.52,0.26,1.13,0.26,1.83c0,0.7-0.09,1.31-0.26,1.83C6.4,6.69,6.15,7.12,5.83,7.47C5.51,7.82,5.12,8.08,4.67,8.26
		C4.21,8.43,3.71,8.52,3.16,8.52H0V0.14z M3.16,6.9c0.54,0,0.97-0.15,1.28-0.46c0.31-0.3,0.47-0.79,0.47-1.46v-1.3
		c0-0.67-0.16-1.16-0.47-1.46S3.7,1.76,3.16,1.76H1.82V6.9H3.16z"/>
	<path class="st0" d="M9.55,8.52V0.14h5.7v1.62h-3.88v1.7h3.32v1.62h-3.32V6.9h3.88v1.62H9.55z"/>
	<path class="st0" d="M23.18,8.52l-0.6-1.99h-2.8l-0.6,1.99h-1.85l2.76-8.38h2.26l2.72,8.38H23.18z M21.2,1.8h-0.06l-0.92,3.18h1.92
		L21.2,1.8z"/>
	<path class="st0" d="M30.14,1.76v6.76h-1.82V1.76h-2.27V0.14h6.36v1.62H30.14z"/>
	<path class="st0" d="M39.86,5.09h-3.19v3.43h-1.82V0.14h1.82v3.32h3.19V0.14h1.82v8.38h-1.82V5.09z"/>
	<path class="st0" d="M46.04,8.52l-1.9-8.38h1.8l0.79,4.02l0.44,2.33h0.04l0.53-2.33l0.92-4.02h1.99l0.94,4.02l0.52,2.33h0.04
		l0.44-2.33l0.8-4.02h1.73l-1.94,8.38h-2.08l-1.06-4.54l-0.41-1.84h-0.04l-0.42,1.84l-1.06,4.54H46.04z"/>
	<path class="st0" d="M57.26,8.52V7.07h1.08V1.6h-1.08V0.14h3.98V1.6h-1.08v5.47h1.08v1.45H57.26z"/>
	<path class="st0" d="M66.67,8.66c-0.74,0-1.36-0.13-1.87-0.38c-0.51-0.25-0.95-0.58-1.31-0.98l1.2-1.21
		c0.57,0.63,1.27,0.95,2.1,0.95c0.45,0,0.78-0.09,1-0.27c0.22-0.18,0.32-0.42,0.32-0.73c0-0.23-0.06-0.42-0.19-0.58
		s-0.39-0.26-0.78-0.32l-0.83-0.11c-0.89-0.11-1.54-0.38-1.95-0.8c-0.41-0.42-0.62-0.99-0.62-1.69c0-0.38,0.07-0.72,0.22-1.03
		s0.35-0.58,0.62-0.81c0.27-0.22,0.6-0.4,0.98-0.52S66.39,0,66.89,0c0.63,0,1.19,0.1,1.67,0.3s0.89,0.49,1.24,0.88L68.58,2.4
		c-0.2-0.23-0.44-0.42-0.73-0.56c-0.28-0.15-0.64-0.22-1.07-0.22c-0.41,0-0.71,0.07-0.91,0.21c-0.2,0.14-0.3,0.34-0.3,0.59
		c0,0.29,0.08,0.49,0.23,0.62c0.16,0.13,0.41,0.22,0.76,0.27l0.83,0.13c0.86,0.14,1.5,0.4,1.92,0.8s0.62,0.96,0.62,1.69
		c0,0.4-0.07,0.77-0.22,1.11c-0.14,0.34-0.35,0.62-0.63,0.87c-0.28,0.24-0.62,0.43-1.03,0.56C67.66,8.6,67.19,8.66,66.67,8.66z"/>
	<path class="st0" d="M77.65,5.09h-3.19v3.43h-1.82V0.14h1.82v3.32h3.19V0.14h1.82v8.38h-1.82V5.09z"/>
</g>
</svg>
