<!-- Generator: Adobe Illustrator 23.1.1, SVG Export Plug-In  -->
<svg version="1.1" xmlns="http://www.w3.org/2000/svg" xmlns:xlink="http://www.w3.org/1999/xlink" x="0px" y="0px" width="53.08px"
	 height="8.66px" viewBox="0 0 53.08 8.66" style="enable-background:new 0 0 53.08 8.66;" xml:space="preserve">
<style type="text/css">
	.st0{fill:#FFFFFF;}
</style>
<defs>
</defs>
<g>
	<path class="st0" d="M1.9,8.52L0,0.14h1.8l0.79,4.02l0.44,2.33h0.04L3.6,4.16l0.92-4.02h1.99l0.94,4.02l0.52,2.33H8l0.44-2.33
		l0.8-4.02h1.73L9.04,8.52H6.96L5.9,3.98L5.5,2.15H5.46L5.04,3.98L3.98,8.52H1.9z"/>
	<path class="st0" d="M11.93,8.52V7.07h1.08V1.6h-1.08V0.14h3.98V1.6h-1.08v5.47h1.08v1.45H11.93z"/>
	<path class="st0" d="M17.44,8.52V0.14h1.82V6.9h3.19v1.62H17.44z"/>
	<path class="st0" d="M23.8,0.14h3.16c0.55,0,1.06,0.09,1.51,0.26c0.46,0.18,0.84,0.44,1.16,0.79c0.32,0.35,0.57,0.78,0.74,1.31
		s0.26,1.13,0.26,1.83s-0.09,1.31-0.26,1.83s-0.42,0.96-0.74,1.31c-0.32,0.35-0.71,0.61-1.16,0.79c-0.46,0.18-0.96,0.26-1.51,0.26
		H23.8V0.14z M26.95,6.9c0.54,0,0.97-0.15,1.28-0.46c0.31-0.3,0.47-0.79,0.47-1.46v-1.3c0-0.67-0.16-1.16-0.47-1.46
		c-0.31-0.3-0.74-0.46-1.28-0.46h-1.33V6.9H26.95z"/>
	<path class="st0" d="M35.54,8.66c-0.57,0-1.08-0.09-1.54-0.27c-0.46-0.18-0.84-0.45-1.16-0.8c-0.32-0.36-0.57-0.8-0.74-1.33
		c-0.18-0.53-0.26-1.15-0.26-1.87c0-0.7,0.09-1.33,0.26-1.88c0.18-0.55,0.42-1.01,0.74-1.38c0.32-0.37,0.71-0.65,1.16-0.85
		C34.46,0.1,34.98,0,35.54,0c0.78,0,1.42,0.16,1.92,0.47c0.5,0.32,0.91,0.81,1.21,1.49L37.1,2.78c-0.11-0.35-0.29-0.63-0.52-0.85
		C36.35,1.73,36,1.62,35.54,1.62c-0.54,0-0.97,0.17-1.29,0.52C33.93,2.49,33.77,3,33.77,3.66V5c0,0.66,0.16,1.17,0.49,1.52
		c0.32,0.35,0.75,0.52,1.29,0.52c0.45,0,0.81-0.12,1.07-0.37c0.27-0.24,0.47-0.54,0.59-0.88l1.49,0.86
		c-0.31,0.64-0.72,1.13-1.23,1.48C36.96,8.49,36.32,8.66,35.54,8.66z"/>
	<path class="st0" d="M45.04,8.52l-0.6-1.99h-2.8l-0.6,1.99h-1.85l2.76-8.38h2.26l2.72,8.38H45.04z M43.06,1.8H43l-0.92,3.18h1.92
		L43.06,1.8z"/>
	<path class="st0" d="M50.81,1.76v6.76h-1.82V1.76h-2.27V0.14h6.36v1.62H50.81z"/>
</g>
</svg>
