<!-- Generator: Adobe Illustrator 23.1.1, SVG Export Plug-In  -->
<svg version="1.1" xmlns="http://www.w3.org/2000/svg" xmlns:xlink="http://www.w3.org/1999/xlink" x="0px" y="0px" width="39.9px"
	 height="8.66px" viewBox="0 0 39.9 8.66" style="enable-background:new 0 0 39.9 8.66;" xml:space="preserve">
<style type="text/css">
	.st0{fill:#FFFFFF;}
</style>
<defs>
</defs>
<g>
	<path class="st0" d="M0.44,8.52V7.63h2.34V0.89H2.7L0.59,2.86L0,2.22l2.22-2.08h1.57v7.49h2.16v0.89H0.44z"/>
	<path class="st0" d="M8.69,8.52l3.2-7.51H8.32v1.56h-0.9V0.14h5.5v0.89L9.77,8.52H8.69z"/>
	<path class="st0" d="M18.29,8.52V6.88h-4.04V5.99l3.5-5.84h1.5v5.89h1.21v0.84h-1.21v1.64H18.29z M15.19,6.04h3.1V0.92h-0.06
		L15.19,6.04z"/>
	<path class="st0" d="M27.89,8.66c-1.06,0-1.89-0.36-2.48-1.09c-0.59-0.72-0.89-1.79-0.89-3.2s0.3-2.49,0.89-3.25S26.82,0,27.89,0
		c0.7,0,1.29,0.16,1.77,0.47s0.85,0.77,1.11,1.35l-0.82,0.49c-0.17-0.43-0.42-0.78-0.77-1.04c-0.34-0.26-0.78-0.39-1.3-0.39
		c-0.36,0-0.68,0.07-0.97,0.2c-0.28,0.14-0.52,0.33-0.72,0.58s-0.35,0.55-0.45,0.9c-0.1,0.35-0.16,0.74-0.16,1.17v1.25
		c0,0.87,0.2,1.55,0.6,2.04c0.4,0.49,0.96,0.73,1.69,0.73c0.54,0,0.98-0.14,1.34-0.41c0.36-0.28,0.62-0.64,0.79-1.1l0.8,0.5
		c-0.26,0.59-0.64,1.06-1.14,1.39S28.59,8.66,27.89,8.66z"/>
	<path class="st0" d="M38.92,1.46h-0.06l-0.71,1.4l-2,3.65l-2-3.65l-0.71-1.4h-0.06v7.06h-0.98V0.14h1.34l2.4,4.51h0.06l2.41-4.51
		h1.3v8.38h-0.98V1.46z"/>
</g>
</svg>
