<!-- Generator: Adobe Illustrator 23.1.1, SVG Export Plug-In  -->
<svg version="1.1" xmlns="http://www.w3.org/2000/svg" xmlns:xlink="http://www.w3.org/1999/xlink" x="0px" y="0px"
	 width="169.93px" height="10.69px" viewBox="0 0 169.93 10.69" style="enable-background:new 0 0 169.93 10.69;"
	 xml:space="preserve">
<defs>
</defs>
<g>
	<path d="M5.84,8.88l-0.6-1.99h-2.8l-0.6,1.99H0L2.76,0.5h2.26l2.72,8.38H5.84z M3.86,2.16H3.8L2.88,5.34H4.8L3.86,2.16z"/>
	<path d="M12.8,9.02c-0.74,0-1.36-0.13-1.87-0.38c-0.51-0.25-0.95-0.58-1.31-0.98l1.2-1.21c0.57,0.63,1.27,0.95,2.1,0.95
		c0.45,0,0.78-0.09,1-0.27c0.22-0.18,0.32-0.42,0.32-0.73c0-0.23-0.06-0.42-0.19-0.58s-0.39-0.26-0.78-0.32l-0.83-0.11
		c-0.89-0.11-1.54-0.38-1.95-0.8c-0.41-0.42-0.62-0.99-0.62-1.69c0-0.38,0.07-0.72,0.22-1.03s0.35-0.58,0.62-0.81
		c0.27-0.22,0.6-0.4,0.98-0.52s0.83-0.19,1.33-0.19c0.63,0,1.19,0.1,1.67,0.3s0.89,0.49,1.24,0.88l-1.21,1.23
		c-0.2-0.23-0.44-0.42-0.73-0.56c-0.28-0.15-0.64-0.22-1.07-0.22c-0.41,0-0.71,0.07-0.91,0.21c-0.2,0.14-0.3,0.34-0.3,0.59
		c0,0.29,0.08,0.49,0.23,0.62c0.16,0.13,0.41,0.22,0.76,0.27l0.83,0.13c0.86,0.14,1.5,0.4,1.92,0.8s0.62,0.96,0.62,1.69
		c0,0.4-0.07,0.77-0.22,1.11c-0.14,0.34-0.35,0.62-0.63,0.87c-0.28,0.24-0.62,0.43-1.03,0.56C13.79,8.96,13.32,9.02,12.8,9.02z"/>
	<path d="M18.77,8.88V0.5h3.96c0.39,0,0.74,0.07,1.06,0.2s0.58,0.31,0.8,0.55c0.22,0.23,0.39,0.51,0.51,0.85s0.18,0.69,0.18,1.09
		c0,0.4-0.06,0.76-0.18,1.09c-0.12,0.33-0.29,0.61-0.51,0.84c-0.22,0.23-0.49,0.41-0.8,0.55s-0.66,0.2-1.06,0.2h-2.14v3.02H18.77z
		 M20.59,4.27h1.92c0.27,0,0.49-0.07,0.64-0.21c0.16-0.14,0.23-0.35,0.23-0.62V2.92c0-0.27-0.08-0.48-0.23-0.62
		C23,2.16,22.78,2.09,22.51,2.09h-1.92V4.27z"/>
	<path d="M27.83,8.88V0.5h5.7v1.62h-3.88v1.7h3.32v1.62h-3.32v1.81h3.88v1.62H27.83z"/>
	<path d="M38.86,4.92l-0.8-1.68h-0.04v5.64H36.3V0.5h1.99l2.29,3.96l0.8,1.68h0.04V0.5h1.72v8.38h-1.99L38.86,4.92z"/>
	<path d="M45.29,10.69L48.86,0h1.46l-3.58,10.69H45.29z"/>
	<path d="M52.88,8.88V0.5h3.96c0.39,0,0.74,0.07,1.06,0.2s0.58,0.31,0.8,0.55c0.22,0.23,0.39,0.51,0.51,0.85s0.18,0.69,0.18,1.09
		c0,0.4-0.06,0.76-0.18,1.09c-0.12,0.33-0.29,0.61-0.51,0.84c-0.22,0.23-0.49,0.41-0.8,0.55s-0.66,0.2-1.06,0.2h-2.14v3.02H52.88z
		 M54.71,4.27h1.92c0.27,0,0.49-0.07,0.64-0.21c0.16-0.14,0.23-0.35,0.23-0.62V2.92c0-0.27-0.08-0.48-0.23-0.62
		c-0.16-0.14-0.37-0.21-0.64-0.21h-1.92V4.27z"/>
	<path d="M61.62,8.88V7.43h1.08V1.96h-1.08V0.5h3.98v1.45h-1.08v5.47h1.08v1.45H61.62z"/>
	<path d="M70.87,4.92l-0.8-1.68h-0.04v5.64h-1.72V0.5h1.99l2.29,3.96l0.8,1.68h0.04V0.5h1.72v8.38h-1.99L70.87,4.92z"/>
	<path d="M78.19,8.88V0.5h5.7v1.62h-3.88v1.7h3.32v1.62h-3.32v1.81h3.88v1.62H78.19z"/>
	<path d="M92,8.88l-1.9-8.38h1.8l0.79,4.02l0.44,2.33h0.04l0.53-2.33l0.92-4.02h1.99l0.94,4.02l0.52,2.33h0.04l0.44-2.33l0.8-4.02
		h1.73l-1.94,8.38h-2.08l-1.06-4.54L95.6,2.51h-0.04l-0.42,1.84l-1.06,4.54H92z"/>
	<path d="M106.63,9.02c-0.55,0-1.06-0.09-1.51-0.28c-0.46-0.18-0.84-0.46-1.16-0.82s-0.57-0.82-0.74-1.36
		c-0.18-0.54-0.26-1.17-0.26-1.88c0-0.71,0.09-1.34,0.26-1.88c0.18-0.54,0.42-0.99,0.74-1.36s0.71-0.64,1.16-0.82
		c0.46-0.18,0.96-0.28,1.51-0.28c0.55,0,1.06,0.09,1.51,0.28c0.46,0.18,0.84,0.46,1.16,0.82s0.57,0.82,0.74,1.36
		c0.18,0.54,0.26,1.17,0.26,1.88c0,0.71-0.09,1.34-0.26,1.88c-0.18,0.54-0.42,0.99-0.74,1.36s-0.71,0.64-1.16,0.82
		C107.69,8.93,107.18,9.02,106.63,9.02z M106.63,7.4c0.55,0,0.98-0.18,1.29-0.54c0.31-0.36,0.46-0.88,0.46-1.55V4.07
		c0-0.67-0.15-1.19-0.46-1.55c-0.31-0.36-0.74-0.54-1.29-0.54c-0.55,0-0.98,0.18-1.29,0.54c-0.31,0.36-0.46,0.88-0.46,1.55v1.25
		c0,0.67,0.15,1.19,0.46,1.55C105.65,7.22,106.08,7.4,106.63,7.4z"/>
	<path d="M116.39,9.02c-0.55,0-1.06-0.09-1.51-0.28c-0.46-0.18-0.84-0.46-1.16-0.82s-0.57-0.82-0.74-1.36
		c-0.18-0.54-0.26-1.17-0.26-1.88c0-0.71,0.09-1.34,0.26-1.88c0.18-0.54,0.42-0.99,0.74-1.36s0.71-0.64,1.16-0.82
		c0.46-0.18,0.96-0.28,1.51-0.28c0.55,0,1.06,0.09,1.51,0.28c0.46,0.18,0.84,0.46,1.16,0.82s0.57,0.82,0.74,1.36
		c0.18,0.54,0.26,1.17,0.26,1.88c0,0.71-0.09,1.34-0.26,1.88c-0.18,0.54-0.42,0.99-0.74,1.36s-0.71,0.64-1.16,0.82
		C117.44,8.93,116.94,9.02,116.39,9.02z M116.39,7.4c0.55,0,0.98-0.18,1.29-0.54c0.31-0.36,0.46-0.88,0.46-1.55V4.07
		c0-0.67-0.15-1.19-0.46-1.55c-0.31-0.36-0.74-0.54-1.29-0.54c-0.55,0-0.98,0.18-1.29,0.54c-0.31,0.36-0.46,0.88-0.46,1.55v1.25
		c0,0.67,0.15,1.19,0.46,1.55C115.41,7.22,115.84,7.4,116.39,7.4z"/>
	<path d="M122.78,0.5h3.16c0.55,0,1.06,0.09,1.51,0.26c0.46,0.18,0.84,0.44,1.16,0.79c0.32,0.35,0.57,0.78,0.74,1.31
		c0.18,0.52,0.26,1.13,0.26,1.83c0,0.7-0.09,1.31-0.26,1.83c-0.18,0.52-0.42,0.96-0.74,1.31c-0.32,0.35-0.71,0.61-1.16,0.79
		c-0.46,0.18-0.96,0.26-1.51,0.26h-3.16V0.5z M125.94,7.26c0.54,0,0.97-0.15,1.28-0.46c0.31-0.3,0.47-0.79,0.47-1.46v-1.3
		c0-0.67-0.16-1.16-0.47-1.46s-0.74-0.46-1.28-0.46h-1.33v5.14H125.94z"/>
	<path d="M139.74,9.02c-0.57,0-1.08-0.09-1.54-0.27s-0.84-0.45-1.16-0.8c-0.32-0.36-0.57-0.8-0.74-1.33
		c-0.18-0.53-0.26-1.15-0.26-1.87c0-0.7,0.09-1.33,0.26-1.88c0.18-0.55,0.42-1.01,0.74-1.38s0.71-0.65,1.16-0.85
		c0.46-0.19,0.97-0.29,1.54-0.29c0.78,0,1.42,0.16,1.92,0.47s0.91,0.81,1.21,1.49l-1.57,0.82c-0.11-0.35-0.29-0.63-0.52-0.85
		c-0.24-0.21-0.58-0.32-1.04-0.32c-0.54,0-0.97,0.17-1.29,0.52c-0.32,0.35-0.49,0.85-0.49,1.52v1.34c0,0.66,0.16,1.17,0.49,1.52
		c0.32,0.35,0.75,0.52,1.29,0.52c0.45,0,0.81-0.12,1.07-0.37s0.47-0.54,0.59-0.88l1.49,0.86c-0.31,0.64-0.72,1.13-1.23,1.48
		S140.52,9.02,139.74,9.02z"/>
	<path d="M148.56,9.02c-0.55,0-1.06-0.09-1.51-0.28c-0.46-0.18-0.84-0.46-1.16-0.82s-0.57-0.82-0.74-1.36
		c-0.18-0.54-0.26-1.17-0.26-1.88c0-0.71,0.09-1.34,0.26-1.88c0.18-0.54,0.42-0.99,0.74-1.36s0.71-0.64,1.16-0.82
		c0.46-0.18,0.96-0.28,1.51-0.28c0.55,0,1.06,0.09,1.51,0.28c0.46,0.18,0.84,0.46,1.16,0.82s0.57,0.82,0.74,1.36
		c0.18,0.54,0.26,1.17,0.26,1.88c0,0.71-0.09,1.34-0.26,1.88c-0.18,0.54-0.42,0.99-0.74,1.36s-0.71,0.64-1.16,0.82
		C149.62,8.93,149.11,9.02,148.56,9.02z M148.56,7.4c0.55,0,0.98-0.18,1.29-0.54c0.31-0.36,0.46-0.88,0.46-1.55V4.07
		c0-0.67-0.15-1.19-0.46-1.55c-0.31-0.36-0.74-0.54-1.29-0.54c-0.55,0-0.98,0.18-1.29,0.54c-0.31,0.36-0.46,0.88-0.46,1.55v1.25
		c0,0.67,0.15,1.19,0.46,1.55C147.58,7.22,148.01,7.4,148.56,7.4z"/>
	<path d="M156.78,8.88h-1.82V0.5h3.97c0.38,0,0.73,0.06,1.04,0.19s0.58,0.31,0.8,0.55c0.22,0.24,0.39,0.52,0.51,0.85
		s0.18,0.69,0.18,1.09c0,0.57-0.13,1.06-0.38,1.49s-0.63,0.73-1.15,0.92l1.64,3.29h-2.03l-1.46-3.07h-1.31V8.88z M158.7,4.27
		c0.27,0,0.49-0.07,0.64-0.21c0.16-0.14,0.23-0.35,0.23-0.62V2.92c0-0.27-0.08-0.48-0.23-0.62c-0.16-0.14-0.37-0.21-0.64-0.21h-1.92
		v2.18H158.7z"/>
	<path d="M164.23,8.88V0.5h5.7v1.62h-3.88v1.7h3.32v1.62h-3.32v1.81h3.88v1.62H164.23z"/>
</g>
</svg>
