<!-- Generator: Adobe Illustrator 23.1.1, SVG Export Plug-In  -->
<svg version="1.1" xmlns="http://www.w3.org/2000/svg" xmlns:xlink="http://www.w3.org/1999/xlink" x="0px" y="0px" width="14.63px"
	 height="8.66px" viewBox="0 0 14.63 8.66" style="enable-background:new 0 0 14.63 8.66;" xml:space="preserve">
<style type="text/css">
	.st0{fill:#FFFFFF;}
</style>
<defs>
</defs>
<g>
	<path class="st0" d="M3.23,8.66c-1.1,0-1.91-0.38-2.44-1.14S0,5.7,0,4.33C0,2.96,0.26,1.9,0.79,1.14S2.13,0,3.23,0
		c1.1,0,1.91,0.38,2.44,1.14C6.19,1.9,6.46,2.96,6.46,4.33c0,1.37-0.26,2.43-0.79,3.19C5.14,8.28,4.32,8.66,3.23,8.66z M3.23,7.14
		c0.48,0,0.81-0.18,1-0.53C4.41,6.26,4.5,5.76,4.5,5.12V3.54c0-0.64-0.09-1.14-0.28-1.49c-0.18-0.35-0.52-0.53-1-0.53
		s-0.81,0.18-1,0.53C2.05,2.4,1.96,2.9,1.96,3.54v1.58c0,0.64,0.09,1.14,0.28,1.49C2.42,6.96,2.75,7.14,3.23,7.14z"/>
	<path class="st0" d="M14.63,8.52H8.7V6.88l2.58-2.21c0.23-0.2,0.43-0.38,0.59-0.55c0.16-0.16,0.29-0.32,0.39-0.48
		c0.1-0.16,0.17-0.31,0.22-0.46s0.07-0.32,0.07-0.49V2.52c0-0.16-0.03-0.3-0.1-0.42c-0.06-0.12-0.15-0.22-0.25-0.3
		s-0.22-0.14-0.35-0.18c-0.13-0.04-0.27-0.06-0.4-0.06c-0.2,0-0.37,0.03-0.52,0.1c-0.15,0.06-0.28,0.15-0.38,0.26
		c-0.11,0.11-0.2,0.23-0.27,0.37c-0.07,0.14-0.13,0.29-0.17,0.45l-1.57-0.6c0.1-0.29,0.23-0.56,0.4-0.82s0.38-0.49,0.63-0.68
		c0.25-0.2,0.55-0.35,0.89-0.46C10.78,0.06,11.17,0,11.6,0c0.46,0,0.86,0.06,1.21,0.19s0.65,0.3,0.89,0.53s0.43,0.49,0.56,0.8
		s0.19,0.64,0.19,1S14.4,3.21,14.28,3.5C14.16,3.8,14,4.08,13.79,4.34c-0.2,0.26-0.44,0.51-0.71,0.74
		c-0.27,0.23-0.56,0.47-0.85,0.71l-1.56,1.22h3.96V8.52z"/>
</g>
</svg>
