<!-- Generator: Adobe Illustrator 23.1.1, SVG Export Plug-In  -->
<svg version="1.1" xmlns="http://www.w3.org/2000/svg" xmlns:xlink="http://www.w3.org/1999/xlink" x="0px" y="0px" width="39.9px"
	 height="8.66px" viewBox="0 0 39.9 8.66" style="enable-background:new 0 0 39.9 8.66;" xml:space="preserve">
<style type="text/css">
	.st0{fill:#FFFFFF;}
</style>
<defs>
</defs>
<g>
	<path class="st0" d="M0.44,8.52V7.63h2.34V0.89H2.7L0.59,2.86L0,2.22l2.22-2.08h1.57v7.49h2.16v0.89H0.44z"/>
	<path class="st0" d="M8.69,8.52l3.2-7.51H8.32v1.56h-0.9V0.14h5.5v0.89L9.77,8.52H8.69z"/>
	<path class="st0" d="M20.18,3.22c0,0.62-0.09,1.21-0.28,1.76c-0.18,0.55-0.42,1.05-0.71,1.5s-0.61,0.85-0.97,1.2
		c-0.35,0.35-0.7,0.63-1.03,0.85h-1.3c0.45-0.33,0.85-0.65,1.2-0.96c0.35-0.31,0.66-0.64,0.92-0.98c0.26-0.34,0.49-0.7,0.67-1.09
		c0.18-0.39,0.33-0.82,0.44-1.31l-0.06-0.02c-0.2,0.34-0.46,0.63-0.77,0.86c-0.32,0.23-0.73,0.34-1.24,0.34
		c-0.36,0-0.69-0.06-1-0.18c-0.3-0.12-0.56-0.29-0.78-0.52s-0.39-0.5-0.51-0.81c-0.12-0.32-0.19-0.68-0.19-1.08
		c0-0.41,0.07-0.78,0.2-1.12s0.32-0.63,0.56-0.88c0.24-0.24,0.54-0.43,0.88-0.57C16.57,0.07,16.95,0,17.38,0
		c0.43,0,0.82,0.07,1.17,0.22c0.35,0.15,0.64,0.36,0.89,0.64c0.24,0.28,0.43,0.61,0.56,1.01C20.12,2.27,20.18,2.72,20.18,3.22z
		 M17.39,4.51c0.55,0,0.98-0.15,1.29-0.46c0.31-0.3,0.46-0.74,0.46-1.31v-0.1c0-0.57-0.15-1-0.46-1.31
		c-0.31-0.3-0.74-0.46-1.29-0.46c-0.55,0-0.98,0.15-1.29,0.46c-0.31,0.3-0.46,0.74-0.46,1.31v0.1c0,0.57,0.15,1,0.46,1.31
		C16.41,4.36,16.84,4.51,17.39,4.51z"/>
	<path class="st0" d="M27.89,8.66c-1.06,0-1.89-0.36-2.48-1.09c-0.59-0.72-0.89-1.79-0.89-3.2s0.3-2.49,0.89-3.25S26.82,0,27.89,0
		c0.7,0,1.29,0.16,1.77,0.47s0.85,0.77,1.11,1.35l-0.82,0.49c-0.17-0.43-0.42-0.78-0.77-1.04c-0.34-0.26-0.78-0.39-1.3-0.39
		c-0.36,0-0.68,0.07-0.97,0.2c-0.28,0.14-0.52,0.33-0.72,0.58s-0.35,0.55-0.45,0.9c-0.1,0.35-0.16,0.74-0.16,1.17v1.25
		c0,0.87,0.2,1.55,0.6,2.04c0.4,0.49,0.96,0.73,1.69,0.73c0.54,0,0.98-0.14,1.34-0.41c0.36-0.28,0.62-0.64,0.79-1.1l0.8,0.5
		c-0.26,0.59-0.64,1.06-1.14,1.39S28.59,8.66,27.89,8.66z"/>
	<path class="st0" d="M38.92,1.46h-0.06l-0.71,1.4l-2,3.65l-2-3.65l-0.71-1.4h-0.06v7.06h-0.98V0.14h1.34l2.4,4.51h0.06l2.41-4.51
		h1.3v8.38h-0.98V1.46z"/>
</g>
</svg>
