<!-- Generator: Adobe Illustrator 23.1.1, SVG Export Plug-In  -->
<svg version="1.1" xmlns="http://www.w3.org/2000/svg" xmlns:xlink="http://www.w3.org/1999/xlink" x="0px" y="0px" width="49.6px"
	 height="8.66px" viewBox="0 0 49.6 8.66" style="enable-background:new 0 0 49.6 8.66;" xml:space="preserve">
<style type="text/css">
	.st0{fill:#FFFFFF;}
</style>
<defs>
</defs>
<g>
	<path class="st0" d="M3.18,8.66c-0.74,0-1.36-0.13-1.87-0.38C0.8,8.03,0.36,7.71,0,7.31l1.2-1.21c0.57,0.63,1.27,0.95,2.1,0.95
		c0.45,0,0.78-0.09,1-0.27c0.22-0.18,0.32-0.42,0.32-0.73c0-0.23-0.06-0.42-0.19-0.58S4.04,5.21,3.65,5.15L2.82,5.05
		c-0.89-0.11-1.54-0.38-1.95-0.8C0.46,3.82,0.25,3.25,0.25,2.55c0-0.38,0.07-0.72,0.22-1.03s0.35-0.58,0.62-0.81
		c0.27-0.22,0.6-0.4,0.98-0.52S2.9,0,3.4,0c0.63,0,1.19,0.1,1.67,0.3S5.96,0.79,6.3,1.18L5.09,2.4c-0.2-0.23-0.44-0.42-0.73-0.56
		C4.08,1.69,3.72,1.62,3.29,1.62c-0.41,0-0.71,0.07-0.91,0.21c-0.2,0.14-0.3,0.34-0.3,0.59c0,0.29,0.08,0.49,0.23,0.62
		c0.16,0.13,0.41,0.22,0.76,0.27L3.9,3.45c0.86,0.14,1.5,0.4,1.92,0.8s0.62,0.96,0.62,1.69c0,0.4-0.07,0.77-0.22,1.11
		C6.08,7.38,5.87,7.67,5.6,7.91C5.32,8.15,4.98,8.33,4.57,8.47C4.16,8.6,3.7,8.66,3.18,8.66z"/>
	<path class="st0" d="M8.82,8.52V7.07H9.9V1.6H8.82V0.14h3.98V1.6h-1.08v5.47h1.08v1.45H8.82z"/>
	<path class="st0" d="M15.52,8.52V0.14h5.7v1.62h-3.88v1.7h3.32v1.62h-3.32V6.9h3.88v1.62H15.52z"/>
	<path class="st0" d="M25.81,8.52h-1.82V0.14h3.97c0.38,0,0.73,0.06,1.04,0.19s0.58,0.31,0.8,0.55c0.22,0.24,0.39,0.52,0.51,0.85
		s0.18,0.69,0.18,1.09c0,0.57-0.13,1.06-0.38,1.49s-0.63,0.73-1.15,0.92l1.64,3.29h-2.03l-1.46-3.07h-1.31V8.52z M27.73,3.91
		c0.27,0,0.49-0.07,0.64-0.21c0.16-0.14,0.23-0.35,0.23-0.62V2.56c0-0.27-0.08-0.48-0.23-0.62C28.22,1.8,28,1.73,27.73,1.73h-1.92
		v2.18H27.73z"/>
	<path class="st0" d="M35.09,8.52h-1.82V0.14h3.97c0.38,0,0.73,0.06,1.04,0.19s0.58,0.31,0.8,0.55c0.22,0.24,0.39,0.52,0.51,0.85
		s0.18,0.69,0.18,1.09c0,0.57-0.13,1.06-0.38,1.49s-0.63,0.73-1.15,0.92l1.64,3.29h-2.03L36.4,5.45h-1.31V8.52z M37.01,3.91
		c0.27,0,0.49-0.07,0.64-0.21c0.16-0.14,0.23-0.35,0.23-0.62V2.56c0-0.27-0.08-0.48-0.23-0.62c-0.16-0.14-0.37-0.21-0.64-0.21h-1.92
		v2.18H37.01z"/>
	<path class="st0" d="M47.7,8.52l-0.6-1.99h-2.8l-0.6,1.99h-1.85l2.76-8.38h2.26l2.72,8.38H47.7z M45.72,1.8h-0.06l-0.92,3.18h1.92
		L45.72,1.8z"/>
</g>
</svg>
