<!-- Generator: Adobe Illustrator 23.1.1, SVG Export Plug-In  -->
<svg version="1.1" xmlns="http://www.w3.org/2000/svg" xmlns:xlink="http://www.w3.org/1999/xlink" x="0px" y="0px"
	 width="120.02px" height="10.78px" viewBox="0 0 120.02 10.78" style="enable-background:new 0 0 120.02 10.78;"
	 xml:space="preserve">
<style type="text/css">
	.st0{fill:#FFFFFF;}
</style>
<defs>
</defs>
<g>
	<path class="st0" d="M0,6.34C0,5.67,0.08,5.03,0.25,4.4c0.17-0.63,0.4-1.22,0.68-1.77c0.29-0.55,0.62-1.05,1.01-1.5
		C2.33,0.68,2.74,0.3,3.17,0h0.31C3.1,0.26,2.75,0.57,2.41,0.92C2.08,1.27,1.77,1.65,1.51,2.07c-0.27,0.42-0.5,0.87-0.7,1.34
		c-0.2,0.48-0.34,0.97-0.43,1.47L0.31,5.29C0.28,5.48,0.26,5.65,0.25,5.82S0.23,6.16,0.23,6.34c0,0.9,0.11,1.71,0.34,2.44
		c0.23,0.73,0.59,1.4,1.1,2H1.42c-0.43-0.52-0.78-1.15-1.03-1.9C0.13,8.13,0,7.28,0,6.34z"/>
	<path class="st0" d="M9.46,9.12H4.25l0.06-0.29L8.26,5.5C8.7,5.13,9.08,4.76,9.38,4.38C9.68,4,9.87,3.62,9.95,3.24
		c0.06-0.25,0.09-0.43,0.1-0.53s0.01-0.19,0.01-0.26c0-0.47-0.14-0.86-0.43-1.16c-0.29-0.3-0.74-0.45-1.36-0.45
		c-0.58,0-1.08,0.13-1.48,0.4C6.39,1.5,6.07,1.92,5.83,2.51L5.6,2.44c0.25-0.63,0.6-1.1,1.04-1.39c0.45-0.3,1-0.44,1.64-0.44
		c0.34,0,0.64,0.05,0.89,0.14s0.46,0.23,0.63,0.39s0.29,0.36,0.37,0.58c0.08,0.22,0.12,0.47,0.12,0.73c0,0.31-0.04,0.6-0.11,0.87
		c-0.07,0.27-0.18,0.53-0.34,0.79C9.71,4.36,9.52,4.61,9.28,4.87C9.05,5.12,8.77,5.38,8.45,5.65L4.61,8.88h4.88L9.46,9.12z"/>
	<path class="st0" d="M17.84,9.12h-5.21l0.06-0.29l3.95-3.34c0.45-0.37,0.82-0.74,1.12-1.12c0.3-0.38,0.49-0.76,0.57-1.14
		c0.06-0.25,0.09-0.43,0.1-0.53s0.01-0.19,0.01-0.26c0-0.47-0.14-0.86-0.43-1.16c-0.29-0.3-0.74-0.45-1.36-0.45
		c-0.58,0-1.08,0.13-1.48,0.4c-0.4,0.26-0.72,0.69-0.96,1.27l-0.23-0.07c0.25-0.63,0.6-1.1,1.04-1.39c0.45-0.3,1-0.44,1.64-0.44
		c0.34,0,0.64,0.05,0.89,0.14s0.46,0.23,0.63,0.39s0.29,0.36,0.37,0.58c0.08,0.22,0.12,0.47,0.12,0.73c0,0.31-0.04,0.6-0.11,0.87
		c-0.07,0.27-0.18,0.53-0.34,0.79c-0.15,0.26-0.35,0.51-0.58,0.76c-0.24,0.25-0.51,0.51-0.83,0.79L13,8.88h4.88L17.84,9.12z"/>
	<path class="st0" d="M23.52,4.44c0,0.66-0.08,1.31-0.25,1.94c-0.17,0.63-0.4,1.22-0.68,1.77c-0.29,0.55-0.62,1.05-1.01,1.5
		c-0.38,0.45-0.79,0.82-1.22,1.13h-0.31c0.38-0.26,0.73-0.57,1.07-0.92c0.34-0.35,0.64-0.73,0.91-1.15c0.27-0.42,0.5-0.87,0.7-1.34
		c0.2-0.48,0.34-0.97,0.43-1.47l0.07-0.41c0.03-0.18,0.05-0.36,0.07-0.53s0.02-0.34,0.02-0.52c0-0.9-0.11-1.71-0.34-2.44
		c-0.23-0.73-0.59-1.4-1.1-2h0.25c0.43,0.52,0.78,1.15,1.03,1.9C23.39,2.65,23.52,3.5,23.52,4.44z"/>
	<path class="st0" d="M36.66,0.98h-3.89l-1.08,4.01L31.73,5C32,4.7,32.3,4.48,32.62,4.36c0.32-0.13,0.7-0.19,1.13-0.19
		c0.7,0,1.23,0.18,1.58,0.53c0.35,0.36,0.53,0.85,0.53,1.48c0,0.48-0.07,0.91-0.22,1.3c-0.14,0.38-0.34,0.71-0.6,0.97
		c-0.26,0.26-0.56,0.47-0.92,0.61c-0.36,0.14-0.76,0.21-1.2,0.21c-0.26,0-0.52-0.03-0.77-0.08s-0.48-0.13-0.68-0.23
		s-0.39-0.24-0.55-0.4c-0.16-0.16-0.29-0.35-0.38-0.58l0.2-0.12c0.1,0.22,0.22,0.4,0.37,0.55c0.15,0.15,0.32,0.27,0.52,0.36
		c0.19,0.09,0.4,0.16,0.61,0.2s0.44,0.06,0.67,0.06c0.75,0,1.34-0.18,1.76-0.55c0.42-0.37,0.7-0.86,0.82-1.49
		c0.05-0.24,0.08-0.42,0.09-0.53c0.01-0.11,0.02-0.2,0.02-0.28c0-0.55-0.15-0.99-0.45-1.3c-0.3-0.32-0.77-0.47-1.41-0.47
		c-0.47,0-0.86,0.07-1.16,0.21c-0.3,0.14-0.6,0.35-0.89,0.63l-0.29-0.04l1.2-4.46h4.1L36.66,0.98z"/>
	<path class="st0" d="M45.02,9.26c-0.36,0-0.68-0.03-0.96-0.1c-0.28-0.06-0.52-0.15-0.73-0.27c-0.21-0.12-0.39-0.26-0.55-0.42
		c-0.16-0.16-0.29-0.35-0.41-0.55l0.22-0.16c0.11,0.19,0.24,0.37,0.38,0.52c0.14,0.16,0.31,0.29,0.5,0.4
		c0.19,0.11,0.42,0.19,0.67,0.25c0.26,0.06,0.56,0.08,0.9,0.08c0.45,0,0.83-0.06,1.15-0.19s0.57-0.3,0.77-0.52
		c0.2-0.22,0.34-0.47,0.43-0.75c0.09-0.28,0.14-0.58,0.14-0.89c0-0.43-0.11-0.77-0.34-1.02s-0.6-0.44-1.11-0.58l-1.03-0.26
		c-0.54-0.14-0.94-0.36-1.18-0.67c-0.24-0.31-0.37-0.7-0.37-1.18c0-0.32,0.05-0.62,0.16-0.91c0.11-0.29,0.27-0.54,0.49-0.76
		c0.22-0.22,0.49-0.39,0.81-0.51c0.32-0.12,0.71-0.19,1.15-0.19c0.34,0,0.65,0.03,0.91,0.08s0.49,0.13,0.68,0.23
		c0.19,0.1,0.36,0.22,0.5,0.37c0.14,0.14,0.26,0.31,0.37,0.5l-0.22,0.13c-0.22-0.39-0.5-0.67-0.84-0.83
		c-0.34-0.16-0.81-0.24-1.4-0.24c-0.4,0-0.75,0.06-1.04,0.17c-0.29,0.12-0.53,0.27-0.73,0.46c-0.19,0.19-0.33,0.42-0.43,0.67
		c-0.09,0.26-0.14,0.53-0.14,0.82c0,0.44,0.11,0.79,0.32,1.04c0.22,0.25,0.57,0.44,1.06,0.57l1,0.26c1.11,0.3,1.67,0.91,1.67,1.84
		c0,0.35-0.05,0.69-0.16,1c-0.11,0.32-0.27,0.59-0.5,0.83c-0.22,0.24-0.51,0.42-0.86,0.56C45.92,9.2,45.5,9.26,45.02,9.26z"/>
	<path class="st0" d="M51.02,9.12c-0.18,0-0.28-0.08-0.28-0.23c0-0.04,0-0.07,0.01-0.1c0-0.02,0.01-0.06,0.02-0.1l1.08-5.42h-1.14
		l0.05-0.23h0.86c0.11,0,0.19-0.02,0.24-0.07c0.05-0.04,0.08-0.12,0.1-0.23l0.29-1.43h0.25l-0.35,1.73h1.45l-0.05,0.23H52.1
		l-1.12,5.62h1.36L52.3,9.12H51.02z"/>
	<path class="st0" d="M59.53,9.12c-0.18,0-0.28-0.08-0.28-0.23c0-0.04,0-0.07,0.01-0.1c0-0.02,0.01-0.06,0.02-0.1l0.18-0.91h-0.04
		c-0.26,0.45-0.55,0.81-0.89,1.07c-0.34,0.27-0.77,0.4-1.28,0.4c-0.31,0-0.59-0.06-0.83-0.17c-0.24-0.12-0.45-0.27-0.62-0.47
		s-0.29-0.44-0.38-0.71c-0.08-0.28-0.13-0.57-0.13-0.89c0-0.55,0.07-1.08,0.2-1.57s0.32-0.93,0.58-1.31
		c0.25-0.38,0.56-0.67,0.94-0.89c0.37-0.22,0.8-0.33,1.28-0.33c0.51,0,0.92,0.12,1.24,0.35c0.31,0.23,0.52,0.54,0.64,0.91h0.04
		l0.22-1.12h0.25L59.5,8.89h1.02l-0.05,0.23H59.53z M57.25,9.04c0.26,0,0.49-0.04,0.7-0.11c0.21-0.07,0.42-0.2,0.62-0.37
		c0.23-0.19,0.45-0.45,0.67-0.77c0.21-0.32,0.36-0.69,0.45-1.12l0.34-1.7c0.04-0.2,0.04-0.41-0.01-0.62
		c-0.04-0.22-0.13-0.41-0.27-0.59c-0.14-0.18-0.32-0.33-0.56-0.44c-0.24-0.12-0.54-0.17-0.9-0.17c-0.69,0-1.25,0.24-1.69,0.71
		c-0.44,0.47-0.74,1.1-0.89,1.9l-0.08,0.42c-0.02,0.14-0.04,0.27-0.05,0.4c-0.01,0.13-0.02,0.28-0.02,0.45
		c0,0.28,0.03,0.54,0.1,0.79c0.07,0.24,0.17,0.46,0.31,0.64c0.14,0.18,0.32,0.33,0.53,0.44S56.96,9.04,57.25,9.04z"/>
	<path class="st0" d="M63.2,9.12l1.21-6.07h0.25l-0.28,1.38h0.04c0.1-0.2,0.22-0.39,0.34-0.56c0.12-0.17,0.27-0.31,0.43-0.44
		c0.16-0.12,0.35-0.22,0.56-0.28c0.21-0.07,0.46-0.1,0.74-0.1h0.36l-0.05,0.24h-0.35c-0.3,0-0.57,0.06-0.83,0.18
		c-0.26,0.12-0.48,0.29-0.68,0.5c-0.2,0.21-0.37,0.46-0.5,0.74c-0.14,0.28-0.24,0.58-0.3,0.9l-0.7,3.51H63.2z"/>
	<path class="st0" d="M72.74,9.12h-0.26l1.68-8.38h3.01c0.58,0,1.03,0.17,1.34,0.5s0.47,0.76,0.47,1.27c0,0.87-0.22,1.55-0.67,2.02
		c-0.45,0.48-1.08,0.71-1.9,0.71l1.5,3.86h-0.28l-1.5-3.86h-2.62L72.74,9.12z M76.49,5.02c0.62,0,1.11-0.16,1.46-0.47
		c0.35-0.32,0.57-0.71,0.67-1.19c0.05-0.23,0.08-0.41,0.09-0.54c0.01-0.13,0.02-0.22,0.02-0.29c0-0.21-0.03-0.41-0.09-0.59
		s-0.15-0.35-0.28-0.49c-0.13-0.14-0.29-0.25-0.49-0.33c-0.2-0.08-0.44-0.12-0.71-0.12h-2.78l-0.79,4.03H76.49z"/>
	<path class="st0" d="M82.94,9.26c-0.68,0-1.2-0.19-1.57-0.58c-0.36-0.38-0.55-0.99-0.55-1.81c0-0.55,0.07-1.07,0.22-1.55
		c0.14-0.48,0.35-0.9,0.61-1.26c0.26-0.36,0.57-0.64,0.94-0.85c0.36-0.21,0.77-0.31,1.21-0.31c0.58,0,1.04,0.13,1.38,0.4
		c0.34,0.26,0.52,0.62,0.52,1.08c0,0.19-0.05,0.4-0.14,0.62c-0.1,0.22-0.3,0.42-0.62,0.61c-0.32,0.19-0.78,0.35-1.38,0.48
		c-0.6,0.13-1.41,0.21-2.43,0.23c-0.01,0.06-0.02,0.15-0.02,0.26c-0.01,0.11-0.01,0.2-0.01,0.26c0,0.78,0.15,1.33,0.46,1.67
		c0.31,0.34,0.77,0.51,1.4,0.51c0.5,0,0.94-0.13,1.32-0.4c0.38-0.26,0.7-0.63,0.95-1.1l0.23,0.1c-0.3,0.57-0.67,0.98-1.1,1.24
		C83.91,9.13,83.45,9.26,82.94,9.26z M83.77,3.13c-0.34,0-0.65,0.07-0.94,0.2c-0.29,0.14-0.54,0.33-0.76,0.58
		c-0.22,0.25-0.41,0.54-0.56,0.88S81.25,5.5,81.18,5.9l-0.04,0.2c0.9-0.02,1.62-0.08,2.18-0.18c0.56-0.1,1-0.24,1.31-0.4
		s0.52-0.34,0.63-0.54c0.11-0.2,0.16-0.4,0.16-0.6c0-0.37-0.13-0.67-0.39-0.9C84.78,3.25,84.35,3.13,83.77,3.13z"/>
	<path class="st0" d="M89.24,9.12l-1.08-6.07h0.24l1.02,5.78h0.04l3.28-5.78h0.28l-3.46,6.07H89.24z"/>
	<path class="st0" d="M94.97,9.12c-0.18,0-0.28-0.08-0.28-0.23c0-0.04,0-0.07,0.01-0.1c0-0.02,0.01-0.06,0.02-0.1l1.14-5.65h0.25
		l-1.18,5.84h1.02L95.9,9.12H94.97z M96.4,1.04c-0.09,0-0.15-0.02-0.19-0.06c-0.04-0.04-0.05-0.08-0.05-0.13
		c0-0.02,0-0.05,0.01-0.07s0.01-0.06,0.02-0.1c0.02-0.07,0.05-0.13,0.1-0.17c0.05-0.04,0.12-0.06,0.23-0.06
		c0.09,0,0.15,0.02,0.19,0.06c0.04,0.04,0.05,0.08,0.05,0.13c0,0.02,0,0.05-0.01,0.07c0,0.02-0.01,0.06-0.02,0.1
		c-0.02,0.07-0.05,0.13-0.1,0.17C96.58,1.02,96.5,1.04,96.4,1.04z"/>
	<path class="st0" d="M100.85,9.26c-0.68,0-1.2-0.19-1.57-0.58c-0.36-0.38-0.55-0.99-0.55-1.81c0-0.55,0.07-1.07,0.22-1.55
		c0.14-0.48,0.35-0.9,0.61-1.26c0.26-0.36,0.57-0.64,0.94-0.85c0.36-0.21,0.77-0.31,1.21-0.31c0.58,0,1.04,0.13,1.38,0.4
		c0.34,0.26,0.52,0.62,0.52,1.08c0,0.19-0.05,0.4-0.14,0.62c-0.1,0.22-0.3,0.42-0.62,0.61c-0.32,0.19-0.78,0.35-1.38,0.48
		c-0.6,0.13-1.41,0.21-2.43,0.23C99.02,6.39,99.01,6.48,99,6.59c-0.01,0.11-0.01,0.2-0.01,0.26c0,0.78,0.15,1.33,0.46,1.67
		c0.31,0.34,0.77,0.51,1.4,0.51c0.5,0,0.94-0.13,1.32-0.4c0.38-0.26,0.7-0.63,0.95-1.1l0.23,0.1c-0.3,0.57-0.67,0.98-1.1,1.24
		C101.82,9.13,101.35,9.26,100.85,9.26z M101.68,3.13c-0.34,0-0.65,0.07-0.94,0.2c-0.29,0.14-0.54,0.33-0.76,0.58
		c-0.22,0.25-0.41,0.54-0.56,0.88S99.16,5.5,99.08,5.9l-0.04,0.2c0.9-0.02,1.62-0.08,2.18-0.18c0.56-0.1,1-0.24,1.31-0.4
		s0.52-0.34,0.63-0.54c0.11-0.2,0.16-0.4,0.16-0.6c0-0.37-0.13-0.67-0.39-0.9C102.68,3.25,102.26,3.13,101.68,3.13z"/>
	<path class="st0" d="M106.19,3.05h0.24L107,8.8h0.04l2.94-5.75h0.26l0.61,5.75h0.02l2.89-5.75h0.26l-3.07,6.07h-0.31l-0.59-5.66
		h-0.04l-2.9,5.66h-0.31L106.19,3.05z"/>
	<path class="st0" d="M117.44,9.26c-0.5,0-0.94-0.1-1.3-0.3c-0.36-0.2-0.67-0.49-0.93-0.88l0.22-0.14c0.46,0.73,1.13,1.09,2.02,1.09
		c0.56,0,1.01-0.14,1.35-0.41c0.34-0.27,0.51-0.66,0.51-1.16c0-0.19-0.03-0.35-0.08-0.49c-0.06-0.13-0.14-0.25-0.24-0.34
		c-0.1-0.1-0.23-0.18-0.38-0.24c-0.15-0.06-0.33-0.12-0.53-0.17l-0.6-0.16c-0.21-0.06-0.4-0.12-0.56-0.2
		c-0.17-0.08-0.31-0.17-0.44-0.28c-0.12-0.11-0.22-0.25-0.29-0.41c-0.07-0.16-0.1-0.36-0.1-0.59c0-0.28,0.05-0.52,0.16-0.73
		s0.25-0.38,0.43-0.52c0.18-0.14,0.39-0.25,0.64-0.32c0.24-0.07,0.5-0.11,0.77-0.11c0.26,0,0.5,0.03,0.7,0.08
		c0.2,0.05,0.38,0.12,0.53,0.21c0.16,0.09,0.29,0.19,0.41,0.31c0.12,0.12,0.22,0.23,0.31,0.35l-0.19,0.17
		c-0.17-0.24-0.38-0.45-0.65-0.62c-0.26-0.18-0.64-0.26-1.12-0.26c-0.53,0-0.95,0.12-1.27,0.37c-0.32,0.25-0.47,0.61-0.47,1.08
		c0,0.38,0.1,0.65,0.31,0.83c0.2,0.18,0.51,0.32,0.91,0.43l0.6,0.16c0.2,0.06,0.39,0.12,0.56,0.19c0.18,0.07,0.33,0.16,0.45,0.27
		c0.12,0.11,0.22,0.24,0.29,0.4c0.07,0.16,0.11,0.36,0.11,0.59c0,0.3-0.05,0.57-0.16,0.79s-0.26,0.41-0.45,0.56
		c-0.19,0.15-0.42,0.27-0.67,0.34C118.02,9.23,117.74,9.26,117.44,9.26z"/>
</g>
</svg>
