<!-- Generator: Adobe Illustrator 23.1.1, SVG Export Plug-In  -->
<svg version="1.1" xmlns="http://www.w3.org/2000/svg" xmlns:xlink="http://www.w3.org/1999/xlink" x="0px" y="0px" width="27.47px"
	 height="8.66px" viewBox="0 0 27.47 8.66" style="enable-background:new 0 0 27.47 8.66;" xml:space="preserve">
<style type="text/css">
	.st0{fill:url(#SVGID_1_);}
	.st1{fill:url(#SVGID_2_);}
	.st2{fill:url(#SVGID_3_);}
	.st3{fill:url(#SVGID_4_);}
	.st4{fill:url(#SVGID_5_);}
	.st5{fill:url(#SVGID_6_);}
	.st6{fill:url(#SVGID_7_);}
	.st7{fill:url(#SVGID_8_);}
</style>
<defs>
</defs>
<g>
	<linearGradient id="SVGID_1_" gradientUnits="userSpaceOnUse" x1="0" y1="4.3315" x2="6.4443" y2="4.3315">
		<stop  offset="0.2814" style="stop-color:#F84C1E"/>
		<stop  offset="1" style="stop-color:#1E1E1E"/>
	</linearGradient>
	<path class="st0" d="M3.18,8.66c-0.74,0-1.36-0.13-1.87-0.38S0.36,7.71,0,7.31l1.2-1.21c0.57,0.63,1.27,0.95,2.1,0.95
		c0.45,0,0.78-0.09,1-0.27c0.22-0.18,0.32-0.42,0.32-0.73c0-0.23-0.06-0.42-0.19-0.58S4.04,5.21,3.65,5.15L2.82,5.05
		c-0.89-0.11-1.54-0.38-1.95-0.8C0.46,3.82,0.25,3.25,0.25,2.55c0-0.38,0.07-0.72,0.22-1.03C0.61,1.2,0.82,0.93,1.09,0.71
		c0.27-0.22,0.6-0.4,0.98-0.52C2.46,0.06,2.9,0,3.4,0c0.63,0,1.19,0.1,1.67,0.3C5.54,0.5,5.96,0.79,6.3,1.18L5.09,2.4
		c-0.2-0.23-0.44-0.42-0.73-0.56C4.08,1.69,3.72,1.62,3.29,1.62c-0.41,0-0.71,0.07-0.91,0.21s-0.3,0.34-0.3,0.59
		c0,0.29,0.08,0.49,0.23,0.62c0.16,0.13,0.41,0.22,0.76,0.27L3.9,3.45c0.86,0.14,1.5,0.4,1.92,0.8c0.42,0.4,0.62,0.96,0.62,1.69
		c0,0.4-0.07,0.77-0.22,1.11C6.08,7.38,5.87,7.67,5.6,7.91C5.32,8.15,4.98,8.33,4.57,8.47C4.16,8.6,3.7,8.66,3.18,8.66z"/>
	<linearGradient id="SVGID_2_" gradientUnits="userSpaceOnUse" x1="7.9561" y1="4.3315" x2="15.2402" y2="4.3315">
		<stop  offset="0.2814" style="stop-color:#F84C1E"/>
		<stop  offset="1" style="stop-color:#1E1E1E"/>
	</linearGradient>
	<path class="st1" d="M10.87,4.87L9.78,6.19v2.33H7.96V0.14h1.82v3.98h0.07l1.19-1.62l1.88-2.36h2.06l-2.82,3.44l3.07,4.93h-2.15
		L10.87,4.87z"/>
	<linearGradient id="SVGID_3_" gradientUnits="userSpaceOnUse" x1="15.9834" y1="4.3315" x2="19.9678" y2="4.3315">
		<stop  offset="0.2814" style="stop-color:#F84C1E"/>
		<stop  offset="1" style="stop-color:#1E1E1E"/>
	</linearGradient>
	<path class="st2" d="M15.98,8.52V7.07h1.08V1.6h-1.08V0.14h3.98V1.6h-1.08v5.47h1.08v1.45H15.98z"/>
	<linearGradient id="SVGID_4_" gradientUnits="userSpaceOnUse" x1="21.0234" y1="4.3315" x2="27.4678" y2="4.3315">
		<stop  offset="0.2814" style="stop-color:#F84C1E"/>
		<stop  offset="1" style="stop-color:#1E1E1E"/>
	</linearGradient>
	<path class="st3" d="M24.2,8.66c-0.74,0-1.36-0.13-1.87-0.38s-0.95-0.58-1.31-0.98l1.2-1.21c0.57,0.63,1.27,0.95,2.1,0.95
		c0.45,0,0.78-0.09,1-0.27c0.22-0.18,0.32-0.42,0.32-0.73c0-0.23-0.06-0.42-0.19-0.58s-0.39-0.26-0.78-0.32l-0.83-0.11
		c-0.89-0.11-1.54-0.38-1.95-0.8c-0.41-0.42-0.62-0.99-0.62-1.69c0-0.38,0.07-0.72,0.22-1.03c0.14-0.31,0.35-0.58,0.62-0.81
		c0.27-0.22,0.6-0.4,0.98-0.52C23.48,0.06,23.92,0,24.42,0c0.63,0,1.19,0.1,1.67,0.3c0.48,0.2,0.89,0.49,1.24,0.88L26.11,2.4
		c-0.2-0.23-0.44-0.42-0.73-0.56c-0.28-0.15-0.64-0.22-1.07-0.22c-0.41,0-0.71,0.07-0.91,0.21s-0.3,0.34-0.3,0.59
		c0,0.29,0.08,0.49,0.23,0.62c0.16,0.13,0.41,0.22,0.76,0.27l0.83,0.13c0.86,0.14,1.5,0.4,1.92,0.8c0.42,0.4,0.62,0.96,0.62,1.69
		c0,0.4-0.07,0.77-0.22,1.11c-0.14,0.34-0.35,0.62-0.63,0.87C26.35,8.15,26,8.33,25.6,8.47C25.19,8.6,24.72,8.66,24.2,8.66z"/>
</g>
</svg>
