<!-- Generator: Adobe Illustrator 23.1.1, SVG Export Plug-In  -->
<svg version="1.1" xmlns="http://www.w3.org/2000/svg" xmlns:xlink="http://www.w3.org/1999/xlink" x="0px" y="0px"
	 width="346.24px" height="14.44px" viewBox="0 0 346.24 14.44" style="enable-background:new 0 0 346.24 14.44;"
	 xml:space="preserve">
<style type="text/css">
	.st0{fill:url(#SVGID_1_);}
	.st1{fill:url(#SVGID_2_);}
	.st2{fill:url(#SVGID_3_);}
	.st3{fill:url(#SVGID_4_);}
	.st4{fill:url(#SVGID_5_);}
	.st5{fill:url(#SVGID_6_);}
	.st6{fill:url(#SVGID_7_);}
	.st7{fill:url(#SVGID_8_);}
	.st8{fill:url(#SVGID_9_);}
	.st9{fill:url(#SVGID_10_);}
	.st10{fill:url(#SVGID_11_);}
	.st11{fill:url(#SVGID_12_);}
	.st12{fill:url(#SVGID_13_);}
	.st13{fill:url(#SVGID_14_);}
	.st14{fill:url(#SVGID_15_);}
	.st15{fill:url(#SVGID_16_);}
	.st16{fill:url(#SVGID_17_);}
	.st17{fill:url(#SVGID_18_);}
	.st18{fill:url(#SVGID_19_);}
	.st19{fill:url(#SVGID_20_);}
	.st20{fill:url(#SVGID_21_);}
	.st21{fill:url(#SVGID_22_);}
	.st22{fill:url(#SVGID_23_);}
	.st23{fill:url(#SVGID_24_);}
	.st24{fill:url(#SVGID_25_);}
	.st25{fill:url(#SVGID_26_);}
	.st26{fill:url(#SVGID_27_);}
	.st27{fill:url(#SVGID_28_);}
	.st28{fill:url(#SVGID_29_);}
	.st29{fill:url(#SVGID_30_);}
	.st30{fill:url(#SVGID_31_);}
	.st31{fill:url(#SVGID_32_);}
	.st32{fill:url(#SVGID_33_);}
	.st33{fill:url(#SVGID_34_);}
	.st34{fill:url(#SVGID_35_);}
	.st35{fill:url(#SVGID_36_);}
	.st36{fill:url(#SVGID_37_);}
	.st37{fill:url(#SVGID_38_);}
	.st38{fill:url(#SVGID_39_);}
	.st39{fill:url(#SVGID_40_);}
	.st40{fill:url(#SVGID_41_);}
	.st41{fill:url(#SVGID_42_);}
	.st42{fill:url(#SVGID_43_);}
	.st43{fill:url(#SVGID_44_);}
</style>
<defs>
</defs>
<g>
	<linearGradient id="SVGID_1_" gradientUnits="userSpaceOnUse" x1="0" y1="7.2202" x2="10.6001" y2="7.2202">
		<stop  offset="0.2814" style="stop-color:#D7142C"/>
		<stop  offset="1" style="stop-color:#1E1E1E"/>
	</linearGradient>
	<path class="st0" d="M6.82,2.94V14.2H3.78V2.94H0v-2.7h10.6v2.7H6.82z"/>
	<linearGradient id="SVGID_2_" gradientUnits="userSpaceOnUse" x1="14.6602" y1="7.2202" x2="25.7002" y2="7.2202">
		<stop  offset="0.2814" style="stop-color:#D7142C"/>
		<stop  offset="1" style="stop-color:#1E1E1E"/>
	</linearGradient>
	<path class="st1" d="M17.7,14.2h-3.04V0.24h6.62c0.64,0,1.22,0.11,1.74,0.32c0.52,0.21,0.96,0.52,1.33,0.91
		C24.72,1.86,25,2.33,25.2,2.88c0.2,0.55,0.3,1.15,0.3,1.82c0,0.95-0.21,1.77-0.63,2.48c-0.42,0.71-1.06,1.22-1.91,1.54l2.74,5.48
		h-3.38l-2.44-5.12H17.7V14.2z M20.9,6.52c0.45,0,0.81-0.12,1.07-0.35c0.26-0.23,0.39-0.58,0.39-1.03V4.26
		c0-0.45-0.13-0.8-0.39-1.03C21.71,3,21.35,2.88,20.9,2.88h-3.2v3.64H20.9z"/>
	<linearGradient id="SVGID_3_" gradientUnits="userSpaceOnUse" x1="29.5801" y1="7.2202" x2="36.2202" y2="7.2202">
		<stop  offset="0.2814" style="stop-color:#D7142C"/>
		<stop  offset="1" style="stop-color:#1E1E1E"/>
	</linearGradient>
	<path class="st2" d="M29.58,14.2v-2.42h1.8V2.66h-1.8V0.24h6.64v2.42h-1.8v9.12h1.8v2.42H29.58z"/>
	<linearGradient id="SVGID_4_" gradientUnits="userSpaceOnUse" x1="40.7397" y1="7.2202" x2="51.5796" y2="7.2202">
		<stop  offset="0.2814" style="stop-color:#D7142C"/>
		<stop  offset="1" style="stop-color:#1E1E1E"/>
	</linearGradient>
	<path class="st3" d="M40.74,14.2V0.24h6.6c0.65,0,1.24,0.11,1.76,0.33s0.96,0.52,1.33,0.91s0.65,0.86,0.85,1.41
		c0.2,0.55,0.3,1.16,0.3,1.81c0,0.67-0.1,1.27-0.3,1.82c-0.2,0.55-0.48,1.01-0.85,1.4s-0.81,0.69-1.33,0.91s-1.11,0.33-1.76,0.33
		h-3.56v5.04H40.74z M43.78,6.52h3.2c0.45,0,0.81-0.12,1.07-0.35c0.26-0.23,0.39-0.58,0.39-1.03V4.26c0-0.45-0.13-0.8-0.39-1.03
		C47.79,3,47.43,2.88,46.98,2.88h-3.2V6.52z"/>
	<linearGradient id="SVGID_5_" gradientUnits="userSpaceOnUse" x1="55.8394" y1="7.2202" x2="64.1992" y2="7.2202">
		<stop  offset="0.2814" style="stop-color:#D7142C"/>
		<stop  offset="1" style="stop-color:#1E1E1E"/>
	</linearGradient>
	<path class="st4" d="M55.84,14.2V0.24h3.04V11.5h5.32v2.7H55.84z"/>
	<linearGradient id="SVGID_6_" gradientUnits="userSpaceOnUse" x1="68.4194" y1="7.2202" x2="77.9194" y2="7.2202">
		<stop  offset="0.2814" style="stop-color:#D7142C"/>
		<stop  offset="1" style="stop-color:#1E1E1E"/>
	</linearGradient>
	<path class="st5" d="M68.42,14.2V0.24h9.5v2.7h-6.46v2.84H77v2.7h-5.54v3.02h6.46v2.7H68.42z"/>
	<linearGradient id="SVGID_7_" gradientUnits="userSpaceOnUse" x1="88.6992" y1="7.2202" x2="100.1392" y2="7.2202">
		<stop  offset="0.2814" style="stop-color:#D7142C"/>
		<stop  offset="1" style="stop-color:#1E1E1E"/>
	</linearGradient>
	<path class="st6" d="M94.88,14.44c-0.95,0-1.8-0.15-2.56-0.45c-0.76-0.3-1.41-0.75-1.94-1.34c-0.53-0.59-0.95-1.33-1.24-2.22
		c-0.29-0.89-0.44-1.92-0.44-3.11c0-1.17,0.15-2.22,0.44-3.13c0.29-0.91,0.71-1.68,1.24-2.3c0.53-0.62,1.18-1.09,1.94-1.41
		C93.08,0.16,93.93,0,94.88,0c1.29,0,2.36,0.26,3.2,0.79c0.84,0.53,1.51,1.36,2.02,2.49l-2.62,1.36C97.29,4.05,97,3.58,96.61,3.23
		c-0.39-0.35-0.97-0.53-1.73-0.53c-0.89,0-1.61,0.29-2.15,0.87c-0.54,0.58-0.81,1.42-0.81,2.53v2.24c0,1.11,0.27,1.95,0.81,2.53
		c0.54,0.58,1.26,0.87,2.15,0.87c0.75,0,1.34-0.2,1.79-0.61c0.45-0.41,0.78-0.9,0.99-1.47l2.48,1.44c-0.52,1.07-1.2,1.89-2.05,2.47
		C97.24,14.15,96.17,14.44,94.88,14.44z"/>
	<linearGradient id="SVGID_8_" gradientUnits="userSpaceOnUse" x1="102.9385" y1="7.2202" x2="115.8384" y2="7.2202">
		<stop  offset="0.2814" style="stop-color:#D7142C"/>
		<stop  offset="1" style="stop-color:#1E1E1E"/>
	</linearGradient>
	<path class="st7" d="M112.68,14.2l-1-3.32h-4.66l-1,3.32h-3.08l4.6-13.96h3.76l4.54,13.96H112.68z M109.38,3h-0.1l-1.54,5.3h3.2
		L109.38,3z"/>
	<linearGradient id="SVGID_9_" gradientUnits="userSpaceOnUse" x1="119.7588" y1="7.2202" x2="133.0586" y2="7.2202">
		<stop  offset="0.2814" style="stop-color:#D7142C"/>
		<stop  offset="1" style="stop-color:#1E1E1E"/>
	</linearGradient>
	<path class="st8" d="M130.2,5.04h-0.06l-1.02,2.04l-2.72,4.94l-2.66-4.92l-1.06-2.2h-0.06v9.3h-2.86V0.24h3.22l3.42,6.54h0.04
		l3.38-6.54h3.24V14.2h-2.86V5.04z"/>
	<linearGradient id="SVGID_10_" gradientUnits="userSpaceOnUse" x1="138.1187" y1="7.2202" x2="149.1187" y2="7.2202">
		<stop  offset="0.2814" style="stop-color:#D7142C"/>
		<stop  offset="1" style="stop-color:#1E1E1E"/>
	</linearGradient>
	<path class="st9" d="M138.12,0.24h6.78c1.16,0,2.06,0.33,2.71,0.98c0.65,0.65,0.97,1.52,0.97,2.6c0,0.53-0.07,0.99-0.21,1.36
		c-0.14,0.37-0.33,0.68-0.56,0.92c-0.23,0.24-0.51,0.42-0.82,0.53c-0.31,0.11-0.65,0.18-1.01,0.19v0.12c0.33,0,0.68,0.06,1.05,0.18
		c0.37,0.12,0.7,0.31,1.01,0.57s0.56,0.6,0.77,1.01c0.21,0.41,0.31,0.92,0.31,1.52c0,0.55-0.09,1.06-0.27,1.55
		c-0.18,0.49-0.43,0.91-0.75,1.27c-0.32,0.36-0.7,0.64-1.14,0.85c-0.44,0.21-0.92,0.31-1.44,0.31h-7.4V0.24z M141.16,5.96h3.02
		c0.4,0,0.71-0.11,0.94-0.34c0.23-0.23,0.34-0.54,0.34-0.94v-0.6c0-0.4-0.11-0.71-0.34-0.94c-0.23-0.23-0.54-0.34-0.94-0.34h-3.02
		V5.96z M141.16,11.64h3.5c0.4,0,0.72-0.11,0.95-0.33c0.23-0.22,0.35-0.53,0.35-0.93V9.7c0-0.4-0.12-0.71-0.35-0.93
		c-0.23-0.22-0.55-0.33-0.95-0.33h-3.5V11.64z"/>
	<linearGradient id="SVGID_11_" gradientUnits="userSpaceOnUse" x1="153.4385" y1="7.2202" x2="162.9385" y2="7.2202">
		<stop  offset="0.2814" style="stop-color:#D7142C"/>
		<stop  offset="1" style="stop-color:#1E1E1E"/>
	</linearGradient>
	<path class="st10" d="M153.44,14.2V0.24h9.5v2.7h-6.46v2.84h5.54v2.7h-5.54v3.02h6.46v2.7H153.44z"/>
	<linearGradient id="SVGID_12_" gradientUnits="userSpaceOnUse" x1="167.5581" y1="7.2202" x2="178.5981" y2="7.2202">
		<stop  offset="0.2814" style="stop-color:#D7142C"/>
		<stop  offset="1" style="stop-color:#1E1E1E"/>
	</linearGradient>
	<path class="st11" d="M170.6,14.2h-3.04V0.24h6.62c0.64,0,1.22,0.11,1.74,0.32c0.52,0.21,0.96,0.52,1.33,0.91
		c0.37,0.39,0.65,0.86,0.85,1.41c0.2,0.55,0.3,1.15,0.3,1.82c0,0.95-0.21,1.77-0.63,2.48c-0.42,0.71-1.06,1.22-1.91,1.54l2.74,5.48
		h-3.38l-2.44-5.12h-2.18V14.2z M173.8,6.52c0.45,0,0.81-0.12,1.07-0.35c0.26-0.23,0.39-0.58,0.39-1.03V4.26
		c0-0.45-0.13-0.8-0.39-1.03c-0.26-0.23-0.62-0.35-1.07-0.35h-3.2v3.64H173.8z"/>
	<linearGradient id="SVGID_13_" gradientUnits="userSpaceOnUse" x1="188.7188" y1="7.2202" x2="199.3188" y2="7.2202">
		<stop  offset="0.2814" style="stop-color:#D7142C"/>
		<stop  offset="1" style="stop-color:#1E1E1E"/>
	</linearGradient>
	<path class="st12" d="M195.54,2.94V14.2h-3.04V2.94h-3.78v-2.7h10.6v2.7H195.54z"/>
	<linearGradient id="SVGID_14_" gradientUnits="userSpaceOnUse" x1="202.4785" y1="7.2202" x2="220.7783" y2="7.2202">
		<stop  offset="0.2814" style="stop-color:#D7142C"/>
		<stop  offset="1" style="stop-color:#1E1E1E"/>
	</linearGradient>
	<path class="st13" d="M205.64,14.2l-3.16-13.96h3l1.32,6.7l0.74,3.88h0.06l0.88-3.88l1.54-6.7h3.32l1.56,6.7l0.86,3.88h0.06
		l0.74-3.88l1.34-6.7h2.88l-3.24,13.96h-3.46l-1.76-7.56l-0.68-3.06h-0.06l-0.7,3.06l-1.76,7.56H205.64z"/>
	<linearGradient id="SVGID_15_" gradientUnits="userSpaceOnUse" x1="224.3384" y1="7.2202" x2="230.9785" y2="7.2202">
		<stop  offset="0.2814" style="stop-color:#D7142C"/>
		<stop  offset="1" style="stop-color:#1E1E1E"/>
	</linearGradient>
	<path class="st14" d="M224.34,14.2v-2.42h1.8V2.66h-1.8V0.24h6.64v2.42h-1.8v9.12h1.8v2.42H224.34z"/>
	<linearGradient id="SVGID_16_" gradientUnits="userSpaceOnUse" x1="235.498" y1="7.2202" x2="246.8979" y2="7.2202">
		<stop  offset="0.2814" style="stop-color:#D7142C"/>
		<stop  offset="1" style="stop-color:#1E1E1E"/>
	</linearGradient>
	<path class="st15" d="M239.76,7.6l-1.34-2.8h-0.06v9.4h-2.86V0.24h3.32l3.82,6.6l1.34,2.8h0.06v-9.4h2.86V14.2h-3.32L239.76,7.6z"
		/>
	<linearGradient id="SVGID_17_" gradientUnits="userSpaceOnUse" x1="258.6577" y1="7.2202" x2="269.6978" y2="7.2202">
		<stop  offset="0.2814" style="stop-color:#D7142C"/>
		<stop  offset="1" style="stop-color:#1E1E1E"/>
	</linearGradient>
	<path class="st16" d="M261.7,14.2h-3.04V0.24h6.62c0.64,0,1.22,0.11,1.74,0.32c0.52,0.21,0.96,0.52,1.33,0.91
		c0.37,0.39,0.65,0.86,0.85,1.41c0.2,0.55,0.3,1.15,0.3,1.82c0,0.95-0.21,1.77-0.63,2.48c-0.42,0.71-1.06,1.22-1.91,1.54l2.74,5.48
		h-3.38l-2.44-5.12h-2.18V14.2z M264.9,6.52c0.45,0,0.81-0.12,1.07-0.35c0.26-0.23,0.39-0.58,0.39-1.03V4.26
		c0-0.45-0.13-0.8-0.39-1.03c-0.26-0.23-0.62-0.35-1.07-0.35h-3.2v3.64H264.9z"/>
	<linearGradient id="SVGID_18_" gradientUnits="userSpaceOnUse" x1="273.3779" y1="7.2202" x2="285.6577" y2="7.2202">
		<stop  offset="0.2814" style="stop-color:#D7142C"/>
		<stop  offset="1" style="stop-color:#1E1E1E"/>
	</linearGradient>
	<path class="st17" d="M279.52,14.44c-0.92,0-1.76-0.15-2.52-0.46c-0.76-0.31-1.41-0.76-1.94-1.37c-0.53-0.61-0.95-1.36-1.24-2.26
		c-0.29-0.9-0.44-1.94-0.44-3.13c0-1.19,0.15-2.23,0.44-3.13c0.29-0.9,0.71-1.65,1.24-2.26c0.53-0.61,1.18-1.06,1.94-1.37
		c0.76-0.31,1.6-0.46,2.52-0.46s1.76,0.15,2.52,0.46c0.76,0.31,1.41,0.76,1.94,1.37c0.53,0.61,0.95,1.36,1.24,2.26
		c0.29,0.9,0.44,1.94,0.44,3.13c0,1.19-0.15,2.23-0.44,3.13c-0.29,0.9-0.71,1.65-1.24,2.26c-0.53,0.61-1.18,1.06-1.94,1.37
		C281.28,14.29,280.44,14.44,279.52,14.44z M279.52,11.74c0.92,0,1.64-0.3,2.15-0.9c0.51-0.6,0.77-1.46,0.77-2.58V6.18
		c0-1.12-0.26-1.98-0.77-2.58c-0.51-0.6-1.23-0.9-2.15-0.9s-1.64,0.3-2.15,0.9c-0.51,0.6-0.77,1.46-0.77,2.58v2.08
		c0,1.12,0.26,1.98,0.77,2.58C277.88,11.44,278.6,11.74,279.52,11.74z"/>
	<linearGradient id="SVGID_19_" gradientUnits="userSpaceOnUse" x1="289.6377" y1="7.2202" x2="301.0776" y2="7.2202">
		<stop  offset="0.2814" style="stop-color:#D7142C"/>
		<stop  offset="1" style="stop-color:#1E1E1E"/>
	</linearGradient>
	<path class="st18" d="M295.82,14.44c-0.95,0-1.8-0.15-2.56-0.45c-0.76-0.3-1.41-0.75-1.94-1.34c-0.53-0.59-0.95-1.33-1.24-2.22
		c-0.29-0.89-0.44-1.92-0.44-3.11c0-1.17,0.15-2.22,0.44-3.13c0.29-0.91,0.71-1.68,1.24-2.3c0.53-0.62,1.18-1.09,1.94-1.41
		c0.76-0.32,1.61-0.48,2.56-0.48c1.29,0,2.36,0.26,3.2,0.79c0.84,0.53,1.51,1.36,2.02,2.49l-2.62,1.36
		c-0.19-0.59-0.48-1.06-0.87-1.41c-0.39-0.35-0.97-0.53-1.73-0.53c-0.89,0-1.61,0.29-2.15,0.87c-0.54,0.58-0.81,1.42-0.81,2.53v2.24
		c0,1.11,0.27,1.95,0.81,2.53c0.54,0.58,1.26,0.87,2.15,0.87c0.75,0,1.34-0.2,1.79-0.61c0.45-0.41,0.78-0.9,0.99-1.47l2.48,1.44
		c-0.52,1.07-1.2,1.89-2.05,2.47C298.18,14.15,297.11,14.44,295.82,14.44z"/>
	<linearGradient id="SVGID_20_" gradientUnits="userSpaceOnUse" x1="305.1772" y1="7.2202" x2="317.3174" y2="7.2202">
		<stop  offset="0.2814" style="stop-color:#D7142C"/>
		<stop  offset="1" style="stop-color:#1E1E1E"/>
	</linearGradient>
	<path class="st19" d="M310.04,8.12l-1.82,2.2v3.88h-3.04V0.24h3.04v6.64h0.12l1.98-2.7l3.14-3.94h3.44l-4.7,5.74l5.12,8.22h-3.58
		L310.04,8.12z"/>
	<linearGradient id="SVGID_21_" gradientUnits="userSpaceOnUse" x1="321.0771" y1="7.2202" x2="330.5771" y2="7.2202">
		<stop  offset="0.2814" style="stop-color:#D7142C"/>
		<stop  offset="1" style="stop-color:#1E1E1E"/>
	</linearGradient>
	<path class="st20" d="M321.08,14.2V0.24h9.5v2.7h-6.46v2.84h5.54v2.7h-5.54v3.02h6.46v2.7H321.08z"/>
	<linearGradient id="SVGID_22_" gradientUnits="userSpaceOnUse" x1="335.1973" y1="7.2202" x2="346.2373" y2="7.2202">
		<stop  offset="0.2814" style="stop-color:#D7142C"/>
		<stop  offset="1" style="stop-color:#1E1E1E"/>
	</linearGradient>
	<path class="st21" d="M338.24,14.2h-3.04V0.24h6.62c0.64,0,1.22,0.11,1.74,0.32c0.52,0.21,0.96,0.52,1.33,0.91
		c0.37,0.39,0.65,0.86,0.85,1.41c0.2,0.55,0.3,1.15,0.3,1.82c0,0.95-0.21,1.77-0.63,2.48c-0.42,0.71-1.06,1.22-1.91,1.54l2.74,5.48
		h-3.38l-2.44-5.12h-2.18V14.2z M341.44,6.52c0.45,0,0.81-0.12,1.07-0.35c0.26-0.23,0.39-0.58,0.39-1.03V4.26
		c0-0.45-0.13-0.8-0.39-1.03c-0.26-0.23-0.62-0.35-1.07-0.35h-3.2v3.64H341.44z"/>
</g>
</svg>
