<!-- Generator: Adobe Illustrator 23.1.1, SVG Export Plug-In  -->
<svg version="1.1" xmlns="http://www.w3.org/2000/svg" xmlns:xlink="http://www.w3.org/1999/xlink" x="0px" y="0px" width="1078px"
	 height="512px" viewBox="0 0 1078 512" style="enable-background:new 0 0 1078 512;" xml:space="preserve">
<defs>
</defs>
<g>
	<g>
		<path d="M266,1v59H1V1H266 M267,0H0v61h267V0L267,0z"/>
	</g>
	<g>
		<path d="M90.6,36.24V22.28h3.04v11.26h5.32v2.7H90.6z"/>
		<path d="M103.18,36.24V22.28h9.5v2.7h-6.46v2.84h5.54v2.7h-5.54v3.02h6.46v2.7H103.18z"/>
		<path d="M121.56,29.64l-1.34-2.8h-0.06v9.4h-2.86V22.28h3.32l3.82,6.6l1.34,2.8h0.06v-9.4h2.86v13.96h-3.32L121.56,29.64z"/>
		<path d="M142.62,34.02h-0.1c-0.11,0.71-0.47,1.29-1.08,1.76s-1.45,0.7-2.5,0.7c-0.8,0-1.55-0.15-2.24-0.46
			c-0.69-0.31-1.3-0.76-1.82-1.36c-0.52-0.6-0.93-1.35-1.22-2.24c-0.29-0.89-0.44-1.93-0.44-3.1c0-1.17,0.15-2.21,0.46-3.12
			c0.31-0.91,0.74-1.67,1.29-2.28c0.55-0.61,1.22-1.08,1.99-1.4c0.77-0.32,1.63-0.48,2.58-0.48c1.25,0,2.33,0.27,3.24,0.81
			c0.91,0.54,1.62,1.35,2.14,2.43l-2.48,1.42c-0.21-0.55-0.55-1.01-1-1.39s-1.09-0.57-1.9-0.57c-0.95,0-1.7,0.27-2.26,0.82
			c-0.56,0.55-0.84,1.41-0.84,2.58v2.24c0,1.16,0.28,2.02,0.84,2.57c0.56,0.55,1.31,0.83,2.26,0.83c0.37,0,0.73-0.04,1.06-0.13
			s0.63-0.22,0.88-0.4c0.25-0.18,0.45-0.4,0.59-0.65c0.14-0.25,0.21-0.55,0.21-0.9V31h-2.6v-2.54h5.5v7.78h-2.56V34.02z"/>
		<path d="M155.18,24.98v11.26h-3.04V24.98h-3.78v-2.7h10.6v2.7H155.18z"/>
		<path d="M171.38,30.52h-5.32v5.72h-3.04V22.28h3.04v5.54h5.32v-5.54h3.04v13.96h-3.04V30.52z"/>
	</g>
</g>
<g>
	<g>
		<path d="M391.21,24.98v11.26h-3.04V24.98h-3.78v-2.7h10.6v2.7H391.21z"/>
		<path d="M398.43,36.24v-2.42h1.8V24.7h-1.8v-2.42h6.64v2.42h-1.8v9.12h1.8v2.42H398.43z"/>
		<path d="M409.59,36.24V22.28h6.6c0.65,0,1.24,0.11,1.76,0.33c0.52,0.22,0.96,0.52,1.33,0.91c0.37,0.39,0.65,0.86,0.85,1.41
			c0.2,0.55,0.3,1.16,0.3,1.81c0,0.67-0.1,1.27-0.3,1.82s-0.48,1.01-0.85,1.4c-0.37,0.39-0.81,0.69-1.33,0.91
			c-0.52,0.22-1.11,0.33-1.76,0.33h-3.56v5.04H409.59z M412.63,28.56h3.2c0.45,0,0.81-0.12,1.07-0.35c0.26-0.23,0.39-0.58,0.39-1.03
			V26.3c0-0.45-0.13-0.8-0.39-1.03c-0.26-0.23-0.62-0.35-1.07-0.35h-3.2V28.56z"/>
	</g>
	<g>
		<path d="M536,1v59H271V1H536 M537,0H270v61h267V0L537,0z"/>
	</g>
</g>
<g>
	<g>
		<path d="M639.82,36.24l-3.16-13.96h3l1.32,6.7l0.74,3.88h0.06l0.88-3.88l1.54-6.7h3.32l1.56,6.7l0.86,3.88H650l0.74-3.88l1.34-6.7
			h2.88l-3.24,13.96h-3.46l-1.76-7.56l-0.68-3.06h-0.06l-0.7,3.06l-1.76,7.56H639.82z"/>
		<path d="M667.1,36.24l-1-3.32h-4.66l-1,3.32h-3.08l4.6-13.96h3.76l4.54,13.96H667.1z M663.8,25.04h-0.1l-1.54,5.3h3.2L663.8,25.04
			z"/>
		<path d="M673.64,36.24v-2.42h1.8V24.7h-1.8v-2.42h6.64v2.42h-1.8v9.12h1.8v2.42H673.64z"/>
		<path d="M689.32,36.48c-1.23,0-2.27-0.21-3.12-0.63c-0.85-0.42-1.58-0.96-2.18-1.63l2-2.02c0.95,1.06,2.11,1.59,3.5,1.59
			c0.75,0,1.3-0.15,1.66-0.46s0.54-0.71,0.54-1.21c0-0.38-0.11-0.7-0.32-0.96c-0.21-0.26-0.65-0.43-1.3-0.53l-1.38-0.18
			c-1.48-0.19-2.56-0.63-3.25-1.34c-0.69-0.71-1.03-1.65-1.03-2.82c0-0.63,0.12-1.2,0.36-1.72s0.58-0.97,1.03-1.34
			c0.45-0.37,0.99-0.66,1.64-0.87s1.38-0.31,2.21-0.31c1.05,0,1.98,0.17,2.78,0.5s1.49,0.82,2.06,1.46l-2.02,2.04
			c-0.33-0.38-0.74-0.7-1.21-0.94c-0.47-0.24-1.07-0.37-1.79-0.37c-0.68,0-1.19,0.12-1.52,0.36s-0.5,0.57-0.5,0.99
			c0,0.48,0.13,0.82,0.39,1.03c0.26,0.21,0.68,0.36,1.27,0.46l1.38,0.22c1.44,0.23,2.51,0.67,3.2,1.33c0.69,0.66,1.04,1.6,1.04,2.81
			c0,0.67-0.12,1.28-0.36,1.84c-0.24,0.56-0.59,1.04-1.05,1.44s-1.03,0.71-1.71,0.93C690.96,36.37,690.19,36.48,689.32,36.48z"/>
		<path d="M704.62,24.98v11.26h-3.04V24.98h-3.78v-2.7h10.6v2.7H704.62z"/>
	</g>
	<g>
		<path d="M806,1v59H541V1H806 M807,0H540v61h267V0L807,0z"/>
	</g>
</g>
<g>
	<g>
		<path d="M925.24,24.98v11.26h-3.04V24.98h-3.78v-2.7h10.6v2.7H925.24z"/>
		<path d="M940.38,36.24l-1-3.32h-4.66l-1,3.32h-3.08l4.6-13.96H939l4.54,13.96H940.38z M937.08,25.04h-0.1l-1.54,5.3h3.2
			L937.08,25.04z"/>
		<path d="M946.92,36.24v-2.42h1.8V24.7h-1.8v-2.42h6.64v2.42h-1.8v9.12h1.8v2.42H946.92z"/>
		<path d="M958.08,36.24V22.28h3.04v11.26h5.32v2.7H958.08z"/>
	</g>
	<g>
		<g>
			<path d="M1076,1v59H811V1H1076 M1077,0H810v61h267V0L1077,0z"/>
		</g>
	</g>
</g>
<g>
	<g>
		<path d="M94.08,296.24h-3.04v-13.96h6.62c0.64,0,1.22,0.11,1.74,0.32c0.52,0.21,0.96,0.52,1.33,0.91
			c0.37,0.39,0.65,0.86,0.85,1.41c0.2,0.55,0.3,1.15,0.3,1.82c0,0.95-0.21,1.77-0.63,2.48c-0.42,0.71-1.06,1.22-1.91,1.54l2.74,5.48
			H98.7l-2.44-5.12h-2.18V296.24z M97.28,288.56c0.45,0,0.81-0.12,1.07-0.35c0.26-0.23,0.39-0.58,0.39-1.03v-0.88
			c0-0.45-0.13-0.8-0.39-1.03c-0.26-0.23-0.62-0.35-1.07-0.35h-3.2v3.64H97.28z"/>
		<path d="M115.1,296.24l-1-3.32h-4.66l-1,3.32h-3.08l4.6-13.96h3.76l4.54,13.96H115.1z M111.8,285.04h-0.1l-1.54,5.3h3.2
			L111.8,285.04z"/>
		<path d="M122.18,282.28h5.26c0.92,0,1.76,0.15,2.52,0.44c0.76,0.29,1.41,0.73,1.94,1.31s0.95,1.31,1.24,2.18
			c0.29,0.87,0.44,1.89,0.44,3.05c0,1.16-0.15,2.18-0.44,3.05s-0.71,1.6-1.24,2.18s-1.18,1.02-1.94,1.31
			c-0.76,0.29-1.6,0.44-2.52,0.44h-5.26V282.28z M127.44,293.54c0.91,0,1.62-0.25,2.14-0.76c0.52-0.51,0.78-1.32,0.78-2.44v-2.16
			c0-1.12-0.26-1.93-0.78-2.44c-0.52-0.51-1.23-0.76-2.14-0.76h-2.22v8.56H127.44z"/>
		<path d="M140.98,282.28v8.56c0,0.99,0.19,1.72,0.58,2.21c0.39,0.49,1.03,0.73,1.94,0.73c0.91,0,1.55-0.24,1.94-0.73
			c0.39-0.49,0.58-1.22,0.58-2.21v-8.56h2.96v8.24c0,1.03-0.1,1.92-0.29,2.67s-0.51,1.37-0.95,1.86c-0.44,0.49-1.01,0.85-1.7,1.08
			c-0.69,0.23-1.54,0.35-2.54,0.35s-1.85-0.12-2.54-0.35c-0.69-0.23-1.26-0.59-1.7-1.08c-0.44-0.49-0.76-1.11-0.95-1.86
			s-0.29-1.64-0.29-2.67v-8.24H140.98z"/>
		<path d="M153.42,296.24v-2.42h1.8v-9.12h-1.8v-2.42h6.64v2.42h-1.8v9.12h1.8v2.42H153.42z"/>
		<path d="M169.1,296.48c-1.23,0-2.27-0.21-3.12-0.63c-0.85-0.42-1.58-0.96-2.18-1.63l2-2.02c0.95,1.06,2.11,1.59,3.5,1.59
			c0.75,0,1.3-0.15,1.66-0.46s0.54-0.71,0.54-1.21c0-0.38-0.11-0.7-0.32-0.96c-0.21-0.26-0.65-0.43-1.3-0.53l-1.38-0.18
			c-1.48-0.19-2.56-0.63-3.25-1.34c-0.69-0.71-1.03-1.65-1.03-2.82c0-0.63,0.12-1.2,0.36-1.72s0.58-0.97,1.03-1.34
			c0.45-0.37,0.99-0.66,1.64-0.87s1.38-0.31,2.21-0.31c1.05,0,1.98,0.17,2.78,0.5s1.49,0.82,2.06,1.46l-2.02,2.04
			c-0.33-0.38-0.74-0.7-1.21-0.94c-0.47-0.24-1.07-0.37-1.79-0.37c-0.68,0-1.19,0.12-1.52,0.36s-0.5,0.57-0.5,0.99
			c0,0.48,0.13,0.82,0.39,1.03c0.26,0.21,0.68,0.36,1.27,0.46l1.38,0.22c1.44,0.23,2.51,0.67,3.2,1.33c0.69,0.66,1.04,1.6,1.04,2.81
			c0,0.67-0.12,1.28-0.36,1.84c-0.24,0.56-0.59,1.04-1.05,1.44s-1.03,0.71-1.71,0.93C170.74,296.37,169.97,296.48,169.1,296.48z"/>
	</g>
	<g>
		<path d="M266,261v59H1v-59H266 M267,260H0v61h267V260L267,260z"/>
	</g>
</g>
<g>
	<g>
		<path d="M309.48,296.24v-13.96h9.5v2.7h-6.46v2.84h5.54v2.7h-5.54v3.02h6.46v2.7H309.48z"/>
		<path d="M323.6,296.24v-13.96h9.26v2.7h-6.22v2.84h5.3v2.7h-5.3v5.72H323.6z"/>
		<path d="M337.28,296.24v-13.96h9.26v2.7h-6.22v2.84h5.3v2.7h-5.3v5.72H337.28z"/>
		<path d="M350.96,296.24v-13.96h9.5v2.7H354v2.84h5.54v2.7H354v3.02h6.46v2.7H350.96z"/>
		<path d="M370.72,296.48c-0.95,0-1.8-0.15-2.56-0.45s-1.41-0.75-1.94-1.34c-0.53-0.59-0.95-1.33-1.24-2.22
			c-0.29-0.89-0.44-1.92-0.44-3.11c0-1.17,0.15-2.22,0.44-3.13c0.29-0.91,0.71-1.68,1.24-2.3c0.53-0.62,1.18-1.09,1.94-1.41
			c0.76-0.32,1.61-0.48,2.56-0.48c1.29,0,2.36,0.26,3.2,0.79c0.84,0.53,1.51,1.36,2.02,2.49l-2.62,1.36
			c-0.19-0.59-0.48-1.06-0.87-1.41c-0.39-0.35-0.97-0.53-1.73-0.53c-0.89,0-1.61,0.29-2.15,0.87s-0.81,1.42-0.81,2.53v2.24
			c0,1.11,0.27,1.95,0.81,2.53s1.26,0.87,2.15,0.87c0.75,0,1.34-0.2,1.79-0.61c0.45-0.41,0.78-0.9,0.99-1.47l2.48,1.44
			c-0.52,1.07-1.2,1.89-2.05,2.47S372.01,296.48,370.72,296.48z"/>
		<path d="M385.9,284.98v11.26h-3.04v-11.26h-3.78v-2.7h10.6v2.7H385.9z"/>
		<path d="M393.12,296.24v-2.42h1.8v-9.12h-1.8v-2.42h6.64v2.42h-1.8v9.12h1.8v2.42H393.12z"/>
		<path d="M407.52,296.24l-4.5-13.96h3.08l2.08,6.7l1.1,4.38h0.06l1.06-4.38l2.08-6.7h2.98l-4.54,13.96H407.52z"/>
		<path d="M419.26,296.24v-13.96h9.5v2.7h-6.46v2.84h5.54v2.7h-5.54v3.02h6.46v2.7H419.26z"/>
		<path d="M440.08,296.24v-13.96h9.5v2.7h-6.46v2.84h5.54v2.7h-5.54v3.02h6.46v2.7H440.08z"/>
		<path d="M454.2,282.28h5.26c0.92,0,1.76,0.15,2.52,0.44c0.76,0.29,1.41,0.73,1.94,1.31s0.95,1.31,1.24,2.18
			c0.29,0.87,0.44,1.89,0.44,3.05c0,1.16-0.15,2.18-0.44,3.05s-0.71,1.6-1.24,2.18s-1.18,1.02-1.94,1.31
			c-0.76,0.29-1.6,0.44-2.52,0.44h-5.26V282.28z M459.46,293.54c0.91,0,1.62-0.25,2.14-0.76c0.52-0.51,0.78-1.32,0.78-2.44v-2.16
			c0-1.12-0.26-1.93-0.78-2.44c-0.52-0.51-1.23-0.76-2.14-0.76h-2.22v8.56H459.46z"/>
		<path d="M478.98,294.02h-0.1c-0.11,0.71-0.47,1.29-1.08,1.76s-1.45,0.7-2.5,0.7c-0.8,0-1.55-0.15-2.24-0.46
			c-0.69-0.31-1.3-0.76-1.82-1.36c-0.52-0.6-0.93-1.35-1.22-2.24c-0.29-0.89-0.44-1.93-0.44-3.1c0-1.17,0.15-2.21,0.46-3.12
			c0.31-0.91,0.74-1.67,1.29-2.28c0.55-0.61,1.22-1.08,1.99-1.4c0.77-0.32,1.63-0.48,2.58-0.48c1.25,0,2.33,0.27,3.24,0.81
			c0.91,0.54,1.62,1.35,2.14,2.43l-2.48,1.42c-0.21-0.55-0.55-1.01-1-1.39s-1.09-0.57-1.9-0.57c-0.95,0-1.7,0.27-2.26,0.82
			c-0.56,0.55-0.84,1.41-0.84,2.58v2.24c0,1.16,0.28,2.02,0.84,2.57c0.56,0.55,1.31,0.83,2.26,0.83c0.37,0,0.73-0.04,1.06-0.13
			s0.63-0.22,0.88-0.4c0.25-0.18,0.45-0.4,0.59-0.65c0.14-0.25,0.21-0.55,0.21-0.9V291h-2.6v-2.54h5.5v7.78h-2.56V294.02z"/>
		<path d="M486.48,296.24v-13.96h9.5v2.7h-6.46v2.84h5.54v2.7h-5.54v3.02h6.46v2.7H486.48z"/>
	</g>
	<g>
		<path d="M536,261v59H271v-59H536 M537,260H270v61h267V260L537,260z"/>
	</g>
</g>
<g>
	<g>
		<path d="M591.12,296.24l-3.16-13.96h3l1.32,6.7l0.74,3.88h0.06l0.88-3.88l1.54-6.7h3.32l1.56,6.7l0.86,3.88h0.06l0.74-3.88
			l1.34-6.7h2.88l-3.24,13.96h-3.46l-1.76-7.56l-0.68-3.06h-0.06l-0.7,3.06l-1.76,7.56H591.12z"/>
		<path d="M610.36,296.24v-13.96h9.5v2.7h-6.46v2.84h5.54v2.7h-5.54v3.02h6.46v2.7H610.36z"/>
		<path d="M623.94,296.24v-2.42h1.8v-9.12h-1.8v-2.42h6.64v2.42h-1.8v9.12h1.8v2.42H623.94z"/>
		<path d="M643.96,294.02h-0.1c-0.11,0.71-0.47,1.29-1.08,1.76s-1.45,0.7-2.5,0.7c-0.8,0-1.55-0.15-2.24-0.46
			c-0.69-0.31-1.3-0.76-1.82-1.36c-0.52-0.6-0.93-1.35-1.22-2.24c-0.29-0.89-0.44-1.93-0.44-3.1c0-1.17,0.15-2.21,0.46-3.12
			c0.31-0.91,0.74-1.67,1.29-2.28c0.55-0.61,1.22-1.08,1.99-1.4c0.77-0.32,1.63-0.48,2.58-0.48c1.25,0,2.33,0.27,3.24,0.81
			c0.91,0.54,1.62,1.35,2.14,2.43l-2.48,1.42c-0.21-0.55-0.55-1.01-1-1.39s-1.09-0.57-1.9-0.57c-0.95,0-1.7,0.27-2.26,0.82
			c-0.56,0.55-0.84,1.41-0.84,2.58v2.24c0,1.16,0.28,2.02,0.84,2.57c0.56,0.55,1.31,0.83,2.26,0.83c0.37,0,0.73-0.04,1.06-0.13
			s0.63-0.22,0.88-0.4c0.25-0.18,0.45-0.4,0.59-0.65c0.14-0.25,0.21-0.55,0.21-0.9V291h-2.6v-2.54h5.5v7.78h-2.56V294.02z"/>
		<path d="M659.82,290.52h-5.32v5.72h-3.04v-13.96h3.04v5.54h5.32v-5.54h3.04v13.96h-3.04V290.52z"/>
		<path d="M673.74,284.98v11.26h-3.04v-11.26h-3.78v-2.7h10.6v2.7H673.74z"/>
		<path d="M687.48,290c0-0.96,0.09-1.89,0.27-2.78c0.18-0.89,0.42-1.72,0.73-2.49s0.67-1.46,1.1-2.09s0.89-1.16,1.4-1.6h2.78
			c-1.08,1-1.93,2.2-2.55,3.61s-0.93,2.96-0.93,4.67v1.4c0,1.77,0.31,3.35,0.94,4.74c0.63,1.39,1.47,2.57,2.54,3.54h-2.8
			c-0.48-0.41-0.93-0.93-1.36-1.56c-0.43-0.63-0.8-1.33-1.11-2.11s-0.56-1.62-0.74-2.52C687.57,291.91,687.48,290.97,687.48,290z"/>
		<path d="M697.02,296.24v-13.96h6.6c0.65,0,1.24,0.11,1.76,0.33c0.52,0.22,0.96,0.52,1.33,0.91c0.37,0.39,0.65,0.86,0.85,1.41
			c0.2,0.55,0.3,1.16,0.3,1.81c0,0.67-0.1,1.27-0.3,1.82s-0.48,1.01-0.85,1.4c-0.37,0.39-0.81,0.69-1.33,0.91
			c-0.52,0.22-1.11,0.33-1.76,0.33h-3.56v5.04H697.02z M700.06,288.56h3.2c0.45,0,0.81-0.12,1.07-0.35
			c0.26-0.23,0.39-0.58,0.39-1.03v-0.88c0-0.45-0.13-0.8-0.39-1.03c-0.26-0.23-0.62-0.35-1.07-0.35h-3.2V288.56z"/>
		<path d="M719.26,296.24l-1-3.32h-4.66l-1,3.32h-3.08l4.6-13.96h3.76l4.54,13.96H719.26z M715.96,285.04h-0.1l-1.54,5.3h3.2
			L715.96,285.04z"/>
		<path d="M725.8,296.24v-2.42h1.8v-9.12h-1.8v-2.42h6.64v2.42h-1.8v9.12h1.8v2.42H725.8z"/>
		<path d="M740,296.24h-3.04v-13.96h6.62c0.64,0,1.22,0.11,1.74,0.32c0.52,0.21,0.96,0.52,1.33,0.91c0.37,0.39,0.65,0.86,0.85,1.41
			c0.2,0.55,0.3,1.15,0.3,1.82c0,0.95-0.21,1.77-0.63,2.48c-0.42,0.71-1.06,1.22-1.91,1.54l2.74,5.48h-3.38l-2.44-5.12H740V296.24z
			 M743.2,288.56c0.45,0,0.81-0.12,1.07-0.35c0.26-0.23,0.39-0.58,0.39-1.03v-0.88c0-0.45-0.13-0.8-0.39-1.03
			c-0.26-0.23-0.62-0.35-1.07-0.35H740v3.64H743.2z"/>
		<path d="M756.9,290c0,0.97-0.09,1.91-0.27,2.81c-0.18,0.9-0.43,1.74-0.74,2.52s-0.68,1.48-1.11,2.11
			c-0.43,0.63-0.88,1.15-1.36,1.56h-2.8c1.07-0.97,1.91-2.15,2.54-3.54c0.63-1.39,0.94-2.97,0.94-4.74v-1.4
			c0-1.71-0.31-3.26-0.93-4.67s-1.47-2.61-2.55-3.61h2.78c0.51,0.44,0.97,0.97,1.4,1.6s0.79,1.32,1.1,2.09s0.55,1.6,0.73,2.49
			C756.81,288.11,756.9,289.04,756.9,290z"/>
	</g>
	<g>
		<path d="M806,261v59H541v-59H806 M807,260H540v61h267V260L807,260z"/>
	</g>
</g>
<g>
	<g>
		<path d="M915.18,287.08h-0.06l-1.02,2.04l-2.72,4.94l-2.66-4.92l-1.06-2.2h-0.06v9.3h-2.86v-13.96h3.22l3.42,6.54h0.04l3.38-6.54
			h3.24v13.96h-2.86V287.08z"/>
		<path d="M928.7,296.48c-0.92,0-1.76-0.15-2.52-0.46s-1.41-0.76-1.94-1.37s-0.95-1.36-1.24-2.26c-0.29-0.9-0.44-1.94-0.44-3.13
			c0-1.19,0.15-2.23,0.44-3.13c0.29-0.9,0.71-1.65,1.24-2.26c0.53-0.61,1.18-1.06,1.94-1.37s1.6-0.46,2.52-0.46s1.76,0.15,2.52,0.46
			s1.41,0.76,1.94,1.37c0.53,0.61,0.95,1.36,1.24,2.26c0.29,0.9,0.44,1.94,0.44,3.13c0,1.19-0.15,2.23-0.44,3.13
			c-0.29,0.9-0.71,1.65-1.24,2.26s-1.18,1.06-1.94,1.37S929.62,296.48,928.7,296.48z M928.7,293.78c0.92,0,1.64-0.3,2.15-0.9
			c0.51-0.6,0.77-1.46,0.77-2.58v-2.08c0-1.12-0.26-1.98-0.77-2.58c-0.51-0.6-1.23-0.9-2.15-0.9s-1.64,0.3-2.15,0.9
			c-0.51,0.6-0.77,1.46-0.77,2.58v2.08c0,1.12,0.26,1.98,0.77,2.58C927.06,293.48,927.78,293.78,928.7,293.78z"/>
		<path d="M942.24,282.28v8.56c0,0.99,0.19,1.72,0.58,2.21c0.39,0.49,1.03,0.73,1.94,0.73c0.91,0,1.55-0.24,1.94-0.73
			c0.39-0.49,0.58-1.22,0.58-2.21v-8.56h2.96v8.24c0,1.03-0.1,1.92-0.29,2.67s-0.51,1.37-0.95,1.86c-0.44,0.49-1.01,0.85-1.7,1.08
			c-0.69,0.23-1.54,0.35-2.54,0.35s-1.85-0.12-2.54-0.35c-0.69-0.23-1.26-0.59-1.7-1.08c-0.44-0.49-0.76-1.11-0.95-1.86
			s-0.29-1.64-0.29-2.67v-8.24H942.24z"/>
		<path d="M959.48,289.64l-1.34-2.8h-0.06v9.4h-2.86v-13.96h3.32l3.82,6.6l1.34,2.8h0.06v-9.4h2.86v13.96h-3.32L959.48,289.64z"/>
		<path d="M977.5,284.98v11.26h-3.04v-11.26h-3.78v-2.7h10.6v2.7H977.5z"/>
	</g>
	<g>
		<path d="M1076,261v59H811v-59H1076 M1077,260H810v61h267V260L1077,260z"/>
	</g>
</g>
<g>
	<g>
		<g>
			<path d="M267,70v59H2V70H267 M268,69H1v61h267V69L268,69z"/>
		</g>
		<g>
			<path d="M91.86,105.24v-1.06h4.08V92.16h-0.1L92,95.58l-0.68-0.76l3.98-3.54h1.84v12.9h3.84v1.06H91.86z"/>
			<path d="M107.64,105.24l5.6-12.9h-6.68v2.88h-1.08v-3.94h8.98v1.08l-5.54,12.88H107.64z"/>
			<path d="M125.8,105.24v-2.92h-6.94v-1.06l6.36-9.98h1.72v10.04h2.16v1h-2.16v2.92H125.8z M119.98,101.32h5.82V92.3h-0.06
				L119.98,101.32z"/>
			<path d="M145.4,105.48c-1.73,0-3.07-0.6-4.02-1.81c-0.95-1.21-1.42-3-1.42-5.37c0-2.36,0.47-4.16,1.42-5.4
				c0.95-1.24,2.29-1.86,4.02-1.86c1.12,0,2.06,0.26,2.83,0.79c0.77,0.53,1.36,1.25,1.79,2.17l-0.98,0.58
				c-0.31-0.76-0.77-1.36-1.39-1.81c-0.62-0.45-1.37-0.67-2.25-0.67c-1.31,0-2.33,0.47-3.06,1.4s-1.1,2.27-1.1,4.01v1.59
				c0,1.73,0.37,3.04,1.1,3.95c0.73,0.91,1.75,1.36,3.06,1.36c0.93,0,1.71-0.24,2.34-0.71c0.63-0.47,1.09-1.11,1.4-1.91l0.98,0.58
				c-0.41,0.96-1.02,1.72-1.82,2.27C147.5,105.2,146.53,105.48,145.4,105.48z"/>
			<path d="M165.96,92.82h-0.08l-4.82,8.54l-4.82-8.54h-0.08v12.42H155V91.28h1.64l4.42,7.86h0.06l4.42-7.86h1.58v13.96h-1.16V92.82
				z"/>
		</g>
	</g>
	<g>
		<g>
			<path d="M267,131v59H2v-59H267 M268,130H1v61h267V130L268,130z"/>
		</g>
		<g>
			<path d="M91.86,166.24v-1.06h4.08v-12.02h-0.1L92,156.58l-0.68-0.76l3.98-3.54h1.84v12.9h3.84v1.06H91.86z"/>
			<path d="M107.64,166.24l5.6-12.9h-6.68v2.88h-1.08v-3.94h8.98v1.08l-5.54,12.88H107.64z"/>
			<path d="M128.52,157.16c0,1.08-0.15,2.08-0.45,3.01c-0.3,0.93-0.69,1.77-1.17,2.53c-0.48,0.76-1.03,1.44-1.65,2.03
				c-0.62,0.59-1.25,1.1-1.89,1.51h-1.56c0.77-0.53,1.46-1.07,2.06-1.6c0.6-0.53,1.12-1.1,1.57-1.69c0.45-0.59,0.82-1.23,1.12-1.9
				c0.3-0.67,0.54-1.42,0.71-2.25l-0.08-0.02c-0.35,0.63-0.8,1.12-1.37,1.49c-0.57,0.37-1.27,0.55-2.11,0.55
				c-0.61,0-1.18-0.1-1.69-0.3c-0.51-0.2-0.95-0.48-1.32-0.85c-0.37-0.37-0.65-0.81-0.85-1.34c-0.2-0.53-0.3-1.12-0.3-1.77
				c0-0.68,0.11-1.3,0.32-1.85c0.21-0.55,0.51-1.03,0.9-1.42c0.39-0.39,0.86-0.7,1.41-0.92c0.55-0.22,1.17-0.33,1.85-0.33
				c0.73,0,1.38,0.12,1.94,0.37c0.56,0.25,1.03,0.59,1.41,1.04c0.38,0.45,0.67,0.99,0.86,1.62
				C128.42,155.7,128.52,156.4,128.52,157.16z M124.04,159.8c1.03,0,1.82-0.29,2.39-0.86c0.57-0.57,0.85-1.34,0.85-2.31v-0.32
				c0-0.98-0.29-1.76-0.86-2.34c-0.57-0.58-1.37-0.87-2.38-0.87c-1.03,0-1.83,0.29-2.4,0.87s-0.86,1.35-0.86,2.32v0.34
				c0,0.97,0.28,1.74,0.85,2.31C122.2,159.51,123,159.8,124.04,159.8z"/>
			<path d="M145.4,166.48c-1.73,0-3.07-0.6-4.02-1.81c-0.95-1.21-1.42-3-1.42-5.37c0-2.36,0.47-4.16,1.42-5.4
				c0.95-1.24,2.29-1.86,4.02-1.86c1.12,0,2.06,0.26,2.83,0.79c0.77,0.53,1.36,1.25,1.79,2.17l-0.98,0.58
				c-0.31-0.76-0.77-1.36-1.39-1.81c-0.62-0.45-1.37-0.67-2.25-0.67c-1.31,0-2.33,0.47-3.06,1.4s-1.1,2.27-1.1,4.01v1.59
				c0,1.73,0.37,3.04,1.1,3.95c0.73,0.91,1.75,1.36,3.06,1.36c0.93,0,1.71-0.24,2.34-0.71c0.63-0.47,1.09-1.11,1.4-1.91l0.98,0.58
				c-0.41,0.96-1.02,1.72-1.82,2.27C147.5,166.2,146.53,166.48,145.4,166.48z"/>
			<path d="M165.96,153.82h-0.08l-4.82,8.54l-4.82-8.54h-0.08v12.42H155v-13.96h1.64l4.42,7.86h0.06l4.42-7.86h1.58v13.96h-1.16
				V153.82z"/>
		</g>
		<g>
			<g>
				<path d="M267,192v59H2v-59H267 M268,191H1v61h267V191L268,191z"/>
			</g>
			<g>
				<path d="M91.86,227.24v-1.06h4.08v-12.02h-0.1L92,217.58l-0.68-0.76l3.98-3.54h1.84v12.9h3.84v1.06H91.86z"/>
				<path d="M110.04,227.48c-0.76,0-1.43-0.1-2.02-0.3c-0.59-0.2-1.08-0.47-1.49-0.82c-0.41-0.35-0.71-0.76-0.92-1.25
					c-0.21-0.49-0.31-1.02-0.31-1.59c0-0.97,0.27-1.76,0.8-2.35c0.53-0.59,1.25-0.99,2.14-1.19v-0.14
					c-0.76-0.21-1.36-0.61-1.81-1.18c-0.45-0.57-0.67-1.28-0.67-2.12c0-1.07,0.38-1.92,1.13-2.55c0.75-0.63,1.8-0.95,3.15-0.95
					s2.4,0.32,3.15,0.95c0.75,0.63,1.13,1.48,1.13,2.55c0,0.84-0.22,1.55-0.67,2.12c-0.45,0.57-1.05,0.97-1.81,1.18v0.14
					c0.89,0.2,1.61,0.6,2.14,1.19c0.53,0.59,0.8,1.38,0.8,2.35c0,0.57-0.1,1.1-0.31,1.59s-0.51,0.9-0.92,1.25
					c-0.41,0.35-0.9,0.62-1.49,0.82C111.47,227.38,110.8,227.48,110.04,227.48z M110.04,226.42c1.08,0,1.93-0.25,2.54-0.75
					s0.92-1.17,0.92-2.02v-0.46c0-0.86-0.31-1.54-0.92-2.03c-0.61-0.49-1.46-0.74-2.54-0.74s-1.93,0.25-2.54,0.74
					c-0.61,0.49-0.92,1.17-0.92,2.03v0.46c0,0.85,0.31,1.53,0.92,2.02S108.96,226.42,110.04,226.42z M110.04,219.4
					c0.96,0,1.71-0.22,2.24-0.65s0.8-1.04,0.8-1.82v-0.36c0-0.77-0.27-1.38-0.8-1.81s-1.28-0.66-2.24-0.66s-1.71,0.22-2.24,0.66
					s-0.8,1.04-0.8,1.81v0.36c0,0.78,0.27,1.39,0.8,1.82S109.08,219.4,110.04,219.4z"/>
				<path d="M125.8,227.24v-2.92h-6.94v-1.06l6.36-9.98h1.72v10.04h2.16v1h-2.16v2.92H125.8z M119.98,223.32h5.82v-9.02h-0.06
					L119.98,223.32z"/>
				<path d="M145.4,227.48c-1.73,0-3.07-0.6-4.02-1.81c-0.95-1.21-1.42-3-1.42-5.37c0-2.36,0.47-4.16,1.42-5.4
					c0.95-1.24,2.29-1.86,4.02-1.86c1.12,0,2.06,0.26,2.83,0.79c0.77,0.53,1.36,1.25,1.79,2.17l-0.98,0.58
					c-0.31-0.76-0.77-1.36-1.39-1.81c-0.62-0.45-1.37-0.67-2.25-0.67c-1.31,0-2.33,0.47-3.06,1.4s-1.1,2.27-1.1,4.01v1.59
					c0,1.73,0.37,3.04,1.1,3.95c0.73,0.91,1.75,1.36,3.06,1.36c0.93,0,1.71-0.24,2.34-0.71c0.63-0.47,1.09-1.11,1.4-1.91l0.98,0.58
					c-0.41,0.96-1.02,1.72-1.82,2.27C147.5,227.2,146.53,227.48,145.4,227.48z"/>
				<path d="M165.96,214.82h-0.08l-4.82,8.54l-4.82-8.54h-0.08v12.42H155v-13.96h1.64l4.42,7.86h0.06l4.42-7.86h1.58v13.96h-1.16
					V214.82z"/>
			</g>
		</g>
	</g>
</g>
<g>
	<g>
		<g>
			<path d="M537,70v59H272V70H537 M538,69H271v61h267V69L538,69z"/>
		</g>
		<g>
			<path d="M361.86,105.24v-1.06h4.08V92.16h-0.1L362,95.58l-0.68-0.76l3.98-3.54h1.84v12.9h3.84v1.06H361.86z"/>
			<path d="M381.82,105.24v-2.92h-6.94v-1.06l6.36-9.98h1.72v10.04h2.16v1h-2.16v2.92H381.82z M376,101.32h5.82V92.3h-0.06
				L376,101.32z"/>
			<path d="M389.82,105.24v-1.06h4.08V92.16h-0.1l-3.84,3.42l-0.68-0.76l3.98-3.54h1.84v12.9h3.84v1.06H389.82z"/>
			<path d="M410.56,105.24V95h1.14v1.62h0.06c0.11-0.25,0.24-0.49,0.4-0.71s0.35-0.42,0.58-0.59c0.23-0.17,0.5-0.31,0.81-0.41
				s0.68-0.15,1.11-0.15c0.73,0,1.38,0.17,1.94,0.52c0.56,0.35,0.97,0.89,1.22,1.64h0.06c0.19-0.6,0.54-1.11,1.07-1.53
				c0.53-0.42,1.24-0.63,2.15-0.63c1.09,0,1.93,0.34,2.52,1.01c0.59,0.67,0.88,1.64,0.88,2.89v6.58h-1.14v-6.38
				c0-2.05-0.86-3.08-2.58-3.08c-0.36,0-0.7,0.05-1.02,0.14c-0.32,0.09-0.6,0.24-0.85,0.43s-0.44,0.43-0.59,0.72
				c-0.15,0.29-0.22,0.62-0.22,0.99v7.18h-1.14v-6.38c0-2.05-0.85-3.08-2.56-3.08c-0.35,0-0.68,0.05-1.01,0.14
				c-0.33,0.09-0.62,0.23-0.87,0.42c-0.25,0.19-0.45,0.42-0.6,0.71c-0.15,0.29-0.22,0.62-0.22,0.99v7.2H410.56z"/>
			<path d="M430.06,105.24V95h1.14v1.62h0.06c0.11-0.25,0.24-0.49,0.4-0.71s0.35-0.42,0.58-0.59c0.23-0.17,0.5-0.31,0.81-0.41
				s0.68-0.15,1.11-0.15c0.73,0,1.38,0.17,1.94,0.52c0.56,0.35,0.97,0.89,1.22,1.64h0.06c0.19-0.6,0.54-1.11,1.07-1.53
				c0.53-0.42,1.24-0.63,2.15-0.63c1.09,0,1.93,0.34,2.52,1.01c0.59,0.67,0.88,1.64,0.88,2.89v6.58h-1.14v-6.38
				c0-2.05-0.86-3.08-2.58-3.08c-0.36,0-0.7,0.05-1.02,0.14c-0.32,0.09-0.6,0.24-0.85,0.43s-0.44,0.43-0.59,0.72
				c-0.15,0.29-0.22,0.62-0.22,0.99v7.18h-1.14v-6.38c0-2.05-0.85-3.08-2.56-3.08c-0.35,0-0.68,0.05-1.01,0.14
				c-0.33,0.09-0.62,0.23-0.87,0.42c-0.25,0.19-0.45,0.42-0.6,0.71c-0.15,0.29-0.22,0.62-0.22,0.99v7.2H430.06z"/>
		</g>
	</g>
	<g>
		<g>
			<path d="M537,131v59H272v-59H537 M538,130H271v61h267V130L538,130z"/>
		</g>
		<g>
			<path d="M361.86,166.24v-1.06h4.08v-12.02h-0.1l-3.84,3.42l-0.68-0.76l3.98-3.54h1.84v12.9h3.84v1.06H361.86z"/>
			<path d="M381.82,166.24v-2.92h-6.94v-1.06l6.36-9.98h1.72v10.04h2.16v1h-2.16v2.92H381.82z M376,162.32h5.82v-9.02h-0.06
				L376,162.32z"/>
			<path d="M389.82,166.24v-1.06h4.08v-12.02h-0.1l-3.84,3.42l-0.68-0.76l3.98-3.54h1.84v12.9h3.84v1.06H389.82z"/>
			<path d="M410.56,166.24V156h1.14v1.62h0.06c0.11-0.25,0.24-0.49,0.4-0.71s0.35-0.42,0.58-0.59c0.23-0.17,0.5-0.31,0.81-0.41
				s0.68-0.15,1.11-0.15c0.73,0,1.38,0.17,1.94,0.52c0.56,0.35,0.97,0.89,1.22,1.64h0.06c0.19-0.6,0.54-1.11,1.07-1.53
				c0.53-0.42,1.24-0.63,2.15-0.63c1.09,0,1.93,0.34,2.52,1.01c0.59,0.67,0.88,1.64,0.88,2.89v6.58h-1.14v-6.38
				c0-2.05-0.86-3.08-2.58-3.08c-0.36,0-0.7,0.05-1.02,0.14c-0.32,0.09-0.6,0.24-0.85,0.43s-0.44,0.43-0.59,0.72
				c-0.15,0.29-0.22,0.62-0.22,0.99v7.18h-1.14v-6.38c0-2.05-0.85-3.08-2.56-3.08c-0.35,0-0.68,0.05-1.01,0.14
				c-0.33,0.09-0.62,0.23-0.87,0.42c-0.25,0.19-0.45,0.42-0.6,0.71c-0.15,0.29-0.22,0.62-0.22,0.99v7.2H410.56z"/>
			<path d="M430.06,166.24V156h1.14v1.62h0.06c0.11-0.25,0.24-0.49,0.4-0.71s0.35-0.42,0.58-0.59c0.23-0.17,0.5-0.31,0.81-0.41
				s0.68-0.15,1.11-0.15c0.73,0,1.38,0.17,1.94,0.52c0.56,0.35,0.97,0.89,1.22,1.64h0.06c0.19-0.6,0.54-1.11,1.07-1.53
				c0.53-0.42,1.24-0.63,2.15-0.63c1.09,0,1.93,0.34,2.52,1.01c0.59,0.67,0.88,1.64,0.88,2.89v6.58h-1.14v-6.38
				c0-2.05-0.86-3.08-2.58-3.08c-0.36,0-0.7,0.05-1.02,0.14c-0.32,0.09-0.6,0.24-0.85,0.43s-0.44,0.43-0.59,0.72
				c-0.15,0.29-0.22,0.62-0.22,0.99v7.18h-1.14v-6.38c0-2.05-0.85-3.08-2.56-3.08c-0.35,0-0.68,0.05-1.01,0.14
				c-0.33,0.09-0.62,0.23-0.87,0.42c-0.25,0.19-0.45,0.42-0.6,0.71c-0.15,0.29-0.22,0.62-0.22,0.99v7.2H430.06z"/>
		</g>
		<g>
			<g>
				<path d="M537,192v59H272v-59H537 M538,191H271v61h267V191L538,191z"/>
			</g>
			<g>
				<path d="M361.86,227.24v-1.06h4.08v-12.02h-0.1l-3.84,3.42l-0.68-0.76l3.98-3.54h1.84v12.9h3.84v1.06H361.86z"/>
				<path d="M381.82,227.24v-2.92h-6.94v-1.06l6.36-9.98h1.72v10.04h2.16v1h-2.16v2.92H381.82z M376,223.32h5.82v-9.02h-0.06
					L376,223.32z"/>
				<path d="M389.82,227.24v-1.06h4.08v-12.02h-0.1l-3.84,3.42l-0.68-0.76l3.98-3.54h1.84v12.9h3.84v1.06H389.82z"/>
				<path d="M410.56,227.24V217h1.14v1.62h0.06c0.11-0.25,0.24-0.49,0.4-0.71s0.35-0.42,0.58-0.59c0.23-0.17,0.5-0.31,0.81-0.41
					s0.68-0.15,1.11-0.15c0.73,0,1.38,0.17,1.94,0.52c0.56,0.35,0.97,0.89,1.22,1.64h0.06c0.19-0.6,0.54-1.11,1.07-1.53
					c0.53-0.42,1.24-0.63,2.15-0.63c1.09,0,1.93,0.34,2.52,1.01c0.59,0.67,0.88,1.64,0.88,2.89v6.58h-1.14v-6.38
					c0-2.05-0.86-3.08-2.58-3.08c-0.36,0-0.7,0.05-1.02,0.14c-0.32,0.09-0.6,0.24-0.85,0.43s-0.44,0.43-0.59,0.72
					c-0.15,0.29-0.22,0.62-0.22,0.99v7.18h-1.14v-6.38c0-2.05-0.85-3.08-2.56-3.08c-0.35,0-0.68,0.05-1.01,0.14
					c-0.33,0.09-0.62,0.23-0.87,0.42c-0.25,0.19-0.45,0.42-0.6,0.71c-0.15,0.29-0.22,0.62-0.22,0.99v7.2H410.56z"/>
				<path d="M430.06,227.24V217h1.14v1.62h0.06c0.11-0.25,0.24-0.49,0.4-0.71s0.35-0.42,0.58-0.59c0.23-0.17,0.5-0.31,0.81-0.41
					s0.68-0.15,1.11-0.15c0.73,0,1.38,0.17,1.94,0.52c0.56,0.35,0.97,0.89,1.22,1.64h0.06c0.19-0.6,0.54-1.11,1.07-1.53
					c0.53-0.42,1.24-0.63,2.15-0.63c1.09,0,1.93,0.34,2.52,1.01c0.59,0.67,0.88,1.64,0.88,2.89v6.58h-1.14v-6.38
					c0-2.05-0.86-3.08-2.58-3.08c-0.36,0-0.7,0.05-1.02,0.14c-0.32,0.09-0.6,0.24-0.85,0.43s-0.44,0.43-0.59,0.72
					c-0.15,0.29-0.22,0.62-0.22,0.99v7.18h-1.14v-6.38c0-2.05-0.85-3.08-2.56-3.08c-0.35,0-0.68,0.05-1.01,0.14
					c-0.33,0.09-0.62,0.23-0.87,0.42c-0.25,0.19-0.45,0.42-0.6,0.71c-0.15,0.29-0.22,0.62-0.22,0.99v7.2H430.06z"/>
			</g>
		</g>
	</g>
</g>
<g>
	<g>
		<g>
			<path d="M807,70v59H542V70H807 M808,69H541v61h267V69L808,69z"/>
		</g>
		<g>
			<path d="M631.86,105.24v-1.06h4.08V92.16h-0.1L632,95.58l-0.68-0.76l3.98-3.54h1.84v12.9h3.84v1.06H631.86z"/>
			<path d="M645.84,105.24v-1.06h4.08V92.16h-0.1l-3.84,3.42l-0.68-0.76l3.98-3.54h1.84v12.9h3.84v1.06H645.84z"/>
			<path d="M664.04,105.48c-0.75,0-1.4-0.12-1.96-0.37c-0.56-0.25-1.03-0.59-1.41-1.04c-0.38-0.45-0.67-0.99-0.86-1.62
				c-0.19-0.63-0.29-1.33-0.29-2.09c0-1.08,0.15-2.08,0.45-3.01s0.69-1.77,1.17-2.53c0.48-0.76,1.03-1.44,1.65-2.03
				c0.62-0.59,1.25-1.1,1.89-1.51h1.58c-0.77,0.53-1.46,1.07-2.06,1.6c-0.6,0.53-1.13,1.1-1.58,1.69c-0.45,0.59-0.83,1.23-1.13,1.91
				c-0.3,0.68-0.54,1.43-0.71,2.24l0.08,0.02c0.35-0.63,0.8-1.12,1.37-1.49c0.57-0.37,1.27-0.55,2.11-0.55c0.61,0,1.18,0.1,1.69,0.3
				s0.95,0.48,1.32,0.85c0.37,0.37,0.65,0.81,0.85,1.34c0.2,0.53,0.3,1.12,0.3,1.77c0,0.68-0.11,1.3-0.32,1.85
				c-0.21,0.55-0.51,1.03-0.9,1.42s-0.85,0.7-1.4,0.92C665.33,105.37,664.72,105.48,664.04,105.48z M664.02,104.42
				c1.01,0,1.81-0.29,2.38-0.87s0.86-1.35,0.86-2.32v-0.34c0-0.97-0.28-1.74-0.85-2.31c-0.57-0.57-1.36-0.86-2.39-0.86
				c-1.04,0-1.84,0.29-2.41,0.86c-0.57,0.57-0.85,1.34-0.85,2.31v0.32c0,0.98,0.29,1.76,0.86,2.34S662.99,104.42,664.02,104.42z"/>
			<path d="M680.56,105.24V95h1.14v1.62h0.06c0.11-0.25,0.24-0.49,0.4-0.71s0.35-0.42,0.58-0.59c0.23-0.17,0.5-0.31,0.81-0.41
				s0.68-0.15,1.11-0.15c0.73,0,1.38,0.17,1.94,0.52c0.56,0.35,0.97,0.89,1.22,1.64h0.06c0.19-0.6,0.54-1.11,1.07-1.53
				c0.53-0.42,1.24-0.63,2.15-0.63c1.09,0,1.93,0.34,2.52,1.01c0.59,0.67,0.88,1.64,0.88,2.89v6.58h-1.14v-6.38
				c0-2.05-0.86-3.08-2.58-3.08c-0.36,0-0.7,0.05-1.02,0.14c-0.32,0.09-0.6,0.24-0.85,0.43s-0.44,0.43-0.59,0.72
				c-0.15,0.29-0.22,0.62-0.22,0.99v7.18h-1.14v-6.38c0-2.05-0.85-3.08-2.56-3.08c-0.35,0-0.68,0.05-1.01,0.14
				c-0.33,0.09-0.62,0.23-0.87,0.42c-0.25,0.19-0.45,0.42-0.6,0.71c-0.15,0.29-0.22,0.62-0.22,0.99v7.2H680.56z"/>
			<path d="M700.06,105.24V95h1.14v1.62h0.06c0.11-0.25,0.24-0.49,0.4-0.71s0.35-0.42,0.58-0.59c0.23-0.17,0.5-0.31,0.81-0.41
				s0.68-0.15,1.11-0.15c0.73,0,1.38,0.17,1.94,0.52c0.56,0.35,0.97,0.89,1.22,1.64h0.06c0.19-0.6,0.54-1.11,1.07-1.53
				c0.53-0.42,1.24-0.63,2.15-0.63c1.09,0,1.93,0.34,2.52,1.01c0.59,0.67,0.88,1.64,0.88,2.89v6.58h-1.14v-6.38
				c0-2.05-0.86-3.08-2.58-3.08c-0.36,0-0.7,0.05-1.02,0.14c-0.32,0.09-0.6,0.24-0.85,0.43s-0.44,0.43-0.59,0.72
				c-0.15,0.29-0.22,0.62-0.22,0.99v7.18h-1.14v-6.38c0-2.05-0.85-3.08-2.56-3.08c-0.35,0-0.68,0.05-1.01,0.14
				c-0.33,0.09-0.62,0.23-0.87,0.42c-0.25,0.19-0.45,0.42-0.6,0.71c-0.15,0.29-0.22,0.62-0.22,0.99v7.2H700.06z"/>
		</g>
	</g>
	<g>
		<g>
			<path d="M807,131v59H542v-59H807 M808,130H541v61h267V130L808,130z"/>
		</g>
		<g>
			<path d="M631.86,166.24v-1.06h4.08v-12.02h-0.1l-3.84,3.42l-0.68-0.76l3.98-3.54h1.84v12.9h3.84v1.06H631.86z"/>
			<path d="M645.84,166.24v-1.06h4.08v-12.02h-0.1l-3.84,3.42l-0.68-0.76l3.98-3.54h1.84v12.9h3.84v1.06H645.84z"/>
			<path d="M664.04,166.48c-0.75,0-1.4-0.12-1.96-0.37c-0.56-0.25-1.03-0.59-1.41-1.04c-0.38-0.45-0.67-0.99-0.86-1.62
				c-0.19-0.63-0.29-1.33-0.29-2.09c0-1.08,0.15-2.08,0.45-3.01s0.69-1.77,1.17-2.53c0.48-0.76,1.03-1.44,1.65-2.03
				c0.62-0.59,1.25-1.1,1.89-1.51h1.58c-0.77,0.53-1.46,1.07-2.06,1.6c-0.6,0.53-1.13,1.1-1.58,1.69c-0.45,0.59-0.83,1.23-1.13,1.91
				c-0.3,0.68-0.54,1.43-0.71,2.24l0.08,0.02c0.35-0.63,0.8-1.12,1.37-1.49c0.57-0.37,1.27-0.55,2.11-0.55c0.61,0,1.18,0.1,1.69,0.3
				s0.95,0.48,1.32,0.85c0.37,0.37,0.65,0.81,0.85,1.34c0.2,0.53,0.3,1.12,0.3,1.77c0,0.68-0.11,1.3-0.32,1.85
				c-0.21,0.55-0.51,1.03-0.9,1.42s-0.85,0.7-1.4,0.92C665.33,166.37,664.72,166.48,664.04,166.48z M664.02,165.42
				c1.01,0,1.81-0.29,2.38-0.87s0.86-1.35,0.86-2.32v-0.34c0-0.97-0.28-1.74-0.85-2.31c-0.57-0.57-1.36-0.86-2.39-0.86
				c-1.04,0-1.84,0.29-2.41,0.86c-0.57,0.57-0.85,1.34-0.85,2.31v0.32c0,0.98,0.29,1.76,0.86,2.34S662.99,165.42,664.02,165.42z"/>
			<path d="M680.56,166.24V156h1.14v1.62h0.06c0.11-0.25,0.24-0.49,0.4-0.71s0.35-0.42,0.58-0.59c0.23-0.17,0.5-0.31,0.81-0.41
				s0.68-0.15,1.11-0.15c0.73,0,1.38,0.17,1.94,0.52c0.56,0.35,0.97,0.89,1.22,1.64h0.06c0.19-0.6,0.54-1.11,1.07-1.53
				c0.53-0.42,1.24-0.63,2.15-0.63c1.09,0,1.93,0.34,2.52,1.01c0.59,0.67,0.88,1.64,0.88,2.89v6.58h-1.14v-6.38
				c0-2.05-0.86-3.08-2.58-3.08c-0.36,0-0.7,0.05-1.02,0.14c-0.32,0.09-0.6,0.24-0.85,0.43s-0.44,0.43-0.59,0.72
				c-0.15,0.29-0.22,0.62-0.22,0.99v7.18h-1.14v-6.38c0-2.05-0.85-3.08-2.56-3.08c-0.35,0-0.68,0.05-1.01,0.14
				c-0.33,0.09-0.62,0.23-0.87,0.42c-0.25,0.19-0.45,0.42-0.6,0.71c-0.15,0.29-0.22,0.62-0.22,0.99v7.2H680.56z"/>
			<path d="M700.06,166.24V156h1.14v1.62h0.06c0.11-0.25,0.24-0.49,0.4-0.71s0.35-0.42,0.58-0.59c0.23-0.17,0.5-0.31,0.81-0.41
				s0.68-0.15,1.11-0.15c0.73,0,1.38,0.17,1.94,0.52c0.56,0.35,0.97,0.89,1.22,1.64h0.06c0.19-0.6,0.54-1.11,1.07-1.53
				c0.53-0.42,1.24-0.63,2.15-0.63c1.09,0,1.93,0.34,2.52,1.01c0.59,0.67,0.88,1.64,0.88,2.89v6.58h-1.14v-6.38
				c0-2.05-0.86-3.08-2.58-3.08c-0.36,0-0.7,0.05-1.02,0.14c-0.32,0.09-0.6,0.24-0.85,0.43s-0.44,0.43-0.59,0.72
				c-0.15,0.29-0.22,0.62-0.22,0.99v7.18h-1.14v-6.38c0-2.05-0.85-3.08-2.56-3.08c-0.35,0-0.68,0.05-1.01,0.14
				c-0.33,0.09-0.62,0.23-0.87,0.42c-0.25,0.19-0.45,0.42-0.6,0.71c-0.15,0.29-0.22,0.62-0.22,0.99v7.2H700.06z"/>
		</g>
		<g>
			<g>
				<path d="M807,192v59H542v-59H807 M808,191H541v61h267V191L808,191z"/>
			</g>
			<g>
				<path d="M631.86,227.24v-1.06h4.08v-12.02h-0.1l-3.84,3.42l-0.68-0.76l3.98-3.54h1.84v12.9h3.84v1.06H631.86z"/>
				<path d="M645.84,227.24v-1.06h4.08v-12.02h-0.1l-3.84,3.42l-0.68-0.76l3.98-3.54h1.84v12.9h3.84v1.06H645.84z"/>
				<path d="M664.04,227.48c-0.75,0-1.4-0.12-1.96-0.37c-0.56-0.25-1.03-0.59-1.41-1.04c-0.38-0.45-0.67-0.99-0.86-1.62
					c-0.19-0.63-0.29-1.33-0.29-2.09c0-1.08,0.15-2.08,0.45-3.01s0.69-1.77,1.17-2.53c0.48-0.76,1.03-1.44,1.65-2.03
					c0.62-0.59,1.25-1.1,1.89-1.51h1.58c-0.77,0.53-1.46,1.07-2.06,1.6c-0.6,0.53-1.13,1.1-1.58,1.69
					c-0.45,0.59-0.83,1.23-1.13,1.91c-0.3,0.68-0.54,1.43-0.71,2.24l0.08,0.02c0.35-0.63,0.8-1.12,1.37-1.49
					c0.57-0.37,1.27-0.55,2.11-0.55c0.61,0,1.18,0.1,1.69,0.3s0.95,0.48,1.32,0.85c0.37,0.37,0.65,0.81,0.85,1.34
					c0.2,0.53,0.3,1.12,0.3,1.77c0,0.68-0.11,1.3-0.32,1.85c-0.21,0.55-0.51,1.03-0.9,1.42s-0.85,0.7-1.4,0.92
					C665.33,227.37,664.72,227.48,664.04,227.48z M664.02,226.42c1.01,0,1.81-0.29,2.38-0.87s0.86-1.35,0.86-2.32v-0.34
					c0-0.97-0.28-1.74-0.85-2.31c-0.57-0.57-1.36-0.86-2.39-0.86c-1.04,0-1.84,0.29-2.41,0.86c-0.57,0.57-0.85,1.34-0.85,2.31v0.32
					c0,0.98,0.29,1.76,0.86,2.34S662.99,226.42,664.02,226.42z"/>
				<path d="M680.56,227.24V217h1.14v1.62h0.06c0.11-0.25,0.24-0.49,0.4-0.71s0.35-0.42,0.58-0.59c0.23-0.17,0.5-0.31,0.81-0.41
					s0.68-0.15,1.11-0.15c0.73,0,1.38,0.17,1.94,0.52c0.56,0.35,0.97,0.89,1.22,1.64h0.06c0.19-0.6,0.54-1.11,1.07-1.53
					c0.53-0.42,1.24-0.63,2.15-0.63c1.09,0,1.93,0.34,2.52,1.01c0.59,0.67,0.88,1.64,0.88,2.89v6.58h-1.14v-6.38
					c0-2.05-0.86-3.08-2.58-3.08c-0.36,0-0.7,0.05-1.02,0.14c-0.32,0.09-0.6,0.24-0.85,0.43s-0.44,0.43-0.59,0.72
					c-0.15,0.29-0.22,0.62-0.22,0.99v7.18h-1.14v-6.38c0-2.05-0.85-3.08-2.56-3.08c-0.35,0-0.68,0.05-1.01,0.14
					c-0.33,0.09-0.62,0.23-0.87,0.42c-0.25,0.19-0.45,0.42-0.6,0.71c-0.15,0.29-0.22,0.62-0.22,0.99v7.2H680.56z"/>
				<path d="M700.06,227.24V217h1.14v1.62h0.06c0.11-0.25,0.24-0.49,0.4-0.71s0.35-0.42,0.58-0.59c0.23-0.17,0.5-0.31,0.81-0.41
					s0.68-0.15,1.11-0.15c0.73,0,1.38,0.17,1.94,0.52c0.56,0.35,0.97,0.89,1.22,1.64h0.06c0.19-0.6,0.54-1.11,1.07-1.53
					c0.53-0.42,1.24-0.63,2.15-0.63c1.09,0,1.93,0.34,2.52,1.01c0.59,0.67,0.88,1.64,0.88,2.89v6.58h-1.14v-6.38
					c0-2.05-0.86-3.08-2.58-3.08c-0.36,0-0.7,0.05-1.02,0.14c-0.32,0.09-0.6,0.24-0.85,0.43s-0.44,0.43-0.59,0.72
					c-0.15,0.29-0.22,0.62-0.22,0.99v7.18h-1.14v-6.38c0-2.05-0.85-3.08-2.56-3.08c-0.35,0-0.68,0.05-1.01,0.14
					c-0.33,0.09-0.62,0.23-0.87,0.42c-0.25,0.19-0.45,0.42-0.6,0.71c-0.15,0.29-0.22,0.62-0.22,0.99v7.2H700.06z"/>
			</g>
		</g>
	</g>
</g>
<g>
	<g>
		<g>
			<path d="M267,330v59H2v-59H267 M268,329H1v61h267V329L268,329z"/>
		</g>
		<g>
			<path d="M100.62,365.24h-8.96v-1.22l4.88-4.68c0.65-0.64,1.19-1.3,1.6-1.97c0.41-0.68,0.62-1.37,0.62-2.08v-0.38
				c0-0.83-0.24-1.5-0.72-2.03c-0.48-0.52-1.2-0.78-2.16-0.78c-0.93,0-1.65,0.23-2.14,0.7c-0.49,0.47-0.85,1.07-1.08,1.82l-1.08-0.4
				c0.13-0.43,0.31-0.83,0.54-1.22s0.52-0.72,0.87-1.01s0.77-0.52,1.25-0.69c0.48-0.17,1.04-0.26,1.68-0.26
				c0.65,0,1.24,0.1,1.75,0.29c0.51,0.19,0.95,0.46,1.3,0.81c0.35,0.35,0.62,0.76,0.8,1.25s0.27,1.03,0.27,1.63
				c0,0.51-0.07,0.98-0.2,1.43c-0.13,0.45-0.32,0.87-0.56,1.28c-0.24,0.41-0.53,0.81-0.88,1.2c-0.35,0.39-0.73,0.78-1.14,1.17
				l-4.3,4.09h7.66V365.24z"/>
			<path d="M105.84,365.24v-1.06h4.08v-12.02h-0.1l-3.84,3.42l-0.68-0.76l3.98-3.54h1.84v12.9h3.84v1.06H105.84z"/>
			<path d="M120.62,365.42c-0.33,0-0.58-0.08-0.73-0.25c-0.15-0.17-0.23-0.38-0.23-0.65v-0.22c0-0.27,0.08-0.48,0.23-0.65
				s0.4-0.25,0.73-0.25c0.32,0,0.56,0.08,0.72,0.25s0.24,0.38,0.24,0.65v0.22c0,0.27-0.08,0.48-0.24,0.65
				C121.18,365.34,120.94,365.42,120.62,365.42z"/>
			<path d="M131.2,365.48c-3.15,0-4.72-2.41-4.72-7.22c0-4.81,1.57-7.22,4.72-7.22s4.72,2.41,4.72,7.22
				C135.92,363.07,134.35,365.48,131.2,365.48z M131.2,364.42c1.17,0,2.04-0.46,2.61-1.39c0.57-0.93,0.85-2.21,0.85-3.83v-1.87
				c0-1.62-0.28-2.9-0.85-3.83c-0.57-0.93-1.44-1.4-2.61-1.4c-1.19,0-2.06,0.46-2.62,1.4c-0.56,0.93-0.84,2.21-0.84,3.83v1.87
				c0,1.62,0.28,2.9,0.84,3.83C129.14,363.95,130.01,364.42,131.2,364.42z"/>
			<path d="M141.04,365.24V355h1.14v1.62h0.06c0.11-0.25,0.24-0.49,0.4-0.71s0.35-0.42,0.58-0.59c0.23-0.17,0.5-0.31,0.81-0.41
				s0.68-0.15,1.11-0.15c0.73,0,1.38,0.17,1.94,0.52c0.56,0.35,0.97,0.89,1.22,1.64h0.06c0.19-0.6,0.54-1.11,1.07-1.53
				c0.53-0.42,1.24-0.63,2.15-0.63c1.09,0,1.93,0.34,2.52,1.01c0.59,0.67,0.88,1.64,0.88,2.89v6.58h-1.14v-6.38
				c0-2.05-0.86-3.08-2.58-3.08c-0.36,0-0.7,0.05-1.02,0.14c-0.32,0.09-0.6,0.24-0.85,0.43s-0.44,0.43-0.59,0.72
				c-0.15,0.29-0.22,0.62-0.22,0.99v7.18h-1.14v-6.38c0-2.05-0.85-3.08-2.56-3.08c-0.35,0-0.68,0.05-1.01,0.14
				c-0.33,0.09-0.62,0.23-0.87,0.42c-0.25,0.19-0.45,0.42-0.6,0.71c-0.15,0.29-0.22,0.62-0.22,0.99v7.2H141.04z"/>
		</g>
	</g>
	<g>
		<g>
			<path d="M267,391v59H2v-59H267 M268,390H1v61h267V390L268,390z"/>
		</g>
		<g>
			<path d="M100.62,426.24h-8.96v-1.22l4.88-4.68c0.65-0.64,1.19-1.3,1.6-1.97c0.41-0.68,0.62-1.37,0.62-2.08v-0.38
				c0-0.83-0.24-1.5-0.72-2.03c-0.48-0.52-1.2-0.78-2.16-0.78c-0.93,0-1.65,0.23-2.14,0.7c-0.49,0.47-0.85,1.07-1.08,1.82l-1.08-0.4
				c0.13-0.43,0.31-0.83,0.54-1.22s0.52-0.72,0.87-1.01s0.77-0.52,1.25-0.69c0.48-0.17,1.04-0.26,1.68-0.26
				c0.65,0,1.24,0.1,1.75,0.29c0.51,0.19,0.95,0.46,1.3,0.81c0.35,0.35,0.62,0.76,0.8,1.25s0.27,1.03,0.27,1.63
				c0,0.51-0.07,0.98-0.2,1.43c-0.13,0.45-0.32,0.87-0.56,1.28c-0.24,0.41-0.53,0.81-0.88,1.2c-0.35,0.39-0.73,0.78-1.14,1.17
				l-4.3,4.09h7.66V426.24z"/>
			<path d="M109.4,418.36c0.96,0,1.71-0.24,2.25-0.71s0.81-1.09,0.81-1.84v-0.26c0-0.78-0.26-1.39-0.78-1.81
				c-0.52-0.42-1.19-0.64-2-0.64s-1.46,0.16-1.95,0.49c-0.49,0.33-0.88,0.77-1.17,1.33l-0.9-0.64c0.16-0.29,0.36-0.58,0.6-0.85
				c0.24-0.27,0.52-0.51,0.85-0.72c0.33-0.21,0.7-0.37,1.13-0.49c0.43-0.12,0.91-0.18,1.46-0.18c0.57,0,1.11,0.08,1.6,0.24
				s0.92,0.39,1.28,0.69s0.64,0.66,0.85,1.09c0.21,0.43,0.31,0.92,0.31,1.46c0,0.94-0.26,1.68-0.78,2.21
				c-0.52,0.53-1.17,0.89-1.94,1.08v0.08c0.41,0.07,0.8,0.19,1.16,0.37c0.36,0.18,0.68,0.42,0.95,0.71s0.49,0.65,0.65,1.06
				s0.24,0.88,0.24,1.41c0,0.6-0.11,1.16-0.32,1.66c-0.21,0.5-0.52,0.93-0.91,1.28c-0.39,0.35-0.87,0.62-1.42,0.81
				c-0.55,0.19-1.17,0.29-1.85,0.29c-1.12,0-2.03-0.21-2.72-0.64c-0.69-0.43-1.26-0.97-1.7-1.62l0.9-0.68
				c0.39,0.6,0.85,1.06,1.39,1.39c0.54,0.33,1.24,0.49,2.11,0.49c1.01,0,1.81-0.25,2.38-0.75c0.57-0.5,0.86-1.2,0.86-2.08v-0.32
				c0-0.89-0.28-1.58-0.84-2.08c-0.56-0.5-1.36-0.75-2.4-0.75h-1.76v-1.06H109.4z"/>
			<path d="M120.62,426.42c-0.33,0-0.58-0.08-0.73-0.25c-0.15-0.17-0.23-0.38-0.23-0.65v-0.22c0-0.27,0.08-0.48,0.23-0.65
				s0.4-0.25,0.73-0.25c0.32,0,0.56,0.08,0.72,0.25s0.24,0.38,0.24,0.65v0.22c0,0.27-0.08,0.48-0.24,0.65
				C121.18,426.34,120.94,426.42,120.62,426.42z"/>
			<path d="M131.2,426.48c-3.15,0-4.72-2.41-4.72-7.22c0-4.81,1.57-7.22,4.72-7.22s4.72,2.41,4.72,7.22
				C135.92,424.07,134.35,426.48,131.2,426.48z M131.2,425.42c1.17,0,2.04-0.46,2.61-1.39c0.57-0.93,0.85-2.21,0.85-3.83v-1.87
				c0-1.62-0.28-2.9-0.85-3.83c-0.57-0.93-1.44-1.4-2.61-1.4c-1.19,0-2.06,0.46-2.62,1.4c-0.56,0.93-0.84,2.21-0.84,3.83v1.87
				c0,1.62,0.28,2.9,0.84,3.83C129.14,424.95,130.01,425.42,131.2,425.42z"/>
			<path d="M141.04,426.24V416h1.14v1.62h0.06c0.11-0.25,0.24-0.49,0.4-0.71s0.35-0.42,0.58-0.59c0.23-0.17,0.5-0.31,0.81-0.41
				s0.68-0.15,1.11-0.15c0.73,0,1.38,0.17,1.94,0.52c0.56,0.35,0.97,0.89,1.22,1.64h0.06c0.19-0.6,0.54-1.11,1.07-1.53
				c0.53-0.42,1.24-0.63,2.15-0.63c1.09,0,1.93,0.34,2.52,1.01c0.59,0.67,0.88,1.64,0.88,2.89v6.58h-1.14v-6.38
				c0-2.05-0.86-3.08-2.58-3.08c-0.36,0-0.7,0.05-1.02,0.14c-0.32,0.09-0.6,0.24-0.85,0.43s-0.44,0.43-0.59,0.72
				c-0.15,0.29-0.22,0.62-0.22,0.99v7.18h-1.14v-6.38c0-2.05-0.85-3.08-2.56-3.08c-0.35,0-0.68,0.05-1.01,0.14
				c-0.33,0.09-0.62,0.23-0.87,0.42c-0.25,0.19-0.45,0.42-0.6,0.71c-0.15,0.29-0.22,0.62-0.22,0.99v7.2H141.04z"/>
		</g>
		<g>
			<g>
				<path d="M267,452v59H2v-59H267 M268,451H1v61h267V451L268,451z"/>
			</g>
			<g>
				<path d="M100.62,487.24h-8.96v-1.22l4.88-4.68c0.65-0.64,1.19-1.3,1.6-1.97c0.41-0.68,0.62-1.37,0.62-2.08v-0.38
					c0-0.83-0.24-1.5-0.72-2.03c-0.48-0.52-1.2-0.78-2.16-0.78c-0.93,0-1.65,0.23-2.14,0.7c-0.49,0.47-0.85,1.07-1.08,1.82
					l-1.08-0.4c0.13-0.43,0.31-0.83,0.54-1.22s0.52-0.72,0.87-1.01s0.77-0.52,1.25-0.69c0.48-0.17,1.04-0.26,1.68-0.26
					c0.65,0,1.24,0.1,1.75,0.29c0.51,0.19,0.95,0.46,1.3,0.81c0.35,0.35,0.62,0.76,0.8,1.25s0.27,1.03,0.27,1.63
					c0,0.51-0.07,0.98-0.2,1.43c-0.13,0.45-0.32,0.87-0.56,1.28c-0.24,0.41-0.53,0.81-0.88,1.2c-0.35,0.39-0.73,0.78-1.14,1.17
					l-4.3,4.09h7.66V487.24z"/>
				<path d="M113.86,474.34h-6.24l-0.44,5.84l0.12,0.02c0.35-0.49,0.75-0.86,1.22-1.11c0.47-0.25,1.07-0.37,1.82-0.37
					c0.61,0,1.17,0.1,1.68,0.29c0.51,0.19,0.94,0.47,1.3,0.84c0.36,0.37,0.64,0.81,0.83,1.34c0.19,0.53,0.29,1.12,0.29,1.79
					c0,0.68-0.1,1.3-0.31,1.85c-0.21,0.55-0.5,1.03-0.89,1.42c-0.39,0.39-0.86,0.7-1.41,0.91c-0.55,0.21-1.18,0.32-1.87,0.32
					c-0.55,0-1.04-0.06-1.48-0.17c-0.44-0.11-0.83-0.27-1.18-0.47c-0.35-0.2-0.66-0.44-0.93-0.72s-0.52-0.58-0.73-0.9l0.9-0.68
					c0.39,0.6,0.84,1.06,1.35,1.39c0.51,0.33,1.2,0.49,2.07,0.49c1.04,0,1.84-0.28,2.39-0.85c0.55-0.57,0.83-1.34,0.83-2.32v-0.34
					c0-0.98-0.27-1.75-0.81-2.32s-1.32-0.85-2.35-0.85c-0.36,0-0.68,0.03-0.96,0.09c-0.28,0.06-0.53,0.15-0.75,0.26
					c-0.22,0.11-0.42,0.25-0.6,0.4s-0.36,0.33-0.53,0.53l-1.04-0.16l0.5-7.58h7.22V474.34z"/>
				<path d="M120.62,487.42c-0.33,0-0.58-0.08-0.73-0.25c-0.15-0.17-0.23-0.38-0.23-0.65v-0.22c0-0.27,0.08-0.48,0.23-0.65
					s0.4-0.25,0.73-0.25c0.32,0,0.56,0.08,0.72,0.25s0.24,0.38,0.24,0.65v0.22c0,0.27-0.08,0.48-0.24,0.65
					C121.18,487.34,120.94,487.42,120.62,487.42z"/>
				<path d="M131.2,487.48c-3.15,0-4.72-2.41-4.72-7.22c0-4.81,1.57-7.22,4.72-7.22s4.72,2.41,4.72,7.22
					C135.92,485.07,134.35,487.48,131.2,487.48z M131.2,486.42c1.17,0,2.04-0.46,2.61-1.39c0.57-0.93,0.85-2.21,0.85-3.83v-1.87
					c0-1.62-0.28-2.9-0.85-3.83c-0.57-0.93-1.44-1.4-2.61-1.4c-1.19,0-2.06,0.46-2.62,1.4c-0.56,0.93-0.84,2.21-0.84,3.83v1.87
					c0,1.62,0.28,2.9,0.84,3.83C129.14,485.95,130.01,486.42,131.2,486.42z"/>
				<path d="M141.04,487.24V477h1.14v1.62h0.06c0.11-0.25,0.24-0.49,0.4-0.71s0.35-0.42,0.58-0.59c0.23-0.17,0.5-0.31,0.81-0.41
					s0.68-0.15,1.11-0.15c0.73,0,1.38,0.17,1.94,0.52c0.56,0.35,0.97,0.89,1.22,1.64h0.06c0.19-0.6,0.54-1.11,1.07-1.53
					c0.53-0.42,1.24-0.63,2.15-0.63c1.09,0,1.93,0.34,2.52,1.01c0.59,0.67,0.88,1.64,0.88,2.89v6.58h-1.14v-6.38
					c0-2.05-0.86-3.08-2.58-3.08c-0.36,0-0.7,0.05-1.02,0.14c-0.32,0.09-0.6,0.24-0.85,0.43s-0.44,0.43-0.59,0.72
					c-0.15,0.29-0.22,0.62-0.22,0.99v7.18h-1.14v-6.38c0-2.05-0.85-3.08-2.56-3.08c-0.35,0-0.68,0.05-1.01,0.14
					c-0.33,0.09-0.62,0.23-0.87,0.42c-0.25,0.19-0.45,0.42-0.6,0.71c-0.15,0.29-0.22,0.62-0.22,0.99v7.2H141.04z"/>
			</g>
		</g>
	</g>
</g>
<g>
	<g>
		<g>
			<path d="M537,330v59H272v-59H537 M538,329H271v61h267V329L538,329z"/>
		</g>
		<g>
			<path d="M361.86,365.24v-1.06h4.08v-12.02h-0.1l-3.84,3.42l-0.68-0.76l3.98-3.54h1.84v12.9h3.84v1.06H361.86z"/>
			<path d="M381.82,365.24v-2.92h-6.94v-1.06l6.36-9.98h1.72v10.04h2.16v1h-2.16v2.92H381.82z M376,361.32h5.82v-9.02h-0.06
				L376,361.32z"/>
			<path d="M394.02,365.48c-3.15,0-4.72-2.41-4.72-7.22c0-4.81,1.57-7.22,4.72-7.22s4.72,2.41,4.72,7.22
				C398.74,363.07,397.17,365.48,394.02,365.48z M394.02,364.42c1.17,0,2.04-0.46,2.61-1.39c0.57-0.93,0.85-2.21,0.85-3.83v-1.87
				c0-1.62-0.28-2.9-0.85-3.83c-0.57-0.93-1.44-1.4-2.61-1.4c-1.19,0-2.06,0.46-2.62,1.4c-0.56,0.93-0.84,2.21-0.84,3.83v1.87
				c0,1.62,0.28,2.9,0.84,3.83C391.96,363.95,392.83,364.42,394.02,364.42z"/>
			<path d="M408,365.48c-3.15,0-4.72-2.41-4.72-7.22c0-4.81,1.57-7.22,4.72-7.22s4.72,2.41,4.72,7.22
				C412.72,363.07,411.15,365.48,408,365.48z M408,364.42c1.17,0,2.04-0.46,2.61-1.39c0.57-0.93,0.85-2.21,0.85-3.83v-1.87
				c0-1.62-0.28-2.9-0.85-3.83c-0.57-0.93-1.44-1.4-2.61-1.4c-1.19,0-2.06,0.46-2.62,1.4c-0.56,0.93-0.84,2.21-0.84,3.83v1.87
				c0,1.62,0.28,2.9,0.84,3.83C405.94,363.95,406.81,364.42,408,364.42z"/>
			<path d="M417.84,365.24V355h1.14v1.62h0.06c0.11-0.25,0.24-0.49,0.4-0.71s0.35-0.42,0.58-0.59c0.23-0.17,0.5-0.31,0.81-0.41
				s0.68-0.15,1.11-0.15c0.73,0,1.38,0.17,1.94,0.52c0.56,0.35,0.97,0.89,1.22,1.64h0.06c0.19-0.6,0.54-1.11,1.07-1.53
				c0.53-0.42,1.24-0.63,2.15-0.63c1.09,0,1.93,0.34,2.52,1.01c0.59,0.67,0.88,1.64,0.88,2.89v6.58h-1.14v-6.38
				c0-2.05-0.86-3.08-2.58-3.08c-0.36,0-0.7,0.05-1.02,0.14c-0.32,0.09-0.6,0.24-0.85,0.43s-0.44,0.43-0.59,0.72
				c-0.15,0.29-0.22,0.62-0.22,0.99v7.18h-1.14v-6.38c0-2.05-0.85-3.08-2.56-3.08c-0.35,0-0.68,0.05-1.01,0.14
				c-0.33,0.09-0.62,0.23-0.87,0.42c-0.25,0.19-0.45,0.42-0.6,0.71c-0.15,0.29-0.22,0.62-0.22,0.99v7.2H417.84z"/>
			<path d="M437.34,365.24V355h1.14v1.62h0.06c0.11-0.25,0.24-0.49,0.4-0.71s0.35-0.42,0.58-0.59c0.23-0.17,0.5-0.31,0.81-0.41
				s0.68-0.15,1.11-0.15c0.73,0,1.38,0.17,1.94,0.52c0.56,0.35,0.97,0.89,1.22,1.64h0.06c0.19-0.6,0.54-1.11,1.07-1.53
				c0.53-0.42,1.24-0.63,2.15-0.63c1.09,0,1.93,0.34,2.52,1.01c0.59,0.67,0.88,1.64,0.88,2.89v6.58h-1.14v-6.38
				c0-2.05-0.86-3.08-2.58-3.08c-0.36,0-0.7,0.05-1.02,0.14c-0.32,0.09-0.6,0.24-0.85,0.43s-0.44,0.43-0.59,0.72
				c-0.15,0.29-0.22,0.62-0.22,0.99v7.18h-1.14v-6.38c0-2.05-0.85-3.08-2.56-3.08c-0.35,0-0.68,0.05-1.01,0.14
				c-0.33,0.09-0.62,0.23-0.87,0.42c-0.25,0.19-0.45,0.42-0.6,0.71c-0.15,0.29-0.22,0.62-0.22,0.99v7.2H437.34z"/>
		</g>
	</g>
	<g>
		<g>
			<path d="M537,391v59H272v-59H537 M538,390H271v61h267V390L538,390z"/>
		</g>
		<g>
			<path d="M361.86,426.24v-1.06h4.08v-12.02h-0.1l-3.84,3.42l-0.68-0.76l3.98-3.54h1.84v12.9h3.84v1.06H361.86z"/>
			<path d="M381.82,426.24v-2.92h-6.94v-1.06l6.36-9.98h1.72v10.04h2.16v1h-2.16v2.92H381.82z M376,422.32h5.82v-9.02h-0.06
				L376,422.32z"/>
			<path d="M397.84,413.34h-6.24l-0.44,5.84l0.12,0.02c0.35-0.49,0.75-0.86,1.22-1.11c0.47-0.25,1.07-0.37,1.82-0.37
				c0.61,0,1.17,0.1,1.68,0.29c0.51,0.19,0.94,0.47,1.3,0.84c0.36,0.37,0.64,0.81,0.83,1.34c0.19,0.53,0.29,1.12,0.29,1.79
				c0,0.68-0.1,1.3-0.31,1.85c-0.21,0.55-0.5,1.03-0.89,1.42c-0.39,0.39-0.86,0.7-1.41,0.91c-0.55,0.21-1.18,0.32-1.87,0.32
				c-0.55,0-1.04-0.06-1.48-0.17c-0.44-0.11-0.83-0.27-1.18-0.47c-0.35-0.2-0.66-0.44-0.93-0.72s-0.52-0.58-0.73-0.9l0.9-0.68
				c0.39,0.6,0.84,1.06,1.35,1.39c0.51,0.33,1.2,0.49,2.07,0.49c1.04,0,1.84-0.28,2.39-0.85c0.55-0.57,0.83-1.34,0.83-2.32v-0.34
				c0-0.98-0.27-1.75-0.81-2.32s-1.32-0.85-2.35-0.85c-0.36,0-0.68,0.03-0.96,0.09c-0.28,0.06-0.53,0.15-0.75,0.26
				c-0.22,0.11-0.42,0.25-0.6,0.4s-0.36,0.33-0.53,0.53l-1.04-0.16l0.5-7.58h7.22V413.34z"/>
			<path d="M408,426.48c-3.15,0-4.72-2.41-4.72-7.22c0-4.81,1.57-7.22,4.72-7.22s4.72,2.41,4.72,7.22
				C412.72,424.07,411.15,426.48,408,426.48z M408,425.42c1.17,0,2.04-0.46,2.61-1.39c0.57-0.93,0.85-2.21,0.85-3.83v-1.87
				c0-1.62-0.28-2.9-0.85-3.83c-0.57-0.93-1.44-1.4-2.61-1.4c-1.19,0-2.06,0.46-2.62,1.4c-0.56,0.93-0.84,2.21-0.84,3.83v1.87
				c0,1.62,0.28,2.9,0.84,3.83C405.94,424.95,406.81,425.42,408,425.42z"/>
			<path d="M417.84,426.24V416h1.14v1.62h0.06c0.11-0.25,0.24-0.49,0.4-0.71s0.35-0.42,0.58-0.59c0.23-0.17,0.5-0.31,0.81-0.41
				s0.68-0.15,1.11-0.15c0.73,0,1.38,0.17,1.94,0.52c0.56,0.35,0.97,0.89,1.22,1.64h0.06c0.19-0.6,0.54-1.11,1.07-1.53
				c0.53-0.42,1.24-0.63,2.15-0.63c1.09,0,1.93,0.34,2.52,1.01c0.59,0.67,0.88,1.64,0.88,2.89v6.58h-1.14v-6.38
				c0-2.05-0.86-3.08-2.58-3.08c-0.36,0-0.7,0.05-1.02,0.14c-0.32,0.09-0.6,0.24-0.85,0.43s-0.44,0.43-0.59,0.72
				c-0.15,0.29-0.22,0.62-0.22,0.99v7.18h-1.14v-6.38c0-2.05-0.85-3.08-2.56-3.08c-0.35,0-0.68,0.05-1.01,0.14
				c-0.33,0.09-0.62,0.23-0.87,0.42c-0.25,0.19-0.45,0.42-0.6,0.71c-0.15,0.29-0.22,0.62-0.22,0.99v7.2H417.84z"/>
			<path d="M437.34,426.24V416h1.14v1.62h0.06c0.11-0.25,0.24-0.49,0.4-0.71s0.35-0.42,0.58-0.59c0.23-0.17,0.5-0.31,0.81-0.41
				s0.68-0.15,1.11-0.15c0.73,0,1.38,0.17,1.94,0.52c0.56,0.35,0.97,0.89,1.22,1.64h0.06c0.19-0.6,0.54-1.11,1.07-1.53
				c0.53-0.42,1.24-0.63,2.15-0.63c1.09,0,1.93,0.34,2.52,1.01c0.59,0.67,0.88,1.64,0.88,2.89v6.58h-1.14v-6.38
				c0-2.05-0.86-3.08-2.58-3.08c-0.36,0-0.7,0.05-1.02,0.14c-0.32,0.09-0.6,0.24-0.85,0.43s-0.44,0.43-0.59,0.72
				c-0.15,0.29-0.22,0.62-0.22,0.99v7.18h-1.14v-6.38c0-2.05-0.85-3.08-2.56-3.08c-0.35,0-0.68,0.05-1.01,0.14
				c-0.33,0.09-0.62,0.23-0.87,0.42c-0.25,0.19-0.45,0.42-0.6,0.71c-0.15,0.29-0.22,0.62-0.22,0.99v7.2H437.34z"/>
		</g>
		<g>
			<g>
				<path d="M537,452v59H272v-59H537 M538,451H271v61h267V451L538,451z"/>
			</g>
			<g>
				<path d="M361.86,487.24v-1.06h4.08v-12.02h-0.1l-3.84,3.42l-0.68-0.76l3.98-3.54h1.84v12.9h3.84v1.06H361.86z"/>
				<path d="M383.86,474.34h-6.24l-0.44,5.84l0.12,0.02c0.35-0.49,0.75-0.86,1.22-1.11c0.47-0.25,1.07-0.37,1.82-0.37
					c0.61,0,1.17,0.1,1.68,0.29c0.51,0.19,0.94,0.47,1.3,0.84c0.36,0.37,0.64,0.81,0.83,1.34c0.19,0.53,0.29,1.12,0.29,1.79
					c0,0.68-0.1,1.3-0.31,1.85c-0.21,0.55-0.5,1.03-0.89,1.42c-0.39,0.39-0.86,0.7-1.41,0.91c-0.55,0.21-1.18,0.32-1.87,0.32
					c-0.55,0-1.04-0.06-1.48-0.17c-0.44-0.11-0.83-0.27-1.18-0.47c-0.35-0.2-0.66-0.44-0.93-0.72s-0.52-0.58-0.73-0.9l0.9-0.68
					c0.39,0.6,0.84,1.06,1.35,1.39c0.51,0.33,1.2,0.49,2.07,0.49c1.04,0,1.84-0.28,2.39-0.85c0.55-0.57,0.83-1.34,0.83-2.32v-0.34
					c0-0.98-0.27-1.75-0.81-2.32s-1.32-0.85-2.35-0.85c-0.36,0-0.68,0.03-0.96,0.09c-0.28,0.06-0.53,0.15-0.75,0.26
					c-0.22,0.11-0.42,0.25-0.6,0.4s-0.36,0.33-0.53,0.53l-1.04-0.16l0.5-7.58h7.22V474.34z"/>
				<path d="M394.02,487.48c-3.15,0-4.72-2.41-4.72-7.22c0-4.81,1.57-7.22,4.72-7.22s4.72,2.41,4.72,7.22
					C398.74,485.07,397.17,487.48,394.02,487.48z M394.02,486.42c1.17,0,2.04-0.46,2.61-1.39c0.57-0.93,0.85-2.21,0.85-3.83v-1.87
					c0-1.62-0.28-2.9-0.85-3.83c-0.57-0.93-1.44-1.4-2.61-1.4c-1.19,0-2.06,0.46-2.62,1.4c-0.56,0.93-0.84,2.21-0.84,3.83v1.87
					c0,1.62,0.28,2.9,0.84,3.83C391.96,485.95,392.83,486.42,394.02,486.42z"/>
				<path d="M408,487.48c-3.15,0-4.72-2.41-4.72-7.22c0-4.81,1.57-7.22,4.72-7.22s4.72,2.41,4.72,7.22
					C412.72,485.07,411.15,487.48,408,487.48z M408,486.42c1.17,0,2.04-0.46,2.61-1.39c0.57-0.93,0.85-2.21,0.85-3.83v-1.87
					c0-1.62-0.28-2.9-0.85-3.83c-0.57-0.93-1.44-1.4-2.61-1.4c-1.19,0-2.06,0.46-2.62,1.4c-0.56,0.93-0.84,2.21-0.84,3.83v1.87
					c0,1.62,0.28,2.9,0.84,3.83C405.94,485.95,406.81,486.42,408,486.42z"/>
				<path d="M417.84,487.24V477h1.14v1.62h0.06c0.11-0.25,0.24-0.49,0.4-0.71s0.35-0.42,0.58-0.59c0.23-0.17,0.5-0.31,0.81-0.41
					s0.68-0.15,1.11-0.15c0.73,0,1.38,0.17,1.94,0.52c0.56,0.35,0.97,0.89,1.22,1.64h0.06c0.19-0.6,0.54-1.11,1.07-1.53
					c0.53-0.42,1.24-0.63,2.15-0.63c1.09,0,1.93,0.34,2.52,1.01c0.59,0.67,0.88,1.64,0.88,2.89v6.58h-1.14v-6.38
					c0-2.05-0.86-3.08-2.58-3.08c-0.36,0-0.7,0.05-1.02,0.14c-0.32,0.09-0.6,0.24-0.85,0.43s-0.44,0.43-0.59,0.72
					c-0.15,0.29-0.22,0.62-0.22,0.99v7.18h-1.14v-6.38c0-2.05-0.85-3.08-2.56-3.08c-0.35,0-0.68,0.05-1.01,0.14
					c-0.33,0.09-0.62,0.23-0.87,0.42c-0.25,0.19-0.45,0.42-0.6,0.71c-0.15,0.29-0.22,0.62-0.22,0.99v7.2H417.84z"/>
				<path d="M437.34,487.24V477h1.14v1.62h0.06c0.11-0.25,0.24-0.49,0.4-0.71s0.35-0.42,0.58-0.59c0.23-0.17,0.5-0.31,0.81-0.41
					s0.68-0.15,1.11-0.15c0.73,0,1.38,0.17,1.94,0.52c0.56,0.35,0.97,0.89,1.22,1.64h0.06c0.19-0.6,0.54-1.11,1.07-1.53
					c0.53-0.42,1.24-0.63,2.15-0.63c1.09,0,1.93,0.34,2.52,1.01c0.59,0.67,0.88,1.64,0.88,2.89v6.58h-1.14v-6.38
					c0-2.05-0.86-3.08-2.58-3.08c-0.36,0-0.7,0.05-1.02,0.14c-0.32,0.09-0.6,0.24-0.85,0.43s-0.44,0.43-0.59,0.72
					c-0.15,0.29-0.22,0.62-0.22,0.99v7.18h-1.14v-6.38c0-2.05-0.85-3.08-2.56-3.08c-0.35,0-0.68,0.05-1.01,0.14
					c-0.33,0.09-0.62,0.23-0.87,0.42c-0.25,0.19-0.45,0.42-0.6,0.71c-0.15,0.29-0.22,0.62-0.22,0.99v7.2H437.34z"/>
			</g>
		</g>
	</g>
</g>
<g>
	<g>
		<g>
			<path d="M807,330v59H542v-59H807 M808,329H541v61h267V329L808,329z"/>
		</g>
		<g>
			<path d="M636.06,365.48c-0.76,0-1.43-0.1-2.02-0.3c-0.59-0.2-1.08-0.47-1.49-0.82c-0.41-0.35-0.71-0.76-0.92-1.25
				c-0.21-0.49-0.31-1.02-0.31-1.59c0-0.97,0.27-1.76,0.8-2.35c0.53-0.59,1.25-0.99,2.14-1.19v-0.14c-0.76-0.21-1.36-0.61-1.81-1.18
				c-0.45-0.57-0.67-1.28-0.67-2.12c0-1.07,0.38-1.92,1.13-2.55c0.75-0.63,1.8-0.95,3.15-0.95s2.4,0.32,3.15,0.95
				c0.75,0.63,1.13,1.48,1.13,2.55c0,0.84-0.22,1.55-0.67,2.12c-0.45,0.57-1.05,0.97-1.81,1.18v0.14c0.89,0.2,1.61,0.6,2.14,1.19
				c0.53,0.59,0.8,1.38,0.8,2.35c0,0.57-0.1,1.1-0.31,1.59s-0.51,0.9-0.92,1.25c-0.41,0.35-0.9,0.62-1.49,0.82
				C637.49,365.38,636.82,365.48,636.06,365.48z M636.06,364.42c1.08,0,1.93-0.25,2.54-0.75s0.92-1.17,0.92-2.02v-0.46
				c0-0.86-0.31-1.54-0.92-2.03c-0.61-0.49-1.46-0.74-2.54-0.74s-1.93,0.25-2.54,0.74c-0.61,0.49-0.92,1.17-0.92,2.03v0.46
				c0,0.85,0.31,1.53,0.92,2.02S634.98,364.42,636.06,364.42z M636.06,357.4c0.96,0,1.71-0.22,2.24-0.65s0.8-1.04,0.8-1.82v-0.36
				c0-0.77-0.27-1.38-0.8-1.81s-1.28-0.66-2.24-0.66s-1.71,0.22-2.24,0.66s-0.8,1.04-0.8,1.81v0.36c0,0.78,0.27,1.39,0.8,1.82
				S635.1,357.4,636.06,357.4z"/>
			<path d="M646.64,365.42c-0.33,0-0.58-0.08-0.73-0.25c-0.15-0.17-0.23-0.38-0.23-0.65v-0.22c0-0.27,0.08-0.48,0.23-0.65
				s0.4-0.25,0.73-0.25c0.32,0,0.56,0.08,0.72,0.25s0.24,0.38,0.24,0.65v0.22c0,0.27-0.08,0.48-0.24,0.65
				C647.2,365.34,646.96,365.42,646.64,365.42z"/>
			<path d="M659,365.24v-2.92h-6.94v-1.06l6.36-9.98h1.72v10.04h2.16v1h-2.16v2.92H659z M653.18,361.32H659v-9.02h-0.06
				L653.18,361.32z"/>
			<path d="M667,365.24v-1.06h4.08v-12.02h-0.1l-3.84,3.42l-0.68-0.76l3.98-3.54h1.84v12.9h3.84v1.06H667z"/>
			<path d="M682.3,365.24c-0.41,0-0.73-0.11-0.94-0.34c-0.21-0.23-0.32-0.53-0.32-0.9v-13.56h1.14v13.82h1.58v0.98H682.3z"/>
			<path d="M688.3,350.44h1.14v6.2h0.06c0.25-0.57,0.64-1.03,1.16-1.37c0.52-0.34,1.17-0.51,1.96-0.51c1.32,0,2.35,0.47,3.1,1.4
				c0.75,0.93,1.12,2.25,1.12,3.96c0,1.71-0.37,3.03-1.12,3.96c-0.75,0.93-1.78,1.4-3.1,1.4c-0.79,0-1.43-0.17-1.94-0.51
				c-0.51-0.34-0.9-0.8-1.18-1.37h-0.06v1.64h-1.14V350.44z M692.36,364.46c1.03,0,1.83-0.33,2.4-0.98
				c0.57-0.65,0.86-1.53,0.86-2.64v-1.44c0-1.11-0.29-1.99-0.86-2.64c-0.57-0.65-1.37-0.98-2.4-0.98c-0.4,0-0.78,0.06-1.13,0.17
				s-0.66,0.27-0.93,0.47c-0.27,0.2-0.48,0.44-0.63,0.72c-0.15,0.28-0.23,0.59-0.23,0.92v4.06c0,0.36,0.08,0.68,0.23,0.97
				c0.15,0.29,0.36,0.53,0.63,0.74c0.27,0.21,0.58,0.36,0.93,0.47C691.58,364.41,691.96,364.46,692.36,364.46z"/>
			<path d="M704.66,365.48c-0.89,0-1.66-0.17-2.29-0.5c-0.63-0.33-1.18-0.82-1.65-1.46l0.84-0.66c0.43,0.56,0.89,0.97,1.4,1.24
				s1.1,0.4,1.78,0.4c0.79,0,1.39-0.17,1.82-0.5c0.43-0.33,0.64-0.81,0.64-1.44c0-0.55-0.16-0.98-0.49-1.29
				c-0.33-0.31-0.86-0.52-1.61-0.63l-0.84-0.14c-0.47-0.07-0.89-0.17-1.28-0.3c-0.39-0.13-0.72-0.31-0.99-0.54s-0.49-0.5-0.64-0.83
				c-0.15-0.33-0.23-0.72-0.23-1.19c0-0.48,0.09-0.9,0.27-1.26c0.18-0.36,0.42-0.66,0.73-0.9s0.67-0.42,1.1-0.54
				c0.43-0.12,0.89-0.18,1.38-0.18c0.85,0,1.55,0.15,2.1,0.44c0.55,0.29,1.01,0.67,1.4,1.14l-0.76,0.7
				c-0.27-0.32-0.62-0.62-1.07-0.89c-0.45-0.27-1.02-0.41-1.73-0.41c-0.73,0-1.3,0.16-1.71,0.48c-0.41,0.32-0.61,0.77-0.61,1.36
				c0,0.6,0.18,1.03,0.55,1.3c0.37,0.27,0.92,0.46,1.65,0.58l0.82,0.12c1.04,0.16,1.81,0.47,2.31,0.93c0.5,0.46,0.75,1.1,0.75,1.93
				c0,0.96-0.32,1.71-0.97,2.24S705.79,365.48,704.66,365.48z"/>
		</g>
	</g>
	<g>
		<g>
			<path d="M807,391v59H542v-59H807 M808,390H541v61h267V390L808,390z"/>
		</g>
		<g>
			<path d="M640.56,417.16c0,1.08-0.15,2.08-0.45,3.01c-0.3,0.93-0.69,1.77-1.17,2.53c-0.48,0.76-1.03,1.44-1.65,2.03
				c-0.62,0.59-1.25,1.1-1.89,1.51h-1.56c0.77-0.53,1.46-1.07,2.06-1.6c0.6-0.53,1.12-1.1,1.57-1.69c0.45-0.59,0.82-1.23,1.12-1.9
				c0.3-0.67,0.54-1.42,0.71-2.25l-0.08-0.02c-0.35,0.63-0.8,1.12-1.37,1.49c-0.57,0.37-1.27,0.55-2.11,0.55
				c-0.61,0-1.18-0.1-1.69-0.3c-0.51-0.2-0.95-0.48-1.32-0.85c-0.37-0.37-0.65-0.81-0.85-1.34c-0.2-0.53-0.3-1.12-0.3-1.77
				c0-0.68,0.11-1.3,0.32-1.85c0.21-0.55,0.51-1.03,0.9-1.42c0.39-0.39,0.86-0.7,1.41-0.92c0.55-0.22,1.17-0.33,1.85-0.33
				c0.73,0,1.38,0.12,1.94,0.37c0.56,0.25,1.03,0.59,1.41,1.04c0.38,0.45,0.67,0.99,0.86,1.62
				C640.46,415.7,640.56,416.4,640.56,417.16z M636.08,419.8c1.03,0,1.82-0.29,2.39-0.86c0.57-0.57,0.85-1.34,0.85-2.31v-0.32
				c0-0.98-0.29-1.76-0.86-2.34c-0.57-0.58-1.37-0.87-2.38-0.87c-1.03,0-1.83,0.29-2.4,0.87s-0.86,1.35-0.86,2.32v0.34
				c0,0.97,0.28,1.74,0.85,2.31C634.24,419.51,635.04,419.8,636.08,419.8z"/>
			<path d="M646.64,426.42c-0.33,0-0.58-0.08-0.73-0.25c-0.15-0.17-0.23-0.38-0.23-0.65v-0.22c0-0.27,0.08-0.48,0.23-0.65
				s0.4-0.25,0.73-0.25c0.32,0,0.56,0.08,0.72,0.25s0.24,0.38,0.24,0.65v0.22c0,0.27-0.08,0.48-0.24,0.65
				C647.2,426.34,646.96,426.42,646.64,426.42z"/>
			<path d="M657.22,426.48c-3.15,0-4.72-2.41-4.72-7.22c0-4.81,1.57-7.22,4.72-7.22s4.72,2.41,4.72,7.22
				C661.94,424.07,660.37,426.48,657.22,426.48z M657.22,425.42c1.17,0,2.04-0.46,2.61-1.39c0.57-0.93,0.85-2.21,0.85-3.83v-1.87
				c0-1.62-0.28-2.9-0.85-3.83c-0.57-0.93-1.44-1.4-2.61-1.4c-1.19,0-2.06,0.46-2.62,1.4c-0.56,0.93-0.84,2.21-0.84,3.83v1.87
				c0,1.62,0.28,2.9,0.84,3.83C655.16,424.95,656.03,425.42,657.22,425.42z"/>
			<path d="M675.02,413.34h-6.24l-0.44,5.84l0.12,0.02c0.35-0.49,0.75-0.86,1.22-1.11c0.47-0.25,1.07-0.37,1.82-0.37
				c0.61,0,1.17,0.1,1.68,0.29c0.51,0.19,0.94,0.47,1.3,0.84c0.36,0.37,0.64,0.81,0.83,1.34c0.19,0.53,0.29,1.12,0.29,1.79
				c0,0.68-0.1,1.3-0.31,1.85c-0.21,0.55-0.5,1.03-0.89,1.42c-0.39,0.39-0.86,0.7-1.41,0.91c-0.55,0.21-1.18,0.32-1.87,0.32
				c-0.55,0-1.04-0.06-1.48-0.17c-0.44-0.11-0.83-0.27-1.18-0.47c-0.35-0.2-0.66-0.44-0.93-0.72s-0.52-0.58-0.73-0.9l0.9-0.68
				c0.39,0.6,0.84,1.06,1.35,1.39c0.51,0.33,1.2,0.49,2.07,0.49c1.04,0,1.84-0.28,2.39-0.85c0.55-0.57,0.83-1.34,0.83-2.32v-0.34
				c0-0.98-0.27-1.75-0.81-2.32s-1.32-0.85-2.35-0.85c-0.36,0-0.68,0.03-0.96,0.09c-0.28,0.06-0.53,0.15-0.75,0.26
				c-0.22,0.11-0.42,0.25-0.6,0.4s-0.36,0.33-0.53,0.53l-1.04-0.16l0.5-7.58h7.22V413.34z"/>
			<path d="M682.3,426.24c-0.41,0-0.73-0.11-0.94-0.34c-0.21-0.23-0.32-0.53-0.32-0.9v-13.56h1.14v13.82h1.58v0.98H682.3z"/>
			<path d="M688.3,411.44h1.14v6.2h0.06c0.25-0.57,0.64-1.03,1.16-1.37c0.52-0.34,1.17-0.51,1.96-0.51c1.32,0,2.35,0.47,3.1,1.4
				c0.75,0.93,1.12,2.25,1.12,3.96c0,1.71-0.37,3.03-1.12,3.96c-0.75,0.93-1.78,1.4-3.1,1.4c-0.79,0-1.43-0.17-1.94-0.51
				c-0.51-0.34-0.9-0.8-1.18-1.37h-0.06v1.64h-1.14V411.44z M692.36,425.46c1.03,0,1.83-0.33,2.4-0.98
				c0.57-0.65,0.86-1.53,0.86-2.64v-1.44c0-1.11-0.29-1.99-0.86-2.64c-0.57-0.65-1.37-0.98-2.4-0.98c-0.4,0-0.78,0.06-1.13,0.17
				s-0.66,0.27-0.93,0.47c-0.27,0.2-0.48,0.44-0.63,0.72c-0.15,0.28-0.23,0.59-0.23,0.92v4.06c0,0.36,0.08,0.68,0.23,0.97
				c0.15,0.29,0.36,0.53,0.63,0.74c0.27,0.21,0.58,0.36,0.93,0.47C691.58,425.41,691.96,425.46,692.36,425.46z"/>
			<path d="M704.66,426.48c-0.89,0-1.66-0.17-2.29-0.5c-0.63-0.33-1.18-0.82-1.65-1.46l0.84-0.66c0.43,0.56,0.89,0.97,1.4,1.24
				s1.1,0.4,1.78,0.4c0.79,0,1.39-0.17,1.82-0.5c0.43-0.33,0.64-0.81,0.64-1.44c0-0.55-0.16-0.98-0.49-1.29
				c-0.33-0.31-0.86-0.52-1.61-0.63l-0.84-0.14c-0.47-0.07-0.89-0.17-1.28-0.3c-0.39-0.13-0.72-0.31-0.99-0.54s-0.49-0.5-0.64-0.83
				c-0.15-0.33-0.23-0.72-0.23-1.19c0-0.48,0.09-0.9,0.27-1.26c0.18-0.36,0.42-0.66,0.73-0.9s0.67-0.42,1.1-0.54
				c0.43-0.12,0.89-0.18,1.38-0.18c0.85,0,1.55,0.15,2.1,0.44c0.55,0.29,1.01,0.67,1.4,1.14l-0.76,0.7
				c-0.27-0.32-0.62-0.62-1.07-0.89c-0.45-0.27-1.02-0.41-1.73-0.41c-0.73,0-1.3,0.16-1.71,0.48c-0.41,0.32-0.61,0.77-0.61,1.36
				c0,0.6,0.18,1.03,0.55,1.3c0.37,0.27,0.92,0.46,1.65,0.58l0.82,0.12c1.04,0.16,1.81,0.47,2.31,0.93c0.5,0.46,0.75,1.1,0.75,1.93
				c0,0.96-0.32,1.71-0.97,2.24S705.79,426.48,704.66,426.48z"/>
		</g>
		<g>
			<g>
				<path d="M807,452v59H542v-59H807 M808,451H541v61h267V451L808,451z"/>
			</g>
			<g>
				<path d="M640.56,478.16c0,1.08-0.15,2.08-0.45,3.01c-0.3,0.93-0.69,1.77-1.17,2.53c-0.48,0.76-1.03,1.44-1.65,2.03
					c-0.62,0.59-1.25,1.1-1.89,1.51h-1.56c0.77-0.53,1.46-1.07,2.06-1.6c0.6-0.53,1.12-1.1,1.57-1.69c0.45-0.59,0.82-1.23,1.12-1.9
					c0.3-0.67,0.54-1.42,0.71-2.25l-0.08-0.02c-0.35,0.63-0.8,1.12-1.37,1.49c-0.57,0.37-1.27,0.55-2.11,0.55
					c-0.61,0-1.18-0.1-1.69-0.3c-0.51-0.2-0.95-0.48-1.32-0.85c-0.37-0.37-0.65-0.81-0.85-1.34c-0.2-0.53-0.3-1.12-0.3-1.77
					c0-0.68,0.11-1.3,0.32-1.85c0.21-0.55,0.51-1.03,0.9-1.42c0.39-0.39,0.86-0.7,1.41-0.92c0.55-0.22,1.17-0.33,1.85-0.33
					c0.73,0,1.38,0.12,1.94,0.37c0.56,0.25,1.03,0.59,1.41,1.04c0.38,0.45,0.67,0.99,0.86,1.62
					C640.46,476.7,640.56,477.4,640.56,478.16z M636.08,480.8c1.03,0,1.82-0.29,2.39-0.86c0.57-0.57,0.85-1.34,0.85-2.31v-0.32
					c0-0.98-0.29-1.76-0.86-2.34c-0.57-0.58-1.37-0.87-2.38-0.87c-1.03,0-1.83,0.29-2.4,0.87s-0.86,1.35-0.86,2.32v0.34
					c0,0.97,0.28,1.74,0.85,2.31C634.24,480.51,635.04,480.8,636.08,480.8z"/>
				<path d="M646.64,487.42c-0.33,0-0.58-0.08-0.73-0.25c-0.15-0.17-0.23-0.38-0.23-0.65v-0.22c0-0.27,0.08-0.48,0.23-0.65
					s0.4-0.25,0.73-0.25c0.32,0,0.56,0.08,0.72,0.25s0.24,0.38,0.24,0.65v0.22c0,0.27-0.08,0.48-0.24,0.65
					C647.2,487.34,646.96,487.42,646.64,487.42z"/>
				<path d="M656.58,479.36c0.96,0,1.71-0.24,2.25-0.71s0.81-1.09,0.81-1.84v-0.26c0-0.78-0.26-1.39-0.78-1.81
					c-0.52-0.42-1.19-0.64-2-0.64s-1.46,0.16-1.95,0.49c-0.49,0.33-0.88,0.77-1.17,1.33l-0.9-0.64c0.16-0.29,0.36-0.58,0.6-0.85
					c0.24-0.27,0.52-0.51,0.85-0.72c0.33-0.21,0.7-0.37,1.13-0.49c0.43-0.12,0.91-0.18,1.46-0.18c0.57,0,1.11,0.08,1.6,0.24
					s0.92,0.39,1.28,0.69s0.64,0.66,0.85,1.09c0.21,0.43,0.31,0.92,0.31,1.46c0,0.94-0.26,1.68-0.78,2.21
					c-0.52,0.53-1.17,0.89-1.94,1.08v0.08c0.41,0.07,0.8,0.19,1.16,0.37c0.36,0.18,0.68,0.42,0.95,0.71s0.49,0.65,0.65,1.06
					s0.24,0.88,0.24,1.41c0,0.6-0.11,1.16-0.32,1.66c-0.21,0.5-0.52,0.93-0.91,1.28c-0.39,0.35-0.87,0.62-1.42,0.81
					c-0.55,0.19-1.17,0.29-1.85,0.29c-1.12,0-2.03-0.21-2.72-0.64c-0.69-0.43-1.26-0.97-1.7-1.62l0.9-0.68
					c0.39,0.6,0.85,1.06,1.39,1.39c0.54,0.33,1.24,0.49,2.11,0.49c1.01,0,1.81-0.25,2.38-0.75c0.57-0.5,0.86-1.2,0.86-2.08v-0.32
					c0-0.89-0.28-1.58-0.84-2.08c-0.56-0.5-1.36-0.75-2.4-0.75h-1.76v-1.06H656.58z"/>
				<path d="M671.22,487.48c-0.75,0-1.4-0.12-1.96-0.37c-0.56-0.25-1.03-0.59-1.41-1.04c-0.38-0.45-0.67-0.99-0.86-1.62
					c-0.19-0.63-0.29-1.33-0.29-2.09c0-1.08,0.15-2.08,0.45-3.01s0.69-1.77,1.17-2.53c0.48-0.76,1.03-1.44,1.65-2.03
					c0.62-0.59,1.25-1.1,1.89-1.51h1.58c-0.77,0.53-1.46,1.07-2.06,1.6c-0.6,0.53-1.13,1.1-1.58,1.69
					c-0.45,0.59-0.83,1.23-1.13,1.91c-0.3,0.68-0.54,1.43-0.71,2.24l0.08,0.02c0.35-0.63,0.8-1.12,1.37-1.49
					c0.57-0.37,1.27-0.55,2.11-0.55c0.61,0,1.18,0.1,1.69,0.3s0.95,0.48,1.32,0.85c0.37,0.37,0.65,0.81,0.85,1.34
					c0.2,0.53,0.3,1.12,0.3,1.77c0,0.68-0.11,1.3-0.32,1.85c-0.21,0.55-0.51,1.03-0.9,1.42s-0.85,0.7-1.4,0.92
					C672.51,487.37,671.9,487.48,671.22,487.48z M671.2,486.42c1.01,0,1.81-0.29,2.38-0.87s0.86-1.35,0.86-2.32v-0.34
					c0-0.97-0.28-1.74-0.85-2.31c-0.57-0.57-1.36-0.86-2.39-0.86c-1.04,0-1.84,0.29-2.41,0.86c-0.57,0.57-0.85,1.34-0.85,2.31v0.32
					c0,0.98,0.29,1.76,0.86,2.34S670.17,486.42,671.2,486.42z"/>
				<path d="M682.3,487.24c-0.41,0-0.73-0.11-0.94-0.34c-0.21-0.23-0.32-0.53-0.32-0.9v-13.56h1.14v13.82h1.58v0.98H682.3z"/>
				<path d="M688.3,472.44h1.14v6.2h0.06c0.25-0.57,0.64-1.03,1.16-1.37c0.52-0.34,1.17-0.51,1.96-0.51c1.32,0,2.35,0.47,3.1,1.4
					c0.75,0.93,1.12,2.25,1.12,3.96c0,1.71-0.37,3.03-1.12,3.96c-0.75,0.93-1.78,1.4-3.1,1.4c-0.79,0-1.43-0.17-1.94-0.51
					c-0.51-0.34-0.9-0.8-1.18-1.37h-0.06v1.64h-1.14V472.44z M692.36,486.46c1.03,0,1.83-0.33,2.4-0.98
					c0.57-0.65,0.86-1.53,0.86-2.64v-1.44c0-1.11-0.29-1.99-0.86-2.64c-0.57-0.65-1.37-0.98-2.4-0.98c-0.4,0-0.78,0.06-1.13,0.17
					s-0.66,0.27-0.93,0.47c-0.27,0.2-0.48,0.44-0.63,0.72c-0.15,0.28-0.23,0.59-0.23,0.92v4.06c0,0.36,0.08,0.68,0.23,0.97
					c0.15,0.29,0.36,0.53,0.63,0.74c0.27,0.21,0.58,0.36,0.93,0.47C691.58,486.41,691.96,486.46,692.36,486.46z"/>
				<path d="M704.66,487.48c-0.89,0-1.66-0.17-2.29-0.5c-0.63-0.33-1.18-0.82-1.65-1.46l0.84-0.66c0.43,0.56,0.89,0.97,1.4,1.24
					s1.1,0.4,1.78,0.4c0.79,0,1.39-0.17,1.82-0.5c0.43-0.33,0.64-0.81,0.64-1.44c0-0.55-0.16-0.98-0.49-1.29
					c-0.33-0.31-0.86-0.52-1.61-0.63l-0.84-0.14c-0.47-0.07-0.89-0.17-1.28-0.3c-0.39-0.13-0.72-0.31-0.99-0.54s-0.49-0.5-0.64-0.83
					c-0.15-0.33-0.23-0.72-0.23-1.19c0-0.48,0.09-0.9,0.27-1.26c0.18-0.36,0.42-0.66,0.73-0.9s0.67-0.42,1.1-0.54
					c0.43-0.12,0.89-0.18,1.38-0.18c0.85,0,1.55,0.15,2.1,0.44c0.55,0.29,1.01,0.67,1.4,1.14l-0.76,0.7
					c-0.27-0.32-0.62-0.62-1.07-0.89c-0.45-0.27-1.02-0.41-1.73-0.41c-0.73,0-1.3,0.16-1.71,0.48c-0.41,0.32-0.61,0.77-0.61,1.36
					c0,0.6,0.18,1.03,0.55,1.3c0.37,0.27,0.92,0.46,1.65,0.58l0.82,0.12c1.04,0.16,1.81,0.47,2.31,0.93c0.5,0.46,0.75,1.1,0.75,1.93
					c0,0.96-0.32,1.71-0.97,2.24S705.79,487.48,704.66,487.48z"/>
			</g>
		</g>
	</g>
</g>
<g>
	<g>
		<g>
			<path d="M1077,330v59H812v-59H1077 M1078,329H811v61h267V329L1078,329z"/>
		</g>
		<g>
			<path d="M901.54,359.76v-1.22h4.98v1.22H901.54z"/>
			<path d="M916,365.48c-0.75,0-1.4-0.12-1.96-0.37c-0.56-0.25-1.03-0.59-1.41-1.04c-0.38-0.45-0.67-0.99-0.86-1.62
				c-0.19-0.63-0.29-1.33-0.29-2.09c0-1.08,0.15-2.08,0.45-3.01s0.69-1.77,1.17-2.53c0.48-0.76,1.03-1.44,1.65-2.03
				c0.62-0.59,1.25-1.1,1.89-1.51h1.58c-0.77,0.53-1.46,1.07-2.06,1.6c-0.6,0.53-1.13,1.1-1.58,1.69c-0.45,0.59-0.83,1.23-1.13,1.91
				c-0.3,0.68-0.54,1.43-0.71,2.24l0.08,0.02c0.35-0.63,0.8-1.12,1.37-1.49c0.57-0.37,1.27-0.55,2.11-0.55c0.61,0,1.18,0.1,1.69,0.3
				s0.95,0.48,1.32,0.85c0.37,0.37,0.65,0.81,0.85,1.34c0.2,0.53,0.3,1.12,0.3,1.77c0,0.68-0.11,1.3-0.32,1.85
				c-0.21,0.55-0.51,1.03-0.9,1.42s-0.85,0.7-1.4,0.92C917.29,365.37,916.68,365.48,916,365.48z M915.98,364.42
				c1.01,0,1.81-0.29,2.38-0.87s0.86-1.35,0.86-2.32v-0.34c0-0.97-0.28-1.74-0.85-2.31c-0.57-0.57-1.36-0.86-2.39-0.86
				c-1.04,0-1.84,0.29-2.41,0.86c-0.57,0.57-0.85,1.34-0.85,2.31v0.32c0,0.98,0.29,1.76,0.86,2.34S914.95,364.42,915.98,364.42z"/>
			<path d="M929.42,365.48c-1.41,0-2.5-0.47-3.27-1.4c-0.77-0.93-1.15-2.25-1.15-3.96c0-1.71,0.38-3.03,1.15-3.96
				c0.77-0.93,1.86-1.4,3.27-1.4c0.95,0,1.71,0.21,2.3,0.62c0.59,0.41,1.03,0.96,1.34,1.64l-0.96,0.48
				c-0.24-0.56-0.58-0.99-1.01-1.28c-0.43-0.29-0.99-0.44-1.67-0.44c-1.04,0-1.83,0.33-2.38,1s-0.82,1.54-0.82,2.62v1.44
				c0,1.08,0.27,1.95,0.82,2.62c0.55,0.67,1.34,1,2.38,1c0.71,0,1.3-0.15,1.78-0.46c0.48-0.31,0.87-0.75,1.16-1.32l0.84,0.56
				c-0.33,0.68-0.81,1.22-1.43,1.63C931.15,365.28,930.37,365.48,929.42,365.48z"/>
			<path d="M937.72,365.24V355h1.14v1.62h0.06c0.11-0.25,0.24-0.49,0.4-0.71s0.35-0.42,0.58-0.59c0.23-0.17,0.5-0.31,0.81-0.41
				s0.68-0.15,1.11-0.15c0.73,0,1.38,0.17,1.94,0.52c0.56,0.35,0.97,0.89,1.22,1.64h0.06c0.19-0.6,0.54-1.11,1.07-1.53
				c0.53-0.42,1.24-0.63,2.15-0.63c1.09,0,1.93,0.34,2.52,1.01c0.59,0.67,0.88,1.64,0.88,2.89v6.58h-1.14v-6.38
				c0-2.05-0.86-3.08-2.58-3.08c-0.36,0-0.7,0.05-1.02,0.14c-0.32,0.09-0.6,0.24-0.85,0.43s-0.44,0.43-0.59,0.72
				c-0.15,0.29-0.22,0.62-0.22,0.99v7.18h-1.14v-6.38c0-2.05-0.85-3.08-2.56-3.08c-0.35,0-0.68,0.05-1.01,0.14
				c-0.33,0.09-0.62,0.23-0.87,0.42c-0.25,0.19-0.45,0.42-0.6,0.71c-0.15,0.29-0.22,0.62-0.22,0.99v7.2H937.72z"/>
		</g>
	</g>
	<g>
		<g>
			<path d="M1077,391v59H812v-59H1077 M1078,390H811v61h267V390L1078,390z"/>
		</g>
		<g>
			<path d="M901.54,420.76v-1.22h4.98v1.22H901.54z"/>
			<path d="M916,426.48c-0.75,0-1.4-0.12-1.96-0.37c-0.56-0.25-1.03-0.59-1.41-1.04c-0.38-0.45-0.67-0.99-0.86-1.62
				c-0.19-0.63-0.29-1.33-0.29-2.09c0-1.08,0.15-2.08,0.45-3.01s0.69-1.77,1.17-2.53c0.48-0.76,1.03-1.44,1.65-2.03
				c0.62-0.59,1.25-1.1,1.89-1.51h1.58c-0.77,0.53-1.46,1.07-2.06,1.6c-0.6,0.53-1.13,1.1-1.58,1.69c-0.45,0.59-0.83,1.23-1.13,1.91
				c-0.3,0.68-0.54,1.43-0.71,2.24l0.08,0.02c0.35-0.63,0.8-1.12,1.37-1.49c0.57-0.37,1.27-0.55,2.11-0.55c0.61,0,1.18,0.1,1.69,0.3
				s0.95,0.48,1.32,0.85c0.37,0.37,0.65,0.81,0.85,1.34c0.2,0.53,0.3,1.12,0.3,1.77c0,0.68-0.11,1.3-0.32,1.85
				c-0.21,0.55-0.51,1.03-0.9,1.42s-0.85,0.7-1.4,0.92C917.29,426.37,916.68,426.48,916,426.48z M915.98,425.42
				c1.01,0,1.81-0.29,2.38-0.87s0.86-1.35,0.86-2.32v-0.34c0-0.97-0.28-1.74-0.85-2.31c-0.57-0.57-1.36-0.86-2.39-0.86
				c-1.04,0-1.84,0.29-2.41,0.86c-0.57,0.57-0.85,1.34-0.85,2.31v0.32c0,0.98,0.29,1.76,0.86,2.34S914.95,425.42,915.98,425.42z"/>
			<path d="M929.42,426.48c-1.41,0-2.5-0.47-3.27-1.4c-0.77-0.93-1.15-2.25-1.15-3.96c0-1.71,0.38-3.03,1.15-3.96
				c0.77-0.93,1.86-1.4,3.27-1.4c0.95,0,1.71,0.21,2.3,0.62c0.59,0.41,1.03,0.96,1.34,1.64l-0.96,0.48
				c-0.24-0.56-0.58-0.99-1.01-1.28c-0.43-0.29-0.99-0.44-1.67-0.44c-1.04,0-1.83,0.33-2.38,1s-0.82,1.54-0.82,2.62v1.44
				c0,1.08,0.27,1.95,0.82,2.62c0.55,0.67,1.34,1,2.38,1c0.71,0,1.3-0.15,1.78-0.46c0.48-0.31,0.87-0.75,1.16-1.32l0.84,0.56
				c-0.33,0.68-0.81,1.22-1.43,1.63C931.15,426.28,930.37,426.48,929.42,426.48z"/>
			<path d="M937.72,426.24V416h1.14v1.62h0.06c0.11-0.25,0.24-0.49,0.4-0.71s0.35-0.42,0.58-0.59c0.23-0.17,0.5-0.31,0.81-0.41
				s0.68-0.15,1.11-0.15c0.73,0,1.38,0.17,1.94,0.52c0.56,0.35,0.97,0.89,1.22,1.64h0.06c0.19-0.6,0.54-1.11,1.07-1.53
				c0.53-0.42,1.24-0.63,2.15-0.63c1.09,0,1.93,0.34,2.52,1.01c0.59,0.67,0.88,1.64,0.88,2.89v6.58h-1.14v-6.38
				c0-2.05-0.86-3.08-2.58-3.08c-0.36,0-0.7,0.05-1.02,0.14c-0.32,0.09-0.6,0.24-0.85,0.43s-0.44,0.43-0.59,0.72
				c-0.15,0.29-0.22,0.62-0.22,0.99v7.18h-1.14v-6.38c0-2.05-0.85-3.08-2.56-3.08c-0.35,0-0.68,0.05-1.01,0.14
				c-0.33,0.09-0.62,0.23-0.87,0.42c-0.25,0.19-0.45,0.42-0.6,0.71c-0.15,0.29-0.22,0.62-0.22,0.99v7.2H937.72z"/>
		</g>
		<g>
			<g>
				<path d="M1077,452v59H812v-59H1077 M1078,451H811v61h267V451L1078,451z"/>
			</g>
			<g>
				<path d="M901.54,481.76v-1.22h4.98v1.22H901.54z"/>
				<path d="M916,487.48c-0.75,0-1.4-0.12-1.96-0.37c-0.56-0.25-1.03-0.59-1.41-1.04c-0.38-0.45-0.67-0.99-0.86-1.62
					c-0.19-0.63-0.29-1.33-0.29-2.09c0-1.08,0.15-2.08,0.45-3.01s0.69-1.77,1.17-2.53c0.48-0.76,1.03-1.44,1.65-2.03
					c0.62-0.59,1.25-1.1,1.89-1.51h1.58c-0.77,0.53-1.46,1.07-2.06,1.6c-0.6,0.53-1.13,1.1-1.58,1.69
					c-0.45,0.59-0.83,1.23-1.13,1.91c-0.3,0.68-0.54,1.43-0.71,2.24l0.08,0.02c0.35-0.63,0.8-1.12,1.37-1.49
					c0.57-0.37,1.27-0.55,2.11-0.55c0.61,0,1.18,0.1,1.69,0.3s0.95,0.48,1.32,0.85c0.37,0.37,0.65,0.81,0.85,1.34
					c0.2,0.53,0.3,1.12,0.3,1.77c0,0.68-0.11,1.3-0.32,1.85c-0.21,0.55-0.51,1.03-0.9,1.42s-0.85,0.7-1.4,0.92
					C917.29,487.37,916.68,487.48,916,487.48z M915.98,486.42c1.01,0,1.81-0.29,2.38-0.87s0.86-1.35,0.86-2.32v-0.34
					c0-0.97-0.28-1.74-0.85-2.31c-0.57-0.57-1.36-0.86-2.39-0.86c-1.04,0-1.84,0.29-2.41,0.86c-0.57,0.57-0.85,1.34-0.85,2.31v0.32
					c0,0.98,0.29,1.76,0.86,2.34S914.95,486.42,915.98,486.42z"/>
				<path d="M929.42,487.48c-1.41,0-2.5-0.47-3.27-1.4c-0.77-0.93-1.15-2.25-1.15-3.96c0-1.71,0.38-3.03,1.15-3.96
					c0.77-0.93,1.86-1.4,3.27-1.4c0.95,0,1.71,0.21,2.3,0.62c0.59,0.41,1.03,0.96,1.34,1.64l-0.96,0.48
					c-0.24-0.56-0.58-0.99-1.01-1.28c-0.43-0.29-0.99-0.44-1.67-0.44c-1.04,0-1.83,0.33-2.38,1s-0.82,1.54-0.82,2.62v1.44
					c0,1.08,0.27,1.95,0.82,2.62c0.55,0.67,1.34,1,2.38,1c0.71,0,1.3-0.15,1.78-0.46c0.48-0.31,0.87-0.75,1.16-1.32l0.84,0.56
					c-0.33,0.68-0.81,1.22-1.43,1.63C931.15,487.28,930.37,487.48,929.42,487.48z"/>
				<path d="M937.72,487.24V477h1.14v1.62h0.06c0.11-0.25,0.24-0.49,0.4-0.71s0.35-0.42,0.58-0.59c0.23-0.17,0.5-0.31,0.81-0.41
					s0.68-0.15,1.11-0.15c0.73,0,1.38,0.17,1.94,0.52c0.56,0.35,0.97,0.89,1.22,1.64h0.06c0.19-0.6,0.54-1.11,1.07-1.53
					c0.53-0.42,1.24-0.63,2.15-0.63c1.09,0,1.93,0.34,2.52,1.01c0.59,0.67,0.88,1.64,0.88,2.89v6.58h-1.14v-6.38
					c0-2.05-0.86-3.08-2.58-3.08c-0.36,0-0.7,0.05-1.02,0.14c-0.32,0.09-0.6,0.24-0.85,0.43s-0.44,0.43-0.59,0.72
					c-0.15,0.29-0.22,0.62-0.22,0.99v7.18h-1.14v-6.38c0-2.05-0.85-3.08-2.56-3.08c-0.35,0-0.68,0.05-1.01,0.14
					c-0.33,0.09-0.62,0.23-0.87,0.42c-0.25,0.19-0.45,0.42-0.6,0.71c-0.15,0.29-0.22,0.62-0.22,0.99v7.2H937.72z"/>
			</g>
		</g>
	</g>
</g>
<g>
	<g>
		<g>
			<path d="M1077,70v59H812V70H1077 M1078,69H811v61h267V69L1078,69z"/>
		</g>
		<g>
			<path d="M901.86,105.24v-1.06h4.08V92.16h-0.1L902,95.58l-0.68-0.76l3.98-3.54h1.84v12.9h3.84v1.06H901.86z"/>
			<path d="M919.4,97.36c0.96,0,1.71-0.24,2.25-0.71s0.81-1.09,0.81-1.84v-0.26c0-0.78-0.26-1.39-0.78-1.81
				c-0.52-0.42-1.19-0.64-2-0.64s-1.46,0.16-1.95,0.49c-0.49,0.33-0.88,0.77-1.17,1.33l-0.9-0.64c0.16-0.29,0.36-0.58,0.6-0.85
				c0.24-0.27,0.52-0.51,0.85-0.72c0.33-0.21,0.7-0.37,1.13-0.49c0.43-0.12,0.91-0.18,1.46-0.18c0.57,0,1.11,0.08,1.6,0.24
				s0.92,0.39,1.28,0.69s0.64,0.66,0.85,1.09c0.21,0.43,0.31,0.92,0.31,1.46c0,0.94-0.26,1.68-0.78,2.21
				c-0.52,0.53-1.17,0.89-1.94,1.08v0.08c0.41,0.07,0.8,0.19,1.16,0.37c0.36,0.18,0.68,0.42,0.95,0.71s0.49,0.65,0.65,1.06
				s0.24,0.88,0.24,1.41c0,0.6-0.11,1.16-0.32,1.66c-0.21,0.5-0.52,0.93-0.91,1.28c-0.39,0.35-0.87,0.62-1.42,0.81
				c-0.55,0.19-1.17,0.29-1.85,0.29c-1.12,0-2.03-0.21-2.72-0.64c-0.69-0.43-1.26-0.97-1.7-1.62l0.9-0.68
				c0.39,0.6,0.85,1.06,1.39,1.39c0.54,0.33,1.24,0.49,2.11,0.49c1.01,0,1.81-0.25,2.38-0.75c0.57-0.5,0.86-1.2,0.86-2.08v-0.32
				c0-0.89-0.28-1.58-0.84-2.08c-0.56-0.5-1.36-0.75-2.4-0.75h-1.76v-1.06H919.4z"/>
			<path d="M929.82,105.24v-1.06h4.08V92.16h-0.1l-3.84,3.42l-0.68-0.76l3.98-3.54h1.84v12.9h3.84v1.06H929.82z"/>
			<path d="M950.56,105.24V95h1.14v1.62h0.06c0.11-0.25,0.24-0.49,0.4-0.71s0.35-0.42,0.58-0.59c0.23-0.17,0.5-0.31,0.81-0.41
				s0.68-0.15,1.11-0.15c0.73,0,1.38,0.17,1.94,0.52c0.56,0.35,0.97,0.89,1.22,1.64h0.06c0.19-0.6,0.54-1.11,1.07-1.53
				c0.53-0.42,1.24-0.63,2.15-0.63c1.09,0,1.93,0.34,2.52,1.01c0.59,0.67,0.88,1.64,0.88,2.89v6.58h-1.14v-6.38
				c0-2.05-0.86-3.08-2.58-3.08c-0.36,0-0.7,0.05-1.02,0.14c-0.32,0.09-0.6,0.24-0.85,0.43s-0.44,0.43-0.59,0.72
				c-0.15,0.29-0.22,0.62-0.22,0.99v7.18h-1.14v-6.38c0-2.05-0.85-3.08-2.56-3.08c-0.35,0-0.68,0.05-1.01,0.14
				c-0.33,0.09-0.62,0.23-0.87,0.42c-0.25,0.19-0.45,0.42-0.6,0.71c-0.15,0.29-0.22,0.62-0.22,0.99v7.2H950.56z"/>
			<path d="M970.06,105.24V95h1.14v1.62h0.06c0.11-0.25,0.24-0.49,0.4-0.71s0.35-0.42,0.58-0.59c0.23-0.17,0.5-0.31,0.81-0.41
				s0.68-0.15,1.11-0.15c0.73,0,1.38,0.17,1.94,0.52c0.56,0.35,0.97,0.89,1.22,1.64h0.06c0.19-0.6,0.54-1.11,1.07-1.53
				c0.53-0.42,1.24-0.63,2.15-0.63c1.09,0,1.93,0.34,2.52,1.01c0.59,0.67,0.88,1.64,0.88,2.89v6.58h-1.14v-6.38
				c0-2.05-0.86-3.08-2.58-3.08c-0.36,0-0.7,0.05-1.02,0.14c-0.32,0.09-0.6,0.24-0.85,0.43s-0.44,0.43-0.59,0.72
				c-0.15,0.29-0.22,0.62-0.22,0.99v7.18h-1.14v-6.38c0-2.05-0.85-3.08-2.56-3.08c-0.35,0-0.68,0.05-1.01,0.14
				c-0.33,0.09-0.62,0.23-0.87,0.42c-0.25,0.19-0.45,0.42-0.6,0.71c-0.15,0.29-0.22,0.62-0.22,0.99v7.2H970.06z"/>
		</g>
	</g>
	<g>
		<g>
			<path d="M1077,131v59H812v-59H1077 M1078,130H811v61h267V130L1078,130z"/>
		</g>
		<g>
			<path d="M901.86,166.24v-1.06h4.08v-12.02h-0.1l-3.84,3.42l-0.68-0.76l3.98-3.54h1.84v12.9h3.84v1.06H901.86z"/>
			<path d="M919.4,158.36c0.96,0,1.71-0.24,2.25-0.71s0.81-1.09,0.81-1.84v-0.26c0-0.78-0.26-1.39-0.78-1.81
				c-0.52-0.42-1.19-0.64-2-0.64s-1.46,0.16-1.95,0.49c-0.49,0.33-0.88,0.77-1.17,1.33l-0.9-0.64c0.16-0.29,0.36-0.58,0.6-0.85
				c0.24-0.27,0.52-0.51,0.85-0.72c0.33-0.21,0.7-0.37,1.13-0.49c0.43-0.12,0.91-0.18,1.46-0.18c0.57,0,1.11,0.08,1.6,0.24
				s0.92,0.39,1.28,0.69s0.64,0.66,0.85,1.09c0.21,0.43,0.31,0.92,0.31,1.46c0,0.94-0.26,1.68-0.78,2.21
				c-0.52,0.53-1.17,0.89-1.94,1.08v0.08c0.41,0.07,0.8,0.19,1.16,0.37c0.36,0.18,0.68,0.42,0.95,0.71s0.49,0.65,0.65,1.06
				s0.24,0.88,0.24,1.41c0,0.6-0.11,1.16-0.32,1.66c-0.21,0.5-0.52,0.93-0.91,1.28c-0.39,0.35-0.87,0.62-1.42,0.81
				c-0.55,0.19-1.17,0.29-1.85,0.29c-1.12,0-2.03-0.21-2.72-0.64c-0.69-0.43-1.26-0.97-1.7-1.62l0.9-0.68
				c0.39,0.6,0.85,1.06,1.39,1.39c0.54,0.33,1.24,0.49,2.11,0.49c1.01,0,1.81-0.25,2.38-0.75c0.57-0.5,0.86-1.2,0.86-2.08v-0.32
				c0-0.89-0.28-1.58-0.84-2.08c-0.56-0.5-1.36-0.75-2.4-0.75h-1.76v-1.06H919.4z"/>
			<path d="M929.82,166.24v-1.06h4.08v-12.02h-0.1l-3.84,3.42l-0.68-0.76l3.98-3.54h1.84v12.9h3.84v1.06H929.82z"/>
			<path d="M950.56,166.24V156h1.14v1.62h0.06c0.11-0.25,0.24-0.49,0.4-0.71s0.35-0.42,0.58-0.59c0.23-0.17,0.5-0.31,0.81-0.41
				s0.68-0.15,1.11-0.15c0.73,0,1.38,0.17,1.94,0.52c0.56,0.35,0.97,0.89,1.22,1.64h0.06c0.19-0.6,0.54-1.11,1.07-1.53
				c0.53-0.42,1.24-0.63,2.15-0.63c1.09,0,1.93,0.34,2.52,1.01c0.59,0.67,0.88,1.64,0.88,2.89v6.58h-1.14v-6.38
				c0-2.05-0.86-3.08-2.58-3.08c-0.36,0-0.7,0.05-1.02,0.14c-0.32,0.09-0.6,0.24-0.85,0.43s-0.44,0.43-0.59,0.72
				c-0.15,0.29-0.22,0.62-0.22,0.99v7.18h-1.14v-6.38c0-2.05-0.85-3.08-2.56-3.08c-0.35,0-0.68,0.05-1.01,0.14
				c-0.33,0.09-0.62,0.23-0.87,0.42c-0.25,0.19-0.45,0.42-0.6,0.71c-0.15,0.29-0.22,0.62-0.22,0.99v7.2H950.56z"/>
			<path d="M970.06,166.24V156h1.14v1.62h0.06c0.11-0.25,0.24-0.49,0.4-0.71s0.35-0.42,0.58-0.59c0.23-0.17,0.5-0.31,0.81-0.41
				s0.68-0.15,1.11-0.15c0.73,0,1.38,0.17,1.94,0.52c0.56,0.35,0.97,0.89,1.22,1.64h0.06c0.19-0.6,0.54-1.11,1.07-1.53
				c0.53-0.42,1.24-0.63,2.15-0.63c1.09,0,1.93,0.34,2.52,1.01c0.59,0.67,0.88,1.64,0.88,2.89v6.58h-1.14v-6.38
				c0-2.05-0.86-3.08-2.58-3.08c-0.36,0-0.7,0.05-1.02,0.14c-0.32,0.09-0.6,0.24-0.85,0.43s-0.44,0.43-0.59,0.72
				c-0.15,0.29-0.22,0.62-0.22,0.99v7.18h-1.14v-6.38c0-2.05-0.85-3.08-2.56-3.08c-0.35,0-0.68,0.05-1.01,0.14
				c-0.33,0.09-0.62,0.23-0.87,0.42c-0.25,0.19-0.45,0.42-0.6,0.71c-0.15,0.29-0.22,0.62-0.22,0.99v7.2H970.06z"/>
		</g>
		<g>
			<g>
				<path d="M1077,192v59H812v-59H1077 M1078,191H811v61h267V191L1078,191z"/>
			</g>
			<g>
				<path d="M901.86,227.24v-1.06h4.08v-12.02h-0.1l-3.84,3.42l-0.68-0.76l3.98-3.54h1.84v12.9h3.84v1.06H901.86z"/>
				<path d="M919.4,219.36c0.96,0,1.71-0.24,2.25-0.71s0.81-1.09,0.81-1.84v-0.26c0-0.78-0.26-1.39-0.78-1.81
					c-0.52-0.42-1.19-0.64-2-0.64s-1.46,0.16-1.95,0.49c-0.49,0.33-0.88,0.77-1.17,1.33l-0.9-0.64c0.16-0.29,0.36-0.58,0.6-0.85
					c0.24-0.27,0.52-0.51,0.85-0.72c0.33-0.21,0.7-0.37,1.13-0.49c0.43-0.12,0.91-0.18,1.46-0.18c0.57,0,1.11,0.08,1.6,0.24
					s0.92,0.39,1.28,0.69s0.64,0.66,0.85,1.09c0.21,0.43,0.31,0.92,0.31,1.46c0,0.94-0.26,1.68-0.78,2.21
					c-0.52,0.53-1.17,0.89-1.94,1.08v0.08c0.41,0.07,0.8,0.19,1.16,0.37c0.36,0.18,0.68,0.42,0.95,0.71s0.49,0.65,0.65,1.06
					s0.24,0.88,0.24,1.41c0,0.6-0.11,1.16-0.32,1.66c-0.21,0.5-0.52,0.93-0.91,1.28c-0.39,0.35-0.87,0.62-1.42,0.81
					c-0.55,0.19-1.17,0.29-1.85,0.29c-1.12,0-2.03-0.21-2.72-0.64c-0.69-0.43-1.26-0.97-1.7-1.62l0.9-0.68
					c0.39,0.6,0.85,1.06,1.39,1.39c0.54,0.33,1.24,0.49,2.11,0.49c1.01,0,1.81-0.25,2.38-0.75c0.57-0.5,0.86-1.2,0.86-2.08v-0.32
					c0-0.89-0.28-1.58-0.84-2.08c-0.56-0.5-1.36-0.75-2.4-0.75h-1.76v-1.06H919.4z"/>
				<path d="M929.82,227.24v-1.06h4.08v-12.02h-0.1l-3.84,3.42l-0.68-0.76l3.98-3.54h1.84v12.9h3.84v1.06H929.82z"/>
				<path d="M950.56,227.24V217h1.14v1.62h0.06c0.11-0.25,0.24-0.49,0.4-0.71s0.35-0.42,0.58-0.59c0.23-0.17,0.5-0.31,0.81-0.41
					s0.68-0.15,1.11-0.15c0.73,0,1.38,0.17,1.94,0.52c0.56,0.35,0.97,0.89,1.22,1.64h0.06c0.19-0.6,0.54-1.11,1.07-1.53
					c0.53-0.42,1.24-0.63,2.15-0.63c1.09,0,1.93,0.34,2.52,1.01c0.59,0.67,0.88,1.64,0.88,2.89v6.58h-1.14v-6.38
					c0-2.05-0.86-3.08-2.58-3.08c-0.36,0-0.7,0.05-1.02,0.14c-0.32,0.09-0.6,0.24-0.85,0.43s-0.44,0.43-0.59,0.72
					c-0.15,0.29-0.22,0.62-0.22,0.99v7.18h-1.14v-6.38c0-2.05-0.85-3.08-2.56-3.08c-0.35,0-0.68,0.05-1.01,0.14
					c-0.33,0.09-0.62,0.23-0.87,0.42c-0.25,0.19-0.45,0.42-0.6,0.71c-0.15,0.29-0.22,0.62-0.22,0.99v7.2H950.56z"/>
				<path d="M970.06,227.24V217h1.14v1.62h0.06c0.11-0.25,0.24-0.49,0.4-0.71s0.35-0.42,0.58-0.59c0.23-0.17,0.5-0.31,0.81-0.41
					s0.68-0.15,1.11-0.15c0.73,0,1.38,0.17,1.94,0.52c0.56,0.35,0.97,0.89,1.22,1.64h0.06c0.19-0.6,0.54-1.11,1.07-1.53
					c0.53-0.42,1.24-0.63,2.15-0.63c1.09,0,1.93,0.34,2.52,1.01c0.59,0.67,0.88,1.64,0.88,2.89v6.58h-1.14v-6.38
					c0-2.05-0.86-3.08-2.58-3.08c-0.36,0-0.7,0.05-1.02,0.14c-0.32,0.09-0.6,0.24-0.85,0.43s-0.44,0.43-0.59,0.72
					c-0.15,0.29-0.22,0.62-0.22,0.99v7.18h-1.14v-6.38c0-2.05-0.85-3.08-2.56-3.08c-0.35,0-0.68,0.05-1.01,0.14
					c-0.33,0.09-0.62,0.23-0.87,0.42c-0.25,0.19-0.45,0.42-0.6,0.71c-0.15,0.29-0.22,0.62-0.22,0.99v7.2H970.06z"/>
			</g>
		</g>
	</g>
</g>
</svg>
