<!-- Generator: Adobe Illustrator 23.1.1, SVG Export Plug-In  -->
<svg version="1.1" xmlns="http://www.w3.org/2000/svg" xmlns:xlink="http://www.w3.org/1999/xlink" x="0px" y="0px" width="39.54px"
	 height="8.66px" viewBox="0 0 39.54 8.66" style="enable-background:new 0 0 39.54 8.66;" xml:space="preserve">
<style type="text/css">
	.st0{fill:#FFFFFF;}
</style>
<defs>
</defs>
<g>
	<path class="st0" d="M0.32,8.52V7.88h2.45V0.67H2.71l-2.3,2.05L0,2.27l2.39-2.12h1.1v7.74h2.3v0.64H0.32z"/>
	<path class="st0" d="M10.04,8.66c-0.46,0-0.86-0.06-1.21-0.18C8.48,8.36,8.18,8.2,7.94,7.99S7.51,7.53,7.39,7.24S7.2,6.63,7.2,6.29
		c0-0.58,0.16-1.05,0.48-1.41C8,4.52,8.43,4.28,8.96,4.16V4.08C8.51,3.95,8.15,3.72,7.88,3.37C7.61,3.03,7.48,2.6,7.48,2.1
		c0-0.64,0.23-1.15,0.68-1.53C8.61,0.19,9.24,0,10.04,0c0.81,0,1.44,0.19,1.89,0.57c0.45,0.38,0.68,0.89,0.68,1.53
		c0,0.5-0.13,0.93-0.4,1.27c-0.27,0.34-0.63,0.58-1.09,0.71v0.08c0.54,0.12,0.96,0.36,1.28,0.71c0.32,0.36,0.48,0.83,0.48,1.41
		c0,0.34-0.06,0.66-0.19,0.95s-0.31,0.54-0.55,0.75s-0.54,0.37-0.89,0.49C10.9,8.6,10.5,8.66,10.04,8.66z M10.04,8.03
		c0.65,0,1.16-0.15,1.52-0.45s0.55-0.7,0.55-1.21V6.09c0-0.52-0.18-0.92-0.55-1.22s-0.88-0.44-1.52-0.44
		c-0.65,0-1.16,0.15-1.52,0.44s-0.55,0.7-0.55,1.22v0.28c0,0.51,0.18,0.92,0.55,1.21S9.4,8.03,10.04,8.03z M10.04,3.82
		c0.58,0,1.02-0.13,1.34-0.39c0.32-0.26,0.48-0.62,0.48-1.09V2.12c0-0.46-0.16-0.82-0.48-1.09c-0.32-0.26-0.77-0.39-1.34-0.39
		c-0.58,0-1.02,0.13-1.34,0.39C8.38,1.29,8.22,1.66,8.22,2.12v0.22c0,0.47,0.16,0.83,0.48,1.09C9.02,3.69,9.47,3.82,10.04,3.82z"/>
	<path class="st0" d="M14.72,8.52V7.88h2.45V0.67h-0.06l-2.3,2.05L14.4,2.27l2.39-2.12h1.1v7.74h2.3v0.64H14.72z"/>
	<path class="st0" d="M27.7,8.66c-1.04,0-1.84-0.36-2.41-1.09c-0.57-0.72-0.85-1.8-0.85-3.22c0-1.42,0.28-2.5,0.85-3.24
		C25.85,0.37,26.66,0,27.7,0c0.67,0,1.24,0.16,1.7,0.47s0.82,0.75,1.07,1.3l-0.59,0.35c-0.18-0.46-0.46-0.82-0.83-1.09
		s-0.82-0.4-1.35-0.4c-0.78,0-1.4,0.28-1.84,0.84c-0.44,0.56-0.66,1.36-0.66,2.41v0.95c0,1.04,0.22,1.83,0.66,2.37
		c0.44,0.55,1.05,0.82,1.84,0.82c0.56,0,1.03-0.14,1.4-0.43c0.38-0.28,0.66-0.67,0.84-1.15l0.59,0.35
		c-0.25,0.58-0.61,1.03-1.09,1.36C28.96,8.5,28.38,8.66,27.7,8.66z"/>
	<path class="st0" d="M38.84,1.07H38.8l-2.89,5.12l-2.89-5.12h-0.05v7.45h-0.7V0.14h0.98l2.65,4.72h0.04l2.65-4.72h0.95v8.38h-0.7
		V1.07z"/>
</g>
</svg>
