<!-- Generator: Adobe Illustrator 23.1.1, SVG Export Plug-In  -->
<svg version="1.1" xmlns="http://www.w3.org/2000/svg" xmlns:xlink="http://www.w3.org/1999/xlink" x="0px" y="0px" width="58.99px"
	 height="8.38px" viewBox="0 0 58.99 8.38" style="enable-background:new 0 0 58.99 8.38;" xml:space="preserve">
<style type="text/css">
	.st0{fill:#FFFFFF;}
</style>
<defs>
</defs>
<g>
	<path class="st0" d="M6.26,2.88H6.23L5.62,4.1L3.98,7.07l-1.6-2.95L1.75,2.8H1.72v5.58H0V0h1.93l2.05,3.92h0.02L6.04,0h1.94v8.38
		H6.26V2.88z"/>
	<path class="st0" d="M9.83,8.38V0h5.7v1.62h-3.88v1.7h3.32v1.62h-3.32v1.81h3.88v1.62H9.83z"/>
	<path class="st0" d="M18.94,8.38h-1.82V0h3.97c0.38,0,0.73,0.06,1.04,0.19s0.58,0.31,0.8,0.55c0.22,0.24,0.39,0.52,0.51,0.85
		s0.18,0.69,0.18,1.09c0,0.57-0.13,1.06-0.38,1.49S22.6,4.9,22.09,5.09l1.64,3.29h-2.03L20.24,5.3h-1.31V8.38z M20.86,3.77
		c0.27,0,0.49-0.07,0.64-0.21c0.16-0.14,0.23-0.35,0.23-0.62V2.41c0-0.27-0.08-0.48-0.23-0.62c-0.16-0.14-0.37-0.21-0.64-0.21h-1.92
		v2.18H20.86z"/>
	<path class="st0" d="M24.88,8.38V6.92h1.08V1.45h-1.08V0h3.98v1.45h-1.08v5.47h1.08v1.45H24.88z"/>
	<path class="st0" d="M30.38,0h3.16c0.55,0,1.06,0.09,1.51,0.26c0.46,0.18,0.84,0.44,1.16,0.79c0.32,0.35,0.57,0.78,0.74,1.31
		c0.18,0.52,0.26,1.13,0.26,1.83s-0.09,1.31-0.26,1.83c-0.18,0.52-0.42,0.96-0.74,1.31c-0.32,0.35-0.71,0.61-1.16,0.79
		c-0.46,0.18-0.96,0.26-1.51,0.26h-3.16V0z M33.54,6.76c0.54,0,0.97-0.15,1.28-0.46c0.31-0.3,0.47-0.79,0.47-1.46v-1.3
		c0-0.67-0.16-1.16-0.47-1.46c-0.31-0.3-0.74-0.46-1.28-0.46h-1.33v5.14H33.54z"/>
	<path class="st0" d="M38.42,8.38V6.92h1.08V1.45h-1.08V0h3.98v1.45h-1.08v5.47h1.08v1.45H38.42z"/>
	<path class="st0" d="M49.09,8.38l-0.6-1.99h-2.8l-0.6,1.99h-1.85L46.01,0h2.26l2.72,8.38H49.09z M47.11,1.66h-0.06l-0.92,3.18h1.92
		L47.11,1.66z"/>
	<path class="st0" d="M54.71,4.42l-0.8-1.68h-0.04v5.64h-1.72V0h1.99l2.29,3.96l0.8,1.68h0.04V0h1.72v8.38H57L54.71,4.42z"/>
</g>
</svg>
