<!-- Generator: Adobe Illustrator 23.1.1, SVG Export Plug-In  -->
<svg version="1.1" xmlns="http://www.w3.org/2000/svg" xmlns:xlink="http://www.w3.org/1999/xlink" x="0px" y="0px" width="85.94px"
	 height="8.66px" viewBox="0 0 85.94 8.66" style="enable-background:new 0 0 85.94 8.66;" xml:space="preserve">
<style type="text/css">
	.st0{fill:url(#SVGID_1_);}
	.st1{fill:url(#SVGID_2_);}
	.st2{fill:url(#SVGID_3_);}
	.st3{fill:url(#SVGID_4_);}
	.st4{fill:url(#SVGID_5_);}
	.st5{fill:url(#SVGID_6_);}
	.st6{fill:url(#SVGID_7_);}
	.st7{fill:url(#SVGID_8_);}
	.st8{fill:url(#SVGID_9_);}
	.st9{fill:url(#SVGID_10_);}
	.st10{fill:url(#SVGID_11_);}
	.st11{fill:url(#SVGID_12_);}
	.st12{fill:url(#SVGID_13_);}
	.st13{fill:url(#SVGID_14_);}
	.st14{fill:url(#SVGID_15_);}
	.st15{fill:url(#SVGID_16_);}
	.st16{fill:url(#SVGID_17_);}
	.st17{fill:url(#SVGID_18_);}
	.st18{fill:url(#SVGID_19_);}
	.st19{fill:url(#SVGID_20_);}
</style>
<defs>
</defs>
<g>
	<linearGradient id="SVGID_1_" gradientUnits="userSpaceOnUse" x1="0" y1="4.3315" x2="6.8403" y2="4.3315">
		<stop  offset="0" style="stop-color:#AB5184"/>
		<stop  offset="1" style="stop-color:#776B9D"/>
	</linearGradient>
	<path class="st0" d="M0,0.14h3.16c0.55,0,1.06,0.09,1.51,0.26c0.46,0.18,0.84,0.44,1.16,0.79C6.15,1.54,6.4,1.98,6.58,2.5
		c0.18,0.52,0.26,1.13,0.26,1.83c0,0.7-0.09,1.31-0.26,1.83C6.4,6.69,6.15,7.12,5.83,7.47C5.51,7.82,5.12,8.08,4.67,8.26
		C4.21,8.43,3.71,8.52,3.16,8.52H0V0.14z M3.16,6.9c0.54,0,0.97-0.15,1.28-0.46c0.31-0.3,0.47-0.79,0.47-1.46v-1.3
		c0-0.67-0.16-1.16-0.47-1.46S3.7,1.76,3.16,1.76H1.82V6.9H3.16z"/>
	<linearGradient id="SVGID_2_" gradientUnits="userSpaceOnUse" x1="9.228" y1="4.3315" x2="13.2119" y2="4.3315">
		<stop  offset="0" style="stop-color:#AB5184"/>
		<stop  offset="1" style="stop-color:#776B9D"/>
	</linearGradient>
	<path class="st1" d="M9.23,8.52V7.07h1.08V1.6H9.23V0.14h3.98V1.6h-1.08v5.47h1.08v1.45H9.23z"/>
	<linearGradient id="SVGID_3_" gradientUnits="userSpaceOnUse" x1="15.9238" y1="4.3315" x2="23.9038" y2="4.3315">
		<stop  offset="0" style="stop-color:#AB5184"/>
		<stop  offset="1" style="stop-color:#776B9D"/>
	</linearGradient>
	<path class="st2" d="M22.19,3.02h-0.04l-0.61,1.22l-1.63,2.96l-1.6-2.95l-0.64-1.32h-0.04v5.58h-1.72V0.14h1.93l2.05,3.92h0.02
		l2.03-3.92h1.94v8.38h-1.72V3.02z"/>
	<linearGradient id="SVGID_4_" gradientUnits="userSpaceOnUse" x1="26.9395" y1="4.3315" x2="32.6396" y2="4.3315">
		<stop  offset="0" style="stop-color:#AB5184"/>
		<stop  offset="1" style="stop-color:#776B9D"/>
	</linearGradient>
	<path class="st3" d="M26.94,8.52V0.14h5.7v1.62h-3.88v1.7h3.32v1.62h-3.32V6.9h3.88v1.62H26.94z"/>
	<linearGradient id="SVGID_5_" gradientUnits="userSpaceOnUse" x1="35.4116" y1="4.3315" x2="42.252" y2="4.3315">
		<stop  offset="0" style="stop-color:#AB5184"/>
		<stop  offset="1" style="stop-color:#776B9D"/>
	</linearGradient>
	<path class="st4" d="M37.97,4.56l-0.8-1.68h-0.04v5.64h-1.72V0.14h1.99L39.7,4.1l0.8,1.68h0.04V0.14h1.72v8.38h-1.99L37.97,4.56z"
		/>
	<linearGradient id="SVGID_6_" gradientUnits="userSpaceOnUse" x1="44.8198" y1="4.3315" x2="51.2637" y2="4.3315">
		<stop  offset="0" style="stop-color:#AB5184"/>
		<stop  offset="1" style="stop-color:#776B9D"/>
	</linearGradient>
	<path class="st5" d="M48,8.66c-0.74,0-1.36-0.13-1.87-0.38c-0.51-0.25-0.95-0.58-1.31-0.98l1.2-1.21c0.57,0.63,1.27,0.95,2.1,0.95
		c0.45,0,0.78-0.09,1-0.27c0.22-0.18,0.32-0.42,0.32-0.73c0-0.23-0.06-0.42-0.19-0.58s-0.39-0.26-0.78-0.32l-0.83-0.11
		c-0.89-0.11-1.54-0.38-1.95-0.8c-0.41-0.42-0.62-0.99-0.62-1.69c0-0.38,0.07-0.72,0.22-1.03s0.35-0.58,0.62-0.81
		c0.27-0.22,0.6-0.4,0.98-0.52S47.72,0,48.22,0c0.63,0,1.19,0.1,1.67,0.3s0.89,0.49,1.24,0.88L49.91,2.4
		c-0.2-0.23-0.44-0.42-0.73-0.56c-0.28-0.15-0.64-0.22-1.07-0.22c-0.41,0-0.71,0.07-0.91,0.21c-0.2,0.14-0.3,0.34-0.3,0.59
		c0,0.29,0.08,0.49,0.23,0.62c0.16,0.13,0.41,0.22,0.76,0.27l0.83,0.13c0.86,0.14,1.5,0.4,1.92,0.8s0.62,0.96,0.62,1.69
		c0,0.4-0.07,0.77-0.22,1.11c-0.14,0.34-0.35,0.62-0.63,0.87c-0.28,0.24-0.62,0.43-1.03,0.56C48.98,8.6,48.52,8.66,48,8.66z"/>
	<linearGradient id="SVGID_7_" gradientUnits="userSpaceOnUse" x1="53.6396" y1="4.3315" x2="57.6235" y2="4.3315">
		<stop  offset="0" style="stop-color:#AB5184"/>
		<stop  offset="1" style="stop-color:#776B9D"/>
	</linearGradient>
	<path class="st6" d="M53.64,8.52V7.07h1.08V1.6h-1.08V0.14h3.98V1.6h-1.08v5.47h1.08v1.45H53.64z"/>
	<linearGradient id="SVGID_8_" gradientUnits="userSpaceOnUse" x1="60.0117" y1="4.3315" x2="67.3794" y2="4.3315">
		<stop  offset="0" style="stop-color:#AB5184"/>
		<stop  offset="1" style="stop-color:#776B9D"/>
	</linearGradient>
	<path class="st7" d="M63.7,8.66c-0.55,0-1.06-0.09-1.51-0.28c-0.46-0.18-0.84-0.46-1.16-0.82s-0.57-0.82-0.74-1.36
		c-0.18-0.54-0.26-1.17-0.26-1.88c0-0.71,0.09-1.34,0.26-1.88c0.18-0.54,0.42-0.99,0.74-1.36s0.71-0.64,1.16-0.82
		C62.64,0.09,63.14,0,63.7,0c0.55,0,1.06,0.09,1.51,0.28c0.46,0.18,0.84,0.46,1.16,0.82s0.57,0.82,0.74,1.36
		c0.18,0.54,0.26,1.17,0.26,1.88c0,0.71-0.09,1.34-0.26,1.88c-0.18,0.54-0.42,0.99-0.74,1.36s-0.71,0.64-1.16,0.82
		C64.75,8.57,64.25,8.66,63.7,8.66z M63.7,7.04c0.55,0,0.98-0.18,1.29-0.54c0.31-0.36,0.46-0.88,0.46-1.55V3.71
		c0-0.67-0.15-1.19-0.46-1.55c-0.31-0.36-0.74-0.54-1.29-0.54c-0.55,0-0.98,0.18-1.29,0.54c-0.31,0.36-0.46,0.88-0.46,1.55v1.25
		c0,0.67,0.15,1.19,0.46,1.55C62.71,6.86,63.14,7.04,63.7,7.04z"/>
	<linearGradient id="SVGID_9_" gradientUnits="userSpaceOnUse" x1="70.0913" y1="4.3315" x2="76.9316" y2="4.3315">
		<stop  offset="0" style="stop-color:#AB5184"/>
		<stop  offset="1" style="stop-color:#776B9D"/>
	</linearGradient>
	<path class="st8" d="M72.65,4.56l-0.8-1.68h-0.04v5.64h-1.72V0.14h1.99l2.29,3.96l0.8,1.68h0.04V0.14h1.72v8.38h-1.99L72.65,4.56z"
		/>
	<linearGradient id="SVGID_10_" gradientUnits="userSpaceOnUse" x1="79.4995" y1="4.3315" x2="85.9434" y2="4.3315">
		<stop  offset="0" style="stop-color:#AB5184"/>
		<stop  offset="1" style="stop-color:#776B9D"/>
	</linearGradient>
	<path class="st9" d="M82.68,8.66c-0.74,0-1.36-0.13-1.87-0.38c-0.51-0.25-0.95-0.58-1.31-0.98l1.2-1.21
		c0.57,0.63,1.27,0.95,2.1,0.95c0.45,0,0.78-0.09,1-0.27c0.22-0.18,0.32-0.42,0.32-0.73c0-0.23-0.06-0.42-0.19-0.58
		s-0.39-0.26-0.78-0.32l-0.83-0.11c-0.89-0.11-1.54-0.38-1.95-0.8c-0.41-0.42-0.62-0.99-0.62-1.69c0-0.38,0.07-0.72,0.22-1.03
		s0.35-0.58,0.62-0.81c0.27-0.22,0.6-0.4,0.98-0.52S82.4,0,82.9,0c0.63,0,1.19,0.1,1.67,0.3s0.89,0.49,1.24,0.88L84.59,2.4
		c-0.2-0.23-0.44-0.42-0.73-0.56c-0.28-0.15-0.64-0.22-1.07-0.22c-0.41,0-0.71,0.07-0.91,0.21c-0.2,0.14-0.3,0.34-0.3,0.59
		c0,0.29,0.08,0.49,0.23,0.62c0.16,0.13,0.41,0.22,0.76,0.27l0.83,0.13c0.86,0.14,1.5,0.4,1.92,0.8s0.62,0.96,0.62,1.69
		c0,0.4-0.07,0.77-0.22,1.11c-0.14,0.34-0.35,0.62-0.63,0.87c-0.28,0.24-0.62,0.43-1.03,0.56C83.66,8.6,83.2,8.66,82.68,8.66z"/>
</g>
</svg>
