<!-- Generator: Adobe Illustrator 23.1.1, SVG Export Plug-In  -->
<svg version="1.1" xmlns="http://www.w3.org/2000/svg" xmlns:xlink="http://www.w3.org/1999/xlink" x="0px" y="0px" width="42.64px"
	 height="8.66px" viewBox="0 0 42.64 8.66" style="enable-background:new 0 0 42.64 8.66;" xml:space="preserve">
<style type="text/css">
	.st0{fill:#FFFFFF;}
</style>
<defs>
</defs>
<g>
	<path class="st0" d="M3.71,8.66c-0.57,0-1.08-0.09-1.54-0.27s-0.84-0.45-1.16-0.8c-0.32-0.36-0.57-0.8-0.74-1.33
		C0.09,5.73,0,5.1,0,4.39c0-0.7,0.09-1.33,0.26-1.88c0.18-0.55,0.42-1.01,0.74-1.38s0.71-0.65,1.16-0.85C2.63,0.1,3.14,0,3.71,0
		c0.78,0,1.42,0.16,1.92,0.47s0.91,0.81,1.21,1.49L5.27,2.78C5.16,2.43,4.98,2.15,4.75,1.94C4.51,1.73,4.16,1.62,3.71,1.62
		c-0.54,0-0.97,0.17-1.29,0.52C2.09,2.49,1.93,3,1.93,3.66V5c0,0.66,0.16,1.17,0.49,1.52c0.32,0.35,0.75,0.52,1.29,0.52
		c0.45,0,0.81-0.12,1.07-0.37S5.25,6.14,5.38,5.8l1.49,0.86C6.55,7.3,6.14,7.79,5.63,8.14S4.48,8.66,3.71,8.66z"/>
	<path class="st0" d="M12.53,8.66c-0.55,0-1.06-0.09-1.51-0.28c-0.46-0.18-0.84-0.46-1.16-0.82S9.28,6.75,9.11,6.21
		C8.93,5.67,8.84,5.04,8.84,4.33c0-0.71,0.09-1.34,0.26-1.88C9.28,1.91,9.53,1.46,9.85,1.1s0.71-0.64,1.16-0.82
		C11.47,0.09,11.98,0,12.53,0c0.55,0,1.06,0.09,1.51,0.28c0.46,0.18,0.84,0.46,1.16,0.82s0.57,0.82,0.74,1.36
		c0.18,0.54,0.26,1.17,0.26,1.88c0,0.71-0.09,1.34-0.26,1.88c-0.18,0.54-0.42,0.99-0.74,1.36S14.5,8.2,14.04,8.39
		C13.58,8.57,13.08,8.66,12.53,8.66z M12.53,7.04c0.55,0,0.98-0.18,1.29-0.54c0.31-0.36,0.46-0.88,0.46-1.55V3.71
		c0-0.67-0.15-1.19-0.46-1.55c-0.31-0.36-0.74-0.54-1.29-0.54c-0.55,0-0.98,0.18-1.29,0.54c-0.31,0.36-0.46,0.88-0.46,1.55v1.25
		c0,0.67,0.15,1.19,0.46,1.55C11.55,6.86,11.98,7.04,12.53,7.04z"/>
	<path class="st0" d="M20.5,8.52l-2.7-8.38h1.85l1.25,4.02l0.66,2.63h0.04l0.64-2.63l1.25-4.02h1.79l-2.72,8.38H20.5z"/>
	<path class="st0" d="M27.54,8.52V0.14h5.7v1.62h-3.88v1.7h3.32v1.62h-3.32V6.9h3.88v1.62H27.54z"/>
	<path class="st0" d="M37.84,8.52h-1.82V0.14h3.97c0.38,0,0.73,0.06,1.04,0.19s0.58,0.31,0.8,0.55c0.22,0.24,0.39,0.52,0.51,0.85
		s0.18,0.69,0.18,1.09c0,0.57-0.13,1.06-0.38,1.49s-0.63,0.73-1.15,0.92l1.64,3.29h-2.03l-1.46-3.07h-1.31V8.52z M39.76,3.91
		c0.27,0,0.49-0.07,0.64-0.21c0.16-0.14,0.23-0.35,0.23-0.62V2.56c0-0.27-0.08-0.48-0.23-0.62c-0.16-0.14-0.37-0.21-0.64-0.21h-1.92
		v2.18H39.76z"/>
</g>
</svg>
