<!-- Generator: Adobe Illustrator 23.1.1, SVG Export Plug-In  -->
<svg version="1.1" xmlns="http://www.w3.org/2000/svg" xmlns:xlink="http://www.w3.org/1999/xlink" x="0px" y="0px" width="93.4px"
	 height="11.8px" viewBox="0 0 93.4 11.8" style="enable-background:new 0 0 93.4 11.8;" xml:space="preserve">
<style type="text/css">
	.st0{fill:none;stroke:#000000;stroke-width:0.25;stroke-miterlimit:10;}
</style>
<defs>
</defs>
<g>
	<path class="st0" d="M0.12,11.48V0.32h6.66V1.5H1.47v3.74h4.85v1.18H1.47v5.06H0.12z"/>
	<path class="st0" d="M12,11.48h-1.34V0.32h4.45c0.98,0,1.75,0.27,2.3,0.82s0.82,1.33,0.82,2.35c0,0.82-0.19,1.5-0.57,2.02
		c-0.38,0.53-0.94,0.88-1.67,1.05l2.56,4.93h-1.52l-2.42-4.8H12V11.48z M15.1,5.53c0.53,0,0.95-0.14,1.24-0.42
		c0.29-0.28,0.44-0.67,0.44-1.18V3.1c0-0.51-0.15-0.91-0.44-1.18S15.63,1.5,15.1,1.5H12v4.03H15.1z"/>
	<path class="st0" d="M22.48,11.48V0.32h6.82V1.5h-5.47v3.74h5.15v1.18h-5.15v3.87h5.47v1.18H22.48z"/>
	<path class="st0" d="M33.39,11.48V0.32h6.82V1.5h-5.47v3.74h5.15v1.18h-5.15v3.87h5.47v1.18H33.39z"/>
	<path class="st0" d="M47.44,11.68c-0.91,0-1.68-0.17-2.32-0.52c-0.64-0.35-1.18-0.82-1.63-1.43l0.99-0.83
		c0.39,0.52,0.83,0.92,1.31,1.19s1.05,0.41,1.7,0.41c0.8,0,1.41-0.19,1.83-0.58c0.42-0.38,0.63-0.9,0.63-1.54
		c0-0.53-0.16-0.94-0.48-1.23c-0.32-0.29-0.85-0.52-1.58-0.69l-0.91-0.21c-1.02-0.23-1.81-0.59-2.34-1.06s-0.81-1.14-0.81-2.01
		c0-0.49,0.09-0.93,0.27-1.31c0.18-0.38,0.43-0.7,0.76-0.96c0.33-0.26,0.71-0.45,1.17-0.58c0.45-0.13,0.95-0.2,1.5-0.2
		c0.84,0,1.56,0.15,2.17,0.46c0.6,0.31,1.11,0.76,1.53,1.36l-1.01,0.74c-0.31-0.43-0.68-0.76-1.12-1.01
		c-0.44-0.25-0.98-0.37-1.63-0.37c-0.71,0-1.28,0.15-1.69,0.46c-0.41,0.3-0.62,0.76-0.62,1.37c0,0.53,0.17,0.94,0.52,1.21
		s0.87,0.49,1.58,0.65l0.91,0.21c1.1,0.25,1.89,0.62,2.38,1.12c0.49,0.5,0.74,1.17,0.74,2c0,0.51-0.09,0.98-0.26,1.39
		c-0.18,0.42-0.43,0.77-0.76,1.06c-0.33,0.29-0.73,0.51-1.21,0.67C48.57,11.6,48.03,11.68,47.44,11.68z"/>
	<path class="st0" d="M58.73,1.5v9.98h-1.34V1.5h-3.55V0.32h8.45V1.5H58.73z"/>
	<path class="st0" d="M68.35,11.48V7.07l-3.84-6.75h1.54l2.98,5.38h0.05l2.98-5.38h1.54l-3.89,6.7v4.46H68.35z"/>
	<path class="st0" d="M76.86,11.48V0.32h1.34v9.98h4.75v1.18H76.86z"/>
	<path class="st0" d="M86.46,11.48V0.32h6.82V1.5H87.8v3.74h5.15v1.18H87.8v3.87h5.47v1.18H86.46z"/>
</g>
</svg>
