<!-- Generator: Adobe Illustrator 23.1.1, SVG Export Plug-In  -->
<svg version="1.1" xmlns="http://www.w3.org/2000/svg" xmlns:xlink="http://www.w3.org/1999/xlink" x="0px" y="0px" width="71.33px"
	 height="12.05px" viewBox="0 0 71.33 12.05" style="enable-background:new 0 0 71.33 12.05;" xml:space="preserve">
<style type="text/css">
	.st0{fill:none;stroke:#000000;stroke-width:0.5;}
</style>
<defs>
</defs>
<g>
	<path class="st0" d="M2.84,11.61L0.31,0.44h2.4L3.77,5.8l0.59,3.1h0.05l0.7-3.1l1.23-5.36H9l1.25,5.36l0.69,3.1h0.05l0.59-3.1
		l1.07-5.36h2.3l-2.59,11.17H9.59L8.18,5.56L7.64,3.11H7.59L7.03,5.56l-1.41,6.05H2.84z"/>
	<path class="st0" d="M16.22,11.61V9.67h1.44v-7.3h-1.44V0.44h5.31v1.94h-1.44v7.3h1.44v1.94H16.22z"/>
	<path class="st0" d="M23.56,11.61V0.44h2.43v9.01h4.26v2.16H23.56z"/>
	<path class="st0" d="M32.04,0.44h4.21c0.74,0,1.41,0.12,2.02,0.35c0.61,0.23,1.12,0.58,1.55,1.05s0.76,1.05,0.99,1.74
		c0.23,0.7,0.35,1.51,0.35,2.44s-0.12,1.74-0.35,2.44c-0.23,0.7-0.57,1.28-0.99,1.74s-0.94,0.81-1.55,1.05
		c-0.61,0.23-1.28,0.35-2.02,0.35h-4.21V0.44z M36.25,9.45c0.73,0,1.3-0.2,1.71-0.61c0.42-0.41,0.62-1.06,0.62-1.95V5.16
		c0-0.9-0.21-1.55-0.62-1.95S36.97,2.6,36.25,2.6h-1.78v6.85H36.25z"/>
	<path class="st0" d="M47.71,11.8c-0.76,0-1.44-0.12-2.05-0.36c-0.61-0.24-1.13-0.6-1.55-1.07c-0.43-0.47-0.76-1.07-0.99-1.78
		c-0.23-0.71-0.35-1.54-0.35-2.49c0-0.94,0.12-1.77,0.35-2.5c0.23-0.73,0.57-1.34,0.99-1.84c0.43-0.5,0.94-0.87,1.55-1.13
		c0.61-0.26,1.29-0.38,2.05-0.38c1.03,0,1.89,0.21,2.56,0.63c0.67,0.42,1.21,1.09,1.62,1.99l-2.1,1.09
		c-0.15-0.47-0.38-0.85-0.7-1.13s-0.78-0.42-1.38-0.42c-0.71,0-1.29,0.23-1.72,0.7s-0.65,1.14-0.65,2.02v1.79
		c0,0.89,0.22,1.56,0.65,2.02s1.01,0.7,1.72,0.7c0.6,0,1.07-0.16,1.43-0.49c0.36-0.33,0.62-0.72,0.79-1.18l1.98,1.15
		c-0.42,0.85-0.96,1.51-1.64,1.98C49.6,11.57,48.74,11.8,47.71,11.8z"/>
	<path class="st0" d="M60.36,11.61l-0.8-2.66h-3.73l-0.8,2.66h-2.46l3.68-11.17h3.01l3.63,11.17H60.36z M57.72,2.65h-0.08
		l-1.23,4.24h2.56L57.72,2.65z"/>
	<path class="st0" d="M68.06,2.6v9.01h-2.43V2.6H62.6V0.44h8.48V2.6H68.06z"/>
</g>
</svg>
