<svg id="Layer_1" data-name="Layer 1" xmlns="http://www.w3.org/2000/svg" xmlns:xlink="http://www.w3.org/1999/xlink" viewBox="0 0 321.65 232.77"><defs><style>.cls-1{fill:#60311c;}.cls-17,.cls-18,.cls-19,.cls-2,.cls-4{fill:none;}.cls-19,.cls-2,.cls-4{stroke:#000;}.cls-17,.cls-18,.cls-19,.cls-2,.cls-4,.cls-5{stroke-miterlimit:10;}.cls-17,.cls-18,.cls-2{stroke-width:2px;}.cls-3{fill:#532201;}.cls-4{stroke-width:3px;}.cls-5{stroke:#fff;fill:url(#linear-gradient);}.cls-6{fill:url(#linear-gradient-2);}.cls-7{fill:#ab4400;}.cls-8{fill:#8b4a34;}.cls-9{fill:url(#linear-gradient-3);}.cls-10{fill:#e8ca98;}.cls-11{fill:#a66441;}.cls-12{fill:#fff;}.cls-13{fill:#020202;}.cls-14{fill:#531f09;}.cls-15{fill:#562102;}.cls-16{opacity:0.37;}.cls-17,.cls-18{stroke:#050706;}.cls-18{stroke-linecap:round;}</style><linearGradient id="linear-gradient" x1="341.34" y1="293.84" x2="413.83" y2="257.4" gradientUnits="userSpaceOnUse"><stop offset="0.55" stop-color="#efc389"/><stop offset="1" stop-color="#f8e5cd"/></linearGradient><linearGradient id="linear-gradient-2" x1="203.63" y1="305.71" x2="397.63" y2="305.71" gradientUnits="userSpaceOnUse"><stop offset="0" stop-color="#ffca5f"/><stop offset="1" stop-color="#ecc290"/></linearGradient><linearGradient id="linear-gradient-3" x1="397.57" y1="203.06" x2="446.07" y2="178.68" gradientTransform="matrix(1, -0.03, 0.03, 1.02, -4.98, 5.9)" gradientUnits="userSpaceOnUse"><stop offset="0" stop-color="#f8e5cd"/><stop offset="0.45" stop-color="#8b4a34"/></linearGradient></defs><title>canyon_wren</title><path class="cls-1" d="M347.07,366.07s4.73,17,6.07,17.39,7.51-.62,11.93-4.53c0,0,3.27-2.66,8.78.41a7.08,7.08,0,0,0,3.84.93c3.11-.14,8.59-.43,10.33-.72,1.49-.25,2.68,1.86,3.39,3.57a.51.51,0,0,1-.76.62,5.38,5.38,0,0,0-4-.8c-3.7.62-12,.11-12,.11s-13.37-.31-15.84,3.91c0,0,7.82,1.23,12.76.41,4.56-.76,12.8-2.14,16.15,4.3a.27.27,0,0,1-.41.33c-1.47-1.37-4.59-2.95-10.43-1a13.17,13.17,0,0,1-5.84.58c-5.83-.77-18.28-2.25-26.31-1.95a16.17,16.17,0,0,1-7.22-1.43c-3.48-1.56-8.81-3.2-11.77-.44a.26.26,0,0,1-.41-.3,6.83,6.83,0,0,1,7.45-4.38,119,119,0,0,1,15.84,3.7l-5.86-20Z" transform="translate(-127.37 -172.26)"/><path class="cls-2" d="M347.88,367.41s4.73,17,6.07,17.39,7.51-.62,11.93-4.53c0,0,3.27-2.66,8.78.41a7,7,0,0,0,3.83.93c3.12-.14,8.6-.43,10.33-.72,1.49-.25,2.68,1.86,3.39,3.57a.51.51,0,0,1-.75.62,5.38,5.38,0,0,0-4-.8c-3.71.62-12,.11-12,.11s-13.38-.31-15.85,3.91c0,0,7.82,1.23,12.76.41,4.56-.76,12.81-2.14,16.15,4.3a.26.26,0,0,1-.4.33c-1.48-1.37-4.59-2.95-10.44-1a13.14,13.14,0,0,1-5.84.58c-5.82-.77-18.28-2.25-26.31-1.95a16.15,16.15,0,0,1-7.21-1.43c-3.49-1.56-8.81-3.2-11.77-.44a.26.26,0,0,1-.41-.3,6.82,6.82,0,0,1,7.45-4.38,119,119,0,0,1,15.84,3.7l-5.87-20Z" transform="translate(-127.37 -172.26)"/><polygon class="cls-3" points="76.26 148.46 4.29 148.34 47.36 141.82 76.26 148.46"/><path class="cls-4" d="M199.06,320.42l-69.26-.11a.19.19,0,0,1,0-.38l41.45-6.14h.07L199.1,320A.19.19,0,0,1,199.06,320.42Z" transform="translate(-127.37 -172.26)"/><path class="cls-5" d="M407.54,209.3c6.68,65.44-20.56,134.88-30.87,141.16L346,239.67s6.38-36.49,47-42.63C400.56,195.9,406.76,201.69,407.54,209.3Z" transform="translate(-127.37 -172.26)"/><path class="cls-6" d="M346.32,239.38,203.63,322s60.71,50.06,123.29,50.06,70.71-68.84,70.71-68.84Z" transform="translate(-127.37 -172.26)"/><path class="cls-7" d="M389.43,184.16c-16.27-2.41-51.94.13-79.41,53.17a31.16,31.16,0,0,1-11.59,12.4l-83.65,50.41a13.7,13.7,0,0,1-6.53,1.95L129.61,305a.36.36,0,0,0-.06.72l74.08,15.66s66.08,10.72,133.21-48a18.05,18.05,0,0,0,6-11.09l1.76-12.58a57.05,57.05,0,0,1,13.27-29.28h0a18.35,18.35,0,0,1,11.87-6.25l2-.23a23.82,23.82,0,0,0,13.43-6.09l16.18-14.79h0A15.52,15.52,0,0,0,389.43,184.16Z" transform="translate(-127.37 -172.26)"/><path class="cls-8" d="M385.12,195.57s33.14-16.8,49.15-21.78a19.1,19.1,0,0,1,10.93-.12h0s-36.93,13.21-49.44,24.4Z" transform="translate(-127.37 -172.26)"/><path class="cls-9" d="M408.9,191.19c10-6,31.86-15.89,39-15.16,0,0-38.64,21.3-42.25,25.9l-7.75-3.79-.25-1.94A39.35,39.35,0,0,0,408.9,191.19Z" transform="translate(-127.37 -172.26)"/><path class="cls-10" d="M395.76,198.24s-47.56-20-65.09,23.61C330.67,221.85,345.69,203.69,395.76,198.24Z" transform="translate(-127.37 -172.26)"/><path class="cls-11" d="M395.76,198.07s-48.4,2.75-65.09,23.78C330.67,221.85,367.39,220.94,395.76,198.07Z" transform="translate(-127.37 -172.26)"/><circle class="cls-12" cx="238.93" cy="30.19" r="8.62"/><circle class="cls-13" cx="239.25" cy="29.88" r="6.79"/><circle class="cls-2" cx="239.89" cy="30.22" r="8.8"/><circle class="cls-12" cx="241.48" cy="28.31" r="1.88"/><path class="cls-14" d="M330.39,263.8a19,19,0,0,1,17.78,15.63c2.12,11.54,2.67,23.29-2.55,33.53-5.09,10-15.1,16.82-25.8,20.18s-22.11,3.61-33.32,3.19a294.71,294.71,0,0,1-82.73-15.09C237,303.18,269.6,284.57,304,268.94A61.19,61.19,0,0,1,330.39,263.8Z" transform="translate(-127.37 -172.26)"/><path class="cls-7" d="M326.45,259.56a19,19,0,0,1,17.78,15.63c2.12,11.53,2.67,23.29-2.55,33.52-5.09,10-15.1,16.82-25.8,20.18s-22.11,3.62-33.32,3.2A294.71,294.71,0,0,1,199.83,317c33.22-18.06,65.83-36.68,100.26-52.3A61.19,61.19,0,0,1,326.45,259.56Z" transform="translate(-127.37 -172.26)"/><path class="cls-3" d="M208.74,302.9c-1.05.47-2,.82-3,1.23l-1.44.61c-.47.22-.93.43-1.42.61-1,.4-1.89.53-1.74,1.56a1.67,1.67,0,0,0,.79,1.13,5.15,5.15,0,0,0,1.44.6l1.48.41-1.61.5a8.38,8.38,0,0,0-2.72,1.56,7.22,7.22,0,0,0-1.77,2.36,7.85,7.85,0,0,0-.8,2.88,9.42,9.42,0,0,0,.34,3.28l-.17.11a5.76,5.76,0,0,1-1.77-3.28,6.66,6.66,0,0,1,.45-3.9,7,7,0,0,1,2.64-2.94,6.38,6.38,0,0,1,3.67-1l-.13.91a5.38,5.38,0,0,1-2.52-2.41,2.34,2.34,0,0,1-.15-1,2.08,2.08,0,0,1,.38-1,4.87,4.87,0,0,1,1.41-1.25,6.74,6.74,0,0,1,1.56-.73,11.8,11.8,0,0,1,1.65-.44,8.51,8.51,0,0,1,3.41,0Z" transform="translate(-127.37 -172.26)"/><path class="cls-3" d="M194.87,303.31c-.9.41-1.75.69-2.58,1s-1.65.66-2.44.94-1.56.48-1.88,1.24a1,1,0,0,0,.16,1,.8.8,0,0,0,.9.26l.25.86c-.9.53-1.74,1.12-2.5,1.63a6.52,6.52,0,0,0-1.79,1.85,3.4,3.4,0,0,0-.63,2.14,2.78,2.78,0,0,0,1.36,2.15l0,.19a2.87,2.87,0,0,1-2.88-1.87,4.08,4.08,0,0,1,.36-3.74,6.28,6.28,0,0,1,2.69-2.29,11.48,11.48,0,0,1,3.1-.89l.24.85a2,2,0,0,1-1.94-2.34,3.63,3.63,0,0,1,1.85-2.65,7.73,7.73,0,0,1,2.83-.85,6.94,6.94,0,0,1,2.93.26Z" transform="translate(-127.37 -172.26)"/><path class="cls-3" d="M177.65,303.94a10.67,10.67,0,0,1-1.72,1.09c-.53.29-.9.57-1.41.79s-1.05.68-.93,1.28.69,1,1,.87l3.21-1.09-3.23,2.51a3,3,0,0,0-.83.85,4.91,4.91,0,0,0-.41,1,2.92,2.92,0,0,0-.08,1.17,4,4,0,0,0,.49,1.47l-.1.17a2.43,2.43,0,0,1-1.73-1,3.16,3.16,0,0,1-.65-2.09,3.13,3.13,0,0,1,.95-2,3.17,3.17,0,0,1,1.93-1l0,1.41a2.12,2.12,0,0,1-.92-1.06,4.14,4.14,0,0,1-.27-1.16,4.36,4.36,0,0,1,.45-2.36,2.73,2.73,0,0,1,2-1.3,4,4,0,0,1,2.21.24Z" transform="translate(-127.37 -172.26)"/><path class="cls-3" d="M161.76,304.62a9.36,9.36,0,0,1-1.18.76c-.33.18-.49.36-.72.47s-.6.18-.66.52.34.68.56.5l.1.85a8.77,8.77,0,0,0-1.08.87,1.32,1.32,0,0,0-.36.62c0,.11-.17.11-.06.45a6.53,6.53,0,0,0,.84,1.17l-.06.19a2.34,2.34,0,0,1-1.84-.13,2,2,0,0,1-.94-2.26,2.53,2.53,0,0,1,1.53-1.62,3.56,3.56,0,0,1,1.75-.13l.1.86a2,2,0,0,1-1.27-1.2,1.84,1.84,0,0,1,.16-1.91,2.09,2.09,0,0,1,1.63-.74,2.49,2.49,0,0,1,1.5.53Z" transform="translate(-127.37 -172.26)"/><path class="cls-3" d="M168.11,304.49c-.38.44-.72.74-1,1a6,6,0,0,0-.48.74c-.13.2-.43.44-.36.81s.58.57.8.34l.24.75a4.05,4.05,0,0,0-1,1.08,2.32,2.32,0,0,0-.4,1,2.56,2.56,0,0,0-.11.92,1.83,1.83,0,0,0,.69,1.19v.2a1.82,1.82,0,0,1-2.06-.49,2.54,2.54,0,0,1-.61-2.3,3.16,3.16,0,0,1,1.31-1.83,3.51,3.51,0,0,1,1.94-.51l.24.75a2.26,2.26,0,0,1-1.7-.61,1.88,1.88,0,0,1-.64-1.91,2.27,2.27,0,0,1,3-1.36Z" transform="translate(-127.37 -172.26)"/><path class="cls-15" d="M311.9,370.17s1.56,17.53,2.81,18.15,7.51.63,12.52-2.5c0,0,3.66-2.09,8.59,1.85a7.2,7.2,0,0,0,3.63,1.55c3.1.36,8.55,1,10.31,1,1.51,0,2.34,2.28,2.76,4.08a.51.51,0,0,1-.85.49,5.37,5.37,0,0,0-3.79-1.44c-3.75,0-11.89-1.88-11.89-1.88s-13.14-2.5-16.27,1.25c0,0,7.51,2.51,12.52,2.51,4.62,0,13,0,15.22,6.9a.26.26,0,0,1-.45.26c-1.23-1.6-4.05-3.67-10.13-2.74a13.14,13.14,0,0,1-5.85-.38c-5.62-1.72-17.66-5.23-25.63-6.26a16.2,16.2,0,0,1-6.89-2.59c-3.18-2.11-8.16-4.61-11.53-2.37a.26.26,0,0,1-.35-.37,6.8,6.8,0,0,1,8.06-3.09,119.54,119.54,0,0,1,15,6.26l-2.51-20.66Z" transform="translate(-127.37 -172.26)"/><g class="cls-16"><path class="cls-12" d="M364.35,189.19c-.2-.45-1.8.26-1.6.71S364.54,189.64,364.35,189.19Z" transform="translate(-127.37 -172.26)"/><path class="cls-12" d="M355.28,190.8c-1,.53-.64,1.24.38.71S356.3,190.26,355.28,190.8Z" transform="translate(-127.37 -172.26)"/><path class="cls-12" d="M359,191.64c-1,.58-.56,1.33.44.74S360,191.06,359,191.64Z" transform="translate(-127.37 -172.26)"/><path class="cls-12" d="M351.28,192.9c-1.19.76-.73,1.49.46.73S352.48,192.14,351.28,192.9Z" transform="translate(-127.37 -172.26)"/><path class="cls-12" d="M342.23,200.85c-1.35,1-.69,1.88.65.87S343.57,199.84,342.23,200.85Z" transform="translate(-127.37 -172.26)"/><path class="cls-12" d="M346,197.11c-1.35,1-.69,1.88.65.85S347.32,196.08,346,197.11Z" transform="translate(-127.37 -172.26)"/><path class="cls-12" d="M334.43,206.82c-1.13,1.23-.22,2.06.91.83S335.55,205.58,334.43,206.82Z" transform="translate(-127.37 -172.26)"/><path class="cls-12" d="M337.23,203.34c-1.35,1-.7,1.88.65.89S338.58,202.35,337.23,203.34Z" transform="translate(-127.37 -172.26)"/><path class="cls-12" d="M332.18,212.86c-.81,1.3.13,1.89.95.6S333,211.57,332.18,212.86Z" transform="translate(-127.37 -172.26)"/><path class="cls-12" d="M327.76,212.65c-.89,1.23-.05,1.84.84.6S328.65,211.41,327.76,212.65Z" transform="translate(-127.37 -172.26)"/><path class="cls-12" d="M325.87,217.76c-1.2,1.21-.5,1.89.69.69S327.06,216.55,325.87,217.76Z" transform="translate(-127.37 -172.26)"/><path class="cls-12" d="M330.25,217.72c-1,1.18-.17,1.85.81.67S331.22,216.55,330.25,217.72Z" transform="translate(-127.37 -172.26)"/><path class="cls-12" d="M321.09,220.75c-1.31,1.59-.27,2.45,1,.86S322.41,219.16,321.09,220.75Z" transform="translate(-127.37 -172.26)"/><path class="cls-12" d="M324,222.44c-1.44,1.68-.25,2.7,1.19,1S325.48,220.76,324,222.44Z" transform="translate(-127.37 -172.26)"/><path class="cls-12" d="M328,222.67c-1.12,1.58,0,2.36,1.1.78S329.17,221.09,328,222.67Z" transform="translate(-127.37 -172.26)"/><path class="cls-12" d="M328.71,227.6c-1.31,1.43-.3,2.35,1,.92S330,226.16,328.71,227.6Z" transform="translate(-127.37 -172.26)"/><path class="cls-12" d="M319.43,230.88c-1.35,1.38-.52,2.19.83.81S320.77,229.51,319.43,230.88Z" transform="translate(-127.37 -172.26)"/><path class="cls-12" d="M324.38,227.8c-1.17,1.53-.25,2.25.93.71S325.56,226.27,324.38,227.8Z" transform="translate(-127.37 -172.26)"/><path class="cls-12" d="M324.06,233.91c-1.26,1.83-.12,2.62,1.14.79S325.32,232.08,324.06,233.91Z" transform="translate(-127.37 -172.26)"/><path class="cls-12" d="M318.54,241.77c-1.44,1.48-.62,2.27.81.79S320,240.29,318.54,241.77Z" transform="translate(-127.37 -172.26)"/><path class="cls-12" d="M326.63,251.31c-1.55,1.58-.55,2.57,1,1S328.19,249.74,326.63,251.31Z" transform="translate(-127.37 -172.26)"/><path class="cls-12" d="M311.77,249.56c-1.75,1.31-1,2.28.72,1S313.53,248.24,311.77,249.56Z" transform="translate(-127.37 -172.26)"/><path class="cls-12" d="M314.14,238.47c-1.19,1.84-.2,2.48,1,.64S315.33,236.62,314.14,238.47Z" transform="translate(-127.37 -172.26)"/><path class="cls-12" d="M320,248.7c-1.79,1-1.08,2.25.71,1.22S321.8,247.67,320,248.7Z" transform="translate(-127.37 -172.26)"/><path class="cls-12" d="M320.12,258.1c-1.91,1.33-1.1,2.51.82,1.18S322,256.77,320.12,258.1Z" transform="translate(-127.37 -172.26)"/><path class="cls-12" d="M311.28,257.46c-1.84,1.23-1,2.42.79,1.2S313.12,256.24,311.28,257.46Z" transform="translate(-127.37 -172.26)"/><path class="cls-12" d="M307.48,254.42c-2,.89-1.46,2.07.53,1.17S309.47,253.52,307.48,254.42Z" transform="translate(-127.37 -172.26)"/><path class="cls-12" d="M304.38,248.65c-2,.8-1.52,2.11.51,1.32S306.41,247.86,304.38,248.65Z" transform="translate(-127.37 -172.26)"/><path class="cls-12" d="M296.09,256.39c-2,1.18-1.35,2.23.63,1.05S298.07,255.21,296.09,256.39Z" transform="translate(-127.37 -172.26)"/><path class="cls-12" d="M302,261c-2.09,1.07-1.48,2.27.61,1.19S304.12,259.89,302,261Z" transform="translate(-127.37 -172.26)"/><path class="cls-12" d="M313.39,262c-2.24,1.06-1.45,2.76.8,1.7S315.64,260.94,313.39,262Z" transform="translate(-127.37 -172.26)"/><path class="cls-12" d="M300.14,266.6c-2.31,1.18-1.45,2.85.85,1.67S302.45,265.41,300.14,266.6Z" transform="translate(-127.37 -172.26)"/><path class="cls-12" d="M295.1,262c-2.23,1.56-1.52,2.58.71,1S297.34,260.47,295.1,262Z" transform="translate(-127.37 -172.26)"/><path class="cls-12" d="M287.11,268.67c-2.28,1.17-1.61,2.47.67,1.29S289.39,267.49,287.11,268.67Z" transform="translate(-127.37 -172.26)"/><path class="cls-12" d="M290.41,259.55c-1.86,1.08-1.18,2.27.69,1.19S292.28,258.47,290.41,259.55Z" transform="translate(-127.37 -172.26)"/><path class="cls-12" d="M293,270.92c-2.1,1.33-1.21,2.75.9,1.42S295.06,269.59,293,270.92Z" transform="translate(-127.37 -172.26)"/><path class="cls-12" d="M307.23,263c-2.38.75-1.82,2.54.56,1.79S309.61,262.23,307.23,263Z" transform="translate(-127.37 -172.26)"/><path class="cls-12" d="M263.43,275.31c-2.41,1.1-1.64,2.81.78,1.71S265.85,274.21,263.43,275.31Z" transform="translate(-127.37 -172.26)"/><path class="cls-12" d="M285.06,264c-2.4,1.15-1.69,2.65.72,1.5S287.46,262.81,285.06,264Z" transform="translate(-127.37 -172.26)"/><path class="cls-12" d="M278.23,270.37c-2.21,1.27-1.53,2.45.68,1.18S280.44,269.09,278.23,270.37Z" transform="translate(-127.37 -172.26)"/><path class="cls-12" d="M285,274.64c-2.23,1.43-1.3,2.87.92,1.44S287.25,273.21,285,274.64Z" transform="translate(-127.37 -172.26)"/><path class="cls-12" d="M270.88,277.89c-2.28,1.11-1.57,2.57.71,1.45S273.16,276.78,270.88,277.89Z" transform="translate(-127.37 -172.26)"/><path class="cls-12" d="M277,276.59c-2.19,1.29-1.33,2.76.87,1.47S279.21,275.3,277,276.59Z" transform="translate(-127.37 -172.26)"/><path class="cls-12" d="M270.67,270.11c-2.22,1.34-1.26,2.95,1,1.61S272.89,268.77,270.67,270.11Z" transform="translate(-127.37 -172.26)"/><path class="cls-12" d="M325.83,242.6c-2.1,1.3-1.12,2.9,1,1.6S327.93,241.31,325.83,242.6Z" transform="translate(-127.37 -172.26)"/><path class="cls-12" d="M285.28,259.05c-2.36.94-1.74,2.49.62,1.55S287.63,258.1,285.28,259.05Z" transform="translate(-127.37 -172.26)"/><path class="cls-12" d="M278,265.1c-2,1.09-1.36,2.2.61,1.11S280,264,278,265.1Z" transform="translate(-127.37 -172.26)"/><path class="cls-12" d="M298.49,251.63c-2,1.17-1.17,2.57.82,1.4S300.49,250.46,298.49,251.63Z" transform="translate(-127.37 -172.26)"/><path class="cls-12" d="M291.81,255.15c-1.83,1.14-1.19,2.17.64,1S293.64,254,291.81,255.15Z" transform="translate(-127.37 -172.26)"/><path class="cls-12" d="M301.18,255.72c-2.15.84-1.71,2,.44,1.14S303.34,254.88,301.18,255.72Z" transform="translate(-127.37 -172.26)"/><path class="cls-12" d="M309.86,245.07c-1.44,1.45-.44,2.44,1,1S311.3,243.61,309.86,245.07Z" transform="translate(-127.37 -172.26)"/><path class="cls-12" d="M318.14,225.94c-1.17,1.52-.27,2.22.91.7S319.31,224.41,318.14,225.94Z" transform="translate(-127.37 -172.26)"/><path class="cls-12" d="M319.13,236c-1.13,1.89-.12,2.49,1,.6S320.26,234.1,319.13,236Z" transform="translate(-127.37 -172.26)"/><path class="cls-12" d="M314.84,231.37c-1.33,1.56-.29,2.45,1,.88S316.18,229.8,314.84,231.37Z" transform="translate(-127.37 -172.26)"/><path class="cls-12" d="M331.51,210.1c-.91,1.22,0,1.9.9.67S332.43,208.88,331.51,210.1Z" transform="translate(-127.37 -172.26)"/></g><path class="cls-17" d="M205.13,322.43s59.59,47.74,121.47,47.74c52.22,0,66.89-53.59,70.2-70.33q1-5.28,2.34-10.5c3.71-14.87,4.92-30,6.23-45.36,1.17-13.73,4.39-29.16-.23-42.15" transform="translate(-127.37 -172.26)"/><path class="cls-17" d="M448,176.44s0-.08,0-.06c-17.6,5.05-36.66,12.24-52.53,21.38,14-11,32.2-19.3,49.28-24.38a.06.06,0,0,0,0-.11c-16.6,1.23-31.25,7.84-46.43,14.79" transform="translate(-127.37 -172.26)"/><path class="cls-2" d="M399.51,188.69c-3.13-3.13-8-4.7-12.51-5-17.27-1.19-49.71-.61-76.84,51.57a34.28,34.28,0,0,1-12.72,13.58l-82.53,49.74a15.24,15.24,0,0,1-7.25,2.16l-79,2.9a.28.28,0,0,0,0,.55l77.54,18.25" transform="translate(-127.37 -172.26)"/><path class="cls-2" d="M341.94,268.17l3.1-20a57.68,57.68,0,0,1,13.27-29.55h0c3-3.53,6.56-4.86,11.16-5.37h0a30.64,30.64,0,0,0,11.72-4.55,131.14,131.14,0,0,0,14.57-11.24" transform="translate(-127.37 -172.26)"/><path class="cls-2" d="M334,264.81a19,19,0,0,1,17.8,15.66c2.12,11.56,2.68,23.34-2.54,33.59-5.1,10-15.12,16.85-25.83,20.22s-22.14,3.62-33.35,3.2a318.35,318.35,0,0,1-82.38-14.58,1.61,1.61,0,0,1-.28-2.95c32.12-17.53,66.87-34.85,100.2-50A61.32,61.32,0,0,1,334,264.81Z" transform="translate(-127.37 -172.26)"/><path class="cls-18" d="M405.63,201.93c13.08-10.87,28.42-14.76,42-25" transform="translate(-127.37 -172.26)"/><path class="cls-14" d="M354.88,303.28c1.05.84,2,1.55,2.86,2.15a10.63,10.63,0,0,0,2.67,1.31,10.38,10.38,0,0,0,2.93.49c.54.08,1.1,0,1.7,0a15.09,15.09,0,0,1,1.91,0,8.24,8.24,0,0,1-1.43,1.4,7.29,7.29,0,0,1-1.81.9,6.65,6.65,0,0,1-4.23,0,6.82,6.82,0,0,1-3.41-2.5A6.12,6.12,0,0,1,354.88,303.28Z" transform="translate(-127.37 -172.26)"/><path class="cls-19" d="M367.33,307.29a.05.05,0,0,1,.05.09,8.27,8.27,0,0,1-7.43,1.08,8,8,0,0,1-5.09-5.42A.05.05,0,0,1,355,303C358.37,306.25,362.45,308.42,367.33,307.29Z" transform="translate(-127.37 -172.26)"/><path class="cls-14" d="M373.65,320.8a34.44,34.44,0,0,0,2.87,2.15,10.15,10.15,0,0,0,2.67,1.31,10.61,10.61,0,0,0,2.92.5c.54.07,1.1,0,1.71,0a17.21,17.21,0,0,1,1.91,0,8.24,8.24,0,0,1-1.43,1.4,7.88,7.88,0,0,1-1.81.91,6.75,6.75,0,0,1-7.64-2.48A6.13,6.13,0,0,1,373.65,320.8Z" transform="translate(-127.37 -172.26)"/><path class="cls-19" d="M386.11,324.82c.05,0,.09.06,0,.09a8.23,8.23,0,0,1-7.43,1.07,8,8,0,0,1-5.08-5.42,0,0,0,0,1,.08-.05C377.14,323.77,381.22,325.94,386.11,324.82Z" transform="translate(-127.37 -172.26)"/><path class="cls-14" d="M347.37,325.81c1.05.84,2,1.55,2.86,2.15a10.63,10.63,0,0,0,2.67,1.31,10.38,10.38,0,0,0,2.93.49c.54.08,1.1,0,1.7,0a15.09,15.09,0,0,1,1.91,0,8.24,8.24,0,0,1-1.43,1.4,7.29,7.29,0,0,1-1.81.9,6.65,6.65,0,0,1-4.23,0,6.82,6.82,0,0,1-3.41-2.5A6.14,6.14,0,0,1,347.37,325.81Z" transform="translate(-127.37 -172.26)"/><path class="cls-19" d="M359.82,329.82a.05.05,0,0,1,.05.09,8.27,8.27,0,0,1-7.43,1.08,8,8,0,0,1-5.09-5.43.05.05,0,0,1,.09,0C350.86,328.78,354.94,331,359.82,329.82Z" transform="translate(-127.37 -172.26)"/><path class="cls-14" d="M359.88,341.45c1.05.85,2,1.56,2.87,2.16a10.49,10.49,0,0,0,5.6,1.8c.54.07,1.09,0,1.7,0a15.19,15.19,0,0,1,1.91,0,8.19,8.19,0,0,1-1.43,1.39,7.32,7.32,0,0,1-1.81.91,6.75,6.75,0,0,1-7.64-2.48A6.13,6.13,0,0,1,359.88,341.45Z" transform="translate(-127.37 -172.26)"/><path class="cls-19" d="M372.34,345.47c.05,0,.09.06,0,.09a8.23,8.23,0,0,1-7.43,1.07,8,8,0,0,1-5.08-5.42.06.06,0,0,1,.09,0C363.38,344.43,367.45,346.6,372.34,345.47Z" transform="translate(-127.37 -172.26)"/><path class="cls-14" d="M328,341.73c1,.85,2,1.56,2.86,2.15a10.3,10.3,0,0,0,2.67,1.31,10.75,10.75,0,0,0,2.93.5c.54.07,1.1,0,1.7,0a15.19,15.19,0,0,1,1.91,0,8.19,8.19,0,0,1-1.43,1.39,7.32,7.32,0,0,1-1.81.91,6.75,6.75,0,0,1-7.64-2.48A6.12,6.12,0,0,1,328,341.73Z" transform="translate(-127.37 -172.26)"/><path class="cls-19" d="M340.42,345.75a.05.05,0,0,1,.05.09,8.23,8.23,0,0,1-7.43,1.07,8,8,0,0,1-5.09-5.42.06.06,0,0,1,.09-.05C331.46,344.71,335.53,346.88,340.42,345.75Z" transform="translate(-127.37 -172.26)"/><path class="cls-14" d="M343,356.13c1.05.84,2,1.55,2.86,2.15a11,11,0,0,0,2.67,1.31,10.38,10.38,0,0,0,2.93.49c.54.08,1.1,0,1.7,0a15.09,15.09,0,0,1,1.91,0,8.24,8.24,0,0,1-1.43,1.4,7.65,7.65,0,0,1-1.81.9,6.72,6.72,0,0,1-4.23,0,6.82,6.82,0,0,1-3.41-2.5A6.14,6.14,0,0,1,343,356.13Z" transform="translate(-127.37 -172.26)"/><path class="cls-19" d="M355.44,360.14a.05.05,0,0,1,.05.09,8.27,8.27,0,0,1-7.43,1.08,8,8,0,0,1-5.09-5.43.05.05,0,0,1,.09,0C346.48,359.1,350.55,361.27,355.44,360.14Z" transform="translate(-127.37 -172.26)"/><path class="cls-14" d="M316.24,357.11c1.05.84,2,1.56,2.86,2.15a10.27,10.27,0,0,0,5.6,1.8c.54.08,1.1,0,1.7,0a17.23,17.23,0,0,1,1.91,0,8.24,8.24,0,0,1-1.43,1.4,7.29,7.29,0,0,1-1.81.9,6.65,6.65,0,0,1-4.23,0,6.77,6.77,0,0,1-3.41-2.5A6.12,6.12,0,0,1,316.24,357.11Z" transform="translate(-127.37 -172.26)"/><path class="cls-19" d="M328.69,361.12a.06.06,0,0,1,.05.1,8.26,8.26,0,0,1-7.43,1.07,8,8,0,0,1-5.09-5.42.05.05,0,0,1,.09-.05C319.73,360.08,323.8,362.25,328.69,361.12Z" transform="translate(-127.37 -172.26)"/><path class="cls-14" d="M300.59,342.09c1.05.84,2,1.56,2.86,2.15a10.36,10.36,0,0,0,2.68,1.31,10.25,10.25,0,0,0,2.92.49c.54.08,1.1,0,1.71,0a17.21,17.21,0,0,1,1.91,0,8.61,8.61,0,0,1-1.43,1.4,7.46,7.46,0,0,1-1.81.9,6.58,6.58,0,0,1-4.23,0,6.68,6.68,0,0,1-3.41-2.5A6.13,6.13,0,0,1,300.59,342.09Z" transform="translate(-127.37 -172.26)"/><path class="cls-19" d="M313.05,346.1a.06.06,0,0,1,0,.1,8.26,8.26,0,0,1-7.43,1.07,8,8,0,0,1-5.08-5.42c0-.05.05-.09.08-.05C304.08,345.06,308.16,347.23,313.05,346.1Z" transform="translate(-127.37 -172.26)"/><path class="cls-2" d="M312.13,369.93s1.57,18.5,2.82,19.17,7.51.66,12.52-2.65c0,0,3.66-2.21,8.59,2a7,7,0,0,0,3.63,1.63c3.09.39,8.55,1,10.31,1,1.51,0,2.33,2.4,2.75,4.31a.51.51,0,0,1-.85.51,5.2,5.2,0,0,0-3.78-1.52c-3.76,0-11.89-2-11.89-2s-13.14-2.64-16.27,1.32c0,0,7.51,2.64,12.51,2.64,4.63,0,13,0,15.22,7.3a.26.26,0,0,1-.45.26c-1.23-1.68-4-3.87-10.12-2.88a12.65,12.65,0,0,1-5.86-.41c-5.61-1.82-17.66-5.52-25.63-6.61a15.52,15.52,0,0,1-6.88-2.73c-3.18-2.23-8.16-4.87-11.53-2.51-.24.17-.51-.13-.36-.38,1.13-1.82,3.67-4.66,8.06-3.27a115.46,115.46,0,0,1,15,6.61l-2.5-21.81Z" transform="translate(-127.37 -172.26)"/></svg>