<svg id="Layer_1" data-name="Layer 1" xmlns="http://www.w3.org/2000/svg" xmlns:xlink="http://www.w3.org/1999/xlink" viewBox="0 0 321.7 272.07"><defs><style>.cls-1{fill:#25262b;}.cls-14,.cls-16,.cls-2{fill:none;stroke:#000;stroke-miterlimit:10;}.cls-2{stroke-width:2px;}.cls-3{fill:#c4bca5;}.cls-4{fill:#d1cebf;}.cls-5{fill:#060606;}.cls-6{fill:#1a191e;}.cls-7{fill:#222327;}.cls-8{fill:url(#linear-gradient);}.cls-9{fill:#eca64f;}.cls-10{fill:#d69241;}.cls-11{fill:#efa840;}.cls-12{fill:#2d2d2d;}.cls-13{fill:#fff;}.cls-14{stroke-width:0.5px;}.cls-15{fill:#020202;}</style><linearGradient id="linear-gradient" x1="218.53" y1="266.72" x2="325.42" y2="490.65" gradientUnits="userSpaceOnUse"><stop offset="0" stop-color="#f2edcf"/><stop offset="1" stop-color="#9f9c7b"/></linearGradient></defs><title>falcon</title><path class="cls-1" d="M430.71,387.87c3.23-.4,4.34-5.63,1.68-8L375.63,329.5c-3.7-3.28-7.67-6.69-12.19-6.95-7.15-.42-13,7.05-16.93,14.57-4.82,9.18-14.51,19.4-5.22,28.48,8.1,7.93,21.66,10.88,31.42,14a191.63,191.63,0,0,0,34.59,7.59q8.58,1.05,17.2,1.31A59.51,59.51,0,0,0,430.71,387.87Z" transform="translate(-128.21 -152.91)"/><path class="cls-2" d="M433.84,388.46c3.23-.4,4.34-5.63,1.68-8L378.76,330.1c-3.69-3.28-7.66-6.69-12.18-7-7.16-.42-13,7.05-16.93,14.57-4.83,9.18-14.52,19.39-5.23,28.48,8.11,7.93,21.66,10.88,31.42,14a191,191,0,0,0,34.59,7.6q8.58,1.05,17.21,1.3A54.07,54.07,0,0,0,433.84,388.46Z" transform="translate(-128.21 -152.91)"/><path class="cls-3" d="M363.67,373.3c6.19,3.84,12.85,6.91,18.82,11.09,9.82,6.89,17.27,16.43,24,26.43a2.68,2.68,0,0,1-3.5,3.85,738.66,738.66,0,0,0-77.74-36.55c-14.1-5.65,5.56-15.79,12.11-17.68C348.31,357.3,355,367.93,363.67,373.3Z" transform="translate(-128.21 -152.91)"/><path class="cls-2" d="M366.53,371.89c6.19,3.84,12.86,6.91,18.83,11.1,9.82,6.88,17.27,16.42,24,26.42a2.68,2.68,0,0,1-3.5,3.85,737.56,737.56,0,0,0-77.73-36.55c-14.11-5.65,5.56-15.79,12.1-17.68C351.18,355.89,357.89,366.52,366.53,371.89Z" transform="translate(-128.21 -152.91)"/><path class="cls-4" d="M240.43,187.71a1.45,1.45,0,0,0-.1-1,1.44,1.44,0,0,0-.79-.46q-6-2-12-3.59a11.68,11.68,0,0,0-4.25-.6,11.8,11.8,0,0,0-4.32,1.61c-5.22,2.82-10.39,6.09-13.89,10.88-1.48,2-2.66,4.56-1.9,6.94.9,2.79,4.19,4.16,7.12,4.07s5.72-1.24,8.59-1.85c5.13-1.1,10.89-.57,15.15-3.63,1.76-1.27,4.38-3.36,5.3-5.39S240.12,189.87,240.43,187.71Z" transform="translate(-128.21 -152.91)"/><path class="cls-5" d="M435.33,364.92c4.85,1.88,10.18,4.08,13.77,8.3,1.79,2.1.38,6.11-2.05,5.78-27.85-3.83-53-22.18-77.11-40.13-3.64-2.71-7.38-5.52-10-9.82-1.25-2.07-4.62-9.62-2.17-12,1.91-1.88,8.08,5.48,9.59,6.77a250.47,250.47,0,0,0,21.91,16.77A228.54,228.54,0,0,0,435.33,364.92Z" transform="translate(-128.21 -152.91)"/><path class="cls-6" d="M340.47,361.9a49.59,49.59,0,0,0,17.17-4.56,6.7,6.7,0,0,0-4.72-4.2,17.27,17.27,0,0,0,10-1.14l-1.87-4.5,9.37-3.09a3.69,3.69,0,0,0-2.42-4.2c3.65.58,7.36-2.93,6.43-6.1,3.24,1,7.93,1.49,8.77-1.95a3.81,3.81,0,0,0-1.06-3.41c-5.41-5.85-12.45-13.12-21.35-12.26-3.23.32-6.19,1.71-9.07,3.07l-16,7.6c-12.13,5.76-25.75,14.35-21.18,28.3,3.3,10.09,18.52,11.94,28.77,11A31.87,31.87,0,0,0,340.47,361.9Z" transform="translate(-128.21 -152.91)"/><path class="cls-7" d="M228.21,228.73c-5.37,7.86-12,14.94-16.26,23.45-7.76,15.41-7,34.32,0,50.11s19.65,28.59,34.18,37.9,30.91,15.37,47.47,20.24c9.59,2.82,20.54,5.09,29.32.85a1.38,1.38,0,0,0-.05-2.49h0a1.38,1.38,0,0,1,.45-2.62,33.94,33.94,0,0,0,6.38-1.39,1.37,1.37,0,0,0,.44-2.37,7.71,7.71,0,0,1-1.23-1.26,1.39,1.39,0,0,1,.66-2.17l9.54-3.1a1.37,1.37,0,0,0,.71-2.1l-1.39-2a1.38,1.38,0,0,1,1-2.16l12.36-.93a1.38,1.38,0,0,0,.91-2.31l-.21-.23a1.36,1.36,0,0,1,.35-2.14,3.56,3.56,0,0,0,2-2.57,1.35,1.35,0,0,1,.89-1.1l4.47-1.56a1.37,1.37,0,0,0,.75-.63l1.45-2.59a1.38,1.38,0,0,1,2-.42c2.64,2,7.63.06,8.84-3.43,1.42-4-.46-8.43-2.34-12.29-13.23-27.12-29-53.55-51-74.22-15.44-14.51-34.18-26-54.73-31.55-6.65-1.79-19.63-6.33-25.55-1-2.93,2.64-3,7.34-4,10.84A54.62,54.62,0,0,1,228.21,228.73Z" transform="translate(-128.21 -152.91)"/><path class="cls-8" d="M378.23,422.08a2.55,2.55,0,0,0,3-3.8q-4.08-6.11-8.17-12.22c-7.86-11.74-15.88-23.67-26.77-32.68-17.33-14.35-40-19.87-61-28-21.25-8.28-41.88-20.11-55.69-38.27S210,263.49,219.39,242.7c.27-.59.57-1.16.85-1.74,6-3.06,10.75-8.52,13.91-14.56,4.17-8,6-17,8-25.72a7.13,7.13,0,0,0-.87-5.58c-2.2-3.29-5.66-2.34-8.57-1.33s-5.91,2.06-8.86,3.12c-14.33,2.22-28.88,7.37-42.87,10.89-8.63,2.18-17.41,4.41-25,9.1-19.34,12-26.33,38.16-21,60.28s20.6,40.55,37.63,55.62c11.92,10.56,25.14,20.16,33.69,33.59,4.63,7.28,8.2,15.95,15.76,20.1,10.06,5.52,22.44.64,32.83-4.25,6.5,12.53,22.69,15.67,36.7,17.37,5.55.67,11.63,1.22,16.27-1.88,4-2.7,5.36-9.34,2.3-12.54A296.3,296.3,0,0,0,378.23,422.08Z" transform="translate(-128.21 -152.91)"/><path class="cls-9" d="M280.35,398.84s-3.45,13.8-8.62,15.52-34.5,0-34.5,0-8,1.34-11.11,5.18a.77.77,0,0,0,.81,1.22c2.65-.68,7.77-1.66,11.63-.48a22.27,22.27,0,0,0,6.53,1H276.9s9.25,0,15,2.32a.54.54,0,0,0,.6-.87,29.83,29.83,0,0,0-8.73-6.62s6.9-12.08,6.9-17.25Z" transform="translate(-128.21 -152.91)"/><path class="cls-10" d="M227.75,388.49s-3.45,13.8-8.62,15.52-34.5,0-34.5,0-8,1.34-11.11,5.18a.78.78,0,0,0,.81,1.22c2.65-.68,7.77-1.66,11.63-.48a22.27,22.27,0,0,0,6.53,1H224.3s9.26,0,15,2.32a.54.54,0,0,0,.6-.87,30,30,0,0,0-8.73-6.62s6.9-12.08,6.9-17.25Z" transform="translate(-128.21 -152.91)"/><path class="cls-7" d="M161.7,189.69l-5.43.4,7.11-6.53a7.6,7.6,0,0,0-5.06-2.19c10.94-12.24,25.22-21.83,41.22-25.52s33.72-1.06,47,8.64a1.3,1.3,0,0,1,.43,2.15,54,54,0,0,1-14.49,14.73c-2.16,1.48-4.5,2.86-5.93,5-1.79,2.71-2.28,6.68-5.29,7.9-1.68.68-4.11.53-4.69,2.24-.26.76,0,1.61-.22,2.37a3.85,3.85,0,0,1-2,1.95L206,205.6a21.8,21.8,0,0,1-5.56,2.48,21.22,21.22,0,0,1-6,.24c-5.71-.3-12.09,3.11-17.3,5.05-7.5,2.81-15.12,5.21-22.64,8a6.79,6.79,0,0,1-4,.59c3.73-5.37,3-11.65,4.68-17.69C156.53,199.28,158.45,193.76,161.7,189.69Z" transform="translate(-128.21 -152.91)"/><path class="cls-11" d="M256.2,170.34a23.34,23.34,0,0,1,6.6,9.88,15.28,15.28,0,0,1,1.19,7.44,7.27,7.27,0,0,1-4.27,5.87c1.16-1,.83-3-.28-4.09a7.89,7.89,0,0,0-4.22-1.69,80.8,80.8,0,0,0-22.87-.71q-2.82.32-5.59.83c-.85.15-1.76.47-1.14-.69a12.28,12.28,0,0,1,1.57-2.09c4-4.71,6.89-10.38,11.38-14.71a14.07,14.07,0,0,1,6.26-3.79,10.81,10.81,0,0,1,7.53,1.15A21.25,21.25,0,0,1,256.2,170.34Z" transform="translate(-128.21 -152.91)"/><path class="cls-7" d="M264.83,183.23c.6,3.74.52,6.8-5.18,10.35,1.07-1.54-.57-3.28-1.5-4.41a3.38,3.38,0,0,0-.7-.8,4.75,4.75,0,0,0-1.42-.47,27.4,27.4,0,0,0-3-.49c-2.43-.29-4.88,0-7.33-.21s-5.05-.52-7.58-.63l5.35-4.51a19.65,19.65,0,0,0,2.85-2.77c.79-1,1.37-2.18,2.13-3.22a11.17,11.17,0,0,1,4.13-3.43,6,6,0,0,1,3.62-.67c2.3.4,4,2.59,5.17,4.36C262.77,178.51,264.41,180.65,264.83,183.23Z" transform="translate(-128.21 -152.91)"/><path class="cls-7" d="M161.6,226.63a37.94,37.94,0,0,1,4.1-.51c2.91,0,5.67,1.33,8.58,1.49,3.09.18,6.09-1,9-2.13l10.62-4.23a12.29,12.29,0,0,1-9.09,11.27,21.41,21.41,0,0,0-3.9,1c-1.47.68-2.59,1.95-4,2.74-3.52,2-7.89.58-11.93.72-1.82.06-3.62.45-5.44.58a39.21,39.21,0,0,1-10.65-1.22l-8.08-1.7c.28.06,5.53-10.51,7.77-11,1.56-.33,3.95,1.73,5.58,2.25A17.53,17.53,0,0,0,161.6,226.63Z" transform="translate(-128.21 -152.91)"/><path class="cls-6" d="M262.9,316a20.76,20.76,0,0,0,6.74,6.14c1.29.82,2.62,1.59,4,2.34s2.67,1.53,4,2.27c5.38,3,10.8,5.9,16.33,8.59s11.07,5.37,16.7,7.85c2.81,1.25,5.63,2.47,8.48,3.63s5.7,2.33,8.55,3.5c-2.93-.95-5.83-2-8.73-3s-5.75-2.22-8.61-3.38c-5.7-2.34-11.3-4.95-16.84-7.66s-10.95-5.69-16.26-8.83c-1.33-.78-2.65-1.58-4-2.38s-2.63-1.61-3.91-2.48A20.14,20.14,0,0,1,262.9,316Z" transform="translate(-128.21 -152.91)"/><path class="cls-6" d="M272.23,305.41a20.75,20.75,0,0,0,6.74,6.14c1.3.82,2.63,1.59,4,2.35s2.67,1.52,4,2.26c5.38,3,10.8,5.9,16.32,8.6s11.07,5.36,16.7,7.85c2.81,1.24,5.64,2.47,8.49,3.63s5.7,2.33,8.55,3.49c-2.93-1-5.84-2-8.73-3s-5.76-2.22-8.61-3.39c-5.71-2.34-11.3-4.95-16.84-7.66s-10.95-5.68-16.26-8.82q-2-1.17-4-2.39c-1.32-.8-2.64-1.61-3.92-2.48A20.24,20.24,0,0,1,272.23,305.41Z" transform="translate(-128.21 -152.91)"/><path class="cls-6" d="M284.31,298.4a20.76,20.76,0,0,0,6.74,6.14c1.29.82,2.62,1.59,4,2.35s2.67,1.52,4,2.26c5.38,3,10.8,5.9,16.33,8.6s11.07,5.36,16.7,7.84q4.21,1.88,8.48,3.64c2.83,1.21,5.7,2.33,8.55,3.49-2.93-1-5.83-2-8.73-3s-5.75-2.22-8.61-3.38c-5.7-2.34-11.3-4.95-16.84-7.66s-11-5.69-16.26-8.83c-1.33-.78-2.65-1.58-4-2.38s-2.63-1.61-3.91-2.48A20.14,20.14,0,0,1,284.31,298.4Z" transform="translate(-128.21 -152.91)"/><path class="cls-6" d="M294.66,289.77a20.74,20.74,0,0,0,6.73,6.15c1.3.81,2.63,1.58,4,2.34s2.67,1.53,4,2.26c5.38,3,10.8,5.9,16.33,8.6s11.07,5.37,16.69,7.85c2.82,1.25,5.64,2.47,8.49,3.63s5.7,2.33,8.55,3.49c-2.93-.95-5.83-2-8.73-3s-5.75-2.22-8.61-3.38c-5.7-2.35-11.3-4.95-16.84-7.66s-10.95-5.69-16.26-8.83q-2-1.17-4-2.39c-1.32-.8-2.63-1.6-3.91-2.48A20,20,0,0,1,294.66,289.77Z" transform="translate(-128.21 -152.91)"/><path class="cls-6" d="M316.58,291.9a15.27,15.27,0,0,0,5.13,4.21c1.94,1.1,4,2.12,6,3.13,4,2,8,4,12.11,5.86s8.18,3.68,12.33,5.39c2.07.87,4.15,1.72,6.24,2.52s4.19,1.63,6.28,2.46c-2.17-.61-4.31-1.3-6.45-2s-4.25-1.49-6.36-2.27c-4.21-1.58-8.35-3.36-12.46-5.2s-8.11-3.91-12.05-6.1c-2-1.09-3.92-2.19-5.84-3.38A14.52,14.52,0,0,1,316.58,291.9Z" transform="translate(-128.21 -152.91)"/><path d="M222.09,383a1.77,1.77,0,0,1,.83-1.61,3.54,3.54,0,0,1,1.79-.57,4.72,4.72,0,0,1,1.85.27c.57.17,1.1.39,1.62.58a4.88,4.88,0,0,0,1.57.35,3.16,3.16,0,0,0,1.57-.42A5.56,5.56,0,0,1,233,381a7.7,7.7,0,0,1,1.79-.08,13.42,13.42,0,0,0,3.35,0c1.09-.18,2.24-.48,3.38-.67a58.8,58.8,0,0,1,6.9-.83l0,.1a61,61,0,0,1-6.72,1.78c-1.15.22-2.26.42-3.46.56a6.62,6.62,0,0,1-1.83-.05c-.59-.08-1.15-.24-1.71-.35a5.58,5.58,0,0,0-1.67-.14,4,4,0,0,0-1.56.59,4.67,4.67,0,0,1-1.68.7,5,5,0,0,1-1.85-.12,17.42,17.42,0,0,0-3.21-.87,3.65,3.65,0,0,0-1.54.26,1.64,1.64,0,0,0-1,1.16Z" transform="translate(-128.21 -152.91)"/><path d="M217.21,376.35a3.26,3.26,0,0,1,1.8-1.27,6.64,6.64,0,0,1,2.21-.23,37.55,37.55,0,0,0,4.16.36,4.47,4.47,0,0,0,1.92-.51,5.8,5.8,0,0,1,2.12-.63,5.28,5.28,0,0,1,2.1.61,5.12,5.12,0,0,0,2,.55c2.73.09,5.18-1.83,8.32-1.81a28.39,28.39,0,0,1,4.27.71,6.51,6.51,0,0,0,4.07-.19l0,.09a5.91,5.91,0,0,1-4.23.87c-1.44-.13-2.84-.41-4.18-.41a15,15,0,0,0-4,.76,9.65,9.65,0,0,1-4.35.52c-1.53-.19-2.62-1.43-4-1.37a4.16,4.16,0,0,0-1.87.8,5.23,5.23,0,0,1-2.09.84,15.4,15.4,0,0,1-4.31-.42,4.77,4.77,0,0,0-3.87.79Z" transform="translate(-128.21 -152.91)"/><path d="M211.78,369a2.09,2.09,0,0,1,2-1c.8,0,1.52.25,2.19.24a3.2,3.2,0,0,0,1.81-.68,6.9,6.9,0,0,1,2.07-1.1,4.43,4.43,0,0,1,2.38.16c.73.24,1.41.55,2.11.8a5.42,5.42,0,0,0,2.12.39,3.62,3.62,0,0,0,2-.72,10.7,10.7,0,0,1,2-1.18,3.68,3.68,0,0,1,2.45-.05,18.27,18.27,0,0,0,2.09.62,6,6,0,0,0,2,0,34.55,34.55,0,0,0,4.22-1.14,7.8,7.8,0,0,1,4.51-.19l0,.1c-3-.27-5.44,1.72-8.54,2.28a6.06,6.06,0,0,1-2.4,0,18.74,18.74,0,0,1-2.16-.74,3,3,0,0,0-1.91-.1,14.14,14.14,0,0,0-2,.91,4.67,4.67,0,0,1-2.23.59,7.87,7.87,0,0,1-2.23-.43c-1.41-.43-2.92-.92-4.16-.47a9.53,9.53,0,0,0-1.82,1A3.71,3.71,0,0,1,216,369c-.83-.07-1.51-.4-2.2-.5a2,2,0,0,0-1.9.54Z" transform="translate(-128.21 -152.91)"/><path class="cls-12" d="M261.18,385.79a22.22,22.22,0,0,0,11,2.19c1.89-.09,3.8-.41,5.73-.65a23.46,23.46,0,0,1,2.9-.24c1,0,2,.15,2.88.08,1.82-.18,3.47-1.34,5.42-1.8a19.41,19.41,0,0,1,5.86-.7,42,42,0,0,1,11.41,2.3l0,.1a82.53,82.53,0,0,0-11.4-1.34,22.85,22.85,0,0,0-5.6.55,23.58,23.58,0,0,0-2.72.84,8.89,8.89,0,0,1-2.92.6c-1,0-1.95-.27-2.9-.27a14.49,14.49,0,0,0-2.86.2c-1.89.31-3.73.92-5.7,1.16a16.24,16.24,0,0,1-11.15-2.93Z" transform="translate(-128.21 -152.91)"/><path class="cls-12" d="M256.83,380.15a32.93,32.93,0,0,1,12.2-.43,12.34,12.34,0,0,0,3,.28,8.93,8.93,0,0,0,2.87-.73c.93-.39,1.83-.86,2.79-1.24a7,7,0,0,1,3.06-.61,7.1,7.1,0,0,1,3,1,5,5,0,0,0,2.68.72c1.87-.08,3.7-1.15,5.79-1.52a16.32,16.32,0,0,1,11.93,2.25L304,380a18.74,18.74,0,0,0-11.66-1.29c-1.91.33-3.75,1.36-6,1.41a5.07,5.07,0,0,1-1.64-.26,8.37,8.37,0,0,1-1.44-.7,7.19,7.19,0,0,0-2.65-1.18,5.88,5.88,0,0,0-2.88.4c-.94.34-1.86.78-2.79,1.2a11.52,11.52,0,0,1-2.93,1,12.06,12.06,0,0,1-3.12,0,72.53,72.53,0,0,0-12.08-.29Z" transform="translate(-128.21 -152.91)"/><path class="cls-12" d="M256.57,374.08a11.46,11.46,0,0,1,4.92-2.56,14,14,0,0,1,5.58-.1,13.12,13.12,0,0,0,5.36.16,19.29,19.29,0,0,0,2.51-1.07,5.24,5.24,0,0,1,2.8-.36c1.91.27,3.54,1.24,5.25,1.47a16.52,16.52,0,0,0,5.28-.25c1.77-.3,3.57-.68,5.42-.9a12.09,12.09,0,0,1,5.51.51l0,.09c-3.64-.65-7.09.67-10.72,1.35a14.74,14.74,0,0,1-5.62.12c-1.93-.34-3.48-1.44-5.19-1.85a4.23,4.23,0,0,0-2.58.15c-.83.31-1.64.78-2.54,1.05a15,15,0,0,1-5.54.36,19.41,19.41,0,0,0-5.33,0,14.89,14.89,0,0,0-5,1.89Z" transform="translate(-128.21 -152.91)"/><path class="cls-13" d="M149.68,257c1.16.77,2.17,1.42,3.16,1.95a11.06,11.06,0,0,0,2.92,1.08,10.72,10.72,0,0,0,3.09.19c.57,0,1.13-.15,1.76-.17a15.76,15.76,0,0,1,2-.23,8.64,8.64,0,0,1-1.34,1.57q-.4.31-.84.6a4,4,0,0,1-.93.51,7,7,0,0,1-8.11-1.73A6.45,6.45,0,0,1,149.68,257Z" transform="translate(-128.21 -152.91)"/><path class="cls-14" d="M163,259.58a.06.06,0,0,1,.06.09,8.56,8.56,0,0,1-7.5,2.12,8.32,8.32,0,0,1-6-4.88.05.05,0,0,1,.08-.06C153.62,259.74,158.11,261.41,163,259.58Z" transform="translate(-128.21 -152.91)"/><path class="cls-13" d="M174.52,249.3a35.16,35.16,0,0,0,3.34,2.17,10.92,10.92,0,0,0,3.18,1.21,3.13,3.13,0,0,0,.81.14,3.73,3.73,0,0,0,.82.07l.86,0c.29,0,.59,0,.89-.06a5.88,5.88,0,0,0,.93-.1c.31,0,.64-.08,1-.12a19.8,19.8,0,0,1,2.09-.3,10.34,10.34,0,0,1-1.47,1.64c-.29.22-.6.43-.91.63a4.55,4.55,0,0,1-1,.53,7.53,7.53,0,0,1-8.65-1.85A7,7,0,0,1,174.52,249.3Z" transform="translate(-128.21 -152.91)"/><path class="cls-14" d="M188.85,252.12a.06.06,0,0,1,.07.09,9.21,9.21,0,0,1-8.08,2.29,9,9,0,0,1-6.44-5.26.07.07,0,0,1,.1-.07C178.77,252.29,183.6,254.09,188.85,252.12Z" transform="translate(-128.21 -152.91)"/><path class="cls-13" d="M183.08,271.86a36.16,36.16,0,0,0,3.39,2.11,11.54,11.54,0,0,0,3.2,1.15,3.67,3.67,0,0,0,.81.11,3.29,3.29,0,0,0,.83.06l.86,0c.29,0,.59-.07.89-.09a4.81,4.81,0,0,0,.92-.11c.32-.06.64-.1,1-.14.66-.11,1.31-.29,2.08-.35a9.09,9.09,0,0,1-1.43,1.67c-.29.23-.59.45-.9.65a4.17,4.17,0,0,1-1,.55,7.53,7.53,0,0,1-4.61.57,7.66,7.66,0,0,1-4.08-2.24A7.11,7.11,0,0,1,183.08,271.86Z" transform="translate(-128.21 -152.91)"/><path class="cls-14" d="M197.48,274.39a.06.06,0,0,1,.06.1,9.24,9.24,0,0,1-8,2.45A9,9,0,0,1,183,271.8a.06.06,0,0,1,.09-.07C187.39,274.76,192.27,276.47,197.48,274.39Z" transform="translate(-128.21 -152.91)"/><path class="cls-13" d="M160.74,292.75a35.41,35.41,0,0,0,3.38,2.08,10.74,10.74,0,0,0,3.17,1.14,3.17,3.17,0,0,0,.81.12,3.73,3.73,0,0,0,.82.06l.86,0c.28,0,.58-.07.88-.09a4.81,4.81,0,0,0,.92-.11c.31-.05.63-.1,1-.13a19.37,19.37,0,0,1,2.07-.35,10.21,10.21,0,0,1-1.42,1.67l-.89.65a4.52,4.52,0,0,1-1,.54,7.46,7.46,0,0,1-4.59.57,7.57,7.57,0,0,1-4.06-2.24A7,7,0,0,1,160.74,292.75Z" transform="translate(-128.21 -152.91)"/><path class="cls-14" d="M175.05,295.26a.06.06,0,0,1,.07.1,9.18,9.18,0,0,1-8,2.43,8.92,8.92,0,0,1-6.5-5.1.06.06,0,0,1,.09-.07C165,295.63,169.87,297.33,175.05,295.26Z" transform="translate(-128.21 -152.91)"/><path class="cls-13" d="M194.8,297.66a36.54,36.54,0,0,0,3.78,1.38,11.16,11.16,0,0,0,3.4.48,14,14,0,0,0,1.66-.17l.86-.17c.27-.1.56-.18.86-.27a4.81,4.81,0,0,0,.88-.3c.3-.12.61-.23.93-.34a18.58,18.58,0,0,1,2-.78,10.23,10.23,0,0,1-1.07,1.94c-.24.28-.49.56-.76.83a4.41,4.41,0,0,1-.86.74,7.61,7.61,0,0,1-4.43,1.52,7.69,7.69,0,0,1-4.49-1.37A7.16,7.16,0,0,1,194.8,297.66Z" transform="translate(-128.21 -152.91)"/><path class="cls-14" d="M209.54,297.17a.06.06,0,0,1,.08.08,9.29,9.29,0,0,1-7.42,4.08,9,9,0,0,1-7.52-3.71s0-.1.07-.08C199.66,299.63,204.83,300.3,209.54,297.17Z" transform="translate(-128.21 -152.91)"/><path class="cls-13" d="M152.83,276.49c1.17.63,2.18,1.15,3.16,1.57a10.49,10.49,0,0,0,2.82.78,9.82,9.82,0,0,0,2.91,0c.54,0,1.06-.2,1.65-.26a17.36,17.36,0,0,1,1.86-.33,8.56,8.56,0,0,1-1.13,1.62,7.36,7.36,0,0,1-1.6,1.2,6.6,6.6,0,0,1-7.85-1.06A6,6,0,0,1,152.83,276.49Z" transform="translate(-128.21 -152.91)"/><path class="cls-14" d="M165.61,278s.1,0,.06.08a8.14,8.14,0,0,1-6.94,2.55,7.91,7.91,0,0,1-6-4.19s0-.09.08-.06C156.76,278.82,161.13,280.08,165.61,278Z" transform="translate(-128.21 -152.91)"/><path class="cls-12" d="M208.8,358.93a22.65,22.65,0,0,1,8.44-2.36,25.2,25.2,0,0,1,4.43.07c1.49.13,2.91.53,4.32.77a10.28,10.28,0,0,0,4.2.14,14.67,14.67,0,0,0,3.88-1.81,19.25,19.25,0,0,1,8.44-2.29,16.87,16.87,0,0,1,4.42.42,32.72,32.72,0,0,1,4.2,1.37,41.05,41.05,0,0,0,8.27,2.38,38.8,38.8,0,0,0,17.13-.84l0,.1a33,33,0,0,1-17.34,1.8,33.76,33.76,0,0,1-4.31-1c-1.41-.44-2.78-1-4.12-1.54a39.38,39.38,0,0,0-4-1.47,18.27,18.27,0,0,0-4.22-.65,15.92,15.92,0,0,0-8.28,2.05,18.45,18.45,0,0,1-3.92,2,10.66,10.66,0,0,1-4.46.14c-1.46-.24-2.87-.54-4.29-.72a23.52,23.52,0,0,0-4.28-.17,28,28,0,0,0-8.45,1.68Z" transform="translate(-128.21 -152.91)"/><path class="cls-12" d="M205.09,352.26a6.15,6.15,0,0,1,3.18-2.53,12.52,12.52,0,0,1,4-.76c2.73-.05,5.42.3,7.94-.29,1.26-.28,2.47-.87,3.78-1.3a7.05,7.05,0,0,1,4.09-.24,17.53,17.53,0,0,0,3.9.83,8.46,8.46,0,0,0,3.79-1c2.37-1.13,4.62-2.85,7.48-3.26s5.57.4,8.14,1.09a46.19,46.19,0,0,0,15.85,1.63l0,.1a36.59,36.59,0,0,1-16.15-.7c-2.59-.68-5.17-1.48-7.74-1.19s-4.86,1.82-7.38,2.83a9.74,9.74,0,0,1-4,.82,23,23,0,0,1-4-.86,6.08,6.08,0,0,0-3.83.44,37.9,37.9,0,0,1-3.76,1.59c-2.74.78-5.51.25-8.14.25a12.75,12.75,0,0,0-3.89.49,6.37,6.37,0,0,0-3.27,2.09Z" transform="translate(-128.21 -152.91)"/><path class="cls-12" d="M191.35,339.54a21.17,21.17,0,0,0,7.34-1.53c2.4-.76,4.91-1.66,7.57-1.47s5,1.42,7.46,1.68a17.06,17.06,0,0,0,7.36-1.37,22.29,22.29,0,0,1,7.51-1.75c1.33,0,2.59.25,3.8.27a10.73,10.73,0,0,0,3.57-.55c1.19-.34,2.36-.82,3.59-1.21a19.48,19.48,0,0,1,3.79-.87,17.46,17.46,0,0,1,7.61.77l0,.1a20,20,0,0,0-7.48-.09c-2.47.37-4.69,1.52-7.17,2.32a11.23,11.23,0,0,1-3.92.58c-1.33-.07-2.57-.34-3.79-.37a25.24,25.24,0,0,0-7.33,1.32,21.94,21.94,0,0,1-7.55,1.18c-2.56-.2-5-1.15-7.47-1.18a25,25,0,0,0-7.3,1.37c-2.43.68-5,1.36-7.58.9Z" transform="translate(-128.21 -152.91)"/><path class="cls-12" d="M181.92,329.75a35.6,35.6,0,0,1,7.13-2.77,18.29,18.29,0,0,1,3.85-.5,13.77,13.77,0,0,1,3.85.54,13.75,13.75,0,0,0,3.65.69,12.66,12.66,0,0,0,3.69-.56c2.42-.69,4.73-1.82,7.33-2.15a9.87,9.87,0,0,1,3.87.3,9.49,9.49,0,0,0,3.62.29c2.42-.29,4.74-1.38,7.27-2a25.22,25.22,0,0,1,15.13,1.16l0,.09a29.66,29.66,0,0,0-14.85-.22c-2.4.58-4.78,1.61-7.43,1.87a9.81,9.81,0,0,1-3.9-.46,10.11,10.11,0,0,0-3.64-.53c-2.48.15-4.86,1.17-7.28,1.92a15.83,15.83,0,0,1-3.77.81,14.09,14.09,0,0,1-3.85-.44,16.43,16.43,0,0,0-7.35-.1,63.57,63.57,0,0,0-7.25,2.11Z" transform="translate(-128.21 -152.91)"/><ellipse class="cls-11" cx="87.22" cy="19.36" rx="9.58" ry="9.58"/><circle class="cls-15" cx="87.57" cy="19.02" r="7.55"/><ellipse class="cls-16" cx="88.28" cy="19.4" rx="9.78" ry="9.77"/><circle class="cls-13" cx="88.28" cy="19.4" r="2.09"/><path class="cls-2" d="M151.94,217.12c-19.34,12-26.33,38.17-21,60.28S151.52,318,168.55,333c11.92,10.55,25.14,20.16,33.69,33.59,4.63,7.27,8.2,15.94,15.76,20.09,10.06,5.53,22.44.65,32.83-4.25,6.51,12.53,22.69,15.67,36.71,17.37,5.54.67,11.62,1.22,16.26-1.88,4-2.7,5.36-9.34,2.31-12.54a296,296,0,0,0,68.09,36.91,2.55,2.55,0,0,0,3-3.8l-8.17-12.21c-7.86-11.75-15.88-23.68-26.77-32.69-17.33-14.34-40-19.87-61-28-21.26-8.28-41.89-20.11-55.7-38.26S206,263.73,215.37,242.94c.26-.59.56-1.16.84-1.73" transform="translate(-128.21 -152.91)"/><path class="cls-2" d="M152.49,221a6.63,6.63,0,0,1-4,.59c3.73-5.37,3-11.65,4.68-17.69,1.35-5,3.27-10.48,6.52-14.55l-5.43.41,7.11-6.53A7.55,7.55,0,0,0,156.3,181c10.94-12.24,25.22-21.84,41.22-25.53s33.72-1.06,47,8.64a1.73,1.73,0,0,1,.82,1,1.69,1.69,0,0,1-.39,1.1" transform="translate(-128.21 -152.91)"/><path class="cls-16" d="M224.88,391.08s-3.45,13.8-8.63,15.52-34.49,0-34.49,0-8,1.34-11.11,5.18a.77.77,0,0,0,.8,1.22c2.66-.68,7.78-1.66,11.64-.48a22.17,22.17,0,0,0,6.53,1h31.81s9.25,0,15,2.31a.54.54,0,0,0,.6-.87,30,30,0,0,0-8.73-6.61s6.9-12.08,6.9-17.25Z" transform="translate(-128.21 -152.91)"/><path class="cls-16" d="M278.33,399.7s-3.45,13.8-8.63,15.52-34.5,0-34.5,0-8,1.34-11.11,5.19a.77.77,0,0,0,.81,1.21c2.66-.67,7.77-1.66,11.63-.48a22.29,22.29,0,0,0,6.54,1h31.81s9.25,0,15,2.32a.54.54,0,0,0,.6-.87,30.08,30.08,0,0,0-8.72-6.62s6.9-12.07,6.9-17.25Z" transform="translate(-128.21 -152.91)"/></svg>