<svg id="Layer_1" data-name="Layer 1" xmlns="http://www.w3.org/2000/svg" viewBox="0 0 470.81 259.35"><defs><style>.cls-1{fill:#2c491b;}</style></defs><title>grass</title><path class="cls-1" d="M667.52,616.58c.08.22.23.41.86.56-.43-4.28-.84-8.56-1.3-12.83a91,91,0,0,0-2.35-12.94c-1.09-4.25-2.35-8.48-3.47-12.73s-3-8.26-3.15-12.7c5.2,4,7.36,9.57,10.6,14.62-1.44-11.33-6.49-22-8.57-33.24,8.9,8.15,13.05,18.28,17.36,28.81.66-2.18-1-3.77-.31-5.63,1.84.86,2.65,2.38,3.57,3.76,7.46,11.21,11.07,23.39,12.82,36a88.93,88.93,0,0,1,.72,11.82c1.85-2.6,2.35-5.23,3.3-7.69a71.32,71.32,0,0,0,2.44-7.86,79.49,79.49,0,0,0,1.71-8c.41-2.69.54-5.41,1.17-8.18,2.88,3.88,3,8.24,3,12.71,3.08-6.38,3.39-13.16,4-20.08,2,1.69,2.88,4.33,3.09,8.58.38,7.77-1.44,15.29-3.87,22.72-1.82,5.56-3.94,11.06-5.88,16.59-.3.88-1,1.76-.26,2.8,5.73-13.49,12.55-26.73,12.73-42,2.2,2.11,2.06,4.24,2.84,6.54,3.6-6.17,6.69-12.28,11.86-18,.76,2.45,0,4.13-.65,5.81-4.37,12-9.25,23.9-12.29,36.23-.79,3.22-1.38,6.48-2.18,9.69-.37,1.51.28,2,1.93,1.78a3.24,3.24,0,0,1,.88,0c2.93.46,3.64-.53,3.83-3a106.7,106.7,0,0,1,12.27-41.84,11.11,11.11,0,0,1,3.05-4c-.37,6.68-2.85,12.51-3.52,18.59,2.08-3,3-6.54,6.14-9.93-.18,4.87-1.73,8.85-2.59,13,1.42-.21,1.21-1.15,1.63-1.71,5.5-7.32,2.61-14.73.33-22.14-1-3.19-2-6.38-3-9.58a3.24,3.24,0,0,1-.05-2.8c2.64,2,4,4.54,5.47,7a82.07,82.07,0,0,1,9.47,25.17c.77,3.74,4.2,6.48,5.12,10.18.46-5.2-1.58-10.23-1.18-15.47,3.25,3.27,4.21,7.36,5.68,11.26.21.9.43,1.8.77,3.27.41-1.51.48-2.39,0-3.24-.21-6.65.34-13.2,3.26-19.48a14.21,14.21,0,0,1,4.31-5.74c-4.55,14.34-2.73,28.34,2.51,42.18.45-16.69.68-33.39,7.44-49.49,3.36,9.58,2.44,19.56,3.74,29.34,0-7.16,3.26-14.3-.4-21.31,1.32-.43,1.5.18,1.85.52s.58.66.89,1c.58-.71.58-1.63,1.85-2.35,2,4.13,1.75,8.68,4.48,12.55s4.24,7.94,6,12.26c1.36-1.19.89-2.39.52-3.61-2.68-8.71-6.23-17.2-9.31-25.8-.6-1.7-1.4-3.39-.79-6a124.11,124.11,0,0,1,17.51,30.06c1.09-8,2.45-15.86,8.85-22.83.9,4.18-.36,7.64-1.12,11.17-1.87,8.68-1,17.28,1.46,26.59,1-3.31,2.68-5.58,2.19-8.62-1.51-9.41-1.51-18.81,2.23-27.94,1.22-3,2.64-5.93,5.63-8.16-2.23,8.87-3.75,17.7-2.48,27.22,3-4.76,5.35-9.45,9.47-13.83.62,2-.15,3.44-.65,4.83-1.89,5.3-3.74,10.6-5.86,15.83a10.43,10.43,0,0,0-.24,7.26,56.63,56.63,0,0,0,3.09,8.24c.32-3.85.59-7.7,1-11.54.36-3.62.79-7.24,1.32-10.85.36-2.43.6-5,4-6.22,1.26,2.48,1.5,5.24,1.79,8,1,9.49.3,19,.86,28.5.07,1.14-1.45,3.46,1.69,3.35,2.84-.1,1.25-2.17,1.31-3.28a104,104,0,0,0-2-28.14,12.07,12.07,0,0,1,0-2.48c1.41-.37,1.15,1.19,1.91,1.25,3.59-4.35,2-9.83,4.63-14.54,1.38.91,1.41,2.09,1.62,3.2a65.27,65.27,0,0,1,1.2,15.32c-.29,6.7,2.13,13,3.1,19.56.15,1,.38,2.06.68,3.7.93-5.08,2.27-9.49,3-13.95.7-4-.82-8-1.32-12.05-.42-3.48-1.42-6.91-1-10.51,3.43,3.31,4.43,7.51,6.21,11.68,1.77-3.21,2.87-6.48,5.54-9.66a10.76,10.76,0,0,1-.7,6.23c-2.75,7.47-2.47,15-.8,22.54a44.66,44.66,0,0,1,1,9.15c0,1.57.44,2.1,2.11,2.08,3.43-.05,6.86,0,10.29.07v7.45c-7,0-14.09,0-21.13,0-1,0-2.16-.38-3,.47H844.8a.86.86,0,0,0-.9-.48l-22,0a1.34,1.34,0,0,0-1.26.46H814.2c-.5-.77-1.38-.48-2.1-.48q-36.3,0-72.58,0c-.82,0-1.79-.31-2.42.48h-6.47c-.69-.92-1.78-.46-2.66-.47q-5.87-.09-11.73,0c-1.09,0-2.34-.45-3.27.47h-7.65c-.64-.76-1.6-.48-2.43-.48q-30.36,0-60.74,0c-.93,0-2-.26-2.74.48h-6.47c-.29-.62-1-.49-1.5-.49H610.89a2.21,2.21,0,0,0-1.21.15l-5.19,1a21.53,21.53,0,0,0-13.09-.38l-8.35-.67c-.57-.29-1.3,0-1.91,0q-6.32-.07-12.63,0c-.89,0-2-.45-2.67.47h-6.47c-.93-.93-2.19-.47-3.28-.47q-65.73,0-131.48,0c0-.83-.11-1.65-.11-2.47,0-4.81,0-4.86,5.54-5,1.59-.05,1.93-.44,1.83-1.75a55.8,55.8,0,0,0-8-25.57c-4.49-7.3-11.33-12.72-19.27-17.29l.39-.91c15.79,3.34,23.77,13.38,30.06,24.94-3.31-13.38-11.56-24-25.88-31.55A16.14,16.14,0,0,1,419.24,584c6,3.82,12.43,6.93,18.81,10.22,9.06,4.65,13.84,12.37,17.1,20.72.27.7.52,1.4.8,2.1,0,0,.18,0,.48.11a137.41,137.41,0,0,0-2.7-22.34c-1.68-8.49-4.44-16.74-7-25-.65-2.15-1-4.5-2.19-6.45A14,14,0,0,1,448.2,567a92.94,92.94,0,0,1,6.14,9.27c1.82,3.31,3.38,6.75,4.9,10.19-.77-9.68-5.13-18.74-7.25-28.53,2.52.79,3.3,2.43,4.28,3.83a85.36,85.36,0,0,1,11.24,23.83,117.88,117.88,0,0,1,4.82,26.34c1.12-1.22.88-2.35.78-3.5A127.39,127.39,0,0,0,468,583.35c-.6-2.07-1.23-4.13-1.87-6.19-.31-1-.73-2.06-1-3.1a17.43,17.43,0,0,0-.6-2.57A10.57,10.57,0,0,0,463,568.9c1.74.74,3,2.46,4.1,3.86a48.58,48.58,0,0,1,3.38,5,74.31,74.31,0,0,1,5.07,10.38c.93,2.27,1.8,4.56,2.67,6.85,1.8-5.89,4.43-11.58,4.59-17.67.12-5-3.35-8.51-9.12-9.32a21.11,21.11,0,0,1-11.29-5.34,117.26,117.26,0,0,1-21.36-24.79c-1.14-1.75-2.17-2.45-4.73-1.94a58.64,58.64,0,0,1-14.57,1.23c-.66,0-1.5.14-1.83-.5s.39-1.07.86-1.44c4.32-3.44,9.53-5.75,14.69-8.11a3.62,3.62,0,0,1,2.81.23A36.18,36.18,0,0,1,446,530.9a151.75,151.75,0,0,1,27.72,21,37.85,37.85,0,0,1,5.12,6c1.09,1.6-.06,3.71,1.73,5.9a14.79,14.79,0,0,0-.78-5.94A208.73,208.73,0,0,0,473,533.63a7.21,7.21,0,0,0-5-4.7,13.35,13.35,0,0,1-4.59-2.56c-5-4.19-10-8.4-13.64-13.54-2.37-3.32-2.9-6.34-4-10,4.45-.55,9.31,3.71,12.46,6.21a26.13,26.13,0,0,1,7.13,7.93c.78-.43.45-.89.16-1.63a210.06,210.06,0,0,1-7.83-23.06c-.18-.67-.27-1.35-1.11-1.63-3.53-1.17-5.28-4.35-6-7.57l-2-9.08c1.18,2.71,4.07,4.09,6.64,6.61a105.23,105.23,0,0,1-.57-18.09c.16-1.9.48-3.78.61-5.68a6,6,0,0,0-3.11-5.76c-5.07-3.16-1.93-7.84-2.93-12.19a18.47,18.47,0,0,0-1.76-3.74c3,1.71,4.3,4.63,6.1,7.32s3,5.89,1.54,9.14c-.11.25.18.62.42,1.37,1.62-2.77,1.46-5.63,3.09-8-.58,5.56-2,11.05-1.44,16.76,0-3,1.67-5.39,4.12-7.19,2.61-1.92,5.52-3.44,8.2-5.26.45-.31.87-.66,1.31-1-.2,1.4-1.14,2.17-1.84,3.36-.79,1.36-1.26,2.86-2,4.23-1.58,2.84-3.58,5.23-7.38,6.33a4,4,0,0,0-2.87,4.45c.35,6.43.47,12.89,2.66,19.15.62,1.75.48,3.7,1.17,5.43a19.7,19.7,0,0,1,1.21,4.76c.17,1.3,1,2.55,1.27,3.83a4.11,4.11,0,0,0,1.07,1.9c-.11-19.74,7-37.6,19.1-54.2l.4.28c-2,3.48-4.15,6.83-6.15,10.29-1,1.72-2,3.46-2.81,5.25-.39.83-.68,1.73-1.09,2.54a7.61,7.61,0,0,0-1.05,2.14c-.14.72,0,1.27.78.68.61-.47,1.27-.95,1.91-1.41s1.45-1.09,2.21-1.61A20,20,0,0,1,483,463.1a4.24,4.24,0,0,1,2-.27c.47.16.37.23,0,.55s-1,.72-1.39,1.15c-1.66,1.65-2.58,3.81-4.08,5.57a10.69,10.69,0,0,1-6.71,4.07c-2.26.35-3,2-3.48,3.58-.64,2.14-1,4.36-1.48,6.53-.11.46-.64.93.24,1.15.6.16,1.35,0,1.52-.5.93-2.7,3.25-4.19,6-5,1.37-.39,2.77-.64,4.15-.94,1.59-.34,3.07-.89,4.66-1.22.39-.08,3.25-.5,2.82.1-.17.23-1.27.41-1.57.54a10.39,10.39,0,0,0-1.4.74,40.65,40.65,0,0,0-4.5,3.77c-2.42,2.05-5,3.5-8.77,3.28a3.37,3.37,0,0,0-3.78,3.11c-.18,9.33-2,18.72,3,27.76,3,5.58,5.13,11.54,7.64,17.33a3.91,3.91,0,0,0,1-2.9c.65-7.25,1.34-14.49,4.6-21.34a15.48,15.48,0,0,1,3.1-4.73c1.19-.89,2-1.49,2.49-1.91-.15,1.69-.36,3.37-.51,5-.22,2.31,2.41,1.86,3.48,2.42a10.21,10.21,0,0,1,.16,1.61c.49-.94.31-1.37-.16-1.61-.49-3-1.88-5.19-.27-8.92a.37.37,0,0,0-.59-.4c-1.16.95-.6.66-2.11,1.85a37.6,37.6,0,0,0,.15-5.52c-1.1-18.15-.3-36.17,5.25-53.87a103.88,103.88,0,0,1,14.43-28.6c.68-1,1.11-1.69.21-2.85-1.24-1.6-.81-3.32.53-4.86,6.62-7.59,13.22-15.19,19.89-22.75a5.74,5.74,0,0,1,7.26-1.17c2.39,1.44,2.85,4.08.87,6.36-6.52,7.55-13.11,15.06-19.68,22.57a5.35,5.35,0,0,1-5.84,1.92c-1.88-.55-1.95.71-2.45,1.44a100,100,0,0,0-13.24,29,135.93,135.93,0,0,0-4.69,39.32,3.13,3.13,0,0,0,1.09-1.9,99.49,99.49,0,0,1,20.5-37c.7-.8,1.38-1.38.25-2.5a3,3,0,0,1,.2-4.33c6.48-5.87,13-11.74,19.54-17.54a4.73,4.73,0,0,1,6.29-.15c1.47,1.22,1.46,3.57-.26,5.13-6.33,5.77-12.73,11.48-19.1,17.21a3.43,3.43,0,0,1-2.5,1.17c-2.7-.41-3.55,1.24-4.66,2.66a102.13,102.13,0,0,0-20.51,46.49c-.71,4.07.52,8.38.92,12.58a246.94,246.94,0,0,1,.46,33c0,.65,0,1.29,0,2.42,1.93-2.16,4.73-3.31,4-6.37-.22-.9.54-2.08,1.13-3a79.73,79.73,0,0,1,19.61-20.87,13.66,13.66,0,0,1,2.18-1.24,5.54,5.54,0,0,1,1.18-.28c.34,2.13-.45,4-1.16,5.88a83.88,83.88,0,0,1-8.59,16.25c-2.76,4.14-6.1,7.47-11.64,9.26a10.61,10.61,0,0,0-7.47,8.81c-1.25,9.36-2.84,18.68-4.24,28a25,25,0,0,0,.11,6.8,60.1,60.1,0,0,0,.9,6.71,1.93,1.93,0,0,0,.8-.7,12.29,12.29,0,0,0,.82-2.44,27.36,27.36,0,0,0,.74,4.67,16,16,0,0,0,.76,2.31,5.92,5.92,0,0,0,.61,1.1c.31.42.48.74.79.27a6.23,6.23,0,0,0,.35-1.63c.14-.6.29-1.18.44-1.77.31-1.13.64-2.26,1-3.39a59.55,59.55,0,0,0,1.77-6.21c0-.2.1-1.24.32-1.3.38-.1.68.88.77,1.09a21.54,21.54,0,0,1,1.12,3,24.57,24.57,0,0,1,.9,5.9,66.56,66.56,0,0,1-1.06,11.6,48.85,48.85,0,0,0-.63,8.45c3.1-6.53,4.07-13.39,4.54-20.9a9.44,9.44,0,0,1,2.43,6.06c.94,8.75-1.67,17.05-4.46,25.34-1,2.93-2.21,5.8-2,9,.09,1.25.37,1.7,1.95,1.73,4.45.09,4.35.15,4.51-3.55.54-12.89.43-25.8,1.79-38.66.29-2.75.28-5.61,2.42-8.89,3,7.92,2.76,15.54,3.79,23a15.76,15.76,0,0,1,.32-3c.09-1.06.17-2.12.23-3.18.13-2.12.22-4.25.33-6.37a91.56,91.56,0,0,1,1.37-12.8c.15-.77.32-1.54.5-2.3.13-.52.11-1.76.69-2,.42.59.73,1.29,1.12,1.91a14.35,14.35,0,0,1,1.51,4.1c.41,1.58.82,3.16,1.22,4.74a105.39,105.39,0,0,1,2.51,12.54,57.65,57.65,0,0,1,.45,6c.12,6.68.68,13.35.88,20,5.15-13.78,7.15-27.71,2.57-42,6.82,7.67,8,16.42,7.54,25.62,2.23-3.88,2.93-8.28,6.33-11.75.2,5.25-1.12,10.37-1.86,15.61,1.21.17,1.06-.76,1.35-1.21,3.51-5.5,5.09-11.5,6.75-17.52a67.16,67.16,0,0,1,9.28-20,15.59,15.59,0,0,1,3.43-3.87c.62,2-.24,3.53-.71,5.06-1.9,6.15-3.89,12.28-5.25,18.54a7.14,7.14,0,0,0,.65,5.25c1.31,2.45,2.27,5,3.63,8.14.4-4.79-2.2-8.76-1.86-13.49,3,3.16,3.86,6.67,5.95,9.66-.59-6.06-3.12-11.85-3.51-18.58a14.36,14.36,0,0,1,3.62,5,107,107,0,0,1,11.79,41.69c.12,1.72.7,2.38,2.74,2.19,1.33-.13,2.69,0,4.07,0A137.88,137.88,0,0,0,576,609.71c-2.64-7.86-5.66-15.59-8.38-23.43-.8-2.32-1.51-4.65-2.31-7a9.88,9.88,0,0,1-.82-3.3,3.74,3.74,0,0,1,1.34,1c.77.76,1.6,1.56,2.32,2.36s1.56,1.94,2.38,2.86c1.14,1.3,2.17,2.59,3.19,4,6.43,8.86,10.86,18.46,14.5,28.33a8.31,8.31,0,0,0,1.08,2.25c-2.68-14.83-9.63-28.71-13.36-43.36,8.1,8.6,12.69,18.66,17.61,28.73,1.27-7.81,2.65-15.5,8.84-21.82a17.92,17.92,0,0,1-.24,7.47c-2.83,9.65-2,19.3.67,28.94,1-2.56,2.66-4.81,2.17-7.86-1.68-10.26-1.47-20.46,3.31-30.24a12.59,12.59,0,0,1,4.57-5.72c-2.12,8.72-3.82,17.41-2.51,26.84.41,3,3.89,4.92,5.94,7.16,4.35-4.59,5.85-12.74,7.14-18.62,2.21-10.11,3.16-20.75.22-30.67,1.27,2.8,3.44,5.4,4.85,8.19a33.16,33.16,0,0,1,3,11.64c.8,7.52-1.65,14-3.71,20.91-1,3.36-2.7,7.61-2.17,11.09,4-1.59,7.21-8.81,9-12.46,2-4.3,3-9,5-13.26,4.07,1,.18,13.07,0,16.06-.41,9.19-5.61,18.24-5,27.42,2,.89,4.41.76,6.66.65-1.14.06,5-29.21,5.14-31.45a125.74,125.74,0,0,0-.75-17.28c-.37-4.24-.85-11.52,4.41-13.54.51,7.52-.58,14.7.74,22.32,1.26,7.2,2.23,16.79.61,24.25a112.61,112.61,0,0,0-2,11.57c5.45-5.62,9.61-14.54,9.47-22.38C662.07,606.34,660.84,613.68,667.52,616.58Zm-51.08,2.76a32.18,32.18,0,0,1-.24,3.76c-1.62-2.59-2-5.48-3-8.23m15,17.74c.06,1.06-.58,1.17-1.61,1.2-1.54.05-1.43-.79-1.44-1.63M465.69,517.33a.53.53,0,0,1,.42,0ZM450.1,633.84c-4.81,0-4.79.09-4.89-4a58.46,58.46,0,0,0-11.34-34.08c-.33-.29-1.11-.53-.57-1,.34-.3.79.22,1.08.52,9.87,7.24,14.63,16.71,16.66,27.33.57,3,.73,6.07,1.14,9.1C452.37,633.15,452.12,633.85,450.1,633.84Zm23.23-2c-.11.7.1,1.53-.82,2a.8.8,0,0,1-.7-.18,2.07,2.07,0,0,1,.17-2.32,3.25,3.25,0,0,1,1.37-.59A4.61,4.61,0,0,1,473.33,631.81Zm8.92-8.16c-1.63-12.4-1.07-19.43,2-25.3C483.82,606.8,485.15,615.36,482.25,623.65Zm1.07-71.34c-.78-2.89-1.63-5.77-2.58-8.63a4.42,4.42,0,0,1,.86-4.72c3.75-3.42,4.37-7.84,6-11.94,1.06-2.7,1.71-5.53,2.65-8.65a212.48,212.48,0,0,1-4.33,44.26C485,559.19,484.24,555.74,483.32,552.31Zm7.93,81.52-.79-.2c.86-2.35,1.73-4.69,2.79-7.58A10.09,10.09,0,0,1,491.25,633.83Zm52.43-.1c-.93.08-.81-.56-.8-1,0-2.17-.17-4.37,1-7.07.19,2.74.34,4.84.48,6.94C544.39,633.09,544.5,633.65,543.68,633.73Zm13.62,0c-1.62-.21-4.34,1.47-4.62-1.69a93.79,93.79,0,0,1,1-26.22c.94,4.09,2,8.16,2.77,12.26.86,4.46,1.53,9,2.19,13.44C558.73,632.42,559.61,634,557.3,633.73Zm53.68,0c-1.13.12-2.66.72-3.44-.93-1.4-3-.08-5.73,1.06-8.55.89,2.59,1.8,5.18,2.64,7.78C611.43,632.59,612.47,633.54,611,633.71Zm50.21-17.49c1.73,5.12,2.29,10.38,2.79,15.66.15,1.57-.44,2-2.24,2-4.64,0-4.58.06-4.71-3.86m28.77.57a14.33,14.33,0,0,1-.21,1.73c-.13.69,0,1.6-1.35,1.51-1.54-.1-.89-1-.83-1.67.48-5.6.83-11.21.8-16.83a146.63,146.63,0,0,0-3-27.49c1.81,3.05,2.17,6.4,2.83,9.65A123.38,123.38,0,0,1,685.8,630.54Zm58.7,1.37c-.25,3.28-3.12,1.68-4.83,1.81-2.39.18-1.13-1.41-1-2.26a179.83,179.83,0,0,1,5-25.8,7.78,7.78,0,0,1,.43-.94A128.43,128.43,0,0,1,744.5,631.91Zm9,1.8c-.67,0-.71-.48-.7-.86.07-1.79.18-3.57.28-5.35v-5.33l.27,0q.33,2.91.65,5.82c.07,1.62.14,3.24.17,4.87C754.21,633.21,754.22,633.71,753.53,633.71Zm41.36.09a8.79,8.79,0,0,0-2,0c-1.92.25-2.2-.54-2.22-2-.12-7.42-.36-14.84-.58-22.26,0-.94-.21-1.87-.32-2.81a75.39,75.39,0,0,1,5.58,16.81c.65,2.74,1,5.53,1.68,8.28C797.35,633.44,796.74,634,794.89,633.8Zm23.74-4.44c.15-.89.39-1.77.58-2.66a5.85,5.85,0,0,1,1.07-2.55c1.11,3.11,2.21,6.22,3.37,9.5C819.63,633.88,818.14,632.5,818.63,629.36Z" transform="translate(-404.59 -383.11)"/></svg>