<svg id="Layer_1" data-name="Layer 1" xmlns="http://www.w3.org/2000/svg" xmlns:xlink="http://www.w3.org/1999/xlink" viewBox="0 0 436.53 371.72"><defs><style>.cls-1{fill:#383838;}.cls-12,.cls-2{fill:none;stroke-miterlimit:10;stroke-width:2px;}.cls-2{stroke:#000;}.cls-3{fill:url(#linear-gradient);}.cls-4{fill:#2986c3;}.cls-5{fill:#23211c;}.cls-6{fill:#fff;}.cls-7{fill:#020202;}.cls-8{fill:#278cc5;}.cls-9{opacity:0.41;}.cls-10{fill:url(#linear-gradient-2);}.cls-11{fill:#5fa3c8;}.cls-12{stroke:#020202;}.cls-13{fill:#153240;}.cls-14{fill:#fdfdfd;}</style><linearGradient id="linear-gradient" x1="-2037.83" y1="378.99" x2="-1817.41" y2="274.73" gradientTransform="matrix(-1, 0, 0, 1, -1665.18, 0)" gradientUnits="userSpaceOnUse"><stop offset="0.19" stop-color="#2e89c2"/><stop offset="0.3" stop-color="#2e87be"/><stop offset="0.4" stop-color="#2d80b3"/><stop offset="0.49" stop-color="#2c74a1"/><stop offset="0.58" stop-color="#2a6487"/><stop offset="0.68" stop-color="#284f66"/><stop offset="0.76" stop-color="#25363d"/><stop offset="0.83" stop-color="#23211c"/></linearGradient><linearGradient id="linear-gradient-2" x1="-2037.18" y1="390.01" x2="-1916.66" y2="198.14" gradientTransform="matrix(-1, 0, 0, 1, -1665.18, 0)" gradientUnits="userSpaceOnUse"><stop offset="0" stop-color="#1a2027"/><stop offset="0.05" stop-color="#1b232b"/><stop offset="0.1" stop-color="#1f2c36"/><stop offset="0.14" stop-color="#253b48"/><stop offset="0.18" stop-color="#2e5062"/><stop offset="0.23" stop-color="#3a6c83"/><stop offset="0.27" stop-color="#478dac"/><stop offset="0.29" stop-color="#4f9fc2"/></linearGradient></defs><title>jay</title><path class="cls-1" d="M298.26,436c-3.6,5.5-7.71,11.19-13.83,13.6-4.92,1.95-10.4,1.47-15.66,2s-11,2.53-13.23,7.33c13.41-2.09,27-4.19,40.49-3.1s27.23,5.66,36.85,15.24c3.25-3.42,1.09-9.42-2.74-12.18s-8.7-3.49-13.08-5.24-8.74-5.39-8.61-10.1c.1-3.82,3.08-6.85,5.71-9.63a102,102,0,0,0,25.15-46.4c-4.11.54-23.09.38-25.39,3.36s1.82,4.1,2.77,7.45C319.65,408.83,303.7,427.16,298.26,436Z" transform="translate(-69.98 -102.9)"/><path class="cls-2" d="M297.78,438.13c-3.6,5.51-7.72,11.2-13.83,13.61-4.92,1.94-10.4,1.47-15.66,2s-11,2.52-13.24,7.33c13.41-2.09,27-4.19,40.5-3.11s27.23,5.67,36.84,15.24c3.25-3.42,1.09-9.41-2.73-12.17s-8.7-3.49-13.08-5.25-8.75-5.38-8.62-10.1c.11-3.82,3.08-6.85,5.72-9.62a102,102,0,0,0,25.14-46.4c-4.1.54-23.08.38-25.39,3.36s1.83,4.1,2.77,7.45C319.17,411,303.22,429.29,297.78,438.13Z" transform="translate(-69.98 -102.9)"/><path class="cls-1" d="M195.7,423.47c-4.69-.24-9.56-.7-13.94,1s-8,6.4-6.76,10.92a24.36,24.36,0,0,1,26-5.35A28.49,28.49,0,0,0,181,444.68c13.77-4.76,28.46-8.59,42.79-6s28.08,13.32,30,27.77c4.5-6,2.89-14.87-1.7-20.77s-11.44-9.5-18.08-12.91A141.33,141.33,0,0,0,297,396.85a41.57,41.57,0,0,0-6.53-4c-9.87,10.83-28.42,18.28-42,23A139.39,139.39,0,0,1,195.7,423.47Z" transform="translate(-69.98 -102.9)"/><path class="cls-2" d="M195.28,427.19c-4.69-.24-9.56-.7-13.94,1s-8,6.4-6.76,10.92a24.36,24.36,0,0,1,26-5.35,28.47,28.47,0,0,0-20,14.63c13.76-4.76,28.46-8.59,42.79-6s28.08,13.32,29.95,27.77c4.5-6,2.88-14.87-1.7-20.77s-11.44-9.5-18.08-12.91a141.33,141.33,0,0,0,63.06-35.95,40.91,40.91,0,0,0-6.54-3.95c-9.87,10.83-28.41,18.28-42,23A139.39,139.39,0,0,1,195.28,427.19Z" transform="translate(-69.98 -102.9)"/><path class="cls-3" d="M238.48,397.52c44.75,19.39,98.44,16.78,141.09-6.87,5.6-3.11,11.66-7.6,11.83-14,.22-8.64-9.86-13.27-18.17-15.65l-48.58-13.86c-10.36-3-20.92-6-29.88-12S278.52,319.66,278,308.9s7.38-22.1,18.13-22.86c4.87-.34,9.76,1.37,14.6.71s9.76-5.55,7.64-10c-.82-1.71-2.49-2.83-4.07-3.87-11.4-7.46-22.87-15-35.42-20.25-35.17-14.81-77.42-9.07-108.69,12.27-6.45,4.41-17.88,11.69-21.25,19.06-3.58,7.81.8,15.91,3.85,23.8a162.75,162.75,0,0,0,31.14,50.29A159.91,159.91,0,0,0,238.48,397.52Z" transform="translate(-69.98 -102.9)"/><path class="cls-2" d="M147.66,293.88c4,13,2,8,5.57,17a165.26,165.26,0,0,0,31.14,50.29A159.71,159.71,0,0,0,239,400.64C283.69,420,337.38,417.42,380,393.77c5.61-3.11,11.66-7.6,11.83-14,.23-8.64-9.86-13.27-18.17-15.64l-48.58-13.87c-10.36-3-20.91-6-29.88-12S279,322.78,278.43,312s7.39-22.1,18.14-22.86c4.87-.34,9.75,1.37,14.59.71s9.76-5.55,7.64-9.95c-.82-1.71-2.48-2.84-4.07-3.88-11.39-7.46-25.52-7.87-38.07-13.16" transform="translate(-69.98 -102.9)"/><path class="cls-4" d="M474.41,454.09A20.76,20.76,0,0,0,468.5,433L493,445.74l13.54-9.7C469.77,396.53,423,368,377,339.94c-18.18-11.05-37.24-22.28-58.23-26.94-13.65-3-57.48-8.17-42.06,6.88,30.86,30.13,96.63,57.84,131,83.83Q441,428.92,474.41,454.09Z" transform="translate(-69.98 -102.9)"/><path class="cls-5" d="M240.66,244.88c-19.92-16.25-41.69-53.33-41.27-79l-6.73.51-9.1-25.65-7.37,1.66-5-22-6.2,6.12-8-16.76-2.44,7.78-7.28-11.67c-3,24.9-6,50.13-15.32,73.43-11,7.44-17.43,19.75-18.32,33s4.86,27.81,14.75,36.68c8.12,7.29,15.07,36.05,19.25,45.89,6,14,4.25-12.31,14.36-21.14a109.25,109.25,0,0,1,53.29-25.45c10.61-1.8,14.64-2.55,25.32-3.9" transform="translate(-69.98 -102.9)"/><path d="M70,230.47c23,12.88,52.36,3.07,77.52,10.83-11.78-3.64-14.51-25.15-28.6-27.46C105.1,211.58,82.16,224.76,70,230.47Z" transform="translate(-69.98 -102.9)"/><ellipse class="cls-6" cx="76.27" cy="105.88" rx="9.22" ry="9.74"/><ellipse class="cls-7" cx="75.93" cy="105.52" rx="7.27" ry="7.68"/><ellipse class="cls-2" cx="75.25" cy="105.91" rx="9.41" ry="9.94"/><ellipse class="cls-6" cx="73.55" cy="103.75" rx="2.01" ry="2.12"/><path class="cls-5" d="M470.73,432.17a551.05,551.05,0,0,0-101-74.78" transform="translate(-69.98 -102.9)"/><path class="cls-8" d="M179.71,320c-5.15-3.2-10.61-8.45-5.15-15.58a8.87,8.87,0,0,1,5-3.2l99.68-23.54c13.88-3.27,28.23-6.57,42.26-4,12.93,2.32,24.42,9.37,36.21,15.15,18.12,8.89,37.5,15,55.78,23.53,17.46,8.17,34.32,19,45.45,34.67a1,1,0,0,1-1.08,1.53l-41.68-11.81,32,20.92c-6.32-4.14-26.25-1.83-34.26-2.49q-18.33-1.5-36.64-3.36-35.38-3.6-70.63-8.54C283.13,340,259.84,335.62,236.4,332,216.42,329,197.91,331.36,179.71,320Z" transform="translate(-69.98 -102.9)"/><g class="cls-9"><path class="cls-5" d="M333.07,276.42a5.4,5.4,0,0,1,2,.43,3.48,3.48,0,0,1,1.73,1.5,2.35,2.35,0,0,1,.25,1.4,2.71,2.71,0,0,1-.57,1.26,4.23,4.23,0,0,1-1.88,1.27,18.79,18.79,0,0,1-4,.59l-3.89.46.27-1.12a4.66,4.66,0,0,1,3.35,2.63,2.93,2.93,0,0,1-.35,2.64,4.88,4.88,0,0,1-1.71,1.5,10.27,10.27,0,0,1-3.8,1.14,11.87,11.87,0,0,1-3.81-.14v-.2c1.2-.41,2.36-.75,3.47-1.17a17.43,17.43,0,0,0,3.07-1.46,4.67,4.67,0,0,0,1.06-.88,1,1,0,0,0,.26-.85,4.52,4.52,0,0,0-2-2.14l-2.73-1.78,3,.66a8.53,8.53,0,0,0,7.09-1.36,6.9,6.9,0,0,0,1.22-.92.91.91,0,0,0,.27-.9,3.17,3.17,0,0,0-.89-1.22c-.43-.39-.94-.76-1.47-1.15Z" transform="translate(-69.98 -102.9)"/></g><g class="cls-9"><path class="cls-5" d="M352.25,287a5.66,5.66,0,0,1,1.91.17,3.66,3.66,0,0,1,1,.37,2.29,2.29,0,0,1,.92.85,1.65,1.65,0,0,1,0,1.64,2.65,2.65,0,0,1-.91.94,5,5,0,0,1-1.91.73c-1.29.2-2.54.09-3.76.17s-2.42.24-3.67.4l.21-1.18a7.26,7.26,0,0,1,1.81.52,4.17,4.17,0,0,1,.9.56,2.44,2.44,0,0,1,.78,1.07,2,2,0,0,1-.12,1.61,3.2,3.2,0,0,1-.84,1,5.87,5.87,0,0,1-1.79.92,13.09,13.09,0,0,1-3.57.6,13.52,13.52,0,0,1-3.53-.34v-.2c1.12-.38,2.22-.67,3.29-1a30.85,30.85,0,0,0,3.08-1,7.9,7.9,0,0,0,1.27-.63,1.25,1.25,0,0,0,.32-.26c0-.06.05,0,.07,0s-.29-.5-.68-.76a9.67,9.67,0,0,0-1.35-.82l-4-2.06,4.18.88a10.94,10.94,0,0,0,3.56.19,12,12,0,0,0,3.36-1.12c.51-.22,1-.46,1.41-.67a1.19,1.19,0,0,0,.39-.29c0-.06.07,0,.06-.07a1.18,1.18,0,0,0-.31-.46c-.18-.16-.39-.33-.62-.5-.46-.32-1-.62-1.52-.95Z" transform="translate(-69.98 -102.9)"/></g><g class="cls-9"><path class="cls-5" d="M369.84,297a6.6,6.6,0,0,1,2.18.36,3.57,3.57,0,0,1,2,1.51,2,2,0,0,1,.16,1.65,3,3,0,0,1-.86,1.22,5.38,5.38,0,0,1-2.14,1,29.74,29.74,0,0,1-4.33.45l-4.25.43.24-1.15a7.82,7.82,0,0,1,2.05.75,3.79,3.79,0,0,1,1.74,1.88,2.49,2.49,0,0,1,0,1.62,3.59,3.59,0,0,1-.77,1.23,6.14,6.14,0,0,1-2,1.28,13.59,13.59,0,0,1-4.13.95,15.28,15.28,0,0,1-4.11-.21v-.2c1.31-.4,2.59-.72,3.83-1.12a23.73,23.73,0,0,0,3.53-1.35,7.09,7.09,0,0,0,1.39-.85,1.82,1.82,0,0,0,.34-.41.59.59,0,0,0,.05-.35,2.25,2.25,0,0,0-.84-1.08,9.14,9.14,0,0,0-1.54-1L359,301.74l3.63.7a12.39,12.39,0,0,0,4.12.14,12.87,12.87,0,0,0,3.85-1.36,11.71,11.71,0,0,0,1.56-.89,1.46,1.46,0,0,0,.39-.43.43.43,0,0,0,0-.38,2,2,0,0,0-.39-.62,8.75,8.75,0,0,0-.7-.61c-.52-.39-1.12-.75-1.73-1.12Z" transform="translate(-69.98 -102.9)"/></g><g class="cls-9"><path class="cls-5" d="M390.19,305a13.54,13.54,0,0,1,2.84.11,8.63,8.63,0,0,1,1.45.33,3,3,0,0,1,1.52,1,1.36,1.36,0,0,1,.26.74,1.39,1.39,0,0,1-.22.79,2.21,2.21,0,0,1-.4.45,3.89,3.89,0,0,1-.39.28,7.78,7.78,0,0,1-1.45.63,12.32,12.32,0,0,1-2.84.52c-1.9.14-3.78,0-5.63.08s-3.71.23-5.58.39l.13-1.23a14.75,14.75,0,0,1,2.67.45,7.69,7.69,0,0,1,1.36.52,4,4,0,0,1,.71.47,1.84,1.84,0,0,1,.66,1,1.49,1.49,0,0,1,0,.81,1.9,1.9,0,0,1-.32.59,2.26,2.26,0,0,1-.38.38,2,2,0,0,1-.36.26,7.1,7.1,0,0,1-1.36.67,16.66,16.66,0,0,1-2.65.68,32.33,32.33,0,0,1-5.27.45,32.91,32.91,0,0,1-5.24-.38v-.2c3.42-.72,6.82-1.2,10.09-1.94.82-.19,1.63-.36,2.37-.61a5.5,5.5,0,0,0,1-.4.63.63,0,0,0,.17-.1l.1-.07c.05-.05,0,.1,0,.22s0,.05,0,0a2.25,2.25,0,0,0-.35-.27,6.92,6.92,0,0,0-1-.5c-.74-.31-1.54-.59-2.35-.84l.14-1.23a26.77,26.77,0,0,0,5.51.23,29.74,29.74,0,0,0,5.41-1.05c.88-.22,1.76-.42,2.58-.64a6.61,6.61,0,0,0,1.12-.4l.18-.11s.08-.06.08-.05,0,0,0,0,0,.07,0,.1,0,.06,0,.08l0,0a2.46,2.46,0,0,0-.75-.57c-.37-.19-.77-.37-1.19-.54l-2.59-1Z" transform="translate(-69.98 -102.9)"/></g><g class="cls-9"><path class="cls-5" d="M408.43,312a7.22,7.22,0,0,1,2.44.56,4.22,4.22,0,0,1,2.12,1.78,2.49,2.49,0,0,1,.24,1.69,3,3,0,0,1-.79,1.43,5.51,5.51,0,0,1-2.33,1.39,26.29,26.29,0,0,1-4.89.73c-1.6.17-3.2.35-4.84.48l.26-1.14a8.41,8.41,0,0,1,2.28,1,4.39,4.39,0,0,1,1.82,2.14,3.21,3.21,0,0,1-.58,3.09,6.5,6.5,0,0,1-2.13,1.65,14.46,14.46,0,0,1-4.66,1.3,17.19,17.19,0,0,1-4.7-.07v-.2c1.5-.4,3-.79,4.38-1.25a22.72,22.72,0,0,0,4-1.66,5.41,5.41,0,0,0,1.49-1.11,1.19,1.19,0,0,0,.39-1.17,3,3,0,0,0-1-1.39,10.25,10.25,0,0,0-1.73-1.22l-3-1.72,3.29.59a12.74,12.74,0,0,0,9-1.53,8,8,0,0,0,1.68-1.13,1.38,1.38,0,0,0,.42-.6,1,1,0,0,0,0-.63,4,4,0,0,0-1.26-1.5,20,20,0,0,0-1.95-1.3Z" transform="translate(-69.98 -102.9)"/></g><g class="cls-9"><path class="cls-5" d="M410,360.42a4.07,4.07,0,0,1,.53,3.4,4.79,4.79,0,0,1-.79,1.66,3.78,3.78,0,0,1-1.4,1.23,5.59,5.59,0,0,1-3.51.34,7.93,7.93,0,0,1-3.19-1.15l.86-.47a5.55,5.55,0,0,1-.05,3.62,6.13,6.13,0,0,1-2.22,3,5.77,5.77,0,0,1-3.58,1,5,5,0,0,1-3.25-1.31l.09-.18a7.68,7.68,0,0,0,3-.09,6.38,6.38,0,0,0,2.45-1.15,6.21,6.21,0,0,0,1.74-2,6.89,6.89,0,0,0,.75-2.74l.07-1.56.8,1.09a3.19,3.19,0,0,0,2.54,1.27,4,4,0,0,0,2.55-1.09,9.66,9.66,0,0,0,.91-.9,6.13,6.13,0,0,0,.74-1.11,6.77,6.77,0,0,0,.73-2.81Z" transform="translate(-69.98 -102.9)"/></g><g class="cls-9"><path class="cls-5" d="M420.54,368.34a4,4,0,0,1,.53,3.4,4.77,4.77,0,0,1-.78,1.66,3.76,3.76,0,0,1-1.41,1.24,5.65,5.65,0,0,1-3.51.33,8,8,0,0,1-3.19-1.15l.87-.47A5.49,5.49,0,0,1,413,377a6.07,6.07,0,0,1-2.21,3,5.9,5.9,0,0,1-3.58,1,5,5,0,0,1-3.26-1.32l.1-.18a7.69,7.69,0,0,0,3-.08,6.62,6.62,0,0,0,2.45-1.16,6,6,0,0,0,1.73-2,6.73,6.73,0,0,0,.76-2.74l.06-1.56.81,1.1a3.19,3.19,0,0,0,2.54,1.26,4,4,0,0,0,2.55-1.09,11,11,0,0,0,.91-.9,6,6,0,0,0,.73-1.1,6.71,6.71,0,0,0,.73-2.82Z" transform="translate(-69.98 -102.9)"/></g><g class="cls-9"><path class="cls-5" d="M434.54,377.34a4,4,0,0,1,.53,3.4,4.77,4.77,0,0,1-.78,1.66,3.76,3.76,0,0,1-1.41,1.24,5.65,5.65,0,0,1-3.51.33,8,8,0,0,1-3.19-1.15l.87-.47A5.49,5.49,0,0,1,427,386a6.07,6.07,0,0,1-2.21,3,5.9,5.9,0,0,1-3.58,1,5,5,0,0,1-3.26-1.32l.1-.18a7.69,7.69,0,0,0,3-.08,6.62,6.62,0,0,0,2.45-1.16,6,6,0,0,0,1.73-2,6.73,6.73,0,0,0,.76-2.74l.06-1.56.81,1.1a3.19,3.19,0,0,0,2.54,1.26,4,4,0,0,0,2.55-1.09,11,11,0,0,0,.91-.9,6,6,0,0,0,.73-1.1,6.71,6.71,0,0,0,.73-2.82Z" transform="translate(-69.98 -102.9)"/></g><g class="cls-9"><path class="cls-5" d="M445.54,387.34a4,4,0,0,1,.53,3.4,4.77,4.77,0,0,1-.78,1.66,3.76,3.76,0,0,1-1.41,1.24,5.65,5.65,0,0,1-3.51.33,8,8,0,0,1-3.19-1.15l.87-.47A5.49,5.49,0,0,1,438,396a6.07,6.07,0,0,1-2.21,3,5.9,5.9,0,0,1-3.58,1,5,5,0,0,1-3.26-1.32l.1-.18a7.69,7.69,0,0,0,3-.08,6.62,6.62,0,0,0,2.45-1.16,6,6,0,0,0,1.73-2,6.73,6.73,0,0,0,.76-2.74l.06-1.56.81,1.1a3.19,3.19,0,0,0,2.54,1.26,4,4,0,0,0,2.55-1.09,11,11,0,0,0,.91-.9,6,6,0,0,0,.73-1.1,6.71,6.71,0,0,0,.73-2.82Z" transform="translate(-69.98 -102.9)"/></g><g class="cls-9"><path class="cls-5" d="M458.54,396.34a4,4,0,0,1,.53,3.4,4.77,4.77,0,0,1-.78,1.66,3.76,3.76,0,0,1-1.41,1.24,5.65,5.65,0,0,1-3.51.33,8,8,0,0,1-3.19-1.15l.87-.47A5.49,5.49,0,0,1,451,405a6.07,6.07,0,0,1-2.21,3,5.9,5.9,0,0,1-3.58,1,5,5,0,0,1-3.26-1.32l.1-.18a7.69,7.69,0,0,0,3-.08,6.62,6.62,0,0,0,2.45-1.16,6,6,0,0,0,1.73-2,6.73,6.73,0,0,0,.76-2.74l.06-1.56.81,1.1a3.19,3.19,0,0,0,2.54,1.26,4,4,0,0,0,2.55-1.09,11,11,0,0,0,.91-.9,6,6,0,0,0,.73-1.1,6.71,6.71,0,0,0,.73-2.82Z" transform="translate(-69.98 -102.9)"/></g><g class="cls-9"><path class="cls-5" d="M470.54,404.34a4,4,0,0,1,.53,3.4,4.77,4.77,0,0,1-.78,1.66,3.76,3.76,0,0,1-1.41,1.24,5.65,5.65,0,0,1-3.51.33,8,8,0,0,1-3.19-1.15l.87-.47A5.49,5.49,0,0,1,463,413a6.07,6.07,0,0,1-2.21,3,5.9,5.9,0,0,1-3.58,1,5,5,0,0,1-3.26-1.32l.1-.18a7.69,7.69,0,0,0,3-.08,6.62,6.62,0,0,0,2.45-1.16,6,6,0,0,0,1.73-2,6.73,6.73,0,0,0,.76-2.74l.06-1.56.81,1.1a3.19,3.19,0,0,0,2.54,1.26,4,4,0,0,0,2.55-1.09,11,11,0,0,0,.91-.9,6,6,0,0,0,.73-1.1,6.71,6.71,0,0,0,.73-2.82Z" transform="translate(-69.98 -102.9)"/></g><g class="cls-9"><path class="cls-5" d="M481.54,414.34a4,4,0,0,1,.53,3.4,4.77,4.77,0,0,1-.78,1.66,3.76,3.76,0,0,1-1.41,1.24,5.65,5.65,0,0,1-3.51.33,8,8,0,0,1-3.19-1.15l.87-.47A5.49,5.49,0,0,1,474,423a6.07,6.07,0,0,1-2.21,3,5.9,5.9,0,0,1-3.58,1,5,5,0,0,1-3.26-1.32l.1-.18a7.69,7.69,0,0,0,3-.08,6.62,6.62,0,0,0,2.45-1.16,6,6,0,0,0,1.73-2,6.73,6.73,0,0,0,.76-2.74l.06-1.56.81,1.1a3.19,3.19,0,0,0,2.54,1.26,4,4,0,0,0,2.55-1.09,11,11,0,0,0,.91-.9,6,6,0,0,0,.73-1.1,6.71,6.71,0,0,0,.73-2.82Z" transform="translate(-69.98 -102.9)"/></g><g class="cls-9"><path class="cls-5" d="M320.9,289.81a5.2,5.2,0,0,1,2,.43,3.41,3.41,0,0,1,1.73,1.49,2.43,2.43,0,0,1,.25,1.4,2.71,2.71,0,0,1-.57,1.26,4,4,0,0,1-1.89,1.27,18.73,18.73,0,0,1-4,.6l-3.89.45.27-1.12a4.69,4.69,0,0,1,3.35,2.63,3,3,0,0,1-.35,2.64,5,5,0,0,1-1.71,1.51,10.52,10.52,0,0,1-3.8,1.14,12.16,12.16,0,0,1-3.81-.15l0-.2c1.2-.41,2.36-.74,3.47-1.17a17.45,17.45,0,0,0,3.07-1.45,4.54,4.54,0,0,0,1.07-.89.93.93,0,0,0,.25-.85c-.14-.69-1-1.51-2-2.14l-2.73-1.77,3,.65a9.37,9.37,0,0,0,3.73.1,9.59,9.59,0,0,0,3.36-1.46,6.9,6.9,0,0,0,1.22-.92.89.89,0,0,0,.26-.9,2.94,2.94,0,0,0-.88-1.21,14.06,14.06,0,0,0-1.48-1.15Z" transform="translate(-69.98 -102.9)"/></g><g class="cls-9"><path class="cls-5" d="M337.9,296.81a5.2,5.2,0,0,1,2,.43,3.41,3.41,0,0,1,1.73,1.49,2.43,2.43,0,0,1,.25,1.4,2.71,2.71,0,0,1-.57,1.26,4,4,0,0,1-1.89,1.27,18.73,18.73,0,0,1-4,.6l-3.89.45.27-1.12a4.69,4.69,0,0,1,3.35,2.63,3,3,0,0,1-.35,2.64,5,5,0,0,1-1.71,1.51,10.52,10.52,0,0,1-3.8,1.14,12.16,12.16,0,0,1-3.81-.15l0-.2c1.2-.41,2.36-.74,3.47-1.17a17.45,17.45,0,0,0,3.07-1.45,4.54,4.54,0,0,0,1.07-.89.93.93,0,0,0,.25-.85c-.14-.69-1-1.51-2-2.14l-2.73-1.77,3,.65a9.37,9.37,0,0,0,3.73.1,9.59,9.59,0,0,0,3.36-1.46,6.9,6.9,0,0,0,1.22-.92.89.89,0,0,0,.26-.9,2.94,2.94,0,0,0-.88-1.21,14.06,14.06,0,0,0-1.48-1.15Z" transform="translate(-69.98 -102.9)"/></g><g class="cls-9"><path class="cls-5" d="M356.9,312.81a5.2,5.2,0,0,1,2,.43,3.41,3.41,0,0,1,1.73,1.49,2.43,2.43,0,0,1,.25,1.4,2.71,2.71,0,0,1-.57,1.26,4,4,0,0,1-1.89,1.27,18.73,18.73,0,0,1-4,.6l-3.89.45.27-1.12a4.69,4.69,0,0,1,3.35,2.63,3,3,0,0,1-.35,2.64,5,5,0,0,1-1.71,1.51,10.52,10.52,0,0,1-3.8,1.14,12.16,12.16,0,0,1-3.81-.15l0-.2c1.2-.41,2.36-.74,3.47-1.17a17.45,17.45,0,0,0,3.07-1.45,4.54,4.54,0,0,0,1.07-.89.93.93,0,0,0,.25-.85c-.14-.69-1-1.51-2-2.14l-2.73-1.77,3,.65a9.37,9.37,0,0,0,3.73.1,9.59,9.59,0,0,0,3.36-1.46,6.9,6.9,0,0,0,1.22-.92.89.89,0,0,0,.26-.9,2.94,2.94,0,0,0-.88-1.21,14.06,14.06,0,0,0-1.48-1.15Z" transform="translate(-69.98 -102.9)"/></g><g class="cls-9"><path class="cls-5" d="M373.9,314.81a5.2,5.2,0,0,1,2,.43,3.41,3.41,0,0,1,1.73,1.49,2.43,2.43,0,0,1,.25,1.4,2.71,2.71,0,0,1-.57,1.26,4,4,0,0,1-1.89,1.27,18.73,18.73,0,0,1-4,.6l-3.89.45.27-1.12a4.69,4.69,0,0,1,3.35,2.63,3,3,0,0,1-.35,2.64,5,5,0,0,1-1.71,1.51,10.52,10.52,0,0,1-3.8,1.14,12.16,12.16,0,0,1-3.81-.15l0-.2c1.2-.41,2.36-.74,3.47-1.17a17.45,17.45,0,0,0,3.07-1.45,4.54,4.54,0,0,0,1.07-.89.93.93,0,0,0,.25-.85c-.14-.69-1-1.51-2-2.14l-2.73-1.77,3,.65a9.37,9.37,0,0,0,3.73.1,9.59,9.59,0,0,0,3.36-1.46,6.9,6.9,0,0,0,1.22-.92.89.89,0,0,0,.26-.9,2.94,2.94,0,0,0-.88-1.21,14.06,14.06,0,0,0-1.48-1.15Z" transform="translate(-69.98 -102.9)"/></g><g class="cls-9"><path class="cls-5" d="M389.9,327.81a5.2,5.2,0,0,1,2,.43,3.41,3.41,0,0,1,1.73,1.49,2.43,2.43,0,0,1,.25,1.4,2.71,2.71,0,0,1-.57,1.26,4,4,0,0,1-1.89,1.27,18.73,18.73,0,0,1-4,.6l-3.89.45.27-1.12a4.69,4.69,0,0,1,3.35,2.63,3,3,0,0,1-.35,2.64,5,5,0,0,1-1.71,1.51,10.52,10.52,0,0,1-3.8,1.14,12.16,12.16,0,0,1-3.81-.15l0-.2c1.2-.41,2.36-.74,3.47-1.17a17.45,17.45,0,0,0,3.07-1.45,4.54,4.54,0,0,0,1.07-.89.93.93,0,0,0,.25-.85c-.14-.69-1-1.51-2-2.14l-2.73-1.77,3,.65a9.37,9.37,0,0,0,3.73.1,9.59,9.59,0,0,0,3.36-1.46,6.9,6.9,0,0,0,1.22-.92.89.89,0,0,0,.26-.9,2.94,2.94,0,0,0-.88-1.21,14.06,14.06,0,0,0-1.48-1.15Z" transform="translate(-69.98 -102.9)"/></g><path class="cls-10" d="M266.93,313.43c56.63,1.66,138.05,14,186.33,45.18a.57.57,0,0,1-.43,1c-11.38-2.39-42.17-4-47.17-4.77-13-2-23-2-36.61-3.13-22.48-1.86-45.06-2.56-67.44-5.47q-16.77-2.17-33.44-5.15c-5.05-.91-29.43-2.4-32.07-6.61C230.52,325.64,259.94,313.22,266.93,313.43Z" transform="translate(-69.98 -102.9)"/><path class="cls-5" d="M273.56,321.79c3.33-.11,6.67-.21,10-.28l10,0,10,.29,10,.5c13.34.83,26.63,2.43,39.84,4.5,13.18,2.22,26.28,4.94,39.19,8.38l9.66,2.7,9.58,2.91,9.49,3.2q4.71,1.68,9.4,3.44Q426,346,421.2,344.47l-9.61-2.76L402,339.07l-9.69-2.42c-12.95-3.12-26-5.84-39.15-7.9-13.12-2.23-26.35-3.78-39.62-4.94l-10-.78-10-.56-10-.43C280.23,322,276.9,321.89,273.56,321.79Z" transform="translate(-69.98 -102.9)"/><path class="cls-5" d="M260.35,326l10-.13,10,.08,10,.35,10,.57c13.32.92,26.6,2.5,39.78,4.61s26.26,4.9,39.19,8.26l9.66,2.63,9.6,2.84,9.51,3.1,9.45,3.31L408,348.54l-9.58-2.87-9.63-2.7-9.68-2.5c-12.94-3.19-26-5.91-39.16-8s-26.39-3.76-39.67-4.84l-10-.7-10-.5-10-.32Z" transform="translate(-69.98 -102.9)"/><path class="cls-5" d="M260.43,333c12.35-.34,24.73-.1,37.07.62s24.66,2,36.91,3.71,24.43,4,36.49,6.73l9,2.15,9,2.34,8.92,2.55,8.85,2.74-8.93-2.49-9-2.33-9-2.19-9-2c-12.07-2.59-24.23-4.8-36.46-6.49s-24.5-3-36.82-3.93S272.78,333.11,260.43,333Z" transform="translate(-69.98 -102.9)"/><path class="cls-11" d="M201.79,329.57q13.59,2.83,27.34,4.87c5.3.78,11.23,1.33,15.53-1.86s4.32-11.59-.92-12.76a33,33,0,0,0,49-29.23c4.17-4.42,11.2-3.67,17.22-4.49s12.86-6.48,9.94-11.81c-1.41-2.57-4.7-3.11-7.32-4.42-33.93-17-38.37-19.6-60.93-24-15.82-3.08-43.68-.76-56.41,12.6-7.76,8.14-17.08,26.39-21.06,36.64C166.14,315.85,184.31,325.92,201.79,329.57Z" transform="translate(-69.98 -102.9)"/><path class="cls-2" d="M412.51,316.37q-64.36-31.71-131.66-57c-16.8-6.31-34.37-12.4-52.26-10.88-28.57,2.43-53.79,26.62-57.4,55.07-.72,5.65-.52,11.85,2.89,16.42,3.59,4.8,9.83,6.64,15.65,8.09,88.41,22.06,180.88,20.38,271,33.76L416,342a264.64,264.64,0,0,0,28.85,7.9c7.19,1.53,11.56,2.66,7.36-5.08C444.76,331.12,425.66,322.85,412.51,316.37Z" transform="translate(-69.98 -102.9)"/><path class="cls-12" d="M237.85,244.35" transform="translate(-69.98 -102.9)"/><path class="cls-12" d="M240.89,244.85c-19.93-16.25-41.69-53.33-41.28-79l-6.72.52-9.11-25.65-7.36,1.65-5-22-6.19,6.13-8-16.76-2.45,7.77-7.27-11.66c-3,24.9-6,50.13-15.33,73.42-11,7.45-17.42,19.76-18.32,33s4.86,27.8,14.76,36.68c8.12,7.28,16,33.92,20,49.92" transform="translate(-69.98 -102.9)"/><g class="cls-9"><path class="cls-5" d="M453,419.86a11.13,11.13,0,0,1,2.74,4.57,8.29,8.29,0,0,1-.26,5.61,6.71,6.71,0,0,1-1.7,2.4,5.48,5.48,0,0,1-2.69,1.31,5.24,5.24,0,0,1-2.86-.28,3.77,3.77,0,0,1-2-1.82,4.76,4.76,0,0,0,4.5.59,5.24,5.24,0,0,0,2.94-3,8.7,8.7,0,0,0,.56-4.5A26.63,26.63,0,0,0,453,419.86Z" transform="translate(-69.98 -102.9)"/></g><g class="cls-9"><path class="cls-5" d="M442.51,411.87a10.9,10.9,0,0,1,2.74,4.57A8.26,8.26,0,0,1,445,422a6.9,6.9,0,0,1-1.71,2.41,5.49,5.49,0,0,1-2.68,1.31,5.36,5.36,0,0,1-2.87-.28,3.79,3.79,0,0,1-2-1.83,4.77,4.77,0,0,0,4.5.59,5.19,5.19,0,0,0,2.94-3,8.77,8.77,0,0,0,.57-4.49A27.31,27.31,0,0,0,442.51,411.87Z" transform="translate(-69.98 -102.9)"/></g><g class="cls-9"><path class="cls-5" d="M431.51,403.87a10.9,10.9,0,0,1,2.74,4.57A8.26,8.26,0,0,1,434,414a6.9,6.9,0,0,1-1.71,2.41,5.49,5.49,0,0,1-2.68,1.31,5.36,5.36,0,0,1-2.87-.28,3.79,3.79,0,0,1-2-1.83,4.77,4.77,0,0,0,4.5.59,5.19,5.19,0,0,0,2.94-3,8.77,8.77,0,0,0,.57-4.49A27.31,27.31,0,0,0,431.51,403.87Z" transform="translate(-69.98 -102.9)"/></g><g class="cls-9"><path class="cls-5" d="M421.51,395.87a10.9,10.9,0,0,1,2.74,4.57A8.26,8.26,0,0,1,424,406a6.9,6.9,0,0,1-1.71,2.41,5.49,5.49,0,0,1-2.68,1.31,5.36,5.36,0,0,1-2.87-.28,3.79,3.79,0,0,1-2-1.83,4.77,4.77,0,0,0,4.5.59,5.19,5.19,0,0,0,2.94-3,8.77,8.77,0,0,0,.57-4.49A27.31,27.31,0,0,0,421.51,395.87Z" transform="translate(-69.98 -102.9)"/></g><path class="cls-5" d="M490.26,434q-11.72-10.53-23.85-20.54c-8.12-6.65-16.36-13.14-24.82-19.34s-17-12.27-25.75-18.09l-6.57-4.32-6.64-4.23L396,363.31l-6.73-4.1,6.86,3.87,6.8,4,6.72,4.12,6.65,4.21c8.83,5.69,17.46,11.7,25.92,17.92s16.7,12.77,24.72,19.56S482.73,426.68,490.26,434Z" transform="translate(-69.98 -102.9)"/><path class="cls-13" d="M268.92,350A46.82,46.82,0,0,0,279.33,355l.68.22a1.5,1.5,0,0,1,.81.48,1.21,1.21,0,0,1-.44,1.83,1.37,1.37,0,0,1-.5.11l-.36,0-.73,0-1.45.07-2.9.13-2.82.1a.18.18,0,0,0-.14.14v.06l0,.18.06.34c.09.46.19.92.32,1.38a15.64,15.64,0,0,0,1,2.65,16.27,16.27,0,0,0,3.32,4.62,12.12,12.12,0,0,0,1.08.94,2.33,2.33,0,0,1,1,1.17A1.84,1.84,0,0,1,278,371a2.12,2.12,0,0,1-1.3.8,16.25,16.25,0,0,1-5.81.56l.2-.3,3.71,6.68a2.46,2.46,0,0,1-1.4,3.65,2.82,2.82,0,0,1-.57.09l-.47,0-1,.06-1.9.1.3-.8a5.28,5.28,0,0,1-4.57,9l.42-.9a2.52,2.52,0,0,1,.87,1.8,3.53,3.53,0,0,1-.39,1.85,3.78,3.78,0,0,1-1.24,1.43,4.66,4.66,0,0,1-1.69.68,9.65,9.65,0,0,1-3.44-.1c-1.1-.21-2.18-.46-3.25-.77a32.19,32.19,0,0,1-6.14-2.51,31.66,31.66,0,0,1-5.49-3.67l.06-.08a36,36,0,0,0,11.78,5.49c1.05.27,2.12.48,3.18.66a8.73,8.73,0,0,0,3.1,0,3,3,0,0,0,2.22-1.59,2,2,0,0,0-.24-2.41l-1.51-1.24,1.93.33a4.32,4.32,0,0,0,3.75-7.33l-.77-.75,1.08,0,1.9-.06,1,0,.48,0a2.2,2.2,0,0,0,.37-.05,1.68,1.68,0,0,0,1-2.5l-3.43-6.83-.17-.34.37,0a15,15,0,0,0,5.69-.45,1.63,1.63,0,0,0,1.12-.68,1.49,1.49,0,0,0,.17-1.25,2,2,0,0,0-.88-1,14.28,14.28,0,0,1-1.12-.94A16.68,16.68,0,0,1,272.3,363a17.35,17.35,0,0,1-1.16-2.73,12.06,12.06,0,0,1-.38-1.43l-.07-.37,0-.18a1.07,1.07,0,0,1,0-.31,1,1,0,0,1,.77-.86,2.19,2.19,0,0,1,.45,0l.36,0,.73,0,1.45-.07,2.9-.1,1.45,0,.72,0,.37,0a.53.53,0,0,0,.2,0,.44.44,0,0,0,.16-.63c-.07-.16-.71-.29-1.13-.46a39.72,39.72,0,0,1-10.22-5.56Z" transform="translate(-69.98 -102.9)"/><path class="cls-13" d="M303.73,377.83a80.13,80.13,0,0,0,9.5,2.19l1.19.21.61.1a1.05,1.05,0,0,1,.81.49.66.66,0,0,1-.1.73,1.23,1.23,0,0,1-.42.28,2.41,2.41,0,0,1-.74.11l-1.22,0c-1.63.06-3.26.07-4.89.09h-1.22c-.5,0-.57,0-.71.2a.35.35,0,0,0,0,.3,3.7,3.7,0,0,0,.25.47,5.6,5.6,0,0,0,.69.93,12,12,0,0,0,3.87,2.77c.37.17.73.32,1.11.47a1.45,1.45,0,0,1,.58.39.66.66,0,0,1,.05.77,1.69,1.69,0,0,1-1.18.59l-1.22.17a33.56,33.56,0,0,1-4.91.21l.16-.38,2.1,1.93,1.05,1,.52.48a1.09,1.09,0,0,1,.41.92,1.25,1.25,0,0,1-.55.82,2.68,2.68,0,0,1-.75.35,5.91,5.91,0,0,1-1.51.18l-2.85.1.2-.86a2.76,2.76,0,0,1,1.69,2,2,2,0,0,1-.41,1.4,3.46,3.46,0,0,1-1,.84,7.21,7.21,0,0,1-2.29.77,9.05,9.05,0,0,1-2.38.1l.25-1a1.87,1.87,0,0,1,.8.63,1.28,1.28,0,0,1,.12,1.18A2.51,2.51,0,0,1,300,401a8.51,8.51,0,0,1-3.06.51,20.77,20.77,0,0,1-3-.2c-1-.11-1.95-.25-2.92-.41a48.9,48.9,0,0,1-5.73-1.29,41.26,41.26,0,0,1-5.52-2l0-.09a59.11,59.11,0,0,0,11.33,2.55,43.26,43.26,0,0,0,5.75.42,7.45,7.45,0,0,0,2.67-.45,1.49,1.49,0,0,0,.79-.66.18.18,0,0,0,0-.21.8.8,0,0,0-.35-.24l-2.73-1.25,3,.24a9.41,9.41,0,0,0,2.12-.08,6.48,6.48,0,0,0,2-.62c.6-.31,1-.78,1-1.25a1.91,1.91,0,0,0-1.15-1.28l-1.74-.86h1.93l2.85,0a5,5,0,0,0,1.31-.1c.39-.08.79-.35.8-.52s0-.16-.17-.32l-.49-.51-1-1-2-2-.42-.42.58,0a27.09,27.09,0,0,0,4.85-.08c.77-.12,1.74-.08,2.16-.63.17-.25-.12-.52-.48-.65l-1.14-.45a13.27,13.27,0,0,1-4.18-2.68,7.76,7.76,0,0,1-.81-1,4.38,4.38,0,0,1-.35-.59,1.13,1.13,0,0,1,.68-1.5,2.32,2.32,0,0,1,.72-.08l1.23,0c1.62-.05,3.25-.1,4.88-.1l1.23,0a1.28,1.28,0,0,0,.47,0l.09-.05a.18.18,0,0,0,0,.17c.06.06-.08-.06-.23-.07l-.6-.11-1.21-.23a54.55,54.55,0,0,1-9.38-2.84Z" transform="translate(-69.98 -102.9)"/><path class="cls-14" d="M82.24,225.22c9.57-.51,19.24-1.62,28.16-5.13,2.24-.88,3.53-2.66,1.11-4-2.09-1.13-7.52.84-9.59,1.34A75.7,75.7,0,0,0,82.24,225.22Z" transform="translate(-69.98 -102.9)"/><path class="cls-11" d="M124.31,203.9a9.19,9.19,0,0,1-1-6.44,14.19,14.19,0,0,1,2.7-6,36.57,36.57,0,0,1,4.7-4.47,48.6,48.6,0,0,0,4.51-4.45,45.78,45.78,0,0,0,3.78-4.9,35.14,35.14,0,0,0,2.79-5.42,38.8,38.8,0,0,0,2.92-12h.2A22.64,22.64,0,0,1,143.75,173,24.64,24.64,0,0,1,136,183.32a59.9,59.9,0,0,0-4.83,4.12,26.89,26.89,0,0,0-3.77,4.95,23.34,23.34,0,0,0-2.56,5.42,12.45,12.45,0,0,0-.31,6Z" transform="translate(-69.98 -102.9)"/><path class="cls-5" d="M279.48,296.87c3.76-7.12,1-17.53-6.58-20.29,6.34.6,9.92-8.24,7-13.85s-9.35-8.36-15.27-10.7c-20.19-8-43.31-15.91-62.85-6.57-14.24,6.81-22.86,21.23-30.65,34.85-17.71,31,5.66,49,36.29,52.52,21.71,2.46,43.07-3.66,28.67-27.88C250.08,307.89,271,312.91,279.48,296.87Z" transform="translate(-69.98 -102.9)"/></svg>