<svg id="Layer_1" data-name="Layer 1" xmlns="http://www.w3.org/2000/svg" xmlns:xlink="http://www.w3.org/1999/xlink" viewBox="0 0 289.9 159.32"><defs><style>.cls-1{fill:#ab4400;}.cls-2{fill:#565b61;}.cls-3{fill:url(#linear-gradient);}.cls-4{fill:#343434;}.cls-5{fill:#fff;}.cls-6{fill:#020202;}.cls-14,.cls-15,.cls-17,.cls-7,.cls-9{fill:none;}.cls-17,.cls-7{stroke:#000;}.cls-14,.cls-15,.cls-17,.cls-7{stroke-miterlimit:10;}.cls-14,.cls-15,.cls-7{stroke-width:2px;}.cls-8{fill:#b79186;}.cls-10{fill:#b8bcc8;}.cls-11{fill:#d8ddf0;}.cls-12{fill:#4a4d52;}.cls-13{fill:#3b3e43;}.cls-14{stroke:#020202;}.cls-15{stroke:#070707;}.cls-16{fill:#c79795;}</style><linearGradient id="linear-gradient" x1="269.7" y1="365.5" x2="373.06" y2="248.75" gradientUnits="userSpaceOnUse"><stop offset="0.69" stop-color="#fff"/><stop offset="0.71" stop-color="#f0f1f1"/><stop offset="0.73" stop-color="#cacbcd"/><stop offset="0.77" stop-color="#8c8f93"/><stop offset="0.77" stop-color="#8b8e92"/><stop offset="0.81" stop-color="#565b61"/></linearGradient></defs><title>junco</title><path class="cls-1" d="M417.74,231.18" transform="translate(-143.55 -208.99)"/><path class="cls-2" d="M311.24,331.38c20.13,6.25,42.54,7,61.91-1.31s35-26.67,36.78-47.67c1-11.56-2-23.57,1.52-34.62,2.4-7.54,7.73-15.62,4-22.61a28.19,28.19,0,0,0-10.6-10.71c-7.23-4.14-16.34-3.55-24.59-2.46-9.22,1.22-16.8,7.54-24.16,13.22a262,262,0,0,1-74.5,40.29c-43.87,15.18-91,18.43-137.43,17.4a.61.61,0,0,0-.59.82c2.34,6.79,9.91,10.39,16.69,13.13l17-1.41c19.55-1.61,39.39-3.21,58.88-.2,8,1.24,15.67,2.63,22.12,7.66a194.58,194.58,0,0,0,23.59,15.46A148.59,148.59,0,0,0,311.24,331.38Z" transform="translate(-143.55 -208.99)"/><path class="cls-3" d="M321.47,333.49a96.7,96.7,0,0,0,18.5,2.13c14,.24,28.2-2.66,40.42-9.6a53.11,53.11,0,0,0,8.62-5.88c2.25-1.95,3.68-4.57,5.81-6.68a50.19,50.19,0,0,0,11.7-18c.8-2.14,1.44-4.58.5-6.66a6.08,6.08,0,0,0-4.45-3.24,11.82,11.82,0,0,0-5.65.5c-7.86,2.33-13.85,8.51-20.08,13.84-4.88,4.17-10.61,8.18-17.12,9.09a166,166,0,0,1-20.45,1.44,141.54,141.54,0,0,1-43.17-6.13c-7.73-2.37-15.27-5.4-23.12-7.36-6.53-1.64-13.41-2.5-20-1.56a1.59,1.59,0,0,0-.72,2.87c1.3.95,2.59,1.89,3,2.09a35.92,35.92,0,0,1,5.91,3.79c4.44,3.17,9,6.24,13.58,9.14a168.91,168.91,0,0,0,29,14.83A120.63,120.63,0,0,0,321.47,333.49Z" transform="translate(-143.55 -208.99)"/><path class="cls-4" d="M411.31,229.9c-3.57-2.54-9.79-6.73-14.16-6.44s-8.27,6.67-12,8.89c4.84-.86,9.15,6.28,14,7.2,1.54.29,2.9-2.36,4.44-2.07,2.39.47,4.5,1.83,6.73,2.76a4.59,4.59,0,0,0,2.45.36c2.06-.31,2.37-1.87,2.62-3.3s2.07-7.1.83-8.05C414.57,228,411.81,230.25,411.31,229.9Z" transform="translate(-143.55 -208.99)"/><circle class="cls-5" cx="255.01" cy="21.92" r="5.73"/><circle class="cls-6" cx="255.22" cy="21.71" r="4.51"/><circle class="cls-7" cx="255.65" cy="21.93" r="5.85"/><circle class="cls-5" cx="256.7" cy="20.66" r="1.25"/><path class="cls-8" d="M362.79,340.21a12.74,12.74,0,0,0,2.75,1,15.33,15.33,0,0,0,3.83.08c6.42-.37,12.86-.1,19.29.17,2.47.11,5.35.44,6.62,2.56a11.11,11.11,0,0,0-8.63-.87,8.69,8.69,0,0,1,5.61,3.21c-8.85-3.35-19.05.86-28.14-1.76a12.12,12.12,0,0,0-3.29-.72,9.15,9.15,0,0,0-3.61,1.05c-4.29,1.93-9.07,4.41-10.23,9,0-2.56,1.62-4.87,3.61-6.47a67.9,67.9,0,0,1,6.52-4c.7-.44,1.47-1.1,1.34-1.91s-.91-1.15-1.61-1.44c-3.65-1.51-7.44-2.89-11-4.61,2.4-.68,5.11-1.53,7.47-.5C356.58,336.38,359.52,338.71,362.79,340.21Z" transform="translate(-143.55 -208.99)"/><path class="cls-8" d="M314.41,346.71a31.87,31.87,0,0,1,7.39-3.28,10.75,10.75,0,0,1,7.89.7,14.11,14.11,0,0,1,4.3,4.3,56.67,56.67,0,0,1,7.15,13.63c-.12-6.06-3.23-11.59-6.25-16.84a29.09,29.09,0,0,1,12.56,17.21A16.75,16.75,0,0,0,344.64,351a44.45,44.45,0,0,0-8.05-8.85,42.41,42.41,0,0,1,14.5-2.5c-2-1.88-5-2.3-7.77-2.21s-5.54.59-8.28.19c-4.24-.63-7.86-3.35-11-6.27s-6-6.2-9.7-8.38L310,324.7c.66-.25,6.61,5.51,7.46,6.18,1.71,1.36,5.8,3.34,6.14,5.7.37,2.52-2.33,3.6-4.09,4.52A10.15,10.15,0,0,0,314.41,346.71Z" transform="translate(-143.55 -208.99)"/><path class="cls-5" d="M316.22,321.05l-2,4.28a3.45,3.45,0,0,0-2.63-.67,2.28,2.28,0,0,1-.71,2l-7.75-5A28.55,28.55,0,0,1,316.22,321.05Z" transform="translate(-143.55 -208.99)"/><path class="cls-9" d="M232.59,302.46" transform="translate(-143.55 -208.99)"/><path class="cls-10" d="M146,288.92a6.2,6.2,0,0,0,4.11,4.71,18.34,18.34,0,0,0,6.48.87q19.52.22,39,.33c13,.07,27.53.85,40-3.15-4.45-3.21-6.64-4.14-12.17-3.5q-9.37,1.1-18.81,1.69a368.49,368.49,0,0,1-37.75.47C165.05,290.27,146.08,289.79,146,288.92Z" transform="translate(-143.55 -208.99)"/><path class="cls-11" d="M148.7,292.68a6.19,6.19,0,0,0,4.12,4.71,18.29,18.29,0,0,0,6.47.87q19.53.23,39,.33c13,.07,27.53.85,40-3.15-4.45-3.21-6.64-4.14-12.17-3.5q-9.37,1.1-18.81,1.69a368.49,368.49,0,0,1-37.75.47C167.77,294,148.8,293.55,148.7,292.68Z" transform="translate(-143.55 -208.99)"/><path class="cls-12" d="M253,275c28-8.68,55.34-19.91,82.37-31.51,12.13-5.2,29.76,4.09,40,16.65,9.87,12.15,1.77,34.95-9.89,43.1-12,8.4-28.41,7.14-42.95,4.34l-1-.2c-17.51-3.43-33.85-7.54-51.64-8.4-7.74-.37-15.55-.17-23.17-1.64a101.33,101.33,0,0,1-22.25-7.59,1.23,1.23,0,0,1,0-2.24c3.13-1.48,6.24-3.28,9.38-4.53C240.56,280.29,246.09,277.13,253,275Z" transform="translate(-143.55 -208.99)"/><path class="cls-13" d="M325.1,255.63c8.95-1.34,20-.45,27,5.15,6.43,5.14,10,15.69,10.29,22.7a19,19,0,0,1-10.58,17.28c-8.3,4-18.32,1.94-27.33-.33q-20.81-5.24-41.45-11c-11.22-3.14-28.32-1.2-39.47-5.5-1.52-.59-1.44-1.39.15-1.74C269.29,276.58,299.79,259.42,325.1,255.63Z" transform="translate(-143.55 -208.99)"/><path class="cls-5" d="M315,275a15.24,15.24,0,0,0-1.16,1.39,1.85,1.85,0,0,0-.4,1.26c.12.72.81,1.08,1.86,1.18a1.8,1.8,0,0,1,1.36.75,1.83,1.83,0,0,1,.3,1.34,1.57,1.57,0,0,0,.33,1.45,2.64,2.64,0,0,0,1.44.86,4.57,4.57,0,0,0,1.73.05,15.19,15.19,0,0,1,3.83-.42,5.91,5.91,0,0,1,1.08.17l.15,0a1.3,1.3,0,0,1,.3.13,1.5,1.5,0,0,1,.49.45,1.54,1.54,0,0,1,.24,1.3,1.6,1.6,0,0,1-.31.61l-.22.23-.21.25a1.26,1.26,0,0,0-.22.4.84.84,0,0,0,0,.34c0,.08,0,.06,0,.12s.68.11,1.32.05a26.49,26.49,0,0,1,3.78,0l0,.2a26.78,26.78,0,0,1-3.54,1.35,3.56,3.56,0,0,1-2.35.18,2.08,2.08,0,0,1-1.21-1.2,2.62,2.62,0,0,1-.11-1.51,3.1,3.1,0,0,1,.6-1.25,5.89,5.89,0,0,1,.41-.44l.11-.1,0,0,0,0a.51.51,0,0,0-.1.21.52.52,0,0,0,.09.42.51.51,0,0,0,.16.13l.08,0-.07,0a5.33,5.33,0,0,0-.74-.2c-1.05-.2-2.3-.16-3.61-.37a6.48,6.48,0,0,1-3.64-1.56,3,3,0,0,1-.95-1.93c-.1-.4-.44-.48-.56-.38a3.25,3.25,0,0,1-2.27-.56,2.81,2.81,0,0,1-.88-1,2.59,2.59,0,0,1-.26-1.31,2.76,2.76,0,0,1,1.19-2,5.12,5.12,0,0,1,1.82-.82Z" transform="translate(-143.55 -208.99)"/><path class="cls-5" d="M300,277.28a4,4,0,0,0-1.21,2.11v0a.84.84,0,0,0,0-.44.71.71,0,0,0-.41-.47.61.61,0,0,0-.23-.06h.55l.71,0a8.27,8.27,0,0,1,1.39.18l.09,0H301l.11,0a.85.85,0,0,1,.6.52.83.83,0,0,1-.08.77s0,0-.05.05l-.18.19a2,2,0,0,0-.29.47,1.63,1.63,0,0,0-.09,1.17,1.72,1.72,0,0,0,.76.94,1.52,1.52,0,0,0,.57.21.92.92,0,0,0,.29,0,.9.9,0,0,1,.63.36c.19.18.2.63.22.63s.05.18.09.27a4,4,0,0,0,.24.51,4.38,4.38,0,0,0,.65.9,5.86,5.86,0,0,0,1.88,1.24,36.07,36.07,0,0,0,5.15,1.38v.19a9.6,9.6,0,0,1-2.85.75,7.19,7.19,0,0,1-3.09-.33,5.33,5.33,0,0,1-2.59-2.07,4.24,4.24,0,0,1-.68-1.55,3.06,3.06,0,0,1-.07-.85c0-.26,0-.71.12-.48,0,0,.1,0,.06,0a3.14,3.14,0,0,1-.37-.18,3.84,3.84,0,0,1-.66-.45,4,4,0,0,1-1-1.24,3.81,3.81,0,0,1-.4-1.59,2.9,2.9,0,0,1,.09-.87,2.54,2.54,0,0,1,.15-.44.63.63,0,0,0,0-.09.73.73,0,0,0-.07.68.77.77,0,0,0,.54.47h-.08a6.64,6.64,0,0,1-1.41-.07l-.69-.1-.35-.07-.17,0h0a1,1,0,0,1-.28-.07.86.86,0,0,1-.46-.53.89.89,0,0,1,0-.52l0-.05a3,3,0,0,1,2.6-1.78Z" transform="translate(-143.55 -208.99)"/><path class="cls-5" d="M332.22,265.9a5.42,5.42,0,0,1-.43,2.17,2.42,2.42,0,0,0-.06.82.52.52,0,0,0,.26.39,1.19,1.19,0,0,0,.57.15,5,5,0,0,0,.93,0l.56,0h.14a1.67,1.67,0,0,1,.81.23,1.65,1.65,0,0,1,.7.82,1.45,1.45,0,0,1,.11.54,1.31,1.31,0,0,1,0,.28l0,.1a2.08,2.08,0,0,0,.3,1.51,1.63,1.63,0,0,0,.65.56,3.72,3.72,0,0,1,1,.59,1.67,1.67,0,0,1,.45,1.21,3.3,3.3,0,0,0,.11,1,2.58,2.58,0,0,0,1.19,1.41,5.57,5.57,0,0,0,1.79.61l1,.18.13,0,.27.08a1.86,1.86,0,0,1,.49.29,1.76,1.76,0,0,1,.57.9,7.31,7.31,0,0,0,1.7,3.2,31.55,31.55,0,0,0,7.27,3.57v.2a9.77,9.77,0,0,1-4.43-.34c-.72-.19-1.4-.42-2.09-.66a6.68,6.68,0,0,1-2.16-1.17,5.4,5.4,0,0,1-1.47-2.1,11.5,11.5,0,0,1-.64-2.22c0-.05,0,0,0,0h0l-.12,0c-.35-.11-.72-.22-1.08-.37a6,6,0,0,1-2-1.3,4.27,4.27,0,0,1-1.15-2.1c-.16-.81.11-1.59-.33-1.88a2.57,2.57,0,0,0-.88-.3,2.88,2.88,0,0,1-1.16-.55,3.16,3.16,0,0,1-1.18-2.39v-.16h0v0s0,0,0,0h-.6a3.42,3.42,0,0,1-2.57-.75,1.94,1.94,0,0,1-.55-1.53,2.81,2.81,0,0,1,.43-1.25,13.85,13.85,0,0,0,1.2-1.77Z" transform="translate(-143.55 -208.99)"/><path class="cls-7" d="M258.74,277.3c28-8.68,55.33-19.92,82.37-31.51,12.13-5.2,29.76,4.09,40,16.65,9.87,12.15,1.77,34.95-9.89,43.1-12,8.4-28.42,7.13-43,4.34l-1-.2c-17.5-3.43-33.85-7.54-51.64-8.4-7.74-.37-15.55-.17-23.17-1.64a101.43,101.43,0,0,1-22.24-7.59,1.23,1.23,0,0,1,0-2.24c3.13-1.48,6.23-3.28,9.38-4.53C246.27,282.61,251.8,279.45,258.74,277.3Z" transform="translate(-143.55 -208.99)"/><path class="cls-14" d="M316.35,346.9a32.18,32.18,0,0,1,7.4-3.28,10.78,10.78,0,0,1,7.88.7,14,14,0,0,1,4.3,4.31,56.42,56.42,0,0,1,7.15,13.62c-.12-6.05-3.23-11.59-6.25-16.83a29,29,0,0,1,12.56,17.2,16.76,16.76,0,0,0-2.81-11.39,44.65,44.65,0,0,0-8-8.84,42.31,42.31,0,0,1,14.49-2.5c-2-1.88-5-2.31-7.77-2.22s-5.54.59-8.28.19c-4.24-.63-7.86-3.34-11-6.27s-6-6.19-9.7-8.38l-4.37,1.69c.66-.25,6.61,5.5,7.46,6.17,1.71,1.37,5.8,3.35,6.15,5.71.36,2.51-2.34,3.59-4.1,4.51A10.18,10.18,0,0,0,316.35,346.9Z" transform="translate(-143.55 -208.99)"/><path class="cls-15" d="M362.66,341.79a12.94,12.94,0,0,0,2.75,1,15.4,15.4,0,0,0,3.84.08c6.42-.37,12.85-.1,19.28.17,2.47.11,5.35.44,6.62,2.56a11.11,11.11,0,0,0-8.63-.87,8.69,8.69,0,0,1,5.61,3.21c-8.85-3.35-19,.85-28.14-1.76a12.12,12.12,0,0,0-3.29-.72,9.2,9.2,0,0,0-3.61,1.05c-4.28,1.93-9.06,4.41-10.23,9,0-2.56,1.62-4.87,3.61-6.47a66.84,66.84,0,0,1,6.53-4c.69-.44,1.46-1.1,1.33-1.91s-.91-1.15-1.6-1.44c-3.66-1.51-7.44-2.89-11-4.61,2.41-.68,5.11-1.53,7.47-.5C356.46,338,359.39,340.29,362.66,341.79Z" transform="translate(-143.55 -208.99)"/><path class="cls-7" d="M323.61,334.5a31.82,31.82,0,0,1-3.38-.41C306.84,331,294.85,324,282.9,317.15a194.58,194.58,0,0,1-23.59-15.46c-6.45-5-15.19-3.28-23.32-3.28h-57.9c-5.79,0-16.22-.82-22.35-.71a6.21,6.21,0,0,1-3.24-.8c-5.12-3-5.8-8.25-7.92-14.39a.61.61,0,0,1,.59-.82c46.42,1,93.56-2.22,137.43-17.4A262.28,262.28,0,0,0,357.1,224c7.36-5.68,14.94-12,24.16-13.22,8.25-1.09,17.35-1.66,24.59,2.45A30.41,30.41,0,0,1,416.45,224c3.71,7-1.62,15.07-4,22.61-3.53,11.05-.53,23.06-1.52,34.62-1.81,21-17.41,39.35-36.78,47.67-13.41,5.77-27.08,7.54-41.67,7.27" transform="translate(-143.55 -208.99)"/><path class="cls-16" d="M415.54,231.18a25.77,25.77,0,0,1,15.71,8.19l-12.35,1.38a11.5,11.5,0,0,1-10.82-4.57l-.09-.13C405,231.44,415.54,231.18,415.54,231.18Z" transform="translate(-143.55 -208.99)"/><path d="M407.54,235.69a26.67,26.67,0,0,1,5.9-.92,30.39,30.39,0,0,1,11.8,1.71,24.51,24.51,0,0,1,5.37,2.62,42.08,42.08,0,0,0-5.54-2.07,43.65,43.65,0,0,0-5.75-1.25,46,46,0,0,0-5.87-.44A46.86,46.86,0,0,0,407.54,235.69Z" transform="translate(-143.55 -208.99)"/><path class="cls-17" d="M421.11,232.31a27.17,27.17,0,0,1,11.29,7.22l-12.35,1.38a11.5,11.5,0,0,1-10.82-4.57l-.09-.14c-1.62-2.46.66-3.68,3.13-4.28A16.21,16.21,0,0,1,421.11,232.31Z" transform="translate(-143.55 -208.99)"/></svg>