<!-- Generator: Adobe Illustrator 23.1.1, SVG Export Plug-In  -->
<svg version="1.1" xmlns="http://www.w3.org/2000/svg" xmlns:xlink="http://www.w3.org/1999/xlink" x="0px" y="0px"
	 width="339.17px" height="183.37px" viewBox="0 0 339.17 183.37" style="enable-background:new 0 0 339.17 183.37;"
	 xml:space="preserve">
<style type="text/css">
	.st0{fill:#424244;}
	.st1{fill:none;stroke:#000000;stroke-width:2;stroke-miterlimit:10;}
	.st2{fill:#6D6F73;}
	.st3{fill:#B1BEB7;}
	.st4{fill:#FFE93C;}
	.st5{fill:#1C1D1F;}
	.st6{fill:url(#SVGID_1_);}
	.st7{fill:#FFFFFF;}
	.st8{fill:#020202;}
	.st9{fill:#D8BF2E;}
	.st10{fill:#FFE93C;stroke:#000000;stroke-width:0.5;stroke-miterlimit:10;}
	.st11{fill:none;stroke:#1C1D1F;stroke-width:2;stroke-miterlimit:10;}
	.st12{fill:url(#SVGID_2_);}
</style>
<defs>
</defs>
<g>
	<g>
		<path class="st0" d="M105.43,171.85c-2.87,0.34-5.76,0.59-8.65,0.5l-16.43-0.52c0,0-3.46-0.25-5.43-0.74
			c-0.83-0.21-4.06-0.57-6.3,0.1c-0.37,0.11-0.66-0.34-0.41-0.64c1.21-1.43,3.51-3.49,6.46-3.17c3.36,0.37,10.39,0.75,13.61,0.91
			c1.04,0.05,2.02-0.48,2.54-1.38l10.25-17.55h4.94l-8.89,17.28c0,0-2.22,2.47,1.23,2.71c2.39,0.17,5.95-0.25,7.93-0.52"/>
		<path class="st1" d="M103.82,150.37l-8.89,17.28c0,0-2.22,2.47,1.23,2.71c2.42,0.17,6.04-0.26,8-0.53c1.92-0.27,3.8,0.9,4.29,2.78
			c0.02,0.07,0.04,0.15,0.05,0.23c0,0-3.44-0.26-5.56,0.06c-2.94,0.44-5.91,0.54-8.88,0.45l-15.92-0.51c0,0-3.46-0.25-5.43-0.74
			c-0.83-0.21-4.06-0.57-6.3,0.1c-0.37,0.11-0.66-0.34-0.4-0.64c1.21-1.43,3.51-3.49,6.46-3.16c3.36,0.37,10.38,0.75,13.61,0.91
			c1.04,0.05,2.02-0.48,2.54-1.38l10.25-17.55H103.82z"/>
	</g>
	<path class="st0" d="M114.38,179.89c-2.94,0.44-5.91,0.54-8.88,0.45l-15.92-0.51c0,0-3.46-0.25-5.43-0.74
		c-0.83-0.21-4.06-0.57-6.3,0.1c-0.37,0.11-0.66-0.34-0.4-0.64c1.21-1.43,3.51-3.49,6.46-3.16c3.36,0.37,10.38,0.75,13.61,0.91
		c1.04,0.05,2.02-0.48,2.54-1.38l10.25-17.55h4.94l-8.89,17.28c0,0-2.22,2.47,1.23,2.71c2.42,0.17,6.04-0.26,8-0.53
		c1.92-0.27,3.8,0.9,4.29,2.78"/>
	<path class="st2" d="M78.09,178.34c-0.22,0.06-0.36-0.21-0.2-0.36c0.95-0.86,2.77-2.33,4.41-2.53c2.29-0.29,13.9,0.77,14.45,0.82
		c0.01,0,0.02,0,0.04,0.01c0.23,0.07,2.55,0.68,3.92-2.47c0-0.01,0.01-0.01,0.01-0.02l5.37-9.18l4.16-7.11
		c0.04-0.07,0.11-0.11,0.18-0.11h0.97c0.16,0,0.27,0.18,0.19,0.32l-10.37,18.39c-0.77,1.36-2.27,2.13-3.82,1.96
		C92.94,177.56,83.62,176.83,78.09,178.34z"/>
	<path class="st3" d="M24.35,32.27c0,0-21.65,11.1-22.93,16.03c-0.92,3.55,18.65,2.63,29.67,1.83c3.33-0.24,6.06-4.93,4.3-7.76
		l-0.85,1h0c1.6,0,2.27-2.05,0.97-2.99L24.35,32.27z"/>
	<path class="st4" d="M102.39,28.37c0,0,8.37,18.37-15,28.57c-0.24,0.1-0.48,0.21-0.71,0.32c-14.1,6.36-14.33,25.38-0.37,32.03
		l20.08,2.9c3.68,1.75,6.91,2.43,11,2.86l106.26,17.61c9.11,0.96,18,3.27,26.35,6.85l0,0c2.91,1.25,2.95,5.17,0.07,6.47l-11.67,5.27
		l-37,8.57c0,0-42,20-83,9.52c-41.09-10.5-50-12.38-64-30.48s-22-44.48-22-44.48L102.39,28.37z"/>
	<path class="st5" d="M101.39,27.37c0,0,162,86,163,94s-174-8-196-43c0,0-9.51-10.41,20.58-25.2c5.41-2.66,9.84-7.07,12.29-12.59
		C103.05,36.56,103.83,31.84,101.39,27.37z"/>
	
		<linearGradient id="SVGID_1_" gradientUnits="userSpaceOnUse" x1="264.4167" y1="63.0955" x2="322.335" y2="7.0632" gradientTransform="matrix(-1 0 0 1 339.1738 0)">
		<stop  offset="0.268" style="stop-color:#FFE93C"/>
		<stop  offset="0.7773" style="stop-color:#EA4039"/>
	</linearGradient>
	<path class="st6" d="M72.56,58.55c25.35-12.34,29.75-23.12,29.83-29.18c0.01-0.61-0.24-1.36-0.62-2.08
		c-0.51-0.98-1.26-1.82-2.12-2.52L78.24,7.42C50-11.71,29.79,18.17,25.41,25.49c-4.94,8.26-2.7,18.23-0.68,27.64
		c1.64,7.62,8.82,22.99,13.65,37.24C52.48,85.3,59.09,65.11,72.56,58.55z"/>
	<path class="st5" d="M260.69,121.93l71.51,40.02c1.6,0.9,0.42,3.33-1.28,2.62l-65.98-27.54l4.46,3.64c1.17,0.96-0.02,2.79-1.37,2.1
		l-51.64-26.39L260.69,121.93z"/>
	<g>
		<g>
			<ellipse class="st7" cx="44.56" cy="27.86" rx="8.91" ry="8.9"/>
			<circle class="st8" cx="43.24" cy="27.53" r="7.02"/>
			<ellipse class="st1" cx="43.58" cy="27.89" rx="9.09" ry="9.08"/>
		</g>
		<circle class="st7" cx="39.94" cy="23.92" r="1.94"/>
	</g>
	<path class="st4" d="M131.7,150.99c0,0-25.76,21.49-39.31-10.62L131.7,150.99z"/>
	<path class="st9" d="M54.26,108.61c6.33,9.01,31.47,37.63,95.13,37.22c0.87-0.01,0.93-0.82,0.06-0.98
		c-14.43-2.69-56.46-12.19-93.8-36.83C54.94,107.55,53.83,108.01,54.26,108.61z"/>
	<path class="st7" d="M106.39,83.37"/>
	<g>
		<path class="st7" d="M259.91,124.84l34.81,18.27l8.7,4.56l8.67,4.62c5.75,3.14,11.5,6.28,17.18,9.55l-0.04,0.07
			c-5.88-2.89-11.69-5.93-17.5-8.95l-8.67-4.63l-8.64-4.69l-34.56-18.74L259.91,124.84z"/>
	</g>
	<g>
		<path class="st7" d="M254.54,123.26l34.81,18.27l8.7,4.56l8.67,4.62c5.75,3.14,11.5,6.28,17.18,9.55l-0.04,0.07
			c-5.88-2.89-11.69-5.93-17.5-8.95l-8.67-4.63l-8.64-4.69l-34.56-18.74L254.54,123.26z"/>
	</g>
	<g>
		<path class="st7" d="M252.41,123.34l27.87,14.73l6.97,3.68l6.94,3.74c4.59,2.55,9.19,5.1,13.71,7.78l-0.04,0.07
			c-4.73-2.31-9.38-4.75-14.03-7.18l-6.94-3.74l-6.9-3.8l-27.62-15.19L252.41,123.34z"/>
	</g>
	<g>
		<path class="st7" d="M292.88,146.89l-22.3-11.6c-3.72-1.92-7.43-3.87-11.13-5.83c-3.67-2.03-7.37-3.99-11-6.07l0.02-0.04
			c3.77,1.83,7.47,3.79,11.21,5.68c3.71,1.95,7.4,3.92,11.09,5.92l22.14,11.9L292.88,146.89z"/>
	</g>
	<g>
		<path class="st7" d="M284.24,143.4l-19.7-9.89c-3.29-1.64-6.57-3.3-9.83-4.98c-3.25-1.71-6.5-3.42-9.71-5.22l0.02-0.04
			c3.34,1.55,6.62,3.19,9.91,4.82c3.27,1.67,6.54,3.36,9.79,5.07l19.54,10.2L284.24,143.4z"/>
	</g>
	<g>
		<path class="st7" d="M270.88,137.89l-14.46-7.08c-2.42-1.17-4.82-2.36-7.21-3.57c-2.38-1.25-4.76-2.49-7.09-3.82l0.02-0.04
			c2.46,1.08,4.87,2.25,7.29,3.42c2.4,1.2,4.79,2.42,7.17,3.66l14.3,7.39L270.88,137.89z"/>
	</g>
	<path class="st7" d="M185,97.26c-15-5.16-30.17-10.37-46.67-14.2s-34.69-6.24-50.5-5.26c-4.21,0.26-8.7,1.02-8.97,2.88
		c-0.17,1.21,1.61,2.57,3.95,3.59s5.2,1.77,8,2.49c25.67,6.64,51.58,13.07,78.04,18.71c13.27,2.83,26.67,5.47,40.18,7.82
		c3.38,0.59,6.76,1.16,10.15,1.71c1.87,0.3,6.9,1.5,8.47,1.13c3.87-0.91-4.77-4.4-6.63-5.25C210,105.86,197.45,101.54,185,97.26z"/>
	<path class="st10" d="M123.83,64.84c1.16,0.31,2.53,0.92,2.59,2.11c0.07,1.22-1.28,1.97-2.43,2.38c-9.91,3.53-20.76,4.4-31.11,2.5
		c-2.54-0.47-7.47-2.29-5.51-5.88c1.1-2.03,7.2-2.41,9.2-2.44C106.39,63.37,114.97,62.47,123.83,64.84z"/>
	<path class="st1" d="M114.02,159.37l-8.89,17.28c0,0-2.22,2.47,1.23,2.71c2.42,0.17,6.04-0.26,8-0.53c1.92-0.27,3.8,0.9,4.29,2.78
		c0.02,0.07,0.04,0.15,0.05,0.23c0,0-3.44-0.26-5.56,0.06c-2.94,0.44-5.91,0.54-8.88,0.45l-15.92-0.51c0,0-3.46-0.25-5.43-0.74
		c-0.83-0.21-4.06-0.57-6.3,0.1c-0.37,0.11-0.66-0.34-0.4-0.64c1.21-1.43,3.51-3.49,6.46-3.16c3.36,0.37,10.38,0.75,13.61,0.91
		c1.04,0.05,2.02-0.48,2.54-1.38l10.25-17.55H114.02z"/>
	<path class="st1" d="M23.22,32.46c0.64,4.57,1.28,9.15,1.92,13.72c0.19,1.38,0.3,3-0.74,3.92c-0.74,0.65-1.82,0.7-2.8,0.72
		c-5.01,0.1-10.02,0.2-15.02,0.3c-1.16,0.02-2.34,0.04-3.43-0.37s-2.05-1.34-2.14-2.49c-0.12-1.55,1.28-2.75,2.54-3.66
		C9.1,40.63,14.9,37.1,20.6,33.35c4.34-2.85,4.65-6.41,6.79-10.97C32.15,12.18,41.93,3,53.39,1.37c11.18-1.59,20,2,30,9
		c6.15,4.31,9,7,16,13c4.94,4.23,4.57,13.22,1.66,19.04c-3.68,7.36-12.2,10.57-19.41,14.53c-7.21,3.96-14.46,11.26-12.38,19.22
		c1.44,5.5,6.83,8.9,11.86,11.57c28.6,15.17,60.2,24.66,92.42,27.77c11.39,1.1,22.84,1.44,34.21,2.79
		c4.31,0.51,31.25,3.57,30.94,9.17c-0.28,5.03-27.79,10.72-32.48,12.07c-11.96,3.45-24.05,6.48-36.22,9.1
		c-13.72,2.94-23.6,2.75-38.6,2.75c-6.32,0-12,8-21,7c-6.18-0.69-13-12-17-15c-7.94-5.96-17.01-5.53-25.2-11.16
		c-21.72-14.94-31.18-41.82-39.34-66.89c-3.46-10.62-6.12-25.17-4.46-35.95"/>
	<path class="st11" d="M101.72,39.83c2.41-5.65,5.09-6.59,10.5-3.69c39.78,21.32,147.68,79.73,148.49,86.25c1,8-174-8-196-43
		c0,0-9.51-10.41,20.58-25.2c5.41-2.66,12.98-5.84,15.43-11.35C100.76,42.73,101.67,39.93,101.72,39.83z"/>
	<path class="st1" d="M180.03,97.62c-15-5.16-30.17-10.37-46.67-14.2s-34.69-6.24-50.5-5.26c-4.21,0.26-8.7,1.02-8.97,2.88
		c-0.17,1.21,1.61,2.57,3.95,3.59c2.34,1.02,5.2,1.77,8,2.49c25.67,6.64,51.58,13.07,78.04,18.71c13.27,2.83,26.67,5.47,40.18,7.82
		c3.38,0.59,6.76,1.16,10.15,1.71c1.87,0.3,6.9,1.5,8.47,1.13c3.87-0.91-4.77-4.4-6.63-5.25
		C205.03,106.22,192.48,101.9,180.03,97.62z"/>
	<path class="st1" d="M122.02,63.75c1.16,0.31,2.53,0.92,2.59,2.11c0.07,1.22-1.28,1.97-2.43,2.38c-9.91,3.53-20.76,4.4-31.11,2.5
		c-2.54-0.47-7.47-2.29-5.51-5.88c1.1-2.03,7.2-2.41,9.2-2.44C104.58,62.29,113.16,61.38,122.02,63.75z"/>
	<path class="st11" d="M265.9,123.26l71.51,40.02c1.6,0.9,0.42,3.33-1.28,2.62l-65.98-27.54l4.46,3.64c1.17,0.96-0.02,2.79-1.37,2.1
		l-51.64-26.39L265.9,123.26z"/>
</g>
</svg>
