<!-- Generator: Adobe Illustrator 23.1.1, SVG Export Plug-In  -->
<svg version="1.1" xmlns="http://www.w3.org/2000/svg" xmlns:xlink="http://www.w3.org/1999/xlink" x="0px" y="0px" width="59.54px"
	 height="8.93px" viewBox="0 0 59.54 8.93" style="enable-background:new 0 0 59.54 8.93;" xml:space="preserve">
<style type="text/css">
	.st0{fill:#FFFFFF;}
</style>
<defs>
</defs>
<g>
	<path class="st0" d="M4.26,4.76c0.13,0.16,0.25,0.32,0.37,0.47c0.12,0.16,0.22,0.32,0.3,0.49C5.01,5.9,5.07,6.09,5.1,6.3
		C5.13,6.51,5.12,6.74,5.08,7C5.01,7.37,4.89,7.68,4.71,7.91c-0.18,0.24-0.4,0.42-0.65,0.55C3.8,8.59,3.52,8.67,3.2,8.72
		S2.57,8.79,2.24,8.79c-0.33,0-0.66-0.01-1-0.03C0.91,8.74,0.6,8.72,0.31,8.71c-0.05,0-0.09,0-0.14,0S0.09,8.7,0.05,8.69
		C0,7.3-0.01,5.93,0.01,4.57c0.02-1.36,0.02-2.74,0-4.13l0.01-0.01c0.32-0.09,0.66-0.16,1.02-0.2s0.72-0.06,1.07-0.05
		S2.8,0.24,3.13,0.32c0.32,0.09,0.61,0.23,0.86,0.43c0.25,0.2,0.44,0.45,0.59,0.76c0.14,0.31,0.22,0.69,0.22,1.13
		c0,0.34-0.06,0.66-0.17,0.98C4.5,3.94,4.36,4.24,4.2,4.51c-0.03,0.06-0.04,0.1-0.02,0.13C4.19,4.68,4.22,4.72,4.26,4.76z
		 M3.13,6.76c0.09-0.12,0.13-0.26,0.13-0.43S3.22,6,3.17,5.87c-0.05-0.1-0.12-0.18-0.22-0.26c-0.1-0.08-0.2-0.13-0.3-0.15
		C2.5,5.42,2.34,5.4,2.18,5.39c-0.16,0-0.32-0.01-0.47-0.03C1.68,5.48,1.66,5.62,1.63,5.77C1.61,5.92,1.59,6.08,1.59,6.23
		c0,0.16,0.01,0.31,0.03,0.45c0.02,0.14,0.07,0.26,0.13,0.36l0.02,0.01c0.11,0,0.23,0,0.35,0.01s0.25,0,0.37-0.01
		s0.24-0.04,0.35-0.08S3.05,6.85,3.13,6.76z M3.12,3.34C3.18,3.24,3.22,3.13,3.26,3s0.03-0.26-0.04-0.38
		C3.16,2.49,3.08,2.39,2.98,2.32C2.88,2.25,2.77,2.2,2.64,2.17C2.48,2.14,2.31,2.12,2.13,2.12c-0.18,0-0.33,0.03-0.45,0.09
		C1.7,2.39,1.69,2.62,1.66,2.88C1.63,3.14,1.66,3.42,1.73,3.7c0.12,0.02,0.25,0.03,0.38,0.04c0.14,0.01,0.27,0,0.4-0.01
		C2.64,3.7,2.75,3.67,2.86,3.61C2.97,3.55,3.06,3.46,3.12,3.34z"/>
	<path class="st0" d="M10.51,2.76c0.01,0.05,0.01,0.1,0.02,0.14c0,0.05,0.01,0.1,0.01,0.14v0.12c-0.02,0.86-0.02,1.71,0.01,2.55
		c0.03,0.84,0.02,1.68-0.04,2.54c0,0.1,0,0.21-0.01,0.31c0,0.1-0.05,0.16-0.15,0.18h-0.14c-0.13,0-0.26-0.01-0.39-0.02
		C9.69,8.72,9.56,8.71,9.43,8.71c-0.09,0-0.17,0.01-0.26,0.02C9.09,8.74,9,8.75,8.92,8.75C8.86,8.73,8.82,8.7,8.8,8.65
		C8.78,8.6,8.77,8.55,8.77,8.48c0-0.09,0.01-0.16,0.02-0.22c0.02-0.06,0.02-0.12,0.02-0.2C8.63,8.26,8.39,8.42,8.09,8.56
		c-0.29,0.14-0.58,0.2-0.86,0.2c-0.31,0-0.58-0.11-0.8-0.32c-0.22-0.22-0.4-0.48-0.55-0.8S5.64,6.96,5.57,6.59
		c-0.07-0.38-0.1-0.72-0.1-1.04c0-0.4,0.05-0.77,0.16-1.1s0.25-0.63,0.43-0.87S6.45,3.13,6.7,2.99c0.25-0.14,0.51-0.21,0.79-0.22
		c0.14,0,0.28,0,0.4,0.01S8.13,2.8,8.23,2.84s0.2,0.09,0.28,0.17c0.08,0.08,0.15,0.18,0.2,0.32c-0.01-0.13,0-0.24,0.02-0.33
		C8.75,2.9,8.76,2.81,8.76,2.71c0-0.01,0.03-0.01,0.08-0.02c0.05,0,0.11,0,0.17,0S9.14,2.7,9.2,2.7s0.11,0,0.13,0
		c0.14,0.01,0.3,0.02,0.5,0.02C10.03,2.73,10.26,2.74,10.51,2.76z M7.02,5.15c-0.03,0.1-0.05,0.21-0.06,0.32S6.95,5.68,6.95,5.78
		c0,0.36,0.09,0.67,0.28,0.92s0.45,0.38,0.79,0.38c0.2,0,0.35-0.03,0.45-0.1c0.1-0.07,0.17-0.16,0.22-0.29s0.07-0.28,0.07-0.46
		c0-0.18,0.01-0.38,0.01-0.61c0-0.28,0-0.5-0.01-0.67c0-0.16-0.02-0.29-0.06-0.38C8.66,4.5,8.6,4.44,8.51,4.42
		C8.43,4.39,8.3,4.38,8.14,4.38c-0.33,0-0.59,0.08-0.77,0.23C7.17,4.77,7.06,4.95,7.02,5.15z"/>
	<path class="st0" d="M16.01,6.43c-0.02,0.21-0.03,0.41-0.05,0.61S15.92,7.43,15.9,7.6c-0.02,0.17-0.05,0.32-0.09,0.44
		s-0.08,0.21-0.14,0.27c-0.14,0.19-0.31,0.33-0.53,0.41c-0.22,0.08-0.46,0.13-0.71,0.15c-0.26,0.02-0.52,0.02-0.79,0
		c-0.27-0.02-0.52-0.03-0.74-0.03c-0.41-0.07-0.75-0.25-1.03-0.53c-0.22-0.19-0.36-0.43-0.44-0.72c-0.08-0.29-0.13-0.59-0.14-0.91
		s-0.02-0.63-0.01-0.95c0.01-0.32,0-0.61-0.03-0.88c0-0.29,0.02-0.58,0.07-0.86c0.01-0.09,0.04-0.21,0.08-0.36
		c0.05-0.15,0.08-0.27,0.11-0.35c0.06-0.12,0.15-0.22,0.27-0.31c0.12-0.09,0.27-0.16,0.43-0.22c0.16-0.06,0.34-0.1,0.53-0.13
		s0.38-0.04,0.57-0.04c0.16,0.02,0.31,0.02,0.46,0.01c0.15-0.01,0.31-0.01,0.47,0.01c0.26,0.02,0.5,0.06,0.73,0.14
		s0.43,0.2,0.6,0.36c0.11,0.08,0.2,0.19,0.26,0.32c0.06,0.14,0.11,0.3,0.14,0.48c0.03,0.18,0.05,0.39,0.05,0.62
		c0,0.23,0.01,0.47,0.02,0.74c-0.1,0.02-0.22,0.04-0.35,0.04c-0.13,0-0.27,0-0.41-0.01s-0.28-0.02-0.41-0.04
		c-0.13-0.02-0.25-0.03-0.35-0.05c-0.04-0.28-0.16-0.5-0.35-0.65c-0.19-0.16-0.44-0.19-0.76-0.11C13.24,4.49,13.1,4.58,13,4.7
		c-0.05,0.03-0.08,0.11-0.11,0.24c-0.03,0.25-0.05,0.5-0.05,0.76c0,0.26-0.01,0.52-0.02,0.8c-0.02,0.18,0.03,0.33,0.14,0.43
		s0.24,0.17,0.39,0.21c0.15,0.04,0.31,0.04,0.47,0.02s0.29-0.06,0.38-0.13c0.08-0.06,0.14-0.15,0.19-0.28
		c0.04-0.13,0.08-0.25,0.1-0.35c0.08,0.01,0.19,0.01,0.32,0.01c0.14,0,0.28-0.01,0.43-0.02c0.15-0.01,0.3-0.01,0.43-0.01
		C15.81,6.39,15.92,6.41,16.01,6.43z"/>
	<path class="st0" d="M18.35,0.02v2.63c0,0.26-0.01,0.54-0.02,0.84c-0.01,0.3-0.01,0.54,0.02,0.72c0.14-0.12,0.25-0.25,0.35-0.4
		s0.19-0.29,0.28-0.44c0.09-0.15,0.18-0.3,0.27-0.45c0.09-0.15,0.2-0.3,0.32-0.43c0.1,0.04,0.24,0.06,0.41,0.07
		c0.17,0,0.34,0,0.52,0c0.18,0,0.36-0.01,0.53-0.02c0.18-0.01,0.32-0.01,0.43-0.01c-0.3,0.46-0.62,0.91-0.96,1.35
		c-0.34,0.44-0.68,0.89-1.02,1.34c0.36,0.58,0.72,1.16,1.09,1.73c0.36,0.57,0.7,1.17,1,1.78c-0.11,0-0.25,0.01-0.43,0.02
		c-0.17,0.01-0.35,0.02-0.53,0.03s-0.36,0.01-0.53,0c-0.17-0.01-0.32-0.02-0.44-0.05c-0.12-0.19-0.23-0.39-0.33-0.59
		c-0.1-0.2-0.2-0.4-0.29-0.59c-0.1-0.2-0.2-0.39-0.31-0.58c-0.11-0.19-0.23-0.38-0.37-0.55c0,0.14,0,0.31,0.01,0.5
		c0.01,0.19,0.01,0.39,0.01,0.6s0,0.42-0.01,0.63c-0.01,0.21-0.03,0.41-0.06,0.58c-0.09-0.01-0.2-0.01-0.33-0.01
		s-0.27,0.01-0.41,0.02c-0.14,0.01-0.29,0.01-0.44,0.01s-0.28-0.01-0.4-0.02c-0.06-1.49-0.07-2.95-0.04-4.38
		c0.03-1.43,0.04-2.88,0.04-4.33c0.12,0,0.25,0,0.4-0.01c0.15,0,0.3-0.01,0.44-0.01S17.85,0,17.99,0C18.12,0,18.24,0.01,18.35,0.02z
		"/>
	<path class="st0" d="M26.29,0.53v1.61c0,0.1,0,0.21,0.01,0.32s0.01,0.23,0.01,0.35c0.25-0.01,0.51-0.02,0.79-0.04
		s0.62-0.04,1.03-0.06c0.06,0.06,0.09,0.16,0.1,0.28c0.01,0.12,0.01,0.26,0,0.4c-0.01,0.14-0.02,0.29-0.03,0.44
		c-0.01,0.15-0.01,0.27,0.01,0.38h-1.86c0,0.43,0,0.85,0,1.27s0,0.8,0.01,1.16c0.08,0.11,0.2,0.2,0.35,0.26
		c0.15,0.06,0.32,0.11,0.49,0.15c0.18,0.04,0.35,0.06,0.53,0.07c0.18,0.01,0.34,0.01,0.47,0c0.02,0.11,0.03,0.24,0.05,0.37
		c0.02,0.14,0.03,0.28,0.04,0.42c0.01,0.14,0.01,0.29-0.01,0.43c-0.01,0.14-0.04,0.28-0.08,0.4c-0.32,0.02-0.65,0.01-1-0.01
		c-0.34-0.02-0.67-0.07-0.97-0.14c-0.3-0.07-0.57-0.18-0.81-0.32C25.17,8.12,25,7.93,24.9,7.68c-0.1-0.62-0.16-1.2-0.18-1.75
		c-0.02-0.55-0.02-1.11-0.01-1.7c-0.13,0.01-0.26,0.01-0.4,0.01c-0.14,0-0.29,0-0.46,0l0.04-1.46c0.16,0.01,0.31,0.01,0.45,0.01
		c0.14,0,0.27,0,0.4,0c0-0.18,0-0.37-0.01-0.57c-0.01-0.2-0.01-0.41-0.01-0.62s0-0.41,0.01-0.6s0.01-0.36,0.03-0.52
		c0.1-0.02,0.22-0.02,0.34-0.01s0.25,0.02,0.39,0.03c0.14,0.01,0.27,0.02,0.41,0.03C26.02,0.55,26.16,0.54,26.29,0.53z"/>
	<path class="st0" d="M28.9,3.26c0.06-0.12,0.15-0.22,0.27-0.31c0.12-0.09,0.27-0.16,0.43-0.22c0.16-0.06,0.34-0.1,0.53-0.13
		s0.38-0.04,0.57-0.04c0.16,0.02,0.31,0.02,0.46,0.01c0.15-0.01,0.31-0.01,0.47,0.01c0.26,0.02,0.5,0.07,0.73,0.15
		s0.43,0.21,0.6,0.37c0.11,0.07,0.2,0.19,0.26,0.35S33.34,3.79,33.37,4c0.03,0.21,0.05,0.44,0.06,0.7c0.01,0.25,0.02,0.51,0.02,0.77
		c-0.01,0.23-0.02,0.5-0.03,0.79c-0.01,0.3-0.03,0.58-0.06,0.85c-0.03,0.27-0.06,0.52-0.11,0.73c-0.04,0.22-0.11,0.36-0.19,0.44
		c-0.14,0.19-0.31,0.33-0.53,0.41c-0.22,0.08-0.46,0.13-0.71,0.15c-0.26,0.02-0.52,0.02-0.79,0s-0.52-0.03-0.74-0.03
		c-0.41-0.07-0.75-0.25-1.03-0.53c-0.22-0.19-0.36-0.43-0.44-0.72c-0.08-0.29-0.13-0.59-0.14-0.91s-0.02-0.63-0.01-0.95
		c0.01-0.32,0.01-0.61-0.02-0.88c0-0.14,0-0.29,0.01-0.43c0.01-0.14,0.02-0.29,0.05-0.44c0.01-0.09,0.04-0.21,0.08-0.35
		C28.84,3.47,28.87,3.35,28.9,3.26z M30.4,4.68c-0.05,0.03-0.08,0.11-0.11,0.24c-0.03,0.26-0.05,0.51-0.05,0.76
		c0,0.25-0.01,0.52-0.02,0.8c-0.01,0.18,0.04,0.33,0.14,0.43s0.23,0.17,0.38,0.2s0.3,0.04,0.46,0.02c0.16-0.02,0.29-0.06,0.4-0.11
		c0.14-0.06,0.23-0.2,0.28-0.4c0.03-0.26,0.06-0.51,0.08-0.77c0.02-0.26,0.01-0.51-0.04-0.74c-0.04-0.28-0.16-0.48-0.35-0.61
		s-0.44-0.16-0.76-0.08C30.64,4.46,30.5,4.55,30.4,4.68z"/>
	<path class="st0" d="M40.87,4.76c0.13,0.16,0.25,0.32,0.37,0.47c0.12,0.16,0.22,0.32,0.3,0.49c0.08,0.17,0.14,0.36,0.17,0.57
		c0.03,0.21,0.02,0.44-0.02,0.7c-0.06,0.38-0.19,0.68-0.37,0.92c-0.18,0.24-0.4,0.42-0.65,0.55c-0.26,0.13-0.54,0.21-0.85,0.26
		s-0.63,0.07-0.97,0.07c-0.33,0-0.66-0.01-1-0.03c-0.33-0.02-0.64-0.04-0.93-0.05c-0.05,0-0.09,0-0.14,0S36.7,8.7,36.66,8.69
		c-0.05-1.38-0.06-2.76-0.04-4.12c0.02-1.36,0.02-2.74,0-4.13l0.01-0.01c0.32-0.09,0.66-0.16,1.02-0.2s0.72-0.06,1.07-0.05
		s0.69,0.07,1.01,0.16c0.32,0.09,0.61,0.23,0.86,0.43c0.25,0.2,0.44,0.45,0.59,0.76c0.14,0.31,0.22,0.69,0.22,1.13
		c0,0.34-0.06,0.66-0.17,0.98c-0.12,0.32-0.25,0.62-0.41,0.89c-0.03,0.06-0.04,0.1-0.02,0.13C40.8,4.68,40.83,4.72,40.87,4.76z
		 M39.74,6.76c0.09-0.12,0.13-0.26,0.13-0.43S39.84,6,39.78,5.87c-0.05-0.1-0.12-0.18-0.22-0.26c-0.1-0.08-0.2-0.13-0.3-0.15
		c-0.15-0.04-0.31-0.06-0.47-0.07c-0.16,0-0.32-0.01-0.47-0.03c-0.03,0.12-0.06,0.26-0.08,0.41c-0.02,0.15-0.04,0.31-0.04,0.46
		c0,0.16,0.01,0.31,0.03,0.45c0.02,0.14,0.07,0.26,0.13,0.36l0.02,0.01c0.11,0,0.23,0,0.35,0.01s0.25,0,0.37-0.01
		s0.24-0.04,0.35-0.08S39.66,6.85,39.74,6.76z M39.73,3.34c0.06-0.1,0.1-0.21,0.14-0.34s0.03-0.26-0.04-0.38
		c-0.06-0.13-0.15-0.23-0.25-0.29c-0.1-0.07-0.21-0.12-0.34-0.15c-0.16-0.03-0.33-0.05-0.51-0.05c-0.18,0-0.33,0.03-0.45,0.09
		c0.02,0.18,0.01,0.41-0.02,0.67c-0.03,0.26-0.01,0.54,0.07,0.82c0.12,0.02,0.25,0.03,0.38,0.04c0.14,0.01,0.27,0,0.4-0.01
		c0.13-0.02,0.25-0.05,0.35-0.11C39.58,3.55,39.67,3.46,39.73,3.34z"/>
	<path class="st0" d="M43.75,2.7h0.2v0.04C43.95,3.7,43.93,4.69,43.9,5.7c-0.03,1.01-0.01,2,0.04,2.96
		c-0.04,0.05-0.14,0.07-0.3,0.08c-0.16,0-0.33,0-0.52,0s-0.37-0.01-0.53-0.02c-0.17-0.01-0.28,0-0.34,0.01
		c0.04-0.5,0.06-1.02,0.05-1.54c0-0.52-0.01-1.04-0.03-1.55c-0.02-0.51-0.02-1.02-0.02-1.52s0.02-0.99,0.07-1.46V2.66
		c0.03-0.01,0.09-0.01,0.16,0c0.08,0.01,0.13,0.01,0.17,0.01c0.1,0.01,0.25,0.02,0.43,0.02C43.28,2.71,43.5,2.71,43.75,2.7z
		 M42.28,0.08l1.63,0.04c0,0.05,0,0.13,0.01,0.26c0,0.12,0.01,0.26,0.01,0.41c0,0.15,0.01,0.3,0.01,0.46c0,0.16,0.01,0.29,0.01,0.41
		c-0.03,0.05-0.11,0.08-0.22,0.1c-0.12,0.02-0.25,0.02-0.41,0.02c-0.16,0-0.32-0.01-0.5-0.02c-0.18-0.01-0.34-0.01-0.49-0.01
		c0-0.23-0.01-0.47-0.03-0.73S42.27,0.45,42.28,0.08z"/>
	<path class="st0" d="M46.42,3.16c0.03-0.02,0.11-0.05,0.22-0.1c0.12-0.05,0.23-0.09,0.34-0.13c0.15-0.05,0.32-0.09,0.52-0.11
		c0.19-0.03,0.37-0.05,0.54-0.05c0.17-0.01,0.31-0.01,0.43-0.01c0.12,0,0.17,0.01,0.17,0.02c0,0.27,0,0.51-0.01,0.72
		c0,0.21-0.01,0.39-0.01,0.56s0,0.31,0,0.45c0,0.14,0,0.26,0.01,0.38l-0.11-0.04c-0.04-0.02-0.08-0.03-0.13-0.04
		c-0.04-0.01-0.09-0.03-0.13-0.04c-0.1-0.02-0.19-0.04-0.29-0.06c-0.1-0.02-0.15-0.02-0.16-0.02c-0.22-0.02-0.41-0.04-0.59-0.04
		c-0.18,0-0.34,0.03-0.47,0.08c-0.13,0.06-0.23,0.14-0.31,0.26c-0.07,0.12-0.1,0.29-0.1,0.52c0.01,0.28,0.02,0.54,0.02,0.79
		c0.01,0.25,0.01,0.5,0.01,0.75s0,0.51,0.01,0.77c0,0.26,0.01,0.54,0.01,0.83V8.7c-0.14,0.04-0.26,0.06-0.37,0.07
		c-0.11,0.01-0.23,0.01-0.35,0.01c-0.12,0-0.25-0.01-0.39-0.02c-0.14-0.01-0.31,0-0.5,0.01c0-0.98-0.01-1.97-0.03-2.95
		s-0.01-2,0.02-3.06c0.1,0.01,0.18,0.01,0.24,0.02s0.12,0.01,0.18,0.01c0.06,0,0.12,0,0.18-0.01s0.14-0.01,0.24-0.02
		c0.03,0,0.09,0,0.17-0.01c0.08-0.01,0.17-0.02,0.26-0.02c0.09-0.01,0.17-0.01,0.24-0.01c0.07,0,0.1,0.01,0.1,0.03
		c0,0.06,0,0.11,0,0.14c0,0.03,0,0.06,0,0.08c0,0.02,0,0.04,0.01,0.07C46.41,3.06,46.42,3.1,46.42,3.16z"/>
	<path class="st0" d="M52.32,0.43V0.3c0-0.01,0.05-0.02,0.16-0.03c0.11-0.01,0.24-0.02,0.4-0.02c0.16,0,0.32,0,0.5,0
		c0.18,0,0.33,0.02,0.46,0.04v0.79c0,1.34,0.02,2.66,0.06,3.96c0.04,1.3,0.04,2.53,0.01,3.68c-0.25,0-0.52,0.01-0.82,0.02
		c-0.3,0.01-0.56,0-0.8-0.03c-0.01-0.02-0.01-0.04-0.01-0.08c0-0.08,0-0.14-0.01-0.19c0-0.05-0.01-0.12-0.01-0.2
		c-0.02-0.04-0.03-0.07-0.05-0.09c-0.02-0.02-0.04-0.01-0.07,0.04c-0.12,0.24-0.28,0.39-0.48,0.46c-0.2,0.07-0.41,0.09-0.64,0.05
		c-0.46-0.03-0.82-0.15-1.08-0.35s-0.46-0.46-0.59-0.78c-0.13-0.32-0.22-0.67-0.26-1.06s-0.07-0.79-0.08-1.19
		c0-0.28,0.02-0.55,0.05-0.82c0.04-0.26,0.09-0.51,0.17-0.73c0.08-0.22,0.18-0.41,0.3-0.56c0.12-0.16,0.27-0.27,0.45-0.33
		c0.22-0.08,0.45-0.13,0.71-0.15c0.26-0.02,0.51-0.02,0.74,0s0.43,0.06,0.59,0.11c0.16,0.06,0.25,0.12,0.26,0.19
		c-0.01-0.38-0.01-0.68-0.01-0.91s0-0.42,0-0.56s0-0.25,0.01-0.32c0-0.08,0.01-0.15,0.01-0.22c0-0.07,0.01-0.14,0.01-0.23
		S52.31,0.59,52.32,0.43z M50.46,4.96c-0.04,0.11-0.06,0.23-0.07,0.35c-0.01,0.12-0.01,0.24-0.01,0.35c0,0.2,0.02,0.39,0.07,0.58
		c0.05,0.19,0.12,0.36,0.22,0.5c0.1,0.15,0.21,0.27,0.35,0.35c0.14,0.09,0.29,0.13,0.46,0.13c0.2,0,0.36-0.04,0.47-0.13
		c0.12-0.09,0.2-0.21,0.26-0.36c0.06-0.15,0.1-0.33,0.11-0.55c0.01-0.21,0.02-0.45,0.02-0.7c0-0.31-0.01-0.56-0.02-0.74
		c-0.01-0.18-0.04-0.32-0.09-0.41C52.18,4.24,52.1,4.17,52,4.15c-0.1-0.03-0.23-0.04-0.4-0.04c-0.33,0-0.59,0.07-0.79,0.22
		C50.62,4.46,50.5,4.68,50.46,4.96z"/>
	<path class="st0" d="M59.54,4.58c-0.26,0.04-0.54,0.06-0.85,0.07c-0.31,0.01-0.6-0.02-0.87-0.07c0.02-0.1,0.01-0.19-0.03-0.29
		c-0.04-0.1-0.11-0.18-0.19-0.25c-0.08-0.07-0.18-0.13-0.29-0.16S57.1,3.83,57,3.84c-0.18,0.03-0.32,0.1-0.41,0.21
		s-0.14,0.23-0.14,0.35s0.05,0.26,0.14,0.38c0.1,0.13,0.24,0.22,0.42,0.29c0.45,0.06,0.87,0.15,1.26,0.26s0.68,0.28,0.86,0.52
		c0.18,0.29,0.28,0.58,0.32,0.88s-0.02,0.67-0.17,1.11c-0.18,0.39-0.47,0.67-0.86,0.84c-0.39,0.17-0.82,0.25-1.28,0.24
		c-0.41,0.02-0.78-0.02-1.1-0.11s-0.61-0.22-0.85-0.4c-0.24-0.18-0.42-0.39-0.55-0.65s-0.2-0.54-0.2-0.86V6.88V6.85
		c0.26-0.03,0.56-0.04,0.9-0.03c0.34,0.01,0.63,0.02,0.88,0.02c0.01,0.18,0.09,0.33,0.26,0.45c0.16,0.12,0.34,0.18,0.52,0.2
		c0.18,0.02,0.35-0.01,0.5-0.1c0.15-0.09,0.22-0.25,0.22-0.48c0.02-0.19-0.02-0.34-0.13-0.43c-0.11-0.1-0.26-0.17-0.44-0.22
		c-0.18-0.05-0.39-0.1-0.62-0.14c-0.23-0.04-0.46-0.11-0.68-0.2c-0.45-0.15-0.77-0.39-0.98-0.71c-0.2-0.32-0.3-0.66-0.29-1.01
		c0.01-0.35,0.12-0.67,0.34-0.97c0.21-0.3,0.51-0.5,0.91-0.6c0.15-0.04,0.34-0.07,0.56-0.1c0.22-0.02,0.45-0.04,0.7-0.04
		s0.5,0.01,0.74,0.04c0.25,0.03,0.48,0.07,0.68,0.11c0.38,0.16,0.64,0.41,0.8,0.76C59.46,3.76,59.54,4.15,59.54,4.58z"/>
</g>
</svg>
