<!-- Generator: Adobe Illustrator 23.1.1, SVG Export Plug-In  -->
<svg version="1.1" xmlns="http://www.w3.org/2000/svg" xmlns:xlink="http://www.w3.org/1999/xlink" x="0px" y="0px" width="75.07px"
	 height="122.78px" viewBox="0 0 75.07 122.78" style="enable-background:new 0 0 75.07 122.78;" xml:space="preserve">
<style type="text/css">
	.st0{fill:#784D2A;}
	.st1{fill:url(#SVGID_1_);}
	.st2{fill:url(#SVGID_2_);}
</style>
<defs>
</defs>
<g>
	<g>
		<path class="st0" d="M1.2,109.95c0-10.72-0.23-26.45-0.68-47.2C0.17,49.76,0,36.08,0,21.72C0,12.59,0.05,5.78,0.14,1.29
			c0.01-0.62,0.52-1.12,1.15-1.12l3.67,0L9.37,0c0.02,0,0.04,0,0.06,0l17.99,0.32c0.59,0.01,1.06,0.48,1.09,1.07l0,0.05
			c0.04,0.95,1.13,1.4,1.87,0.82C32.3,0.75,34.66,0,37.45,0c1.94,0,4.1,0.17,6.5,0.51C52.5,1.31,59,4.05,63.44,8.72
			c4.45,4.68,7.41,10.29,8.89,16.84c1.48,6.56,2.39,14.56,2.74,24.03c0,8.55-1.31,16.1-3.93,22.66c-2.62,6.56-6.5,10.86-11.63,12.91
			c-4.33,1.59-9.75,2.39-16.25,2.39c-5.48,0-9.97-0.39-13.44-1.18c-0.73-0.16-1.41,0.4-1.39,1.15L28.56,92
			c0.11,2.05,0.17,4.79,0.17,8.21c0,2.05-0.11,5.91-0.34,11.59c0,0.02,0,0.05,0,0.07c-0.21,2.03-0.38,4.85-0.49,8.47
			c-0.01,0.49-0.32,0.92-0.78,1.07c-0.96,0.32-2.59,0.6-4.88,0.86c-3.08,0.34-6.39,0.51-9.92,0.51c-4.43,0-7.84-0.27-10.22-0.8
			c-0.52-0.12-0.89-0.58-0.89-1.12L1.2,109.95z M46.85,29.67c-2.39-4.27-5.53-6.41-9.4-6.41c-4.22,0-9.75,15.62-9.75,23.94
			c0,6.16,0.14,10.43,0.43,12.83c0.28,2.39,0.94,3.99,1.97,4.79c1.03,0.8,2.85,1.2,5.47,1.2c3.87,0,7.01-1,9.4-2.99
			c2.39-1.99,3.88-4.87,4.45-8.64c0.34-2.28,0.6-4.1,0.77-5.47c0.17-1.37,0.26-2.74,0.26-4.1C50.45,38.99,49.25,33.94,46.85,29.67z"
			/>
	</g>
	<linearGradient id="SVGID_1_" gradientUnits="userSpaceOnUse" x1="26.3091" y1="43.8698" x2="55.9165" y2="43.8698">
		<stop  offset="1" style="stop-color:#D0ECFE"/>
		<stop  offset="1" style="stop-color:#98E9FF"/>
	</linearGradient>
	<path class="st1" d="M32.06,21.01c-2.74,1.15-4.58,3.76-4.82,6.72c-0.84,10.22-2.39,35.56,2.38,38.75
		c3.29,2.19,8.69,1.98,12.89,1.34c4.08-0.62,7.58-3.24,9.33-6.97c3.27-6.99,7.01-19.73,0.5-33.99c-1.19-2.6-3.25-4.75-5.87-5.88
		C43.14,19.54,38.06,18.48,32.06,21.01z"/>
</g>
</svg>
