<!-- Generator: Adobe Illustrator 23.1.1, SVG Export Plug-In  -->
<svg version="1.1" xmlns="http://www.w3.org/2000/svg" xmlns:xlink="http://www.w3.org/1999/xlink" x="0px" y="0px" width="67.19px"
	 height="10.98px" viewBox="0 0 67.19 10.98" style="enable-background:new 0 0 67.19 10.98;" xml:space="preserve">
<defs>
</defs>
<g>
	<path d="M5.32,5.85c0.16,0.2,0.31,0.4,0.46,0.59s0.27,0.4,0.38,0.62c0.1,0.21,0.18,0.45,0.22,0.71C6.41,8.03,6.4,8.32,6.34,8.64
		C6.26,9.11,6.11,9.49,5.89,9.79c-0.22,0.29-0.5,0.52-0.82,0.68C4.75,10.63,4.4,10.74,4,10.79s-0.79,0.08-1.21,0.09
		s-0.83-0.01-1.25-0.04c-0.42-0.03-0.8-0.05-1.16-0.06c-0.06,0-0.12,0-0.17,0s-0.11-0.01-0.16-0.03C0,9.02-0.02,7.31,0.02,5.6
		c0.03-1.71,0.03-3.43,0-5.17l0.01-0.02c0.4-0.11,0.83-0.19,1.27-0.25C1.75,0.1,2.2,0.08,2.64,0.1C3.08,0.12,3.5,0.19,3.91,0.3
		c0.41,0.11,0.76,0.29,1.07,0.53c0.31,0.25,0.55,0.56,0.73,0.94C5.9,2.16,5.98,2.64,5.98,3.19c0,0.42-0.07,0.83-0.22,1.23
		C5.62,4.83,5.45,5.2,5.25,5.54C5.21,5.6,5.2,5.66,5.22,5.7C5.24,5.74,5.27,5.79,5.32,5.85z M3.92,8.34
		C4.02,8.19,4.08,8.01,4.07,7.8S4.03,7.4,3.96,7.23C3.9,7.11,3.81,7,3.69,6.91C3.57,6.81,3.44,6.75,3.31,6.72
		C3.13,6.67,2.93,6.64,2.73,6.64c-0.2,0-0.4-0.02-0.58-0.04C2.1,6.75,2.07,6.92,2.04,7.11C2.01,7.3,1.99,7.49,1.99,7.69
		S2,8.07,2.02,8.25S2.11,8.58,2.19,8.7l0.03,0.02c0.14,0,0.29,0,0.44,0.01c0.15,0,0.31,0,0.46-0.02c0.15-0.02,0.3-0.05,0.44-0.1
		C3.7,8.55,3.81,8.46,3.92,8.34z M3.9,4.06c0.07-0.12,0.13-0.26,0.18-0.42c0.05-0.16,0.03-0.32-0.05-0.48S3.85,2.88,3.73,2.8
		C3.6,2.71,3.46,2.65,3.3,2.61C3.1,2.57,2.89,2.55,2.66,2.54c-0.23,0-0.41,0.03-0.56,0.11C2.12,2.89,2.11,3.17,2.08,3.5
		C2.04,3.82,2.07,4.17,2.16,4.52c0.15,0.02,0.31,0.04,0.48,0.04c0.17,0.01,0.33,0,0.49-0.02S3.44,4.48,3.58,4.4
		C3.71,4.33,3.82,4.21,3.9,4.06z"/>
	<path d="M8.92,3.27h0.25v0.04C9.17,4.52,9.15,5.76,9.11,7.02c-0.04,1.26-0.02,2.5,0.05,3.71c-0.05,0.06-0.17,0.09-0.38,0.1
		s-0.42,0-0.65,0s-0.46-0.01-0.67-0.02c-0.21-0.01-0.35,0-0.42,0.02C7.1,10.19,7.12,9.54,7.12,8.9C7.11,8.25,7.1,7.6,7.08,6.96
		c-0.02-0.64-0.03-1.27-0.03-1.9s0.03-1.23,0.09-1.82V3.23c0.04-0.01,0.11-0.01,0.2,0c0.09,0.01,0.17,0.01,0.22,0.01
		C7.69,3.25,7.87,3.26,8.1,3.27S8.6,3.28,8.92,3.27z M7.08,0l2.04,0.04c0,0.06,0,0.17,0.01,0.32c0.01,0.15,0.01,0.32,0.02,0.51
		s0.01,0.38,0.02,0.57c0,0.2,0.01,0.37,0.01,0.52c-0.04,0.06-0.13,0.1-0.28,0.12S8.57,2.11,8.38,2.11c-0.19,0-0.4-0.02-0.62-0.03
		C7.53,2.06,7.33,2.06,7.14,2.07c0-0.29-0.01-0.59-0.04-0.91S7.07,0.46,7.08,0z"/>
	<path d="M12.25,3.84c0.04-0.02,0.13-0.06,0.28-0.12c0.15-0.06,0.29-0.11,0.43-0.16c0.19-0.06,0.41-0.11,0.65-0.14
		c0.24-0.04,0.47-0.06,0.68-0.07c0.21-0.01,0.39-0.01,0.53-0.01c0.15,0.01,0.22,0.01,0.22,0.02c0,0.34,0,0.64-0.01,0.9
		c0,0.26-0.01,0.49-0.01,0.7s0,0.39,0,0.56s0,0.33,0.02,0.48l-0.14-0.04c-0.05-0.02-0.1-0.04-0.16-0.05
		c-0.06-0.02-0.11-0.03-0.16-0.05c-0.12-0.03-0.24-0.06-0.37-0.08c-0.13-0.02-0.19-0.03-0.2-0.03c-0.27-0.03-0.52-0.05-0.74-0.05
		s-0.42,0.04-0.58,0.11c-0.17,0.07-0.29,0.18-0.38,0.33c-0.09,0.15-0.13,0.37-0.12,0.65c0.01,0.35,0.02,0.68,0.03,0.99
		c0.01,0.31,0.02,0.62,0.02,0.94s0,0.64,0.01,0.96c0.01,0.33,0.01,0.67,0.01,1.04v0.06c-0.17,0.05-0.33,0.08-0.46,0.09
		c-0.14,0.01-0.29,0.01-0.44,0.01c-0.15-0.01-0.31-0.01-0.49-0.02c-0.17-0.01-0.38,0-0.62,0.02c0-1.23-0.01-2.46-0.04-3.69
		c-0.03-1.23-0.02-2.5,0.02-3.83c0.12,0.01,0.22,0.02,0.3,0.02c0.08,0,0.15,0.01,0.23,0.01c0.07,0,0.14,0,0.23-0.01
		c0.08-0.01,0.18-0.01,0.3-0.02c0.04,0,0.11,0,0.22-0.01c0.11-0.01,0.22-0.02,0.33-0.03c0.12-0.01,0.21-0.01,0.3-0.01
		c0.08,0,0.13,0.02,0.13,0.04c0,0.08,0,0.14,0,0.18c0,0.04,0,0.07,0,0.1s0,0.05,0.01,0.08S12.25,3.77,12.25,3.84z"/>
	<path d="M19.63,0.44V0.27c0-0.01,0.07-0.02,0.2-0.04c0.13-0.02,0.3-0.02,0.49-0.03c0.2,0,0.4,0,0.62,0c0.22,0,0.41,0.02,0.57,0.05
		v0.99c0,1.67,0.02,3.32,0.07,4.95c0.05,1.63,0.05,3.17,0.02,4.6c-0.31,0-0.65,0.01-1.02,0.02c-0.37,0.02-0.71,0-1-0.04
		c-0.01-0.02-0.02-0.06-0.02-0.1c0-0.1,0-0.18-0.01-0.24c-0.01-0.06-0.01-0.15-0.01-0.25c-0.02-0.05-0.04-0.09-0.07-0.11
		c-0.02-0.02-0.05-0.01-0.08,0.05c-0.15,0.3-0.35,0.49-0.6,0.58s-0.52,0.11-0.79,0.07c-0.57-0.04-1.02-0.19-1.35-0.44
		c-0.33-0.26-0.58-0.58-0.74-0.98c-0.17-0.4-0.28-0.84-0.33-1.33c-0.06-0.49-0.09-0.98-0.1-1.48c0-0.35,0.02-0.69,0.07-1.02
		c0.05-0.33,0.12-0.63,0.21-0.91c0.1-0.27,0.22-0.51,0.38-0.71c0.16-0.19,0.34-0.33,0.56-0.41c0.27-0.1,0.57-0.16,0.89-0.19
		c0.33-0.02,0.63-0.02,0.92,0c0.29,0.02,0.53,0.07,0.73,0.14c0.2,0.07,0.31,0.15,0.33,0.24c-0.01-0.47-0.02-0.85-0.02-1.14
		c0-0.29,0-0.52,0-0.7s0-0.31,0.01-0.41c0-0.09,0.01-0.18,0.02-0.27c0-0.08,0.01-0.18,0.02-0.28C19.62,0.79,19.62,0.64,19.63,0.44z
		 M17.31,6.09c-0.05,0.14-0.08,0.29-0.09,0.44c-0.01,0.15-0.02,0.29-0.02,0.44c0,0.25,0.03,0.49,0.09,0.73
		c0.06,0.23,0.15,0.44,0.27,0.63C17.68,8.5,17.83,8.65,18,8.76c0.17,0.11,0.36,0.17,0.57,0.17c0.25,0,0.45-0.05,0.59-0.17
		c0.15-0.11,0.25-0.26,0.33-0.45s0.12-0.42,0.13-0.68c0.02-0.26,0.02-0.56,0.02-0.88c0-0.39-0.01-0.7-0.02-0.92
		c-0.01-0.23-0.05-0.4-0.11-0.52s-0.15-0.2-0.28-0.23c-0.13-0.04-0.29-0.05-0.5-0.05c-0.41,0-0.74,0.09-0.98,0.27
		S17.36,5.74,17.31,6.09z"/>
	<path d="M32.07,3.71h-0.01c-0.35,0.06-0.73,0.1-1.12,0.11c-0.4,0.02-0.78-0.03-1.12-0.13c0.06-0.27,0-0.5-0.17-0.67
		c-0.17-0.18-0.38-0.29-0.62-0.35c-0.24-0.05-0.47-0.02-0.7,0.08s-0.36,0.29-0.4,0.57c-0.02,0.07-0.03,0.14-0.02,0.2
		c0,0.06,0.01,0.13,0.02,0.2c0.08,0.24,0.21,0.4,0.39,0.48c0.18,0.08,0.38,0.14,0.58,0.17c0.53,0.06,1.02,0.23,1.48,0.51
		s0.83,0.64,1.12,1.06c0.18,0.23,0.31,0.48,0.4,0.74c0.09,0.27,0.14,0.54,0.16,0.82S32.06,8.06,32,8.35
		c-0.06,0.28-0.14,0.56-0.26,0.82c-0.12,0.31-0.28,0.58-0.48,0.79c-0.2,0.22-0.43,0.4-0.68,0.54c-0.26,0.14-0.53,0.24-0.83,0.31
		s-0.6,0.09-0.91,0.08c-0.44-0.01-0.88-0.09-1.31-0.23c-0.44-0.14-0.82-0.35-1.16-0.61c-0.34-0.26-0.61-0.58-0.81-0.95
		c-0.2-0.38-0.29-0.8-0.25-1.28V7.77V7.73c0.35-0.05,0.73-0.06,1.15-0.04s0.8,0.03,1.14,0.02c0.02,0.32,0.15,0.56,0.38,0.72
		c0.23,0.16,0.48,0.24,0.75,0.23s0.5-0.09,0.69-0.26c0.2-0.17,0.26-0.43,0.2-0.78c-0.03-0.24-0.12-0.43-0.27-0.58
		s-0.33-0.26-0.53-0.35s-0.43-0.16-0.67-0.2c-0.24-0.04-0.46-0.09-0.67-0.13c-0.2-0.04-0.39-0.1-0.56-0.19
		c-0.17-0.09-0.32-0.2-0.46-0.31C26,5.41,25.7,4.93,25.57,4.4c-0.13-0.53-0.14-1.04-0.02-1.54s0.35-0.96,0.68-1.37
		c0.33-0.41,0.74-0.71,1.22-0.92c0.24-0.1,0.5-0.17,0.79-0.2s0.58-0.05,0.88-0.03s0.58,0.06,0.87,0.13
		c0.28,0.07,0.55,0.16,0.79,0.27c0.48,0.25,0.85,0.62,1.11,1.11C32.15,2.33,32.21,2.96,32.07,3.71z"/>
	<path d="M35.62,0.56v2.01c0,0.13,0,0.27,0.01,0.4c0,0.14,0.01,0.29,0.01,0.44c0.31-0.01,0.64-0.02,0.98-0.04
		c0.34-0.02,0.77-0.04,1.28-0.07c0.07,0.08,0.11,0.2,0.12,0.35c0.01,0.16,0.01,0.32,0,0.5C38.01,4.32,38,4.5,37.99,4.69
		s-0.01,0.34,0.01,0.47h-2.33c0,0.54,0,1.07,0,1.58s0,1,0.02,1.45c0.1,0.14,0.24,0.25,0.44,0.33c0.19,0.08,0.39,0.14,0.61,0.19
		c0.22,0.04,0.44,0.07,0.67,0.08s0.42,0.01,0.59,0c0.02,0.14,0.04,0.29,0.06,0.46c0.02,0.17,0.04,0.35,0.05,0.52
		c0.01,0.18,0.01,0.36-0.01,0.54c-0.01,0.18-0.05,0.35-0.1,0.5c-0.4,0.02-0.82,0.02-1.25-0.01c-0.43-0.02-0.83-0.08-1.22-0.17
		c-0.38-0.09-0.72-0.22-1.01-0.4s-0.51-0.42-0.64-0.73c-0.13-0.77-0.21-1.5-0.23-2.18s-0.02-1.39-0.01-2.12
		c-0.16,0.01-0.33,0.02-0.5,0.02c-0.18,0-0.37,0-0.58,0l0.04-1.83c0.2,0.01,0.39,0.02,0.56,0.02s0.34,0,0.5,0
		c0-0.22,0-0.46-0.02-0.71c-0.01-0.25-0.01-0.51-0.01-0.77c0-0.26,0-0.51,0.01-0.75c0-0.24,0.02-0.45,0.04-0.65
		c0.13-0.02,0.27-0.02,0.43-0.01c0.16,0.01,0.32,0.02,0.49,0.04c0.17,0.02,0.34,0.03,0.51,0.04C35.28,0.58,35.45,0.58,35.62,0.56z"
		/>
	<path d="M44.73,3.34c0.01,0.06,0.02,0.12,0.02,0.18s0.01,0.12,0.01,0.18v0.15C44.73,4.94,44.73,6,44.77,7.04s0.02,2.1-0.04,3.17
		c0,0.13,0,0.26-0.01,0.39c-0.01,0.13-0.07,0.21-0.19,0.23h-0.18c-0.16,0-0.32-0.01-0.49-0.02c-0.17-0.02-0.33-0.02-0.49-0.02
		c-0.11,0-0.22,0.01-0.32,0.02c-0.1,0.01-0.21,0.02-0.32,0.02c-0.07-0.02-0.12-0.06-0.14-0.12s-0.04-0.13-0.04-0.21
		c0-0.11,0.01-0.2,0.03-0.27s0.03-0.15,0.03-0.25c-0.24,0.24-0.54,0.44-0.91,0.61c-0.37,0.17-0.72,0.25-1.07,0.25
		c-0.39,0-0.72-0.13-1-0.4c-0.28-0.27-0.5-0.6-0.68-1s-0.31-0.83-0.4-1.31c-0.08-0.47-0.13-0.9-0.13-1.31c0-0.5,0.06-0.96,0.19-1.38
		s0.31-0.78,0.53-1.09c0.22-0.3,0.49-0.54,0.8-0.72c0.31-0.17,0.64-0.27,0.99-0.28c0.18,0,0.35,0,0.5,0.01
		c0.15,0,0.3,0.03,0.43,0.07s0.25,0.12,0.35,0.21c0.1,0.1,0.19,0.23,0.25,0.4c-0.01-0.16,0-0.3,0.02-0.41
		c0.02-0.11,0.04-0.23,0.04-0.35c0-0.01,0.03-0.02,0.1-0.02c0.06,0,0.14,0,0.22,0c0.08,0.01,0.16,0.01,0.24,0.01
		c0.08,0,0.13,0,0.17,0c0.17,0.01,0.38,0.02,0.62,0.03C44.13,3.31,44.41,3.33,44.73,3.34z M40.36,6.33
		c-0.04,0.13-0.07,0.26-0.08,0.4c-0.01,0.13-0.02,0.27-0.02,0.4c0,0.45,0.12,0.83,0.35,1.15s0.56,0.47,0.98,0.47
		c0.25,0,0.44-0.04,0.56-0.13s0.21-0.21,0.27-0.36c0.06-0.15,0.08-0.34,0.09-0.57c0-0.23,0.01-0.48,0.01-0.76
		c0-0.35,0-0.63-0.01-0.83c-0.01-0.21-0.03-0.36-0.08-0.47s-0.12-0.18-0.23-0.21c-0.1-0.03-0.26-0.04-0.47-0.04
		c-0.41,0-0.73,0.1-0.97,0.29C40.56,5.86,40.41,6.08,40.36,6.33z"/>
	<path d="M48.51,0.56v2.01c0,0.13,0,0.27,0.01,0.4c0,0.14,0.01,0.29,0.01,0.44c0.31-0.01,0.64-0.02,0.98-0.04
		c0.34-0.02,0.77-0.04,1.28-0.07c0.07,0.08,0.11,0.2,0.12,0.35c0.01,0.16,0.01,0.32,0,0.5c-0.01,0.18-0.02,0.36-0.04,0.55
		s-0.01,0.34,0.01,0.47h-2.33c0,0.54,0,1.07,0,1.58s0,1,0.02,1.45c0.1,0.14,0.24,0.25,0.44,0.33c0.19,0.08,0.39,0.14,0.61,0.19
		c0.22,0.04,0.44,0.07,0.67,0.08s0.42,0.01,0.59,0c0.02,0.14,0.04,0.29,0.06,0.46c0.02,0.17,0.04,0.35,0.05,0.52
		c0.01,0.18,0.01,0.36-0.01,0.54c-0.01,0.18-0.05,0.35-0.1,0.5c-0.4,0.02-0.82,0.02-1.25-0.01c-0.43-0.02-0.83-0.08-1.22-0.17
		c-0.38-0.09-0.72-0.22-1.01-0.4S46.9,9.81,46.77,9.5c-0.13-0.77-0.21-1.5-0.23-2.18s-0.02-1.39-0.01-2.12
		c-0.16,0.01-0.33,0.02-0.5,0.02c-0.18,0-0.37,0-0.58,0l0.04-1.83c0.2,0.01,0.39,0.02,0.56,0.02s0.34,0,0.5,0
		c0-0.22,0-0.46-0.02-0.71c-0.01-0.25-0.01-0.51-0.01-0.77c0-0.26,0-0.51,0.01-0.75c0-0.24,0.02-0.45,0.04-0.65
		C46.7,0.49,46.85,0.48,47,0.5c0.16,0.01,0.32,0.02,0.49,0.04c0.17,0.02,0.34,0.03,0.51,0.04C48.17,0.58,48.34,0.58,48.51,0.56z"/>
	<path d="M53.46,3.27h0.25v0.04c-0.01,1.21-0.03,2.44-0.07,3.71c-0.04,1.26-0.02,2.5,0.05,3.71c-0.05,0.06-0.17,0.09-0.38,0.1
		s-0.42,0-0.65,0S52.21,10.81,52,10.8c-0.21-0.01-0.35,0-0.42,0.02c0.05-0.63,0.07-1.27,0.07-1.92c-0.01-0.65-0.02-1.29-0.04-1.94
		c-0.02-0.64-0.03-1.27-0.03-1.9s0.03-1.23,0.09-1.82V3.23c0.04-0.01,0.11-0.01,0.2,0c0.09,0.01,0.17,0.01,0.22,0.01
		c0.13,0.01,0.31,0.02,0.54,0.03S53.14,3.28,53.46,3.27z M51.61,0l2.04,0.04c0,0.06,0,0.17,0.01,0.32c0.01,0.15,0.01,0.32,0.02,0.51
		s0.01,0.38,0.02,0.57c0,0.2,0.01,0.37,0.01,0.52c-0.04,0.06-0.13,0.1-0.28,0.12s-0.31,0.03-0.51,0.02c-0.19,0-0.4-0.02-0.62-0.03
		c-0.22-0.02-0.43-0.02-0.62-0.01c0-0.29-0.01-0.59-0.04-0.91S51.6,0.46,51.61,0z"/>
	<path d="M54.87,3.98c0.07-0.15,0.18-0.28,0.34-0.39c0.15-0.11,0.33-0.2,0.54-0.28c0.2-0.08,0.42-0.13,0.66-0.16
		c0.23-0.03,0.47-0.04,0.71-0.04c0.2,0.02,0.39,0.02,0.58,0.01c0.19-0.01,0.38-0.01,0.59,0.01c0.32,0.02,0.62,0.08,0.91,0.19
		s0.54,0.26,0.75,0.46C60.09,3.85,60.2,4,60.28,4.2c0.08,0.2,0.14,0.43,0.18,0.7c0.04,0.27,0.06,0.56,0.08,0.87
		c0.01,0.31,0.02,0.64,0.03,0.97c-0.01,0.29-0.02,0.62-0.04,0.99s-0.04,0.73-0.07,1.06c-0.04,0.34-0.08,0.65-0.14,0.92
		c-0.06,0.27-0.13,0.46-0.23,0.55c-0.17,0.24-0.39,0.41-0.67,0.51c-0.28,0.1-0.57,0.16-0.89,0.19c-0.32,0.02-0.65,0.02-0.99,0
		c-0.34-0.03-0.65-0.04-0.93-0.04c-0.51-0.09-0.94-0.31-1.29-0.66c-0.27-0.24-0.46-0.54-0.56-0.9s-0.16-0.74-0.18-1.13
		c-0.02-0.4-0.02-0.79-0.01-1.19c0.02-0.4,0.01-0.77-0.02-1.1c0-0.18,0-0.36,0.02-0.53c0.01-0.17,0.03-0.36,0.06-0.55
		c0.01-0.11,0.04-0.26,0.1-0.44S54.84,4.08,54.87,3.98z M56.74,5.75c-0.06,0.04-0.1,0.14-0.13,0.3C56.57,6.37,56.55,6.68,56.55,7
		s-0.01,0.65-0.03,1c-0.01,0.23,0.05,0.41,0.18,0.53c0.13,0.13,0.29,0.21,0.47,0.25c0.19,0.05,0.38,0.06,0.58,0.03
		c0.2-0.02,0.36-0.07,0.49-0.14c0.17-0.08,0.29-0.25,0.35-0.5c0.04-0.32,0.07-0.64,0.1-0.97c0.02-0.32,0.01-0.63-0.05-0.92
		c-0.05-0.35-0.19-0.6-0.44-0.77c-0.24-0.16-0.55-0.2-0.94-0.1C57.04,5.48,56.87,5.58,56.74,5.75z"/>
	<path d="M63.45,4.12c0.05-0.03,0.11-0.06,0.19-0.1c0.07-0.04,0.14-0.08,0.19-0.12c0.21-0.15,0.44-0.27,0.71-0.36
		c0.26-0.09,0.53-0.14,0.8-0.15c0.27-0.01,0.54,0.02,0.8,0.09c0.26,0.07,0.49,0.19,0.7,0.38c0.1,0.09,0.18,0.28,0.23,0.56
		c0.05,0.29,0.09,0.63,0.1,1.03c0.01,0.4,0.02,0.84,0.01,1.31c0,0.48-0.01,0.96-0.02,1.44c-0.01,0.49-0.02,0.95-0.03,1.4
		c-0.01,0.45-0.01,0.85,0.02,1.19c-0.35,0.05-0.66,0.07-0.94,0.07c-0.28-0.01-0.59-0.01-0.94-0.01c-0.02-0.23-0.03-0.49-0.03-0.78
		s0-0.59,0.01-0.9c0.01-0.31,0.01-0.62,0-0.93c0-0.31-0.02-0.6-0.04-0.87c-0.01-0.12-0.02-0.25-0.03-0.4
		c-0.01-0.14-0.03-0.29-0.05-0.43c-0.03-0.14-0.06-0.27-0.1-0.38c-0.05-0.11-0.11-0.2-0.19-0.25C64.83,5.9,64.82,5.9,64.81,5.9
		s-0.02,0-0.03-0.02c-0.08-0.04-0.2-0.07-0.35-0.1c-0.16-0.02-0.31-0.01-0.46,0.03c-0.15,0.04-0.29,0.13-0.41,0.27
		c-0.12,0.13-0.19,0.34-0.21,0.61c-0.02,0.35-0.02,0.69-0.01,1.03c0.01,0.34,0.02,0.67,0.04,1.01c0.02,0.33,0.02,0.67,0.02,1
		c0,0.33-0.02,0.66-0.06,0.99v0.06c-0.17,0.05-0.32,0.08-0.44,0.09s-0.25,0.01-0.38,0.01c-0.13-0.01-0.27-0.01-0.44-0.02
		c-0.16-0.01-0.36,0-0.6,0.02c0-1.23-0.01-2.46-0.04-3.69c-0.03-1.23-0.02-2.5,0.02-3.83c0.12,0.01,0.22,0.02,0.3,0.02
		c0.08,0,0.15,0.01,0.23,0.01c0.07,0,0.14,0,0.23-0.01c0.08-0.01,0.18-0.01,0.3-0.02c0.04,0,0.11-0.01,0.21-0.02
		c0.1-0.01,0.2-0.03,0.3-0.04c0.1-0.01,0.19-0.01,0.27-0.01c0.08,0.01,0.12,0.02,0.12,0.05c0.02,0.17,0.03,0.31,0.02,0.42
		S63.44,3.98,63.45,4.12z"/>
</g>
</svg>
