<!-- Generator: Adobe Illustrator 23.1.1, SVG Export Plug-In  -->
<svg version="1.1" xmlns="http://www.w3.org/2000/svg" xmlns:xlink="http://www.w3.org/1999/xlink" x="0px" y="0px" width="377px"
	 height="177.55px" viewBox="0 0 377 177.55" style="enable-background:new 0 0 377 177.55;" xml:space="preserve">
<style type="text/css">
	.st0{fill:#2C491B;}
	.st1{fill:#FDFDFD;}
</style>
<defs>
</defs>
<path class="st0" d="M324.57,41.62L275.48,0.82c-2.51-2.08-5.96,0.06-5.93,3.67l0.17,18.61c0.02,2.47-1.67,4.48-3.76,4.48H3.76
	C1.68,27.58,0,29.56,0,32.01v109.77c0,2.45,1.68,4.43,3.76,4.43h263.38c2.06,0,3.74,1.95,3.76,4.38l0.21,22.57
	c0.03,3.61,3.53,5.66,5.99,3.52l48.33-42.05l50.05-43.55c2.06-1.79,2.03-5.44-0.07-7.18L324.57,41.62z"/>
<g>
	<path class="st1" d="M47.28,99.67c-0.22-0.02-0.4-0.21-0.41-0.43c-0.29-5.26-0.44-9.86-0.44-13.79c0-3.87,0.08-7.89,0.25-12.08
		c0.01-0.28-0.23-0.51-0.51-0.47l-4.65,0.65c-0.24,0.03-0.46-0.13-0.51-0.36l-0.85-4.46c-0.05-0.25,0.12-0.49,0.37-0.54
		c2.85-0.48,5.67-0.84,8.46-1.07l8.2-0.44c0.23-0.01,0.43,0.15,0.47,0.38l0.72,4.21c0.05,0.27-0.14,0.51-0.41,0.53
		c-1.45,0.08-3.05,0.2-4.8,0.35c-0.23,0.02-0.41,0.21-0.42,0.44c-0.17,4.26-0.26,8.17-0.26,11.74c0,3.59,0.06,8.69,0.17,15.31
		c0,0.27-0.22,0.49-0.49,0.47L47.28,99.67z"/>
	<path class="st1" d="M62.9,69.56l4.25,0.49c0.24,0.03,0.42,0.25,0.4,0.49l-0.38,4.25c-0.02,0.26-0.25,0.44-0.51,0.41l-4.25-0.53
		c-0.24-0.03-0.42-0.25-0.39-0.49l0.38-4.21C62.42,69.72,62.64,69.53,62.9,69.56z M62.56,77.65l4.34,0.42
		c0.23,0.02,0.41,0.22,0.41,0.45v21.17c0,0.27-0.23,0.48-0.5,0.45l-4.34-0.42c-0.23-0.02-0.41-0.22-0.41-0.45V78.1
		C62.07,77.84,62.3,77.63,62.56,77.65z"/>
	<path class="st1" d="M82.21,79.03c1.65,0,2.95,0.5,3.9,1.49c0.2,0.21,0.54,0.2,0.71-0.04c1.48-2.01,2.95-3.02,4.4-3.02
		c4.26,0,6.39,3.21,6.39,9.61c0,3.51-0.29,7.75-0.87,12.71c-0.03,0.24-0.25,0.43-0.49,0.41l-4.44-0.38
		c-0.25-0.02-0.44-0.25-0.41-0.5c0.55-5.51,0.83-9.72,0.83-12.65c0-3.01-0.49-4.51-1.47-4.51c-0.43,0-0.94,0.69-1.52,2.07
		c-0.58,1.37-0.96,2.9-1.15,4.57c0,0.02,0,0.04,0,0.05c-0.06,3.63-0.17,6.88-0.34,9.77c-0.01,0.26-0.24,0.44-0.5,0.42l-4.48-0.42
		c-0.24-0.02-0.42-0.24-0.41-0.48c0.23-4.13,0.34-7.54,0.34-10.23c0-2.79-0.38-4.19-1.15-4.19c-0.49,0-1.13,0.85-1.91,2.55
		c-0.78,1.69-1.33,3.46-1.67,5.31c-0.01,0.03-0.01,0.07-0.01,0.1c0.03,2.64,0.15,5.35,0.37,8.15c0.02,0.28-0.21,0.51-0.49,0.49
		L73.4,99.9c-0.22-0.02-0.39-0.2-0.41-0.42c-0.32-4.17-0.48-7.98-0.48-11.43c0-3.38,0.08-6.56,0.25-9.53
		c0.01-0.25,0.23-0.44,0.49-0.42l3.02,0.22c0.2,0.01,0.37,0.16,0.41,0.36c0.14,0.69,0.32,1.71,0.53,3.05
		c0.06,0.39,0.57,0.52,0.81,0.2C79.43,79.99,80.83,79.03,82.21,79.03z"/>
	<path class="st1" d="M107.47,79.51c-0.02,0.43,0.51,0.62,0.8,0.31c1.06-1.14,2.29-1.71,3.71-1.71c1.81,0,3.22,0.74,4.23,2.21
		c1.01,1.47,1.52,3.4,1.52,5.8c0,3.56-0.76,6.79-2.28,9.71c-1.52,2.91-3.14,4.37-4.85,4.37c-0.98,0-1.85-0.1-2.62-0.29
		c-0.28-0.07-0.55,0.17-0.55,0.46c0.06,3.97,0.17,7.46,0.31,10.46l-5.38-0.55c-0.15-5.52-0.23-11.38-0.23-17.59
		c0-6,0.2-11.21,0.6-15.62c0.02-0.25,0.25-0.43,0.5-0.4l3.91,0.41c0.24,0.03,0.41,0.23,0.41,0.47L107.47,79.51z M108.8,95.59
		c0.86,0,1.66-0.84,2.42-2.53c0.75-1.69,1.13-3.38,1.13-5.08c0-1.7-0.15-3.02-0.46-3.96c-0.31-0.94-0.66-1.4-1.06-1.4
		c-0.67,0-1.27,0.4-1.77,1.2c-0.5,0.78-1.02,1.91-1.56,3.37c-0.02,0.05-0.03,0.1-0.03,0.15c-0.03,1.6-0.04,4.02-0.04,7.29
		C107.88,95.27,108.34,95.59,108.8,95.59z"/>
	<path class="st1" d="M141.87,73.1c-1.35,0-2.53,1.66-3.54,4.99c-1.01,3.33-1.52,6.28-1.52,8.85c0,5.4,1.41,8.1,4.23,8.1
		c0.8,0,1.5-0.35,2.09-1.04c0.6-0.69,1.03-1.4,1.29-2.14c0.24-0.67,0.52-1.56,0.84-2.67c0.06-0.21,0.26-0.35,0.47-0.33l4.95,0.39
		c0.28,0.02,0.47,0.29,0.41,0.56c-0.8,3.52-1.95,6.23-3.45,8.13c-1.58,1.99-3.78,2.99-6.6,2.99c-3.31,0-5.86-1.25-7.66-3.75
		c-1.79-2.5-2.69-5.68-2.69-9.54c0-4.51,0.89-8.89,2.67-13.16c0.86-2.12,2.06-3.86,3.61-5.22c1.55-1.36,3.32-2.05,5.31-2.05
		c2.45,0,4.23,0.81,5.34,2.44c0.55,0.8,1,1.61,1.36,2.44c0.35,0.83,0.61,1.89,0.76,3.17c0.26,1.9,0.42,3.94,0.49,6.1
		c0.01,0.27-0.23,0.5-0.5,0.47l-5.01-0.47c-0.23-0.02-0.41-0.22-0.41-0.45c-0.03-3.71-0.39-6.06-1.1-7.04
		C142.87,73.36,142.43,73.1,141.87,73.1z"/>
	<path class="st1" d="M156.41,79.88c1.29-1.67,2.97-2.51,5.06-2.51s3.63,0.87,4.62,2.6c1,1.73,1.5,4.19,1.5,7.38
		c0,3.1-0.17,7.34-0.52,12.73c-0.02,0.25-0.24,0.45-0.49,0.43l-3.08-0.26c-0.19-0.02-0.35-0.15-0.4-0.34l-0.29-1.16
		c-1.44,0.83-2.91,1.24-4.42,1.24c-1.5,0-2.74-0.5-3.73-1.5c-0.98-1-1.47-2.43-1.47-4.3c0-1.87,0.93-3.48,2.78-4.83
		c1.86-1.35,3.99-2.05,6.42-2.12v-1.24c0-2.42-0.58-3.63-1.75-3.63c-0.58,0-1.11,0.41-1.59,1.22c-0.42,0.71-0.73,1.51-0.95,2.4
		c-0.05,0.22-0.25,0.37-0.48,0.35l-3.33-0.33c-0.27-0.03-0.46-0.29-0.4-0.55C154.37,83.3,155.21,81.43,156.41,79.88z M157.88,94.49
		c0,0.98,0.58,1.47,1.75,1.47c0.71,0,1.46-0.15,2.24-0.44c0.17-0.06,0.29-0.24,0.3-0.42l0.07-3.03c0.01-0.28-0.24-0.5-0.51-0.46
		c-1.18,0.16-2.1,0.5-2.74,1.02C158.25,93.22,157.88,93.84,157.88,94.49z"/>
	<path class="st1" d="M180.2,100.25l-5.21-0.49c-0.19-0.02-0.35-0.16-0.4-0.35c-2.15-8.68-3.48-15.55-4.01-20.63
		c-0.03-0.28,0.21-0.52,0.49-0.49l4.32,0.38c0.22,0.02,0.39,0.19,0.41,0.41c0.44,4.7,1.03,8.99,1.75,12.87
		c0.09,0.47,0.76,0.5,0.88,0.03c1.08-4.17,2.22-9.18,3.42-15.05c0.05-0.22,0.25-0.38,0.48-0.37l4.05,0.34
		c0.27,0.02,0.47,0.29,0.41,0.55c-1.7,7.76-3.74,15.25-6.12,22.47C180.61,100.14,180.41,100.27,180.2,100.25z"/>
	<path class="st1" d="M194.91,96.23c1.1,0,2.26-0.99,3.49-2.97c0.13-0.21,0.4-0.29,0.62-0.16l2.72,1.61
		c0.22,0.13,0.29,0.41,0.16,0.63c-0.5,0.84-0.98,1.57-1.45,2.18c-0.54,0.71-1.34,1.38-2.42,2.02c-1.07,0.64-2.27,0.97-3.59,0.97
		c-1.93,0-3.56-0.82-4.88-2.46c-1.32-1.64-1.98-3.86-1.98-6.65c0-3.19,0.57-6.16,1.7-8.92c0.61-1.44,1.5-2.61,2.65-3.52
		c1.15-0.9,2.33-1.36,3.54-1.36c1.21,0,2.19,0.19,2.92,0.57c0.74,0.38,1.33,0.81,1.77,1.29c0.44,0.48,0.84,1.17,1.17,2.09
		s0.58,1.67,0.71,2.25c0.14,0.58,0.25,1.43,0.34,2.53c0.11,1.33,0.17,2.55,0.18,3.65c0,0.21-0.13,0.38-0.33,0.44
		c-2.31,0.61-5.23,1.18-8.75,1.69c-0.24,0.03-0.42,0.26-0.4,0.5c0.11,1.02,0.31,1.86,0.61,2.51
		C194.05,95.87,194.45,96.23,194.91,96.23z M195.92,82.11c-0.67,0-1.28,0.67-1.82,2.02c-0.47,1.19-0.78,2.55-0.9,4.08
		c-0.03,0.3,0.26,0.55,0.56,0.48c1.23-0.26,2.33-0.51,3.29-0.75c0.2-0.05,0.34-0.24,0.34-0.45
		C197.36,83.91,196.87,82.11,195.92,82.11z"/>
	<path class="st1" d="M217.86,69.7c-0.03-0.43,0.25-0.84,0.67-0.96c3.3-0.96,6.31-1.44,9.01-1.44c2.9,0,5.36,0.77,7.38,2.32
		c2.02,1.55,3.04,3.46,3.04,5.73c0,2.93-1.41,5.34-4.24,7.23c-0.57,0.38-0.59,1.24,0.01,1.58c2.57,1.47,3.86,3.64,3.86,6.51
		c0,2.48-1.3,4.7-3.91,6.65c-2.61,1.95-5.34,2.92-8.19,2.92c-0.34,0-2.66-0.19-6.96-0.56c-0.5-0.04-0.88-0.49-0.85-0.99
		c0.39-6.19,0.59-11.44,0.59-15.74C218.28,78.67,218.14,74.25,217.86,69.7z M226.51,94.63c1.01,0,2.09-0.41,3.22-1.22
		c1.13-0.81,1.7-1.75,1.7-2.81c0-1.06-0.66-1.99-1.98-2.78c-1.09-0.66-2.43-1.11-4.04-1.35c-0.56-0.08-1.07,0.34-1.09,0.91
		c-0.05,2.6-0.09,4.69-0.14,6.26c-0.01,0.5,0.37,0.92,0.87,0.95C225.48,94.61,225.96,94.63,226.51,94.63z M230.4,73.67
		c-0.9-0.63-1.87-0.94-2.9-0.94c-0.82,0-1.68,0.12-2.58,0.35c-0.41,0.11-0.69,0.51-0.68,0.94c0.09,2.68,0.14,4.84,0.15,6.5
		c0.01,0.59,0.56,1.04,1.14,0.89c1.11-0.29,2.31-0.86,3.61-1.71c1.75-1.15,2.62-2.38,2.62-3.7C231.76,75.07,231.3,74.3,230.4,73.67z
		"/>
	<path class="st1" d="M243.01,69.62l3.3,0.38c0.5,0.06,0.86,0.5,0.82,1.01l-0.29,3.29c-0.05,0.52-0.52,0.91-1.04,0.84l-3.3-0.41
		c-0.5-0.06-0.86-0.51-0.81-1.01l0.29-3.26C242.02,69.94,242.49,69.56,243.01,69.62z M242.71,77.7l3.38,0.33
		c0.48,0.05,0.84,0.45,0.84,0.93v20.21c0,0.55-0.47,0.98-1.02,0.93l-3.38-0.33c-0.48-0.05-0.84-0.45-0.84-0.93V78.63
		C241.69,78.08,242.16,77.65,242.71,77.7z"/>
	<path class="st1" d="M260.37,82.94c-1.27,0-2.23,1.59-2.88,4.76c-0.01,0.07-0.02,0.15-0.02,0.22c0.06,2.11,0.09,4.12,0.09,6.05
		c0,1.7-0.05,3.58-0.14,5.65c-0.02,0.53-0.48,0.94-1.01,0.89l-3.5-0.3c-0.49-0.04-0.86-0.46-0.85-0.95
		c0.08-3.96,0.12-6.15,0.12-6.58c0-4.97-0.21-8.91-0.64-11.84c-0.09-0.6,0.41-1.12,1.02-1.05l1.6,0.17c0.38,0.04,0.7,0.32,0.8,0.7
		c0.17,0.63,0.37,1.21,0.57,1.72c1.5-3.22,3.02-4.83,4.55-4.83c1.1,0,2.08,0.42,2.95,1.27c0.23,0.23,0.31,0.58,0.22,0.9l-0.75,2.65
		c-0.14,0.49-0.64,0.83-1.13,0.69C261.07,82.98,260.74,82.94,260.37,82.94z"/>
	<path class="st1" d="M273.48,78.19c0.61,0.22,1.25-0.21,1.25-0.86l0.03-4.32c0-2.12-0.05-4.52-0.14-7.22l5.38,0.46
		c0.06,2.18,0.09,6.13,0.09,11.85c0,5.51-0.23,12.56-0.68,21.13c-0.03,0.53-0.49,0.93-1.01,0.89l-2.35-0.21
		c-0.46-0.04-0.81-0.41-0.84-0.86c-0.02-0.22-0.03-0.44-0.05-0.67c-0.06-0.84-1.11-1.17-1.65-0.52c-0.89,1.07-1.82,1.61-2.8,1.61
		c-2.36,0-4-0.74-4.92-2.21c-0.92-1.47-1.38-3.61-1.38-6.42c0-2.81,0.61-5.71,1.82-8.72c1.21-3,2.58-4.51,4.12-4.51
		C271.35,77.6,272.39,77.8,273.48,78.19z M274.85,83.48c0-0.31-0.14-0.62-0.4-0.78c-0.63-0.39-1.25-0.59-1.87-0.59
		c-0.75,0-1.4,0.99-1.96,2.97c-0.55,1.98-0.83,4.04-0.83,6.19s0.52,3.22,1.56,3.22c0.4,0,0.94-0.67,1.61-2
		c0.66-1.31,1.26-2.96,1.81-4.96c0.02-0.08,0.03-0.16,0.03-0.25L274.85,83.48z"/>
	<path class="st1" d="M292.98,85.06c0-1.84-0.46-2.76-1.38-2.76c-0.46,0-0.88,0.22-1.27,0.67c-0.38,0.44-0.57,1.04-0.57,1.79
		c0,0.75,0.15,1.37,0.44,1.86c0.29,0.49,0.83,0.97,1.61,1.45c0.78,0.48,1.4,0.86,1.84,1.15c0.44,0.29,0.97,0.7,1.59,1.22
		c1.26,1.1,1.89,2.52,1.89,4.25c0,1.73-0.65,3.14-1.96,4.21c-1.3,1.07-2.77,1.61-4.39,1.61s-3.09-0.44-4.39-1.31
		c-1.1-0.74-2.02-1.64-2.76-2.69c-0.24-0.34-0.19-0.81,0.08-1.13l1.2-1.36c0.4-0.45,1.11-0.4,1.46,0.09
		c1.03,1.45,2.1,2.17,3.22,2.17c0.46,0,0.86-0.13,1.2-0.39c0.34-0.26,0.51-0.62,0.51-1.08c0-0.98-0.71-1.89-2.12-2.71
		c-1.5-0.83-2.68-1.75-3.54-2.76c-0.86-1.01-1.29-2.45-1.29-4.3c0-1.85,0.77-3.53,2.3-5.01c1.53-1.49,3.18-2.23,4.94-2.23
		c1.76,0,3.16,0.61,4.19,1.82c1.03,1.21,1.54,2.84,1.54,4.9c0,0.58-0.04,1.18-0.13,1.82c-0.07,0.48-0.52,0.82-1,0.78l-2.38-0.21
		c-0.51-0.05-0.89-0.5-0.84-1.01C292.97,85.57,292.98,85.3,292.98,85.06z"/>
</g>
</svg>
