<!-- Generator: Adobe Illustrator 23.1.1, SVG Export Plug-In  -->
<svg version="1.1" xmlns="http://www.w3.org/2000/svg" xmlns:xlink="http://www.w3.org/1999/xlink" x="0px" y="0px" width="279px"
	 height="205.68px" viewBox="0 0 279 205.68" style="enable-background:new 0 0 279 205.68;" xml:space="preserve">
<style type="text/css">
	.st0{fill:#E0BBA9;}
</style>
<defs>
</defs>
<g>
	<path class="st0" d="M266.57,185H12.43C5.59,185,0,179.41,0,172.57L0,12.43C0,5.59,5.59,0,12.43,0l254.15,0
		C273.41,0,279,5.59,279,12.43v160.15C279,179.41,273.41,185,266.57,185z"/>
	<path class="st0" d="M63.54,183.21c24.09,0.08,32.24,7.89,48.95,22.48c-1.07-32.47,32.67-20.81,54.4-28.83
		c-22.41-1.78-47.61-5.6-69.83-1.33C88.24,177.21,79.3,181.37,63.54,183.21z"/>
</g>
</svg>
