<!-- Generator: Adobe Illustrator 23.1.1, SVG Export Plug-In  -->
<svg version="1.1" xmlns="http://www.w3.org/2000/svg" xmlns:xlink="http://www.w3.org/1999/xlink" x="0px" y="0px"
	 width="436.53px" height="371px" viewBox="0 0 436.53 371" style="enable-background:new 0 0 436.53 371;" xml:space="preserve">
<style type="text/css">
	.st0{fill:#383838;}
	.st1{fill:none;stroke:#000000;stroke-miterlimit:10;}
	.st2{fill:url(#SVGID_1_);}
	.st3{fill:none;stroke:#000000;stroke-width:2;stroke-miterlimit:10;}
	.st4{fill:#2986C3;}
	.st5{fill:#23211C;}
	.st6{fill:#FFFFFF;}
	.st7{fill:#020202;}
	.st8{fill:#278CC5;}
	.st9{opacity:0.41;}
	.st10{fill:#5FA3C8;}
	.st11{fill:none;stroke:#020202;stroke-width:2;stroke-miterlimit:10;}
	.st12{fill:#153240;}
	.st13{fill:#FDFDFD;}
	.st14{fill:url(#SVGID_2_);}
</style>
<defs>
</defs>
<g>
	<path class="st0" d="M228.28,333.11c-3.6,5.51-7.71,11.2-13.83,13.61c-4.92,1.94-10.4,1.47-15.66,1.97
		c-5.26,0.51-11.03,2.53-13.23,7.33c13.41-2.09,26.97-4.19,40.49-3.11c13.53,1.08,27.23,5.66,36.84,15.24
		c3.25-3.42,1.09-9.42-2.73-12.18c-3.82-2.76-8.7-3.49-13.08-5.24s-8.74-5.38-8.62-10.1c0.1-3.82,3.08-6.85,5.71-9.62
		c12.26-12.9,21.03-29.09,25.15-46.4c-4.11,0.54-23.08,0.38-25.39,3.36c-2.32,3,1.82,4.1,2.77,7.45
		C249.67,305.94,233.72,324.26,228.28,333.11z"/>
	<path class="st1" d="M227.8,335.23c-3.6,5.51-7.71,11.2-13.83,13.61c-4.92,1.94-10.4,1.47-15.66,1.97
		c-5.26,0.51-11.03,2.53-13.23,7.33c13.41-2.09,26.97-4.19,40.49-3.11c13.53,1.08,27.23,5.66,36.84,15.24
		c3.25-3.42,1.09-9.42-2.73-12.18c-3.82-2.76-8.7-3.49-13.08-5.24s-8.74-5.38-8.62-10.1c0.1-3.82,3.08-6.85,5.71-9.62
		c12.26-12.9,21.03-29.09,25.15-46.4c-4.11,0.54-23.08,0.38-25.39,3.36c-2.32,3,1.82,4.1,2.77,7.45
		C249.19,308.06,233.24,326.39,227.8,335.23z"/>
	<path class="st0" d="M125.72,320.58c-4.69-0.24-9.57-0.7-13.94,1s-8.03,6.4-6.76,10.93c6.57-6.72,17.33-8.93,26.02-5.35
		c-8.44,1.46-16.08,7.03-20.05,14.62c13.77-4.76,28.46-8.59,42.79-5.96c14.33,2.62,28.09,13.32,29.96,27.77
		c4.5-5.96,2.88-14.87-1.7-20.77c-4.58-5.9-11.44-9.5-18.08-12.91c23.67-6.21,45.65-18.75,63.06-35.95
		c-2.05-1.49-4.27-2.87-6.54-3.94c-9.87,10.83-28.41,18.27-42.03,22.99C161.57,318.85,143.57,321.5,125.72,320.58z"/>
	<path class="st1" d="M125.3,324.3c-4.69-0.24-9.57-0.7-13.94,1s-8.03,6.4-6.76,10.93c6.57-6.72,17.33-8.93,26.02-5.35
		c-8.44,1.46-16.08,7.03-20.05,14.62c13.77-4.76,28.46-8.59,42.79-5.96c14.33,2.62,28.09,13.32,29.96,27.77
		c4.5-5.96,2.88-14.87-1.7-20.77c-4.58-5.9-11.44-9.5-18.08-12.91c23.67-6.21,45.65-18.75,63.06-35.95
		c-2.05-1.49-4.27-2.87-6.54-3.94c-9.87,10.83-28.41,18.27-42.03,22.99C161.15,322.57,143.15,325.22,125.3,324.3z"/>
	
		<linearGradient id="SVGID_1_" gradientUnits="userSpaceOnUse" x1="-236.1741" y1="276.0958" x2="-15.7563" y2="171.8315" gradientTransform="matrix(-1 0 0 1 66.4915 0)">
		<stop  offset="0.1869" style="stop-color:#2E89C2"/>
		<stop  offset="0.2968" style="stop-color:#2E87BE"/>
		<stop  offset="0.3963" style="stop-color:#2D80B3"/>
		<stop  offset="0.4917" style="stop-color:#2C74A1"/>
		<stop  offset="0.5847" style="stop-color:#2A6487"/>
		<stop  offset="0.676" style="stop-color:#284F66"/>
		<stop  offset="0.7646" style="stop-color:#25363D"/>
		<stop  offset="0.827" style="stop-color:#23211C"/>
	</linearGradient>
	<path class="st2" d="M168.5,294.62c44.75,19.4,98.43,16.78,141.08-6.87c5.6-3.11,11.66-7.6,11.83-14.01
		c0.23-8.64-9.86-13.28-18.17-15.65c-16.19-4.62-32.38-9.24-48.58-13.86c-10.36-2.96-20.91-6-29.88-11.98
		c-8.96-5.98-16.25-15.49-16.8-26.25s7.38-22.1,18.13-22.86c4.87-0.34,9.76,1.37,14.59,0.71c4.84-0.66,9.76-5.55,7.64-9.95
		c-0.82-1.71-2.49-2.83-4.07-3.87c-11.39-7.46-22.87-14.97-35.42-20.25c-35.17-14.81-77.42-9.07-108.68,12.28
		c-6.46,4.41-17.88,11.69-21.26,19.06c-3.58,7.81,0.8,15.92,3.86,23.8c7.15,18.5,17.84,35.6,31.14,50.29
		C129.1,271.95,147.74,285.62,168.5,294.62z"/>
	<path class="st3" d="M77.68,190.98c4,13,2,8,5.56,17.04c7.27,18.45,17.84,35.6,31.14,50.29c15.17,16.76,33.82,30.43,54.58,39.43
		c44.75,19.4,98.43,16.78,141.08-6.87c5.6-3.11,11.66-7.6,11.83-14.01c0.23-8.64-9.86-13.28-18.17-15.65
		c-16.19-4.62-32.38-9.24-48.58-13.86c-10.36-2.96-20.91-6-29.88-11.98s-16.25-15.49-16.8-26.25s7.38-22.1,18.13-22.86
		c4.87-0.34,9.76,1.37,14.59,0.71c4.84-0.66,9.76-5.55,7.64-9.95c-0.82-1.71-2.49-2.83-4.07-3.87
		c-11.39-7.46-25.52-7.88-38.07-13.16"/>
	<path class="st4" d="M404.43,351.19c2.28-7.39-0.13-16-5.91-21.14c8.16,4.26,16.32,8.53,24.48,12.79
		c4.51-3.24,9.03-6.47,13.54-9.71c-36.75-39.51-83.48-68.06-129.57-96.1c-18.17-11.05-37.24-22.28-58.22-26.94
		c-13.65-3.03-57.48-8.18-42.06,6.88c30.86,30.13,96.63,57.84,131,83.83C359.91,317.63,382.16,334.42,404.43,351.19z"/>
	<path class="st5" d="M170.68,141.98c-19.93-16.25-41.69-53.33-41.27-79.03c-2.24,0.17-4.48,0.34-6.73,0.51
		c-3.03-8.55-6.07-17.1-9.1-25.65c-2.46,0.55-4.91,1.1-7.37,1.65c-1.66-7.32-3.33-14.65-4.99-21.97c-2.07,2.04-4.13,4.08-6.2,6.12
		c-2.66-5.59-5.32-11.17-7.98-16.76c-0.81,2.59-1.63,5.18-2.44,7.78c-2.43-3.89-4.85-7.78-7.28-11.67
		c-2.98,24.9-6.03,50.13-15.32,73.42c-11.01,7.45-17.43,19.75-18.32,33.01c-0.89,13.26,4.86,27.81,14.75,36.68
		c8.12,7.29,15.07,36.05,19.25,45.89c5.95,13.99,4.25-12.31,14.36-21.14c15.01-13.11,33.62-22.13,53.29-25.46
		c10.61-1.79,14.64-2.55,25.32-3.9"/>
	<path d="M0,127.57c22.95,12.89,52.36,3.07,77.51,10.83c-11.78-3.64-14.51-25.15-28.6-27.46C35.12,108.68,12.17,121.87,0,127.57z"/>
	<g>
		<g>
			<ellipse class="st6" cx="76.27" cy="105.88" rx="9.22" ry="9.74"/>
			<ellipse class="st7" cx="75.93" cy="105.52" rx="7.27" ry="7.68"/>
			<ellipse class="st3" cx="75.25" cy="105.91" rx="9.41" ry="9.94"/>
		</g>
		<ellipse class="st6" cx="73.55" cy="103.75" rx="2.01" ry="2.12"/>
	</g>
	<path class="st5" d="M400.75,329.27c-30.68-28.68-64.65-53.82-101.03-74.78"/>
	<g>
		<path class="st8" d="M109.72,217.13c-5.15-3.2-10.61-8.45-5.14-15.59c1.24-1.62,3.03-2.73,5.01-3.19
			c33.23-7.85,66.45-15.69,99.68-23.54c13.87-3.28,28.22-6.57,42.25-4.05c12.93,2.32,24.42,9.37,36.21,15.15
			c18.12,8.89,37.5,14.98,55.78,23.53c17.45,8.16,34.32,19.02,45.44,34.66c0.54,0.76-0.17,1.79-1.07,1.53
			c-13.89-3.94-27.79-7.87-41.68-11.81c0,0,31.96,20.92,31.96,20.92c-6.32-4.14-26.25-1.83-34.26-2.48
			c-12.23-1-24.44-2.12-36.65-3.36c-23.59-2.4-47.14-5.25-70.63-8.54c-23.49-3.29-46.78-7.65-70.22-11.22
			C146.43,226.1,127.93,228.47,109.72,217.13z"/>
		<g class="st9">
			<path class="st5" d="M263.08,173.53c0.67,0.01,1.34,0.15,1.99,0.43c0.64,0.27,1.3,0.71,1.73,1.5c0.2,0.4,0.32,0.9,0.25,1.4
				c-0.07,0.5-0.31,0.92-0.57,1.26c-0.54,0.68-1.23,1.02-1.88,1.27c-1.34,0.45-2.69,0.44-3.97,0.6l-3.89,0.46l0.27-1.12
				c1.23,0.37,2.65,0.95,3.35,2.63c0.34,0.85,0.14,1.95-0.35,2.64c-0.48,0.71-1.1,1.16-1.71,1.5c-1.23,0.66-2.52,0.99-3.8,1.14
				c-1.28,0.15-2.57,0.12-3.82-0.14l-0.01-0.2c1.2-0.41,2.36-0.75,3.47-1.18c1.1-0.41,2.18-0.88,3.07-1.45
				c0.44-0.28,0.83-0.59,1.07-0.88c0.24-0.3,0.31-0.53,0.25-0.85c-0.15-0.69-1.04-1.51-2-2.14l-2.73-1.78l3,0.65
				c1.22,0.27,2.5,0.33,3.73,0.1c1.23-0.22,2.39-0.84,3.36-1.46c0.49-0.3,0.93-0.63,1.21-0.92c0.28-0.32,0.34-0.52,0.27-0.89
				c-0.12-0.38-0.45-0.82-0.88-1.22c-0.43-0.4-0.94-0.76-1.48-1.15L263.08,173.53z"/>
		</g>
		<g class="st9">
			<path class="st5" d="M282.26,184.07c0.64-0.05,1.28,0,1.92,0.17c0.32,0.08,0.64,0.2,0.96,0.37c0.32,0.18,0.66,0.41,0.92,0.85
				c0.29,0.42,0.32,1.19,0.03,1.64c-0.26,0.46-0.6,0.74-0.91,0.94c-0.63,0.43-1.27,0.6-1.91,0.72c-1.28,0.21-2.54,0.09-3.76,0.18
				c-1.22,0.08-2.43,0.24-3.67,0.4l0.21-1.18c0.6,0.1,1.21,0.24,1.81,0.52c0.3,0.15,0.6,0.31,0.9,0.56c0.29,0.24,0.6,0.57,0.78,1.07
				c0.2,0.5,0.13,1.17-0.12,1.61c-0.24,0.44-0.55,0.75-0.84,0.98c-0.6,0.46-1.19,0.72-1.79,0.92c-1.19,0.39-2.39,0.55-3.57,0.59
				c-1.19,0.03-2.37-0.05-3.53-0.34l-0.01-0.2c1.13-0.38,2.22-0.67,3.3-1c1.07-0.33,2.12-0.65,3.08-1.05
				c0.47-0.2,0.94-0.41,1.26-0.63c0.18-0.1,0.28-0.21,0.33-0.26c0.04-0.06,0.05,0,0.06-0.04c0.03-0.11-0.29-0.5-0.68-0.76
				c-0.39-0.29-0.85-0.57-1.34-0.82l-3.97-2.06l4.18,0.88c1.17,0.25,2.38,0.35,3.56,0.19c1.18-0.15,2.32-0.65,3.35-1.12
				c0.52-0.22,1.02-0.46,1.42-0.67c0.21-0.1,0.34-0.23,0.39-0.29c0.03-0.06,0.07,0.04,0.06-0.07c-0.02-0.1-0.15-0.28-0.31-0.45
				c-0.18-0.16-0.39-0.34-0.62-0.5c-0.46-0.32-0.98-0.62-1.52-0.96L282.26,184.07z"/>
		</g>
		<g class="st9">
			<path class="st5" d="M299.86,194.07c0.73,0,1.46,0.11,2.18,0.36c0.71,0.26,1.47,0.62,2,1.5c0.26,0.43,0.37,1.11,0.16,1.65
				c-0.19,0.54-0.53,0.91-0.86,1.22c-0.68,0.58-1.41,0.85-2.14,1.05c-1.47,0.36-2.92,0.31-4.33,0.44l-4.25,0.44l0.23-1.16
				c0.69,0.16,1.38,0.38,2.05,0.75c0.64,0.39,1.36,0.9,1.74,1.88c0.19,0.49,0.21,1.1,0.03,1.62c-0.18,0.51-0.47,0.9-0.77,1.24
				c-0.62,0.62-1.3,0.99-1.98,1.28c-1.36,0.57-2.74,0.83-4.13,0.94c-1.38,0.1-2.76,0.06-4.12-0.21l-0.01-0.2
				c1.31-0.4,2.59-0.72,3.83-1.12c1.24-0.39,2.46-0.81,3.53-1.35c0.53-0.26,1.04-0.56,1.39-0.86c0.16-0.15,0.28-0.29,0.34-0.41
				c0.05-0.12,0.07-0.2,0.05-0.35c-0.04-0.29-0.4-0.73-0.84-1.08c-0.44-0.37-0.97-0.71-1.53-1.02l-3.4-1.85l3.63,0.7
				c1.35,0.26,2.76,0.34,4.12,0.14c1.37-0.2,2.68-0.77,3.84-1.36c0.58-0.28,1.14-0.59,1.56-0.89c0.19-0.15,0.34-0.31,0.39-0.43
				c0.05-0.11,0.1-0.2,0.03-0.38c-0.07-0.18-0.2-0.4-0.4-0.61c-0.2-0.21-0.44-0.42-0.7-0.61c-0.52-0.39-1.12-0.75-1.73-1.12
				L299.86,194.07z"/>
		</g>
		<g class="st9">
			<path class="st5" d="M320.2,202.07c0.95-0.06,1.9-0.03,2.85,0.11c0.48,0.06,0.96,0.17,1.44,0.33c0.49,0.19,0.99,0.31,1.53,0.97
				c0.12,0.16,0.25,0.46,0.26,0.74c0.01,0.33-0.09,0.57-0.22,0.79c-0.12,0.19-0.26,0.32-0.39,0.45c-0.13,0.1-0.26,0.19-0.39,0.28
				c-0.5,0.29-0.98,0.47-1.46,0.63c-0.95,0.3-1.89,0.45-2.84,0.52c-1.9,0.14-3.78-0.02-5.63,0.08c-1.86,0.05-3.71,0.24-5.58,0.39
				l0.13-1.23c0.88,0.08,1.77,0.2,2.66,0.45c0.45,0.13,0.9,0.28,1.36,0.52c0.23,0.11,0.47,0.27,0.71,0.46
				c0.24,0.23,0.54,0.49,0.66,1.05c0.08,0.25,0.03,0.57-0.04,0.81c-0.08,0.22-0.21,0.46-0.33,0.59c-0.12,0.16-0.25,0.29-0.37,0.38
				c-0.12,0.1-0.25,0.2-0.36,0.27c-0.48,0.31-0.92,0.48-1.37,0.67c-0.89,0.3-1.76,0.54-2.65,0.68c-1.76,0.3-3.51,0.44-5.27,0.45
				c-1.75,0.01-3.5-0.1-5.24-0.38l0-0.2c3.42-0.72,6.82-1.2,10.1-1.94c0.81-0.19,1.62-0.36,2.37-0.62c0.36-0.12,0.74-0.25,0.99-0.39
				c0.08-0.04,0.12-0.07,0.17-0.1c0.06-0.03,0.08-0.06,0.09-0.07c0.05-0.05-0.03,0.1,0,0.22c0.06,0.13,0.04,0.05-0.02-0.02
				c-0.09-0.08-0.2-0.18-0.35-0.27c-0.29-0.18-0.64-0.36-1.01-0.51c-0.74-0.31-1.54-0.58-2.35-0.84l0.13-1.23
				c1.83,0.24,3.68,0.37,5.52,0.23c1.84-0.12,3.65-0.59,5.41-1.04c0.88-0.22,1.76-0.42,2.58-0.65c0.41-0.11,0.81-0.24,1.12-0.4
				c0.06-0.04,0.12-0.08,0.18-0.11c0.03-0.02,0.07-0.05,0.08-0.05c-0.01,0.01-0.01,0.03,0,0.04c0,0.02-0.02,0.07-0.01,0.1
				c0.02,0.04,0.01,0.06,0.02,0.08c0.01,0.02,0.04,0.03,0.02,0.02c-0.02-0.09-0.4-0.38-0.74-0.57c-0.37-0.19-0.77-0.37-1.19-0.54
				l-2.59-0.96L320.2,202.07z"/>
		</g>
		<g class="st9">
			<path class="st5" d="M338.45,209.08c0.82,0.05,1.65,0.22,2.44,0.56c0.78,0.33,1.59,0.84,2.13,1.78c0.25,0.48,0.38,1.11,0.24,1.69
				c-0.13,0.58-0.44,1.07-0.79,1.43c-0.7,0.74-1.52,1.11-2.33,1.39c-1.64,0.51-3.3,0.54-4.89,0.73c-1.6,0.17-3.2,0.35-4.84,0.48
				l0.25-1.14c0.77,0.22,1.55,0.52,2.28,0.98c0.71,0.48,1.44,1.12,1.82,2.14c0.43,1.04,0.05,2.36-0.58,3.09
				c-0.63,0.78-1.38,1.27-2.13,1.65c-1.52,0.73-3.08,1.12-4.66,1.3c-1.57,0.19-3.15,0.16-4.7-0.07l-0.01-0.2
				c1.5-0.4,2.97-0.79,4.38-1.25c1.41-0.47,2.79-0.98,3.99-1.65c0.59-0.33,1.15-0.71,1.49-1.11c0.36-0.4,0.48-0.74,0.39-1.17
				c-0.1-0.44-0.49-0.96-0.99-1.39c-0.5-0.45-1.09-0.86-1.73-1.22l-3.04-1.72l3.29,0.58c1.54,0.27,3.14,0.34,4.69,0.08
				c1.56-0.23,3.04-0.9,4.34-1.61c0.65-0.35,1.27-0.72,1.69-1.13c0.23-0.2,0.35-0.41,0.41-0.6c0.06-0.19,0.08-0.39,0-0.63
				c-0.18-0.5-0.67-1.04-1.25-1.5c-0.59-0.46-1.25-0.87-1.95-1.3L338.45,209.08z"/>
		</g>
		<g class="st9">
			<path class="st5" d="M340.05,257.52c0.7,0.93,0.83,2.23,0.53,3.4c-0.15,0.59-0.42,1.16-0.79,1.66c-0.35,0.51-0.84,0.95-1.4,1.24
				c-1.15,0.59-2.42,0.51-3.51,0.34c-1.1-0.18-2.19-0.49-3.19-1.16l0.87-0.47c0.38,1.14,0.38,2.45-0.06,3.62
				c-0.41,1.17-1.14,2.29-2.21,3.03c-1.07,0.73-2.36,1.06-3.59,1c-1.22-0.06-2.42-0.5-3.25-1.32l0.09-0.18
				c1.1,0.17,2.11,0.14,3.04-0.09c0.93-0.22,1.77-0.62,2.45-1.16c0.69-0.52,1.31-1.19,1.74-2.02c0.4-0.82,0.71-1.74,0.75-2.74
				l0.06-1.56l0.8,1.09c0.56,0.76,1.55,1.27,2.54,1.27c1.01,0.01,1.91-0.54,2.55-1.09c0.32-0.28,0.62-0.58,0.91-0.9
				c0.28-0.33,0.52-0.7,0.73-1.11c0.42-0.81,0.67-1.73,0.73-2.82L340.05,257.52z"/>
		</g>
		<g class="st9">
			<path class="st5" d="M350.56,265.44c0.7,0.93,0.83,2.23,0.53,3.4c-0.15,0.59-0.42,1.16-0.79,1.66c-0.35,0.51-0.84,0.95-1.4,1.24
				c-1.15,0.59-2.42,0.51-3.51,0.34c-1.1-0.18-2.18-0.49-3.19-1.16l0.87-0.47c0.38,1.14,0.38,2.45-0.06,3.62
				c-0.41,1.17-1.14,2.29-2.21,3.03c-1.07,0.73-2.36,1.06-3.59,1c-1.22-0.06-2.42-0.5-3.25-1.32l0.09-0.18
				c1.1,0.17,2.11,0.14,3.04-0.09c0.93-0.22,1.77-0.62,2.45-1.16c0.69-0.52,1.31-1.19,1.74-2.02c0.4-0.82,0.71-1.74,0.75-2.74
				l0.06-1.56l0.8,1.09c0.56,0.76,1.55,1.27,2.54,1.27c1.01,0.01,1.91-0.54,2.55-1.09c0.32-0.28,0.62-0.58,0.91-0.9
				c0.28-0.33,0.52-0.7,0.73-1.11c0.42-0.81,0.67-1.73,0.73-2.82L350.56,265.44z"/>
		</g>
		<g class="st9">
			<path class="st5" d="M364.56,274.44c0.7,0.93,0.83,2.23,0.53,3.4c-0.15,0.59-0.42,1.16-0.79,1.66c-0.35,0.51-0.84,0.95-1.4,1.24
				c-1.15,0.59-2.42,0.51-3.51,0.34c-1.1-0.18-2.18-0.49-3.19-1.16l0.87-0.47c0.38,1.14,0.38,2.45-0.06,3.62
				c-0.41,1.17-1.14,2.29-2.21,3.03c-1.07,0.73-2.36,1.06-3.59,1c-1.22-0.06-2.42-0.5-3.25-1.32l0.09-0.18
				c1.1,0.17,2.11,0.14,3.04-0.09c0.93-0.22,1.77-0.62,2.45-1.16c0.69-0.52,1.31-1.19,1.74-2.02c0.4-0.82,0.71-1.74,0.75-2.74
				l0.06-1.56l0.8,1.09c0.56,0.76,1.55,1.27,2.54,1.27c1.01,0.01,1.91-0.54,2.55-1.09c0.32-0.28,0.62-0.58,0.91-0.9
				c0.28-0.33,0.52-0.7,0.73-1.11c0.42-0.81,0.67-1.73,0.73-2.82L364.56,274.44z"/>
		</g>
		<g class="st9">
			<path class="st5" d="M375.56,284.44c0.7,0.93,0.83,2.23,0.53,3.4c-0.15,0.59-0.42,1.16-0.79,1.66c-0.35,0.51-0.84,0.95-1.4,1.24
				c-1.15,0.59-2.42,0.51-3.51,0.34c-1.1-0.18-2.18-0.49-3.19-1.16l0.87-0.47c0.38,1.14,0.38,2.45-0.06,3.62
				c-0.41,1.17-1.14,2.29-2.21,3.03c-1.07,0.73-2.36,1.06-3.59,1c-1.22-0.06-2.42-0.5-3.25-1.32l0.09-0.18
				c1.1,0.17,2.11,0.14,3.04-0.09c0.93-0.22,1.77-0.62,2.45-1.16c0.69-0.52,1.31-1.19,1.74-2.02c0.4-0.82,0.71-1.74,0.75-2.74
				l0.06-1.56l0.8,1.09c0.56,0.76,1.55,1.27,2.54,1.27c1.01,0.01,1.91-0.54,2.55-1.09c0.32-0.28,0.62-0.58,0.91-0.9
				c0.28-0.33,0.52-0.7,0.73-1.11c0.42-0.81,0.67-1.73,0.73-2.82L375.56,284.44z"/>
		</g>
		<g class="st9">
			<path class="st5" d="M388.56,293.44c0.7,0.93,0.83,2.23,0.53,3.4c-0.15,0.59-0.42,1.16-0.79,1.66c-0.35,0.51-0.84,0.95-1.4,1.24
				c-1.15,0.59-2.42,0.51-3.51,0.34c-1.1-0.18-2.18-0.49-3.19-1.16l0.87-0.47c0.38,1.14,0.38,2.45-0.06,3.62
				c-0.41,1.17-1.14,2.29-2.21,3.03c-1.07,0.73-2.36,1.06-3.59,1c-1.22-0.06-2.42-0.5-3.25-1.32l0.09-0.18
				c1.1,0.17,2.11,0.14,3.04-0.09c0.93-0.22,1.77-0.62,2.45-1.16c0.69-0.52,1.31-1.19,1.74-2.02c0.4-0.82,0.71-1.74,0.75-2.74
				l0.06-1.56l0.8,1.09c0.56,0.76,1.55,1.27,2.54,1.27c1.01,0.01,1.91-0.54,2.55-1.09c0.32-0.28,0.62-0.58,0.91-0.9
				c0.28-0.33,0.52-0.7,0.73-1.11c0.42-0.81,0.67-1.73,0.73-2.82L388.56,293.44z"/>
		</g>
		<g class="st9">
			<path class="st5" d="M400.56,301.44c0.7,0.93,0.83,2.23,0.53,3.4c-0.15,0.59-0.42,1.16-0.79,1.66c-0.35,0.51-0.84,0.95-1.4,1.24
				c-1.15,0.59-2.42,0.51-3.51,0.34c-1.1-0.18-2.18-0.49-3.19-1.16l0.87-0.47c0.38,1.14,0.38,2.45-0.06,3.62
				c-0.41,1.17-1.14,2.29-2.21,3.03c-1.07,0.73-2.36,1.06-3.59,1c-1.22-0.06-2.42-0.5-3.25-1.32l0.09-0.18
				c1.1,0.17,2.11,0.14,3.04-0.09c0.93-0.22,1.77-0.62,2.45-1.16c0.69-0.52,1.31-1.19,1.74-2.02c0.4-0.82,0.71-1.74,0.75-2.74
				l0.06-1.56l0.8,1.09c0.56,0.76,1.55,1.27,2.54,1.27c1.01,0.01,1.91-0.54,2.55-1.09c0.32-0.28,0.62-0.58,0.91-0.9
				c0.28-0.33,0.52-0.7,0.73-1.11c0.42-0.81,0.67-1.73,0.73-2.82L400.56,301.44z"/>
		</g>
		<g class="st9">
			<path class="st5" d="M411.56,311.44c0.7,0.93,0.83,2.23,0.53,3.4c-0.15,0.59-0.42,1.16-0.79,1.66c-0.35,0.51-0.84,0.95-1.4,1.24
				c-1.15,0.59-2.42,0.51-3.51,0.34c-1.1-0.18-2.18-0.49-3.19-1.16l0.87-0.47c0.38,1.14,0.38,2.45-0.06,3.62
				c-0.41,1.17-1.14,2.29-2.21,3.03c-1.07,0.73-2.36,1.06-3.59,1c-1.22-0.06-2.42-0.5-3.25-1.32l0.09-0.18
				c1.1,0.17,2.11,0.14,3.04-0.09c0.93-0.22,1.77-0.62,2.45-1.16c0.69-0.52,1.31-1.19,1.74-2.02c0.4-0.82,0.71-1.74,0.75-2.74
				l0.06-1.56l0.8,1.09c0.56,0.76,1.55,1.27,2.54,1.27c1.01,0.01,1.91-0.54,2.55-1.09c0.32-0.28,0.62-0.58,0.91-0.9
				c0.28-0.33,0.52-0.7,0.73-1.11c0.42-0.81,0.67-1.73,0.73-2.82L411.56,311.44z"/>
		</g>
		<g class="st9">
			<path class="st5" d="M250.91,186.91c0.67,0.01,1.34,0.15,1.99,0.43c0.64,0.27,1.3,0.71,1.73,1.5c0.2,0.4,0.32,0.9,0.25,1.4
				c-0.07,0.5-0.31,0.92-0.57,1.26c-0.54,0.68-1.23,1.02-1.88,1.27c-1.34,0.45-2.69,0.44-3.97,0.6l-3.89,0.46l0.27-1.12
				c1.23,0.37,2.65,0.95,3.35,2.63c0.34,0.85,0.14,1.95-0.35,2.64c-0.48,0.71-1.1,1.16-1.71,1.5c-1.23,0.66-2.52,0.99-3.8,1.14
				c-1.28,0.15-2.57,0.12-3.82-0.14l-0.01-0.2c1.2-0.41,2.36-0.75,3.47-1.18c1.1-0.41,2.18-0.88,3.07-1.45
				c0.44-0.28,0.83-0.59,1.07-0.88c0.24-0.3,0.3-0.53,0.25-0.85c-0.15-0.69-1.04-1.51-2-2.14l-2.73-1.78l3,0.65
				c1.22,0.27,2.5,0.33,3.73,0.1c1.23-0.22,2.39-0.84,3.36-1.46c0.49-0.3,0.93-0.63,1.21-0.92c0.28-0.32,0.34-0.52,0.27-0.89
				c-0.12-0.38-0.45-0.82-0.88-1.22c-0.43-0.4-0.94-0.76-1.48-1.15L250.91,186.91z"/>
		</g>
		<g class="st9">
			<path class="st5" d="M267.91,193.91c0.67,0.01,1.34,0.15,1.99,0.43c0.64,0.27,1.3,0.71,1.73,1.5c0.2,0.4,0.32,0.9,0.25,1.4
				c-0.07,0.5-0.31,0.92-0.57,1.26c-0.54,0.68-1.23,1.02-1.88,1.27c-1.34,0.45-2.69,0.44-3.97,0.6l-3.89,0.46l0.27-1.12
				c1.23,0.37,2.65,0.95,3.35,2.63c0.34,0.85,0.14,1.95-0.35,2.64c-0.48,0.71-1.1,1.16-1.71,1.5c-1.23,0.66-2.52,0.99-3.8,1.14
				c-1.28,0.15-2.57,0.12-3.82-0.14l-0.01-0.2c1.2-0.41,2.36-0.75,3.47-1.18c1.1-0.41,2.18-0.88,3.07-1.45
				c0.44-0.28,0.83-0.59,1.07-0.88c0.24-0.3,0.3-0.53,0.25-0.85c-0.15-0.69-1.04-1.51-2-2.14l-2.73-1.78l3,0.65
				c1.22,0.27,2.5,0.33,3.73,0.1c1.23-0.22,2.39-0.84,3.36-1.46c0.49-0.3,0.93-0.63,1.21-0.92c0.28-0.32,0.34-0.52,0.27-0.89
				c-0.12-0.38-0.45-0.82-0.88-1.22c-0.43-0.4-0.94-0.76-1.48-1.15L267.91,193.91z"/>
		</g>
		<g class="st9">
			<path class="st5" d="M286.91,209.91c0.67,0.01,1.34,0.15,1.99,0.43c0.64,0.27,1.3,0.71,1.73,1.5c0.2,0.4,0.32,0.9,0.25,1.4
				c-0.07,0.5-0.31,0.92-0.57,1.26c-0.54,0.68-1.23,1.02-1.88,1.27c-1.34,0.45-2.69,0.44-3.97,0.6l-3.89,0.46l0.27-1.12
				c1.23,0.37,2.65,0.95,3.35,2.63c0.34,0.85,0.14,1.95-0.35,2.64c-0.48,0.71-1.1,1.16-1.71,1.5c-1.23,0.66-2.52,0.99-3.8,1.14
				c-1.28,0.15-2.57,0.12-3.82-0.14l-0.01-0.2c1.2-0.41,2.36-0.75,3.47-1.18c1.1-0.41,2.18-0.88,3.07-1.45
				c0.44-0.28,0.83-0.59,1.07-0.88c0.24-0.3,0.3-0.53,0.25-0.85c-0.15-0.69-1.04-1.51-2-2.14l-2.73-1.78l3,0.65
				c1.22,0.27,2.5,0.33,3.73,0.1c1.23-0.22,2.39-0.84,3.36-1.46c0.49-0.3,0.93-0.63,1.21-0.92c0.28-0.32,0.34-0.52,0.27-0.89
				c-0.12-0.38-0.45-0.82-0.88-1.22c-0.43-0.4-0.94-0.76-1.48-1.15L286.91,209.91z"/>
		</g>
		<g class="st9">
			<path class="st5" d="M303.91,211.91c0.67,0.01,1.34,0.15,1.99,0.43c0.64,0.27,1.3,0.71,1.73,1.5c0.2,0.4,0.32,0.9,0.25,1.4
				c-0.07,0.5-0.31,0.92-0.57,1.26c-0.54,0.68-1.23,1.02-1.88,1.27c-1.34,0.45-2.69,0.44-3.97,0.6l-3.89,0.46l0.27-1.12
				c1.23,0.37,2.65,0.95,3.35,2.63c0.34,0.85,0.14,1.95-0.35,2.64c-0.48,0.71-1.1,1.16-1.71,1.5c-1.23,0.66-2.52,0.99-3.8,1.14
				c-1.28,0.15-2.57,0.12-3.82-0.14l-0.01-0.2c1.2-0.41,2.36-0.75,3.47-1.18c1.1-0.41,2.18-0.88,3.07-1.45
				c0.44-0.28,0.83-0.59,1.07-0.88c0.24-0.3,0.3-0.53,0.25-0.85c-0.15-0.69-1.04-1.51-2-2.14l-2.73-1.78l3,0.65
				c1.22,0.27,2.5,0.33,3.73,0.1c1.23-0.22,2.39-0.84,3.36-1.46c0.49-0.3,0.93-0.63,1.21-0.92c0.28-0.32,0.34-0.52,0.27-0.89
				c-0.12-0.38-0.45-0.82-0.88-1.22c-0.43-0.4-0.94-0.76-1.48-1.15L303.91,211.91z"/>
		</g>
		<g class="st9">
			<path class="st5" d="M319.91,224.91c0.67,0.01,1.34,0.15,1.99,0.43c0.64,0.27,1.3,0.71,1.73,1.5c0.2,0.4,0.32,0.9,0.25,1.4
				c-0.07,0.5-0.31,0.92-0.57,1.26c-0.54,0.68-1.23,1.02-1.88,1.27c-1.34,0.45-2.69,0.44-3.97,0.6l-3.89,0.46l0.27-1.12
				c1.23,0.37,2.65,0.95,3.35,2.63c0.34,0.85,0.14,1.95-0.35,2.64c-0.48,0.71-1.1,1.16-1.71,1.5c-1.23,0.66-2.52,0.99-3.8,1.14
				c-1.28,0.15-2.57,0.12-3.82-0.14l-0.01-0.2c1.2-0.41,2.36-0.75,3.47-1.18c1.1-0.41,2.18-0.88,3.07-1.45
				c0.44-0.28,0.83-0.59,1.07-0.88c0.24-0.3,0.3-0.53,0.25-0.85c-0.15-0.69-1.04-1.51-2-2.14l-2.73-1.78l3,0.65
				c1.22,0.27,2.5,0.33,3.73,0.1c1.23-0.22,2.39-0.84,3.36-1.46c0.49-0.3,0.93-0.63,1.21-0.92c0.28-0.32,0.34-0.52,0.27-0.89
				c-0.12-0.38-0.45-0.82-0.88-1.22c-0.43-0.4-0.94-0.76-1.48-1.15L319.91,224.91z"/>
		</g>
	</g>
	<path class="st10" d="M196.95,210.53c56.63,1.66,138.05,13.96,186.33,45.18c0.53,0.34,0.19,1.17-0.43,1.04
		c-11.38-2.39-42.18-4-47.17-4.77c-13-2-23-2-36.61-3.13c-22.49-1.86-45.06-2.57-67.44-5.47c-11.19-1.45-22.34-3.17-33.44-5.16
		c-5.05-0.9-29.43-2.4-32.07-6.6C160.54,222.74,189.96,210.32,196.95,210.53z"/>
	<g>
		<path class="st5" d="M203.58,218.89c3.33-0.11,6.67-0.21,10.01-0.28l10.02-0.02l10.01,0.28l10.01,0.5
			c13.34,0.84,26.63,2.43,39.83,4.5c13.18,2.23,26.28,4.94,39.2,8.38l9.65,2.7l9.59,2.91l9.49,3.2c3.14,1.13,6.28,2.28,9.4,3.44
			c-3.2-0.96-6.38-1.94-9.56-2.94l-9.61-2.76l-9.64-2.63l-9.69-2.43c-12.95-3.12-25.99-5.83-39.14-7.9
			c-13.13-2.22-26.36-3.78-39.62-4.94l-9.96-0.78l-9.98-0.56l-9.99-0.43C210.25,219.08,206.91,219,203.58,218.89z"/>
	</g>
	<g>
		<path class="st5" d="M190.36,223.09l10.01-0.14l10.01,0.08l10,0.35l10,0.57c13.32,0.92,26.59,2.5,39.78,4.61
			c13.17,2.19,26.26,4.9,39.18,8.26l9.66,2.63l9.6,2.84l9.52,3.1l9.44,3.31l-9.52-3.07l-9.58-2.86l-9.63-2.7l-9.68-2.49
			c-12.94-3.2-26-5.91-39.16-8.02c-13.15-2.18-26.39-3.75-39.68-4.83l-9.97-0.71l-9.99-0.49l-10-0.33L190.36,223.09z"/>
	</g>
	<g>
		<path class="st5" d="M190.44,230.14c12.36-0.34,24.73-0.1,37.07,0.63c12.35,0.72,24.66,2.01,36.91,3.7
			c12.24,1.78,24.42,3.98,36.48,6.73l9.02,2.16l8.98,2.33l8.92,2.55l8.86,2.74l-8.93-2.49l-8.97-2.33l-9-2.19l-9.04-2.02
			c-12.07-2.59-24.23-4.79-36.46-6.49c-12.22-1.78-24.51-3.04-36.82-3.93C215.15,230.65,202.8,230.21,190.44,230.14z"/>
	</g>
	<path class="st10" d="M131.81,226.67c9.06,1.89,18.18,3.51,27.33,4.87c5.3,0.78,11.23,1.33,15.54-1.86s4.31-11.59-0.92-12.76
		c10.05,5.54,23.03,5.32,32.89-0.56s16.22-17.2,16.11-28.68c4.17-4.41,11.2-3.66,17.22-4.48c6.02-0.82,12.87-6.49,9.94-11.81
		c-1.41-2.57-4.7-3.11-7.32-4.42c-33.93-16.99-38.37-19.6-60.93-23.99c-15.82-3.08-43.68-0.76-56.42,12.6
		c-7.76,8.14-17.08,26.39-21.06,36.64C96.16,212.96,114.33,223.02,131.81,226.67z"/>
	<path class="st3" d="M342.53,213.47c-42.91-21.14-86.87-40.17-131.66-56.99c-16.8-6.31-34.38-12.4-52.26-10.88
		c-28.57,2.43-53.79,26.63-57.4,55.07c-0.72,5.65-0.53,11.85,2.89,16.42c3.59,4.8,9.83,6.64,15.65,8.09
		c88.41,22.06,180.89,20.38,271.02,33.76c-14.93-6.63-29.86-13.26-44.79-19.89c9.46,3.17,19.09,5.83,28.85,7.91
		c7.19,1.53,11.55,2.66,7.36-5.08C374.77,228.22,355.67,219.95,342.53,213.47z"/>
	<path class="st11" d="M167.87,141.46"/>
	<path class="st11" d="M170.9,141.95c-19.93-16.25-41.69-53.33-41.27-79.03c-2.24,0.17-4.48,0.34-6.73,0.51
		c-3.03-8.55-6.07-17.1-9.1-25.65c-2.46,0.55-4.91,1.1-7.37,1.65c-1.66-7.32-3.33-14.65-4.99-21.97c-2.07,2.04-4.13,4.08-6.2,6.12
		C92.58,18,89.92,12.42,87.26,6.83c-0.81,2.59-1.63,5.18-2.44,7.78c-2.43-3.89-4.85-7.78-7.28-11.67
		c-2.98,24.9-6.03,50.13-15.32,73.42C51.21,83.81,44.8,96.12,43.9,109.38s4.86,27.81,14.75,36.68c8.12,7.29,16.02,33.92,20.02,49.92
		"/>
	<g class="st9">
		<path class="st5" d="M383.03,316.96c1.23,1.26,2.21,2.8,2.74,4.57c0.54,1.76,0.53,3.81-0.25,5.6c-0.39,0.9-0.95,1.74-1.71,2.4
			c-0.75,0.65-1.7,1.16-2.68,1.31c-0.98,0.18-1.98,0.07-2.87-0.28c-0.88-0.37-1.65-1.01-2.02-1.82c1.42,1.07,3.12,1.07,4.5,0.59
			c1.38-0.48,2.35-1.64,2.94-2.99c0.59-1.37,0.76-2.91,0.57-4.5C384.06,320.26,383.55,318.65,383.03,316.96z"/>
	</g>
	<g class="st9">
		<path class="st5" d="M372.53,308.97c1.23,1.26,2.21,2.8,2.74,4.57c0.54,1.76,0.53,3.81-0.25,5.6c-0.39,0.9-0.95,1.74-1.71,2.4
			c-0.75,0.65-1.7,1.16-2.68,1.31c-0.98,0.18-1.98,0.07-2.87-0.28c-0.88-0.37-1.65-1.01-2.02-1.82c1.42,1.07,3.12,1.07,4.5,0.59
			c1.38-0.48,2.35-1.64,2.94-2.99c0.59-1.37,0.76-2.91,0.57-4.5C373.56,312.26,373.06,310.65,372.53,308.97z"/>
	</g>
	<g class="st9">
		<path class="st5" d="M361.53,300.97c1.23,1.26,2.21,2.8,2.74,4.57c0.54,1.76,0.53,3.81-0.25,5.6c-0.39,0.9-0.95,1.74-1.71,2.4
			c-0.75,0.65-1.7,1.16-2.68,1.31c-0.98,0.18-1.98,0.07-2.87-0.28c-0.88-0.37-1.65-1.01-2.02-1.82c1.42,1.07,3.12,1.07,4.5,0.59
			c1.38-0.48,2.35-1.64,2.94-2.99c0.59-1.37,0.76-2.91,0.57-4.5C362.56,304.26,362.06,302.65,361.53,300.97z"/>
	</g>
	<g class="st9">
		<path class="st5" d="M351.53,292.97c1.23,1.26,2.21,2.8,2.74,4.57c0.54,1.76,0.53,3.81-0.25,5.6c-0.39,0.9-0.95,1.74-1.71,2.4
			c-0.75,0.65-1.7,1.16-2.68,1.31c-0.98,0.18-1.98,0.07-2.87-0.28c-0.88-0.37-1.65-1.01-2.02-1.82c1.42,1.07,3.12,1.07,4.5,0.59
			c1.38-0.48,2.35-1.64,2.94-2.99c0.59-1.37,0.76-2.91,0.57-4.5C352.56,296.26,352.06,294.65,351.53,292.97z"/>
	</g>
	<g>
		<path class="st5" d="M420.28,331.1c-7.81-7.02-15.74-13.89-23.86-20.54c-8.11-6.65-16.36-13.14-24.82-19.34
			c-8.41-6.27-17.02-12.27-25.75-18.08l-6.57-4.32l-6.64-4.23l-6.68-4.17l-6.73-4.09l6.86,3.87l6.8,3.98l6.72,4.11l6.66,4.21
			c8.83,5.69,17.45,11.7,25.92,17.92c8.42,6.28,16.69,12.77,24.71,19.56C404.94,316.75,412.75,323.78,420.28,331.1z"/>
	</g>
	<g>
		<path class="st12" d="M198.93,247.14c3.28,2.05,6.76,3.74,10.41,4.93l0.68,0.22c0.18,0.05,0.6,0.17,0.81,0.47
			c0.47,0.58,0.26,1.52-0.44,1.84c-0.16,0.07-0.36,0.11-0.5,0.11l-0.36,0.02l-0.72,0.04l-1.45,0.07l-2.9,0.14l-2.82,0.1
			c-0.07,0.01-0.13,0.08-0.14,0.14c0,0.02,0,0.02,0,0.06l0.03,0.17l0.06,0.35c0.09,0.46,0.19,0.92,0.32,1.38
			c0.25,0.91,0.58,1.8,0.99,2.65c0.82,1.71,1.94,3.29,3.32,4.62c0.35,0.33,0.71,0.65,1.08,0.94c0.35,0.26,0.85,0.64,0.98,1.17
			c0.16,0.51,0.06,1.09-0.24,1.53c-0.28,0.46-0.84,0.69-1.3,0.8c-1.88,0.54-3.86,0.72-5.81,0.57l0.2-0.3l3.71,6.68
			c0.38,0.58,0.5,1.45,0.21,2.15c-0.26,0.71-0.87,1.29-1.62,1.5c-0.18,0.06-0.38,0.08-0.56,0.1l-0.48,0.03l-0.95,0.05l-1.91,0.1
			l0.3-0.79c1.62,1.57,2.08,4.14,1.07,6.18c-1.02,2.04-3.39,3.22-5.64,2.83l0.43-0.91c0.52,0.46,0.84,1.14,0.87,1.8
			c0.05,0.66-0.11,1.29-0.39,1.85c-0.28,0.56-0.69,1.06-1.23,1.43c-0.52,0.35-1.11,0.56-1.69,0.68c-1.18,0.22-2.34,0.1-3.45-0.1
			c-1.1-0.21-2.18-0.46-3.24-0.77c-2.13-0.62-4.19-1.47-6.14-2.5c-1.96-1.02-3.78-2.29-5.48-3.68l0.06-0.08
			c1.78,1.28,3.69,2.37,5.66,3.29c1.97,0.94,4.03,1.64,6.12,2.2c1.05,0.27,2.11,0.49,3.18,0.66c1.06,0.16,2.12,0.23,3.1,0.01
			c0.98-0.21,1.82-0.72,2.22-1.59c0.43-0.83,0.39-1.89-0.24-2.41l-1.5-1.24l1.93,0.33c1.77,0.3,3.72-0.68,4.55-2.27
			c0.84-1.59,0.5-3.78-0.8-5.05l-0.77-0.76l1.08-0.04l1.91-0.06l0.95-0.03l0.48-0.01c0.13-0.01,0.25-0.02,0.38-0.05
			c1.01-0.23,1.6-1.53,0.99-2.5l-3.43-6.83l-0.17-0.34l0.37,0.04c1.9,0.22,3.84,0.04,5.69-0.45c0.48-0.1,0.87-0.29,1.12-0.68
			c0.24-0.36,0.31-0.84,0.17-1.25c-0.12-0.44-0.46-0.68-0.87-0.98c-0.39-0.29-0.77-0.61-1.13-0.94c-1.46-1.3-2.71-2.86-3.63-4.61
			c-0.47-0.87-0.86-1.78-1.16-2.73c-0.16-0.47-0.28-0.95-0.38-1.44l-0.07-0.37l-0.04-0.18c-0.01-0.08-0.02-0.2-0.01-0.3
			c0.05-0.42,0.37-0.77,0.78-0.87c0.24-0.05,0.31-0.03,0.44-0.04l0.36-0.02l0.72-0.03l1.45-0.07l2.9-0.09l1.45-0.05l0.73-0.02
			l0.36-0.01c0.1-0.01,0.14-0.01,0.21-0.04c0.21-0.07,0.31-0.44,0.15-0.63c-0.07-0.16-0.71-0.29-1.12-0.47
			c-3.66-1.35-7.14-3.21-10.22-5.56L198.93,247.14z"/>
	</g>
	<g>
		<path class="st12" d="M233.75,274.94c3.13,0.92,6.29,1.66,9.49,2.19l1.2,0.2l0.61,0.1c0.24,0.07,0.54,0.07,0.81,0.49
			c0.14,0.23,0.05,0.59-0.1,0.73c-0.14,0.15-0.29,0.23-0.42,0.28c-0.26,0.1-0.55,0.11-0.74,0.11l-1.22,0.04
			c-1.63,0.06-3.26,0.08-4.89,0.09l-1.22,0.01c-0.5,0-0.57-0.01-0.71,0.19c-0.05,0.09-0.06,0.2-0.03,0.3
			c0.05,0.11,0.16,0.32,0.25,0.47c0.19,0.33,0.43,0.64,0.69,0.93c1.04,1.17,2.42,2.08,3.87,2.76c0.37,0.17,0.74,0.32,1.12,0.47
			c0.2,0.08,0.41,0.2,0.57,0.39c0.18,0.19,0.2,0.55,0.05,0.76c-0.31,0.42-0.77,0.52-1.18,0.6l-1.22,0.17
			c-1.63,0.2-3.27,0.25-4.91,0.21l0.16-0.38l2.09,1.93l1.05,0.96l0.52,0.48c0.18,0.16,0.47,0.49,0.41,0.91
			c-0.06,0.4-0.32,0.66-0.55,0.82c-0.24,0.17-0.5,0.27-0.75,0.35c-0.51,0.16-1.05,0.16-1.51,0.18l-2.84,0.11l0.19-0.87
			c0.72,0.36,1.53,0.94,1.69,1.99c0.07,0.51-0.13,1.04-0.41,1.41c-0.29,0.37-0.66,0.63-1.02,0.84c-0.73,0.41-1.51,0.63-2.29,0.77
			c-0.78,0.14-1.58,0.17-2.38,0.1l0.26-1.01c0.27,0.13,0.57,0.3,0.8,0.62c0.24,0.33,0.27,0.84,0.12,1.18
			c-0.31,0.68-0.84,0.98-1.35,1.22c-1.04,0.42-2.05,0.49-3.06,0.51c-1.01,0.02-2-0.08-2.97-0.2c-0.97-0.11-1.95-0.25-2.91-0.41
			c-1.94-0.31-3.85-0.75-5.73-1.29c-1.89-0.52-3.73-1.21-5.51-1.99l0.04-0.09c3.69,1.26,7.5,2.05,11.33,2.55
			c1.91,0.24,3.87,0.44,5.75,0.42c0.93-0.02,1.89-0.13,2.66-0.45c0.37-0.16,0.71-0.44,0.8-0.66c0.03-0.11,0.03-0.14-0.02-0.21
			c-0.05-0.07-0.19-0.17-0.35-0.25l-2.73-1.25l2.99,0.24c0.7,0.06,1.42,0.02,2.12-0.08c0.69-0.11,1.39-0.3,1.98-0.62
			c0.6-0.31,1.03-0.78,0.96-1.26c-0.04-0.49-0.55-0.99-1.14-1.28l-1.74-0.85l1.93-0.01l2.84-0.02c0.49,0,0.91,0.01,1.31-0.1
			c0.39-0.08,0.79-0.35,0.8-0.52c0.02-0.07-0.02-0.16-0.17-0.32l-0.5-0.51l-1-1.01l-2-2.02l-0.42-0.43l0.59,0.05
			c1.61,0.13,3.24,0.07,4.85-0.09c0.77-0.12,1.74-0.08,2.15-0.63c0.17-0.25-0.12-0.52-0.47-0.65c-0.38-0.14-0.77-0.29-1.14-0.45
			c-1.5-0.66-2.98-1.47-4.18-2.68c-0.29-0.3-0.58-0.63-0.82-0.99c-0.13-0.19-0.22-0.33-0.35-0.59c-0.11-0.28-0.11-0.61,0.02-0.89
			c0.12-0.28,0.36-0.51,0.66-0.62c0.34-0.1,0.52-0.06,0.73-0.08l1.22-0.04c1.63-0.05,3.26-0.1,4.89-0.11l1.22-0.01
			c0.22,0,0.35-0.01,0.47-0.05c0.05-0.02,0.09-0.04,0.09-0.04c-0.01-0.01-0.05,0.11-0.01,0.16c0.06,0.06-0.08-0.06-0.23-0.07
			l-0.6-0.11l-1.21-0.23c-3.2-0.68-6.37-1.58-9.39-2.84L233.75,274.94z"/>
	</g>
	<path class="st13" d="M12.26,122.33c9.57-0.51,19.24-1.63,28.16-5.14c2.24-0.88,3.53-2.66,1.11-3.96c-2.09-1.13-7.52,0.84-9.6,1.34
		C25.06,116.22,18.41,118.83,12.26,122.33z"/>
	<g>
		<path class="st10" d="M54.32,101.01c-1.17-1.85-1.41-4.25-1.02-6.44c0.4-2.21,1.36-4.28,2.7-6.03c1.38-1.75,3.11-3.05,4.69-4.47
			c1.6-1.4,3.12-2.87,4.51-4.45c1.38-1.59,2.65-3.21,3.78-4.9c1.11-1.72,2-3.55,2.79-5.43c1.63-3.74,2.53-7.77,2.91-12l0.2-0.01
			c0.91,4.2,0.45,8.73-1.14,12.81c-1.62,4.06-4.38,7.72-7.79,10.32c-1.66,1.35-3.34,2.63-4.83,4.13c-1.48,1.49-2.72,3.22-3.77,4.94
			c-1.04,1.73-2,3.51-2.56,5.43c-0.57,1.91-0.73,3.93-0.31,6.02L54.32,101.01z"/>
	</g>
</g>
<path class="st5" d="M209.5,193.97c3.76-7.12,1.05-17.53-6.58-20.29c6.35,0.6,9.93-8.24,6.99-13.85
	c-2.94-5.61-9.34-8.37-15.27-10.71c-20.19-7.98-43.31-15.91-62.85-6.56c-14.24,6.81-22.85,21.22-30.64,34.85
	c-17.71,30.99,5.65,49.03,36.29,52.51c21.71,2.47,43.07-3.66,28.67-27.87C180.1,205,201.03,210.02,209.5,193.97z"/>
</svg>
