<!-- Generator: Adobe Illustrator 23.1.1, SVG Export Plug-In  -->
<svg version="1.1" xmlns="http://www.w3.org/2000/svg" xmlns:xlink="http://www.w3.org/1999/xlink" x="0px" y="0px"
	 width="168.53px" height="196.86px" viewBox="0 0 168.53 196.86" style="enable-background:new 0 0 168.53 196.86;"
	 xml:space="preserve">
<style type="text/css">
	.st0{fill:#303CD3;}
</style>
<defs>
</defs>
<path class="st0" d="M27.26,168.68c-6.33,0-12.65-0.01-18.98,0c-3.39,0.01-6.16-0.9-7.67-4.34c-1.45-3.29-0.12-5.67,1.92-8.12
	c12.51-15.01,18.51-32.33,18.57-51.86c0.05-15.5,1.24-30.89,6.74-45.6c8.07-21.58,23.39-34.13,46.41-36.83
	c2.72-0.32,3.31-1.38,3.22-3.77c-0.12-3.66-0.13-7.33,0-10.99c0.14-4.1,3.14-7.17,6.77-7.18c3.63-0.01,6.66,3.06,6.8,7.15
	c0.13,3.82,0.08,7.66,0.01,11.49c-0.03,1.93,0.41,3,2.68,3.24c30.61,3.2,45.62,24.23,50.96,51.19c1.98,9.99,2.75,20.11,2.7,30.26
	c-0.11,20.07,5.9,37.88,18.89,53.24c2.12,2.51,3.02,5.08,1.44,8.2c-1.57,3.11-4.26,3.93-7.46,3.93c-12.49-0.01-24.97,0.1-37.46-0.08
	c-3.19-0.05-4.44,0.81-5.39,4.05c-4.54,15.48-16.74,24.2-33.14,24.21c-16.39,0.01-28.64-8.72-33.2-24.16
	c-0.94-3.19-2.12-4.23-5.36-4.09C39.59,168.86,33.42,168.68,27.26,168.68z M147.22,154.6c-0.6-1.25-0.9-1.98-1.29-2.67
	c-8.32-14.77-12.56-30.56-12.38-47.58c0.11-10.31-0.84-20.58-2.94-30.71c-4.83-23.26-17.5-35.95-39.76-38.13
	c-27.37-2.68-45.43,8.27-52.23,35.48c-2.88,11.55-3.66,23.29-3.69,35.1c-0.02,8.88-1.42,17.49-3.84,26.01
	c-2.22,7.8-5.95,14.94-9.77,22.5C63.44,154.6,104.97,154.6,147.22,154.6z M103.61,168.67c-11.15,0-22.21,0-33.28,0
	c-1.78,0-3.57,0-5.43,0c2.04,9.17,8.84,14.09,19.11,14.15C94.57,182.89,101.56,177.96,103.61,168.67z"/>
</svg>
