<!-- Generator: Adobe Illustrator 23.1.1, SVG Export Plug-In  -->
<svg version="1.1" xmlns="http://www.w3.org/2000/svg" xmlns:xlink="http://www.w3.org/1999/xlink" x="0px" y="0px" width="290.4px"
	 height="159.82px" viewBox="0 0 290.4 159.82" style="enable-background:new 0 0 290.4 159.82;" xml:space="preserve">
<style type="text/css">
	.st0{fill:#AB4400;}
	.st1{fill:#565B61;}
	.st2{fill:url(#SVGID_1_);}
	.st3{fill:#343434;}
	.st4{fill:#FFFFFF;}
	.st5{fill:#020202;}
	.st6{fill:none;stroke:#000000;stroke-width:2;stroke-miterlimit:10;}
	.st7{fill:#B79186;}
	.st8{fill:none;}
	.st9{fill:#B8BCC8;}
	.st10{fill:#D8DDF0;}
	.st11{fill:#4A4D52;}
	.st12{fill:#3B3E43;}
	.st13{fill:none;stroke:#020202;stroke-width:2;stroke-miterlimit:10;}
	.st14{fill:none;stroke:#070707;stroke-width:2;stroke-miterlimit:10;}
	.st15{fill:none;stroke:#000000;stroke-width:3;stroke-miterlimit:10;}
	.st16{fill:#C79795;}
	.st17{fill:none;stroke:#000000;stroke-miterlimit:10;}
	.st18{fill:url(#SVGID_2_);}
</style>
<defs>
</defs>
<g>
	<path class="st0" d="M274.69,22.69"/>
	<path class="st1" d="M168.19,122.89c20.13,6.25,42.54,7.01,61.91-1.31s34.97-26.67,36.78-47.67c1-11.56-2-23.57,1.52-34.62
		c2.4-7.54,7.73-15.62,4.02-22.61c-2.17-4.09-6.09-8.14-10.6-10.71c-7.23-4.13-16.34-3.54-24.6-2.45
		c-9.22,1.22-16.8,7.54-24.16,13.22c-22.43,17.35-47.71,31.01-74.5,40.28C94.7,72.2,47.56,75.45,1.14,74.42
		c-0.43-0.01-0.73,0.41-0.59,0.82c2.34,6.79,9.91,10.39,16.68,13.14c5.68-0.47,11.36-0.94,17.04-1.41
		c19.54-1.61,39.39-3.21,58.88-0.2c8.03,1.24,15.67,2.63,22.11,7.66c7.37,5.75,15.47,10.84,23.59,15.46
		C148.18,115.18,157.95,119.71,168.19,122.89z"/>
	<linearGradient id="SVGID_1_" gradientUnits="userSpaceOnUse" x1="126.6505" y1="157.0122" x2="230.0107" y2="40.2574">
		<stop  offset="0.6911" style="stop-color:#FFFFFF"/>
		<stop  offset="0.706" style="stop-color:#F0F1F1"/>
		<stop  offset="0.7346" style="stop-color:#CACBCD"/>
		<stop  offset="0.7736" style="stop-color:#8C8F93"/>
		<stop  offset="0.774" style="stop-color:#8B8E92"/>
		<stop  offset="0.8134" style="stop-color:#565B61"/>
	</linearGradient>
	<path class="st2" d="M178.42,125c6.08,1.31,12.28,2.03,18.5,2.13c13.97,0.24,28.2-2.66,40.42-9.6c3-1.7,6.02-3.61,8.63-5.88
		c2.25-1.95,3.67-4.57,5.81-6.69c5.13-5.06,9.16-11.21,11.69-17.96c0.8-2.14,1.45-4.58,0.51-6.66c-0.79-1.74-2.58-2.88-4.45-3.24
		c-1.87-0.36-3.82-0.04-5.65,0.5c-7.86,2.34-13.85,8.51-20.09,13.84c-4.88,4.17-10.6,8.18-17.12,9.09
		c-6.67,0.93-13.68,1.35-20.45,1.44c-14.59,0.2-29.21-1.87-43.17-6.13c-7.74-2.37-15.27-5.4-23.12-7.36
		c-6.54-1.63-13.41-2.5-20.05-1.56c-1.43,0.2-1.89,2.03-0.72,2.88c1.3,0.94,2.59,1.89,3.01,2.08c2.2,1.03,3.92,2.37,5.91,3.79
		c4.44,3.18,8.96,6.24,13.58,9.15c9.2,5.78,18.84,10.92,28.99,14.83C166.43,121.87,172.37,123.69,178.42,125z"/>
	<path class="st3" d="M268.26,21.41c-3.57-2.54-9.79-6.72-14.15-6.43c-4.37,0.29-8.27,6.67-12.04,8.89
		c4.84-0.86,9.14,6.28,13.97,7.19c1.53,0.29,2.9-2.36,4.43-2.06c2.39,0.46,4.5,1.83,6.73,2.76c0.77,0.32,1.62,0.48,2.45,0.36
		c2.06-0.31,2.37-1.87,2.62-3.3c0.26-1.5,2.07-7.11,0.83-8.06C271.52,19.55,268.76,21.76,268.26,21.41z"/>
	<g>
		<g>
			<ellipse class="st4" cx="255.51" cy="22.42" rx="5.73" ry="5.73"/>
			<circle class="st5" cx="255.72" cy="22.21" r="4.51"/>
			<ellipse class="st6" cx="256.15" cy="22.43" rx="5.85" ry="5.84"/>
		</g>
		<circle class="st4" cx="257.2" cy="21.16" r="1.25"/>
	</g>
	<path class="st7" d="M219.74,131.72c0.89,0.41,1.79,0.8,2.75,1c1.26,0.25,2.55,0.16,3.84,0.08c6.42-0.37,12.86-0.1,19.28,0.17
		c2.47,0.1,5.35,0.44,6.62,2.56c-2.6-1.44-5.8-1.77-8.63-0.87c2.19,0.29,4.25,1.47,5.61,3.21c-8.85-3.35-19.05,0.85-28.14-1.76
		c-1.08-0.31-2.16-0.72-3.29-0.72c-1.26,0.01-2.46,0.53-3.61,1.05c-4.29,1.93-9.07,4.41-10.23,8.97c-0.03-2.56,1.62-4.87,3.61-6.47
		s4.36-2.66,6.52-4.02c0.7-0.44,1.46-1.1,1.33-1.91c-0.12-0.74-0.91-1.15-1.6-1.44c-3.65-1.52-7.44-2.89-10.99-4.61
		c2.4-0.68,5.11-1.53,7.47-0.5C213.53,127.89,216.47,130.22,219.74,131.72z"/>
	<path class="st7" d="M171.36,138.22c2.37-1.3,4.77-2.62,7.39-3.29c2.62-0.67,5.53-0.62,7.89,0.7c1.78,1,3.11,2.64,4.3,4.3
		c2.99,4.19,5.41,8.78,7.15,13.62c-0.12-6.05-3.23-11.59-6.25-16.83c6.16,3.86,10.76,10.16,12.56,17.2
		c0.64-3.95-0.66-8.01-2.81-11.39c-2.14-3.37-5.08-6.16-8.05-8.84c4.64-1.67,9.57-2.52,14.5-2.5c-2.03-1.88-5.01-2.3-7.77-2.21
		c-2.76,0.09-5.54,0.59-8.28,0.19c-4.24-0.63-7.86-3.34-10.98-6.27c-3.13-2.93-6.01-6.2-9.7-8.38c-1.45,0.56-2.91,1.13-4.36,1.69
		c0.65-0.25,6.61,5.51,7.45,6.18c1.72,1.36,5.8,3.34,6.15,5.7c0.37,2.52-2.34,3.59-4.1,4.52
		C174.14,133.82,172.21,135.71,171.36,138.22z"/>
	<path class="st4" d="M173.18,112.56c-0.67,1.43-1.34,2.86-2.01,4.28c-0.74-0.57-1.72-0.81-2.64-0.67c0.1,0.72-0.17,1.48-0.71,1.97
		c-2.58-1.66-5.17-3.31-7.75-4.97C164.11,111.83,168.97,111.87,173.18,112.56z"/>
	<g>
		<path class="st8" d="M11.39,96.09"/>
	</g>
	<g>
		<path class="st8" d="M89.54,93.98"/>
	</g>
	<path class="st9" d="M2.93,80.43c0.25,2.18,2.08,3.91,4.12,4.71c2.04,0.8,4.29,0.84,6.48,0.86c13.01,0.16,26.02,0.27,39.04,0.34
		c12.97,0.07,27.53,0.85,40.03-3.15c-4.45-3.22-6.64-4.14-12.17-3.5c-6.25,0.73-12.53,1.29-18.81,1.69
		c-12.57,0.8-25.17,0.96-37.75,0.47C22,81.78,3.03,81.3,2.93,80.43z"/>
	<path class="st10" d="M5.65,84.19c0.25,2.18,2.08,3.91,4.12,4.71s4.29,0.84,6.48,0.86c13.01,0.16,26.02,0.27,39.04,0.34
		c12.97,0.07,27.53,0.85,40.03-3.15c-4.45-3.22-6.64-4.14-12.17-3.5c-6.25,0.73-12.53,1.29-18.81,1.69
		c-12.57,0.8-25.17,0.96-37.75,0.47C24.72,85.54,5.75,85.06,5.65,84.19z"/>
	<path class="st11" d="M109.97,66.49c28.03-8.68,55.34-19.91,82.37-31.51c12.13-5.2,29.76,4.09,39.96,16.65
		c9.87,12.15,1.77,34.95-9.89,43.1c-12.02,8.4-28.41,7.13-42.96,4.33c-0.33-0.06-0.67-0.13-1-0.19c-17.5-3.43-33.85-7.54-51.64-8.4
		c-7.74-0.37-15.55-0.17-23.17-1.65c-7.71-1.49-15.04-4.33-22.24-7.58c-0.96-0.44-0.98-1.8-0.02-2.25c3.13-1.48,6.23-3.28,9.38-4.52
		C97.51,71.8,103.04,68.64,109.97,66.49z"/>
	<path class="st12" d="M182.05,47.14c8.95-1.34,20.02-0.45,27.02,5.15c6.43,5.15,10.04,15.69,10.29,22.71s-3.98,14.05-10.59,17.27
		c-8.29,4.04-18.31,1.94-27.33-0.33c-13.87-3.49-27.68-7.16-41.44-11.01c-11.22-3.14-28.32-1.2-39.47-5.5
		c-1.52-0.59-1.44-1.39,0.15-1.73C126.24,68.09,156.74,50.93,182.05,47.14z"/>
	<g>
		<path class="st4" d="M171.96,66.47c-0.43,0.48-0.85,0.93-1.16,1.4c-0.31,0.47-0.47,0.92-0.4,1.26c0.12,0.73,0.81,1.08,1.86,1.18
			c0.54,0.02,1.07,0.33,1.36,0.75c0.29,0.42,0.38,0.91,0.31,1.35c-0.14,0.49-0.03,1.01,0.33,1.45c0.35,0.43,0.88,0.72,1.44,0.86
			c0.56,0.15,1.15,0.12,1.74,0.04c1.17-0.17,2.4-0.53,3.83-0.42c0.35,0.03,0.72,0.07,1.08,0.17l0.15,0.04
			c0.1,0.03,0.2,0.07,0.3,0.13c0.19,0.11,0.37,0.26,0.5,0.45c0.26,0.37,0.36,0.85,0.24,1.31c-0.06,0.23-0.17,0.44-0.32,0.61
			l-0.22,0.23c-0.08,0.09-0.15,0.17-0.21,0.25c-0.12,0.16-0.19,0.3-0.22,0.4c-0.04,0.12-0.03,0.26-0.03,0.33
			c0.02,0.08-0.01,0.07,0.02,0.12c0.06,0.12,0.67,0.11,1.31,0.05c1.25-0.07,2.5-0.11,3.79,0l0.04,0.2
			c-1.16,0.56-2.35,0.97-3.54,1.35c-0.56,0.13-1.23,0.53-2.36,0.18c-0.55-0.19-1.02-0.7-1.2-1.21c-0.2-0.51-0.21-1.02-0.12-1.5
			c0.11-0.51,0.35-0.93,0.61-1.25c0.13-0.16,0.27-0.31,0.41-0.44l0.1-0.1l0.04-0.04l-0.03,0.04c-0.04,0.06-0.08,0.13-0.1,0.21
			c-0.04,0.15,0,0.3,0.09,0.42c0.04,0.06,0.1,0.11,0.16,0.14c0.03,0.01,0.06,0.03,0.09,0.03l-0.08-0.03
			c-0.23-0.09-0.48-0.16-0.74-0.21c-1.05-0.2-2.3-0.15-3.61-0.36c-1.3-0.2-2.64-0.59-3.63-1.56c-0.5-0.46-0.9-1.17-0.95-1.93
			c-0.1-0.39-0.44-0.47-0.56-0.38c-0.7,0.07-1.55-0.03-2.28-0.55c-0.35-0.25-0.66-0.59-0.87-0.99c-0.21-0.42-0.28-0.86-0.26-1.31
			c0.06-0.94,0.65-1.6,1.2-2c0.57-0.42,1.18-0.67,1.82-0.82L171.96,66.47z"/>
	</g>
	<g>
		<path class="st4" d="M157,68.79c-0.7,0.68-1.09,1.4-1.21,2.11l-0.01,0.03c-0.03,0.12,0.09-0.25,0.01-0.44
			c-0.06-0.21-0.2-0.38-0.41-0.47c-0.07-0.05-0.29-0.07-0.23-0.06l0.02,0l0.18,0l0.35,0l0.7,0.03c0.47,0.02,0.93,0.08,1.39,0.18
			l0.09,0.02l0.04,0.01l0.02,0.01l0.01,0l0.1,0.02c0.26,0.05,0.51,0.26,0.61,0.52c0.1,0.26,0.05,0.57-0.08,0.76
			c-0.03,0.04-0.03,0.04-0.05,0.06c-0.06,0.06-0.11,0.12-0.17,0.19c-0.12,0.13-0.22,0.29-0.3,0.47c-0.16,0.35-0.21,0.78-0.09,1.17
			c0.12,0.39,0.41,0.73,0.76,0.94c0.18,0.11,0.37,0.18,0.57,0.22c0.1,0.02,0.2,0.03,0.29,0.03c0.2,0.02,0.47,0.14,0.63,0.36
			c0.19,0.19,0.2,0.63,0.22,0.63c0.02,0.09,0.05,0.19,0.09,0.27c0.07,0.18,0.15,0.35,0.24,0.51c0.18,0.32,0.39,0.63,0.65,0.9
			c0.52,0.55,1.2,0.94,1.87,1.24c1.42,0.67,3.24,0.85,5.16,1.37l0.01,0.2c-0.91,0.39-1.85,0.63-2.85,0.74
			c-0.99,0.1-2.06,0.04-3.09-0.33c-1.07-0.38-1.96-1.14-2.59-2.07c-0.31-0.47-0.57-0.99-0.68-1.55c-0.06-0.28-0.09-0.57-0.07-0.86
			c0.01-0.26,0.04-0.71,0.13-0.47c0.03,0.02,0.09,0.01,0.06-0.02c-0.13-0.06-0.26-0.11-0.38-0.18c-0.24-0.14-0.46-0.29-0.66-0.46
			c-0.4-0.34-0.72-0.76-0.96-1.24c-0.23-0.48-0.39-1.01-0.41-1.58c-0.01-0.29,0.02-0.58,0.09-0.88c0.03-0.15,0.09-0.29,0.15-0.43
			c0.01-0.03,0.04-0.09,0.04-0.09c-0.12,0.17-0.17,0.45-0.07,0.68c0.08,0.23,0.32,0.42,0.54,0.47l0.08,0.01c0.01,0,0,0,0,0l-0.01,0
			l-0.02,0l-0.04,0l-0.09,0c-0.47,0.02-0.94-0.01-1.4-0.07l-0.7-0.1l-0.35-0.06l-0.17-0.03l-0.02,0c0.05,0.01-0.19-0.02-0.27-0.07
			c-0.23-0.11-0.39-0.3-0.46-0.53c-0.09-0.22,0.04-0.61,0.02-0.52l0.02-0.05c0.51-1.05,1.55-1.79,2.61-1.77L157,68.79z"/>
	</g>
	<g>
		<path class="st4" d="M189.17,57.41c0.12,0.79-0.28,1.57-0.43,2.17c-0.07,0.3-0.1,0.6-0.06,0.82c0.04,0.23,0.14,0.32,0.25,0.39
			c0.11,0.07,0.32,0.13,0.57,0.15c0.26,0.03,0.52,0,0.93-0.02l0.56-0.03l0.14,0c0.08,0,0.18,0.01,0.27,0.03
			c0.19,0.03,0.37,0.1,0.53,0.2c0.32,0.19,0.57,0.48,0.7,0.83c0.07,0.17,0.1,0.36,0.11,0.54c0,0.09,0,0.18-0.01,0.27l-0.02,0.1
			c-0.09,0.46-0.02,1.05,0.3,1.51c0.16,0.24,0.36,0.41,0.65,0.56c0.3,0.15,0.7,0.27,1.04,0.59c0.37,0.34,0.44,0.84,0.45,1.21
			c0.02,0.39,0,0.7,0.1,0.99c0.18,0.6,0.66,1.08,1.19,1.4c0.53,0.32,1.16,0.48,1.79,0.62l0.99,0.18l0.14,0.02
			c0.09,0.02,0.18,0.04,0.27,0.08c0.17,0.07,0.34,0.16,0.48,0.29c0.29,0.23,0.5,0.6,0.58,0.9c0.41,1.32,0.93,2.5,1.7,3.2
			c0.73,0.7,2.2,1.29,3.4,1.96c1.24,0.64,2.47,1.22,3.87,1.6l-0.01,0.2c-1.47,0.31-3.02,0.05-4.43-0.33
			c-0.72-0.19-1.4-0.42-2.08-0.67c-0.69-0.25-1.47-0.57-2.17-1.16c-0.69-0.59-1.17-1.35-1.47-2.1c-0.31-0.75-0.5-1.5-0.64-2.22
			c0-0.04,0.02,0.01,0.04,0c0.01,0,0.02,0,0.03,0l0.01,0l-0.12-0.04c-0.35-0.11-0.72-0.22-1.08-0.37c-0.72-0.29-1.43-0.72-2.01-1.3
			c-0.57-0.58-0.99-1.3-1.16-2.09c-0.15-0.81,0.11-1.6-0.32-1.88c-0.2-0.15-0.52-0.21-0.89-0.3c-0.38-0.08-0.82-0.28-1.16-0.56
			c-0.69-0.55-1.16-1.41-1.18-2.38l0-0.16l-0.01,0.01c-0.01,0.01-0.01,0.01-0.01,0.02c-0.01,0.02-0.01,0.03,0,0.04
			c0.01,0.01,0.02,0.01,0.03,0.02c0,0,0.02,0,0.01,0l-0.13,0l-0.51,0c-0.63,0-1.72,0.06-2.57-0.76c-0.43-0.4-0.6-1.04-0.55-1.53
			c0.04-0.5,0.22-0.9,0.43-1.25c0.43-0.69,0.93-1.11,1.2-1.76L189.17,57.41z"/>
	</g>
	<path class="st6" d="M115.69,68.81c28.03-8.68,55.34-19.91,82.37-31.51c12.13-5.2,29.76,4.09,39.96,16.65
		c9.87,12.15,1.77,34.95-9.89,43.1c-12.02,8.4-28.41,7.13-42.96,4.33c-0.33-0.06-0.67-0.13-1-0.19c-17.5-3.43-33.85-7.54-51.64-8.4
		c-7.74-0.37-15.55-0.17-23.17-1.65c-7.71-1.49-15.04-4.33-22.24-7.58c-0.96-0.44-0.98-1.8-0.02-2.25c3.13-1.48,6.23-3.28,9.38-4.52
		C103.22,74.12,108.76,70.96,115.69,68.81z"/>
	<path class="st13" d="M173.3,138.41c2.37-1.3,4.77-2.62,7.39-3.29c2.62-0.67,5.53-0.62,7.89,0.7c1.78,1,3.11,2.64,4.3,4.3
		c2.99,4.19,5.41,8.78,7.15,13.62c-0.12-6.05-3.23-11.59-6.25-16.83c6.16,3.86,10.76,10.16,12.56,17.2
		c0.64-3.95-0.66-8.01-2.81-11.39c-2.14-3.37-5.08-6.16-8.05-8.84c4.64-1.67,9.57-2.52,14.5-2.5c-2.03-1.88-5.01-2.3-7.77-2.21
		c-2.76,0.09-5.54,0.59-8.28,0.19c-4.24-0.63-7.86-3.34-10.98-6.27c-3.13-2.93-6.01-6.2-9.7-8.38c-1.45,0.56-2.91,1.13-4.36,1.69
		c0.65-0.25,6.61,5.51,7.45,6.18c1.72,1.36,5.8,3.34,6.15,5.7c0.37,2.52-2.34,3.59-4.1,4.52
		C176.08,134.02,174.15,135.9,173.3,138.41z"/>
	<path class="st14" d="M219.61,133.3c0.89,0.41,1.79,0.8,2.75,1c1.26,0.25,2.55,0.16,3.84,0.08c6.42-0.37,12.86-0.1,19.28,0.17
		c2.47,0.1,5.35,0.44,6.62,2.56c-2.6-1.44-5.8-1.77-8.63-0.87c2.19,0.29,4.25,1.47,5.61,3.21c-8.85-3.35-19.05,0.85-28.14-1.76
		c-1.08-0.31-2.16-0.72-3.29-0.72c-1.26,0.01-2.46,0.53-3.61,1.05c-4.29,1.93-9.07,4.41-10.23,8.97c-0.03-2.56,1.62-4.87,3.61-6.47
		s4.36-2.66,6.52-4.02c0.7-0.44,1.46-1.1,1.33-1.91c-0.12-0.74-0.91-1.15-1.6-1.44c-3.65-1.52-7.44-2.89-10.99-4.61
		c2.4-0.68,5.11-1.53,7.47-0.5C213.41,129.47,216.35,131.8,219.61,133.3z"/>
	<path class="st15" d="M180.57,126.01c-1.14-0.14-2.27-0.15-3.39-0.41c-13.39-3.12-25.38-10.13-37.33-16.93
		c-8.12-4.62-16.22-9.71-23.59-15.46c-6.45-5.03-15.19-3.28-23.31-3.28c-21.87,0-37.95,0-57.9,0c-5.79,0-16.22-0.82-22.36-0.71
		c-1.13,0.02-2.26-0.23-3.23-0.8c-5.12-2.98-5.8-8.25-7.92-14.39c-0.14-0.41,0.16-0.83,0.59-0.82c46.42,1.03,93.56-2.22,137.42-17.4
		c26.8-9.27,52.07-22.94,74.5-40.28c7.35-5.69,14.94-12,24.16-13.22c8.25-1.09,17.36-1.66,24.6,2.45c3.84,2.19,8.42,6.62,10.6,10.71
		c3.71,6.99-1.61,15.07-4.02,22.61c-3.53,11.06-0.53,23.06-1.52,34.62c-1.81,21-17.41,39.35-36.78,47.67
		c-13.41,5.76-27.08,7.54-41.67,7.27"/>
	<g>
		<path class="st16" d="M272.49,22.69c0,0,8.46,0.51,15.71,8.19l-12.35,1.38c-4.33,0.48-8.62-1.29-10.83-4.57
			c-0.03-0.05-0.06-0.09-0.09-0.14C261.92,22.95,272.49,22.69,272.49,22.69z"/>
		<g>
			<path d="M264.49,27.2c1.92-0.54,3.9-0.82,5.9-0.92c2-0.11,4,0,5.99,0.28c1.98,0.29,3.94,0.75,5.82,1.44
				c1.88,0.67,3.7,1.53,5.36,2.62c-1.81-0.82-3.65-1.52-5.54-2.07c-1.89-0.54-3.81-0.97-5.75-1.24c-1.94-0.29-3.9-0.42-5.87-0.45
				C268.44,26.83,266.47,26.97,264.49,27.2z"/>
		</g>
	</g>
	<g>
		<path class="st17" d="M278.06,23.82c3.1,1.01,7.37,3.07,11.29,7.22L277,32.42c-4.33,0.48-8.62-1.29-10.83-4.57
			c-0.03-0.05-0.06-0.09-0.09-0.14c-1.62-2.47,0.66-3.69,3.13-4.29C272.14,22.72,275.2,22.89,278.06,23.82z"/>
	</g>
</g>
</svg>
