<!-- Generator: Adobe Illustrator 23.1.1, SVG Export Plug-In  -->
<svg version="1.1" xmlns="http://www.w3.org/2000/svg" xmlns:xlink="http://www.w3.org/1999/xlink" x="0px" y="0px"
	 width="197.28px" height="172.98px" viewBox="0 0 197.28 172.98" style="enable-background:new 0 0 197.28 172.98;"
	 xml:space="preserve">
<style type="text/css">
	.st0{fill:#424244;}
	.st1{fill:none;stroke:#000000;stroke-width:2;stroke-miterlimit:10;}
	.st2{fill:#6D6F73;}
	.st3{fill:#78828E;}
	.st4{fill:#1B1A20;}
	.st5{fill:#4F5055;}
	.st6{fill:url(#SVGID_1_);}
	.st7{fill:#A8B5BB;}
	.st8{fill:#020202;}
	.st9{fill:#FFFFFF;}
	.st10{fill:#3B3E4D;}
	.st11{fill:url(#SVGID_2_);}
	.st12{fill:none;stroke:#000000;stroke-miterlimit:10;}
	.st13{fill:url(#SVGID_3_);}
	.st14{fill:url(#SVGID_4_);}
</style>
<defs>
</defs>
<g>
	<g>
		<path class="st0" d="M64.36,141.77l-5.07,9.87c0,0-1.27,1.41,0.7,1.55c1.38,0.1,3.45-0.15,4.57-0.3c1.1-0.15,2.17,0.51,2.45,1.58
			c0.01,0.04,0.02,0.09,0.03,0.13c0,0-1.97-0.15-3.18,0.03c-1.68,0.25-3.37,0.31-5.07,0.26l-9.09-0.29c0,0-1.97-0.14-3.1-0.42
			c-0.47-0.12-2.32-0.32-3.6,0.06c-0.21,0.06-0.38-0.19-0.23-0.36c0.69-0.81,2-1.99,3.69-1.81c1.92,0.21,5.93,0.43,7.77,0.52
			c0.59,0.03,1.15-0.27,1.45-0.79l5.86-10.02H64.36z"/>
		<path class="st1" d="M63.11,141.77l-5.07,9.87c0,0-1.27,1.41,0.7,1.55c1.38,0.1,3.45-0.15,4.57-0.3c1.1-0.15,2.17,0.51,2.45,1.58
			c0.01,0.04,0.02,0.09,0.03,0.13c0,0-1.97-0.15-3.18,0.03c-1.68,0.25-3.37,0.31-5.07,0.26l-9.09-0.29c0,0-1.97-0.14-3.1-0.42
			c-0.47-0.12-2.32-0.32-3.6,0.06c-0.21,0.06-0.38-0.19-0.23-0.36c0.69-0.81,2-1.99,3.69-1.81c1.92,0.21,5.93,0.43,7.77,0.52
			c0.59,0.03,1.15-0.27,1.45-0.79l5.86-10.02H63.11z"/>
	</g>
	<path class="st2" d="M48.41,156.6c-0.12,0.03-0.21-0.12-0.11-0.21c0.54-0.49,1.58-1.33,2.52-1.45c1.31-0.17,7.94,0.44,8.25,0.47
		c0.01,0,0.01,0,0.02,0c0.13,0.04,1.46,0.39,2.24-1.41c0,0,0-0.01,0.01-0.01l3.06-5.24l2.37-4.06c0.02-0.04,0.06-0.06,0.11-0.06
		h0.56c0.09,0,0.15,0.1,0.11,0.18l-5.92,10.5c-0.44,0.78-1.3,1.22-2.18,1.12C56.89,156.16,51.57,155.74,48.41,156.6z"/>
	<path class="st3" d="M12.45,110.41c9.58,20.5,31.11,34.85,53.71,35.79c12.1,0.51,24.05-2.52,36.13-3.33
		c19.77-1.34,39.91,3.42,57,13.45c1.52-2.17-0.98-4.86-3.2-6.31c-23.61-15.45-47.64-30.25-72.05-44.4
		c-10.77-6.24-19.07-12.47-27.64-21.5S41.46,63.3,43.28,50.98c0.28-1.87-1.62-4.75-2.98-6.07c-1.11-1.07-2.84-1.01-4.38-0.89
		c-4.69,0.37-12.61-0.61-16.56,2.38c-3.25,2.46-5.4,8.2-7,11.79C7.64,68.77,5.88,80.66,7.28,92.16
		C7.98,97.89,9.18,105.5,12.45,110.41z"/>
	<path class="st4" d="M191.45,160.64c1.57,0.89,3.21,1.85,4.19,3.37c1.28,1.99,1.23,4.61,1.62,6.97c0.23,1.4-1.22,2.46-2.48,1.81
		c-19.87-10.27-39.14-21.7-57.68-34.21c3.92-0.53,8.95-2.13,12.88-1.22c4.34,1.01,8.8,4.69,12.64,6.88
		C172.23,149.7,181.84,155.17,191.45,160.64z"/>
	<path class="st5" d="M164.94,149.68c1.18,0.46,2.15-0.99,1.29-1.91c-16.19-17.35-26.91-39.26-40.71-58.7
		c-2.07-2.92-4.39-5.93-7.73-7.26c-5.1-2.03-10.73,0.45-15.99,2.04c-6.73,2.04-13.8,2.62-20.71,3.89
		c-6.92,1.27-13.92,3.35-19.31,7.86c0.48-0.4,2.84,2.59,3.14,2.92c1.44,1.58,1.67,1.94,4.15,2.92c3.53,1.4,7.03,2.91,10.52,4.42
		c7.64,3.32,15.44,6.33,22.7,10.41c15.81,8.87,26.97,17.54,41.5,25.4C150.1,145.1,157.95,146.94,164.94,149.68z"/>
	<linearGradient id="SVGID_1_" gradientUnits="userSpaceOnUse" x1="44.2784" y1="36.5887" x2="20.8882" y2="-20.0203">
		<stop  offset="0.0354" style="stop-color:#78828E"/>
		<stop  offset="0.3671" style="stop-color:#697584"/>
		<stop  offset="0.8134" style="stop-color:#4F5E71"/>
	</linearGradient>
	<path class="st6" d="M15.97,19.67c1.15,0.2,2.3,0.4,3.45,0.61c-2.53-1.32-2.96-5.04-1.61-7.57s3.93-4.1,6.45-5.45
		C32.92,2.61,43.1-0.78,52.45,2.2c6.4,2.05,11.63,6.91,15.42,12.52c3.78,5.61,7.78,13.76,10.25,20.08
		C69.69,40.34,59,45.44,48.99,46.36c-4.93,0.45-9.93,2.25-14.85,2.89c-4.71,0.62-13.71,2.17-18.27,2.31
		c-0.03-4.34,3.67-14.59,3.26-19.02C18.71,28.12,17.65,23.76,15.97,19.67z"/>
	<g>
		<g>
			<ellipse class="st7" cx="29.9" cy="17.09" rx="5.09" ry="5.08"/>
			<circle class="st8" cx="30.09" cy="16.9" r="4.01"/>
			<ellipse class="st1" cx="29.89" cy="17.17" rx="5.19" ry="5.26"/>
		</g>
		<circle class="st9" cx="29.69" cy="15.4" r="1.11"/>
	</g>
	<path class="st10" d="M2.57,14.08c1.16-1.46,3.22-1.81,5.08-1.88c3.79-0.15,7.61,0.41,11.2,1.65c-0.8,3.55,1.59,6.87-0.12,9.73
		c-0.15-0.47-1.14-1.33-1.71-1.86c-1.21-1.12-2.66-2.01-4.07-2.86C9.68,16.87,6.19,15.26,2.57,14.08z"/>
	<g>
		<path class="st9" d="M22.25,95.56c0.05,1.25,0.85,2.05,1.66,2.67c0.88,0.63,1.59,0.71,2.8,0.73c0.57-0.01,1.18-0.11,1.75-0.35
			c0.56-0.24,1.09-0.57,1.57-0.96c0.97-0.79,1.84-1.76,2.85-2.5l0.28-0.21l0.5,0.11c0.56,0.12,1.17,0.03,1.69-0.21
			c0.53-0.23,1-0.57,1.33-1.01c0.67-0.88,0.86-2.41,0.08-3.83l0.13-0.15c0.81,0.35,1.44,1.14,1.72,2.04
			c0.3,0.91,0.26,1.97-0.21,2.93c-0.47,0.96-1.33,1.67-2.3,2c-0.97,0.33-2.05,0.33-3.02-0.06l0.78-0.1
			c-1.09,0.62-2.32,1.02-3.44,1.59c-0.57,0.28-1.11,0.61-1.66,0.95c-0.55,0.34-1.09,0.73-1.73,1.02c-0.66,0.3-1.33,0.49-2.19,0.37
			c-0.82-0.17-1.49-0.6-2.02-1.12c-0.52-0.53-0.9-1.18-1.09-1.89c-0.2-0.7-0.11-1.54,0.33-2.09L22.25,95.56z"/>
	</g>
	<g>
		<path class="st9" d="M47.63,111.17c0.19,1.02,0.65,1.72,1.18,2.25c0.27,0.26,0.57,0.44,0.8,0.53c0.17,0.09,0.57,0.17,0.97,0.15
			c0.42-0.02,0.89-0.15,1.31-0.39c0.42-0.24,0.78-0.57,1.11-0.94c0.67-0.73,1.17-1.65,1.84-2.39l0.26-0.29l0.69,0.14
			c0.36,0.07,0.67-0.04,0.98-0.33c0.3-0.28,0.57-0.67,0.78-1.15c0.21-0.49,0.34-1.08,0.4-1.69c0.04-0.62,0.04-1.26-0.15-1.96
			l0.16-0.13c0.68,0.4,1.14,1.13,1.39,1.88c0.26,0.77,0.33,1.6,0.15,2.46c-0.17,0.85-0.65,1.73-1.48,2.28
			c-0.79,0.57-2.04,0.76-2.96,0.21l0.95-0.15c-0.79,0.6-1.75,1.01-2.54,1.62c-0.4,0.3-0.79,0.62-1.16,0.97
			c-0.39,0.34-0.76,0.75-1.27,1.06c-0.52,0.31-1.16,0.54-1.94,0.33c-0.72-0.21-1.21-0.69-1.57-1.2c-0.69-1.01-0.79-2.43-0.08-3.34
			L47.63,111.17z"/>
	</g>
	<g>
		<path class="st9" d="M27.64,113.99c0.19,1.02,0.65,1.72,1.18,2.25c0.27,0.26,0.57,0.44,0.8,0.53c0.17,0.09,0.57,0.17,0.97,0.15
			c0.42-0.02,0.89-0.15,1.31-0.39c0.42-0.24,0.78-0.57,1.11-0.94c0.67-0.73,1.17-1.65,1.84-2.39l0.26-0.29l0.69,0.14
			c0.36,0.07,0.67-0.04,0.98-0.33c0.3-0.28,0.57-0.67,0.78-1.15c0.21-0.49,0.34-1.08,0.4-1.69c0.04-0.62,0.04-1.26-0.15-1.96
			l0.16-0.13c0.68,0.4,1.14,1.13,1.39,1.88c0.26,0.77,0.33,1.6,0.15,2.46c-0.17,0.85-0.65,1.73-1.48,2.28
			c-0.79,0.57-2.04,0.76-2.96,0.21l0.95-0.15c-0.79,0.6-1.75,1.01-2.54,1.62c-0.4,0.3-0.79,0.62-1.16,0.97
			c-0.39,0.34-0.76,0.75-1.27,1.06c-0.52,0.31-1.16,0.54-1.94,0.33c-0.72-0.21-1.21-0.69-1.57-1.2c-0.69-1.01-0.79-2.43-0.08-3.34
			L27.64,113.99z"/>
	</g>
	<path class="st0" d="M69.64,144.63l-5.07,9.87c0,0-1.27,1.41,0.7,1.55c1.38,0.1,3.45-0.15,4.57-0.3c1.1-0.15,2.17,0.51,2.45,1.58
		c0.01,0.04,0.02,0.09,0.03,0.13c0,0-1.97-0.15-3.18,0.03c-1.68,0.25-3.37,0.31-5.07,0.26l-9.09-0.29c0,0-1.97-0.14-3.1-0.42
		c-0.47-0.12-2.32-0.32-3.6,0.06c-0.21,0.06-0.38-0.19-0.23-0.36c0.69-0.81,2-1.99,3.69-1.81c1.92,0.21,5.93,0.43,7.77,0.52
		c0.59,0.03,1.15-0.27,1.45-0.79l5.86-10.02H69.64z"/>
	<path class="st1" d="M69.5,144.63l-5.07,9.87c0,0-1.27,1.41,0.7,1.55c1.38,0.1,3.45-0.15,4.57-0.3c1.1-0.15,2.17,0.51,2.45,1.58
		c0.01,0.04,0.02,0.09,0.03,0.13c0,0-1.97-0.15-3.18,0.03c-1.68,0.25-3.37,0.31-5.07,0.26l-9.09-0.29c0,0-1.97-0.14-3.1-0.42
		c-0.47-0.12-2.32-0.32-3.6,0.06c-0.21,0.06-0.38-0.19-0.23-0.36c0.69-0.81,2-1.99,3.69-1.81c1.92,0.21,5.93,0.43,7.77,0.52
		c0.59,0.03,1.15-0.27,1.45-0.79l5.86-10.02H69.5z"/>
	<path class="st1" d="M154.52,150.12c2.22,1.45,4.72,4.14,3.2,6.31c-17.09-10.03-37.23-14.79-57-13.45
		c-12.08,0.82-24.03,3.84-36.13,3.33c-22.36-0.94-43.67-14.98-53.39-35.12c-0.22-0.45-0.46-0.87-0.72-1.3
		c-2.97-4.91-4.11-12.13-4.77-17.62c-1.4-11.5,0.36-23.39,5.08-33.97c4.72-10.55,8.41-21.34,7.35-32.84
		c-0.42-4.56-1.36-9.4,0.62-13.53c2.25-4.71,7.58-7,12.57-8.52c9.16-2.79,19.84-4.11,27.72,1.34c7.11,4.92,11.24,12.93,14.79,20.81"
		/>
	<path class="st1" d="M80.68,36.99c-1.71-2.28-3.55-3.21-4.5-5.72c-1.09-2.88-1.78-4.56-2.93-6.84"/>
	<path class="st1" d="M166.76,151.77c1.18,0.46,2.15-0.99,1.29-1.91c-16.19-17.35-26.91-39.26-40.71-58.7
		c-2.07-2.92-4.39-5.93-7.73-7.26c-5.1-2.03-10.73,0.45-15.99,2.04c-6.73,2.04-13.8,2.62-20.71,3.89s-13.92,3.35-19.31,7.86
		c0.48-0.4,2.84,2.59,3.14,2.92c1.44,1.58,1.67,1.94,4.15,2.92c3.53,1.4,7.03,2.91,10.52,4.42c7.64,3.32,15.44,6.33,22.7,10.41
		c15.81,8.87,26.97,17.54,41.5,25.4C151.93,147.18,159.77,149.03,166.76,151.77z"/>
	<path class="st9" d="M122.49,84.1c1.1,0.8,2.29,1.7,2.11,3.35c-0.11,1.01-0.74,1.9-1.62,2.42c-1.92,1.15-4.13,0.72-6.2,0.28
		c1.94,0.27,4.04,0.61,5.18,2.42c0.6,0.95,0.58,2.22-0.2,3.04c-1.02,1.08-2.61,0.71-3.89,0.18c-2.93-1.22-5.59-3.09-7.73-5.43
		c3.15,2.14,6.08,4.61,8.73,7.34c0.91,0.94,1.87,2.11,1.33,3.48c-0.31,0.8-1.08,1.35-1.93,1.51c-1.7,0.32-3.19-0.56-4.53-1.49
		c-4.84-3.34-9-7.66-12.17-12.62l11.09,13c0.49,0.58,0.17,1.47-0.58,1.61c-3.98,0.72-8.3-0.5-11.25-3.28
		c-1.26,2.66-4.76,3.16-7.7,3.3c-2.83,0.14-5.7,0.28-8.49-0.25c-2.52-0.48-4.94-1.5-7.5-1.69c-2.5-0.19-5.03,0.42-7.51,0.04
		c-4.05-0.62-7.24-3.73-9.78-6.94c-6.32-7.95-10.55-17.55-12.18-27.57c-0.43-2.62-0.64-5.46,0.68-7.77c1.3-2.28,3.84-3.55,6.32-4.41
		c4.77-1.66,9.85-2.31,14.65-3.89c2.21-0.73,4.37-1.68,6.32-2.96c1.33-0.88,3.61-3.97,5.18-3.95c2.59,0.03,7.36,8.22,9.11,10.26
		c6.22,7.22,12.96,13.98,20.17,20.21C114.1,77.71,118.23,80.99,122.49,84.1z"/>
	<linearGradient id="SVGID_2_" gradientUnits="userSpaceOnUse" x1="66.6864" y1="36.3346" x2="86.9509" y2="91.1563">
		<stop  offset="0" style="stop-color:#78828E"/>
		<stop  offset="0.8134" style="stop-color:#60676F"/>
	</linearGradient>
	<path class="st11" d="M115.12,77.75c1.04,0.88,2.16,1.86,1.87,3.5c-0.18,1.01-0.88,1.85-1.78,2.31c-2,1.02-4.17,0.43-6.2-0.15
		c1.92,0.41,3.99,0.9,5,2.79c0.53,1,0.42,2.27-0.41,3.04c-1.1,1.01-2.66,0.52-3.89-0.1c-2.84-1.43-5.36-3.49-7.33-5.98
		c2.99,2.37,5.74,5.04,8.19,7.97c0.84,1.01,1.71,2.24,1.08,3.58c-0.37,0.78-1.17,1.27-2.03,1.37c-1.71,0.2-3.14-0.79-4.42-1.81
		c-4.59-3.69-8.44-8.32-11.25-13.51l9.42,12.81c0.8,1.09,0.02,2.64-1.33,2.64c-3.58,0-7.18-1.5-9.61-4.16
		c-1.45,2.57-4.98,2.83-7.92,2.76c-2.84-0.06-5.7-0.12-8.45-0.85c-2.48-0.66-4.82-1.85-7.36-2.23c-2.48-0.37-5.05,0.06-7.49-0.49
		c-4-0.91-6.96-4.25-9.27-7.64c-5.74-8.42-9.29-18.32-10.21-28.48c-0.24-2.65-0.25-5.52,1.22-7.73c1.46-2.19,4.08-3.28,6.62-3.97
		c4.88-1.33,9.98-1.62,14.88-2.86c2.25-0.57,4.48-1.37,6.51-2.52c1.38-0.78,3.88-3.72,5.44-3.59c2.58,0.21,6.76,8.76,8.36,10.92
		c5.69,7.67,11.94,14.92,18.69,21.67C107.21,70.75,111.09,74.33,115.12,77.75z"/>
	<path class="st1" d="M115.63,90.24c-0.78,0.72-1.97,0.71-2.91,0.31c-0.49-0.2-2.13-0.98-2.39-1.32c0.95,1.24,4.11,4.88,3.36,6.47
		c-0.37,0.78-1.17,1.27-2.03,1.37c-1.71,0.2-3.14-0.79-4.41-1.81c-4.59-3.69-8.44-8.32-11.25-13.51l9.42,12.81
		c0.81,1.1,0.02,2.64-1.34,2.64c-3.58,0-7.17-1.51-9.6-4.16c-1.45,2.57-4.98,2.83-7.92,2.76c-2.84-0.06-5.7-0.12-8.45-0.85
		c-2.48-0.66-4.82-1.85-7.36-2.23c-2.48-0.37-5.05,0.06-7.49-0.49c-4-0.91-6.96-4.25-9.27-7.64c-5.74-8.42-9.29-18.32-10.21-28.48
		c-0.24-2.65-0.25-5.52,1.22-7.73c1.46-2.19,4.08-3.28,6.62-3.97c4.88-1.33,9.98-1.62,14.88-2.86c2.25-0.57,4.48-1.37,6.51-2.52
		c1.38-0.78,3.88-3.72,5.44-3.59c2.58,0.21,6.76,8.76,8.36,10.92c5.69,7.67,11.94,14.92,18.69,21.67
		c3.73,3.74,7.62,7.32,11.65,10.73c1.04,0.88,2.16,1.86,1.87,3.5c-0.18,1.01-0.88,1.85-1.79,2.31c-1.99,1.01-4.17,0.43-6.2-0.16
		c1.92,0.41,3.99,0.9,5,2.79C116.58,88.21,116.46,89.48,115.63,90.24z"/>
	<path class="st3" d="M21.58,94.95"/>
	<path class="st12" d="M21.69,98.61c0.44,1.1,1.32,2.02,2.4,2.51c1.45,0.66,3.16,0.54,4.64-0.05s2.75-1.59,3.92-2.67
		c0.36-0.33,0.73-0.69,1.19-0.84c0.6-0.2,1.26-0.05,1.89-0.07c1.29-0.04,2.49-0.86,3.15-1.98c0.65-1.12,0.8-2.48,0.57-3.75
		c-0.15-0.81-0.45-1.61-1.01-2.21c-0.46-0.5-1.1-0.84-1.77-0.88c-0.21-0.01-0.37,0.21-0.3,0.41c0.35,0.93,0.65,1.9,0.58,2.89
		c-0.09,1.12-0.82,2.29-1.93,2.48c-0.63,0.11-1.3-0.09-1.92,0.07c-0.57,0.15-1.01,0.58-1.44,0.97c-0.99,0.92-2.08,1.77-3.34,2.25
		s-2.73,0.56-3.94-0.03c-1-0.49-1.72-1.44-1.89-2.52c-0.04-0.25-0.36-0.33-0.52-0.14c-0.23,0.26-0.43,0.53-0.52,0.89
		C21.23,96.81,21.36,97.8,21.69,98.61z"/>
	<path class="st12" d="M46.71,114.4c0.44,1.01,1.47,1.69,2.56,1.84c1.09,0.15,2.2-0.17,3.14-0.74s1.71-1.38,2.39-2.24
		c0.21-0.26,0.42-0.54,0.73-0.69c0.36-0.17,0.78-0.13,1.18-0.16c1.1-0.09,2.1-0.8,2.64-1.75s0.66-2.12,0.42-3.2
		c-0.24-1.07-0.82-2.05-1.55-2.87c-0.13-0.15-0.32-0.31-0.51-0.24c-0.22,0.08-0.23,0.39-0.18,0.63c0.12,0.7,0.29,1.4,0.29,2.11
		c0,0.71-0.19,1.45-0.67,1.98c-0.44,0.47-1.15,0.71-1.75,0.51c-0.12-0.04-0.25-0.02-0.34,0.07c-0.96,1.05-2.01,2.03-3.16,2.86
		c-0.49,0.35-1.03,0.69-1.64,0.71c-0.78,0.02-1.49-0.53-1.89-1.21c-0.25-0.43-0.4-0.9-0.51-1.38c-0.07-0.29-0.46-0.36-0.61-0.1
		c-0.24,0.39-0.46,0.79-0.59,1.25C46.44,112.62,46.35,113.56,46.71,114.4z"/>
	<path class="st12" d="M26.71,117.14c0.44,1.01,1.47,1.69,2.56,1.84s2.2-0.17,3.14-0.74s1.71-1.38,2.39-2.24
		c0.21-0.26,0.42-0.54,0.73-0.69c0.36-0.17,0.78-0.13,1.18-0.16c1.1-0.09,2.1-0.8,2.64-1.75c0.55-0.95,0.66-2.12,0.42-3.2
		c-0.24-1.07-0.82-2.05-1.55-2.87c-0.13-0.15-0.32-0.31-0.51-0.24c-0.22,0.08-0.23,0.39-0.18,0.63c0.12,0.7,0.29,1.4,0.29,2.11
		s-0.19,1.45-0.67,1.98c-0.44,0.47-1.15,0.71-1.75,0.51c-0.12-0.04-0.25-0.02-0.34,0.07c-0.96,1.05-2.01,2.03-3.16,2.86
		c-0.49,0.35-1.03,0.69-1.64,0.71c-0.78,0.02-1.49-0.53-1.89-1.21c-0.25-0.43-0.4-0.9-0.51-1.38c-0.07-0.29-0.46-0.36-0.61-0.1
		c-0.24,0.39-0.46,0.79-0.59,1.25C26.43,115.37,26.35,116.31,26.71,117.14z"/>
	<path class="st1" d="M1.68,14.26c1.16-1.46,3.22-1.81,5.08-1.88c3.79-0.15,7.61,0.41,11.2,1.65c-0.8,3.55-0.89,7.78,0.19,11.26
		c-0.15-0.47-1.45-2.86-2.02-3.39c-1.21-1.12-2.66-2.01-4.07-2.86C8.79,17.05,5.31,15.45,1.68,14.26z"/>
</g>
</svg>
