<!-- Generator: Adobe Illustrator 23.1.1, SVG Export Plug-In  -->
<svg version="1.1" xmlns="http://www.w3.org/2000/svg" xmlns:xlink="http://www.w3.org/1999/xlink" x="0px" y="0px" width="71.82px"
	 height="112.23px" viewBox="0 0 71.82 112.23" style="enable-background:new 0 0 71.82 112.23;" xml:space="preserve">
<style type="text/css">
	.st0{fill:#E2A56D;}
</style>
<defs>
</defs>
<g>
	<path class="st0" d="M35.07,91.27c5.12,0,10.56-4.61,16.3-13.84c0.89-1.44,2.74-1.9,4.17-1.04l11.51,6.96
		c1.47,0.89,1.95,2.84,1.07,4.34c-2.23,3.79-4.39,7.08-6.47,9.88c-2.57,3.46-6.43,6.76-11.58,9.92c-5.15,3.15-10.88,4.73-17.2,4.73
		c-9.26,0-17.06-4.02-23.38-12.06C3.16,92.14,0,81.28,0,67.61c0-15.62,2.72-30.2,8.16-43.72c2.94-7.06,7.17-12.81,12.68-17.24
		C26.35,2.22,32.01,0,37.82,0c5.81,0,10.48,0.94,14,2.82c3.53,1.88,6.36,3.98,8.49,6.31c2.13,2.33,4,5.75,5.62,10.25
		c1.62,4.51,2.76,8.19,3.42,11.04c0.66,2.86,1.21,6.99,1.65,12.4c0.41,5.04,0.68,9.75,0.8,14.13c0.09,3.23-2.03,6.08-5.11,6.86
		c-10.27,2.6-22.79,5-37.55,7.2c-1.64,0.25-2.82,1.78-2.63,3.47c0.53,4.61,1.47,8.41,2.8,11.38C30.95,89.47,32.86,91.27,35.07,91.27
		z M39.92,22.09c-3.24,0-6.14,3.31-8.71,9.92c-2.15,5.53-3.56,11.78-4.22,18.78c-0.2,2.1,1.7,3.79,3.72,3.35
		c5.13-1.12,9.76-2.21,13.91-3.26c1.39-0.35,2.36-1.64,2.34-3.11C46.76,30.64,44.41,22.09,39.92,22.09z"/>
</g>
</svg>
