<!-- Generator: Adobe Illustrator 23.1.1, SVG Export Plug-In  -->
<svg version="1.1" xmlns="http://www.w3.org/2000/svg" xmlns:xlink="http://www.w3.org/1999/xlink" x="0px" y="0px"
	 width="455.59px" height="94.31px" viewBox="0 0 455.59 94.31" style="enable-background:new 0 0 455.59 94.31;"
	 xml:space="preserve">
<style type="text/css">
	.st0{fill:#FDFDFD;}
	.st1{fill:#0D0D0D;}
	.st2{fill:#090909;}
</style>
<defs>
</defs>
<g id="OyWlNj_2_">
	<g>
		<path class="st0" d="M415.44,39.91c-0.38-0.04-0.77-0.09-1.15-0.13c0.2,0.26,0.39,0.52,0.59,0.78c1.78,3.12,5.27,3.71,8.01,5.42
			c2.12,1.33,4.52,2.76,4.21,5.65c-0.35,3.35-3.55,2.17-5.54,2.91c-0.14,0.05-0.15,0.47-0.23,0.73c2.37,0.78,4.95-0.14,7.26,1.29
			c5.51,3.41,10.07-0.34,14.85-2.23c0.8-0.32,0.31-0.49,0.01-0.79c-3.35-3.3,1.1-2.14,1.62-2.32c3.02-1.07,6.49,0.66,10.52-1.46
			c-4.55-0.59-9.12-2.03-11.43-0.95c-7.19,3.37-11.06-1.68-16.28-4.1C423.9,42.86,419.35,42.15,415.44,39.91z M339.15,52.56
			c2.88,1.44,2.92,2.14,1.33,9.71c4.19-2,5.11-2.73,7.52-5.96c2.97-3.98,5.68-4.1,9.14-0.35c2.81,3.04,5.84,5.92,7.42,10.24
			c3.45-7.79-2.16-12.14-5.97-16.44c-2.08-2.35-6.25-0.27-9.31,0.97C346.34,51.93,343.3,52.54,339.15,52.56z M69.58,86.18
			c3.06,0.47,5.39,0.1,7.54,1.31c4.01,2.26,8.6,0.51,10.22-2.28c1.93-3.33,4.05-2.22,6.3-2.59c1.04-0.17,2.3,0.57,3.77-1.65
			c-4.79,1.89-9-2.5-13.14,1.25c-0.7,0.64-2.27,0.53-3.09-0.66c-3.6-5.18-10-4.32-15.31-7.69c1.52,3.43,4.31,3.57,6.22,4.93
			c1.63,1.15,3.52,2.26,3.11,4.63C74.76,85.91,72.25,84.93,69.58,86.18z M210.56,11.22c4.3-0.78,7.85,4.04,12.35,1.73
			c4.6-2.36,8.15-7.17,12.13-5.92c-2.4,0.76-7.08-3-11.54,0.44c-0.97,0.75-2.12,0.09-2.94-1c-3.4-4.48-8.84-4.32-14.21-6.48
			c1.6,2.87,4.02,2.98,5.64,4.23c1.43,1.11,3.17,2.11,2.93,4.25C214.63,11.09,212.08,10.07,210.56,11.22z M387.18,31.67
			c0.03-0.49,0.06-0.98,0.09-1.47c-3.88,1.6-7.67-2.05-11.31,0.18c-2.67,1.64-3.9,0.94-5.78-1.07c-3.42-3.64-8.25-3.48-12.6-4.53
			c2.74,2.57,7.29,2.98,7.84,7.21c0.31,2.37-2.89,2.3-4.98,3.12c2.54,0.76,4.91,0.23,7.07,1.48c4.04,2.33,8.99,0.13,10.14-2.37
			c1.62-3.51,3.62-2.18,5.59-2.51C384.52,31.5,385.87,31.67,387.18,31.67z M316.62,64.82c-1.79-0.51-3.83-1.47-6.01,0.17
			c-1.91,1.44-3.36,1.28-4.98-0.75c-3.51-4.39-9.15-3.77-13.78-5.65c1.44,1.47,3.15,2.34,4.8,3.33c1.85,1.11,4.08,2.32,3.82,4.75
			c-0.31,2.95-3.51,1.06-4.93,2.11C303.36,73,310.55,72.44,316.62,64.82z M239.02,43.65c8.31,5.49,15.11,2.03,20.93-4.06
			c-1.92,0.02-4.34-1.5-6.84,0.65c-1.5,1.29-2.87,0.54-4.18-0.98c-3.29-3.83-7.79-4.55-13.9-4.88c4.12,2.42,8.36,3.01,8.57,7.08
			C243.74,44.25,240.59,43.11,239.02,43.65z M0,91.54c2.87-0.64,4.61-2.49,5.85-4.51c2.53-4.13,5-2.86,7.46-0.22
			c2.2,2.36,4.19,4.91,6.36,7.5c0.54-6-3.05-12.71-6.99-13.01c-4.07-0.32-7.48,2.51-11.48,2.67C2.68,86.66-0.08,88.8,0,91.54z
			 M290.11,33c4.41,2.37-1.16,4.94,0.54,7.44c2.45-0.84,4.1-2.51,5.32-4.45c2.32-3.7,4.75-2.88,7.24-0.41
			c2.41,2.4,4.65,4.95,6.21,8.53c2.1-6.19-1.19-10.26-4.79-12.88C300.06,27.9,295.48,33.65,290.11,33z M151.72,54.39
			c-3.65-0.08-7.21-2.54-10.91-0.42c-1.29,0.74-2.52,0.85-3.52-0.45c-3.29-4.26-8.62-3.82-13.15-6.46
			c1.43,4.63,11.51,3.35,6.11,11.02c4.21,1.51,9.27,3.11,12.26-0.86c2.36-3.13,4.66-2.31,7.25-2.56
			C150.42,54.59,151.07,54.48,151.72,54.39z M226.51,80.38c1.41-9.77-4.41-14.96-13.12-11.82c-2.09,0.75-4.23,0.7-6.54,1.27
			c5,2.33-0.94,4.93,0.38,7.33c5.01,0.2,4.99-8.19,10.41-6.44C221.98,72.11,223.92,76.63,226.51,80.38z M187.54,53.01
			c2.52-6.04-1.34-10.5-4.83-12.78c-4.49-2.93-9.35,2.43-15.46,2.32c2.27,1.02,3.72,1.31,2.4,3.27c-0.8,1.18-1.96,2.56-1.16,4.48
			c1.2-0.84,2.2-1.76,3.38-2.32c2.59-1.23,2.46-6.49,7.01-4.74c3.29,1.26,4.8,4.38,6.93,6.83C186.5,50.86,186.9,51.91,187.54,53.01z
			 M131.82,21.14c0.69-6.99-2.62-13.49-6.64-13.85c-4.07-0.37-7.45,2.72-11.53,2.45c2.24,2.86-1.88,4.98-1.22,7.63
			c5.04-0.16,5.21-8.06,10.35-6.49C127.12,12.2,129.45,16.48,131.82,21.14z M86.61,57.15c0.83-5.18-1.75-10.95-5.21-11.65
			c-3.59-0.72-6.53,1.92-10.02,2.31c-1.04,0.12-0.52,4.41-2.62,6.54c5.26,0.35,5.45-7.03,10-5.62
			C82.55,49.9,84.55,53.66,86.61,57.15z"/>
		<path class="st1" d="M415.44,39.91c3.91,2.25,8.46,2.95,12.44,4.8c5.22,2.42,9.09,7.47,16.28,4.1c2.31-1.08,6.88,0.36,11.43,0.95
			c-4.03,2.12-7.49,0.39-10.52,1.46c-0.51,0.18-4.97-0.98-1.62,2.32c0.31,0.3,0.8,0.47-0.01,0.79c-4.79,1.9-9.34,5.64-14.85,2.23
			c-2.31-1.43-4.89-0.51-7.26-1.29c0.08-0.26,0.08-0.68,0.23-0.73c1.99-0.74,5.19,0.44,5.54-2.91c0.31-2.89-2.09-4.32-4.21-5.65
			c-2.74-1.71-6.23-2.3-8.01-5.42C415.09,40.36,415.28,40.15,415.44,39.91z"/>
		<path class="st1" d="M339.15,52.56c4.15-0.03,7.19-0.63,10.13-1.82c3.05-1.24,7.22-3.32,9.31-0.97c3.81,4.3,9.43,8.65,5.97,16.44
			c-1.58-4.32-4.62-7.2-7.42-10.24c-3.46-3.75-6.17-3.63-9.14,0.35c-2.41,3.23-3.33,3.96-7.52,5.96
			C342.07,54.71,342.03,54,339.15,52.56z"/>
		<path class="st1" d="M69.58,86.18c2.67-1.25,5.18-0.27,5.61-2.76c0.41-2.36-1.48-3.47-3.11-4.63c-1.92-1.36-4.71-1.49-6.22-4.93
			c5.31,3.37,11.71,2.51,15.31,7.69c0.83,1.19,2.39,1.3,3.09,0.66c4.14-3.75,8.35,0.64,13.14-1.25c-1.47,2.22-2.73,1.48-3.77,1.65
			c-2.25,0.37-4.37-0.74-6.3,2.59c-1.62,2.8-6.22,4.54-10.22,2.28C74.97,86.27,72.64,86.65,69.58,86.18z"/>
		<path class="st1" d="M210.56,11.22c1.51-1.15,4.06-0.12,4.35-2.73c0.24-2.15-1.5-3.15-2.93-4.25c-1.61-1.25-4.04-1.36-5.64-4.23
			c5.37,2.16,10.81,1.99,14.21,6.48c0.82,1.09,1.98,1.74,2.94,1c4.46-3.44,9.14,0.32,11.54-0.44c-3.98-1.25-7.52,3.56-12.13,5.92
			C218.41,15.26,214.87,10.44,210.56,11.22z"/>
		<path class="st1" d="M387.18,31.67c-1.32,0-2.66-0.18-3.94,0.04c-1.97,0.33-3.97-1-5.59,2.51c-1.15,2.49-6.1,4.7-10.14,2.37
			c-2.16-1.25-4.53-0.72-7.07-1.48c2.09-0.81,5.29-0.74,4.98-3.12c-0.55-4.23-5.1-4.65-7.84-7.21c4.35,1.05,9.18,0.89,12.6,4.53
			c1.88,2.01,3.11,2.7,5.78,1.07c3.64-2.23,7.42,1.42,11.31-0.18C387.24,30.7,387.21,31.18,387.18,31.67z"/>
		<path class="st2" d="M316.62,64.82c-6.07,7.61-13.26,8.18-21.09,3.96c1.42-1.05,4.62,0.84,4.93-2.11
			c0.26-2.43-1.97-3.63-3.82-4.75c-1.64-0.99-3.36-1.86-4.8-3.33c4.63,1.88,10.27,1.25,13.78,5.65c1.62,2.03,3.07,2.19,4.98,0.75
			C312.79,63.36,314.84,64.31,316.62,64.82z"/>
		<path class="st1" d="M239.02,43.65c1.57-0.53,4.73,0.61,4.58-2.18c-0.21-4.08-4.45-4.67-8.57-7.08c6.12,0.33,10.61,1.04,13.9,4.88
			c1.31,1.52,2.67,2.27,4.18,0.98c2.5-2.15,4.92-0.64,6.84-0.65C254.13,45.68,247.33,49.14,239.02,43.65z"/>
		<path class="st1" d="M0,91.54c-0.08-2.74,2.68-4.88,1.21-7.57c4-0.16,7.41-2.99,11.48-2.67c3.94,0.31,7.53,7.01,6.99,13.01
			c-2.18-2.58-4.16-5.14-6.36-7.5c-2.46-2.64-4.93-3.91-7.46,0.22C4.61,89.05,2.87,90.9,0,91.54z"/>
		<path class="st1" d="M290.11,33c5.36,0.66,9.95-5.1,14.53-1.76c3.6,2.62,6.89,6.68,4.79,12.88c-1.55-3.58-3.8-6.14-6.21-8.53
			c-2.49-2.48-4.92-3.29-7.24,0.41c-1.22,1.94-2.87,3.61-5.32,4.45C288.95,37.93,294.53,35.36,290.11,33z"/>
		<path class="st1" d="M151.72,54.39c-0.65,0.09-1.3,0.2-1.96,0.26c-2.6,0.25-4.9-0.57-7.25,2.56c-2.99,3.97-8.06,2.36-12.26,0.86
			c5.4-7.67-4.68-6.39-6.11-11.02c4.53,2.65,9.86,2.2,13.15,6.46c1,1.3,2.23,1.19,3.52,0.45C144.51,51.85,148.07,54.31,151.72,54.39
			z"/>
		<path class="st1" d="M226.51,80.38c-2.6-3.75-4.54-8.27-8.87-9.67c-5.42-1.75-5.4,6.64-10.41,6.44c-1.32-2.4,4.62-5-0.38-7.33
			c2.31-0.57,4.45-0.51,6.54-1.27C222.11,65.42,227.92,70.61,226.51,80.38z"/>
		<path class="st1" d="M187.54,53.01c-0.63-1.1-1.03-2.15-1.73-2.94c-2.13-2.45-3.64-5.57-6.93-6.83c-4.55-1.75-4.42,3.51-7.01,4.74
			c-1.18,0.56-2.18,1.48-3.38,2.32c-0.8-1.92,0.36-3.29,1.16-4.48c1.32-1.96-0.12-2.26-2.4-3.27c6.12,0.11,10.98-5.25,15.46-2.32
			C186.2,42.51,190.06,46.97,187.54,53.01z"/>
		<path class="st2" d="M131.82,21.14c-2.37-4.66-4.7-8.95-9.04-10.27c-5.14-1.56-5.31,6.33-10.35,6.49
			c-0.66-2.65,3.46-4.77,1.22-7.63c4.08,0.27,7.46-2.82,11.53-2.45C129.2,7.66,132.51,14.15,131.82,21.14z"/>
		<path class="st1" d="M86.61,57.15c-2.06-3.48-4.06-7.25-7.84-8.42c-4.56-1.41-4.75,5.97-10,5.62c2.1-2.13,1.58-6.42,2.62-6.54
			c3.48-0.39,6.43-3.04,10.02-2.31C84.86,46.2,87.44,51.96,86.61,57.15z"/>
		<path class="st1" d="M414.88,40.56c-0.2-0.26-0.39-0.52-0.59-0.78c0.38,0.04,0.77,0.09,1.15,0.13
			C415.28,40.15,415.09,40.36,414.88,40.56z"/>
	</g>
</g>
</svg>
