<!-- Generator: Adobe Illustrator 23.1.1, SVG Export Plug-In  -->
<svg version="1.1" xmlns="http://www.w3.org/2000/svg" xmlns:xlink="http://www.w3.org/1999/xlink" x="0px" y="0px" width="61.47px"
	 height="11.11px" viewBox="0 0 61.47 11.11" style="enable-background:new 0 0 61.47 11.11;" xml:space="preserve">
<defs>
</defs>
<g>
	<path d="M6.7,3.55v0.02c0,0.07,0,0.14,0,0.2s0,0.13-0.01,0.19C6.63,4.44,6.47,4.88,6.22,5.28C5.96,5.68,5.64,6.02,5.26,6.3
		C4.88,6.58,4.46,6.78,4,6.91C3.54,7.03,3.07,7.06,2.59,6.98C2.6,7.12,2.61,7.25,2.61,7.39c0,0.14,0,0.33,0,0.59
		c0,0.25,0,0.6,0.01,1.03c0,0.43,0.02,1.01,0.04,1.74v0.02c-0.01,0-0.02,0-0.02,0.01c-0.01,0.01-0.01,0.01-0.02,0.01
		c-0.14,0.04-0.32,0.07-0.53,0.08c-0.21,0.01-0.44,0.02-0.67,0.03c-0.23,0.01-0.47,0-0.7-0.01s-0.43-0.02-0.6-0.04
		C0.07,10.1,0.06,9.31,0.06,8.45s0-1.73,0-2.63s0-1.8-0.01-2.71C0.05,2.2,0.03,1.33,0,0.5c0.41-0.11,0.86-0.19,1.34-0.24
		C1.83,0.21,2.31,0.2,2.8,0.24C3.28,0.28,3.75,0.37,4.21,0.5c0.46,0.13,0.87,0.33,1.22,0.6c0.35,0.27,0.65,0.6,0.88,1
		C6.54,2.5,6.67,2.98,6.7,3.55z M4.08,2.92C3.83,2.73,3.54,2.6,3.21,2.54C2.88,2.49,2.55,2.5,2.23,2.58c-0.02,0-0.04,0-0.04,0.01
		C2.2,2.77,2.2,2.96,2.2,3.17s0,0.4,0,0.6c0,0.2,0.02,0.39,0.03,0.58c0.01,0.19,0.05,0.35,0.1,0.5h0.04
		C2.53,4.83,2.7,4.83,2.88,4.82c0.18,0,0.36-0.02,0.53-0.04c0.18-0.02,0.35-0.06,0.51-0.11c0.17-0.05,0.31-0.14,0.43-0.26
		C4.43,4.3,4.49,4.18,4.52,4.04C4.56,3.9,4.56,3.75,4.54,3.61C4.51,3.48,4.46,3.34,4.39,3.23C4.31,3.1,4.21,3,4.08,2.92z"/>
	<path d="M9.27,3.38h0.25v0.04C9.51,4.63,9.49,5.86,9.46,7.12c-0.04,1.26-0.02,2.5,0.05,3.71c-0.05,0.06-0.17,0.09-0.38,0.1
		s-0.42,0-0.65,0s-0.46-0.01-0.67-0.02c-0.21-0.01-0.35,0-0.42,0.02C7.44,10.29,7.47,9.65,7.46,9C7.46,8.35,7.44,7.71,7.42,7.06
		C7.4,6.43,7.4,5.79,7.4,5.17s0.03-1.23,0.09-1.82V3.33c0.04-0.01,0.11-0.01,0.2,0C7.78,3.34,7.85,3.34,7.9,3.34
		c0.13,0.01,0.31,0.02,0.54,0.03S8.95,3.38,9.27,3.38z M7.42,0.1l2.04,0.04c0,0.06,0,0.17,0.01,0.32C9.48,0.63,9.48,0.8,9.49,0.98
		S9.5,1.36,9.5,1.55c0,0.2,0.01,0.37,0.01,0.52c-0.04,0.06-0.13,0.1-0.28,0.12S8.92,2.22,8.72,2.21c-0.19,0-0.4-0.02-0.62-0.03
		C7.88,2.17,7.67,2.17,7.48,2.17c0-0.29-0.01-0.59-0.04-0.91S7.42,0.56,7.42,0.1z"/>
	<path d="M16.32,8.04C16.3,8.3,16.28,8.56,16.26,8.8c-0.02,0.25-0.04,0.48-0.07,0.7c-0.03,0.22-0.07,0.4-0.11,0.56
		c-0.04,0.15-0.1,0.27-0.17,0.34c-0.17,0.24-0.39,0.41-0.67,0.51c-0.28,0.1-0.57,0.16-0.89,0.19c-0.32,0.02-0.65,0.02-0.99,0
		c-0.34-0.02-0.65-0.04-0.93-0.04c-0.51-0.09-0.94-0.31-1.29-0.66c-0.27-0.24-0.46-0.54-0.56-0.9c-0.1-0.36-0.16-0.74-0.18-1.13
		c-0.02-0.4-0.02-0.79-0.01-1.19c0.02-0.4,0-0.77-0.04-1.1c0-0.36,0.03-0.72,0.09-1.08c0.01-0.11,0.04-0.26,0.1-0.45
		s0.1-0.33,0.13-0.44c0.07-0.15,0.18-0.28,0.34-0.39c0.15-0.11,0.33-0.2,0.54-0.28c0.2-0.08,0.42-0.13,0.66-0.16
		c0.23-0.03,0.47-0.05,0.71-0.05c0.2,0.02,0.39,0.02,0.58,0.01c0.19-0.02,0.38-0.01,0.59,0.01c0.32,0.02,0.62,0.08,0.91,0.18
		s0.54,0.25,0.75,0.45c0.14,0.1,0.25,0.24,0.32,0.41s0.13,0.37,0.17,0.6s0.06,0.49,0.07,0.77c0.01,0.28,0.01,0.59,0.02,0.92
		c-0.13,0.03-0.28,0.04-0.44,0.04s-0.33,0-0.51-0.02c-0.18-0.01-0.35-0.02-0.51-0.04s-0.31-0.04-0.44-0.06
		c-0.05-0.35-0.19-0.62-0.44-0.82c-0.24-0.19-0.55-0.24-0.94-0.14c-0.21,0.06-0.38,0.17-0.51,0.33c-0.06,0.04-0.1,0.14-0.13,0.3
		c-0.04,0.31-0.06,0.63-0.06,0.95c0,0.32-0.01,0.65-0.03,1c-0.02,0.23,0.04,0.41,0.17,0.54c0.13,0.13,0.3,0.22,0.49,0.26
		c0.19,0.04,0.38,0.05,0.58,0.03s0.36-0.08,0.48-0.16c0.1-0.07,0.18-0.19,0.23-0.35c0.05-0.17,0.1-0.31,0.13-0.44
		c0.1,0.01,0.23,0.01,0.4,0.01S15.17,8,15.36,8c0.19-0.01,0.37-0.01,0.54-0.01C16.07,7.99,16.21,8.01,16.32,8.04z"/>
	<path d="M19.24,0.03v3.29c0,0.33-0.01,0.68-0.02,1.05c-0.02,0.37-0.01,0.67,0.02,0.9c0.17-0.15,0.32-0.32,0.44-0.5
		c0.12-0.18,0.24-0.36,0.35-0.55c0.11-0.19,0.22-0.37,0.34-0.56c0.11-0.19,0.25-0.37,0.4-0.54c0.13,0.05,0.3,0.08,0.51,0.08
		c0.21,0,0.43,0,0.65,0c0.22-0.01,0.45-0.02,0.67-0.03c0.22-0.02,0.4-0.02,0.54-0.01c-0.37,0.57-0.77,1.13-1.2,1.69
		c-0.43,0.55-0.85,1.11-1.27,1.67c0.45,0.73,0.9,1.45,1.36,2.17c0.46,0.72,0.87,1.46,1.25,2.23c-0.14,0-0.32,0.01-0.53,0.02
		c-0.21,0.02-0.44,0.03-0.67,0.04c-0.23,0.01-0.45,0.01-0.67,0c-0.21-0.01-0.4-0.03-0.55-0.06c-0.15-0.24-0.29-0.48-0.41-0.73
		s-0.25-0.5-0.37-0.74c-0.12-0.25-0.25-0.49-0.38-0.73c-0.13-0.24-0.29-0.47-0.46-0.69c0,0.18,0,0.39,0.02,0.63
		c0.01,0.24,0.02,0.49,0.02,0.75c0,0.26-0.01,0.52-0.02,0.79c-0.01,0.27-0.04,0.51-0.08,0.73c-0.11-0.01-0.25-0.01-0.41-0.01
		s-0.34,0.01-0.52,0.02c-0.18,0.01-0.36,0.01-0.55,0.01s-0.35-0.01-0.5-0.03c-0.07-1.86-0.08-3.69-0.04-5.48s0.06-3.59,0.04-5.42
		c0.15,0,0.32,0,0.5-0.01s0.37-0.01,0.56-0.02C18.45,0,18.62,0,18.79,0C18.96,0,19.11,0.01,19.24,0.03z"/>
	<path d="M32.74,3.45c0.01,0.06,0.02,0.12,0.02,0.18s0.01,0.12,0.01,0.18v0.15c-0.03,1.08-0.03,2.14,0.01,3.19s0.02,2.1-0.04,3.17
		c0,0.13,0,0.26-0.01,0.39c-0.01,0.13-0.07,0.21-0.19,0.23h-0.18c-0.16,0-0.32-0.01-0.49-0.02c-0.17-0.02-0.33-0.02-0.49-0.02
		c-0.11,0-0.22,0.01-0.32,0.02c-0.1,0.01-0.21,0.02-0.32,0.02c-0.07-0.02-0.12-0.06-0.14-0.12s-0.04-0.13-0.04-0.21
		c0-0.11,0.01-0.2,0.03-0.27s0.03-0.15,0.03-0.25c-0.24,0.24-0.54,0.44-0.91,0.61c-0.37,0.17-0.72,0.25-1.07,0.25
		c-0.39,0-0.72-0.13-1-0.4c-0.28-0.27-0.5-0.6-0.68-1s-0.31-0.83-0.4-1.31c-0.08-0.47-0.13-0.9-0.13-1.31c0-0.5,0.06-0.96,0.19-1.38
		s0.31-0.78,0.53-1.09c0.22-0.3,0.49-0.54,0.8-0.72c0.31-0.17,0.64-0.27,0.99-0.28c0.18,0,0.35,0,0.5,0.01
		c0.15,0,0.3,0.03,0.43,0.07s0.25,0.12,0.35,0.21c0.1,0.1,0.19,0.23,0.25,0.4c-0.01-0.16,0-0.3,0.02-0.41
		c0.02-0.11,0.04-0.23,0.04-0.35c0-0.01,0.03-0.02,0.1-0.02c0.06,0,0.14,0,0.22,0c0.08,0.01,0.16,0.01,0.24,0.01
		c0.08,0,0.13,0,0.17,0c0.17,0.01,0.38,0.02,0.62,0.03C32.14,3.42,32.42,3.43,32.74,3.45z M28.38,6.44
		c-0.04,0.13-0.07,0.26-0.08,0.4c-0.01,0.13-0.02,0.27-0.02,0.4c0,0.45,0.12,0.83,0.35,1.15s0.56,0.47,0.98,0.47
		c0.25,0,0.44-0.04,0.56-0.13s0.21-0.21,0.27-0.36c0.06-0.15,0.08-0.34,0.09-0.57c0-0.23,0.01-0.48,0.01-0.76
		c0-0.35,0-0.63-0.01-0.83C30.54,6,30.52,5.84,30.47,5.73s-0.12-0.18-0.23-0.21c-0.1-0.03-0.26-0.04-0.47-0.04
		c-0.41,0-0.73,0.1-0.97,0.29C28.57,5.96,28.43,6.19,28.38,6.44z"/>
	<path d="M38.8,0.38v0.17c0.01,0.2,0.02,0.35,0.02,0.46s0.01,0.2,0.02,0.28c0,0.09,0.01,0.18,0.02,0.27c0,0.1,0.01,0.23,0.01,0.41
		s0,0.41,0,0.7c0,0.29,0,0.67-0.02,1.14c0.02-0.09,0.13-0.17,0.33-0.24c0.2-0.07,0.44-0.12,0.74-0.14c0.29-0.02,0.6-0.02,0.92,0
		c0.32,0.02,0.62,0.09,0.89,0.19c0.22,0.08,0.41,0.22,0.56,0.41c0.15,0.2,0.28,0.43,0.38,0.71c0.09,0.28,0.17,0.58,0.21,0.91
		s0.07,0.67,0.07,1.02c-0.02,0.5-0.06,1-0.1,1.48c-0.05,0.49-0.16,0.93-0.32,1.33c-0.16,0.4-0.41,0.72-0.74,0.98
		c-0.33,0.25-0.78,0.4-1.35,0.44c-0.28,0.04-0.54,0.02-0.79-0.07s-0.45-0.28-0.6-0.58c-0.03-0.06-0.06-0.08-0.08-0.05
		c-0.02,0.03-0.05,0.06-0.07,0.11c0,0.11,0,0.19-0.01,0.25c0,0.06-0.01,0.14-0.01,0.24c0,0.05,0,0.08-0.02,0.1
		c-0.3,0.04-0.63,0.05-1,0.04c-0.37-0.01-0.71-0.02-1.02-0.02c-0.02-0.72-0.03-1.47-0.02-2.24s0.02-1.56,0.03-2.37
		c0.01-0.8,0.03-1.62,0.05-2.45s0.03-1.66,0.03-2.49V0.36c0.16-0.03,0.35-0.05,0.57-0.05c0.22,0,0.43,0,0.62,0
		c0.19,0,0.36,0.01,0.5,0.03C38.74,0.35,38.8,0.37,38.8,0.38z M41.13,6.19c-0.05-0.35-0.2-0.61-0.44-0.79
		c-0.25-0.18-0.57-0.27-0.98-0.27c-0.21,0-0.38,0.02-0.5,0.05s-0.22,0.11-0.28,0.23s-0.1,0.29-0.11,0.52
		c-0.02,0.22-0.02,0.53-0.02,0.92c0,0.32,0.01,0.61,0.02,0.88c0.01,0.27,0.06,0.49,0.13,0.68s0.18,0.34,0.32,0.45
		c0.14,0.11,0.34,0.17,0.6,0.17c0.21,0,0.4-0.05,0.57-0.17c0.17-0.11,0.31-0.26,0.44-0.44c0.12-0.19,0.21-0.4,0.27-0.63
		c0.06-0.23,0.09-0.48,0.09-0.73c0-0.14-0.01-0.29-0.02-0.44S41.18,6.33,41.13,6.19z"/>
	<path d="M45.63,3.38h0.25v0.04c-0.01,1.21-0.03,2.44-0.07,3.71c-0.04,1.26-0.02,2.5,0.05,3.71c-0.05,0.06-0.17,0.09-0.38,0.1
		s-0.42,0-0.65,0s-0.46-0.01-0.67-0.02c-0.21-0.01-0.35,0-0.42,0.02c0.05-0.63,0.07-1.27,0.07-1.92c-0.01-0.65-0.02-1.29-0.04-1.94
		c-0.02-0.64-0.03-1.27-0.03-1.9s0.03-1.23,0.09-1.82V3.33c0.04-0.01,0.11-0.01,0.2,0c0.09,0.01,0.17,0.01,0.22,0.01
		c0.13,0.01,0.31,0.02,0.54,0.03S45.31,3.38,45.63,3.38z M43.78,0.1l2.04,0.04c0,0.06,0,0.17,0.01,0.32
		c0.01,0.15,0.01,0.32,0.02,0.51s0.01,0.38,0.02,0.57c0,0.2,0.01,0.37,0.01,0.52c-0.04,0.06-0.13,0.1-0.28,0.12
		s-0.31,0.03-0.51,0.02c-0.19,0-0.4-0.02-0.62-0.03c-0.22-0.02-0.43-0.02-0.62-0.01c0-0.29-0.01-0.59-0.04-0.91
		S43.77,0.56,43.78,0.1z"/>
	<path d="M48.96,3.94c0.04-0.02,0.13-0.06,0.28-0.12c0.15-0.06,0.29-0.11,0.43-0.16c0.19-0.06,0.41-0.11,0.65-0.14
		c0.24-0.04,0.47-0.06,0.68-0.07c0.21-0.01,0.39-0.01,0.53-0.01c0.15,0.01,0.22,0.01,0.22,0.02c0,0.34,0,0.64-0.01,0.9
		c0,0.26-0.01,0.49-0.01,0.7s0,0.39,0,0.56s0,0.33,0.02,0.48L51.6,6.06c-0.05-0.02-0.1-0.04-0.16-0.05
		c-0.06-0.02-0.11-0.03-0.16-0.05c-0.12-0.03-0.24-0.06-0.37-0.08c-0.13-0.02-0.19-0.03-0.2-0.03C50.44,5.82,50.2,5.8,49.97,5.8
		s-0.42,0.04-0.58,0.11C49.22,5.98,49.09,6.09,49,6.24c-0.09,0.15-0.13,0.37-0.12,0.65c0.01,0.35,0.02,0.68,0.03,0.99
		c0.01,0.31,0.02,0.62,0.02,0.94s0,0.64,0.01,0.96c0.01,0.33,0.01,0.67,0.01,1.04v0.06c-0.17,0.05-0.33,0.08-0.46,0.09
		c-0.14,0.01-0.29,0.01-0.44,0.01c-0.15-0.01-0.31-0.01-0.49-0.02c-0.17-0.01-0.38,0-0.62,0.02c0-1.23-0.01-2.46-0.04-3.69
		c-0.03-1.23-0.02-2.5,0.02-3.83c0.12,0.01,0.22,0.02,0.3,0.02c0.08,0,0.15,0.01,0.23,0.01c0.07,0,0.14,0,0.23-0.01
		c0.08-0.01,0.18-0.01,0.3-0.02c0.04,0,0.11,0,0.22-0.01c0.11-0.01,0.22-0.02,0.33-0.03c0.12-0.01,0.21-0.01,0.3-0.01
		c0.08,0,0.13,0.02,0.13,0.04c0,0.08,0,0.14,0,0.18c0,0.04,0,0.07,0,0.1s0,0.05,0.01,0.08S48.96,3.88,48.96,3.94z"/>
	<path d="M56.34,0.54V0.38c0-0.01,0.07-0.02,0.2-0.04c0.13-0.02,0.3-0.02,0.49-0.03c0.2,0,0.4,0,0.62,0c0.22,0,0.41,0.02,0.57,0.05
		v0.99c0,1.67,0.02,3.32,0.07,4.95c0.05,1.63,0.05,3.17,0.02,4.6c-0.31,0-0.65,0.01-1.02,0.02c-0.37,0.02-0.71,0-1-0.04
		c-0.01-0.02-0.02-0.06-0.02-0.1c0-0.1,0-0.18-0.01-0.24c-0.01-0.06-0.01-0.15-0.01-0.25c-0.02-0.05-0.04-0.09-0.07-0.11
		c-0.02-0.02-0.05-0.01-0.08,0.05c-0.15,0.3-0.35,0.49-0.6,0.58s-0.52,0.11-0.79,0.07c-0.57-0.04-1.02-0.19-1.35-0.44
		c-0.33-0.26-0.58-0.58-0.74-0.98s-0.28-0.84-0.33-1.33c-0.06-0.49-0.09-0.98-0.1-1.48c0-0.35,0.02-0.69,0.07-1.02
		c0.05-0.33,0.12-0.63,0.21-0.91c0.1-0.27,0.22-0.51,0.38-0.71c0.16-0.19,0.34-0.33,0.56-0.41c0.27-0.1,0.57-0.16,0.89-0.19
		c0.33-0.02,0.63-0.02,0.92,0c0.29,0.02,0.53,0.07,0.73,0.14c0.2,0.07,0.31,0.15,0.33,0.24c-0.01-0.47-0.02-0.85-0.02-1.14
		c0-0.29,0-0.52,0-0.7s0-0.31,0.01-0.41c0-0.09,0.01-0.18,0.02-0.27c0-0.08,0.01-0.18,0.02-0.28C56.32,0.89,56.33,0.74,56.34,0.54z
		 M54.01,6.19c-0.05,0.14-0.08,0.29-0.09,0.44c-0.01,0.15-0.02,0.29-0.02,0.44c0,0.25,0.03,0.49,0.09,0.73
		c0.06,0.23,0.15,0.44,0.27,0.63c0.12,0.19,0.27,0.33,0.44,0.44c0.17,0.11,0.36,0.17,0.57,0.17c0.25,0,0.45-0.05,0.59-0.17
		c0.15-0.11,0.25-0.26,0.33-0.45S56.32,8,56.33,7.73c0.02-0.26,0.02-0.56,0.02-0.88c0-0.39-0.01-0.7-0.02-0.92
		c-0.01-0.23-0.05-0.4-0.11-0.52s-0.15-0.2-0.28-0.23c-0.13-0.04-0.29-0.05-0.5-0.05c-0.41,0-0.74,0.09-0.98,0.27
		S54.06,5.85,54.01,6.19z"/>
	<path d="M59.55,0.39h0.04c0.26-0.02,0.56-0.05,0.91-0.09c0.35-0.04,0.66-0.02,0.94,0.06c-0.02,1.28-0.04,2.6-0.05,3.97
		c-0.02,1.36,0.01,2.69,0.07,3.97c-0.26,0.03-0.58,0.05-0.94,0.05c-0.37,0-0.7,0.01-0.99,0.02H59.5c0.01-0.66,0.01-1.32,0.01-1.98
		c-0.01-0.66-0.01-1.32-0.02-1.98c-0.01-0.66-0.01-1.33-0.01-2S59.51,1.07,59.55,0.39z M60.72,10.89l-1.12,0.01
		c-0.03,0-0.04-0.06-0.04-0.19s0-0.29,0.01-0.47c0.01-0.18,0.02-0.38,0.04-0.58c0.02-0.2,0.03-0.37,0.03-0.51V9.13
		c0.12-0.05,0.25-0.08,0.4-0.09c0.15-0.01,0.31-0.01,0.47,0c0.17,0.01,0.33,0.02,0.49,0.04c0.16,0.02,0.32,0.02,0.47,0.02
		c-0.01,0.28-0.02,0.58-0.03,0.89s-0.01,0.62-0.01,0.91h-0.1c-0.12,0-0.22,0-0.29-0.01c-0.07,0-0.17-0.01-0.28-0.01H60.72z"/>
</g>
</svg>
