<!-- Generator: Adobe Illustrator 23.1.1, SVG Export Plug-In  -->
<svg version="1.1" xmlns="http://www.w3.org/2000/svg" xmlns:xlink="http://www.w3.org/1999/xlink" x="0px" y="0px"
	 width="194.59px" height="274.64px" viewBox="0 0 194.59 274.64" style="enable-background:new 0 0 194.59 274.64;"
	 xml:space="preserve">
<style type="text/css">
	.st0{fill:#664E3C;}
	.st1{fill:#A8A8A8;}
	.st2{fill:#896B52;}
	.st3{fill:#ECEBE8;}
	.st4{fill:#337529;}
	.st5{fill:none;stroke:#000000;stroke-miterlimit:10;}
</style>
<defs>
</defs>
<path class="st0" d="M114.18,272h-19V7.84c0-4.33,3.51-7.84,7.84-7.84h5.29c3.24,0,5.87,2.63,5.87,5.87V272z"/>
<path class="st1" d="M176.02,132.44L14.11,118.98c-5.93-0.49-10.33-5.7-9.84-11.62l6.92-83.18c0.49-5.93,5.7-10.33,11.62-9.84
	L184.72,27.8c5.93,0.49,10.33,5.7,9.84,11.62l-6.92,83.18C187.14,128.53,181.94,132.93,176.02,132.44z"/>
<path class="st2" d="M109.18,272h-19V7.84c0-4.33,3.51-7.84,7.84-7.84h5.29c3.24,0,5.87,2.63,5.87,5.87V272z"/>
<path class="st3" d="M171.78,132.55L9.87,119.09c-5.93-0.49-10.33-5.7-9.84-11.62l6.92-83.18c0.49-5.93,5.7-10.33,11.62-9.84
	l161.91,13.46c5.93,0.49,10.33,5.7,9.84,11.62l-6.92,83.18C182.91,128.64,177.71,133.04,171.78,132.55z"/>
<path class="st4" d="M125.74,259.38c-0.53-8.03,5.18-16.04,12.94-18.15c-8.3-0.74-16.87,2.15-23.02,7.77
	c-1.65,1.65-4.21,4.6-6.32,7.9c-1.05-9.7-4.26-18.17-15.68-20.28c2.56,4.07,7.73,6.45,8.76,11.29c-2.98-1.24-5.96-3.85-9.08-4.22
	c1.02,3.81,3.97,6.61,6.5,9.66c-3.35-1.85-7.14-2.89-10.97-2.89l0.81,2.13c-4.88-5.86-11.96-9.93-19.59-10.43
	c2.01,3.24,4.03,6.48,6.04,9.71c-6.83-4.67-15.86-5.94-23.71-3.35c6.07,0.65,11.9,3.31,16.38,7.45c-3.87-1.95-9.13-0.41-11.34,3.32
	c3.72-1.21,7.78,0.59,10.83,3.04c3.05,2.45,5.55,5.57,8.82,7.71c6.86,4.49,15.73,3.89,23.89,3.13c2.36-0.22,4.93-0.55,6.71-2
	c3.97,3.74,12.44,1.6,17.84,1.57c0.91-7.71,5.21-14.97,11.53-19.48C132.66,253.56,128.4,255.85,125.74,259.38z"/>
<path class="st5" d="M127.13,259.8c-0.53-8.03,5.18-16.04,12.94-18.15c-8.3-0.74-16.87,2.15-23.02,7.77
	c-1.65,1.65-4.21,4.6-6.32,7.9c-1.05-9.7-4.26-18.17-15.68-20.28c2.56,4.07,7.73,6.45,8.76,11.29c-2.98-1.24-5.96-3.85-9.08-4.22
	c1.02,3.81,3.97,6.61,6.5,9.66c-3.35-1.85-7.14-2.89-10.97-2.89l0.81,2.13c-4.88-5.86-11.96-9.93-19.59-10.43
	c2.01,3.24,4.03,6.48,6.04,9.71c-6.83-4.67-15.86-5.94-23.71-3.35c6.07,0.65,11.9,3.31,16.38,7.45c-3.87-1.95-9.13-0.41-11.34,3.32
	c3.72-1.21,7.78,0.59,10.83,3.04c3.05,2.45,5.55,5.57,8.82,7.71c6.86,4.49,15.73,3.89,23.89,3.13c2.36-0.22,4.93-0.55,6.71-2
	c3.97,3.74,12.44,1.6,17.84,1.57c0.91-7.71,5.21-14.97,11.53-19.48C134.05,253.97,129.79,256.26,127.13,259.8z"/>
</svg>
