<!-- Generator: Adobe Illustrator 23.1.1, SVG Export Plug-In  -->
<svg version="1.1" xmlns="http://www.w3.org/2000/svg" xmlns:xlink="http://www.w3.org/1999/xlink" x="0px" y="0px" width="66.17px"
	 height="12.67px" viewBox="0 0 66.17 12.67" style="enable-background:new 0 0 66.17 12.67;" xml:space="preserve">
<defs>
</defs>
<g>
	<path d="M6.32,3.54H6.31C5.98,3.6,5.63,3.63,5.26,3.65C4.88,3.66,4.53,3.62,4.21,3.53c0.06-0.25,0-0.46-0.15-0.63
		C3.89,2.73,3.7,2.62,3.48,2.58C3.25,2.53,3.04,2.55,2.83,2.65C2.62,2.74,2.49,2.92,2.46,3.18C2.44,3.24,2.43,3.31,2.43,3.37
		c0,0.06,0.01,0.12,0.02,0.19C2.53,3.78,2.65,3.93,2.82,4s0.35,0.13,0.55,0.15c0.49,0.06,0.95,0.21,1.38,0.48
		C5.17,4.9,5.52,5.23,5.79,5.63c0.17,0.21,0.29,0.45,0.38,0.69c0.08,0.25,0.13,0.5,0.15,0.76c0.01,0.26,0,0.53-0.06,0.79
		C6.21,8.14,6.12,8.4,6.01,8.64C5.9,8.93,5.75,9.17,5.56,9.38c-0.19,0.21-0.4,0.37-0.64,0.5c-0.24,0.13-0.49,0.23-0.77,0.29
		s-0.56,0.09-0.85,0.08c-0.41-0.01-0.82-0.08-1.23-0.22C1.68,9.9,1.32,9.71,1,9.46C0.68,9.22,0.43,8.93,0.24,8.58
		c-0.19-0.35-0.27-0.75-0.24-1.2V7.34V7.29c0.33-0.05,0.69-0.06,1.08-0.04s0.75,0.03,1.06,0.02C2.17,7.58,2.29,7.8,2.5,7.95
		C2.72,8.1,2.96,8.17,3.2,8.17c0.25,0,0.46-0.09,0.64-0.25c0.18-0.16,0.24-0.4,0.19-0.73c-0.03-0.22-0.11-0.4-0.25-0.54
		c-0.14-0.14-0.31-0.25-0.5-0.33C3.1,6.24,2.89,6.18,2.67,6.14C2.44,6.1,2.23,6.06,2.04,6.02c-0.19-0.04-0.36-0.1-0.52-0.18
		c-0.16-0.08-0.3-0.18-0.43-0.29C0.65,5.13,0.38,4.68,0.25,4.19C0.12,3.69,0.12,3.21,0.23,2.74c0.11-0.47,0.32-0.89,0.64-1.27
		C1.18,1.09,1.56,0.8,2.01,0.62c0.22-0.09,0.47-0.16,0.74-0.19C3.02,0.39,3.29,0.39,3.57,0.4c0.28,0.01,0.55,0.05,0.81,0.12
		c0.27,0.07,0.51,0.15,0.73,0.25C5.56,1,5.91,1.35,6.15,1.81C6.39,2.26,6.45,2.84,6.32,3.54z"/>
	<path d="M9.64,0.6v1.88c0,0.12,0,0.25,0.01,0.38c0,0.13,0.01,0.27,0.01,0.41c0.29-0.01,0.6-0.02,0.92-0.04
		c0.32-0.02,0.72-0.04,1.2-0.07c0.06,0.07,0.1,0.18,0.11,0.33c0.01,0.15,0.01,0.3,0,0.47s-0.02,0.34-0.04,0.51
		c-0.01,0.17-0.01,0.32,0.01,0.44H9.68c0,0.5,0,1,0,1.48c0,0.48,0,0.93,0.01,1.35c0.09,0.13,0.23,0.23,0.41,0.31
		c0.18,0.07,0.37,0.13,0.57,0.18s0.41,0.07,0.62,0.08c0.21,0.01,0.39,0.01,0.55,0c0.02,0.13,0.04,0.28,0.06,0.43
		s0.03,0.32,0.04,0.49s0.01,0.34-0.01,0.5s-0.04,0.32-0.09,0.46c-0.37,0.02-0.76,0.02-1.16-0.01c-0.4-0.02-0.78-0.08-1.13-0.16
		C9.2,9.93,8.88,9.8,8.61,9.63s-0.47-0.4-0.59-0.69C7.89,8.23,7.82,7.55,7.8,6.91c-0.02-0.64-0.02-1.3-0.01-1.98
		C7.64,4.94,7.48,4.94,7.32,4.94s-0.34,0-0.54,0l0.04-1.71c0.19,0.01,0.36,0.01,0.53,0.01c0.16,0,0.32,0,0.47,0
		c0-0.21,0-0.43-0.01-0.67C7.79,2.35,7.79,2.1,7.79,1.86s0-0.48,0.01-0.7s0.02-0.42,0.04-0.6c0.12-0.02,0.25-0.02,0.4-0.01
		c0.14,0.01,0.3,0.02,0.46,0.03C8.84,0.6,9,0.61,9.16,0.62C9.32,0.63,9.48,0.62,9.64,0.6z"/>
	<path d="M14.23,6.66v0.25c0.01,0.28,0.02,0.51,0.04,0.69c0.01,0.18,0.07,0.35,0.17,0.52c0.11,0.21,0.27,0.37,0.48,0.48
		c0.21,0.1,0.41,0.14,0.6,0.1c0.2-0.04,0.36-0.15,0.5-0.34c0.13-0.19,0.19-0.48,0.17-0.86c0.09,0.01,0.22,0.01,0.38,0.01
		c0.16,0,0.32-0.01,0.5-0.02c0.17-0.01,0.34-0.01,0.5-0.01c0.16,0,0.29,0.02,0.39,0.05C17.93,7.76,17.92,8,17.9,8.23
		c-0.02,0.23-0.04,0.45-0.07,0.65c-0.03,0.2-0.06,0.37-0.11,0.52c-0.04,0.14-0.1,0.24-0.16,0.3c-0.16,0.22-0.36,0.38-0.62,0.48
		s-0.53,0.15-0.83,0.17c-0.3,0.02-0.6,0.02-0.92,0c-0.31-0.02-0.6-0.03-0.86-0.03c-0.26-0.04-0.5-0.12-0.73-0.25
		c-0.25-0.18-0.46-0.41-0.63-0.69c-0.17-0.28-0.3-0.6-0.41-0.94c-0.1-0.34-0.17-0.7-0.21-1.08c-0.04-0.38-0.05-0.77-0.03-1.15
		c0.03-0.35,0.06-0.68,0.09-1c0.03-0.32,0.11-0.64,0.22-0.94c0.12-0.27,0.31-0.5,0.56-0.69c0.25-0.19,0.54-0.34,0.85-0.43
		c0.32-0.1,0.65-0.15,1.01-0.16c0.35-0.01,0.7,0.03,1.04,0.11c0.43,0.08,0.77,0.22,1.04,0.45c0.26,0.22,0.46,0.49,0.59,0.81
		s0.22,0.67,0.25,1.05c0.03,0.38,0.03,0.77,0,1.16c-0.07,0.02-0.19,0.04-0.37,0.06s-0.4,0.04-0.64,0.06
		c-0.25,0.02-0.51,0.03-0.79,0.04c-0.28,0.01-0.55,0.01-0.8,0.01c-0.26,0-0.49,0-0.69-0.01C14.47,6.7,14.32,6.68,14.23,6.66z
		 M15.92,4.49c-0.07-0.05-0.15-0.08-0.22-0.1c-0.07-0.02-0.16-0.04-0.27-0.04c-0.22,0-0.41,0.02-0.55,0.07
		c-0.14,0.05-0.25,0.11-0.34,0.2S14.4,4.8,14.36,4.91c-0.04,0.11-0.07,0.23-0.09,0.35c-0.02,0.1-0.03,0.18-0.02,0.22
		c0,0.04,0.05,0.07,0.13,0.08c0.08,0.01,0.22,0.02,0.4,0.01c0.18,0,0.45-0.01,0.81-0.01c0.24,0,0.42,0,0.55,0.01
		s0.21,0.01,0.26,0.01c0.05,0,0.08-0.02,0.08-0.04s0-0.07,0-0.15c0-0.19-0.05-0.36-0.15-0.53C16.22,4.7,16.09,4.58,15.92,4.49z"/>
	<path d="M18.81,0l1.9,0.04c0,0.38,0,0.85-0.01,1.39c-0.01,0.54-0.02,1.12-0.03,1.74c-0.01,0.62-0.02,1.26-0.02,1.92
		c0,0.66-0.01,1.3-0.01,1.92c0,0.62,0,1.19,0.01,1.73c0.01,0.54,0.02,0.99,0.04,1.37c-0.05,0.06-0.16,0.09-0.35,0.09s-0.39,0-0.61,0
		s-0.43-0.01-0.62-0.02c-0.2-0.01-0.33,0-0.39,0.01c0.07-0.84,0.09-1.68,0.08-2.53c-0.01-0.85-0.04-1.7-0.06-2.55
		c-0.03-0.85-0.04-1.7-0.05-2.55C18.68,1.7,18.72,0.85,18.81,0z"/>
	<path d="M21.69,0l1.9,0.04c0,0.38,0,0.85-0.01,1.39c-0.01,0.54-0.02,1.12-0.03,1.74c-0.01,0.62-0.02,1.26-0.02,1.92
		c0,0.66-0.01,1.3-0.01,1.92c0,0.62,0,1.19,0.01,1.73c0.01,0.54,0.02,0.99,0.04,1.37c-0.05,0.06-0.16,0.09-0.35,0.09s-0.39,0-0.61,0
		s-0.43-0.01-0.62-0.02c-0.2-0.01-0.33,0-0.39,0.01c0.07-0.84,0.09-1.68,0.08-2.53c-0.01-0.85-0.04-1.7-0.06-2.55
		c-0.03-0.85-0.04-1.7-0.05-2.55C21.57,1.7,21.61,0.85,21.69,0z"/>
	<path d="M26.21,6.66v0.25c0.01,0.28,0.02,0.51,0.04,0.69c0.01,0.18,0.07,0.35,0.17,0.52c0.11,0.21,0.27,0.37,0.48,0.48
		c0.21,0.1,0.41,0.14,0.6,0.1c0.2-0.04,0.36-0.15,0.5-0.34c0.13-0.19,0.19-0.48,0.17-0.86c0.09,0.01,0.22,0.01,0.38,0.01
		c0.16,0,0.32-0.01,0.5-0.02c0.17-0.01,0.34-0.01,0.5-0.01c0.16,0,0.29,0.02,0.39,0.05C29.92,7.76,29.9,8,29.88,8.23
		c-0.02,0.23-0.04,0.45-0.07,0.65c-0.03,0.2-0.06,0.37-0.11,0.52c-0.04,0.14-0.1,0.24-0.16,0.3c-0.16,0.22-0.36,0.38-0.62,0.48
		s-0.53,0.15-0.83,0.17c-0.3,0.02-0.6,0.02-0.92,0c-0.31-0.02-0.6-0.03-0.86-0.03c-0.26-0.04-0.5-0.12-0.73-0.25
		c-0.25-0.18-0.46-0.41-0.63-0.69c-0.17-0.28-0.3-0.6-0.41-0.94c-0.1-0.34-0.17-0.7-0.21-1.08c-0.04-0.38-0.05-0.77-0.03-1.15
		c0.03-0.35,0.06-0.68,0.09-1c0.03-0.32,0.11-0.64,0.22-0.94c0.12-0.27,0.31-0.5,0.56-0.69c0.25-0.19,0.54-0.34,0.85-0.43
		c0.32-0.1,0.65-0.15,1.01-0.16c0.35-0.01,0.7,0.03,1.04,0.11c0.43,0.08,0.77,0.22,1.04,0.45c0.26,0.22,0.46,0.49,0.59,0.81
		s0.22,0.67,0.25,1.05c0.03,0.38,0.03,0.77,0,1.16c-0.07,0.02-0.19,0.04-0.37,0.06s-0.4,0.04-0.64,0.06
		c-0.25,0.02-0.51,0.03-0.79,0.04c-0.28,0.01-0.55,0.01-0.8,0.01c-0.26,0-0.49,0-0.69-0.01C26.46,6.7,26.31,6.68,26.21,6.66z
		 M27.91,4.49c-0.07-0.05-0.15-0.08-0.22-0.1c-0.07-0.02-0.16-0.04-0.27-0.04c-0.22,0-0.41,0.02-0.55,0.07
		c-0.14,0.05-0.25,0.11-0.34,0.2s-0.15,0.18-0.19,0.29c-0.04,0.11-0.07,0.23-0.09,0.35c-0.02,0.1-0.03,0.18-0.02,0.22
		c0,0.04,0.05,0.07,0.13,0.08c0.08,0.01,0.22,0.02,0.4,0.01c0.18,0,0.45-0.01,0.81-0.01c0.24,0,0.42,0,0.55,0.01
		s0.21,0.01,0.26,0.01c0.05,0,0.08-0.02,0.08-0.04s0-0.07,0-0.15c0-0.19-0.05-0.36-0.15-0.53C28.21,4.7,28.07,4.58,27.91,4.49z"/>
	<path d="M32.67,3.67c0.04-0.02,0.12-0.06,0.26-0.11c0.14-0.06,0.27-0.11,0.4-0.15c0.18-0.06,0.38-0.1,0.6-0.13
		c0.22-0.03,0.43-0.05,0.63-0.06c0.2-0.01,0.36-0.01,0.5-0.01c0.14,0,0.2,0.01,0.2,0.02c0,0.32,0,0.6-0.01,0.84
		c0,0.24-0.01,0.46-0.01,0.65s0,0.37,0,0.52s0,0.31,0.01,0.45l-0.13-0.04c-0.05-0.02-0.1-0.03-0.15-0.05s-0.1-0.03-0.15-0.05
		c-0.11-0.03-0.23-0.05-0.34-0.07c-0.12-0.02-0.18-0.03-0.19-0.03c-0.25-0.03-0.48-0.04-0.69-0.04s-0.39,0.03-0.55,0.1
		c-0.15,0.07-0.27,0.17-0.36,0.31c-0.08,0.14-0.12,0.34-0.11,0.6c0.01,0.33,0.02,0.63,0.03,0.92c0.01,0.29,0.01,0.58,0.01,0.88
		c0,0.29,0,0.59,0.01,0.9s0.01,0.63,0.01,0.97v0.06c-0.16,0.05-0.3,0.07-0.43,0.08c-0.13,0.01-0.27,0.01-0.41,0.01
		c-0.14,0-0.29-0.01-0.46-0.02c-0.16-0.01-0.36,0-0.58,0.01c0-1.15-0.01-2.3-0.04-3.44c-0.02-1.15-0.02-2.34,0.02-3.57
		c0.11,0.01,0.21,0.02,0.28,0.02c0.07,0,0.14,0.01,0.21,0.01s0.14,0,0.21-0.01c0.07,0,0.17-0.01,0.28-0.02c0.04,0,0.1,0,0.2-0.01
		c0.1-0.01,0.2-0.02,0.31-0.03c0.11-0.01,0.2-0.01,0.28-0.01c0.08,0,0.12,0.02,0.12,0.04c0,0.07,0,0.13,0,0.17s0,0.07,0,0.09
		c0,0.02,0,0.05,0.01,0.08C32.66,3.56,32.67,3.6,32.67,3.67z"/>
	<path d="M37.17,3.68h-0.01c-0.04,0-0.14,0.01-0.29,0.03c-0.16,0.02-0.33,0.03-0.5,0.05s-0.34,0.02-0.48,0.02s-0.22-0.02-0.23-0.07
		c0.03-0.1,0.07-0.25,0.12-0.45s0.11-0.42,0.17-0.66c0.06-0.24,0.12-0.49,0.19-0.75c0.06-0.26,0.13-0.49,0.19-0.71
		c0.06-0.22,0.11-0.41,0.15-0.57s0.07-0.26,0.08-0.31c0.25,0,0.47,0,0.64-0.01s0.35-0.01,0.53-0.01c0.18,0,0.31,0,0.41,0v0.01
		c-0.11,0.42-0.2,0.77-0.27,1.06s-0.14,0.55-0.2,0.78c-0.07,0.24-0.13,0.47-0.2,0.71c-0.07,0.23-0.15,0.51-0.27,0.84
		C37.19,3.65,37.18,3.66,37.17,3.68z"/>
	<path d="M44.08,5.33c-0.3,0.05-0.63,0.08-0.99,0.08c-0.36,0.01-0.7-0.02-1.02-0.08C42.1,5.22,42.09,5.11,42.04,5
		c-0.05-0.11-0.13-0.21-0.22-0.29c-0.1-0.08-0.21-0.15-0.34-0.19s-0.25-0.06-0.37-0.05c-0.21,0.04-0.38,0.12-0.48,0.25
		s-0.16,0.26-0.16,0.41c0,0.15,0.06,0.3,0.17,0.45c0.11,0.15,0.27,0.26,0.49,0.34c0.52,0.07,1.01,0.17,1.47,0.3
		c0.46,0.13,0.79,0.33,1.01,0.61c0.21,0.34,0.33,0.68,0.38,1.03s-0.02,0.78-0.2,1.29c-0.21,0.46-0.55,0.78-1.01,0.98
		c-0.46,0.2-0.96,0.29-1.5,0.28c-0.48,0.02-0.91-0.02-1.29-0.13c-0.38-0.1-0.71-0.26-0.99-0.46c-0.28-0.21-0.49-0.46-0.64-0.76
		c-0.15-0.3-0.23-0.63-0.23-1.01V8.01V7.98c0.31-0.04,0.66-0.05,1.05-0.03c0.39,0.01,0.73,0.02,1.02,0.02
		c0.01,0.21,0.11,0.39,0.3,0.52s0.39,0.21,0.61,0.24c0.21,0.02,0.41-0.02,0.59-0.12c0.18-0.1,0.26-0.29,0.25-0.56
		c0.03-0.22-0.02-0.39-0.15-0.5c-0.13-0.11-0.3-0.2-0.52-0.26c-0.21-0.06-0.46-0.11-0.73-0.16c-0.27-0.05-0.54-0.13-0.8-0.24
		c-0.52-0.18-0.9-0.46-1.14-0.83c-0.24-0.38-0.35-0.77-0.34-1.18c0.01-0.41,0.15-0.78,0.39-1.13c0.25-0.35,0.6-0.58,1.06-0.7
		c0.18-0.05,0.39-0.08,0.65-0.11c0.26-0.03,0.53-0.04,0.82-0.04c0.29,0,0.58,0.02,0.87,0.05s0.56,0.08,0.8,0.13
		c0.44,0.19,0.75,0.48,0.94,0.89C43.98,4.38,44.08,4.83,44.08,5.33z"/>
	<path d="M50.75,0.24l2.04-0.03c-0.02,0.88-0.01,1.76,0.03,2.66c0.04,0.9,0.05,1.8,0.03,2.7c-0.02,0.38-0.03,0.8-0.04,1.24
		c-0.01,0.44-0.06,0.87-0.15,1.28s-0.24,0.78-0.46,1.12s-0.54,0.58-0.97,0.74c-0.39,0.2-0.82,0.31-1.29,0.33
		c-0.47,0.02-0.91-0.01-1.33-0.1c-0.38-0.11-0.69-0.32-0.92-0.62c-0.23-0.3-0.41-0.64-0.53-1.03c-0.12-0.39-0.2-0.79-0.23-1.22
		c-0.03-0.42-0.04-0.81-0.02-1.17c0.12-0.03,0.27-0.05,0.46-0.06c0.18-0.01,0.37-0.01,0.57-0.01c0.2,0,0.39,0.01,0.59,0.03
		c0.2,0.02,0.39,0.04,0.55,0.07v0.01v0.07c0.01,0.14,0.03,0.3,0.05,0.48s0.07,0.35,0.13,0.52c0.06,0.16,0.15,0.3,0.25,0.41
		c0.1,0.11,0.24,0.17,0.41,0.18c0.14,0.03,0.26,0.02,0.36-0.03c0.1-0.05,0.19-0.12,0.26-0.22c0.07-0.1,0.12-0.21,0.16-0.34
		c0.04-0.13,0.06-0.26,0.07-0.4c-0.02-1.04-0.04-2.12-0.05-3.22c-0.01-1.1,0-2.21,0.03-3.32V0.24z"/>
	<path d="M59.48,3.21c0.01,0.06,0.02,0.11,0.02,0.17c0,0.06,0.01,0.11,0.01,0.17v0.14c-0.03,1.01-0.02,2,0.01,2.98
		c0.04,0.98,0.02,1.96-0.04,2.96c0,0.12,0,0.24-0.01,0.36c0,0.12-0.06,0.19-0.18,0.21h-0.17c-0.15,0-0.3-0.01-0.46-0.02
		c-0.15-0.01-0.31-0.02-0.45-0.02c-0.1,0-0.2,0.01-0.3,0.02c-0.1,0.01-0.2,0.02-0.3,0.02c-0.07-0.02-0.11-0.06-0.13-0.11
		c-0.02-0.06-0.03-0.12-0.03-0.2c0-0.1,0.01-0.19,0.03-0.25c0.02-0.07,0.03-0.14,0.03-0.24C57.28,9.62,57,9.81,56.66,9.97
		c-0.34,0.16-0.67,0.24-1,0.24c-0.36,0-0.67-0.13-0.93-0.38c-0.26-0.25-0.47-0.56-0.64-0.94c-0.17-0.37-0.29-0.78-0.37-1.22
		c-0.08-0.44-0.12-0.84-0.12-1.22c0-0.47,0.06-0.9,0.18-1.29c0.12-0.39,0.29-0.73,0.5-1.01s0.46-0.51,0.75-0.67
		c0.29-0.16,0.6-0.25,0.92-0.26c0.17,0,0.32,0,0.47,0.01c0.14,0,0.28,0.03,0.4,0.07c0.12,0.04,0.23,0.11,0.32,0.2
		c0.09,0.09,0.17,0.21,0.24,0.37c-0.01-0.15,0-0.28,0.02-0.39c0.02-0.11,0.04-0.22,0.04-0.33c0-0.01,0.03-0.02,0.09-0.02
		s0.13,0,0.2,0s0.15,0.01,0.22,0.01s0.13,0,0.15,0c0.16,0.01,0.35,0.02,0.58,0.03C58.91,3.17,59.18,3.19,59.48,3.21z M55.4,5.99
		c-0.04,0.12-0.06,0.25-0.07,0.37s-0.01,0.25-0.01,0.37c0,0.42,0.11,0.78,0.33,1.07s0.52,0.44,0.92,0.44c0.23,0,0.41-0.04,0.52-0.12
		c0.12-0.08,0.2-0.19,0.25-0.34c0.05-0.14,0.08-0.32,0.08-0.53c0-0.21,0.01-0.45,0.01-0.71c0-0.33,0-0.59-0.01-0.78
		c0-0.19-0.03-0.34-0.07-0.44c-0.04-0.1-0.11-0.17-0.21-0.2S56.9,5.1,56.7,5.1c-0.38,0-0.68,0.09-0.9,0.27
		C55.58,5.55,55.45,5.76,55.4,5.99z"/>
	<path d="M62.11,3.22c0.07,0.34,0.14,0.73,0.22,1.2c0.08,0.46,0.17,0.93,0.27,1.41s0.19,0.93,0.29,1.37
		c0.1,0.43,0.21,0.79,0.31,1.07c0.1-0.28,0.19-0.65,0.25-1.11c0.06-0.46,0.13-0.93,0.19-1.43c0.06-0.49,0.13-0.97,0.2-1.43
		s0.17-0.83,0.28-1.11c0.32,0.01,0.64,0,0.97-0.01c0.33-0.02,0.69-0.01,1.08,0.01c-0.15,0.56-0.28,1.09-0.4,1.6
		s-0.23,1.01-0.34,1.49C65.3,6.74,65.2,7.22,65.1,7.73c-0.1,0.5-0.22,1-0.36,1.48c-0.14,0.49-0.33,0.95-0.55,1.39
		s-0.52,0.82-0.89,1.14c-0.37,0.32-0.83,0.57-1.37,0.73c-0.55,0.17-1.22,0.23-2.01,0.18c-0.09-0.28-0.14-0.6-0.15-0.94
		c0-0.35,0.02-0.66,0.06-0.92c0.22,0,0.46,0.01,0.69,0.03c0.24,0.02,0.45,0.01,0.64-0.04c0.19-0.04,0.33-0.13,0.43-0.27
		c0.1-0.14,0.12-0.36,0.08-0.67c-0.2-1.13-0.44-2.26-0.74-3.39c-0.3-1.13-0.59-2.22-0.88-3.28c0.34,0.04,0.69,0.04,1.06,0.02
		C61.47,3.18,61.81,3.18,62.11,3.22z"/>
</g>
</svg>
