<!-- Generator: Adobe Illustrator 23.1.1, SVG Export Plug-In  -->
<svg version="1.1" xmlns="http://www.w3.org/2000/svg" xmlns:xlink="http://www.w3.org/1999/xlink" x="0px" y="0px" width="82.39px"
	 height="110.97px" viewBox="0 0 82.39 110.97" style="enable-background:new 0 0 82.39 110.97;" xml:space="preserve">
<style type="text/css">
	.st0{fill:#2C491B;}
</style>
<defs>
</defs>
<g>
	<path class="st0" d="M43.06,110.97c-7.28,0-17.59-2.18-21.51-11.89c-5.53-13.42-10.06-32.63-13-49c-3.46-18.84-5.45-31.78-8-42
		c-1-4-0.6-5.76,1-7C2.78,0.1,13.34,0,14.79,0c3.25,0,5.5,1.83,6.74,5.5C24.31,13.14,28,30.2,32.6,56.68l2.94,16.65
		c2.01,11.2,4.11,16.8,6.27,16.8c2.37,0,4.18-5.91,5.42-17.73c2.06-19.2,3.66-38.54,4.8-58c0.26-4.08,0.68-7.11,1.28-9.1
		c0.59-1.99,1.77-3.28,3.52-3.87c1.75-0.59,4.59-0.89,8.52-0.89c6.35,0,10.58,0.25,12.7,0.74c2.12,0.49,3.43,1.9,3.95,4.22
		c0.26,1.14,0.39,2.66,0.39,4.57c0,1.86-0.13,4.1-0.39,6.74c-1.19,12.03-3.1,23.67-5.73,34.92c-2.63,11.26-5.76,22.74-9.37,34.46
		c-2.79,8.98-6.74,15.62-11.85,19.9C51.13,109.34,47.13,110.97,43.06,110.97z"/>
</g>
</svg>
