<!-- Generator: Adobe Illustrator 23.1.1, SVG Export Plug-In  -->
<svg version="1.1" xmlns="http://www.w3.org/2000/svg" xmlns:xlink="http://www.w3.org/1999/xlink" x="0px" y="0px" width="91px"
	 height="143.52px" viewBox="0 0 91 143.52" style="enable-background:new 0 0 91 143.52;" xml:space="preserve">
<style type="text/css">
	.st0{fill:#C36C3D;}
</style>
<defs>
</defs>
<g>
	<path class="st0" d="M91,15c0,6.96-0.38,13.27-1.13,18.94c-0.14,1.02-1.1,1.71-2.11,1.54c-3.53-0.59-6.39-0.88-8.55-0.88l-9.4-0.2
		c-3.47,0-5.2,0.2-5.2,0.6c-0.27,1.87-0.4,5.8-0.4,11.8c0,11.51,0.45,42.14,1.35,91.88c0.03,1.68-1.2,3.14-2.87,3.34
		c-3.18,0.38-6.73,0.58-10.68,0.58h-5.8c-5.32,0-10.29,0.3-14.92,0.89c-2.17,0.28-4.15-1.27-4.36-3.45l-0.01-0.14
		c-0.2-2.06-0.23-3.95-0.1-5.69c0-0.01,0-0.02,0-0.03l0-9.79l0.2-18c0-24.15-0.53-47.71-1.58-70.68c-0.01-0.19-0.12-0.37-0.3-0.44
		c-1.45-0.58-3.42-0.88-5.91-0.88l-8,0.2c-2.97,0-5.4-0.14-7.28-0.43c-1.63-0.25-2.89-1.52-3.12-3.15c-0.15-1.05-0.28-2.4-0.4-4.02
		C0.13,23.4,0,19.33,0,14.8C0,9.75,0.04,5.77,0.12,2.86C0.15,1.49,1.28,0.4,2.65,0.4l6.15,0l7.8-0.2h11.2L39.4,0
		c19.85,0,36.04,0.73,48.57,2.2c0.02,0,0.04,0,0.06,0l0,0c1.44,0,2.64,1.13,2.71,2.57C90.91,8.36,91,11.76,91,15z"/>
</g>
</svg>
