<svg id="Layer_1" data-name="Layer 1" xmlns="http://www.w3.org/2000/svg" viewBox="0 0 240.85 496.46"><defs><style>.cls-1{fill:#725d48;}.cls-2{fill:#212121;}.cls-3,.cls-4{fill:#383838;}.cls-4{opacity:0.58;}.cls-5{fill:#2d2d2d;}.cls-23,.cls-29,.cls-5{stroke:#000;}.cls-15,.cls-18,.cls-23,.cls-26,.cls-27,.cls-29,.cls-34,.cls-38,.cls-44,.cls-45,.cls-47,.cls-48,.cls-49,.cls-5,.cls-50,.cls-51,.cls-52{stroke-miterlimit:10;}.cls-27,.cls-5{stroke-width:2px;}.cls-6{fill:#3a3a3a;}.cls-7{fill:#0f1e08;}.cls-8{fill:#1a280f;}.cls-9{fill:#785135;}.cls-10{fill:#7f543b;}.cls-11{fill:#ab8964;}.cls-12{fill:#825940;}.cls-13{fill:#5b503a;}.cls-14{fill:#72664c;}.cls-15,.cls-17{fill:#d37c4f;}.cls-15,.cls-18{stroke:#754220;}.cls-16{fill:#1e1e1e;}.cls-18,.cls-23,.cls-26,.cls-27,.cls-38{fill:none;}.cls-18{stroke-width:0.75px;}.cls-19{fill:#de9060;}.cls-20{fill:#af9b7c;}.cls-21{fill:#d4c7b4;}.cls-22{fill:#a17e59;}.cls-24{fill:#ddba2a;}.cls-25{fill:#e5c53c;}.cls-26,.cls-34{stroke:#020202;}.cls-26,.cls-29{stroke-width:0.25px;}.cls-27{stroke:#af9b7c;}.cls-28{fill:#b09c7c;}.cls-29{fill:#9a361c;}.cls-30{fill:#fffcf8;}.cls-31,.cls-47,.cls-49{fill:#606060;}.cls-32{fill:#9e361d;}.cls-33{fill:#fffdff;}.cls-34{fill:#5f3600;}.cls-35{fill:#67461b;}.cls-36{fill:#1c0b11;}.cls-37{fill:#070707;}.cls-38{stroke:#9e361d;stroke-width:0.5px;}.cls-39{fill:#040404;}.cls-40{fill:#49291a;}.cls-41{fill:#746745;}.cls-42{fill:#635e40;}.cls-43{fill:#fff;}.cls-44,.cls-45{fill:#a3a3a3;}.cls-44{stroke:#474843;}.cls-45{stroke:#303030;}.cls-46{fill:#2f3034;}.cls-47,.cls-51,.cls-52{stroke:#050505;}.cls-48,.cls-50{fill:#373737;}.cls-48,.cls-49{stroke:#070707;}.cls-50{stroke:#0a0a0a;}.cls-51{fill:#9d9d9d;}.cls-53{fill:#3d2b13;}</style></defs><title>ranger_latino</title><path class="cls-1" d="M394.11,404.33c.4.06,27.83,4.71,39.7,25.44a45.88,45.88,0,0,1,3.68,10.07,8.64,8.64,0,0,0,6.22,6.55c.29.08.6.15.92.22,7,1.43,12.23,3.47,15.24,3.95S482.32,452,488.46,454c0,0,2.88,12,.93,16,0,0-.56,2.41-2.28,2.21s-4.79-9.2-3.76-13.2c0,0-20.47-1-23.54-2s-19.33-6-19.45-6h0l-4.09,6h0l-2-9h0c-.14.14-4.1,4-5.11,7s3.17-11.57,2-15c-7.17-22-33.93-26.43-34-26.49h0l-3-9.21S392.26,404,394.11,404.33Z" transform="translate(-285.28 -255.82)"/><path d="M424.38,732.62s.61,5-2,8.08c0,0-15,9.64-35.87-4,0,0-14.16-9-16.19-13.36v-5.6S405.27,754.07,424.38,732.62Z" transform="translate(-285.28 -255.82)"/><path class="cls-2" d="M424.11,736.15s-27.69,15.8-53.74-17.92A42.72,42.72,0,0,1,373,700.92s9.43,10.1,22.15,4c0,0,12.23,10.72,21.85,14.6,2.83,1.14,5.29,4,6.57,8A17.11,17.11,0,0,1,424.11,736.15Z" transform="translate(-285.28 -255.82)"/><path class="cls-3" d="M407.87,714.82a3.82,3.82,0,0,1,1.07.32c2.29,1.07,4.6,2.35,6.88,3.52,4,2,9.89,5.59,7.9,13.66-1.54,6.24-7.88,5-11.33,5-6.34,0-12.25-.57-18.11-3.57-4.83-2.48-10-3.76-9.73-12.85,1,.12,2.42,2.93,3.51,3.71,1.95,1.41,5.28,3.37,7.44,2.48s3.71-4.89,5.5-6.93C403.24,717.56,405.24,714.48,407.87,714.82Z" transform="translate(-285.28 -255.82)"/><path class="cls-4" d="M422.55,739.27c-3.07,4.77-16.11,3.81-21.23,3.2a29,29,0,0,1-6-1.31,3.34,3.34,0,0,1,.2-1.21c7.31-.33,14.4,2.2,21.89.56C419.25,740.11,420.94,739.08,422.55,739.27Z" transform="translate(-285.28 -255.82)"/><path class="cls-5" d="M390.62,718.09A15.26,15.26,0,0,1,400,710l7.32,4.78c-3.6,0-5.86,5.92-8.49,9.5-1.8,2.44-2.07,1-3.77-.93C393.52,721.66,392.14,719.65,390.62,718.09Z" transform="translate(-285.28 -255.82)"/><path class="cls-6" d="M401,711.49c-4.12.93-5.66,7-3.95,12.09-1.68-2.55-4.19-2.72-5.63-5.88C393.73,714.69,398,710.78,401,711.49Z" transform="translate(-285.28 -255.82)"/><path d="M374.23,741.64s.61,4.65-2.07,7.55c0,0-15.24,9-36.43-3.78,0,0-14.38-8.42-16.44-12.49v-5.23S354.81,761.69,374.23,741.64Z" transform="translate(-285.28 -255.82)"/><path class="cls-2" d="M374,744.94s-28.12,14.76-54.58-16.76A37,37,0,0,1,322.08,712s9.58,9.44,22.5,3.73c0,0,12.41,10,22.19,13.65a11.77,11.77,0,0,1,6.67,7.49A14.9,14.9,0,0,1,374,744.94Z" transform="translate(-285.28 -255.82)"/><path class="cls-3" d="M357.46,725a4.29,4.29,0,0,1,1.08.3c2.33,1,4.67,2.2,7,3.29,4,1.89,10,5.23,8,12.77-1.56,5.84-8,4.65-11.5,4.65-6.44,0-12.45-.54-18.39-3.35-4.91-2.31-10.19-3.51-9.89-12,1,.11,2.46,2.74,3.57,3.47,2,1.32,5.36,3.15,7.55,2.32s3.77-4.57,5.59-6.48C352.75,727.55,354.79,724.67,357.46,725Z" transform="translate(-285.28 -255.82)"/><path class="cls-4" d="M372.37,747.85c-3.12,4.46-16.37,3.57-21.57,3a30.91,30.91,0,0,1-6.08-1.22,3,3,0,0,1,.21-1.14c7.42-.3,14.62,2.07,22.23.53C369,748.63,370.73,747.68,372.37,747.85Z" transform="translate(-285.28 -255.82)"/><path class="cls-5" d="M339.94,728.05a15.37,15.37,0,0,1,9.5-7.53l7.43,4.47c-3.65,0-5.94,5.53-8.62,8.87-1.83,2.29-2.1.93-3.82-.87C342.88,731.39,341.48,729.51,339.94,728.05Z" transform="translate(-285.28 -255.82)"/><path class="cls-6" d="M350.47,721.88c-4.18.87-5.74,6.52-4,11.3-1.7-2.38-4.25-2.54-5.71-5.49C343.1,724.87,347.45,721.22,350.47,721.88Z" transform="translate(-285.28 -255.82)"/><path class="cls-7" d="M399.07,515.9h10.48q.76,8.58,1.54,17.17a3.3,3.3,0,0,0,2.32,3c-1.67,7.42,1.7,14,3.23,21,3.38,15.38,7.69,30.65,7.8,46.52.07,9.71-2.11,19.28-4.74,28.56-4.53,16-7.29,32.42-10.89,48.64-1.29,5.81-2.58,11.63-4,17.41-.69,2.79-1.48,5.52-1.26,8.44.17,2.12-.69,3.36-3,3.18l-1.47-.69-.75-.1h0c-5.38-2.9-10.88-1-16.34-.35-3.58.45-7.14,1-10.66-.32.17-2.19.75-4.35,2.73-5.44,3.08-1.69,3.83-4.58,4-7.53.8-16.87,3.75-33.42,6.76-50,.55-3,1.38-5.8,3.81-7.85,1.84-1.55,1.7-3.39.9-5.42-1.16-2.92-1.65-5.7,1.28-8.1,1.31-1.07.82-2.7.38-4.19-4.58-15.59-9.5-31.07-15.06-46.33a25.11,25.11,0,0,1-1-14.2c.81-1.83,3-2.61,3.62-4.66-3.35.73-7.87,5.4-8.45,9.55-.83,5.85-2.16,11.68-1.84,17.66l.05-.07a3.85,3.85,0,0,0-.4.41s.11.17.16.25c1,3.2-.86,6-1.23,9a2.74,2.74,0,0,0-1.36,2.12c-3.94,18.78-9.76,37-15.46,55.32a15,15,0,0,0-.47,4l-.27.14.25-.16c2.54-1.17,2-4,3.22-6,.71-1.11,1-2.5,1.86-3.7-.23,4.32-.35,8.65-.7,13-.84,10.14-1.68,20.28-2.27,30.45-.44,7.46-.6,14.91-.62,22.37,0,1.31-.51,2.79.84,3.82.23.95.46,1.89.68,2.84-.47,2,1.56,5.51-3.07,4.79-4.95-1.14-9.89-2.59-14.88-.19-4.3.27-7.73,3.31-12,3.73a4.74,4.74,0,0,1-1.24-7.43c3.47-4.18,2.77-8.64,1.83-13A69.81,69.81,0,0,1,322.25,691c-.39-12.29-1.54-24.58-.94-36.9.12-2.35.6-4.67.69-7,.16-4.1.09-4.1,3.68-2.23a14.18,14.18,0,0,0-2.56-6.88c-3.44-5.15-3.39-7,0-12.12,2-3.09,1-6.51.95-9.82,0-1-.5-1.94-.51-2.91,0-12.81-1.43-25.6-.7-38.41.35-6.2-.26-12.35-.15-18.53.09-4.85,1.44-8.74,5.73-11.37,1.24-.76,2.51-1.71,2.57-3.44,4.8-3.29,9.2-7,11.25-12.67,2.71-3.84,3.65-8.29,4.46-12.79h33.65C384.39,519,395.23,519,399.07,515.9Zm-14.45,32.69a29,29,0,0,1,5.68-1.77c-3.14,3.67-6.84,6.65-9.49,10.69-1.51,2.31-1.85,4.28-1,6.53,2.72,6.94,5.62,13.82,8.41,20.73,4.53,11.19,7.61,22.85,11.43,34.27,1,3.06,1.92,6.18,3.2,9.13,1.08,2.5.27,3.18-2.12,3-.74-.05-1.49,0-2.24,0-1.83-.1-2.67.43-1.63,2.35,2.19,4.08,2.07,7.53-2.37,10.18-2.28,1.36-3.08,3.91-3.55,6.37-2.77,14.6-5.66,29.19-8,43.86a26.88,26.88,0,0,1-3.82,10.7c-.33.51-.93,1-.55,1.65s1.08.53,1.67.4a53.75,53.75,0,0,1,10.66-1.46c3.53-.09,6.67,1.78,10.35,1.74-.4-3.44-3.79-3.6-5.94-5.78,7.81-.69,5.47-7.18,6.32-11.21,4.53-21.64,10.76-42.85,15.55-64.41,1.68-7.59,4.86-14.89,4.4-22.94a121.22,121.22,0,0,0-3.3-21.29c-2.26-9.52-4.7-19-7-28.52-1.65-6.88-1.6-6.88-7.34-2.47a32.64,32.64,0,0,1-5.12,3.38,55,55,0,0,1,8.55-12.81c.83-.95,1.76-1.78,1.07-3.25-1.15-2.47-2.58-4.92-.77-7.71.15-.22,0-.91-.12-1-4.06-1.81-.86-4.26-.53-6.4.17-1.11.7-2.27-.13-3.2s-1.89-.08-2.75.24a87.13,87.13,0,0,1-28.33,5.68c-7.64.16-15.21-1.91-22.38-4.91-4.33-1.81-4.31-1.81-5.25,3a20,20,0,0,1-1.05,3.57c-2.48,6.28-2.5,6.27.06,11.91-2.95.29-5.19-2.52-8.18-1.79,3.34,5.09,3.34,5.09-2.08,7.8-1.11.55-2.29,1.5-3.38,1.43-4.88-.3-4.85,2.71-4.81,6.24.12,11-.24,22,.13,32.93.35,10.28,1.28,20.55,2.18,30.81a14.49,14.49,0,0,1-5,12.66c-1.57,1.43-1.87,2.7-.73,4.51.94,1.47,1.44,3.22,2.43,4.63,2.41,3.42,2.41,6.62-.24,9.89-1.07,1.33-1.06,3-1.06,4.64,0,9.36-.23,18.73.12,28.07a139.3,139.3,0,0,0,3.22,25.79c.9,3.95.8,7.33-2.79,10a6,6,0,0,0-2.58,5c7.8-6.21,16.25-4.5,24.67-3.24-.09-.7,0-1-.16-1.15-1.92-1.85-4.16-3.35-1.62-6.59,1-1.26.85-3.59.82-5.43a218.22,218.22,0,0,1,3-41.55,20.75,20.75,0,0,0,0-3c-3.3,2.35-5.31,5.14-8.1,7.49,1.12-5.34,2.16-10.71,3.38-16,3.1-13.55,8-26.6,10.68-40.29,2.76-14.22,5.51-28.43,7.8-42.75.9-5.7.25-9.57-4.05-13a3.3,3.3,0,0,1-1.48-2.5l.06-.05C368.75,556.6,376.52,551.72,384.62,548.59Z" transform="translate(-285.28 -255.82)"/><path class="cls-8" d="M341.48,515.9h-20.2c-.17,3-.17,5.94-.44,8.92-.31,3.51.47,7.13.92,10.68.15,1.21.58,2.69,2.4,1.74C333,532.6,340,526.46,341.48,515.9Z" transform="translate(-285.28 -255.82)"/><path class="cls-8" d="M341.48,515.9c-1.53,10.56-8.52,16.7-17.32,21.34-1.82,1-2.25-.53-2.4-1.74-.45-3.55-1.23-7.17-.92-10.68.27-3,.27-6,.44-8.92h-1.49c-.93,8.64-1.81,17.28-1.29,26,6.78,0,12.55-2.13,17-7.54,1.91-2.31,3.36-4.89,5.17-7.23a48.26,48.26,0,0,0,3.76-11.22Z" transform="translate(-285.28 -255.82)"/><path class="cls-8" d="M317.54,515.9c0,3.11,0,6.22,0,9.33,0,1.2,1-.09-.25.77.08,5-.54,12.61-.45,17.59h.72a1.79,1.79,0,0,1,.94-1.69c-.52-8.71.36-17.35,1.29-26Z" transform="translate(-285.28 -255.82)"/><path class="cls-8" d="M409.55,515.9q.76,8.58,1.54,17.17a3.3,3.3,0,0,0,2.32,3l.45.06c-1.63-3.54-1.26-7.4-1.67-11.12-.34-3-.28-6.08-.4-9.12Z" transform="translate(-285.28 -255.82)"/><path class="cls-8" d="M380.37,515.9c4,3.1,14.86,3.1,18.7,0Z" transform="translate(-285.28 -255.82)"/><path class="cls-8" d="M344.47,515.9a48.26,48.26,0,0,1-3.76,11.22,2.62,2.62,0,0,1,1.55,1.57c2.71-3.84,3.65-8.29,4.46-12.79Z" transform="translate(-285.28 -255.82)"/><path class="cls-8" d="M322.78,724a4.74,4.74,0,0,1-1.24-7.43c3.47-4.18,2.77-8.64,1.83-13A69.81,69.81,0,0,1,322.25,691c-.39-12.29-1.54-24.58-.94-36.9.12-2.35.6-4.67.69-7,.16-4.1.09-4.1,3.68-2.23a14.18,14.18,0,0,0-2.56-6.88c-3.44-5.15-3.39-7,0-12.12,2-3.09,1-6.51.95-9.82,0-1-.5-1.94-.51-2.91,0-12.81-1.43-25.6-.7-38.41.35-6.2-.26-12.35-.15-18.53.09-4.85,1.44-8.74,5.73-11.37,1.24-.76,2.51-1.71,2.57-3.44-4.25.61-8.22,2.87-12.7,2.26,0,18-.21,36.06.1,54.08.11,6.9.2,13.89,1.92,20.71.47,1.88.92,4.41.06,5.87-3,5-1.06,9.46.79,14,.05.12-.21.36-.18.33-.65.83-2-2.62-2,.6,0,5.72-.94,11.37-.82,17.12.26,11.57-.25,23.15.8,34.7.15,3.21.25,6.41.58,9.62.41,4.06,1.07,8.41-1.47,12.23-.8.8-.62,1.83-.67,2.8,1.79,1.71-.17,3.46,0,5.25C317.89,725.07,319,725.86,322.78,724Z" transform="translate(-285.28 -255.82)"/><path class="cls-8" d="M413.86,536.14l-.45-.06c-1.67,7.42,1.7,14,3.23,21,3.38,15.38,7.69,30.65,7.8,46.52.07,9.71-2.11,19.28-4.74,28.56-4.53,16-7.29,32.42-10.89,48.64-1.29,5.81-2.58,11.63-4,17.41-.69,2.79-1.48,5.52-1.26,8.44.17,2.12-.69,3.36-3,3.18a2.33,2.33,0,0,0,2.25,1.48l.9.06a4.76,4.76,0,0,0,1.69-5.62,4.85,4.85,0,0,1-.1-2.94c6.1-22.07,9.32-44.78,14.93-67,2.27-9,4.94-18,5.88-27.25,1.06-10.58-1.57-20.79-3.44-31.05-2.08-11.37-4.39-22.71-8.32-33.63a2.26,2.26,0,0,1,.42-2.37C416.33,539.41,416.05,537.61,413.86,536.14Z" transform="translate(-285.28 -255.82)"/><path class="cls-8" d="M319,691.07c-1-11.55-.54-23.13-.8-34.7-.12-5.75.87-11.4.82-17.12,0-3.22,1.31.23,2-.6,0,0,.23-.21.18-.33-1.85-4.58-3.75-9-.79-14,.86-1.46.41-4-.06-5.87-1.72-6.82-1.81-13.81-1.92-20.71-.31-18-.1-36.05-.1-54.08l-.75,0h-.72c-.56,20.91-.7,41.82,0,62.73a93.21,93.21,0,0,0,1.24,10.36c.51,3.37.87,6.67-1,9.78a5,5,0,0,0,0,5.35c2.12,3.56,1.13,7,.54,10.73-1.74,11.07-2.27,22.19-.23,33.34.51,2.76,0,5.69.18,8.54.11,2.22.46,4.43.71,6.65Z" transform="translate(-285.28 -255.82)"/><path class="cls-8" d="M359.46,553.3c9.29,3.3,17.06-1.58,25.16-4.71a29,29,0,0,1,5.68-1.77c-3.14,3.67-6.84,6.65-9.49,10.69-1.51,2.31-1.85,4.28-1,6.53,2.72,6.94,5.62,13.82,8.41,20.73,4.53,11.19,7.61,22.85,11.43,34.27,1,3.06,1.92,6.18,3.2,9.13,1.08,2.5.27,3.18-2.12,3-.74-.05-1.49,0-2.24,0-1.83-.1-2.67.43-1.63,2.35,2.19,4.08,2.07,7.53-2.37,10.18-2.28,1.36-3.08,3.91-3.55,6.37-2.77,14.6-5.66,29.19-8,43.86a26.88,26.88,0,0,1-3.82,10.7c-.33.51-.93,1-.55,1.65s1.08.53,1.67.4a53.75,53.75,0,0,1,10.66-1.46c3.53-.09,6.67,1.78,10.35,1.74-.4-3.44-3.79-3.6-5.94-5.78,7.81-.69,5.47-7.18,6.32-11.21,4.53-21.64,10.76-42.85,15.55-64.41,1.68-7.59,4.86-14.89,4.4-22.94a121.22,121.22,0,0,0-3.3-21.29c-2.26-9.52-4.7-19-7-28.52-1.65-6.88-1.6-6.88-7.34-2.47a32.64,32.64,0,0,1-5.12,3.38,55,55,0,0,1,8.55-12.81c.83-.95,1.76-1.78,1.07-3.25-1.15-2.47-2.58-4.92-.77-7.71.15-.22,0-.91-.12-1-4.06-1.81-.86-4.26-.53-6.4.17-1.11.7-2.27-.13-3.2s-1.89-.08-2.75.24a87.13,87.13,0,0,1-28.33,5.68c-7.64.16-15.21-1.91-22.38-4.91-4.33-1.81-4.31-1.81-5.25,3a20,20,0,0,1-1.05,3.57c-2.48,6.28-2.5,6.27.06,11.91-2.95.29-5.19-2.52-8.18-1.79,3.34,5.09,3.34,5.09-2.08,7.8-1.11.55-2.29,1.5-3.38,1.43-4.88-.3-4.85,2.71-4.81,6.24.12,11-.24,22,.13,32.93.35,10.28,1.28,20.55,2.18,30.81a14.49,14.49,0,0,1-5,12.66c-1.57,1.43-1.87,2.7-.73,4.51.94,1.47,1.44,3.22,2.43,4.63,2.41,3.42,2.41,6.62-.24,9.89-1.07,1.33-1.06,3-1.06,4.64,0,9.36-.23,18.73.12,28.07a139.3,139.3,0,0,0,3.22,25.79c.9,3.95.8,7.33-2.79,10a6,6,0,0,0-2.58,5c7.8-6.21,16.25-4.5,24.67-3.24-.09-.7,0-1-.16-1.15-1.92-1.85-4.16-3.35-1.62-6.59,1-1.26.85-3.59.82-5.43a218.22,218.22,0,0,1,3-41.55,20.75,20.75,0,0,0,0-3c-3.3,2.35-5.31,5.14-8.1,7.49,1.12-5.34,2.16-10.71,3.38-16,3.1-13.55,8-26.6,10.68-40.29,2.76-14.22,5.51-28.43,7.8-42.75.9-5.7.25-9.57-4.05-13a3.26,3.26,0,0,1-1.47-2.5c-.1-.12-.2-.23-.29-.35Z" transform="translate(-285.28 -255.82)"/><path class="cls-8" d="M374.36,581.91a1.15,1.15,0,0,0,.07.63,1.39,1.39,0,0,1,.64,1.58L375,584a2.89,2.89,0,0,1,1.5,2c3.75,10.91,7,22,9.71,33.18.12.46.22,1.23,0,1.44-3.45,2.85-1.16,6.46-1.34,9.73l.17.31-.16-.31c-1.09.08-1.3.79-1.52,1.75-2.42,10.5-5,20.94-6.21,31.72-1.08,9.46-2.43,18.9-3.64,28.36-.44,3.44-.15,7.58-3.86,9.93l.15-.07-.49.89c-.06,1-.12,2-.19,3,1.05.48.62,2.39,2.24,2.31.17-2.19.75-4.35,2.73-5.44,3.08-1.69,3.83-4.58,4-7.53.8-16.87,3.75-33.42,6.76-50,.55-3,1.38-5.8,3.81-7.85,1.84-1.55,1.7-3.39.9-5.42-1.16-2.92-1.65-5.7,1.28-8.1,1.31-1.07.82-2.7.38-4.19-4.58-15.59-9.5-31.07-15.06-46.33a25.11,25.11,0,0,1-1-14.2c-2.24,1.43-3,3.73-3.72,6.13-1,3.22,0,6.67-1.34,9.82,2.78,1,2.59,3.79,3.67,5.81C373.92,581.34,374.14,581.62,374.36,581.91Z" transform="translate(-285.28 -255.82)"/><path class="cls-8" d="M352,712.84c1.31-10.92,1.26-21.93,2.17-32.87,1.4-16.71,1.24-33.59,4.53-50.09,2.37-11.91,5.6-23.66,8.48-35.47.26-1,1-2.06-.2-3a2.74,2.74,0,0,0-1.36,2.12c-3.94,18.78-9.76,37-15.46,55.32a15,15,0,0,0-.47,4l0,0c2.54-1.17,2-4,3.22-6,.71-1.11,1-2.5,1.86-3.7-.23,4.32-.35,8.65-.7,13-.84,10.14-1.68,20.28-2.27,30.45-.44,7.46-.6,14.91-.62,22.37C351.18,710.33,350.68,711.81,352,712.84Z" transform="translate(-285.28 -255.82)"/><path class="cls-8" d="M317.56,543.58l.75,0c4.48.61,8.45-1.65,12.7-2.26,4.8-3.29,9.2-7,11.25-12.67a2.62,2.62,0,0,0-1.55-1.57c-1.81,2.34-3.26,4.92-5.17,7.23-4.49,5.41-10.26,7.53-17,7.54A1.79,1.79,0,0,0,317.56,543.58Z" transform="translate(-285.28 -255.82)"/><path class="cls-7" d="M370,575.24c1.33-3.15.34-6.6,1.34-9.82.74-2.4,1.48-4.7,3.72-6.13.81-1.83,3-2.61,3.62-4.66-3.35.73-7.87,5.4-8.45,9.55-.83,5.85-2.16,11.68-1.84,17.66C370.18,579.94,369.85,577.53,370,575.24Z" transform="translate(-285.28 -255.82)"/><path class="cls-9" d="M398.34,709c.2.44.44.49.75.1Z" transform="translate(-285.28 -255.82)"/><path class="cls-10" d="M349.72,652.9l-.27.14.25-.16Z" transform="translate(-285.28 -255.82)"/><path class="cls-9" d="M368.24,582.43l.24-.66a3.85,3.85,0,0,0-.4.41S368.19,582.35,368.24,582.43Z" transform="translate(-285.28 -255.82)"/><path class="cls-11" d="M359.46,553.3l-.34-.3c.09.12.19.23.29.35Z" transform="translate(-285.28 -255.82)"/><path class="cls-8" d="M384.86,630.43c.18-3.27-2.11-6.88,1.34-9.73.25-.21.15-1,0-1.44-2.75-11.21-6-22.27-9.71-33.18a2.89,2.89,0,0,0-1.5-2c.56,5.37,2.83,10.28,4.21,15.42,1.45,5.41,3.24,10.71,4.77,16.09.36,1.28,1.19,2.62.55,4-3,6.5-2.82,13.73-4.83,20.52-4.22,14.24-4.87,29.18-6.75,43.87-.8,6.16-1.47,12.31-3.32,18.26,3.7-2.35,3.41-6.49,3.85-9.93,1.21-9.46,2.56-18.9,3.64-28.36,1.23-10.78,3.79-21.22,6.21-31.72.22-1,.43-1.67,1.52-1.75Z" transform="translate(-285.28 -255.82)"/><path class="cls-12" d="M375.07,584.12a1.39,1.39,0,0,0-.64-1.58C374.25,583.23,374.25,583.84,375.07,584.12Z" transform="translate(-285.28 -255.82)"/><path class="cls-12" d="M369.3,703l.49-.89C369.29,702.23,369.25,702.59,369.3,703Z" transform="translate(-285.28 -255.82)"/><path class="cls-12" d="M374.36,581.91c-.22-.29-.44-.57-.65-.86C373.92,581.34,374.14,581.62,374.36,581.91Z" transform="translate(-285.28 -255.82)"/><path class="cls-12" d="M384.87,630.43l.16.31-.17-.31Z" transform="translate(-285.28 -255.82)"/><path class="cls-13" d="M318.56,327.86c-.24,0-.84,4.95-.91,5.32a37.51,37.51,0,0,0-.89,4.31c0,1.27,1.18,2.29,1,3.6s-1.58,2.08-1.93,3.24a23.89,23.89,0,0,1-6.46-2.07c-3.48-1.47-7.14-3.5-9.26-6.73C300.11,335.53,300.84,329.87,318.56,327.86Z" transform="translate(-285.28 -255.82)"/><path class="cls-14" d="M318.56,327.86l.47-3.17s-15.11,3.81-20.26,8.12c0,0-5.61,4.8,16.31,13.55l.67-2s-10.16-2.59-15.64-8.82C300.11,335.53,299.84,331.3,318.56,327.86Z" transform="translate(-285.28 -255.82)"/><path class="cls-14" d="M436.82,327.86s15.25,2,23.94,11.76c0,0,3.21,10.76-22.73,14.34v-5s19.65-.29,21-6.88c0,0-5.75-8.46-22.2-12.77Z" transform="translate(-285.28 -255.82)"/><path class="cls-13" d="M436.82,329.29s2.41,14.77,1.21,19.65c0,0,18.7,0,21.79-7a1.53,1.53,0,0,0-.32-1.71A42.79,42.79,0,0,0,436.82,329.29Z" transform="translate(-285.28 -255.82)"/><path class="cls-15" d="M434.69,339.22s6.25-.08,7.75,8.84-6.72,13.7-6.72,13.7Z" transform="translate(-285.28 -255.82)"/><path class="cls-16" d="M434.36,363.16s9.3-24.4,5.1-33.23-8.27-6.79-8.27-6.79S430.79,355.68,434.36,363.16Z" transform="translate(-285.28 -255.82)"/><path class="cls-17" d="M388.16,422.07s-6.23-18.23,0-25.86H361.32s12.74,22.11,0,25.86Z" transform="translate(-285.28 -255.82)"/><path class="cls-17" d="M301,461.33a23.3,23.3,0,0,0-1.44,5.69c-.72,3.65-1.34,7.31-1.94,11q-1.42,8.6-2.65,17.22c-1,6.93-1.31,13.92-2.07,20.87-.66,6-1.83,11.84-1.42,17.92a6.64,6.64,0,0,1-.49,3.72,9.57,9.57,0,0,1-1.37,1.69c-3.64,4.07-3.86,9.75-3.94,14.77,0,2.41-.48,10.87,4.06,10.75-.39-4.54-2.15-9.62-1-14.06-1.13,5.75-.54,15.53,5.9,17.74-.28-2.88-2.05-5.57-2.26-8.62a39.91,39.91,0,0,1,.68-8.19c-.64,5.42-1.76,19.68,7.24,19.24-1.92-3.53-4.08-5.6-4-9.93.08-3.29.37-6.42.21-9.7-.85,8.15-1,19.61,8.84,22,2,.49,4-.24,3-2.62s-4.6-3.11-5.91-5.31c-2-3.4-.91-10.4.72-13.66-.14.26,3.18,5.49,3.57,6,1.42,1.89,6.23,3.33,5.59-.69a5.55,5.55,0,0,0-1-2c-3.19-5-3.17-11.19-6.46-16.11a9.21,9.21,0,0,1-1.6-2.92,6.49,6.49,0,0,1,.39-3.13,46.58,46.58,0,0,0,1.72-9.12c.55-5.52,2.86-10.6,4-15.94.79-3.56,1.72-7,2.75-10.43.56-1.89,10.09-31,9.93-32.91-4.54-1.52-15.56-.62-20.21-1.64-1.34-.29-.39-2.73-.92-1.63" transform="translate(-285.28 -255.82)"/><path class="cls-18" d="M301,461.33a23.3,23.3,0,0,0-1.44,5.69c-.72,3.65-1.34,7.31-1.94,11q-1.42,8.6-2.65,17.22c-1,6.93-1.31,13.92-2.07,20.87-.66,6-1.83,11.84-1.42,17.92a6.64,6.64,0,0,1-.49,3.72,9.57,9.57,0,0,1-1.37,1.69c-3.64,4.07-3.86,9.75-3.94,14.77,0,2.41-.48,10.87,4.06,10.75-.39-4.54-2.15-9.62-1-14.06-1.13,5.75-.54,15.53,5.9,17.74-.28-2.88-2.05-5.57-2.26-8.62a39.91,39.91,0,0,1,.68-8.19c-.64,5.42-1.76,19.68,7.24,19.24-1.92-3.53-4.08-5.6-4-9.93.08-3.29.37-6.42.21-9.7-.85,8.15-1,19.61,8.84,22,2,.49,4-.24,3-2.62s-4.6-3.11-5.91-5.31c-2-3.4-.91-10.4.72-13.66-.14.26,3.18,5.49,3.57,6,1.42,1.89,6.23,3.33,5.59-.69a5.55,5.55,0,0,0-1-2c-3.19-5-3.17-11.19-6.46-16.11a9.21,9.21,0,0,1-1.6-2.92,6.49,6.49,0,0,1,.39-3.13,46.58,46.58,0,0,0,1.72-9.12c.55-5.52,2.86-10.6,4-15.94.79-3.56,1.72-7,2.75-10.43.56-1.89,10.09-31,9.93-32.91-4.54-1.52-15.56-.62-20.21-1.64C300.59,462.67,301.54,460.23,301,461.33Z" transform="translate(-285.28 -255.82)"/><path class="cls-19" d="M303.3,465.83c-1.73,2.6-1.12,6.64-1.5,9.63-.8,6.28-1.5,12.59-2.34,18.84-1.56,11.8-4.39,23.52-5.64,35.4-.52,5-1.38,9.91-1.38,14.9,0,3.14,1.08,3.69,3.74,5.22a6.16,6.16,0,0,0,3.47,1.23c1.48.14,2.25-3.54,3.64-3,2,.73,3.37,6.16,5.33,8.07a.4.4,0,0,0,.64-.45,36.29,36.29,0,0,1-1.69-5.55c-.82-4.49-1.09-8.11-4.28-12.07a5.3,5.3,0,0,1-.66-5.52c2-6,1.56-12,2.71-18.12a152,152,0,0,1,4.7-18.17c1.89-5.91,4-11.76,6.27-17.58.83-2.19,5.63-10.2,1.7-11.14-3.45-.83-8.48-1.69-11.95-2.46-3.67-.82-1.63,0-2.76.82" transform="translate(-285.28 -255.82)"/><path class="cls-19" d="M300.19,552.89c-2,.63-2.06,3.56-2.06,5.21a9.92,9.92,0,0,0,.86,4.49c.53,1.12,1.55,3,3,3.23.06-1.31-.94-2.73-1-4.12a24.42,24.42,0,0,1,.35-4c.12-1.07.3-2.13.43-3.16s-.36-1.43-1.57-1.63" transform="translate(-285.28 -255.82)"/><path class="cls-20" d="M409.11,411.51c25.45,12.2,30.71,24.24,29.18,51.49-.2,3.49-15.93-1.41-18-1-4.33.85-3.81,22.88-4,27.11a87.61,87.61,0,0,1-1.41,13.33c-1.25,6.32-4,14.44-2.78,20.93-7.95-2.52-18,2.92-26.19,3.34a169.83,169.83,0,0,1-31.3-1.61c-11.66-1.57-23.47.52-34.11-5.86a7.63,7.63,0,0,1-2.35-1.94,8.2,8.2,0,0,1-1.15-4,116.56,116.56,0,0,1,4.73-45.95c-7.86-.59,16.32-59.11,26.27-66.52,4.93,5.5,6,14.64,11.12,19.67,7.74,7.66,14.14-2,22.58-.5,6.38,1.1,7.91,8.2,12.74.88,2-3.08-5.92-11.22-5.17-14.86,5.3-.85,16.22,2.8,20.35,5.89-1-.68.51-.38-.53-.38" transform="translate(-285.28 -255.82)"/><path class="cls-21" d="M398.66,519.89c-1.05-2.46-.29-6.92-1.34-9.47-6,7.07-16.15,9.31-26.09,8.82-11.56-.58-18.29-4.82-28-10,.78,4.22,3.54,7.88,5.13,11.88-5.22-2.74-16.4-3-16.5-9.94,0-2.49,3.34-7.37,4.28-9.86a140,140,0,0,0,4.42-14.82c5-19.53,7.86-37.94,4.49-58.16,3.82,5.49,12.21,21.71,17.86,23.91,1.59-8.41-7.73-14,1.61-21.9,11.07-9.4,13.69,5.1,20.77,11.48,3.08-3.51,1-8.47,3.94-12.15,9,15,10.23,27.6,5.39,44.2-3,10.42-10.94,26.17-14.69,35.27,9.36-4.54,12.87-17.39,19.22-24.54,4.3,7.44,9,30.39,1,36.33-.75-.63-1.65-1.55-1.49-1.06" transform="translate(-285.28 -255.82)"/><path class="cls-1" d="M386.47,400.26c-2.27,2.89-5.06,16.26-4.48,19.94.54,3.43,8.15,11.78,11.2,14.13,1.14-3.05,1.57-6.8,2.22-9.91.57-2.75,2.5-6.28,2.64-8.91.24-4.75-6.7-15.47-11.58-15.25" transform="translate(-285.28 -255.82)"/><path class="cls-22" d="M379.68,425.55a.43.43,0,0,1-.36-.22.32.32,0,0,0-.08-.09.12.12,0,0,0-.14.05,1.06,1.06,0,0,0-.11.21h0v0c1.15,6.9,2.92,13.69,4.51,20.46.76,3.39,1.56,6.78,2.08,10.18a98.75,98.75,0,0,1,1.07,10.3,187.81,187.81,0,0,1-.23,20.81c-.19,3.47-.43,6.93-.95,10.35a30.32,30.32,0,0,1-3,9.92,19.29,19.29,0,0,0,2.4-4.67,38.85,38.85,0,0,0,1.51-5.07A83.39,83.39,0,0,0,388,487.39c.33-3.48.6-7,.74-10.48s.1-7-.06-10.55a92.7,92.7,0,0,0-1.2-10.5c-.64-3.49-1.47-6.89-2.41-10.26-1.84-6.77-4.1-13.36-6-20.09v0a1.07,1.07,0,0,1,.07-.19c0-.07.07,0,.13,0a.42.42,0,0,0,.39.19" transform="translate(-285.28 -255.82)"/><path d="M412.86,527.45a19.6,19.6,0,0,1-1-7.18,226,226,0,0,1-76.58,1.39c-3.35-.54-6.42-.69-9.7-1.42-2.71-.61-5.55-4.49-8.29-4.24,0,2.43-.25,10.56,0,13,2.43.27,3.93-1.76,6.14-.77a22.83,22.83,0,0,0,8.53,1.91c6.62.32,13.27-.3,19.89,0,13.74.6,29,3,42.34.94,3.81-.59,11.14-1.61,16.41-.94a2.1,2.1,0,0,0,2.26-2.69" transform="translate(-285.28 -255.82)"/><path class="cls-23" d="M412.86,527.45a19.6,19.6,0,0,1-1-7.18,226,226,0,0,1-76.58,1.39c-3.35-.54-6.42-.69-9.7-1.42-2.71-.61-5.05-4-7.79-3.74,0,2.43-.25,7.56,0,10a15.55,15.55,0,0,1,5.64,1.73,22.83,22.83,0,0,0,8.53,1.91c6.62.32,13.27-.3,19.89,0,13.74.6,29,3,42.34.94,3.81-.59,11.14-1.61,16.41-.94A2.1,2.1,0,0,0,412.86,527.45Z" transform="translate(-285.28 -255.82)"/><path class="cls-24" d="M376.32,524.87c-.76-.08-1.54-.06-2.3-.17a12.33,12.33,0,0,0-1.35-.13c-.26,0-1,0-1.19-.16-.71-.61,1-.52,1.29-.52,1.12,0,2.25.11,3.38.17.81,0,2.79,0,3.2.73a2.78,2.78,0,0,1,.13,1.54c-.05.57,0,1.15,0,1.73a16.83,16.83,0,0,1-.13,2.46c-.12.86-.58,1.23-1.49,1.32a38.83,38.83,0,0,1-3.89,0c-.58,0-3,.13-3.29-.51a8.51,8.51,0,0,1,2.19.05c1.08,0,2.16.17,3.25.17a2.31,2.31,0,0,0,1.81-.47,2.65,2.65,0,0,0,.32-1.52c0-.43.05-.85.07-1.28,0-.19,0-.38,0-.58s0-.28,0-.42,0-.34,0-.51a3.17,3.17,0,0,0-.05-1,1,1,0,0,0-.8-.74,9.87,9.87,0,0,0-1.21-.1" transform="translate(-285.28 -255.82)"/><path class="cls-25" d="M374.63,524.71c-.45,0-.93-.1-1.4-.15-.22,0-1.67-.11-1.64-.38a6.3,6.3,0,0,1,1.23-.07c.64,0,1.28,0,1.92.09,1,.13,2,.11,2.95.18a1.57,1.57,0,0,1,1.44,1.18,4.45,4.45,0,0,1,0,.73c0,.36,0,.7,0,1.06,0,.7-.05,1.4-.06,2.1a2.68,2.68,0,0,1-.35,1.76,1.67,1.67,0,0,1-1.08.44,10.74,10.74,0,0,1-2.34.1c-.84,0-1.66,0-2.5-.09l-1.08-.06c-.16,0-.57,0-.62-.2.11.08.31,0,.45,0a4.85,4.85,0,0,1,.76,0,11.39,11.39,0,0,0,1.74.17c.77,0,1.54.06,2.3,0a5.09,5.09,0,0,0,1-.13,1.49,1.49,0,0,0,1.07-1.34,10.56,10.56,0,0,1,.09-1.12,7.93,7.93,0,0,0,.12-1.08,5.58,5.58,0,0,0-.3-2.56c-.36-.77-1.8-.71-2.54-.71a7.39,7.39,0,0,0-1.24,0" transform="translate(-285.28 -255.82)"/><path class="cls-24" d="M376.76,528.08h2.61a.27.27,0,0,0,.27-.27v-.25a.27.27,0,0,0-.27-.27h-2.61a.27.27,0,0,0-.27.27v.25a.27.27,0,0,0,.27.27" transform="translate(-285.28 -255.82)"/><rect class="cls-26" x="91.21" y="271.47" width="3.15" height="0.79" rx="0.27"/><path class="cls-21" d="M376.64,447.34v13.22c0,3.79,1.42,9.23-2.29,11.61-2.22,1.42-4.38,3-6.59,4.39-3.56,2.24-3.56,1.35-7.39-.5a86.79,86.79,0,0,0-8.46-3.57c-1.89-.68-6.28-1.24-7.69-2.55-1.22-1.13-.63-3.34-.65-4.79,0-3-.49-5.94-.48-8.95,0-2.41-.36-4.72-.51-7.11-.13-2-.45-2.25,2.12-2.36,6-.25,12.11.62,18.15.21,4.56-.31,9.19-1.05,13.76-.79.09.46.32,1.06,0,1.19" transform="translate(-285.28 -255.82)"/><path class="cls-27" d="M376.64,447.34v13.22c0,3.79,1.42,9.23-2.29,11.61-2.22,1.42-4.38,3-6.59,4.39-3.56,2.24-3.56,1.35-7.39-.5a86.79,86.79,0,0,0-8.46-3.57c-1.89-.68-6.28-1.24-7.69-2.55-1.22-1.13-.63-3.34-.65-4.79,0-3-.49-5.94-.48-8.95,0-2.41-.36-4.72-.51-7.11-.13-2-.45-2.25,2.12-2.36,6-.25,12.11.62,18.15.21,4.56-.31,9.19-1.05,13.76-.79C376.7,446.61,376.93,447.21,376.64,447.34Z" transform="translate(-285.28 -255.82)"/><path class="cls-28" d="M367.47,456.29a9.75,9.75,0,0,1-2.85.88,12.31,12.31,0,0,1-4.09-.41l-14.25-3a7.4,7.4,0,0,1-2.71-1c-.72-.53-1-1.45-.37-2l13.91,2.57a19.9,19.9,0,0,0,4.56.48c3.22-.14,12.59-6.79,14.62-5.88,3.35,1.51-7.37,7.74-8.82,8.38" transform="translate(-285.28 -255.82)"/><path class="cls-21" d="M376.94,447.81,363,453.54a9.73,9.73,0,0,1-2.57.8,10.59,10.59,0,0,1-3.27-.25q-7.23-1.32-14.36-2.95c.39-2.94-.92-5.87-.54-8.81,4,.67,9.77-.39,13.79-.88a89.05,89.05,0,0,1,16.89-.3c1.51.11,2.94.07,3.78,1.22.36.49.62,5.26.18,5.44" transform="translate(-285.28 -255.82)"/><path class="cls-27" d="M376.94,447.81,363,453.54a9.73,9.73,0,0,1-2.57.8,10.59,10.59,0,0,1-3.27-.25q-7.23-1.32-14.36-2.95c.39-2.94-.92-5.87-.54-8.81,4,.67,9.77-.39,13.79-.88a89.05,89.05,0,0,1,16.89-.3c1.51.11,2.94.07,3.78,1.22C377.12,442.86,377.38,447.63,376.94,447.81Z" transform="translate(-285.28 -255.82)"/><path class="cls-21" d="M403.94,441.76a25.75,25.75,0,0,1-10.75-1,16.32,16.32,0,0,0,1.17,8.51h11.91q-1.44-4.28-2.87-8.55" transform="translate(-285.28 -255.82)"/><path class="cls-27" d="M403.94,441.76a25.75,25.75,0,0,1-10.75-1,16.32,16.32,0,0,0,1.17,8.51h11.91q-1.44-4.28-2.87-8.55" transform="translate(-285.28 -255.82)"/><path class="cls-21" d="M395.8,459.23a17.45,17.45,0,0,0,.87,4.82,11.53,11.53,0,0,0,6.73,6.16,34.49,34.49,0,0,0,9.19,1.79,56.62,56.62,0,0,1-5.41-22.14c0,.83-9.41-1.13-10.35-.56-3,1.79-1.27,7.05-1,9.93" transform="translate(-285.28 -255.82)"/><path class="cls-27" d="M395.8,459.23a17.45,17.45,0,0,0,.87,4.82,11.53,11.53,0,0,0,6.73,6.16,34.49,34.49,0,0,0,9.19,1.79,56.62,56.62,0,0,1-5.41-22.14c0,.83-9.41-1.13-10.35-.56C393.85,451.09,395.56,456.35,395.8,459.23Z" transform="translate(-285.28 -255.82)"/><path class="cls-20" d="M391,430.13l-6.4-8.06a8.24,8.24,0,0,1-1.86-9.17c.92-3.84.89-11.93,5.41-10.81,2.12.53,5.81,4.72,6.8,6.7,1.41,2.81,1,6,.55,9-.22,1.32-4.51,12.35-4.5,12.36" transform="translate(-285.28 -255.82)"/><path class="cls-21" d="M389.36,405.14a13.55,13.55,0,0,1,3.77,7.87c.22,3.21-1.19,6.27-2.56,9.16-.22.46-.55,1-1.05,1a1.35,1.35,0,0,1-.79-.43l-3.49-3.15a6.2,6.2,0,0,1-1.85-2.29,6.07,6.07,0,0,1-.14-2.65c.3-3,.84-15.41,6.11-9.49" transform="translate(-285.28 -255.82)"/><path class="cls-22" d="M333.17,437.38a14.35,14.35,0,0,0-1,2.45c-.25.81-.43,1.63-.61,2.47a40.51,40.51,0,0,1-1.17,5.2l-2.07,6.26.26-6.48.06-1.42c0-.47,0-.93,0-1.39a7.09,7.09,0,0,0-.48-2.76,4.52,4.52,0,0,1,1.71,2.55,9.79,9.79,0,0,1,.36,1.49c.1.5.12,1,.17,1.49l-1.81-.22a33.76,33.76,0,0,1,1.25-5.2,10.08,10.08,0,0,1,1.26-2.52A6.16,6.16,0,0,1,333.17,437.38Z" transform="translate(-285.28 -255.82)"/><path class="cls-17" d="M431.23,323.06s-1.58,18.09,3.16,27c0,0,11.7,21.58-22.14,38.39s-49.34,11.1-75.28-4.12c0,0-13.67-10.82-14-21.29,0,0,.38-19.64,1-28.21,0,0,27.52-13.32,29.74-13.32S431.23,323.06,431.23,323.06Z" transform="translate(-285.28 -255.82)"/><path class="cls-29" d="M396.77,376.36c-3.49.44-22.65,2.62-36.59-.86-.22-.06-.38.16-.23.31,2,2.11,10.22,10.19,16.74,11.34a3.66,3.66,0,0,0,1,0c2.23-.17,10.91-1.42,19.28-10.51A.19.19,0,0,0,396.77,376.36Z" transform="translate(-285.28 -255.82)"/><path class="cls-30" d="M395.63,377.06s-9.95,10-17.74,9.53-16.81-10.25-16.81-10.25S374.74,379.65,395.63,377.06Z" transform="translate(-285.28 -255.82)"/><path class="cls-31" d="M392.84,378.46a23,23,0,0,1-7.45,3.28,24.94,24.94,0,0,1-8.12.74,15.66,15.66,0,0,1-2-.26,12.43,12.43,0,0,1-2-.4l-2-.53-1.91-.74-1-.37c-.31-.14-.61-.31-.91-.46l-1.81-1c-1.18-.69-2.27-1.51-3.41-2.25,1.16.71,2.28,1.49,3.47,2.15l1.81.92c.31.15.6.31.91.45l1,.36,1.91.71,2,.51a13.57,13.57,0,0,0,2,.38,16.94,16.94,0,0,0,2,.23,24.58,24.58,0,0,0,8.06-.65A25.52,25.52,0,0,0,392.84,378.46Z" transform="translate(-285.28 -255.82)"/><path class="cls-18" d="M431.19,323.07s-1.58,18.2,3.17,27.13c0,0,11.69,21.71-22.14,38.62-32.73,16.37-48.29,11.52-72.75-2.68a31.26,31.26,0,0,1-5.3-3.84,53.46,53.46,0,0,1-5.13-5.37,28,28,0,0,1-6.17-20.75c.69-6.6,1.53-16.31,1.13-21.3,0,0,27.51-13.4,29.73-13.4S431.19,323.07,431.19,323.07Z" transform="translate(-285.28 -255.82)"/><path class="cls-19" d="M420.32,359.83c-1.67.65-3.64.25-5.34.88a12.6,12.6,0,0,0-3.55,2.39c-1.94,1.56-5.5,5.5-7.23,2.06-3.07-6.12,8.21-10,11.86-10.19C418.67,354.84,426.12,357.59,420.32,359.83Z" transform="translate(-285.28 -255.82)"/><path class="cls-19" d="M352.47,360.18c1.59,2.64,2.5,8-2.14,7-2.7-.6-5-3.54-7.73-4.4-2.36-.74-9,.35-8.37-3.2.55-3.25,6.08-3.85,8.37-3.94C347.2,355.43,350,355.65,352.47,360.18Z" transform="translate(-285.28 -255.82)"/><path class="cls-32" d="M352.47,360.18a7.35,7.35,0,0,0-2.36-2.59,10.39,10.39,0,0,0-3.19-1.42,17.57,17.57,0,0,0-3.48-.58l-1.78,0c-.6,0-1.19,0-1.8,0,.59-.11,1.19-.19,1.79-.28s1.2-.06,1.8-.09a13.69,13.69,0,0,1,3.6.48,9.18,9.18,0,0,1,3.28,1.59A6.26,6.26,0,0,1,352.47,360.18Z" transform="translate(-285.28 -255.82)"/><path class="cls-32" d="M416.06,355a51.08,51.08,0,0,0-5.86,2c-.94.4-1.86.86-2.76,1.35a18.24,18.24,0,0,0-2.53,1.77,11.11,11.11,0,0,1,2.33-2.1,18,18,0,0,1,2.77-1.48,21.11,21.11,0,0,1,3-1A19.08,19.08,0,0,1,416.06,355Z" transform="translate(-285.28 -255.82)"/><path class="cls-33" d="M391.33,356.09s-5-15.78,9.29-19.58c0,0,14.68-3.3,16.52,12.73C417.14,349.24,412.37,362.45,391.33,356.09Z" transform="translate(-285.28 -255.82)"/><circle class="cls-34" cx="118.52" cy="91.21" r="8.69"/><path class="cls-35" d="M411,347s.74,6-6.6,6.86S397,347,397,347,403.38,356.15,411,347Z" transform="translate(-285.28 -255.82)"/><circle class="cls-36" cx="118.53" cy="90.34" r="3.34"/><path class="cls-37" d="M412.49,354.79a10.9,10.9,0,0,1-3.91,2.31,18.07,18.07,0,0,1-4.47,1,22.41,22.41,0,0,1-4.56,0c-.76-.08-1.5-.24-2.25-.37s-1.46-.37-2.18-.6c.76,0,1.5.09,2.25.12s1.49.06,2.23.07,1.48,0,2.21,0,1.47-.06,2.2-.13a28.81,28.81,0,0,0,4.33-.74A18.16,18.16,0,0,0,412.49,354.79Z" transform="translate(-285.28 -255.82)"/><path class="cls-37" d="M417.14,349.24a18.5,18.5,0,0,0-1.8-5.7,12.23,12.23,0,0,0-3.69-4.51c-3.13-2.35-7.4-2.74-11.16-2a12.93,12.93,0,0,0-8.59,7.28c-1.49,3.65-1.39,7.82-.57,11.75-.25-1-.5-2-.73-2.95s-.28-2-.34-3a16.73,16.73,0,0,1,.92-6.06,13.57,13.57,0,0,1,9.06-8c1.07-.18,2.07-.22,3.11-.33l1.55.06a8,8,0,0,1,1.54.16l1.53.31c.5.15,1,.36,1.47.53a6.83,6.83,0,0,1,1.4.71,6.59,6.59,0,0,1,1.27.89,12.74,12.74,0,0,1,3.67,4.91A17.37,17.37,0,0,1,417.14,349.24Z" transform="translate(-285.28 -255.82)"/><path class="cls-33" d="M366.09,355.22s5-15.78-9.3-19.58c0,0-14.68-3.3-16.52,12.73C340.27,348.37,345,361.58,366.09,355.22Z" transform="translate(-285.28 -255.82)"/><circle class="cls-34" cx="68.32" cy="90.34" r="8.69"/><path class="cls-35" d="M346.45,346.16s-.74,6,6.6,6.87,7.35-6.87,7.35-6.87S354,355.28,346.45,346.16Z" transform="translate(-285.28 -255.82)"/><circle class="cls-36" cx="68.13" cy="89.47" r="3.69"/><path class="cls-37" d="M344.92,353.93a18.56,18.56,0,0,0,4.14,1.57,27.9,27.9,0,0,0,4.34.73c.73.08,1.46.13,2.2.14s1.47,0,2.21,0,1.49-.06,2.23-.07,1.49-.11,2.25-.12c-.71.23-1.45.41-2.18.61s-1.49.29-2.24.36a21.8,21.8,0,0,1-4.57.06,18.53,18.53,0,0,1-4.47-1A11.19,11.19,0,0,1,344.92,353.93Z" transform="translate(-285.28 -255.82)"/><path class="cls-37" d="M340.27,348.37a17.35,17.35,0,0,1,1.35-5.91,12.94,12.94,0,0,1,3.67-4.91,6.66,6.66,0,0,1,1.28-.89A6.83,6.83,0,0,1,348,336c.49-.18,1-.38,1.47-.53l1.53-.31a7.32,7.32,0,0,1,1.54-.16l1.55-.06c1,.11,2,.15,3.11.33a13.57,13.57,0,0,1,9.06,8,16.52,16.52,0,0,1,.92,6.06c0,1-.22,2-.34,3s-.47,2-.72,2.94c.81-3.93.91-8.1-.57-11.74a13,13,0,0,0-8.6-7.29c-3.76-.77-8-.38-11.16,2a12.43,12.43,0,0,0-3.7,4.51A18.76,18.76,0,0,0,340.27,348.37Z" transform="translate(-285.28 -255.82)"/><line class="cls-38" x1="94.36" y1="102.46" x2="94.36" y2="105.62"/><path class="cls-32" d="M376.8,361.44a10.46,10.46,0,0,1,3.06-.47,5.53,5.53,0,0,1,3.09.82,3.89,3.89,0,0,1,1.61,2.9,10,10,0,0,1-.44,3.2,5.29,5.29,0,0,1-1.8,2.78A3.63,3.63,0,0,1,379,371a11.6,11.6,0,0,1-4.95-3.72,21.15,21.15,0,0,0,2.48,1.77,9.72,9.72,0,0,0,2.68,1.2,2.84,2.84,0,0,0,2.54-.37,4.41,4.41,0,0,0,1.41-2.31,9.51,9.51,0,0,0,.45-2.83,3.19,3.19,0,0,0-1.13-2.34,5.51,5.51,0,0,0-2.67-1A12.71,12.71,0,0,0,376.8,361.44Z" transform="translate(-285.28 -255.82)"/><ellipse class="cls-19" cx="94.82" cy="109.05" rx="2.93" ry="2.42"/><path class="cls-39" d="M395.1,329.67,396,333s12.67-2.94,22.46,2.35C418.49,335.35,416.79,327.35,395.1,329.67Z" transform="translate(-285.28 -255.82)"/><path class="cls-39" d="M367.33,329.67l-.94,3.33s-12.66-2.94-22.45,2.35C343.94,335.35,345.63,327.35,367.33,329.67Z" transform="translate(-285.28 -255.82)"/><path class="cls-15" d="M323.49,338.36s-6.24-.08-7.75,8.84,6.72,13.7,6.72,13.7Z" transform="translate(-285.28 -255.82)"/><path d="M318,324.47c.79-2.61,3.34-4.52,5.39-6.17,7.5-6,16.29-9.54,25.55-11.79,9.79-2.37,20.22-1.52,30.22-1.5a47.24,47.24,0,0,1,15.7,2.78c4,1.43,8.68,2.8,12.21,5.23,4.61,3.17,8.33,8.64,10.48,13.65,1,2.35,3,3.18,4.34,5.07-1.57,1-5.74-2.11-7.44-2.7-4.69-1.6-9-1.82-13.95-2.09a148.4,148.4,0,0,0-19.56-.31,88.17,88.17,0,0,1-18.16-.33c-3.54-.45-7-1.67-10.45-1.85-3.19-.15-6.12,1-8.94,2.46-6,3.08-12.42,5.57-17.45,10" transform="translate(-285.28 -255.82)"/><path class="cls-16" d="M316.83,339.09c-.95-4.26-1.53-8.6-.66-12.94.93-4.61,3.95-6.61,7.45-9.42,7.49-6,16.28-9.54,25.54-11.79,9.79-2.38,20.23-1.53,30.22-1.51a47.25,47.25,0,0,1,15.7,2.79c4,1.43,8.68,2.79,12.21,5.22,4.62,3.18,8.33,8.65,10.48,13.66,1,2.35,3,3.18,4.34,5.07-1.57,1-5.74-2.12-7.44-2.7-4.69-1.6-9-1.83-13.94-2.1-6.53-.35-13-.81-19.57-.3a88.89,88.89,0,0,1-18.16-.33c-3.54-.45-7-1.68-10.45-1.85-3.19-.16-6.12,1-8.93,2.46-6,3.08-12.42,5.56-17.46,10-2.83,2.49-3,6.94-3.3,10.4-.13,1.47.36,4.3-.5,5.42C318.9,348.42,318,344,317,339.93,317,339.65,316.89,339.37,316.83,339.09Z" transform="translate(-285.28 -255.82)"/><path class="cls-40" d="M442,312.79s-8.77-62.66-71.79-56.55c0,0-47.86,2.32-55.83,51.2C314.33,307.44,374.15,281.87,442,312.79Z" transform="translate(-285.28 -255.82)"/><path class="cls-41" d="M443.43,319s-.61-5.69-1.63-7.73c0,0-52.91-30.51-127.47-4.94,0,0-1.42,4.13-.81,6.77C313.52,313.12,381.83,290.34,443.43,319Z" transform="translate(-285.28 -255.82)"/><path class="cls-42" d="M321.55,305.19s-1.29,3.36-1.19,4.27c0,0,47.16-14.34,91.83-4.27C412.19,305.19,370.11,290.65,321.55,305.19Z" transform="translate(-285.28 -255.82)"/><path class="cls-40" d="M460.76,339.62s-2.71-31.26-70.95-35.86c0,0-48.19-3.58-75.43,9.05a13.4,13.4,0,0,0-3,1.86c-3.43,2.84-12.15,10.77-12.65,18.14,0,0,13.92-10,46.89-12.26C345.66,320.55,419.75,310.46,460.76,339.62Z" transform="translate(-285.28 -255.82)"/><circle class="cls-43" cx="122.9" cy="92.59" r="1.52"/><circle class="cls-43" cx="62.82" cy="91.92" r="1.52"/><path class="cls-20" d="M397.29,411.74c16.38.06,23.09,9.83,32.43,21.43,3.2,4,7,11.65,11.25,14.16,2.24,1.31,7.92,2.06,10.68,3.05a44.9,44.9,0,0,0,10.47,2.54c8.67.82,17,.9,25.21,2.82.19,3.86,1.79,10.47,1.43,13.59-.75,6.52-3.47,4.86-10,4.93-9.93.1-19.93.66-30.16.66-19.77,0-33.31-12.52-39.52-30C405.37,434.58,397.24,423.76,397.29,411.74Z" transform="translate(-285.28 -255.82)"/><path class="cls-21" d="M395.1,406.29c.39.07,27.19,4.71,38.78,25.44a46.39,46.39,0,0,1,3.6,10.07,8.57,8.57,0,0,0,6.08,6.55c.28.08.58.15.9.22,6.83,1.43,12,3.48,14.89,3.95S481.29,454,487.29,456c0,0,2.81,12,.9,16,0,0-.55,2.4-2.22,2.2s-4.68-9.2-3.68-13.2c0,0-20-1-23-2s-18.88-6-19-6h0l-4,6h0l-2-9h0c-.14.15-4,4.05-5,7s3.09-11.56,2-15c-7-22-33.16-26.43-33.24-26.49h0l-2.95-9.21S393.29,406,395.1,406.29Z" transform="translate(-285.28 -255.82)"/><path class="cls-20" d="M348.29,401s-44.71,11-47.88,54.18c-.5,6.86-1.52,13.67-2.7,20.44l-1,5.86L291.55,512l-2.39,14s-3.33,2-1.11,7,15.57,3.13,15.57,3.13,3.29-1.14,1.36-6.38L324.29,458Z" transform="translate(-285.28 -255.82)"/><path class="cls-1" d="M348.29,401s-19.69,2.44-37.85,25.72a52.88,52.88,0,0,0-10.38,32.45l-9.69,59.77L289.29,526s-4,2-1,7c0,0,2.77-5,3.12-7.44C296.29,491,299.29,482,299.29,482l2.09,3.49a.49.49,0,0,0,.91-.26v-4.48a87.74,87.74,0,0,0-.53-9.31C300.51,459.6,300.45,421.14,348.29,401Z" transform="translate(-285.28 -255.82)"/><path class="cls-21" d="M331.31,442c-1.11,4.19-3.88,4.15-5.08,8.34-2.27,7.91-2.4,4.43-3.63,12.32-.63,4-1.23,8-3.32,11.76-1.7,3.11-3,6.24-5.75,9-.54.56-4.72,4.51-3.09,5.22,1.17.51,6.79-3.83,7.1-4.7l-14.26,39.82a22,22,0,0,0-1.24,8.82l.22,3.45s4.26.72,3.87-5.26v-.33c.39-6.1,2.62-12.36,4.24-18.37,2.8-10.43,5.82-20.83,8.92-31.22,3.92-13.13,8.41-25.74,12-38.87" transform="translate(-285.28 -255.82)"/><path class="cls-19" d="M289.67,350.11" transform="translate(-285.28 -255.82)"/><path class="cls-15" d="M515.29,470.25s-8.83,11.21-22.92,3.52L500.29,448h18Z" transform="translate(-285.28 -255.82)"/><path class="cls-15" d="M490.27,473.39c-2.07,0-3.64,1.37-4.21-1.28a35.28,35.28,0,0,1-.45-6.37,12.75,12.75,0,0,1,.53-3.43,14.16,14.16,0,0,0,1.42,5.65c.42.91.55,1.78,1,2.66S490.57,472.55,490.27,473.39Z" transform="translate(-285.28 -255.82)"/><path class="cls-44" d="M504.21,479.52c-5.56-2.63-29.66-16,.12-38.8a3,3,0,0,0,1.23-2.45c0-1-.57-1.87-2.77-.77-4,2-33.46,24.58-.91,45.43a3.78,3.78,0,0,0,2.73.6,1.46,1.46,0,0,0,1.32-1.93A3,3,0,0,0,504.21,479.52Z" transform="translate(-285.28 -255.82)"/><path class="cls-44" d="M505.79,436s4-4,11,0l-1,6v31s0,10-9,11Z" transform="translate(-285.28 -255.82)"/><path class="cls-15" d="M516.79,437.5s11,1.5,8.17,9.9a4.43,4.43,0,0,1-2.05,2.45c-2.38,1.33-7.5,3.61-12.62,2.15-7-2,3.5-7.5,8.5-7.5h-2c1.36,0-1.51.12-1-1Z" transform="translate(-285.28 -255.82)"/><path class="cls-15" d="M524.79,447.5s1.5,6.5.5,8.5-10,5-16,1c0,0-2-1,0-5C509.29,452,518.79,453.5,524.79,447.5Z" transform="translate(-285.28 -255.82)"/><path class="cls-15" d="M525.29,457v3.74a2.19,2.19,0,0,1-1.18,1.95,17,17,0,0,1-13.45.86,2.82,2.82,0,0,1-1.84-2.23c-.17-1-.1-2.29,1-2.82C511.79,457.5,519.79,462.5,525.29,457Z" transform="translate(-285.28 -255.82)"/><path class="cls-15" d="M523,464.22a4.45,4.45,0,0,1-1.41,5.2c-2.75,2.33-11.92,1.37-12.15-.61s1.53-4.21,1.53-4.21A25.31,25.31,0,0,0,523,464.22Z" transform="translate(-285.28 -255.82)"/><path class="cls-15" d="M494.29,471a11.51,11.51,0,0,0,9.75-9.92,9.28,9.28,0,0,0-1.17-6.48,4.33,4.33,0,0,0-1.58-1.6s8-4,9-11c0,0,1.5-4.5-2-4C504.33,438.57,477.29,454,494.29,471Z" transform="translate(-285.28 -255.82)"/><path class="cls-19" d="M507.79,439.5s-2.86,7-7.43,9.5c-3.2,1.75-1.71,5.71-.53,7.92a7.31,7.31,0,0,1,.79,4.78c-.39,2.09-1.49,4.6-4.43,5.48a3.58,3.58,0,0,1-3.89-1.33c-2.56-3.47-6.16-12.15,9.28-23.5C501.58,442.35,507.79,438.5,507.79,439.5Z" transform="translate(-285.28 -255.82)"/><path class="cls-19" d="M522.29,440s7,5,.41,8.69a8.6,8.6,0,0,1-.88.5l-3.66,1.46a2.53,2.53,0,0,1-2.1-.1c-1.11-.58-2.28-1.83-.09-4.22a2.36,2.36,0,0,1,.72-.53l1.6-.8S523.49,443.67,522.29,440Z" transform="translate(-285.28 -255.82)"/><path class="cls-19" d="M524.29,449l.85,4.65a2.86,2.86,0,0,1-.86,2.61,8.1,8.1,0,0,1-4,1.74s-3.17-4.35-.59-6.68Z" transform="translate(-285.28 -255.82)"/><path class="cls-19" d="M524.74,458.15c0,.48-.1,1-.11,1.44s.18.89.17,1.38c0,1.09-1,1.42-1.89,1.76-1.07.4-2.26.27-2.44-1.06a1.79,1.79,0,0,1,1.39-2A5.2,5.2,0,0,0,524.74,458.15Z" transform="translate(-285.28 -255.82)"/><path class="cls-19" d="M522.58,464.74c.71,1.25-.29,3.44-1.34,4.26-1.62,1.25-2-2.35-1.26-3.26A4.47,4.47,0,0,1,522.58,464.74Z" transform="translate(-285.28 -255.82)"/><path class="cls-45" d="M513.74,480.23,513.45,739h-5.16V484S514,480.45,513.74,480.23Z" transform="translate(-285.28 -255.82)"/><polygon class="cls-46" points="222.39 227.71 221.45 483.18 225.01 483.18 225.01 228.18 222.39 227.71"/><rect class="cls-44" x="505.79" y="729.5" width="9" height="16" rx="3.97" transform="translate(735.29 1219.18) rotate(-180)"/><polygon class="cls-47" points="122.97 206.49 122.98 206.57 129.44 206.57 134.43 238.22 127.88 238.22 100.83 238.14 100.83 206.49 122.97 206.49"/><rect class="cls-48" x="386.03" y="459.74" width="28.69" height="2.65" rx="0.59" transform="translate(515.47 666.31) rotate(-180)"/><path class="cls-47" d="M397.55,496.77H415.2a3,3,0,0,1,3,3v7.42a0,0,0,0,1,0,0H394.68a0,0,0,0,1,0,0v-7.58A2.87,2.87,0,0,1,397.55,496.77Z" transform="translate(527.63 748.16) rotate(-180)"/><rect class="cls-49" x="387.75" y="450.07" width="14.5" height="9.67" transform="translate(504.71 653.99) rotate(-180)"/><polygon class="cls-50" points="119.77 186.61 116.97 194.25 102.47 194.25 99.19 186.61 119.77 186.61"/><rect class="cls-51" x="383.22" y="439" width="23.7" height="3.43" rx="1.72" transform="translate(504.87 625.61) rotate(-180)"/><path class="cls-52" d="M415.42,507.21H397.65S405.44,511.73,415.42,507.21Z" transform="translate(-285.28 -255.82)"/><rect class="cls-48" x="373.32" y="467.77" width="12.79" height="2.49" transform="translate(474.15 682.21) rotate(-180)"/><rect class="cls-47" x="378.63" y="470.26" width="3.12" height="13.72" transform="translate(475.09 698.42) rotate(-180)"/><rect class="cls-50" x="373.32" y="483.98" width="12.79" height="2.49" transform="translate(474.15 714.64) rotate(-180)"/><rect class="cls-47" x="378.63" y="466.05" width="3.12" height="1.72" transform="translate(475.09 678) rotate(-180)"/><rect class="cls-47" x="378.63" y="486.48" width="3.12" height="1.72" transform="translate(475.09 718.85) rotate(-180)"/><rect class="cls-52" x="376.91" y="462.93" width="6.39" height="3.12" rx="0.57" transform="translate(474.93 673.17) rotate(-180)"/><rect class="cls-52" x="376.91" y="488.19" width="6.39" height="3.12" rx="0.57" transform="translate(474.93 723.68) rotate(-180)"/><rect class="cls-48" x="386.11" y="493.96" width="33.68" height="2.81" rx="0.37" transform="translate(520.61 734.91) rotate(-180)"/><path class="cls-48" d="M396.84,466h-2.67a3.18,3.18,0,0,0-3.14,3.59l2.12,16.11a3.19,3.19,0,0,0,3.15,2.76H403a3.19,3.19,0,0,0,3.11-3.83l-2.78-13.34A6.65,6.65,0,0,0,396.84,466Z" transform="translate(-285.28 -255.82)"/><polygon class="cls-47" points="66.54 206.55 66.53 206.63 60.07 206.63 55.08 238.28 61.63 238.28 88.68 238.2 88.68 206.55 66.54 206.55"/><rect class="cls-48" x="60.07" y="203.98" width="28.69" height="2.65" rx="0.59"/><path class="cls-47" d="M56.56,241H80.11a0,0,0,0,1,0,0v7.42a3,3,0,0,1-3,3H59.43a2.87,2.87,0,0,1-2.87-2.87V241A0,0,0,0,1,56.56,241Z"/><rect class="cls-49" x="72.55" y="194.31" width="14.5" height="9.67"/><polygon class="cls-50" points="69.74 186.67 72.55 194.31 87.05 194.31 90.32 186.67 69.74 186.67"/><rect class="cls-51" x="67.87" y="183.24" width="23.7" height="3.43" rx="1.72"/><path class="cls-52" d="M344.65,507.27h17.78S354.63,511.79,344.65,507.27Z" transform="translate(-285.28 -255.82)"/><rect class="cls-48" x="55.01" y="238.2" width="33.68" height="2.81" rx="0.37"/><path class="cls-48" d="M363.23,466h2.67a3.18,3.18,0,0,1,3.15,3.59l-2.13,16.1a3.17,3.17,0,0,1-3.14,2.76h-6.73a3.17,3.17,0,0,1-3.1-3.82l2.78-13.34A6.64,6.64,0,0,1,363.23,466Z" transform="translate(-285.28 -255.82)"/><path class="cls-40" d="M405.63,459.11A8.9,8.9,0,0,1,408,454c2-2.24,4.38-4.31,5.61-7a17.92,17.92,0,0,0-1.55-17.2c-5.07-7.75-4.63-19.32-13.62-23.65-3.67-1.77-8.24-5.26-12.15-6.1a13.25,13.25,0,0,1-1.88,4.38c2.8,2.46,9.06,3,12.74,5.26,4.94,3.08,5.11,6.63,6.36,11.6,2.41,9.55,10.63,14.08,5.33,24.37-2.43,4.73-7,7.75-6.14,13.68a7.08,7.08,0,0,0,3,0A1.41,1.41,0,0,1,405.63,459.11Z" transform="translate(-285.28 -255.82)"/><path class="cls-53" d="M404.66,459a3.72,3.72,0,0,1-.51-2.25,6.41,6.41,0,0,1,.68-2.24,21.48,21.48,0,0,1,2.54-3.71,14,14,0,0,0,2.2-3.48,18,18,0,0,0,1-4c.23-1.4.48-2.93.78-4.32a13.89,13.89,0,0,0,.13-4.27,18.11,18.11,0,0,0-1.1-4.16,20.56,20.56,0,0,0-2.18-3.72,23.87,23.87,0,0,1-2.34-3.86c-.6-1.43-1-2.83-1.46-4.21-.88-2.75-2-5.35-3.9-7.12-.45-.42-1.07-.91-1.63-1.4s-1.11-1-1.64-1.47a34.52,34.52,0,0,0-3.27-2.73,19.73,19.73,0,0,0-3.8-1.84,17,17,0,0,1-2-1,5.52,5.52,0,0,1-1.76-1.43l.15-.13a10.65,10.65,0,0,0,4,1.57,18.59,18.59,0,0,1,4.31,1.46,28,28,0,0,1,3.69,2.59l3.45,2.77a11.92,11.92,0,0,1,2.78,3.86,27.72,27.72,0,0,1,1.48,4.3c.39,1.41.74,2.85,1.15,4.16a28.52,28.52,0,0,0,1.78,3.88,27.15,27.15,0,0,1,1.88,4.05,30.63,30.63,0,0,1,1.11,4.31,20.9,20.9,0,0,1,.33,4.48c-.11,1.5-.15,2.89-.23,4.39a12,12,0,0,1-3.67,8.3,29.81,29.81,0,0,0-2.8,3.23,4.54,4.54,0,0,0-.91,3.87Z" transform="translate(-285.28 -255.82)"/><path class="cls-40" d="M357.86,395.43c-2.66.87-4.21.86-6.58,2.62-1.61,1.18-3.22,2.31-4.81,3.53a21.16,21.16,0,0,0-8.57,14.5c-.49,4.71,1.25,8.87,1.51,13.42.1,1.79,0,3.64,0,5.43,0,2-.81,4-.66,6a12.28,12.28,0,0,0,4.53,8.1c1.82,1.52,3.22,3.5,5.2,4.8,1.73,1.14,3.84,1.81,5.27,3.27a14.36,14.36,0,0,1,1.29,2.08c.94,1.27,1.06.71,2.64.81.32-1.78-1.14-4.79-2.27-6.1-1.55-1.81-3.9-2.51-5.69-4.05a30.53,30.53,0,0,1-4.95-5.08c-1.53-2.19-1.53-4.39-1.53-7.05a73.92,73.92,0,0,0-.35-7.94c-.26-2.48-.94-4.72-1.19-7.27a19.2,19.2,0,0,1,1.06-7.86c.71-2.3.86-4.87,2.1-7,2.7-4.66,9.12-9.64,14.31-10.51C359.2,396.4,358.82,395.85,357.86,395.43Z" transform="translate(-285.28 -255.82)"/><path class="cls-1" d="M359.24,396.08c-12.41,3.32-15.09,8-8.7,19.26a132.7,132.7,0,0,0,8.4,13.19c3.72,5.06,4.28,5.38,9.3,1.82,4.14-2.93,8.11-7.43,13-9-6.6-7.36-11.64-22.47-22-25.28" transform="translate(-285.28 -255.82)"/><path class="cls-20" d="M356,399.15a11.42,11.42,0,0,0-4.39,8.94c0,3.47,1.41,6.74,3,9.74a81,81,0,0,0,7.1,11.08,6,6,0,0,0,1.63,1.62c1.86,1.06,4-.32,5.76-1.64l9.08-7a2,2,0,0,0,.88-1.15,2.18,2.18,0,0,0-.87-1.73c-5.91-6.16-11.2-27.9-22.19-19.84" transform="translate(-285.28 -255.82)"/><path class="cls-21" d="M357.46,401.8c-1.88,2.46-2.09,5.83-1.61,8.88a24.12,24.12,0,0,0,8.87,15.14,3.27,3.27,0,0,0,2,.9,3.51,3.51,0,0,0,1.8-.79l9.63-6.66c-2.64-5.1-12.79-27.85-20.71-17.47" transform="translate(-285.28 -255.82)"/><path class="cls-53" d="M356.26,459.29a10.59,10.59,0,0,0-1.91-3.24,18.07,18.07,0,0,0-2.81-2.49c-2-1.51-4.32-2.81-6.33-4.62a15.82,15.82,0,0,1-2.64-3.12c-.18-.3-.32-.61-.48-.92l-.24-.45-.16-.49c-.11-.33-.25-.64-.34-1a8.8,8.8,0,0,1-.19-1,29.55,29.55,0,0,1-.12-4,18.18,18.18,0,0,0-.4-3.83c-.26-1.25-.64-2.47-1-3.75a22.6,22.6,0,0,1-.66-4,34.62,34.62,0,0,1,.22-8,30.13,30.13,0,0,1,.86-3.94,29.66,29.66,0,0,1,1.41-3.76c.26-.6.54-1.2.82-1.79a9.72,9.72,0,0,1,1-1.78c.82-1.11,1.79-2,2.61-3l.17.1c-.55,1.22-1.36,2.3-1.91,3.42a9.7,9.7,0,0,0-.67,1.73L343,411.3c-.38,1.23-.74,2.46-1,3.69s-.47,2.48-.62,3.74a48.45,48.45,0,0,0-.45,7.61,31.44,31.44,0,0,0,.35,3.77c.21,1.28.39,2.6.49,3.94a27.82,27.82,0,0,1,0,4,15.93,15.93,0,0,0,.08,3.85,7.65,7.65,0,0,0,1.68,3.29,17.92,17.92,0,0,0,2.79,2.49c2,1.52,4.23,2.92,6.25,4.7a14.83,14.83,0,0,1,2.69,3.05,8.31,8.31,0,0,1,1.25,3.85Z" transform="translate(-285.28 -255.82)"/></svg>