<svg id="Layer_1" data-name="Layer 1" xmlns="http://www.w3.org/2000/svg" viewBox="0 0 48.74 34.6"><defs><style>.cls-1{fill:none;stroke:#342fd7;stroke-width:5px;}</style></defs><title>Speaker (2)</title><path class="cls-1" d="M2,13.05a2,2,0,0,1,2-2h7.45a2,2,0,0,0,1.18-.38L22.5,3.48A3,3,0,0,1,27.26,5.9V29.49a3,3,0,0,1-5,2.28l-9.64-8.24a2,2,0,0,0-1.3-.48H4a2,2,0,0,1-2-2Z" transform="translate(0.5 -0.39)"/><path class="cls-1" d="M33.3,8.47A11.35,11.35,0,0,1,38,17.68a11.35,11.35,0,0,1-1.24,5.17,11.49,11.49,0,0,1-3.45,4" transform="translate(0.5 -0.39)"/><path class="cls-1" d="M38.1,2.71a18.51,18.51,0,0,1,5.63,23.37,18.43,18.43,0,0,1-5.62,6.56" transform="translate(0.5 -0.39)"/></svg>