<svg width="50" height="36" viewBox="0 0 50 36" fill="none" xmlns="http://www.w3.org/2000/svg">
<path d="M2 13.0526C2 11.948 2.89543 11.0526 4 11.0526H11.4535C11.8771 11.0526 12.2897 10.9181 12.6319 10.6686L22.4956 3.47629C24.4781 2.03072 27.2632 3.44675 27.2632 5.90031V18V29.492C27.2632 32.0527 24.2617 33.4363 22.3147 31.7732L12.6663 23.5318C12.3042 23.2225 11.8436 23.0526 11.3674 23.0526H4C2.89543 23.0526 2 22.1571 2 21.0526V13.0526Z" stroke="#342FD7" stroke-width="3"/>
<path d="M33.2972 8.47448C34.7526 9.52784 35.9376 10.9112 36.7551 12.511C37.5727 14.1108 37.9993 15.8816 38.0002 17.6783C38.0011 19.4749 37.5762 21.2461 36.7603 22.8468C35.9444 24.4474 34.7608 25.8319 33.3064 26.8867" stroke="#342FD7" stroke-width="3"/>
<path d="M38.0985 2.71277C40.4645 4.42513 42.3909 6.67386 43.7199 9.27458C45.0488 11.8753 45.7425 14.754 45.7439 17.6746C45.7454 20.5952 45.0546 23.4745 43.7283 26.0766C42.4019 28.6787 40.4778 30.9293 38.1135 32.644" stroke="#342FD7" stroke-width="3"/>
</svg>
