<svg id="Layer_1" data-name="Layer 1" xmlns="http://www.w3.org/2000/svg" xmlns:xlink="http://www.w3.org/1999/xlink" viewBox="0 0 339.17 183.37"><defs><style>.cls-1{fill:#424244;}.cls-12,.cls-2{fill:none;stroke-width:2px;}.cls-11,.cls-2{stroke:#000;}.cls-11,.cls-12,.cls-2{stroke-miterlimit:10;}.cls-3{fill:#6d6f73;}.cls-4{fill:#b1beb7;}.cls-11,.cls-5{fill:#ffe93c;}.cls-6{fill:#1c1d1f;}.cls-7{fill:url(#linear-gradient);}.cls-8{fill:#fff;}.cls-9{fill:#020202;}.cls-10{fill:#d8bf2e;}.cls-11{stroke-width:0.5px;}.cls-12{stroke:#1c1d1f;}</style><linearGradient id="linear-gradient" x1="-515.68" y1="265.66" x2="-457.76" y2="209.63" gradientTransform="matrix(-1, 0, 0, 1, -322.26, 0)" gradientUnits="userSpaceOnUse"><stop offset="0.27" stop-color="#ffe93c"/><stop offset="0.78" stop-color="#ea4039"/></linearGradient></defs><title>tanager</title><path class="cls-1" d="M224.09,374.42a55.77,55.77,0,0,1-8.66.5L199,374.4a42.18,42.18,0,0,1-5.43-.74,15.16,15.16,0,0,0-6.3.1.4.4,0,0,1-.41-.64c1.21-1.42,3.51-3.49,6.46-3.16,3.36.37,10.39.74,13.62.9a2.8,2.8,0,0,0,2.54-1.37l10.25-17.55h4.94l-8.89,17.28s-2.22,2.46,1.24,2.71a45.1,45.1,0,0,0,7.92-.52" transform="translate(-118.66 -202.57)"/><path class="cls-2" d="M222.48,352.94l-8.88,17.28s-2.23,2.46,1.23,2.71a45.66,45.66,0,0,0,8-.53,3.86,3.86,0,0,1,4.29,2.77,1.89,1.89,0,0,1,0,.23,31.91,31.91,0,0,0-5.56.06,49.74,49.74,0,0,1-8.88.45l-15.92-.51a42.4,42.4,0,0,1-5.43-.74,15.15,15.15,0,0,0-6.3.1.39.39,0,0,1-.4-.64c1.21-1.43,3.51-3.49,6.46-3.16,3.35.37,10.38.74,13.61.9a2.79,2.79,0,0,0,2.54-1.37l10.26-17.55Z" transform="translate(-118.66 -202.57)"/><path class="cls-1" d="M233,382.46a49.63,49.63,0,0,1-8.87.45l-15.92-.51a42.18,42.18,0,0,1-5.43-.74,15.16,15.16,0,0,0-6.3.1.4.4,0,0,1-.41-.64c1.21-1.43,3.51-3.49,6.46-3.16,3.36.37,10.38.74,13.61.9a2.81,2.81,0,0,0,2.55-1.37L229,359.94h4.94L225,377.22s-2.22,2.46,1.23,2.71a45.77,45.77,0,0,0,8-.53,3.84,3.84,0,0,1,4.28,2.77" transform="translate(-118.66 -202.57)"/><path class="cls-3" d="M196.75,380.91a.22.22,0,0,1-.2-.37c.95-.86,2.78-2.32,4.42-2.53,2.29-.29,13.9.76,14.45.81h0c.23.07,2.55.68,3.92-2.47v0l5.37-9.18,4.16-7.11a.21.21,0,0,1,.18-.11h1a.21.21,0,0,1,.18.32l-10.37,18.39a3.89,3.89,0,0,1-3.82,2C211.6,380.13,202.28,379.39,196.75,380.91Z" transform="translate(-118.66 -202.57)"/><path class="cls-4" d="M143,234.84s-21.65,11.1-22.93,16c-.91,3.55,18.65,2.63,29.67,1.83,3.33-.24,6.06-4.92,4.3-7.76l-.85,1h0a1.65,1.65,0,0,0,1-3Z" transform="translate(-118.66 -202.57)"/><path class="cls-5" d="M221.05,230.94s8.38,18.37-15,28.57l-.71.32a17.45,17.45,0,0,0-.37,32l20.08,2.89a31.29,31.29,0,0,0,11,2.86l106.26,17.61a90.8,90.8,0,0,1,26.35,6.85h0a3.5,3.5,0,0,1,.07,6.47l-11.68,5.27-37,8.57s-42,20-83,9.52-50-12.38-64-30.48-22-44.48-22-44.48Z" transform="translate(-118.66 -202.57)"/><path class="cls-6" d="M220.05,229.94s162,86,163,94-174-8-196-43c0,0-9.5-10.41,20.59-25.2a25.86,25.86,0,0,0,12.28-12.59C221.71,239.12,222.49,234.41,220.05,229.94Z" transform="translate(-118.66 -202.57)"/><path class="cls-7" d="M191.22,261.12C216.57,248.78,221,238,221.05,231.94a4.63,4.63,0,0,0-.62-2.08,8,8,0,0,0-2.12-2.52L196.9,210c-28.24-19.13-48.45,10.75-52.82,18.07-4.94,8.26-2.7,18.23-.68,27.64,1.64,7.62,8.81,23,13.65,37.24C171.14,287.87,177.76,267.67,191.22,261.12Z" transform="translate(-118.66 -202.57)"/><path class="cls-6" d="M379.35,324.5l71.51,40a1.46,1.46,0,0,1-1.27,2.62l-66-27.54,4.45,3.63a1.26,1.26,0,0,1-1.37,2.1l-51.64-26.39Z" transform="translate(-118.66 -202.57)"/><circle class="cls-8" cx="44.56" cy="27.86" r="8.91"/><circle class="cls-9" cx="43.24" cy="27.53" r="7.02"/><circle class="cls-2" cx="43.58" cy="27.89" r="9.09"/><circle class="cls-8" cx="39.94" cy="23.92" r="1.94"/><path class="cls-5" d="M250.37,353.56s-25.76,21.49-39.32-10.62Z" transform="translate(-118.66 -202.57)"/><path class="cls-10" d="M172.92,311.18c6.34,9,31.47,37.62,95.14,37.22.87,0,.93-.82.06-1-14.43-2.7-56.46-12.2-93.8-36.83C173.6,310.11,172.5,310.57,172.92,311.18Z" transform="translate(-118.66 -202.57)"/><path class="cls-8" d="M225.05,285.94" transform="translate(-118.66 -202.57)"/><path class="cls-8" d="M378.57,327.41l34.81,18.27,8.7,4.56,8.67,4.62c5.75,3.15,11.51,6.28,17.19,9.55l0,.07c-5.88-2.89-11.69-5.93-17.5-9l-8.67-4.63-8.64-4.69-34.55-18.74Z" transform="translate(-118.66 -202.57)"/><path class="cls-8" d="M373.2,325.82,408,344.1l8.7,4.56,8.68,4.62c5.74,3.15,11.5,6.28,17.18,9.55l0,.07c-5.88-2.9-11.69-5.93-17.5-9l-8.67-4.63-8.63-4.68-34.56-18.74Z" transform="translate(-118.66 -202.57)"/><path class="cls-8" d="M371.07,325.91l27.87,14.73,7,3.68,6.94,3.73c4.6,2.56,9.19,5.1,13.72,7.78l0,.07c-4.72-2.31-9.38-4.75-14-7.19L405.56,345l-6.9-3.8L371,326Z" transform="translate(-118.66 -202.57)"/><path class="cls-8" d="M411.54,349.46l-22.3-11.59Q383.66,335,378.11,332c-3.67-2-7.37-4-11-6.08l0,0c3.77,1.83,7.47,3.78,11.21,5.67s7.41,3.93,11.09,5.92l22.13,11.91Z" transform="translate(-118.66 -202.57)"/><path class="cls-8" d="M402.9,346l-19.7-9.89q-4.93-2.46-9.83-5c-3.25-1.71-6.5-3.42-9.71-5.22l0-.05c3.34,1.55,6.63,3.19,9.92,4.83s6.53,3.35,9.78,5.06l19.55,10.2Z" transform="translate(-118.66 -202.57)"/><path class="cls-8" d="M389.54,340.46l-14.46-7.08c-2.41-1.17-4.82-2.36-7.21-3.57s-4.76-2.49-7.09-3.82l0-.05c2.46,1.08,4.88,2.25,7.3,3.42s4.78,2.42,7.16,3.66l14.3,7.4Z" transform="translate(-118.66 -202.57)"/><path class="cls-8" d="M303.67,299.83c-15-5.16-30.17-10.37-46.67-14.21s-34.69-6.24-50.5-5.25c-4.21.26-8.7,1-9,2.88-.17,1.2,1.61,2.57,3.95,3.59a55.32,55.32,0,0,0,8,2.49c25.67,6.64,51.58,13.07,78,18.72,13.27,2.83,26.67,5.46,40.18,7.81,3.37.59,6.76,1.16,10.14,1.71,1.88.3,6.91,1.49,8.48,1.12,3.86-.91-4.77-4.39-6.64-5.24C328.66,308.43,316.11,304.11,303.67,299.83Z" transform="translate(-118.66 -202.57)"/><path class="cls-11" d="M242.49,267.4c1.15.31,2.53.92,2.59,2.12s-1.28,2-2.43,2.38a60.63,60.63,0,0,1-31.11,2.5c-2.54-.47-7.47-2.29-5.52-5.88,1.11-2,7.2-2.42,9.2-2.44C225.05,265.94,233.63,265,242.49,267.4Z" transform="translate(-118.66 -202.57)"/><path class="cls-2" d="M232.68,361.94l-8.89,17.28s-2.22,2.46,1.24,2.71a45.73,45.73,0,0,0,8-.53,3.86,3.86,0,0,1,4.29,2.77c0,.08,0,.15.05.23a31.91,31.91,0,0,0-5.56.06,49.74,49.74,0,0,1-8.88.45L207,384.4a42.4,42.4,0,0,1-5.43-.74,15.16,15.16,0,0,0-6.3.1.39.39,0,0,1-.4-.64c1.21-1.43,3.5-3.49,6.45-3.16,3.36.37,10.39.74,13.62.9a2.81,2.81,0,0,0,2.54-1.37l10.25-17.55Z" transform="translate(-118.66 -202.57)"/><path class="cls-2" d="M141.88,235l1.92,13.72c.2,1.38.3,3-.74,3.92a4.23,4.23,0,0,1-2.8.72l-15,.3a9.35,9.35,0,0,1-3.42-.36,3.14,3.14,0,0,1-2.14-2.49c-.12-1.56,1.28-2.76,2.54-3.66,5.55-4,11.35-7.51,17-11.26,4.34-2.85,4.65-6.41,6.79-11,4.77-10.2,14.55-19.38,26-21,11.18-1.59,20,2,30,9,6.16,4.31,9,7,16,13,4.94,4.23,4.57,13.22,1.66,19-3.68,7.35-12.2,10.57-19.41,14.52s-14.46,11.27-12.37,19.22c1.44,5.51,6.82,8.91,11.85,11.57a248.88,248.88,0,0,0,92.43,27.77c11.39,1.1,22.84,1.44,34.21,2.79,4.3.51,31.25,3.57,30.94,9.17-.28,5-27.79,10.72-32.48,12.07q-18,5.18-36.22,9.1c-13.72,2.94-23.61,2.75-38.61,2.75-6.32,0-12,8-21,7-6.17-.69-13-12-17-15-7.94-6-17-5.53-25.19-11.16-21.73-14.94-31.19-41.82-39.35-66.89-3.45-10.63-6.11-25.18-4.46-35.95" transform="translate(-118.66 -202.57)"/><path class="cls-12" d="M220.38,242.4c2.42-5.65,5.09-6.6,10.5-3.69C270.66,260,378.56,318.43,379.37,325c1,8-174-8-196-43,0,0-9.5-10.41,20.59-25.21,5.41-2.66,13-5.84,15.42-11.35C219.42,245.3,220.34,242.5,220.38,242.4Z" transform="translate(-118.66 -202.57)"/><path class="cls-2" d="M298.7,300.19c-15-5.16-30.17-10.36-46.67-14.2s-34.7-6.25-50.5-5.26c-4.21.26-8.7,1-9,2.88-.17,1.21,1.61,2.57,3.95,3.59a56.58,56.58,0,0,0,8,2.5c25.67,6.63,51.58,13.06,78,18.71,13.27,2.83,26.67,5.47,40.19,7.81q5.06.88,10.14,1.71c1.88.3,6.9,1.5,8.48,1.13,3.86-.91-4.77-4.4-6.64-5.25C323.69,308.79,311.14,304.47,298.7,300.19Z" transform="translate(-118.66 -202.57)"/><path class="cls-2" d="M240.68,266.32c1.16.31,2.53.92,2.6,2.11s-1.29,2-2.44,2.38a60.52,60.52,0,0,1-31.11,2.5c-2.54-.46-7.47-2.28-5.51-5.88,1.1-2,7.19-2.41,9.2-2.44C223.25,264.86,231.82,264,240.68,266.32Z" transform="translate(-118.66 -202.57)"/><path class="cls-12" d="M384.57,325.83l71.51,40a1.46,1.46,0,0,1-1.28,2.62l-66-27.55,4.45,3.64a1.26,1.26,0,0,1-1.37,2.1l-51.64-26.4Z" transform="translate(-118.66 -202.57)"/></svg>