<svg id="Layer_1" data-name="Layer 1" xmlns="http://www.w3.org/2000/svg" xmlns:xlink="http://www.w3.org/1999/xlink" viewBox="0 0 197.28 172.98"><defs><style>.cls-1{fill:#424244;}.cls-10,.cls-2{fill:none;stroke:#000;stroke-miterlimit:10;}.cls-2{stroke-width:2px;}.cls-3{fill:#6d6f73;}.cls-4{fill:#78828e;}.cls-5{fill:#1b1a20;}.cls-6{fill:#4f5055;}.cls-7{fill:url(#linear-gradient);}.cls-8{fill:#a8b5bb;}.cls-9{fill:#020202;}.cls-11{fill:#fff;}.cls-12{fill:#3b3e4d;}.cls-13{fill:url(#linear-gradient-2);}</style><linearGradient id="linear-gradient" x1="233.78" y1="238.66" x2="210.39" y2="182.05" gradientUnits="userSpaceOnUse"><stop offset="0.04" stop-color="#78828e"/><stop offset="0.37" stop-color="#697584"/><stop offset="0.81" stop-color="#4f5e71"/></linearGradient><linearGradient id="linear-gradient-2" x1="256.19" y1="238.41" x2="276.46" y2="293.23" gradientUnits="userSpaceOnUse"><stop offset="0" stop-color="#78828e"/><stop offset="0.81" stop-color="#60676f"/></linearGradient></defs><title>townsend_solitaire</title><path class="cls-1" d="M253.86,343.85l-5.07,9.86s-1.27,1.41.71,1.55a25.12,25.12,0,0,0,4.56-.3,2.2,2.2,0,0,1,2.45,1.58l0,.13a18.7,18.7,0,0,0-3.17,0,27.75,27.75,0,0,1-5.07.25l-9.09-.29a23.75,23.75,0,0,1-3.1-.42,8.72,8.72,0,0,0-3.6.06.23.23,0,0,1-.23-.37,4.43,4.43,0,0,1,3.69-1.8c1.91.21,5.93.42,7.77.51a1.59,1.59,0,0,0,1.45-.78l5.86-10Z" transform="translate(-189.5 -202.07)"/><path class="cls-2" d="M252.61,343.85l-5.07,9.86s-1.27,1.41.7,1.55a25.3,25.3,0,0,0,4.57-.3,2.2,2.2,0,0,1,2.45,1.58l0,.13a18.83,18.83,0,0,0-3.18,0A27.67,27.67,0,0,1,247,357l-9.09-.29a24,24,0,0,1-3.1-.42,8.67,8.67,0,0,0-3.59.06.23.23,0,0,1-.24-.37,4.45,4.45,0,0,1,3.69-1.8c1.92.21,5.93.42,7.78.51a1.59,1.59,0,0,0,1.45-.78l5.85-10Z" transform="translate(-189.5 -202.07)"/><path class="cls-3" d="M237.92,358.68a.12.12,0,0,1-.11-.21,5.5,5.5,0,0,1,2.52-1.45c1.3-.16,7.93.44,8.25.47h0c.13,0,1.46.39,2.24-1.41h0l3.06-5.24,2.38-4.07a.13.13,0,0,1,.1-.06H257a.12.12,0,0,1,.1.19l-5.92,10.5a2.24,2.24,0,0,1-2.18,1.12C246.4,358.23,241.07,357.81,237.92,358.68Z" transform="translate(-189.5 -202.07)"/><path class="cls-4" d="M202,312.48c9.57,20.5,31.11,34.84,53.71,35.79,12.1.51,24.05-2.52,36.13-3.33a100,100,0,0,1,57,13.45c1.52-2.17-1-4.86-3.19-6.31q-35.43-23.18-72.06-44.41a116.07,116.07,0,0,1-27.63-21.49c-8.57-9-14.95-20.81-13.14-33.12.28-1.88-1.61-4.76-3-6.07-1.11-1.07-2.84-1-4.38-.9-4.68.38-12.61-.6-16.55,2.39-3.25,2.46-5.4,8.2-7,11.79a64.71,64.71,0,0,0-5.09,34C197.48,300,198.69,307.58,202,312.48Z" transform="translate(-189.5 -202.07)"/><path class="cls-5" d="M381,362.71a11.32,11.32,0,0,1,4.18,3.37c1.29,2,1.24,4.6,1.63,7a1.72,1.72,0,0,1-2.48,1.81,577.93,577.93,0,0,1-57.68-34.22c3.92-.53,8.95-2.13,12.88-1.21,4.34,1,8.8,4.69,12.64,6.88Z" transform="translate(-189.5 -202.07)"/><path class="cls-6" d="M354.44,351.75a1.18,1.18,0,0,0,1.29-1.9c-16.19-17.35-26.92-39.26-40.71-58.7-2.08-2.92-4.4-5.93-7.73-7.26-5.1-2-10.73.45-16,2.05-6.73,2-13.8,2.62-20.71,3.89s-13.93,3.34-19.32,7.85c.49-.4,2.85,2.6,3.14,2.92a8,8,0,0,0,4.15,2.92c3.54,1.4,7,2.91,10.52,4.42,7.63,3.32,15.44,6.34,22.7,10.41,15.81,8.87,27,17.54,41.5,25.4C339.61,347.17,347.45,349,354.44,351.75Z" transform="translate(-189.5 -202.07)"/><path class="cls-7" d="M205.47,221.74l3.46.61c-2.53-1.32-3-5-1.61-7.57s3.93-4.1,6.44-5.45c8.67-4.64,18.84-8,28.19-5.05,6.4,2.05,11.63,6.91,15.42,12.52a114,114,0,0,1,10.25,20.08c-8.43,5.54-19.12,10.64-29.13,11.55-4.93.45-9.93,2.24-14.84,2.89-4.71.61-13.71,2.17-18.27,2.31,0-4.34,3.67-14.59,3.25-19A44.94,44.94,0,0,0,205.47,221.74Z" transform="translate(-189.5 -202.07)"/><circle class="cls-8" cx="29.9" cy="17.09" r="5.09"/><circle class="cls-9" cx="30.09" cy="16.9" r="4.01"/><ellipse class="cls-10" cx="29.89" cy="17.17" rx="5.19" ry="5.26"/><circle class="cls-11" cx="29.69" cy="15.4" r="1.11"/><path class="cls-12" d="M192.07,216.15c1.16-1.46,3.22-1.81,5.08-1.88a30.71,30.71,0,0,1,11.21,1.65c-.81,3.55,1.58,6.87-.13,9.73a7.69,7.69,0,0,0-1.71-1.86,24,24,0,0,0-4.07-2.86A49.55,49.55,0,0,0,192.07,216.15Z" transform="translate(-189.5 -202.07)"/><path class="cls-11" d="M211.75,297.63a3.55,3.55,0,0,0,1.66,2.67,4.26,4.26,0,0,0,2.8.73,4.71,4.71,0,0,0,1.75-.35,6.37,6.37,0,0,0,1.57-1c1-.79,1.84-1.76,2.85-2.5l.28-.21.5.11a2.74,2.74,0,0,0,1.69-.22,3.28,3.28,0,0,0,1.33-1,3.61,3.61,0,0,0,.08-3.83l.13-.15a3.3,3.3,0,0,1,1.73,2,4,4,0,0,1-.21,2.93,4.1,4.1,0,0,1-2.3,2,4.36,4.36,0,0,1-3-.06l.78-.1c-1.09.62-2.32,1-3.45,1.6-.56.28-1.1.61-1.65.94a17,17,0,0,1-1.74,1,3.83,3.83,0,0,1-2.19.36,4,4,0,0,1-2-1.12,4.24,4.24,0,0,1-1.09-1.89,2.39,2.39,0,0,1,.33-2.09Z" transform="translate(-189.5 -202.07)"/><path class="cls-11" d="M237.13,313.25a4.15,4.15,0,0,0,1.19,2.25,2.38,2.38,0,0,0,.79.52,2.23,2.23,0,0,0,1,.16,3,3,0,0,0,1.3-.39,4.51,4.51,0,0,0,1.11-.94c.67-.73,1.17-1.65,1.83-2.39l.26-.28.7.14a1.07,1.07,0,0,0,1-.33,3.47,3.47,0,0,0,.78-1.15,6.06,6.06,0,0,0,.25-3.66l.15-.13a3.34,3.34,0,0,1,1.39,1.89,4.73,4.73,0,0,1,.16,2.46,3.65,3.65,0,0,1-1.48,2.28,2.85,2.85,0,0,1-3,.21l1-.15c-.8.6-1.76,1-2.55,1.62a13.37,13.37,0,0,0-1.16,1,8.69,8.69,0,0,1-1.28,1.06,2.42,2.42,0,0,1-1.94.33,2.87,2.87,0,0,1-1.56-1.2,2.92,2.92,0,0,1-.08-3.34Z" transform="translate(-189.5 -202.07)"/><path class="cls-11" d="M217.15,316.07a4.08,4.08,0,0,0,1.18,2.25,2.51,2.51,0,0,0,.8.52,2.18,2.18,0,0,0,1,.16,3,3,0,0,0,1.31-.39,4.66,4.66,0,0,0,1.1-.94c.67-.73,1.17-1.65,1.84-2.39l.26-.28.69.14a1.06,1.06,0,0,0,1-.33,3.34,3.34,0,0,0,.79-1.15,6.17,6.17,0,0,0,.24-3.66l.16-.13a3.43,3.43,0,0,1,1.39,1.89,4.84,4.84,0,0,1,.15,2.46,3.57,3.57,0,0,1-1.48,2.28,2.84,2.84,0,0,1-3,.21l1-.15c-.79.6-1.75,1-2.54,1.62a12.14,12.14,0,0,0-1.17,1,8.1,8.1,0,0,1-1.27,1.06,2.42,2.42,0,0,1-1.94.33,2.89,2.89,0,0,1-1.57-1.2A2.94,2.94,0,0,1,217,316Z" transform="translate(-189.5 -202.07)"/><path class="cls-1" d="M259.14,346.7l-5.07,9.87s-1.27,1.41.7,1.55a26.24,26.24,0,0,0,4.57-.3,2.19,2.19,0,0,1,2.45,1.58l0,.13a18.4,18.4,0,0,0-3.18,0,28.58,28.58,0,0,1-5.07.26l-9.09-.29a24,24,0,0,1-3.1-.42,8.63,8.63,0,0,0-3.59.05.23.23,0,0,1-.24-.36,4.43,4.43,0,0,1,3.69-1.81c1.92.22,5.93.43,7.77.52a1.58,1.58,0,0,0,1.46-.79l5.85-10Z" transform="translate(-189.5 -202.07)"/><path class="cls-2" d="M259,346.7l-5.07,9.87s-1.27,1.41.71,1.55a26.24,26.24,0,0,0,4.57-.3,2.19,2.19,0,0,1,2.44,1.58l0,.13a18.28,18.28,0,0,0-3.17,0,28.68,28.68,0,0,1-5.07.26l-9.09-.29a23.75,23.75,0,0,1-3.1-.42,8.68,8.68,0,0,0-3.6.05.22.22,0,0,1-.23-.36,4.41,4.41,0,0,1,3.69-1.81c1.91.22,5.93.43,7.77.52a1.58,1.58,0,0,0,1.45-.79l5.86-10Z" transform="translate(-189.5 -202.07)"/><path class="cls-2" d="M344,352.19c2.21,1.45,4.71,4.15,3.19,6.31a100.1,100.1,0,0,0-57-13.45c-12.08.82-24,3.84-36.13,3.34-22.35-.94-43.66-15-53.39-35.12-.22-.45-.46-.88-.72-1.3-3-4.91-4.11-12.13-4.77-17.62a64.6,64.6,0,0,1,5.08-34c4.72-10.55,8.41-21.34,7.35-32.84-.42-4.56-1.36-9.4.62-13.53,2.25-4.7,7.58-7,12.57-8.52,9.16-2.79,19.84-4.1,27.72,1.34,7.11,4.92,11.24,12.93,14.78,20.82" transform="translate(-189.5 -202.07)"/><path class="cls-2" d="M270.19,239.07c-1.72-2.29-3.55-3.21-4.5-5.72a64.3,64.3,0,0,0-2.93-6.85" transform="translate(-189.5 -202.07)"/><path class="cls-2" d="M356.27,353.84a1.18,1.18,0,0,0,1.28-1.91c-16.19-17.35-26.91-39.26-40.71-58.69-2.07-2.93-4.39-5.93-7.73-7.26-5.1-2-10.73.45-16,2-6.73,2.05-13.8,2.63-20.72,3.89s-13.92,3.35-19.31,7.86c.48-.4,2.84,2.59,3.14,2.92a8,8,0,0,0,4.15,2.92c3.53,1.4,7,2.91,10.51,4.42,7.64,3.32,15.45,6.34,22.71,10.41,15.8,8.86,27,17.54,41.5,25.4C341.43,349.26,349.28,351.1,356.27,353.84Z" transform="translate(-189.5 -202.07)"/><path class="cls-11" d="M312,286.17c1.1.81,2.29,1.7,2.11,3.35a3.27,3.27,0,0,1-1.62,2.42c-1.92,1.15-4.13.72-6.2.28,2,.27,4.05.62,5.19,2.42a2.51,2.51,0,0,1-.2,3.05c-1,1.08-2.61.7-3.89.17a21.92,21.92,0,0,1-7.73-5.43,56.85,56.85,0,0,1,8.74,7.34c.91.94,1.87,2.11,1.33,3.48a2.53,2.53,0,0,1-1.92,1.51c-1.7.32-3.19-.57-4.53-1.49a44.5,44.5,0,0,1-12.17-12.63l11.09,13a1,1,0,0,1-.58,1.61A13.24,13.24,0,0,1,290.37,302c-1.27,2.66-4.77,3.16-7.71,3.3a35.87,35.87,0,0,1-8.48-.25c-2.53-.48-4.95-1.5-7.51-1.69s-5,.42-7.5,0c-4.05-.62-7.24-3.73-9.79-6.94a60.09,60.09,0,0,1-12.18-27.57c-.43-2.62-.64-5.46.68-7.77s3.84-3.55,6.32-4.41c4.77-1.66,9.85-2.32,14.65-3.9a26,26,0,0,0,6.31-3c1.33-.87,3.61-4,5.18-3.95,2.59,0,7.36,8.22,9.11,10.26a196.25,196.25,0,0,0,20.17,20.2Q305.61,281.51,312,286.17Z" transform="translate(-189.5 -202.07)"/><path class="cls-13" d="M304.62,279.83c1,.88,2.17,1.86,1.87,3.5a3.34,3.34,0,0,1-1.78,2.31c-2,1-4.17.42-6.21-.16,1.92.41,4,.9,5,2.79a2.52,2.52,0,0,1-.41,3c-1.09,1-2.65.52-3.89-.1a21.92,21.92,0,0,1-7.33-6,57.21,57.21,0,0,1,8.2,8c.84,1,1.71,2.24,1.08,3.58a2.53,2.53,0,0,1-2,1.37c-1.72.21-3.15-.79-4.42-1.81a44.4,44.4,0,0,1-11.24-13.51l9.41,12.81a1.66,1.66,0,0,1-1.33,2.64,13.16,13.16,0,0,1-9.61-4.16c-1.45,2.58-5,2.83-7.92,2.77a36.19,36.19,0,0,1-8.45-.85c-2.48-.66-4.82-1.86-7.36-2.23s-5,.06-7.49-.49c-4-.91-7-4.25-9.27-7.65a60.36,60.36,0,0,1-10.21-28.48c-.24-2.65-.25-5.52,1.22-7.73s4.08-3.28,6.62-4c4.88-1.33,10-1.63,14.89-2.87a26.3,26.3,0,0,0,6.51-2.52c1.38-.78,3.88-3.72,5.44-3.59,2.58.21,6.76,8.76,8.36,10.92A194.83,194.83,0,0,0,293,269.09Q298.57,274.7,304.62,279.83Z" transform="translate(-189.5 -202.07)"/><path class="cls-2" d="M305.14,292.32a2.74,2.74,0,0,1-2.91.31,10.28,10.28,0,0,1-2.39-1.32c1,1.24,4.11,4.88,3.36,6.47a2.53,2.53,0,0,1-2,1.38c-1.71.2-3.14-.79-4.41-1.82a44.66,44.66,0,0,1-11.25-13.5l9.42,12.81a1.65,1.65,0,0,1-1.34,2.63,13.2,13.2,0,0,1-9.61-4.15c-1.45,2.57-5,2.82-7.92,2.76a35.63,35.63,0,0,1-8.44-.85c-2.48-.66-4.83-1.85-7.37-2.23s-5,.07-7.49-.49c-4-.9-6.95-4.25-9.27-7.64a60.54,60.54,0,0,1-10.21-28.49c-.24-2.65-.25-5.51,1.23-7.73s4.08-3.28,6.62-4c4.88-1.33,10-1.62,14.88-2.87a26.52,26.52,0,0,0,6.51-2.51c1.39-.79,3.88-3.72,5.45-3.6,2.58.22,6.76,8.76,8.36,10.92A195.8,195.8,0,0,0,295,270.1q5.61,5.61,11.65,10.74c1,.88,2.16,1.86,1.87,3.5a3.29,3.29,0,0,1-1.79,2.31c-2,1-4.17.43-6.2-.16,1.92.41,4,.9,5,2.8A2.52,2.52,0,0,1,305.14,292.32Z" transform="translate(-189.5 -202.07)"/><path class="cls-4" d="M211.09,297" transform="translate(-189.5 -202.07)"/><path class="cls-10" d="M211.19,300.68a4.71,4.71,0,0,0,2.4,2.51,6,6,0,0,0,4.64,0,12.75,12.75,0,0,0,3.92-2.67,3.49,3.49,0,0,1,1.19-.84,6.28,6.28,0,0,1,1.89-.07,3.9,3.9,0,0,0,3.15-2,5.47,5.47,0,0,0,.57-3.75,4.43,4.43,0,0,0-1-2.22,2.72,2.72,0,0,0-1.77-.88.3.3,0,0,0-.29.41,6.91,6.91,0,0,1,.57,2.89,2.64,2.64,0,0,1-1.92,2.48c-.64.12-1.3-.09-1.93.07a3.56,3.56,0,0,0-1.43,1,11,11,0,0,1-3.35,2.25,5,5,0,0,1-3.94,0,3.41,3.41,0,0,1-1.89-2.51.3.3,0,0,0-.52-.14,2,2,0,0,0-.52.89A4.57,4.57,0,0,0,211.19,300.68Z" transform="translate(-189.5 -202.07)"/><path class="cls-10" d="M236.22,316.47a3.26,3.26,0,0,0,2.56,1.84,4.87,4.87,0,0,0,3.14-.74,9.26,9.26,0,0,0,2.39-2.24,2.29,2.29,0,0,1,.73-.69,3.31,3.31,0,0,1,1.18-.16,3.47,3.47,0,0,0,2.64-1.75,4.5,4.5,0,0,0,.42-3.2,6.45,6.45,0,0,0-1.55-2.87c-.13-.15-.32-.3-.51-.23s-.22.39-.18.62a12.6,12.6,0,0,1,.29,2.11,3,3,0,0,1-.67,2,1.74,1.74,0,0,1-1.75.51.27.27,0,0,0-.33.07,21.43,21.43,0,0,1-3.16,2.86,3,3,0,0,1-1.64.7,2.26,2.26,0,0,1-1.89-1.2,4.88,4.88,0,0,1-.51-1.38.33.33,0,0,0-.61-.1,5.44,5.44,0,0,0-.59,1.24A4,4,0,0,0,236.22,316.47Z" transform="translate(-189.5 -202.07)"/><path class="cls-10" d="M216.22,319.21a3.26,3.26,0,0,0,2.55,1.84,4.82,4.82,0,0,0,3.15-.74,9.38,9.38,0,0,0,2.39-2.23,2.29,2.29,0,0,1,.72-.7,3.36,3.36,0,0,1,1.19-.16,3.48,3.48,0,0,0,2.64-1.75,4.49,4.49,0,0,0,.42-3.2,6.45,6.45,0,0,0-1.55-2.87c-.13-.14-.32-.3-.51-.23s-.23.39-.18.62a12.83,12.83,0,0,1,.28,2.12,2.85,2.85,0,0,1-.67,2,1.72,1.72,0,0,1-1.74.51.33.33,0,0,0-.34.07,20.42,20.42,0,0,1-3.16,2.86,3.11,3.11,0,0,1-1.63.71,2.24,2.24,0,0,1-1.89-1.21,4.88,4.88,0,0,1-.51-1.38.33.33,0,0,0-.61-.1,5,5,0,0,0-.59,1.25A3.93,3.93,0,0,0,216.22,319.21Z" transform="translate(-189.5 -202.07)"/><path class="cls-2" d="M191.18,216.33c1.16-1.46,3.22-1.81,5.08-1.88a30.71,30.71,0,0,1,11.21,1.65,22.83,22.83,0,0,0,.19,11.26,15.75,15.75,0,0,0-2-3.39,25.13,25.13,0,0,0-4.08-2.86A50.07,50.07,0,0,0,191.18,216.33Z" transform="translate(-189.5 -202.07)"/></svg>