<svg id="Layer_1" data-name="Layer 1" xmlns="http://www.w3.org/2000/svg" viewBox="0 0 90.01 113.09"><defs><style>.cls-1{fill:#020202;}</style></defs><title>bear_tracks</title><path class="cls-1" d="M601,494.67a5.31,5.31,0,0,0,3.49.68,18.13,18.13,0,0,1,10,1.91c3.16,1.63,5.49,4.27,8.92,4.85s6.47.72,8.94-2.12a15,15,0,0,0,3.53-12c-.85-7.64-9.07-11.5-15.94-12.57-6.17-1-13.43,1.86-18.89,4.58-6.45,3.22-6,10.9,0,14.62Z" transform="translate(-594.46 -454.64)"/><path class="cls-1" d="M631.65,474.68a2.15,2.15,0,0,0,0,.51,4.1,4.1,0,0,0,1.19,2.31,5.4,5.4,0,0,0,3.78,1.18c3.07-.52,2.56-5.55,1.82-7.58s-2.31-2.21-4.07-1.05a5.09,5.09,0,0,0-1.75,2.21A9.41,9.41,0,0,0,631.65,474.68Z" transform="translate(-594.46 -454.64)"/><path class="cls-1" d="M627.77,473c4.1-.2,4-7.43,2.26-9.82-3.19-4.52-6.4,2-6.41,5C623.61,470.3,624.68,472.83,627.77,473Z" transform="translate(-594.46 -454.64)"/><path class="cls-1" d="M613.43,469.24c.29,1.92,3.79,2.66,5.38,2.27,2.24-.53,2.62-3.34,2.54-5.29-.14-3.66-3.57-10.12-7.33-5C612.81,462.9,612.53,466.7,613.43,469.24Z" transform="translate(-594.46 -454.64)"/><path class="cls-1" d="M603.2,468a6.08,6.08,0,0,0,.26,1.6c.44,1.39,1.1,3,2.6,3.45,1.7.51,4.54-.08,5.2-1.9.55-1.51-.6-4.45-1.08-5.85-.65-1.91-2-3.71-4.22-2.85C603.61,463.35,603.15,465.51,603.2,468Z" transform="translate(-594.46 -454.64)"/><path class="cls-1" d="M594.75,470.94c-1.11,3.39,1,9.19,5.29,7.13,3.13-1.5,2.3-7.7-.38-9.49C597.55,467.17,595.48,468.92,594.75,470.94Z" transform="translate(-594.46 -454.64)"/><path class="cls-1" d="M596.07,465.85c.7,0,1.41,0,2.1,0a.13.13,0,0,0,.11-.15,8.67,8.67,0,0,0-1-2.53.12.12,0,0,0-.18,0,2.94,2.94,0,0,0-1,2.55" transform="translate(-594.46 -454.64)"/><path class="cls-1" d="M605.32,461.32c.81,0,1.63,0,2.43,0a.16.16,0,0,0,.16-.18,16.68,16.68,0,0,0-.95-3.94.16.16,0,0,0-.28,0,9.54,9.54,0,0,0-1.36,4" transform="translate(-594.46 -454.64)"/><path class="cls-1" d="M616.45,458.3a6.54,6.54,0,0,0,2.23-.16.19.19,0,0,0,.11-.26,16.85,16.85,0,0,1-1-3.06.21.21,0,0,0-.3-.15c-.91.57-1.14,2.36-1,3.44" transform="translate(-594.46 -454.64)"/><path class="cls-1" d="M629.25,460.35a12.44,12.44,0,0,0-.34-3.39.2.2,0,0,0-.19-.14c-1.24.08-1.4,2-1.52,3C627.51,460.29,628.73,460.34,629.25,460.35Z" transform="translate(-594.46 -454.64)"/><path class="cls-1" d="M637,464.39c.26.92.68,1.82.84,2.73a.35.35,0,0,1-.35.41,6.68,6.68,0,0,1-1.69-.07.25.25,0,0,1-.15-.36c.4-.79.22-2.42,1.07-2.85A.21.21,0,0,1,637,464.39Z" transform="translate(-594.46 -454.64)"/><path class="cls-1" d="M644.32,529.74c4.11,9.28-1.28,18.84-4,27.65-4,12.79,9.46,12.4,16.54,5.93,3.7-3.39,6.29-7.45,9.53-11.32,2.87-3.42,6.77-6.82,8.71-10.79,4.37-9,.29-18.58-8.06-23.15a17.48,17.48,0,0,0-15.19-1C647.48,518.62,641.14,523.56,644.32,529.74Z" transform="translate(-594.46 -454.64)"/><path class="cls-1" d="M679.68,523.37c-1.79,4.27,1.37,7,4,2.82,2.85-4.54-3.1-8-3.79-3.5" transform="translate(-594.46 -454.64)"/><path class="cls-1" d="M667.42,510.58c-1.34,3.36,3.6,4.89,5,1.62.81-1.86,1.41-7.76-2.35-6.06C668.4,506.89,668,508.72,667.42,510.58Z" transform="translate(-594.46 -454.64)"/><path class="cls-1" d="M673.47,516.83c-.76,1.73,0,2.93,1.67,3.44,1.92.59,2.6-.5,3.46-2,.69-1.24,1.62-3.06,1.08-4.48a2.44,2.44,0,0,0-3.49-1.32C674.77,513.2,673.88,515.22,673.47,516.83Z" transform="translate(-594.46 -454.64)"/><path class="cls-1" d="M647.17,513.5c.28,1.69,1.24,3.71,3.36,2.86,1.4-.56,2.65-2.53,3.12-3.79a7.78,7.78,0,0,0,0-4.91c-.88-2.19-2.8-1.51-4.35-.31A7,7,0,0,0,647.17,513.5Z" transform="translate(-594.46 -454.64)"/><path class="cls-1" d="M657.86,510.64c.36,1.33,1.36,3,3.29,2.41a4.91,4.91,0,0,0,2.69-2.78,5.21,5.21,0,0,0-.32-3.82c-.94-1.74-2.69-1.32-4.06-.47A4.4,4.4,0,0,0,657.86,510.64Z" transform="translate(-594.46 -454.64)"/><path class="cls-1" d="M671.29,504.9l1.52-2.7a.09.09,0,0,1,.17.05l-.36,3.08a.09.09,0,0,1-.12.08l-1.15-.37A.1.1,0,0,1,671.29,504.9Z" transform="translate(-594.46 -454.64)"/><path class="cls-1" d="M678.16,510.85l1.85-2.07a.16.16,0,0,1,.27.13l-.6,2.78a.16.16,0,0,1-.23.1l-1.25-.71A.14.14,0,0,1,678.16,510.85Z" transform="translate(-594.46 -454.64)"/><path class="cls-1" d="M682.29,519.06l1.73-2.35a.12.12,0,0,1,.22.07l-.07,3.21a.12.12,0,0,1-.17.11l-1.66-.86A.13.13,0,0,1,682.29,519.06Z" transform="translate(-594.46 -454.64)"/><path class="cls-1" d="M661.55,503.77l1.77.57a.11.11,0,0,0,.15-.11l.17-3.52a.12.12,0,0,0-.22-.07l-1.93,2.95A.12.12,0,0,0,661.55,503.77Z" transform="translate(-594.46 -454.64)"/><path class="cls-1" d="M651.34,504.64l2.24.73a.06.06,0,0,0,.08-.06l.07-3.5a.06.06,0,0,0-.11-.05l-2.31,2.78A.06.06,0,0,0,651.34,504.64Z" transform="translate(-594.46 -454.64)"/></svg>