<svg id="Layer_1" data-name="Layer 1" xmlns="http://www.w3.org/2000/svg" xmlns:xlink="http://www.w3.org/1999/xlink" viewBox="0 0 180.43 173.77"><defs><style>.cls-1{fill:#39211d;}.cls-2{fill:#383632;}.cls-3{fill:#ecdbc4;}.cls-4{fill:#7c675d;}.cls-5{fill:#fff;}.cls-6{fill:#020202;}.cls-11,.cls-7{fill:none;stroke:#000;stroke-miterlimit:10;}.cls-7{stroke-width:0.5px;}.cls-8{fill:#f9ecdd;}.cls-9{fill:url(#linear-gradient);}.cls-10{fill:#4c4942;}</style><linearGradient id="linear-gradient" x1="366.88" y1="244" x2="379.24" y2="248.4" gradientTransform="matrix(1, -0.01, 0.01, 1, -3.13, -1.42)" gradientUnits="userSpaceOnUse"><stop offset="0.22" stop-color="#7c675d"/><stop offset="0.25" stop-color="#87746b"/><stop offset="0.43" stop-color="#baafaa"/><stop offset="0.57" stop-color="#dfdad8"/><stop offset="0.69" stop-color="#f6f5f4"/><stop offset="0.75" stop-color="#fff"/></linearGradient></defs><title>bighorn_sheep</title><path class="cls-1" d="M204.68,282c1.91-.32,3-2,4-3.39,2.11-3.11,6.81-6.06,8-9.43C211.77,271.29,204.79,277,204.68,282Z" transform="translate(-197.79 -201.62)"/><path class="cls-1" d="M316.6,348.53a29.59,29.59,0,0,0,1.34,8.42c1.12,3.27,3.91,5.9,4.41,9.32a3.52,3.52,0,0,1-4.43-.53,9.05,9.05,0,0,1-2.17-4.28c-3-11.63.09-24.22,1.34-36a1.74,1.74,0,0,1,.49,1.5C317.56,333.11,316.34,341.31,316.6,348.53Z" transform="translate(-197.79 -201.62)"/><path class="cls-2" d="M319.86,364.55a4.92,4.92,0,0,1,4.14,4.6,103.24,103.24,0,0,1-10.56.46l-1.16-3.22C311.83,365.12,318.52,364.38,319.86,364.55Z" transform="translate(-197.79 -201.62)"/><path class="cls-3" d="M345.36,204.22a17.79,17.79,0,0,1,13.08,9.94c1.82,4,2.1,8.41,3.12,12.63-2.92-.12-5-2.7-7.42-4.34-3.75-2.56-8.5-2.92-12.95-3.8-3.75-.74-12.86-3.9-11.57-8.87S341.56,203.6,345.36,204.22Z" transform="translate(-197.79 -201.62)"/><path class="cls-1" d="M235.27,332.06c-1.4,4.37-2.82,8.88-2.45,13.46a31.32,31.32,0,0,0,2.77,9.55,140.76,140.76,0,0,0,9,17.73,10.86,10.86,0,0,1-7.27.11c.4-3-3.71-5.42-6.14-3.63.54-9.57-4.23-18.52-8.26-27.22-1-2.2-2-4.54-1.8-7A14.37,14.37,0,0,1,222.4,331l5.27-12.82c1.6-3.87,8.1-17.55,13.48-10.45C244.66,312.32,236.88,327.05,235.27,332.06Z" transform="translate(-197.79 -201.62)"/><path class="cls-4" d="M213.08,325c-3,2.46-6.63,4.37-8.58,7.72-2.74,4.71-1.29,10.66-2,16.08-.47,3.73-2,7.25-2.82,10.92s-.92,7.81,1.21,10.91,7.1,4.35,9.75,1.67a35.86,35.86,0,0,1,3.65-30.64c7.92-12.31,22.7-18.69,31.36-30.49a10.62,10.62,0,0,1,2.05-2.33c3-2.21,7.12-.12,10.58,1.28,13.18,5.35,28.18-.49,42.3,1.12a6.34,6.34,0,0,1,3.89,1.42,6.76,6.76,0,0,1,1.56,3.68,121.31,121.31,0,0,1,1.12,40.32c-.33,2.37-.7,4.94.46,7,1,1.88,3.19,3.12,3.65,5.21l9.59-1c-2.12-4.2-4.27-8.49-5-13.13-.71-4.34-.17-8.78.37-13.14l3.43-27.8a5.16,5.16,0,0,1,.59-2.16c.92-1.49,2.95-1.68,4.55-2.37,2.06-.89,3.53-2.71,4.9-4.47,12-15.34,23.52-32.69,23.67-52.13a4.68,4.68,0,0,1,.72-3.07,4.3,4.3,0,0,1,3-1.1,60.76,60.76,0,0,1,15.59.67,4.35,4.35,0,0,0,2.4,0c1.09-.45,1.59-1.69,2-2.81.82-2.35,1.64-5,.69-7.28a10.23,10.23,0,0,0-3.19-3.68c-10.79-8.95-24.45-17.32-38-13.77-1.73.46-3.48,1.1-5.25.89s-3.2-1.16-4.83-1.65-3.72-.36-4.62,1.09c-1.7,2.72,2.31,5.22,4.32,7.72,1.55,1.94,1.95,4.56,2,7.05a13.08,13.08,0,0,1-1.72,7.33c-2.43,3.69-7.4,4.81-11.81,4.52s-8.73-1.63-13.15-1.57c-9.32.13-17.36,6.38-26.38,8.71-8.59,2.22-17.63.79-26.5,1.08-14,.47-28.42,5.82-37.38,16.66-1.89,2.29-3.59,5-3.66,7.95a16.19,16.19,0,0,0,1.82,6.68c3.13,7.2,6.89,14.38,9.61,21.71C221.37,316.25,218.39,320.69,213.08,325Z" transform="translate(-197.79 -201.62)"/><circle class="cls-5" cx="354.99" cy="232.18" r="2.98" transform="translate(-207.85 -185.45) rotate(-2.57)"/><circle class="cls-6" cx="158.19" cy="30.95" r="2.35"/><circle class="cls-7" cx="355.31" cy="232.36" r="3.04" transform="translate(-207.86 -185.44) rotate(-2.57)"/><circle class="cls-5" cx="158.16" cy="31.12" r="0.65"/><path class="cls-8" d="M209.4,275.66c-1.75,3.48-3,6.91-2.37,10.74a20.9,20.9,0,0,0,1.74,5,137.6,137.6,0,0,0,6.5,12.53c.93,1.59,2.64,3.41,4.28,2.58a3.79,3.79,0,0,0,1.57-2.54L224,293.8a12.42,12.42,0,0,0,.68-3.81c-.07-2.09-1.15-4-2-5.91a23.46,23.46,0,0,1-1.82-8.09c-.09-1.95,6-6.84,5.36-8.69C223.54,259.35,211.09,272.29,209.4,275.66Z" transform="translate(-197.79 -201.62)"/><path class="cls-1" d="M244.18,299.12a96.12,96.12,0,0,0,37.56,6.29c6-.2,12.36-1.17,16.69-5.28a4.81,4.81,0,0,1,2.18-1.47c.55,1.29.23,3.29.23,4.77a16,16,0,0,0,.48,4.89c.52,1.7,1.69,2.69,2.9,3.84-4.45.32-8.89-1.53-13.49-1.23-5.28.35-10.46,1.54-15.74,1.83a51.26,51.26,0,0,1-16-1.71c-2.41-.64-5-2.18-7.44-2.51-1-.14-5.76.78-6,2C246.29,306.59,246.23,302.71,244.18,299.12Z" transform="translate(-197.79 -201.62)"/><path class="cls-9" d="M375.38,249.11a3.26,3.26,0,0,0,1.27-1.45,12.55,12.55,0,0,0,.82-2.63c.18-.77.48-1.5.62-2.28a6.68,6.68,0,0,0-.8-4.77,8.94,8.94,0,0,0-1.3-1.52c-1-1-2.64-3.13-4.22-2.83s-3,3.32-3.34,4.72a23.47,23.47,0,0,0-.18,5.17,18.37,18.37,0,0,1-1.08,4.94,39.08,39.08,0,0,0,5.53.88,4.63,4.63,0,0,0,2.34-.07A2.11,2.11,0,0,0,375.38,249.11Z" transform="translate(-197.79 -201.62)"/><path class="cls-1" d="M376.49,246a17.26,17.26,0,0,0,.4-6.86,7.19,7.19,0,0,0-4.81-.8,2.12,2.12,0,0,0,1.18,2.55,12.42,12.42,0,0,0,2,.3c.68.13,1.39.67,1.3,1.35" transform="translate(-197.79 -201.62)"/><path class="cls-1" d="M376.46,245.83a2.51,2.51,0,0,1-2.42.54,14.22,14.22,0,0,1-2.39-1,10.18,10.18,0,0,0-3.64-.84" transform="translate(-197.79 -201.62)"/><path class="cls-8" d="M330.69,224.93,327,222.55a6.24,6.24,0,0,0-2-1,1.88,1.88,0,0,0-1.48,3.45,5.89,5.89,0,0,0,3.14.95,6.68,6.68,0,0,0,2.32-.06A3.31,3.31,0,0,0,330.69,224.93Z" transform="translate(-197.79 -201.62)"/><path class="cls-10" d="M209,368.12a.64.64,0,0,1,.34,0,.63.63,0,0,1,.26.45c.26,1.12,1.84,4.93,1.39,5.91-.53,1.16-2.85.83-4.14.84-2,0-2.91-1.16-4.35-2.46-1.09-1-2.28-2.19-2.16-3.66l8.64-1.11Z" transform="translate(-197.79 -201.62)"/><path class="cls-2" d="M241.77,368.22l2.56,3.78a.93.93,0,0,1,.21.57c0,.4-.57.52-1,.54l-5.62.28a.92.92,0,0,1-.59-.1c-.27-.18-.28-.56-.31-.88a5.56,5.56,0,0,0-1.86-3.32C236.54,367.89,240,368.16,241.77,368.22Z" transform="translate(-197.79 -201.62)"/><path class="cls-10" d="M317.79,365.09a4.92,4.92,0,0,1,4.15,4.59,100.7,100.7,0,0,1-10.56.46l-1.17-3.21C309.76,365.65,316.46,364.91,317.79,365.09Z" transform="translate(-197.79 -201.62)"/><path class="cls-11" d="M325.57,243.73a13,13,0,0,0,1.71-7.33c0-2.49-.42-5.11-2-7.05-2-2.5-6-5-4.32-7.72.9-1.45,3-1.59,4.63-1.09s3.13,1.45,4.82,1.65,3.53-.43,5.26-.89c13.55-3.55,27.22,4.82,38,13.77a10.11,10.11,0,0,1,3.18,3.68c.95,2.31.14,4.93-.68,7.28-.39,1.12-.89,2.36-2,2.81a4.31,4.31,0,0,1-2.39,0,60.76,60.76,0,0,0-15.59-.67,4.32,4.32,0,0,0-3,1.1,4.74,4.74,0,0,0-.71,3.07c-.15,19.44-11.72,36.79-23.67,52.13-1.38,1.76-2.85,3.58-4.9,4.47-1.61.69-3.64.88-4.56,2.37a5.47,5.47,0,0,0-.59,2.16q-1.71,13.89-3.43,27.8c-.53,4.36-1.07,8.8-.36,13.14.76,4.64,5,10.94,7.11,15.15-3.2.33-7.81.66-11,1-.46-2.1-3.29-5.34-4.33-7.22-1.16-2.09-.79-4.66-.46-7A121.31,121.31,0,0,0,305.19,316a6.82,6.82,0,0,0-1.55-3.68,3.58,3.58,0,0,0-.7-.53c-3.34.15-6.68-.84-10.1-1.17-3,.07-6.09.33-9.15.62-3.18.45-6.36,1-9.58,1.14a51.32,51.32,0,0,1-16-1.71c-2.41-.64-5-2.18-7.44-2.51a13.15,13.15,0,0,0-4.32.82,14.1,14.1,0,0,0-1.5,1.85,48.34,48.34,0,0,1-4.53,5.25c-1.61,5.81-4.9,12.53-5.89,15.6-1.41,4.37-2.83,8.88-2.46,13.46a31.61,31.61,0,0,0,2.77,9.55,143.48,143.48,0,0,0,9,17.73,10.83,10.83,0,0,1-7.26.11c.39-3-3.71-5.42-6.15-3.63.54-9.57-4.23-18.52-8.25-27.22-1-2.2-2-4.54-1.8-7a9.33,9.33,0,0,1,.39-1.89,46.16,46.16,0,0,0-7.22,8.49A35.82,35.82,0,0,0,209.81,372c-2.65,2.68-7.62,1.43-9.75-1.67s-2.06-7.24-1.22-10.91,2.35-7.19,2.82-10.92c.68-5.42-.78-11.37,2-16.08,2-3.35,5.58-5.26,8.58-7.72,5.3-4.35,8.28-8.79,5.91-15.2-.43-1.14-.89-2.29-1.36-3.43a6.54,6.54,0,0,1-2.36-2.5A135.21,135.21,0,0,1,207.89,291a20.88,20.88,0,0,1-1.73-5,13.15,13.15,0,0,1,.48-6.22,4.69,4.69,0,0,1-2.83,1.82c.08-3.78,4.14-8,8.21-10.74a29.83,29.83,0,0,1,6.82-5.46c8.34-5.71,18.7-8.62,28.89-9,8.86-.29,17.91,1.14,26.49-1.08,4.15-1.07,7.95-2.91,12-4.4,6.06-2.24,12.28-4.52,18.74-4.56,3.64,0,7.27.67,10.91.64S323.56,246.77,325.57,243.73Z" transform="translate(-197.79 -201.62)"/><path class="cls-8" d="M350.35,211.08a29.59,29.59,0,0,0-10.16-5.36c-8.14-2.79-17.51-4.1-25.14-.2a26.65,26.65,0,0,0-8.11,6.74c-7.52,8.91-10.76,21.67-6.26,32.31s17.68,17.72,28.9,14c1-.33,2.11-.89,2.3-1.9-5.05-1.28-10.07-3.12-14.08-6.37s-6.89-8.07-6.74-13.13c.19-6.27,5-11.71,10.67-14.74,3.33-1.77,7.57-2.86,10.84-1,1.87,1.07,3.16,3,5.12,3.89,2.16,1,4.71.6,7.07.17,3.1-.56,9.85-.41,11.18-3.8C357.16,218.56,352.45,212.94,350.35,211.08Z" transform="translate(-197.79 -201.62)"/><path class="cls-11" d="M361.11,225.83c-1-4.23-1.3-8.68-3.12-12.63a17.78,17.78,0,0,0-13.08-9.95,24.19,24.19,0,0,0-8.17.56c-7.37-2.09-15.43-2.68-22.14.75a26.77,26.77,0,0,0-8.11,6.74c-7.52,8.91-10.76,21.67-6.25,32.31s17.67,17.72,28.9,14c1-.33,2.1-.89,2.29-1.9-5.05-1.28-10.07-3.13-14.07-6.37s-6.9-8.07-6.75-13.13c.2-6.28,5-11.71,10.68-14.74,3.33-1.77,7.57-2.86,10.84-1,1.87,1.08,3.15,3,5.11,3.89,2.17,1,4.71.6,7.07.18,2.62-.47,7.82-.44,10.19-2.45C356.59,223.68,358.53,225.72,361.11,225.83Z" transform="translate(-197.79 -201.62)"/></svg>