<svg id="Layer_1" data-name="Layer 1" xmlns="http://www.w3.org/2000/svg" viewBox="0 0 167.16 210.01"><defs><style>.cls-1{fill:#020202;}.cls-2{fill:#273037;}</style></defs><title>black_bear_prints</title><path class="cls-1" d="M215.89,255.65a9,9,0,0,0,5.89,1.15,33.61,33.61,0,0,1,18.89,3.5c5.86,3,10.19,7.94,16.56,9s12,1.34,16.61-3.93c5.42-6.22,7.5-13.8,6.56-22.22-1.59-14.18-16.85-21.35-29.6-23.34-11.47-1.78-25,3.45-35.1,8.51-12,6-11.18,20.23-.07,27.15Z" transform="translate(-203.5 -181.16)"/><path class="cls-1" d="M272.57,218.36a4.31,4.31,0,0,0,0,.95,7.6,7.6,0,0,0,2.22,4.29,9.9,9.9,0,0,0,7,2.19c5.69-1,4.76-10.3,3.38-14.07s-4.12-4.09-7.27-2.13a10,10,0,0,0-3.58,4.38A16.79,16.79,0,0,0,272.57,218.36Z" transform="translate(-203.5 -181.16)"/><path class="cls-1" d="M265.37,215.28c7.61-.37,7.35-13.78,4.2-18.23-5.93-8.4-11.88,3.69-11.91,9.3C257.64,210.23,259.63,214.93,265.37,215.28Z" transform="translate(-203.5 -181.16)"/><path class="cls-1" d="M238.74,208.27c.55,3.56,7,4.93,10,4.22,4.15-1,4.86-6.2,4.71-9.82-.27-6.81-6.63-18.81-13.62-9.25C237.59,196.49,237.06,203.56,238.74,208.27Z" transform="translate(-203.5 -181.16)"/><path class="cls-1" d="M219.75,206a10.84,10.84,0,0,0,.53,3c.82,2.54,2.05,5.41,4.78,6.24,3.15,1,8.42-.14,9.65-3.52,1-2.8-1.12-8.27-2-10.86-1.21-3.56-3.81-6.89-7.84-5.3C220.49,197.35,219.63,201.4,219.75,206Z" transform="translate(-203.5 -181.16)"/><path class="cls-1" d="M204.06,211.43c-2.08,6.3,1.79,17.07,9.81,13.23,5.81-2.78,4.27-14.3-.7-17.62C209.25,204.43,205.4,207.68,204.06,211.43Z" transform="translate(-203.5 -181.16)"/><path class="cls-1" d="M206.51,202c1.29,0,2.6,0,3.88,0a.23.23,0,0,0,.22-.27,16.15,16.15,0,0,0-1.87-4.7.23.23,0,0,0-.33-.08,5.49,5.49,0,0,0-1.9,4.74" transform="translate(-203.5 -181.16)"/><path class="cls-1" d="M223.68,193.56c1.5,0,3,0,4.51,0a.3.3,0,0,0,.29-.35,31.43,31.43,0,0,0-1.75-7.29.31.31,0,0,0-.53,0,17.83,17.83,0,0,0-2.52,7.38" transform="translate(-203.5 -181.16)"/><path class="cls-1" d="M244.35,188a12.42,12.42,0,0,0,4.12-.28.37.37,0,0,0,.22-.5,30.48,30.48,0,0,1-1.85-5.71.37.37,0,0,0-.55-.25c-1.7,1.07-2.13,4.38-1.94,6.39" transform="translate(-203.5 -181.16)"/><path class="cls-1" d="M268.12,191.75a22.92,22.92,0,0,0-.63-6.28.35.35,0,0,0-.39-.26c-2.26.18-2.58,3.68-2.79,5.55C264.88,191.65,267.15,191.75,268.12,191.75Z" transform="translate(-203.5 -181.16)"/><path class="cls-1" d="M282.57,199.24c.48,1.7,1.26,3.37,1.56,5.07a.67.67,0,0,1-.64.79,12.81,12.81,0,0,1-3.13-.13.46.46,0,0,1-.29-.66c.75-1.46.41-4.51,2-5.31A.37.37,0,0,1,282.57,199.24Z" transform="translate(-203.5 -181.16)"/><path class="cls-2" d="M355.25,378.33l2.07.05.23-.23-1.37,0Z" transform="translate(-203.5 -181.16)"/><path class="cls-2" d="M361.18,380.06a7.6,7.6,0,0,1-2.45,2.29,1.22,1.22,0,0,1,0,1.29A14.9,14.9,0,0,0,361.18,380.06Z" transform="translate(-203.5 -181.16)"/><path class="cls-1" d="M296.1,320.61c7.64,17.24-2.37,35-7.46,51.37-7.39,23.74,17.57,23,30.71,11,6.87-6.28,11.69-13.82,17.71-21,5.33-6.37,12.56-12.68,16.16-20.05,8.11-16.64.54-34.5-15-43-9.32-5.11-18.49-5.49-28.19-1.94C302,300,290.2,309.14,296.1,320.61Z" transform="translate(-203.5 -181.16)"/><path class="cls-1" d="M361.78,308.8c-3.33,7.92,2.53,13.09,7.46,5.23,5.28-8.43-5.76-14.82-7.05-6.5" transform="translate(-203.5 -181.16)"/><path class="cls-1" d="M339,285c-2.49,6.25,6.69,9.08,9.33,3,1.5-3.45,2.62-14.41-4.38-11.26C340.82,278.19,340.11,281.59,339,285Z" transform="translate(-203.5 -181.16)"/><path class="cls-1" d="M350.24,296.64c-1.42,3.21,0,5.45,3.09,6.39,3.58,1.09,4.84-.93,6.43-3.78,1.29-2.31,3-5.69,2-8.33a4.53,4.53,0,0,0-6.47-2.44C352.65,289.91,351,293.66,350.24,296.64Z" transform="translate(-203.5 -181.16)"/><path class="cls-1" d="M301.4,290.46c.52,3.14,2.3,6.9,6.25,5.31,2.58-1,4.91-4.7,5.79-7a14.51,14.51,0,0,0-.11-9.12c-1.63-4.06-5.19-2.8-8.07-.57C302.62,281.1,300.69,286,301.4,290.46Z" transform="translate(-203.5 -181.16)"/><path class="cls-1" d="M321.26,285.15c.65,2.47,2.52,5.49,6.1,4.47,2.34-.67,4.3-3.38,5-5.16a9.59,9.59,0,0,0-.6-7.08c-1.73-3.25-5-2.47-7.53-.89C321.88,277.94,320.36,281.65,321.26,285.15Z" transform="translate(-203.5 -181.16)"/><path class="cls-1" d="M346.19,274.5l2.81-5a.18.18,0,0,1,.33.11l-.66,5.72a.19.19,0,0,1-.23.14l-2.15-.69A.18.18,0,0,1,346.19,274.5Z" transform="translate(-203.5 -181.16)"/><path class="cls-1" d="M358.94,285.54l3.45-3.85a.28.28,0,0,1,.49.25l-1.11,5.15a.28.28,0,0,1-.42.19L359,286A.29.29,0,0,1,358.94,285.54Z" transform="translate(-203.5 -181.16)"/><path class="cls-1" d="M366.62,300.79l3.22-4.36a.22.22,0,0,1,.39.13l-.13,6a.22.22,0,0,1-.32.19l-3.08-1.6A.22.22,0,0,1,366.62,300.79Z" transform="translate(-203.5 -181.16)"/><path class="cls-1" d="M328.11,272.39l3.28,1.06a.21.21,0,0,0,.28-.19l.31-6.56a.22.22,0,0,0-.4-.13l-3.59,5.5A.21.21,0,0,0,328.11,272.39Z" transform="translate(-203.5 -181.16)"/><path class="cls-1" d="M309.15,274l4.14,1.34a.12.12,0,0,0,.16-.11l.14-6.5a.12.12,0,0,0-.21-.08l-4.29,5.16A.12.12,0,0,0,309.15,274Z" transform="translate(-203.5 -181.16)"/></svg>