<svg id="Layer_1" data-name="Layer 1" xmlns="http://www.w3.org/2000/svg" viewBox="0 0 212.71 172.21"><defs><style>.cls-1{fill:#060100;}.cls-2{fill:#1d2328;}.cls-3{fill:#273037;}.cls-4{fill:#191f23;}.cls-5{fill:#2e383f;}.cls-6{fill:#cab9a6;}.cls-10,.cls-12,.cls-13,.cls-7{fill:none;}.cls-8{fill:#fff;}.cls-9{fill:#020202;}.cls-10{stroke:#000;}.cls-10,.cls-12,.cls-13{stroke-miterlimit:10;}.cls-11{fill:#3d4951;}.cls-12{stroke:#050300;}.cls-13{stroke:#273037;}</style></defs><title>black_bear</title><path class="cls-1" d="M258.49,308.34c2.36,9.53.45,20.06,1.43,30.1,1,10.2,7.91,13.79,12.49,21.56a2.22,2.22,0,0,1-1,3.18c-5.81,2.43-16.08-.6-20.93-1.65-9.49-2.06-10.38-7.06-14.17-15.21-3-6.34-8-11.8-10.68-18.28-4-9.79,2.2-20,5.86-29.22,2.82-7.14,3.15-8.08,10.71-4.13C248.3,297.88,253.16,303,258.49,308.34Z" transform="translate(-180.78 -201.02)"/><path class="cls-2" d="M241.29,286.12c-.65,5.18-3.69,9.94-4.91,14.91,18.87,6.79,41,18.41,62.15,17.22-2.89-11-20.16-11.28-30.3-16.35C259.16,297.36,251.05,289.54,241.29,286.12Z" transform="translate(-180.78 -201.02)"/><path class="cls-3" d="M186.6,286.11c-.6,16-1.28,33,3.77,47.41,2.47,7.05-1.24,14.4,1.25,21.07,1.07,2.86,2.1,7,4.12,9.48,3.85,4.72,11.42,5.38,17.8,6.92,8,1.93,15,1.25,22.61-.21A3.52,3.52,0,0,0,239,367c-.41-4.44-3.65-8-6.18-11.72-4.41-6.43-4.6-7.85-2.59-15.42,2.91-11,3.15-22.2,6.16-33,1.64-5.89,2.1-12.71,5.36-17.65,15.48,13.26,36.25,18.15,54.39,26-4.06,13.87-1,30,5.13,43.55,4,8.92,6,9.9,15.74,10.77,6.4.57,19,6.14,24.92,2.16,9-6.06-2.93-12-5.55-16.51-3.31-5.71-2.56-15.21-2.89-21.84-.15-3.21-1.69-24,5.32-19.65,2.66,1.63.74,8.57,1.14,11.41.48,3.45,2,6.71,3.38,10.07,2.88,6.91,5.16,19.2,12.7,22.12,5.13,2,18.53,2.24,24.66-.11a1.66,1.66,0,0,0,.94-2.22c-1.7-3.84-6.38-5.62-8-9.08-1.82-3.84-.7-10.32-.7-14.69,0-9.77.7-20.25-1.35-29.44-2.77-12.44-2.38-15.46,3.68-26,4.21-7.36,7.19-18.06,5-26.73-7.35-29-48.52-30.24-71.78-25.62-14.45,2.86-25.9-1.19-40.14-3.77-16.89-3.06-38.42-2.46-55.33,1.76C181.55,229.31,187.41,259.31,186.6,286.11Z" transform="translate(-180.78 -201.02)"/><path class="cls-4" d="M322.29,224.08c-2.84-.41-3.88-6-4.07-8.06-.29-3.31-.31-7,1.32-10s4.85-3.13,7.87-3.38c3.81-.31,7.1,1.8,9.9,4.3,2.19,1.95,4.71,4.92,5,7.88a31,31,0,0,0-12.12,3.2,27.67,27.67,0,0,0-5.58,3.9A16.84,16.84,0,0,1,322.29,224.08Z" transform="translate(-180.78 -201.02)"/><path class="cls-5" d="M329,218.24c-13.12,9.49-13.81,19.17-10.77,34.42,3.24,16.2,12.2,22.17,28.33,23.62,27.69,2.5,49.12-33.45,25.42-52.85C360.69,214.16,340.38,209.45,329,218.24Z" transform="translate(-180.78 -201.02)"/><path class="cls-6" d="M337.82,241.35c-8.08,2.15-13.65,13.83-11.32,21.65,1.42,4.76,6.52,7.56,11.08,8.8a15.16,15.16,0,0,0,9.37-.31c4.72-2,5.58-6.44,6.05-11.08.43-4.17.82-9-.29-13.13C351,240.79,344.79,239.49,337.82,241.35Z" transform="translate(-180.78 -201.02)"/><path class="cls-1" d="M333.7,247.39c-9.85,1.7-4.38,10,3.62,9.35,2.2-.19,5.09-1.47,5.87-3.88,1.11-3.43-1.82-5-4.65-5.46A14,14,0,0,0,333.7,247.39Z" transform="translate(-180.78 -201.02)"/><path class="cls-7" d="M364.55,220.91c6.2-3.47,18.05-2.67,19.36,6.08,1.21,8.16-10.33,10.32-15.59,13.2-.52-.68-.51-1.4-.9-2.08" transform="translate(-180.78 -201.02)"/><circle class="cls-8" cx="333.58" cy="233.21" r="5.38" transform="translate(-190.9 -185.81) rotate(-2.57)"/><circle class="cls-9" cx="153.25" cy="32.44" r="4.24"/><circle class="cls-10" cx="334.16" cy="233.53" r="5.49" transform="translate(-190.92 -185.79) rotate(-2.57)"/><circle class="cls-8" cx="151.59" cy="32.3" r="1.17"/><circle class="cls-8" cx="359.89" cy="237.61" r="5.38" transform="translate(-191.08 -184.63) rotate(-2.57)"/><circle class="cls-9" cx="179.55" cy="36.84" r="4.24"/><circle class="cls-10" cx="360.46" cy="237.94" r="5.49" transform="translate(-191.09 -184.6) rotate(-2.57)"/><circle class="cls-8" cx="177.89" cy="36.7" r="1.17"/><path class="cls-5" d="M364.84,221c1-.92,1.64-2.37,2.8-3.35a40.3,40.3,0,0,1,4-3c3-2,7.49-2.17,11-1.55a12.85,12.85,0,0,1,9.31,7.76,21,21,0,0,1,1.49,8c-.09,2.83-2.44,6.26-4.67,8.13a13.21,13.21,0,0,1-8.71,3.29c4.92-.07,6.92-6.28,7.5-9.8.38-2.34.52-4.61-1.07-6.63-2.09-2.66-4.93-3.76-8.51-4-3.23-.2-7.66-.73-10.61.63-.6.27-1.31,1.19-1.88,1.33S364,221.4,364.84,221Z" transform="translate(-180.78 -201.02)"/><path class="cls-11" d="M366.85,221.29c-1.48-3.12,11-3.44,13-3.21,3.14.37,6.81,1.5,8.87,4,1.68,2,1.6,4.87,1.46,7.38a14.36,14.36,0,0,1-6.47,10.25c-1.43.78-3,1-3.79-.61-1-2.14-1.56-4.69-2.35-7a14.88,14.88,0,0,0-4.64-6.59C371.3,224.06,368.89,221.76,366.85,221.29Z" transform="translate(-180.78 -201.02)"/><path class="cls-12" d="M337.12,241.44c-8.08,2.15-13.65,13.83-11.32,21.65,1.42,4.76,6.52,7.56,11.08,8.8a15.16,15.16,0,0,0,9.37-.31c4.72-2,5.58-6.44,6.05-11.07.43-4.18.82-9-.29-13.14C350.25,240.88,344.09,239.58,337.12,241.44Z" transform="translate(-180.78 -201.02)"/><path class="cls-2" d="M334.83,313.54a48.63,48.63,0,0,0,6.65-2.86c5.33-2.39,10.68-5,15.34-8.6,5.43-4.26,9.47-9.79,13.26-15.33-5.71,9.65-11.6,18.86-21.51,25a32.33,32.33,0,0,1-8.44,3.91A3.63,3.63,0,0,0,334.83,313.54Z" transform="translate(-180.78 -201.02)"/><path class="cls-3" d="M195.41,233.85c-6.56,1.4-12.8,8.69-13.12,13.85C188.42,248.45,195.39,238,195.41,233.85Z" transform="translate(-180.78 -201.02)"/><path class="cls-13" d="M391,219.77a12.89,12.89,0,0,0-9.31-7.76c-3.53-.62-8-.42-11,1.55a43.2,43.2,0,0,0-4,3,9.17,9.17,0,0,0-1.55,1.81c-7.18-4-16-6.35-24-5.78-.72-2.57-2.87-5-4.77-6.74-2.8-2.5-6.1-4.61-9.91-4.29-3,.25-6.23.37-7.87,3.37s-1.61,6.7-1.31,10a17.15,17.15,0,0,0,1.57,5.85,108.18,108.18,0,0,0-11.33,1.59c-14.45,2.87-25.9-1.18-40.13-3.76-16.9-3.06-38.43-2.47-55.34,1.75-9.86,2.46-16,7.1-19.93,13.14-5.63,2.38-10.5,8.56-10.78,13.11,2.14.26,4.38-.85,6.39-2.57-3,12.13-1.65,27-2.08,41-.59,16-1.27,33,3.78,47.41,2.46,7.05-1.25,14.4,1.24,21.08,1.07,2.86,2.1,7,4.13,9.47,3.84,4.73,11.41,5.38,17.79,6.92,8,1.93,15,1.26,22.61-.2A3.52,3.52,0,0,0,238,366c-.41-4.44-3.64-8-6.17-11.73-4.42-6.43-4.61-7.84-2.6-15.42.23-.85.44-1.72.64-2.58a70.22,70.22,0,0,1,5.39,9c3.8,8.16,4.68,13.16,14.17,15.21,4.86,1.05,15.13,4.08,20.93,1.66a2.23,2.23,0,0,0,1-3.19c-4.57-7.76-11.48-11.36-12.48-21.56-.93-9.53.73-19.5-1.12-28.64,11.93,4.56,24.4,8.51,36.59,8.53-2.83,13.15.25,27.94,5.89,40.55,4,8.91,6,9.89,15.74,10.77,6.4.57,19,6.14,24.93,2.16,9-6.07-2.93-12-5.56-16.52-3.31-5.71-2.56-15.2-2.88-21.83-.16-3.21-1.7-24,5.32-19.66a2.33,2.33,0,0,1,.38.31l.09.09c1.94,2.15.29,8.37.66,11,.48,3.45,2,6.71,3.38,10.08,2.89,6.9,5.17,19.19,12.7,22.12,5.14,2,18.53,2.23,24.66-.12a1.65,1.65,0,0,0,.94-2.21c-1.69-3.84-6.37-5.63-8-9.09-1.82-3.83-.7-10.32-.7-14.68,0-9.77.7-20.25-1.34-29.45-2.77-12.44-2.38-15.45,3.67-26,3.65-6.38,6.38-15.28,5.6-23.18a27.92,27.92,0,0,0,1.1-12.33,4.16,4.16,0,0,0,1.18-.32,14.09,14.09,0,0,0,5.67-3c2.22-1.87,4.58-5.29,4.67-8.13A21,21,0,0,0,391,219.77Z" transform="translate(-180.78 -201.02)"/></svg>