<svg id="Layer_1" data-name="Layer 1" xmlns="http://www.w3.org/2000/svg" viewBox="0 0 80.58 120.66"><defs><style>.cls-1{fill:#241f21;}</style></defs><title>canyon_wren_prints</title><path class="cls-1" d="M276.5,251.25c-.16-7.78-2.05-15.7-.17-23.25a40.79,40.79,0,0,1,2.72,9.06c.74,4.14.84,8.39,1.75,12.5.27,1.22.8,2.62,2,2.92s2.36-.72,3.27-1.61c3.68-3.6,8.11-6.32,12.51-9-1.74,1.16-1.67,3.72-2.7,5.54s-2.86,2.66-4.52,3.72a24.24,24.24,0,0,0-10.25,14,2,2,0,0,1-.21.58c-.45.7-1.61.5-2.15-.13a6.69,6.69,0,0,1-1-2.29c-1.37-3.93-5.78-5.68-9.47-7.61a38.19,38.19,0,0,1-11.27-9c.56.66,4.43,1.08,5.44,1.47,1.88.72,3.69,1.62,5.52,2.47S276.59,255.64,276.5,251.25Z" transform="translate(-247.96 -228)"/><path class="cls-1" d="M309.85,254.75a62.17,62.17,0,0,1,.62,10.64c-.25,4.53-1.49,9-1.29,13.52a2.28,2.28,0,0,0,.33,1.29,2.18,2.18,0,0,0,2.19.45,24.39,24.39,0,0,0,5.91-2.58,46.3,46.3,0,0,1,10.93-4c-1.52,2.53-4.22,4.07-6.8,5.5l-7.85,4.34c-2.59,1.43-5.34,3-6.57,5.73a11,11,0,0,1-.92,1.93,1.84,1.84,0,0,1-1.83.85c-1.21-.32-1.25-2-1.39-3.2a9.58,9.58,0,0,0-3.15-5.63c-1.58-1.52-3.44-2.72-5.13-4.12A27.91,27.91,0,0,1,287,268.82c2.44.15,4.47,1.85,6.31,3.46l7,6.13a3.21,3.21,0,0,0,2.29,1.09c1.53-.16,1.93-2.17,2-3.71a60.6,60.6,0,0,1,4.39-20.32,3.61,3.61,0,0,1,.76-1.07" transform="translate(-247.96 -228)"/><path class="cls-1" d="M267.41,307.42c-.16-7.78-2.05-15.7-.17-23.25a41,41,0,0,1,2.72,9.06c.74,4.14.84,8.39,1.74,12.5.27,1.22.81,2.62,2,2.92s2.36-.72,3.27-1.61c3.68-3.6,8.11-6.32,12.5-9-1.73,1.17-1.66,3.72-2.7,5.54s-2.85,2.66-4.51,3.73a24.17,24.17,0,0,0-10.25,14,1.93,1.93,0,0,1-.22.58c-.45.7-1.6.5-2.14-.13a6.5,6.5,0,0,1-1-2.29c-1.37-3.93-5.79-5.68-9.47-7.61a38.19,38.19,0,0,1-11.27-9c.56.66,4.43,1.08,5.44,1.47,1.88.73,3.69,1.62,5.52,2.47S267.5,311.81,267.41,307.42Z" transform="translate(-247.96 -228)"/><path class="cls-1" d="M300.76,310.92a62.17,62.17,0,0,1,.62,10.64c-.25,4.53-1.49,9-1.29,13.52a2.28,2.28,0,0,0,.33,1.29,2.16,2.16,0,0,0,2.18.45,24.64,24.64,0,0,0,5.92-2.57,45.86,45.86,0,0,1,10.93-4c-1.52,2.53-4.22,4.07-6.8,5.49l-7.85,4.35c-2.59,1.43-5.34,3-6.57,5.72a11.13,11.13,0,0,1-.92,1.94,1.83,1.83,0,0,1-1.83.84c-1.21-.32-1.25-2-1.39-3.2a9.58,9.58,0,0,0-3.15-5.63c-1.59-1.52-3.44-2.72-5.13-4.12A27.91,27.91,0,0,1,277.88,325c2.44.15,4.47,1.85,6.31,3.46l7,6.13a3.22,3.22,0,0,0,2.28,1.1c1.54-.17,1.94-2.18,2-3.71a60.66,60.66,0,0,1,4.39-20.33,3.44,3.44,0,0,1,.76-1.06" transform="translate(-247.96 -228)"/></svg>