<svg id="Layer_1" data-name="Layer 1" xmlns="http://www.w3.org/2000/svg" xmlns:xlink="http://www.w3.org/1999/xlink" viewBox="0 0 200.98 145.18"><defs><style>.cls-1{fill:#151515;}.cls-2{fill:#5e311e;}.cls-17,.cls-18,.cls-3{fill:none;}.cls-3{stroke:#000;}.cls-17,.cls-18,.cls-3,.cls-5{stroke-miterlimit:10;}.cls-4{fill:#522206;}.cls-5{stroke:#fff;fill:url(#linear-gradient);}.cls-6{fill:url(#linear-gradient-2);}.cls-7{fill:#a74512;}.cls-8{fill:#884a37;}.cls-9{fill:url(#linear-gradient-3);}.cls-10{fill:#e6c89a;}.cls-11{fill:#a36444;}.cls-12{fill:#fff;}.cls-13{fill:#020202;}.cls-14{fill:#511f0d;}.cls-15{fill:#542107;}.cls-16{opacity:0.37;}.cls-17,.cls-18{stroke:#050706;}.cls-18{stroke-linecap:round;stroke-width:2px;}</style><linearGradient id="linear-gradient" x1="321.33" y1="291.64" x2="366.62" y2="268.87" gradientUnits="userSpaceOnUse"><stop offset="0.55" stop-color="#ecc18c"/><stop offset="1" stop-color="#f6e4cd"/></linearGradient><linearGradient id="linear-gradient-2" x1="235.29" y1="299.06" x2="356.5" y2="299.06" gradientUnits="userSpaceOnUse"><stop offset="0" stop-color="#fcc868"/><stop offset="1" stop-color="#eac092"/></linearGradient><linearGradient id="linear-gradient-3" x1="354.83" y1="233.84" x2="385.14" y2="218.61" gradientTransform="matrix(1, -0.03, 0.03, 1.02, -4.98, 5.9)" gradientUnits="userSpaceOnUse"><stop offset="0" stop-color="#f6e4cd"/><stop offset="0.45" stop-color="#884a37"/></linearGradient></defs><title>canyon_wren</title><path class="cls-1" d="M356.76,344.52" transform="translate(-187.76 -215.81)"/><path class="cls-2" d="M324.91,336.77s2.95,10.61,3.79,10.87,4.69-.39,7.46-2.83c0,0,2-1.67,5.48.26a4.57,4.57,0,0,0,2.4.58c1.94-.1,5.37-.28,6.45-.46s1.68,1.17,2.12,2.24a.31.31,0,0,1-.47.38,3.4,3.4,0,0,0-2.48-.5,48.64,48.64,0,0,1-7.53.07s-8.35-.19-9.89,2.44a32,32,0,0,0,8,.26c2.85-.48,8-1.34,10.09,2.69a.17.17,0,0,1-.26.2c-.92-.85-2.86-1.84-6.52-.64a8.18,8.18,0,0,1-3.64.36c-3.64-.48-11.43-1.41-16.44-1.22a10,10,0,0,1-4.51-.89c-2.18-1-5.51-2-7.35-.28a.16.16,0,0,1-.26-.18,4.26,4.26,0,0,1,4.65-2.74,74.12,74.12,0,0,1,9.9,2.31l-3.66-12.47Z" transform="translate(-187.76 -215.81)"/><path class="cls-3" d="M325.41,337.61s3,10.61,3.79,10.86,4.7-.38,7.46-2.83c0,0,2-1.66,5.48.26a4.5,4.5,0,0,0,2.4.58c1.95-.09,5.37-.27,6.46-.45.93-.16,1.67,1.16,2.11,2.23a.32.32,0,0,1-.47.39,3.38,3.38,0,0,0-2.48-.5,48.51,48.51,0,0,1-7.52.07s-8.36-.2-9.9,2.44a32,32,0,0,0,8,.26c2.85-.48,8-1.34,10.09,2.69a.16.16,0,0,1-.25.2c-.92-.85-2.87-1.85-6.52-.65a8.23,8.23,0,0,1-3.65.37c-3.64-.48-11.42-1.41-16.44-1.22a10,10,0,0,1-4.51-.89c-2.18-1-5.5-2-7.35-.28a.16.16,0,0,1-.26-.19,4.27,4.27,0,0,1,4.66-2.73,74.12,74.12,0,0,1,9.9,2.31l-3.67-12.47Z" transform="translate(-187.76 -215.81)"/><polygon class="cls-4" points="47.52 92.63 2.56 92.56 29.47 88.49 47.52 92.63"/><path class="cls-3" d="M232.43,308.25l-43.28-.07a.12.12,0,0,1,0-.24L215,304.11h.05l17.37,3.9A.12.12,0,0,1,232.43,308.25Z" transform="translate(-187.76 -215.81)"/><path class="cls-5" d="M362.69,238.82c4.17,40.89-12.84,84.27-19.29,88.2L324.25,257.8s4-22.8,29.35-26.64C358.33,230.45,362.2,234.06,362.69,238.82Z" transform="translate(-187.76 -215.81)"/><path class="cls-6" d="M324.44,257.61l-89.15,51.62s37.92,31.28,77,31.28,44.18-43,44.18-43Z" transform="translate(-187.76 -215.81)"/><path class="cls-7" d="M351.38,223.11c-10.17-1.5-32.46.08-49.62,33.22a19.57,19.57,0,0,1-7.24,7.75l-52.27,31.5a8.63,8.63,0,0,1-4.08,1.22L189,298.6a.23.23,0,0,0,0,.45l46.29,9.79s41.28,6.69,83.23-30a11.34,11.34,0,0,0,3.75-6.93l1.1-7.86a35.64,35.64,0,0,1,8.29-18.3h0a11.47,11.47,0,0,1,7.42-3.9l1.26-.14a14.9,14.9,0,0,0,8.4-3.81l10.11-9.24h0A9.72,9.72,0,0,0,351.38,223.11Z" transform="translate(-187.76 -215.81)"/><path class="cls-8" d="M348.68,230.24s20.71-10.49,30.71-13.6a11.86,11.86,0,0,1,6.83-.08h0s-23.07,8.25-30.89,15.25Z" transform="translate(-187.76 -215.81)"/><path class="cls-9" d="M363.54,227.51c6.24-3.74,19.91-9.93,24.35-9.47,0,0-24.14,13.3-26.39,16.18l-4.85-2.37-.15-1.22A24.76,24.76,0,0,0,363.54,227.51Z" transform="translate(-187.76 -215.81)"/><path class="cls-10" d="M355.33,231.91s-29.72-12.48-40.67,14.76C314.66,246.67,324.05,235.32,355.33,231.91Z" transform="translate(-187.76 -215.81)"/><path class="cls-11" d="M355.33,231.81s-30.24,1.71-40.67,14.86C314.66,246.67,337.6,246.09,355.33,231.81Z" transform="translate(-187.76 -215.81)"/><circle class="cls-12" cx="149.16" cy="18.74" r="5.39"/><circle class="cls-13" cx="149.36" cy="18.54" r="4.24"/><circle class="cls-3" cx="149.76" cy="18.76" r="5.5"/><circle class="cls-12" cx="150.75" cy="17.56" r="1.17"/><path class="cls-14" d="M314.48,272.87a11.84,11.84,0,0,1,11.11,9.77c1.33,7.21,1.67,14.55-1.59,20.95-3.18,6.24-9.43,10.5-16.12,12.6s-13.82,2.26-20.82,2a183.79,183.79,0,0,1-51.68-9.43c20.75-11.28,41.12-22.91,62.63-32.67A38.17,38.17,0,0,1,314.48,272.87Z" transform="translate(-187.76 -215.81)"/><path class="cls-7" d="M312,270.22A11.85,11.85,0,0,1,323.13,280c1.33,7.21,1.67,14.55-1.59,20.95-3.18,6.24-9.44,10.5-16.12,12.6s-13.82,2.26-20.82,2a183.86,183.86,0,0,1-51.69-9.43c20.76-11.28,41.13-22.91,62.64-32.68A38.31,38.31,0,0,1,312,270.22Z" transform="translate(-187.76 -215.81)"/><path class="cls-4" d="M238.48,297.34a17.93,17.93,0,0,1-1.8,1,14.6,14.6,0,0,1-1.72.77c-.65.25-1.09.07-1.11.65s.69.86,1.35,1l1.47.22-1.61.7a6.18,6.18,0,0,0-1.51,1.07,4.9,4.9,0,0,0-1,1.37,5.46,5.46,0,0,0-.56,1.61,6.84,6.84,0,0,0-.06,2.05l-.17.1a3.34,3.34,0,0,1-1.37-2,4,4,0,0,1,.22-2.62,4.37,4.37,0,0,1,1.8-1.95,3.89,3.89,0,0,1,2.48-.53l-.14.91a4.4,4.4,0,0,1-1.62-1.64,1.84,1.84,0,0,1-.14-.69,1.58,1.58,0,0,1,.24-.76,3.59,3.59,0,0,1,.9-.92,5,5,0,0,1,2.08-.71,4.28,4.28,0,0,1,2.2.26Z" transform="translate(-187.76 -215.81)"/><path class="cls-4" d="M229.82,297.6a13.54,13.54,0,0,1-1.56.88,10.36,10.36,0,0,1-1.45.6c-.44.11-.93.1-1.17.51a.45.45,0,0,0,.05.55c.13.15.37.17.44.07l.25.85c-.54.4-1,.84-1.45,1.16a4.6,4.6,0,0,0-1,1.08,2.48,2.48,0,0,0-.45,1,1.65,1.65,0,0,0,.57,1.39l0,.2A1.86,1.86,0,0,1,222,304.8a2.77,2.77,0,0,1,.17-2.64,3.94,3.94,0,0,1,1.85-1.51,5.82,5.82,0,0,1,2.05-.42l.24.85a1.44,1.44,0,0,1-1.38-1.65,2.5,2.5,0,0,1,1.15-1.92,4.05,4.05,0,0,1,1.84-.52,3.68,3.68,0,0,1,1.9.41Z" transform="translate(-187.76 -215.81)"/><path class="cls-15" d="M302.93,339.34s1,10.94,1.76,11.34,4.69.39,7.82-1.57c0,0,2.29-1.31,5.37,1.16a4.48,4.48,0,0,0,2.27,1c1.93.23,5.34.62,6.44.62.94,0,1.46,1.42,1.72,2.55a.32.32,0,0,1-.53.3,3.35,3.35,0,0,0-2.37-.9,48.93,48.93,0,0,1-7.42-1.17s-8.22-1.56-10.17.78a31.69,31.69,0,0,0,7.82,1.57c2.89,0,8.11,0,9.51,4.31a.16.16,0,0,1-.28.16c-.77-1-2.53-2.29-6.33-1.71a8.25,8.25,0,0,1-3.66-.24c-3.51-1.07-11-3.27-16-3.91a10,10,0,0,1-4.3-1.62c-2-1.32-5.1-2.88-7.21-1.48a.16.16,0,0,1-.22-.23,4.27,4.27,0,0,1,5-1.93,73.92,73.92,0,0,1,9.38,3.91L300,339.34Z" transform="translate(-187.76 -215.81)"/><g class="cls-16"><path class="cls-12" d="M335.7,226.26c-.12-.28-1.12.16-1,.44S335.83,226.54,335.7,226.26Z" transform="translate(-187.76 -215.81)"/><path class="cls-12" d="M330,227.26c-.63.34-.4.78.23.44S330.67,226.93,330,227.26Z" transform="translate(-187.76 -215.81)"/><path class="cls-12" d="M332.36,227.79c-.62.36-.35.83.27.46S333,227.42,332.36,227.79Z" transform="translate(-187.76 -215.81)"/><path class="cls-12" d="M327.54,228.57c-.75.48-.46.93.29.46S328.29,228.1,327.54,228.57Z" transform="translate(-187.76 -215.81)"/><path class="cls-12" d="M321.88,233.54c-.84.63-.43,1.18.41.54S322.72,232.91,321.88,233.54Z" transform="translate(-187.76 -215.81)"/><path class="cls-12" d="M324.22,231.2c-.83.64-.43,1.18.41.54S325.06,230.56,324.22,231.2Z" transform="translate(-187.76 -215.81)"/><path class="cls-12" d="M317,237.27c-.71.77-.14,1.29.57.52S317.71,236.5,317,237.27Z" transform="translate(-187.76 -215.81)"/><path class="cls-12" d="M318.76,235.1c-.84.62-.44,1.17.4.55S319.6,234.48,318.76,235.1Z" transform="translate(-187.76 -215.81)"/><path class="cls-12" d="M315.6,241.05c-.5.81.09,1.18.6.37S316.11,240.24,315.6,241.05Z" transform="translate(-187.76 -215.81)"/><path class="cls-12" d="M312.84,240.91c-.55.77,0,1.15.53.38S313.4,240.14,312.84,240.91Z" transform="translate(-187.76 -215.81)"/><path class="cls-12" d="M311.66,244.11c-.75.75-.31,1.18.43.43S312.4,243.35,311.66,244.11Z" transform="translate(-187.76 -215.81)"/><path class="cls-12" d="M314.4,244.08c-.61.74-.11,1.16.5.42S315,243.35,314.4,244.08Z" transform="translate(-187.76 -215.81)"/><path class="cls-12" d="M308.68,246c-.82,1-.18,1.53.65.53S309.5,245,308.68,246Z" transform="translate(-187.76 -215.81)"/><path class="cls-12" d="M310.52,247c-.9,1.05-.16,1.69.74.64S311.42,246,310.52,247Z" transform="translate(-187.76 -215.81)"/><path class="cls-12" d="M313,247.17c-.7,1,0,1.48.69.49S313.72,246.19,313,247.17Z" transform="translate(-187.76 -215.81)"/><path class="cls-12" d="M313.44,250.25c-.82.9-.19,1.47.63.58S314.26,249.36,313.44,250.25Z" transform="translate(-187.76 -215.81)"/><path class="cls-12" d="M307.64,252.31c-.84.85-.33,1.36.51.5S308.48,251.45,307.64,252.31Z" transform="translate(-187.76 -215.81)"/><path class="cls-12" d="M310.73,250.38c-.73,1-.16,1.4.58.44S311.47,249.42,310.73,250.38Z" transform="translate(-187.76 -215.81)"/><path class="cls-12" d="M310.53,254.2c-.79,1.14-.07,1.63.71.49S311.32,253.06,310.53,254.2Z" transform="translate(-187.76 -215.81)"/><path class="cls-12" d="M307.08,259.11c-.9.92-.39,1.42.51.49S308,258.19,307.08,259.11Z" transform="translate(-187.76 -215.81)"/><path class="cls-12" d="M312.14,265.07c-1,1-.35,1.61.63.62S313.11,264.09,312.14,265.07Z" transform="translate(-187.76 -215.81)"/><path class="cls-12" d="M302.85,264c-1.09.82-.64,1.43.45.61S304,263.15,302.85,264Z" transform="translate(-187.76 -215.81)"/><path class="cls-12" d="M304.33,257.05c-.74,1.15-.12,1.55.62.4S305.07,255.89,304.33,257.05Z" transform="translate(-187.76 -215.81)"/><path class="cls-12" d="M308,263.44c-1.12.64-.68,1.41.44.76S309.12,262.79,308,263.44Z" transform="translate(-187.76 -215.81)"/><path class="cls-12" d="M308.07,269.31c-1.19.84-.69,1.57.51.74S309.27,268.48,308.07,269.31Z" transform="translate(-187.76 -215.81)"/><path class="cls-12" d="M302.55,268.91c-1.15.77-.66,1.52.49.75S303.7,268.15,302.55,268.91Z" transform="translate(-187.76 -215.81)"/><path class="cls-12" d="M300.17,267c-1.24.56-.91,1.3.33.74S301.41,266.45,300.17,267Z" transform="translate(-187.76 -215.81)"/><path class="cls-12" d="M298.23,263.41c-1.26.49-1,1.32.32.82S299.5,262.91,298.23,263.41Z" transform="translate(-187.76 -215.81)"/><path class="cls-12" d="M293.05,268.24c-1.23.74-.84,1.4.4.66S294.29,267.5,293.05,268.24Z" transform="translate(-187.76 -215.81)"/><path class="cls-12" d="M296.76,271.1c-1.31.67-.93,1.42.38.75S298.07,270.43,296.76,271.1Z" transform="translate(-187.76 -215.81)"/><path class="cls-12" d="M303.86,271.75c-1.4.66-.9,1.72.5,1.06S305.27,271.08,303.86,271.75Z" transform="translate(-187.76 -215.81)"/><path class="cls-12" d="M295.58,274.62c-1.44.74-.9,1.78.54,1S297,273.88,295.58,274.62Z" transform="translate(-187.76 -215.81)"/><path class="cls-12" d="M292.44,271.77c-1.4,1-1,1.61.44.63S293.84,270.79,292.44,271.77Z" transform="translate(-187.76 -215.81)"/><path class="cls-12" d="M287.44,275.91c-1.42.74-1,1.55.42.81S288.87,275.18,287.44,275.91Z" transform="translate(-187.76 -215.81)"/><path class="cls-12" d="M289.51,270.22c-1.17.68-.74,1.42.43.74S290.67,269.54,289.51,270.22Z" transform="translate(-187.76 -215.81)"/><path class="cls-12" d="M291.09,277.32c-1.31.83-.75,1.72.56.89S292.41,276.49,291.09,277.32Z" transform="translate(-187.76 -215.81)"/><path class="cls-12" d="M300,272.36c-1.48.47-1.13,1.59.36,1.12S301.5,271.89,300,272.36Z" transform="translate(-187.76 -215.81)"/><path class="cls-12" d="M272.65,280.07c-1.51.68-1,1.75.49,1.06S274.16,279.38,272.65,280.07Z" transform="translate(-187.76 -215.81)"/><path class="cls-12" d="M286.16,273c-1.49.72-1.05,1.66.45.94S287.67,272.25,286.16,273Z" transform="translate(-187.76 -215.81)"/><path class="cls-12" d="M281.89,277c-1.37.79-.95,1.53.43.74S283.27,276.18,281.89,277Z" transform="translate(-187.76 -215.81)"/><path class="cls-12" d="M286.14,279.65c-1.39.89-.81,1.79.58.9S287.53,278.75,286.14,279.65Z" transform="translate(-187.76 -215.81)"/><path class="cls-12" d="M277.3,281.68c-1.42.69-1,1.6.45.9S278.73,281,277.3,281.68Z" transform="translate(-187.76 -215.81)"/><path class="cls-12" d="M281.14,280.87c-1.38.8-.84,1.72.54.91S282.51,280.06,281.14,280.87Z" transform="translate(-187.76 -215.81)"/><path class="cls-12" d="M277.17,276.82c-1.39.83-.78,1.84.61,1S278.56,276,277.17,276.82Z" transform="translate(-187.76 -215.81)"/><path class="cls-12" d="M311.63,259.63c-1.31.81-.69,1.81.62,1S313,258.82,311.63,259.63Z" transform="translate(-187.76 -215.81)"/><path class="cls-12" d="M286.3,269.9c-1.47.59-1.08,1.56.39,1S287.77,269.31,286.3,269.9Z" transform="translate(-187.76 -215.81)"/><path class="cls-12" d="M281.74,273.69c-1.23.68-.85,1.37.38.69S283,273,281.74,273.69Z" transform="translate(-187.76 -215.81)"/><path class="cls-12" d="M294.56,265.27c-1.25.73-.74,1.61.51.88S295.8,264.54,294.56,265.27Z" transform="translate(-187.76 -215.81)"/><path class="cls-12" d="M290.38,267.47c-1.14.71-.74,1.36.4.64S291.53,266.76,290.38,267.47Z" transform="translate(-187.76 -215.81)"/><path class="cls-12" d="M296.24,267.83c-1.35.52-1.07,1.23.27.71S297.58,267.3,296.24,267.83Z" transform="translate(-187.76 -215.81)"/><path class="cls-12" d="M301.66,261.17c-.9.91-.28,1.53.62.61S302.56,260.26,301.66,261.17Z" transform="translate(-187.76 -215.81)"/><path class="cls-12" d="M306.83,249.22c-.73.95-.17,1.39.57.43S307.56,248.26,306.83,249.22Z" transform="translate(-187.76 -215.81)"/><path class="cls-12" d="M307.45,255.5c-.7,1.18-.08,1.55.63.37S308.16,254.31,307.45,255.5Z" transform="translate(-187.76 -215.81)"/><path class="cls-12" d="M304.77,252.61c-.83,1-.18,1.53.65.55S305.6,251.63,304.77,252.61Z" transform="translate(-187.76 -215.81)"/><path class="cls-12" d="M315.19,239.32c-.57.77,0,1.19.56.42S315.76,238.56,315.19,239.32Z" transform="translate(-187.76 -215.81)"/></g><path class="cls-17" d="M236.22,309.51s37.24,29.83,75.9,29.83c32.62,0,41.79-33.49,43.86-43.95q.64-3.3,1.46-6.56c2.32-9.29,3.07-18.73,3.89-28.34.73-8.58,2.75-18.22-.14-26.34" transform="translate(-187.76 -215.81)"/><path class="cls-17" d="M388,218.29a0,0,0,0,0,0,0c-11,3.16-22.9,7.65-32.82,13.36,8.76-6.87,20.12-12.06,30.79-15.23,0,0,0-.08,0-.07-10.37.77-19.53,4.9-29,9.24" transform="translate(-187.76 -215.81)"/><path class="cls-3" d="M357.67,225.94a12.46,12.46,0,0,0-7.82-3.13c-10.79-.74-31.05-.37-48,32.23a21.48,21.48,0,0,1-8,8.48l-51.57,31.07a9.31,9.31,0,0,1-4.53,1.35l-49.37,1.82a.17.17,0,0,0,0,.34l48.45,11.41" transform="translate(-187.76 -215.81)"/><path class="cls-3" d="M321.7,275.6l1.94-12.5a36.07,36.07,0,0,1,8.29-18.46h0a9.78,9.78,0,0,1,7-3.36h0a19.17,19.17,0,0,0,7.33-2.84,83.61,83.61,0,0,0,9.1-7" transform="translate(-187.76 -215.81)"/><path class="cls-3" d="M316.74,273.51a11.84,11.84,0,0,1,11.12,9.78c1.32,7.22,1.67,14.58-1.59,21s-9.45,10.53-16.14,12.64-13.83,2.26-20.84,2a198.92,198.92,0,0,1-51.47-9.11,1,1,0,0,1-.17-1.84c20.07-11,41.78-21.78,62.6-31.24A38.23,38.23,0,0,1,316.74,273.51Z" transform="translate(-187.76 -215.81)"/><path class="cls-18" d="M361.5,234.22c8.17-6.8,17.76-9.22,26.24-15.62" transform="translate(-187.76 -215.81)"/><path class="cls-14" d="M329.78,297.54c.87.43,1.52.76,2.11,1a12.54,12.54,0,0,0,1.53.6,11.31,11.31,0,0,0,1.58.4c.32.1.66.09,1.05.2a8.8,8.8,0,0,1,1.28.26,4.36,4.36,0,0,1-.8,1.13,4.15,4.15,0,0,1-6.31-.93A3.52,3.52,0,0,1,329.78,297.54Z" transform="translate(-187.76 -215.81)"/><path class="cls-3" d="M337.57,300.05a0,0,0,0,1,0,.05,5.17,5.17,0,0,1-4.65.68,5,5,0,0,1-3.17-3.39,0,0,0,0,1,.05,0C332,299.4,334.51,300.75,337.57,300.05Z" transform="translate(-187.76 -215.81)"/><path class="cls-14" d="M341.51,308.49c.87.43,1.52.76,2.11,1a12.54,12.54,0,0,0,1.53.6,12.91,12.91,0,0,0,1.58.4c.32.1.66.09,1,.2a8.8,8.8,0,0,1,1.28.26,4.36,4.36,0,0,1-.8,1.13,4.11,4.11,0,0,1-4,.86,4.18,4.18,0,0,1-2.27-1.79A3.52,3.52,0,0,1,341.51,308.49Z" transform="translate(-187.76 -215.81)"/><path class="cls-3" d="M349.3,311a0,0,0,0,1,0,.05,5.17,5.17,0,0,1-4.65.68,5,5,0,0,1-3.17-3.39s0-.06.05,0C343.7,310.34,346.24,311.7,349.3,311Z" transform="translate(-187.76 -215.81)"/><path class="cls-14" d="M325.09,311.62c.87.42,1.52.76,2.1,1a11.51,11.51,0,0,0,1.54.59,11.22,11.22,0,0,0,1.58.41c.31.09.66.09,1,.2a10,10,0,0,1,1.29.25,4.09,4.09,0,0,1-7.11.21A3.47,3.47,0,0,1,325.09,311.62Z" transform="translate(-187.76 -215.81)"/><path class="cls-3" d="M332.88,314.12a0,0,0,0,1,0,.06,5.15,5.15,0,0,1-4.64.67,5,5,0,0,1-3.18-3.39s0,0,.06,0C327.27,313.47,329.82,314.83,332.88,314.12Z" transform="translate(-187.76 -215.81)"/><path class="cls-14" d="M332.91,321.39c.87.43,1.52.76,2.11,1a11.1,11.1,0,0,0,1.53.6,12.78,12.78,0,0,0,1.58.41c.31.09.66.09,1,.19a10.14,10.14,0,0,1,1.29.26,4.16,4.16,0,0,1-.81,1.13,4,4,0,0,1-4,.86,4.14,4.14,0,0,1-2.27-1.79A3.47,3.47,0,0,1,332.91,321.39Z" transform="translate(-187.76 -215.81)"/><path class="cls-3" d="M340.7,323.9s.05,0,0,.06a5.15,5.15,0,0,1-4.64.67,5,5,0,0,1-3.18-3.39s0-.05.06,0C335.1,323.25,337.64,324.6,340.7,323.9Z" transform="translate(-187.76 -215.81)"/><path class="cls-14" d="M313,321.57c.87.42,1.52.76,2.1,1a11,11,0,0,0,1.54.59,10.87,10.87,0,0,0,1.58.41c.31.09.66.09,1,.2a10,10,0,0,1,1.29.25,4.07,4.07,0,0,1-.81,1.14,4.19,4.19,0,0,1-1.15.74,4.18,4.18,0,0,1-5.15-1.67A3.47,3.47,0,0,1,313,321.57Z" transform="translate(-187.76 -215.81)"/><path class="cls-3" d="M320.75,324.07s.06,0,0,.06a5.15,5.15,0,0,1-4.64.67,5,5,0,0,1-3.18-3.39,0,0,0,0,1,.06,0C315.15,323.42,317.7,324.78,320.75,324.07Z" transform="translate(-187.76 -215.81)"/><path class="cls-14" d="M322.36,330.56c.86.43,1.51.76,2.1,1a12.54,12.54,0,0,0,1.53.6,11.31,11.31,0,0,0,1.58.4c.32.1.66.09,1.05.2a8.54,8.54,0,0,1,1.28.26,4.36,4.36,0,0,1-.8,1.13,4.11,4.11,0,0,1-4,.86,4.18,4.18,0,0,1-2.27-1.79A3.47,3.47,0,0,1,322.36,330.56Z" transform="translate(-187.76 -215.81)"/><path class="cls-3" d="M330.14,333.07a0,0,0,0,1,0,.05,5.17,5.17,0,0,1-4.65.68,5,5,0,0,1-3.17-3.39,0,0,0,0,1,0,0C324.54,332.42,327.08,333.77,330.14,333.07Z" transform="translate(-187.76 -215.81)"/><path class="cls-14" d="M305.64,331.17c.87.43,1.52.77,2.1,1a13.06,13.06,0,0,0,1.54.59,12.33,12.33,0,0,0,1.58.41c.31.09.66.09,1,.19a12.26,12.26,0,0,1,1.29.26,4.08,4.08,0,0,1-7.11.2A3.46,3.46,0,0,1,305.64,331.17Z" transform="translate(-187.76 -215.81)"/><path class="cls-3" d="M313.42,333.68a0,0,0,0,1,0,.06,5.15,5.15,0,0,1-4.64.67,5,5,0,0,1-3.18-3.39s0,0,.06,0C307.82,333,310.37,334.39,313.42,333.68Z" transform="translate(-187.76 -215.81)"/><path class="cls-14" d="M295.87,321.79c.87.43,1.51.76,2.1,1a12.91,12.91,0,0,0,3.12,1c.31.1.65.09,1,.2a8.3,8.3,0,0,1,1.28.26,4.36,4.36,0,0,1-.8,1.13,4.19,4.19,0,0,1-1.15.74,4.09,4.09,0,0,1-2.89.12,4.18,4.18,0,0,1-2.27-1.79A3.47,3.47,0,0,1,295.87,321.79Z" transform="translate(-187.76 -215.81)"/><path class="cls-3" d="M303.65,324.3s.06,0,0,.05A5.17,5.17,0,0,1,299,325a5,5,0,0,1-3.17-3.39,0,0,0,0,1,.05,0C298.05,323.65,300.6,325,303.65,324.3Z" transform="translate(-187.76 -215.81)"/><path class="cls-3" d="M303.08,339.18s1,11.57,1.76,12,4.69.41,7.82-1.65c0,0,2.29-1.38,5.37,1.22a4.4,4.4,0,0,0,2.26,1c1.94.24,5.35.65,6.45.65.94,0,1.46,1.5,1.72,2.69a.32.32,0,0,1-.53.32,3.32,3.32,0,0,0-2.37-1,46.59,46.59,0,0,1-7.43-1.24s-8.21-1.65-10.16.83a30.37,30.37,0,0,0,7.82,1.65c2.89,0,8.11,0,9.51,4.56.05.18-.17.32-.28.16-.77-1.05-2.53-2.42-6.33-1.8a7.83,7.83,0,0,1-3.66-.25c-3.51-1.14-11-3.46-16-4.13a9.75,9.75,0,0,1-4.3-1.71c-2-1.4-5.1-3-7.21-1.57-.15.11-.32-.08-.22-.24a4.18,4.18,0,0,1,5-2,72.47,72.47,0,0,1,9.38,4.13l-1.56-13.63Z" transform="translate(-187.76 -215.81)"/></svg>