<svg id="Layer_1" data-name="Layer 1" xmlns="http://www.w3.org/2000/svg" viewBox="0 0 118.68 121.89"><defs><style>.cls-1{fill:#020000;}</style></defs><title>chipmunk_prints</title><path class="cls-1" d="M323.27,334.89a7.76,7.76,0,0,1-5.51-3.22c-3.88-5.27-6.27-5.54-11.33-1.52-.73.57-1.44,1.16-2.22,1.66-2.93,1.89-6,1.44-7.88-1.12s-1.44-5.69,1.48-7.78a9.91,9.91,0,0,0,4.31-6c.82-3.33,5.42-4.64,8.67-2.67,2.17,1.31,4.11,2.74,5.63-.7a.71.71,0,0,1,1.25-.16c1.09,2,3,1.33,4.65,1.56,3,.43,3.78,1.5,2.56,4.35-1,2.32-1.3,3.76,1.6,4.93,2.16.88,2.92,4.73,2.13,7.43C327.93,334,326.4,335,323.27,334.89Z" transform="translate(-228.91 -227.47)"/><path class="cls-1" d="M254.11,263.75a6.69,6.69,0,0,0,3.86-.35c1.64-.49,3.48,0,3.89,1.56.62,2.48,2.64,3.87,3.73,5.92.38.72.84,1.41,1.16,2.16.77,1.84.88,3.71-.88,5a3.63,3.63,0,0,1-5.05-.69c-2.57-3.22-4.88-1.8-7.46-.3-1.88,1.09-3.88,2.92-6,.51-1.8-2.05-1.11-5,1.57-7.22,1.21-1,2.47-2.1,2.55-3.69C251.6,264.19,252.66,263.34,254.11,263.75Z" transform="translate(-228.91 -227.47)"/><path class="cls-1" d="M249.87,247.4c.77-2.67-.48-4.27-.89-6-.59-2.53-.48-4.72,2.2-6,2.08-1,3.59.09,4.79,1.6,1.8,2.25,1.92,5.5,0,7-1.36,1-1.35,2-1.11,3.4a6.28,6.28,0,0,1-.25,3.63,2.54,2.54,0,0,1-2.7,1.61c-1.19-.08-1.34-1-1.4-2C250.45,249.29,249.67,248.06,249.87,247.4Z" transform="translate(-228.91 -227.47)"/><path class="cls-1" d="M306.29,285.11a4.41,4.41,0,0,1-.54,2.55c-.93,1.25-1.27,2.24.84,2.81,1.5.41.47,1.72,0,2.2-1,1-1,3.73-2.7,3.07-1.46-.56-2.79-2.54-3.3-4.17A5.55,5.55,0,0,0,299,289a4.87,4.87,0,0,1-1.18-5.38,5,5,0,0,1,4.27-3.51C304.46,279.8,306.25,282,306.29,285.11Z" transform="translate(-228.91 -227.47)"/><path class="cls-1" d="M284.63,306.74a13.67,13.67,0,0,1,.5-2c.74-1.92,1.5-4.18,4.1-3.73,3.62.63,5.72,3.46,5,6.42-.27,1.18-.73,2.07.91,2.56.95.29,1,1.16.61,2a3.13,3.13,0,0,1-2.63,1.84,1.19,1.19,0,0,1-1.52-1.11c-.31-2.3-1.77-2.3-3.6-2.06C285.37,311.05,284.43,310,284.63,306.74Z" transform="translate(-228.91 -227.47)"/><path class="cls-1" d="M313.72,292.15a5.35,5.35,0,0,0-1-4.32,3.71,3.71,0,0,1-1-2.19c0-2.09.32-4.15,2.11-5.5a3.23,3.23,0,0,1,3.75.09c1.91,1.18,2.26,3.14,2,5.12a24.57,24.57,0,0,1-2.95,9.27c-.42.73-.68,2-1.85,1.71s-.63-1.54-.87-2.35A8.81,8.81,0,0,1,313.72,292.15Z" transform="translate(-228.91 -227.47)"/><path class="cls-1" d="M321.69,291c.39-1.68.38-3.35,1.36-4.75,1.41-2,3.3-2.79,5.57-1.76s2.79,3.16,1.93,5.4a12.82,12.82,0,0,1-2.2,3.62c-1.14,1.34-2.47,3.52-4.27,2.73S322,292.94,321.69,291Z" transform="translate(-228.91 -227.47)"/><path class="cls-1" d="M260.75,242.67c0-.21.05-.41.07-.62.25-2.1.75-4.08,2.86-5.11a2.35,2.35,0,0,1,3,.91c1.41,1.87,2.19,4,1.35,6.33-.65,1.84-2.28,3.12-2.92,5-.23.7-1.37,1.06-1.7.21C262.54,247.15,260.38,245.39,260.75,242.67Z" transform="translate(-228.91 -227.47)"/><path class="cls-1" d="M269.87,265.69c1.38-1.92,1.8-4.3,2.66-6.36,1.11-2.68,3.56-1.09,4.83-2.72.47-.6,2,1.36,2.73,2.4,1.1,1.5.29,2.86-.58,4.19-1.5,2.31-3.12,4.1-6.17,2.33C272.26,264.91,271.24,266.24,269.87,265.69Z" transform="translate(-228.91 -227.47)"/><path class="cls-1" d="M243.79,267a57.21,57.21,0,0,0-6-1.76c-2.24-.58-3.85-4.2-3-6.05,1.07-2.36,3.24-2.73,5.44-2.22,2.73.64,3.37,2.76,2.85,5.26-.18.84-.45,1.47.53,2,1.34.78.3,1.84.17,2.79Z" transform="translate(-228.91 -227.47)"/><path class="cls-1" d="M336,318.76c-1.16-.21-2.75-.18-2.73-2.26,0-2.55,2.54-5.8,4.5-5.8s4.16,2,4.14,3.78C341.92,316.44,338.88,318.73,336,318.76Z" transform="translate(-228.91 -227.47)"/><path class="cls-1" d="M251.32,296c-1.26-.17-2.9-.15-3-2.12-.15-2.32,2.78-5.8,4.76-5.71,2.29.12,3.24,2.13,3.76,3.74S253.83,296,251.32,296Z" transform="translate(-228.91 -227.47)"/><path class="cls-1" d="M308.1,338.47c3.42.18,6.71-.68,10-1.3,1-.2,2.49-.65,2.79.36.45,1.5-1.31,1.45-2.24,1.8-3.11,1.18-6.43,1.24-9.68,1.65-1.2.15-2.43-.08-3.59.59s-2,.12-2.31-1.09c-.37-1.54.57-2,1.91-2Z" transform="translate(-228.91 -227.47)"/><path class="cls-1" d="M270,291.15c0,2-1.05,3.2-3.17,3.18s-4.22-.4-4.64-3c-.26-1.62,2.22-4.12,4-3.95A3.8,3.8,0,0,1,270,291.15Z" transform="translate(-228.91 -227.47)"/><path class="cls-1" d="M308.75,349.36c-.85-.2-2,0-2.5-1.19-.27-.66.17-1.16.55-1.64.9-1.11,1.62-.13,2.39.22a5.14,5.14,0,0,0,5.2-.56c.63-.4,1.69-1,2.11,0s-.76,1.31-1.44,1.61A19,19,0,0,1,308.75,349.36Z" transform="translate(-228.91 -227.47)"/><path class="cls-1" d="M255.14,257.58a4.19,4.19,0,0,0-1.22,3.1c0,.8-1.24.9-2.07.46s-1.27-1.26-.66-1.73c1.62-1.26,1.2-2.47.36-3.87-.49-.81-.44-1.64.53-2a1.11,1.11,0,0,1,1.6.93C253.88,255.59,255.59,255.85,255.14,257.58Z" transform="translate(-228.91 -227.47)"/><path class="cls-1" d="M263,257.69c-.8,0-1.44-.51-1.28-.86.75-1.71-.43-3.48.22-5.09.25-.63,1.25-.53,1.95-.29a1.6,1.6,0,0,1,.87,2.49C264,255.16,264.74,257.15,263,257.69Z" transform="translate(-228.91 -227.47)"/><path class="cls-1" d="M284,252.09a1.94,1.94,0,0,1,1.72,2.17c0,1.06-.54,2.15-1.75,2.14s-1.9-1-1.84-2.33A1.8,1.8,0,0,1,284,252.09Z" transform="translate(-228.91 -227.47)"/><path class="cls-1" d="M273.41,279.82a2.73,2.73,0,0,1,1.88,2.75c0,1.1-.86,1.32-1.7,1.31-1.43,0-2-.91-1.9-2.22C271.77,280.71,272.06,279.83,273.41,279.82Z" transform="translate(-228.91 -227.47)"/><path class="cls-1" d="M301.72,274.54c-.22.93-.61,1.7-1.74,1.73a1.62,1.62,0,0,1-1.86-1.57,1.67,1.67,0,0,1,1.82-1.93A1.81,1.81,0,0,1,301.72,274.54Z" transform="translate(-228.91 -227.47)"/><path class="cls-1" d="M326.24,299.2a2.4,2.4,0,0,1-2.58,1.71c-.94,0-1.64-.62-1.5-1.51.19-1.21,1.36-1.4,2.36-1.48A1.45,1.45,0,0,1,326.24,299.2Z" transform="translate(-228.91 -227.47)"/><path class="cls-1" d="M255,229.22c-.06,1.18-.69,1.84-1.7,1.78a1.57,1.57,0,0,1-1.51-1.87c.06-1.08.62-1.71,1.69-1.66A1.53,1.53,0,0,1,255,229.22Z" transform="translate(-228.91 -227.47)"/><path class="cls-1" d="M317.21,271.21c1,0,1.43.62,1.42,1.57a1.33,1.33,0,0,1-1.35,1.37,1.44,1.44,0,0,1-1.61-1.46A1.35,1.35,0,0,1,317.21,271.21Z" transform="translate(-228.91 -227.47)"/><path class="cls-1" d="M328.26,276.16c-.22.85-.63,1.46-1.62,1.4a1.34,1.34,0,0,1-1.4-1.57c.05-1,.56-1.76,1.69-1.58C327.85,274.55,328.18,275.29,328.26,276.16Z" transform="translate(-228.91 -227.47)"/><path class="cls-1" d="M243.73,267c.46.67.85,0,1.25-.09,1.21-.21,1.72.5,1.83,1.48a1.47,1.47,0,0,1-1.24,1.78c-1.21.15-1.47-.78-1.62-1.73-.07-.5.8-1.09-.15-1.49Z" transform="translate(-228.91 -227.47)"/><path class="cls-1" d="M230.28,251.34c1.09.19,1.3.92,1.27,1.81s-.48,1.61-1.48,1.54-1.18-.94-1.16-1.8S229.29,251.32,230.28,251.34Z" transform="translate(-228.91 -227.47)"/><path class="cls-1" d="M283.14,300.35c-.91,0-1.68-.28-1.7-1.33s.79-1.32,1.68-1.33,1.72.26,1.7,1.31S284.09,300.38,283.14,300.35Z" transform="translate(-228.91 -227.47)"/><path class="cls-1" d="M313.22,304.67a1.56,1.56,0,0,1-1.51-1.67,1.41,1.41,0,0,1,1.48-1.54,1.45,1.45,0,0,1,1.55,1.76A1.52,1.52,0,0,1,313.22,304.67Z" transform="translate(-228.91 -227.47)"/><path class="cls-1" d="M324,302.8a1.57,1.57,0,0,1-1.43,1.67,1.39,1.39,0,0,1-1.39-1.35,1.34,1.34,0,0,1,1.37-1.6C323.36,301.49,323.75,302.09,324,302.8Z" transform="translate(-228.91 -227.47)"/><path class="cls-1" d="M305.09,302.24c-.91.08-1.77-.25-1.89-1.12-.15-1.13.74-1.52,1.77-1.53.88,0,1.69.3,1.74,1.27S306,302.16,305.09,302.24Z" transform="translate(-228.91 -227.47)"/><path class="cls-1" d="M266.21,232.4c-.89,0-1.62-.39-1.59-1.39,0-.85.72-1.14,1.51-1.12s1.69.33,1.64,1.32C267.73,232,267,232.32,266.21,232.4Z" transform="translate(-228.91 -227.47)"/><path class="cls-1" d="M347.58,308.17c0,.82-.31,1.38-1.19,1.43a1.18,1.18,0,0,1-1.41-1.21,1.15,1.15,0,0,1,1.19-1.41C347,306.94,347.55,307.25,347.58,308.17Z" transform="translate(-228.91 -227.47)"/><path class="cls-1" d="M262.45,261.18c-.07.91-.7,1.15-1.45,1.12s-1.36-.44-1.29-1.31a1.24,1.24,0,0,1,1.47-1.15C261.92,259.9,262.51,260.28,262.45,261.18Z" transform="translate(-228.91 -227.47)"/></svg>