<svg id="Layer_1" data-name="Layer 1" xmlns="http://www.w3.org/2000/svg" viewBox="0 0 245.63 145.95"><defs><style>.cls-1{fill:#ad8d79;}.cls-2{fill:#92511d;}.cls-3{fill:#c1732c;}.cls-4{fill:#faecd4;}.cls-5{fill:#1a1a1a;}.cls-6{fill:#fff;}.cls-7{fill:#020202;}.cls-8{fill:none;stroke:#000;stroke-miterlimit:10;}.cls-9{fill:#c06823;}</style></defs><title>chipmunk</title><path class="cls-1" d="M323.24,337.44c.56,5.13,17.36-1.67,21.26,6.6a4.09,4.09,0,0,1-4.75-1,5.57,5.57,0,0,1,2.5,5c-3.13-.4-4.13-4.45-8.14-4.43a11.4,11.4,0,0,1,3.11,4.4c-3.06,0-5.8-1.56-8.93-1.85-2.86-.27-6.42,1.48-9,.84-9.17-2.3-.36-8.69,3.93-10.11" transform="translate(-164.38 -217.34)"/><path class="cls-2" d="M367.35,286.81a16,16,0,0,0,8.24,7.29c1.78.74,7.64,1.52,7.68,3.7.08,3.88-7.6,5-9.66,5-2.91,0-5.1.42-7.2-1.55-1.51-1.41-3.75-3.73-4.3-5.68C361,291.78,364.1,289.11,367.35,286.81Z" transform="translate(-164.38 -217.34)"/><path class="cls-3" d="M285.7,342.25c15.23,3.12,30.68,5.44,42.12-8.05,4.79-5.66,6-11.67,10.67-17.41,4.51-5.57,9.88-10.32,14.79-15.54s9.77-9.49,14.22-15c5.65-7,10.24-6.4,18.1-9.19,6-2.15,14.12-5.06,19.35-9.47,7.71-6.5,4.76-9.9-1.31-15.18-12.95-11.28-23-22.2-41.45-21.08.13-10.11-17.26-20.49-15.95-7.49-6.21-1-11.52-1.11-13.41,6.85-1.36,5.71.54,9.33,4.62,13.48-8.59,8.62-17.55,1.36-27.79,1.5-10,.13-19.53,5.18-27.15,11.8-15.08,13.09-18,38-11.81,56.37C272.77,320,278.11,343.73,285.7,342.25Z" transform="translate(-164.38 -217.34)"/><path class="cls-3" d="M278,331.74c4.7,9.8-36,11.23-41.81,11.23-18.13,0-35.28-1.5-53.29-1.5-7.08,0-16.86-1-15.73,9,1.06,9.29,10.92,6.34,18,7.11,21.52,2.36,44,7.63,65.91,1.79,9.31-2.47,15.42-7.32,23.55-11.55,6.09-3.17,15.15-3.79,19.8-8.44C289.35,337.25,281.15,338.23,278,331.74Z" transform="translate(-164.38 -217.34)"/><path class="cls-4" d="M408.51,264.83c-7.29-2.3-28.82-1.72-35.72,1.83-4.7,2.42-13.12,9.88-13.2,14.85-.07,4.31.07,0,.07.08-.14,4.73-1.32,2.59,2.86,9.73-1.5,1.5,2.33-1.9,2.81-2.33a12.76,12.76,0,0,1,3.39-2.18C379.26,282.09,410,274.27,408.51,264.83Z" transform="translate(-164.38 -217.34)"/><path class="cls-4" d="M333.53,308.32c1.5,3,.91,11.54.5,15.49,2.3-2.69,4.3-5.62,6.36-8.48.78-1.09,1.57-2.17,2.37-3.23a16.83,16.83,0,0,1,2.48-2.65c.54-.46.92-1.08,1.44-1.56a24.77,24.77,0,0,0,1.92-1.61c.9-1,1.92-2,2.93-3a4.22,4.22,0,0,0,.89-1.23,3,3,0,0,0-.07-1.73,12.41,12.41,0,0,0-2.59-4,6.62,6.62,0,0,0-1.87-1.71c-1-.55-1.58-.09-2.31.66s-1.21,1.19-1.85,1.75c-1.26,1.13-2.58,2.2-3.86,3.31a22.64,22.64,0,0,0-6.34,7.94" transform="translate(-164.38 -217.34)"/><path class="cls-2" d="M346,223.84c5.91-1.35,10.25,9.2,9.87,14.08,3.05-.69,5.47-1.86,8.93-1.38,4.39.6,9.45,2.44,13.59,3.85,8.29,2.82,16.84,6.2,22.74,12.72,1.73,1.91,3.42,4,5.07,5.82-.05-.05,2.17-1.49,2.22-1.77.12-.73-1.08-1.68-1.54-2.15-1.5-1.57-1.9-1.68-4.62-4.6a72.68,72.68,0,0,0-8-7.08c-6.76-5.49-12.16-9-19.42-11.73a37.32,37.32,0,0,0-10.61-2.17c-2.43-.16-2.26-.38-3.23-2.59a29.92,29.92,0,0,0-2.72-4.8c-2-3-4.82-4.87-8.42-4.69S346,220.34,346,223.84Z" transform="translate(-164.38 -217.34)"/><path class="cls-5" d="M408.29,257c-2.32-.25-3.61,1.28-3.19,3.56.18.93,1.16,3.83,2.15,4.13C410.46,265.68,411,257.51,408.29,257Z" transform="translate(-164.38 -217.34)"/><path class="cls-4" d="M377,260.83c-9.65.57-12.67-14.07-4.9-18.15,6.69-3.51,20,2.83,17.66,11.77-1.29,4.86-7.23,6.46-11.26,6.38" transform="translate(-164.38 -217.34)"/><circle class="cls-6" cx="376.96" cy="249.54" r="7.13" transform="translate(-175.2 -200.18) rotate(-2.57)"/><circle class="cls-7" cx="213.16" cy="32.53" r="5.62"/><circle class="cls-8" cx="377.72" cy="249.97" r="7.27" transform="translate(-175.22 -200.14) rotate(-2.57)"/><circle class="cls-6" cx="213.1" cy="32.34" r="1.55"/><path class="cls-2" d="M375.5,308.24a18,18,0,0,0-.87-1.83c-3.53-6.73-2.26-21,5.94-22.62,10.56-2.05,11.61,28.85,3.55,31.94C379.9,317.34,376.83,311.56,375.5,308.24Z" transform="translate(-164.38 -217.34)"/><path class="cls-2" d="M338,228.51c-2.22,6.16,2.85,13,9.6,13.35a.84.84,0,0,0,.85-.62,8.07,8.07,0,0,0,.41-1.35,14.3,14.3,0,0,0-.33-5.3c-1-3.44-3.07-8.33-7.48-7.71C340,227,338.39,227.46,338,228.51Z" transform="translate(-164.38 -217.34)"/><path class="cls-4" d="M378,285.82s-6.5,10.5.5,27C378.52,312.82,374,293.82,378,285.82Z" transform="translate(-164.38 -217.34)"/><path class="cls-4" d="M384,285.82s6,16,0,28.5C384,314.32,393,299.32,384,285.82Z" transform="translate(-164.38 -217.34)"/><path class="cls-4" d="M380,286.32s-3.5,16,1,28C381,314.32,381,290.32,380,286.32Z" transform="translate(-164.38 -217.34)"/><path class="cls-3" d="M349.87,297.9c2.66,4.08,4.77,9,9.75,10.41,5.6,1.57,7.68-3.95,12.8-4.92,4.36-.82,14.21,4.11,9.63-4.82-3.53-6.89-9.78-2.05-15.3-3.93-2.84-1-4.68-3.55-5.95-6.14a38.74,38.74,0,0,1-1.74-4.28c-.24-.69-.47-1.38-.7-2.07a2.74,2.74,0,0,1-.25-.92c0-.21.32-.5.17-.68s-1.48,0-1.74,0a4.45,4.45,0,0,0-1.79.47,19.27,19.27,0,0,0-5.6,4.6,11.21,11.21,0,0,0-2.6,6.07,4.51,4.51,0,0,0,.18,2.45,11.37,11.37,0,0,0,1.06,1A20.54,20.54,0,0,1,349.87,297.9Z" transform="translate(-164.38 -217.34)"/><path class="cls-9" d="M310.23,304.92a59.37,59.37,0,0,1,6.67,1c8,1.45,16.13,7.72,16.13,16.49a15.56,15.56,0,0,1-1.08,5.4c.81-1,1-2.57,1.62-3.71a6.64,6.64,0,0,0,.95-4c0-4.89,1-11.18-2.86-14.58a17.67,17.67,0,0,0-6.15-3.17c-1.08-.38-2.27-.9-3.32-1.16a18.79,18.79,0,0,0-8.82.2,23.74,23.74,0,0,0-4.55,1.78c-1.12.57-2.48,1.85-3.66,2.15A16.29,16.29,0,0,1,310.23,304.92Z" transform="translate(-164.38 -217.34)"/><path class="cls-5" d="M336.35,247.39a39.09,39.09,0,0,1-17.76,5c-10.5.22-21.73-.25-30.13,7-4.85,4.17-9.48,9-12.41,14.75-2.32,4.54-2.9,9.65-3.28,14.66-.37,4.82.31,9.41.76,14.15a52.93,52.93,0,0,0,1.38,9.45c1,3.56,2.13,4.45,3.26,10.66.63,3.48.17,7.15,1,10.49.73-3,1-6.91,1.84-10.34.67-2.64,1.82-5.06,2.27-7.8.67-4.11.84-8.27,1.53-12.37s1.32-7.55,4.3-10.65a67.9,67.9,0,0,1,11.37-9.23c5.94-4,12.46-7.05,18.45-11a51,51,0,0,0,11.36-10.49,22,22,0,0,0,4.39-8.75C335.19,251.08,335.37,249,336.35,247.39Z" transform="translate(-164.38 -217.34)"/><path class="cls-4" d="M280,321.36c-.7-2.37-.58-5-1-7.48-.61-3.27-.8-6.57-1.12-9.9-.81-8.43-2.18-17.89,1-26,3.39-8.57,12-12.28,20.34-14.68,7.27-2.11,14.75-3.41,22.05-5.27a22,22,0,0,0,8.92-4.29c-1.13,3.19-4.77,5.88-7.51,7.78-6.79,4.71-14.94,7.29-22.14,11.39-8,4.57-15.26,9.86-17.08,19.33-1,5.18-1.72,10.35-2.47,15.48A98.89,98.89,0,0,0,280,321.36Z" transform="translate(-164.38 -217.34)"/><path class="cls-8" d="M406.26,257.87c.05-.72-1.1-1.62-1.54-2.08-1.5-1.57-1.9-1.68-4.62-4.6a72.68,72.68,0,0,0-8-7.08c-6.76-5.49-12.16-9-19.42-11.73a37.66,37.66,0,0,0-10.61-2.17c-1.53-.1-2-.23-2.43-.85a14,14,0,0,0-2.23-4.5q-.6-1-1.29-2c-2-3-4.82-4.87-8.42-4.68s-3.85,3-3.85,6.43c-6.12-.95-11.33-1-13.2,6.88-1.36,5.71.54,9.33,4.62,13.48-8.59,8.62-17.55,1.36-27.79,1.5-10,.14-19.53,5.18-27.15,11.8-15.08,13.09-18,38-11.81,56.37,1.25,3.74,3.72,14,7.16,21.09-4.41,6.95-36.53,8.06-41.68,8.06-18.13,0-35.28-1.49-53.29-1.49-7.08,0-16.86-1-15.73,9,1.06,9.29,10.92,6.34,18,7.11,21.52,2.36,43.95,7.63,65.91,1.79,9.31-2.47,15.42-7.32,23.55-11.55,4.11-2.14,9.57-3.12,14.12-5,9.27,1.8,18.51,2.92,26.78,0-.63,1.64.17,3.2,3.82,4.12,2.56.64,6.12-1.11,9-.84,3.13.29,5.87,1.82,8.93,1.85a11.4,11.4,0,0,0-3.11-4.4c4,0,5,4,8.14,4.43a5.43,5.43,0,0,0-1.78-4.42,3.94,3.94,0,0,0,4,.43c-3.63-7.69-18.42-2.34-20.91-5.7a31,31,0,0,0,4.23-4.14c2.91-3.44,4.51-7,6.36-10.57,2.23-2.64,4.2-5.5,6.21-8.3.78-1.09,1.57-2.16,2.37-3.23.31-.41.62-.77.92-1.12l1-1,.55-.51a7.92,7.92,0,0,0,.84-.9l.94-.95a11.76,11.76,0,0,0,1.58-1.32c.9-1,1.92-2,2.93-3a4.24,4.24,0,0,0,.83-1.12l.11-.11c1.78,2.78,3.83,5.29,7.15,6.22,5.6,1.57,7.68-3.95,12.8-4.92,4.36-.82,14.21,4.11,9.63-4.81-3.53-6.9-9.78-2.06-15.3-3.94a8.78,8.78,0,0,1-4-3c.59-.62,1.17-1.25,1.75-1.88l.85-.76a13,13,0,0,1,3.39-2.18c10.54-4.72,41.26-12.54,39.79-22l-.33-.09C408.28,264.82,408.47,258.56,406.26,257.87Zm-62.21-33.28h0Z" transform="translate(-164.38 -217.34)"/></svg>