<svg id="Layer_1" data-name="Layer 1" xmlns="http://www.w3.org/2000/svg" viewBox="0 0 111.88 182.82"><defs><style>.cls-1{fill:#020202;}</style></defs><title>moose-tracks</title><path class="cls-1" d="M248.29,268.06c5,1.71,13.54,2.5,16.32-10.69,0,0,1-8-2-21s0-29,0-29,2-12-3-8c-4.82,3.85-32.88,36.53-17,64A10.58,10.58,0,0,0,248.29,268.06Z" transform="translate(-237.81 -198.55)"/><path class="cls-1" d="M248.85,284.51c1.91,2,4.17,4.23,7,4.23a2.27,2.27,0,0,0,1.17-.27,2.48,2.48,0,0,0,.95-1.6,7.37,7.37,0,0,0-2.82-7.75C250.77,276.22,244.17,279.54,248.85,284.51Z" transform="translate(-237.81 -198.55)"/><path class="cls-1" d="M272.22,287.8a2.83,2.83,0,0,0,1.59,1,3.15,3.15,0,0,0,1.52-.15c2.6-.77,4.64-2.72,6.59-4.6a5,5,0,0,0,1-1.18c.77-1.54-.5-3.49-2.14-4a8.28,8.28,0,0,0-5.06.47C272.09,280.53,269.26,284.18,272.22,287.8Z" transform="translate(-237.81 -198.55)"/><path class="cls-1" d="M269.11,251.87s-4.25,15.29,10,17.68a9.79,9.79,0,0,0,8.34-2.5c3.68-3.47,8.3-10.9,7.69-26.18-1-25-19.5-40.5-19.5-40.5s-4-5-5,4S276.61,223.37,269.11,251.87Z" transform="translate(-237.81 -198.55)"/><path class="cls-1" d="M301.75,359.45c4.9,1.92,13.42,3.08,16.77-10,0,0,1.34-8-1.1-21.07s1.24-29,1.24-29,2.52-11.9-2.65-8.12c-5,3.64-34.42,35.08-19.69,63.17A10.53,10.53,0,0,0,301.75,359.45Z" transform="translate(-237.81 -198.55)"/><path class="cls-1" d="M301.6,375.91c1.83,2.12,4,4.41,6.78,4.52a2.3,2.3,0,0,0,1.19-.21,2.53,2.53,0,0,0,1-1.56,7.39,7.39,0,0,0-2.49-7.87C303.88,367.71,297.14,370.74,301.6,375.91Z" transform="translate(-237.81 -198.55)"/><path class="cls-1" d="M324.82,380.2a2.77,2.77,0,0,0,1.54,1.11,3.14,3.14,0,0,0,1.52-.09c2.63-.66,4.76-2.52,6.78-4.31a4.61,4.61,0,0,0,1-1.14c.84-1.51-.35-3.5-2-4.11a8.21,8.21,0,0,0-5.08.24C325,372.93,322,376.45,324.82,380.2Z" transform="translate(-237.81 -198.55)"/><path class="cls-1" d="M323.25,344.17s-4.9,15.09,9.2,18.09a9.79,9.79,0,0,0,8.44-2.14c3.83-3.31,8.76-10.54,8.81-25.83.07-25-17.75-41.3-17.75-41.3s-3.78-5.16-5.17,3.78S332,316,323.25,344.17Z" transform="translate(-237.81 -198.55)"/></svg>