<svg id="Layer_1" data-name="Layer 1" xmlns="http://www.w3.org/2000/svg" viewBox="0 0 344.86 298.21"><defs><style>.cls-1{fill:#000205;}.cls-2{fill:#7c533c;}.cls-3{fill:#946d4f;}.cls-4{fill:#c29c81;}.cls-5{fill:#fff;}.cls-6{fill:#020202;}.cls-7,.cls-8{fill:none;stroke:#000;stroke-miterlimit:10;}.cls-7{stroke-width:0.5px;}</style></defs><title>moose</title><path class="cls-1" d="M129.6,424.61A29.53,29.53,0,0,1,131,435.18l15.34,0L144,426.11a2.83,2.83,0,0,0-1-1.82,4.54,4.54,0,0,0-2.88-.37l-10.18.89" transform="translate(-116.02 -139.29)"/><path class="cls-1" d="M211.62,427.14l8.65-.89a3.39,3.39,0,0,1,2.44.36,3.07,3.07,0,0,1,.88,1.83l2,9.05h-13c.07-2.91,0-6.18-1.62-8.63A4.3,4.3,0,0,1,210,427,2.75,2.75,0,0,0,211.62,427.14Z" transform="translate(-116.02 -139.29)"/><path class="cls-1" d="M302.6,426.48c1,3.66,2.46,7.25,2.3,11h13.7l-2.11-9.62a3.26,3.26,0,0,0-.93-1.94,3.57,3.57,0,0,0-2.57-.39" transform="translate(-116.02 -139.29)"/><path class="cls-1" d="M375.6,426.93a32.68,32.68,0,0,1,1.27,10.57H390.6l-2.12-9.05a2.92,2.92,0,0,0-.93-1.83,3.72,3.72,0,0,0-2.57-.36l-9.11.89" transform="translate(-116.02 -139.29)"/><path class="cls-2" d="M136.19,381.64c5.23-16.53,18.56-29,31.37-40.69.92-.84,2.06-1.75,3.28-1.45,2,.47,1.93,3.3,1.33,5.24-2.36,7.5-6.29,15.31-4,22.83,1.85,6.09,7.29,10.22,11.9,14.59a72.21,72.21,0,0,1,15.81,22.07c2.87,6.22,4.92,13,9.32,18.23s12.17,8.58,18.2,5.33A206.81,206.81,0,0,1,195,388.16c-2.27-4.12-4.44-8.43-4.94-13.11-.53-5,.87-10,2.26-14.77l8.12-28.12c1.1-3.82,2.52-8.05,6.05-9.88,2.3-1.19,5-1.09,7.62-.94a773.39,773.39,0,0,1,78.17,8.4c1.71.28,3.53.61,4.76,1.84s1.6,3.24,1.83,5.05a451.27,451.27,0,0,1,2.6,83.47c-.13,2.18-.17,4.68,1.43,6.18,3.21,3,8.5-1.24,12.77-.1-10-8.56-7.78-24.28-4.71-37.07l10.56-44c26,15.48,45.95,42.45,50.11,72.38.39,2.8,2.21,5.81,4,8,3.53,4.32,7.18,3.84,12.55,2.31A51.44,51.44,0,0,1,373.5,402.2c-2.07-9-1.7-18.42-4.33-27.25-3.2-10.71-10.54-19.61-16.21-29.26-4.18-7.11-7.54-15.83-4.35-23.44,2.63-6.29,9.11-10.19,12.33-16.19,1.8-3.36,2.55-7.32,5-10.23,2.31-2.73,5.78-4.13,9.11-5.43l31-12.13a71.43,71.43,0,0,1-.41,12.15l1,13.84,2.16-5.61a27.78,27.78,0,0,0,2.26,17.13c-1.77-15.27,8.86-31,23.69-35.1,3.45,6.66,13.37,8.24,19.45,3.85s8-13.14,5.62-20.24-8.53-12.51-15.42-15.5c-4.81-2.09-10.26-3.26-14-6.94-3.33-3.27-4.78-8-8-11.45-5-5.31-12.94-6.18-20.19-6.73l-33.87-2.55a4.33,4.33,0,0,0-1.83.12c-2.27.83-1.43,4.56.71,5.68s4.73.78,7.07,1.37,4.66,3.09,3.47,5.2c-16.74-3.67-32.31-11.3-48.61-16.6s-34.31-8.21-50.39-2.3c-9.57,3.52-17.87,10-27.48,13.36-6.85,2.43-14.16,3.23-21.39,4l-36.82,4c-18.3,2-37.75,4.47-52,16.18-6.33,5.23-11.47,12.73-11.29,20.94l7-2.37c-4.12,12.4.42,25.84,5,38.09,3.26,8.76,4.08,18.37-2.92,25.72-3.22,3.37-7.34,5.7-11.38,8a16.4,16.4,0,0,0-5,3.81,13.16,13.16,0,0,0-2.2,5.35c-3.19,14.62,3.34,29.58,3.26,44.55,0,5.54-.92,11.36,1.34,16.43,1,2.19,2.5,4.11,3.37,6.35,1.74,4.45-.88,6.53,4.76,7.47,2,.34,8.61.31,9-2.64.31-2.5-5.28-10.42-6.14-13.42A50.18,50.18,0,0,1,136.19,381.64Z" transform="translate(-116.02 -139.29)"/><path class="cls-3" d="M321.45,345.47a102,102,0,0,1,34.8,34.89c6,9.9,8.25,21.33,12.23,32.06,1.65,4.45,3.59,10.38,6.53,14.15,3.24,4.15,7.77,3.09,12.51,1.75a.43.43,0,0,0,.23-.67c-7.31-10.34-12.08-15.53-14.29-25.09-2.07-9-1.7-18.42-4.33-27.24-3.2-10.72-10.53-19.62-16.21-29.26-4.18-7.11-7.54-15.83-4.35-23.45,2.63-6.28,9.11-10.18,12.33-16.19,1.8-3.36,2.55-7.31,5-10.22,2.3-2.74,5.78-4.14,9.11-5.44l31-12.12a71.5,71.5,0,0,1-.42,12.15l1,13.83,2.15-5.6a27.81,27.81,0,0,0,2.27,17.13c-1.78-15.27,8.86-31,23.68-35.1,3.45,6.66,13.37,8.24,19.46,3.85s8-13.15,5.61-20.24-8.53-12.51-15.41-15.5c-4.82-2.09-10.27-3.26-14-6.95-3.33-3.27-4.78-8.05-8-11.45-5-5.3-12.94-6.18-20.19-6.72l-33.87-2.56c-1.06-.08-2.18-.15-3,1.08a3.09,3.09,0,0,0,.64,3.88c2.32,2.13,5.48,1.51,8.28,2.22,2.34.59,4.65,3.09,3.47,5.19-16.74-3.66-32.32-11.29-48.62-16.6s-34.3-8.2-50.39-2.29c-9.57,3.52-17.86,9.95-27.47,13.36-6.86,2.42-14.17,3.23-21.4,4l-36.82,4c-18.3,2-37.75,4.46-52,16.18-6.33,5.22-11.47,12.73-11.29,20.94l7-2.38c-4.12,12.41.43,25.84,5,38.09,3,8.19,1.62,14.32,9.25,19.81,3,2.14,6.33,3.71,9.42,5.69,1.77,1.13,3.32,2.85,5.11,3.88,2.81,1.59,2.29.66,4.9,1.23a2.82,2.82,0,0,1,2.11,3.57c-2.22,8-7,16.46-4.51,24.57C170,374,175.41,378.16,180,382.53a72.21,72.21,0,0,1,15.81,22.07c2.87,6.22,4.92,13,9.32,18.22s12.17,8.58,18.2,5.34a207.12,207.12,0,0,1-28.42-39.63c-2.27-4.12-4.44-8.44-4.94-13.12-.53-5,.88-10,2.26-14.77l8.12-28.12c1.1-3.82,2.52-8,6-9.87,2.3-1.2,5-1.09,7.62-.95a776.3,776.3,0,0,1,78.17,8.41c1.71.27,3.54.61,4.76,1.83s1.6,3.25,1.83,5.06" transform="translate(-116.02 -139.29)"/><path class="cls-2" d="M200.67,329.9a33.63,33.63,0,0,0-6.5-23.2,278,278,0,0,0,51.93,10.11,190.89,190.89,0,0,0,24.24.79c1.32,0,2.66,0,4,0,3.73.06,7.48.08,11.21-.18,2.1-.14,6.71-.05,8.15-2a15.88,15.88,0,0,0,.6,6.42,94.22,94.22,0,0,0,3.6,11.36,21.13,21.13,0,0,0-6.08-2.75,40.86,40.86,0,0,0-6.76-1.26L269,327.19c-18-2.32-36.11-4.65-54.29-5.12-3.06-.08-6.25-.08-9,1.22S200.06,326.89,200.67,329.9Z" transform="translate(-116.02 -139.29)"/><path class="cls-2" d="M347,326.15c1.09-9.16,12.69-14,14.53-23a23.41,23.41,0,0,1,.91-4.51c1.06-2.59,3.73-4.07,6.24-5.32a256.88,256.88,0,0,1,36.39-14.8,66.38,66.38,0,0,0,.89,26.15,6,6,0,0,0,2.74-3.85,23.51,23.51,0,0,0,1.23,15.7c1.07-10.74,4.68-22.05,13.41-28.4,3.64-2.65,8.26-4.59,10-8.73a99.52,99.52,0,0,1-18-1.26,20.89,20.89,0,0,1-7-2.11c-3.64-2.07-5.92-6-6.92-10.06s-.9-8.3-.78-12.48L400.28,271a5.72,5.72,0,0,1-.59,2.93c-.85,1.39-2.65,1.78-4.25,2.13-14.55,3.13-26.71,12.22-37.95,21.52C353.25,301,344.44,306,342.25,311c-1,2.16-.4,6.58.18,8.79C342.74,321,347,326.37,347,326.15Z" transform="translate(-116.02 -139.29)"/><path class="cls-4" d="M414.26,219.9a27.08,27.08,0,0,1,5.89-3.47,42.85,42.85,0,0,0,22.7-34.22c-.64-1-2.09.17-2.57,1.23-2.08,4.57-3.4,9.49-6,13.8s-6.8,8.1-11.81,8.28c.7-4.15,4.3-7.09,6.75-10.52a21.37,21.37,0,0,0,2.7-19.26c-2.18,4.28-3,9.12-4.69,13.61a37.2,37.2,0,0,1-25.07,22.48c6.8-9.53,13.83-19.66,14.92-31.32a3.09,3.09,0,0,0-3.69.92,10,10,0,0,0-1.73,3.71,75.73,75.73,0,0,1-11.22,21.25c-1.86,2.54-4,5.09-6.84,6.33s-6.78.71-8.44-2c-2.22-3.6.63-8.06,3-11.6A53.49,53.49,0,0,0,397,171.83c-2.35-.65-4,2.19-4.81,4.5l-5.58,16.56c-.6,1.77-1.85,3.94-3.67,3.52a3.38,3.38,0,0,1-1.85-1.49c-4.19-5.8-3.72-13.73-2-20.67s4.53-13.76,4.43-20.91c-1.2-.94-2.64.86-3.1,2.32q-3.63,11.6-6.12,23.49c-.65,3.1-2.14,7-5.31,6.9a4.58,4.58,0,0,1-3.83-3,12.88,12.88,0,0,1-.68-5.06,190.26,190.26,0,0,1,3.18-33.68c-1.55-.72-3.46.31-4.3,1.8a10.59,10.59,0,0,0-1,5c-.19,5.58-.5,11.17-.94,16.74-.18,2.27-.41,4.63-1.6,6.56-2.93,4.78-10.61,4.46-14.63.56s-5.1-9.94-5.08-15.54.91-11.26-.08-16.78a3,3,0,0,0-3.62,1.4,8.68,8.68,0,0,0-.91,4.13c-.37,7-.74,14.15.42,21.1.68,4.1,1.89,8.24,1.18,12.32a2.06,2.06,0,0,1-.56,1.25c-.89.76-2.18-.22-2.88-1.15a46.62,46.62,0,0,1-6.5-12c-1.46-4-2.72-8.74-6.52-10.75-1.67,1.6-.64,4.35.2,6.51a25.58,25.58,0,0,1,1.73,8.38,2.59,2.59,0,0,1-.49,1.93c-1.11,1.11-2.88-.34-3.7-1.68a64.64,64.64,0,0,1-4.89-10c-1-2.64-2.66-5.9-5.48-5.64a28.59,28.59,0,0,0,8.79,22.15c3.39,3.2,7.55,5.53,10.8,8.88,2.32,2.39,4.12,5.23,6.42,7.65a42.2,42.2,0,0,0,6.8,5.54,127.8,127.8,0,0,0,57.89,21.53c3,.34,7.64,1.46,10.57.73S412,222,414.26,219.9Z" transform="translate(-116.02 -139.29)"/><circle class="cls-5" cx="304.57" cy="105.54" r="5.52"/><circle class="cls-6" cx="303.77" cy="107.34" r="4.35"/><circle class="cls-7" cx="304.21" cy="106.12" r="5.63"/><circle class="cls-5" cx="303.46" cy="107.28" r="1.2"/><path class="cls-8" d="M456.86,263.47c-2.42-7.1-8.53-12.52-15.41-15.5-4.82-2.09-10.27-3.26-14-6.95-3.32-3.27-4.78-8.05-8-11.45-5-5.3-12.94-6.18-20.19-6.72l-33.87-2.56a4.37,4.37,0,0,0-1.84.13A2,2,0,0,0,362.3,222a3.12,3.12,0,0,0,.76,3.66c2.31,2.13,5.47,1.51,8.27,2.21,1.93.49,3.84,2.28,3.78,4.07a2.24,2.24,0,0,1-.27.76c-16.74-3.67-32.32-11.29-48.61-16.6s-34.31-8.2-50.4-2.29c-9.56,3.52-17.86,9.95-27.47,13.36-6.86,2.42-14.17,3.23-21.4,4l-36.81,4c-18.31,2-37.75,4.46-52,16.18-5.63,4.64-10.3,11.09-11.15,18.23a19.62,19.62,0,0,0-.18,3.07l6.93-2.35a31.69,31.69,0,0,0-1.35,6.82c-1,10.4,2.68,21.22,6.4,31.25a65.07,65.07,0,0,1,2.26,8.43c.72,6-.44,12-5.15,16.92-3.21,3.38-7.33,5.71-11.37,8a16.13,16.13,0,0,0-5,3.8,13.16,13.16,0,0,0-2.2,5.35c-3.19,14.63,3.33,29.59,3.26,44.55,0,5.55-.92,11.37,1.33,16.44,1,2.19,2.5,4.11,3.37,6.34,1.74,4.46-.87,6.53,4.77,7.48,2,.33,8.61.3,9-2.64.3-2.51-5.28-10.43-6.14-13.43a50.15,50.15,0,0,1,.23-28.82c5.23-16.53,18.55-29,31.36-40.69a6.56,6.56,0,0,1,1.92-1.33,8.37,8.37,0,0,1,1.06.18,2.75,2.75,0,0,1,1.82,1.3,6.86,6.86,0,0,1-.19,3.64c-1.67,5.32-4.12,10.79-4.6,16.21a17.56,17.56,0,0,0,.56,7c1.85,6.09,7.29,10.22,11.9,14.6a72,72,0,0,1,15.81,22.06c2.86,6.22,4.92,13,9.31,18.23s12.18,8.58,18.21,5.34a2.62,2.62,0,0,0-.22-.25l.26-.12A207.12,207.12,0,0,1,192,387.34c-2.27-4.12-4.44-8.44-4.94-13.12a23,23,0,0,1,.08-5.25,61.65,61.65,0,0,1,2.14-9.15q4-14.07,8.11-28.12c.94-3.26,2.13-6.81,4.65-8.92l.63-.31c2.77-1.31,6-1.31,9-1.23,18.18.47,36.25,2.8,54.29,5.13L282,328.45a39.67,39.67,0,0,1,6.76,1.26,20.61,20.61,0,0,1,6.08,2.74v0a11.91,11.91,0,0,1,.92,3.77l.09,0a450.32,450.32,0,0,1,2.56,83.06c-.14,2.19-.17,4.68,1.42,6.18,3.22,3,8.51-1.24,12.78-.1-10-8.55-7.78-24.28-4.72-37.06q5.24-21.82,10.48-43.66l.05,0a101.87,101.87,0,0,1,34.79,34.88c6,9.9,8.25,21.33,12.24,32.06,1.65,4.45,3.58,10.38,6.53,14.16,3.24,4.14,7.77,3.09,12.51,1.75a.43.43,0,0,0,.3-.45l.32-.09c-.33-.31-.66-.64-1-1-5.12-7.18-9-11.88-11.47-17.55a49.84,49.84,0,0,1-2.19-7.07c-2.07-9-1.7-18.42-4.34-27.24-3.19-10.72-10.53-19.62-16.2-29.26-3.36-5.7-6.17-12.44-5.52-18.81a16.23,16.23,0,0,1,1.12-4.27c2.64-6.29,9.12-10.18,12.34-16.19,1.8-3.36,2.54-7.32,5-10.23,2.31-2.73,5.78-4.13,9.11-5.43l31-12.12a71.5,71.5,0,0,1-.41,12.15l1,13.83,2.13-5.53c-.11.64-.21,1.28-.27,1.93a27.83,27.83,0,0,0,2.56,15.12c0-.19,0-.38-.05-.57l.09.21a29.65,29.65,0,0,1,0-6.79c1.6-12.76,11.13-24.52,23.64-27.95,3.44,6.66,13.37,8.24,19.45,3.85A16.78,16.78,0,0,0,457.74,272,19.45,19.45,0,0,0,456.86,263.47Z" transform="translate(-116.02 -139.29)"/><path class="cls-8" d="M413.82,217.28a27.25,27.25,0,0,1,5.88-3.47,42.84,42.84,0,0,0,22.7-34.23c-.64-1-2.08.18-2.57,1.24-2.08,4.57-3.39,9.49-5.95,13.8s-6.8,8.1-11.81,8.28c.69-4.15,4.29-7.09,6.74-10.52a21.38,21.38,0,0,0,2.71-19.26c-2.19,4.28-3,9.11-4.7,13.61a37.18,37.18,0,0,1-25.07,22.48c6.8-9.53,13.83-19.66,14.93-31.32a3.1,3.1,0,0,0-3.7.92,10,10,0,0,0-1.73,3.71A75.22,75.22,0,0,1,400,203.77c-1.85,2.54-3.95,5.09-6.84,6.33s-6.78.71-8.43-2c-2.22-3.6.63-8.06,3-11.6a53.58,53.58,0,0,0,8.81-27.32c-2.35-.65-4,2.19-4.82,4.5l-5.58,16.56c-.59,1.77-1.84,3.94-3.66,3.52a3.45,3.45,0,0,1-1.86-1.49c-4.19-5.8-3.71-13.73-2-20.67s4.54-13.76,4.44-20.91c-1.21-.95-2.65.86-3.11,2.32-2.41,7.72-4.46,15.57-6.12,23.49-.65,3.1-2.14,7-5.31,6.9a4.59,4.59,0,0,1-3.83-3,12.87,12.87,0,0,1-.67-5.06,190.25,190.25,0,0,1,3.17-33.68c-1.55-.72-3.45.31-4.3,1.79a10.65,10.65,0,0,0-1,5c-.19,5.58-.51,11.17-.94,16.74-.18,2.27-.41,4.63-1.6,6.56-2.93,4.78-10.61,4.46-14.64.56s-5.09-9.94-5.07-15.54.91-11.26-.08-16.78a3,3,0,0,0-3.63,1.4,8.77,8.77,0,0,0-.91,4.13c-.37,7-.74,14.15.42,21.1.68,4.09,1.89,8.23,1.18,12.32a2,2,0,0,1-.56,1.25c-.88.76-2.17-.22-2.87-1.16a46.56,46.56,0,0,1-6.5-12c-1.47-4-2.73-8.74-6.52-10.75-1.67,1.6-.65,4.35.19,6.51a25.58,25.58,0,0,1,1.73,8.38,2.59,2.59,0,0,1-.49,1.93c-1.1,1.11-2.88-.34-3.69-1.68a63.74,63.74,0,0,1-4.89-10c-1-2.64-2.66-5.9-5.48-5.65A28.59,28.59,0,0,0,316.36,178c3.39,3.2,7.55,5.53,10.8,8.88,2.32,2.38,4.13,5.23,6.42,7.65a42.64,42.64,0,0,0,6.8,5.54,127.77,127.77,0,0,0,57.9,21.53c3,.34,7.63,1.46,10.57.73S411.52,219.34,413.82,217.28Z" transform="translate(-116.02 -139.29)"/><path class="cls-8" d="M446.1,268" transform="translate(-116.02 -139.29)"/><ellipse class="cls-1" cx="338.08" cy="133.19" rx="1.5" ry="6"/></svg>