<svg id="Layer_1" data-name="Layer 1" xmlns="http://www.w3.org/2000/svg" viewBox="0 0 341.67 214.72"><defs><style>.cls-1{fill:#9c795e;}.cls-2{fill:#1d0000;}.cls-3{fill:#caa080;}.cls-4{fill:#e5d6ca;}.cls-5{fill:#afa0a0;}.cls-6{fill:#edd5c2;}.cls-7{fill:#fff;}.cls-8{fill:#020202;}.cls-11,.cls-9{fill:none;stroke-miterlimit:10;}.cls-9{stroke:#000;stroke-width:0.5px;}.cls-10{fill:#997c62;}.cls-11{stroke:#020202;}</style></defs><title>mountain_lion</title><path class="cls-1" d="M279.36,314c-5.94,2.21-11.25,11.13-16.12,15.28-4.29,3.66-12.94,8.88-12.32,15.31.48,5.06,7.45,13.95,11.34,17.15,5.52,4.56,14,3.5,18.29,8.94,7.79,9.83-.23,11.64-9.2,11.2-3.08-.16-8.73.12-11.94-.7-4.4-1.14-5.09-3-8.48-6.17-4.71-4.38-10-7.46-14.76-11.92-4.15-3.91-12.75-9.69-12-16.17.57-4.65,6.33-8.44,9.11-11.63,7.09-8.13,12.19-19.29,20.12-26.49C262.78,300.28,272.78,307.57,279.36,314Z" transform="translate(-117.55 -180.83)"/><path class="cls-1" d="M330.24,316.65c15.32-4.09,19.87,59.22,34.09,65.46,4,1.78,17.34,4.74,21.45,1.54,5.05-3.94.58-15.46-3.78-18.57-6.85-4.9-12.95.83-14.07-11.22-.71-7.61,1.26-14.17-1.45-21.58-2.3-6.31-5.18-14.56-10.33-19.32C349.19,306.53,339.05,312.58,330.24,316.65Z" transform="translate(-117.55 -180.83)"/><path class="cls-2" d="M417.59,187.34c.94-2.57,3.89-4.9,5.26-2.06,1.06,2.18-.5,6.74-.38,9.12a27.15,27.15,0,0,0-6.79.76,24.79,24.79,0,0,1,.6-3.7" transform="translate(-117.55 -180.83)"/><path class="cls-3" d="M151.37,368.07a74.83,74.83,0,0,1-20.62-3.18,12.56,12.56,0,0,0-6-.36c-6,1.2-8.81,7.38-6.19,13.15,4.61,10.14,22.35,10.12,31.79,10.13,12,0,23.07-4.3,31.28-13s6.91-22.65,8.68-33.86c.94-5.93,1.91-11.58,2.72-17.28.64-4.54,7.26-4.54,7.8,0l0,.26c.57,5,1.3,9.15-.77,13.82-1.83,4.09-5,5.89-5,10.93,0,7.73,5.29,15.52,10.33,21.3s9,14.52,14.8,19.64c5.63,5,20.41,4.08,29.29,3.52a3.87,3.87,0,0,0,3.56-3c2.23-10.31-16.29-12-21.53-17.16a20.14,20.14,0,0,1-5.34-17.46c1.33-6.25,6.24-9,11.27-13.12,4.64-3.76,9.65-6.82,13.42-11.41s6.27-11.34,11.76-14.56c10.92-6.4,30.51,2.59,42.65,3.66,9.13.8,19.84,1.79,29,.54,6.13-.84,14.06-6.14,20.86-3.38,6.08,2.46,5.69,10.51,7,16.32,1.51,6.59,3.55,12.91,5.66,19.66,3.4,10.92,4.37,32.53,15.44,38.05,4.57,2.29,14.84,4.47,19.45,3.15,6.47-1.87,7.61-8.28,2.53-12.8-5.54-4.94-11.6-3.22-14.12-10.81-2.06-6.18-.05-13,.62-19,.89-7.91.11-16.91,1.33-24.93,1.43-9.44,4.1-18.67,5.35-28.26l.35-2.65a51.76,51.76,0,0,0-.62-15.9c-2.23-12.26,5.59-24.38,14.73-34.16,5.19-5.57,10.42-11.28,18.65-9.68,5.54,1.08,10.5,2.58,15.53-.68,5.9-3.82,13.52-10.11,7.11-17-1.76-1.89-3.11-3.93-5.07-5.57-2.3-1.92-4.68-3.05-6.4-5.57-2.92-4.29-2.92-7.77-7.65-10.39A30.32,30.32,0,0,0,421,193.45c-9.8-.24-19.71,3.24-27.9,8.48C379.62,210.55,369.3,225.7,354.5,232c-13.27,5.66-32.55,5.49-47.24,5.49-12.79,0-23.32-1.55-35.75-4.16-11.25-2.36-24.32-1.83-36.38-1.83-10.89,0-21-.94-30.26,4.66-14.62,8.86-23.53,22.64-28.6,37.87-5.53,16.63-4.65,36-4.65,53.91,0,16.41,2.81,36.62-17.3,39.9A17.62,17.62,0,0,1,151.37,368.07Z" transform="translate(-117.55 -180.83)"/><path class="cls-4" d="M428.92,231.78c-8.88.87-15.74,2.21-21.47,9.84-4.2,5.6-7.53,11.78-11.94,17.39-7.29,9.29-7,13.15-3.69,24,2.55,8.43.21,18.52,4.53,26.37.62-2.22.91-4.69.64-5.09,5-13.27,5.31-28.39,9.83-42,3.78-11.41,15.42-24.69,28.08-25.46" transform="translate(-117.55 -180.83)"/><path class="cls-5" d="M425,240.07c9.59-6.39,24.39,5.55,28-11-4.94,1.84-9.32,6.6-14.78,7.38C431.78,237.37,430.55,236,425,240.07Z" transform="translate(-117.55 -180.83)"/><path class="cls-6" d="M255,325.07c3.1-4.08,5.1-14.39,10-16.15,5.59-2,15,3.13,20.62,4,13.94,2.18,32.33,4.34,46.37,1.47,7.3-1.48,14.64-5.26,21-8.71-.76,2.91,1.21,8.48,2,11.39-18,6-26.17,4.49-40.16,4.49s-25-4.09-37.91-6C268.46,314.29,262.5,318,255,325.07Z" transform="translate(-117.55 -180.83)"/><path class="cls-4" d="M440.89,235.44c3.74,0,11.19-2,12.32-6.31.69-2.65-1-7.15-4.19-6.06-2.25.78-2.65,4.9-3.73,6.72C444.13,231.77,441.2,233.25,440.89,235.44Z" transform="translate(-117.55 -180.83)"/><path class="cls-2" d="M453.19,229.45c2.49-.38,4.77-3.53,3.31-6-1.13-1.89-3.16.39-5.91-1-.4,2.65,1.8,1.8,2.6,3.28.72,1.32.37,2,.05,3.61" transform="translate(-117.55 -180.83)"/><path class="cls-2" d="M452.53,229.78c-2.72,4.24-7.49,4.78-11.62,5.91,4.21.31,10.61-.8,10.95-5.57" transform="translate(-117.55 -180.83)"/><path class="cls-4" d="M422.17,208.71c4.38-5.38,12.36-5.21,15.9.48,1.31,2.1,5.44,7.34.81,7.87-1,.12-3.05-1.76-4.16-2-1.65-.36-3.6.09-5.28-.09C425.45,214.56,421.85,213.35,422.17,208.71Z" transform="translate(-117.55 -180.83)"/><ellipse class="cls-7" cx="429.63" cy="209.97" rx="4.58" ry="4.92" transform="translate(-126.54 -161.33) rotate(-2.57)"/><ellipse class="cls-8" cx="431.01" cy="210.19" rx="3.61" ry="3.88" transform="translate(-126.55 -161.27) rotate(-2.57)"/><ellipse class="cls-9" cx="430.13" cy="210.26" rx="4.67" ry="5.02" transform="translate(-126.55 -161.31) rotate(-2.57)"/><ellipse class="cls-7" cx="432.03" cy="210.07" rx="1" ry="1.07" transform="translate(-126.54 -161.23) rotate(-2.57)"/><path class="cls-8" d="M432.57,214.57a21,21,0,0,1,2.21-.5c.85,0,1.63.52,2.44.4.09-.59-.47-.94-.72-1.42s-.38-1.11-.6-1.64a12.51,12.51,0,0,1-1.16-2.74" transform="translate(-117.55 -180.83)"/><path class="cls-10" d="M396.9,201.16a16.63,16.63,0,0,0,.22-1.88,13.31,13.31,0,0,1,1.49-4.59,30.18,30.18,0,0,1,4.52-6.75,26.13,26.13,0,0,1,3.43-3.14,29.76,29.76,0,0,1,3.75-2.15c1.17-.67,2.69-1.62,4.08-1.28,1.21.28,1.83,1.58,2.24,2.66a9.12,9.12,0,0,1,.72,2.94c0,.65-.05,1.25-.06,1.88,0,2.3-.6,5.19-2.49,6.71s-4.16,1.48-6.31,2.08c-3.45,1-6.72,2.47-10.22,3.24A13.31,13.31,0,0,1,396.9,201.16Z" transform="translate(-117.55 -180.83)"/><path class="cls-4" d="M403.24,193a11,11,0,0,1,2-4c1.52-1.87.87-1.4,2.76-2.84,1.54-1.18,3.87-3.12,6-2.28,1.26.49,1.85,2.17,2.11,3.38a10.49,10.49,0,0,1-.79,6.1c-.78,1.77-2.74,2.48-4.46,3a16.4,16.4,0,0,1-5.87.73c-.67,0-1.65-.08-1.85-.79A6.58,6.58,0,0,1,403.24,193Z" transform="translate(-117.55 -180.83)"/><path class="cls-11" d="M458.37,223.87a8,8,0,0,0-2.42-5.05c-1.76-1.89-3.11-3.93-5.07-5.57-2.31-1.92-4.69-3.05-6.4-5.57-2.93-4.29-2.92-7.77-7.66-10.39a30.24,30.24,0,0,0-14.06-3.65h-.43c-.11-2.13,1.44-6.14.38-8.06-1.39-2.53-4.37-.45-5.32,1.83l-.05.14a1.34,1.34,0,0,0,0-.2c0-.12-.07-.25-.09-.37s-.1-.47-.16-.7a8.64,8.64,0,0,1-.21-1.15c-.05-.3-.15-.59-.22-.88a5.44,5.44,0,0,0-.58-1.56,3.55,3.55,0,0,0-.55-.74,2.55,2.55,0,0,0-.47-.4,1.78,1.78,0,0,0-1-.22,6,6,0,0,0-1.27.15,12.11,12.11,0,0,0-2.25.89,21.77,21.77,0,0,0-2.18,1.18,24.84,24.84,0,0,0-4,3.1,25.16,25.16,0,0,0-3.39,3.89,22.23,22.23,0,0,0-2.45,4.46,17.7,17.7,0,0,0-1.25,4.8c0,.31-.06.63-.07.95-.77.44-1.53.9-2.28,1.37-13.46,8.62-23.78,23.77-38.58,30.08-13.26,5.66-32.55,5.49-47.23,5.49-12.79,0-23.33-1.55-35.75-4.16C262,231.17,249,231.7,236.9,231.7c-10.89,0-21-.94-30.26,4.66C192,245.22,183.11,259,178,274.23c-5.53,16.63-4.65,36-4.65,53.91,0,16.41,2.82,36.62-17.29,39.9a17.7,17.7,0,0,1-2.95.22,74.77,74.77,0,0,1-20.62-3.18,12.61,12.61,0,0,0-6-.36c-6,1.2-8.81,7.38-6.18,13.15C124.92,388,142.66,388,152.11,388c12,0,23.06-4.3,31.27-13s6.92-22.65,8.69-33.85c.94-5.94,1.91-11.59,2.71-17.29.65-4.54,7.26-4.54,7.81,0l0,.26c.56,5,1.3,9.15-.78,13.82-1.82,4.09-5.05,5.89-5,10.93,0,7.73,5.29,15.52,10.33,21.3s9,14.52,14.8,19.64c5.63,5,20.42,4.08,29.3,3.52a3.89,3.89,0,0,0,3.56-3c2.22-10.31-16.3-12-21.54-17.16a20.17,20.17,0,0,1-5.33-17.46,13.08,13.08,0,0,1,.46-1.64c2.7,3.58,7,6.73,9.55,9.15,4.73,4.46,10.05,7.54,14.76,11.92,3.39,3.15,4.08,5,8.48,6.17,3.21.83,8.87.54,11.94.7,9,.44,17-1.37,9.2-11.2-4.32-5.44-12.77-4.38-18.29-8.94-3.88-3.2-10.86-12.09-11.34-17.15-.61-6.43,8-11.65,12.32-15.31,4.09-3.49,8.5-10.33,13.33-13.74l.38,0c12.88,1.92,23.83,6,37.91,6,8.78,0,15.26.6,23.32-.44,9.55,14.14,14.73,56,26.15,61a47,47,0,0,0,12.55,2.83A15.89,15.89,0,0,0,385,391.5c4.57,2.29,14.85,4.47,19.45,3.15,6.47-1.87,7.61-8.28,2.53-12.8-5.54-4.94-11.59-3.22-14.12-10.81-2.05-6.18-.05-13,.63-19,.89-7.91.11-16.91,1.32-24.93,1.31-8.61,3.63-17.06,5-25.76,4-12.5,4.59-26.35,8.77-39,2.9-8.74,10.41-18.58,19.46-23.05-.4.27-.82.55-1.27.89,9-6,22.66,4.2,27.25-8.37a18.07,18.07,0,0,0,2.67-3C458.29,227.8,459.29,225.67,458.37,223.87ZM369.7,354.05c0-.1,0-.2,0-.29.54,1.78,1,3.83,1.49,6.05A14.49,14.49,0,0,1,369.7,354.05Z" transform="translate(-117.55 -180.83)"/><path class="cls-2" d="M410.13,191.92a3.52,3.52,0,0,0,.64-2,18.56,18.56,0,0,1,1-2.49c.22-.84-.12-1.79.61-2.18.31-.18.51-.14.59.38a4.13,4.13,0,0,1-.22,1.69,5.41,5.41,0,0,0-.07,2.16,15,15,0,0,1,.49,2.85,3.62,3.62,0,0,1-.61,2.12c-.36.37-.82.45-1.2.74s-1.66,1.37-2,.29a3.39,3.39,0,0,1,.14-1.7,6,6,0,0,1,.44-1.21C410,192.29,410.07,192,410.13,191.92Z" transform="translate(-117.55 -180.83)"/></svg>