<svg id="Layer_1" data-name="Layer 1" xmlns="http://www.w3.org/2000/svg" viewBox="0 0 132.61 100.5"><title>mountain_lion_prints</title><path d="M240.84,309.8c2.91.18,4.34-1.6,6.82-2.25,2.89-.76,5,.37,7.57,1.16,5.57,1.74,9.41-1.16,14.76-1.78,4.93-.58,9.45-1.41,12.19-6.34,2.48-4.47,2.12-9.7-2-12.83-2.28-1.72-3.82-2.13-5.49-4.4-1.49-2-2.68-4.63-4.23-6.74-4-5.47-6.89-6.07-13-5.23-4.67.64-10.41-3.62-14.56.91-3.26,3.54-3.1,9-6.31,13.06-3.78,4.72-6.18,8.35-5.47,14.73C231.76,305.74,235.31,311.54,240.84,309.8Z" transform="translate(-222.01 -241.37)"/><path d="M277.9,279.22c7.48,11,12-4.28,12.23-10.61.16-3.82-.94-8.91-5.38-10s-6.66,3.9-7.56,7.29C276.39,269,274.47,276.51,277.9,279.22Z" transform="translate(-222.01 -241.37)"/><path d="M258.11,259.44c1.21,3.08,4.58,8.83,8.29,8.64,4.7-.24,6.8-5.89,7.18-9.72.53-5.28-6.78-24.74-12.51-13.6C259.52,247.77,257.31,256.53,258.11,259.44Z" transform="translate(-222.01 -241.37)"/><path d="M236.89,260.51c.84,4.28,5.72,8.08,10.25,7,5.83-1.36,5.92-6.87,5.94-11.69,0-7.38-9.39-22-14-8.92C237.79,250.72,235.44,258.09,236.89,260.51Z" transform="translate(-222.01 -241.37)"/><path d="M222.14,276.34c.22,3.63,3.85,9.26,7.55,9.36,4.24.12,7.15-4.83,7.89-8.49.87-4.35.9-9.79-1.31-13.56-2.59-4.4-6.22-5.28-9.74-1.26C223.53,265.83,221.45,272.53,222.14,276.34Z" transform="translate(-222.01 -241.37)"/><path d="M297.5,338.49c2.81.77,4.57-.7,7.13-.83,3-.15,4.82,1.38,7.17,2.68,5.11,2.83,9.46.77,14.82,1.25,4.94.44,9.54.54,13.22-3.74,3.34-3.87,4.05-9.06.62-13-1.89-2.14-3.31-2.86-4.48-5.42-1.05-2.3-1.68-5.07-2.78-7.46-2.83-6.17-5.51-7.34-11.62-7.75-4.71-.32-9.47-5.65-14.45-2.07-3.91,2.81-4.87,8.23-8.83,11.51-4.65,3.86-7.75,6.92-8.34,13.32C289.43,332.67,291.72,339.07,297.5,338.49Z" transform="translate(-222.01 -241.37)"/><path d="M340,316.07c5.08,12.32,12.6-1.76,14.13-7.91.93-3.71.89-8.92-3.25-10.87s-7.31,2.47-8.87,5.61C340.59,305.71,337.18,312.71,340,316.07Z" transform="translate(-222.01 -241.37)"/><path d="M324.63,292.68c.55,3.26,2.69,9.57,6.36,10.14,4.65.72,7.86-4.38,9-8.06,1.58-5.07-1.63-25.6-9.49-15.86C328.38,281.54,324.43,289.66,324.63,292.68Z" transform="translate(-222.01 -241.37)"/><path d="M303.63,289.42c0,4.36,4,9.08,8.61,9,6-.15,7.2-5.53,8.19-10.25,1.52-7.22-4.74-23.4-11.85-11.56C306.5,280,302.7,286.75,303.63,289.42Z" transform="translate(-222.01 -241.37)"/><path d="M286,301.93c-.52,3.59,1.89,9.84,5.5,10.69,4.13,1,8-3.27,9.44-6.7,1.74-4.09,2.87-9.41,1.47-13.55-1.63-4.83-5-6.44-9.27-3.21C289.47,291.92,286.08,298.05,286,301.93Z" transform="translate(-222.01 -241.37)"/></svg>