<svg id="Layer_1" data-name="Layer 1" xmlns="http://www.w3.org/2000/svg" viewBox="0 0 230.95 318.74"><defs><style>.cls-1{fill:#151515;}.cls-2{fill:#865327;}.cls-3{fill:#b07239;}.cls-4{fill:#d7aa7c;}.cls-5{fill:#f1f1f1;}.cls-6{fill:#6e4c30;}.cls-7{fill:#1b1313;}.cls-8{fill:#231b12;}.cls-9{fill:#ecdcc3;}.cls-10{fill:#1e1d18;}.cls-11{fill:#fff;}.cls-12{fill:#e0d0b7;}.cls-13,.cls-14{fill:none;stroke-miterlimit:10;}.cls-13{stroke:#000;}.cls-14{stroke:#1b1313;}</style></defs><title>mule_deer</title><path class="cls-1" d="M356.76,344.52" transform="translate(-183.72 -128.81)"/><path class="cls-2" d="M240.78,439.18a46.36,46.36,0,0,1-4.17-11.3c-2.71-10-5.19-20.18-5.9-30.52s.44-20.95,4.73-30.46c1.34-3,3-5.82,4.61-8.65,4.15-7.22,8.37-14.51,14.18-20.58.74-.76,1.51-1.52,2.25-2.3,10.22.29,20.68-1.3,30.7.88,8.64,1.89,16.5,6.5,25.08,8.7a45.26,45.26,0,0,0,7.39,1.24c-.6,5.36-1,10.67-2.37,16-2.19,8.68-5.52,17.12-6.52,26-.89,7.85,0,16-2.36,23.51-2,6.45-6.52,12.65-5.29,19.31l3.57-1a37.77,37.77,0,0,0,1,9.71,10.43,10.43,0,0,0,1.42,3.6c2.32,3.28,7.07,3.37,11.08,3.13a2.39,2.39,0,0,0,1.64-.51c1-1-.2-2.52-1.2-3.47-5-4.77-6.91-12.13-6.55-19.06s2.7-13.57,5-20.11q4.75-13.49,9.53-27c1.94-5.49,3.9-11,6.94-16a98.25,98.25,0,0,1,6-8.36q1.7-2.2,3.35-4.46c3.89,1.37,7.8,2.7,11.62,4.27,8,3.31,15.84,7.9,20.78,15,3.26,4.69,5.08,10.2,6.86,15.62q1.8,5.52,3.61,11c1.86,5.66,3.73,11.8,1.89,17.48l3.79-.06c-2.8,5.29-3.23,12.43.89,16.76a10.45,10.45,0,0,0,6.08,3.11q.39-12.16.8-24.32a16.26,16.26,0,0,0-.26-4.35,23.26,23.26,0,0,0-1.89-4.39c-3.56-7.54-3.13-16.35-5.69-24.28-3.58-11.1-12.53-19.42-20.17-28.22-4.69-5.39-9-11.17-13.46-16.81,2.69-4.65,4-10,6.27-15,4.18-9.16,11.49-16.45,16.51-25.17,3.84-6.66,6.11-15.09,4.29-22.3,0-1.21,0-2.42,0-3.63a15.35,15.35,0,0,0-.93-6.11c-1.82-4.05-6.41-5.55-11-6.2l-9.84-2.82q-.79-.54-1.56-1.11c-5.89-4.56-9.3-12-9.78-19.49A150.24,150.24,0,0,0,348,254.3c-.35,3.23-.75,6.79-3.13,9-1.74,1.58-4.17,2.06-6.47,2.44-16.9,2.83-34.14,4.2-51.16,2.23-8.51-1-16.93-2.81-25.47-3.47s-17.4-.08-25.21,3.51c-9,4.12-18.1,10.08-22.87,18.82-3.81,7-4.32,15.33-4.17,23.32a63.91,63.91,0,0,1-.24,10A26.84,26.84,0,0,1,203.75,333c6,.64,9-8.64,14.95-9.09a7,7,0,0,1,.79,0q.4,6.78.8,13.56a42.8,42.8,0,0,1-.25,10.43c-1.6,8.38-8.09,15-15.24,19.67-2.39,1.55-5,3.11-6.16,5.73A14.13,14.13,0,0,0,198,379a84.22,84.22,0,0,1-8.22,37.09c-2.21,4.61-4.82,10.22-2,14.48,1.08,1.62,2.83,2.75,3.7,4.49a24.29,24.29,0,0,1,1.07,3.39,9.55,9.55,0,0,0,7.8,6.31c1.75.2,3.81-.29,4.6-1.88s-.19-3.75-1.16-5.42c-3.31-5.72-6-12.42-4.34-18.82.9-3.4,3-6.36,4.44-9.55,3.21-6.87,3.79-14.77,7.17-21.56a36.5,36.5,0,0,1,3.13-5.1c-1.09,5.72.72,11.61,2.52,17.2l10.55,32.67A46.75,46.75,0,0,0,231.69,443" transform="translate(-183.72 -128.81)"/><path class="cls-3" d="M354.12,226.82a148.61,148.61,0,0,0-5.72,27.7c-.35,3.22-.75,6.79-3.13,9-1.74,1.59-4.17,2.06-6.48,2.45-16.89,2.82-34.14,4.2-51.15,2.22-8.52-1-16.93-2.8-25.48-3.46s-17.39-.08-25.2,3.51c-9,4.12-18.11,10.08-22.87,18.82-3.82,7-4.32,15.32-4.18,23.31a62.83,62.83,0,0,1-.23,10,26.76,26.76,0,0,1-5.55,12.92c6,.64,9-8.64,15-9.09a10.52,10.52,0,0,1,4.7,1.07c7.32,3,14.24,7.12,21.91,9,13.62,3.35,28.16-.74,41.86,2.25,8.65,1.88,16.51,6.49,25.09,8.69a47.3,47.3,0,0,0,38.76-7.3,31.17,31.17,0,0,0,7.84-7.74c3.36-5,4.7-11,7.19-16.48,4.18-9.16,11.49-16.45,16.51-25.16s7.39-20.44,1.4-28.5c-4.95-6.66-13.9-8.63-20.44-13.68C358,241.75,354.59,234.32,354.12,226.82Z" transform="translate(-183.72 -128.81)"/><path class="cls-4" d="M318.75,286.53" transform="translate(-183.72 -128.81)"/><path class="cls-5" d="M378.55,251.17l-19.3-5.54a27.21,27.21,0,0,0,2.88,6,39,39,0,0,1-.59,38c-1.61,2.73-3.56,5.24-5.14,8a34.93,34.93,0,0,0-4.35,12.93c-.53,4.12-.33,8.38-1.66,12.32s-4.31,7.48-5.3,11.63c6.35-1.68,10.9-7.32,13.79-13.22s4.57-12.36,7.78-18.09c6.2-11.08,18-19.38,20.16-31.88a46.6,46.6,0,0,0,.41-8.68,15.58,15.58,0,0,0-.93-6.12c-2.25-5-8.76-6.11-14.24-6.53" transform="translate(-183.72 -128.81)"/><path class="cls-3" d="M324,328.76c0,2.9.06,5.95,1.51,8.46,1.54,2.67,4.38,4.28,7.16,5.58,7.85,3.68,16.28,5.93,24.29,9.24s15.84,7.89,20.79,15c3.25,4.69,5.07,10.19,6.85,15.62l3.62,11c1.86,5.67,3.72,11.8,1.89,17.48l3.79-.05c-2.8,5.28-3.23,12.43.89,16.76a10.44,10.44,0,0,0,6.07,3.1l.8-24.31a16.31,16.31,0,0,0-.25-4.36,24.23,24.23,0,0,0-1.89-4.39c-3.56-7.53-3.14-16.34-5.69-24.28-3.58-11.09-12.54-19.42-20.18-28.22-11.84-13.63-21.42-29.7-36.28-40-4.18-2.9-13.61-5.63-14.21,2.2-.19,2.53.91,5.64.89,8.31C324,320.22,324,324.49,324,328.76Z" transform="translate(-183.72 -128.81)"/><path class="cls-3" d="M241.16,439.4A46.46,46.46,0,0,1,237,428.09c-2.7-10-5.18-20.18-5.89-30.52s.43-20.94,4.72-30.46c1.34-3,3-5.81,4.62-8.65,4.15-7.21,8.36-14.5,14.18-20.57,2.29-2.39,4.88-4.67,6-7.72,2.2-5.81-1.42-12.84,1.74-18.23,2.55-4.37,7.14-3.54,10.52-6.24,2.67-2.14,2.25-7.44.54-10.14-2.17-3.44-6.85-4.46-11-4.8a77,77,0,0,0-30.24,3.53c-4.95,1.61-9.84,3.82-13.42,7.47s-5.61,9-4.12,13.78c1.56,5.06,6.46,8.39,9.74,12.63,4.67,6,6,14,4.81,21.47s-4.58,14.37-8.61,20.81c-2.28,3.65-4.81,7.26-5.82,11.4-1.45,6,.46,12.17,2.35,18l10.54,32.66a46.41,46.41,0,0,0,4.44,10.64c2.5,0,4.72-.13,7.22-.11a5.83,5.83,0,0,0,3-.52A6,6,0,0,0,241.16,439.4Z" transform="translate(-183.72 -128.81)"/><path class="cls-3" d="M160.53,220.54" transform="translate(-183.72 -128.81)"/><path class="cls-6" d="M350,207.19c-5.26-2.81-11.17-4.15-16.61-6.57-17.06-7.6-28.23-26.71-26.48-45.3.15-1.59.67-3.52,2.23-3.88a58,58,0,0,0,1.33,13.14,27.1,27.1,0,0,1,11.16-9.2c-1.7,2.76-4,5.06-6,7.63s-3.6,5.63-3.51,8.87,2.43,6.57,5.66,6.83c-2.94-6.65-5.21-13.71-5.64-21s1.08-14.79,5.15-20.83c-1.24,6.47-2.48,13-2.44,19.58s1.47,13.33,5.17,18.79c4.79-6.8,16.24-5.15,21.65-11.47.61,1.61-.33,3.47-1.69,4.52a16.76,16.76,0,0,1-4.7,2.11,29.52,29.52,0,0,0-9.67,5.8c-2.13,1.92-4.09,4.44-4,7.3.1,3.64,3.36,6.31,6.44,8.25A82.06,82.06,0,0,0,352.17,202c-.11-6.68,0-14,4.17-19.18-4.53,9.9-1.1,20.49,6,28C357.63,214.9,354.34,209.5,350,207.19Z" transform="translate(-183.72 -128.81)"/><path class="cls-4" d="M350.38,224.39a2.34,2.34,0,0,0-.17-1.17c-.43-.83-1.57-.82-2.47-.71-5.58.68-11.37.59-16.65-1.4-8.75-3.31-15.32-12.11-16.21-21.72a36.11,36.11,0,0,1,29,6.24c1.93,1.43,3.78,3.09,6,4a19.53,19.53,0,0,0,5.79,1L375,211.84a9.81,9.81,0,0,0,3.86-.27,12.47,12.47,0,0,0,3.6-2.48c8.71-7.29,20.65-8.39,31.82-9.19,0,6.16-4.1,11.68-9.12,15s-10.93,4.76-16.71,6.18a17.41,17.41,0,0,0,2.77,17.54c1.32,1.53,2.93,2.81,4,4.52,3.48,5.39-.49,14-6.72,14.58a17.75,17.75,0,0,1-6.87-1.19l-13.53-4.27c-4.58-1.44-9.6-3.24-11.89-7.58" transform="translate(-183.72 -128.81)"/><path class="cls-7" d="M316.42,200.1a.93.93,0,0,0-.78.29.85.85,0,0,0-.09.57,24.1,24.1,0,0,0,10.67,18c4.46,3,16.58,7.37,21.53,4.24,7.45-4.71,1.71-12.91-3.6-15.71C335.71,203.05,326.05,199.79,316.42,200.1Z" transform="translate(-183.72 -128.81)"/><path class="cls-5" d="M330.24,219.43c5.28,2.94,11.6,3.59,17.59,2.8a1.25,1.25,0,0,0,.8-.32,1.21,1.21,0,0,0,.12-1,19.21,19.21,0,0,0-6.47-11.12,26.31,26.31,0,0,0-6.45-3.85,45,45,0,0,0-16-3.67C319.14,208.79,324.73,216.36,330.24,219.43Z" transform="translate(-183.72 -128.81)"/><path class="cls-6" d="M375.34,182.08a30.58,30.58,0,0,1,7.13,19.59c2.21-2.74,5.5-4.41,7.91-7a15.29,15.29,0,0,0,1.87-17.85c-3-4.91-8.88-8.4-9.39-14.12a37.64,37.64,0,0,0,11,8.14,136.64,136.64,0,0,0-9.08-35.63,58.21,58.21,0,0,1,11.06,22.22c2.06-3.68,2.17-8.1,2.22-12.33l-.79,41.41c4-.54,7-4.18,7.85-8.08s.08-8-1.05-11.8-2.55-7.62-2.93-11.59a99.23,99.23,0,0,0,7.95,16.64,71,71,0,0,0,1.05-27.2c5.79,10.8,4.44,24.4-1,35.39s-14.49,19.76-24,27.52c-2.21,1.81-4.67,4-4.69,6.83,0-.63-3.06-1.88-3.4-2.49-.79-1.42-.21-1.44-.08-3,.25-2.94,1.38-5.81,1.56-8.83A38.23,38.23,0,0,0,375.34,182.08Z" transform="translate(-183.72 -128.81)"/><path class="cls-3" d="M382.85,209.22c8.71-7.29,20.65-8.39,31.82-9.19,0,6.16-4.1,11.69-9.12,15s-10.93,4.77-16.71,6.18c-1,.25-2.38-.64-3.09-1.43s-1.25-1.74-2-2.5c-1.18-1.2-2.95-2-3.34-3.69S381.56,210.29,382.85,209.22Z" transform="translate(-183.72 -128.81)"/><path class="cls-8" d="M403.13,216.57a21.19,21.19,0,0,0,7-5c3-2.9,3.89-6.81,4-11-4.08,1.09-7.69,1.89-11.76,3-3.62,1-7.3,2-10.47,4-2.94,1.86-8.55,7.9-5.58,11.78C389,222.77,400.3,218.05,403.13,216.57Z" transform="translate(-183.72 -128.81)"/><path class="cls-5" d="M402.81,215.8a18,18,0,0,0,5.93-4.23c2.56-2.46,3.3-5.77,3.39-9.32-3.45.93-6.51,1.61-10,2.53a31.44,31.44,0,0,0-8.86,3.36c-2.49,1.58-7.24,6.69-4.72,10C390.84,221,400.42,217.05,402.81,215.8Z" transform="translate(-183.72 -128.81)"/><path class="cls-9" d="M386.51,223a2.93,2.93,0,0,0-.92-.76,3.73,3.73,0,0,0-1.76-.23,1.74,1.74,0,0,0-.78.13,1.26,1.26,0,0,0-.61,1.19,3.4,3.4,0,0,0,.43,1.34,59.06,59.06,0,0,0,4.58,7.59,3.48,3.48,0,0,0-.11-2.53C386.81,227.47,388.11,224.78,386.51,223Z" transform="translate(-183.72 -128.81)"/><path class="cls-10" d="M383.13,225.62a2,2,0,0,1,1.46-1.57,2.38,2.38,0,0,1,2.21.5,3.65,3.65,0,0,1,.79,2.82v1c0,.84-.17,1.89-1,2.16s-1.75-.52-2.2-1.27a8.49,8.49,0,0,1-1.21-4.07" transform="translate(-183.72 -128.81)"/><circle class="cls-11" cx="201.71" cy="98.29" r="2.24"/><circle class="cls-7" cx="201.8" cy="98.44" r="1.62"/><circle class="cls-11" cx="200.71" cy="99.44" r="0.95"/><path class="cls-3" d="M396.24,243.78a25.74,25.74,0,0,0-7.72-1.88,8.66,8.66,0,0,0-7.12,2.89,80.25,80.25,0,0,0-9.54-20,7.2,7.2,0,0,0-2.17-2.35c-1.51-.89-3.4-.6-5.15-.71s-3.8-1-3.9-2.8c-.08-1.43,1.22-2.85.65-4.17-.27-.61-.92-1.28-.51-1.81a1.18,1.18,0,0,1,.89-.33,65.59,65.59,0,0,1,12.61.23,5.5,5.5,0,0,1,3.63,1.39,5.81,5.81,0,0,1,.89,1.62,92.4,92.4,0,0,0,7.29,14.59C388.08,233.53,392.64,242.51,396.24,243.78Z" transform="translate(-183.72 -128.81)"/><path class="cls-9" d="M364,235.45a7,7,0,0,1-5-6,11.75,11.75,0,0,0-.21-2.45c-.26-.88-.88-1.67-.83-2.58.06-1.11,1.1-1.91,2.12-2.36a9.49,9.49,0,0,1,6.85-.41,8.14,8.14,0,0,1,5,4.65,15.75,15.75,0,0,1,.67,2.79c.37,2.15,1.62,5.21-.61,6.59C370.51,236.48,365.46,235.85,364,235.45Z" transform="translate(-183.72 -128.81)"/><path class="cls-10" d="M369.53,229.82a12.13,12.13,0,0,0-.61-2.17,4.13,4.13,0,0,0-1.67-1.6,7.83,7.83,0,0,0-3.44-1.47,3.06,3.06,0,0,0-3.07,2.06c-.89,2.39.72,5.13,2.43,6.5a4.44,4.44,0,0,0,3.09,1.24c.73-.09,1.42-.5,2.15-.65,2.79-.6,4.94,2.52,6.77,4.84C374.61,234.81,370.59,233.57,369.53,229.82Z" transform="translate(-183.72 -128.81)"/><circle class="cls-11" cx="181.58" cy="100.27" r="3.06"/><circle class="cls-7" cx="181.2" cy="100.36" r="2.26"/><circle class="cls-11" cx="180" cy="101.81" r="0.95"/><path class="cls-12" d="M380.83,245.22c-.83,1-1.71,2.14-1.58,3.43s1.39,2.39,2.57,3.15a49.23,49.23,0,0,0,6.61,3.61,1.14,1.14,0,0,0,.47-1.37,3.31,3.31,0,0,0-.91-1.29l-7.08-7.25" transform="translate(-183.72 -128.81)"/><path class="cls-7" d="M386.08,251.53l-4.36-5.31a1.76,1.76,0,0,1-.58-1.36,1.67,1.67,0,0,1,.69-.93,11.65,11.65,0,0,1,14.38.21,2.55,2.55,0,0,1,.81,1c.35.92-.27,1.89-.47,2.86s.07,2.27-.2,3.36C395,256.75,388.38,254.33,386.08,251.53Z" transform="translate(-183.72 -128.81)"/><path class="cls-13" d="M356.24,179.31c-4.19,5.2-4.28,12.5-4.16,19.18A82,82,0,0,1,328,188.3c-3.09-1.94-6.34-4.61-6.45-8.25-.08-2.86,1.88-5.38,4-7.29a29.78,29.78,0,0,1,9.66-5.81,16.48,16.48,0,0,0,4.7-2.1c1.37-1.06,2.31-2.92,1.69-4.53-5.4,6.32-16.85,4.67-21.64,11.47a30.12,30.12,0,0,1-4.58-12l.18-.25c2-2.58,4.31-4.88,6-7.64a27,27,0,0,0-6.64,4.22c-.08-1-.13-2.08-.14-3.12,0-6.59,1.2-13.11,2.44-19.58-4.07,6-5.58,13.56-5.15,20.83a42,42,0,0,0,.47,4.19,25,25,0,0,0-2.14,2.67A58.13,58.13,0,0,1,309.06,148c-1.56.37-2.08,2.29-2.23,3.88-1.75,18.59,9.42,37.7,26.48,45.3,5.44,2.42,11.2,4.08,16.61,6.57,3.58,1.66,2.94,4.12,13.71,5.36C356.51,201.58,351.71,189.21,356.24,179.31ZM312,168.4a11.43,11.43,0,0,1,1.37-5.49,73.19,73.19,0,0,0,4.29,12.33C314.47,175,312.13,171.64,312,168.4Z" transform="translate(-183.72 -128.81)"/><path class="cls-13" d="M381.63,206.07c9.49-7.76,22-18.66,27.45-29.65s6.8-24.58,1-35.39a71,71,0,0,1-1,27.21,98.92,98.92,0,0,1-8-16.65c.37,4,1.81,7.76,2.93,11.59s1.94,7.91,1.05,11.8-3.89,7.54-7.85,8.08l.75-39.47c-.1,3.61-.43,7.27-2.18,10.4a58.32,58.32,0,0,0-11.06-22.23,136.72,136.72,0,0,1,9.07,35.63,37.55,37.55,0,0,1-11-8.14c.5,5.73,6.42,9.21,9.39,14.12a15.27,15.27,0,0,1-1.88,17.85c-2.41,2.57-5.69,4.24-7.9,7a30.59,30.59,0,0,0-7.14-19.59,38.25,38.25,0,0,1,3.25,17.84c-.17,3-1.31,5.89-1.55,8.83-.14,1.57-1.1,2.39-.31,3.8" transform="translate(-183.72 -128.81)"/><path class="cls-13" d="M398,143.59c0-.65,0-1.29,0-1.93Z" transform="translate(-183.72 -128.81)"/><path class="cls-5" d="M328.44,370.23a6.92,6.92,0,0,0-.5,2.93c1-1.67,1.5-3.55,2.32-5.3a34.75,34.75,0,0,1,3.11-5c3.49-5,7.2-9.86,10.44-15C335.16,344.91,330.25,364.68,328.44,370.23Z" transform="translate(-183.72 -128.81)"/><path class="cls-5" d="M258.36,324.65a24.52,24.52,0,0,1,5.54,1.05l24.81,6.77c12,3.26,24.14,6.55,36.52,6.06,2.24-.08,4.55-.29,6.68.44s4,2.71,3.8,4.95c-8.86,3-18.6,1.48-27.58-1.13s-17.68-6.32-26.91-7.77c-7.69-1.21-15.4.15-23-.62C258.67,333.43,260.94,324.73,258.36,324.65Z" transform="translate(-183.72 -128.81)"/><path class="cls-7" d="M199,437.77c2.15-.11,4.45.08,6.18,1.36a11.84,11.84,0,0,0,2.83,6.33q-3.41.36-6.83.49a7.74,7.74,0,0,1-2.4-.17,6.81,6.81,0,0,1-2.34-1.42c-1.82-1.53-3.85-3.78-3.76-6.32A62.21,62.21,0,0,1,199,437.77Z" transform="translate(-183.72 -128.81)"/><path class="cls-7" d="M233.3,446.43a1.06,1.06,0,0,0,.29.43c.31.26.77.15,1.17.07,2.91-.58,5.93,1.06,8.84.5a.65.65,0,0,0,.49-1.08l-1.22-3.4a1.28,1.28,0,0,0-.54-.77,1.29,1.29,0,0,0-.62-.06c-3.26.25-6.73,0-9.93.54A20,20,0,0,1,233.3,446.43Z" transform="translate(-183.72 -128.81)"/><path class="cls-7" d="M308.52,444.91c0,.42.05.92.41,1.13a1.16,1.16,0,0,0,.41.13,40.3,40.3,0,0,0,12.64.23,1.13,1.13,0,0,0,.48-.15,1,1,0,0,0,.29-1,7.09,7.09,0,0,0-3-4.47,10.47,10.47,0,0,0-1.82-1.21,9.6,9.6,0,0,0-5.11-.78c-1.12.11-4,.25-4.69,1.33S308.51,443.72,308.52,444.91Z" transform="translate(-183.72 -128.81)"/><path class="cls-7" d="M399.37,415.58a1.63,1.63,0,0,1,2,1.93l-.21,12.75a1.42,1.42,0,0,1-.1.58c-.29.57-1.14.42-1.72.15a24.59,24.59,0,0,1-4.76-3.31,9,9,0,0,1-2.44-2.62,8.79,8.79,0,0,1-.61-4.45c.06-1.47-.43-4.67,1.1-5.17C394.43,414.84,397.48,415.46,399.37,415.58Z" transform="translate(-183.72 -128.81)"/><path class="cls-14" d="M385.06,227.56" transform="translate(-183.72 -128.81)"/><path class="cls-14" d="M392.94,241" transform="translate(-183.72 -128.81)"/><path class="cls-14" d="M393.92,241.67" transform="translate(-183.72 -128.81)"/><path class="cls-14" d="M386.52,219.07c1.2-.29,2.41-.59,3.62-.91a44.56,44.56,0,0,0,10.66-3.7,21.27,21.27,0,0,0,7-5,12.12,12.12,0,0,0,3.28-5.67,15.14,15.14,0,0,0,1.27-5.88l-.38,0c0-.05,0-.1,0-.16-11.17.8-23.11,1.9-31.82,9.19a12.27,12.27,0,0,1-3.6,2.48,9.81,9.81,0,0,1-3.86.27l-19.33-1.27a19.21,19.21,0,0,1-5.79-1c-2.23-.87-4.08-2.52-6-4a36,36,0,0,0-29-6.23,25.3,25.3,0,0,0,2,7.65,24.74,24.74,0,0,0,9.37,11.93c4.46,3,16.58,7.37,21.53,4.24a9.44,9.44,0,0,0,1-.75,1.6,1.6,0,0,1,1.43.76,2.31,2.31,0,0,1,.17,1.17l2,6.92a149.4,149.4,0,0,0-4.37,23c-.35,3.22-.75,6.78-3.13,8.95-1.74,1.59-4.17,2.06-6.47,2.45-16.9,2.82-34.15,4.19-51.16,2.22-8.51-1-16.93-2.81-25.47-3.46s-17.4-.09-25.21,3.5c-9,4.12-18.1,10.08-22.87,18.82-3.81,7-4.32,15.33-4.17,23.32a63.91,63.91,0,0,1-.24,10,26.84,26.84,0,0,1-5.55,12.93,4.36,4.36,0,0,0,.51,0l-.14.18c6,.64,9-8.64,15-9.09h.42q.39,6.67.79,13.35a42.78,42.78,0,0,1-.25,10.43c-1.6,8.38-8.09,15-15.25,19.68-2.38,1.54-5,3.1-6.15,5.72a14,14,0,0,0-.66,5.73A84.19,84.19,0,0,1,187.44,414c-2.21,4.61-4.82,10.22-2,14.48,1.08,1.62,2.83,2.76,3.7,4.5a23.75,23.75,0,0,1,1.07,3.38c0,.1.09.2.13.3.27,2.23,2.07,4.19,3.71,5.57a6.81,6.81,0,0,0,2.34,1.42,7.18,7.18,0,0,0,2.4.17q3.42-.13,6.83-.49a11.81,11.81,0,0,1-2.83-6.33,6.2,6.2,0,0,0-.69-.44c-.2-.41-.43-.8-.65-1.18-3.32-5.72-6-12.43-4.34-18.83.89-3.4,3-6.36,4.44-9.55,3.21-6.87,3.79-14.77,7.17-21.56a37.09,37.09,0,0,1,3.13-5.1c-1.09,5.72.72,11.61,2.52,17.2l10.54,32.67a46.41,46.41,0,0,0,4.44,10.64l.2-.09.18.3h0c.54,1,.73,2.14,1.2,3.24a1.09,1.09,0,0,0,.29.44c.31.25.77.14,1.17.06,2.91-.58,5.93,1.06,8.84.5a.76.76,0,0,0,.5-.23c.19-.23.09-.57,0-.85-.41-1.13-.82-2.27-1.22-3.4a1.28,1.28,0,0,0-.54-.77l-.12,0a6.36,6.36,0,0,0-1-2.76A46.46,46.46,0,0,1,234.66,426c-2.7-10-5.18-20.18-5.89-30.52s.43-20.94,4.72-30.45c1.34-3,3-5.82,4.61-8.66,4.16-7.21,8.37-14.5,14.19-20.57.74-.77,1.5-1.53,2.24-2.3,10.23.29,20.69-1.3,30.7.88,8.65,1.89,16.51,6.5,25.08,8.69a44.93,44.93,0,0,0,7,1.2c-.59,5.31-1,10.55-2.35,15.86-2.19,8.68-5.52,17.12-6.53,26-.88,7.84.05,16-2.35,23.5-2.05,6.45-6.52,12.65-5.29,19.31l3.57-1a37.85,37.85,0,0,0,1,9.72c.08.36.18.72.29,1.07-.12,1.22.52,3.1.53,4.08,0,.42.05.92.41,1.13a1,1,0,0,0,.41.13,40,40,0,0,0,12.64.23,1.17,1.17,0,0,0,.48-.15,1,1,0,0,0,.29-1,7.08,7.08,0,0,0-3-4.48,11.3,11.3,0,0,0-1.48-1c-3.27-4.61-4.51-10.63-4.22-16.35.36-6.93,2.7-13.58,5-20.12q4.75-13.47,9.52-27c1.95-5.49,3.91-11,6.95-16a96.68,96.68,0,0,1,6-8.36c1.12-1.46,2.21-2.92,3.3-4.4,4,1.42,8.09,2.79,12,4.42a71.91,71.91,0,0,1,7.37,3.51,38.5,38.5,0,0,1,13,11.29c3.26,4.68,5.08,10.19,6.86,15.61q1.8,5.52,3.61,11c1.86,5.67,3.73,11.8,1.89,17.48h.44l-.06.22,3.3,0a17.72,17.72,0,0,0-1.89,10.3,7.55,7.55,0,0,0,.64,3.63,7.32,7.32,0,0,0,1.84,2.12c.14.16.27.33.41.48a10.33,10.33,0,0,0,2.37,1.84c.26.16.53.31.8.45a15,15,0,0,0,1.78,1c.58.27,1.43.42,1.72-.15a1.42,1.42,0,0,0,.1-.58l.21-12.75a3.6,3.6,0,0,0-.06-.8l.33-10a16.31,16.31,0,0,0-.25-4.36,23.84,23.84,0,0,0-1.89-4.38c-3.56-7.54-3.14-16.35-5.7-24.29-3.57-11.09-12.53-19.41-20.17-28.21-4.68-5.4-9-11.17-13.46-16.81,2.7-4.66,4-10.05,6.27-15,4.18-9.16,11.49-16.46,16.51-25.17,3.84-6.67,8.83-15.08,7-22.29,0-1.21-1-4.79-1-6" transform="translate(-183.72 -128.81)"/></svg>