<svg id="Layer_1" data-name="Layer 1" xmlns="http://www.w3.org/2000/svg" viewBox="0 0 85.92 106.89"><defs><style>.cls-1{fill:#151515;}.cls-2{fill:#010101;}.cls-3{fill:#020202;}</style></defs><title>muledeer_prints</title><path class="cls-1" d="M356.76,344.52" transform="translate(-245.54 -234.76)"/><path class="cls-2" d="M251.92,317.78c2.53,3,7.43,4.33,10.4,1.78a8.87,8.87,0,0,0,2.53-4.88c2.39-10.6-3.77-21.6-2-32.33a66.79,66.79,0,0,1,2-7.59c2.06-7.19,2.92-14.66,3.77-22.09,0-.46.07-1-.3-1.29s-.94-.08-1.36.15c-4.42,2.41-7.6,6.64-9.82,11.16s-3.61,9.38-5.35,14.11c-1.84,5-4.1,9.89-5.32,15.08-1,4.48-1.53,10,.44,14.28C248.61,309.92,249.17,314.53,251.92,317.78Z" transform="translate(-245.54 -234.76)"/><path class="cls-2" d="M276.77,318.35c2.1,2.6,6.11,4.27,8.77,2.24a8.3,8.3,0,0,0,2.36-3.68,75.91,75.91,0,0,0,5.33-23.77,22.32,22.32,0,0,0-.19-5.48,25.65,25.65,0,0,0-2.1-5.84c-4.42-9.82-8.92-19.75-15.63-28.18a2.61,2.61,0,0,0-1.78-1.22c-1.32,0-1.82,1.7-1.85,3-.12,6.39,1.37,12.7,1.66,19.08.13,2.94,0,5.89.16,8.83.36,6.59,2.14,13.07,1.93,19.69C275.25,308.91,272.46,313,276.77,318.35Z" transform="translate(-245.54 -234.76)"/><path class="cls-2" d="M259.53,332.92a11.11,11.11,0,0,0-4.06-1.46,4.79,4.79,0,0,0-2.13,0,3.42,3.42,0,0,0-1.42.89,4,4,0,0,0-1.07,4.15,5.24,5.24,0,0,0,3.65,2.71,19.69,19.69,0,0,1,4.49,1.4c2.51,1.45,3.91,1.92,3.76-1.81A7.43,7.43,0,0,0,259.53,332.92Z" transform="translate(-245.54 -234.76)"/><path class="cls-2" d="M287.64,338c1.6-1.76,2.41-4.47,1.29-6.58a2.78,2.78,0,0,0-1.61-1.44,3.82,3.82,0,0,0-2.89.75c-2.48,1.5-4.84,3.56-5.65,6.34a3.38,3.38,0,0,0,2.92,4.38C283.68,341.57,286.41,339.36,287.64,338Z" transform="translate(-245.54 -234.76)"/><path class="cls-3" d="M324.06,299a7.14,7.14,0,0,0,5.76-2c1.68-1.88,1.76-4.66,1.56-7.16a63.35,63.35,0,0,0-8.36-26A118.32,118.32,0,0,0,306.5,242c-2.4-2.59-4.92-5.16-8.06-6.77-.91-.46-2.37-.62-2.64.36a1.75,1.75,0,0,0,.1,1c1.25,4.15,3.48,7.91,5.54,11.72A151.32,151.32,0,0,1,311,270c2.66,7.6,4.1,15.32,6.08,23.08A7.39,7.39,0,0,0,324.06,299Z" transform="translate(-245.54 -234.76)"/><path class="cls-3" d="M299.07,304.36a7.17,7.17,0,0,1-6.05.88c-2.35-.89-3.71-3.32-4.69-5.63a63.41,63.41,0,0,1-4.58-26.89,117.91,117.91,0,0,1,4.53-27c.92-3.41,2-6.86,4-9.73.59-.83,1.8-1.65,2.5-.9a1.84,1.84,0,0,1,.37.91c.8,4.26.56,8.63.5,13a151.56,151.56,0,0,0,1.56,23.7c1.16,8,3.45,15.48,5.28,23.27A7.37,7.37,0,0,1,299.07,304.36Z" transform="translate(-245.54 -234.76)"/></svg>