<!-- Generator: Adobe Illustrator 23.1.1, SVG Export Plug-In  -->
<svg version="1.1" xmlns="http://www.w3.org/2000/svg" xmlns:xlink="http://www.w3.org/1999/xlink" x="0px" y="0px" width="377px"
	 height="177.55px" viewBox="0 0 377 177.55" style="enable-background:new 0 0 377 177.55;" xml:space="preserve">
<style type="text/css">
	.st0{fill:#2C491B;}
	.st1{fill:#FDFDFD;}
</style>
<defs>
</defs>
<path class="st0" d="M324.57,41.62L275.48,0.82c-2.51-2.08-5.96,0.06-5.93,3.67l0.17,18.61c0.02,2.47-1.67,4.48-3.76,4.48H3.76
	C1.68,27.58,0,29.56,0,32.01v109.77c0,2.45,1.68,4.43,3.76,4.43h263.38c2.06,0,3.74,1.95,3.76,4.38l0.21,22.57
	c0.03,3.61,3.53,5.66,5.99,3.52l48.33-42.05l50.05-43.55c2.06-1.79,2.03-5.44-0.07-7.18L324.57,41.62z"/>
<g>
	<path class="st1" d="M57.27,102.49l-1.02-6.18c-0.05-0.33-0.34-0.56-0.68-0.55l-6.68,0.27c-0.3,0.01-0.56,0.23-0.62,0.53
		l-1.76,8.73c-0.07,0.33-0.37,0.56-0.7,0.53l-5.95-0.51c-0.4-0.03-0.68-0.42-0.58-0.82l9.03-36.56c0.08-0.32,0.37-0.53,0.7-0.5
		l8.6,0.74c0.29,0.03,0.53,0.24,0.59,0.53l6.58,34.06c0.08,0.43-0.27,0.82-0.7,0.78l-6.19-0.51
		C57.56,103.02,57.32,102.79,57.27,102.49z M52.03,77.8l-2.4,11.85c-0.08,0.42,0.24,0.81,0.67,0.79l4.27-0.15
		c0.4-0.01,0.69-0.37,0.63-0.76l-1.87-11.7C53.21,77.1,52.18,77.08,52.03,77.8z"/>
	<path class="st1" d="M79.28,78.67c4.6,0,6.89,3.83,6.89,11.49c0,3.84-0.2,7.9-0.61,12.18c-0.03,0.36-0.36,0.64-0.73,0.61l-4.8-0.45
		c-0.36-0.03-0.62-0.35-0.59-0.71c0.34-3.76,0.51-7.55,0.51-11.39c0-4.05-0.57-6.08-1.72-6.08c-0.56,0-1.27,1.4-2.14,4.2
		c-0.86,2.78-1.4,5.51-1.61,8.17c0,0.03,0,0.06,0,0.1c0.06,1.33,0.19,3.63,0.37,6.9c0.02,0.4-0.32,0.75-0.72,0.71l-4.79-0.45
		c-0.32-0.03-0.57-0.3-0.6-0.62c-0.35-4.67-0.53-8.8-0.53-12.38c0-3.44,0.09-6.56,0.27-9.35c0.02-0.38,0.36-0.64,0.73-0.6l2.71,0.29
		c0.28,0.03,0.5,0.22,0.57,0.49c0.13,0.55,0.35,1.53,0.68,2.95C75.19,80.69,77.23,78.67,79.28,78.67z"/>
	<path class="st1" d="M92.69,69.51l4.54,0.53c0.36,0.04,0.61,0.36,0.58,0.71l-0.4,4.53c-0.03,0.37-0.37,0.64-0.74,0.6l-4.54-0.57
		c-0.35-0.04-0.61-0.36-0.58-0.71l0.4-4.49C91.99,69.73,92.32,69.46,92.69,69.51z M92.33,78.69l4.63,0.45
		c0.34,0.03,0.6,0.32,0.6,0.66v23.74c0,0.39-0.34,0.69-0.72,0.66l-4.63-0.45c-0.34-0.03-0.6-0.32-0.6-0.66V79.34
		C91.6,78.95,91.94,78.65,92.33,78.69z"/>
	<path class="st1" d="M114.47,80.24c1.8,0,3.24,0.53,4.32,1.58c0.3,0.29,0.77,0.28,1.02-0.06c1.65-2.2,3.28-3.3,4.9-3.3
		c4.84,0,7.26,3.64,7.26,10.91c0,3.95-0.32,8.72-0.97,14.28c-0.04,0.36-0.36,0.62-0.72,0.59l-4.75-0.41
		c-0.37-0.03-0.63-0.37-0.6-0.74c0.61-6.18,0.92-10.91,0.92-14.2c0-3.41-0.56-5.12-1.67-5.12c-0.49,0-1.06,0.78-1.72,2.35
		c-0.66,1.56-1.09,3.28-1.3,5.18c0,0.03,0,0.05-0.01,0.08c-0.07,4.05-0.19,7.69-0.38,10.93c-0.02,0.37-0.35,0.64-0.72,0.61
		l-4.8-0.45c-0.35-0.03-0.61-0.35-0.59-0.71c0.25-4.62,0.38-8.44,0.38-11.47c0-3.17-0.44-4.75-1.31-4.75c-0.56,0-1.28,0.97-2.17,2.9
		c-0.88,1.91-1.51,3.91-1.89,6.01c-0.01,0.05-0.01,0.1-0.01,0.15c0.03,2.93,0.17,5.95,0.41,9.06c0.03,0.41-0.31,0.75-0.71,0.71
		l-4.78-0.45c-0.32-0.03-0.58-0.3-0.6-0.62c-0.35-4.69-0.53-8.97-0.53-12.85c0-3.78,0.09-7.34,0.28-10.67
		c0.02-0.37,0.34-0.64,0.71-0.62l3.17,0.23c0.29,0.02,0.54,0.23,0.6,0.52c0.14,0.72,0.32,1.72,0.53,3.02
		c0.09,0.57,0.82,0.76,1.17,0.3C111.44,81.24,112.96,80.24,114.47,80.24z"/>
	<path class="st1" d="M139.48,81.2c1.46-1.9,3.38-2.85,5.74-2.85s4.12,0.98,5.25,2.95c1.13,1.97,1.7,4.76,1.7,8.38
		c0,3.49-0.19,8.26-0.58,14.3c-0.02,0.37-0.35,0.66-0.72,0.63l-3.72-0.31l-0.42-1.67c-1.64,0.94-3.31,1.41-5.01,1.41
		c-1.71,0-3.12-0.56-4.23-1.7c-1.11-1.13-1.67-2.76-1.67-4.88c0-2.12,1.05-3.95,3.16-5.48c2.11-1.53,4.53-2.33,7.28-2.4v-1.41
		c0-2.75-0.66-4.12-1.98-4.12c-0.66,0-1.26,0.46-1.8,1.38c-0.45,0.78-0.8,1.64-1.05,2.6c-0.08,0.32-0.37,0.53-0.69,0.5l-3.5-0.34
		c-0.4-0.04-0.68-0.42-0.59-0.81C137.21,84.99,138.15,82.93,139.48,81.2z M141.15,97.78c0,1.11,0.66,1.67,1.98,1.67
		c0.77,0,1.59-0.15,2.44-0.46c0.26-0.09,0.44-0.35,0.45-0.62l0.08-3.17c0.01-0.4-0.35-0.74-0.75-0.68
		c-1.26,0.19-2.24,0.57-2.94,1.14C141.57,96.34,141.15,97.05,141.15,97.78z"/>
	<path class="st1" d="M164.05,65.78c0.36,0.03,0.63,0.34,0.61,0.7c-0.5,8.55-0.74,16.27-0.74,23.16c0,6.48,0.07,11.19,0.22,14.13
		c0.02,0.4-0.32,0.72-0.72,0.68l-4.82-0.45c-0.33-0.03-0.59-0.29-0.6-0.62c-0.13-3.58-0.19-8.54-0.19-14.87
		c0-6.49,0.25-13.98,0.74-22.47c0.02-0.37,0.34-0.66,0.71-0.63L164.05,65.78z"/>
	<path class="st1" d="M187.56,103.68c-0.33-0.03-0.59-0.3-0.6-0.63c-0.33-5.92-0.49-11.09-0.49-15.53c0-4.33,0.09-8.85,0.28-13.54
		c0.02-0.41-0.34-0.74-0.75-0.68l-4.97,0.69c-0.35,0.05-0.67-0.18-0.74-0.53l-0.91-4.77c-0.07-0.37,0.18-0.72,0.55-0.78
		c3.18-0.53,6.33-0.93,9.46-1.19l9.18-0.49c0.33-0.02,0.63,0.22,0.69,0.55l0.77,4.49c0.07,0.39-0.21,0.74-0.6,0.77
		c-1.57,0.09-3.29,0.22-5.16,0.38c-0.33,0.03-0.6,0.31-0.62,0.64c-0.19,4.78-0.29,9.18-0.29,13.19c0,4.04,0.06,9.78,0.2,17.22
		c0.01,0.39-0.33,0.72-0.72,0.68L187.56,103.68z"/>
	<path class="st1" d="M210.23,84.67c-1.45,0-2.54,1.82-3.27,5.45c-0.01,0.05-0.02,0.11-0.01,0.16c0.07,2.41,0.1,4.71,0.1,6.92
		c0,2.04-0.06,4.31-0.17,6.82c-0.02,0.37-0.34,0.67-0.72,0.64l-4.76-0.41c-0.35-0.03-0.61-0.34-0.6-0.69
		c0.1-4.72,0.14-7.32,0.14-7.82c0-5.93-0.27-10.58-0.8-13.94c-0.07-0.43,0.28-0.79,0.72-0.75l2.6,0.28c0.27,0.03,0.5,0.23,0.56,0.5
		c0.22,0.83,0.46,1.56,0.72,2.21c1.71-3.65,3.43-5.48,5.17-5.48c1.31,0,2.48,0.53,3.5,1.59c0.16,0.17,0.22,0.42,0.16,0.65
		l-1.25,4.44C211.76,84.87,211.06,84.67,210.23,84.67z"/>
	<path class="st1" d="M218.84,81.2c1.46-1.9,3.38-2.85,5.74-2.85s4.12,0.98,5.25,2.95c1.13,1.97,1.7,4.76,1.7,8.38
		c0,3.49-0.19,8.26-0.58,14.3c-0.02,0.37-0.35,0.66-0.72,0.63l-3.72-0.31l-0.42-1.67c-1.64,0.94-3.31,1.41-5.01,1.41
		c-1.71,0-3.12-0.56-4.23-1.7c-1.11-1.13-1.67-2.76-1.67-4.88c0-2.12,1.05-3.95,3.16-5.48c2.11-1.53,4.53-2.33,7.28-2.4v-1.41
		c0-2.75-0.66-4.12-1.98-4.12c-0.66,0-1.26,0.46-1.8,1.38c-0.45,0.78-0.8,1.64-1.05,2.6c-0.08,0.32-0.37,0.53-0.69,0.5l-3.5-0.34
		c-0.4-0.04-0.68-0.42-0.59-0.81C216.58,84.99,217.52,82.93,218.84,81.2z M220.51,97.78c0,1.11,0.66,1.67,1.98,1.67
		c0.77,0,1.59-0.15,2.44-0.46c0.26-0.09,0.44-0.35,0.45-0.62l0.08-3.17c0.01-0.4-0.35-0.74-0.75-0.68
		c-1.26,0.19-2.24,0.57-2.94,1.14C220.93,96.34,220.51,97.05,220.51,97.78z"/>
	<path class="st1" d="M245.94,90.16c0.07-0.49,0.1-1.11,0.1-1.88s-0.16-1.55-0.47-2.35c-0.31-0.8-0.71-1.2-1.2-1.2
		c-0.97,0-1.68,1.12-2.11,3.37c-0.44,2.25-0.65,4.31-0.65,6.19c0,3.17,0.64,4.75,1.93,4.75c0.98,0,2.34-1.6,4.08-4.81
		c0.19-0.35,0.65-0.47,0.97-0.24l2.83,2.03c0.25,0.18,0.34,0.51,0.23,0.8c-0.91,2.31-2.02,4.16-3.34,5.56
		c-1.41,1.5-3.11,2.25-5.09,2.25c-1.98,0-3.77-0.78-5.35-2.35c-1.58-1.57-2.38-3.95-2.38-7.15c0-3.41,0.56-6.81,1.67-10.18
		c0.63-1.84,1.56-3.36,2.79-4.54c1.23-1.18,2.81-1.78,4.73-1.78c1.91,0,3.51,0.98,4.78,2.92c1.27,1.95,1.91,4.11,1.91,6.47
		c0,1.01-0.16,1.88-0.47,2.61L245.94,90.16z"/>
	<path class="st1" d="M256.18,103.99c-0.33-0.03-0.59-0.29-0.6-0.62c-0.13-3.6-0.19-8.78-0.19-15.52c0-6.9,0.25-14.17,0.74-21.83
		c0.02-0.37,0.35-0.65,0.71-0.62l4.8,0.37c0.36,0.03,0.63,0.34,0.6,0.7c-0.46,7.61-0.7,14.98-0.74,22.09c0,0.63,0.81,0.9,1.19,0.4
		c2.81-3.61,5.01-7.15,6.59-10.6c0.18-0.4,0.69-0.51,1.02-0.22l3.14,2.75c0.22,0.19,0.29,0.5,0.18,0.77c-1.48,3.36-3.41,6.7-5.77,10
		c-0.17,0.24-0.16,0.58,0.04,0.8c2.41,2.85,4.37,5.53,5.88,8.03c0.16,0.27,0.1,0.6-0.12,0.82l-3.01,2.86
		c-0.3,0.28-0.76,0.24-0.99-0.1c-1.67-2.47-3.99-5.32-6.98-8.53c-0.41-0.44-1.16-0.14-1.15,0.46c0.02,2.86,0.07,5.45,0.17,7.76
		c0.02,0.4-0.32,0.71-0.72,0.67L256.18,103.99z"/>
	<path class="st1" d="M286.09,87.08c0-2.09-0.52-3.13-1.57-3.13c-0.52,0-1,0.25-1.44,0.76c-0.44,0.51-0.65,1.18-0.65,2.04
		c0,0.85,0.16,1.56,0.5,2.11c0.33,0.56,0.94,1.11,1.83,1.65s1.58,0.97,2.09,1.3c0.5,0.33,1.1,0.79,1.8,1.38
		c1.43,1.25,2.14,2.86,2.14,4.83c0,1.97-0.74,3.56-2.22,4.78c-1.48,1.22-3.14,1.83-4.99,1.83c-1.85,0-3.51-0.5-4.99-1.49
		c-1.33-0.89-2.43-1.99-3.3-3.3c-0.17-0.25-0.14-0.59,0.06-0.82l1.9-2.14c0.29-0.33,0.81-0.27,1.05,0.1
		c1.25,1.9,2.56,2.84,3.92,2.84c0.52,0,0.97-0.15,1.36-0.44c0.38-0.3,0.57-0.7,0.57-1.23c0-1.11-0.8-2.14-2.4-3.08
		c-1.71-0.94-3.05-1.98-4.02-3.13c-0.97-1.15-1.46-2.78-1.46-4.88s0.87-4,2.61-5.69c1.74-1.69,3.61-2.53,5.61-2.53
		c2,0,3.58,0.69,4.75,2.06c1.17,1.38,1.75,3.23,1.75,5.56c0,0.76-0.07,1.57-0.21,2.42c-0.05,0.34-0.37,0.59-0.72,0.56l-4.14-0.36
		C286.04,88.26,286.09,87.6,286.09,87.08z"/>
</g>
</svg>
