<!-- Generator: Adobe Illustrator 23.1.1, SVG Export Plug-In  -->
<svg version="1.1" xmlns="http://www.w3.org/2000/svg" xmlns:xlink="http://www.w3.org/1999/xlink" x="0px" y="0px"
	 width="104.82px" height="29.92px" viewBox="0 0 104.82 29.92" style="enable-background:new 0 0 104.82 29.92;"
	 xml:space="preserve">
<style type="text/css">
	.st0{fill:#FDFDFD;}
</style>
<defs>
</defs>
<g>
	<path class="st0" d="M3.6,8.3c-0.02,0.53,0.58,0.83,1,0.5c0.59-0.46,1.25-0.69,1.99-0.69c1.21,0,2.15,0.49,2.83,1.48
		c0.68,0.98,1.02,2.28,1.02,3.88c0,2.38-0.51,4.54-1.52,6.49c-1.02,1.95-2.1,2.92-3.25,2.92c-0.49,0-0.95-0.04-1.36-0.11
		c-0.39-0.07-0.76,0.22-0.75,0.62c0.04,2.19,0.09,4.15,0.17,5.89c0.02,0.38-0.3,0.68-0.68,0.64L0.7,29.68
		c-0.31-0.03-0.55-0.28-0.56-0.6C0.05,25.55,0,21.8,0,17.85c0-3.87,0.12-7.25,0.37-10.13C0.4,7.37,0.71,7.12,1.06,7.16l2,0.21
		c0.32,0.03,0.56,0.31,0.55,0.64L3.6,8.3z M4.46,19.8c0.57,0,1.11-0.56,1.62-1.69c0.5-1.13,0.75-2.26,0.75-3.4
		c0-1.14-0.1-2.02-0.31-2.65c-0.21-0.63-0.44-0.94-0.71-0.94c-0.45,0-0.85,0.27-1.18,0.8c-0.33,0.52-0.67,1.25-1.02,2.2
		c-0.02,0.07-0.04,0.14-0.04,0.21c-0.02,1.07-0.03,2.68-0.03,4.82C3.85,19.59,4.15,19.8,4.46,19.8z"/>
	<path class="st0" d="M16.29,0.18c0.34,0.03,0.59,0.32,0.57,0.66c-0.28,4.95-0.43,9.42-0.43,13.42c0,3.63,0.04,6.32,0.12,8.07
		c0.02,0.37-0.3,0.67-0.67,0.64l-2.38-0.22c-0.31-0.03-0.55-0.28-0.56-0.59c-0.07-2.09-0.1-4.94-0.1-8.55
		c0-3.77,0.14-8.11,0.42-13.01c0.02-0.35,0.32-0.61,0.67-0.59L16.29,0.18z"/>
	<path class="st0" d="M21.3,9.29c0.86-1.12,1.99-1.68,3.39-1.68c1.4,0,2.43,0.58,3.09,1.74c0.67,1.16,1,2.81,1,4.94
		c0,2.01-0.11,4.74-0.33,8.2c-0.02,0.35-0.32,0.61-0.67,0.58l-1.52-0.13c-0.26-0.02-0.48-0.21-0.55-0.47l-0.14-0.56
		c-0.96,0.55-1.95,0.83-2.95,0.83c-1.01,0-1.84-0.33-2.49-1c-0.66-0.67-0.98-1.63-0.98-2.88c0-1.25,0.62-2.33,1.86-3.23
		c1.24-0.9,2.67-1.37,4.29-1.42V13.4c0-1.62-0.39-2.43-1.17-2.43c-0.39,0-0.74,0.27-1.06,0.82c-0.24,0.41-0.43,0.86-0.57,1.35
		c-0.08,0.29-0.35,0.49-0.64,0.46l-1.61-0.16c-0.38-0.04-0.63-0.41-0.54-0.79C20.04,11.36,20.57,10.24,21.3,9.29z M22.28,19.07
		c0,0.66,0.39,0.98,1.17,0.98c0.41,0,0.85-0.07,1.3-0.22c0.24-0.08,0.4-0.31,0.41-0.57l0.03-1.43c0.01-0.39-0.35-0.7-0.74-0.62
		c-0.6,0.12-1.08,0.33-1.43,0.62C22.53,18.22,22.28,18.63,22.28,19.07z"/>
	<path class="st0" d="M39.65,7.43l1.84,1.07c0.25,0.15,0.37,0.44,0.28,0.71c-1.62,5.1-3.28,11.76-4.97,19.98
		c-0.06,0.31-0.35,0.52-0.66,0.5l-2.14-0.19c-0.37-0.03-0.63-0.38-0.55-0.74c0.32-1.5,0.8-3.43,1.43-5.8
		c0.04-0.14,0.02-0.3-0.04-0.43c-1.82-3.57-3-8.01-3.55-13.32c-0.04-0.39,0.29-0.72,0.68-0.68l2.19,0.21
		c0.3,0.03,0.53,0.27,0.55,0.57c0.2,2.35,0.48,4.47,0.83,6.38c0.12,0.66,1.06,0.67,1.21,0.02c0.67-2.93,1.33-5.56,2-7.9
		C38.85,7.4,39.3,7.23,39.65,7.43z"/>
	<path class="st0" d="M52.32,9.29c0.86-1.12,1.99-1.68,3.39-1.68s2.43,0.58,3.09,1.74c0.67,1.16,1,2.81,1,4.94
		c0,2.01-0.11,4.74-0.33,8.2c-0.02,0.35-0.32,0.61-0.67,0.58l-1.52-0.13c-0.26-0.02-0.48-0.21-0.55-0.47l-0.14-0.56
		c-0.96,0.55-1.95,0.83-2.95,0.83c-1.01,0-1.84-0.33-2.49-1c-0.66-0.67-0.98-1.63-0.98-2.88c0-1.25,0.62-2.33,1.86-3.23
		c1.24-0.9,2.67-1.37,4.29-1.42V13.4c0-1.62-0.39-2.43-1.17-2.43c-0.39,0-0.74,0.27-1.06,0.82c-0.24,0.41-0.43,0.86-0.57,1.35
		c-0.08,0.29-0.35,0.49-0.64,0.46l-1.61-0.16c-0.38-0.04-0.63-0.41-0.54-0.79C51.06,11.36,51.59,10.24,52.32,9.29z M53.3,19.07
		c0,0.66,0.39,0.98,1.17,0.98c0.41,0,0.85-0.07,1.3-0.22c0.24-0.08,0.4-0.31,0.41-0.57l0.03-1.43c0.01-0.39-0.35-0.7-0.74-0.62
		c-0.6,0.12-1.08,0.33-1.43,0.62C53.55,18.22,53.3,18.63,53.3,19.07z"/>
	<path class="st0" d="M67.09,26.57c0.64,0,1.15-0.65,1.54-1.95c0.23-0.78,0.4-1.67,0.49-2.68c0.05-0.59-0.68-0.91-1.07-0.47
		c-0.72,0.81-1.45,1.22-2.2,1.22c-1.16,0-2.09-0.39-2.8-1.18c-0.71-0.79-1.06-1.99-1.06-3.6c0-1.61,0.28-3.21,0.83-4.8
		c0.55-1.59,1.24-2.86,2.05-3.82c0.81-0.95,1.59-1.43,2.32-1.43c1.24,0,2.38,0.48,3.43,1.44c0.09,0.08,0.2,0.14,0.32,0.16l1.34,0.19
		c0.34,0.05,0.57,0.36,0.52,0.7c-0.2,1.32-0.29,3.16-0.29,5.53c0,2.76-0.08,4.79-0.23,6.09c-0.15,1.3-0.41,2.58-0.75,3.83
		c-0.35,1.25-0.86,2.25-1.54,2.99c-0.68,0.74-1.57,1.11-2.68,1.11c-1.11,0-2.16-0.45-3.17-1.34c-0.84-0.75-1.55-1.62-2.12-2.62
		c-0.18-0.31-0.03-0.72,0.3-0.86l1.45-0.62c0.28-0.12,0.61-0.02,0.77,0.24C65.28,25.95,66.13,26.57,67.09,26.57z M67.95,11
		c-0.51,0-1.03,0.74-1.55,2.22c-0.52,1.48-0.78,3.05-0.78,4.71c0,0.64,0.09,1.12,0.26,1.45c0.17,0.33,0.37,0.49,0.58,0.49
		c0.22,0,0.5-0.21,0.85-0.62c0.35-0.41,0.72-1.07,1.12-1.97c0.39-0.89,0.68-1.87,0.87-2.93c0.01-0.03,0.01-0.07,0.01-0.11l0.05-2.02
		c0-0.17-0.06-0.33-0.18-0.45C68.67,11.26,68.26,11,67.95,11z"/>
	<path class="st0" d="M76.75,9.29c0.86-1.12,1.99-1.68,3.39-1.68s2.43,0.58,3.09,1.74c0.67,1.16,1,2.81,1,4.94
		c0,2.01-0.11,4.74-0.33,8.2c-0.02,0.35-0.32,0.61-0.67,0.58l-1.52-0.13c-0.26-0.02-0.48-0.21-0.55-0.47l-0.14-0.56
		c-0.96,0.55-1.95,0.83-2.95,0.83c-1.01,0-1.84-0.33-2.49-1c-0.66-0.67-0.98-1.63-0.98-2.88c0-1.25,0.62-2.33,1.86-3.23
		c1.24-0.9,2.67-1.37,4.29-1.42V13.4c0-1.62-0.39-2.43-1.17-2.43c-0.39,0-0.74,0.27-1.06,0.82c-0.24,0.41-0.43,0.86-0.57,1.35
		c-0.08,0.29-0.35,0.49-0.64,0.46l-1.61-0.16c-0.38-0.04-0.63-0.41-0.54-0.79C75.49,11.36,76.02,10.24,76.75,9.29z M77.74,19.07
		c0,0.66,0.39,0.98,1.17,0.98c0.41,0,0.85-0.07,1.3-0.22c0.24-0.08,0.4-0.31,0.41-0.57l0.03-1.43c0.01-0.39-0.35-0.7-0.74-0.62
		c-0.6,0.12-1.08,0.33-1.43,0.62C77.98,18.22,77.74,18.63,77.74,19.07z"/>
	<path class="st0" d="M88.59,2.43l2.22,0.26c0.33,0.04,0.57,0.34,0.54,0.67l-0.2,2.21c-0.03,0.35-0.35,0.6-0.69,0.56l-2.22-0.28
		c-0.33-0.04-0.57-0.34-0.54-0.67l0.2-2.19C87.93,2.64,88.24,2.39,88.59,2.43z M88.39,7.84l2.27,0.22c0.32,0.03,0.56,0.3,0.56,0.62
		V22.2c0,0.36-0.31,0.65-0.68,0.62l-2.27-0.22c-0.32-0.03-0.56-0.3-0.56-0.62V8.45C87.71,8.09,88.02,7.8,88.39,7.84z"/>
	<path class="st0" d="M100.76,7.8c2.71,0,4.06,2.26,4.06,6.77c0,2.19-0.11,4.51-0.34,6.95c-0.03,0.34-0.34,0.6-0.68,0.56l-2.37-0.22
		c-0.34-0.03-0.58-0.33-0.55-0.67c0.19-2.14,0.28-4.3,0.28-6.49c0-2.39-0.34-3.59-1.02-3.59c-0.33,0-0.75,0.83-1.26,2.48
		c-0.51,1.64-0.82,3.24-0.95,4.8c0,0.03,0,0.06,0,0.09c0.04,0.75,0.1,2.02,0.2,3.79c0.02,0.38-0.3,0.69-0.68,0.65l-2.37-0.22
		c-0.3-0.03-0.54-0.27-0.56-0.58c-0.2-2.68-0.3-5.04-0.3-7.11c0-1.93,0.05-3.69,0.14-5.27c0.02-0.35,0.33-0.61,0.68-0.57l1.2,0.13
		c0.26,0.03,0.48,0.22,0.54,0.47c0,0.01,0,0.01,0,0.02c0.12,0.53,0.83,0.65,1.13,0.19C98.86,8.54,99.81,7.8,100.76,7.8z"/>
</g>
</svg>
