<!-- Generator: Adobe Illustrator 23.1.1, SVG Export Plug-In  -->
<svg version="1.1" xmlns="http://www.w3.org/2000/svg" xmlns:xlink="http://www.w3.org/1999/xlink" x="0px" y="0px"
	 width="253.96px" height="100.9px" viewBox="0 0 253.96 100.9" style="enable-background:new 0 0 253.96 100.9;"
	 xml:space="preserve">
<style type="text/css">
	.st0{opacity:0.64;}
	.st1{fill:#FDFDFD;}
</style>
<defs>
</defs>
<g id="_x33_IzCkZ_2_" class="st0">
	<g>
		<path class="st1" d="M215.7,86.38c-4.47-1.36-6.57,1.04-9.67,4.2c-7.85,7.97-19.68,9.45-32.03,8.9
			c-6.05-0.27-11.74-3.62-17.11-3.39c-5.21,0.23-10.5,3.59-16.28,4.26c-11.92,1.37-23.44,0.31-33.69-4.87
			c-2.94-1.49-4.84-1.36-7.89-0.1c-19.99,8.25-45.76,4.08-58.48-9.2c-2.93-3.06-5.61-6.41-5.84-10.08c-0.26-4.11-3.1-4.96-7.42-5.68
			c-5.95-1-11.26-3.21-16.07-6.05c-14.66-8.67-14.99-22.62-0.76-31.66c8.92-5.67,19.5-7.87,30.85-8.33c2.42-0.1,4.08-0.55,5.79-1.99
			C60.4,11.13,79,7.61,98.05,12.71c2.71,0.73,4.29,0.86,6.61-1.05C126.6-6.41,162.34-3,177.73,18.62c1.46,2.05,3.15,2,5.38,2.12
			c10.14,0.5,19.71,2.46,28.11,6.94c6.52,3.47,11.51,7.91,12.99,14.05c0.47,1.96,1.38,2.72,4.05,3.3
			c7.13,1.54,13.56,4.22,18.74,8.42c10.09,8.19,9.18,18.86-2.36,25.94C236.51,84.37,226.98,86.24,215.7,86.38z"/>
	</g>
</g>
</svg>
