<!-- Generator: Adobe Illustrator 23.1.1, SVG Export Plug-In  -->
<svg version="1.1" xmlns="http://www.w3.org/2000/svg" xmlns:xlink="http://www.w3.org/1999/xlink" x="0px" y="0px" width="42.36px"
	 height="20.86px" viewBox="0 0 42.36 20.86" style="enable-background:new 0 0 42.36 20.86;" xml:space="preserve">
<style type="text/css">
	.st0{fill:#FFFFFF;}
</style>
<defs>
</defs>
<g>
	<path class="st0" d="M12.57,0.31l0.03,13.02c0,2.15-0.08,4.45-0.22,6.92l-3.14-0.31c-2.41-5.47-4.38-9.57-5.91-12.29
		c0.02,2.76,0.03,7.17,0.03,13.22L0.08,20.5C0.03,19.34,0,18.22,0,17.14c0-4.52,0.25-9.78,0.76-15.79l3.72,0.36
		c1.85,5.1,3.51,8.97,4.98,11.62C9.35,7.69,9.22,3.25,9.07,0L12.57,0.31z"/>
	<path class="st0" d="M18.96,18c0.71,0,1.46-0.68,2.27-2.04l2.13,1.26c-0.35,0.62-0.7,1.14-1.02,1.57
		c-0.33,0.43-0.82,0.84-1.47,1.23s-1.38,0.59-2.18,0.59c-1.18,0-2.17-0.5-2.97-1.5c-0.8-1-1.2-2.35-1.2-4.05
		c0-1.94,0.34-3.75,1.04-5.43c0.37-0.88,0.91-1.59,1.61-2.14c0.7-0.55,1.42-0.83,2.16-0.83s1.33,0.12,1.78,0.35
		c0.45,0.23,0.81,0.49,1.08,0.78c0.27,0.29,0.51,0.71,0.71,1.27c0.21,0.56,0.35,1.02,0.43,1.37c0.08,0.35,0.15,0.87,0.21,1.54
		c0.07,0.9,0.11,1.71,0.11,2.44c-1.49,0.41-3.43,0.78-5.8,1.12c0.06,0.75,0.19,1.34,0.39,1.79C18.43,17.78,18.68,18,18.96,18z
		 M19.57,9.41c-0.41,0-0.78,0.41-1.11,1.23c-0.33,0.82-0.52,1.77-0.57,2.86c0.99-0.21,1.85-0.4,2.58-0.59
		C20.47,10.57,20.17,9.41,19.57,9.41z"/>
	<path class="st0" d="M27.24,20.83l-2.97-0.87c0.86-2,1.94-4.11,3.25-6.33c-1.12-2.07-1.9-4.38-2.35-6.92l3.11,0.31
		c0.26,1.31,0.64,2.65,1.15,4.03c1.12-1.79,1.93-3.44,2.44-4.96l2.41,1.18c-0.65,2.04-1.8,4.12-3.44,6.24
		c0.82,1.92,1.87,3.63,3.14,5.12l-2.1,1.99c-1.06-1.38-1.99-2.89-2.77-4.54C28.18,18.28,27.56,19.86,27.24,20.83z"/>
	<path class="st0" d="M42.36,8.32v2.66c-0.9,0-1.59,0.01-2.07,0.03c-0.06,1.87-0.08,5-0.08,9.41l-3.3-0.31
		c0-3.27,0.03-6.23,0.08-8.88c-0.28,0-0.81,0.05-1.6,0.14l-0.42-2.3c0.45-0.09,1.15-0.21,2.1-0.36c0.04-1.38,0.11-3.4,0.22-6.05
		l3.33,0.31c-0.11,1.85-0.2,3.64-0.25,5.38C40.84,8.33,41.5,8.32,42.36,8.32z"/>
</g>
</svg>
