<svg id="Layer_1" data-name="Layer 1" xmlns="http://www.w3.org/2000/svg" viewBox="0 0 279.27 83.22"><defs><style>.cls-1{fill:#151515;}.cls-2{fill:#ae925e;}.cls-3{fill:#826a43;}.cls-4{fill:#fff;}.cls-5{fill:#020202;}.cls-6,.cls-9{fill:none;stroke-miterlimit:10;}.cls-6{stroke:#000;}.cls-7{fill:#c6a367;}.cls-8{fill:#c29e60;}.cls-9{stroke:#020202;}</style></defs><title>sagebrush_lizard-</title><path class="cls-1" d="M356.76,344.52" transform="translate(-148.45 -246.95)"/><path class="cls-2" d="M363.14,253c.63-.32,1.41-.63,2-.25a1.58,1.58,0,0,1,.27,2c-.71,1.36-2.32,2-3.79,2.42s-3,.95-4.52,1.38a66.38,66.38,0,0,1-9.05,1.88C353.23,258.4,358.17,255.51,363.14,253Z" transform="translate(-148.45 -246.95)"/><path class="cls-3" d="M366,253.35c.48,2-1.09,4-3,4.78a13.11,13.11,0,0,1-6.08.39c1.4-2.92,4.86-4.1,8-5" transform="translate(-148.45 -246.95)"/><path class="cls-2" d="M159.06,300.67c45.26-26.9,100.17-29.95,152.5-35.83,28.84-3.24,57.64-7.57,85.65-15.17,5.35-1.45,10.8-3,16.33-2.66s11.26,3.16,13.5,8.23a5.85,5.85,0,0,1,.15,5.11,6.67,6.67,0,0,1-2,2c-8.7,6.48-20.51,7.39-29.51,13.45-6.89,4.64-11.52,11.88-16,18.91a7.52,7.52,0,0,0-1.46,3.52c-.11,2.18,1.61,4,3.21,5.46,4.74,4.42,11.75,9,17.16,6.36a.48.48,0,0,1,.64.65l-1.71,3.46a36.72,36.72,0,0,0,7.54,6,.14.14,0,0,1-.11.26l-6.43-1.77a7.39,7.39,0,0,1,2.29,1.7,15.7,15.7,0,0,1,2,2.23,17,17,0,0,1,1.57,2.59c.28.57,1.22,2.11.93,2.72-.29,0-.45-.27-.61-.5a27.22,27.22,0,0,0-2.9-3.28c-1.09-1.18-2.17-2.37-3.3-3.5a22.44,22.44,0,0,1,3.79,8.06.41.41,0,0,1-.73.33,27.06,27.06,0,0,0-9.4-8.06,4.41,4.41,0,0,1-.83,4.61.39.39,0,0,1-.66-.26c-.44-4.72-4.23-8.64-8.37-11.09-4.36-2.6-9.32-4.13-13.5-7-3.5-2.4-6.56-6.95-4.52-10.68,1.83-3.34,7.29-6.19,5-9.23a89.54,89.54,0,0,1-53.2,8.11c3.26,2.21,3.29,7.79.06,10-1.7,1.18-3.87,1.42-5.94,1.61q-10.86,1-21.76,1.35a27,27,0,0,1,6,6.75.57.57,0,0,1-.75.8l-5.9-3.08a29.3,29.3,0,0,1,2.41,8.4.29.29,0,0,1-.56.15,9.09,9.09,0,0,0-3.82-4.08l.77,7.76a.67.67,0,0,1-1.3.31L283,319.34a26.38,26.38,0,0,0-3.09,7.07.3.3,0,0,1-.58-.09V314.27a10.29,10.29,0,0,1-8,6.25.59.59,0,0,1-.65-.74,29.78,29.78,0,0,1,26.71-20.54A14.15,14.15,0,0,1,290.3,289c-34.64-9.05-68.64-7.06-102.69,4a139.23,139.23,0,0,0-18,7c-5.38,2.39-4.18,2.06-17.42,9.54a1.15,1.15,0,0,1-1.58-1.56C152.42,304.82,156,302.51,159.06,300.67Z" transform="translate(-148.45 -246.95)"/><path class="cls-3" d="M394.82,273.58l14.41-4.94a10.61,10.61,0,0,1-4.43,2c-5.78,1.7-9.72,5.91-15,8.14.11-1.41.47-3.09.7-4.57A9.74,9.74,0,0,0,394.82,273.58Z" transform="translate(-148.45 -246.95)"/><path class="cls-2" d="M308.17,258.2a6.07,6.07,0,0,1,2.75-.4,2.11,2.11,0,0,1,1.84,1.83c0,1.05-.95,1.8-1.83,2.37l-4.41,2.84a12.3,12.3,0,0,1-3,1.58,14.61,14.61,0,0,1-4.43.43,65.31,65.31,0,0,0-13.38,1.42c-2.14.45-9.05,1.15-4.65-1.64,3.23-2,9.65-2.41,13.42-3.69C299.07,261.38,303.57,259.65,308.17,258.2Z" transform="translate(-148.45 -246.95)"/><path class="cls-3" d="M288.12,266.5a61.53,61.53,0,0,0,12.44-.29,20.64,20.64,0,0,0,11.17-5.09,2.72,2.72,0,0,0,1-1.95c-.13-2.36-9.21,2.83-10.68,3.41A72,72,0,0,1,288.12,266.5Z" transform="translate(-148.45 -246.95)"/><path class="cls-3" d="M264,283.06c-28.5-2.59-57.86.49-84.11,11.87,12.82-5.55,28.21-7.91,42-9.53a205.09,205.09,0,0,1,43.82-.47c8,.78,16.08,3.1,24.06,3.67.05-1.58-1.08-3.29-1.46-5A184.43,184.43,0,0,1,264,283.06Z" transform="translate(-148.45 -246.95)"/><path class="cls-3" d="M314.19,292.91a8.82,8.82,0,0,0,2.43,2.09,8.54,8.54,0,0,0,2.93.68,105.48,105.48,0,0,0,24,0,85.86,85.86,0,0,0,12-2.31c3.46-.93,7.21-3.06,10.75-3.4,1.24-.13,2.57.08,3.68-.5a5.78,5.78,0,0,0,1.66-1.5l2.83-3.36c.4-.46.79-1.17.38-1.61-3.28,2.5-7.43,2.67-11.31,4-3.21,1.14-6.31,2.59-9.53,3.7-9,3.08-18.67,3.38-28.17,3.66a20,20,0,0,1-6.33-.49c-4.63-1.36-6.64-6-10.72-7.85C308.39,288,312.87,291.47,314.19,292.91Z" transform="translate(-148.45 -246.95)"/><circle class="cls-4" cx="262.93" cy="7.69" r="3.51"/><circle class="cls-5" cx="263.06" cy="7.56" r="2.77"/><circle class="cls-6" cx="263.32" cy="7.7" r="3.58"/><circle class="cls-4" cx="263.96" cy="6.92" r="0.77"/><ellipse class="cls-3" cx="364.85" cy="268.04" rx="3.5" ry="1" transform="translate(-191.46 -175.39) rotate(-10.58)"/><ellipse class="cls-3" cx="330.85" cy="276.54" rx="2.5" ry="0.5" transform="translate(-193.6 -181.49) rotate(-10.58)"/><ellipse class="cls-3" cx="351.85" cy="278.04" rx="3.5" ry="1" transform="translate(-193.52 -177.61) rotate(-10.58)"/><ellipse class="cls-3" cx="338.35" cy="266.54" rx="3" ry="0.5" transform="translate(-191.64 -180.28) rotate(-10.58)"/><ellipse class="cls-3" cx="349.41" cy="271.46" rx="1.94" ry="0.58" transform="translate(-192.35 -178.17) rotate(-10.58)"/><ellipse class="cls-3" cx="339.84" cy="281.07" rx="2.47" ry="0.44" transform="translate(-194.28 -179.76) rotate(-10.58)"/><ellipse class="cls-3" cx="319.89" cy="271.12" rx="2.47" ry="0.44" transform="matrix(0.98, -0.18, 0.18, 0.98, -192.79, -183.59)"/><ellipse class="cls-3" cx="318.37" cy="284.09" rx="1.96" ry="0.32" transform="translate(-195.2 -183.65) rotate(-10.58)"/><ellipse class="cls-3" cx="331.89" cy="288.12" rx="1.96" ry="0.32" transform="translate(-195.71 -181.1) rotate(-10.58)"/><ellipse class="cls-3" cx="350.89" cy="264.12" rx="1.96" ry="0.32" transform="translate(-190.98 -178.02) rotate(-10.58)"/><ellipse class="cls-3" cx="329.89" cy="270.12" rx="1.96" ry="0.32" transform="translate(-192.44 -181.77) rotate(-10.58)"/><ellipse class="cls-3" cx="320.89" cy="278.12" rx="1.96" ry="0.32" transform="translate(-194.06 -183.29) rotate(-10.58)"/><ellipse class="cls-3" cx="340.89" cy="274.12" rx="1.96" ry="0.32" transform="translate(-192.99 -179.69) rotate(-10.58)"/><path class="cls-7" d="M234.05,276a80.68,80.68,0,0,0-13.57,2.5c15.27-.71,30.41-3,45.52-5.37a5.84,5.84,0,0,0,1.88-.56c-.5-1.85-13.65.87-15.73,1.14Z" transform="translate(-148.45 -246.95)"/><path class="cls-8" d="M375.8,295.57a1.93,1.93,0,0,0,.82-.29c3.28-1.91,5.35-5.32,7.27-8.6.49-.83,1.39-2.14.95-3.05C382.3,288,378.35,291.25,375.8,295.57Z" transform="translate(-148.45 -246.95)"/><path class="cls-5" d="M422.06,259.92c-2.41.7-4.8,1.47-7.17,2.33a3.91,3.91,0,0,0-2.53,1.84c2-1.17,4.43-1.31,6.71-1.79a42.67,42.67,0,0,0,7.51-2.57,2,2,0,0,0,.57-.31,1.48,1.48,0,0,0,.22-1.66A35.78,35.78,0,0,1,422.06,259.92Z" transform="translate(-148.45 -246.95)"/><path class="cls-9" d="M425.53,255.74c-2.24-5.07-8-7.86-13.5-8.24s-11,1.21-16.33,2.67c-10.78,2.92-21.67,5.36-32.63,7.44a4,4,0,0,0,1.4-3.76l-.38.06a1.1,1.1,0,0,0-.46-.66c-.59-.38-1.37-.07-2,.25-4.38,2.21-8.73,4.72-13.25,6.68-12.72,2.06-25.52,3.72-38.33,5.16l-6.11.67c.36-.21.72-.44,1.07-.67l4.41-2.85c.88-.56,1.86-1.31,1.83-2.36a.88.88,0,0,0,0-.16,1,1,0,0,0,0-.3.58.58,0,0,0-.42-.55,2.5,2.5,0,0,0-1.44-.82,5.94,5.94,0,0,0-2.75.4c-4.6,1.44-9.1,3.18-13.66,4.73-3.77,1.29-10.19,1.66-13.42,3.7-1.28.81-1.6,1.32-1.36,1.64-42.23,4.65-84.53,10.91-120.67,32.4-3.09,1.84-6.64,4.15-8.45,7.34a1.16,1.16,0,0,0,1.58,1.57c13.24-7.48,12-7.15,17.42-9.54a139.23,139.23,0,0,1,18-7,205.11,205.11,0,0,1,24.57-6.37c3.28-.48,6.54-.9,9.71-1.27a205.09,205.09,0,0,1,43.82-.47c7.37.71,14.74,2.71,22.07,3.47l2.52.64a14.15,14.15,0,0,0,7.15,10.2,29.78,29.78,0,0,0-26.72,20.54.58.58,0,0,0,.65.73,10.25,10.25,0,0,0,8-6.24v12.05a.3.3,0,0,0,.58.09,26.24,26.24,0,0,1,3.09-7.07l2.36,6.06a.67.67,0,0,0,1.3-.31l-.77-7.76a9,9,0,0,1,3.82,4.08.29.29,0,0,0,.56-.15,29.3,29.3,0,0,0-2.41-8.4l5.9,3.08a.57.57,0,0,0,.75-.8,27,27,0,0,0-6-6.76q10.91-.37,21.76-1.34c2.07-.19,4.24-.43,5.94-1.62,3.23-2.24,3.2-7.82-.06-10a88.63,88.63,0,0,0,19.32.87c2.68-.1,5.35-.3,8-.62a85.86,85.86,0,0,0,12-2.31c3.46-.93,7.21-3.06,10.75-3.41,1.21-.11,2.49.07,3.57-.44-.61,2.26-4.06,4.5-5.45,7-2,3.73,1,8.28,4.52,10.68,4.18,2.88,9.14,4.41,13.5,7,4.14,2.45,7.93,6.37,8.37,11.09a.39.39,0,0,0,.66.25,4.39,4.39,0,0,0,.83-4.6,27,27,0,0,1,9.4,8.06.41.41,0,0,0,.73-.33,22.44,22.44,0,0,0-3.79-8.06c1.13,1.13,2.21,2.32,3.3,3.5a27.22,27.22,0,0,1,2.9,3.28c.16.23.32.48.61.5.29-.61-.65-2.15-.93-2.72a17,17,0,0,0-1.57-2.59,15.18,15.18,0,0,0-2-2.23,7.59,7.59,0,0,0-2.29-1.71l6.43,1.78a.14.14,0,0,0,.11-.26,36.44,36.44,0,0,1-7.54-6l1.71-3.45a.48.48,0,0,0-.64-.65c-5.41,2.66-12.42-1.94-17.16-6.36-1.6-1.49-3.32-3.28-3.21-5.46a7.47,7.47,0,0,1,1.46-3.52c4.43-7,9.06-14.27,15.95-18.91,9-6.06,20.81-7,29.51-13.45a6.67,6.67,0,0,0,2-2A5.82,5.82,0,0,0,425.53,255.74Z" transform="translate(-148.45 -246.95)"/></svg>