<svg id="Layer_1" data-name="Layer 1" xmlns="http://www.w3.org/2000/svg" viewBox="0 0 187.26 149.83"><defs><style>.cls-1{fill:#151515;}.cls-2{fill:#020202;}</style></defs><title>sagebrush_lizard_prints</title><path class="cls-1" d="M356.76,344.52" transform="translate(-195.22 -214.04)"/><path class="cls-2" d="M263.09,357.52a45,45,0,0,0,1.7-11.41l16.68,8.06c2.53,1.22,5.81,2.37,7.94.53-1.2-2.15-4-2.57-6.4-3.17-3.84-1-7.59-3.16-9.32-6.72,1.38-.61,3-.15,4.45.06a13.06,13.06,0,0,0,8.65-1.8c-4.4-2.43-10.37.65-14.73-1.85,1.26-2,3.78-2.64,6-3.26s4.77-1.61,5.59-3.81c-2.1-.87-4.49.19-6.38,1.45s-3.79,2.79-6.06,3c-.64.05-1.46-.18-1.51-.82a42.63,42.63,0,0,0,4.12-7.6c-3.51,3.78-7.3,7.74-12.3,9.06-3.81,1-.26,5.1.25,7.7C262.28,349.24,263.71,355.34,263.09,357.52Z" transform="translate(-195.22 -214.04)"/><path class="cls-2" d="M283.59,318.63a2.63,2.63,0,0,0-1,1.13,2.8,2.8,0,0,0,.67,2.23,22.69,22.69,0,0,1,3.27,8.34c.1.55.3,1.25.86,1.31.73.08,1-.95.9-1.68a11.51,11.51,0,0,0-1.47-4.25,3.33,3.33,0,0,1,3.46-.11,11.9,11.9,0,0,1,2.82,2.3,37.13,37.13,0,0,0,5.36,4.32c.76.5,1.78,1,2.52.44s.54-1.84-.15-2.5a9,9,0,0,0-2.52-1.32,14.82,14.82,0,0,1-4.89-4.41c-.2-.24-.41-.54-.31-.83s.48-.42.81-.45c3.31-.32,6.76,2.31,9.77.89a1.87,1.87,0,0,0,1.14-1.25c.22-1.33-1.62-1.9-3-1.93l-10.11-.2a60.08,60.08,0,0,0,8-3c.89-.4,1.92-1.11,1.74-2.07a1.54,1.54,0,0,0-1.54-1.1A4.84,4.84,0,0,0,298,315a42.85,42.85,0,0,1-8.72,2.59c.32-1.27,1.45-2.13,2.23-3.18s1.09-2.77,0-3.49C291.42,310.86,284.36,318.05,283.59,318.63Z" transform="translate(-195.22 -214.04)"/><path class="cls-2" d="M281.28,270.12c.15-1.68-1.37-3-2.92-3.73s-3.28-1-4.54-2.17a1.47,1.47,0,0,1-.55-.84c-.08-.57.39-1.06.84-1.41,3.34-2.51,8.51-3.06,10.16-6.89a26.85,26.85,0,0,0-8.57,3.64c-1.36.89-3.48,1.76-4.32.37a81.49,81.49,0,0,0,10-12c-4.1.93-6.95,4.52-9.59,7.79a2.93,2.93,0,0,1-1.06.92c-1,.42-2.17-.51-2.43-1.57a6.31,6.31,0,0,1,.38-3.23,43.46,43.46,0,0,0,1.46-15.8c-.54-.27-1,.43-1.22,1-2,6.6-.39,14.09-3.37,20.32-1.13,2.39-3.69,4.69-6.15,3.72a8.37,8.37,0,0,1-2.56-2.05,3.84,3.84,0,0,0-2.89-1.35c-1.1.11-2,1.49-1.33,2.36a2.67,2.67,0,0,0,1.37.72c5.46,1.79,5.23,8.8,10.22,9.71,2.3.42,5.13-.8,7.54-.66C275,269.15,278,270.5,281.28,270.12Z" transform="translate(-195.22 -214.04)"/><path class="cls-2" d="M200.8,315.24c1.2,2,3.08,4.17,5.41,3.82,2.56-.38,4-3.66,6.56-3.91,2.24-.22,4.81,1.9,6.48.4-.21-1.63-2.07-2.49-3.7-2.69s-3.41-.07-4.79-1l8.36-5.23c.65-.4,1.34-1.35.71-1.79a1.18,1.18,0,0,0-1,0,28.69,28.69,0,0,0-7.23,3.31c-.73.46-2,.82-2.25,0a1.38,1.38,0,0,1,.21-1.05c2.21-4,7.82-6,8.32-10.51-2-.32-3.71,1.44-4.83,3.13s-2.31,3.66-4.29,4.09l2-14.12c.11-.74.12-1.68-.55-2-1-.51-1.82.87-2.08,1.94l-4.77,20a2.31,2.31,0,0,1-.92,1.63c-1,.55-2.08-.55-3-1.28-1.15-.94-5.74-2.13-3.77.53.33.44,2,.79,2.58,1.24A13.28,13.28,0,0,1,200.8,315.24Z" transform="translate(-195.22 -214.04)"/><path class="cls-2" d="M222,301.9c.08,1.71.93,3.75,2.64,3.89,1.24.1,2.29-.87,3.49-1.21a4.85,4.85,0,0,1,3.92.8,9.39,9.39,0,0,0,1.71,1.1,1.76,1.76,0,0,0,1.9-.25,6.1,6.1,0,0,0-4.82-4.16c1.78-2.36,5.4-2.38,7.64-4.31a1.55,1.55,0,0,0,.62-1,1.24,1.24,0,0,0-1.21-1.18,3.53,3.53,0,0,0-1.8.49l-6.39,3c1.78-3.73,7.32-4.6,8.75-8.48a1.44,1.44,0,0,0,0-1.15,1.18,1.18,0,0,0-1.4-.5,3.55,3.55,0,0,0-1.34.91l-6.68,6.23a25.74,25.74,0,0,1,1.65-8.72,3.34,3.34,0,0,0,.33-2c-.18-.66-1.08-1.15-1.59-.68a1.49,1.49,0,0,0-.37.79l-2.29,9.44a4.11,4.11,0,0,1-.69,1.7,1.42,1.42,0,0,1-1.64.5,2.42,2.42,0,0,1-.83-.88c-.86-1.23-6-4.31-4.87-1.37.35.94,2.27,1.49,2.81,2.63C222.26,298.81,222,300.49,222,301.9Z" transform="translate(-195.22 -214.04)"/><path class="cls-2" d="M282.63,242.62a30.18,30.18,0,0,0,1.11,4.2,3.61,3.61,0,0,0,3.3,2.38,11.55,11.55,0,0,0,2.12-.66c2.09-.59,4.24.49,6.14,1.54a2.26,2.26,0,0,0-.25-2.84,6.54,6.54,0,0,0-2.62-1.6,24,24,0,0,0,6.67-4.47.86.86,0,0,0,.33-.51c.05-.42-.46-.67-.88-.71-2.94-.29-5.3,3.13-8.24,2.84a4.65,4.65,0,0,1,1.81-2.54,70.66,70.66,0,0,0,6.46-6.49,1.31,1.31,0,0,0,.4-.78c0-.81-1.25-.84-1.93-.4-2.59,1.66-3.38,5.47-6.22,6.62-.28.12-.66.18-.86,0a.81.81,0,0,1-.09-.63l1-8.52a1.51,1.51,0,0,0-.09-.9,1,1,0,0,0-1.54,0,2.91,2.91,0,0,0-.56,1.67l-.87,7.35c-.18,1.46-.72,3.3-2.19,3.41l-4.1-4.18c-1.51-1.54-1.84.6-1.38,1.73S282.18,241.05,282.63,242.62Z" transform="translate(-195.22 -214.04)"/><path class="cls-2" d="M337.09,294.36a45.45,45.45,0,0,0,1.7-11.41L355.46,291c2.54,1.22,5.81,2.37,7.94.53-1.19-2.15-4-2.57-6.4-3.17-3.84-1-7.59-3.16-9.31-6.72,1.37-.61,3-.15,4.45.07a13.13,13.13,0,0,0,8.65-1.81c-4.4-2.43-10.37.65-14.73-1.85,1.25-2,3.78-2.63,6-3.25s4.77-1.62,5.59-3.82c-2.1-.87-4.49.19-6.39,1.45s-3.78,2.8-6.05,3c-.64.05-1.47-.18-1.52-.82a42.68,42.68,0,0,0,4.13-7.6c-3.51,3.78-7.3,7.74-12.3,9.07-3.81,1-.26,5.09.25,7.69C336.27,286.08,337.7,292.19,337.09,294.36Z" transform="translate(-195.22 -214.04)"/><path class="cls-2" d="M357.59,255.47a2.56,2.56,0,0,0-1,1.13,2.76,2.76,0,0,0,.67,2.23,22.68,22.68,0,0,1,3.26,8.34c.1.55.31,1.25.87,1.31.73.08,1-1,.89-1.68a11.33,11.33,0,0,0-1.47-4.25,3.33,3.33,0,0,1,3.46-.11,11.76,11.76,0,0,1,2.83,2.3,37,37,0,0,0,5.35,4.32c.76.5,1.79,1,2.53.44s.54-1.84-.15-2.5a8.68,8.68,0,0,0-2.53-1.31,14.91,14.91,0,0,1-4.88-4.42c-.2-.24-.41-.54-.31-.83s.48-.42.8-.45c3.32-.31,6.77,2.32,9.78.89a1.83,1.83,0,0,0,1.13-1.25c.22-1.33-1.62-1.9-3-1.93l-10.12-.19a61.69,61.69,0,0,0,8-3c.89-.4,1.92-1.11,1.74-2.07a1.55,1.55,0,0,0-1.54-1.1,4.89,4.89,0,0,0-2,.52,42.76,42.76,0,0,1-8.71,2.59c.32-1.27,1.45-2.13,2.22-3.18s1.09-2.77,0-3.49C365.42,247.7,358.35,254.89,357.59,255.47Z" transform="translate(-195.22 -214.04)"/><path d="M207.9,363.87a80.29,80.29,0,0,1,30.72-49.26c7.89-6.05,16.56-10.83,24.89-15.94s16.51-10.44,23.21-17.38,12.35-15,18.28-22.81c3-3.92,6.05-7.81,9.4-11.49,1.68-1.83,3.43-3.61,5.26-5.3s3.76-3.29,5.76-4.77a107.06,107.06,0,0,1,26.09-14c9.23-3.5,18.66-6.3,28.14-8.86-9.28,3.21-18.62,6.29-27.58,10.22a111.28,111.28,0,0,0-25.22,14.51c-7.65,5.95-13.8,13.53-19.57,21.41s-11.45,16-18.42,23.21S273.42,296.09,265,301.1s-17.08,9.69-25,15.38a83,83,0,0,0-20.19,20.76A84.57,84.57,0,0,0,207.9,363.87Z" transform="translate(-195.22 -214.04)"/><path d="M213.49,363.52a79.59,79.59,0,0,1,10.74-26.81A80.7,80.7,0,0,1,244,315.47c7.74-5.9,16.28-10.54,24.5-15.52s16.29-10.28,22.91-17.14,12.23-14.72,18.05-22.43,12.05-15.36,19.95-21.14a107.67,107.67,0,0,1,25.52-13.83c9-3.49,18.28-6.28,27.57-8.89-9.16,3-18.35,6-27.2,9.8a106.4,106.4,0,0,0-24.95,14.14c-7.58,5.85-13.71,13.29-19.43,21s-11.26,15.73-18.08,22.74-15.11,12.37-23.4,17.3-16.76,9.57-24.53,15.19A81.3,81.3,0,0,0,213.49,363.52Z" transform="translate(-195.22 -214.04)"/></svg>