<!-- Generator: Adobe Illustrator 23.1.1, SVG Export Plug-In  -->
<svg version="1.1" xmlns="http://www.w3.org/2000/svg" xmlns:xlink="http://www.w3.org/1999/xlink" x="0px" y="0px" width="66.91px"
	 height="10.92px" viewBox="0 0 66.91 10.92" style="enable-background:new 0 0 66.91 10.92;" xml:space="preserve">
<style type="text/css">
	.st0{fill:#FFFFFF;}
</style>
<defs>
</defs>
<g>
	<path class="st0" d="M6.31,9.31c0.02,0.36,0.03,0.63,0.03,0.82s-0.01,0.32-0.04,0.4c-0.03,0.08-0.07,0.13-0.13,0.14
		c-0.06,0-0.15,0.01-0.26,0.01c-0.11-0.01-0.25-0.01-0.43,0c-0.18,0.01-0.47,0.02-0.89,0.03c-0.42,0.01-0.98,0.02-1.71,0.02
		S1.21,10.72,0,10.7v-0.27C0.03,9.68,0.05,9,0.08,8.39c0.02-0.6,0.03-1.17,0.04-1.69s0.01-1.03,0.01-1.52S0.11,4.19,0.1,3.68
		C0.09,3.17,0.08,2.62,0.08,2.05C0.06,1.47,0.05,0.84,0.04,0.14c0.1-0.04,0.25-0.07,0.46-0.1C0.72,0.01,0.94,0,1.19,0
		c0.24,0,0.47,0.02,0.71,0.05C2.12,0.08,2.3,0.12,2.44,0.18c-0.02,0.65-0.03,1.32-0.02,2c0,0.69,0.01,1.37,0.02,2.06
		s0.02,1.38,0.02,2.06c0,0.69,0,1.35-0.01,1.99v0.01c0.07-0.02,0.2-0.03,0.4-0.02C3.05,8.29,3.28,8.3,3.54,8.31
		C3.8,8.32,4.08,8.33,4.37,8.35c0.29,0.02,0.57,0.03,0.84,0.04s0.5,0.02,0.71,0.02c0.2,0,0.35,0,0.43-0.01c0,0.11,0,0.22-0.01,0.33
		c-0.01,0.1-0.02,0.2-0.02,0.31C6.3,9.14,6.3,9.24,6.31,9.31z"/>
	<path class="st0" d="M8.71,6.92v0.27c0.01,0.3,0.02,0.55,0.04,0.74S8.83,8.3,8.94,8.48c0.12,0.23,0.29,0.4,0.51,0.51
		c0.22,0.11,0.43,0.15,0.65,0.1c0.21-0.04,0.39-0.16,0.53-0.37c0.15-0.2,0.21-0.51,0.19-0.92c0.1,0.01,0.23,0.01,0.41,0.01
		c0.17,0,0.35-0.01,0.53-0.02c0.19-0.01,0.36-0.01,0.53-0.01c0.17,0,0.31,0.02,0.42,0.05c-0.02,0.26-0.04,0.52-0.06,0.77
		s-0.04,0.48-0.08,0.7c-0.03,0.22-0.07,0.4-0.11,0.56c-0.04,0.16-0.1,0.26-0.17,0.32c-0.17,0.24-0.39,0.41-0.66,0.51
		s-0.56,0.16-0.88,0.18c-0.32,0.02-0.65,0.02-0.98,0c-0.33-0.02-0.64-0.03-0.92-0.03c-0.28-0.04-0.54-0.13-0.78-0.27
		c-0.27-0.19-0.5-0.44-0.68-0.74C7.2,9.51,7.05,9.18,6.94,8.81C6.83,8.45,6.76,8.06,6.72,7.65C6.68,7.24,6.67,6.83,6.69,6.42
		c0.03-0.37,0.06-0.73,0.1-1.07C6.82,5,6.9,4.67,7.02,4.33c0.13-0.29,0.33-0.54,0.6-0.74s0.57-0.36,0.92-0.47
		c0.34-0.1,0.7-0.16,1.08-0.17c0.38-0.01,0.75,0.03,1.11,0.12c0.46,0.08,0.83,0.24,1.11,0.48c0.28,0.24,0.49,0.53,0.64,0.87
		c0.14,0.34,0.23,0.71,0.26,1.12c0.03,0.41,0.03,0.82,0,1.25c-0.07,0.02-0.2,0.04-0.4,0.06c-0.19,0.02-0.43,0.04-0.69,0.06
		c-0.27,0.02-0.55,0.04-0.85,0.04c-0.3,0.01-0.59,0.02-0.86,0.02c-0.28,0-0.52,0-0.74-0.02C8.98,6.95,8.81,6.94,8.71,6.92z
		 M10.53,4.59c-0.08-0.05-0.16-0.09-0.24-0.11C10.21,4.45,10.11,4.44,10,4.44c-0.24,0-0.44,0.03-0.58,0.08
		C9.27,4.57,9.15,4.64,9.06,4.73s-0.16,0.2-0.2,0.31c-0.04,0.12-0.08,0.25-0.1,0.38C8.74,5.53,8.73,5.6,8.74,5.65
		c0,0.05,0.05,0.08,0.14,0.09c0.09,0.01,0.23,0.02,0.43,0.01c0.19,0,0.48-0.01,0.86-0.01c0.26,0,0.46,0.01,0.58,0.02
		s0.22,0.01,0.28,0.01c0.05,0,0.08-0.02,0.08-0.04s0-0.08,0-0.16c0-0.2-0.05-0.39-0.16-0.57S10.71,4.68,10.53,4.59z"/>
	<path class="st0" d="M16.2,0.42v2.01c0,0.13,0,0.27,0.01,0.4c0,0.14,0.01,0.29,0.01,0.44c0.31-0.01,0.64-0.02,0.98-0.04
		c0.34-0.02,0.77-0.04,1.28-0.07c0.07,0.08,0.11,0.2,0.12,0.35c0.01,0.16,0.01,0.32,0,0.5c-0.01,0.18-0.02,0.36-0.04,0.55
		s-0.01,0.34,0.01,0.47h-2.33c0,0.54,0,1.07,0,1.58s0,1,0.02,1.45c0.1,0.14,0.24,0.25,0.44,0.33c0.19,0.08,0.39,0.14,0.61,0.19
		c0.22,0.04,0.44,0.07,0.67,0.08s0.42,0.01,0.59,0c0.02,0.14,0.04,0.29,0.06,0.46c0.02,0.17,0.04,0.35,0.05,0.52
		c0.01,0.18,0.01,0.36-0.01,0.54c-0.01,0.18-0.05,0.35-0.1,0.5c-0.4,0.02-0.82,0.02-1.25-0.01c-0.43-0.02-0.83-0.08-1.22-0.17
		c-0.38-0.09-0.72-0.22-1.01-0.4s-0.51-0.42-0.64-0.73c-0.13-0.77-0.21-1.5-0.23-2.18s-0.02-1.39-0.01-2.12
		c-0.16,0.01-0.33,0.02-0.5,0.02c-0.18,0-0.37,0-0.58,0l0.04-1.83c0.2,0.01,0.39,0.02,0.56,0.02s0.34,0,0.5,0
		c0-0.22,0-0.46-0.02-0.71c-0.01-0.25-0.01-0.51-0.01-0.77c0-0.26,0-0.51,0.01-0.75c0-0.24,0.02-0.45,0.04-0.65
		c0.13-0.02,0.27-0.02,0.43-0.01c0.16,0.01,0.32,0.02,0.49,0.04c0.17,0.02,0.34,0.03,0.51,0.04C15.86,0.45,16.03,0.44,16.2,0.42z"/>
	<path class="st0" d="M20.68,3.72h-0.01c-0.04,0-0.15,0.01-0.31,0.03C20.18,3.77,20,3.79,19.81,3.8c-0.19,0.02-0.36,0.02-0.52,0.02
		c-0.16,0-0.24-0.02-0.25-0.08c0.03-0.11,0.07-0.27,0.13-0.48c0.05-0.21,0.11-0.44,0.18-0.71c0.06-0.26,0.13-0.53,0.2-0.8
		S19.7,1.23,19.76,1c0.06-0.23,0.12-0.44,0.17-0.61c0.04-0.17,0.07-0.28,0.08-0.33c0.27,0,0.5,0,0.69-0.01s0.38-0.01,0.57-0.01
		c0.19,0,0.33,0,0.43,0v0.01c-0.12,0.45-0.22,0.83-0.29,1.13c-0.07,0.31-0.15,0.58-0.22,0.84c-0.07,0.25-0.14,0.51-0.21,0.76
		c-0.07,0.25-0.17,0.55-0.29,0.9C20.7,3.69,20.69,3.7,20.68,3.72z"/>
	<path class="st0" d="M28.08,5.49c-0.32,0.05-0.67,0.08-1.06,0.09c-0.38,0.01-0.75-0.02-1.09-0.09c0.03-0.12,0.02-0.24-0.04-0.36
		c-0.06-0.12-0.13-0.23-0.24-0.32c-0.1-0.09-0.23-0.16-0.36-0.2c-0.13-0.04-0.27-0.06-0.4-0.05c-0.23,0.04-0.4,0.13-0.52,0.26
		c-0.11,0.13-0.17,0.28-0.17,0.44c0,0.16,0.06,0.32,0.18,0.48c0.12,0.16,0.29,0.28,0.52,0.36c0.56,0.08,1.08,0.19,1.58,0.32
		c0.49,0.13,0.85,0.35,1.08,0.65c0.22,0.36,0.35,0.73,0.41,1.1c0.05,0.38-0.02,0.84-0.21,1.39c-0.23,0.49-0.59,0.84-1.08,1.05
		c-0.49,0.21-1.03,0.31-1.6,0.3c-0.51,0.02-0.97-0.03-1.38-0.14c-0.41-0.11-0.76-0.27-1.06-0.5c-0.29-0.22-0.52-0.49-0.69-0.81
		C21.79,9.16,21.7,8.8,21.7,8.4V8.35V8.33c0.33-0.04,0.71-0.05,1.12-0.04s0.78,0.02,1.09,0.02c0.01,0.23,0.12,0.42,0.32,0.56
		c0.2,0.15,0.42,0.23,0.65,0.25c0.23,0.03,0.44-0.02,0.63-0.13c0.19-0.11,0.28-0.31,0.27-0.6c0.03-0.24-0.02-0.42-0.16-0.54
		c-0.14-0.12-0.33-0.21-0.56-0.28c-0.23-0.06-0.49-0.12-0.78-0.17c-0.29-0.05-0.57-0.13-0.85-0.25c-0.56-0.19-0.97-0.49-1.22-0.89
		S21.85,5.44,21.86,5c0.02-0.43,0.16-0.84,0.42-1.21c0.26-0.37,0.64-0.62,1.13-0.75c0.19-0.05,0.42-0.09,0.7-0.12
		c0.28-0.03,0.57-0.04,0.88-0.04c0.31,0,0.62,0.02,0.93,0.05c0.31,0.04,0.59,0.08,0.85,0.14c0.47,0.2,0.81,0.52,1.01,0.95
		C27.98,4.46,28.08,4.95,28.08,5.49z"/>
	<path class="st0" d="M38.14,9.31c0.02,0.36,0.03,0.63,0.03,0.82s-0.01,0.32-0.04,0.4c-0.03,0.08-0.07,0.13-0.13,0.14
		c-0.06,0-0.15,0.01-0.26,0.01c-0.11-0.01-0.25-0.01-0.43,0c-0.18,0.01-0.47,0.02-0.89,0.03c-0.42,0.01-0.98,0.02-1.71,0.02
		s-1.69-0.01-2.9-0.03v-0.27C31.86,9.68,31.88,9,31.9,8.39c0.02-0.6,0.03-1.17,0.04-1.69s0.01-1.03,0.01-1.52s-0.01-0.99-0.02-1.5
		c-0.01-0.51-0.02-1.05-0.03-1.63c-0.01-0.58-0.02-1.21-0.03-1.91c0.1-0.04,0.25-0.07,0.46-0.1C32.55,0.01,32.77,0,33.01,0
		c0.24,0,0.47,0.02,0.71,0.05c0.23,0.03,0.41,0.07,0.55,0.13c-0.02,0.65-0.03,1.32-0.02,2c0,0.69,0.01,1.37,0.02,2.06
		s0.02,1.38,0.02,2.06c0,0.69,0,1.35-0.01,1.99v0.01c0.07-0.02,0.2-0.03,0.4-0.02c0.19,0.01,0.42,0.01,0.68,0.02
		c0.26,0.01,0.54,0.02,0.83,0.04c0.29,0.02,0.57,0.03,0.84,0.04s0.5,0.02,0.71,0.02c0.2,0,0.35,0,0.43-0.01c0,0.11,0,0.22-0.01,0.33
		c-0.01,0.1-0.02,0.2-0.02,0.31C38.13,9.14,38.13,9.24,38.14,9.31z"/>
	<path class="st0" d="M40.54,6.92v0.27c0.01,0.3,0.02,0.55,0.04,0.74s0.08,0.38,0.19,0.55c0.12,0.23,0.29,0.4,0.51,0.51
		c0.22,0.11,0.43,0.15,0.65,0.1c0.21-0.04,0.39-0.16,0.53-0.37c0.15-0.2,0.21-0.51,0.19-0.92c0.1,0.01,0.23,0.01,0.41,0.01
		c0.17,0,0.35-0.01,0.53-0.02c0.19-0.01,0.36-0.01,0.53-0.01c0.17,0,0.31,0.02,0.42,0.05c-0.02,0.26-0.04,0.52-0.06,0.77
		s-0.04,0.48-0.08,0.7c-0.03,0.22-0.07,0.4-0.11,0.56c-0.04,0.16-0.1,0.26-0.17,0.32c-0.17,0.24-0.39,0.41-0.66,0.51
		s-0.56,0.16-0.88,0.18c-0.32,0.02-0.65,0.02-0.98,0c-0.33-0.02-0.64-0.03-0.92-0.03c-0.28-0.04-0.54-0.13-0.78-0.27
		c-0.27-0.19-0.5-0.44-0.68-0.74c-0.18-0.31-0.33-0.64-0.44-1.01c-0.11-0.36-0.19-0.75-0.22-1.16c-0.04-0.41-0.05-0.82-0.03-1.23
		c0.03-0.37,0.06-0.73,0.1-1.07c0.03-0.35,0.11-0.68,0.23-1.01c0.13-0.29,0.33-0.54,0.6-0.74s0.57-0.36,0.92-0.47
		c0.34-0.1,0.7-0.16,1.08-0.17c0.38-0.01,0.75,0.03,1.11,0.12c0.46,0.08,0.83,0.24,1.11,0.48c0.28,0.24,0.49,0.53,0.64,0.87
		c0.14,0.34,0.23,0.71,0.26,1.12c0.03,0.41,0.03,0.82,0,1.25c-0.07,0.02-0.2,0.04-0.4,0.06c-0.19,0.02-0.43,0.04-0.69,0.06
		c-0.27,0.02-0.55,0.04-0.85,0.04c-0.3,0.01-0.59,0.02-0.86,0.02c-0.28,0-0.52,0-0.74-0.02C40.8,6.95,40.64,6.94,40.54,6.92z
		 M42.36,4.59c-0.08-0.05-0.16-0.09-0.24-0.11c-0.08-0.02-0.18-0.04-0.29-0.04c-0.24,0-0.44,0.03-0.58,0.08
		c-0.15,0.05-0.27,0.12-0.36,0.21s-0.16,0.2-0.2,0.31c-0.04,0.12-0.08,0.25-0.1,0.38c-0.02,0.11-0.03,0.19-0.02,0.23
		c0,0.05,0.05,0.08,0.14,0.09c0.09,0.01,0.23,0.02,0.43,0.01c0.19,0,0.48-0.01,0.86-0.01c0.26,0,0.46,0.01,0.58,0.02
		s0.22,0.01,0.28,0.01c0.05,0,0.08-0.02,0.08-0.04s0-0.08,0-0.16c0-0.2-0.05-0.39-0.16-0.57S42.54,4.68,42.36,4.59z"/>
	<path class="st0" d="M51.45,3.21c0.01,0.06,0.02,0.12,0.02,0.18s0.01,0.12,0.01,0.18v0.15c-0.03,1.08-0.03,2.14,0.01,3.19
		s0.02,2.1-0.04,3.17c0,0.13,0,0.26-0.01,0.39c-0.01,0.13-0.07,0.21-0.19,0.23h-0.18c-0.16,0-0.32-0.01-0.49-0.02
		c-0.17-0.02-0.33-0.02-0.49-0.02c-0.11,0-0.22,0.01-0.32,0.02c-0.1,0.01-0.21,0.02-0.32,0.02c-0.07-0.02-0.12-0.06-0.14-0.12
		s-0.04-0.13-0.04-0.21c0-0.11,0.01-0.2,0.03-0.27s0.03-0.15,0.03-0.25c-0.24,0.24-0.54,0.44-0.91,0.61
		c-0.37,0.17-0.72,0.25-1.07,0.25c-0.39,0-0.72-0.13-1-0.4c-0.28-0.27-0.5-0.6-0.68-1S45.36,8.47,45.28,8
		c-0.08-0.47-0.13-0.9-0.13-1.31c0-0.5,0.06-0.96,0.19-1.38s0.31-0.78,0.53-1.09c0.22-0.3,0.49-0.54,0.8-0.72
		c0.31-0.17,0.64-0.27,0.99-0.28c0.18,0,0.35,0,0.5,0.01c0.15,0,0.3,0.03,0.43,0.07s0.25,0.12,0.35,0.21c0.1,0.1,0.19,0.23,0.25,0.4
		c-0.01-0.16,0-0.3,0.02-0.41c0.02-0.11,0.04-0.23,0.04-0.35c0-0.01,0.03-0.02,0.1-0.02c0.06,0,0.14,0,0.22,0
		c0.08,0.01,0.16,0.01,0.24,0.01c0.08,0,0.13,0,0.17,0c0.17,0.01,0.38,0.02,0.62,0.03C50.85,3.18,51.13,3.19,51.45,3.21z M47.08,6.2
		c-0.04,0.13-0.07,0.26-0.08,0.4c-0.01,0.13-0.02,0.27-0.02,0.4c0,0.45,0.12,0.83,0.35,1.15s0.56,0.47,0.98,0.47
		c0.25,0,0.44-0.04,0.56-0.13s0.21-0.21,0.27-0.36c0.06-0.15,0.08-0.34,0.09-0.57c0-0.23,0.01-0.48,0.01-0.76
		c0-0.35,0-0.63-0.01-0.83c-0.01-0.21-0.03-0.36-0.08-0.47s-0.12-0.18-0.23-0.21c-0.1-0.03-0.26-0.04-0.47-0.04
		c-0.41,0-0.73,0.1-0.97,0.29C47.28,5.72,47.13,5.95,47.08,6.2z"/>
	<path class="st0" d="M54.6,3.71c0.04-0.02,0.13-0.06,0.28-0.12c0.15-0.06,0.29-0.11,0.43-0.16c0.19-0.06,0.41-0.11,0.65-0.14
		c0.24-0.04,0.47-0.06,0.68-0.07c0.21-0.01,0.39-0.01,0.53-0.01c0.15,0.01,0.22,0.01,0.22,0.02c0,0.34,0,0.64-0.01,0.9
		c0,0.26-0.01,0.49-0.01,0.7s0,0.39,0,0.56s0,0.33,0.02,0.48l-0.14-0.04c-0.05-0.02-0.1-0.04-0.16-0.05
		c-0.06-0.02-0.11-0.03-0.16-0.05c-0.12-0.03-0.24-0.06-0.37-0.08c-0.13-0.02-0.19-0.03-0.2-0.03c-0.27-0.03-0.52-0.05-0.74-0.05
		s-0.42,0.04-0.58,0.11C54.86,5.74,54.73,5.85,54.64,6c-0.09,0.15-0.13,0.37-0.12,0.65c0.01,0.35,0.02,0.68,0.03,0.99
		c0.01,0.31,0.02,0.62,0.02,0.94s0,0.64,0.01,0.96c0.01,0.33,0.01,0.67,0.01,1.04v0.06c-0.17,0.05-0.33,0.08-0.46,0.09
		c-0.14,0.01-0.29,0.01-0.44,0.01c-0.15-0.01-0.31-0.01-0.49-0.02c-0.17-0.01-0.38,0-0.62,0.02c0-1.23-0.01-2.46-0.04-3.69
		c-0.03-1.23-0.02-2.5,0.02-3.83c0.12,0.01,0.22,0.02,0.3,0.02c0.08,0,0.15,0.01,0.23,0.01c0.07,0,0.14,0,0.23-0.01
		c0.08-0.01,0.18-0.01,0.3-0.02c0.04,0,0.11,0,0.22-0.01c0.11-0.01,0.22-0.02,0.33-0.03c0.12-0.01,0.21-0.01,0.3-0.01
		c0.08,0,0.13,0.02,0.13,0.04c0,0.08,0,0.14,0,0.18c0,0.04,0,0.07,0,0.1s0,0.05,0.01,0.08S54.6,3.64,54.6,3.71z"/>
	<path class="st0" d="M60.06,3.99c0.05-0.03,0.11-0.06,0.19-0.1c0.07-0.04,0.14-0.08,0.19-0.12c0.21-0.15,0.44-0.27,0.71-0.36
		c0.26-0.09,0.53-0.14,0.8-0.15c0.27-0.01,0.54,0.02,0.8,0.09c0.26,0.07,0.49,0.19,0.7,0.38c0.1,0.09,0.18,0.28,0.23,0.56
		c0.05,0.29,0.09,0.63,0.1,1.03c0.01,0.4,0.02,0.84,0.01,1.31c0,0.48-0.01,0.96-0.02,1.44c-0.01,0.49-0.02,0.95-0.03,1.4
		c-0.01,0.45-0.01,0.85,0.02,1.19c-0.35,0.05-0.66,0.07-0.94,0.07c-0.28-0.01-0.59-0.01-0.94-0.01c-0.02-0.23-0.03-0.49-0.03-0.78
		s0-0.59,0.01-0.9c0.01-0.31,0.01-0.62,0-0.93c0-0.31-0.02-0.6-0.04-0.87c-0.01-0.12-0.02-0.25-0.03-0.4
		c-0.01-0.14-0.03-0.29-0.05-0.43c-0.03-0.14-0.06-0.27-0.1-0.38c-0.05-0.11-0.11-0.2-0.19-0.25c-0.01-0.01-0.02-0.02-0.03-0.02
		s-0.02,0-0.03-0.02c-0.08-0.04-0.2-0.07-0.35-0.1c-0.16-0.02-0.31-0.01-0.46,0.03s-0.29,0.13-0.41,0.27
		c-0.12,0.13-0.19,0.34-0.21,0.61c-0.02,0.35-0.02,0.69-0.01,1.03c0.01,0.34,0.02,0.67,0.04,1.01c0.02,0.33,0.02,0.67,0.02,1
		c0,0.33-0.02,0.66-0.06,0.99v0.06c-0.17,0.05-0.32,0.08-0.44,0.09s-0.25,0.01-0.38,0.01c-0.13-0.01-0.27-0.01-0.44-0.02
		c-0.16-0.01-0.36,0-0.6,0.02c0-1.23-0.01-2.46-0.04-3.69c-0.03-1.23-0.02-2.5,0.02-3.83c0.12,0.01,0.22,0.02,0.3,0.02
		c0.08,0,0.15,0.01,0.23,0.01c0.07,0,0.14,0,0.23-0.01c0.08-0.01,0.18-0.01,0.3-0.02c0.04,0,0.11-0.01,0.21-0.02
		c0.1-0.01,0.2-0.03,0.3-0.04c0.1-0.01,0.19-0.01,0.27-0.01c0.08,0.01,0.12,0.02,0.12,0.05c0.02,0.17,0.03,0.31,0.02,0.42
		S60.05,3.85,60.06,3.99z"/>
	<path class="st0" d="M64.99,0.15h0.04c0.26-0.02,0.56-0.05,0.91-0.09c0.35-0.04,0.66-0.02,0.94,0.06c-0.02,1.28-0.04,2.6-0.05,3.97
		c-0.02,1.36,0.01,2.69,0.07,3.97c-0.26,0.03-0.58,0.05-0.94,0.05c-0.37,0-0.7,0.01-0.99,0.02h-0.02c0.01-0.66,0.01-1.32,0.01-1.98
		c-0.01-0.66-0.01-1.32-0.02-1.98c-0.01-0.66-0.01-1.33-0.01-2S64.95,0.83,64.99,0.15z M66.16,10.65l-1.12,0.01
		c-0.03,0-0.04-0.06-0.04-0.19s0-0.29,0.01-0.47c0.01-0.18,0.02-0.38,0.04-0.58c0.02-0.2,0.03-0.37,0.03-0.51V8.9
		c0.12-0.05,0.25-0.08,0.4-0.09c0.15-0.01,0.31-0.01,0.47,0c0.17,0.01,0.33,0.02,0.49,0.04c0.16,0.02,0.32,0.02,0.47,0.02
		c-0.01,0.28-0.02,0.58-0.03,0.89s-0.01,0.62-0.01,0.91h-0.1c-0.12,0-0.22,0-0.29-0.01c-0.07,0-0.17-0.01-0.28-0.01H66.16z"/>
</g>
</svg>
