<!-- Generator: Adobe Illustrator 23.1.1, SVG Export Plug-In  -->
<svg version="1.1" xmlns="http://www.w3.org/2000/svg" xmlns:xlink="http://www.w3.org/1999/xlink" x="0px" y="0px"
	 width="203.07px" height="50.13px" viewBox="0 0 203.07 50.13" style="enable-background:new 0 0 203.07 50.13;"
	 xml:space="preserve">
<style type="text/css">
	.st0{fill:#FFFFFF;}
</style>
<defs>
</defs>
<g>
	<path class="st0" d="M24.14,12.74v0.05c0,0.25,0,0.5,0,0.73c0,0.23-0.02,0.46-0.05,0.67c-0.22,1.73-0.78,3.31-1.7,4.75
		c-0.92,1.44-2.06,2.66-3.43,3.67c-1.37,1.01-2.88,1.74-4.54,2.19c-1.66,0.45-3.35,0.53-5.08,0.24c0.04,0.5,0.05,1,0.05,1.49
		c0,0.49,0,1.19,0,2.11s0.01,2.15,0.03,3.7c0.02,1.55,0.06,3.64,0.14,6.26v0.05c-0.04,0-0.06,0.01-0.08,0.03
		c-0.02,0.02-0.05,0.03-0.08,0.03c-0.5,0.14-1.14,0.24-1.92,0.3c-0.77,0.05-1.58,0.09-2.43,0.11c-0.85,0.02-1.68,0.01-2.51-0.03
		c-0.83-0.04-1.55-0.09-2.16-0.16c-0.11-2.63-0.16-5.48-0.16-8.56c0-3.08,0-6.24,0-9.48c0-3.24-0.01-6.5-0.03-9.77
		C0.17,7.85,0.11,4.72,0,1.73c1.48-0.4,3.09-0.68,4.83-0.86c1.75-0.18,3.49-0.2,5.24-0.05c1.75,0.14,3.45,0.46,5.1,0.95
		c1.66,0.49,3.12,1.21,4.4,2.16c1.28,0.95,2.33,2.15,3.16,3.59C23.56,8.95,24.03,10.69,24.14,12.74z M14.69,10.48
		c-0.9-0.72-1.94-1.18-3.13-1.38C10.37,8.9,9.2,8.95,8.05,9.23c-0.07,0-0.13,0.02-0.16,0.05c0.04,0.65,0.04,1.33,0.03,2.05
		c-0.02,0.72-0.02,1.44,0,2.16c0.02,0.72,0.05,1.41,0.11,2.08c0.05,0.67,0.17,1.27,0.35,1.81h0.16c0.58-0.04,1.19-0.06,1.84-0.08
		c0.65-0.02,1.29-0.06,1.92-0.13c0.63-0.07,1.24-0.21,1.84-0.41c0.59-0.2,1.11-0.51,1.54-0.94c0.29-0.4,0.49-0.85,0.62-1.35
		c0.13-0.5,0.14-1.01,0.05-1.51c-0.09-0.5-0.27-0.97-0.54-1.4C15.52,11.12,15.16,10.76,14.69,10.48z"/>
	<path class="st0" d="M26.95,0l7.34,0.16c0,1.48-0.02,3.26-0.05,5.35c-0.04,2.09-0.07,4.32-0.11,6.7c-0.04,2.38-0.06,4.84-0.08,7.4
		c-0.02,2.56-0.03,5.02-0.03,7.4s0.02,4.6,0.05,6.67c0.04,2.07,0.09,3.83,0.16,5.26c-0.18,0.22-0.63,0.33-1.35,0.35
		c-0.72,0.02-1.5,0.02-2.35,0c-0.85-0.02-1.65-0.04-2.4-0.08c-0.76-0.04-1.26-0.02-1.51,0.05c0.25-3.24,0.35-6.5,0.3-9.77
		c-0.05-3.28-0.14-6.55-0.24-9.83c-0.11-3.28-0.17-6.55-0.19-9.83C26.47,6.55,26.62,3.28,26.95,0z"/>
	<path class="st0" d="M59.67,12.37c0.04,0.22,0.06,0.43,0.08,0.65c0.02,0.22,0.03,0.43,0.03,0.65v0.54
		c-0.11,3.89-0.09,7.71,0.05,11.48c0.14,3.76,0.09,7.57-0.16,11.42c0,0.47-0.01,0.94-0.03,1.4c-0.02,0.47-0.24,0.74-0.68,0.81h-0.65
		c-0.58,0-1.16-0.03-1.75-0.08c-0.59-0.05-1.18-0.08-1.75-0.08c-0.4,0-0.78,0.03-1.16,0.08c-0.38,0.05-0.77,0.08-1.16,0.08
		c-0.25-0.07-0.42-0.22-0.51-0.43c-0.09-0.22-0.14-0.47-0.14-0.76c0-0.4,0.04-0.72,0.11-0.97c0.07-0.25,0.11-0.56,0.11-0.92
		c-0.86,0.86-1.95,1.6-3.27,2.21c-1.31,0.61-2.6,0.92-3.86,0.92c-1.4,0-2.6-0.49-3.59-1.46c-0.99-0.97-1.81-2.18-2.46-3.62
		c-0.65-1.44-1.13-3.01-1.43-4.7c-0.31-1.69-0.46-3.26-0.46-4.7c0-1.8,0.23-3.46,0.7-4.97c0.47-1.51,1.11-2.82,1.92-3.92
		c0.81-1.1,1.77-1.96,2.89-2.59c1.12-0.63,2.3-0.96,3.56-1c0.65,0,1.25,0.01,1.81,0.03c0.56,0.02,1.07,0.11,1.54,0.27
		c0.47,0.16,0.88,0.41,1.24,0.76c0.36,0.34,0.67,0.82,0.92,1.43c-0.04-0.58-0.01-1.07,0.08-1.48c0.09-0.41,0.13-0.84,0.13-1.27
		c0-0.04,0.12-0.06,0.35-0.08c0.23-0.02,0.49-0.02,0.78,0c0.29,0.02,0.58,0.03,0.86,0.03c0.29,0,0.49,0,0.59,0
		c0.61,0.04,1.36,0.07,2.24,0.11C57.5,12.24,58.52,12.29,59.67,12.37z M43.96,23.11c-0.14,0.47-0.23,0.94-0.27,1.43
		c-0.04,0.49-0.05,0.96-0.05,1.43c0,1.62,0.42,3,1.27,4.13c0.85,1.13,2.02,1.7,3.54,1.7c0.9,0,1.57-0.15,2.02-0.46
		c0.45-0.31,0.77-0.74,0.97-1.3c0.2-0.56,0.31-1.24,0.32-2.05c0.02-0.81,0.03-1.72,0.03-2.73c0-1.26-0.01-2.26-0.03-3
		c-0.02-0.74-0.11-1.3-0.27-1.7c-0.16-0.4-0.43-0.65-0.81-0.76s-0.94-0.16-1.7-0.16c-1.48,0-2.64,0.35-3.48,1.05
		C44.65,21.41,44.14,22.21,43.96,23.11z"/>
	<path class="st0" d="M69.82,12.42c0.25,1.3,0.54,2.83,0.86,4.62c0.32,1.78,0.67,3.59,1.03,5.43c0.36,1.84,0.74,3.59,1.13,5.27
		c0.4,1.67,0.79,3.05,1.19,4.13c0.4-1.08,0.72-2.5,0.97-4.27c0.25-1.76,0.49-3.6,0.73-5.51c0.23-1.91,0.49-3.74,0.78-5.51
		c0.29-1.76,0.65-3.19,1.08-4.27c1.22,0.04,2.47,0.02,3.73-0.05c1.26-0.07,2.65-0.05,4.16,0.05c-0.58,2.16-1.09,4.22-1.54,6.18
		c-0.45,1.96-0.89,3.88-1.32,5.75c-0.47,1.76-0.89,3.62-1.27,5.56c-0.38,1.94-0.85,3.85-1.4,5.72c-0.56,1.87-1.27,3.65-2.13,5.35
		c-0.86,1.69-2.01,3.16-3.43,4.4c-1.42,1.24-3.19,2.19-5.29,2.83s-4.69,0.88-7.75,0.7c-0.36-1.08-0.55-2.29-0.57-3.65
		c-0.02-1.35,0.06-2.53,0.24-3.54c0.86,0,1.75,0.04,2.67,0.11c0.92,0.07,1.74,0.03,2.46-0.13c0.72-0.16,1.27-0.51,1.65-1.05
		s0.48-1.4,0.3-2.59c-0.76-4.36-1.71-8.71-2.86-13.07c-1.15-4.36-2.29-8.57-3.4-12.64c1.3,0.14,2.66,0.17,4.1,0.08
		C67.37,12.25,68.67,12.28,69.82,12.42z"/>
	<path class="st0" d="M114.48,20.3l4.05,18.9v0.05c-1.08,0.22-2.27,0.3-3.56,0.24c-1.3-0.05-2.52-0.21-3.67-0.46h-0.05
		c-0.22-0.58-0.42-1.26-0.62-2.05c-0.2-0.79-0.4-1.6-0.59-2.43c-0.2-0.83-0.4-1.62-0.62-2.38c-0.22-0.76-0.45-1.4-0.7-1.94
		c-0.47-0.07-0.83-0.11-1.08-0.11c-0.25,0-0.48,0-0.67,0c-0.2,0-0.41,0.01-0.65,0.03c-0.23,0.02-0.55,0.03-0.95,0.03
		c-0.25,0.58-0.46,1.25-0.62,2.02c-0.16,0.77-0.32,1.58-0.49,2.43c-0.16,0.85-0.33,1.67-0.51,2.46c-0.18,0.79-0.43,1.49-0.76,2.11
		c-0.04,0-0.06,0.01-0.08,0.03c-0.02,0.02-0.05,0.03-0.08,0.03c-0.29,0.07-1.01,0.07-2.16,0c-1.15-0.07-2.95-0.09-5.4-0.05
		c-0.04,0-0.07-0.02-0.11-0.05c0.07-0.25,0.2-0.95,0.38-2.11c0.18-1.15,0.43-2.65,0.76-4.48c0.32-1.84,0.71-3.95,1.16-6.35
		c0.45-2.39,0.98-4.94,1.59-7.64c0.61-2.7,1.28-5.51,2-8.42c0.72-2.92,1.51-5.81,2.38-8.69c0.25-0.04,0.52-0.05,0.81-0.05
		c0.29,0,0.67,0,1.13,0c0.47,0,1.07-0.01,1.81-0.03c0.74-0.02,1.7-0.08,2.89-0.19c0.11,0.47,0.28,1.18,0.51,2.13
		c0.23,0.95,0.49,2.03,0.76,3.24c0.27,1.21,0.56,2.49,0.86,3.86c0.31,1.37,0.6,2.68,0.89,3.94c0.29,1.26,0.56,2.41,0.81,3.46
		C114.14,18.86,114.34,19.69,114.48,20.3z M108.97,23.81c-0.36-3.1-0.67-5.51-0.94-7.24s-0.5-2.9-0.7-3.51
		c-0.2-0.61-0.4-0.75-0.59-0.41c-0.2,0.34-0.38,1.04-0.54,2.08c-0.16,1.04-0.34,2.36-0.54,3.94c-0.2,1.58-0.42,3.29-0.68,5.13
		c0.61,0.04,1.26,0.05,1.94,0.03C107.6,23.82,108.29,23.81,108.97,23.81z"/>
	<path class="st0" d="M135,50.06c-0.36,0.07-1.01,0.09-1.94,0.05c-0.94-0.04-2.14-0.05-3.62-0.05c-1.69,0-3.2-0.36-4.54-1.08
		c-1.33-0.72-2.41-1.69-3.24-2.92c-0.14-0.25-0.28-0.59-0.4-1c-0.13-0.41-0.23-0.84-0.32-1.27c-0.09-0.43-0.14-0.85-0.16-1.24
		c-0.02-0.4-0.01-0.74,0.03-1.03c0.36-0.14,0.85-0.24,1.46-0.3c0.61-0.05,1.25-0.07,1.92-0.05c0.67,0.02,1.31,0.05,1.94,0.11
		c0.63,0.05,1.16,0.12,1.59,0.19c0,0.94,0.3,1.68,0.89,2.24c0.59,0.56,1.26,0.87,2,0.94c0.74,0.07,1.46-0.11,2.16-0.54
		c0.7-0.43,1.16-1.15,1.38-2.16c0.04-0.36,0.07-0.73,0.11-1.11c0.04-0.38,0.04-0.71,0-1c-0.07-0.61-0.07-1.24,0-1.89
		c-0.36,0.4-0.78,0.68-1.27,0.86c-0.49,0.18-1.01,0.31-1.57,0.38c-0.56,0.07-1.13,0.11-1.7,0.11c-0.58,0-1.12,0.02-1.62,0.05
		c-0.68,0-1.38-0.05-2.08-0.16c-0.7-0.11-1.37-0.29-2-0.54c-0.63-0.25-1.2-0.59-1.7-1.03c-0.5-0.43-0.92-0.99-1.24-1.67
		c-0.5-0.97-0.86-1.99-1.08-3.05c-0.22-1.06-0.36-2.15-0.43-3.27c0-1.69,0.04-3.51,0.11-5.45c0.07-1.94,0.39-3.77,0.95-5.48
		c0.56-1.71,1.45-3.15,2.67-4.32c1.22-1.17,2.99-1.83,5.29-1.97c1.15-0.07,2.22,0.08,3.21,0.46c0.99,0.38,1.7,1.07,2.13,2.08
		c0.14,0.07,0.22,0.01,0.24-0.19c0.02-0.2,0.02-0.45,0-0.76c-0.02-0.31-0.04-0.61-0.05-0.92c-0.02-0.31,0.03-0.55,0.13-0.73
		c1.19-0.14,2.39-0.19,3.62-0.13c1.22,0.05,2.45,0.08,3.67,0.08c0.14,4.5,0.22,9.21,0.24,14.12c0.02,4.91-0.08,9.96-0.3,15.15
		c-0.04,0.86-0.04,1.72,0,2.57c0.04,0.85-0.13,1.56-0.49,2.13c-0.5,0.79-1.02,1.42-1.54,1.89c-0.52,0.47-1.04,0.84-1.54,1.11
		c-0.5,0.27-1.01,0.46-1.51,0.57C135.9,49.95,135.43,50.02,135,50.06z M125.66,26.46v0.49c0,1.84,0.54,3.4,1.62,4.7
		c0.65,0.79,1.51,1.27,2.59,1.43s2.09,0.1,3.02-0.19c0.32-0.11,0.58-0.28,0.76-0.51c0.18-0.23,0.32-0.5,0.43-0.81
		c0.11-0.31,0.19-0.63,0.24-0.97c0.05-0.34,0.1-0.67,0.13-1c0-1.44-0.03-2.91-0.08-4.4c-0.05-1.49-0.26-2.92-0.62-4.29
		c-0.22-0.54-0.57-0.96-1.05-1.27c-0.49-0.31-1.02-0.49-1.59-0.57c-0.58-0.07-1.14-0.03-1.7,0.13c-0.56,0.16-1.05,0.42-1.48,0.78
		c-0.54,0.61-1,1.29-1.38,2.02c-0.38,0.74-0.64,1.52-0.78,2.35c-0.07,0.36-0.11,0.71-0.11,1.05
		C125.66,25.75,125.66,26.1,125.66,26.46z"/>
	<path class="st0" d="M167.29,12.37c0.04,0.22,0.06,0.43,0.08,0.65c0.02,0.22,0.03,0.43,0.03,0.65v0.54
		c-0.11,3.89-0.09,7.71,0.05,11.48c0.14,3.76,0.09,7.57-0.16,11.42c0,0.47-0.01,0.94-0.03,1.4c-0.02,0.47-0.24,0.74-0.68,0.81h-0.65
		c-0.58,0-1.16-0.03-1.75-0.08c-0.59-0.05-1.18-0.08-1.75-0.08c-0.4,0-0.78,0.03-1.16,0.08c-0.38,0.05-0.77,0.08-1.16,0.08
		c-0.25-0.07-0.42-0.22-0.51-0.43c-0.09-0.22-0.14-0.47-0.14-0.76c0-0.4,0.04-0.72,0.11-0.97c0.07-0.25,0.11-0.56,0.11-0.92
		c-0.86,0.86-1.95,1.6-3.27,2.21c-1.31,0.61-2.6,0.92-3.86,0.92c-1.4,0-2.6-0.49-3.59-1.46c-0.99-0.97-1.81-2.18-2.46-3.62
		c-0.65-1.44-1.13-3.01-1.43-4.7c-0.31-1.69-0.46-3.26-0.46-4.7c0-1.8,0.23-3.46,0.7-4.97c0.47-1.51,1.11-2.82,1.92-3.92
		c0.81-1.1,1.77-1.96,2.89-2.59c1.12-0.63,2.3-0.96,3.56-1c0.65,0,1.25,0.01,1.81,0.03c0.56,0.02,1.07,0.11,1.54,0.27
		c0.47,0.16,0.88,0.41,1.24,0.76c0.36,0.34,0.67,0.82,0.92,1.43c-0.04-0.58-0.01-1.07,0.08-1.48c0.09-0.41,0.13-0.84,0.13-1.27
		c0-0.04,0.12-0.06,0.35-0.08c0.23-0.02,0.49-0.02,0.78,0c0.29,0.02,0.58,0.03,0.86,0.03c0.29,0,0.49,0,0.59,0
		c0.61,0.04,1.36,0.07,2.24,0.11C165.12,12.24,166.14,12.29,167.29,12.37z M151.58,23.11c-0.14,0.47-0.23,0.94-0.27,1.43
		c-0.04,0.49-0.05,0.96-0.05,1.43c0,1.62,0.42,3,1.27,4.13c0.85,1.13,2.02,1.7,3.54,1.7c0.9,0,1.57-0.15,2.02-0.46
		c0.45-0.31,0.77-0.74,0.97-1.3c0.2-0.56,0.31-1.24,0.32-2.05c0.02-0.81,0.03-1.72,0.03-2.73c0-1.26-0.01-2.26-0.03-3
		c-0.02-0.74-0.11-1.3-0.27-1.7c-0.16-0.4-0.43-0.65-0.81-0.76s-0.94-0.16-1.7-0.16c-1.48,0-2.64,0.35-3.48,1.05
		C152.27,21.41,151.76,22.21,151.58,23.11z"/>
	<path class="st0" d="M177.82,12.1h0.92v0.16c-0.04,4.36-0.12,8.8-0.24,13.34c-0.13,4.54-0.06,8.98,0.19,13.34
		c-0.18,0.22-0.63,0.33-1.35,0.35c-0.72,0.02-1.5,0.02-2.35,0c-0.85-0.02-1.65-0.04-2.4-0.08c-0.76-0.04-1.26-0.02-1.51,0.05
		c0.18-2.27,0.26-4.57,0.24-6.91c-0.02-2.34-0.06-4.66-0.13-6.97c-0.07-2.3-0.11-4.58-0.11-6.83c0-2.25,0.11-4.44,0.32-6.56v-0.05
		c0.14-0.04,0.39-0.04,0.73,0c0.34,0.04,0.6,0.05,0.78,0.05c0.47,0.04,1.12,0.07,1.94,0.11C175.68,12.13,176.67,12.13,177.82,12.1z
		 M171.18,0.32l7.34,0.16c0,0.22,0.01,0.6,0.03,1.16c0.02,0.56,0.04,1.17,0.05,1.84c0.02,0.67,0.04,1.35,0.05,2.05
		c0.02,0.7,0.03,1.32,0.03,1.86c-0.14,0.22-0.48,0.36-1,0.43c-0.52,0.07-1.13,0.1-1.84,0.08c-0.7-0.02-1.45-0.05-2.24-0.11
		c-0.79-0.05-1.53-0.06-2.21-0.03c0-1.04-0.05-2.13-0.13-3.27C171.17,3.38,171.14,1.98,171.18,0.32z"/>
	<path class="st0" d="M189.59,15.17c0.18-0.11,0.4-0.23,0.67-0.38c0.27-0.14,0.49-0.29,0.68-0.43c0.76-0.54,1.6-0.97,2.54-1.3
		c0.94-0.32,1.9-0.5,2.89-0.54c0.99-0.04,1.95,0.07,2.89,0.32c0.94,0.25,1.78,0.7,2.54,1.35c0.36,0.32,0.64,1,0.84,2.03
		c0.2,1.03,0.32,2.26,0.38,3.7c0.05,1.44,0.07,3.02,0.05,4.73c-0.02,1.71-0.05,3.44-0.08,5.18c-0.04,1.75-0.07,3.43-0.11,5.05
		c-0.04,1.62-0.02,3.04,0.05,4.27c-1.26,0.18-2.39,0.26-3.38,0.24c-0.99-0.02-2.12-0.03-3.38-0.03c-0.07-0.83-0.11-1.76-0.11-2.81
		c0-1.04,0.01-2.12,0.03-3.24c0.02-1.12,0.02-2.23,0-3.35c-0.02-1.12-0.06-2.16-0.13-3.13c-0.04-0.43-0.07-0.91-0.11-1.43
		c-0.04-0.52-0.1-1.03-0.19-1.54c-0.09-0.5-0.22-0.95-0.38-1.35c-0.16-0.4-0.39-0.7-0.68-0.92c-0.04-0.04-0.07-0.05-0.11-0.05
		c-0.04,0-0.07-0.02-0.11-0.05c-0.29-0.14-0.71-0.26-1.27-0.35c-0.56-0.09-1.11-0.05-1.65,0.11c-0.54,0.16-1.03,0.49-1.46,0.97
		c-0.43,0.49-0.68,1.22-0.76,2.19c-0.07,1.26-0.09,2.49-0.05,3.7c0.04,1.21,0.08,2.41,0.13,3.62c0.05,1.21,0.08,2.4,0.08,3.59
		s-0.07,2.38-0.22,3.56v0.22c-0.61,0.18-1.14,0.29-1.59,0.32c-0.45,0.04-0.91,0.04-1.38,0.03c-0.47-0.02-0.99-0.05-1.57-0.08
		c-0.58-0.04-1.3-0.02-2.16,0.05c0-4.43-0.05-8.86-0.13-13.28c-0.09-4.43-0.06-9.02,0.08-13.77c0.43,0.04,0.79,0.06,1.08,0.08
		c0.29,0.02,0.56,0.03,0.81,0.03c0.25,0,0.52-0.01,0.81-0.03c0.29-0.02,0.65-0.04,1.08-0.08c0.14,0,0.4-0.03,0.76-0.08
		c0.36-0.05,0.72-0.1,1.08-0.13c0.36-0.04,0.68-0.04,0.97-0.03c0.29,0.02,0.43,0.08,0.43,0.19c0.07,0.61,0.1,1.12,0.08,1.51
		C189.55,14.22,189.56,14.67,189.59,15.17z"/>
</g>
</svg>
