<!-- Generator: Adobe Illustrator 23.1.1, SVG Export Plug-In  -->
<svg version="1.1" xmlns="http://www.w3.org/2000/svg" xmlns:xlink="http://www.w3.org/1999/xlink" x="0px" y="0px"
	 width="245.63px" height="145.95px" viewBox="0 0 245.63 145.95" style="enable-background:new 0 0 245.63 145.95;"
	 xml:space="preserve">
<style type="text/css">
	.st0{fill:#AF8E78;}
	.st1{fill:#955114;}
	.st2{fill:#C57320;}
	.st3{fill:#FCEDD4;}
	.st4{fill:#1A1A1A;}
	.st5{fill:#FFFFFF;}
	.st6{fill:#020202;}
	.st7{fill:none;stroke:#000000;stroke-miterlimit:10;}
	.st8{fill:#C46814;}
</style>
<defs>
</defs>
<g>
	<path class="st0" d="M158.86,120.1c0.56,5.13,17.36-1.67,21.26,6.6c-1.71,0.65-3.18,0.47-4.74-1.04c1.71,1.22,2.63,2.99,2.5,5.02
		c-3.13-0.4-4.13-4.44-8.14-4.43c1.56,1.26,2.31,2.72,3.12,4.41c-3.07-0.04-5.81-1.56-8.93-1.85c-2.87-0.27-6.43,1.48-8.98,0.84
		c-9.17-2.3-0.37-8.69,3.93-10.11"/>
	<path class="st1" d="M202.97,69.47c1.92,3.44,4.56,5.77,8.24,7.29c1.79,0.74,7.64,1.51,7.69,3.7c0.08,3.88-7.6,4.97-9.67,4.98
		c-2.91,0.03-5.1,0.42-7.2-1.55c-1.51-1.41-3.74-3.73-4.3-5.69C196.66,74.44,199.72,71.77,202.97,69.47z"/>
	<path class="st2" d="M121.32,124.91c15.23,3.12,30.68,5.44,42.12-8.05c4.8-5.66,6.03-11.67,10.67-17.41
		c4.51-5.57,9.89-10.32,14.79-15.54c4.88-5.19,9.77-9.49,14.23-15.02c5.65-7,10.24-6.4,18.1-9.2c6.05-2.15,14.11-5.05,19.35-9.47
		c7.71-6.5,4.76-9.9-1.31-15.18c-12.95-11.28-23.03-22.2-41.45-21.08c0.13-10.11-17.26-20.49-15.95-7.49
		c-6.21-0.98-11.51-1.11-13.41,6.85c-1.36,5.71,0.54,9.33,4.62,13.48c-8.59,8.62-17.55,1.36-27.8,1.5
		c-9.99,0.13-19.53,5.18-27.15,11.8c-15.08,13.1-17.98,37.99-11.81,56.37C108.39,102.64,113.73,126.39,121.32,124.91z"/>
	<path class="st2" d="M113.61,114.4c4.71,9.8-35.96,11.23-41.8,11.23c-18.13,0-35.28-1.5-53.3-1.5c-7.07,0-16.86-0.98-15.73,8.99
		c1.06,9.29,10.92,6.34,17.97,7.11c21.51,2.35,43.95,7.62,65.9,1.79c9.31-2.47,15.42-7.32,23.55-11.55
		c6.09-3.17,15.15-3.79,19.8-8.44C124.97,119.91,116.77,120.89,113.61,114.4z"/>
	<path class="st3" d="M244.13,47.49c-7.29-2.3-28.82-1.72-35.72,1.83c-4.7,2.42-13.12,9.88-13.2,14.84
		c-0.07,4.32,0.07,0.04,0.07,0.08c-0.13,4.74-1.32,2.59,2.87,9.73c-1.5,1.5,2.33-1.9,2.81-2.34c0.99-0.91,2.16-1.62,3.39-2.17
		C214.88,64.75,245.6,56.93,244.13,47.49z"/>
	<path class="st3" d="M169.15,90.98c1.5,3,0.91,11.54,0.5,15.5c2.3-2.69,4.3-5.62,6.36-8.49c0.78-1.08,1.57-2.16,2.37-3.23
		c0.78-1.04,1.49-1.79,2.48-2.65c0.54-0.46,0.92-1.08,1.44-1.56c0.61-0.57,1.36-0.98,1.92-1.61c0.9-1,1.92-2.04,2.93-2.96
		c0.36-0.32,0.68-0.78,0.9-1.23c0.2-0.42,0.06-1.3-0.07-1.73c-0.47-1.52-1.59-2.78-2.59-3.99c-0.53-0.64-1.13-1.32-1.88-1.72
		c-1.04-0.55-1.58-0.08-2.3,0.66c-0.59,0.61-1.22,1.19-1.85,1.76c-1.26,1.13-2.58,2.2-3.86,3.31
		C172.91,85.29,170.51,87.78,169.15,90.98"/>
	<path class="st1" d="M181.65,6.5c5.91-1.35,10.25,9.2,9.87,14.08c3.05-0.7,5.48-1.86,8.94-1.39c4.38,0.6,9.45,2.45,13.58,3.85
		c8.29,2.82,16.84,6.2,22.75,12.72c1.73,1.91,3.42,3.96,5.06,5.83c-0.04-0.05,2.17-1.49,2.22-1.77c0.12-0.73-1.08-1.68-1.54-2.15
		c-1.51-1.57-1.9-1.68-4.62-4.59c-2.54-2.73-5.14-4.76-8.01-7.09c-6.77-5.49-12.16-8.99-19.42-11.72c-3.4-1.28-6.99-1.93-10.61-2.17
		c-2.43-0.16-2.26-0.38-3.23-2.59c-0.75-1.71-1.68-3.25-2.72-4.8c-2.03-3.02-4.82-4.87-8.42-4.68C181.96,0.19,181.65,3,181.65,6.5z"
		/>
	<path class="st4" d="M243.91,39.7c-2.31-0.26-3.6,1.27-3.18,3.56c0.17,0.93,1.15,3.83,2.15,4.13
		C246.08,48.34,246.57,40.17,243.91,39.7z"/>
	<path class="st3" d="M212.64,43.49c-9.65,0.57-12.67-14.07-4.9-18.15c6.69-3.51,20.04,2.83,17.67,11.77
		c-1.29,4.86-7.23,6.46-11.26,6.38"/>
	<g>
		<g>
			
				<ellipse transform="matrix(0.999 -0.0449 0.0449 0.999 -1.2306 9.5714)" class="st5" cx="212.58" cy="32.2" rx="7.13" ry="7.13"/>
			<circle class="st6" cx="213.16" cy="32.53" r="5.62"/>
			
				<ellipse transform="matrix(0.999 -0.0449 0.0449 0.999 -1.2491 9.6062)" class="st7" cx="213.34" cy="32.63" rx="7.27" ry="7.27"/>
			<circle class="st5" cx="213.1" cy="32.34" r="1.55"/>
		</g>
	</g>
	<path class="st1" d="M211.12,90.9c-0.25-0.63-0.55-1.23-0.86-1.83c-3.53-6.73-2.27-21.03,5.94-22.62
		c10.56-2.05,11.61,28.85,3.55,31.94C215.52,100,212.45,94.22,211.12,90.9z"/>
	<path class="st1" d="M173.63,11.17c-2.22,6.16,2.85,12.94,9.61,13.35c0.39,0.02,0.74-0.24,0.85-0.62c0.13-0.45,0.36-0.89,0.41-1.35
		c0.19-1.62,0.14-3.75-0.33-5.3c-1.03-3.44-3.08-8.33-7.48-7.71C175.59,9.69,174.01,10.11,173.63,11.17z"/>
	<path class="st3" d="M213.64,68.48c0,0-6.5,10.5,0.5,26.99C214.14,95.48,209.64,76.48,213.64,68.48z"/>
	<path class="st3" d="M219.64,68.48c0,0,6,16,0,28.49C219.64,96.97,228.63,81.98,219.64,68.48z"/>
	<path class="st3" d="M215.64,68.98c0,0-3.5,16,1,27.99C216.64,96.97,216.64,72.98,215.64,68.98z"/>
	<path class="st2" d="M185.49,80.56c2.66,4.08,4.77,9.02,9.75,10.41c5.6,1.57,7.68-3.96,12.8-4.92c4.36-0.82,14.21,4.1,9.64-4.82
		c-3.54-6.9-9.78-2.06-15.3-3.93c-2.84-0.97-4.68-3.56-5.95-6.14c-0.68-1.38-1.23-2.83-1.74-4.28c-0.24-0.69-0.47-1.38-0.7-2.07
		c-0.09-0.28-0.27-0.62-0.25-0.92c0.02-0.21,0.31-0.5,0.17-0.68c-0.16-0.19-1.48-0.03-1.74-0.01c-0.62,0.05-1.23,0.18-1.79,0.47
		c-2.05,1.07-4.14,2.83-5.6,4.61c-1.37,1.66-2.45,3.89-2.6,6.07c-0.05,0.68-0.22,1.84,0.18,2.45c0.25,0.38,0.76,0.68,1.07,1.01
		C184.17,78.64,184.85,79.57,185.49,80.56z"/>
	<path class="st8" d="M145.85,87.58c2.3,0.15,4.63,0.6,6.67,0.97c8.03,1.45,16.13,7.72,16.12,16.49c0,1.9-0.44,3.62-1.08,5.4
		c0.81-0.96,0.98-2.57,1.62-3.71c0.84-1.49,0.96-2.24,0.96-4.04c0-4.89,1.01-11.18-2.87-14.59c-1.83-1.61-3.96-2.39-6.15-3.16
		c-1.08-0.38-2.27-0.9-3.32-1.16c-2.77-0.68-6.08-0.52-8.82,0.2c-1.58,0.42-3.09,1.05-4.55,1.78c-1.11,0.56-2.48,1.85-3.66,2.14
		C142.35,87.51,144.09,87.46,145.85,87.58z"/>
	<path class="st4" d="M171.97,30.05c-5.3,2.96-11.65,4.86-17.76,4.99c-10.51,0.22-21.74-0.25-30.14,6.98
		c-4.85,4.17-9.48,9.02-12.41,14.75c-2.32,4.54-2.9,9.65-3.28,14.66c-0.36,4.82,0.31,9.4,0.76,14.14c0.3,3.21,0.52,6.33,1.39,9.46
		c0.99,3.55,2.13,4.44,3.26,10.66c0.63,3.48,0.17,7.15,1.01,10.49c0.73-3,0.97-6.91,1.84-10.34c0.67-2.64,1.82-5.05,2.27-7.8
		c0.67-4.11,0.85-8.27,1.53-12.37c0.7-4.22,1.32-7.55,4.31-10.65c3.44-3.58,7.23-6.45,11.37-9.23c5.94-4,12.47-7.05,18.45-10.97
		c4.36-2.85,8.06-6.47,11.36-10.49c2.24-2.72,3.45-5.33,4.38-8.75C170.81,33.74,170.99,31.61,171.97,30.05z"/>
	<path class="st3" d="M115.62,104.02c-0.7-2.37-0.58-5.02-1.04-7.48c-0.61-3.28-0.8-6.58-1.12-9.9c-0.81-8.43-2.18-17.89,1.03-26.01
		c3.39-8.57,12.03-12.28,20.33-14.68c7.27-2.1,14.75-3.41,22.05-5.27c3.51-0.89,6.19-2.11,8.92-4.3c-1.13,3.19-4.76,5.89-7.51,7.79
		c-6.79,4.71-14.94,7.28-22.14,11.39c-8.03,4.57-15.25,9.86-17.08,19.33c-1,5.17-1.72,10.34-2.46,15.48
		C115.96,94.84,115.63,99.36,115.62,104.02z"/>
	<path class="st7" d="M241.88,40.53c0.04-0.72-1.1-1.62-1.54-2.08c-1.51-1.57-1.9-1.68-4.62-4.59c-2.54-2.73-5.14-4.76-8.01-7.09
		c-6.77-5.49-12.16-8.99-19.42-11.72c-3.4-1.28-6.99-1.93-10.61-2.17c-1.53-0.1-2.03-0.23-2.43-0.85c-0.43-1.58-1.22-3.11-2.23-4.5
		c-0.41-0.69-0.84-1.37-1.29-2.04c-2.03-3.02-4.82-4.87-8.42-4.68c-3.52,0.18-3.85,2.96-3.85,6.43c-6.12-0.95-11.32-0.99-13.2,6.88
		c-1.36,5.71,0.54,9.33,4.62,13.48c-8.59,8.62-17.55,1.36-27.8,1.5c-9.99,0.13-19.53,5.18-27.15,11.8
		c-15.08,13.1-17.98,37.99-11.81,56.37c1.26,3.75,3.72,13.97,7.16,21.1c-4.41,6.95-36.53,8.06-41.67,8.06
		c-18.13,0-35.28-1.5-53.3-1.5c-7.07,0-16.86-0.98-15.73,8.99c1.06,9.29,10.92,6.34,17.97,7.11c21.51,2.35,43.95,7.62,65.9,1.79
		c9.31-2.47,15.42-7.32,23.55-11.55c4.11-2.14,9.57-3.12,14.12-4.96c9.27,1.8,18.51,2.92,26.79,0.01c-0.63,1.64,0.16,3.21,3.82,4.13
		c2.56,0.64,6.12-1.11,8.98-0.84c3.12,0.29,5.86,1.82,8.93,1.85c-0.8-1.68-1.56-3.15-3.12-4.41c4.01-0.01,5.01,4.03,8.14,4.43
		c0.12-1.72-0.54-3.25-1.78-4.42c1.31,0.94,2.58,0.98,4.02,0.44c-3.63-7.69-18.42-2.34-20.91-5.7c1.46-1.18,2.87-2.55,4.23-4.15
		c2.92-3.44,4.52-7.01,6.36-10.56c2.23-2.64,4.2-5.5,6.22-8.31c0.78-1.08,1.57-2.16,2.37-3.23c0.31-0.41,0.61-0.77,0.92-1.12
		c0.33-0.34,0.67-0.69,1-1.03c0.18-0.17,0.36-0.33,0.56-0.51c0.31-0.27,0.57-0.59,0.83-0.9c0.31-0.31,0.63-0.63,0.94-0.94
		c0.53-0.43,1.12-0.81,1.58-1.32c0.9-1,1.92-2.04,2.93-2.96c0.33-0.3,0.62-0.71,0.84-1.12c0.04-0.04,0.07-0.07,0.11-0.11
		c1.78,2.78,3.82,5.29,7.15,6.22c5.6,1.57,7.68-3.96,12.8-4.92c4.36-0.82,14.21,4.1,9.64-4.82c-3.54-6.9-9.78-2.06-15.3-3.93
		c-1.65-0.56-2.96-1.68-4.02-3.02c0.59-0.62,1.17-1.24,1.75-1.88c0.4-0.36,0.73-0.65,0.85-0.76c0.99-0.91,2.16-1.62,3.39-2.17
		c10.54-4.72,41.26-12.54,39.79-21.98c-0.1-0.03-0.22-0.06-0.33-0.09C243.9,47.48,244.09,41.22,241.88,40.53z M179.67,7.24
		c0,0.01,0,0.01,0,0.02c-0.02,0-0.03-0.01-0.05-0.01C179.63,7.25,179.65,7.25,179.67,7.24z"/>
</g>
</svg>
