<!-- Generator: Adobe Illustrator 23.1.1, SVG Export Plug-In  -->
<svg version="1.1" xmlns="http://www.w3.org/2000/svg" xmlns:xlink="http://www.w3.org/1999/xlink" x="0px" y="0px"
	 width="344.86px" height="298.21px" viewBox="0 0 344.86 298.21" style="enable-background:new 0 0 344.86 298.21;"
	 xml:space="preserve">
<style type="text/css">
	.st0{fill:#000205;}
	.st1{fill:#7D533A;}
	.st2{fill:#966D4D;}
	.st3{fill:#C49D80;}
	.st4{fill:#FFFFFF;}
	.st5{fill:#020202;}
	.st6{fill:none;stroke:#000000;stroke-width:0.5;stroke-miterlimit:10;}
	.st7{fill:none;stroke:#000000;stroke-miterlimit:10;}
</style>
<defs>
</defs>
<g>
	<path class="st0" d="M13.58,285.32c1.12,3.44,1.6,7.02,1.42,10.57c5.11-0.01,10.23-0.01,15.34-0.02c-0.79-3.02-1.57-6.03-2.36-9.05
		c-0.17-0.67-0.39-1.39-1.04-1.83c-0.77-0.51-1.88-0.45-2.88-0.36c-3.39,0.3-6.79,0.59-10.18,0.89"/>
	<path class="st0" d="M95.61,287.85c2.88-0.3,5.76-0.59,8.64-0.89c0.84-0.09,1.79-0.15,2.44,0.36c0.56,0.43,0.74,1.16,0.89,1.83
		c0.67,3.02,1.34,6.03,2,9.05c-4.34,0.01-8.68,0.01-13.02,0.02c0.06-2.92-0.02-6.19-1.62-8.63c-0.39-0.59-0.88-1.17-0.95-1.87
		C94.5,287.97,95.03,287.91,95.61,287.85z"/>
	<path class="st0" d="M186.58,287.19c1,3.66,2.46,7.25,2.31,11.02c4.56-0.01,9.13-0.01,13.69-0.02c-0.7-3.21-1.4-6.41-2.11-9.62
		c-0.16-0.71-0.35-1.48-0.93-1.94c-0.69-0.54-1.68-0.48-2.57-0.39"/>
	<path class="st0" d="M259.58,287.64c1,3.44,1.43,7.02,1.27,10.57c4.58-0.01,9.15-0.01,13.73-0.02c-0.7-3.02-1.41-6.03-2.11-9.05
		c-0.16-0.67-0.35-1.39-0.93-1.83c-0.69-0.51-1.69-0.45-2.57-0.36c-3.04,0.3-6.07,0.59-9.11,0.89"/>
	<g>
		<path class="st1" d="M20.18,242.35c5.23-16.53,18.55-29.01,31.36-40.69c0.92-0.84,2.07-1.75,3.28-1.46
			c1.98,0.47,1.94,3.3,1.33,5.24c-2.35,7.5-6.29,15.31-4,22.83c1.85,6.08,7.29,10.22,11.9,14.59c6.6,6.27,12,13.8,15.81,22.06
			c2.87,6.22,4.92,12.98,9.32,18.23c4.4,5.25,12.17,8.58,18.21,5.34c-10.99-12.03-20.55-25.36-28.42-39.63
			c-2.27-4.12-4.44-8.44-4.94-13.12c-0.53-4.99,0.87-9.95,2.26-14.77c2.7-9.37,5.41-18.75,8.11-28.12c1.1-3.82,2.52-8.04,6.05-9.87
			c2.3-1.19,5.03-1.09,7.62-0.94c26.18,1.47,52.28,4.28,78.17,8.41c1.71,0.27,3.54,0.61,4.76,1.83c1.3,1.29,1.6,3.25,1.83,5.06
			c3.45,27.66,4.32,55.64,2.61,83.46c-0.13,2.18-0.17,4.68,1.42,6.18c3.22,3.03,8.51-1.24,12.77-0.1
			c-9.98-8.56-7.78-24.28-4.71-37.07c3.52-14.67,7.04-29.34,10.56-44.01c25.96,15.47,45.95,42.44,50.11,72.38
			c0.39,2.8,2.21,5.81,4,8c3.53,4.32,7.18,3.84,12.55,2.31c-7.24-6.85-12.4-15.88-14.65-25.59c-2.07-8.97-1.7-18.42-4.33-27.24
			c-3.2-10.72-10.53-19.62-16.21-29.26c-4.18-7.11-7.55-15.83-4.36-23.45c2.63-6.29,9.12-10.18,12.34-16.19
			c1.8-3.36,2.54-7.32,5-10.23c2.31-2.73,5.78-4.13,9.11-5.43c10.34-4.04,20.69-8.08,31.03-12.12c0.21,4.05,0.07,8.12-0.41,12.15
			c0.34,4.61,0.68,9.22,1.02,13.83c0.72-1.87,1.44-3.74,2.15-5.6c-1.09,5.76-0.28,11.85,2.27,17.13
			c-1.78-15.27,8.86-31.04,23.68-35.1c3.45,6.66,13.37,8.24,19.45,3.85s8.04-13.14,5.61-20.24s-8.53-12.51-15.41-15.5
			c-4.82-2.09-10.27-3.26-14.01-6.95c-3.32-3.27-4.78-8.05-7.97-11.45c-4.97-5.3-12.94-6.18-20.19-6.73
			c-11.29-0.85-22.58-1.7-33.87-2.55c-0.62-0.05-1.26-0.09-1.84,0.12c-2.26,0.83-1.42,4.56,0.72,5.68c2.14,1.12,4.73,0.78,7.07,1.37
			c2.34,0.59,4.65,3.09,3.47,5.2c-16.74-3.67-32.32-11.29-48.61-16.6s-34.31-8.21-50.39-2.29c-9.57,3.52-17.86,9.95-27.47,13.35
			c-6.86,2.43-14.17,3.24-21.4,4.02c-12.27,1.34-24.54,2.68-36.81,4.02c-18.3,2-37.75,4.46-51.95,16.18
			c-6.33,5.22-11.47,12.73-11.29,20.93c2.34-0.79,4.67-1.58,7.01-2.37c-4.12,12.4,0.42,25.84,4.97,38.09
			c3.25,8.76,4.08,18.37-2.93,25.72c-3.21,3.37-7.34,5.71-11.38,8.02c-1.82,1.05-3.69,2.14-4.98,3.81c-1.19,1.54-1.79,3.45-2.2,5.35
			c-3.19,14.62,3.34,29.58,3.26,44.55c-0.03,5.55-0.92,11.37,1.34,16.43c0.98,2.19,2.5,4.11,3.37,6.35
			c1.74,4.46-0.88,6.53,4.77,7.47c2.01,0.34,8.61,0.31,8.97-2.64c0.3-2.5-5.28-10.42-6.14-13.42
			C17.24,261.82,17.23,251.65,20.18,242.35z"/>
		<path class="st2" d="M205.43,206.18c14.26,8.5,26.23,20.69,34.8,34.89c5.98,9.9,8.25,21.33,12.23,32.06
			c1.65,4.45,3.59,10.38,6.53,14.15c3.24,4.15,7.77,3.09,12.51,1.75c0.29-0.08,0.4-0.43,0.23-0.67
			c-7.31-10.34-12.08-15.52-14.29-25.09c-2.07-8.97-1.7-18.42-4.33-27.24c-3.2-10.72-10.53-19.62-16.21-29.26
			c-4.18-7.11-7.55-15.83-4.36-23.45c2.63-6.29,9.12-10.18,12.34-16.19c1.8-3.36,2.54-7.32,5-10.23c2.31-2.73,5.78-4.13,9.11-5.43
			c10.34-4.04,20.69-8.08,31.03-12.12c0.21,4.05,0.07,8.12-0.41,12.15l1.02,13.83c0.72-1.87,1.44-3.74,2.15-5.6
			c-1.09,5.76-0.28,11.85,2.27,17.13c-1.78-15.27,8.86-31.04,23.68-35.1c3.45,6.66,13.37,8.24,19.45,3.85s8.04-13.14,5.61-20.24
			s-8.53-12.51-15.41-15.5c-4.82-2.09-10.27-3.26-14.01-6.95c-3.32-3.27-4.78-8.05-7.97-11.45c-4.97-5.3-12.94-6.18-20.19-6.73
			c-11.29-0.85-22.58-1.7-33.87-2.55c-1.06-0.08-2.19-0.15-2.97,1.08c-0.79,1.24-0.44,2.88,0.65,3.88c2.31,2.13,5.47,1.51,8.27,2.22
			c2.34,0.59,4.65,3.09,3.47,5.2c-16.74-3.67-32.32-11.29-48.61-16.6s-34.31-8.21-50.39-2.29c-9.57,3.52-17.86,9.95-27.47,13.35
			c-6.86,2.43-14.17,3.24-21.4,4.02c-12.27,1.34-24.54,2.68-36.81,4.02c-18.3,2-37.75,4.46-51.95,16.18
			c-6.33,5.22-11.47,12.73-11.29,20.93l7.01-2.37c-4.12,12.4,0.42,25.84,4.97,38.09c3.04,8.19,1.63,14.32,9.26,19.81
			c2.98,2.14,6.33,3.71,9.41,5.69c1.77,1.13,3.32,2.85,5.12,3.88c2.81,1.6,2.29,0.66,4.9,1.23c1.62,0.36,2.55,1.97,2.11,3.57
			c-2.22,8.03-6.98,16.46-4.52,24.57c1.85,6.08,7.29,10.22,11.9,14.59c6.6,6.27,12,13.8,15.81,22.06
			c2.87,6.22,4.92,12.98,9.32,18.23c4.4,5.25,12.17,8.58,18.21,5.34c-10.99-12.03-20.55-25.36-28.42-39.63
			c-2.27-4.12-4.44-8.44-4.94-13.12c-0.53-4.99,0.87-9.95,2.26-14.77c2.7-9.37,5.41-18.75,8.11-28.12c1.1-3.82,2.52-8.04,6.05-9.87
			c2.3-1.19,5.03-1.09,7.62-0.94c26.18,1.47,52.28,4.28,78.17,8.41c1.71,0.27,3.54,0.61,4.76,1.83c1.3,1.29,1.6,3.25,1.83,5.06"/>
		<path class="st1" d="M84.65,190.6c0.8-8.18-1.57-16.63-6.51-23.2c16.94,5.02,34.35,8.4,51.94,10.11
			c8.13,0.79,16.15,1.03,24.24,0.79c1.33-0.04,2.66,0.03,3.99,0.05c3.74,0.06,7.48,0.08,11.21-0.17c2.1-0.14,6.71-0.05,8.15-1.98
			c-0.35,2.16,0.08,4.33,0.6,6.43c0.96,3.86,2.16,7.65,3.6,11.35c-1.73-1.27-4.05-2.12-6.08-2.74c-2.2-0.67-4.49-0.97-6.76-1.26
			c-5.37-0.69-10.73-1.38-16.1-2.08c-18.04-2.33-36.11-4.66-54.29-5.13c-3.06-0.08-6.25-0.08-9.02,1.23
			C86.85,185.31,84.04,187.6,84.65,190.6z"/>
	</g>
	<path class="st1" d="M230.99,186.86c1.09-9.16,12.69-13.98,14.53-23.02c0.31-1.51,0.33-3.09,0.91-4.51
		c1.07-2.58,3.74-4.07,6.24-5.32c11.73-5.85,23.91-10.8,36.4-14.8c-1.45,8.66-1.15,17.6,0.88,26.14c1.39-0.84,2.4-2.26,2.74-3.84
		c-1.41,5.17-0.97,10.82,1.23,15.7c1.07-10.74,4.68-22.06,13.41-28.41c3.64-2.65,8.26-4.59,10.03-8.73
		c-6.02,0.12-12.05-0.3-17.99-1.26c-2.43-0.39-4.9-0.9-7.05-2.11c-3.64-2.07-5.92-5.99-6.92-10.05c-1.01-4.06-0.9-8.3-0.78-12.48
		c-0.12,5.83-0.25,11.65-0.37,17.48c-0.02,1.01-0.06,2.07-0.59,2.94c-0.85,1.39-2.65,1.78-4.25,2.12
		c-14.55,3.13-26.71,12.22-37.95,21.52c-4.24,3.5-13.05,8.49-15.24,13.44c-0.96,2.16-0.4,6.58,0.18,8.79
		C226.73,181.67,230.97,187.07,230.99,186.86z"/>
	<path class="st3" d="M298.24,80.61c1.7-1.52,3.85-2.43,5.88-3.47c12.72-6.54,21.63-19.96,22.7-34.23
		c-0.64-0.98-2.08,0.17-2.57,1.24c-2.08,4.56-3.4,9.49-5.96,13.8c-2.56,4.31-6.8,8.1-11.81,8.28c0.7-4.16,4.29-7.09,6.75-10.52
		c3.92-5.48,4.96-12.91,2.7-19.26c-2.18,4.28-3,9.12-4.69,13.61c-4.12,10.91-13.78,19.57-25.07,22.48
		c6.8-9.53,13.83-19.66,14.93-31.32c-1.19-0.69-2.79-0.12-3.7,0.92c-0.91,1.03-1.31,2.4-1.73,3.71
		c-2.46,7.66-6.47,14.75-11.22,21.25c-1.86,2.54-3.95,5.1-6.84,6.34s-6.78,0.71-8.43-1.97c-2.22-3.6,0.63-8.06,2.97-11.6
		c5.35-8.08,8.43-17.64,8.81-27.33c-2.35-0.65-4.04,2.19-4.82,4.5c-1.86,5.52-3.72,11.04-5.58,16.56c-0.6,1.77-1.85,3.94-3.67,3.52
		c-0.79-0.18-1.38-0.84-1.85-1.49c-4.19-5.79-3.71-13.73-1.99-20.67c1.73-6.94,4.53-13.76,4.44-20.91c-1.2-0.95-2.65,0.86-3.1,2.32
		c-2.42,7.72-4.46,15.56-6.12,23.48c-0.65,3.1-2.14,6.99-5.31,6.91c-1.71-0.04-3.17-1.41-3.83-2.99c-0.66-1.58-0.69-3.35-0.68-5.06
		c0.06-11.29,1.12-22.58,3.17-33.68c-1.55-0.72-3.45,0.31-4.3,1.79c-0.85,1.48-0.92,3.27-0.97,4.97c-0.19,5.59-0.5,11.17-0.94,16.74
		c-0.18,2.27-0.41,4.63-1.6,6.56c-2.93,4.77-10.61,4.46-14.64,0.56s-5.09-9.94-5.07-15.54s0.91-11.26-0.08-16.78
		c-1.28-0.63-2.89,0.18-3.63,1.4c-0.74,1.22-0.83,2.7-0.91,4.12c-0.37,7.04-0.74,14.15,0.42,21.11c0.68,4.09,1.89,8.23,1.18,12.32
		c-0.08,0.46-0.2,0.95-0.56,1.25c-0.89,0.76-2.18-0.22-2.88-1.16c-2.74-3.66-4.94-7.72-6.5-12.02c-1.47-4.04-2.72-8.74-6.52-10.75
		c-1.67,1.6-0.64,4.35,0.2,6.51c1.04,2.67,1.63,5.52,1.73,8.38c0.02,0.68-0.01,1.44-0.49,1.93c-1.1,1.12-2.88-0.33-3.69-1.68
		c-1.91-3.17-3.55-6.5-4.89-9.95c-1.02-2.64-2.66-5.89-5.48-5.64c-0.49,8.19,2.82,16.52,8.78,22.15c3.39,3.2,7.55,5.53,10.8,8.88
		c2.32,2.39,4.12,5.24,6.42,7.65c2.02,2.12,4.39,3.88,6.8,5.54c11.42,7.86,24.17,13.78,37.51,17.54c6.67,1.88,13.5,3.22,20.39,3.99
		c2.97,0.33,7.63,1.46,10.57,0.73C296.33,84.89,295.95,82.67,298.24,80.61z"/>
	<ellipse class="st4" cx="304.57" cy="105.54" rx="5.52" ry="5.52"/>
	<circle class="st5" cx="303.77" cy="107.34" r="4.35"/>
	<ellipse class="st6" cx="304.21" cy="106.12" rx="5.63" ry="5.63"/>
	<circle class="st4" cx="303.46" cy="107.28" r="1.2"/>
	<path class="st7" d="M340.84,124.17c-2.42-7.1-8.53-12.51-15.41-15.5c-4.82-2.09-10.27-3.26-14.01-6.95
		c-3.32-3.27-4.78-8.05-7.97-11.45c-4.97-5.3-12.94-6.18-20.19-6.73c-11.29-0.85-22.58-1.7-33.87-2.55
		c-0.62-0.05-1.26-0.09-1.84,0.12c-0.74,0.27-1.14,0.85-1.28,1.55c-0.62,1.21-0.26,2.71,0.76,3.65c2.31,2.13,5.47,1.51,8.27,2.22
		c1.93,0.49,3.84,2.28,3.78,4.07c-0.05,0.26-0.14,0.51-0.28,0.76c-16.74-3.67-32.32-11.29-48.61-16.6
		c-16.3-5.3-34.31-8.21-50.39-2.29c-9.57,3.52-17.86,9.95-27.47,13.35c-6.86,2.43-14.17,3.24-21.4,4.02
		c-12.27,1.34-24.54,2.68-36.81,4.02c-18.3,2-37.75,4.46-51.95,16.18c-5.63,4.64-10.3,11.09-11.15,18.23
		c-0.14,1.01-0.2,2.03-0.18,3.07l6.93-2.35c-0.71,2.24-1.15,4.52-1.36,6.82c-1.03,10.4,2.68,21.22,6.4,31.25
		c1.14,3.08,1.66,5.86,2.26,8.43c0.72,6.03-0.44,11.99-5.14,16.92c-3.21,3.37-7.34,5.71-11.38,8.02c-1.82,1.05-3.69,2.14-4.98,3.81
		c-1.19,1.54-1.79,3.45-2.2,5.35c-3.19,14.62,3.34,29.58,3.26,44.55c-0.03,5.55-0.92,11.37,1.34,16.43c0.98,2.19,2.5,4.11,3.37,6.35
		c1.74,4.46-0.88,6.53,4.77,7.47c2.01,0.34,8.61,0.31,8.97-2.64c0.3-2.5-5.28-10.42-6.14-13.42c-2.7-9.36-2.71-19.52,0.23-28.83
		c5.23-16.53,18.55-29.01,31.36-40.69c0.57-0.52,1.22-1.05,1.91-1.33c0.29,0.03,0.63,0.08,1.06,0.18c0.81,0.18,1.44,0.66,1.82,1.31
		c0.31,1.09,0.16,2.51-0.19,3.63c-1.67,5.32-4.12,10.79-4.6,16.21c-0.24,2.34-0.14,4.68,0.56,6.99c1.85,6.08,7.29,10.22,11.9,14.59
		c6.6,6.27,12,13.8,15.81,22.06c2.87,6.22,4.92,12.98,9.32,18.23c4.4,5.25,12.17,8.58,18.21,5.34c-0.07-0.08-0.15-0.17-0.22-0.25
		c0.09-0.04,0.17-0.07,0.26-0.12c-10.99-12.03-20.55-25.36-28.42-39.63c-2.27-4.12-4.44-8.44-4.94-13.12
		c-0.19-1.76-0.13-3.51,0.08-5.25c0.41-3.09,1.28-6.15,2.14-9.15c2.7-9.37,5.41-18.75,8.11-28.12c0.94-3.26,2.13-6.8,4.65-8.91
		c0.21-0.11,0.42-0.22,0.63-0.31c2.77-1.31,5.96-1.31,9.02-1.23c18.18,0.47,36.25,2.8,54.29,5.13c5.37,0.69,10.73,1.38,16.1,2.08
		c2.27,0.29,4.56,0.59,6.76,1.26c2.04,0.62,4.36,1.48,6.08,2.74c-0.01-0.02-0.01-0.03-0.02-0.05c0.56,1.14,0.77,2.49,0.93,3.77
		l0.08,0.03c3.41,27.53,4.27,55.38,2.56,83.06c-0.13,2.18-0.17,4.68,1.42,6.18c3.22,3.03,8.51-1.24,12.77-0.1
		c-9.98-8.56-7.78-24.28-4.71-37.07c3.49-14.55,6.98-29.11,10.48-43.66l0.05,0.02c14.26,8.5,26.23,20.69,34.8,34.89
		c5.98,9.9,8.25,21.33,12.23,32.06c1.65,4.45,3.59,10.38,6.53,14.15c3.24,4.15,7.77,3.09,12.51,1.75c0.2-0.06,0.32-0.25,0.31-0.45
		c0.11-0.03,0.21-0.06,0.32-0.09c-0.34-0.32-0.66-0.64-0.99-0.97c-5.12-7.18-8.95-11.89-11.47-17.55c-0.9-2.3-1.64-4.66-2.19-7.07
		c-2.07-8.97-1.7-18.42-4.33-27.24c-3.2-10.72-10.53-19.62-16.21-29.26c-3.36-5.7-6.17-12.44-5.52-18.81
		c0.18-1.45,0.54-2.88,1.12-4.27c2.63-6.29,9.12-10.18,12.34-16.19c1.8-3.36,2.54-7.32,5-10.23c2.31-2.73,5.78-4.13,9.11-5.43
		c10.34-4.04,20.69-8.08,31.03-12.12c0.21,4.05,0.07,8.12-0.41,12.15l1.02,13.83c0.71-1.84,1.42-3.69,2.13-5.53
		c-0.11,0.64-0.21,1.29-0.27,1.94c-0.58,5.15,0.31,10.45,2.56,15.12c-0.02-0.19-0.03-0.38-0.05-0.57c0.03,0.07,0.06,0.14,0.09,0.21
		c-0.26-2.26-0.25-4.54,0.01-6.78c1.6-12.76,11.13-24.52,23.64-27.95c3.45,6.66,13.37,8.24,19.45,3.85
		c3.86-2.79,6.05-7.33,6.52-12.1C342.05,129.83,341.77,126.88,340.84,124.17z"/>
	<path class="st7" d="M297.8,77.99c1.7-1.52,3.85-2.43,5.88-3.47c12.72-6.54,21.63-19.96,22.7-34.23c-0.64-0.98-2.08,0.17-2.57,1.24
		c-2.08,4.56-3.4,9.49-5.96,13.8c-2.56,4.31-6.8,8.1-11.81,8.28c0.7-4.16,4.29-7.09,6.75-10.52c3.92-5.48,4.96-12.91,2.7-19.26
		c-2.18,4.28-3,9.12-4.69,13.61c-4.12,10.91-13.78,19.57-25.07,22.48c6.8-9.53,13.83-19.66,14.93-31.32
		c-1.19-0.69-2.79-0.12-3.7,0.92c-0.91,1.03-1.31,2.4-1.73,3.71c-2.46,7.66-6.47,14.75-11.22,21.25c-1.86,2.54-3.95,5.1-6.84,6.34
		s-6.78,0.71-8.43-1.97c-2.22-3.6,0.63-8.06,2.97-11.6c5.35-8.08,8.43-17.64,8.81-27.33c-2.35-0.65-4.04,2.19-4.82,4.5
		c-1.86,5.52-3.72,11.04-5.58,16.56c-0.6,1.77-1.85,3.94-3.67,3.52c-0.79-0.18-1.38-0.84-1.85-1.49
		c-4.19-5.79-3.71-13.73-1.99-20.67c1.73-6.94,4.53-13.76,4.44-20.91c-1.2-0.95-2.65,0.86-3.1,2.32
		c-2.42,7.72-4.46,15.56-6.12,23.48c-0.65,3.1-2.14,6.99-5.31,6.91c-1.71-0.04-3.17-1.41-3.83-2.99c-0.66-1.58-0.69-3.35-0.68-5.06
		c0.06-11.29,1.12-22.58,3.17-33.68c-1.55-0.72-3.45,0.31-4.3,1.79s-0.92,3.27-0.97,4.97c-0.19,5.59-0.5,11.17-0.94,16.74
		c-0.18,2.27-0.41,4.63-1.6,6.56c-2.93,4.77-10.61,4.46-14.64,0.56s-5.09-9.94-5.07-15.54c0.02-5.6,0.91-11.26-0.08-16.78
		c-1.28-0.63-2.89,0.18-3.63,1.4s-0.83,2.7-0.91,4.12c-0.37,7.04-0.74,14.15,0.42,21.11c0.68,4.09,1.89,8.23,1.18,12.32
		c-0.08,0.46-0.2,0.95-0.56,1.25c-0.89,0.76-2.18-0.22-2.88-1.16c-2.74-3.66-4.94-7.72-6.5-12.02c-1.47-4.04-2.72-8.74-6.52-10.75
		c-1.67,1.6-0.64,4.35,0.2,6.51c1.04,2.67,1.63,5.52,1.73,8.38c0.02,0.68-0.01,1.44-0.49,1.93c-1.1,1.12-2.88-0.33-3.69-1.68
		c-1.91-3.17-3.55-6.5-4.89-9.95c-1.02-2.64-2.66-5.89-5.48-5.64c-0.49,8.19,2.82,16.52,8.78,22.15c3.39,3.2,7.55,5.53,10.8,8.88
		c2.32,2.39,4.12,5.24,6.42,7.65c2.02,2.12,4.39,3.88,6.8,5.54c11.42,7.86,24.17,13.78,37.51,17.54c6.67,1.88,13.5,3.22,20.39,3.99
		c2.97,0.33,7.63,1.46,10.57,0.73C295.88,82.27,295.51,80.05,297.8,77.99z"/>
	<path class="st7" d="M330.08,128.69"/>
	<ellipse class="st0" cx="338.08" cy="133.19" rx="1.5" ry="6"/>
</g>
</svg>
