<!-- Generator: Adobe Illustrator 23.1.1, SVG Export Plug-In  -->
<svg version="1.1" xmlns="http://www.w3.org/2000/svg" xmlns:xlink="http://www.w3.org/1999/xlink" x="0px" y="0px"
	 width="111.88px" height="182.82px" viewBox="0 0 111.88 182.82" style="enable-background:new 0 0 111.88 182.82;"
	 xml:space="preserve">
<style type="text/css">
	.st0{fill:#020202;}
</style>
<defs>
</defs>
<path class="st0" d="M10.48,69.5c4.97,1.72,13.54,2.51,16.32-10.69c0,0,1-8-2-21s0-29,0-29s2-12-3-8
	C16.98,4.67-11.08,37.35,4.84,64.78C6.11,66.97,8.09,68.68,10.48,69.5z"/>
<path class="st0" d="M11.04,85.96c1.92,2.04,4.17,4.23,6.97,4.23c0.41,0,0.83-0.05,1.17-0.26c0.55-0.33,0.8-0.98,0.95-1.6
	c0.69-2.85-0.38-6.13-2.82-7.75C12.96,77.67,6.36,80.99,11.04,85.96z"/>
<path class="st0" d="M34.41,89.25c0.41,0.5,0.95,0.92,1.59,1.04c0.51,0.1,1.03-0.01,1.52-0.15c2.59-0.77,4.64-2.72,6.58-4.6
	c0.37-0.36,0.74-0.72,0.97-1.18c0.77-1.54-0.5-3.48-2.14-4.02c-1.64-0.54-3.42-0.08-5.06,0.46C34.27,81.98,31.45,85.62,34.41,89.25z
	"/>
<path class="st0" d="M31.3,53.32c0,0-4.25,15.29,9.97,17.69c3.01,0.51,6.12-0.41,8.34-2.5c3.68-3.47,8.3-10.91,7.69-26.19
	c-1-25-19.5-40.5-19.5-40.5s-4-5-5,4S38.8,24.82,31.3,53.32z"/>
<path class="st0" d="M63.94,160.89c4.9,1.93,13.42,3.09,16.76-9.98c0,0,1.34-7.95-1.1-21.07c-2.44-13.12,1.24-28.97,1.24-28.97
	s2.51-11.9-2.65-8.12c-4.98,3.65-34.42,35.08-19.69,63.18C59.68,158.17,61.59,159.97,63.94,160.89z"/>
<path class="st0" d="M63.79,177.36c1.83,2.12,3.98,4.4,6.78,4.52c0.41,0.02,0.83-0.02,1.18-0.21c0.56-0.31,0.85-0.95,1.02-1.56
	c0.81-2.82-0.12-6.14-2.49-7.87C66.07,169.16,59.33,172.19,63.79,177.36z"/>
<path class="st0" d="M87.01,181.65c0.39,0.52,0.91,0.96,1.54,1.11c0.5,0.12,1.03,0.04,1.53-0.09c2.62-0.66,4.75-2.52,6.78-4.32
	c0.38-0.34,0.77-0.69,1.02-1.14c0.84-1.51-0.35-3.5-1.96-4.11c-1.61-0.61-3.42-0.23-5.08,0.24C87.18,174.38,84.2,177.9,87.01,181.65
	z"/>
<path class="st0" d="M85.44,145.62c0,0-4.9,15.1,9.2,18.1c2.98,0.64,6.14-0.15,8.44-2.14c3.83-3.31,8.76-10.54,8.81-25.83
	c0.07-25.02-17.74-41.3-17.74-41.3s-3.78-5.17-5.17,3.78S94.15,117.46,85.44,145.62z"/>
</svg>
