<!-- Generator: Adobe Illustrator 23.1.1, SVG Export Plug-In  -->
<svg version="1.1" xmlns="http://www.w3.org/2000/svg" xmlns:xlink="http://www.w3.org/1999/xlink" x="0px" y="0px"
	 width="341.67px" height="214.72px" viewBox="0 0 341.67 214.72" style="enable-background:new 0 0 341.67 214.72;"
	 xml:space="preserve">
<style type="text/css">
	.st0{fill:#9E795C;}
	.st1{fill:#1E0000;}
	.st2{fill:#CDA17E;}
	.st3{fill:#E7D7CA;}
	.st4{fill:#B1A1A1;}
	.st5{fill:#EFD6C2;}
	.st6{fill:#FFFFFF;}
	.st7{fill:#020202;}
	.st8{fill:none;stroke:#000000;stroke-width:0.5;stroke-miterlimit:10;}
	.st9{fill:#9B7C60;}
	.st10{fill:none;stroke:#020202;stroke-miterlimit:10;}
</style>
<defs>
</defs>
<g>
	<path class="st0" d="M161.81,133.15c-5.94,2.21-11.25,11.12-16.13,15.28c-4.29,3.66-12.93,8.88-12.32,15.31
		c0.48,5.05,7.46,13.94,11.34,17.15c5.52,4.56,13.97,3.5,18.29,8.94c7.79,9.83-0.22,11.64-9.2,11.19c-3.07-0.15-8.73,0.13-11.94-0.7
		c-4.4-1.14-5.1-3.02-8.48-6.17c-4.71-4.38-10.03-7.46-14.76-11.92c-4.14-3.9-12.75-9.69-11.95-16.17
		c0.57-4.65,6.32-8.44,9.11-11.64c7.08-8.12,12.19-19.29,20.12-26.49C145.23,119.46,155.23,126.75,161.81,133.15z"/>
	<path class="st0" d="M212.68,135.82c15.33-4.09,19.87,59.22,34.09,65.47c4.04,1.78,17.35,4.73,21.45,1.54
		c5.06-3.94,0.58-15.46-3.78-18.57c-6.85-4.89-12.95,0.83-14.07-11.22c-0.71-7.6,1.26-14.17-1.45-21.58
		c-2.3-6.3-5.18-14.56-10.33-19.31C231.63,125.7,221.5,131.76,212.68,135.82z"/>
	<path class="st1" d="M300.04,6.51c0.94-2.57,3.89-4.9,5.26-2.06c1.05,2.18-0.51,6.74-0.38,9.12c-2.1,0.05-4.86,0.15-6.79,0.76
		c0.1-1.21,0.31-2.5,0.6-3.7"/>
	<path class="st2" d="M33.82,187.24c-6.99,0-13.9-1.25-20.62-3.18c-1.92-0.55-3.92-0.78-6.02-0.36c-6.03,1.2-8.81,7.38-6.19,13.15
		c4.6,10.13,22.35,10.12,31.79,10.12c12.01,0.01,23.07-4.29,31.28-12.98c8.27-8.75,6.91-22.65,8.69-33.85
		c0.94-5.93,1.91-11.59,2.72-17.28c0.64-4.54,7.26-4.55,7.8,0.01c0.01,0.09,0.02,0.17,0.03,0.26c0.56,4.99,1.3,9.15-0.78,13.82
		c-1.82,4.09-5.05,5.89-5.02,10.94c0.03,7.72,5.29,15.51,10.33,21.3c5.12,5.87,9,14.52,14.8,19.64c5.63,4.96,20.41,4.08,29.29,3.51
		c1.72-0.11,3.2-1.32,3.56-3c2.23-10.31-16.29-12-21.53-17.16c-4.13-4.06-6.66-11.28-5.34-17.46c1.33-6.25,6.24-9.04,11.27-13.12
		c4.64-3.76,9.65-6.82,13.41-11.41c3.86-4.71,6.27-11.35,11.76-14.56c10.92-6.4,30.51,2.59,42.65,3.66
		c9.13,0.8,19.84,1.79,29.03,0.54c6.13-0.83,14.06-6.13,20.86-3.38c6.07,2.46,5.69,10.51,7.02,16.33
		c1.51,6.59,3.55,12.91,5.66,19.66c3.4,10.92,4.38,32.53,15.44,38.06c4.57,2.28,14.84,4.47,19.45,3.14
		c6.47-1.86,7.61-8.28,2.53-12.8c-5.54-4.93-11.6-3.21-14.12-10.81c-2.05-6.18-0.05-13,0.62-18.97c0.89-7.91,0.11-16.91,1.33-24.93
		c1.43-9.44,4.1-18.67,5.35-28.27l0.34-2.64c0.68-5.3,0.34-10.64-0.61-15.9c-2.23-12.26,5.59-24.38,14.72-34.17
		c5.2-5.57,10.42-11.28,18.65-9.68c5.54,1.08,10.5,2.59,15.53-0.68c5.9-3.82,13.52-10.12,7.11-16.99c-1.76-1.89-3.11-3.93-5.07-5.57
		c-2.3-1.93-4.68-3.05-6.4-5.57c-2.92-4.29-2.92-7.77-7.65-10.39c-4.32-2.4-9.15-3.53-14.07-3.65c-9.81-0.24-19.71,3.25-27.9,8.49
		c-13.46,8.62-23.78,23.76-38.59,30.08c-13.26,5.66-32.55,5.48-47.23,5.49c-12.79,0-23.33-1.55-35.75-4.15
		c-11.25-2.36-24.33-1.83-36.38-1.83c-10.9,0-21.02-0.95-30.26,4.66C72.7,64.2,63.79,77.98,58.72,93.22
		c-5.53,16.63-4.66,35.97-4.66,53.91c0,16.41,2.82,36.63-17.29,39.9C35.76,187.19,34.78,187.24,33.82,187.24z"/>
	<path class="st3" d="M311.36,50.95c-8.88,0.88-15.73,2.21-21.46,9.84c-4.2,5.6-7.53,11.78-11.94,17.39
		c-7.3,9.29-6.98,13.15-3.7,23.98c2.55,8.43,0.21,18.51,4.53,26.37c0.62-2.22,0.91-4.69,0.65-5.09c4.99-13.28,5.3-28.39,9.83-42.05
		c3.78-11.4,15.41-24.69,28.08-25.46"/>
	<path class="st4" d="M307.47,59.24c9.59-6.39,24.38,5.55,28-11c-4.94,1.84-9.32,6.6-14.78,7.38
		C314.23,56.55,312.99,55.12,307.47,59.24z"/>
	<path class="st5" d="M137.47,144.24c3.1-4.08,5.1-14.39,9.95-16.15c5.6-2.03,15.05,3.12,20.62,4c13.94,2.18,32.33,4.34,46.37,1.48
		c7.3-1.49,14.64-5.26,21.02-8.71c-0.76,2.91,1.21,8.48,2.04,11.38c-18,6-26.17,4.5-40.16,4.5c-14.08,0-25.03-4.1-37.91-6.01
		C150.91,133.47,144.94,137.21,137.47,144.24z"/>
	<path class="st3" d="M323.34,54.61c3.74-0.04,11.19-2,12.32-6.3c0.69-2.65-1.04-7.16-4.19-6.07c-2.25,0.78-2.65,4.9-3.73,6.72
		C326.58,50.94,323.65,52.43,323.34,54.61z"/>
	<path class="st1" d="M335.64,48.63c2.49-0.38,4.77-3.53,3.31-5.97c-1.13-1.89-3.16,0.38-5.91-0.97c-0.4,2.65,1.8,1.8,2.6,3.28
		c0.72,1.31,0.37,1.96,0.05,3.61"/>
	<path class="st1" d="M334.97,48.96c-2.72,4.24-7.48,4.77-11.61,5.91c4.2,0.31,10.6-0.81,10.95-5.58"/>
	<path class="st3" d="M304.62,27.88c4.39-5.38,12.36-5.21,15.91,0.48c1.31,2.1,5.43,7.34,0.81,7.87c-0.97,0.11-3.05-1.77-4.16-2.01
		c-1.65-0.36-3.6,0.09-5.28-0.08C307.89,33.73,304.29,32.53,304.62,27.88z"/>
	<g>
		<g>
			
				<ellipse transform="matrix(0.999 -0.0449 0.0449 0.999 -0.9932 14.0332)" class="st6" cx="312.08" cy="29.14" rx="4.58" ry="4.92"/>
			
				<ellipse transform="matrix(0.999 -0.0449 0.0449 0.999 -1.0021 14.0952)" class="st7" cx="313.46" cy="29.37" rx="3.61" ry="3.88"/>
			
				<ellipse transform="matrix(0.999 -0.0449 0.0449 0.999 -1.0061 14.0556)" class="st8" cx="312.57" cy="29.44" rx="4.67" ry="5.02"/>
			<ellipse transform="matrix(0.999 -0.0449 0.0449 0.999 -0.9955 14.141)" class="st6" cx="314.48" cy="29.24" rx="1" ry="1.07"/>
		</g>
	</g>
	<path class="st7" d="M315.02,33.74c0.78-0.07,1.36-0.5,2.2-0.5c0.85,0,1.63,0.52,2.44,0.4c0.1-0.6-0.47-0.95-0.72-1.42
		c-0.27-0.51-0.39-1.12-0.6-1.64c-0.36-0.88-1.04-1.82-1.16-2.74"/>
	<path class="st9" d="M279.34,20.33c0.14-0.59,0.15-1.26,0.22-1.88c0.19-1.64,0.76-3.12,1.5-4.59c1.21-2.42,2.7-4.75,4.52-6.75
		c1.04-1.14,2.2-2.2,3.43-3.14c1.15-0.89,2.5-1.44,3.75-2.15c1.17-0.66,2.69-1.61,4.08-1.28c1.21,0.29,1.83,1.58,2.24,2.66
		c0.36,0.97,0.7,1.9,0.72,2.94c0.01,0.65-0.05,1.25-0.06,1.88c-0.04,2.3-0.6,5.19-2.49,6.71c-1.76,1.41-4.15,1.48-6.31,2.08
		c-3.45,0.95-6.72,2.48-10.22,3.25C280.27,20.15,279.78,20.29,279.34,20.33z"/>
	<path class="st3" d="M285.69,12.16c0.38-1.51,1.15-2.98,1.98-4.01c1.51-1.87,0.87-1.39,2.76-2.84c1.54-1.17,3.87-3.12,6.04-2.27
		c1.26,0.49,1.84,2.17,2.1,3.38c0.42,1.98,0.01,4.27-0.79,6.1c-0.78,1.77-2.74,2.48-4.45,2.98c-2.02,0.6-3.77,0.85-5.88,0.73
		c-0.67-0.04-1.65-0.07-1.85-0.79C285.33,14.44,285.4,13.29,285.69,12.16z"/>
	<path class="st10" d="M340.82,43.04c-0.09-1.62-0.81-3.32-2.42-5.04c-1.76-1.89-3.11-3.93-5.07-5.57c-2.3-1.93-4.68-3.05-6.4-5.57
		c-2.92-4.29-2.92-7.77-7.65-10.39c-4.32-2.4-9.15-3.53-14.07-3.65c-0.14,0-0.29,0-0.43,0c-0.11-2.12,1.45-6.14,0.39-8.06
		c-1.39-2.52-4.37-0.45-5.32,1.83l-0.05,0.14c0-0.06,0-0.13-0.01-0.19c-0.02-0.12-0.07-0.25-0.09-0.38
		c-0.04-0.23-0.1-0.46-0.16-0.69c-0.11-0.39-0.15-0.75-0.21-1.15c-0.05-0.31-0.14-0.59-0.21-0.89c-0.13-0.55-0.31-1.07-0.58-1.56
		c-0.14-0.25-0.35-0.53-0.55-0.74c-0.13-0.13-0.32-0.31-0.47-0.41c-0.3-0.19-0.67-0.22-1.02-0.22c-0.43,0-0.85,0.06-1.27,0.16
		c-0.77,0.17-1.54,0.56-2.25,0.89c-0.75,0.35-1.48,0.75-2.18,1.18c-1.45,0.89-2.81,1.93-4.04,3.1c-1.26,1.18-2.4,2.48-3.39,3.89
		c-0.98,1.39-1.82,2.88-2.46,4.46c-0.62,1.53-1.06,3.15-1.25,4.8c-0.04,0.32-0.05,0.64-0.07,0.95c-0.77,0.44-1.53,0.9-2.27,1.38
		c-13.46,8.62-23.78,23.76-38.59,30.08c-13.26,5.66-32.55,5.48-47.23,5.49c-12.79,0-23.33-1.55-35.75-4.15
		c-11.25-2.36-24.33-1.83-36.38-1.83c-10.9,0-21.02-0.95-30.26,4.66c-14.62,8.86-23.53,22.64-28.6,37.88
		c-5.53,16.63-4.66,35.97-4.66,53.91c0,16.41,2.82,36.63-17.29,39.9c-1.01,0.17-1.99,0.22-2.95,0.22c-6.99,0-13.9-1.25-20.62-3.18
		c-1.92-0.55-3.92-0.78-6.02-0.36c-6.03,1.21-8.81,7.38-6.19,13.15c4.6,10.13,22.35,10.12,31.79,10.12
		c12.01,0.01,23.07-4.29,31.28-12.98c8.27-8.75,6.91-22.65,8.69-33.85c0.94-5.93,1.91-11.59,2.72-17.28
		c0.64-4.54,7.26-4.55,7.8,0.01c0.01,0.09,0.02,0.17,0.03,0.26c0.56,4.99,1.3,9.15-0.78,13.82c-1.82,4.09-5.05,5.89-5.02,10.94
		c0.03,7.72,5.29,15.51,10.33,21.3c5.12,5.87,9,14.52,14.8,19.64c5.63,4.96,20.41,4.08,29.29,3.51c1.72-0.11,3.2-1.32,3.56-3
		c2.23-10.31-16.29-12-21.53-17.16c-4.13-4.06-6.66-11.28-5.34-17.46c0.12-0.58,0.29-1.12,0.47-1.64c2.7,3.58,6.98,6.73,9.54,9.15
		c4.73,4.46,10.05,7.54,14.76,11.92c3.39,3.15,4.08,5.03,8.48,6.17c3.2,0.83,8.86,0.55,11.94,0.7c8.97,0.45,16.99-1.37,9.2-11.19
		c-4.32-5.44-12.77-4.38-18.29-8.94c-3.88-3.2-10.86-12.09-11.34-17.15c-0.61-6.43,8.03-11.65,12.32-15.31
		c4.1-3.49,8.5-10.33,13.33-13.74c0.13,0.02,0.25,0.02,0.38,0.04c12.88,1.91,23.83,6.01,37.91,6.01c8.78,0,15.26,0.59,23.32-0.45
		c9.54,14.14,14.72,55.98,26.15,61c2.31,1.01,7.64,2.41,12.55,2.83c1.66,2.8,3.73,5.05,6.38,6.37c4.57,2.28,14.84,4.47,19.45,3.14
		c6.47-1.86,7.61-8.28,2.53-12.8c-5.54-4.93-11.6-3.21-14.12-10.81c-2.05-6.18-0.05-13,0.62-18.97c0.89-7.91,0.11-16.91,1.33-24.93
		c1.31-8.62,3.63-17.06,4.98-25.76c4-12.5,4.59-26.35,8.77-38.97c2.9-8.74,10.41-18.58,19.46-23.05c-0.4,0.27-0.81,0.55-1.26,0.89
		c9.03-6.02,22.66,4.2,27.24-8.37c1.02-0.93,1.94-1.93,2.67-2.98C340.74,46.97,341.74,44.85,340.82,43.04z M252.15,173.22
		c-0.01-0.1-0.01-0.19-0.02-0.29c0.54,1.78,1.02,3.84,1.49,6.05C252.91,177.75,252.4,175.94,252.15,173.22z"/>
	<path class="st1" d="M292.57,11.09c0.45-0.47,0.55-1.19,0.65-1.99c0.11-0.94,0.72-1.62,0.95-2.48c0.22-0.84-0.12-1.79,0.61-2.19
		c0.32-0.17,0.52-0.14,0.59,0.39c0.09,0.67-0.08,1.09-0.22,1.69c-0.16,0.69-0.19,1.45-0.06,2.16c0.16,0.91,0.51,1.88,0.49,2.84
		c-0.01,0.73-0.22,1.7-0.61,2.12c-0.35,0.37-0.82,0.46-1.2,0.75c-0.48,0.36-1.65,1.36-2.02,0.29c-0.17-0.5,0.02-1.22,0.14-1.7
		c0.11-0.43,0.26-0.86,0.44-1.21C292.47,11.46,292.52,11.14,292.57,11.09z"/>
</g>
</svg>
