<!-- Generator: Adobe Illustrator 23.1.1, SVG Export Plug-In  -->
<svg version="1.1" xmlns="http://www.w3.org/2000/svg" xmlns:xlink="http://www.w3.org/1999/xlink" x="0px" y="0px"
	 width="212.71px" height="172.21px" viewBox="0 0 212.71 172.21" style="enable-background:new 0 0 212.71 172.21;"
	 xml:space="preserve">
<style type="text/css">
	.st0{fill:#060100;}
	.st1{fill:#1D2328;}
	.st2{fill:#273037;}
	.st3{fill:#191F23;}
	.st4{fill:#2E383F;}
	.st5{fill:#CCBAA6;}
	.st6{fill:none;}
	.st7{fill:#FFFFFF;}
	.st8{fill:#020202;}
	.st9{fill:none;stroke:#000000;stroke-miterlimit:10;}
	.st10{fill:#3C4951;}
	.st11{fill:none;stroke:#050300;stroke-miterlimit:10;}
	.st12{fill:none;stroke:#273037;stroke-miterlimit:10;}
</style>
<defs>
</defs>
<g>
	<path class="st0" d="M77.71,107.32c2.36,9.53,0.45,20.06,1.43,30.1c1,10.2,7.91,13.8,12.48,21.56c0.68,1.16,0.21,2.67-1.03,3.19
		c-5.8,2.43-16.07-0.61-20.93-1.66c-9.49-2.05-10.38-7.05-14.18-15.21c-2.95-6.34-8.02-11.8-10.68-18.28
		c-4.01-9.79,2.2-19.96,5.86-29.21c2.83-7.14,3.15-8.09,10.71-4.14C67.52,96.87,72.38,101.96,77.71,107.32z"/>
	<path class="st1" d="M60.52,85.11c-0.65,5.18-3.69,9.94-4.91,14.91c18.86,6.79,41.04,18.41,62.15,17.22
		c-2.89-10.99-20.16-11.28-30.3-16.35C78.38,96.35,70.27,88.52,60.52,85.11z"/>
	<path class="st2" d="M5.82,85.09c-0.6,15.97-1.28,32.97,3.77,47.41c2.46,7.05-1.24,14.4,1.25,21.07c1.07,2.86,2.1,7,4.12,9.48
		c3.85,4.72,11.42,5.38,17.8,6.92c8.03,1.93,15.04,1.26,22.61-0.2c1.76-0.34,3.03-1.95,2.87-3.74c-0.41-4.44-3.64-8.05-6.17-11.73
		c-4.41-6.43-4.61-7.84-2.6-15.42c2.91-10.96,3.15-22.2,6.16-32.96c1.64-5.88,2.1-12.71,5.36-17.65
		c15.49,13.26,36.26,18.15,54.39,26.03c-4.06,13.87-0.95,29.97,5.13,43.55c3.99,8.91,5.98,9.9,15.75,10.77
		c6.4,0.57,19.01,6.14,24.92,2.16c9.01-6.07-2.93-11.99-5.55-16.52c-3.31-5.71-2.56-15.21-2.89-21.84
		c-0.16-3.21-1.7-23.96,5.32-19.65c2.66,1.64,0.73,8.58,1.13,11.41c0.48,3.45,1.98,6.71,3.38,10.07c2.89,6.9,5.16,19.2,12.7,22.12
		c5.14,2,18.53,2.23,24.66-0.11c0.89-0.34,1.33-1.35,0.94-2.22c-1.7-3.84-6.38-5.62-8.02-9.08c-1.82-3.84-0.7-10.32-0.7-14.69
		c0-9.77,0.7-20.25-1.35-29.44c-2.77-12.44-2.38-15.45,3.67-26.04c4.21-7.36,7.19-18.06,4.99-26.73
		c-7.35-28.96-48.52-30.24-71.78-25.62c-14.45,2.87-25.9-1.18-40.14-3.76c-16.89-3.06-38.42-2.47-55.33,1.75
		C0.78,28.29,6.63,58.3,5.82,85.09z"/>
	<g>
		<path class="st3" d="M141.51,23.07c-2.84-0.41-3.88-5.97-4.06-8.06c-0.29-3.32-0.32-7.02,1.31-10.01c1.64-3,4.85-3.13,7.87-3.38
			c3.81-0.31,7.11,1.79,9.91,4.3c2.19,1.96,4.71,4.92,4.99,7.88c-4.16,0.22-8.32,1.31-12.12,3.2c-2.02,1.01-3.88,2.43-5.59,3.9
			C143.17,21.46,142.28,22.66,141.51,23.07z"/>
		<path class="st4" d="M148.26,17.22c-13.12,9.49-13.81,19.17-10.77,34.42c3.23,16.2,12.2,22.18,28.33,23.63
			c27.69,2.49,49.13-33.46,25.42-52.85C179.91,13.15,159.61,8.43,148.26,17.22z"/>
		<path class="st5" d="M157.04,40.33c-8.08,2.15-13.65,13.83-11.32,21.65c1.42,4.77,6.53,7.56,11.08,8.81
			c2.89,0.79,6.54,0.88,9.37-0.31c4.72-1.98,5.58-6.44,6.06-11.08c0.42-4.17,0.82-9.03-0.29-13.14
			C170.18,39.77,164.02,38.48,157.04,40.33z"/>
		<path class="st0" d="M152.92,46.37c-9.85,1.71-4.38,10.04,3.62,9.35c2.2-0.19,5.09-1.47,5.87-3.88c1.11-3.43-1.82-5.03-4.65-5.46
			C156.07,46.13,154.65,46.07,152.92,46.37z"/>
		<path class="st6" d="M183.78,19.89c6.2-3.46,18.05-2.67,19.36,6.08c1.22,8.15-10.33,10.32-15.59,13.19
			c-0.52-0.68-0.5-1.4-0.9-2.08"/>
		<g>
			<g>
				
					<ellipse transform="matrix(0.999 -0.0449 0.0449 0.999 -1.2906 6.8893)" class="st7" cx="152.81" cy="32.19" rx="5.38" ry="5.38"/>
				<circle class="st8" cx="153.25" cy="32.44" r="4.24"/>
				
					<ellipse transform="matrix(0.999 -0.0449 0.0449 0.999 -1.3046 6.9156)" class="st9" cx="153.38" cy="32.52" rx="5.49" ry="5.49"/>
				<circle class="st7" cx="151.59" cy="32.3" r="1.17"/>
			</g>
		</g>
		<g>
			<g>
				
					<ellipse transform="matrix(0.999 -0.0449 0.0449 0.999 -1.4618 8.0741)" class="st7" cx="179.11" cy="36.6" rx="5.38" ry="5.38"/>
				<circle class="st8" cx="179.55" cy="36.84" r="4.24"/>
				
					<ellipse transform="matrix(0.999 -0.0449 0.0449 0.999 -1.4757 8.1003)" class="st9" cx="179.69" cy="36.92" rx="5.49" ry="5.49"/>
				<circle class="st7" cx="177.89" cy="36.7" r="1.17"/>
			</g>
		</g>
		<path class="st4" d="M184.06,19.96c0.98-0.92,1.64-2.37,2.81-3.35c1.25-1.05,2.62-2.09,4-2.99c3.03-1.97,7.49-2.17,11.03-1.55
			c4.16,0.73,7.9,4.07,9.31,7.76c0.98,2.56,1.59,5.32,1.5,8.05c-0.09,2.83-2.45,6.26-4.67,8.13c-2.42,2.03-5.49,3.37-8.72,3.29
			c4.92-0.07,6.92-6.28,7.5-9.8c0.39-2.34,0.53-4.61-1.06-6.63c-2.09-2.66-4.93-3.76-8.51-3.99c-3.23-0.21-7.66-0.74-10.62,0.62
			c-0.59,0.27-1.31,1.19-1.87,1.33C184.04,21.02,183.22,20.39,184.06,19.96z"/>
		<path class="st10" d="M186.07,20.27c-1.48-3.12,10.97-3.44,13-3.2c3.14,0.37,6.81,1.49,8.88,4c1.68,2.03,1.6,4.87,1.46,7.38
			c-0.2,3.69-3.25,8.48-6.48,10.25c-1.42,0.78-3.04,1.02-3.79-0.61c-0.98-2.14-1.56-4.69-2.35-6.98c-0.99-2.86-2.47-4.64-4.64-6.59
			C190.53,23.05,188.12,20.74,186.07,20.27z"/>
		<path class="st11" d="M156.34,40.42c-8.08,2.15-13.65,13.83-11.32,21.65c1.42,4.77,6.53,7.56,11.08,8.81
			c2.89,0.79,6.54,0.88,9.37-0.31c4.72-1.98,5.58-6.44,6.06-11.08c0.42-4.17,0.82-9.03-0.29-13.14
			C169.48,39.86,163.32,38.57,156.34,40.42z"/>
	</g>
	<path class="st1" d="M154.06,112.53c2.24-0.63,4.46-1.88,6.64-2.86c5.33-2.4,10.69-4.96,15.34-8.61
		c5.44-4.26,9.47-9.79,13.26-15.32c-5.71,9.64-11.6,18.85-21.51,25.01c-2.55,1.58-5.58,3.17-8.44,3.91
		C158.76,112.54,156.45,111.4,154.06,112.53z"/>
	<path class="st2" d="M14.63,32.83c-6.56,1.4-12.8,8.69-13.12,13.85C7.64,47.43,14.61,36.97,14.63,32.83z"/>
	<path class="st12" d="M210.21,18.76c-1.41-3.69-5.15-7.03-9.31-7.76c-3.53-0.62-8-0.42-11.03,1.55c-1.38,0.9-2.75,1.93-4,2.99
		c-0.62,0.52-1.1,1.17-1.55,1.81c-7.17-3.99-16.03-6.34-24.01-5.78c-0.71-2.56-2.87-5.03-4.77-6.73c-2.8-2.5-6.09-4.61-9.91-4.3
		c-3.02,0.25-6.23,0.37-7.87,3.38c-1.63,3-1.61,6.7-1.31,10.01c0.12,1.3,0.56,3.94,1.57,5.86c-4.05,0.35-7.89,0.91-11.33,1.59
		c-14.45,2.87-25.9-1.18-40.14-3.76c-16.89-3.06-38.42-2.47-55.33,1.75c-9.86,2.46-16.05,7.1-19.93,13.14
		c-5.63,2.38-10.5,8.56-10.78,13.1c2.14,0.26,4.37-0.84,6.38-2.56C3.87,55.17,5.26,70.02,4.84,84.01
		c-0.6,15.97-1.28,32.97,3.77,47.41c2.46,7.05-1.24,14.4,1.25,21.07c1.07,2.86,2.1,7,4.12,9.48c3.85,4.72,11.42,5.38,17.8,6.92
		c8.03,1.93,15.04,1.26,22.61-0.2c1.76-0.34,3.03-1.95,2.87-3.74c-0.41-4.44-3.64-8.05-6.17-11.73c-4.41-6.43-4.61-7.84-2.6-15.42
		c0.23-0.86,0.43-1.72,0.63-2.58c1.95,2.94,3.93,5.86,5.39,9c3.8,8.15,4.69,13.15,14.18,15.21c4.85,1.05,15.12,4.08,20.93,1.66
		c1.24-0.52,1.71-2.03,1.03-3.19c-4.57-7.76-11.48-11.36-12.48-21.56c-0.93-9.53,0.73-19.5-1.12-28.64
		c11.92,4.56,24.4,8.52,36.59,8.53c-2.84,13.15,0.24,27.94,5.88,40.55c3.99,8.91,5.98,9.9,15.75,10.77
		c6.4,0.57,19.01,6.14,24.92,2.16c9.01-6.07-2.93-11.99-5.55-16.52c-3.31-5.71-2.56-15.21-2.89-21.84
		c-0.16-3.21-1.7-23.96,5.32-19.65c0.14,0.09,0.27,0.19,0.39,0.31c0.03,0.03,0.06,0.06,0.09,0.09c1.94,2.15,0.29,8.37,0.66,11.01
		c0.48,3.45,1.98,6.71,3.38,10.07c2.89,6.9,5.16,19.2,12.7,22.12c5.14,2,18.53,2.23,24.66-0.11c0.89-0.34,1.33-1.35,0.94-2.22
		c-1.7-3.84-6.38-5.62-8.02-9.08c-1.82-3.84-0.7-10.32-0.7-14.69c0-9.77,0.7-20.25-1.35-29.44c-2.77-12.44-2.38-15.45,3.67-26.04
		c3.65-6.39,6.38-15.28,5.6-23.19c1.26-4.01,1.69-8.21,1.1-12.33c0.39-0.03,0.79-0.15,1.19-0.31c2.09-0.51,4.03-1.57,5.67-2.95
		c2.22-1.87,4.58-5.3,4.67-8.13C211.8,24.07,211.19,21.31,210.21,18.76z"/>
</g>
</svg>
