<!-- Generator: Adobe Illustrator 23.1.1, SVG Export Plug-In  -->
<svg version="1.1" xmlns="http://www.w3.org/2000/svg" xmlns:xlink="http://www.w3.org/1999/xlink" x="0px" y="0px"
	 width="322.76px" height="233.27px" viewBox="0 0 322.76 233.27" style="enable-background:new 0 0 322.76 233.27;"
	 xml:space="preserve">
<style type="text/css">
	.st0{fill:#60311C;}
	.st1{fill:none;stroke:#000000;stroke-width:2;stroke-miterlimit:10;}
	.st2{fill:#532201;}
	.st3{fill:none;stroke:#000000;stroke-width:3;stroke-miterlimit:10;}
	.st4{fill:url(#SVGID_1_);stroke:#FFFFFF;stroke-miterlimit:10;}
	.st5{fill:url(#SVGID_2_);}
	.st6{fill:#AB4400;}
	.st7{fill:#8B4A34;}
	.st8{fill:url(#SVGID_3_);}
	.st9{fill:#E8CA98;}
	.st10{fill:#A66441;}
	.st11{fill:#FFFFFF;}
	.st12{fill:#020202;}
	.st13{fill:#531F09;}
	.st14{fill:#562102;}
	.st15{opacity:0.37;}
	.st16{fill:none;stroke:#050706;stroke-width:3;stroke-miterlimit:10;}
	.st17{fill:none;stroke:#050706;stroke-width:4;stroke-linecap:round;stroke-miterlimit:10;}
	.st18{fill:none;stroke:#000000;stroke-miterlimit:10;}
	.st19{fill:url(#SVGID_4_);stroke:#FFFFFF;stroke-miterlimit:10;}
	.st20{fill:url(#SVGID_5_);}
	.st21{fill:url(#SVGID_6_);}
</style>
<defs>
</defs>
<g>
	<path class="st0" d="M220.2,194.31c0,0,4.73,16.98,6.07,17.39s7.51-0.62,11.93-4.53c0,0,3.27-2.66,8.78,0.41
		c1.17,0.65,2.49,0.99,3.83,0.93c3.12-0.15,8.6-0.44,10.33-0.72c1.49-0.25,2.68,1.86,3.39,3.58c0.19,0.47-0.33,0.9-0.76,0.62
		c-0.9-0.6-2.22-1.09-3.97-0.8c-3.7,0.62-12.04,0.1-12.04,0.1s-13.37-0.31-15.84,3.91c0,0,7.82,1.23,12.76,0.41
		c4.56-0.76,12.81-2.14,16.15,4.31c0.14,0.26-0.19,0.53-0.4,0.33c-1.48-1.37-4.59-2.95-10.44-1.03c-1.88,0.62-3.87,0.85-5.84,0.58
		c-5.82-0.77-18.28-2.25-26.31-1.96c-2.48,0.09-4.95-0.4-7.21-1.42c-3.49-1.56-8.81-3.21-11.77-0.45c-0.21,0.19-0.52-0.04-0.41-0.3
		c0.83-1.88,2.89-4.96,7.44-4.38c6.48,0.82,15.84,3.7,15.84,3.7l-5.87-19.96L220.2,194.31z"/>
	<path class="st1" d="M221.01,195.65c0,0,4.73,16.98,6.07,17.39s7.51-0.62,11.93-4.53c0,0,3.27-2.66,8.78,0.41
		c1.17,0.65,2.49,0.99,3.83,0.93c3.12-0.15,8.6-0.44,10.33-0.72c1.49-0.25,2.68,1.86,3.39,3.58c0.19,0.47-0.33,0.9-0.76,0.62
		c-0.9-0.6-2.22-1.09-3.97-0.8c-3.7,0.62-12.04,0.1-12.04,0.1s-13.37-0.31-15.84,3.91c0,0,7.82,1.23,12.76,0.41
		c4.56-0.76,12.81-2.14,16.15,4.31c0.14,0.26-0.19,0.53-0.4,0.33c-1.48-1.37-4.59-2.95-10.44-1.03c-1.88,0.62-3.87,0.85-5.84,0.58
		c-5.82-0.77-18.28-2.25-26.31-1.96c-2.48,0.09-4.95-0.4-7.21-1.42c-3.49-1.56-8.81-3.21-11.77-0.45c-0.21,0.19-0.52-0.04-0.41-0.3
		c0.83-1.88,2.89-4.96,7.44-4.38c6.48,0.82,15.84,3.7,15.84,3.7l-5.87-19.96L221.01,195.65z"/>
	<polygon class="st2" points="76.76,148.96 4.79,148.84 47.86,142.32 	"/>
	<path class="st3" d="M72.19,148.65l-69.26-0.11c-0.24,0-0.27-0.34-0.03-0.38l41.45-6.14c0.02,0,0.05,0,0.07,0l27.81,6.25
		C72.46,148.33,72.42,148.65,72.19,148.65z"/>
	<linearGradient id="SVGID_1_" gradientUnits="userSpaceOnUse" x1="214.469" y1="122.0715" x2="286.9589" y2="85.6331">
		<stop  offset="0.5485" style="stop-color:#EFC389"/>
		<stop  offset="1" style="stop-color:#F8E5CD"/>
	</linearGradient>
	<path class="st4" d="M280.67,37.54c6.68,65.43-20.56,134.87-30.87,141.16L219.15,67.91c0,0,6.38-36.5,46.97-42.63
		C273.69,24.13,279.89,29.92,280.67,37.54z"/>
	<linearGradient id="SVGID_2_" gradientUnits="userSpaceOnUse" x1="76.762" y1="133.9497" x2="270.7658" y2="133.9497">
		<stop  offset="0" style="stop-color:#FFCA5F"/>
		<stop  offset="1" style="stop-color:#ECC290"/>
	</linearGradient>
	<path class="st5" d="M219.45,67.61L76.76,150.22c0,0,60.7,50.07,123.29,50.07s70.72-68.84,70.72-68.84L219.45,67.61z"/>
	<path class="st6" d="M262.56,12.39c-16.27-2.41-51.95,0.13-79.42,53.17c-2.65,5.12-6.65,9.43-11.59,12.4l-83.65,50.41
		c-1.98,1.19-4.22,1.86-6.53,1.95l-78.64,2.89c-0.43,0.02-0.48,0.63-0.06,0.72l74.08,15.66c0,0,66.08,10.72,133.21-47.98
		c3.27-2.86,5.41-6.79,6.01-11.09l1.76-12.58c1.52-10.83,6.13-21,13.27-29.29l0,0c3.02-3.51,7.26-5.74,11.87-6.25l2.03-0.23
		c5.01-0.56,9.71-2.69,13.43-6.09l16.18-14.79l0,0C272.46,16.61,267.89,13.18,262.56,12.39z"/>
	<path class="st7" d="M258.25,23.81c0,0,33.14-16.8,49.16-21.78c3.55-1.1,7.35-1.15,10.92-0.12v0c0,0-36.92,13.22-49.44,24.41
		L258.25,23.81z"/>
	
		<linearGradient id="SVGID_3_" gradientUnits="userSpaceOnUse" x1="282.5852" y1="25.2749" x2="331.0876" y2="0.8943" gradientTransform="matrix(0.9995 -0.0325 0.0332 1.0217 -11.0292 12.0479)">
		<stop  offset="0" style="stop-color:#F8E5CD"/>
		<stop  offset="0" style="stop-color:#F8E5CD"/>
		<stop  offset="0" style="stop-color:#F8E5CD"/>
		<stop  offset="0.4529" style="stop-color:#8B4A34"/>
	</linearGradient>
	<path class="st8" d="M282.03,19.42c9.98-5.98,31.86-15.89,38.98-15.16c0,0-38.64,21.3-42.25,25.9l-7.75-3.79l-0.24-1.95
		C274.85,23.47,278.41,21.59,282.03,19.42z"/>
	<path class="st9" d="M268.89,26.48c0,0-47.56-19.98-65.09,23.61C203.8,50.09,218.82,31.93,268.89,26.48z"/>
	<path class="st10" d="M268.89,26.31c0,0-48.4,2.74-65.09,23.78C203.8,50.09,240.52,49.18,268.89,26.31z"/>
	<g>
		<ellipse class="st11" cx="239.43" cy="30.69" rx="8.62" ry="8.62"/>
		<circle class="st12" cx="239.75" cy="30.38" r="6.79"/>
		<ellipse class="st1" cx="240.39" cy="30.72" rx="8.8" ry="8.79"/>
	</g>
	<circle class="st11" cx="241.98" cy="28.81" r="1.88"/>
	<path class="st13" d="M203.52,92.04c8.84,0.33,16.18,6.93,17.78,15.63c2.12,11.54,2.67,23.29-2.54,33.53
		c-5.09,9.99-15.11,16.82-25.8,20.18s-22.11,3.61-33.32,3.2c-28.11-1.04-56.06-6.14-82.73-15.09
		c33.22-18.06,65.82-36.68,100.25-52.3C184.61,93.8,194.38,91.7,203.52,92.04z"/>
	<path class="st6" d="M199.58,87.79c8.84,0.33,16.18,6.93,17.78,15.63c2.12,11.54,2.67,23.29-2.54,33.53
		c-5.09,9.99-15.11,16.82-25.8,20.18c-10.7,3.36-22.11,3.61-33.32,3.2c-28.11-1.04-56.06-6.14-82.73-15.09
		c33.22-18.06,65.82-36.68,100.25-52.3C180.67,89.55,190.44,87.45,199.58,87.79z"/>
	<g>
		<path class="st2" d="M81.87,131.14c-1.04,0.47-2.04,0.82-3,1.23l-1.43,0.61c-0.47,0.22-0.93,0.43-1.42,0.61
			c-0.99,0.4-1.89,0.53-1.74,1.56c0.07,0.46,0.38,0.86,0.8,1.14c0.42,0.28,0.91,0.45,1.44,0.6l1.48,0.42l-1.62,0.5
			c-1.05,0.32-1.93,0.93-2.71,1.56c-0.78,0.66-1.35,1.49-1.78,2.36c-0.43,0.87-0.71,1.84-0.79,2.88c-0.09,1.04,0.02,2.13,0.34,3.28
			l-0.17,0.11c-0.94-0.81-1.53-2.01-1.77-3.28c-0.23-1.27-0.11-2.66,0.45-3.9c0.56-1.24,1.54-2.23,2.63-2.94
			c1.09-0.73,2.42-1.05,3.68-1.02l-0.14,0.91c-0.9-0.6-2.05-1.18-2.52-2.41c-0.11-0.3-0.18-0.64-0.15-1
			c0.03-0.36,0.17-0.73,0.38-1.03c0.43-0.6,0.95-0.95,1.41-1.25c0.48-0.32,1.01-0.55,1.55-0.73c0.54-0.2,1.09-0.34,1.66-0.44
			c1.13-0.19,2.28-0.23,3.41,0.04L81.87,131.14z"/>
	</g>
	<g>
		<path class="st2" d="M68,131.55c-0.9,0.41-1.76,0.69-2.59,1.02c-0.83,0.3-1.64,0.66-2.44,0.94c-0.76,0.26-1.55,0.48-1.87,1.24
			c-0.14,0.36-0.1,0.77,0.16,1.04c0.24,0.29,0.65,0.39,0.9,0.26l0.25,0.85c-0.9,0.53-1.73,1.12-2.5,1.63
			c-0.77,0.53-1.35,1.17-1.78,1.85c-0.43,0.68-0.72,1.37-0.64,2.14c0.09,0.78,0.46,1.63,1.36,2.15l-0.03,0.2
			c-1.17,0.2-2.39-0.71-2.88-1.87c-0.55-1.22-0.3-2.7,0.36-3.74c0.65-1.07,1.69-1.8,2.68-2.29c1.01-0.52,2.09-0.68,3.1-0.89
			l0.25,0.85c-1.38,0.04-2.11-1.26-1.94-2.34c0.1-1.11,0.94-2.15,1.85-2.65c0.89-0.49,1.85-0.73,2.83-0.85
			c0.98-0.09,1.98-0.07,2.93,0.26L68,131.55z"/>
	</g>
	<g>
		<path class="st2" d="M50.78,132.17c-0.6,0.51-1.21,0.79-1.72,1.1c-0.53,0.29-0.9,0.57-1.41,0.78c-0.5,0.2-1.05,0.68-0.93,1.28
			c0.05,0.6,0.7,1,1.06,0.87l3.21-1.09l-3.23,2.51c-0.34,0.26-0.63,0.52-0.83,0.85c-0.19,0.33-0.31,0.67-0.41,0.99
			c-0.09,0.33-0.14,0.73-0.08,1.17c0.06,0.44,0.18,0.94,0.49,1.47l-0.1,0.17c-0.66-0.04-1.3-0.42-1.73-0.99
			c-0.43-0.56-0.7-1.3-0.65-2.09c0.04-0.79,0.42-1.51,0.95-2.03c0.53-0.51,1.2-0.92,1.94-0.98l-0.03,1.41
			c-0.46-0.26-0.76-0.66-0.91-1.06c-0.17-0.39-0.23-0.78-0.27-1.16c-0.04-0.75,0.03-1.6,0.44-2.37c0.4-0.77,1.25-1.16,1.99-1.3
			c0.76-0.12,1.48-0.06,2.21,0.24L50.78,132.17z"/>
	</g>
	<g>
		<path class="st2" d="M34.89,132.86c-0.44,0.37-0.86,0.55-1.18,0.76c-0.33,0.18-0.5,0.36-0.72,0.48c-0.2,0.1-0.6,0.17-0.66,0.52
			c-0.08,0.35,0.34,0.68,0.56,0.5l0.1,0.85c-0.45,0.28-0.82,0.65-1.08,0.87c-0.26,0.23-0.31,0.49-0.36,0.62
			c-0.02,0.1-0.17,0.1-0.06,0.44c0.12,0.31,0.47,0.71,0.84,1.17l-0.06,0.19c-0.58,0.17-1.2,0.21-1.85-0.13
			c-0.32-0.17-0.65-0.48-0.84-0.9c-0.19-0.41-0.23-0.94-0.1-1.35c0.22-0.85,0.92-1.37,1.53-1.62c0.62-0.28,1.23-0.16,1.75-0.13
			l0.1,0.85c-0.71-0.2-1.01-0.69-1.27-1.2c-0.29-0.54-0.27-1.39,0.16-1.91c0.41-0.52,1.09-0.73,1.63-0.73
			c0.56,0.02,1.04,0.17,1.49,0.53L34.89,132.86z"/>
	</g>
	<g>
		<path class="st2" d="M41.25,132.72c-0.38,0.45-0.72,0.74-0.95,1.04c-0.25,0.28-0.34,0.52-0.48,0.74c-0.13,0.2-0.44,0.44-0.36,0.81
			c0.07,0.37,0.58,0.57,0.8,0.34l0.24,0.75c-0.45,0.29-0.74,0.76-0.98,1.08c-0.25,0.33-0.33,0.68-0.4,0.99
			c-0.07,0.32-0.15,0.57-0.11,0.92c0.06,0.35,0.2,0.8,0.69,1.19l-0.01,0.2c-0.63,0.34-1.52,0.09-2.06-0.49
			c-0.59-0.59-0.79-1.54-0.6-2.3c0.17-0.78,0.73-1.42,1.31-1.83c0.6-0.42,1.32-0.47,1.94-0.51l0.24,0.75
			c-0.71,0.07-1.21-0.23-1.7-0.61c-0.52-0.4-0.84-1.23-0.64-1.91c0.19-0.68,0.77-1.18,1.34-1.39c0.58-0.2,1.16-0.21,1.7,0.03
			L41.25,132.72z"/>
	</g>
	<path class="st14" d="M185.03,198.41c0,0,1.56,17.52,2.82,18.15c1.25,0.63,7.51,0.63,12.52-2.5c0,0,3.66-2.09,8.59,1.85
		c1.05,0.84,2.3,1.39,3.63,1.55c3.1,0.37,8.55,0.98,10.31,0.98c1.51,0,2.34,2.28,2.76,4.08c0.11,0.49-0.48,0.83-0.85,0.49
		c-0.79-0.74-2.01-1.44-3.78-1.44c-3.75,0-11.89-1.88-11.89-1.88s-13.14-2.5-16.27,1.25c0,0,7.51,2.5,12.52,2.5
		c4.62,0,12.99,0,15.22,6.9c0.09,0.28-0.27,0.49-0.45,0.25c-1.23-1.59-4.04-3.67-10.12-2.74c-1.96,0.3-3.96,0.2-5.86-0.38
		c-5.62-1.72-17.66-5.23-25.63-6.26c-2.47-0.32-4.81-1.21-6.88-2.59c-3.18-2.12-8.16-4.61-11.54-2.38
		c-0.23,0.16-0.51-0.13-0.35-0.36c1.12-1.72,3.67-4.41,8.06-3.1c6.26,1.88,15.02,6.26,15.02,6.26l-2.5-20.65H185.03z"/>
	<g class="st15">
		<path class="st11" d="M237.48,17.43c-0.2-0.45-1.8,0.26-1.6,0.71C236.08,18.58,237.68,17.88,237.48,17.43z"/>
		<path class="st11" d="M228.41,19.03c-1.01,0.54-0.64,1.24,0.37,0.71C229.8,19.2,229.43,18.5,228.41,19.03z"/>
		<path class="st11" d="M232.14,19.88c-0.99,0.58-0.56,1.32,0.43,0.74C233.56,20.04,233.13,19.29,232.14,19.88z"/>
		<path class="st11" d="M224.41,21.14c-1.19,0.76-0.73,1.49,0.46,0.73C226.07,21.1,225.61,20.37,224.41,21.14z"/>
		<path class="st11" d="M215.36,29.09c-1.34,1.01-0.69,1.88,0.65,0.87C217.35,28.94,216.7,28.07,215.36,29.09z"/>
		<path class="st11" d="M219.11,25.34c-1.34,1.02-0.69,1.88,0.65,0.86C221.1,25.18,220.45,24.32,219.11,25.34z"/>
		<path class="st11" d="M207.56,35.05c-1.12,1.23-0.22,2.07,0.91,0.83C209.59,34.65,208.68,33.82,207.56,35.05z"/>
		<path class="st11" d="M210.36,31.58c-1.35,0.99-0.7,1.87,0.65,0.88C212.35,31.47,211.71,30.59,210.36,31.58z"/>
		<path class="st11" d="M205.31,41.1c-0.81,1.29,0.13,1.89,0.95,0.59C207.07,40.4,206.13,39.8,205.31,41.1z"/>
		<path class="st11" d="M200.89,40.88c-0.89,1.23-0.05,1.84,0.84,0.61C202.62,40.26,201.78,39.65,200.89,40.88z"/>
		<path class="st11" d="M199,45.99c-1.19,1.21-0.5,1.9,0.7,0.69C200.88,45.47,200.19,44.78,199,45.99z"/>
		<path class="st11" d="M203.38,45.96c-0.97,1.17-0.17,1.84,0.81,0.67C205.16,45.45,204.36,44.78,203.38,45.96z"/>
		<path class="st11" d="M194.22,48.99c-1.31,1.59-0.28,2.45,1.04,0.86C196.58,48.25,195.54,47.39,194.22,48.99z"/>
		<path class="st11" d="M197.17,50.68c-1.44,1.68-0.25,2.7,1.19,1.02C199.79,50.01,198.61,49,197.17,50.68z"/>
		<path class="st11" d="M201.17,50.9c-1.12,1.58-0.03,2.36,1.1,0.78C203.4,50.11,202.3,49.32,201.17,50.9z"/>
		<path class="st11" d="M201.84,55.83c-1.31,1.43-0.3,2.36,1.01,0.92C204.16,55.32,203.15,54.4,201.84,55.83z"/>
		<path class="st11" d="M192.56,59.12c-1.34,1.37-0.52,2.19,0.83,0.81C194.73,58.55,193.91,57.74,192.56,59.12z"/>
		<path class="st11" d="M197.51,56.04c-1.17,1.53-0.25,2.24,0.93,0.71C199.61,55.21,198.69,54.5,197.51,56.04z"/>
		<path class="st11" d="M197.19,62.15c-1.26,1.83-0.12,2.61,1.14,0.78C199.59,61.11,198.45,60.32,197.19,62.15z"/>
		<path class="st11" d="M191.67,70.01c-1.43,1.48-0.62,2.27,0.81,0.79C193.92,69.32,193.11,68.53,191.67,70.01z"/>
		<path class="st11" d="M199.76,79.55c-1.56,1.57-0.55,2.57,1.01,1C202.32,78.97,201.32,77.97,199.76,79.55z"/>
		<path class="st11" d="M184.9,77.79c-1.75,1.31-1.03,2.28,0.72,0.96C187.38,77.44,186.66,76.48,184.9,77.79z"/>
		<path class="st11" d="M187.27,66.71c-1.19,1.84-0.2,2.48,0.99,0.64C189.45,65.5,188.46,64.86,187.27,66.71z"/>
		<path class="st11" d="M193.14,76.94c-1.79,1.03-1.08,2.25,0.7,1.22C195.63,77.13,194.93,75.9,193.14,76.94z"/>
		<path class="st11" d="M193.26,86.34c-1.91,1.33-1.1,2.51,0.82,1.17C195.99,86.18,195.17,85,193.26,86.34z"/>
		<path class="st11" d="M184.41,85.7c-1.84,1.22-1.05,2.42,0.79,1.19C187.04,85.67,186.25,84.47,184.41,85.7z"/>
		<path class="st11" d="M180.61,82.65c-1.98,0.9-1.45,2.08,0.53,1.18C183.13,82.93,182.6,81.75,180.61,82.65z"/>
		<path class="st11" d="M177.51,76.89c-2.03,0.79-1.52,2.11,0.51,1.31C180.05,77.41,179.54,76.1,177.51,76.89z"/>
		<path class="st11" d="M169.22,84.63c-1.97,1.18-1.35,2.23,0.63,1.05C171.82,84.49,171.2,83.44,169.22,84.63z"/>
		<path class="st11" d="M175.15,89.2c-2.1,1.07-1.49,2.27,0.61,1.2C177.86,89.33,177.25,88.13,175.15,89.2z"/>
		<path class="st11" d="M186.52,90.23c-2.24,1.06-1.45,2.76,0.8,1.7C189.57,90.87,188.77,89.17,186.52,90.23z"/>
		<path class="st11" d="M173.27,94.83c-2.3,1.18-1.45,2.86,0.86,1.67C176.43,95.32,175.58,93.64,173.27,94.83z"/>
		<path class="st11" d="M168.23,90.27c-2.23,1.56-1.53,2.58,0.71,1.02C171.18,89.72,170.47,88.7,168.23,90.27z"/>
		<path class="st11" d="M160.24,96.9c-2.28,1.18-1.61,2.48,0.67,1.3C163.19,97.02,162.52,95.72,160.24,96.9z"/>
		<path class="st11" d="M163.54,87.79c-1.86,1.08-1.18,2.27,0.69,1.19C166.09,87.9,165.41,86.71,163.54,87.79z"/>
		<path class="st11" d="M166.08,99.15c-2.1,1.33-1.21,2.75,0.9,1.42C169.08,99.25,168.19,97.82,166.08,99.15z"/>
		<path class="st11" d="M180.36,91.21c-2.38,0.75-1.82,2.54,0.56,1.79C183.3,92.25,182.74,90.46,180.36,91.21z"/>
		<path class="st11" d="M136.56,103.55c-2.41,1.1-1.64,2.81,0.78,1.71C139.75,104.16,138.98,102.45,136.56,103.55z"/>
		<path class="st11" d="M158.19,92.19c-2.4,1.15-1.69,2.65,0.72,1.5C161.31,92.54,160.6,91.04,158.19,92.19z"/>
		<path class="st11" d="M151.36,98.6c-2.2,1.27-1.53,2.46,0.68,1.18C154.25,98.51,153.57,97.33,151.36,98.6z"/>
		<path class="st11" d="M158.16,102.87c-2.22,1.43-1.3,2.87,0.93,1.44C161.31,102.89,160.38,101.44,158.16,102.87z"/>
		<path class="st11" d="M144.01,106.12c-2.28,1.11-1.57,2.57,0.71,1.46C147,106.47,146.29,105.01,144.01,106.12z"/>
		<path class="st11" d="M150.14,104.83c-2.19,1.29-1.33,2.76,0.86,1.47C153.2,105,152.34,103.53,150.14,104.83z"/>
		<path class="st11" d="M143.8,98.35c-2.22,1.34-1.26,2.95,0.97,1.61C146.99,98.62,146.02,97.01,143.8,98.35z"/>
		<path class="st11" d="M198.96,70.84c-2.1,1.29-1.12,2.89,0.98,1.6C202.04,71.15,201.06,69.55,198.96,70.84z"/>
		<path class="st11" d="M158.41,87.28c-2.35,0.95-1.73,2.5,0.62,1.55C161.38,87.88,160.76,86.33,158.41,87.28z"/>
		<path class="st11" d="M151.11,93.34c-1.97,1.09-1.37,2.2,0.61,1.11C153.7,93.36,153.09,92.25,151.11,93.34z"/>
		<path class="st11" d="M171.62,79.87c-1.99,1.16-1.17,2.57,0.82,1.4C174.43,80.11,173.62,78.7,171.62,79.87z"/>
		<path class="st11" d="M164.94,83.39c-1.83,1.14-1.19,2.17,0.64,1.03C167.41,83.28,166.77,82.24,164.94,83.39z"/>
		<path class="st11" d="M174.31,83.96c-2.15,0.84-1.71,1.97,0.44,1.14C176.91,84.26,176.47,83.12,174.31,83.96z"/>
		<path class="st11" d="M182.99,73.3c-1.44,1.45-0.44,2.44,1,0.99C185.43,72.83,184.44,71.85,182.99,73.3z"/>
		<path class="st11" d="M191.27,54.17c-1.17,1.52-0.26,2.22,0.91,0.7C193.35,53.35,192.44,52.65,191.27,54.17z"/>
		<path class="st11" d="M192.26,64.22c-1.13,1.89-0.12,2.49,1.01,0.6C194.4,62.94,193.39,62.33,192.26,64.22z"/>
		<path class="st11" d="M187.97,59.6c-1.33,1.56-0.29,2.45,1.04,0.89C190.35,58.93,189.31,58.03,187.97,59.6z"/>
		<path class="st11" d="M204.64,38.34c-0.91,1.22-0.02,1.89,0.9,0.67C206.45,37.78,205.56,37.11,204.64,38.34z"/>
	</g>
	<path class="st16" d="M78.26,150.67c0,0,59.59,47.74,121.47,47.74c52.21,0,66.88-53.59,70.19-70.34c0.7-3.52,1.48-7.02,2.35-10.5
		c3.71-14.87,4.92-29.98,6.23-45.36c1.17-13.73,4.39-29.16-0.22-42.15"/>
	<path class="st16" d="M321.13,4.67c0.03-0.02,0.01-0.07-0.03-0.06C303.5,9.67,284.44,16.85,268.58,26
		c14.02-11,32.2-19.3,49.27-24.38c0.07-0.02,0.04-0.12-0.03-0.11c-16.6,1.23-31.25,7.85-46.43,14.8"/>
	<path class="st3" d="M272.64,16.92c-3.13-3.13-7.97-4.69-12.52-5.01c-17.27-1.19-49.71-0.61-76.83,51.57
		c-2.91,5.61-7.31,10.31-12.72,13.57L88.04,126.8c-2.2,1.32-4.69,2.07-7.25,2.16l-79.02,2.91c-0.33,0.01-0.37,0.48-0.05,0.55
		l77.54,18.25"/>
	<path class="st3" d="M215.07,96.4l3.1-20c1.52-10.93,6.13-21.19,13.27-29.55l0,0c3.02-3.54,6.56-4.86,11.17-5.38l0,0
		c4.17-0.7,8.18-2.22,11.72-4.55c5.98-3.93,12.03-8.9,14.56-11.24"/>
	<path class="st3" d="M207.12,93.05c8.85,0.33,16.2,6.94,17.8,15.65c2.12,11.56,2.67,23.34-2.54,33.59
		c-5.1,10.01-15.12,16.85-25.83,20.22s-22.13,3.62-33.35,3.2c-26.89-1-56.76-6.33-82.37-14.58c-1.35-0.44-1.53-2.27-0.28-2.95
		c32.12-17.53,66.87-34.85,100.2-49.99C188.2,94.81,197.98,92.71,207.12,93.05z"/>
	<path class="st17" d="M278.76,30.17c13.08-10.87,28.42-14.76,42-25"/>
	<g>
		<g>
			<path class="st13" d="M228.01,131.52c1.05,0.84,1.96,1.55,2.86,2.15c0.9,0.59,1.77,1.03,2.67,1.31c0.9,0.26,1.84,0.49,2.93,0.49
				c0.54,0.08,1.1-0.02,1.7,0.03c0.6-0.01,1.21-0.07,1.91-0.01c-0.41,0.53-0.9,0.98-1.43,1.4c-0.57,0.33-1.14,0.73-1.81,0.9
				c-1.3,0.48-2.83,0.46-4.23,0.03c-1.41-0.45-2.61-1.38-3.41-2.5C228.42,134.19,227.93,132.88,228.01,131.52z"/>
		</g>
		<path class="st18" d="M240.46,135.53c0.05-0.01,0.09,0.06,0.04,0.09c-2.11,1.52-4.98,1.94-7.43,1.08
			c-2.31-0.81-4.56-2.96-5.08-5.42c-0.01-0.05,0.05-0.08,0.09-0.05C231.5,134.49,235.58,136.66,240.46,135.53z"/>
	</g>
	<g>
		<g>
			<path class="st13" d="M246.78,149.04c1.05,0.84,1.96,1.55,2.86,2.15c0.9,0.59,1.77,1.03,2.67,1.31c0.9,0.26,1.84,0.49,2.93,0.49
				c0.54,0.08,1.1-0.02,1.7,0.03c0.6-0.01,1.21-0.07,1.91-0.01c-0.41,0.53-0.9,0.98-1.43,1.4c-0.57,0.33-1.14,0.73-1.81,0.9
				c-1.3,0.48-2.83,0.46-4.23,0.03c-1.41-0.45-2.61-1.38-3.41-2.5C247.19,151.71,246.71,150.41,246.78,149.04z"/>
		</g>
		<path class="st18" d="M259.24,153.05c0.05-0.01,0.09,0.06,0.04,0.09c-2.11,1.52-4.98,1.94-7.43,1.08
			c-2.31-0.81-4.56-2.96-5.08-5.42c-0.01-0.05,0.05-0.08,0.09-0.05C250.27,152.01,254.35,154.18,259.24,153.05z"/>
	</g>
	<g>
		<g>
			<path class="st13" d="M220.5,154.04c1.05,0.84,1.96,1.55,2.86,2.15c0.9,0.59,1.77,1.03,2.67,1.31c0.9,0.26,1.84,0.49,2.93,0.49
				c0.54,0.08,1.1-0.02,1.7,0.03c0.6-0.01,1.21-0.07,1.91-0.01c-0.41,0.53-0.9,0.98-1.43,1.4c-0.57,0.33-1.14,0.73-1.81,0.9
				c-1.3,0.48-2.83,0.46-4.23,0.03c-1.41-0.45-2.61-1.38-3.41-2.5C220.91,156.72,220.42,155.41,220.5,154.04z"/>
		</g>
		<path class="st18" d="M232.95,158.06c0.05-0.01,0.09,0.06,0.04,0.09c-2.11,1.52-4.98,1.94-7.43,1.08
			c-2.31-0.81-4.56-2.96-5.08-5.42c-0.01-0.05,0.05-0.08,0.09-0.05C223.99,157.02,228.07,159.19,232.95,158.06z"/>
	</g>
	<g>
		<g>
			<path class="st13" d="M233.01,169.69c1.05,0.84,1.96,1.55,2.86,2.15c0.9,0.59,1.77,1.03,2.67,1.31c0.9,0.26,1.84,0.49,2.93,0.49
				c0.54,0.08,1.1-0.02,1.7,0.03c0.6-0.01,1.21-0.07,1.91-0.01c-0.41,0.53-0.9,0.98-1.43,1.4c-0.57,0.33-1.14,0.73-1.81,0.9
				c-1.3,0.48-2.83,0.46-4.23,0.03c-1.41-0.45-2.61-1.38-3.41-2.5C233.43,172.37,232.94,171.06,233.01,169.69z"/>
		</g>
		<path class="st18" d="M245.47,173.7c0.05-0.01,0.09,0.06,0.04,0.09c-2.11,1.52-4.98,1.94-7.43,1.08
			c-2.31-0.81-4.56-2.96-5.08-5.42c-0.01-0.05,0.05-0.08,0.09-0.05C236.51,172.66,240.58,174.83,245.47,173.7z"/>
	</g>
	<g>
		<g>
			<path class="st13" d="M201.1,169.97c1.05,0.84,1.96,1.55,2.86,2.15c0.9,0.59,1.77,1.03,2.67,1.31c0.9,0.26,1.84,0.49,2.93,0.49
				c0.54,0.08,1.1-0.02,1.7,0.03c0.6-0.01,1.21-0.07,1.91-0.01c-0.41,0.53-0.9,0.98-1.43,1.4c-0.57,0.33-1.14,0.73-1.81,0.9
				c-1.3,0.48-2.83,0.46-4.23,0.03c-1.41-0.45-2.61-1.38-3.41-2.5C201.51,172.64,201.02,171.34,201.1,169.97z"/>
		</g>
		<path class="st18" d="M213.55,173.98c0.05-0.01,0.09,0.06,0.04,0.09c-2.11,1.52-4.98,1.94-7.43,1.08
			c-2.31-0.81-4.56-2.96-5.08-5.42c-0.01-0.05,0.05-0.08,0.09-0.05C204.59,172.94,208.67,175.11,213.55,173.98z"/>
	</g>
	<g>
		<g>
			<path class="st13" d="M216.12,184.36c1.05,0.84,1.96,1.55,2.86,2.15c0.9,0.59,1.77,1.03,2.67,1.31c0.9,0.26,1.84,0.49,2.93,0.49
				c0.54,0.08,1.1-0.02,1.7,0.03c0.6-0.01,1.21-0.07,1.91-0.01c-0.41,0.53-0.9,0.98-1.43,1.4c-0.57,0.33-1.14,0.73-1.81,0.9
				c-1.3,0.48-2.83,0.46-4.23,0.03c-1.41-0.45-2.61-1.38-3.41-2.5C216.53,187.04,216.04,185.73,216.12,184.36z"/>
		</g>
		<path class="st18" d="M228.57,188.38c0.05-0.01,0.09,0.06,0.04,0.09c-2.11,1.52-4.98,1.94-7.43,1.08
			c-2.31-0.81-4.56-2.96-5.08-5.42c-0.01-0.05,0.05-0.08,0.09-0.05C219.61,187.33,223.69,189.51,228.57,188.38z"/>
	</g>
	<g>
		<g>
			<path class="st13" d="M189.37,185.35c1.05,0.84,1.96,1.55,2.86,2.15c0.9,0.59,1.77,1.03,2.67,1.31c0.9,0.26,1.84,0.49,2.93,0.49
				c0.54,0.08,1.1-0.02,1.7,0.03c0.6-0.01,1.21-0.07,1.91-0.01c-0.41,0.53-0.9,0.98-1.43,1.4c-0.57,0.33-1.14,0.73-1.81,0.9
				c-1.3,0.48-2.83,0.46-4.23,0.03c-1.41-0.45-2.61-1.38-3.41-2.5C189.78,188.02,189.29,186.71,189.37,185.35z"/>
		</g>
		<path class="st18" d="M201.82,189.36c0.05-0.01,0.09,0.06,0.04,0.09c-2.11,1.52-4.98,1.94-7.43,1.08
			c-2.31-0.81-4.56-2.96-5.08-5.42c-0.01-0.05,0.05-0.08,0.09-0.05C192.86,188.32,196.94,190.49,201.82,189.36z"/>
	</g>
	<g>
		<g>
			<path class="st13" d="M173.72,170.33c1.05,0.84,1.96,1.55,2.86,2.15c0.9,0.59,1.77,1.03,2.67,1.31c0.9,0.26,1.84,0.49,2.93,0.49
				c0.54,0.08,1.1-0.02,1.7,0.03c0.6-0.01,1.21-0.07,1.91-0.01c-0.41,0.53-0.9,0.98-1.43,1.4c-0.57,0.33-1.14,0.73-1.81,0.9
				c-1.3,0.48-2.83,0.46-4.23,0.03c-1.41-0.45-2.61-1.38-3.41-2.5C174.13,173,173.65,171.69,173.72,170.33z"/>
		</g>
		<path class="st18" d="M186.18,174.34c0.05-0.01,0.09,0.06,0.04,0.09c-2.11,1.52-4.98,1.94-7.43,1.08
			c-2.31-0.81-4.56-2.96-5.08-5.42c-0.01-0.05,0.05-0.08,0.09-0.05C177.21,173.3,181.29,175.47,186.18,174.34z"/>
	</g>
	<path class="st1" d="M185.26,198.17c0,0,1.56,18.5,2.82,19.16c1.25,0.66,7.51,0.66,12.52-2.64c0,0,3.66-2.21,8.59,1.95
		c1.05,0.89,2.3,1.47,3.63,1.63c3.1,0.39,8.55,1.04,10.31,1.04c1.51,0,2.34,2.4,2.76,4.31c0.11,0.52-0.48,0.88-0.85,0.51
		c-0.79-0.78-2.01-1.52-3.78-1.52c-3.75,0-11.89-1.98-11.89-1.98s-13.14-2.64-16.27,1.32c0,0,7.51,2.64,12.52,2.64
		c4.62,0,12.99,0,15.22,7.29c0.09,0.3-0.27,0.52-0.45,0.27c-1.23-1.68-4.04-3.87-10.12-2.89c-1.96,0.32-3.96,0.21-5.86-0.4
		c-5.62-1.82-17.66-5.52-25.63-6.61c-2.47-0.34-4.81-1.28-6.88-2.73c-3.18-2.23-8.16-4.87-11.54-2.51
		c-0.23,0.16-0.51-0.14-0.35-0.38c1.12-1.82,3.67-4.66,8.06-3.27c6.26,1.98,15.02,6.61,15.02,6.61l-2.5-21.81H185.26z"/>
</g>
</svg>
