<!-- Generator: Adobe Illustrator 23.1.1, SVG Export Plug-In  -->
<svg version="1.1" xmlns="http://www.w3.org/2000/svg" xmlns:xlink="http://www.w3.org/1999/xlink" x="0px" y="0px"
	 width="332.45px" height="48.91px" viewBox="0 0 332.45 48.91" style="enable-background:new 0 0 332.45 48.91;"
	 xml:space="preserve">
<defs>
</defs>
<g>
	<path d="M22.84,1.76c0.07,1.19,0.1,2.56,0.08,4.1c-0.02,1.55-0.12,2.97-0.3,4.27c-0.68-0.14-1.53-0.2-2.54-0.16
		c-1.01,0.04-2.36,0.09-4.05,0.16h-0.11h-0.05c0,0.04-0.01,0.06-0.03,0.08c-0.02,0.02-0.03,0.05-0.03,0.08
		c-0.04,0.18-0.06,0.46-0.08,0.84c-0.02,0.38-0.03,0.97-0.03,1.78s0.01,1.87,0.03,3.19c0.02,1.31,0.04,3.01,0.08,5.08
		c0.04,2.07,0.07,4.55,0.11,7.45c0.04,2.9,0.09,6.31,0.16,10.23v0.05v0.05c-0.65,0.11-1.36,0.17-2.13,0.19
		c-0.77,0.02-1.55,0.03-2.32,0.03c-0.77,0-1.54,0-2.29,0c-0.76,0-1.46,0.05-2.11,0.16c-0.04-0.14-0.04-0.79,0-1.94
		c0.04-1.15,0.06-2.87,0.08-5.16c0.02-2.29,0-5.21-0.05-8.77c-0.05-3.56-0.19-7.87-0.4-12.91L6.8,10.51
		c-0.43-0.22-0.97-0.35-1.62-0.4S3.89,10.02,3.24,10C2.59,9.98,2,9.97,1.46,9.97S0.54,9.94,0.32,9.86c-0.07-0.14-0.14-0.5-0.19-1.08
		C0.08,8.21,0.04,7.51,0.03,6.7C0.01,5.89,0,5.02,0,4.09c0-0.94,0.04-1.84,0.11-2.7c0-0.04-0.01-0.05-0.03-0.05
		c-0.02,0-0.03-0.02-0.03-0.05C3.73,1.24,7.51,1.22,11.42,1.2C15.33,1.18,19.13,1.37,22.84,1.76z"/>
	<path d="M32.45,15.21c0.18-0.11,0.4-0.23,0.67-0.38c0.27-0.14,0.49-0.29,0.68-0.43c0.76-0.54,1.6-0.97,2.54-1.3
		c0.94-0.32,1.9-0.5,2.89-0.54c0.99-0.04,1.95,0.07,2.89,0.32c0.94,0.25,1.78,0.7,2.54,1.35c0.36,0.32,0.64,1,0.84,2.03
		c0.2,1.03,0.32,2.26,0.38,3.7c0.05,1.44,0.07,3.02,0.05,4.73c-0.02,1.71-0.05,3.44-0.08,5.18c-0.04,1.75-0.07,3.43-0.11,5.05
		c-0.04,1.62-0.02,3.04,0.05,4.27c-1.26,0.18-2.39,0.26-3.38,0.24c-0.99-0.02-2.12-0.03-3.38-0.03c-0.07-0.83-0.11-1.76-0.11-2.81
		c0-1.04,0.01-2.12,0.03-3.24c0.02-1.12,0.02-2.23,0-3.35c-0.02-1.12-0.06-2.16-0.13-3.13c-0.04-0.43-0.07-0.91-0.11-1.43
		c-0.04-0.52-0.1-1.03-0.19-1.54c-0.09-0.5-0.22-0.95-0.38-1.35c-0.16-0.4-0.39-0.7-0.67-0.92c-0.04-0.04-0.07-0.05-0.11-0.05
		c-0.04,0-0.07-0.02-0.11-0.05c-0.29-0.14-0.71-0.26-1.27-0.35c-0.56-0.09-1.11-0.05-1.65,0.11c-0.54,0.16-1.03,0.49-1.46,0.97
		c-0.43,0.49-0.68,1.22-0.76,2.19c-0.07,1.26-0.09,2.49-0.05,3.7c0.04,1.21,0.08,2.41,0.13,3.62c0.05,1.21,0.08,2.4,0.08,3.59
		s-0.07,2.38-0.22,3.56v0.22c-0.61,0.18-1.14,0.29-1.59,0.32c-0.45,0.04-0.91,0.04-1.38,0.03c-0.47-0.02-0.99-0.05-1.57-0.08
		c-0.58-0.04-1.3-0.02-2.16,0.05c0-1.48-0.01-3.25-0.03-5.32c-0.02-2.07-0.04-4.29-0.05-6.67c-0.02-2.38-0.03-4.83-0.03-7.37
		c0-2.54,0-5.01,0-7.43c0-2.41,0.01-4.69,0.03-6.83c0.02-2.14,0.04-4,0.08-5.59c0.43,0.04,0.79,0.06,1.08,0.08
		c0.29,0.02,0.56,0.03,0.81,0.03c0.25,0,0.52-0.01,0.81-0.03c0.29-0.02,0.65-0.04,1.08-0.08c0.14,0,0.4-0.03,0.76-0.08
		c0.36-0.05,0.72-0.1,1.08-0.13c0.36-0.04,0.68-0.04,0.97-0.03c0.29,0.02,0.43,0.08,0.43,0.19c0.04,0.18,0.05,0.66,0.05,1.43
		c0,0.77,0,1.69,0,2.75c0,1.06,0,2.2,0,3.4c0,1.21,0,2.33,0,3.37c0,1.04,0,1.94,0,2.7S32.45,15.07,32.45,15.21z"/>
	<path d="M56.05,25.74v0.97c0.04,1.08,0.08,1.96,0.14,2.65c0.05,0.68,0.28,1.35,0.67,2c0.43,0.83,1.04,1.44,1.84,1.84
		c0.79,0.4,1.57,0.52,2.32,0.38c0.76-0.14,1.39-0.58,1.92-1.32c0.52-0.74,0.75-1.84,0.67-3.32c0.36,0.04,0.85,0.05,1.46,0.03
		c0.61-0.02,1.25-0.04,1.92-0.08c0.67-0.04,1.3-0.04,1.92-0.03c0.61,0.02,1.12,0.08,1.51,0.19c-0.07,0.94-0.14,1.85-0.22,2.75
		c-0.07,0.9-0.16,1.74-0.27,2.51c-0.11,0.77-0.24,1.44-0.4,2c-0.16,0.56-0.37,0.95-0.62,1.16c-0.61,0.86-1.4,1.48-2.38,1.84
		c-0.97,0.36-2.03,0.58-3.19,0.65c-1.15,0.07-2.33,0.07-3.54,0c-1.21-0.07-2.31-0.11-3.32-0.11c-1.01-0.14-1.94-0.47-2.81-0.97
		c-0.97-0.68-1.78-1.57-2.43-2.67c-0.65-1.1-1.17-2.3-1.57-3.62c-0.4-1.31-0.67-2.71-0.81-4.19c-0.14-1.48-0.18-2.95-0.11-4.43
		c0.11-1.33,0.22-2.62,0.35-3.86c0.13-1.24,0.41-2.46,0.84-3.65c0.47-1.04,1.19-1.94,2.16-2.67c0.97-0.74,2.07-1.3,3.29-1.67
		c1.22-0.38,2.52-0.58,3.89-0.62c1.37-0.04,2.7,0.11,4,0.43c1.66,0.29,2.99,0.86,4,1.73c1.01,0.86,1.77,1.91,2.3,3.13
		c0.52,1.22,0.84,2.57,0.94,4.05c0.11,1.48,0.11,2.97,0,4.48c-0.25,0.07-0.73,0.14-1.43,0.22c-0.7,0.07-1.53,0.14-2.48,0.22
		c-0.95,0.07-1.97,0.13-3.05,0.16c-1.08,0.04-2.12,0.05-3.1,0.05c-0.99,0-1.88-0.02-2.67-0.05C56.99,25.87,56.41,25.81,56.05,25.74z
		 M62.59,17.37c-0.29-0.18-0.58-0.31-0.86-0.41c-0.29-0.09-0.63-0.13-1.03-0.13c-0.86,0-1.57,0.09-2.11,0.27
		c-0.54,0.18-0.97,0.43-1.3,0.76s-0.57,0.7-0.73,1.13c-0.16,0.43-0.28,0.88-0.35,1.35c-0.07,0.4-0.1,0.68-0.08,0.84
		c0.02,0.16,0.19,0.27,0.51,0.32c0.32,0.05,0.84,0.07,1.54,0.05c0.7-0.02,1.74-0.03,3.1-0.03c0.94,0,1.64,0.02,2.11,0.05
		c0.47,0.04,0.8,0.05,1,0.03c0.2-0.02,0.3-0.07,0.3-0.16c0-0.09,0-0.28,0-0.57c0-0.72-0.19-1.4-0.57-2.05S63.23,17.69,62.59,17.37z"
		/>
	<path d="M92.82,10.03c-0.07,0.07-0.13,0.19-0.19,0.35c-0.05,0.16-0.1,0.28-0.13,0.35c-0.07,0.11-0.14,0.74-0.19,1.89
		c-0.05,1.15-0.1,2.52-0.14,4.1c-0.04,1.58-0.05,3.23-0.05,4.94c0,1.71,0.05,3.2,0.16,4.46c0.11,1.04,0.39,2.06,0.84,3.05
		c0.45,0.99,1.2,1.63,2.24,1.92c0.79,0.07,1.54-0.04,2.24-0.35c0.7-0.31,1.23-0.82,1.59-1.54c0.4-0.83,0.57-1.7,0.51-2.62
		c-0.05-0.92,0.01-1.83,0.19-2.73c0.5,0.07,1.07,0.09,1.7,0.05c0.63-0.04,1.27-0.05,1.92-0.05c0.65,0,1.29,0.02,1.92,0.05
		c0.63,0.04,1.2,0.13,1.7,0.27c0.61,1.87,0.77,3.74,0.49,5.59c-0.29,1.85-0.92,3.52-1.89,4.99c-0.97,1.48-2.24,2.69-3.81,3.65
		c-1.57,0.95-3.34,1.45-5.32,1.49c-1.3,0.18-2.63,0.19-4,0.03c-1.37-0.16-2.65-0.52-3.83-1.08s-2.19-1.34-3-2.35
		c-0.81-1.01-1.29-2.27-1.43-3.78c-0.07-1.3-0.13-2.65-0.16-4.05c-0.04-1.4-0.06-2.98-0.08-4.72c-0.02-1.75-0.02-3.73,0-5.94
		c0.02-2.21,0.04-4.78,0.08-7.69c-0.07-0.61-0.05-1.23,0.08-1.86c0.13-0.63,0.3-1.22,0.51-1.76c0.32-0.94,0.73-1.8,1.21-2.59
		c0.49-0.79,1.07-1.49,1.76-2.11c0.4-0.29,0.83-0.53,1.3-0.73c0.47-0.2,0.95-0.37,1.46-0.51c1.66-0.54,3.29-0.76,4.91-0.65
		c1.62,0.11,3.14,0.48,4.56,1.11c1.42,0.63,2.71,1.47,3.86,2.51c1.15,1.04,2.07,2.24,2.75,3.59c0.68,1.35,1.1,2.82,1.24,4.4
		c0.14,1.58-0.07,3.2-0.65,4.86c-1.33,0.29-2.64,0.39-3.92,0.3c-1.28-0.09-2.6-0.26-3.97-0.51c-0.11-0.68-0.17-1.46-0.19-2.32
		c-0.02-0.86-0.12-1.66-0.3-2.4c-0.18-0.74-0.51-1.34-1-1.81c-0.49-0.47-1.25-0.68-2.29-0.65c-0.47,0.07-0.96,0.16-1.48,0.27
		C93.52,9.54,93.11,9.74,92.82,10.03z"/>
	<path d="M132.46,12.4c0.04,0.22,0.06,0.43,0.08,0.65c0.02,0.22,0.03,0.43,0.03,0.65v0.54c-0.11,3.89-0.09,7.71,0.05,11.48
		c0.14,3.76,0.09,7.57-0.16,11.42c0,0.47-0.01,0.94-0.03,1.4c-0.02,0.47-0.24,0.74-0.68,0.81h-0.65c-0.58,0-1.16-0.03-1.75-0.08
		c-0.59-0.05-1.18-0.08-1.75-0.08c-0.4,0-0.78,0.03-1.16,0.08c-0.38,0.05-0.77,0.08-1.16,0.08c-0.25-0.07-0.42-0.22-0.51-0.43
		c-0.09-0.22-0.14-0.47-0.14-0.76c0-0.4,0.04-0.72,0.11-0.97c0.07-0.25,0.11-0.56,0.11-0.92c-0.86,0.86-1.95,1.6-3.27,2.21
		c-1.31,0.61-2.6,0.92-3.86,0.92c-1.4,0-2.6-0.49-3.59-1.46c-0.99-0.97-1.81-2.18-2.46-3.62c-0.65-1.44-1.13-3.01-1.43-4.7
		c-0.31-1.69-0.46-3.26-0.46-4.7c0-1.8,0.23-3.46,0.7-4.97c0.47-1.51,1.11-2.82,1.92-3.92c0.81-1.1,1.77-1.96,2.89-2.59
		c1.12-0.63,2.3-0.96,3.56-1c0.65,0,1.25,0.01,1.81,0.03c0.56,0.02,1.07,0.11,1.54,0.27c0.47,0.16,0.88,0.41,1.24,0.76
		c0.36,0.34,0.67,0.82,0.92,1.43c-0.04-0.58-0.01-1.07,0.08-1.48c0.09-0.41,0.13-0.84,0.13-1.27c0-0.04,0.12-0.06,0.35-0.08
		c0.23-0.02,0.49-0.02,0.78,0c0.29,0.02,0.58,0.03,0.86,0.03c0.29,0,0.49,0,0.59,0c0.61,0.04,1.36,0.07,2.24,0.11
		C130.29,12.28,131.31,12.33,132.46,12.4z M116.75,23.15c-0.14,0.47-0.23,0.94-0.27,1.43c-0.04,0.49-0.05,0.96-0.05,1.43
		c0,1.62,0.42,3,1.27,4.13c0.85,1.13,2.02,1.7,3.54,1.7c0.9,0,1.57-0.15,2.02-0.46c0.45-0.31,0.77-0.74,0.97-1.3
		c0.2-0.56,0.31-1.24,0.32-2.05c0.02-0.81,0.03-1.72,0.03-2.73c0-1.26-0.01-2.26-0.03-3c-0.02-0.74-0.11-1.3-0.27-1.7
		c-0.16-0.4-0.43-0.65-0.81-0.76s-0.94-0.16-1.7-0.16c-1.48,0-2.64,0.35-3.48,1.05C117.44,21.45,116.93,22.25,116.75,23.15z"/>
	<path d="M143.58,15.21c0.18-0.11,0.4-0.23,0.67-0.38c0.27-0.14,0.49-0.29,0.68-0.43c0.76-0.54,1.6-0.97,2.54-1.3
		c0.94-0.32,1.9-0.5,2.89-0.54c0.99-0.04,1.95,0.07,2.89,0.32c0.94,0.25,1.78,0.7,2.54,1.35c0.36,0.32,0.64,1,0.84,2.03
		c0.2,1.03,0.32,2.26,0.38,3.7c0.05,1.44,0.07,3.02,0.05,4.73c-0.02,1.71-0.05,3.44-0.08,5.18c-0.04,1.75-0.07,3.43-0.11,5.05
		c-0.04,1.62-0.02,3.04,0.05,4.27c-1.26,0.18-2.39,0.26-3.38,0.24c-0.99-0.02-2.12-0.03-3.38-0.03c-0.07-0.83-0.11-1.76-0.11-2.81
		c0-1.04,0.01-2.12,0.03-3.24c0.02-1.12,0.02-2.23,0-3.35c-0.02-1.12-0.06-2.16-0.13-3.13c-0.04-0.43-0.07-0.91-0.11-1.43
		c-0.04-0.52-0.1-1.03-0.19-1.54c-0.09-0.5-0.22-0.95-0.38-1.35c-0.16-0.4-0.39-0.7-0.68-0.92c-0.04-0.04-0.07-0.05-0.11-0.05
		c-0.04,0-0.07-0.02-0.11-0.05c-0.29-0.14-0.71-0.26-1.27-0.35c-0.56-0.09-1.11-0.05-1.65,0.11c-0.54,0.16-1.03,0.49-1.46,0.97
		c-0.43,0.49-0.68,1.22-0.76,2.19c-0.07,1.26-0.09,2.49-0.05,3.7c0.04,1.21,0.08,2.41,0.13,3.62c0.05,1.21,0.08,2.4,0.08,3.59
		s-0.07,2.38-0.22,3.56v0.22c-0.61,0.18-1.14,0.29-1.59,0.32c-0.45,0.04-0.91,0.04-1.38,0.03c-0.47-0.02-0.99-0.05-1.57-0.08
		c-0.58-0.04-1.3-0.02-2.16,0.05c0-4.43-0.05-8.86-0.13-13.28c-0.09-4.43-0.06-9.02,0.08-13.77c0.43,0.04,0.79,0.06,1.08,0.08
		c0.29,0.02,0.56,0.03,0.81,0.03c0.25,0,0.52-0.01,0.81-0.03c0.29-0.02,0.65-0.04,1.08-0.08c0.14,0,0.4-0.03,0.76-0.08
		c0.36-0.05,0.72-0.1,1.08-0.13c0.36-0.04,0.68-0.04,0.97-0.03c0.29,0.02,0.43,0.08,0.43,0.19c0.07,0.61,0.1,1.12,0.08,1.51
		C143.54,14.26,143.55,14.71,143.58,15.21z"/>
	<path d="M166.53,12.46c0.25,1.3,0.54,2.83,0.86,4.62c0.32,1.78,0.67,3.59,1.03,5.43c0.36,1.84,0.74,3.59,1.13,5.27
		c0.4,1.67,0.79,3.05,1.19,4.13c0.4-1.08,0.72-2.5,0.97-4.27c0.25-1.76,0.49-3.6,0.73-5.51c0.23-1.91,0.49-3.74,0.78-5.51
		c0.29-1.76,0.65-3.19,1.08-4.27c1.22,0.04,2.47,0.02,3.73-0.05c1.26-0.07,2.65-0.05,4.16,0.05c-0.58,2.16-1.09,4.22-1.54,6.18
		c-0.45,1.96-0.89,3.88-1.32,5.75c-0.47,1.76-0.89,3.62-1.27,5.56c-0.38,1.94-0.85,3.85-1.4,5.72c-0.56,1.87-1.27,3.65-2.13,5.35
		c-0.86,1.69-2.01,3.16-3.43,4.4c-1.42,1.24-3.19,2.19-5.29,2.83s-4.69,0.88-7.75,0.7c-0.36-1.08-0.55-2.29-0.57-3.65
		c-0.02-1.35,0.06-2.53,0.24-3.54c0.86,0,1.75,0.04,2.67,0.11c0.92,0.07,1.74,0.03,2.46-0.13c0.72-0.16,1.27-0.51,1.65-1.05
		s0.48-1.4,0.3-2.59c-0.76-4.36-1.71-8.71-2.86-13.07c-1.15-4.36-2.29-8.57-3.4-12.64c1.3,0.14,2.66,0.17,4.1,0.08
		C164.09,12.29,165.38,12.31,166.53,12.46z"/>
	<path d="M184.41,14.67c0.25-0.54,0.66-1.01,1.21-1.4c0.56-0.4,1.21-0.73,1.94-1c0.74-0.27,1.53-0.46,2.38-0.57
		c0.85-0.11,1.7-0.16,2.56-0.16c0.72,0.07,1.41,0.08,2.08,0.03c0.67-0.05,1.38-0.04,2.13,0.03c1.15,0.07,2.25,0.3,3.29,0.68
		c1.04,0.38,1.94,0.93,2.7,1.65c0.5,0.32,0.9,0.85,1.19,1.57c0.29,0.72,0.5,1.56,0.65,2.51c0.14,0.95,0.23,2,0.27,3.13
		c0.04,1.13,0.07,2.29,0.11,3.48c-0.04,1.04-0.08,2.23-0.14,3.56c-0.05,1.33-0.14,2.61-0.27,3.83c-0.13,1.22-0.29,2.32-0.49,3.29
		c-0.2,0.97-0.48,1.64-0.84,2c-0.61,0.86-1.41,1.48-2.4,1.84c-0.99,0.36-2.06,0.58-3.21,0.68c-1.15,0.09-2.34,0.09-3.56,0
		c-1.22-0.09-2.34-0.14-3.35-0.14c-1.84-0.32-3.38-1.12-4.64-2.38c-0.97-0.86-1.64-1.94-2-3.24c-0.36-1.3-0.58-2.65-0.65-4.08
		c-0.07-1.42-0.08-2.85-0.03-4.29c0.05-1.44,0.03-2.75-0.08-3.94c0-0.65,0.02-1.29,0.05-1.92c0.04-0.63,0.11-1.29,0.22-1.97
		c0.04-0.4,0.16-0.93,0.38-1.59C184.14,15.6,184.3,15.07,184.41,14.67z M191.16,21.04c-0.22,0.14-0.38,0.5-0.49,1.08
		c-0.14,1.15-0.22,2.29-0.22,3.43c0,1.13-0.04,2.33-0.11,3.59c-0.04,0.83,0.18,1.47,0.65,1.92c0.47,0.45,1.03,0.76,1.7,0.92
		c0.67,0.16,1.36,0.2,2.08,0.11c0.72-0.09,1.31-0.26,1.78-0.51c0.61-0.29,1.03-0.88,1.24-1.78c0.14-1.15,0.26-2.31,0.35-3.48
		c0.09-1.17,0.03-2.28-0.19-3.32c-0.18-1.26-0.7-2.18-1.57-2.75c-0.86-0.58-2-0.7-3.4-0.38C192.24,20.07,191.63,20.47,191.16,21.04z
		"/>
	<path d="M215.3,15.21c0.18-0.11,0.4-0.23,0.67-0.38c0.27-0.14,0.49-0.29,0.68-0.43c0.76-0.54,1.6-0.97,2.54-1.3
		c0.94-0.32,1.9-0.5,2.89-0.54c0.99-0.04,1.95,0.07,2.89,0.32c0.94,0.25,1.78,0.7,2.54,1.35c0.36,0.32,0.64,1,0.84,2.03
		c0.2,1.03,0.32,2.26,0.38,3.7c0.05,1.44,0.07,3.02,0.05,4.73c-0.02,1.71-0.05,3.44-0.08,5.18c-0.04,1.75-0.07,3.43-0.11,5.05
		c-0.04,1.62-0.02,3.04,0.05,4.27c-1.26,0.18-2.39,0.26-3.38,0.24c-0.99-0.02-2.12-0.03-3.38-0.03c-0.07-0.83-0.11-1.76-0.11-2.81
		c0-1.04,0.01-2.12,0.03-3.24c0.02-1.12,0.02-2.23,0-3.35c-0.02-1.12-0.06-2.16-0.13-3.13c-0.04-0.43-0.07-0.91-0.11-1.43
		c-0.04-0.52-0.1-1.03-0.19-1.54c-0.09-0.5-0.22-0.95-0.38-1.35c-0.16-0.4-0.39-0.7-0.68-0.92c-0.04-0.04-0.07-0.05-0.11-0.05
		c-0.04,0-0.07-0.02-0.11-0.05c-0.29-0.14-0.71-0.26-1.27-0.35c-0.56-0.09-1.11-0.05-1.65,0.11c-0.54,0.16-1.03,0.49-1.46,0.97
		c-0.43,0.49-0.68,1.22-0.76,2.19c-0.07,1.26-0.09,2.49-0.05,3.7c0.04,1.21,0.08,2.41,0.13,3.62c0.05,1.21,0.08,2.4,0.08,3.59
		s-0.07,2.38-0.22,3.56v0.22c-0.61,0.18-1.14,0.29-1.59,0.32c-0.45,0.04-0.91,0.04-1.38,0.03c-0.47-0.02-0.99-0.05-1.57-0.08
		c-0.58-0.04-1.3-0.02-2.16,0.05c0-4.43-0.05-8.86-0.13-13.28c-0.09-4.43-0.06-9.02,0.08-13.77c0.43,0.04,0.79,0.06,1.08,0.08
		c0.29,0.02,0.56,0.03,0.81,0.03c0.25,0,0.52-0.01,0.81-0.03c0.29-0.02,0.65-0.04,1.08-0.08c0.14,0,0.4-0.03,0.76-0.08
		c0.36-0.05,0.72-0.1,1.08-0.13c0.36-0.04,0.68-0.04,0.97-0.03c0.29,0.02,0.43,0.08,0.43,0.19c0.07,0.61,0.1,1.12,0.08,1.51
		C215.25,14.26,215.26,14.71,215.3,15.21z"/>
	<path d="M265.3,1.66l0.05,0.05c-0.54,6.23-1.14,12.44-1.81,18.63c-0.67,6.19-1.25,12.42-1.75,18.68c-0.25,0.07-0.53,0.11-0.84,0.11
		c-0.31,0-0.64,0-1,0h-1.94h-0.65c-0.32-0.43-0.6-1.05-0.84-1.86c-0.23-0.81-0.48-1.67-0.73-2.59c-0.25-0.92-0.5-1.81-0.76-2.67
		c-0.25-0.86-0.54-1.55-0.86-2.05h-0.05c-0.32,0.32-0.6,0.89-0.84,1.7c-0.23,0.81-0.46,1.67-0.68,2.59
		c-0.22,0.92-0.43,1.81-0.65,2.67c-0.22,0.86-0.47,1.53-0.76,2c-0.47,0.07-0.9,0.13-1.3,0.19c-0.4,0.05-0.85,0.08-1.35,0.08
		c-0.58,0-1.26-0.05-2.05-0.16h-0.05c-0.86-6.16-1.71-12.35-2.54-18.58c-0.83-6.23-1.3-12.46-1.4-18.68V1.71
		c0.54-0.07,1.11-0.14,1.7-0.19c0.59-0.05,1.2-0.08,1.81-0.08c0.72,0,1.44,0.02,2.16,0.05c0.72,0.04,1.4,0.07,2.05,0.11
		c0.14,1.58,0.22,3.37,0.22,5.35c0,1.98,0,3.98,0,5.99c0,2.02,0.05,4,0.16,5.94c0.11,1.94,0.36,3.69,0.76,5.24
		c0.47-1.62,0.89-3.21,1.27-4.78c0.38-1.57,0.76-3.16,1.16-4.78c0.04-0.07,0.05-0.13,0.05-0.16c0-0.04,0.02-0.07,0.05-0.11
		c0.14,0.11,0.35,0.62,0.62,1.54s0.54,1.95,0.81,3.1c0.27,1.15,0.54,2.29,0.81,3.4c0.27,1.12,0.51,1.94,0.73,2.48
		c0.14-1.55,0.25-3.32,0.32-5.32c0.07-2,0.13-4.04,0.19-6.13c0.05-2.09,0.11-4.13,0.16-6.13c0.05-2,0.15-3.79,0.3-5.37V1.82
		c0.61-0.14,1.24-0.23,1.89-0.27c0.65-0.04,1.3-0.05,1.94-0.05C262.91,1.49,264.11,1.55,265.3,1.66z"/>
	<path d="M275.34,14.18c0.14-0.07,0.48-0.22,1-0.43c0.52-0.22,1.03-0.41,1.54-0.59c0.68-0.22,1.46-0.39,2.32-0.51
		c0.86-0.13,1.67-0.21,2.43-0.24c0.76-0.04,1.4-0.04,1.92-0.03c0.52,0.02,0.78,0.05,0.78,0.08c0,1.22-0.01,2.3-0.03,3.24
		c-0.02,0.94-0.03,1.77-0.03,2.51c0,0.74,0,1.41,0,2.02c0,0.61,0.02,1.19,0.05,1.73l-0.49-0.16c-0.18-0.07-0.37-0.13-0.57-0.19
		c-0.2-0.05-0.39-0.12-0.57-0.19c-0.43-0.11-0.87-0.2-1.32-0.27c-0.45-0.07-0.69-0.11-0.73-0.11c-0.97-0.11-1.86-0.16-2.67-0.16
		s-1.51,0.13-2.11,0.38c-0.59,0.25-1.05,0.65-1.38,1.19c-0.32,0.54-0.47,1.31-0.43,2.32c0.04,1.26,0.07,2.45,0.11,3.56
		c0.04,1.12,0.05,2.24,0.05,3.38c0,1.13,0.01,2.29,0.03,3.46c0.02,1.17,0.03,2.42,0.03,3.75v0.22c-0.61,0.18-1.17,0.29-1.67,0.32
		c-0.5,0.04-1.03,0.04-1.57,0.03c-0.54-0.02-1.13-0.05-1.75-0.08c-0.63-0.04-1.38-0.02-2.24,0.05c0-4.43-0.05-8.86-0.13-13.28
		c-0.09-4.43-0.06-9.02,0.08-13.77c0.43,0.04,0.79,0.06,1.08,0.08c0.29,0.02,0.56,0.03,0.81,0.03c0.25,0,0.52-0.01,0.81-0.03
		c0.29-0.02,0.65-0.04,1.08-0.08c0.14,0,0.41-0.02,0.78-0.05c0.38-0.04,0.77-0.07,1.19-0.11c0.41-0.04,0.77-0.04,1.08-0.03
		c0.31,0.02,0.46,0.06,0.46,0.14c0,0.29,0,0.5,0,0.65c0,0.14,0,0.26,0,0.35s0.01,0.19,0.03,0.3
		C275.33,13.75,275.34,13.93,275.34,14.18z"/>
	<path d="M294.3,25.74v0.97c0.04,1.08,0.08,1.96,0.14,2.65c0.05,0.68,0.28,1.35,0.67,2c0.43,0.83,1.04,1.44,1.84,1.84
		c0.79,0.4,1.57,0.52,2.32,0.38c0.76-0.14,1.39-0.58,1.92-1.32c0.52-0.74,0.75-1.84,0.67-3.32c0.36,0.04,0.85,0.05,1.46,0.03
		c0.61-0.02,1.25-0.04,1.92-0.08c0.67-0.04,1.3-0.04,1.92-0.03c0.61,0.02,1.12,0.08,1.51,0.19c-0.07,0.94-0.14,1.85-0.22,2.75
		c-0.07,0.9-0.16,1.74-0.27,2.51c-0.11,0.77-0.24,1.44-0.4,2c-0.16,0.56-0.37,0.95-0.62,1.16c-0.61,0.86-1.4,1.48-2.38,1.84
		c-0.97,0.36-2.03,0.58-3.19,0.65c-1.15,0.07-2.33,0.07-3.54,0c-1.21-0.07-2.31-0.11-3.32-0.11c-1.01-0.14-1.94-0.47-2.81-0.97
		c-0.97-0.68-1.78-1.57-2.43-2.67c-0.65-1.1-1.17-2.3-1.57-3.62c-0.4-1.31-0.67-2.71-0.81-4.19c-0.14-1.48-0.18-2.95-0.11-4.43
		c0.11-1.33,0.22-2.62,0.35-3.86c0.13-1.24,0.41-2.46,0.84-3.65c0.47-1.04,1.19-1.94,2.16-2.67c0.97-0.74,2.07-1.3,3.29-1.67
		c1.22-0.38,2.52-0.58,3.89-0.62c1.37-0.04,2.7,0.11,4,0.43c1.66,0.29,2.99,0.86,4,1.73c1.01,0.86,1.77,1.91,2.3,3.13
		c0.52,1.22,0.84,2.57,0.94,4.05c0.11,1.48,0.11,2.97,0,4.48c-0.25,0.07-0.73,0.14-1.43,0.22c-0.7,0.07-1.53,0.14-2.48,0.22
		c-0.95,0.07-1.97,0.13-3.05,0.16c-1.08,0.04-2.12,0.05-3.1,0.05c-0.99,0-1.88-0.02-2.67-0.05
		C295.23,25.87,294.66,25.81,294.3,25.74z M300.83,17.37c-0.29-0.18-0.58-0.31-0.86-0.41c-0.29-0.09-0.63-0.13-1.03-0.13
		c-0.86,0-1.57,0.09-2.11,0.27c-0.54,0.18-0.97,0.43-1.3,0.76s-0.57,0.7-0.73,1.13c-0.16,0.43-0.28,0.88-0.35,1.35
		c-0.07,0.4-0.1,0.68-0.08,0.84c0.02,0.16,0.19,0.27,0.51,0.32c0.32,0.05,0.84,0.07,1.54,0.05c0.7-0.02,1.74-0.03,3.1-0.03
		c0.94,0,1.64,0.02,2.11,0.05c0.47,0.04,0.8,0.05,1,0.03c0.2-0.02,0.3-0.07,0.3-0.16c0-0.09,0-0.28,0-0.57
		c0-0.72-0.19-1.4-0.57-2.05S301.48,17.69,300.83,17.37z"/>
	<path d="M318.98,15.21c0.18-0.11,0.4-0.23,0.67-0.38c0.27-0.14,0.49-0.29,0.68-0.43c0.76-0.54,1.6-0.97,2.54-1.3
		c0.94-0.32,1.9-0.5,2.89-0.54c0.99-0.04,1.95,0.07,2.89,0.32c0.94,0.25,1.78,0.7,2.54,1.35c0.36,0.32,0.64,1,0.84,2.03
		c0.2,1.03,0.32,2.26,0.38,3.7c0.05,1.44,0.07,3.02,0.05,4.73c-0.02,1.71-0.05,3.44-0.08,5.18c-0.04,1.75-0.07,3.43-0.11,5.05
		c-0.04,1.62-0.02,3.04,0.05,4.27c-1.26,0.18-2.39,0.26-3.38,0.24c-0.99-0.02-2.12-0.03-3.38-0.03c-0.07-0.83-0.11-1.76-0.11-2.81
		c0-1.04,0.01-2.12,0.03-3.24c0.02-1.12,0.02-2.23,0-3.35c-0.02-1.12-0.06-2.16-0.13-3.13c-0.04-0.43-0.07-0.91-0.11-1.43
		c-0.04-0.52-0.1-1.03-0.19-1.54c-0.09-0.5-0.22-0.95-0.38-1.35c-0.16-0.4-0.39-0.7-0.68-0.92c-0.04-0.04-0.07-0.05-0.11-0.05
		c-0.04,0-0.07-0.02-0.11-0.05c-0.29-0.14-0.71-0.26-1.27-0.35c-0.56-0.09-1.11-0.05-1.65,0.11c-0.54,0.16-1.03,0.49-1.46,0.97
		c-0.43,0.49-0.68,1.22-0.76,2.19c-0.07,1.26-0.09,2.49-0.05,3.7c0.04,1.21,0.08,2.41,0.13,3.62c0.05,1.21,0.08,2.4,0.08,3.59
		s-0.07,2.38-0.22,3.56v0.22c-0.61,0.18-1.14,0.29-1.59,0.32c-0.45,0.04-0.91,0.04-1.38,0.03c-0.47-0.02-0.99-0.05-1.57-0.08
		c-0.58-0.04-1.3-0.02-2.16,0.05c0-4.43-0.05-8.86-0.13-13.28c-0.09-4.43-0.06-9.02,0.08-13.77c0.43,0.04,0.79,0.06,1.08,0.08
		c0.29,0.02,0.56,0.03,0.81,0.03c0.25,0,0.52-0.01,0.81-0.03c0.29-0.02,0.65-0.04,1.08-0.08c0.14,0,0.4-0.03,0.76-0.08
		c0.36-0.05,0.72-0.1,1.08-0.13c0.36-0.04,0.68-0.04,0.97-0.03c0.29,0.02,0.43,0.08,0.43,0.19c0.07,0.61,0.1,1.12,0.08,1.51
		C318.93,14.26,318.94,14.71,318.98,15.21z"/>
</g>
</svg>
