<!-- Generator: Adobe Illustrator 23.1.1, SVG Export Plug-In  -->
<svg version="1.1" xmlns="http://www.w3.org/2000/svg" xmlns:xlink="http://www.w3.org/1999/xlink" x="0px" y="0px" width="321.7px"
	 height="271.57px" viewBox="0 0 321.7 271.57" style="enable-background:new 0 0 321.7 271.57;" xml:space="preserve">
<style type="text/css">
	.st0{fill:#25262B;}
	.st1{fill:none;stroke:#000000;stroke-width:2;stroke-miterlimit:10;}
	.st2{fill:#C4BCA5;}
	.st3{fill:#D1CEBF;}
	.st4{fill:#060606;}
	.st5{fill:#1A191E;}
	.st6{fill:#222327;}
	.st7{fill:url(#SVGID_1_);}
	.st8{fill:#ECA64F;}
	.st9{fill:#D69241;}
	.st10{fill:#EFA840;}
	.st11{fill:#2D2D2D;}
	.st12{fill:#FFFFFF;}
	.st13{fill:none;stroke:#000000;stroke-width:0.5;stroke-miterlimit:10;}
	.st14{fill:#020202;}
	.st15{fill:none;stroke:#000000;stroke-miterlimit:10;}
	.st16{fill:url(#SVGID_2_);}
</style>
<defs>
</defs>
<g>
	<path class="st0" d="M302.5,234.46c3.23-0.4,4.34-5.63,1.68-7.98l-56.76-50.38c-3.7-3.28-7.66-6.68-12.18-6.95
		c-7.16-0.42-12.98,7.05-16.93,14.57c-4.82,9.18-14.52,19.39-5.23,28.48c8.11,7.93,21.66,10.88,31.42,13.99
		c11.36,3.62,22.93,6.16,34.59,7.59c5.72,0.7,11.46,1.14,17.21,1.31C297.54,235.11,299.9,234.78,302.5,234.46z"/>
	<path class="st1" d="M305.63,235.05c3.23-0.4,4.34-5.63,1.68-7.98l-56.76-50.38c-3.7-3.28-7.66-6.68-12.18-6.95
		c-7.16-0.42-12.98,7.05-16.93,14.57c-4.82,9.18-14.52,19.39-5.23,28.48c8.11,7.93,21.66,10.88,31.42,13.99
		c11.36,3.62,22.93,6.16,34.59,7.59c5.72,0.7,11.46,1.14,17.21,1.31C300.67,235.71,303.03,235.38,305.63,235.05z"/>
	<path class="st2" d="M235.46,219.88c6.19,3.85,12.86,6.92,18.82,11.1c9.82,6.88,17.27,16.42,24.03,26.42
		c1.57,2.32-1.04,5.19-3.5,3.86c-25.17-13.68-51.14-25.89-77.74-36.55c-14.1-5.65,5.56-15.8,12.11-17.68
		C220.1,203.89,226.82,214.51,235.46,219.88z"/>
	<path class="st1" d="M238.33,218.48c6.19,3.85,12.86,6.92,18.82,11.1c9.82,6.88,17.27,16.42,24.03,26.42
		c1.57,2.32-1.04,5.19-3.5,3.86c-25.17-13.68-51.14-25.89-77.74-36.55c-14.1-5.65,5.56-15.8,12.11-17.68
		C222.97,202.48,229.69,213.11,238.33,218.48z"/>
	<path class="st3" d="M112.22,34.3c0.05-0.34,0.09-0.72-0.1-1.01c-0.17-0.26-0.49-0.37-0.79-0.47c-3.98-1.3-7.99-2.5-12.04-3.59
		c-1.39-0.38-2.82-0.74-4.25-0.6c-1.54,0.15-2.96,0.88-4.32,1.62c-5.22,2.82-10.39,6.09-13.9,10.87c-1.47,2.01-2.65,4.57-1.89,6.94
		c0.9,2.79,4.18,4.16,7.12,4.07s5.72-1.24,8.59-1.85c5.13-1.09,10.89-0.57,15.15-3.63c1.76-1.27,4.39-3.36,5.3-5.39
		C112,39.26,111.92,36.46,112.22,34.3z"/>
	<path class="st4" d="M307.12,211.51c4.85,1.88,10.19,4.08,13.77,8.3c1.78,2.1,0.38,6.11-2.06,5.78
		c-27.85-3.83-52.99-22.18-77.1-40.13c-3.65-2.71-7.38-5.52-9.97-9.82c-1.25-2.07-4.62-9.62-2.17-12.01
		c1.91-1.88,8.08,5.48,9.6,6.78c7.08,6.05,14.39,11.65,21.91,16.77C275.75,197.16,291.18,205.32,307.12,211.51z"/>
	<path class="st5" d="M212.26,208.49c5.98-0.48,11.86-2.05,17.17-4.57c-0.64-1.98-2.48-3.61-4.72-4.19
		c3.34,0.63,6.94,0.22,10.02-1.14l-1.88-4.5l9.38-3.08c0.43-1.68-0.64-3.54-2.42-4.2c3.65,0.59,7.36-2.93,6.43-6.1
		c3.24,0.99,7.93,1.49,8.76-1.94c0.29-1.21-0.18-2.46-1.06-3.41c-5.41-5.86-12.45-13.12-21.34-12.26c-3.23,0.31-6.2,1.7-9.07,3.07
		c-5.34,2.53-10.68,5.07-16.03,7.6c-12.13,5.76-25.75,14.35-21.18,28.3c3.3,10.09,18.52,11.94,28.77,10.96
		C214.36,211.41,213.29,210,212.26,208.49z"/>
	<path class="st6" d="M100,75.32c-5.37,7.86-11.97,14.95-16.25,23.45c-7.77,15.41-6.97,34.33,0.01,50.11
		c6.99,15.78,19.66,28.59,34.19,37.91c14.53,9.32,30.91,15.37,47.47,20.24c9.59,2.82,20.53,5.09,29.31,0.85
		c1.04-0.5,1-2.01-0.04-2.49h0c-1.28-0.59-0.95-2.46,0.45-2.62c2.16-0.26,4.3-0.72,6.37-1.38c1.04-0.33,1.28-1.69,0.44-2.38
		c-0.45-0.37-0.87-0.79-1.22-1.26c-0.59-0.76-0.25-1.88,0.66-2.17l9.54-3.09c0.88-0.29,1.24-1.34,0.7-2.1l-1.39-1.98
		c-0.61-0.88-0.04-2.08,1.02-2.17l12.36-0.93c1.15-0.09,1.69-1.46,0.91-2.3l-0.21-0.23c-0.6-0.66-0.45-1.75,0.35-2.13
		c1.02-0.49,1.83-1.47,1.99-2.57c0.08-0.51,0.41-0.93,0.9-1.1l4.47-1.56c0.32-0.11,0.58-0.33,0.75-0.63l1.46-2.59
		c0.41-0.72,1.35-0.91,2.02-0.42c2.64,1.96,7.63,0.05,8.84-3.43c1.41-4.05-0.46-8.44-2.34-12.29c-13.23-27.13-29-53.55-50.99-74.22
		C176.34,67.3,157.6,55.8,137.04,50.26c-6.65-1.79-19.63-6.33-25.55-1c-2.93,2.64-3.01,7.34-4.05,10.84
		C105.81,65.58,103.23,70.6,100,75.32z"/>
	<linearGradient id="SVGID_1_" gradientUnits="userSpaceOnUse" x1="90.3206" y1="113.3104" x2="197.2104" y2="337.2404">
		<stop  offset="0" style="stop-color:#F2EDCF"/>
		<stop  offset="1" style="stop-color:#9F9C7B"/>
	</linearGradient>
	<path class="st7" d="M250.02,268.67c2.32,0.89,4.41-1.73,3.03-3.79c-2.72-4.07-5.45-8.15-8.17-12.22
		c-7.86-11.75-15.88-23.67-26.77-32.69c-17.33-14.34-40.04-19.87-61-28.04c-21.26-8.28-41.88-20.11-55.69-38.27
		C87.61,135.5,81.8,110.08,91.19,89.28c0.26-0.59,0.56-1.16,0.85-1.73c6.01-3.07,10.75-8.52,13.91-14.56
		c4.17-7.98,5.96-16.98,7.98-25.72c0.44-1.9,0.22-3.95-0.87-5.58c-2.21-3.29-5.66-2.34-8.57-1.33c-2.96,1.02-5.91,2.06-8.86,3.12
		c-14.33,2.22-28.88,7.37-42.87,10.9c-8.63,2.17-17.42,4.41-24.98,9.09C8.43,75.44,1.44,101.63,6.75,123.75
		c5.31,22.11,20.6,40.55,37.62,55.62c11.92,10.55,25.14,20.16,33.7,33.59c4.63,7.27,8.2,15.95,15.75,20.09
		c10.06,5.53,22.45,0.65,32.83-4.25c6.51,12.53,22.69,15.67,36.71,17.37c5.54,0.67,11.62,1.22,16.26-1.88
		c4.03-2.7,5.36-9.34,2.3-12.54C202.88,246.97,225.84,259.42,250.02,268.67z"/>
	<path class="st8" d="M152.15,245.43c0,0-3.45,13.8-8.62,15.52c-5.17,1.72-34.5,0-34.5,0s-8.01,1.34-11.11,5.18
		c-0.46,0.56,0.1,1.39,0.81,1.22c2.66-0.68,7.77-1.66,11.63-0.48c2.12,0.65,4.32,0.98,6.53,0.98h31.81c0,0,9.25,0,15.03,2.31
		c0.54,0.22,0.99-0.44,0.6-0.87c-1.65-1.82-4.56-4.54-8.73-6.62c0,0,6.9-12.07,6.9-17.25H152.15z"/>
	<path class="st9" d="M99.55,235.08c0,0-3.45,13.8-8.62,15.52c-5.17,1.72-34.5,0-34.5,0s-8.01,1.34-11.11,5.18
		c-0.46,0.56,0.1,1.39,0.81,1.22c2.66-0.68,7.77-1.66,11.63-0.48c2.12,0.65,4.32,0.98,6.53,0.98H96.1c0,0,9.25,0,15.03,2.31
		c0.54,0.22,0.99-0.44,0.6-0.87c-1.65-1.82-4.56-4.54-8.73-6.62c0,0,6.9-12.07,6.9-17.25H99.55z"/>
	<path class="st6" d="M33.49,36.28c-1.81,0.14-3.62,0.27-5.43,0.41c2.37-2.18,4.74-4.35,7.11-6.53c-1.33-1.33-3.18-2.13-5.06-2.19
		C41.06,15.72,55.33,6.13,71.33,2.44s33.72-1.06,46.97,8.64c0.37,0.27,0.76,0.6,0.82,1.05c0.05,0.4-0.18,0.77-0.4,1.1
		c-3.82,5.78-8.77,10.82-14.48,14.73c-2.16,1.48-4.5,2.87-5.93,5.05c-1.78,2.71-2.28,6.68-5.29,7.9c-1.68,0.68-4.11,0.53-4.69,2.24
		c-0.26,0.76,0.01,1.61-0.22,2.37c-0.28,0.92-1.18,1.48-2.02,1.95c-2.78,1.57-5.55,3.14-8.33,4.71c-1.77,1-3.58,2.02-5.56,2.48
		c-1.94,0.45-3.97,0.35-5.96,0.25c-5.71-0.3-12.09,3.11-17.3,5.05c-7.5,2.8-15.12,5.21-22.64,7.97c-1.29,0.47-2.69,0.95-4.01,0.59
		c3.74-5.37,3.04-11.65,4.69-17.69C28.32,45.87,30.25,40.35,33.49,36.28z"/>
	<path class="st10" d="M128,16.93c3.08,2.56,5.19,6.13,6.6,9.87c0.9,2.38,1.54,4.93,1.19,7.44c-0.36,2.51-1.88,4.98-4.26,5.87
		c1.16-1.01,0.82-3.03-0.29-4.09s-2.71-1.42-4.22-1.69c-7.54-1.33-15.26-1.56-22.87-0.71c-1.87,0.21-3.74,0.48-5.59,0.83
		c-0.85,0.16-1.75,0.47-1.13-0.69c0.41-0.77,1-1.43,1.57-2.09c4.03-4.71,6.9-10.38,11.38-14.71c1.76-1.7,3.84-3.2,6.26-3.79
		c2.58-0.63,5.21-0.06,7.54,1.15C125.53,15.04,126.81,15.94,128,16.93z"/>
	<path class="st6" d="M136.62,29.82c0.6,3.74,0.52,6.8-5.17,10.35c1.06-1.53-0.58-3.28-1.5-4.41c-0.23-0.28-0.4-0.6-0.7-0.8
		c-0.38-0.25-0.99-0.35-1.43-0.46c-0.98-0.24-1.99-0.37-2.99-0.49c-2.43-0.29-4.88-0.03-7.33-0.21c-2.53-0.19-5.04-0.52-7.57-0.63
		c1.78-1.5,3.56-3.01,5.34-4.51c1.01-0.86,2.04-1.72,2.85-2.77c0.79-1.02,1.37-2.18,2.13-3.22c1.07-1.46,2.5-2.65,4.13-3.43
		c1.12-0.54,2.39-0.89,3.62-0.68c2.3,0.41,4.04,2.59,5.17,4.36C134.57,25.1,136.21,27.24,136.62,29.82z"/>
	<path class="st6" d="M33.39,73.22c1.37-0.16,2.72-0.49,4.1-0.5c2.91-0.03,5.68,1.32,8.58,1.49c3.1,0.18,6.09-0.99,8.97-2.13
		c3.54-1.41,7.08-2.82,10.62-4.23c-0.14,5.18-4.05,10.03-9.09,11.27c-1.31,0.32-2.68,0.43-3.91,0.99c-1.47,0.67-2.58,1.94-3.99,2.73
		c-3.52,1.98-7.89,0.59-11.93,0.72c-1.82,0.06-3.62,0.45-5.44,0.58c-3.58,0.25-7.14-0.48-10.65-1.22c-2.69-0.56-5.39-1.13-8.08-1.69
		c0.28,0.06,5.53-10.51,7.77-10.99c1.56-0.34,3.95,1.73,5.58,2.25C28.32,73.25,30.89,73.52,33.39,73.22z"/>
	<g>
		<path class="st5" d="M134.69,162.57c1.68,2.6,4.15,4.53,6.74,6.14c1.29,0.82,2.62,1.59,3.96,2.35c1.33,0.76,2.67,1.52,4.02,2.26
			c5.38,2.99,10.8,5.9,16.32,8.6c5.49,2.77,11.07,5.36,16.7,7.85c2.81,1.25,5.64,2.47,8.49,3.63c2.83,1.21,5.7,2.33,8.55,3.49
			c-2.93-0.95-5.84-1.98-8.73-3.04c-2.89-1.07-5.75-2.22-8.61-3.38c-5.71-2.34-11.3-4.95-16.84-7.66
			c-5.51-2.78-10.95-5.69-16.26-8.83c-1.33-0.78-2.65-1.58-3.96-2.39c-1.32-0.8-2.63-1.61-3.91-2.48
			C138.64,167.36,136.18,165.3,134.69,162.57z"/>
	</g>
	<g>
		<path class="st5" d="M144.03,152c1.68,2.6,4.15,4.53,6.74,6.14c1.29,0.82,2.62,1.59,3.96,2.35c1.33,0.76,2.67,1.52,4.02,2.26
			c5.38,2.99,10.8,5.9,16.32,8.6c5.49,2.77,11.07,5.36,16.7,7.85c2.81,1.25,5.64,2.47,8.49,3.63c2.83,1.21,5.7,2.33,8.55,3.49
			c-2.93-0.95-5.84-1.98-8.73-3.04c-2.89-1.07-5.75-2.22-8.61-3.38c-5.71-2.34-11.3-4.95-16.84-7.66
			c-5.51-2.78-10.95-5.69-16.26-8.83c-1.33-0.78-2.65-1.58-3.96-2.39c-1.32-0.8-2.63-1.61-3.91-2.48
			C147.97,156.79,145.52,154.73,144.03,152z"/>
	</g>
	<g>
		<path class="st5" d="M156.1,144.99c1.68,2.6,4.15,4.53,6.74,6.14c1.29,0.82,2.62,1.59,3.96,2.35c1.33,0.76,2.67,1.52,4.02,2.26
			c5.38,2.99,10.8,5.9,16.32,8.6c5.49,2.77,11.07,5.36,16.7,7.85c2.81,1.25,5.64,2.47,8.49,3.63c2.83,1.21,5.7,2.33,8.55,3.49
			c-2.93-0.95-5.84-1.98-8.73-3.04c-2.89-1.07-5.75-2.22-8.61-3.38c-5.71-2.34-11.3-4.95-16.84-7.66
			c-5.51-2.78-10.95-5.69-16.26-8.83c-1.33-0.78-2.65-1.58-3.96-2.39c-1.32-0.8-2.63-1.61-3.91-2.48
			C160.05,149.78,157.59,147.72,156.1,144.99z"/>
	</g>
	<g>
		<path class="st5" d="M166.45,136.36c1.68,2.6,4.15,4.53,6.74,6.14c1.29,0.82,2.62,1.59,3.96,2.35c1.33,0.76,2.67,1.52,4.02,2.26
			c5.38,2.99,10.8,5.9,16.32,8.6c5.49,2.77,11.07,5.36,16.7,7.85c2.81,1.25,5.64,2.47,8.49,3.63c2.83,1.21,5.7,2.33,8.55,3.49
			c-2.93-0.95-5.84-1.98-8.73-3.04c-2.89-1.07-5.75-2.22-8.61-3.38c-5.71-2.34-11.3-4.95-16.84-7.66
			c-5.51-2.78-10.95-5.69-16.26-8.83c-1.33-0.78-2.65-1.58-3.96-2.39c-1.32-0.8-2.63-1.61-3.91-2.48
			C170.4,141.16,167.94,139.09,166.45,136.36z"/>
	</g>
	<g>
		<path class="st5" d="M188.37,138.49c1.32,1.84,3.19,3.13,5.13,4.22c1.95,1.09,3.95,2.11,5.95,3.13c4,2.03,8.02,4.02,12.11,5.86
			c4.06,1.91,8.18,3.68,12.32,5.4c2.07,0.86,4.15,1.71,6.24,2.52c2.08,0.85,4.19,1.63,6.28,2.46c-2.16-0.61-4.31-1.3-6.45-1.99
			c-2.13-0.72-4.25-1.48-6.36-2.27c-4.22-1.58-8.35-3.36-12.46-5.2c-4.07-1.92-8.11-3.91-12.05-6.09c-1.97-1.1-3.93-2.19-5.85-3.39
			C191.37,141.89,189.5,140.45,188.37,138.49z"/>
	</g>
	<g>
		<path d="M93.89,229.61c-0.08-0.61,0.29-1.27,0.83-1.61c0.53-0.37,1.16-0.53,1.79-0.58c0.63-0.06,1.29,0.09,1.84,0.27
			c0.57,0.17,1.1,0.39,1.62,0.58c0.52,0.19,1.04,0.35,1.57,0.36c0.53,0.02,1.06-0.16,1.57-0.43c0.51-0.26,1.06-0.54,1.66-0.64
			c0.59-0.1,1.2-0.12,1.79-0.08c1.19,0.07,2.27,0.21,3.36,0.01c1.09-0.19,2.24-0.49,3.37-0.68c2.28-0.38,4.57-0.7,6.91-0.82
			l0.02,0.1c-2.21,0.74-4.46,1.29-6.72,1.77c-1.14,0.22-2.25,0.43-3.45,0.56c-0.6,0.07-1.23,0.05-1.83-0.04
			c-0.6-0.08-1.16-0.25-1.71-0.36c-0.56-0.1-1.12-0.2-1.67-0.13c-0.56,0.05-1.06,0.3-1.56,0.59c-0.49,0.29-1.05,0.6-1.68,0.7
			c-0.63,0.09-1.26,0.02-1.85-0.11c-1.18-0.27-2.18-0.87-3.21-0.87c-0.52-0.01-1.07,0.05-1.54,0.26c-0.48,0.2-0.87,0.59-1,1.15
			L93.89,229.61z"/>
	</g>
	<g>
		<path d="M89,222.94c0.4-0.62,1.08-1.05,1.8-1.27c0.72-0.23,1.48-0.27,2.22-0.24c1.48,0.09,2.84,0.44,4.16,0.36
			c0.66-0.02,1.27-0.21,1.92-0.51c0.64-0.28,1.34-0.62,2.11-0.63c0.77-0.01,1.46,0.33,2.1,0.61c0.65,0.31,1.3,0.51,1.97,0.54
			c2.73,0.09,5.18-1.82,8.31-1.8c1.51,0.04,2.9,0.46,4.27,0.7c1.36,0.27,2.76,0.41,4.07-0.19l0.05,0.09
			c-1.17,0.92-2.81,1.01-4.23,0.88c-1.44-0.14-2.84-0.41-4.18-0.41c-1.32-0.01-2.65,0.37-4.02,0.76c-1.36,0.39-2.85,0.78-4.35,0.52
			c-1.53-0.19-2.62-1.44-4-1.37c-0.67,0.04-1.26,0.42-1.87,0.8c-0.59,0.38-1.33,0.74-2.09,0.84c-1.54,0.21-2.97-0.24-4.31-0.42
			c-1.33-0.16-2.79-0.16-3.87,0.79L89,222.94z"/>
	</g>
	<g>
		<path d="M83.57,215.54c0.32-0.76,1.26-1.04,2.03-1.01c0.8,0.03,1.53,0.24,2.19,0.24c0.65,0.01,1.22-0.28,1.82-0.68
			c0.59-0.39,1.23-0.89,2.06-1.1c0.83-0.2,1.66-0.06,2.39,0.16c0.73,0.24,1.41,0.55,2.1,0.8c0.69,0.25,1.41,0.43,2.12,0.4
			c0.72,0,1.36-0.32,1.97-0.72c0.61-0.39,1.2-0.89,1.97-1.18c0.77-0.33,1.71-0.28,2.45-0.04c0.76,0.21,1.43,0.52,2.09,0.61
			c0.66,0.13,1.34,0.1,2.03-0.01c1.38-0.2,2.77-0.73,4.22-1.14c1.43-0.41,3.05-0.67,4.51-0.19l-0.02,0.1
			c-3.02-0.26-5.43,1.72-8.53,2.28c-0.77,0.12-1.6,0.18-2.4-0.02c-0.81-0.17-1.49-0.52-2.16-0.73c-0.67-0.22-1.28-0.31-1.92-0.11
			c-0.64,0.2-1.28,0.57-1.96,0.91c-0.67,0.36-1.45,0.6-2.23,0.6c-0.78,0-1.52-0.23-2.23-0.44c-1.41-0.43-2.92-0.92-4.15-0.47
			c-0.61,0.2-1.17,0.65-1.82,1.05c-0.62,0.41-1.47,0.8-2.33,0.71c-0.83-0.06-1.52-0.4-2.2-0.49c-0.67-0.1-1.44-0.05-1.9,0.54
			L83.57,215.54z"/>
	</g>
	<g>
		<path class="st11" d="M132.97,232.38c3.48,1.68,7.27,2.42,11.03,2.19c1.89-0.09,3.8-0.41,5.72-0.66c0.96-0.12,1.93-0.23,2.91-0.23
			c0.98,0,1.96,0.15,2.87,0.08c1.83-0.18,3.47-1.34,5.42-1.81c1.91-0.52,3.9-0.76,5.86-0.7c3.94,0.13,7.73,1.12,11.4,2.31l-0.02,0.1
			c-3.82-0.57-7.61-1.31-11.4-1.34c-1.89-0.04-3.78,0.11-5.6,0.54c-0.91,0.22-1.8,0.51-2.72,0.84c-0.91,0.33-1.9,0.6-2.92,0.6
			c-1.02,0.01-1.95-0.27-2.9-0.27c-0.95-0.03-1.91,0.04-2.85,0.2c-1.89,0.32-3.74,0.92-5.7,1.17c-3.93,0.43-8.01-0.65-11.16-2.93
			L132.97,232.38z"/>
	</g>
	<g>
		<path class="st11" d="M128.63,226.74c3.97-0.73,8.14-1.21,12.2-0.43c0.99,0.18,1.97,0.34,2.94,0.28c0.97-0.06,1.94-0.35,2.87-0.74
			c0.93-0.38,1.83-0.86,2.79-1.23c0.95-0.37,1.98-0.69,3.06-0.62c1.1,0.04,2.1,0.57,2.97,1.03c0.89,0.48,1.75,0.77,2.68,0.72
			c1.87-0.08,3.7-1.15,5.79-1.52c4.11-0.8,8.5,0,11.92,2.25l-0.05,0.09c-3.7-1.66-7.81-2.13-11.66-1.29
			c-1.91,0.34-3.75,1.37-5.99,1.42c-0.55,0-1.12-0.08-1.64-0.26c-0.52-0.19-0.99-0.44-1.44-0.7c-0.89-0.51-1.69-1.06-2.65-1.18
			c-0.95-0.13-1.95,0.04-2.88,0.4c-0.94,0.34-1.86,0.78-2.79,1.2c-0.93,0.42-1.89,0.82-2.94,0.99c-1.05,0.16-2.1,0.09-3.12-0.01
			c-3.98-0.6-7.99-0.36-12.07-0.3L128.63,226.74z"/>
	</g>
	<g>
		<path class="st11" d="M128.37,220.67c1.37-1.24,3.09-2.11,4.92-2.56c1.83-0.47,3.79-0.37,5.58-0.1c1.79,0.27,3.61,0.63,5.35,0.16
			c0.87-0.22,1.65-0.71,2.51-1.06c0.86-0.37,1.86-0.52,2.8-0.36c1.91,0.27,3.54,1.23,5.25,1.46c1.72,0.29,3.5,0.05,5.27-0.24
			c1.78-0.3,3.58-0.69,5.42-0.9c1.84-0.2,3.77-0.14,5.51,0.5l-0.03,0.1c-3.64-0.65-7.1,0.66-10.72,1.35
			c-1.82,0.32-3.74,0.5-5.63,0.12c-1.93-0.34-3.48-1.44-5.18-1.85c-0.85-0.2-1.74-0.2-2.58,0.15c-0.84,0.31-1.64,0.78-2.55,1.05
			c-1.8,0.57-3.72,0.48-5.54,0.36c-1.82-0.16-3.58-0.31-5.33,0.03c-1.75,0.3-3.44,0.95-5.02,1.88L128.37,220.67z"/>
	</g>
	<g>
		<g>
			<path class="st12" d="M21.48,103.56c1.16,0.77,2.17,1.42,3.16,1.95c0.99,0.53,1.95,0.89,2.92,1.09c0.97,0.17,1.98,0.31,3.1,0.18
				c0.57,0.02,1.13-0.15,1.76-0.16c0.62-0.08,1.23-0.22,1.96-0.24c-0.37,0.58-0.84,1.09-1.34,1.57c-0.27,0.21-0.55,0.41-0.84,0.6
				c-0.29,0.2-0.59,0.38-0.93,0.5c-1.28,0.63-2.86,0.76-4.34,0.47c-1.49-0.31-2.83-1.13-3.77-2.2
				C22.21,106.25,21.56,104.97,21.48,103.56z"/>
		</g>
		<path class="st13" d="M34.78,106.17c0.05-0.02,0.1,0.05,0.06,0.09c-1.96,1.85-4.85,2.68-7.5,2.13c-2.49-0.52-5.1-2.42-5.97-4.88
			c-0.02-0.05,0.04-0.09,0.08-0.06C25.42,106.33,29.91,108,34.78,106.17z"/>
	</g>
	<g>
		<g>
			<path class="st12" d="M46.31,95.89c1.2,0.85,2.28,1.58,3.35,2.17c1.07,0.59,2.11,1,3.17,1.21c0.26,0.09,0.53,0.1,0.81,0.13
				c0.27,0.05,0.54,0.09,0.83,0.08l0.86,0.03c0.29-0.03,0.59-0.05,0.89-0.07c0.31,0,0.61-0.04,0.93-0.1
				c0.31-0.05,0.64-0.08,0.97-0.12c0.66-0.1,1.32-0.27,2.09-0.31c-0.42,0.61-0.92,1.14-1.47,1.64c-0.29,0.22-0.6,0.43-0.91,0.63
				c-0.31,0.21-0.64,0.4-1,0.53c-1.38,0.66-3.06,0.79-4.63,0.48c-1.58-0.33-3.01-1.2-4.03-2.32C47.16,98.74,46.45,97.38,46.31,95.89
				z"/>
		</g>
		<path class="st13" d="M60.65,98.71c0.06-0.02,0.11,0.05,0.06,0.09c-2.11,2-5.23,2.89-8.08,2.29c-2.68-0.56-5.49-2.6-6.44-5.26
			c-0.02-0.05,0.05-0.1,0.09-0.07C50.56,98.87,55.4,100.68,60.65,98.71z"/>
	</g>
	<g>
		<g>
			<path class="st12" d="M54.88,118.45c1.22,0.83,2.31,1.53,3.39,2.1c1.08,0.57,2.13,0.95,3.2,1.15c0.26,0.09,0.54,0.09,0.81,0.12
				c0.27,0.04,0.55,0.08,0.83,0.06l0.86,0.01c0.29-0.04,0.59-0.06,0.89-0.08c0.31,0,0.61-0.06,0.92-0.12
				c0.31-0.05,0.64-0.1,0.97-0.14c0.66-0.12,1.31-0.29,2.08-0.35c-0.4,0.61-0.9,1.16-1.43,1.67c-0.29,0.22-0.59,0.44-0.9,0.65
				c-0.31,0.22-0.63,0.41-0.99,0.55c-1.36,0.68-3.04,0.85-4.62,0.57c-1.59-0.3-3.04-1.14-4.08-2.24
				C55.78,121.29,55.04,119.94,54.88,118.45z"/>
		</g>
		<path class="st13" d="M69.27,120.98c0.06-0.02,0.11,0.05,0.06,0.09c-2.08,2.04-5.17,2.99-8.03,2.45c-2.69-0.51-5.55-2.5-6.54-5.13
			c-0.02-0.05,0.04-0.1,0.09-0.07C59.19,121.35,64.06,123.06,69.27,120.98z"/>
	</g>
	<g>
		<g>
			<path class="st12" d="M32.54,139.34c1.22,0.82,2.3,1.52,3.37,2.09c1.07,0.56,2.12,0.95,3.18,1.14c0.26,0.09,0.53,0.09,0.8,0.12
				c0.27,0.04,0.54,0.08,0.82,0.06l0.85,0.01c0.29-0.04,0.58-0.06,0.88-0.08c0.31,0,0.61-0.06,0.92-0.11
				c0.31-0.05,0.63-0.1,0.96-0.13c0.65-0.11,1.31-0.29,2.07-0.34c-0.4,0.61-0.89,1.15-1.42,1.67c-0.29,0.22-0.59,0.44-0.89,0.65
				c-0.3,0.22-0.62,0.41-0.98,0.54c-1.36,0.68-3.03,0.85-4.59,0.57c-1.58-0.29-3.02-1.13-4.06-2.24
				C33.43,142.16,32.7,140.82,32.54,139.34z"/>
		</g>
		<path class="st13" d="M46.85,141.85c0.06-0.02,0.11,0.05,0.06,0.09c-2.06,2.03-5.14,2.97-7.99,2.44c-2.67-0.5-5.51-2.48-6.5-5.1
			c-0.02-0.05,0.04-0.1,0.09-0.07C36.82,142.22,41.67,143.92,46.85,141.85z"/>
	</g>
	<g>
		<g>
			<path class="st12" d="M66.6,144.25c1.37,0.57,2.59,1.04,3.78,1.38c1.18,0.34,2.3,0.5,3.4,0.47c0.28,0.03,0.55-0.02,0.83-0.05
				c0.28-0.02,0.56-0.03,0.83-0.11l0.85-0.17c0.28-0.1,0.57-0.19,0.86-0.27c0.3-0.07,0.59-0.18,0.89-0.31
				c0.3-0.12,0.61-0.23,0.93-0.34c0.62-0.25,1.23-0.56,1.98-0.78c-0.27,0.69-0.65,1.32-1.07,1.94c-0.24,0.28-0.49,0.56-0.75,0.83
				c-0.26,0.28-0.53,0.54-0.86,0.74c-1.2,0.96-2.82,1.47-4.44,1.52c-1.63,0.04-3.23-0.49-4.49-1.37
				C68.09,146.85,67.08,145.68,66.6,144.25z"/>
		</g>
		<path class="st13" d="M81.33,143.76c0.05-0.03,0.12,0.03,0.08,0.08c-1.63,2.44-4.48,4.03-7.42,4.09
			c-2.76,0.06-5.99-1.31-7.53-3.71c-0.03-0.05,0.02-0.11,0.07-0.09C71.45,146.22,76.62,146.89,81.33,143.76z"/>
	</g>
	<g>
		<g>
			<path class="st12" d="M24.62,123.08c1.18,0.63,2.19,1.15,3.16,1.56c0.98,0.41,1.9,0.67,2.81,0.79c0.92,0.09,1.87,0.15,2.91-0.03
				c0.54-0.02,1.06-0.21,1.65-0.26c0.58-0.11,1.16-0.28,1.86-0.33c-0.3,0.59-0.7,1.11-1.13,1.62c-0.49,0.42-0.98,0.91-1.6,1.2
				c-1.17,0.7-2.67,0.95-4.1,0.78c-1.44-0.18-2.78-0.88-3.75-1.83C25.48,125.61,24.78,124.42,24.62,123.08z"/>
		</g>
		<path class="st13" d="M37.4,124.59c0.05-0.02,0.1,0.04,0.06,0.08c-1.72,1.89-4.4,2.89-6.94,2.55c-2.39-0.31-5-1.92-6.01-4.19
			c-0.02-0.05,0.03-0.09,0.08-0.06C28.55,125.41,32.92,126.67,37.4,124.59z"/>
	</g>
	<g>
		<path class="st11" d="M80.59,205.51c2.6-1.33,5.5-2.12,8.44-2.35c1.47-0.11,2.96-0.08,4.43,0.07c1.48,0.13,2.91,0.53,4.32,0.77
			c1.4,0.27,2.83,0.45,4.19,0.14c1.38-0.28,2.61-1.1,3.88-1.81c2.59-1.38,5.48-2.2,8.44-2.3c1.48-0.04,2.97,0.07,4.42,0.43
			c1.45,0.34,2.84,0.84,4.2,1.37c2.7,1.08,5.44,1.9,8.27,2.39c5.65,1.01,11.52,0.71,17.13-0.84l0.03,0.09
			c-5.43,2.16-11.51,2.74-17.34,1.8c-1.45-0.26-2.9-0.58-4.31-1.02c-1.41-0.45-2.79-0.98-4.13-1.54c-1.35-0.54-2.68-1.09-4.05-1.47
			c-1.37-0.38-2.79-0.6-4.22-0.65c-2.86-0.07-5.78,0.6-8.28,2.05c-1.25,0.7-2.44,1.62-3.91,2.04c-1.47,0.43-3.01,0.34-4.47,0.14
			c-1.46-0.24-2.87-0.54-4.28-0.72c-1.42-0.18-2.85-0.25-4.28-0.17c-2.87,0.11-5.71,0.69-8.45,1.68L80.59,205.51z"/>
	</g>
	<g>
		<path class="st11" d="M76.88,198.85c0.69-1.19,1.89-2.04,3.18-2.53c1.3-0.49,2.68-0.72,4.05-0.76c2.73-0.06,5.42,0.3,7.94-0.29
			c1.26-0.28,2.47-0.88,3.78-1.3c1.29-0.46,2.76-0.6,4.09-0.24c1.33,0.31,2.59,0.83,3.91,0.83c1.32,0.06,2.59-0.42,3.79-0.97
			c2.37-1.13,4.62-2.85,7.48-3.26c2.83-0.39,5.57,0.4,8.14,1.09c5.12,1.48,10.48,1.99,15.86,1.63l0.01,0.1
			c-5.31,1-10.89,0.71-16.14-0.7c-2.6-0.68-5.17-1.48-7.74-1.19c-2.56,0.29-4.86,1.82-7.39,2.83c-1.26,0.51-2.63,0.88-4.02,0.82
			c-1.4-0.03-2.67-0.61-3.96-0.86c-1.3-0.31-2.62-0.08-3.83,0.45c-1.22,0.49-2.4,1.19-3.76,1.58c-2.75,0.79-5.52,0.25-8.14,0.25
			c-1.31,0-2.64,0.09-3.89,0.49c-1.25,0.38-2.44,1.04-3.27,2.09L76.88,198.85z"/>
	</g>
	<g>
		<path class="st11" d="M63.14,186.13c2.55,0.08,4.95-0.73,7.34-1.53c2.39-0.76,4.9-1.66,7.57-1.47c2.66,0.19,4.96,1.42,7.46,1.68
			c2.51,0.25,4.99-0.53,7.36-1.37c2.37-0.84,4.84-1.76,7.51-1.75c1.33,0.01,2.59,0.25,3.8,0.27c1.2,0.03,2.39-0.19,3.57-0.55
			c1.19-0.34,2.36-0.82,3.58-1.22c1.22-0.41,2.5-0.71,3.79-0.86c2.57-0.3,5.2-0.05,7.62,0.77l-0.03,0.1
			c-2.49-0.5-5.03-0.53-7.48-0.09c-2.47,0.37-4.69,1.53-7.17,2.33c-1.24,0.38-2.58,0.65-3.92,0.57c-1.33-0.07-2.57-0.33-3.78-0.37
			c-2.44-0.08-4.89,0.66-7.33,1.33c-2.44,0.68-4.96,1.37-7.55,1.17c-2.57-0.2-5.02-1.15-7.47-1.17c-2.45-0.04-4.88,0.66-7.31,1.37
			c-2.42,0.68-5.03,1.35-7.58,0.89L63.14,186.13z"/>
	</g>
	<g>
		<path class="st11" d="M53.71,176.34c2.28-1.12,4.62-2.14,7.13-2.76c1.25-0.3,2.55-0.48,3.85-0.5c1.3-0.03,2.63,0.2,3.85,0.54
			c1.23,0.34,2.41,0.68,3.64,0.69c1.23,0.02,2.48-0.21,3.69-0.56c2.42-0.69,4.74-1.83,7.33-2.15c1.28-0.18,2.66-0.03,3.88,0.3
			c1.23,0.32,2.4,0.43,3.61,0.29c2.42-0.29,4.74-1.38,7.27-1.96c5.04-1.16,10.42-0.78,15.13,1.16l-0.03,0.09
			c-4.89-1.32-10.03-1.42-14.85-0.22c-2.4,0.57-4.78,1.61-7.42,1.86c-1.31,0.14-2.7-0.07-3.91-0.46c-1.21-0.37-2.38-0.61-3.63-0.53
			c-2.49,0.14-4.86,1.17-7.28,1.92c-1.21,0.38-2.46,0.72-3.77,0.8c-1.31,0.09-2.62-0.18-3.85-0.44c-2.43-0.59-4.89-0.62-7.35-0.1
			c-2.45,0.48-4.84,1.33-7.26,2.11L53.71,176.34z"/>
	</g>
	<g>
		<g>
			<ellipse class="st10" cx="87.22" cy="18.86" rx="9.58" ry="9.58"/>
			<circle class="st14" cx="87.57" cy="18.52" r="7.55"/>
			<ellipse class="st15" cx="88.28" cy="18.9" rx="9.78" ry="9.77"/>
		</g>
		<circle class="st12" cx="88.28" cy="18.9" r="2.09"/>
	</g>
	<path class="st1" d="M23.74,63.71C4.4,75.68-2.59,101.88,2.72,123.99c5.31,22.11,20.6,40.55,37.62,55.62
		c11.92,10.55,25.14,20.16,33.7,33.59c4.63,7.27,8.2,15.95,15.75,20.09c10.06,5.53,22.45,0.65,32.83-4.25
		c6.51,12.53,22.69,15.67,36.71,17.37c5.54,0.67,11.62,1.22,16.26-1.88c4.03-2.7,5.36-9.34,2.3-12.54
		c20.96,15.21,43.91,27.66,68.1,36.9c2.32,0.89,4.41-1.73,3.03-3.79c-2.72-4.07-5.45-8.15-8.17-12.22
		c-7.86-11.75-15.88-23.67-26.77-32.69c-17.33-14.34-40.04-19.87-61-28.04c-21.26-8.28-41.88-20.11-55.69-38.27
		c-13.81-18.16-19.63-43.58-10.24-64.38c0.26-0.59,0.56-1.16,0.85-1.73"/>
	<path class="st15" d="M24.28,67.59c-1.29,0.47-2.69,0.95-4.01,0.59c3.74-5.37,3.04-11.65,4.69-17.69
		c1.35-4.96,3.27-10.48,6.51-14.55c-1.81,0.14-3.62,0.27-5.43,0.41c2.37-2.18,4.74-4.35,7.11-6.53c-1.33-1.33-3.18-2.13-5.06-2.19
		C39.04,15.39,53.32,5.79,69.31,2.1s33.72-1.06,46.97,8.64c0.37,0.27,0.76,0.6,0.82,1.05c0.05,0.4-0.18,0.77-0.4,1.1"/>
	<path class="st15" d="M96.67,237.67c0,0-3.45,13.8-8.62,15.52s-34.5,0-34.5,0s-8.01,1.34-11.11,5.18c-0.46,0.56,0.1,1.39,0.81,1.22
		c2.66-0.68,7.77-1.66,11.63-0.48c2.12,0.65,4.32,0.98,6.53,0.98h31.81c0,0,9.25,0,15.03,2.31c0.54,0.22,0.99-0.44,0.6-0.87
		c-1.65-1.82-4.56-4.54-8.73-6.62c0,0,6.9-12.07,6.9-17.25H96.67z"/>
	<path class="st15" d="M150.12,246.29c0,0-3.45,13.8-8.62,15.52c-5.17,1.72-34.5,0-34.5,0s-8.01,1.34-11.11,5.18
		c-0.46,0.56,0.1,1.39,0.81,1.22c2.66-0.68,7.77-1.66,11.63-0.48c2.12,0.65,4.32,0.98,6.53,0.98h31.81c0,0,9.25,0,15.03,2.31
		c0.54,0.22,0.99-0.44,0.6-0.87c-1.65-1.82-4.56-4.54-8.73-6.62c0,0,6.9-12.07,6.9-17.25H150.12z"/>
</g>
</svg>
