<!-- Generator: Adobe Illustrator 23.1.1, SVG Export Plug-In  -->
<svg version="1.1" xmlns="http://www.w3.org/2000/svg" xmlns:xlink="http://www.w3.org/1999/xlink" x="0px" y="0px"
	 width="192.66px" height="27.18px" viewBox="0 0 192.66 27.18" style="enable-background:new 0 0 192.66 27.18;"
	 xml:space="preserve">
<defs>
</defs>
<g>
	<path d="M10.62,3.33c0.44,0.68,0.8,1.38,1.09,2.11c0.29,0.73,0.53,1.5,0.71,2.29c0.1,0.32,0.17,0.64,0.2,0.95
		c0.03,0.31,0.05,0.62,0.07,0.94c-0.04,0.94-0.07,1.89-0.1,2.83c-0.03,0.95-0.13,1.89-0.31,2.81c0,0.02,0,0.03-0.02,0.03
		s-0.01,0.01-0.01,0.03c-0.4,1.18-0.95,2.3-1.64,3.36s-1.42,2.06-2.17,3c-1.32,0.04-2.65,0.06-3.99,0.07
		c-1.34,0.01-2.64,0.02-3.9,0.02l-0.03,0.03c-0.22-1.58-0.36-3.21-0.42-4.91C0.03,15.21,0,13.5,0,11.76c0-1.74,0.02-3.5,0.04-5.27
		c0.03-1.77,0.02-3.52-0.01-5.26c0.02-0.02,0.03-0.04,0.04-0.06C0.08,1.15,0.1,1.13,0.12,1.11c0.56-0.14,1.14-0.23,1.75-0.29
		C2.48,0.78,3.1,0.75,3.72,0.76c0.62,0.01,1.23,0.03,1.84,0.05c0.61,0.02,1.2,0.02,1.79,0C7.99,0.97,8.6,1.29,9.2,1.75
		c0.59,0.47,0.88,0.71,0.88,0.71S10.26,2.75,10.62,3.33z M7.86,14.22c0.34-0.52,0.59-1.09,0.74-1.71c0.15-0.62,0.14-1.3-0.02-2.04
		c-0.06-0.3-0.13-0.61-0.21-0.94C8.29,9.19,8.18,8.88,8.02,8.58c-0.15-0.3-0.33-0.56-0.55-0.8c-0.22-0.23-0.5-0.4-0.84-0.52
		C6.29,7.22,5.92,7.2,5.52,7.19c-0.4-0.01-0.78,0.02-1.14,0.1H4.32H4.29v0.12c0.04,0.54,0.06,1.12,0.06,1.74
		c0,0.62-0.01,1.27-0.03,1.94c-0.02,0.67-0.03,1.35-0.03,2.04s0.02,1.38,0.06,2.05c0.22,0.2,0.52,0.29,0.92,0.27
		c0.39-0.02,0.77-0.05,1.12-0.09c0.1,0.02,0.19,0.01,0.27-0.04c0.08-0.05,0.17-0.09,0.27-0.14c0.2-0.12,0.38-0.26,0.52-0.44
		C7.6,14.58,7.74,14.4,7.86,14.22z"/>
	<path d="M26.46,6.9c0.02,0.12,0.03,0.24,0.04,0.36c0.01,0.12,0.02,0.24,0.02,0.36v0.3c-0.06,2.16-0.05,4.29,0.03,6.38
		s0.05,4.21-0.09,6.34c0,0.26,0,0.52-0.02,0.78c-0.01,0.26-0.13,0.41-0.38,0.45h-0.36c-0.32,0-0.65-0.01-0.98-0.04
		c-0.33-0.03-0.66-0.04-0.97-0.04c-0.22,0-0.44,0.02-0.65,0.04c-0.21,0.03-0.43,0.04-0.65,0.04c-0.14-0.04-0.24-0.12-0.29-0.24
		c-0.05-0.12-0.08-0.26-0.08-0.42c0-0.22,0.02-0.4,0.06-0.54c0.04-0.14,0.06-0.31,0.06-0.51c-0.48,0.48-1.08,0.89-1.81,1.23
		c-0.73,0.34-1.45,0.51-2.15,0.51c-0.78,0-1.45-0.27-2-0.81c-0.55-0.54-1-1.21-1.36-2.01c-0.36-0.8-0.63-1.67-0.79-2.61
		c-0.17-0.94-0.26-1.81-0.26-2.61c0-1,0.13-1.92,0.39-2.76c0.26-0.84,0.62-1.56,1.06-2.17c0.45-0.61,0.98-1.09,1.6-1.44
		c0.62-0.35,1.28-0.53,1.98-0.56c0.36,0,0.69,0.01,1.01,0.02C20.21,6.96,20.5,7,20.76,7.09c0.26,0.09,0.49,0.23,0.69,0.42
		c0.2,0.19,0.37,0.46,0.51,0.8c-0.02-0.32,0-0.6,0.04-0.83c0.05-0.23,0.08-0.46,0.08-0.71c0-0.02,0.06-0.03,0.19-0.04
		c0.13-0.01,0.27-0.01,0.44,0c0.16,0.01,0.32,0.02,0.48,0.02s0.27,0,0.33,0c0.34,0.02,0.75,0.04,1.25,0.06
		C25.25,6.83,25.82,6.86,26.46,6.9z M17.73,12.87c-0.08,0.26-0.13,0.53-0.15,0.8c-0.02,0.27-0.03,0.54-0.03,0.79
		c0,0.9,0.23,1.67,0.71,2.29c0.47,0.63,1.12,0.94,1.97,0.94c0.5,0,0.87-0.08,1.12-0.25c0.25-0.17,0.43-0.41,0.54-0.72
		c0.11-0.31,0.17-0.69,0.18-1.14c0.01-0.45,0.02-0.96,0.02-1.52c0-0.7-0.01-1.25-0.02-1.67C22.05,12,22,11.68,21.92,11.46
		c-0.09-0.22-0.24-0.36-0.45-0.42c-0.21-0.06-0.52-0.09-0.94-0.09c-0.82,0-1.47,0.2-1.94,0.58C18.11,11.92,17.83,12.37,17.73,12.87z
		"/>
	<path d="M32.76,7.89c0.08-0.04,0.27-0.12,0.56-0.24c0.29-0.12,0.57-0.23,0.85-0.33c0.38-0.12,0.81-0.21,1.29-0.29
		c0.48-0.07,0.93-0.11,1.35-0.13c0.42-0.02,0.77-0.02,1.06-0.02c0.29,0.01,0.44,0.03,0.44,0.04c0,0.68-0.01,1.28-0.02,1.8
		c-0.01,0.52-0.02,0.99-0.02,1.4c0,0.41,0,0.79,0,1.12c0,0.34,0.01,0.66,0.03,0.96l-0.27-0.09c-0.1-0.04-0.21-0.07-0.32-0.1
		c-0.11-0.03-0.21-0.06-0.31-0.1c-0.24-0.06-0.48-0.11-0.73-0.15c-0.25-0.04-0.39-0.06-0.4-0.06c-0.54-0.06-1.04-0.09-1.49-0.09
		c-0.45,0-0.84,0.07-1.17,0.21c-0.33,0.14-0.58,0.36-0.77,0.66c-0.18,0.3-0.26,0.73-0.24,1.29c0.02,0.7,0.04,1.36,0.06,1.98
		c0.02,0.62,0.03,1.24,0.03,1.88c0,0.63,0,1.27,0.02,1.92c0.01,0.65,0.02,1.35,0.02,2.08v0.12c-0.34,0.1-0.65,0.16-0.93,0.18
		c-0.28,0.02-0.57,0.02-0.87,0.02c-0.3-0.01-0.62-0.03-0.98-0.04c-0.35-0.02-0.76-0.01-1.24,0.03c0-2.46-0.03-4.92-0.08-7.38
		c-0.05-2.46-0.04-5.01,0.04-7.65c0.24,0.02,0.44,0.04,0.6,0.04c0.16,0.01,0.31,0.02,0.45,0.02c0.14,0,0.29,0,0.45-0.02
		c0.16-0.01,0.36-0.02,0.6-0.04c0.08,0,0.23-0.01,0.44-0.03c0.21-0.02,0.43-0.04,0.66-0.06c0.23-0.02,0.43-0.02,0.6-0.02
		c0.17,0.01,0.26,0.04,0.26,0.07c0,0.16,0,0.28,0,0.36c0,0.08,0,0.15,0,0.19c0,0.05,0,0.1,0.01,0.17S32.76,7.75,32.76,7.89z"/>
	<path d="M43.83,0.06v6.57c0,0.66-0.02,1.36-0.05,2.1c-0.03,0.74-0.01,1.34,0.05,1.8c0.34-0.3,0.63-0.63,0.88-0.99
		c0.25-0.36,0.48-0.73,0.71-1.1c0.22-0.37,0.44-0.74,0.67-1.12c0.23-0.38,0.5-0.74,0.79-1.08c0.26,0.1,0.6,0.16,1.02,0.17
		c0.42,0.01,0.85,0.01,1.31,0c0.45-0.01,0.9-0.03,1.33-0.06c0.44-0.03,0.8-0.03,1.08-0.01c-0.74,1.14-1.54,2.26-2.4,3.38
		c-0.86,1.11-1.71,2.23-2.55,3.34c0.9,1.46,1.8,2.91,2.72,4.33c0.91,1.43,1.74,2.92,2.5,4.46c-0.28,0-0.64,0.02-1.06,0.04
		c-0.43,0.03-0.88,0.05-1.33,0.08c-0.46,0.02-0.91,0.02-1.33,0c-0.43-0.02-0.8-0.06-1.1-0.12c-0.3-0.48-0.58-0.97-0.83-1.47
		c-0.25-0.5-0.49-0.99-0.73-1.48c-0.24-0.49-0.5-0.98-0.77-1.46c-0.27-0.48-0.57-0.94-0.91-1.38c0,0.36,0.01,0.78,0.03,1.26
		c0.02,0.48,0.03,0.98,0.03,1.5s-0.01,1.04-0.03,1.57c-0.02,0.53-0.07,1.02-0.15,1.46c-0.22-0.02-0.5-0.02-0.83-0.02
		c-0.33,0.01-0.67,0.02-1.03,0.04c-0.36,0.02-0.73,0.03-1.1,0.03c-0.37,0-0.71-0.02-1-0.06c-0.14-3.72-0.17-7.37-0.09-10.95
		c0.08-3.58,0.11-7.19,0.09-10.83c0.3,0,0.63,0,1-0.02c0.37-0.01,0.74-0.02,1.11-0.03C42.23,0,42.59,0,42.93,0
		C43.27,0,43.57,0.02,43.83,0.06z"/>
	<path d="M51.87,15.78c0-0.24,0-0.61,0.02-1.11c0.01-0.5,0.02-1.02,0.03-1.54c0.01-0.53,0.02-1.01,0.03-1.43s0.02-0.66,0.02-0.72
		c0.02,0,0.33,0,0.93,0s1.35,0,2.27,0c0.91,0,1.9,0,2.98,0s2.1,0,3.07,0s1.83,0,2.57,0c0.74,0,1.23,0,1.47,0
		c0.02,0.84,0,1.68-0.04,2.52c-0.05,0.84-0.01,1.67,0.13,2.49h-0.03c-0.1,0-0.49,0-1.17,0c-0.68,0-1.5-0.01-2.46-0.03
		s-1.99-0.04-3.09-0.06c-1.1-0.02-2.13-0.03-3.09-0.04c-0.96-0.01-1.78-0.02-2.46-0.04C52.36,15.79,51.97,15.78,51.87,15.78z"/>
	<path d="M80.31,17.76v0.06c0.04,0.64,0.05,1.31,0.03,2c-0.02,0.69-0.11,1.33-0.27,1.94c-2.04-0.02-4.12,0-6.23,0.07
		c-2.11,0.07-4.14,0.02-6.07-0.13c0-1.74-0.02-3.47-0.06-5.18c-0.04-1.71-0.07-3.41-0.09-5.11c-0.02-1.7-0.02-3.4,0-5.1
		c0.02-1.7,0.08-3.41,0.18-5.13c0.78-0.04,1.62-0.08,2.54-0.1c0.91-0.03,1.82-0.06,2.75-0.08c0.92-0.02,1.81-0.04,2.67-0.06
		c0.86-0.02,1.62-0.03,2.28-0.03c0.66,0,1.19,0.01,1.59,0.03c0.4,0.02,0.6,0.04,0.6,0.06c0.1,0.7,0.12,1.41,0.08,2.13
		c-0.05,0.72-0.08,1.43-0.08,2.13v0.03c-0.64,0.14-1.29,0.23-1.93,0.25c-0.65,0.03-1.31,0.04-1.97,0.03
		C75.66,5.56,75,5.55,74.34,5.55s-1.32,0.03-1.98,0.09h-0.09l-0.03,0.03c0.02,0.58,0,1.18-0.07,1.79c-0.07,0.61-0.04,1.18,0.1,1.72
		l0.03,0.03c0.6,0.04,1.21,0.06,1.83,0.06c0.62,0,1.24,0.01,1.86,0.03v0.03c0.1,0.68,0.13,1.36,0.09,2.04
		c-0.04,0.68-0.05,1.39-0.03,2.13c-0.3,0.08-0.64,0.12-1.02,0.13c-0.38,0.01-0.75,0.02-1.09,0.02c-0.35,0-0.67,0.01-0.95,0.03
		c-0.28,0.02-0.47,0.07-0.57,0.15c-0.1,0.58-0.13,1.23-0.1,1.95c0.03,0.72,0.06,1.32,0.1,1.8l0.03,0.03c1.32,0,2.62,0.04,3.9,0.1
		C77.63,17.79,78.95,17.8,80.31,17.76z"/>
	<path d="M84.51,6.93c0.14,0.72,0.3,1.58,0.48,2.56c0.18,0.99,0.37,2,0.57,3.02c0.2,1.02,0.41,2,0.63,2.93
		c0.22,0.93,0.44,1.69,0.66,2.29c0.22-0.6,0.4-1.39,0.54-2.37c0.14-0.98,0.27-2,0.4-3.06c0.13-1.06,0.27-2.08,0.44-3.06
		c0.16-0.98,0.36-1.77,0.6-2.37c0.68,0.02,1.37,0.01,2.07-0.03c0.7-0.04,1.47-0.03,2.31,0.03c-0.32,1.2-0.6,2.35-0.85,3.44
		c-0.25,1.09-0.5,2.16-0.73,3.2c-0.26,0.98-0.5,2.01-0.71,3.09s-0.47,2.14-0.78,3.18s-0.7,2.03-1.18,2.97s-1.12,1.75-1.91,2.45
		c-0.79,0.69-1.77,1.21-2.94,1.57s-2.61,0.49-4.31,0.39c-0.2-0.6-0.3-1.27-0.31-2.02c-0.01-0.75,0.04-1.41,0.14-1.97
		c0.48,0,0.98,0.02,1.48,0.06s0.96,0.02,1.37-0.07c0.4-0.09,0.7-0.29,0.91-0.58c0.21-0.3,0.27-0.78,0.17-1.44
		c-0.42-2.42-0.95-4.84-1.59-7.26c-0.64-2.42-1.27-4.76-1.89-7.02c0.72,0.08,1.48,0.1,2.28,0.04C83.15,6.83,83.87,6.85,84.51,6.93z"
		/>
	<path d="M97.71,14.31v0.54c0.02,0.6,0.04,1.09,0.07,1.47c0.03,0.38,0.15,0.75,0.38,1.11c0.24,0.46,0.58,0.8,1.02,1.02
		c0.44,0.22,0.87,0.29,1.29,0.21c0.42-0.08,0.77-0.32,1.06-0.73c0.29-0.41,0.42-1.02,0.38-1.84c0.2,0.02,0.47,0.02,0.81,0.01
		c0.34-0.01,0.69-0.02,1.06-0.04c0.37-0.02,0.72-0.02,1.06-0.02c0.34,0.01,0.62,0.05,0.84,0.1c-0.04,0.52-0.08,1.03-0.12,1.53
		c-0.04,0.5-0.09,0.96-0.15,1.4s-0.14,0.8-0.23,1.11c-0.09,0.31-0.21,0.52-0.35,0.65c-0.34,0.48-0.78,0.82-1.32,1.02
		s-1.13,0.32-1.77,0.36c-0.64,0.04-1.29,0.04-1.96,0c-0.67-0.04-1.29-0.06-1.85-0.06c-0.56-0.08-1.08-0.26-1.56-0.54
		c-0.54-0.38-0.99-0.87-1.35-1.48c-0.36-0.61-0.65-1.28-0.87-2.01c-0.22-0.73-0.37-1.5-0.45-2.33c-0.08-0.82-0.1-1.64-0.06-2.46
		c0.06-0.74,0.12-1.46,0.2-2.15c0.07-0.69,0.22-1.36,0.46-2.02c0.26-0.58,0.66-1.07,1.2-1.48c0.54-0.41,1.15-0.72,1.83-0.93
		c0.68-0.21,1.4-0.32,2.16-0.35c0.76-0.02,1.5,0.06,2.22,0.24c0.92,0.16,1.66,0.48,2.22,0.96c0.56,0.48,0.98,1.06,1.27,1.74
		s0.47,1.43,0.53,2.25c0.06,0.82,0.06,1.65,0,2.49c-0.14,0.04-0.41,0.08-0.8,0.12c-0.39,0.04-0.85,0.08-1.38,0.12
		c-0.53,0.04-1.09,0.07-1.69,0.09c-0.6,0.02-1.18,0.03-1.73,0.03c-0.55,0-1.05-0.01-1.48-0.03C98.23,14.38,97.91,14.35,97.71,14.31z
		 M101.34,9.66c-0.16-0.1-0.32-0.17-0.48-0.22c-0.16-0.05-0.35-0.08-0.57-0.08c-0.48,0-0.87,0.05-1.17,0.15
		c-0.3,0.1-0.54,0.24-0.72,0.42c-0.18,0.18-0.31,0.39-0.41,0.63c-0.09,0.24-0.15,0.49-0.19,0.75c-0.04,0.22-0.06,0.38-0.04,0.46
		c0.01,0.09,0.1,0.15,0.28,0.18c0.18,0.03,0.47,0.04,0.86,0.03c0.39-0.01,0.96-0.02,1.72-0.02c0.52,0,0.91,0.01,1.17,0.03
		s0.45,0.03,0.56,0.01c0.11-0.01,0.17-0.04,0.17-0.09c0-0.05,0-0.15,0-0.31c0-0.4-0.1-0.78-0.31-1.14
		C101.98,10.11,101.7,9.84,101.34,9.66z"/>
	<path d="M115.26,1.08V0.75c0-0.02,0.13-0.04,0.4-0.08c0.27-0.03,0.6-0.05,0.99-0.06c0.39-0.01,0.8-0.01,1.24,0
		c0.44,0.01,0.82,0.04,1.14,0.1V2.7c0,3.34,0.05,6.64,0.15,9.9c0.1,3.26,0.11,6.33,0.03,9.21c-0.62,0-1.3,0.01-2.04,0.04
		c-0.74,0.03-1.41,0-2.01-0.08c-0.02-0.04-0.03-0.11-0.03-0.21c0-0.2-0.01-0.36-0.02-0.48c-0.01-0.12-0.02-0.29-0.02-0.51
		c-0.04-0.1-0.08-0.18-0.13-0.23c-0.05-0.05-0.1-0.02-0.17,0.1c-0.3,0.6-0.7,0.99-1.2,1.15c-0.5,0.17-1.03,0.22-1.59,0.14
		c-1.14-0.08-2.04-0.38-2.7-0.89c-0.66-0.51-1.16-1.16-1.49-1.95s-0.55-1.67-0.66-2.66c-0.11-0.98-0.18-1.97-0.2-2.97
		c0-0.7,0.04-1.38,0.14-2.04c0.09-0.66,0.23-1.26,0.42-1.81c0.19-0.55,0.44-1.02,0.75-1.41c0.31-0.39,0.68-0.66,1.12-0.83
		c0.54-0.2,1.13-0.32,1.79-0.38c0.65-0.05,1.26-0.05,1.84,0c0.58,0.05,1.07,0.15,1.47,0.29c0.4,0.14,0.62,0.3,0.66,0.48
		c-0.02-0.94-0.03-1.7-0.03-2.28s0-1.04,0-1.4s0-0.62,0.02-0.81c0.01-0.19,0.02-0.37,0.03-0.54c0.01-0.17,0.02-0.36,0.03-0.57
		C115.22,1.78,115.24,1.48,115.26,1.08z M110.61,12.39c-0.1,0.28-0.16,0.57-0.18,0.87c-0.02,0.3-0.03,0.59-0.03,0.87
		c0,0.5,0.06,0.99,0.18,1.46c0.12,0.47,0.3,0.89,0.54,1.26c0.24,0.37,0.53,0.67,0.87,0.89c0.34,0.22,0.72,0.33,1.14,0.33
		c0.5,0,0.9-0.11,1.19-0.33s0.51-0.52,0.66-0.9s0.24-0.83,0.27-1.37c0.03-0.53,0.04-1.11,0.04-1.75c0-0.78-0.02-1.4-0.04-1.85
		c-0.03-0.45-0.1-0.79-0.23-1.03c-0.12-0.24-0.31-0.4-0.55-0.47c-0.25-0.07-0.59-0.1-1.01-0.1c-0.82,0-1.48,0.18-1.96,0.54
		C111,11.16,110.71,11.69,110.61,12.39z"/>
	<path d="M134.13,0.54l4.38-0.06c-0.04,1.88-0.02,3.78,0.06,5.7c0.08,1.92,0.1,3.85,0.06,5.79c-0.04,0.82-0.07,1.71-0.09,2.66
		c-0.02,0.95-0.12,1.87-0.31,2.74c-0.19,0.88-0.52,1.68-0.99,2.4c-0.47,0.72-1.17,1.25-2.08,1.59c-0.84,0.42-1.76,0.65-2.76,0.71
		c-1,0.05-1.95-0.03-2.85-0.23c-0.82-0.24-1.48-0.68-1.98-1.32s-0.88-1.38-1.14-2.21c-0.26-0.83-0.43-1.7-0.5-2.61
		c-0.07-0.91-0.09-1.75-0.04-2.51c0.26-0.06,0.58-0.1,0.98-0.12c0.39-0.02,0.79-0.03,1.21-0.03s0.84,0.02,1.27,0.06
		c0.43,0.04,0.83,0.09,1.19,0.15v0.03v0.15c0.02,0.3,0.05,0.65,0.1,1.03c0.05,0.39,0.15,0.76,0.29,1.11
		c0.14,0.35,0.32,0.65,0.54,0.88c0.22,0.24,0.51,0.37,0.87,0.39c0.3,0.06,0.56,0.04,0.78-0.06c0.22-0.1,0.4-0.25,0.55-0.46
		c0.15-0.21,0.27-0.45,0.35-0.72c0.08-0.27,0.13-0.55,0.15-0.85c-0.04-2.24-0.07-4.54-0.1-6.9c-0.03-2.36,0-4.73,0.08-7.11V0.54z"/>
	<path d="M148.08,20.22c-0.1,0.06-0.23,0.13-0.38,0.21c-0.15,0.08-0.28,0.16-0.38,0.24c-0.42,0.3-0.89,0.54-1.41,0.72
		c-0.52,0.18-1.06,0.28-1.6,0.3c-0.55,0.02-1.08-0.04-1.6-0.18c-0.52-0.14-0.99-0.39-1.41-0.75c-0.2-0.18-0.35-0.55-0.46-1.12
		c-0.11-0.57-0.18-1.25-0.21-2.05c-0.03-0.8-0.04-1.68-0.03-2.62s0.02-1.91,0.05-2.88c0.02-0.97,0.04-1.9,0.06-2.8
		c0.02-0.9,0.01-1.69-0.03-2.37c0.7-0.1,1.32-0.15,1.88-0.14c0.55,0.01,1.17,0.02,1.88,0.02c0.04,0.46,0.06,0.98,0.06,1.56
		s-0.01,1.18-0.02,1.8c-0.01,0.62-0.01,1.24,0,1.86c0.01,0.62,0.03,1.2,0.08,1.74c0.02,0.24,0.04,0.51,0.06,0.79
		c0.02,0.29,0.05,0.58,0.1,0.85c0.05,0.28,0.12,0.53,0.21,0.75c0.09,0.22,0.21,0.39,0.38,0.51c0.02,0.02,0.04,0.03,0.06,0.03
		c0.02,0,0.04,0.01,0.06,0.03c0.16,0.08,0.4,0.15,0.71,0.19c0.31,0.05,0.62,0.03,0.92-0.06c0.3-0.09,0.57-0.27,0.81-0.54
		c0.24-0.27,0.38-0.67,0.42-1.21c0.04-0.68,0.05-1.36,0.03-2.04c-0.02-0.68-0.04-1.35-0.08-2.02c-0.03-0.67-0.05-1.33-0.06-2
		c-0.01-0.66,0.03-1.32,0.14-1.98V6.93c0.34-0.1,0.63-0.16,0.88-0.18s0.5-0.02,0.77-0.02c0.26,0.01,0.55,0.03,0.87,0.04
		c0.32,0.02,0.72,0.01,1.2-0.03c0,2.46,0.02,4.92,0.08,7.38c0.05,2.46,0.03,5.01-0.04,7.65c-0.24-0.02-0.44-0.03-0.6-0.04
		c-0.16-0.01-0.31-0.02-0.45-0.02c-0.14,0-0.29,0.01-0.45,0.02c-0.16,0.01-0.36,0.03-0.6,0.04c-0.08,0-0.22,0.02-0.42,0.04
		c-0.2,0.03-0.4,0.06-0.6,0.08c-0.2,0.02-0.38,0.02-0.54,0.02c-0.16-0.01-0.24-0.05-0.24-0.1c-0.04-0.34-0.06-0.62-0.05-0.84
		C148.1,20.75,148.1,20.5,148.08,20.22z"/>
	<path d="M158.22,8.46c0.1-0.06,0.23-0.13,0.38-0.21c0.15-0.08,0.27-0.16,0.38-0.24c0.42-0.3,0.89-0.54,1.41-0.72
		c0.52-0.18,1.05-0.28,1.6-0.3c0.55-0.02,1.08,0.04,1.6,0.18c0.52,0.14,0.99,0.39,1.41,0.75c0.2,0.18,0.35,0.55,0.46,1.12
		c0.11,0.57,0.18,1.26,0.21,2.05c0.03,0.8,0.04,1.68,0.03,2.62c-0.01,0.95-0.03,1.91-0.05,2.88s-0.04,1.9-0.06,2.8
		c-0.02,0.9-0.01,1.69,0.03,2.37c-0.7,0.1-1.33,0.15-1.88,0.14c-0.55-0.01-1.18-0.02-1.88-0.02c-0.04-0.46-0.06-0.98-0.06-1.56
		s0-1.18,0.02-1.8c0.01-0.62,0.01-1.24,0-1.86c-0.01-0.62-0.04-1.2-0.08-1.74c-0.02-0.24-0.04-0.5-0.06-0.79s-0.06-0.57-0.1-0.85
		s-0.12-0.53-0.21-0.75c-0.09-0.22-0.21-0.39-0.38-0.51c-0.02-0.02-0.04-0.03-0.06-0.03s-0.04-0.01-0.06-0.03
		c-0.16-0.08-0.4-0.14-0.71-0.19c-0.31-0.05-0.62-0.03-0.92,0.06c-0.3,0.09-0.57,0.27-0.81,0.54c-0.24,0.27-0.38,0.67-0.42,1.21
		c-0.04,0.7-0.05,1.39-0.03,2.06s0.04,1.34,0.08,2.01c0.03,0.67,0.04,1.33,0.04,2s-0.04,1.32-0.12,1.98v0.12
		c-0.34,0.1-0.64,0.16-0.88,0.18c-0.25,0.02-0.51,0.02-0.77,0.02c-0.26-0.01-0.55-0.03-0.87-0.04c-0.32-0.02-0.72-0.01-1.2,0.03
		c0-2.46-0.03-4.92-0.08-7.38c-0.05-2.46-0.04-5.01,0.04-7.65c0.24,0.02,0.44,0.04,0.6,0.04c0.16,0.01,0.31,0.02,0.45,0.02
		c0.14,0,0.29,0,0.45-0.02c0.16-0.01,0.36-0.02,0.6-0.04c0.08,0,0.22-0.02,0.42-0.04c0.2-0.03,0.4-0.06,0.6-0.08
		c0.2-0.02,0.38-0.02,0.54-0.02c0.16,0.01,0.24,0.05,0.24,0.1c0.04,0.34,0.06,0.62,0.05,0.84C158.19,7.93,158.2,8.18,158.22,8.46z"
		/>
	<path d="M179.28,16.08c-0.04,0.52-0.08,1.03-0.12,1.53c-0.04,0.5-0.09,0.97-0.15,1.4c-0.06,0.43-0.13,0.8-0.23,1.11
		c-0.09,0.31-0.21,0.54-0.34,0.68c-0.34,0.48-0.79,0.82-1.33,1.02c-0.55,0.2-1.15,0.32-1.79,0.38c-0.64,0.05-1.3,0.05-1.98,0
		c-0.68-0.05-1.3-0.08-1.86-0.08c-1.02-0.18-1.88-0.62-2.58-1.32c-0.54-0.48-0.91-1.08-1.11-1.8c-0.2-0.72-0.32-1.47-0.36-2.27
		c-0.04-0.79-0.04-1.58-0.01-2.38c0.03-0.8,0-1.53-0.08-2.19c0-0.72,0.06-1.44,0.18-2.16c0.02-0.22,0.09-0.52,0.21-0.9
		c0.12-0.38,0.21-0.67,0.27-0.87c0.14-0.3,0.36-0.56,0.67-0.78c0.31-0.22,0.67-0.41,1.08-0.56c0.41-0.15,0.85-0.25,1.32-0.31
		s0.95-0.09,1.43-0.09c0.4,0.04,0.78,0.04,1.15,0.01c0.37-0.03,0.77-0.02,1.19,0.02c0.64,0.04,1.25,0.16,1.83,0.36
		c0.58,0.2,1.08,0.5,1.5,0.9c0.28,0.2,0.5,0.47,0.65,0.81s0.26,0.74,0.34,1.2c0.08,0.46,0.12,0.98,0.14,1.54
		c0.01,0.57,0.02,1.19,0.04,1.85c-0.26,0.06-0.56,0.09-0.88,0.09c-0.33,0-0.67-0.01-1.02-0.03c-0.35-0.02-0.69-0.05-1.02-0.09
		c-0.33-0.04-0.63-0.08-0.89-0.12c-0.1-0.7-0.39-1.25-0.87-1.64c-0.48-0.39-1.11-0.48-1.89-0.29c-0.42,0.12-0.76,0.34-1.02,0.66
		c-0.12,0.08-0.21,0.28-0.27,0.6c-0.08,0.62-0.12,1.25-0.12,1.89s-0.02,1.31-0.06,2.01c-0.04,0.46,0.08,0.82,0.35,1.08
		c0.27,0.26,0.59,0.44,0.98,0.52c0.38,0.09,0.77,0.11,1.17,0.06c0.4-0.05,0.72-0.15,0.96-0.31c0.2-0.14,0.35-0.38,0.46-0.71
		s0.19-0.62,0.25-0.88c0.2,0.02,0.47,0.02,0.81,0.01c0.34-0.01,0.7-0.02,1.08-0.04c0.38-0.02,0.74-0.02,1.08-0.02
		C178.78,15.99,179.06,16.02,179.28,16.08z"/>
	<path d="M181.26,8.16c0.14-0.3,0.36-0.56,0.67-0.78c0.31-0.22,0.67-0.41,1.08-0.56c0.41-0.15,0.85-0.25,1.32-0.31
		s0.95-0.09,1.43-0.09c0.4,0.04,0.78,0.04,1.15,0.02c0.37-0.03,0.77-0.02,1.19,0.01c0.64,0.04,1.25,0.17,1.83,0.38
		c0.58,0.21,1.08,0.52,1.5,0.92c0.28,0.18,0.5,0.47,0.66,0.87c0.16,0.4,0.28,0.87,0.36,1.4c0.08,0.53,0.13,1.11,0.15,1.74
		c0.02,0.63,0.04,1.28,0.06,1.94c-0.02,0.58-0.04,1.24-0.08,1.98c-0.03,0.74-0.08,1.45-0.15,2.13c-0.07,0.68-0.16,1.29-0.27,1.83
		c-0.11,0.54-0.27,0.91-0.46,1.11c-0.34,0.48-0.79,0.82-1.33,1.02c-0.55,0.2-1.15,0.32-1.79,0.38c-0.64,0.05-1.3,0.05-1.98,0
		c-0.68-0.05-1.3-0.08-1.86-0.08c-1.02-0.18-1.88-0.62-2.58-1.32c-0.54-0.48-0.91-1.08-1.11-1.8c-0.2-0.72-0.32-1.47-0.36-2.26
		s-0.04-1.58-0.01-2.39c0.03-0.8,0.01-1.53-0.04-2.19c0-0.36,0.01-0.71,0.03-1.06c0.02-0.35,0.06-0.71,0.12-1.1
		c0.02-0.22,0.09-0.51,0.21-0.88S181.2,8.38,181.26,8.16z M185.01,11.7c-0.12,0.08-0.21,0.28-0.27,0.6
		c-0.08,0.64-0.12,1.27-0.12,1.91c0,0.63-0.02,1.29-0.06,1.99c-0.02,0.46,0.1,0.82,0.36,1.06c0.26,0.25,0.57,0.42,0.95,0.51
		c0.37,0.09,0.75,0.11,1.15,0.06c0.4-0.05,0.73-0.15,0.99-0.29c0.34-0.16,0.57-0.49,0.69-0.99c0.08-0.64,0.15-1.29,0.19-1.94
		s0.02-1.26-0.1-1.85c-0.1-0.7-0.39-1.21-0.87-1.53c-0.48-0.32-1.11-0.39-1.89-0.21C185.61,11.16,185.27,11.38,185.01,11.7z"/>
</g>
</svg>
